<svg xmlns="http://www.w3.org/2000/svg" xmlns:xlink="http://www.w3.org/1999/xlink" width="237px" height="40" viewBox="0 0 178 30"><svg overflow="visible" x=".204" y="18.123"><path d="M9.61-8.531c-.438.015-.876.031-1.313.031-.422 0-.844-.016-1.375-.047l-.11.61.735.03c.312 0 .281-.046.281.157 0 .078-.031.39-.062.547L6.812-1.36l.235-.094L2.89-8.547c-.375.031-.704.047-1.032.047-.312 0-.64-.016-1.078-.047l-.11.61.579.03c.203 0 .36.048.5.157.172.14.313.281.313.375 0 .078-.032.281-.047.36L.953-1.345c-.14.735-.062.703-.5.75l-.484.047-.11.594L1.344 0c.453 0 .89.016 1.422.047l.109-.594-.656-.047c-.469-.047-.453 0-.453-.39 0-.11.015-.235.046-.36l.954-5.547-.25.094L6.594.125h.781l1.14-6.734c.235-1.344.157-1.282.594-1.297l.547-.032.11-.609zm0 0"/></svg><svg overflow="visible" x="9.505" y="20.897"><path d="M2.516-.984l-.157-.25-.406.25c-.297.171-.375.218-.469.218-.078 0 .016.063.016-.046 0-.079.016-.157.063-.344l.75-2.688c.046-.156.062-.234.062-.328 0-.14-.234-.36-.39-.36-.22 0-.688.22-1.407.688l-.344.235.172.421.5-.28c.266-.173.266-.173.344-.173.11 0 0-.062 0 .047 0 .078-.031.266-.063.39l-.64 2.126c-.094.281-.125.5-.125.687 0 .204.266.47.437.47.266 0 .72-.235 1.735-.923zm.28-4.72c0-.202-.28-.484-.483-.484-.297 0-.735.422-.735.72 0 .218.313.5.547.5.313 0 .672-.391.672-.735zm0 0"/></svg><svg overflow="visible" x="12.407" y="20.897"><path d="M2.297-1.188l-.203-.187-1.125.328C.89-.28.688.187.047 1.172l.297.219.531-.235C1.656.234 2.063-.422 2.359-1.14zm0 0"/></svg><svg overflow="visible" x="14.99" y="20.897"><path d="M4.266-.11V-.5l-.657-.031c-.515-.031-.468.015-.468-.453v-5.329l-.282-.093c-.625.297-1.312.562-2.375.906l.11.594h.234l1.25-.516.031-.016c.047 0-.078-.046-.078.172v4.282c0 .468.047.421-.469.453L.86-.5v.531L2.594 0l1.672.031zm0 0"/></svg><svg overflow="visible" x="20.487" y="18.123"><path d="M4.203-7.828a.735.735 0 01-.187-.14c-.063-.063-.11-.126-.22-.329-1.593 1.61-2.5 3.266-2.5 4.781v.797c0 1.516.907 3.172 2.5 4.781.11-.203.157-.265.22-.328.062-.062.125-.109.312-.203C2.875.063 2.281-1.344 2.281-2.719v-.797c0-1.39.594-2.78 2.047-4.25zm0 0"/></svg><svg overflow="visible" x="25.556" y="18.123"><path d="M3.703-5.516c-.453.047-.86.063-1.156.063.172-.984.297-1.578.531-2.25l-.25-.328a7.16 7.16 0 01-1.094.531l-.296 2.031c-.391.203-.704.328-1.063.407l-.047.406h1l-.64 3.25C.625-1.11.53-.813.53-.5c0 .297.266.61.5.61.422 0 .922-.282 1.86-1.032.218-.172.14-.125.437-.36l-.25-.437-.672.469c-.36.25-.484.313-.625.313-.093 0-.031.046-.031-.11 0-.297.156-1.234.516-3l.14-.61h1.266l.203-.89zm0 0"/></svg><svg overflow="visible" x="29.597" y="18.123"><path d="M3.766-2.719v-.797c0-1.515-.907-3.171-2.516-4.78-.11.202-.156.265-.203.327-.063.063-.125.11-.313.203 1.438 1.47 2.032 2.86 2.032 4.25v.797c0 1.375-.594 2.781-2.032 4.25.188.094.25.14.313.203.047.063.094.125.203.329C2.86.452 3.766-1.204 3.766-2.72zm0 0"/></svg><svg overflow="visible" x="37.977" y="18.123"><path d="M8.266-4.078a1.419 1.419 0 01-.047-.36c0-.109.015-.234.062-.484h-7.5c.063.25.063.375.063.484 0 .125 0 .235-.063.5h7.5zm0 2.625a1.332 1.332 0 01-.047-.36c0-.109.015-.234.062-.484h-7.5c.063.25.063.375.063.485 0 .125 0 .25-.063.5h7.5zm0 0"/></svg><svg overflow="visible" x="50.387" y="18.123"><path d="M5.89 10.797c-1.374-.375-1.796-1.485-1.796-3.203V.437c0-1.921-.766-3.218-1.782-3.687v.266c1.016-.47 1.782-1.766 1.782-3.704v-7.14c0-1.719.422-2.828 1.984-3.25-.125-.235-.125-.235-.156-.297-.016-.094-.016-.172-.016-.406-1.812.468-3.031 1.843-3.031 3.953v7.14c0 2.079-.36 3.204-1.922 3.204.078.203.094.28.094.359 0 .094-.016.172-.094.375 1.563 0 1.922 1.125 1.922 3.188v7.156c0 2.093 1.219 3.468 3.031 3.968 0-.25 0-.343.016-.421.031-.079.031-.063.156-.297zm0 0"/></svg><svg overflow="visible" x="57.436" y="10.8"><path d="M5.125-.094v-.484l-.75-.047c-.656-.031-.64-.031-.64-.656v-7.172l-.313-.125c-.875.469-1.61.781-2.86 1.219l.125.718h.235l1.547-.687.031-.016c.063 0-.047-.015-.047.266v5.797c0 .625.016.625-.64.656L1-.578v.625L3.125 0l2 .047zm0 0"/></svg><svg overflow="visible" x="73.376" y="10.8"><path d="M.234-4.766l.157.47.593-.391c.36-.22.36-.235.47-.235.109 0 .015-.031.015.11 0 .109-.047.359-.094.53L.578-1.405c-.094.375-.14.672-.14.922 0 .28.296.593.53.593.313 0 .876-.296 2.11-1.218l-.265-.47-.5.329c-.36.234-.47.313-.594.313-.078 0 .015.03.015-.11 0-.11.016-.203.079-.469l.921-3.64c.047-.203.079-.313.079-.422 0-.203-.266-.453-.47-.453-.265 0-.827.281-1.734.922l-.39.296zm1.641-2.578c0 .297.36.625.656.625.375 0 .813-.484.813-.937 0-.282-.344-.61-.594-.61-.36 0-.875.516-.875.922zm0 0"/></svg><svg overflow="visible" x="76.7" y="10.8"><path d="M-2.063 3.172c.11.062.407.125.547.125.485 0 1.25-.406 1.72-.969.734-.86 1.03-1.781 1.905-5.984.063-.297.157-.656.204-.922h1.234c.094-.36.172-.64.25-.797l-.156-.25-.157.063c-.28.078-.406.078-1 .078l.235-1.204c.187-1.03.36-1.359.906-1.359.36 0 .547.14.781.5l.344-.125.297-.89.062-.22a2.246 2.246 0 00-1.015-.25 2 2 0 00-.547.126l.14-.031c-.296.124-1.406.89-1.671 1.187-.266.25-.47.703-.594 1.39l-.172.891c-.313.157-.563.25-1.016.407l-.109.484h.969l-.078.531C.64-1.703.219.516-.047 1.343c-.234.704-.39.938-.828.938-.266 0-.297-.047-.547-.375l-.406.11c-.063.375-.188.859-.313 1.109zm0 0"/></svg><svg overflow="visible" x="83.012" y="10.8"><path d="M3.703-5.516c-.453.047-.86.063-1.156.063.172-.984.297-1.578.531-2.25l-.25-.328a7.16 7.16 0 01-1.094.531l-.296 2.031c-.391.203-.704.328-1.063.407l-.047.406h1l-.64 3.25C.625-1.11.53-.813.53-.5c0 .297.266.61.5.61.422 0 .922-.282 1.86-1.032.218-.172.14-.125.437-.36l-.25-.437-.672.469c-.36.25-.484.313-.625.313-.093 0-.031.046-.031-.11 0-.297.156-1.234.516-3l.14-.61h1.266l.203-.89zm0 0"/></svg><svg overflow="visible" x="90.364" y="10.8"><path d="M8.469.469c-.016-.125-.031-.235-.031-.36s.015-.234.062-.484H4.547c-1.75 0-2.61-.75-2.719-2.25H8.5a2.634 2.634 0 01-.063-.5c0-.11.016-.234.063-.484H1.828c.11-1.5.969-2.25 2.719-2.25H8.5a2.657 2.657 0 01-.063-.485c0-.125.016-.25.063-.5H4.547c-2.328 0-3.734 1.39-3.734 3.719C.813-.781 2.218.594 4.546.594H8.5zm0 0"/></svg><svg overflow="visible" x="102.989" y="10.8"><path d="M3.938 1.297H2.28v-8.828h1.844c-.078-.203-.078-.282-.078-.375 0-.078 0-.157.078-.36H1.297V2.031h2.828c-.078-.203-.078-.281-.078-.375 0-.078 0-.156.078-.36zm0 0"/></svg><svg overflow="visible" x="107.898" y="10.8"><path d="M-.031-.047l.156.172 1.016-.25.312-1.578c.094-.578.344-1.016.547-1.234C2.719-.845 3.281.108 3.578.108c.156 0 .563-.187 1.094-.562l.625-.438-.219-.468-.719.39c-.156.094-.109.078-.218.078-.11 0-.079-.03-.188-.234-.422-.766-.625-1.313-1.078-2.75l.094-.11c.734-.718 1.172-.984 1.765-.984.094 0 .22.016.547.11l.282-1c-.407-.125-.625-.172-.766-.172-.797 0-1.922.968-3.406 3.062l.296.094L2.97-8.797l-.297-.265c-.766.39-1.063.453-2.094.546l-.094.5h.782c.28 0 .234-.046.234.157 0 .109-.016.203-.031.296L.89-4.358C.734-3.47.53-2.641-.094-.11zm0 0"/></svg><svg overflow="visible" x="113.206" y="10.8"><path d="M.11-4.766l.171.47.594-.391c.422-.282.36-.266.438-.266.14 0 .03 0 .03.172 0 .61-.484 2.922-.968 4.64l.172.266c.39-.094.656-.172 1.078-.25.234-1.61.453-2.297 1-3.11.656-1.015 1.422-1.718 1.953-1.718.125 0 .031-.016.031.156 0 .219-.046.469-.14.86l-.625 2.53c-.11.438-.156.72-.156.907 0 .297.312.61.546.61.313 0 .86-.282 2.094-1.22l-.25-.468-.5.328c-.344.219-.469.313-.594.313-.078 0 .016.03.016-.11 0-.047.016-.187.016-.234l.796-3.297c.079-.344.125-.688.125-.89 0-.266-.296-.563-.53-.563-.5 0-1.47.5-2.173 1.156-.453.422-.78.828-1.406 1.703l.297.094.453-1.938c.047-.203.078-.343.078-.484 0-.25-.265-.531-.437-.531-.266 0-.86.312-1.735.922l-.39.296zm0 0"/></svg><svg overflow="visible" x="119.853" y="10.8"><path d="M.031-1.953C.031-.687.734.125 1.734.125c.657 0 1.5-.344 2.032-.844.734-.703 1.312-2.156 1.312-3.375 0-1.125-.766-1.937-1.75-1.937-.515 0-1.219.25-1.75.625-.969.703-1.547 2-1.547 3.453zm1.25.016c0-1.344.422-2.72 1-3.204.156-.125.313-.171.594-.171.734 0 .953.406.953 1.421 0 1.141-.328 2.313-.86 2.954-.202.25-.39.359-.75.359-.702 0-.937-.406-.937-1.36zm0 0"/></svg><svg overflow="visible" x="124.982" y="10.8"><path d="M.484-4.656h.813L.64-1.406C.578-1.11.484-.813.484-.5c0 .297.313.61.547.61.422 0 .938-.282 1.89-1.032.204-.172.142-.125.438-.36l-.265-.468-.719.5c-.36.25-.453.313-.594.313-.093 0 .016.046.016-.11 0-.297.14-1.234.516-3l.109-.61h1.281l.203-.89c-.656.078-1.062.094-1.328.094.172-.984.297-1.578.516-2.234l-.266-.36c-.406.235-.594.344-1.125.547l-.297 2.047c-.36.187-.672.312-1.062.406l-.063.39zm0 0"/></svg><svg overflow="visible" x="128.963" y="13.574"><path d="M2.516-.984l-.157-.25-.406.25c-.297.171-.375.218-.469.218-.078 0 .016.063.016-.046 0-.079.016-.157.063-.344l.75-2.688c.046-.156.062-.234.062-.328 0-.14-.234-.36-.39-.36-.22 0-.688.22-1.407.688l-.344.235.172.421.5-.28c.266-.173.266-.173.344-.173.11 0 0-.062 0 .047 0 .078-.031.266-.063.39l-.64 2.126c-.094.281-.125.5-.125.687 0 .204.266.47.437.47.266 0 .72-.235 1.735-.923zm.28-4.72c0-.202-.28-.484-.483-.484-.297 0-.735.422-.735.72 0 .218.313.5.547.5.313 0 .672-.391.672-.735zm0 0"/></svg><svg overflow="visible" x="132.363" y="10.8"><path d="M2.703-1.531L2.47-1.75c-.36.125-.563.203-1.328.406C1.047-.328.78.344.016 1.625l.312.25.61-.281C1.905.328 2.405-.516 2.75-1.47zm0 0"/></svg><svg overflow="visible" x="137.344" y="10.8"><path d="M-.031-.047l.156.172 1.016-.25.312-1.578c.094-.578.344-1.016.547-1.234C2.719-.845 3.281.108 3.578.108c.156 0 .563-.187 1.094-.562l.625-.438-.219-.468-.719.39c-.156.094-.109.078-.218.078-.11 0-.079-.03-.188-.234-.422-.766-.625-1.313-1.078-2.75l.094-.11c.734-.718 1.172-.984 1.765-.984.094 0 .22.016.547.11l.282-1c-.407-.125-.625-.172-.766-.172-.797 0-1.922.968-3.406 3.062l.296.094L2.97-8.797l-.297-.265c-.766.39-1.063.453-2.094.546l-.094.5h.782c.28 0 .234-.046.234.157 0 .109-.016.203-.031.296L.89-4.358C.734-3.47.53-2.641-.094-.11zm0 0"/></svg><svg overflow="visible" x="142.652" y="10.8"><path d="M.11-4.766l.171.47.594-.391c.422-.282.36-.266.438-.266.14 0 .03 0 .03.172 0 .61-.484 2.922-.968 4.64l.172.266c.39-.094.656-.172 1.078-.25.234-1.61.453-2.297 1-3.11.656-1.015 1.422-1.718 1.953-1.718.125 0 .031-.016.031.156 0 .219-.046.469-.14.86l-.625 2.53c-.11.438-.156.72-.156.907 0 .297.312.61.546.61.313 0 .86-.282 2.094-1.22l-.25-.468-.5.328c-.344.219-.469.313-.594.313-.078 0 .016.03.016-.11 0-.047.016-.187.016-.234l.796-3.297c.079-.344.125-.688.125-.89 0-.266-.296-.563-.53-.563-.5 0-1.47.5-2.173 1.156-.453.422-.78.828-1.406 1.703l.297.094.453-1.938c.047-.203.078-.343.078-.484 0-.25-.265-.531-.437-.531-.266 0-.86.312-1.735.922l-.39.296zm0 0"/></svg><svg overflow="visible" x="149.299" y="10.8"><path d="M.031-1.953C.031-.687.734.125 1.734.125c.657 0 1.5-.344 2.032-.844.734-.703 1.312-2.156 1.312-3.375 0-1.125-.766-1.937-1.75-1.937-.515 0-1.219.25-1.75.625-.969.703-1.547 2-1.547 3.453zm1.25.016c0-1.344.422-2.72 1-3.204.156-.125.313-.171.594-.171.734 0 .953.406.953 1.421 0 1.141-.328 2.313-.86 2.954-.202.25-.39.359-.75.359-.702 0-.937-.406-.937-1.36zm0 0"/></svg><svg overflow="visible" x="154.44" y="10.8"><path d="M.484-4.656h.813L.64-1.406C.578-1.11.484-.813.484-.5c0 .297.313.61.547.61.422 0 .938-.282 1.89-1.032.204-.172.142-.125.438-.36l-.265-.468-.719.5c-.36.25-.453.313-.594.313-.093 0 .016.046.016-.11 0-.297.14-1.234.516-3l.109-.61h1.281l.203-.89c-.656.078-1.062.094-1.328.094.172-.984.297-1.578.516-2.234l-.266-.36c-.406.235-.594.344-1.125.547l-.297 2.047c-.36.187-.672.312-1.062.406l-.063.39zm0 0"/></svg><g><svg overflow="visible" x="158.409" y="13.574"><path d="M2.516-.984l-.157-.25-.406.25c-.297.171-.375.218-.469.218-.078 0 .016.063.016-.046 0-.079.016-.157.063-.344l.75-2.688c.046-.156.062-.234.062-.328 0-.14-.234-.36-.39-.36-.22 0-.688.22-1.407.688l-.344.235.172.421.5-.28c.266-.173.266-.173.344-.173.11 0 0-.062 0 .047 0 .078-.031.266-.063.39l-.64 2.126c-.094.281-.125.5-.125.687 0 .204.266.47.437.47.266 0 .72-.235 1.735-.923zm.28-4.72c0-.202-.28-.484-.483-.484-.297 0-.735.422-.735.72 0 .218.313.5.547.5.313 0 .672-.391.672-.735zm0 0"/></svg></g><g><svg overflow="visible" x="161.311" y="13.574"><path d="M6.156-2.078c-.015-.094-.015-.172-.015-.266 0-.094 0-.172.046-.39H3.781v-2.438c-.25.063-.328.063-.422.063-.093 0-.171 0-.421-.063v2.438H.515c.046.218.062.296.062.39 0 .094-.015.172-.062.39h2.421V.485c.25-.062.329-.062.422-.062.094 0 .172 0 .422.062v-2.437h2.406zm0 0"/></svg><svg overflow="visible" x="168.034" y="13.574"><path d="M4.266-.11V-.5l-.657-.031c-.515-.031-.468.015-.468-.453v-5.329l-.282-.093c-.625.297-1.312.562-2.375.906l.11.594h.234l1.25-.516.031-.016c.047 0-.078-.046-.078.172v4.282c0 .468.047.421-.469.453L.86-.5v.531L2.594 0l1.672.031zm0 0"/></svg></g><g><svg overflow="visible" x="173.531" y="10.8"><path d="M3.766-2.719v-.797c0-1.515-.907-3.171-2.516-4.78-.11.202-.156.265-.203.327-.063.063-.125.11-.313.203 1.438 1.47 2.032 2.86 2.032 4.25v.797c0 1.375-.594 2.781-2.032 4.25.188.094.25.14.313.203.047.063.094.125.203.329C2.86.452 3.766-1.204 3.766-2.72zm0 0"/></svg></g><g><svg overflow="visible" x="57.436" y="25.246"><path d="M5.688-4.5c0-2.625-.907-4-2.547-4C1.297-8.5.203-6.89.203-4c0 1.39.281 2.703.703 3.281.422.594 1.203.953 1.938.953 1.812 0 2.844-1.687 2.844-4.734zm-1.282.594C4.406-1.36 4.094-.437 3-.437c-1.156 0-1.516-1.079-1.516-4 0-2.516.313-3.375 1.438-3.375 1.172 0 1.484 1.03 1.484 3.906zm0 0"/></svg></g><g><svg overflow="visible" x="103.315" y="25.246"><path d="M.031-1.953C.031-.687.734.125 1.734.125c.657 0 1.5-.344 2.032-.844.734-.703 1.312-2.156 1.312-3.375 0-1.125-.766-1.937-1.75-1.937-.515 0-1.219.25-1.75.625-.969.703-1.547 2-1.547 3.453zm1.25.016c0-1.344.422-2.72 1-3.204.156-.125.313-.171.594-.171.734 0 .953.406.953 1.421 0 1.141-.328 2.313-.86 2.954-.202.25-.39.359-.75.359-.702 0-.937-.406-.937-1.36zm0 0"/></svg></g><g><svg overflow="visible" x="108.456" y="25.246"><path d="M.484-4.656h.813L.64-1.406C.578-1.11.484-.813.484-.5c0 .297.313.61.547.61.422 0 .938-.282 1.89-1.032.204-.172.142-.125.438-.36l-.265-.468-.719.5c-.36.25-.453.313-.594.313-.093 0 .016.046.016-.11 0-.297.14-1.234.516-3l.109-.61h1.281l.203-.89c-.656.078-1.062.094-1.328.094.172-.984.297-1.578.516-2.234l-.266-.36c-.406.235-.594.344-1.125.547l-.297 2.047c-.36.187-.672.312-1.062.406l-.063.39zm0 0"/></svg></g><g><svg overflow="visible" x="112.138" y="25.246"><path d="M-.016-.063l.141.188 1.063-.25c.203-1.469.359-2.094.703-2.734.53-.97 1.64-2.094 2.156-2.094.156 0 .078-.016.078.14 0 .204-.078.672-.188 1.063l-.609 2.344c-.094.422-.156.687-.156.922 0 .28.312.593.547.593.312 0 .86-.28 2.11-1.218l-.266-.47-.5.329c-.344.219-.47.313-.594.313-.078 0 .015.03.015-.11 0-.11.016-.203.079-.469l.765-3.062c.078-.313.14-.688.14-.89 0-.25-.312-.563-.515-.563-.406 0-1.266.437-2.031 1.078-.406.344-.61.562-1.172 1.266l-.234.296.296.094L3-8.797l-.297-.265c-.781.39-1.078.453-2.094.546l-.093.5h.78c.282 0 .22-.046.22.157 0 .109-.016.203-.016.296L.984-4.765C.672-2.969.188-.906-.062-.14zm0 0"/></svg><svg overflow="visible" x="118.116" y="25.246"><path d="M0-1.469C0-.547.703.125 1.563.125c.687 0 1.468-.36 2.64-1.313L4-1.688l-.5.344c-.625.453-1.078.657-1.5.657-.578 0-.75-.313-.75-1.047 0-.313.031-.61.078-.86l.828-.203c.203-.047.516-.172.828-.297C4-3.547 4.641-4.219 4.641-4.954c0-.562-.563-1.077-1.172-1.077-.781 0-2.219.843-2.688 1.61C.421-3.845 0-2.313 0-1.47zm1.406-1.5l.11-.437c.187-.797.39-1.219.703-1.516.234-.219.5-.344.797-.344.343 0 .39.11.39.5 0 .516-.234.954-.86 1.25a6.042 6.042 0 01-1.093.375zm0 0"/></svg><svg overflow="visible" x="122.766" y="25.246"><path d="M.125-4.766l.172.47.594-.391c.343-.22.359-.235.453-.235.125 0 .031-.031.031.125 0 .703-.516 3.156-1 4.734l.266.188a5.85 5.85 0 01.984-.219l.328-1.547c.219-.984.453-1.53.969-2.203.406-.531.61-.75.875-.75.187 0 .172.032.344.235h.406c.062-.594.11-.97.219-1.516-.313-.14-.36-.156-.422-.156-.36 0-.86.328-1.297.937-.406.594-.875 1.25-1.172 1.907h.344l.312-1.516c.063-.25.14-.531.14-.813 0-.234-.25-.515-.437-.515-.25 0-.828.297-1.718.922l-.391.296zm0 0"/></svg><svg overflow="visible" x="127.417" y="25.246"><path d="M.25-4.203h.375l.266-.64c.078-.204.156-.204.437-.204.219 0 .438.031.672.031.25 0 .406-.015.39 0 .079-.125-.062 0-.171.157C1.14-3.61.688-2.656.688-1.641c0 .985.593 1.766 1.218 1.766.766 0 1.516-.688 2.39-2.39L4-2.36c-.11.515-.14.812-.14 1.093 0 .75.53 1.391 1.062 1.391.969 0 2.39-1.328 3.14-2.969.25-.594.454-1.406.454-1.875 0-.687-.47-1.312-.907-1.312-.156 0-.421.093-.515.187l-.672.625.266.469c.296-.188.28-.188.39-.188.328 0 .328.141.328.625 0 1.735-.968 3.579-1.984 3.579-.36 0-.438-.344-.438-1 0-.563.11-1.344.25-1.86l.641-2.234-.203-.219-1.11.328-.359 1.875c-.156.735-.266 1.125-.625 1.766-.469.89-.797 1.344-1.156 1.344-.406 0-.516-.329-.516-1.016 0-1.422.438-2.5 1.672-3.906l-.219-.407c-.312.141-.468.188-.796.188-.5 0-.985-.047-1.47-.094-.155 0-.25.032-.515.14C.406-5.515.234-5 .031-4.202zm0 0"/></svg><svg overflow="visible" x="136.048" y="25.246"><path d="M.234-4.766l.157.47.593-.391c.36-.22.36-.235.47-.235.109 0 .015-.031.015.11 0 .109-.047.359-.094.53L.578-1.405c-.094.375-.14.672-.14.922 0 .28.296.593.53.593.313 0 .876-.296 2.11-1.218l-.265-.47-.5.329c-.36.234-.47.313-.594.313-.078 0 .015.03.015-.11 0-.11.016-.203.079-.469l.921-3.64c.047-.203.079-.313.079-.422 0-.203-.266-.453-.47-.453-.265 0-.827.281-1.734.922l-.39.296zm1.641-2.578c0 .297.36.625.656.625.375 0 .813-.484.813-.937 0-.282-.344-.61-.594-.61-.36 0-.875.516-.875.922zm0 0"/></svg><svg overflow="visible" x="139.372" y="25.246"><path d="M-.031-.234C.438 0 .969.125 1.39.125c.578 0 1.25-.25 1.859-.719.61-.484.906-1.015.906-1.625 0-.64-.531-1.11-1.437-1.281l-.5-.094c-.719-.14-.781-.203-.781-.703 0-.625.359-.984 1.046-.984.485 0 .813.172.954.422v.765h.609c.062-.547.11-.86.25-1.531-.64-.297-.969-.406-1.375-.406-.61 0-1.469.39-2.047.968-.313.329-.5.72-.5 1.157 0 .672.563 1.187 1.344 1.344l.75.14c.531.094.547.156.547.64 0 .798-.375 1.173-1.22 1.173-.437 0-.671-.094-.952-.329V-2.03h-.64C.124-1.297.062-.875-.079-.266zm0 0"/></svg><svg overflow="visible" x="144.022" y="25.246"><path d="M0-1.469C0-.547.703.125 1.563.125c.687 0 1.468-.36 2.64-1.313L4-1.688l-.5.344c-.625.453-1.078.657-1.5.657-.578 0-.75-.313-.75-1.047 0-.313.031-.61.078-.86l.828-.203c.203-.047.516-.172.828-.297C4-3.547 4.641-4.219 4.641-4.954c0-.562-.563-1.077-1.172-1.077-.781 0-2.219.843-2.688 1.61C.421-3.845 0-2.313 0-1.47zm1.406-1.5l.11-.437c.187-.797.39-1.219.703-1.516.234-.219.5-.344.797-.344.343 0 .39.11.39.5 0 .516-.234.954-.86 1.25a6.042 6.042 0 01-1.093.375zm0 0"/></svg></g></svg>