<svg xmlns="http://www.w3.org/2000/svg" xmlns:xlink="http://www.w3.org/1999/xlink" width="419px" height="217px" viewBox="0 0 314 163">
    <svg overflow="visible" x="-.285" y="10.745">
        <path d="M6.297-8.203s-.125-.36-.281-.36c-.188 0-1.313.11-1.516.141-.094 0-.375.203-.375.36 0 .14.313.265.484.265.579 0 .407-.047.407.078l-.047.235-.719 2.828h.406c-.218-.438-.765-.89-1.297-.89-1.406 0-3.078 1.89-3.078 3.64 0 1.125.86 2.031 1.781 2.031.25 0 .97-.078 1.422-.61.032.094.657.61 1.22.61.421 0 .827-.297 1.015-.688l.062-.093c.203-.438.297-1.094.297-1.094l.063-.094c0-.11-.297-.25-.329-.25-.125 0-.343.188-.375.344-.203.781-.218 1.36-.703 1.36-.328 0-.171-.188-.171-.422 0-.282.03-.375.078-.579l1.718-6.906zm-2.188 4.11c0 .062-.015.14-.03.202l-.595 2.344c-.062.203 0 .14-.187.344-.531.656-.875.812-1.203.812-.594 0-.578-.53-.578-1 0-.593.328-1.968.593-2.515.375-.703.782-1.11 1.266-1.11.766 0 .734.844.734.922zm0 0"/>
    </svg>
    <svg overflow="visible" x="6.219" y="6.404">
        <path d="M4.516-1.61c0-.656-.75-1.468-1.672-1.656v.313c.89-.313 1.406-1.094 1.406-1.61 0-.656-.969-1.312-1.89-1.312-.938 0-1.86.61-1.86 1.281 0 .282.39.594.64.594.266 0 .641-.344.641-.578 0-.25-.375-.578-.297-.578.094-.11.532-.157.844-.157.375 0 .688.016.688.75 0 .344-.047.625-.266.891-.281.313-.36.281-.781.313-.203.015-.235.015-.266.015l.14.281s-.437-.109-.437-.015c0 .125.282.281.422.281h.453c.656 0 .922.297.922 1.188 0 1.046-.39 1.187-.89 1.187-.329 0-.922-.031-1.094-.266.078-.015.375-.453.375-.625 0-.265-.407-.625-.672-.625-.235 0-.672.297-.672.641C.25-.5 1.328.172 2.344.172 3.5.172 4.516-.766 4.516-1.61zm0 0"/>
    </svg>
    <svg overflow="visible" x="5.932" y="14.041">
        <path d="M4.516-1.61c0-.656-.75-1.468-1.672-1.656v.313c.89-.313 1.406-1.094 1.406-1.61 0-.656-.969-1.312-1.89-1.312-.938 0-1.86.61-1.86 1.281 0 .282.39.594.64.594.266 0 .641-.344.641-.578 0-.25-.375-.578-.297-.578.094-.11.532-.157.844-.157.375 0 .688.016.688.75 0 .344-.047.625-.266.891-.281.313-.36.281-.781.313-.203.015-.235.015-.266.015l.14.281s-.437-.109-.437-.015c0 .125.282.281.422.281h.453c.656 0 .922.297.922 1.188 0 1.046-.39 1.187-.89 1.187-.329 0-.922-.031-1.094-.266.078-.015.375-.453.375-.625 0-.265-.407-.625-.672-.625-.235 0-.672.297-.672.641C.25-.5 1.328.172 2.344.172 3.5.172 4.516-.766 4.516-1.61zm0 0"/>
    </svg>
    <svg overflow="visible" x="41.406" y="10.745">
        <path d="M11.469-3.125c0-.063-.25-.25-.297-.281-.688-.235-1.078-.672-1.516-1.203-.328-.438-.531-.86-.625-1.422-.031-.11-.312-.328-.437-.328s-.438.234-.438.375v.046c.125.625.469 1.313.86 1.813.265.328.578.625.921.86l.157-.22H.938c-.141 0-.454.235-.454.36 0 .14.313.375.454.375h9.156l-.156-.219a3.997 3.997 0 00-.922.86c-.391.5-.735 1.171-.86 1.812v.047c0 .125.313.375.438.375S9-.094 9.03-.203c.094-.563.297-.984.625-1.422.438-.531.828-.984 1.516-1.203.047-.031.297-.219.297-.297zm0 0"/>
    </svg>
    <svg overflow="visible" x="83.285" y="10.745">
        <path d="M6.297-8.203s-.125-.36-.281-.36c-.188 0-1.313.11-1.516.141-.094 0-.375.203-.375.36 0 .14.313.265.484.265.579 0 .407-.047.407.078l-.047.235-.719 2.828h.406c-.218-.438-.765-.89-1.297-.89-1.406 0-3.078 1.89-3.078 3.64 0 1.125.86 2.031 1.781 2.031.25 0 .97-.078 1.422-.61.032.094.657.61 1.22.61.421 0 .827-.297 1.015-.688l.062-.093c.203-.438.297-1.094.297-1.094l.063-.094c0-.11-.297-.25-.329-.25-.125 0-.343.188-.375.344-.203.781-.218 1.36-.703 1.36-.328 0-.171-.188-.171-.422 0-.282.03-.375.078-.579l1.718-6.906zm-2.188 4.11c0 .062-.015.14-.03.202l-.595 2.344c-.062.203 0 .14-.187.344-.531.656-.875.812-1.203.812-.594 0-.578-.53-.578-1 0-.593.328-1.968.593-2.515.375-.703.782-1.11 1.266-1.11.766 0 .734.844.734.922zm0 0"/>
    </svg>
    <svg overflow="visible" x="89.792" y="6.404">
        <path d="M4.234-1.844H3.75c-.047.344-.063.735-.172.813-.062.047-.562 0-.687 0H1.812c.563-.5.86-.735 1.36-1.125.625-.5 1.265-1.14 1.265-1.938 0-1-1.093-1.781-2.171-1.781-1.032 0-1.954.89-1.954 1.656 0 .422.579.625.657.625.203 0 .656-.297.656-.61 0-.14-.266-.593-.422-.593.188-.437.547-.469.938-.469.843 0 1.062.5 1.062 1.172 0 .735-.453 1.203-.719 1.5l-2.03 2C.374-.516.311-.39.311 0h3.844l.313-1.844zm0 0"/>
    </svg>
    <svg overflow="visible" x="89.505" y="13.874">
        <path d="M4.516-1.61c0-.656-.75-1.468-1.672-1.656v.313c.89-.313 1.406-1.094 1.406-1.61 0-.656-.969-1.312-1.89-1.312-.938 0-1.86.61-1.86 1.281 0 .282.39.594.64.594.266 0 .641-.344.641-.578 0-.25-.375-.578-.297-.578.094-.11.532-.157.844-.157.375 0 .688.016.688.75 0 .344-.047.625-.266.891-.281.313-.36.281-.781.313-.203.015-.235.015-.266.015l.14.281s-.437-.109-.437-.015c0 .125.282.281.422.281h.453c.656 0 .922.297.922 1.188 0 1.046-.39 1.187-.89 1.187-.329 0-.922-.031-1.094-.266.078-.015.375-.453.375-.625 0-.265-.407-.625-.672-.625-.235 0-.672.297-.672.641C.25-.5 1.328.172 2.344.172 3.5.172 4.516-.766 4.516-1.61zm0 0"/>
    </svg>
    <svg overflow="visible" x="124.979" y="10.745">
        <path d="M11.469-3.125c0-.063-.25-.25-.297-.281-.688-.235-1.078-.672-1.516-1.203-.328-.438-.531-.86-.625-1.422-.031-.11-.312-.328-.437-.328s-.438.234-.438.375v.046c.125.625.469 1.313.86 1.813.265.328.578.625.921.86l.157-.22H.938c-.141 0-.454.235-.454.36 0 .14.313.375.454.375h9.156l-.156-.219a3.997 3.997 0 00-.922.86c-.391.5-.735 1.171-.86 1.812v.047c0 .125.313.375.438.375S9-.094 9.03-.203c.094-.563.297-.984.625-1.422.438-.531.828-.984 1.516-1.203.047-.031.297-.219.297-.297zm0 0"/>
    </svg>
    <svg overflow="visible" x="166.858" y="10.745">
        <path d="M6.297-8.203s-.125-.36-.281-.36c-.188 0-1.313.11-1.516.141-.094 0-.375.203-.375.36 0 .14.313.265.484.265.579 0 .407-.047.407.078l-.047.235-.719 2.828h.406c-.218-.438-.765-.89-1.297-.89-1.406 0-3.078 1.89-3.078 3.64 0 1.125.86 2.031 1.781 2.031.25 0 .97-.078 1.422-.61.032.094.657.61 1.22.61.421 0 .827-.297 1.015-.688l.062-.093c.203-.438.297-1.094.297-1.094l.063-.094c0-.11-.297-.25-.329-.25-.125 0-.343.188-.375.344-.203.781-.218 1.36-.703 1.36-.328 0-.171-.188-.171-.422 0-.282.03-.375.078-.579l1.718-6.906zm-2.188 4.11c0 .062-.015.14-.03.202l-.595 2.344c-.062.203 0 .14-.187.344-.531.656-.875.812-1.203.812-.594 0-.578-.53-.578-1 0-.593.328-1.968.593-2.515.375-.703.782-1.11 1.266-1.11.766 0 .734.844.734.922zm0 0"/>
    </svg>
    <svg overflow="visible" x="173.365" y="6.404">
        <path d="M4.172-.156v-.469H3.64c-.829 0-.625.063-.625-.219v-4.64c0-.235-.235-.391-.563-.391-.578.578-1.203.531-1.75.531v.625c.406 0 1.11-.047 1.219-.11v3.985c0 .281.203.219-.625.219H.766v.64L2.469-.03l1.703.047zm0 0"/>
    </svg>
    <svg overflow="visible" x="173.078" y="13.874">
        <path d="M4.516-1.61c0-.656-.75-1.468-1.672-1.656v.313c.89-.313 1.406-1.094 1.406-1.61 0-.656-.969-1.312-1.89-1.312-.938 0-1.86.61-1.86 1.281 0 .282.39.594.64.594.266 0 .641-.344.641-.578 0-.25-.375-.578-.297-.578.094-.11.532-.157.844-.157.375 0 .688.016.688.75 0 .344-.047.625-.266.891-.281.313-.36.281-.781.313-.203.015-.235.015-.266.015l.14.281s-.437-.109-.437-.015c0 .125.282.281.422.281h.453c.656 0 .922.297.922 1.188 0 1.046-.39 1.187-.89 1.187-.329 0-.922-.031-1.094-.266.078-.015.375-.453.375-.625 0-.265-.407-.625-.672-.625-.235 0-.672.297-.672.641C.25-.5 1.328.172 2.344.172 3.5.172 4.516-.766 4.516-1.61zm0 0"/>
    </svg>
    <svg overflow="visible" x="208.553" y="10.745">
        <path d="M11.469-3.125c0-.063-.25-.25-.297-.281-.688-.235-1.078-.672-1.516-1.203-.328-.438-.531-.86-.625-1.422-.031-.11-.312-.328-.437-.328s-.438.234-.438.375v.046c.125.625.469 1.313.86 1.813.265.328.578.625.921.86l.157-.22H.938c-.141 0-.454.235-.454.36 0 .14.313.375.454.375h9.156l-.156-.219a3.997 3.997 0 00-.922.86c-.391.5-.735 1.171-.86 1.812v.047c0 .125.313.375.438.375S9-.094 9.03-.203c.094-.563.297-.984.625-1.422.438-.531.828-.984 1.516-1.203.047-.031.297-.219.297-.297zm0 0"/>
    </svg>
    <svg overflow="visible" x="250.432" y="10.745">
        <path d="M6.297-8.203s-.125-.36-.281-.36c-.188 0-1.313.11-1.516.141-.094 0-.375.203-.375.36 0 .14.313.265.484.265.579 0 .407-.047.407.078l-.047.235-.719 2.828h.406c-.218-.438-.765-.89-1.297-.89-1.406 0-3.078 1.89-3.078 3.64 0 1.125.86 2.031 1.781 2.031.25 0 .97-.078 1.422-.61.032.094.657.61 1.22.61.421 0 .827-.297 1.015-.688l.062-.093c.203-.438.297-1.094.297-1.094l.063-.094c0-.11-.297-.25-.329-.25-.125 0-.343.188-.375.344-.203.781-.218 1.36-.703 1.36-.328 0-.171-.188-.171-.422 0-.282.03-.375.078-.579l1.718-6.906zm-2.188 4.11c0 .062-.015.14-.03.202l-.595 2.344c-.062.203 0 .14-.187.344-.531.656-.875.812-1.203.812-.594 0-.578-.53-.578-1 0-.593.328-1.968.593-2.515.375-.703.782-1.11 1.266-1.11.766 0 .734.844.734.922zm0 0"/>
    </svg>
    <svg overflow="visible" x="256.939" y="6.404">
        <path d="M4.531-2.828c0-.922-.172-1.688-.562-2.281-.266-.391-.922-.766-1.594-.766C.437-5.875.219-3.437.219-2.828c0 .594.218 3 2.156 3 1.953 0 2.156-2.406 2.156-3zm-1.187-.11c0 .626 0 1.235-.11 1.766-.156.766-.515.781-.859.781-.375 0-.688-.062-.844-.75-.125-.5-.125-1.171-.125-1.796 0-.61 0-1.25.125-1.704.172-.671.5-.687.844-.687.453 0 .688.125.828.61.14.452.14 1.046.14 1.78zm0 0"/>
    </svg>
    <svg overflow="visible" x="256.652" y="14.041">
        <path d="M4.516-1.61c0-.656-.75-1.468-1.672-1.656v.313c.89-.313 1.406-1.094 1.406-1.61 0-.656-.969-1.312-1.89-1.312-.938 0-1.86.61-1.86 1.281 0 .282.39.594.64.594.266 0 .641-.344.641-.578 0-.25-.375-.578-.297-.578.094-.11.532-.157.844-.157.375 0 .688.016.688.75 0 .344-.047.625-.266.891-.281.313-.36.281-.781.313-.203.015-.235.015-.266.015l.14.281s-.437-.109-.437-.015c0 .125.282.281.422.281h.453c.656 0 .922.297.922 1.188 0 1.046-.39 1.187-.89 1.187-.329 0-.922-.031-1.094-.266.078-.015.375-.453.375-.625 0-.265-.407-.625-.672-.625-.235 0-.672.297-.672.641C.25-.5 1.328.172 2.344.172 3.5.172 4.516-.766 4.516-1.61zm0 0"/>
    </svg>
    <svg overflow="visible" x="262.199" y="10.745">
        <path d="M4.156 2.719c0-.047-.078-.172-.11-.203-1.234-.922-2-3.22-2-5.141v-1c0-1.906.767-4.203 2-5.14a.457.457 0 00.11-.188c0-.063-.25-.25-.312-.25a1.01 1.01 0 00-.203.062C2.312-8.156 1-5.67 1-3.625v1C1-.578 2.313 1.906 3.64 2.906c.016.016.188.063.204.063.062 0 .312-.203.312-.25zm0 0"/>
    </svg>
    <svg overflow="visible" x="266.85" y="10.745">
        <path d="M8.828-4.281c0-.125-.312-.375-.437-.375H.906c-.125 0-.437.25-.437.375 0 .14.312.375.437.375h7.485c.125 0 .437-.235.437-.375zm0 2.328c0-.14-.312-.375-.437-.375H.906c-.125 0-.437.234-.437.375 0 .125.312.36.437.36h7.485c.125 0 .437-.235.437-.36zm0 0"/>
    </svg>
    <svg overflow="visible" x="279.462" y="10.745">
        <path d="M5.688-3.953c0-.953-.063-1.922-.47-2.797-.562-1.156-1.734-1.469-2.234-1.469-.718 0-1.796.438-2.28 1.547-.376.828-.438 1.766-.438 2.719 0 .89.109 2.062.593 2.969.516.968 1.532 1.25 2.11 1.25.656 0 1.75-.391 2.281-1.516.375-.828.438-1.766.438-2.703zm-1.391-.14c0 .89 0 1.702-.125 2.468C4-.485 3.516-.265 2.969-.265 2.516-.266 2-.438 1.78-1.579c-.125-.719-.125-1.813-.125-2.516 0-.765 0-1.562.094-2.203.219-1.422.922-1.406 1.219-1.406.406 0 .984.094 1.219 1.266.109.671.109 1.578.109 2.343zm0 0"/>
    </svg>
    <svg overflow="visible" x="289.347" y="10.745">
        <path d="M5.64-2.703c0-1.547-1.327-2.922-2.718-2.922C1.5-5.625.187-4.203.187-2.703c0 1.531 1.36 2.828 2.735 2.828 1.406 0 2.719-1.313 2.719-2.828zm-1.234-.11c0 .422.047 1.063-.265 1.626-.329.562-.766.75-1.22.75-.437 0-.858-.141-1.218-.735-.312-.531-.281-1.14-.281-1.64 0-.454-.047-1.079.328-1.61.328-.516.75-.672 1.172-.672.453 0 .844.188 1.172.64.36.563.312 1.204.312 1.641zm0 0"/>
    </svg>
    <svg overflow="visible" x="295.205" y="10.745">
        <path d="M4.375-4.719c0-.36-.484-.843-1-.843-1.016 0-1.516 1.25-1.547 1.312h.266v-1.328l-1.922.156v.625c.969 0 .906-.062.906.531v3.235c0 .547.031.39-.906.39v.657c.5-.047 1.156-.047 1.516-.047.328 0 1.171 0 1.593.062V-.64h-.39c-.875 0-.735.016-.735-.406v-1.875c0-1.172.313-2.11 1.235-2.11.093 0 .125 0 .171.016l-.124-.25a.618.618 0 00-.329.547c0 .344.438.625.625.625.25 0 .641-.312.641-.625zm0 0"/>
    </svg>
    <svg overflow="visible" x="303.657" y="10.745">
        <path d="M5.203-.125v-.516h-.578c-1.078 0-.922 0-.922-.437v-6.703c0-.282-.187-.438-.578-.438-.766.797-1.672.766-2.266.766v.625c.438 0 1.282-.031 1.563-.172v5.922c0 .437.172.437-.906.437H.937v.672C1.547-.03 2.595-.03 3.079-.03c.469 0 1.516 0 2.125.062zm0 0"/>
    </svg>
    <svg overflow="visible" x="309.635" y="10.745">
        <path d="M3.64-2.625v-1c0-2.047-1.328-4.531-2.64-5.516a.774.774 0 00-.203-.062c-.063 0-.313.187-.313.25 0 .031.079.172.094.187 1.25.938 2.016 3.235 2.016 5.141v1c0 1.922-.766 4.219-2.016 5.14-.015.032-.094.157-.094.204 0 .047.25.25.313.25A.774.774 0 001 2.906c1.313-1 2.64-3.484 2.64-5.531zm0 0"/>
    </svg>
    <svg overflow="visible" x="21.441" y="28.755">
        <path d="M8.828-3.125c0-.125-.312-.36-.437-.36H5.078v-3.374c0-.141-.297-.375-.422-.375-.14 0-.453.234-.453.375v3.375H.906c-.125 0-.437.234-.437.359 0 .14.312.375.437.375h3.297V.625c0 .125.313.36.453.36.125 0 .422-.235.422-.36V-2.75h3.313c.125 0 .437-.234.437-.375zm0 0"/>
    </svg>
    <svg overflow="visible" x="30.742" y="22.098">
        <path d="M5.875-3.344c0-.11-.313-.265-.36-.265-.109 0-.327.187-.374.375a3.796 3.796 0 01-.735 1.406l.375.11c-.015-.126-.031-.688-.047-.766-.125-.829-.968-1.532-1.796-1.532C1.702-4.016.312-2.703.312-1.53c0 .765.766 1.61 1.735 1.61.781 0 1.61-.392 1.828-.563.094.312.734.562.984.562.485 0 1-.562 1-.734 0-.11-.312-.266-.359-.266-.11 0-.328.188-.344.25-.125.313-.172.203-.281.203-.11 0-.047.156-.078-.828.703-.719 1.078-1.953 1.078-2.047zM3.781-1.172c-.828.672-1.39.703-1.703.703-.547 0-.656-.203-.656-.765 0-.25.047-1.047.484-1.625.39-.5.719-.594 1.016-.594.672 0 .656.484.719 1 .046.36.03.953.062 1.344zm0 0"/>
    </svg>
    <svg overflow="visible" x="36.96" y="19.059">
        <path d="M3.781-1.219c0-.5-.625-1.093-1.312-1.25v.36c.719-.235 1.11-.86 1.11-1.204 0-.484-.813-1.03-1.563-1.03-.735 0-1.532.484-1.532 1.03 0 .282.438.532.547.532.172 0 .532-.313.532-.516 0-.14-.266-.484-.11-.469.031-.03.422 0 .547 0 .438 0 .547.047.547.454 0 .343-.031.718-.656.75-.172 0-.188.015-.344.015-.063.016-.344.188-.344.281 0 .11.266.282.375.282h.39c.563 0 .72.171.72.75 0 .625-.172.765-.704.765-.062 0-.64.047-.703-.015-.14.03.125-.344.125-.485 0-.219-.36-.547-.562-.547-.188 0-.563.313-.563.563C.281-.328 1.187.125 2 .125c.984 0 1.781-.766 1.781-1.344zm0 0"/>
    </svg>
    <svg overflow="visible" x="36.96" y="24.511">
        <path d="M3.781-1.219c0-.5-.625-1.093-1.312-1.25v.36c.719-.235 1.11-.86 1.11-1.204 0-.484-.813-1.03-1.563-1.03-.735 0-1.532.484-1.532 1.03 0 .282.438.532.547.532.172 0 .532-.313.532-.516 0-.14-.266-.484-.11-.469.031-.03.422 0 .547 0 .438 0 .547.047.547.454 0 .343-.031.718-.656.75-.172 0-.188.015-.344.015-.063.016-.344.188-.344.281 0 .11.266.282.375.282h.39c.563 0 .72.171.72.75 0 .625-.172.765-.704.765-.062 0-.64.047-.703-.015-.14.03.125-.344.125-.485 0-.219-.36-.547-.562-.547-.188 0-.563.313-.563.563C.281-.328 1.187.125 2 .125c.984 0 1.781-.766 1.781-1.344zm0 0"/>
    </svg>
    <svg overflow="visible" x="41.529" y="22.098">
        <path d="M5.375-.172c.063-.047.063-.39 0-.453L3.75-2.25l1.625-1.625c.063-.063.063-.39 0-.453s-.469-.063-.531 0L3.25-2.734 1.672-4.328c-.078-.063-.469-.063-.531 0-.063.062-.063.39 0 .453L2.766-2.25 1.14-.625c-.063.063-.063.406 0 .453.062.078.453.078.53 0l1.595-1.594L4.844-.172c.062.078.468.078.531 0zm0 0"/>
    </svg>
    <svg overflow="visible" x="48.04" y="22.098">
        <path d="M1.828-.61c0-.234-.406-.593-.656-.593s-.656.36-.656.594c0 .25.406.609.656.609s.656-.36.656-.61zm2.328 0c0-.234-.406-.593-.64-.593-.25 0-.657.36-.657.594 0 .25.407.609.657.609.234 0 .64-.36.64-.61zm2.344 0c0-.234-.406-.593-.656-.593-.235 0-.657.36-.657.594 0 .25.422.609.657.609.25 0 .656-.36.656-.61zm0 0"/>
    </svg>
    <svg overflow="visible" x="30.742" y="33.547">
        <path d="M2.984 1.828a.933.933 0 00-.093-.172C2.016 1 1.5-.562 1.5-1.906v-.703c0-1.329.516-2.891 1.39-3.547a.702.702 0 00.094-.188c0-.031-.25-.234-.28-.234a1.01 1.01 0 00-.204.062C1.578-5.828.64-4.03.64-2.609v.703c0 1.437.938 3.234 1.86 3.922.016.015.188.062.203.062.031 0 .281-.203.281-.25zm0 0"/>
    </svg>
    <svg overflow="visible" x="33.997" y="33.547">
        <path d="M4.172-.156v-.469H3.64c-.829 0-.625.063-.625-.219v-4.64c0-.235-.235-.391-.563-.391-.578.578-1.203.531-1.75.531v.625c.406 0 1.11-.047 1.219-.11v3.985c0 .281.203.219-.625.219H.766v.64L2.469-.03l1.703.047zm0 0"/>
    </svg>
    <svg overflow="visible" x="38.759" y="33.547">
        <path d="M6.25-2.25c0-.094-.281-.328-.375-.328H.641c-.094 0-.375.234-.375.328s.28.328.375.328h5.234c.094 0 .375-.234.375-.328zm0 0"/>
    </svg>
    <svg overflow="visible" x="45.27" y="33.547">
        <path d="M5.875-3.344c0-.11-.313-.265-.36-.265-.109 0-.327.187-.374.375a3.796 3.796 0 01-.735 1.406l.375.11c-.015-.126-.031-.688-.047-.766-.125-.829-.968-1.532-1.796-1.532C1.702-4.016.312-2.703.312-1.53c0 .765.766 1.61 1.735 1.61.781 0 1.61-.392 1.828-.563.094.312.734.562.984.562.485 0 1-.562 1-.734 0-.11-.312-.266-.359-.266-.11 0-.328.188-.344.25-.125.313-.172.203-.281.203-.11 0-.047.156-.078-.828.703-.719 1.078-1.953 1.078-2.047zM3.781-1.172c-.828.672-1.39.703-1.703.703-.547 0-.656-.203-.656-.765 0-.25.047-1.047.484-1.625.39-.5.719-.594 1.016-.594.672 0 .656.484.719 1 .046.36.03.953.062 1.344zm0 0"/>
    </svg>
    <svg overflow="visible" x="51.488" y="30.536">
        <path d="M3.781-1.219c0-.5-.625-1.093-1.312-1.25v.36c.719-.235 1.11-.86 1.11-1.204 0-.484-.813-1.03-1.563-1.03-.735 0-1.532.484-1.532 1.03 0 .282.438.532.547.532.172 0 .532-.313.532-.516 0-.14-.266-.484-.11-.469.031-.03.422 0 .547 0 .438 0 .547.047.547.454 0 .343-.031.718-.656.75-.172 0-.188.015-.344.015-.063.016-.344.188-.344.281 0 .11.266.282.375.282h.39c.563 0 .72.171.72.75 0 .625-.172.765-.704.765-.062 0-.64.047-.703-.015-.14.03.125-.344.125-.485 0-.219-.36-.547-.562-.547-.188 0-.563.313-.563.563C.281-.328 1.187.125 2 .125c.984 0 1.781-.766 1.781-1.344zm0 0"/>
    </svg>
    <svg overflow="visible" x="51.488" y="35.988">
        <path d="M3.781-1.219c0-.5-.625-1.093-1.312-1.25v.36c.719-.235 1.11-.86 1.11-1.204 0-.484-.813-1.03-1.563-1.03-.735 0-1.532.484-1.532 1.03 0 .282.438.532.547.532.172 0 .532-.313.532-.516 0-.14-.266-.484-.11-.469.031-.03.422 0 .547 0 .438 0 .547.047.547.454 0 .343-.031.718-.656.75-.172 0-.188.015-.344.015-.063.016-.344.188-.344.281 0 .11.266.282.375.282h.39c.563 0 .72.171.72.75 0 .625-.172.765-.704.765-.062 0-.64.047-.703-.015-.14.03.125-.344.125-.485 0-.219-.36-.547-.562-.547-.188 0-.563.313-.563.563C.281-.328 1.187.125 2 .125c.984 0 1.781-.766 1.781-1.344zm0 0"/>
    </svg>
    <svg overflow="visible" x="56.057" y="33.547">
        <path d="M2.625-1.906v-.703c0-1.422-.953-3.22-1.875-3.907a.88.88 0 00-.188-.062c-.046 0-.296.203-.296.234 0 .032.078.172.093.188C1.234-5.5 1.75-3.938 1.75-2.61v.703C1.75-.563 1.234 1 .36 1.656a.933.933 0 00-.094.172c0 .047.25.25.296.25a.88.88 0 00.188-.062c.922-.688 1.875-2.485 1.875-3.922zm0 0"/>
    </svg>
    <svg overflow="visible" x="59.312" y="33.547">
        <path d="M5.375-.172c.063-.047.063-.39 0-.453L3.75-2.25l1.625-1.625c.063-.063.063-.39 0-.453s-.469-.063-.531 0L3.25-2.734 1.672-4.328c-.078-.063-.469-.063-.531 0-.063.062-.063.39 0 .453L2.766-2.25 1.14-.625c-.063.063-.063.406 0 .453.062.078.453.078.53 0l1.595-1.594L4.844-.172c.062.078.468.078.531 0zm0 0"/>
    </svg>
    <svg overflow="visible" x="65.823" y="33.547">
        <path d="M1.828-.61c0-.234-.406-.593-.656-.593s-.656.36-.656.594c0 .25.406.609.656.609s.656-.36.656-.61zm2.328 0c0-.234-.406-.593-.64-.593-.25 0-.657.36-.657.594 0 .25.407.609.657.609.234 0 .64-.36.64-.61zm2.344 0c0-.234-.406-.593-.656-.593-.235 0-.657.36-.657.594 0 .25.422.609.657.609.25 0 .656-.36.656-.61zm0 0"/>
    </svg>
    <svg overflow="visible" x="105.015" y="28.755">
        <path d="M8.828-3.125c0-.125-.312-.36-.437-.36H5.078v-3.374c0-.141-.297-.375-.422-.375-.14 0-.453.234-.453.375v3.375H.906c-.125 0-.437.234-.437.359 0 .14.312.375.437.375h3.297V.625c0 .125.313.36.453.36.125 0 .422-.235.422-.36V-2.75h3.313c.125 0 .437-.234.437-.375zm0 0"/>
    </svg>
    <svg overflow="visible" x="114.316" y="22.229">
        <path d="M5.875-3.344c0-.11-.313-.265-.36-.265-.109 0-.327.187-.374.375a3.796 3.796 0 01-.735 1.406l.375.11c-.015-.126-.031-.688-.047-.766-.125-.829-.968-1.532-1.796-1.532C1.702-4.016.312-2.703.312-1.53c0 .765.766 1.61 1.735 1.61.781 0 1.61-.392 1.828-.563.094.312.734.562.984.562.485 0 1-.562 1-.734 0-.11-.312-.266-.359-.266-.11 0-.328.188-.344.25-.125.313-.172.203-.281.203-.11 0-.047.156-.078-.828.703-.719 1.078-1.953 1.078-2.047zM3.781-1.172c-.828.672-1.39.703-1.703.703-.547 0-.656-.203-.656-.765 0-.25.047-1.047.484-1.625.39-.5.719-.594 1.016-.594.672 0 .656.484.719 1 .046.36.03.953.062 1.344zm0 0"/>
    </svg>
    <svg overflow="visible" x="120.534" y="19.191">
        <path d="M3.531-1.516h-.437c-.047.297-.047.547-.14.594-.048.047-.407-.015-.5-.015H1.28l.14.312c.391-.297.845-.625 1.204-.875.531-.36 1.094-.844 1.094-1.469 0-.765-.922-1.375-1.781-1.375-.797 0-1.594.64-1.594 1.235 0 .312.469.546.547.546.156 0 .546-.296.546-.53 0-.22-.343-.516-.234-.5 0 0 .219-.126.61-.126.593 0 .875.172.875.75 0 .5-.297.766-.75 1.156L.468-.577a.397.397 0 00-.124.219V0H3.5l.25-1.516zm0 0"/>
    </svg>
    <svg overflow="visible" x="120.534" y="24.511">
        <path d="M3.781-1.219c0-.5-.625-1.093-1.312-1.25v.36c.719-.235 1.11-.86 1.11-1.204 0-.484-.813-1.03-1.563-1.03-.735 0-1.532.484-1.532 1.03 0 .282.438.532.547.532.172 0 .532-.313.532-.516 0-.14-.266-.484-.11-.469.031-.03.422 0 .547 0 .438 0 .547.047.547.454 0 .343-.031.718-.656.75-.172 0-.188.015-.344.015-.063.016-.344.188-.344.281 0 .11.266.282.375.282h.39c.563 0 .72.171.72.75 0 .625-.172.765-.704.765-.062 0-.64.047-.703-.015-.14.03.125-.344.125-.485 0-.219-.36-.547-.562-.547-.188 0-.563.313-.563.563C.281-.328 1.187.125 2 .125c.984 0 1.781-.766 1.781-1.344zm0 0"/>
    </svg>
    <svg overflow="visible" x="125.102" y="22.229">
        <path d="M5.375-.172c.063-.047.063-.39 0-.453L3.75-2.25l1.625-1.625c.063-.063.063-.39 0-.453s-.469-.063-.531 0L3.25-2.734 1.672-4.328c-.078-.063-.469-.063-.531 0-.063.062-.063.39 0 .453L2.766-2.25 1.14-.625c-.063.063-.063.406 0 .453.062.078.453.078.53 0l1.595-1.594L4.844-.172c.062.078.468.078.531 0zm0 0"/>
    </svg>
    <svg overflow="visible" x="131.613" y="22.229">
        <path d="M1.828-.61c0-.234-.406-.593-.656-.593s-.656.36-.656.594c0 .25.406.609.656.609s.656-.36.656-.61zm2.328 0c0-.234-.406-.593-.64-.593-.25 0-.657.36-.657.594 0 .25.407.609.657.609.234 0 .64-.36.64-.61zm2.344 0c0-.234-.406-.593-.656-.593-.235 0-.657.36-.657.594 0 .25.422.609.657.609.25 0 .656-.36.656-.61zm0 0"/>
    </svg>
    <svg overflow="visible" x="114.316" y="33.415">
        <path d="M2.984 1.828a.933.933 0 00-.093-.172C2.016 1 1.5-.562 1.5-1.906v-.703c0-1.329.516-2.891 1.39-3.547a.702.702 0 00.094-.188c0-.031-.25-.234-.28-.234a1.01 1.01 0 00-.204.062C1.578-5.828.64-4.03.64-2.609v.703c0 1.437.938 3.234 1.86 3.922.016.015.188.062.203.062.031 0 .281-.203.281-.25zm0 0"/>
    </svg>
    <svg overflow="visible" x="117.571" y="33.415">
        <path d="M4.172-.156v-.469H3.64c-.829 0-.625.063-.625-.219v-4.64c0-.235-.235-.391-.563-.391-.578.578-1.203.531-1.75.531v.625c.406 0 1.11-.047 1.219-.11v3.985c0 .281.203.219-.625.219H.766v.64L2.469-.03l1.703.047zm0 0"/>
    </svg>
    <svg overflow="visible" x="122.333" y="33.415">
        <path d="M6.25-2.25c0-.094-.281-.328-.375-.328H.641c-.094 0-.375.234-.375.328s.28.328.375.328h5.234c.094 0 .375-.234.375-.328zm0 0"/>
    </svg>
    <svg overflow="visible" x="128.844" y="33.415">
        <path d="M5.875-3.344c0-.11-.313-.265-.36-.265-.109 0-.327.187-.374.375a3.796 3.796 0 01-.735 1.406l.375.11c-.015-.126-.031-.688-.047-.766-.125-.829-.968-1.532-1.796-1.532C1.702-4.016.312-2.703.312-1.53c0 .765.766 1.61 1.735 1.61.781 0 1.61-.392 1.828-.563.094.312.734.562.984.562.485 0 1-.562 1-.734 0-.11-.312-.266-.359-.266-.11 0-.328.188-.344.25-.125.313-.172.203-.281.203-.11 0-.047.156-.078-.828.703-.719 1.078-1.953 1.078-2.047zM3.781-1.172c-.828.672-1.39.703-1.703.703-.547 0-.656-.203-.656-.765 0-.25.047-1.047.484-1.625.39-.5.719-.594 1.016-.594.672 0 .656.484.719 1 .046.36.03.953.062 1.344zm0 0"/>
    </svg>
    <svg overflow="visible" x="135.061" y="30.536">
        <path d="M3.531-1.516h-.437c-.047.297-.047.547-.14.594-.048.047-.407-.015-.5-.015H1.28l.14.312c.391-.297.845-.625 1.204-.875.531-.36 1.094-.844 1.094-1.469 0-.765-.922-1.375-1.781-1.375-.797 0-1.594.64-1.594 1.235 0 .312.469.546.547.546.156 0 .546-.296.546-.53 0-.22-.343-.516-.234-.5 0 0 .219-.126.61-.126.593 0 .875.172.875.75 0 .5-.297.766-.75 1.156L.468-.577a.397.397 0 00-.124.219V0H3.5l.25-1.516zm0 0"/>
    </svg>
    <svg overflow="visible" x="135.061" y="35.856">
        <path d="M3.781-1.219c0-.5-.625-1.093-1.312-1.25v.36c.719-.235 1.11-.86 1.11-1.204 0-.484-.813-1.03-1.563-1.03-.735 0-1.532.484-1.532 1.03 0 .282.438.532.547.532.172 0 .532-.313.532-.516 0-.14-.266-.484-.11-.469.031-.03.422 0 .547 0 .438 0 .547.047.547.454 0 .343-.031.718-.656.75-.172 0-.188.015-.344.015-.063.016-.344.188-.344.281 0 .11.266.282.375.282h.39c.563 0 .72.171.72.75 0 .625-.172.765-.704.765-.062 0-.64.047-.703-.015-.14.03.125-.344.125-.485 0-.219-.36-.547-.562-.547-.188 0-.563.313-.563.563C.281-.328 1.187.125 2 .125c.984 0 1.781-.766 1.781-1.344zm0 0"/>
    </svg>
    <svg overflow="visible" x="139.63" y="33.415">
        <path d="M2.625-1.906v-.703c0-1.422-.953-3.22-1.875-3.907a.88.88 0 00-.188-.062c-.046 0-.296.203-.296.234 0 .032.078.172.093.188C1.234-5.5 1.75-3.938 1.75-2.61v.703C1.75-.563 1.234 1 .36 1.656a.933.933 0 00-.094.172c0 .047.25.25.296.25a.88.88 0 00.188-.062c.922-.688 1.875-2.485 1.875-3.922zm0 0"/>
    </svg>
    <svg overflow="visible" x="142.885" y="33.415">
        <path d="M5.375-.172c.063-.047.063-.39 0-.453L3.75-2.25l1.625-1.625c.063-.063.063-.39 0-.453s-.469-.063-.531 0L3.25-2.734 1.672-4.328c-.078-.063-.469-.063-.531 0-.063.062-.063.39 0 .453L2.766-2.25 1.14-.625c-.063.063-.063.406 0 .453.062.078.453.078.53 0l1.595-1.594L4.844-.172c.062.078.468.078.531 0zm0 0"/>
    </svg>
    <svg overflow="visible" x="149.396" y="33.415">
        <path d="M1.828-.61c0-.234-.406-.593-.656-.593s-.656.36-.656.594c0 .25.406.609.656.609s.656-.36.656-.61zm2.328 0c0-.234-.406-.593-.64-.593-.25 0-.657.36-.657.594 0 .25.407.609.657.609.234 0 .64-.36.64-.61zm2.344 0c0-.234-.406-.593-.656-.593-.235 0-.657.36-.657.594 0 .25.422.609.657.609.25 0 .656-.36.656-.61zm0 0"/>
    </svg>
    <svg overflow="visible" x="188.588" y="28.755">
        <path d="M8.828-3.125c0-.125-.312-.36-.437-.36H5.078v-3.374c0-.141-.297-.375-.422-.375-.14 0-.453.234-.453.375v3.375H.906c-.125 0-.437.234-.437.359 0 .14.312.375.437.375h3.297V.625c0 .125.313.36.453.36.125 0 .422-.235.422-.36V-2.75h3.313c.125 0 .437-.234.437-.375zm0 0"/>
    </svg>
    <svg overflow="visible" x="197.889" y="22.229">
        <path d="M5.875-3.344c0-.11-.313-.265-.36-.265-.109 0-.327.187-.374.375a3.796 3.796 0 01-.735 1.406l.375.11c-.015-.126-.031-.688-.047-.766-.125-.829-.968-1.532-1.796-1.532C1.702-4.016.312-2.703.312-1.53c0 .765.766 1.61 1.735 1.61.781 0 1.61-.392 1.828-.563.094.312.734.562.984.562.485 0 1-.562 1-.734 0-.11-.312-.266-.359-.266-.11 0-.328.188-.344.25-.125.313-.172.203-.281.203-.11 0-.047.156-.078-.828.703-.719 1.078-1.953 1.078-2.047zM3.781-1.172c-.828.672-1.39.703-1.703.703-.547 0-.656-.203-.656-.765 0-.25.047-1.047.484-1.625.39-.5.719-.594 1.016-.594.672 0 .656.484.719 1 .046.36.03.953.062 1.344zm0 0"/>
    </svg>
    <svg overflow="visible" x="204.107" y="19.191">
        <path d="M3.516-.172v-.453h-.5c-.641 0-.438.11-.438-.063v-3.296c0-.188-.219-.36-.5-.36-.484.438-1 .375-1.125.375H.656v.625h.297c.14 0 .531-.015.672-.078v2.735c0 .171.203.062-.422.062H.687v.64C1.235-.03 1.766-.03 2.11-.03c.344 0 .875 0 1.407.047zm0 0"/>
    </svg>
    <svg overflow="visible" x="204.107" y="24.511">
        <path d="M3.781-1.219c0-.5-.625-1.093-1.312-1.25v.36c.719-.235 1.11-.86 1.11-1.204 0-.484-.813-1.03-1.563-1.03-.735 0-1.532.484-1.532 1.03 0 .282.438.532.547.532.172 0 .532-.313.532-.516 0-.14-.266-.484-.11-.469.031-.03.422 0 .547 0 .438 0 .547.047.547.454 0 .343-.031.718-.656.75-.172 0-.188.015-.344.015-.063.016-.344.188-.344.281 0 .11.266.282.375.282h.39c.563 0 .72.171.72.75 0 .625-.172.765-.704.765-.062 0-.64.047-.703-.015-.14.03.125-.344.125-.485 0-.219-.36-.547-.562-.547-.188 0-.563.313-.563.563C.281-.328 1.187.125 2 .125c.984 0 1.781-.766 1.781-1.344zm0 0"/>
    </svg>
    <svg overflow="visible" x="208.676" y="22.229">
        <path d="M5.375-.172c.063-.047.063-.39 0-.453L3.75-2.25l1.625-1.625c.063-.063.063-.39 0-.453s-.469-.063-.531 0L3.25-2.734 1.672-4.328c-.078-.063-.469-.063-.531 0-.063.062-.063.39 0 .453L2.766-2.25 1.14-.625c-.063.063-.063.406 0 .453.062.078.453.078.53 0l1.595-1.594L4.844-.172c.062.078.468.078.531 0zm0 0"/>
    </svg>
    <svg overflow="visible" x="215.187" y="22.229">
        <path d="M1.828-.61c0-.234-.406-.593-.656-.593s-.656.36-.656.594c0 .25.406.609.656.609s.656-.36.656-.61zm2.328 0c0-.234-.406-.593-.64-.593-.25 0-.657.36-.657.594 0 .25.407.609.657.609.234 0 .64-.36.64-.61zm2.344 0c0-.234-.406-.593-.656-.593-.235 0-.657.36-.657.594 0 .25.422.609.657.609.25 0 .656-.36.656-.61zm0 0"/>
    </svg>
    <svg overflow="visible" x="197.889" y="33.415">
        <path d="M2.984 1.828a.933.933 0 00-.093-.172C2.016 1 1.5-.562 1.5-1.906v-.703c0-1.329.516-2.891 1.39-3.547a.702.702 0 00.094-.188c0-.031-.25-.234-.28-.234a1.01 1.01 0 00-.204.062C1.578-5.828.64-4.03.64-2.609v.703c0 1.437.938 3.234 1.86 3.922.016.015.188.062.203.062.031 0 .281-.203.281-.25zm0 0"/>
    </svg>
    <svg overflow="visible" x="201.144" y="33.415">
        <path d="M4.172-.156v-.469H3.64c-.829 0-.625.063-.625-.219v-4.64c0-.235-.235-.391-.563-.391-.578.578-1.203.531-1.75.531v.625c.406 0 1.11-.047 1.219-.11v3.985c0 .281.203.219-.625.219H.766v.64L2.469-.03l1.703.047zm0 0"/>
    </svg>
    <svg overflow="visible" x="205.906" y="33.415">
        <path d="M6.25-2.25c0-.094-.281-.328-.375-.328H.641c-.094 0-.375.234-.375.328s.28.328.375.328h5.234c.094 0 .375-.234.375-.328zm0 0"/>
    </svg>
    <svg overflow="visible" x="212.417" y="33.415">
        <path d="M5.875-3.344c0-.11-.313-.265-.36-.265-.109 0-.327.187-.374.375a3.796 3.796 0 01-.735 1.406l.375.11c-.015-.126-.031-.688-.047-.766-.125-.829-.968-1.532-1.796-1.532C1.702-4.016.312-2.703.312-1.53c0 .765.766 1.61 1.735 1.61.781 0 1.61-.392 1.828-.563.094.312.734.562.984.562.485 0 1-.562 1-.734 0-.11-.312-.266-.359-.266-.11 0-.328.188-.344.25-.125.313-.172.203-.281.203-.11 0-.047.156-.078-.828.703-.719 1.078-1.953 1.078-2.047zM3.781-1.172c-.828.672-1.39.703-1.703.703-.547 0-.656-.203-.656-.765 0-.25.047-1.047.484-1.625.39-.5.719-.594 1.016-.594.672 0 .656.484.719 1 .046.36.03.953.062 1.344zm0 0"/>
    </svg>
    <svg overflow="visible" x="218.635" y="30.536">
        <path d="M3.516-.172v-.453h-.5c-.641 0-.438.11-.438-.063v-3.296c0-.188-.219-.36-.5-.36-.484.438-1 .375-1.125.375H.656v.625h.297c.14 0 .531-.015.672-.078v2.735c0 .171.203.062-.422.062H.687v.64C1.235-.03 1.766-.03 2.11-.03c.344 0 .875 0 1.407.047zm0 0"/>
    </svg>
    <svg overflow="visible" x="218.635" y="35.856">
        <path d="M3.781-1.219c0-.5-.625-1.093-1.312-1.25v.36c.719-.235 1.11-.86 1.11-1.204 0-.484-.813-1.03-1.563-1.03-.735 0-1.532.484-1.532 1.03 0 .282.438.532.547.532.172 0 .532-.313.532-.516 0-.14-.266-.484-.11-.469.031-.03.422 0 .547 0 .438 0 .547.047.547.454 0 .343-.031.718-.656.75-.172 0-.188.015-.344.015-.063.016-.344.188-.344.281 0 .11.266.282.375.282h.39c.563 0 .72.171.72.75 0 .625-.172.765-.704.765-.062 0-.64.047-.703-.015-.14.03.125-.344.125-.485 0-.219-.36-.547-.562-.547-.188 0-.563.313-.563.563C.281-.328 1.187.125 2 .125c.984 0 1.781-.766 1.781-1.344zm0 0"/>
    </svg>
    <svg overflow="visible" x="223.204" y="33.415">
        <path d="M2.625-1.906v-.703c0-1.422-.953-3.22-1.875-3.907a.88.88 0 00-.188-.062c-.046 0-.296.203-.296.234 0 .032.078.172.093.188C1.234-5.5 1.75-3.938 1.75-2.61v.703C1.75-.563 1.234 1 .36 1.656a.933.933 0 00-.094.172c0 .047.25.25.296.25a.88.88 0 00.188-.062c.922-.688 1.875-2.485 1.875-3.922zm0 0"/>
    </svg>
    <svg overflow="visible" x="226.459" y="33.415">
        <path d="M5.375-.172c.063-.047.063-.39 0-.453L3.75-2.25l1.625-1.625c.063-.063.063-.39 0-.453s-.469-.063-.531 0L3.25-2.734 1.672-4.328c-.078-.063-.469-.063-.531 0-.063.062-.063.39 0 .453L2.766-2.25 1.14-.625c-.063.063-.063.406 0 .453.062.078.453.078.53 0l1.595-1.594L4.844-.172c.062.078.468.078.531 0zm0 0"/>
    </svg>
    <svg overflow="visible" x="232.97" y="33.415">
        <path d="M1.828-.61c0-.234-.406-.593-.656-.593s-.656.36-.656.594c0 .25.406.609.656.609s.656-.36.656-.61zm2.328 0c0-.234-.406-.593-.64-.593-.25 0-.657.36-.657.594 0 .25.407.609.657.609.234 0 .64-.36.64-.61zm2.344 0c0-.234-.406-.593-.656-.593-.235 0-.657.36-.657.594 0 .25.422.609.657.609.25 0 .656-.36.656-.61zm0 0"/>
    </svg>
    <svg overflow="visible" x="41.406" y="46.231">
        <path d="M11.656-1.875c0-.14-.297-.375-.437-.375a.843.843 0 00-.344.14 5.124 5.124 0 00-.719 1.876 4.41 4.41 0 00.047 1.28l.344-.109-9.5-9.5C1-8.608.813-8.671.734-8.671c-.125 0-.437.25-.437.375 0 .078.078.235.14.266L9.61 1.14c.047.015-.375 0-.796.046-.626.094-1.376.344-1.922.704-.063.046-.172.218-.172.296 0 .126.312.376.437.376a.834.834 0 00.282-.079c.468-.328.875-.468 1.437-.546.672-.079 1.234-.079 1.875.234.031.015.203.047.219.047.094 0 .344-.203.344-.281a.762.762 0 00-.063-.172c-.328-.641-.297-1.25-.219-1.938.078-.547.203-.984.531-1.469.016-.046.094-.171.094-.234zm0 0"/>
    </svg>
    <svg overflow="visible" x="124.979" y="46.231">
        <path d="M11.656-1.875c0-.14-.297-.375-.437-.375a.843.843 0 00-.344.14 5.124 5.124 0 00-.719 1.876 4.41 4.41 0 00.047 1.28l.344-.109-9.5-9.5C1-8.608.813-8.671.734-8.671c-.125 0-.437.25-.437.375 0 .078.078.235.14.266L9.61 1.14c.047.015-.375 0-.796.046-.626.094-1.376.344-1.922.704-.063.046-.172.218-.172.296 0 .126.312.376.437.376a.834.834 0 00.282-.079c.468-.328.875-.468 1.437-.546.672-.079 1.234-.079 1.875.234.031.015.203.047.219.047.094 0 .344-.203.344-.281a.762.762 0 00-.063-.172c-.328-.641-.297-1.25-.219-1.938.078-.547.203-.984.531-1.469.016-.046.094-.171.094-.234zm0 0"/>
    </svg>
    <svg overflow="visible" x="208.553" y="46.231">
        <path d="M11.656-1.875c0-.14-.297-.375-.437-.375a.843.843 0 00-.344.14 5.124 5.124 0 00-.719 1.876 4.41 4.41 0 00.047 1.28l.344-.109-9.5-9.5C1-8.608.813-8.671.734-8.671c-.125 0-.437.25-.437.375 0 .078.078.235.14.266L9.61 1.14c.047.015-.375 0-.796.046-.626.094-1.376.344-1.922.704-.063.046-.172.218-.172.296 0 .126.312.376.437.376a.834.834 0 00.282-.079c.468-.328.875-.468 1.437-.546.672-.079 1.234-.079 1.875.234.031.015.203.047.219.047.094 0 .344-.203.344-.281a.762.762 0 00-.063-.172c-.328-.641-.297-1.25-.219-1.938.078-.547.203-.984.531-1.469.016-.046.094-.171.094-.234zm0 0"/>
    </svg>
    <svg overflow="visible" x="83.288" y="60.677">
        <path d="M6.297-8.203s-.125-.36-.281-.36c-.188 0-1.313.11-1.516.141-.094 0-.375.203-.375.36 0 .14.313.265.484.265.579 0 .407-.047.407.078l-.047.235-.719 2.828h.406c-.218-.438-.765-.89-1.297-.89-1.406 0-3.078 1.89-3.078 3.64 0 1.125.86 2.031 1.781 2.031.25 0 .97-.078 1.422-.61.032.094.657.61 1.22.61.421 0 .827-.297 1.015-.688l.062-.093c.203-.438.297-1.094.297-1.094l.063-.094c0-.11-.297-.25-.329-.25-.125 0-.343.188-.375.344-.203.781-.218 1.36-.703 1.36-.328 0-.171-.188-.171-.422 0-.282.03-.375.078-.579l1.718-6.906zm-2.188 4.11c0 .062-.015.14-.03.202l-.595 2.344c-.062.203 0 .14-.187.344-.531.656-.875.812-1.203.812-.594 0-.578-.53-.578-1 0-.593.328-1.968.593-2.515.375-.703.782-1.11 1.266-1.11.766 0 .734.844.734.922zm0 0"/>
    </svg>
    <svg overflow="visible" x="89.792" y="56.337">
        <path d="M4.234-1.844H3.75c-.047.344-.063.735-.172.813-.062.047-.562 0-.687 0H1.812c.563-.5.86-.735 1.36-1.125.625-.5 1.265-1.14 1.265-1.938 0-1-1.093-1.781-2.171-1.781-1.032 0-1.954.89-1.954 1.656 0 .422.579.625.657.625.203 0 .656-.297.656-.61 0-.14-.266-.593-.422-.593.188-.437.547-.469.938-.469.843 0 1.062.5 1.062 1.172 0 .735-.453 1.203-.719 1.5l-2.03 2C.374-.516.311-.39.311 0h3.844l.313-1.844zm0 0"/>
    </svg>
    <svg overflow="visible" x="89.505" y="63.807">
        <path d="M4.234-1.844H3.75c-.047.344-.063.735-.172.813-.062.047-.562 0-.687 0H1.812c.563-.5.86-.735 1.36-1.125.625-.5 1.265-1.14 1.265-1.938 0-1-1.093-1.781-2.171-1.781-1.032 0-1.954.89-1.954 1.656 0 .422.579.625.657.625.203 0 .656-.297.656-.61 0-.14-.266-.593-.422-.593.188-.437.547-.469.938-.469.843 0 1.062.5 1.062 1.172 0 .735-.453 1.203-.719 1.5l-2.03 2C.374-.516.311-.39.311 0h3.844l.313-1.844zm0 0"/>
    </svg>
    <svg overflow="visible" x="124.979" y="60.677">
        <path d="M11.469-3.125c0-.063-.25-.25-.297-.281-.688-.235-1.078-.672-1.516-1.203-.328-.438-.531-.86-.625-1.422-.031-.11-.312-.328-.437-.328s-.438.234-.438.375v.046c.125.625.469 1.313.86 1.813.265.328.578.625.921.86l.157-.22H.938c-.141 0-.454.235-.454.36 0 .14.313.375.454.375h9.156l-.156-.219a3.997 3.997 0 00-.922.86c-.391.5-.735 1.171-.86 1.812v.047c0 .125.313.375.438.375S9-.094 9.03-.203c.094-.563.297-.984.625-1.422.438-.531.828-.984 1.516-1.203.047-.031.297-.219.297-.297zm0 0"/>
    </svg>
    <svg overflow="visible" x="166.858" y="60.677">
        <path d="M6.297-8.203s-.125-.36-.281-.36c-.188 0-1.313.11-1.516.141-.094 0-.375.203-.375.36 0 .14.313.265.484.265.579 0 .407-.047.407.078l-.047.235-.719 2.828h.406c-.218-.438-.765-.89-1.297-.89-1.406 0-3.078 1.89-3.078 3.64 0 1.125.86 2.031 1.781 2.031.25 0 .97-.078 1.422-.61.032.094.657.61 1.22.61.421 0 .827-.297 1.015-.688l.062-.093c.203-.438.297-1.094.297-1.094l.063-.094c0-.11-.297-.25-.329-.25-.125 0-.343.188-.375.344-.203.781-.218 1.36-.703 1.36-.328 0-.171-.188-.171-.422 0-.282.03-.375.078-.579l1.718-6.906zm-2.188 4.11c0 .062-.015.14-.03.202l-.595 2.344c-.062.203 0 .14-.187.344-.531.656-.875.812-1.203.812-.594 0-.578-.53-.578-1 0-.593.328-1.968.593-2.515.375-.703.782-1.11 1.266-1.11.766 0 .734.844.734.922zm0 0"/>
    </svg>
    <svg overflow="visible" x="173.365" y="56.337">
        <path d="M4.172-.156v-.469H3.64c-.829 0-.625.063-.625-.219v-4.64c0-.235-.235-.391-.563-.391-.578.578-1.203.531-1.75.531v.625c.406 0 1.11-.047 1.219-.11v3.985c0 .281.203.219-.625.219H.766v.64L2.469-.03l1.703.047zm0 0"/>
    </svg>
    <svg overflow="visible" x="173.078" y="63.807">
        <path d="M4.234-1.844H3.75c-.047.344-.063.735-.172.813-.062.047-.562 0-.687 0H1.812c.563-.5.86-.735 1.36-1.125.625-.5 1.265-1.14 1.265-1.938 0-1-1.093-1.781-2.171-1.781-1.032 0-1.954.89-1.954 1.656 0 .422.579.625.657.625.203 0 .656-.297.656-.61 0-.14-.266-.593-.422-.593.188-.437.547-.469.938-.469.843 0 1.062.5 1.062 1.172 0 .735-.453 1.203-.719 1.5l-2.03 2C.374-.516.311-.39.311 0h3.844l.313-1.844zm0 0"/>
    </svg>
    <svg overflow="visible" x="208.553" y="60.677">
        <path d="M11.469-3.125c0-.063-.25-.25-.297-.281-.688-.235-1.078-.672-1.516-1.203-.328-.438-.531-.86-.625-1.422-.031-.11-.312-.328-.437-.328s-.438.234-.438.375v.046c.125.625.469 1.313.86 1.813.265.328.578.625.921.86l.157-.22H.938c-.141 0-.454.235-.454.36 0 .14.313.375.454.375h9.156l-.156-.219a3.997 3.997 0 00-.922.86c-.391.5-.735 1.171-.86 1.812v.047c0 .125.313.375.438.375S9-.094 9.03-.203c.094-.563.297-.984.625-1.422.438-.531.828-.984 1.516-1.203.047-.031.297-.219.297-.297zm0 0"/>
    </svg>
    <svg overflow="visible" x="250.432" y="60.677">
        <path d="M6.297-8.203s-.125-.36-.281-.36c-.188 0-1.313.11-1.516.141-.094 0-.375.203-.375.36 0 .14.313.265.484.265.579 0 .407-.047.407.078l-.047.235-.719 2.828h.406c-.218-.438-.765-.89-1.297-.89-1.406 0-3.078 1.89-3.078 3.64 0 1.125.86 2.031 1.781 2.031.25 0 .97-.078 1.422-.61.032.094.657.61 1.22.61.421 0 .827-.297 1.015-.688l.062-.093c.203-.438.297-1.094.297-1.094l.063-.094c0-.11-.297-.25-.329-.25-.125 0-.343.188-.375.344-.203.781-.218 1.36-.703 1.36-.328 0-.171-.188-.171-.422 0-.282.03-.375.078-.579l1.718-6.906zm-2.188 4.11c0 .062-.015.14-.03.202l-.595 2.344c-.062.203 0 .14-.187.344-.531.656-.875.812-1.203.812-.594 0-.578-.53-.578-1 0-.593.328-1.968.593-2.515.375-.703.782-1.11 1.266-1.11.766 0 .734.844.734.922zm0 0"/>
    </svg>
    <svg overflow="visible" x="256.939" y="56.337">
        <path d="M4.531-2.828c0-.922-.172-1.688-.562-2.281-.266-.391-.922-.766-1.594-.766C.437-5.875.219-3.437.219-2.828c0 .594.218 3 2.156 3 1.953 0 2.156-2.406 2.156-3zm-1.187-.11c0 .626 0 1.235-.11 1.766-.156.766-.515.781-.859.781-.375 0-.688-.062-.844-.75-.125-.5-.125-1.171-.125-1.796 0-.61 0-1.25.125-1.704.172-.671.5-.687.844-.687.453 0 .688.125.828.61.14.452.14 1.046.14 1.78zm0 0"/>
    </svg>
    <svg overflow="visible" x="256.652" y="63.974">
        <path d="M4.234-1.844H3.75c-.047.344-.063.735-.172.813-.062.047-.562 0-.687 0H1.812c.563-.5.86-.735 1.36-1.125.625-.5 1.265-1.14 1.265-1.938 0-1-1.093-1.781-2.171-1.781-1.032 0-1.954.89-1.954 1.656 0 .422.579.625.657.625.203 0 .656-.297.656-.61 0-.14-.266-.593-.422-.593.188-.437.547-.469.938-.469.843 0 1.062.5 1.062 1.172 0 .735-.453 1.203-.719 1.5l-2.03 2C.374-.516.311-.39.311 0h3.844l.313-1.844zm0 0"/>
    </svg>
    <svg overflow="visible" x="262.199" y="60.677">
        <path d="M4.156 2.719c0-.047-.078-.172-.11-.203-1.234-.922-2-3.22-2-5.141v-1c0-1.906.767-4.203 2-5.14a.457.457 0 00.11-.188c0-.063-.25-.25-.312-.25a1.01 1.01 0 00-.203.062C2.312-8.156 1-5.67 1-3.625v1C1-.578 2.313 1.906 3.64 2.906c.016.016.188.063.204.063.062 0 .312-.203.312-.25zm0 0"/>
    </svg>
    <svg overflow="visible" x="266.85" y="60.677">
        <path d="M8.828-4.281c0-.125-.312-.375-.437-.375H.906c-.125 0-.437.25-.437.375 0 .14.312.375.437.375h7.485c.125 0 .437-.235.437-.375zm0 2.328c0-.14-.312-.375-.437-.375H.906c-.125 0-.437.234-.437.375 0 .125.312.36.437.36h7.485c.125 0 .437-.235.437-.36zm0 0"/>
    </svg>
    <svg overflow="visible" x="279.462" y="60.677">
        <path d="M5.688-3.953c0-.953-.063-1.922-.47-2.797-.562-1.156-1.734-1.469-2.234-1.469-.718 0-1.796.438-2.28 1.547-.376.828-.438 1.766-.438 2.719 0 .89.109 2.062.593 2.969.516.968 1.532 1.25 2.11 1.25.656 0 1.75-.391 2.281-1.516.375-.828.438-1.766.438-2.703zm-1.391-.14c0 .89 0 1.702-.125 2.468C4-.485 3.516-.265 2.969-.265 2.516-.266 2-.438 1.78-1.579c-.125-.719-.125-1.813-.125-2.516 0-.765 0-1.562.094-2.203.219-1.422.922-1.406 1.219-1.406.406 0 .984.094 1.219 1.266.109.671.109 1.578.109 2.343zm0 0"/>
    </svg>
    <svg overflow="visible" x="289.347" y="60.677">
        <path d="M5.64-2.703c0-1.547-1.327-2.922-2.718-2.922C1.5-5.625.187-4.203.187-2.703c0 1.531 1.36 2.828 2.735 2.828 1.406 0 2.719-1.313 2.719-2.828zm-1.234-.11c0 .422.047 1.063-.265 1.626-.329.562-.766.75-1.22.75-.437 0-.858-.141-1.218-.735-.312-.531-.281-1.14-.281-1.64 0-.454-.047-1.079.328-1.61.328-.516.75-.672 1.172-.672.453 0 .844.188 1.172.64.36.563.312 1.204.312 1.641zm0 0"/>
    </svg>
    <svg overflow="visible" x="295.205" y="60.677">
        <path d="M4.375-4.719c0-.36-.484-.843-1-.843-1.016 0-1.516 1.25-1.547 1.312h.266v-1.328l-1.922.156v.625c.969 0 .906-.062.906.531v3.235c0 .547.031.39-.906.39v.657c.5-.047 1.156-.047 1.516-.047.328 0 1.171 0 1.593.062V-.64h-.39c-.875 0-.735.016-.735-.406v-1.875c0-1.172.313-2.11 1.235-2.11.093 0 .125 0 .171.016l-.124-.25a.618.618 0 00-.329.547c0 .344.438.625.625.625.25 0 .641-.312.641-.625zm0 0"/>
    </svg>
    <svg overflow="visible" x="303.657" y="60.677">
        <path d="M5.203-.125v-.516h-.578c-1.078 0-.922 0-.922-.437v-6.703c0-.282-.187-.438-.578-.438-.766.797-1.672.766-2.266.766v.625c.438 0 1.282-.031 1.563-.172v5.922c0 .437.172.437-.906.437H.937v.672C1.547-.03 2.595-.03 3.079-.03c.469 0 1.516 0 2.125.062zm0 0"/>
    </svg>
    <svg overflow="visible" x="309.635" y="60.677">
        <path d="M3.64-2.625v-1c0-2.047-1.328-4.531-2.64-5.516a.774.774 0 00-.203-.062c-.063 0-.313.187-.313.25 0 .031.079.172.094.187 1.25.938 2.016 3.235 2.016 5.141v1c0 1.922-.766 4.219-2.016 5.14-.015.032-.094.157-.094.204 0 .047.25.25.313.25A.774.774 0 001 2.906c1.313-1 2.64-3.484 2.64-5.531zm0 0"/>
    </svg>
    <svg overflow="visible" x="105.015" y="78.425">
        <path d="M8.828-3.125c0-.125-.312-.36-.437-.36H5.078v-3.374c0-.141-.297-.375-.422-.375-.14 0-.453.234-.453.375v3.375H.906c-.125 0-.437.234-.437.359 0 .14.312.375.437.375h3.297V.625c0 .125.313.36.453.36.125 0 .422-.235.422-.36V-2.75h3.313c.125 0 .437-.234.437-.375zm0 0"/>
    </svg>
    <svg overflow="visible" x="114.316" y="72.03">
        <path d="M5.875-3.344c0-.11-.313-.265-.36-.265-.109 0-.327.187-.374.375a3.796 3.796 0 01-.735 1.406l.375.11c-.015-.126-.031-.688-.047-.766-.125-.829-.968-1.532-1.796-1.532C1.702-4.016.312-2.703.312-1.53c0 .765.766 1.61 1.735 1.61.781 0 1.61-.392 1.828-.563.094.312.734.562.984.562.485 0 1-.562 1-.734 0-.11-.312-.266-.359-.266-.11 0-.328.188-.344.25-.125.313-.172.203-.281.203-.11 0-.047.156-.078-.828.703-.719 1.078-1.953 1.078-2.047zM3.781-1.172c-.828.672-1.39.703-1.703.703-.547 0-.656-.203-.656-.765 0-.25.047-1.047.484-1.625.39-.5.719-.594 1.016-.594.672 0 .656.484.719 1 .046.36.03.953.062 1.344zm0 0"/>
    </svg>
    <svg overflow="visible" x="120.534" y="68.992">
        <path d="M3.531-1.516h-.437c-.047.297-.047.547-.14.594-.048.047-.407-.015-.5-.015H1.28l.14.312c.391-.297.845-.625 1.204-.875.531-.36 1.094-.844 1.094-1.469 0-.765-.922-1.375-1.781-1.375-.797 0-1.594.64-1.594 1.235 0 .312.469.546.547.546.156 0 .546-.296.546-.53 0-.22-.343-.516-.234-.5 0 0 .219-.126.61-.126.593 0 .875.172.875.75 0 .5-.297.766-.75 1.156L.468-.577a.397.397 0 00-.124.219V0H3.5l.25-1.516zm0 0"/>
    </svg>
    <svg overflow="visible" x="120.534" y="74.312">
        <path d="M3.531-1.516h-.437c-.047.297-.047.547-.14.594-.048.047-.407-.015-.5-.015H1.28l.14.312c.391-.297.845-.625 1.204-.875.531-.36 1.094-.844 1.094-1.469 0-.765-.922-1.375-1.781-1.375-.797 0-1.594.64-1.594 1.235 0 .312.469.546.547.546.156 0 .546-.296.546-.53 0-.22-.343-.516-.234-.5 0 0 .219-.126.61-.126.593 0 .875.172.875.75 0 .5-.297.766-.75 1.156L.468-.577a.397.397 0 00-.124.219V0H3.5l.25-1.516zm0 0"/>
    </svg>
    <svg overflow="visible" x="125.102" y="72.03">
        <path d="M5.375-.172c.063-.047.063-.39 0-.453L3.75-2.25l1.625-1.625c.063-.063.063-.39 0-.453s-.469-.063-.531 0L3.25-2.734 1.672-4.328c-.078-.063-.469-.063-.531 0-.063.062-.063.39 0 .453L2.766-2.25 1.14-.625c-.063.063-.063.406 0 .453.062.078.453.078.53 0l1.595-1.594L4.844-.172c.062.078.468.078.531 0zm0 0"/>
    </svg>
    <svg overflow="visible" x="131.613" y="72.03">
        <path d="M1.828-.61c0-.234-.406-.593-.656-.593s-.656.36-.656.594c0 .25.406.609.656.609s.656-.36.656-.61zm2.328 0c0-.234-.406-.593-.64-.593-.25 0-.657.36-.657.594 0 .25.407.609.657.609.234 0 .64-.36.64-.61zm2.344 0c0-.234-.406-.593-.656-.593-.235 0-.657.36-.657.594 0 .25.422.609.657.609.25 0 .656-.36.656-.61zm0 0"/>
    </svg>
    <svg overflow="visible" x="114.316" y="83.085">
        <path d="M2.984 1.828a.933.933 0 00-.093-.172C2.016 1 1.5-.562 1.5-1.906v-.703c0-1.329.516-2.891 1.39-3.547a.702.702 0 00.094-.188c0-.031-.25-.234-.28-.234a1.01 1.01 0 00-.204.062C1.578-5.828.64-4.03.64-2.609v.703c0 1.437.938 3.234 1.86 3.922.016.015.188.062.203.062.031 0 .281-.203.281-.25zm0 0"/>
    </svg>
    <svg overflow="visible" x="117.571" y="83.085">
        <path d="M4.172-.156v-.469H3.64c-.829 0-.625.063-.625-.219v-4.64c0-.235-.235-.391-.563-.391-.578.578-1.203.531-1.75.531v.625c.406 0 1.11-.047 1.219-.11v3.985c0 .281.203.219-.625.219H.766v.64L2.469-.03l1.703.047zm0 0"/>
    </svg>
    <svg overflow="visible" x="122.333" y="83.085">
        <path d="M6.25-2.25c0-.094-.281-.328-.375-.328H.641c-.094 0-.375.234-.375.328s.28.328.375.328h5.234c.094 0 .375-.234.375-.328zm0 0"/>
    </svg>
    <svg overflow="visible" x="128.844" y="83.085">
        <path d="M5.875-3.344c0-.11-.313-.265-.36-.265-.109 0-.327.187-.374.375a3.796 3.796 0 01-.735 1.406l.375.11c-.015-.126-.031-.688-.047-.766-.125-.829-.968-1.532-1.796-1.532C1.702-4.016.312-2.703.312-1.53c0 .765.766 1.61 1.735 1.61.781 0 1.61-.392 1.828-.563.094.312.734.562.984.562.485 0 1-.562 1-.734 0-.11-.312-.266-.359-.266-.11 0-.328.188-.344.25-.125.313-.172.203-.281.203-.11 0-.047.156-.078-.828.703-.719 1.078-1.953 1.078-2.047zM3.781-1.172c-.828.672-1.39.703-1.703.703-.547 0-.656-.203-.656-.765 0-.25.047-1.047.484-1.625.39-.5.719-.594 1.016-.594.672 0 .656.484.719 1 .046.36.03.953.062 1.344zm0 0"/>
    </svg>
    <svg overflow="visible" x="135.061" y="80.206">
        <path d="M3.531-1.516h-.437c-.047.297-.047.547-.14.594-.048.047-.407-.015-.5-.015H1.28l.14.312c.391-.297.845-.625 1.204-.875.531-.36 1.094-.844 1.094-1.469 0-.765-.922-1.375-1.781-1.375-.797 0-1.594.64-1.594 1.235 0 .312.469.546.547.546.156 0 .546-.296.546-.53 0-.22-.343-.516-.234-.5 0 0 .219-.126.61-.126.593 0 .875.172.875.75 0 .5-.297.766-.75 1.156L.468-.577a.397.397 0 00-.124.219V0H3.5l.25-1.516zm0 0"/>
    </svg>
    <svg overflow="visible" x="135.061" y="85.526">
        <path d="M3.531-1.516h-.437c-.047.297-.047.547-.14.594-.048.047-.407-.015-.5-.015H1.28l.14.312c.391-.297.845-.625 1.204-.875.531-.36 1.094-.844 1.094-1.469 0-.765-.922-1.375-1.781-1.375-.797 0-1.594.64-1.594 1.235 0 .312.469.546.547.546.156 0 .546-.296.546-.53 0-.22-.343-.516-.234-.5 0 0 .219-.126.61-.126.593 0 .875.172.875.75 0 .5-.297.766-.75 1.156L.468-.577a.397.397 0 00-.124.219V0H3.5l.25-1.516zm0 0"/>
    </svg>
    <svg overflow="visible" x="139.63" y="83.085">
        <path d="M2.625-1.906v-.703c0-1.422-.953-3.22-1.875-3.907a.88.88 0 00-.188-.062c-.046 0-.296.203-.296.234 0 .032.078.172.093.188C1.234-5.5 1.75-3.938 1.75-2.61v.703C1.75-.563 1.234 1 .36 1.656a.933.933 0 00-.094.172c0 .047.25.25.296.25a.88.88 0 00.188-.062c.922-.688 1.875-2.485 1.875-3.922zm0 0"/>
    </svg>
    <svg overflow="visible" x="142.885" y="83.085">
        <path d="M5.375-.172c.063-.047.063-.39 0-.453L3.75-2.25l1.625-1.625c.063-.063.063-.39 0-.453s-.469-.063-.531 0L3.25-2.734 1.672-4.328c-.078-.063-.469-.063-.531 0-.063.062-.063.39 0 .453L2.766-2.25 1.14-.625c-.063.063-.063.406 0 .453.062.078.453.078.53 0l1.595-1.594L4.844-.172c.062.078.468.078.531 0zm0 0"/>
    </svg>
    <svg overflow="visible" x="149.396" y="83.085">
        <path d="M1.828-.61c0-.234-.406-.593-.656-.593s-.656.36-.656.594c0 .25.406.609.656.609s.656-.36.656-.61zm2.328 0c0-.234-.406-.593-.64-.593-.25 0-.657.36-.657.594 0 .25.407.609.657.609.234 0 .64-.36.64-.61zm2.344 0c0-.234-.406-.593-.656-.593-.235 0-.657.36-.657.594 0 .25.422.609.657.609.25 0 .656-.36.656-.61zm0 0"/>
    </svg>
    <svg overflow="visible" x="188.588" y="78.425">
        <path d="M8.828-3.125c0-.125-.312-.36-.437-.36H5.078v-3.374c0-.141-.297-.375-.422-.375-.14 0-.453.234-.453.375v3.375H.906c-.125 0-.437.234-.437.359 0 .14.312.375.437.375h3.297V.625c0 .125.313.36.453.36.125 0 .422-.235.422-.36V-2.75h3.313c.125 0 .437-.234.437-.375zm0 0"/>
    </svg>
    <svg overflow="visible" x="197.889" y="72.03">
        <path d="M5.875-3.344c0-.11-.313-.265-.36-.265-.109 0-.327.187-.374.375a3.796 3.796 0 01-.735 1.406l.375.11c-.015-.126-.031-.688-.047-.766-.125-.829-.968-1.532-1.796-1.532C1.702-4.016.312-2.703.312-1.53c0 .765.766 1.61 1.735 1.61.781 0 1.61-.392 1.828-.563.094.312.734.562.984.562.485 0 1-.562 1-.734 0-.11-.312-.266-.359-.266-.11 0-.328.188-.344.25-.125.313-.172.203-.281.203-.11 0-.047.156-.078-.828.703-.719 1.078-1.953 1.078-2.047zM3.781-1.172c-.828.672-1.39.703-1.703.703-.547 0-.656-.203-.656-.765 0-.25.047-1.047.484-1.625.39-.5.719-.594 1.016-.594.672 0 .656.484.719 1 .046.36.03.953.062 1.344zm0 0"/>
    </svg>
    <svg overflow="visible" x="204.107" y="68.992">
        <path d="M3.516-.172v-.453h-.5c-.641 0-.438.11-.438-.063v-3.296c0-.188-.219-.36-.5-.36-.484.438-1 .375-1.125.375H.656v.625h.297c.14 0 .531-.015.672-.078v2.735c0 .171.203.062-.422.062H.687v.64C1.235-.03 1.766-.03 2.11-.03c.344 0 .875 0 1.407.047zm0 0"/>
    </svg>
    <svg overflow="visible" x="204.107" y="74.312">
        <path d="M3.531-1.516h-.437c-.047.297-.047.547-.14.594-.048.047-.407-.015-.5-.015H1.28l.14.312c.391-.297.845-.625 1.204-.875.531-.36 1.094-.844 1.094-1.469 0-.765-.922-1.375-1.781-1.375-.797 0-1.594.64-1.594 1.235 0 .312.469.546.547.546.156 0 .546-.296.546-.53 0-.22-.343-.516-.234-.5 0 0 .219-.126.61-.126.593 0 .875.172.875.75 0 .5-.297.766-.75 1.156L.468-.577a.397.397 0 00-.124.219V0H3.5l.25-1.516zm0 0"/>
    </svg>
    <svg overflow="visible" x="208.676" y="72.03">
        <path d="M5.375-.172c.063-.047.063-.39 0-.453L3.75-2.25l1.625-1.625c.063-.063.063-.39 0-.453s-.469-.063-.531 0L3.25-2.734 1.672-4.328c-.078-.063-.469-.063-.531 0-.063.062-.063.39 0 .453L2.766-2.25 1.14-.625c-.063.063-.063.406 0 .453.062.078.453.078.53 0l1.595-1.594L4.844-.172c.062.078.468.078.531 0zm0 0"/>
    </svg>
    <svg overflow="visible" x="215.187" y="72.03">
        <path d="M1.828-.61c0-.234-.406-.593-.656-.593s-.656.36-.656.594c0 .25.406.609.656.609s.656-.36.656-.61zm2.328 0c0-.234-.406-.593-.64-.593-.25 0-.657.36-.657.594 0 .25.407.609.657.609.234 0 .64-.36.64-.61zm2.344 0c0-.234-.406-.593-.656-.593-.235 0-.657.36-.657.594 0 .25.422.609.657.609.25 0 .656-.36.656-.61zm0 0"/>
    </svg>
    <svg overflow="visible" x="197.889" y="83.085">
        <path d="M2.984 1.828a.933.933 0 00-.093-.172C2.016 1 1.5-.562 1.5-1.906v-.703c0-1.329.516-2.891 1.39-3.547a.702.702 0 00.094-.188c0-.031-.25-.234-.28-.234a1.01 1.01 0 00-.204.062C1.578-5.828.64-4.03.64-2.609v.703c0 1.437.938 3.234 1.86 3.922.016.015.188.062.203.062.031 0 .281-.203.281-.25zm0 0"/>
    </svg>
    <svg overflow="visible" x="201.144" y="83.085">
        <path d="M4.172-.156v-.469H3.64c-.829 0-.625.063-.625-.219v-4.64c0-.235-.235-.391-.563-.391-.578.578-1.203.531-1.75.531v.625c.406 0 1.11-.047 1.219-.11v3.985c0 .281.203.219-.625.219H.766v.64L2.469-.03l1.703.047zm0 0"/>
    </svg>
    <svg overflow="visible" x="205.906" y="83.085">
        <path d="M6.25-2.25c0-.094-.281-.328-.375-.328H.641c-.094 0-.375.234-.375.328s.28.328.375.328h5.234c.094 0 .375-.234.375-.328zm0 0"/>
    </svg>
    <svg overflow="visible" x="212.417" y="83.085">
        <path d="M5.875-3.344c0-.11-.313-.265-.36-.265-.109 0-.327.187-.374.375a3.796 3.796 0 01-.735 1.406l.375.11c-.015-.126-.031-.688-.047-.766-.125-.829-.968-1.532-1.796-1.532C1.702-4.016.312-2.703.312-1.53c0 .765.766 1.61 1.735 1.61.781 0 1.61-.392 1.828-.563.094.312.734.562.984.562.485 0 1-.562 1-.734 0-.11-.312-.266-.359-.266-.11 0-.328.188-.344.25-.125.313-.172.203-.281.203-.11 0-.047.156-.078-.828.703-.719 1.078-1.953 1.078-2.047zM3.781-1.172c-.828.672-1.39.703-1.703.703-.547 0-.656-.203-.656-.765 0-.25.047-1.047.484-1.625.39-.5.719-.594 1.016-.594.672 0 .656.484.719 1 .046.36.03.953.062 1.344zm0 0"/>
    </svg>
    <g>
        <svg overflow="visible" x="218.635" y="80.206">
            <path d="M3.516-.172v-.453h-.5c-.641 0-.438.11-.438-.063v-3.296c0-.188-.219-.36-.5-.36-.484.438-1 .375-1.125.375H.656v.625h.297c.14 0 .531-.015.672-.078v2.735c0 .171.203.062-.422.062H.687v.64C1.235-.03 1.766-.03 2.11-.03c.344 0 .875 0 1.407.047zm0 0"/>
        </svg>
    </g>
    <g>
        <svg overflow="visible" x="218.635" y="85.526">
            <path d="M3.531-1.516h-.437c-.047.297-.047.547-.14.594-.048.047-.407-.015-.5-.015H1.28l.14.312c.391-.297.845-.625 1.204-.875.531-.36 1.094-.844 1.094-1.469 0-.765-.922-1.375-1.781-1.375-.797 0-1.594.64-1.594 1.235 0 .312.469.546.547.546.156 0 .546-.296.546-.53 0-.22-.343-.516-.234-.5 0 0 .219-.126.61-.126.593 0 .875.172.875.75 0 .5-.297.766-.75 1.156L.468-.577a.397.397 0 00-.124.219V0H3.5l.25-1.516zm0 0"/>
        </svg>
    </g>
    <g>
        <svg overflow="visible" x="223.204" y="83.085">
            <path d="M2.625-1.906v-.703c0-1.422-.953-3.22-1.875-3.907a.88.88 0 00-.188-.062c-.046 0-.296.203-.296.234 0 .032.078.172.093.188C1.234-5.5 1.75-3.938 1.75-2.61v.703C1.75-.563 1.234 1 .36 1.656a.933.933 0 00-.094.172c0 .047.25.25.296.25a.88.88 0 00.188-.062c.922-.688 1.875-2.485 1.875-3.922zm0 0"/>
        </svg>
        <svg overflow="visible" x="226.459" y="83.085">
            <path d="M5.375-.172c.063-.047.063-.39 0-.453L3.75-2.25l1.625-1.625c.063-.063.063-.39 0-.453s-.469-.063-.531 0L3.25-2.734 1.672-4.328c-.078-.063-.469-.063-.531 0-.063.062-.063.39 0 .453L2.766-2.25 1.14-.625c-.063.063-.063.406 0 .453.062.078.453.078.53 0l1.595-1.594L4.844-.172c.062.078.468.078.531 0zm0 0"/>
        </svg>
        <svg overflow="visible" x="232.97" y="83.085">
            <path d="M1.828-.61c0-.234-.406-.593-.656-.593s-.656.36-.656.594c0 .25.406.609.656.609s.656-.36.656-.61zm2.328 0c0-.234-.406-.593-.64-.593-.25 0-.657.36-.657.594 0 .25.407.609.657.609.234 0 .64-.36.64-.61zm2.344 0c0-.234-.406-.593-.656-.593-.235 0-.657.36-.657.594 0 .25.422.609.657.609.25 0 .656-.36.656-.61zm0 0"/>
        </svg>
    </g>
    <g>
        <svg overflow="visible" x="124.979" y="95.638">
            <path d="M11.656-1.875c0-.14-.297-.375-.437-.375a.843.843 0 00-.344.14 5.124 5.124 0 00-.719 1.876 4.41 4.41 0 00.047 1.28l.344-.109-9.5-9.5C1-8.608.813-8.671.734-8.671c-.125 0-.437.25-.437.375 0 .078.078.235.14.266L9.61 1.14c.047.015-.375 0-.796.046-.626.094-1.376.344-1.922.704-.063.046-.172.218-.172.296 0 .126.312.376.437.376a.834.834 0 00.282-.079c.468-.328.875-.468 1.437-.546.672-.079 1.234-.079 1.875.234.031.015.203.047.219.047.094 0 .344-.203.344-.281a.762.762 0 00-.063-.172c-.328-.641-.297-1.25-.219-1.938.078-.547.203-.984.531-1.469.016-.046.094-.171.094-.234zm0 0"/>
        </svg>
    </g>
    <g>
        <svg overflow="visible" x="208.553" y="95.638">
            <path d="M11.656-1.875c0-.14-.297-.375-.437-.375a.843.843 0 00-.344.14 5.124 5.124 0 00-.719 1.876 4.41 4.41 0 00.047 1.28l.344-.109-9.5-9.5C1-8.608.813-8.671.734-8.671c-.125 0-.437.25-.437.375 0 .078.078.235.14.266L9.61 1.14c.047.015-.375 0-.796.046-.626.094-1.376.344-1.922.704-.063.046-.172.218-.172.296 0 .126.312.376.437.376a.834.834 0 00.282-.079c.468-.328.875-.468 1.437-.546.672-.079 1.234-.079 1.875.234.031.015.203.047.219.047.094 0 .344-.203.344-.281a.762.762 0 00-.063-.172c-.328-.641-.297-1.25-.219-1.938.078-.547.203-.984.531-1.469.016-.046.094-.171.094-.234zm0 0"/>
        </svg>
    </g>
    <g>
        <svg overflow="visible" x="166.862" y="110.084">
            <path d="M6.297-8.203s-.125-.36-.281-.36c-.188 0-1.313.11-1.516.141-.094 0-.375.203-.375.36 0 .14.313.265.484.265.579 0 .407-.047.407.078l-.047.235-.719 2.828h.406c-.218-.438-.765-.89-1.297-.89-1.406 0-3.078 1.89-3.078 3.64 0 1.125.86 2.031 1.781 2.031.25 0 .97-.078 1.422-.61.032.094.657.61 1.22.61.421 0 .827-.297 1.015-.688l.062-.093c.203-.438.297-1.094.297-1.094l.063-.094c0-.11-.297-.25-.329-.25-.125 0-.343.188-.375.344-.203.781-.218 1.36-.703 1.36-.328 0-.171-.188-.171-.422 0-.282.03-.375.078-.579l1.718-6.906zm-2.188 4.11c0 .062-.015.14-.03.202l-.595 2.344c-.062.203 0 .14-.187.344-.531.656-.875.812-1.203.812-.594 0-.578-.53-.578-1 0-.593.328-1.968.593-2.515.375-.703.782-1.11 1.266-1.11.766 0 .734.844.734.922zm0 0"/>
        </svg>
    </g>
    <g>
        <svg overflow="visible" x="173.365" y="105.744">
            <path d="M4.172-.156v-.469H3.64c-.829 0-.625.063-.625-.219v-4.64c0-.235-.235-.391-.563-.391-.578.578-1.203.531-1.75.531v.625c.406 0 1.11-.047 1.219-.11v3.985c0 .281.203.219-.625.219H.766v.64L2.469-.03l1.703.047zm0 0"/>
        </svg>
    </g>
    <g>
        <svg overflow="visible" x="173.078" y="113.213">
            <path d="M4.172-.156v-.469H3.64c-.829 0-.625.063-.625-.219v-4.64c0-.235-.235-.391-.563-.391-.578.578-1.203.531-1.75.531v.625c.406 0 1.11-.047 1.219-.11v3.985c0 .281.203.219-.625.219H.766v.64L2.469-.03l1.703.047zm0 0"/>
        </svg>
    </g>
    <g>
        <svg overflow="visible" x="208.553" y="110.084">
            <path d="M11.469-3.125c0-.063-.25-.25-.297-.281-.688-.235-1.078-.672-1.516-1.203-.328-.438-.531-.86-.625-1.422-.031-.11-.312-.328-.437-.328s-.438.234-.438.375v.046c.125.625.469 1.313.86 1.813.265.328.578.625.921.86l.157-.22H.938c-.141 0-.454.235-.454.36 0 .14.313.375.454.375h9.156l-.156-.219a3.997 3.997 0 00-.922.86c-.391.5-.735 1.171-.86 1.812v.047c0 .125.313.375.438.375S9-.094 9.03-.203c.094-.563.297-.984.625-1.422.438-.531.828-.984 1.516-1.203.047-.031.297-.219.297-.297zm0 0"/>
        </svg>
    </g>
    <g>
        <svg overflow="visible" x="250.432" y="110.084">
            <path d="M6.297-8.203s-.125-.36-.281-.36c-.188 0-1.313.11-1.516.141-.094 0-.375.203-.375.36 0 .14.313.265.484.265.579 0 .407-.047.407.078l-.047.235-.719 2.828h.406c-.218-.438-.765-.89-1.297-.89-1.406 0-3.078 1.89-3.078 3.64 0 1.125.86 2.031 1.781 2.031.25 0 .97-.078 1.422-.61.032.094.657.61 1.22.61.421 0 .827-.297 1.015-.688l.062-.093c.203-.438.297-1.094.297-1.094l.063-.094c0-.11-.297-.25-.329-.25-.125 0-.343.188-.375.344-.203.781-.218 1.36-.703 1.36-.328 0-.171-.188-.171-.422 0-.282.03-.375.078-.579l1.718-6.906zm-2.188 4.11c0 .062-.015.14-.03.202l-.595 2.344c-.062.203 0 .14-.187.344-.531.656-.875.812-1.203.812-.594 0-.578-.53-.578-1 0-.593.328-1.968.593-2.515.375-.703.782-1.11 1.266-1.11.766 0 .734.844.734.922zm0 0"/>
        </svg>
    </g>
    <g>
        <svg overflow="visible" x="256.939" y="105.744">
            <path d="M4.531-2.828c0-.922-.172-1.688-.562-2.281-.266-.391-.922-.766-1.594-.766C.437-5.875.219-3.437.219-2.828c0 .594.218 3 2.156 3 1.953 0 2.156-2.406 2.156-3zm-1.187-.11c0 .626 0 1.235-.11 1.766-.156.766-.515.781-.859.781-.375 0-.688-.062-.844-.75-.125-.5-.125-1.171-.125-1.796 0-.61 0-1.25.125-1.704.172-.671.5-.687.844-.687.453 0 .688.125.828.61.14.452.14 1.046.14 1.78zm0 0"/>
        </svg>
    </g>
    <g>
        <svg overflow="visible" x="256.652" y="113.381">
            <path d="M4.172-.156v-.469H3.64c-.829 0-.625.063-.625-.219v-4.64c0-.235-.235-.391-.563-.391-.578.578-1.203.531-1.75.531v.625c.406 0 1.11-.047 1.219-.11v3.985c0 .281.203.219-.625.219H.766v.64L2.469-.03l1.703.047zm0 0"/>
        </svg>
    </g>
    <g>
        <svg overflow="visible" x="262.199" y="110.084">
            <path d="M4.156 2.719c0-.047-.078-.172-.11-.203-1.234-.922-2-3.22-2-5.141v-1c0-1.906.767-4.203 2-5.14a.457.457 0 00.11-.188c0-.063-.25-.25-.312-.25a1.01 1.01 0 00-.203.062C2.312-8.156 1-5.67 1-3.625v1C1-.578 2.313 1.906 3.64 2.906c.016.016.188.063.204.063.062 0 .312-.203.312-.25zm0 0"/>
        </svg>
        <svg overflow="visible" x="266.85" y="110.084">
            <path d="M8.828-4.281c0-.125-.312-.375-.437-.375H.906c-.125 0-.437.25-.437.375 0 .14.312.375.437.375h7.485c.125 0 .437-.235.437-.375zm0 2.328c0-.14-.312-.375-.437-.375H.906c-.125 0-.437.234-.437.375 0 .125.312.36.437.36h7.485c.125 0 .437-.235.437-.36zm0 0"/>
        </svg>
    </g>
    <g>
        <svg overflow="visible" x="279.462" y="110.084">
            <path d="M5.688-3.953c0-.953-.063-1.922-.47-2.797-.562-1.156-1.734-1.469-2.234-1.469-.718 0-1.796.438-2.28 1.547-.376.828-.438 1.766-.438 2.719 0 .89.109 2.062.593 2.969.516.968 1.532 1.25 2.11 1.25.656 0 1.75-.391 2.281-1.516.375-.828.438-1.766.438-2.703zm-1.391-.14c0 .89 0 1.702-.125 2.468C4-.485 3.516-.265 2.969-.265 2.516-.266 2-.438 1.78-1.579c-.125-.719-.125-1.813-.125-2.516 0-.765 0-1.562.094-2.203.219-1.422.922-1.406 1.219-1.406.406 0 .984.094 1.219 1.266.109.671.109 1.578.109 2.343zm0 0"/>
        </svg>
    </g>
    <g>
        <svg overflow="visible" x="289.346" y="110.084">
            <path d="M5.64-2.703c0-1.547-1.327-2.922-2.718-2.922C1.5-5.625.187-4.203.187-2.703c0 1.531 1.36 2.828 2.735 2.828 1.406 0 2.719-1.313 2.719-2.828zm-1.234-.11c0 .422.047 1.063-.265 1.626-.329.562-.766.75-1.22.75-.437 0-.858-.141-1.218-.735-.312-.531-.281-1.14-.281-1.64 0-.454-.047-1.079.328-1.61.328-.516.75-.672 1.172-.672.453 0 .844.188 1.172.64.36.563.312 1.204.312 1.641zm0 0"/>
        </svg>
        <svg overflow="visible" x="295.204" y="110.084">
            <path d="M4.375-4.719c0-.36-.484-.843-1-.843-1.016 0-1.516 1.25-1.547 1.312h.266v-1.328l-1.922.156v.625c.969 0 .906-.062.906.531v3.235c0 .547.031.39-.906.39v.657c.5-.047 1.156-.047 1.516-.047.328 0 1.171 0 1.593.062V-.64h-.39c-.875 0-.735.016-.735-.406v-1.875c0-1.172.313-2.11 1.235-2.11.093 0 .125 0 .171.016l-.124-.25a.618.618 0 00-.329.547c0 .344.438.625.625.625.25 0 .641-.312.641-.625zm0 0"/>
        </svg>
    </g>
    <g>
        <svg overflow="visible" x="303.657" y="110.084">
            <path d="M5.203-.125v-.516h-.578c-1.078 0-.922 0-.922-.437v-6.703c0-.282-.187-.438-.578-.438-.766.797-1.672.766-2.266.766v.625c.438 0 1.282-.031 1.563-.172v5.922c0 .437.172.437-.906.437H.937v.672C1.547-.03 2.595-.03 3.079-.03c.469 0 1.516 0 2.125.062zm0 0"/>
        </svg>
        <svg overflow="visible" x="309.635" y="110.084">
            <path d="M3.64-2.625v-1c0-2.047-1.328-4.531-2.64-5.516a.774.774 0 00-.203-.062c-.063 0-.313.187-.313.25 0 .031.079.172.094.187 1.25.938 2.016 3.235 2.016 5.141v1c0 1.922-.766 4.219-2.016 5.14-.015.032-.094.157-.094.204 0 .047.25.25.313.25A.774.774 0 001 2.906c1.313-1 2.64-3.484 2.64-5.531zm0 0"/>
        </svg>
    </g>
    <g>
        <svg overflow="visible" x="188.588" y="127.831">
            <path d="M8.828-3.125c0-.125-.312-.36-.437-.36H5.078v-3.374c0-.141-.297-.375-.422-.375-.14 0-.453.234-.453.375v3.375H.906c-.125 0-.437.234-.437.359 0 .14.312.375.437.375h3.297V.625c0 .125.313.36.453.36.125 0 .422-.235.422-.36V-2.75h3.313c.125 0 .437-.234.437-.375zm0 0"/>
        </svg>
    </g>
    <g>
        <svg overflow="visible" x="197.889" y="121.437">
            <path d="M5.875-3.344c0-.11-.313-.265-.36-.265-.109 0-.327.187-.374.375a3.796 3.796 0 01-.735 1.406l.375.11c-.015-.126-.031-.688-.047-.766-.125-.829-.968-1.532-1.796-1.532C1.702-4.016.312-2.703.312-1.53c0 .765.766 1.61 1.735 1.61.781 0 1.61-.392 1.828-.563.094.312.734.562.984.562.485 0 1-.562 1-.734 0-.11-.312-.266-.359-.266-.11 0-.328.188-.344.25-.125.313-.172.203-.281.203-.11 0-.047.156-.078-.828.703-.719 1.078-1.953 1.078-2.047zM3.781-1.172c-.828.672-1.39.703-1.703.703-.547 0-.656-.203-.656-.765 0-.25.047-1.047.484-1.625.39-.5.719-.594 1.016-.594.672 0 .656.484.719 1 .046.36.03.953.062 1.344zm0 0"/>
        </svg>
    </g>
    <g>
        <svg overflow="visible" x="204.107" y="118.399">
            <path d="M3.516-.172v-.453h-.5c-.641 0-.438.11-.438-.063v-3.296c0-.188-.219-.36-.5-.36-.484.438-1 .375-1.125.375H.656v.625h.297c.14 0 .531-.015.672-.078v2.735c0 .171.203.062-.422.062H.687v.64C1.235-.03 1.766-.03 2.11-.03c.344 0 .875 0 1.407.047zm0 0"/>
        </svg>
    </g>
    <g>
        <svg overflow="visible" x="204.107" y="123.719">
            <path d="M3.516-.172v-.453h-.5c-.641 0-.438.11-.438-.063v-3.296c0-.188-.219-.36-.5-.36-.484.438-1 .375-1.125.375H.656v.625h.297c.14 0 .531-.015.672-.078v2.735c0 .171.203.062-.422.062H.687v.64C1.235-.03 1.766-.03 2.11-.03c.344 0 .875 0 1.407.047zm0 0"/>
        </svg>
    </g>
    <g>
        <svg overflow="visible" x="208.676" y="121.437">
            <path d="M5.375-.172c.063-.047.063-.39 0-.453L3.75-2.25l1.625-1.625c.063-.063.063-.39 0-.453s-.469-.063-.531 0L3.25-2.734 1.672-4.328c-.078-.063-.469-.063-.531 0-.063.062-.063.39 0 .453L2.766-2.25 1.14-.625c-.063.063-.063.406 0 .453.062.078.453.078.53 0l1.595-1.594L4.844-.172c.062.078.468.078.531 0zm0 0"/>
        </svg>
        <svg overflow="visible" x="215.187" y="121.437">
            <path d="M1.828-.61c0-.234-.406-.593-.656-.593s-.656.36-.656.594c0 .25.406.609.656.609s.656-.36.656-.61zm2.328 0c0-.234-.406-.593-.64-.593-.25 0-.657.36-.657.594 0 .25.407.609.657.609.234 0 .64-.36.64-.61zm2.344 0c0-.234-.406-.593-.656-.593-.235 0-.657.36-.657.594 0 .25.422.609.657.609.25 0 .656-.36.656-.61zm0 0"/>
        </svg>
    </g>
    <g>
        <svg overflow="visible" x="197.889" y="132.492">
            <path d="M2.984 1.828a.933.933 0 00-.093-.172C2.016 1 1.5-.562 1.5-1.906v-.703c0-1.329.516-2.891 1.39-3.547a.702.702 0 00.094-.188c0-.031-.25-.234-.28-.234a1.01 1.01 0 00-.204.062C1.578-5.828.64-4.03.64-2.609v.703c0 1.437.938 3.234 1.86 3.922.016.015.188.062.203.062.031 0 .281-.203.281-.25zm0 0"/>
        </svg>
        <svg overflow="visible" x="201.144" y="132.492">
            <path d="M4.172-.156v-.469H3.64c-.829 0-.625.063-.625-.219v-4.64c0-.235-.235-.391-.563-.391-.578.578-1.203.531-1.75.531v.625c.406 0 1.11-.047 1.219-.11v3.985c0 .281.203.219-.625.219H.766v.64L2.469-.03l1.703.047zm0 0"/>
        </svg>
        <svg overflow="visible" x="205.906" y="132.492">
            <path d="M6.25-2.25c0-.094-.281-.328-.375-.328H.641c-.094 0-.375.234-.375.328s.28.328.375.328h5.234c.094 0 .375-.234.375-.328zm0 0"/>
        </svg>
        <svg overflow="visible" x="212.417" y="132.492">
            <path d="M5.875-3.344c0-.11-.313-.265-.36-.265-.109 0-.327.187-.374.375a3.796 3.796 0 01-.735 1.406l.375.11c-.015-.126-.031-.688-.047-.766-.125-.829-.968-1.532-1.796-1.532C1.702-4.016.312-2.703.312-1.53c0 .765.766 1.61 1.735 1.61.781 0 1.61-.392 1.828-.563.094.312.734.562.984.562.485 0 1-.562 1-.734 0-.11-.312-.266-.359-.266-.11 0-.328.188-.344.25-.125.313-.172.203-.281.203-.11 0-.047.156-.078-.828.703-.719 1.078-1.953 1.078-2.047zM3.781-1.172c-.828.672-1.39.703-1.703.703-.547 0-.656-.203-.656-.765 0-.25.047-1.047.484-1.625.39-.5.719-.594 1.016-.594.672 0 .656.484.719 1 .046.36.03.953.062 1.344zm0 0"/>
        </svg>
    </g>
    <g>
        <svg overflow="visible" x="218.635" y="129.613">
            <path d="M3.516-.172v-.453h-.5c-.641 0-.438.11-.438-.063v-3.296c0-.188-.219-.36-.5-.36-.484.438-1 .375-1.125.375H.656v.625h.297c.14 0 .531-.015.672-.078v2.735c0 .171.203.062-.422.062H.687v.64C1.235-.03 1.766-.03 2.11-.03c.344 0 .875 0 1.407.047zm0 0"/>
        </svg>
    </g>
    <g>
        <svg overflow="visible" x="218.635" y="134.933">
            <path d="M3.516-.172v-.453h-.5c-.641 0-.438.11-.438-.063v-3.296c0-.188-.219-.36-.5-.36-.484.438-1 .375-1.125.375H.656v.625h.297c.14 0 .531-.015.672-.078v2.735c0 .171.203.062-.422.062H.687v.64C1.235-.03 1.766-.03 2.11-.03c.344 0 .875 0 1.407.047zm0 0"/>
        </svg>
    </g>
    <g>
        <svg overflow="visible" x="223.204" y="132.492">
            <path d="M2.625-1.906v-.703c0-1.422-.953-3.22-1.875-3.907a.88.88 0 00-.188-.062c-.046 0-.296.203-.296.234 0 .032.078.172.093.188C1.234-5.5 1.75-3.938 1.75-2.61v.703C1.75-.563 1.234 1 .36 1.656a.933.933 0 00-.094.172c0 .047.25.25.296.25a.88.88 0 00.188-.062c.922-.688 1.875-2.485 1.875-3.922zm0 0"/>
        </svg>
        <svg overflow="visible" x="226.459" y="132.492">
            <path d="M5.375-.172c.063-.047.063-.39 0-.453L3.75-2.25l1.625-1.625c.063-.063.063-.39 0-.453s-.469-.063-.531 0L3.25-2.734 1.672-4.328c-.078-.063-.469-.063-.531 0-.063.062-.063.39 0 .453L2.766-2.25 1.14-.625c-.063.063-.063.406 0 .453.062.078.453.078.53 0l1.595-1.594L4.844-.172c.062.078.468.078.531 0zm0 0"/>
        </svg>
        <svg overflow="visible" x="232.97" y="132.492">
            <path d="M1.828-.61c0-.234-.406-.593-.656-.593s-.656.36-.656.594c0 .25.406.609.656.609s.656-.36.656-.61zm2.328 0c0-.234-.406-.593-.64-.593-.25 0-.657.36-.657.594 0 .25.407.609.657.609.234 0 .64-.36.64-.61zm2.344 0c0-.234-.406-.593-.656-.593-.235 0-.657.36-.657.594 0 .25.422.609.657.609.25 0 .656-.36.656-.61zm0 0"/>
        </svg>
    </g>
    <g>
        <svg overflow="visible" x="208.553" y="145.045">
            <path d="M11.656-1.875c0-.14-.297-.375-.437-.375a.843.843 0 00-.344.14 5.124 5.124 0 00-.719 1.876 4.41 4.41 0 00.047 1.28l.344-.109-9.5-9.5C1-8.608.813-8.671.734-8.671c-.125 0-.437.25-.437.375 0 .078.078.235.14.266L9.61 1.14c.047.015-.375 0-.796.046-.626.094-1.376.344-1.922.704-.063.046-.172.218-.172.296 0 .126.312.376.437.376a.834.834 0 00.282-.079c.468-.328.875-.468 1.437-.546.672-.079 1.234-.079 1.875.234.031.015.203.047.219.047.094 0 .344-.203.344-.281a.762.762 0 00-.063-.172c-.328-.641-.297-1.25-.219-1.938.078-.547.203-.984.531-1.469.016-.046.094-.171.094-.234zm0 0"/>
        </svg>
    </g>
    <g>
        <svg overflow="visible" x="262.528" y="159.491">
            <path d="M6.297-8.203s-.125-.36-.281-.36c-.188 0-1.313.11-1.516.141-.094 0-.375.203-.375.36 0 .14.313.265.484.265.579 0 .407-.047.407.078l-.047.235-.719 2.828h.406c-.218-.438-.765-.89-1.297-.89-1.406 0-3.078 1.89-3.078 3.64 0 1.125.86 2.031 1.781 2.031.25 0 .97-.078 1.422-.61.032.094.657.61 1.22.61.421 0 .827-.297 1.015-.688l.062-.093c.203-.438.297-1.094.297-1.094l.063-.094c0-.11-.297-.25-.329-.25-.125 0-.343.188-.375.344-.203.781-.218 1.36-.703 1.36-.328 0-.171-.188-.171-.422 0-.282.03-.375.078-.579l1.718-6.906zm-2.188 4.11c0 .062-.015.14-.03.202l-.595 2.344c-.062.203 0 .14-.187.344-.531.656-.875.812-1.203.812-.594 0-.578-.53-.578-1 0-.593.328-1.968.593-2.515.375-.703.782-1.11 1.266-1.11.766 0 .734.844.734.922zm0 0"/>
        </svg>
    </g>
    <g>
        <svg overflow="visible" x="269.031" y="155.151">
            <path d="M4.531-2.828c0-.922-.172-1.688-.562-2.281-.266-.391-.922-.766-1.594-.766C.437-5.875.219-3.437.219-2.828c0 .594.218 3 2.156 3 1.953 0 2.156-2.406 2.156-3zm-1.187-.11c0 .626 0 1.235-.11 1.766-.156.766-.515.781-.859.781-.375 0-.688-.062-.844-.75-.125-.5-.125-1.171-.125-1.796 0-.61 0-1.25.125-1.704.172-.671.5-.687.844-.687.453 0 .688.125.828.61.14.452.14 1.046.14 1.78zm0 0"/>
        </svg>
    </g>
    <g>
        <svg overflow="visible" x="268.745" y="162.787">
            <path d="M4.531-2.828c0-.922-.172-1.688-.562-2.281-.266-.391-.922-.766-1.594-.766C.437-5.875.219-3.437.219-2.828c0 .594.218 3 2.156 3 1.953 0 2.156-2.406 2.156-3zm-1.187-.11c0 .626 0 1.235-.11 1.766-.156.766-.515.781-.859.781-.375 0-.688-.062-.844-.75-.125-.5-.125-1.171-.125-1.796 0-.61 0-1.25.125-1.704.172-.671.5-.687.844-.687.453 0 .688.125.828.61.14.452.14 1.046.14 1.78zm0 0"/>
        </svg>
    </g>
    <g>
        <svg overflow="visible" x="274.291" y="159.491">
            <path d="M4.156 2.719c0-.047-.078-.172-.11-.203-1.234-.922-2-3.22-2-5.141v-1c0-1.906.767-4.203 2-5.14a.457.457 0 00.11-.188c0-.063-.25-.25-.312-.25a1.01 1.01 0 00-.203.062C2.312-8.156 1-5.67 1-3.625v1C1-.578 2.313 1.906 3.64 2.906c.016.016.188.063.204.063.062 0 .312-.203.312-.25zm0 0"/>
        </svg>
        <svg overflow="visible" x="278.942" y="159.491">
            <path d="M8.828-4.281c0-.125-.312-.375-.437-.375H.906c-.125 0-.437.25-.437.375 0 .14.312.375.437.375h7.485c.125 0 .437-.235.437-.375zm0 2.328c0-.14-.312-.375-.437-.375H.906c-.125 0-.437.234-.437.375 0 .125.312.36.437.36h7.485c.125 0 .437-.235.437-.36zm0 0"/>
        </svg>
    </g>
    <g>
        <svg overflow="visible" x="291.554" y="159.491">
            <path d="M5.688-3.953c0-.953-.063-1.922-.47-2.797-.562-1.156-1.734-1.469-2.234-1.469-.718 0-1.796.438-2.28 1.547-.376.828-.438 1.766-.438 2.719 0 .89.109 2.062.593 2.969.516.968 1.532 1.25 2.11 1.25.656 0 1.75-.391 2.281-1.516.375-.828.438-1.766.438-2.703zm-1.391-.14c0 .89 0 1.702-.125 2.468C4-.485 3.516-.265 2.969-.265 2.516-.266 2-.438 1.78-1.579c-.125-.719-.125-1.813-.125-2.516 0-.765 0-1.562.094-2.203.219-1.422.922-1.406 1.219-1.406.406 0 .984.094 1.219 1.266.109.671.109 1.578.109 2.343zm0 0"/>
        </svg>
        <svg overflow="visible" x="297.532" y="159.491">
            <path d="M3.64-2.625v-1c0-2.047-1.328-4.531-2.64-5.516a.774.774 0 00-.203-.062c-.063 0-.313.187-.313.25 0 .031.079.172.094.187 1.25.938 2.016 3.235 2.016 5.141v1c0 1.922-.766 4.219-2.016 5.14-.015.032-.094.157-.094.204 0 .047.25.25.313.25A.774.774 0 001 2.906c1.313-1 2.64-3.484 2.64-5.531zm0 0"/>
        </svg>
    </g>
</svg>
