<svg xmlns="http://www.w3.org/2000/svg" xmlns:xlink="http://www.w3.org/1999/xlink" width="245px" height="40" viewBox="0 0 184 30"><svg overflow="visible" x="-.233" y="18.067"><path d="M10.656-8.063s-.125-.359-.281-.359c-.39 0-.813.031-1.203.031-.406 0-.828-.03-1.219-.03-.078 0-.422.124-.422.358 0 .141.328.266.422.266.672.016.61.14.61.39 0 .048-.032.22-.047.266L7.187-1.828h.391l-2.64-6.234c-.094-.22-.297-.36-.579-.36H2.766c-.25 0-.547.125-.547.36 0 .14.297.265.531.265.063 0 .61-.125.61-.016L1.75-1.405c-.11.484-.11.734-1.078.765-.078 0-.406.157-.406.375C.266-.172.53 0 .625 0 1 0 1.422-.031 1.813-.031c.406 0 .843.031 1.234.031.062 0 .406-.125.406-.375 0-.11-.297-.266-.422-.266-.703-.015-.61-.14-.61-.39 0-.078.017-.14.048-.266l1.469-5.875c-.172-.281-.172-.25-.25-.375L6.733-.359c.094.203.329.359.438.359.125 0 .328-.172.375-.375l1.687-6.672c.11-.469.141-.703 1.094-.75.063 0 .39-.14.39-.36zm0 0"/></svg><svg overflow="visible" x="9.367" y="21.021"><path d="M2.922-5.39c0-.141-.313-.485-.547-.485-.219 0-.672.375-.672.625 0 .14.313.469.547.469.234 0 .672-.39.672-.61zm.219 4.03c0-.109-.313-.265-.344-.265-.11 0-.328.203-.375.297-.188.672-.344.86-.672.86-.172 0 0 .046 0-.141 0-.188.063-.344.14-.532l.266-.671.406-1.063a.794.794 0 00.047-.266c0-.39-.546-.875-1-.875-.828 0-1.421 1.297-1.421 1.438 0 .11.328.281.343.281.125 0 .344-.203.36-.297.218-.719.375-.86.687-.86.14 0 0-.093 0 .126 0 .203-.047.328-.25.844L.797-1.141c-.031.11-.078.22-.078.36 0 .39.547.86 1 .86.843 0 1.422-1.313 1.422-1.438zm0 0"/></svg><svg overflow="visible" x="12.748" y="21.021"><path d="M2.219-.203c0-.531-.422-1.078-.797-1.078-.281 0-.688.375-.688.64 0 .266.391.641.688.641.203 0 .484-.172.484-.172l-.343-.125c0 .469-.032.89-.594 1.422-.047.047-.125.172-.125.219 0 .062.281.265.328.265.125 0 1.047-.828 1.047-1.812zm0 0"/></svg><svg overflow="visible" x="15.585" y="21.021"><path d="M4.172-.156v-.469H3.64c-.829 0-.625.063-.625-.219v-4.64c0-.235-.235-.391-.563-.391-.578.578-1.203.531-1.75.531v.625c.406 0 1.11-.047 1.219-.11v3.985c0 .281.203.219-.625.219H.766v.64L2.469-.03l1.703.047zm0 0"/></svg><svg overflow="visible" x="20.845" y="18.067"><path d="M4.156 2.719c0-.047-.078-.172-.11-.203-1.234-.922-2-3.22-2-5.141v-1c0-1.906.767-4.203 2-5.14a.457.457 0 00.11-.188c0-.063-.25-.25-.312-.25a1.01 1.01 0 00-.203.062C2.312-8.156 1-5.67 1-3.625v1C1-.578 2.313 1.906 3.64 2.906c.016.016.188.063.204.063.062 0 .312-.203.312-.25zm0 0"/></svg><svg overflow="visible" x="25.496" y="18.067"><path d="M4.14-5.156c0-.125-.312-.266-.53-.266H2.78c.39-1.562.453-1.797.453-1.875 0-.203-.328-.453-.53-.453-.032 0-.579.14-.688.563l-.422 1.765H.64c-.25 0-.563.14-.563.36 0 .156.297.28.531.28h.813C.594-1.515.547-1.311.547-1.093c0 .64.656 1.219 1.312 1.219 1.22 0 2.079-1.875 2.079-1.969 0-.11-.282-.25-.329-.25-.109 0-.328.172-.375.297C2.72-.547 2.281-.39 1.875-.39c-.25 0-.172-.03-.172-.421 0-.282.016-.375.063-.579l.859-3.39h.953c.25 0 .563-.125.563-.375zm0 0"/></svg><svg overflow="visible" x="29.811" y="18.067"><path d="M3.64-2.625v-1c0-2.047-1.328-4.531-2.64-5.516a.774.774 0 00-.203-.062c-.063 0-.313.187-.313.25 0 .031.079.172.094.187 1.25.938 2.016 3.235 2.016 5.141v1c0 1.922-.766 4.219-2.016 5.14-.015.032-.094.157-.094.204 0 .047.25.25.313.25A.774.774 0 001 2.906c1.313-1 2.64-3.484 2.64-5.531zm0 0"/></svg><svg overflow="visible" x="37.774" y="18.067"><path d="M8.828-4.281c0-.125-.312-.375-.437-.375H.906c-.125 0-.437.25-.437.375 0 .14.312.375.437.375h7.485c.125 0 .437-.235.437-.375zm0 2.328c0-.14-.312-.375-.437-.375H.906c-.125 0-.437.234-.437.375 0 .125.312.36.437.36h7.485c.125 0 .437-.235.437-.36zm0 0"/></svg><svg overflow="visible" x="50.398" y="18.067"><path d="M7.938 10.969c0-.125-.282-.36-.391-.39-1.453-.454-2.313-1.767-2.313-2.938V.469c0-1.438-1.468-3-2.734-3.594 1.266-.578 2.734-2.14 2.734-3.578v-7.172c0-1.172.86-2.484 2.313-2.938.11-.046.39-.265.39-.39 0-.14-.312-.39-.453-.39a1.55 1.55 0 00-.234.046c-1.688.531-3.531 2.203-3.531 3.672v7.172c0 1.312-.844 2.75-2.313 3.203-.11.031-.39.266-.39.375 0 .125.28.36.39.39C2.875-2.28 3.72-.843 3.72.47V7.64c0 1.468 1.844 3.125 3.531 3.671.047 0 .203.047.234.047.141 0 .454-.25.454-.39zm0 0"/></svg><svg overflow="visible" x="59.371" y="10.745"><path d="M5.203-.125v-.516h-.578c-1.078 0-.922 0-.922-.437v-6.703c0-.282-.187-.438-.578-.438-.766.797-1.672.766-2.266.766v.625c.438 0 1.282-.031 1.563-.172v5.922c0 .437.172.437-.906.437H.937v.672C1.547-.03 2.595-.03 3.079-.03c.469 0 1.516 0 2.125.062zm0 0"/></svg><svg overflow="visible" x="75.312" y="10.745"><path d="M3.031-.14v-.5c-.922 0-.812.093-.812-.376v-4.562l-1.953.156v.625c.921 0 .875-.062.875.516v3.25c0 .547.03.39-.907.39v.657c.5-.047 1.063-.047 1.422-.047.125 0 .813 0 1.375.047zM2.36-7.36c0-.359-.437-.75-.718-.75-.344 0-.75.422-.75.75 0 .313.421.72.734.72.36 0 .734-.438.734-.72zm0 0"/></svg><svg overflow="visible" x="78.564" y="10.745"><path d="M4.25-7.766c0-.453-.594-.953-1.172-.953-.828 0-1.937.813-1.937 2.031v1.235H.203v.64h.938v3.782c0 .547.03.39-.907.39v.657c.5-.047 1.157-.047 1.516-.047.313 0 1.172 0 1.594.062V-.64h-.39c-.876 0-.735.016-.735-.406v-3.766h1.344v-.64H2.187v-1.234c0-1.079.391-1.485.891-1.485.094 0 .156-.015.297.063l.11-.266c-.047.016-.516.266-.516.625 0 .266.36.61.64.61.282 0 .641-.344.641-.626zm0 0"/></svg><svg overflow="visible" x="86.035" y="10.745"><path d="M4.14-5.156c0-.125-.312-.266-.53-.266H2.78c.39-1.562.453-1.797.453-1.875 0-.203-.328-.453-.53-.453-.032 0-.579.14-.688.563l-.422 1.765H.64c-.25 0-.563.14-.563.36 0 .156.297.28.531.28h.813C.594-1.515.547-1.311.547-1.093c0 .64.656 1.219 1.312 1.219 1.22 0 2.079-1.875 2.079-1.969 0-.11-.282-.25-.329-.25-.109 0-.328.172-.375.297C2.72-.547 2.281-.39 1.875-.39c-.25 0-.172-.03-.172-.421 0-.282.016-.375.063-.579l.859-3.39h.953c.25 0 .563-.125.563-.375zm0 0"/></svg><svg overflow="visible" x="93.662" y="10.745"><path d="M7.203.14c0-.124-.297-.374-.422-.374H4.47c-1.594 0-2.703-1.094-2.813-2.516h5.125c.313 0 .313-.734 0-.734H1.656c.11-1.422 1.219-2.532 2.813-2.532H6.78c.125 0 .422-.234.422-.375 0-.125-.297-.359-.422-.359H4.47C2.53-6.75.766-5.062.766-3.125c0 1.938 1.765 3.64 3.703 3.64H6.78c.125 0 .422-.234.422-.374zm0 0"/></svg><svg overflow="visible" x="104.96" y="10.745"><path d="M3.25 2.625c0-.14-.297-.375-.422-.375h-.797V-8.484h.797c.125 0 .422-.235.422-.375 0-.125-.297-.375-.422-.375H1.156V2.984h1.672c.125 0 .422-.234.422-.359zm0 0"/></svg><svg overflow="visible" x="108.355" y="10.745"><path d="M6.266-4.656c0-.36-.47-.89-1-.89-.344 0-1.032.124-1.891 1.093-.406.453-.734.89-.938.969l1.188-4.813-.063.094s-.124-.36-.28-.36c-.282 0-1.157.094-1.47.126-.093.015-.421.156-.421.374 0 .141.312.266.484.266.578 0 .39-.047.39.078l-.03.235L.5-.594c-.047.156-.047.188-.047.266 0 .266.438.453.547.453.156 0 .469-.14.547-.281.062-.11.656-2.406.687-2.563.25.016 1.032.078 1.032.86 0 .093 0 .14-.032.25-.03.156-.062.296-.062.421 0 .704.687 1.313 1.312 1.313.36 0 .813-.219 1.079-.656.296-.531.421-1.219.421-1.219l.063-.094c0-.11-.297-.25-.328-.25-.125 0-.344.188-.375.344C5.109-.875 5.03-.39 4.5-.39c-.219 0-.188 0-.188-.438 0-.203.047-.469.094-.672.047-.203.047-.25.047-.36 0-.78-.937-1.265-1.531-1.343.078-.031.453-.422.734-.703.578-.64 1-1.11 1.578-1.11.079 0-.062-.046.016 0 .234.032.11 0 .203.063.016.016.016.031-.172-.156-.218.015-.531.609-.531.765 0 .188.344.547.672.547.297 0 .844-.406.844-.86zm0 0"/></svg><svg overflow="visible" x="114.763" y="10.745"><path d="M7.016-1.844c0-.11-.297-.25-.329-.25-.125 0-.328.172-.39.344-.234.813-.422 1.36-1.016 1.36-.203 0-.093.015-.093-.266 0-.297.109-.594.218-.844.219-.64.719-1.953.719-2.64 0-.798-.703-1.407-1.563-1.407-1.078 0-1.796.797-2 1.078l.329.094c-.063-.672-.735-1.172-1.282-1.172-.562 0-.921.5-1.14.89C.313-4.327.14-3.624.14-3.577c0 .125.484.219.484.219l-.14.03c.124 0 .328-.14.406-.405.203-.844.25-1.282.671-1.282.25 0 .172.016.172.407 0 .265-.03.39-.187 1.015L.844-.844c-.031.188-.11.469-.11.516 0 .219.375.453.563.453.14 0 .547-.219.656-.547-.078.156.125-.5.203-.797l.266-1.078c.062-.265.14-.531.203-.797l.14-.594c.188-.374.626-1.328 1.766-1.328.532 0 .438.313.438.704 0 .734-.578 2.265-.766 2.78-.11.282-.125.423-.125.548 0 .562.625 1.109 1.188 1.109 1.125 0 1.75-1.875 1.75-1.969zm0 0"/></svg><svg overflow="visible" x="121.936" y="10.745"><path d="M5.797-3.39c0-1.25-1.031-2.157-2.11-2.157-1.593 0-3.406 1.828-3.406 3.531C.281-.844 1.297.125 2.406.125c1.594 0 3.39-1.781 3.39-3.516zM4.53-3.86c0 .47-.187 1.626-.64 2.407-.407.687-.922 1.062-1.47 1.062-.515 0-.858-.25-.858-1.171 0-.594.25-1.782.64-2.391.594-.922 1.14-1.063 1.485-1.063.687 0 .843.438.843 1.157zm0 0"/></svg><svg overflow="visible" x="127.878" y="10.745"><path d="M4.14-5.156c0-.125-.312-.266-.53-.266H2.78c.39-1.562.453-1.797.453-1.875 0-.203-.328-.453-.53-.453-.032 0-.579.14-.688.563l-.422 1.765H.64c-.25 0-.563.14-.563.36 0 .156.297.28.531.28h.813C.594-1.515.547-1.311.547-1.093c0 .64.656 1.219 1.312 1.219 1.22 0 2.079-1.875 2.079-1.969 0-.11-.282-.25-.329-.25-.109 0-.328.172-.375.297C2.72-.547 2.281-.39 1.875-.39c-.25 0-.172-.03-.172-.421 0-.282.016-.375.063-.579l.859-3.39h.953c.25 0 .563-.125.563-.375zm0 0"/></svg><svg overflow="visible" x="132.202" y="13.698"><path d="M2.922-5.39c0-.141-.313-.485-.547-.485-.219 0-.672.375-.672.625 0 .14.313.469.547.469.234 0 .672-.39.672-.61zm.219 4.03c0-.109-.313-.265-.344-.265-.11 0-.328.203-.375.297-.188.672-.344.86-.672.86-.172 0 0 .046 0-.141 0-.188.063-.344.14-.532l.266-.671.406-1.063a.794.794 0 00.047-.266c0-.39-.546-.875-1-.875-.828 0-1.421 1.297-1.421 1.438 0 .11.328.281.343.281.125 0 .344-.203.36-.297.218-.719.375-.86.687-.86.14 0 0-.093 0 .126 0 .203-.047.328-.25.844L.797-1.141c-.031.11-.078.22-.078.36 0 .39.547.86 1 .86.843 0 1.422-1.313 1.422-1.438zm0 0"/></svg><svg overflow="visible" x="136.081" y="10.745"><path d="M2.625-.14c0-.797-.5-1.391-.969-1.391-.39 0-.828.437-.828.765 0 .329.438.766.828.766.157 0 .438-.078.563-.188l.047-.046s-.313-.078-.313.093c0 .875-.344 1.5-.75 1.891-.125.14-.187.266-.187.297 0 .078.265.265.328.265.125 0 1.281-1.062 1.281-2.453zm0 0"/></svg><svg overflow="visible" x="141.389" y="10.745"><path d="M6.266-4.656c0-.36-.47-.89-1-.89-.344 0-1.032.124-1.891 1.093-.406.453-.734.89-.938.969l1.188-4.813-.063.094s-.124-.36-.28-.36c-.282 0-1.157.094-1.47.126-.093.015-.421.156-.421.374 0 .141.312.266.484.266.578 0 .39-.047.39.078l-.03.235L.5-.594c-.047.156-.047.188-.047.266 0 .266.438.453.547.453.156 0 .469-.14.547-.281.062-.11.656-2.406.687-2.563.25.016 1.032.078 1.032.86 0 .093 0 .14-.032.25-.03.156-.062.296-.062.421 0 .704.687 1.313 1.312 1.313.36 0 .813-.219 1.079-.656.296-.531.421-1.219.421-1.219l.063-.094c0-.11-.297-.25-.328-.25-.125 0-.344.188-.375.344C5.109-.875 5.03-.39 4.5-.39c-.219 0-.188 0-.188-.438 0-.203.047-.469.094-.672.047-.203.047-.25.047-.36 0-.78-.937-1.265-1.531-1.343.078-.031.453-.422.734-.703.578-.64 1-1.11 1.578-1.11.079 0-.062-.046.016 0 .234.032.11 0 .203.063.016.016.016.031-.172-.156-.218.015-.531.609-.531.765 0 .188.344.547.672.547.297 0 .844-.406.844-.86zm0 0"/></svg><g><svg overflow="visible" x="147.797" y="10.745"><path d="M7.016-1.844c0-.11-.297-.25-.329-.25-.125 0-.328.172-.39.344-.234.813-.422 1.36-1.016 1.36-.203 0-.093.015-.093-.266 0-.297.109-.594.218-.844.219-.64.719-1.953.719-2.64 0-.798-.703-1.407-1.563-1.407-1.078 0-1.796.797-2 1.078l.329.094c-.063-.672-.735-1.172-1.282-1.172-.562 0-.921.5-1.14.89C.313-4.327.14-3.624.14-3.577c0 .125.484.219.484.219l-.14.03c.124 0 .328-.14.406-.405.203-.844.25-1.282.671-1.282.25 0 .172.016.172.407 0 .265-.03.39-.187 1.015L.844-.844c-.031.188-.11.469-.11.516 0 .219.375.453.563.453.14 0 .547-.219.656-.547-.078.156.125-.5.203-.797l.266-1.078c.062-.265.14-.531.203-.797l.14-.594c.188-.374.626-1.328 1.766-1.328.532 0 .438.313.438.704 0 .734-.578 2.265-.766 2.78-.11.282-.125.423-.125.548 0 .562.625 1.109 1.188 1.109 1.125 0 1.75-1.875 1.75-1.969zm0 0"/></svg><svg overflow="visible" x="154.97" y="10.745"><path d="M5.797-3.39c0-1.25-1.031-2.157-2.11-2.157-1.593 0-3.406 1.828-3.406 3.531C.281-.844 1.297.125 2.406.125c1.594 0 3.39-1.781 3.39-3.516zM4.53-3.86c0 .47-.187 1.626-.64 2.407-.407.687-.922 1.062-1.47 1.062-.515 0-.858-.25-.858-1.171 0-.594.25-1.782.64-2.391.594-.922 1.14-1.063 1.485-1.063.687 0 .843.438.843 1.157zm0 0"/></svg></g><g><svg overflow="visible" x="160.912" y="10.745"><path d="M4.14-5.156c0-.125-.312-.266-.53-.266H2.78c.39-1.562.453-1.797.453-1.875 0-.203-.328-.453-.53-.453-.032 0-.579.14-.688.563l-.422 1.765H.64c-.25 0-.563.14-.563.36 0 .156.297.28.531.28h.813C.594-1.515.547-1.311.547-1.093c0 .64.656 1.219 1.312 1.219 1.22 0 2.079-1.875 2.079-1.969 0-.11-.282-.25-.329-.25-.109 0-.328.172-.375.297C2.72-.547 2.281-.39 1.875-.39c-.25 0-.172-.03-.172-.421 0-.282.016-.375.063-.579l.859-3.39h.953c.25 0 .563-.125.563-.375zm0 0"/></svg></g><g><svg overflow="visible" x="165.236" y="13.698"><path d="M2.922-5.39c0-.141-.313-.485-.547-.485-.219 0-.672.375-.672.625 0 .14.313.469.547.469.234 0 .672-.39.672-.61zm.219 4.03c0-.109-.313-.265-.344-.265-.11 0-.328.203-.375.297-.188.672-.344.86-.672.86-.172 0 0 .046 0-.141 0-.188.063-.344.14-.532l.266-.671.406-1.063a.794.794 0 00.047-.266c0-.39-.546-.875-1-.875-.828 0-1.421 1.297-1.421 1.438 0 .11.328.281.343.281.125 0 .344-.203.36-.297.218-.719.375-.86.687-.86.14 0 0-.093 0 .126 0 .203-.047.328-.25.844L.797-1.141c-.031.11-.078.22-.078.36 0 .39.547.86 1 .86.843 0 1.422-1.313 1.422-1.438zm0 0"/></svg><svg overflow="visible" x="168.617" y="13.698"><path d="M6.25-2.25c0-.094-.281-.328-.375-.328H3.641v-2.297c0-.094-.297-.328-.375-.328-.094 0-.391.234-.391.328v2.297H.641c-.094 0-.375.234-.375.328s.28.328.375.328h2.234V.375c0 .078.297.313.39.313.079 0 .376-.235.376-.313v-2.297h2.234c.094 0 .375-.234.375-.328zm0 0"/></svg><svg overflow="visible" x="175.128" y="13.698"><path d="M4.172-.156v-.469H3.64c-.829 0-.625.063-.625-.219v-4.64c0-.235-.235-.391-.563-.391-.578.578-1.203.531-1.75.531v.625c.406 0 1.11-.047 1.219-.11v3.985c0 .281.203.219-.625.219H.766v.64L2.469-.03l1.703.047zm0 0"/></svg></g><g><svg overflow="visible" x="180.387" y="10.745"><path d="M3.64-2.625v-1c0-2.047-1.328-4.531-2.64-5.516a.774.774 0 00-.203-.062c-.063 0-.313.187-.313.25 0 .031.079.172.094.187 1.25.938 2.016 3.235 2.016 5.141v1c0 1.922-.766 4.219-2.016 5.14-.015.032-.094.157-.094.204 0 .047.25.25.313.25A.774.774 0 001 2.906c1.313-1 2.64-3.484 2.64-5.531zm0 0"/></svg></g><g><svg overflow="visible" x="59.371" y="25.19"><path d="M5.688-3.953c0-.953-.063-1.922-.47-2.797-.562-1.156-1.734-1.469-2.234-1.469-.718 0-1.796.438-2.28 1.547-.376.828-.438 1.766-.438 2.719 0 .89.109 2.062.593 2.969.516.968 1.532 1.25 2.11 1.25.656 0 1.75-.391 2.281-1.516.375-.828.438-1.766.438-2.703zm-1.391-.14c0 .89 0 1.702-.125 2.468C4-.485 3.516-.265 2.969-.265 2.516-.266 2-.438 1.78-1.579c-.125-.719-.125-1.813-.125-2.516 0-.765 0-1.562.094-2.203.219-1.422.922-1.406 1.219-1.406.406 0 .984.094 1.219 1.266.109.671.109 1.578.109 2.343zm0 0"/></svg></g><g><svg overflow="visible" x="106.079" y="25.19"><path d="M5.64-2.703c0-1.547-1.327-2.922-2.718-2.922C1.5-5.625.187-4.203.187-2.703c0 1.531 1.36 2.828 2.735 2.828 1.406 0 2.719-1.313 2.719-2.828zm-1.234-.11c0 .422.047 1.063-.265 1.626-.329.562-.766.75-1.22.75-.437 0-.858-.141-1.218-.735-.312-.531-.281-1.14-.281-1.64 0-.454-.047-1.079.328-1.61.328-.516.75-.672 1.172-.672.453 0 .844.188 1.172.64.36.563.312 1.204.312 1.641zm0 0"/></svg><svg overflow="visible" x="111.937" y="25.19"><path d="M4.047-1.625v-.844h-.578v.813c0 .875-.188 1.218-.64 1.218-.813 0-.673-.968-.673-1.171v-3.204h1.688v-.64H2.156v-2.203h-.578C1.562-6.375 1.297-5.375.047-5.328v.516h1.016v3.187c0 1.328 1.046 1.75 1.687 1.75.75 0 1.297-.89 1.297-1.75zm0 0"/></svg><svg overflow="visible" x="116.492" y="25.19"><path d="M6.39-.14v-.5c-.765 0-.906.156-.921-.204v-2.203c0-1.11-.047-1.562-.313-1.937-.343-.47-1.015-.579-1.422-.579-1.03 0-1.671.922-1.78 1.141h.25v-4.187l-1.985.171v.626c.969 0 .906-.063.906.515v6.266c0 .547.031.39-.906.39v.672C.688-.03 1.344-.03 1.672-.03c.344 0 1 0 1.453.062V-.64c-.906 0-.906.157-.906-.39V-3.25c0-1.25.672-1.781 1.422-1.781.734 0 .734.468.734 1.187v2.813c0 .547.031.39-.906.39v.672C3.938-.03 4.594-.03 4.922-.03c.344 0 1 0 1.469.062zm0 0"/></svg><svg overflow="visible" x="122.996" y="25.19"><path d="M5.016-1.563c0-.078-.204-.28-.282-.28-.093 0-.28.218-.312.28-.313 1-.938 1.125-1.453 1.125-.5 0-1.547-.187-1.547-2.25v-.078h3.156c.266 0 .438-.156.438-.375 0-1.203-.797-2.484-2.25-2.484-1.36 0-2.579 1.375-2.579 2.86 0 1.578 1.391 2.89 2.72 2.89 1.421 0 2.109-1.438 2.109-1.688zm-.891-1.734H1.453c.078-1.719.969-1.797 1.313-1.797 1.28 0 1.171 1.547 1.171 1.797zm0 0"/></svg><svg overflow="visible" x="128.196" y="25.19"><path d="M4.375-4.719c0-.36-.484-.843-1-.843-1.016 0-1.516 1.25-1.547 1.312h.266v-1.328l-1.922.156v.625c.969 0 .906-.062.906.531v3.235c0 .547.031.39-.906.39v.657c.5-.047 1.156-.047 1.516-.047.328 0 1.171 0 1.593.062V-.64h-.39c-.875 0-.735.016-.735-.406v-1.875c0-1.172.313-2.11 1.235-2.11.093 0 .125 0 .171.016l-.124-.25a.618.618 0 00-.329.547c0 .344.438.625.625.625.25 0 .641-.312.641-.625zm0 0"/></svg><svg overflow="visible" x="132.751" y="25.19"><path d="M8.375-4.953v-.516c-.453.047-.672.047-1.031.047l-1.188-.031v.64c.703.032.688.204.688.438l.265.11s-.265-.016-.312.109l-1.11 3.125h.329L4.812-4.406c-.062-.14-.062-.172-.062-.203 0-.344.297-.204.703-.204v-.64c-.5.031-.984.031-1.328.031l-1.25-.031v.64c.625 0 .656 0 .797.157.062.062.156.36.234.593L2.891-1.14h.328L2.063-4.406c-.047-.14-.047-.172-.047-.219 0-.328.296-.188.687-.188v-.656c-.453.047-1.047.047-1.375.047L.047-5.453v.64c.781 0 .734-.093.86.297L2.421-.234c.047.125.25.359.375.359.11 0 .328-.188.375-.375l1.203-3.406h-.328L5.25-.25c.063.188.281.375.39.375.126 0 .329-.234.376-.36L7.39-4.155c.265-.75.625-.64.984-.657zm0 0"/></svg><svg overflow="visible" x="141.203" y="25.19"><path d="M3.031-.14v-.5c-.922 0-.812.093-.812-.376v-4.562l-1.953.156v.625c.921 0 .875-.062.875.516v3.25c0 .547.03.39-.907.39v.657c.5-.047 1.063-.047 1.422-.047.125 0 .813 0 1.375.047zM2.36-7.36c0-.359-.437-.75-.718-.75-.344 0-.75.422-.75.75 0 .313.421.72.734.72.36 0 .734-.438.734-.72zm0 0"/></svg><svg overflow="visible" x="144.455" y="25.19"><path d="M4.36-1.656c0-.657-.438-1.14-.548-1.25-.437-.375-.859-.485-1.656-.625-.344-.078-1.062-.094-1.062-.813 0-.36.093-.765 1.172-.765 1.296 0 1.203.968 1.218 1.328.016.094.266.25.313.25.125 0 .281-.203.281-.422v-1.25c0-.219-.156-.422-.281-.422-.094 0-.438.313-.438.313-.234-.204-.703-.313-1.093-.313-1.438 0-2.032.938-2.032 1.594 0 .14.047.656.5 1.078.375.328.907.453 1.454.562.656.125.687.125.984.375.219.172.328.329.328.672 0 .5-.125.922-1.188.922-.78 0-1.203-.297-1.468-1.484-.047-.219-.11-.14-.11-.14v-.22C.72-2.312.563-2.359.531-2.359c-.14 0-.297.218-.297.437v1.625c0 .219.157.422.282.422.062 0 .171-.047.375-.297.062-.094.062-.11.125-.172.343.422 1.109.469 1.312.469 1.25 0 2.031-.844 2.031-1.781zm0 0"/></svg><svg overflow="visible" x="149.07" y="25.19"><path d="M5.016-1.563c0-.078-.204-.28-.282-.28-.093 0-.28.218-.312.28-.313 1-.938 1.125-1.453 1.125-.5 0-1.547-.187-1.547-2.25v-.078h3.156c.266 0 .438-.156.438-.375 0-1.203-.797-2.484-2.25-2.484-1.36 0-2.579 1.375-2.579 2.86 0 1.578 1.391 2.89 2.72 2.89 1.421 0 2.109-1.438 2.109-1.688zm-.891-1.734H1.453c.078-1.719.969-1.797 1.313-1.797 1.28 0 1.171 1.547 1.171 1.797zm0 0"/></svg></g></svg>