<svg xmlns="http://www.w3.org/2000/svg" xmlns:xlink="http://www.w3.org/1999/xlink" width="240" height="40" viewBox="0 0 180 30"><svg overflow="visible" x=".248" y="18.123"><path d="M9.61-8.531c-.438.015-.876.031-1.313.031-.422 0-.844-.016-1.375-.047l-.11.61.735.03c.312 0 .281-.046.281.157 0 .078-.031.39-.062.547L6.812-1.36l.235-.094L2.89-8.547c-.375.031-.704.047-1.032.047-.312 0-.64-.016-1.078-.047l-.11.61.579.03c.203 0 .36.048.5.157.172.14.313.281.313.375 0 .078-.032.281-.047.36L.953-1.345c-.14.735-.062.703-.5.75l-.484.047-.11.594L1.344 0c.453 0 .89.016 1.422.047l.109-.594-.656-.047c-.469-.047-.453 0-.453-.39 0-.11.015-.235.046-.36l.954-5.547-.25.094L6.594.125h.781l1.14-6.734c.235-1.344.157-1.282.594-1.297l.547-.032.11-.609zm0 0"/></svg><svg overflow="visible" x="9.549" y="20.897"><path d="M2.516-.984l-.157-.25-.406.25c-.297.171-.375.218-.469.218-.078 0 .016.063.016-.046 0-.079.016-.157.063-.344l.75-2.688c.046-.156.062-.234.062-.328 0-.14-.234-.36-.39-.36-.22 0-.688.22-1.407.688l-.344.235.172.421.5-.28c.266-.173.266-.173.344-.173.11 0 0-.062 0 .047 0 .078-.031.266-.063.39l-.64 2.126c-.094.281-.125.5-.125.687 0 .204.266.47.437.47.266 0 .72-.235 1.735-.923zm.28-4.72c0-.202-.28-.484-.483-.484-.297 0-.735.422-.735.72 0 .218.313.5.547.5.313 0 .672-.391.672-.735zm0 0"/></svg><svg overflow="visible" x="12.451" y="20.897"><path d="M2.297-1.188l-.203-.187-1.125.328C.89-.28.688.187.047 1.172l.297.219.531-.235C1.656.234 2.063-.422 2.359-1.14zm0 0"/></svg><svg overflow="visible" x="15.034" y="20.897"><path d="M4.266-.11V-.5l-.657-.031c-.515-.031-.468.015-.468-.453v-5.329l-.282-.093c-.625.297-1.312.562-2.375.906l.11.594h.234l1.25-.516.031-.016c.047 0-.078-.046-.078.172v4.282c0 .468.047.421-.469.453L.86-.5v.531L2.594 0l1.672.031zm0 0"/></svg><svg overflow="visible" x="20.531" y="18.123"><path d="M4.203-7.828a.735.735 0 01-.187-.14c-.063-.063-.11-.126-.22-.329-1.593 1.61-2.5 3.266-2.5 4.781v.797c0 1.516.907 3.172 2.5 4.781.11-.203.157-.265.22-.328.062-.062.125-.109.312-.203C2.875.063 2.281-1.344 2.281-2.719v-.797c0-1.39.594-2.78 2.047-4.25zm0 0"/></svg><svg overflow="visible" x="25.6" y="18.123"><path d="M3.703-5.516c-.453.047-.86.063-1.156.063.172-.984.297-1.578.531-2.25l-.25-.328a7.16 7.16 0 01-1.094.531l-.296 2.031c-.391.203-.704.328-1.063.407l-.047.406h1l-.64 3.25C.625-1.11.53-.813.53-.5c0 .297.266.61.5.61.422 0 .922-.282 1.86-1.032.218-.172.14-.125.437-.36l-.25-.437-.672.469c-.36.25-.484.313-.625.313-.093 0-.031.046-.031-.11 0-.297.156-1.234.516-3l.14-.61h1.266l.203-.89zm0 0"/></svg><svg overflow="visible" x="29.629" y="18.123"><path d="M3.766-2.719v-.797c0-1.515-.907-3.171-2.516-4.78-.11.202-.156.265-.203.327-.063.063-.125.11-.313.203 1.438 1.47 2.032 2.86 2.032 4.25v.797c0 1.375-.594 2.781-2.032 4.25.188.094.25.14.313.203.047.063.094.125.203.329C2.86.452 3.766-1.204 3.766-2.72zm0 0"/></svg><svg overflow="visible" x="38.021" y="18.123"><path d="M8.266-4.078a1.419 1.419 0 01-.047-.36c0-.109.015-.234.062-.484h-7.5c.063.25.063.375.063.484 0 .125 0 .235-.063.5h7.5zm0 2.625a1.332 1.332 0 01-.047-.36c0-.109.015-.234.062-.484h-7.5c.063.25.063.375.063.485 0 .125 0 .25-.063.5h7.5zm0 0"/></svg><svg overflow="visible" x="50.431" y="18.123"><path d="M5.89 10.797c-1.374-.375-1.796-1.485-1.796-3.203V.437c0-1.921-.766-3.218-1.782-3.687v.266c1.016-.47 1.782-1.766 1.782-3.704v-7.14c0-1.719.422-2.828 1.984-3.25-.125-.235-.125-.235-.156-.297-.016-.094-.016-.172-.016-.406-1.812.468-3.031 1.843-3.031 3.953v7.14c0 2.079-.36 3.204-1.922 3.204.078.203.094.28.094.359 0 .094-.016.172-.094.375 1.563 0 1.922 1.125 1.922 3.188v7.156c0 2.093 1.219 3.468 3.031 3.968 0-.25 0-.343.016-.421.031-.079.031-.063.156-.297zm0 0"/></svg><svg overflow="visible" x="57.479" y="10.8"><path d="M5.125-.094v-.484l-.75-.047c-.656-.031-.64-.031-.64-.656v-7.172l-.313-.125c-.875.469-1.61.781-2.86 1.219l.125.718h.235l1.547-.687.031-.016c.063 0-.047-.015-.047.266v5.797c0 .625.016.625-.64.656L1-.578v.625L3.125 0l2 .047zm0 0"/></svg><svg overflow="visible" x="73.42" y="10.8"><path d="M.25.031C.75.016 1.25 0 1.75 0s.984.016 1.625.047v-.625l-.688-.047c-.406-.016-.312.031-.312-.719v-4.422l-.234-.109a7.46 7.46 0 01-2.016.516v.578h.594c.469 0 .375-.047.375.734v2.703c0 .75.11.703-.297.719l-.688.047v.625zM1-7.203c0 .36.39.719.75.719s.719-.36.719-.72c0-.343-.36-.734-.719-.734-.36 0-.75.375-.75.735zm0 0"/></svg><svg overflow="visible" x="76.851" y="10.8"><path d="M.281.031C.781.016 1.266 0 1.766 0c.5 0 1 .016 1.625.047v-.625l-.672-.047c-.406-.016-.313.031-.313-.719v-3.265H3.86L4-5.516c-.688.047-1.203.063-1.594.063v-.875c0-1.375.016-1.578.703-1.578.329 0 .422.047.782.36l.312-.157v-1.078c-.375-.14-.516-.188-.672-.188-.39 0-.906.25-1.172.547l-.703.781c-.343.391-.531 1.032-.531 1.813v.437l-.828.375v.47l.828-.048v3.25c0 .75.11.703-.297.719l-.703.047v.625zm0 0"/></svg><svg overflow="visible" x="83.821" y="10.8"><path d="M3.703-5.516c-.453.047-.86.063-1.156.063.172-.984.297-1.578.531-2.25l-.25-.328a7.16 7.16 0 01-1.094.531l-.296 2.031c-.391.203-.704.328-1.063.407l-.047.406h1l-.64 3.25C.625-1.11.53-.813.53-.5c0 .297.266.61.5.61.422 0 .922-.282 1.86-1.032.218-.172.14-.125.437-.36l-.25-.437-.672.469c-.36.25-.484.313-.625.313-.093 0-.031.046-.031-.11 0-.297.156-1.234.516-3l.14-.61h1.266l.203-.89zm0 0"/></svg><svg overflow="visible" x="91.173" y="10.8"><path d="M8.469.469c-.016-.125-.031-.235-.031-.36s.015-.234.062-.484H4.547c-1.75 0-2.61-.75-2.719-2.25H8.5a2.634 2.634 0 01-.063-.5c0-.11.016-.234.063-.484H1.828c.11-1.5.969-2.25 2.719-2.25H8.5a2.657 2.657 0 01-.063-.485c0-.125.016-.25.063-.5H4.547c-2.328 0-3.734 1.39-3.734 3.719C.813-.781 2.218.594 4.546.594H8.5zm0 0"/></svg><svg overflow="visible" x="103.798" y="10.8"><path d="M3.938 1.297H2.28v-8.828h1.844c-.078-.203-.078-.282-.078-.375 0-.078 0-.157.078-.36H1.297V2.031h2.828c-.078-.203-.078-.281-.078-.375 0-.078 0-.156.078-.36zm0 0"/></svg><svg overflow="visible" x="108.7" y="10.8"><path d="M5.36-5.922a2.204 2.204 0 00-.563-.11c-.797 0-1.89.97-3.39 3.063l.25.094 1.28-5.938-.265-.234c-.75.375-1.063.438-2.047.531l-.094.5h.735c.28 0 .265-.046.265.157 0 .109-.015.203-.031.296L.937-4.358c-.156.89-.359 1.718-1 4.25l.204.234.968-.25.297-1.578c.11-.578.36-1.016.61-1.281C2.766-.844 3.28.109 3.578.109c.156 0 .547-.187 1.078-.562l.61-.438-.204-.453-.671.375c-.172.094-.141.078-.25.078-.11 0-.094-.03-.204-.234-.421-.766-.656-1.313-1.109-2.734l.125-.125c.735-.72 1.188-.985 1.781-.985.094 0 .22.016.516.094l.266-1zm0 0"/></svg><svg overflow="visible" x="114.402" y="10.8"><path d="M6.234-1.25l-.171-.297-.454.297c-.343.219-.5.313-.625.313-.078 0-.03.03-.03-.11 0-.047.015-.187.03-.234l.782-3.297c.093-.344.14-.688.14-.89 0-.266-.265-.563-.5-.563-.5 0-1.437.5-2.14 1.156-.454.422-.797.828-1.407 1.703l.235.094.453-1.938c.047-.203.078-.343.078-.484 0-.25-.234-.531-.406-.531-.266 0-.828.312-1.703.922l-.391.296.172.485.547-.36c.437-.28.39-.265.469-.265.14 0 .078 0 .078.172 0 .61-.5 2.922-.985 4.656l.172.25c.36-.094.625-.172 1.016-.234.234-1.625.468-2.313 1-3.125.656-1.016 1.453-1.72 1.984-1.72.125 0 .063-.015.063.157 0 .219-.032.469-.141.86l-.61 2.53c-.109.438-.156.72-.156.907 0 .297.266.61.5.61.313 0 .829-.282 2.079-1.22zm0 0"/></svg><svg overflow="visible" x="121.049" y="10.8"><path d="M5.047-4.094c0-1.125-.734-1.937-1.719-1.937-.515 0-1.187.25-1.719.625-.968.703-1.546 2-1.546 3.453C.063-.687.734.125 1.734.125c.657 0 1.47-.344 2-.844.75-.703 1.313-2.156 1.313-3.375zm-1.188.203C3.86-2.75 3.531-1.578 3-.937c-.219.25-.422.359-.781.359-.703 0-.969-.406-.969-1.36 0-1.343.422-2.718 1.016-3.203.156-.125.328-.171.609-.171.734 0 .984.406.984 1.421zm0 0"/></svg><svg overflow="visible" x="126.358" y="10.8"><path d="M3.703-5.516c-.453.047-.86.063-1.156.063.172-.984.297-1.578.531-2.25l-.25-.328a7.16 7.16 0 01-1.094.531l-.296 2.031c-.391.203-.704.328-1.063.407l-.047.406h1l-.64 3.25C.625-1.11.53-.813.53-.5c0 .297.266.61.5.61.422 0 .922-.282 1.86-1.032.218-.172.14-.125.437-.36l-.25-.437-.672.469c-.36.25-.484.313-.625.313-.093 0-.031.046-.031-.11 0-.297.156-1.234.516-3l.14-.61h1.266l.203-.89zm0 0"/></svg><svg overflow="visible" x="130.345" y="13.574"><path d="M2.516-.984l-.157-.25-.406.25c-.297.171-.375.218-.469.218-.078 0 .016.063.016-.046 0-.079.016-.157.063-.344l.75-2.688c.046-.156.062-.234.062-.328 0-.14-.234-.36-.39-.36-.22 0-.688.22-1.407.688l-.344.235.172.421.5-.28c.266-.173.266-.173.344-.173.11 0 0-.062 0 .047 0 .078-.031.266-.063.39l-.64 2.126c-.094.281-.125.5-.125.687 0 .204.266.47.437.47.266 0 .72-.235 1.735-.923zm.28-4.72c0-.202-.28-.484-.483-.484-.297 0-.735.422-.735.72 0 .218.313.5.547.5.313 0 .672-.391.672-.735zm0 0"/></svg><svg overflow="visible" x="133.745" y="10.8"><path d="M2.703-1.531L2.47-1.75c-.36.125-.563.203-1.328.406C1.047-.328.78.344.016 1.625l.312.25.61-.281C1.905.328 2.405-.516 2.75-1.47zm0 0"/></svg><svg overflow="visible" x="138.718" y="10.8"><path d="M5.36-5.922a2.204 2.204 0 00-.563-.11c-.797 0-1.89.97-3.39 3.063l.25.094 1.28-5.938-.265-.234c-.75.375-1.063.438-2.047.531l-.094.5h.735c.28 0 .265-.046.265.157 0 .109-.015.203-.031.296L.937-4.358c-.156.89-.359 1.718-1 4.25l.204.234.968-.25.297-1.578c.11-.578.36-1.016.61-1.281C2.766-.844 3.28.109 3.578.109c.156 0 .547-.187 1.078-.562l.61-.438-.204-.453-.671.375c-.172.094-.141.078-.25.078-.11 0-.094-.03-.204-.234-.421-.766-.656-1.313-1.109-2.734l.125-.125c.735-.72 1.188-.985 1.781-.985.094 0 .22.016.516.094l.266-1zm0 0"/></svg><svg overflow="visible" x="144.421" y="10.8"><path d="M6.234-1.25l-.171-.297-.454.297c-.343.219-.5.313-.625.313-.078 0-.03.03-.03-.11 0-.047.015-.187.03-.234l.782-3.297c.093-.344.14-.688.14-.89 0-.266-.265-.563-.5-.563-.5 0-1.437.5-2.14 1.156-.454.422-.797.828-1.407 1.703l.235.094.453-1.938c.047-.203.078-.343.078-.484 0-.25-.234-.531-.406-.531-.266 0-.828.312-1.703.922l-.391.296.172.485.547-.36c.437-.28.39-.265.469-.265.14 0 .078 0 .078.172 0 .61-.5 2.922-.985 4.656l.172.25c.36-.094.625-.172 1.016-.234.234-1.625.468-2.313 1-3.125.656-1.016 1.453-1.72 1.984-1.72.125 0 .063-.015.063.157 0 .219-.032.469-.141.86l-.61 2.53c-.109.438-.156.72-.156.907 0 .297.266.61.5.61.313 0 .829-.282 2.079-1.22zm0 0"/></svg><svg overflow="visible" x="151.068" y="10.8"><path d="M5.047-4.094c0-1.125-.734-1.937-1.719-1.937-.515 0-1.187.25-1.719.625-.968.703-1.546 2-1.546 3.453C.063-.687.734.125 1.734.125c.657 0 1.47-.344 2-.844.75-.703 1.313-2.156 1.313-3.375zm-1.188.203C3.86-2.75 3.531-1.578 3-.937c-.219.25-.422.359-.781.359-.703 0-.969-.406-.969-1.36 0-1.343.422-2.718 1.016-3.203.156-.125.328-.171.609-.171.734 0 .984.406.984 1.421zm0 0"/></svg><svg overflow="visible" x="156.376" y="10.8"><path d="M3.703-5.516c-.453.047-.86.063-1.156.063.172-.984.297-1.578.531-2.25l-.25-.328a7.16 7.16 0 01-1.094.531l-.296 2.031c-.391.203-.704.328-1.063.407l-.047.406h1l-.64 3.25C.625-1.11.53-.813.53-.5c0 .297.266.61.5.61.422 0 .922-.282 1.86-1.032.218-.172.14-.125.437-.36l-.25-.437-.672.469c-.36.25-.484.313-.625.313-.093 0-.031.046-.031-.11 0-.297.156-1.234.516-3l.14-.61h1.266l.203-.89zm0 0"/></svg><g><svg overflow="visible" x="160.366" y="13.574"><path d="M2.516-.984l-.157-.25-.406.25c-.297.171-.375.218-.469.218-.078 0 .016.063.016-.046 0-.079.016-.157.063-.344l.75-2.688c.046-.156.062-.234.062-.328 0-.14-.234-.36-.39-.36-.22 0-.688.22-1.407.688l-.344.235.172.421.5-.28c.266-.173.266-.173.344-.173.11 0 0-.062 0 .047 0 .078-.031.266-.063.39l-.64 2.126c-.094.281-.125.5-.125.687 0 .204.266.47.437.47.266 0 .72-.235 1.735-.923zm.28-4.72c0-.202-.28-.484-.483-.484-.297 0-.735.422-.735.72 0 .218.313.5.547.5.313 0 .672-.391.672-.735zm0 0"/></svg></g><g><svg overflow="visible" x="163.259" y="13.574"><path d="M6.156-2.078c-.015-.094-.015-.172-.015-.266 0-.094 0-.172.046-.39H3.781v-2.438c-.25.063-.328.063-.422.063-.093 0-.171 0-.421-.063v2.438H.515c.046.218.062.296.062.39 0 .094-.015.172-.062.39h2.421V.485c.25-.062.329-.062.422-.062.094 0 .172 0 .422.062v-2.437h2.406zm0 0"/></svg><svg overflow="visible" x="169.982" y="13.574"><path d="M4.266-.11V-.5l-.657-.031c-.515-.031-.468.015-.468-.453v-5.329l-.282-.093c-.625.297-1.312.562-2.375.906l.11.594h.234l1.25-.516.031-.016c.047 0-.078-.046-.078.172v4.282c0 .468.047.421-.469.453L.86-.5v.531L2.594 0l1.672.031zm0 0"/></svg></g><g><svg overflow="visible" x="175.488" y="10.8"><path d="M3.766-2.719v-.797c0-1.515-.907-3.171-2.516-4.78-.11.202-.156.265-.203.327-.063.063-.125.11-.313.203 1.438 1.47 2.032 2.86 2.032 4.25v.797c0 1.375-.594 2.781-2.032 4.25.188.094.25.14.313.203.047.063.094.125.203.329C2.86.452 3.766-1.204 3.766-2.72zm0 0"/></svg></g><g><svg overflow="visible" x="57.479" y="25.246"><path d="M5.688-4.5c0-2.625-.907-4-2.547-4C1.297-8.5.203-6.89.203-4c0 1.39.281 2.703.703 3.281.422.594 1.203.953 1.938.953 1.812 0 2.844-1.687 2.844-4.734zm-1.282.594C4.406-1.36 4.094-.437 3-.437c-1.156 0-1.516-1.079-1.516-4 0-2.516.313-3.375 1.438-3.375 1.172 0 1.484 1.03 1.484 3.906zm0 0"/></svg></g><g><svg overflow="visible" x="100.854" y="25.246"><path d="M.234-2.719c0 1.672 1.22 2.953 2.75 2.953 1.844 0 3.297-1.406 3.297-3.203 0-1.61-1.312-2.906-2.953-2.906C1.594-5.875.234-4.5.234-2.719zm1.391-.406c0-1.438.438-2.094 1.5-2.094 1.094 0 1.766 1.078 1.766 2.703 0 1.375-.47 2.094-1.438 2.094-1.172 0-1.828-1.016-1.828-2.703zm0 0"/></svg></g><g><svg overflow="visible" x="107.214" y="25.246"><path d="M.266-4.516l.765-.03v3.296c0 .875.532 1.39 1.453 1.39.282 0 .657-.093.735-.171l.64-.719-.28-.39c-.454.25-.517.265-.75.265-.47 0-.517-.11-.517-.688v-3h1.5l.157-.921-1.656.062v-.297c0-.515.03-.937.14-1.75l-.281-.25c-.406.25-.656.375-1.188.532.063.453.063.671.063 1.03v.766l-.922.422v.469zm0 0"/></svg></g><g><svg overflow="visible" x="111.279" y="25.246"><path d="M.078.031C.562.016 1.063 0 1.547 0c.5 0 1 .016 1.625.047v-.625L2.5-.625c-.406-.016-.313.031-.313-.719V-3.89c0-.53.657-.984 1.391-.984.797 0 1.172.469 1.172 1.39V.048A16.1 16.1 0 015.844 0c.343 0 .656.016 1.125.047v-.625l-.625-.047c-.407-.016-.313.047-.313-.719v-2.312c0-1.406-.781-2.219-2.125-2.219-.437 0-.797.125-1.047.344l-.671.578v-3.828l-.22-.188c-.546.235-.937.328-2.03.485v.578H.75c.219 0 .156 0 .156.36v6.202c0 .75.11.703-.297.719l-.687.047v.625zm0 0"/></svg><svg overflow="visible" x="118.237" y="25.246"><path d="M.172-2.75c0 .75.203 1.5.531 1.953.469.625 1.39 1.031 2.281 1.031.454 0 .891-.093 1.375-.312.329-.125.672-.313.72-.39L5.39-1l-.313-.25c-.875.516-1.047.594-1.562.594-.782 0-1.329-.313-1.657-.89-.234-.407-.28-.641-.312-1.204h1.625c.828 0 1.328-.031 2.281-.172.016-.297.031-.406.031-.547 0-1.375-1.015-2.406-2.359-2.406-.438 0-1.063.203-1.547.484C.594-4.828.172-4 .172-2.75zm1.406-.61c0-.562.016-.734.063-.843.39-.813.78-1.016 1.343-1.016.391 0 .594.125.813.453.265.391.344.641.344 1.313l-1.188.031c-.547 0-.86-.015-1.375-.062zm0 0"/></svg><svg overflow="visible" x="123.963" y="25.246"><path d="M.25.031C.734.016 1.234 0 1.719 0c.578 0 1.14.016 1.843.047v-.625l-.75-.047c-.546-.031-.437.063-.437-.719v-2.062c0-.719.344-1.188.938-1.188.359 0 .5.14.718.547h.453l.125-1.625a1.534 1.534 0 00-.703-.203c-.36 0-.844.234-1.094.531l-.671.797.234.094v-1.313l-.234-.109a7.46 7.46 0 01-2.016.516v.578h.594c.469 0 .375-.047.375.734v2.703c0 .75.11.703-.297.719l-.688.047v.625zm0 0"/></svg></g><g><svg overflow="visible" x="128.925" y="25.246"><path d="M.078-5.156l.328.031c.328.016.344.094.64 1.063L2.313.077h.735L4.28-2.797c.219-.5.578-1.25.578-1.25l-.234-.094L6.313.08h.703L8.719-4.22c.328-.843.36-.89.625-.906l.453-.031v-.61c-.531.047-.922.047-1.313.047-.39 0-.78 0-1.312-.047v.61l.547.031c.484.016.406.188.234.672L7.36-2.781l-.562 1.484h.266L5.688-4.766a7.702 7.702 0 01-.375-1.109h-.454l-1.968 4.5h.28L2.157-4.672c-.094-.36-.172-.437.281-.453l.61-.031v-.61c-.61.047-1.078.047-1.547.047-.484 0-.953 0-1.578-.047v.61zm0 0"/></svg><svg overflow="visible" x="138.895" y="25.246"><path d="M.25.031C.75.016 1.25 0 1.75 0s.984.016 1.625.047v-.625l-.688-.047c-.406-.016-.312.031-.312-.719v-4.422l-.234-.109a7.46 7.46 0 01-2.016.516v.578h.594c.469 0 .375-.047.375.734v2.703c0 .75.11.703-.297.719l-.688.047v.625zM1-7.203c0 .36.39.719.75.719s.719-.36.719-.72c0-.343-.36-.734-.719-.734-.36 0-.75.375-.75.735zm0 0"/></svg><svg overflow="visible" x="142.327" y="25.246"><path d="M.36-.047C.983.156 1.452.234 2 .234c1.563 0 2.813-.968 2.813-2.14 0-.36-.141-.735-.375-.969-.313-.313-.797-.484-1.86-.688-.969-.187-1.172-.296-1.172-.843 0-.61.297-.813 1.016-.813.812 0 1.265.297 1.265.86v.406h.61c.016-.828.031-1.11.078-1.563-.781-.265-1.203-.359-1.703-.359C1.297-5.875.297-5.078.297-4c0 .563.406 1.11.953 1.36.328.14.969.328 1.781.515.531.11.61.234.61.688 0 .656-.454.968-1.297.968-.875 0-1.36-.281-1.36-.875v-.625h-.64c0 .953-.031 1.313-.14 1.875zm0 0"/></svg><svg overflow="visible" x="147.396" y="25.246"><path d="M.172-2.75c0 .75.203 1.5.531 1.953.469.625 1.39 1.031 2.281 1.031.454 0 .891-.093 1.375-.312.329-.125.672-.313.72-.39L5.39-1l-.313-.25c-.875.516-1.047.594-1.562.594-.782 0-1.329-.313-1.657-.89-.234-.407-.28-.641-.312-1.204h1.625c.828 0 1.328-.031 2.281-.172.016-.297.031-.406.031-.547 0-1.375-1.015-2.406-2.359-2.406-.438 0-1.063.203-1.547.484C.594-4.828.172-4 .172-2.75zm1.406-.61c0-.562.016-.734.063-.843.39-.813.78-1.016 1.343-1.016.391 0 .594.125.813.453.265.391.344.641.344 1.313l-1.188.031c-.547 0-.86-.015-1.375-.062zm0 0"/></svg></g></svg>