<svg xmlns="http://www.w3.org/2000/svg" xmlns:xlink="http://www.w3.org/1999/xlink" width="211px" height="47px" viewBox="0 0 158 35"><svg overflow="visible" x="-.694" y="9.651"><path d="M5.984-7.14c-.03-.063-.03-.048-.062-.11-.016-.094-.016-.172-.016-.406-1.812.468-3.031 1.843-3.031 3.953V0h1.219v-3.703c0-1.719.422-2.828 1.984-3.25zm0 0"/></svg><svg overflow="visible" x="-.694" y="13.489"><path d="M4.094-.125v-7.266H2.875V0h1.219zm0 0"/></svg><svg overflow="visible" x="-.694" y="24.477"><path d="M4.094-.125v-3.578c0-1.922-.766-3.235-1.782-3.703v.265c1.016-.468 1.782-1.765 1.782-3.687v-3.703H2.875v3.703c0 2.062-.36 3.187-1.922 3.187.078.204.094.297.094.375 0 .079-.016.172-.094.375 1.563 0 1.922 1.125 1.922 3.188V0h1.219zm0 0"/></svg><svg overflow="visible" x="-.694" y="28.315"><path d="M4.094-.125v-7.266H2.875V0h1.219zm0 0"/></svg><svg overflow="visible" x="-.694" y="32.392"><path d="M5.89-.734c-1.374-.36-1.796-1.47-1.796-3.188v-3.703H2.875v3.703c0 2.094 1.219 3.469 3.031 3.969 0-.266 0-.344.016-.422.031-.078.031-.063.156-.313zm0 0"/></svg><svg overflow="visible" x="17.33" y="12.38"><path d="M-.578-8.156a9.525 9.525 0 01-1.485-1.485 2.953 2.953 0 01-.453.047c-.156 0-.28-.015-.406-.047l-.11.235a9.31 9.31 0 001.079 1.14l.11-.218H-5.47c.047.218.063.328.063.421 0 .094-.016.188-.063.407h3.625l-.11-.219a9.31 9.31 0 00-1.077 1.14l.11.235c.124-.031.25-.031.405-.031.125 0 .25 0 .454.047A8.976 8.976 0 01-.47-8.063zm0 0"/></svg><svg overflow="visible" x="11.328" y="12.38"><path d="M5.828-4.719c0-.687-.437-1.312-.875-1.312-.14 0-.406.093-.5.187l-.656.625.25.453c.25-.171.266-.171.375-.171.328 0 .375.14.375.625 0 1.765-1.016 3.578-2.078 3.578-.578 0-.813-.36-.813-1.141 0-1.25.422-2.25 1.657-3.781l-.235-.407c-.281.141-.437.188-.765.188-.5 0-.985-.047-1.47-.094-.155 0-.25.032-.5.125-.155.328-.327.844-.515 1.64h.5l.266-.64c.094-.203.203-.203.484-.203.219 0 .438.031.656.031.25 0 .438-.015.75-.046l-.109-.235C1.297-3.859.765-2.766.765-1.578c0 .922.688 1.703 1.454 1.703.5 0 1.062-.25 1.61-.734C4.39-1.125 5-2.016 5.358-2.844c.266-.594.47-1.406.47-1.875zm0 0"/></svg><svg overflow="visible" x="17.306" y="15.154"><path d="M4.86-4.406c-.126-.063-.313-.125-.391-.125-.39 0-.89.36-1.485 1.172l-.359.484.266.094-.063-.422c-.11-.875-.515-1.328-1.094-1.328-.25 0-.578.11-.671.218l-.641.875.406.22c.36-.376.453-.454.625-.454.328 0 .375.219.531 1.094l.11.515-.328.485c-.422.594-.641.828-.907.828-.14 0-.093.11-.109.063l-.172-.407-.453.063c0 .297-.016.406-.078.687-.016.11-.016.14-.031.266.187.11.468.172.578.172.312 0 .797-.281 1.094-.703l.734-1.032-.266-.109.11.625c.125.75.5 1.219.843 1.219.22 0 .625-.188.938-.438l.531-.437-.203-.438c-.516.39-.64.485-.781.485-.156 0-.172-.047-.266-.235-.094-.156-.156-.39-.203-.656l-.172-.844.297-.375c.453-.578.61-.75.906-.75.157 0 .11-.062.219.235l.36-.094.187-.922zm0 0"/></svg><svg overflow="visible" x="26.124" y="12.38"><path d="M8.266-4.078a1.419 1.419 0 01-.047-.36c0-.109.015-.234.062-.484h-7.5c.063.25.063.375.063.484 0 .125 0 .235-.063.5h7.5zm0 2.625a1.332 1.332 0 01-.047-.36c0-.109.015-.234.062-.484h-7.5c.063.25.063.375.063.485 0 .125 0 .25-.063.5h7.5zm0 0"/></svg><svg overflow="visible" x="38.522" y="12.38"><path d="M4 1.297C3.203 1.094 2.937.719 2.937.078v-1.61c0-.78-.312-1.405-.64-1.593.328-.172.64-.797.64-1.578v-1.61c0-.64.266-1.015 1.266-1.28-.14-.235-.14-.22-.156-.298-.031-.078-.031-.171-.031-.406-1.266.344-2.063 1.078-2.063 1.985v1.609c0 .828-.203 1.219-1.187 1.219.078.203.078.28.078.359 0 .094 0 .172-.078.375.984 0 1.187.39 1.187 1.219v1.61c0 .905.797 1.64 2.063 1.984 0-.25 0-.329.03-.407.016-.078.016-.062.157-.312zm0 0"/></svg><svg overflow="visible" x="43.483" y="12.38"><path d="M7.781-8.219c-.922-.344-1.593-.484-2.328-.484-.984 0-2.078.344-2.906.89C1.14-6.859.39-5.358.39-3.53c0 2.328 1.421 3.75 3.703 3.75C5.25.219 6.187-.094 7.28-.844l.157-.578-.266-.187c-1.234.765-1.75.921-2.672.921-1.89 0-2.781-1.015-2.781-3.14 0-1.328.375-2.406 1.11-3.156.546-.563 1.218-.829 2.171-.829.86 0 1.36.141 2 .547v1.063h.578c.078-.813.172-1.328.36-1.953zm0 0"/></svg><svg overflow="visible" x="51.601" y="12.38"><path d="M2.703-1.531L2.47-1.75c-.36.125-.563.203-1.328.406C1.047-.328.78.344.016 1.625l.312.25.61-.281C1.905.328 2.405-.516 2.75-1.47zm0 0"/></svg><svg overflow="visible" x="56.586" y="12.38"><path d="M8.219-.094v-.453L7.78-.594c-.562-.062-.468.047-.531-.5L6.187-8.687h-.734l-4.5 7.124C.531-.89.422-.734.016-.64l-.391.079v.609L1.109 0c.438 0 .86.016 1.407.047v-.61l-.75-.03c-.204-.016-.235.015-.235-.095 0-.093.032-.156.282-.562L3-3.313h2.75l.297 2.266c.016.11.031.203.031.266 0 .187-.047.156-.375.187l-.672.031v.61L6.641 0l1.578.047zM5.813-4H3.469l2-3.219-.25-.093L5.656-4zm0 0"/></svg><svg overflow="visible" x="65.218" y="12.38"><path d="M4.14-2.875a.648.648 0 01-.046-.25c0-.078.015-.156.093-.36C3.22-3.484 3-3.874 3-4.702v-1.61c0-.906-.781-1.64-2.094-2 .031.25.031.344 0 .422-.015.079-.015.063-.187.282 1.031.28 1.297.656 1.297 1.296v1.61c0 .781.312 1.406.656 1.578-.344.188-.656.813-.656 1.594v1.61c0 .64-.266 1.015-1.297 1.28.172.235.172.22.187.297.031.078.031.157 0 .407C2.22 1.719 3 .984 3 .077v-1.61c0-.827.219-1.218 1.188-1.218zm0 0"/></svg><svg overflow="visible" x="70.184" y="15.154"><path d="M4.86-4.406c-.126-.063-.313-.125-.391-.125-.39 0-.89.36-1.485 1.172l-.359.484.266.094-.063-.422c-.11-.875-.515-1.328-1.094-1.328-.25 0-.578.11-.671.218l-.641.875.406.22c.36-.376.453-.454.625-.454.328 0 .375.219.531 1.094l.11.515-.328.485c-.422.594-.641.828-.907.828-.14 0-.093.11-.109.063l-.172-.407-.453.063c0 .297-.016.406-.078.687-.016.11-.016.14-.031.266.187.11.468.172.578.172.312 0 .797-.281 1.094-.703l.734-1.032-.266-.109.11.625c.125.75.5 1.219.843 1.219.22 0 .625-.188.938-.438l.531-.437-.203-.438c-.516.39-.64.485-.781.485-.156 0-.172-.047-.266-.235-.094-.156-.156-.39-.203-.656l-.172-.844.297-.375c.453-.578.61-.75.906-.75.157 0 .11-.062.219.235l.36-.094.187-.922zm0 0"/></svg><svg overflow="visible" x="79.002" y="12.38"><path d="M8.266-4.078a1.419 1.419 0 01-.047-.36c0-.109.015-.234.062-.484h-7.5c.063.25.063.375.063.484 0 .125 0 .235-.063.5h7.5zm0 2.625a1.332 1.332 0 01-.047-.36c0-.109.015-.234.062-.484h-7.5c.063.25.063.375.063.485 0 .125 0 .25-.063.5h7.5zm0 0"/></svg><svg overflow="visible" x="92.605" y="6.772"><path d="M4.781-.11V-.5l-.61-.031c-.468-.031-.421-.016-.421-.531v-.532c.422 0 .625 0 1.031.047v-.781l-.047.094s-.562-.204-.875-.204H3.75V-3.53c0-1.578.016-2.328.078-2.766l-.281-.11-.813.282-2.796 4.172.187.36h2.5v.53c0 .516.047.516-.422.532l-.75.031v.531L3.172 0l1.61.031zm-2-2.328H.97L2.89-5.312l-.266-.094v2.968zm0 0"/></svg><path d="M92.605 9.39h4.997" fill="none" stroke-width=".717" stroke="#000" stroke-miterlimit="10"/><svg overflow="visible" x="92.605" y="16.906"><path d="M4.703-2.11c0-.421-.25-.89-.594-1.124a2.225 2.225 0 00-.703-.282c.531-.375.86-.875.86-1.406 0-.781-.86-1.437-1.938-1.437-.64 0-1.203.203-1.687.656L.312-4.406h.594l.219-.625c.11-.297.563-.469 1.063-.469.624 0 .984.328.984.89 0 .673-.406 1.094-1.094 1.094-.078 0-.36.204-.36.204l-.265-.094-.125.515.203.157c.407-.172.594-.22.844-.22.813 0 1.11.329 1.11 1.142 0 .906-.422 1.359-1.329 1.359-.437 0-.719-.094-1.015-.344C.906-.984.828-1.094.578-1.75l-.531.188c.234.609.312.937.375 1.468C1.078.11 1.5.172 1.859.172c.782 0 1.766-.422 2.297-1.016.328-.375.547-.86.547-1.265zm0 0"/></svg><svg overflow="visible" x="101.456" y="12.38"><path d="M2.516-3.125c0-.422-.407-.844-.844-.844-.422 0-.86.422-.86.844 0 .438.438.86.86.86.437 0 .844-.422.844-.86zm0 0"/></svg><svg overflow="visible" x="107.458" y="12.38"><path d="M4.203-7.828a.735.735 0 01-.187-.14c-.063-.063-.11-.126-.22-.329-1.593 1.61-2.5 3.266-2.5 4.781v.797c0 1.516.907 3.172 2.5 4.781.11-.203.157-.265.22-.328.062-.062.125-.109.312-.203C2.875.063 2.281-1.344 2.281-2.719v-.797c0-1.39.594-2.78 2.047-4.25zm0 0"/></svg><svg overflow="visible" x="112.527" y="12.38"><path d="M6.813-6.844c0-.984-1.094-1.687-2.016-1.687-.594 0-1.203.031-1.797.031l-1.938-.047-.062.61.797.03c.281 0 .266-.03.266.188 0 .172-.047.547-.11.907L.922-.782C.89-.577.875-.624.25-.531L.14.048A21.28 21.28 0 011.407 0c.64 0 1.266.031 1.922.031.563 0 1.219-.156 1.781-.5.954-.562 1.516-1.469 1.516-2.375 0-.515-.203-1-.531-1.265-.313-.25-.766-.391-1.594-.516v.266c.688-.25 1.063-.438 1.453-.75.531-.485.86-1.125.86-1.735zM5.296-2.656c0 1.234-.734 1.984-1.922 1.984-.25 0-.594-.015-.984-.047-.079-.015-.22-.015-.25-.031l.562-3.313h.906c1.235 0 1.688.375 1.688 1.407zm.219-3.985c0 1.266-.75 1.891-2.235 1.891h-.453l.531-3.016c.22 0 .532-.062.844-.062.969 0 1.313.297 1.313 1.187zm0 0"/></svg><svg overflow="visible" x="119.834" y="15.154"><path d="M4.86-4.406c-.126-.063-.313-.125-.391-.125-.39 0-.89.36-1.485 1.172l-.359.484.266.094-.063-.422c-.11-.875-.515-1.328-1.094-1.328-.25 0-.578.11-.671.218l-.641.875.406.22c.36-.376.453-.454.625-.454.328 0 .375.219.531 1.094l.11.515-.328.485c-.422.594-.641.828-.907.828-.14 0-.093.11-.109.063l-.172-.407-.453.063c0 .297-.016.406-.078.687-.016.11-.016.14-.031.266.187.11.468.172.578.172.312 0 .797-.281 1.094-.703l.734-1.032-.266-.109.11.625c.125.75.5 1.219.843 1.219.22 0 .625-.188.938-.438l.531-.437-.203-.438c-.516.39-.64.485-.781.485-.156 0-.172-.047-.266-.235-.094-.156-.156-.39-.203-.656l-.172-.844.297-.375c.453-.578.61-.75.906-.75.157 0 .11-.062.219.235l.36-.094.187-.922zm0 0"/></svg><svg overflow="visible" x="127.987" y="12.38"><path d="M8.266-2.766a1.332 1.332 0 01-.047-.359c0-.11.015-.234.062-.484h-7.5c.063.25.063.375.063.484 0 .125 0 .25-.063.5h7.5zm0 0"/></svg><svg overflow="visible" x="139.727" y="12.38"><path d="M7.781-8.219c-.922-.344-1.593-.484-2.328-.484-.984 0-2.078.344-2.906.89C1.14-6.859.39-5.358.39-3.53c0 2.328 1.421 3.75 3.703 3.75C5.25.219 6.187-.094 7.28-.844l.157-.578-.266-.187c-1.234.765-1.75.921-2.672.921-1.89 0-2.781-1.015-2.781-3.14 0-1.328.375-2.406 1.11-3.156.546-.563 1.218-.829 2.171-.829.86 0 1.36.141 2 .547v1.063h.578c.078-.813.172-1.328.36-1.953zm0 0"/></svg><svg overflow="visible" x="147.704" y="15.154"><path d="M4.86-4.406c-.126-.063-.313-.125-.391-.125-.39 0-.89.36-1.485 1.172l-.359.484.266.094-.063-.422c-.11-.875-.515-1.328-1.094-1.328-.25 0-.578.11-.671.218l-.641.875.406.22c.36-.376.453-.454.625-.454.328 0 .375.219.531 1.094l.11.515-.328.485c-.422.594-.641.828-.907.828-.14 0-.093.11-.109.063l-.172-.407-.453.063c0 .297-.016.406-.078.687-.016.11-.016.14-.031.266.187.11.468.172.578.172.312 0 .797-.281 1.094-.703l.734-1.032-.266-.109.11.625c.125.75.5 1.219.843 1.219.22 0 .625-.188.938-.438l.531-.437-.203-.438c-.516.39-.64.485-.781.485-.156 0-.172-.047-.266-.235-.094-.156-.156-.39-.203-.656l-.172-.844.297-.375c.453-.578.61-.75.906-.75.157 0 .11-.062.219.235l.36-.094.187-.922zm0 0"/></svg><svg overflow="visible" x="153.201" y="12.38"><path d="M3.766-2.719v-.797c0-1.515-.907-3.171-2.516-4.78-.11.202-.156.265-.203.327-.063.063-.125.11-.313.203 1.438 1.47 2.032 2.86 2.032 4.25v.797c0 1.375-.594 2.781-2.032 4.25.188.094.25.14.313.203.047.063.094.125.203.329C2.86.452 3.766-1.204 3.766-2.72zm0 0"/></svg><svg overflow="visible" x="17.33" y="28.831"><path d="M-.578-8.156a9.525 9.525 0 01-1.485-1.485 2.953 2.953 0 01-.453.047c-.156 0-.28-.015-.406-.047l-.11.235a9.31 9.31 0 001.079 1.14l.11-.218H-5.47c.047.218.063.328.063.421 0 .094-.016.188-.063.407h3.625l-.11-.219a9.31 9.31 0 00-1.077 1.14l.11.235c.124-.031.25-.031.405-.031.125 0 .25 0 .454.047A8.976 8.976 0 01-.47-8.063zm0 0"/></svg><svg overflow="visible" x="11.328" y="28.831"><path d="M5.828-4.719c0-.687-.437-1.312-.875-1.312-.14 0-.406.093-.5.187l-.656.625.25.453c.25-.171.266-.171.375-.171.328 0 .375.14.375.625 0 1.765-1.016 3.578-2.078 3.578-.578 0-.813-.36-.813-1.141 0-1.25.422-2.25 1.657-3.781l-.235-.407c-.281.141-.437.188-.765.188-.5 0-.985-.047-1.47-.094-.155 0-.25.032-.5.125-.155.328-.327.844-.515 1.64h.5l.266-.64c.094-.203.203-.203.484-.203.219 0 .438.031.656.031.25 0 .438-.015.75-.046l-.109-.235C1.297-3.859.765-2.766.765-1.578c0 .922.688 1.703 1.454 1.703.5 0 1.062-.25 1.61-.734C4.39-1.125 5-2.016 5.358-2.844c.266-.594.47-1.406.47-1.875zm0 0"/></svg><svg overflow="visible" x="17.306" y="31.604"><path d="M4.922-4.406l-.188-.14a3.25 3.25 0 01-.875.202L3.5-3.062c-.125.421-.406.968-.734 1.406-.329.437-.688.797-.907.797-.203 0-.03-.297-.03-.407l.14-1.718c.015-.266.047-.61.047-.86 0-.39-.22-.687-.391-.687-.125 0-.375.093-.828.39l-.89.563.265.375.64-.36c.047-.03.063-.062.141-.062.235 0 .047.313.031.453L.828-1.016l-.015.36c0 .36.343.75.578.75.359 0 1.265-.781 2-1.782l-.266-.093-.484 1.5c-.485 1.578-.813 2.078-1.485 2.078-.328 0-.453-.094-.453-.406 0-.047.016-.11.047-.266l-.297-.11-.578.376c-.031.125-.031.187-.031.234 0 .375.531.813.969.813 1.015 0 2.218-1.22 2.78-2.86l1.391-3.937zm0 0"/></svg><svg overflow="visible" x="26.186" y="28.831"><path d="M8.266-4.078a1.419 1.419 0 01-.047-.36c0-.109.015-.234.062-.484h-7.5c.063.25.063.375.063.484 0 .125 0 .235-.063.5h7.5zm0 2.625a1.332 1.332 0 01-.047-.36c0-.109.015-.234.062-.484h-7.5c.063.25.063.375.063.485 0 .125 0 .25-.063.5h7.5zm0 0"/></svg><svg overflow="visible" x="38.584" y="28.831"><path d="M4 1.297C3.203 1.094 2.937.719 2.937.078v-1.61c0-.78-.312-1.405-.64-1.593.328-.172.64-.797.64-1.578v-1.61c0-.64.266-1.015 1.266-1.28-.14-.235-.14-.22-.156-.298-.031-.078-.031-.171-.031-.406-1.266.344-2.063 1.078-2.063 1.985v1.609c0 .828-.203 1.219-1.187 1.219.078.203.078.28.078.359 0 .094 0 .172-.078.375.984 0 1.187.39 1.187 1.219v1.61c0 .905.797 1.64 2.063 1.984 0-.25 0-.329.03-.407.016-.078.016-.062.157-.312zm0 0"/></svg><svg overflow="visible" x="43.545" y="28.831"><path d="M7.781-8.219c-.922-.344-1.593-.484-2.328-.484-.984 0-2.078.344-2.906.89C1.14-6.859.39-5.358.39-3.53c0 2.328 1.421 3.75 3.703 3.75C5.25.219 6.187-.094 7.28-.844l.157-.578-.266-.187c-1.234.765-1.75.921-2.672.921-1.89 0-2.781-1.015-2.781-3.14 0-1.328.375-2.406 1.11-3.156.546-.563 1.218-.829 2.171-.829.86 0 1.36.141 2 .547v1.063h.578c.078-.813.172-1.328.36-1.953zm0 0"/></svg><svg overflow="visible" x="51.663" y="28.831"><path d="M2.703-1.531L2.47-1.75c-.36.125-.563.203-1.328.406C1.047-.328.78.344.016 1.625l.312.25.61-.281C1.905.328 2.405-.516 2.75-1.47zm0 0"/></svg><svg overflow="visible" x="56.648" y="28.831"><path d="M8.219-.094v-.453L7.78-.594c-.562-.062-.468.047-.531-.5L6.187-8.687h-.734l-4.5 7.124C.531-.89.422-.734.016-.64l-.391.079v.609L1.109 0c.438 0 .86.016 1.407.047v-.61l-.75-.03c-.204-.016-.235.015-.235-.095 0-.093.032-.156.282-.562L3-3.313h2.75l.297 2.266c.016.11.031.203.031.266 0 .187-.047.156-.375.187l-.672.031v.61L6.641 0l1.578.047zM5.813-4H3.469l2-3.219-.25-.093L5.656-4zm0 0"/></svg><svg overflow="visible" x="65.28" y="28.831"><path d="M4.14-2.875a.648.648 0 01-.046-.25c0-.078.015-.156.093-.36C3.22-3.484 3-3.874 3-4.702v-1.61c0-.906-.781-1.64-2.094-2 .031.25.031.344 0 .422-.015.079-.015.063-.187.282 1.031.28 1.297.656 1.297 1.296v1.61c0 .781.312 1.406.656 1.578-.344.188-.656.813-.656 1.594v1.61c0 .64-.266 1.015-1.297 1.28.172.235.172.22.187.297.031.078.031.157 0 .407C2.22 1.719 3 .984 3 .077v-1.61c0-.827.219-1.218 1.188-1.218zm0 0"/></svg><svg overflow="visible" x="70.246" y="31.604"><path d="M4.922-4.406l-.188-.14a3.25 3.25 0 01-.875.202L3.5-3.062c-.125.421-.406.968-.734 1.406-.329.437-.688.797-.907.797-.203 0-.03-.297-.03-.407l.14-1.718c.015-.266.047-.61.047-.86 0-.39-.22-.687-.391-.687-.125 0-.375.093-.828.39l-.89.563.265.375.64-.36c.047-.03.063-.062.141-.062.235 0 .047.313.031.453L.828-1.016l-.015.36c0 .36.343.75.578.75.359 0 1.265-.781 2-1.782l-.266-.093-.484 1.5c-.485 1.578-.813 2.078-1.485 2.078-.328 0-.453-.094-.453-.406 0-.047.016-.11.047-.266l-.297-.11-.578.376c-.031.125-.031.187-.031.234 0 .375.531.813.969.813 1.015 0 2.218-1.22 2.78-2.86l1.391-3.937zm0 0"/></svg><svg overflow="visible" x="79.126" y="28.831"><path d="M8.266-4.078a1.419 1.419 0 01-.047-.36c0-.109.015-.234.062-.484h-7.5c.063.25.063.375.063.484 0 .125 0 .235-.063.5h7.5zm0 2.625a1.332 1.332 0 01-.047-.36c0-.109.015-.234.062-.484h-7.5c.063.25.063.375.063.485 0 .125 0 .25-.063.5h7.5zm0 0"/></svg><svg overflow="visible" x="92.729" y="23.223"><path d="M4.781-.11V-.5l-.61-.031c-.468-.031-.421-.016-.421-.531v-.532c.422 0 .625 0 1.031.047v-.781l-.047.094s-.562-.204-.875-.204H3.75V-3.53c0-1.578.016-2.328.078-2.766l-.281-.11-.813.282-2.796 4.172.187.36h2.5v.53c0 .516.047.516-.422.532l-.75.031v.531L3.172 0l1.61.031zm-2-2.328H.97L2.89-5.312l-.266-.094v2.968zm0 0"/></svg><path d="M92.73 25.84h4.997" fill="none" stroke-width=".717" stroke="#000" stroke-miterlimit="10"/><svg overflow="visible" x="92.729" y="33.357"><path d="M4.703-2.11c0-.421-.25-.89-.594-1.124a2.225 2.225 0 00-.703-.282c.531-.375.86-.875.86-1.406 0-.781-.86-1.437-1.938-1.437-.64 0-1.203.203-1.687.656L.312-4.406h.594l.219-.625c.11-.297.563-.469 1.063-.469.624 0 .984.328.984.89 0 .673-.406 1.094-1.094 1.094-.078 0-.36.204-.36.204l-.265-.094-.125.515.203.157c.407-.172.594-.22.844-.22.813 0 1.11.329 1.11 1.142 0 .906-.422 1.359-1.329 1.359-.437 0-.719-.094-1.015-.344C.906-.984.828-1.094.578-1.75l-.531.188c.234.609.312.937.375 1.468C1.078.11 1.5.172 1.859.172c.782 0 1.766-.422 2.297-1.016.328-.375.547-.86.547-1.265zm0 0"/></svg><svg overflow="visible" x="101.58" y="28.831"><path d="M2.516-3.125c0-.422-.407-.844-.844-.844-.422 0-.86.422-.86.844 0 .438.438.86.86.86.437 0 .844-.422.844-.86zm0 0"/></svg><svg overflow="visible" x="107.582" y="28.831"><path d="M4.203-7.828a.735.735 0 01-.187-.14c-.063-.063-.11-.126-.22-.329-1.593 1.61-2.5 3.266-2.5 4.781v.797c0 1.516.907 3.172 2.5 4.781.11-.203.157-.265.22-.328.062-.062.125-.109.312-.203C2.875.063 2.281-1.344 2.281-2.719v-.797c0-1.39.594-2.78 2.047-4.25zm0 0"/></svg><svg overflow="visible" x="112.651" y="28.831"><path d="M6.813-6.844c0-.984-1.094-1.687-2.016-1.687-.594 0-1.203.031-1.797.031l-1.938-.047-.062.61.797.03c.281 0 .266-.03.266.188 0 .172-.047.547-.11.907L.922-.782C.89-.577.875-.624.25-.531L.14.048A21.28 21.28 0 011.407 0c.64 0 1.266.031 1.922.031.563 0 1.219-.156 1.781-.5.954-.562 1.516-1.469 1.516-2.375 0-.515-.203-1-.531-1.265-.313-.25-.766-.391-1.594-.516v.266c.688-.25 1.063-.438 1.453-.75.531-.485.86-1.125.86-1.735zM5.296-2.656c0 1.234-.734 1.984-1.922 1.984-.25 0-.594-.015-.984-.047-.079-.015-.22-.015-.25-.031l.562-3.313h.906c1.235 0 1.688.375 1.688 1.407zm.219-3.985c0 1.266-.75 1.891-2.235 1.891h-.453l.531-3.016c.22 0 .532-.062.844-.062.969 0 1.313.297 1.313 1.187zm0 0"/></svg><g><svg overflow="visible" x="119.958" y="31.604"><path d="M4.922-4.406l-.188-.14a3.25 3.25 0 01-.875.202L3.5-3.062c-.125.421-.406.968-.734 1.406-.329.437-.688.797-.907.797-.203 0-.03-.297-.03-.407l.14-1.718c.015-.266.047-.61.047-.86 0-.39-.22-.687-.391-.687-.125 0-.375.093-.828.39l-.89.563.265.375.64-.36c.047-.03.063-.062.141-.062.235 0 .047.313.031.453L.828-1.016l-.015.36c0 .36.343.75.578.75.359 0 1.265-.781 2-1.782l-.266-.093-.484 1.5c-.485 1.578-.813 2.078-1.485 2.078-.328 0-.453-.094-.453-.406 0-.047.016-.11.047-.266l-.297-.11-.578.376c-.031.125-.031.187-.031.234 0 .375.531.813.969.813 1.015 0 2.218-1.22 2.78-2.86l1.391-3.937zm0 0"/></svg></g><g><svg overflow="visible" x="128.173" y="28.831"><path d="M8.266-2.766a1.332 1.332 0 01-.047-.359c0-.11.015-.234.062-.484h-7.5c.063.25.063.375.063.484 0 .125 0 .25-.063.5h7.5zm0 0"/></svg></g><g><svg overflow="visible" x="139.913" y="28.831"><path d="M7.781-8.219c-.922-.344-1.593-.484-2.328-.484-.984 0-2.078.344-2.906.89C1.14-6.859.39-5.358.39-3.53c0 2.328 1.421 3.75 3.703 3.75C5.25.219 6.187-.094 7.28-.844l.157-.578-.266-.187c-1.234.765-1.75.921-2.672.921-1.89 0-2.781-1.015-2.781-3.14 0-1.328.375-2.406 1.11-3.156.546-.563 1.218-.829 2.171-.829.86 0 1.36.141 2 .547v1.063h.578c.078-.813.172-1.328.36-1.953zm0 0"/></svg></g><g><svg overflow="visible" x="147.89" y="31.604"><path d="M4.922-4.406l-.188-.14a3.25 3.25 0 01-.875.202L3.5-3.062c-.125.421-.406.968-.734 1.406-.329.437-.688.797-.907.797-.203 0-.03-.297-.03-.407l.14-1.718c.015-.266.047-.61.047-.86 0-.39-.22-.687-.391-.687-.125 0-.375.093-.828.39l-.89.563.265.375.64-.36c.047-.03.063-.062.141-.062.235 0 .047.313.031.453L.828-1.016l-.015.36c0 .36.343.75.578.75.359 0 1.265-.781 2-1.782l-.266-.093-.484 1.5c-.485 1.578-.813 2.078-1.485 2.078-.328 0-.453-.094-.453-.406 0-.047.016-.11.047-.266l-.297-.11-.578.376c-.031.125-.031.187-.031.234 0 .375.531.813.969.813 1.015 0 2.218-1.22 2.78-2.86l1.391-3.937zm0 0"/></svg></g><g><svg overflow="visible" x="153.449" y="28.831"><path d="M3.766-2.719v-.797c0-1.515-.907-3.171-2.516-4.78-.11.202-.156.265-.203.327-.063.063-.125.11-.313.203 1.438 1.47 2.032 2.86 2.032 4.25v.797c0 1.375-.594 2.781-2.032 4.25.188.094.25.14.313.203.047.063.094.125.203.329C2.86.452 3.766-1.204 3.766-2.72zm0 0"/></svg></g></svg>