<svg xmlns="http://www.w3.org/2000/svg" xmlns:xlink="http://www.w3.org/1999/xlink" width="547px" height="131px" viewBox="0 0 410 98"><svg overflow="visible" x="-.415" y="9.745"><path d="M9.313-7.938c.03-.328-.22-.453-.516-.453H2.766c-.25 0-.563.125-.563.375 0 .125.313.266.531.266.438 0 .579-.14.579.078 0 .047 0 .063-.063.281L1.672-1.062c-.125.468.062.421-.89.421C.577-.64.25-.5.25-.28.25-.125.563 0 .781 0H7c.266 0 .469-.14.547-.328l1.11-2.594c.015-.047 0-.062 0-.062s-.141-.36-.282-.36c-.11 0-.328.203-.36.266C7.25-1.297 7-.641 4.954-.641h-2c-.125-.015.031.11.031 0 0-.03 0-.046.063-.265l.781-3.14H4.86c1.016 0 .813.124.813.421 0 .094 0 .234-.094.594-.016.062-.031.094-.031.125 0 .062.25.265.36.265.093 0 .327-.187.374-.375l.672-2.796c0-.063-.25-.266-.328-.266-.11 0-.344.203-.375.36-.25.905-.266 1.046-1.36 1.046H4l.672-2.75c.11-.422-.063-.328.453-.328h1.688c1.453 0 1.609.203 1.609 1.188 0 .28 0 .312-.047.64 0 .063-.016.156-.016.203 0 .063.25.282.36.282.125 0 .328-.204.36-.438zm0 0"/></svg><svg overflow="visible" x="9.054" y="5.404"><path d="M3.063-4.313c0-.25-.422-.609-.672-.609-.172 0-.563.281-.61.406l-1.5 3.72H1L2.922-3.97c.047-.062.14-.265.14-.344zm0 0"/></svg><svg overflow="visible" x="8.408" y="12.698"><path d="M5.094-3.234c0-.47-.75-.782-1.078-.782-.422 0-.907.329-.922.344.031.078-.563-.344-1.031-.344C1.125-4.016.39-2.828.39-2.578c0 .11.328.281.343.281.11 0 .329-.203.375-.312.204-.657.532-.844.938-.844.265 0 .297-.016.297.39 0 .172-.11.579-.188.876l-.281 1.14c-.078.281-.156.578-.578.578-.031 0-.125.047-.078.078-.032.016.203-.453.203-.5 0-.187-.344-.468-.547-.468-.234 0-.688.359-.688.671 0 .422.688.766 1.094.766.39 0 .875-.281.907-.344.03.047.687.344 1.03.344.954 0 1.688-1.203 1.688-1.437 0-.11-.328-.266-.343-.266-.125 0-.344.203-.375.297-.172.578-.47.86-.938.86-.328 0-.297-.063-.297-.391 0-.22.203-.97.438-1.907.156-.64.328-.687.609-.687l.14-.047s-.015 0-.093-.047c.125-.031-.172.36-.172.5 0 .188.344.469.531.469.203 0 .688-.313.688-.656zm0 0"/></svg><svg overflow="visible" x="17.651" y="9.745"><path d="M8.828-4.281c0-.125-.312-.375-.437-.375H.906c-.125 0-.437.25-.437.375 0 .14.312.375.437.375h7.485c.125 0 .437-.235.437-.375zm0 2.328c0-.14-.312-.375-.437-.375H.906c-.125 0-.437.234-.437.375 0 .125.312.36.437.36h7.485c.125 0 .437-.235.437-.36zm0 0"/></svg><svg overflow="visible" x="30.264" y="9.745"><path d="M8.828-3.125c0-.125-.312-.36-.437-.36H.906c-.125 0-.437.235-.437.36 0 .14.312.375.437.375h7.485c.125 0 .437-.234.437-.375zm0 0"/></svg><svg overflow="visible" x="39.565" y="9.745"><path d="M5.219-4.39c0-.532-.719-1.157-1.625-1.157-1.578 0-2.219 1.344-2.219 1.875 0 .938 1.094 1.25 1.438 1.313.624.125 1.03.125 1.03.78 0 .313-.062 1.188-1.5 1.188-.171 0-.89.125-1.093-.328.188.016.672-.469.672-.812 0-.282-.375-.547-.625-.547-.313 0-.875.375-.875.922 0 .672.875 1.281 1.906 1.281 1.938 0 2.594-1.578 2.594-2.11 0-.437-.281-.827-.422-.968-.328-.328-.813-.422-1.328-.531-.438-.094-.719-.047-.719-.594 0-.344.094-.938 1.14-.938.298 0 .704-.046.829.282-.078.015-.531.406-.531.671 0 .172.312.485.578.485.265 0 .75-.344.75-.813zm0 0"/></svg><svg overflow="visible" x="45.172" y="9.745"><path d="M3.578-7.61c0-.234-.344-.546-.625-.546-.328 0-.844.437-.844.75 0 .234.36.562.657.562.265 0 .812-.406.812-.765zm.11 5.766c0-.11-.297-.25-.329-.25-.125 0-.328.172-.39.344-.203.766-.406 1.36-1.016 1.36-.203 0-.094.015-.094-.266 0-.297.079-.469.36-1.203l.453-1.25c.156-.344.156-.375.265-.688.094-.25.157-.406.157-.64 0-.532-.578-1.11-1.172-1.11C.797-5.547.14-3.687.14-3.578c0 .125.484.219.484.219l-.14.03c.124 0 .328-.155.39-.343.313-1.125.61-1.344 1.016-1.344.093 0 .093-.14.093.25 0 .25-.078.5-.125.625-.109.297-.64 1.688-.828 2.204-.125.312-.281.703-.281.953 0 .562.61 1.109 1.188 1.109 1.125 0 1.75-1.86 1.75-1.969zm0 0"/></svg><svg overflow="visible" x="49.296" y="9.745"><path d="M7.016-1.844c0-.11-.297-.25-.329-.25-.125 0-.328.172-.39.344-.234.813-.422 1.36-1.016 1.36-.203 0-.093.015-.093-.266 0-.297.109-.594.218-.844.219-.64.719-1.953.719-2.64 0-.798-.703-1.407-1.563-1.407-1.078 0-1.796.797-2 1.078l.329.094c-.063-.672-.735-1.172-1.282-1.172-.562 0-.921.5-1.14.89C.313-4.327.14-3.624.14-3.577c0 .125.484.219.484.219l-.14.03c.124 0 .328-.14.406-.405.203-.844.25-1.282.671-1.282.25 0 .172.016.172.407 0 .265-.03.39-.187 1.015L.844-.844c-.031.188-.11.469-.11.516 0 .219.375.453.563.453.14 0 .547-.219.656-.547-.078.156.125-.5.203-.797l.266-1.078c.062-.265.14-.531.203-.797l.14-.594c.188-.374.626-1.328 1.766-1.328.532 0 .438.313.438.704 0 .734-.578 2.265-.766 2.78-.11.282-.125.423-.125.548 0 .562.625 1.109 1.188 1.109 1.125 0 1.75-1.875 1.75-1.969zm0 0"/></svg><svg overflow="visible" x="56.47" y="9.745"><path d="M4.156 2.719c0-.047-.078-.172-.11-.203-1.234-.922-2-3.22-2-5.141v-1c0-1.906.767-4.203 2-5.14a.457.457 0 00.11-.188c0-.063-.25-.25-.312-.25a1.01 1.01 0 00-.203.062C2.312-8.156 1-5.67 1-3.625v1C1-.578 2.313 1.906 3.64 2.906c.016.016.188.063.204.063.062 0 .312-.203.312-.25zm0 0"/></svg><svg overflow="visible" x="61.12" y="9.745"><path d="M7.594-3.766c0-.937-.657-1.78-1.563-1.78-1.734 0-2.656 2.452-3.312 4.609-1.14-.204-1.625-.735-1.625-1.594 0-.344.218-1.563.937-2.375.094-.11.094-.157.094-.157l.063-.093c0-.063-.22-.266-.329-.266-.343 0-1.468 1.875-1.468 3.016 0 1.125 1 2.125 2.046 2.375l-.609 1.937c-.047.157-.062.172-.062.235 0 .265.437.468.546.468.063 0 .516-.171.641-.453.031-.094.094-.484.39-2.031h.235c1.985 0 4.016-2 4.016-3.89zm-.735.266c0 1.344-1.343 2.672-3.171 2.672-.11 0-.126 0-.22-.016-.14 0 .032.125.032.094l.234-1.297C4.11-3.578 4.86-4.594 5.922-4.594c.812 0 .937.516.937 1.094zm0 0"/></svg><svg overflow="visible" x="68.939" y="9.745"><path d="M3.64-2.625v-1c0-2.047-1.328-4.531-2.64-5.516a.774.774 0 00-.203-.062c-.063 0-.313.187-.313.25 0 .031.079.172.094.187 1.25.938 2.016 3.235 2.016 5.141v1c0 1.922-.766 4.219-2.016 5.14-.015.032-.094.157-.094.204 0 .047.25.25.313.25A.774.774 0 001 2.906c1.313-1 2.64-3.484 2.64-5.531zm0 0"/></svg><svg overflow="visible" x="77.487" y="9.745"><path d="M2.625-.14c0-.797-.5-1.391-.969-1.391-.39 0-.828.437-.828.765 0 .329.438.766.828.766.157 0 .438-.078.563-.188l.047-.046s-.313-.078-.313.093c0 .875-.344 1.5-.75 1.891-.125.14-.187.266-.187.297 0 .078.265.265.328.265.125 0 1.281-1.062 1.281-2.453zm0 0"/></svg><svg overflow="visible" x="-.415" y="24.19"><path d="M9.313-7.938c.03-.328-.22-.453-.516-.453H2.766c-.25 0-.563.125-.563.375 0 .125.313.266.531.266.438 0 .579-.14.579.078 0 .047 0 .063-.063.281L1.672-1.062c-.125.468.062.421-.89.421C.577-.64.25-.5.25-.28.25-.125.563 0 .781 0H7c.266 0 .469-.14.547-.328l1.11-2.594c.015-.047 0-.062 0-.062s-.141-.36-.282-.36c-.11 0-.328.203-.36.266C7.25-1.297 7-.641 4.954-.641h-2c-.125-.015.031.11.031 0 0-.03 0-.046.063-.265l.781-3.14H4.86c1.016 0 .813.124.813.421 0 .094 0 .234-.094.594-.016.062-.031.094-.031.125 0 .062.25.265.36.265.093 0 .327-.187.374-.375l.672-2.796c0-.063-.25-.266-.328-.266-.11 0-.344.203-.375.36-.25.905-.266 1.046-1.36 1.046H4l.672-2.75c.11-.422-.063-.328.453-.328h1.688c1.453 0 1.609.203 1.609 1.188 0 .28 0 .312-.047.64 0 .063-.016.156-.016.203 0 .063.25.282.36.282.125 0 .328-.204.36-.438zm0 0"/></svg><svg overflow="visible" x="9.054" y="19.85"><path d="M3.063-4.313c0-.25-.422-.609-.672-.609-.172 0-.563.281-.61.406l-1.5 3.72H1L2.922-3.97c.047-.062.14-.265.14-.344zm0 0"/></svg><svg overflow="visible" x="8.408" y="27.144"><path d="M4.906-3.5c0-.172-.343-.422-.5-.422-.078 0-.39.094-.484.25a3.37 3.37 0 00-.188.594l-.187.687-.328 1.36.344.11S3.046-.47 2.39-.47c-.563 0-.36-.39-.36-.531 0-.453.203-.984.453-1.625.094-.266.141-.375.141-.516 0-.406-.563-.875-1.016-.875-.843 0-1.421 1.297-1.421 1.438 0 .11.328.281.343.281.125 0 .344-.203.36-.297.218-.703.359-.86.703-.86.14 0 0-.077 0 .126s-.078.375-.125.484C1.079-1.813.984-1.5.984-1.14c0 .141.063.657.391.922.266.219.766.297.984.297.344 0 .782-.156 1.063-.406l-.36-.125c-.109.469-.14.703-.484 1.125-.234.25-.422.484-.86.484-.062 0-.312.047-.343.016.172-.031.313-.484.313-.484l.062-.11c0-.265-.453-.484-.531-.484C1 .094.516.422.516.813c0 .421.609.89 1.203.89.86 0 2.093-.812 2.343-1.86l.797-3.155c.047-.126.047-.141.047-.188zm0 0"/></svg><svg overflow="visible" x="17.148" y="24.19"><path d="M8.828-4.281c0-.125-.312-.375-.437-.375H.906c-.125 0-.437.25-.437.375 0 .14.312.375.437.375h7.485c.125 0 .437-.235.437-.375zm0 2.328c0-.14-.312-.375-.437-.375H.906c-.125 0-.437.234-.437.375 0 .125.312.36.437.36h7.485c.125 0 .437-.235.437-.36zm0 0"/></svg><svg overflow="visible" x="29.761" y="24.19"><path d="M5.328-1.406c0-.078-.266-.297-.328-.297-.063 0-.234.062-.297.156C3.75-.359 2.593-.39 2.453-.39c-.75 0-.89-.453-.89-1.171 0-.5.187-1.563.593-2.297.36-.688.89-1.157 1.547-1.157.406 0 .719.11.766.204.078 0-.235.046-.407.203a1.026 1.026 0 00-.265.562c0 .297.406.563.64.563.344 0 .86-.422.86-.907 0-.578-.75-1.156-1.61-1.156-1.609 0-3.406 1.844-3.406 3.531 0 1.079.906 2.141 2.14 2.141 1.72 0 2.907-1.39 2.907-1.531zm0 0"/></svg><svg overflow="visible" x="35.236" y="24.19"><path d="M5.797-3.39c0-1.25-1.031-2.157-2.11-2.157-1.593 0-3.406 1.828-3.406 3.531C.281-.844 1.297.125 2.406.125c1.594 0 3.39-1.781 3.39-3.516zM4.53-3.86c0 .47-.187 1.626-.64 2.407-.407.687-.922 1.062-1.47 1.062-.515 0-.858-.25-.858-1.171 0-.594.25-1.782.64-2.391.594-.922 1.14-1.063 1.485-1.063.687 0 .843.438.843 1.157zm0 0"/></svg><svg overflow="visible" x="41.178" y="24.19"><path d="M5.219-4.39c0-.532-.719-1.157-1.625-1.157-1.578 0-2.219 1.344-2.219 1.875 0 .938 1.094 1.25 1.438 1.313.624.125 1.03.125 1.03.78 0 .313-.062 1.188-1.5 1.188-.171 0-.89.125-1.093-.328.188.016.672-.469.672-.812 0-.282-.375-.547-.625-.547-.313 0-.875.375-.875.922 0 .672.875 1.281 1.906 1.281 1.938 0 2.594-1.578 2.594-2.11 0-.437-.281-.827-.422-.968-.328-.328-.813-.422-1.328-.531-.438-.094-.719-.047-.719-.594 0-.344.094-.938 1.14-.938.298 0 .704-.046.829.282-.078.015-.531.406-.531.671 0 .172.312.485.578.485.265 0 .75-.344.75-.813zm0 0"/></svg><svg overflow="visible" x="46.785" y="24.19"><path d="M4.156 2.719c0-.047-.078-.172-.11-.203-1.234-.922-2-3.22-2-5.141v-1c0-1.906.767-4.203 2-5.14a.457.457 0 00.11-.188c0-.063-.25-.25-.312-.25a1.01 1.01 0 00-.203.062C2.312-8.156 1-5.67 1-3.625v1C1-.578 2.313 1.906 3.64 2.906c.016.016.188.063.204.063.062 0 .312-.203.312-.25zm0 0"/></svg><svg overflow="visible" x="51.436" y="24.19"><path d="M7.594-3.766c0-.937-.657-1.78-1.563-1.78-1.734 0-2.656 2.452-3.312 4.609-1.14-.204-1.625-.735-1.625-1.594 0-.344.218-1.563.937-2.375.094-.11.094-.157.094-.157l.063-.093c0-.063-.22-.266-.329-.266-.343 0-1.468 1.875-1.468 3.016 0 1.125 1 2.125 2.046 2.375l-.609 1.937c-.047.157-.062.172-.062.235 0 .265.437.468.546.468.063 0 .516-.171.641-.453.031-.094.094-.484.39-2.031h.235c1.985 0 4.016-2 4.016-3.89zm-.735.266c0 1.344-1.343 2.672-3.171 2.672-.11 0-.126 0-.22-.016-.14 0 .032.125.032.094l.234-1.297C4.11-3.578 4.86-4.594 5.922-4.594c.812 0 .937.516.937 1.094zm0 0"/></svg><svg overflow="visible" x="59.254" y="24.19"><path d="M3.64-2.625v-1c0-2.047-1.328-4.531-2.64-5.516a.774.774 0 00-.203-.062c-.063 0-.313.187-.313.25 0 .031.079.172.094.187 1.25.938 2.016 3.235 2.016 5.141v1c0 1.922-.766 4.219-2.016 5.14-.015.032-.094.157-.094.204 0 .047.25.25.313.25A.774.774 0 001 2.906c1.313-1 2.64-3.484 2.64-5.531zm0 0"/></svg><svg overflow="visible" x="67.802" y="24.19"><path d="M2.625-.14c0-.797-.5-1.391-.969-1.391-.39 0-.828.437-.828.765 0 .329.438.766.828.766.157 0 .438-.078.563-.188l.047-.046s-.313-.078-.313.093c0 .875-.344 1.5-.75 1.891-.125.14-.187.266-.187.297 0 .078.265.265.328.265.125 0 1.281-1.062 1.281-2.453zm0 0"/></svg><svg overflow="visible" x="-.415" y="40.064"><path d="M2.094 2.625V-8.859c0-.125-.297-.375-.438-.375-.125 0-.437.25-.437.375V2.625c0 .125.312.36.437.36.14 0 .438-.235.438-.36zm0 0"/></svg><svg overflow="visible" x="2.909" y="40.064"><path d="M2.094 2.625V-8.859c0-.125-.297-.375-.438-.375-.125 0-.437.25-.437.375V2.625c0 .125.312.36.437.36.14 0 .438-.235.438-.36zm0 0"/></svg><svg overflow="visible" x="6.232" y="40.064"><path d="M9.313-7.938c.03-.328-.22-.453-.516-.453H2.766c-.25 0-.563.125-.563.375 0 .125.313.266.531.266.438 0 .579-.14.579.078 0 .047 0 .063-.063.281L1.672-1.062c-.125.468.062.421-.89.421C.577-.64.25-.5.25-.28.25-.125.563 0 .781 0H7c.266 0 .469-.14.547-.328l1.11-2.594c.015-.047 0-.062 0-.062s-.141-.36-.282-.36c-.11 0-.328.203-.36.266C7.25-1.297 7-.641 4.954-.641h-2c-.125-.015.031.11.031 0 0-.03 0-.046.063-.265l.781-3.14H4.86c1.016 0 .813.124.813.421 0 .094 0 .234-.094.594-.016.062-.031.094-.031.125 0 .062.25.265.36.265.093 0 .327-.187.374-.375l.672-2.796c0-.063-.25-.266-.328-.266-.11 0-.344.203-.375.36-.25.905-.266 1.046-1.36 1.046H4l.672-2.75c.11-.422-.063-.328.453-.328h1.688c1.453 0 1.609.203 1.609 1.188 0 .28 0 .312-.047.64 0 .063-.016.156-.016.203 0 .063.25.282.36.282.125 0 .328-.204.36-.438zm0 0"/></svg><svg overflow="visible" x="15.701" y="35.724"><path d="M3.063-4.313c0-.25-.422-.609-.672-.609-.172 0-.563.281-.61.406l-1.5 3.72H1L2.922-3.97c.047-.062.14-.265.14-.344zm0 0"/></svg><svg overflow="visible" x="19.605" y="40.064"><path d="M2.094 2.625V-8.859c0-.125-.297-.375-.438-.375-.125 0-.437.25-.437.375V2.625c0 .125.312.36.437.36.14 0 .438-.235.438-.36zm0 0"/></svg><svg overflow="visible" x="22.929" y="40.064"><path d="M2.094 2.625V-8.859c0-.125-.297-.375-.438-.375-.125 0-.437.25-.437.375V2.625c0 .125.312.36.437.36.14 0 .438-.235.438-.36zm0 0"/></svg><svg overflow="visible" x="29.564" y="40.064"><path d="M8.828-4.281c0-.125-.312-.375-.437-.375H.906c-.125 0-.437.25-.437.375 0 .14.312.375.437.375h7.485c.125 0 .437-.235.437-.375zm0 2.328c0-.14-.312-.375-.437-.375H.906c-.125 0-.437.234-.437.375 0 .125.312.36.437.36h7.485c.125 0 .437-.235.437-.36zm0 0"/></svg><svg overflow="visible" x="42.196" y="39.491"><path d="M12.39-10.047c0-.14-.296-.375-.437-.375-.156 0-.406.235-.469.375L5.313 2.813h.406L3.062-3.375l-2 1.516.407.421.781-.593 2.672 6.219c.516 0 .656-.047.937-.563l6.516-13.594c-.047.078.016-.047.016-.078zm0 0"/></svg><path d="M54.152 29.566h111.903" fill="none" stroke-width=".478" stroke="#000" stroke-miterlimit="10"/><svg overflow="visible" x="54.151" y="40.064"><path d="M4.156 2.719c0-.047-.078-.172-.11-.203-1.234-.922-2-3.22-2-5.141v-1c0-1.906.767-4.203 2-5.14a.457.457 0 00.11-.188c0-.063-.25-.25-.312-.25a1.01 1.01 0 00-.203.062C2.312-8.156 1-5.67 1-3.625v1C1-.578 2.313 1.906 3.64 2.906c.016.016.188.063.204.063.062 0 .312-.203.312-.25zm0 0"/></svg><svg overflow="visible" x="58.802" y="40.064"><path d="M8.828-3.125c0-.125-.312-.36-.437-.36H.906c-.125 0-.437.235-.437.36 0 .14.312.375.437.375h7.485c.125 0 .437-.234.437-.375zm0 0"/></svg><svg overflow="visible" x="68.103" y="40.064"><path d="M5.219-4.39c0-.532-.719-1.157-1.625-1.157-1.578 0-2.219 1.344-2.219 1.875 0 .938 1.094 1.25 1.438 1.313.624.125 1.03.125 1.03.78 0 .313-.062 1.188-1.5 1.188-.171 0-.89.125-1.093-.328.188.016.672-.469.672-.812 0-.282-.375-.547-.625-.547-.313 0-.875.375-.875.922 0 .672.875 1.281 1.906 1.281 1.938 0 2.594-1.578 2.594-2.11 0-.437-.281-.827-.422-.968-.328-.328-.813-.422-1.328-.531-.438-.094-.719-.047-.719-.594 0-.344.094-.938 1.14-.938.298 0 .704-.046.829.282-.078.015-.531.406-.531.671 0 .172.312.485.578.485.265 0 .75-.344.75-.813zm0 0"/></svg><svg overflow="visible" x="73.71" y="40.064"><path d="M3.578-7.61c0-.234-.344-.546-.625-.546-.328 0-.844.437-.844.75 0 .234.36.562.657.562.265 0 .812-.406.812-.765zm.11 5.766c0-.11-.297-.25-.329-.25-.125 0-.328.172-.39.344-.203.766-.406 1.36-1.016 1.36-.203 0-.094.015-.094-.266 0-.297.079-.469.36-1.203l.453-1.25c.156-.344.156-.375.265-.688.094-.25.157-.406.157-.64 0-.532-.578-1.11-1.172-1.11C.797-5.547.14-3.687.14-3.578c0 .125.484.219.484.219l-.14.03c.124 0 .328-.155.39-.343.313-1.125.61-1.344 1.016-1.344.093 0 .093-.14.093.25 0 .25-.078.5-.125.625-.109.297-.64 1.688-.828 2.204-.125.312-.281.703-.281.953 0 .562.61 1.109 1.188 1.109 1.125 0 1.75-1.86 1.75-1.969zm0 0"/></svg><svg overflow="visible" x="77.834" y="40.064"><path d="M7.016-1.844c0-.11-.297-.25-.329-.25-.125 0-.328.172-.39.344-.234.813-.422 1.36-1.016 1.36-.203 0-.093.015-.093-.266 0-.297.109-.594.218-.844.219-.64.719-1.953.719-2.64 0-.798-.703-1.407-1.563-1.407-1.078 0-1.796.797-2 1.078l.329.094c-.063-.672-.735-1.172-1.282-1.172-.562 0-.921.5-1.14.89C.313-4.327.14-3.624.14-3.577c0 .125.484.219.484.219l-.14.03c.124 0 .328-.14.406-.405.203-.844.25-1.282.671-1.282.25 0 .172.016.172.407 0 .265-.03.39-.187 1.015L.844-.844c-.031.188-.11.469-.11.516 0 .219.375.453.563.453.14 0 .547-.219.656-.547-.078.156.125-.5.203-.797l.266-1.078c.062-.265.14-.531.203-.797l.14-.594c.188-.374.626-1.328 1.766-1.328.532 0 .438.313.438.704 0 .734-.578 2.265-.766 2.78-.11.282-.125.423-.125.548 0 .562.625 1.109 1.188 1.109 1.125 0 1.75-1.875 1.75-1.969zm0 0"/></svg><svg overflow="visible" x="85.007" y="40.064"><path d="M4.156 2.719c0-.047-.078-.172-.11-.203-1.234-.922-2-3.22-2-5.141v-1c0-1.906.767-4.203 2-5.14a.457.457 0 00.11-.188c0-.063-.25-.25-.312-.25a1.01 1.01 0 00-.203.062C2.312-8.156 1-5.67 1-3.625v1C1-.578 2.313 1.906 3.64 2.906c.016.016.188.063.204.063.062 0 .312-.203.312-.25zm0 0"/></svg><svg overflow="visible" x="89.658" y="40.064"><path d="M7.594-3.766c0-.937-.657-1.78-1.563-1.78-1.734 0-2.656 2.452-3.312 4.609-1.14-.204-1.625-.735-1.625-1.594 0-.344.218-1.563.937-2.375.094-.11.094-.157.094-.157l.063-.093c0-.063-.22-.266-.329-.266-.343 0-1.468 1.875-1.468 3.016 0 1.125 1 2.125 2.046 2.375l-.609 1.937c-.047.157-.062.172-.062.235 0 .265.437.468.546.468.063 0 .516-.171.641-.453.031-.094.094-.484.39-2.031h.235c1.985 0 4.016-2 4.016-3.89zm-.735.266c0 1.344-1.343 2.672-3.171 2.672-.11 0-.126 0-.22-.016-.14 0 .032.125.032.094l.234-1.297C4.11-3.578 4.86-4.594 5.922-4.594c.812 0 .937.516.937 1.094zm0 0"/></svg><svg overflow="visible" x="97.477" y="40.064"><path d="M3.64-2.625v-1c0-2.047-1.328-4.531-2.64-5.516a.774.774 0 00-.203-.062c-.063 0-.313.187-.313.25 0 .031.079.172.094.187 1.25.938 2.016 3.235 2.016 5.141v1c0 1.922-.766 4.219-2.016 5.14-.015.032-.094.157-.094.204 0 .047.25.25.313.25A.774.774 0 001 2.906c1.313-1 2.64-3.484 2.64-5.531zm0 0"/></svg><svg overflow="visible" x="102.127" y="40.064"><path d="M3.64-2.625v-1c0-2.047-1.328-4.531-2.64-5.516a.774.774 0 00-.203-.062c-.063 0-.313.187-.313.25 0 .031.079.172.094.187 1.25.938 2.016 3.235 2.016 5.141v1c0 1.922-.766 4.219-2.016 5.14-.015.032-.094.157-.094.204 0 .047.25.25.313.25A.774.774 0 001 2.906c1.313-1 2.64-3.484 2.64-5.531zm0 0"/></svg><svg overflow="visible" x="106.778" y="36.608"><path d="M4.234-1.844H3.75c-.047.344-.063.735-.172.813-.062.047-.562 0-.687 0H1.812c.563-.5.86-.735 1.36-1.125.625-.5 1.265-1.14 1.265-1.938 0-1-1.093-1.781-2.171-1.781-1.032 0-1.954.89-1.954 1.656 0 .422.579.625.657.625.203 0 .656-.297.656-.61 0-.14-.266-.593-.422-.593.188-.437.547-.469.938-.469.843 0 1.062.5 1.062 1.172 0 .735-.453 1.203-.719 1.5l-2.03 2C.374-.516.311-.39.311 0h3.844l.313-1.844zm0 0"/></svg><svg overflow="visible" x="114.694" y="40.064"><path d="M8.828-3.125c0-.125-.312-.36-.437-.36H5.078v-3.374c0-.141-.297-.375-.422-.375-.14 0-.453.234-.453.375v3.375H.906c-.125 0-.437.234-.437.359 0 .14.312.375.437.375h3.297V.625c0 .125.313.36.453.36.125 0 .422-.235.422-.36V-2.75h3.313c.125 0 .437-.234.437-.375zm0 0"/></svg><svg overflow="visible" x="126.649" y="40.064"><path d="M5.328-1.406c0-.078-.266-.297-.328-.297-.063 0-.234.062-.297.156C3.75-.359 2.593-.39 2.453-.39c-.75 0-.89-.453-.89-1.171 0-.5.187-1.563.593-2.297.36-.688.89-1.157 1.547-1.157.406 0 .719.11.766.204.078 0-.235.046-.407.203a1.026 1.026 0 00-.265.562c0 .297.406.563.64.563.344 0 .86-.422.86-.907 0-.578-.75-1.156-1.61-1.156-1.609 0-3.406 1.844-3.406 3.531 0 1.079.906 2.141 2.14 2.141 1.72 0 2.907-1.39 2.907-1.531zm0 0"/></svg><svg overflow="visible" x="132.125" y="40.064"><path d="M5.797-3.39c0-1.25-1.031-2.157-2.11-2.157-1.593 0-3.406 1.828-3.406 3.531C.281-.844 1.297.125 2.406.125c1.594 0 3.39-1.781 3.39-3.516zM4.53-3.86c0 .47-.187 1.626-.64 2.407-.407.687-.922 1.062-1.47 1.062-.515 0-.858-.25-.858-1.171 0-.594.25-1.782.64-2.391.594-.922 1.14-1.063 1.485-1.063.687 0 .843.438.843 1.157zm0 0"/></svg><svg overflow="visible" x="138.066" y="40.064"><path d="M5.219-4.39c0-.532-.719-1.157-1.625-1.157-1.578 0-2.219 1.344-2.219 1.875 0 .938 1.094 1.25 1.438 1.313.624.125 1.03.125 1.03.78 0 .313-.062 1.188-1.5 1.188-.171 0-.89.125-1.093-.328.188.016.672-.469.672-.812 0-.282-.375-.547-.625-.547-.313 0-.875.375-.875.922 0 .672.875 1.281 1.906 1.281 1.938 0 2.594-1.578 2.594-2.11 0-.437-.281-.827-.422-.968-.328-.328-.813-.422-1.328-.531-.438-.094-.719-.047-.719-.594 0-.344.094-.938 1.14-.938.298 0 .704-.046.829.282-.078.015-.531.406-.531.671 0 .172.312.485.578.485.265 0 .75-.344.75-.813zm0 0"/></svg><svg overflow="visible" x="143.677" y="36.608"><path d="M4.234-1.844H3.75c-.047.344-.063.735-.172.813-.062.047-.562 0-.687 0H1.812c.563-.5.86-.735 1.36-1.125.625-.5 1.265-1.14 1.265-1.938 0-1-1.093-1.781-2.171-1.781-1.032 0-1.954.89-1.954 1.656 0 .422.579.625.657.625.203 0 .656-.297.656-.61 0-.14-.266-.593-.422-.593.188-.437.547-.469.938-.469.843 0 1.062.5 1.062 1.172 0 .735-.453 1.203-.719 1.5l-2.03 2C.374-.516.311-.39.311 0h3.844l.313-1.844zm0 0"/></svg><svg overflow="visible" x="148.937" y="40.064"><path d="M4.156 2.719c0-.047-.078-.172-.11-.203-1.234-.922-2-3.22-2-5.141v-1c0-1.906.767-4.203 2-5.14a.457.457 0 00.11-.188c0-.063-.25-.25-.312-.25a1.01 1.01 0 00-.203.062C2.312-8.156 1-5.67 1-3.625v1C1-.578 2.313 1.906 3.64 2.906c.016.016.188.063.204.063.062 0 .312-.203.312-.25zm0 0"/></svg><svg overflow="visible" x="153.588" y="40.064"><path d="M7.594-3.766c0-.937-.657-1.78-1.563-1.78-1.734 0-2.656 2.452-3.312 4.609-1.14-.204-1.625-.735-1.625-1.594 0-.344.218-1.563.937-2.375.094-.11.094-.157.094-.157l.063-.093c0-.063-.22-.266-.329-.266-.343 0-1.468 1.875-1.468 3.016 0 1.125 1 2.125 2.046 2.375l-.609 1.937c-.047.157-.062.172-.062.235 0 .265.437.468.546.468.063 0 .516-.171.641-.453.031-.094.094-.484.39-2.031h.235c1.985 0 4.016-2 4.016-3.89zm-.735.266c0 1.344-1.343 2.672-3.171 2.672-.11 0-.126 0-.22-.016-.14 0 .032.125.032.094l.234-1.297C4.11-3.578 4.86-4.594 5.922-4.594c.812 0 .937.516.937 1.094zm0 0"/></svg><svg overflow="visible" x="161.406" y="40.064"><path d="M3.64-2.625v-1c0-2.047-1.328-4.531-2.64-5.516a.774.774 0 00-.203-.062c-.063 0-.313.187-.313.25 0 .031.079.172.094.187 1.25.938 2.016 3.235 2.016 5.141v1c0 1.922-.766 4.219-2.016 5.14-.015.032-.094.157-.094.204 0 .047.25.25.313.25A.774.774 0 001 2.906c1.313-1 2.64-3.484 2.64-5.531zm0 0"/></svg><svg overflow="visible" x="169.368" y="40.064"><path d="M8.828-4.281c0-.125-.312-.375-.437-.375H.906c-.125 0-.437.25-.437.375 0 .14.312.375.437.375h7.485c.125 0 .437-.235.437-.375zm0 2.328c0-.14-.312-.375-.437-.375H.906c-.125 0-.437.234-.437.375 0 .125.312.36.437.36h7.485c.125 0 .437-.235.437-.36zm0 0"/></svg><svg overflow="visible" x="181.993" y="40.064"><path d="M5.203-.125v-.516h-.578c-1.078 0-.922 0-.922-.437v-6.703c0-.282-.187-.438-.578-.438-.766.797-1.672.766-2.266.766v.625c.438 0 1.282-.031 1.563-.172v5.922c0 .437.172.437-.906.437H.937v.672C1.547-.03 2.595-.03 3.079-.03c.469 0 1.516 0 2.125.062zm0 0"/></svg><svg overflow="visible" x="191.868" y="40.064"><path d="M2.625-.14c0-.797-.5-1.391-.969-1.391-.39 0-.828.437-.828.765 0 .329.438.766.828.766.157 0 .438-.078.563-.188l.047-.046s-.313-.078-.313.093c0 .875-.344 1.5-.75 1.891-.125.14-.187.266-.187.297 0 .078.265.265.328.265.125 0 1.281-1.062 1.281-2.453zm0 0"/></svg><svg overflow="visible" x="-.415" y="81.153"><path d="M9.219 14.5c0-.125-.281-.39-.39-.422-1.657-.61-2.642-2.281-2.642-3.75V1.36c0-1.75-1.484-3.671-3.03-4.484 1.546-.797 3.03-2.719 3.03-4.484v-8.954c0-1.468.985-3.14 2.641-3.75.11-.046.39-.296.39-.421 0-.172-.343-.453-.5-.453-.046 0-.077.015-.109.03-2.015.735-4.03 2.782-4.03 4.595v8.953c0 1.64-.954 3.468-2.626 4.078-.11.031-.406.281-.406.406 0 .14.297.39.406.422 1.672.61 2.625 2.422 2.625 4.062v8.97c0 1.796 2.016 3.858 4.031 4.593.032 0 .063.015.11.015.156 0 .5-.265.5-.437zm0 0"/></svg><svg overflow="visible" x="15.35" y="71.367"><path d="M9.281-8.438c0-.03-.219-.25-.328-.25a.701.701 0 00-.328.172l-.672.75c0 .016-.672-.921-2-.921-2.672 0-5.562 2.765-5.562 5.546C.39-1.17 2.016.266 3.844.266c1.031 0 2.078-.516 2.703-1.063C7.657-1.78 7.922-2.969 7.922-3c0-.125-.203-.031-.203-.031l-.125-.219c-.078 0-.344.156-.36.25-.109.344-.328 1.094-1.156 1.797-.812.672-1.422.828-2.047.828-1.078 0-2.156-.484-2.156-2.344 0-.687.188-2.531 1.39-3.922C4-7.5 4.986-8.062 6.048-8.062c1.219 0 1.719.796 1.719 2.187 0 .469-.032.484-.032.61 0 .109.329.25.375.25.157 0 .36-.157.407-.376zm0 0"/></svg><svg overflow="visible" x="23.898" y="74.32"><path d="M4.234-1.844H3.75c-.047.344-.063.735-.172.813-.062.047-.562 0-.687 0H1.812c.563-.5.86-.735 1.36-1.125.625-.5 1.265-1.14 1.265-1.938 0-1-1.093-1.781-2.171-1.781-1.032 0-1.954.89-1.954 1.656 0 .422.579.625.657.625.203 0 .656-.297.656-.61 0-.14-.266-.593-.422-.593.188-.437.547-.469.938-.469.843 0 1.062.5 1.062 1.172 0 .735-.453 1.203-.719 1.5l-2.03 2C.374-.516.311-.39.311 0h3.844l.313-1.844zm0 0"/></svg><svg overflow="visible" x="29.158" y="71.367"><path d="M6.484-4.625c0-.625-.89-.922-1.296-.922-.688 0-1.25.672-1.235.61-.125-.36-.969-.61-1.312-.61-1.235 0-2.125 1.672-2.125 1.969 0 .125.468.219.468.219l-.125.03c.094 0 .329-.155.344-.25.406-1.28 1.016-1.437 1.422-1.437.219 0 .438-.03.438.672 0 .36-.204 1.172-.641 2.844-.203.734-.406 1.11-.938 1.11-.078 0-.218.03-.218.03-.079.016.375-.374.375-.703 0-.328-.454-.546-.641-.546-.36 0-.86.437-.86.828 0 .547.797.906 1.329.906.797 0 1.36-.86 1.39-.938l-.343-.093c.156.437.78 1.031 1.5 1.031 1.234 0 2.109-1.672 2.109-1.969 0-.11-.297-.25-.344-.25-.11 0-.328.188-.36.266-.39 1.281-1 1.437-1.374 1.437-.469 0-.469-.25-.469-.656 0-.266.063-.531.203-1.062l.406-1.625c.063-.313.157-1.282.985-1.282a.604.604 0 00.187-.046c.079 0-.359.421-.359.718 0 .188.328.547.656.547.266 0 .828-.344.828-.828zm0 0"/></svg><svg overflow="visible" x="39.308" y="71.367"><path d="M8.828-4.281c0-.125-.312-.375-.437-.375H.906c-.125 0-.437.25-.437.375 0 .14.312.375.437.375h7.485c.125 0 .437-.235.437-.375zm0 2.328c0-.14-.312-.375-.437-.375H.906c-.125 0-.437.234-.437.375 0 .125.312.36.437.36h7.485c.125 0 .437-.235.437-.36zm0 0"/></svg><svg overflow="visible" x="51.933" y="71.367"><path d="M9.313-7.938c.03-.328-.22-.453-.516-.453H2.766c-.25 0-.563.125-.563.375 0 .125.313.266.531.266.438 0 .579-.14.579.078 0 .047 0 .063-.063.281L1.672-1.062c-.125.468.062.421-.89.421C.577-.64.25-.5.25-.28.25-.125.563 0 .781 0H7c.266 0 .469-.14.547-.328l1.11-2.594c.015-.047 0-.062 0-.062s-.141-.36-.282-.36c-.11 0-.328.203-.36.266C7.25-1.297 7-.641 4.954-.641h-2c-.125-.015.031.11.031 0 0-.03 0-.046.063-.265l.781-3.14H4.86c1.016 0 .813.124.813.421 0 .094 0 .234-.094.594-.016.062-.031.094-.031.125 0 .062.25.265.36.265.093 0 .327-.187.374-.375l.672-2.796c0-.063-.25-.266-.328-.266-.11 0-.344.203-.375.36-.25.905-.266 1.046-1.36 1.046H4l.672-2.75c.11-.422-.063-.328.453-.328h1.688c1.453 0 1.609.203 1.609 1.188 0 .28 0 .312-.047.64 0 .063-.016.156-.016.203 0 .063.25.282.36.282.125 0 .328-.204.36-.438zm0 0"/></svg><svg overflow="visible" x="60.763" y="74.32"><path d="M5.094-3.234c0-.47-.75-.782-1.078-.782-.422 0-.907.329-.922.344.031.078-.563-.344-1.031-.344C1.125-4.016.39-2.828.39-2.578c0 .11.328.281.343.281.11 0 .329-.203.375-.312.204-.657.532-.844.938-.844.265 0 .297-.016.297.39 0 .172-.11.579-.188.876l-.281 1.14c-.078.281-.156.578-.578.578-.031 0-.125.047-.078.078-.032.016.203-.453.203-.5 0-.187-.344-.468-.547-.468-.234 0-.688.359-.688.671 0 .422.688.766 1.094.766.39 0 .875-.281.907-.344.03.047.687.344 1.03.344.954 0 1.688-1.203 1.688-1.437 0-.11-.328-.266-.343-.266-.125 0-.344.203-.375.297-.172.578-.47.86-.938.86-.328 0-.297-.063-.297-.391 0-.22.203-.97.438-1.907.156-.64.328-.687.609-.687l.14-.047s-.015 0-.093-.047c.125-.031-.172.36-.172.5 0 .188.344.469.531.469.203 0 .688-.313.688-.656zm0 0"/></svg><svg overflow="visible" x="69.341" y="71.367"><path d="M8.828-3.125c0-.125-.312-.36-.437-.36H.906c-.125 0-.437.235-.437.36 0 .14.312.375.437.375h7.485c.125 0 .437-.234.437-.375zm0 0"/></svg><svg overflow="visible" x="81.296" y="71.367"><path d="M9.281-8.438c0-.03-.219-.25-.328-.25a.701.701 0 00-.328.172l-.672.75c0 .016-.672-.921-2-.921-2.672 0-5.562 2.765-5.562 5.546C.39-1.17 2.016.266 3.844.266c1.031 0 2.078-.516 2.703-1.063C7.657-1.78 7.922-2.969 7.922-3c0-.125-.203-.031-.203-.031l-.125-.219c-.078 0-.344.156-.36.25-.109.344-.328 1.094-1.156 1.797-.812.672-1.422.828-2.047.828-1.078 0-2.156-.484-2.156-2.344 0-.687.188-2.531 1.39-3.922C4-7.5 4.986-8.062 6.048-8.062c1.219 0 1.719.796 1.719 2.187 0 .469-.032.484-.032.61 0 .109.329.25.375.25.157 0 .36-.157.407-.376zm0 0"/></svg><svg overflow="visible" x="89.847" y="74.32"><path d="M4.172-.156v-.469H3.64c-.829 0-.625.063-.625-.219v-4.64c0-.235-.235-.391-.563-.391-.578.578-1.203.531-1.75.531v.625c.406 0 1.11-.047 1.219-.11v3.985c0 .281.203.219-.625.219H.766v.64L2.469-.03l1.703.047zm0 0"/></svg><svg overflow="visible" x="94.609" y="74.32"><path d="M4.906-3.5c0-.172-.343-.422-.5-.422-.078 0-.39.094-.484.25a3.37 3.37 0 00-.188.594l-.187.687-.328 1.36.344.11S3.046-.47 2.39-.47c-.563 0-.36-.39-.36-.531 0-.453.203-.984.453-1.625.094-.266.141-.375.141-.516 0-.406-.563-.875-1.016-.875-.843 0-1.421 1.297-1.421 1.438 0 .11.328.281.343.281.125 0 .344-.203.36-.297.218-.703.359-.86.703-.86.14 0 0-.077 0 .126s-.078.375-.125.484C1.079-1.813.984-1.5.984-1.14c0 .141.063.657.391.922.266.219.766.297.984.297.344 0 .782-.156 1.063-.406l-.36-.125c-.109.469-.14.703-.484 1.125-.234.25-.422.484-.86.484-.062 0-.312.047-.343.016.172-.031.313-.484.313-.484l.062-.11c0-.265-.453-.484-.531-.484C1 .094.516.422.516.813c0 .421.609.89 1.203.89.86 0 2.093-.812 2.343-1.86l.797-3.155c.047-.126.047-.141.047-.188zm0 0"/></svg><svg overflow="visible" x="102.685" y="71.367"><path d="M2.484-3.125c0-.344-.468-.766-.828-.766-.343 0-.828.422-.828.766 0 .36.485.766.828.766.36 0 .828-.407.828-.766zm0 0"/></svg><svg overflow="visible" x="113.733" y="65.671"><path d="M7.25-5.594C7.281-5.844 7.016-6 6.797-6h-4.61c-.156 0-.468.156-.468.344 0 .11.297.265.484.265.14 0 .172 0 .313.016.171.016-.016-.125-.016-.031 0 .047-.031.14-.031.187L1.359-.844c-.078.328.125.219-.53.219-.157 0-.454.172-.454.344 0 .125.297.281.453.281h4.734a.62.62 0 00.5-.313l.782-1.78c.047-.11-.016-.032-.016-.032l.063-.125c0-.047-.235-.266-.344-.266l.14.266s-.359-.219-.39-.188c-.016.016-.078.141-.188.36C5.563-.875 5.36-.625 3.984-.625H2.563c-.266 0-.063.156-.063.078l-.063.125s.063-.172.094-.297l.531-2.094h.766c.656 0 .547-.046.547.235 0 .094-.016.234-.047.375-.031.078.313.219.313.219s-.125.156 0 .156.343-.203.375-.344L5.484-4c.016-.11-.046-.016-.046-.016l.062-.109c0-.094-.281-.281-.344-.281-.11 0-.328.203-.375.375-.187.656-.218.61-.937.61h-.64l.468-1.845c.078-.25-.125-.125.219-.125h1.375c1.093 0 1.156.079 1.156.813 0 .219-.031.469-.031.516 0 .062.234.296.343.296.141 0 .344-.234.375-.375zm0 0"/></svg><svg overflow="visible" x="121.006" y="62.633"><path d="M2.64-3.594c0-.203-.374-.562-.593-.562-.156 0-.5.281-.531.39L.219-.562h.656l1.64-2.704c.032-.062.126-.25.126-.328zm0 0"/></svg><svg overflow="visible" x="120.755" y="67.738"><path d="M4.281-2.328c0-.36-.593-.672-.906-.672-.39 0-.797.297-.75.25-.078-.14-.594-.25-.813-.25-.75 0-1.375.875-1.375 1.11 0 .077.297.25.329.25.046 0 .296-.173.328-.25.172-.579.468-.548.703-.548.187 0 .219-.093.219.22 0 .14-.11.562-.313 1.359-.094.343-.172.359-.422.359-.047 0-.078.063.032.125-.125.047.078-.36.078-.39 0-.172-.329-.422-.47-.422-.14 0-.562.296-.562.578 0 .375.61.671.907.671.328 0 .734-.234.75-.25.093.157.625.25.796.25.766 0 1.376-.89 1.376-1.109 0-.078-.297-.25-.313-.25-.11 0-.328.203-.344.266C3.36-.5 3.11-.5 2.844-.5c-.188 0-.235.11-.235-.219 0-.078 0-.11.047-.312.11-.422.266-1.094.297-1.14.031-.079.094-.267.406-.267.016 0 .079-.062-.046-.14.124-.047.265.531.265.531l-.344-.125c0 .094.282.422.47.422.171 0 .577-.328.577-.578zm0 0"/></svg><path d="M109.86 68.379h20" fill="none" stroke-width=".478" stroke="#000" stroke-miterlimit="10"/><svg overflow="visible" x="109.861" y="75.492"><path d="M1.547 1.766v-8.032c0-.093-.297-.328-.375-.328-.094 0-.39.235-.39.328v8.032c0 .093.296.328.39.328.078 0 .375-.235.375-.328zm0 0"/></svg><svg overflow="visible" x="112.187" y="75.492"><path d="M1.547 1.766v-8.032c0-.093-.297-.328-.375-.328-.094 0-.39.235-.39.328v8.032c0 .093.296.328.39.328.078 0 .375-.235.375-.328zm0 0"/></svg><svg overflow="visible" x="114.514" y="75.492"><path d="M7.25-5.594C7.281-5.844 7.016-6 6.797-6h-4.61c-.156 0-.468.156-.468.344 0 .11.297.265.484.265.14 0 .172 0 .313.016.171.016-.016-.125-.016-.031 0 .047-.031.14-.031.187L1.359-.844c-.078.328.125.219-.53.219-.157 0-.454.172-.454.344 0 .125.297.281.453.281h4.734a.62.62 0 00.5-.313l.782-1.78c.047-.11-.016-.032-.016-.032l.063-.125c0-.047-.235-.266-.344-.266l.14.266s-.359-.219-.39-.188c-.016.016-.078.141-.188.36C5.563-.875 5.36-.625 3.984-.625H2.563c-.266 0-.063.156-.063.078l-.063.125s.063-.172.094-.297l.531-2.094h.766c.656 0 .547-.046.547.235 0 .094-.016.234-.047.375-.031.078.313.219.313.219s-.125.156 0 .156.343-.203.375-.344L5.484-4c.016-.11-.046-.016-.046-.016l.062-.109c0-.094-.281-.281-.344-.281-.11 0-.328.203-.375.375-.187.656-.218.61-.937.61h-.64l.468-1.845c.078-.25-.125-.125.219-.125h1.375c1.093 0 1.156.079 1.156.813 0 .219-.031.469-.031.516 0 .062.234.296.343.296.141 0 .344-.234.375-.375zm0 0"/></svg><svg overflow="visible" x="121.786" y="73.073"><path d="M2.64-3.594c0-.203-.374-.562-.593-.562-.156 0-.5.281-.531.39L.219-.562h.656l1.64-2.704c.032-.062.126-.25.126-.328zm0 0"/></svg><svg overflow="visible" x="125.207" y="75.492"><path d="M1.547 1.766v-8.032c0-.093-.297-.328-.375-.328-.094 0-.39.235-.39.328v8.032c0 .093.296.328.39.328.078 0 .375-.235.375-.328zm0 0"/></svg><svg overflow="visible" x="127.533" y="75.492"><path d="M1.547 1.766v-8.032c0-.093-.297-.328-.375-.328-.094 0-.39.235-.39.328v8.032c0 .093.296.328.39.328.078 0 .375-.235.375-.328zm0 0"/></svg><svg overflow="visible" x="134.377" y="71.367"><path d="M8.828-4.281c0-.125-.312-.375-.437-.375H.906c-.125 0-.437.25-.437.375 0 .14.312.375.437.375h7.485c.125 0 .437-.235.437-.375zm0 2.328c0-.14-.312-.375-.437-.375H.906c-.125 0-.437.234-.437.375 0 .125.312.36.437.36h7.485c.125 0 .437-.235.437-.36zm0 0"/></svg><svg overflow="visible" x="146.99" y="71.367"><path d="M5.328-1.406c0-.078-.266-.297-.328-.297-.063 0-.234.062-.297.156C3.75-.359 2.593-.39 2.453-.39c-.75 0-.89-.453-.89-1.171 0-.5.187-1.563.593-2.297.36-.688.89-1.157 1.547-1.157.406 0 .719.11.766.204.078 0-.235.046-.407.203a1.026 1.026 0 00-.265.562c0 .297.406.563.64.563.344 0 .86-.422.86-.907 0-.578-.75-1.156-1.61-1.156-1.609 0-3.406 1.844-3.406 3.531 0 1.079.906 2.141 2.14 2.141 1.72 0 2.907-1.39 2.907-1.531zm0 0"/></svg><svg overflow="visible" x="152.465" y="71.367"><path d="M5.797-3.39c0-1.25-1.031-2.157-2.11-2.157-1.593 0-3.406 1.828-3.406 3.531C.281-.844 1.297.125 2.406.125c1.594 0 3.39-1.781 3.39-3.516zM4.53-3.86c0 .47-.187 1.626-.64 2.407-.407.687-.922 1.062-1.47 1.062-.515 0-.858-.25-.858-1.171 0-.594.25-1.782.64-2.391.594-.922 1.14-1.063 1.485-1.063.687 0 .843.438.843 1.157zm0 0"/></svg><svg overflow="visible" x="158.407" y="71.367"><path d="M5.219-4.39c0-.532-.719-1.157-1.625-1.157-1.578 0-2.219 1.344-2.219 1.875 0 .938 1.094 1.25 1.438 1.313.624.125 1.03.125 1.03.78 0 .313-.062 1.188-1.5 1.188-.171 0-.89.125-1.093-.328.188.016.672-.469.672-.812 0-.282-.375-.547-.625-.547-.313 0-.875.375-.875.922 0 .672.875 1.281 1.906 1.281 1.938 0 2.594-1.578 2.594-2.11 0-.437-.281-.827-.422-.968-.328-.328-.813-.422-1.328-.531-.438-.094-.719-.047-.719-.594 0-.344.094-.938 1.14-.938.298 0 .704-.046.829.282-.078.015-.531.406-.531.671 0 .172.312.485.578.485.265 0 .75-.344.75-.813zm0 0"/></svg><svg overflow="visible" x="164.014" y="71.367"><path d="M4.156 2.719c0-.047-.078-.172-.11-.203-1.234-.922-2-3.22-2-5.141v-1c0-1.906.767-4.203 2-5.14a.457.457 0 00.11-.188c0-.063-.25-.25-.312-.25a1.01 1.01 0 00-.203.062C2.312-8.156 1-5.67 1-3.625v1C1-.578 2.313 1.906 3.64 2.906c.016.016.188.063.204.063.062 0 .312-.203.312-.25zm0 0"/></svg><svg overflow="visible" x="168.665" y="71.367"><path d="M7.594-3.766c0-.937-.657-1.78-1.563-1.78-1.734 0-2.656 2.452-3.312 4.609-1.14-.204-1.625-.735-1.625-1.594 0-.344.218-1.563.937-2.375.094-.11.094-.157.094-.157l.063-.093c0-.063-.22-.266-.329-.266-.343 0-1.468 1.875-1.468 3.016 0 1.125 1 2.125 2.046 2.375l-.609 1.937c-.047.157-.062.172-.062.235 0 .265.437.468.546.468.063 0 .516-.171.641-.453.031-.094.094-.484.39-2.031h.235c1.985 0 4.016-2 4.016-3.89zm-.735.266c0 1.344-1.343 2.672-3.171 2.672-.11 0-.126 0-.22-.016-.14 0 .032.125.032.094l.234-1.297C4.11-3.578 4.86-4.594 5.922-4.594c.812 0 .937.516.937 1.094zm0 0"/></svg><svg overflow="visible" x="176.483" y="71.367"><path d="M3.64-2.625v-1c0-2.047-1.328-4.531-2.64-5.516a.774.774 0 00-.203-.062c-.063 0-.313.187-.313.25 0 .031.079.172.094.187 1.25.938 2.016 3.235 2.016 5.141v1c0 1.922-.766 4.219-2.016 5.14-.015.032-.094.157-.094.204 0 .047.25.25.313.25A.774.774 0 001 2.906c1.313-1 2.64-3.484 2.64-5.531zm0 0"/></svg><svg overflow="visible" x="183.8" y="71.367"><path d="M8.828-3.125c0-.125-.312-.36-.437-.36H5.078v-3.374c0-.141-.297-.375-.422-.375-.14 0-.453.234-.453.375v3.375H.906c-.125 0-.437.234-.437.359 0 .14.312.375.437.375h3.297V.625c0 .125.313.36.453.36.125 0 .422-.235.422-.36V-2.75h3.313c.125 0 .437-.234.437-.375zm0 0"/></svg><svg overflow="visible" x="195.755" y="71.367"><path d="M9.281-8.438c0-.03-.219-.25-.328-.25a.701.701 0 00-.328.172l-.672.75c0 .016-.672-.921-2-.921-2.672 0-5.562 2.765-5.562 5.546C.39-1.17 2.016.266 3.844.266c1.031 0 2.078-.516 2.703-1.063C7.657-1.78 7.922-2.969 7.922-3c0-.125-.203-.031-.203-.031l-.125-.219c-.078 0-.344.156-.36.25-.109.344-.328 1.094-1.156 1.797-.812.672-1.422.828-2.047.828-1.078 0-2.156-.484-2.156-2.344 0-.687.188-2.531 1.39-3.922C4-7.5 4.986-8.062 6.048-8.062c1.219 0 1.719.796 1.719 2.187 0 .469-.032.484-.032.61 0 .109.329.25.375.25.157 0 .36-.157.407-.376zm0 0"/></svg><svg overflow="visible" x="204.306" y="74.32"><path d="M4.172-.156v-.469H3.64c-.829 0-.625.063-.625-.219v-4.64c0-.235-.235-.391-.563-.391-.578.578-1.203.531-1.75.531v.625c.406 0 1.11-.047 1.219-.11v3.985c0 .281.203.219-.625.219H.766v.64L2.469-.03l1.703.047zm0 0"/></svg><svg overflow="visible" x="209.068" y="74.32"><path d="M4.906-3.5c0-.172-.343-.422-.5-.422-.078 0-.39.094-.484.25a3.37 3.37 0 00-.188.594l-.187.687-.328 1.36.344.11S3.046-.47 2.39-.47c-.563 0-.36-.39-.36-.531 0-.453.203-.984.453-1.625.094-.266.141-.375.141-.516 0-.406-.563-.875-1.016-.875-.843 0-1.421 1.297-1.421 1.438 0 .11.328.281.343.281.125 0 .344-.203.36-.297.218-.703.359-.86.703-.86.14 0 0-.077 0 .126s-.078.375-.125.484C1.079-1.813.984-1.5.984-1.14c0 .141.063.657.391.922.266.219.766.297.984.297.344 0 .782-.156 1.063-.406l-.36-.125c-.109.469-.14.703-.484 1.125-.234.25-.422.484-.86.484-.062 0-.312.047-.343.016.172-.031.313-.484.313-.484l.062-.11c0-.265-.453-.484-.531-.484C1 .094.516.422.516.813c0 .421.609.89 1.203.89.86 0 2.093-.812 2.343-1.86l.797-3.155c.047-.126.047-.141.047-.188zm0 0"/></svg><svg overflow="visible" x="217.144" y="71.367"><path d="M2.484-3.125c0-.344-.468-.766-.828-.766-.343 0-.828.422-.828.766 0 .36.485.766.828.766.36 0 .828-.407.828-.766zm0 0"/></svg><svg overflow="visible" x="223.122" y="71.367"><path d="M5.219-4.39c0-.532-.719-1.157-1.625-1.157-1.578 0-2.219 1.344-2.219 1.875 0 .938 1.094 1.25 1.438 1.313.624.125 1.03.125 1.03.78 0 .313-.062 1.188-1.5 1.188-.171 0-.89.125-1.093-.328.188.016.672-.469.672-.812 0-.282-.375-.547-.625-.547-.313 0-.875.375-.875.922 0 .672.875 1.281 1.906 1.281 1.938 0 2.594-1.578 2.594-2.11 0-.437-.281-.827-.422-.968-.328-.328-.813-.422-1.328-.531-.438-.094-.719-.047-.719-.594 0-.344.094-.938 1.14-.938.298 0 .704-.046.829.282-.078.015-.531.406-.531.671 0 .172.312.485.578.485.265 0 .75-.344.75-.813zm0 0"/></svg><svg overflow="visible" x="228.729" y="71.367"><path d="M3.578-7.61c0-.234-.344-.546-.625-.546-.328 0-.844.437-.844.75 0 .234.36.562.657.562.265 0 .812-.406.812-.765zm.11 5.766c0-.11-.297-.25-.329-.25-.125 0-.328.172-.39.344-.203.766-.406 1.36-1.016 1.36-.203 0-.094.015-.094-.266 0-.297.079-.469.36-1.203l.453-1.25c.156-.344.156-.375.265-.688.094-.25.157-.406.157-.64 0-.532-.578-1.11-1.172-1.11C.797-5.547.14-3.687.14-3.578c0 .125.484.219.484.219l-.14.03c.124 0 .328-.155.39-.343.313-1.125.61-1.344 1.016-1.344.093 0 .093-.14.093.25 0 .25-.078.5-.125.625-.109.297-.64 1.688-.828 2.204-.125.312-.281.703-.281.953 0 .562.61 1.109 1.188 1.109 1.125 0 1.75-1.86 1.75-1.969zm0 0"/></svg><svg overflow="visible" x="232.853" y="71.367"><path d="M7.016-1.844c0-.11-.297-.25-.329-.25-.125 0-.328.172-.39.344-.234.813-.422 1.36-1.016 1.36-.203 0-.093.015-.093-.266 0-.297.109-.594.218-.844.219-.64.719-1.953.719-2.64 0-.798-.703-1.407-1.563-1.407-1.078 0-1.796.797-2 1.078l.329.094c-.063-.672-.735-1.172-1.282-1.172-.562 0-.921.5-1.14.89C.313-4.327.14-3.624.14-3.577c0 .125.484.219.484.219l-.14.03c.124 0 .328-.14.406-.405.203-.844.25-1.282.671-1.282.25 0 .172.016.172.407 0 .265-.03.39-.187 1.015L.844-.844c-.031.188-.11.469-.11.516 0 .219.375.453.563.453.14 0 .547-.219.656-.547-.078.156.125-.5.203-.797l.266-1.078c.062-.265.14-.531.203-.797l.14-.594c.188-.374.626-1.328 1.766-1.328.532 0 .438.313.438.704 0 .734-.578 2.265-.766 2.78-.11.282-.125.423-.125.548 0 .562.625 1.109 1.188 1.109 1.125 0 1.75-1.875 1.75-1.969zm0 0"/></svg><svg overflow="visible" x="240.026" y="71.367"><path d="M4.156 2.719c0-.047-.078-.172-.11-.203-1.234-.922-2-3.22-2-5.141v-1c0-1.906.767-4.203 2-5.14a.457.457 0 00.11-.188c0-.063-.25-.25-.312-.25a1.01 1.01 0 00-.203.062C2.312-8.156 1-5.67 1-3.625v1C1-.578 2.313 1.906 3.64 2.906c.016.016.188.063.204.063.062 0 .312-.203.312-.25zm0 0"/></svg><svg overflow="visible" x="244.677" y="71.367"><path d="M7.594-3.766c0-.937-.657-1.78-1.563-1.78-1.734 0-2.656 2.452-3.312 4.609-1.14-.204-1.625-.735-1.625-1.594 0-.344.218-1.563.937-2.375.094-.11.094-.157.094-.157l.063-.093c0-.063-.22-.266-.329-.266-.343 0-1.468 1.875-1.468 3.016 0 1.125 1 2.125 2.046 2.375l-.609 1.937c-.047.157-.062.172-.062.235 0 .265.437.468.546.468.063 0 .516-.171.641-.453.031-.094.094-.484.39-2.031h.235c1.985 0 4.016-2 4.016-3.89zm-.735.266c0 1.344-1.343 2.672-3.171 2.672-.11 0-.126 0-.22-.016-.14 0 .032.125.032.094l.234-1.297C4.11-3.578 4.86-4.594 5.922-4.594c.812 0 .937.516.937 1.094zm0 0"/></svg><svg overflow="visible" x="252.496" y="71.367"><path d="M3.64-2.625v-1c0-2.047-1.328-4.531-2.64-5.516a.774.774 0 00-.203-.062c-.063 0-.313.187-.313.25 0 .031.079.172.094.187 1.25.938 2.016 3.235 2.016 5.141v1c0 1.922-.766 4.219-2.016 5.14-.015.032-.094.157-.094.204 0 .047.25.25.313.25A.774.774 0 001 2.906c1.313-1 2.64-3.484 2.64-5.531zm0 0"/></svg><svg overflow="visible" x="260.47" y="71.367"><path d="M8.828-4.281c0-.125-.312-.375-.437-.375H.906c-.125 0-.437.25-.437.375 0 .14.312.375.437.375h7.485c.125 0 .437-.235.437-.375zm0 2.328c0-.14-.312-.375-.437-.375H.906c-.125 0-.437.234-.437.375 0 .125.312.36.437.36h7.485c.125 0 .437-.235.437-.36zm0 0"/></svg><svg overflow="visible" x="273.082" y="71.367"><path d="M5.328-1.406c0-.078-.266-.297-.328-.297-.063 0-.234.062-.297.156C3.75-.359 2.593-.39 2.453-.39c-.75 0-.89-.453-.89-1.171 0-.5.187-1.563.593-2.297.36-.688.89-1.157 1.547-1.157.406 0 .719.11.766.204.078 0-.235.046-.407.203a1.026 1.026 0 00-.265.562c0 .297.406.563.64.563.344 0 .86-.422.86-.907 0-.578-.75-1.156-1.61-1.156-1.609 0-3.406 1.844-3.406 3.531 0 1.079.906 2.141 2.14 2.141 1.72 0 2.907-1.39 2.907-1.531zm0 0"/></svg><svg overflow="visible" x="278.558" y="71.367"><path d="M5.797-3.39c0-1.25-1.031-2.157-2.11-2.157-1.593 0-3.406 1.828-3.406 3.531C.281-.844 1.297.125 2.406.125c1.594 0 3.39-1.781 3.39-3.516zM4.53-3.86c0 .47-.187 1.626-.64 2.407-.407.687-.922 1.062-1.47 1.062-.515 0-.858-.25-.858-1.171 0-.594.25-1.782.64-2.391.594-.922 1.14-1.063 1.485-1.063.687 0 .843.438.843 1.157zm0 0"/></svg><svg overflow="visible" x="284.5" y="71.367"><path d="M5.219-4.39c0-.532-.719-1.157-1.625-1.157-1.578 0-2.219 1.344-2.219 1.875 0 .938 1.094 1.25 1.438 1.313.624.125 1.03.125 1.03.78 0 .313-.062 1.188-1.5 1.188-.171 0-.89.125-1.093-.328.188.016.672-.469.672-.812 0-.282-.375-.547-.625-.547-.313 0-.875.375-.875.922 0 .672.875 1.281 1.906 1.281 1.938 0 2.594-1.578 2.594-2.11 0-.437-.281-.827-.422-.968-.328-.328-.813-.422-1.328-.531-.438-.094-.719-.047-.719-.594 0-.344.094-.938 1.14-.938.298 0 .704-.046.829.282-.078.015-.531.406-.531.671 0 .172.312.485.578.485.265 0 .75-.344.75-.813zm0 0"/></svg><svg overflow="visible" x="290.107" y="71.367"><path d="M4.156 2.719c0-.047-.078-.172-.11-.203-1.234-.922-2-3.22-2-5.141v-1c0-1.906.767-4.203 2-5.14a.457.457 0 00.11-.188c0-.063-.25-.25-.312-.25a1.01 1.01 0 00-.203.062C2.312-8.156 1-5.67 1-3.625v1C1-.578 2.313 1.906 3.64 2.906c.016.016.188.063.204.063.062 0 .312-.203.312-.25zm0 0"/></svg><svg overflow="visible" x="294.757" y="71.367"><path d="M7.594-3.766c0-.937-.657-1.78-1.563-1.78-1.734 0-2.656 2.452-3.312 4.609-1.14-.204-1.625-.735-1.625-1.594 0-.344.218-1.563.937-2.375.094-.11.094-.157.094-.157l.063-.093c0-.063-.22-.266-.329-.266-.343 0-1.468 1.875-1.468 3.016 0 1.125 1 2.125 2.046 2.375l-.609 1.937c-.047.157-.062.172-.062.235 0 .265.437.468.546.468.063 0 .516-.171.641-.453.031-.094.094-.484.39-2.031h.235c1.985 0 4.016-2 4.016-3.89zm-.735.266c0 1.344-1.343 2.672-3.171 2.672-.11 0-.126 0-.22-.016-.14 0 .032.125.032.094l.234-1.297C4.11-3.578 4.86-4.594 5.922-4.594c.812 0 .937.516.937 1.094zm0 0"/></svg><svg overflow="visible" x="302.576" y="71.367"><path d="M3.64-2.625v-1c0-2.047-1.328-4.531-2.64-5.516a.774.774 0 00-.203-.062c-.063 0-.313.187-.313.25 0 .031.079.172.094.187 1.25.938 2.016 3.235 2.016 5.141v1c0 1.922-.766 4.219-2.016 5.14-.015.032-.094.157-.094.204 0 .047.25.25.313.25A.774.774 0 001 2.906c1.313-1 2.64-3.484 2.64-5.531zm0 0"/></svg><svg overflow="visible" x="309.892" y="71.367"><path d="M8.828-3.125c0-.125-.312-.36-.437-.36H5.078v-3.374c0-.141-.297-.375-.422-.375-.14 0-.453.234-.453.375v3.375H.906c-.125 0-.437.234-.437.359 0 .14.312.375.437.375h3.297V.625c0 .125.313.36.453.36.125 0 .422-.235.422-.36V-2.75h3.313c.125 0 .437-.234.437-.375zm0 0"/></svg><svg overflow="visible" x="323.047" y="66.656"><path d="M4.64-1.531V-2h-.937v-3.563c0-.187-.203-.406-.39-.406-.094 0-.282.063-.36.172L.125-1.844v.469h2.453v.531c0 .281.203.219-.469.219h-.437v.64L3.14-.03l1.468.047v-.641h-.437c-.672 0-.469.063-.469-.219v-.531h.938zM2.845-2H.969l2.015-2.781-.343-.125V-2zm0 0"/></svg><path d="M323.047 68.379h4.762" fill="none" stroke-width=".478" stroke="#000" stroke-miterlimit="10"/><svg overflow="visible" x="323.047" y="75.492"><path d="M4.516-1.61c0-.656-.75-1.468-1.672-1.656v.313c.89-.313 1.406-1.094 1.406-1.61 0-.656-.969-1.312-1.89-1.312-.938 0-1.86.61-1.86 1.281 0 .282.39.594.64.594.266 0 .641-.344.641-.578 0-.25-.375-.578-.297-.578.094-.11.532-.157.844-.157.375 0 .688.016.688.75 0 .344-.047.625-.266.891-.281.313-.36.281-.781.313-.203.015-.235.015-.266.015l.14.281s-.437-.109-.437-.015c0 .125.282.281.422.281h.453c.656 0 .922.297.922 1.188 0 1.046-.39 1.187-.89 1.187-.329 0-.922-.031-1.094-.266.078-.015.375-.453.375-.625 0-.265-.407-.625-.672-.625-.235 0-.672.297-.672.641C.25-.5 1.328.172 2.344.172 3.5.172 4.516-.766 4.516-1.61zm0 0"/></svg><svg overflow="visible" x="329.004" y="71.367"><path d="M4.14-5.156c0-.125-.312-.266-.53-.266H2.78c.39-1.562.453-1.797.453-1.875 0-.203-.328-.453-.53-.453-.032 0-.579.14-.688.563l-.422 1.765H.64c-.25 0-.563.14-.563.36 0 .156.297.28.531.28h.813C.594-1.515.547-1.311.547-1.093c0 .64.656 1.219 1.312 1.219 1.22 0 2.079-1.875 2.079-1.969 0-.11-.282-.25-.329-.25-.109 0-.328.172-.375.297C2.72-.547 2.281-.39 1.875-.39c-.25 0-.172-.03-.172-.421 0-.282.016-.375.063-.579l.859-3.39h.953c.25 0 .563-.125.563-.375zm0 0"/></svg><svg overflow="visible" x="333.32" y="71.367"><path d="M6.14-1.844c0-.11-.296-.25-.327-.25-.125 0-.344.188-.375.344-.204.781-.22 1.36-.704 1.36-.328 0-.171-.188-.171-.422 0-.266.03-.36.156-.891l.265-1.063.438-1.687c.078-.328.078-.36.078-.406 0-.204-.344-.454-.547-.454-.281 0-.656.407-.703.657h.406c-.218-.438-.765-.89-1.297-.89-1.406 0-3.078 1.89-3.078 3.64 0 1.125.86 2.031 1.781 2.031.25 0 .97-.078 1.422-.61.032.094.657.61 1.22.61.421 0 .827-.297 1.015-.688l.062-.093c.203-.438.297-1.094.297-1.094zm-2.03-2.25c0 .063-.016.14-.032.203l-.594 2.344c-.062.203 0 .14-.187.344-.531.656-.875.812-1.203.812-.594 0-.578-.53-.578-1 0-.593.328-1.968.593-2.515.375-.703.782-1.11 1.266-1.11.766 0 .734.844.734.922zm0 0"/></svg><svg overflow="visible" x="339.644" y="71.367"><path d="M7.016-1.844c0-.11-.297-.25-.329-.25-.125 0-.328.172-.39.344-.234.813-.422 1.36-1.016 1.36-.203 0-.093.015-.093-.266 0-.297.109-.594.218-.844.219-.64.719-1.953.719-2.64 0-.798-.703-1.407-1.563-1.407-1.078 0-1.796.797-2 1.078l.329.094c-.063-.672-.735-1.172-1.282-1.172-.562 0-.921.5-1.14.89C.313-4.327.14-3.624.14-3.577c0 .125.484.219.484.219l-.14.03c.124 0 .328-.14.406-.405.203-.844.25-1.282.671-1.282.25 0 .172.016.172.407 0 .265-.03.39-.187 1.015L.844-.844c-.031.188-.11.469-.11.516 0 .219.375.453.563.453.14 0 .547-.219.656-.547-.078.156.125-.5.203-.797l.266-1.078c.062-.265.14-.531.203-.797l.14-.594c.188-.374.626-1.328 1.766-1.328.532 0 .438.313.438.704 0 .734-.578 2.265-.766 2.78-.11.282-.125.423-.125.548 0 .562.625 1.109 1.188 1.109 1.125 0 1.75-1.875 1.75-1.969zm0 0"/></svg><svg overflow="visible" x="348.802" y="71.367"><path d="M4.516 3.297c0-.031-.063-.172-.11-.188C3.078 2.11 2.25-.39 2.25-2.5v-1.234c0-2.11.828-4.61 2.156-5.61a.393.393 0 00.11-.187c0-.078-.235-.266-.313-.266-.016 0-.203.047-.203.063-1.438 1.062-2.813 3.765-2.813 6V-2.5C1.188-.266 2.563 2.422 4 3.484c0 .032.188.063.203.063.078 0 .313-.172.313-.25zm0 0"/></svg><svg overflow="visible" x="355.05" y="65.997"><path d="M6.031-2.625c0-.75-.656-1.39-1.312-1.39-1.157 0-1.969 1.64-2.203 2.265l-.282.875c-.78-.11-1.156-.36-1.156-.984l-.062.125s.046-.954.718-1.704a.654.654 0 00.141-.234c0-.094-.313-.25-.344-.25a.605.605 0 00-.422.235C.641-3.11.375-2.141.375-1.782c0 .75.75 1.562 1.578 1.734-.375 1.188-.422 1.36-.422 1.422 0 .234.39.438.485.438.093 0 .406-.11.562-.391.031-.078.11-.516.25-1.328-.094-.016.016-.016.11-.016 1.5 0 3.093-1.39 3.093-2.703zm-.718.156c0 .86-.844 1.672-2.297 1.672-.063 0-.188 0-.032.016.141-.828.141-1.094.547-1.64.375-.517.688-.704 1.094-.704.578 0 .688.234.688.656zm0 0"/></svg><path d="M355.05 68.379h6.286" fill="none" stroke-width=".478" stroke="#000" stroke-miterlimit="10"/><svg overflow="visible" x="355.812" y="75.492"><path d="M4.64-1.531V-2h-.937v-3.563c0-.187-.203-.406-.39-.406-.094 0-.282.063-.36.172L.125-1.844v.469h2.453v.531c0 .281.203.219-.469.219h-.437v.64L3.14-.03l1.468.047v-.641h-.437c-.672 0-.469.063-.469-.219v-.531h.938zM2.845-2H.969l2.015-2.781-.343-.125V-2zm0 0"/></svg><svg overflow="visible" x="362.531" y="71.367"><path d="M3.844-2.5v-1.234c0-2.235-1.375-4.938-2.797-6a1.01 1.01 0 00-.203-.063c-.078 0-.328.188-.328.266 0 .031.062.156.109.187 1.328 1 2.156 3.5 2.156 5.61V-2.5c0 2.11-.828 4.61-2.156 5.61-.047.015-.11.156-.11.187 0 .078.25.25.329.25.015 0 .187-.031.203-.063C2.469 2.422 3.844-.266 3.844-2.5zm0 0"/></svg><svg overflow="visible" x="370.23" y="71.367"><path d="M2.484-3.125c0-.344-.468-.766-.828-.766-.343 0-.828.422-.828.766 0 .36.485.766.828.766.36 0 .828-.407.828-.766zm0 0"/></svg><svg overflow="visible" x="376.208" y="71.367"><path d="M5.219-4.39c0-.532-.719-1.157-1.625-1.157-1.578 0-2.219 1.344-2.219 1.875 0 .938 1.094 1.25 1.438 1.313.624.125 1.03.125 1.03.78 0 .313-.062 1.188-1.5 1.188-.171 0-.89.125-1.093-.328.188.016.672-.469.672-.812 0-.282-.375-.547-.625-.547-.313 0-.875.375-.875.922 0 .672.875 1.281 1.906 1.281 1.938 0 2.594-1.578 2.594-2.11 0-.437-.281-.827-.422-.968-.328-.328-.813-.422-1.328-.531-.438-.094-.719-.047-.719-.594 0-.344.094-.938 1.14-.938.298 0 .704-.046.829.282-.078.015-.531.406-.531.671 0 .172.312.485.578.485.265 0 .75-.344.75-.813zm0 0"/></svg><svg overflow="visible" x="381.815" y="71.367"><path d="M3.578-7.61c0-.234-.344-.546-.625-.546-.328 0-.844.437-.844.75 0 .234.36.562.657.562.265 0 .812-.406.812-.765zm.11 5.766c0-.11-.297-.25-.329-.25-.125 0-.328.172-.39.344-.203.766-.406 1.36-1.016 1.36-.203 0-.094.015-.094-.266 0-.297.079-.469.36-1.203l.453-1.25c.156-.344.156-.375.265-.688.094-.25.157-.406.157-.64 0-.532-.578-1.11-1.172-1.11C.797-5.547.14-3.687.14-3.578c0 .125.484.219.484.219l-.14.03c.124 0 .328-.155.39-.343.313-1.125.61-1.344 1.016-1.344.093 0 .093-.14.093.25 0 .25-.078.5-.125.625-.109.297-.64 1.688-.828 2.204-.125.312-.281.703-.281.953 0 .562.61 1.109 1.188 1.109 1.125 0 1.75-1.86 1.75-1.969zm0 0"/></svg><svg overflow="visible" x="385.939" y="71.367"><path d="M7.016-1.844c0-.11-.297-.25-.329-.25-.125 0-.328.172-.39.344-.234.813-.422 1.36-1.016 1.36-.203 0-.093.015-.093-.266 0-.297.109-.594.218-.844.219-.64.719-1.953.719-2.64 0-.798-.703-1.407-1.563-1.407-1.078 0-1.796.797-2 1.078l.329.094c-.063-.672-.735-1.172-1.282-1.172-.562 0-.921.5-1.14.89C.313-4.327.14-3.624.14-3.577c0 .125.484.219.484.219l-.14.03c.124 0 .328-.14.406-.405.203-.844.25-1.282.671-1.282.25 0 .172.016.172.407 0 .265-.03.39-.187 1.015L.844-.844c-.031.188-.11.469-.11.516 0 .219.375.453.563.453.14 0 .547-.219.656-.547-.078.156.125-.5.203-.797l.266-1.078c.062-.265.14-.531.203-.797l.14-.594c.188-.374.626-1.328 1.766-1.328.532 0 .438.313.438.704 0 .734-.578 2.265-.766 2.78-.11.282-.125.423-.125.548 0 .562.625 1.109 1.188 1.109 1.125 0 1.75-1.875 1.75-1.969zm0 0"/></svg><svg overflow="visible" x="393.112" y="71.367"><path d="M4.156 2.719c0-.047-.078-.172-.11-.203-1.234-.922-2-3.22-2-5.141v-1c0-1.906.767-4.203 2-5.14a.457.457 0 00.11-.188c0-.063-.25-.25-.312-.25a1.01 1.01 0 00-.203.062C2.312-8.156 1-5.67 1-3.625v1C1-.578 2.313 1.906 3.64 2.906c.016.016.188.063.204.063.062 0 .312-.203.312-.25zm0 0"/></svg><svg overflow="visible" x="397.763" y="71.367"><path d="M7.594-3.766c0-.937-.657-1.78-1.563-1.78-1.734 0-2.656 2.452-3.312 4.609-1.14-.204-1.625-.735-1.625-1.594 0-.344.218-1.563.937-2.375.094-.11.094-.157.094-.157l.063-.093c0-.063-.22-.266-.329-.266-.343 0-1.468 1.875-1.468 3.016 0 1.125 1 2.125 2.046 2.375l-.609 1.937c-.047.157-.062.172-.062.235 0 .265.437.468.546.468.063 0 .516-.171.641-.453.031-.094.094-.484.39-2.031h.235c1.985 0 4.016-2 4.016-3.89zm-.735.266c0 1.344-1.343 2.672-3.171 2.672-.11 0-.126 0-.22-.016-.14 0 .032.125.032.094l.234-1.297C4.11-3.578 4.86-4.594 5.922-4.594c.812 0 .937.516.937 1.094zm0 0"/></svg><svg overflow="visible" x="405.582" y="71.367"><path d="M3.64-2.625v-1c0-2.047-1.328-4.531-2.64-5.516a.774.774 0 00-.203-.062c-.063 0-.313.187-.313.25 0 .031.079.172.094.187 1.25.938 2.016 3.235 2.016 5.141v1c0 1.922-.766 4.219-2.016 5.14-.015.032-.094.157-.094.204 0 .047.25.25.313.25A.774.774 0 001 2.906c1.313-1 2.64-3.484 2.64-5.531zm0 0"/></svg><g><svg overflow="visible" x="15.35" y="91.268"><path d="M9.281-8.438c0-.03-.219-.25-.328-.25a.701.701 0 00-.328.172l-.672.75c0 .016-.672-.921-2-.921-2.672 0-5.562 2.765-5.562 5.546C.39-1.17 2.016.266 3.844.266c1.031 0 2.078-.516 2.703-1.063C7.657-1.78 7.922-2.969 7.922-3c0-.125-.203-.031-.203-.031l-.125-.219c-.078 0-.344.156-.36.25-.109.344-.328 1.094-1.156 1.797-.812.672-1.422.828-2.047.828-1.078 0-2.156-.484-2.156-2.344 0-.687.188-2.531 1.39-3.922C4-7.5 4.986-8.062 6.048-8.062c1.219 0 1.719.796 1.719 2.187 0 .469-.032.484-.032.61 0 .109.329.25.375.25.157 0 .36-.157.407-.376zm0 0"/></svg></g><g><svg overflow="visible" x="23.898" y="94.221"><path d="M4.234-1.844H3.75c-.047.344-.063.735-.172.813-.062.047-.562 0-.687 0H1.812c.563-.5.86-.735 1.36-1.125.625-.5 1.265-1.14 1.265-1.938 0-1-1.093-1.781-2.171-1.781-1.032 0-1.954.89-1.954 1.656 0 .422.579.625.657.625.203 0 .656-.297.656-.61 0-.14-.266-.593-.422-.593.188-.437.547-.469.938-.469.843 0 1.062.5 1.062 1.172 0 .735-.453 1.203-.719 1.5l-2.03 2C.374-.516.311-.39.311 0h3.844l.313-1.844zm0 0"/></svg></g><g><svg overflow="visible" x="29.158" y="91.268"><path d="M6.047-4.953c0-.219-.36-.469-.531-.469-.125 0-.454.11-.641.406-.016.047-.11.407-.156.625l-.235.954-.546 2.156c-.047.187-.36.89-1.141.89-.61 0-.547-.39-.547-.843 0-.547.203-1.282.61-2.344.187-.485.234-.625.234-.86 0-.53-.578-1.109-1.172-1.109C.782-5.547.14-3.687.14-3.578c0 .125.484.219.484.219l-.14.03c.124 0 .328-.155.39-.343.313-1.125.61-1.344 1.016-1.344.093 0 .093-.14.093.25 0 .297-.125.61-.203.829-.484 1.265-.687 1.953-.687 2.515 0 1.063.953 1.547 1.656 1.547.469 0 1-.234 1.344-.563L3.75-.53c-.156.61-.234 1.11-.719 1.734-.312.406-.61.719-1.172.719-.156 0-.515.094-.656-.234-.062 0 .234-.032.406-.188.11-.094.297-.36.297-.578 0-.375-.515-.547-.64-.547-.282 0-.875.313-.875.906 0 .594.734 1.172 1.468 1.172 1.235 0 2.657-1.219 3-2.578L6-4.688c.047-.171.047-.187.047-.265zm0 0"/></svg></g><g><svg overflow="visible" x="38.662" y="91.268"><path d="M8.828-4.281c0-.125-.312-.375-.437-.375H.906c-.125 0-.437.25-.437.375 0 .14.312.375.437.375h7.485c.125 0 .437-.235.437-.375zm0 2.328c0-.14-.312-.375-.437-.375H.906c-.125 0-.437.234-.437.375 0 .125.312.36.437.36h7.485c.125 0 .437-.235.437-.36zm0 0"/></svg></g><g><svg overflow="visible" x="51.287" y="91.268"><path d="M9.313-7.938c.03-.328-.22-.453-.516-.453H2.766c-.25 0-.563.125-.563.375 0 .125.313.266.531.266.438 0 .579-.14.579.078 0 .047 0 .063-.063.281L1.672-1.062c-.125.468.062.421-.89.421C.577-.64.25-.5.25-.28.25-.125.563 0 .781 0H7c.266 0 .469-.14.547-.328l1.11-2.594c.015-.047 0-.062 0-.062s-.141-.36-.282-.36c-.11 0-.328.203-.36.266C7.25-1.297 7-.641 4.954-.641h-2c-.125-.015.031.11.031 0 0-.03 0-.046.063-.265l.781-3.14H4.86c1.016 0 .813.124.813.421 0 .094 0 .234-.094.594-.016.062-.031.094-.031.125 0 .062.25.265.36.265.093 0 .327-.187.374-.375l.672-2.796c0-.063-.25-.266-.328-.266-.11 0-.344.203-.375.36-.25.905-.266 1.046-1.36 1.046H4l.672-2.75c.11-.422-.063-.328.453-.328h1.688c1.453 0 1.609.203 1.609 1.188 0 .28 0 .312-.047.64 0 .063-.016.156-.016.203 0 .063.25.282.36.282.125 0 .328-.204.36-.438zm0 0"/></svg></g><g><svg overflow="visible" x="60.117" y="94.221"><path d="M4.906-3.5c0-.172-.343-.422-.5-.422-.078 0-.39.094-.484.25a3.37 3.37 0 00-.188.594l-.187.687-.328 1.36.344.11S3.046-.47 2.39-.47c-.563 0-.36-.39-.36-.531 0-.453.203-.984.453-1.625.094-.266.141-.375.141-.516 0-.406-.563-.875-1.016-.875-.843 0-1.421 1.297-1.421 1.438 0 .11.328.281.343.281.125 0 .344-.203.36-.297.218-.703.359-.86.703-.86.14 0 0-.077 0 .126s-.078.375-.125.484C1.079-1.813.984-1.5.984-1.14c0 .141.063.657.391.922.266.219.766.297.984.297.344 0 .782-.156 1.063-.406l-.36-.125c-.109.469-.14.703-.484 1.125-.234.25-.422.484-.86.484-.062 0-.312.047-.343.016.172-.031.313-.484.313-.484l.062-.11c0-.265-.453-.484-.531-.484C1 .094.516.422.516.813c0 .421.609.89 1.203.89.86 0 2.093-.812 2.343-1.86l.797-3.155c.047-.126.047-.141.047-.188zm0 0"/></svg></g><g><svg overflow="visible" x="68.193" y="91.268"><path d="M8.828-3.125c0-.125-.312-.36-.437-.36H.906c-.125 0-.437.235-.437.36 0 .14.312.375.437.375h7.485c.125 0 .437-.234.437-.375zm0 0"/></svg></g><g><svg overflow="visible" x="80.148" y="91.268"><path d="M9.281-8.438c0-.03-.219-.25-.328-.25a.701.701 0 00-.328.172l-.672.75c0 .016-.672-.921-2-.921-2.672 0-5.562 2.765-5.562 5.546C.39-1.17 2.016.266 3.844.266c1.031 0 2.078-.516 2.703-1.063C7.657-1.78 7.922-2.969 7.922-3c0-.125-.203-.031-.203-.031l-.125-.219c-.078 0-.344.156-.36.25-.109.344-.328 1.094-1.156 1.797-.812.672-1.422.828-2.047.828-1.078 0-2.156-.484-2.156-2.344 0-.687.188-2.531 1.39-3.922C4-7.5 4.986-8.062 6.048-8.062c1.219 0 1.719.796 1.719 2.187 0 .469-.032.484-.032.61 0 .109.329.25.375.25.157 0 .36-.157.407-.376zm0 0"/></svg></g><g><svg overflow="visible" x="88.699" y="94.221"><path d="M4.172-.156v-.469H3.64c-.829 0-.625.063-.625-.219v-4.64c0-.235-.235-.391-.563-.391-.578.578-1.203.531-1.75.531v.625c.406 0 1.11-.047 1.219-.11v3.985c0 .281.203.219-.625.219H.766v.64L2.469-.03l1.703.047zm0 0"/></svg><svg overflow="visible" x="93.461" y="94.221"><path d="M4.906-3.5c0-.172-.343-.422-.5-.422-.078 0-.39.094-.484.25a3.37 3.37 0 00-.188.594l-.187.687-.328 1.36.344.11S3.046-.47 2.39-.47c-.563 0-.36-.39-.36-.531 0-.453.203-.984.453-1.625.094-.266.141-.375.141-.516 0-.406-.563-.875-1.016-.875-.843 0-1.421 1.297-1.421 1.438 0 .11.328.281.343.281.125 0 .344-.203.36-.297.218-.703.359-.86.703-.86.14 0 0-.077 0 .126s-.078.375-.125.484C1.079-1.813.984-1.5.984-1.14c0 .141.063.657.391.922.266.219.766.297.984.297.344 0 .782-.156 1.063-.406l-.36-.125c-.109.469-.14.703-.484 1.125-.234.25-.422.484-.86.484-.062 0-.312.047-.343.016.172-.031.313-.484.313-.484l.062-.11c0-.265-.453-.484-.531-.484C1 .094.516.422.516.813c0 .421.609.89 1.203.89.86 0 2.093-.812 2.343-1.86l.797-3.155c.047-.126.047-.141.047-.188zm0 0"/></svg></g><g><svg overflow="visible" x="101.537" y="91.268"><path d="M2.484-3.125c0-.344-.468-.766-.828-.766-.343 0-.828.422-.828.766 0 .36.485.766.828.766.36 0 .828-.407.828-.766zm0 0"/></svg></g><g><svg overflow="visible" x="112.768" y="84.412"><path d="M7.25-5.594C7.281-5.844 7.016-6 6.797-6h-4.61c-.156 0-.468.156-.468.344 0 .11.297.265.484.265.14 0 .172 0 .313.016.171.016-.016-.125-.016-.031 0 .047-.031.14-.031.187L1.359-.844c-.078.328.125.219-.53.219-.157 0-.454.172-.454.344 0 .125.297.281.453.281h4.734a.62.62 0 00.5-.313l.782-1.78c.047-.11-.016-.032-.016-.032l.063-.125c0-.047-.235-.266-.344-.266l.14.266s-.359-.219-.39-.188c-.016.016-.078.141-.188.36C5.563-.875 5.36-.625 3.984-.625H2.563c-.266 0-.063.156-.063.078l-.063.125s.063-.172.094-.297l.531-2.094h.766c.656 0 .547-.046.547.235 0 .094-.016.234-.047.375-.031.078.313.219.313.219s-.125.156 0 .156.343-.203.375-.344L5.484-4c.016-.11-.046-.016-.046-.016l.062-.109c0-.094-.281-.281-.344-.281-.11 0-.328.203-.375.375-.187.656-.218.61-.937.61h-.64l.468-1.845c.078-.25-.125-.125.219-.125h1.375c1.093 0 1.156.079 1.156.813 0 .219-.031.469-.031.516 0 .062.234.296.343.296.141 0 .344-.234.375-.375zm0 0"/></svg></g><g><svg overflow="visible" x="120.04" y="81.374"><path d="M2.64-3.594c0-.203-.374-.562-.593-.562-.156 0-.5.281-.531.39L.219-.562h.656l1.64-2.704c.032-.062.126-.25.126-.328zm0 0"/></svg></g><g><svg overflow="visible" x="119.789" y="86.479"><path d="M4.188-2.547c0-.14-.313-.39-.422-.39-.235 0-.5.39-.532.546l-.312 1.25a1.057 1.057 0 00-.063.235c0 .031-.125.406-.64.406-.266 0-.281.047-.281-.328 0-.328.171-.766.343-1.203a.664.664 0 00.078-.266c0-.297-.484-.703-.843-.703C.875-3 .344-2.062.344-1.89c0 .077.297.25.328.25.094 0 .297-.204.328-.298.125-.406.219-.5.484-.5.11 0-.03-.124-.03.047 0 .11-.032.204-.079.313-.281.703-.344.922-.344 1.156 0 .672.766.985 1.172.985.328 0 .719-.22.875-.344l-.344-.125c-.078.328-.093.469-.375.765-.14.125-.265.313-.64.313-.11 0-.188.031-.094.125-.11.015.125-.39.125-.453 0-.172-.344-.422-.469-.422-.172 0-.578.312-.578.594 0 .296.516.718 1.016.718.687 0 1.687-.64 1.875-1.406l.562-2.234c.032-.094-.031-.016-.031-.016zm0 0"/></svg></g><path d="M108.715 88.277h19.996" fill="none" stroke-width=".478" stroke="#000" stroke-miterlimit="10"/><g><svg overflow="visible" x="108.713" y="95.393"><path d="M1.547 1.766v-8.032c0-.093-.297-.328-.375-.328-.094 0-.39.235-.39.328v8.032c0 .093.296.328.39.328.078 0 .375-.235.375-.328zm0 0"/></svg><svg overflow="visible" x="111.039" y="95.393"><path d="M1.547 1.766v-8.032c0-.093-.297-.328-.375-.328-.094 0-.39.235-.39.328v8.032c0 .093.296.328.39.328.078 0 .375-.235.375-.328zm0 0"/></svg><svg overflow="visible" x="113.366" y="95.393"><path d="M7.25-5.594C7.281-5.844 7.016-6 6.797-6h-4.61c-.156 0-.468.156-.468.344 0 .11.297.265.484.265.14 0 .172 0 .313.016.171.016-.016-.125-.016-.031 0 .047-.031.14-.031.187L1.359-.844c-.078.328.125.219-.53.219-.157 0-.454.172-.454.344 0 .125.297.281.453.281h4.734a.62.62 0 00.5-.313l.782-1.78c.047-.11-.016-.032-.016-.032l.063-.125c0-.047-.235-.266-.344-.266l.14.266s-.359-.219-.39-.188c-.016.016-.078.141-.188.36C5.563-.875 5.36-.625 3.984-.625H2.563c-.266 0-.063.156-.063.078l-.063.125s.063-.172.094-.297l.531-2.094h.766c.656 0 .547-.046.547.235 0 .094-.016.234-.047.375-.031.078.313.219.313.219s-.125.156 0 .156.343-.203.375-.344L5.484-4c.016-.11-.046-.016-.046-.016l.062-.109c0-.094-.281-.281-.344-.281-.11 0-.328.203-.375.375-.187.656-.218.61-.937.61h-.64l.468-1.845c.078-.25-.125-.125.219-.125h1.375c1.093 0 1.156.079 1.156.813 0 .219-.031.469-.031.516 0 .062.234.296.343.296.141 0 .344-.234.375-.375zm0 0"/></svg></g><g><svg overflow="visible" x="120.638" y="92.974"><path d="M2.64-3.594c0-.203-.374-.562-.593-.562-.156 0-.5.281-.531.39L.219-.562h.656l1.64-2.704c.032-.062.126-.25.126-.328zm0 0"/></svg></g><g><svg overflow="visible" x="124.059" y="95.393"><path d="M1.547 1.766v-8.032c0-.093-.297-.328-.375-.328-.094 0-.39.235-.39.328v8.032c0 .093.296.328.39.328.078 0 .375-.235.375-.328zm0 0"/></svg><svg overflow="visible" x="126.385" y="95.393"><path d="M1.547 1.766v-8.032c0-.093-.297-.328-.375-.328-.094 0-.39.235-.39.328v8.032c0 .093.296.328.39.328.078 0 .375-.235.375-.328zm0 0"/></svg></g><g><svg overflow="visible" x="133.229" y="91.268"><path d="M8.828-4.281c0-.125-.312-.375-.437-.375H.906c-.125 0-.437.25-.437.375 0 .14.312.375.437.375h7.485c.125 0 .437-.235.437-.375zm0 2.328c0-.14-.312-.375-.437-.375H.906c-.125 0-.437.234-.437.375 0 .125.312.36.437.36h7.485c.125 0 .437-.235.437-.36zm0 0"/></svg></g><g><svg overflow="visible" x="145.842" y="91.268"><path d="M5.219-4.39c0-.532-.719-1.157-1.625-1.157-1.578 0-2.219 1.344-2.219 1.875 0 .938 1.094 1.25 1.438 1.313.624.125 1.03.125 1.03.78 0 .313-.062 1.188-1.5 1.188-.171 0-.89.125-1.093-.328.188.016.672-.469.672-.812 0-.282-.375-.547-.625-.547-.313 0-.875.375-.875.922 0 .672.875 1.281 1.906 1.281 1.938 0 2.594-1.578 2.594-2.11 0-.437-.281-.827-.422-.968-.328-.328-.813-.422-1.328-.531-.438-.094-.719-.047-.719-.594 0-.344.094-.938 1.14-.938.298 0 .704-.046.829.282-.078.015-.531.406-.531.671 0 .172.312.485.578.485.265 0 .75-.344.75-.813zm0 0"/></svg><svg overflow="visible" x="151.449" y="91.268"><path d="M3.578-7.61c0-.234-.344-.546-.625-.546-.328 0-.844.437-.844.75 0 .234.36.562.657.562.265 0 .812-.406.812-.765zm.11 5.766c0-.11-.297-.25-.329-.25-.125 0-.328.172-.39.344-.203.766-.406 1.36-1.016 1.36-.203 0-.094.015-.094-.266 0-.297.079-.469.36-1.203l.453-1.25c.156-.344.156-.375.265-.688.094-.25.157-.406.157-.64 0-.532-.578-1.11-1.172-1.11C.797-5.547.14-3.687.14-3.578c0 .125.484.219.484.219l-.14.03c.124 0 .328-.155.39-.343.313-1.125.61-1.344 1.016-1.344.093 0 .093-.14.093.25 0 .25-.078.5-.125.625-.109.297-.64 1.688-.828 2.204-.125.312-.281.703-.281.953 0 .562.61 1.109 1.188 1.109 1.125 0 1.75-1.86 1.75-1.969zm0 0"/></svg><svg overflow="visible" x="155.573" y="91.268"><path d="M7.016-1.844c0-.11-.297-.25-.329-.25-.125 0-.328.172-.39.344-.234.813-.422 1.36-1.016 1.36-.203 0-.093.015-.093-.266 0-.297.109-.594.218-.844.219-.64.719-1.953.719-2.64 0-.798-.703-1.407-1.563-1.407-1.078 0-1.796.797-2 1.078l.329.094c-.063-.672-.735-1.172-1.282-1.172-.562 0-.921.5-1.14.89C.313-4.327.14-3.624.14-3.577c0 .125.484.219.484.219l-.14.03c.124 0 .328-.14.406-.405.203-.844.25-1.282.671-1.282.25 0 .172.016.172.407 0 .265-.03.39-.187 1.015L.844-.844c-.031.188-.11.469-.11.516 0 .219.375.453.563.453.14 0 .547-.219.656-.547-.078.156.125-.5.203-.797l.266-1.078c.062-.265.14-.531.203-.797l.14-.594c.188-.374.626-1.328 1.766-1.328.532 0 .438.313.438.704 0 .734-.578 2.265-.766 2.78-.11.282-.125.423-.125.548 0 .562.625 1.109 1.188 1.109 1.125 0 1.75-1.875 1.75-1.969zm0 0"/></svg><svg overflow="visible" x="162.746" y="91.268"><path d="M4.156 2.719c0-.047-.078-.172-.11-.203-1.234-.922-2-3.22-2-5.141v-1c0-1.906.767-4.203 2-5.14a.457.457 0 00.11-.188c0-.063-.25-.25-.312-.25a1.01 1.01 0 00-.203.062C2.312-8.156 1-5.67 1-3.625v1C1-.578 2.313 1.906 3.64 2.906c.016.016.188.063.204.063.062 0 .312-.203.312-.25zm0 0"/></svg><svg overflow="visible" x="167.397" y="91.268"><path d="M7.594-3.766c0-.937-.657-1.78-1.563-1.78-1.734 0-2.656 2.452-3.312 4.609-1.14-.204-1.625-.735-1.625-1.594 0-.344.218-1.563.937-2.375.094-.11.094-.157.094-.157l.063-.093c0-.063-.22-.266-.329-.266-.343 0-1.468 1.875-1.468 3.016 0 1.125 1 2.125 2.046 2.375l-.609 1.937c-.047.157-.062.172-.062.235 0 .265.437.468.546.468.063 0 .516-.171.641-.453.031-.094.094-.484.39-2.031h.235c1.985 0 4.016-2 4.016-3.89zm-.735.266c0 1.344-1.343 2.672-3.171 2.672-.11 0-.126 0-.22-.016-.14 0 .032.125.032.094l.234-1.297C4.11-3.578 4.86-4.594 5.922-4.594c.812 0 .937.516.937 1.094zm0 0"/></svg><svg overflow="visible" x="175.216" y="91.268"><path d="M3.64-2.625v-1c0-2.047-1.328-4.531-2.64-5.516a.774.774 0 00-.203-.062c-.063 0-.313.187-.313.25 0 .031.079.172.094.187 1.25.938 2.016 3.235 2.016 5.141v1c0 1.922-.766 4.219-2.016 5.14-.015.032-.094.157-.094.204 0 .047.25.25.313.25A.774.774 0 001 2.906c1.313-1 2.64-3.484 2.64-5.531zm0 0"/></svg></g><g><svg overflow="visible" x="182.532" y="91.268"><path d="M8.828-3.125c0-.125-.312-.36-.437-.36H.906c-.125 0-.437.235-.437.36 0 .14.312.375.437.375h7.485c.125 0 .437-.234.437-.375zm0 0"/></svg></g><g><svg overflow="visible" x="194.487" y="91.268"><path d="M9.281-8.438c0-.03-.219-.25-.328-.25a.701.701 0 00-.328.172l-.672.75c0 .016-.672-.921-2-.921-2.672 0-5.562 2.765-5.562 5.546C.39-1.17 2.016.266 3.844.266c1.031 0 2.078-.516 2.703-1.063C7.657-1.78 7.922-2.969 7.922-3c0-.125-.203-.031-.203-.031l-.125-.219c-.078 0-.344.156-.36.25-.109.344-.328 1.094-1.156 1.797-.812.672-1.422.828-2.047.828-1.078 0-2.156-.484-2.156-2.344 0-.687.188-2.531 1.39-3.922C4-7.5 4.986-8.062 6.048-8.062c1.219 0 1.719.796 1.719 2.187 0 .469-.032.484-.032.61 0 .109.329.25.375.25.157 0 .36-.157.407-.376zm0 0"/></svg></g><g><svg overflow="visible" x="203.039" y="94.221"><path d="M4.172-.156v-.469H3.64c-.829 0-.625.063-.625-.219v-4.64c0-.235-.235-.391-.563-.391-.578.578-1.203.531-1.75.531v.625c.406 0 1.11-.047 1.219-.11v3.985c0 .281.203.219-.625.219H.766v.64L2.469-.03l1.703.047zm0 0"/></svg><svg overflow="visible" x="207.801" y="94.221"><path d="M4.906-3.5c0-.172-.343-.422-.5-.422-.078 0-.39.094-.484.25a3.37 3.37 0 00-.188.594l-.187.687-.328 1.36.344.11S3.046-.47 2.39-.47c-.563 0-.36-.39-.36-.531 0-.453.203-.984.453-1.625.094-.266.141-.375.141-.516 0-.406-.563-.875-1.016-.875-.843 0-1.421 1.297-1.421 1.438 0 .11.328.281.343.281.125 0 .344-.203.36-.297.218-.703.359-.86.703-.86.14 0 0-.077 0 .126s-.078.375-.125.484C1.079-1.813.984-1.5.984-1.14c0 .141.063.657.391.922.266.219.766.297.984.297.344 0 .782-.156 1.063-.406l-.36-.125c-.109.469-.14.703-.484 1.125-.234.25-.422.484-.86.484-.062 0-.312.047-.343.016.172-.031.313-.484.313-.484l.062-.11c0-.265-.453-.484-.531-.484C1 .094.516.422.516.813c0 .421.609.89 1.203.89.86 0 2.093-.812 2.343-1.86l.797-3.155c.047-.126.047-.141.047-.188zm0 0"/></svg></g><g><svg overflow="visible" x="215.876" y="91.268"><path d="M2.484-3.125c0-.344-.468-.766-.828-.766-.343 0-.828.422-.828.766 0 .36.485.766.828.766.36 0 .828-.407.828-.766zm0 0"/></svg></g><g><svg overflow="visible" x="221.854" y="91.268"><path d="M5.328-1.406c0-.078-.266-.297-.328-.297-.063 0-.234.062-.297.156C3.75-.359 2.593-.39 2.453-.39c-.75 0-.89-.453-.89-1.171 0-.5.187-1.563.593-2.297.36-.688.89-1.157 1.547-1.157.406 0 .719.11.766.204.078 0-.235.046-.407.203a1.026 1.026 0 00-.265.562c0 .297.406.563.64.563.344 0 .86-.422.86-.907 0-.578-.75-1.156-1.61-1.156-1.609 0-3.406 1.844-3.406 3.531 0 1.079.906 2.141 2.14 2.141 1.72 0 2.907-1.39 2.907-1.531zm0 0"/></svg></g><g><svg overflow="visible" x="227.329" y="91.268"><path d="M5.797-3.39c0-1.25-1.031-2.157-2.11-2.157-1.593 0-3.406 1.828-3.406 3.531C.281-.844 1.297.125 2.406.125c1.594 0 3.39-1.781 3.39-3.516zM4.53-3.86c0 .47-.187 1.626-.64 2.407-.407.687-.922 1.062-1.47 1.062-.515 0-.858-.25-.858-1.171 0-.594.25-1.782.64-2.391.594-.922 1.14-1.063 1.485-1.063.687 0 .843.438.843 1.157zm0 0"/></svg></g><g><svg overflow="visible" x="233.271" y="91.268"><path d="M5.219-4.39c0-.532-.719-1.157-1.625-1.157-1.578 0-2.219 1.344-2.219 1.875 0 .938 1.094 1.25 1.438 1.313.624.125 1.03.125 1.03.78 0 .313-.062 1.188-1.5 1.188-.171 0-.89.125-1.093-.328.188.016.672-.469.672-.812 0-.282-.375-.547-.625-.547-.313 0-.875.375-.875.922 0 .672.875 1.281 1.906 1.281 1.938 0 2.594-1.578 2.594-2.11 0-.437-.281-.827-.422-.968-.328-.328-.813-.422-1.328-.531-.438-.094-.719-.047-.719-.594 0-.344.094-.938 1.14-.938.298 0 .704-.046.829.282-.078.015-.531.406-.531.671 0 .172.312.485.578.485.265 0 .75-.344.75-.813zm0 0"/></svg><svg overflow="visible" x="238.878" y="91.268"><path d="M4.156 2.719c0-.047-.078-.172-.11-.203-1.234-.922-2-3.22-2-5.141v-1c0-1.906.767-4.203 2-5.14a.457.457 0 00.11-.188c0-.063-.25-.25-.312-.25a1.01 1.01 0 00-.203.062C2.312-8.156 1-5.67 1-3.625v1C1-.578 2.313 1.906 3.64 2.906c.016.016.188.063.204.063.062 0 .312-.203.312-.25zm0 0"/></svg><svg overflow="visible" x="243.528" y="91.268"><path d="M7.594-3.766c0-.937-.657-1.78-1.563-1.78-1.734 0-2.656 2.452-3.312 4.609-1.14-.204-1.625-.735-1.625-1.594 0-.344.218-1.563.937-2.375.094-.11.094-.157.094-.157l.063-.093c0-.063-.22-.266-.329-.266-.343 0-1.468 1.875-1.468 3.016 0 1.125 1 2.125 2.046 2.375l-.609 1.937c-.047.157-.062.172-.062.235 0 .265.437.468.546.468.063 0 .516-.171.641-.453.031-.094.094-.484.39-2.031h.235c1.985 0 4.016-2 4.016-3.89zm-.735.266c0 1.344-1.343 2.672-3.171 2.672-.11 0-.126 0-.22-.016-.14 0 .032.125.032.094l.234-1.297C4.11-3.578 4.86-4.594 5.922-4.594c.812 0 .937.516.937 1.094zm0 0"/></svg><svg overflow="visible" x="251.347" y="91.268"><path d="M3.64-2.625v-1c0-2.047-1.328-4.531-2.64-5.516a.774.774 0 00-.203-.062c-.063 0-.313.187-.313.25 0 .031.079.172.094.187 1.25.938 2.016 3.235 2.016 5.141v1c0 1.922-.766 4.219-2.016 5.14-.015.032-.094.157-.094.204 0 .047.25.25.313.25A.774.774 0 001 2.906c1.313-1 2.64-3.484 2.64-5.531zm0 0"/></svg></g><g><svg overflow="visible" x="259.321" y="91.268"><path d="M8.828-4.281c0-.125-.312-.375-.437-.375H.906c-.125 0-.437.25-.437.375 0 .14.312.375.437.375h7.485c.125 0 .437-.235.437-.375zm0 2.328c0-.14-.312-.375-.437-.375H.906c-.125 0-.437.234-.437.375 0 .125.312.36.437.36h7.485c.125 0 .437-.235.437-.36zm0 0"/></svg></g><g><svg overflow="visible" x="271.934" y="91.268"><path d="M5.219-4.39c0-.532-.719-1.157-1.625-1.157-1.578 0-2.219 1.344-2.219 1.875 0 .938 1.094 1.25 1.438 1.313.624.125 1.03.125 1.03.78 0 .313-.062 1.188-1.5 1.188-.171 0-.89.125-1.093-.328.188.016.672-.469.672-.812 0-.282-.375-.547-.625-.547-.313 0-.875.375-.875.922 0 .672.875 1.281 1.906 1.281 1.938 0 2.594-1.578 2.594-2.11 0-.437-.281-.827-.422-.968-.328-.328-.813-.422-1.328-.531-.438-.094-.719-.047-.719-.594 0-.344.094-.938 1.14-.938.298 0 .704-.046.829.282-.078.015-.531.406-.531.671 0 .172.312.485.578.485.265 0 .75-.344.75-.813zm0 0"/></svg><svg overflow="visible" x="277.541" y="91.268"><path d="M3.578-7.61c0-.234-.344-.546-.625-.546-.328 0-.844.437-.844.75 0 .234.36.562.657.562.265 0 .812-.406.812-.765zm.11 5.766c0-.11-.297-.25-.329-.25-.125 0-.328.172-.39.344-.203.766-.406 1.36-1.016 1.36-.203 0-.094.015-.094-.266 0-.297.079-.469.36-1.203l.453-1.25c.156-.344.156-.375.265-.688.094-.25.157-.406.157-.64 0-.532-.578-1.11-1.172-1.11C.797-5.547.14-3.687.14-3.578c0 .125.484.219.484.219l-.14.03c.124 0 .328-.155.39-.343.313-1.125.61-1.344 1.016-1.344.093 0 .093-.14.093.25 0 .25-.078.5-.125.625-.109.297-.64 1.688-.828 2.204-.125.312-.281.703-.281.953 0 .562.61 1.109 1.188 1.109 1.125 0 1.75-1.86 1.75-1.969zm0 0"/></svg><svg overflow="visible" x="281.665" y="91.268"><path d="M7.016-1.844c0-.11-.297-.25-.329-.25-.125 0-.328.172-.39.344-.234.813-.422 1.36-1.016 1.36-.203 0-.093.015-.093-.266 0-.297.109-.594.218-.844.219-.64.719-1.953.719-2.64 0-.798-.703-1.407-1.563-1.407-1.078 0-1.796.797-2 1.078l.329.094c-.063-.672-.735-1.172-1.282-1.172-.562 0-.921.5-1.14.89C.313-4.327.14-3.624.14-3.577c0 .125.484.219.484.219l-.14.03c.124 0 .328-.14.406-.405.203-.844.25-1.282.671-1.282.25 0 .172.016.172.407 0 .265-.03.39-.187 1.015L.844-.844c-.031.188-.11.469-.11.516 0 .219.375.453.563.453.14 0 .547-.219.656-.547-.078.156.125-.5.203-.797l.266-1.078c.062-.265.14-.531.203-.797l.14-.594c.188-.374.626-1.328 1.766-1.328.532 0 .438.313.438.704 0 .734-.578 2.265-.766 2.78-.11.282-.125.423-.125.548 0 .562.625 1.109 1.188 1.109 1.125 0 1.75-1.875 1.75-1.969zm0 0"/></svg><svg overflow="visible" x="288.839" y="91.268"><path d="M4.156 2.719c0-.047-.078-.172-.11-.203-1.234-.922-2-3.22-2-5.141v-1c0-1.906.767-4.203 2-5.14a.457.457 0 00.11-.188c0-.063-.25-.25-.312-.25a1.01 1.01 0 00-.203.062C2.312-8.156 1-5.67 1-3.625v1C1-.578 2.313 1.906 3.64 2.906c.016.016.188.063.204.063.062 0 .312-.203.312-.25zm0 0"/></svg><svg overflow="visible" x="293.489" y="91.268"><path d="M7.594-3.766c0-.937-.657-1.78-1.563-1.78-1.734 0-2.656 2.452-3.312 4.609-1.14-.204-1.625-.735-1.625-1.594 0-.344.218-1.563.937-2.375.094-.11.094-.157.094-.157l.063-.093c0-.063-.22-.266-.329-.266-.343 0-1.468 1.875-1.468 3.016 0 1.125 1 2.125 2.046 2.375l-.609 1.937c-.047.157-.062.172-.062.235 0 .265.437.468.546.468.063 0 .516-.171.641-.453.031-.094.094-.484.39-2.031h.235c1.985 0 4.016-2 4.016-3.89zm-.735.266c0 1.344-1.343 2.672-3.171 2.672-.11 0-.126 0-.22-.016-.14 0 .032.125.032.094l.234-1.297C4.11-3.578 4.86-4.594 5.922-4.594c.812 0 .937.516.937 1.094zm0 0"/></svg><svg overflow="visible" x="301.308" y="91.268"><path d="M3.64-2.625v-1c0-2.047-1.328-4.531-2.64-5.516a.774.774 0 00-.203-.062c-.063 0-.313.187-.313.25 0 .031.079.172.094.187 1.25.938 2.016 3.235 2.016 5.141v1c0 1.922-.766 4.219-2.016 5.14-.015.032-.094.157-.094.204 0 .047.25.25.313.25A.774.774 0 001 2.906c1.313-1 2.64-3.484 2.64-5.531zm0 0"/></svg></g><g><svg overflow="visible" x="308.624" y="91.268"><path d="M8.828-3.125c0-.125-.312-.36-.437-.36H.906c-.125 0-.437.235-.437.36 0 .14.312.375.437.375h7.485c.125 0 .437-.234.437-.375zm0 0"/></svg></g><g><svg overflow="visible" x="321.779" y="86.557"><path d="M4.64-1.531V-2h-.937v-3.563c0-.187-.203-.406-.39-.406-.094 0-.282.063-.36.172L.125-1.844v.469h2.453v.531c0 .281.203.219-.469.219h-.437v.64L3.14-.03l1.468.047v-.641h-.437c-.672 0-.469.063-.469-.219v-.531h.938zM2.845-2H.969l2.015-2.781-.343-.125V-2zm0 0"/></svg></g><path d="M321.777 88.277h4.762" fill="none" stroke-width=".478" stroke="#000" stroke-miterlimit="10"/><g><svg overflow="visible" x="321.779" y="95.393"><path d="M4.516-1.61c0-.656-.75-1.468-1.672-1.656v.313c.89-.313 1.406-1.094 1.406-1.61 0-.656-.969-1.312-1.89-1.312-.938 0-1.86.61-1.86 1.281 0 .282.39.594.64.594.266 0 .641-.344.641-.578 0-.25-.375-.578-.297-.578.094-.11.532-.157.844-.157.375 0 .688.016.688.75 0 .344-.047.625-.266.891-.281.313-.36.281-.781.313-.203.015-.235.015-.266.015l.14.281s-.437-.109-.437-.015c0 .125.282.281.422.281h.453c.656 0 .922.297.922 1.188 0 1.046-.39 1.187-.89 1.187-.329 0-.922-.031-1.094-.266.078-.015.375-.453.375-.625 0-.265-.407-.625-.672-.625-.235 0-.672.297-.672.641C.25-.5 1.328.172 2.344.172 3.5.172 4.516-.766 4.516-1.61zm0 0"/></svg></g><g><svg overflow="visible" x="327.737" y="91.268"><path d="M4.14-5.156c0-.125-.312-.266-.53-.266H2.78c.39-1.562.453-1.797.453-1.875 0-.203-.328-.453-.53-.453-.032 0-.579.14-.688.563l-.422 1.765H.64c-.25 0-.563.14-.563.36 0 .156.297.28.531.28h.813C.594-1.515.547-1.311.547-1.093c0 .64.656 1.219 1.312 1.219 1.22 0 2.079-1.875 2.079-1.969 0-.11-.282-.25-.329-.25-.109 0-.328.172-.375.297C2.72-.547 2.281-.39 1.875-.39c-.25 0-.172-.03-.172-.421 0-.282.016-.375.063-.579l.859-3.39h.953c.25 0 .563-.125.563-.375zm0 0"/></svg><svg overflow="visible" x="332.053" y="91.268"><path d="M6.14-1.844c0-.11-.296-.25-.327-.25-.125 0-.344.188-.375.344-.204.781-.22 1.36-.704 1.36-.328 0-.171-.188-.171-.422 0-.266.03-.36.156-.891l.265-1.063.438-1.687c.078-.328.078-.36.078-.406 0-.204-.344-.454-.547-.454-.281 0-.656.407-.703.657h.406c-.218-.438-.765-.89-1.297-.89-1.406 0-3.078 1.89-3.078 3.64 0 1.125.86 2.031 1.781 2.031.25 0 .97-.078 1.422-.61.032.094.657.61 1.22.61.421 0 .827-.297 1.015-.688l.062-.093c.203-.438.297-1.094.297-1.094zm-2.03-2.25c0 .063-.016.14-.032.203l-.594 2.344c-.062.203 0 .14-.187.344-.531.656-.875.812-1.203.812-.594 0-.578-.53-.578-1 0-.593.328-1.968.593-2.515.375-.703.782-1.11 1.266-1.11.766 0 .734.844.734.922zm0 0"/></svg><svg overflow="visible" x="338.377" y="91.268"><path d="M7.016-1.844c0-.11-.297-.25-.329-.25-.125 0-.328.172-.39.344-.234.813-.422 1.36-1.016 1.36-.203 0-.093.015-.093-.266 0-.297.109-.594.218-.844.219-.64.719-1.953.719-2.64 0-.798-.703-1.407-1.563-1.407-1.078 0-1.796.797-2 1.078l.329.094c-.063-.672-.735-1.172-1.282-1.172-.562 0-.921.5-1.14.89C.313-4.327.14-3.624.14-3.577c0 .125.484.219.484.219l-.14.03c.124 0 .328-.14.406-.405.203-.844.25-1.282.671-1.282.25 0 .172.016.172.407 0 .265-.03.39-.187 1.015L.844-.844c-.031.188-.11.469-.11.516 0 .219.375.453.563.453.14 0 .547-.219.656-.547-.078.156.125-.5.203-.797l.266-1.078c.062-.265.14-.531.203-.797l.14-.594c.188-.374.626-1.328 1.766-1.328.532 0 .438.313.438.704 0 .734-.578 2.265-.766 2.78-.11.282-.125.423-.125.548 0 .562.625 1.109 1.188 1.109 1.125 0 1.75-1.875 1.75-1.969zm0 0"/></svg></g><g><svg overflow="visible" x="347.535" y="91.268"><path d="M4.516 3.297c0-.031-.063-.172-.11-.188C3.078 2.11 2.25-.39 2.25-2.5v-1.234c0-2.11.828-4.61 2.156-5.61a.393.393 0 00.11-.187c0-.078-.235-.266-.313-.266-.016 0-.203.047-.203.063-1.438 1.062-2.813 3.765-2.813 6V-2.5C1.188-.266 2.563 2.422 4 3.484c0 .032.188.063.203.063.078 0 .313-.172.313-.25zm0 0"/></svg></g><g><svg overflow="visible" x="353.783" y="85.897"><path d="M6.031-2.625c0-.75-.656-1.39-1.312-1.39-1.157 0-1.969 1.64-2.203 2.265l-.282.875c-.78-.11-1.156-.36-1.156-.984l-.062.125s.046-.954.718-1.704a.654.654 0 00.141-.234c0-.094-.313-.25-.344-.25a.605.605 0 00-.422.235C.641-3.11.375-2.141.375-1.782c0 .75.75 1.562 1.578 1.734-.375 1.188-.422 1.36-.422 1.422 0 .234.39.438.485.438.093 0 .406-.11.562-.391.031-.078.11-.516.25-1.328-.094-.016.016-.016.11-.016 1.5 0 3.093-1.39 3.093-2.703zm-.718.156c0 .86-.844 1.672-2.297 1.672-.063 0-.188 0-.032.016.141-.828.141-1.094.547-1.64.375-.517.688-.704 1.094-.704.578 0 .688.234.688.656zm0 0"/></svg></g><path d="M353.781 88.277h6.285" fill="none" stroke-width=".478" stroke="#000" stroke-miterlimit="10"/><g><svg overflow="visible" x="354.545" y="95.393"><path d="M4.64-1.531V-2h-.937v-3.563c0-.187-.203-.406-.39-.406-.094 0-.282.063-.36.172L.125-1.844v.469h2.453v.531c0 .281.203.219-.469.219h-.437v.64L3.14-.03l1.468.047v-.641h-.437c-.672 0-.469.063-.469-.219v-.531h.938zM2.845-2H.969l2.015-2.781-.343-.125V-2zm0 0"/></svg></g><g><svg overflow="visible" x="361.264" y="91.267"><path d="M3.844-2.5v-1.234c0-2.235-1.375-4.938-2.797-6a1.01 1.01 0 00-.203-.063c-.078 0-.328.188-.328.266 0 .031.062.156.109.187 1.328 1 2.156 3.5 2.156 5.61V-2.5c0 2.11-.828 4.61-2.156 5.61-.047.015-.11.156-.11.187 0 .078.25.25.329.25.015 0 .187-.031.203-.063C2.469 2.422 3.844-.266 3.844-2.5zm0 0"/></svg></g><g><svg overflow="visible" x="368.963" y="91.267"><path d="M2.484-3.125c0-.344-.468-.766-.828-.766-.343 0-.828.422-.828.766 0 .36.485.766.828.766.36 0 .828-.407.828-.766zm0 0"/></svg></g><g><svg overflow="visible" x="374.941" y="91.267"><path d="M5.328-1.406c0-.078-.266-.297-.328-.297-.063 0-.234.062-.297.156C3.75-.359 2.593-.39 2.453-.39c-.75 0-.89-.453-.89-1.171 0-.5.187-1.563.593-2.297.36-.688.89-1.157 1.547-1.157.406 0 .719.11.766.204.078 0-.235.046-.407.203a1.026 1.026 0 00-.265.562c0 .297.406.563.64.563.344 0 .86-.422.86-.907 0-.578-.75-1.156-1.61-1.156-1.609 0-3.406 1.844-3.406 3.531 0 1.079.906 2.141 2.14 2.141 1.72 0 2.907-1.39 2.907-1.531zm0 0"/></svg></g><g><svg overflow="visible" x="380.416" y="91.267"><path d="M5.797-3.39c0-1.25-1.031-2.157-2.11-2.157-1.593 0-3.406 1.828-3.406 3.531C.281-.844 1.297.125 2.406.125c1.594 0 3.39-1.781 3.39-3.516zM4.53-3.86c0 .47-.187 1.626-.64 2.407-.407.687-.922 1.062-1.47 1.062-.515 0-.858-.25-.858-1.171 0-.594.25-1.782.64-2.391.594-.922 1.14-1.063 1.485-1.063.687 0 .843.438.843 1.157zm0 0"/></svg></g><g><svg overflow="visible" x="386.358" y="91.267"><path d="M5.219-4.39c0-.532-.719-1.157-1.625-1.157-1.578 0-2.219 1.344-2.219 1.875 0 .938 1.094 1.25 1.438 1.313.624.125 1.03.125 1.03.78 0 .313-.062 1.188-1.5 1.188-.171 0-.89.125-1.093-.328.188.016.672-.469.672-.812 0-.282-.375-.547-.625-.547-.313 0-.875.375-.875.922 0 .672.875 1.281 1.906 1.281 1.938 0 2.594-1.578 2.594-2.11 0-.437-.281-.827-.422-.968-.328-.328-.813-.422-1.328-.531-.438-.094-.719-.047-.719-.594 0-.344.094-.938 1.14-.938.298 0 .704-.046.829.282-.078.015-.531.406-.531.671 0 .172.312.485.578.485.265 0 .75-.344.75-.813zm0 0"/></svg><svg overflow="visible" x="391.965" y="91.267"><path d="M4.156 2.719c0-.047-.078-.172-.11-.203-1.234-.922-2-3.22-2-5.141v-1c0-1.906.767-4.203 2-5.14a.457.457 0 00.11-.188c0-.063-.25-.25-.312-.25a1.01 1.01 0 00-.203.062C2.312-8.156 1-5.67 1-3.625v1C1-.578 2.313 1.906 3.64 2.906c.016.016.188.063.204.063.062 0 .312-.203.312-.25zm0 0"/></svg><svg overflow="visible" x="396.616" y="91.267"><path d="M7.594-3.766c0-.937-.657-1.78-1.563-1.78-1.734 0-2.656 2.452-3.312 4.609-1.14-.204-1.625-.735-1.625-1.594 0-.344.218-1.563.937-2.375.094-.11.094-.157.094-.157l.063-.093c0-.063-.22-.266-.329-.266-.343 0-1.468 1.875-1.468 3.016 0 1.125 1 2.125 2.046 2.375l-.609 1.937c-.047.157-.062.172-.062.235 0 .265.437.468.546.468.063 0 .516-.171.641-.453.031-.094.094-.484.39-2.031h.235c1.985 0 4.016-2 4.016-3.89zm-.735.266c0 1.344-1.343 2.672-3.171 2.672-.11 0-.126 0-.22-.016-.14 0 .032.125.032.094l.234-1.297C4.11-3.578 4.86-4.594 5.922-4.594c.812 0 .937.516.937 1.094zm0 0"/></svg><svg overflow="visible" x="404.434" y="91.267"><path d="M3.64-2.625v-1c0-2.047-1.328-4.531-2.64-5.516a.774.774 0 00-.203-.062c-.063 0-.313.187-.313.25 0 .031.079.172.094.187 1.25.938 2.016 3.235 2.016 5.141v1c0 1.922-.766 4.219-2.016 5.14-.015.032-.094.157-.094.204 0 .047.25.25.313.25A.774.774 0 001 2.906c1.313-1 2.64-3.484 2.64-5.531zm0 0"/></svg></g></svg>