<svg xmlns="http://www.w3.org/2000/svg" xmlns:xlink="http://www.w3.org/1999/xlink" width="177px" height="85px" viewBox="0 0 133 64"><svg overflow="visible" x="20.411" y="8.745"><path d="M.11-.188c.453.22.859.313 1.28.313.579 0 1.126-.203 1.735-.688.61-.484.875-.921.875-1.515 0-.64-.375-1-1.281-1.156l-.5-.094c-.719-.14-.953-.344-.953-.828 0-.64.53-1.125 1.218-1.125.485 0 .954.218 1.141.531v.656h.266c.046-.406.109-.734.234-1.343-.469-.235-.797-.329-1.203-.329-.61 0-1.344.344-1.922.938-.313.328-.438.625-.438 1.047 0 .672.375 1.062 1.157 1.219l.75.14c.531.094.719.297.719.766 0 .797-.547 1.312-1.391 1.312-.438 0-.797-.14-1.125-.422v-1H.375C.312-1.156.235-.734.109-.187zm0 0"/></svg><svg overflow="visible" x="24.822" y="8.745"><path d="M.484-4.656H1.5L.828-1.281c-.062.297-.156.593-.156.906 0 .297.125.484.36.484.421 0 .827-.234 1.765-1 .219-.156.14-.109.375-.296l-.125-.22-.531.376c-.36.25-.594.36-.735.36-.093 0-.156-.095-.156-.235 0-.313.14-1.25.516-3.016l.156-.734h1.281l.125-.61c-.453.047-.86.079-1.312.079.187-1.125.328-1.704.53-2.36l-.124-.172c-.235.14-.563.282-.938.422l-.296 2.031c-.516.25-.829.391-1.047.454zm0 0"/></svg><svg overflow="visible" x="28.624" y="8.745"><path d="M.047-.781c0 .5.187.906.406.906.25 0 .688-.25 1.14-.625.516-.438.985-1 1.641-1.938L2.891-.921a2.882 2.882 0 00-.063.61c0 .28.094.437.281.437.266 0 .766-.328 1.75-1.14l-.093-.25c-.079.077-.094.077-.157.124-.375.329-.562.438-.734.438-.125 0-.188-.094-.188-.281 0-.063 0-.094.016-.125l1.11-4.532-.125-.109-.391.219c-.469-.188-.703-.235-1.016-.235-.344 0-.578.063-.906.22-.75.374-1.125.734-1.438 1.312C.422-3.172.047-1.75.047-.781zm.86-.406c0-.766.312-2.094.734-3.079.28-.687.578-.906 1.156-.906.281 0 .5.047 1.015.219-.265 1.281-.484 1.906-.89 2.516-.656 1-1.406 1.734-1.797 1.734-.14 0-.219-.156-.219-.485zm0 0"/></svg><svg overflow="visible" x="33.932" y="8.745"><path d="M.313-4.64l.078.234.39-.25c.328-.203.469-.266.563-.266.125 0 .203.11.203.266 0 .687-.5 3.156-.984 4.687L.688.11c.25-.078.515-.14.796-.187L1.797-1.5c.219-1 .484-1.625 1.016-2.313.406-.53.718-.78.984-.78.187 0 .297.062.437.234h.172c.032-.454.094-.844.188-1.329-.14-.062-.188-.078-.25-.078-.36 0-.735.297-1.172.907-.406.578-.813 1.156-1.11 1.796l.297-1.5c.063-.265.157-.546.157-.812 0-.25-.094-.39-.282-.39-.25 0-.703.25-1.593.89zm0 0"/></svg><svg overflow="visible" x="38.583" y="8.745"><path d="M.484-4.656H1.5L.828-1.281c-.062.297-.156.593-.156.906 0 .297.125.484.36.484.421 0 .827-.234 1.765-1 .219-.156.14-.109.375-.296l-.125-.22-.531.376c-.36.25-.594.36-.735.36-.093 0-.156-.095-.156-.235 0-.313.14-1.25.516-3.016l.156-.734h1.281l.125-.61c-.453.047-.86.079-1.312.079.187-1.125.328-1.704.53-2.36l-.124-.172c-.235.14-.563.282-.938.422l-.296 2.031c-.516.25-.829.391-1.047.454zm0 0"/></svg><svg overflow="visible" x="45.885" y="8.745"><path d="M8.125-3.938c-.016-.124-.031-.25-.031-.359 0-.125.015-.25.031-.36H.953c.031.11.031.235.031.36 0 .11 0 .234-.03.36zm0 2.626c-.016-.125-.031-.235-.031-.36s.015-.234.031-.36H.953a1.4 1.4 0 01.031.36c0 .125 0 .234-.03.36zm0 0"/></svg><svg overflow="visible" x="58.283" y="8.745"><path d="M4.11-7.61a.735.735 0 01-.188-.14c-.063-.063-.11-.11-.14-.188-1.47 1.47-2.345 3.032-2.345 4.563v.781c0 1.516.875 3.078 2.344 4.547a.735.735 0 01.14-.187.735.735 0 01.188-.141C2.781.281 2.156-1.203 2.156-2.594v-.781c0-1.39.625-2.89 1.953-4.234zm0 0"/></svg><svg overflow="visible" x="63.352" y="8.745"><path d="M4.594-5.688c-.14-.062-.188-.078-.25-.078-.36 0-.735.297-1.172.907-.406.578-.813 1.156-1.11 1.796l.297-1.5c.063-.265.157-.546.157-.812 0-.25-.094-.39-.282-.39-.25 0-.703.25-1.593.89l-.329.234.079.235.39-.25c.328-.203.469-.266.563-.266.125 0 .203.11.203.266 0 .687-.5 3.156-.984 4.687L.688.11c.25-.078.515-.14.796-.187L1.797-1.5c.219-1 .484-1.625 1.016-2.313.406-.53.718-.78.984-.78.187 0 .297.062.437.234h.172c.032-.454.094-.844.188-1.329zm0 0"/></svg><svg overflow="visible" x="68.277" y="8.745"><path d="M2.61-1.297l-.172-.172c-.329.11-.532.172-1.172.36C1.187-.203.89.578.187 1.719l.172.14.485-.234c.969-1.25 1.422-2 1.765-2.922zm0 0"/></svg><svg overflow="visible" x="76.251" y="8.745"><path d="M5.563-4.375c0-2.625-.782-3.86-2.422-3.86-1.844 0-2.797 1.47-2.797 4.36 0 1.406.25 2.61.672 3.188.421.593 1.093.921 1.828.921 1.812 0 2.719-1.546 2.719-4.609zm-1.016.594c0 2.547-.453 3.61-1.547 3.61-1.156 0-1.656-1.22-1.656-4.126 0-2.531.453-3.516 1.578-3.516 1.172 0 1.625 1.172 1.625 4.032zm0 0"/></svg><svg overflow="visible" x="82.229" y="8.745"><path d="M3.64-2.594v-.781c0-1.531-.874-3.094-2.343-4.563-.047.079-.094.125-.156.188a.427.427 0 01-.188.14c1.328 1.344 1.969 2.844 1.969 4.235v.781c0 1.39-.64 2.875-1.969 4.219.078.031.14.078.188.14.062.063.109.126.156.188C2.766.484 3.64-1.078 3.64-2.594zm0 0"/></svg><svg overflow="visible" x=".233" y="26.179"><path d="M.297-1.625c0 1.14.5 1.75 1.453 1.75.656 0 1.219-.234 1.89-.766l.594-.5-.093-.234-.188.125c-.86.563-1.312.766-1.734.766-.672 0-1.016-.47-1.016-1.422 0-1.266.406-2.5.984-2.953.25-.22.547-.313.938-.313.531 0 .969.219.969.516v.718h.265c.094-.78.188-1.218.297-1.53-.312-.204-.703-.298-1.156-.298-.531 0-1.39.422-2.063 1.016C.75-4.14.298-2.906.298-1.625zm0 0"/></svg><svg overflow="visible" x="5.099" y="26.179"><path d="M.203-1.813C.203-.546.734.125 1.734.125c.657 0 1.375-.297 1.907-.813.75-.703 1.265-2.062 1.265-3.265 0-1.125-.593-1.813-1.578-1.813-.515 0-1.078.204-1.625.594-.969.688-1.5 1.89-1.5 3.36zm.906 0c0-1.343.47-2.812 1.047-3.296.156-.125.438-.204.719-.204.734 0 1.125.547 1.125 1.547 0 1.141-.36 2.422-.89 3.047-.22.25-.532.39-.891.39-.703 0-1.11-.53-1.11-1.484zm0 0"/></svg><svg overflow="visible" x="10.407" y="26.179"><path d="M.281-4.64l.094.234.375-.25c.438-.282.484-.297.563-.297.14 0 .218.125.218.297 0 .61-.484 2.922-.984 4.625l.094.14c.296-.078.562-.156.828-.203.234-1.515.484-2.281 1.031-3.11.656-1 1.547-1.75 2.078-1.75.125 0 .203.11.203.298 0 .203-.031.453-.125.843L4.031-1.28c-.11.437-.156.718-.156.906 0 .297.125.484.36.484.312 0 .734-.25 1.906-1.125l-.11-.218-.312.203c-.36.234-.61.36-.735.36-.078 0-.156-.11-.156-.235 0-.063.016-.188.031-.235l.782-3.312a4.47 4.47 0 00.125-.875c0-.281-.125-.438-.36-.438-.5 0-1.328.454-2.031 1.11-.453.422-.797.828-1.422 1.703l.469-1.922c.047-.219.062-.36.062-.484 0-.266-.093-.407-.265-.407-.266 0-.719.266-1.594.891zm0 0"/></svg><svg overflow="visible" x="17.054" y="26.179"><path d="M.484-4.656H1.5L.828-1.281c-.062.297-.156.593-.156.906 0 .297.125.484.36.484.421 0 .827-.234 1.765-1 .219-.156.14-.109.375-.296l-.125-.22-.531.376c-.36.25-.594.36-.735.36-.093 0-.156-.095-.156-.235 0-.313.14-1.25.516-3.016l.156-.734h1.281l.125-.61c-.453.047-.86.079-1.312.079.187-1.125.328-1.704.53-2.36l-.124-.172c-.235.14-.563.282-.938.422l-.296 2.031c-.516.25-.829.391-1.047.454zm0 0"/></svg><svg overflow="visible" x="21.035" y="26.179"><path d="M.313-4.64l.078.234.39-.25c.328-.203.469-.266.563-.266.125 0 .203.11.203.266 0 .687-.5 3.156-.984 4.687L.688.11c.25-.078.515-.14.796-.187L1.797-1.5c.219-1 .484-1.625 1.016-2.313.406-.53.718-.78.984-.78.187 0 .297.062.437.234h.172c.032-.454.094-.844.188-1.329-.14-.062-.188-.078-.25-.078-.36 0-.735.297-1.172.907-.406.578-.813 1.156-1.11 1.796l.297-1.5c.063-.265.157-.546.157-.812 0-.25-.094-.39-.282-.39-.25 0-.703.25-1.593.89zm0 0"/></svg><svg overflow="visible" x="25.458" y="26.179"><path d="M.203-1.813C.203-.546.734.125 1.734.125c.657 0 1.375-.297 1.907-.813.75-.703 1.265-2.062 1.265-3.265 0-1.125-.593-1.813-1.578-1.813-.515 0-1.078.204-1.625.594-.969.688-1.5 1.89-1.5 3.36zm.906 0c0-1.343.47-2.812 1.047-3.296.156-.125.438-.204.719-.204.734 0 1.125.547 1.125 1.547 0 1.141-.36 2.422-.89 3.047-.22.25-.532.39-.891.39-.703 0-1.11-.53-1.11-1.484zm0 0"/></svg><svg overflow="visible" x="30.767" y="26.179"><path d="M.438-.36c0 .282.124.47.343.47.313 0 .766-.266 1.922-1.126l-.125-.218-.312.203c-.36.25-.61.36-.72.36-.093 0-.155-.11-.155-.235 0-.156.03-.297.062-.438L3-8.625l-.14-.14c-.626.312-1.047.421-1.922.5l-.047.25h.578c.281 0 .406.093.406.265 0 .156-.047.438-.063.578L.657-1.578C.484-.953.437-.625.437-.36zm0 0"/></svg><svg overflow="visible" x="37.067" y="28.953"><path d="M4.125.031v-.265l-.516-.032c-.515-.03-.625-.125-.625-.578v-5.25L2.86-6.14c-.625.297-1.312.563-2.203.86l.078.375h.094l1.25-.516.031-.016c.047 0 .079.094.079.297v4.297c0 .453-.11.547-.626.578l-.546.032V.03L2.594 0zm0 0"/></svg><svg overflow="visible" x="45.885" y="26.179"><path d="M8.125-3.938c-.016-.124-.031-.25-.031-.359 0-.125.015-.25.031-.36H.953c.031.11.031.235.031.36 0 .11 0 .234-.03.36zm0 2.626c-.016-.125-.031-.235-.031-.36s.015-.234.031-.36H.953a1.4 1.4 0 01.031.36c0 .125 0 .234-.03.36zm0 0"/></svg><svg overflow="visible" x="58.283" y="26.179"><path d="M4.11-7.61a.735.735 0 01-.188-.14c-.063-.063-.11-.11-.14-.188-1.47 1.47-2.345 3.032-2.345 4.563v.781c0 1.516.875 3.078 2.344 4.547a.735.735 0 01.14-.187.735.735 0 01.188-.141C2.781.281 2.156-1.203 2.156-2.594v-.781c0-1.39.625-2.89 1.953-4.234zm0 0"/></svg><svg overflow="visible" x="63.352" y="26.179"><path d="M4.594-5.688c-.14-.062-.188-.078-.25-.078-.36 0-.735.297-1.172.907-.406.578-.813 1.156-1.11 1.796l.297-1.5c.063-.265.157-.546.157-.812 0-.25-.094-.39-.282-.39-.25 0-.703.25-1.593.89l-.329.234.079.235.39-.25c.328-.203.469-.266.563-.266.125 0 .203.11.203.266 0 .687-.5 3.156-.984 4.687L.688.11c.25-.078.515-.14.796-.187L1.797-1.5c.219-1 .484-1.625 1.016-2.313.406-.53.718-.78.984-.78.187 0 .297.062.437.234h.172c.032-.454.094-.844.188-1.329zm0 0"/></svg><svg overflow="visible" x="68.277" y="26.179"><path d="M2.61-1.297l-.172-.172c-.329.11-.532.172-1.172.36C1.187-.203.89.578.187 1.719l.172.14.485-.234c.969-1.25 1.422-2 1.765-2.922zm0 0"/></svg><svg overflow="visible" x="76.251" y="26.179"><path d="M5.563-4.375c0-2.625-.782-3.86-2.422-3.86-1.844 0-2.797 1.47-2.797 4.36 0 1.406.25 2.61.672 3.188.421.593 1.093.921 1.828.921 1.812 0 2.719-1.546 2.719-4.609zm-1.016.594c0 2.547-.453 3.61-1.547 3.61-1.156 0-1.656-1.22-1.656-4.126 0-2.531.453-3.516 1.578-3.516 1.172 0 1.625 1.172 1.625 4.032zm0 0"/></svg><svg overflow="visible" x="82.229" y="26.179"><path d="M2.188-.64c0-.344-.329-.688-.704-.688-.359 0-.687.344-.687.687 0 .36.328.704.672.704.39 0 .718-.329.718-.704zm0 0"/></svg><svg overflow="visible" x="85.218" y="26.179"><path d="M5.484-3.031c0-1.344-.968-2.297-2.328-2.297-.578 0-1 .156-1.75.594l.11-2.5 3.64.062.063-.062c-.016-.22-.016-.282-.016-.47 0-.187 0-.25.016-.468l-.063-.062s-1.265.062-2.078.062C2.266-8.172 1-8.234 1-8.234l-.063.062.032 1.64c0 1.048-.031 2.157-.078 2.688l.25.063c.562-.563.875-.719 1.468-.719 1.141 0 1.86.813 1.86 2.094 0 1.328-.766 2.11-2.063 2.11-.656 0-1.25-.22-1.422-.532l-.546-.985-.282.172C.437-.953.578-.578.734-.047c.344.172.813.281 1.329.281.812 0 1.656-.343 2.312-.921.734-.641 1.11-1.454 1.11-2.344zm0 0"/></svg><svg overflow="visible" x="91.195" y="26.179"><path d="M5.484-3.031c0-1.344-.968-2.297-2.328-2.297-.578 0-1 .156-1.75.594l.11-2.5 3.64.062.063-.062c-.016-.22-.016-.282-.016-.47 0-.187 0-.25.016-.468l-.063-.062s-1.265.062-2.078.062C2.266-8.172 1-8.234 1-8.234l-.063.062.032 1.64c0 1.048-.031 2.157-.078 2.688l.25.063c.562-.563.875-.719 1.468-.719 1.141 0 1.86.813 1.86 2.094 0 1.328-.766 2.11-2.063 2.11-.656 0-1.25-.22-1.422-.532l-.546-.985-.282.172C.437-.953.578-.578.734-.047c.344.172.813.281 1.329.281.812 0 1.656-.343 2.312-.921.734-.641 1.11-1.454 1.11-2.344zm0 0"/></svg><svg overflow="visible" x="97.173" y="26.179"><path d="M5.594.031c-.032-.25-.032-.36-.032-.531 0-.156 0-.281.032-.547l-4.14.125L3.64-3.234c1.156-1.22 1.515-1.875 1.515-2.782 0-1.375-.937-2.218-2.453-2.218-.86 0-1.453.234-2.031.828l-.203 1.64h.344l.156-.562c.187-.688.625-.984 1.422-.984 1.03 0 1.687.64 1.687 1.656 0 .906-.5 1.781-1.86 3.218L.189-.28V.03L2.858 0zm0 0"/></svg><svg overflow="visible" x="103.15" y="26.179"><path d="M5.594.031c-.032-.25-.032-.36-.032-.531 0-.156 0-.281.032-.547l-4.14.125L3.64-3.234c1.156-1.22 1.515-1.875 1.515-2.782 0-1.375-.937-2.218-2.453-2.218-.86 0-1.453.234-2.031.828l-.203 1.64h.344l.156-.562c.187-.688.625-.984 1.422-.984 1.03 0 1.687.64 1.687 1.656 0 .906-.5 1.781-1.86 3.218L.189-.28V.03L2.858 0zm0 0"/></svg><svg overflow="visible" x="109.128" y="26.179"><path d="M5.547-2.469c0-.953-.438-1.469-1.813-2.078 1.094-.75 1.485-1.25 1.485-1.969 0-1.03-.86-1.718-2.125-1.718-1.422 0-2.453.906-2.453 2.156 0 .812.312 1.266 1.375 1.953-.5.234-.704.36-.97.61-.452.453-.687 1-.687 1.609 0 1.234.985 2.14 2.344 2.14 1.547 0 2.844-1.218 2.844-2.703zm-.938.516c0 1-.765 1.781-1.734 1.781C1.859-.172 1.203-.89 1.203-2c0-.875.344-1.422 1.234-1.953l.954.422c.75.344 1.218.922 1.218 1.578zm-.203-4.438c0 .688-.312 1.157-1.078 1.657l-.656-.329c-.766-.359-1.14-.843-1.14-1.437 0-.797.577-1.328 1.421-1.328.875 0 1.453.578 1.453 1.437zm0 0"/></svg><svg overflow="visible" x="117.76" y="26.179"><path d="M2.39-2.984c0-.438-.28-.72-.718-.72-.422 0-.719.282-.719.72 0 .421.297.718.719.718.437 0 .719-.296.719-.718zm0 0"/></svg><svg overflow="visible" x="123.761" y="26.179"><path d="M4.594-5.688c-.14-.062-.188-.078-.25-.078-.36 0-.735.297-1.172.907-.406.578-.813 1.156-1.11 1.796l.297-1.5c.063-.265.157-.546.157-.812 0-.25-.094-.39-.282-.39-.25 0-.703.25-1.593.89l-.329.234.079.235.39-.25c.328-.203.469-.266.563-.266.125 0 .203.11.203.266 0 .687-.5 3.156-.984 4.687L.688.11c.25-.078.515-.14.796-.187L1.797-1.5c.219-1 .484-1.625 1.016-2.313.406-.53.718-.78.984-.78.187 0 .297.062.437.234h.172c.032-.454.094-.844.188-1.329zm0 0"/></svg><g><svg overflow="visible" x="128.687" y="26.179"><path d="M3.64-2.594v-.781c0-1.531-.874-3.094-2.343-4.563-.047.079-.094.125-.156.188a.427.427 0 01-.188.14c1.328 1.344 1.969 2.844 1.969 4.235v.781c0 1.39-.64 2.875-1.969 4.219.078.031.14.078.188.14.062.063.109.126.156.188C2.766.484 3.64-1.078 3.64-2.594zm0 0"/></svg></g><g><svg overflow="visible" x=".233" y="43.614"><path d="M.297-1.625c0 1.14.5 1.75 1.453 1.75.656 0 1.219-.234 1.89-.766l.594-.5-.093-.234-.188.125c-.86.563-1.312.766-1.734.766-.672 0-1.016-.47-1.016-1.422 0-1.266.406-2.5.984-2.953.25-.22.547-.313.938-.313.531 0 .969.219.969.516v.718h.265c.094-.78.188-1.218.297-1.53-.312-.204-.703-.298-1.156-.298-.531 0-1.39.422-2.063 1.016C.75-4.14.298-2.906.298-1.625zm0 0"/></svg><svg overflow="visible" x="5.099" y="43.614"><path d="M.203-1.813C.203-.546.734.125 1.734.125c.657 0 1.375-.297 1.907-.813.75-.703 1.265-2.062 1.265-3.265 0-1.125-.593-1.813-1.578-1.813-.515 0-1.078.204-1.625.594-.969.688-1.5 1.89-1.5 3.36zm.906 0c0-1.343.47-2.812 1.047-3.296.156-.125.438-.204.719-.204.734 0 1.125.547 1.125 1.547 0 1.141-.36 2.422-.89 3.047-.22.25-.532.39-.891.39-.703 0-1.11-.53-1.11-1.484zm0 0"/></svg><svg overflow="visible" x="10.407" y="43.614"><path d="M.281-4.64l.094.234.375-.25c.438-.282.484-.297.563-.297.14 0 .218.125.218.297 0 .61-.484 2.922-.984 4.625l.094.14c.296-.078.562-.156.828-.203.234-1.515.484-2.281 1.031-3.11.656-1 1.547-1.75 2.078-1.75.125 0 .203.11.203.298 0 .203-.031.453-.125.843L4.031-1.28c-.11.437-.156.718-.156.906 0 .297.125.484.36.484.312 0 .734-.25 1.906-1.125l-.11-.218-.312.203c-.36.234-.61.36-.735.36-.078 0-.156-.11-.156-.235 0-.063.016-.188.031-.235l.782-3.312a4.47 4.47 0 00.125-.875c0-.281-.125-.438-.36-.438-.5 0-1.328.454-2.031 1.11-.453.422-.797.828-1.422 1.703l.469-1.922c.047-.219.062-.36.062-.484 0-.266-.093-.407-.265-.407-.266 0-.719.266-1.594.891zm0 0"/></svg><svg overflow="visible" x="17.054" y="43.614"><path d="M.484-4.656H1.5L.828-1.281c-.062.297-.156.593-.156.906 0 .297.125.484.36.484.421 0 .827-.234 1.765-1 .219-.156.14-.109.375-.296l-.125-.22-.531.376c-.36.25-.594.36-.735.36-.093 0-.156-.095-.156-.235 0-.313.14-1.25.516-3.016l.156-.734h1.281l.125-.61c-.453.047-.86.079-1.312.079.187-1.125.328-1.704.53-2.36l-.124-.172c-.235.14-.563.282-.938.422l-.296 2.031c-.516.25-.829.391-1.047.454zm0 0"/></svg><svg overflow="visible" x="21.035" y="43.614"><path d="M.313-4.64l.078.234.39-.25c.328-.203.469-.266.563-.266.125 0 .203.11.203.266 0 .687-.5 3.156-.984 4.687L.688.11c.25-.078.515-.14.796-.187L1.797-1.5c.219-1 .484-1.625 1.016-2.313.406-.53.718-.78.984-.78.187 0 .297.062.437.234h.172c.032-.454.094-.844.188-1.329-.14-.062-.188-.078-.25-.078-.36 0-.735.297-1.172.907-.406.578-.813 1.156-1.11 1.796l.297-1.5c.063-.265.157-.546.157-.812 0-.25-.094-.39-.282-.39-.25 0-.703.25-1.593.89zm0 0"/></svg></g><g><svg overflow="visible" x="25.458" y="43.614"><path d="M.203-1.813C.203-.546.734.125 1.734.125c.657 0 1.375-.297 1.907-.813.75-.703 1.265-2.062 1.265-3.265 0-1.125-.593-1.813-1.578-1.813-.515 0-1.078.204-1.625.594-.969.688-1.5 1.89-1.5 3.36zm.906 0c0-1.343.47-2.812 1.047-3.296.156-.125.438-.204.719-.204.734 0 1.125.547 1.125 1.547 0 1.141-.36 2.422-.89 3.047-.22.25-.532.39-.891.39-.703 0-1.11-.53-1.11-1.484zm0 0"/></svg><svg overflow="visible" x="30.767" y="43.614"><path d="M.438-.36c0 .282.124.47.343.47.313 0 .766-.266 1.922-1.126l-.125-.218-.312.203c-.36.25-.61.36-.72.36-.093 0-.155-.11-.155-.235 0-.156.03-.297.062-.438L3-8.625l-.14-.14c-.626.312-1.047.421-1.922.5l-.047.25h.578c.281 0 .406.093.406.265 0 .156-.047.438-.063.578L.657-1.578C.484-.953.437-.625.437-.36zm0 0"/></svg></g><g><svg overflow="visible" x="37.067" y="46.388"><path d="M4.594.031c-.016-.187-.016-.281-.016-.406 0-.11 0-.203.016-.39l-3.328.078 1.75-1.704c.937-.906 1.234-1.39 1.234-2.062 0-1.016-.75-1.64-1.984-1.64-.688 0-1.172.171-1.641.624L.469-4.266H.75l.11-.406c.171-.516.515-.734 1.156-.734.828 0 1.359.468 1.359 1.218 0 .672-.406 1.329-1.484 2.391L.234-.203V.03L2.391 0zm0 0"/></svg></g><g><svg overflow="visible" x="45.885" y="43.614"><path d="M8.125-3.938c-.016-.124-.031-.25-.031-.359 0-.125.015-.25.031-.36H.953c.031.11.031.235.031.36 0 .11 0 .234-.03.36zm0 2.626c-.016-.125-.031-.235-.031-.36s.015-.234.031-.36H.953a1.4 1.4 0 01.031.36c0 .125 0 .234-.03.36zm0 0"/></svg></g><g><svg overflow="visible" x="58.283" y="43.614"><path d="M4.11-7.61a.735.735 0 01-.188-.14c-.063-.063-.11-.11-.14-.188-1.47 1.47-2.345 3.032-2.345 4.563v.781c0 1.516.875 3.078 2.344 4.547a.735.735 0 01.14-.187.735.735 0 01.188-.141C2.781.281 2.156-1.203 2.156-2.594v-.781c0-1.39.625-2.89 1.953-4.234zm0 0"/></svg><svg overflow="visible" x="63.352" y="43.614"><path d="M5.563-4.375c0-2.625-.782-3.86-2.422-3.86-1.844 0-2.797 1.47-2.797 4.36 0 1.406.25 2.61.672 3.188.421.593 1.093.921 1.828.921 1.812 0 2.719-1.546 2.719-4.609zm-1.016.594c0 2.547-.453 3.61-1.547 3.61-1.156 0-1.656-1.22-1.656-4.126 0-2.531.453-3.516 1.578-3.516 1.172 0 1.625 1.172 1.625 4.032zm0 0"/></svg><svg overflow="visible" x="69.329" y="43.614"><path d="M2.188-.64c0-.344-.329-.688-.704-.688-.359 0-.687.344-.687.687 0 .36.328.704.672.704.39 0 .718-.329.718-.704zm0 0"/></svg><svg overflow="visible" x="72.318" y="43.614"><path d="M5.484-3.031c0-1.344-.968-2.297-2.328-2.297-.578 0-1 .156-1.75.594l.11-2.5 3.64.062.063-.062c-.016-.22-.016-.282-.016-.47 0-.187 0-.25.016-.468l-.063-.062s-1.265.062-2.078.062C2.266-8.172 1-8.234 1-8.234l-.063.062.032 1.64c0 1.048-.031 2.157-.078 2.688l.25.063c.562-.563.875-.719 1.468-.719 1.141 0 1.86.813 1.86 2.094 0 1.328-.766 2.11-2.063 2.11-.656 0-1.25-.22-1.422-.532l-.546-.985-.282.172C.437-.953.578-.578.734-.047c.344.172.813.281 1.329.281.812 0 1.656-.343 2.312-.921.734-.641 1.11-1.454 1.11-2.344zm0 0"/></svg><svg overflow="visible" x="78.296" y="43.614"><path d="M5.484-3.031c0-1.344-.968-2.297-2.328-2.297-.578 0-1 .156-1.75.594l.11-2.5 3.64.062.063-.062c-.016-.22-.016-.282-.016-.47 0-.187 0-.25.016-.468l-.063-.062s-1.265.062-2.078.062C2.266-8.172 1-8.234 1-8.234l-.063.062.032 1.64c0 1.048-.031 2.157-.078 2.688l.25.063c.562-.563.875-.719 1.468-.719 1.141 0 1.86.813 1.86 2.094 0 1.328-.766 2.11-2.063 2.11-.656 0-1.25-.22-1.422-.532l-.546-.985-.282.172C.437-.953.578-.578.734-.047c.344.172.813.281 1.329.281.812 0 1.656-.343 2.312-.921.734-.641 1.11-1.454 1.11-2.344zm0 0"/></svg><svg overflow="visible" x="84.273" y="43.614"><path d="M5.594.031c-.032-.25-.032-.36-.032-.531 0-.156 0-.281.032-.547l-4.14.125L3.64-3.234c1.156-1.22 1.515-1.875 1.515-2.782 0-1.375-.937-2.218-2.453-2.218-.86 0-1.453.234-2.031.828l-.203 1.64h.344l.156-.562c.187-.688.625-.984 1.422-.984 1.03 0 1.687.64 1.687 1.656 0 .906-.5 1.781-1.86 3.218L.189-.28V.03L2.858 0zm0 0"/></svg><svg overflow="visible" x="90.251" y="43.614"><path d="M5.594.031c-.032-.25-.032-.36-.032-.531 0-.156 0-.281.032-.547l-4.14.125L3.64-3.234c1.156-1.22 1.515-1.875 1.515-2.782 0-1.375-.937-2.218-2.453-2.218-.86 0-1.453.234-2.031.828l-.203 1.64h.344l.156-.562c.187-.688.625-.984 1.422-.984 1.03 0 1.687.64 1.687 1.656 0 .906-.5 1.781-1.86 3.218L.189-.28V.03L2.858 0zm0 0"/></svg><svg overflow="visible" x="96.228" y="43.614"><path d="M5.547-2.469c0-.953-.438-1.469-1.813-2.078 1.094-.75 1.485-1.25 1.485-1.969 0-1.03-.86-1.718-2.125-1.718-1.422 0-2.453.906-2.453 2.156 0 .812.312 1.266 1.375 1.953-.5.234-.704.36-.97.61-.452.453-.687 1-.687 1.609 0 1.234.985 2.14 2.344 2.14 1.547 0 2.844-1.218 2.844-2.703zm-.938.516c0 1-.765 1.781-1.734 1.781C1.859-.172 1.203-.89 1.203-2c0-.875.344-1.422 1.234-1.953l.954.422c.75.344 1.218.922 1.218 1.578zm-.203-4.438c0 .688-.312 1.157-1.078 1.657l-.656-.329c-.766-.359-1.14-.843-1.14-1.437 0-.797.577-1.328 1.421-1.328.875 0 1.453.578 1.453 1.437zm0 0"/></svg></g><g><svg overflow="visible" x="104.872" y="43.614"><path d="M2.39-2.984c0-.438-.28-.72-.718-.72-.422 0-.719.282-.719.72 0 .421.297.718.719.718.437 0 .719-.296.719-.718zm0 0"/></svg></g><g><svg overflow="visible" x="110.873" y="43.614"><path d="M4.594-5.688c-.14-.062-.188-.078-.25-.078-.36 0-.735.297-1.172.907-.406.578-.813 1.156-1.11 1.796l.297-1.5c.063-.265.157-.546.157-.812 0-.25-.094-.39-.282-.39-.25 0-.703.25-1.593.89l-.329.234.079.235.39-.25c.328-.203.469-.266.563-.266.125 0 .203.11.203.266 0 .687-.5 3.156-.984 4.687L.688.11c.25-.078.515-.14.796-.187L1.797-1.5c.219-1 .484-1.625 1.016-2.313.406-.53.718-.78.984-.78.187 0 .297.062.437.234h.172c.032-.454.094-.844.188-1.329zm0 0"/></svg></g><g><svg overflow="visible" x="115.799" y="43.614"><path d="M2.61-1.297l-.172-.172c-.329.11-.532.172-1.172.36C1.187-.203.89.578.187 1.719l.172.14.485-.234c.969-1.25 1.422-2 1.765-2.922zm0 0"/></svg></g><g><svg overflow="visible" x="123.761" y="43.614"><path d="M4.594-5.688c-.14-.062-.188-.078-.25-.078-.36 0-.735.297-1.172.907-.406.578-.813 1.156-1.11 1.796l.297-1.5c.063-.265.157-.546.157-.812 0-.25-.094-.39-.282-.39-.25 0-.703.25-1.593.89l-.329.234.079.235.39-.25c.328-.203.469-.266.563-.266.125 0 .203.11.203.266 0 .687-.5 3.156-.984 4.687L.688.11c.25-.078.515-.14.796-.187L1.797-1.5c.219-1 .484-1.625 1.016-2.313.406-.53.718-.78.984-.78.187 0 .297.062.437.234h.172c.032-.454.094-.844.188-1.329zm0 0"/></svg></g><g><svg overflow="visible" x="128.687" y="43.614"><path d="M3.64-2.594v-.781c0-1.531-.874-3.094-2.343-4.563-.047.079-.094.125-.156.188a.427.427 0 01-.188.14c1.328 1.344 1.969 2.844 1.969 4.235v.781c0 1.39-.64 2.875-1.969 4.219.078.031.14.078.188.14.062.063.109.126.156.188C2.766.484 3.64-1.078 3.64-2.594zm0 0"/></svg></g><g><svg overflow="visible" x="25.288" y="61.048"><path d="M.172-1.344c0 .922.531 1.469 1.39 1.469.688 0 1.344-.328 2.454-1.219l-.094-.234-.281.203C3-.672 2.42-.437 2-.437c-.578 0-.906-.438-.906-1.172 0-.297.015-.61.093-.954l.97-.234c.202-.047.515-.172.827-.297C4-3.547 4.47-4.094 4.47-4.828c0-.563-.39-.938-1-.938-.781 0-2.078.813-2.563 1.563-.36.594-.734 2.031-.734 2.86zM1.25-2.828l.094-.453c.203-.797.437-1.313.765-1.61.22-.218.61-.375.907-.375.343 0 .562.25.562.625 0 .532-.406 1.094-1.031 1.391-.328.156-.766.297-1.297.422zm0 0"/></svg><svg overflow="visible" x="29.939" y="61.048"><path d="M.281-4.64l.094.234.375-.25c.438-.282.484-.297.563-.297.14 0 .218.125.218.297 0 .61-.484 2.922-.984 4.625l.094.14c.296-.078.562-.156.828-.203.234-1.515.484-2.281 1.031-3.11.656-1 1.547-1.75 2.078-1.75.125 0 .203.11.203.298 0 .203-.031.453-.125.843L4.031-1.28c-.11.437-.156.718-.156.906 0 .297.125.484.36.484.312 0 .734-.25 1.906-1.125l-.11-.218-.312.203c-.36.234-.61.36-.735.36-.078 0-.156-.11-.156-.235 0-.063.016-.188.031-.235l.782-3.312a4.47 4.47 0 00.125-.875c0-.281-.125-.438-.36-.438-.5 0-1.328.454-2.031 1.11-.453.422-.797.828-1.422 1.703l.469-1.922c.047-.219.062-.36.062-.484 0-.266-.093-.407-.265-.407-.266 0-.719.266-1.594.891zm0 0"/></svg><svg overflow="visible" x="36.586" y="61.048"><path d="M.203-1.031C.203-.25.375.125.734.125c.313 0 .766-.203 1.172-.516.64-.53 1.032-1 1.828-2.203L3.47-1.5c-.14.516-.188.906-.188 1.219 0 .25.094.406.297.406.219 0 .5-.156.906-.453l.97-.719-.126-.234-.516.375c-.171.125-.359.203-.468.203-.094 0-.172-.11-.172-.281 0-.094.031-.204.094-.547l1.5-7.094-.141-.14c-.61.312-1.047.421-1.906.5l-.047.25h.578c.281 0 .406.093.406.296 0 .094-.015.203-.031.282l-.328 1.843a3.437 3.437 0 00-.984-.172c-.829 0-1.954.86-2.5 1.907-.375.687-.61 1.828-.61 2.828zm.86-.14c0-1.5.546-3.376 1.14-3.829.156-.11.375-.172.703-.172.531 0 .875.063 1.266.266l-.14.703c-.22 1.062-.798 2.11-1.548 2.812-.421.407-.89.688-1.125.688-.187 0-.296-.172-.296-.469zm0 0"/></svg></g><g><svg overflow="visible" x="45.885" y="61.048"><path d="M8.125-3.938c-.016-.124-.031-.25-.031-.359 0-.125.015-.25.031-.36H.953c.031.11.031.235.031.36 0 .11 0 .234-.03.36zm0 2.626c-.016-.125-.031-.235-.031-.36s.015-.234.031-.36H.953a1.4 1.4 0 01.031.36c0 .125 0 .234-.03.36zm0 0"/></svg></g><g><svg overflow="visible" x="58.283" y="61.048"><path d="M4.11-7.61a.735.735 0 01-.188-.14c-.063-.063-.11-.11-.14-.188-1.47 1.47-2.345 3.032-2.345 4.563v.781c0 1.516.875 3.078 2.344 4.547a.735.735 0 01.14-.187.735.735 0 01.188-.141C2.781.281 2.156-1.203 2.156-2.594v-.781c0-1.39.625-2.89 1.953-4.234zm0 0"/></svg><svg overflow="visible" x="63.352" y="61.048"><path d="M5.563-4.375c0-2.625-.782-3.86-2.422-3.86-1.844 0-2.797 1.47-2.797 4.36 0 1.406.25 2.61.672 3.188.421.593 1.093.921 1.828.921 1.812 0 2.719-1.546 2.719-4.609zm-1.016.594c0 2.547-.453 3.61-1.547 3.61-1.156 0-1.656-1.22-1.656-4.126 0-2.531.453-3.516 1.578-3.516 1.172 0 1.625 1.172 1.625 4.032zm0 0"/></svg><svg overflow="visible" x="69.329" y="61.048"><path d="M2.61-1.297l-.172-.172c-.329.11-.532.172-1.172.36C1.187-.203.89.578.187 1.719l.172.14.485-.234c.969-1.25 1.422-2 1.765-2.922zm0 0"/></svg></g><g><svg overflow="visible" x="77.303" y="61.048"><path d="M4.594-5.688c-.14-.062-.188-.078-.25-.078-.36 0-.735.297-1.172.907-.406.578-.813 1.156-1.11 1.796l.297-1.5c.063-.265.157-.546.157-.812 0-.25-.094-.39-.282-.39-.25 0-.703.25-1.593.89l-.329.234.079.235.39-.25c.328-.203.469-.266.563-.266.125 0 .203.11.203.266 0 .687-.5 3.156-.984 4.687L.688.11c.25-.078.515-.14.796-.187L1.797-1.5c.219-1 .484-1.625 1.016-2.313.406-.53.718-.78.984-.78.187 0 .297.062.437.234h.172c.032-.454.094-.844.188-1.329zm0 0"/></svg></g><g><svg overflow="visible" x="82.229" y="61.048"><path d="M3.64-2.594v-.781c0-1.531-.874-3.094-2.343-4.563-.047.079-.094.125-.156.188a.427.427 0 01-.188.14c1.328 1.344 1.969 2.844 1.969 4.235v.781c0 1.39-.64 2.875-1.969 4.219.078.031.14.078.188.14.062.063.109.126.156.188C2.766.484 3.64-1.078 3.64-2.594zm0 0"/></svg></g></svg>