<svg xmlns="http://www.w3.org/2000/svg" xmlns:xlink="http://www.w3.org/1999/xlink" width="261px" height="67px" viewBox="0 0 196 50"><svg overflow="visible" x="-.02" y="11.748"><path d="M3.094-8.86l-.219-.187c-.75.375-1.063.438-2.047.531l-.094.5h.735c.281 0 .265-.046.265.141 0 .156-.046.422-.078.578L.516-1.703C.344-1.093.28-.75.28-.484c0 .28.281.593.5.593.313 0 .86-.296 2.094-1.218l-.25-.438-.469.297c-.344.234-.5.313-.61.313-.093 0-.03.03-.03-.11s.03-.297.078-.437L3.14-8.813zm0 0"/></svg><svg overflow="visible" x="6.615" y="11.748"><path d="M8.266-4.078a1.419 1.419 0 01-.047-.36c0-.109.015-.234.062-.484h-7.5c.063.25.063.375.063.484 0 .125 0 .235-.063.5h7.5zm0 2.625a1.332 1.332 0 01-.047-.36c0-.109.015-.234.062-.484h-7.5c.063.25.063.375.063.485 0 .125 0 .25-.063.5h7.5zm0 0"/></svg><svg overflow="visible" x="19.025" y="11.748"><path d="M4.75-5.703c-.297-.188-.797-.328-1.25-.328-.531 0-1.484.468-2.172 1.062C.641-4.375.156-3.03.156-1.75.156-.61.796.125 1.75.125c.656 0 1.328-.266 1.984-.813l.657-.53-.204-.485-.343.219c-.86.578-1.203.75-1.625.75-.672 0-.875-.36-.875-1.297 0-1.266.36-2.406.937-2.875.25-.203.453-.266.844-.266.531 0 .813.094.813.375v.86h.546c.11-.922.188-1.36.329-1.735zm0 0"/></svg><svg overflow="visible" x="24.01" y="11.748"><path d="M5.047-4.094c0-1.125-.734-1.937-1.719-1.937-.515 0-1.187.25-1.719.625-.968.703-1.546 2-1.546 3.453C.063-.687.734.125 1.734.125c.657 0 1.47-.344 2-.844.75-.703 1.313-2.156 1.313-3.375zm-1.188.203C3.86-2.75 3.531-1.578 3-.937c-.219.25-.422.359-.781.359-.703 0-.969-.406-.969-1.36 0-1.343.422-2.718 1.016-3.203.156-.125.328-.171.609-.171.734 0 .984.406.984 1.421zm0 0"/></svg><svg overflow="visible" x="29.318" y="11.748"><path d="M4.125-5.703c-.469-.219-.797-.328-1.203-.328-.61 0-1.453.39-2.031.968a1.63 1.63 0 00-.47 1.157c0 .672.516 1.187 1.298 1.344l.75.14c.531.094.578.156.578.64 0 .798-.406 1.173-1.25 1.173-.438 0-.703-.094-1-.344v-1.078H.234C.172-1.297.094-.875-.046-.25.453 0 .968.125 1.39.125c.578 0 1.234-.25 1.843-.719.61-.484.891-1.015.891-1.625 0-.64-.5-1.11-1.406-1.281l-.5-.094c-.719-.14-.813-.203-.813-.703 0-.625.39-.984 1.078-.984.485 0 .844.172 1 .422v.765h.532c.062-.547.109-.86.25-1.531zm0 0"/></svg><svg overflow="visible" x="33.969" y="11.748"><path d="M4.203-7.828a.735.735 0 01-.187-.14c-.063-.063-.11-.126-.22-.329-1.593 1.61-2.5 3.266-2.5 4.781v.797c0 1.516.907 3.172 2.5 4.781.11-.203.157-.265.22-.328.062-.062.125-.109.312-.203C2.875.063 2.281-1.344 2.281-2.719v-.797c0-1.39.594-2.78 2.047-4.25zm0 0"/></svg><svg overflow="visible" x="40.24" y="4.897"><path d="M6.125-3.063c0-.203-.047-.39-.11-.562-.109-.266-.656-.906-.906-.906-.234 0-.468.062-1.046.328-.141.078-.594.406-.86.64a1.58 1.58 0 00-.25.516L2.375-.53c-.656-.047-.938-.297-.922-.938.063-.984.64-1.937 1.39-2.312a2.19 2.19 0 01.548-.125c.14-.11.125-.11.234-.266-.016-.125-.219-.266-.234-.266-.22 0-.594.172-.907.313-1.171.516-2 1.547-2.062 2.64C.375-.53 1.109.095 2.25.095c.047 0 .11 0-.047.031L1.72 1.922l-.094.375.172.156c.25-.078.453-.125.875-.187l.515-2.282a5.739 5.739 0 001.313-.5c.875-.53 1.578-1.64 1.625-2.546zm-1.063.141c-.046.86-.578 1.688-1.28 2.156-.204.141-.345.204-.47.204l.22-.875c.14-.704.405-2.032.655-2.22.125-.124.282-.171.594-.171.266 0 .313.437.282.906zm0 0"/></svg><path d="M40.238 8.758h6.328" fill="none" stroke-width=".717" stroke="#000" stroke-miterlimit="10"/><svg overflow="visible" x="40.904" y="16.274"><path d="M4.75-.11c-.016-.187-.016-.265-.016-.39s0-.203.032-.547l-3.141.094 1.5-1.469c.938-.906 1.266-1.5 1.266-2.156 0-1.016-.891-1.781-2.125-1.781-.688 0-1.282.218-1.782.687L.297-4.266h.547l.172-.546c.156-.516.359-.594 1-.594.828 0 1.203.343 1.203 1.093 0 .657-.36 1.22-1.453 2.282L.078-.391v.422L2.391 0l2.375.031zm0 0"/></svg><svg overflow="visible" x="47.761" y="11.748"><path d="M3.766-2.719v-.797c0-1.515-.907-3.171-2.516-4.78-.11.202-.156.265-.203.327-.063.063-.125.11-.313.203 1.438 1.47 2.032 2.86 2.032 4.25v.797c0 1.375-.594 2.781-2.032 4.25.188.094.25.14.313.203.047.063.094.125.203.329C2.86.452 3.766-1.204 3.766-2.72zm0 0"/></svg><svg overflow="visible" x="55.819" y="11.748"><path d="M2.703-1.531L2.47-1.75c-.36.125-.563.203-1.328.406C1.047-.328.78.344.016 1.625l.312.25.61-.281C1.905.328 2.405-.516 2.75-1.47zm0 0"/></svg><svg overflow="visible" x="-.02" y="25.339"><path d="M5.984-7.14c-.03-.063-.03-.048-.062-.11-.016-.094-.016-.172-.016-.406-1.812.468-3.031 1.843-3.031 3.953V0h1.219v-3.703c0-1.719.422-2.828 1.984-3.25zm0 0"/></svg><svg overflow="visible" x="-.02" y="29.242"><path d="M4.094-.125v-7.266H2.875V0h1.219zm0 0"/></svg><svg overflow="visible" x="-.02" y="40.295"><path d="M4.094-.125v-3.578c0-1.922-.766-3.235-1.782-3.703v.265c1.016-.468 1.782-1.765 1.782-3.687v-3.703H2.875v3.703c0 2.062-.36 3.187-1.922 3.187.078.204.094.297.094.375 0 .079-.016.172-.094.375 1.563 0 1.922 1.125 1.922 3.188V0h1.219zm0 0"/></svg><svg overflow="visible" x="-.02" y="44.198"><path d="M4.094-.125v-7.266H2.875V0h1.219zm0 0"/></svg><svg overflow="visible" x="-.02" y="48.341"><path d="M5.89-.734c-1.374-.36-1.796-1.47-1.796-3.188v-3.703H2.875v3.703c0 2.094 1.219 3.469 3.031 3.969 0-.266 0-.344.016-.422.031-.078.031-.063.156-.313zm0 0"/></svg><svg overflow="visible" x="12.003" y="27.718"><path d="M7.781-8.219c-.922-.344-1.593-.484-2.328-.484-.984 0-2.078.344-2.906.89C1.14-6.859.39-5.358.39-3.53c0 2.328 1.421 3.75 3.703 3.75C5.25.219 6.187-.094 7.28-.844l.157-.578-.266-.187c-1.234.765-1.75.921-2.672.921-1.89 0-2.781-1.015-2.781-3.14 0-1.328.375-2.406 1.11-3.156.546-.563 1.218-.829 2.171-.829.86 0 1.36.141 2 .547v1.063h.578c.078-.813.172-1.328.36-1.953zm0 0"/></svg><svg overflow="visible" x="19.977" y="30.492"><path d="M4.86-4.406c-.126-.063-.313-.125-.391-.125-.39 0-.89.36-1.485 1.172l-.359.484.266.094-.063-.422c-.11-.875-.515-1.328-1.094-1.328-.25 0-.578.11-.671.218l-.641.875.406.22c.36-.376.453-.454.625-.454.328 0 .375.219.531 1.094l.11.515-.328.485c-.422.594-.641.828-.907.828-.14 0-.093.11-.109.063l-.172-.407-.453.063c0 .297-.016.406-.078.687-.016.11-.016.14-.031.266.187.11.468.172.578.172.312 0 .797-.281 1.094-.703l.734-1.032-.266-.109.11.625c.125.75.5 1.219.843 1.219.22 0 .625-.188.938-.438l.531-.437-.203-.438c-.516.39-.64.485-.781.485-.156 0-.172-.047-.266-.235-.094-.156-.156-.39-.203-.656l-.172-.844.297-.375c.453-.578.61-.75.906-.75.157 0 .11-.062.219.235l.36-.094.187-.922zm0 0"/></svg><svg overflow="visible" x="28.795" y="27.718"><path d="M8.266-4.078a1.419 1.419 0 01-.047-.36c0-.109.015-.234.062-.484h-7.5c.063.25.063.375.063.484 0 .125 0 .235-.063.5h7.5zm0 2.625a1.332 1.332 0 01-.047-.36c0-.109.015-.234.062-.484h-7.5c.063.25.063.375.063.485 0 .125 0 .25-.063.5h7.5zm0 0"/></svg><svg overflow="visible" x="41.193" y="27.718"><path d="M3.094-8.86l-.219-.187c-.75.375-1.063.438-2.047.531l-.094.5h.735c.281 0 .265-.046.265.141 0 .156-.046.422-.078.578L.516-1.703C.344-1.093.28-.75.28-.484c0 .28.281.593.5.593.313 0 .86-.296 2.094-1.218l-.25-.438-.469.297c-.344.234-.5.313-.61.313-.093 0-.03.03-.03-.11s.03-.297.078-.437L3.14-8.813zm0 0"/></svg><svg overflow="visible" x="47.182" y="27.718"><path d="M2.516-3.125c0-.422-.407-.844-.844-.844-.422 0-.86.422-.86.844 0 .438.438.86.86.86.437 0 .844-.422.844-.86zm0 0"/></svg><svg overflow="visible" x="53.184" y="27.718"><path d="M4.75-5.703c-.297-.188-.797-.328-1.25-.328-.531 0-1.484.468-2.172 1.062C.641-4.375.156-3.03.156-1.75.156-.61.796.125 1.75.125c.656 0 1.328-.266 1.984-.813l.657-.53-.204-.485-.343.219c-.86.578-1.203.75-1.625.75-.672 0-.875-.36-.875-1.297 0-1.266.36-2.406.937-2.875.25-.203.453-.266.844-.266.531 0 .813.094.813.375v.86h.546c.11-.922.188-1.36.329-1.735zm0 0"/></svg><svg overflow="visible" x="58.169" y="27.718"><path d="M5.047-4.094c0-1.125-.734-1.937-1.719-1.937-.515 0-1.187.25-1.719.625-.968.703-1.546 2-1.546 3.453C.063-.687.734.125 1.734.125c.657 0 1.47-.344 2-.844.75-.703 1.313-2.156 1.313-3.375zm-1.188.203C3.86-2.75 3.531-1.578 3-.937c-.219.25-.422.359-.781.359-.703 0-.969-.406-.969-1.36 0-1.343.422-2.718 1.016-3.203.156-.125.328-.171.609-.171.734 0 .984.406.984 1.421zm0 0"/></svg><svg overflow="visible" x="63.477" y="27.718"><path d="M4.125-5.703c-.469-.219-.797-.328-1.203-.328-.61 0-1.453.39-2.031.968a1.63 1.63 0 00-.47 1.157c0 .672.516 1.187 1.298 1.344l.75.14c.531.094.578.156.578.64 0 .798-.406 1.173-1.25 1.173-.438 0-.703-.094-1-.344v-1.078H.234C.172-1.297.094-.875-.046-.25.453 0 .968.125 1.39.125c.578 0 1.234-.25 1.843-.719.61-.484.891-1.015.891-1.625 0-.64-.5-1.11-1.406-1.281l-.5-.094c-.719-.14-.813-.203-.813-.703 0-.625.39-.984 1.078-.984.485 0 .844.172 1 .422v.765h.532c.062-.547.109-.86.25-1.531zm0 0"/></svg><svg overflow="visible" x="70.112" y="27.718"><path d="M5.406-11.313a.427.427 0 01-.187-.14c-.063-.063-.11-.125-.219-.328-2.25 2.25-3.578 4.89-3.578 7.64v2.047C1.422.641 2.75 3.281 5 5.531c.11-.203.156-.265.219-.312.047-.063.11-.11.297-.203C3.422 2.89 2.53.484 2.53-2.094V-4.14c0-2.578.89-4.984 2.985-7.109zm0 0"/></svg><svg overflow="visible" x="77.667" y="20.867"><path d="M6.125-3.063c0-.203-.047-.39-.11-.562-.109-.266-.656-.906-.906-.906-.234 0-.468.062-1.046.328-.141.078-.594.406-.86.64a1.58 1.58 0 00-.25.516L2.375-.53c-.656-.047-.938-.297-.922-.938.063-.984.64-1.937 1.39-2.312a2.19 2.19 0 01.548-.125c.14-.11.125-.11.234-.266-.016-.125-.219-.266-.234-.266-.22 0-.594.172-.907.313-1.171.516-2 1.547-2.062 2.64C.375-.53 1.109.095 2.25.095c.047 0 .11 0-.047.031L1.72 1.922l-.094.375.172.156c.25-.078.453-.125.875-.187l.515-2.282a5.739 5.739 0 001.313-.5c.875-.53 1.578-1.64 1.625-2.546zm-1.063.141c-.046.86-.578 1.688-1.28 2.156-.204.141-.345.204-.47.204l.22-.875c.14-.704.405-2.032.655-2.22.125-.124.282-.171.594-.171.266 0 .313.437.282.906zm0 0"/></svg><path d="M77.668 24.73h6.324" fill="none" stroke-width=".717" stroke="#000" stroke-miterlimit="10"/><svg overflow="visible" x="78.331" y="32.245"><path d="M4.75-.11c-.016-.187-.016-.265-.016-.39s0-.203.032-.547l-3.141.094 1.5-1.469c.938-.906 1.266-1.5 1.266-2.156 0-1.016-.891-1.781-2.125-1.781-.688 0-1.282.218-1.782.687L.297-4.266h.547l.172-.546c.156-.516.359-.594 1-.594.828 0 1.203.343 1.203 1.093 0 .657-.36 1.22-1.453 2.282L.078-.391v.422L2.391 0l2.375.031zm0 0"/></svg><svg overflow="visible" x="85.188" y="27.718"><path d="M4.906-2.094V-4.14c0-2.75-1.328-5.39-3.562-7.64-.11.203-.157.265-.219.328-.063.062-.125.11-.313.203 2.11 2.125 2.985 4.531 2.985 7.11v2.046c0 2.578-.875 4.985-2.985 7.11.188.093.25.14.313.203.063.047.11.11.219.312 2.234-2.25 3.562-4.89 3.562-7.625zm0 0"/></svg><svg overflow="visible" x="94.848" y="27.718"><path d="M8.266-4.078a1.419 1.419 0 01-.047-.36c0-.109.015-.234.062-.484h-7.5c.063.25.063.375.063.484 0 .125 0 .235-.063.5h7.5zm0 2.625a1.332 1.332 0 01-.047-.36c0-.109.015-.234.062-.484h-7.5c.063.25.063.375.063.485 0 .125 0 .25-.063.5h7.5zm0 0"/></svg><svg overflow="visible" x="107.257" y="27.718"><path d="M4.75-5.703c-.297-.188-.797-.328-1.25-.328-.531 0-1.484.468-2.172 1.062C.641-4.375.156-3.03.156-1.75.156-.61.796.125 1.75.125c.656 0 1.328-.266 1.984-.813l.657-.53-.204-.485-.343.219c-.86.578-1.203.75-1.625.75-.672 0-.875-.36-.875-1.297 0-1.266.36-2.406.937-2.875.25-.203.453-.266.844-.266.531 0 .813.094.813.375v.86h.546c.11-.922.188-1.36.329-1.735zm0 0"/></svg><svg overflow="visible" x="112.243" y="27.718"><path d="M5.047-4.094c0-1.125-.734-1.937-1.719-1.937-.515 0-1.187.25-1.719.625-.968.703-1.546 2-1.546 3.453C.063-.687.734.125 1.734.125c.657 0 1.47-.344 2-.844.75-.703 1.313-2.156 1.313-3.375zm-1.188.203C3.86-2.75 3.531-1.578 3-.937c-.219.25-.422.359-.781.359-.703 0-.969-.406-.969-1.36 0-1.343.422-2.718 1.016-3.203.156-.125.328-.171.609-.171.734 0 .984.406.984 1.421zm0 0"/></svg><svg overflow="visible" x="117.551" y="27.718"><path d="M4.125-5.703c-.469-.219-.797-.328-1.203-.328-.61 0-1.453.39-2.031.968a1.63 1.63 0 00-.47 1.157c0 .672.516 1.187 1.298 1.344l.75.14c.531.094.578.156.578.64 0 .798-.406 1.173-1.25 1.173-.438 0-.703-.094-1-.344v-1.078H.234C.172-1.297.094-.875-.046-.25.453 0 .968.125 1.39.125c.578 0 1.234-.25 1.843-.719.61-.484.891-1.015.891-1.625 0-.64-.5-1.11-1.406-1.281l-.5-.094c-.719-.14-.813-.203-.813-.703 0-.625.39-.984 1.078-.984.485 0 .844.172 1 .422v.765h.532c.062-.547.109-.86.25-1.531zm0 0"/></svg><svg overflow="visible" x="122.209" y="23.486"><path d="M4.75-.11c-.016-.187-.016-.265-.016-.39s0-.203.032-.547l-3.141.094 1.5-1.469c.938-.906 1.266-1.5 1.266-2.156 0-1.016-.891-1.781-2.125-1.781-.688 0-1.282.218-1.782.687L.297-4.266h.547l.172-.546c.156-.516.359-.594 1-.594.828 0 1.203.343 1.203 1.093 0 .657-.36 1.22-1.453 2.282L.078-.391v.422L2.391 0l2.375.031zm0 0"/></svg><svg overflow="visible" x="129.698" y="27.718"><path d="M5.406-11.313a.427.427 0 01-.187-.14c-.063-.063-.11-.125-.219-.328-2.25 2.25-3.578 4.89-3.578 7.64v2.047C1.422.641 2.75 3.281 5 5.531c.11-.203.156-.265.219-.312.047-.063.11-.11.297-.203C3.422 2.89 2.53.484 2.53-2.094V-4.14c0-2.578.89-4.984 2.985-7.109zm0 0"/></svg><svg overflow="visible" x="137.242" y="20.867"><path d="M6.125-3.063c0-.203-.047-.39-.11-.562-.109-.266-.656-.906-.906-.906-.234 0-.468.062-1.046.328-.141.078-.594.406-.86.64a1.58 1.58 0 00-.25.516L2.375-.53c-.656-.047-.938-.297-.922-.938.063-.984.64-1.937 1.39-2.312a2.19 2.19 0 01.548-.125c.14-.11.125-.11.234-.266-.016-.125-.219-.266-.234-.266-.22 0-.594.172-.907.313-1.171.516-2 1.547-2.062 2.64C.375-.53 1.109.095 2.25.095c.047 0 .11 0-.047.031L1.72 1.922l-.094.375.172.156c.25-.078.453-.125.875-.187l.515-2.282a5.739 5.739 0 001.313-.5c.875-.53 1.578-1.64 1.625-2.546zm-1.063.141c-.046.86-.578 1.688-1.28 2.156-.204.141-.345.204-.47.204l.22-.875c.14-.704.405-2.032.655-2.22.125-.124.282-.171.594-.171.266 0 .313.437.282.906zm0 0"/></svg><path d="M137.242 24.73h6.324" fill="none" stroke-width=".717" stroke="#000" stroke-miterlimit="10"/><svg overflow="visible" x="137.905" y="32.245"><path d="M4.75-.11c-.016-.187-.016-.265-.016-.39s0-.203.032-.547l-3.141.094 1.5-1.469c.938-.906 1.266-1.5 1.266-2.156 0-1.016-.891-1.781-2.125-1.781-.688 0-1.282.218-1.782.687L.297-4.266h.547l.172-.546c.156-.516.359-.594 1-.594.828 0 1.203.343 1.203 1.093 0 .657-.36 1.22-1.453 2.282L.078-.391v.422L2.391 0l2.375.031zm0 0"/></svg><svg overflow="visible" x="144.763" y="27.718"><path d="M4.906-2.094V-4.14c0-2.75-1.328-5.39-3.562-7.64-.11.203-.157.265-.219.328-.063.062-.125.11-.313.203 2.11 2.125 2.985 4.531 2.985 7.11v2.046c0 2.578-.875 4.985-2.985 7.11.188.093.25.14.313.203.063.047.11.11.219.312 2.234-2.25 3.562-4.89 3.562-7.625zm0 0"/></svg><svg overflow="visible" x="156.085" y="27.718"><path d="M2.703-1.531L2.47-1.75c-.36.125-.563.203-1.328.406C1.047-.328.78.344.016 1.625l.312.25.61-.281C1.905.328 2.405-.516 2.75-1.47zm0 0"/></svg><svg overflow="visible" x="12.003" y="44.575"><path d="M7.781-8.219c-.922-.344-1.593-.484-2.328-.484-.984 0-2.078.344-2.906.89C1.14-6.859.39-5.358.39-3.53c0 2.328 1.421 3.75 3.703 3.75C5.25.219 6.187-.094 7.28-.844l.157-.578-.266-.187c-1.234.765-1.75.921-2.672.921-1.89 0-2.781-1.015-2.781-3.14 0-1.328.375-2.406 1.11-3.156.546-.563 1.218-.829 2.171-.829.86 0 1.36.141 2 .547v1.063h.578c.078-.813.172-1.328.36-1.953zm0 0"/></svg><svg overflow="visible" x="19.977" y="47.349"><path d="M4.922-4.406l-.188-.14a3.25 3.25 0 01-.875.202L3.5-3.062c-.125.421-.406.968-.734 1.406-.329.437-.688.797-.907.797-.203 0-.03-.297-.03-.407l.14-1.718c.015-.266.047-.61.047-.86 0-.39-.22-.687-.391-.687-.125 0-.375.093-.828.39l-.89.563.265.375.64-.36c.047-.03.063-.062.141-.062.235 0 .047.313.031.453L.828-1.016l-.015.36c0 .36.343.75.578.75.359 0 1.265-.781 2-1.782l-.266-.093-.484 1.5c-.485 1.578-.813 2.078-1.485 2.078-.328 0-.453-.094-.453-.406 0-.047.016-.11.047-.266l-.297-.11-.578.376c-.031.125-.031.187-.031.234 0 .375.531.813.969.813 1.015 0 2.218-1.22 2.78-2.86l1.391-3.937zm0 0"/></svg><svg overflow="visible" x="28.857" y="44.575"><path d="M8.266-4.078a1.419 1.419 0 01-.047-.36c0-.109.015-.234.062-.484h-7.5c.063.25.063.375.063.484 0 .125 0 .235-.063.5h7.5zm0 2.625a1.332 1.332 0 01-.047-.36c0-.109.015-.234.062-.484h-7.5c.063.25.063.375.063.485 0 .125 0 .25-.063.5h7.5zm0 0"/></svg><svg overflow="visible" x="41.255" y="44.575"><path d="M3.094-8.86l-.219-.187c-.75.375-1.063.438-2.047.531l-.094.5h.735c.281 0 .265-.046.265.141 0 .156-.046.422-.078.578L.516-1.703C.344-1.093.28-.75.28-.484c0 .28.281.593.5.593.313 0 .86-.296 2.094-1.218l-.25-.438-.469.297c-.344.234-.5.313-.61.313-.093 0-.03.03-.03-.11s.03-.297.078-.437L3.14-8.813zm0 0"/></svg><svg overflow="visible" x="47.244" y="44.575"><path d="M2.516-3.125c0-.422-.407-.844-.844-.844-.422 0-.86.422-.86.844 0 .438.438.86.86.86.437 0 .844-.422.844-.86zm0 0"/></svg><svg overflow="visible" x="53.246" y="44.575"><path d="M4.125-5.703c-.469-.219-.797-.328-1.203-.328-.61 0-1.453.39-2.031.968a1.63 1.63 0 00-.47 1.157c0 .672.516 1.187 1.298 1.344l.75.14c.531.094.578.156.578.64 0 .798-.406 1.173-1.25 1.173-.438 0-.703-.094-1-.344v-1.078H.234C.172-1.297.094-.875-.046-.25.453 0 .968.125 1.39.125c.578 0 1.234-.25 1.843-.719.61-.484.891-1.015.891-1.625 0-.64-.5-1.11-1.406-1.281l-.5-.094c-.719-.14-.813-.203-.813-.703 0-.625.39-.984 1.078-.984.485 0 .844.172 1 .422v.765h.532c.062-.547.109-.86.25-1.531zm0 0"/></svg><svg overflow="visible" x="57.896" y="44.575"><path d="M2.969-1.25l-.172-.297-.453.297c-.36.234-.5.313-.625.313-.078 0-.016.03-.016-.11 0-.11 0-.203.078-.469l.922-3.64c.047-.203.063-.313.063-.422 0-.203-.22-.453-.422-.453-.266 0-.797.281-1.703.922l-.407.296.188.485.547-.36c.344-.218.375-.234.484-.234.11 0 .047-.031.047.11 0 .109-.047.359-.094.53L.625-1.405c-.11.375-.156.672-.156.922 0 .28.265.593.5.593.312 0 .844-.296 2.078-1.218zm.344-6.406c0-.282-.313-.61-.563-.61-.36 0-.844.516-.844.922 0 .297.328.625.625.625.375 0 .781-.484.781-.937zm0 0"/></svg><svg overflow="visible" x="61.411" y="44.575"><path d="M6.234-1.25l-.171-.297-.454.297c-.343.219-.5.313-.625.313-.078 0-.03.03-.03-.11 0-.047.015-.187.03-.234l.782-3.297c.093-.344.14-.688.14-.89 0-.266-.265-.563-.5-.563-.5 0-1.437.5-2.14 1.156-.454.422-.797.828-1.407 1.703l.235.094.453-1.938c.047-.203.078-.343.078-.484 0-.25-.234-.531-.406-.531-.266 0-.828.312-1.703.922l-.391.296.172.485.547-.36c.437-.28.39-.265.469-.265.14 0 .078 0 .078.172 0 .61-.5 2.922-.985 4.656l.172.25c.36-.094.625-.172 1.016-.234.234-1.625.468-2.313 1-3.125.656-1.016 1.453-1.72 1.984-1.72.125 0 .063-.015.063.157 0 .219-.032.469-.141.86l-.61 2.53c-.109.438-.156.72-.156.907 0 .297.266.61.5.61.313 0 .829-.282 2.079-1.22zm0 0"/></svg><svg overflow="visible" x="70.043" y="44.575"><path d="M5.406-11.313a.427.427 0 01-.187-.14c-.063-.063-.11-.125-.219-.328-2.25 2.25-3.578 4.89-3.578 7.64v2.047C1.422.641 2.75 3.281 5 5.531c.11-.203.156-.265.219-.312.047-.063.11-.11.297-.203C3.422 2.89 2.53.484 2.53-2.094V-4.14c0-2.578.89-4.984 2.985-7.109zm0 0"/></svg><svg overflow="visible" x="77.598" y="37.724"><path d="M6.125-3.063c0-.203-.047-.39-.11-.562-.109-.266-.656-.906-.906-.906-.234 0-.468.062-1.046.328-.141.078-.594.406-.86.64a1.58 1.58 0 00-.25.516L2.375-.53c-.656-.047-.938-.297-.922-.938.063-.984.64-1.937 1.39-2.312a2.19 2.19 0 01.548-.125c.14-.11.125-.11.234-.266-.016-.125-.219-.266-.234-.266-.22 0-.594.172-.907.313-1.171.516-2 1.547-2.062 2.64C.375-.53 1.109.095 2.25.095c.047 0 .11 0-.047.031L1.72 1.922l-.094.375.172.156c.25-.078.453-.125.875-.187l.515-2.282a5.739 5.739 0 001.313-.5c.875-.53 1.578-1.64 1.625-2.546zm-1.063.141c-.046.86-.578 1.688-1.28 2.156-.204.141-.345.204-.47.204l.22-.875c.14-.704.405-2.032.655-2.22.125-.124.282-.171.594-.171.266 0 .313.437.282.906zm0 0"/></svg><path d="M77.598 41.586h6.324" fill="none" stroke-width=".717" stroke="#000" stroke-miterlimit="10"/><svg overflow="visible" x="78.261" y="49.102"><path d="M4.75-.11c-.016-.187-.016-.265-.016-.39s0-.203.032-.547l-3.141.094 1.5-1.469c.938-.906 1.266-1.5 1.266-2.156 0-1.016-.891-1.781-2.125-1.781-.688 0-1.282.218-1.782.687L.297-4.266h.547l.172-.546c.156-.516.359-.594 1-.594.828 0 1.203.343 1.203 1.093 0 .657-.36 1.22-1.453 2.282L.078-.391v.422L2.391 0l2.375.031zm0 0"/></svg><svg overflow="visible" x="85.119" y="44.575"><path d="M4.906-2.094V-4.14c0-2.75-1.328-5.39-3.562-7.64-.11.203-.157.265-.219.328-.063.062-.125.11-.313.203 2.11 2.125 2.985 4.531 2.985 7.11v2.046c0 2.578-.875 4.985-2.985 7.11.188.093.25.14.313.203.063.047.11.11.219.312 2.234-2.25 3.562-4.89 3.562-7.625zm0 0"/></svg><svg overflow="visible" x="94.779" y="44.575"><path d="M8.266-4.078a1.419 1.419 0 01-.047-.36c0-.109.015-.234.062-.484h-7.5c.063.25.063.375.063.484 0 .125 0 .235-.063.5h7.5zm0 2.625a1.332 1.332 0 01-.047-.36c0-.109.015-.234.062-.484h-7.5c.063.25.063.375.063.485 0 .125 0 .25-.063.5h7.5zm0 0"/></svg><svg overflow="visible" x="107.188" y="44.575"><path d="M4.75-5.703c-.297-.188-.797-.328-1.25-.328-.531 0-1.484.468-2.172 1.062C.641-4.375.156-3.03.156-1.75.156-.61.796.125 1.75.125c.656 0 1.328-.266 1.984-.813l.657-.53-.204-.485-.343.219c-.86.578-1.203.75-1.625.75-.672 0-.875-.36-.875-1.297 0-1.266.36-2.406.937-2.875.25-.203.453-.266.844-.266.531 0 .813.094.813.375v.86h.546c.11-.922.188-1.36.329-1.735zm0 0"/></svg><svg overflow="visible" x="112.174" y="44.575"><path d="M5.047-4.094c0-1.125-.734-1.937-1.719-1.937-.515 0-1.187.25-1.719.625-.968.703-1.546 2-1.546 3.453C.063-.687.734.125 1.734.125c.657 0 1.47-.344 2-.844.75-.703 1.313-2.156 1.313-3.375zm-1.188.203C3.86-2.75 3.531-1.578 3-.937c-.219.25-.422.359-.781.359-.703 0-.969-.406-.969-1.36 0-1.343.422-2.718 1.016-3.203.156-.125.328-.171.609-.171.734 0 .984.406.984 1.421zm0 0"/></svg><svg overflow="visible" x="117.482" y="44.575"><path d="M4.125-5.703c-.469-.219-.797-.328-1.203-.328-.61 0-1.453.39-2.031.968a1.63 1.63 0 00-.47 1.157c0 .672.516 1.187 1.298 1.344l.75.14c.531.094.578.156.578.64 0 .798-.406 1.173-1.25 1.173-.438 0-.703-.094-1-.344v-1.078H.234C.172-1.297.094-.875-.046-.25.453 0 .968.125 1.39.125c.578 0 1.234-.25 1.843-.719.61-.484.891-1.015.891-1.625 0-.64-.5-1.11-1.406-1.281l-.5-.094c-.719-.14-.813-.203-.813-.703 0-.625.39-.984 1.078-.984.485 0 .844.172 1 .422v.765h.532c.062-.547.109-.86.25-1.531zm0 0"/></svg><svg overflow="visible" x="122.132" y="44.575"><path d="M4.203-7.828a.735.735 0 01-.187-.14c-.063-.063-.11-.126-.22-.329-1.593 1.61-2.5 3.266-2.5 4.781v.797c0 1.516.907 3.172 2.5 4.781.11-.203.157-.265.22-.328.062-.062.125-.109.312-.203C2.875.063 2.281-1.344 2.281-2.719v-.797c0-1.39.594-2.78 2.047-4.25zm0 0"/></svg><svg overflow="visible" x="128.404" y="37.724"><path d="M6.125-3.063c0-.203-.047-.39-.11-.562-.109-.266-.656-.906-.906-.906-.234 0-.468.062-1.046.328-.141.078-.594.406-.86.64a1.58 1.58 0 00-.25.516L2.375-.53c-.656-.047-.938-.297-.922-.938.063-.984.64-1.937 1.39-2.312a2.19 2.19 0 01.548-.125c.14-.11.125-.11.234-.266-.016-.125-.219-.266-.234-.266-.22 0-.594.172-.907.313-1.171.516-2 1.547-2.062 2.64C.375-.53 1.109.095 2.25.095c.047 0 .11 0-.047.031L1.72 1.922l-.094.375.172.156c.25-.078.453-.125.875-.187l.515-2.282a5.739 5.739 0 001.313-.5c.875-.53 1.578-1.64 1.625-2.546zm-1.063.141c-.046.86-.578 1.688-1.28 2.156-.204.141-.345.204-.47.204l.22-.875c.14-.704.405-2.032.655-2.22.125-.124.282-.171.594-.171.266 0 .313.437.282.906zm0 0"/></svg><path d="M128.402 41.586h6.328" fill="none" stroke-width=".717" stroke="#000" stroke-miterlimit="10"/><svg overflow="visible" x="129.067" y="49.102"><path d="M4.75-.11c-.016-.187-.016-.265-.016-.39s0-.203.032-.547l-3.141.094 1.5-1.469c.938-.906 1.266-1.5 1.266-2.156 0-1.016-.891-1.781-2.125-1.781-.688 0-1.282.218-1.782.687L.297-4.266h.547l.172-.546c.156-.516.359-.594 1-.594.828 0 1.203.343 1.203 1.093 0 .657-.36 1.22-1.453 2.282L.078-.391v.422L2.391 0l2.375.031zm0 0"/></svg><svg overflow="visible" x="135.925" y="44.575"><path d="M3.766-2.719v-.797c0-1.515-.907-3.171-2.516-4.78-.11.202-.156.265-.203.327-.063.063-.125.11-.313.203 1.438 1.47 2.032 2.86 2.032 4.25v.797c0 1.375-.594 2.781-2.032 4.25.188.094.25.14.313.203.047.063.094.125.203.329C2.86.452 3.766-1.204 3.766-2.72zm0 0"/></svg><svg overflow="visible" x="143.648" y="44.575"><path d="M2.516-3.125c0-.422-.407-.844-.844-.844-.422 0-.86.422-.86.844 0 .438.438.86.86.86.437 0 .844-.422.844-.86zm0 0"/></svg><svg overflow="visible" x="149.65" y="44.575"><path d="M4.125-5.703c-.469-.219-.797-.328-1.203-.328-.61 0-1.453.39-2.031.968a1.63 1.63 0 00-.47 1.157c0 .672.516 1.187 1.298 1.344l.75.14c.531.094.578.156.578.64 0 .798-.406 1.173-1.25 1.173-.438 0-.703-.094-1-.344v-1.078H.234C.172-1.297.094-.875-.046-.25.453 0 .968.125 1.39.125c.578 0 1.234-.25 1.843-.719.61-.484.891-1.015.891-1.625 0-.64-.5-1.11-1.406-1.281l-.5-.094c-.719-.14-.813-.203-.813-.703 0-.625.39-.984 1.078-.984.485 0 .844.172 1 .422v.765h.532c.062-.547.109-.86.25-1.531zm0 0"/></svg><svg overflow="visible" x="154.3" y="44.575"><path d="M2.969-1.25l-.172-.297-.453.297c-.36.234-.5.313-.625.313-.078 0-.016.03-.016-.11 0-.11 0-.203.078-.469l.922-3.64c.047-.203.063-.313.063-.422 0-.203-.22-.453-.422-.453-.266 0-.797.281-1.703.922l-.407.296.188.485.547-.36c.344-.218.375-.234.484-.234.11 0 .047-.031.047.11 0 .109-.047.359-.094.53L.625-1.405c-.11.375-.156.672-.156.922 0 .28.265.593.5.593.312 0 .844-.296 2.078-1.218zm.344-6.406c0-.282-.313-.61-.563-.61-.36 0-.844.516-.844.922 0 .297.328.625.625.625.375 0 .781-.484.781-.937zm0 0"/></svg><g><svg overflow="visible" x="157.815" y="44.575"><path d="M6.234-1.25l-.171-.297-.454.297c-.343.219-.5.313-.625.313-.078 0-.03.03-.03-.11 0-.047.015-.187.03-.234l.782-3.297c.093-.344.14-.688.14-.89 0-.266-.265-.563-.5-.563-.5 0-1.437.5-2.14 1.156-.454.422-.797.828-1.407 1.703l.235.094.453-1.938c.047-.203.078-.343.078-.484 0-.25-.234-.531-.406-.531-.266 0-.828.312-1.703.922l-.391.296.172.485.547-.36c.437-.28.39-.265.469-.265.14 0 .078 0 .078.172 0 .61-.5 2.922-.985 4.656l.172.25c.36-.094.625-.172 1.016-.234.234-1.625.468-2.313 1-3.125.656-1.016 1.453-1.72 1.984-1.72.125 0 .063-.015.063.157 0 .219-.032.469-.141.86l-.61 2.53c-.109.438-.156.72-.156.907 0 .297.266.61.5.61.313 0 .829-.282 2.079-1.22zm0 0"/></svg></g><g><svg overflow="visible" x="166.459" y="44.575"><path d="M5.406-11.313a.427.427 0 01-.187-.14c-.063-.063-.11-.125-.219-.328-2.25 2.25-3.578 4.89-3.578 7.64v2.047C1.422.641 2.75 3.281 5 5.531c.11-.203.156-.265.219-.312.047-.063.11-.11.297-.203C3.422 2.89 2.53.484 2.53-2.094V-4.14c0-2.578.89-4.984 2.985-7.109zm0 0"/></svg></g><g><svg overflow="visible" x="174.004" y="37.724"><path d="M6.125-3.063c0-.203-.047-.39-.11-.562-.109-.266-.656-.906-.906-.906-.234 0-.468.062-1.046.328-.141.078-.594.406-.86.64a1.58 1.58 0 00-.25.516L2.375-.53c-.656-.047-.938-.297-.922-.938.063-.984.64-1.937 1.39-2.312a2.19 2.19 0 01.548-.125c.14-.11.125-.11.234-.266-.016-.125-.219-.266-.234-.266-.22 0-.594.172-.907.313-1.171.516-2 1.547-2.062 2.64C.375-.53 1.109.095 2.25.095c.047 0 .11 0-.047.031L1.72 1.922l-.094.375.172.156c.25-.078.453-.125.875-.187l.515-2.282a5.739 5.739 0 001.313-.5c.875-.53 1.578-1.64 1.625-2.546zm-1.063.141c-.046.86-.578 1.688-1.28 2.156-.204.141-.345.204-.47.204l.22-.875c.14-.704.405-2.032.655-2.22.125-.124.282-.171.594-.171.266 0 .313.437.282.906zm0 0"/></svg></g><path d="M174.004 41.586h6.324" fill="none" stroke-width=".717" stroke="#000" stroke-miterlimit="10"/><g><svg overflow="visible" x="174.667" y="49.102"><path d="M4.75-.11c-.016-.187-.016-.265-.016-.39s0-.203.032-.547l-3.141.094 1.5-1.469c.938-.906 1.266-1.5 1.266-2.156 0-1.016-.891-1.781-2.125-1.781-.688 0-1.282.218-1.782.687L.297-4.266h.547l.172-.546c.156-.516.359-.594 1-.594.828 0 1.203.343 1.203 1.093 0 .657-.36 1.22-1.453 2.282L.078-.391v.422L2.391 0l2.375.031zm0 0"/></svg></g><g><svg overflow="visible" x="181.525" y="44.575"><path d="M4.906-2.094V-4.14c0-2.75-1.328-5.39-3.562-7.64-.11.203-.157.265-.219.328-.063.062-.125.11-.313.203 2.11 2.125 2.985 4.531 2.985 7.11v2.046c0 2.578-.875 4.985-2.985 7.11.188.093.25.14.313.203.063.047.11.11.219.312 2.234-2.25 3.562-4.89 3.562-7.625zm0 0"/></svg></g><g><svg overflow="visible" x="192.847" y="44.575"><path d="M2.703-1.531L2.47-1.75c-.36.125-.563.203-1.328.406C1.047-.328.78.344.016 1.625l.312.25.61-.281C1.905.328 2.405-.516 2.75-1.47zm0 0"/></svg></g></svg>