<svg xmlns="http://www.w3.org/2000/svg" xmlns:xlink="http://www.w3.org/1999/xlink" width="359px" height="85px" viewBox="0 0 269 64"><svg overflow="visible" x="20.541" y="8.745"><path d="M.11-.188c.453.22.859.313 1.28.313.579 0 1.126-.203 1.735-.688.61-.484.875-.921.875-1.515 0-.64-.375-1-1.281-1.156l-.5-.094c-.719-.14-.953-.344-.953-.828 0-.64.53-1.125 1.218-1.125.485 0 .954.218 1.141.531v.656h.266c.046-.406.109-.734.234-1.343-.469-.235-.797-.329-1.203-.329-.61 0-1.344.344-1.922.938-.313.328-.438.625-.438 1.047 0 .672.375 1.062 1.157 1.219l.75.14c.531.094.719.297.719.766 0 .797-.547 1.312-1.391 1.312-.438 0-.797-.14-1.125-.422v-1H.375C.312-1.156.235-.734.109-.187zm0 0"/></svg><svg overflow="visible" x="24.964" y="8.745"><path d="M.484-4.656H1.5L.828-1.281c-.062.297-.156.593-.156.906 0 .297.125.484.36.484.421 0 .827-.234 1.765-1 .219-.156.14-.109.375-.296l-.125-.22-.531.376c-.36.25-.594.36-.735.36-.093 0-.156-.095-.156-.235 0-.313.14-1.25.516-3.016l.156-.734h1.281l.125-.61c-.453.047-.86.079-1.312.079.187-1.125.328-1.704.53-2.36l-.124-.172c-.235.14-.563.282-.938.422l-.296 2.031c-.516.25-.829.391-1.047.454zm0 0"/></svg><svg overflow="visible" x="28.766" y="8.745"><path d="M.047-.781c0 .5.187.906.406.906.25 0 .688-.25 1.14-.625.516-.438.985-1 1.641-1.938L2.891-.921a2.882 2.882 0 00-.063.61c0 .28.094.437.281.437.266 0 .766-.328 1.75-1.14l-.093-.25c-.079.077-.094.077-.157.124-.375.329-.562.438-.734.438-.125 0-.188-.094-.188-.281 0-.063 0-.094.016-.125l1.11-4.532-.125-.109-.391.219c-.469-.188-.703-.235-1.016-.235-.344 0-.578.063-.906.22-.75.374-1.125.734-1.438 1.312C.422-3.172.047-1.75.047-.781zm.86-.406c0-.766.312-2.094.734-3.079.28-.687.578-.906 1.156-.906.281 0 .5.047 1.015.219-.265 1.281-.484 1.906-.89 2.516-.656 1-1.406 1.734-1.797 1.734-.14 0-.219-.156-.219-.485zm0 0"/></svg><svg overflow="visible" x="34.074" y="8.745"><path d="M.313-4.64l.078.234.39-.25c.328-.203.469-.266.563-.266.125 0 .203.11.203.266 0 .687-.5 3.156-.984 4.687L.688.11c.25-.078.515-.14.796-.187L1.797-1.5c.219-1 .484-1.625 1.016-2.313.406-.53.718-.78.984-.78.187 0 .297.062.437.234h.172c.032-.454.094-.844.188-1.329-.14-.062-.188-.078-.25-.078-.36 0-.735.297-1.172.907-.406.578-.813 1.156-1.11 1.796l.297-1.5c.063-.265.157-.546.157-.812 0-.25-.094-.39-.282-.39-.25 0-.703.25-1.593.89zm0 0"/></svg><svg overflow="visible" x="38.725" y="8.745"><path d="M.484-4.656H1.5L.828-1.281c-.062.297-.156.593-.156.906 0 .297.125.484.36.484.421 0 .827-.234 1.765-1 .219-.156.14-.109.375-.296l-.125-.22-.531.376c-.36.25-.594.36-.735.36-.093 0-.156-.095-.156-.235 0-.313.14-1.25.516-3.016l.156-.734h1.281l.125-.61c-.453.047-.86.079-1.312.079.187-1.125.328-1.704.53-2.36l-.124-.172c-.235.14-.563.282-.938.422l-.296 2.031c-.516.25-.829.391-1.047.454zm0 0"/></svg><svg overflow="visible" x="46.016" y="8.745"><path d="M8.125-3.938c-.016-.124-.031-.25-.031-.359 0-.125.015-.25.031-.36H.953c.031.11.031.235.031.36 0 .11 0 .234-.03.36zm0 2.626c-.016-.125-.031-.235-.031-.36s.015-.234.031-.36H.953a1.4 1.4 0 01.031.36c0 .125 0 .234-.03.36zm0 0"/></svg><svg overflow="visible" x="58.414" y="8.745"><path d="M4.11-7.61a.735.735 0 01-.188-.14c-.063-.063-.11-.11-.14-.188-1.47 1.47-2.345 3.032-2.345 4.563v.781c0 1.516.875 3.078 2.344 4.547a.735.735 0 01.14-.187.735.735 0 01.188-.141C2.781.281 2.156-1.203 2.156-2.594v-.781c0-1.39.625-2.89 1.953-4.234zm0 0"/></svg><svg overflow="visible" x="63.483" y="8.745"><path d="M4.594-5.688c-.14-.062-.188-.078-.25-.078-.36 0-.735.297-1.172.907-.406.578-.813 1.156-1.11 1.796l.297-1.5c.063-.265.157-.546.157-.812 0-.25-.094-.39-.282-.39-.25 0-.703.25-1.593.89l-.329.234.079.235.39-.25c.328-.203.469-.266.563-.266.125 0 .203.11.203.266 0 .687-.5 3.156-.984 4.687L.688.11c.25-.078.515-.14.796-.187L1.797-1.5c.219-1 .484-1.625 1.016-2.313.406-.53.718-.78.984-.78.187 0 .297.062.437.234h.172c.032-.454.094-.844.188-1.329zm0 0"/></svg><svg overflow="visible" x="68.408" y="8.745"><path d="M2.61-1.297l-.172-.172c-.329.11-.532.172-1.172.36C1.187-.203.89.578.187 1.719l.172.14.485-.234c.969-1.25 1.422-2 1.765-2.922zm0 0"/></svg><svg overflow="visible" x="76.382" y="8.745"><path d="M5.563-4.375c0-2.625-.782-3.86-2.422-3.86-1.844 0-2.797 1.47-2.797 4.36 0 1.406.25 2.61.672 3.188.421.593 1.093.921 1.828.921 1.812 0 2.719-1.546 2.719-4.609zm-1.016.594c0 2.547-.453 3.61-1.547 3.61-1.156 0-1.656-1.22-1.656-4.126 0-2.531.453-3.516 1.578-3.516 1.172 0 1.625 1.172 1.625 4.032zm0 0"/></svg><svg overflow="visible" x="82.36" y="8.745"><path d="M3.64-2.594v-.781c0-1.531-.874-3.094-2.343-4.563-.047.079-.094.125-.156.188a.427.427 0 01-.188.14c1.328 1.344 1.969 2.844 1.969 4.235v.781c0 1.39-.64 2.875-1.969 4.219.078.031.14.078.188.14.062.063.109.126.156.188C2.766.484 3.64-1.078 3.64-2.594zm0 0"/></svg><svg overflow="visible" x=".364" y="26.179"><path d="M.297-1.625c0 1.14.5 1.75 1.453 1.75.656 0 1.219-.234 1.89-.766l.594-.5-.093-.234-.188.125c-.86.563-1.312.766-1.734.766-.672 0-1.016-.47-1.016-1.422 0-1.266.406-2.5.984-2.953.25-.22.547-.313.938-.313.531 0 .969.219.969.516v.718h.265c.094-.78.188-1.218.297-1.53-.312-.204-.703-.298-1.156-.298-.531 0-1.39.422-2.063 1.016C.75-4.14.298-2.906.298-1.625zm0 0"/></svg><svg overflow="visible" x="5.23" y="26.179"><path d="M.203-1.813C.203-.546.734.125 1.734.125c.657 0 1.375-.297 1.907-.813.75-.703 1.265-2.062 1.265-3.265 0-1.125-.593-1.813-1.578-1.813-.515 0-1.078.204-1.625.594-.969.688-1.5 1.89-1.5 3.36zm.906 0c0-1.343.47-2.812 1.047-3.296.156-.125.438-.204.719-.204.734 0 1.125.547 1.125 1.547 0 1.141-.36 2.422-.89 3.047-.22.25-.532.39-.891.39-.703 0-1.11-.53-1.11-1.484zm0 0"/></svg><svg overflow="visible" x="10.538" y="26.179"><path d="M.281-4.64l.094.234.375-.25c.438-.282.484-.297.563-.297.14 0 .218.125.218.297 0 .61-.484 2.922-.984 4.625l.094.14c.296-.078.562-.156.828-.203.234-1.515.484-2.281 1.031-3.11.656-1 1.547-1.75 2.078-1.75.125 0 .203.11.203.298 0 .203-.031.453-.125.843L4.031-1.28c-.11.437-.156.718-.156.906 0 .297.125.484.36.484.312 0 .734-.25 1.906-1.125l-.11-.218-.312.203c-.36.234-.61.36-.735.36-.078 0-.156-.11-.156-.235 0-.063.016-.188.031-.235l.782-3.312a4.47 4.47 0 00.125-.875c0-.281-.125-.438-.36-.438-.5 0-1.328.454-2.031 1.11-.453.422-.797.828-1.422 1.703l.469-1.922c.047-.219.062-.36.062-.484 0-.266-.093-.407-.265-.407-.266 0-.719.266-1.594.891zm0 0"/></svg><svg overflow="visible" x="17.185" y="26.179"><path d="M.484-4.656H1.5L.828-1.281c-.062.297-.156.593-.156.906 0 .297.125.484.36.484.421 0 .827-.234 1.765-1 .219-.156.14-.109.375-.296l-.125-.22-.531.376c-.36.25-.594.36-.735.36-.093 0-.156-.095-.156-.235 0-.313.14-1.25.516-3.016l.156-.734h1.281l.125-.61c-.453.047-.86.079-1.312.079.187-1.125.328-1.704.53-2.36l-.124-.172c-.235.14-.563.282-.938.422l-.296 2.031c-.516.25-.829.391-1.047.454zm0 0"/></svg><svg overflow="visible" x="21.166" y="26.179"><path d="M.313-4.64l.078.234.39-.25c.328-.203.469-.266.563-.266.125 0 .203.11.203.266 0 .687-.5 3.156-.984 4.687L.688.11c.25-.078.515-.14.796-.187L1.797-1.5c.219-1 .484-1.625 1.016-2.313.406-.53.718-.78.984-.78.187 0 .297.062.437.234h.172c.032-.454.094-.844.188-1.329-.14-.062-.188-.078-.25-.078-.36 0-.735.297-1.172.907-.406.578-.813 1.156-1.11 1.796l.297-1.5c.063-.265.157-.546.157-.812 0-.25-.094-.39-.282-.39-.25 0-.703.25-1.593.89zm0 0"/></svg><svg overflow="visible" x="25.578" y="26.179"><path d="M.203-1.813C.203-.546.734.125 1.734.125c.657 0 1.375-.297 1.907-.813.75-.703 1.265-2.062 1.265-3.265 0-1.125-.593-1.813-1.578-1.813-.515 0-1.078.204-1.625.594-.969.688-1.5 1.89-1.5 3.36zm.906 0c0-1.343.47-2.812 1.047-3.296.156-.125.438-.204.719-.204.734 0 1.125.547 1.125 1.547 0 1.141-.36 2.422-.89 3.047-.22.25-.532.39-.891.39-.703 0-1.11-.53-1.11-1.484zm0 0"/></svg><svg overflow="visible" x="30.886" y="26.179"><path d="M.438-.36c0 .282.124.47.343.47.313 0 .766-.266 1.922-1.126l-.125-.218-.312.203c-.36.25-.61.36-.72.36-.093 0-.155-.11-.155-.235 0-.156.03-.297.062-.438L3-8.625l-.14-.14c-.626.312-1.047.421-1.922.5l-.047.25h.578c.281 0 .406.093.406.265 0 .156-.047.438-.063.578L.657-1.578C.484-.953.437-.625.437-.36zm0 0"/></svg><svg overflow="visible" x="37.198" y="28.953"><path d="M4.125.031v-.265l-.516-.032c-.515-.03-.625-.125-.625-.578v-5.25L2.86-6.14c-.625.297-1.312.563-2.203.86l.078.375h.094l1.25-.516.031-.016c.047 0 .079.094.079.297v4.297c0 .453-.11.547-.626.578l-.546.032V.03L2.594 0zm0 0"/></svg><svg overflow="visible" x="46.016" y="26.179"><path d="M8.125-3.938c-.016-.124-.031-.25-.031-.359 0-.125.015-.25.031-.36H.953c.031.11.031.235.031.36 0 .11 0 .234-.03.36zm0 2.626c-.016-.125-.031-.235-.031-.36s.015-.234.031-.36H.953a1.4 1.4 0 01.031.36c0 .125 0 .234-.03.36zm0 0"/></svg><svg overflow="visible" x="58.414" y="26.179"><path d="M4.11-7.61a.735.735 0 01-.188-.14c-.063-.063-.11-.11-.14-.188-1.47 1.47-2.345 3.032-2.345 4.563v.781c0 1.516.875 3.078 2.344 4.547a.735.735 0 01.14-.187.735.735 0 01.188-.141C2.781.281 2.156-1.203 2.156-2.594v-.781c0-1.39.625-2.89 1.953-4.234zm0 0"/></svg><svg overflow="visible" x="63.483" y="26.179"><path d="M4.594-5.688c-.14-.062-.188-.078-.25-.078-.36 0-.735.297-1.172.907-.406.578-.813 1.156-1.11 1.796l.297-1.5c.063-.265.157-.546.157-.812 0-.25-.094-.39-.282-.39-.25 0-.703.25-1.593.89l-.329.234.079.235.39-.25c.328-.203.469-.266.563-.266.125 0 .203.11.203.266 0 .687-.5 3.156-.984 4.687L.688.11c.25-.078.515-.14.796-.187L1.797-1.5c.219-1 .484-1.625 1.016-2.313.406-.53.718-.78.984-.78.187 0 .297.062.437.234h.172c.032-.454.094-.844.188-1.329zm0 0"/></svg><svg overflow="visible" x="68.408" y="26.179"><path d="M2.61-1.297l-.172-.172c-.329.11-.532.172-1.172.36C1.187-.203.89.578.187 1.719l.172.14.485-.234c.969-1.25 1.422-2 1.765-2.922zm0 0"/></svg><svg overflow="visible" x="76.382" y="26.179"><path d="M5.36-5.656a2.204 2.204 0 00-.563-.11c-.797 0-1.781.922-3.281 3.016l1.28-5.875-.14-.14c-.625.312-1.047.421-1.922.5l-.046.25h.578c.28 0 .406.093.406.296 0 .094-.016.203-.016.282l-.578 3.203C.922-3.328.718-2.516.094-.016l.11.125L1-.094l.281-1.484c.11-.578.39-1.11.797-1.516C2.906-.704 3.281.11 3.578.11c.156 0 .453-.156.969-.53l.562-.376-.093-.234-.516.297c-.172.093-.25.109-.36.109-.109 0-.202-.063-.296-.266-.422-.765-.688-1.421-1.156-2.89l.171-.156c.72-.735 1.282-1.032 1.875-1.032.094 0 .22.016.422.063zm0 0"/></svg><svg overflow="visible" x="82.085" y="26.179"><path d="M3.64-2.594v-.781c0-1.531-.874-3.094-2.343-4.563-.047.079-.094.125-.156.188a.427.427 0 01-.188.14c1.328 1.344 1.969 2.844 1.969 4.235v.781c0 1.39-.64 2.875-1.969 4.219.078.031.14.078.188.14.062.063.109.126.156.188C2.766.484 3.64-1.078 3.64-2.594zm0 0"/></svg><svg overflow="visible" x=".364" y="43.614"><path d="M.297-1.625c0 1.14.5 1.75 1.453 1.75.656 0 1.219-.234 1.89-.766l.594-.5-.093-.234-.188.125c-.86.563-1.312.766-1.734.766-.672 0-1.016-.47-1.016-1.422 0-1.266.406-2.5.984-2.953.25-.22.547-.313.938-.313.531 0 .969.219.969.516v.718h.265c.094-.78.188-1.218.297-1.53-.312-.204-.703-.298-1.156-.298-.531 0-1.39.422-2.063 1.016C.75-4.14.298-2.906.298-1.625zm0 0"/></svg><svg overflow="visible" x="5.23" y="43.614"><path d="M.203-1.813C.203-.546.734.125 1.734.125c.657 0 1.375-.297 1.907-.813.75-.703 1.265-2.062 1.265-3.265 0-1.125-.593-1.813-1.578-1.813-.515 0-1.078.204-1.625.594-.969.688-1.5 1.89-1.5 3.36zm.906 0c0-1.343.47-2.812 1.047-3.296.156-.125.438-.204.719-.204.734 0 1.125.547 1.125 1.547 0 1.141-.36 2.422-.89 3.047-.22.25-.532.39-.891.39-.703 0-1.11-.53-1.11-1.484zm0 0"/></svg><svg overflow="visible" x="10.538" y="43.614"><path d="M.281-4.64l.094.234.375-.25c.438-.282.484-.297.563-.297.14 0 .218.125.218.297 0 .61-.484 2.922-.984 4.625l.094.14c.296-.078.562-.156.828-.203.234-1.515.484-2.281 1.031-3.11.656-1 1.547-1.75 2.078-1.75.125 0 .203.11.203.298 0 .203-.031.453-.125.843L4.031-1.28c-.11.437-.156.718-.156.906 0 .297.125.484.36.484.312 0 .734-.25 1.906-1.125l-.11-.218-.312.203c-.36.234-.61.36-.735.36-.078 0-.156-.11-.156-.235 0-.063.016-.188.031-.235l.782-3.312a4.47 4.47 0 00.125-.875c0-.281-.125-.438-.36-.438-.5 0-1.328.454-2.031 1.11-.453.422-.797.828-1.422 1.703l.469-1.922c.047-.219.062-.36.062-.484 0-.266-.093-.407-.265-.407-.266 0-.719.266-1.594.891zm0 0"/></svg><svg overflow="visible" x="17.185" y="43.614"><path d="M.484-4.656H1.5L.828-1.281c-.062.297-.156.593-.156.906 0 .297.125.484.36.484.421 0 .827-.234 1.765-1 .219-.156.14-.109.375-.296l-.125-.22-.531.376c-.36.25-.594.36-.735.36-.093 0-.156-.095-.156-.235 0-.313.14-1.25.516-3.016l.156-.734h1.281l.125-.61c-.453.047-.86.079-1.312.079.187-1.125.328-1.704.53-2.36l-.124-.172c-.235.14-.563.282-.938.422l-.296 2.031c-.516.25-.829.391-1.047.454zm0 0"/></svg><svg overflow="visible" x="21.166" y="43.614"><path d="M.313-4.64l.078.234.39-.25c.328-.203.469-.266.563-.266.125 0 .203.11.203.266 0 .687-.5 3.156-.984 4.687L.688.11c.25-.078.515-.14.796-.187L1.797-1.5c.219-1 .484-1.625 1.016-2.313.406-.53.718-.78.984-.78.187 0 .297.062.437.234h.172c.032-.454.094-.844.188-1.329-.14-.062-.188-.078-.25-.078-.36 0-.735.297-1.172.907-.406.578-.813 1.156-1.11 1.796l.297-1.5c.063-.265.157-.546.157-.812 0-.25-.094-.39-.282-.39-.25 0-.703.25-1.593.89zm0 0"/></svg><svg overflow="visible" x="25.578" y="43.614"><path d="M.203-1.813C.203-.546.734.125 1.734.125c.657 0 1.375-.297 1.907-.813.75-.703 1.265-2.062 1.265-3.265 0-1.125-.593-1.813-1.578-1.813-.515 0-1.078.204-1.625.594-.969.688-1.5 1.89-1.5 3.36zm.906 0c0-1.343.47-2.812 1.047-3.296.156-.125.438-.204.719-.204.734 0 1.125.547 1.125 1.547 0 1.141-.36 2.422-.89 3.047-.22.25-.532.39-.891.39-.703 0-1.11-.53-1.11-1.484zm0 0"/></svg><svg overflow="visible" x="30.886" y="43.614"><path d="M.438-.36c0 .282.124.47.343.47.313 0 .766-.266 1.922-1.126l-.125-.218-.312.203c-.36.25-.61.36-.72.36-.093 0-.155-.11-.155-.235 0-.156.03-.297.062-.438L3-8.625l-.14-.14c-.626.312-1.047.421-1.922.5l-.047.25h.578c.281 0 .406.093.406.265 0 .156-.047.438-.063.578L.657-1.578C.484-.953.437-.625.437-.36zm0 0"/></svg><svg overflow="visible" x="37.198" y="46.388"><path d="M4.594.031c-.016-.187-.016-.281-.016-.406 0-.11 0-.203.016-.39l-3.328.078 1.75-1.704c.937-.906 1.234-1.39 1.234-2.062 0-1.016-.75-1.64-1.984-1.64-.688 0-1.172.171-1.641.624L.469-4.266H.75l.11-.406c.171-.516.515-.734 1.156-.734.828 0 1.359.468 1.359 1.218 0 .672-.406 1.329-1.484 2.391L.234-.203V.03L2.391 0zm0 0"/></svg><svg overflow="visible" x="46.016" y="43.614"><path d="M8.125-3.938c-.016-.124-.031-.25-.031-.359 0-.125.015-.25.031-.36H.953c.031.11.031.235.031.36 0 .11 0 .234-.03.36zm0 2.626c-.016-.125-.031-.235-.031-.36s.015-.234.031-.36H.953a1.4 1.4 0 01.031.36c0 .125 0 .234-.03.36zm0 0"/></svg><svg overflow="visible" x="58.414" y="43.614"><path d="M4.594-5.688c-.14-.062-.188-.078-.25-.078-.36 0-.735.297-1.172.907-.406.578-.813 1.156-1.11 1.796l.297-1.5c.063-.265.157-.546.157-.812 0-.25-.094-.39-.282-.39-.25 0-.703.25-1.593.89l-.329.234.079.235.39-.25c.328-.203.469-.266.563-.266.125 0 .203.11.203.266 0 .687-.5 3.156-.984 4.687L.688.11c.25-.078.515-.14.796-.187L1.797-1.5c.219-1 .484-1.625 1.016-2.313.406-.53.718-.78.984-.78.187 0 .297.062.437.234h.172c.032-.454.094-.844.188-1.329zm0 0"/></svg><svg overflow="visible" x="66.005" y="43.614"><path d="M2.39-2.984c0-.438-.28-.72-.718-.72-.422 0-.719.282-.719.72 0 .421.297.718.719.718.437 0 .719-.296.719-.718zm0 0"/></svg><svg overflow="visible" x="72.007" y="43.614"><path d="M4.11-7.61a.735.735 0 01-.188-.14c-.063-.063-.11-.11-.14-.188-1.47 1.47-2.345 3.032-2.345 4.563v.781c0 1.516.875 3.078 2.344 4.547a.735.735 0 01.14-.187.735.735 0 01.188-.141C2.781.281 2.156-1.203 2.156-2.594v-.781c0-1.39.625-2.89 1.953-4.234zm0 0"/></svg><svg overflow="visible" x="77.076" y="43.614"><path d="M4.656-5.469c-.312-.203-.703-.297-1.156-.297-.531 0-1.39.422-2.063 1.016C.75-4.14.298-2.906.298-1.625c0 1.14.5 1.75 1.453 1.75.656 0 1.219-.234 1.89-.766l.594-.5-.093-.234-.188.125c-.86.563-1.312.766-1.734.766-.672 0-1.016-.47-1.016-1.422 0-1.266.406-2.5.984-2.953.25-.22.547-.313.938-.313.531 0 .969.219.969.516v.718h.265c.094-.78.188-1.218.297-1.53zm0 0"/></svg><svg overflow="visible" x="82.061" y="43.614"><path d="M4.906-3.953c0-1.125-.593-1.813-1.578-1.813-.515 0-1.078.204-1.625.594-.969.688-1.5 1.89-1.5 3.36C.203-.548.734.125 1.734.125c.657 0 1.375-.297 1.907-.813.75-.703 1.265-2.062 1.265-3.265zM4-3.766c0 1.141-.36 2.422-.89 3.047-.22.25-.532.39-.891.39-.703 0-1.11-.53-1.11-1.484 0-1.343.47-2.812 1.047-3.296.156-.125.438-.204.719-.204.734 0 1.125.547 1.125 1.547zm0 0"/></svg><svg overflow="visible" x="87.369" y="43.614"><path d="M4.125-5.438c-.469-.234-.797-.328-1.203-.328-.61 0-1.344.344-1.922.938-.313.328-.438.625-.438 1.047 0 .672.375 1.062 1.157 1.219l.75.14c.531.094.719.297.719.766 0 .797-.547 1.312-1.391 1.312-.438 0-.797-.14-1.125-.422v-1H.375C.312-1.156.235-.734.109-.187.563.03.97.124 1.391.124c.578 0 1.125-.203 1.734-.688.61-.484.875-.921.875-1.515 0-.64-.375-1-1.281-1.156l-.5-.094c-.719-.14-.953-.344-.953-.828 0-.64.53-1.125 1.218-1.125.485 0 .954.218 1.141.531v.656h.266c.046-.406.109-.734.234-1.343zm0 0"/></svg><svg overflow="visible" x="92.02" y="43.614"><path d="M4.11-7.61a.735.735 0 01-.188-.14c-.063-.063-.11-.11-.14-.188-1.47 1.47-2.345 3.032-2.345 4.563v.781c0 1.516.875 3.078 2.344 4.547a.735.735 0 01.14-.187.735.735 0 01.188-.141C2.781.281 2.156-1.203 2.156-2.594v-.781c0-1.39.625-2.89 1.953-4.234zm0 0"/></svg><svg overflow="visible" x="97.089" y="43.614"><path d="M5.89-5.844C5.97-7.5 5.564-8.5 4.579-8.5c-.516 0-1.047.25-1.625.797C1.843-6.687.97-4.891.875-2.687.781-.782 1.141.124 2.141.124c.625 0 1.39-.438 1.984-1.156.86-1.032 1.688-3.016 1.766-4.813zM4.689-3.812c-.313 1.203-.797 2.28-1.22 2.906-.25.375-.593.578-.952.578-.704 0-.797-.922-.735-2.344.016-.36.063-.75.125-1.125.266-.11.594-.14 1.438-.14.812 0 1.156.03 1.344.124zm.28-1.766a7.748 7.748 0 01-.109 1.016c-.25.078-.609.109-1.406.109-.812 0-1.156-.031-1.375-.11.39-1.406.985-2.703 1.438-3.203.171-.187.453-.28.734-.28.766 0 .797.983.719 2.468zm0 0"/></svg><svg overflow="visible" x="103.317" y="43.614"><path d="M3.64-2.594v-.781c0-1.531-.874-3.094-2.343-4.563-.047.079-.094.125-.156.188a.427.427 0 01-.188.14c1.328 1.344 1.969 2.844 1.969 4.235v.781c0 1.39-.64 2.875-1.969 4.219.078.031.14.078.188.14.062.063.109.126.156.188C2.766.484 3.64-1.078 3.64-2.594zm0 0"/></svg><svg overflow="visible" x="111.04" y="43.614"><path d="M8.125-2.625c-.016-.125-.031-.25-.031-.36 0-.124.015-.25.031-.359H4.906v-3.234c-.125.031-.25.047-.36.047-.124 0-.25-.016-.359-.047v3.234H.954c.031.11.031.235.031.36 0 .109 0 .234-.03.359h3.234V.594c.109-.016.234-.031.359-.031.11 0 .234.015.36.03v-3.218zm0 0"/></svg><svg overflow="visible" x="122.78" y="43.614"><path d="M5.36-5.656a2.204 2.204 0 00-.563-.11c-.797 0-1.781.922-3.281 3.016l1.28-5.875-.14-.14c-.625.312-1.047.421-1.922.5l-.046.25h.578c.28 0 .406.093.406.296 0 .094-.016.203-.016.282l-.578 3.203C.922-3.328.718-2.516.094-.016l.11.125L1-.094l.281-1.484c.11-.578.39-1.11.797-1.516C2.906-.704 3.281.11 3.578.11c.156 0 .453-.156.969-.53l.562-.376-.093-.234-.516.297c-.172.093-.25.109-.36.109-.109 0-.202-.063-.296-.266-.422-.765-.688-1.421-1.156-2.89l.171-.156c.72-.735 1.282-1.032 1.875-1.032.094 0 .22.016.422.063zm0 0"/></svg><svg overflow="visible" x="131.149" y="43.614"><path d="M2.39-2.984c0-.438-.28-.72-.718-.72-.422 0-.719.282-.719.72 0 .421.297.718.719.718.437 0 .719-.296.719-.718zm0 0"/></svg><svg overflow="visible" x="137.15" y="43.614"><path d="M4.125-5.438c-.469-.234-.797-.328-1.203-.328-.61 0-1.344.344-1.922.938-.313.328-.438.625-.438 1.047 0 .672.375 1.062 1.157 1.219l.75.14c.531.094.719.297.719.766 0 .797-.547 1.312-1.391 1.312-.438 0-.797-.14-1.125-.422v-1H.375C.312-1.156.235-.734.109-.187.563.03.97.124 1.391.124c.578 0 1.125-.203 1.734-.688.61-.484.875-.921.875-1.515 0-.64-.375-1-1.281-1.156l-.5-.094c-.719-.14-.953-.344-.953-.828 0-.64.53-1.125 1.218-1.125.485 0 .954.218 1.141.531v.656h.266c.046-.406.109-.734.234-1.343zm0 0"/></svg><svg overflow="visible" x="141.801" y="43.614"><path d="M2.875-1.016l-.11-.218-.312.203c-.36.25-.61.36-.734.36-.078 0-.157-.11-.157-.235 0-.125.016-.219.094-.485l.907-3.625c.062-.203.078-.328.078-.437 0-.203-.094-.313-.297-.313-.266 0-.688.25-1.61.891l-.328.234.078.235.391-.25c.344-.219.469-.266.578-.266.11 0 .203.11.203.25 0 .094-.047.344-.11.531l-.78 2.86c-.11.39-.157.687-.157.922 0 .28.125.468.36.468.312 0 .75-.265 1.906-1.125zm.297-6.5c0-.296-.172-.5-.422-.5-.36 0-.688.407-.688.813 0 .297.172.484.47.484.374 0 .64-.343.64-.797zm0 0"/></svg><svg overflow="visible" x="145.316" y="43.614"><path d="M6.14-1.016l-.109-.218-.312.203c-.36.234-.61.36-.735.36-.078 0-.156-.11-.156-.235 0-.063.016-.188.031-.235l.782-3.312a4.47 4.47 0 00.125-.875c0-.281-.125-.438-.36-.438-.5 0-1.328.454-2.031 1.11-.453.422-.797.828-1.422 1.703l.469-1.922c.047-.219.062-.36.062-.484 0-.266-.093-.407-.265-.407-.266 0-.719.266-1.594.891l-.344.234.094.235.375-.25c.438-.282.484-.297.563-.297.14 0 .218.125.218.297 0 .61-.484 2.922-.984 4.625l.094.14c.296-.078.562-.156.828-.203.234-1.515.484-2.281 1.031-3.11.656-1 1.547-1.75 2.078-1.75.125 0 .203.11.203.298 0 .203-.031.453-.125.843L4.031-1.28c-.11.437-.156.718-.156.906 0 .297.125.484.36.484.312 0 .734-.25 1.906-1.125zm0 0"/></svg><svg overflow="visible" x="151.963" y="43.614"><path d="M4.11-7.61a.735.735 0 01-.188-.14c-.063-.063-.11-.11-.14-.188-1.47 1.47-2.345 3.032-2.345 4.563v.781c0 1.516.875 3.078 2.344 4.547a.735.735 0 01.14-.187.735.735 0 01.188-.141C2.781.281 2.156-1.203 2.156-2.594v-.781c0-1.39.625-2.89 1.953-4.234zm0 0"/></svg><svg overflow="visible" x="157.032" y="43.614"><path d="M5.89-5.844C5.97-7.5 5.564-8.5 4.579-8.5c-.516 0-1.047.25-1.625.797C1.843-6.687.97-4.891.875-2.687.781-.782 1.141.124 2.141.124c.625 0 1.39-.438 1.984-1.156.86-1.032 1.688-3.016 1.766-4.813zM4.689-3.812c-.313 1.203-.797 2.28-1.22 2.906-.25.375-.593.578-.952.578-.704 0-.797-.922-.735-2.344.016-.36.063-.75.125-1.125.266-.11.594-.14 1.438-.14.812 0 1.156.03 1.344.124zm.28-1.766a7.748 7.748 0 01-.109 1.016c-.25.078-.609.109-1.406.109-.812 0-1.156-.031-1.375-.11.39-1.406.985-2.703 1.438-3.203.171-.187.453-.28.734-.28.766 0 .797.983.719 2.468zm0 0"/></svg><g><svg overflow="visible" x="163.261" y="43.614"><path d="M3.64-2.594v-.781c0-1.531-.874-3.094-2.343-4.563-.047.079-.094.125-.156.188a.427.427 0 01-.188.14c1.328 1.344 1.969 2.844 1.969 4.235v.781c0 1.39-.64 2.875-1.969 4.219.078.031.14.078.188.14.062.063.109.126.156.188C2.766.484 3.64-1.078 3.64-2.594zm0 0"/></svg><svg overflow="visible" x="168.33" y="43.614"><path d="M2.61-1.297l-.172-.172c-.329.11-.532.172-1.172.36C1.187-.203.89.578.187 1.719l.172.14.485-.234c.969-1.25 1.422-2 1.765-2.922zm0 0"/></svg></g><g><svg overflow="visible" x="173.303" y="43.614"><path d="M4.125-5.438c-.469-.234-.797-.328-1.203-.328-.61 0-1.344.344-1.922.938-.313.328-.438.625-.438 1.047 0 .672.375 1.062 1.157 1.219l.75.14c.531.094.719.297.719.766 0 .797-.547 1.312-1.391 1.312-.438 0-.797-.14-1.125-.422v-1H.375C.312-1.156.235-.734.109-.187.563.03.97.124 1.391.124c.578 0 1.125-.203 1.734-.688.61-.484.875-.921.875-1.515 0-.64-.375-1-1.281-1.156l-.5-.094c-.719-.14-.953-.344-.953-.828 0-.64.53-1.125 1.218-1.125.485 0 .954.218 1.141.531v.656h.266c.046-.406.109-.734.234-1.343zm0 0"/></svg><svg overflow="visible" x="177.954" y="43.614"><path d="M2.875-1.016l-.11-.218-.312.203c-.36.25-.61.36-.734.36-.078 0-.157-.11-.157-.235 0-.125.016-.219.094-.485l.907-3.625c.062-.203.078-.328.078-.437 0-.203-.094-.313-.297-.313-.266 0-.688.25-1.61.891l-.328.234.078.235.391-.25c.344-.219.469-.266.578-.266.11 0 .203.11.203.25 0 .094-.047.344-.11.531l-.78 2.86c-.11.39-.157.687-.157.922 0 .28.125.468.36.468.312 0 .75-.265 1.906-1.125zm.297-6.5c0-.296-.172-.5-.422-.5-.36 0-.688.407-.688.813 0 .297.172.484.47.484.374 0 .64-.343.64-.797zm0 0"/></svg></g><g><svg overflow="visible" x="181.468" y="43.614"><path d="M6.14-1.016l-.109-.218-.312.203c-.36.234-.61.36-.735.36-.078 0-.156-.11-.156-.235 0-.063.016-.188.031-.235l.782-3.312a4.47 4.47 0 00.125-.875c0-.281-.125-.438-.36-.438-.5 0-1.328.454-2.031 1.11-.453.422-.797.828-1.422 1.703l.469-1.922c.047-.219.062-.36.062-.484 0-.266-.093-.407-.265-.407-.266 0-.719.266-1.594.891l-.344.234.094.235.375-.25c.438-.282.484-.297.563-.297.14 0 .218.125.218.297 0 .61-.484 2.922-.984 4.625l.094.14c.296-.078.562-.156.828-.203.234-1.515.484-2.281 1.031-3.11.656-1 1.547-1.75 2.078-1.75.125 0 .203.11.203.298 0 .203-.031.453-.125.843L4.031-1.28c-.11.437-.156.718-.156.906 0 .297.125.484.36.484.312 0 .734-.25 1.906-1.125zm0 0"/></svg><svg overflow="visible" x="188.116" y="43.614"><path d="M4.11-7.61a.735.735 0 01-.188-.14c-.063-.063-.11-.11-.14-.188-1.47 1.47-2.345 3.032-2.345 4.563v.781c0 1.516.875 3.078 2.344 4.547a.735.735 0 01.14-.187.735.735 0 01.188-.141C2.781.281 2.156-1.203 2.156-2.594v-.781c0-1.39.625-2.89 1.953-4.234zm0 0"/></svg><svg overflow="visible" x="193.185" y="43.614"><path d="M5.89-5.844C5.97-7.5 5.564-8.5 4.579-8.5c-.516 0-1.047.25-1.625.797C1.843-6.687.97-4.891.875-2.687.781-.782 1.141.124 2.141.124c.625 0 1.39-.438 1.984-1.156.86-1.032 1.688-3.016 1.766-4.813zM4.689-3.812c-.313 1.203-.797 2.28-1.22 2.906-.25.375-.593.578-.952.578-.704 0-.797-.922-.735-2.344.016-.36.063-.75.125-1.125.266-.11.594-.14 1.438-.14.812 0 1.156.03 1.344.124zm.28-1.766a7.748 7.748 0 01-.109 1.016c-.25.078-.609.109-1.406.109-.812 0-1.156-.031-1.375-.11.39-1.406.985-2.703 1.438-3.203.171-.187.453-.28.734-.28.766 0 .797.983.719 2.468zm0 0"/></svg></g><g><svg overflow="visible" x="199.413" y="43.614"><path d="M3.64-2.594v-.781c0-1.531-.874-3.094-2.343-4.563-.047.079-.094.125-.156.188a.427.427 0 01-.188.14c1.328 1.344 1.969 2.844 1.969 4.235v.781c0 1.39-.64 2.875-1.969 4.219.078.031.14.078.188.14.062.063.109.126.156.188C2.766.484 3.64-1.078 3.64-2.594zm0 0"/></svg></g><g><svg overflow="visible" x="207.148" y="43.614"><path d="M8.125-2.625c-.016-.125-.031-.25-.031-.36 0-.124.015-.25.031-.359H.953c.031.11.031.235.031.36 0 .109 0 .234-.03.359zm0 0"/></svg></g><g><svg overflow="visible" x="218.888" y="43.614"><path d="M5.36-5.656a2.204 2.204 0 00-.563-.11c-.797 0-1.781.922-3.281 3.016l1.28-5.875-.14-.14c-.625.312-1.047.421-1.922.5l-.046.25h.578c.28 0 .406.093.406.296 0 .094-.016.203-.016.282l-.578 3.203C.922-3.328.718-2.516.094-.016l.11.125L1-.094l.281-1.484c.11-.578.39-1.11.797-1.516C2.906-.704 3.281.11 3.578.11c.156 0 .453-.156.969-.53l.562-.376-.093-.234-.516.297c-.172.093-.25.109-.36.109-.109 0-.202-.063-.296-.266-.422-.765-.688-1.421-1.156-2.89l.171-.156c.72-.735 1.282-1.032 1.875-1.032.094 0 .22.016.422.063zm0 0"/></svg></g><g><svg overflow="visible" x="227.245" y="43.614"><path d="M2.39-2.984c0-.438-.28-.72-.718-.72-.422 0-.719.282-.719.72 0 .421.297.718.719.718.437 0 .719-.296.719-.718zm0 0"/></svg></g><g><svg overflow="visible" x="233.246" y="43.614"><path d="M4.656-5.469c-.312-.203-.703-.297-1.156-.297-.531 0-1.39.422-2.063 1.016C.75-4.14.298-2.906.298-1.625c0 1.14.5 1.75 1.453 1.75.656 0 1.219-.234 1.89-.766l.594-.5-.093-.234-.188.125c-.86.563-1.312.766-1.734.766-.672 0-1.016-.47-1.016-1.422 0-1.266.406-2.5.984-2.953.25-.22.547-.313.938-.313.531 0 .969.219.969.516v.718h.265c.094-.78.188-1.218.297-1.53zm0 0"/></svg></g><g><svg overflow="visible" x="238.232" y="43.614"><path d="M4.906-3.953c0-1.125-.593-1.813-1.578-1.813-.515 0-1.078.204-1.625.594-.969.688-1.5 1.89-1.5 3.36C.203-.548.734.125 1.734.125c.657 0 1.375-.297 1.907-.813.75-.703 1.265-2.062 1.265-3.265zM4-3.766c0 1.141-.36 2.422-.89 3.047-.22.25-.532.39-.891.39-.703 0-1.11-.53-1.11-1.484 0-1.343.47-2.812 1.047-3.296.156-.125.438-.204.719-.204.734 0 1.125.547 1.125 1.547zm0 0"/></svg><svg overflow="visible" x="243.54" y="43.614"><path d="M4.125-5.438c-.469-.234-.797-.328-1.203-.328-.61 0-1.344.344-1.922.938-.313.328-.438.625-.438 1.047 0 .672.375 1.062 1.157 1.219l.75.14c.531.094.719.297.719.766 0 .797-.547 1.312-1.391 1.312-.438 0-.797-.14-1.125-.422v-1H.375C.312-1.156.235-.734.109-.187.563.03.97.124 1.391.124c.578 0 1.125-.203 1.734-.688.61-.484.875-.921.875-1.515 0-.64-.375-1-1.281-1.156l-.5-.094c-.719-.14-.953-.344-.953-.828 0-.64.53-1.125 1.218-1.125.485 0 .954.218 1.141.531v.656h.266c.046-.406.109-.734.234-1.343zm0 0"/></svg><svg overflow="visible" x="248.19" y="43.614"><path d="M4.11-7.61a.735.735 0 01-.188-.14c-.063-.063-.11-.11-.14-.188-1.47 1.47-2.345 3.032-2.345 4.563v.781c0 1.516.875 3.078 2.344 4.547a.735.735 0 01.14-.187.735.735 0 01.188-.141C2.781.281 2.156-1.203 2.156-2.594v-.781c0-1.39.625-2.89 1.953-4.234zm0 0"/></svg><svg overflow="visible" x="253.259" y="43.614"><path d="M5.89-5.844C5.97-7.5 5.564-8.5 4.579-8.5c-.516 0-1.047.25-1.625.797C1.843-6.687.97-4.891.875-2.687.781-.782 1.141.124 2.141.124c.625 0 1.39-.438 1.984-1.156.86-1.032 1.688-3.016 1.766-4.813zM4.689-3.812c-.313 1.203-.797 2.28-1.22 2.906-.25.375-.593.578-.952.578-.704 0-.797-.922-.735-2.344.016-.36.063-.75.125-1.125.266-.11.594-.14 1.438-.14.812 0 1.156.03 1.344.124zm.28-1.766a7.748 7.748 0 01-.109 1.016c-.25.078-.609.109-1.406.109-.812 0-1.156-.031-1.375-.11.39-1.406.985-2.703 1.438-3.203.171-.187.453-.28.734-.28.766 0 .797.983.719 2.468zm0 0"/></svg></g><g><svg overflow="visible" x="259.488" y="43.614"><path d="M3.64-2.594v-.781c0-1.531-.874-3.094-2.343-4.563-.047.079-.094.125-.156.188a.427.427 0 01-.188.14c1.328 1.344 1.969 2.844 1.969 4.235v.781c0 1.39-.64 2.875-1.969 4.219.078.031.14.078.188.14.062.063.109.126.156.188C2.766.484 3.64-1.078 3.64-2.594zm0 0"/></svg><svg overflow="visible" x="264.557" y="43.614"><path d="M3.64-2.594v-.781c0-1.531-.874-3.094-2.343-4.563-.047.079-.094.125-.156.188a.427.427 0 01-.188.14c1.328 1.344 1.969 2.844 1.969 4.235v.781c0 1.39-.64 2.875-1.969 4.219.078.031.14.078.188.14.062.063.109.126.156.188C2.766.484 3.64-1.078 3.64-2.594zm0 0"/></svg></g><g><svg overflow="visible" x="25.419" y="61.048"><path d="M.172-1.344c0 .922.531 1.469 1.39 1.469.688 0 1.344-.328 2.454-1.219l-.094-.234-.281.203C3-.672 2.42-.437 2-.437c-.578 0-.906-.438-.906-1.172 0-.297.015-.61.093-.954l.97-.234c.202-.047.515-.172.827-.297C4-3.547 4.47-4.094 4.47-4.828c0-.563-.39-.938-1-.938-.781 0-2.078.813-2.563 1.563-.36.594-.734 2.031-.734 2.86zM1.25-2.828l.094-.453c.203-.797.437-1.313.765-1.61.22-.218.61-.375.907-.375.343 0 .562.25.562.625 0 .532-.406 1.094-1.031 1.391-.328.156-.766.297-1.297.422zm0 0"/></svg><svg overflow="visible" x="30.07" y="61.048"><path d="M.281-4.64l.094.234.375-.25c.438-.282.484-.297.563-.297.14 0 .218.125.218.297 0 .61-.484 2.922-.984 4.625l.094.14c.296-.078.562-.156.828-.203.234-1.515.484-2.281 1.031-3.11.656-1 1.547-1.75 2.078-1.75.125 0 .203.11.203.298 0 .203-.031.453-.125.843L4.031-1.28c-.11.437-.156.718-.156.906 0 .297.125.484.36.484.312 0 .734-.25 1.906-1.125l-.11-.218-.312.203c-.36.234-.61.36-.735.36-.078 0-.156-.11-.156-.235 0-.063.016-.188.031-.235l.782-3.312a4.47 4.47 0 00.125-.875c0-.281-.125-.438-.36-.438-.5 0-1.328.454-2.031 1.11-.453.422-.797.828-1.422 1.703l.469-1.922c.047-.219.062-.36.062-.484 0-.266-.093-.407-.265-.407-.266 0-.719.266-1.594.891zm0 0"/></svg><svg overflow="visible" x="36.717" y="61.048"><path d="M.203-1.031C.203-.25.375.125.734.125c.313 0 .766-.203 1.172-.516.64-.53 1.032-1 1.828-2.203L3.47-1.5c-.14.516-.188.906-.188 1.219 0 .25.094.406.297.406.219 0 .5-.156.906-.453l.97-.719-.126-.234-.516.375c-.171.125-.359.203-.468.203-.094 0-.172-.11-.172-.281 0-.094.031-.204.094-.547l1.5-7.094-.141-.14c-.61.312-1.047.421-1.906.5l-.047.25h.578c.281 0 .406.093.406.296 0 .094-.015.203-.031.282l-.328 1.843a3.437 3.437 0 00-.984-.172c-.829 0-1.954.86-2.5 1.907-.375.687-.61 1.828-.61 2.828zm.86-.14c0-1.5.546-3.376 1.14-3.829.156-.11.375-.172.703-.172.531 0 .875.063 1.266.266l-.14.703c-.22 1.062-.798 2.11-1.548 2.812-.421.407-.89.688-1.125.688-.187 0-.296-.172-.296-.469zm0 0"/></svg></g><g><svg overflow="visible" x="46.016" y="61.048"><path d="M8.125-3.938c-.016-.124-.031-.25-.031-.359 0-.125.015-.25.031-.36H.953c.031.11.031.235.031.36 0 .11 0 .234-.03.36zm0 2.626c-.016-.125-.031-.235-.031-.36s.015-.234.031-.36H.953a1.4 1.4 0 01.031.36c0 .125 0 .234-.03.36zm0 0"/></svg></g><g><svg overflow="visible" x="58.414" y="61.048"><path d="M4.594-5.688c-.14-.062-.188-.078-.25-.078-.36 0-.735.297-1.172.907-.406.578-.813 1.156-1.11 1.796l.297-1.5c.063-.265.157-.546.157-.812 0-.25-.094-.39-.282-.39-.25 0-.703.25-1.593.89l-.329.234.079.235.39-.25c.328-.203.469-.266.563-.266.125 0 .203.11.203.266 0 .687-.5 3.156-.984 4.687L.688.11c.25-.078.515-.14.796-.187L1.797-1.5c.219-1 .484-1.625 1.016-2.313.406-.53.718-.78.984-.78.187 0 .297.062.437.234h.172c.032-.454.094-.844.188-1.329zm0 0"/></svg></g><g><svg overflow="visible" x="66.005" y="61.048"><path d="M2.39-2.984c0-.438-.28-.72-.718-.72-.422 0-.719.282-.719.72 0 .421.297.718.719.718.437 0 .719-.296.719-.718zm0 0"/></svg></g><g><svg overflow="visible" x="72.007" y="61.048"><path d="M4.11-7.61a.735.735 0 01-.188-.14c-.063-.063-.11-.11-.14-.188-1.47 1.47-2.345 3.032-2.345 4.563v.781c0 1.516.875 3.078 2.344 4.547a.735.735 0 01.14-.187.735.735 0 01.188-.141C2.781.281 2.156-1.203 2.156-2.594v-.781c0-1.39.625-2.89 1.953-4.234zm0 0"/></svg><svg overflow="visible" x="77.076" y="61.048"><path d="M4.656-5.469c-.312-.203-.703-.297-1.156-.297-.531 0-1.39.422-2.063 1.016C.75-4.14.298-2.906.298-1.625c0 1.14.5 1.75 1.453 1.75.656 0 1.219-.234 1.89-.766l.594-.5-.093-.234-.188.125c-.86.563-1.312.766-1.734.766-.672 0-1.016-.47-1.016-1.422 0-1.266.406-2.5.984-2.953.25-.22.547-.313.938-.313.531 0 .969.219.969.516v.718h.265c.094-.78.188-1.218.297-1.53zm0 0"/></svg></g><g><svg overflow="visible" x="82.061" y="61.048"><path d="M4.906-3.953c0-1.125-.593-1.813-1.578-1.813-.515 0-1.078.204-1.625.594-.969.688-1.5 1.89-1.5 3.36C.203-.548.734.125 1.734.125c.657 0 1.375-.297 1.907-.813.75-.703 1.265-2.062 1.265-3.265zM4-3.766c0 1.141-.36 2.422-.89 3.047-.22.25-.532.39-.891.39-.703 0-1.11-.53-1.11-1.484 0-1.343.47-2.812 1.047-3.296.156-.125.438-.204.719-.204.734 0 1.125.547 1.125 1.547zm0 0"/></svg><svg overflow="visible" x="87.369" y="61.048"><path d="M4.125-5.438c-.469-.234-.797-.328-1.203-.328-.61 0-1.344.344-1.922.938-.313.328-.438.625-.438 1.047 0 .672.375 1.062 1.157 1.219l.75.14c.531.094.719.297.719.766 0 .797-.547 1.312-1.391 1.312-.438 0-.797-.14-1.125-.422v-1H.375C.312-1.156.235-.734.109-.187.563.03.97.124 1.391.124c.578 0 1.125-.203 1.734-.688.61-.484.875-.921.875-1.515 0-.64-.375-1-1.281-1.156l-.5-.094c-.719-.14-.953-.344-.953-.828 0-.64.53-1.125 1.218-1.125.485 0 .954.218 1.141.531v.656h.266c.046-.406.109-.734.234-1.343zm0 0"/></svg><svg overflow="visible" x="92.02" y="61.048"><path d="M4.11-7.61a.735.735 0 01-.188-.14c-.063-.063-.11-.11-.14-.188-1.47 1.47-2.345 3.032-2.345 4.563v.781c0 1.516.875 3.078 2.344 4.547a.735.735 0 01.14-.187.735.735 0 01.188-.141C2.781.281 2.156-1.203 2.156-2.594v-.781c0-1.39.625-2.89 1.953-4.234zm0 0"/></svg><svg overflow="visible" x="97.089" y="61.048"><path d="M5.89-5.844C5.97-7.5 5.564-8.5 4.579-8.5c-.516 0-1.047.25-1.625.797C1.843-6.687.97-4.891.875-2.687.781-.782 1.141.124 2.141.124c.625 0 1.39-.438 1.984-1.156.86-1.032 1.688-3.016 1.766-4.813zM4.689-3.812c-.313 1.203-.797 2.28-1.22 2.906-.25.375-.593.578-.952.578-.704 0-.797-.922-.735-2.344.016-.36.063-.75.125-1.125.266-.11.594-.14 1.438-.14.812 0 1.156.03 1.344.124zm.28-1.766a7.748 7.748 0 01-.109 1.016c-.25.078-.609.109-1.406.109-.812 0-1.156-.031-1.375-.11.39-1.406.985-2.703 1.438-3.203.171-.187.453-.28.734-.28.766 0 .797.983.719 2.468zm0 0"/></svg></g><g><svg overflow="visible" x="103.317" y="61.048"><path d="M3.64-2.594v-.781c0-1.531-.874-3.094-2.343-4.563-.047.079-.094.125-.156.188a.427.427 0 01-.188.14c1.328 1.344 1.969 2.844 1.969 4.235v.781c0 1.39-.64 2.875-1.969 4.219.078.031.14.078.188.14.062.063.109.126.156.188C2.766.484 3.64-1.078 3.64-2.594zm0 0"/></svg><svg overflow="visible" x="108.386" y="61.048"><path d="M2.61-1.297l-.172-.172c-.329.11-.532.172-1.172.36C1.187-.203.89.578.187 1.719l.172.14.485-.234c.969-1.25 1.422-2 1.765-2.922zm0 0"/></svg></g><g><svg overflow="visible" x="116.348" y="61.048"><path d="M4.125-5.438c-.469-.234-.797-.328-1.203-.328-.61 0-1.344.344-1.922.938-.313.328-.438.625-.438 1.047 0 .672.375 1.062 1.157 1.219l.75.14c.531.094.719.297.719.766 0 .797-.547 1.312-1.391 1.312-.438 0-.797-.14-1.125-.422v-1H.375C.312-1.156.235-.734.109-.187.563.03.97.124 1.391.124c.578 0 1.125-.203 1.734-.688.61-.484.875-.921.875-1.515 0-.64-.375-1-1.281-1.156l-.5-.094c-.719-.14-.953-.344-.953-.828 0-.64.53-1.125 1.218-1.125.485 0 .954.218 1.141.531v.656h.266c.046-.406.109-.734.234-1.343zm0 0"/></svg><svg overflow="visible" x="120.999" y="61.048"><path d="M2.875-1.016l-.11-.218-.312.203c-.36.25-.61.36-.734.36-.078 0-.157-.11-.157-.235 0-.125.016-.219.094-.485l.907-3.625c.062-.203.078-.328.078-.437 0-.203-.094-.313-.297-.313-.266 0-.688.25-1.61.891l-.328.234.078.235.391-.25c.344-.219.469-.266.578-.266.11 0 .203.11.203.25 0 .094-.047.344-.11.531l-.78 2.86c-.11.39-.157.687-.157.922 0 .28.125.468.36.468.312 0 .75-.265 1.906-1.125zm.297-6.5c0-.296-.172-.5-.422-.5-.36 0-.688.407-.688.813 0 .297.172.484.47.484.374 0 .64-.343.64-.797zm0 0"/></svg></g><g><svg overflow="visible" x="124.514" y="61.048"><path d="M6.14-1.016l-.109-.218-.312.203c-.36.234-.61.36-.735.36-.078 0-.156-.11-.156-.235 0-.063.016-.188.031-.235l.782-3.312a4.47 4.47 0 00.125-.875c0-.281-.125-.438-.36-.438-.5 0-1.328.454-2.031 1.11-.453.422-.797.828-1.422 1.703l.469-1.922c.047-.219.062-.36.062-.484 0-.266-.093-.407-.265-.407-.266 0-.719.266-1.594.891l-.344.234.094.235.375-.25c.438-.282.484-.297.563-.297.14 0 .218.125.218.297 0 .61-.484 2.922-.984 4.625l.094.14c.296-.078.562-.156.828-.203.234-1.515.484-2.281 1.031-3.11.656-1 1.547-1.75 2.078-1.75.125 0 .203.11.203.298 0 .203-.031.453-.125.843L4.031-1.28c-.11.437-.156.718-.156.906 0 .297.125.484.36.484.312 0 .734-.25 1.906-1.125zm0 0"/></svg><svg overflow="visible" x="131.161" y="61.048"><path d="M4.11-7.61a.735.735 0 01-.188-.14c-.063-.063-.11-.11-.14-.188-1.47 1.47-2.345 3.032-2.345 4.563v.781c0 1.516.875 3.078 2.344 4.547a.735.735 0 01.14-.187.735.735 0 01.188-.141C2.781.281 2.156-1.203 2.156-2.594v-.781c0-1.39.625-2.89 1.953-4.234zm0 0"/></svg><svg overflow="visible" x="136.23" y="61.048"><path d="M5.89-5.844C5.97-7.5 5.564-8.5 4.579-8.5c-.516 0-1.047.25-1.625.797C1.843-6.687.97-4.891.875-2.687.781-.782 1.141.124 2.141.124c.625 0 1.39-.438 1.984-1.156.86-1.032 1.688-3.016 1.766-4.813zM4.689-3.812c-.313 1.203-.797 2.28-1.22 2.906-.25.375-.593.578-.952.578-.704 0-.797-.922-.735-2.344.016-.36.063-.75.125-1.125.266-.11.594-.14 1.438-.14.812 0 1.156.03 1.344.124zm.28-1.766a7.748 7.748 0 01-.109 1.016c-.25.078-.609.109-1.406.109-.812 0-1.156-.031-1.375-.11.39-1.406.985-2.703 1.438-3.203.171-.187.453-.28.734-.28.766 0 .797.983.719 2.468zm0 0"/></svg></g><g><svg overflow="visible" x="142.459" y="61.048"><path d="M3.64-2.594v-.781c0-1.531-.874-3.094-2.343-4.563-.047.079-.094.125-.156.188a.427.427 0 01-.188.14c1.328 1.344 1.969 2.844 1.969 4.235v.781c0 1.39-.64 2.875-1.969 4.219.078.031.14.078.188.14.062.063.109.126.156.188C2.766.484 3.64-1.078 3.64-2.594zm0 0"/></svg><svg overflow="visible" x="147.528" y="61.048"><path d="M3.64-2.594v-.781c0-1.531-.874-3.094-2.343-4.563-.047.079-.094.125-.156.188a.427.427 0 01-.188.14c1.328 1.344 1.969 2.844 1.969 4.235v.781c0 1.39-.64 2.875-1.969 4.219.078.031.14.078.188.14.062.063.109.126.156.188C2.766.484 3.64-1.078 3.64-2.594zm0 0"/></svg></g></svg>