<svg xmlns="http://www.w3.org/2000/svg" xmlns:xlink="http://www.w3.org/1999/xlink" width="140" height="65px" viewBox="0 0 105 49"><svg overflow="visible" x=".262" y="27.571"><path d="M7.594-8.531L4.219-8.5l-3.5-.047-.235 2.235h.594l.219-.844c.047-.266.11-.36.172-.453.078-.079.437-.11.875-.11h1.172l-1 6.094c-.188 1.094-.079 1-.563 1.031l-.719.031-.093.61L3 0l1.703.047.063-.61-.844-.03c-.313-.016-.297.015-.297-.235 0-.11 0-.156.047-.422l1.094-6.469h.765c.938 0 1.219-.078 1.266.063.031.11.047.328.047.453l-.063.89h.594l.375-2.234zm0 0"/></svg><svg overflow="visible" x="7.567" y="30.345"><path d="M4.781-.11V-.5l-.61-.031c-.468-.031-.421-.016-.421-.531v-.532c.422 0 .625 0 1.031.047v-.781l-.047.094s-.562-.204-.875-.204H3.75V-3.53c0-1.578.016-2.328.078-2.766l-.281-.11-.813.282-2.796 4.172.187.36h2.5v.53c0 .516.047.516-.422.532l-.75.031v.531L3.172 0l1.61.031zm-2-2.328H.97L2.89-5.312l-.266-.094v2.968zm0 0"/></svg><svg overflow="visible" x="16.384" y="27.571"><path d="M8.266-4.078a1.419 1.419 0 01-.047-.36c0-.109.015-.234.062-.484h-7.5c.063.25.063.375.063.484 0 .125 0 .235-.063.5h7.5zm0 2.625a1.332 1.332 0 01-.047-.36c0-.109.015-.234.062-.484h-7.5c.063.25.063.375.063.485 0 .125 0 .25-.063.5h7.5zm0 0"/></svg><svg overflow="visible" x="28.791" y="15.637"><path d="M5.078-14.781H1.562V0h1.235v-14.031h2.469c-.079-.203-.094-.281-.094-.375 0-.078.016-.172.094-.375zm0 0"/></svg><svg overflow="visible" x="28.791" y="24.863"><path d="M2.672-9.938h-1.11V0h1.235v-9.938zm0 0"/></svg><svg overflow="visible" x="28.791" y="33.984"><path d="M2.672-9.938h-1.11V0h1.235v-9.938zm0 0"/></svg><svg overflow="visible" x="28.791" y="48.041"><path d="M5.219-.125a.648.648 0 01-.047-.25c0-.078.016-.156.094-.36h-2.47V-14.78H1.564V0h3.703zm0 0"/></svg><svg overflow="visible" x="48.336" y="8.745"><path d="M5.125-.094v-.484l-.75-.047c-.656-.031-.64-.031-.64-.656v-7.172l-.313-.125c-.875.469-1.61.781-2.86 1.219l.125.718h.235l1.547-.687.031-.016c.063 0-.047-.015-.047.266v5.797c0 .625.016.625-.64.656L1-.578v.625L3.125 0l2 .047zm0 0"/></svg><svg overflow="visible" x="77.59" y="8.745"><path d="M5.688-4.5c0-2.625-.907-4-2.547-4C1.297-8.5.203-6.89.203-4c0 1.39.281 2.703.703 3.281.422.594 1.203.953 1.938.953 1.812 0 2.844-1.687 2.844-4.734zm-1.282.594C4.406-1.36 4.094-.437 3-.437c-1.156 0-1.516-1.079-1.516-4 0-2.516.313-3.375 1.438-3.375 1.172 0 1.484 1.03 1.484 3.906zm0 0"/></svg><svg overflow="visible" x="93.527" y="8.745"><path d="M5.688-4.5c0-2.625-.907-4-2.547-4C1.297-8.5.203-6.89.203-4c0 1.39.281 2.703.703 3.281.422.594 1.203.953 1.938.953 1.812 0 2.844-1.687 2.844-4.734zm-1.282.594C4.406-1.36 4.094-.437 3-.437c-1.156 0-1.516-1.079-1.516-4 0-2.516.313-3.375 1.438-3.375 1.172 0 1.484 1.03 1.484 3.906zm0 0"/></svg><svg overflow="visible" x="36.216" y="19.271"><path d="M4.266-.11V-.5l-.657-.031c-.515-.031-.468.015-.468-.453v-5.329l-.282-.093c-.625.297-1.312.562-2.375.906l.11.594h.234l1.25-.516.031-.016c.047 0-.078-.046-.078.172v4.282c0 .468.047.421-.469.453L.86-.5v.531L2.594 0l1.672.031zm0 0"/></svg><svg overflow="visible" x="41.214" y="19.271"><path d="M6.156-2.078c-.015-.094-.015-.172-.015-.266 0-.094 0-.172.046-.39H.516c.046.218.062.296.062.39 0 .094-.015.172-.062.39h5.671zm0 0"/></svg><svg overflow="visible" x="47.938" y="19.271"><path d="M9.688-6v-.39c-.47.015-.782.03-1.094.03-.313 0-.625-.015-1.063-.03l-.11.515.563.016c.282.015.235-.047.235.078 0 .11-.031.265-.078.437L6.719-1.266h.297L5.453-6.453h-.36l-.53 1.016-2.157 4.046.266.094-.297-4.281c-.016-.266-.031-.266.281-.281l.5-.016v-.516l-1.312.032-1.235-.032v.516l.344.016c.39.046.297.015.344.53l.312 3.798c.047.578.063 1.015.079 1.61h.734c.187-.454.312-.704.484-1.016L5.078-4.86l-.266-.11L5.891-1.5c.14.469.25.906.406 1.578h.734l.094-.375.297-.937L9.078-5.72c.063-.14.047-.125.266-.14l.344-.016zm0 0"/></svg><svg overflow="visible" x="57.218" y="21.324"><path d="M3.86-1.625c0-.313-.22-.703-.485-.875-.203-.11-.484-.203-.875-.266l.11.266c.624-.422.906-.828.906-1.203 0-.594-.735-1.14-1.594-1.14-.516 0-.984.171-1.39.515L.25-3.281h.563L1-3.797c.094-.219.406-.297.813-.297.5 0 .734.203.734.61 0 .5-.281.75-.828.75-.063 0-.25.25-.25.25l-.282-.11-.109.406.203.157c.328-.14.469-.172.672-.172.656 0 .844.203.844.797 0 .672-.297.953-1 .953-.36 0-.563-.047-.797-.234C.812-.829.766-.875.547-1.422l-.5.172c.187.5.25.734.312 1.172.563.156.907.203 1.188.203.625 0 1.437-.328 1.86-.781.265-.266.452-.656.452-.969zm0 0"/></svg><svg overflow="visible" x="61.826" y="22.218"><path d="M4.016-3.375L3.844-3.5a2.55 2.55 0 01-.719.156l-.313 1.016c-.093.312-.312.672-.562 1-.281.328-.531.578-.703.578-.172 0 .016-.156.016-.25l.125-1.266c.015-.203.015-.453.015-.64 0-.297-.203-.578-.344-.578-.093 0-.312.093-.687.312l-.735.438.235.359.562-.297c.047-.015.032-.031.079-.031.203 0 0 .187 0 .297L.671-.812v.265c-.016.281.312.625.5.625.281 0 1.047-.61 1.625-1.36L2.5-1.374 2.125-.25C1.735.906 1.531 1.234.985 1.234c-.266 0-.313-.03-.313-.25 0-.03 0-.093.031-.234L.422.64l-.5.313c-.016.125-.016.172-.016.203 0 .282.453.657.797.657.813 0 1.828-.97 2.281-2.188l1.094-2.953zm0 0"/></svg><path d="M36.215 25.453h30.219" fill="none" stroke-width=".717" stroke="#000" stroke-miterlimit="10"/><svg overflow="visible" x="42.077" y="33.066"><path d="M9.688-6v-.39c-.47.015-.782.03-1.094.03-.313 0-.625-.015-1.063-.03l-.11.515.563.016c.282.015.235-.047.235.078 0 .11-.031.265-.078.437L6.719-1.266h.297L5.453-6.453h-.36l-.53 1.016-2.157 4.046.266.094-.297-4.281c-.016-.266-.031-.266.281-.281l.5-.016v-.516l-1.312.032-1.235-.032v.516l.344.016c.39.046.297.015.344.53l.312 3.798c.047.578.063 1.015.079 1.61h.734c.187-.454.312-.704.484-1.016L5.078-4.86l-.266-.11L5.891-1.5c.14.469.25.906.406 1.578h.734l.094-.375.297-.937L9.078-5.72c.063-.14.047-.125.266-.14l.344-.016zm0 0"/></svg><svg overflow="visible" x="51.357" y="35.119"><path d="M3.86-1.625c0-.313-.22-.703-.485-.875-.203-.11-.484-.203-.875-.266l.11.266c.624-.422.906-.828.906-1.203 0-.594-.735-1.14-1.594-1.14-.516 0-.984.171-1.39.515L.25-3.281h.563L1-3.797c.094-.219.406-.297.813-.297.5 0 .734.203.734.61 0 .5-.281.75-.828.75-.063 0-.25.25-.25.25l-.282-.11-.109.406.203.157c.328-.14.469-.172.672-.172.656 0 .844.203.844.797 0 .672-.297.953-1 .953-.36 0-.563-.047-.797-.234C.812-.829.766-.875.547-1.422l-.5.172c.187.5.25.734.312 1.172.563.156.907.203 1.188.203.625 0 1.437-.328 1.86-.781.265-.266.452-.656.452-.969zm0 0"/></svg><svg overflow="visible" x="55.965" y="36.013"><path d="M3.969-3.375c-.094-.047-.266-.11-.344-.11-.313 0-.734.282-1.203.891l-.297.36.297.109-.047-.313c-.094-.64-.469-1.046-.922-1.046-.203 0-.5.109-.562.187l-.563.703.39.203c.329-.296.36-.343.5-.343.266 0 .25.109.391.765l.079.375-.25.328c-.329.438-.485.594-.688.594-.125 0-.047.14-.047.11l-.172-.36-.406.047c0 .281-.016.36-.063.578-.015.078-.015.094-.046.219.296.125.421.156.515.156.25 0 .672-.25.906-.547l.375-.484.016.062c.11.563.438.97.719.97.172 0 .531-.157.781-.36l.453-.344-.203-.406c-.453.328-.531.375-.656.375-.11 0-.094-.016-.172-.156-.078-.125-.11-.25-.14-.438l-.141-.625.219-.266c.359-.421.453-.53.687-.53.125 0 .047-.095.156.171l.344-.078.156-.75zm0 0"/></svg><svg overflow="visible" x="77.592" y="28.442"><path d="M5.125-.094v-.484l-.75-.047c-.656-.031-.64-.031-.64-.656v-7.172l-.313-.125c-.875.469-1.61.781-2.86 1.219l.125.718h.235l1.547-.687.031-.016c.063 0-.047-.015-.047.266v5.797c0 .625.016.625-.64.656L1-.578v.625L3.125 0l2 .047zm0 0"/></svg><svg overflow="visible" x="93.528" y="28.442"><path d="M5.688-4.5c0-2.625-.907-4-2.547-4C1.297-8.5.203-6.89.203-4c0 1.39.281 2.703.703 3.281.422.594 1.203.953 1.938.953 1.812 0 2.844-1.687 2.844-4.734zm-1.282.594C4.406-1.36 4.094-.437 3-.437c-1.156 0-1.516-1.079-1.516-4 0-2.516.313-3.375 1.438-3.375 1.172 0 1.484 1.03 1.484 3.906zm0 0"/></svg><svg overflow="visible" x="48.336" y="46.198"><path d="M5.688-4.5c0-2.625-.907-4-2.547-4C1.297-8.5.203-6.89.203-4c0 1.39.281 2.703.703 3.281.422.594 1.203.953 1.938.953 1.812 0 2.844-1.687 2.844-4.734zm-1.282.594C4.406-1.36 4.094-.437 3-.437c-1.156 0-1.516-1.079-1.516-4 0-2.516.313-3.375 1.438-3.375 1.172 0 1.484 1.03 1.484 3.906zm0 0"/></svg><svg overflow="visible" x="77.59" y="46.198"><path d="M5.688-4.5c0-2.625-.907-4-2.547-4C1.297-8.5.203-6.89.203-4c0 1.39.281 2.703.703 3.281.422.594 1.203.953 1.938.953 1.812 0 2.844-1.687 2.844-4.734zm-1.282.594C4.406-1.36 4.094-.437 3-.437c-1.156 0-1.516-1.079-1.516-4 0-2.516.313-3.375 1.438-3.375 1.172 0 1.484 1.03 1.484 3.906zm0 0"/></svg><svg overflow="visible" x="93.527" y="46.198"><path d="M5.125-.094v-.484l-.75-.047c-.656-.031-.64-.031-.64-.656v-7.172l-.313-.125c-.875.469-1.61.781-2.86 1.219l.125.718h.235l1.547-.687.031-.016c.063 0-.047-.015-.047.266v5.797c0 .625.016.625-.64.656L1-.578v.625L3.125 0l2 .047zm0 0"/></svg><svg overflow="visible" x="99.509" y="15.637"><path d="M4.656-.125v-14.656H.953c.078.203.094.297.094.375 0 .094-.016.172-.094.375h2.469V0h1.234zm0 0"/></svg><svg overflow="visible" x="99.509" y="24.863"><path d="M4.656-.125v-9.813H3.422V0h1.234zm0 0"/></svg><g><svg overflow="visible" x="99.509" y="33.984"><path d="M4.656-.125v-9.813H3.422V0h1.234zm0 0"/></svg></g><g><svg overflow="visible" x="99.509" y="48.041"><path d="M4.656-.125v-14.656H3.422V-.734H.953c.078.203.094.28.094.359 0 .094-.016.172-.094.375h3.703zm0 0"/></svg></g></svg>