<svg xmlns="http://www.w3.org/2000/svg" xmlns:xlink="http://www.w3.org/1999/xlink" width="477px" height="57px" viewBox="0 0 358 43"><defs><symbol overflow="visible" id="a"><path d="M8.61-8.094c0-.125-.313-.265-.516-.265h-6.64c-.282 0-.5.14-.579.375l-.75 2.171c.078-.14.297.25.297.25l-.344-.109c0 .078.266.266.36.266.109 0 .312-.188.39-.375.64-1.86.766-1.938 2.531-1.938h.47c.327 0 .124-.093.124.016 0 .062-.031.203-.047.25L2.312-1.078c-.109.437.047.437-1.218.437-.438 0-.719.141-.719.36 0 .156.344.281.406.281.328 0 .672-.031.985-.031H3.78c.344 0 .703.031 1.031.031.125 0 .454-.125.454-.375 0-.125-.282-.266-.594-.266-.297 0-.453 0-.766-.015-.344-.031-.25.062-.25-.125l-.062.094s.062-.172.11-.36L5.296-7.39c.078-.328-.063-.265.078-.312.11-.016.5-.016.75-.016 1.219 0 1.547-.093 1.547.844a8.8 8.8 0 01-.094.953 1.387 1.387 0 00-.031.234c0 .063.234.282.344.282.125 0 .343-.219.375-.407l.312-2.078c.016-.046.031-.171.031-.203zm0 0"/></symbol><symbol overflow="visible" id="c"><path d="M8.828-4.281c0-.125-.312-.375-.437-.375H.906c-.125 0-.437.25-.437.375 0 .14.312.375.437.375h7.485c.125 0 .437-.235.437-.375zm0 2.328c0-.14-.312-.375-.437-.375H.906c-.125 0-.437.234-.437.375 0 .125.312.36.437.36h7.485c.125 0 .437-.235.437-.36zm0 0"/></symbol><symbol overflow="visible" id="d"><path d="M7.922-17.703c0-.203-.344-.485-.547-.485H3.641V0H4.75v-17.219h2.625c.203 0 .547-.281.547-.484zm0 0"/></symbol><symbol overflow="visible" id="e"><path d="M4.75-.125v-12.094H3.64V0h1.11zm0 0"/></symbol><symbol overflow="visible" id="f"><path d="M7.922-.484c0-.204-.344-.5-.547-.5H4.75v-17.203H3.64V0h3.735c.203 0 .547-.281.547-.484zm0 0"/></symbol><symbol overflow="visible" id="g"><path d="M5.688-3.953c0-.953-.063-1.922-.47-2.797-.562-1.156-1.734-1.469-2.234-1.469-.718 0-1.796.438-2.28 1.547-.376.828-.438 1.766-.438 2.719 0 .89.109 2.062.593 2.969.516.968 1.532 1.25 2.11 1.25.656 0 1.75-.391 2.281-1.516.375-.828.438-1.766.438-2.703zm-1.391-.14c0 .89 0 1.702-.125 2.468C4-.485 3.516-.265 2.969-.265 2.516-.266 2-.438 1.78-1.579c-.125-.719-.125-1.813-.125-2.516 0-.765 0-1.562.094-2.203.219-1.422.922-1.406 1.219-1.406.406 0 .984.094 1.219 1.266.109.671.109 1.578.109 2.343zm0 0"/></symbol><symbol overflow="visible" id="h"><path d="M5.203-.125v-.516h-.578c-1.078 0-.922 0-.922-.437v-6.703c0-.282-.187-.438-.578-.438-.766.797-1.672.766-2.266.766v.625c.438 0 1.282-.031 1.563-.172v5.922c0 .437.172.437-.906.437H.937v.672C1.547-.03 2.595-.03 3.079-.03c.469 0 1.516 0 2.125.062zm0 0"/></symbol><symbol overflow="visible" id="i"><path d="M8.828-3.125c0-.125-.312-.36-.437-.36H.906c-.125 0-.437.235-.437.36 0 .14.312.375.437.375h7.485c.125 0 .437-.234.437-.375zm0 0"/></symbol><symbol overflow="visible" id="j"><path d="M9.203-6.484c0-.922-.984-1.938-2.547-1.938H2.781c-.219 0-.562.125-.562.36 0 .14.312.265.547.265.156 0 .375.016.515.031.203.016.063-.078.063.063 0 .047-.016.078-.047.219L1.703-1.063c-.125.47.047.422-.89.422C.609-.64.28-.5.28-.28c0 .156.344.281.375.281l1.516-.031h.765c.266 0 .532.031.782.031.078 0 .422-.125.422-.375 0-.125-.297-.266-.516-.266-.453 0-.594.141-.594-.078 0-.062.031-.125.047-.203l.703-2.86h1.875c1.688 0 3.547-1.374 3.547-2.702zm-1.5-.297c0 .468-.187 1.406-.656 1.828-.594.547-1.172.61-1.688.61H3.891l.78-3.126c.11-.422-.062-.328.454-.328h1.156c.985 0 1.422.188 1.422 1.016zm0 0"/></symbol><symbol overflow="visible" id="m"><path d="M4.328-.125v-18.063H.594c-.203 0-.563.282-.563.485s.36.484.563.484h2.625V0h1.11zm0 0"/></symbol><symbol overflow="visible" id="n"><path d="M4.14-12.219H3.22V0h1.11v-12.219zm0 0"/></symbol><symbol overflow="visible" id="o"><path d="M4.328-.125v-18.063h-1.11V-.983H.595c-.203 0-.563.296-.563.5 0 .203.36.484.563.484h3.734zm0 0"/></symbol><symbol overflow="visible" id="p"><path d="M2.484-3.125c0-.344-.468-.766-.828-.766-.343 0-.828.422-.828.766 0 .36.485.766.828.766.36 0 .828-.407.828-.766zm0 0"/></symbol><symbol overflow="visible" id="q"><path d="M6.484-4.625c0-.625-.89-.922-1.296-.922-.688 0-1.25.672-1.235.61-.125-.36-.969-.61-1.312-.61-1.235 0-2.125 1.672-2.125 1.969 0 .125.468.219.468.219l-.125.03c.094 0 .329-.155.344-.25.406-1.28 1.016-1.437 1.422-1.437.219 0 .438-.03.438.672 0 .36-.204 1.172-.641 2.844-.203.734-.406 1.11-.938 1.11-.078 0-.218.03-.218.03-.079.016.375-.374.375-.703 0-.328-.454-.546-.641-.546-.36 0-.86.437-.86.828 0 .547.797.906 1.329.906.797 0 1.36-.86 1.39-.938l-.343-.093c.156.437.78 1.031 1.5 1.031 1.234 0 2.109-1.672 2.109-1.969 0-.11-.297-.25-.344-.25-.11 0-.328.188-.36.266-.39 1.281-1 1.437-1.374 1.437-.469 0-.469-.25-.469-.656 0-.266.063-.531.203-1.062l.406-1.625c.063-.313.157-1.282.985-1.282a.604.604 0 00.187-.046c.079 0-.359.421-.359.718 0 .188.328.547.656.547.266 0 .828-.344.828-.828zm0 0"/></symbol><symbol overflow="visible" id="r"><path d="M6.047-4.953c0-.219-.36-.469-.531-.469-.125 0-.454.11-.641.406-.016.047-.11.407-.156.625l-.235.954-.546 2.156c-.047.187-.36.89-1.141.89-.61 0-.547-.39-.547-.843 0-.547.203-1.282.61-2.344.187-.485.234-.625.234-.86 0-.53-.578-1.109-1.172-1.109C.782-5.547.14-3.687.14-3.578c0 .125.484.219.484.219l-.14.03c.124 0 .328-.155.39-.343.313-1.125.61-1.344 1.016-1.344.093 0 .093-.14.093.25 0 .297-.125.61-.203.829-.484 1.265-.687 1.953-.687 2.515 0 1.063.953 1.547 1.656 1.547.469 0 1-.234 1.344-.563L3.75-.53c-.156.61-.234 1.11-.719 1.734-.312.406-.61.719-1.172.719-.156 0-.515.094-.656-.234-.062 0 .234-.032.406-.188.11-.094.297-.36.297-.578 0-.375-.515-.547-.64-.547-.282 0-.875.313-.875.906 0 .594.734 1.172 1.468 1.172 1.235 0 2.657-1.219 3-2.578L6-4.688c.047-.171.047-.187.047-.265zm0 0"/></symbol><symbol overflow="visible" id="s"><path d="M8.828-3.125c0-.125-.312-.36-.437-.36H5.078v-3.374c0-.141-.297-.375-.422-.375-.14 0-.453.234-.453.375v3.375H.906c-.125 0-.437.234-.437.359 0 .14.312.375.437.375h3.297V.625c0 .125.313.36.453.36.125 0 .422-.235.422-.36V-2.75h3.313c.125 0 .437-.234.437-.375zm0 0"/></symbol><symbol overflow="visible" id="b"><path d="M4.172-.156v-.469H3.64c-.829 0-.625.063-.625-.219v-4.64c0-.235-.235-.391-.563-.391-.578.578-1.203.531-1.75.531v.625c.406 0 1.11-.047 1.219-.11v3.985c0 .281.203.219-.625.219H.766v.64L2.469-.03l1.703.047zm0 0"/></symbol><symbol overflow="visible" id="k"><path d="M5.094-3.234c0-.47-.75-.782-1.078-.782-.422 0-.907.329-.922.344.031.078-.563-.344-1.031-.344C1.125-4.016.39-2.828.39-2.578c0 .11.328.281.343.281.11 0 .329-.203.375-.312.204-.657.532-.844.938-.844.265 0 .297-.016.297.39 0 .172-.11.579-.188.876l-.281 1.14c-.078.281-.156.578-.578.578-.031 0-.125.047-.078.078-.032.016.203-.453.203-.5 0-.187-.344-.468-.547-.468-.234 0-.688.359-.688.671 0 .422.688.766 1.094.766.39 0 .875-.281.907-.344.03.047.687.344 1.03.344.954 0 1.688-1.203 1.688-1.437 0-.11-.328-.266-.343-.266-.125 0-.344.203-.375.297-.172.578-.47.86-.938.86-.328 0-.297-.063-.297-.391 0-.22.203-.97.438-1.907.156-.64.328-.687.609-.687l.14-.047s-.015 0-.093-.047c.125-.031-.172.36-.172.5 0 .188.344.469.531.469.203 0 .688-.313.688-.656zm0 0"/></symbol><symbol overflow="visible" id="l"><path d="M4.906-3.5c0-.172-.343-.422-.5-.422-.078 0-.39.094-.484.25a3.37 3.37 0 00-.188.594l-.187.687-.328 1.36.344.11S3.046-.47 2.39-.47c-.563 0-.36-.39-.36-.531 0-.453.203-.984.453-1.625.094-.266.141-.375.141-.516 0-.406-.563-.875-1.016-.875-.843 0-1.421 1.297-1.421 1.438 0 .11.328.281.343.281.125 0 .344-.203.36-.297.218-.703.359-.86.703-.86.14 0 0-.077 0 .126s-.078.375-.125.484C1.079-1.813.984-1.5.984-1.14c0 .141.063.657.391.922.266.219.766.297.984.297.344 0 .782-.156 1.063-.406l-.36-.125c-.109.469-.14.703-.484 1.125-.234.25-.422.484-.86.484-.062 0-.312.047-.343.016.172-.031.313-.484.313-.484l.062-.11c0-.265-.453-.484-.531-.484C1 .094.516.422.516.813c0 .421.609.89 1.203.89.86 0 2.093-.812 2.343-1.86l.797-3.155c.047-.126.047-.141.047-.188zm0 0"/></symbol></defs><use xlink:href="#a" x=".705" y="24.479"/><use xlink:href="#b" x="7.686" y="27.432"/><use xlink:href="#c" x="16.268" y="24.479"/><use xlink:href="#d" x="28.89" y="18.83"/><use xlink:href="#e" x="28.89" y="27.468"/><use xlink:href="#f" x="28.89" y="42.083"/><use xlink:href="#g" x="41.845" y="8.745"/><use xlink:href="#h" x="47.823" y="8.745"/><use xlink:href="#g" x="63.759" y="8.745"/><use xlink:href="#i" x="79.695" y="8.745"/><use xlink:href="#j" x="88.996" y="8.745"/><use xlink:href="#b" x="96.68" y="11.698"/><use xlink:href="#k" x="101.94" y="13.372"/><use xlink:href="#g" x="44.834" y="23.567"/><use xlink:href="#h" x="63.759" y="23.567"/><use xlink:href="#i" x="79.946" y="23.567"/><use xlink:href="#j" x="89.248" y="23.567"/><use xlink:href="#b" x="96.931" y="26.521"/><use xlink:href="#l" x="102.191" y="28.194"/><use xlink:href="#g" x="44.834" y="40.014"/><use xlink:href="#g" x="63.759" y="40.014"/><use xlink:href="#h" x="90.79" y="40.014"/><use xlink:href="#m" x="112.842" y="18.83"/><use xlink:href="#n" x="112.842" y="27.468"/><use xlink:href="#o" x="112.842" y="42.083"/><use xlink:href="#p" x="123.473" y="24.479"/><use xlink:href="#d" x="129.453" y="19.905"/><use xlink:href="#e" x="129.453" y="27.468"/><use xlink:href="#f" x="129.453" y="41.008"/><use xlink:href="#q" x="137.428" y="9.933"/><use xlink:href="#r" x="137.75" y="24.379"/><use xlink:href="#h" x="137.858" y="38.825"/><use xlink:href="#m" x="144.266" y="19.905"/><use xlink:href="#n" x="144.266" y="27.468"/><use xlink:href="#o" x="144.266" y="41.008"/><use xlink:href="#c" x="155.561" y="24.479"/><use xlink:href="#d" x="168.183" y="18.83"/><use xlink:href="#e" x="168.183" y="27.468"/><use xlink:href="#f" x="168.183" y="42.083"/><use xlink:href="#h" x="176.158" y="8.745"/><use xlink:href="#p" x="184.79" y="8.745"/><use xlink:href="#q" x="190.767" y="8.745"/><use xlink:href="#s" x="200.26" y="8.745"/><use xlink:href="#g" x="212.215" y="8.745"/><use xlink:href="#p" x="220.858" y="8.745"/><use xlink:href="#r" x="226.836" y="8.745"/><use xlink:href="#i" x="235.683" y="8.745"/><use xlink:href="#j" x="247.638" y="8.745"/><use xlink:href="#b" x="255.324" y="11.698"/><use xlink:href="#k" x="260.584" y="13.372"/><use xlink:href="#p" x="269.162" y="8.745"/><use xlink:href="#h" x="275.14" y="8.745"/><use xlink:href="#g" x="176.409" y="23.567"/><use xlink:href="#p" x="185.041" y="23.567"/><use xlink:href="#q" x="191.018" y="23.567"/><use xlink:href="#s" x="200.511" y="23.567"/><use xlink:href="#h" x="212.466" y="23.567"/><use xlink:href="#p" x="221.109" y="23.567"/><use xlink:href="#r" x="227.087" y="23.567"/><use xlink:href="#i" x="235.934" y="23.567"/><use xlink:href="#j" x="247.889" y="23.567"/><use xlink:href="#b" x="255.575" y="26.521"/><use xlink:href="#l" x="260.835" y="28.195"/><use xlink:href="#p" x="268.911" y="23.567"/><use xlink:href="#h" x="274.889" y="23.567"/><use xlink:href="#g" x="182.597" y="40.014"/><use xlink:href="#p" x="191.229" y="40.014"/><use xlink:href="#q" x="197.206" y="40.014"/><use xlink:href="#s" x="206.699" y="40.014"/><use xlink:href="#g" x="218.654" y="40.014"/><use xlink:href="#p" x="227.297" y="40.014"/><use xlink:href="#r" x="233.275" y="40.014"/><use xlink:href="#s" x="242.122" y="40.014"/><use xlink:href="#h" x="254.077" y="40.014"/><use xlink:href="#p" x="262.721" y="40.014"/><use xlink:href="#h" x="268.698" y="40.014"/><use xlink:href="#m" x="281.12" y="18.83"/><use xlink:href="#n" x="281.12" y="27.468"/><use xlink:href="#o" x="281.12" y="42.083"/><use xlink:href="#c" x="292.415" y="24.479"/><use xlink:href="#d" x="305.038" y="18.83"/><use xlink:href="#e" x="305.038" y="27.468"/><use xlink:href="#f" x="305.038" y="42.083"/><use xlink:href="#q" x="313.012" y="8.745"/><use xlink:href="#i" x="322.504" y="8.745"/><use xlink:href="#j" x="334.46" y="8.745"/><use xlink:href="#b" x="342.14" y="11.698"/><use xlink:href="#k" x="347.4" y="13.372"/><use xlink:href="#r" x="313.586" y="23.567"/><use xlink:href="#i" x="322.433" y="23.567"/><use xlink:href="#j" x="334.388" y="23.567"/><use xlink:href="#b" x="342.069" y="26.521"/><use xlink:href="#l" x="347.329" y="28.195"/><use xlink:href="#h" x="330.178" y="40.014"/><g><use xlink:href="#m" x="353.321" y="18.83"/></g><g><use xlink:href="#n" x="353.321" y="27.468"/></g><g><use xlink:href="#o" x="353.321" y="42.083"/></g></svg>