<svg xmlns="http://www.w3.org/2000/svg" xmlns:xlink="http://www.w3.org/1999/xlink" width="800" height="65px" viewBox="0 0 600 49"><svg overflow="visible" x="-.181" y="26.858"><path d="M2.484-.766c0-.343-.468-.765-.828-.765-.343 0-.828.422-.828.765 0 .344.485.766.828.766.36 0 .828-.422.828-.766zm0 0"/></svg><svg overflow="visible" x="3.143" y="26.858"><path d="M2.484-.766c0-.343-.468-.765-.828-.765-.343 0-.828.422-.828.765 0 .344.485.766.828.766.36 0 .828-.422.828-.766zm0 0"/></svg><svg overflow="visible" x="6.466" y="26.858"><path d="M2.484-.766c0-.343-.468-.765-.828-.765-.343 0-.828.422-.828.765 0 .344.485.766.828.766.36 0 .828-.422.828-.766zm0 0"/></svg><svg overflow="visible" x="13.101" y="26.858"><path d="M8.828-4.281c0-.125-.312-.375-.437-.375H.906c-.125 0-.437.25-.437.375 0 .14.312.375.437.375h7.485c.125 0 .437-.235.437-.375zm0 2.328c0-.14-.312-.375-.437-.375H.906c-.125 0-.437.234-.437.375 0 .125.312.36.437.36h7.485c.125 0 .437-.235.437-.36zm0 0"/></svg><svg overflow="visible" x="25.733" y="19.868"><path d="M10.031-17.75c0-.125-.312-.39-.437-.39a.83.83 0 00-.297.093C6.094-15.64 3.109-8.984 3.109-3.125V0h1.61v-3.125c0-5.594 2.093-12.031 5.14-14.328a.486.486 0 00.172-.297zm0 0"/></svg><svg overflow="visible" x="25.733" y="24.803"><path d="M4.719-.125v-6.094h-1.61V0h1.61zm0 0"/></svg><svg overflow="visible" x="25.733" y="28.889"><path d="M4.719-.125v-6.094h-1.61V0h1.61zm0 0"/></svg><svg overflow="visible" x="25.733" y="45.743"><path d="M10.031-.375c0-.094-.094-.266-.172-.297-3.046-2.297-5.14-8.734-5.14-14.344v-3.125h-1.61v3.125c0 5.86 2.985 12.532 6.188 14.938.031.015.234.078.297.078.125 0 .437-.234.437-.375zm0 0"/></svg><svg overflow="visible" x="82.427" y="9.7"><path d="M6.484-4.625c0-.625-.89-.922-1.296-.922-.688 0-1.25.672-1.235.61-.125-.36-.969-.61-1.312-.61-1.235 0-2.125 1.672-2.125 1.969 0 .125.468.219.468.219l-.125.03c.094 0 .329-.155.344-.25.406-1.28 1.016-1.437 1.422-1.437.219 0 .438-.03.438.672 0 .36-.204 1.172-.641 2.844-.203.734-.406 1.11-.938 1.11-.078 0-.218.03-.218.03-.079.016.375-.374.375-.703 0-.328-.454-.546-.641-.546-.36 0-.86.437-.86.828 0 .547.797.906 1.329.906.797 0 1.36-.86 1.39-.938l-.343-.093c.156.437.78 1.031 1.5 1.031 1.234 0 2.109-1.672 2.109-1.969 0-.11-.297-.25-.344-.25-.11 0-.328.188-.36.266-.39 1.281-1 1.437-1.374 1.437-.469 0-.469-.25-.469-.656 0-.266.063-.531.203-1.062l.406-1.625c.063-.313.157-1.282.985-1.282a.604.604 0 00.187-.046c.079 0-.359.421-.359.718 0 .188.328.547.656.547.266 0 .828-.344.828-.828zm0 0"/></svg><svg overflow="visible" x="89.265" y="12.653"><path d="M4.64-1.531V-2h-.937v-3.563c0-.187-.203-.406-.39-.406-.094 0-.282.063-.36.172L.125-1.844v.469h2.453v.531c0 .281.203.219-.469.219h-.437v.64L3.14-.03l1.468.047v-.641h-.437c-.672 0-.469.063-.469-.219v-.531h.938zM2.845-2H.969l2.015-2.781-.343-.125V-2zm0 0"/></svg><svg overflow="visible" x="97.182" y="9.7"><path d="M8.828-3.125c0-.125-.312-.36-.437-.36H.906c-.125 0-.437.235-.437.36 0 .14.312.375.437.375h7.485c.125 0 .437-.234.437-.375zm0 0"/></svg><svg overflow="visible" x="110.336" y="4.07"><path d="M5.094-3.234c0-.47-.75-.782-1.078-.782-.422 0-.907.329-.922.344.031.078-.563-.344-1.031-.344C1.125-4.016.39-2.828.39-2.578c0 .11.328.281.343.281.11 0 .329-.203.375-.312.204-.657.532-.844.938-.844.265 0 .297-.016.297.39 0 .172-.11.579-.188.876l-.281 1.14c-.078.281-.156.578-.578.578-.031 0-.125.047-.078.078-.032.016.203-.453.203-.5 0-.187-.344-.468-.547-.468-.234 0-.688.359-.688.671 0 .422.688.766 1.094.766.39 0 .875-.281.907-.344.03.047.687.344 1.03.344.954 0 1.688-1.203 1.688-1.437 0-.11-.328-.266-.343-.266-.125 0-.344.203-.375.297-.172.578-.47.86-.938.86-.328 0-.297-.063-.297-.391 0-.22.203-.97.438-1.907.156-.64.328-.687.609-.687l.14-.047s-.015 0-.093-.047c.125-.031-.172.36-.172.5 0 .188.344.469.531.469.203 0 .688-.313.688-.656zm0 0"/></svg><svg overflow="visible" x="115.759" y="6.137"><path d="M3.531-1.516h-.437c-.047.297-.047.547-.14.594-.048.047-.407-.015-.5-.015H1.28l.14.312c.391-.297.845-.625 1.204-.875.531-.36 1.094-.844 1.094-1.469 0-.765-.922-1.375-1.781-1.375-.797 0-1.594.64-1.594 1.235 0 .312.469.546.547.546.156 0 .546-.296.546-.53 0-.22-.343-.516-.234-.5 0 0 .219-.126.61-.126.593 0 .875.172.875.75 0 .5-.297.766-.75 1.156L.468-.577a.397.397 0 00-.124.219V0H3.5l.25-1.516zm0 0"/></svg><svg overflow="visible" x="120.328" y="4.069"><path d="M1.813-2.25c0-.25-.407-.61-.641-.61-.25 0-.656.36-.656.61 0 .234.406.594.656.594.234 0 .64-.36.64-.594zm0 0"/></svg><svg overflow="visible" x="122.654" y="4.069"><path d="M4.906-3.5c0-.172-.343-.422-.5-.422-.078 0-.39.094-.484.25a3.37 3.37 0 00-.188.594l-.187.687-.328 1.36.344.11S3.046-.47 2.39-.47c-.563 0-.36-.39-.36-.531 0-.453.203-.984.453-1.625.094-.266.141-.375.141-.516 0-.406-.563-.875-1.016-.875-.843 0-1.421 1.297-1.421 1.438 0 .11.328.281.343.281.125 0 .344-.203.36-.297.218-.703.359-.86.703-.86.14 0 0-.077 0 .126s-.078.375-.125.484C1.079-1.813.984-1.5.984-1.14c0 .141.063.657.391.922.266.219.766.297.984.297.344 0 .782-.156 1.063-.406l-.36-.125c-.109.469-.14.703-.484 1.125-.234.25-.422.484-.86.484-.062 0-.312.047-.343.016.172-.031.313-.484.313-.484l.062-.11c0-.265-.453-.484-.531-.484C1 .094.516.422.516.813c0 .421.609.89 1.203.89.86 0 2.093-.812 2.343-1.86l.797-3.155c.047-.126.047-.141.047-.188zm0 0"/></svg><svg overflow="visible" x="127.5" y="6.137"><path d="M3.89-1.156v-.438h-.75v-2.453c0-.14-.203-.36-.359-.36a.457.457 0 00-.328.141L.172-1.469v.5h2v.281c0 .188.203.063-.328.063h-.407V0l1.22-.031L3.874 0v-.625h-.406c-.531 0-.328.125-.328-.063v-.28h.75zm-1.468-.438H1.047l1.516-1.86-.344-.124v1.984zm0 0"/></svg><path d="M110.336 6.71h21.73" fill="none" stroke-width=".478" stroke="#000" stroke-miterlimit="10"/><svg overflow="visible" x="116.495" y="13.825"><path d="M4.906-3.5c0-.172-.343-.422-.5-.422-.078 0-.39.094-.484.25a3.37 3.37 0 00-.188.594l-.187.687-.328 1.36.344.11S3.046-.47 2.39-.47c-.563 0-.36-.39-.36-.531 0-.453.203-.984.453-1.625.094-.266.141-.375.141-.516 0-.406-.563-.875-1.016-.875-.843 0-1.421 1.297-1.421 1.438 0 .11.328.281.343.281.125 0 .344-.203.36-.297.218-.703.359-.86.703-.86.14 0 0-.077 0 .126s-.078.375-.125.484C1.079-1.813.984-1.5.984-1.14c0 .141.063.657.391.922.266.219.766.297.984.297.344 0 .782-.156 1.063-.406l-.36-.125c-.109.469-.14.703-.484 1.125-.234.25-.422.484-.86.484-.062 0-.312.047-.343.016.172-.031.313-.484.313-.484l.062-.11c0-.265-.453-.484-.531-.484C1 .094.516.422.516.813c0 .421.609.89 1.203.89.86 0 2.093-.812 2.343-1.86l.797-3.155c.047-.126.047-.141.047-.188zm0 0"/></svg><svg overflow="visible" x="121.34" y="15.892"><path d="M3.531-1.516h-.437c-.047.297-.047.547-.14.594-.048.047-.407-.015-.5-.015H1.28l.14.312c.391-.297.845-.625 1.204-.875.531-.36 1.094-.844 1.094-1.469 0-.765-.922-1.375-1.781-1.375-.797 0-1.594.64-1.594 1.235 0 .312.469.546.547.546.156 0 .546-.296.546-.53 0-.22-.343-.516-.234-.5 0 0 .219-.126.61-.126.593 0 .875.172.875.75 0 .5-.297.766-.75 1.156L.468-.577a.397.397 0 00-.124.219V0H3.5l.25-1.516zm0 0"/></svg><svg overflow="visible" x="133.264" y="9.7"><path d="M5.516-8.86c0-.124-.297-.374-.438-.374-.11 0-.39.203-.422.296L.438 2.626c.093-.156.03-.031.03 0 0 .125.313.36.438.36.11 0 .39-.188.422-.282L5.531-8.859c-.078.156-.015.03-.015 0zm0 0"/></svg><svg overflow="visible" x="139.242" y="9.7"><path d="M6.484-4.625c0-.625-.89-.922-1.296-.922-.688 0-1.25.672-1.235.61-.125-.36-.969-.61-1.312-.61-1.235 0-2.125 1.672-2.125 1.969 0 .125.468.219.468.219l-.125.03c.094 0 .329-.155.344-.25.406-1.28 1.016-1.437 1.422-1.437.219 0 .438-.03.438.672 0 .36-.204 1.172-.641 2.844-.203.734-.406 1.11-.938 1.11-.078 0-.218.03-.218.03-.079.016.375-.374.375-.703 0-.328-.454-.546-.641-.546-.36 0-.86.437-.86.828 0 .547.797.906 1.329.906.797 0 1.36-.86 1.39-.938l-.343-.093c.156.437.78 1.031 1.5 1.031 1.234 0 2.109-1.672 2.109-1.969 0-.11-.297-.25-.344-.25-.11 0-.328.188-.36.266-.39 1.281-1 1.437-1.374 1.437-.469 0-.469-.25-.469-.656 0-.266.063-.531.203-1.062l.406-1.625c.063-.313.157-1.282.985-1.282a.604.604 0 00.187-.046c.079 0-.359.421-.359.718 0 .188.328.547.656.547.266 0 .828-.344.828-.828zm0 0"/></svg><svg overflow="visible" x="146.08" y="12.653"><path d="M4.516-1.61c0-.656-.75-1.468-1.672-1.656v.313c.89-.313 1.406-1.094 1.406-1.61 0-.656-.969-1.312-1.89-1.312-.938 0-1.86.61-1.86 1.281 0 .282.39.594.64.594.266 0 .641-.344.641-.578 0-.25-.375-.578-.297-.578.094-.11.532-.157.844-.157.375 0 .688.016.688.75 0 .344-.047.625-.266.891-.281.313-.36.281-.781.313-.203.015-.235.015-.266.015l.14.281s-.437-.109-.437-.015c0 .125.282.281.422.281h.453c.656 0 .922.297.922 1.188 0 1.046-.39 1.187-.89 1.187-.329 0-.922-.031-1.094-.266.078-.015.375-.453.375-.625 0-.265-.407-.625-.672-.625-.235 0-.672.297-.672.641C.25-.5 1.328.172 2.344.172 3.5.172 4.516-.766 4.516-1.61zm0 0"/></svg><svg overflow="visible" x="153.997" y="9.7"><path d="M8.828-3.125c0-.125-.312-.36-.437-.36H.906c-.125 0-.437.235-.437.36 0 .14.312.375.437.375h7.485c.125 0 .437-.234.437-.375zm0 0"/></svg><svg overflow="visible" x="167.15" y="3.938"><path d="M5.094-3.234c0-.47-.75-.782-1.078-.782-.422 0-.907.329-.922.344.031.078-.563-.344-1.031-.344C1.125-4.016.39-2.828.39-2.578c0 .11.328.281.343.281.11 0 .329-.203.375-.312.204-.657.532-.844.938-.844.265 0 .297-.016.297.39 0 .172-.11.579-.188.876l-.281 1.14c-.078.281-.156.578-.578.578-.031 0-.125.047-.078.078-.032.016.203-.453.203-.5 0-.187-.344-.468-.547-.468-.234 0-.688.359-.688.671 0 .422.688.766 1.094.766.39 0 .875-.281.907-.344.03.047.687.344 1.03.344.954 0 1.688-1.203 1.688-1.437 0-.11-.328-.266-.343-.266-.125 0-.344.203-.375.297-.172.578-.47.86-.938.86-.328 0-.297-.063-.297-.391 0-.22.203-.97.438-1.907.156-.64.328-.687.609-.687l.14-.047s-.015 0-.093-.047c.125-.031-.172.36-.172.5 0 .188.344.469.531.469.203 0 .688-.313.688-.656zm0 0"/></svg><svg overflow="visible" x="172.573" y="6.005"><path d="M3.531-1.516h-.437c-.047.297-.047.547-.14.594-.048.047-.407-.015-.5-.015H1.28l.14.312c.391-.297.845-.625 1.204-.875.531-.36 1.094-.844 1.094-1.469 0-.765-.922-1.375-1.781-1.375-.797 0-1.594.64-1.594 1.235 0 .312.469.546.547.546.156 0 .546-.296.546-.53 0-.22-.343-.516-.234-.5 0 0 .219-.126.61-.126.593 0 .875.172.875.75 0 .5-.297.766-.75 1.156L.468-.577a.397.397 0 00-.124.219V0H3.5l.25-1.516zm0 0"/></svg><svg overflow="visible" x="177.142" y="3.938"><path d="M1.813-2.25c0-.25-.407-.61-.641-.61-.25 0-.656.36-.656.61 0 .234.406.594.656.594.234 0 .64-.36.64-.594zm0 0"/></svg><svg overflow="visible" x="179.468" y="3.938"><path d="M4.906-3.5c0-.172-.343-.422-.5-.422-.078 0-.39.094-.484.25a3.37 3.37 0 00-.188.594l-.187.687-.328 1.36.344.11S3.046-.47 2.39-.47c-.563 0-.36-.39-.36-.531 0-.453.203-.984.453-1.625.094-.266.141-.375.141-.516 0-.406-.563-.875-1.016-.875-.843 0-1.421 1.297-1.421 1.438 0 .11.328.281.343.281.125 0 .344-.203.36-.297.218-.703.359-.86.703-.86.14 0 0-.077 0 .126s-.078.375-.125.484C1.079-1.813.984-1.5.984-1.14c0 .141.063.657.391.922.266.219.766.297.984.297.344 0 .782-.156 1.063-.406l-.36-.125c-.109.469-.14.703-.484 1.125-.234.25-.422.484-.86.484-.062 0-.312.047-.343.016.172-.031.313-.484.313-.484l.062-.11c0-.265-.453-.484-.531-.484C1 .094.516.422.516.813c0 .421.609.89 1.203.89.86 0 2.093-.812 2.343-1.86l.797-3.155c.047-.126.047-.141.047-.188zm0 0"/></svg><svg overflow="visible" x="184.314" y="6.005"><path d="M3.781-1.219c0-.5-.625-1.093-1.312-1.25v.36c.719-.235 1.11-.86 1.11-1.204 0-.484-.813-1.03-1.563-1.03-.735 0-1.532.484-1.532 1.03 0 .282.438.532.547.532.172 0 .532-.313.532-.516 0-.14-.266-.484-.11-.469.031-.03.422 0 .547 0 .438 0 .547.047.547.454 0 .343-.031.718-.656.75-.172 0-.188.015-.344.015-.063.016-.344.188-.344.281 0 .11.266.282.375.282h.39c.563 0 .72.171.72.75 0 .625-.172.765-.704.765-.062 0-.64.047-.703-.015-.14.03.125-.344.125-.485 0-.219-.36-.547-.562-.547-.188 0-.563.313-.563.563C.281-.328 1.187.125 2 .125c.984 0 1.781-.766 1.781-1.344zm0 0"/></svg><path d="M167.148 6.71h21.735" fill="none" stroke-width=".478" stroke="#000" stroke-miterlimit="10"/><svg overflow="visible" x="173.309" y="13.825"><path d="M4.906-3.5c0-.172-.343-.422-.5-.422-.078 0-.39.094-.484.25a3.37 3.37 0 00-.188.594l-.187.687-.328 1.36.344.11S3.046-.47 2.39-.47c-.563 0-.36-.39-.36-.531 0-.453.203-.984.453-1.625.094-.266.141-.375.141-.516 0-.406-.563-.875-1.016-.875-.843 0-1.421 1.297-1.421 1.438 0 .11.328.281.343.281.125 0 .344-.203.36-.297.218-.703.359-.86.703-.86.14 0 0-.077 0 .126s-.078.375-.125.484C1.079-1.813.984-1.5.984-1.14c0 .141.063.657.391.922.266.219.766.297.984.297.344 0 .782-.156 1.063-.406l-.36-.125c-.109.469-.14.703-.484 1.125-.234.25-.422.484-.86.484-.062 0-.312.047-.343.016.172-.031.313-.484.313-.484l.062-.11c0-.265-.453-.484-.531-.484C1 .094.516.422.516.813c0 .421.609.89 1.203.89.86 0 2.093-.812 2.343-1.86l.797-3.155c.047-.126.047-.141.047-.188zm0 0"/></svg><svg overflow="visible" x="178.155" y="15.892"><path d="M3.531-1.516h-.437c-.047.297-.047.547-.14.594-.048.047-.407-.015-.5-.015H1.28l.14.312c.391-.297.845-.625 1.204-.875.531-.36 1.094-.844 1.094-1.469 0-.765-.922-1.375-1.781-1.375-.797 0-1.594.64-1.594 1.235 0 .312.469.546.547.546.156 0 .546-.296.546-.53 0-.22-.343-.516-.234-.5 0 0 .219-.126.61-.126.593 0 .875.172.875.75 0 .5-.297.766-.75 1.156L.468-.577a.397.397 0 00-.124.219V0H3.5l.25-1.516zm0 0"/></svg><svg overflow="visible" x="37.39" y="36.328"><path d="M4.906-3.5c0-.172-.343-.422-.5-.422-.078 0-.39.094-.484.25a3.37 3.37 0 00-.188.594l-.187.687-.328 1.36.344.11S3.046-.47 2.39-.47c-.563 0-.36-.39-.36-.531 0-.453.203-.984.453-1.625.094-.266.141-.375.141-.516 0-.406-.563-.875-1.016-.875-.843 0-1.421 1.297-1.421 1.438 0 .11.328.281.343.281.125 0 .344-.203.36-.297.218-.703.359-.86.703-.86.14 0 0-.077 0 .126s-.078.375-.125.484C1.079-1.813.984-1.5.984-1.14c0 .141.063.657.391.922.266.219.766.297.984.297.344 0 .782-.156 1.063-.406l-.36-.125c-.109.469-.14.703-.484 1.125-.234.25-.422.484-.86.484-.062 0-.312.047-.343.016.172-.031.313-.484.313-.484l.062-.11c0-.265-.453-.484-.531-.484C1 .094.516.422.516.813c0 .421.609.89 1.203.89.86 0 2.093-.812 2.343-1.86l.797-3.155c.047-.126.047-.141.047-.188zm0 0"/></svg><svg overflow="visible" x="42.235" y="38.396"><path d="M3.89-1.156v-.438h-.75v-2.453c0-.14-.203-.36-.359-.36a.457.457 0 00-.328.141L.172-1.469v.5h2v.281c0 .188.203.063-.328.063h-.407V0l1.22-.031L3.874 0v-.625h-.406c-.531 0-.328.125-.328-.063v-.28h.75zm-1.468-.438H1.047l1.516-1.86-.344-.124v1.984zm0 0"/></svg><path d="M37.39 38.969h9.415" fill="none" stroke-width=".478" stroke="#000" stroke-miterlimit="10"/><svg overflow="visible" x="37.39" y="46.083"><path d="M4.906-3.5c0-.172-.343-.422-.5-.422-.078 0-.39.094-.484.25a3.37 3.37 0 00-.188.594l-.187.687-.328 1.36.344.11S3.046-.47 2.39-.47c-.563 0-.36-.39-.36-.531 0-.453.203-.984.453-1.625.094-.266.141-.375.141-.516 0-.406-.563-.875-1.016-.875-.843 0-1.421 1.297-1.421 1.438 0 .11.328.281.343.281.125 0 .344-.203.36-.297.218-.703.359-.86.703-.86.14 0 0-.077 0 .126s-.078.375-.125.484C1.079-1.813.984-1.5.984-1.14c0 .141.063.657.391.922.266.219.766.297.984.297.344 0 .782-.156 1.063-.406l-.36-.125c-.109.469-.14.703-.484 1.125-.234.25-.422.484-.86.484-.062 0-.312.047-.343.016.172-.031.313-.484.313-.484l.062-.11c0-.265-.453-.484-.531-.484C1 .094.516.422.516.813c0 .421.609.89 1.203.89.86 0 2.093-.812 2.343-1.86l.797-3.155c.047-.126.047-.141.047-.188zm0 0"/></svg><svg overflow="visible" x="42.235" y="48.151"><path d="M3.531-1.516h-.437c-.047.297-.047.547-.14.594-.048.047-.407-.015-.5-.015H1.28l.14.312c.391-.297.845-.625 1.204-.875.531-.36 1.094-.844 1.094-1.469 0-.765-.922-1.375-1.781-1.375-.797 0-1.594.64-1.594 1.235 0 .312.469.546.547.546.156 0 .546-.296.546-.53 0-.22-.343-.516-.234-.5 0 0 .219-.126.61-.126.593 0 .875.172.875.75 0 .5-.297.766-.75 1.156L.468-.577a.397.397 0 00-.124.219V0H3.5l.25-1.516zm0 0"/></svg><svg overflow="visible" x="50.656" y="41.958"><path d="M8.828-3.125c0-.125-.312-.36-.437-.36H5.078v-3.374c0-.141-.297-.375-.422-.375-.14 0-.453.234-.453.375v3.375H.906c-.125 0-.437.234-.437.359 0 .14.312.375.437.375h3.297V.625c0 .125.313.36.453.36.125 0 .422-.235.422-.36V-2.75h3.313c.125 0 .437-.234.437-.375zm0 0"/></svg><svg overflow="visible" x="62.611" y="41.958"><path d="M5.703 5.36c0-.048-.078-.204-.125-.22-1.672-1.25-2.75-4.484-2.75-7.234V-4.14c0-2.75 1.078-5.984 2.75-7.234a.445.445 0 00.125-.219c0-.078-.266-.281-.344-.281a1.17 1.17 0 00-.25.063c-1.75 1.328-3.453 4.765-3.453 7.671v2.047C1.656.812 3.36 4.25 5.11 5.562a.67.67 0 00.25.079c.079 0 .344-.204.344-.282zm0 0"/></svg><svg overflow="visible" x="68.864" y="41.958"><path d="M5.203-.125v-.516h-.578c-1.078 0-.922 0-.922-.437v-6.703c0-.282-.187-.438-.578-.438-.766.797-1.672.766-2.266.766v.625c.438 0 1.282-.031 1.563-.172v5.922c0 .437.172.437-.906.437H.937v.672C1.547-.03 2.595-.03 3.079-.03c.469 0 1.516 0 2.125.062zm0 0"/></svg><svg overflow="visible" x="77.495" y="41.958"><path d="M8.828-3.125c0-.125-.312-.36-.437-.36H.906c-.125 0-.437.235-.437.36 0 .14.312.375.437.375h7.485c.125 0 .437-.234.437-.375zm0 0"/></svg><svg overflow="visible" x="90.655" y="36.197"><path d="M4.906-3.5c0-.172-.343-.422-.5-.422-.078 0-.39.094-.484.25a3.37 3.37 0 00-.188.594l-.187.687-.328 1.36.344.11S3.046-.47 2.39-.47c-.563 0-.36-.39-.36-.531 0-.453.203-.984.453-1.625.094-.266.141-.375.141-.516 0-.406-.563-.875-1.016-.875-.843 0-1.421 1.297-1.421 1.438 0 .11.328.281.343.281.125 0 .344-.203.36-.297.218-.703.359-.86.703-.86.14 0 0-.077 0 .126s-.078.375-.125.484C1.079-1.813.984-1.5.984-1.14c0 .141.063.657.391.922.266.219.766.297.984.297.344 0 .782-.156 1.063-.406l-.36-.125c-.109.469-.14.703-.484 1.125-.234.25-.422.484-.86.484-.062 0-.312.047-.343.016.172-.031.313-.484.313-.484l.062-.11c0-.265-.453-.484-.531-.484C1 .094.516.422.516.813c0 .421.609.89 1.203.89.86 0 2.093-.812 2.343-1.86l.797-3.155c.047-.126.047-.141.047-.188zm0 0"/></svg><svg overflow="visible" x="95.501" y="38.264"><path d="M3.781-1.219c0-.5-.625-1.093-1.312-1.25v.36c.719-.235 1.11-.86 1.11-1.204 0-.484-.813-1.03-1.563-1.03-.735 0-1.532.484-1.532 1.03 0 .282.438.532.547.532.172 0 .532-.313.532-.516 0-.14-.266-.484-.11-.469.031-.03.422 0 .547 0 .438 0 .547.047.547.454 0 .343-.031.718-.656.75-.172 0-.188.015-.344.015-.063.016-.344.188-.344.281 0 .11.266.282.375.282h.39c.563 0 .72.171.72.75 0 .625-.172.765-.704.765-.062 0-.64.047-.703-.015-.14.03.125-.344.125-.485 0-.219-.36-.547-.562-.547-.188 0-.563.313-.563.563C.281-.328 1.187.125 2 .125c.984 0 1.781-.766 1.781-1.344zm0 0"/></svg><path d="M90.656 38.969h9.414" fill="none" stroke-width=".478" stroke="#000" stroke-miterlimit="10"/><svg overflow="visible" x="90.655" y="46.083"><path d="M4.906-3.5c0-.172-.343-.422-.5-.422-.078 0-.39.094-.484.25a3.37 3.37 0 00-.188.594l-.187.687-.328 1.36.344.11S3.046-.47 2.39-.47c-.563 0-.36-.39-.36-.531 0-.453.203-.984.453-1.625.094-.266.141-.375.141-.516 0-.406-.563-.875-1.016-.875-.843 0-1.421 1.297-1.421 1.438 0 .11.328.281.343.281.125 0 .344-.203.36-.297.218-.703.359-.86.703-.86.14 0 0-.077 0 .126s-.078.375-.125.484C1.079-1.813.984-1.5.984-1.14c0 .141.063.657.391.922.266.219.766.297.984.297.344 0 .782-.156 1.063-.406l-.36-.125c-.109.469-.14.703-.484 1.125-.234.25-.422.484-.86.484-.062 0-.312.047-.343.016.172-.031.313-.484.313-.484l.062-.11c0-.265-.453-.484-.531-.484C1 .094.516.422.516.813c0 .421.609.89 1.203.89.86 0 2.093-.812 2.343-1.86l.797-3.155c.047-.126.047-.141.047-.188zm0 0"/></svg><svg overflow="visible" x="95.501" y="48.151"><path d="M3.531-1.516h-.437c-.047.297-.047.547-.14.594-.048.047-.407-.015-.5-.015H1.28l.14.312c.391-.297.845-.625 1.204-.875.531-.36 1.094-.844 1.094-1.469 0-.765-.922-1.375-1.781-1.375-.797 0-1.594.64-1.594 1.235 0 .312.469.546.547.546.156 0 .546-.296.546-.53 0-.22-.343-.516-.234-.5 0 0 .219-.126.61-.126.593 0 .875.172.875.75 0 .5-.297.766-.75 1.156L.468-.577a.397.397 0 00-.124.219V0H3.5l.25-1.516zm0 0"/></svg><svg overflow="visible" x="101.265" y="41.958"><path d="M4.578-2.094V-4.14c0-2.906-1.703-6.343-3.453-7.671a1.028 1.028 0 00-.234-.063c-.079 0-.36.203-.36.281 0 .047.094.188.125.219 1.672 1.25 2.766 4.484 2.766 7.234v2.047c0 2.75-1.094 5.985-2.766 7.235a.504.504 0 00-.125.218c0 .079.281.282.36.282a.595.595 0 00.234-.079C2.875 4.25 4.578.813 4.578-2.093zm0 0"/></svg><svg overflow="visible" x="110.172" y="41.958"><path d="M2.484-3.125c0-.344-.468-.766-.828-.766-.343 0-.828.422-.828.766 0 .36.485.766.828.766.36 0 .828-.407.828-.766zm0 0"/></svg><svg overflow="visible" x="116.149" y="41.958"><path d="M5.703 5.36c0-.048-.078-.204-.125-.22-1.672-1.25-2.75-4.484-2.75-7.234V-4.14c0-2.75 1.078-5.984 2.75-7.234a.445.445 0 00.125-.219c0-.078-.266-.281-.344-.281a1.17 1.17 0 00-.25.063c-1.75 1.328-3.453 4.765-3.453 7.671v2.047C1.656.812 3.36 4.25 5.11 5.562a.67.67 0 00.25.079c.079 0 .344-.204.344-.282zm0 0"/></svg><svg overflow="visible" x="122.402" y="41.958"><path d="M6.484-4.625c0-.625-.89-.922-1.296-.922-.688 0-1.25.672-1.235.61-.125-.36-.969-.61-1.312-.61-1.235 0-2.125 1.672-2.125 1.969 0 .125.468.219.468.219l-.125.03c.094 0 .329-.155.344-.25.406-1.28 1.016-1.437 1.422-1.437.219 0 .438-.03.438.672 0 .36-.204 1.172-.641 2.844-.203.734-.406 1.11-.938 1.11-.078 0-.218.03-.218.03-.079.016.375-.374.375-.703 0-.328-.454-.546-.641-.546-.36 0-.86.437-.86.828 0 .547.797.906 1.329.906.797 0 1.36-.86 1.39-.938l-.343-.093c.156.437.78 1.031 1.5 1.031 1.234 0 2.109-1.672 2.109-1.969 0-.11-.297-.25-.344-.25-.11 0-.328.188-.36.266-.39 1.281-1 1.437-1.374 1.437-.469 0-.469-.25-.469-.656 0-.266.063-.531.203-1.062l.406-1.625c.063-.313.157-1.282.985-1.282a.604.604 0 00.187-.046c.079 0-.359.421-.359.718 0 .188.328.547.656.547.266 0 .828-.344.828-.828zm0 0"/></svg><svg overflow="visible" x="129.246" y="44.912"><path d="M4.64-1.531V-2h-.937v-3.563c0-.187-.203-.406-.39-.406-.094 0-.282.063-.36.172L.125-1.844v.469h2.453v.531c0 .281.203.219-.469.219h-.437v.64L3.14-.03l1.468.047v-.641h-.437c-.672 0-.469.063-.469-.219v-.531h.938zM2.845-2H.969l2.015-2.781-.343-.125V-2zm0 0"/></svg><svg overflow="visible" x="137.163" y="41.958"><path d="M8.828-3.125c0-.125-.312-.36-.437-.36H.906c-.125 0-.437.235-.437.36 0 .14.312.375.437.375h7.485c.125 0 .437-.234.437-.375zm0 0"/></svg><svg overflow="visible" x="150.316" y="36.328"><path d="M5.094-3.234c0-.47-.75-.782-1.078-.782-.422 0-.907.329-.922.344.031.078-.563-.344-1.031-.344C1.125-4.016.39-2.828.39-2.578c0 .11.328.281.343.281.11 0 .329-.203.375-.312.204-.657.532-.844.938-.844.265 0 .297-.016.297.39 0 .172-.11.579-.188.876l-.281 1.14c-.078.281-.156.578-.578.578-.031 0-.125.047-.078.078-.032.016.203-.453.203-.5 0-.187-.344-.468-.547-.468-.234 0-.688.359-.688.671 0 .422.688.766 1.094.766.39 0 .875-.281.907-.344.03.047.687.344 1.03.344.954 0 1.688-1.203 1.688-1.437 0-.11-.328-.266-.343-.266-.125 0-.344.203-.375.297-.172.578-.47.86-.938.86-.328 0-.297-.063-.297-.391 0-.22.203-.97.438-1.907.156-.64.328-.687.609-.687l.14-.047s-.015 0-.093-.047c.125-.031-.172.36-.172.5 0 .188.344.469.531.469.203 0 .688-.313.688-.656zm0 0"/></svg><svg overflow="visible" x="155.739" y="38.396"><path d="M3.531-1.516h-.437c-.047.297-.047.547-.14.594-.048.047-.407-.015-.5-.015H1.28l.14.312c.391-.297.845-.625 1.204-.875.531-.36 1.094-.844 1.094-1.469 0-.765-.922-1.375-1.781-1.375-.797 0-1.594.64-1.594 1.235 0 .312.469.546.547.546.156 0 .546-.296.546-.53 0-.22-.343-.516-.234-.5 0 0 .219-.126.61-.126.593 0 .875.172.875.75 0 .5-.297.766-.75 1.156L.468-.577a.397.397 0 00-.124.219V0H3.5l.25-1.516zm0 0"/></svg><svg overflow="visible" x="160.308" y="36.328"><path d="M1.813-2.25c0-.25-.407-.61-.641-.61-.25 0-.656.36-.656.61 0 .234.406.594.656.594.234 0 .64-.36.64-.594zm0 0"/></svg><svg overflow="visible" x="162.634" y="36.328"><path d="M4.906-3.5c0-.172-.343-.422-.5-.422-.078 0-.39.094-.484.25a3.37 3.37 0 00-.188.594l-.187.687-.328 1.36.344.11S3.046-.47 2.39-.47c-.563 0-.36-.39-.36-.531 0-.453.203-.984.453-1.625.094-.266.141-.375.141-.516 0-.406-.563-.875-1.016-.875-.843 0-1.421 1.297-1.421 1.438 0 .11.328.281.343.281.125 0 .344-.203.36-.297.218-.703.359-.86.703-.86.14 0 0-.077 0 .126s-.078.375-.125.484C1.079-1.813.984-1.5.984-1.14c0 .141.063.657.391.922.266.219.766.297.984.297.344 0 .782-.156 1.063-.406l-.36-.125c-.109.469-.14.703-.484 1.125-.234.25-.422.484-.86.484-.062 0-.312.047-.343.016.172-.031.313-.484.313-.484l.062-.11c0-.265-.453-.484-.531-.484C1 .094.516.422.516.813c0 .421.609.89 1.203.89.86 0 2.093-.812 2.343-1.86l.797-3.155c.047-.126.047-.141.047-.188zm0 0"/></svg><svg overflow="visible" x="167.48" y="38.396"><path d="M3.89-1.156v-.438h-.75v-2.453c0-.14-.203-.36-.359-.36a.457.457 0 00-.328.141L.172-1.469v.5h2v.281c0 .188.203.063-.328.063h-.407V0l1.22-.031L3.874 0v-.625h-.406c-.531 0-.328.125-.328-.063v-.28h.75zm-1.468-.438H1.047l1.516-1.86-.344-.124v1.984zm0 0"/></svg><path d="M150.316 38.969h21.735" fill="none" stroke-width=".478" stroke="#000" stroke-miterlimit="10"/><svg overflow="visible" x="156.475" y="46.083"><path d="M4.906-3.5c0-.172-.343-.422-.5-.422-.078 0-.39.094-.484.25a3.37 3.37 0 00-.188.594l-.187.687-.328 1.36.344.11S3.046-.47 2.39-.47c-.563 0-.36-.39-.36-.531 0-.453.203-.984.453-1.625.094-.266.141-.375.141-.516 0-.406-.563-.875-1.016-.875-.843 0-1.421 1.297-1.421 1.438 0 .11.328.281.343.281.125 0 .344-.203.36-.297.218-.703.359-.86.703-.86.14 0 0-.077 0 .126s-.078.375-.125.484C1.079-1.813.984-1.5.984-1.14c0 .141.063.657.391.922.266.219.766.297.984.297.344 0 .782-.156 1.063-.406l-.36-.125c-.109.469-.14.703-.484 1.125-.234.25-.422.484-.86.484-.062 0-.312.047-.343.016.172-.031.313-.484.313-.484l.062-.11c0-.265-.453-.484-.531-.484C1 .094.516.422.516.813c0 .421.609.89 1.203.89.86 0 2.093-.812 2.343-1.86l.797-3.155c.047-.126.047-.141.047-.188zm0 0"/></svg><svg overflow="visible" x="161.321" y="48.151"><path d="M3.531-1.516h-.437c-.047.297-.047.547-.14.594-.048.047-.407-.015-.5-.015H1.28l.14.312c.391-.297.845-.625 1.204-.875.531-.36 1.094-.844 1.094-1.469 0-.765-.922-1.375-1.781-1.375-.797 0-1.594.64-1.594 1.235 0 .312.469.546.547.546.156 0 .546-.296.546-.53 0-.22-.343-.516-.234-.5 0 0 .219-.126.61-.126.593 0 .875.172.875.75 0 .5-.297.766-.75 1.156L.468-.577a.397.397 0 00-.124.219V0H3.5l.25-1.516zm0 0"/></svg><svg overflow="visible" x="173.244" y="41.958"><path d="M5.516-8.86c0-.124-.297-.374-.438-.374-.11 0-.39.203-.422.296L.438 2.626c.093-.156.03-.031.03 0 0 .125.313.36.438.36.11 0 .39-.188.422-.282L5.531-8.859c-.078.156-.015.03-.015 0zm0 0"/></svg><svg overflow="visible" x="179.222" y="41.958"><path d="M6.484-4.625c0-.625-.89-.922-1.296-.922-.688 0-1.25.672-1.235.61-.125-.36-.969-.61-1.312-.61-1.235 0-2.125 1.672-2.125 1.969 0 .125.468.219.468.219l-.125.03c.094 0 .329-.155.344-.25.406-1.28 1.016-1.437 1.422-1.437.219 0 .438-.03.438.672 0 .36-.204 1.172-.641 2.844-.203.734-.406 1.11-.938 1.11-.078 0-.218.03-.218.03-.079.016.375-.374.375-.703 0-.328-.454-.546-.641-.546-.36 0-.86.437-.86.828 0 .547.797.906 1.329.906.797 0 1.36-.86 1.39-.938l-.343-.093c.156.437.78 1.031 1.5 1.031 1.234 0 2.109-1.672 2.109-1.969 0-.11-.297-.25-.344-.25-.11 0-.328.188-.36.266-.39 1.281-1 1.437-1.374 1.437-.469 0-.469-.25-.469-.656 0-.266.063-.531.203-1.062l.406-1.625c.063-.313.157-1.282.985-1.282a.604.604 0 00.187-.046c.079 0-.359.421-.359.718 0 .188.328.547.656.547.266 0 .828-.344.828-.828zm0 0"/></svg><svg overflow="visible" x="186.06" y="44.912"><path d="M4.516-1.61c0-.656-.75-1.468-1.672-1.656v.313c.89-.313 1.406-1.094 1.406-1.61 0-.656-.969-1.312-1.89-1.312-.938 0-1.86.61-1.86 1.281 0 .282.39.594.64.594.266 0 .641-.344.641-.578 0-.25-.375-.578-.297-.578.094-.11.532-.157.844-.157.375 0 .688.016.688.75 0 .344-.047.625-.266.891-.281.313-.36.281-.781.313-.203.015-.235.015-.266.015l.14.281s-.437-.109-.437-.015c0 .125.282.281.422.281h.453c.656 0 .922.297.922 1.188 0 1.046-.39 1.187-.89 1.187-.329 0-.922-.031-1.094-.266.078-.015.375-.453.375-.625 0-.265-.407-.625-.672-.625-.235 0-.672.297-.672.641C.25-.5 1.328.172 2.344.172 3.5.172 4.516-.766 4.516-1.61zm0 0"/></svg><svg overflow="visible" x="193.977" y="41.958"><path d="M8.828-3.125c0-.125-.312-.36-.437-.36H.906c-.125 0-.437.235-.437.36 0 .14.312.375.437.375h7.485c.125 0 .437-.234.437-.375zm0 0"/></svg><svg overflow="visible" x="207.131" y="36.197"><path d="M5.094-3.234c0-.47-.75-.782-1.078-.782-.422 0-.907.329-.922.344.031.078-.563-.344-1.031-.344C1.125-4.016.39-2.828.39-2.578c0 .11.328.281.343.281.11 0 .329-.203.375-.312.204-.657.532-.844.938-.844.265 0 .297-.016.297.39 0 .172-.11.579-.188.876l-.281 1.14c-.078.281-.156.578-.578.578-.031 0-.125.047-.078.078-.032.016.203-.453.203-.5 0-.187-.344-.468-.547-.468-.234 0-.688.359-.688.671 0 .422.688.766 1.094.766.39 0 .875-.281.907-.344.03.047.687.344 1.03.344.954 0 1.688-1.203 1.688-1.437 0-.11-.328-.266-.343-.266-.125 0-.344.203-.375.297-.172.578-.47.86-.938.86-.328 0-.297-.063-.297-.391 0-.22.203-.97.438-1.907.156-.64.328-.687.609-.687l.14-.047s-.015 0-.093-.047c.125-.031-.172.36-.172.5 0 .188.344.469.531.469.203 0 .688-.313.688-.656zm0 0"/></svg><svg overflow="visible" x="212.554" y="38.264"><path d="M3.531-1.516h-.437c-.047.297-.047.547-.14.594-.048.047-.407-.015-.5-.015H1.28l.14.312c.391-.297.845-.625 1.204-.875.531-.36 1.094-.844 1.094-1.469 0-.765-.922-1.375-1.781-1.375-.797 0-1.594.64-1.594 1.235 0 .312.469.546.547.546.156 0 .546-.296.546-.53 0-.22-.343-.516-.234-.5 0 0 .219-.126.61-.126.593 0 .875.172.875.75 0 .5-.297.766-.75 1.156L.468-.577a.397.397 0 00-.124.219V0H3.5l.25-1.516zm0 0"/></svg><svg overflow="visible" x="217.122" y="36.197"><path d="M1.813-2.25c0-.25-.407-.61-.641-.61-.25 0-.656.36-.656.61 0 .234.406.594.656.594.234 0 .64-.36.64-.594zm0 0"/></svg><svg overflow="visible" x="219.448" y="36.197"><path d="M4.906-3.5c0-.172-.343-.422-.5-.422-.078 0-.39.094-.484.25a3.37 3.37 0 00-.188.594l-.187.687-.328 1.36.344.11S3.046-.47 2.39-.47c-.563 0-.36-.39-.36-.531 0-.453.203-.984.453-1.625.094-.266.141-.375.141-.516 0-.406-.563-.875-1.016-.875-.843 0-1.421 1.297-1.421 1.438 0 .11.328.281.343.281.125 0 .344-.203.36-.297.218-.703.359-.86.703-.86.14 0 0-.077 0 .126s-.078.375-.125.484C1.079-1.813.984-1.5.984-1.14c0 .141.063.657.391.922.266.219.766.297.984.297.344 0 .782-.156 1.063-.406l-.36-.125c-.109.469-.14.703-.484 1.125-.234.25-.422.484-.86.484-.062 0-.312.047-.343.016.172-.031.313-.484.313-.484l.062-.11c0-.265-.453-.484-.531-.484C1 .094.516.422.516.813c0 .421.609.89 1.203.89.86 0 2.093-.812 2.343-1.86l.797-3.155c.047-.126.047-.141.047-.188zm0 0"/></svg><svg overflow="visible" x="224.294" y="38.264"><path d="M3.781-1.219c0-.5-.625-1.093-1.312-1.25v.36c.719-.235 1.11-.86 1.11-1.204 0-.484-.813-1.03-1.563-1.03-.735 0-1.532.484-1.532 1.03 0 .282.438.532.547.532.172 0 .532-.313.532-.516 0-.14-.266-.484-.11-.469.031-.03.422 0 .547 0 .438 0 .547.047.547.454 0 .343-.031.718-.656.75-.172 0-.188.015-.344.015-.063.016-.344.188-.344.281 0 .11.266.282.375.282h.39c.563 0 .72.171.72.75 0 .625-.172.765-.704.765-.062 0-.64.047-.703-.015-.14.03.125-.344.125-.485 0-.219-.36-.547-.562-.547-.188 0-.563.313-.563.563C.281-.328 1.187.125 2 .125c.984 0 1.781-.766 1.781-1.344zm0 0"/></svg><path d="M207.133 38.969h21.73" fill="none" stroke-width=".478" stroke="#000" stroke-miterlimit="10"/><svg overflow="visible" x="213.29" y="46.083"><path d="M4.906-3.5c0-.172-.343-.422-.5-.422-.078 0-.39.094-.484.25a3.37 3.37 0 00-.188.594l-.187.687-.328 1.36.344.11S3.046-.47 2.39-.47c-.563 0-.36-.39-.36-.531 0-.453.203-.984.453-1.625.094-.266.141-.375.141-.516 0-.406-.563-.875-1.016-.875-.843 0-1.421 1.297-1.421 1.438 0 .11.328.281.343.281.125 0 .344-.203.36-.297.218-.703.359-.86.703-.86.14 0 0-.077 0 .126s-.078.375-.125.484C1.079-1.813.984-1.5.984-1.14c0 .141.063.657.391.922.266.219.766.297.984.297.344 0 .782-.156 1.063-.406l-.36-.125c-.109.469-.14.703-.484 1.125-.234.25-.422.484-.86.484-.062 0-.312.047-.343.016.172-.031.313-.484.313-.484l.062-.11c0-.265-.453-.484-.531-.484C1 .094.516.422.516.813c0 .421.609.89 1.203.89.86 0 2.093-.812 2.343-1.86l.797-3.155c.047-.126.047-.141.047-.188zm0 0"/></svg><svg overflow="visible" x="218.135" y="48.151"><path d="M3.531-1.516h-.437c-.047.297-.047.547-.14.594-.048.047-.407-.015-.5-.015H1.28l.14.312c.391-.297.845-.625 1.204-.875.531-.36 1.094-.844 1.094-1.469 0-.765-.922-1.375-1.781-1.375-.797 0-1.594.64-1.594 1.235 0 .312.469.546.547.546.156 0 .546-.296.546-.53 0-.22-.343-.516-.234-.5 0 0 .219-.126.61-.126.593 0 .875.172.875.75 0 .5-.297.766-.75 1.156L.468-.577a.397.397 0 00-.124.219V0H3.5l.25-1.516zm0 0"/></svg><svg overflow="visible" x="230.059" y="41.958"><path d="M4.578-2.094V-4.14c0-2.906-1.703-6.343-3.453-7.671a1.028 1.028 0 00-.234-.063c-.079 0-.36.203-.36.281 0 .047.094.188.125.219 1.672 1.25 2.766 4.484 2.766 7.234v2.047c0 2.75-1.094 5.985-2.766 7.235a.504.504 0 00-.125.218c0 .079.281.282.36.282a.595.595 0 00.234-.079C2.875 4.25 4.578.813 4.578-2.093zm0 0"/></svg><svg overflow="visible" x="236.311" y="19.868"><path d="M7.344-.125v-3c0-5.86-3-12.516-6.203-14.922a.67.67 0 00-.266-.094c-.14 0-.453.266-.453.391 0 .078.094.25.156.297 3.063 2.297 5.14 8.734 5.14 14.328V0h1.626zm0 0"/></svg><svg overflow="visible" x="236.311" y="24.803"><path d="M7.14-6.219H5.72V0h1.625v-6.219zm0 0"/></svg><svg overflow="visible" x="236.311" y="28.889"><path d="M7.14-6.219H5.72V0h1.625v-6.219zm0 0"/></svg><svg overflow="visible" x="236.311" y="45.743"><path d="M7.344-15.016v-3.125H5.719v3.125c0 5.61-2.078 12.047-5.14 14.344-.063.031-.157.203-.157.297 0 .14.312.375.453.375.063 0 .234-.063.266-.078 3.203-2.406 6.203-9.078 6.203-14.938zm0 0"/></svg><svg overflow="visible" x="250.093" y="26.858"><path d="M8.828-4.281c0-.125-.312-.375-.437-.375H.906c-.125 0-.437.25-.437.375 0 .14.312.375.437.375h7.485c.125 0 .437-.235.437-.375zm0 2.328c0-.14-.312-.375-.437-.375H.906c-.125 0-.437.234-.437.375 0 .125.312.36.437.36h7.485c.125 0 .437-.235.437-.36zm0 0"/></svg><svg overflow="visible" x="262.716" y="20.704"><path d="M10.031-17.75c0-.125-.312-.39-.437-.39a.83.83 0 00-.297.093C6.094-15.64 3.109-8.984 3.109-3.125V0h1.61v-3.125c0-5.594 2.093-12.031 5.14-14.328a.486.486 0 00.172-.297zm0 0"/></svg><svg overflow="visible" x="262.716" y="25.23"><path d="M4.719-.125v-6.094h-1.61V0h1.61zm0 0"/></svg><svg overflow="visible" x="262.716" y="28.463"><path d="M4.719-.125v-6.094h-1.61V0h1.61zm0 0"/></svg><svg overflow="visible" x="262.716" y="44.907"><path d="M10.031-.375c0-.094-.094-.266-.172-.297-3.046-2.297-5.14-8.734-5.14-14.344v-3.125h-1.61v3.125c0 5.86 2.985 12.532 6.188 14.938.031.015.234.078.297.078.125 0 .437-.234.437-.375zm0 0"/></svg><svg overflow="visible" x="309.834" y="10.629"><path d="M6.484-4.625c0-.625-.89-.922-1.296-.922-.688 0-1.25.672-1.235.61-.125-.36-.969-.61-1.312-.61-1.235 0-2.125 1.672-2.125 1.969 0 .125.468.219.468.219l-.125.03c.094 0 .329-.155.344-.25.406-1.28 1.016-1.437 1.422-1.437.219 0 .438-.03.438.672 0 .36-.204 1.172-.641 2.844-.203.734-.406 1.11-.938 1.11-.078 0-.218.03-.218.03-.079.016.375-.374.375-.703 0-.328-.454-.546-.641-.546-.36 0-.86.437-.86.828 0 .547.797.906 1.329.906.797 0 1.36-.86 1.39-.938l-.343-.093c.156.437.78 1.031 1.5 1.031 1.234 0 2.109-1.672 2.109-1.969 0-.11-.297-.25-.344-.25-.11 0-.328.188-.36.266-.39 1.281-1 1.437-1.374 1.437-.469 0-.469-.25-.469-.656 0-.266.063-.531.203-1.062l.406-1.625c.063-.313.157-1.282.985-1.282a.604.604 0 00.187-.046c.079 0-.359.421-.359.718 0 .188.328.547.656.547.266 0 .828-.344.828-.828zm0 0"/></svg><svg overflow="visible" x="316.673" y="13.582"><path d="M4.64-1.531V-2h-.937v-3.563c0-.187-.203-.406-.39-.406-.094 0-.282.063-.36.172L.125-1.844v.469h2.453v.531c0 .281.203.219-.469.219h-.437v.64L3.14-.03l1.468.047v-.641h-.437c-.672 0-.469.063-.469-.219v-.531h.938zM2.845-2H.969l2.015-2.781-.343-.125V-2zm0 0"/></svg><svg overflow="visible" x="321.435" y="13.582"><path d="M4.516-1.61c0-.656-.75-1.468-1.672-1.656v.313c.89-.313 1.406-1.094 1.406-1.61 0-.656-.969-1.312-1.89-1.312-.938 0-1.86.61-1.86 1.281 0 .282.39.594.64.594.266 0 .641-.344.641-.578 0-.25-.375-.578-.297-.578.094-.11.532-.157.844-.157.375 0 .688.016.688.75 0 .344-.047.625-.266.891-.281.313-.36.281-.781.313-.203.015-.235.015-.266.015l.14.281s-.437-.109-.437-.015c0 .125.282.281.422.281h.453c.656 0 .922.297.922 1.188 0 1.046-.39 1.187-.89 1.187-.329 0-.922-.031-1.094-.266.078-.015.375-.453.375-.625 0-.265-.407-.625-.672-.625-.235 0-.672.297-.672.641C.25-.5 1.328.172 2.344.172 3.5.172 4.516-.766 4.516-1.61zm0 0"/></svg><svg overflow="visible" x="274.372" y="35.399"><path d="M4.906-3.5c0-.172-.343-.422-.5-.422-.078 0-.39.094-.484.25a3.37 3.37 0 00-.188.594l-.187.687-.328 1.36.344.11S3.046-.47 2.39-.47c-.563 0-.36-.39-.36-.531 0-.453.203-.984.453-1.625.094-.266.141-.375.141-.516 0-.406-.563-.875-1.016-.875-.843 0-1.421 1.297-1.421 1.438 0 .11.328.281.343.281.125 0 .344-.203.36-.297.218-.703.359-.86.703-.86.14 0 0-.077 0 .126s-.078.375-.125.484C1.079-1.813.984-1.5.984-1.14c0 .141.063.657.391.922.266.219.766.297.984.297.344 0 .782-.156 1.063-.406l-.36-.125c-.109.469-.14.703-.484 1.125-.234.25-.422.484-.86.484-.062 0-.312.047-.343.016.172-.031.313-.484.313-.484l.062-.11c0-.265-.453-.484-.531-.484C1 .094.516.422.516.813c0 .421.609.89 1.203.89.86 0 2.093-.812 2.343-1.86l.797-3.155c.047-.126.047-.141.047-.188zm0 0"/></svg><svg overflow="visible" x="279.217" y="37.466"><path d="M3.89-1.156v-.438h-.75v-2.453c0-.14-.203-.36-.359-.36a.457.457 0 00-.328.141L.172-1.469v.5h2v.281c0 .188.203.063-.328.063h-.407V0l1.22-.031L3.874 0v-.625h-.406c-.531 0-.328.125-.328-.063v-.28h.75zm-1.468-.438H1.047l1.516-1.86-.344-.124v1.984zm0 0"/></svg><path d="M274.371 38.04h9.414" fill="none" stroke-width=".478" stroke="#000" stroke-miterlimit="10"/><svg overflow="visible" x="274.372" y="45.154"><path d="M4.906-3.5c0-.172-.343-.422-.5-.422-.078 0-.39.094-.484.25a3.37 3.37 0 00-.188.594l-.187.687-.328 1.36.344.11S3.046-.47 2.39-.47c-.563 0-.36-.39-.36-.531 0-.453.203-.984.453-1.625.094-.266.141-.375.141-.516 0-.406-.563-.875-1.016-.875-.843 0-1.421 1.297-1.421 1.438 0 .11.328.281.343.281.125 0 .344-.203.36-.297.218-.703.359-.86.703-.86.14 0 0-.077 0 .126s-.078.375-.125.484C1.079-1.813.984-1.5.984-1.14c0 .141.063.657.391.922.266.219.766.297.984.297.344 0 .782-.156 1.063-.406l-.36-.125c-.109.469-.14.703-.484 1.125-.234.25-.422.484-.86.484-.062 0-.312.047-.343.016.172-.031.313-.484.313-.484l.062-.11c0-.265-.453-.484-.531-.484C1 .094.516.422.516.813c0 .421.609.89 1.203.89.86 0 2.093-.812 2.343-1.86l.797-3.155c.047-.126.047-.141.047-.188zm0 0"/></svg><svg overflow="visible" x="279.217" y="47.221"><path d="M3.531-1.516h-.437c-.047.297-.047.547-.14.594-.048.047-.407-.015-.5-.015H1.28l.14.312c.391-.297.845-.625 1.204-.875.531-.36 1.094-.844 1.094-1.469 0-.765-.922-1.375-1.781-1.375-.797 0-1.594.64-1.594 1.235 0 .312.469.546.547.546.156 0 .546-.296.546-.53 0-.22-.343-.516-.234-.5 0 0 .219-.126.61-.126.593 0 .875.172.875.75 0 .5-.297.766-.75 1.156L.468-.577a.397.397 0 00-.124.219V0H3.5l.25-1.516zm0 0"/></svg><svg overflow="visible" x="287.639" y="41.029"><path d="M8.828-3.125c0-.125-.312-.36-.437-.36H5.078v-3.374c0-.141-.297-.375-.422-.375-.14 0-.453.234-.453.375v3.375H.906c-.125 0-.437.234-.437.359 0 .14.312.375.437.375h3.297V.625c0 .125.313.36.453.36.125 0 .422-.235.422-.36V-2.75h3.313c.125 0 .437-.234.437-.375zm0 0"/></svg><svg overflow="visible" x="299.594" y="41.029"><path d="M6.484-4.625c0-.625-.89-.922-1.296-.922-.688 0-1.25.672-1.235.61-.125-.36-.969-.61-1.312-.61-1.235 0-2.125 1.672-2.125 1.969 0 .125.468.219.468.219l-.125.03c.094 0 .329-.155.344-.25.406-1.28 1.016-1.437 1.422-1.437.219 0 .438-.03.438.672 0 .36-.204 1.172-.641 2.844-.203.734-.406 1.11-.938 1.11-.078 0-.218.03-.218.03-.079.016.375-.374.375-.703 0-.328-.454-.546-.641-.546-.36 0-.86.437-.86.828 0 .547.797.906 1.329.906.797 0 1.36-.86 1.39-.938l-.343-.093c.156.437.78 1.031 1.5 1.031 1.234 0 2.109-1.672 2.109-1.969 0-.11-.297-.25-.344-.25-.11 0-.328.188-.36.266-.39 1.281-1 1.437-1.374 1.437-.469 0-.469-.25-.469-.656 0-.266.063-.531.203-1.062l.406-1.625c.063-.313.157-1.282.985-1.282a.604.604 0 00.187-.046c.079 0-.359.421-.359.718 0 .188.328.547.656.547.266 0 .828-.344.828-.828zm0 0"/></svg><svg overflow="visible" x="306.435" y="43.982"><path d="M4.64-1.531V-2h-.937v-3.563c0-.187-.203-.406-.39-.406-.094 0-.282.063-.36.172L.125-1.844v.469h2.453v.531c0 .281.203.219-.469.219h-.437v.64L3.14-.03l1.468.047v-.641h-.437c-.672 0-.469.063-.469-.219v-.531h.938zM2.845-2H.969l2.015-2.781-.343-.125V-2zm0 0"/></svg><svg overflow="visible" x="311.197" y="43.982"><path d="M4.516-1.61c0-.656-.75-1.468-1.672-1.656v.313c.89-.313 1.406-1.094 1.406-1.61 0-.656-.969-1.312-1.89-1.312-.938 0-1.86.61-1.86 1.281 0 .282.39.594.64.594.266 0 .641-.344.641-.578 0-.25-.375-.578-.297-.578.094-.11.532-.157.844-.157.375 0 .688.016.688.75 0 .344-.047.625-.266.891-.281.313-.36.281-.781.313-.203.015-.235.015-.266.015l.14.281s-.437-.109-.437-.015c0 .125.282.281.422.281h.453c.656 0 .922.297.922 1.188 0 1.046-.39 1.187-.89 1.187-.329 0-.922-.031-1.094-.266.078-.015.375-.453.375-.625 0-.265-.407-.625-.672-.625-.235 0-.672.297-.672.641C.25-.5 1.328.172 2.344.172 3.5.172 4.516-.766 4.516-1.61zm0 0"/></svg><svg overflow="visible" x="318.449" y="41.029"><path d="M5.703 5.36c0-.048-.078-.204-.125-.22-1.672-1.25-2.75-4.484-2.75-7.234V-4.14c0-2.75 1.078-5.984 2.75-7.234a.445.445 0 00.125-.219c0-.078-.266-.281-.344-.281a1.17 1.17 0 00-.25.063c-1.75 1.328-3.453 4.765-3.453 7.671v2.047C1.656.812 3.36 4.25 5.11 5.562a.67.67 0 00.25.079c.079 0 .344-.204.344-.282zm0 0"/></svg><svg overflow="visible" x="324.702" y="41.029"><path d="M5.203-.125v-.516h-.578c-1.078 0-.922 0-.922-.437v-6.703c0-.282-.187-.438-.578-.438-.766.797-1.672.766-2.266.766v.625c.438 0 1.282-.031 1.563-.172v5.922c0 .437.172.437-.906.437H.937v.672C1.547-.03 2.595-.03 3.079-.03c.469 0 1.516 0 2.125.062zm0 0"/></svg><svg overflow="visible" x="333.333" y="41.029"><path d="M8.828-3.125c0-.125-.312-.36-.437-.36H.906c-.125 0-.437.235-.437.36 0 .14.312.375.437.375h7.485c.125 0 .437-.234.437-.375zm0 0"/></svg><svg overflow="visible" x="346.49" y="35.268"><path d="M4.906-3.5c0-.172-.343-.422-.5-.422-.078 0-.39.094-.484.25a3.37 3.37 0 00-.188.594l-.187.687-.328 1.36.344.11S3.046-.47 2.39-.47c-.563 0-.36-.39-.36-.531 0-.453.203-.984.453-1.625.094-.266.141-.375.141-.516 0-.406-.563-.875-1.016-.875-.843 0-1.421 1.297-1.421 1.438 0 .11.328.281.343.281.125 0 .344-.203.36-.297.218-.703.359-.86.703-.86.14 0 0-.077 0 .126s-.078.375-.125.484C1.079-1.813.984-1.5.984-1.14c0 .141.063.657.391.922.266.219.766.297.984.297.344 0 .782-.156 1.063-.406l-.36-.125c-.109.469-.14.703-.484 1.125-.234.25-.422.484-.86.484-.062 0-.312.047-.343.016.172-.031.313-.484.313-.484l.062-.11c0-.265-.453-.484-.531-.484C1 .094.516.422.516.813c0 .421.609.89 1.203.89.86 0 2.093-.812 2.343-1.86l.797-3.155c.047-.126.047-.141.047-.188zm0 0"/></svg><svg overflow="visible" x="351.336" y="37.335"><path d="M3.781-1.219c0-.5-.625-1.093-1.312-1.25v.36c.719-.235 1.11-.86 1.11-1.204 0-.484-.813-1.03-1.563-1.03-.735 0-1.532.484-1.532 1.03 0 .282.438.532.547.532.172 0 .532-.313.532-.516 0-.14-.266-.484-.11-.469.031-.03.422 0 .547 0 .438 0 .547.047.547.454 0 .343-.031.718-.656.75-.172 0-.188.015-.344.015-.063.016-.344.188-.344.281 0 .11.266.282.375.282h.39c.563 0 .72.171.72.75 0 .625-.172.765-.704.765-.062 0-.64.047-.703-.015-.14.03.125-.344.125-.485 0-.219-.36-.547-.562-.547-.188 0-.563.313-.563.563C.281-.328 1.187.125 2 .125c.984 0 1.781-.766 1.781-1.344zm0 0"/></svg><path d="M346.488 38.04h9.414" fill="none" stroke-width=".478" stroke="#000" stroke-miterlimit="10"/><svg overflow="visible" x="346.49" y="45.154"><path d="M4.906-3.5c0-.172-.343-.422-.5-.422-.078 0-.39.094-.484.25a3.37 3.37 0 00-.188.594l-.187.687-.328 1.36.344.11S3.046-.47 2.39-.47c-.563 0-.36-.39-.36-.531 0-.453.203-.984.453-1.625.094-.266.141-.375.141-.516 0-.406-.563-.875-1.016-.875-.843 0-1.421 1.297-1.421 1.438 0 .11.328.281.343.281.125 0 .344-.203.36-.297.218-.703.359-.86.703-.86.14 0 0-.077 0 .126s-.078.375-.125.484C1.079-1.813.984-1.5.984-1.14c0 .141.063.657.391.922.266.219.766.297.984.297.344 0 .782-.156 1.063-.406l-.36-.125c-.109.469-.14.703-.484 1.125-.234.25-.422.484-.86.484-.062 0-.312.047-.343.016.172-.031.313-.484.313-.484l.062-.11c0-.265-.453-.484-.531-.484C1 .094.516.422.516.813c0 .421.609.89 1.203.89.86 0 2.093-.812 2.343-1.86l.797-3.155c.047-.126.047-.141.047-.188zm0 0"/></svg><svg overflow="visible" x="351.336" y="47.221"><path d="M3.531-1.516h-.437c-.047.297-.047.547-.14.594-.048.047-.407-.015-.5-.015H1.28l.14.312c.391-.297.845-.625 1.204-.875.531-.36 1.094-.844 1.094-1.469 0-.765-.922-1.375-1.781-1.375-.797 0-1.594.64-1.594 1.235 0 .312.469.546.547.546.156 0 .546-.296.546-.53 0-.22-.343-.516-.234-.5 0 0 .219-.126.61-.126.593 0 .875.172.875.75 0 .5-.297.766-.75 1.156L.468-.577a.397.397 0 00-.124.219V0H3.5l.25-1.516zm0 0"/></svg><svg overflow="visible" x="357.1" y="41.029"><path d="M4.578-2.094V-4.14c0-2.906-1.703-6.343-3.453-7.671a1.028 1.028 0 00-.234-.063c-.079 0-.36.203-.36.281 0 .047.094.188.125.219 1.672 1.25 2.766 4.484 2.766 7.234v2.047c0 2.75-1.094 5.985-2.766 7.235a.504.504 0 00-.125.218c0 .079.281.282.36.282a.595.595 0 00.234-.079C2.875 4.25 4.578.813 4.578-2.093zm0 0"/></svg><svg overflow="visible" x="363.353" y="20.704"><path d="M7.344-.125v-3c0-5.86-3-12.516-6.203-14.922a.67.67 0 00-.266-.094c-.14 0-.453.266-.453.391 0 .078.094.25.156.297 3.063 2.297 5.14 8.734 5.14 14.328V0h1.626zm0 0"/></svg><svg overflow="visible" x="363.353" y="25.23"><path d="M7.14-6.219H5.72V0h1.625v-6.219zm0 0"/></svg><svg overflow="visible" x="363.353" y="28.463"><path d="M7.14-6.219H5.72V0h1.625v-6.219zm0 0"/></svg><svg overflow="visible" x="363.353" y="44.907"><path d="M7.344-15.016v-3.125H5.719v3.125c0 5.61-2.078 12.047-5.14 14.344-.063.031-.157.203-.157.297 0 .14.312.375.453.375.063 0 .234-.063.266-.078 3.203-2.406 6.203-9.078 6.203-14.938zm0 0"/></svg><svg overflow="visible" x="375.806" y="26.858"><path d="M2.625-.14c0-.797-.5-1.391-.969-1.391-.39 0-.828.437-.828.765 0 .329.438.766.828.766.157 0 .438-.078.563-.188l.047-.046s-.313-.078-.313.093c0 .875-.344 1.5-.75 1.891-.125.14-.187.266-.187.297 0 .078.265.265.328.265.125 0 1.281-1.062 1.281-2.453zm0 0"/></svg><svg overflow="visible" x="385.307" y="26.858"><path d="M7.672-1.672c.187-.484.687-2.25.687-2.969 0-.609-.421-.89-.64-.89-.219 0-.719.36-.719.625 0 .11.094.265.203.39.266.313.25.672.25.86 0 .469-.39 1.75-.562 2.187-.25.64-.454 1.094-1.063 1.094-.61 0-.594-.406-.594-.875 0-.344.079-.656.235-1.281l.406-1.578c.063-.297.203-.829.203-.891 0-.172-.328-.422-.484-.422-.328 0-.61.438-.657.61l-.656 2.656c-.078.344-.093.64-.093.734 0 .172-.188 1.047-.829 1.047-.687 0-.64-.516-.64-.922 0-.516.203-1.219.594-2.328.171-.484.218-.61.218-.844 0-.484-.453-1.062-1.047-1.062-1.078 0-1.687 1.89-1.687 1.953 0 .11.297.25.36.25.14 0 .343-.172.39-.344.094-.36.219-1.36.922-1.36.14 0 .078-.077.078.22 0 .296-.125.609-.375 1.296-.39 1.079-.516 1.641-.516 2.063C1.656-.281 2.72.125 3.328.125c.313 0 .844-.11 1.11-.547.109.344 1.03.547 1.359.547.906 0 1.547-.938 1.875-1.797zm0 0"/></svg><svg overflow="visible" x="393.078" y="26.858"><path d="M6.438-1.844c0-.11-.297-.234-.344-.234-.14 0-.344.172-.39.344-.11.406-.235 1.359-.907 1.359-.188 0-.094.047-.094-.234 0-.282.125-.657.219-.891.312-.875.719-1.984.719-2.688 0-.625-.454-1.343-1.375-1.343-.766 0-1.391.468-1.735.875l.313.11.89-3.61a.35.35 0 00.047-.156c0-.11-.265-.25-.453-.235l-1.203.11c-.172.015-.469.156-.469.374 0 .11.297.25.453.25.61 0 .407-.03.407.094 0 .047-.016.172-.032.219L.734-.531c-.03.156-.046.187-.046.219 0 .156.296.437.5.437.343 0 .593-.453.625-.531l.734-2.969c.078-.266.531-1.656 1.687-1.656.547 0 .36.468.36.672 0 .734-.532 2.171-.735 2.75-.109.312-.156.421-.156.671 0 .563.563 1.063 1.047 1.063 1.125 0 1.688-1.922 1.688-1.969zm0 0"/></svg><svg overflow="visible" x="399.055" y="26.858"><path d="M5.64-1.39c0-.079-.28-.313-.343-.313a.51.51 0 00-.281.156c-.625.86-1.391 1.172-2 1.172-.797 0-.72-.813-.72-1.203 0-.531.079-.86.173-1.188h.281c.422 0 2.844-.14 2.844-1.64 0-.547-.625-1.125-1.328-1.125-1.235 0-3.094 1.343-3.094 3.453C1.172-.875 1.984.125 3 .125c1.484 0 2.64-1.344 2.64-1.516zm-.827-3.032c0 1.281-1.782 1.14-2.172 1.14h-.032c.438-1.765 1.438-1.75 1.641-1.75.484 0 .563.204.563.61zm0 0"/></svg><svg overflow="visible" x="404.435" y="26.858"><path d="M5.922-4.703c0-.61-.984-.828-1.313-.828-.562 0-1.14.297-1.578.922l.297.093c-.094-.703-.797-1.015-1.11-1.015-.28 0-.78.25-1.14 1-.062.11.031 1.047.031 1.047l-.312-.094c0 .094.25.25.36.25.14 0 .327-.156.39-.422.187-.703.234-1.281.64-1.281.313 0 .126.218.126.36 0 .218-.047.484-.094.655L1.344-.53c-.047.172-.047.187-.047.234 0 .14.281.422.5.422.266 0 .562-.36.625-.563l.765-3.109c.047-.14.391-1.484 1.407-1.484.062 0 .265-.032.297-.016.171-.031-.235.281-.235.578 0 .25.375.469.563.469.203 0 .703-.281.703-.703zm0 0"/></svg><svg overflow="visible" x="408.775" y="26.858"><path d="M5.64-1.39c0-.079-.28-.313-.343-.313a.51.51 0 00-.281.156c-.625.86-1.391 1.172-2 1.172-.797 0-.72-.813-.72-1.203 0-.531.079-.86.173-1.188h.281c.422 0 2.844-.14 2.844-1.64 0-.547-.625-1.125-1.328-1.125-1.235 0-3.094 1.343-3.094 3.453C1.172-.875 1.984.125 3 .125c1.484 0 2.64-1.344 2.64-1.516zm-.827-3.032c0 1.281-1.782 1.14-2.172 1.14h-.032c.438-1.765 1.438-1.75 1.641-1.75.484 0 .563.204.563.61zm0 0"/></svg><svg overflow="visible" x="418.339" y="26.858"><path d="M6.484-4.625c0-.625-.89-.922-1.296-.922-.688 0-1.25.672-1.235.61-.125-.36-.969-.61-1.312-.61-1.235 0-2.125 1.672-2.125 1.969 0 .125.468.219.468.219l-.125.03c.094 0 .329-.155.344-.25.406-1.28 1.016-1.437 1.422-1.437.219 0 .438-.03.438.672 0 .36-.204 1.172-.641 2.844-.203.734-.406 1.11-.938 1.11-.078 0-.218.03-.218.03-.079.016.375-.374.375-.703 0-.328-.454-.546-.641-.546-.36 0-.86.437-.86.828 0 .547.797.906 1.329.906.797 0 1.36-.86 1.39-.938l-.343-.093c.156.437.78 1.031 1.5 1.031 1.234 0 2.109-1.672 2.109-1.969 0-.11-.297-.25-.344-.25-.11 0-.328.188-.36.266-.39 1.281-1 1.437-1.374 1.437-.469 0-.469-.25-.469-.656 0-.266.063-.531.203-1.062l.406-1.625c.063-.313.157-1.282.985-1.282a.604.604 0 00.187-.046c.079 0-.359.421-.359.718 0 .188.328.547.656.547.266 0 .828-.344.828-.828zm0 0"/></svg><svg overflow="visible" x="425.177" y="29.812"><path d="M4.64-1.531V-2h-.937v-3.563c0-.187-.203-.406-.39-.406-.094 0-.282.063-.36.172L.125-1.844v.469h2.453v.531c0 .281.203.219-.469.219h-.437v.64L3.14-.03l1.468.047v-.641h-.437c-.672 0-.469.063-.469-.219v-.531h.938zM2.845-2H.969l2.015-2.781-.343-.125V-2zm0 0"/></svg><svg overflow="visible" x="429.939" y="29.812"><path d="M4.516-1.61c0-.656-.75-1.468-1.672-1.656v.313c.89-.313 1.406-1.094 1.406-1.61 0-.656-.969-1.312-1.89-1.312-.938 0-1.86.61-1.86 1.281 0 .282.39.594.64.594.266 0 .641-.344.641-.578 0-.25-.375-.578-.297-.578.094-.11.532-.157.844-.157.375 0 .688.016.688.75 0 .344-.047.625-.266.891-.281.313-.36.281-.781.313-.203.015-.235.015-.266.015l.14.281s-.437-.109-.437-.015c0 .125.282.281.422.281h.453c.656 0 .922.297.922 1.188 0 1.046-.39 1.187-.89 1.187-.329 0-.922-.031-1.094-.266.078-.015.375-.453.375-.625 0-.265-.407-.625-.672-.625-.235 0-.672.297-.672.641C.25-.5 1.328.172 2.344.172 3.5.172 4.516-.766 4.516-1.61zm0 0"/></svg><svg overflow="visible" x="438.52" y="26.858"><path d="M8.828-4.281c0-.125-.312-.375-.437-.375H.906c-.125 0-.437.25-.437.375 0 .14.312.375.437.375h7.485c.125 0 .437-.235.437-.375zm0 2.328c0-.14-.312-.375-.437-.375H.906c-.125 0-.437.234-.437.375 0 .125.312.36.437.36h7.485c.125 0 .437-.235.437-.36zm0 0"/></svg><svg overflow="visible" x="451.133" y="26.858"><path d="M8.344 10.969a.486.486 0 00-.14-.266C5.655 8.781 3.936 3.578 3.936-.89v-4.453c0-4.484 1.72-9.687 4.266-11.593a.486.486 0 00.14-.266c0-.11-.28-.344-.405-.344-.047 0-.235.063-.282.078-2.64 2-5.156 7.422-5.156 12.125V-.89c0 4.688 2.516 10.125 5.156 12.11a.993.993 0 00.282.094c.125 0 .406-.235.406-.344zm0 0"/></svg><svg overflow="visible" x="459.932" y="26.858"><path d="M6.484-4.625c0-.625-.89-.922-1.296-.922-.688 0-1.25.672-1.235.61-.125-.36-.969-.61-1.312-.61-1.235 0-2.125 1.672-2.125 1.969 0 .125.468.219.468.219l-.125.03c.094 0 .329-.155.344-.25.406-1.28 1.016-1.437 1.422-1.437.219 0 .438-.03.438.672 0 .36-.204 1.172-.641 2.844-.203.734-.406 1.11-.938 1.11-.078 0-.218.03-.218.03-.079.016.375-.374.375-.703 0-.328-.454-.546-.641-.546-.36 0-.86.437-.86.828 0 .547.797.906 1.329.906.797 0 1.36-.86 1.39-.938l-.343-.093c.156.437.78 1.031 1.5 1.031 1.234 0 2.109-1.672 2.109-1.969 0-.11-.297-.25-.344-.25-.11 0-.328.188-.36.266-.39 1.281-1 1.437-1.374 1.437-.469 0-.469-.25-.469-.656 0-.266.063-.531.203-1.062l.406-1.625c.063-.313.157-1.282.985-1.282a.604.604 0 00.187-.046c.079 0-.359.421-.359.718 0 .188.328.547.656.547.266 0 .828-.344.828-.828zm0 0"/></svg><svg overflow="visible" x="466.78" y="29.812"><path d="M4.64-1.531V-2h-.937v-3.563c0-.187-.203-.406-.39-.406-.094 0-.282.063-.36.172L.125-1.844v.469h2.453v.531c0 .281.203.219-.469.219h-.437v.64L3.14-.03l1.468.047v-.641h-.437c-.672 0-.469.063-.469-.219v-.531h.938zM2.845-2H.969l2.015-2.781-.343-.125V-2zm0 0"/></svg><svg overflow="visible" x="474.696" y="26.858"><path d="M8.828-3.125c0-.125-.312-.36-.437-.36H.906c-.125 0-.437.235-.437.36 0 .14.312.375.437.375h7.485c.125 0 .437-.234.437-.375zm0 0"/></svg><svg overflow="visible" x="487.85" y="18.764"><path d="M6.484-4.625c0-.625-.89-.922-1.296-.922-.688 0-1.25.672-1.235.61-.125-.36-.969-.61-1.312-.61-1.235 0-2.125 1.672-2.125 1.969 0 .125.468.219.468.219l-.125.03c.094 0 .329-.155.344-.25.406-1.28 1.016-1.437 1.422-1.437.219 0 .438-.03.438.672 0 .36-.204 1.172-.641 2.844-.203.734-.406 1.11-.938 1.11-.078 0-.218.03-.218.03-.079.016.375-.374.375-.703 0-.328-.454-.546-.641-.546-.36 0-.86.437-.86.828 0 .547.797.906 1.329.906.797 0 1.36-.86 1.39-.938l-.343-.093c.156.437.78 1.031 1.5 1.031 1.234 0 2.109-1.672 2.109-1.969 0-.11-.297-.25-.344-.25-.11 0-.328.188-.36.266-.39 1.281-1 1.437-1.374 1.437-.469 0-.469-.25-.469-.656 0-.266.063-.531.203-1.062l.406-1.625c.063-.313.157-1.282.985-1.282a.604.604 0 00.187-.046c.079 0-.359.421-.359.718 0 .188.328.547.656.547.266 0 .828-.344.828-.828zm0 0"/></svg><svg overflow="visible" x="494.688" y="21.717"><path d="M4.234-1.844H3.75c-.047.344-.063.735-.172.813-.062.047-.562 0-.687 0H1.812c.563-.5.86-.735 1.36-1.125.625-.5 1.265-1.14 1.265-1.938 0-1-1.093-1.781-2.171-1.781-1.032 0-1.954.89-1.954 1.656 0 .422.579.625.657.625.203 0 .656-.297.656-.61 0-.14-.266-.593-.422-.593.188-.437.547-.469.938-.469.843 0 1.062.5 1.062 1.172 0 .735-.453 1.203-.719 1.5l-2.03 2C.374-.516.311-.39.311 0h3.844l.313-1.844zm0 0"/></svg><g><svg overflow="visible" x="502.605" y="18.764"><path d="M2.484-3.125c0-.344-.468-.766-.828-.766-.343 0-.828.422-.828.766 0 .36.485.766.828.766.36 0 .828-.407.828-.766zm0 0"/></svg></g><g><svg overflow="visible" x="508.583" y="18.764"><path d="M6.047-4.953c0-.219-.36-.469-.531-.469-.125 0-.454.11-.641.406-.016.047-.11.407-.156.625l-.235.954-.546 2.156c-.047.187-.36.89-1.141.89-.61 0-.547-.39-.547-.843 0-.547.203-1.282.61-2.344.187-.485.234-.625.234-.86 0-.53-.578-1.109-1.172-1.109C.782-5.547.14-3.687.14-3.578c0 .125.484.219.484.219l-.14.03c.124 0 .328-.155.39-.343.313-1.125.61-1.344 1.016-1.344.093 0 .093-.14.093.25 0 .297-.125.61-.203.829-.484 1.265-.687 1.953-.687 2.515 0 1.063.953 1.547 1.656 1.547.469 0 1-.234 1.344-.563L3.75-.53c-.156.61-.234 1.11-.719 1.734-.312.406-.61.719-1.172.719-.156 0-.515.094-.656-.234-.062 0 .234-.032.406-.188.11-.094.297-.36.297-.578 0-.375-.515-.547-.64-.547-.282 0-.875.313-.875.906 0 .594.734 1.172 1.468 1.172 1.235 0 2.657-1.219 3-2.578L6-4.688c.047-.171.047-.187.047-.265zm0 0"/></svg></g><g><svg overflow="visible" x="514.444" y="21.717"><path d="M4.64-1.531V-2h-.937v-3.563c0-.187-.203-.406-.39-.406-.094 0-.282.063-.36.172L.125-1.844v.469h2.453v.531c0 .281.203.219-.469.219h-.437v.64L3.14-.03l1.468.047v-.641h-.437c-.672 0-.469.063-.469-.219v-.531h.938zM2.845-2H.969l2.015-2.781-.343-.125V-2zm0 0"/></svg></g><path d="M487.852 23.867h31.851" fill="none" stroke-width=".478" stroke="#000" stroke-miterlimit="10"/><g><svg overflow="visible" x="498.218" y="35.06"><path d="M6.047-4.953c0-.219-.36-.469-.531-.469-.125 0-.454.11-.641.406-.016.047-.11.407-.156.625l-.235.954-.546 2.156c-.047.187-.36.89-1.141.89-.61 0-.547-.39-.547-.843 0-.547.203-1.282.61-2.344.187-.485.234-.625.234-.86 0-.53-.578-1.109-1.172-1.109C.782-5.547.14-3.687.14-3.578c0 .125.484.219.484.219l-.14.03c.124 0 .328-.155.39-.343.313-1.125.61-1.344 1.016-1.344.093 0 .093-.14.093.25 0 .297-.125.61-.203.829-.484 1.265-.687 1.953-.687 2.515 0 1.063.953 1.547 1.656 1.547.469 0 1-.234 1.344-.563L3.75-.53c-.156.61-.234 1.11-.719 1.734-.312.406-.61.719-1.172.719-.156 0-.515.094-.656-.234-.062 0 .234-.032.406-.188.11-.094.297-.36.297-.578 0-.375-.515-.547-.64-.547-.282 0-.875.313-.875.906 0 .594.734 1.172 1.468 1.172 1.235 0 2.657-1.219 3-2.578L6-4.688c.047-.171.047-.187.047-.265zm0 0"/></svg></g><g><svg overflow="visible" x="504.076" y="38.014"><path d="M4.234-1.844H3.75c-.047.344-.063.735-.172.813-.062.047-.562 0-.687 0H1.812c.563-.5.86-.735 1.36-1.125.625-.5 1.265-1.14 1.265-1.938 0-1-1.093-1.781-2.171-1.781-1.032 0-1.954.89-1.954 1.656 0 .422.579.625.657.625.203 0 .656-.297.656-.61 0-.14-.266-.593-.422-.593.188-.437.547-.469.938-.469.843 0 1.062.5 1.062 1.172 0 .735-.453 1.203-.719 1.5l-2.03 2C.374-.516.311-.39.311 0h3.844l.313-1.844zm0 0"/></svg></g><g><svg overflow="visible" x="520.899" y="26.858"><path d="M11.063-16.25c0-.156-.344-.438-.516-.438-.14 0-.453.22-.5.329L.484 9.89V10c0 .172.329.453.5.453.141 0 .454-.219.5-.344l9.547-26.234a.294.294 0 00.031-.125zm0 0"/></svg><svg overflow="visible" x="532.424" y="26.858"><path d="M6.484-4.625c0-.625-.89-.922-1.296-.922-.688 0-1.25.672-1.235.61-.125-.36-.969-.61-1.312-.61-1.235 0-2.125 1.672-2.125 1.969 0 .125.468.219.468.219l-.125.03c.094 0 .329-.155.344-.25.406-1.28 1.016-1.437 1.422-1.437.219 0 .438-.03.438.672 0 .36-.204 1.172-.641 2.844-.203.734-.406 1.11-.938 1.11-.078 0-.218.03-.218.03-.079.016.375-.374.375-.703 0-.328-.454-.546-.641-.546-.36 0-.86.437-.86.828 0 .547.797.906 1.329.906.797 0 1.36-.86 1.39-.938l-.343-.093c.156.437.78 1.031 1.5 1.031 1.234 0 2.109-1.672 2.109-1.969 0-.11-.297-.25-.344-.25-.11 0-.328.188-.36.266-.39 1.281-1 1.437-1.374 1.437-.469 0-.469-.25-.469-.656 0-.266.063-.531.203-1.062l.406-1.625c.063-.313.157-1.282.985-1.282a.604.604 0 00.187-.046c.079 0-.359.421-.359.718 0 .188.328.547.656.547.266 0 .828-.344.828-.828zm0 0"/></svg></g><g><svg overflow="visible" x="539.262" y="29.812"><path d="M4.516-1.61c0-.656-.75-1.468-1.672-1.656v.313c.89-.313 1.406-1.094 1.406-1.61 0-.656-.969-1.312-1.89-1.312-.938 0-1.86.61-1.86 1.281 0 .282.39.594.64.594.266 0 .641-.344.641-.578 0-.25-.375-.578-.297-.578.094-.11.532-.157.844-.157.375 0 .688.016.688.75 0 .344-.047.625-.266.891-.281.313-.36.281-.781.313-.203.015-.235.015-.266.015l.14.281s-.437-.109-.437-.015c0 .125.282.281.422.281h.453c.656 0 .922.297.922 1.188 0 1.046-.39 1.187-.89 1.187-.329 0-.922-.031-1.094-.266.078-.015.375-.453.375-.625 0-.265-.407-.625-.672-.625-.235 0-.672.297-.672.641C.25-.5 1.328.172 2.344.172 3.5.172 4.516-.766 4.516-1.61zm0 0"/></svg></g><g><svg overflow="visible" x="547.179" y="26.858"><path d="M8.828-3.125c0-.125-.312-.36-.437-.36H.906c-.125 0-.437.235-.437.36 0 .14.312.375.437.375h7.485c.125 0 .437-.234.437-.375zm0 0"/></svg></g><g><svg overflow="visible" x="560.333" y="18.764"><path d="M6.484-4.625c0-.625-.89-.922-1.296-.922-.688 0-1.25.672-1.235.61-.125-.36-.969-.61-1.312-.61-1.235 0-2.125 1.672-2.125 1.969 0 .125.468.219.468.219l-.125.03c.094 0 .329-.155.344-.25.406-1.28 1.016-1.437 1.422-1.437.219 0 .438-.03.438.672 0 .36-.204 1.172-.641 2.844-.203.734-.406 1.11-.938 1.11-.078 0-.218.03-.218.03-.079.016.375-.374.375-.703 0-.328-.454-.546-.641-.546-.36 0-.86.437-.86.828 0 .547.797.906 1.329.906.797 0 1.36-.86 1.39-.938l-.343-.093c.156.437.78 1.031 1.5 1.031 1.234 0 2.109-1.672 2.109-1.969 0-.11-.297-.25-.344-.25-.11 0-.328.188-.36.266-.39 1.281-1 1.437-1.374 1.437-.469 0-.469-.25-.469-.656 0-.266.063-.531.203-1.062l.406-1.625c.063-.313.157-1.282.985-1.282a.604.604 0 00.187-.046c.079 0-.359.421-.359.718 0 .188.328.547.656.547.266 0 .828-.344.828-.828zm0 0"/></svg></g><g><svg overflow="visible" x="567.171" y="21.717"><path d="M4.234-1.844H3.75c-.047.344-.063.735-.172.813-.062.047-.562 0-.687 0H1.812c.563-.5.86-.735 1.36-1.125.625-.5 1.265-1.14 1.265-1.938 0-1-1.093-1.781-2.171-1.781-1.032 0-1.954.89-1.954 1.656 0 .422.579.625.657.625.203 0 .656-.297.656-.61 0-.14-.266-.593-.422-.593.188-.437.547-.469.938-.469.843 0 1.062.5 1.062 1.172 0 .735-.453 1.203-.719 1.5l-2.03 2C.374-.516.311-.39.311 0h3.844l.313-1.844zm0 0"/></svg></g><g><svg overflow="visible" x="575.088" y="18.764"><path d="M2.484-3.125c0-.344-.468-.766-.828-.766-.343 0-.828.422-.828.766 0 .36.485.766.828.766.36 0 .828-.407.828-.766zm0 0"/></svg></g><g><svg overflow="visible" x="581.066" y="18.764"><path d="M6.047-4.953c0-.219-.36-.469-.531-.469-.125 0-.454.11-.641.406-.016.047-.11.407-.156.625l-.235.954-.546 2.156c-.047.187-.36.89-1.141.89-.61 0-.547-.39-.547-.843 0-.547.203-1.282.61-2.344.187-.485.234-.625.234-.86 0-.53-.578-1.109-1.172-1.109C.782-5.547.14-3.687.14-3.578c0 .125.484.219.484.219l-.14.03c.124 0 .328-.155.39-.343.313-1.125.61-1.344 1.016-1.344.093 0 .093-.14.093.25 0 .297-.125.61-.203.829-.484 1.265-.687 1.953-.687 2.515 0 1.063.953 1.547 1.656 1.547.469 0 1-.234 1.344-.563L3.75-.53c-.156.61-.234 1.11-.719 1.734-.312.406-.61.719-1.172.719-.156 0-.515.094-.656-.234-.062 0 .234-.032.406-.188.11-.094.297-.36.297-.578 0-.375-.515-.547-.64-.547-.282 0-.875.313-.875.906 0 .594.734 1.172 1.468 1.172 1.235 0 2.657-1.219 3-2.578L6-4.688c.047-.171.047-.187.047-.265zm0 0"/></svg></g><g><svg overflow="visible" x="586.926" y="21.717"><path d="M4.516-1.61c0-.656-.75-1.468-1.672-1.656v.313c.89-.313 1.406-1.094 1.406-1.61 0-.656-.969-1.312-1.89-1.312-.938 0-1.86.61-1.86 1.281 0 .282.39.594.64.594.266 0 .641-.344.641-.578 0-.25-.375-.578-.297-.578.094-.11.532-.157.844-.157.375 0 .688.016.688.75 0 .344-.047.625-.266.891-.281.313-.36.281-.781.313-.203.015-.235.015-.266.015l.14.281s-.437-.109-.437-.015c0 .125.282.281.422.281h.453c.656 0 .922.297.922 1.188 0 1.046-.39 1.187-.89 1.187-.329 0-.922-.031-1.094-.266.078-.015.375-.453.375-.625 0-.265-.407-.625-.672-.625-.235 0-.672.297-.672.641C.25-.5 1.328.172 2.344.172 3.5.172 4.516-.766 4.516-1.61zm0 0"/></svg></g><path d="M560.332 23.867h31.856" fill="none" stroke-width=".478" stroke="#000" stroke-miterlimit="10"/><g><svg overflow="visible" x="570.701" y="35.06"><path d="M6.047-4.953c0-.219-.36-.469-.531-.469-.125 0-.454.11-.641.406-.016.047-.11.407-.156.625l-.235.954-.546 2.156c-.047.187-.36.89-1.141.89-.61 0-.547-.39-.547-.843 0-.547.203-1.282.61-2.344.187-.485.234-.625.234-.86 0-.53-.578-1.109-1.172-1.109C.782-5.547.14-3.687.14-3.578c0 .125.484.219.484.219l-.14.03c.124 0 .328-.155.39-.343.313-1.125.61-1.344 1.016-1.344.093 0 .093-.14.093.25 0 .297-.125.61-.203.829-.484 1.265-.687 1.953-.687 2.515 0 1.063.953 1.547 1.656 1.547.469 0 1-.234 1.344-.563L3.75-.53c-.156.61-.234 1.11-.719 1.734-.312.406-.61.719-1.172.719-.156 0-.515.094-.656-.234-.062 0 .234-.032.406-.188.11-.094.297-.36.297-.578 0-.375-.515-.547-.64-.547-.282 0-.875.313-.875.906 0 .594.734 1.172 1.468 1.172 1.235 0 2.657-1.219 3-2.578L6-4.688c.047-.171.047-.187.047-.265zm0 0"/></svg></g><g><svg overflow="visible" x="576.559" y="38.014"><path d="M4.234-1.844H3.75c-.047.344-.063.735-.172.813-.062.047-.562 0-.687 0H1.812c.563-.5.86-.735 1.36-1.125.625-.5 1.265-1.14 1.265-1.938 0-1-1.093-1.781-2.171-1.781-1.032 0-1.954.89-1.954 1.656 0 .422.579.625.657.625.203 0 .656-.297.656-.61 0-.14-.266-.593-.422-.593.188-.437.547-.469.938-.469.843 0 1.062.5 1.062 1.172 0 .735-.453 1.203-.719 1.5l-2.03 2C.374-.516.311-.39.311 0h3.844l.313-1.844zm0 0"/></svg></g><g><svg overflow="visible" x="593.382" y="26.858"><path d="M6.281-.89v-4.454c0-4.703-2.5-10.125-5.156-12.125a1.32 1.32 0 00-.266-.078c-.125 0-.421.235-.421.344 0 .078.093.234.14.265 2.547 1.907 4.266 7.11 4.266 11.594V-.89c0 4.47-1.719 9.672-4.266 11.594a.486.486 0 00-.14.266c0 .11.296.344.421.344a.77.77 0 00.266-.094C3.781 9.234 6.281 3.797 6.281-.891zm0 0"/></svg></g></svg>