<svg xmlns="http://www.w3.org/2000/svg" xmlns:xlink="http://www.w3.org/1999/xlink" width="135px" height="65px" viewBox="0 0 101 49"><svg overflow="visible" x="-.009" y="28.678"><path d="M8.61-8.094c0-.125-.313-.265-.516-.265h-6.64c-.282 0-.5.14-.579.375l-.75 2.171c.078-.14.297.25.297.25l-.344-.109c0 .078.266.266.36.266.109 0 .312-.188.39-.375.64-1.86.766-1.938 2.531-1.938h.47c.327 0 .124-.093.124.016 0 .062-.031.203-.047.25L2.312-1.078c-.109.437.047.437-1.218.437-.438 0-.719.141-.719.36 0 .156.344.281.406.281.328 0 .672-.031.985-.031H3.78c.344 0 .703.031 1.031.031.125 0 .454-.125.454-.375 0-.125-.282-.266-.594-.266-.297 0-.453 0-.766-.015-.344-.031-.25.062-.25-.125l-.062.094s.062-.172.11-.36L5.296-7.39c.078-.328-.063-.265.078-.312.11-.016.5-.016.75-.016 1.219 0 1.547-.093 1.547.844a8.8 8.8 0 01-.094.953 1.387 1.387 0 00-.031.234c0 .063.234.282.344.282.125 0 .343-.219.375-.407l.312-2.078c.016-.046.031-.171.031-.203zm0 0"/></svg><svg overflow="visible" x="6.973" y="31.631"><path d="M4.234-1.844H3.75c-.047.344-.063.735-.172.813-.062.047-.562 0-.687 0H1.812c.563-.5.86-.735 1.36-1.125.625-.5 1.265-1.14 1.265-1.938 0-1-1.093-1.781-2.171-1.781-1.032 0-1.954.89-1.954 1.656 0 .422.579.625.657.625.203 0 .656-.297.656-.61 0-.14-.266-.593-.422-.593.188-.437.547-.469.938-.469.843 0 1.062.5 1.062 1.172 0 .735-.453 1.203-.719 1.5l-2.03 2C.374-.516.311-.39.311 0h3.844l.313-1.844zm0 0"/></svg><svg overflow="visible" x="15.554" y="28.678"><path d="M8.828-4.281c0-.125-.312-.375-.437-.375H.906c-.125 0-.437.25-.437.375 0 .14.312.375.437.375h7.485c.125 0 .437-.235.437-.375zm0 2.328c0-.14-.312-.375-.437-.375H.906c-.125 0-.437.234-.437.375 0 .125.312.36.437.36h7.485c.125 0 .437-.235.437-.36zm0 0"/></svg><svg overflow="visible" x="28.176" y="21.049"><path d="M7.922-17.703c0-.203-.344-.485-.547-.485H3.641V0H4.75v-17.219h2.625c.203 0 .547-.281.547-.484zm0 0"/></svg><svg overflow="visible" x="28.176" y="31.666"><path d="M4.75-.125v-12.094H3.64V0h1.11zm0 0"/></svg><svg overflow="visible" x="28.176" y="48.261"><path d="M7.922-.484c0-.204-.344-.5-.547-.5H4.75v-17.203H3.64V0h3.735c.203 0 .547-.281.547-.484zm0 0"/></svg><svg overflow="visible" x="36.15" y="13.24"><path d="M5.203-.125v-.516h-.578c-1.078 0-.922 0-.922-.437v-6.703c0-.282-.187-.438-.578-.438-.766.797-1.672.766-2.266.766v.625c.438 0 1.282-.031 1.563-.172v5.922c0 .437.172.437-.906.437H.937v.672C1.547-.03 2.595-.03 3.079-.03c.469 0 1.516 0 2.125.062zm0 0"/></svg><svg overflow="visible" x="52.086" y="13.24"><path d="M8.828-3.125c0-.125-.312-.36-.437-.36H.906c-.125 0-.437.235-.437.36 0 .14.312.375.437.375h7.485c.125 0 .437-.234.437-.375zm0 0"/></svg><svg overflow="visible" x="62.587" y="6.348"><path d="M7.188-5.766c0-.046-.25-.265-.344-.265-.266 0-.578.031-.86.031-.265 0-.625-.031-.875-.031-.046 0-.375.156-.375.343 0 .094.313.266.391.266.39.016.328-.016.328.188 0 .046-.016.078-.016.125-.125.53-.734 3.062-.843 3.312C4.125-.719 3.344-.453 2.656-.453c-.547 0-.937-.125-.937-.953 0-.203.015-.407.078-.594l.812-3.219c.079-.297-.125-.203.516-.203.156 0 .469-.156.469-.344 0-.03-.235-.265-.344-.265C3-6.031 2.39-6 2.156-6c-.14 0-.437 0-.578-.016-.172 0-.375-.015-.531-.015-.047 0-.39.156-.39.343 0 .11.312.266.484.266l.14-.031s.032.031.172.047c.188.015-.016-.125-.016-.032 0 .047-.078.375-.125.563l-.187.734-.484 1.907c-.079.343-.079.421-.079.578C.563-.61 1.625.172 2.626.172c1.156 0 2.484-1.094 2.766-2.203l.734-2.938c.094-.328.016-.437.688-.453.03 0 .375-.172.375-.344zm0 0"/></svg><svg overflow="visible" x="69.098" y="8.416"><path d="M3.531-1.516h-.437c-.047.297-.047.547-.14.594-.048.047-.407-.015-.5-.015H1.28l.14.312c.391-.297.845-.625 1.204-.875.531-.36 1.094-.844 1.094-1.469 0-.765-.922-1.375-1.781-1.375-.797 0-1.594.64-1.594 1.235 0 .312.469.546.547.546.156 0 .546-.296.546-.53 0-.22-.343-.516-.234-.5 0 0 .219-.126.61-.126.593 0 .875.172.875.75 0 .5-.297.766-.75 1.156L.468-.577a.397.397 0 00-.124.219V0H3.5l.25-1.516zm0 0"/></svg><svg overflow="visible" x="73.667" y="9.611"><path d="M4.281-2.328c0-.36-.593-.672-.906-.672-.39 0-.797.297-.75.25-.078-.14-.594-.25-.813-.25-.75 0-1.375.875-1.375 1.11 0 .077.297.25.329.25.046 0 .296-.173.328-.25.172-.579.468-.548.703-.548.187 0 .219-.093.219.22 0 .14-.11.562-.313 1.359-.094.343-.172.359-.422.359-.047 0-.078.063.032.125-.125.047.078-.36.078-.39 0-.172-.329-.422-.47-.422-.14 0-.562.296-.562.578 0 .375.61.671.907.671.328 0 .734-.234.75-.25.093.157.625.25.796.25.766 0 1.376-.89 1.376-1.109 0-.078-.297-.25-.313-.25-.11 0-.328.203-.344.266C3.36-.5 3.11-.5 2.844-.5c-.188 0-.235.11-.235-.219 0-.078 0-.11.047-.312.11-.422.266-1.094.297-1.14.031-.079.094-.267.406-.267.016 0 .079-.062-.046-.14.124-.047.265.531.265.531l-.344-.125c0 .094.282.422.47.422.171 0 .577-.328.577-.578zm0 0"/></svg><path d="M62.586 10.25h16.312" fill="none" stroke-width=".478" stroke="#000" stroke-miterlimit="10"/><svg overflow="visible" x="62.769" y="17.365"><path d="M7.188-5.766c0-.046-.25-.265-.344-.265-.266 0-.578.031-.86.031-.265 0-.625-.031-.875-.031-.046 0-.375.156-.375.343 0 .094.313.266.391.266.39.016.328-.016.328.188 0 .046-.016.078-.016.125-.125.53-.734 3.062-.843 3.312C4.125-.719 3.344-.453 2.656-.453c-.547 0-.937-.125-.937-.953 0-.203.015-.407.078-.594l.812-3.219c.079-.297-.125-.203.516-.203.156 0 .469-.156.469-.344 0-.03-.235-.265-.344-.265C3-6.031 2.39-6 2.156-6c-.14 0-.437 0-.578-.016-.172 0-.375-.015-.531-.015-.047 0-.39.156-.39.343 0 .11.312.266.484.266l.14-.031s.032.031.172.047c.188.015-.016-.125-.016-.032 0 .047-.078.375-.125.563l-.187.734-.484 1.907c-.079.343-.079.421-.079.578C.563-.61 1.625.172 2.626.172c1.156 0 2.484-1.094 2.766-2.203l.734-2.938c.094-.328.016-.437.688-.453.03 0 .375-.172.375-.344zm0 0"/></svg><svg overflow="visible" x="69.28" y="19.432"><path d="M3.531-1.516h-.437c-.047.297-.047.547-.14.594-.048.047-.407-.015-.5-.015H1.28l.14.312c.391-.297.845-.625 1.204-.875.531-.36 1.094-.844 1.094-1.469 0-.765-.922-1.375-1.781-1.375-.797 0-1.594.64-1.594 1.235 0 .312.469.546.547.546.156 0 .546-.296.546-.53 0-.22-.343-.516-.234-.5 0 0 .219-.126.61-.126.593 0 .875.172.875.75 0 .5-.297.766-.75 1.156L.468-.577a.397.397 0 00-.124.219V0H3.5l.25-1.516zm0 0"/></svg><svg overflow="visible" x="73.849" y="20.628"><path d="M4.188-2.547c0-.14-.313-.39-.422-.39-.235 0-.5.39-.532.546l-.312 1.25a1.057 1.057 0 00-.063.235c0 .031-.125.406-.64.406-.266 0-.281.047-.281-.328 0-.328.171-.766.343-1.203a.664.664 0 00.078-.266c0-.297-.484-.703-.843-.703C.875-3 .344-2.062.344-1.89c0 .077.297.25.328.25.094 0 .297-.204.328-.298.125-.406.219-.5.484-.5.11 0-.03-.124-.03.047 0 .11-.032.204-.079.313-.281.703-.344.922-.344 1.156 0 .672.766.985 1.172.985.328 0 .719-.22.875-.344l-.344-.125c-.078.328-.093.469-.375.765-.14.125-.265.313-.64.313-.11 0-.188.031-.094.125-.11.015.125-.39.125-.453 0-.172-.344-.422-.469-.422-.172 0-.578.312-.578.594 0 .296.516.718 1.016.718.687 0 1.687-.64 1.875-1.406l.562-2.234c.032-.094-.031-.016-.031-.016zm0 0"/></svg><svg overflow="visible" x="90.057" y="13.24"><path d="M5.688-3.953c0-.953-.063-1.922-.47-2.797-.562-1.156-1.734-1.469-2.234-1.469-.718 0-1.796.438-2.28 1.547-.376.828-.438 1.766-.438 2.719 0 .89.109 2.062.593 2.969.516.968 1.532 1.25 2.11 1.25.656 0 1.75-.391 2.281-1.516.375-.828.438-1.766.438-2.703zm-1.391-.14c0 .89 0 1.702-.125 2.468C4-.485 3.516-.265 2.969-.265 2.516-.266 2-.438 1.78-1.579c-.125-.719-.125-1.813-.125-2.516 0-.765 0-1.562.094-2.203.219-1.422.922-1.406 1.219-1.406.406 0 .984.094 1.219 1.266.109.671.109 1.578.109 2.343zm0 0"/></svg><svg overflow="visible" x="36.15" y="31.965"><path d="M5.688-3.953c0-.953-.063-1.922-.47-2.797-.562-1.156-1.734-1.469-2.234-1.469-.718 0-1.796.438-2.28 1.547-.376.828-.438 1.766-.438 2.719 0 .89.109 2.062.593 2.969.516.968 1.532 1.25 2.11 1.25.656 0 1.75-.391 2.281-1.516.375-.828.438-1.766.438-2.703zm-1.391-.14c0 .89 0 1.702-.125 2.468C4-.485 3.516-.265 2.969-.265 2.516-.266 2-.438 1.78-1.579c-.125-.719-.125-1.813-.125-2.516 0-.765 0-1.562.094-2.203.219-1.422.922-1.406 1.219-1.406.406 0 .984.094 1.219 1.266.109.671.109 1.578.109 2.343zm0 0"/></svg><svg overflow="visible" x="63.097" y="31.965"><path d="M5.203-.125v-.516h-.578c-1.078 0-.922 0-.922-.437v-6.703c0-.282-.187-.438-.578-.438-.766.797-1.672.766-2.266.766v.625c.438 0 1.282-.031 1.563-.172v5.922c0 .437.172.437-.906.437H.937v.672C1.547-.03 2.595-.03 3.079-.03c.469 0 1.516 0 2.125.062zm0 0"/></svg><svg overflow="visible" x="90.056" y="31.965"><path d="M5.688-3.953c0-.953-.063-1.922-.47-2.797-.562-1.156-1.734-1.469-2.234-1.469-.718 0-1.796.438-2.28 1.547-.376.828-.438 1.766-.438 2.719 0 .89.109 2.062.593 2.969.516.968 1.532 1.25 2.11 1.25.656 0 1.75-.391 2.281-1.516.375-.828.438-1.766.438-2.703zm-1.391-.14c0 .89 0 1.702-.125 2.468C4-.485 3.516-.265 2.969-.265 2.516-.266 2-.438 1.78-1.579c-.125-.719-.125-1.813-.125-2.516 0-.765 0-1.562.094-2.203.219-1.422.922-1.406 1.219-1.406.406 0 .984.094 1.219 1.266.109.671.109 1.578.109 2.343zm0 0"/></svg><svg overflow="visible" x="36.15" y="46.411"><path d="M5.688-3.953c0-.953-.063-1.922-.47-2.797-.562-1.156-1.734-1.469-2.234-1.469-.718 0-1.796.438-2.28 1.547-.376.828-.438 1.766-.438 2.719 0 .89.109 2.062.593 2.969.516.968 1.532 1.25 2.11 1.25.656 0 1.75-.391 2.281-1.516.375-.828.438-1.766.438-2.703zm-1.391-.14c0 .89 0 1.702-.125 2.468C4-.485 3.516-.265 2.969-.265 2.516-.266 2-.438 1.78-1.579c-.125-.719-.125-1.813-.125-2.516 0-.765 0-1.562.094-2.203.219-1.422.922-1.406 1.219-1.406.406 0 .984.094 1.219 1.266.109.671.109 1.578.109 2.343zm0 0"/></svg><svg overflow="visible" x="63.097" y="46.411"><path d="M5.688-3.953c0-.953-.063-1.922-.47-2.797-.562-1.156-1.734-1.469-2.234-1.469-.718 0-1.796.438-2.28 1.547-.376.828-.438 1.766-.438 2.719 0 .89.109 2.062.593 2.969.516.968 1.532 1.25 2.11 1.25.656 0 1.75-.391 2.281-1.516.375-.828.438-1.766.438-2.703zm-1.391-.14c0 .89 0 1.702-.125 2.468C4-.485 3.516-.265 2.969-.265 2.516-.266 2-.438 1.78-1.579c-.125-.719-.125-1.813-.125-2.516 0-.765 0-1.562.094-2.203.219-1.422.922-1.406 1.219-1.406.406 0 .984.094 1.219 1.266.109.671.109 1.578.109 2.343zm0 0"/></svg><svg overflow="visible" x="90.056" y="46.411"><path d="M5.203-.125v-.516h-.578c-1.078 0-.922 0-.922-.437v-6.703c0-.282-.187-.438-.578-.438-.766.797-1.672.766-2.266.766v.625c.438 0 1.282-.031 1.563-.172v5.922c0 .437.172.437-.906.437H.937v.672C1.547-.03 2.595-.03 3.079-.03c.469 0 1.516 0 2.125.062zm0 0"/></svg><svg overflow="visible" x="96.035" y="21.049"><path d="M4.328-.125v-18.063H.594c-.203 0-.563.282-.563.485s.36.484.563.484h2.625V0h1.11zm0 0"/></svg><svg overflow="visible" x="96.035" y="31.666"><path d="M4.14-12.219H3.22V0h1.11v-12.219zm0 0"/></svg><svg overflow="visible" x="96.035" y="48.261"><path d="M4.328-.125v-18.063h-1.11V-.983H.595c-.203 0-.563.296-.563.5 0 .203.36.484.563.484h3.734zm0 0"/></svg></svg>