<svg xmlns="http://www.w3.org/2000/svg" xmlns:xlink="http://www.w3.org/1999/xlink" width="491px" height="55px" viewBox="0 0 368 41"><svg overflow="visible" x="-3.409" y="18.716"><path d="M7.922-17.703c0-.203-.344-.485-.547-.485H3.641V0H4.75v-17.219h2.625c.203 0 .547-.281.547-.484zm0 0"/></svg><svg overflow="visible" x="-3.409" y="26.279"><path d="M4.75-.125v-12.094H3.64V0h1.11zm0 0"/></svg><svg overflow="visible" x="-3.409" y="39.819"><path d="M7.922-.484c0-.204-.344-.5-.547-.5H4.75v-17.203H3.64V0h3.735c.203 0 .547-.281.547-.484zm0 0"/></svg><svg overflow="visible" x="9.546" y="8.745"><path d="M5.203-.125v-.516h-.578c-1.078 0-.922 0-.922-.437v-6.703c0-.282-.187-.438-.578-.438-.766.797-1.672.766-2.266.766v.625c.438 0 1.282-.031 1.563-.172v5.922c0 .437.172.437-.906.437H.937v.672C1.547-.03 2.595-.03 3.079-.03c.469 0 1.516 0 2.125.062zm0 0"/></svg><svg overflow="visible" x="25.482" y="8.745"><path d="M5.688-3.953c0-.953-.063-1.922-.47-2.797-.562-1.156-1.734-1.469-2.234-1.469-.718 0-1.796.438-2.28 1.547-.376.828-.438 1.766-.438 2.719 0 .89.109 2.062.593 2.969.516.968 1.532 1.25 2.11 1.25.656 0 1.75-.391 2.281-1.516.375-.828.438-1.766.438-2.703zm-1.391-.14c0 .89 0 1.702-.125 2.468C4-.485 3.516-.265 2.969-.265 2.516-.266 2-.438 1.78-1.579c-.125-.719-.125-1.813-.125-2.516 0-.765 0-1.562.094-2.203.219-1.422.922-1.406 1.219-1.406.406 0 .984.094 1.219 1.266.109.671.109 1.578.109 2.343zm0 0"/></svg><svg overflow="visible" x="41.419" y="8.745"><path d="M6.14-1.844c0-.11-.296-.25-.327-.25-.125 0-.344.188-.375.344-.204.781-.22 1.36-.704 1.36-.328 0-.171-.188-.171-.422 0-.266.03-.36.156-.891l.265-1.063.438-1.687c.078-.328.078-.36.078-.406 0-.204-.344-.454-.547-.454-.281 0-.656.407-.703.657h.406c-.218-.438-.765-.89-1.297-.89-1.406 0-3.078 1.89-3.078 3.64 0 1.125.86 2.031 1.781 2.031.25 0 .97-.078 1.422-.61.032.094.657.61 1.22.61.421 0 .827-.297 1.015-.688l.062-.093c.203-.438.297-1.094.297-1.094zm-2.03-2.25c0 .063-.016.14-.032.203l-.594 2.344c-.062.203 0 .14-.187.344-.531.656-.875.812-1.203.812-.594 0-.578-.53-.578-1 0-.593.328-1.968.593-2.515.375-.703.782-1.11 1.266-1.11.766 0 .734.844.734.922zm0 0"/></svg><svg overflow="visible" x="9.546" y="23.19"><path d="M5.688-3.953c0-.953-.063-1.922-.47-2.797-.562-1.156-1.734-1.469-2.234-1.469-.718 0-1.796.438-2.28 1.547-.376.828-.438 1.766-.438 2.719 0 .89.109 2.062.593 2.969.516.968 1.532 1.25 2.11 1.25.656 0 1.75-.391 2.281-1.516.375-.828.438-1.766.438-2.703zm-1.391-.14c0 .89 0 1.702-.125 2.468C4-.485 3.516-.265 2.969-.265 2.516-.266 2-.438 1.78-1.579c-.125-.719-.125-1.813-.125-2.516 0-.765 0-1.562.094-2.203.219-1.422.922-1.406 1.219-1.406.406 0 .984.094 1.219 1.266.109.671.109 1.578.109 2.343zm0 0"/></svg><svg overflow="visible" x="25.482" y="23.19"><path d="M5.203-.125v-.516h-.578c-1.078 0-.922 0-.922-.437v-6.703c0-.282-.187-.438-.578-.438-.766.797-1.672.766-2.266.766v.625c.438 0 1.282-.031 1.563-.172v5.922c0 .437.172.437-.906.437H.937v.672C1.547-.03 2.595-.03 3.079-.03c.469 0 1.516 0 2.125.062zm0 0"/></svg><svg overflow="visible" x="41.933" y="23.19"><path d="M5.156-3.5c0-1.094-.828-2.047-1.781-2.047-.547 0-1.188.39-1.547.75l.328.094.89-3.594-.062.094s-.125-.36-.28-.36c-.282 0-1.157.094-1.454.126-.11.015-.438.156-.438.374 0 .141.313.266.485.266.578 0 .406-.047.406.078 0 .078-.11.485-.172.735L.547-3.078c-.14.594-.188.781-.188 1.203 0 1.14.829 2 1.72 2 1.405 0 3.077-1.906 3.077-3.625zm-1.265-.531c0 .703-.391 2.078-.61 2.531-.39.813-.734 1.11-1.203 1.11-.406 0-.61-.188-.61-1.079 0-.234 0-.453.188-1.203l.266-1.11c.078-.265.016-.187.125-.312.578-.781.984-.922 1.297-.922.437 0 .547.22.547.985zm0 0"/></svg><svg overflow="visible" x="9.546" y="37.636"><path d="M5.688-3.953c0-.953-.063-1.922-.47-2.797-.562-1.156-1.734-1.469-2.234-1.469-.718 0-1.796.438-2.28 1.547-.376.828-.438 1.766-.438 2.719 0 .89.109 2.062.593 2.969.516.968 1.532 1.25 2.11 1.25.656 0 1.75-.391 2.281-1.516.375-.828.438-1.766.438-2.703zm-1.391-.14c0 .89 0 1.702-.125 2.468C4-.485 3.516-.265 2.969-.265 2.516-.266 2-.438 1.78-1.579c-.125-.719-.125-1.813-.125-2.516 0-.765 0-1.562.094-2.203.219-1.422.922-1.406 1.219-1.406.406 0 .984.094 1.219 1.266.109.671.109 1.578.109 2.343zm0 0"/></svg><svg overflow="visible" x="25.482" y="37.636"><path d="M5.688-3.953c0-.953-.063-1.922-.47-2.797-.562-1.156-1.734-1.469-2.234-1.469-.718 0-1.796.438-2.28 1.547-.376.828-.438 1.766-.438 2.719 0 .89.109 2.062.593 2.969.516.968 1.532 1.25 2.11 1.25.656 0 1.75-.391 2.281-1.516.375-.828.438-1.766.438-2.703zm-1.391-.14c0 .89 0 1.702-.125 2.468C4-.485 3.516-.265 2.969-.265 2.516-.266 2-.438 1.78-1.579c-.125-.719-.125-1.813-.125-2.516 0-.765 0-1.562.094-2.203.219-1.422.922-1.406 1.219-1.406.406 0 .984.094 1.219 1.266.109.671.109 1.578.109 2.343zm0 0"/></svg><svg overflow="visible" x="41.598" y="37.636"><path d="M5.203-.125v-.516h-.578c-1.078 0-.922 0-.922-.437v-6.703c0-.282-.187-.438-.578-.438-.766.797-1.672.766-2.266.766v.625c.438 0 1.282-.031 1.563-.172v5.922c0 .437.172.437-.906.437H.937v.672C1.547-.03 2.595-.03 3.079-.03c.469 0 1.516 0 2.125.062zm0 0"/></svg><svg overflow="visible" x="52.733" y="18.716"><path d="M4.328-.125v-18.063H.594c-.203 0-.563.282-.563.485s.36.484.563.484h2.625V0h1.11zm0 0"/></svg><svg overflow="visible" x="52.732" y="26.279"><path d="M4.14-12.219H3.22V0h1.11v-12.219zm0 0"/></svg><svg overflow="visible" x="52.733" y="39.819"><path d="M4.328-.125v-18.063h-1.11V-.983H.595c-.203 0-.563.296-.563.5 0 .203.36.484.563.484h3.734zm0 0"/></svg><svg overflow="visible" x="63.364" y="23.29"><path d="M2.484-3.125c0-.344-.468-.766-.828-.766-.343 0-.828.422-.828.766 0 .36.485.766.828.766.36 0 .828-.407.828-.766zm0 0"/></svg><svg overflow="visible" x="69.344" y="18.716"><path d="M7.922-17.703c0-.203-.344-.485-.547-.485H3.641V0H4.75v-17.219h2.625c.203 0 .547-.281.547-.484zm0 0"/></svg><svg overflow="visible" x="69.344" y="26.279"><path d="M4.75-.125v-12.094H3.64V0h1.11zm0 0"/></svg><svg overflow="visible" x="69.344" y="39.819"><path d="M7.922-.484c0-.204-.344-.5-.547-.5H4.75v-17.203H3.64V0h3.735c.203 0 .547-.281.547-.484zm0 0"/></svg><svg overflow="visible" x="87.818" y="8.745"><path d="M6.484-4.625c0-.625-.89-.922-1.296-.922-.688 0-1.25.672-1.235.61-.125-.36-.969-.61-1.312-.61-1.235 0-2.125 1.672-2.125 1.969 0 .125.468.219.468.219l-.125.03c.094 0 .329-.155.344-.25.406-1.28 1.016-1.437 1.422-1.437.219 0 .438-.03.438.672 0 .36-.204 1.172-.641 2.844-.203.734-.406 1.11-.938 1.11-.078 0-.218.03-.218.03-.079.016.375-.374.375-.703 0-.328-.454-.546-.641-.546-.36 0-.86.437-.86.828 0 .547.797.906 1.329.906.797 0 1.36-.86 1.39-.938l-.343-.093c.156.437.78 1.031 1.5 1.031 1.234 0 2.109-1.672 2.109-1.969 0-.11-.297-.25-.344-.25-.11 0-.328.188-.36.266-.39 1.281-1 1.437-1.374 1.437-.469 0-.469-.25-.469-.656 0-.266.063-.531.203-1.062l.406-1.625c.063-.313.157-1.282.985-1.282a.604.604 0 00.187-.046c.079 0-.359.421-.359.718 0 .188.328.547.656.547.266 0 .828-.344.828-.828zm0 0"/></svg><svg overflow="visible" x="88.141" y="23.19"><path d="M6.047-4.953c0-.219-.36-.469-.531-.469-.125 0-.454.11-.641.406-.016.047-.11.407-.156.625l-.235.954-.546 2.156c-.047.187-.36.89-1.141.89-.61 0-.547-.39-.547-.843 0-.547.203-1.282.61-2.344.187-.485.234-.625.234-.86 0-.53-.578-1.109-1.172-1.109C.782-5.547.14-3.687.14-3.578c0 .125.484.219.484.219l-.14.03c.124 0 .328-.155.39-.343.313-1.125.61-1.344 1.016-1.344.093 0 .093-.14.093.25 0 .297-.125.61-.203.829-.484 1.265-.687 1.953-.687 2.515 0 1.063.953 1.547 1.656 1.547.469 0 1-.234 1.344-.563L3.75-.53c-.156.61-.234 1.11-.719 1.734-.312.406-.61.719-1.172.719-.156 0-.515.094-.656-.234-.062 0 .234-.032.406-.188.11-.094.297-.36.297-.578 0-.375-.515-.547-.64-.547-.282 0-.875.313-.875.906 0 .594.734 1.172 1.468 1.172 1.235 0 2.657-1.219 3-2.578L6-4.688c.047-.171.047-.187.047-.265zm0 0"/></svg><svg overflow="visible" x="77.318" y="37.636"><path d="M5.766-5.297c0-.125-.188-.016-.188-.016l-.125-.234c-.094 0-.266.063-.328.172-.36.563-.469.719-.75.719s-.297-.14-.484-.344c-.22-.266-.563-.547-.954-.547-.89 0-1.64 1.25-1.64 1.5 0 .047.234.25.344.25.109 0 .312-.187.343-.25.235-.562.735-.437.829-.437.25 0 .468.078.75.187.484.172.609.172.578.172-.235.281-1.235 1.156-1.47 1.344l-1.062 1C.781-.984.313-.203.313-.125.313 0 .78.094.78.094L.656.125c.094 0 .25-.047.328-.188.266-.421.5-.703.875-.703.282 0 .25.079.563.422.203.25.547.469.906.469 1.172 0 2.063-1.64 2.063-1.969 0-.062-.235-.25-.329-.25-.109 0-.343.203-.375.281-.28.782-.843.875-1.234.875C3.22-.938 3-1 2.75-1.093c-.406-.156-.594-.203-.844-.203l.14.234s-.343-.234-.452-.187l.125.219c.64-.688 1-.985 1.422-1.36 0 0 .75-.64 1.171-1.078 1.141-1.11 1.454-1.781 1.454-1.828zm0 0"/></svg><svg overflow="visible" x="86.547" y="37.636"><path d="M8.828-4.281c0-.125-.312-.375-.437-.375H.906c-.125 0-.437.25-.437.375 0 .14.312.375.437.375h7.485c.125 0 .437-.235.437-.375zm0 2.328c0-.14-.312-.375-.437-.375H.906c-.125 0-.437.234-.437.375 0 .125.312.36.437.36h7.485c.125 0 .437-.235.437-.36zm0 0"/></svg><svg overflow="visible" x="99.172" y="37.636"><path d="M5.203-.125v-.516h-.578c-1.078 0-.922 0-.922-.437v-6.703c0-.282-.187-.438-.578-.438-.766.797-1.672.766-2.266.766v.625c.438 0 1.282-.031 1.563-.172v5.922c0 .437.172.437-.906.437H.937v.672C1.547-.03 2.595-.03 3.079-.03c.469 0 1.516 0 2.125.062zm0 0"/></svg><svg overflow="visible" x="105.157" y="18.716"><path d="M4.328-.125v-18.063H.594c-.203 0-.563.282-.563.485s.36.484.563.484h2.625V0h1.11zm0 0"/></svg><svg overflow="visible" x="105.157" y="26.279"><path d="M4.14-12.219H3.22V0h1.11v-12.219zm0 0"/></svg><svg overflow="visible" x="105.157" y="39.819"><path d="M4.328-.125v-18.063h-1.11V-.983H.595c-.203 0-.563.296-.563.5 0 .203.36.484.563.484h3.734zm0 0"/></svg><svg overflow="visible" x="116.452" y="23.29"><path d="M8.828-4.281c0-.125-.312-.375-.437-.375H.906c-.125 0-.437.25-.437.375 0 .14.312.375.437.375h7.485c.125 0 .437-.235.437-.375zm0 2.328c0-.14-.312-.375-.437-.375H.906c-.125 0-.437.234-.437.375 0 .125.312.36.437.36h7.485c.125 0 .437-.235.437-.36zm0 0"/></svg><svg overflow="visible" x="129.075" y="18.716"><path d="M7.922-17.703c0-.203-.344-.485-.547-.485H3.641V0H4.75v-17.219h2.625c.203 0 .547-.281.547-.484zm0 0"/></svg><svg overflow="visible" x="129.075" y="26.279"><path d="M4.75-.125v-12.094H3.64V0h1.11zm0 0"/></svg><svg overflow="visible" x="129.075" y="39.819"><path d="M7.922-.484c0-.204-.344-.5-.547-.5H4.75v-17.203H3.64V0h3.735c.203 0 .547-.281.547-.484zm0 0"/></svg><svg overflow="visible" x="137.049" y="8.745"><path d="M5.203-.125v-.516h-.578c-1.078 0-.922 0-.922-.437v-6.703c0-.282-.187-.438-.578-.438-.766.797-1.672.766-2.266.766v.625c.438 0 1.282-.031 1.563-.172v5.922c0 .437.172.437-.906.437H.937v.672C1.547-.03 2.595-.03 3.079-.03c.469 0 1.516 0 2.125.062zm0 0"/></svg><svg overflow="visible" x="145.681" y="8.745"><path d="M2.484-3.125c0-.344-.468-.766-.828-.766-.343 0-.828.422-.828.766 0 .36.485.766.828.766.36 0 .828-.407.828-.766zm0 0"/></svg><svg overflow="visible" x="151.658" y="8.745"><path d="M6.484-4.625c0-.625-.89-.922-1.296-.922-.688 0-1.25.672-1.235.61-.125-.36-.969-.61-1.312-.61-1.235 0-2.125 1.672-2.125 1.969 0 .125.468.219.468.219l-.125.03c.094 0 .329-.155.344-.25.406-1.28 1.016-1.437 1.422-1.437.219 0 .438-.03.438.672 0 .36-.204 1.172-.641 2.844-.203.734-.406 1.11-.938 1.11-.078 0-.218.03-.218.03-.079.016.375-.374.375-.703 0-.328-.454-.546-.641-.546-.36 0-.86.437-.86.828 0 .547.797.906 1.329.906.797 0 1.36-.86 1.39-.938l-.343-.093c.156.437.78 1.031 1.5 1.031 1.234 0 2.109-1.672 2.109-1.969 0-.11-.297-.25-.344-.25-.11 0-.328.188-.36.266-.39 1.281-1 1.437-1.374 1.437-.469 0-.469-.25-.469-.656 0-.266.063-.531.203-1.062l.406-1.625c.063-.313.157-1.282.985-1.282a.604.604 0 00.187-.046c.079 0-.359.421-.359.718 0 .188.328.547.656.547.266 0 .828-.344.828-.828zm0 0"/></svg><svg overflow="visible" x="161.151" y="8.745"><path d="M8.828-3.125c0-.125-.312-.36-.437-.36H5.078v-3.374c0-.141-.297-.375-.422-.375-.14 0-.453.234-.453.375v3.375H.906c-.125 0-.437.234-.437.359 0 .14.312.375.437.375h3.297V.625c0 .125.313.36.453.36.125 0 .422-.235.422-.36V-2.75h3.313c.125 0 .437-.234.437-.375zm0 0"/></svg><svg overflow="visible" x="173.106" y="8.745"><path d="M5.688-3.953c0-.953-.063-1.922-.47-2.797-.562-1.156-1.734-1.469-2.234-1.469-.718 0-1.796.438-2.28 1.547-.376.828-.438 1.766-.438 2.719 0 .89.109 2.062.593 2.969.516.968 1.532 1.25 2.11 1.25.656 0 1.75-.391 2.281-1.516.375-.828.438-1.766.438-2.703zm-1.391-.14c0 .89 0 1.702-.125 2.468C4-.485 3.516-.265 2.969-.265 2.516-.266 2-.438 1.78-1.579c-.125-.719-.125-1.813-.125-2.516 0-.765 0-1.562.094-2.203.219-1.422.922-1.406 1.219-1.406.406 0 .984.094 1.219 1.266.109.671.109 1.578.109 2.343zm0 0"/></svg><svg overflow="visible" x="181.749" y="8.745"><path d="M2.484-3.125c0-.344-.468-.766-.828-.766-.343 0-.828.422-.828.766 0 .36.485.766.828.766.36 0 .828-.407.828-.766zm0 0"/></svg><svg overflow="visible" x="187.727" y="8.745"><path d="M6.047-4.953c0-.219-.36-.469-.531-.469-.125 0-.454.11-.641.406-.016.047-.11.407-.156.625l-.235.954-.546 2.156c-.047.187-.36.89-1.141.89-.61 0-.547-.39-.547-.843 0-.547.203-1.282.61-2.344.187-.485.234-.625.234-.86 0-.53-.578-1.109-1.172-1.109C.782-5.547.14-3.687.14-3.578c0 .125.484.219.484.219l-.14.03c.124 0 .328-.155.39-.343.313-1.125.61-1.344 1.016-1.344.093 0 .093-.14.093.25 0 .297-.125.61-.203.829-.484 1.265-.687 1.953-.687 2.515 0 1.063.953 1.547 1.656 1.547.469 0 1-.234 1.344-.563L3.75-.53c-.156.61-.234 1.11-.719 1.734-.312.406-.61.719-1.172.719-.156 0-.515.094-.656-.234-.062 0 .234-.032.406-.188.11-.094.297-.36.297-.578 0-.375-.515-.547-.64-.547-.282 0-.875.313-.875.906 0 .594.734 1.172 1.468 1.172 1.235 0 2.657-1.219 3-2.578L6-4.688c.047-.171.047-.187.047-.265zm0 0"/></svg><svg overflow="visible" x="196.574" y="8.745"><path d="M8.828-3.125c0-.125-.312-.36-.437-.36H5.078v-3.374c0-.141-.297-.375-.422-.375-.14 0-.453.234-.453.375v3.375H.906c-.125 0-.437.234-.437.359 0 .14.312.375.437.375h3.297V.625c0 .125.313.36.453.36.125 0 .422-.235.422-.36V-2.75h3.313c.125 0 .437-.234.437-.375zm0 0"/></svg><svg overflow="visible" x="208.529" y="8.745"><path d="M6.14-1.844c0-.11-.296-.25-.327-.25-.125 0-.344.188-.375.344-.204.781-.22 1.36-.704 1.36-.328 0-.171-.188-.171-.422 0-.266.03-.36.156-.891l.265-1.063.438-1.687c.078-.328.078-.36.078-.406 0-.204-.344-.454-.547-.454-.281 0-.656.407-.703.657h.406c-.218-.438-.765-.89-1.297-.89-1.406 0-3.078 1.89-3.078 3.64 0 1.125.86 2.031 1.781 2.031.25 0 .97-.078 1.422-.61.032.094.657.61 1.22.61.421 0 .827-.297 1.015-.688l.062-.093c.203-.438.297-1.094.297-1.094zm-2.03-2.25c0 .063-.016.14-.032.203l-.594 2.344c-.062.203 0 .14-.187.344-.531.656-.875.812-1.203.812-.594 0-.578-.53-.578-1 0-.593.328-1.968.593-2.515.375-.703.782-1.11 1.266-1.11.766 0 .734.844.734.922zm0 0"/></svg><svg overflow="visible" x="217.519" y="8.745"><path d="M2.484-3.125c0-.344-.468-.766-.828-.766-.343 0-.828.422-.828.766 0 .36.485.766.828.766.36 0 .828-.407.828-.766zm0 0"/></svg><svg overflow="visible" x="223.497" y="8.745"><path d="M5.766-5.297c0-.125-.188-.016-.188-.016l-.125-.234c-.094 0-.266.063-.328.172-.36.563-.469.719-.75.719s-.297-.14-.484-.344c-.22-.266-.563-.547-.954-.547-.89 0-1.64 1.25-1.64 1.5 0 .047.234.25.344.25.109 0 .312-.187.343-.25.235-.562.735-.437.829-.437.25 0 .468.078.75.187.484.172.609.172.578.172-.235.281-1.235 1.156-1.47 1.344l-1.062 1C.781-.984.313-.203.313-.125.313 0 .78.094.78.094L.656.125c.094 0 .25-.047.328-.188.266-.421.5-.703.875-.703.282 0 .25.079.563.422.203.25.547.469.906.469 1.172 0 2.063-1.64 2.063-1.969 0-.062-.235-.25-.329-.25-.109 0-.343.203-.375.281-.28.782-.843.875-1.234.875C3.22-.938 3-1 2.75-1.093c-.406-.156-.594-.203-.844-.203l.14.234s-.343-.234-.452-.187l.125.219c.64-.688 1-.985 1.422-1.36 0 0 .75-.64 1.171-1.078 1.141-1.11 1.454-1.781 1.454-1.828zm0 0"/></svg><svg overflow="visible" x="137.563" y="23.19"><path d="M5.688-3.953c0-.953-.063-1.922-.47-2.797-.562-1.156-1.734-1.469-2.234-1.469-.718 0-1.796.438-2.28 1.547-.376.828-.438 1.766-.438 2.719 0 .89.109 2.062.593 2.969.516.968 1.532 1.25 2.11 1.25.656 0 1.75-.391 2.281-1.516.375-.828.438-1.766.438-2.703zm-1.391-.14c0 .89 0 1.702-.125 2.468C4-.485 3.516-.265 2.969-.265 2.516-.266 2-.438 1.78-1.579c-.125-.719-.125-1.813-.125-2.516 0-.765 0-1.562.094-2.203.219-1.422.922-1.406 1.219-1.406.406 0 .984.094 1.219 1.266.109.671.109 1.578.109 2.343zm0 0"/></svg><svg overflow="visible" x="146.195" y="23.19"><path d="M2.484-3.125c0-.344-.468-.766-.828-.766-.343 0-.828.422-.828.766 0 .36.485.766.828.766.36 0 .828-.407.828-.766zm0 0"/></svg><svg overflow="visible" x="152.172" y="23.19"><path d="M6.484-4.625c0-.625-.89-.922-1.296-.922-.688 0-1.25.672-1.235.61-.125-.36-.969-.61-1.312-.61-1.235 0-2.125 1.672-2.125 1.969 0 .125.468.219.468.219l-.125.03c.094 0 .329-.155.344-.25.406-1.28 1.016-1.437 1.422-1.437.219 0 .438-.03.438.672 0 .36-.204 1.172-.641 2.844-.203.734-.406 1.11-.938 1.11-.078 0-.218.03-.218.03-.079.016.375-.374.375-.703 0-.328-.454-.546-.641-.546-.36 0-.86.437-.86.828 0 .547.797.906 1.329.906.797 0 1.36-.86 1.39-.938l-.343-.093c.156.437.78 1.031 1.5 1.031 1.234 0 2.109-1.672 2.109-1.969 0-.11-.297-.25-.344-.25-.11 0-.328.188-.36.266-.39 1.281-1 1.437-1.374 1.437-.469 0-.469-.25-.469-.656 0-.266.063-.531.203-1.062l.406-1.625c.063-.313.157-1.282.985-1.282a.604.604 0 00.187-.046c.079 0-.359.421-.359.718 0 .188.328.547.656.547.266 0 .828-.344.828-.828zm0 0"/></svg><svg overflow="visible" x="161.665" y="23.19"><path d="M8.828-3.125c0-.125-.312-.36-.437-.36H5.078v-3.374c0-.141-.297-.375-.422-.375-.14 0-.453.234-.453.375v3.375H.906c-.125 0-.437.234-.437.359 0 .14.312.375.437.375h3.297V.625c0 .125.313.36.453.36.125 0 .422-.235.422-.36V-2.75h3.313c.125 0 .437-.234.437-.375zm0 0"/></svg><svg overflow="visible" x="173.62" y="23.19"><path d="M5.203-.125v-.516h-.578c-1.078 0-.922 0-.922-.437v-6.703c0-.282-.187-.438-.578-.438-.766.797-1.672.766-2.266.766v.625c.438 0 1.282-.031 1.563-.172v5.922c0 .437.172.437-.906.437H.937v.672C1.547-.03 2.595-.03 3.079-.03c.469 0 1.516 0 2.125.062zm0 0"/></svg><svg overflow="visible" x="182.263" y="23.19"><path d="M2.484-3.125c0-.344-.468-.766-.828-.766-.343 0-.828.422-.828.766 0 .36.485.766.828.766.36 0 .828-.407.828-.766zm0 0"/></svg><svg overflow="visible" x="188.241" y="23.19"><path d="M6.047-4.953c0-.219-.36-.469-.531-.469-.125 0-.454.11-.641.406-.016.047-.11.407-.156.625l-.235.954-.546 2.156c-.047.187-.36.89-1.141.89-.61 0-.547-.39-.547-.843 0-.547.203-1.282.61-2.344.187-.485.234-.625.234-.86 0-.53-.578-1.109-1.172-1.109C.782-5.547.14-3.687.14-3.578c0 .125.484.219.484.219l-.14.03c.124 0 .328-.155.39-.343.313-1.125.61-1.344 1.016-1.344.093 0 .093-.14.093.25 0 .297-.125.61-.203.829-.484 1.265-.687 1.953-.687 2.515 0 1.063.953 1.547 1.656 1.547.469 0 1-.234 1.344-.563L3.75-.53c-.156.61-.234 1.11-.719 1.734-.312.406-.61.719-1.172.719-.156 0-.515.094-.656-.234-.062 0 .234-.032.406-.188.11-.094.297-.36.297-.578 0-.375-.515-.547-.64-.547-.282 0-.875.313-.875.906 0 .594.734 1.172 1.468 1.172 1.235 0 2.657-1.219 3-2.578L6-4.688c.047-.171.047-.187.047-.265zm0 0"/></svg><svg overflow="visible" x="197.088" y="23.19"><path d="M8.828-3.125c0-.125-.312-.36-.437-.36H5.078v-3.374c0-.141-.297-.375-.422-.375-.14 0-.453.234-.453.375v3.375H.906c-.125 0-.437.234-.437.359 0 .14.312.375.437.375h3.297V.625c0 .125.313.36.453.36.125 0 .422-.235.422-.36V-2.75h3.313c.125 0 .437-.234.437-.375zm0 0"/></svg><svg overflow="visible" x="209.043" y="23.19"><path d="M5.156-3.5c0-1.094-.828-2.047-1.781-2.047-.547 0-1.188.39-1.547.75l.328.094.89-3.594-.062.094s-.125-.36-.28-.36c-.282 0-1.157.094-1.454.126-.11.015-.438.156-.438.374 0 .141.313.266.485.266.578 0 .406-.047.406.078 0 .078-.11.485-.172.735L.547-3.078c-.14.594-.188.781-.188 1.203 0 1.14.829 2 1.72 2 1.405 0 3.077-1.906 3.077-3.625zm-1.265-.531c0 .703-.391 2.078-.61 2.531-.39.813-.734 1.11-1.203 1.11-.406 0-.61-.188-.61-1.079 0-.234 0-.453.188-1.203l.266-1.11c.078-.265.016-.187.125-.312.578-.781.984-.922 1.297-.922.437 0 .547.22.547.985zm0 0"/></svg><svg overflow="visible" x="217.005" y="23.19"><path d="M2.484-3.125c0-.344-.468-.766-.828-.766-.343 0-.828.422-.828.766 0 .36.485.766.828.766.36 0 .828-.407.828-.766zm0 0"/></svg><svg overflow="visible" x="222.983" y="23.19"><path d="M5.766-5.297c0-.125-.188-.016-.188-.016l-.125-.234c-.094 0-.266.063-.328.172-.36.563-.469.719-.75.719s-.297-.14-.484-.344c-.22-.266-.563-.547-.954-.547-.89 0-1.64 1.25-1.64 1.5 0 .047.234.25.344.25.109 0 .312-.187.343-.25.235-.562.735-.437.829-.437.25 0 .468.078.75.187.484.172.609.172.578.172-.235.281-1.235 1.156-1.47 1.344l-1.062 1C.781-.984.313-.203.313-.125.313 0 .78.094.78.094L.656.125c.094 0 .25-.047.328-.188.266-.421.5-.703.875-.703.282 0 .25.079.563.422.203.25.547.469.906.469 1.172 0 2.063-1.64 2.063-1.969 0-.062-.235-.25-.329-.25-.109 0-.343.203-.375.281-.28.782-.843.875-1.234.875C3.22-.938 3-1 2.75-1.093c-.406-.156-.594-.203-.844-.203l.14.234s-.343-.234-.452-.187l.125.219c.64-.688 1-.985 1.422-1.36 0 0 .75-.64 1.171-1.078 1.141-1.11 1.454-1.781 1.454-1.828zm0 0"/></svg><svg overflow="visible" x="137.222" y="37.636"><path d="M5.688-3.953c0-.953-.063-1.922-.47-2.797-.562-1.156-1.734-1.469-2.234-1.469-.718 0-1.796.438-2.28 1.547-.376.828-.438 1.766-.438 2.719 0 .89.109 2.062.593 2.969.516.968 1.532 1.25 2.11 1.25.656 0 1.75-.391 2.281-1.516.375-.828.438-1.766.438-2.703zm-1.391-.14c0 .89 0 1.702-.125 2.468C4-.485 3.516-.265 2.969-.265 2.516-.266 2-.438 1.78-1.579c-.125-.719-.125-1.813-.125-2.516 0-.765 0-1.562.094-2.203.219-1.422.922-1.406 1.219-1.406.406 0 .984.094 1.219 1.266.109.671.109 1.578.109 2.343zm0 0"/></svg><svg overflow="visible" x="145.854" y="37.636"><path d="M2.484-3.125c0-.344-.468-.766-.828-.766-.343 0-.828.422-.828.766 0 .36.485.766.828.766.36 0 .828-.407.828-.766zm0 0"/></svg><svg overflow="visible" x="151.831" y="37.636"><path d="M6.484-4.625c0-.625-.89-.922-1.296-.922-.688 0-1.25.672-1.235.61-.125-.36-.969-.61-1.312-.61-1.235 0-2.125 1.672-2.125 1.969 0 .125.468.219.468.219l-.125.03c.094 0 .329-.155.344-.25.406-1.28 1.016-1.437 1.422-1.437.219 0 .438-.03.438.672 0 .36-.204 1.172-.641 2.844-.203.734-.406 1.11-.938 1.11-.078 0-.218.03-.218.03-.079.016.375-.374.375-.703 0-.328-.454-.546-.641-.546-.36 0-.86.437-.86.828 0 .547.797.906 1.329.906.797 0 1.36-.86 1.39-.938l-.343-.093c.156.437.78 1.031 1.5 1.031 1.234 0 2.109-1.672 2.109-1.969 0-.11-.297-.25-.344-.25-.11 0-.328.188-.36.266-.39 1.281-1 1.437-1.374 1.437-.469 0-.469-.25-.469-.656 0-.266.063-.531.203-1.062l.406-1.625c.063-.313.157-1.282.985-1.282a.604.604 0 00.187-.046c.079 0-.359.421-.359.718 0 .188.328.547.656.547.266 0 .828-.344.828-.828zm0 0"/></svg><svg overflow="visible" x="161.324" y="37.636"><path d="M8.828-3.125c0-.125-.312-.36-.437-.36H5.078v-3.374c0-.141-.297-.375-.422-.375-.14 0-.453.234-.453.375v3.375H.906c-.125 0-.437.234-.437.359 0 .14.312.375.437.375h3.297V.625c0 .125.313.36.453.36.125 0 .422-.235.422-.36V-2.75h3.313c.125 0 .437-.234.437-.375zm0 0"/></svg><svg overflow="visible" x="173.279" y="37.636"><path d="M5.688-3.953c0-.953-.063-1.922-.47-2.797-.562-1.156-1.734-1.469-2.234-1.469-.718 0-1.796.438-2.28 1.547-.376.828-.438 1.766-.438 2.719 0 .89.109 2.062.593 2.969.516.968 1.532 1.25 2.11 1.25.656 0 1.75-.391 2.281-1.516.375-.828.438-1.766.438-2.703zm-1.391-.14c0 .89 0 1.702-.125 2.468C4-.485 3.516-.265 2.969-.265 2.516-.266 2-.438 1.78-1.579c-.125-.719-.125-1.813-.125-2.516 0-.765 0-1.562.094-2.203.219-1.422.922-1.406 1.219-1.406.406 0 .984.094 1.219 1.266.109.671.109 1.578.109 2.343zm0 0"/></svg><svg overflow="visible" x="181.922" y="37.636"><path d="M2.484-3.125c0-.344-.468-.766-.828-.766-.343 0-.828.422-.828.766 0 .36.485.766.828.766.36 0 .828-.407.828-.766zm0 0"/></svg><svg overflow="visible" x="187.9" y="37.636"><path d="M6.047-4.953c0-.219-.36-.469-.531-.469-.125 0-.454.11-.641.406-.016.047-.11.407-.156.625l-.235.954-.546 2.156c-.047.187-.36.89-1.141.89-.61 0-.547-.39-.547-.843 0-.547.203-1.282.61-2.344.187-.485.234-.625.234-.86 0-.53-.578-1.109-1.172-1.109C.782-5.547.14-3.687.14-3.578c0 .125.484.219.484.219l-.14.03c.124 0 .328-.155.39-.343.313-1.125.61-1.344 1.016-1.344.093 0 .093-.14.093.25 0 .297-.125.61-.203.829-.484 1.265-.687 1.953-.687 2.515 0 1.063.953 1.547 1.656 1.547.469 0 1-.234 1.344-.563L3.75-.53c-.156.61-.234 1.11-.719 1.734-.312.406-.61.719-1.172.719-.156 0-.515.094-.656-.234-.062 0 .234-.032.406-.188.11-.094.297-.36.297-.578 0-.375-.515-.547-.64-.547-.282 0-.875.313-.875.906 0 .594.734 1.172 1.468 1.172 1.235 0 2.657-1.219 3-2.578L6-4.688c.047-.171.047-.187.047-.265zm0 0"/></svg><svg overflow="visible" x="196.747" y="37.636"><path d="M8.828-3.125c0-.125-.312-.36-.437-.36H5.078v-3.374c0-.141-.297-.375-.422-.375-.14 0-.453.234-.453.375v3.375H.906c-.125 0-.437.234-.437.359 0 .14.312.375.437.375h3.297V.625c0 .125.313.36.453.36.125 0 .422-.235.422-.36V-2.75h3.313c.125 0 .437-.234.437-.375zm0 0"/></svg><svg overflow="visible" x="208.702" y="37.636"><path d="M5.203-.125v-.516h-.578c-1.078 0-.922 0-.922-.437v-6.703c0-.282-.187-.438-.578-.438-.766.797-1.672.766-2.266.766v.625c.438 0 1.282-.031 1.563-.172v5.922c0 .437.172.437-.906.437H.937v.672C1.547-.03 2.595-.03 3.079-.03c.469 0 1.516 0 2.125.062zm0 0"/></svg><svg overflow="visible" x="217.346" y="37.636"><path d="M2.484-3.125c0-.344-.468-.766-.828-.766-.343 0-.828.422-.828.766 0 .36.485.766.828.766.36 0 .828-.407.828-.766zm0 0"/></svg><svg overflow="visible" x="223.323" y="37.636"><path d="M5.766-5.297c0-.125-.188-.016-.188-.016l-.125-.234c-.094 0-.266.063-.328.172-.36.563-.469.719-.75.719s-.297-.14-.484-.344c-.22-.266-.563-.547-.954-.547-.89 0-1.64 1.25-1.64 1.5 0 .047.234.25.344.25.109 0 .312-.187.343-.25.235-.562.735-.437.829-.437.25 0 .468.078.75.187.484.172.609.172.578.172-.235.281-1.235 1.156-1.47 1.344l-1.062 1C.781-.984.313-.203.313-.125.313 0 .78.094.78.094L.656.125c.094 0 .25-.047.328-.188.266-.421.5-.703.875-.703.282 0 .25.079.563.422.203.25.547.469.906.469 1.172 0 2.063-1.64 2.063-1.969 0-.062-.235-.25-.329-.25-.109 0-.343.203-.375.281-.28.782-.843.875-1.234.875C3.22-.938 3-1 2.75-1.093c-.406-.156-.594-.203-.844-.203l.14.234s-.343-.234-.452-.187l.125.219c.64-.688 1-.985 1.422-1.36 0 0 .75-.64 1.171-1.078 1.141-1.11 1.454-1.781 1.454-1.828zm0 0"/></svg><svg overflow="visible" x="229.42" y="18.716"><path d="M4.328-.125v-18.063H.594c-.203 0-.563.282-.563.485s.36.484.563.484h2.625V0h1.11zm0 0"/></svg><svg overflow="visible" x="229.42" y="26.279"><path d="M4.14-12.219H3.22V0h1.11v-12.219zm0 0"/></svg><svg overflow="visible" x="229.42" y="39.819"><path d="M4.328-.125v-18.063h-1.11V-.983H.595c-.203 0-.563.296-.563.5 0 .203.36.484.563.484h3.734zm0 0"/></svg><svg overflow="visible" x="240.715" y="23.29"><path d="M8.828-4.281c0-.125-.312-.375-.437-.375H.906c-.125 0-.437.25-.437.375 0 .14.312.375.437.375h7.485c.125 0 .437-.235.437-.375zm0 2.328c0-.14-.312-.375-.437-.375H.906c-.125 0-.437.234-.437.375 0 .125.312.36.437.36h7.485c.125 0 .437-.235.437-.36zm0 0"/></svg><svg overflow="visible" x="253.337" y="18.716"><path d="M7.922-17.703c0-.203-.344-.485-.547-.485H3.641V0H4.75v-17.219h2.625c.203 0 .547-.281.547-.484zm0 0"/></svg><svg overflow="visible" x="253.337" y="26.279"><path d="M4.75-.125v-12.094H3.64V0h1.11zm0 0"/></svg><svg overflow="visible" x="253.337" y="39.819"><path d="M7.922-.484c0-.204-.344-.5-.547-.5H4.75v-17.203H3.64V0h3.735c.203 0 .547-.281.547-.484zm0 0"/></svg><svg overflow="visible" x="261.311" y="8.745"><path d="M6.484-4.625c0-.625-.89-.922-1.296-.922-.688 0-1.25.672-1.235.61-.125-.36-.969-.61-1.312-.61-1.235 0-2.125 1.672-2.125 1.969 0 .125.468.219.468.219l-.125.03c.094 0 .329-.155.344-.25.406-1.28 1.016-1.437 1.422-1.437.219 0 .438-.03.438.672 0 .36-.204 1.172-.641 2.844-.203.734-.406 1.11-.938 1.11-.078 0-.218.03-.218.03-.079.016.375-.374.375-.703 0-.328-.454-.546-.641-.546-.36 0-.86.437-.86.828 0 .547.797.906 1.329.906.797 0 1.36-.86 1.39-.938l-.343-.093c.156.437.78 1.031 1.5 1.031 1.234 0 2.109-1.672 2.109-1.969 0-.11-.297-.25-.344-.25-.11 0-.328.188-.36.266-.39 1.281-1 1.437-1.374 1.437-.469 0-.469-.25-.469-.656 0-.266.063-.531.203-1.062l.406-1.625c.063-.313.157-1.282.985-1.282a.604.604 0 00.187-.046c.079 0-.359.421-.359.718 0 .188.328.547.656.547.266 0 .828-.344.828-.828zm0 0"/></svg><svg overflow="visible" x="270.803" y="8.745"><path d="M8.828-3.125c0-.125-.312-.36-.437-.36H5.078v-3.374c0-.141-.297-.375-.422-.375-.14 0-.453.234-.453.375v3.375H.906c-.125 0-.437.234-.437.359 0 .14.312.375.437.375h3.297V.625c0 .125.313.36.453.36.125 0 .422-.235.422-.36V-2.75h3.313c.125 0 .437-.234.437-.375zm0 0"/></svg><svg overflow="visible" x="282.759" y="8.745"><path d="M6.14-1.844c0-.11-.296-.25-.327-.25-.125 0-.344.188-.375.344-.204.781-.22 1.36-.704 1.36-.328 0-.171-.188-.171-.422 0-.266.03-.36.156-.891l.265-1.063.438-1.687c.078-.328.078-.36.078-.406 0-.204-.344-.454-.547-.454-.281 0-.656.407-.703.657h.406c-.218-.438-.765-.89-1.297-.89-1.406 0-3.078 1.89-3.078 3.64 0 1.125.86 2.031 1.781 2.031.25 0 .97-.078 1.422-.61.032.094.657.61 1.22.61.421 0 .827-.297 1.015-.688l.062-.093c.203-.438.297-1.094.297-1.094zm-2.03-2.25c0 .063-.016.14-.032.203l-.594 2.344c-.062.203 0 .14-.187.344-.531.656-.875.812-1.203.812-.594 0-.578-.53-.578-1 0-.593.328-1.968.593-2.515.375-.703.782-1.11 1.266-1.11.766 0 .734.844.734.922zm0 0"/></svg><svg overflow="visible" x="291.737" y="8.745"><path d="M2.484-3.125c0-.344-.468-.766-.828-.766-.343 0-.828.422-.828.766 0 .36.485.766.828.766.36 0 .828-.407.828-.766zm0 0"/></svg><svg overflow="visible" x="297.727" y="8.745"><path d="M5.203-.125v-.516h-.578c-1.078 0-.922 0-.922-.437v-6.703c0-.282-.187-.438-.578-.438-.766.797-1.672.766-2.266.766v.625c.438 0 1.282-.031 1.563-.172v5.922c0 .437.172.437-.906.437H.937v.672C1.547-.03 2.595-.03 3.079-.03c.469 0 1.516 0 2.125.062zm0 0"/></svg><svg overflow="visible" x="262.148" y="23.19"><path d="M6.047-4.953c0-.219-.36-.469-.531-.469-.125 0-.454.11-.641.406-.016.047-.11.407-.156.625l-.235.954-.546 2.156c-.047.187-.36.89-1.141.89-.61 0-.547-.39-.547-.843 0-.547.203-1.282.61-2.344.187-.485.234-.625.234-.86 0-.53-.578-1.109-1.172-1.109C.782-5.547.14-3.687.14-3.578c0 .125.484.219.484.219l-.14.03c.124 0 .328-.155.39-.343.313-1.125.61-1.344 1.016-1.344.093 0 .093-.14.093.25 0 .297-.125.61-.203.829-.484 1.265-.687 1.953-.687 2.515 0 1.063.953 1.547 1.656 1.547.469 0 1-.234 1.344-.563L3.75-.53c-.156.61-.234 1.11-.719 1.734-.312.406-.61.719-1.172.719-.156 0-.515.094-.656-.234-.062 0 .234-.032.406-.188.11-.094.297-.36.297-.578 0-.375-.515-.547-.64-.547-.282 0-.875.313-.875.906 0 .594.734 1.172 1.468 1.172 1.235 0 2.657-1.219 3-2.578L6-4.688c.047-.171.047-.187.047-.265zm0 0"/></svg><svg overflow="visible" x="270.995" y="23.19"><path d="M8.828-3.125c0-.125-.312-.36-.437-.36H5.078v-3.374c0-.141-.297-.375-.422-.375-.14 0-.453.234-.453.375v3.375H.906c-.125 0-.437.234-.437.359 0 .14.312.375.437.375h3.297V.625c0 .125.313.36.453.36.125 0 .422-.235.422-.36V-2.75h3.313c.125 0 .437-.234.437-.375zm0 0"/></svg><svg overflow="visible" x="282.95" y="23.19"><path d="M5.156-3.5c0-1.094-.828-2.047-1.781-2.047-.547 0-1.188.39-1.547.75l.328.094.89-3.594-.062.094s-.125-.36-.28-.36c-.282 0-1.157.094-1.454.126-.11.015-.438.156-.438.374 0 .141.313.266.485.266.578 0 .406-.047.406.078 0 .078-.11.485-.172.735L.547-3.078c-.14.594-.188.781-.188 1.203 0 1.14.829 2 1.72 2 1.405 0 3.077-1.906 3.077-3.625zm-1.265-.531c0 .703-.391 2.078-.61 2.531-.39.813-.734 1.11-1.203 1.11-.406 0-.61-.188-.61-1.079 0-.234 0-.453.188-1.203l.266-1.11c.078-.265.016-.187.125-.312.578-.781.984-.922 1.297-.922.437 0 .547.22.547.985zm0 0"/></svg><svg overflow="visible" x="290.9" y="23.19"><path d="M2.484-3.125c0-.344-.468-.766-.828-.766-.343 0-.828.422-.828.766 0 .36.485.766.828.766.36 0 .828-.407.828-.766zm0 0"/></svg><svg overflow="visible" x="296.89" y="23.19"><path d="M5.203-.125v-.516h-.578c-1.078 0-.922 0-.922-.437v-6.703c0-.282-.187-.438-.578-.438-.766.797-1.672.766-2.266.766v.625c.438 0 1.282-.031 1.563-.172v5.922c0 .437.172.437-.906.437H.937v.672C1.547-.03 2.595-.03 3.079-.03c.469 0 1.516 0 2.125.062zm0 0"/></svg><svg overflow="visible" x="272.241" y="37.636"><path d="M5.203-.125v-.516h-.578c-1.078 0-.922 0-.922-.437v-6.703c0-.282-.187-.438-.578-.438-.766.797-1.672.766-2.266.766v.625c.438 0 1.282-.031 1.563-.172v5.922c0 .437.172.437-.906.437H.937v.672C1.547-.03 2.595-.03 3.079-.03c.469 0 1.516 0 2.125.062zm0 0"/></svg><svg overflow="visible" x="280.873" y="37.636"><path d="M2.484-3.125c0-.344-.468-.766-.828-.766-.343 0-.828.422-.828.766 0 .36.485.766.828.766.36 0 .828-.407.828-.766zm0 0"/></svg><svg overflow="visible" x="286.85" y="37.636"><path d="M5.766-5.297c0-.125-.188-.016-.188-.016l-.125-.234c-.094 0-.266.063-.328.172-.36.563-.469.719-.75.719s-.297-.14-.484-.344c-.22-.266-.563-.547-.954-.547-.89 0-1.64 1.25-1.64 1.5 0 .047.234.25.344.25.109 0 .312-.187.343-.25.235-.562.735-.437.829-.437.25 0 .468.078.75.187.484.172.609.172.578.172-.235.281-1.235 1.156-1.47 1.344l-1.062 1C.781-.984.313-.203.313-.125.313 0 .78.094.78.094L.656.125c.094 0 .25-.047.328-.188.266-.421.5-.703.875-.703.282 0 .25.079.563.422.203.25.547.469.906.469 1.172 0 2.063-1.64 2.063-1.969 0-.062-.235-.25-.329-.25-.109 0-.343.203-.375.281-.28.782-.843.875-1.234.875C3.22-.938 3-1 2.75-1.093c-.406-.156-.594-.203-.844-.203l.14.234s-.343-.234-.452-.187l.125.219c.64-.688 1-.985 1.422-1.36 0 0 .75-.64 1.171-1.078 1.141-1.11 1.454-1.781 1.454-1.828zm0 0"/></svg><svg overflow="visible" x="303.704" y="18.716"><path d="M4.328-.125v-18.063H.594c-.203 0-.563.282-.563.485s.36.484.563.484h2.625V0h1.11zm0 0"/></svg><svg overflow="visible" x="303.704" y="26.279"><path d="M4.14-12.219H3.22V0h1.11v-12.219zm0 0"/></svg><svg overflow="visible" x="303.704" y="39.819"><path d="M4.328-.125v-18.063h-1.11V-.983H.595c-.203 0-.563.296-.563.5 0 .203.36.484.563.484h3.734zm0 0"/></svg><svg overflow="visible" x="315" y="23.29"><path d="M8.828-4.281c0-.125-.312-.375-.437-.375H.906c-.125 0-.437.25-.437.375 0 .14.312.375.437.375h7.485c.125 0 .437-.235.437-.375zm0 2.328c0-.14-.312-.375-.437-.375H.906c-.125 0-.437.234-.437.375 0 .125.312.36.437.36h7.485c.125 0 .437-.235.437-.36zm0 0"/></svg><svg overflow="visible" x="327.622" y="18.716"><path d="M7.922-17.703c0-.203-.344-.485-.547-.485H3.641V0H4.75v-17.219h2.625c.203 0 .547-.281.547-.484zm0 0"/></svg><svg overflow="visible" x="327.622" y="26.279"><path d="M4.75-.125v-12.094H3.64V0h1.11zm0 0"/></svg><svg overflow="visible" x="327.622" y="39.819"><path d="M7.922-.484c0-.204-.344-.5-.547-.5H4.75v-17.203H3.64V0h3.735c.203 0 .547-.281.547-.484zm0 0"/></svg><svg overflow="visible" x="335.627" y="8.745"><path d="M6.484-4.625c0-.625-.89-.922-1.296-.922-.688 0-1.25.672-1.235.61-.125-.36-.969-.61-1.312-.61-1.235 0-2.125 1.672-2.125 1.969 0 .125.468.219.468.219l-.125.03c.094 0 .329-.155.344-.25.406-1.28 1.016-1.437 1.422-1.437.219 0 .438-.03.438.672 0 .36-.204 1.172-.641 2.844-.203.734-.406 1.11-.938 1.11-.078 0-.218.03-.218.03-.079.016.375-.374.375-.703 0-.328-.454-.546-.641-.546-.36 0-.86.437-.86.828 0 .547.797.906 1.329.906.797 0 1.36-.86 1.39-.938l-.343-.093c.156.437.78 1.031 1.5 1.031 1.234 0 2.109-1.672 2.109-1.969 0-.11-.297-.25-.344-.25-.11 0-.328.188-.36.266-.39 1.281-1 1.437-1.374 1.437-.469 0-.469-.25-.469-.656 0-.266.063-.531.203-1.062l.406-1.625c.063-.313.157-1.282.985-1.282a.604.604 0 00.187-.046c.079 0-.359.421-.359.718 0 .188.328.547.656.547.266 0 .828-.344.828-.828zm0 0"/></svg><svg overflow="visible" x="345.119" y="8.745"><path d="M8.828-3.125c0-.125-.312-.36-.437-.36H5.078v-3.374c0-.141-.297-.375-.422-.375-.14 0-.453.234-.453.375v3.375H.906c-.125 0-.437.234-.437.359 0 .14.312.375.437.375h3.297V.625c0 .125.313.36.453.36.125 0 .422-.235.422-.36V-2.75h3.313c.125 0 .437-.234.437-.375zm0 0"/></svg><svg overflow="visible" x="357.075" y="8.745"><path d="M6.14-1.844c0-.11-.296-.25-.327-.25-.125 0-.344.188-.375.344-.204.781-.22 1.36-.704 1.36-.328 0-.171-.188-.171-.422 0-.266.03-.36.156-.891l.265-1.063.438-1.687c.078-.328.078-.36.078-.406 0-.204-.344-.454-.547-.454-.281 0-.656.407-.703.657h.406c-.218-.438-.765-.89-1.297-.89-1.406 0-3.078 1.89-3.078 3.64 0 1.125.86 2.031 1.781 2.031.25 0 .97-.078 1.422-.61.032.094.657.61 1.22.61.421 0 .827-.297 1.015-.688l.062-.093c.203-.438.297-1.094.297-1.094zm-2.03-2.25c0 .063-.016.14-.032.203l-.594 2.344c-.062.203 0 .14-.187.344-.531.656-.875.812-1.203.812-.594 0-.578-.53-.578-1 0-.593.328-1.968.593-2.515.375-.703.782-1.11 1.266-1.11.766 0 .734.844.734.922zm0 0"/></svg><svg overflow="visible" x="336.463" y="23.19"><path d="M6.047-4.953c0-.219-.36-.469-.531-.469-.125 0-.454.11-.641.406-.016.047-.11.407-.156.625l-.235.954-.546 2.156c-.047.187-.36.89-1.141.89-.61 0-.547-.39-.547-.843 0-.547.203-1.282.61-2.344.187-.485.234-.625.234-.86 0-.53-.578-1.109-1.172-1.109C.782-5.547.14-3.687.14-3.578c0 .125.484.219.484.219l-.14.03c.124 0 .328-.155.39-.343.313-1.125.61-1.344 1.016-1.344.093 0 .093-.14.093.25 0 .297-.125.61-.203.829-.484 1.265-.687 1.953-.687 2.515 0 1.063.953 1.547 1.656 1.547.469 0 1-.234 1.344-.563L3.75-.53c-.156.61-.234 1.11-.719 1.734-.312.406-.61.719-1.172.719-.156 0-.515.094-.656-.234-.062 0 .234-.032.406-.188.11-.094.297-.36.297-.578 0-.375-.515-.547-.64-.547-.282 0-.875.313-.875.906 0 .594.734 1.172 1.468 1.172 1.235 0 2.657-1.219 3-2.578L6-4.688c.047-.171.047-.187.047-.265zm0 0"/></svg><svg overflow="visible" x="345.31" y="23.19"><path d="M8.828-3.125c0-.125-.312-.36-.437-.36H5.078v-3.374c0-.141-.297-.375-.422-.375-.14 0-.453.234-.453.375v3.375H.906c-.125 0-.437.234-.437.359 0 .14.312.375.437.375h3.297V.625c0 .125.313.36.453.36.125 0 .422-.235.422-.36V-2.75h3.313c.125 0 .437-.234.437-.375zm0 0"/></svg><svg overflow="visible" x="357.265" y="23.19"><path d="M5.156-3.5c0-1.094-.828-2.047-1.781-2.047-.547 0-1.188.39-1.547.75l.328.094.89-3.594-.062.094s-.125-.36-.28-.36c-.282 0-1.157.094-1.454.126-.11.015-.438.156-.438.374 0 .141.313.266.485.266.578 0 .406-.047.406.078 0 .078-.11.485-.172.735L.547-3.078c-.14.594-.188.781-.188 1.203 0 1.14.829 2 1.72 2 1.405 0 3.077-1.906 3.077-3.625zm-1.265-.531c0 .703-.391 2.078-.61 2.531-.39.813-.734 1.11-1.203 1.11-.406 0-.61-.188-.61-1.079 0-.234 0-.453.188-1.203l.266-1.11c.078-.265.016-.187.125-.312.578-.781.984-.922 1.297-.922.437 0 .547.22.547.985zm0 0"/></svg><svg overflow="visible" x="335.596" y="37.636"><path d="M5.766-5.297c0-.125-.188-.016-.188-.016l-.125-.234c-.094 0-.266.063-.328.172-.36.563-.469.719-.75.719s-.297-.14-.484-.344c-.22-.266-.563-.547-.954-.547-.89 0-1.64 1.25-1.64 1.5 0 .047.234.25.344.25.109 0 .312-.187.343-.25.235-.562.735-.437.829-.437.25 0 .468.078.75.187.484.172.609.172.578.172-.235.281-1.235 1.156-1.47 1.344l-1.062 1C.781-.984.313-.203.313-.125.313 0 .78.094.78.094L.656.125c.094 0 .25-.047.328-.188.266-.421.5-.703.875-.703.282 0 .25.079.563.422.203.25.547.469.906.469 1.172 0 2.063-1.64 2.063-1.969 0-.062-.235-.25-.329-.25-.109 0-.343.203-.375.281-.28.782-.843.875-1.234.875C3.22-.938 3-1 2.75-1.093c-.406-.156-.594-.203-.844-.203l.14.234s-.343-.234-.452-.187l.125.219c.64-.688 1-.985 1.422-1.36 0 0 .75-.64 1.171-1.078 1.141-1.11 1.454-1.781 1.454-1.828zm0 0"/></svg><svg overflow="visible" x="344.825" y="37.636"><path d="M8.828-4.281c0-.125-.312-.375-.437-.375H.906c-.125 0-.437.25-.437.375 0 .14.312.375.437.375h7.485c.125 0 .437-.235.437-.375zm0 2.328c0-.14-.312-.375-.437-.375H.906c-.125 0-.437.234-.437.375 0 .125.312.36.437.36h7.485c.125 0 .437-.235.437-.36zm0 0"/></svg><svg overflow="visible" x="357.45" y="37.636"><path d="M5.203-.125v-.516h-.578c-1.078 0-.922 0-.922-.437v-6.703c0-.282-.187-.438-.578-.438-.766.797-1.672.766-2.266.766v.625c.438 0 1.282-.031 1.563-.172v5.922c0 .437.172.437-.906.437H.937v.672C1.547-.03 2.595-.03 3.079-.03c.469 0 1.516 0 2.125.062zm0 0"/></svg><svg overflow="visible" x="363.435" y="18.716"><path d="M4.328-.125v-18.063H.594c-.203 0-.563.282-.563.485s.36.484.563.484h2.625V0h1.11zm0 0"/></svg><svg overflow="visible" x="363.435" y="26.279"><path d="M4.14-12.219H3.22V0h1.11v-12.219zm0 0"/></svg><svg overflow="visible" x="363.435" y="39.819"><path d="M4.328-.125v-18.063h-1.11V-.983H.595c-.203 0-.563.296-.563.5 0 .203.36.484.563.484h3.734zm0 0"/></svg></svg>