<svg xmlns="http://www.w3.org/2000/svg" xmlns:xlink="http://www.w3.org/1999/xlink" width="489px" height="56" viewBox="0 0 367 42"><defs><symbol overflow="visible" id="a"><path d="M2.313-.766c0-.359-.454-.828-.829-.828-.359 0-.828.469-.828.828 0 .36.469.829.813.829.39 0 .843-.454.843-.829zm0 0"/></symbol><symbol overflow="visible" id="b"><path d="M8.266-4.078a1.419 1.419 0 01-.047-.36c0-.109.015-.234.062-.484h-7.5c.063.25.063.375.063.484 0 .125 0 .235-.063.5h7.5zm0 2.625a1.332 1.332 0 01-.047-.36c0-.109.015-.234.062-.484h-7.5c.063.25.063.375.063.485 0 .125 0 .25-.063.5h7.5zm0 0"/></symbol><symbol overflow="visible" id="c"><path d="M7.063-14.328l-.188-.14c-.063-.063-.11-.126-.219-.329C3.47-11.609 1.563-7.344 1.563-2.516V0h1.234v-2.516c0-4.625 1.344-8.687 4.39-11.75zm0 0"/></symbol><symbol overflow="visible" id="d"><path d="M2.797-.125V-5H1.562v5h1.235zm0 0"/></symbol><symbol overflow="visible" id="e"><path d="M7.063-.563C4.14-3.5 2.796-7.546 2.796-12.187v-2.516H1.562v2.515c0 4.829 1.907 9.094 5.094 12.282.11-.203.157-.266.219-.328.063-.047.125-.094.313-.203zm0 0"/></symbol><symbol overflow="visible" id="f"><path d="M4.563-8.781l-.188-.14c-.063-.063-.11-.126-.219-.329-1.781 1.781-2.812 3.719-2.812 5.563v1.124c0 1.86 1.031 3.797 2.812 5.579.11-.204.157-.266.219-.329.063-.062.125-.109.313-.203C3.046.844 2.374-.844 2.374-2.562v-1.126c0-1.703.672-3.39 2.313-5.03zm0 0"/></symbol><symbol overflow="visible" id="g"><path d="M5.875-5.875c-.14-.078-.344-.156-.453-.156-.469 0-1.063.468-1.797 1.578l-.453.656.25.094-.078-.578c-.14-1.188-.594-1.75-1.297-1.75-.313 0-.688.14-.797.297L.484-4.61l.407.25c.437-.485.578-.61.812-.61.39 0 .516.36.719 1.532l.125.718-.438.656C1.594-1.25 1.297-.905.953-.905c-.172 0-.172.078-.203.015l-.188-.468-.453.062c0 .36-.03.516-.093.89-.032.141-.047.173-.063.329.219.125.531.203.672.203.39 0 .953-.375 1.328-.938l.906-1.406-.234-.094.125.829c.172 1.015.578 1.609 1 1.609.266 0 .75-.234 1.125-.578l.64-.578-.218-.469c-.578.453-.766.61-.953.61-.188 0-.25-.094-.453-.5.015.046-.11-.407-.172-.75L3.5-3.313l.39-.532c.563-.765.782-1.015 1.157-1.015.187 0 .187-.032.312.312l.36-.11.203-1.171zm0 0"/></symbol><symbol overflow="visible" id="i"><path d="M8.266-2.766a1.332 1.332 0 01-.047-.359c0-.11.015-.234.062-.484h-7.5c.063.25.063.375.063.484 0 .125 0 .25-.063.5h7.5zm0 0"/></symbol><symbol overflow="visible" id="k"><path d="M2.516-3.125c0-.422-.407-.844-.844-.844-.422 0-.86.422-.86.844 0 .438.438.86.86.86.437 0 .844-.422.844-.86zm0 0"/></symbol><symbol overflow="visible" id="l"><path d="M5.953-5.875l-.203-.156c-.375.14-.64.203-1.016.234l-.453 1.703c-.14.563-.531 1.344-.922 1.938-.421.61-.89 1.094-1.156 1.094-.265 0-.11-.438-.094-.594l.172-2.328c.031-.36.047-.829.047-1.157 0-.53-.219-.89-.422-.89-.156 0-.422.125-1 .515L-.14-4.78l.266.437.734-.453c.063-.047.125-.11.204-.11.312 0 .125.485.109.673L.969-1.328l-.016.484c-.015.5.36.969.656.969.454 0 1.547-1.047 2.438-2.39l-.234-.094-.579 2.03c-.609 2.126-1.078 2.86-1.906 2.86-.422 0-.61-.187-.61-.61 0-.062.016-.155.032-.343l-.297-.11-.672.485c-.015.156-.015.219-.015.281 0 .516.578 1.063 1.125 1.063 1.265 0 2.703-1.61 3.406-3.828L6-5.828zm0 0"/></symbol><symbol overflow="visible" id="m"><path d="M4.094-2.563v-1.124c0-1.844-1.016-3.782-2.813-5.563-.11.203-.156.266-.218.328-.063.047-.125.094-.313.203 1.64 1.64 2.313 3.328 2.313 5.031v1.126C3.063-.845 2.39.844.75 2.484c.188.094.25.141.313.204.062.062.109.124.218.328 1.797-1.782 2.813-3.72 2.813-5.579zm0 0"/></symbol><symbol overflow="visible" id="n"><path d="M4.86-8.031c-.11.015-.204.031-.313.031-.094 0-.203-.016-.39-.063L.75 1.86c.297-.093.406-.109.5-.109.11 0 .203.016.39.063l3.407-9.891zm0 0"/></symbol><symbol overflow="visible" id="p"><path d="M8.266-2.766a1.332 1.332 0 01-.047-.359c0-.11.015-.234.062-.484h-3.25v-3.266c-.25.063-.375.078-.484.078-.125 0-.25-.016-.5-.078v3.266H.78c.063.25.063.375.063.484 0 .125 0 .25-.063.5h3.266V.641c.25-.063.375-.079.5-.079.11 0 .234.016.484.079v-3.266h3.25zm0 0"/></symbol><symbol overflow="visible" id="q"><path d="M5.125-.094v-.484l-.75-.047c-.656-.031-.64-.031-.64-.656v-7.172l-.313-.125c-.875.469-1.61.781-2.86 1.219l.125.718h.235l1.547-.687.031-.016c.063 0-.047-.015-.047.266v5.797c0 .625.016.625-.64.656L1-.578v.625L3.125 0l2 .047zm0 0"/></symbol><symbol overflow="visible" id="r"><path d="M6.531-.125v-2.39c0-4.829-1.875-9.094-5.078-12.282-.11.203-.156.266-.219.328-.062.047-.125.094-.312.203 3.062 3.063 4.39 7.125 4.39 11.75V0h1.22zm0 0"/></symbol><symbol overflow="visible" id="s"><path d="M6.531-.125V-5H5.313v5H6.53zm0 0"/></symbol><symbol overflow="visible" id="t"><path d="M6.531-12.188v-2.515H5.313v2.515C5.313-7.546 3.984-3.5.921-.438c.187.11.25.157.312.204.063.062.11.125.22.328C4.655-3.094 6.53-7.36 6.53-12.187zm0 0"/></symbol><symbol overflow="visible" id="u"><path d="M2.703-1.531L2.47-1.75c-.36.125-.563.203-1.328.406C1.047-.328.78.344.016 1.625l.312.25.61-.281C1.905.328 2.405-.516 2.75-1.47zm0 0"/></symbol><symbol overflow="visible" id="w"><path d="M8.484-4.719c0-.687-.437-1.312-.875-1.312-.156 0-.406.093-.5.187l-.671.625.265.453c.25-.171.266-.171.375-.171.328 0 .375.14.375.625 0 1.734-1.016 3.578-2.031 3.578-.36 0-.469-.344-.469-1 0-.563.11-1.344.25-1.86l.625-2.234-.187-.219-1.032.313-.375 1.89c-.14.735-.28 1.125-.625 1.766-.484.89-.828 1.344-1.187 1.344-.406 0-.563-.329-.563-1.016 0-1.422.454-2.5 1.704-3.906l-.235-.407c-.281.141-.437.188-.765.188-.5 0-.985-.047-1.47-.094-.155 0-.25.032-.5.125-.155.328-.327.844-.515 1.64h.5l.266-.64c.094-.203.203-.203.484-.203.219 0 .438.031.672.031.25 0 .406-.015.422-.015.062-.11-.063.015-.188.172C1.156-3.61.72-2.656.72-1.641c0 .985.562 1.766 1.187 1.766.766 0 1.485-.688 2.375-2.39l-.234-.094c-.11.515-.156.812-.156 1.093 0 .75.5 1.391 1.03 1.391.97 0 2.36-1.328 3.095-2.969.265-.594.468-1.406.468-1.875zm0 0"/></symbol><symbol overflow="visible" id="x"><path d="M5.719-1.25l-.172-.297-.453.297c-.344.219-.5.313-.625.313-.078 0-.016.03-.016-.11 0-.11 0-.203.078-.469l.766-3.062c.062-.313.125-.688.125-.89 0-.25-.266-.563-.469-.563-.406 0-1.25.437-2 1.078-.422.344-.61.562-1.172 1.266l-.234.296.234.094L2.97-8.812l-.266-.235c-.75.375-1.078.438-2.062.531l-.094.5h.75c.281 0 .25-.046.25.157 0 .109 0 .203-.016.296l-.5 2.797C.703-2.969.234-.906-.03-.125l.156.25 1.016-.234c.203-1.485.375-2.11.718-2.75.532-.97 1.672-2.094 2.188-2.094.156 0 .11-.016.11.14 0 .204-.063.672-.173 1.063l-.609 2.344c-.11.422-.156.687-.156.922 0 .28.265.593.5.593.312 0 .828-.28 2.078-1.218zm0 0"/></symbol><symbol overflow="visible" id="y"><path d="M4.61-4.953c0-.563-.532-1.078-1.141-1.078-.781 0-2.188.843-2.672 1.61C.437-3.845.03-2.313.03-1.47.031-.547.703.125 1.563.125 2.25.125 3-.235 4.171-1.188l-.203-.468-.438.312c-.64.453-1.11.657-1.531.657-.578 0-.781-.313-.781-1.047 0-.313.031-.61.078-.844l.86-.219c.202-.047.515-.172.827-.297C4-3.547 4.61-4.219 4.61-4.954zm-1.173.187c0 .516-.265.954-.89 1.25a5.596 5.596 0 01-1.125.375l.062-.265c.188-.797.391-1.219.72-1.516.218-.219.515-.344.812-.344.343 0 .421.11.421.5zm0 0"/></symbol><symbol overflow="visible" id="z"><path d="M4.594-5.953c-.14-.063-.188-.078-.25-.078-.36 0-.844.328-1.266.937-.406.594-.86 1.25-1.172 1.907h.282L2.5-4.704c.063-.25.14-.531.14-.813 0-.234-.218-.515-.406-.515-.25 0-.812.297-1.703.922l-.39.296.187.485.547-.36c.328-.218.375-.234.469-.234.125 0 .062-.031.062.125 0 .703-.515 3.156-1 4.75l.235.172c.296-.094.562-.156.953-.203l.328-1.563c.219-.984.453-1.53.984-2.203.406-.531.625-.75.89-.75.188 0 .204.032.36.235h.36c.046-.594.109-.97.218-1.532zm0 0"/></symbol><symbol overflow="visible" id="A"><path d="M3.766-2.719v-.797c0-1.515-.907-3.171-2.516-4.78-.11.202-.156.265-.203.327-.063.063-.125.11-.313.203 1.438 1.47 2.032 2.86 2.032 4.25v.797c0 1.375-.594 2.781-2.032 4.25.188.094.25.14.313.203.047.063.094.125.203.329C2.86.452 3.766-1.204 3.766-2.72zm0 0"/></symbol><symbol overflow="visible" id="B"><path d="M4.938-8.875c-.204-.094-.547-.156-.844-.156-.125 0-.422.078-.578.156-.125.063-1.204.828-1.485 1.125-.265.25-.437.703-.578 1.39l-.156.876c-.36.171-.61.265-1.016.421l-.125.485h.985l-.094.531C.687-1.703.25.516-.016 1.343c-.218.704-.421.938-.859.938-.266 0-.313-.047-.578-.375l-.328.11c-.078.375-.203.859-.328 1.109.171.11.453.172.593.172.485 0 1.235-.406 1.688-.969.734-.86 1.016-1.781 1.906-5.984.063-.297.156-.656.203-.922h1.25c.063-.36.156-.64.219-.813l-.11-.234-.156.063c-.28.078-.406.078-1 .078h-.03l.218-1.204c.203-1.03.406-1.359.953-1.359.36 0 .578.14.797.5l.281-.11.313-.905.078-.235zm0 0"/></symbol><symbol overflow="visible" id="C"><path d="M4.984-1.14l-.156-.485c-.25.203-.266.219-.328.266-.375.312-.453.39-.625.39-.125 0-.047.031-.047-.156 0-.047 0-.078.016-.125l1.11-4.578-.25-.203-.438.218c-.438-.156-.672-.218-.985-.218-.344 0-.578.062-.906.218-.75.375-1.234.766-1.531 1.36l-.047.094C.28-3.297-.093-1.875-.093-.922c0 .516.327 1.047.546 1.047.25 0 .797-.281 1.234-.656.516-.453.985-1.016 1.641-1.938l-.234-.094-.344 1.516a2.715 2.715 0 00-.078.61c0 .265.25.562.437.562.266 0 .86-.36 1.891-1.219zM3.672-5.079c-.266 1.281-.453 1.797-.844 2.406C2.156-1.656 1.516-.969 1.125-.969c-.14 0-.078-.015-.078-.344 0-.765.297-2.093.719-3.093.296-.688.453-.766 1.03-.766.282 0 .5.047.86.172zm0 0"/></symbol><symbol overflow="visible" id="D"><path d="M6.234-1.25l-.171-.297-.454.297c-.343.219-.5.313-.625.313-.078 0-.03.03-.03-.11 0-.047.015-.187.03-.234l.782-3.297c.093-.344.14-.688.14-.89 0-.266-.265-.563-.5-.563-.5 0-1.437.5-2.14 1.156-.454.422-.797.828-1.407 1.703l.235.094.453-1.938c.047-.203.078-.343.078-.484 0-.25-.234-.531-.406-.531-.266 0-.828.312-1.703.922l-.391.296.172.485.547-.36c.437-.28.39-.265.469-.265.14 0 .078 0 .078.172 0 .61-.5 2.922-.985 4.656l.172.25c.36-.094.625-.172 1.016-.234.234-1.625.468-2.313 1-3.125.656-1.016 1.453-1.72 1.984-1.72.125 0 .063-.015.063.157 0 .219-.032.469-.141.86l-.61 2.53c-.109.438-.156.72-.156.907 0 .297.266.61.5.61.313 0 .829-.282 2.079-1.22zm0 0"/></symbol><symbol overflow="visible" id="E"><path d="M5.875-8.86l-.219-.187c-.75.375-1.078.438-2.062.531l-.094.5h.75c.281 0 .25-.046.25.157 0 .109 0 .203-.016.296L4.188-5.89a3.109 3.109 0 00-.875-.14c-.829 0-2.063.906-2.61 1.937-.375.703-.64 1.938-.64 2.938C.063-.375.374.125.734.125c.313 0 .86-.234 1.266-.563.64-.515 1.031-.984 1.844-2.187l-.25-.094-.266 1.078c-.14.532-.203.907-.203 1.22 0 .25.25.546.453.546.219 0 .594-.203 1-.5l1.047-.766-.266-.468-.656.468c-.172.125-.25.172-.36.172-.093 0-.046.031-.046-.14 0-.094.031-.204.11-.547l1.515-7.157zM4.031-5.03l-.14.703A5.233 5.233 0 012.375-1.61c-.422.39-.781.64-1.016.64-.187 0-.171-.031-.171-.328 0-1.516.515-3.281 1.109-3.734.156-.125.281-.14.61-.14.53 0 .765.03 1.109.218zm0 0"/></symbol><symbol overflow="visible" id="h"><path d="M4.781-.11V-.5l-.61-.031c-.468-.031-.421-.016-.421-.531v-.532c.422 0 .625 0 1.031.047v-.781l-.047.094s-.562-.204-.875-.204H3.75V-3.53c0-1.578.016-2.328.078-2.766l-.281-.11-.813.282-2.796 4.172.187.36h2.5v.53c0 .516.047.516-.422.532l-.75.031v.531L3.172 0l1.61.031zm-2-2.328H.97L2.89-5.312l-.266-.094v2.968zm0 0"/></symbol><symbol overflow="visible" id="j"><path d="M4.75-.11c-.016-.187-.016-.265-.016-.39s0-.203.032-.547l-3.141.094 1.5-1.469c.938-.906 1.266-1.5 1.266-2.156 0-1.016-.891-1.781-2.125-1.781-.688 0-1.282.218-1.782.687L.297-4.266h.547l.172-.546c.156-.516.359-.594 1-.594.828 0 1.203.343 1.203 1.093 0 .657-.36 1.22-1.453 2.282L.078-.391v.422L2.391 0l2.375.031zm0 0"/></symbol><symbol overflow="visible" id="o"><path d="M4.703-2.11c0-.421-.25-.89-.594-1.124a2.225 2.225 0 00-.703-.282c.531-.375.86-.875.86-1.406 0-.781-.86-1.437-1.938-1.437-.64 0-1.203.203-1.687.656L.312-4.406h.594l.219-.625c.11-.297.563-.469 1.063-.469.624 0 .984.328.984.89 0 .673-.406 1.094-1.094 1.094-.078 0-.36.204-.36.204l-.265-.094-.125.515.203.157c.407-.172.594-.22.844-.22.813 0 1.11.329 1.11 1.142 0 .906-.422 1.359-1.329 1.359-.437 0-.719-.094-1.015-.344C.906-.984.828-1.094.578-1.75l-.531.188c.234.609.312.937.375 1.468C1.078.11 1.5.172 1.859.172c.782 0 1.766-.422 2.297-1.016.328-.375.547-.86.547-1.265zm0 0"/></symbol><symbol overflow="visible" id="v"><path d="M1.297-2.64c0 1.906 1.062 3.874 2.875 5.671.125-.219.172-.281.234-.344.047-.062.11-.109.297-.203C3.078.844 2.422-.89 2.422-2.64v-.953c0-1.765.656-3.484 2.281-5.125-.187-.11-.25-.156-.297-.203-.062-.062-.11-.125-.234-.36-1.813 1.813-2.875 3.766-2.875 5.688zm0 0"/></symbol></defs><use xlink:href="#a" x=".212" y="24.29"/><use xlink:href="#a" x="3.201" y="24.29"/><use xlink:href="#a" x="6.19" y="24.29"/><use xlink:href="#b" x="12.49" y="24.29"/><use xlink:href="#c" x="24.906" y="16.225"/><use xlink:href="#d" x="24.906" y="20.189"/><use xlink:href="#d" x="24.906" y="23.668"/><use xlink:href="#d" x="24.906" y="27.147"/><use xlink:href="#e" x="24.906" y="40.819"/><use xlink:href="#f" x="33.024" y="9.744"/><use xlink:href="#g" x="38.476" y="9.744"/><use xlink:href="#h" x="44.453" y="12.518"/><use xlink:href="#i" x="52.607" y="9.745"/><use xlink:href="#g" x="64.347" y="9.745"/><use xlink:href="#j" x="70.327" y="12.518"/><use xlink:href="#k" x="78.481" y="9.745"/><use xlink:href="#l" x="84.483" y="9.745"/><use xlink:href="#h" x="90.463" y="12.518"/><use xlink:href="#j" x="95.461" y="12.518"/><use xlink:href="#m" x="100.958" y="9.744"/><use xlink:href="#n" x="108.394" y="9.744"/><use xlink:href="#f" x="116.201" y="9.744"/><use xlink:href="#g" x="121.652" y="9.744"/><use xlink:href="#o" x="127.634" y="12.518"/><use xlink:href="#i" x="135.788" y="9.745"/><use xlink:href="#g" x="147.528" y="9.745"/><use xlink:href="#j" x="153.508" y="12.518"/><use xlink:href="#k" x="161.662" y="9.745"/><use xlink:href="#l" x="167.664" y="9.745"/><use xlink:href="#o" x="173.644" y="12.518"/><use xlink:href="#j" x="178.642" y="12.518"/><use xlink:href="#m" x="184.139" y="9.744"/><use xlink:href="#l" x="64.603" y="38.636"/><use xlink:href="#h" x="70.581" y="41.41"/><use xlink:href="#j" x="75.579" y="41.41"/><use xlink:href="#p" x="83.733" y="38.636"/><use xlink:href="#f" x="95.473" y="38.636"/><use xlink:href="#q" x="100.925" y="38.636"/><use xlink:href="#i" x="109.556" y="38.636"/><use xlink:href="#l" x="121.296" y="38.636"/><use xlink:href="#o" x="127.282" y="41.41"/><use xlink:href="#j" x="132.28" y="41.41"/><use xlink:href="#m" x="137.777" y="38.636"/><use xlink:href="#k" x="145.883" y="38.636"/><use xlink:href="#g" x="151.884" y="38.636"/><use xlink:href="#r" x="189.59" y="16.225"/><use xlink:href="#s" x="189.59" y="20.189"/><use xlink:href="#s" x="189.59" y="23.668"/><use xlink:href="#s" x="189.59" y="27.147"/><use xlink:href="#t" x="189.59" y="40.819"/><use xlink:href="#u" x="199.7" y="24.29"/><use xlink:href="#v" x="204.682" y="24.29"/><use xlink:href="#w" x="210.134" y="24.29"/><use xlink:href="#x" x="218.813" y="24.29"/><use xlink:href="#y" x="224.791" y="24.29"/><use xlink:href="#z" x="229.597" y="24.29"/><use xlink:href="#y" x="234.523" y="24.29"/><use xlink:href="#A" x="239.329" y="24.29"/><use xlink:href="#B" x="244.398" y="24.29"/><use xlink:href="#o" x="247.733" y="27.064"/><use xlink:href="#j" x="252.731" y="27.064"/><use xlink:href="#b" x="261.549" y="24.29"/><use xlink:href="#l" x="275.151" y="15.682"/><use xlink:href="#o" x="281.129" y="18.456"/><path d="M275.152 21.3h11.473" fill="none" stroke-width=".717" stroke="#000" stroke-miterlimit="10"/><use xlink:href="#l" x="275.151" y="32.253"/><use xlink:href="#j" x="281.129" y="35.027"/><g><use xlink:href="#u" x="287.821" y="24.29"/></g><g><use xlink:href="#v" x="292.803" y="24.29"/></g><g><use xlink:href="#C" x="298.254" y="24.29"/><use xlink:href="#D" x="303.562" y="24.29"/><use xlink:href="#E" x="310.209" y="24.29"/></g><g><use xlink:href="#A" x="316.318" y="24.29"/></g><g><use xlink:href="#B" x="324.376" y="24.29"/></g><g><use xlink:href="#h" x="327.7" y="27.064"/><use xlink:href="#j" x="332.698" y="27.064"/></g><g><use xlink:href="#b" x="341.516" y="24.29"/></g><g><use xlink:href="#l" x="355.119" y="15.682"/></g><g><use xlink:href="#h" x="361.096" y="18.456"/></g><path d="M355.117 21.3h11.477" fill="none" stroke-width=".717" stroke="#000" stroke-miterlimit="10"/><g><use xlink:href="#l" x="355.119" y="32.253"/></g><g><use xlink:href="#j" x="361.096" y="35.027"/></g></svg>