<svg xmlns="http://www.w3.org/2000/svg" xmlns:xlink="http://www.w3.org/1999/xlink" width="447px" height="57px" viewBox="0 0 335 43"><svg overflow="visible" x="-.15" y="24.258"><path d="M7.594-8.531L4.219-8.5l-3.5-.047-.235 2.235h.594l.219-.844c.047-.266.11-.36.172-.453.078-.079.437-.11.875-.11h1.172l-1 6.094c-.188 1.094-.079 1-.563 1.031l-.719.031-.093.61L3 0l1.703.047.063-.61-.844-.03c-.313-.016-.297.015-.297-.235 0-.11 0-.156.047-.422l1.094-6.469h.765c.938 0 1.219-.078 1.266.063.031.11.047.328.047.453l-.063.89h.594l.375-2.234zm0 0"/></svg><svg overflow="visible" x="7.154" y="27.032"><path d="M4.266-.11V-.5l-.657-.031c-.515-.031-.468.015-.468-.453v-5.329l-.282-.093c-.625.297-1.312.562-2.375.906l.11.594h.234l1.25-.516.031-.016c.047 0-.078-.046-.078.172v4.282c0 .468.047.421-.469.453L.86-.5v.531L2.594 0l1.672.031zm0 0"/></svg><svg overflow="visible" x="15.972" y="24.258"><path d="M8.266-4.078a1.419 1.419 0 01-.047-.36c0-.109.015-.234.062-.484h-7.5c.063.25.063.375.063.484 0 .125 0 .235-.063.5h7.5zm0 2.625a1.332 1.332 0 01-.047-.36c0-.109.015-.234.062-.484h-7.5c.063.25.063.375.063.485 0 .125 0 .25-.063.5h7.5zm0 0"/></svg><svg overflow="visible" x="28.379" y="15.388"><path d="M5.078-14.781H1.562V0h1.235v-14.031h2.469c-.079-.203-.094-.281-.094-.375 0-.078.016-.172.094-.375zm0 0"/></svg><svg overflow="visible" x="28.379" y="23.112"><path d="M2.672-9.938h-1.11V0h1.235v-9.938zm0 0"/></svg><svg overflow="visible" x="28.379" y="29.109"><path d="M2.672-9.938h-1.11V0h1.235v-9.938zm0 0"/></svg><svg overflow="visible" x="28.379" y="41.663"><path d="M5.219-.125a.648.648 0 01-.047-.25c0-.078.016-.156.094-.36h-2.47V-14.78H1.564V0h3.703zm0 0"/></svg><svg overflow="visible" x="39.589" y="8.745"><path d="M5.125-.094v-.484l-.75-.047c-.656-.031-.64-.031-.64-.656v-7.172l-.313-.125c-.875.469-1.61.781-2.86 1.219l.125.718h.235l1.547-.687.031-.016c.063 0-.047-.015-.047.266v5.797c0 .625.016.625-.64.656L1-.578v.625L3.125 0l2 .047zm0 0"/></svg><svg overflow="visible" x="55.525" y="8.745"><path d="M5.688-4.5c0-2.625-.907-4-2.547-4C1.297-8.5.203-6.89.203-4c0 1.39.281 2.703.703 3.281.422.594 1.203.953 1.938.953 1.812 0 2.844-1.687 2.844-4.734zm-1.282.594C4.406-1.36 4.094-.437 3-.437c-1.156 0-1.516-1.079-1.516-4 0-2.516.313-3.375 1.438-3.375 1.172 0 1.484 1.03 1.484 3.906zm0 0"/></svg><svg overflow="visible" x="71.497" y="8.745"><path d="M8.266-2.766a1.332 1.332 0 01-.047-.359c0-.11.015-.234.062-.484h-7.5c.063.25.063.375.063.484 0 .125 0 .25-.063.5h7.5zm0 0"/></svg><svg overflow="visible" x="80.583" y="8.745"><path d="M7.234-6.594c0-1.218-1.265-1.937-2.312-1.937-.547 0-1.094.031-1.64.031l-2.126-.047-.062.61.812.03c.297 0 .282-.03.282.188 0 .172-.047.532-.11.907l-.89 5.187C1-.531 1.125-.641.64-.594l-.61.031-.093.61L1.688 0l1.78.047.063-.61-.922-.03c-.312-.016-.296.015-.296-.235 0-.11 0-.188.046-.422l.97-5.813-.032.094s.078-.343.14-.578c.016-.062.047-.172.063-.203.328-.063.516-.094.75-.094 1.219 0 1.656.39 1.656 1.516 0 1.281-.718 2.203-1.765 2.203-.266 0-.5-.063-1.11-.281l.047.625c.578.281.813.344 1.172.344 1.531 0 2.984-1.532 2.984-3.157zm0 0"/></svg><svg overflow="visible" x="87.891" y="11.518"><path d="M4.266-.11V-.5l-.657-.031c-.515-.031-.468.015-.468-.453v-5.329l-.282-.093c-.625.297-1.312.562-2.375.906l.11.594h.234l1.25-.516.031-.016c.047 0-.078-.046-.078.172v4.282c0 .468.047.421-.469.453L.86-.5v.531L2.594 0l1.672.031zm0 0"/></svg><svg overflow="visible" x="93.388" y="12.571"><path d="M4.86-4.406c-.126-.063-.313-.125-.391-.125-.39 0-.89.36-1.485 1.172l-.359.484.266.094-.063-.422c-.11-.875-.515-1.328-1.094-1.328-.25 0-.578.11-.671.218l-.641.875.406.22c.36-.376.453-.454.625-.454.328 0 .375.219.531 1.094l.11.515-.328.485c-.422.594-.641.828-.907.828-.14 0-.093.11-.109.063l-.172-.407-.453.063c0 .297-.016.406-.078.687-.016.11-.016.14-.031.266.187.11.468.172.578.172.312 0 .797-.281 1.094-.703l.734-1.032-.266-.109.11.625c.125.75.5 1.219.843 1.219.22 0 .625-.188.938-.438l.531-.437-.203-.438c-.516.39-.64.485-.781.485-.156 0-.172-.047-.266-.235-.094-.156-.156-.39-.203-.656l-.172-.844.297-.375c.453-.578.61-.75.906-.75.157 0 .11-.062.219.235l.36-.094.187-.922zm0 0"/></svg><svg overflow="visible" x="39.589" y="23.19"><path d="M5.688-4.5c0-2.625-.907-4-2.547-4C1.297-8.5.203-6.89.203-4c0 1.39.281 2.703.703 3.281.422.594 1.203.953 1.938.953 1.812 0 2.844-1.687 2.844-4.734zm-1.282.594C4.406-1.36 4.094-.437 3-.437c-1.156 0-1.516-1.079-1.516-4 0-2.516.313-3.375 1.438-3.375 1.172 0 1.484 1.03 1.484 3.906zm0 0"/></svg><svg overflow="visible" x="55.525" y="23.19"><path d="M5.125-.094v-.484l-.75-.047c-.656-.031-.64-.031-.64-.656v-7.172l-.313-.125c-.875.469-1.61.781-2.86 1.219l.125.718h.235l1.547-.687.031-.016c.063 0-.047-.015-.047.266v5.797c0 .625.016.625-.64.656L1-.578v.625L3.125 0l2 .047zm0 0"/></svg><svg overflow="visible" x="71.462" y="23.19"><path d="M8.266-2.766a1.332 1.332 0 01-.047-.359c0-.11.015-.234.062-.484h-7.5c.063.25.063.375.063.484 0 .125 0 .25-.063.5h7.5zm0 0"/></svg><svg overflow="visible" x="80.548" y="23.19"><path d="M7.234-6.594c0-1.218-1.265-1.937-2.312-1.937-.547 0-1.094.031-1.64.031l-2.126-.047-.062.61.812.03c.297 0 .282-.03.282.188 0 .172-.047.532-.11.907l-.89 5.187C1-.531 1.125-.641.64-.594l-.61.031-.093.61L1.688 0l1.78.047.063-.61-.922-.03c-.312-.016-.296.015-.296-.235 0-.11 0-.188.046-.422l.97-5.813-.032.094s.078-.343.14-.578c.016-.062.047-.172.063-.203.328-.063.516-.094.75-.094 1.219 0 1.656.39 1.656 1.516 0 1.281-.718 2.203-1.765 2.203-.266 0-.5-.063-1.11-.281l.047.625c.578.281.813.344 1.172.344 1.531 0 2.984-1.532 2.984-3.157zm0 0"/></svg><svg overflow="visible" x="87.86" y="25.964"><path d="M4.266-.11V-.5l-.657-.031c-.515-.031-.468.015-.468-.453v-5.329l-.282-.093c-.625.297-1.312.562-2.375.906l.11.594h.234l1.25-.516.031-.016c.047 0-.078-.046-.078.172v4.282c0 .468.047.421-.469.453L.86-.5v.531L2.594 0l1.672.031zm0 0"/></svg><svg overflow="visible" x="93.357" y="27.017"><path d="M4.922-4.406l-.188-.14a3.25 3.25 0 01-.875.202L3.5-3.062c-.125.421-.406.968-.734 1.406-.329.437-.688.797-.907.797-.203 0-.03-.297-.03-.407l.14-1.718c.015-.266.047-.61.047-.86 0-.39-.22-.687-.391-.687-.125 0-.375.093-.828.39l-.89.563.265.375.64-.36c.047-.03.063-.062.141-.062.235 0 .047.313.031.453L.828-1.016l-.015.36c0 .36.343.75.578.75.359 0 1.265-.781 2-1.782l-.266-.093-.484 1.5c-.485 1.578-.813 2.078-1.485 2.078-.328 0-.453-.094-.453-.406 0-.047.016-.11.047-.266l-.297-.11-.578.376c-.031.125-.031.187-.031.234 0 .375.531.813.969.813 1.015 0 2.218-1.22 2.78-2.86l1.391-3.937zm0 0"/></svg><svg overflow="visible" x="39.589" y="39.571"><path d="M5.688-4.5c0-2.625-.907-4-2.547-4C1.297-8.5.203-6.89.203-4c0 1.39.281 2.703.703 3.281.422.594 1.203.953 1.938.953 1.812 0 2.844-1.687 2.844-4.734zm-1.282.594C4.406-1.36 4.094-.437 3-.437c-1.156 0-1.516-1.079-1.516-4 0-2.516.313-3.375 1.438-3.375 1.172 0 1.484 1.03 1.484 3.906zm0 0"/></svg><svg overflow="visible" x="55.525" y="39.571"><path d="M5.688-4.5c0-2.625-.907-4-2.547-4C1.297-8.5.203-6.89.203-4c0 1.39.281 2.703.703 3.281.422.594 1.203.953 1.938.953 1.812 0 2.844-1.687 2.844-4.734zm-1.282.594C4.406-1.36 4.094-.437 3-.437c-1.156 0-1.516-1.079-1.516-4 0-2.516.313-3.375 1.438-3.375 1.172 0 1.484 1.03 1.484 3.906zm0 0"/></svg><svg overflow="visible" x="82.197" y="39.571"><path d="M5.125-.094v-.484l-.75-.047c-.656-.031-.64-.031-.64-.656v-7.172l-.313-.125c-.875.469-1.61.781-2.86 1.219l.125.718h.235l1.547-.687.031-.016c.063 0-.047-.015-.047.266v5.797c0 .625.016.625-.64.656L1-.578v.625L3.125 0l2 .047zm0 0"/></svg><svg overflow="visible" x="103.897" y="15.388"><path d="M4.656-.125v-14.656H.953c.078.203.094.297.094.375 0 .094-.016.172-.094.375h2.469V0h1.234zm0 0"/></svg><svg overflow="visible" x="103.897" y="23.112"><path d="M4.656-.125v-9.813H3.422V0h1.234zm0 0"/></svg><svg overflow="visible" x="103.897" y="29.109"><path d="M4.656-.125v-9.813H3.422V0h1.234zm0 0"/></svg><svg overflow="visible" x="103.897" y="41.663"><path d="M4.656-.125v-14.656H3.422V-.734H.953c.078.203.094.28.094.359 0 .094-.016.172-.094.375h3.703zm0 0"/></svg><svg overflow="visible" x="112.782" y="24.258"><path d="M2.516-3.125c0-.422-.407-.844-.844-.844-.422 0-.86.422-.86.844 0 .438.438.86.86.86.437 0 .844-.422.844-.86zm0 0"/></svg><svg overflow="visible" x="118.787" y="16.264"><path d="M5.078-14.781H1.562V0h1.235v-14.031h2.469c-.079-.203-.094-.281-.094-.375 0-.078.016-.172.094-.375zm0 0"/></svg><svg overflow="visible" x="118.787" y="23.559"><path d="M2.672-9.938h-1.11V0h1.235v-9.938zm0 0"/></svg><svg overflow="visible" x="118.787" y="28.662"><path d="M2.672-9.938h-1.11V0h1.235v-9.938zm0 0"/></svg><svg overflow="visible" x="118.787" y="40.787"><path d="M5.219-.125a.648.648 0 01-.047-.25c0-.078.016-.156.094-.36h-2.47V-14.78H1.564V0h3.703zm0 0"/></svg><svg overflow="visible" x="125.051" y="9.712"><path d="M5.875-5.875c-.14-.078-.344-.156-.453-.156-.469 0-1.063.468-1.797 1.578l-.453.656.25.094-.078-.578c-.14-1.188-.594-1.75-1.297-1.75-.313 0-.688.14-.797.297L.484-4.61l.407.25c.437-.485.578-.61.812-.61.39 0 .516.36.719 1.532l.125.718-.438.656C1.594-1.25 1.297-.905.953-.905c-.172 0-.172.078-.203.015l-.188-.468-.453.062c0 .36-.03.516-.093.89-.032.141-.047.173-.063.329.219.125.531.203.672.203.39 0 .953-.375 1.328-.938l.906-1.406-.234-.094.125.829c.172 1.015.578 1.609 1 1.609.266 0 .75-.234 1.125-.578l.64-.578-.218-.469c-.578.453-.766.61-.953.61-.188 0-.25-.094-.453-.5.015.046-.11-.407-.172-.75L3.5-3.313l.39-.532c.563-.765.782-1.015 1.157-1.015.187 0 .187-.032.312.312l.36-.11.203-1.171zm0 0"/></svg><svg overflow="visible" x="125.015" y="24.158"><path d="M5.953-5.875l-.203-.156c-.375.14-.64.203-1.016.234l-.453 1.703c-.14.563-.531 1.344-.922 1.938-.421.61-.89 1.094-1.156 1.094-.265 0-.11-.438-.094-.594l.172-2.328c.031-.36.047-.829.047-1.157 0-.53-.219-.89-.422-.89-.156 0-.422.125-1 .515L-.14-4.78l.266.437.734-.453c.063-.047.125-.11.204-.11.312 0 .125.485.109.673L.969-1.328l-.016.484c-.015.5.36.969.656.969.454 0 1.547-1.047 2.438-2.39l-.234-.094-.579 2.03c-.609 2.126-1.078 2.86-1.906 2.86-.422 0-.61-.187-.61-.61 0-.062.016-.155.032-.343l-.297-.11-.672.485c-.015.156-.015.219-.015.281 0 .516.578 1.063 1.125 1.063 1.265 0 2.703-1.61 3.406-3.828L6-5.828zm0 0"/></svg><svg overflow="visible" x="125.123" y="38.604"><path d="M5.125-.094v-.484l-.75-.047c-.656-.031-.64-.031-.64-.656v-7.172l-.313-.125c-.875.469-1.61.781-2.86 1.219l.125.718h.235l1.547-.687.031-.016c.063 0-.047-.015-.047.266v5.797c0 .625.016.625-.64.656L1-.578v.625L3.125 0l2 .047zm0 0"/></svg><svg overflow="visible" x="131.208" y="16.264"><path d="M4.656-.125v-14.656H.953c.078.203.094.297.094.375 0 .094-.016.172-.094.375h2.469V0h1.234zm0 0"/></svg><svg overflow="visible" x="131.208" y="23.559"><path d="M4.656-.125v-9.813H3.422V0h1.234zm0 0"/></svg><svg overflow="visible" x="131.208" y="28.662"><path d="M4.656-.125v-9.813H3.422V0h1.234zm0 0"/></svg><svg overflow="visible" x="131.208" y="40.787"><path d="M4.656-.125v-14.656H3.422V-.734H.953c.078.203.094.28.094.359 0 .094-.016.172-.094.375h3.703zm0 0"/></svg><svg overflow="visible" x="140.758" y="24.258"><path d="M8.266-4.078a1.419 1.419 0 01-.047-.36c0-.109.015-.234.062-.484h-7.5c.063.25.063.375.063.484 0 .125 0 .235-.063.5h7.5zm0 2.625a1.332 1.332 0 01-.047-.36c0-.109.015-.234.062-.484h-7.5c.063.25.063.375.063.485 0 .125 0 .25-.063.5h7.5zm0 0"/></svg><svg overflow="visible" x="153.165" y="15.388"><path d="M5.078-14.781H1.562V0h1.235v-14.031h2.469c-.079-.203-.094-.281-.094-.375 0-.078.016-.172.094-.375zm0 0"/></svg><svg overflow="visible" x="153.165" y="23.112"><path d="M2.672-9.938h-1.11V0h1.235v-9.938zm0 0"/></svg><svg overflow="visible" x="153.165" y="29.109"><path d="M2.672-9.938h-1.11V0h1.235v-9.938zm0 0"/></svg><svg overflow="visible" x="153.165" y="41.663"><path d="M5.219-.125a.648.648 0 01-.047-.25c0-.078.016-.156.094-.36h-2.47V-14.78H1.564V0h3.703zm0 0"/></svg><svg overflow="visible" x="159.425" y="8.745"><path d="M5.125-.094v-.484l-.75-.047c-.656-.031-.64-.031-.64-.656v-7.172l-.313-.125c-.875.469-1.61.781-2.86 1.219l.125.718h.235l1.547-.687.031-.016c.063 0-.047-.015-.047.266v5.797c0 .625.016.625-.64.656L1-.578v.625L3.125 0l2 .047zm0 0"/></svg><svg overflow="visible" x="168.057" y="8.745"><path d="M2.516-3.125c0-.422-.407-.844-.844-.844-.422 0-.86.422-.86.844 0 .438.438.86.86.86.437 0 .844-.422.844-.86zm0 0"/></svg><svg overflow="visible" x="174.058" y="8.745"><path d="M5.875-5.875c-.14-.078-.344-.156-.453-.156-.469 0-1.063.468-1.797 1.578l-.453.656.25.094-.078-.578c-.14-1.188-.594-1.75-1.297-1.75-.313 0-.688.14-.797.297L.484-4.61l.407.25c.437-.485.578-.61.812-.61.39 0 .516.36.719 1.532l.125.718-.438.656C1.594-1.25 1.297-.905.953-.905c-.172 0-.172.078-.203.015l-.188-.468-.453.062c0 .36-.03.516-.093.89-.032.141-.047.173-.063.329.219.125.531.203.672.203.39 0 .953-.375 1.328-.938l.906-1.406-.234-.094.125.829c.172 1.015.578 1.609 1 1.609.266 0 .75-.234 1.125-.578l.64-.578-.218-.469c-.578.453-.766.61-.953.61-.188 0-.25-.094-.453-.5.015.046-.11-.407-.172-.75L3.5-3.313l.39-.532c.563-.765.782-1.015 1.157-1.015.187 0 .187-.032.312.312l.36-.11.203-1.171zm0 0"/></svg><svg overflow="visible" x="182.833" y="8.745"><path d="M8.266-2.766a1.332 1.332 0 01-.047-.359c0-.11.015-.234.062-.484h-3.25v-3.266c-.25.063-.375.078-.484.078-.125 0-.25-.016-.5-.078v3.266H.78c.063.25.063.375.063.484 0 .125 0 .25-.063.5h3.266V.641c.25-.063.375-.079.5-.079.11 0 .234.016.484.079v-3.266h3.25zm0 0"/></svg><svg overflow="visible" x="194.573" y="8.745"><path d="M5.688-4.5c0-2.625-.907-4-2.547-4C1.297-8.5.203-6.89.203-4c0 1.39.281 2.703.703 3.281.422.594 1.203.953 1.938.953 1.812 0 2.844-1.687 2.844-4.734zm-1.282.594C4.406-1.36 4.094-.437 3-.437c-1.156 0-1.516-1.079-1.516-4 0-2.516.313-3.375 1.438-3.375 1.172 0 1.484 1.03 1.484 3.906zm0 0"/></svg><svg overflow="visible" x="203.217" y="8.745"><path d="M2.516-3.125c0-.422-.407-.844-.844-.844-.422 0-.86.422-.86.844 0 .438.438.86.86.86.437 0 .844-.422.844-.86zm0 0"/></svg><svg overflow="visible" x="209.218" y="8.745"><path d="M5.953-5.875l-.203-.156c-.375.14-.64.203-1.016.234l-.453 1.703c-.14.563-.531 1.344-.922 1.938-.421.61-.89 1.094-1.156 1.094-.265 0-.11-.438-.094-.594l.172-2.328c.031-.36.047-.829.047-1.157 0-.53-.219-.89-.422-.89-.156 0-.422.125-1 .515L-.14-4.78l.266.437.734-.453c.063-.047.125-.11.204-.11.312 0 .125.485.109.673L.969-1.328l-.016.484c-.015.5.36.969.656.969.454 0 1.547-1.047 2.438-2.39l-.234-.094-.579 2.03c-.609 2.126-1.078 2.86-1.906 2.86-.422 0-.61-.187-.61-.61 0-.062.016-.155.032-.343l-.297-.11-.672.485c-.015.156-.015.219-.015.281 0 .516.578 1.063 1.125 1.063 1.265 0 2.703-1.61 3.406-3.828L6-5.828zm0 0"/></svg><svg overflow="visible" x="218.065" y="8.745"><path d="M8.266-2.766a1.332 1.332 0 01-.047-.359c0-.11.015-.234.062-.484h-7.5c.063.25.063.375.063.484 0 .125 0 .25-.063.5h7.5zm0 0"/></svg><svg overflow="visible" x="229.805" y="8.745"><path d="M7.234-6.594c0-1.218-1.265-1.937-2.312-1.937-.547 0-1.094.031-1.64.031l-2.126-.047-.062.61.812.03c.297 0 .282-.03.282.188 0 .172-.047.532-.11.907l-.89 5.187C1-.531 1.125-.641.64-.594l-.61.031-.093.61L1.688 0l1.78.047.063-.61-.922-.03c-.312-.016-.296.015-.296-.235 0-.11 0-.188.046-.422l.97-5.813-.032.094s.078-.343.14-.578c.016-.062.047-.172.063-.203.328-.063.516-.094.75-.094 1.219 0 1.656.39 1.656 1.516 0 1.281-.718 2.203-1.765 2.203-.266 0-.5-.063-1.11-.281l.047.625c.578.281.813.344 1.172.344 1.531 0 2.984-1.532 2.984-3.157zm0 0"/></svg><svg overflow="visible" x="237.121" y="11.518"><path d="M4.266-.11V-.5l-.657-.031c-.515-.031-.468.015-.468-.453v-5.329l-.282-.093c-.625.297-1.312.562-2.375.906l.11.594h.234l1.25-.516.031-.016c.047 0-.078-.046-.078.172v4.282c0 .468.047.421-.469.453L.86-.5v.531L2.594 0l1.672.031zm0 0"/></svg><svg overflow="visible" x="242.617" y="12.571"><path d="M4.86-4.406c-.126-.063-.313-.125-.391-.125-.39 0-.89.36-1.485 1.172l-.359.484.266.094-.063-.422c-.11-.875-.515-1.328-1.094-1.328-.25 0-.578.11-.671.218l-.641.875.406.22c.36-.376.453-.454.625-.454.328 0 .375.219.531 1.094l.11.515-.328.485c-.422.594-.641.828-.907.828-.14 0-.093.11-.109.063l-.172-.407-.453.063c0 .297-.016.406-.078.687-.016.11-.016.14-.031.266.187.11.468.172.578.172.312 0 .797-.281 1.094-.703l.734-1.032-.266-.109.11.625c.125.75.5 1.219.843 1.219.22 0 .625-.188.938-.438l.531-.437-.203-.438c-.516.39-.64.485-.781.485-.156 0-.172-.047-.266-.235-.094-.156-.156-.39-.203-.656l-.172-.844.297-.375c.453-.578.61-.75.906-.75.157 0 .11-.062.219.235l.36-.094.187-.922zm0 0"/></svg><svg overflow="visible" x="250.771" y="8.745"><path d="M2.516-3.125c0-.422-.407-.844-.844-.844-.422 0-.86.422-.86.844 0 .438.438.86.86.86.437 0 .844-.422.844-.86zm0 0"/></svg><svg overflow="visible" x="256.773" y="8.745"><path d="M5.125-.094v-.484l-.75-.047c-.656-.031-.64-.031-.64-.656v-7.172l-.313-.125c-.875.469-1.61.781-2.86 1.219l.125.718h.235l1.547-.687.031-.016c.063 0-.047-.015-.047.266v5.797c0 .625.016.625-.64.656L1-.578v.625L3.125 0l2 .047zm0 0"/></svg><svg overflow="visible" x="159.394" y="23.19"><path d="M5.688-4.5c0-2.625-.907-4-2.547-4C1.297-8.5.203-6.89.203-4c0 1.39.281 2.703.703 3.281.422.594 1.203.953 1.938.953 1.812 0 2.844-1.687 2.844-4.734zm-1.282.594C4.406-1.36 4.094-.437 3-.437c-1.156 0-1.516-1.079-1.516-4 0-2.516.313-3.375 1.438-3.375 1.172 0 1.484 1.03 1.484 3.906zm0 0"/></svg><svg overflow="visible" x="168.026" y="23.19"><path d="M2.516-3.125c0-.422-.407-.844-.844-.844-.422 0-.86.422-.86.844 0 .438.438.86.86.86.437 0 .844-.422.844-.86zm0 0"/></svg><svg overflow="visible" x="174.027" y="23.19"><path d="M5.875-5.875c-.14-.078-.344-.156-.453-.156-.469 0-1.063.468-1.797 1.578l-.453.656.25.094-.078-.578c-.14-1.188-.594-1.75-1.297-1.75-.313 0-.688.14-.797.297L.484-4.61l.407.25c.437-.485.578-.61.812-.61.39 0 .516.36.719 1.532l.125.718-.438.656C1.594-1.25 1.297-.905.953-.905c-.172 0-.172.078-.203.015l-.188-.468-.453.062c0 .36-.03.516-.093.89-.032.141-.047.173-.063.329.219.125.531.203.672.203.39 0 .953-.375 1.328-.938l.906-1.406-.234-.094.125.829c.172 1.015.578 1.609 1 1.609.266 0 .75-.234 1.125-.578l.64-.578-.218-.469c-.578.453-.766.61-.953.61-.188 0-.25-.094-.453-.5.015.046-.11-.407-.172-.75L3.5-3.313l.39-.532c.563-.765.782-1.015 1.157-1.015.187 0 .187-.032.312.312l.36-.11.203-1.171zm0 0"/></svg><svg overflow="visible" x="182.802" y="23.19"><path d="M8.266-2.766a1.332 1.332 0 01-.047-.359c0-.11.015-.234.062-.484h-3.25v-3.266c-.25.063-.375.078-.484.078-.125 0-.25-.016-.5-.078v3.266H.78c.063.25.063.375.063.484 0 .125 0 .25-.063.5h3.266V.641c.25-.063.375-.079.5-.079.11 0 .234.016.484.079v-3.266h3.25zm0 0"/></svg><svg overflow="visible" x="194.542" y="23.19"><path d="M5.125-.094v-.484l-.75-.047c-.656-.031-.64-.031-.64-.656v-7.172l-.313-.125c-.875.469-1.61.781-2.86 1.219l.125.718h.235l1.547-.687.031-.016c.063 0-.047-.015-.047.266v5.797c0 .625.016.625-.64.656L1-.578v.625L3.125 0l2 .047zm0 0"/></svg><svg overflow="visible" x="203.186" y="23.19"><path d="M2.516-3.125c0-.422-.407-.844-.844-.844-.422 0-.86.422-.86.844 0 .438.438.86.86.86.437 0 .844-.422.844-.86zm0 0"/></svg><svg overflow="visible" x="209.187" y="23.19"><path d="M5.953-5.875l-.203-.156c-.375.14-.64.203-1.016.234l-.453 1.703c-.14.563-.531 1.344-.922 1.938-.421.61-.89 1.094-1.156 1.094-.265 0-.11-.438-.094-.594l.172-2.328c.031-.36.047-.829.047-1.157 0-.53-.219-.89-.422-.89-.156 0-.422.125-1 .515L-.14-4.78l.266.437.734-.453c.063-.047.125-.11.204-.11.312 0 .125.485.109.673L.969-1.328l-.016.484c-.015.5.36.969.656.969.454 0 1.547-1.047 2.438-2.39l-.234-.094-.579 2.03c-.609 2.126-1.078 2.86-1.906 2.86-.422 0-.61-.187-.61-.61 0-.062.016-.155.032-.343l-.297-.11-.672.485c-.015.156-.015.219-.015.281 0 .516.578 1.063 1.125 1.063 1.265 0 2.703-1.61 3.406-3.828L6-5.828zm0 0"/></svg><svg overflow="visible" x="218.034" y="23.19"><path d="M8.266-2.766a1.332 1.332 0 01-.047-.359c0-.11.015-.234.062-.484h-7.5c.063.25.063.375.063.484 0 .125 0 .25-.063.5h7.5zm0 0"/></svg><svg overflow="visible" x="229.774" y="23.19"><path d="M7.234-6.594c0-1.218-1.265-1.937-2.312-1.937-.547 0-1.094.031-1.64.031l-2.126-.047-.062.61.812.03c.297 0 .282-.03.282.188 0 .172-.047.532-.11.907l-.89 5.187C1-.531 1.125-.641.64-.594l-.61.031-.093.61L1.688 0l1.78.047.063-.61-.922-.03c-.312-.016-.296.015-.296-.235 0-.11 0-.188.046-.422l.97-5.813-.032.094s.078-.343.14-.578c.016-.062.047-.172.063-.203.328-.063.516-.094.75-.094 1.219 0 1.656.39 1.656 1.516 0 1.281-.718 2.203-1.765 2.203-.266 0-.5-.063-1.11-.281l.047.625c.578.281.813.344 1.172.344 1.531 0 2.984-1.532 2.984-3.157zm0 0"/></svg><svg overflow="visible" x="237.09" y="25.964"><path d="M4.266-.11V-.5l-.657-.031c-.515-.031-.468.015-.468-.453v-5.329l-.282-.093c-.625.297-1.312.562-2.375.906l.11.594h.234l1.25-.516.031-.016c.047 0-.078-.046-.078.172v4.282c0 .468.047.421-.469.453L.86-.5v.531L2.594 0l1.672.031zm0 0"/></svg><svg overflow="visible" x="242.586" y="27.017"><path d="M4.922-4.406l-.188-.14a3.25 3.25 0 01-.875.202L3.5-3.062c-.125.421-.406.968-.734 1.406-.329.437-.688.797-.907.797-.203 0-.03-.297-.03-.407l.14-1.718c.015-.266.047-.61.047-.86 0-.39-.22-.687-.391-.687-.125 0-.375.093-.828.39l-.89.563.265.375.64-.36c.047-.03.063-.062.141-.062.235 0 .047.313.031.453L.828-1.016l-.015.36c0 .36.343.75.578.75.359 0 1.265-.781 2-1.782l-.266-.093-.484 1.5c-.485 1.578-.813 2.078-1.485 2.078-.328 0-.453-.094-.453-.406 0-.047.016-.11.047-.266l-.297-.11-.578.376c-.031.125-.031.187-.031.234 0 .375.531.813.969.813 1.015 0 2.218-1.22 2.78-2.86l1.391-3.937zm0 0"/></svg><svg overflow="visible" x="250.802" y="23.19"><path d="M2.516-3.125c0-.422-.407-.844-.844-.844-.422 0-.86.422-.86.844 0 .438.438.86.86.86.437 0 .844-.422.844-.86zm0 0"/></svg><svg overflow="visible" x="256.804" y="23.19"><path d="M5.125-.094v-.484l-.75-.047c-.656-.031-.64-.031-.64-.656v-7.172l-.313-.125c-.875.469-1.61.781-2.86 1.219l.125.718h.235l1.547-.687.031-.016c.063 0-.047-.015-.047.266v5.797c0 .625.016.625-.64.656L1-.578v.625L3.125 0l2 .047zm0 0"/></svg><svg overflow="visible" x="165.585" y="39.571"><path d="M5.688-4.5c0-2.625-.907-4-2.547-4C1.297-8.5.203-6.89.203-4c0 1.39.281 2.703.703 3.281.422.594 1.203.953 1.938.953 1.812 0 2.844-1.687 2.844-4.734zm-1.282.594C4.406-1.36 4.094-.437 3-.437c-1.156 0-1.516-1.079-1.516-4 0-2.516.313-3.375 1.438-3.375 1.172 0 1.484 1.03 1.484 3.906zm0 0"/></svg><svg overflow="visible" x="174.217" y="39.571"><path d="M2.516-3.125c0-.422-.407-.844-.844-.844-.422 0-.86.422-.86.844 0 .438.438.86.86.86.437 0 .844-.422.844-.86zm0 0"/></svg><svg overflow="visible" x="180.218" y="39.571"><path d="M5.875-5.875c-.14-.078-.344-.156-.453-.156-.469 0-1.063.468-1.797 1.578l-.453.656.25.094-.078-.578c-.14-1.188-.594-1.75-1.297-1.75-.313 0-.688.14-.797.297L.484-4.61l.407.25c.437-.485.578-.61.812-.61.39 0 .516.36.719 1.532l.125.718-.438.656C1.594-1.25 1.297-.905.953-.905c-.172 0-.172.078-.203.015l-.188-.468-.453.062c0 .36-.03.516-.093.89-.032.141-.047.173-.063.329.219.125.531.203.672.203.39 0 .953-.375 1.328-.938l.906-1.406-.234-.094.125.829c.172 1.015.578 1.609 1 1.609.266 0 .75-.234 1.125-.578l.64-.578-.218-.469c-.578.453-.766.61-.953.61-.188 0-.25-.094-.453-.5.015.046-.11-.407-.172-.75L3.5-3.313l.39-.532c.563-.765.782-1.015 1.157-1.015.187 0 .187-.032.312.312l.36-.11.203-1.171zm0 0"/></svg><svg overflow="visible" x="188.993" y="39.571"><path d="M8.266-2.766a1.332 1.332 0 01-.047-.359c0-.11.015-.234.062-.484h-3.25v-3.266c-.25.063-.375.078-.484.078-.125 0-.25-.016-.5-.078v3.266H.78c.063.25.063.375.063.484 0 .125 0 .25-.063.5h3.266V.641c.25-.063.375-.079.5-.079.11 0 .234.016.484.079v-3.266h3.25zm0 0"/></svg><svg overflow="visible" x="200.733" y="39.571"><path d="M5.688-4.5c0-2.625-.907-4-2.547-4C1.297-8.5.203-6.89.203-4c0 1.39.281 2.703.703 3.281.422.594 1.203.953 1.938.953 1.812 0 2.844-1.687 2.844-4.734zm-1.282.594C4.406-1.36 4.094-.437 3-.437c-1.156 0-1.516-1.079-1.516-4 0-2.516.313-3.375 1.438-3.375 1.172 0 1.484 1.03 1.484 3.906zm0 0"/></svg><svg overflow="visible" x="209.377" y="39.571"><path d="M2.516-3.125c0-.422-.407-.844-.844-.844-.422 0-.86.422-.86.844 0 .438.438.86.86.86.437 0 .844-.422.844-.86zm0 0"/></svg><svg overflow="visible" x="215.378" y="39.571"><path d="M5.953-5.875l-.203-.156c-.375.14-.64.203-1.016.234l-.453 1.703c-.14.563-.531 1.344-.922 1.938-.421.61-.89 1.094-1.156 1.094-.265 0-.11-.438-.094-.594l.172-2.328c.031-.36.047-.829.047-1.157 0-.53-.219-.89-.422-.89-.156 0-.422.125-1 .515L-.14-4.78l.266.437.734-.453c.063-.047.125-.11.204-.11.312 0 .125.485.109.673L.969-1.328l-.016.484c-.015.5.36.969.656.969.454 0 1.547-1.047 2.438-2.39l-.234-.094-.579 2.03c-.609 2.126-1.078 2.86-1.906 2.86-.422 0-.61-.187-.61-.61 0-.062.016-.155.032-.343l-.297-.11-.672.485c-.015.156-.015.219-.015.281 0 .516.578 1.063 1.125 1.063 1.265 0 2.703-1.61 3.406-3.828L6-5.828zm0 0"/></svg><svg overflow="visible" x="224.225" y="39.571"><path d="M8.266-2.766a1.332 1.332 0 01-.047-.359c0-.11.015-.234.062-.484h-3.25v-3.266c-.25.063-.375.078-.484.078-.125 0-.25-.016-.5-.078v3.266H.78c.063.25.063.375.063.484 0 .125 0 .25-.063.5h3.266V.641c.25-.063.375-.079.5-.079.11 0 .234.016.484.079v-3.266h3.25zm0 0"/></svg><svg overflow="visible" x="235.965" y="39.571"><path d="M5.125-.094v-.484l-.75-.047c-.656-.031-.64-.031-.64-.656v-7.172l-.313-.125c-.875.469-1.61.781-2.86 1.219l.125.718h.235l1.547-.687.031-.016c.063 0-.047-.015-.047.266v5.797c0 .625.016.625-.64.656L1-.578v.625L3.125 0l2 .047zm0 0"/></svg><svg overflow="visible" x="244.609" y="39.571"><path d="M2.516-3.125c0-.422-.407-.844-.844-.844-.422 0-.86.422-.86.844 0 .438.438.86.86.86.437 0 .844-.422.844-.86zm0 0"/></svg><svg overflow="visible" x="250.61" y="39.571"><path d="M5.125-.094v-.484l-.75-.047c-.656-.031-.64-.031-.64-.656v-7.172l-.313-.125c-.875.469-1.61.781-2.86 1.219l.125.718h.235l1.547-.687.031-.016c.063 0-.047-.015-.047.266v5.797c0 .625.016.625-.64.656L1-.578v.625L3.125 0l2 .047zm0 0"/></svg><svg overflow="visible" x="262.784" y="15.388"><path d="M4.656-.125v-14.656H.953c.078.203.094.297.094.375 0 .094-.016.172-.094.375h2.469V0h1.234zm0 0"/></svg><svg overflow="visible" x="262.784" y="23.112"><path d="M4.656-.125v-9.813H3.422V0h1.234zm0 0"/></svg><svg overflow="visible" x="262.784" y="29.109"><path d="M4.656-.125v-9.813H3.422V0h1.234zm0 0"/></svg><svg overflow="visible" x="262.784" y="41.663"><path d="M4.656-.125v-14.656H3.422V-.734H.953c.078.203.094.28.094.359 0 .094-.016.172-.094.375h3.703zm0 0"/></svg><svg overflow="visible" x="272.334" y="24.258"><path d="M8.266-4.078a1.419 1.419 0 01-.047-.36c0-.109.015-.234.062-.484h-7.5c.063.25.063.375.063.484 0 .125 0 .235-.063.5h7.5zm0 2.625a1.332 1.332 0 01-.047-.36c0-.109.015-.234.062-.484h-7.5c.063.25.063.375.063.485 0 .125 0 .25-.063.5h7.5zm0 0"/></svg><svg overflow="visible" x="284.741" y="15.388"><path d="M5.078-14.781H1.562V0h1.235v-14.031h2.469c-.079-.203-.094-.281-.094-.375 0-.078.016-.172.094-.375zm0 0"/></svg><svg overflow="visible" x="284.741" y="23.112"><path d="M2.672-9.938h-1.11V0h1.235v-9.938zm0 0"/></svg><svg overflow="visible" x="284.741" y="29.109"><path d="M2.672-9.938h-1.11V0h1.235v-9.938zm0 0"/></svg><svg overflow="visible" x="284.741" y="41.663"><path d="M5.219-.125a.648.648 0 01-.047-.25c0-.078.016-.156.094-.36h-2.47V-14.78H1.564V0h3.703zm0 0"/></svg><svg overflow="visible" x="291.036" y="8.745"><path d="M5.875-5.875c-.14-.078-.344-.156-.453-.156-.469 0-1.063.468-1.797 1.578l-.453.656.25.094-.078-.578c-.14-1.188-.594-1.75-1.297-1.75-.313 0-.688.14-.797.297L.484-4.61l.407.25c.437-.485.578-.61.812-.61.39 0 .516.36.719 1.532l.125.718-.438.656C1.594-1.25 1.297-.905.953-.905c-.172 0-.172.078-.203.015l-.188-.468-.453.062c0 .36-.03.516-.093.89-.032.141-.047.173-.063.329.219.125.531.203.672.203.39 0 .953-.375 1.328-.938l.906-1.406-.234-.094.125.829c.172 1.015.578 1.609 1 1.609.266 0 .75-.234 1.125-.578l.64-.578-.218-.469c-.578.453-.766.61-.953.61-.188 0-.25-.094-.453-.5.015.046-.11-.407-.172-.75L3.5-3.313l.39-.532c.563-.765.782-1.015 1.157-1.015.187 0 .187-.032.312.312l.36-.11.203-1.171zm0 0"/></svg><svg overflow="visible" x="299.811" y="8.745"><path d="M8.266-2.766a1.332 1.332 0 01-.047-.359c0-.11.015-.234.062-.484h-7.5c.063.25.063.375.063.484 0 .125 0 .25-.063.5h7.5zm0 0"/></svg><svg overflow="visible" x="311.551" y="8.745"><path d="M7.234-6.594c0-1.218-1.265-1.937-2.312-1.937-.547 0-1.094.031-1.64.031l-2.126-.047-.062.61.812.03c.297 0 .282-.03.282.188 0 .172-.047.532-.11.907l-.89 5.187C1-.531 1.125-.641.64-.594l-.61.031-.093.61L1.688 0l1.78.047.063-.61-.922-.03c-.312-.016-.296.015-.296-.235 0-.11 0-.188.046-.422l.97-5.813-.032.094s.078-.343.14-.578c.016-.062.047-.172.063-.203.328-.063.516-.094.75-.094 1.219 0 1.656.39 1.656 1.516 0 1.281-.718 2.203-1.765 2.203-.266 0-.5-.063-1.11-.281l.047.625c.578.281.813.344 1.172.344 1.531 0 2.984-1.532 2.984-3.157zm0 0"/></svg><svg overflow="visible" x="318.862" y="11.518"><path d="M4.266-.11V-.5l-.657-.031c-.515-.031-.468.015-.468-.453v-5.329l-.282-.093c-.625.297-1.312.562-2.375.906l.11.594h.234l1.25-.516.031-.016c.047 0-.078-.046-.078.172v4.282c0 .468.047.421-.469.453L.86-.5v.531L2.594 0l1.672.031zm0 0"/></svg><svg overflow="visible" x="324.358" y="12.571"><path d="M4.86-4.406c-.126-.063-.313-.125-.391-.125-.39 0-.89.36-1.485 1.172l-.359.484.266.094-.063-.422c-.11-.875-.515-1.328-1.094-1.328-.25 0-.578.11-.671.218l-.641.875.406.22c.36-.376.453-.454.625-.454.328 0 .375.219.531 1.094l.11.515-.328.485c-.422.594-.641.828-.907.828-.14 0-.093.11-.109.063l-.172-.407-.453.063c0 .297-.016.406-.078.687-.016.11-.016.14-.031.266.187.11.468.172.578.172.312 0 .797-.281 1.094-.703l.734-1.032-.266-.109.11.625c.125.75.5 1.219.843 1.219.22 0 .625-.188.938-.438l.531-.437-.203-.438c-.516.39-.64.485-.781.485-.156 0-.172-.047-.266-.235-.094-.156-.156-.39-.203-.656l-.172-.844.297-.375c.453-.578.61-.75.906-.75.157 0 .11-.062.219.235l.36-.094.187-.922zm0 0"/></svg><svg overflow="visible" x="290.969" y="23.19"><path d="M5.953-5.875l-.203-.156c-.375.14-.64.203-1.016.234l-.453 1.703c-.14.563-.531 1.344-.922 1.938-.421.61-.89 1.094-1.156 1.094-.265 0-.11-.438-.094-.594l.172-2.328c.031-.36.047-.829.047-1.157 0-.53-.219-.89-.422-.89-.156 0-.422.125-1 .515L-.14-4.78l.266.437.734-.453c.063-.047.125-.11.204-.11.312 0 .125.485.109.673L.969-1.328l-.016.484c-.015.5.36.969.656.969.454 0 1.547-1.047 2.438-2.39l-.234-.094-.579 2.03c-.609 2.126-1.078 2.86-1.906 2.86-.422 0-.61-.187-.61-.61 0-.062.016-.155.032-.343l-.297-.11-.672.485c-.015.156-.015.219-.015.281 0 .516.578 1.063 1.125 1.063 1.265 0 2.703-1.61 3.406-3.828L6-5.828zm0 0"/></svg><svg overflow="visible" x="299.816" y="23.19"><path d="M8.266-2.766a1.332 1.332 0 01-.047-.359c0-.11.015-.234.062-.484h-7.5c.063.25.063.375.063.484 0 .125 0 .25-.063.5h7.5zm0 0"/></svg><svg overflow="visible" x="311.556" y="23.19"><path d="M7.234-6.594c0-1.218-1.265-1.937-2.312-1.937-.547 0-1.094.031-1.64.031l-2.126-.047-.062.61.812.03c.297 0 .282-.03.282.188 0 .172-.047.532-.11.907l-.89 5.187C1-.531 1.125-.641.64-.594l-.61.031-.093.61L1.688 0l1.78.047.063-.61-.922-.03c-.312-.016-.296.015-.296-.235 0-.11 0-.188.046-.422l.97-5.813-.032.094s.078-.343.14-.578c.016-.062.047-.172.063-.203.328-.063.516-.094.75-.094 1.219 0 1.656.39 1.656 1.516 0 1.281-.718 2.203-1.765 2.203-.266 0-.5-.063-1.11-.281l.047.625c.578.281.813.344 1.172.344 1.531 0 2.984-1.532 2.984-3.157zm0 0"/></svg><svg overflow="visible" x="318.867" y="25.964"><path d="M4.266-.11V-.5l-.657-.031c-.515-.031-.468.015-.468-.453v-5.329l-.282-.093c-.625.297-1.312.562-2.375.906l.11.594h.234l1.25-.516.031-.016c.047 0-.078-.046-.078.172v4.282c0 .468.047.421-.469.453L.86-.5v.531L2.594 0l1.672.031zm0 0"/></svg><svg overflow="visible" x="324.363" y="27.017"><path d="M4.922-4.406l-.188-.14a3.25 3.25 0 01-.875.202L3.5-3.062c-.125.421-.406.968-.734 1.406-.329.437-.688.797-.907.797-.203 0-.03-.297-.03-.407l.14-1.718c.015-.266.047-.61.047-.86 0-.39-.22-.687-.391-.687-.125 0-.375.093-.828.39l-.89.563.265.375.64-.36c.047-.03.063-.062.141-.062.235 0 .047.313.031.453L.828-1.016l-.015.36c0 .36.343.75.578.75.359 0 1.265-.781 2-1.782l-.266-.093-.484 1.5c-.485 1.578-.813 2.078-1.485 2.078-.328 0-.453-.094-.453-.406 0-.047.016-.11.047-.266l-.297-.11-.578.376c-.031.125-.031.187-.031.234 0 .375.531.813.969.813 1.015 0 2.218-1.22 2.78-2.86l1.391-3.937zm0 0"/></svg><svg overflow="visible" x="307.457" y="39.571"><path d="M5.125-.094v-.484l-.75-.047c-.656-.031-.64-.031-.64-.656v-7.172l-.313-.125c-.875.469-1.61.781-2.86 1.219l.125.718h.235l1.547-.687.031-.016c.063 0-.047-.015-.047.266v5.797c0 .625.016.625-.64.656L1-.578v.625L3.125 0l2 .047zm0 0"/></svg><svg overflow="visible" x="329.922" y="15.388"><path d="M4.656-.125v-14.656H.953c.078.203.094.297.094.375 0 .094-.016.172-.094.375h2.469V0h1.234zm0 0"/></svg><svg overflow="visible" x="329.922" y="23.112"><path d="M4.656-.125v-9.813H3.422V0h1.234zm0 0"/></svg><g><svg overflow="visible" x="329.922" y="29.109"><path d="M4.656-.125v-9.813H3.422V0h1.234zm0 0"/></svg></g><g><svg overflow="visible" x="329.922" y="41.663"><path d="M4.656-.125v-14.656H3.422V-.734H.953c.078.203.094.28.094.359 0 .094-.016.172-.094.375h3.703zm0 0"/></svg></g></svg>