<svg xmlns="http://www.w3.org/2000/svg" xmlns:xlink="http://www.w3.org/1999/xlink" width="387px" height="56" viewBox="0 0 290 42"><defs><symbol overflow="visible" id="a"><path d="M2.313-.766c0-.359-.454-.828-.829-.828-.359 0-.828.469-.828.828 0 .36.469.829.813.829.39 0 .843-.454.843-.829zm0 0"/></symbol><symbol overflow="visible" id="b"><path d="M8.266-4.078a1.419 1.419 0 01-.047-.36c0-.109.015-.234.062-.484h-7.5c.063.25.063.375.063.484 0 .125 0 .235-.063.5h7.5zm0 2.625a1.332 1.332 0 01-.047-.36c0-.109.015-.234.062-.484h-7.5c.063.25.063.375.063.485 0 .125 0 .25-.063.5h7.5zm0 0"/></symbol><symbol overflow="visible" id="c"><path d="M7.063-14.328l-.188-.14c-.063-.063-.11-.126-.219-.329C3.47-11.609 1.563-7.344 1.563-2.516V0h1.234v-2.516c0-4.625 1.344-8.687 4.39-11.75zm0 0"/></symbol><symbol overflow="visible" id="d"><path d="M2.797-.125V-5H1.562v5h1.235zm0 0"/></symbol><symbol overflow="visible" id="e"><path d="M7.063-.563C4.14-3.5 2.796-7.546 2.796-12.187v-2.516H1.562v2.515c0 4.829 1.907 9.094 5.094 12.282.11-.203.157-.266.219-.328.063-.047.125-.094.313-.203zm0 0"/></symbol><symbol overflow="visible" id="f"><path d="M4.563-8.781l-.188-.14c-.063-.063-.11-.126-.219-.329-1.781 1.781-2.812 3.719-2.812 5.563v1.124c0 1.86 1.031 3.797 2.812 5.579.11-.204.157-.266.219-.329.063-.062.125-.109.313-.203C3.046.844 2.374-.844 2.374-2.562v-1.126c0-1.703.672-3.39 2.313-5.03zm0 0"/></symbol><symbol overflow="visible" id="g"><path d="M5.875-5.875c-.14-.078-.344-.156-.453-.156-.469 0-1.063.468-1.797 1.578l-.453.656.25.094-.078-.578c-.14-1.188-.594-1.75-1.297-1.75-.313 0-.688.14-.797.297L.484-4.61l.407.25c.437-.485.578-.61.812-.61.39 0 .516.36.719 1.532l.125.718-.438.656C1.594-1.25 1.297-.905.953-.905c-.172 0-.172.078-.203.015l-.188-.468-.453.062c0 .36-.03.516-.093.89-.032.141-.047.173-.063.329.219.125.531.203.672.203.39 0 .953-.375 1.328-.938l.906-1.406-.234-.094.125.829c.172 1.015.578 1.609 1 1.609.266 0 .75-.234 1.125-.578l.64-.578-.218-.469c-.578.453-.766.61-.953.61-.188 0-.25-.094-.453-.5.015.046-.11-.407-.172-.75L3.5-3.313l.39-.532c.563-.765.782-1.015 1.157-1.015.187 0 .187-.032.312.312l.36-.11.203-1.171zm0 0"/></symbol><symbol overflow="visible" id="i"><path d="M8.266-2.766a1.332 1.332 0 01-.047-.359c0-.11.015-.234.062-.484h-7.5c.063.25.063.375.063.484 0 .125 0 .25-.063.5h7.5zm0 0"/></symbol><symbol overflow="visible" id="k"><path d="M2.516-3.125c0-.422-.407-.844-.844-.844-.422 0-.86.422-.86.844 0 .438.438.86.86.86.437 0 .844-.422.844-.86zm0 0"/></symbol><symbol overflow="visible" id="l"><path d="M4.938-8.875c-.204-.094-.547-.156-.844-.156-.125 0-.422.078-.578.156-.125.063-1.204.828-1.485 1.125-.265.25-.437.703-.578 1.39l-.156.876c-.36.171-.61.265-1.016.421l-.125.485h.985l-.094.531C.687-1.703.25.516-.016 1.343c-.218.704-.421.938-.859.938-.266 0-.313-.047-.578-.375l-.328.11c-.078.375-.203.859-.328 1.109.171.11.453.172.593.172.485 0 1.235-.406 1.688-.969.734-.86 1.016-1.781 1.906-5.984.063-.297.156-.656.203-.922h1.25c.063-.36.156-.64.219-.813l-.11-.234-.156.063c-.28.078-.406.078-1 .078h-.03l.218-1.204c.203-1.03.406-1.359.953-1.359.36 0 .578.14.797.5l.281-.11.313-.905.078-.235zm0 0"/></symbol><symbol overflow="visible" id="m"><path d="M4.094-2.563v-1.124c0-1.844-1.016-3.782-2.813-5.563-.11.203-.156.266-.218.328-.063.047-.125.094-.313.203 1.64 1.64 2.313 3.328 2.313 5.031v1.126C3.063-.845 2.39.844.75 2.484c.188.094.25.141.313.204.062.062.109.124.218.328 1.797-1.782 2.813-3.72 2.813-5.579zm0 0"/></symbol><symbol overflow="visible" id="n"><path d="M4.86-8.031c-.11.015-.204.031-.313.031-.094 0-.203-.016-.39-.063L.75 1.86c.297-.093.406-.109.5-.109.11 0 .203.016.39.063l3.407-9.891zm0 0"/></symbol><symbol overflow="visible" id="p"><path d="M8.266-2.766a1.332 1.332 0 01-.047-.359c0-.11.015-.234.062-.484h-3.25v-3.266c-.25.063-.375.078-.484.078-.125 0-.25-.016-.5-.078v3.266H.78c.063.25.063.375.063.484 0 .125 0 .25-.063.5h3.266V.641c.25-.063.375-.079.5-.079.11 0 .234.016.484.079v-3.266h3.25zm0 0"/></symbol><symbol overflow="visible" id="q"><path d="M5.125-.094v-.484l-.75-.047c-.656-.031-.64-.031-.64-.656v-7.172l-.313-.125c-.875.469-1.61.781-2.86 1.219l.125.718h.235l1.547-.687.031-.016c.063 0-.047-.015-.047.266v5.797c0 .625.016.625-.64.656L1-.578v.625L3.125 0l2 .047zm0 0"/></symbol><symbol overflow="visible" id="r"><path d="M6.531-.125v-2.39c0-4.829-1.875-9.094-5.078-12.282-.11.203-.156.266-.219.328-.062.047-.125.094-.312.203 3.062 3.063 4.39 7.125 4.39 11.75V0h1.22zm0 0"/></symbol><symbol overflow="visible" id="s"><path d="M6.531-.125V-5H5.313v5H6.53zm0 0"/></symbol><symbol overflow="visible" id="t"><path d="M6.531-12.188v-2.515H5.313v2.515C5.313-7.546 3.984-3.5.921-.438c.187.11.25.157.312.204.063.062.11.125.22.328C4.655-3.094 6.53-7.36 6.53-12.187zm0 0"/></symbol><symbol overflow="visible" id="u"><path d="M2.703-1.531L2.47-1.75c-.36.125-.563.203-1.328.406C1.047-.328.78.344.016 1.625l.312.25.61-.281C1.905.328 2.405-.516 2.75-1.47zm0 0"/></symbol><symbol overflow="visible" id="v"><path d="M5.953-5.875l-.203-.156c-.375.14-.64.203-1.016.234l-.453 1.703c-.14.563-.531 1.344-.922 1.938-.421.61-.89 1.094-1.156 1.094-.265 0-.11-.438-.094-.594l.172-2.328c.031-.36.047-.829.047-1.157 0-.53-.219-.89-.422-.89-.156 0-.422.125-1 .515L-.14-4.78l.266.437.734-.453c.063-.047.125-.11.204-.11.312 0 .125.485.109.673L.969-1.328l-.016.484c-.015.5.36.969.656.969.454 0 1.547-1.047 2.438-2.39l-.234-.094-.579 2.03c-.609 2.126-1.078 2.86-1.906 2.86-.422 0-.61-.187-.61-.61 0-.062.016-.155.032-.343l-.297-.11-.672.485c-.015.156-.015.219-.015.281 0 .516.578 1.063 1.125 1.063 1.265 0 2.703-1.61 3.406-3.828L6-5.828zm0 0"/></symbol><symbol overflow="visible" id="h"><path d="M4.781-.11V-.5l-.61-.031c-.468-.031-.421-.016-.421-.531v-.532c.422 0 .625 0 1.031.047v-.781l-.047.094s-.562-.204-.875-.204H3.75V-3.53c0-1.578.016-2.328.078-2.766l-.281-.11-.813.282-2.796 4.172.187.36h2.5v.53c0 .516.047.516-.422.532l-.75.031v.531L3.172 0l1.61.031zm-2-2.328H.97L2.89-5.312l-.266-.094v2.968zm0 0"/></symbol><symbol overflow="visible" id="j"><path d="M4.75-.11c-.016-.187-.016-.265-.016-.39s0-.203.032-.547l-3.141.094 1.5-1.469c.938-.906 1.266-1.5 1.266-2.156 0-1.016-.891-1.781-2.125-1.781-.688 0-1.282.218-1.782.687L.297-4.266h.547l.172-.546c.156-.516.359-.594 1-.594.828 0 1.203.343 1.203 1.093 0 .657-.36 1.22-1.453 2.282L.078-.391v.422L2.391 0l2.375.031zm0 0"/></symbol><symbol overflow="visible" id="o"><path d="M4.703-2.11c0-.421-.25-.89-.594-1.124a2.225 2.225 0 00-.703-.282c.531-.375.86-.875.86-1.406 0-.781-.86-1.437-1.938-1.437-.64 0-1.203.203-1.687.656L.312-4.406h.594l.219-.625c.11-.297.563-.469 1.063-.469.624 0 .984.328.984.89 0 .673-.406 1.094-1.094 1.094-.078 0-.36.204-.36.204l-.265-.094-.125.515.203.157c.407-.172.594-.22.844-.22.813 0 1.11.329 1.11 1.142 0 .906-.422 1.359-1.329 1.359-.437 0-.719-.094-1.015-.344C.906-.984.828-1.094.578-1.75l-.531.188c.234.609.312.937.375 1.468C1.078.11 1.5.172 1.859.172c.782 0 1.766-.422 2.297-1.016.328-.375.547-.86.547-1.265zm0 0"/></symbol></defs><use xlink:href="#a" x="-.484" y="24.29"/><use xlink:href="#a" x="2.505" y="24.29"/><use xlink:href="#a" x="5.494" y="24.29"/><use xlink:href="#b" x="11.794" y="24.29"/><use xlink:href="#c" x="24.211" y="16.225"/><use xlink:href="#d" x="24.211" y="20.189"/><use xlink:href="#d" x="24.211" y="23.668"/><use xlink:href="#d" x="24.211" y="27.147"/><use xlink:href="#e" x="24.211" y="40.819"/><use xlink:href="#f" x="32.328" y="9.744"/><use xlink:href="#g" x="37.78" y="9.744"/><use xlink:href="#h" x="43.757" y="12.518"/><use xlink:href="#i" x="51.911" y="9.745"/><use xlink:href="#g" x="63.651" y="9.745"/><use xlink:href="#j" x="69.631" y="12.518"/><use xlink:href="#k" x="77.785" y="9.745"/><use xlink:href="#l" x="83.787" y="9.745"/><use xlink:href="#h" x="87.113" y="12.518"/><use xlink:href="#j" x="92.111" y="12.518"/><use xlink:href="#m" x="97.608" y="9.744"/><use xlink:href="#n" x="105.044" y="9.744"/><use xlink:href="#f" x="112.851" y="9.744"/><use xlink:href="#g" x="118.302" y="9.744"/><use xlink:href="#o" x="124.284" y="12.518"/><use xlink:href="#i" x="132.438" y="9.745"/><use xlink:href="#g" x="144.178" y="9.745"/><use xlink:href="#j" x="150.158" y="12.518"/><use xlink:href="#k" x="158.312" y="9.745"/><use xlink:href="#l" x="164.314" y="9.745"/><use xlink:href="#o" x="167.64" y="12.518"/><use xlink:href="#j" x="172.638" y="12.518"/><use xlink:href="#m" x="178.135" y="9.744"/><use xlink:href="#l" x="63.907" y="38.636"/><use xlink:href="#h" x="67.231" y="41.41"/><use xlink:href="#j" x="72.229" y="41.41"/><use xlink:href="#p" x="80.383" y="38.636"/><use xlink:href="#f" x="92.123" y="38.636"/><use xlink:href="#q" x="97.575" y="38.636"/><use xlink:href="#i" x="106.206" y="38.636"/><use xlink:href="#l" x="117.946" y="38.636"/><use xlink:href="#o" x="121.278" y="41.41"/><use xlink:href="#j" x="126.276" y="41.41"/><use xlink:href="#m" x="131.773" y="38.636"/><use xlink:href="#k" x="139.879" y="38.636"/><use xlink:href="#g" x="145.88" y="38.636"/><use xlink:href="#r" x="183.586" y="16.225"/><use xlink:href="#s" x="183.586" y="20.189"/><use xlink:href="#s" x="183.586" y="23.668"/><use xlink:href="#s" x="183.586" y="27.147"/><use xlink:href="#t" x="183.586" y="40.819"/><use xlink:href="#u" x="193.697" y="24.29"/><use xlink:href="#l" x="198.67" y="24.29"/><use xlink:href="#o" x="202.002" y="27.064"/><use xlink:href="#j" x="207" y="27.064"/><use xlink:href="#b" x="215.818" y="24.29"/><use xlink:href="#v" x="229.421" y="15.682"/><use xlink:href="#o" x="235.398" y="18.456"/><path d="M229.422 21.3h11.473" fill="none" stroke-width=".717" stroke="#000" stroke-miterlimit="10"/><use xlink:href="#v" x="229.421" y="32.253"/><g><use xlink:href="#j" x="235.398" y="35.027"/></g><g><use xlink:href="#u" x="242.09" y="24.29"/></g><g><use xlink:href="#l" x="247.063" y="24.29"/></g><g><use xlink:href="#h" x="250.395" y="27.064"/><use xlink:href="#j" x="255.393" y="27.064"/></g><g><use xlink:href="#b" x="264.212" y="24.29"/></g><g><use xlink:href="#v" x="277.814" y="15.682"/></g><g><use xlink:href="#h" x="283.792" y="18.456"/></g><path d="M277.813 21.3h11.476" fill="none" stroke-width=".717" stroke="#000" stroke-miterlimit="10"/><g><use xlink:href="#v" x="277.814" y="32.253"/></g><g><use xlink:href="#j" x="283.792" y="35.027"/></g></svg>