<svg xmlns="http://www.w3.org/2000/svg" xmlns:xlink="http://www.w3.org/1999/xlink" width="455px" height="91px" viewBox="0 0 341 68"><svg overflow="visible" x=".044" y="36.864"><path d="M8.938-1.25l-.172-.297-.454.297c-.359.219-.5.313-.624.313-.079 0-.032.03-.032-.11 0-.11.032-.219.094-.469l.89-3.546c.047-.204.079-.407.079-.5 0-.204-.25-.47-.438-.47-.344 0-.906.266-1.64.766-.75.547-1.172.97-1.75 1.782l.234.109.36-1.64c.046-.25.077-.423.077-.5 0-.235-.25-.516-.437-.516-.36 0-1.016.312-1.672.812-.531.407-.765.657-1.547 1.703l.25.094.39-1.594c.048-.187.079-.359.079-.5 0-.234-.25-.515-.406-.515-.266 0-.813.297-1.703.922l-.391.296.172.485.547-.36c.437-.28.39-.265.469-.265.14 0 .078 0 .078.172 0 .61-.5 2.922-.985 4.625l.078.281L1.5-.094l.297-1.328c.281-1.328.562-1.937 1.234-2.656.5-.547.938-.875 1.266-.875.094 0 0-.031 0 .125 0 .422-.25 1.781-.766 3.875l-.187.797.14.281 1-.219.266-1.39c.203-.97.563-1.766 1.094-2.36C6.5-4.563 7-4.954 7.39-4.954c.093 0 .015-.015.015.173 0 .281-.015.453-.312 1.5l-.5 1.875c-.11.328-.157.64-.157.906 0 .297.266.61.5.61.313 0 .829-.282 2.079-1.22zm0 0"/></svg><svg overflow="visible" x="9.345" y="36.864"><path d="M4.984-1.14l-.156-.485c-.25.203-.266.219-.328.266-.375.312-.453.39-.625.39-.125 0-.047.031-.047-.156 0-.047 0-.078.016-.125l1.11-4.578-.25-.203-.438.218c-.438-.156-.672-.218-.985-.218-.344 0-.578.062-.906.218-.75.375-1.234.766-1.531 1.36l-.047.094C.28-3.297-.093-1.875-.093-.922c0 .516.327 1.047.546 1.047.25 0 .797-.281 1.234-.656.516-.453.985-1.016 1.641-1.938l-.234-.094-.344 1.516a2.715 2.715 0 00-.078.61c0 .265.25.562.437.562.266 0 .86-.36 1.891-1.219zM3.672-5.079c-.266 1.281-.453 1.797-.844 2.406C2.156-1.656 1.516-.969 1.125-.969c-.14 0-.078-.015-.078-.344 0-.765.297-2.093.719-3.093.296-.688.453-.766 1.03-.766.282 0 .5.047.86.172zm0 0"/></svg><svg overflow="visible" x="14.653" y="36.864"><path d="M5.688-4.563c0-.796-.407-1.468-.829-1.468-.515 0-1.234.36-1.875.922-.468.421-.718.718-1.156 1.421l.234.11.297-1.438c.032-.203.063-.375.063-.515 0-.235-.235-.5-.406-.5-.25 0-.813.297-1.688.922l-.406.296.187.485.547-.36c.328-.218.375-.234.485-.234.109 0 .046-.031.046.14 0 .095-.015.329-.046.454L.453-.234l-.578 2.89-.11.485.204.171a5.507 5.507 0 011.015-.234l.5-3.062V0c.313.11.485.125.625.125.657 0 2.141-.906 2.641-1.656.5-.735.938-2.14.938-3.032zm-1.141.172c0 .97-.438 2.297-1.063 3.204-.25.343-.515.5-1.015.5-.36 0-.563-.047-.828-.204l.203-1.218C2.109-3.641 3.25-5.063 4.25-5.063c.297 0 .297.125.297.672zm0 0"/></svg><svg overflow="visible" x="20.631" y="36.864"><path d="M5.688-4.563c0-.796-.407-1.468-.829-1.468-.515 0-1.234.36-1.875.922-.468.421-.718.718-1.156 1.421l.234.11.297-1.438c.032-.203.063-.375.063-.515 0-.235-.235-.5-.406-.5-.25 0-.813.297-1.688.922l-.406.296.187.485.547-.36c.328-.218.375-.234.485-.234.109 0 .046-.031.046.14 0 .095-.015.329-.046.454L.453-.234l-.578 2.89-.11.485.204.171a5.507 5.507 0 011.015-.234l.5-3.062V0c.313.11.485.125.625.125.657 0 2.141-.906 2.641-1.656.5-.735.938-2.14.938-3.032zm-1.141.172c0 .97-.438 2.297-1.063 3.204-.25.343-.515.5-1.015.5-.36 0-.563-.047-.828-.204l.203-1.218C2.109-3.641 3.25-5.063 4.25-5.063c.297 0 .297.125.297.672zm0 0"/></svg><svg overflow="visible" x="26.608" y="36.864"><path d="M4.61-4.953c0-.563-.532-1.078-1.141-1.078-.781 0-2.188.843-2.672 1.61C.437-3.845.03-2.313.03-1.47.031-.547.703.125 1.563.125 2.25.125 3-.235 4.171-1.188l-.203-.468-.438.312c-.64.453-1.11.657-1.531.657-.578 0-.781-.313-.781-1.047 0-.313.031-.61.078-.844l.86-.219c.202-.047.515-.172.827-.297C4-3.547 4.61-4.219 4.61-4.954zm-1.173.187c0 .516-.265.954-.89 1.25a5.596 5.596 0 01-1.125.375l.062-.265c.188-.797.391-1.219.72-1.516.218-.219.515-.344.812-.344.343 0 .421.11.421.5zm0 0"/></svg><svg overflow="visible" x="31.414" y="36.864"><path d="M5.875-8.86l-.219-.187c-.75.375-1.078.438-2.062.531l-.094.5h.75c.281 0 .25-.046.25.157 0 .109 0 .203-.016.296L4.188-5.89a3.109 3.109 0 00-.875-.14c-.829 0-2.063.906-2.61 1.937-.375.703-.64 1.938-.64 2.938C.063-.375.374.125.734.125c.313 0 .86-.234 1.266-.563.64-.515 1.031-.984 1.844-2.187l-.25-.094-.266 1.078c-.14.532-.203.907-.203 1.22 0 .25.25.546.453.546.219 0 .594-.203 1-.5l1.047-.766-.266-.468-.656.468c-.172.125-.25.172-.36.172-.093 0-.046.031-.046-.14 0-.094.031-.204.11-.547l1.515-7.157zM4.031-5.03l-.14.703A5.233 5.233 0 012.375-1.61c-.422.39-.781.64-1.016.64-.187 0-.171-.031-.171-.328 0-1.516.515-3.281 1.109-3.734.156-.125.281-.14.61-.14.53 0 .765.03 1.109.218zm0 0"/></svg><svg overflow="visible" x="37.392" y="39.638"><path d="M4.781-.11V-.5l-.61-.031c-.468-.031-.421-.016-.421-.531v-.532c.422 0 .625 0 1.031.047v-.781l-.047.094s-.562-.204-.875-.204H3.75V-3.53c0-1.578.016-2.328.078-2.766l-.281-.11-.813.282-2.796 4.172.187.36h2.5v.53c0 .516.047.516-.422.532l-.75.031v.531L3.172 0l1.61.031zm-2-2.328H.97L2.89-5.312l-.266-.094v2.968zm0 0"/></svg><svg overflow="visible" x="46.21" y="36.864"><path d="M8.266-4.078a1.419 1.419 0 01-.047-.36c0-.109.015-.234.062-.484h-7.5c.063.25.063.375.063.484 0 .125 0 .235-.063.5h7.5zm0 2.625a1.332 1.332 0 01-.047-.36c0-.109.015-.234.062-.484h-7.5c.063.25.063.375.063.485 0 .125 0 .25-.063.5h7.5zm0 0"/></svg><svg overflow="visible" x="58.608" y="36.864"><path d="M7.063-17.313c-.063-.046-.125-.093-.188-.156-.063-.047-.11-.11-.219-.312C3.47-14.594 1.563-10.328 1.563-5.5v4.766c0 4.828 1.906 9.093 5.093 12.28.11-.202.157-.265.219-.327.063-.047.125-.11.313-.203C4.14 7.953 2.796 3.89 2.796-.734V-5.5c0-4.64 1.344-8.688 4.39-11.766zm0 0"/></svg><svg overflow="visible" x="66.771" y="29.541"><path d="M5.875-5.875c-.14-.078-.344-.156-.453-.156-.469 0-1.063.468-1.797 1.578l-.453.656.25.094-.078-.578c-.14-1.188-.594-1.75-1.297-1.75-.313 0-.688.14-.797.297L.484-4.61l.407.25c.437-.485.578-.61.812-.61.39 0 .516.36.719 1.532l.125.718-.438.656C1.594-1.25 1.297-.905.953-.905c-.172 0-.172.078-.203.015l-.188-.468-.453.062c0 .36-.03.516-.093.89-.032.141-.047.173-.063.329.219.125.531.203.672.203.39 0 .953-.375 1.328-.938l.906-1.406-.234-.094.125.829c.172 1.015.578 1.609 1 1.609.266 0 .75-.234 1.125-.578l.64-.578-.218-.469c-.578.453-.766.61-.953.61-.188 0-.25-.094-.453-.5.015.046-.11-.407-.172-.75L3.5-3.313l.39-.532c.563-.765.782-1.015 1.157-1.015.187 0 .187-.032.312.312l.36-.11.203-1.171zm0 0"/></svg><svg overflow="visible" x="66.735" y="43.987"><path d="M5.953-5.875l-.203-.156c-.375.14-.64.203-1.016.234l-.453 1.703c-.14.563-.531 1.344-.922 1.938-.421.61-.89 1.094-1.156 1.094-.265 0-.11-.438-.094-.594l.172-2.328c.031-.36.047-.829.047-1.157 0-.53-.219-.89-.422-.89-.156 0-.422.125-1 .515L-.14-4.78l.266.437.734-.453c.063-.047.125-.11.204-.11.312 0 .125.485.109.673L.969-1.328l-.016.484c-.015.5.36.969.656.969.454 0 1.547-1.047 2.438-2.39l-.234-.094-.579 2.03c-.609 2.126-1.078 2.86-1.906 2.86-.422 0-.61-.187-.61-.61 0-.062.016-.155.032-.343l-.297-.11-.672.485c-.015.156-.015.219-.015.281 0 .516.578 1.063 1.125 1.063 1.265 0 2.703-1.61 3.406-3.828L6-5.828zm0 0"/></svg><svg overflow="visible" x="72.928" y="36.863"><path d="M6.531-.734V-5.5c0-4.828-1.875-9.094-5.078-12.281-.11.203-.156.265-.219.312-.062.063-.125.11-.312.203 3.062 3.078 4.39 7.125 4.39 11.766v4.766c0 4.625-1.328 8.687-4.39 11.75.187.093.25.156.312.203.063.062.11.125.22.328C4.655 8.359 6.53 4.094 6.53-.734zm0 0"/></svg><svg overflow="visible" x="84.357" y="36.863"><path d="M8.266-4.078a1.419 1.419 0 01-.047-.36c0-.109.015-.234.062-.484h-7.5c.063.25.063.375.063.484 0 .125 0 .235-.063.5h7.5zm0 2.625a1.332 1.332 0 01-.047-.36c0-.109.015-.234.062-.484h-7.5c.063.25.063.375.063.485 0 .125 0 .25-.063.5h7.5zm0 0"/></svg><svg overflow="visible" x="96.774" y="17.565"><path d="M7.063-14.328l-.188-.14c-.063-.063-.11-.126-.219-.329C3.47-11.609 1.563-7.344 1.563-2.516V0h1.234v-2.516c0-4.625 1.344-8.687 4.39-11.75zm0 0"/></svg><svg overflow="visible" x="96.774" y="21.823"><path d="M2.797-.125V-5H1.562v5h1.235zm0 0"/></svg><svg overflow="visible" x="96.774" y="25.943"><path d="M2.797-.125V-5H1.562v5h1.235zm0 0"/></svg><svg overflow="visible" x="96.774" y="30.062"><path d="M2.797-.125V-5H1.562v5h1.235zm0 0"/></svg><svg overflow="visible" x="96.774" y="34.182"><path d="M2.797-.125V-5H1.562v5h1.235zm0 0"/></svg><svg overflow="visible" x="96.774" y="38.302"><path d="M2.797-.125V-5H1.562v5h1.235zm0 0"/></svg><svg overflow="visible" x="96.774" y="42.421"><path d="M2.797-.125V-5H1.562v5h1.235zm0 0"/></svg><svg overflow="visible" x="96.774" y="46.541"><path d="M2.797-.125V-5H1.562v5h1.235zm0 0"/></svg><svg overflow="visible" x="96.774" y="50.66"><path d="M2.797-.125V-5H1.562v5h1.235zm0 0"/></svg><svg overflow="visible" x="96.774" y="64.626"><path d="M7.063-.563C4.14-3.5 2.796-7.546 2.796-12.187v-2.516H1.562v2.515c0 4.829 1.907 9.094 5.094 12.282.11-.203.157-.266.219-.328.063-.047.125-.094.313-.203zm0 0"/></svg><svg overflow="visible" x="165.472" y="10.79"><path d="M6.156-2.078c-.015-.094-.015-.172-.015-.266 0-.094 0-.172.046-.39H.516c.046.218.062.296.062.39 0 .094-.015.172-.062.39h5.671zm0 0"/></svg><svg overflow="visible" x="172.196" y="10.79"><path d="M4.86-4.406c-.126-.063-.313-.125-.391-.125-.39 0-.89.36-1.485 1.172l-.359.484.266.094-.063-.422c-.11-.875-.515-1.328-1.094-1.328-.25 0-.578.11-.671.218l-.641.875.406.22c.36-.376.453-.454.625-.454.328 0 .375.219.531 1.094l.11.515-.328.485c-.422.594-.641.828-.907.828-.14 0-.093.11-.109.063l-.172-.407-.453.063c0 .297-.016.406-.078.687-.016.11-.016.14-.031.266.187.11.468.172.578.172.312 0 .797-.281 1.094-.703l.734-1.032-.266-.109.11.625c.125.75.5 1.219.843 1.219.22 0 .625-.188.938-.438l.531-.437-.203-.438c-.516.39-.64.485-.781.485-.156 0-.172-.047-.266-.235-.094-.156-.156-.39-.203-.656l-.172-.844.297-.375c.453-.578.61-.75.906-.75.157 0 .11-.062.219.235l.36-.094.187-.922zm0 0"/></svg><svg overflow="visible" x="177.194" y="12.843"><path d="M3.516-.125v-.36L2.953-.5c-.422-.031-.344.063-.344-.281v-4l-.265-.094c-.5.219-1.047.422-1.938.688l.094.53h.219l1-.374h.031c.047 0-.125-.094-.125.062V-.78c0 .344.094.25-.328.281l-.594.016V.03L2.141 0l1.375.031zm0 0"/></svg><svg overflow="visible" x="181.802" y="10.79"><path d="M6.156-2.078c-.015-.094-.015-.172-.015-.266 0-.094 0-.172.046-.39H3.781v-2.438c-.25.063-.328.063-.422.063-.093 0-.171 0-.421-.063v2.438H.515c.046.218.062.296.062.39 0 .094-.015.172-.062.39h2.421V.485c.25-.062.329-.062.422-.062.094 0 .172 0 .422.062v-2.437h2.406zm0 0"/></svg><svg overflow="visible" x="188.526" y="10.79"><path d="M4.86-4.406c-.126-.063-.313-.125-.391-.125-.39 0-.89.36-1.485 1.172l-.359.484.266.094-.063-.422c-.11-.875-.515-1.328-1.094-1.328-.25 0-.578.11-.671.218l-.641.875.406.22c.36-.376.453-.454.625-.454.328 0 .375.219.531 1.094l.11.515-.328.485c-.422.594-.641.828-.907.828-.14 0-.093.11-.109.063l-.172-.407-.453.063c0 .297-.016.406-.078.687-.016.11-.016.14-.031.266.187.11.468.172.578.172.312 0 .797-.281 1.094-.703l.734-1.032-.266-.109.11.625c.125.75.5 1.219.843 1.219.22 0 .625-.188.938-.438l.531-.437-.203-.438c-.516.39-.64.485-.781.485-.156 0-.172-.047-.266-.235-.094-.156-.156-.39-.203-.656l-.172-.844.297-.375c.453-.578.61-.75.906-.75.157 0 .11-.062.219.235l.36-.094.187-.922zm0 0"/></svg><svg overflow="visible" x="193.524" y="12.843"><path d="M3.922-.125v-.36L3.39-.5c-.375-.031-.297.047-.297-.344v-.344c.297 0 .453 0 .828.047v-.64l-.047.11s-.484-.25-.734-.25h-.047v-.75c0-1.173.015-1.735.078-2.11l-.281-.094-.688.219L-.047-1.5l.188.313h1.984v.343c0 .39.078.328-.297.344l-.656.016V.03L2.578 0l1.344.031zM2.297-1.922H.937l1.47-2.047-.282-.11v2.157zm0 0"/></svg><svg overflow="visible" x="198.132" y="10.79"><path d="M6.156-2.078c-.015-.094-.015-.172-.015-.266 0-.094 0-.172.046-.39H.516c.046.218.062.296.062.39 0 .094-.015.172-.062.39h5.671zm0 0"/></svg><svg overflow="visible" x="206.051" y="4.999"><path d="M2.375-4.453c-.047-.016-.078-.047-.11-.078-.03-.032-.062-.063-.156-.25C1.156-3.828.625-2.844.625-2.016v.438c0 .828.531 1.797 1.484 2.766.094-.188.125-.235.157-.266.03-.031.062-.047.25-.14C1.64-.11 1.344-.814 1.344-1.579v-.438c0-.765.297-1.484 1.172-2.359zm0 0"/></svg><svg overflow="visible" x="208.839" y="4.999"><path d="M4.64-1.594c-.015-.078-.015-.14-.015-.203 0-.062 0-.125.047-.36H.328c.047.235.047.298.047.36 0 .063 0 .125-.047.344h4.344zm0 0"/></svg><svg overflow="visible" x="213.836" y="4.999"><path d="M3.969-3.375c-.094-.047-.266-.11-.344-.11-.313 0-.734.282-1.203.891l-.297.36.297.109-.047-.313c-.094-.64-.469-1.046-.922-1.046-.203 0-.5.109-.562.187l-.563.703.39.203c.329-.296.36-.343.5-.343.266 0 .25.109.391.765l.079.375-.25.328c-.329.438-.485.594-.688.594-.125 0-.047.14-.047.11l-.172-.36-.406.047c0 .281-.016.36-.063.578-.015.078-.015.094-.046.219.296.125.421.156.515.156.25 0 .672-.25.906-.547l.375-.484.016.062c.11.563.438.97.719.97.172 0 .531-.157.781-.36l.453-.344-.203-.406c-.453.328-.531.375-.656.375-.11 0-.094-.016-.172-.156-.078-.125-.11-.25-.14-.438l-.141-.625.219-.266c.359-.421.453-.53.687-.53.125 0 .047-.095.156.171l.344-.078.156-.75zm0 0"/></svg><svg overflow="visible" x="217.946" y="7.504"><path d="M3.516-.125v-.36L2.953-.5c-.422-.031-.344.063-.344-.281v-4l-.265-.094c-.5.219-1.047.422-1.938.688l.094.53h.219l1-.374h.031c.047 0-.125-.094-.125.062V-.78c0 .344.094.25-.328.281l-.594.016V.03L2.141 0l1.375.031zm0 0"/></svg><svg overflow="visible" x="222.554" y="4.999"><path d="M4.64-1.594c-.015-.078-.015-.14-.015-.203 0-.062 0-.125.047-.36H2.859v-1.796c-.234.047-.296.047-.359.047s-.125 0-.375-.047v1.797H.328c.047.234.047.297.047.36 0 .062 0 .124-.047.343h1.797V.375c.25-.063.313-.063.375-.063.063 0 .125 0 .36.063v-1.828h1.812zm0 0"/></svg><svg overflow="visible" x="227.551" y="4.999"><path d="M3.969-3.375c-.094-.047-.266-.11-.344-.11-.313 0-.734.282-1.203.891l-.297.36.297.109-.047-.313c-.094-.64-.469-1.046-.922-1.046-.203 0-.5.109-.562.187l-.563.703.39.203c.329-.296.36-.343.5-.343.266 0 .25.109.391.765l.079.375-.25.328c-.329.438-.485.594-.688.594-.125 0-.047.14-.047.11l-.172-.36-.406.047c0 .281-.016.36-.063.578-.015.078-.015.094-.046.219.296.125.421.156.515.156.25 0 .672-.25.906-.547l.375-.484.016.062c.11.563.438.97.719.97.172 0 .531-.157.781-.36l.453-.344-.203-.406c-.453.328-.531.375-.656.375-.11 0-.094-.016-.172-.156-.078-.125-.11-.25-.14-.438l-.141-.625.219-.266c.359-.421.453-.53.687-.53.125 0 .047-.095.156.171l.344-.078.156-.75zm0 0"/></svg><svg overflow="visible" x="231.66" y="7.471"><path d="M3.906-.125c-.031-.14-.031-.203-.031-.297 0-.094 0-.156.047-.469l-2.844.079.11.265 1.39-1.281c.75-.672 1.031-1.14 1.031-1.625 0-.766-.765-1.39-1.734-1.39-.563 0-1.047.187-1.469.546L.234-3.172h.532l.156-.453c.125-.39.234-.406.75-.406.656 0 .906.203.906.765 0 .5-.265.875-1.125 1.657L.078-.375v.406L1.968 0l1.954.031zm0 0"/></svg><svg overflow="visible" x="236.268" y="4.999"><path d="M2.172-1.578v-.438c0-.828-.547-1.812-1.5-2.765-.094.187-.125.218-.156.25-.032.031-.063.062-.25.156.875.875 1.171 1.594 1.171 2.36v.437c0 .766-.296 1.469-1.171 2.36.187.093.218.109.25.14.03.031.062.078.156.265.953-.968 1.5-1.937 1.5-2.765zm0 0"/></svg><svg overflow="visible" x="239.056" y="4.999"><path d="M2.375-4.453c-.047-.016-.078-.047-.11-.078-.03-.032-.062-.063-.156-.25C1.156-3.828.625-2.844.625-2.016v.438c0 .828.531 1.797 1.484 2.766.094-.188.125-.235.157-.266.03-.031.062-.047.25-.14C1.64-.11 1.344-.814 1.344-1.579v-.438c0-.765.297-1.484 1.172-2.359zm0 0"/></svg><svg overflow="visible" x="241.844" y="4.999"><path d="M4.64-1.594c-.015-.078-.015-.14-.015-.203 0-.062 0-.125.047-.36H.328c.047.235.047.298.047.36 0 .063 0 .125-.047.344h4.344zm0 0"/></svg><svg overflow="visible" x="246.841" y="4.999"><path d="M4.016-3.375L3.844-3.5a2.55 2.55 0 01-.719.156l-.313 1.016c-.093.312-.312.672-.562 1-.281.328-.531.578-.703.578-.172 0 .016-.156.016-.25l.125-1.266c.015-.203.015-.453.015-.64 0-.297-.203-.578-.344-.578-.093 0-.312.093-.687.312l-.735.438.235.359.562-.297c.047-.015.032-.031.079-.031.203 0 0 .187 0 .297L.671-.812v.265c-.016.281.312.625.5.625.281 0 1.047-.61 1.625-1.36L2.5-1.374 2.125-.25C1.735.906 1.531 1.234.985 1.234c-.266 0-.313-.03-.313-.25 0-.03 0-.093.031-.234L.422.64l-.5.313c-.016.125-.016.172-.016.203 0 .282.453.657.797.657.813 0 1.828-.97 2.281-2.188l1.094-2.953zm0 0"/></svg><svg overflow="visible" x="250.951" y="7.504"><path d="M3.516-.125v-.36L2.953-.5c-.422-.031-.344.063-.344-.281v-4l-.265-.094c-.5.219-1.047.422-1.938.688l.094.53h.219l1-.374h.031c.047 0-.125-.094-.125.062V-.78c0 .344.094.25-.328.281l-.594.016V.03L2.141 0l1.375.031zm0 0"/></svg><svg overflow="visible" x="255.559" y="4.999"><path d="M4.64-1.594c-.015-.078-.015-.14-.015-.203 0-.062 0-.125.047-.36H2.859v-1.796c-.234.047-.296.047-.359.047s-.125 0-.375-.047v1.797H.328c.047.234.047.297.047.36 0 .062 0 .124-.047.343h1.797V.375c.25-.063.313-.063.375-.063.063 0 .125 0 .36.063v-1.828h1.812zm0 0"/></svg><svg overflow="visible" x="260.556" y="4.999"><path d="M4.016-3.375L3.844-3.5a2.55 2.55 0 01-.719.156l-.313 1.016c-.093.312-.312.672-.562 1-.281.328-.531.578-.703.578-.172 0 .016-.156.016-.25l.125-1.266c.015-.203.015-.453.015-.64 0-.297-.203-.578-.344-.578-.093 0-.312.093-.687.312l-.735.438.235.359.562-.297c.047-.015.032-.031.079-.031.203 0 0 .187 0 .297L.671-.812v.265c-.016.281.312.625.5.625.281 0 1.047-.61 1.625-1.36L2.5-1.374 2.125-.25C1.735.906 1.531 1.234.985 1.234c-.266 0-.313-.03-.313-.25 0-.03 0-.093.031-.234L.422.64l-.5.313c-.016.125-.016.172-.016.203 0 .282.453.657.797.657.813 0 1.828-.97 2.281-2.188l1.094-2.953zm0 0"/></svg><svg overflow="visible" x="264.666" y="7.504"><path d="M3.922-.125v-.36L3.39-.5c-.375-.031-.297.047-.297-.344v-.344c.297 0 .453 0 .828.047v-.64l-.047.11s-.484-.25-.734-.25h-.047v-.75c0-1.173.015-1.735.078-2.11l-.281-.094-.688.219L-.047-1.5l.188.313h1.984v.343c0 .39.078.328-.297.344l-.656.016V.03L2.578 0l1.344.031zM2.297-1.922H.937l1.47-2.047-.282-.11v2.157zm0 0"/></svg><svg overflow="visible" x="269.273" y="4.999"><path d="M2.172-1.578v-.438c0-.828-.547-1.812-1.5-2.765-.094.187-.125.218-.156.25-.032.031-.063.062-.25.156.875.875 1.171 1.594 1.171 2.36v.437c0 .766-.296 1.469-1.171 2.36.187.093.218.109.25.14.03.031.062.078.156.265.953-.968 1.5-1.937 1.5-2.765zm0 0"/></svg><path d="M206.05 8.578h66.012" fill="none" stroke-width=".531" stroke="#000" stroke-miterlimit="10"/><svg overflow="visible" x="225.342" y="13.541"><path d="M4.64-1.594c-.015-.078-.015-.14-.015-.203 0-.062 0-.125.047-.36H.328c.047.235.047.298.047.36 0 .063 0 .125-.047.344h4.344zm0 0"/></svg><svg overflow="visible" x="230.339" y="13.541"><path d="M4.016-3.375L3.844-3.5a2.55 2.55 0 01-.719.156l-.313 1.016c-.093.312-.312.672-.562 1-.281.328-.531.578-.703.578-.172 0 .016-.156.016-.25l.125-1.266c.015-.203.015-.453.015-.64 0-.297-.203-.578-.344-.578-.093 0-.312.093-.687.312l-.735.438.235.359.562-.297c.047-.015.032-.031.079-.031.203 0 0 .187 0 .297L.671-.812v.265c-.016.281.312.625.5.625.281 0 1.047-.61 1.625-1.36L2.5-1.374 2.125-.25C1.735.906 1.531 1.234.985 1.234c-.266 0-.313-.03-.313-.25 0-.03 0-.093.031-.234L.422.64l-.5.313c-.016.125-.016.172-.016.203 0 .282.453.657.797.657.813 0 1.828-.97 2.281-2.188l1.094-2.953zm0 0"/></svg><svg overflow="visible" x="234.448" y="16.047"><path d="M3.516-.125v-.36L2.953-.5c-.422-.031-.344.063-.344-.281v-4l-.265-.094c-.5.219-1.047.422-1.938.688l.094.53h.219l1-.374h.031c.047 0-.125-.094-.125.062V-.78c0 .344.094.25-.328.281l-.594.016V.03L2.141 0l1.375.031zm0 0"/></svg><svg overflow="visible" x="239.056" y="13.542"><path d="M4.64-1.594c-.015-.078-.015-.14-.015-.203 0-.062 0-.125.047-.36H2.859v-1.796c-.234.047-.296.047-.359.047s-.125 0-.375-.047v1.797H.328c.047.234.047.297.047.36 0 .062 0 .124-.047.343h1.797V.375c.25-.063.313-.063.375-.063.063 0 .125 0 .36.063v-1.828h1.812zm0 0"/></svg><svg overflow="visible" x="244.053" y="13.542"><path d="M4.016-3.375L3.844-3.5a2.55 2.55 0 01-.719.156l-.313 1.016c-.093.312-.312.672-.562 1-.281.328-.531.578-.703.578-.172 0 .016-.156.016-.25l.125-1.266c.015-.203.015-.453.015-.64 0-.297-.203-.578-.344-.578-.093 0-.312.093-.687.312l-.735.438.235.359.562-.297c.047-.015.032-.031.079-.031.203 0 0 .187 0 .297L.671-.812v.265c-.016.281.312.625.5.625.281 0 1.047-.61 1.625-1.36L2.5-1.374 2.125-.25C1.735.906 1.531 1.234.985 1.234c-.266 0-.313-.03-.313-.25 0-.03 0-.093.031-.234L.422.64l-.5.313c-.016.125-.016.172-.016.203 0 .282.453.657.797.657.813 0 1.828-.97 2.281-2.188l1.094-2.953zm0 0"/></svg><svg overflow="visible" x="248.163" y="16.014"><path d="M3.906-.125c-.031-.14-.031-.203-.031-.297 0-.094 0-.156.047-.469l-2.844.079.11.265 1.39-1.281c.75-.672 1.031-1.14 1.031-1.625 0-.766-.765-1.39-1.734-1.39-.563 0-1.047.187-1.469.546L.234-3.172h.532l.156-.453c.125-.39.234-.406.75-.406.656 0 .906.203.906.765 0 .5-.265.875-1.125 1.657L.078-.375v.406L1.968 0l1.954.031zm0 0"/></svg><path d="M165.473 17.215h107.785" fill="none" stroke-width=".717" stroke="#000" stroke-miterlimit="10"/><svg overflow="visible" x="165.472" y="28.598"><path d="M6.156-2.078c-.015-.094-.015-.172-.015-.266 0-.094 0-.172.046-.39H.516c.046.218.062.296.062.39 0 .094-.015.172-.062.39h5.671zm0 0"/></svg><svg overflow="visible" x="172.196" y="28.598"><path d="M4.86-4.406c-.126-.063-.313-.125-.391-.125-.39 0-.89.36-1.485 1.172l-.359.484.266.094-.063-.422c-.11-.875-.515-1.328-1.094-1.328-.25 0-.578.11-.671.218l-.641.875.406.22c.36-.376.453-.454.625-.454.328 0 .375.219.531 1.094l.11.515-.328.485c-.422.594-.641.828-.907.828-.14 0-.093.11-.109.063l-.172-.407-.453.063c0 .297-.016.406-.078.687-.016.11-.016.14-.031.266.187.11.468.172.578.172.312 0 .797-.281 1.094-.703l.734-1.032-.266-.109.11.625c.125.75.5 1.219.843 1.219.22 0 .625-.188.938-.438l.531-.437-.203-.438c-.516.39-.64.485-.781.485-.156 0-.172-.047-.266-.235-.094-.156-.156-.39-.203-.656l-.172-.844.297-.375c.453-.578.61-.75.906-.75.157 0 .11-.062.219.235l.36-.094.187-.922zm0 0"/></svg><svg overflow="visible" x="177.194" y="30.651"><path d="M3.516-.125v-.36L2.953-.5c-.422-.031-.344.063-.344-.281v-4l-.265-.094c-.5.219-1.047.422-1.938.688l.094.53h.219l1-.374h.031c.047 0-.125-.094-.125.062V-.78c0 .344.094.25-.328.281l-.594.016V.03L2.141 0l1.375.031zm0 0"/></svg><svg overflow="visible" x="181.802" y="28.598"><path d="M6.156-2.078c-.015-.094-.015-.172-.015-.266 0-.094 0-.172.046-.39H3.781v-2.438c-.25.063-.328.063-.422.063-.093 0-.171 0-.421-.063v2.438H.515c.046.218.062.296.062.39 0 .094-.015.172-.062.39h2.421V.485c.25-.062.329-.062.422-.062.094 0 .172 0 .422.062v-2.437h2.406zm0 0"/></svg><svg overflow="visible" x="188.526" y="28.598"><path d="M4.86-4.406c-.126-.063-.313-.125-.391-.125-.39 0-.89.36-1.485 1.172l-.359.484.266.094-.063-.422c-.11-.875-.515-1.328-1.094-1.328-.25 0-.578.11-.671.218l-.641.875.406.22c.36-.376.453-.454.625-.454.328 0 .375.219.531 1.094l.11.515-.328.485c-.422.594-.641.828-.907.828-.14 0-.093.11-.109.063l-.172-.407-.453.063c0 .297-.016.406-.078.687-.016.11-.016.14-.031.266.187.11.468.172.578.172.312 0 .797-.281 1.094-.703l.734-1.032-.266-.109.11.625c.125.75.5 1.219.843 1.219.22 0 .625-.188.938-.438l.531-.437-.203-.438c-.516.39-.64.485-.781.485-.156 0-.172-.047-.266-.235-.094-.156-.156-.39-.203-.656l-.172-.844.297-.375c.453-.578.61-.75.906-.75.157 0 .11-.062.219.235l.36-.094.187-.922zm0 0"/></svg><svg overflow="visible" x="193.524" y="30.651"><path d="M3.86-1.625c0-.313-.22-.703-.485-.875-.203-.11-.484-.203-.875-.266l.11.266c.624-.422.906-.828.906-1.203 0-.594-.735-1.14-1.594-1.14-.516 0-.984.171-1.39.515L.25-3.281h.563L1-3.797c.094-.219.406-.297.813-.297.5 0 .734.203.734.61 0 .5-.281.75-.828.75-.063 0-.25.25-.25.25l-.282-.11-.109.406.203.157c.328-.14.469-.172.672-.172.656 0 .844.203.844.797 0 .672-.297.953-1 .953-.36 0-.563-.047-.797-.234C.812-.829.766-.875.547-1.422l-.5.172c.187.5.25.734.312 1.172.563.156.907.203 1.188.203.625 0 1.437-.328 1.86-.781.265-.266.452-.656.452-.969zm0 0"/></svg><svg overflow="visible" x="198.132" y="28.598"><path d="M6.156-2.078c-.015-.094-.015-.172-.015-.266 0-.094 0-.172.046-.39H.516c.046.218.062.296.062.39 0 .094-.015.172-.062.39h5.671zm0 0"/></svg><svg overflow="visible" x="206.051" y="22.728"><path d="M2.375-4.453c-.047-.016-.078-.047-.11-.078-.03-.032-.062-.063-.156-.25C1.156-3.828.625-2.844.625-2.016v.438c0 .828.531 1.797 1.484 2.766.094-.188.125-.235.157-.266.03-.031.062-.047.25-.14C1.64-.11 1.344-.814 1.344-1.579v-.438c0-.765.297-1.484 1.172-2.359zm0 0"/></svg><svg overflow="visible" x="208.839" y="22.728"><path d="M4.64-1.594c-.015-.078-.015-.14-.015-.203 0-.062 0-.125.047-.36H.328c.047.235.047.298.047.36 0 .063 0 .125-.047.344h4.344zm0 0"/></svg><svg overflow="visible" x="213.836" y="22.728"><path d="M3.969-3.375c-.094-.047-.266-.11-.344-.11-.313 0-.734.282-1.203.891l-.297.36.297.109-.047-.313c-.094-.64-.469-1.046-.922-1.046-.203 0-.5.109-.562.187l-.563.703.39.203c.329-.296.36-.343.5-.343.266 0 .25.109.391.765l.079.375-.25.328c-.329.438-.485.594-.688.594-.125 0-.047.14-.047.11l-.172-.36-.406.047c0 .281-.016.36-.063.578-.015.078-.015.094-.046.219.296.125.421.156.515.156.25 0 .672-.25.906-.547l.375-.484.016.062c.11.563.438.97.719.97.172 0 .531-.157.781-.36l.453-.344-.203-.406c-.453.328-.531.375-.656.375-.11 0-.094-.016-.172-.156-.078-.125-.11-.25-.14-.438l-.141-.625.219-.266c.359-.421.453-.53.687-.53.125 0 .047-.095.156.171l.344-.078.156-.75zm0 0"/></svg><svg overflow="visible" x="217.946" y="25.233"><path d="M3.516-.125v-.36L2.953-.5c-.422-.031-.344.063-.344-.281v-4l-.265-.094c-.5.219-1.047.422-1.938.688l.094.53h.219l1-.374h.031c.047 0-.125-.094-.125.062V-.78c0 .344.094.25-.328.281l-.594.016V.03L2.141 0l1.375.031zm0 0"/></svg><svg overflow="visible" x="222.554" y="22.728"><path d="M4.64-1.594c-.015-.078-.015-.14-.015-.203 0-.062 0-.125.047-.36H2.859v-1.796c-.234.047-.296.047-.359.047s-.125 0-.375-.047v1.797H.328c.047.234.047.297.047.36 0 .062 0 .124-.047.343h1.797V.375c.25-.063.313-.063.375-.063.063 0 .125 0 .36.063v-1.828h1.812zm0 0"/></svg><svg overflow="visible" x="227.551" y="22.728"><path d="M3.969-3.375c-.094-.047-.266-.11-.344-.11-.313 0-.734.282-1.203.891l-.297.36.297.109-.047-.313c-.094-.64-.469-1.046-.922-1.046-.203 0-.5.109-.562.187l-.563.703.39.203c.329-.296.36-.343.5-.343.266 0 .25.109.391.765l.079.375-.25.328c-.329.438-.485.594-.688.594-.125 0-.047.14-.047.11l-.172-.36-.406.047c0 .281-.016.36-.063.578-.015.078-.015.094-.046.219.296.125.421.156.515.156.25 0 .672-.25.906-.547l.375-.484.016.062c.11.563.438.97.719.97.172 0 .531-.157.781-.36l.453-.344-.203-.406c-.453.328-.531.375-.656.375-.11 0-.094-.016-.172-.156-.078-.125-.11-.25-.14-.438l-.141-.625.219-.266c.359-.421.453-.53.687-.53.125 0 .047-.095.156.171l.344-.078.156-.75zm0 0"/></svg><svg overflow="visible" x="231.66" y="25.2"><path d="M3.906-.125c-.031-.14-.031-.203-.031-.297 0-.094 0-.156.047-.469l-2.844.079.11.265 1.39-1.281c.75-.672 1.031-1.14 1.031-1.625 0-.766-.765-1.39-1.734-1.39-.563 0-1.047.187-1.469.546L.234-3.172h.532l.156-.453c.125-.39.234-.406.75-.406.656 0 .906.203.906.765 0 .5-.265.875-1.125 1.657L.078-.375v.406L1.968 0l1.954.031zm0 0"/></svg><svg overflow="visible" x="236.268" y="22.728"><path d="M2.172-1.578v-.438c0-.828-.547-1.812-1.5-2.765-.094.187-.125.218-.156.25-.032.031-.063.062-.25.156.875.875 1.171 1.594 1.171 2.36v.437c0 .766-.296 1.469-1.171 2.36.187.093.218.109.25.14.03.031.062.078.156.265.953-.968 1.5-1.937 1.5-2.765zm0 0"/></svg><svg overflow="visible" x="239.056" y="22.728"><path d="M2.375-4.453c-.047-.016-.078-.047-.11-.078-.03-.032-.062-.063-.156-.25C1.156-3.828.625-2.844.625-2.016v.438c0 .828.531 1.797 1.484 2.766.094-.188.125-.235.157-.266.03-.031.062-.047.25-.14C1.64-.11 1.344-.814 1.344-1.579v-.438c0-.765.297-1.484 1.172-2.359zm0 0"/></svg><svg overflow="visible" x="241.844" y="22.728"><path d="M4.64-1.594c-.015-.078-.015-.14-.015-.203 0-.062 0-.125.047-.36H.328c.047.235.047.298.047.36 0 .063 0 .125-.047.344h4.344zm0 0"/></svg><svg overflow="visible" x="246.841" y="22.728"><path d="M4.016-3.375L3.844-3.5a2.55 2.55 0 01-.719.156l-.313 1.016c-.093.312-.312.672-.562 1-.281.328-.531.578-.703.578-.172 0 .016-.156.016-.25l.125-1.266c.015-.203.015-.453.015-.64 0-.297-.203-.578-.344-.578-.093 0-.312.093-.687.312l-.735.438.235.359.562-.297c.047-.015.032-.031.079-.031.203 0 0 .187 0 .297L.671-.812v.265c-.016.281.312.625.5.625.281 0 1.047-.61 1.625-1.36L2.5-1.374 2.125-.25C1.735.906 1.531 1.234.985 1.234c-.266 0-.313-.03-.313-.25 0-.03 0-.093.031-.234L.422.64l-.5.313c-.016.125-.016.172-.016.203 0 .282.453.657.797.657.813 0 1.828-.97 2.281-2.188l1.094-2.953zm0 0"/></svg><svg overflow="visible" x="250.951" y="25.233"><path d="M3.516-.125v-.36L2.953-.5c-.422-.031-.344.063-.344-.281v-4l-.265-.094c-.5.219-1.047.422-1.938.688l.094.53h.219l1-.374h.031c.047 0-.125-.094-.125.062V-.78c0 .344.094.25-.328.281l-.594.016V.03L2.141 0l1.375.031zm0 0"/></svg><svg overflow="visible" x="255.559" y="22.728"><path d="M4.64-1.594c-.015-.078-.015-.14-.015-.203 0-.062 0-.125.047-.36H2.859v-1.796c-.234.047-.296.047-.359.047s-.125 0-.375-.047v1.797H.328c.047.234.047.297.047.36 0 .062 0 .124-.047.343h1.797V.375c.25-.063.313-.063.375-.063.063 0 .125 0 .36.063v-1.828h1.812zm0 0"/></svg><svg overflow="visible" x="260.556" y="22.728"><path d="M4.016-3.375L3.844-3.5a2.55 2.55 0 01-.719.156l-.313 1.016c-.093.312-.312.672-.562 1-.281.328-.531.578-.703.578-.172 0 .016-.156.016-.25l.125-1.266c.015-.203.015-.453.015-.64 0-.297-.203-.578-.344-.578-.093 0-.312.093-.687.312l-.735.438.235.359.562-.297c.047-.015.032-.031.079-.031.203 0 0 .187 0 .297L.671-.812v.265c-.016.281.312.625.5.625.281 0 1.047-.61 1.625-1.36L2.5-1.374 2.125-.25C1.735.906 1.531 1.234.985 1.234c-.266 0-.313-.03-.313-.25 0-.03 0-.093.031-.234L.422.64l-.5.313c-.016.125-.016.172-.016.203 0 .282.453.657.797.657.813 0 1.828-.97 2.281-2.188l1.094-2.953zm0 0"/></svg><svg overflow="visible" x="264.666" y="25.2"><path d="M3.86-1.625c0-.313-.22-.703-.485-.875-.203-.11-.484-.203-.875-.266l.11.266c.624-.422.906-.828.906-1.203 0-.594-.735-1.14-1.594-1.14-.516 0-.984.171-1.39.515L.25-3.281h.563L1-3.797c.094-.219.406-.297.813-.297.5 0 .734.203.734.61 0 .5-.281.75-.828.75-.063 0-.25.25-.25.25l-.282-.11-.109.406.203.157c.328-.14.469-.172.672-.172.656 0 .844.203.844.797 0 .672-.297.953-1 .953-.36 0-.563-.047-.797-.234C.812-.829.766-.875.547-1.422l-.5.172c.187.5.25.734.312 1.172.563.156.907.203 1.188.203.625 0 1.437-.328 1.86-.781.265-.266.452-.656.452-.969zm0 0"/></svg><svg overflow="visible" x="269.273" y="22.728"><path d="M2.172-1.578v-.438c0-.828-.547-1.812-1.5-2.765-.094.187-.125.218-.156.25-.032.031-.063.062-.25.156.875.875 1.171 1.594 1.171 2.36v.437c0 .766-.296 1.469-1.171 2.36.187.093.218.109.25.14.03.031.062.078.156.265.953-.968 1.5-1.937 1.5-2.765zm0 0"/></svg><path d="M206.05 26.387h66.012" fill="none" stroke-width=".531" stroke="#000" stroke-miterlimit="10"/><svg overflow="visible" x="225.342" y="31.35"><path d="M4.64-1.594c-.015-.078-.015-.14-.015-.203 0-.062 0-.125.047-.36H.328c.047.235.047.298.047.36 0 .063 0 .125-.047.344h4.344zm0 0"/></svg><svg overflow="visible" x="230.339" y="31.35"><path d="M4.016-3.375L3.844-3.5a2.55 2.55 0 01-.719.156l-.313 1.016c-.093.312-.312.672-.562 1-.281.328-.531.578-.703.578-.172 0 .016-.156.016-.25l.125-1.266c.015-.203.015-.453.015-.64 0-.297-.203-.578-.344-.578-.093 0-.312.093-.687.312l-.735.438.235.359.562-.297c.047-.015.032-.031.079-.031.203 0 0 .187 0 .297L.671-.812v.265c-.016.281.312.625.5.625.281 0 1.047-.61 1.625-1.36L2.5-1.374 2.125-.25C1.735.906 1.531 1.234.985 1.234c-.266 0-.313-.03-.313-.25 0-.03 0-.093.031-.234L.422.64l-.5.313c-.016.125-.016.172-.016.203 0 .282.453.657.797.657.813 0 1.828-.97 2.281-2.188l1.094-2.953zm0 0"/></svg><svg overflow="visible" x="234.448" y="33.855"><path d="M3.516-.125v-.36L2.953-.5c-.422-.031-.344.063-.344-.281v-4l-.265-.094c-.5.219-1.047.422-1.938.688l.094.53h.219l1-.374h.031c.047 0-.125-.094-.125.062V-.78c0 .344.094.25-.328.281l-.594.016V.03L2.141 0l1.375.031zm0 0"/></svg><svg overflow="visible" x="239.056" y="31.35"><path d="M4.64-1.594c-.015-.078-.015-.14-.015-.203 0-.062 0-.125.047-.36H2.859v-1.796c-.234.047-.296.047-.359.047s-.125 0-.375-.047v1.797H.328c.047.234.047.297.047.36 0 .062 0 .124-.047.343h1.797V.375c.25-.063.313-.063.375-.063.063 0 .125 0 .36.063v-1.828h1.812zm0 0"/></svg><svg overflow="visible" x="244.053" y="31.35"><path d="M4.016-3.375L3.844-3.5a2.55 2.55 0 01-.719.156l-.313 1.016c-.093.312-.312.672-.562 1-.281.328-.531.578-.703.578-.172 0 .016-.156.016-.25l.125-1.266c.015-.203.015-.453.015-.64 0-.297-.203-.578-.344-.578-.093 0-.312.093-.687.312l-.735.438.235.359.562-.297c.047-.015.032-.031.079-.031.203 0 0 .187 0 .297L.671-.812v.265c-.016.281.312.625.5.625.281 0 1.047-.61 1.625-1.36L2.5-1.374 2.125-.25C1.735.906 1.531 1.234.985 1.234c-.266 0-.313-.03-.313-.25 0-.03 0-.093.031-.234L.422.64l-.5.313c-.016.125-.016.172-.016.203 0 .282.453.657.797.657.813 0 1.828-.97 2.281-2.188l1.094-2.953zm0 0"/></svg><svg overflow="visible" x="248.163" y="33.822"><path d="M3.906-.125c-.031-.14-.031-.203-.031-.297 0-.094 0-.156.047-.469l-2.844.079.11.265 1.39-1.281c.75-.672 1.031-1.14 1.031-1.625 0-.766-.765-1.39-1.734-1.39-.563 0-1.047.187-1.469.546L.234-3.172h.532l.156-.453c.125-.39.234-.406.75-.406.656 0 .906.203.906.765 0 .5-.265.875-1.125 1.657L.078-.375v.406L1.968 0l1.954.031zm0 0"/></svg><svg overflow="visible" x="106.087" y="46.594"><path d="M3.14-5.86c-.046-.015-.093-.062-.14-.093-.031-.047-.078-.094-.172-.297C1.594-5.016.906-3.766.906-2.64v.593c0 1.125.688 2.375 1.922 3.61.094-.204.14-.25.172-.282.047-.047.094-.093.266-.172C2.172-.016 1.75-1.03 1.75-2.047v-.594c0-1.015.422-2.03 1.516-3.156zm0 0"/></svg><svg overflow="visible" x="109.838" y="46.594"><path d="M6.156-2.078c-.015-.094-.015-.172-.015-.266 0-.094 0-.172.046-.39H.516c.046.218.062.296.062.39 0 .094-.015.172-.062.39h5.671zm0 0"/></svg><svg overflow="visible" x="116.562" y="46.594"><path d="M4.922-4.406l-.188-.14a3.25 3.25 0 01-.875.202L3.5-3.062c-.125.421-.406.968-.734 1.406-.329.437-.688.797-.907.797-.203 0-.03-.297-.03-.407l.14-1.718c.015-.266.047-.61.047-.86 0-.39-.22-.687-.391-.687-.125 0-.375.093-.828.39l-.89.563.265.375.64-.36c.047-.03.063-.062.141-.062.235 0 .047.313.031.453L.828-1.016l-.015.36c0 .36.343.75.578.75.359 0 1.265-.781 2-1.782l-.266-.093-.484 1.5c-.485 1.578-.813 2.078-1.485 2.078-.328 0-.453-.094-.453-.406 0-.047.016-.11.047-.266l-.297-.11-.578.376c-.031.125-.031.187-.031.234 0 .375.531.813.969.813 1.015 0 2.218-1.22 2.78-2.86l1.391-3.937zm0 0"/></svg><svg overflow="visible" x="121.56" y="48.647"><path d="M3.516-.125v-.36L2.953-.5c-.422-.031-.344.063-.344-.281v-4l-.265-.094c-.5.219-1.047.422-1.938.688l.094.53h.219l1-.374h.031c.047 0-.125-.094-.125.062V-.78c0 .344.094.25-.328.281l-.594.016V.03L2.141 0l1.375.031zm0 0"/></svg><svg overflow="visible" x="126.167" y="46.594"><path d="M6.156-2.078c-.015-.094-.015-.172-.015-.266 0-.094 0-.172.046-.39H3.781v-2.438c-.25.063-.328.063-.422.063-.093 0-.171 0-.421-.063v2.438H.515c.046.218.062.296.062.39 0 .094-.015.172-.062.39h2.421V.485c.25-.062.329-.062.422-.062.094 0 .172 0 .422.062v-2.437h2.406zm0 0"/></svg><svg overflow="visible" x="132.891" y="46.594"><path d="M4.922-4.406l-.188-.14a3.25 3.25 0 01-.875.202L3.5-3.062c-.125.421-.406.968-.734 1.406-.329.437-.688.797-.907.797-.203 0-.03-.297-.03-.407l.14-1.718c.015-.266.047-.61.047-.86 0-.39-.22-.687-.391-.687-.125 0-.375.093-.828.39l-.89.563.265.375.64-.36c.047-.03.063-.062.141-.062.235 0 .047.313.031.453L.828-1.016l-.015.36c0 .36.343.75.578.75.359 0 1.265-.781 2-1.782l-.266-.093-.484 1.5c-.485 1.578-.813 2.078-1.485 2.078-.328 0-.453-.094-.453-.406 0-.047.016-.11.047-.266l-.297-.11-.578.376c-.031.125-.031.187-.031.234 0 .375.531.813.969.813 1.015 0 2.218-1.22 2.78-2.86l1.391-3.937zm0 0"/></svg><svg overflow="visible" x="137.889" y="48.647"><path d="M3.922-.125v-.36L3.39-.5c-.375-.031-.297.047-.297-.344v-.344c.297 0 .453 0 .828.047v-.64l-.047.11s-.484-.25-.734-.25h-.047v-.75c0-1.173.015-1.735.078-2.11l-.281-.094-.688.219L-.047-1.5l.188.313h1.984v.343c0 .39.078.328-.297.344l-.656.016V.03L2.578 0l1.344.031zM2.297-1.922H.937l1.47-2.047-.282-.11v2.157zm0 0"/></svg><svg overflow="visible" x="142.497" y="46.594"><path d="M2.844-2.047v-.594c0-1.125-.688-2.375-1.938-3.609-.094.203-.125.25-.172.297-.046.031-.093.078-.265.156C1.579-4.672 2-3.657 2-2.64v.594C2-1.03 1.578-.016.469 1.11a.743.743 0 01.265.172c.047.032.079.078.172.282C2.156.327 2.844-.922 2.844-2.047zm0 0"/></svg><path d="M106.086 50.457h40.16" fill="none" stroke-width=".717" stroke="#000" stroke-miterlimit="10"/><svg overflow="visible" x="109.838" y="57.164"><path d="M6.156-2.078c-.015-.094-.015-.172-.015-.266 0-.094 0-.172.046-.39H.516c.046.218.062.296.062.39 0 .094-.015.172-.062.39h5.671zm0 0"/></svg><svg overflow="visible" x="116.562" y="57.164"><path d="M4.922-4.406l-.188-.14a3.25 3.25 0 01-.875.202L3.5-3.062c-.125.421-.406.968-.734 1.406-.329.437-.688.797-.907.797-.203 0-.03-.297-.03-.407l.14-1.718c.015-.266.047-.61.047-.86 0-.39-.22-.687-.391-.687-.125 0-.375.093-.828.39l-.89.563.265.375.64-.36c.047-.03.063-.062.141-.062.235 0 .047.313.031.453L.828-1.016l-.015.36c0 .36.343.75.578.75.359 0 1.265-.781 2-1.782l-.266-.093-.484 1.5c-.485 1.578-.813 2.078-1.485 2.078-.328 0-.453-.094-.453-.406 0-.047.016-.11.047-.266l-.297-.11-.578.376c-.031.125-.031.187-.031.234 0 .375.531.813.969.813 1.015 0 2.218-1.22 2.78-2.86l1.391-3.937zm0 0"/></svg><svg overflow="visible" x="121.56" y="59.216"><path d="M3.516-.125v-.36L2.953-.5c-.422-.031-.344.063-.344-.281v-4l-.265-.094c-.5.219-1.047.422-1.938.688l.094.53h.219l1-.374h.031c.047 0-.125-.094-.125.062V-.78c0 .344.094.25-.328.281l-.594.016V.03L2.141 0l1.375.031zm0 0"/></svg><svg overflow="visible" x="126.167" y="57.164"><path d="M6.156-2.078c-.015-.094-.015-.172-.015-.266 0-.094 0-.172.046-.39H3.781v-2.438c-.25.063-.328.063-.422.063-.093 0-.171 0-.421-.063v2.438H.515c.046.218.062.296.062.39 0 .094-.015.172-.062.39h2.421V.485c.25-.062.329-.062.422-.062.094 0 .172 0 .422.062v-2.437h2.406zm0 0"/></svg><svg overflow="visible" x="132.891" y="57.164"><path d="M4.922-4.406l-.188-.14a3.25 3.25 0 01-.875.202L3.5-3.062c-.125.421-.406.968-.734 1.406-.329.437-.688.797-.907.797-.203 0-.03-.297-.03-.407l.14-1.718c.015-.266.047-.61.047-.86 0-.39-.22-.687-.391-.687-.125 0-.375.093-.828.39l-.89.563.265.375.64-.36c.047-.03.063-.062.141-.062.235 0 .047.313.031.453L.828-1.016l-.015.36c0 .36.343.75.578.75.359 0 1.265-.781 2-1.782l-.266-.093-.484 1.5c-.485 1.578-.813 2.078-1.485 2.078-.328 0-.453-.094-.453-.406 0-.047.016-.11.047-.266l-.297-.11-.578.376c-.031.125-.031.187-.031.234 0 .375.531.813.969.813 1.015 0 2.218-1.22 2.78-2.86l1.391-3.937zm0 0"/></svg><svg overflow="visible" x="137.889" y="59.216"><path d="M3.906-.125c-.031-.14-.031-.203-.031-.297 0-.094 0-.156.047-.469l-2.844.079.11.265 1.39-1.281c.75-.672 1.031-1.14 1.031-1.625 0-.766-.765-1.39-1.734-1.39-.563 0-1.047.187-1.469.546L.234-3.172h.532l.156-.453c.125-.39.234-.406.75-.406.656 0 .906.203.906.765 0 .5-.265.875-1.125 1.657L.078-.375v.406L1.968 0l1.954.031zm0 0"/></svg><svg overflow="visible" x="150.101" y="53.445"><path d="M8.266-2.766a1.332 1.332 0 01-.047-.359c0-.11.015-.234.062-.484h-3.25v-3.266c-.25.063-.375.078-.484.078-.125 0-.25-.016-.5-.078v3.266H.78c.063.25.063.375.063.484 0 .125 0 .25-.063.5h3.266V.641c.25-.063.375-.079.5-.079.11 0 .234.016.484.079v-3.266h3.25zm0 0"/></svg><svg overflow="visible" x="163.039" y="44.032"><path d="M4.375-9.64c-.047-.032-.094-.063-.14-.11-.048-.047-.079-.094-.173-.281-1.906 1.89-3.03 4.219-3.03 6.672v2.03c0 2.454 1.124 4.782 3.03 6.673.094-.188.125-.235.172-.282.047-.046.094-.078.266-.156C2.719 3.094 1.984 1 1.984-1.328V-3.36c0-2.329.735-4.422 2.516-6.235zm0 0"/></svg><svg overflow="visible" x="168.108" y="44.032"><path d="M4.266-.11V-.5l-.657-.031c-.515-.031-.468.015-.468-.453v-5.329l-.282-.093c-.625.297-1.312.562-2.375.906l.11.594h.234l1.25-.516.031-.016c.047 0-.078-.046-.078.172v4.282c0 .468.047.421-.469.453L.86-.5v.531L2.594 0l1.672.031zm0 0"/></svg><svg overflow="visible" x="173.107" y="44.032"><path d="M6.156-2.078c-.015-.094-.015-.172-.015-.266 0-.094 0-.172.046-.39H.516c.046.218.062.296.062.39 0 .094-.015.172-.062.39h5.671zm0 0"/></svg><svg overflow="visible" x="181.026" y="38.162"><path d="M4.64-1.594c-.015-.078-.015-.14-.015-.203 0-.062 0-.125.047-.36H.328c.047.235.047.298.047.36 0 .063 0 .125-.047.344h4.344zm0 0"/></svg><svg overflow="visible" x="186.023" y="38.162"><path d="M4.016-3.375L3.844-3.5a2.55 2.55 0 01-.719.156l-.313 1.016c-.093.312-.312.672-.562 1-.281.328-.531.578-.703.578-.172 0 .016-.156.016-.25l.125-1.266c.015-.203.015-.453.015-.64 0-.297-.203-.578-.344-.578-.093 0-.312.093-.687.312l-.735.438.235.359.562-.297c.047-.015.032-.031.079-.031.203 0 0 .187 0 .297L.671-.812v.265c-.016.281.312.625.5.625.281 0 1.047-.61 1.625-1.36L2.5-1.374 2.125-.25C1.735.906 1.531 1.234.985 1.234c-.266 0-.313-.03-.313-.25 0-.03 0-.093.031-.234L.422.64l-.5.313c-.016.125-.016.172-.016.203 0 .282.453.657.797.657.813 0 1.828-.97 2.281-2.188l1.094-2.953zm0 0"/></svg><svg overflow="visible" x="190.133" y="40.667"><path d="M3.516-.125v-.36L2.953-.5c-.422-.031-.344.063-.344-.281v-4l-.265-.094c-.5.219-1.047.422-1.938.688l.094.53h.219l1-.374h.031c.047 0-.125-.094-.125.062V-.78c0 .344.094.25-.328.281l-.594.016V.03L2.141 0l1.375.031zm0 0"/></svg><svg overflow="visible" x="194.74" y="38.162"><path d="M4.64-1.594c-.015-.078-.015-.14-.015-.203 0-.062 0-.125.047-.36H2.859v-1.796c-.234.047-.296.047-.359.047s-.125 0-.375-.047v1.797H.328c.047.234.047.297.047.36 0 .062 0 .124-.047.343h1.797V.375c.25-.063.313-.063.375-.063.063 0 .125 0 .36.063v-1.828h1.812zm0 0"/></svg><svg overflow="visible" x="199.737" y="38.162"><path d="M4.016-3.375L3.844-3.5a2.55 2.55 0 01-.719.156l-.313 1.016c-.093.312-.312.672-.562 1-.281.328-.531.578-.703.578-.172 0 .016-.156.016-.25l.125-1.266c.015-.203.015-.453.015-.64 0-.297-.203-.578-.344-.578-.093 0-.312.093-.687.312l-.735.438.235.359.562-.297c.047-.015.032-.031.079-.031.203 0 0 .187 0 .297L.671-.812v.265c-.016.281.312.625.5.625.281 0 1.047-.61 1.625-1.36L2.5-1.374 2.125-.25C1.735.906 1.531 1.234.985 1.234c-.266 0-.313-.03-.313-.25 0-.03 0-.093.031-.234L.422.64l-.5.313c-.016.125-.016.172-.016.203 0 .282.453.657.797.657.813 0 1.828-.97 2.281-2.188l1.094-2.953zm0 0"/></svg><svg overflow="visible" x="203.847" y="40.634"><path d="M3.86-1.625c0-.313-.22-.703-.485-.875-.203-.11-.484-.203-.875-.266l.11.266c.624-.422.906-.828.906-1.203 0-.594-.735-1.14-1.594-1.14-.516 0-.984.171-1.39.515L.25-3.281h.563L1-3.797c.094-.219.406-.297.813-.297.5 0 .734.203.734.61 0 .5-.281.75-.828.75-.063 0-.25.25-.25.25l-.282-.11-.109.406.203.157c.328-.14.469-.172.672-.172.656 0 .844.203.844.797 0 .672-.297.953-1 .953-.36 0-.563-.047-.797-.234C.812-.829.766-.875.547-1.422l-.5.172c.187.5.25.734.312 1.172.563.156.907.203 1.188.203.625 0 1.437-.328 1.86-.781.265-.266.452-.656.452-.969zm0 0"/></svg><path d="M181.027 41.82h27.426" fill="none" stroke-width=".531" stroke="#000" stroke-miterlimit="10"/><svg overflow="visible" x="181.026" y="46.784"><path d="M4.64-1.594c-.015-.078-.015-.14-.015-.203 0-.062 0-.125.047-.36H.328c.047.235.047.298.047.36 0 .063 0 .125-.047.344h4.344zm0 0"/></svg><svg overflow="visible" x="186.023" y="46.784"><path d="M4.016-3.375L3.844-3.5a2.55 2.55 0 01-.719.156l-.313 1.016c-.093.312-.312.672-.562 1-.281.328-.531.578-.703.578-.172 0 .016-.156.016-.25l.125-1.266c.015-.203.015-.453.015-.64 0-.297-.203-.578-.344-.578-.093 0-.312.093-.687.312l-.735.438.235.359.562-.297c.047-.015.032-.031.079-.031.203 0 0 .187 0 .297L.671-.812v.265c-.016.281.312.625.5.625.281 0 1.047-.61 1.625-1.36L2.5-1.374 2.125-.25C1.735.906 1.531 1.234.985 1.234c-.266 0-.313-.03-.313-.25 0-.03 0-.093.031-.234L.422.64l-.5.313c-.016.125-.016.172-.016.203 0 .282.453.657.797.657.813 0 1.828-.97 2.281-2.188l1.094-2.953zm0 0"/></svg><svg overflow="visible" x="190.133" y="49.289"><path d="M3.516-.125v-.36L2.953-.5c-.422-.031-.344.063-.344-.281v-4l-.265-.094c-.5.219-1.047.422-1.938.688l.094.53h.219l1-.374h.031c.047 0-.125-.094-.125.062V-.78c0 .344.094.25-.328.281l-.594.016V.03L2.141 0l1.375.031zm0 0"/></svg><svg overflow="visible" x="194.74" y="46.784"><path d="M4.64-1.594c-.015-.078-.015-.14-.015-.203 0-.062 0-.125.047-.36H2.859v-1.796c-.234.047-.296.047-.359.047s-.125 0-.375-.047v1.797H.328c.047.234.047.297.047.36 0 .062 0 .124-.047.343h1.797V.375c.25-.063.313-.063.375-.063.063 0 .125 0 .36.063v-1.828h1.812zm0 0"/></svg><svg overflow="visible" x="199.737" y="46.784"><path d="M4.016-3.375L3.844-3.5a2.55 2.55 0 01-.719.156l-.313 1.016c-.093.312-.312.672-.562 1-.281.328-.531.578-.703.578-.172 0 .016-.156.016-.25l.125-1.266c.015-.203.015-.453.015-.64 0-.297-.203-.578-.344-.578-.093 0-.312.093-.687.312l-.735.438.235.359.562-.297c.047-.015.032-.031.079-.031.203 0 0 .187 0 .297L.671-.812v.265c-.016.281.312.625.5.625.281 0 1.047-.61 1.625-1.36L2.5-1.374 2.125-.25C1.735.906 1.531 1.234.985 1.234c-.266 0-.313-.03-.313-.25 0-.03 0-.093.031-.234L.422.64l-.5.313c-.016.125-.016.172-.016.203 0 .282.453.657.797.657.813 0 1.828-.97 2.281-2.188l1.094-2.953zm0 0"/></svg><svg overflow="visible" x="203.847" y="49.256"><path d="M3.906-.125c-.031-.14-.031-.203-.031-.297 0-.094 0-.156.047-.469l-2.844.079.11.265 1.39-1.281c.75-.672 1.031-1.14 1.031-1.625 0-.766-.765-1.39-1.734-1.39-.563 0-1.047.187-1.469.546L.234-3.172h.532l.156-.453c.125-.39.234-.406.75-.406.656 0 .906.203.906.765 0 .5-.265.875-1.125 1.657L.078-.375v.406L1.968 0l1.954.031zm0 0"/></svg><svg overflow="visible" x="209.651" y="44.032"><path d="M4.031-1.328V-3.36c0-2.454-1.125-4.782-3.031-6.672-.094.187-.14.234-.172.281-.047.047-.094.078-.265.156 1.78 1.813 2.515 3.906 2.515 6.235v2.03C3.078 1 2.344 3.095.563 4.907c.171.078.218.11.265.157.031.046.078.093.172.28 1.906-1.89 3.031-4.218 3.031-6.671zm0 0"/></svg><svg overflow="visible" x="214.72" y="44.032"><path d="M4.375-9.64c-.047-.032-.094-.063-.14-.11-.048-.047-.079-.094-.173-.281-1.906 1.89-3.03 4.219-3.03 6.672v2.03c0 2.454 1.124 4.782 3.03 6.673.094-.188.125-.235.172-.282.047-.046.094-.078.266-.156C2.719 3.094 1.984 1 1.984-1.328V-3.36c0-2.329.735-4.422 2.516-6.235zm0 0"/></svg><svg overflow="visible" x="219.789" y="44.032"><path d="M6.156-2.078c-.015-.094-.015-.172-.015-.266 0-.094 0-.172.046-.39H.516c.046.218.062.296.062.39 0 .094-.015.172-.062.39h5.671zm0 0"/></svg><svg overflow="visible" x="226.513" y="44.032"><path d="M4.86-4.406c-.126-.063-.313-.125-.391-.125-.39 0-.89.36-1.485 1.172l-.359.484.266.094-.063-.422c-.11-.875-.515-1.328-1.094-1.328-.25 0-.578.11-.671.218l-.641.875.406.22c.36-.376.453-.454.625-.454.328 0 .375.219.531 1.094l.11.515-.328.485c-.422.594-.641.828-.907.828-.14 0-.093.11-.109.063l-.172-.407-.453.063c0 .297-.016.406-.078.687-.016.11-.016.14-.031.266.187.11.468.172.578.172.312 0 .797-.281 1.094-.703l.734-1.032-.266-.109.11.625c.125.75.5 1.219.843 1.219.22 0 .625-.188.938-.438l.531-.437-.203-.438c-.516.39-.64.485-.781.485-.156 0-.172-.047-.266-.235-.094-.156-.156-.39-.203-.656l-.172-.844.297-.375c.453-.578.61-.75.906-.75.157 0 .11-.062.219.235l.36-.094.187-.922zm0 0"/></svg><svg overflow="visible" x="231.511" y="46.085"><path d="M3.516-.125v-.36L2.953-.5c-.422-.031-.344.063-.344-.281v-4l-.265-.094c-.5.219-1.047.422-1.938.688l.094.53h.219l1-.374h.031c.047 0-.125-.094-.125.062V-.78c0 .344.094.25-.328.281l-.594.016V.03L2.141 0l1.375.031zm0 0"/></svg><svg overflow="visible" x="236.119" y="44.032"><path d="M6.156-2.078c-.015-.094-.015-.172-.015-.266 0-.094 0-.172.046-.39H3.781v-2.438c-.25.063-.328.063-.422.063-.093 0-.171 0-.421-.063v2.438H.515c.046.218.062.296.062.39 0 .094-.015.172-.062.39h2.421V.485c.25-.062.329-.062.422-.062.094 0 .172 0 .422.062v-2.437h2.406zm0 0"/></svg><svg overflow="visible" x="242.843" y="44.032"><path d="M4.86-4.406c-.126-.063-.313-.125-.391-.125-.39 0-.89.36-1.485 1.172l-.359.484.266.094-.063-.422c-.11-.875-.515-1.328-1.094-1.328-.25 0-.578.11-.671.218l-.641.875.406.22c.36-.376.453-.454.625-.454.328 0 .375.219.531 1.094l.11.515-.328.485c-.422.594-.641.828-.907.828-.14 0-.093.11-.109.063l-.172-.407-.453.063c0 .297-.016.406-.078.687-.016.11-.016.14-.031.266.187.11.468.172.578.172.312 0 .797-.281 1.094-.703l.734-1.032-.266-.109.11.625c.125.75.5 1.219.843 1.219.22 0 .625-.188.938-.438l.531-.437-.203-.438c-.516.39-.64.485-.781.485-.156 0-.172-.047-.266-.235-.094-.156-.156-.39-.203-.656l-.172-.844.297-.375c.453-.578.61-.75.906-.75.157 0 .11-.062.219.235l.36-.094.187-.922zm0 0"/></svg><svg overflow="visible" x="247.841" y="46.085"><path d="M3.922-.125v-.36L3.39-.5c-.375-.031-.297.047-.297-.344v-.344c.297 0 .453 0 .828.047v-.64l-.047.11s-.484-.25-.734-.25h-.047v-.75c0-1.173.015-1.735.078-2.11l-.281-.094-.688.219L-.047-1.5l.188.313h1.984v.343c0 .39.078.328-.297.344l-.656.016V.03L2.578 0l1.344.031zM2.297-1.922H.937l1.47-2.047-.282-.11v2.157zm0 0"/></svg><svg overflow="visible" x="252.449" y="44.032"><path d="M6.156-2.078c-.015-.094-.015-.172-.015-.266 0-.094 0-.172.046-.39H.516c.046.218.062.296.062.39 0 .094-.015.172-.062.39h5.671zm0 0"/></svg><svg overflow="visible" x="260.368" y="38.241"><path d="M2.375-4.453c-.047-.016-.078-.047-.11-.078-.03-.032-.062-.063-.156-.25C1.156-3.828.625-2.844.625-2.016v.438c0 .828.531 1.797 1.484 2.766.094-.188.125-.235.157-.266.03-.031.062-.047.25-.14C1.64-.11 1.344-.814 1.344-1.579v-.438c0-.765.297-1.484 1.172-2.359zm0 0"/></svg><svg overflow="visible" x="263.156" y="38.241"><path d="M4.64-1.594c-.015-.078-.015-.14-.015-.203 0-.062 0-.125.047-.36H.328c.047.235.047.298.047.36 0 .063 0 .125-.047.344h4.344zm0 0"/></svg><svg overflow="visible" x="268.153" y="38.241"><path d="M3.969-3.375c-.094-.047-.266-.11-.344-.11-.313 0-.734.282-1.203.891l-.297.36.297.109-.047-.313c-.094-.64-.469-1.046-.922-1.046-.203 0-.5.109-.562.187l-.563.703.39.203c.329-.296.36-.343.5-.343.266 0 .25.109.391.765l.079.375-.25.328c-.329.438-.485.594-.688.594-.125 0-.047.14-.047.11l-.172-.36-.406.047c0 .281-.016.36-.063.578-.015.078-.015.094-.046.219.296.125.421.156.515.156.25 0 .672-.25.906-.547l.375-.484.016.062c.11.563.438.97.719.97.172 0 .531-.157.781-.36l.453-.344-.203-.406c-.453.328-.531.375-.656.375-.11 0-.094-.016-.172-.156-.078-.125-.11-.25-.14-.438l-.141-.625.219-.266c.359-.421.453-.53.687-.53.125 0 .047-.095.156.171l.344-.078.156-.75zm0 0"/></svg><svg overflow="visible" x="272.263" y="40.746"><path d="M3.516-.125v-.36L2.953-.5c-.422-.031-.344.063-.344-.281v-4l-.265-.094c-.5.219-1.047.422-1.938.688l.094.53h.219l1-.374h.031c.047 0-.125-.094-.125.062V-.78c0 .344.094.25-.328.281l-.594.016V.03L2.141 0l1.375.031zm0 0"/></svg><g><svg overflow="visible" x="276.87" y="38.241"><path d="M4.64-1.594c-.015-.078-.015-.14-.015-.203 0-.062 0-.125.047-.36H2.859v-1.796c-.234.047-.296.047-.359.047s-.125 0-.375-.047v1.797H.328c.047.234.047.297.047.36 0 .062 0 .124-.047.343h1.797V.375c.25-.063.313-.063.375-.063.063 0 .125 0 .36.063v-1.828h1.812zm0 0"/></svg><svg overflow="visible" x="281.867" y="38.241"><path d="M3.969-3.375c-.094-.047-.266-.11-.344-.11-.313 0-.734.282-1.203.891l-.297.36.297.109-.047-.313c-.094-.64-.469-1.046-.922-1.046-.203 0-.5.109-.562.187l-.563.703.39.203c.329-.296.36-.343.5-.343.266 0 .25.109.391.765l.079.375-.25.328c-.329.438-.485.594-.688.594-.125 0-.047.14-.047.11l-.172-.36-.406.047c0 .281-.016.36-.063.578-.015.078-.015.094-.046.219.296.125.421.156.515.156.25 0 .672-.25.906-.547l.375-.484.016.062c.11.563.438.97.719.97.172 0 .531-.157.781-.36l.453-.344-.203-.406c-.453.328-.531.375-.656.375-.11 0-.094-.016-.172-.156-.078-.125-.11-.25-.14-.438l-.141-.625.219-.266c.359-.421.453-.53.687-.53.125 0 .047-.095.156.171l.344-.078.156-.75zm0 0"/></svg></g><g><svg overflow="visible" x="285.977" y="40.713"><path d="M3.906-.125c-.031-.14-.031-.203-.031-.297 0-.094 0-.156.047-.469l-2.844.079.11.265 1.39-1.281c.75-.672 1.031-1.14 1.031-1.625 0-.766-.765-1.39-1.734-1.39-.563 0-1.047.187-1.469.546L.234-3.172h.532l.156-.453c.125-.39.234-.406.75-.406.656 0 .906.203.906.765 0 .5-.265.875-1.125 1.657L.078-.375v.406L1.968 0l1.954.031zm0 0"/></svg></g><g><svg overflow="visible" x="290.585" y="38.241"><path d="M2.172-1.578v-.438c0-.828-.547-1.812-1.5-2.765-.094.187-.125.218-.156.25-.032.031-.063.062-.25.156.875.875 1.171 1.594 1.171 2.36v.437c0 .766-.296 1.469-1.171 2.36.187.093.218.109.25.14.03.031.062.078.156.265.953-.968 1.5-1.937 1.5-2.765zm0 0"/></svg><svg overflow="visible" x="293.373" y="38.241"><path d="M2.375-4.453c-.047-.016-.078-.047-.11-.078-.03-.032-.062-.063-.156-.25C1.156-3.828.625-2.844.625-2.016v.438c0 .828.531 1.797 1.484 2.766.094-.188.125-.235.157-.266.03-.031.062-.047.25-.14C1.64-.11 1.344-.814 1.344-1.579v-.438c0-.765.297-1.484 1.172-2.359zm0 0"/></svg><svg overflow="visible" x="296.161" y="38.241"><path d="M4.64-1.594c-.015-.078-.015-.14-.015-.203 0-.062 0-.125.047-.36H.328c.047.235.047.298.047.36 0 .063 0 .125-.047.344h4.344zm0 0"/></svg><svg overflow="visible" x="301.158" y="38.241"><path d="M4.016-3.375L3.844-3.5a2.55 2.55 0 01-.719.156l-.313 1.016c-.093.312-.312.672-.562 1-.281.328-.531.578-.703.578-.172 0 .016-.156.016-.25l.125-1.266c.015-.203.015-.453.015-.64 0-.297-.203-.578-.344-.578-.093 0-.312.093-.687.312l-.735.438.235.359.562-.297c.047-.015.032-.031.079-.031.203 0 0 .187 0 .297L.671-.812v.265c-.016.281.312.625.5.625.281 0 1.047-.61 1.625-1.36L2.5-1.374 2.125-.25C1.735.906 1.531 1.234.985 1.234c-.266 0-.313-.03-.313-.25 0-.03 0-.093.031-.234L.422.64l-.5.313c-.016.125-.016.172-.016.203 0 .282.453.657.797.657.813 0 1.828-.97 2.281-2.188l1.094-2.953zm0 0"/></svg></g><g><svg overflow="visible" x="305.268" y="40.746"><path d="M3.516-.125v-.36L2.953-.5c-.422-.031-.344.063-.344-.281v-4l-.265-.094c-.5.219-1.047.422-1.938.688l.094.53h.219l1-.374h.031c.047 0-.125-.094-.125.062V-.78c0 .344.094.25-.328.281l-.594.016V.03L2.141 0l1.375.031zm0 0"/></svg></g><g><svg overflow="visible" x="309.875" y="38.241"><path d="M4.64-1.594c-.015-.078-.015-.14-.015-.203 0-.062 0-.125.047-.36H2.859v-1.796c-.234.047-.296.047-.359.047s-.125 0-.375-.047v1.797H.328c.047.234.047.297.047.36 0 .062 0 .124-.047.343h1.797V.375c.25-.063.313-.063.375-.063.063 0 .125 0 .36.063v-1.828h1.812zm0 0"/></svg><svg overflow="visible" x="314.872" y="38.241"><path d="M4.016-3.375L3.844-3.5a2.55 2.55 0 01-.719.156l-.313 1.016c-.093.312-.312.672-.562 1-.281.328-.531.578-.703.578-.172 0 .016-.156.016-.25l.125-1.266c.015-.203.015-.453.015-.64 0-.297-.203-.578-.344-.578-.093 0-.312.093-.687.312l-.735.438.235.359.562-.297c.047-.015.032-.031.079-.031.203 0 0 .187 0 .297L.671-.812v.265c-.016.281.312.625.5.625.281 0 1.047-.61 1.625-1.36L2.5-1.374 2.125-.25C1.735.906 1.531 1.234.985 1.234c-.266 0-.313-.03-.313-.25 0-.03 0-.093.031-.234L.422.64l-.5.313c-.016.125-.016.172-.016.203 0 .282.453.657.797.657.813 0 1.828-.97 2.281-2.188l1.094-2.953zm0 0"/></svg></g><g><svg overflow="visible" x="318.982" y="40.746"><path d="M3.922-.125v-.36L3.39-.5c-.375-.031-.297.047-.297-.344v-.344c.297 0 .453 0 .828.047v-.64l-.047.11s-.484-.25-.734-.25h-.047v-.75c0-1.173.015-1.735.078-2.11l-.281-.094-.688.219L-.047-1.5l.188.313h1.984v.343c0 .39.078.328-.297.344l-.656.016V.03L2.578 0l1.344.031zM2.297-1.922H.937l1.47-2.047-.282-.11v2.157zm0 0"/></svg></g><g><svg overflow="visible" x="323.59" y="38.241"><path d="M2.172-1.578v-.438c0-.828-.547-1.812-1.5-2.765-.094.187-.125.218-.156.25-.032.031-.063.062-.25.156.875.875 1.171 1.594 1.171 2.36v.437c0 .766-.296 1.469-1.171 2.36.187.093.218.109.25.14.03.031.062.078.156.265.953-.968 1.5-1.937 1.5-2.765zm0 0"/></svg></g><path d="M260.367 41.82h66.012" fill="none" stroke-width=".531" stroke="#000" stroke-miterlimit="10"/><g><svg overflow="visible" x="279.658" y="46.784"><path d="M4.64-1.594c-.015-.078-.015-.14-.015-.203 0-.062 0-.125.047-.36H.328c.047.235.047.298.047.36 0 .063 0 .125-.047.344h4.344zm0 0"/></svg><svg overflow="visible" x="284.655" y="46.784"><path d="M4.016-3.375L3.844-3.5a2.55 2.55 0 01-.719.156l-.313 1.016c-.093.312-.312.672-.562 1-.281.328-.531.578-.703.578-.172 0 .016-.156.016-.25l.125-1.266c.015-.203.015-.453.015-.64 0-.297-.203-.578-.344-.578-.093 0-.312.093-.687.312l-.735.438.235.359.562-.297c.047-.015.032-.031.079-.031.203 0 0 .187 0 .297L.671-.812v.265c-.016.281.312.625.5.625.281 0 1.047-.61 1.625-1.36L2.5-1.374 2.125-.25C1.735.906 1.531 1.234.985 1.234c-.266 0-.313-.03-.313-.25 0-.03 0-.093.031-.234L.422.64l-.5.313c-.016.125-.016.172-.016.203 0 .282.453.657.797.657.813 0 1.828-.97 2.281-2.188l1.094-2.953zm0 0"/></svg></g><g><svg overflow="visible" x="288.765" y="49.289"><path d="M3.516-.125v-.36L2.953-.5c-.422-.031-.344.063-.344-.281v-4l-.265-.094c-.5.219-1.047.422-1.938.688l.094.53h.219l1-.374h.031c.047 0-.125-.094-.125.062V-.78c0 .344.094.25-.328.281l-.594.016V.03L2.141 0l1.375.031zm0 0"/></svg></g><g><svg overflow="visible" x="293.373" y="46.784"><path d="M4.64-1.594c-.015-.078-.015-.14-.015-.203 0-.062 0-.125.047-.36H2.859v-1.796c-.234.047-.296.047-.359.047s-.125 0-.375-.047v1.797H.328c.047.234.047.297.047.36 0 .062 0 .124-.047.343h1.797V.375c.25-.063.313-.063.375-.063.063 0 .125 0 .36.063v-1.828h1.812zm0 0"/></svg><svg overflow="visible" x="298.37" y="46.784"><path d="M4.016-3.375L3.844-3.5a2.55 2.55 0 01-.719.156l-.313 1.016c-.093.312-.312.672-.562 1-.281.328-.531.578-.703.578-.172 0 .016-.156.016-.25l.125-1.266c.015-.203.015-.453.015-.64 0-.297-.203-.578-.344-.578-.093 0-.312.093-.687.312l-.735.438.235.359.562-.297c.047-.015.032-.031.079-.031.203 0 0 .187 0 .297L.671-.812v.265c-.016.281.312.625.5.625.281 0 1.047-.61 1.625-1.36L2.5-1.374 2.125-.25C1.735.906 1.531 1.234.985 1.234c-.266 0-.313-.03-.313-.25 0-.03 0-.093.031-.234L.422.64l-.5.313c-.016.125-.016.172-.016.203 0 .282.453.657.797.657.813 0 1.828-.97 2.281-2.188l1.094-2.953zm0 0"/></svg></g><g><svg overflow="visible" x="302.48" y="49.256"><path d="M3.906-.125c-.031-.14-.031-.203-.031-.297 0-.094 0-.156.047-.469l-2.844.079.11.265 1.39-1.281c.75-.672 1.031-1.14 1.031-1.625 0-.766-.765-1.39-1.734-1.39-.563 0-1.047.187-1.469.546L.234-3.172h.532l.156-.453c.125-.39.234-.406.75-.406.656 0 .906.203.906.765 0 .5-.265.875-1.125 1.657L.078-.375v.406L1.968 0l1.954.031zm0 0"/></svg></g><g><svg overflow="visible" x="327.573" y="44.032"><path d="M4.031-1.328V-3.36c0-2.454-1.125-4.782-3.031-6.672-.094.187-.14.234-.172.281-.047.047-.094.078-.265.156 1.78 1.813 2.515 3.906 2.515 6.235v2.03C3.078 1 2.344 3.095.563 4.907c.171.078.218.11.265.157.031.046.078.093.172.28 1.906-1.89 3.031-4.218 3.031-6.671zm0 0"/></svg></g><path d="M163.04 50.457h169.605" fill="none" stroke-width=".717" stroke="#000" stroke-miterlimit="10"/><g><svg overflow="visible" x="193.949" y="61.84"><path d="M6.156-2.078c-.015-.094-.015-.172-.015-.266 0-.094 0-.172.046-.39H.516c.046.218.062.296.062.39 0 .094-.015.172-.062.39h5.671zm0 0"/></svg><svg overflow="visible" x="200.673" y="61.84"><path d="M4.86-4.406c-.126-.063-.313-.125-.391-.125-.39 0-.89.36-1.485 1.172l-.359.484.266.094-.063-.422c-.11-.875-.515-1.328-1.094-1.328-.25 0-.578.11-.671.218l-.641.875.406.22c.36-.376.453-.454.625-.454.328 0 .375.219.531 1.094l.11.515-.328.485c-.422.594-.641.828-.907.828-.14 0-.093.11-.109.063l-.172-.407-.453.063c0 .297-.016.406-.078.687-.016.11-.016.14-.031.266.187.11.468.172.578.172.312 0 .797-.281 1.094-.703l.734-1.032-.266-.109.11.625c.125.75.5 1.219.843 1.219.22 0 .625-.188.938-.438l.531-.437-.203-.438c-.516.39-.64.485-.781.485-.156 0-.172-.047-.266-.235-.094-.156-.156-.39-.203-.656l-.172-.844.297-.375c.453-.578.61-.75.906-.75.157 0 .11-.062.219.235l.36-.094.187-.922zm0 0"/></svg></g><g><svg overflow="visible" x="205.671" y="63.893"><path d="M3.516-.125v-.36L2.953-.5c-.422-.031-.344.063-.344-.281v-4l-.265-.094c-.5.219-1.047.422-1.938.688l.094.53h.219l1-.374h.031c.047 0-.125-.094-.125.062V-.78c0 .344.094.25-.328.281l-.594.016V.03L2.141 0l1.375.031zm0 0"/></svg></g><g><svg overflow="visible" x="210.278" y="61.84"><path d="M6.156-2.078c-.015-.094-.015-.172-.015-.266 0-.094 0-.172.046-.39H3.781v-2.438c-.25.063-.328.063-.422.063-.093 0-.171 0-.421-.063v2.438H.515c.046.218.062.296.062.39 0 .094-.015.172-.062.39h2.421V.485c.25-.062.329-.062.422-.062.094 0 .172 0 .422.062v-2.437h2.406zm0 0"/></svg><svg overflow="visible" x="217.002" y="61.84"><path d="M4.86-4.406c-.126-.063-.313-.125-.391-.125-.39 0-.89.36-1.485 1.172l-.359.484.266.094-.063-.422c-.11-.875-.515-1.328-1.094-1.328-.25 0-.578.11-.671.218l-.641.875.406.22c.36-.376.453-.454.625-.454.328 0 .375.219.531 1.094l.11.515-.328.485c-.422.594-.641.828-.907.828-.14 0-.093.11-.109.063l-.172-.407-.453.063c0 .297-.016.406-.078.687-.016.11-.016.14-.031.266.187.11.468.172.578.172.312 0 .797-.281 1.094-.703l.734-1.032-.266-.109.11.625c.125.75.5 1.219.843 1.219.22 0 .625-.188.938-.438l.531-.437-.203-.438c-.516.39-.64.485-.781.485-.156 0-.172-.047-.266-.235-.094-.156-.156-.39-.203-.656l-.172-.844.297-.375c.453-.578.61-.75.906-.75.157 0 .11-.062.219.235l.36-.094.187-.922zm0 0"/></svg></g><g><svg overflow="visible" x="222.001" y="63.893"><path d="M3.86-1.625c0-.313-.22-.703-.485-.875-.203-.11-.484-.203-.875-.266l.11.266c.624-.422.906-.828.906-1.203 0-.594-.735-1.14-1.594-1.14-.516 0-.984.171-1.39.515L.25-3.281h.563L1-3.797c.094-.219.406-.297.813-.297.5 0 .734.203.734.61 0 .5-.281.75-.828.75-.063 0-.25.25-.25.25l-.282-.11-.109.406.203.157c.328-.14.469-.172.672-.172.656 0 .844.203.844.797 0 .672-.297.953-1 .953-.36 0-.563-.047-.797-.234C.812-.829.766-.875.547-1.422l-.5.172c.187.5.25.734.312 1.172.563.156.907.203 1.188.203.625 0 1.437-.328 1.86-.781.265-.266.452-.656.452-.969zm0 0"/></svg></g><g><svg overflow="visible" x="226.608" y="61.84"><path d="M6.156-2.078c-.015-.094-.015-.172-.015-.266 0-.094 0-.172.046-.39H.516c.046.218.062.296.062.39 0 .094-.015.172-.062.39h5.671zm0 0"/></svg></g><g><svg overflow="visible" x="234.527" y="55.97"><path d="M2.375-4.453c-.047-.016-.078-.047-.11-.078-.03-.032-.062-.063-.156-.25C1.156-3.828.625-2.844.625-2.016v.438c0 .828.531 1.797 1.484 2.766.094-.188.125-.235.157-.266.03-.031.062-.047.25-.14C1.64-.11 1.344-.814 1.344-1.579v-.438c0-.765.297-1.484 1.172-2.359zm0 0"/></svg><svg overflow="visible" x="237.315" y="55.97"><path d="M4.64-1.594c-.015-.078-.015-.14-.015-.203 0-.062 0-.125.047-.36H.328c.047.235.047.298.047.36 0 .063 0 .125-.047.344h4.344zm0 0"/></svg><svg overflow="visible" x="242.312" y="55.97"><path d="M3.969-3.375c-.094-.047-.266-.11-.344-.11-.313 0-.734.282-1.203.891l-.297.36.297.109-.047-.313c-.094-.64-.469-1.046-.922-1.046-.203 0-.5.109-.562.187l-.563.703.39.203c.329-.296.36-.343.5-.343.266 0 .25.109.391.765l.079.375-.25.328c-.329.438-.485.594-.688.594-.125 0-.047.14-.047.11l-.172-.36-.406.047c0 .281-.016.36-.063.578-.015.078-.015.094-.046.219.296.125.421.156.515.156.25 0 .672-.25.906-.547l.375-.484.016.062c.11.563.438.97.719.97.172 0 .531-.157.781-.36l.453-.344-.203-.406c-.453.328-.531.375-.656.375-.11 0-.094-.016-.172-.156-.078-.125-.11-.25-.14-.438l-.141-.625.219-.266c.359-.421.453-.53.687-.53.125 0 .047-.095.156.171l.344-.078.156-.75zm0 0"/></svg></g><g><svg overflow="visible" x="246.422" y="58.475"><path d="M3.516-.125v-.36L2.953-.5c-.422-.031-.344.063-.344-.281v-4l-.265-.094c-.5.219-1.047.422-1.938.688l.094.53h.219l1-.374h.031c.047 0-.125-.094-.125.062V-.78c0 .344.094.25-.328.281l-.594.016V.03L2.141 0l1.375.031zm0 0"/></svg></g><g><svg overflow="visible" x="251.03" y="55.97"><path d="M4.64-1.594c-.015-.078-.015-.14-.015-.203 0-.062 0-.125.047-.36H2.859v-1.796c-.234.047-.296.047-.359.047s-.125 0-.375-.047v1.797H.328c.047.234.047.297.047.36 0 .062 0 .124-.047.343h1.797V.375c.25-.063.313-.063.375-.063.063 0 .125 0 .36.063v-1.828h1.812zm0 0"/></svg><svg overflow="visible" x="256.027" y="55.97"><path d="M3.969-3.375c-.094-.047-.266-.11-.344-.11-.313 0-.734.282-1.203.891l-.297.36.297.109-.047-.313c-.094-.64-.469-1.046-.922-1.046-.203 0-.5.109-.562.187l-.563.703.39.203c.329-.296.36-.343.5-.343.266 0 .25.109.391.765l.079.375-.25.328c-.329.438-.485.594-.688.594-.125 0-.047.14-.047.11l-.172-.36-.406.047c0 .281-.016.36-.063.578-.015.078-.015.094-.046.219.296.125.421.156.515.156.25 0 .672-.25.906-.547l.375-.484.016.062c.11.563.438.97.719.97.172 0 .531-.157.781-.36l.453-.344-.203-.406c-.453.328-.531.375-.656.375-.11 0-.094-.016-.172-.156-.078-.125-.11-.25-.14-.438l-.141-.625.219-.266c.359-.421.453-.53.687-.53.125 0 .047-.095.156.171l.344-.078.156-.75zm0 0"/></svg></g><g><svg overflow="visible" x="260.137" y="58.442"><path d="M3.906-.125c-.031-.14-.031-.203-.031-.297 0-.094 0-.156.047-.469l-2.844.079.11.265 1.39-1.281c.75-.672 1.031-1.14 1.031-1.625 0-.766-.765-1.39-1.734-1.39-.563 0-1.047.187-1.469.546L.234-3.172h.532l.156-.453c.125-.39.234-.406.75-.406.656 0 .906.203.906.765 0 .5-.265.875-1.125 1.657L.078-.375v.406L1.968 0l1.954.031zm0 0"/></svg></g><g><svg overflow="visible" x="264.744" y="55.97"><path d="M2.172-1.578v-.438c0-.828-.547-1.812-1.5-2.765-.094.187-.125.218-.156.25-.032.031-.063.062-.25.156.875.875 1.171 1.594 1.171 2.36v.437c0 .766-.296 1.469-1.171 2.36.187.093.218.109.25.14.03.031.062.078.156.265.953-.968 1.5-1.937 1.5-2.765zm0 0"/></svg><svg overflow="visible" x="267.532" y="55.97"><path d="M2.375-4.453c-.047-.016-.078-.047-.11-.078-.03-.032-.062-.063-.156-.25C1.156-3.828.625-2.844.625-2.016v.438c0 .828.531 1.797 1.484 2.766.094-.188.125-.235.157-.266.03-.031.062-.047.25-.14C1.64-.11 1.344-.814 1.344-1.579v-.438c0-.765.297-1.484 1.172-2.359zm0 0"/></svg><svg overflow="visible" x="270.32" y="55.97"><path d="M4.64-1.594c-.015-.078-.015-.14-.015-.203 0-.062 0-.125.047-.36H.328c.047.235.047.298.047.36 0 .063 0 .125-.047.344h4.344zm0 0"/></svg><svg overflow="visible" x="275.317" y="55.97"><path d="M4.016-3.375L3.844-3.5a2.55 2.55 0 01-.719.156l-.313 1.016c-.093.312-.312.672-.562 1-.281.328-.531.578-.703.578-.172 0 .016-.156.016-.25l.125-1.266c.015-.203.015-.453.015-.64 0-.297-.203-.578-.344-.578-.093 0-.312.093-.687.312l-.735.438.235.359.562-.297c.047-.015.032-.031.079-.031.203 0 0 .187 0 .297L.671-.812v.265c-.016.281.312.625.5.625.281 0 1.047-.61 1.625-1.36L2.5-1.374 2.125-.25C1.735.906 1.531 1.234.985 1.234c-.266 0-.313-.03-.313-.25 0-.03 0-.093.031-.234L.422.64l-.5.313c-.016.125-.016.172-.016.203 0 .282.453.657.797.657.813 0 1.828-.97 2.281-2.188l1.094-2.953zm0 0"/></svg></g><g><svg overflow="visible" x="279.427" y="58.475"><path d="M3.516-.125v-.36L2.953-.5c-.422-.031-.344.063-.344-.281v-4l-.265-.094c-.5.219-1.047.422-1.938.688l.094.53h.219l1-.374h.031c.047 0-.125-.094-.125.062V-.78c0 .344.094.25-.328.281l-.594.016V.03L2.141 0l1.375.031zm0 0"/></svg></g><g><svg overflow="visible" x="284.035" y="55.97"><path d="M4.64-1.594c-.015-.078-.015-.14-.015-.203 0-.062 0-.125.047-.36H2.859v-1.796c-.234.047-.296.047-.359.047s-.125 0-.375-.047v1.797H.328c.047.234.047.297.047.36 0 .062 0 .124-.047.343h1.797V.375c.25-.063.313-.063.375-.063.063 0 .125 0 .36.063v-1.828h1.812zm0 0"/></svg><svg overflow="visible" x="289.032" y="55.97"><path d="M4.016-3.375L3.844-3.5a2.55 2.55 0 01-.719.156l-.313 1.016c-.093.312-.312.672-.562 1-.281.328-.531.578-.703.578-.172 0 .016-.156.016-.25l.125-1.266c.015-.203.015-.453.015-.64 0-.297-.203-.578-.344-.578-.093 0-.312.093-.687.312l-.735.438.235.359.562-.297c.047-.015.032-.031.079-.031.203 0 0 .187 0 .297L.671-.812v.265c-.016.281.312.625.5.625.281 0 1.047-.61 1.625-1.36L2.5-1.374 2.125-.25C1.735.906 1.531 1.234.985 1.234c-.266 0-.313-.03-.313-.25 0-.03 0-.093.031-.234L.422.64l-.5.313c-.016.125-.016.172-.016.203 0 .282.453.657.797.657.813 0 1.828-.97 2.281-2.188l1.094-2.953zm0 0"/></svg></g><g><svg overflow="visible" x="293.142" y="58.442"><path d="M3.86-1.625c0-.313-.22-.703-.485-.875-.203-.11-.484-.203-.875-.266l.11.266c.624-.422.906-.828.906-1.203 0-.594-.735-1.14-1.594-1.14-.516 0-.984.171-1.39.515L.25-3.281h.563L1-3.797c.094-.219.406-.297.813-.297.5 0 .734.203.734.61 0 .5-.281.75-.828.75-.063 0-.25.25-.25.25l-.282-.11-.109.406.203.157c.328-.14.469-.172.672-.172.656 0 .844.203.844.797 0 .672-.297.953-1 .953-.36 0-.563-.047-.797-.234C.812-.829.766-.875.547-1.422l-.5.172c.187.5.25.734.312 1.172.563.156.907.203 1.188.203.625 0 1.437-.328 1.86-.781.265-.266.452-.656.452-.969zm0 0"/></svg></g><g><svg overflow="visible" x="297.749" y="55.97"><path d="M2.172-1.578v-.438c0-.828-.547-1.812-1.5-2.765-.094.187-.125.218-.156.25-.032.031-.063.062-.25.156.875.875 1.171 1.594 1.171 2.36v.437c0 .766-.296 1.469-1.171 2.36.187.093.218.109.25.14.03.031.062.078.156.265.953-.968 1.5-1.937 1.5-2.765zm0 0"/></svg></g><path d="M234.527 59.629h66.008" fill="none" stroke-width=".531" stroke="#000" stroke-miterlimit="10"/><g><svg overflow="visible" x="253.818" y="64.592"><path d="M4.64-1.594c-.015-.078-.015-.14-.015-.203 0-.062 0-.125.047-.36H.328c.047.235.047.298.047.36 0 .063 0 .125-.047.344h4.344zm0 0"/></svg><svg overflow="visible" x="258.815" y="64.592"><path d="M4.016-3.375L3.844-3.5a2.55 2.55 0 01-.719.156l-.313 1.016c-.093.312-.312.672-.562 1-.281.328-.531.578-.703.578-.172 0 .016-.156.016-.25l.125-1.266c.015-.203.015-.453.015-.64 0-.297-.203-.578-.344-.578-.093 0-.312.093-.687.312l-.735.438.235.359.562-.297c.047-.015.032-.031.079-.031.203 0 0 .187 0 .297L.671-.812v.265c-.016.281.312.625.5.625.281 0 1.047-.61 1.625-1.36L2.5-1.374 2.125-.25C1.735.906 1.531 1.234.985 1.234c-.266 0-.313-.03-.313-.25 0-.03 0-.093.031-.234L.422.64l-.5.313c-.016.125-.016.172-.016.203 0 .282.453.657.797.657.813 0 1.828-.97 2.281-2.188l1.094-2.953zm0 0"/></svg></g><g><svg overflow="visible" x="262.925" y="67.097"><path d="M3.516-.125v-.36L2.953-.5c-.422-.031-.344.063-.344-.281v-4l-.265-.094c-.5.219-1.047.422-1.938.688l.094.53h.219l1-.374h.031c.047 0-.125-.094-.125.062V-.78c0 .344.094.25-.328.281l-.594.016V.03L2.141 0l1.375.031zm0 0"/></svg></g><g><svg overflow="visible" x="267.532" y="64.592"><path d="M4.64-1.594c-.015-.078-.015-.14-.015-.203 0-.062 0-.125.047-.36H2.859v-1.796c-.234.047-.296.047-.359.047s-.125 0-.375-.047v1.797H.328c.047.234.047.297.047.36 0 .062 0 .124-.047.343h1.797V.375c.25-.063.313-.063.375-.063.063 0 .125 0 .36.063v-1.828h1.812zm0 0"/></svg><svg overflow="visible" x="272.529" y="64.592"><path d="M4.016-3.375L3.844-3.5a2.55 2.55 0 01-.719.156l-.313 1.016c-.093.312-.312.672-.562 1-.281.328-.531.578-.703.578-.172 0 .016-.156.016-.25l.125-1.266c.015-.203.015-.453.015-.64 0-.297-.203-.578-.344-.578-.093 0-.312.093-.687.312l-.735.438.235.359.562-.297c.047-.015.032-.031.079-.031.203 0 0 .187 0 .297L.671-.812v.265c-.016.281.312.625.5.625.281 0 1.047-.61 1.625-1.36L2.5-1.374 2.125-.25C1.735.906 1.531 1.234.985 1.234c-.266 0-.313-.03-.313-.25 0-.03 0-.093.031-.234L.422.64l-.5.313c-.016.125-.016.172-.016.203 0 .282.453.657.797.657.813 0 1.828-.97 2.281-2.188l1.094-2.953zm0 0"/></svg></g><g><svg overflow="visible" x="276.639" y="67.064"><path d="M3.906-.125c-.031-.14-.031-.203-.031-.297 0-.094 0-.156.047-.469l-2.844.079.11.265 1.39-1.281c.75-.672 1.031-1.14 1.031-1.625 0-.766-.765-1.39-1.734-1.39-.563 0-1.047.187-1.469.546L.234-3.172h.532l.156-.453c.125-.39.234-.406.75-.406.656 0 .906.203.906.765 0 .5-.265.875-1.125 1.657L.078-.375v.406L1.968 0l1.954.031zm0 0"/></svg></g><g><svg overflow="visible" x="333.838" y="17.565"><path d="M6.531-.125v-2.39c0-4.829-1.875-9.094-5.078-12.282-.11.203-.156.266-.219.328-.062.047-.125.094-.312.203 3.062 3.063 4.39 7.125 4.39 11.75V0h1.22zm0 0"/></svg></g><g><svg overflow="visible" x="333.838" y="21.823"><path d="M6.531-.125V-5H5.313v5H6.53zm0 0"/></svg></g><g><svg overflow="visible" x="333.838" y="25.943"><path d="M6.531-.125V-5H5.313v5H6.53zm0 0"/></svg></g><g><svg overflow="visible" x="333.838" y="30.062"><path d="M6.531-.125V-5H5.313v5H6.53zm0 0"/></svg></g><g><svg overflow="visible" x="333.838" y="34.182"><path d="M6.531-.125V-5H5.313v5H6.53zm0 0"/></svg></g><g><svg overflow="visible" x="333.838" y="38.302"><path d="M6.531-.125V-5H5.313v5H6.53zm0 0"/></svg></g><g><svg overflow="visible" x="333.838" y="42.421"><path d="M6.531-.125V-5H5.313v5H6.53zm0 0"/></svg></g><g><svg overflow="visible" x="333.838" y="46.541"><path d="M6.531-.125V-5H5.313v5H6.53zm0 0"/></svg></g><g><svg overflow="visible" x="333.838" y="50.66"><path d="M6.531-.125V-5H5.313v5H6.53zm0 0"/></svg></g><g><svg overflow="visible" x="333.838" y="64.626"><path d="M6.531-12.188v-2.515H5.313v2.515C5.313-7.546 3.984-3.5.921-.438c.187.11.25.157.312.204.063.062.11.125.22.328C4.655-3.094 6.53-7.36 6.53-12.187zm0 0"/></svg></g></svg>