<svg xmlns="http://www.w3.org/2000/svg" xmlns:xlink="http://www.w3.org/1999/xlink" width="427px" height="40" viewBox="0 0 320 30"><defs><symbol overflow="visible" id="a"><path d="M2.484-.766c0-.343-.468-.765-.828-.765-.343 0-.828.422-.828.765 0 .344.485.766.828.766.36 0 .828-.422.828-.766zm0 0"/></symbol><symbol overflow="visible" id="b"><path d="M8.828-4.281c0-.125-.312-.375-.437-.375H.906c-.125 0-.437.25-.437.375 0 .14.312.375.437.375h7.485c.125 0 .437-.235.437-.375zm0 2.328c0-.14-.312-.375-.437-.375H.906c-.125 0-.437.234-.437.375 0 .125.312.36.437.36h7.485c.125 0 .437-.235.437-.36zm0 0"/></symbol><symbol overflow="visible" id="c"><path d="M8.344 10.969a.486.486 0 00-.14-.266C5.655 8.781 3.936 3.578 3.936-.89v-4.453c0-4.484 1.72-9.687 4.266-11.593a.486.486 0 00.14-.266c0-.11-.28-.344-.405-.344-.047 0-.235.063-.282.078-2.64 2-5.156 7.422-5.156 12.125V-.89c0 4.688 2.516 10.125 5.156 12.11a.993.993 0 00.282.094c.125 0 .406-.235.406-.344zm0 0"/></symbol><symbol overflow="visible" id="d"><path d="M6.484-4.625c0-.625-.89-.922-1.296-.922-.688 0-1.25.672-1.235.61-.125-.36-.969-.61-1.312-.61-1.235 0-2.125 1.672-2.125 1.969 0 .125.468.219.468.219l-.125.03c.094 0 .329-.155.344-.25.406-1.28 1.016-1.437 1.422-1.437.219 0 .438-.03.438.672 0 .36-.204 1.172-.641 2.844-.203.734-.406 1.11-.938 1.11-.078 0-.218.03-.218.03-.079.016.375-.374.375-.703 0-.328-.454-.546-.641-.546-.36 0-.86.437-.86.828 0 .547.797.906 1.329.906.797 0 1.36-.86 1.39-.938l-.343-.093c.156.437.78 1.031 1.5 1.031 1.234 0 2.109-1.672 2.109-1.969 0-.11-.297-.25-.344-.25-.11 0-.328.188-.36.266-.39 1.281-1 1.437-1.374 1.437-.469 0-.469-.25-.469-.656 0-.266.063-.531.203-1.062l.406-1.625c.063-.313.157-1.282.985-1.282a.604.604 0 00.187-.046c.079 0-.359.421-.359.718 0 .188.328.547.656.547.266 0 .828-.344.828-.828zm0 0"/></symbol><symbol overflow="visible" id="e"><path d="M4.156 2.719c0-.047-.078-.172-.11-.203-1.234-.922-2-3.22-2-5.141v-1c0-1.906.767-4.203 2-5.14a.457.457 0 00.11-.188c0-.063-.25-.25-.312-.25a1.01 1.01 0 00-.203.062C2.312-8.156 1-5.67 1-3.625v1C1-.578 2.313 1.906 3.64 2.906c.016.016.188.063.204.063.062 0 .312-.203.312-.25zm0 0"/></symbol><symbol overflow="visible" id="g"><path d="M8.828-3.125c0-.125-.312-.36-.437-.36H.906c-.125 0-.437.235-.437.36 0 .14.312.375.437.375h7.485c.125 0 .437-.234.437-.375zm0 0"/></symbol><symbol overflow="visible" id="i"><path d="M2.484-3.125c0-.344-.468-.766-.828-.766-.343 0-.828.422-.828.766 0 .36.485.766.828.766.36 0 .828-.407.828-.766zm0 0"/></symbol><symbol overflow="visible" id="j"><path d="M6.797-7.734c0-.547-.75-.954-1.234-.954-.407 0-1.36.344-1.72 1.532-.077.25-.109.36-.374 1.734h-.64c-.235 0-.563.14-.563.36 0 .156.296.28.53.28h.563L2.484-.186c-.218 1.156-.218 2.109-.828 2.109-.047 0-.218.031-.218.031.187-.016.484-.578.484-.766 0-.265-.406-.546-.625-.546-.313 0-.86.406-.86.859 0 .531.72.953 1.22.953.655 0 1.312-.844 1.687-1.61.172-.343.5-1.89.515-1.968l.688-3.656h.875c.234 0 .547-.125.547-.375 0-.125-.313-.266-.516-.266h-.781c.11-.547.094-.531.234-1.219.047-.25.157-1.015.219-1.156l.063-.094c.109-.218.125-.265.375-.265.046 0 .203-.047.218-.031-.156.03-.484.578-.484.75 0 .28.422.546.64.546.313 0 .86-.39.86-.843zm0 0"/></symbol><symbol overflow="visible" id="k"><path d="M3.64-2.625v-1c0-2.047-1.328-4.531-2.64-5.516a.774.774 0 00-.203-.062c-.063 0-.313.187-.313.25 0 .031.079.172.094.187 1.25.938 2.016 3.235 2.016 5.141v1c0 1.922-.766 4.219-2.016 5.14-.015.032-.094.157-.094.204 0 .047.25.25.313.25A.774.774 0 001 2.906c1.313-1 2.64-3.484 2.64-5.531zm0 0"/></symbol><symbol overflow="visible" id="l"><path d="M5.516-8.86c0-.124-.297-.374-.438-.374-.11 0-.39.203-.422.296L.438 2.626c.093-.156.03-.031.03 0 0 .125.313.36.438.36.11 0 .39-.188.422-.282L5.531-8.859c-.078.156-.015.03-.015 0zm0 0"/></symbol><symbol overflow="visible" id="n"><path d="M6.047-4.953c0-.219-.36-.469-.531-.469-.125 0-.454.11-.641.406-.016.047-.11.407-.156.625l-.235.954-.546 2.156c-.047.187-.36.89-1.141.89-.61 0-.547-.39-.547-.843 0-.547.203-1.282.61-2.344.187-.485.234-.625.234-.86 0-.53-.578-1.109-1.172-1.109C.782-5.547.14-3.687.14-3.578c0 .125.484.219.484.219l-.14.03c.124 0 .328-.155.39-.343.313-1.125.61-1.344 1.016-1.344.093 0 .093-.14.093.25 0 .297-.125.61-.203.829-.484 1.265-.687 1.953-.687 2.515 0 1.063.953 1.547 1.656 1.547.469 0 1-.234 1.344-.563L3.75-.53c-.156.61-.234 1.11-.719 1.734-.312.406-.61.719-1.172.719-.156 0-.515.094-.656-.234-.062 0 .234-.032.406-.188.11-.094.297-.36.297-.578 0-.375-.515-.547-.64-.547-.282 0-.875.313-.875.906 0 .594.734 1.172 1.468 1.172 1.235 0 2.657-1.219 3-2.578L6-4.688c.047-.171.047-.187.047-.265zm0 0"/></symbol><symbol overflow="visible" id="o"><path d="M8.828-3.125c0-.125-.312-.36-.437-.36H5.078v-3.374c0-.141-.297-.375-.422-.375-.14 0-.453.234-.453.375v3.375H.906c-.125 0-.437.234-.437.359 0 .14.312.375.437.375h3.297V.625c0 .125.313.36.453.36.125 0 .422-.235.422-.36V-2.75h3.313c.125 0 .437-.234.437-.375zm0 0"/></symbol><symbol overflow="visible" id="p"><path d="M5.203-.125v-.516h-.578c-1.078 0-.922 0-.922-.437v-6.703c0-.282-.187-.438-.578-.438-.766.797-1.672.766-2.266.766v.625c.438 0 1.282-.031 1.563-.172v5.922c0 .437.172.437-.906.437H.937v.672C1.547-.03 2.595-.03 3.079-.03c.469 0 1.516 0 2.125.062zm0 0"/></symbol><symbol overflow="visible" id="q"><path d="M6.281-.89v-4.454c0-4.703-2.5-10.125-5.156-12.125a1.32 1.32 0 00-.266-.078c-.125 0-.421.235-.421.344 0 .078.093.234.14.265 2.547 1.907 4.266 7.11 4.266 11.594V-.89c0 4.47-1.719 9.672-4.266 11.594a.486.486 0 00-.14.266c0 .11.296.344.421.344a.77.77 0 00.266-.094C3.781 9.234 6.281 3.797 6.281-.891zm0 0"/></symbol><symbol overflow="visible" id="r"><path d="M2.625-.14c0-.797-.5-1.391-.969-1.391-.39 0-.828.437-.828.765 0 .329.438.766.828.766.157 0 .438-.078.563-.188l.047-.046s-.313-.078-.313.093c0 .875-.344 1.5-.75 1.891-.125.14-.187.266-.187.297 0 .078.265.265.328.265.125 0 1.281-1.062 1.281-2.453zm0 0"/></symbol><symbol overflow="visible" id="f"><path d="M4.64-1.531V-2h-.937v-3.563c0-.187-.203-.406-.39-.406-.094 0-.282.063-.36.172L.125-1.844v.469h2.453v.531c0 .281.203.219-.469.219h-.437v.64L3.14-.03l1.468.047v-.641h-.437c-.672 0-.469.063-.469-.219v-.531h.938zM2.845-2H.969l2.015-2.781-.343-.125V-2zm0 0"/></symbol><symbol overflow="visible" id="h"><path d="M4.234-1.844H3.75c-.047.344-.063.735-.172.813-.062.047-.562 0-.687 0H1.812c.563-.5.86-.735 1.36-1.125.625-.5 1.265-1.14 1.265-1.938 0-1-1.093-1.781-2.171-1.781-1.032 0-1.954.89-1.954 1.656 0 .422.579.625.657.625.203 0 .656-.297.656-.61 0-.14-.266-.593-.422-.593.188-.437.547-.469.938-.469.843 0 1.062.5 1.062 1.172 0 .735-.453 1.203-.719 1.5l-2.03 2C.374-.516.311-.39.311 0h3.844l.313-1.844zm0 0"/></symbol><symbol overflow="visible" id="m"><path d="M4.516-1.61c0-.656-.75-1.468-1.672-1.656v.313c.89-.313 1.406-1.094 1.406-1.61 0-.656-.969-1.312-1.89-1.312-.938 0-1.86.61-1.86 1.281 0 .282.39.594.64.594.266 0 .641-.344.641-.578 0-.25-.375-.578-.297-.578.094-.11.532-.157.844-.157.375 0 .688.016.688.75 0 .344-.047.625-.266.891-.281.313-.36.281-.781.313-.203.015-.235.015-.266.015l.14.281s-.437-.109-.437-.015c0 .125.282.281.422.281h.453c.656 0 .922.297.922 1.188 0 1.046-.39 1.187-.89 1.187-.329 0-.922-.031-1.094-.266.078-.015.375-.453.375-.625 0-.265-.407-.625-.672-.625-.235 0-.672.297-.672.641C.25-.5 1.328.172 2.344.172 3.5.172 4.516-.766 4.516-1.61zm0 0"/></symbol></defs><use xlink:href="#a" x="-.41" y="18.067"/><use xlink:href="#a" x="2.914" y="18.067"/><use xlink:href="#a" x="6.237" y="18.067"/><use xlink:href="#b" x="12.872" y="18.067"/><use xlink:href="#c" x="25.497" y="18.067"/><use xlink:href="#d" x="34.303" y="10.745"/><use xlink:href="#b" x="44.453" y="10.745"/><use xlink:href="#e" x="57.078" y="10.745"/><use xlink:href="#d" x="61.728" y="10.745"/><use xlink:href="#f" x="68.574" y="13.698"/><use xlink:href="#g" x="76.49" y="10.745"/><use xlink:href="#d" x="88.445" y="10.745"/><use xlink:href="#h" x="95.287" y="13.698"/><use xlink:href="#i" x="103.204" y="10.745"/><use xlink:href="#j" x="109.182" y="10.745"/><use xlink:href="#f" x="115.042" y="13.698"/><use xlink:href="#h" x="119.804" y="13.698"/><use xlink:href="#k" x="125.064" y="10.745"/><use xlink:href="#l" x="129.715" y="10.745"/><use xlink:href="#e" x="135.692" y="10.745"/><use xlink:href="#d" x="140.343" y="10.745"/><use xlink:href="#m" x="147.181" y="13.698"/><use xlink:href="#g" x="155.098" y="10.745"/><use xlink:href="#d" x="167.053" y="10.745"/><use xlink:href="#h" x="173.894" y="13.698"/><use xlink:href="#i" x="181.811" y="10.745"/><use xlink:href="#j" x="187.789" y="10.745"/><use xlink:href="#m" x="193.65" y="13.698"/><use xlink:href="#h" x="198.412" y="13.698"/><use xlink:href="#k" x="203.671" y="10.745"/><use xlink:href="#n" x="64.372" y="25.19"/><use xlink:href="#b" x="73.876" y="25.19"/><use xlink:href="#j" x="86.501" y="25.19"/><use xlink:href="#f" x="92.367" y="28.144"/><use xlink:href="#h" x="97.129" y="28.144"/><use xlink:href="#o" x="105.045" y="25.19"/><use xlink:href="#e" x="117" y="25.19"/><use xlink:href="#p" x="121.651" y="25.19"/><use xlink:href="#g" x="130.282" y="25.19"/><use xlink:href="#j" x="142.238" y="25.19"/><use xlink:href="#m" x="148.104" y="28.144"/><use xlink:href="#h" x="152.866" y="28.144"/><use xlink:href="#k" x="158.126" y="25.19"/><use xlink:href="#i" x="165.431" y="25.19"/><use xlink:href="#d" x="171.408" y="25.19"/><use xlink:href="#q" x="208.322" y="18.067"/><use xlink:href="#r" x="219.106" y="18.067"/><use xlink:href="#j" x="224.426" y="18.067"/><use xlink:href="#m" x="230.288" y="21.021"/><use xlink:href="#h" x="235.05" y="21.021"/><use xlink:href="#b" x="243.631" y="18.067"/><use xlink:href="#n" x="257.449" y="9.973"/><use xlink:href="#m" x="263.307" y="12.926"/><path d="M257.45 15.078h11.116" fill="none" stroke-width=".478" stroke="#000" stroke-miterlimit="10"/><g><use xlink:href="#n" x="257.449" y="26.27"/></g><g><use xlink:href="#h" x="263.307" y="29.223"/></g><g><use xlink:href="#r" x="269.762" y="18.067"/></g><g><use xlink:href="#j" x="275.07" y="18.067"/></g><g><use xlink:href="#f" x="280.936" y="21.021"/><use xlink:href="#h" x="285.698" y="21.021"/></g><g><use xlink:href="#b" x="294.279" y="18.067"/></g><g><use xlink:href="#n" x="308.097" y="9.973"/></g><g><use xlink:href="#f" x="313.955" y="12.926"/></g><path d="M308.098 15.078h11.117" fill="none" stroke-width=".478" stroke="#000" stroke-miterlimit="10"/><g><use xlink:href="#n" x="308.097" y="26.27"/></g><g><use xlink:href="#h" x="313.955" y="29.223"/></g></svg>