<svg xmlns="http://www.w3.org/2000/svg" xmlns:xlink="http://www.w3.org/1999/xlink" width="457px" height="41px" viewBox="0 0 343 31"><svg overflow="visible" x="-1.112" y="25.805"><path d="M8.578 3.922c-2.265-.766-2.906-2.5-2.906-4.485 0-.859.156-1.718.156-2.484v-1.875c0-2.344-.89-4.312-2.969-5.25v.094c2.079-.922 2.97-2.86 2.97-5.219v-1.953c0-.672-.157-1.984-.157-2.922 0-1.922.781-3.312 3.047-4.047v-.765c-2.735.39-4.594 2.422-4.594 6.64v4.157c0 1.421-.656 3.374-2.578 3.703v.75c1.922.312 2.578 2.28 2.578 3.703v4.015c0 4.25 1.86 6.36 4.594 6.75V3.97zm0 0"/></svg><svg overflow="visible" x="9.72" y="11.476"><path d="M3.797-3.578l-.235-.656c-.14-.391-.421-.985-1.03-1.313L.75-5.109l.094.5c.25-.094.422-.125.578-.125.656 0 .797.359 1 .937l.39 1.078-.718 1.125c-.39.594-.578.672-.719.672-.297 0-.25-.234-.563-.234-.296 0-.625.375-.625.578 0 .25.36.687.797.687.672 0 1.125-.546 1.5-1.14l.594-.922.36 1.016C3.594-.516 4 .109 4.484.109c.688 0 1.344-1.187 1.579-1.484l-.438-.313c-.36.735-.469.766-.672.766-.531 0-.656-1.484-1-2.203l.594-.938c.172-.265.203-.421.562-.421.204 0 .25.109.516.109.313 0 .625-.406.625-.64 0-.25-.36-.516-.734-.516-.61 0-1.141.562-1.454 1.031l-.375.594zm0 0"/></svg><svg overflow="visible" x="19.607" y="11.476"><path d="M7.766-1.563v-.921H.406v1.046h7.36zm0-2.39v-.922H.406v1.047h7.36zm0 0"/></svg><svg overflow="visible" x="31.127" y="11.476" fill="red"><path d="M4.375-4.016c0 2.36-.375 3.61-1.39 3.61-1.032 0-1.391-1.235-1.391-3.656 0-2.422.375-3.704 1.375-3.704 1.047 0 1.406 1.266 1.406 3.75zm1.469-.062c0-2.453-1.235-4.266-2.813-4.266C1.11-8.344.125-6.266.125-4.14c0 1.954.813 4.313 2.86 4.313 1.953 0 2.859-2.188 2.859-4.25zm0 0"/></svg><svg overflow="visible" x="39.761" y="11.476"><path d="M2.578-3.156c0-.375-.469-.844-.86-.844-.39 0-.89.484-.89.844s.5.844.89.844c.391 0 .86-.454.86-.844zm0 0"/></svg><svg overflow="visible" x="45.834" y="11.476"><path d="M3.734 1.703C2.063.297 1.75-.953 1.75-3.172c0-2.312.328-3.328 2.063-4.812l-.235-.422C1.5-7.172.406-5.36.406-3.141.406-1.109 1.484 1 3.531 2.172l.297-.406zm0 0"/></svg><svg overflow="visible" x="49.815" y="11.476"><path d="M4.86-.125v-.313c-1.048 0-1.126-.093-1.126-.609v-7.219l-.296-.093-2.282 1.156v.453l.5-.188c.203-.093.407-.156.532-.156.25 0 .187.047.187.453v5.375c0 .657-.078.782-1.125.829V0h3.61zm0 0"/></svg><svg overflow="visible" x="58.447" y="11.476"><path d="M7.578-2.766v-.921H.594v1.062h6.984zm0 0"/></svg><svg overflow="visible" x="69.29" y="11.476"><path d="M3.375-5.5h-.64l.374-1.547h-.453C2.11-5.875 1.546-5.563.484-5.359l-.093.578h.906L.375-1.094c-.047.14-.063.297-.063.453 0 .313.266.75.625.75.72 0 1.422-.953 1.797-1.437l-.39-.328c-.531.718-.578.937-.578.937l-.11-.219c-.156 0-.031.047-.031-.015a.58.58 0 01.031-.14l.89-3.688h.829l.203-.719zm0 0"/></svg><svg overflow="visible" x="73.032" y="11.476"><path d="M.234-7.922c1.72 1.36 1.985 2.64 1.985 4.875C2.219-.734 1.922.297.156 1.75l.235.438C2.469.921 3.562-.876 3.562-3.079c0-2.031-1.14-4.125-3.124-5.328L.124-8zm0 0"/></svg><svg overflow="visible" x="77.023" y="6.694"><path d="M.672-4.61c.375-.671.656-.921 1.219-.921.578 0 .765.172.765.781 0 .547-.219.86-.672 1.11-.171.109-.265.171-.796.343v.344c.703 0 .906.015 1.093.078.625.188.75.484.75 1.172 0 .766-.312 1.234-.984 1.234-.25 0-.313 0-.64-.234C1.156-.891.89-.984.733-.984c-.203 0-.562.28-.562.468 0 .313.547.641 1.203.641.797 0 1.766-.297 2.203-.875.266-.328.469-.875.469-1.344 0-.469-.203-.984-.453-1.265a2.062 2.062 0 00-.578-.375c.437-.25.718-.797.718-1.235 0-.734-.734-1.36-1.578-1.36-.922 0-1.687.735-1.969 1.673l.454.11zm0 0"/></svg><svg overflow="visible" x="87.65" y="11.476" fill="#00f"><path d="M7.578-2.766v-.921H.594v1.062h6.984zm0 0"/></svg><g fill="#00f"><svg overflow="visible" x="101.482" y="11.476"><path d="M3.125-3.281c.813.547 1.125.922 1.125 1.672 0 .765-.375 1.171-1.156 1.171-.906 0-1.36-.484-1.36-1.578 0-.78.204-1.171.797-1.671zM4.078-6.5c0 .734-.266 1.14-.953 1.547-.953-.547-1.344-1-1.344-1.734 0-.75.36-1.063 1.157-1.063.812 0 1.14.422 1.14 1.25zm1.39 4.516c0-.954-.421-1.704-1.734-2.563C4.75-5.109 5.22-5.609 5.22-6.5c0-.938-.969-1.844-2.157-1.844-1.328 0-2.484.844-2.484 2 0 .782.297 1.328 1.39 2.235C.829-3.297.5-2.734.5-1.906.5-.781 1.61.172 2.969.172c1.437 0 2.5-.922 2.5-2.156zm0 0"/></svg><svg overflow="visible" x="107.46" y="11.476"><path d="M5.344-8.36l-.25-.203c-.282.36-.266.391-.547.391H1.969L.609-5.219l.282.11s-.297-.063-.297-.047c0 .078.203.234.312.234 1.156 0 1.86.344 2.422.797.547.438.766.938.766 1.703 0 1.016-.61 1.89-1.453 1.89-.235 0-.407-.077-.735-.359-.39-.296-.718-.406-1-.406-.328 0-.703.297-.703.594 0 .453.781.875 1.688.875.812 0 1.578-.219 2.14-.625.813-.594 1.219-1.438 1.219-2.578 0-.64-.156-1.188-.469-1.625-.687-.938-1.39-1.235-2.89-1.532l.375-.78h2.218c.188 0 .438-.204.47-.282l.468-1.063zm0 0"/></svg></g><svg overflow="visible" x="116.097" y="11.476"><path d="M2.578-3.156c0-.375-.469-.844-.86-.844-.39 0-.89.484-.89.844s.5.844.89.844c.391 0 .86-.454.86-.844zm0 0"/></svg><svg overflow="visible" x="122.17" y="11.476"><path d="M.844-6.125c.484-.89.922-1.234 1.672-1.234.78 0 1.125.265 1.125 1.078 0 .734-.344 1.172-.922 1.515-.25.141-.438.235-1.063.438v.39c.86 0 1.125.032 1.39.11.829.25 1.079.703 1.079 1.61 0 1.015-.5 1.687-1.39 1.687-.329 0-.47-.016-.922-.328-.329-.235-.625-.344-.829-.344-.28 0-.656.312-.656.562 0 .422.625.813 1.5.813 1.063 0 2.313-.39 2.875-1.156.36-.454.61-1.125.61-1.766 0-.625-.25-1.266-.579-1.64-.25-.266-.578-.438-.812-.548.625-.375.984-1.062.984-1.64 0-.969-.906-1.766-2.031-1.766-1.234 0-2.156.938-2.531 2.156l.453.11zm0 0"/></svg><svg overflow="visible" x="130.802" y="11.476"><path d="M2.578-3.156c0-.375-.469-.844-.86-.844-.39 0-.89.484-.89.844s.5.844.89.844c.391 0 .86-.454.86-.844zm0 0"/></svg><svg overflow="visible" x="136.875" y="11.476"><path d="M3.734 1.703C2.063.297 1.75-.953 1.75-3.172c0-2.312.328-3.328 2.063-4.812l-.235-.422C1.5-7.172.406-5.36.406-3.141.406-1.109 1.484 1 3.531 2.172l.297-.406zm0 0"/></svg><svg overflow="visible" x="140.856" y="11.476"><path d="M4.86-.125v-.313c-1.048 0-1.126-.093-1.126-.609v-7.219l-.296-.093-2.282 1.156v.453l.5-.188c.203-.093.407-.156.532-.156.25 0 .187.047.187.453v5.375c0 .657-.078.782-1.125.829V0h3.61zm0 0"/></svg><svg overflow="visible" x="149.488" y="11.476"><path d="M7.578-2.766v-.921H.594v1.062h6.984zm0 0"/></svg><svg overflow="visible" x="160.343" y="11.476"><path d="M3.375-5.5h-.64l.374-1.547h-.453C2.11-5.875 1.546-5.563.484-5.359l-.093.578h.906L.375-1.094c-.047.14-.063.297-.063.453 0 .313.266.75.625.75.72 0 1.422-.953 1.797-1.437l-.39-.328c-.531.718-.578.937-.578.937l-.11-.219c-.156 0-.031.047-.031-.015a.58.58 0 01.031-.14l.89-3.688h.829l.203-.719zm0 0"/></svg><svg overflow="visible" x="164.085" y="11.476"><path d="M.234-7.922c1.72 1.36 1.985 2.64 1.985 4.875C2.219-.734 1.922.297.156 1.75l.235.438C2.469.921 3.562-.876 3.562-3.079c0-2.031-1.14-4.125-3.124-5.328L.124-8zm0 0"/></svg><svg overflow="visible" x="168.069" y="6.694"><path d="M4.25-1.5l-.219-.094c-.343.578-.39.64-.765.64h-1.75l1.25-1.343c.796-.844 1.203-1.61 1.203-2.328 0-.875-.828-1.703-1.828-1.703-1.11 0-1.875.86-2.079 2l.516.125C1-5.25 1.125-5.406 1.781-5.406c.75 0 1.047.328 1.047 1.14 0 .766-.265 1.344-1.11 2.235L.079-.281V0h3.813l.562-1.406zm0 0"/></svg><svg overflow="visible" x="175.707" y="11.476"><path d="M2.578-3.156c0-.375-.469-.844-.86-.844-.39 0-.89.484-.89.844s.5.844.89.844c.391 0 .86-.454.86-.844zm0 0"/></svg><svg overflow="visible" x="181.78" y="11.476"><path d="M3.375-5.5h-.64l.374-1.547h-.453C2.11-5.875 1.546-5.563.484-5.359l-.093.578h.906L.375-1.094c-.047.14-.063.297-.063.453 0 .313.266.75.625.75.72 0 1.422-.953 1.797-1.437l-.39-.328c-.531.718-.578.937-.578.937l-.11-.219c-.156 0-.031.047-.031-.015a.58.58 0 01.031-.14l.89-3.688h.829l.203-.719zm0 0"/></svg><svg overflow="visible" x="191.171" y="11.476" fill="#00f"><path d="M7.578-2.766v-.921H.594v1.062h6.984zm0 0"/></svg><g fill="#00f"><svg overflow="visible" x="205.003" y="11.476"><path d="M4.86-.125v-.313c-1.048 0-1.126-.093-1.126-.609v-7.219l-.296-.093-2.282 1.156v.453l.5-.188c.203-.093.407-.156.532-.156.25 0 .187.047.187.453v5.375c0 .657-.078.782-1.125.829V0h3.61zm0 0"/></svg><svg overflow="visible" x="210.981" y="11.476"><path d="M5.672-1.906l-.25-.11c-.438.75-.563.844-1.078.844H1.875l1.766-1.875c1.062-1.125 1.578-2.11 1.578-3.062 0-1.188-1.016-2.235-2.375-2.235-1.469 0-2.406 1.11-2.672 2.61l.531.109C1.25-6.938 1.5-7.203 2.36-7.203c1.016 0 1.5.469 1.5 1.562 0 1.016-.375 1.829-1.5 3.016L.172-.328V0h4.953l.719-1.828zm0 0"/></svg></g><svg overflow="visible" x="219.618" y="11.476"><path d="M2.578-3.156c0-.375-.469-.844-.86-.844-.39 0-.89.484-.89.844s.5.844.89.844c.391 0 .86-.454.86-.844zm0 0"/></svg><svg overflow="visible" x="225.691" y="11.476"><path d="M.844-6.125c.484-.89.922-1.234 1.672-1.234.78 0 1.125.265 1.125 1.078 0 .734-.344 1.172-.922 1.515-.25.141-.438.235-1.063.438v.39c.86 0 1.125.032 1.39.11.829.25 1.079.703 1.079 1.61 0 1.015-.5 1.687-1.39 1.687-.329 0-.47-.016-.922-.328-.329-.235-.625-.344-.829-.344-.28 0-.656.312-.656.562 0 .422.625.813 1.5.813 1.063 0 2.313-.39 2.875-1.156.36-.454.61-1.125.61-1.766 0-.625-.25-1.266-.579-1.64-.25-.266-.578-.438-.812-.548.625-.375.984-1.062.984-1.64 0-.969-.906-1.766-2.031-1.766-1.234 0-2.156.938-2.531 2.156l.453.11zm0 0"/></svg><svg overflow="visible" x="234.323" y="11.476"><path d="M2.578-3.156c0-.375-.469-.844-.86-.844-.39 0-.89.484-.89.844s.5.844.89.844c.391 0 .86-.454.86-.844zm0 0"/></svg><svg overflow="visible" x="240.396" y="11.476"><path d="M3.734 1.703C2.063.297 1.75-.953 1.75-3.172c0-2.312.328-3.328 2.063-4.812l-.235-.422C1.5-7.172.406-5.36.406-3.141.406-1.109 1.484 1 3.531 2.172l.297-.406zm0 0"/></svg><svg overflow="visible" x="244.377" y="11.476"><path d="M4.86-.125v-.313c-1.048 0-1.126-.093-1.126-.609v-7.219l-.296-.093-2.282 1.156v.453l.5-.188c.203-.093.407-.156.532-.156.25 0 .187.047.187.453v5.375c0 .657-.078.782-1.125.829V0h3.61zm0 0"/></svg><svg overflow="visible" x="253.009" y="11.476"><path d="M7.578-2.766v-.921H.594v1.062h6.984zm0 0"/></svg><svg overflow="visible" x="263.864" y="11.476"><path d="M3.375-5.5h-.64l.374-1.547h-.453C2.11-5.875 1.546-5.563.484-5.359l-.093.578h.906L.375-1.094c-.047.14-.063.297-.063.453 0 .313.266.75.625.75.72 0 1.422-.953 1.797-1.437l-.39-.328c-.531.718-.578.937-.578.937l-.11-.219c-.156 0-.031.047-.031-.015a.58.58 0 01.031-.14l.89-3.688h.829l.203-.719zm0 0"/></svg><svg overflow="visible" x="267.606" y="11.476"><path d="M.234-7.922c1.72 1.36 1.985 2.64 1.985 4.875C2.219-.734 1.922.297.156 1.75l.235.438C2.469.921 3.562-.876 3.562-3.079c0-2.031-1.14-4.125-3.124-5.328L.124-8zm0 0"/></svg><svg overflow="visible" x="274.241" y="11.476"><path d="M2.578-3.156c0-.375-.469-.844-.86-.844-.39 0-.89.484-.89.844s.5.844.89.844c.391 0 .86-.454.86-.844zm0 0"/></svg><svg overflow="visible" x="280.315" y="11.476"><path d="M3.375-5.5h-.64l.374-1.547h-.453C2.11-5.875 1.546-5.563.484-5.359l-.093.578h.906L.375-1.094c-.047.14-.063.297-.063.453 0 .313.266.75.625.75.72 0 1.422-.953 1.797-1.437l-.39-.328c-.531.718-.578.937-.578.937l-.11-.219c-.156 0-.031.047-.031-.015a.58.58 0 01.031-.14l.89-3.688h.829l.203-.719zm0 0"/></svg><svg overflow="visible" x="284.065" y="6.694"><path d="M4.25-1.5l-.219-.094c-.343.578-.39.64-.765.64h-1.75l1.25-1.343c.796-.844 1.203-1.61 1.203-2.328 0-.875-.828-1.703-1.828-1.703-1.11 0-1.875.86-2.079 2l.516.125C1-5.25 1.125-5.406 1.781-5.406c.75 0 1.047.328 1.047 1.14 0 .766-.265 1.344-1.11 2.235L.079-.281V0h3.813l.562-1.406zm0 0"/></svg><svg overflow="visible" x="294.692" y="11.476" fill="#00f"><path d="M7.75-2.766v-.921H4.64v-3.11H3.532v3.11H.406v1.062h3.125v3.11h1.11v-3.11H7.75zm0 0"/></svg><g fill="#00f"><svg overflow="visible" x="308.524" y="11.476"><path d="M4.86-.125v-.313c-1.048 0-1.126-.093-1.126-.609v-7.219l-.296-.093-2.282 1.156v.453l.5-.188c.203-.093.407-.156.532-.156.25 0 .187.047.187.453v5.375c0 .657-.078.782-1.125.829V0h3.61zm0 0"/></svg><svg overflow="visible" x="314.502" y="11.476"><path d="M5.344-8.36l-.25-.203c-.282.36-.266.391-.547.391H1.969L.609-5.219l.282.11s-.297-.063-.297-.047c0 .078.203.234.312.234 1.156 0 1.86.344 2.422.797.547.438.766.938.766 1.703 0 1.016-.61 1.89-1.453 1.89-.235 0-.407-.077-.735-.359-.39-.296-.718-.406-1-.406-.328 0-.703.297-.703.594 0 .453.781.875 1.688.875.812 0 1.578-.219 2.14-.625.813-.594 1.219-1.438 1.219-2.578 0-.64-.156-1.188-.469-1.625-.687-.938-1.39-1.235-2.89-1.532l.375-.78h2.218c.188 0 .438-.204.47-.282l.468-1.063zm0 0"/></svg><svg overflow="visible" x="320.479" y="11.476"><path d="M4.344-2.375c0 1.219-.266 1.938-1.125 1.938-1.125 0-1.547-1.063-1.547-2.876 0-1.093.547-1.25 1.234-1.25 1.11 0 1.438.657 1.438 2.188zm.984-6.063c-1.64.172-2.703.5-3.734 1.579-.86.875-1.36 2.109-1.36 3.39 0 .844.282 1.781.61 2.39.422.766 1.297 1.25 2.234 1.25.797 0 1.578-.359 2.016-.905.39-.485.656-1.25.656-2.016 0-1.547-1.016-2.625-2.422-2.625-.515 0-1.047.11-1.281.313.25-1.454 1.437-2.61 3.469-2.954l-.047-.453zm0 0"/></svg></g><svg overflow="visible" x="329.117" y="11.476"><path d="M2.578-3.156c0-.375-.469-.844-.86-.844-.39 0-.89.484-.89.844s.5.844.89.844c.391 0 .86-.454.86-.844zm0 0"/></svg><svg overflow="visible" x="335.19" y="11.476"><path d="M3.375-5.5h-.64l.374-1.547h-.453C2.11-5.875 1.546-5.563.484-5.359l-.093.578h.906L.375-1.094c-.047.14-.063.297-.063.453 0 .313.266.75.625.75.72 0 1.422-.953 1.797-1.437l-.39-.328c-.531.718-.578.937-.578.937l-.11-.219c-.156 0-.031.047-.031-.015a.58.58 0 01.031-.14l.89-3.688h.829l.203-.719zm0 0"/></svg><svg overflow="visible" x="338.935" y="6.694"><path d="M.672-4.61c.375-.671.656-.921 1.219-.921.578 0 .765.172.765.781 0 .547-.219.86-.672 1.11-.171.109-.265.171-.796.343v.344c.703 0 .906.015 1.093.078.625.188.75.484.75 1.172 0 .766-.312 1.234-.984 1.234-.25 0-.313 0-.64-.234C1.156-.891.89-.984.733-.984c-.203 0-.562.28-.562.468 0 .313.547.641 1.203.641.797 0 1.766-.297 2.203-.875.266-.328.469-.875.469-1.344 0-.469-.203-.984-.453-1.265a2.062 2.062 0 00-.578-.375c.437-.25.718-.797.718-1.235 0-.734-.734-1.36-1.578-1.36-.922 0-1.687.735-1.969 1.673l.454.11zm0 0"/></svg><svg overflow="visible" x="13.031" y="26.654"><path d="M3.375-3.797c-.094-.89-.234-1.297-.547-1.734l-2.047.328.063.453c.25-.031.453-.063.578-.063.672 0 .61.579.672 1.125L2.547.047C2.28.437 1.719 1.14 1.516 1.14c-.188 0-.172-.36-.672-.36-.156 0-.656.266-.656.625 0 .282.39.782.843.782.813 0 1.688-1.204 2.563-2.313.5-.625 2.484-3.594 2.484-4.531 0-.453-.453-.86-.828-.86-.344 0-.734.344-.734.61 0 .453.625.562.625.812 0 .219-.047.36-.282.813a18.142 18.142 0 01-1.421 2.187l.28.11zm0 0"/></svg><svg overflow="visible" x="22.272" y="26.654"><path d="M7.766-1.563v-.921H.406v1.046h7.36zm0-2.39v-.922H.406v1.047h7.36zm0 0"/></svg><svg overflow="visible" x="33.793" y="26.654" fill="red"><path d="M4.375-4.016c0 2.36-.375 3.61-1.39 3.61-1.032 0-1.391-1.235-1.391-3.656 0-2.422.375-3.704 1.375-3.704 1.047 0 1.406 1.266 1.406 3.75zm1.469-.062c0-2.453-1.235-4.266-2.813-4.266C1.11-8.344.125-6.266.125-4.14c0 1.954.813 4.313 2.86 4.313 1.953 0 2.859-2.188 2.859-4.25zm0 0"/></svg><svg overflow="visible" x="42.427" y="26.654"><path d="M2.578-3.156c0-.375-.469-.844-.86-.844-.39 0-.89.484-.89.844s.5.844.89.844c.391 0 .86-.454.86-.844zm0 0"/></svg><svg overflow="visible" x="48.5" y="26.654"><path d="M3.734 1.703C2.063.297 1.75-.953 1.75-3.172c0-2.312.328-3.328 2.063-4.812l-.235-.422C1.5-7.172.406-5.36.406-3.141.406-1.109 1.484 1 3.531 2.172l.297-.406zm0 0"/></svg><svg overflow="visible" x="52.481" y="26.654"><path d="M4.86-.125v-.313c-1.048 0-1.126-.093-1.126-.609v-7.219l-.296-.093-2.282 1.156v.453l.5-.188c.203-.093.407-.156.532-.156.25 0 .187.047.187.453v5.375c0 .657-.078.782-1.125.829V0h3.61zm0 0"/></svg><svg overflow="visible" x="61.113" y="26.654"><path d="M7.578-2.766v-.921H.594v1.062h6.984zm0 0"/></svg><svg overflow="visible" x="71.956" y="26.654"><path d="M3.375-5.5h-.64l.374-1.547h-.453C2.11-5.875 1.546-5.563.484-5.359l-.093.578h.906L.375-1.094c-.047.14-.063.297-.063.453 0 .313.266.75.625.75.72 0 1.422-.953 1.797-1.437l-.39-.328c-.531.718-.578.937-.578.937l-.11-.219c-.156 0-.031.047-.031-.015a.58.58 0 01.031-.14l.89-3.688h.829l.203-.719zm0 0"/></svg><svg overflow="visible" x="75.698" y="26.654"><path d="M.234-7.922c1.72 1.36 1.985 2.64 1.985 4.875C2.219-.734 1.922.297.156 1.75l.235.438C2.469.921 3.562-.876 3.562-3.079c0-2.031-1.14-4.125-3.124-5.328L.124-8zm0 0"/></svg><svg overflow="visible" x="79.688" y="21.871"><path d="M.672-4.61c.375-.671.656-.921 1.219-.921.578 0 .765.172.765.781 0 .547-.219.86-.672 1.11-.171.109-.265.171-.796.343v.344c.703 0 .906.015 1.093.078.625.188.75.484.75 1.172 0 .766-.312 1.234-.984 1.234-.25 0-.313 0-.64-.234C1.156-.891.89-.984.733-.984c-.203 0-.562.28-.562.468 0 .313.547.641 1.203.641.797 0 1.766-.297 2.203-.875.266-.328.469-.875.469-1.344 0-.469-.203-.984-.453-1.265a2.062 2.062 0 00-.578-.375c.437-.25.718-.797.718-1.235 0-.734-.734-1.36-1.578-1.36-.922 0-1.687.735-1.969 1.673l.454.11zm0 0"/></svg><svg overflow="visible" x="90.316" y="26.654" fill="#00f"><path d="M7.578-2.766v-.921H.594v1.062h6.984zm0 0"/></svg><g fill="#00f"><svg overflow="visible" x="104.148" y="26.654"><path d="M3.484-3.031H.891l2.703-3.86L3.328-7v3.969zm2.329.906v-.906H4.577v-5.313h-.781L-.031-2.922V-2h3.36v2h1.25v-2h1.234zm0 0"/></svg><svg overflow="visible" x="110.126" y="26.654"><path d="M4.375-4.016c0 2.36-.375 3.61-1.39 3.61-1.032 0-1.391-1.235-1.391-3.656 0-2.422.375-3.704 1.375-3.704 1.047 0 1.406 1.266 1.406 3.75zm1.469-.062c0-2.453-1.235-4.266-2.813-4.266C1.11-8.344.125-6.266.125-4.14c0 1.954.813 4.313 2.86 4.313 1.953 0 2.859-2.188 2.859-4.25zm0 0"/></svg></g><svg overflow="visible" x="118.763" y="26.654"><path d="M2.578-3.156c0-.375-.469-.844-.86-.844-.39 0-.89.484-.89.844s.5.844.89.844c.391 0 .86-.454.86-.844zm0 0"/></svg><svg overflow="visible" x="124.836" y="26.654"><path d="M.844-6.125c.484-.89.922-1.234 1.672-1.234.78 0 1.125.265 1.125 1.078 0 .734-.344 1.172-.922 1.515-.25.141-.438.235-1.063.438v.39c.86 0 1.125.032 1.39.11.829.25 1.079.703 1.079 1.61 0 1.015-.5 1.687-1.39 1.687-.329 0-.47-.016-.922-.328-.329-.235-.625-.344-.829-.344-.28 0-.656.312-.656.562 0 .422.625.813 1.5.813 1.063 0 2.313-.39 2.875-1.156.36-.454.61-1.125.61-1.766 0-.625-.25-1.266-.579-1.64-.25-.266-.578-.438-.812-.548.625-.375.984-1.062.984-1.64 0-.969-.906-1.766-2.031-1.766-1.234 0-2.156.938-2.531 2.156l.453.11zm0 0"/></svg><svg overflow="visible" x="133.468" y="26.654"><path d="M2.578-3.156c0-.375-.469-.844-.86-.844-.39 0-.89.484-.89.844s.5.844.89.844c.391 0 .86-.454.86-.844zm0 0"/></svg><svg overflow="visible" x="139.541" y="26.654"><path d="M3.734 1.703C2.063.297 1.75-.953 1.75-3.172c0-2.312.328-3.328 2.063-4.812l-.235-.422C1.5-7.172.406-5.36.406-3.141.406-1.109 1.484 1 3.531 2.172l.297-.406zm0 0"/></svg><svg overflow="visible" x="143.522" y="26.654"><path d="M4.86-.125v-.313c-1.048 0-1.126-.093-1.126-.609v-7.219l-.296-.093-2.282 1.156v.453l.5-.188c.203-.093.407-.156.532-.156.25 0 .187.047.187.453v5.375c0 .657-.078.782-1.125.829V0h3.61zm0 0"/></svg><svg overflow="visible" x="152.154" y="26.654"><path d="M7.578-2.766v-.921H.594v1.062h6.984zm0 0"/></svg><svg overflow="visible" x="163.009" y="26.654"><path d="M3.375-5.5h-.64l.374-1.547h-.453C2.11-5.875 1.546-5.563.484-5.359l-.093.578h.906L.375-1.094c-.047.14-.063.297-.063.453 0 .313.266.75.625.75.72 0 1.422-.953 1.797-1.437l-.39-.328c-.531.718-.578.937-.578.937l-.11-.219c-.156 0-.031.047-.031-.015a.58.58 0 01.031-.14l.89-3.688h.829l.203-.719zm0 0"/></svg><svg overflow="visible" x="166.751" y="26.654"><path d="M.234-7.922c1.72 1.36 1.985 2.64 1.985 4.875C2.219-.734 1.922.297.156 1.75l.235.438C2.469.921 3.562-.876 3.562-3.079c0-2.031-1.14-4.125-3.124-5.328L.124-8zm0 0"/></svg><svg overflow="visible" x="170.735" y="21.871"><path d="M4.25-1.5l-.219-.094c-.343.578-.39.64-.765.64h-1.75l1.25-1.343c.796-.844 1.203-1.61 1.203-2.328 0-.875-.828-1.703-1.828-1.703-1.11 0-1.875.86-2.079 2l.516.125C1-5.25 1.125-5.406 1.781-5.406c.75 0 1.047.328 1.047 1.14 0 .766-.265 1.344-1.11 2.235L.079-.281V0h3.813l.562-1.406zm0 0"/></svg><svg overflow="visible" x="178.373" y="26.654"><path d="M2.578-3.156c0-.375-.469-.844-.86-.844-.39 0-.89.484-.89.844s.5.844.89.844c.391 0 .86-.454.86-.844zm0 0"/></svg><svg overflow="visible" x="184.446" y="26.654"><path d="M3.375-5.5h-.64l.374-1.547h-.453C2.11-5.875 1.546-5.563.484-5.359l-.093.578h.906L.375-1.094c-.047.14-.063.297-.063.453 0 .313.266.75.625.75.72 0 1.422-.953 1.797-1.437l-.39-.328c-.531.718-.578.937-.578.937l-.11-.219c-.156 0-.031.047-.031-.015a.58.58 0 01.031-.14l.89-3.688h.829l.203-.719zm0 0"/></svg><svg overflow="visible" x="193.837" y="26.654" fill="#00f"><path d="M7.75-2.766v-.921H4.64v-3.11H3.532v3.11H.406v1.062h3.125v3.11h1.11v-3.11H7.75zm0 0"/></svg><g fill="#00f"><svg overflow="visible" x="207.669" y="26.654"><path d="M4.86-.125v-.313c-1.048 0-1.126-.093-1.126-.609v-7.219l-.296-.093-2.282 1.156v.453l.5-.188c.203-.093.407-.156.532-.156.25 0 .187.047.187.453v5.375c0 .657-.078.782-1.125.829V0h3.61zm0 0"/></svg><svg overflow="visible" x="213.647" y="26.654"><path d="M3.484-3.031H.891l2.703-3.86L3.328-7v3.969zm2.329.906v-.906H4.577v-5.313h-.781L-.031-2.922V-2h3.36v2h1.25v-2h1.234zm0 0"/></svg><svg overflow="visible" x="219.624" y="26.654"><path d="M4.375-4.016c0 2.36-.375 3.61-1.39 3.61-1.032 0-1.391-1.235-1.391-3.656 0-2.422.375-3.704 1.375-3.704 1.047 0 1.406 1.266 1.406 3.75zm1.469-.062c0-2.453-1.235-4.266-2.813-4.266C1.11-8.344.125-6.266.125-4.14c0 1.954.813 4.313 2.86 4.313 1.953 0 2.859-2.188 2.859-4.25zm0 0"/></svg></g><svg overflow="visible" x="228.261" y="26.654"><path d="M2.578-3.156c0-.375-.469-.844-.86-.844-.39 0-.89.484-.89.844s.5.844.89.844c.391 0 .86-.454.86-.844zm0 0"/></svg><svg overflow="visible" x="234.334" y="26.654"><path d="M.844-6.125c.484-.89.922-1.234 1.672-1.234.78 0 1.125.265 1.125 1.078 0 .734-.344 1.172-.922 1.515-.25.141-.438.235-1.063.438v.39c.86 0 1.125.032 1.39.11.829.25 1.079.703 1.079 1.61 0 1.015-.5 1.687-1.39 1.687-.329 0-.47-.016-.922-.328-.329-.235-.625-.344-.829-.344-.28 0-.656.312-.656.562 0 .422.625.813 1.5.813 1.063 0 2.313-.39 2.875-1.156.36-.454.61-1.125.61-1.766 0-.625-.25-1.266-.579-1.64-.25-.266-.578-.438-.812-.548.625-.375.984-1.062.984-1.64 0-.969-.906-1.766-2.031-1.766-1.234 0-2.156.938-2.531 2.156l.453.11zm0 0"/></svg><svg overflow="visible" x="242.966" y="26.654"><path d="M2.578-3.156c0-.375-.469-.844-.86-.844-.39 0-.89.484-.89.844s.5.844.89.844c.391 0 .86-.454.86-.844zm0 0"/></svg><svg overflow="visible" x="249.039" y="26.654"><path d="M3.734 1.703C2.063.297 1.75-.953 1.75-3.172c0-2.312.328-3.328 2.063-4.812l-.235-.422C1.5-7.172.406-5.36.406-3.141.406-1.109 1.484 1 3.531 2.172l.297-.406zm0 0"/></svg><svg overflow="visible" x="253.02" y="26.654"><path d="M4.86-.125v-.313c-1.048 0-1.126-.093-1.126-.609v-7.219l-.296-.093-2.282 1.156v.453l.5-.188c.203-.093.407-.156.532-.156.25 0 .187.047.187.453v5.375c0 .657-.078.782-1.125.829V0h3.61zm0 0"/></svg><g><svg overflow="visible" x="261.664" y="26.654"><path d="M7.578-2.766v-.921H.594v1.062h6.984zm0 0"/></svg></g><g><svg overflow="visible" x="272.507" y="26.654"><path d="M3.375-5.5h-.64l.374-1.547h-.453C2.11-5.875 1.546-5.563.484-5.359l-.093.578h.906L.375-1.094c-.047.14-.063.297-.063.453 0 .313.266.75.625.75.72 0 1.422-.953 1.797-1.437l-.39-.328c-.531.718-.578.937-.578.937l-.11-.219c-.156 0-.031.047-.031-.015a.58.58 0 01.031-.14l.89-3.688h.829l.203-.719zm0 0"/></svg><svg overflow="visible" x="276.249" y="26.654"><path d="M.234-7.922c1.72 1.36 1.985 2.64 1.985 4.875C2.219-.734 1.922.297.156 1.75l.235.438C2.469.921 3.562-.876 3.562-3.079c0-2.031-1.14-4.125-3.124-5.328L.124-8zm0 0"/></svg></g><g><svg overflow="visible" x="282.884" y="26.654"><path d="M2.578-3.156c0-.375-.469-.844-.86-.844-.39 0-.89.484-.89.844s.5.844.89.844c.391 0 .86-.454.86-.844zm0 0"/></svg></g><g><svg overflow="visible" x="288.958" y="26.654"><path d="M3.375-5.5h-.64l.374-1.547h-.453C2.11-5.875 1.546-5.563.484-5.359l-.093.578h.906L.375-1.094c-.047.14-.063.297-.063.453 0 .313.266.75.625.75.72 0 1.422-.953 1.797-1.437l-.39-.328c-.531.718-.578.937-.578.937l-.11-.219c-.156 0-.031.047-.031-.015a.58.58 0 01.031-.14l.89-3.688h.829l.203-.719zm0 0"/></svg></g><g><svg overflow="visible" x="292.708" y="21.871"><path d="M4.25-1.5l-.219-.094c-.343.578-.39.64-.765.64h-1.75l1.25-1.343c.796-.844 1.203-1.61 1.203-2.328 0-.875-.828-1.703-1.828-1.703-1.11 0-1.875.86-2.079 2l.516.125C1-5.25 1.125-5.406 1.781-5.406c.75 0 1.047.328 1.047 1.14 0 .766-.265 1.344-1.11 2.235L.079-.281V0h3.813l.562-1.406zm0 0"/></svg></g><g fill="red"><svg overflow="visible" x="303.335" y="26.654"><path d="M7.75-2.766v-.921H4.64v-3.11H3.532v3.11H.406v1.062h3.125v3.11h1.11v-3.11H7.75zm0 0"/></svg></g><g fill="red"><svg overflow="visible" x="317.167" y="26.654"><path d="M4.375-4.016c0 2.36-.375 3.61-1.39 3.61-1.032 0-1.391-1.235-1.391-3.656 0-2.422.375-3.704 1.375-3.704 1.047 0 1.406 1.266 1.406 3.75zm1.469-.062c0-2.453-1.235-4.266-2.813-4.266C1.11-8.344.125-6.266.125-4.14c0 1.954.813 4.313 2.86 4.313 1.953 0 2.859-2.188 2.859-4.25zm0 0"/></svg></g><g><svg overflow="visible" x="325.805" y="26.654"><path d="M2.578-3.156c0-.375-.469-.844-.86-.844-.39 0-.89.484-.89.844s.5.844.89.844c.391 0 .86-.454.86-.844zm0 0"/></svg></g><g><svg overflow="visible" x="331.878" y="26.654"><path d="M3.375-5.5h-.64l.374-1.547h-.453C2.11-5.875 1.546-5.563.484-5.359l-.093.578h.906L.375-1.094c-.047.14-.063.297-.063.453 0 .313.266.75.625.75.72 0 1.422-.953 1.797-1.437l-.39-.328c-.531.718-.578.937-.578.937l-.11-.219c-.156 0-.031.047-.031-.015a.58.58 0 01.031-.14l.89-3.688h.829l.203-.719zm0 0"/></svg></g><g><svg overflow="visible" x="335.623" y="21.871"><path d="M.672-4.61c.375-.671.656-.921 1.219-.921.578 0 .765.172.765.781 0 .547-.219.86-.672 1.11-.171.109-.265.171-.796.343v.344c.703 0 .906.015 1.093.078.625.188.75.484.75 1.172 0 .766-.312 1.234-.984 1.234-.25 0-.313 0-.64-.234C1.156-.891.89-.984.733-.984c-.203 0-.562.28-.562.468 0 .313.547.641 1.203.641.797 0 1.766-.297 2.203-.875.266-.328.469-.875.469-1.344 0-.469-.203-.984-.453-1.265a2.062 2.062 0 00-.578-.375c.437-.25.718-.797.718-1.235 0-.734-.734-1.36-1.578-1.36-.922 0-1.687.735-1.969 1.673l.454.11zm0 0"/></svg></g></svg>