<svg xmlns="http://www.w3.org/2000/svg" xmlns:xlink="http://www.w3.org/1999/xlink" width="463px" height="40" viewBox="0 0 347 30"><svg overflow="visible" x="-.861" y="18.067"><path d="M7.938 10.969c0-.125-.282-.36-.391-.39-1.453-.454-2.313-1.767-2.313-2.938V.469c0-1.438-1.468-3-2.734-3.594 1.266-.578 2.734-2.14 2.734-3.578v-7.172c0-1.172.86-2.484 2.313-2.938.11-.046.39-.265.39-.39 0-.14-.312-.39-.453-.39a1.55 1.55 0 00-.234.046c-1.688.531-3.531 2.203-3.531 3.672v7.172c0 1.312-.844 2.75-2.313 3.203-.11.031-.39.266-.39.375 0 .125.28.36.39.39C2.875-2.28 3.72-.843 3.72.47V7.64c0 1.468 1.844 3.125 3.531 3.671.047 0 .203.047.234.047.141 0 .454-.25.454-.39zm0 0"/></svg><svg overflow="visible" x="8.105" y="10.745"><path d="M6.484-4.625c0-.625-.89-.922-1.296-.922-.688 0-1.25.672-1.235.61-.125-.36-.969-.61-1.312-.61-1.235 0-2.125 1.672-2.125 1.969 0 .125.468.219.468.219l-.125.03c.094 0 .329-.155.344-.25.406-1.28 1.016-1.437 1.422-1.437.219 0 .438-.03.438.672 0 .36-.204 1.172-.641 2.844-.203.734-.406 1.11-.938 1.11-.078 0-.218.03-.218.03-.079.016.375-.374.375-.703 0-.328-.454-.546-.641-.546-.36 0-.86.437-.86.828 0 .547.797.906 1.329.906.797 0 1.36-.86 1.39-.938l-.343-.093c.156.437.78 1.031 1.5 1.031 1.234 0 2.109-1.672 2.109-1.969 0-.11-.297-.25-.344-.25-.11 0-.328.188-.36.266-.39 1.281-1 1.437-1.374 1.437-.469 0-.469-.25-.469-.656 0-.266.063-.531.203-1.062l.406-1.625c.063-.313.157-1.282.985-1.282a.604.604 0 00.187-.046c.079 0-.359.421-.359.718 0 .188.328.547.656.547.266 0 .828-.344.828-.828zm0 0"/></svg><svg overflow="visible" x="18.255" y="10.745"><path d="M8.828-4.281c0-.125-.312-.375-.437-.375H.906c-.125 0-.437.25-.437.375 0 .14.312.375.437.375h7.485c.125 0 .437-.235.437-.375zm0 2.328c0-.14-.312-.375-.437-.375H.906c-.125 0-.437.234-.437.375 0 .125.312.36.437.36h7.485c.125 0 .437-.235.437-.36zm0 0"/></svg><svg overflow="visible" x="30.887" y="10.745" fill="#00f"><path d="M5.688-3.953c0-.953-.063-1.922-.47-2.797-.562-1.156-1.734-1.469-2.234-1.469-.718 0-1.796.438-2.28 1.547-.376.828-.438 1.766-.438 2.719 0 .89.109 2.062.593 2.969.516.968 1.532 1.25 2.11 1.25.656 0 1.75-.391 2.281-1.516.375-.828.438-1.766.438-2.703zm-1.391-.14c0 .89 0 1.702-.125 2.468C4-.485 3.516-.265 2.969-.265 2.516-.266 2-.438 1.78-1.579c-.125-.719-.125-1.813-.125-2.516 0-.765 0-1.562.094-2.203.219-1.422.922-1.406 1.219-1.406.406 0 .984.094 1.219 1.266.109.671.109 1.578.109 2.343zm0 0"/></svg><svg overflow="visible" x="39.521" y="10.745"><path d="M2.484-3.125c0-.344-.468-.766-.828-.766-.343 0-.828.422-.828.766 0 .36.485.766.828.766.36 0 .828-.407.828-.766zm0 0"/></svg><svg overflow="visible" x="45.499" y="10.745"><path d="M4.156 2.719c0-.047-.078-.172-.11-.203-1.234-.922-2-3.22-2-5.141v-1c0-1.906.767-4.203 2-5.14a.457.457 0 00.11-.188c0-.063-.25-.25-.312-.25a1.01 1.01 0 00-.203.062C2.312-8.156 1-5.67 1-3.625v1C1-.578 2.313 1.906 3.64 2.906c.016.016.188.063.204.063.062 0 .312-.203.312-.25zm0 0"/></svg><svg overflow="visible" x="50.149" y="10.745"><path d="M5.203-.125v-.516h-.578c-1.078 0-.922 0-.922-.437v-6.703c0-.282-.187-.438-.578-.438-.766.797-1.672.766-2.266.766v.625c.438 0 1.282-.031 1.563-.172v5.922c0 .437.172.437-.906.437H.937v.672C1.547-.03 2.595-.03 3.079-.03c.469 0 1.516 0 2.125.062zm0 0"/></svg><svg overflow="visible" x="58.781" y="10.745"><path d="M8.828-3.125c0-.125-.312-.36-.437-.36H.906c-.125 0-.437.235-.437.36 0 .14.312.375.437.375h7.485c.125 0 .437-.234.437-.375zm0 0"/></svg><svg overflow="visible" x="70.736" y="10.745"><path d="M4.14-5.156c0-.125-.312-.266-.53-.266H2.78c.39-1.562.453-1.797.453-1.875 0-.203-.328-.453-.53-.453-.032 0-.579.14-.688.563l-.422 1.765H.64c-.25 0-.563.14-.563.36 0 .156.297.28.531.28h.813C.594-1.515.547-1.311.547-1.093c0 .64.656 1.219 1.312 1.219 1.22 0 2.079-1.875 2.079-1.969 0-.11-.282-.25-.329-.25-.109 0-.328.172-.375.297C2.72-.547 2.281-.39 1.875-.39c-.25 0-.172-.03-.172-.421 0-.282.016-.375.063-.579l.859-3.39h.953c.25 0 .563-.125.563-.375zm0 0"/></svg><svg overflow="visible" x="75.052" y="10.745"><path d="M3.64-2.625v-1c0-2.047-1.328-4.531-2.64-5.516a.774.774 0 00-.203-.062c-.063 0-.313.187-.313.25 0 .031.079.172.094.187 1.25.938 2.016 3.235 2.016 5.141v1c0 1.922-.766 4.219-2.016 5.14-.015.032-.094.157-.094.204 0 .047.25.25.313.25A.774.774 0 001 2.906c1.313-1 2.64-3.484 2.64-5.531zm0 0"/></svg><svg overflow="visible" x="79.712" y="6.404"><path d="M4.516-1.61c0-.656-.75-1.468-1.672-1.656v.313c.89-.313 1.406-1.094 1.406-1.61 0-.656-.969-1.312-1.89-1.312-.938 0-1.86.61-1.86 1.281 0 .282.39.594.64.594.266 0 .641-.344.641-.578 0-.25-.375-.578-.297-.578.094-.11.532-.157.844-.157.375 0 .688.016.688.75 0 .344-.047.625-.266.891-.281.313-.36.281-.781.313-.203.015-.235.015-.266.015l.14.281s-.437-.109-.437-.015c0 .125.282.281.422.281h.453c.656 0 .922.297.922 1.188 0 1.046-.39 1.187-.89 1.187-.329 0-.922-.031-1.094-.266.078-.015.375-.453.375-.625 0-.265-.407-.625-.672-.625-.235 0-.672.297-.672.641C.25-.5 1.328.172 2.344.172 3.5.172 4.516-.766 4.516-1.61zm0 0"/></svg><svg overflow="visible" x="88.869" y="10.745" fill="#00f"><path d="M8.828-3.125c0-.125-.312-.36-.437-.36H.906c-.125 0-.437.235-.437.36 0 .14.312.375.437.375h7.485c.125 0 .437-.234.437-.375zm0 0"/></svg><g fill="#00f"><svg overflow="visible" x="102.056" y="10.745"><path d="M5.656-2.14c0-.422-.187-1.063-.64-1.563-.235-.25-.422-.375-1.016-.75.688-.36 1.328-1.063 1.328-1.86 0-1.093-1.25-1.906-2.344-1.906-1.187 0-2.359 1.016-2.359 2.125 0 .219.078.844.578 1.407.14.14.578.437.703.546-.515.25-1.61 1.016-1.61 2.204C.297-.673 1.72.265 2.97.265c1.36 0 2.687-1.125 2.687-2.407zm-1.25-4.172c0 .687-.406 1.156-.968 1.5l-1.36-.875c-.547-.36-.531-.672-.531-.875 0-.735.578-1.094 1.422-1.094.875 0 1.437.484 1.437 1.343zm.25 4.609c0 .875-.687 1.375-1.672 1.375-1.03 0-1.687-.61-1.687-1.61 0-.687.312-1.359 1.187-1.843l1.344.86c.328.218.828.483.828 1.218zm0 0"/></svg><svg overflow="visible" x="108.033" y="10.745"><path d="M5.563-2.531c0-1.422-1.172-2.75-2.47-2.75-.577 0-1.234.218-1.327.312v-1.718c.046.015.453.093.828.093 1.469 0 2.5-1.218 2.5-1.36 0-.077-.235-.265-.313-.265L4.906-8s-.297-.188-.5-.063c.047-.015-.547.22-1.343.22a3.882 3.882 0 01-1.594-.329c-.094-.047-.016.188-.016.188l-.125-.235c-.125 0-.328.235-.328.422v3.547c0 .203.203.438.375.438a.485.485 0 00.281-.141c.14-.188.453-.797 1.422-.797.61 0 .719.406.813.625.187.438.203.906.203 1.5 0 .422.062 1.047-.219 1.547-.297.469-.594.75-1.14.75-.876 0-1.36-.516-1.485-.984-.234-.094-.203-.079-.063-.079.391 0 .782-.421.782-.718 0-.282-.39-.72-.782-.72-.171 0-.796.22-.796.767C.39-1.032 1.42.265 2.766.265c1.375 0 2.796-1.282 2.796-2.797zm0 0"/></svg></g><svg overflow="visible" x="116.679" y="10.745"><path d="M2.484-3.125c0-.344-.468-.766-.828-.766-.343 0-.828.422-.828.766 0 .36.485.766.828.766.36 0 .828-.407.828-.766zm0 0"/></svg><svg overflow="visible" x="122.657" y="10.745"><path d="M5.656-2.172c0-.984-.953-2.047-2.187-2.297v.266c.984-.328 1.86-1.297 1.86-2.234 0-.985-1.235-1.782-2.391-1.782-1.204 0-2.313.844-2.313 1.75 0 .39.469.75.813.75.375 0 .796-.39.796-.734 0-.594-.75-.734-.656-.734.234-.36.89-.47 1.313-.47.484 0 .953.126.953 1.204 0 .14.031.734-.281 1.266-.36.578-.626.578-.922.578a4.76 4.76 0 01-.47.046c-.093.016-.374.157-.374.266 0 .14.281.266.484.266h.531c.985 0 1.22.687 1.22 1.86 0 1.624-.626 1.843-1.157 1.843-.516 0-1.266-.172-1.531-.61.125.016.687-.375.687-.828 0-.437-.515-.796-.86-.796-.28 0-.874.296-.874.812C.297-.656 1.609.266 2.922.266c1.453 0 2.734-1.22 2.734-2.438zm0 0"/></svg><svg overflow="visible" x="131.288" y="10.745"><path d="M2.484-3.125c0-.344-.468-.766-.828-.766-.343 0-.828.422-.828.766 0 .36.485.766.828.766.36 0 .828-.407.828-.766zm0 0"/></svg><svg overflow="visible" x="137.266" y="10.745"><path d="M4.156 2.719c0-.047-.078-.172-.11-.203-1.234-.922-2-3.22-2-5.141v-1c0-1.906.767-4.203 2-5.14a.457.457 0 00.11-.188c0-.063-.25-.25-.312-.25a1.01 1.01 0 00-.203.062C2.312-8.156 1-5.67 1-3.625v1C1-.578 2.313 1.906 3.64 2.906c.016.016.188.063.204.063.062 0 .312-.203.312-.25zm0 0"/></svg><svg overflow="visible" x="141.916" y="10.745"><path d="M5.203-.125v-.516h-.578c-1.078 0-.922 0-.922-.437v-6.703c0-.282-.187-.438-.578-.438-.766.797-1.672.766-2.266.766v.625c.438 0 1.282-.031 1.563-.172v5.922c0 .437.172.437-.906.437H.937v.672C1.547-.03 2.595-.03 3.079-.03c.469 0 1.516 0 2.125.062zm0 0"/></svg><svg overflow="visible" x="150.56" y="10.745"><path d="M8.828-3.125c0-.125-.312-.36-.437-.36H.906c-.125 0-.437.235-.437.36 0 .14.312.375.437.375h7.485c.125 0 .437-.234.437-.375zm0 0"/></svg><svg overflow="visible" x="162.515" y="10.745"><path d="M4.14-5.156c0-.125-.312-.266-.53-.266H2.78c.39-1.562.453-1.797.453-1.875 0-.203-.328-.453-.53-.453-.032 0-.579.14-.688.563l-.422 1.765H.64c-.25 0-.563.14-.563.36 0 .156.297.28.531.28h.813C.594-1.515.547-1.311.547-1.093c0 .64.656 1.219 1.312 1.219 1.22 0 2.079-1.875 2.079-1.969 0-.11-.282-.25-.329-.25-.109 0-.328.172-.375.297C2.72-.547 2.281-.39 1.875-.39c-.25 0-.172-.03-.172-.421 0-.282.016-.375.063-.579l.859-3.39h.953c.25 0 .563-.125.563-.375zm0 0"/></svg><svg overflow="visible" x="166.831" y="10.745"><path d="M3.64-2.625v-1c0-2.047-1.328-4.531-2.64-5.516a.774.774 0 00-.203-.062c-.063 0-.313.187-.313.25 0 .031.079.172.094.187 1.25.938 2.016 3.235 2.016 5.141v1c0 1.922-.766 4.219-2.016 5.14-.015.032-.094.157-.094.204 0 .047.25.25.313.25A.774.774 0 001 2.906c1.313-1 2.64-3.484 2.64-5.531zm0 0"/></svg><svg overflow="visible" x="171.485" y="6.404"><path d="M4.234-1.844H3.75c-.047.344-.063.735-.172.813-.062.047-.562 0-.687 0H1.812c.563-.5.86-.735 1.36-1.125.625-.5 1.265-1.14 1.265-1.938 0-1-1.093-1.781-2.171-1.781-1.032 0-1.954.89-1.954 1.656 0 .422.579.625.657.625.203 0 .656-.297.656-.61 0-.14-.266-.593-.422-.593.188-.437.547-.469.938-.469.843 0 1.062.5 1.062 1.172 0 .735-.453 1.203-.719 1.5l-2.03 2C.374-.516.311-.39.311 0h3.844l.313-1.844zm0 0"/></svg><svg overflow="visible" x="179.401" y="10.745"><path d="M2.484-3.125c0-.344-.468-.766-.828-.766-.343 0-.828.422-.828.766 0 .36.485.766.828.766.36 0 .828-.407.828-.766zm0 0"/></svg><svg overflow="visible" x="185.379" y="10.745"><path d="M4.14-5.156c0-.125-.312-.266-.53-.266H2.78c.39-1.562.453-1.797.453-1.875 0-.203-.328-.453-.53-.453-.032 0-.579.14-.688.563l-.422 1.765H.64c-.25 0-.563.14-.563.36 0 .156.297.28.531.28h.813C.594-1.515.547-1.311.547-1.093c0 .64.656 1.219 1.312 1.219 1.22 0 2.079-1.875 2.079-1.969 0-.11-.282-.25-.329-.25-.109 0-.328.172-.375.297C2.72-.547 2.281-.39 1.875-.39c-.25 0-.172-.03-.172-.421 0-.282.016-.375.063-.579l.859-3.39h.953c.25 0 .563-.125.563-.375zm0 0"/></svg><svg overflow="visible" x="193.595" y="10.745" fill="#00f"><path d="M8.828-3.125c0-.125-.312-.36-.437-.36H.906c-.125 0-.437.235-.437.36 0 .14.312.375.437.375h7.485c.125 0 .437-.234.437-.375zm0 0"/></svg><g fill="#00f"><svg overflow="visible" x="206.794" y="10.745"><path d="M5.203-.125v-.516h-.578c-1.078 0-.922 0-.922-.437v-6.703c0-.282-.187-.438-.578-.438-.766.797-1.672.766-2.266.766v.625c.438 0 1.282-.031 1.563-.172v5.922c0 .437.172.437-.906.437H.937v.672C1.547-.03 2.595-.03 3.079-.03c.469 0 1.516 0 2.125.062zm0 0"/></svg><svg overflow="visible" x="212.771" y="10.745"><path d="M5.36-2.344h-.47c-.077.485-.109.922-.234 1.094-.078.11-.718.063-.984.063H1.89l1.03-1c1.86-1.657 2.642-2.391 2.642-3.579 0-1.375-1.266-2.453-2.735-2.453C1.484-8.219.391-7 .391-5.922c0 .656.796.797.843.797.204 0 .813-.281.813-.766 0-.312-.406-.75-.828-.75-.094 0-.125 0 .125-.093.187-.547.64-.86 1.328-.86 1.094 0 1.406.844 1.406 1.828 0 .954-.547 1.797-1.203 2.532L.578-.672C.453-.532.391-.422.391 0h4.812l.375-2.344zm0 0"/></svg></g><svg overflow="visible" x="221.406" y="10.745"><path d="M2.484-3.125c0-.344-.468-.766-.828-.766-.343 0-.828.422-.828.766 0 .36.485.766.828.766.36 0 .828-.407.828-.766zm0 0"/></svg><svg overflow="visible" x="227.384" y="10.745"><path d="M5.656-2.172c0-.984-.953-2.047-2.187-2.297v.266c.984-.328 1.86-1.297 1.86-2.234 0-.985-1.235-1.782-2.391-1.782-1.204 0-2.313.844-2.313 1.75 0 .39.469.75.813.75.375 0 .796-.39.796-.734 0-.594-.75-.734-.656-.734.234-.36.89-.47 1.313-.47.484 0 .953.126.953 1.204 0 .14.031.734-.281 1.266-.36.578-.626.578-.922.578a4.76 4.76 0 01-.47.046c-.093.016-.374.157-.374.266 0 .14.281.266.484.266h.531c.985 0 1.22.687 1.22 1.86 0 1.624-.626 1.843-1.157 1.843-.516 0-1.266-.172-1.531-.61.125.016.687-.375.687-.828 0-.437-.515-.796-.86-.796-.28 0-.874.296-.874.812C.297-.656 1.609.266 2.922.266c1.453 0 2.734-1.22 2.734-2.438zm0 0"/></svg><svg overflow="visible" x="236.015" y="10.745"><path d="M2.484-3.125c0-.344-.468-.766-.828-.766-.343 0-.828.422-.828.766 0 .36.485.766.828.766.36 0 .828-.407.828-.766zm0 0"/></svg><svg overflow="visible" x="241.993" y="10.745"><path d="M4.156 2.719c0-.047-.078-.172-.11-.203-1.234-.922-2-3.22-2-5.141v-1c0-1.906.767-4.203 2-5.14a.457.457 0 00.11-.188c0-.063-.25-.25-.312-.25a1.01 1.01 0 00-.203.062C2.312-8.156 1-5.67 1-3.625v1C1-.578 2.313 1.906 3.64 2.906c.016.016.188.063.204.063.062 0 .312-.203.312-.25zm0 0"/></svg><svg overflow="visible" x="246.643" y="10.745"><path d="M5.203-.125v-.516h-.578c-1.078 0-.922 0-.922-.437v-6.703c0-.282-.187-.438-.578-.438-.766.797-1.672.766-2.266.766v.625c.438 0 1.282-.031 1.563-.172v5.922c0 .437.172.437-.906.437H.937v.672C1.547-.03 2.595-.03 3.079-.03c.469 0 1.516 0 2.125.062zm0 0"/></svg><svg overflow="visible" x="255.275" y="10.745"><path d="M8.828-3.125c0-.125-.312-.36-.437-.36H.906c-.125 0-.437.235-.437.36 0 .14.312.375.437.375h7.485c.125 0 .437-.234.437-.375zm0 0"/></svg><svg overflow="visible" x="267.242" y="10.745"><path d="M4.14-5.156c0-.125-.312-.266-.53-.266H2.78c.39-1.562.453-1.797.453-1.875 0-.203-.328-.453-.53-.453-.032 0-.579.14-.688.563l-.422 1.765H.64c-.25 0-.563.14-.563.36 0 .156.297.28.531.28h.813C.594-1.515.547-1.311.547-1.093c0 .64.656 1.219 1.312 1.219 1.22 0 2.079-1.875 2.079-1.969 0-.11-.282-.25-.329-.25-.109 0-.328.172-.375.297C2.72-.547 2.281-.39 1.875-.39c-.25 0-.172-.03-.172-.421 0-.282.016-.375.063-.579l.859-3.39h.953c.25 0 .563-.125.563-.375zm0 0"/></svg><svg overflow="visible" x="271.558" y="10.745"><path d="M3.64-2.625v-1c0-2.047-1.328-4.531-2.64-5.516a.774.774 0 00-.203-.062c-.063 0-.313.187-.313.25 0 .031.079.172.094.187 1.25.938 2.016 3.235 2.016 5.141v1c0 1.922-.766 4.219-2.016 5.14-.015.032-.094.157-.094.204 0 .047.25.25.313.25A.774.774 0 001 2.906c1.313-1 2.64-3.484 2.64-5.531zm0 0"/></svg><svg overflow="visible" x="278.863" y="10.745"><path d="M2.484-3.125c0-.344-.468-.766-.828-.766-.343 0-.828.422-.828.766 0 .36.485.766.828.766.36 0 .828-.407.828-.766zm0 0"/></svg><svg overflow="visible" x="284.84" y="10.745"><path d="M4.14-5.156c0-.125-.312-.266-.53-.266H2.78c.39-1.562.453-1.797.453-1.875 0-.203-.328-.453-.53-.453-.032 0-.579.14-.688.563l-.422 1.765H.64c-.25 0-.563.14-.563.36 0 .156.297.28.531.28h.813C.594-1.515.547-1.311.547-1.093c0 .64.656 1.219 1.312 1.219 1.22 0 2.079-1.875 2.079-1.969 0-.11-.282-.25-.329-.25-.109 0-.328.172-.375.297C2.72-.547 2.281-.39 1.875-.39c-.25 0-.172-.03-.172-.421 0-.282.016-.375.063-.579l.859-3.39h.953c.25 0 .563-.125.563-.375zm0 0"/></svg><svg overflow="visible" x="289.164" y="6.404"><path d="M4.234-1.844H3.75c-.047.344-.063.735-.172.813-.062.047-.562 0-.687 0H1.812c.563-.5.86-.735 1.36-1.125.625-.5 1.265-1.14 1.265-1.938 0-1-1.093-1.781-2.171-1.781-1.032 0-1.954.89-1.954 1.656 0 .422.579.625.657.625.203 0 .656-.297.656-.61 0-.14-.266-.593-.422-.593.188-.437.547-.469.938-.469.843 0 1.062.5 1.062 1.172 0 .735-.453 1.203-.719 1.5l-2.03 2C.374-.516.311-.39.311 0h3.844l.313-1.844zm0 0"/></svg><svg overflow="visible" x="298.321" y="10.745" fill="#00f"><path d="M8.828-3.125c0-.125-.312-.36-.437-.36H5.078v-3.374c0-.141-.297-.375-.422-.375-.14 0-.453.234-.453.375v3.375H.906c-.125 0-.437.234-.437.359 0 .14.312.375.437.375h3.297V.625c0 .125.313.36.453.36.125 0 .422-.235.422-.36V-2.75h3.313c.125 0 .437-.234.437-.375zm0 0"/></svg><g fill="#00f"><svg overflow="visible" x="311.52" y="10.745"><path d="M5.203-.125v-.516h-.578c-1.078 0-.922 0-.922-.437v-6.703c0-.282-.187-.438-.578-.438-.766.797-1.672.766-2.266.766v.625c.438 0 1.282-.031 1.563-.172v5.922c0 .437.172.437-.906.437H.937v.672C1.547-.03 2.595-.03 3.079-.03c.469 0 1.516 0 2.125.062zm0 0"/></svg><svg overflow="visible" x="317.497" y="10.745"><path d="M5.563-2.531c0-1.422-1.172-2.75-2.47-2.75-.577 0-1.234.218-1.327.312v-1.718c.046.015.453.093.828.093 1.469 0 2.5-1.218 2.5-1.36 0-.077-.235-.265-.313-.265L4.906-8s-.297-.188-.5-.063c.047-.015-.547.22-1.343.22a3.882 3.882 0 01-1.594-.329c-.094-.047-.016.188-.016.188l-.125-.235c-.125 0-.328.235-.328.422v3.547c0 .203.203.438.375.438a.485.485 0 00.281-.141c.14-.188.453-.797 1.422-.797.61 0 .719.406.813.625.187.438.203.906.203 1.5 0 .422.062 1.047-.219 1.547-.297.469-.594.75-1.14.75-.876 0-1.36-.516-1.485-.984-.234-.094-.203-.079-.063-.079.391 0 .782-.421.782-.718 0-.282-.39-.72-.782-.72-.171 0-.796.22-.796.767C.39-1.032 1.42.265 2.766.265c1.375 0 2.796-1.282 2.796-2.797zm0 0"/></svg><svg overflow="visible" x="323.475" y="10.745"><path d="M5.656-2.563c0-1.53-1.25-2.796-2.578-2.796-.812 0-1.469.734-1.703 1.312h.39v-.297c0-3.015 1.298-3.312 1.907-3.312.281 0 .64.031.75.203.125 0-.563.14-.563.672 0 .375.485.687.75.687.204 0 .75-.234.75-.703 0-.719-.718-1.422-1.718-1.422-1.532 0-3.344 1.672-3.344 4.313C.297-.72 1.89.266 3 .266c1.328 0 2.656-1.25 2.656-2.829zm-1.468-.015c0 .562 0 1.172-.204 1.594l.063-.094c-.36.719-.766.75-1.047.75-.75 0-.922-.594-.984-.766-.22-.562-.22-1.531-.22-1.734 0-.938.188-2 1.266-2 .188 0 .594-.031.97.703l-.063-.094c.219.438.219 1.047.219 1.64zm0 0"/></svg></g><svg overflow="visible" x="332.11" y="10.745"><path d="M2.484-3.125c0-.344-.468-.766-.828-.766-.343 0-.828.422-.828.766 0 .36.485.766.828.766.36 0 .828-.407.828-.766zm0 0"/></svg><svg overflow="visible" x="338.088" y="10.745"><path d="M4.14-5.156c0-.125-.312-.266-.53-.266H2.78c.39-1.562.453-1.797.453-1.875 0-.203-.328-.453-.53-.453-.032 0-.579.14-.688.563l-.422 1.765H.64c-.25 0-.563.14-.563.36 0 .156.297.28.531.28h.813C.594-1.515.547-1.311.547-1.093c0 .64.656 1.219 1.312 1.219 1.22 0 2.079-1.875 2.079-1.969 0-.11-.282-.25-.329-.25-.109 0-.328.172-.375.297C2.72-.547 2.281-.39 1.875-.39c-.25 0-.172-.03-.172-.421 0-.282.016-.375.063-.579l.859-3.39h.953c.25 0 .563-.125.563-.375zm0 0"/></svg><svg overflow="visible" x="342.406" y="6.404"><path d="M4.516-1.61c0-.656-.75-1.468-1.672-1.656v.313c.89-.313 1.406-1.094 1.406-1.61 0-.656-.969-1.312-1.89-1.312-.938 0-1.86.61-1.86 1.281 0 .282.39.594.64.594.266 0 .641-.344.641-.578 0-.25-.375-.578-.297-.578.094-.11.532-.157.844-.157.375 0 .688.016.688.75 0 .344-.047.625-.266.891-.281.313-.36.281-.781.313-.203.015-.235.015-.266.015l.14.281s-.437-.109-.437-.015c0 .125.282.281.422.281h.453c.656 0 .922.297.922 1.188 0 1.046-.39 1.187-.89 1.187-.329 0-.922-.031-1.094-.266.078-.015.375-.453.375-.625 0-.265-.407-.625-.672-.625-.235 0-.672.297-.672.641C.25-.5 1.328.172 2.344.172 3.5.172 4.516-.766 4.516-1.61zm0 0"/></svg><svg overflow="visible" x="11.417" y="25.19"><path d="M6.047-4.953c0-.219-.36-.469-.531-.469-.125 0-.454.11-.641.406-.016.047-.11.407-.156.625l-.235.954-.546 2.156c-.047.187-.36.89-1.141.89-.61 0-.547-.39-.547-.843 0-.547.203-1.282.61-2.344.187-.485.234-.625.234-.86 0-.53-.578-1.109-1.172-1.109C.782-5.547.14-3.687.14-3.578c0 .125.484.219.484.219l-.14.03c.124 0 .328-.155.39-.343.313-1.125.61-1.344 1.016-1.344.093 0 .093-.14.093.25 0 .297-.125.61-.203.829-.484 1.265-.687 1.953-.687 2.515 0 1.063.953 1.547 1.656 1.547.469 0 1-.234 1.344-.563L3.75-.53c-.156.61-.234 1.11-.719 1.734-.312.406-.61.719-1.172.719-.156 0-.515.094-.656-.234-.062 0 .234-.032.406-.188.11-.094.297-.36.297-.578 0-.375-.515-.547-.64-.547-.282 0-.875.313-.875.906 0 .594.734 1.172 1.468 1.172 1.235 0 2.657-1.219 3-2.578L6-4.688c.047-.171.047-.187.047-.265zm0 0"/></svg><svg overflow="visible" x="20.921" y="25.19"><path d="M8.828-4.281c0-.125-.312-.375-.437-.375H.906c-.125 0-.437.25-.437.375 0 .14.312.375.437.375h7.485c.125 0 .437-.235.437-.375zm0 2.328c0-.14-.312-.375-.437-.375H.906c-.125 0-.437.234-.437.375 0 .125.312.36.437.36h7.485c.125 0 .437-.235.437-.36zm0 0"/></svg><svg overflow="visible" x="33.553" y="25.19" fill="#00f"><path d="M5.688-3.953c0-.953-.063-1.922-.47-2.797-.562-1.156-1.734-1.469-2.234-1.469-.718 0-1.796.438-2.28 1.547-.376.828-.438 1.766-.438 2.719 0 .89.109 2.062.593 2.969.516.968 1.532 1.25 2.11 1.25.656 0 1.75-.391 2.281-1.516.375-.828.438-1.766.438-2.703zm-1.391-.14c0 .89 0 1.702-.125 2.468C4-.485 3.516-.265 2.969-.265 2.516-.266 2-.438 1.78-1.579c-.125-.719-.125-1.813-.125-2.516 0-.765 0-1.562.094-2.203.219-1.422.922-1.406 1.219-1.406.406 0 .984.094 1.219 1.266.109.671.109 1.578.109 2.343zm0 0"/></svg><svg overflow="visible" x="42.187" y="25.19"><path d="M2.484-3.125c0-.344-.468-.766-.828-.766-.343 0-.828.422-.828.766 0 .36.485.766.828.766.36 0 .828-.407.828-.766zm0 0"/></svg><svg overflow="visible" x="48.165" y="25.19"><path d="M4.156 2.719c0-.047-.078-.172-.11-.203-1.234-.922-2-3.22-2-5.141v-1c0-1.906.767-4.203 2-5.14a.457.457 0 00.11-.188c0-.063-.25-.25-.312-.25a1.01 1.01 0 00-.203.062C2.312-8.156 1-5.67 1-3.625v1C1-.578 2.313 1.906 3.64 2.906c.016.016.188.063.204.063.062 0 .312-.203.312-.25zm0 0"/></svg><svg overflow="visible" x="52.815" y="25.19"><path d="M5.203-.125v-.516h-.578c-1.078 0-.922 0-.922-.437v-6.703c0-.282-.187-.438-.578-.438-.766.797-1.672.766-2.266.766v.625c.438 0 1.282-.031 1.563-.172v5.922c0 .437.172.437-.906.437H.937v.672C1.547-.03 2.595-.03 3.079-.03c.469 0 1.516 0 2.125.062zm0 0"/></svg><svg overflow="visible" x="61.447" y="25.19"><path d="M8.828-3.125c0-.125-.312-.36-.437-.36H.906c-.125 0-.437.235-.437.36 0 .14.312.375.437.375h7.485c.125 0 .437-.234.437-.375zm0 0"/></svg><svg overflow="visible" x="73.402" y="25.19"><path d="M4.14-5.156c0-.125-.312-.266-.53-.266H2.78c.39-1.562.453-1.797.453-1.875 0-.203-.328-.453-.53-.453-.032 0-.579.14-.688.563l-.422 1.765H.64c-.25 0-.563.14-.563.36 0 .156.297.28.531.28h.813C.594-1.515.547-1.311.547-1.093c0 .64.656 1.219 1.312 1.219 1.22 0 2.079-1.875 2.079-1.969 0-.11-.282-.25-.329-.25-.109 0-.328.172-.375.297C2.72-.547 2.281-.39 1.875-.39c-.25 0-.172-.03-.172-.421 0-.282.016-.375.063-.579l.859-3.39h.953c.25 0 .563-.125.563-.375zm0 0"/></svg><svg overflow="visible" x="77.718" y="25.19"><path d="M3.64-2.625v-1c0-2.047-1.328-4.531-2.64-5.516a.774.774 0 00-.203-.062c-.063 0-.313.187-.313.25 0 .031.079.172.094.187 1.25.938 2.016 3.235 2.016 5.141v1c0 1.922-.766 4.219-2.016 5.14-.015.032-.094.157-.094.204 0 .047.25.25.313.25A.774.774 0 001 2.906c1.313-1 2.64-3.484 2.64-5.531zm0 0"/></svg><svg overflow="visible" x="82.378" y="20.85"><path d="M4.516-1.61c0-.656-.75-1.468-1.672-1.656v.313c.89-.313 1.406-1.094 1.406-1.61 0-.656-.969-1.312-1.89-1.312-.938 0-1.86.61-1.86 1.281 0 .282.39.594.64.594.266 0 .641-.344.641-.578 0-.25-.375-.578-.297-.578.094-.11.532-.157.844-.157.375 0 .688.016.688.75 0 .344-.047.625-.266.891-.281.313-.36.281-.781.313-.203.015-.235.015-.266.015l.14.281s-.437-.109-.437-.015c0 .125.282.281.422.281h.453c.656 0 .922.297.922 1.188 0 1.046-.39 1.187-.89 1.187-.329 0-.922-.031-1.094-.266.078-.015.375-.453.375-.625 0-.265-.407-.625-.672-.625-.235 0-.672.297-.672.641C.25-.5 1.328.172 2.344.172 3.5.172 4.516-.766 4.516-1.61zm0 0"/></svg><svg overflow="visible" x="91.535" y="25.19" fill="#00f"><path d="M8.828-3.125c0-.125-.312-.36-.437-.36H.906c-.125 0-.437.235-.437.36 0 .14.312.375.437.375h7.485c.125 0 .437-.234.437-.375zm0 0"/></svg><g fill="#00f"><svg overflow="visible" x="104.722" y="25.19"><path d="M5.828-2.11v-.5H4.625v-5.296c0-.25-.188-.453-.375-.453-.11 0-.297.046-.39.187L.124-2.469v.5h3.188v.907c0 .421.171.421-.704.421h-.453v.672C2.844-.03 3.47-.03 3.97-.03s1.14 0 1.812.062V-.64h-.437c-.89 0-.719 0-.719-.421v-.907h1.203zm-2.25-.5H.953L3.72-6.843l-.344-.093v4.328zm0 0"/></svg><svg overflow="visible" x="110.699" y="25.19"><path d="M5.688-3.953c0-.953-.063-1.922-.47-2.797-.562-1.156-1.734-1.469-2.234-1.469-.718 0-1.796.438-2.28 1.547-.376.828-.438 1.766-.438 2.719 0 .89.109 2.062.593 2.969.516.968 1.532 1.25 2.11 1.25.656 0 1.75-.391 2.281-1.516.375-.828.438-1.766.438-2.703zm-1.391-.14c0 .89 0 1.702-.125 2.468C4-.485 3.516-.265 2.969-.265 2.516-.266 2-.438 1.78-1.579c-.125-.719-.125-1.813-.125-2.516 0-.765 0-1.562.094-2.203.219-1.422.922-1.406 1.219-1.406.406 0 .984.094 1.219 1.266.109.671.109 1.578.109 2.343zm0 0"/></svg></g><svg overflow="visible" x="119.345" y="25.19"><path d="M2.484-3.125c0-.344-.468-.766-.828-.766-.343 0-.828.422-.828.766 0 .36.485.766.828.766.36 0 .828-.407.828-.766zm0 0"/></svg><svg overflow="visible" x="125.323" y="25.19"><path d="M5.656-2.172c0-.984-.953-2.047-2.187-2.297v.266c.984-.328 1.86-1.297 1.86-2.234 0-.985-1.235-1.782-2.391-1.782-1.204 0-2.313.844-2.313 1.75 0 .39.469.75.813.75.375 0 .796-.39.796-.734 0-.594-.75-.734-.656-.734.234-.36.89-.47 1.313-.47.484 0 .953.126.953 1.204 0 .14.031.734-.281 1.266-.36.578-.626.578-.922.578a4.76 4.76 0 01-.47.046c-.093.016-.374.157-.374.266 0 .14.281.266.484.266h.531c.985 0 1.22.687 1.22 1.86 0 1.624-.626 1.843-1.157 1.843-.516 0-1.266-.172-1.531-.61.125.016.687-.375.687-.828 0-.437-.515-.796-.86-.796-.28 0-.874.296-.874.812C.297-.656 1.609.266 2.922.266c1.453 0 2.734-1.22 2.734-2.438zm0 0"/></svg><svg overflow="visible" x="133.954" y="25.19"><path d="M2.484-3.125c0-.344-.468-.766-.828-.766-.343 0-.828.422-.828.766 0 .36.485.766.828.766.36 0 .828-.407.828-.766zm0 0"/></svg><svg overflow="visible" x="139.932" y="25.19"><path d="M4.156 2.719c0-.047-.078-.172-.11-.203-1.234-.922-2-3.22-2-5.141v-1c0-1.906.767-4.203 2-5.14a.457.457 0 00.11-.188c0-.063-.25-.25-.312-.25a1.01 1.01 0 00-.203.062C2.312-8.156 1-5.67 1-3.625v1C1-.578 2.313 1.906 3.64 2.906c.016.016.188.063.204.063.062 0 .312-.203.312-.25zm0 0"/></svg><svg overflow="visible" x="144.582" y="25.19"><path d="M5.203-.125v-.516h-.578c-1.078 0-.922 0-.922-.437v-6.703c0-.282-.187-.438-.578-.438-.766.797-1.672.766-2.266.766v.625c.438 0 1.282-.031 1.563-.172v5.922c0 .437.172.437-.906.437H.937v.672C1.547-.03 2.595-.03 3.079-.03c.469 0 1.516 0 2.125.062zm0 0"/></svg><svg overflow="visible" x="153.226" y="25.19"><path d="M8.828-3.125c0-.125-.312-.36-.437-.36H.906c-.125 0-.437.235-.437.36 0 .14.312.375.437.375h7.485c.125 0 .437-.234.437-.375zm0 0"/></svg><svg overflow="visible" x="165.181" y="25.19"><path d="M4.14-5.156c0-.125-.312-.266-.53-.266H2.78c.39-1.562.453-1.797.453-1.875 0-.203-.328-.453-.53-.453-.032 0-.579.14-.688.563l-.422 1.765H.64c-.25 0-.563.14-.563.36 0 .156.297.28.531.28h.813C.594-1.515.547-1.311.547-1.093c0 .64.656 1.219 1.312 1.219 1.22 0 2.079-1.875 2.079-1.969 0-.11-.282-.25-.329-.25-.109 0-.328.172-.375.297C2.72-.547 2.281-.39 1.875-.39c-.25 0-.172-.03-.172-.421 0-.282.016-.375.063-.579l.859-3.39h.953c.25 0 .563-.125.563-.375zm0 0"/></svg><svg overflow="visible" x="169.497" y="25.19"><path d="M3.64-2.625v-1c0-2.047-1.328-4.531-2.64-5.516a.774.774 0 00-.203-.062c-.063 0-.313.187-.313.25 0 .031.079.172.094.187 1.25.938 2.016 3.235 2.016 5.141v1c0 1.922-.766 4.219-2.016 5.14-.015.032-.094.157-.094.204 0 .047.25.25.313.25A.774.774 0 001 2.906c1.313-1 2.64-3.484 2.64-5.531zm0 0"/></svg><svg overflow="visible" x="174.151" y="20.85"><path d="M4.234-1.844H3.75c-.047.344-.063.735-.172.813-.062.047-.562 0-.687 0H1.812c.563-.5.86-.735 1.36-1.125.625-.5 1.265-1.14 1.265-1.938 0-1-1.093-1.781-2.171-1.781-1.032 0-1.954.89-1.954 1.656 0 .422.579.625.657.625.203 0 .656-.297.656-.61 0-.14-.266-.593-.422-.593.188-.437.547-.469.938-.469.843 0 1.062.5 1.062 1.172 0 .735-.453 1.203-.719 1.5l-2.03 2C.374-.516.311-.39.311 0h3.844l.313-1.844zm0 0"/></svg><svg overflow="visible" x="182.067" y="25.19"><path d="M2.484-3.125c0-.344-.468-.766-.828-.766-.343 0-.828.422-.828.766 0 .36.485.766.828.766.36 0 .828-.407.828-.766zm0 0"/></svg><svg overflow="visible" x="188.045" y="25.19"><path d="M4.14-5.156c0-.125-.312-.266-.53-.266H2.78c.39-1.562.453-1.797.453-1.875 0-.203-.328-.453-.53-.453-.032 0-.579.14-.688.563l-.422 1.765H.64c-.25 0-.563.14-.563.36 0 .156.297.28.531.28h.813C.594-1.515.547-1.311.547-1.093c0 .64.656 1.219 1.312 1.219 1.22 0 2.079-1.875 2.079-1.969 0-.11-.282-.25-.329-.25-.109 0-.328.172-.375.297C2.72-.547 2.281-.39 1.875-.39c-.25 0-.172-.03-.172-.421 0-.282.016-.375.063-.579l.859-3.39h.953c.25 0 .563-.125.563-.375zm0 0"/></svg><svg overflow="visible" x="196.261" y="25.19" fill="#00f"><path d="M8.828-3.125c0-.125-.312-.36-.437-.36H5.078v-3.374c0-.141-.297-.375-.422-.375-.14 0-.453.234-.453.375v3.375H.906c-.125 0-.437.234-.437.359 0 .14.312.375.437.375h3.297V.625c0 .125.313.36.453.36.125 0 .422-.235.422-.36V-2.75h3.313c.125 0 .437-.234.437-.375zm0 0"/></svg><g fill="#00f"><svg overflow="visible" x="209.46" y="25.19"><path d="M5.203-.125v-.516h-.578c-1.078 0-.922 0-.922-.437v-6.703c0-.282-.187-.438-.578-.438-.766.797-1.672.766-2.266.766v.625c.438 0 1.282-.031 1.563-.172v5.922c0 .437.172.437-.906.437H.937v.672C1.547-.03 2.595-.03 3.079-.03c.469 0 1.516 0 2.125.062zm0 0"/></svg><svg overflow="visible" x="215.437" y="25.19"><path d="M5.828-2.11v-.5H4.625v-5.296c0-.25-.188-.453-.375-.453-.11 0-.297.046-.39.187L.124-2.469v.5h3.188v.907c0 .421.171.421-.704.421h-.453v.672C2.844-.03 3.47-.03 3.97-.03s1.14 0 1.812.062V-.64h-.437c-.89 0-.719 0-.719-.421v-.907h1.203zm-2.25-.5H.953L3.72-6.843l-.344-.093v4.328zm0 0"/></svg><svg overflow="visible" x="221.415" y="25.19"><path d="M5.688-3.953c0-.953-.063-1.922-.47-2.797-.562-1.156-1.734-1.469-2.234-1.469-.718 0-1.796.438-2.28 1.547-.376.828-.438 1.766-.438 2.719 0 .89.109 2.062.593 2.969.516.968 1.532 1.25 2.11 1.25.656 0 1.75-.391 2.281-1.516.375-.828.438-1.766.438-2.703zm-1.391-.14c0 .89 0 1.702-.125 2.468C4-.485 3.516-.265 2.969-.265 2.516-.266 2-.438 1.78-1.579c-.125-.719-.125-1.813-.125-2.516 0-.765 0-1.562.094-2.203.219-1.422.922-1.406 1.219-1.406.406 0 .984.094 1.219 1.266.109.671.109 1.578.109 2.343zm0 0"/></svg></g><svg overflow="visible" x="230.049" y="25.19"><path d="M2.484-3.125c0-.344-.468-.766-.828-.766-.343 0-.828.422-.828.766 0 .36.485.766.828.766.36 0 .828-.407.828-.766zm0 0"/></svg><svg overflow="visible" x="236.027" y="25.19"><path d="M5.656-2.172c0-.984-.953-2.047-2.187-2.297v.266c.984-.328 1.86-1.297 1.86-2.234 0-.985-1.235-1.782-2.391-1.782-1.204 0-2.313.844-2.313 1.75 0 .39.469.75.813.75.375 0 .796-.39.796-.734 0-.594-.75-.734-.656-.734.234-.36.89-.47 1.313-.47.484 0 .953.126.953 1.204 0 .14.031.734-.281 1.266-.36.578-.626.578-.922.578a4.76 4.76 0 01-.47.046c-.093.016-.374.157-.374.266 0 .14.281.266.484.266h.531c.985 0 1.22.687 1.22 1.86 0 1.624-.626 1.843-1.157 1.843-.516 0-1.266-.172-1.531-.61.125.016.687-.375.687-.828 0-.437-.515-.796-.86-.796-.28 0-.874.296-.874.812C.297-.656 1.609.266 2.922.266c1.453 0 2.734-1.22 2.734-2.438zm0 0"/></svg><svg overflow="visible" x="244.658" y="25.19"><path d="M2.484-3.125c0-.344-.468-.766-.828-.766-.343 0-.828.422-.828.766 0 .36.485.766.828.766.36 0 .828-.407.828-.766zm0 0"/></svg><svg overflow="visible" x="250.636" y="25.19"><path d="M4.156 2.719c0-.047-.078-.172-.11-.203-1.234-.922-2-3.22-2-5.141v-1c0-1.906.767-4.203 2-5.14a.457.457 0 00.11-.188c0-.063-.25-.25-.312-.25a1.01 1.01 0 00-.203.062C2.312-8.156 1-5.67 1-3.625v1C1-.578 2.313 1.906 3.64 2.906c.016.016.188.063.204.063.062 0 .312-.203.312-.25zm0 0"/></svg><svg overflow="visible" x="255.286" y="25.19"><path d="M5.203-.125v-.516h-.578c-1.078 0-.922 0-.922-.437v-6.703c0-.282-.187-.438-.578-.438-.766.797-1.672.766-2.266.766v.625c.438 0 1.282-.031 1.563-.172v5.922c0 .437.172.437-.906.437H.937v.672C1.547-.03 2.595-.03 3.079-.03c.469 0 1.516 0 2.125.062zm0 0"/></svg><g><svg overflow="visible" x="263.93" y="25.19"><path d="M8.828-3.125c0-.125-.312-.36-.437-.36H.906c-.125 0-.437.235-.437.36 0 .14.312.375.437.375h7.485c.125 0 .437-.234.437-.375zm0 0"/></svg></g><g><svg overflow="visible" x="275.885" y="25.19"><path d="M4.14-5.156c0-.125-.312-.266-.53-.266H2.78c.39-1.562.453-1.797.453-1.875 0-.203-.328-.453-.53-.453-.032 0-.579.14-.688.563l-.422 1.765H.64c-.25 0-.563.14-.563.36 0 .156.297.28.531.28h.813C.594-1.515.547-1.311.547-1.093c0 .64.656 1.219 1.312 1.219 1.22 0 2.079-1.875 2.079-1.969 0-.11-.282-.25-.329-.25-.109 0-.328.172-.375.297C2.72-.547 2.281-.39 1.875-.39c-.25 0-.172-.03-.172-.421 0-.282.016-.375.063-.579l.859-3.39h.953c.25 0 .563-.125.563-.375zm0 0"/></svg><svg overflow="visible" x="280.201" y="25.19"><path d="M3.64-2.625v-1c0-2.047-1.328-4.531-2.64-5.516a.774.774 0 00-.203-.062c-.063 0-.313.187-.313.25 0 .031.079.172.094.187 1.25.938 2.016 3.235 2.016 5.141v1c0 1.922-.766 4.219-2.016 5.14-.015.032-.094.157-.094.204 0 .047.25.25.313.25A.774.774 0 001 2.906c1.313-1 2.64-3.484 2.64-5.531zm0 0"/></svg></g><g><svg overflow="visible" x="287.506" y="25.19"><path d="M2.484-3.125c0-.344-.468-.766-.828-.766-.343 0-.828.422-.828.766 0 .36.485.766.828.766.36 0 .828-.407.828-.766zm0 0"/></svg></g><g><svg overflow="visible" x="293.483" y="25.19"><path d="M4.14-5.156c0-.125-.312-.266-.53-.266H2.78c.39-1.562.453-1.797.453-1.875 0-.203-.328-.453-.53-.453-.032 0-.579.14-.688.563l-.422 1.765H.64c-.25 0-.563.14-.563.36 0 .156.297.28.531.28h.813C.594-1.515.547-1.311.547-1.093c0 .64.656 1.219 1.312 1.219 1.22 0 2.079-1.875 2.079-1.969 0-.11-.282-.25-.329-.25-.109 0-.328.172-.375.297C2.72-.547 2.281-.39 1.875-.39c-.25 0-.172-.03-.172-.421 0-.282.016-.375.063-.579l.859-3.39h.953c.25 0 .563-.125.563-.375zm0 0"/></svg></g><g><svg overflow="visible" x="297.808" y="20.85"><path d="M4.234-1.844H3.75c-.047.344-.063.735-.172.813-.062.047-.562 0-.687 0H1.812c.563-.5.86-.735 1.36-1.125.625-.5 1.265-1.14 1.265-1.938 0-1-1.093-1.781-2.171-1.781-1.032 0-1.954.89-1.954 1.656 0 .422.579.625.657.625.203 0 .656-.297.656-.61 0-.14-.266-.593-.422-.593.188-.437.547-.469.938-.469.843 0 1.062.5 1.062 1.172 0 .735-.453 1.203-.719 1.5l-2.03 2C.374-.516.311-.39.311 0h3.844l.313-1.844zm0 0"/></svg></g><g fill="#00f"><svg overflow="visible" x="306.965" y="25.19"><path d="M8.828-3.125c0-.125-.312-.36-.437-.36H5.078v-3.374c0-.141-.297-.375-.422-.375-.14 0-.453.234-.453.375v3.375H.906c-.125 0-.437.234-.437.359 0 .14.312.375.437.375h3.297V.625c0 .125.313.36.453.36.125 0 .422-.235.422-.36V-2.75h3.313c.125 0 .437-.234.437-.375zm0 0"/></svg></g><g fill="#00f"><svg overflow="visible" x="320.164" y="25.19"><path d="M5.688-3.953c0-.953-.063-1.922-.47-2.797-.562-1.156-1.734-1.469-2.234-1.469-.718 0-1.796.438-2.28 1.547-.376.828-.438 1.766-.438 2.719 0 .89.109 2.062.593 2.969.516.968 1.532 1.25 2.11 1.25.656 0 1.75-.391 2.281-1.516.375-.828.438-1.766.438-2.703zm-1.391-.14c0 .89 0 1.702-.125 2.468C4-.485 3.516-.265 2.969-.265 2.516-.266 2-.438 1.78-1.579c-.125-.719-.125-1.813-.125-2.516 0-.765 0-1.562.094-2.203.219-1.422.922-1.406 1.219-1.406.406 0 .984.094 1.219 1.266.109.671.109 1.578.109 2.343zm0 0"/></svg></g><g><svg overflow="visible" x="328.798" y="25.19"><path d="M2.484-3.125c0-.344-.468-.766-.828-.766-.343 0-.828.422-.828.766 0 .36.485.766.828.766.36 0 .828-.407.828-.766zm0 0"/></svg></g><g><svg overflow="visible" x="334.776" y="25.19"><path d="M4.14-5.156c0-.125-.312-.266-.53-.266H2.78c.39-1.562.453-1.797.453-1.875 0-.203-.328-.453-.53-.453-.032 0-.579.14-.688.563l-.422 1.765H.64c-.25 0-.563.14-.563.36 0 .156.297.28.531.28h.813C.594-1.515.547-1.311.547-1.093c0 .64.656 1.219 1.312 1.219 1.22 0 2.079-1.875 2.079-1.969 0-.11-.282-.25-.329-.25-.109 0-.328.172-.375.297C2.72-.547 2.281-.39 1.875-.39c-.25 0-.172-.03-.172-.421 0-.282.016-.375.063-.579l.859-3.39h.953c.25 0 .563-.125.563-.375zm0 0"/></svg></g><g><svg overflow="visible" x="339.094" y="20.85"><path d="M4.516-1.61c0-.656-.75-1.468-1.672-1.656v.313c.89-.313 1.406-1.094 1.406-1.61 0-.656-.969-1.312-1.89-1.312-.938 0-1.86.61-1.86 1.281 0 .282.39.594.64.594.266 0 .641-.344.641-.578 0-.25-.375-.578-.297-.578.094-.11.532-.157.844-.157.375 0 .688.016.688.75 0 .344-.047.625-.266.891-.281.313-.36.281-.781.313-.203.015-.235.015-.266.015l.14.281s-.437-.109-.437-.015c0 .125.282.281.422.281h.453c.656 0 .922.297.922 1.188 0 1.046-.39 1.187-.89 1.187-.329 0-.922-.031-1.094-.266.078-.015.375-.453.375-.625 0-.265-.407-.625-.672-.625-.235 0-.672.297-.672.641C.25-.5 1.328.172 2.344.172 3.5.172 4.516-.766 4.516-1.61zm0 0"/></svg></g></svg>