<svg xmlns="http://www.w3.org/2000/svg" xmlns:xlink="http://www.w3.org/1999/xlink" width="255px" height="41px" viewBox="0 0 191 31"><svg overflow="visible" x=".461" y="18.624"><path d="M5.406-4.64c0-.423-.578-.907-1.187-.907-.782 0-1.453.625-1.672.953l.328.094c-.094-.531-.719-1.047-1.266-1.047-.562 0-.921.5-1.03.719C.358-4.422.14-3.61.14-3.578c0 .125.484.219.484.219l-.14.03c.124 0 .328-.14.406-.405.203-.844.25-1.282.671-1.282.204 0 .172-.046.172.407 0 .265-.03.39-.187 1.015L.844-.844c-.031.188-.11.469-.11.516 0 .219.375.453.563.453.14 0 .547-.219.656-.547-.062.14.406-1.594.453-1.797l.375-1.562c.047-.156.328-.625.61-.875.093-.094.312-.36.828-.36.312 0 .64.11.64.11l-.14-.235c-.36.063-.828.485-.828.797 0 .188.343.547.656.547.328 0 .86-.406.86-.844zm0 0"/></svg><svg overflow="visible" x="6.008" y="18.624"><path d="M6.14-1.844c0-.11-.296-.25-.327-.25-.125 0-.344.188-.375.344-.204.781-.22 1.36-.704 1.36-.328 0-.171-.188-.171-.422 0-.266.03-.36.156-.891l.265-1.063.438-1.687c.078-.328.078-.36.078-.406 0-.204-.344-.454-.547-.454-.281 0-.656.407-.703.657h.406c-.218-.438-.765-.89-1.297-.89-1.406 0-3.078 1.89-3.078 3.64 0 1.125.86 2.031 1.781 2.031.25 0 .97-.078 1.422-.61.032.094.657.61 1.22.61.421 0 .827-.297 1.015-.688l.062-.093c.203-.438.297-1.094.297-1.094zm-2.03-2.25c0 .063-.016.14-.032.203l-.594 2.344c-.062.203 0 .14-.187.344-.531.656-.875.812-1.203.812-.594 0-.578-.53-.578-1 0-.593.328-1.968.593-2.515.375-.703.782-1.11 1.266-1.11.766 0 .734.844.734.922zm0 0"/></svg><svg overflow="visible" x="12.333" y="18.624"><path d="M4.14-5.156c0-.125-.312-.266-.53-.266H2.78c.39-1.562.453-1.797.453-1.875 0-.203-.328-.453-.53-.453-.032 0-.579.14-.688.563l-.422 1.765H.64c-.25 0-.563.14-.563.36 0 .156.297.28.531.28h.813C.594-1.515.547-1.311.547-1.093c0 .64.656 1.219 1.312 1.219 1.22 0 2.079-1.875 2.079-1.969 0-.11-.282-.25-.329-.25-.109 0-.328.172-.375.297C2.72-.547 2.281-.39 1.875-.39c-.25 0-.172-.03-.172-.421 0-.282.016-.375.063-.579l.859-3.39h.953c.25 0 .563-.125.563-.375zm0 0"/></svg><svg overflow="visible" x="16.648" y="18.624"><path d="M3.578-7.61c0-.234-.344-.546-.625-.546-.328 0-.844.437-.844.75 0 .234.36.562.657.562.265 0 .812-.406.812-.765zm.11 5.766c0-.11-.297-.25-.329-.25-.125 0-.328.172-.39.344-.203.766-.406 1.36-1.016 1.36-.203 0-.094.015-.094-.266 0-.297.079-.469.36-1.203l.453-1.25c.156-.344.156-.375.265-.688.094-.25.157-.406.157-.64 0-.532-.578-1.11-1.172-1.11C.797-5.547.14-3.687.14-3.578c0 .125.484.219.484.219l-.14.03c.124 0 .328-.155.39-.343.313-1.125.61-1.344 1.016-1.344.093 0 .093-.14.093.25 0 .25-.078.5-.125.625-.109.297-.64 1.688-.828 2.204-.125.312-.281.703-.281.953 0 .562.61 1.109 1.188 1.109 1.125 0 1.75-1.86 1.75-1.969zm0 0"/></svg><svg overflow="visible" x="20.773" y="18.624"><path d="M5.797-3.39c0-1.25-1.031-2.157-2.11-2.157-1.593 0-3.406 1.828-3.406 3.531C.281-.844 1.297.125 2.406.125c1.594 0 3.39-1.781 3.39-3.516zM4.53-3.86c0 .47-.187 1.626-.64 2.407-.407.687-.922 1.062-1.47 1.062-.515 0-.858-.25-.858-1.171 0-.594.25-1.782.64-2.391.594-.922 1.14-1.063 1.485-1.063.687 0 .843.438.843 1.157zm0 0"/></svg><svg overflow="visible" x="26.715" y="18.624"><path d="M4.156 2.719c0-.047-.078-.172-.11-.203-1.234-.922-2-3.22-2-5.141v-1c0-1.906.767-4.203 2-5.14a.457.457 0 00.11-.188c0-.063-.25-.25-.312-.25a1.01 1.01 0 00-.203.062C2.312-8.156 1-5.67 1-3.625v1C1-.578 2.313 1.906 3.64 2.906c.016.016.188.063.204.063.062 0 .312-.203.312-.25zm0 0"/></svg><svg overflow="visible" x="31.365" y="18.624"><path d="M4.14-5.156c0-.125-.312-.266-.53-.266H2.78c.39-1.562.453-1.797.453-1.875 0-.203-.328-.453-.53-.453-.032 0-.579.14-.688.563l-.422 1.765H.64c-.25 0-.563.14-.563.36 0 .156.297.28.531.28h.813C.594-1.515.547-1.311.547-1.093c0 .64.656 1.219 1.312 1.219 1.22 0 2.079-1.875 2.079-1.969 0-.11-.282-.25-.329-.25-.109 0-.328.172-.375.297C2.72-.547 2.281-.39 1.875-.39c-.25 0-.172-.03-.172-.421 0-.282.016-.375.063-.579l.859-3.39h.953c.25 0 .563-.125.563-.375zm0 0"/></svg><svg overflow="visible" x="35.681" y="18.624"><path d="M3.64-2.625v-1c0-2.047-1.328-4.531-2.64-5.516a.774.774 0 00-.203-.062c-.063 0-.313.187-.313.25 0 .031.079.172.094.187 1.25.938 2.016 3.235 2.016 5.141v1c0 1.922-.766 4.219-2.016 5.14-.015.032-.094.157-.094.204 0 .047.25.25.313.25A.774.774 0 001 2.906c1.313-1 2.64-3.484 2.64-5.531zm0 0"/></svg><svg overflow="visible" x="40.332" y="21.577"><path d="M4.484-3.734c0-.047-.234-.282-.312-.282-.078 0-.594.344-.594.344.047.094-.375-.344-.906-.344-1.078 0-2.375 1.344-2.375 2.547 0 .813.766 1.547 1.484 1.547.469 0 1-.344 1.188-.5l-.344-.11-.313 1.22c-.109.453.094.312-.421.312-.11 0-.438.172-.438.344 0 .062.25.281.344.281.266 0 .578-.031.86-.031.296 0 .64.031.905.031.079 0 .376-.188.376-.344 0-.11-.329-.281-.422-.281-.188 0-.204.172-.204.063 0-.032 0-.047.032-.188l1.125-4.484c.015-.032.015-.079.015-.125zm-1.28.843c0 .047-.017.094-.017.125l-.406 1.547c-.031.14.031.047-.078.188-.328.39-.578.562-.906.562-.313 0-.39-.062-.39-.656 0-.438.171-1.25.359-1.578.39-.672.671-.75.906-.75.594 0 .531.484.531.562zm0 0"/></svg><svg overflow="visible" x="44.834" y="21.577"><path d="M5.469-1.36c0-.109-.328-.265-.36-.265-.109 0-.328.188-.39.422-.094.39-.047.734-.39.734-.22 0-.079-.031-.079-.25 0-.14.078-.453.125-.656l.188-.766.187-.734c.063-.219.156-.578.156-.625 0-.172-.343-.422-.5-.422-.297 0-.578.39-.64.656l-.438 1.75c-.031.172-.047.375-.062.391-.172.25-.344.656-.875.656-.579 0-.36-.39-.36-.531 0-.5.235-1.094.469-1.703.063-.172.11-.297.11-.422 0-.438-.579-.89-1-.89-.844 0-1.423 1.312-1.423 1.437 0 .11.329.281.344.281.125 0 .344-.203.36-.297.203-.687.359-.86.687-.86.14 0 0-.077 0 .126s-.062.375-.14.562C.984-1.609.984-1.359.984-1.14c0 .141.047.641.36.922.25.188.718.297 1.015.297.532 0 .954-.328 1-.36.063.188.844.36.938.36.281 0 .64-.203.797-.484a4.99 4.99 0 00.375-.953zm0 0"/></svg><svg overflow="visible" x="50.483" y="21.577"><path d="M4.984-1.36c0-.109-.312-.265-.343-.265-.11 0-.329.188-.391.422-.094.406-.047.734-.39.734-.22 0-.079-.031-.079-.25 0-.14.078-.453.125-.656l.188-.766c.078-.312.093-.359.172-.625.046-.218.14-.625.14-.656 0-.187-.36-.437-.484-.437-.14 0-.547.265-.594.5l.344-.11c-.172-.281-.594-.547-1-.547-1.078 0-2.375 1.344-2.375 2.547 0 .813.766 1.547 1.484 1.547.453 0 .985-.297 1.078-.39.063.156.75.39.97.39.296 0 .655-.219.796-.484.188-.328.36-.922.36-.953zm-1.78-1.53c0 .03-.017.093-.017.124l-.406 1.563c-.047.234-.172.297-.36.453-.077.063-.265.281-.624.281-.313 0-.39-.062-.39-.656 0-.438.171-1.25.359-1.578.39-.672.671-.75.906-.75.594 0 .531.469.531.562zm0 0"/></svg><svg overflow="visible" x="55.672" y="21.577"><path d="M5.031-5.86c0-.03-.25-.265-.343-.265-.172 0-.875.063-1.079.078-.062.016-.39.172-.39.36 0 .109.328.265.422.265.406 0 .187-.094.187-.031 0 .062-.015.11-.031.187l-.469 1.907.344-.11c-.172-.281-.594-.547-1-.547-1.078 0-2.375 1.344-2.375 2.547 0 .813.766 1.547 1.484 1.547.453 0 .985-.297 1.078-.39.063.156.75.39.97.39.296 0 .655-.219.796-.484.188-.328.36-.922.36-.953 0-.11-.313-.266-.344-.266-.11 0-.329.188-.391.422-.094.406-.047.734-.39.734-.22 0-.079-.031-.079-.25 0-.156.016-.234.047-.344L4.984-5.75c-.046.125-.03.016-.03.016zM3.203-2.89c0 .03-.015.093-.015.124L2.78-1.203c-.047.234-.172.297-.36.453-.077.063-.265.281-.624.281-.313 0-.39-.062-.39-.656 0-.438.171-1.25.359-1.578.39-.672.671-.75.906-.75.594 0 .531.469.531.562zm0 0"/></svg><svg overflow="visible" x="60.718" y="21.577"><path d="M4.5-3.234c0-.438-.672-.782-1.094-.782-.437 0-.969.235-1.094.375-.03-.125-.75-.375-.953-.375-.312 0-.671.25-.812.485-.188.328-.36.922-.36.953 0 .11.329.281.344.281.125 0 .344-.187.39-.422.141-.5.079-.734.407-.734.219 0 .078.015.078.25 0 .156-.078.469-.14.687l-.188.75L.812-.687c-.03.109-.078.312-.078.343 0 .188.36.422.485.422s.5-.234.578-.39c.016-.063.11-.422.156-.641l.219-.89c.015-.063.203-.813.219-.86.015-.063.203-.36.468-.563.094-.062.172-.187.532-.187.078 0 .14-.047.062-.094.125-.031-.172.36-.172.5 0 .188.344.469.531.469.204 0 .688-.313.688-.656zm0 0"/></svg><svg overflow="visible" x="65.237" y="21.577"><path d="M4.984-1.36c0-.109-.312-.265-.343-.265-.11 0-.329.188-.391.422-.094.406-.047.734-.39.734-.22 0-.079-.031-.079-.25 0-.14.078-.453.125-.656l.188-.766c.078-.312.093-.359.172-.625.046-.218.14-.625.14-.656 0-.187-.36-.437-.484-.437-.14 0-.547.265-.594.5l.344-.11c-.172-.281-.594-.547-1-.547-1.078 0-2.375 1.344-2.375 2.547 0 .813.766 1.547 1.484 1.547.453 0 .985-.297 1.078-.39.063.156.75.39.97.39.296 0 .655-.219.796-.484.188-.328.36-.922.36-.953zm-1.78-1.53c0 .03-.017.093-.017.124l-.406 1.563c-.047.234-.172.297-.36.453-.077.063-.265.281-.624.281-.313 0-.39-.062-.39-.656 0-.438.171-1.25.359-1.578.39-.672.671-.75.906-.75.594 0 .531.469.531.562zm0 0"/></svg><svg overflow="visible" x="70.425" y="21.577"><path d="M3.39-3.656c0-.11-.312-.266-.453-.266h-.562l.281-1.094c0-.03.031-.078.031-.109 0-.156-.328-.422-.5-.422-.218 0-.546.297-.609.516-.047.203.063-.188-.281 1.11H.625c-.172 0-.484.155-.484.343 0 .11.312.265.468.265h.532L.687-1.484c-.046.203-.125.5-.125.609 0 .5.641.953 1.11.953.937 0 1.672-1.328 1.672-1.437 0-.11-.328-.266-.344-.266-.11 0-.313.172-.39.313-.235.53-.454.843-.907.843-.172 0-.094.047-.094-.25 0-.078.047-.265.063-.344l.562-2.25h.688c.156 0 .469-.156.469-.343zm0 0"/></svg><svg overflow="visible" x="74.041" y="21.577"><path d="M2.922-5.39c0-.141-.313-.485-.547-.485-.219 0-.672.375-.672.625 0 .14.313.469.547.469.234 0 .672-.39.672-.61zm.219 4.03c0-.109-.313-.265-.344-.265-.11 0-.328.203-.375.297-.188.672-.344.86-.672.86-.172 0 0 .046 0-.141 0-.188.063-.344.14-.532l.266-.671.406-1.063a.794.794 0 00.047-.266c0-.39-.546-.875-1-.875-.828 0-1.421 1.297-1.421 1.438 0 .11.328.281.343.281.125 0 .344-.203.36-.297.218-.719.375-.86.687-.86.14 0 0-.093 0 .126 0 .203-.047.328-.25.844L.797-1.141c-.031.11-.078.22-.078.36 0 .39.547.86 1 .86.843 0 1.422-1.313 1.422-1.438zm0 0"/></svg><svg overflow="visible" x="77.422" y="21.577"><path d="M4.36-1.016c0-.062-.298-.312-.36-.312a.676.676 0 00-.281.14c-.656.766-1.485.72-1.64.72-.595 0-.657-.25-.657-.766 0-.25.047-1.047.484-1.625.328-.407.61-.594 1.032-.594.124 0 .374-.031.39-.016.031 0-.297.39-.297.578 0 .22.39.47.531.47.188 0 .688-.298.688-.704 0-.563-.86-.89-1.313-.89-1.25 0-2.624 1.312-2.624 2.484 0 .718.703 1.61 1.75 1.61 1.421 0 2.296-.985 2.296-1.095zm0 0"/></svg><svg overflow="visible" x="85.626" y="18.624"><path d="M8.828-4.281c0-.125-.312-.375-.437-.375H.906c-.125 0-.437.25-.437.375 0 .14.312.375.437.375h7.485c.125 0 .437-.235.437-.375zm0 2.328c0-.14-.312-.375-.437-.375H.906c-.125 0-.437.234-.437.375 0 .125.312.36.437.36h7.485c.125 0 .437-.235.437-.36zm0 0"/></svg><svg overflow="visible" x="98.239" y="18.624"><path d="M2.25 11.453v-29.14c0-.22-.375-.516-.594-.516-.203 0-.578.297-.578.515v29.141c0 .219.375.516.578.516.219 0 .594-.297.594-.516zm0 0"/></svg><svg overflow="visible" x="102.767" y="10.529"><path d="M4.14-5.156c0-.125-.312-.266-.53-.266H2.78c.39-1.562.453-1.797.453-1.875 0-.203-.328-.453-.53-.453-.032 0-.579.14-.688.563l-.422 1.765H.64c-.25 0-.563.14-.563.36 0 .156.297.28.531.28h.813C.594-1.515.547-1.311.547-1.093c0 .64.656 1.219 1.312 1.219 1.22 0 2.079-1.875 2.079-1.969 0-.11-.282-.25-.329-.25-.109 0-.328.172-.375.297C2.72-.547 2.281-.39 1.875-.39c-.25 0-.172-.03-.172-.421 0-.282.016-.375.063-.579l.859-3.39h.953c.25 0 .563-.125.563-.375zm0 0"/></svg><svg overflow="visible" x="107.083" y="6.189"><path d="M4.234-1.844H3.75c-.047.344-.063.735-.172.813-.062.047-.562 0-.687 0H1.812c.563-.5.86-.735 1.36-1.125.625-.5 1.265-1.14 1.265-1.938 0-1-1.093-1.781-2.171-1.781-1.032 0-1.954.89-1.954 1.656 0 .422.579.625.657.625.203 0 .656-.297.656-.61 0-.14-.266-.593-.422-.593.188-.437.547-.469.938-.469.843 0 1.062.5 1.062 1.172 0 .735-.453 1.203-.719 1.5l-2.03 2C.374-.516.311-.39.311 0h3.844l.313-1.844zm0 0"/></svg><svg overflow="visible" x="115" y="10.529"><path d="M8.828-3.125c0-.125-.312-.36-.437-.36H5.078v-3.374c0-.141-.297-.375-.422-.375-.14 0-.453.234-.453.375v3.375H.906c-.125 0-.437.234-.437.359 0 .14.312.375.437.375h3.297V.625c0 .125.313.36.453.36.125 0 .422-.235.422-.36V-2.75h3.313c.125 0 .437-.234.437-.375zm0 0"/></svg><svg overflow="visible" x="126.955" y="10.529"><path d="M4.156 2.719c0-.047-.078-.172-.11-.203-1.234-.922-2-3.22-2-5.141v-1c0-1.906.767-4.203 2-5.14a.457.457 0 00.11-.188c0-.063-.25-.25-.312-.25a1.01 1.01 0 00-.203.062C2.312-8.156 1-5.67 1-3.625v1C1-.578 2.313 1.906 3.64 2.906c.016.016.188.063.204.063.062 0 .312-.203.312-.25zm0 0"/></svg><svg overflow="visible" x="131.606" y="10.529"><path d="M5.203-.125v-.516h-.578c-1.078 0-.922 0-.922-.437v-6.703c0-.282-.187-.438-.578-.438-.766.797-1.672.766-2.266.766v.625c.438 0 1.282-.031 1.563-.172v5.922c0 .437.172.437-.906.437H.937v.672C1.547-.03 2.595-.03 3.079-.03c.469 0 1.516 0 2.125.062zm0 0"/></svg><svg overflow="visible" x="140.237" y="10.529"><path d="M8.828-3.125c0-.125-.312-.36-.437-.36H.906c-.125 0-.437.235-.437.36 0 .14.312.375.437.375h7.485c.125 0 .437-.234.437-.375zm0 0"/></svg><svg overflow="visible" x="152.193" y="10.529"><path d="M4.14-5.156c0-.125-.312-.266-.53-.266H2.78c.39-1.562.453-1.797.453-1.875 0-.203-.328-.453-.53-.453-.032 0-.579.14-.688.563l-.422 1.765H.64c-.25 0-.563.14-.563.36 0 .156.297.28.531.28h.813C.594-1.515.547-1.311.547-1.093c0 .64.656 1.219 1.312 1.219 1.22 0 2.079-1.875 2.079-1.969 0-.11-.282-.25-.329-.25-.109 0-.328.172-.375.297C2.72-.547 2.281-.39 1.875-.39c-.25 0-.172-.03-.172-.421 0-.282.016-.375.063-.579l.859-3.39h.953c.25 0 .563-.125.563-.375zm0 0"/></svg><svg overflow="visible" x="156.508" y="10.529"><path d="M3.64-2.625v-1c0-2.047-1.328-4.531-2.64-5.516a.774.774 0 00-.203-.062c-.063 0-.313.187-.313.25 0 .031.079.172.094.187 1.25.938 2.016 3.235 2.016 5.141v1c0 1.922-.766 4.219-2.016 5.14-.015.032-.094.157-.094.204 0 .047.25.25.313.25A.774.774 0 001 2.906c1.313-1 2.64-3.484 2.64-5.531zm0 0"/></svg><g><svg overflow="visible" x="161.167" y="6.189"><path d="M4.234-1.844H3.75c-.047.344-.063.735-.172.813-.062.047-.562 0-.687 0H1.812c.563-.5.86-.735 1.36-1.125.625-.5 1.265-1.14 1.265-1.938 0-1-1.093-1.781-2.171-1.781-1.032 0-1.954.89-1.954 1.656 0 .422.579.625.657.625.203 0 .656-.297.656-.61 0-.14-.266-.593-.422-.593.188-.437.547-.469.938-.469.843 0 1.062.5 1.062 1.172 0 .735-.453 1.203-.719 1.5l-2.03 2C.374-.516.311-.39.311 0h3.844l.313-1.844zm0 0"/></svg></g><g><svg overflow="visible" x="169.084" y="10.529"><path d="M8.828-3.125c0-.125-.312-.36-.437-.36H.906c-.125 0-.437.235-.437.36 0 .14.312.375.437.375h7.485c.125 0 .437-.234.437-.375zm0 0"/></svg></g><g><svg overflow="visible" x="181.039" y="10.529"><path d="M5.203-.125v-.516h-.578c-1.078 0-.922 0-.922-.437v-6.703c0-.282-.187-.438-.578-.438-.766.797-1.672.766-2.266.766v.625c.438 0 1.282-.031 1.563-.172v5.922c0 .437.172.437-.906.437H.937v.672C1.547-.03 2.595-.03 3.079-.03c.469 0 1.516 0 2.125.062zm0 0"/></svg></g><path d="M102.766 15.637h84.254" fill="none" stroke-width=".478" stroke="#000" stroke-miterlimit="10"/><g><svg overflow="visible" x="113.063" y="26.826"><path d="M4.14-5.156c0-.125-.312-.266-.53-.266H2.78c.39-1.562.453-1.797.453-1.875 0-.203-.328-.453-.53-.453-.032 0-.579.14-.688.563l-.422 1.765H.64c-.25 0-.563.14-.563.36 0 .156.297.28.531.28h.813C.594-1.515.547-1.311.547-1.093c0 .64.656 1.219 1.312 1.219 1.22 0 2.079-1.875 2.079-1.969 0-.11-.282-.25-.329-.25-.109 0-.328.172-.375.297C2.72-.547 2.281-.39 1.875-.39c-.25 0-.172-.03-.172-.421 0-.282.016-.375.063-.579l.859-3.39h.953c.25 0 .563-.125.563-.375zm0 0"/></svg></g><g><svg overflow="visible" x="117.379" y="23.371"><path d="M4.234-1.844H3.75c-.047.344-.063.735-.172.813-.062.047-.562 0-.687 0H1.812c.563-.5.86-.735 1.36-1.125.625-.5 1.265-1.14 1.265-1.938 0-1-1.093-1.781-2.171-1.781-1.032 0-1.954.89-1.954 1.656 0 .422.579.625.657.625.203 0 .656-.297.656-.61 0-.14-.266-.593-.422-.593.188-.437.547-.469.938-.469.843 0 1.062.5 1.062 1.172 0 .735-.453 1.203-.719 1.5l-2.03 2C.374-.516.311-.39.311 0h3.844l.313-1.844zm0 0"/></svg></g><g><svg overflow="visible" x="125.296" y="26.826"><path d="M8.828-3.125c0-.125-.312-.36-.437-.36H5.078v-3.374c0-.141-.297-.375-.422-.375-.14 0-.453.234-.453.375v3.375H.906c-.125 0-.437.234-.437.359 0 .14.312.375.437.375h3.297V.625c0 .125.313.36.453.36.125 0 .422-.235.422-.36V-2.75h3.313c.125 0 .437-.234.437-.375zm0 0"/></svg></g><g><svg overflow="visible" x="137.251" y="26.826"><path d="M4.156 2.719c0-.047-.078-.172-.11-.203-1.234-.922-2-3.22-2-5.141v-1c0-1.906.767-4.203 2-5.14a.457.457 0 00.11-.188c0-.063-.25-.25-.312-.25a1.01 1.01 0 00-.203.062C2.312-8.156 1-5.67 1-3.625v1C1-.578 2.313 1.906 3.64 2.906c.016.016.188.063.204.063.062 0 .312-.203.312-.25zm0 0"/></svg><svg overflow="visible" x="141.902" y="26.826"><path d="M5.203-.125v-.516h-.578c-1.078 0-.922 0-.922-.437v-6.703c0-.282-.187-.438-.578-.438-.766.797-1.672.766-2.266.766v.625c.438 0 1.282-.031 1.563-.172v5.922c0 .437.172.437-.906.437H.937v.672C1.547-.03 2.595-.03 3.079-.03c.469 0 1.516 0 2.125.062zm0 0"/></svg></g><g><svg overflow="visible" x="150.533" y="26.826"><path d="M8.828-3.125c0-.125-.312-.36-.437-.36H.906c-.125 0-.437.235-.437.36 0 .14.312.375.437.375h7.485c.125 0 .437-.234.437-.375zm0 0"/></svg></g><g><svg overflow="visible" x="162.489" y="26.826"><path d="M4.14-5.156c0-.125-.312-.266-.53-.266H2.78c.39-1.562.453-1.797.453-1.875 0-.203-.328-.453-.53-.453-.032 0-.579.14-.688.563l-.422 1.765H.64c-.25 0-.563.14-.563.36 0 .156.297.28.531.28h.813C.594-1.515.547-1.311.547-1.093c0 .64.656 1.219 1.312 1.219 1.22 0 2.079-1.875 2.079-1.969 0-.11-.282-.25-.329-.25-.109 0-.328.172-.375.297C2.72-.547 2.281-.39 1.875-.39c-.25 0-.172-.03-.172-.421 0-.282.016-.375.063-.579l.859-3.39h.953c.25 0 .563-.125.563-.375zm0 0"/></svg><svg overflow="visible" x="166.804" y="26.826"><path d="M3.64-2.625v-1c0-2.047-1.328-4.531-2.64-5.516a.774.774 0 00-.203-.062c-.063 0-.313.187-.313.25 0 .031.079.172.094.187 1.25.938 2.016 3.235 2.016 5.141v1c0 1.922-.766 4.219-2.016 5.14-.015.032-.094.157-.094.204 0 .047.25.25.313.25A.774.774 0 001 2.906c1.313-1 2.64-3.484 2.64-5.531zm0 0"/></svg></g><g><svg overflow="visible" x="171.464" y="23.371"><path d="M4.234-1.844H3.75c-.047.344-.063.735-.172.813-.062.047-.562 0-.687 0H1.812c.563-.5.86-.735 1.36-1.125.625-.5 1.265-1.14 1.265-1.938 0-1-1.093-1.781-2.171-1.781-1.032 0-1.954.89-1.954 1.656 0 .422.579.625.657.625.203 0 .656-.297.656-.61 0-.14-.266-.593-.422-.593.188-.437.547-.469.938-.469.843 0 1.062.5 1.062 1.172 0 .735-.453 1.203-.719 1.5l-2.03 2C.374-.516.311-.39.311 0h3.844l.313-1.844zm0 0"/></svg></g><g><svg overflow="visible" x="188.215" y="18.624"><path d="M2.25 11.453v-29.14c0-.22-.375-.516-.594-.516-.203 0-.578.297-.578.515v29.141c0 .219.375.516.578.516.219 0 .594-.297.594-.516zm0 0"/></svg></g></svg>