<svg xmlns="http://www.w3.org/2000/svg" xmlns:xlink="http://www.w3.org/1999/xlink" width="272" height="39px" viewBox="0 0 204 29"><svg overflow="visible" x=".537" y="17.669"><path d="M5.406-4.64c0-.423-.578-.907-1.187-.907-.782 0-1.453.625-1.672.953l.328.094c-.094-.531-.719-1.047-1.266-1.047-.562 0-.921.5-1.03.719C.358-4.422.14-3.61.14-3.578c0 .125.484.219.484.219l-.14.03c.124 0 .328-.14.406-.405.203-.844.25-1.282.671-1.282.204 0 .172-.046.172.407 0 .265-.03.39-.187 1.015L.844-.844c-.031.188-.11.469-.11.516 0 .219.375.453.563.453.14 0 .547-.219.656-.547-.062.14.406-1.594.453-1.797l.375-1.562c.047-.156.328-.625.61-.875.093-.094.312-.36.828-.36.312 0 .64.11.64.11l-.14-.235c-.36.063-.828.485-.828.797 0 .188.343.547.656.547.328 0 .86-.406.86-.844zm0 0"/></svg><svg overflow="visible" x="6.084" y="17.669"><path d="M6.14-1.844c0-.11-.296-.25-.327-.25-.125 0-.344.188-.375.344-.204.781-.22 1.36-.704 1.36-.328 0-.171-.188-.171-.422 0-.266.03-.36.156-.891l.265-1.063.438-1.687c.078-.328.078-.36.078-.406 0-.204-.344-.454-.547-.454-.281 0-.656.407-.703.657h.406c-.218-.438-.765-.89-1.297-.89-1.406 0-3.078 1.89-3.078 3.64 0 1.125.86 2.031 1.781 2.031.25 0 .97-.078 1.422-.61.032.094.657.61 1.22.61.421 0 .827-.297 1.015-.688l.062-.093c.203-.438.297-1.094.297-1.094zm-2.03-2.25c0 .063-.016.14-.032.203l-.594 2.344c-.062.203 0 .14-.187.344-.531.656-.875.812-1.203.812-.594 0-.578-.53-.578-1 0-.593.328-1.968.593-2.515.375-.703.782-1.11 1.266-1.11.766 0 .734.844.734.922zm0 0"/></svg><svg overflow="visible" x="12.409" y="17.669"><path d="M4.14-5.156c0-.125-.312-.266-.53-.266H2.78c.39-1.562.453-1.797.453-1.875 0-.203-.328-.453-.53-.453-.032 0-.579.14-.688.563l-.422 1.765H.64c-.25 0-.563.14-.563.36 0 .156.297.28.531.28h.813C.594-1.515.547-1.311.547-1.093c0 .64.656 1.219 1.312 1.219 1.22 0 2.079-1.875 2.079-1.969 0-.11-.282-.25-.329-.25-.109 0-.328.172-.375.297C2.72-.547 2.281-.39 1.875-.39c-.25 0-.172-.03-.172-.421 0-.282.016-.375.063-.579l.859-3.39h.953c.25 0 .563-.125.563-.375zm0 0"/></svg><svg overflow="visible" x="16.724" y="17.669"><path d="M3.578-7.61c0-.234-.344-.546-.625-.546-.328 0-.844.437-.844.75 0 .234.36.562.657.562.265 0 .812-.406.812-.765zm.11 5.766c0-.11-.297-.25-.329-.25-.125 0-.328.172-.39.344-.203.766-.406 1.36-1.016 1.36-.203 0-.094.015-.094-.266 0-.297.079-.469.36-1.203l.453-1.25c.156-.344.156-.375.265-.688.094-.25.157-.406.157-.64 0-.532-.578-1.11-1.172-1.11C.797-5.547.14-3.687.14-3.578c0 .125.484.219.484.219l-.14.03c.124 0 .328-.155.39-.343.313-1.125.61-1.344 1.016-1.344.093 0 .093-.14.093.25 0 .25-.078.5-.125.625-.109.297-.64 1.688-.828 2.204-.125.312-.281.703-.281.953 0 .562.61 1.109 1.188 1.109 1.125 0 1.75-1.86 1.75-1.969zm0 0"/></svg><svg overflow="visible" x="20.849" y="17.669"><path d="M5.797-3.39c0-1.25-1.031-2.157-2.11-2.157-1.593 0-3.406 1.828-3.406 3.531C.281-.844 1.297.125 2.406.125c1.594 0 3.39-1.781 3.39-3.516zM4.53-3.86c0 .47-.187 1.626-.64 2.407-.407.687-.922 1.062-1.47 1.062-.515 0-.858-.25-.858-1.171 0-.594.25-1.782.64-2.391.594-.922 1.14-1.063 1.485-1.063.687 0 .843.438.843 1.157zm0 0"/></svg><svg overflow="visible" x="26.791" y="17.669"><path d="M4.156 2.719c0-.047-.078-.172-.11-.203-1.234-.922-2-3.22-2-5.141v-1c0-1.906.767-4.203 2-5.14a.457.457 0 00.11-.188c0-.063-.25-.25-.312-.25a1.01 1.01 0 00-.203.062C2.312-8.156 1-5.67 1-3.625v1C1-.578 2.313 1.906 3.64 2.906c.016.016.188.063.204.063.062 0 .312-.203.312-.25zm0 0"/></svg><svg overflow="visible" x="31.441" y="17.669"><path d="M4.14-5.156c0-.125-.312-.266-.53-.266H2.78c.39-1.562.453-1.797.453-1.875 0-.203-.328-.453-.53-.453-.032 0-.579.14-.688.563l-.422 1.765H.64c-.25 0-.563.14-.563.36 0 .156.297.28.531.28h.813C.594-1.515.547-1.311.547-1.093c0 .64.656 1.219 1.312 1.219 1.22 0 2.079-1.875 2.079-1.969 0-.11-.282-.25-.329-.25-.109 0-.328.172-.375.297C2.72-.547 2.281-.39 1.875-.39c-.25 0-.172-.03-.172-.421 0-.282.016-.375.063-.579l.859-3.39h.953c.25 0 .563-.125.563-.375zm0 0"/></svg><svg overflow="visible" x="35.757" y="17.669"><path d="M3.64-2.625v-1c0-2.047-1.328-4.531-2.64-5.516a.774.774 0 00-.203-.062c-.063 0-.313.187-.313.25 0 .031.079.172.094.187 1.25.938 2.016 3.235 2.016 5.141v1c0 1.922-.766 4.219-2.016 5.14-.015.032-.094.157-.094.204 0 .047.25.25.313.25A.774.774 0 001 2.906c1.313-1 2.64-3.484 2.64-5.531zm0 0"/></svg><svg overflow="visible" x="43.719" y="17.669"><path d="M8.828-4.281c0-.125-.312-.375-.437-.375H.906c-.125 0-.437.25-.437.375 0 .14.312.375.437.375h7.485c.125 0 .437-.235.437-.375zm0 2.328c0-.14-.312-.375-.437-.375H.906c-.125 0-.437.234-.437.375 0 .125.312.36.437.36h7.485c.125 0 .437-.235.437-.36zm0 0"/></svg><svg overflow="visible" x="57.547" y="9.575"><path d="M6.297-8.203s-.125-.36-.281-.36c-.188 0-1.313.11-1.516.141-.094 0-.375.203-.375.36 0 .14.313.265.484.265.579 0 .407-.047.407.078l-.047.235-.719 2.828h.406c-.218-.438-.765-.89-1.297-.89-1.406 0-3.078 1.89-3.078 3.64 0 1.125.86 2.031 1.781 2.031.25 0 .97-.078 1.422-.61.032.094.657.61 1.22.61.421 0 .827-.297 1.015-.688l.062-.093c.203-.438.297-1.094.297-1.094l.063-.094c0-.11-.297-.25-.329-.25-.125 0-.343.188-.375.344-.203.781-.218 1.36-.703 1.36-.328 0-.171-.188-.171-.422 0-.282.03-.375.078-.579l1.718-6.906zm-2.188 4.11c0 .062-.015.14-.03.202l-.595 2.344c-.062.203 0 .14-.187.344-.531.656-.875.812-1.203.812-.594 0-.578-.53-.578-1 0-.593.328-1.968.593-2.515.375-.703.782-1.11 1.266-1.11.766 0 .734.844.734.922zm0 0"/></svg><svg overflow="visible" x="64.039" y="9.575"><path d="M3.578-7.61c0-.234-.344-.546-.625-.546-.328 0-.844.437-.844.75 0 .234.36.562.657.562.265 0 .812-.406.812-.765zm.11 5.766c0-.11-.297-.25-.329-.25-.125 0-.328.172-.39.344-.203.766-.406 1.36-1.016 1.36-.203 0-.094.015-.094-.266 0-.297.079-.469.36-1.203l.453-1.25c.156-.344.156-.375.265-.688.094-.25.157-.406.157-.64 0-.532-.578-1.11-1.172-1.11C.797-5.547.14-3.687.14-3.578c0 .125.484.219.484.219l-.14.03c.124 0 .328-.155.39-.343.313-1.125.61-1.344 1.016-1.344.093 0 .093-.14.093.25 0 .25-.078.5-.125.625-.109.297-.64 1.688-.828 2.204-.125.312-.281.703-.281.953 0 .562.61 1.109 1.188 1.109 1.125 0 1.75-1.86 1.75-1.969zm0 0"/></svg><svg overflow="visible" x="68.163" y="9.575"><path d="M5.219-4.39c0-.532-.719-1.157-1.625-1.157-1.578 0-2.219 1.344-2.219 1.875 0 .938 1.094 1.25 1.438 1.313.624.125 1.03.125 1.03.78 0 .313-.062 1.188-1.5 1.188-.171 0-.89.125-1.093-.328.188.016.672-.469.672-.812 0-.282-.375-.547-.625-.547-.313 0-.875.375-.875.922 0 .672.875 1.281 1.906 1.281 1.938 0 2.594-1.578 2.594-2.11 0-.437-.281-.827-.422-.968-.328-.328-.813-.422-1.328-.531-.438-.094-.719-.047-.719-.594 0-.344.094-.938 1.14-.938.298 0 .704-.046.829.282-.078.015-.531.406-.531.671 0 .172.312.485.578.485.265 0 .75-.344.75-.813zm0 0"/></svg><svg overflow="visible" x="73.77" y="9.575"><path d="M4.14-5.156c0-.125-.312-.266-.53-.266H2.78c.39-1.562.453-1.797.453-1.875 0-.203-.328-.453-.53-.453-.032 0-.579.14-.688.563l-.422 1.765H.64c-.25 0-.563.14-.563.36 0 .156.297.28.531.28h.813C.594-1.515.547-1.311.547-1.093c0 .64.656 1.219 1.312 1.219 1.22 0 2.079-1.875 2.079-1.969 0-.11-.282-.25-.329-.25-.109 0-.328.172-.375.297C2.72-.547 2.281-.39 1.875-.39c-.25 0-.172-.03-.172-.421 0-.282.016-.375.063-.579l.859-3.39h.953c.25 0 .563-.125.563-.375zm0 0"/></svg><svg overflow="visible" x="78.086" y="9.575"><path d="M6.14-1.844c0-.11-.296-.25-.327-.25-.125 0-.344.188-.375.344-.204.781-.22 1.36-.704 1.36-.328 0-.171-.188-.171-.422 0-.266.03-.36.156-.891l.265-1.063.438-1.687c.078-.328.078-.36.078-.406 0-.204-.344-.454-.547-.454-.281 0-.656.407-.703.657h.406c-.218-.438-.765-.89-1.297-.89-1.406 0-3.078 1.89-3.078 3.64 0 1.125.86 2.031 1.781 2.031.25 0 .97-.078 1.422-.61.032.094.657.61 1.22.61.421 0 .827-.297 1.015-.688l.062-.093c.203-.438.297-1.094.297-1.094zm-2.03-2.25c0 .063-.016.14-.032.203l-.594 2.344c-.062.203 0 .14-.187.344-.531.656-.875.812-1.203.812-.594 0-.578-.53-.578-1 0-.593.328-1.968.593-2.515.375-.703.782-1.11 1.266-1.11.766 0 .734.844.734.922zm0 0"/></svg><svg overflow="visible" x="84.41" y="9.575"><path d="M7.016-1.844c0-.11-.297-.25-.329-.25-.125 0-.328.172-.39.344-.234.813-.422 1.36-1.016 1.36-.203 0-.093.015-.093-.266 0-.297.109-.594.218-.844.219-.64.719-1.953.719-2.64 0-.798-.703-1.407-1.563-1.407-1.078 0-1.796.797-2 1.078l.329.094c-.063-.672-.735-1.172-1.282-1.172-.562 0-.921.5-1.14.89C.313-4.327.14-3.624.14-3.577c0 .125.484.219.484.219l-.14.03c.124 0 .328-.14.406-.405.203-.844.25-1.282.671-1.282.25 0 .172.016.172.407 0 .265-.03.39-.187 1.015L.844-.844c-.031.188-.11.469-.11.516 0 .219.375.453.563.453.14 0 .547-.219.656-.547-.078.156.125-.5.203-.797l.266-1.078c.062-.265.14-.531.203-.797l.14-.594c.188-.374.626-1.328 1.766-1.328.532 0 .438.313.438.704 0 .734-.578 2.265-.766 2.78-.11.282-.125.423-.125.548 0 .562.625 1.109 1.188 1.109 1.125 0 1.75-1.875 1.75-1.969zm0 0"/></svg><svg overflow="visible" x="91.583" y="9.575"><path d="M5.328-1.406c0-.078-.266-.297-.328-.297-.063 0-.234.062-.297.156C3.75-.359 2.593-.39 2.453-.39c-.75 0-.89-.453-.89-1.171 0-.5.187-1.563.593-2.297.36-.688.89-1.157 1.547-1.157.406 0 .719.11.766.204.078 0-.235.046-.407.203a1.026 1.026 0 00-.265.562c0 .297.406.563.64.563.344 0 .86-.422.86-.907 0-.578-.75-1.156-1.61-1.156-1.609 0-3.406 1.844-3.406 3.531 0 1.079.906 2.141 2.14 2.141 1.72 0 2.907-1.39 2.907-1.531zm0 0"/></svg><svg overflow="visible" x="97.059" y="9.575"><path d="M5.328-1.406c0-.078-.266-.297-.328-.297-.063 0-.234.062-.297.156C3.75-.359 2.593-.39 2.453-.39c-.937 0-.844-.875-.844-1.265 0-.14 0-.5.141-1.11h.484c.344 0 1.235-.015 1.829-.265.843-.36 1.093-1.203 1.093-1.375 0-.516-.656-1.14-1.468-1.14-1.329 0-3.344 1.296-3.344 3.39C.344-.937 1.25.125 2.422.125c1.719 0 2.906-1.39 2.906-1.531zm-.969-3c0 1.25-1.703 1.125-2.203 1.125h-.25c.422-1.688 1.469-1.735 1.782-1.735.562 0 .671.204.671.61zm0 0"/></svg><svg overflow="visible" x="102.63" y="9.575"><path d="M4.156 2.719c0-.047-.078-.172-.11-.203-1.234-.922-2-3.22-2-5.141v-1c0-1.906.767-4.203 2-5.14a.457.457 0 00.11-.188c0-.063-.25-.25-.312-.25a1.01 1.01 0 00-.203.062C2.312-8.156 1-5.67 1-3.625v1C1-.578 2.313 1.906 3.64 2.906c.016.016.188.063.204.063.062 0 .312-.203.312-.25zm0 0"/></svg><svg overflow="visible" x="107.281" y="9.575"><path d="M9.234-6.64c0-.891-.984-1.782-2.421-1.782H2.796c-.235 0-.547.125-.547.36 0 .14.313.265.531.265l.14-.031s.11.031.313.062c.22.016.125-.093.125.063 0 .047-.015.078-.046.219l-1.61 6.421c-.11.47.063.422-.875.422-.203 0-.531.141-.531.375 0 .141.312.266.531.266h4.266c1.89 0 3.484-1.547 3.484-2.719 0-.86-.875-1.687-2.047-1.812v.265c1.25-.234 2.703-1.25 2.703-2.375zM7.75-6.689c0 1.047-.828 2.047-2.281 2.047H3.937l.72-2.828c.093-.422-.063-.328.452-.328h1.532c1.062 0 1.109.578 1.109 1.11zm-.672 3.844c0 1.188-.86 2.203-2.266 2.203h-1.89c-.125-.015.031.11.031 0 0-.03 0-.046.063-.265l.78-3.203h2.11c1.14 0 1.172.75 1.172 1.265zm0 0"/></svg><svg overflow="visible" x="116.654" y="9.575"><path d="M2.625-.14c0-.797-.5-1.391-.969-1.391-.39 0-.828.437-.828.765 0 .329.438.766.828.766.157 0 .438-.078.563-.188l.047-.046s-.313-.078-.313.093c0 .875-.344 1.5-.75 1.891-.125.14-.187.266-.187.297 0 .078.265.265.328.265.125 0 1.281-1.062 1.281-2.453zm0 0"/></svg><g><svg overflow="visible" x="121.974" y="9.575"><path d="M9.281-8.438c0-.03-.219-.25-.328-.25a.701.701 0 00-.328.172l-.672.75c0 .016-.672-.921-2-.921-2.672 0-5.562 2.765-5.562 5.546C.39-1.17 2.016.266 3.844.266c1.031 0 2.078-.516 2.703-1.063C7.657-1.78 7.922-2.969 7.922-3c0-.125-.203-.031-.203-.031l-.125-.219c-.078 0-.344.156-.36.25-.109.344-.328 1.094-1.156 1.797-.812.672-1.422.828-2.047.828-1.078 0-2.156-.484-2.156-2.344 0-.687.188-2.531 1.39-3.922C4-7.5 4.986-8.062 6.048-8.062c1.219 0 1.719.796 1.719 2.187 0 .469-.032.484-.032.61 0 .109.329.25.375.25.157 0 .36-.157.407-.376zm0 0"/></svg></g><g><svg overflow="visible" x="131.394" y="9.575"><path d="M3.64-2.625v-1c0-2.047-1.328-4.531-2.64-5.516a.774.774 0 00-.203-.062c-.063 0-.313.187-.313.25 0 .031.079.172.094.187 1.25.938 2.016 3.235 2.016 5.141v1c0 1.922-.766 4.219-2.016 5.14-.015.032-.094.157-.094.204 0 .047.25.25.313.25A.774.774 0 001 2.906c1.313-1 2.64-3.484 2.64-5.531zm0 0"/></svg></g><path d="M57.547 14.68h78.504" fill="none" stroke-width=".478" stroke="#000" stroke-miterlimit="10"/><g><svg overflow="visible" x="57.774" y="25.872"><path d="M6.297-8.203s-.125-.36-.281-.36c-.188 0-1.313.11-1.516.141-.094 0-.375.203-.375.36 0 .14.313.265.484.265.579 0 .407-.047.407.078l-.047.235-.719 2.828h.406c-.218-.438-.765-.89-1.297-.89-1.406 0-3.078 1.89-3.078 3.64 0 1.125.86 2.031 1.781 2.031.25 0 .97-.078 1.422-.61.032.094.657.61 1.22.61.421 0 .827-.297 1.015-.688l.062-.093c.203-.438.297-1.094.297-1.094l.063-.094c0-.11-.297-.25-.329-.25-.125 0-.343.188-.375.344-.203.781-.218 1.36-.703 1.36-.328 0-.171-.188-.171-.422 0-.282.03-.375.078-.579l1.718-6.906zm-2.188 4.11c0 .062-.015.14-.03.202l-.595 2.344c-.062.203 0 .14-.187.344-.531.656-.875.812-1.203.812-.594 0-.578-.53-.578-1 0-.593.328-1.968.593-2.515.375-.703.782-1.11 1.266-1.11.766 0 .734.844.734.922zm0 0"/></svg></g><g><svg overflow="visible" x="64.266" y="25.872"><path d="M3.578-7.61c0-.234-.344-.546-.625-.546-.328 0-.844.437-.844.75 0 .234.36.562.657.562.265 0 .812-.406.812-.765zm.11 5.766c0-.11-.297-.25-.329-.25-.125 0-.328.172-.39.344-.203.766-.406 1.36-1.016 1.36-.203 0-.094.015-.094-.266 0-.297.079-.469.36-1.203l.453-1.25c.156-.344.156-.375.265-.688.094-.25.157-.406.157-.64 0-.532-.578-1.11-1.172-1.11C.797-5.547.14-3.687.14-3.578c0 .125.484.219.484.219l-.14.03c.124 0 .328-.155.39-.343.313-1.125.61-1.344 1.016-1.344.093 0 .093-.14.093.25 0 .25-.078.5-.125.625-.109.297-.64 1.688-.828 2.204-.125.312-.281.703-.281.953 0 .562.61 1.109 1.188 1.109 1.125 0 1.75-1.86 1.75-1.969zm0 0"/></svg><svg overflow="visible" x="68.39" y="25.872"><path d="M5.219-4.39c0-.532-.719-1.157-1.625-1.157-1.578 0-2.219 1.344-2.219 1.875 0 .938 1.094 1.25 1.438 1.313.624.125 1.03.125 1.03.78 0 .313-.062 1.188-1.5 1.188-.171 0-.89.125-1.093-.328.188.016.672-.469.672-.812 0-.282-.375-.547-.625-.547-.313 0-.875.375-.875.922 0 .672.875 1.281 1.906 1.281 1.938 0 2.594-1.578 2.594-2.11 0-.437-.281-.827-.422-.968-.328-.328-.813-.422-1.328-.531-.438-.094-.719-.047-.719-.594 0-.344.094-.938 1.14-.938.298 0 .704-.046.829.282-.078.015-.531.406-.531.671 0 .172.312.485.578.485.265 0 .75-.344.75-.813zm0 0"/></svg><svg overflow="visible" x="73.997" y="25.872"><path d="M4.14-5.156c0-.125-.312-.266-.53-.266H2.78c.39-1.562.453-1.797.453-1.875 0-.203-.328-.453-.53-.453-.032 0-.579.14-.688.563l-.422 1.765H.64c-.25 0-.563.14-.563.36 0 .156.297.28.531.28h.813C.594-1.515.547-1.311.547-1.093c0 .64.656 1.219 1.312 1.219 1.22 0 2.079-1.875 2.079-1.969 0-.11-.282-.25-.329-.25-.109 0-.328.172-.375.297C2.72-.547 2.281-.39 1.875-.39c-.25 0-.172-.03-.172-.421 0-.282.016-.375.063-.579l.859-3.39h.953c.25 0 .563-.125.563-.375zm0 0"/></svg><svg overflow="visible" x="78.313" y="25.872"><path d="M6.14-1.844c0-.11-.296-.25-.327-.25-.125 0-.344.188-.375.344-.204.781-.22 1.36-.704 1.36-.328 0-.171-.188-.171-.422 0-.266.03-.36.156-.891l.265-1.063.438-1.687c.078-.328.078-.36.078-.406 0-.204-.344-.454-.547-.454-.281 0-.656.407-.703.657h.406c-.218-.438-.765-.89-1.297-.89-1.406 0-3.078 1.89-3.078 3.64 0 1.125.86 2.031 1.781 2.031.25 0 .97-.078 1.422-.61.032.094.657.61 1.22.61.421 0 .827-.297 1.015-.688l.062-.093c.203-.438.297-1.094.297-1.094zm-2.03-2.25c0 .063-.016.14-.032.203l-.594 2.344c-.062.203 0 .14-.187.344-.531.656-.875.812-1.203.812-.594 0-.578-.53-.578-1 0-.593.328-1.968.593-2.515.375-.703.782-1.11 1.266-1.11.766 0 .734.844.734.922zm0 0"/></svg><svg overflow="visible" x="84.637" y="25.872"><path d="M7.016-1.844c0-.11-.297-.25-.329-.25-.125 0-.328.172-.39.344-.234.813-.422 1.36-1.016 1.36-.203 0-.093.015-.093-.266 0-.297.109-.594.218-.844.219-.64.719-1.953.719-2.64 0-.798-.703-1.407-1.563-1.407-1.078 0-1.796.797-2 1.078l.329.094c-.063-.672-.735-1.172-1.282-1.172-.562 0-.921.5-1.14.89C.313-4.327.14-3.624.14-3.577c0 .125.484.219.484.219l-.14.03c.124 0 .328-.14.406-.405.203-.844.25-1.282.671-1.282.25 0 .172.016.172.407 0 .265-.03.39-.187 1.015L.844-.844c-.031.188-.11.469-.11.516 0 .219.375.453.563.453.14 0 .547-.219.656-.547-.078.156.125-.5.203-.797l.266-1.078c.062-.265.14-.531.203-.797l.14-.594c.188-.374.626-1.328 1.766-1.328.532 0 .438.313.438.704 0 .734-.578 2.265-.766 2.78-.11.282-.125.423-.125.548 0 .562.625 1.109 1.188 1.109 1.125 0 1.75-1.875 1.75-1.969zm0 0"/></svg><svg overflow="visible" x="91.81" y="25.872"><path d="M5.328-1.406c0-.078-.266-.297-.328-.297-.063 0-.234.062-.297.156C3.75-.359 2.593-.39 2.453-.39c-.75 0-.89-.453-.89-1.171 0-.5.187-1.563.593-2.297.36-.688.89-1.157 1.547-1.157.406 0 .719.11.766.204.078 0-.235.046-.407.203a1.026 1.026 0 00-.265.562c0 .297.406.563.64.563.344 0 .86-.422.86-.907 0-.578-.75-1.156-1.61-1.156-1.609 0-3.406 1.844-3.406 3.531 0 1.079.906 2.141 2.14 2.141 1.72 0 2.907-1.39 2.907-1.531zm0 0"/></svg></g><g><svg overflow="visible" x="97.286" y="25.872"><path d="M5.328-1.406c0-.078-.266-.297-.328-.297-.063 0-.234.062-.297.156C3.75-.359 2.593-.39 2.453-.39c-.937 0-.844-.875-.844-1.265 0-.14 0-.5.141-1.11h.484c.344 0 1.235-.015 1.829-.265.843-.36 1.093-1.203 1.093-1.375 0-.516-.656-1.14-1.468-1.14-1.329 0-3.344 1.296-3.344 3.39C.344-.937 1.25.125 2.422.125c1.719 0 2.906-1.39 2.906-1.531zm-.969-3c0 1.25-1.703 1.125-2.203 1.125h-.25c.422-1.688 1.469-1.735 1.782-1.735.562 0 .671.204.671.61zm0 0"/></svg><svg overflow="visible" x="102.857" y="25.872"><path d="M4.156 2.719c0-.047-.078-.172-.11-.203-1.234-.922-2-3.22-2-5.141v-1c0-1.906.767-4.203 2-5.14a.457.457 0 00.11-.188c0-.063-.25-.25-.312-.25a1.01 1.01 0 00-.203.062C2.312-8.156 1-5.67 1-3.625v1C1-.578 2.313 1.906 3.64 2.906c.016.016.188.063.204.063.062 0 .312-.203.312-.25zm0 0"/></svg><svg overflow="visible" x="107.508" y="25.872"><path d="M8.813-.375c0-.125-.313-.266-.47-.266-.734 0-.546.063-.593-.296l-.719-7.47C7-8.64 6.813-8.827 6.61-8.827a.58.58 0 00-.453.25L2-1.61c-.484.812-.813.937-1.328.968-.14.016-.453.157-.453.375 0 .079.265.266.36.266.312 0 .687-.031 1.03-.031C2-.031 2.422 0 2.797 0c.078 0 .422-.125.422-.36 0-.124-.297-.28-.39-.28-.267-.016-.36.015-.36-.282 0-.14 0-.172.094-.344.093-.14.109-.14.89-1.5h2.703c.016.125.172 1.75.172 1.875 0 .36-.406.25-.656.25-.156 0-.484.141-.484.375 0 .141.5.235.5.235L5.563 0c.484 0 1-.031 1.484-.031.297 0 1.062.031 1.36.031.062 0 .405-.125.405-.375zm-2.5-3.016h-2.47l2.22-3.718-.344-.094.375 3.812zm0 0"/></svg><svg overflow="visible" x="116.474" y="25.872"><path d="M2.625-.14c0-.797-.5-1.391-.969-1.391-.39 0-.828.437-.828.765 0 .329.438.766.828.766.157 0 .438-.078.563-.188l.047-.046s-.313-.078-.313.093c0 .875-.344 1.5-.75 1.891-.125.14-.187.266-.187.297 0 .078.265.265.328.265.125 0 1.281-1.062 1.281-2.453zm0 0"/></svg></g><g><svg overflow="visible" x="121.794" y="25.872"><path d="M9.234-6.64c0-.891-.984-1.782-2.421-1.782H2.796c-.235 0-.547.125-.547.36 0 .14.313.265.531.265l.14-.031s.11.031.313.062c.22.016.125-.093.125.063 0 .047-.015.078-.046.219l-1.61 6.421c-.11.47.063.422-.875.422-.203 0-.531.141-.531.375 0 .141.312.266.531.266h4.266c1.89 0 3.484-1.547 3.484-2.719 0-.86-.875-1.687-2.047-1.812v.265c1.25-.234 2.703-1.25 2.703-2.375zM7.75-6.689c0 1.047-.828 2.047-2.281 2.047H3.937l.72-2.828c.093-.422-.063-.328.452-.328h1.532c1.062 0 1.109.578 1.109 1.11zm-.672 3.844c0 1.188-.86 2.203-2.266 2.203h-1.89c-.125-.015.031.11.031 0 0-.03 0-.046.063-.265l.78-3.203h2.11c1.14 0 1.172.75 1.172 1.265zm0 0"/></svg></g><g><svg overflow="visible" x="131.167" y="25.872"><path d="M3.64-2.625v-1c0-2.047-1.328-4.531-2.64-5.516a.774.774 0 00-.203-.062c-.063 0-.313.187-.313.25 0 .031.079.172.094.187 1.25.938 2.016 3.235 2.016 5.141v1c0 1.922-.766 4.219-2.016 5.14-.015.032-.094.157-.094.204 0 .047.25.25.313.25A.774.774 0 001 2.906c1.313-1 2.64-3.484 2.64-5.531zm0 0"/></svg></g><g><svg overflow="visible" x="140.569" y="17.669"><path d="M8.828-4.281c0-.125-.312-.375-.437-.375H.906c-.125 0-.437.25-.437.375 0 .14.312.375.437.375h7.485c.125 0 .437-.235.437-.375zm0 2.328c0-.14-.312-.375-.437-.375H.906c-.125 0-.437.234-.437.375 0 .125.312.36.437.36h7.485c.125 0 .437-.235.437-.36zm0 0"/></svg></g><g><svg overflow="visible" x="153.182" y="17.669"><path d="M9.281-8.438c0-.03-.219-.25-.328-.25a.701.701 0 00-.328.172l-.672.75c0 .016-.672-.921-2-.921-2.672 0-5.562 2.765-5.562 5.546C.39-1.17 2.016.266 3.844.266c1.031 0 2.078-.516 2.703-1.063C7.657-1.78 7.922-2.969 7.922-3c0-.125-.203-.031-.203-.031l-.125-.219c-.078 0-.344.156-.36.25-.109.344-.328 1.094-1.156 1.797-.812.672-1.422.828-2.047.828-1.078 0-2.156-.484-2.156-2.344 0-.687.188-2.531 1.39-3.922C4-7.5 4.986-8.062 6.048-8.062c1.219 0 1.719.796 1.719 2.187 0 .469-.032.484-.032.61 0 .109.329.25.375.25.157 0 .36-.157.407-.376zm0 0"/></svg></g><g><svg overflow="visible" x="162.602" y="17.669"><path d="M5.797-3.39c0-1.25-1.031-2.157-2.11-2.157-1.593 0-3.406 1.828-3.406 3.531C.281-.844 1.297.125 2.406.125c1.594 0 3.39-1.781 3.39-3.516zM4.53-3.86c0 .47-.187 1.626-.64 2.407-.407.687-.922 1.062-1.47 1.062-.515 0-.858-.25-.858-1.171 0-.594.25-1.782.64-2.391.594-.922 1.14-1.063 1.485-1.063.687 0 .843.438.843 1.157zm0 0"/></svg></g><g><svg overflow="visible" x="168.544" y="17.669"><path d="M7.016-1.844c0-.11-.297-.25-.329-.25-.125 0-.328.172-.39.344-.234.813-.422 1.36-1.016 1.36-.203 0-.093.015-.093-.266 0-.297.109-.594.218-.844.219-.64.719-1.953.719-2.64 0-.798-.703-1.407-1.563-1.407-1.078 0-1.796.797-2 1.078l.329.094c-.063-.672-.735-1.172-1.282-1.172-.562 0-.921.5-1.14.89C.313-4.327.14-3.624.14-3.577c0 .125.484.219.484.219l-.14.03c.124 0 .328-.14.406-.405.203-.844.25-1.282.671-1.282.25 0 .172.016.172.407 0 .265-.03.39-.187 1.015L.844-.844c-.031.188-.11.469-.11.516 0 .219.375.453.563.453.14 0 .547-.219.656-.547-.078.156.125-.5.203-.797l.266-1.078c.062-.265.14-.531.203-.797l.14-.594c.188-.374.626-1.328 1.766-1.328.532 0 .438.313.438.704 0 .734-.578 2.265-.766 2.78-.11.282-.125.423-.125.548 0 .562.625 1.109 1.188 1.109 1.125 0 1.75-1.875 1.75-1.969zm0 0"/></svg><svg overflow="visible" x="175.717" y="17.669"><path d="M5.219-4.39c0-.532-.719-1.157-1.625-1.157-1.578 0-2.219 1.344-2.219 1.875 0 .938 1.094 1.25 1.438 1.313.624.125 1.03.125 1.03.78 0 .313-.062 1.188-1.5 1.188-.171 0-.89.125-1.093-.328.188.016.672-.469.672-.812 0-.282-.375-.547-.625-.547-.313 0-.875.375-.875.922 0 .672.875 1.281 1.906 1.281 1.938 0 2.594-1.578 2.594-2.11 0-.437-.281-.827-.422-.968-.328-.328-.813-.422-1.328-.531-.438-.094-.719-.047-.719-.594 0-.344.094-.938 1.14-.938.298 0 .704-.046.829.282-.078.015-.531.406-.531.671 0 .172.312.485.578.485.265 0 .75-.344.75-.813zm0 0"/></svg><svg overflow="visible" x="181.324" y="17.669"><path d="M4.14-5.156c0-.125-.312-.266-.53-.266H2.78c.39-1.562.453-1.797.453-1.875 0-.203-.328-.453-.53-.453-.032 0-.579.14-.688.563l-.422 1.765H.64c-.25 0-.563.14-.563.36 0 .156.297.28.531.28h.813C.594-1.515.547-1.311.547-1.093c0 .64.656 1.219 1.312 1.219 1.22 0 2.079-1.875 2.079-1.969 0-.11-.282-.25-.329-.25-.109 0-.328.172-.375.297C2.72-.547 2.281-.39 1.875-.39c-.25 0-.172-.03-.172-.421 0-.282.016-.375.063-.579l.859-3.39h.953c.25 0 .563-.125.563-.375zm0 0"/></svg><svg overflow="visible" x="185.64" y="17.669"><path d="M6.14-1.844c0-.11-.296-.25-.327-.25-.125 0-.344.188-.375.344-.204.781-.22 1.36-.704 1.36-.328 0-.171-.188-.171-.422 0-.266.03-.36.156-.891l.265-1.063.438-1.687c.078-.328.078-.36.078-.406 0-.204-.344-.454-.547-.454-.281 0-.656.407-.703.657h.406c-.218-.438-.765-.89-1.297-.89-1.406 0-3.078 1.89-3.078 3.64 0 1.125.86 2.031 1.781 2.031.25 0 .97-.078 1.422-.61.032.094.657.61 1.22.61.421 0 .827-.297 1.015-.688l.062-.093c.203-.438.297-1.094.297-1.094zm-2.03-2.25c0 .063-.016.14-.032.203l-.594 2.344c-.062.203 0 .14-.187.344-.531.656-.875.812-1.203.812-.594 0-.578-.53-.578-1 0-.593.328-1.968.593-2.515.375-.703.782-1.11 1.266-1.11.766 0 .734.844.734.922zm0 0"/></svg><svg overflow="visible" x="191.964" y="17.669"><path d="M7.016-1.844c0-.11-.297-.25-.329-.25-.125 0-.328.172-.39.344-.234.813-.422 1.36-1.016 1.36-.203 0-.093.015-.093-.266 0-.297.109-.594.218-.844.219-.64.719-1.953.719-2.64 0-.798-.703-1.407-1.563-1.407-1.078 0-1.796.797-2 1.078l.329.094c-.063-.672-.735-1.172-1.282-1.172-.562 0-.921.5-1.14.89C.313-4.327.14-3.624.14-3.577c0 .125.484.219.484.219l-.14.03c.124 0 .328-.14.406-.405.203-.844.25-1.282.671-1.282.25 0 .172.016.172.407 0 .265-.03.39-.187 1.015L.844-.844c-.031.188-.11.469-.11.516 0 .219.375.453.563.453.14 0 .547-.219.656-.547-.078.156.125-.5.203-.797l.266-1.078c.062-.265.14-.531.203-.797l.14-.594c.188-.374.626-1.328 1.766-1.328.532 0 .438.313.438.704 0 .734-.578 2.265-.766 2.78-.11.282-.125.423-.125.548 0 .562.625 1.109 1.188 1.109 1.125 0 1.75-1.875 1.75-1.969zm0 0"/></svg><svg overflow="visible" x="199.138" y="17.669"><path d="M4.14-5.156c0-.125-.312-.266-.53-.266H2.78c.39-1.562.453-1.797.453-1.875 0-.203-.328-.453-.53-.453-.032 0-.579.14-.688.563l-.422 1.765H.64c-.25 0-.563.14-.563.36 0 .156.297.28.531.28h.813C.594-1.515.547-1.311.547-1.093c0 .64.656 1.219 1.312 1.219 1.22 0 2.079-1.875 2.079-1.969 0-.11-.282-.25-.329-.25-.109 0-.328.172-.375.297C2.72-.547 2.281-.39 1.875-.39c-.25 0-.172-.03-.172-.421 0-.282.016-.375.063-.579l.859-3.39h.953c.25 0 .563-.125.563-.375zm0 0"/></svg></g></svg>