<svg xmlns="http://www.w3.org/2000/svg" xmlns:xlink="http://www.w3.org/1999/xlink" width="161px" height="41px" viewBox="0 0 121 31"><svg overflow="visible" x="-.055" y="19.569"><path d="M6.219-1.25l-.188-.297-.453.297c-.297.188-.469.281-.625.281-.094 0-.016.047-.016-.078 0-.14.032-.328.079-.469L6.03-5.828l-.187-.219-.985.25-.14.719c-.172.906-.422 1.61-.782 2.156-.703 1.11-1.546 1.953-2.03 1.953-.11 0-.032.031-.032-.172 0-.187.031-.312.078-.625l.688-3.25c.03-.187.062-.343.062-.5 0-.234-.234-.515-.39-.515-.25 0-.813.281-1.704.922l-.39.296.172.485.546-.36c.36-.218.375-.234.485-.234.125 0 .062-.031.062.11a.792.792 0 01-.03.203l-.75 3.562c-.016.11-.048.375-.048.563 0 .265.328.609.563.609.75 0 2.297-1.375 3.297-3.016l-.235-.093-.437 1.687c-.094.313-.14.61-.14.797 0 .297.28.625.5.625.312 0 .859-.313 2.077-1.234zm0 0"/></svg><svg overflow="visible" x="6.592" y="19.569"><path d="M4.203-7.828a.735.735 0 01-.187-.14c-.063-.063-.11-.126-.22-.329-1.593 1.61-2.5 3.266-2.5 4.781v.797c0 1.516.907 3.172 2.5 4.781.11-.203.157-.265.22-.328.062-.062.125-.109.312-.203C2.875.063 2.281-1.344 2.281-2.719v-.797c0-1.39.594-2.78 2.047-4.25zm0 0"/></svg><svg overflow="visible" x="11.661" y="19.569"><path d="M3.703-5.516c-.453.047-.86.063-1.156.063.172-.984.297-1.578.531-2.25l-.25-.328a7.16 7.16 0 01-1.094.531l-.296 2.031c-.391.203-.704.328-1.063.407l-.047.406h1l-.64 3.25C.625-1.11.53-.813.53-.5c0 .297.266.61.5.61.422 0 .922-.282 1.86-1.032.218-.172.14-.125.437-.36l-.25-.437-.672.469c-.36.25-.484.313-.625.313-.093 0-.031.046-.031-.11 0-.297.156-1.234.516-3l.14-.61h1.266l.203-.89zm0 0"/></svg><svg overflow="visible" x="15.702" y="19.569"><path d="M3.766-2.719v-.797c0-1.515-.907-3.171-2.516-4.78-.11.202-.156.265-.203.327-.063.063-.125.11-.313.203 1.438 1.47 2.032 2.86 2.032 4.25v.797c0 1.375-.594 2.781-2.032 4.25.188.094.25.14.313.203.047.063.094.125.203.329C2.86.452 3.766-1.204 3.766-2.72zm0 0"/></svg><svg overflow="visible" x="20.771" y="22.343"><path d="M.031-1.328C.031-.484.594.094 1.297.094c.484 0 1.031-.203 1.531-.61l.5-.421-.187-.454-.36.235c-.625.422-.828.531-1.14.531-.485 0-.563-.219-.563-.906 0-.938.25-1.766.672-2.11.188-.156.281-.187.563-.187.39 0 .515.031.515.25v.656h.563c.093-.703.156-1.031.25-1.312-.282-.188-.72-.297-1.047-.297-.406 0-1.172.343-1.672.797-.5.437-.89 1.453-.89 2.406zm0 0"/></svg><svg overflow="visible" x="24.372" y="22.343"><path d="M.094-3.563l.14.438.532-.344c.25-.172.203-.172.28-.172.095 0-.03-.062-.03.047 0 .031-.016.11-.032.156L.438-.812C.421-.72.39-.532.39-.392c0 .204.328.485.515.485.547 0 1.75-1.016 2.5-2.25l-.328-.094L2.75-.984a2.305 2.305 0 00-.094.578c0 .219.281.5.453.5.235 0 .688-.25 1.625-.938L4.5-1.266l-.438.282c-.218.14-.28.203-.39.203-.078 0 .062.062.062-.031 0-.11.032-.235.063-.344l.75-3.172-.172-.219-.86.219-.109.531c-.14.672-.297 1.172-.547 1.578C2.33-1.406 1.766-.78 1.406-.78c-.078 0 .078.047.078-.11 0-.125.016-.218.047-.453l.516-2.39c.015-.141.047-.266.047-.391 0-.172-.266-.406-.39-.406-.188 0-.657.218-1.313.687l-.313.235zm0 0"/></svg><svg overflow="visible" x="29.29" y="22.343"><path d="M.125-.672c0 .344.625.766 1.11.766.327 0 .921-.203 1.296-.469.844-.61 1.485-1.922 1.485-3.078 0-.344-.141-.781-.235-.922-.062-.078-.312-.156-.453-.156-.203 0-.61.11-.86.234-.452.234-.75.5-1.296 1.203L1.5-3l.766-3.547L2-6.797c-.625.313-.813.36-1.625.438l-.078.437h.656c.203 0 .094-.078.094.078 0 .063 0 .157-.016.203L.141-.766c-.016.032-.016.063-.016.094zm1.047-.36c0-.218.047-.468.125-.796.156-.703.328-1.031.672-1.406.297-.297.625-.516.875-.516.234 0 .156.078.156.5 0 .578-.188 1.328-.453 1.906-.297.61-.453.766-.922.766-.406 0-.453-.078-.453-.453zm0 0"/></svg><svg overflow="visible" x="33.387" y="22.343"><path d="M.11-3.563l.14.438.531-.344c.25-.172.203-.172.281-.172.094 0-.03-.062-.03.047 0 .078-.048.266-.079.39L.375-1.077c-.078.281-.125.5-.125.687 0 .204.297.47.469.47.234 0 .687-.235 1.61-.923l-.22-.422-.437.282c-.266.171-.313.218-.39.218-.063 0 .062.063.062-.046 0-.079.015-.157.062-.344l.688-2.688c.031-.156.047-.234.047-.328 0-.14-.25-.36-.407-.36-.203 0-.656.22-1.328.688l-.312.235zm1.218-1.906c0 .219.328.5.547.5.281 0 .656-.39.656-.734 0-.203-.312-.484-.5-.484-.265 0-.703.421-.703.718zm0 0"/></svg><svg overflow="visible" x="35.846" y="22.343"><path d="M.031-1.328C.031-.484.594.094 1.297.094c.484 0 1.031-.203 1.531-.61l.5-.421-.187-.454-.36.235c-.625.422-.828.531-1.14.531-.485 0-.563-.219-.563-.906 0-.938.25-1.766.672-2.11.188-.156.281-.187.563-.187.39 0 .515.031.515.25v.656h.563c.093-.703.156-1.031.25-1.312-.282-.188-.72-.297-1.047-.297-.406 0-1.172.343-1.672.797-.5.437-.89 1.453-.89 2.406zm0 0"/></svg><svg overflow="visible" x="43.266" y="19.569"><path d="M8.266-4.078a1.419 1.419 0 01-.047-.36c0-.109.015-.234.062-.484h-7.5c.063.25.063.375.063.484 0 .125 0 .235-.063.5h7.5zm0 2.625a1.332 1.332 0 01-.047-.36c0-.109.015-.234.062-.484h-7.5c.063.25.063.375.063.485 0 .125 0 .25-.063.5h7.5zm0 0"/></svg><svg overflow="visible" x="68.838" y="10.961"><path d="M4.203-7.828a.735.735 0 01-.187-.14c-.063-.063-.11-.126-.22-.329-1.593 1.61-2.5 3.266-2.5 4.781v.797c0 1.516.907 3.172 2.5 4.781.11-.203.157-.265.22-.328.062-.062.125-.109.312-.203C2.875.063 2.281-1.344 2.281-2.719v-.797c0-1.39.594-2.78 2.047-4.25zm0 0"/></svg><svg overflow="visible" x="73.907" y="10.961"><path d="M5.125-.094v-.484l-.75-.047c-.656-.031-.64-.031-.64-.656v-7.172l-.313-.125c-.875.469-1.61.781-2.86 1.219l.125.718h.235l1.547-.687.031-.016c.063 0-.047-.015-.047.266v5.797c0 .625.016.625-.64.656L1-.578v.625L3.125 0l2 .047zm0 0"/></svg><svg overflow="visible" x="82.539" y="10.961"><path d="M8.266-2.766a1.332 1.332 0 01-.047-.359c0-.11.015-.234.062-.484h-7.5c.063.25.063.375.063.484 0 .125 0 .25-.063.5h7.5zm0 0"/></svg><svg overflow="visible" x="94.279" y="10.961"><path d="M3.703-5.516c-.453.047-.86.063-1.156.063.172-.984.297-1.578.531-2.25l-.25-.328a7.16 7.16 0 01-1.094.531l-.296 2.031c-.391.203-.704.328-1.063.407l-.047.406h1l-.64 3.25C.625-1.11.53-.813.53-.5c0 .297.266.61.5.61.422 0 .922-.282 1.86-1.032.218-.172.14-.125.437-.36l-.25-.437-.672.469c-.36.25-.484.313-.625.313-.093 0-.031.046-.031-.11 0-.297.156-1.234.516-3l.14-.61h1.266l.203-.89zm0 0"/></svg><svg overflow="visible" x="98.32" y="10.961"><path d="M3.766-2.719v-.797c0-1.515-.907-3.171-2.516-4.78-.11.202-.156.265-.203.327-.063.063-.125.11-.313.203 1.438 1.47 2.032 2.86 2.032 4.25v.797c0 1.375-.594 2.781-2.032 4.25.188.094.25.14.313.203.047.063.094.125.203.329C2.86.452 3.766-1.204 3.766-2.72zm0 0"/></svg><svg overflow="visible" x="103.394" y="6.728"><path d="M4.703-2.11c0-.421-.25-.89-.594-1.124a2.225 2.225 0 00-.703-.282c.531-.375.86-.875.86-1.406 0-.781-.86-1.437-1.938-1.437-.64 0-1.203.203-1.687.656L.312-4.406h.594l.219-.625c.11-.297.563-.469 1.063-.469.624 0 .984.328.984.89 0 .673-.406 1.094-1.094 1.094-.078 0-.36.204-.36.204l-.265-.094-.125.515.203.157c.407-.172.594-.22.844-.22.813 0 1.11.329 1.11 1.142 0 .906-.422 1.359-1.329 1.359-.437 0-.719-.094-1.015-.344C.906-.984.828-1.094.578-1.75l-.531.188c.234.609.312.937.375 1.468C1.078.11 1.5.172 1.859.172c.782 0 1.766-.422 2.297-1.016.328-.375.547-.86.547-1.265zm0 0"/></svg><path d="M56.867 16.578h63.992" fill="none" stroke-width=".717" stroke="#000" stroke-miterlimit="10"/><svg overflow="visible" x="56.869" y="28.486"><path d="M3.703-5.516c-.453.047-.86.063-1.156.063.172-.984.297-1.578.531-2.25l-.25-.328a7.16 7.16 0 01-1.094.531l-.296 2.031c-.391.203-.704.328-1.063.407l-.047.406h1l-.64 3.25C.625-1.11.53-.813.53-.5c0 .297.266.61.5.61.422 0 .922-.282 1.86-1.032.218-.172.14-.125.437-.36l-.25-.437-.672.469c-.36.25-.484.313-.625.313-.093 0-.031.046-.031-.11 0-.297.156-1.234.516-3l.14-.61h1.266l.203-.89zm0 0"/></svg><g><svg overflow="visible" x="60.91" y="24.947"><path d="M4.703-2.11c0-.421-.25-.89-.594-1.124a2.225 2.225 0 00-.703-.282c.531-.375.86-.875.86-1.406 0-.781-.86-1.437-1.938-1.437-.64 0-1.203.203-1.687.656L.312-4.406h.594l.219-.625c.11-.297.563-.469 1.063-.469.624 0 .984.328.984.89 0 .673-.406 1.094-1.094 1.094-.078 0-.36.204-.36.204l-.265-.094-.125.515.203.157c.407-.172.594-.22.844-.22.813 0 1.11.329 1.11 1.142 0 .906-.422 1.359-1.329 1.359-.437 0-.719-.094-1.015-.344C.906-.984.828-1.094.578-1.75l-.531.188c.234.609.312.937.375 1.468C1.078.11 1.5.172 1.859.172c.782 0 1.766-.422 2.297-1.016.328-.375.547-.86.547-1.265zm0 0"/></svg></g><g><svg overflow="visible" x="69.063" y="28.486"><path d="M8.266-2.766a1.332 1.332 0 01-.047-.359c0-.11.015-.234.062-.484h-3.25v-3.266c-.25.063-.375.078-.484.078-.125 0-.25-.016-.5-.078v3.266H.78c.063.25.063.375.063.484 0 .125 0 .25-.063.5h3.266V.641c.25-.063.375-.079.5-.079.11 0 .234.016.484.079v-3.266h3.25zm0 0"/></svg></g><g><svg overflow="visible" x="80.803" y="28.486"><path d="M4.203-7.828a.735.735 0 01-.187-.14c-.063-.063-.11-.126-.22-.329-1.593 1.61-2.5 3.266-2.5 4.781v.797c0 1.516.907 3.172 2.5 4.781.11-.203.157-.265.22-.328.062-.062.125-.109.312-.203C2.875.063 2.281-1.344 2.281-2.719v-.797c0-1.39.594-2.78 2.047-4.25zm0 0"/></svg><svg overflow="visible" x="85.872" y="28.486"><path d="M5.125-.094v-.484l-.75-.047c-.656-.031-.64-.031-.64-.656v-7.172l-.313-.125c-.875.469-1.61.781-2.86 1.219l.125.718h.235l1.547-.687.031-.016c.063 0-.047-.015-.047.266v5.797c0 .625.016.625-.64.656L1-.578v.625L3.125 0l2 .047zm0 0"/></svg></g><g><svg overflow="visible" x="94.504" y="28.486"><path d="M8.266-2.766a1.332 1.332 0 01-.047-.359c0-.11.015-.234.062-.484h-7.5c.063.25.063.375.063.484 0 .125 0 .25-.063.5h7.5zm0 0"/></svg></g><g><svg overflow="visible" x="106.244" y="28.486"><path d="M3.703-5.516c-.453.047-.86.063-1.156.063.172-.984.297-1.578.531-2.25l-.25-.328a7.16 7.16 0 01-1.094.531l-.296 2.031c-.391.203-.704.328-1.063.407l-.047.406h1l-.64 3.25C.625-1.11.53-.813.53-.5c0 .297.266.61.5.61.422 0 .922-.282 1.86-1.032.218-.172.14-.125.437-.36l-.25-.437-.672.469c-.36.25-.484.313-.625.313-.093 0-.031.046-.031-.11 0-.297.156-1.234.516-3l.14-.61h1.266l.203-.89zm0 0"/></svg></g><g><svg overflow="visible" x="110.285" y="28.486"><path d="M3.766-2.719v-.797c0-1.515-.907-3.171-2.516-4.78-.11.202-.156.265-.203.327-.063.063-.125.11-.313.203 1.438 1.47 2.032 2.86 2.032 4.25v.797c0 1.375-.594 2.781-2.032 4.25.188.094.25.14.313.203.047.063.094.125.203.329C2.86.452 3.766-1.204 3.766-2.72zm0 0"/></svg></g><g><svg overflow="visible" x="115.363" y="24.947"><path d="M4.703-2.11c0-.421-.25-.89-.594-1.124a2.225 2.225 0 00-.703-.282c.531-.375.86-.875.86-1.406 0-.781-.86-1.437-1.938-1.437-.64 0-1.203.203-1.687.656L.312-4.406h.594l.219-.625c.11-.297.563-.469 1.063-.469.624 0 .984.328.984.89 0 .673-.406 1.094-1.094 1.094-.078 0-.36.204-.36.204l-.265-.094-.125.515.203.157c.407-.172.594-.22.844-.22.813 0 1.11.329 1.11 1.142 0 .906-.422 1.359-1.329 1.359-.437 0-.719-.094-1.015-.344C.906-.984.828-1.094.578-1.75l-.531.188c.234.609.312.937.375 1.468C1.078.11 1.5.172 1.859.172c.782 0 1.766-.422 2.297-1.016.328-.375.547-.86.547-1.265zm0 0"/></svg></g></svg>