<svg xmlns="http://www.w3.org/2000/svg" xmlns:xlink="http://www.w3.org/1999/xlink" width="132" height="75px" viewBox="0 0 99 56"><svg overflow="visible" x="-.588" y="10.488"><path d="M5.984-7.14c-.03-.063-.03-.048-.062-.11-.016-.094-.016-.172-.016-.406-1.812.468-3.031 1.843-3.031 3.953V0h1.219v-3.703c0-1.719.422-2.828 1.984-3.25zm0 0"/></svg><svg overflow="visible" x="-.588" y="16.602"><path d="M4.094-.125v-7.266H2.875V0h1.219zm0 0"/></svg><svg overflow="visible" x="-.588" y="21.993"><path d="M4.094-.125v-7.266H2.875V0h1.219zm0 0"/></svg><svg overflow="visible" x="-.588" y="35.257"><path d="M4.094-.125v-3.578c0-1.922-.766-3.235-1.782-3.703v.265c1.016-.468 1.782-1.765 1.782-3.687v-3.703H2.875v3.703c0 2.062-.36 3.187-1.922 3.187.078.204.094.297.094.375 0 .079-.016.172-.094.375 1.563 0 1.922 1.125 1.922 3.188V0h1.219zm0 0"/></svg><svg overflow="visible" x="-.588" y="41.372"><path d="M4.094-.125v-7.266H2.875V0h1.219zm0 0"/></svg><svg overflow="visible" x="-.588" y="46.762"><path d="M4.094-.125v-7.266H2.875V0h1.219zm0 0"/></svg><svg overflow="visible" x="-.588" y="53.116"><path d="M5.89-.734c-1.374-.36-1.796-1.47-1.796-3.188v-3.703H2.875v3.703c0 2.094 1.219 3.469 3.031 3.969 0-.266 0-.344.016-.422.031-.078.031-.063.156-.313zm0 0"/></svg><svg overflow="visible" x="6.453" y="18.056"><path d="M5.828-4.719c0-.687-.437-1.312-.875-1.312-.14 0-.406.093-.5.187l-.656.625.25.453c.25-.171.266-.171.375-.171.328 0 .375.14.375.625 0 1.765-1.016 3.578-2.078 3.578-.578 0-.813-.36-.813-1.141 0-1.25.422-2.25 1.657-3.781l-.235-.407c-.281.141-.437.188-.765.188-.5 0-.985-.047-1.47-.094-.155 0-.25.032-.5.125-.155.328-.327.844-.515 1.64h.5l.266-.64c.094-.203.203-.203.484-.203.219 0 .438.031.656.031.25 0 .438-.015.75-.046l-.109-.235C1.297-3.859.765-2.766.765-1.578c0 .922.688 1.703 1.454 1.703.5 0 1.062-.25 1.61-.734C4.39-1.125 5-2.016 5.358-2.844c.266-.594.47-1.406.47-1.875zm0 0"/></svg><svg overflow="visible" x="12.431" y="20.83"><path d="M4.266-.11V-.5l-.657-.031c-.515-.031-.468.015-.468-.453v-5.329l-.282-.093c-.625.297-1.312.562-2.375.906l.11.594h.234l1.25-.516.031-.016c.047 0-.078-.046-.078.172v4.282c0 .468.047.421-.469.453L.86-.5v.531L2.594 0l1.672.031zm0 0"/></svg><svg overflow="visible" x="21.249" y="18.056"><path d="M8.266-4.078a1.419 1.419 0 01-.047-.36c0-.109.015-.234.062-.484h-7.5c.063.25.063.375.063.484 0 .125 0 .235-.063.5h7.5zm0 2.625a1.332 1.332 0 01-.047-.36c0-.109.015-.234.062-.484h-7.5c.063.25.063.375.063.485 0 .125 0 .25-.063.5h7.5zm0 0"/></svg><svg overflow="visible" x="33.647" y="18.056"><path d="M8.219-.094v-.453L7.78-.594c-.562-.062-.468.047-.531-.5L6.187-8.687h-.734l-4.5 7.124C.531-.89.422-.734.016-.64l-.391.079v.609L1.109 0c.438 0 .86.016 1.407.047v-.61l-.75-.03c-.204-.016-.235.015-.235-.095 0-.093.032-.156.282-.562L3-3.313h2.75l.297 2.266c.016.11.031.203.031.266 0 .187-.047.156-.375.187l-.672.031v.61L6.641 0l1.578.047zM5.813-4H3.469l2-3.219-.25-.093L5.656-4zm0 0"/></svg><svg overflow="visible" x="42.287" y="13.824"><path d="M2.594-4.672l-.203-.187-1.094.39-.89 3.36.312.234.5-.25 1.437-3.484zm0 0"/></svg><svg overflow="visible" x="48.512" y="18.056"><path d="M8.266-2.766a1.332 1.332 0 01-.047-.359c0-.11.015-.234.062-.484h-7.5c.063.25.063.375.063.484 0 .125 0 .25-.063.5h7.5zm0 0"/></svg><svg overflow="visible" x="61.451" y="9.448"><path d="M8.219-.094v-.453L7.78-.594c-.562-.062-.468.047-.531-.5L6.187-8.687h-.734l-4.5 7.124C.531-.89.422-.734.016-.64l-.391.079v.609L1.109 0c.438 0 .86.016 1.407.047v-.61l-.75-.03c-.204-.016-.235.015-.235-.095 0-.093.032-.156.282-.562L3-3.313h2.75l.297 2.266c.016.11.031.203.031.266 0 .187-.047.156-.375.187l-.672.031v.61L6.641 0l1.578.047zM5.813-4H3.469l2-3.219-.25-.093L5.656-4zm0 0"/></svg><svg overflow="visible" x="70.082" y="5.215"><path d="M2.594-4.672l-.203-.187-1.094.39-.89 3.36.312.234.5-.25 1.437-3.484zm0 0"/></svg><svg overflow="visible" x="76.307" y="9.448"><path d="M8.266-2.766a1.332 1.332 0 01-.047-.359c0-.11.015-.234.062-.484h-7.5c.063.25.063.375.063.484 0 .125 0 .25-.063.5h7.5zm0 0"/></svg><svg overflow="visible" x="88.047" y="9.448"><path d="M4.61-4.953c0-.563-.532-1.078-1.141-1.078-.781 0-2.188.843-2.672 1.61C.437-3.845.03-2.313.03-1.47.031-.547.703.125 1.563.125 2.25.125 3-.235 4.171-1.188l-.203-.468-.438.312c-.64.453-1.11.657-1.531.657-.578 0-.781-.313-.781-1.047 0-.313.031-.61.078-.844l.86-.219c.202-.047.515-.172.827-.297C4-3.547 4.61-4.219 4.61-4.954zm-1.173.187c0 .516-.265.954-.89 1.25a5.596 5.596 0 01-1.125.375l.062-.265c.188-.797.391-1.219.72-1.516.218-.219.515-.344.812-.344.343 0 .421.11.421.5zm0 0"/></svg><svg overflow="visible" x="92.701" y="12.222"><path d="M4.266-.11V-.5l-.657-.031c-.515-.031-.468.015-.468-.453v-5.329l-.282-.093c-.625.297-1.312.562-2.375.906l.11.594h.234l1.25-.516.031-.016c.047 0-.078-.046-.078.172v4.282c0 .468.047.421-.469.453L.86-.5v.531L2.594 0l1.672.031zm0 0"/></svg><path d="M61.45 15.066h36.745" fill="none" stroke-width=".717" stroke="#000" stroke-miterlimit="10"/><svg overflow="visible" x="67.615" y="26.019"><path d="M5.125-.094v-.484l-.75-.047c-.656-.031-.64-.031-.64-.656v-7.172l-.313-.125c-.875.469-1.61.781-2.86 1.219l.125.718h.235l1.547-.687.031-.016c.063 0-.047-.015-.047.266v5.797c0 .625.016.625-.64.656L1-.578v.625L3.125 0l2 .047zm0 0"/></svg><svg overflow="visible" x="76.247" y="26.019"><path d="M8.266-2.766a1.332 1.332 0 01-.047-.359c0-.11.015-.234.062-.484h-7.5c.063.25.063.375.063.484 0 .125 0 .25-.063.5h7.5zm0 0"/></svg><svg overflow="visible" x="87.987" y="26.019"><path d="M3.703-5.516c-.453.047-.86.063-1.156.063.172-.984.297-1.578.531-2.25l-.25-.328a7.16 7.16 0 01-1.094.531l-.296 2.031c-.391.203-.704.328-1.063.407l-.047.406h1l-.64 3.25C.625-1.11.53-.813.53-.5c0 .297.266.61.5.61.422 0 .922-.282 1.86-1.032.218-.172.14-.125.437-.36l-.25-.437-.672.469c-.36.25-.484.313-.625.313-.093 0-.031.046-.031-.11 0-.297.156-1.234.516-3l.14-.61h1.266l.203-.89zm0 0"/></svg><svg overflow="visible" x="6.453" y="47.536"><path d="M5.828-4.719c0-.687-.437-1.312-.875-1.312-.14 0-.406.093-.5.187l-.656.625.25.453c.25-.171.266-.171.375-.171.328 0 .375.14.375.625 0 1.765-1.016 3.578-2.078 3.578-.578 0-.813-.36-.813-1.141 0-1.25.422-2.25 1.657-3.781l-.235-.407c-.281.141-.437.188-.765.188-.5 0-.985-.047-1.47-.094-.155 0-.25.032-.5.125-.155.328-.327.844-.515 1.64h.5l.266-.64c.094-.203.203-.203.484-.203.219 0 .438.031.656.031.25 0 .438-.015.75-.046l-.109-.235C1.297-3.859.765-2.766.765-1.578c0 .922.688 1.703 1.454 1.703.5 0 1.062-.25 1.61-.734C4.39-1.125 5-2.016 5.358-2.844c.266-.594.47-1.406.47-1.875zm0 0"/></svg><svg overflow="visible" x="12.431" y="50.31"><path d="M4.75-.11c-.016-.187-.016-.265-.016-.39s0-.203.032-.547l-3.141.094 1.5-1.469c.938-.906 1.266-1.5 1.266-2.156 0-1.016-.891-1.781-2.125-1.781-.688 0-1.282.218-1.782.687L.297-4.266h.547l.172-.546c.156-.516.359-.594 1-.594.828 0 1.203.343 1.203 1.093 0 .657-.36 1.22-1.453 2.282L.078-.391v.422L2.391 0l2.375.031zm0 0"/></svg><svg overflow="visible" x="21.249" y="47.536"><path d="M8.266-4.078a1.419 1.419 0 01-.047-.36c0-.109.015-.234.062-.484h-7.5c.063.25.063.375.063.484 0 .125 0 .235-.063.5h7.5zm0 2.625a1.332 1.332 0 01-.047-.36c0-.109.015-.234.062-.484h-7.5c.063.25.063.375.063.485 0 .125 0 .25-.063.5h7.5zm0 0"/></svg><svg overflow="visible" x="33.647" y="47.536"><path d="M8.219-.094v-.453L7.78-.594c-.562-.062-.468.047-.531-.5L6.187-8.687h-.734l-4.5 7.124C.531-.89.422-.734.016-.64l-.391.079v.609L1.109 0c.438 0 .86.016 1.407.047v-.61l-.75-.03c-.204-.016-.235.015-.235-.095 0-.093.032-.156.282-.562L3-3.313h2.75l.297 2.266c.016.11.031.203.031.266 0 .187-.047.156-.375.187l-.672.031v.61L6.641 0l1.578.047zM5.813-4H3.469l2-3.219-.25-.093L5.656-4zm0 0"/></svg><svg overflow="visible" x="42.287" y="43.303"><path d="M2.594-4.672l-.203-.187-1.094.39-.89 3.36.312.234.5-.25 1.437-3.484zm0 0"/></svg><svg overflow="visible" x="48.512" y="47.536"><path d="M8.266-2.766a1.332 1.332 0 01-.047-.359c0-.11.015-.234.062-.484h-7.5c.063.25.063.375.063.484 0 .125 0 .25-.063.5h7.5zm0 0"/></svg><svg overflow="visible" x="61.451" y="38.927"><path d="M8.219-.094v-.453L7.78-.594c-.562-.062-.468.047-.531-.5L6.187-8.687h-.734l-4.5 7.124C.531-.89.422-.734.016-.64l-.391.079v.609L1.109 0c.438 0 .86.016 1.407.047v-.61l-.75-.03c-.204-.016-.235.015-.235-.095 0-.093.032-.156.282-.562L3-3.313h2.75l.297 2.266c.016.11.031.203.031.266 0 .187-.047.156-.375.187l-.672.031v.61L6.641 0l1.578.047zM5.813-4H3.469l2-3.219-.25-.093L5.656-4zm0 0"/></svg><svg overflow="visible" x="70.082" y="34.695"><path d="M2.594-4.672l-.203-.187-1.094.39-.89 3.36.312.234.5-.25 1.437-3.484zm0 0"/></svg><svg overflow="visible" x="76.307" y="38.927"><path d="M8.266-2.766a1.332 1.332 0 01-.047-.359c0-.11.015-.234.062-.484h-7.5c.063.25.063.375.063.484 0 .125 0 .25-.063.5h7.5zm0 0"/></svg><svg overflow="visible" x="88.047" y="38.927"><path d="M4.61-4.953c0-.563-.532-1.078-1.141-1.078-.781 0-2.188.843-2.672 1.61C.437-3.845.03-2.313.03-1.47.031-.547.703.125 1.563.125 2.25.125 3-.235 4.171-1.188l-.203-.468-.438.312c-.64.453-1.11.657-1.531.657-.578 0-.781-.313-.781-1.047 0-.313.031-.61.078-.844l.86-.219c.202-.047.515-.172.827-.297C4-3.547 4.61-4.219 4.61-4.954zm-1.173.187c0 .516-.265.954-.89 1.25a5.596 5.596 0 01-1.125.375l.062-.265c.188-.797.391-1.219.72-1.516.218-.219.515-.344.812-.344.343 0 .421.11.421.5zm0 0"/></svg><svg overflow="visible" x="92.701" y="41.701"><path d="M4.75-.11c-.016-.187-.016-.265-.016-.39s0-.203.032-.547l-3.141.094 1.5-1.469c.938-.906 1.266-1.5 1.266-2.156 0-1.016-.891-1.781-2.125-1.781-.688 0-1.282.218-1.782.687L.297-4.266h.547l.172-.546c.156-.516.359-.594 1-.594.828 0 1.203.343 1.203 1.093 0 .657-.36 1.22-1.453 2.282L.078-.391v.422L2.391 0l2.375.031zm0 0"/></svg><path d="M61.45 44.547h36.745" fill="none" stroke-width=".717" stroke="#000" stroke-miterlimit="10"/><svg overflow="visible" x="77.804" y="55.499"><path d="M3.703-5.516c-.453.047-.86.063-1.156.063.172-.984.297-1.578.531-2.25l-.25-.328a7.16 7.16 0 01-1.094.531l-.296 2.031c-.391.203-.704.328-1.063.407l-.047.406h1l-.64 3.25C.625-1.11.53-.813.53-.5c0 .297.266.61.5.61.422 0 .922-.282 1.86-1.032.218-.172.14-.125.437-.36l-.25-.437-.672.469c-.36.25-.484.313-.625.313-.093 0-.031.046-.031-.11 0-.297.156-1.234.516-3l.14-.61h1.266l.203-.89zm0 0"/></svg></svg>