<svg xmlns="http://www.w3.org/2000/svg" xmlns:xlink="http://www.w3.org/1999/xlink" width="245px" height="41px" viewBox="0 0 184 31"><svg overflow="visible" x="-.077" y="19.569"><path d="M4.594-5.953c-.14-.063-.188-.078-.25-.078-.36 0-.844.328-1.266.937-.406.594-.86 1.25-1.172 1.907h.282L2.5-4.704c.063-.25.14-.531.14-.813 0-.234-.218-.515-.406-.515-.25 0-.812.297-1.703.922l-.39.296.187.485.547-.36c.328-.218.375-.234.469-.234.125 0 .062-.031.062.125 0 .703-.515 3.156-1 4.75l.235.172c.296-.094.562-.156.953-.203l.328-1.563c.219-.984.453-1.53.984-2.203.406-.531.625-.75.89-.75.188 0 .204.032.36.235h.36c.046-.594.109-.97.218-1.532zm0 0"/></svg><svg overflow="visible" x="4.849" y="19.569"><path d="M4.984-1.14l-.156-.485c-.25.203-.266.219-.328.266-.375.312-.453.39-.625.39-.125 0-.047.031-.047-.156 0-.047 0-.078.016-.125l1.11-4.578-.25-.203-.438.218c-.438-.156-.672-.218-.985-.218-.344 0-.578.062-.906.218-.75.375-1.234.766-1.531 1.36l-.047.094C.28-3.297-.093-1.875-.093-.922c0 .516.327 1.047.546 1.047.25 0 .797-.281 1.234-.656.516-.453.985-1.016 1.641-1.938l-.234-.094-.344 1.516a2.715 2.715 0 00-.078.61c0 .265.25.562.437.562.266 0 .86-.36 1.891-1.219zM3.672-5.079c-.266 1.281-.453 1.797-.844 2.406C2.156-1.656 1.516-.969 1.125-.969c-.14 0-.078-.015-.078-.344 0-.765.297-2.093.719-3.093.296-.688.453-.766 1.03-.766.282 0 .5.047.86.172zm0 0"/></svg><svg overflow="visible" x="10.157" y="19.569"><path d="M3.703-5.516c-.453.047-.86.063-1.156.063.172-.984.297-1.578.531-2.25l-.25-.328a7.16 7.16 0 01-1.094.531l-.296 2.031c-.391.203-.704.328-1.063.407l-.047.406h1l-.64 3.25C.625-1.11.53-.813.53-.5c0 .297.266.61.5.61.422 0 .922-.282 1.86-1.032.218-.172.14-.125.437-.36l-.25-.437-.672.469c-.36.25-.484.313-.625.313-.093 0-.031.046-.031-.11 0-.297.156-1.234.516-3l.14-.61h1.266l.203-.89zm0 0"/></svg><svg overflow="visible" x="14.198" y="19.569"><path d="M2.969-1.25l-.172-.297-.453.297c-.36.234-.5.313-.625.313-.078 0-.016.03-.016-.11 0-.11 0-.203.078-.469l.922-3.64c.047-.203.063-.313.063-.422 0-.203-.22-.453-.422-.453-.266 0-.797.281-1.703.922l-.407.296.188.485.547-.36c.344-.218.375-.234.484-.234.11 0 .047-.031.047.11 0 .109-.047.359-.094.53L.625-1.405c-.11.375-.156.672-.156.922 0 .28.265.593.5.593.312 0 .844-.296 2.078-1.218zm.344-6.406c0-.282-.313-.61-.563-.61-.36 0-.844.516-.844.922 0 .297.328.625.625.625.375 0 .781-.484.781-.937zm0 0"/></svg><svg overflow="visible" x="17.712" y="19.569"><path d="M5.047-4.094c0-1.125-.734-1.937-1.719-1.937-.515 0-1.187.25-1.719.625-.968.703-1.546 2-1.546 3.453C.063-.687.734.125 1.734.125c.657 0 1.47-.344 2-.844.75-.703 1.313-2.156 1.313-3.375zm-1.188.203C3.86-2.75 3.531-1.578 3-.937c-.219.25-.422.359-.781.359-.703 0-.969-.406-.969-1.36 0-1.343.422-2.718 1.016-3.203.156-.125.328-.171.609-.171.734 0 .984.406.984 1.421zm0 0"/></svg><svg overflow="visible" x="23.02" y="19.569"><path d="M4.203-7.828a.735.735 0 01-.187-.14c-.063-.063-.11-.126-.22-.329-1.593 1.61-2.5 3.266-2.5 4.781v.797c0 1.516.907 3.172 2.5 4.781.11-.203.157-.265.22-.328.062-.062.125-.109.312-.203C2.875.063 2.281-1.344 2.281-2.719v-.797c0-1.39.594-2.78 2.047-4.25zm0 0"/></svg><svg overflow="visible" x="28.089" y="19.569"><path d="M3.703-5.516c-.453.047-.86.063-1.156.063.172-.984.297-1.578.531-2.25l-.25-.328a7.16 7.16 0 01-1.094.531l-.296 2.031c-.391.203-.704.328-1.063.407l-.047.406h1l-.64 3.25C.625-1.11.53-.813.53-.5c0 .297.266.61.5.61.422 0 .922-.282 1.86-1.032.218-.172.14-.125.437-.36l-.25-.437-.672.469c-.36.25-.484.313-.625.313-.093 0-.031.046-.031-.11 0-.297.156-1.234.516-3l.14-.61h1.266l.203-.89zm0 0"/></svg><svg overflow="visible" x="32.13" y="19.569"><path d="M3.766-2.719v-.797c0-1.515-.907-3.171-2.516-4.78-.11.202-.156.265-.203.327-.063.063-.125.11-.313.203 1.438 1.47 2.032 2.86 2.032 4.25v.797c0 1.375-.594 2.781-2.032 4.25.188.094.25.14.313.203.047.063.094.125.203.329C2.86.452 3.766-1.204 3.766-2.72zm0 0"/></svg><svg overflow="visible" x="37.199" y="22.343"><path d="M4.25-4.453l-.156-.063-.313.188c-.39-.14-.672-.203-.953-.203-.265 0-.61.11-.875.265-.36.188-.781.5-.984.735-.39.406-.813 1.797-.813 2.703 0 .531.281.922.5.922.219 0 .516-.094.828-.297l.079-.047c.609-.438 1.234-1.047 1.609-1.64l-.266-.094-.734 3.671c-.047.204-.11.282-.313.485l.22.281c.374-.078.671-.14 1.046-.172.047-.594.11-1.094.188-1.531l.828-4.031a8.61 8.61 0 01.28-1.11zm-.938.734l-.203.828c-.109.454-.265.75-.64 1.157-.485.562-.969.953-1.235.953-.14 0-.062-.063-.062-.344 0-.86.36-2.078.766-2.531.109-.125.296-.172.593-.172.266 0 .469.047.766.172zm0 0"/></svg><svg overflow="visible" x="41.844" y="22.343"><path d="M5.125-.984l-.156-.25-.407.25c-.234.14-.359.203-.484.203-.062 0 .031.062.031-.031 0-.11.032-.235.063-.344l.812-3.188-.156-.203-.844.203-.125.547c-.156.672-.343 1.172-.609 1.578C2.672-1.406 2.016-.78 1.625-.78c-.094 0 .016.047.016-.11 0-.125.015-.218.078-.453l.547-2.39c.03-.141.046-.266.046-.391 0-.172-.218-.406-.359-.406-.203 0-.672.218-1.406.687l-.328.235.172.421.484-.28c.281-.173.281-.173.36-.173.093 0 0-.062 0 .047 0 .031 0 .11-.016.156L.609-.812a3.115 3.115 0 00-.03.421c0 .204.296.485.484.485.625 0 1.89-1.016 2.703-2.25L3.5-2.25 3.14-.984a1.84 1.84 0 00-.109.578c0 .219.266.5.453.5.25 0 .704-.25 1.72-.938zm0 0"/></svg><svg overflow="visible" x="47.382" y="22.343"><path d="M4.156-.89L4-1.298c-.25.188-.266.188-.297.234-.312.235-.344.282-.5.282-.094 0 .016.062.016-.078 0-.047 0-.063.015-.094l.891-3.39-.25-.204-.344.172c-.36-.125-.547-.156-.797-.156-.28 0-.468.047-.734.156-.61.281-1.031.578-1.266 1.016C.313-2.58-.03-1.422-.03-.72c0 .375.312.813.484.813.203 0 .672-.219 1.031-.5.407-.328.782-.75 1.313-1.438l-.266-.093-.265 1.125a1.58 1.58 0 00-.063.453c0 .203.25.453.39.453.22 0 .72-.281 1.579-.938zM3-3.798c-.203.953-.344 1.313-.672 1.766-.531.734-1.015 1.25-1.344 1.25-.109 0-.015.015-.015-.235 0-.562.25-1.546.594-2.28.218-.5.312-.532.78-.532.22 0 .407.031.641.11zm0 0"/></svg><svg overflow="visible" x="51.84" y="22.343"><path d="M4.844-6.61l-.188-.156c-.531.25-.875.329-1.703.391l-.094.453h.657c.218 0 .156-.078.156.078 0 .063 0 .14-.016.203l-.234 1.204a2.544 2.544 0 00-.656-.094c-.672 0-1.704.672-2.141 1.437C.328-2.578.094-1.64.094-.89c0 .579.297.985.578.985.265 0 .719-.188 1.047-.422.531-.39.843-.734 1.484-1.625l-.265-.094-.22.797c-.093.39-.14.672-.14.906 0 .188.235.438.406.438.157 0 .5-.157.829-.375l.859-.578-.234-.422-.594.375c-.125.094-.172.125-.25.125-.078 0 0 .047 0-.078 0-.063.031-.157.078-.407l1.234-5.296zM3.297-3.765l-.125.532C3-2.454 2.578-1.781 1.984-1.25c-.343.281-.609.469-.796.469-.157 0-.094 0-.094-.219 0-1.11.406-2.39.875-2.734.125-.094.203-.094.468-.094.422 0 .688.047.844.125zm0 0"/></svg><svg overflow="visible" x="56.839" y="22.343"><path d="M3.797-4.469c-.11-.047-.156-.062-.203-.062-.297 0-.703.25-1.063.703-.328.437-.656.86-.906 1.328l.266.11.265-1.126c.031-.187.11-.39.11-.593 0-.188-.235-.422-.375-.422-.204 0-.672.218-1.391.687l-.344.235.172.421.5-.28c.266-.173.266-.173.344-.173.11 0 .016-.062.016.063 0 .515-.422 2.328-.829 3.515l.235.157c.25-.078.469-.11.812-.172l.282-1.172c.171-.734.343-1.11.765-1.61.328-.39.485-.53.703-.53.14 0 .125 0 .266.156h.36c.03-.47.077-.75.171-1.172zm0 0"/></svg><svg overflow="visible" x="60.882" y="22.343"><path d="M4.156-.89L4-1.298c-.25.188-.266.188-.297.234-.312.235-.344.282-.5.282-.094 0 .016.062.016-.078 0-.047 0-.063.015-.094l.891-3.39-.25-.204-.344.172c-.36-.125-.547-.156-.797-.156-.28 0-.468.047-.734.156-.61.281-1.031.578-1.266 1.016C.313-2.58-.03-1.422-.03-.72c0 .375.312.813.484.813.203 0 .672-.219 1.031-.5.407-.328.782-.75 1.313-1.438l-.266-.093-.265 1.125a1.58 1.58 0 00-.063.453c0 .203.25.453.39.453.22 0 .72-.281 1.579-.938zM3-3.798c-.203.953-.344 1.313-.672 1.766-.531.734-1.015 1.25-1.344 1.25-.109 0-.015.015-.015-.235 0-.562.25-1.546.594-2.28.218-.5.312-.532.78-.532.22 0 .407.031.641.11zm0 0"/></svg><svg overflow="visible" x="65.341" y="22.343"><path d="M3.078-4.156c-.375.031-.703.047-.89.047.124-.688.234-1.125.421-1.625l-.234-.282c-.344.172-.484.25-.922.407L1.22-4.094a5.586 5.586 0 01-.86.297l-.046.344h.796L.594-1.078C.547-.86.469-.641.469-.406c0 .219.265.484.453.484.328 0 .765-.203 1.531-.765.172-.125.11-.094.375-.282l-.234-.39L2-.984c-.297.171-.36.218-.484.218-.063 0 .03.063.03-.046 0-.22.11-.907.423-2.22l.078-.421h1.047l.172-.719zm0 0"/></svg><svg overflow="visible" x="68.729" y="22.343"><path d="M2.516-.984l-.157-.25-.406.25c-.297.171-.375.218-.469.218-.078 0 .016.063.016-.046 0-.079.016-.157.063-.344l.75-2.688c.046-.156.062-.234.062-.328 0-.14-.234-.36-.39-.36-.22 0-.688.22-1.407.688l-.344.235.172.421.5-.28c.266-.173.266-.173.344-.173.11 0 0-.062 0 .047 0 .078-.031.266-.063.39l-.64 2.126c-.094.281-.125.5-.125.687 0 .204.266.47.437.47.266 0 .72-.235 1.735-.923zm.28-4.72c0-.202-.28-.484-.483-.484-.297 0-.735.422-.735.72 0 .218.313.5.547.5.313 0 .672-.391.672-.735zm0 0"/></svg><svg overflow="visible" x="71.631" y="22.343"><path d="M3.938-4.281c-.235-.14-.657-.25-1.032-.25-.437 0-1.219.343-1.781.797-.547.437-.953 1.453-.953 2.406C.172-.484.734.094 1.5.094c.531 0 1.094-.203 1.625-.61l.547-.406-.188-.437-.312.203c-.703.422-.953.531-1.281.531-.547 0-.672-.219-.672-.906 0-.938.281-1.766.734-2.11.203-.156.344-.187.64-.187.454 0 .641.031.641.25v.656h.5c.11-.703.172-1.031.266-1.312zm0 0"/></svg><svg overflow="visible" x="79.555" y="19.569"><path d="M8.266-4.078a1.419 1.419 0 01-.047-.36c0-.109.015-.234.062-.484h-7.5c.063.25.063.375.063.484 0 .125 0 .235-.063.5h7.5zm0 2.625a1.332 1.332 0 01-.047-.36c0-.109.015-.234.062-.484h-7.5c.063.25.063.375.063.485 0 .125 0 .25-.063.5h7.5zm0 0"/></svg><svg overflow="visible" x="91.962" y="11.728"><path d="M1.86-.125v-9.688c-.266.063-.391.079-.516.079-.14 0-.25-.016-.532-.079V0H1.86zm0 0"/></svg><svg overflow="visible" x="91.962" y="18.864"><path d="M1.86-.125v-9.656H.811V0H1.86zm0 0"/></svg><svg overflow="visible" x="91.962" y="23.812"><path d="M1.86-.125v-9.656H.811V0H1.86zm0 0"/></svg><svg overflow="visible" x="91.962" y="30.948"><path d="M1.86-.125v-9.656H.811V.03c.282-.062.391-.062.532-.062.125 0 .25 0 .515.062zm0 0"/></svg><svg overflow="visible" x="95.836" y="10.961"><path d="M3.703-5.516c-.453.047-.86.063-1.156.063.172-.984.297-1.578.531-2.25l-.25-.328a7.16 7.16 0 01-1.094.531l-.296 2.031c-.391.203-.704.328-1.063.407l-.047.406h1l-.64 3.25C.625-1.11.53-.813.53-.5c0 .297.266.61.5.61.422 0 .922-.282 1.86-1.032.218-.172.14-.125.437-.36l-.25-.437-.672.469c-.36.25-.484.313-.625.313-.093 0-.031.046-.031-.11 0-.297.156-1.234.516-3l.14-.61h1.266l.203-.89zm0 0"/></svg><svg overflow="visible" x="99.877" y="6.728"><path d="M4.75-.11c-.016-.187-.016-.265-.016-.39s0-.203.032-.547l-3.141.094 1.5-1.469c.938-.906 1.266-1.5 1.266-2.156 0-1.016-.891-1.781-2.125-1.781-.688 0-1.282.218-1.782.687L.297-4.266h.547l.172-.546c.156-.516.359-.594 1-.594.828 0 1.203.343 1.203 1.093 0 .657-.36 1.22-1.453 2.282L.078-.391v.422L2.391 0l2.375.031zm0 0"/></svg><svg overflow="visible" x="108.03" y="10.961"><path d="M8.266-2.766a1.332 1.332 0 01-.047-.359c0-.11.015-.234.062-.484h-3.25v-3.266c-.25.063-.375.078-.484.078-.125 0-.25-.016-.5-.078v3.266H.78c.063.25.063.375.063.484 0 .125 0 .25-.063.5h3.266V.641c.25-.063.375-.079.5-.079.11 0 .234.016.484.079v-3.266h3.25zm0 0"/></svg><svg overflow="visible" x="119.77" y="10.961"><path d="M4.203-7.828a.735.735 0 01-.187-.14c-.063-.063-.11-.126-.22-.329-1.593 1.61-2.5 3.266-2.5 4.781v.797c0 1.516.907 3.172 2.5 4.781.11-.203.157-.265.22-.328.062-.062.125-.109.312-.203C2.875.063 2.281-1.344 2.281-2.719v-.797c0-1.39.594-2.78 2.047-4.25zm0 0"/></svg><svg overflow="visible" x="124.839" y="10.961"><path d="M5.125-.094v-.484l-.75-.047c-.656-.031-.64-.031-.64-.656v-7.172l-.313-.125c-.875.469-1.61.781-2.86 1.219l.125.718h.235l1.547-.687.031-.016c.063 0-.047-.015-.047.266v5.797c0 .625.016.625-.64.656L1-.578v.625L3.125 0l2 .047zm0 0"/></svg><svg overflow="visible" x="133.471" y="10.961"><path d="M8.266-2.766a1.332 1.332 0 01-.047-.359c0-.11.015-.234.062-.484h-7.5c.063.25.063.375.063.484 0 .125 0 .25-.063.5h7.5zm0 0"/></svg><svg overflow="visible" x="145.211" y="10.961"><path d="M3.703-5.516c-.453.047-.86.063-1.156.063.172-.984.297-1.578.531-2.25l-.25-.328a7.16 7.16 0 01-1.094.531l-.296 2.031c-.391.203-.704.328-1.063.407l-.047.406h1l-.64 3.25C.625-1.11.53-.813.53-.5c0 .297.266.61.5.61.422 0 .922-.282 1.86-1.032.218-.172.14-.125.437-.36l-.25-.437-.672.469c-.36.25-.484.313-.625.313-.093 0-.031.046-.031-.11 0-.297.156-1.234.516-3l.14-.61h1.266l.203-.89zm0 0"/></svg><svg overflow="visible" x="149.252" y="10.961"><path d="M3.766-2.719v-.797c0-1.515-.907-3.171-2.516-4.78-.11.202-.156.265-.203.327-.063.063-.125.11-.313.203 1.438 1.47 2.032 2.86 2.032 4.25v.797c0 1.375-.594 2.781-2.032 4.25.188.094.25.14.313.203.047.063.094.125.203.329C2.86.452 3.766-1.204 3.766-2.72zm0 0"/></svg><svg overflow="visible" x="154.33" y="6.728"><path d="M4.75-.11c-.016-.187-.016-.265-.016-.39s0-.203.032-.547l-3.141.094 1.5-1.469c.938-.906 1.266-1.5 1.266-2.156 0-1.016-.891-1.781-2.125-1.781-.688 0-1.282.218-1.782.687L.297-4.266h.547l.172-.546c.156-.516.359-.594 1-.594.828 0 1.203.343 1.203 1.093 0 .657-.36 1.22-1.453 2.282L.078-.391v.422L2.391 0l2.375.031zm0 0"/></svg><svg overflow="visible" x="162.483" y="10.961"><path d="M8.266-2.766a1.332 1.332 0 01-.047-.359c0-.11.015-.234.062-.484h-7.5c.063.25.063.375.063.484 0 .125 0 .25-.063.5h7.5zm0 0"/></svg><svg overflow="visible" x="174.223" y="10.961"><path d="M5.125-.094v-.484l-.75-.047c-.656-.031-.64-.031-.64-.656v-7.172l-.313-.125c-.875.469-1.61.781-2.86 1.219l.125.718h.235l1.547-.687.031-.016c.063 0-.047-.015-.047.266v5.797c0 .625.016.625-.64.656L1-.578v.625L3.125 0l2 .047zm0 0"/></svg><path d="M95.836 16.578h84.367" fill="none" stroke-width=".717" stroke="#000" stroke-miterlimit="10"/><svg overflow="visible" x="106.025" y="28.486"><path d="M3.703-5.516c-.453.047-.86.063-1.156.063.172-.984.297-1.578.531-2.25l-.25-.328a7.16 7.16 0 01-1.094.531l-.296 2.031c-.391.203-.704.328-1.063.407l-.047.406h1l-.64 3.25C.625-1.11.53-.813.53-.5c0 .297.266.61.5.61.422 0 .922-.282 1.86-1.032.218-.172.14-.125.437-.36l-.25-.437-.672.469c-.36.25-.484.313-.625.313-.093 0-.031.046-.031-.11 0-.297.156-1.234.516-3l.14-.61h1.266l.203-.89zm0 0"/></svg><svg overflow="visible" x="110.066" y="24.947"><path d="M4.75-.11c-.016-.187-.016-.265-.016-.39s0-.203.032-.547l-3.141.094 1.5-1.469c.938-.906 1.266-1.5 1.266-2.156 0-1.016-.891-1.781-2.125-1.781-.688 0-1.282.218-1.782.687L.297-4.266h.547l.172-.546c.156-.516.359-.594 1-.594.828 0 1.203.343 1.203 1.093 0 .657-.36 1.22-1.453 2.282L.078-.391v.422L2.391 0l2.375.031zm0 0"/></svg><g><svg overflow="visible" x="118.219" y="28.486"><path d="M8.266-2.766a1.332 1.332 0 01-.047-.359c0-.11.015-.234.062-.484h-3.25v-3.266c-.25.063-.375.078-.484.078-.125 0-.25-.016-.5-.078v3.266H.78c.063.25.063.375.063.484 0 .125 0 .25-.063.5h3.266V.641c.25-.063.375-.079.5-.079.11 0 .234.016.484.079v-3.266h3.25zm0 0"/></svg></g><g><svg overflow="visible" x="129.959" y="28.486"><path d="M4.203-7.828a.735.735 0 01-.187-.14c-.063-.063-.11-.126-.22-.329-1.593 1.61-2.5 3.266-2.5 4.781v.797c0 1.516.907 3.172 2.5 4.781.11-.203.157-.265.22-.328.062-.062.125-.109.312-.203C2.875.063 2.281-1.344 2.281-2.719v-.797c0-1.39.594-2.78 2.047-4.25zm0 0"/></svg><svg overflow="visible" x="135.028" y="28.486"><path d="M5.125-.094v-.484l-.75-.047c-.656-.031-.64-.031-.64-.656v-7.172l-.313-.125c-.875.469-1.61.781-2.86 1.219l.125.718h.235l1.547-.687.031-.016c.063 0-.047-.015-.047.266v5.797c0 .625.016.625-.64.656L1-.578v.625L3.125 0l2 .047zm0 0"/></svg></g><g><svg overflow="visible" x="143.66" y="28.486"><path d="M8.266-2.766a1.332 1.332 0 01-.047-.359c0-.11.015-.234.062-.484h-7.5c.063.25.063.375.063.484 0 .125 0 .25-.063.5h7.5zm0 0"/></svg></g><g><svg overflow="visible" x="155.4" y="28.486"><path d="M3.703-5.516c-.453.047-.86.063-1.156.063.172-.984.297-1.578.531-2.25l-.25-.328a7.16 7.16 0 01-1.094.531l-.296 2.031c-.391.203-.704.328-1.063.407l-.047.406h1l-.64 3.25C.625-1.11.53-.813.53-.5c0 .297.266.61.5.61.422 0 .922-.282 1.86-1.032.218-.172.14-.125.437-.36l-.25-.437-.672.469c-.36.25-.484.313-.625.313-.093 0-.031.046-.031-.11 0-.297.156-1.234.516-3l.14-.61h1.266l.203-.89zm0 0"/></svg></g><g><svg overflow="visible" x="159.441" y="28.486"><path d="M3.766-2.719v-.797c0-1.515-.907-3.171-2.516-4.78-.11.202-.156.265-.203.327-.063.063-.125.11-.313.203 1.438 1.47 2.032 2.86 2.032 4.25v.797c0 1.375-.594 2.781-2.032 4.25.188.094.25.14.313.203.047.063.094.125.203.329C2.86.452 3.766-1.204 3.766-2.72zm0 0"/></svg></g><g><svg overflow="visible" x="164.518" y="24.947"><path d="M4.75-.11c-.016-.187-.016-.265-.016-.39s0-.203.032-.547l-3.141.094 1.5-1.469c.938-.906 1.266-1.5 1.266-2.156 0-1.016-.891-1.781-2.125-1.781-.688 0-1.282.218-1.782.687L.297-4.266h.547l.172-.546c.156-.516.359-.594 1-.594.828 0 1.203.343 1.203 1.093 0 .657-.36 1.22-1.453 2.282L.078-.391v.422L2.391 0l2.375.031zm0 0"/></svg></g><g><svg overflow="visible" x="181.399" y="11.728"><path d="M1.86-.125v-9.688c-.266.063-.391.079-.516.079-.14 0-.25-.016-.532-.079V0H1.86zm0 0"/></svg></g><g><svg overflow="visible" x="181.399" y="18.864"><path d="M1.86-.125v-9.656H.811V0H1.86zm0 0"/></svg></g><g><svg overflow="visible" x="181.399" y="23.812"><path d="M1.86-.125v-9.656H.811V0H1.86zm0 0"/></svg></g><g><svg overflow="visible" x="181.399" y="30.948"><path d="M1.86-.125v-9.656H.811V.03c.282-.062.391-.062.532-.062.125 0 .25 0 .515.062zm0 0"/></svg></g></svg>