<svg xmlns="http://www.w3.org/2000/svg" xmlns:xlink="http://www.w3.org/1999/xlink" width="515px" height="61px" viewBox="0 0 386 46"><svg overflow="visible" x=".241" y="21.303"><path d="M3.61-6.938c.078-.406-.047-.39.953-.39.562 0 1.093.14 1.093 1.031 0 .125-.031.266-.047.422-.203 1.016-.812 1.234-1.765 1.234h-.688zm-.688 2.97h.781c1.36 0 1.766.546 1.766 1.421 0 .14-.032.281-.047.438-.188.875-.516 1.468-2.25 1.468-.688 0-.735.016-.735-.25 0-.046.016-.109.032-.171L3.03-3.97zM.078-.36l-.047.28.11.11C.75.016 1.219 0 1.67 0c.454 0 .61.031 1.641.031 2.282 0 3.266-1.328 3.47-2.36.015-.155.046-.296.046-.437 0-.875-.719-1.53-1.39-1.75v.125c.484-.234 1.25-.984 1.375-1.64.03-.14.046-.282.046-.438C6.86-7.156 6.313-8 4.563-8c-.407 0-.922.031-1.391.031-.453 0-.906-.015-1.5-.031l-.125.094-.063.297c0 .062.172.218.22.218l.343.032c.375.015.375-.063.375.156 0 .062-.016.125-.031.203L1.219-.984c-.078.421-.047.343-.532.375l-.359.03c-.047 0-.234.157-.25.22zm0 0"/></svg><svg overflow="visible" x="6.9" y="21.303"><path d="M4.344-8.188L3.156-6.766c-.125.157-.234.297-.25.438-.015.078.203.281.297.281.078 0 .281-.078.485-.266l1.687-1.343v-.235c-.266-.312-.672-.359-.75-.359-.063 0-.125.016-.281.047zm-.25 3.641c0 1.063-1.11 1.328-1.828 1.422.375-1.531.89-1.75 1.39-1.75.438 0 .438-.031.438.328zM2-2.375c3.11-.61 3.219-1.672 3.219-2.125 0-.297-.422-1.016-1.282-1.016C1.86-5.516.845-3.344.845-1.828c0 1.016.625 1.953 1.625 1.953.797 0 1.625-.453 2.39-1.438-.078-.156-.296-.343-.515-.343-.703.718-.875.797-1.453.797-.532 0-.766-.157-.766-1.25v-.297zm0 0"/></svg><svg overflow="visible" x="11.694" y="21.303"><path d="M5.125-5.531c-.266.312-.344.343-.531.343-.219 0-.39-.046-.953-.171-.563-.094-.922-.157-1.266-.157-.422 0-1.11.907-1.328 1.657.14.14.36.187.578.187.313-.672.375-.672.922-.672.531 0 .984.11 1.344.11.156 0 .25 0 .359-.016l-.11-.234-2.859 3.171c-.234.266-.75.938-.797 1.094.047.094.25.281.329.297.093.031.171.047.343.078.297-.484.5-.64.61-.64.203 0 .421.03.796.265.313.188.813.344 1.141.344.516 0 1.047-.438 1.625-1.75a.655.655 0 00-.531-.234c-.484.765-.719.796-1.063.796-.609 0-.53-.421-1.312-.421.61-.704 1.922-2.047 2.594-2.875.296-.36.546-.61.75-.954l-.579-.296zm0 0"/></svg><svg overflow="visible" x="16.907" y="21.303"><path d="M2.25-6.938c0 .297.422.704.719.704.312 0 .719-.407.719-.704 0-.312-.407-.718-.72-.718-.296 0-.718.406-.718.718zm.828 2.985c.094-.469.25-.938.25-1.14 0-.173-.25-.376-.406-.376-.375 0-.906.078-1.563.157-.109.125-.078.453.016.593l.563.032c.14.015.062-.016.062.109 0 .11-.031.281-.11.61L1.329-1.5c-.078.375-.203.86-.203 1.094 0 .234.281.531.64.531.579 0 1.204-.453 1.813-1.219-.047-.14-.25-.36-.5-.36-.344.391-.578.595-.703.595-.078 0 .031.078.031-.079 0-.109.063-.359.125-.671zm0 0"/></svg><svg overflow="visible" x="20.206" y="21.303"><path d="M4.094-4.547c0 1.063-1.11 1.328-1.828 1.422.375-1.531.89-1.75 1.39-1.75.438 0 .438-.031.438.328zM2-2.375c3.11-.61 3.219-1.672 3.219-2.125 0-.297-.422-1.016-1.282-1.016C1.86-5.516.845-3.344.845-1.828c0 1.016.625 1.953 1.625 1.953.797 0 1.625-.453 2.39-1.438-.078-.156-.296-.343-.515-.343-.703.718-.875.797-1.453.797-.532 0-.766-.157-.766-1.25v-.297zm0 0"/></svg><svg overflow="visible" x="25" y="21.303"><path d="M2.781-3.531l.094-.422c.11-.469.203-.89.203-1.094 0-.172-.234-.422-.39-.422-.376 0-.876.078-1.516.157-.11.125-.078.453.016.593l.562.032c.14.015.063-.016.063.109 0 .11 0 .281-.094.61L1.062-.985C1-.734.906-.531.906-.328s.266.453.61.453c.421 0 .578-.656.703-1.11l.328-1.374c.531-.97 1.11-2.047 1.39-2.047.11 0 .063.015.141.11.078.093.344.28.516.28.312 0 .672-.484.672-.796 0-.25-.313-.704-.766-.704-.594 0-1.438.875-1.89 1.829l.203.046zm0 0"/></svg><svg overflow="visible" x="29.268" y="24.293"><path d="M4.313-1.094l-.266-.218c-.234.265-.313.562-.531.562-.094 0 .046.063.046 0 0-.047-.062.031.016-.125l.516-2.031c.047-.172.11-.406.11-.625 0-.297-.298-.688-.688-.688-.532 0-1.204.625-1.563 1.078-.031.016-.328.61-.375.61h.203l.469-1.735-1.875.282.063.39c.218-.031.328-.047.421-.047.235 0 .079-.015.079.157L.046 0h1.062l.329-1.25c.046-.188.234-.516.546-1 .282-.406.72-1.156 1.063-1.156.156 0 .031.047.031.219 0 .124-.047.296-.062.374L2.5-.827a1.23 1.23 0 00-.063.36c0 .202.266.546.563.546.469 0 1.016-.61 1.266-.922l.14-.172zm0 0"/></svg><svg overflow="visible" x="33.724" y="24.293"><path d="M.75 1.266c.61-.297 1.172-1 1.172-1.532 0-.468-.484-.921-.89-.921-.329 0-.72.343-.72.656 0 .297.376.578.704.578.093 0 .187-.031.265-.031.063 0-.078-.079-.078-.016 0 .297-.187.531-.766.922l.22.39zm0 0"/></svg><svg overflow="visible" x="35.966" y="24.293"><path d="M4.734-4.11h-1.89l-.14.376h.358c.079 0 .047-.063.047.046 0 .11-.046.126-.14.22l-1.5 1.327.312.11 1.063-4.266-1.86.281.094.422c.219-.062.313-.062.39-.062.204 0 .095-.032.095.062 0 .063 0 .125-.016.172L.172 0h1.062l.422-1.563.266-.218.453 1.031c.094.234.469.844.875.844.61 0 1.156-.985 1.344-1.313L4.219-1.5c-.297.39-.36.734-.625.734-.235 0-.156-.078-.297-.39L2.75-2.484l.875-.766c.344-.297.469-.422 1.203-.484l.125-.375zm0 0"/></svg><svg overflow="visible" x="41.324" y="21.303"><path d="M3.734 1.703C2.063.297 1.75-.953 1.75-3.172c0-2.312.328-3.328 2.063-4.812l-.235-.422C1.5-7.172.406-5.36.406-3.141.406-1.109 1.484 1 3.531 2.172l.297-.406zm0 0"/></svg><svg overflow="visible" x="45.305" y="21.303"><path d="M3.375-5.5h-.64l.374-1.547h-.453C2.11-5.875 1.546-5.563.484-5.359l-.093.578h.906L.375-1.094c-.047.14-.063.297-.063.453 0 .313.266.75.625.75.72 0 1.422-.953 1.797-1.437l-.39-.328c-.531.718-.578.937-.578.937l-.11-.219c-.156 0-.031.047-.031-.015a.58.58 0 01.031-.14l.89-3.688h.829l.203-.719zm0 0"/></svg><svg overflow="visible" x="49.047" y="21.303"><path d="M.234-7.922c1.72 1.36 1.985 2.64 1.985 4.875C2.219-.734 1.922.297.156 1.75l.235.438C2.469.921 3.562-.876 3.562-3.079c0-2.031-1.14-4.125-3.124-5.328L.124-8zm0 0"/></svg><svg overflow="visible" x="56.095" y="14.369"><path d="M4.172-4.203c0 .375-.063.844-.188 1.266-.343 1.093-.953 2.093-1.796 2.093-.329 0-.516-.078-.516-.656 0-1.156.812-3.406 2-3.406.484 0 .5.156.5.703zM6.297-8.25l-2.063.313.11.437c.218-.031.36-.047.468-.047.297 0 .22-.062.22.094 0 .047-.016.11-.016.156l-.61 2.36h.266c-.016-.157-.438-.594-1.125-.594C1.703-5.531.312-2.734.312-1.5c0 .625.344 1.64 1.22 1.64.437 0 1.265-.171 2.109-1.25h-.204c-.062.22-.093.391-.093.626 0 .218.265.625.656.625.547 0 1.297-.75 1.719-1.391l-.328-.375c-.266.39-.485.781-.72.781-.124 0-.015.094-.015.016 0-.031 0-.11.016-.14L6.5-8.282zm0 0"/></svg><path d="M54.223 18.313h10.82" fill="none" stroke-width=".789" stroke="#000" stroke-miterlimit="10"/><svg overflow="visible" x="54.224" y="29.673"><path d="M4.172-4.203c0 .375-.063.844-.188 1.266-.343 1.093-.953 2.093-1.796 2.093-.329 0-.516-.078-.516-.656 0-1.156.812-3.406 2-3.406.484 0 .5.156.5.703zM6.297-8.25l-2.063.313.11.437c.218-.031.36-.047.468-.047.297 0 .22-.062.22.094 0 .047-.016.11-.016.156l-.61 2.36h.266c-.016-.157-.438-.594-1.125-.594C1.703-5.531.312-2.734.312-1.5c0 .625.344 1.64 1.22 1.64.437 0 1.265-.171 2.109-1.25h-.204c-.062.22-.093.391-.093.626 0 .218.265.625.656.625.547 0 1.297-.75 1.719-1.391l-.328-.375c-.266.39-.485.781-.72.781-.124 0-.015.094-.015.016 0-.031 0-.11.016-.14L6.5-8.282zm0 0"/></svg><svg overflow="visible" x="61.29" y="29.673"><path d="M3.375-5.5h-.64l.374-1.547h-.453C2.11-5.875 1.546-5.563.484-5.359l-.093.578h.906L.375-1.094c-.047.14-.063.297-.063.453 0 .313.266.75.625.75.72 0 1.422-.953 1.797-1.437l-.39-.328c-.531.718-.578.937-.578.937l-.11-.219c-.156 0-.031.047-.031-.015a.58.58 0 01.031-.14l.89-3.688h.829l.203-.719zm0 0"/></svg><svg overflow="visible" x="69.56" y="21.303"><path d="M7.766-1.563v-.921H.406v1.046h7.36zm0-2.39v-.922H.406v1.047h7.36zm0 0"/></svg><svg overflow="visible" x="81.272" y="6.061"><path d="M4.313-1.094l-.266-.218c-.234.265-.313.562-.531.562-.094 0 .046.063.046 0 0-.047-.062.031.016-.125l.516-2.031c.047-.172.11-.406.11-.625 0-.297-.298-.688-.688-.688-.532 0-1.204.625-1.563 1.078-.031.016-.328.61-.375.61h.203l.469-1.735-1.875.282.063.39c.218-.031.328-.047.421-.047.235 0 .079-.015.079.157L.046 0h1.062l.329-1.25c.046-.188.234-.516.546-1 .282-.406.72-1.156 1.063-1.156.156 0 .031.047.031.219 0 .124-.047.296-.062.374L2.5-.827a1.23 1.23 0 00-.063.36c0 .202.266.546.563.546.469 0 1.016-.61 1.266-.922l.14-.172zm0 0"/></svg><svg overflow="visible" x="85.728" y="6.061"><path d="M5.75-2.11v-.718H.39v.86h5.36zm0 0"/></svg><svg overflow="visible" x="91.87" y="6.061"><path d="M3.719-.14v-.266c-.86 0-.86-.031-.86-.406V-6.25l-.296-.094-1.75.89v.407l.421-.156a1.05 1.05 0 01.407-.11c.187 0 .078 0 .078.297v4.032c0 .484 0 .546-.844.593V0h2.844zm0 0"/></svg><svg overflow="visible" x="81.09" y="27.568"><path d="M14.375-5.828h-.61c-.468 2.094-1.124 2.797-2.78 2.797h-6.5L10-10.234l-4.828-6.61h4.234c.422 0 .938.016 1.266.063.797.093 1.437.578 1.765 2.156.047.234.141.547.141.906h.75v-4.469H1.218L7.548-9.5.78-.578H13.61l.938-5.25zm0 0"/></svg><svg overflow="visible" x="81.07" y="34.836"><path d="M4.734-4.11h-1.89l-.14.376h.358c.079 0 .047-.063.047.046 0 .11-.046.126-.14.22l-1.5 1.327.312.11 1.063-4.266-1.86.281.094.422c.219-.062.313-.062.39-.062.204 0 .095-.032.095.062 0 .063 0 .125-.016.172L.172 0h1.062l.422-1.563.266-.218.453 1.031c.094.234.469.844.875.844.61 0 1.156-.985 1.344-1.313L4.219-1.5c-.297.39-.36.734-.625.734-.235 0-.156-.078-.297-.39L2.75-2.484l.875-.766c.344-.297.469-.422 1.203-.484l.125-.375zm0 0"/></svg><svg overflow="visible" x="85.93" y="34.836"><path d="M5.89-1.203v-.734H.235v.859h5.657zM5.89-3v-.734H.235v.859h5.657zm0 0"/></svg><svg overflow="visible" x="92.072" y="34.836"><path d="M3.219-3.047C3.219-1.28 3-.375 2.25-.375c-.781 0-1-.89-1-2.703 0-1.828.234-2.75.969-2.75.797 0 1 .906 1 2.781zm1.234-.047c0-1.844-1-3.234-2.172-3.234-1.453 0-2.25 1.594-2.25 3.187C.031-1.67.703.125 2.25.125c1.453 0 2.203-1.672 2.203-3.219zm0 0"/></svg><svg overflow="visible" x="98.548" y="21.303"><path d="M5.688-1.375l-.282-.234c-.265.312-.437.703-.718.703-.141 0-.016.031-.032-.031 0-.063-.047 0 .016-.125l.703-2.766c.063-.235.14-.531.14-.828 0-.407-.296-.875-.827-.875-.72 0-1.563.828-2.032 1.422-.031.03-.5.828-.547.828h.157l.609-2.281-2.281.328.062.437c.235-.031.36-.062.485-.062.312 0 .187.046.187.25L.156 0h1.25l.422-1.61c.078-.25.328-.718.766-1.359.375-.562 1.015-1.562 1.469-1.562.218 0 .125.093.125.328 0 .156-.063.406-.094.5l-.672 2.64a1.57 1.57 0 00-.094.485c0 .265.281.672.672.672.61 0 1.297-.797 1.625-1.203l.156-.188zm0 0"/></svg><svg overflow="visible" x="107.144" y="21.303"><path d="M2.578-3.156c0-.375-.469-.844-.86-.844-.39 0-.89.484-.89.844s.5.844.89.844c.391 0 .86-.454.86-.844zm0 0"/></svg><svg overflow="visible" x="113.217" y="21.303"><path d="M4.047-3.75c.172-.047.406-.047.61-.047.921 0 1.53.281 1.53 1.156 0 1.547-.984 1.922-2.109 1.922-.312 0-.547-.015-.672-.062l.766-3.016zm.812-3.547c.157-.031.329-.047.5-.047.657 0 1.266.125 1.266 1.047 0 1.156-.5 1.813-1.844 1.813-.172 0-.39-.016-.453-.032l.656-2.796zm-2.656-.64l-.11.328h.438c.703 0 .766.062.766.359 0 .078-.016.203-.016.25L1.812-1.078c-.109.406-.156.625-1.078.625H.375L.25 0h4.078c2.469 0 3.61-1.25 3.61-2.438 0-1.015-.954-1.656-1.579-1.765l.11.14s.453-.14.75-.28c.578-.298 1.14-.923 1.14-1.86 0-1.625-1.968-1.86-2.984-1.86h-3.14zm0 0"/></svg><svg overflow="visible" x="121.544" y="24.293"><path d="M4.313-1.094l-.266-.218c-.234.265-.313.562-.531.562-.094 0 .046.063.046 0 0-.047-.062.031.016-.125l.516-2.031c.047-.172.11-.406.11-.625 0-.297-.298-.688-.688-.688-.532 0-1.204.625-1.563 1.078-.031.016-.328.61-.375.61h.203l.469-1.735-1.875.282.063.39c.218-.031.328-.047.421-.047.235 0 .079-.015.079.157L.046 0h1.062l.329-1.25c.046-.188.234-.516.546-1 .282-.406.72-1.156 1.063-1.156.156 0 .031.047.031.219 0 .124-.047.296-.062.374L2.5-.827a1.23 1.23 0 00-.063.36c0 .202.266.546.563.546.469 0 1.016-.61 1.266-.922l.14-.172zm0 0"/></svg><svg overflow="visible" x="126" y="24.293"><path d="M5.75-2.11v-.718H.39v.86h5.36zm0 0"/></svg><svg overflow="visible" x="132.142" y="24.293"><path d="M3.719-.14v-.266c-.86 0-.86-.031-.86-.406V-6.25l-.296-.094-1.75.89v.407l.421-.156a1.05 1.05 0 01.407-.11c.187 0 .078 0 .078.297v4.032c0 .484 0 .546-.844.593V0h2.844zm0 0"/></svg><svg overflow="visible" x="136.625" y="24.293"><path d="M.75 1.266c.61-.297 1.172-1 1.172-1.532 0-.468-.484-.921-.89-.921-.329 0-.72.343-.72.656 0 .297.376.578.704.578.093 0 .187-.031.265-.031.063 0-.078-.079-.078-.016 0 .297-.187.531-.766.922l.22.39zm0 0"/></svg><svg overflow="visible" x="138.867" y="24.293"><path d="M4.734-4.11h-1.89l-.14.376h.358c.079 0 .047-.063.047.046 0 .11-.046.126-.14.22l-1.5 1.327.312.11 1.063-4.266-1.86.281.094.422c.219-.062.313-.062.39-.062.204 0 .095-.032.095.062 0 .063 0 .125-.016.172L.172 0h1.062l.422-1.563.266-.218.453 1.031c.094.234.469.844.875.844.61 0 1.156-.985 1.344-1.313L4.219-1.5c-.297.39-.36.734-.625.734-.235 0-.156-.078-.297-.39L2.75-2.484l.875-.766c.344-.297.469-.422 1.203-.484l.125-.375zm0 0"/></svg><svg overflow="visible" x="144.225" y="21.303"><path d="M3.734 1.703C2.063.297 1.75-.953 1.75-3.172c0-2.312.328-3.328 2.063-4.812l-.235-.422C1.5-7.172.406-5.36.406-3.141.406-1.109 1.484 1 3.531 2.172l.297-.406zm0 0"/></svg><svg overflow="visible" x="148.206" y="21.303"><path d="M3.375-5.5h-.64l.374-1.547h-.453C2.11-5.875 1.546-5.563.484-5.359l-.093.578h.906L.375-1.094c-.047.14-.063.297-.063.453 0 .313.266.75.625.75.72 0 1.422-.953 1.797-1.437l-.39-.328c-.531.718-.578.937-.578.937l-.11-.219c-.156 0-.031.047-.031-.015a.58.58 0 01.031-.14l.89-3.688h.829l.203-.719zm0 0"/></svg><svg overflow="visible" x="151.948" y="21.303"><path d="M.234-7.922c1.72 1.36 1.985 2.64 1.985 4.875C2.219-.734 1.922.297.156 1.75l.235.438C2.469.921 3.562-.876 3.562-3.079c0-2.031-1.14-4.125-3.124-5.328L.124-8zm0 0"/></svg><svg overflow="visible" x="158.583" y="21.303"><path d="M2.578-3.156c0-.375-.469-.844-.86-.844-.39 0-.89.484-.89.844s.5.844.89.844c.391 0 .86-.454.86-.844zm0 0"/></svg><svg overflow="visible" x="164.656" y="21.303"><path d="M3.734 1.703C2.063.297 1.75-.953 1.75-3.172c0-2.312.328-3.328 2.063-4.812l-.235-.422C1.5-7.172.406-5.36.406-3.141.406-1.109 1.484 1 3.531 2.172l.297-.406zm0 0"/></svg><svg overflow="visible" x="168.638" y="21.303"><path d="M6.344-5.64H5.219c-.407 1.437-.672 2.28-1.313 3.25-.281.437-1.015 1.75-1.703 1.765-.265 0-.187-.11-.187-.422 0-.344.093-.719.14-.875l.969-3.719-.172-.14c-.64.265-1.25.437-2.062.562v.422c.359 0 .656-.156.656.14 0 .11-.031.235-.063.345L.922-2.204c-.094.375-.235.75-.235 1.14 0 .625.438 1.172 1.11 1.172 1.328 0 2.469-1.765 2.953-2.828h-.328c-.125.485-.281 1-.281 1.5 0 .86.671 1.328 1.5 1.328 2.046 0 3.453-2.984 3.453-4.718 0-.391-.219-1.125-.719-1.125-.281 0-.828.203-.813.625.032.515.735.421.735 1.312 0 .297-.078.594-.188.875C7.75-1.859 7.25-.625 5.953-.625c-.484 0-.547-.125-.547-.594 0-.281.063-.562.14-.843l.985-3.579zm0 0"/></svg><svg overflow="visible" x="177.908" y="24.293"><path d="M4.734-4.11h-1.89l-.14.376h.358c.079 0 .047-.063.047.046 0 .11-.046.126-.14.22l-1.5 1.327.312.11 1.063-4.266-1.86.281.094.422c.219-.062.313-.062.39-.062.204 0 .095-.032.095.062 0 .063 0 .125-.016.172L.172 0h1.062l.422-1.563.266-.218.453 1.031c.094.234.469.844.875.844.61 0 1.156-.985 1.344-1.313L4.219-1.5c-.297.39-.36.734-.625.734-.235 0-.156-.078-.297-.39L2.75-2.484l.875-.766c.344-.297.469-.422 1.203-.484l.125-.375zm0 0"/></svg><svg overflow="visible" x="182.768" y="24.293"><path d="M5.89-2.11v-.718H3.548v-2.344h-.969v2.344H.234v.86h2.344V.374h.969v-2.344H5.89zm0 0"/></svg><svg overflow="visible" x="188.91" y="24.293"><path d="M3.719-.14v-.266c-.86 0-.86-.031-.86-.406V-6.25l-.296-.094-1.75.89v.407l.421-.156a1.05 1.05 0 01.407-.11c.187 0 .078 0 .078.297v4.032c0 .484 0 .546-.844.593V0h2.844zm0 0"/></svg><svg overflow="visible" x="196.548" y="21.303"><path d="M7.578-2.766v-.921H.594v1.062h6.984zm0 0"/></svg><svg overflow="visible" x="207.391" y="21.303"><path d="M6.344-5.64H5.219c-.407 1.437-.672 2.28-1.313 3.25-.281.437-1.015 1.75-1.703 1.765-.265 0-.187-.11-.187-.422 0-.344.093-.719.14-.875l.969-3.719-.172-.14c-.64.265-1.25.437-2.062.562v.422c.359 0 .656-.156.656.14 0 .11-.031.235-.063.345L.922-2.204c-.094.375-.235.75-.235 1.14 0 .625.438 1.172 1.11 1.172 1.328 0 2.469-1.765 2.953-2.828h-.328c-.125.485-.281 1-.281 1.5 0 .86.671 1.328 1.5 1.328 2.046 0 3.453-2.984 3.453-4.718 0-.391-.219-1.125-.719-1.125-.281 0-.828.203-.813.625.032.515.735.421.735 1.312 0 .297-.078.594-.188.875C7.75-1.859 7.25-.625 5.953-.625c-.484 0-.547-.125-.547-.594 0-.281.063-.562.14-.843l.985-3.579zm0 0"/></svg><svg overflow="visible" x="216.66" y="24.293"><path d="M4.734-4.11h-1.89l-.14.376h.358c.079 0 .047-.063.047.046 0 .11-.046.126-.14.22l-1.5 1.327.312.11 1.063-4.266-1.86.281.094.422c.219-.062.313-.062.39-.062.204 0 .095-.032.095.062 0 .063 0 .125-.016.172L.172 0h1.062l.422-1.563.266-.218.453 1.031c.094.234.469.844.875.844.61 0 1.156-.985 1.344-1.313L4.219-1.5c-.297.39-.36.734-.625.734-.235 0-.156-.078-.297-.39L2.75-2.484l.875-.766c.344-.297.469-.422 1.203-.484l.125-.375zm0 0"/></svg><svg overflow="visible" x="222.018" y="21.303"><path d="M.234-7.922c1.72 1.36 1.985 2.64 1.985 4.875C2.219-.734 1.922.297.156 1.75l.235.438C2.469.921 3.562-.876 3.562-3.079c0-2.031-1.14-4.125-3.124-5.328L.124-8zm0 0"/></svg><svg overflow="visible" x="229.311" y="21.303"><path d="M7.766-1.563v-.921H.406v1.046h7.36zm0-2.39v-.922H.406v1.047h7.36zm0 0"/></svg><svg overflow="visible" x="241.032" y="6.061"><path d="M4.313-1.094l-.266-.218c-.234.265-.313.562-.531.562-.094 0 .046.063.046 0 0-.047-.062.031.016-.125l.516-2.031c.047-.172.11-.406.11-.625 0-.297-.298-.688-.688-.688-.532 0-1.204.625-1.563 1.078-.031.016-.328.61-.375.61h.203l.469-1.735-1.875.282.063.39c.218-.031.328-.047.421-.047.235 0 .079-.015.079.157L.046 0h1.062l.329-1.25c.046-.188.234-.516.546-1 .282-.406.72-1.156 1.063-1.156.156 0 .031.047.031.219 0 .124-.047.296-.062.374L2.5-.827a1.23 1.23 0 00-.063.36c0 .202.266.546.563.546.469 0 1.016-.61 1.266-.922l.14-.172zm0 0"/></svg><svg overflow="visible" x="245.488" y="6.061"><path d="M5.75-2.11v-.718H.39v.86h5.36zm0 0"/></svg><svg overflow="visible" x="251.63" y="6.061"><path d="M3.719-.14v-.266c-.86 0-.86-.031-.86-.406V-6.25l-.296-.094-1.75.89v.407l.421-.156a1.05 1.05 0 01.407-.11c.187 0 .078 0 .078.297v4.032c0 .484 0 .546-.844.593V0h2.844zm0 0"/></svg><svg overflow="visible" x="240.85" y="27.568"><path d="M14.375-5.828h-.61c-.468 2.094-1.124 2.797-2.78 2.797h-6.5L10-10.234l-4.828-6.61h4.234c.422 0 .938.016 1.266.063.797.093 1.437.578 1.765 2.156.047.234.141.547.141.906h.75v-4.469H1.218L7.548-9.5.78-.578H13.61l.938-5.25zm0 0"/></svg><svg overflow="visible" x="240.83" y="34.836"><path d="M4.734-4.11h-1.89l-.14.376h.358c.079 0 .047-.063.047.046 0 .11-.046.126-.14.22l-1.5 1.327.312.11 1.063-4.266-1.86.281.094.422c.219-.062.313-.062.39-.062.204 0 .095-.032.095.062 0 .063 0 .125-.016.172L.172 0h1.062l.422-1.563.266-.218.453 1.031c.094.234.469.844.875.844.61 0 1.156-.985 1.344-1.313L4.219-1.5c-.297.39-.36.734-.625.734-.235 0-.156-.078-.297-.39L2.75-2.484l.875-.766c.344-.297.469-.422 1.203-.484l.125-.375zm0 0"/></svg><svg overflow="visible" x="245.69" y="34.836"><path d="M5.89-1.203v-.734H.235v.859h5.657zM5.89-3v-.734H.235v.859h5.657zm0 0"/></svg><svg overflow="visible" x="251.832" y="34.836"><path d="M3.219-3.047C3.219-1.28 3-.375 2.25-.375c-.781 0-1-.89-1-2.703 0-1.828.234-2.75.969-2.75.797 0 1 .906 1 2.781zm1.234-.047c0-1.844-1-3.234-2.172-3.234-1.453 0-2.25 1.594-2.25 3.187C.031-1.67.703.125 2.25.125c1.453 0 2.203-1.672 2.203-3.219zm0 0"/></svg><svg overflow="visible" x="258.308" y="21.303"><path d="M4.047-3.75c.172-.047.406-.047.61-.047.921 0 1.53.281 1.53 1.156 0 1.547-.984 1.922-2.109 1.922-.312 0-.547-.015-.672-.062l.766-3.016zm.812-3.547c.157-.031.329-.047.5-.047.657 0 1.266.125 1.266 1.047 0 1.156-.5 1.813-1.844 1.813-.172 0-.39-.016-.453-.032l.656-2.796zm-2.656-.64l-.11.328h.438c.703 0 .766.062.766.359 0 .078-.016.203-.016.25L1.812-1.078c-.109.406-.156.625-1.078.625H.375L.25 0h4.078c2.469 0 3.61-1.25 3.61-2.438 0-1.015-.954-1.656-1.579-1.765l.11.14s.453-.14.75-.28c.578-.298 1.14-.923 1.14-1.86 0-1.625-1.968-1.86-2.984-1.86h-3.14zm0 0"/></svg><g><svg overflow="visible" x="266.629" y="24.293"><path d="M4.313-1.094l-.266-.218c-.234.265-.313.562-.531.562-.094 0 .046.063.046 0 0-.047-.062.031.016-.125l.516-2.031c.047-.172.11-.406.11-.625 0-.297-.298-.688-.688-.688-.532 0-1.204.625-1.563 1.078-.031.016-.328.61-.375.61h.203l.469-1.735-1.875.282.063.39c.218-.031.328-.047.421-.047.235 0 .079-.015.079.157L.046 0h1.062l.329-1.25c.046-.188.234-.516.546-1 .282-.406.72-1.156 1.063-1.156.156 0 .031.047.031.219 0 .124-.047.296-.062.374L2.5-.827a1.23 1.23 0 00-.063.36c0 .202.266.546.563.546.469 0 1.016-.61 1.266-.922l.14-.172zm0 0"/></svg><svg overflow="visible" x="271.085" y="24.293"><path d="M5.75-2.11v-.718H.39v.86h5.36zm0 0"/></svg><svg overflow="visible" x="277.227" y="24.293"><path d="M3.719-.14v-.266c-.86 0-.86-.031-.86-.406V-6.25l-.296-.094-1.75.89v.407l.421-.156a1.05 1.05 0 01.407-.11c.187 0 .078 0 .078.297v4.032c0 .484 0 .546-.844.593V0h2.844zm0 0"/></svg><svg overflow="visible" x="281.71" y="24.293"><path d="M.75 1.266c.61-.297 1.172-1 1.172-1.532 0-.468-.484-.921-.89-.921-.329 0-.72.343-.72.656 0 .297.376.578.704.578.093 0 .187-.031.265-.031.063 0-.078-.079-.078-.016 0 .297-.187.531-.766.922l.22.39zm0 0"/></svg><svg overflow="visible" x="283.952" y="24.293"><path d="M4.734-4.11h-1.89l-.14.376h.358c.079 0 .047-.063.047.046 0 .11-.046.126-.14.22l-1.5 1.327.312.11 1.063-4.266-1.86.281.094.422c.219-.062.313-.062.39-.062.204 0 .095-.032.095.062 0 .063 0 .125-.016.172L.172 0h1.062l.422-1.563.266-.218.453 1.031c.094.234.469.844.875.844.61 0 1.156-.985 1.344-1.313L4.219-1.5c-.297.39-.36.734-.625.734-.235 0-.156-.078-.297-.39L2.75-2.484l.875-.766c.344-.297.469-.422 1.203-.484l.125-.375zm0 0"/></svg></g><g><svg overflow="visible" x="289.31" y="21.303"><path d="M3.734 1.703C2.063.297 1.75-.953 1.75-3.172c0-2.312.328-3.328 2.063-4.812l-.235-.422C1.5-7.172.406-5.36.406-3.141.406-1.109 1.484 1 3.531 2.172l.297-.406zm0 0"/></svg><svg overflow="visible" x="293.291" y="21.303"><path d="M3.375-5.5h-.64l.374-1.547h-.453C2.11-5.875 1.546-5.563.484-5.359l-.093.578h.906L.375-1.094c-.047.14-.063.297-.063.453 0 .313.266.75.625.75.72 0 1.422-.953 1.797-1.437l-.39-.328c-.531.718-.578.937-.578.937l-.11-.219c-.156 0-.031.047-.031-.015a.58.58 0 01.031-.14l.89-3.688h.829l.203-.719zm0 0"/></svg><svg overflow="visible" x="297.033" y="21.303"><path d="M.234-7.922c1.72 1.36 1.985 2.64 1.985 4.875C2.219-.734 1.922.297.156 1.75l.235.438C2.469.921 3.562-.876 3.562-3.079c0-2.031-1.14-4.125-3.124-5.328L.124-8zm0 0"/></svg></g><g><svg overflow="visible" x="303.668" y="21.303"><path d="M2.578-3.156c0-.375-.469-.844-.86-.844-.39 0-.89.484-.89.844s.5.844.89.844c.391 0 .86-.454.86-.844zm0 0"/></svg></g><g><svg overflow="visible" x="309.741" y="21.303"><path d="M5.688-1.375l-.282-.234c-.265.312-.437.703-.718.703-.141 0-.016.031-.032-.031 0-.063-.047 0 .016-.125l.703-2.766c.063-.235.14-.531.14-.828 0-.407-.296-.875-.827-.875-.72 0-1.563.828-2.032 1.422-.031.03-.5.828-.547.828h.157l.609-2.281-2.281.328.062.437c.235-.031.36-.062.485-.062.312 0 .187.046.187.25L.156 0h1.25l.422-1.61c.078-.25.328-.718.766-1.359.375-.562 1.015-1.562 1.469-1.562.218 0 .125.093.125.328 0 .156-.063.406-.094.5l-.672 2.64a1.57 1.57 0 00-.094.485c0 .265.281.672.672.672.61 0 1.297-.797 1.625-1.203l.156-.188zm0 0"/></svg></g><g><svg overflow="visible" x="318.337" y="21.303"><path d="M2.578-3.156c0-.375-.469-.844-.86-.844-.39 0-.89.484-.89.844s.5.844.89.844c.391 0 .86-.454.86-.844zm0 0"/></svg></g><g><svg overflow="visible" x="324.41" y="21.303"><path d="M3.734 1.703C2.063.297 1.75-.953 1.75-3.172c0-2.312.328-3.328 2.063-4.812l-.235-.422C1.5-7.172.406-5.36.406-3.141.406-1.109 1.484 1 3.531 2.172l.297-.406zm0 0"/></svg><svg overflow="visible" x="328.392" y="21.303"><path d="M6.344-5.64H5.219c-.407 1.437-.672 2.28-1.313 3.25-.281.437-1.015 1.75-1.703 1.765-.265 0-.187-.11-.187-.422 0-.344.093-.719.14-.875l.969-3.719-.172-.14c-.64.265-1.25.437-2.062.562v.422c.359 0 .656-.156.656.14 0 .11-.031.235-.063.345L.922-2.204c-.094.375-.235.75-.235 1.14 0 .625.438 1.172 1.11 1.172 1.328 0 2.469-1.765 2.953-2.828h-.328c-.125.485-.281 1-.281 1.5 0 .86.671 1.328 1.5 1.328 2.046 0 3.453-2.984 3.453-4.718 0-.391-.219-1.125-.719-1.125-.281 0-.828.203-.813.625.032.515.735.421.735 1.312 0 .297-.078.594-.188.875C7.75-1.859 7.25-.625 5.953-.625c-.484 0-.547-.125-.547-.594 0-.281.063-.562.14-.843l.985-3.579zm0 0"/></svg></g><g><svg overflow="visible" x="337.668" y="24.293"><path d="M4.734-4.11h-1.89l-.14.376h.358c.079 0 .047-.063.047.046 0 .11-.046.126-.14.22l-1.5 1.327.312.11 1.063-4.266-1.86.281.094.422c.219-.062.313-.062.39-.062.204 0 .095-.032.095.062 0 .063 0 .125-.016.172L.172 0h1.062l.422-1.563.266-.218.453 1.031c.094.234.469.844.875.844.61 0 1.156-.985 1.344-1.313L4.219-1.5c-.297.39-.36.734-.625.734-.235 0-.156-.078-.297-.39L2.75-2.484l.875-.766c.344-.297.469-.422 1.203-.484l.125-.375zm0 0"/></svg><svg overflow="visible" x="342.528" y="24.293"><path d="M5.89-2.11v-.718H3.548v-2.344h-.969v2.344H.234v.86h2.344V.374h.969v-2.344H5.89zm0 0"/></svg><svg overflow="visible" x="348.67" y="24.293"><path d="M3.719-.14v-.266c-.86 0-.86-.031-.86-.406V-6.25l-.296-.094-1.75.89v.407l.421-.156a1.05 1.05 0 01.407-.11c.187 0 .078 0 .078.297v4.032c0 .484 0 .546-.844.593V0h2.844zm0 0"/></svg></g><g><svg overflow="visible" x="356.308" y="21.303"><path d="M7.578-2.766v-.921H.594v1.062h6.984zm0 0"/></svg></g><g><svg overflow="visible" x="367.151" y="21.303"><path d="M6.344-5.64H5.219c-.407 1.437-.672 2.28-1.313 3.25-.281.437-1.015 1.75-1.703 1.765-.265 0-.187-.11-.187-.422 0-.344.093-.719.14-.875l.969-3.719-.172-.14c-.64.265-1.25.437-2.062.562v.422c.359 0 .656-.156.656.14 0 .11-.031.235-.063.345L.922-2.204c-.094.375-.235.75-.235 1.14 0 .625.438 1.172 1.11 1.172 1.328 0 2.469-1.765 2.953-2.828h-.328c-.125.485-.281 1-.281 1.5 0 .86.671 1.328 1.5 1.328 2.046 0 3.453-2.984 3.453-4.718 0-.391-.219-1.125-.719-1.125-.281 0-.828.203-.813.625.032.515.735.421.735 1.312 0 .297-.078.594-.188.875C7.75-1.859 7.25-.625 5.953-.625c-.484 0-.547-.125-.547-.594 0-.281.063-.562.14-.843l.985-3.579zm0 0"/></svg></g><g><svg overflow="visible" x="376.42" y="24.293"><path d="M4.734-4.11h-1.89l-.14.376h.358c.079 0 .047-.063.047.046 0 .11-.046.126-.14.22l-1.5 1.327.312.11 1.063-4.266-1.86.281.094.422c.219-.062.313-.062.39-.062.204 0 .095-.032.095.062 0 .063 0 .125-.016.172L.172 0h1.062l.422-1.563.266-.218.453 1.031c.094.234.469.844.875.844.61 0 1.156-.985 1.344-1.313L4.219-1.5c-.297.39-.36.734-.625.734-.235 0-.156-.078-.297-.39L2.75-2.484l.875-.766c.344-.297.469-.422 1.203-.484l.125-.375zm0 0"/></svg></g><g><svg overflow="visible" x="381.778" y="21.303"><path d="M.234-7.922c1.72 1.36 1.985 2.64 1.985 4.875C2.219-.734 1.922.297.156 1.75l.235.438C2.469.921 3.562-.876 3.562-3.079c0-2.031-1.14-4.125-3.124-5.328L.124-8zm0 0"/></svg></g><g><svg overflow="visible" x="310.166" y="24.66"><path d="M11.016 7.547V5.813h-4.47c-2.312 0-5.765-.735-6.03-3.688h-1C.14 6.469 4.25 7.688 7.953 7.688h3.063zm0 0"/></svg></g><g><svg overflow="visible" x="320.292" y="24.66"><path d="M4.047 7.547V5.813H-.172v1.875h4.219zm0 0"/></svg></g><g><svg overflow="visible" x="323.58" y="24.66"><path d="M4.047 7.547V5.813H-.172v1.875h4.219zm0 0"/></svg></g><g><svg overflow="visible" x="326.867" y="24.66"><path d="M4.047 7.547V5.813H-.172v1.875h4.219zm0 0"/></svg></g><g><svg overflow="visible" x="330.155" y="24.66"><path d="M4.047 7.547V5.813H-.172v1.875h4.219zm0 0"/></svg></g><g><svg overflow="visible" x="333.443" y="24.66"><path d="M4.047 7.547V5.813H-.172v1.875h4.219zm0 0"/></svg></g><g><svg overflow="visible" x="336.73" y="24.66"><path d="M22.313 7.547V5.813h-4.735c-2.937 0-5.437.859-6.64 3.468h.156C9.89 6.671 7.469 5.812 4.547 5.812H-.281v1.875h6.218c1.766 0 4.204.829 4.61 3.141h.922c.422-2.312 2.937-3.14 4.703-3.14h6.14zm0 0"/></svg></g><g><svg overflow="visible" x="358.178" y="24.66"><path d="M4.047 7.547V5.813H-.172v1.875h4.219zm0 0"/></svg></g><g><svg overflow="visible" x="361.466" y="24.66"><path d="M4.047 7.547V5.813H-.172v1.875h4.219zm0 0"/></svg></g><g><svg overflow="visible" x="364.753" y="24.66"><path d="M4.047 7.547V5.813H-.172v1.875h4.219zm0 0"/></svg></g><g><svg overflow="visible" x="368.041" y="24.66"><path d="M4.047 7.547V5.813H-.172v1.875h4.219zm0 0"/></svg></g><g><svg overflow="visible" x="371.329" y="24.66"><path d="M4.047 7.547V5.813H-.172v1.875h4.219zm0 0"/></svg></g><g><svg overflow="visible" x="374.616" y="24.66"><path d="M10.188 2.266c-.266 2.812-3.704 3.546-6.016 3.546H-.297v1.875h3.063c3.718 0 7.796-1.218 8.437-5.562h-1zm0 0"/></svg></g><g><svg overflow="visible" x="317.828" y="43.588"><path d="M2.813-1.344c0 .594-.188 1-.766 1-.266 0-.516.016-.516-.656 0-.297 0-.688.094-.906.188-.078.453-.14.688-.14.406 0 .5.327.5.702zm.546-2.14c0 .546-.359.718-1.53.984.343-.984.671-1.266 1.28-1.266.36 0 .25.157.25.282zm-.171-.75c-.688 0-1.391.312-1.891.843C.797-2.859.5-2.14.5-1.437.5-.5 1.125.109 2.063.109c.953 0 1.843-.703 1.843-1.39 0-.375-.375-1.172-1.281-1.219v.266c1.031-.36 1.703-.766 1.703-1.22 0-.265-.328-.78-1.14-.78zm0 0"/></svg><svg overflow="visible" x="321.719" y="43.588"><path d="M3-3.453c0 .812-.75.969-1.219 1.015.266-1.093.594-1.218.969-1.218.313 0 .25-.063.25.203zM1.5-1.781c2.344-.469 2.469-1.282 2.469-1.625 0-.219-.375-.797-1.016-.797-1.562 0-2.39 1.656-2.39 2.797 0 .765.546 1.5 1.28 1.5.61 0 1.266-.36 1.86-1.11-.047-.125-.281-.296-.469-.296-.546.546-.64.593-1.062.593-.406 0-.516-.078-.516-.89v-.204zm0 0"/></svg><svg overflow="visible" x="325.315" y="43.588"><path d="M1.875.094c.64 0 1.344-.5 1.844-1.172-.047-.11-.297-.328-.469-.328-.39.437-.625.703-1.094.703-.156 0-.203 0-.328-.172-.14-.172-.172-.25-.172-.797 0-1.328.453-1.984 1.14-1.984.126 0 .204-.094.204.203 0 .047.031.031 0 .078a1.485 1.485 0 00-.094.281c0 .14.266.422.422.422.235 0 .64-.312.64-.531 0-.36-.202-1-1.171-1-.36 0-1.078.266-1.438.656a3.23 3.23 0 00-.796 2.078c0 .297.109.797.328 1.094.187.266.609.469.984.469zm0 0"/></svg></g><g><svg overflow="visible" x="331.036" y="43.588"><path d="M4.047-1.25l.344-1.422c.078-.312.125-.515.125-.687 0-.532-.422-.844-.766-.844-.469 0-.984.219-1.703 1.062l.203.188L2.266-3c.109-.344.187-.719.187-.86 0-.124-.234-.312-.36-.312-.28 0-.702.047-1.234.125-.078.094-.062.39.016.5l.469.031c.093.016-.032-.046-.032.047 0 .063-.015.203-.078.453L.734-.78c-.046.187-.109.406-.109.5 0 .14.266.375.563.375.343 0 .5-.531.578-.875l.328-1.438c.531-.687.906-1.187 1.219-1.187.187 0 .14-.078.14.203 0 .094-.047.344-.11.61L3-1.173c-.078.297-.156.656-.156.828 0 .172.281.438.547.438.437 0 .984-.344 1.453-.953-.032-.094-.266-.313-.469-.313-.281.313-.406.453-.5.453-.063 0 .078.094.078-.015 0-.079.047-.282.094-.516zm0 0"/></svg><svg overflow="visible" x="335.68" y="43.588"><path d="M2.563-3.766c.03-.156.109-.421.109-.53 0-.157-.266-.376-.547-.376-.344 0-.516.531-.594.875l-.093.453c-.422.297-.75.563-1.063.953.047.141.313.344.563.344.218-.297.421-.453.671-.656l-.296-.11L.39 1.314c-.063.25-.016.218-.297.265l-.172.031c-.047 0-.266.157-.266.204v.218l.063.063H.78c.344 0 1.078-.016 1.078-.016L1.922 2v-.219c0-.047-.188-.203-.219-.218l-.172-.016c-.125-.016-.187.062-.125-.234L1.72-.016c-.078-.078.312.11.562.11.64 0 1.281-.406 1.672-.875.485-.594.781-1.297.781-1.938 0-.765-.421-1.484-1.312-1.484-.469 0-.922.203-.797.125zm1.093 1.188c0 .437-.125.953-.469 1.484-.234.375-.468.594-.812.594-.234 0-.36-.078-.484-.25l.562-2.531c.188-.125.344-.25.672-.25.61 0 .531.515.531.953zm0 0"/></svg><svg overflow="visible" x="340.065" y="43.588"><path d="M1.61-1.656c0-.813.187-1.985 1.14-1.985.266 0 .281.11.406.36.125.219.094.453.094.719 0 .359 0 1.03-.328 1.546-.266.375-.5.5-.828.5-.266 0-.485-.203-.485-1.14zm-1.094.062c0 .485.296 1.688 1.437 1.688.297 0 .688-.078.938-.203.78-.407 1.453-1.454 1.453-2.516 0-.64-.328-1.578-1.438-1.578-1.5 0-2.39 1.547-2.39 2.61zm0 0"/></svg><svg overflow="visible" x="344.073" y="43.588"><path d="M4.703-3.297c.047-.156.125-.422.125-.531 0-.156-.266-.375-.547-.375-.343 0-.5.531-.593.86l-.266.984C2.812-1.313 2.5-.72 2.047-.72c-.156 0-.094.047-.094-.203 0-.14.016-.328.078-.562l.39-1.47c.079-.28.188-.655.188-.827 0-.172-.218-.422-.5-.422-.421 0-1.062.344-1.53.953.03.094.265.297.468.297.266-.297.453-.453.547-.453.062 0-.094-.078-.094.031 0 .078-.063.266-.125.5l-.39 1.516a2.308 2.308 0 00-.094.593c0 .516.468.86.78.86.704 0 1.266-.594 1.829-1.422l-.203-.14-.094.296c-.078.297-.14.656-.14.828 0 .172.234.438.5.438C4 .094 4.516-.25 5-.86c-.047-.094-.266-.313-.484-.313-.266.313-.407.453-.485.453-.062 0 .078.094.078-.015 0-.079.047-.282.094-.516zm0 0"/></svg><svg overflow="visible" x="348.744" y="43.588"><path d="M1.406-.875c0-.25-.343-.406-.422-.406-.093 0-.5.203-.5.562 0 .39.547.828 1.204.828C3.03.11 3.703-.92 3.703-1.53c0-.516-.578-.86-.75-.875v.265C3.203-2.203 4-2.719 4-3.344c0-.578-.781-.89-1.25-.89-.625 0-.422.109-1.39.109-.126.594-.25.938-.423 1.422l.532.11c.328-.782.515-1.079 1.172-1.079.28 0 .468.047.468.422s-.187.734-.828.734h-.328c-.062 0-.344.235-.344.344 0 .063.22.25.282.25h.53c.329 0 .298.125.298.453 0 .688-.39 1.016-.906 1.016-.391 0-.407-.047-.407-.313v-.109zm0 0"/></svg><svg overflow="visible" x="352.402" y="43.588"><path d="M2.813-1.344c0 .594-.188 1-.766 1-.266 0-.516.016-.516-.656 0-.297 0-.688.094-.906.188-.078.453-.14.688-.14.406 0 .5.327.5.702zm.546-2.14c0 .546-.359.718-1.53.984.343-.984.671-1.266 1.28-1.266.36 0 .25.157.25.282zm-.171-.75c-.688 0-1.391.312-1.891.843C.797-2.859.5-2.14.5-1.437.5-.5 1.125.109 2.063.109c.953 0 1.843-.703 1.843-1.39 0-.375-.375-1.172-1.281-1.219v.266c1.031-.36 1.703-.766 1.703-1.22 0-.265-.328-.78-1.14-.78zm0 0"/></svg><svg overflow="visible" x="356.294" y="43.588"><path d="M1.61-1.656c0-.813.187-1.985 1.14-1.985.266 0 .281.11.406.36.125.219.094.453.094.719 0 .359 0 1.03-.328 1.546-.266.375-.5.5-.828.5-.266 0-.485-.203-.485-1.14zm-1.094.062c0 .485.296 1.688 1.437 1.688.297 0 .688-.078.938-.203.78-.407 1.453-1.454 1.453-2.516 0-.64-.328-1.578-1.438-1.578-1.5 0-2.39 1.547-2.39 2.61zm0 0"/></svg><svg overflow="visible" x="360.302" y="43.588"><path d="M3.344-3.234c0 .484-.094 2.703-1.203 2.703-.422 0-.485-.36-.485-.969.016-1.438.578-2.125 1.172-2.125.25 0 .516-.031.516.39zm-.297-1c-.188 0-.672.125-1.094.343C1.297-3.53.578-2.53.578-1.406c0 .703.5 1.515 1.281 1.515.672 0 1.125-.328 1.47-.64.562-.5 1.062-1.64 1.062-2.75a3.975 3.975 0 00-.594-1.969c-.672-1.047-1.344-.953-2-1.328H1.75c-.016 0-.219.187-.219.266 0 .296.297.75.719.89.75.266 1.219.266 1.219 1.266 0 .062 0 .14.047-.063.078.063-.266-.015-.47-.015zm0 0"/></svg><svg overflow="visible" x="364.399" y="43.588"><path d="M.734-.781c-.046.187-.109.406-.109.5 0 .14.266.375.563.375.343 0 .5-.531.578-.875l.265-1.125H3.25l-.156.734c-.063.281-.156.656-.156.828 0 .172.25.438.515.438.438 0 .953-.344 1.422-.953-.031-.094-.25-.313-.469-.313-.265.313-.406.406-.5.406-.062 0 .078.094.078-.015 0-.078.047-.235.11-.469l.5-2.047c.031-.156.11-.422.11-.531 0-.156-.25-.375-.548-.375-.328 0-.515.531-.593.86l-.172.827H2.17L2.282-3c.078-.36.172-.703.172-.86 0-.124-.234-.312-.344-.312-.28 0-.687.063-1.218.125-.079.094-.063.39 0 .5l.468.031c.11.016-.015-.046-.015.047 0 .078-.016.203-.078.453zm0 0"/></svg><svg overflow="visible" x="368.99" y="43.588"><path d="M1.61-1.656c0-.813.187-1.985 1.14-1.985.266 0 .281.11.406.36.125.219.094.453.094.719 0 .359 0 1.03-.328 1.546-.266.375-.5.5-.828.5-.266 0-.485-.203-.485-1.14zm-1.094.062c0 .485.296 1.688 1.437 1.688.297 0 .688-.078.938-.203.78-.407 1.453-1.454 1.453-2.516 0-.64-.328-1.578-1.438-1.578-1.5 0-2.39 1.547-2.39 2.61zm0 0"/></svg><svg overflow="visible" x="372.998" y="43.588"><path d="M4.703-3.297c.047-.156.125-.422.125-.531 0-.156-.266-.375-.547-.375-.343 0-.5.531-.593.86l-.266.984C2.812-1.313 2.5-.72 2.047-.72c-.156 0-.094.047-.094-.203 0-.14.016-.328.078-.562l.39-1.47c.079-.28.188-.655.188-.827 0-.172-.218-.422-.5-.422-.421 0-1.062.344-1.53.953.03.094.265.297.468.297.266-.297.453-.453.547-.453.062 0-.094-.078-.094.031 0 .078-.063.266-.125.5l-.39 1.516a2.308 2.308 0 00-.094.593c0 .516.468.86.78.86.704 0 1.266-.594 1.829-1.422l-.203-.14-.094.296c-.078.297-.14.656-.14.828 0 .172.234.438.5.438C4 .094 4.516-.25 5-.86c-.047-.094-.266-.313-.484-.313-.266.313-.407.453-.485.453-.062 0 .078.094.078-.015 0-.079.047-.282.094-.516zm-.187-2.172l-.313-.265c-.312.453-.578.656-.812.656-.266 0-.25 0-.25-.172 0-.078.03-.094.03-.172 0-.125-.265-.375-.452-.375-.14 0-.547.25-.547.578 0 .36.578.75 1.11.75.421 0 .984-.328 1.312-.937zm0 0"/></svg></g></svg>