<svg xmlns="http://www.w3.org/2000/svg" xmlns:xlink="http://www.w3.org/1999/xlink" width="547px" height="45px" viewBox="0 0 410 34"><svg overflow="visible" x="-.149" y="12.253"><path d="M2.125-3.125c0-.344-.469-.766-.828-.766-.344 0-.828.422-.828.766 0 .36.484.766.828.766.36 0 .828-.407.828-.766zm3.344 0c0-.344-.485-.766-.828-.766-.344 0-.844.422-.844.766 0 .36.5.766.844.766.343 0 .828-.407.828-.766zm3.328 0c0-.344-.485-.766-.828-.766-.344 0-.828.422-.828.766 0 .36.484.766.828.766.343 0 .828-.407.828-.766zm0 0"/></svg><svg overflow="visible" x="12.44" y="12.253"><path d="M8.828-4.281c0-.125-.312-.375-.437-.375H.906c-.125 0-.437.25-.437.375 0 .14.312.375.437.375h7.485c.125 0 .437-.235.437-.375zm0 2.328c0-.14-.312-.375-.437-.375H.906c-.125 0-.437.234-.437.375 0 .125.312.36.437.36h7.485c.125 0 .437-.235.437-.36zm0 0"/></svg><svg overflow="visible" x="25.065" y="12.253"><path d="M7.016-1.844c0-.11-.297-.25-.329-.25-.125 0-.328.172-.39.344-.234.813-.422 1.36-1.016 1.36-.203 0-.093.015-.093-.266 0-.297.109-.594.218-.844.219-.64.719-1.953.719-2.64 0-.798-.703-1.407-1.563-1.407-1.078 0-1.796.797-2 1.078l.329.094c-.063-.672-.735-1.172-1.282-1.172-.562 0-.921.5-1.14.89C.313-4.327.14-3.624.14-3.577c0 .125.484.219.484.219l-.14.03c.124 0 .328-.14.406-.405.203-.844.25-1.282.671-1.282.25 0 .172.016.172.407 0 .265-.03.39-.187 1.015L.844-.844c-.031.188-.11.469-.11.516 0 .219.375.453.563.453.14 0 .547-.219.656-.547-.078.156.125-.5.203-.797l.266-1.078c.062-.265.14-.531.203-.797l.14-.594c.188-.374.626-1.328 1.766-1.328.532 0 .438.313.438.704 0 .734-.578 2.265-.766 2.78-.11.282-.125.423-.125.548 0 .562.625 1.109 1.188 1.109 1.125 0 1.75-1.875 1.75-1.969zm0 0"/></svg><svg overflow="visible" x="34.234" y="12.253"><path d="M5.703 5.36c0-.048-.078-.204-.125-.22-1.672-1.25-2.75-4.484-2.75-7.234V-4.14c0-2.75 1.078-5.984 2.75-7.234a.445.445 0 00.125-.219c0-.078-.266-.281-.344-.281a1.17 1.17 0 00-.25.063c-1.75 1.328-3.453 4.765-3.453 7.671v2.047C1.656.812 3.36 4.25 5.11 5.562a.67.67 0 00.25.079c.079 0 .344-.204.344-.282zm0 0"/></svg><svg overflow="visible" x="54.469" y="7.542"><path d="M5.094-3.234c0-.47-.75-.782-1.078-.782-.422 0-.907.329-.922.344.031.078-.563-.344-1.031-.344C1.125-4.016.39-2.828.39-2.578c0 .11.328.281.343.281.11 0 .329-.203.375-.312.204-.657.532-.844.938-.844.265 0 .297-.016.297.39 0 .172-.11.579-.188.876l-.281 1.14c-.078.281-.156.578-.578.578-.031 0-.125.047-.078.078-.032.016.203-.453.203-.5 0-.187-.344-.468-.547-.468-.234 0-.688.359-.688.671 0 .422.688.766 1.094.766.39 0 .875-.281.907-.344.03.047.687.344 1.03.344.954 0 1.688-1.203 1.688-1.437 0-.11-.328-.266-.343-.266-.125 0-.344.203-.375.297-.172.578-.47.86-.938.86-.328 0-.297-.063-.297-.391 0-.22.203-.97.438-1.907.156-.64.328-.687.609-.687l.14-.047s-.015 0-.093-.047c.125-.031-.172.36-.172.5 0 .188.344.469.531.469.203 0 .688-.313.688-.656zm0 0"/></svg><svg overflow="visible" x="59.892" y="7.542"><path d="M2.047-5.672c0-.312-.469-.625-.688-.625-.25 0-.703.328-.703.625l.328 3.688c.016.187.25.359.375.359.11 0 .344-.172.36-.344zm0 5.031c0-.265-.438-.64-.688-.64-.296 0-.703.39-.703.64 0 .282.453.641.688.641.281 0 .703-.375.703-.64zm0 0"/></svg><path d="M41.688 9.266h33.69" fill="none" stroke-width=".478" stroke="#000" stroke-miterlimit="10"/><svg overflow="visible" x="41.686" y="16.378"><path d="M4.906-3.5c0-.172-.343-.422-.5-.422-.078 0-.39.094-.484.25a3.37 3.37 0 00-.188.594l-.187.687-.328 1.36.344.11S3.046-.47 2.39-.47c-.563 0-.36-.39-.36-.531 0-.453.203-.984.453-1.625.094-.266.141-.375.141-.516 0-.406-.563-.875-1.016-.875-.843 0-1.421 1.297-1.421 1.438 0 .11.328.281.343.281.125 0 .344-.203.36-.297.218-.703.359-.86.703-.86.14 0 0-.077 0 .126s-.078.375-.125.484C1.079-1.813.984-1.5.984-1.14c0 .141.063.657.391.922.266.219.766.297.984.297.344 0 .782-.156 1.063-.406l-.36-.125c-.109.469-.14.703-.484 1.125-.234.25-.422.484-.86.484-.062 0-.312.047-.343.016.172-.031.313-.484.313-.484l.062-.11c0-.265-.453-.484-.531-.484C1 .094.516.422.516.813c0 .421.609.89 1.203.89.86 0 2.093-.812 2.343-1.86l.797-3.155c.047-.126.047-.141.047-.188zm0 0"/></svg><svg overflow="visible" x="46.598" y="16.378"><path d="M2.047-5.672c0-.312-.469-.625-.688-.625-.25 0-.703.328-.703.625l.328 3.688c.016.187.25.359.375.359.11 0 .344-.172.36-.344zm0 5.031c0-.265-.438-.64-.688-.64-.296 0-.703.39-.703.64 0 .282.453.641.688.641.281 0 .703-.375.703-.64zm0 0"/></svg><svg overflow="visible" x="49.301" y="16.378"><path d="M2.984 1.828a.933.933 0 00-.093-.172C2.016 1 1.5-.562 1.5-1.906v-.703c0-1.329.516-2.891 1.39-3.547a.702.702 0 00.094-.188c0-.031-.25-.234-.28-.234a1.01 1.01 0 00-.204.062C1.578-5.828.64-4.03.64-2.609v.703c0 1.437.938 3.234 1.86 3.922.016.015.188.062.203.062.031 0 .281-.203.281-.25zm0 0"/></svg><svg overflow="visible" x="52.557" y="16.378"><path d="M5.094-3.234c0-.47-.75-.782-1.078-.782-.422 0-.907.329-.922.344.031.078-.563-.344-1.031-.344C1.125-4.016.39-2.828.39-2.578c0 .11.328.281.343.281.11 0 .329-.203.375-.312.204-.657.532-.844.938-.844.265 0 .297-.016.297.39 0 .172-.11.579-.188.876l-.281 1.14c-.078.281-.156.578-.578.578-.031 0-.125.047-.078.078-.032.016.203-.453.203-.5 0-.187-.344-.468-.547-.468-.234 0-.688.359-.688.671 0 .422.688.766 1.094.766.39 0 .875-.281.907-.344.03.047.687.344 1.03.344.954 0 1.688-1.203 1.688-1.437 0-.11-.328-.266-.343-.266-.125 0-.344.203-.375.297-.172.578-.47.86-.938.86-.328 0-.297-.063-.297-.391 0-.22.203-.97.438-1.907.156-.64.328-.687.609-.687l.14-.047s-.015 0-.093-.047c.125-.031-.172.36-.172.5 0 .188.344.469.531.469.203 0 .688-.313.688-.656zm0 0"/></svg><svg overflow="visible" x="57.98" y="16.378"><path d="M6.25-2.25c0-.094-.281-.328-.375-.328H.641c-.094 0-.375.234-.375.328s.28.328.375.328h5.234c.094 0 .375-.234.375-.328zm0 0"/></svg><svg overflow="visible" x="64.49" y="16.378"><path d="M4.906-3.5c0-.172-.343-.422-.5-.422-.078 0-.39.094-.484.25a3.37 3.37 0 00-.188.594l-.187.687-.328 1.36.344.11S3.046-.47 2.39-.47c-.563 0-.36-.39-.36-.531 0-.453.203-.984.453-1.625.094-.266.141-.375.141-.516 0-.406-.563-.875-1.016-.875-.843 0-1.421 1.297-1.421 1.438 0 .11.328.281.343.281.125 0 .344-.203.36-.297.218-.703.359-.86.703-.86.14 0 0-.077 0 .126s-.078.375-.125.484C1.079-1.813.984-1.5.984-1.14c0 .141.063.657.391.922.266.219.766.297.984.297.344 0 .782-.156 1.063-.406l-.36-.125c-.109.469-.14.703-.484 1.125-.234.25-.422.484-.86.484-.062 0-.312.047-.343.016.172-.031.313-.484.313-.484l.062-.11c0-.265-.453-.484-.531-.484C1 .094.516.422.516.813c0 .421.609.89 1.203.89.86 0 2.093-.812 2.343-1.86l.797-3.155c.047-.126.047-.141.047-.188zm0 0"/></svg><svg overflow="visible" x="69.411" y="16.378"><path d="M2.625-1.906v-.703c0-1.422-.953-3.22-1.875-3.907a.88.88 0 00-.188-.062c-.046 0-.296.203-.296.234 0 .032.078.172.093.188C1.234-5.5 1.75-3.938 1.75-2.61v.703C1.75-.563 1.234 1 .36 1.656a.933.933 0 00-.094.172c0 .047.25.25.296.25a.88.88 0 00.188-.062c.922-.688 1.875-2.485 1.875-3.922zm0 0"/></svg><svg overflow="visible" x="72.667" y="16.378"><path d="M2.047-5.672c0-.312-.469-.625-.688-.625-.25 0-.703.328-.703.625l.328 3.688c.016.187.25.359.375.359.11 0 .344-.172.36-.344zm0 5.031c0-.265-.438-.64-.688-.64-.296 0-.703.39-.703.64 0 .282.453.641.688.641.281 0 .703-.375.703-.64zm0 0"/></svg><svg overflow="visible" x="76.573" y="12.253"><path d="M4.14-5.156c0-.125-.312-.266-.53-.266H2.78c.39-1.562.453-1.797.453-1.875 0-.203-.328-.453-.53-.453-.032 0-.579.14-.688.563l-.422 1.765H.64c-.25 0-.563.14-.563.36 0 .156.297.28.531.28h.813C.594-1.515.547-1.311.547-1.093c0 .64.656 1.219 1.312 1.219 1.22 0 2.079-1.875 2.079-1.969 0-.11-.282-.25-.329-.25-.109 0-.328.172-.375.297C2.72-.547 2.281-.39 1.875-.39c-.25 0-.172-.03-.172-.421 0-.282.016-.375.063-.579l.859-3.39h.953c.25 0 .563-.125.563-.375zm0 0"/></svg><svg overflow="visible" x="80.889" y="7.913"><path d="M4.906-3.5c0-.172-.343-.422-.5-.422-.078 0-.39.094-.484.25a3.37 3.37 0 00-.188.594l-.187.687-.328 1.36.344.11S3.046-.47 2.39-.47c-.563 0-.36-.39-.36-.531 0-.453.203-.984.453-1.625.094-.266.141-.375.141-.516 0-.406-.563-.875-1.016-.875-.843 0-1.421 1.297-1.421 1.438 0 .11.328.281.343.281.125 0 .344-.203.36-.297.218-.703.359-.86.703-.86.14 0 0-.077 0 .126s-.078.375-.125.484C1.079-1.813.984-1.5.984-1.14c0 .141.063.657.391.922.266.219.766.297.984.297.344 0 .782-.156 1.063-.406l-.36-.125c-.109.469-.14.703-.484 1.125-.234.25-.422.484-.86.484-.062 0-.312.047-.343.016.172-.031.313-.484.313-.484l.062-.11c0-.265-.453-.484-.531-.484C1 .094.516.422.516.813c0 .421.609.89 1.203.89.86 0 2.093-.812 2.343-1.86l.797-3.155c.047-.126.047-.141.047-.188zm0 0"/></svg><svg overflow="visible" x="86.308" y="12.253"><path d="M4.156 2.719c0-.047-.078-.172-.11-.203-1.234-.922-2-3.22-2-5.141v-1c0-1.906.767-4.203 2-5.14a.457.457 0 00.11-.188c0-.063-.25-.25-.312-.25a1.01 1.01 0 00-.203.062C2.312-8.156 1-5.67 1-3.625v1C1-.578 2.313 1.906 3.64 2.906c.016.016.188.063.204.063.062 0 .312-.203.312-.25zm0 0"/></svg><svg overflow="visible" x="90.959" y="12.253"><path d="M5.203-.125v-.516h-.578c-1.078 0-.922 0-.922-.437v-6.703c0-.282-.187-.438-.578-.438-.766.797-1.672.766-2.266.766v.625c.438 0 1.282-.031 1.563-.172v5.922c0 .437.172.437-.906.437H.937v.672C1.547-.03 2.595-.03 3.079-.03c.469 0 1.516 0 2.125.062zm0 0"/></svg><svg overflow="visible" x="99.59" y="12.253"><path d="M8.828-3.125c0-.125-.312-.36-.437-.36H.906c-.125 0-.437.235-.437.36 0 .14.312.375.437.375h7.485c.125 0 .437-.234.437-.375zm0 0"/></svg><svg overflow="visible" x="111.545" y="12.253"><path d="M4.14-5.156c0-.125-.312-.266-.53-.266H2.78c.39-1.562.453-1.797.453-1.875 0-.203-.328-.453-.53-.453-.032 0-.579.14-.688.563l-.422 1.765H.64c-.25 0-.563.14-.563.36 0 .156.297.28.531.28h.813C.594-1.515.547-1.311.547-1.093c0 .64.656 1.219 1.312 1.219 1.22 0 2.079-1.875 2.079-1.969 0-.11-.282-.25-.329-.25-.109 0-.328.172-.375.297C2.72-.547 2.281-.39 1.875-.39c-.25 0-.172-.03-.172-.421 0-.282.016-.375.063-.579l.859-3.39h.953c.25 0 .563-.125.563-.375zm0 0"/></svg><svg overflow="visible" x="115.861" y="12.253"><path d="M3.64-2.625v-1c0-2.047-1.328-4.531-2.64-5.516a.774.774 0 00-.203-.062c-.063 0-.313.187-.313.25 0 .031.079.172.094.187 1.25.938 2.016 3.235 2.016 5.141v1c0 1.922-.766 4.219-2.016 5.14-.015.032-.094.157-.094.204 0 .047.25.25.313.25A.774.774 0 001 2.906c1.313-1 2.64-3.484 2.64-5.531zm0 0"/></svg><svg overflow="visible" x="120.518" y="7.913"><path d="M5.094-3.234c0-.47-.75-.782-1.078-.782-.422 0-.907.329-.922.344.031.078-.563-.344-1.031-.344C1.125-4.016.39-2.828.39-2.578c0 .11.328.281.343.281.11 0 .329-.203.375-.312.204-.657.532-.844.938-.844.265 0 .297-.016.297.39 0 .172-.11.579-.188.876l-.281 1.14c-.078.281-.156.578-.578.578-.031 0-.125.047-.078.078-.032.016.203-.453.203-.5 0-.187-.344-.468-.547-.468-.234 0-.688.359-.688.671 0 .422.688.766 1.094.766.39 0 .875-.281.907-.344.03.047.687.344 1.03.344.954 0 1.688-1.203 1.688-1.437 0-.11-.328-.266-.343-.266-.125 0-.344.203-.375.297-.172.578-.47.86-.938.86-.328 0-.297-.063-.297-.391 0-.22.203-.97.438-1.907.156-.64.328-.687.609-.687l.14-.047s-.015 0-.093-.047c.125-.031-.172.36-.172.5 0 .188.344.469.531.469.203 0 .688-.313.688-.656zm0 0"/></svg><svg overflow="visible" x="125.941" y="7.913"><path d="M6.25-2.25c0-.094-.281-.328-.375-.328H.641c-.094 0-.375.234-.375.328s.28.328.375.328h5.234c.094 0 .375-.234.375-.328zm0 0"/></svg><svg overflow="visible" x="132.452" y="7.913"><path d="M4.906-3.5c0-.172-.343-.422-.5-.422-.078 0-.39.094-.484.25a3.37 3.37 0 00-.188.594l-.187.687-.328 1.36.344.11S3.046-.47 2.39-.47c-.563 0-.36-.39-.36-.531 0-.453.203-.984.453-1.625.094-.266.141-.375.141-.516 0-.406-.563-.875-1.016-.875-.843 0-1.421 1.297-1.421 1.438 0 .11.328.281.343.281.125 0 .344-.203.36-.297.218-.703.359-.86.703-.86.14 0 0-.077 0 .126s-.078.375-.125.484C1.079-1.813.984-1.5.984-1.14c0 .141.063.657.391.922.266.219.766.297.984.297.344 0 .782-.156 1.063-.406l-.36-.125c-.109.469-.14.703-.484 1.125-.234.25-.422.484-.86.484-.062 0-.312.047-.343.016.172-.031.313-.484.313-.484l.062-.11c0-.265-.453-.484-.531-.484C1 .094.516.422.516.813c0 .421.609.89 1.203.89.86 0 2.093-.812 2.343-1.86l.797-3.155c.047-.126.047-.141.047-.188zm0 0"/></svg><svg overflow="visible" x="140.527" y="12.253"><path d="M8.828-3.125c0-.125-.312-.36-.437-.36H.906c-.125 0-.437.235-.437.36 0 .14.312.375.437.375h7.485c.125 0 .437-.234.437-.375zm0 0"/></svg><svg overflow="visible" x="166.623" y="7.542"><path d="M5.094-3.234c0-.47-.75-.782-1.078-.782-.422 0-.907.329-.922.344.031.078-.563-.344-1.031-.344C1.125-4.016.39-2.828.39-2.578c0 .11.328.281.343.281.11 0 .329-.203.375-.312.204-.657.532-.844.938-.844.265 0 .297-.016.297.39 0 .172-.11.579-.188.876l-.281 1.14c-.078.281-.156.578-.578.578-.031 0-.125.047-.078.078-.032.016.203-.453.203-.5 0-.187-.344-.468-.547-.468-.234 0-.688.359-.688.671 0 .422.688.766 1.094.766.39 0 .875-.281.907-.344.03.047.687.344 1.03.344.954 0 1.688-1.203 1.688-1.437 0-.11-.328-.266-.343-.266-.125 0-.344.203-.375.297-.172.578-.47.86-.938.86-.328 0-.297-.063-.297-.391 0-.22.203-.97.438-1.907.156-.64.328-.687.609-.687l.14-.047s-.015 0-.093-.047c.125-.031-.172.36-.172.5 0 .188.344.469.531.469.203 0 .688-.313.688-.656zm0 0"/></svg><svg overflow="visible" x="172.046" y="7.542"><path d="M2.047-5.672c0-.312-.469-.625-.688-.625-.25 0-.703.328-.703.625l.328 3.688c.016.187.25.359.375.359.11 0 .344-.172.36-.344zm0 5.031c0-.265-.438-.64-.688-.64-.296 0-.703.39-.703.64 0 .282.453.641.688.641.281 0 .703-.375.703-.64zm0 0"/></svg><path d="M153.68 9.266h34.011" fill="none" stroke-width=".478" stroke="#000" stroke-miterlimit="10"/><svg overflow="visible" x="153.681" y="16.378"><path d="M4.953-3.266c0-.28-.406-.75-.844-.75-.484 0-1.062.391-1.5.797-.343.328-.468.531-.546.578l.765-3.109c-.062.125-.031.016-.031.016l.062-.125c0-.032-.234-.266-.343-.266-.157 0-.86.063-1.063.078-.078.016-.39.172-.39.36 0 .109.312.265.421.265.407 0 .188-.094.188-.031 0 .062-.016.11-.031.187L.453-.53c-.031.156.313.312.313.312L.422-.344c0 .125.312.422.484.422.235 0 .547-.328.594-.531-.047.11.39-1.484.375-1.422.422.047.703.078.703.516 0 .03 0 .078-.031.156-.031.125-.031.172-.031.266 0 .593.703 1.015 1.109 1.015.813 0 1.203-1.312 1.203-1.312l.063-.125c0-.11-.313-.266-.344-.266-.11 0-.328.203-.375.36-.11.359-.125.796-.531.796-.22 0-.079-.047-.079-.281 0-.14 0-.156.047-.375a.784.784 0 00.047-.25c0-.75-1.219-1.031-1.578-1.047l.156.266c.235-.14.547-.422.688-.547.422-.406.703-.75 1.172-.75.11 0 .062-.016-.047-.156-.031 0-.313.437-.313.562 0 .188.344.469.532.469.234 0 .687-.344.687-.688zm0 0"/></svg><svg overflow="visible" x="158.761" y="16.378"><path d="M2.047-5.672c0-.312-.469-.625-.688-.625-.25 0-.703.328-.703.625l.328 3.688c.016.187.25.359.375.359.11 0 .344-.172.36-.344zm0 5.031c0-.265-.438-.64-.688-.64-.296 0-.703.39-.703.64 0 .282.453.641.688.641.281 0 .703-.375.703-.64zm0 0"/></svg><svg overflow="visible" x="161.464" y="16.378"><path d="M2.984 1.828a.933.933 0 00-.093-.172C2.016 1 1.5-.562 1.5-1.906v-.703c0-1.329.516-2.891 1.39-3.547a.702.702 0 00.094-.188c0-.031-.25-.234-.28-.234a1.01 1.01 0 00-.204.062C1.578-5.828.64-4.03.64-2.609v.703c0 1.437.938 3.234 1.86 3.922.016.015.188.062.203.062.031 0 .281-.203.281-.25zm0 0"/></svg><svg overflow="visible" x="164.719" y="16.378"><path d="M5.094-3.234c0-.47-.75-.782-1.078-.782-.422 0-.907.329-.922.344.031.078-.563-.344-1.031-.344C1.125-4.016.39-2.828.39-2.578c0 .11.328.281.343.281.11 0 .329-.203.375-.312.204-.657.532-.844.938-.844.265 0 .297-.016.297.39 0 .172-.11.579-.188.876l-.281 1.14c-.078.281-.156.578-.578.578-.031 0-.125.047-.078.078-.032.016.203-.453.203-.5 0-.187-.344-.468-.547-.468-.234 0-.688.359-.688.671 0 .422.688.766 1.094.766.39 0 .875-.281.907-.344.03.047.687.344 1.03.344.954 0 1.688-1.203 1.688-1.437 0-.11-.328-.266-.343-.266-.125 0-.344.203-.375.297-.172.578-.47.86-.938.86-.328 0-.297-.063-.297-.391 0-.22.203-.97.438-1.907.156-.64.328-.687.609-.687l.14-.047s-.015 0-.093-.047c.125-.031-.172.36-.172.5 0 .188.344.469.531.469.203 0 .688-.313.688-.656zm0 0"/></svg><svg overflow="visible" x="170.142" y="16.378"><path d="M6.25-2.25c0-.094-.281-.328-.375-.328H.641c-.094 0-.375.234-.375.328s.28.328.375.328h5.234c.094 0 .375-.234.375-.328zm0 0"/></svg><svg overflow="visible" x="176.653" y="16.378"><path d="M4.953-3.266c0-.28-.406-.75-.844-.75-.484 0-1.062.391-1.5.797-.343.328-.468.531-.546.578l.765-3.109c-.062.125-.031.016-.031.016l.062-.125c0-.032-.234-.266-.343-.266-.157 0-.86.063-1.063.078-.078.016-.39.172-.39.36 0 .109.312.265.421.265.407 0 .188-.094.188-.031 0 .062-.016.11-.031.187L.453-.53c-.031.156.313.312.313.312L.422-.344c0 .125.312.422.484.422.235 0 .547-.328.594-.531-.047.11.39-1.484.375-1.422.422.047.703.078.703.516 0 .03 0 .078-.031.156-.031.125-.031.172-.031.266 0 .593.703 1.015 1.109 1.015.813 0 1.203-1.312 1.203-1.312l.063-.125c0-.11-.313-.266-.344-.266-.11 0-.328.203-.375.36-.11.359-.125.796-.531.796-.22 0-.079-.047-.079-.281 0-.14 0-.156.047-.375a.784.784 0 00.047-.25c0-.75-1.219-1.031-1.578-1.047l.156.266c.235-.14.547-.422.688-.547.422-.406.703-.75 1.172-.75.11 0 .062-.016-.047-.156-.031 0-.313.437-.313.562 0 .188.344.469.532.469.234 0 .687-.344.687-.688zm0 0"/></svg><svg overflow="visible" x="181.733" y="16.378"><path d="M2.625-1.906v-.703c0-1.422-.953-3.22-1.875-3.907a.88.88 0 00-.188-.062c-.046 0-.296.203-.296.234 0 .032.078.172.093.188C1.234-5.5 1.75-3.938 1.75-2.61v.703C1.75-.563 1.234 1 .36 1.656a.933.933 0 00-.094.172c0 .047.25.25.296.25a.88.88 0 00.188-.062c.922-.688 1.875-2.485 1.875-3.922zm0 0"/></svg><svg overflow="visible" x="184.988" y="16.378"><path d="M2.047-5.672c0-.312-.469-.625-.688-.625-.25 0-.703.328-.703.625l.328 3.688c.016.187.25.359.375.359.11 0 .344-.172.36-.344zm0 5.031c0-.265-.438-.64-.688-.64-.296 0-.703.39-.703.64 0 .282.453.641.688.641.281 0 .703-.375.703-.64zm0 0"/></svg><svg overflow="visible" x="188.886" y="12.253"><path d="M4.14-5.156c0-.125-.312-.266-.53-.266H2.78c.39-1.562.453-1.797.453-1.875 0-.203-.328-.453-.53-.453-.032 0-.579.14-.688.563l-.422 1.765H.64c-.25 0-.563.14-.563.36 0 .156.297.28.531.28h.813C.594-1.515.547-1.311.547-1.093c0 .64.656 1.219 1.312 1.219 1.22 0 2.079-1.875 2.079-1.969 0-.11-.282-.25-.329-.25-.109 0-.328.172-.375.297C2.72-.547 2.281-.39 1.875-.39c-.25 0-.172-.03-.172-.421 0-.282.016-.375.063-.579l.859-3.39h.953c.25 0 .563-.125.563-.375zm0 0"/></svg><svg overflow="visible" x="193.202" y="7.913"><path d="M4.953-3.266c0-.28-.406-.75-.844-.75-.484 0-1.062.391-1.5.797-.343.328-.468.531-.546.578l.765-3.109c-.062.125-.031.016-.031.016l.062-.125c0-.032-.234-.266-.343-.266-.157 0-.86.063-1.063.078-.078.016-.39.172-.39.36 0 .109.312.265.421.265.407 0 .188-.094.188-.031 0 .062-.016.11-.031.187L.453-.53c-.031.156.313.312.313.312L.422-.344c0 .125.312.422.484.422.235 0 .547-.328.594-.531-.047.11.39-1.484.375-1.422.422.047.703.078.703.516 0 .03 0 .078-.031.156-.031.125-.031.172-.031.266 0 .593.703 1.015 1.109 1.015.813 0 1.203-1.312 1.203-1.312l.063-.125c0-.11-.313-.266-.344-.266-.11 0-.328.203-.375.36-.11.359-.125.796-.531.796-.22 0-.079-.047-.079-.281 0-.14 0-.156.047-.375a.784.784 0 00.047-.25c0-.75-1.219-1.031-1.578-1.047l.156.266c.235-.14.547-.422.688-.547.422-.406.703-.75 1.172-.75.11 0 .062-.016-.047-.156-.031 0-.313.437-.313.562 0 .188.344.469.532.469.234 0 .687-.344.687-.688zm0 0"/></svg><svg overflow="visible" x="198.78" y="12.253"><path d="M4.156 2.719c0-.047-.078-.172-.11-.203-1.234-.922-2-3.22-2-5.141v-1c0-1.906.767-4.203 2-5.14a.457.457 0 00.11-.188c0-.063-.25-.25-.312-.25a1.01 1.01 0 00-.203.062C2.312-8.156 1-5.67 1-3.625v1C1-.578 2.313 1.906 3.64 2.906c.016.016.188.063.204.063.062 0 .312-.203.312-.25zm0 0"/></svg><svg overflow="visible" x="203.431" y="12.253"><path d="M5.203-.125v-.516h-.578c-1.078 0-.922 0-.922-.437v-6.703c0-.282-.187-.438-.578-.438-.766.797-1.672.766-2.266.766v.625c.438 0 1.282-.031 1.563-.172v5.922c0 .437.172.437-.906.437H.937v.672C1.547-.03 2.595-.03 3.079-.03c.469 0 1.516 0 2.125.062zm0 0"/></svg><svg overflow="visible" x="212.062" y="12.253"><path d="M8.828-3.125c0-.125-.312-.36-.437-.36H.906c-.125 0-.437.235-.437.36 0 .14.312.375.437.375h7.485c.125 0 .437-.234.437-.375zm0 0"/></svg><svg overflow="visible" x="224.017" y="12.253"><path d="M4.14-5.156c0-.125-.312-.266-.53-.266H2.78c.39-1.562.453-1.797.453-1.875 0-.203-.328-.453-.53-.453-.032 0-.579.14-.688.563l-.422 1.765H.64c-.25 0-.563.14-.563.36 0 .156.297.28.531.28h.813C.594-1.515.547-1.311.547-1.093c0 .64.656 1.219 1.312 1.219 1.22 0 2.079-1.875 2.079-1.969 0-.11-.282-.25-.329-.25-.109 0-.328.172-.375.297C2.72-.547 2.281-.39 1.875-.39c-.25 0-.172-.03-.172-.421 0-.282.016-.375.063-.579l.859-3.39h.953c.25 0 .563-.125.563-.375zm0 0"/></svg><svg overflow="visible" x="228.333" y="12.253"><path d="M3.64-2.625v-1c0-2.047-1.328-4.531-2.64-5.516a.774.774 0 00-.203-.062c-.063 0-.313.187-.313.25 0 .031.079.172.094.187 1.25.938 2.016 3.235 2.016 5.141v1c0 1.922-.766 4.219-2.016 5.14-.015.032-.094.157-.094.204 0 .047.25.25.313.25A.774.774 0 001 2.906c1.313-1 2.64-3.484 2.64-5.531zm0 0"/></svg><svg overflow="visible" x="232.989" y="7.913"><path d="M5.094-3.234c0-.47-.75-.782-1.078-.782-.422 0-.907.329-.922.344.031.078-.563-.344-1.031-.344C1.125-4.016.39-2.828.39-2.578c0 .11.328.281.343.281.11 0 .329-.203.375-.312.204-.657.532-.844.938-.844.265 0 .297-.016.297.39 0 .172-.11.579-.188.876l-.281 1.14c-.078.281-.156.578-.578.578-.031 0-.125.047-.078.078-.032.016.203-.453.203-.5 0-.187-.344-.468-.547-.468-.234 0-.688.359-.688.671 0 .422.688.766 1.094.766.39 0 .875-.281.907-.344.03.047.687.344 1.03.344.954 0 1.688-1.203 1.688-1.437 0-.11-.328-.266-.343-.266-.125 0-.344.203-.375.297-.172.578-.47.86-.938.86-.328 0-.297-.063-.297-.391 0-.22.203-.97.438-1.907.156-.64.328-.687.609-.687l.14-.047s-.015 0-.093-.047c.125-.031-.172.36-.172.5 0 .188.344.469.531.469.203 0 .688-.313.688-.656zm0 0"/></svg><svg overflow="visible" x="238.412" y="7.913"><path d="M6.25-2.25c0-.094-.281-.328-.375-.328H.641c-.094 0-.375.234-.375.328s.28.328.375.328h5.234c.094 0 .375-.234.375-.328zm0 0"/></svg><svg overflow="visible" x="244.923" y="7.913"><path d="M4.953-3.266c0-.28-.406-.75-.844-.75-.484 0-1.062.391-1.5.797-.343.328-.468.531-.546.578l.765-3.109c-.062.125-.031.016-.031.016l.062-.125c0-.032-.234-.266-.343-.266-.157 0-.86.063-1.063.078-.078.016-.39.172-.39.36 0 .109.312.265.421.265.407 0 .188-.094.188-.031 0 .062-.016.11-.031.187L.453-.53c-.031.156.313.312.313.312L.422-.344c0 .125.312.422.484.422.235 0 .547-.328.594-.531-.047.11.39-1.484.375-1.422.422.047.703.078.703.516 0 .03 0 .078-.031.156-.031.125-.031.172-.031.266 0 .593.703 1.015 1.109 1.015.813 0 1.203-1.312 1.203-1.312l.063-.125c0-.11-.313-.266-.344-.266-.11 0-.328.203-.375.36-.11.359-.125.796-.531.796-.22 0-.079-.047-.079-.281 0-.14 0-.156.047-.375a.784.784 0 00.047-.25c0-.75-1.219-1.031-1.578-1.047l.156.266c.235-.14.547-.422.688-.547.422-.406.703-.75 1.172-.75.11 0 .062-.016-.047-.156-.031 0-.313.437-.313.562 0 .188.344.469.532.469.234 0 .687-.344.687-.688zm0 0"/></svg><svg overflow="visible" x="250.501" y="12.253"><path d="M4.578-2.094V-4.14c0-2.906-1.703-6.343-3.453-7.671a1.028 1.028 0 00-.234-.063c-.079 0-.36.203-.36.281 0 .047.094.188.125.219 1.672 1.25 2.766 4.484 2.766 7.234v2.047c0 2.75-1.094 5.985-2.766 7.235a.504.504 0 00-.125.218c0 .079.281.282.36.282a.595.595 0 00.234-.079C2.875 4.25 4.578.813 4.578-2.093zm0 0"/></svg><g><svg overflow="visible" x="258.746" y="12.253"><path d="M2.672-1.266a.532.532 0 00-.375.141.686.686 0 00-.125.36c0 .124.039.245.125.359.082.105.207.156.375.156.07-.02.144-.035.219-.047.03 0 .046.024.046.063 0 .199-.074.445-.218.75-.188.343-.43.515-.719.515v.235c.375 0 .68-.188.922-.563.207-.336.312-.71.312-1.14 0-.282-.058-.485-.171-.61-.118-.144-.247-.219-.391-.219zm0 0"/></svg><svg overflow="visible" x="270.701" y="12.253"><path d="M9.766-2.61H8.359v-5.562h2.422c.094-.008.149-.047.172-.11 0-.113-.277-.413-.828-.905-.063-.07-.121-.07-.172 0l-.312.437c-.125.137-.243.21-.344.219h-.938v-.453c0-.082.024-.172.079-.266.03-.082.101-.156.218-.219.125-.05.133-.113.031-.187a6.91 6.91 0 00-.828-.297c-.086-.02-.12.027-.109.14.02.25.035.528.047.829v.453H4.063v-.453c0-.082.023-.172.078-.266.03-.082.101-.156.218-.219.125-.05.133-.113.032-.187a6.91 6.91 0 00-.829-.297c-.085-.02-.12.027-.109.14.02.25.035.528.047.829v.453H2c-.367 0-.695-.035-.984-.11C.96-8.67.922-8.676.89-8.656c-.032.031-.016.078.046.14a.724.724 0 01.235.36c0 .074.035.094.11.062a6.84 6.84 0 01.859-.078H3.5v5.563H1.672a4.68 4.68 0 01-.984-.094C.632-2.734.594-2.738.563-2.72c-.032.031-.016.074.046.125a.844.844 0 01.235.36c.008.074.047.101.11.078.237-.051.523-.078.859-.078h9.421c.102-.008.164-.047.188-.11 0-.113-.277-.414-.828-.906-.063-.07-.125-.07-.188 0l-.297.422c-.125.148-.242.219-.343.219zM4.062-4.202h3.735v1.594H4.063zm0-1.906h3.735v1.546H4.063zm0-2.063h3.735v1.688H4.063zm3.063 6.797C8.02-.957 8.863-.227 9.656.813c.07.144.14.207.203.187.051 0 .118-.07.204-.203a.7.7 0 00.062-.469c-.031-.2-.242-.437-.625-.719-.543-.406-1.29-.8-2.234-1.187-.118-.05-.184-.04-.204.031-.03.086-.011.14.063.172zm-2.766-.266C3.36-.586 2.297.207 1.172.75c-.094.04-.125.102-.094.188.031.07.094.093.188.062A16.92 16.92 0 003.594-.313c.781-.562 1.258-.832 1.437-.812.051 0 .086-.016.11-.047.03-.031.023-.062-.016-.094a4.386 4.386 0 00-.594-.421c-.054-.032-.11-.016-.172.046zm0 0"/></svg><svg overflow="visible" x="282.656" y="12.253"><path d="M5.61-7.64H2.03C1.727-7.88 1.571-8 1.562-8c-.023 0-.027.043-.015.125.05.355.082.656.094.906v1.594l-.094 2.39c0 .157.02.235.062.235a.36.36 0 00.141-.047c.29-.187.438-.336.438-.453v-.578h3.421v2.062C5.598-1.055 5.566-.18 5.516.86c0 .157.046.196.14.125.219-.148.383-.25.5-.312.04-.031.055-.078.047-.14a46.508 46.508 0 01-.047-2.298v-2.062h3.469c0 .293-.012.547-.031.765-.012.126 0 .2.031.22.031 0 .223-.098.578-.298.07-.039.11-.113.11-.218a35.708 35.708 0 01-.094-1.954v-1.765a.36.36 0 01.094-.234.705.705 0 01.312-.141c.07 0 .078-.031.016-.094a7.792 7.792 0 00-.61-.5c-.074-.039-.133-.035-.172.016l-.28.297a.318.318 0 01-.235.093H6.156v-.78c0-.477.032-.79.094-.938.031-.082.11-.157.234-.22.125-.062.13-.124.016-.187-.137-.07-.418-.175-.844-.312-.093-.031-.133.023-.11.156.032.375.052.875.063 1.5zm0 3.452H2.186V-7.28H5.61zm.546-3.093h3.516v2.312c-.012.282-.024.543-.031.782H6.156zm0 0"/></svg></g><g><svg overflow="visible" x="298.509" y="12.253"><path d="M6.484-4.625c0-.625-.89-.922-1.296-.922-.688 0-1.25.672-1.235.61-.125-.36-.969-.61-1.312-.61-1.235 0-2.125 1.672-2.125 1.969 0 .125.468.219.468.219l-.125.03c.094 0 .329-.155.344-.25.406-1.28 1.016-1.437 1.422-1.437.219 0 .438-.03.438.672 0 .36-.204 1.172-.641 2.844-.203.734-.406 1.11-.938 1.11-.078 0-.218.03-.218.03-.079.016.375-.374.375-.703 0-.328-.454-.546-.641-.546-.36 0-.86.437-.86.828 0 .547.797.906 1.329.906.797 0 1.36-.86 1.39-.938l-.343-.093c.156.437.78 1.031 1.5 1.031 1.234 0 2.109-1.672 2.109-1.969 0-.11-.297-.25-.344-.25-.11 0-.328.188-.36.266-.39 1.281-1 1.437-1.374 1.437-.469 0-.469-.25-.469-.656 0-.266.063-.531.203-1.062l.406-1.625c.063-.313.157-1.282.985-1.282a.604.604 0 00.187-.046c.079 0-.359.421-.359.718 0 .188.328.547.656.547.266 0 .828-.344.828-.828zm0 0"/></svg></g><g><svg overflow="visible" x="308.659" y="12.253"><path d="M8.828-4.281c0-.125-.312-.375-.437-.375H.906c-.125 0-.437.25-.437.375 0 .14.312.375.437.375h7.485c.125 0 .437-.235.437-.375zm0 2.328c0-.14-.312-.375-.437-.375H.906c-.125 0-.437.234-.437.375 0 .125.312.36.437.36h7.485c.125 0 .437-.235.437-.36zm0 0"/></svg></g><g><svg overflow="visible" x="321.284" y="12.253"><path d="M7.016-1.844c0-.11-.297-.25-.329-.25-.125 0-.328.172-.39.344-.234.813-.422 1.36-1.016 1.36-.203 0-.093.015-.093-.266 0-.297.109-.594.218-.844.219-.64.719-1.953.719-2.64 0-.798-.703-1.407-1.563-1.407-1.078 0-1.796.797-2 1.078l.329.094c-.063-.672-.735-1.172-1.282-1.172-.562 0-.921.5-1.14.89C.313-4.327.14-3.624.14-3.577c0 .125.484.219.484.219l-.14.03c.124 0 .328-.14.406-.405.203-.844.25-1.282.671-1.282.25 0 .172.016.172.407 0 .265-.03.39-.187 1.015L.844-.844c-.031.188-.11.469-.11.516 0 .219.375.453.563.453.14 0 .547-.219.656-.547-.078.156.125-.5.203-.797l.266-1.078c.062-.265.14-.531.203-.797l.14-.594c.188-.374.626-1.328 1.766-1.328.532 0 .438.313.438.704 0 .734-.578 2.265-.766 2.78-.11.282-.125.423-.125.548 0 .562.625 1.109 1.188 1.109 1.125 0 1.75-1.875 1.75-1.969zm0 0"/></svg></g><g><svg overflow="visible" x="331.111" y="12.253"><path d="M8.828-3.125c0-.125-.312-.36-.437-.36H.906c-.125 0-.437.235-.437.36 0 .14.312.375.437.375h7.485c.125 0 .437-.234.437-.375zm0 0"/></svg></g><g><svg overflow="visible" x="343.078" y="12.253"><path d="M5.203-.125v-.516h-.578c-1.078 0-.922 0-.922-.437v-6.703c0-.282-.187-.438-.578-.438-.766.797-1.672.766-2.266.766v.625c.438 0 1.282-.031 1.563-.172v5.922c0 .437.172.437-.906.437H.937v.672C1.547-.03 2.595-.03 3.079-.03c.469 0 1.516 0 2.125.062zm0 0"/></svg></g><g><svg overflow="visible" x="349.057" y="12.253"><path d="M2.672-1.266a.532.532 0 00-.375.141.686.686 0 00-.125.36c0 .124.039.245.125.359.082.105.207.156.375.156.07-.02.144-.035.219-.047.03 0 .046.024.046.063 0 .199-.074.445-.218.75-.188.343-.43.515-.719.515v.235c.375 0 .68-.188.922-.563.207-.336.312-.71.312-1.14 0-.282-.058-.485-.171-.61-.118-.144-.247-.219-.391-.219zm0 0"/></svg></g><g><svg overflow="visible" x="361.012" y="12.253"><path d="M6.047-4.953c0-.219-.36-.469-.531-.469-.125 0-.454.11-.641.406-.016.047-.11.407-.156.625l-.235.954-.546 2.156c-.047.187-.36.89-1.141.89-.61 0-.547-.39-.547-.843 0-.547.203-1.282.61-2.344.187-.485.234-.625.234-.86 0-.53-.578-1.109-1.172-1.109C.782-5.547.14-3.687.14-3.578c0 .125.484.219.484.219l-.14.03c.124 0 .328-.155.39-.343.313-1.125.61-1.344 1.016-1.344.093 0 .093-.14.093.25 0 .297-.125.61-.203.829-.484 1.265-.687 1.953-.687 2.515 0 1.063.953 1.547 1.656 1.547.469 0 1-.234 1.344-.563L3.75-.53c-.156.61-.234 1.11-.719 1.734-.312.406-.61.719-1.172.719-.156 0-.515.094-.656-.234-.062 0 .234-.032.406-.188.11-.094.297-.36.297-.578 0-.375-.515-.547-.64-.547-.282 0-.875.313-.875.906 0 .594.734 1.172 1.468 1.172 1.235 0 2.657-1.219 3-2.578L6-4.688c.047-.171.047-.187.047-.265zm0 0"/></svg></g><g><svg overflow="visible" x="370.516" y="12.253"><path d="M8.828-4.281c0-.125-.312-.375-.437-.375H.906c-.125 0-.437.25-.437.375 0 .14.312.375.437.375h7.485c.125 0 .437-.235.437-.375zm0 2.328c0-.14-.312-.375-.437-.375H.906c-.125 0-.437.234-.437.375 0 .125.312.36.437.36h7.485c.125 0 .437-.235.437-.36zm0 0"/></svg></g><g><svg overflow="visible" x="383.141" y="12.253"><path d="M6.266-4.656c0-.36-.47-.89-1-.89-.344 0-1.032.124-1.891 1.093-.406.453-.734.89-.938.969l1.188-4.813-.063.094s-.124-.36-.28-.36c-.282 0-1.157.094-1.47.126-.093.015-.421.156-.421.374 0 .141.312.266.484.266.578 0 .39-.047.39.078l-.03.235L.5-.594c-.047.156-.047.188-.047.266 0 .266.438.453.547.453.156 0 .469-.14.547-.281.062-.11.656-2.406.687-2.563.25.016 1.032.078 1.032.86 0 .093 0 .14-.032.25-.03.156-.062.296-.062.421 0 .704.687 1.313 1.312 1.313.36 0 .813-.219 1.079-.656.296-.531.421-1.219.421-1.219l.063-.094c0-.11-.297-.25-.328-.25-.125 0-.344.188-.375.344C5.109-.875 5.03-.39 4.5-.39c-.219 0-.188 0-.188-.438 0-.203.047-.469.094-.672.047-.203.047-.25.047-.36 0-.78-.937-1.265-1.531-1.343.078-.031.453-.422.734-.703.578-.64 1-1.11 1.578-1.11.079 0-.062-.046.016 0 .234.032.11 0 .203.063.016.016.016.031-.172-.156-.218.015-.531.609-.531.765 0 .188.344.547.672.547.297 0 .844-.406.844-.86zm0 0"/></svg></g><g><svg overflow="visible" x="392.203" y="12.253"><path d="M8.828-3.125c0-.125-.312-.36-.437-.36H.906c-.125 0-.437.235-.437.36 0 .14.312.375.437.375h7.485c.125 0 .437-.234.437-.375zm0 0"/></svg></g><g><svg overflow="visible" x="404.17" y="12.253"><path d="M5.203-.125v-.516h-.578c-1.078 0-.922 0-.922-.437v-6.703c0-.282-.187-.438-.578-.438-.766.797-1.672.766-2.266.766v.625c.438 0 1.282-.031 1.563-.172v5.922c0 .437.172.437-.906.437H.937v.672C1.547-.03 2.595-.03 3.079-.03c.469 0 1.516 0 2.125.062zm0 0"/></svg></g><g><svg overflow="visible" x="-.149" y="28.58"><path d="M2.125-3.125c0-.344-.469-.766-.828-.766-.344 0-.828.422-.828.766 0 .36.484.766.828.766.36 0 .828-.407.828-.766zm3.344 0c0-.344-.485-.766-.828-.766-.344 0-.844.422-.844.766 0 .36.5.766.844.766.343 0 .828-.407.828-.766zm3.328 0c0-.344-.485-.766-.828-.766-.344 0-.828.422-.828.766 0 .36.484.766.828.766.343 0 .828-.407.828-.766zm0 0"/></svg></g><g><svg overflow="visible" x="12.44" y="28.58"><path d="M8.828-4.281c0-.125-.312-.375-.437-.375H.906c-.125 0-.437.25-.437.375 0 .14.312.375.437.375h7.485c.125 0 .437-.235.437-.375zm0 2.328c0-.14-.312-.375-.437-.375H.906c-.125 0-.437.234-.437.375 0 .125.312.36.437.36h7.485c.125 0 .437-.235.437-.36zm0 0"/></svg></g><g><svg overflow="visible" x="25.065" y="28.58"><path d="M7.016-1.844c0-.11-.297-.25-.329-.25-.125 0-.328.172-.39.344-.234.813-.422 1.36-1.016 1.36-.203 0-.093.015-.093-.266 0-.297.109-.594.218-.844.219-.64.719-1.953.719-2.64 0-.798-.703-1.407-1.563-1.407-1.078 0-1.796.797-2 1.078l.329.094c-.063-.672-.735-1.172-1.282-1.172-.562 0-.921.5-1.14.89C.313-4.327.14-3.624.14-3.577c0 .125.484.219.484.219l-.14.03c.124 0 .328-.14.406-.405.203-.844.25-1.282.671-1.282.25 0 .172.016.172.407 0 .265-.03.39-.187 1.015L.844-.844c-.031.188-.11.469-.11.516 0 .219.375.453.563.453.14 0 .547-.219.656-.547-.078.156.125-.5.203-.797l.266-1.078c.062-.265.14-.531.203-.797l.14-.594c.188-.374.626-1.328 1.766-1.328.532 0 .438.313.438.704 0 .734-.578 2.265-.766 2.78-.11.282-.125.423-.125.548 0 .562.625 1.109 1.188 1.109 1.125 0 1.75-1.875 1.75-1.969zm0 0"/></svg></g><g><svg overflow="visible" x="34.234" y="28.58"><path d="M4.906 3.89a.613.613 0 00-.093-.203c-1.438-1.078-2.36-3.78-2.36-6.046v-1.532c0-2.25.922-4.953 2.36-6.03a.613.613 0 00.093-.204c0-.078-.25-.266-.312-.266-.047 0-.203.047-.235.063-1.515 1.14-3 4.047-3 6.437v1.532c0 2.406 1.485 5.296 3 6.453.032 0 .188.047.235.047.062 0 .312-.188.312-.25zm0 0"/></svg><svg overflow="visible" x="39.71" y="28.58"><path d="M9.234-6.64c0-.891-.984-1.782-2.421-1.782H2.796c-.235 0-.547.125-.547.36 0 .14.313.265.531.265l.14-.031s.11.031.313.062c.22.016.125-.093.125.063 0 .047-.015.078-.046.219l-1.61 6.421c-.11.47.063.422-.875.422-.203 0-.531.141-.531.375 0 .141.312.266.531.266h4.266c1.89 0 3.484-1.547 3.484-2.719 0-.86-.875-1.687-2.047-1.812v.265c1.25-.234 2.703-1.25 2.703-2.375zM7.75-6.689c0 1.047-.828 2.047-2.281 2.047H3.937l.72-2.828c.093-.422-.063-.328.452-.328h1.532c1.062 0 1.109.578 1.109 1.11zm-.672 3.844c0 1.188-.86 2.203-2.266 2.203h-1.89c-.125-.015.031.11.031 0 0-.03 0-.046.063-.265l.78-3.203h2.11c1.14 0 1.172.75 1.172 1.265zm0 0"/></svg></g><g><svg overflow="visible" x="48.787" y="31.533"><path d="M5.719-1.36c0-.109-.313-.265-.344-.265-.11 0-.328.203-.36.297-.202.672-.343.86-.687.86-.172 0 0 .046 0-.141 0-.188.047-.297.188-.672.109-.266.453-1.14.453-1.61 0-.812-.86-1.125-1.297-1.125-.703 0-1.313.485-1.563.813l.36.11c-.063-.579-.766-.923-1.11-.923-.359 0-.703.313-.812.5-.188.313-.36.907-.36.938 0 .11.329.281.344.281.125 0 .344-.187.39-.422.141-.484.079-.734.407-.734.219 0 .078.015.078.25 0 .156-.078.469-.14.687l-.188.75L.812-.687c-.03.109-.078.312-.078.343 0 .188.36.422.485.422.156 0 .437-.14.468-.219.047-.078.188-.468.22-.64l.187-.75.14-.563c.094-.344.047-.297.282-.64.234-.329.484-.72 1.125-.72.484 0 .28.267.28.423 0 .5-.358 1.437-.5 1.781-.093.234-.124.313-.124.453 0 .438.578.875 1.015.875.829 0 1.407-1.312 1.407-1.437zm0 0"/></svg><svg overflow="visible" x="54.695" y="31.533"><path d="M6.25-2.25c0-.094-.281-.328-.375-.328H.641c-.094 0-.375.234-.375.328s.28.328.375.328h5.234c.094 0 .375-.234.375-.328zm0 0"/></svg><svg overflow="visible" x="61.206" y="31.533"><path d="M4.172-.156v-.469H3.64c-.829 0-.625.063-.625-.219v-4.64c0-.235-.235-.391-.563-.391-.578.578-1.203.531-1.75.531v.625c.406 0 1.11-.047 1.219-.11v3.985c0 .281.203.219-.625.219H.766v.64L2.469-.03l1.703.047zm0 0"/></svg><svg overflow="visible" x="65.968" y="31.533"><path d="M2.219-.203c0-.531-.422-1.078-.797-1.078-.281 0-.688.375-.688.64 0 .266.391.641.688.641.203 0 .484-.172.484-.172l-.343-.125c0 .469-.032.89-.594 1.422-.047.047-.125.172-.125.219 0 .062.281.265.328.265.125 0 1.047-.828 1.047-1.812zm0 0"/></svg><svg overflow="visible" x="68.805" y="31.533"><path d="M4.953-3.266c0-.28-.406-.75-.844-.75-.484 0-1.062.391-1.5.797-.343.328-.468.531-.546.578l.765-3.109c-.062.125-.031.016-.031.016l.062-.125c0-.032-.234-.266-.343-.266-.157 0-.86.063-1.063.078-.078.016-.39.172-.39.36 0 .109.312.265.421.265.407 0 .188-.094.188-.031 0 .062-.016.11-.031.187L.453-.53c-.031.156.313.312.313.312L.422-.344c0 .125.312.422.484.422.235 0 .547-.328.594-.531-.047.11.39-1.484.375-1.422.422.047.703.078.703.516 0 .03 0 .078-.031.156-.031.125-.031.172-.031.266 0 .593.703 1.015 1.109 1.015.813 0 1.203-1.312 1.203-1.312l.063-.125c0-.11-.313-.266-.344-.266-.11 0-.328.203-.375.36-.11.359-.125.796-.531.796-.22 0-.079-.047-.079-.281 0-.14 0-.156.047-.375a.784.784 0 00.047-.25c0-.75-1.219-1.031-1.578-1.047l.156.266c.235-.14.547-.422.688-.547.422-.406.703-.75 1.172-.75.11 0 .062-.016-.047-.156-.031 0-.313.437-.313.562 0 .188.344.469.532.469.234 0 .687-.344.687-.688zm0 0"/></svg><svg overflow="visible" x="73.884" y="31.533"><path d="M6.25-2.25c0-.094-.281-.328-.375-.328H.641c-.094 0-.375.234-.375.328s.28.328.375.328h5.234c.094 0 .375-.234.375-.328zm0 0"/></svg><svg overflow="visible" x="80.395" y="31.533"><path d="M4.172-.156v-.469H3.64c-.829 0-.625.063-.625-.219v-4.64c0-.235-.235-.391-.563-.391-.578.578-1.203.531-1.75.531v.625c.406 0 1.11-.047 1.219-.11v3.985c0 .281.203.219-.625.219H.766v.64L2.469-.03l1.703.047zm0 0"/></svg></g><g><svg overflow="visible" x="85.655" y="28.58"><path d="M4.156 2.719c0-.047-.078-.172-.11-.203-1.234-.922-2-3.22-2-5.141v-1c0-1.906.767-4.203 2-5.14a.457.457 0 00.11-.188c0-.063-.25-.25-.312-.25a1.01 1.01 0 00-.203.062C2.312-8.156 1-5.67 1-3.625v1C1-.578 2.313 1.906 3.64 2.906c.016.016.188.063.204.063.062 0 .312-.203.312-.25zm0 0"/></svg><svg overflow="visible" x="90.306" y="28.58"><path d="M4.14-5.156c0-.125-.312-.266-.53-.266H2.78c.39-1.562.453-1.797.453-1.875 0-.203-.328-.453-.53-.453-.032 0-.579.14-.688.563l-.422 1.765H.64c-.25 0-.563.14-.563.36 0 .156.297.28.531.28h.813C.594-1.515.547-1.311.547-1.093c0 .64.656 1.219 1.312 1.219 1.22 0 2.079-1.875 2.079-1.969 0-.11-.282-.25-.329-.25-.109 0-.328.172-.375.297C2.72-.547 2.281-.39 1.875-.39c-.25 0-.172-.03-.172-.421 0-.282.016-.375.063-.579l.859-3.39h.953c.25 0 .563-.125.563-.375zm0 0"/></svg><svg overflow="visible" x="94.621" y="28.58"><path d="M3.64-2.625v-1c0-2.047-1.328-4.531-2.64-5.516a.774.774 0 00-.203-.062c-.063 0-.313.187-.313.25 0 .031.079.172.094.187 1.25.938 2.016 3.235 2.016 5.141v1c0 1.922-.766 4.219-2.016 5.14-.015.032-.094.157-.094.204 0 .047.25.25.313.25A.774.774 0 001 2.906c1.313-1 2.64-3.484 2.64-5.531zm0 0"/></svg></g><g><svg overflow="visible" x="101.926" y="28.58"><path d="M8.828-3.125c0-.125-.312-.36-.437-.36H.906c-.125 0-.437.235-.437.36 0 .14.312.375.437.375h7.485c.125 0 .437-.234.437-.375zm0 0"/></svg></g><g><svg overflow="visible" x="113.881" y="28.58"><path d="M9.234-6.64c0-.891-.984-1.782-2.421-1.782H2.796c-.235 0-.547.125-.547.36 0 .14.313.265.531.265l.14-.031s.11.031.313.062c.22.016.125-.093.125.063 0 .047-.015.078-.046.219l-1.61 6.421c-.11.47.063.422-.875.422-.203 0-.531.141-.531.375 0 .141.312.266.531.266h4.266c1.89 0 3.484-1.547 3.484-2.719 0-.86-.875-1.687-2.047-1.812v.265c1.25-.234 2.703-1.25 2.703-2.375zM7.75-6.689c0 1.047-.828 2.047-2.281 2.047H3.937l.72-2.828c.093-.422-.063-.328.452-.328h1.532c1.062 0 1.109.578 1.109 1.11zm-.672 3.844c0 1.188-.86 2.203-2.266 2.203h-1.89c-.125-.015.031.11.031 0 0-.03 0-.046.063-.265l.78-3.203h2.11c1.14 0 1.172.75 1.172 1.265zm0 0"/></svg></g><g><svg overflow="visible" x="122.961" y="31.533"><path d="M5.719-1.36c0-.109-.313-.265-.344-.265-.11 0-.328.203-.36.297-.202.672-.343.86-.687.86-.172 0 0 .046 0-.141 0-.188.047-.297.188-.672.109-.266.453-1.14.453-1.61 0-.812-.86-1.125-1.297-1.125-.703 0-1.313.485-1.563.813l.36.11c-.063-.579-.766-.923-1.11-.923-.359 0-.703.313-.812.5-.188.313-.36.907-.36.938 0 .11.329.281.344.281.125 0 .344-.187.39-.422.141-.484.079-.734.407-.734.219 0 .078.015.078.25 0 .156-.078.469-.14.687l-.188.75L.812-.687c-.03.109-.078.312-.078.343 0 .188.36.422.485.422.156 0 .437-.14.468-.219.047-.078.188-.468.22-.64l.187-.75.14-.563c.094-.344.047-.297.282-.64.234-.329.484-.72 1.125-.72.484 0 .28.267.28.423 0 .5-.358 1.437-.5 1.781-.093.234-.124.313-.124.453 0 .438.578.875 1.015.875.829 0 1.407-1.312 1.407-1.437zm0 0"/></svg><svg overflow="visible" x="128.869" y="31.533"><path d="M6.25-2.25c0-.094-.281-.328-.375-.328H.641c-.094 0-.375.234-.375.328s.28.328.375.328h5.234c.094 0 .375-.234.375-.328zm0 0"/></svg><svg overflow="visible" x="135.38" y="31.533"><path d="M4.172-.156v-.469H3.64c-.829 0-.625.063-.625-.219v-4.64c0-.235-.235-.391-.563-.391-.578.578-1.203.531-1.75.531v.625c.406 0 1.11-.047 1.219-.11v3.985c0 .281.203.219-.625.219H.766v.64L2.469-.03l1.703.047zm0 0"/></svg><svg overflow="visible" x="140.142" y="31.533"><path d="M2.219-.203c0-.531-.422-1.078-.797-1.078-.281 0-.688.375-.688.64 0 .266.391.641.688.641.203 0 .484-.172.484-.172l-.343-.125c0 .469-.032.89-.594 1.422-.047.047-.125.172-.125.219 0 .062.281.265.328.265.125 0 1.047-.828 1.047-1.812zm0 0"/></svg><svg overflow="visible" x="142.979" y="31.533"><path d="M4.953-3.266c0-.28-.406-.75-.844-.75-.484 0-1.062.391-1.5.797-.343.328-.468.531-.546.578l.765-3.109c-.062.125-.031.016-.031.016l.062-.125c0-.032-.234-.266-.343-.266-.157 0-.86.063-1.063.078-.078.016-.39.172-.39.36 0 .109.312.265.421.265.407 0 .188-.094.188-.031 0 .062-.016.11-.031.187L.453-.53c-.031.156.313.312.313.312L.422-.344c0 .125.312.422.484.422.235 0 .547-.328.594-.531-.047.11.39-1.484.375-1.422.422.047.703.078.703.516 0 .03 0 .078-.031.156-.031.125-.031.172-.031.266 0 .593.703 1.015 1.109 1.015.813 0 1.203-1.312 1.203-1.312l.063-.125c0-.11-.313-.266-.344-.266-.11 0-.328.203-.375.36-.11.359-.125.796-.531.796-.22 0-.079-.047-.079-.281 0-.14 0-.156.047-.375a.784.784 0 00.047-.25c0-.75-1.219-1.031-1.578-1.047l.156.266c.235-.14.547-.422.688-.547.422-.406.703-.75 1.172-.75.11 0 .062-.016-.047-.156-.031 0-.313.437-.313.562 0 .188.344.469.532.469.234 0 .687-.344.687-.688zm0 0"/></svg></g><g><svg overflow="visible" x="148.557" y="28.58"><path d="M4.156 2.719c0-.047-.078-.172-.11-.203-1.234-.922-2-3.22-2-5.141v-1c0-1.906.767-4.203 2-5.14a.457.457 0 00.11-.188c0-.063-.25-.25-.312-.25a1.01 1.01 0 00-.203.062C2.312-8.156 1-5.67 1-3.625v1C1-.578 2.313 1.906 3.64 2.906c.016.016.188.063.204.063.062 0 .312-.203.312-.25zm0 0"/></svg><svg overflow="visible" x="153.208" y="28.58"><path d="M4.14-5.156c0-.125-.312-.266-.53-.266H2.78c.39-1.562.453-1.797.453-1.875 0-.203-.328-.453-.53-.453-.032 0-.579.14-.688.563l-.422 1.765H.64c-.25 0-.563.14-.563.36 0 .156.297.28.531.28h.813C.594-1.515.547-1.311.547-1.093c0 .64.656 1.219 1.312 1.219 1.22 0 2.079-1.875 2.079-1.969 0-.11-.282-.25-.329-.25-.109 0-.328.172-.375.297C2.72-.547 2.281-.39 1.875-.39c-.25 0-.172-.03-.172-.421 0-.282.016-.375.063-.579l.859-3.39h.953c.25 0 .563-.125.563-.375zm0 0"/></svg><svg overflow="visible" x="157.523" y="28.58"><path d="M3.64-2.625v-1c0-2.047-1.328-4.531-2.64-5.516a.774.774 0 00-.203-.062c-.063 0-.313.187-.313.25 0 .031.079.172.094.187 1.25.938 2.016 3.235 2.016 5.141v1c0 1.922-.766 4.219-2.016 5.14-.015.032-.094.157-.094.204 0 .047.25.25.313.25A.774.774 0 001 2.906c1.313-1 2.64-3.484 2.64-5.531zm0 0"/></svg><svg overflow="visible" x="162.174" y="28.58"><path d="M4.094-2.36v-1.53c0-2.391-1.469-5.297-3-6.438a.774.774 0 00-.203-.063c-.079 0-.344.188-.344.266 0 .047.094.188.11.203C2.093-8.844 3.015-6.14 3.015-3.89v1.532c0 2.265-.922 4.968-2.36 6.046-.015.016-.11.157-.11.204 0 .062.266.25.345.25.03 0 .187-.047.203-.047 1.531-1.157 3-4.047 3-6.453zm0 0"/></svg></g></svg>