<svg xmlns="http://www.w3.org/2000/svg" xmlns:xlink="http://www.w3.org/1999/xlink" width="300" height="109px" viewBox="0 0 225 82"><svg overflow="visible" x=".687" y="8.745"><path d="M6.234-1.25l-.171-.297-.454.297c-.343.219-.5.313-.625.313-.078 0-.03.03-.03-.11 0-.047.015-.187.03-.234l.782-3.297c.093-.344.14-.688.14-.89 0-.266-.265-.563-.5-.563-.5 0-1.437.5-2.14 1.156-.454.422-.797.828-1.407 1.703l.235.094.453-1.938c.047-.203.078-.343.078-.484 0-.25-.234-.531-.406-.531-.266 0-.828.312-1.703.922l-.391.296.172.485.547-.36c.437-.28.39-.265.469-.265.14 0 .078 0 .078.172 0 .61-.5 2.922-.985 4.656l.172.25c.36-.094.625-.172 1.016-.234.234-1.625.468-2.313 1-3.125.656-1.016 1.453-1.72 1.984-1.72.125 0 .063-.015.063.157 0 .219-.032.469-.141.86l-.61 2.53c-.109.438-.156.72-.156.907 0 .297.266.61.5.61.313 0 .829-.282 2.079-1.22zm0 0"/></svg><svg overflow="visible" x="9.988" y="8.745"><path d="M2.516-3.125c0-.422-.407-.844-.844-.844-.422 0-.86.422-.86.844 0 .438.438.86.86.86.437 0 .844-.422.844-.86zm0 0"/></svg><svg overflow="visible" x="15.99" y="8.745"><path d="M6.813-6.844c0-.984-1.094-1.687-2.016-1.687-.594 0-1.203.031-1.797.031l-1.938-.047-.062.61.797.03c.281 0 .266-.03.266.188 0 .172-.047.547-.11.907L.922-.782C.89-.577.875-.624.25-.531L.14.048A21.28 21.28 0 011.407 0c.64 0 1.266.031 1.922.031.563 0 1.219-.156 1.781-.5.954-.562 1.516-1.469 1.516-2.375 0-.515-.203-1-.531-1.265-.313-.25-.766-.391-1.594-.516v.266c.688-.25 1.063-.438 1.453-.75.531-.485.86-1.125.86-1.735zM5.296-2.656c0 1.234-.734 1.984-1.922 1.984-.25 0-.594-.015-.984-.047-.079-.015-.22-.015-.25-.031l.562-3.313h.906c1.235 0 1.688.375 1.688 1.407zm.219-3.985c0 1.266-.75 1.891-2.235 1.891h-.453l.531-3.016c.22 0 .532-.062.844-.062.969 0 1.313.297 1.313 1.187zm0 0"/></svg><svg overflow="visible" x="23.3" y="11.518"><path d="M5.14-.984l-.156-.25-.406.25c-.281.156-.375.218-.469.218-.062 0 .016.063.016-.046 0-.032-.031-.032.031-.157l.625-2.453c.078-.25.11-.5.11-.656 0-.203-.25-.453-.438-.453-.406 0-1.187.375-1.766.86-.359.312-.64.608-1.124 1.25l.265.108.36-1.421c.046-.172.062-.266.062-.375 0-.188-.234-.422-.375-.422-.203 0-.703.234-1.39.687l-.344.235.172.421.5-.28c.343-.22.265-.188.343-.188.094 0 .016-.047.016.078 0 .453-.406 2.156-.813 3.453l.172.219c.313-.078.531-.125.875-.188.203-1.218.375-1.703.797-2.312.531-.735 1.14-1.25 1.578-1.25.094 0 0-.063 0 .078 0 .156-.015.344-.11.625l-.5 1.875c-.077.328-.124.531-.124.672 0 .219.265.484.453.484.25 0 .703-.219 1.734-.922zm0 0"/></svg><svg overflow="visible" x="28.838" y="11.518"><path d="M6.156-2.078c-.015-.094-.015-.172-.015-.266 0-.094 0-.172.046-.39H.516c.046.218.062.296.062.39 0 .094-.015.172-.062.39h5.671zm0 0"/></svg><svg overflow="visible" x="35.562" y="11.518"><path d="M4.266-.11V-.5l-.657-.031c-.515-.031-.468.015-.468-.453v-5.329l-.282-.093c-.625.297-1.312.562-2.375.906l.11.594h.234l1.25-.516.031-.016c.047 0-.078-.046-.078.172v4.282c0 .468.047.421-.469.453L.86-.5v.531L2.594 0l1.672.031zm0 0"/></svg><svg overflow="visible" x="40.56" y="11.518"><path d="M2.297-1.188l-.203-.187-1.125.328C.89-.28.688.187.047 1.172l.297.219.531-.235C1.656.234 2.063-.422 2.359-1.14zm0 0"/></svg><svg overflow="visible" x="43.143" y="11.518"><path d="M6.156-2.078c-.015-.094-.015-.172-.015-.266 0-.094 0-.172.046-.39H.516c.046.218.062.296.062.39 0 .094-.015.172-.062.39h5.671zm0 0"/></svg><svg overflow="visible" x="49.867" y="11.518"><path d="M4.266-.11V-.5l-.657-.031c-.515-.031-.468.015-.468-.453v-5.329l-.282-.093c-.625.297-1.312.562-2.375.906l.11.594h.234l1.25-.516.031-.016c.047 0-.078-.046-.078.172v4.282c0 .468.047.421-.469.453L.86-.5v.531L2.594 0l1.672.031zm0 0"/></svg><svg overflow="visible" x="55.363" y="8.745"><path d="M4.203-7.828a.735.735 0 01-.187-.14c-.063-.063-.11-.126-.22-.329-1.593 1.61-2.5 3.266-2.5 4.781v.797c0 1.516.907 3.172 2.5 4.781.11-.203.157-.265.22-.328.062-.062.125-.109.312-.203C2.875.063 2.281-1.344 2.281-2.719v-.797c0-1.39.594-2.78 2.047-4.25zm0 0"/></svg><svg overflow="visible" x="60.432" y="8.745"><path d="M3.703-5.516c-.453.047-.86.063-1.156.063.172-.984.297-1.578.531-2.25l-.25-.328a7.16 7.16 0 01-1.094.531l-.296 2.031c-.391.203-.704.328-1.063.407l-.047.406h1l-.64 3.25C.625-1.11.53-.813.53-.5c0 .297.266.61.5.61.422 0 .922-.282 1.86-1.032.218-.172.14-.125.437-.36l-.25-.437-.672.469c-.36.25-.484.313-.625.313-.093 0-.031.046-.031-.11 0-.297.156-1.234.516-3l.14-.61h1.266l.203-.89zm0 0"/></svg><svg overflow="visible" x="64.473" y="8.745"><path d="M3.766-2.719v-.797c0-1.515-.907-3.171-2.516-4.78-.11.202-.156.265-.203.327-.063.063-.125.11-.313.203 1.438 1.47 2.032 2.86 2.032 4.25v.797c0 1.375-.594 2.781-2.032 4.25.188.094.25.14.313.203.047.063.094.125.203.329C2.86.452 3.766-1.204 3.766-2.72zm0 0"/></svg><svg overflow="visible" x="72.196" y="8.745"><path d="M2.516-3.125c0-.422-.407-.844-.844-.844-.422 0-.86.422-.86.844 0 .438.438.86.86.86.437 0 .844-.422.844-.86zm0 0"/></svg><svg overflow="visible" x="78.197" y="8.745"><path d="M8.484-4.719c0-.687-.437-1.312-.875-1.312-.156 0-.406.093-.5.187l-.671.625.265.453c.25-.171.266-.171.375-.171.328 0 .375.14.375.625 0 1.734-1.016 3.578-2.031 3.578-.36 0-.469-.344-.469-1 0-.563.11-1.344.25-1.86l.625-2.234-.187-.219-1.032.313-.375 1.89c-.14.735-.28 1.125-.625 1.766-.484.89-.828 1.344-1.187 1.344-.406 0-.563-.329-.563-1.016 0-1.422.454-2.5 1.704-3.906l-.235-.407c-.281.141-.437.188-.765.188-.5 0-.985-.047-1.47-.094-.155 0-.25.032-.5.125-.155.328-.327.844-.515 1.64h.5l.266-.64c.094-.203.203-.203.484-.203.219 0 .438.031.672.031.25 0 .406-.015.422-.015.062-.11-.063.015-.188.172C1.156-3.61.72-2.656.72-1.641c0 .985.562 1.766 1.187 1.766.766 0 1.485-.688 2.375-2.39l-.234-.094c-.11.515-.156.812-.156 1.093 0 .75.5 1.391 1.03 1.391.97 0 2.36-1.328 3.095-2.969.265-.594.468-1.406.468-1.875zm0 0"/></svg><svg overflow="visible" x="86.835" y="11.518"><path d="M4.719-3.375c0-1.938-.782-2.984-2.094-2.984C1.125-6.36.219-5.141.219-3c0 1.031.234 2.031.578 2.453.328.438.984.719 1.578.719 1.469 0 2.344-1.281 2.344-3.547zm-1.125.453c0 1.875-.203 2.531-1.078 2.531-.938 0-1.188-.765-1.188-2.921 0-1.876.203-2.47 1.125-2.47.938 0 1.14.735 1.14 2.86zm0 0"/></svg><svg overflow="visible" x="102.295" y="8.745"><path d="M8.266-2.766a1.332 1.332 0 01-.047-.359c0-.11.015-.234.062-.484h-3.25v-3.266c-.25.063-.375.078-.484.078-.125 0-.25-.016-.5-.078v3.266H.78c.063.25.063.375.063.484 0 .125 0 .25-.063.5h3.266V.641c.25-.063.375-.079.5-.079.11 0 .234.016.484.079v-3.266h3.25zm0 0"/></svg><svg overflow="visible" x=".687" y="23.19"><path d="M6.234-1.25l-.171-.297-.454.297c-.343.219-.5.313-.625.313-.078 0-.03.03-.03-.11 0-.047.015-.187.03-.234l.782-3.297c.093-.344.14-.688.14-.89 0-.266-.265-.563-.5-.563-.5 0-1.437.5-2.14 1.156-.454.422-.797.828-1.407 1.703l.235.094.453-1.938c.047-.203.078-.343.078-.484 0-.25-.234-.531-.406-.531-.266 0-.828.312-1.703.922l-.391.296.172.485.547-.36c.437-.28.39-.265.469-.265.14 0 .078 0 .078.172 0 .61-.5 2.922-.985 4.656l.172.25c.36-.094.625-.172 1.016-.234.234-1.625.468-2.313 1-3.125.656-1.016 1.453-1.72 1.984-1.72.125 0 .063-.015.063.157 0 .219-.032.469-.141.86l-.61 2.53c-.109.438-.156.72-.156.907 0 .297.266.61.5.61.313 0 .829-.282 2.079-1.22zm0 0"/></svg><svg overflow="visible" x="9.988" y="23.19"><path d="M2.516-3.125c0-.422-.407-.844-.844-.844-.422 0-.86.422-.86.844 0 .438.438.86.86.86.437 0 .844-.422.844-.86zm0 0"/></svg><svg overflow="visible" x="15.99" y="23.19"><path d="M6.813-6.844c0-.984-1.094-1.687-2.016-1.687-.594 0-1.203.031-1.797.031l-1.938-.047-.062.61.797.03c.281 0 .266-.03.266.188 0 .172-.047.547-.11.907L.922-.782C.89-.577.875-.624.25-.531L.14.048A21.28 21.28 0 011.407 0c.64 0 1.266.031 1.922.031.563 0 1.219-.156 1.781-.5.954-.562 1.516-1.469 1.516-2.375 0-.515-.203-1-.531-1.265-.313-.25-.766-.391-1.594-.516v.266c.688-.25 1.063-.438 1.453-.75.531-.485.86-1.125.86-1.735zM5.296-2.656c0 1.234-.734 1.984-1.922 1.984-.25 0-.594-.015-.984-.047-.079-.015-.22-.015-.25-.031l.562-3.313h.906c1.235 0 1.688.375 1.688 1.407zm.219-3.985c0 1.266-.75 1.891-2.235 1.891h-.453l.531-3.016c.22 0 .532-.062.844-.062.969 0 1.313.297 1.313 1.187zm0 0"/></svg><svg overflow="visible" x="23.3" y="25.964"><path d="M5.14-.984l-.156-.25-.406.25c-.281.156-.375.218-.469.218-.062 0 .016.063.016-.046 0-.032-.031-.032.031-.157l.625-2.453c.078-.25.11-.5.11-.656 0-.203-.25-.453-.438-.453-.406 0-1.187.375-1.766.86-.359.312-.64.608-1.124 1.25l.265.108.36-1.421c.046-.172.062-.266.062-.375 0-.188-.234-.422-.375-.422-.203 0-.703.234-1.39.687l-.344.235.172.421.5-.28c.343-.22.265-.188.343-.188.094 0 .016-.047.016.078 0 .453-.406 2.156-.813 3.453l.172.219c.313-.078.531-.125.875-.188.203-1.218.375-1.703.797-2.312.531-.735 1.14-1.25 1.578-1.25.094 0 0-.063 0 .078 0 .156-.015.344-.11.625l-.5 1.875c-.077.328-.124.531-.124.672 0 .219.265.484.453.484.25 0 .703-.219 1.734-.922zm0 0"/></svg><svg overflow="visible" x="28.838" y="25.964"><path d="M6.156-2.078c-.015-.094-.015-.172-.015-.266 0-.094 0-.172.046-.39H.516c.046.218.062.296.062.39 0 .094-.015.172-.062.39h5.671zm0 0"/></svg><svg overflow="visible" x="35.562" y="25.964"><path d="M4.266-.11V-.5l-.657-.031c-.515-.031-.468.015-.468-.453v-5.329l-.282-.093c-.625.297-1.312.562-2.375.906l.11.594h.234l1.25-.516.031-.016c.047 0-.078-.046-.078.172v4.282c0 .468.047.421-.469.453L.86-.5v.531L2.594 0l1.672.031zm0 0"/></svg><svg overflow="visible" x="40.56" y="25.964"><path d="M2.297-1.188l-.203-.187-1.125.328C.89-.28.688.187.047 1.172l.297.219.531-.235C1.656.234 2.063-.422 2.359-1.14zm0 0"/></svg><svg overflow="visible" x="43.143" y="25.964" fill="#00f"><path d="M4.719-3.375c0-1.938-.782-2.984-2.094-2.984C1.125-6.36.219-5.141.219-3c0 1.031.234 2.031.578 2.453.328.438.984.719 1.578.719 1.469 0 2.344-1.281 2.344-3.547zm-1.125.453c0 1.875-.203 2.531-1.078 2.531-.938 0-1.188-.765-1.188-2.921 0-1.876.203-2.47 1.125-2.47.938 0 1.14.735 1.14 2.86zm0 0"/></svg><svg overflow="visible" x="48.64" y="23.19"><path d="M4.203-7.828a.735.735 0 01-.187-.14c-.063-.063-.11-.126-.22-.329-1.593 1.61-2.5 3.266-2.5 4.781v.797c0 1.516.907 3.172 2.5 4.781.11-.203.157-.265.22-.328.062-.062.125-.109.312-.203C2.875.063 2.281-1.344 2.281-2.719v-.797c0-1.39.594-2.78 2.047-4.25zm0 0"/></svg><svg overflow="visible" x="53.709" y="23.19"><path d="M3.703-5.516c-.453.047-.86.063-1.156.063.172-.984.297-1.578.531-2.25l-.25-.328a7.16 7.16 0 01-1.094.531l-.296 2.031c-.391.203-.704.328-1.063.407l-.047.406h1l-.64 3.25C.625-1.11.53-.813.53-.5c0 .297.266.61.5.61.422 0 .922-.282 1.86-1.032.218-.172.14-.125.437-.36l-.25-.437-.672.469c-.36.25-.484.313-.625.313-.093 0-.031.046-.031-.11 0-.297.156-1.234.516-3l.14-.61h1.266l.203-.89zm0 0"/></svg><svg overflow="visible" x="57.738" y="23.19"><path d="M3.766-2.719v-.797c0-1.515-.907-3.171-2.516-4.78-.11.202-.156.265-.203.327-.063.063-.125.11-.313.203 1.438 1.47 2.032 2.86 2.032 4.25v.797c0 1.375-.594 2.781-2.032 4.25.188.094.25.14.313.203.047.063.094.125.203.329C2.86.452 3.766-1.204 3.766-2.72zm0 0"/></svg><svg overflow="visible" x="65.473" y="23.19"><path d="M2.516-3.125c0-.422-.407-.844-.844-.844-.422 0-.86.422-.86.844 0 .438.438.86.86.86.437 0 .844-.422.844-.86zm0 0"/></svg><svg overflow="visible" x="71.474" y="23.19"><path d="M8.484-4.719c0-.687-.437-1.312-.875-1.312-.156 0-.406.093-.5.187l-.671.625.265.453c.25-.171.266-.171.375-.171.328 0 .375.14.375.625 0 1.734-1.016 3.578-2.031 3.578-.36 0-.469-.344-.469-1 0-.563.11-1.344.25-1.86l.625-2.234-.187-.219-1.032.313-.375 1.89c-.14.735-.28 1.125-.625 1.766-.484.89-.828 1.344-1.187 1.344-.406 0-.563-.329-.563-1.016 0-1.422.454-2.5 1.704-3.906l-.235-.407c-.281.141-.437.188-.765.188-.5 0-.985-.047-1.47-.094-.155 0-.25.032-.5.125-.155.328-.327.844-.515 1.64h.5l.266-.64c.094-.203.203-.203.484-.203.219 0 .438.031.672.031.25 0 .406-.015.422-.015.062-.11-.063.015-.188.172C1.156-3.61.72-2.656.72-1.641c0 .985.562 1.766 1.187 1.766.766 0 1.485-.688 2.375-2.39l-.234-.094c-.11.515-.156.812-.156 1.093 0 .75.5 1.391 1.03 1.391.97 0 2.36-1.328 3.095-2.969.265-.594.468-1.406.468-1.875zm0 0"/></svg><svg overflow="visible" x="80.112" y="25.964"><path d="M4.266-.11V-.5l-.657-.031c-.515-.031-.468.015-.468-.453v-5.329l-.282-.093c-.625.297-1.312.562-2.375.906l.11.594h.234l1.25-.516.031-.016c.047 0-.078-.046-.078.172v4.282c0 .468.047.421-.469.453L.86-.5v.531L2.594 0l1.672.031zm0 0"/></svg><svg overflow="visible" x="102.295" y="23.19"><path d="M8.266-2.766a1.332 1.332 0 01-.047-.359c0-.11.015-.234.062-.484h-7.5c.063.25.063.375.063.484 0 .125 0 .25-.063.5h7.5zm0 0"/></svg><svg overflow="visible" x="121.34" y="23.19"><path d="M6.234-1.25l-.171-.297-.454.297c-.343.219-.5.313-.625.313-.078 0-.03.03-.03-.11 0-.047.015-.187.03-.234l.782-3.297c.093-.344.14-.688.14-.89 0-.266-.265-.563-.5-.563-.5 0-1.437.5-2.14 1.156-.454.422-.797.828-1.407 1.703l.235.094.453-1.938c.047-.203.078-.343.078-.484 0-.25-.234-.531-.406-.531-.266 0-.828.312-1.703.922l-.391.296.172.485.547-.36c.437-.28.39-.265.469-.265.14 0 .078 0 .078.172 0 .61-.5 2.922-.985 4.656l.172.25c.36-.094.625-.172 1.016-.234.234-1.625.468-2.313 1-3.125.656-1.016 1.453-1.72 1.984-1.72.125 0 .063-.015.063.157 0 .219-.032.469-.141.86l-.61 2.53c-.109.438-.156.72-.156.907 0 .297.266.61.5.61.313 0 .829-.282 2.079-1.22zm0 0"/></svg><svg overflow="visible" x="130.641" y="23.19"><path d="M2.516-3.125c0-.422-.407-.844-.844-.844-.422 0-.86.422-.86.844 0 .438.438.86.86.86.437 0 .844-.422.844-.86zm0 0"/></svg><svg overflow="visible" x="136.642" y="23.19"><path d="M6.813-6.844c0-.984-1.094-1.687-2.016-1.687-.594 0-1.203.031-1.797.031l-1.938-.047-.062.61.797.03c.281 0 .266-.03.266.188 0 .172-.047.547-.11.907L.922-.782C.89-.577.875-.624.25-.531L.14.048A21.28 21.28 0 011.407 0c.64 0 1.266.031 1.922.031.563 0 1.219-.156 1.781-.5.954-.562 1.516-1.469 1.516-2.375 0-.515-.203-1-.531-1.265-.313-.25-.766-.391-1.594-.516v.266c.688-.25 1.063-.438 1.453-.75.531-.485.86-1.125.86-1.735zM5.296-2.656c0 1.234-.734 1.984-1.922 1.984-.25 0-.594-.015-.984-.047-.079-.015-.22-.015-.25-.031l.562-3.313h.906c1.235 0 1.688.375 1.688 1.407zm.219-3.985c0 1.266-.75 1.891-2.235 1.891h-.453l.531-3.016c.22 0 .532-.062.844-.062.969 0 1.313.297 1.313 1.187zm0 0"/></svg><svg overflow="visible" x="143.956" y="25.964"><path d="M5.14-.984l-.156-.25-.406.25c-.281.156-.375.218-.469.218-.062 0 .016.063.016-.046 0-.032-.031-.032.031-.157l.625-2.453c.078-.25.11-.5.11-.656 0-.203-.25-.453-.438-.453-.406 0-1.187.375-1.766.86-.359.312-.64.608-1.124 1.25l.265.108.36-1.421c.046-.172.062-.266.062-.375 0-.188-.234-.422-.375-.422-.203 0-.703.234-1.39.687l-.344.235.172.421.5-.28c.343-.22.265-.188.343-.188.094 0 .016-.047.016.078 0 .453-.406 2.156-.813 3.453l.172.219c.313-.078.531-.125.875-.188.203-1.218.375-1.703.797-2.312.531-.735 1.14-1.25 1.578-1.25.094 0 0-.063 0 .078 0 .156-.015.344-.11.625l-.5 1.875c-.077.328-.124.531-.124.672 0 .219.265.484.453.484.25 0 .703-.219 1.734-.922zm0 0"/></svg><svg overflow="visible" x="149.494" y="25.964"><path d="M6.156-2.078c-.015-.094-.015-.172-.015-.266 0-.094 0-.172.046-.39H.516c.046.218.062.296.062.39 0 .094-.015.172-.062.39h5.671zm0 0"/></svg><svg overflow="visible" x="156.218" y="25.964"><path d="M4.266-.11V-.5l-.657-.031c-.515-.031-.468.015-.468-.453v-5.329l-.282-.093c-.625.297-1.312.562-2.375.906l.11.594h.234l1.25-.516.031-.016c.047 0-.078-.046-.078.172v4.282c0 .468.047.421-.469.453L.86-.5v.531L2.594 0l1.672.031zm0 0"/></svg><svg overflow="visible" x="161.216" y="25.964"><path d="M2.297-1.188l-.203-.187-1.125.328C.89-.28.688.187.047 1.172l.297.219.531-.235C1.656.234 2.063-.422 2.359-1.14zm0 0"/></svg><svg overflow="visible" x="163.8" y="25.964" fill="#00f"><path d="M4.719-3.375c0-1.938-.782-2.984-2.094-2.984C1.125-6.36.219-5.141.219-3c0 1.031.234 2.031.578 2.453.328.438.984.719 1.578.719 1.469 0 2.344-1.281 2.344-3.547zm-1.125.453c0 1.875-.203 2.531-1.078 2.531-.938 0-1.188-.765-1.188-2.921 0-1.876.203-2.47 1.125-2.47.938 0 1.14.735 1.14 2.86zm0 0"/></svg><svg overflow="visible" x="169.296" y="23.19"><path d="M4.203-7.828a.735.735 0 01-.187-.14c-.063-.063-.11-.126-.22-.329-1.593 1.61-2.5 3.266-2.5 4.781v.797c0 1.516.907 3.172 2.5 4.781.11-.203.157-.265.22-.328.062-.062.125-.109.312-.203C2.875.063 2.281-1.344 2.281-2.719v-.797c0-1.39.594-2.78 2.047-4.25zm0 0"/></svg><svg overflow="visible" x="174.365" y="23.19"><path d="M3.703-5.516c-.453.047-.86.063-1.156.063.172-.984.297-1.578.531-2.25l-.25-.328a7.16 7.16 0 01-1.094.531l-.296 2.031c-.391.203-.704.328-1.063.407l-.047.406h1l-.64 3.25C.625-1.11.53-.813.53-.5c0 .297.266.61.5.61.422 0 .922-.282 1.86-1.032.218-.172.14-.125.437-.36l-.25-.437-.672.469c-.36.25-.484.313-.625.313-.093 0-.031.046-.031-.11 0-.297.156-1.234.516-3l.14-.61h1.266l.203-.89zm0 0"/></svg><svg overflow="visible" x="178.406" y="23.19"><path d="M3.766-2.719v-.797c0-1.515-.907-3.171-2.516-4.78-.11.202-.156.265-.203.327-.063.063-.125.11-.313.203 1.438 1.47 2.032 2.86 2.032 4.25v.797c0 1.375-.594 2.781-2.032 4.25.188.094.25.14.313.203.047.063.094.125.203.329C2.86.452 3.766-1.204 3.766-2.72zm0 0"/></svg><svg overflow="visible" x="186.129" y="23.19"><path d="M2.516-3.125c0-.422-.407-.844-.844-.844-.422 0-.86.422-.86.844 0 .438.438.86.86.86.437 0 .844-.422.844-.86zm0 0"/></svg><svg overflow="visible" x="192.13" y="23.19"><path d="M8.484-4.719c0-.687-.437-1.312-.875-1.312-.156 0-.406.093-.5.187l-.671.625.265.453c.25-.171.266-.171.375-.171.328 0 .375.14.375.625 0 1.734-1.016 3.578-2.031 3.578-.36 0-.469-.344-.469-1 0-.563.11-1.344.25-1.86l.625-2.234-.187-.219-1.032.313-.375 1.89c-.14.735-.28 1.125-.625 1.766-.484.89-.828 1.344-1.187 1.344-.406 0-.563-.329-.563-1.016 0-1.422.454-2.5 1.704-3.906l-.235-.407c-.281.141-.437.188-.765.188-.5 0-.985-.047-1.47-.094-.155 0-.25.032-.5.125-.155.328-.327.844-.515 1.64h.5l.266-.64c.094-.203.203-.203.484-.203.219 0 .438.031.672.031.25 0 .406-.015.422-.015.062-.11-.063.015-.188.172C1.156-3.61.72-2.656.72-1.641c0 .985.562 1.766 1.187 1.766.766 0 1.485-.688 2.375-2.39l-.234-.094c-.11.515-.156.812-.156 1.093 0 .75.5 1.391 1.03 1.391.97 0 2.36-1.328 3.095-2.969.265-.594.468-1.406.468-1.875zm0 0"/></svg><svg overflow="visible" x="200.768" y="25.964"><path d="M4.719-3.375c0-1.938-.782-2.984-2.094-2.984C1.125-6.36.219-5.141.219-3c0 1.031.234 2.031.578 2.453.328.438.984.719 1.578.719 1.469 0 2.344-1.281 2.344-3.547zm-1.125.453c0 1.875-.203 2.531-1.078 2.531-.938 0-1.188-.765-1.188-2.921 0-1.876.203-2.47 1.125-2.47.938 0 1.14.735 1.14 2.86zm0 0"/></svg><svg overflow="visible" x="216.227" y="23.19"><path d="M8.266-2.766a1.332 1.332 0 01-.047-.359c0-.11.015-.234.062-.484h-3.25v-3.266c-.25.063-.375.078-.484.078-.125 0-.25-.016-.5-.078v3.266H.78c.063.25.063.375.063.484 0 .125 0 .25-.063.5h3.266V.641c.25-.063.375-.079.5-.079.11 0 .234.016.484.079v-3.266h3.25zm0 0"/></svg><svg overflow="visible" x=".687" y="37.636"><path d="M6.234-1.25l-.171-.297-.454.297c-.343.219-.5.313-.625.313-.078 0-.03.03-.03-.11 0-.047.015-.187.03-.234l.782-3.297c.093-.344.14-.688.14-.89 0-.266-.265-.563-.5-.563-.5 0-1.437.5-2.14 1.156-.454.422-.797.828-1.407 1.703l.235.094.453-1.938c.047-.203.078-.343.078-.484 0-.25-.234-.531-.406-.531-.266 0-.828.312-1.703.922l-.391.296.172.485.547-.36c.437-.28.39-.265.469-.265.14 0 .078 0 .078.172 0 .61-.5 2.922-.985 4.656l.172.25c.36-.094.625-.172 1.016-.234.234-1.625.468-2.313 1-3.125.656-1.016 1.453-1.72 1.984-1.72.125 0 .063-.015.063.157 0 .219-.032.469-.141.86l-.61 2.53c-.109.438-.156.72-.156.907 0 .297.266.61.5.61.313 0 .829-.282 2.079-1.22zm0 0"/></svg><svg overflow="visible" x="9.988" y="37.636"><path d="M2.516-3.125c0-.422-.407-.844-.844-.844-.422 0-.86.422-.86.844 0 .438.438.86.86.86.437 0 .844-.422.844-.86zm0 0"/></svg><svg overflow="visible" x="15.99" y="37.636"><path d="M6.813-6.844c0-.984-1.094-1.687-2.016-1.687-.594 0-1.203.031-1.797.031l-1.938-.047-.062.61.797.03c.281 0 .266-.03.266.188 0 .172-.047.547-.11.907L.922-.782C.89-.577.875-.624.25-.531L.14.048A21.28 21.28 0 011.407 0c.64 0 1.266.031 1.922.031.563 0 1.219-.156 1.781-.5.954-.562 1.516-1.469 1.516-2.375 0-.515-.203-1-.531-1.265-.313-.25-.766-.391-1.594-.516v.266c.688-.25 1.063-.438 1.453-.75.531-.485.86-1.125.86-1.735zM5.296-2.656c0 1.234-.734 1.984-1.922 1.984-.25 0-.594-.015-.984-.047-.079-.015-.22-.015-.25-.031l.562-3.313h.906c1.235 0 1.688.375 1.688 1.407zm.219-3.985c0 1.266-.75 1.891-2.235 1.891h-.453l.531-3.016c.22 0 .532-.062.844-.062.969 0 1.313.297 1.313 1.187zm0 0"/></svg><svg overflow="visible" x="23.3" y="40.41"><path d="M5.14-.984l-.156-.25-.406.25c-.281.156-.375.218-.469.218-.062 0 .016.063.016-.046 0-.032-.031-.032.031-.157l.625-2.453c.078-.25.11-.5.11-.656 0-.203-.25-.453-.438-.453-.406 0-1.187.375-1.766.86-.359.312-.64.608-1.124 1.25l.265.108.36-1.421c.046-.172.062-.266.062-.375 0-.188-.234-.422-.375-.422-.203 0-.703.234-1.39.687l-.344.235.172.421.5-.28c.343-.22.265-.188.343-.188.094 0 .016-.047.016.078 0 .453-.406 2.156-.813 3.453l.172.219c.313-.078.531-.125.875-.188.203-1.218.375-1.703.797-2.312.531-.735 1.14-1.25 1.578-1.25.094 0 0-.063 0 .078 0 .156-.015.344-.11.625l-.5 1.875c-.077.328-.124.531-.124.672 0 .219.265.484.453.484.25 0 .703-.219 1.734-.922zm0 0"/></svg><svg overflow="visible" x="28.838" y="40.41"><path d="M6.156-2.078c-.015-.094-.015-.172-.015-.266 0-.094 0-.172.046-.39H.516c.046.218.062.296.062.39 0 .094-.015.172-.062.39h5.671zm0 0"/></svg><svg overflow="visible" x="35.562" y="40.41"><path d="M4.266-.11V-.5l-.657-.031c-.515-.031-.468.015-.468-.453v-5.329l-.282-.093c-.625.297-1.312.562-2.375.906l.11.594h.234l1.25-.516.031-.016c.047 0-.078-.046-.078.172v4.282c0 .468.047.421-.469.453L.86-.5v.531L2.594 0l1.672.031zm0 0"/></svg><svg overflow="visible" x="40.56" y="40.41"><path d="M2.297-1.188l-.203-.187-1.125.328C.89-.28.688.187.047 1.172l.297.219.531-.235C1.656.234 2.063-.422 2.359-1.14zm0 0"/></svg><svg overflow="visible" x="43.143" y="40.41" fill="red"><path d="M4.266-.11V-.5l-.657-.031c-.515-.031-.468.015-.468-.453v-5.329l-.282-.093c-.625.297-1.312.562-2.375.906l.11.594h.234l1.25-.516.031-.016c.047 0-.078-.046-.078.172v4.282c0 .468.047.421-.469.453L.86-.5v.531L2.594 0l1.672.031zm0 0"/></svg><svg overflow="visible" x="48.64" y="37.636"><path d="M4.203-7.828a.735.735 0 01-.187-.14c-.063-.063-.11-.126-.22-.329-1.593 1.61-2.5 3.266-2.5 4.781v.797c0 1.516.907 3.172 2.5 4.781.11-.203.157-.265.22-.328.062-.062.125-.109.312-.203C2.875.063 2.281-1.344 2.281-2.719v-.797c0-1.39.594-2.78 2.047-4.25zm0 0"/></svg><svg overflow="visible" x="53.709" y="37.636"><path d="M3.703-5.516c-.453.047-.86.063-1.156.063.172-.984.297-1.578.531-2.25l-.25-.328a7.16 7.16 0 01-1.094.531l-.296 2.031c-.391.203-.704.328-1.063.407l-.047.406h1l-.64 3.25C.625-1.11.53-.813.53-.5c0 .297.266.61.5.61.422 0 .922-.282 1.86-1.032.218-.172.14-.125.437-.36l-.25-.437-.672.469c-.36.25-.484.313-.625.313-.093 0-.031.046-.031-.11 0-.297.156-1.234.516-3l.14-.61h1.266l.203-.89zm0 0"/></svg><svg overflow="visible" x="57.738" y="37.636"><path d="M3.766-2.719v-.797c0-1.515-.907-3.171-2.516-4.78-.11.202-.156.265-.203.327-.063.063-.125.11-.313.203 1.438 1.47 2.032 2.86 2.032 4.25v.797c0 1.375-.594 2.781-2.032 4.25.188.094.25.14.313.203.047.063.094.125.203.329C2.86.452 3.766-1.204 3.766-2.72zm0 0"/></svg><svg overflow="visible" x="65.473" y="37.636"><path d="M2.516-3.125c0-.422-.407-.844-.844-.844-.422 0-.86.422-.86.844 0 .438.438.86.86.86.437 0 .844-.422.844-.86zm0 0"/></svg><svg overflow="visible" x="71.474" y="37.636"><path d="M8.484-4.719c0-.687-.437-1.312-.875-1.312-.156 0-.406.093-.5.187l-.671.625.265.453c.25-.171.266-.171.375-.171.328 0 .375.14.375.625 0 1.734-1.016 3.578-2.031 3.578-.36 0-.469-.344-.469-1 0-.563.11-1.344.25-1.86l.625-2.234-.187-.219-1.032.313-.375 1.89c-.14.735-.28 1.125-.625 1.766-.484.89-.828 1.344-1.187 1.344-.406 0-.563-.329-.563-1.016 0-1.422.454-2.5 1.704-3.906l-.235-.407c-.281.141-.437.188-.765.188-.5 0-.985-.047-1.47-.094-.155 0-.25.032-.5.125-.155.328-.327.844-.515 1.64h.5l.266-.64c.094-.203.203-.203.484-.203.219 0 .438.031.672.031.25 0 .406-.015.422-.015.062-.11-.063.015-.188.172C1.156-3.61.72-2.656.72-1.641c0 .985.562 1.766 1.187 1.766.766 0 1.485-.688 2.375-2.39l-.234-.094c-.11.515-.156.812-.156 1.093 0 .75.5 1.391 1.03 1.391.97 0 2.36-1.328 3.095-2.969.265-.594.468-1.406.468-1.875zm0 0"/></svg><svg overflow="visible" x="80.112" y="40.41"><path d="M4.75-.11c-.016-.187-.016-.265-.016-.39s0-.203.032-.547l-3.141.094 1.5-1.469c.938-.906 1.266-1.5 1.266-2.156 0-1.016-.891-1.781-2.125-1.781-.688 0-1.282.218-1.782.687L.297-4.266h.547l.172-.546c.156-.516.359-.594 1-.594.828 0 1.203.343 1.203 1.093 0 .657-.36 1.22-1.453 2.282L.078-.391v.422L2.391 0l2.375.031zm0 0"/></svg><svg overflow="visible" x="102.295" y="37.636"><path d="M8.266-2.766a1.332 1.332 0 01-.047-.359c0-.11.015-.234.062-.484h-7.5c.063.25.063.375.063.484 0 .125 0 .25-.063.5h7.5zm0 0"/></svg><svg overflow="visible" x="121.34" y="37.636"><path d="M6.234-1.25l-.171-.297-.454.297c-.343.219-.5.313-.625.313-.078 0-.03.03-.03-.11 0-.047.015-.187.03-.234l.782-3.297c.093-.344.14-.688.14-.89 0-.266-.265-.563-.5-.563-.5 0-1.437.5-2.14 1.156-.454.422-.797.828-1.407 1.703l.235.094.453-1.938c.047-.203.078-.343.078-.484 0-.25-.234-.531-.406-.531-.266 0-.828.312-1.703.922l-.391.296.172.485.547-.36c.437-.28.39-.265.469-.265.14 0 .078 0 .078.172 0 .61-.5 2.922-.985 4.656l.172.25c.36-.094.625-.172 1.016-.234.234-1.625.468-2.313 1-3.125.656-1.016 1.453-1.72 1.984-1.72.125 0 .063-.015.063.157 0 .219-.032.469-.141.86l-.61 2.53c-.109.438-.156.72-.156.907 0 .297.266.61.5.61.313 0 .829-.282 2.079-1.22zm0 0"/></svg><svg overflow="visible" x="130.641" y="37.636"><path d="M2.516-3.125c0-.422-.407-.844-.844-.844-.422 0-.86.422-.86.844 0 .438.438.86.86.86.437 0 .844-.422.844-.86zm0 0"/></svg><svg overflow="visible" x="136.642" y="37.636"><path d="M6.813-6.844c0-.984-1.094-1.687-2.016-1.687-.594 0-1.203.031-1.797.031l-1.938-.047-.062.61.797.03c.281 0 .266-.03.266.188 0 .172-.047.547-.11.907L.922-.782C.89-.577.875-.624.25-.531L.14.048A21.28 21.28 0 011.407 0c.64 0 1.266.031 1.922.031.563 0 1.219-.156 1.781-.5.954-.562 1.516-1.469 1.516-2.375 0-.515-.203-1-.531-1.265-.313-.25-.766-.391-1.594-.516v.266c.688-.25 1.063-.438 1.453-.75.531-.485.86-1.125.86-1.735zM5.296-2.656c0 1.234-.734 1.984-1.922 1.984-.25 0-.594-.015-.984-.047-.079-.015-.22-.015-.25-.031l.562-3.313h.906c1.235 0 1.688.375 1.688 1.407zm.219-3.985c0 1.266-.75 1.891-2.235 1.891h-.453l.531-3.016c.22 0 .532-.062.844-.062.969 0 1.313.297 1.313 1.187zm0 0"/></svg><svg overflow="visible" x="143.956" y="40.41"><path d="M5.14-.984l-.156-.25-.406.25c-.281.156-.375.218-.469.218-.062 0 .016.063.016-.046 0-.032-.031-.032.031-.157l.625-2.453c.078-.25.11-.5.11-.656 0-.203-.25-.453-.438-.453-.406 0-1.187.375-1.766.86-.359.312-.64.608-1.124 1.25l.265.108.36-1.421c.046-.172.062-.266.062-.375 0-.188-.234-.422-.375-.422-.203 0-.703.234-1.39.687l-.344.235.172.421.5-.28c.343-.22.265-.188.343-.188.094 0 .016-.047.016.078 0 .453-.406 2.156-.813 3.453l.172.219c.313-.078.531-.125.875-.188.203-1.218.375-1.703.797-2.312.531-.735 1.14-1.25 1.578-1.25.094 0 0-.063 0 .078 0 .156-.015.344-.11.625l-.5 1.875c-.077.328-.124.531-.124.672 0 .219.265.484.453.484.25 0 .703-.219 1.734-.922zm0 0"/></svg><svg overflow="visible" x="149.494" y="40.41"><path d="M6.156-2.078c-.015-.094-.015-.172-.015-.266 0-.094 0-.172.046-.39H.516c.046.218.062.296.062.39 0 .094-.015.172-.062.39h5.671zm0 0"/></svg><svg overflow="visible" x="156.218" y="40.41"><path d="M4.266-.11V-.5l-.657-.031c-.515-.031-.468.015-.468-.453v-5.329l-.282-.093c-.625.297-1.312.562-2.375.906l.11.594h.234l1.25-.516.031-.016c.047 0-.078-.046-.078.172v4.282c0 .468.047.421-.469.453L.86-.5v.531L2.594 0l1.672.031zm0 0"/></svg><svg overflow="visible" x="161.216" y="40.41"><path d="M2.297-1.188l-.203-.187-1.125.328C.89-.28.688.187.047 1.172l.297.219.531-.235C1.656.234 2.063-.422 2.359-1.14zm0 0"/></svg><svg overflow="visible" x="163.8" y="40.41" fill="red"><path d="M4.266-.11V-.5l-.657-.031c-.515-.031-.468.015-.468-.453v-5.329l-.282-.093c-.625.297-1.312.562-2.375.906l.11.594h.234l1.25-.516.031-.016c.047 0-.078-.046-.078.172v4.282c0 .468.047.421-.469.453L.86-.5v.531L2.594 0l1.672.031zm0 0"/></svg><svg overflow="visible" x="169.296" y="37.636"><path d="M4.203-7.828a.735.735 0 01-.187-.14c-.063-.063-.11-.126-.22-.329-1.593 1.61-2.5 3.266-2.5 4.781v.797c0 1.516.907 3.172 2.5 4.781.11-.203.157-.265.22-.328.062-.062.125-.109.312-.203C2.875.063 2.281-1.344 2.281-2.719v-.797c0-1.39.594-2.78 2.047-4.25zm0 0"/></svg><svg overflow="visible" x="174.365" y="37.636"><path d="M3.703-5.516c-.453.047-.86.063-1.156.063.172-.984.297-1.578.531-2.25l-.25-.328a7.16 7.16 0 01-1.094.531l-.296 2.031c-.391.203-.704.328-1.063.407l-.047.406h1l-.64 3.25C.625-1.11.53-.813.53-.5c0 .297.266.61.5.61.422 0 .922-.282 1.86-1.032.218-.172.14-.125.437-.36l-.25-.437-.672.469c-.36.25-.484.313-.625.313-.093 0-.031.046-.031-.11 0-.297.156-1.234.516-3l.14-.61h1.266l.203-.89zm0 0"/></svg><svg overflow="visible" x="178.406" y="37.636"><path d="M3.766-2.719v-.797c0-1.515-.907-3.171-2.516-4.78-.11.202-.156.265-.203.327-.063.063-.125.11-.313.203 1.438 1.47 2.032 2.86 2.032 4.25v.797c0 1.375-.594 2.781-2.032 4.25.188.094.25.14.313.203.047.063.094.125.203.329C2.86.452 3.766-1.204 3.766-2.72zm0 0"/></svg><svg overflow="visible" x="186.129" y="37.636"><path d="M2.516-3.125c0-.422-.407-.844-.844-.844-.422 0-.86.422-.86.844 0 .438.438.86.86.86.437 0 .844-.422.844-.86zm0 0"/></svg><svg overflow="visible" x="192.13" y="37.636"><path d="M8.484-4.719c0-.687-.437-1.312-.875-1.312-.156 0-.406.093-.5.187l-.671.625.265.453c.25-.171.266-.171.375-.171.328 0 .375.14.375.625 0 1.734-1.016 3.578-2.031 3.578-.36 0-.469-.344-.469-1 0-.563.11-1.344.25-1.86l.625-2.234-.187-.219-1.032.313-.375 1.89c-.14.735-.28 1.125-.625 1.766-.484.89-.828 1.344-1.187 1.344-.406 0-.563-.329-.563-1.016 0-1.422.454-2.5 1.704-3.906l-.235-.407c-.281.141-.437.188-.765.188-.5 0-.985-.047-1.47-.094-.155 0-.25.032-.5.125-.155.328-.327.844-.515 1.64h.5l.266-.64c.094-.203.203-.203.484-.203.219 0 .438.031.672.031.25 0 .406-.015.422-.015.062-.11-.063.015-.188.172C1.156-3.61.72-2.656.72-1.641c0 .985.562 1.766 1.187 1.766.766 0 1.485-.688 2.375-2.39l-.234-.094c-.11.515-.156.812-.156 1.093 0 .75.5 1.391 1.03 1.391.97 0 2.36-1.328 3.095-2.969.265-.594.468-1.406.468-1.875zm0 0"/></svg><svg overflow="visible" x="200.768" y="40.41"><path d="M4.266-.11V-.5l-.657-.031c-.515-.031-.468.015-.468-.453v-5.329l-.282-.093c-.625.297-1.312.562-2.375.906l.11.594h.234l1.25-.516.031-.016c.047 0-.078-.046-.078.172v4.282c0 .468.047.421-.469.453L.86-.5v.531L2.594 0l1.672.031zm0 0"/></svg><svg overflow="visible" x="216.227" y="37.636"><path d="M8.266-2.766a1.332 1.332 0 01-.047-.359c0-.11.015-.234.062-.484h-3.25v-3.266c-.25.063-.375.078-.484.078-.125 0-.25-.016-.5-.078v3.266H.78c.063.25.063.375.063.484 0 .125 0 .25-.063.5h3.266V.641c.25-.063.375-.079.5-.079.11 0 .234.016.484.079v-3.266h3.25zm0 0"/></svg><svg overflow="visible" x=".687" y="52.082"><path d="M6.234-1.25l-.171-.297-.454.297c-.343.219-.5.313-.625.313-.078 0-.03.03-.03-.11 0-.047.015-.187.03-.234l.782-3.297c.093-.344.14-.688.14-.89 0-.266-.265-.563-.5-.563-.5 0-1.437.5-2.14 1.156-.454.422-.797.828-1.407 1.703l.235.094.453-1.938c.047-.203.078-.343.078-.484 0-.25-.234-.531-.406-.531-.266 0-.828.312-1.703.922l-.391.296.172.485.547-.36c.437-.28.39-.265.469-.265.14 0 .078 0 .078.172 0 .61-.5 2.922-.985 4.656l.172.25c.36-.094.625-.172 1.016-.234.234-1.625.468-2.313 1-3.125.656-1.016 1.453-1.72 1.984-1.72.125 0 .063-.015.063.157 0 .219-.032.469-.141.86l-.61 2.53c-.109.438-.156.72-.156.907 0 .297.266.61.5.61.313 0 .829-.282 2.079-1.22zm0 0"/></svg><svg overflow="visible" x="9.988" y="52.082"><path d="M2.516-3.125c0-.422-.407-.844-.844-.844-.422 0-.86.422-.86.844 0 .438.438.86.86.86.437 0 .844-.422.844-.86zm0 0"/></svg><svg overflow="visible" x="15.99" y="52.082"><path d="M6.813-6.844c0-.984-1.094-1.687-2.016-1.687-.594 0-1.203.031-1.797.031l-1.938-.047-.062.61.797.03c.281 0 .266-.03.266.188 0 .172-.047.547-.11.907L.922-.782C.89-.577.875-.624.25-.531L.14.048A21.28 21.28 0 011.407 0c.64 0 1.266.031 1.922.031.563 0 1.219-.156 1.781-.5.954-.562 1.516-1.469 1.516-2.375 0-.515-.203-1-.531-1.265-.313-.25-.766-.391-1.594-.516v.266c.688-.25 1.063-.438 1.453-.75.531-.485.86-1.125.86-1.735zM5.296-2.656c0 1.234-.734 1.984-1.922 1.984-.25 0-.594-.015-.984-.047-.079-.015-.22-.015-.25-.031l.562-3.313h.906c1.235 0 1.688.375 1.688 1.407zm.219-3.985c0 1.266-.75 1.891-2.235 1.891h-.453l.531-3.016c.22 0 .532-.062.844-.062.969 0 1.313.297 1.313 1.187zm0 0"/></svg><svg overflow="visible" x="23.3" y="54.856"><path d="M5.14-.984l-.156-.25-.406.25c-.281.156-.375.218-.469.218-.062 0 .016.063.016-.046 0-.032-.031-.032.031-.157l.625-2.453c.078-.25.11-.5.11-.656 0-.203-.25-.453-.438-.453-.406 0-1.187.375-1.766.86-.359.312-.64.608-1.124 1.25l.265.108.36-1.421c.046-.172.062-.266.062-.375 0-.188-.234-.422-.375-.422-.203 0-.703.234-1.39.687l-.344.235.172.421.5-.28c.343-.22.265-.188.343-.188.094 0 .016-.047.016.078 0 .453-.406 2.156-.813 3.453l.172.219c.313-.078.531-.125.875-.188.203-1.218.375-1.703.797-2.312.531-.735 1.14-1.25 1.578-1.25.094 0 0-.063 0 .078 0 .156-.015.344-.11.625l-.5 1.875c-.077.328-.124.531-.124.672 0 .219.265.484.453.484.25 0 .703-.219 1.734-.922zm0 0"/></svg><svg overflow="visible" x="28.838" y="54.856"><path d="M6.156-2.078c-.015-.094-.015-.172-.015-.266 0-.094 0-.172.046-.39H.516c.046.218.062.296.062.39 0 .094-.015.172-.062.39h5.671zm0 0"/></svg><svg overflow="visible" x="35.562" y="54.856"><path d="M4.266-.11V-.5l-.657-.031c-.515-.031-.468.015-.468-.453v-5.329l-.282-.093c-.625.297-1.312.562-2.375.906l.11.594h.234l1.25-.516.031-.016c.047 0-.078-.046-.078.172v4.282c0 .468.047.421-.469.453L.86-.5v.531L2.594 0l1.672.031zm0 0"/></svg><svg overflow="visible" x="40.56" y="54.856"><path d="M2.297-1.188l-.203-.187-1.125.328C.89-.28.688.187.047 1.172l.297.219.531-.235C1.656.234 2.063-.422 2.359-1.14zm0 0"/></svg><svg overflow="visible" x="43.143" y="54.856" fill="#ec008c"><path d="M4.75-.11c-.016-.187-.016-.265-.016-.39s0-.203.032-.547l-3.141.094 1.5-1.469c.938-.906 1.266-1.5 1.266-2.156 0-1.016-.891-1.781-2.125-1.781-.688 0-1.282.218-1.782.687L.297-4.266h.547l.172-.546c.156-.516.359-.594 1-.594.828 0 1.203.343 1.203 1.093 0 .657-.36 1.22-1.453 2.282L.078-.391v.422L2.391 0l2.375.031zm0 0"/></svg><svg overflow="visible" x="48.64" y="52.082"><path d="M4.203-7.828a.735.735 0 01-.187-.14c-.063-.063-.11-.126-.22-.329-1.593 1.61-2.5 3.266-2.5 4.781v.797c0 1.516.907 3.172 2.5 4.781.11-.203.157-.265.22-.328.062-.062.125-.109.312-.203C2.875.063 2.281-1.344 2.281-2.719v-.797c0-1.39.594-2.78 2.047-4.25zm0 0"/></svg><svg overflow="visible" x="53.709" y="52.082"><path d="M3.703-5.516c-.453.047-.86.063-1.156.063.172-.984.297-1.578.531-2.25l-.25-.328a7.16 7.16 0 01-1.094.531l-.296 2.031c-.391.203-.704.328-1.063.407l-.047.406h1l-.64 3.25C.625-1.11.53-.813.53-.5c0 .297.266.61.5.61.422 0 .922-.282 1.86-1.032.218-.172.14-.125.437-.36l-.25-.437-.672.469c-.36.25-.484.313-.625.313-.093 0-.031.046-.031-.11 0-.297.156-1.234.516-3l.14-.61h1.266l.203-.89zm0 0"/></svg><svg overflow="visible" x="57.738" y="52.082"><path d="M3.766-2.719v-.797c0-1.515-.907-3.171-2.516-4.78-.11.202-.156.265-.203.327-.063.063-.125.11-.313.203 1.438 1.47 2.032 2.86 2.032 4.25v.797c0 1.375-.594 2.781-2.032 4.25.188.094.25.14.313.203.047.063.094.125.203.329C2.86.452 3.766-1.204 3.766-2.72zm0 0"/></svg><svg overflow="visible" x="65.473" y="52.082"><path d="M2.516-3.125c0-.422-.407-.844-.844-.844-.422 0-.86.422-.86.844 0 .438.438.86.86.86.437 0 .844-.422.844-.86zm0 0"/></svg><svg overflow="visible" x="71.474" y="52.082"><path d="M8.484-4.719c0-.687-.437-1.312-.875-1.312-.156 0-.406.093-.5.187l-.671.625.265.453c.25-.171.266-.171.375-.171.328 0 .375.14.375.625 0 1.734-1.016 3.578-2.031 3.578-.36 0-.469-.344-.469-1 0-.563.11-1.344.25-1.86l.625-2.234-.187-.219-1.032.313-.375 1.89c-.14.735-.28 1.125-.625 1.766-.484.89-.828 1.344-1.187 1.344-.406 0-.563-.329-.563-1.016 0-1.422.454-2.5 1.704-3.906l-.235-.407c-.281.141-.437.188-.765.188-.5 0-.985-.047-1.47-.094-.155 0-.25.032-.5.125-.155.328-.327.844-.515 1.64h.5l.266-.64c.094-.203.203-.203.484-.203.219 0 .438.031.672.031.25 0 .406-.015.422-.015.062-.11-.063.015-.188.172C1.156-3.61.72-2.656.72-1.641c0 .985.562 1.766 1.187 1.766.766 0 1.485-.688 2.375-2.39l-.234-.094c-.11.515-.156.812-.156 1.093 0 .75.5 1.391 1.03 1.391.97 0 2.36-1.328 3.095-2.969.265-.594.468-1.406.468-1.875zm0 0"/></svg><g><svg overflow="visible" x="80.112" y="54.856"><path d="M4.703-2.11c0-.421-.25-.89-.594-1.124a2.225 2.225 0 00-.703-.282c.531-.375.86-.875.86-1.406 0-.781-.86-1.437-1.938-1.437-.64 0-1.203.203-1.687.656L.312-4.406h.594l.219-.625c.11-.297.563-.469 1.063-.469.624 0 .984.328.984.89 0 .673-.406 1.094-1.094 1.094-.078 0-.36.204-.36.204l-.265-.094-.125.515.203.157c.407-.172.594-.22.844-.22.813 0 1.11.329 1.11 1.142 0 .906-.422 1.359-1.329 1.359-.437 0-.719-.094-1.015-.344C.906-.984.828-1.094.578-1.75l-.531.188c.234.609.312.937.375 1.468C1.078.11 1.5.172 1.859.172c.782 0 1.766-.422 2.297-1.016.328-.375.547-.86.547-1.265zm0 0"/></svg></g><g><svg overflow="visible" x="102.295" y="52.082"><path d="M8.266-2.766a1.332 1.332 0 01-.047-.359c0-.11.015-.234.062-.484h-7.5c.063.25.063.375.063.484 0 .125 0 .25-.063.5h7.5zm0 0"/></svg></g><g><svg overflow="visible" x="121.34" y="52.082"><path d="M6.234-1.25l-.171-.297-.454.297c-.343.219-.5.313-.625.313-.078 0-.03.03-.03-.11 0-.047.015-.187.03-.234l.782-3.297c.093-.344.14-.688.14-.89 0-.266-.265-.563-.5-.563-.5 0-1.437.5-2.14 1.156-.454.422-.797.828-1.407 1.703l.235.094.453-1.938c.047-.203.078-.343.078-.484 0-.25-.234-.531-.406-.531-.266 0-.828.312-1.703.922l-.391.296.172.485.547-.36c.437-.28.39-.265.469-.265.14 0 .078 0 .078.172 0 .61-.5 2.922-.985 4.656l.172.25c.36-.094.625-.172 1.016-.234.234-1.625.468-2.313 1-3.125.656-1.016 1.453-1.72 1.984-1.72.125 0 .063-.015.063.157 0 .219-.032.469-.141.86l-.61 2.53c-.109.438-.156.72-.156.907 0 .297.266.61.5.61.313 0 .829-.282 2.079-1.22zm0 0"/></svg></g><g><svg overflow="visible" x="130.641" y="52.082"><path d="M2.516-3.125c0-.422-.407-.844-.844-.844-.422 0-.86.422-.86.844 0 .438.438.86.86.86.437 0 .844-.422.844-.86zm0 0"/></svg></g><g><svg overflow="visible" x="136.642" y="52.082"><path d="M6.813-6.844c0-.984-1.094-1.687-2.016-1.687-.594 0-1.203.031-1.797.031l-1.938-.047-.062.61.797.03c.281 0 .266-.03.266.188 0 .172-.047.547-.11.907L.922-.782C.89-.577.875-.624.25-.531L.14.048A21.28 21.28 0 011.407 0c.64 0 1.266.031 1.922.031.563 0 1.219-.156 1.781-.5.954-.562 1.516-1.469 1.516-2.375 0-.515-.203-1-.531-1.265-.313-.25-.766-.391-1.594-.516v.266c.688-.25 1.063-.438 1.453-.75.531-.485.86-1.125.86-1.735zM5.296-2.656c0 1.234-.734 1.984-1.922 1.984-.25 0-.594-.015-.984-.047-.079-.015-.22-.015-.25-.031l.562-3.313h.906c1.235 0 1.688.375 1.688 1.407zm.219-3.985c0 1.266-.75 1.891-2.235 1.891h-.453l.531-3.016c.22 0 .532-.062.844-.062.969 0 1.313.297 1.313 1.187zm0 0"/></svg></g><g><svg overflow="visible" x="143.956" y="54.856"><path d="M5.14-.984l-.156-.25-.406.25c-.281.156-.375.218-.469.218-.062 0 .016.063.016-.046 0-.032-.031-.032.031-.157l.625-2.453c.078-.25.11-.5.11-.656 0-.203-.25-.453-.438-.453-.406 0-1.187.375-1.766.86-.359.312-.64.608-1.124 1.25l.265.108.36-1.421c.046-.172.062-.266.062-.375 0-.188-.234-.422-.375-.422-.203 0-.703.234-1.39.687l-.344.235.172.421.5-.28c.343-.22.265-.188.343-.188.094 0 .016-.047.016.078 0 .453-.406 2.156-.813 3.453l.172.219c.313-.078.531-.125.875-.188.203-1.218.375-1.703.797-2.312.531-.735 1.14-1.25 1.578-1.25.094 0 0-.063 0 .078 0 .156-.015.344-.11.625l-.5 1.875c-.077.328-.124.531-.124.672 0 .219.265.484.453.484.25 0 .703-.219 1.734-.922zm0 0"/></svg><svg overflow="visible" x="149.494" y="54.856"><path d="M6.156-2.078c-.015-.094-.015-.172-.015-.266 0-.094 0-.172.046-.39H.516c.046.218.062.296.062.39 0 .094-.015.172-.062.39h5.671zm0 0"/></svg><svg overflow="visible" x="156.218" y="54.856"><path d="M4.266-.11V-.5l-.657-.031c-.515-.031-.468.015-.468-.453v-5.329l-.282-.093c-.625.297-1.312.562-2.375.906l.11.594h.234l1.25-.516.031-.016c.047 0-.078-.046-.078.172v4.282c0 .468.047.421-.469.453L.86-.5v.531L2.594 0l1.672.031zm0 0"/></svg><svg overflow="visible" x="161.216" y="54.856"><path d="M2.297-1.188l-.203-.187-1.125.328C.89-.28.688.187.047 1.172l.297.219.531-.235C1.656.234 2.063-.422 2.359-1.14zm0 0"/></svg></g><g fill="#ec008c"><svg overflow="visible" x="163.8" y="54.856"><path d="M4.75-.11c-.016-.187-.016-.265-.016-.39s0-.203.032-.547l-3.141.094 1.5-1.469c.938-.906 1.266-1.5 1.266-2.156 0-1.016-.891-1.781-2.125-1.781-.688 0-1.282.218-1.782.687L.297-4.266h.547l.172-.546c.156-.516.359-.594 1-.594.828 0 1.203.343 1.203 1.093 0 .657-.36 1.22-1.453 2.282L.078-.391v.422L2.391 0l2.375.031zm0 0"/></svg></g><g><svg overflow="visible" x="169.296" y="52.082"><path d="M4.203-7.828a.735.735 0 01-.187-.14c-.063-.063-.11-.126-.22-.329-1.593 1.61-2.5 3.266-2.5 4.781v.797c0 1.516.907 3.172 2.5 4.781.11-.203.157-.265.22-.328.062-.062.125-.109.312-.203C2.875.063 2.281-1.344 2.281-2.719v-.797c0-1.39.594-2.78 2.047-4.25zm0 0"/></svg><svg overflow="visible" x="174.365" y="52.082"><path d="M3.703-5.516c-.453.047-.86.063-1.156.063.172-.984.297-1.578.531-2.25l-.25-.328a7.16 7.16 0 01-1.094.531l-.296 2.031c-.391.203-.704.328-1.063.407l-.047.406h1l-.64 3.25C.625-1.11.53-.813.53-.5c0 .297.266.61.5.61.422 0 .922-.282 1.86-1.032.218-.172.14-.125.437-.36l-.25-.437-.672.469c-.36.25-.484.313-.625.313-.093 0-.031.046-.031-.11 0-.297.156-1.234.516-3l.14-.61h1.266l.203-.89zm0 0"/></svg></g><g><svg overflow="visible" x="178.406" y="52.082"><path d="M3.766-2.719v-.797c0-1.515-.907-3.171-2.516-4.78-.11.202-.156.265-.203.327-.063.063-.125.11-.313.203 1.438 1.47 2.032 2.86 2.032 4.25v.797c0 1.375-.594 2.781-2.032 4.25.188.094.25.14.313.203.047.063.094.125.203.329C2.86.452 3.766-1.204 3.766-2.72zm0 0"/></svg></g><g><svg overflow="visible" x="186.129" y="52.082"><path d="M2.516-3.125c0-.422-.407-.844-.844-.844-.422 0-.86.422-.86.844 0 .438.438.86.86.86.437 0 .844-.422.844-.86zm0 0"/></svg></g><g><svg overflow="visible" x="192.13" y="52.082"><path d="M8.484-4.719c0-.687-.437-1.312-.875-1.312-.156 0-.406.093-.5.187l-.671.625.265.453c.25-.171.266-.171.375-.171.328 0 .375.14.375.625 0 1.734-1.016 3.578-2.031 3.578-.36 0-.469-.344-.469-1 0-.563.11-1.344.25-1.86l.625-2.234-.187-.219-1.032.313-.375 1.89c-.14.735-.28 1.125-.625 1.766-.484.89-.828 1.344-1.187 1.344-.406 0-.563-.329-.563-1.016 0-1.422.454-2.5 1.704-3.906l-.235-.407c-.281.141-.437.188-.765.188-.5 0-.985-.047-1.47-.094-.155 0-.25.032-.5.125-.155.328-.327.844-.515 1.64h.5l.266-.64c.094-.203.203-.203.484-.203.219 0 .438.031.672.031.25 0 .406-.015.422-.015.062-.11-.063.015-.188.172C1.156-3.61.72-2.656.72-1.641c0 .985.562 1.766 1.187 1.766.766 0 1.485-.688 2.375-2.39l-.234-.094c-.11.515-.156.812-.156 1.093 0 .75.5 1.391 1.03 1.391.97 0 2.36-1.328 3.095-2.969.265-.594.468-1.406.468-1.875zm0 0"/></svg></g><g><svg overflow="visible" x="200.768" y="54.856"><path d="M4.75-.11c-.016-.187-.016-.265-.016-.39s0-.203.032-.547l-3.141.094 1.5-1.469c.938-.906 1.266-1.5 1.266-2.156 0-1.016-.891-1.781-2.125-1.781-.688 0-1.282.218-1.782.687L.297-4.266h.547l.172-.546c.156-.516.359-.594 1-.594.828 0 1.203.343 1.203 1.093 0 .657-.36 1.22-1.453 2.282L.078-.391v.422L2.391 0l2.375.031zm0 0"/></svg></g><g><svg overflow="visible" x="216.227" y="52.082"><path d="M8.266-2.766a1.332 1.332 0 01-.047-.359c0-.11.015-.234.062-.484h-3.25v-3.266c-.25.063-.375.078-.484.078-.125 0-.25-.016-.5-.078v3.266H.78c.063.25.063.375.063.484 0 .125 0 .25-.063.5h3.266V.641c.25-.063.375-.079.5-.079.11 0 .234.016.484.079v-3.266h3.25zm0 0"/></svg></g><g><svg overflow="visible" x=".687" y="66.528"><path d="M2.313-.766c0-.359-.454-.828-.829-.828-.359 0-.828.469-.828.828 0 .36.469.829.813.829.39 0 .843-.454.843-.829zm0 0"/></svg><svg overflow="visible" x="3.676" y="66.528"><path d="M2.313-.766c0-.359-.454-.828-.829-.828-.359 0-.828.469-.828.828 0 .36.469.829.813.829.39 0 .843-.454.843-.829zm0 0"/></svg><svg overflow="visible" x="6.665" y="66.528"><path d="M2.313-.766c0-.359-.454-.828-.829-.828-.359 0-.828.469-.828.828 0 .36.469.829.813.829.39 0 .843-.454.843-.829zm0 0"/></svg></g><g><svg overflow="visible" x="102.295" y="66.528"><path d="M8.266-2.766a1.332 1.332 0 01-.047-.359c0-.11.015-.234.062-.484h-7.5c.063.25.063.375.063.484 0 .125 0 .25-.063.5h7.5zm0 0"/></svg></g><g><svg overflow="visible" x="121.34" y="66.528"><path d="M6.234-1.25l-.171-.297-.454.297c-.343.219-.5.313-.625.313-.078 0-.03.03-.03-.11 0-.047.015-.187.03-.234l.782-3.297c.093-.344.14-.688.14-.89 0-.266-.265-.563-.5-.563-.5 0-1.437.5-2.14 1.156-.454.422-.797.828-1.407 1.703l.235.094.453-1.938c.047-.203.078-.343.078-.484 0-.25-.234-.531-.406-.531-.266 0-.828.312-1.703.922l-.391.296.172.485.547-.36c.437-.28.39-.265.469-.265.14 0 .078 0 .078.172 0 .61-.5 2.922-.985 4.656l.172.25c.36-.094.625-.172 1.016-.234.234-1.625.468-2.313 1-3.125.656-1.016 1.453-1.72 1.984-1.72.125 0 .063-.015.063.157 0 .219-.032.469-.141.86l-.61 2.53c-.109.438-.156.72-.156.907 0 .297.266.61.5.61.313 0 .829-.282 2.079-1.22zm0 0"/></svg></g><g><svg overflow="visible" x="130.641" y="66.528"><path d="M2.516-3.125c0-.422-.407-.844-.844-.844-.422 0-.86.422-.86.844 0 .438.438.86.86.86.437 0 .844-.422.844-.86zm0 0"/></svg></g><g><svg overflow="visible" x="136.642" y="66.528"><path d="M6.813-6.844c0-.984-1.094-1.687-2.016-1.687-.594 0-1.203.031-1.797.031l-1.938-.047-.062.61.797.03c.281 0 .266-.03.266.188 0 .172-.047.547-.11.907L.922-.782C.89-.577.875-.624.25-.531L.14.048A21.28 21.28 0 011.407 0c.64 0 1.266.031 1.922.031.563 0 1.219-.156 1.781-.5.954-.562 1.516-1.469 1.516-2.375 0-.515-.203-1-.531-1.265-.313-.25-.766-.391-1.594-.516v.266c.688-.25 1.063-.438 1.453-.75.531-.485.86-1.125.86-1.735zM5.296-2.656c0 1.234-.734 1.984-1.922 1.984-.25 0-.594-.015-.984-.047-.079-.015-.22-.015-.25-.031l.562-3.313h.906c1.235 0 1.688.375 1.688 1.407zm.219-3.985c0 1.266-.75 1.891-2.235 1.891h-.453l.531-3.016c.22 0 .532-.062.844-.062.969 0 1.313.297 1.313 1.187zm0 0"/></svg></g><g><svg overflow="visible" x="143.956" y="69.302"><path d="M5.14-.984l-.156-.25-.406.25c-.281.156-.375.218-.469.218-.062 0 .016.063.016-.046 0-.032-.031-.032.031-.157l.625-2.453c.078-.25.11-.5.11-.656 0-.203-.25-.453-.438-.453-.406 0-1.187.375-1.766.86-.359.312-.64.608-1.124 1.25l.265.108.36-1.421c.046-.172.062-.266.062-.375 0-.188-.234-.422-.375-.422-.203 0-.703.234-1.39.687l-.344.235.172.421.5-.28c.343-.22.265-.188.343-.188.094 0 .016-.047.016.078 0 .453-.406 2.156-.813 3.453l.172.219c.313-.078.531-.125.875-.188.203-1.218.375-1.703.797-2.312.531-.735 1.14-1.25 1.578-1.25.094 0 0-.063 0 .078 0 .156-.015.344-.11.625l-.5 1.875c-.077.328-.124.531-.124.672 0 .219.265.484.453.484.25 0 .703-.219 1.734-.922zm0 0"/></svg><svg overflow="visible" x="149.494" y="69.302"><path d="M6.156-2.078c-.015-.094-.015-.172-.015-.266 0-.094 0-.172.046-.39H.516c.046.218.062.296.062.39 0 .094-.015.172-.062.39h5.671zm0 0"/></svg><svg overflow="visible" x="156.218" y="69.302"><path d="M4.266-.11V-.5l-.657-.031c-.515-.031-.468.015-.468-.453v-5.329l-.282-.093c-.625.297-1.312.562-2.375.906l.11.594h.234l1.25-.516.031-.016c.047 0-.078-.046-.078.172v4.282c0 .468.047.421-.469.453L.86-.5v.531L2.594 0l1.672.031zm0 0"/></svg><svg overflow="visible" x="161.216" y="69.302"><path d="M2.297-1.188l-.203-.187-1.125.328C.89-.28.688.187.047 1.172l.297.219.531-.235C1.656.234 2.063-.422 2.359-1.14zm0 0"/></svg><svg overflow="visible" x="163.799" y="69.302"><path d="M4.703-2.11c0-.421-.25-.89-.594-1.124a2.225 2.225 0 00-.703-.282c.531-.375.86-.875.86-1.406 0-.781-.86-1.437-1.938-1.437-.64 0-1.203.203-1.687.656L.312-4.406h.594l.219-.625c.11-.297.563-.469 1.063-.469.624 0 .984.328.984.89 0 .673-.406 1.094-1.094 1.094-.078 0-.36.204-.36.204l-.265-.094-.125.515.203.157c.407-.172.594-.22.844-.22.813 0 1.11.329 1.11 1.142 0 .906-.422 1.359-1.329 1.359-.437 0-.719-.094-1.015-.344C.906-.984.828-1.094.578-1.75l-.531.188c.234.609.312.937.375 1.468C1.078.11 1.5.172 1.859.172c.782 0 1.766-.422 2.297-1.016.328-.375.547-.86.547-1.265zm0 0"/></svg></g><g><svg overflow="visible" x="169.296" y="66.528"><path d="M4.203-7.828a.735.735 0 01-.187-.14c-.063-.063-.11-.126-.22-.329-1.593 1.61-2.5 3.266-2.5 4.781v.797c0 1.516.907 3.172 2.5 4.781.11-.203.157-.265.22-.328.062-.062.125-.109.312-.203C2.875.063 2.281-1.344 2.281-2.719v-.797c0-1.39.594-2.78 2.047-4.25zm0 0"/></svg><svg overflow="visible" x="174.365" y="66.528"><path d="M3.703-5.516c-.453.047-.86.063-1.156.063.172-.984.297-1.578.531-2.25l-.25-.328a7.16 7.16 0 01-1.094.531l-.296 2.031c-.391.203-.704.328-1.063.407l-.047.406h1l-.64 3.25C.625-1.11.53-.813.53-.5c0 .297.266.61.5.61.422 0 .922-.282 1.86-1.032.218-.172.14-.125.437-.36l-.25-.437-.672.469c-.36.25-.484.313-.625.313-.093 0-.031.046-.031-.11 0-.297.156-1.234.516-3l.14-.61h1.266l.203-.89zm0 0"/></svg></g><g><svg overflow="visible" x="178.406" y="66.528"><path d="M3.766-2.719v-.797c0-1.515-.907-3.171-2.516-4.78-.11.202-.156.265-.203.327-.063.063-.125.11-.313.203 1.438 1.47 2.032 2.86 2.032 4.25v.797c0 1.375-.594 2.781-2.032 4.25.188.094.25.14.313.203.047.063.094.125.203.329C2.86.452 3.766-1.204 3.766-2.72zm0 0"/></svg></g><g><svg overflow="visible" x="186.129" y="66.528"><path d="M2.516-3.125c0-.422-.407-.844-.844-.844-.422 0-.86.422-.86.844 0 .438.438.86.86.86.437 0 .844-.422.844-.86zm0 0"/></svg></g><g><svg overflow="visible" x="192.13" y="66.528"><path d="M8.484-4.719c0-.687-.437-1.312-.875-1.312-.156 0-.406.093-.5.187l-.671.625.265.453c.25-.171.266-.171.375-.171.328 0 .375.14.375.625 0 1.734-1.016 3.578-2.031 3.578-.36 0-.469-.344-.469-1 0-.563.11-1.344.25-1.86l.625-2.234-.187-.219-1.032.313-.375 1.89c-.14.735-.28 1.125-.625 1.766-.484.89-.828 1.344-1.187 1.344-.406 0-.563-.329-.563-1.016 0-1.422.454-2.5 1.704-3.906l-.235-.407c-.281.141-.437.188-.765.188-.5 0-.985-.047-1.47-.094-.155 0-.25.032-.5.125-.155.328-.327.844-.515 1.64h.5l.266-.64c.094-.203.203-.203.484-.203.219 0 .438.031.672.031.25 0 .406-.015.422-.015.062-.11-.063.015-.188.172C1.156-3.61.72-2.656.72-1.641c0 .985.562 1.766 1.187 1.766.766 0 1.485-.688 2.375-2.39l-.234-.094c-.11.515-.156.812-.156 1.093 0 .75.5 1.391 1.03 1.391.97 0 2.36-1.328 3.095-2.969.265-.594.468-1.406.468-1.875zm0 0"/></svg></g><g><svg overflow="visible" x="200.768" y="69.302"><path d="M4.703-2.11c0-.421-.25-.89-.594-1.124a2.225 2.225 0 00-.703-.282c.531-.375.86-.875.86-1.406 0-.781-.86-1.437-1.938-1.437-.64 0-1.203.203-1.687.656L.312-4.406h.594l.219-.625c.11-.297.563-.469 1.063-.469.624 0 .984.328.984.89 0 .673-.406 1.094-1.094 1.094-.078 0-.36.204-.36.204l-.265-.094-.125.515.203.157c.407-.172.594-.22.844-.22.813 0 1.11.329 1.11 1.142 0 .906-.422 1.359-1.329 1.359-.437 0-.719-.094-1.015-.344C.906-.984.828-1.094.578-1.75l-.531.188c.234.609.312.937.375 1.468C1.078.11 1.5.172 1.859.172c.782 0 1.766-.422 2.297-1.016.328-.375.547-.86.547-1.265zm0 0"/></svg></g><g><svg overflow="visible" x="216.227" y="66.528"><path d="M8.266-2.766a1.332 1.332 0 01-.047-.359c0-.11.015-.234.062-.484h-3.25v-3.266c-.25.063-.375.078-.484.078-.125 0-.25-.016-.5-.078v3.266H.78c.063.25.063.375.063.484 0 .125 0 .25-.063.5h3.266V.641c.25-.063.375-.079.5-.079.11 0 .234.016.484.079v-3.266h3.25zm0 0"/></svg></g><g><svg overflow="visible" x=".687" y="80.974"><path d="M2.313-.766c0-.359-.454-.828-.829-.828-.359 0-.828.469-.828.828 0 .36.469.829.813.829.39 0 .843-.454.843-.829zm0 0"/></svg><svg overflow="visible" x="3.676" y="80.974"><path d="M2.313-.766c0-.359-.454-.828-.829-.828-.359 0-.828.469-.828.828 0 .36.469.829.813.829.39 0 .843-.454.843-.829zm0 0"/></svg><svg overflow="visible" x="6.665" y="80.974"><path d="M2.313-.766c0-.359-.454-.828-.829-.828-.359 0-.828.469-.828.828 0 .36.469.829.813.829.39 0 .843-.454.843-.829zm0 0"/></svg></g></svg>