<svg xmlns="http://www.w3.org/2000/svg" xmlns:xlink="http://www.w3.org/1999/xlink" width="212" height="16" viewBox="0 0 159 12"><svg overflow="visible" x=".512" y="9.082"><path d="M.11-4.766l.171.47.594-.391c.422-.282.36-.266.438-.266.14 0 .03 0 .03.172 0 .61-.484 2.922-.968 4.625L.453.14l1.094-.235.281-1.328c.281-1.328.563-1.937 1.219-2.656.5-.547.922-.875 1.25-.875.094 0-.047-.031-.047.125 0 .422-.25 1.781-.75 3.875l-.188.797.126.281 1.078-.219.28-1.39c.188-.97.548-1.766 1.079-2.36.656-.719 1.125-1.11 1.516-1.11.093 0-.032-.015-.032.173 0 .281-.015.453-.296 1.5l-.516 1.875c-.094.328-.156.64-.156.906 0 .297.312.61.546.61.313 0 .86-.282 2.094-1.22l-.25-.468-.5.328c-.344.219-.469.313-.594.313-.078 0 .016.03.016-.11 0-.11.016-.219.078-.469l.89-3.546c.048-.204.095-.407.095-.5 0-.204-.297-.47-.485-.47-.344 0-.937.266-1.656.766-.75.547-1.172.97-1.766 1.782l.297.109.36-1.64c.046-.25.093-.423.093-.5 0-.235-.296-.516-.484-.516-.36 0-1.031.312-1.688.812-.53.407-.765.657-1.546 1.703l.296.094.391-1.594c.047-.187.078-.359.078-.5 0-.234-.281-.515-.437-.515-.266 0-.844.297-1.735.922l-.39.296zm0 0"/></svg><svg overflow="visible" x="9.813" y="9.082"><path d="M.234-4.766l.157.47.593-.391c.36-.22.36-.235.47-.235.109 0 .015-.031.015.11 0 .109-.047.359-.094.53L.578-1.405c-.094.375-.14.672-.14.922 0 .28.296.593.53.593.313 0 .876-.296 2.11-1.218l-.265-.47-.5.329c-.36.234-.47.313-.594.313-.078 0 .015.03.015-.11 0-.11.016-.203.079-.469l.921-3.64c.047-.203.079-.313.079-.422 0-.203-.266-.453-.47-.453-.265 0-.827.281-1.734.922l-.39.296zm1.641-2.578c0 .297.36.625.656.625.375 0 .813-.484.813-.937 0-.282-.344-.61-.594-.61-.36 0-.875.516-.875.922zm0 0"/></svg><svg overflow="visible" x="13.137" y="9.082"><path d="M-.031-.047c.187.094.515.172.656.172.39 0 .984-.375 1.344-.938l.906-1.406-.297-.094.14.829C2.876-.47 3.329.125 3.75.125c.266 0 .766-.234 1.156-.578l.64-.594-.234-.5c-.609.5-.78.656-.968.656-.188 0-.219-.093-.235-.093a4.91 4.91 0 01-.359-1.157l-.219-1.187.375-.516c.563-.765.766-1.015 1.14-1.015.188 0 .157-.032.266.312l.454-.11.203-1.171c-.203-.125-.438-.203-.547-.203-.469 0-1.078.468-1.828 1.578l-.438.656.297.094-.078-.578c-.14-1.188-.625-1.75-1.328-1.75-.313 0-.703.14-.813.297L.438-4.61l.468.265c.438-.5.563-.625.797-.625.39 0 .469.36.672 1.532l.14.718-.437.656C1.563-1.25 1.297-.905.953-.905c-.172 0-.14.078-.172.015l-.187-.484-.516.078c0 .36-.031.516-.11.89-.015.141-.03.173-.046.329zm0 0"/></svg><svg overflow="visible" x="19.114" y="9.082"><path d="M.484-4.656h.813L.64-1.406C.578-1.11.484-.813.484-.5c0 .297.313.61.547.61.422 0 .938-.282 1.89-1.032.204-.172.142-.125.438-.36l-.265-.468-.719.5c-.36.25-.453.313-.594.313-.093 0 .016.046.016-.11 0-.297.14-1.234.516-3l.109-.61h1.281l.203-.89c-.656.078-1.062.094-1.328.094.172-.984.297-1.578.516-2.234l-.266-.36c-.406.235-.594.344-1.125.547l-.297 2.047c-.36.187-.672.312-1.062.406l-.063.39zm0 0"/></svg><svg overflow="visible" x="23.095" y="9.082"><path d="M.203-4.766l.172.47.594-.391c.344-.22.344-.235.453-.235.125 0 .031-.031.031.11a.792.792 0 01-.031.203l-.75 3.562c-.031.11-.047.375-.047.563 0 .265.36.609.594.609.75 0 2.312-1.375 3.328-3.016l-.297-.093-.453 1.687c-.078.313-.125.61-.125.797 0 .297.312.625.531.625.313 0 .875-.313 2.11-1.234l-.266-.47-.484.329c-.297.188-.454.281-.61.281-.094 0 .016.047.016-.078 0-.14.047-.328.078-.469l1-4.296-.172-.235-1.047.266-.14.703c-.188.906-.422 1.61-.766 2.156C3.219-1.812 2.39-.969 1.906-.969c-.11 0 0 .031 0-.172 0-.187.032-.312.094-.625l.672-3.25c.047-.187.062-.343.062-.5 0-.234-.265-.515-.421-.515-.25 0-.829.281-1.735.922l-.39.296zm0 0"/></svg><svg overflow="visible" x="29.742" y="9.082"><path d="M.125-4.766l.172.47.594-.391c.343-.22.359-.235.453-.235.125 0 .031-.031.031.125 0 .703-.516 3.156-1 4.734l.266.188a5.85 5.85 0 01.984-.219l.328-1.547c.219-.984.453-1.53.969-2.203.406-.531.61-.75.875-.75.187 0 .172.032.344.235h.406c.062-.594.11-.97.219-1.516-.313-.14-.36-.156-.422-.156-.36 0-.86.328-1.297.937-.406.594-.875 1.25-1.172 1.907h.344l.312-1.516c.063-.25.14-.531.14-.813 0-.234-.25-.515-.437-.515-.25 0-.828.297-1.718.922l-.391.296zm0 0"/></svg><svg overflow="visible" x="34.106" y="9.082"><path d="M0-1.469C0-.547.703.125 1.563.125c.687 0 1.468-.36 2.64-1.313L4-1.688l-.5.344c-.625.453-1.078.657-1.5.657-.578 0-.75-.313-.75-1.047 0-.313.031-.61.078-.86l.828-.203c.203-.047.516-.172.828-.297C4-3.547 4.641-4.219 4.641-4.954c0-.562-.563-1.077-1.172-1.077-.781 0-2.219.843-2.688 1.61C.421-3.845 0-2.313 0-1.47zm1.406-1.5l.11-.437c.187-.797.39-1.219.703-1.516.234-.219.5-.344.797-.344.343 0 .39.11.39.5 0 .516-.234.954-.86 1.25a6.042 6.042 0 01-1.093.375zm0 0"/></svg><svg overflow="visible" x="42.066" y="9.082"><path d="M8.266-4.078a1.419 1.419 0 01-.047-.36c0-.109.015-.234.062-.484h-7.5c.063.25.063.375.063.484 0 .125 0 .235-.063.5h7.5zm0 2.625a1.332 1.332 0 01-.047-.36c0-.109.015-.234.062-.484h-7.5c.063.25.063.375.063.485 0 .125 0 .25-.063.5h7.5zm0 0"/></svg><svg overflow="visible" x="54.464" y="9.082"><path d="M4.984-1.14l-.156-.485c-.25.203-.266.219-.328.266-.375.312-.453.39-.625.39-.125 0-.047.031-.047-.156 0-.047 0-.078.016-.125l1.11-4.578-.25-.203-.438.218c-.438-.156-.672-.218-.985-.218-.344 0-.578.062-.906.218-.75.375-1.234.766-1.531 1.36l-.047.094C.28-3.297-.093-1.875-.093-.922c0 .516.327 1.047.546 1.047.25 0 .797-.281 1.234-.656.516-.453.985-1.016 1.641-1.938l-.234-.094-.344 1.516a2.715 2.715 0 00-.078.61c0 .265.25.562.437.562.266 0 .86-.36 1.891-1.219zM3.672-5.079c-.266 1.281-.453 1.797-.844 2.406C2.156-1.656 1.516-.969 1.125-.969c-.14 0-.078-.015-.078-.344 0-.765.297-2.093.719-3.093.296-.688.453-.766 1.03-.766.282 0 .5.047.86.172zm0 0"/></svg><svg overflow="visible" x="62.438" y="9.082"><path d="M2.516-3.125c0-.422-.407-.844-.844-.844-.422 0-.86.422-.86.844 0 .438.438.86.86.86.437 0 .844-.422.844-.86zm0 0"/></svg><svg overflow="visible" x="68.443" y="9.082"><path d="M.25-4.203h.375l.266-.64c.078-.204.156-.204.437-.204.219 0 .438.031.656.031.25 0 .438-.015.375 0C1.281-3.859.734-2.766.734-1.578c0 .922.72 1.703 1.485 1.703.5 0 1.078-.25 1.625-.734.562-.516 1.187-1.407 1.562-2.235.266-.594.469-1.406.469-1.875 0-.687-.484-1.312-.922-1.312-.14 0-.422.093-.516.187l-.671.625.28.469c.282-.188.266-.188.376-.188.328 0 .328.141.328.625 0 1.766-.969 3.579-2.031 3.579-.578 0-.781-.36-.781-1.141 0-1.25.421-2.25 1.64-3.781l-.219-.407c-.312.141-.468.188-.796.188-.5 0-.985-.047-1.47-.094-.155 0-.25.032-.515.14C.406-5.515.234-5 .031-4.202zm0 0"/></svg><svg overflow="visible" x="74.241" y="9.082"><path d="M-.125-.922c0 .516.36 1.047.578 1.047.25 0 .813-.281 1.25-.656.516-.453 1-1.016 1.656-1.938l-.296-.094-.344 1.516a2.715 2.715 0 00-.078.61c0 .265.28.562.468.562.266 0 .891-.36 1.922-1.219l-.187-.562c-.297.234-.297.25-.36.297-.39.312-.437.39-.609.39-.125 0-.016.031-.016-.156 0-.047 0-.078.016-.125l1.11-4.563-.282-.25-.453.25c-.422-.156-.656-.218-.969-.218-.344 0-.578.062-.906.218-.75.375-1.266.766-1.688 1.61-.453.906-.812 2.328-.812 3.281zm1.203-.39c0-.766.313-2.094.734-3.094.282-.688.407-.766.985-.766.281 0 .5.047.828.156-.25 1.22-.438 1.735-.828 2.344C2.14-1.656 1.516-.969 1.125-.969c-.14 0-.047-.015-.047-.344zm0 0"/></svg><svg overflow="visible" x="79.549" y="9.082"><path d="M.25-.484c0 .28.313.593.531.593.313 0 .875-.296 2.11-1.218l-.266-.47-.484.329c-.36.234-.485.313-.594.313-.094 0 0 .03 0-.11s.047-.297.078-.437l1.547-7.313-.297-.265c-.766.39-1.063.453-2.094.546l-.094.5h.782c.281 0 .234-.046.234.141 0 .156-.047.422-.078.578L.485-1.703C.312-1.093.25-.75.25-.484zm0 0"/></svg><svg overflow="visible" x="82.873" y="9.082"><path d="M.203-4.766l.172.47.594-.391c.344-.22.344-.235.453-.235.125 0 .031-.031.031.11a.792.792 0 01-.031.203l-.75 3.562c-.031.11-.047.375-.047.563 0 .265.36.609.594.609.75 0 2.312-1.375 3.328-3.016l-.297-.093-.453 1.687c-.078.313-.125.61-.125.797 0 .297.312.625.531.625.313 0 .875-.313 2.11-1.234l-.266-.47-.484.329c-.297.188-.454.281-.61.281-.094 0 .016.047.016-.078 0-.14.047-.328.078-.469l1-4.296-.172-.235-1.047.266-.14.703c-.188.906-.422 1.61-.766 2.156C3.219-1.812 2.39-.969 1.906-.969c-.11 0 0 .031 0-.172 0-.187.032-.312.094-.625l.672-3.25c.047-.187.062-.343.062-.5 0-.234-.265-.515-.421-.515-.25 0-.829.281-1.735.922l-.39.296zm0 0"/></svg><svg overflow="visible" x="89.52" y="9.082"><path d="M0-1.469C0-.547.703.125 1.563.125c.687 0 1.468-.36 2.64-1.313L4-1.688l-.5.344c-.625.453-1.078.657-1.5.657-.578 0-.75-.313-.75-1.047 0-.313.031-.61.078-.86l.828-.203c.203-.047.516-.172.828-.297C4-3.547 4.641-4.219 4.641-4.954c0-.562-.563-1.077-1.172-1.077-.781 0-2.219.843-2.688 1.61C.421-3.845 0-2.313 0-1.47zm1.406-1.5l.11-.437c.187-.797.39-1.219.703-1.516.234-.219.5-.344.797-.344.343 0 .39.11.39.5 0 .516-.234.954-.86 1.25a6.042 6.042 0 01-1.093.375zm0 0"/></svg><g><svg overflow="visible" x="94.17" y="11.856"><path d="M4.266-.11V-.5l-.657-.031c-.515-.031-.468.015-.468-.453v-5.329l-.282-.093c-.625.297-1.312.562-2.375.906l.11.594h.234l1.25-.516.031-.016c.047 0-.078-.046-.078.172v4.282c0 .468.047.421-.469.453L.86-.5v.531L2.594 0l1.672.031zm0 0"/></svg></g><g><svg overflow="visible" x="102.324" y="9.082"><path d="M8.266-2.766a1.332 1.332 0 01-.047-.359c0-.11.015-.234.062-.484h-3.25v-3.266c-.25.063-.375.078-.484.078-.125 0-.25-.016-.5-.078v3.266H.78c.063.25.063.375.063.484 0 .125 0 .25-.063.5h3.266V.641c.25-.063.375-.079.5-.079.11 0 .234.016.484.079v-3.266h3.25zm0 0"/></svg></g><g><svg overflow="visible" x="114.064" y="9.082"><path d="M5.313-4.625c0-.453-.157-1.016-.297-1.203-.079-.094-.329-.203-.516-.203-.281 0-.75.14-1.078.312-.61.313-1 .672-1.75 1.625L1.906-4l1.047-4.813-.265-.234c-.75.375-1.079.438-2.047.531l-.11.5h.75c.282 0 .266-.046.266.157 0 .093-.016.218-.031.296L.312-.984C.297-.938.297-.891.297-.86c0 .468.719.984 1.375.984.437 0 1.156-.25 1.656-.625 1.156-.813 1.985-2.547 1.985-4.125zm-1.141.281c0 .766-.25 1.797-.61 2.578-.39.829-.734 1.079-1.374 1.079-.547 0-.72-.157-.72-.657 0-.297.048-.625.157-1.078.234-.953.484-1.422.953-1.922.39-.406.922-.718 1.266-.718.312 0 .328.14.328.718zm0 0"/></svg></g><g><svg overflow="visible" x="122.253" y="9.082"><path d="M2.516-3.125c0-.422-.407-.844-.844-.844-.422 0-.86.422-.86.844 0 .438.438.86.86.86.437 0 .844-.422.844-.86zm0 0"/></svg></g><g><svg overflow="visible" x="128.264" y="9.082"><path d="M.25-4.203h.375l.266-.64c.078-.204.156-.204.437-.204.219 0 .438.031.656.031.25 0 .438-.015.375 0C1.281-3.859.734-2.766.734-1.578c0 .922.72 1.703 1.485 1.703.5 0 1.078-.25 1.625-.734.562-.516 1.187-1.407 1.562-2.235.266-.594.469-1.406.469-1.875 0-.687-.484-1.312-.922-1.312-.14 0-.422.093-.516.187l-.671.625.28.469c.282-.188.266-.188.376-.188.328 0 .328.141.328.625 0 1.766-.969 3.579-2.031 3.579-.578 0-.781-.36-.781-1.141 0-1.25.421-2.25 1.64-3.781l-.219-.407c-.312.141-.468.188-.796.188-.5 0-.985-.047-1.47-.094-.155 0-.25.032-.515.14C.406-5.515.234-5 .031-4.202zm0 0"/></svg></g><g><svg overflow="visible" x="134.062" y="9.082"><path d="M-.125-.922c0 .516.36 1.047.578 1.047.25 0 .813-.281 1.25-.656.516-.453 1-1.016 1.656-1.938l-.296-.094-.344 1.516a2.715 2.715 0 00-.078.61c0 .265.28.562.468.562.266 0 .891-.36 1.922-1.219l-.187-.562c-.297.234-.297.25-.36.297-.39.312-.437.39-.609.39-.125 0-.016.031-.016-.156 0-.047 0-.078.016-.125l1.11-4.563-.282-.25-.453.25c-.422-.156-.656-.218-.969-.218-.344 0-.578.062-.906.218-.75.375-1.266.766-1.688 1.61-.453.906-.812 2.328-.812 3.281zm1.203-.39c0-.766.313-2.094.734-3.094.282-.688.407-.766.985-.766.281 0 .5.047.828.156-.25 1.22-.438 1.735-.828 2.344C2.14-1.656 1.516-.969 1.125-.969c-.14 0-.047-.015-.047-.344zm0 0"/></svg><svg overflow="visible" x="139.37" y="9.082"><path d="M.25-.484c0 .28.313.593.531.593.313 0 .875-.296 2.11-1.218l-.266-.47-.484.329c-.36.234-.485.313-.594.313-.094 0 0 .03 0-.11s.047-.297.078-.437l1.547-7.313-.297-.265c-.766.39-1.063.453-2.094.546l-.094.5h.782c.281 0 .234-.046.234.141 0 .156-.047.422-.078.578L.485-1.703C.312-1.093.25-.75.25-.484zm0 0"/></svg><svg overflow="visible" x="142.694" y="9.082"><path d="M.203-4.766l.172.47.594-.391c.344-.22.344-.235.453-.235.125 0 .031-.031.031.11a.792.792 0 01-.031.203l-.75 3.562c-.031.11-.047.375-.047.563 0 .265.36.609.594.609.75 0 2.312-1.375 3.328-3.016l-.297-.093-.453 1.687c-.078.313-.125.61-.125.797 0 .297.312.625.531.625.313 0 .875-.313 2.11-1.234l-.266-.47-.484.329c-.297.188-.454.281-.61.281-.094 0 .016.047.016-.078 0-.14.047-.328.078-.469l1-4.296-.172-.235-1.047.266-.14.703c-.188.906-.422 1.61-.766 2.156C3.219-1.812 2.39-.969 1.906-.969c-.11 0 0 .031 0-.172 0-.187.032-.312.094-.625l.672-3.25c.047-.187.062-.343.062-.5 0-.234-.265-.515-.421-.515-.25 0-.829.281-1.735.922l-.39.296zm0 0"/></svg><svg overflow="visible" x="149.341" y="9.082"><path d="M0-1.469C0-.547.703.125 1.563.125c.687 0 1.468-.36 2.64-1.313L4-1.688l-.5.344c-.625.453-1.078.657-1.5.657-.578 0-.75-.313-.75-1.047 0-.313.031-.61.078-.86l.828-.203c.203-.047.516-.172.828-.297C4-3.547 4.641-4.219 4.641-4.954c0-.562-.563-1.077-1.172-1.077-.781 0-2.219.843-2.688 1.61C.421-3.845 0-2.313 0-1.47zm1.406-1.5l.11-.437c.187-.797.39-1.219.703-1.516.234-.219.5-.344.797-.344.343 0 .39.11.39.5 0 .516-.234.954-.86 1.25a6.042 6.042 0 01-1.093.375zm0 0"/></svg></g><g><svg overflow="visible" x="153.991" y="11.856"><path d="M4.75-.11c-.016-.187-.016-.265-.016-.39s0-.203.032-.547l-3.141.094 1.5-1.469c.938-.906 1.266-1.5 1.266-2.156 0-1.016-.891-1.781-2.125-1.781-.688 0-1.282.218-1.782.687L.297-4.266h.547l.172-.546c.156-.516.359-.594 1-.594.828 0 1.203.343 1.203 1.093 0 .657-.36 1.22-1.453 2.282L.078-.391v.422L2.391 0l2.375.031zm0 0"/></svg></g></svg>