<svg xmlns="http://www.w3.org/2000/svg" xmlns:xlink="http://www.w3.org/1999/xlink" width="533px" height="19px" viewBox="0 0 400 14"><svg overflow="visible" x="-.767" y="10.082"><path d="M4.156 2.719c0-.047-.078-.172-.11-.203-1.234-.922-2-3.22-2-5.141v-1c0-1.906.767-4.203 2-5.14a.457.457 0 00.11-.188c0-.063-.25-.25-.312-.25a1.01 1.01 0 00-.203.062C2.312-8.156 1-5.67 1-3.625v1C1-.578 2.313 1.906 3.64 2.906c.016.016.188.063.204.063.062 0 .312-.203.312-.25zm0 0"/></svg><svg overflow="visible" x="3.884" y="10.082"><path d="M5.656-2.172c0-.984-.953-2.047-2.187-2.297v.266c.984-.328 1.86-1.297 1.86-2.234 0-.985-1.235-1.782-2.391-1.782-1.204 0-2.313.844-2.313 1.75 0 .39.469.75.813.75.375 0 .796-.39.796-.734 0-.594-.75-.734-.656-.734.234-.36.89-.47 1.313-.47.484 0 .953.126.953 1.204 0 .14.031.734-.281 1.266-.36.578-.626.578-.922.578a4.76 4.76 0 01-.47.046c-.093.016-.374.157-.374.266 0 .14.281.266.484.266h.531c.985 0 1.22.687 1.22 1.86 0 1.624-.626 1.843-1.157 1.843-.516 0-1.266-.172-1.531-.61.125.016.687-.375.687-.828 0-.437-.515-.796-.86-.796-.28 0-.874.296-.874.812C.297-.656 1.609.266 2.922.266c1.453 0 2.734-1.22 2.734-2.438zm0 0"/></svg><svg overflow="visible" x="9.861" y="10.082"><path d="M6.484-4.625c0-.625-.89-.922-1.296-.922-.688 0-1.25.672-1.235.61-.125-.36-.969-.61-1.312-.61-1.235 0-2.125 1.672-2.125 1.969 0 .125.468.219.468.219l-.125.03c.094 0 .329-.155.344-.25.406-1.28 1.016-1.437 1.422-1.437.219 0 .438-.03.438.672 0 .36-.204 1.172-.641 2.844-.203.734-.406 1.11-.938 1.11-.078 0-.218.03-.218.03-.079.016.375-.374.375-.703 0-.328-.454-.546-.641-.546-.36 0-.86.437-.86.828 0 .547.797.906 1.329.906.797 0 1.36-.86 1.39-.938l-.343-.093c.156.437.78 1.031 1.5 1.031 1.234 0 2.109-1.672 2.109-1.969 0-.11-.297-.25-.344-.25-.11 0-.328.188-.36.266-.39 1.281-1 1.437-1.374 1.437-.469 0-.469-.25-.469-.656 0-.266.063-.531.203-1.062l.406-1.625c.063-.313.157-1.282.985-1.282a.604.604 0 00.187-.046c.079 0-.359.421-.359.718 0 .188.328.547.656.547.266 0 .828-.344.828-.828zm0 0"/></svg><svg overflow="visible" x="16.7" y="13.035"><path d="M4.516-1.61c0-.656-.75-1.468-1.672-1.656v.313c.89-.313 1.406-1.094 1.406-1.61 0-.656-.969-1.312-1.89-1.312-.938 0-1.86.61-1.86 1.281 0 .282.39.594.64.594.266 0 .641-.344.641-.578 0-.25-.375-.578-.297-.578.094-.11.532-.157.844-.157.375 0 .688.016.688.75 0 .344-.047.625-.266.891-.281.313-.36.281-.781.313-.203.015-.235.015-.266.015l.14.281s-.437-.109-.437-.015c0 .125.282.281.422.281h.453c.656 0 .922.297.922 1.188 0 1.046-.39 1.187-.89 1.187-.329 0-.922-.031-1.094-.266.078-.015.375-.453.375-.625 0-.265-.407-.625-.672-.625-.235 0-.672.297-.672.641C.25-.5 1.328.172 2.344.172 3.5.172 4.516-.766 4.516-1.61zm0 0"/></svg><svg overflow="visible" x="21.959" y="10.082"><path d="M6.047-4.953c0-.219-.36-.469-.531-.469-.125 0-.454.11-.641.406-.016.047-.11.407-.156.625l-.235.954-.546 2.156c-.047.187-.36.89-1.141.89-.61 0-.547-.39-.547-.843 0-.547.203-1.282.61-2.344.187-.485.234-.625.234-.86 0-.53-.578-1.109-1.172-1.109C.782-5.547.14-3.687.14-3.578c0 .125.484.219.484.219l-.14.03c.124 0 .328-.155.39-.343.313-1.125.61-1.344 1.016-1.344.093 0 .093-.14.093.25 0 .297-.125.61-.203.829-.484 1.265-.687 1.953-.687 2.515 0 1.063.953 1.547 1.656 1.547.469 0 1-.234 1.344-.563L3.75-.53c-.156.61-.234 1.11-.719 1.734-.312.406-.61.719-1.172.719-.156 0-.515.094-.656-.234-.062 0 .234-.032.406-.188.11-.094.297-.36.297-.578 0-.375-.515-.547-.64-.547-.282 0-.875.313-.875.906 0 .594.734 1.172 1.468 1.172 1.235 0 2.657-1.219 3-2.578L6-4.688c.047-.171.047-.187.047-.265zm0 0"/></svg><svg overflow="visible" x="27.817" y="13.035"><path d="M4.234-1.844H3.75c-.047.344-.063.735-.172.813-.062.047-.562 0-.687 0H1.812c.563-.5.86-.735 1.36-1.125.625-.5 1.265-1.14 1.265-1.938 0-1-1.093-1.781-2.171-1.781-1.032 0-1.954.89-1.954 1.656 0 .422.579.625.657.625.203 0 .656-.297.656-.61 0-.14-.266-.593-.422-.593.188-.437.547-.469.938-.469.843 0 1.062.5 1.062 1.172 0 .735-.453 1.203-.719 1.5l-2.03 2C.374-.516.311-.39.311 0h3.844l.313-1.844zm0 0"/></svg><svg overflow="visible" x="35.734" y="10.082"><path d="M8.828-3.125c0-.125-.312-.36-.437-.36H5.078v-3.374c0-.141-.297-.375-.422-.375-.14 0-.453.234-.453.375v3.375H.906c-.125 0-.437.234-.437.359 0 .14.312.375.437.375h3.297V.625c0 .125.313.36.453.36.125 0 .422-.235.422-.36V-2.75h3.313c.125 0 .437-.234.437-.375zm0 0"/></svg><svg overflow="visible" x="47.689" y="10.082"><path d="M5.36-2.344h-.47c-.077.485-.109.922-.234 1.094-.078.11-.718.063-.984.063H1.89l1.03-1c1.86-1.657 2.642-2.391 2.642-3.579 0-1.375-1.266-2.453-2.735-2.453C1.484-8.219.391-7 .391-5.922c0 .656.796.797.843.797.204 0 .813-.281.813-.766 0-.312-.406-.75-.828-.75-.094 0-.125 0 .125-.093.187-.547.64-.86 1.328-.86 1.094 0 1.406.844 1.406 1.828 0 .954-.547 1.797-1.203 2.532L.578-.672C.453-.532.391-.422.391 0h4.812l.375-2.344zm0 0"/></svg><svg overflow="visible" x="53.667" y="10.082"><path d="M6.484-4.625c0-.625-.89-.922-1.296-.922-.688 0-1.25.672-1.235.61-.125-.36-.969-.61-1.312-.61-1.235 0-2.125 1.672-2.125 1.969 0 .125.468.219.468.219l-.125.03c.094 0 .329-.155.344-.25.406-1.28 1.016-1.437 1.422-1.437.219 0 .438-.03.438.672 0 .36-.204 1.172-.641 2.844-.203.734-.406 1.11-.938 1.11-.078 0-.218.03-.218.03-.079.016.375-.374.375-.703 0-.328-.454-.546-.641-.546-.36 0-.86.437-.86.828 0 .547.797.906 1.329.906.797 0 1.36-.86 1.39-.938l-.343-.093c.156.437.78 1.031 1.5 1.031 1.234 0 2.109-1.672 2.109-1.969 0-.11-.297-.25-.344-.25-.11 0-.328.188-.36.266-.39 1.281-1 1.437-1.374 1.437-.469 0-.469-.25-.469-.656 0-.266.063-.531.203-1.062l.406-1.625c.063-.313.157-1.282.985-1.282a.604.604 0 00.187-.046c.079 0-.359.421-.359.718 0 .188.328.547.656.547.266 0 .828-.344.828-.828zm0 0"/></svg><svg overflow="visible" x="60.508" y="13.035"><path d="M4.64-1.531V-2h-.937v-3.563c0-.187-.203-.406-.39-.406-.094 0-.282.063-.36.172L.125-1.844v.469h2.453v.531c0 .281.203.219-.469.219h-.437v.64L3.14-.03l1.468.047v-.641h-.437c-.672 0-.469.063-.469-.219v-.531h.938zM2.845-2H.969l2.015-2.781-.343-.125V-2zm0 0"/></svg><svg overflow="visible" x="65.768" y="10.082"><path d="M6.047-4.953c0-.219-.36-.469-.531-.469-.125 0-.454.11-.641.406-.016.047-.11.407-.156.625l-.235.954-.546 2.156c-.047.187-.36.89-1.141.89-.61 0-.547-.39-.547-.843 0-.547.203-1.282.61-2.344.187-.485.234-.625.234-.86 0-.53-.578-1.109-1.172-1.109C.782-5.547.14-3.687.14-3.578c0 .125.484.219.484.219l-.14.03c.124 0 .328-.155.39-.343.313-1.125.61-1.344 1.016-1.344.093 0 .093-.14.093.25 0 .297-.125.61-.203.829-.484 1.265-.687 1.953-.687 2.515 0 1.063.953 1.547 1.656 1.547.469 0 1-.234 1.344-.563L3.75-.53c-.156.61-.234 1.11-.719 1.734-.312.406-.61.719-1.172.719-.156 0-.515.094-.656-.234-.062 0 .234-.032.406-.188.11-.094.297-.36.297-.578 0-.375-.515-.547-.64-.547-.282 0-.875.313-.875.906 0 .594.734 1.172 1.468 1.172 1.235 0 2.657-1.219 3-2.578L6-4.688c.047-.171.047-.187.047-.265zm0 0"/></svg><svg overflow="visible" x="71.626" y="13.035"><path d="M4.234-1.844H3.75c-.047.344-.063.735-.172.813-.062.047-.562 0-.687 0H1.812c.563-.5.86-.735 1.36-1.125.625-.5 1.265-1.14 1.265-1.938 0-1-1.093-1.781-2.171-1.781-1.032 0-1.954.89-1.954 1.656 0 .422.579.625.657.625.203 0 .656-.297.656-.61 0-.14-.266-.593-.422-.593.188-.437.547-.469.938-.469.843 0 1.062.5 1.062 1.172 0 .735-.453 1.203-.719 1.5l-2.03 2C.374-.516.311-.39.311 0h3.844l.313-1.844zm0 0"/></svg><svg overflow="visible" x="79.543" y="10.082"><path d="M8.828-3.125c0-.125-.312-.36-.437-.36H5.078v-3.374c0-.141-.297-.375-.422-.375-.14 0-.453.234-.453.375v3.375H.906c-.125 0-.437.234-.437.359 0 .14.312.375.437.375h3.297V.625c0 .125.313.36.453.36.125 0 .422-.235.422-.36V-2.75h3.313c.125 0 .437-.234.437-.375zm0 0"/></svg><svg overflow="visible" x="91.498" y="10.082"><path d="M5.656-2.172c0-.984-.953-2.047-2.187-2.297v.266c.984-.328 1.86-1.297 1.86-2.234 0-.985-1.235-1.782-2.391-1.782-1.204 0-2.313.844-2.313 1.75 0 .39.469.75.813.75.375 0 .796-.39.796-.734 0-.594-.75-.734-.656-.734.234-.36.89-.47 1.313-.47.484 0 .953.126.953 1.204 0 .14.031.734-.281 1.266-.36.578-.626.578-.922.578a4.76 4.76 0 01-.47.046c-.093.016-.374.157-.374.266 0 .14.281.266.484.266h.531c.985 0 1.22.687 1.22 1.86 0 1.624-.626 1.843-1.157 1.843-.516 0-1.266-.172-1.531-.61.125.016.687-.375.687-.828 0-.437-.515-.796-.86-.796-.28 0-.874.296-.874.812C.297-.656 1.609.266 2.922.266c1.453 0 2.734-1.22 2.734-2.438zm0 0"/></svg><svg overflow="visible" x="97.476" y="10.082"><path d="M6.484-4.625c0-.625-.89-.922-1.296-.922-.688 0-1.25.672-1.235.61-.125-.36-.969-.61-1.312-.61-1.235 0-2.125 1.672-2.125 1.969 0 .125.468.219.468.219l-.125.03c.094 0 .329-.155.344-.25.406-1.28 1.016-1.437 1.422-1.437.219 0 .438-.03.438.672 0 .36-.204 1.172-.641 2.844-.203.734-.406 1.11-.938 1.11-.078 0-.218.03-.218.03-.079.016.375-.374.375-.703 0-.328-.454-.546-.641-.546-.36 0-.86.437-.86.828 0 .547.797.906 1.329.906.797 0 1.36-.86 1.39-.938l-.343-.093c.156.437.78 1.031 1.5 1.031 1.234 0 2.109-1.672 2.109-1.969 0-.11-.297-.25-.344-.25-.11 0-.328.188-.36.266-.39 1.281-1 1.437-1.374 1.437-.469 0-.469-.25-.469-.656 0-.266.063-.531.203-1.062l.406-1.625c.063-.313.157-1.282.985-1.282a.604.604 0 00.187-.046c.079 0-.359.421-.359.718 0 .188.328.547.656.547.266 0 .828-.344.828-.828zm0 0"/></svg><svg overflow="visible" x="104.317" y="13.035"><path d="M4.234-1.844H3.75c-.047.344-.063.735-.172.813-.062.047-.562 0-.687 0H1.812c.563-.5.86-.735 1.36-1.125.625-.5 1.265-1.14 1.265-1.938 0-1-1.093-1.781-2.171-1.781-1.032 0-1.954.89-1.954 1.656 0 .422.579.625.657.625.203 0 .656-.297.656-.61 0-.14-.266-.593-.422-.593.188-.437.547-.469.938-.469.843 0 1.062.5 1.062 1.172 0 .735-.453 1.203-.719 1.5l-2.03 2C.374-.516.311-.39.311 0h3.844l.313-1.844zm0 0"/></svg><svg overflow="visible" x="109.577" y="10.082"><path d="M6.047-4.953c0-.219-.36-.469-.531-.469-.125 0-.454.11-.641.406-.016.047-.11.407-.156.625l-.235.954-.546 2.156c-.047.187-.36.89-1.141.89-.61 0-.547-.39-.547-.843 0-.547.203-1.282.61-2.344.187-.485.234-.625.234-.86 0-.53-.578-1.109-1.172-1.109C.782-5.547.14-3.687.14-3.578c0 .125.484.219.484.219l-.14.03c.124 0 .328-.155.39-.343.313-1.125.61-1.344 1.016-1.344.093 0 .093-.14.093.25 0 .297-.125.61-.203.829-.484 1.265-.687 1.953-.687 2.515 0 1.063.953 1.547 1.656 1.547.469 0 1-.234 1.344-.563L3.75-.53c-.156.61-.234 1.11-.719 1.734-.312.406-.61.719-1.172.719-.156 0-.515.094-.656-.234-.062 0 .234-.032.406-.188.11-.094.297-.36.297-.578 0-.375-.515-.547-.64-.547-.282 0-.875.313-.875.906 0 .594.734 1.172 1.468 1.172 1.235 0 2.657-1.219 3-2.578L6-4.688c.047-.171.047-.187.047-.265zm0 0"/></svg><svg overflow="visible" x="115.435" y="13.035"><path d="M4.516-1.61c0-.656-.75-1.468-1.672-1.656v.313c.89-.313 1.406-1.094 1.406-1.61 0-.656-.969-1.312-1.89-1.312-.938 0-1.86.61-1.86 1.281 0 .282.39.594.64.594.266 0 .641-.344.641-.578 0-.25-.375-.578-.297-.578.094-.11.532-.157.844-.157.375 0 .688.016.688.75 0 .344-.047.625-.266.891-.281.313-.36.281-.781.313-.203.015-.235.015-.266.015l.14.281s-.437-.109-.437-.015c0 .125.282.281.422.281h.453c.656 0 .922.297.922 1.188 0 1.046-.39 1.187-.89 1.187-.329 0-.922-.031-1.094-.266.078-.015.375-.453.375-.625 0-.265-.407-.625-.672-.625-.235 0-.672.297-.672.641C.25-.5 1.328.172 2.344.172 3.5.172 4.516-.766 4.516-1.61zm0 0"/></svg><svg overflow="visible" x="123.352" y="10.082"><path d="M8.828-3.125c0-.125-.312-.36-.437-.36H.906c-.125 0-.437.235-.437.36 0 .14.312.375.437.375h7.485c.125 0 .437-.234.437-.375zm0 0"/></svg><svg overflow="visible" x="135.307" y="10.082"><path d="M6.484-4.625c0-.625-.89-.922-1.296-.922-.688 0-1.25.672-1.235.61-.125-.36-.969-.61-1.312-.61-1.235 0-2.125 1.672-2.125 1.969 0 .125.468.219.468.219l-.125.03c.094 0 .329-.155.344-.25.406-1.28 1.016-1.437 1.422-1.437.219 0 .438-.03.438.672 0 .36-.204 1.172-.641 2.844-.203.734-.406 1.11-.938 1.11-.078 0-.218.03-.218.03-.079.016.375-.374.375-.703 0-.328-.454-.546-.641-.546-.36 0-.86.437-.86.828 0 .547.797.906 1.329.906.797 0 1.36-.86 1.39-.938l-.343-.093c.156.437.78 1.031 1.5 1.031 1.234 0 2.109-1.672 2.109-1.969 0-.11-.297-.25-.344-.25-.11 0-.328.188-.36.266-.39 1.281-1 1.437-1.374 1.437-.469 0-.469-.25-.469-.656 0-.266.063-.531.203-1.062l.406-1.625c.063-.313.157-1.282.985-1.282a.604.604 0 00.187-.046c.079 0-.359.421-.359.718 0 .188.328.547.656.547.266 0 .828-.344.828-.828zm0 0"/></svg><svg overflow="visible" x="142.148" y="13.035"><path d="M4.64-1.531V-2h-.937v-3.563c0-.187-.203-.406-.39-.406-.094 0-.282.063-.36.172L.125-1.844v.469h2.453v.531c0 .281.203.219-.469.219h-.437v.64L3.14-.03l1.468.047v-.641h-.437c-.672 0-.469.063-.469-.219v-.531h.938zM2.845-2H.969l2.015-2.781-.343-.125V-2zm0 0"/></svg><svg overflow="visible" x="147.408" y="10.082"><path d="M6.047-4.953c0-.219-.36-.469-.531-.469-.125 0-.454.11-.641.406-.016.047-.11.407-.156.625l-.235.954-.546 2.156c-.047.187-.36.89-1.141.89-.61 0-.547-.39-.547-.843 0-.547.203-1.282.61-2.344.187-.485.234-.625.234-.86 0-.53-.578-1.109-1.172-1.109C.782-5.547.14-3.687.14-3.578c0 .125.484.219.484.219l-.14.03c.124 0 .328-.155.39-.343.313-1.125.61-1.344 1.016-1.344.093 0 .093-.14.093.25 0 .297-.125.61-.203.829-.484 1.265-.687 1.953-.687 2.515 0 1.063.953 1.547 1.656 1.547.469 0 1-.234 1.344-.563L3.75-.53c-.156.61-.234 1.11-.719 1.734-.312.406-.61.719-1.172.719-.156 0-.515.094-.656-.234-.062 0 .234-.032.406-.188.11-.094.297-.36.297-.578 0-.375-.515-.547-.64-.547-.282 0-.875.313-.875.906 0 .594.734 1.172 1.468 1.172 1.235 0 2.657-1.219 3-2.578L6-4.688c.047-.171.047-.187.047-.265zm0 0"/></svg><svg overflow="visible" x="153.266" y="13.035"><path d="M4.516-1.61c0-.656-.75-1.468-1.672-1.656v.313c.89-.313 1.406-1.094 1.406-1.61 0-.656-.969-1.312-1.89-1.312-.938 0-1.86.61-1.86 1.281 0 .282.39.594.64.594.266 0 .641-.344.641-.578 0-.25-.375-.578-.297-.578.094-.11.532-.157.844-.157.375 0 .688.016.688.75 0 .344-.047.625-.266.891-.281.313-.36.281-.781.313-.203.015-.235.015-.266.015l.14.281s-.437-.109-.437-.015c0 .125.282.281.422.281h.453c.656 0 .922.297.922 1.188 0 1.046-.39 1.187-.89 1.187-.329 0-.922-.031-1.094-.266.078-.015.375-.453.375-.625 0-.265-.407-.625-.672-.625-.235 0-.672.297-.672.641C.25-.5 1.328.172 2.344.172 3.5.172 4.516-.766 4.516-1.61zm0 0"/></svg><svg overflow="visible" x="158.526" y="10.082"><path d="M3.64-2.625v-1c0-2.047-1.328-4.531-2.64-5.516a.774.774 0 00-.203-.062c-.063 0-.313.187-.313.25 0 .031.079.172.094.187 1.25.938 2.016 3.235 2.016 5.141v1c0 1.922-.766 4.219-2.016 5.14-.015.032-.094.157-.094.204 0 .047.25.25.313.25A.774.774 0 001 2.906c1.313-1 2.64-3.484 2.64-5.531zm0 0"/></svg><svg overflow="visible" x="165.161" y="10.082"><path d="M4.14-5.156c0-.125-.312-.266-.53-.266H2.78c.39-1.562.453-1.797.453-1.875 0-.203-.328-.453-.53-.453-.032 0-.579.14-.688.563l-.422 1.765H.64c-.25 0-.563.14-.563.36 0 .156.297.28.531.28h.813C.594-1.515.547-1.311.547-1.093c0 .64.656 1.219 1.312 1.219 1.22 0 2.079-1.875 2.079-1.969 0-.11-.282-.25-.329-.25-.109 0-.328.172-.375.297C2.72-.547 2.281-.39 1.875-.39c-.25 0-.172-.03-.172-.421 0-.282.016-.375.063-.579l.859-3.39h.953c.25 0 .563-.125.563-.375zm0 0"/></svg><svg overflow="visible" x="169.485" y="5.742"><path d="M4.234-1.844H3.75c-.047.344-.063.735-.172.813-.062.047-.562 0-.687 0H1.812c.563-.5.86-.735 1.36-1.125.625-.5 1.265-1.14 1.265-1.938 0-1-1.093-1.781-2.171-1.781-1.032 0-1.954.89-1.954 1.656 0 .422.579.625.657.625.203 0 .656-.297.656-.61 0-.14-.266-.593-.422-.593.188-.437.547-.469.938-.469.843 0 1.062.5 1.062 1.172 0 .735-.453 1.203-.719 1.5l-2.03 2C.374-.516.311-.39.311 0h3.844l.313-1.844zm0 0"/></svg><svg overflow="visible" x="177.402" y="10.082"><path d="M8.828-3.125c0-.125-.312-.36-.437-.36H5.078v-3.374c0-.141-.297-.375-.422-.375-.14 0-.453.234-.453.375v3.375H.906c-.125 0-.437.234-.437.359 0 .14.312.375.437.375h3.297V.625c0 .125.313.36.453.36.125 0 .422-.235.422-.36V-2.75h3.313c.125 0 .437-.234.437-.375zm0 0"/></svg><svg overflow="visible" x="189.357" y="10.082"><path d="M4.156 2.719c0-.047-.078-.172-.11-.203-1.234-.922-2-3.22-2-5.141v-1c0-1.906.767-4.203 2-5.14a.457.457 0 00.11-.188c0-.063-.25-.25-.312-.25a1.01 1.01 0 00-.203.062C2.312-8.156 1-5.67 1-3.625v1C1-.578 2.313 1.906 3.64 2.906c.016.016.188.063.204.063.062 0 .312-.203.312-.25zm0 0"/></svg><svg overflow="visible" x="194.008" y="10.082"><path d="M5.656-2.172c0-.984-.953-2.047-2.187-2.297v.266c.984-.328 1.86-1.297 1.86-2.234 0-.985-1.235-1.782-2.391-1.782-1.204 0-2.313.844-2.313 1.75 0 .39.469.75.813.75.375 0 .796-.39.796-.734 0-.594-.75-.734-.656-.734.234-.36.89-.47 1.313-.47.484 0 .953.126.953 1.204 0 .14.031.734-.281 1.266-.36.578-.626.578-.922.578a4.76 4.76 0 01-.47.046c-.093.016-.374.157-.374.266 0 .14.281.266.484.266h.531c.985 0 1.22.687 1.22 1.86 0 1.624-.626 1.843-1.157 1.843-.516 0-1.266-.172-1.531-.61.125.016.687-.375.687-.828 0-.437-.515-.796-.86-.796-.28 0-.874.296-.874.812C.297-.656 1.609.266 2.922.266c1.453 0 2.734-1.22 2.734-2.438zm0 0"/></svg><svg overflow="visible" x="199.985" y="10.082"><path d="M6.484-4.625c0-.625-.89-.922-1.296-.922-.688 0-1.25.672-1.235.61-.125-.36-.969-.61-1.312-.61-1.235 0-2.125 1.672-2.125 1.969 0 .125.468.219.468.219l-.125.03c.094 0 .329-.155.344-.25.406-1.28 1.016-1.437 1.422-1.437.219 0 .438-.03.438.672 0 .36-.204 1.172-.641 2.844-.203.734-.406 1.11-.938 1.11-.078 0-.218.03-.218.03-.079.016.375-.374.375-.703 0-.328-.454-.546-.641-.546-.36 0-.86.437-.86.828 0 .547.797.906 1.329.906.797 0 1.36-.86 1.39-.938l-.343-.093c.156.437.78 1.031 1.5 1.031 1.234 0 2.109-1.672 2.109-1.969 0-.11-.297-.25-.344-.25-.11 0-.328.188-.36.266-.39 1.281-1 1.437-1.374 1.437-.469 0-.469-.25-.469-.656 0-.266.063-.531.203-1.062l.406-1.625c.063-.313.157-1.282.985-1.282a.604.604 0 00.187-.046c.079 0-.359.421-.359.718 0 .188.328.547.656.547.266 0 .828-.344.828-.828zm0 0"/></svg><svg overflow="visible" x="206.827" y="13.035"><path d="M4.516-1.61c0-.656-.75-1.468-1.672-1.656v.313c.89-.313 1.406-1.094 1.406-1.61 0-.656-.969-1.312-1.89-1.312-.938 0-1.86.61-1.86 1.281 0 .282.39.594.64.594.266 0 .641-.344.641-.578 0-.25-.375-.578-.297-.578.094-.11.532-.157.844-.157.375 0 .688.016.688.75 0 .344-.047.625-.266.891-.281.313-.36.281-.781.313-.203.015-.235.015-.266.015l.14.281s-.437-.109-.437-.015c0 .125.282.281.422.281h.453c.656 0 .922.297.922 1.188 0 1.046-.39 1.187-.89 1.187-.329 0-.922-.031-1.094-.266.078-.015.375-.453.375-.625 0-.265-.407-.625-.672-.625-.235 0-.672.297-.672.641C.25-.5 1.328.172 2.344.172 3.5.172 4.516-.766 4.516-1.61zm0 0"/></svg><svg overflow="visible" x="212.086" y="10.082"><path d="M6.047-4.953c0-.219-.36-.469-.531-.469-.125 0-.454.11-.641.406-.016.047-.11.407-.156.625l-.235.954-.546 2.156c-.047.187-.36.89-1.141.89-.61 0-.547-.39-.547-.843 0-.547.203-1.282.61-2.344.187-.485.234-.625.234-.86 0-.53-.578-1.109-1.172-1.109C.782-5.547.14-3.687.14-3.578c0 .125.484.219.484.219l-.14.03c.124 0 .328-.155.39-.343.313-1.125.61-1.344 1.016-1.344.093 0 .093-.14.093.25 0 .297-.125.61-.203.829-.484 1.265-.687 1.953-.687 2.515 0 1.063.953 1.547 1.656 1.547.469 0 1-.234 1.344-.563L3.75-.53c-.156.61-.234 1.11-.719 1.734-.312.406-.61.719-1.172.719-.156 0-.515.094-.656-.234-.062 0 .234-.032.406-.188.11-.094.297-.36.297-.578 0-.375-.515-.547-.64-.547-.282 0-.875.313-.875.906 0 .594.734 1.172 1.468 1.172 1.235 0 2.657-1.219 3-2.578L6-4.688c.047-.171.047-.187.047-.265zm0 0"/></svg><svg overflow="visible" x="217.945" y="13.035"><path d="M4.234-1.844H3.75c-.047.344-.063.735-.172.813-.062.047-.562 0-.687 0H1.812c.563-.5.86-.735 1.36-1.125.625-.5 1.265-1.14 1.265-1.938 0-1-1.093-1.781-2.171-1.781-1.032 0-1.954.89-1.954 1.656 0 .422.579.625.657.625.203 0 .656-.297.656-.61 0-.14-.266-.593-.422-.593.188-.437.547-.469.938-.469.843 0 1.062.5 1.062 1.172 0 .735-.453 1.203-.719 1.5l-2.03 2C.374-.516.311-.39.311 0h3.844l.313-1.844zm0 0"/></svg><svg overflow="visible" x="225.861" y="10.082"><path d="M8.828-3.125c0-.125-.312-.36-.437-.36H.906c-.125 0-.437.235-.437.36 0 .14.312.375.437.375h7.485c.125 0 .437-.234.437-.375zm0 0"/></svg><svg overflow="visible" x="237.816" y="10.082"><path d="M6.484-4.625c0-.625-.89-.922-1.296-.922-.688 0-1.25.672-1.235.61-.125-.36-.969-.61-1.312-.61-1.235 0-2.125 1.672-2.125 1.969 0 .125.468.219.468.219l-.125.03c.094 0 .329-.155.344-.25.406-1.28 1.016-1.437 1.422-1.437.219 0 .438-.03.438.672 0 .36-.204 1.172-.641 2.844-.203.734-.406 1.11-.938 1.11-.078 0-.218.03-.218.03-.079.016.375-.374.375-.703 0-.328-.454-.546-.641-.546-.36 0-.86.437-.86.828 0 .547.797.906 1.329.906.797 0 1.36-.86 1.39-.938l-.343-.093c.156.437.78 1.031 1.5 1.031 1.234 0 2.109-1.672 2.109-1.969 0-.11-.297-.25-.344-.25-.11 0-.328.188-.36.266-.39 1.281-1 1.437-1.374 1.437-.469 0-.469-.25-.469-.656 0-.266.063-.531.203-1.062l.406-1.625c.063-.313.157-1.282.985-1.282a.604.604 0 00.187-.046c.079 0-.359.421-.359.718 0 .188.328.547.656.547.266 0 .828-.344.828-.828zm0 0"/></svg><svg overflow="visible" x="244.658" y="13.035"><path d="M4.64-1.531V-2h-.937v-3.563c0-.187-.203-.406-.39-.406-.094 0-.282.063-.36.172L.125-1.844v.469h2.453v.531c0 .281.203.219-.469.219h-.437v.64L3.14-.03l1.468.047v-.641h-.437c-.672 0-.469.063-.469-.219v-.531h.938zM2.845-2H.969l2.015-2.781-.343-.125V-2zm0 0"/></svg><svg overflow="visible" x="249.918" y="10.082"><path d="M6.047-4.953c0-.219-.36-.469-.531-.469-.125 0-.454.11-.641.406-.016.047-.11.407-.156.625l-.235.954-.546 2.156c-.047.187-.36.89-1.141.89-.61 0-.547-.39-.547-.843 0-.547.203-1.282.61-2.344.187-.485.234-.625.234-.86 0-.53-.578-1.109-1.172-1.109C.782-5.547.14-3.687.14-3.578c0 .125.484.219.484.219l-.14.03c.124 0 .328-.155.39-.343.313-1.125.61-1.344 1.016-1.344.093 0 .093-.14.093.25 0 .297-.125.61-.203.829-.484 1.265-.687 1.953-.687 2.515 0 1.063.953 1.547 1.656 1.547.469 0 1-.234 1.344-.563L3.75-.53c-.156.61-.234 1.11-.719 1.734-.312.406-.61.719-1.172.719-.156 0-.515.094-.656-.234-.062 0 .234-.032.406-.188.11-.094.297-.36.297-.578 0-.375-.515-.547-.64-.547-.282 0-.875.313-.875.906 0 .594.734 1.172 1.468 1.172 1.235 0 2.657-1.219 3-2.578L6-4.688c.047-.171.047-.187.047-.265zm0 0"/></svg><svg overflow="visible" x="255.776" y="13.035"><path d="M4.234-1.844H3.75c-.047.344-.063.735-.172.813-.062.047-.562 0-.687 0H1.812c.563-.5.86-.735 1.36-1.125.625-.5 1.265-1.14 1.265-1.938 0-1-1.093-1.781-2.171-1.781-1.032 0-1.954.89-1.954 1.656 0 .422.579.625.657.625.203 0 .656-.297.656-.61 0-.14-.266-.593-.422-.593.188-.437.547-.469.938-.469.843 0 1.062.5 1.062 1.172 0 .735-.453 1.203-.719 1.5l-2.03 2C.374-.516.311-.39.311 0h3.844l.313-1.844zm0 0"/></svg><svg overflow="visible" x="263.693" y="10.082"><path d="M8.828-3.125c0-.125-.312-.36-.437-.36H.906c-.125 0-.437.235-.437.36 0 .14.312.375.437.375h7.485c.125 0 .437-.234.437-.375zm0 0"/></svg><svg overflow="visible" x="275.648" y="10.082"><path d="M5.656-2.172c0-.984-.953-2.047-2.187-2.297v.266c.984-.328 1.86-1.297 1.86-2.234 0-.985-1.235-1.782-2.391-1.782-1.204 0-2.313.844-2.313 1.75 0 .39.469.75.813.75.375 0 .796-.39.796-.734 0-.594-.75-.734-.656-.734.234-.36.89-.47 1.313-.47.484 0 .953.126.953 1.204 0 .14.031.734-.281 1.266-.36.578-.626.578-.922.578a4.76 4.76 0 01-.47.046c-.093.016-.374.157-.374.266 0 .14.281.266.484.266h.531c.985 0 1.22.687 1.22 1.86 0 1.624-.626 1.843-1.157 1.843-.516 0-1.266-.172-1.531-.61.125.016.687-.375.687-.828 0-.437-.515-.796-.86-.796-.28 0-.874.296-.874.812C.297-.656 1.609.266 2.922.266c1.453 0 2.734-1.22 2.734-2.438zm0 0"/></svg><svg overflow="visible" x="281.626" y="10.082"><path d="M6.484-4.625c0-.625-.89-.922-1.296-.922-.688 0-1.25.672-1.235.61-.125-.36-.969-.61-1.312-.61-1.235 0-2.125 1.672-2.125 1.969 0 .125.468.219.468.219l-.125.03c.094 0 .329-.155.344-.25.406-1.28 1.016-1.437 1.422-1.437.219 0 .438-.03.438.672 0 .36-.204 1.172-.641 2.844-.203.734-.406 1.11-.938 1.11-.078 0-.218.03-.218.03-.079.016.375-.374.375-.703 0-.328-.454-.546-.641-.546-.36 0-.86.437-.86.828 0 .547.797.906 1.329.906.797 0 1.36-.86 1.39-.938l-.343-.093c.156.437.78 1.031 1.5 1.031 1.234 0 2.109-1.672 2.109-1.969 0-.11-.297-.25-.344-.25-.11 0-.328.188-.36.266-.39 1.281-1 1.437-1.374 1.437-.469 0-.469-.25-.469-.656 0-.266.063-.531.203-1.062l.406-1.625c.063-.313.157-1.282.985-1.282a.604.604 0 00.187-.046c.079 0-.359.421-.359.718 0 .188.328.547.656.547.266 0 .828-.344.828-.828zm0 0"/></svg><svg overflow="visible" x="288.467" y="13.035"><path d="M4.234-1.844H3.75c-.047.344-.063.735-.172.813-.062.047-.562 0-.687 0H1.812c.563-.5.86-.735 1.36-1.125.625-.5 1.265-1.14 1.265-1.938 0-1-1.093-1.781-2.171-1.781-1.032 0-1.954.89-1.954 1.656 0 .422.579.625.657.625.203 0 .656-.297.656-.61 0-.14-.266-.593-.422-.593.188-.437.547-.469.938-.469.843 0 1.062.5 1.062 1.172 0 .735-.453 1.203-.719 1.5l-2.03 2C.374-.516.311-.39.311 0h3.844l.313-1.844zm0 0"/></svg><svg overflow="visible" x="293.726" y="10.082"><path d="M6.047-4.953c0-.219-.36-.469-.531-.469-.125 0-.454.11-.641.406-.016.047-.11.407-.156.625l-.235.954-.546 2.156c-.047.187-.36.89-1.141.89-.61 0-.547-.39-.547-.843 0-.547.203-1.282.61-2.344.187-.485.234-.625.234-.86 0-.53-.578-1.109-1.172-1.109C.782-5.547.14-3.687.14-3.578c0 .125.484.219.484.219l-.14.03c.124 0 .328-.155.39-.343.313-1.125.61-1.344 1.016-1.344.093 0 .093-.14.093.25 0 .297-.125.61-.203.829-.484 1.265-.687 1.953-.687 2.515 0 1.063.953 1.547 1.656 1.547.469 0 1-.234 1.344-.563L3.75-.53c-.156.61-.234 1.11-.719 1.734-.312.406-.61.719-1.172.719-.156 0-.515.094-.656-.234-.062 0 .234-.032.406-.188.11-.094.297-.36.297-.578 0-.375-.515-.547-.64-.547-.282 0-.875.313-.875.906 0 .594.734 1.172 1.468 1.172 1.235 0 2.657-1.219 3-2.578L6-4.688c.047-.171.047-.187.047-.265zm0 0"/></svg><svg overflow="visible" x="299.585" y="13.035"><path d="M4.516-1.61c0-.656-.75-1.468-1.672-1.656v.313c.89-.313 1.406-1.094 1.406-1.61 0-.656-.969-1.312-1.89-1.312-.938 0-1.86.61-1.86 1.281 0 .282.39.594.64.594.266 0 .641-.344.641-.578 0-.25-.375-.578-.297-.578.094-.11.532-.157.844-.157.375 0 .688.016.688.75 0 .344-.047.625-.266.891-.281.313-.36.281-.781.313-.203.015-.235.015-.266.015l.14.281s-.437-.109-.437-.015c0 .125.282.281.422.281h.453c.656 0 .922.297.922 1.188 0 1.046-.39 1.187-.89 1.187-.329 0-.922-.031-1.094-.266.078-.015.375-.453.375-.625 0-.265-.407-.625-.672-.625-.235 0-.672.297-.672.641C.25-.5 1.328.172 2.344.172 3.5.172 4.516-.766 4.516-1.61zm0 0"/></svg><svg overflow="visible" x="304.844" y="10.082"><path d="M3.64-2.625v-1c0-2.047-1.328-4.531-2.64-5.516a.774.774 0 00-.203-.062c-.063 0-.313.187-.313.25 0 .031.079.172.094.187 1.25.938 2.016 3.235 2.016 5.141v1c0 1.922-.766 4.219-2.016 5.14-.015.032-.094.157-.094.204 0 .047.25.25.313.25A.774.774 0 001 2.906c1.313-1 2.64-3.484 2.64-5.531zm0 0"/></svg><svg overflow="visible" x="311.479" y="10.082"><path d="M4.14-5.156c0-.125-.312-.266-.53-.266H2.78c.39-1.562.453-1.797.453-1.875 0-.203-.328-.453-.53-.453-.032 0-.579.14-.688.563l-.422 1.765H.64c-.25 0-.563.14-.563.36 0 .156.297.28.531.28h.813C.594-1.515.547-1.311.547-1.093c0 .64.656 1.219 1.312 1.219 1.22 0 2.079-1.875 2.079-1.969 0-.11-.282-.25-.329-.25-.109 0-.328.172-.375.297C2.72-.547 2.281-.39 1.875-.39c-.25 0-.172-.03-.172-.421 0-.282.016-.375.063-.579l.859-3.39h.953c.25 0 .563-.125.563-.375zm0 0"/></svg><svg overflow="visible" x="318.449" y="10.082"><path d="M8.828-3.125c0-.125-.312-.36-.437-.36H5.078v-3.374c0-.141-.297-.375-.422-.375-.14 0-.453.234-.453.375v3.375H.906c-.125 0-.437.234-.437.359 0 .14.312.375.437.375h3.297V.625c0 .125.313.36.453.36.125 0 .422-.235.422-.36V-2.75h3.313c.125 0 .437-.234.437-.375zm0 0"/></svg><svg overflow="visible" x="330.416" y="10.082"><path d="M4.156 2.719c0-.047-.078-.172-.11-.203-1.234-.922-2-3.22-2-5.141v-1c0-1.906.767-4.203 2-5.14a.457.457 0 00.11-.188c0-.063-.25-.25-.312-.25a1.01 1.01 0 00-.203.062C2.312-8.156 1-5.67 1-3.625v1C1-.578 2.313 1.906 3.64 2.906c.016.016.188.063.204.063.062 0 .312-.203.312-.25zm0 0"/></svg><svg overflow="visible" x="335.067" y="10.082"><path d="M6.484-4.625c0-.625-.89-.922-1.296-.922-.688 0-1.25.672-1.235.61-.125-.36-.969-.61-1.312-.61-1.235 0-2.125 1.672-2.125 1.969 0 .125.468.219.468.219l-.125.03c.094 0 .329-.155.344-.25.406-1.28 1.016-1.437 1.422-1.437.219 0 .438-.03.438.672 0 .36-.204 1.172-.641 2.844-.203.734-.406 1.11-.938 1.11-.078 0-.218.03-.218.03-.079.016.375-.374.375-.703 0-.328-.454-.546-.641-.546-.36 0-.86.437-.86.828 0 .547.797.906 1.329.906.797 0 1.36-.86 1.39-.938l-.343-.093c.156.437.78 1.031 1.5 1.031 1.234 0 2.109-1.672 2.109-1.969 0-.11-.297-.25-.344-.25-.11 0-.328.188-.36.266-.39 1.281-1 1.437-1.374 1.437-.469 0-.469-.25-.469-.656 0-.266.063-.531.203-1.062l.406-1.625c.063-.313.157-1.282.985-1.282a.604.604 0 00.187-.046c.079 0-.359.421-.359.718 0 .188.328.547.656.547.266 0 .828-.344.828-.828zm0 0"/></svg><svg overflow="visible" x="341.907" y="13.035"><path d="M4.234-1.844H3.75c-.047.344-.063.735-.172.813-.062.047-.562 0-.687 0H1.812c.563-.5.86-.735 1.36-1.125.625-.5 1.265-1.14 1.265-1.938 0-1-1.093-1.781-2.171-1.781-1.032 0-1.954.89-1.954 1.656 0 .422.579.625.657.625.203 0 .656-.297.656-.61 0-.14-.266-.593-.422-.593.188-.437.547-.469.938-.469.843 0 1.062.5 1.062 1.172 0 .735-.453 1.203-.719 1.5l-2.03 2C.374-.516.311-.39.311 0h3.844l.313-1.844zm0 0"/></svg><g><svg overflow="visible" x="347.167" y="10.082"><path d="M6.047-4.953c0-.219-.36-.469-.531-.469-.125 0-.454.11-.641.406-.016.047-.11.407-.156.625l-.235.954-.546 2.156c-.047.187-.36.89-1.141.89-.61 0-.547-.39-.547-.843 0-.547.203-1.282.61-2.344.187-.485.234-.625.234-.86 0-.53-.578-1.109-1.172-1.109C.782-5.547.14-3.687.14-3.578c0 .125.484.219.484.219l-.14.03c.124 0 .328-.155.39-.343.313-1.125.61-1.344 1.016-1.344.093 0 .093-.14.093.25 0 .297-.125.61-.203.829-.484 1.265-.687 1.953-.687 2.515 0 1.063.953 1.547 1.656 1.547.469 0 1-.234 1.344-.563L3.75-.53c-.156.61-.234 1.11-.719 1.734-.312.406-.61.719-1.172.719-.156 0-.515.094-.656-.234-.062 0 .234-.032.406-.188.11-.094.297-.36.297-.578 0-.375-.515-.547-.64-.547-.282 0-.875.313-.875.906 0 .594.734 1.172 1.468 1.172 1.235 0 2.657-1.219 3-2.578L6-4.688c.047-.171.047-.187.047-.265zm0 0"/></svg></g><g><svg overflow="visible" x="353.025" y="13.035"><path d="M4.516-1.61c0-.656-.75-1.468-1.672-1.656v.313c.89-.313 1.406-1.094 1.406-1.61 0-.656-.969-1.312-1.89-1.312-.938 0-1.86.61-1.86 1.281 0 .282.39.594.64.594.266 0 .641-.344.641-.578 0-.25-.375-.578-.297-.578.094-.11.532-.157.844-.157.375 0 .688.016.688.75 0 .344-.047.625-.266.891-.281.313-.36.281-.781.313-.203.015-.235.015-.266.015l.14.281s-.437-.109-.437-.015c0 .125.282.281.422.281h.453c.656 0 .922.297.922 1.188 0 1.046-.39 1.187-.89 1.187-.329 0-.922-.031-1.094-.266.078-.015.375-.453.375-.625 0-.265-.407-.625-.672-.625-.235 0-.672.297-.672.641C.25-.5 1.328.172 2.344.172 3.5.172 4.516-.766 4.516-1.61zm0 0"/></svg></g><g><svg overflow="visible" x="360.942" y="10.082"><path d="M8.828-3.125c0-.125-.312-.36-.437-.36H.906c-.125 0-.437.235-.437.36 0 .14.312.375.437.375h7.485c.125 0 .437-.234.437-.375zm0 0"/></svg></g><g><svg overflow="visible" x="372.897" y="10.082"><path d="M6.484-4.625c0-.625-.89-.922-1.296-.922-.688 0-1.25.672-1.235.61-.125-.36-.969-.61-1.312-.61-1.235 0-2.125 1.672-2.125 1.969 0 .125.468.219.468.219l-.125.03c.094 0 .329-.155.344-.25.406-1.28 1.016-1.437 1.422-1.437.219 0 .438-.03.438.672 0 .36-.204 1.172-.641 2.844-.203.734-.406 1.11-.938 1.11-.078 0-.218.03-.218.03-.079.016.375-.374.375-.703 0-.328-.454-.546-.641-.546-.36 0-.86.437-.86.828 0 .547.797.906 1.329.906.797 0 1.36-.86 1.39-.938l-.343-.093c.156.437.78 1.031 1.5 1.031 1.234 0 2.109-1.672 2.109-1.969 0-.11-.297-.25-.344-.25-.11 0-.328.188-.36.266-.39 1.281-1 1.437-1.374 1.437-.469 0-.469-.25-.469-.656 0-.266.063-.531.203-1.062l.406-1.625c.063-.313.157-1.282.985-1.282a.604.604 0 00.187-.046c.079 0-.359.421-.359.718 0 .188.328.547.656.547.266 0 .828-.344.828-.828zm0 0"/></svg></g><g><svg overflow="visible" x="379.739" y="13.035"><path d="M4.516-1.61c0-.656-.75-1.468-1.672-1.656v.313c.89-.313 1.406-1.094 1.406-1.61 0-.656-.969-1.312-1.89-1.312-.938 0-1.86.61-1.86 1.281 0 .282.39.594.64.594.266 0 .641-.344.641-.578 0-.25-.375-.578-.297-.578.094-.11.532-.157.844-.157.375 0 .688.016.688.75 0 .344-.047.625-.266.891-.281.313-.36.281-.781.313-.203.015-.235.015-.266.015l.14.281s-.437-.109-.437-.015c0 .125.282.281.422.281h.453c.656 0 .922.297.922 1.188 0 1.046-.39 1.187-.89 1.187-.329 0-.922-.031-1.094-.266.078-.015.375-.453.375-.625 0-.265-.407-.625-.672-.625-.235 0-.672.297-.672.641C.25-.5 1.328.172 2.344.172 3.5.172 4.516-.766 4.516-1.61zm0 0"/></svg></g><g><svg overflow="visible" x="384.999" y="10.082"><path d="M6.047-4.953c0-.219-.36-.469-.531-.469-.125 0-.454.11-.641.406-.016.047-.11.407-.156.625l-.235.954-.546 2.156c-.047.187-.36.89-1.141.89-.61 0-.547-.39-.547-.843 0-.547.203-1.282.61-2.344.187-.485.234-.625.234-.86 0-.53-.578-1.109-1.172-1.109C.782-5.547.14-3.687.14-3.578c0 .125.484.219.484.219l-.14.03c.124 0 .328-.155.39-.343.313-1.125.61-1.344 1.016-1.344.093 0 .093-.14.093.25 0 .297-.125.61-.203.829-.484 1.265-.687 1.953-.687 2.515 0 1.063.953 1.547 1.656 1.547.469 0 1-.234 1.344-.563L3.75-.53c-.156.61-.234 1.11-.719 1.734-.312.406-.61.719-1.172.719-.156 0-.515.094-.656-.234-.062 0 .234-.032.406-.188.11-.094.297-.36.297-.578 0-.375-.515-.547-.64-.547-.282 0-.875.313-.875.906 0 .594.734 1.172 1.468 1.172 1.235 0 2.657-1.219 3-2.578L6-4.688c.047-.171.047-.187.047-.265zm0 0"/></svg></g><g><svg overflow="visible" x="390.857" y="13.035"><path d="M4.234-1.844H3.75c-.047.344-.063.735-.172.813-.062.047-.562 0-.687 0H1.812c.563-.5.86-.735 1.36-1.125.625-.5 1.265-1.14 1.265-1.938 0-1-1.093-1.781-2.171-1.781-1.032 0-1.954.89-1.954 1.656 0 .422.579.625.657.625.203 0 .656-.297.656-.61 0-.14-.266-.593-.422-.593.188-.437.547-.469.938-.469.843 0 1.062.5 1.062 1.172 0 .735-.453 1.203-.719 1.5l-2.03 2C.374-.516.311-.39.311 0h3.844l.313-1.844zm0 0"/></svg></g><g><svg overflow="visible" x="396.116" y="10.082"><path d="M3.64-2.625v-1c0-2.047-1.328-4.531-2.64-5.516a.774.774 0 00-.203-.062c-.063 0-.313.187-.313.25 0 .031.079.172.094.187 1.25.938 2.016 3.235 2.016 5.141v1c0 1.922-.766 4.219-2.016 5.14-.015.032-.094.157-.094.204 0 .047.25.25.313.25A.774.774 0 001 2.906c1.313-1 2.64-3.484 2.64-5.531zm0 0"/></svg></g></svg>