<svg xmlns="http://www.w3.org/2000/svg" xmlns:xlink="http://www.w3.org/1999/xlink" width="601px" height="71px" viewBox="0 0 451 53"><svg overflow="visible" x=".475" y="10.961"><path d="M.313.031C.671.016 1.046 0 1.405 0c.64 0 1.266.031 1.922.031.563 0 1.25-.156 1.813-.5.937-.562 1.515-1.469 1.515-2.375 0-.515-.218-1-.531-1.265-.313-.25-.797-.391-1.625-.516v.266c.688-.25 1.094-.438 1.469-.75.547-.485.875-1.125.875-1.735 0-.984-1.125-1.687-2.047-1.687-.594 0-1.203.031-1.797.031-.61 0-1.203-.016-1.969-.047l-.062.61.828.03c.281 0 .234-.03.234.188 0 .172-.047.547-.11.907L.892-.782c-.047.204-.016.157-.672.266l-.11.579zm1.843-.656l.578-3.438h.875c1.235 0 1.657.375 1.657 1.407 0 1.234-.704 1.984-1.891 1.984-.25 0-.594-.015-.984-.047-.079-.015-.22-.015-.22-.015zm.672-4l.563-3.14c.187 0 .5-.063.812-.063.969 0 1.266.297 1.266 1.187 0 1.266-.703 1.891-2.188 1.891H2.86zm0 0"/></svg><svg overflow="visible" x="7.78" y="10.961"><path d="M0-1.469C0-.547.703.125 1.563.125c.687 0 1.468-.36 2.64-1.313L4-1.688l-.5.344c-.625.453-1.078.657-1.5.657-.578 0-.75-.313-.75-1.047 0-.313.031-.61.078-.86l.828-.203c.203-.047.516-.172.828-.297C4-3.547 4.641-4.219 4.641-4.954c0-.562-.563-1.077-1.172-1.077-.781 0-2.219.843-2.688 1.61C.421-3.845 0-2.313 0-1.47zm1.406-1.5l.11-.437c.187-.797.39-1.219.703-1.516.234-.219.5-.344.797-.344.343 0 .39.11.39.5 0 .516-.234.954-.86 1.25a6.042 6.042 0 01-1.093.375zm.485-3.375h.453l2-1.25c.265-.156.39-.36.39-.531 0-.188-.39-.5-.625-.5-.109 0-.375.11-.53.25L1.53-6.344zm0 0"/></svg><svg overflow="visible" x="12.43" y="10.961"><path d="M-.188-.375L0 .203c.563-.437.766-.516 1.188-.516.296 0 .625.047 1.25.204.718.171 1.093.234 1.406.234.156 0 .25-.016.75-.156.156-.828.25-1.235.422-1.922h-.61l-.312.844c-.078.218-.032.171-.282.171-.265 0-.53-.078-.796-.14-.391-.078-.797-.14-1.032-.14-.375 0-.703.077-1.14.25l.125.234L5.062-5.36l.079-.47-.282-.28-.406.39c-.11.125-.11.14-.266.14-.406 0-1.03-.093-1.609-.25-.312-.093-.625-.202-.953-.202-.203 0-.438.047-.89.156L.296-4.187h.562l.375-.72c.094-.015.204-.03.36-.03s.297.015.531.062c.406.078.719.125.969.125.437 0 .844-.11 1.234-.313l-.25-.203-4.281 4.86zm0 0"/></svg><svg overflow="visible" x="17.738" y="10.961"><path d="M.234-4.766l.157.47.593-.391c.36-.22.36-.235.47-.235.109 0 .015-.031.015.11 0 .109-.047.359-.094.53L.578-1.405c-.094.375-.14.672-.14.922 0 .28.296.593.53.593.313 0 .876-.296 2.11-1.218l-.265-.47-.5.329c-.36.234-.47.313-.594.313-.078 0 .015.03.015-.11 0-.11.016-.203.079-.469l.921-3.64c.047-.203.079-.313.079-.422 0-.203-.266-.453-.47-.453-.265 0-.827.281-1.734.922l-.39.296zm1.641-2.578c0 .297.36.625.656.625.375 0 .813-.484.813-.937 0-.282-.344-.61-.594-.61-.36 0-.875.516-.875.922zm0 0"/></svg><svg overflow="visible" x="21.062" y="10.961"><path d="M0-1.469C0-.547.703.125 1.563.125c.687 0 1.468-.36 2.64-1.313L4-1.688l-.5.344c-.625.453-1.078.657-1.5.657-.578 0-.75-.313-.75-1.047 0-.313.031-.61.078-.86l.828-.203c.203-.047.516-.172.828-.297C4-3.547 4.641-4.219 4.641-4.954c0-.562-.563-1.077-1.172-1.077-.781 0-2.219.843-2.688 1.61C.421-3.845 0-2.313 0-1.47zm1.406-1.5l.11-.437c.187-.797.39-1.219.703-1.516.234-.219.5-.344.797-.344.343 0 .39.11.39.5 0 .516-.234.954-.86 1.25a6.042 6.042 0 01-1.093.375zm0 0"/></svg><svg overflow="visible" x="25.712" y="10.961"><path d="M.125-4.766l.172.47.594-.391c.343-.22.359-.235.453-.235.125 0 .031-.031.031.125 0 .703-.516 3.156-1 4.734l.266.188a5.85 5.85 0 01.984-.219l.328-1.547c.219-.984.453-1.53.969-2.203.406-.531.61-.75.875-.75.187 0 .172.032.344.235h.406c.062-.594.11-.97.219-1.516-.313-.14-.36-.156-.422-.156-.36 0-.86.328-1.297.937-.406.594-.875 1.25-1.172 1.907h.344l.312-1.516c.063-.25.14-.531.14-.813 0-.234-.25-.515-.437-.515-.25 0-.828.297-1.718.922l-.391.296zm0 0"/></svg><svg overflow="visible" x="30.363" y="10.961"><path d="M4.203-7.828a.735.735 0 01-.187-.14c-.063-.063-.11-.126-.22-.329-1.593 1.61-2.5 3.266-2.5 4.781v.797c0 1.516.907 3.172 2.5 4.781.11-.203.157-.265.22-.328.062-.062.125-.109.312-.203C2.875.063 2.281-1.344 2.281-2.719v-.797c0-1.39.594-2.78 2.047-4.25zm0 0"/></svg><svg overflow="visible" x="35.432" y="10.961"><path d="M3.703-5.516c-.453.047-.86.063-1.156.063.172-.984.297-1.578.531-2.25l-.25-.328a7.16 7.16 0 01-1.094.531l-.296 2.031c-.391.203-.704.328-1.063.407l-.047.406h1l-.64 3.25C.625-1.11.53-.813.53-.5c0 .297.266.61.5.61.422 0 .922-.282 1.86-1.032.218-.172.14-.125.437-.36l-.25-.437-.672.469c-.36.25-.484.313-.625.313-.093 0-.031.046-.031-.11 0-.297.156-1.234.516-3l.14-.61h1.266l.203-.89zm0 0"/></svg><svg overflow="visible" x="39.461" y="10.961"><path d="M3.766-2.719v-.797c0-1.515-.907-3.171-2.516-4.78-.11.202-.156.265-.203.327-.063.063-.125.11-.313.203 1.438 1.47 2.032 2.86 2.032 4.25v.797c0 1.375-.594 2.781-2.032 4.25.188.094.25.14.313.203.047.063.094.125.203.329C2.86.452 3.766-1.204 3.766-2.72zm0 0"/></svg><svg overflow="visible" x="47.853" y="10.961"><path d="M8.266-4.078a1.419 1.419 0 01-.047-.36c0-.109.015-.234.062-.484h-7.5c.063.25.063.375.063.484 0 .125 0 .235-.063.5h7.5zm0 2.625a1.332 1.332 0 01-.047-.36c0-.109.015-.234.062-.484h-7.5c.063.25.063.375.063.485 0 .125 0 .25-.063.5h7.5zm0 0"/></svg><svg overflow="visible" x="60.263" y="10.961"><path d="M5.875-5.875c-.14-.078-.344-.156-.453-.156-.469 0-1.063.468-1.797 1.578l-.453.656.25.094-.078-.578c-.14-1.188-.594-1.75-1.297-1.75-.313 0-.688.14-.797.297L.484-4.61l.407.25c.437-.485.578-.61.812-.61.39 0 .516.36.719 1.532l.125.718-.438.656C1.594-1.25 1.297-.905.953-.905c-.172 0-.172.078-.203.015l-.188-.468-.453.062c0 .36-.03.516-.093.89-.032.141-.047.173-.063.329.219.125.531.203.672.203.39 0 .953-.375 1.328-.938l.906-1.406-.234-.094.125.829c.172 1.015.578 1.609 1 1.609.266 0 .75-.234 1.125-.578l.64-.578-.218-.469c-.578.453-.766.61-.953.61-.188 0-.25-.094-.453-.5.015.046-.11-.407-.172-.75L3.5-3.313l.39-.532c.563-.765.782-1.015 1.157-1.015.187 0 .187-.032.312.312l.36-.11.203-1.171zm0 0"/></svg><svg overflow="visible" x="66.248" y="13.734"><path d="M4.266-.11V-.5l-.657-.031c-.515-.031-.468.015-.468-.453v-5.329l-.282-.093c-.625.297-1.312.562-2.375.906l.11.594h.234l1.25-.516.031-.016c.047 0-.078-.046-.078.172v4.282c0 .468.047.421-.469.453L.86-.5v.531L2.594 0l1.672.031zm0 0"/></svg><svg overflow="visible" x="71.744" y="10.961"><path d="M4.203-7.828a.735.735 0 01-.187-.14c-.063-.063-.11-.126-.22-.329-1.593 1.61-2.5 3.266-2.5 4.781v.797c0 1.516.907 3.172 2.5 4.781.11-.203.157-.265.22-.328.062-.062.125-.109.312-.203C2.875.063 2.281-1.344 2.281-2.719v-.797c0-1.39.594-2.78 2.047-4.25zm0 0"/></svg><svg overflow="visible" x="76.813" y="10.961"><path d="M5.125-.094v-.484l-.75-.047c-.656-.031-.64-.031-.64-.656v-7.172l-.313-.125c-.875.469-1.61.781-2.86 1.219l.125.718h.235l1.547-.687.031-.016c.063 0-.047-.015-.047.266v5.797c0 .625.016.625-.64.656L1-.578v.625L3.125 0l2 .047zm0 0"/></svg><svg overflow="visible" x="85.445" y="10.961"><path d="M8.266-2.766a1.332 1.332 0 01-.047-.359c0-.11.015-.234.062-.484h-7.5c.063.25.063.375.063.484 0 .125 0 .25-.063.5h7.5zm0 0"/></svg><svg overflow="visible" x="97.185" y="10.961"><path d="M3.703-5.516c-.453.047-.86.063-1.156.063.172-.984.297-1.578.531-2.25l-.25-.328a7.16 7.16 0 01-1.094.531l-.296 2.031c-.391.203-.704.328-1.063.407l-.047.406h1l-.64 3.25C.625-1.11.53-.813.53-.5c0 .297.266.61.5.61.422 0 .922-.282 1.86-1.032.218-.172.14-.125.437-.36l-.25-.437-.672.469c-.36.25-.484.313-.625.313-.093 0-.031.046-.031-.11 0-.297.156-1.234.516-3l.14-.61h1.266l.203-.89zm0 0"/></svg><svg overflow="visible" x="101.226" y="10.961"><path d="M3.766-2.719v-.797c0-1.515-.907-3.171-2.516-4.78-.11.202-.156.265-.203.327-.063.063-.125.11-.313.203 1.438 1.47 2.032 2.86 2.032 4.25v.797c0 1.375-.594 2.781-2.032 4.25.188.094.25.14.313.203.047.063.094.125.203.329C2.86.452 3.766-1.204 3.766-2.72zm0 0"/></svg><svg overflow="visible" x="106.3" y="6.728"><path d="M4.703-2.11c0-.421-.25-.89-.594-1.124a2.225 2.225 0 00-.703-.282c.531-.375.86-.875.86-1.406 0-.781-.86-1.437-1.938-1.437-.64 0-1.203.203-1.687.656L.312-4.406h.594l.219-.625c.11-.297.563-.469 1.063-.469.624 0 .984.328.984.89 0 .673-.406 1.094-1.094 1.094-.078 0-.36.204-.36.204l-.265-.094-.125.515.203.157c.407-.172.594-.22.844-.22.813 0 1.11.329 1.11 1.142 0 .906-.422 1.359-1.329 1.359-.437 0-.719-.094-1.015-.344C.906-.984.828-1.094.578-1.75l-.531.188c.234.609.312.937.375 1.468C1.078.11 1.5.172 1.859.172c.782 0 1.766-.422 2.297-1.016.328-.375.547-.86.547-1.265zm0 0"/></svg><svg overflow="visible" x="114.454" y="10.961"><path d="M8.266-2.766a1.332 1.332 0 01-.047-.359c0-.11.015-.234.062-.484h-3.25v-3.266c-.25.063-.375.078-.484.078-.125 0-.25-.016-.5-.078v3.266H.78c.063.25.063.375.063.484 0 .125 0 .25-.063.5h3.266V.641c.25-.063.375-.079.5-.079.11 0 .234.016.484.079v-3.266h3.25zm0 0"/></svg><svg overflow="visible" x="126.194" y="10.961"><path d="M5.656-2.813c0-.562-.281-1.171-.703-1.468-.297-.219-.672-.344-.953-.407.734-.562 1.125-1.203 1.125-1.906 0-1.062-1.016-1.906-2.344-1.906-.812 0-1.453.266-2.047.86L.328-5.954h.64l.266-.797c.125-.406.75-.688 1.375-.688.766 0 1.266.5 1.266 1.25 0 .907-.563 1.532-1.406 1.532-.11 0-.469.187-.469.187l-.25-.093-.14.671.202.188C2.297-3.938 2.516-4 2.845-4c1 0 1.422.516 1.422 1.594 0 1.219-.579 1.89-1.704 1.89-.546 0-.937-.14-1.296-.468C.984-1.25.859-1.438.578-2.25l-.562.219C.28-1.234.375-.797.469-.11c.765.25 1.281.343 1.734.343.953 0 2.14-.562 2.813-1.375.406-.484.64-1.109.64-1.671zm0 0"/></svg><svg overflow="visible" x="132.172" y="10.961"><path d="M5.875-5.875c-.14-.078-.344-.156-.453-.156-.469 0-1.063.468-1.797 1.578l-.453.656.25.094-.078-.578c-.14-1.188-.594-1.75-1.297-1.75-.313 0-.688.14-.797.297L.484-4.61l.407.25c.437-.485.578-.61.812-.61.39 0 .516.36.719 1.532l.125.718-.438.656C1.594-1.25 1.297-.905.953-.905c-.172 0-.172.078-.203.015l-.188-.468-.453.062c0 .36-.03.516-.093.89-.032.141-.047.173-.063.329.219.125.531.203.672.203.39 0 .953-.375 1.328-.938l.906-1.406-.234-.094.125.829c.172 1.015.578 1.609 1 1.609.266 0 .75-.234 1.125-.578l.64-.578-.218-.469c-.578.453-.766.61-.953.61-.188 0-.25-.094-.453-.5.015.046-.11-.407-.172-.75L3.5-3.313l.39-.532c.563-.765.782-1.015 1.157-1.015.187 0 .187-.032.312.312l.36-.11.203-1.171zm0 0"/></svg><svg overflow="visible" x="138.152" y="13.734"><path d="M4.75-.11c-.016-.187-.016-.265-.016-.39s0-.203.032-.547l-3.141.094 1.5-1.469c.938-.906 1.266-1.5 1.266-2.156 0-1.016-.891-1.781-2.125-1.781-.688 0-1.282.218-1.782.687L.297-4.266h.547l.172-.546c.156-.516.359-.594 1-.594.828 0 1.203.343 1.203 1.093 0 .657-.36 1.22-1.453 2.282L.078-.391v.422L2.391 0l2.375.031zm0 0"/></svg><svg overflow="visible" x="143.649" y="10.961"><path d="M4.203-7.828a.735.735 0 01-.187-.14c-.063-.063-.11-.126-.22-.329-1.593 1.61-2.5 3.266-2.5 4.781v.797c0 1.516.907 3.172 2.5 4.781.11-.203.157-.265.22-.328.062-.062.125-.109.312-.203C2.875.063 2.281-1.344 2.281-2.719v-.797c0-1.39.594-2.78 2.047-4.25zm0 0"/></svg><svg overflow="visible" x="148.718" y="10.961"><path d="M5.125-.094v-.484l-.75-.047c-.656-.031-.64-.031-.64-.656v-7.172l-.313-.125c-.875.469-1.61.781-2.86 1.219l.125.718h.235l1.547-.687.031-.016c.063 0-.047-.015-.047.266v5.797c0 .625.016.625-.64.656L1-.578v.625L3.125 0l2 .047zm0 0"/></svg><svg overflow="visible" x="157.35" y="10.961"><path d="M8.266-2.766a1.332 1.332 0 01-.047-.359c0-.11.015-.234.062-.484h-7.5c.063.25.063.375.063.484 0 .125 0 .25-.063.5h7.5zm0 0"/></svg><svg overflow="visible" x="169.09" y="10.961"><path d="M3.703-5.516c-.453.047-.86.063-1.156.063.172-.984.297-1.578.531-2.25l-.25-.328a7.16 7.16 0 01-1.094.531l-.296 2.031c-.391.203-.704.328-1.063.407l-.047.406h1l-.64 3.25C.625-1.11.53-.813.53-.5c0 .297.266.61.5.61.422 0 .922-.282 1.86-1.032.218-.172.14-.125.437-.36l-.25-.437-.672.469c-.36.25-.484.313-.625.313-.093 0-.031.046-.031-.11 0-.297.156-1.234.516-3l.14-.61h1.266l.203-.89zm0 0"/></svg><svg overflow="visible" x="173.131" y="10.961"><path d="M3.766-2.719v-.797c0-1.515-.907-3.171-2.516-4.78-.11.202-.156.265-.203.327-.063.063-.125.11-.313.203 1.438 1.47 2.032 2.86 2.032 4.25v.797c0 1.375-.594 2.781-2.032 4.25.188.094.25.14.313.203.047.063.094.125.203.329C2.86.452 3.766-1.204 3.766-2.72zm0 0"/></svg><svg overflow="visible" x="178.205" y="6.728"><path d="M4.75-.11c-.016-.187-.016-.265-.016-.39s0-.203.032-.547l-3.141.094 1.5-1.469c.938-.906 1.266-1.5 1.266-2.156 0-1.016-.891-1.781-2.125-1.781-.688 0-1.282.218-1.782.687L.297-4.266h.547l.172-.546c.156-.516.359-.594 1-.594.828 0 1.203.343 1.203 1.093 0 .657-.36 1.22-1.453 2.282L.078-.391v.422L2.391 0l2.375.031zm0 0"/></svg><svg overflow="visible" x="183.701" y="10.961"><path d="M3.703-5.516c-.453.047-.86.063-1.156.063.172-.984.297-1.578.531-2.25l-.25-.328a7.16 7.16 0 01-1.094.531l-.296 2.031c-.391.203-.704.328-1.063.407l-.047.406h1l-.64 3.25C.625-1.11.53-.813.53-.5c0 .297.266.61.5.61.422 0 .922-.282 1.86-1.032.218-.172.14-.125.437-.36l-.25-.437-.672.469c-.36.25-.484.313-.625.313-.093 0-.031.046-.031-.11 0-.297.156-1.234.516-3l.14-.61h1.266l.203-.89zm0 0"/></svg><svg overflow="visible" x="190.396" y="10.961"><path d="M8.266-2.766a1.332 1.332 0 01-.047-.359c0-.11.015-.234.062-.484h-3.25v-3.266c-.25.063-.375.078-.484.078-.125 0-.25-.016-.5-.078v3.266H.78c.063.25.063.375.063.484 0 .125 0 .25-.063.5h3.266V.641c.25-.063.375-.079.5-.079.11 0 .234.016.484.079v-3.266h3.25zm0 0"/></svg><svg overflow="visible" x="202.136" y="10.961"><path d="M5.656-2.813c0-.562-.281-1.171-.703-1.468-.297-.219-.672-.344-.953-.407.734-.562 1.125-1.203 1.125-1.906 0-1.062-1.016-1.906-2.344-1.906-.812 0-1.453.266-2.047.86L.328-5.954h.64l.266-.797c.125-.406.75-.688 1.375-.688.766 0 1.266.5 1.266 1.25 0 .907-.563 1.532-1.406 1.532-.11 0-.469.187-.469.187l-.25-.093-.14.671.202.188C2.297-3.938 2.516-4 2.845-4c1 0 1.422.516 1.422 1.594 0 1.219-.579 1.89-1.704 1.89-.546 0-.937-.14-1.296-.468C.984-1.25.859-1.438.578-2.25l-.562.219C.28-1.234.375-.797.469-.11c.765.25 1.281.343 1.734.343.953 0 2.14-.562 2.813-1.375.406-.484.64-1.109.64-1.671zm0 0"/></svg><svg overflow="visible" x="208.114" y="10.961"><path d="M5.875-5.875c-.14-.078-.344-.156-.453-.156-.469 0-1.063.468-1.797 1.578l-.453.656.25.094-.078-.578c-.14-1.188-.594-1.75-1.297-1.75-.313 0-.688.14-.797.297L.484-4.61l.407.25c.437-.485.578-.61.812-.61.39 0 .516.36.719 1.532l.125.718-.438.656C1.594-1.25 1.297-.905.953-.905c-.172 0-.172.078-.203.015l-.188-.468-.453.062c0 .36-.03.516-.093.89-.032.141-.047.173-.063.329.219.125.531.203.672.203.39 0 .953-.375 1.328-.938l.906-1.406-.234-.094.125.829c.172 1.015.578 1.609 1 1.609.266 0 .75-.234 1.125-.578l.64-.578-.218-.469c-.578.453-.766.61-.953.61-.188 0-.25-.094-.453-.5.015.046-.11-.407-.172-.75L3.5-3.313l.39-.532c.563-.765.782-1.015 1.157-1.015.187 0 .187-.032.312.312l.36-.11.203-1.171zm0 0"/></svg><svg overflow="visible" x="214.097" y="13.734"><path d="M4.703-2.11c0-.421-.25-.89-.594-1.124a2.225 2.225 0 00-.703-.282c.531-.375.86-.875.86-1.406 0-.781-.86-1.437-1.938-1.437-.64 0-1.203.203-1.687.656L.312-4.406h.594l.219-.625c.11-.297.563-.469 1.063-.469.624 0 .984.328.984.89 0 .673-.406 1.094-1.094 1.094-.078 0-.36.204-.36.204l-.265-.094-.125.515.203.157c.407-.172.594-.22.844-.22.813 0 1.11.329 1.11 1.142 0 .906-.422 1.359-1.329 1.359-.437 0-.719-.094-1.015-.344C.906-.984.828-1.094.578-1.75l-.531.188c.234.609.312.937.375 1.468C1.078.11 1.5.172 1.859.172c.782 0 1.766-.422 2.297-1.016.328-.375.547-.86.547-1.265zm0 0"/></svg><svg overflow="visible" x="219.594" y="10.961"><path d="M4.203-7.828a.735.735 0 01-.187-.14c-.063-.063-.11-.126-.22-.329-1.593 1.61-2.5 3.266-2.5 4.781v.797c0 1.516.907 3.172 2.5 4.781.11-.203.157-.265.22-.328.062-.062.125-.109.312-.203C2.875.063 2.281-1.344 2.281-2.719v-.797c0-1.39.594-2.78 2.047-4.25zm0 0"/></svg><svg overflow="visible" x="224.663" y="10.961"><path d="M5.125-.094v-.484l-.75-.047c-.656-.031-.64-.031-.64-.656v-7.172l-.313-.125c-.875.469-1.61.781-2.86 1.219l.125.718h.235l1.547-.687.031-.016c.063 0-.047-.015-.047.266v5.797c0 .625.016.625-.64.656L1-.578v.625L3.125 0l2 .047zm0 0"/></svg><svg overflow="visible" x="233.295" y="10.961"><path d="M8.266-2.766a1.332 1.332 0 01-.047-.359c0-.11.015-.234.062-.484h-7.5c.063.25.063.375.063.484 0 .125 0 .25-.063.5h7.5zm0 0"/></svg><svg overflow="visible" x="245.035" y="10.961"><path d="M3.703-5.516c-.453.047-.86.063-1.156.063.172-.984.297-1.578.531-2.25l-.25-.328a7.16 7.16 0 01-1.094.531l-.296 2.031c-.391.203-.704.328-1.063.407l-.047.406h1l-.64 3.25C.625-1.11.53-.813.53-.5c0 .297.266.61.5.61.422 0 .922-.282 1.86-1.032.218-.172.14-.125.437-.36l-.25-.437-.672.469c-.36.25-.484.313-.625.313-.093 0-.031.046-.031-.11 0-.297.156-1.234.516-3l.14-.61h1.266l.203-.89zm0 0"/></svg><svg overflow="visible" x="249.076" y="10.961"><path d="M3.766-2.719v-.797c0-1.515-.907-3.171-2.516-4.78-.11.202-.156.265-.203.327-.063.063-.125.11-.313.203 1.438 1.47 2.032 2.86 2.032 4.25v.797c0 1.375-.594 2.781-2.032 4.25.188.094.25.14.313.203.047.063.094.125.203.329C2.86.452 3.766-1.204 3.766-2.72zm0 0"/></svg><svg overflow="visible" x="254.145" y="10.961"><path d="M3.703-5.516c-.453.047-.86.063-1.156.063.172-.984.297-1.578.531-2.25l-.25-.328a7.16 7.16 0 01-1.094.531l-.296 2.031c-.391.203-.704.328-1.063.407l-.047.406h1l-.64 3.25C.625-1.11.53-.813.53-.5c0 .297.266.61.5.61.422 0 .922-.282 1.86-1.032.218-.172.14-.125.437-.36l-.25-.437-.672.469c-.36.25-.484.313-.625.313-.093 0-.031.046-.031-.11 0-.297.156-1.234.516-3l.14-.61h1.266l.203-.89zm0 0"/></svg><svg overflow="visible" x="258.191" y="6.728"><path d="M4.75-.11c-.016-.187-.016-.265-.016-.39s0-.203.032-.547l-3.141.094 1.5-1.469c.938-.906 1.266-1.5 1.266-2.156 0-1.016-.891-1.781-2.125-1.781-.688 0-1.282.218-1.782.687L.297-4.266h.547l.172-.546c.156-.516.359-.594 1-.594.828 0 1.203.343 1.203 1.093 0 .657-.36 1.22-1.453 2.282L.078-.391v.422L2.391 0l2.375.031zm0 0"/></svg><svg overflow="visible" x="266.345" y="10.961"><path d="M8.266-2.766a1.332 1.332 0 01-.047-.359c0-.11.015-.234.062-.484h-3.25v-3.266c-.25.063-.375.078-.484.078-.125 0-.25-.016-.5-.078v3.266H.78c.063.25.063.375.063.484 0 .125 0 .25-.063.5h3.266V.641c.25-.063.375-.079.5-.079.11 0 .234.016.484.079v-3.266h3.25zm0 0"/></svg><svg overflow="visible" x="278.085" y="10.961"><path d="M5.875-5.875c-.14-.078-.344-.156-.453-.156-.469 0-1.063.468-1.797 1.578l-.453.656.25.094-.078-.578c-.14-1.188-.594-1.75-1.297-1.75-.313 0-.688.14-.797.297L.484-4.61l.407.25c.437-.485.578-.61.812-.61.39 0 .516.36.719 1.532l.125.718-.438.656C1.594-1.25 1.297-.905.953-.905c-.172 0-.172.078-.203.015l-.188-.468-.453.062c0 .36-.03.516-.093.89-.032.141-.047.173-.063.329.219.125.531.203.672.203.39 0 .953-.375 1.328-.938l.906-1.406-.234-.094.125.829c.172 1.015.578 1.609 1 1.609.266 0 .75-.234 1.125-.578l.64-.578-.218-.469c-.578.453-.766.61-.953.61-.188 0-.25-.094-.453-.5.015.046-.11-.407-.172-.75L3.5-3.313l.39-.532c.563-.765.782-1.015 1.157-1.015.187 0 .187-.032.312.312l.36-.11.203-1.171zm0 0"/></svg><svg overflow="visible" x="284.065" y="13.734"><path d="M4.781-.11V-.5l-.61-.031c-.468-.031-.421-.016-.421-.531v-.532c.422 0 .625 0 1.031.047v-.781l-.047.094s-.562-.204-.875-.204H3.75V-3.53c0-1.578.016-2.328.078-2.766l-.281-.11-.813.282-2.796 4.172.187.36h2.5v.53c0 .516.047.516-.422.532l-.75.031v.531L3.172 0l1.61.031zm-2-2.328H.97L2.89-5.312l-.266-.094v2.968zm0 0"/></svg><svg overflow="visible" x="289.562" y="10.961"><path d="M3.703-5.516c-.453.047-.86.063-1.156.063.172-.984.297-1.578.531-2.25l-.25-.328a7.16 7.16 0 01-1.094.531l-.296 2.031c-.391.203-.704.328-1.063.407l-.047.406h1l-.64 3.25C.625-1.11.53-.813.53-.5c0 .297.266.61.5.61.422 0 .922-.282 1.86-1.032.218-.172.14-.125.437-.36l-.25-.437-.672.469c-.36.25-.484.313-.625.313-.093 0-.031.046-.031-.11 0-.297.156-1.234.516-3l.14-.61h1.266l.203-.89zm0 0"/></svg><svg overflow="visible" x="293.602" y="6.728"><path d="M4.703-2.11c0-.421-.25-.89-.594-1.124a2.225 2.225 0 00-.703-.282c.531-.375.86-.875.86-1.406 0-.781-.86-1.437-1.938-1.437-.64 0-1.203.203-1.687.656L.312-4.406h.594l.219-.625c.11-.297.563-.469 1.063-.469.624 0 .984.328.984.89 0 .673-.406 1.094-1.094 1.094-.078 0-.36.204-.36.204l-.265-.094-.125.515.203.157c.407-.172.594-.22.844-.22.813 0 1.11.329 1.11 1.142 0 .906-.422 1.359-1.329 1.359-.437 0-.719-.094-1.015-.344C.906-.984.828-1.094.578-1.75l-.531.188c.234.609.312.937.375 1.468C1.078.11 1.5.172 1.859.172c.782 0 1.766-.422 2.297-1.016.328-.375.547-.86.547-1.265zm0 0"/></svg><svg overflow="visible" x=".475" y="30.178"><path d="M.313.031C.671.016 1.046 0 1.405 0c.64 0 1.266.031 1.922.031.563 0 1.25-.156 1.813-.5.937-.562 1.515-1.469 1.515-2.375 0-.515-.218-1-.531-1.265-.313-.25-.797-.391-1.625-.516v.266c.688-.25 1.094-.438 1.469-.75.547-.485.875-1.125.875-1.735 0-.984-1.125-1.687-2.047-1.687-.594 0-1.203.031-1.797.031-.61 0-1.203-.016-1.969-.047l-.062.61.828.03c.281 0 .234-.03.234.188 0 .172-.047.547-.11.907L.892-.782c-.047.204-.016.157-.672.266l-.11.579zm1.843-.656l.578-3.438h.875c1.235 0 1.657.375 1.657 1.407 0 1.234-.704 1.984-1.891 1.984-.25 0-.594-.015-.984-.047-.079-.015-.22-.015-.22-.015zm.672-4l.563-3.14c.187 0 .5-.063.812-.063.969 0 1.266.297 1.266 1.187 0 1.266-.703 1.891-2.188 1.891H2.86zm0 0"/></svg><svg overflow="visible" x="7.78" y="30.178"><path d="M0-1.469C0-.547.703.125 1.563.125c.687 0 1.468-.36 2.64-1.313L4-1.688l-.5.344c-.625.453-1.078.657-1.5.657-.578 0-.75-.313-.75-1.047 0-.313.031-.61.078-.86l.828-.203c.203-.047.516-.172.828-.297C4-3.547 4.641-4.219 4.641-4.954c0-.562-.563-1.077-1.172-1.077-.781 0-2.219.843-2.688 1.61C.421-3.845 0-2.313 0-1.47zm1.406-1.5l.11-.437c.187-.797.39-1.219.703-1.516.234-.219.5-.344.797-.344.343 0 .39.11.39.5 0 .516-.234.954-.86 1.25a6.042 6.042 0 01-1.093.375zm.485-3.375h.453l2-1.25c.265-.156.39-.36.39-.531 0-.188-.39-.5-.625-.5-.109 0-.375.11-.53.25L1.53-6.344zm0 0"/></svg><svg overflow="visible" x="12.43" y="30.178"><path d="M-.188-.375L0 .203c.563-.437.766-.516 1.188-.516.296 0 .625.047 1.25.204.718.171 1.093.234 1.406.234.156 0 .25-.016.75-.156.156-.828.25-1.235.422-1.922h-.61l-.312.844c-.078.218-.032.171-.282.171-.265 0-.53-.078-.796-.14-.391-.078-.797-.14-1.032-.14-.375 0-.703.077-1.14.25l.125.234L5.062-5.36l.079-.47-.282-.28-.406.39c-.11.125-.11.14-.266.14-.406 0-1.03-.093-1.609-.25-.312-.093-.625-.202-.953-.202-.203 0-.438.047-.89.156L.296-4.187h.562l.375-.72c.094-.015.204-.03.36-.03s.297.015.531.062c.406.078.719.125.969.125.437 0 .844-.11 1.234-.313l-.25-.203-4.281 4.86zm0 0"/></svg><svg overflow="visible" x="17.738" y="30.178"><path d="M.234-4.766l.157.47.593-.391c.36-.22.36-.235.47-.235.109 0 .015-.031.015.11 0 .109-.047.359-.094.53L.578-1.405c-.094.375-.14.672-.14.922 0 .28.296.593.53.593.313 0 .876-.296 2.11-1.218l-.265-.47-.5.329c-.36.234-.47.313-.594.313-.078 0 .015.03.015-.11 0-.11.016-.203.079-.469l.921-3.64c.047-.203.079-.313.079-.422 0-.203-.266-.453-.47-.453-.265 0-.827.281-1.734.922l-.39.296zm1.641-2.578c0 .297.36.625.656.625.375 0 .813-.484.813-.937 0-.282-.344-.61-.594-.61-.36 0-.875.516-.875.922zm0 0"/></svg><svg overflow="visible" x="21.062" y="30.178"><path d="M0-1.469C0-.547.703.125 1.563.125c.687 0 1.468-.36 2.64-1.313L4-1.688l-.5.344c-.625.453-1.078.657-1.5.657-.578 0-.75-.313-.75-1.047 0-.313.031-.61.078-.86l.828-.203c.203-.047.516-.172.828-.297C4-3.547 4.641-4.219 4.641-4.954c0-.562-.563-1.077-1.172-1.077-.781 0-2.219.843-2.688 1.61C.421-3.845 0-2.313 0-1.47zm1.406-1.5l.11-.437c.187-.797.39-1.219.703-1.516.234-.219.5-.344.797-.344.343 0 .39.11.39.5 0 .516-.234.954-.86 1.25a6.042 6.042 0 01-1.093.375zm0 0"/></svg><svg overflow="visible" x="25.712" y="30.178"><path d="M.125-4.766l.172.47.594-.391c.343-.22.359-.235.453-.235.125 0 .031-.031.031.125 0 .703-.516 3.156-1 4.734l.266.188a5.85 5.85 0 01.984-.219l.328-1.547c.219-.984.453-1.53.969-2.203.406-.531.61-.75.875-.75.187 0 .172.032.344.235h.406c.062-.594.11-.97.219-1.516-.313-.14-.36-.156-.422-.156-.36 0-.86.328-1.297.937-.406.594-.875 1.25-1.172 1.907h.344l.312-1.516c.063-.25.14-.531.14-.813 0-.234-.25-.515-.437-.515-.25 0-.828.297-1.718.922l-.391.296zm0 0"/></svg><svg overflow="visible" x="30.363" y="23.862"><path d="M2.594-4.672l-.203-.187-1.094.39-.89 3.36.312.234.5-.25 1.437-3.484zm0 0"/></svg><svg overflow="visible" x="33.931" y="30.178"><path d="M4.203-7.828a.735.735 0 01-.187-.14c-.063-.063-.11-.126-.22-.329-1.593 1.61-2.5 3.266-2.5 4.781v.797c0 1.516.907 3.172 2.5 4.781.11-.203.157-.265.22-.328.062-.062.125-.109.312-.203C2.875.063 2.281-1.344 2.281-2.719v-.797c0-1.39.594-2.78 2.047-4.25zm0 0"/></svg><svg overflow="visible" x="39" y="30.178"><path d="M3.703-5.516c-.453.047-.86.063-1.156.063.172-.984.297-1.578.531-2.25l-.25-.328a7.16 7.16 0 01-1.094.531l-.296 2.031c-.391.203-.704.328-1.063.407l-.047.406h1l-.64 3.25C.625-1.11.53-.813.53-.5c0 .297.266.61.5.61.422 0 .922-.282 1.86-1.032.218-.172.14-.125.437-.36l-.25-.437-.672.469c-.36.25-.484.313-.625.313-.093 0-.031.046-.031-.11 0-.297.156-1.234.516-3l.14-.61h1.266l.203-.89zm0 0"/></svg><svg overflow="visible" x="43.029" y="30.178"><path d="M3.766-2.719v-.797c0-1.515-.907-3.171-2.516-4.78-.11.202-.156.265-.203.327-.063.063-.125.11-.313.203 1.438 1.47 2.032 2.86 2.032 4.25v.797c0 1.375-.594 2.781-2.032 4.25.188.094.25.14.313.203.047.063.094.125.203.329C2.86.452 3.766-1.204 3.766-2.72zm0 0"/></svg><svg overflow="visible" x="51.421" y="30.178"><path d="M8.266-4.078a1.419 1.419 0 01-.047-.36c0-.109.015-.234.062-.484h-7.5c.063.25.063.375.063.484 0 .125 0 .235-.063.5h7.5zm0 2.625a1.332 1.332 0 01-.047-.36c0-.109.015-.234.062-.484h-7.5c.063.25.063.375.063.485 0 .125 0 .25-.063.5h7.5zm0 0"/></svg><svg overflow="visible" x="63.831" y="30.178"><path d="M4.984-1.14l-.156-.485c-.25.203-.266.219-.328.266-.375.312-.453.39-.625.39-.125 0-.047.031-.047-.156 0-.047 0-.078.016-.125l1.11-4.578-.25-.203-.438.218c-.438-.156-.672-.218-.985-.218-.344 0-.578.062-.906.218-.75.375-1.234.766-1.531 1.36l-.047.094C.28-3.297-.093-1.875-.093-.922c0 .516.327 1.047.546 1.047.25 0 .797-.281 1.234-.656.516-.453.985-1.016 1.641-1.938l-.234-.094-.344 1.516a2.715 2.715 0 00-.078.61c0 .265.25.562.437.562.266 0 .86-.36 1.891-1.219zM3.672-5.079c-.266 1.281-.453 1.797-.844 2.406C2.156-1.656 1.516-.969 1.125-.969c-.14 0-.078-.015-.078-.344 0-.765.297-2.093.719-3.093.296-.688.453-.766 1.03-.766.282 0 .5.047.86.172zm0 0"/></svg><svg overflow="visible" x="69.139" y="30.178"><path d="M4.203-7.828a.735.735 0 01-.187-.14c-.063-.063-.11-.126-.22-.329-1.593 1.61-2.5 3.266-2.5 4.781v.797c0 1.516.907 3.172 2.5 4.781.11-.203.157-.265.22-.328.062-.062.125-.109.312-.203C2.875.063 2.281-1.344 2.281-2.719v-.797c0-1.39.594-2.78 2.047-4.25zm0 0"/></svg><svg overflow="visible" x="74.208" y="30.178"><path d="M5.125-.094v-.484l-.75-.047c-.656-.031-.64-.031-.64-.656v-7.172l-.313-.125c-.875.469-1.61.781-2.86 1.219l.125.718h.235l1.547-.687.031-.016c.063 0-.047-.015-.047.266v5.797c0 .625.016.625-.64.656L1-.578v.625L3.125 0l2 .047zm0 0"/></svg><svg overflow="visible" x="82.84" y="30.178"><path d="M8.266-2.766a1.332 1.332 0 01-.047-.359c0-.11.015-.234.062-.484h-7.5c.063.25.063.375.063.484 0 .125 0 .25-.063.5h7.5zm0 0"/></svg><svg overflow="visible" x="94.592" y="30.178"><path d="M3.703-5.516c-.453.047-.86.063-1.156.063.172-.984.297-1.578.531-2.25l-.25-.328a7.16 7.16 0 01-1.094.531l-.296 2.031c-.391.203-.704.328-1.063.407l-.047.406h1l-.64 3.25C.625-1.11.53-.813.53-.5c0 .297.266.61.5.61.422 0 .922-.282 1.86-1.032.218-.172.14-.125.437-.36l-.25-.437-.672.469c-.36.25-.484.313-.625.313-.093 0-.031.046-.031-.11 0-.297.156-1.234.516-3l.14-.61h1.266l.203-.89zm0 0"/></svg><svg overflow="visible" x="98.633" y="30.178"><path d="M3.766-2.719v-.797c0-1.515-.907-3.171-2.516-4.78-.11.202-.156.265-.203.327-.063.063-.125.11-.313.203 1.438 1.47 2.032 2.86 2.032 4.25v.797c0 1.375-.594 2.781-2.032 4.25.188.094.25.14.313.203.047.063.094.125.203.329C2.86.452 3.766-1.204 3.766-2.72zm0 0"/></svg><svg overflow="visible" x="103.702" y="25.945"><path d="M4.75-.11c-.016-.187-.016-.265-.016-.39s0-.203.032-.547l-3.141.094 1.5-1.469c.938-.906 1.266-1.5 1.266-2.156 0-1.016-.891-1.781-2.125-1.781-.688 0-1.282.218-1.782.687L.297-4.266h.547l.172-.546c.156-.516.359-.594 1-.594.828 0 1.203.343 1.203 1.093 0 .657-.36 1.22-1.453 2.282L.078-.391v.422L2.391 0l2.375.031zm0 0"/></svg><svg overflow="visible" x="111.856" y="30.178"><path d="M8.266-2.766a1.332 1.332 0 01-.047-.359c0-.11.015-.234.062-.484h-3.25v-3.266c-.25.063-.375.078-.484.078-.125 0-.25-.016-.5-.078v3.266H.78c.063.25.063.375.063.484 0 .125 0 .25-.063.5h3.266V.641c.25-.063.375-.079.5-.079.11 0 .234.016.484.079v-3.266h3.25zm0 0"/></svg><svg overflow="visible" x="123.596" y="30.178"><path d="M5.719-.094c-.016-.25-.016-.375-.016-.547 0-.14 0-.265.031-.671l-4.28.125.093.234 2.187-2.313C4.891-4.5 5.281-5.25 5.281-6.14 5.281-7.516 4.22-8.5 2.703-8.5c-.86 0-1.562.281-2.172.906L.312-5.766h.594l.188-.687c.203-.688.5-.86 1.297-.86 1.03 0 1.546.516 1.546 1.532 0 .89-.468 1.687-1.828 3.11L.047-.454v.5L2.859 0l2.875.047zm0 0"/></svg><svg overflow="visible" x="129.574" y="30.178"><path d="M5.313-4.625c0-.453-.157-1.016-.297-1.203-.079-.094-.329-.203-.516-.203-.281 0-.75.14-1.078.312-.61.313-1 .672-1.75 1.625L1.906-4l1.047-4.813-.265-.234c-.75.375-1.079.438-2.047.531l-.11.5h.75c.282 0 .266-.046.266.157 0 .093-.016.218-.031.296L.312-.984C.297-.938.297-.891.297-.86c0 .468.719.984 1.375.984.437 0 1.156-.25 1.656-.625 1.156-.813 1.985-2.547 1.985-4.125zm-1.141.281c0 .766-.25 1.797-.61 2.578-.39.829-.734 1.079-1.374 1.079-.547 0-.72-.157-.72-.657 0-.297.048-.625.157-1.078.234-.953.484-1.422.953-1.922.39-.406.922-.718 1.266-.718.312 0 .328.14.328.718zm0 0"/></svg><svg overflow="visible" x="135.109" y="30.178"><path d="M4.203-7.828a.735.735 0 01-.187-.14c-.063-.063-.11-.126-.22-.329-1.593 1.61-2.5 3.266-2.5 4.781v.797c0 1.516.907 3.172 2.5 4.781.11-.203.157-.265.22-.328.062-.062.125-.109.312-.203C2.875.063 2.281-1.344 2.281-2.719v-.797c0-1.39.594-2.78 2.047-4.25zm0 0"/></svg><svg overflow="visible" x="140.178" y="30.178"><path d="M5.125-.094v-.484l-.75-.047c-.656-.031-.64-.031-.64-.656v-7.172l-.313-.125c-.875.469-1.61.781-2.86 1.219l.125.718h.235l1.547-.687.031-.016c.063 0-.047-.015-.047.266v5.797c0 .625.016.625-.64.656L1-.578v.625L3.125 0l2 .047zm0 0"/></svg><svg overflow="visible" x="148.81" y="30.178"><path d="M8.266-2.766a1.332 1.332 0 01-.047-.359c0-.11.015-.234.062-.484h-7.5c.063.25.063.375.063.484 0 .125 0 .25-.063.5h7.5zm0 0"/></svg><svg overflow="visible" x="160.55" y="30.178"><path d="M3.703-5.516c-.453.047-.86.063-1.156.063.172-.984.297-1.578.531-2.25l-.25-.328a7.16 7.16 0 01-1.094.531l-.296 2.031c-.391.203-.704.328-1.063.407l-.047.406h1l-.64 3.25C.625-1.11.53-.813.53-.5c0 .297.266.61.5.61.422 0 .922-.282 1.86-1.032.218-.172.14-.125.437-.36l-.25-.437-.672.469c-.36.25-.484.313-.625.313-.093 0-.031.046-.031-.11 0-.297.156-1.234.516-3l.14-.61h1.266l.203-.89zm0 0"/></svg><svg overflow="visible" x="164.59" y="30.178"><path d="M3.766-2.719v-.797c0-1.515-.907-3.171-2.516-4.78-.11.202-.156.265-.203.327-.063.063-.125.11-.313.203 1.438 1.47 2.032 2.86 2.032 4.25v.797c0 1.375-.594 2.781-2.032 4.25.188.094.25.14.313.203.047.063.094.125.203.329C2.86.452 3.766-1.204 3.766-2.72zm0 0"/></svg><svg overflow="visible" x="169.659" y="30.178"><path d="M3.703-5.516c-.453.047-.86.063-1.156.063.172-.984.297-1.578.531-2.25l-.25-.328a7.16 7.16 0 01-1.094.531l-.296 2.031c-.391.203-.704.328-1.063.407l-.047.406h1l-.64 3.25C.625-1.11.53-.813.53-.5c0 .297.266.61.5.61.422 0 .922-.282 1.86-1.032.218-.172.14-.125.437-.36l-.25-.437-.672.469c-.36.25-.484.313-.625.313-.093 0-.031.046-.031-.11 0-.297.156-1.234.516-3l.14-.61h1.266l.203-.89zm0 0"/></svg><svg overflow="visible" x="176.354" y="30.178"><path d="M8.266-2.766a1.332 1.332 0 01-.047-.359c0-.11.015-.234.062-.484h-3.25v-3.266c-.25.063-.375.078-.484.078-.125 0-.25-.016-.5-.078v3.266H.78c.063.25.063.375.063.484 0 .125 0 .25-.063.5h3.266V.641c.25-.063.375-.079.5-.079.11 0 .234.016.484.079v-3.266h3.25zm0 0"/></svg><svg overflow="visible" x="188.106" y="30.178"><path d="M4.75-5.703c-.297-.188-.797-.328-1.25-.328-.531 0-1.484.468-2.172 1.062C.641-4.375.156-3.03.156-1.75.156-.61.796.125 1.75.125c.656 0 1.328-.266 1.984-.813l.657-.53-.204-.485-.343.219c-.86.578-1.203.75-1.625.75-.672 0-.875-.36-.875-1.297 0-1.266.36-2.406.937-2.875.25-.203.453-.266.844-.266.531 0 .813.094.813.375v.86h.546c.11-.922.188-1.36.329-1.735zm0 0"/></svg><svg overflow="visible" x="193.092" y="30.178"><path d="M3.703-5.516c-.453.047-.86.063-1.156.063.172-.984.297-1.578.531-2.25l-.25-.328a7.16 7.16 0 01-1.094.531l-.296 2.031c-.391.203-.704.328-1.063.407l-.047.406h1l-.64 3.25C.625-1.11.53-.813.53-.5c0 .297.266.61.5.61.422 0 .922-.282 1.86-1.032.218-.172.14-.125.437-.36l-.25-.437-.672.469c-.36.25-.484.313-.625.313-.093 0-.031.046-.031-.11 0-.297.156-1.234.516-3l.14-.61h1.266l.203-.89zm0 0"/></svg><svg overflow="visible" x="197.135" y="25.945"><path d="M4.75-.11c-.016-.187-.016-.265-.016-.39s0-.203.032-.547l-3.141.094 1.5-1.469c.938-.906 1.266-1.5 1.266-2.156 0-1.016-.891-1.781-2.125-1.781-.688 0-1.282.218-1.782.687L.297-4.266h.547l.172-.546c.156-.516.359-.594 1-.594.828 0 1.203.343 1.203 1.093 0 .657-.36 1.22-1.453 2.282L.078-.391v.422L2.391 0l2.375.031zm0 0"/></svg><svg overflow="visible" x="207.613" y="30.178"><path d="M4.297 2.266c-.89-.25-1.172-.72-1.172-1.485v-2.078c0-.922-.375-1.61-.781-1.828.406-.203.781-.906.781-1.828v-2.078c0-.766.281-1.235 1.36-1.516-.141-.234-.141-.234-.157-.297-.031-.078-.031-.172-.031-.406-1.36.36-2.219 1.172-2.219 2.219v2.078c0 .984-.219 1.469-1.297 1.469.078.203.094.28.094.359 0 .094-.016.172-.094.375 1.078 0 1.297.484 1.297 1.453V.781c0 1.063.86 1.875 2.219 2.25 0-.265 0-.344.031-.422.016-.078.016-.062.156-.296zm0 0"/></svg><svg overflow="visible" x="212.885" y="30.178"><path d="M4.984-1.14l-.156-.485c-.25.203-.266.219-.328.266-.375.312-.453.39-.625.39-.125 0-.047.031-.047-.156 0-.047 0-.078.016-.125l1.11-4.578-.25-.203-.438.218c-.438-.156-.672-.218-.985-.218-.344 0-.578.062-.906.218-.75.375-1.234.766-1.531 1.36l-.047.094C.28-3.297-.093-1.875-.093-.922c0 .516.327 1.047.546 1.047.25 0 .797-.281 1.234-.656.516-.453.985-1.016 1.641-1.938l-.234-.094-.344 1.516a2.715 2.715 0 00-.078.61c0 .265.25.562.437.562.266 0 .86-.36 1.891-1.219zM3.672-5.079c-.266 1.281-.453 1.797-.844 2.406C2.156-1.656 1.516-.969 1.125-.969c-.14 0-.078-.015-.078-.344 0-.765.297-2.093.719-3.093.296-.688.453-.766 1.03-.766.282 0 .5.047.86.172zm0 0"/></svg><svg overflow="visible" x="221.505" y="30.178"><path d="M8.266-4.078a1.419 1.419 0 01-.047-.36c0-.109.015-.234.062-.484h-7.5c.063.25.063.375.063.484 0 .125 0 .235-.063.5h7.5zm0 2.625a1.332 1.332 0 01-.047-.36c0-.109.015-.234.062-.484h-7.5c.063.25.063.375.063.485 0 .125 0 .25-.063.5h7.5zm0 0"/></svg><svg overflow="visible" x="233.914" y="30.178"><path d="M5.656-2.813c0-.562-.281-1.171-.703-1.468-.297-.219-.672-.344-.953-.407.734-.562 1.125-1.203 1.125-1.906 0-1.062-1.016-1.906-2.344-1.906-.812 0-1.453.266-2.047.86L.328-5.954h.64l.266-.797c.125-.406.75-.688 1.375-.688.766 0 1.266.5 1.266 1.25 0 .907-.563 1.532-1.406 1.532-.11 0-.469.187-.469.187l-.25-.093-.14.671.202.188C2.297-3.938 2.516-4 2.845-4c1 0 1.422.516 1.422 1.594 0 1.219-.579 1.89-1.704 1.89-.546 0-.937-.14-1.296-.468C.984-1.25.859-1.438.578-2.25l-.562.219C.28-1.234.375-.797.469-.11c.765.25 1.281.343 1.734.343.953 0 2.14-.562 2.813-1.375.406-.484.64-1.109.64-1.671zm0 0"/></svg><svg overflow="visible" x="239.892" y="30.178"><path d="M4.203-7.828a.735.735 0 01-.187-.14c-.063-.063-.11-.126-.22-.329-1.593 1.61-2.5 3.266-2.5 4.781v.797c0 1.516.907 3.172 2.5 4.781.11-.203.157-.265.22-.328.062-.062.125-.109.312-.203C2.875.063 2.281-1.344 2.281-2.719v-.797c0-1.39.594-2.78 2.047-4.25zm0 0"/></svg><svg overflow="visible" x="244.961" y="30.178"><path d="M5.875-5.875c-.14-.078-.344-.156-.453-.156-.469 0-1.063.468-1.797 1.578l-.453.656.25.094-.078-.578c-.14-1.188-.594-1.75-1.297-1.75-.313 0-.688.14-.797.297L.484-4.61l.407.25c.437-.485.578-.61.812-.61.39 0 .516.36.719 1.532l.125.718-.438.656C1.594-1.25 1.297-.905.953-.905c-.172 0-.172.078-.203.015l-.188-.468-.453.062c0 .36-.03.516-.093.89-.032.141-.047.173-.063.329.219.125.531.203.672.203.39 0 .953-.375 1.328-.938l.906-1.406-.234-.094.125.829c.172 1.015.578 1.609 1 1.609.266 0 .75-.234 1.125-.578l.64-.578-.218-.469c-.578.453-.766.61-.953.61-.188 0-.25-.094-.453-.5.015.046-.11-.407-.172-.75L3.5-3.313l.39-.532c.563-.765.782-1.015 1.157-1.015.187 0 .187-.032.312.312l.36-.11.203-1.171zm0 0"/></svg><svg overflow="visible" x="250.946" y="32.952"><path d="M4.75-.11c-.016-.187-.016-.265-.016-.39s0-.203.032-.547l-3.141.094 1.5-1.469c.938-.906 1.266-1.5 1.266-2.156 0-1.016-.891-1.781-2.125-1.781-.688 0-1.282.218-1.782.687L.297-4.266h.547l.172-.546c.156-.516.359-.594 1-.594.828 0 1.203.343 1.203 1.093 0 .657-.36 1.22-1.453 2.282L.078-.391v.422L2.391 0l2.375.031zm0 0"/></svg><svg overflow="visible" x="259.099" y="30.178"><path d="M8.266-2.766a1.332 1.332 0 01-.047-.359c0-.11.015-.234.062-.484h-7.5c.063.25.063.375.063.484 0 .125 0 .25-.063.5h7.5zm0 0"/></svg><svg overflow="visible" x="270.839" y="30.178"><path d="M5.875-5.875c-.14-.078-.344-.156-.453-.156-.469 0-1.063.468-1.797 1.578l-.453.656.25.094-.078-.578c-.14-1.188-.594-1.75-1.297-1.75-.313 0-.688.14-.797.297L.484-4.61l.407.25c.437-.485.578-.61.812-.61.39 0 .516.36.719 1.532l.125.718-.438.656C1.594-1.25 1.297-.905.953-.905c-.172 0-.172.078-.203.015l-.188-.468-.453.062c0 .36-.03.516-.093.89-.032.141-.047.173-.063.329.219.125.531.203.672.203.39 0 .953-.375 1.328-.938l.906-1.406-.234-.094.125.829c.172 1.015.578 1.609 1 1.609.266 0 .75-.234 1.125-.578l.64-.578-.218-.469c-.578.453-.766.61-.953.61-.188 0-.25-.094-.453-.5.015.046-.11-.407-.172-.75L3.5-3.313l.39-.532c.563-.765.782-1.015 1.157-1.015.187 0 .187-.032.312.312l.36-.11.203-1.171zm0 0"/></svg><svg overflow="visible" x="276.82" y="32.952"><path d="M4.266-.11V-.5l-.657-.031c-.515-.031-.468.015-.468-.453v-5.329l-.282-.093c-.625.297-1.312.562-2.375.906l.11.594h.234l1.25-.516.031-.016c.047 0-.078-.046-.078.172v4.282c0 .468.047.421-.469.453L.86-.5v.531L2.594 0l1.672.031zm0 0"/></svg><svg overflow="visible" x="282.316" y="30.178"><path d="M3.766-2.719v-.797c0-1.515-.907-3.171-2.516-4.78-.11.202-.156.265-.203.327-.063.063-.125.11-.313.203 1.438 1.47 2.032 2.86 2.032 4.25v.797c0 1.375-.594 2.781-2.032 4.25.188.094.25.14.313.203.047.063.094.125.203.329C2.86.452 3.766-1.204 3.766-2.72zm0 0"/></svg><svg overflow="visible" x="287.385" y="30.178"><path d="M2.703-1.531L2.47-1.75c-.36.125-.563.203-1.328.406C1.047-.328.78.344.016 1.625l.312.25.61-.281C1.905.328 2.405-.516 2.75-1.47zm0 0"/></svg><svg overflow="visible" x="292.358" y="30.178"><path d="M5.313-4.625c0-.453-.157-1.016-.297-1.203-.079-.094-.329-.203-.516-.203-.281 0-.75.14-1.078.312-.61.313-1 .672-1.75 1.625L1.906-4l1.047-4.813-.265-.234c-.75.375-1.079.438-2.047.531l-.11.5h.75c.282 0 .266-.046.266.157 0 .093-.016.218-.031.296L.312-.984C.297-.938.297-.891.297-.86c0 .468.719.984 1.375.984.437 0 1.156-.25 1.656-.625 1.156-.813 1.985-2.547 1.985-4.125zm-1.141.281c0 .766-.25 1.797-.61 2.578-.39.829-.734 1.079-1.374 1.079-.547 0-.72-.157-.72-.657 0-.297.048-.625.157-1.078.234-.953.484-1.422.953-1.922.39-.406.922-.718 1.266-.718.312 0 .328.14.328.718zm0 0"/></svg><svg overflow="visible" x="301.217" y="30.178"><path d="M8.266-4.078a1.419 1.419 0 01-.047-.36c0-.109.015-.234.062-.484h-7.5c.063.25.063.375.063.484 0 .125 0 .235-.063.5h7.5zm0 2.625a1.332 1.332 0 01-.047-.36c0-.109.015-.234.062-.484h-7.5c.063.25.063.375.063.485 0 .125 0 .25-.063.5h7.5zm0 0"/></svg><svg overflow="visible" x="313.627" y="30.178"><path d="M5.656-2.813c0-.562-.281-1.171-.703-1.468-.297-.219-.672-.344-.953-.407.734-.562 1.125-1.203 1.125-1.906 0-1.062-1.016-1.906-2.344-1.906-.812 0-1.453.266-2.047.86L.328-5.954h.64l.266-.797c.125-.406.75-.688 1.375-.688.766 0 1.266.5 1.266 1.25 0 .907-.563 1.532-1.406 1.532-.11 0-.469.187-.469.187l-.25-.093-.14.671.202.188C2.297-3.938 2.516-4 2.845-4c1 0 1.422.516 1.422 1.594 0 1.219-.579 1.89-1.704 1.89-.546 0-.937-.14-1.296-.468C.984-1.25.859-1.438.578-2.25l-.562.219C.28-1.234.375-.797.469-.11c.765.25 1.281.343 1.734.343.953 0 2.14-.562 2.813-1.375.406-.484.64-1.109.64-1.671zm0 0"/></svg><svg overflow="visible" x="319.604" y="30.178"><path d="M4.203-7.828a.735.735 0 01-.187-.14c-.063-.063-.11-.126-.22-.329-1.593 1.61-2.5 3.266-2.5 4.781v.797c0 1.516.907 3.172 2.5 4.781.11-.203.157-.265.22-.328.062-.062.125-.109.312-.203C2.875.063 2.281-1.344 2.281-2.719v-.797c0-1.39.594-2.78 2.047-4.25zm0 0"/></svg><svg overflow="visible" x="324.673" y="30.178"><path d="M5.875-5.875c-.14-.078-.344-.156-.453-.156-.469 0-1.063.468-1.797 1.578l-.453.656.25.094-.078-.578c-.14-1.188-.594-1.75-1.297-1.75-.313 0-.688.14-.797.297L.484-4.61l.407.25c.437-.485.578-.61.812-.61.39 0 .516.36.719 1.532l.125.718-.438.656C1.594-1.25 1.297-.905.953-.905c-.172 0-.172.078-.203.015l-.188-.468-.453.062c0 .36-.03.516-.093.89-.032.141-.047.173-.063.329.219.125.531.203.672.203.39 0 .953-.375 1.328-.938l.906-1.406-.234-.094.125.829c.172 1.015.578 1.609 1 1.609.266 0 .75-.234 1.125-.578l.64-.578-.218-.469c-.578.453-.766.61-.953.61-.188 0-.25-.094-.453-.5.015.046-.11-.407-.172-.75L3.5-3.313l.39-.532c.563-.765.782-1.015 1.157-1.015.187 0 .187-.032.312.312l.36-.11.203-1.171zm0 0"/></svg><svg overflow="visible" x="330.654" y="32.952"><path d="M4.703-2.11c0-.421-.25-.89-.594-1.124a2.225 2.225 0 00-.703-.282c.531-.375.86-.875.86-1.406 0-.781-.86-1.437-1.938-1.437-.64 0-1.203.203-1.687.656L.312-4.406h.594l.219-.625c.11-.297.563-.469 1.063-.469.624 0 .984.328.984.89 0 .673-.406 1.094-1.094 1.094-.078 0-.36.204-.36.204l-.265-.094-.125.515.203.157c.407-.172.594-.22.844-.22.813 0 1.11.329 1.11 1.142 0 .906-.422 1.359-1.329 1.359-.437 0-.719-.094-1.015-.344C.906-.984.828-1.094.578-1.75l-.531.188c.234.609.312.937.375 1.468C1.078.11 1.5.172 1.859.172c.782 0 1.766-.422 2.297-1.016.328-.375.547-.86.547-1.265zm0 0"/></svg><svg overflow="visible" x="338.808" y="30.178"><path d="M8.266-2.766a1.332 1.332 0 01-.047-.359c0-.11.015-.234.062-.484h-7.5c.063.25.063.375.063.484 0 .125 0 .25-.063.5h7.5zm0 0"/></svg><svg overflow="visible" x="350.548" y="30.178"><path d="M5.875-5.875c-.14-.078-.344-.156-.453-.156-.469 0-1.063.468-1.797 1.578l-.453.656.25.094-.078-.578c-.14-1.188-.594-1.75-1.297-1.75-.313 0-.688.14-.797.297L.484-4.61l.407.25c.437-.485.578-.61.812-.61.39 0 .516.36.719 1.532l.125.718-.438.656C1.594-1.25 1.297-.905.953-.905c-.172 0-.172.078-.203.015l-.188-.468-.453.062c0 .36-.03.516-.093.89-.032.141-.047.173-.063.329.219.125.531.203.672.203.39 0 .953-.375 1.328-.938l.906-1.406-.234-.094.125.829c.172 1.015.578 1.609 1 1.609.266 0 .75-.234 1.125-.578l.64-.578-.218-.469c-.578.453-.766.61-.953.61-.188 0-.25-.094-.453-.5.015.046-.11-.407-.172-.75L3.5-3.313l.39-.532c.563-.765.782-1.015 1.157-1.015.187 0 .187-.032.312.312l.36-.11.203-1.171zm0 0"/></svg><svg overflow="visible" x="356.529" y="32.952"><path d="M4.75-.11c-.016-.187-.016-.265-.016-.39s0-.203.032-.547l-3.141.094 1.5-1.469c.938-.906 1.266-1.5 1.266-2.156 0-1.016-.891-1.781-2.125-1.781-.688 0-1.282.218-1.782.687L.297-4.266h.547l.172-.546c.156-.516.359-.594 1-.594.828 0 1.203.343 1.203 1.093 0 .657-.36 1.22-1.453 2.282L.078-.391v.422L2.391 0l2.375.031zm0 0"/></svg><svg overflow="visible" x="362.025" y="30.178"><path d="M3.766-2.719v-.797c0-1.515-.907-3.171-2.516-4.78-.11.202-.156.265-.203.327-.063.063-.125.11-.313.203 1.438 1.47 2.032 2.86 2.032 4.25v.797c0 1.375-.594 2.781-2.032 4.25.188.094.25.14.313.203.047.063.094.125.203.329C2.86.452 3.766-1.204 3.766-2.72zm0 0"/></svg><svg overflow="visible" x="367.094" y="30.178"><path d="M2.703-1.531L2.47-1.75c-.36.125-.563.203-1.328.406C1.047-.328.78.344.016 1.625l.312.25.61-.281C1.905.328 2.405-.516 2.75-1.47zm0 0"/></svg><g><svg overflow="visible" x="372.067" y="30.178"><path d="M4.75-5.703c-.297-.188-.797-.328-1.25-.328-.531 0-1.484.468-2.172 1.062C.641-4.375.156-3.03.156-1.75.156-.61.796.125 1.75.125c.656 0 1.328-.266 1.984-.813l.657-.53-.204-.485-.343.219c-.86.578-1.203.75-1.625.75-.672 0-.875-.36-.875-1.297 0-1.266.36-2.406.937-2.875.25-.203.453-.266.844-.266.531 0 .813.094.813.375v.86h.546c.11-.922.188-1.36.329-1.735zm0 0"/></svg></g><g><svg overflow="visible" x="380.376" y="30.178"><path d="M8.266-4.078a1.419 1.419 0 01-.047-.36c0-.109.015-.234.062-.484h-7.5c.063.25.063.375.063.484 0 .125 0 .235-.063.5h7.5zm0 2.625a1.332 1.332 0 01-.047-.36c0-.109.015-.234.062-.484h-7.5c.063.25.063.375.063.485 0 .125 0 .25-.063.5h7.5zm0 0"/></svg></g><g><svg overflow="visible" x="392.786" y="30.178"><path d="M5.656-2.813c0-.562-.281-1.171-.703-1.468-.297-.219-.672-.344-.953-.407.734-.562 1.125-1.203 1.125-1.906 0-1.062-1.016-1.906-2.344-1.906-.812 0-1.453.266-2.047.86L.328-5.954h.64l.266-.797c.125-.406.75-.688 1.375-.688.766 0 1.266.5 1.266 1.25 0 .907-.563 1.532-1.406 1.532-.11 0-.469.187-.469.187l-.25-.093-.14.671.202.188C2.297-3.938 2.516-4 2.845-4c1 0 1.422.516 1.422 1.594 0 1.219-.579 1.89-1.704 1.89-.546 0-.937-.14-1.296-.468C.984-1.25.859-1.438.578-2.25l-.562.219C.28-1.234.375-.797.469-.11c.765.25 1.281.343 1.734.343.953 0 2.14-.562 2.813-1.375.406-.484.64-1.109.64-1.671zm0 0"/></svg><svg overflow="visible" x="398.763" y="30.178"><path d="M4.203-7.828a.735.735 0 01-.187-.14c-.063-.063-.11-.126-.22-.329-1.593 1.61-2.5 3.266-2.5 4.781v.797c0 1.516.907 3.172 2.5 4.781.11-.203.157-.265.22-.328.062-.062.125-.109.312-.203C2.875.063 2.281-1.344 2.281-2.719v-.797c0-1.39.594-2.78 2.047-4.25zm0 0"/></svg><svg overflow="visible" x="403.832" y="30.178"><path d="M5.875-5.875c-.14-.078-.344-.156-.453-.156-.469 0-1.063.468-1.797 1.578l-.453.656.25.094-.078-.578c-.14-1.188-.594-1.75-1.297-1.75-.313 0-.688.14-.797.297L.484-4.61l.407.25c.437-.485.578-.61.812-.61.39 0 .516.36.719 1.532l.125.718-.438.656C1.594-1.25 1.297-.905.953-.905c-.172 0-.172.078-.203.015l-.188-.468-.453.062c0 .36-.03.516-.093.89-.032.141-.047.173-.063.329.219.125.531.203.672.203.39 0 .953-.375 1.328-.938l.906-1.406-.234-.094.125.829c.172 1.015.578 1.609 1 1.609.266 0 .75-.234 1.125-.578l.64-.578-.218-.469c-.578.453-.766.61-.953.61-.188 0-.25-.094-.453-.5.015.046-.11-.407-.172-.75L3.5-3.313l.39-.532c.563-.765.782-1.015 1.157-1.015.187 0 .187-.032.312.312l.36-.11.203-1.171zm0 0"/></svg></g><g><svg overflow="visible" x="409.813" y="32.952"><path d="M4.781-.11V-.5l-.61-.031c-.468-.031-.421-.016-.421-.531v-.532c.422 0 .625 0 1.031.047v-.781l-.047.094s-.562-.204-.875-.204H3.75V-3.53c0-1.578.016-2.328.078-2.766l-.281-.11-.813.282-2.796 4.172.187.36h2.5v.53c0 .516.047.516-.422.532l-.75.031v.531L3.172 0l1.61.031zm-2-2.328H.97L2.89-5.312l-.266-.094v2.968zm0 0"/></svg></g><g><svg overflow="visible" x="417.967" y="30.178"><path d="M8.266-2.766a1.332 1.332 0 01-.047-.359c0-.11.015-.234.062-.484h-7.5c.063.25.063.375.063.484 0 .125 0 .25-.063.5h7.5zm0 0"/></svg></g><g><svg overflow="visible" x="429.707" y="30.178"><path d="M5.875-5.875c-.14-.078-.344-.156-.453-.156-.469 0-1.063.468-1.797 1.578l-.453.656.25.094-.078-.578c-.14-1.188-.594-1.75-1.297-1.75-.313 0-.688.14-.797.297L.484-4.61l.407.25c.437-.485.578-.61.812-.61.39 0 .516.36.719 1.532l.125.718-.438.656C1.594-1.25 1.297-.905.953-.905c-.172 0-.172.078-.203.015l-.188-.468-.453.062c0 .36-.03.516-.093.89-.032.141-.047.173-.063.329.219.125.531.203.672.203.39 0 .953-.375 1.328-.938l.906-1.406-.234-.094.125.829c.172 1.015.578 1.609 1 1.609.266 0 .75-.234 1.125-.578l.64-.578-.218-.469c-.578.453-.766.61-.953.61-.188 0-.25-.094-.453-.5.015.046-.11-.407-.172-.75L3.5-3.313l.39-.532c.563-.765.782-1.015 1.157-1.015.187 0 .187-.032.312.312l.36-.11.203-1.171zm0 0"/></svg></g><g><svg overflow="visible" x="435.687" y="32.952"><path d="M4.703-2.11c0-.421-.25-.89-.594-1.124a2.225 2.225 0 00-.703-.282c.531-.375.86-.875.86-1.406 0-.781-.86-1.437-1.938-1.437-.64 0-1.203.203-1.687.656L.312-4.406h.594l.219-.625c.11-.297.563-.469 1.063-.469.624 0 .984.328.984.89 0 .673-.406 1.094-1.094 1.094-.078 0-.36.204-.36.204l-.265-.094-.125.515.203.157c.407-.172.594-.22.844-.22.813 0 1.11.329 1.11 1.142 0 .906-.422 1.359-1.329 1.359-.437 0-.719-.094-1.015-.344C.906-.984.828-1.094.578-1.75l-.531.188c.234.609.312.937.375 1.468C1.078.11 1.5.172 1.859.172c.782 0 1.766-.422 2.297-1.016.328-.375.547-.86.547-1.265zm0 0"/></svg></g><g><svg overflow="visible" x="441.184" y="30.178"><path d="M3.766-2.719v-.797c0-1.515-.907-3.171-2.516-4.78-.11.202-.156.265-.203.327-.063.063-.125.11-.313.203 1.438 1.47 2.032 2.86 2.032 4.25v.797c0 1.375-.594 2.781-2.032 4.25.188.094.25.14.313.203.047.063.094.125.203.329C2.86.452 3.766-1.204 3.766-2.72zm0 0"/></svg><svg overflow="visible" x="446.253" y="30.178"><path d="M4.422-2.875c-.016-.078-.031-.156-.031-.25 0-.078.015-.156.078-.36-1.047 0-1.297-.484-1.297-1.468v-2.078c0-1.047-.844-1.86-2.235-2.235.032.25.016.344 0 .422-.03.063-.015.063-.203.281 1.141.297 1.407.766 1.407 1.532v2.078c0 .922.375 1.625.78 1.828-.405.219-.78.906-.78 1.828V.781c0 .766-.266 1.235-1.407 1.531.188.235.172.22.204.297.015.079.03.157 0 .422 1.39-.375 2.234-1.187 2.234-2.25v-2.078c0-.969.25-1.453 1.297-1.453zm0 0"/></svg></g><g><svg overflow="visible" x=".475" y="49.395"><path d="M.313.031C.671.016 1.046 0 1.405 0c.64 0 1.266.031 1.922.031.563 0 1.25-.156 1.813-.5.937-.562 1.515-1.469 1.515-2.375 0-.515-.218-1-.531-1.265-.313-.25-.797-.391-1.625-.516v.266c.688-.25 1.094-.438 1.469-.75.547-.485.875-1.125.875-1.735 0-.984-1.125-1.687-2.047-1.687-.594 0-1.203.031-1.797.031-.61 0-1.203-.016-1.969-.047l-.062.61.828.03c.281 0 .234-.03.234.188 0 .172-.047.547-.11.907L.892-.782c-.047.204-.016.157-.672.266l-.11.579zm1.843-.656l.578-3.438h.875c1.235 0 1.657.375 1.657 1.407 0 1.234-.704 1.984-1.891 1.984-.25 0-.594-.015-.984-.047-.079-.015-.22-.015-.22-.015zm.672-4l.563-3.14c.187 0 .5-.063.812-.063.969 0 1.266.297 1.266 1.187 0 1.266-.703 1.891-2.188 1.891H2.86zm0 0"/></svg><svg overflow="visible" x="7.78" y="49.395"><path d="M0-1.469C0-.547.703.125 1.563.125c.687 0 1.468-.36 2.64-1.313L4-1.688l-.5.344c-.625.453-1.078.657-1.5.657-.578 0-.75-.313-.75-1.047 0-.313.031-.61.078-.86l.828-.203c.203-.047.516-.172.828-.297C4-3.547 4.641-4.219 4.641-4.954c0-.562-.563-1.077-1.172-1.077-.781 0-2.219.843-2.688 1.61C.421-3.845 0-2.313 0-1.47zm1.406-1.5l.11-.437c.187-.797.39-1.219.703-1.516.234-.219.5-.344.797-.344.343 0 .39.11.39.5 0 .516-.234.954-.86 1.25a6.042 6.042 0 01-1.093.375zm.485-3.375h.453l2-1.25c.265-.156.39-.36.39-.531 0-.188-.39-.5-.625-.5-.109 0-.375.11-.53.25L1.53-6.344zm0 0"/></svg><svg overflow="visible" x="12.43" y="49.395"><path d="M-.188-.375L0 .203c.563-.437.766-.516 1.188-.516.296 0 .625.047 1.25.204.718.171 1.093.234 1.406.234.156 0 .25-.016.75-.156.156-.828.25-1.235.422-1.922h-.61l-.312.844c-.078.218-.032.171-.282.171-.265 0-.53-.078-.796-.14-.391-.078-.797-.14-1.032-.14-.375 0-.703.077-1.14.25l.125.234L5.062-5.36l.079-.47-.282-.28-.406.39c-.11.125-.11.14-.266.14-.406 0-1.03-.093-1.609-.25-.312-.093-.625-.202-.953-.202-.203 0-.438.047-.89.156L.296-4.187h.562l.375-.72c.094-.015.204-.03.36-.03s.297.015.531.062c.406.078.719.125.969.125.437 0 .844-.11 1.234-.313l-.25-.203-4.281 4.86zm0 0"/></svg><svg overflow="visible" x="17.738" y="49.395"><path d="M.234-4.766l.157.47.593-.391c.36-.22.36-.235.47-.235.109 0 .015-.031.015.11 0 .109-.047.359-.094.53L.578-1.405c-.094.375-.14.672-.14.922 0 .28.296.593.53.593.313 0 .876-.296 2.11-1.218l-.265-.47-.5.329c-.36.234-.47.313-.594.313-.078 0 .015.03.015-.11 0-.11.016-.203.079-.469l.921-3.64c.047-.203.079-.313.079-.422 0-.203-.266-.453-.47-.453-.265 0-.827.281-1.734.922l-.39.296zm1.641-2.578c0 .297.36.625.656.625.375 0 .813-.484.813-.937 0-.282-.344-.61-.594-.61-.36 0-.875.516-.875.922zm0 0"/></svg><svg overflow="visible" x="21.062" y="49.395"><path d="M0-1.469C0-.547.703.125 1.563.125c.687 0 1.468-.36 2.64-1.313L4-1.688l-.5.344c-.625.453-1.078.657-1.5.657-.578 0-.75-.313-.75-1.047 0-.313.031-.61.078-.86l.828-.203c.203-.047.516-.172.828-.297C4-3.547 4.641-4.219 4.641-4.954c0-.562-.563-1.077-1.172-1.077-.781 0-2.219.843-2.688 1.61C.421-3.845 0-2.313 0-1.47zm1.406-1.5l.11-.437c.187-.797.39-1.219.703-1.516.234-.219.5-.344.797-.344.343 0 .39.11.39.5 0 .516-.234.954-.86 1.25a6.042 6.042 0 01-1.093.375zm0 0"/></svg><svg overflow="visible" x="25.712" y="49.395"><path d="M.125-4.766l.172.47.594-.391c.343-.22.359-.235.453-.235.125 0 .031-.031.031.125 0 .703-.516 3.156-1 4.734l.266.188a5.85 5.85 0 01.984-.219l.328-1.547c.219-.984.453-1.53.969-2.203.406-.531.61-.75.875-.75.187 0 .172.032.344.235h.406c.062-.594.11-.97.219-1.516-.313-.14-.36-.156-.422-.156-.36 0-.86.328-1.297.937-.406.594-.875 1.25-1.172 1.907h.344l.312-1.516c.063-.25.14-.531.14-.813 0-.234-.25-.515-.437-.515-.25 0-.828.297-1.718.922l-.391.296zm0 0"/></svg></g><g><svg overflow="visible" x="30.363" y="43.079"><path d="M2.594-4.672l-.203-.187-1.094.39-.89 3.36.312.234.5-.25 1.437-3.484zm0 0"/></svg><svg overflow="visible" x="33.433" y="43.079"><path d="M2.594-4.672l-.203-.187-1.094.39-.89 3.36.312.234.5-.25 1.437-3.484zm0 0"/></svg></g><g><svg overflow="visible" x="37.001" y="49.395"><path d="M4.203-7.828a.735.735 0 01-.187-.14c-.063-.063-.11-.126-.22-.329-1.593 1.61-2.5 3.266-2.5 4.781v.797c0 1.516.907 3.172 2.5 4.781.11-.203.157-.265.22-.328.062-.062.125-.109.312-.203C2.875.063 2.281-1.344 2.281-2.719v-.797c0-1.39.594-2.78 2.047-4.25zm0 0"/></svg><svg overflow="visible" x="42.07" y="49.395"><path d="M3.703-5.516c-.453.047-.86.063-1.156.063.172-.984.297-1.578.531-2.25l-.25-.328a7.16 7.16 0 01-1.094.531l-.296 2.031c-.391.203-.704.328-1.063.407l-.047.406h1l-.64 3.25C.625-1.11.53-.813.53-.5c0 .297.266.61.5.61.422 0 .922-.282 1.86-1.032.218-.172.14-.125.437-.36l-.25-.437-.672.469c-.36.25-.484.313-.625.313-.093 0-.031.046-.031-.11 0-.297.156-1.234.516-3l.14-.61h1.266l.203-.89zm0 0"/></svg></g><g><svg overflow="visible" x="46.099" y="49.395"><path d="M3.766-2.719v-.797c0-1.515-.907-3.171-2.516-4.78-.11.202-.156.265-.203.327-.063.063-.125.11-.313.203 1.438 1.47 2.032 2.86 2.032 4.25v.797c0 1.375-.594 2.781-2.032 4.25.188.094.25.14.313.203.047.063.094.125.203.329C2.86.452 3.766-1.204 3.766-2.72zm0 0"/></svg></g><g><svg overflow="visible" x="54.491" y="49.395"><path d="M8.266-4.078a1.419 1.419 0 01-.047-.36c0-.109.015-.234.062-.484h-7.5c.063.25.063.375.063.484 0 .125 0 .235-.063.5h7.5zm0 2.625a1.332 1.332 0 01-.047-.36c0-.109.015-.234.062-.484h-7.5c.063.25.063.375.063.485 0 .125 0 .25-.063.5h7.5zm0 0"/></svg></g><g><svg overflow="visible" x="66.901" y="49.395"><path d="M6.219-1.25l-.188-.297-.453.297c-.297.188-.469.281-.625.281-.094 0-.016.047-.016-.078 0-.14.032-.328.079-.469L6.03-5.828l-.187-.219-.985.25-.14.719c-.172.906-.422 1.61-.782 2.156-.703 1.11-1.546 1.953-2.03 1.953-.11 0-.032.031-.032-.172 0-.187.031-.312.078-.625l.688-3.25c.03-.187.062-.343.062-.5 0-.234-.234-.515-.39-.515-.25 0-.813.281-1.704.922l-.39.296.172.485.546-.36c.36-.218.375-.234.485-.234.125 0 .062-.031.062.11a.792.792 0 01-.03.203l-.75 3.562c-.016.11-.048.375-.048.563 0 .265.328.609.563.609.75 0 2.297-1.375 3.297-3.016l-.235-.093-.437 1.687c-.094.313-.14.61-.14.797 0 .297.28.625.5.625.312 0 .859-.313 2.077-1.234zm0 0"/></svg><svg overflow="visible" x="73.548" y="49.395"><path d="M4.203-7.828a.735.735 0 01-.187-.14c-.063-.063-.11-.126-.22-.329-1.593 1.61-2.5 3.266-2.5 4.781v.797c0 1.516.907 3.172 2.5 4.781.11-.203.157-.265.22-.328.062-.062.125-.109.312-.203C2.875.063 2.281-1.344 2.281-2.719v-.797c0-1.39.594-2.78 2.047-4.25zm0 0"/></svg><svg overflow="visible" x="78.617" y="49.395"><path d="M5.125-.094v-.484l-.75-.047c-.656-.031-.64-.031-.64-.656v-7.172l-.313-.125c-.875.469-1.61.781-2.86 1.219l.125.718h.235l1.547-.687.031-.016c.063 0-.047-.015-.047.266v5.797c0 .625.016.625-.64.656L1-.578v.625L3.125 0l2 .047zm0 0"/></svg></g><g><svg overflow="visible" x="87.249" y="49.395"><path d="M8.266-2.766a1.332 1.332 0 01-.047-.359c0-.11.015-.234.062-.484h-7.5c.063.25.063.375.063.484 0 .125 0 .25-.063.5h7.5zm0 0"/></svg></g><g><svg overflow="visible" x="99.001" y="49.395"><path d="M3.703-5.516c-.453.047-.86.063-1.156.063.172-.984.297-1.578.531-2.25l-.25-.328a7.16 7.16 0 01-1.094.531l-.296 2.031c-.391.203-.704.328-1.063.407l-.047.406h1l-.64 3.25C.625-1.11.53-.813.53-.5c0 .297.266.61.5.61.422 0 .922-.282 1.86-1.032.218-.172.14-.125.437-.36l-.25-.437-.672.469c-.36.25-.484.313-.625.313-.093 0-.031.046-.031-.11 0-.297.156-1.234.516-3l.14-.61h1.266l.203-.89zm0 0"/></svg></g><g><svg overflow="visible" x="103.042" y="49.395"><path d="M3.766-2.719v-.797c0-1.515-.907-3.171-2.516-4.78-.11.202-.156.265-.203.327-.063.063-.125.11-.313.203 1.438 1.47 2.032 2.86 2.032 4.25v.797c0 1.375-.594 2.781-2.032 4.25.188.094.25.14.313.203.047.063.094.125.203.329C2.86.452 3.766-1.204 3.766-2.72zm0 0"/></svg></g><g><svg overflow="visible" x="110.765" y="49.395"><path d="M8.266-2.766a1.332 1.332 0 01-.047-.359c0-.11.015-.234.062-.484h-3.25v-3.266c-.25.063-.375.078-.484.078-.125 0-.25-.016-.5-.078v3.266H.78c.063.25.063.375.063.484 0 .125 0 .25-.063.5h3.266V.641c.25-.063.375-.079.5-.079.11 0 .234.016.484.079v-3.266h3.25zm0 0"/></svg></g><g><svg overflow="visible" x="122.505" y="49.395"><path d="M5.828-4.719c0-.687-.437-1.312-.875-1.312-.14 0-.406.093-.5.187l-.656.625.25.453c.25-.171.266-.171.375-.171.328 0 .375.14.375.625 0 1.765-1.016 3.578-2.078 3.578-.578 0-.813-.36-.813-1.141 0-1.25.422-2.25 1.657-3.781l-.235-.407c-.281.141-.437.188-.765.188-.5 0-.985-.047-1.47-.094-.155 0-.25.032-.5.125-.155.328-.327.844-.515 1.64h.5l.266-.64c.094-.203.203-.203.484-.203.219 0 .438.031.656.031.25 0 .438-.015.75-.046l-.109-.235C1.297-3.859.765-2.766.765-1.578c0 .922.688 1.703 1.454 1.703.5 0 1.062-.25 1.61-.734C4.39-1.125 5-2.016 5.358-2.844c.266-.594.47-1.406.47-1.875zm0 0"/></svg></g><g><svg overflow="visible" x="128.542" y="49.395"><path d="M3.703-5.516c-.453.047-.86.063-1.156.063.172-.984.297-1.578.531-2.25l-.25-.328a7.16 7.16 0 01-1.094.531l-.296 2.031c-.391.203-.704.328-1.063.407l-.047.406h1l-.64 3.25C.625-1.11.53-.813.53-.5c0 .297.266.61.5.61.422 0 .922-.282 1.86-1.032.218-.172.14-.125.437-.36l-.25-.437-.672.469c-.36.25-.484.313-.625.313-.093 0-.031.046-.031-.11 0-.297.156-1.234.516-3l.14-.61h1.266l.203-.89zm0 0"/></svg></g><g><svg overflow="visible" x="137.568" y="49.395"><path d="M4.297 2.266c-.89-.25-1.172-.72-1.172-1.485v-2.078c0-.922-.375-1.61-.781-1.828.406-.203.781-.906.781-1.828v-2.078c0-.766.281-1.235 1.36-1.516-.141-.234-.141-.234-.157-.297-.031-.078-.031-.172-.031-.406-1.36.36-2.219 1.172-2.219 2.219v2.078c0 .984-.219 1.469-1.297 1.469.078.203.094.28.094.359 0 .094-.016.172-.094.375 1.078 0 1.297.484 1.297 1.453V.781c0 1.063.86 1.875 2.219 2.25 0-.265 0-.344.031-.422.016-.078.016-.062.156-.296zm0 0"/></svg><svg overflow="visible" x="142.84" y="49.395"><path d="M6.219-1.25l-.188-.297-.453.297c-.297.188-.469.281-.625.281-.094 0-.016.047-.016-.078 0-.14.032-.328.079-.469L6.03-5.828l-.187-.219-.985.25-.14.719c-.172.906-.422 1.61-.782 2.156-.703 1.11-1.546 1.953-2.03 1.953-.11 0-.032.031-.032-.172 0-.187.031-.312.078-.625l.688-3.25c.03-.187.062-.343.062-.5 0-.234-.234-.515-.39-.515-.25 0-.813.281-1.704.922l-.39.296.172.485.546-.36c.36-.218.375-.234.485-.234.125 0 .062-.031.062.11a.792.792 0 01-.03.203l-.75 3.562c-.016.11-.048.375-.048.563 0 .265.328.609.563.609.75 0 2.297-1.375 3.297-3.016l-.235-.093-.437 1.687c-.094.313-.14.61-.14.797 0 .297.28.625.5.625.312 0 .859-.313 2.077-1.234zm0 0"/></svg></g><g><svg overflow="visible" x="152.811" y="49.395"><path d="M8.266-4.078a1.419 1.419 0 01-.047-.36c0-.109.015-.234.062-.484h-7.5c.063.25.063.375.063.484 0 .125 0 .235-.063.5h7.5zm0 2.625a1.332 1.332 0 01-.047-.36c0-.109.015-.234.062-.484h-7.5c.063.25.063.375.063.485 0 .125 0 .25-.063.5h7.5zm0 0"/></svg></g><g><svg overflow="visible" x="165.209" y="49.395"><path d="M5.719-.094c-.016-.25-.016-.375-.016-.547 0-.14 0-.265.031-.671l-4.28.125.093.234 2.187-2.313C4.891-4.5 5.281-5.25 5.281-6.14 5.281-7.516 4.22-8.5 2.703-8.5c-.86 0-1.562.281-2.172.906L.312-5.766h.594l.188-.687c.203-.688.5-.86 1.297-.86 1.03 0 1.546.516 1.546 1.532 0 .89-.468 1.687-1.828 3.11L.047-.454v.5L2.859 0l2.875.047zm0 0"/></svg><svg overflow="visible" x="171.186" y="49.395"><path d="M4.203-7.828a.735.735 0 01-.187-.14c-.063-.063-.11-.126-.22-.329-1.593 1.61-2.5 3.266-2.5 4.781v.797c0 1.516.907 3.172 2.5 4.781.11-.203.157-.265.22-.328.062-.062.125-.109.312-.203C2.875.063 2.281-1.344 2.281-2.719v-.797c0-1.39.594-2.78 2.047-4.25zm0 0"/></svg><svg overflow="visible" x="176.255" y="49.395"><path d="M5.313-4.625c0-.453-.157-1.016-.297-1.203-.079-.094-.329-.203-.516-.203-.281 0-.75.14-1.078.312-.61.313-1 .672-1.75 1.625L1.906-4l1.047-4.813-.265-.234c-.75.375-1.079.438-2.047.531l-.11.5h.75c.282 0 .266-.046.266.157 0 .093-.016.218-.031.296L.312-.984C.297-.938.297-.891.297-.86c0 .468.719.984 1.375.984.437 0 1.156-.25 1.656-.625 1.156-.813 1.985-2.547 1.985-4.125zm-1.141.281c0 .766-.25 1.797-.61 2.578-.39.829-.734 1.079-1.374 1.079-.547 0-.72-.157-.72-.657 0-.297.048-.625.157-1.078.234-.953.484-1.422.953-1.922.39-.406.922-.718 1.266-.718.312 0 .328.14.328.718zm0 0"/></svg></g><g><svg overflow="visible" x="184.456" y="49.395"><path d="M8.266-2.766a1.332 1.332 0 01-.047-.359c0-.11.015-.234.062-.484h-7.5c.063.25.063.375.063.484 0 .125 0 .25-.063.5h7.5zm0 0"/></svg></g><g><svg overflow="visible" x="196.196" y="49.395"><path d="M4.984-1.14l-.156-.485c-.25.203-.266.219-.328.266-.375.312-.453.39-.625.39-.125 0-.047.031-.047-.156 0-.047 0-.078.016-.125l1.11-4.578-.25-.203-.438.218c-.438-.156-.672-.218-.985-.218-.344 0-.578.062-.906.218-.75.375-1.234.766-1.531 1.36l-.047.094C.28-3.297-.093-1.875-.093-.922c0 .516.327 1.047.546 1.047.25 0 .797-.281 1.234-.656.516-.453.985-1.016 1.641-1.938l-.234-.094-.344 1.516a2.715 2.715 0 00-.078.61c0 .265.25.562.437.562.266 0 .86-.36 1.891-1.219zM3.672-5.079c-.266 1.281-.453 1.797-.844 2.406C2.156-1.656 1.516-.969 1.125-.969c-.14 0-.078-.015-.078-.344 0-.765.297-2.093.719-3.093.296-.688.453-.766 1.03-.766.282 0 .5.047.86.172zm0 0"/></svg><svg overflow="visible" x="201.505" y="49.395"><path d="M3.766-2.719v-.797c0-1.515-.907-3.171-2.516-4.78-.11.202-.156.265-.203.327-.063.063-.125.11-.313.203 1.438 1.47 2.032 2.86 2.032 4.25v.797c0 1.375-.594 2.781-2.032 4.25.188.094.25.14.313.203.047.063.094.125.203.329C2.86.452 3.766-1.204 3.766-2.72zm0 0"/></svg><svg overflow="visible" x="206.574" y="49.395"><path d="M2.703-1.531L2.47-1.75c-.36.125-.563.203-1.328.406C1.047-.328.78.344.016 1.625l.312.25.61-.281C1.905.328 2.405-.516 2.75-1.47zm0 0"/></svg></g><g><svg overflow="visible" x="211.559" y="49.395"><path d="M5.828-4.719c0-.687-.437-1.312-.875-1.312-.14 0-.406.093-.5.187l-.656.625.25.453c.25-.171.266-.171.375-.171.328 0 .375.14.375.625 0 1.765-1.016 3.578-2.078 3.578-.578 0-.813-.36-.813-1.141 0-1.25.422-2.25 1.657-3.781l-.235-.407c-.281.141-.437.188-.765.188-.5 0-.985-.047-1.47-.094-.155 0-.25.032-.5.125-.155.328-.327.844-.515 1.64h.5l.266-.64c.094-.203.203-.203.484-.203.219 0 .438.031.656.031.25 0 .438-.015.75-.046l-.109-.235C1.297-3.859.765-2.766.765-1.578c0 .922.688 1.703 1.454 1.703.5 0 1.062-.25 1.61-.734C4.39-1.125 5-2.016 5.358-2.844c.266-.594.47-1.406.47-1.875zm0 0"/></svg></g><g><svg overflow="visible" x="220.908" y="49.395"><path d="M8.266-4.078a1.419 1.419 0 01-.047-.36c0-.109.015-.234.062-.484h-7.5c.063.25.063.375.063.484 0 .125 0 .235-.063.5h7.5zm0 2.625a1.332 1.332 0 01-.047-.36c0-.109.015-.234.062-.484h-7.5c.063.25.063.375.063.485 0 .125 0 .25-.063.5h7.5zm0 0"/></svg></g><g><svg overflow="visible" x="233.317" y="49.395"><path d="M5.719-.094c-.016-.25-.016-.375-.016-.547 0-.14 0-.265.031-.671l-4.28.125.093.234 2.187-2.313C4.891-4.5 5.281-5.25 5.281-6.14 5.281-7.516 4.22-8.5 2.703-8.5c-.86 0-1.562.281-2.172.906L.312-5.766h.594l.188-.687c.203-.688.5-.86 1.297-.86 1.03 0 1.546.516 1.546 1.532 0 .89-.468 1.687-1.828 3.11L.047-.454v.5L2.859 0l2.875.047zm0 0"/></svg><svg overflow="visible" x="239.295" y="49.395"><path d="M4.203-7.828a.735.735 0 01-.187-.14c-.063-.063-.11-.126-.22-.329-1.593 1.61-2.5 3.266-2.5 4.781v.797c0 1.516.907 3.172 2.5 4.781.11-.203.157-.265.22-.328.062-.062.125-.109.312-.203C2.875.063 2.281-1.344 2.281-2.719v-.797c0-1.39.594-2.78 2.047-4.25zm0 0"/></svg><svg overflow="visible" x="244.364" y="49.395"><path d="M4.75-5.703c-.297-.188-.797-.328-1.25-.328-.531 0-1.484.468-2.172 1.062C.641-4.375.156-3.03.156-1.75.156-.61.796.125 1.75.125c.656 0 1.328-.266 1.984-.813l.657-.53-.204-.485-.343.219c-.86.578-1.203.75-1.625.75-.672 0-.875-.36-.875-1.297 0-1.266.36-2.406.937-2.875.25-.203.453-.266.844-.266.531 0 .813.094.813.375v.86h.546c.11-.922.188-1.36.329-1.735zm0 0"/></svg></g><g><svg overflow="visible" x="252.003" y="49.395"><path d="M8.266-2.766a1.332 1.332 0 01-.047-.359c0-.11.015-.234.062-.484h-7.5c.063.25.063.375.063.484 0 .125 0 .25-.063.5h7.5zm0 0"/></svg></g><g><svg overflow="visible" x="263.755" y="49.395"><path d="M5.313-4.625c0-.453-.157-1.016-.297-1.203-.079-.094-.329-.203-.516-.203-.281 0-.75.14-1.078.312-.61.313-1 .672-1.75 1.625L1.906-4l1.047-4.813-.265-.234c-.75.375-1.079.438-2.047.531l-.11.5h.75c.282 0 .266-.046.266.157 0 .093-.016.218-.031.296L.312-.984C.297-.938.297-.891.297-.86c0 .468.719.984 1.375.984.437 0 1.156-.25 1.656-.625 1.156-.813 1.985-2.547 1.985-4.125zm-1.141.281c0 .766-.25 1.797-.61 2.578-.39.829-.734 1.079-1.374 1.079-.547 0-.72-.157-.72-.657 0-.297.048-.625.157-1.078.234-.953.484-1.422.953-1.922.39-.406.922-.718 1.266-.718.312 0 .328.14.328.718zm0 0"/></svg><svg overflow="visible" x="269.291" y="49.395"><path d="M3.766-2.719v-.797c0-1.515-.907-3.171-2.516-4.78-.11.202-.156.265-.203.327-.063.063-.125.11-.313.203 1.438 1.47 2.032 2.86 2.032 4.25v.797c0 1.375-.594 2.781-2.032 4.25.188.094.25.14.313.203.047.063.094.125.203.329C2.86.452 3.766-1.204 3.766-2.72zm0 0"/></svg><svg overflow="visible" x="274.36" y="49.395"><path d="M4.422-2.875c-.016-.078-.031-.156-.031-.25 0-.078.015-.156.078-.36-1.047 0-1.297-.484-1.297-1.468v-2.078c0-1.047-.844-1.86-2.235-2.235.032.25.016.344 0 .422-.03.063-.015.063-.203.281 1.141.297 1.407.766 1.407 1.532v2.078c0 .922.375 1.625.78 1.828-.405.219-.78.906-.78 1.828V.781c0 .766-.266 1.235-1.407 1.531.188.235.172.22.204.297.015.079.03.157 0 .422 1.39-.375 2.234-1.187 2.234-2.25v-2.078c0-.969.25-1.453 1.297-1.453zm0 0"/></svg></g></svg>