<svg xmlns="http://www.w3.org/2000/svg" xmlns:xlink="http://www.w3.org/1999/xlink" width="428" height="53px" viewBox="0 0 321 40"><svg overflow="visible" x="-.224" y="8.745"><path d="M6.484-4.625c0-.625-.89-.922-1.296-.922-.688 0-1.25.672-1.235.61-.125-.36-.969-.61-1.312-.61-1.235 0-2.125 1.672-2.125 1.969 0 .125.468.219.468.219l-.125.03c.094 0 .329-.155.344-.25.406-1.28 1.016-1.437 1.422-1.437.219 0 .438-.03.438.672 0 .36-.204 1.172-.641 2.844-.203.734-.406 1.11-.938 1.11-.078 0-.218.03-.218.03-.079.016.375-.374.375-.703 0-.328-.454-.546-.641-.546-.36 0-.86.437-.86.828 0 .547.797.906 1.329.906.797 0 1.36-.86 1.39-.938l-.343-.093c.156.437.78 1.031 1.5 1.031 1.234 0 2.109-1.672 2.109-1.969 0-.11-.297-.25-.344-.25-.11 0-.328.188-.36.266-.39 1.281-1 1.437-1.374 1.437-.469 0-.469-.25-.469-.656 0-.266.063-.531.203-1.062l.406-1.625c.063-.313.157-1.282.985-1.282a.604.604 0 00.187-.046c.079 0-.359.421-.359.718 0 .188.328.547.656.547.266 0 .828-.344.828-.828zm0 0"/></svg><svg overflow="visible" x="9.926" y="8.745"><path d="M8.828-4.281c0-.125-.312-.375-.437-.375H.906c-.125 0-.437.25-.437.375 0 .14.312.375.437.375h7.485c.125 0 .437-.235.437-.375zm0 2.328c0-.14-.312-.375-.437-.375H.906c-.125 0-.437.234-.437.375 0 .125.312.36.437.36h7.485c.125 0 .437-.235.437-.36zm0 0"/></svg><svg overflow="visible" x="29.198" y="8.745"><path d="M8.828-3.125c0-.125-.312-.36-.437-.36H.906c-.125 0-.437.235-.437.36 0 .14.312.375.437.375h7.485c.125 0 .437-.234.437-.375zm0 0"/></svg><svg overflow="visible" x="38.499" y="8.745"><path d="M5.656-2.172c0-.984-.953-2.047-2.187-2.297v.266c.984-.328 1.86-1.297 1.86-2.234 0-.985-1.235-1.782-2.391-1.782-1.204 0-2.313.844-2.313 1.75 0 .39.469.75.813.75.375 0 .796-.39.796-.734 0-.594-.75-.734-.656-.734.234-.36.89-.47 1.313-.47.484 0 .953.126.953 1.204 0 .14.031.734-.281 1.266-.36.578-.626.578-.922.578a4.76 4.76 0 01-.47.046c-.093.016-.374.157-.374.266 0 .14.281.266.484.266h.531c.985 0 1.22.687 1.22 1.86 0 1.624-.626 1.843-1.157 1.843-.516 0-1.266-.172-1.531-.61.125.016.687-.375.687-.828 0-.437-.515-.796-.86-.796-.28 0-.874.296-.874.812C.297-.656 1.609.266 2.922.266c1.453 0 2.734-1.22 2.734-2.438zm0 0"/></svg><svg overflow="visible" x="44.476" y="8.745"><path d="M6.14-1.844c0-.11-.296-.25-.327-.25-.125 0-.344.188-.375.344-.204.781-.22 1.36-.704 1.36-.328 0-.171-.188-.171-.422 0-.266.03-.36.156-.891l.265-1.063.438-1.687c.078-.328.078-.36.078-.406 0-.204-.344-.454-.547-.454-.281 0-.656.407-.703.657h.406c-.218-.438-.765-.89-1.297-.89-1.406 0-3.078 1.89-3.078 3.64 0 1.125.86 2.031 1.781 2.031.25 0 .97-.078 1.422-.61.032.094.657.61 1.22.61.421 0 .827-.297 1.015-.688l.062-.093c.203-.438.297-1.094.297-1.094zm-2.03-2.25c0 .063-.016.14-.032.203l-.594 2.344c-.062.203 0 .14-.187.344-.531.656-.875.812-1.203.812-.594 0-.578-.53-.578-1 0-.593.328-1.968.593-2.515.375-.703.782-1.11 1.266-1.11.766 0 .734.844.734.922zm0 0"/></svg><svg overflow="visible" x="53.455" y="8.745"><path d="M8.828-3.125c0-.125-.312-.36-.437-.36H5.078v-3.374c0-.141-.297-.375-.422-.375-.14 0-.453.234-.453.375v3.375H.906c-.125 0-.437.234-.437.359 0 .14.312.375.437.375h3.297V.625c0 .125.313.36.453.36.125 0 .422-.235.422-.36V-2.75h3.313c.125 0 .437-.234.437-.375zm0 0"/></svg><svg overflow="visible" x="65.41" y="8.745"><path d="M5.36-2.344h-.47c-.077.485-.109.922-.234 1.094-.078.11-.718.063-.984.063H1.89l1.03-1c1.86-1.657 2.642-2.391 2.642-3.579 0-1.375-1.266-2.453-2.735-2.453C1.484-8.219.391-7 .391-5.922c0 .656.796.797.843.797.204 0 .813-.281.813-.766 0-.312-.406-.75-.828-.75-.094 0-.125 0 .125-.093.187-.547.64-.86 1.328-.86 1.094 0 1.406.844 1.406 1.828 0 .954-.547 1.797-1.203 2.532L.578-.672C.453-.532.391-.422.391 0h4.812l.375-2.344zm0 0"/></svg><svg overflow="visible" x="71.388" y="8.745"><path d="M5.156-3.5c0-1.094-.828-2.047-1.781-2.047-.547 0-1.188.39-1.547.75l.328.094.89-3.594-.062.094s-.125-.36-.28-.36c-.282 0-1.157.094-1.454.126-.11.015-.438.156-.438.374 0 .141.313.266.485.266.578 0 .406-.047.406.078 0 .078-.11.485-.172.735L.547-3.078c-.14.594-.188.781-.188 1.203 0 1.14.829 2 1.72 2 1.405 0 3.077-1.906 3.077-3.625zm-1.265-.531c0 .703-.391 2.078-.61 2.531-.39.813-.734 1.11-1.203 1.11-.406 0-.61-.188-.61-1.079 0-.234 0-.453.188-1.203l.266-1.11c.078-.265.016-.187.125-.312.578-.781.984-.922 1.297-.922.437 0 .547.22.547.985zm0 0"/></svg><svg overflow="visible" x="79.338" y="8.745"><path d="M8.828-3.125c0-.125-.312-.36-.437-.36H5.078v-3.374c0-.141-.297-.375-.422-.375-.14 0-.453.234-.453.375v3.375H.906c-.125 0-.437.234-.437.359 0 .14.312.375.437.375h3.297V.625c0 .125.313.36.453.36.125 0 .422-.235.422-.36V-2.75h3.313c.125 0 .437-.234.437-.375zm0 0"/></svg><svg overflow="visible" x="91.305" y="8.745"><path d="M5.656-2.172c0-.984-.953-2.047-2.187-2.297v.266c.984-.328 1.86-1.297 1.86-2.234 0-.985-1.235-1.782-2.391-1.782-1.204 0-2.313.844-2.313 1.75 0 .39.469.75.813.75.375 0 .796-.39.796-.734 0-.594-.75-.734-.656-.734.234-.36.89-.47 1.313-.47.484 0 .953.126.953 1.204 0 .14.031.734-.281 1.266-.36.578-.626.578-.922.578a4.76 4.76 0 01-.47.046c-.093.016-.374.157-.374.266 0 .14.281.266.484.266h.531c.985 0 1.22.687 1.22 1.86 0 1.624-.626 1.843-1.157 1.843-.516 0-1.266-.172-1.531-.61.125.016.687-.375.687-.828 0-.437-.515-.796-.86-.796-.28 0-.874.296-.874.812C.297-.656 1.609.266 2.922.266c1.453 0 2.734-1.22 2.734-2.438zm0 0"/></svg><svg overflow="visible" x="97.283" y="8.745"><path d="M5.328-1.406c0-.078-.266-.297-.328-.297-.063 0-.234.062-.297.156C3.75-.359 2.593-.39 2.453-.39c-.75 0-.89-.453-.89-1.171 0-.5.187-1.563.593-2.297.36-.688.89-1.157 1.547-1.157.406 0 .719.11.766.204.078 0-.235.046-.407.203a1.026 1.026 0 00-.265.562c0 .297.406.563.64.563.344 0 .86-.422.86-.907 0-.578-.75-1.156-1.61-1.156-1.609 0-3.406 1.844-3.406 3.531 0 1.079.906 2.141 2.14 2.141 1.72 0 2.907-1.39 2.907-1.531zm0 0"/></svg><svg overflow="visible" x="105.412" y="8.745"><path d="M8.828-3.125c0-.125-.312-.36-.437-.36H.906c-.125 0-.437.235-.437.36 0 .14.312.375.437.375h7.485c.125 0 .437-.234.437-.375zm0 0"/></svg><svg overflow="visible" x="117.367" y="8.745"><path d="M6.297-8.203s-.125-.36-.281-.36c-.188 0-1.313.11-1.516.141-.094 0-.375.203-.375.36 0 .14.313.265.484.265.579 0 .407-.047.407.078l-.047.235-.719 2.828h.406c-.218-.438-.765-.89-1.297-.89-1.406 0-3.078 1.89-3.078 3.64 0 1.125.86 2.031 1.781 2.031.25 0 .97-.078 1.422-.61.032.094.657.61 1.22.61.421 0 .827-.297 1.015-.688l.062-.093c.203-.438.297-1.094.297-1.094l.063-.094c0-.11-.297-.25-.329-.25-.125 0-.343.188-.375.344-.203.781-.218 1.36-.703 1.36-.328 0-.171-.188-.171-.422 0-.282.03-.375.078-.579l1.718-6.906zm-2.188 4.11c0 .062-.015.14-.03.202l-.595 2.344c-.062.203 0 .14-.187.344-.531.656-.875.812-1.203.812-.594 0-.578-.53-.578-1 0-.593.328-1.968.593-2.515.375-.703.782-1.11 1.266-1.11.766 0 .734.844.734.922zm0 0"/></svg><svg overflow="visible" x=".099" y="23.19"><path d="M6.047-4.953c0-.219-.36-.469-.531-.469-.125 0-.454.11-.641.406-.016.047-.11.407-.156.625l-.235.954-.546 2.156c-.047.187-.36.89-1.141.89-.61 0-.547-.39-.547-.843 0-.547.203-1.282.61-2.344.187-.485.234-.625.234-.86 0-.53-.578-1.109-1.172-1.109C.782-5.547.14-3.687.14-3.578c0 .125.484.219.484.219l-.14.03c.124 0 .328-.155.39-.343.313-1.125.61-1.344 1.016-1.344.093 0 .093-.14.093.25 0 .297-.125.61-.203.829-.484 1.265-.687 1.953-.687 2.515 0 1.063.953 1.547 1.656 1.547.469 0 1-.234 1.344-.563L3.75-.53c-.156.61-.234 1.11-.719 1.734-.312.406-.61.719-1.172.719-.156 0-.515.094-.656-.234-.062 0 .234-.032.406-.188.11-.094.297-.36.297-.578 0-.375-.515-.547-.64-.547-.282 0-.875.313-.875.906 0 .594.734 1.172 1.468 1.172 1.235 0 2.657-1.219 3-2.578L6-4.688c.047-.171.047-.187.047-.265zm0 0"/></svg><svg overflow="visible" x="9.603" y="23.19"><path d="M8.828-4.281c0-.125-.312-.375-.437-.375H.906c-.125 0-.437.25-.437.375 0 .14.312.375.437.375h7.485c.125 0 .437-.235.437-.375zm0 2.328c0-.14-.312-.375-.437-.375H.906c-.125 0-.437.234-.437.375 0 .125.312.36.437.36h7.485c.125 0 .437-.235.437-.36zm0 0"/></svg><svg overflow="visible" x="47.394" y="23.19"><path d="M5.656-2.172c0-.984-.953-2.047-2.187-2.297v.266c.984-.328 1.86-1.297 1.86-2.234 0-.985-1.235-1.782-2.391-1.782-1.204 0-2.313.844-2.313 1.75 0 .39.469.75.813.75.375 0 .796-.39.796-.734 0-.594-.75-.734-.656-.734.234-.36.89-.47 1.313-.47.484 0 .953.126.953 1.204 0 .14.031.734-.281 1.266-.36.578-.626.578-.922.578a4.76 4.76 0 01-.47.046c-.093.016-.374.157-.374.266 0 .14.281.266.484.266h.531c.985 0 1.22.687 1.22 1.86 0 1.624-.626 1.843-1.157 1.843-.516 0-1.266-.172-1.531-.61.125.016.687-.375.687-.828 0-.437-.515-.796-.86-.796-.28 0-.874.296-.874.812C.297-.656 1.609.266 2.922.266c1.453 0 2.734-1.22 2.734-2.438zm0 0"/></svg><svg overflow="visible" x="53.371" y="23.19"><path d="M6.14-1.844c0-.11-.296-.25-.327-.25-.125 0-.344.188-.375.344-.204.781-.22 1.36-.704 1.36-.328 0-.171-.188-.171-.422 0-.266.03-.36.156-.891l.265-1.063.438-1.687c.078-.328.078-.36.078-.406 0-.204-.344-.454-.547-.454-.281 0-.656.407-.703.657h.406c-.218-.438-.765-.89-1.297-.89-1.406 0-3.078 1.89-3.078 3.64 0 1.125.86 2.031 1.781 2.031.25 0 .97-.078 1.422-.61.032.094.657.61 1.22.61.421 0 .827-.297 1.015-.688l.062-.093c.203-.438.297-1.094.297-1.094zm-2.03-2.25c0 .063-.016.14-.032.203l-.594 2.344c-.062.203 0 .14-.187.344-.531.656-.875.812-1.203.812-.594 0-.578-.53-.578-1 0-.593.328-1.968.593-2.515.375-.703.782-1.11 1.266-1.11.766 0 .734.844.734.922zm0 0"/></svg><svg overflow="visible" x="62.35" y="23.19"><path d="M8.828-3.125c0-.125-.312-.36-.437-.36H.906c-.125 0-.437.235-.437.36 0 .14.312.375.437.375h7.485c.125 0 .437-.234.437-.375zm0 0"/></svg><svg overflow="visible" x="74.305" y="23.19"><path d="M5.156-3.5c0-1.094-.828-2.047-1.781-2.047-.547 0-1.188.39-1.547.75l.328.094.89-3.594-.062.094s-.125-.36-.28-.36c-.282 0-1.157.094-1.454.126-.11.015-.438.156-.438.374 0 .141.313.266.485.266.578 0 .406-.047.406.078 0 .078-.11.485-.172.735L.547-3.078c-.14.594-.188.781-.188 1.203 0 1.14.829 2 1.72 2 1.405 0 3.077-1.906 3.077-3.625zm-1.265-.531c0 .703-.391 2.078-.61 2.531-.39.813-.734 1.11-1.203 1.11-.406 0-.61-.188-.61-1.079 0-.234 0-.453.188-1.203l.266-1.11c.078-.265.016-.187.125-.312.578-.781.984-.922 1.297-.922.437 0 .547.22.547.985zm0 0"/></svg><svg overflow="visible" x="82.267" y="23.19"><path d="M8.828-3.125c0-.125-.312-.36-.437-.36H.906c-.125 0-.437.235-.437.36 0 .14.312.375.437.375h7.485c.125 0 .437-.234.437-.375zm0 0"/></svg><svg overflow="visible" x="94.222" y="23.19"><path d="M5.656-2.172c0-.984-.953-2.047-2.187-2.297v.266c.984-.328 1.86-1.297 1.86-2.234 0-.985-1.235-1.782-2.391-1.782-1.204 0-2.313.844-2.313 1.75 0 .39.469.75.813.75.375 0 .796-.39.796-.734 0-.594-.75-.734-.656-.734.234-.36.89-.47 1.313-.47.484 0 .953.126.953 1.204 0 .14.031.734-.281 1.266-.36.578-.626.578-.922.578a4.76 4.76 0 01-.47.046c-.093.016-.374.157-.374.266 0 .14.281.266.484.266h.531c.985 0 1.22.687 1.22 1.86 0 1.624-.626 1.843-1.157 1.843-.516 0-1.266-.172-1.531-.61.125.016.687-.375.687-.828 0-.437-.515-.796-.86-.796-.28 0-.874.296-.874.812C.297-.656 1.609.266 2.922.266c1.453 0 2.734-1.22 2.734-2.438zm0 0"/></svg><svg overflow="visible" x="100.2" y="23.19"><path d="M5.328-1.406c0-.078-.266-.297-.328-.297-.063 0-.234.062-.297.156C3.75-.359 2.593-.39 2.453-.39c-.75 0-.89-.453-.89-1.171 0-.5.187-1.563.593-2.297.36-.688.89-1.157 1.547-1.157.406 0 .719.11.766.204.078 0-.235.046-.407.203a1.026 1.026 0 00-.265.562c0 .297.406.563.64.563.344 0 .86-.422.86-.907 0-.578-.75-1.156-1.61-1.156-1.609 0-3.406 1.844-3.406 3.531 0 1.079.906 2.141 2.14 2.141 1.72 0 2.907-1.39 2.907-1.531zm0 0"/></svg><svg overflow="visible" x=".237" y="37.636"><path d="M5.766-5.297c0-.125-.188-.016-.188-.016l-.125-.234c-.094 0-.266.063-.328.172-.36.563-.469.719-.75.719s-.297-.14-.484-.344c-.22-.266-.563-.547-.954-.547-.89 0-1.64 1.25-1.64 1.5 0 .047.234.25.344.25.109 0 .312-.187.343-.25.235-.562.735-.437.829-.437.25 0 .468.078.75.187.484.172.609.172.578.172-.235.281-1.235 1.156-1.47 1.344l-1.062 1C.781-.984.313-.203.313-.125.313 0 .78.094.78.094L.656.125c.094 0 .25-.047.328-.188.266-.421.5-.703.875-.703.282 0 .25.079.563.422.203.25.547.469.906.469 1.172 0 2.063-1.64 2.063-1.969 0-.062-.235-.25-.329-.25-.109 0-.343.203-.375.281-.28.782-.843.875-1.234.875C3.22-.938 3-1 2.75-1.093c-.406-.156-.594-.203-.844-.203l.14.234s-.343-.234-.452-.187l.125.219c.64-.688 1-.985 1.422-1.36 0 0 .75-.64 1.171-1.078 1.141-1.11 1.454-1.781 1.454-1.828zm0 0"/></svg><svg overflow="visible" x="9.466" y="37.636"><path d="M8.828-4.281c0-.125-.312-.375-.437-.375H.906c-.125 0-.437.25-.437.375 0 .14.312.375.437.375h7.485c.125 0 .437-.235.437-.375zm0 2.328c0-.14-.312-.375-.437-.375H.906c-.125 0-.437.234-.437.375 0 .125.312.36.437.36h7.485c.125 0 .437-.235.437-.36zm0 0"/></svg><svg overflow="visible" x="63.332" y="37.636"><path d="M5.328-1.406c0-.078-.266-.297-.328-.297-.063 0-.234.062-.297.156C3.75-.359 2.593-.39 2.453-.39c-.75 0-.89-.453-.89-1.171 0-.5.187-1.563.593-2.297.36-.688.89-1.157 1.547-1.157.406 0 .719.11.766.204.078 0-.235.046-.407.203a1.026 1.026 0 00-.265.562c0 .297.406.563.64.563.344 0 .86-.422.86-.907 0-.578-.75-1.156-1.61-1.156-1.609 0-3.406 1.844-3.406 3.531 0 1.079.906 2.141 2.14 2.141 1.72 0 2.907-1.39 2.907-1.531zm0 0"/></svg><svg overflow="visible" x="71.462" y="37.636"><path d="M8.828-3.125c0-.125-.312-.36-.437-.36H.906c-.125 0-.437.235-.437.36 0 .14.312.375.437.375h7.485c.125 0 .437-.234.437-.375zm0 0"/></svg><svg overflow="visible" x="83.417" y="37.636"><path d="M6.14-1.844c0-.11-.296-.25-.327-.25-.125 0-.344.188-.375.344-.204.781-.22 1.36-.704 1.36-.328 0-.171-.188-.171-.422 0-.266.03-.36.156-.891l.265-1.063.438-1.687c.078-.328.078-.36.078-.406 0-.204-.344-.454-.547-.454-.281 0-.656.407-.703.657h.406c-.218-.438-.765-.89-1.297-.89-1.406 0-3.078 1.89-3.078 3.64 0 1.125.86 2.031 1.781 2.031.25 0 .97-.078 1.422-.61.032.094.657.61 1.22.61.421 0 .827-.297 1.015-.688l.062-.093c.203-.438.297-1.094.297-1.094zm-2.03-2.25c0 .063-.016.14-.032.203l-.594 2.344c-.062.203 0 .14-.187.344-.531.656-.875.812-1.203.812-.594 0-.578-.53-.578-1 0-.593.328-1.968.593-2.515.375-.703.782-1.11 1.266-1.11.766 0 .734.844.734.922zm0 0"/></svg><svg overflow="visible" x="123.878" y="9.75"><path d="M6.188-.125v-4.484c0-1.813-1.985-3.86-4.016-4.594-.031-.016-.063-.031-.11-.031-.156 0-.515.28-.515.453 0 .125.297.375.406.422 1.656.609 2.625 2.28 2.625 3.75V0h1.61zm0 0"/></svg><svg overflow="visible" x="123.878" y="15.013"><path d="M6.188-.125v-9.078h-1.61V0h1.61zm0 0"/></svg><svg overflow="visible" x="123.878" y="29.268"><path d="M9.219-9.094c0-.14-.281-.39-.39-.422-1.673-.609-2.642-2.421-2.642-4.062v-4.61H4.579v4.61c0 1.75 1.5 3.687 3.031 4.484-1.53.797-3.03 2.719-3.03 4.485V0h1.609v-4.61c0-1.64.968-3.452 2.64-4.062.11-.047.39-.297.39-.422zm0 0"/></svg><svg overflow="visible" x="123.878" y="34.531"><path d="M6.188-.125v-9.078h-1.61V0h1.61zm0 0"/></svg><svg overflow="visible" x="123.878" y="39.819"><path d="M6.188-4.61v-4.624h-1.61v4.625c0 1.468-.969 3.14-2.625 3.75-.11.03-.406.28-.406.421 0 .157.36.438.516.438.046 0 .078-.016.109-.031C4.203-.75 6.187-2.812 6.187-4.61zm0 0"/></svg><svg overflow="visible" x="140.552" y="23.29"><path d="M9.281-8.438c0-.03-.219-.25-.328-.25a.701.701 0 00-.328.172l-.672.75c0 .016-.672-.921-2-.921-2.672 0-5.562 2.765-5.562 5.546C.39-1.17 2.016.266 3.844.266c1.031 0 2.078-.516 2.703-1.063C7.657-1.78 7.922-2.969 7.922-3c0-.125-.203-.031-.203-.031l-.125-.219c-.078 0-.344.156-.36.25-.109.344-.328 1.094-1.156 1.797-.812.672-1.422.828-2.047.828-1.078 0-2.156-.484-2.156-2.344 0-.687.188-2.531 1.39-3.922C4-7.5 4.986-8.062 6.048-8.062c1.219 0 1.719.796 1.719 2.187 0 .469-.032.484-.032.61 0 .109.329.25.375.25.157 0 .36-.157.407-.376zm0 0"/></svg><svg overflow="visible" x="149.973" y="23.29"><path d="M4.156 2.719c0-.047-.078-.172-.11-.203-1.234-.922-2-3.22-2-5.141v-1c0-1.906.767-4.203 2-5.14a.457.457 0 00.11-.188c0-.063-.25-.25-.312-.25a1.01 1.01 0 00-.203.062C2.312-8.156 1-5.67 1-3.625v1C1-.578 2.313 1.906 3.64 2.906c.016.016.188.063.204.063.062 0 .312-.203.312-.25zm0 0"/></svg><svg overflow="visible" x="154.623" y="23.29"><path d="M4.14-5.156c0-.125-.312-.266-.53-.266H2.78c.39-1.562.453-1.797.453-1.875 0-.203-.328-.453-.53-.453-.032 0-.579.14-.688.563l-.422 1.765H.64c-.25 0-.563.14-.563.36 0 .156.297.28.531.28h.813C.594-1.515.547-1.311.547-1.093c0 .64.656 1.219 1.312 1.219 1.22 0 2.079-1.875 2.079-1.969 0-.11-.282-.25-.329-.25-.109 0-.328.172-.375.297C2.72-.547 2.281-.39 1.875-.39c-.25 0-.172-.03-.172-.421 0-.282.016-.375.063-.579l.859-3.39h.953c.25 0 .563-.125.563-.375zm0 0"/></svg><svg overflow="visible" x="158.939" y="23.29"><path d="M3.64-2.625v-1c0-2.047-1.328-4.531-2.64-5.516a.774.774 0 00-.203-.062c-.063 0-.313.187-.313.25 0 .031.079.172.094.187 1.25.938 2.016 3.235 2.016 5.141v1c0 1.922-.766 4.219-2.016 5.14-.015.032-.094.157-.094.204 0 .047.25.25.313.25A.774.774 0 001 2.906c1.313-1 2.64-3.484 2.64-5.531zm0 0"/></svg><svg overflow="visible" x="166.901" y="23.29"><path d="M8.828-4.281c0-.125-.312-.375-.437-.375H.906c-.125 0-.437.25-.437.375 0 .14.312.375.437.375h7.485c.125 0 .437-.235.437-.375zm0 2.328c0-.14-.312-.375-.437-.375H.906c-.125 0-.437.234-.437.375 0 .125.312.36.437.36h7.485c.125 0 .437-.235.437-.36zm0 0"/></svg><svg overflow="visible" x="179.526" y="23.29"><path d="M5.688-3.953c0-.953-.063-1.922-.47-2.797-.562-1.156-1.734-1.469-2.234-1.469-.718 0-1.796.438-2.28 1.547-.376.828-.438 1.766-.438 2.719 0 .89.109 2.062.593 2.969.516.968 1.532 1.25 2.11 1.25.656 0 1.75-.391 2.281-1.516.375-.828.438-1.766.438-2.703zm-1.391-.14c0 .89 0 1.702-.125 2.468C4-.485 3.516-.265 2.969-.265 2.516-.266 2-.438 1.78-1.579c-.125-.719-.125-1.813-.125-2.516 0-.765 0-1.562.094-2.203.219-1.422.922-1.406 1.219-1.406.406 0 .984.094 1.219 1.266.109.671.109 1.578.109 2.343zm0 0"/></svg><svg overflow="visible" x="192.724" y="23.29"><path d="M11.422-3.125c0-.063-.25-.25-.313-.281-.859-.235-1.468-.688-2.109-1.25-.531-.453-.969-1.016-1.172-1.422-.094-.219-.375-.406-.469-.406-.125 0-.437.25-.437.375 0 .03.016.078 0 .062.375.688.734 1.188.922 1.39H.954c-.126 0-.438.25-.438.376 0 .14.312.375.437.375h7.688a6.905 6.905 0 001.328.781c-.235.094-.89.453-1.328.797H.953c-.125 0-.437.234-.437.375 0 .125.312.36.437.36h6.89c-.187.202-.546.702-.921 1.405.016-.015 0 .016 0 .063 0 .125.312.36.437.36.094 0 .375-.172.47-.391.202-.406.64-.969 1.171-1.438.64-.562 1.25-1.015 2.11-1.234.062-.031.312-.219.312-.297zm0 0"/></svg><svg overflow="visible" x="211.901" y="23.29"><path d="M4.14-5.156c0-.125-.312-.266-.53-.266H2.78c.39-1.562.453-1.797.453-1.875 0-.203-.328-.453-.53-.453-.032 0-.579.14-.688.563l-.422 1.765H.64c-.25 0-.563.14-.563.36 0 .156.297.28.531.28h.813C.594-1.515.547-1.311.547-1.093c0 .64.656 1.219 1.312 1.219 1.22 0 2.079-1.875 2.079-1.969 0-.11-.282-.25-.329-.25-.109 0-.328.172-.375.297C2.72-.547 2.281-.39 1.875-.39c-.25 0-.172-.03-.172-.421 0-.282.016-.375.063-.579l.859-3.39h.953c.25 0 .563-.125.563-.375zm0 0"/></svg><svg overflow="visible" x="219.54" y="23.29"><path d="M8.828-4.281c0-.125-.312-.375-.437-.375H.906c-.125 0-.437.25-.437.375 0 .14.312.375.437.375h7.485c.125 0 .437-.235.437-.375zm0 2.328c0-.14-.312-.375-.437-.375H.906c-.125 0-.437.234-.437.375 0 .125.312.36.437.36h7.485c.125 0 .437-.235.437-.36zm0 0"/></svg><svg overflow="visible" x="233.358" y="15.196"><path d="M8.828-3.125c0-.125-.312-.36-.437-.36H.906c-.125 0-.437.235-.437.36 0 .14.312.375.437.375h7.485c.125 0 .437-.234.437-.375zm0 0"/></svg><svg overflow="visible" x="242.659" y="15.196"><path d="M6.047-4.953c0-.219-.36-.469-.531-.469-.125 0-.454.11-.641.406-.016.047-.11.407-.156.625l-.235.954-.546 2.156c-.047.187-.36.89-1.141.89-.61 0-.547-.39-.547-.843 0-.547.203-1.282.61-2.344.187-.485.234-.625.234-.86 0-.53-.578-1.109-1.172-1.109C.782-5.547.14-3.687.14-3.578c0 .125.484.219.484.219l-.14.03c.124 0 .328-.155.39-.343.313-1.125.61-1.344 1.016-1.344.093 0 .093-.14.093.25 0 .297-.125.61-.203.829-.484 1.265-.687 1.953-.687 2.515 0 1.063.953 1.547 1.656 1.547.469 0 1-.234 1.344-.563L3.75-.53c-.156.61-.234 1.11-.719 1.734-.312.406-.61.719-1.172.719-.156 0-.515.094-.656-.234-.062 0 .234-.032.406-.188.11-.094.297-.36.297-.578 0-.375-.515-.547-.64-.547-.282 0-.875.313-.875.906 0 .594.734 1.172 1.468 1.172 1.235 0 2.657-1.219 3-2.578L6-4.688c.047-.171.047-.187.047-.265zm0 0"/></svg><g><svg overflow="visible" x="251.506" y="15.196"><path d="M8.828.64c0-.14-.312-.374-.437-.374H5.078V-2.75h3.313c.125 0 .437-.234.437-.375 0-.125-.312-.36-.437-.36H5.078v-3.374c0-.141-.297-.375-.422-.375-.14 0-.453.234-.453.375v3.375H.906c-.125 0-.437.234-.437.359 0 .14.312.375.437.375h3.297V.266H.906C.781.266.47.5.47.64.469.766.78 1 .906 1h7.485c.125 0 .437-.234.437-.36zm0 0"/></svg></g><g><svg overflow="visible" x="263.467" y="14.366"><path d="M12.39-10.047c0-.14-.296-.375-.437-.375-.156 0-.406.235-.469.375L5.313 2.813h.406L3.062-3.375l-2 1.516.407.421.781-.593 2.672 6.219c.516 0 .656-.047.937-.563l6.516-13.594c-.047.078.016-.047.016-.078zm0 0"/></svg></g><path d="M275.422 4.441h44.8" fill="none" stroke-width=".478" stroke="#000" stroke-miterlimit="10"/><g><svg overflow="visible" x="275.422" y="15.196"><path d="M6.047-4.953c0-.219-.36-.469-.531-.469-.125 0-.454.11-.641.406-.016.047-.11.407-.156.625l-.235.954-.546 2.156c-.047.187-.36.89-1.141.89-.61 0-.547-.39-.547-.843 0-.547.203-1.282.61-2.344.187-.485.234-.625.234-.86 0-.53-.578-1.109-1.172-1.109C.782-5.547.14-3.687.14-3.578c0 .125.484.219.484.219l-.14.03c.124 0 .328-.155.39-.343.313-1.125.61-1.344 1.016-1.344.093 0 .093-.14.093.25 0 .297-.125.61-.203.829-.484 1.265-.687 1.953-.687 2.515 0 1.063.953 1.547 1.656 1.547.469 0 1-.234 1.344-.563L3.75-.53c-.156.61-.234 1.11-.719 1.734-.312.406-.61.719-1.172.719-.156 0-.515.094-.656-.234-.062 0 .234-.032.406-.188.11-.094.297-.36.297-.578 0-.375-.515-.547-.64-.547-.282 0-.875.313-.875.906 0 .594.734 1.172 1.468 1.172 1.235 0 2.657-1.219 3-2.578L6-4.688c.047-.171.047-.187.047-.265zm0 0"/></svg></g><g><svg overflow="visible" x="281.615" y="11.74"><path d="M4.234-1.844H3.75c-.047.344-.063.735-.172.813-.062.047-.562 0-.687 0H1.812c.563-.5.86-.735 1.36-1.125.625-.5 1.265-1.14 1.265-1.938 0-1-1.093-1.781-2.171-1.781-1.032 0-1.954.89-1.954 1.656 0 .422.579.625.657.625.203 0 .656-.297.656-.61 0-.14-.266-.593-.422-.593.188-.437.547-.469.938-.469.843 0 1.062.5 1.062 1.172 0 .735-.453 1.203-.719 1.5l-2.03 2C.374-.516.311-.39.311 0h3.844l.313-1.844zm0 0"/></svg></g><g><svg overflow="visible" x="289.532" y="15.196"><path d="M8.828-3.125c0-.125-.312-.36-.437-.36H.906c-.125 0-.437.235-.437.36 0 .14.312.375.437.375h7.485c.125 0 .437-.234.437-.375zm0 0"/></svg></g><g><svg overflow="visible" x="301.487" y="15.196"><path d="M5.828-2.11v-.5H4.625v-5.296c0-.25-.188-.453-.375-.453-.11 0-.297.046-.39.187L.124-2.469v.5h3.188v.907c0 .421.171.421-.704.421h-.453v.672C2.844-.03 3.47-.03 3.97-.03s1.14 0 1.812.062V-.64h-.437c-.89 0-.719 0-.719-.421v-.907h1.203zm-2.25-.5H.953L3.72-6.843l-.344-.093v4.328zm0 0"/></svg><svg overflow="visible" x="307.465" y="15.196"><path d="M6.484-4.625c0-.625-.89-.922-1.296-.922-.688 0-1.25.672-1.235.61-.125-.36-.969-.61-1.312-.61-1.235 0-2.125 1.672-2.125 1.969 0 .125.468.219.468.219l-.125.03c.094 0 .329-.155.344-.25.406-1.28 1.016-1.437 1.422-1.437.219 0 .438-.03.438.672 0 .36-.204 1.172-.641 2.844-.203.734-.406 1.11-.938 1.11-.078 0-.218.03-.218.03-.079.016.375-.374.375-.703 0-.328-.454-.546-.641-.546-.36 0-.86.437-.86.828 0 .547.797.906 1.329.906.797 0 1.36-.86 1.39-.938l-.343-.093c.156.437.78 1.031 1.5 1.031 1.234 0 2.109-1.672 2.109-1.969 0-.11-.297-.25-.344-.25-.11 0-.328.188-.36.266-.39 1.281-1 1.437-1.374 1.437-.469 0-.469-.25-.469-.656 0-.266.063-.531.203-1.062l.406-1.625c.063-.313.157-1.282.985-1.282a.604.604 0 00.187-.046c.079 0-.359.421-.359.718 0 .188.328.547.656.547.266 0 .828-.344.828-.828zm0 0"/></svg><svg overflow="visible" x="314.303" y="15.196"><path d="M5.766-5.297c0-.125-.188-.016-.188-.016l-.125-.234c-.094 0-.266.063-.328.172-.36.563-.469.719-.75.719s-.297-.14-.484-.344c-.22-.266-.563-.547-.954-.547-.89 0-1.64 1.25-1.64 1.5 0 .047.234.25.344.25.109 0 .312-.187.343-.25.235-.562.735-.437.829-.437.25 0 .468.078.75.187.484.172.609.172.578.172-.235.281-1.235 1.156-1.47 1.344l-1.062 1C.781-.984.313-.203.313-.125.313 0 .78.094.78.094L.656.125c.094 0 .25-.047.328-.188.266-.421.5-.703.875-.703.282 0 .25.079.563.422.203.25.547.469.906.469 1.172 0 2.063-1.64 2.063-1.969 0-.062-.235-.25-.329-.25-.109 0-.343.203-.375.281-.28.782-.843.875-1.234.875C3.22-.938 3-1 2.75-1.093c-.406-.156-.594-.203-.844-.203l.14.234s-.343-.234-.452-.187l.125.219c.64-.688 1-.985 1.422-1.36 0 0 .75-.64 1.171-1.078 1.141-1.11 1.454-1.781 1.454-1.828zm0 0"/></svg></g><path d="M233.36 20.3h86.863" fill="none" stroke-width=".478" stroke="#000" stroke-miterlimit="10"/><g><svg overflow="visible" x="270.383" y="31.492"><path d="M5.36-2.344h-.47c-.077.485-.109.922-.234 1.094-.078.11-.718.063-.984.063H1.89l1.03-1c1.86-1.657 2.642-2.391 2.642-3.579 0-1.375-1.266-2.453-2.735-2.453C1.484-8.219.391-7 .391-5.922c0 .656.796.797.843.797.204 0 .813-.281.813-.766 0-.312-.406-.75-.828-.75-.094 0-.125 0 .125-.093.187-.547.64-.86 1.328-.86 1.094 0 1.406.844 1.406 1.828 0 .954-.547 1.797-1.203 2.532L.578-.672C.453-.532.391-.422.391 0h4.812l.375-2.344zm0 0"/></svg><svg overflow="visible" x="276.361" y="31.492"><path d="M6.484-4.625c0-.625-.89-.922-1.296-.922-.688 0-1.25.672-1.235.61-.125-.36-.969-.61-1.312-.61-1.235 0-2.125 1.672-2.125 1.969 0 .125.468.219.468.219l-.125.03c.094 0 .329-.155.344-.25.406-1.28 1.016-1.437 1.422-1.437.219 0 .438-.03.438.672 0 .36-.204 1.172-.641 2.844-.203.734-.406 1.11-.938 1.11-.078 0-.218.03-.218.03-.079.016.375-.374.375-.703 0-.328-.454-.546-.641-.546-.36 0-.86.437-.86.828 0 .547.797.906 1.329.906.797 0 1.36-.86 1.39-.938l-.343-.093c.156.437.78 1.031 1.5 1.031 1.234 0 2.109-1.672 2.109-1.969 0-.11-.297-.25-.344-.25-.11 0-.328.188-.36.266-.39 1.281-1 1.437-1.374 1.437-.469 0-.469-.25-.469-.656 0-.266.063-.531.203-1.062l.406-1.625c.063-.313.157-1.282.985-1.282a.604.604 0 00.187-.046c.079 0-.359.421-.359.718 0 .188.328.547.656.547.266 0 .828-.344.828-.828zm0 0"/></svg></g></svg>