<svg xmlns="http://www.w3.org/2000/svg" xmlns:xlink="http://www.w3.org/1999/xlink" width="433px" height="37px" viewBox="0 0 325 28"><svg overflow="visible" x=".359" y="19.161"><path d="M9.281-8.438c0-.03-.219-.25-.328-.25a.701.701 0 00-.328.172l-.672.75c0 .016-.672-.921-2-.921-2.672 0-5.562 2.765-5.562 5.546C.39-1.25 1.92.266 3.859.266a3.89 3.89 0 001.5-.297c.594-.235.954-.516.954-.516-.016-.031.5.531.625.531.062 0 .203-.078.203-.078.03-.031.203-.578.265-.828l.235-.922c.046-.203.109-.406.156-.61.125-.53-.047-.421.625-.437.062 0 .39-.14.39-.375 0-.078-.25-.265-.343-.265-.281 0-.985.047-1.266.047l-1.672-.047c-.11 0-.453.14-.453.375 0 .125.297.265.563.265l.125-.03s.234.03.515.046c.313.047.157-.047.157.11 0 .093-.125.64-.25 1.078C5.859-.375 4.5-.375 4.094-.375c-1.157 0-2.219-.547-2.219-2.375 0-.375.063-2.25 1.313-3.797.656-.812 1.671-1.516 2.859-1.516 1.219 0 1.719.797 1.719 2.188 0 .469-.032.484-.032.61 0 .109.329.25.375.25.157 0 .36-.157.407-.376zm0 0"/></svg><svg overflow="visible" x="9.756" y="19.161"><path d="M3.578-7.61c0-.234-.344-.546-.625-.546-.328 0-.844.437-.844.75 0 .234.36.562.657.562.265 0 .812-.406.812-.765zm.11 5.766c0-.11-.297-.25-.329-.25-.125 0-.328.172-.39.344-.203.766-.406 1.36-1.016 1.36-.203 0-.094.015-.094-.266 0-.297.079-.469.36-1.203l.453-1.25c.156-.344.156-.375.265-.688.094-.25.157-.406.157-.64 0-.532-.578-1.11-1.172-1.11C.797-5.547.14-3.687.14-3.578c0 .125.484.219.484.219l-.14.03c.124 0 .328-.155.39-.343.313-1.125.61-1.344 1.016-1.344.093 0 .093-.14.093.25 0 .25-.078.5-.125.625-.109.297-.64 1.688-.828 2.204-.125.312-.281.703-.281.953 0 .562.61 1.109 1.188 1.109 1.125 0 1.75-1.86 1.75-1.969zm0 0"/></svg><svg overflow="visible" x="13.88" y="19.161"><path d="M5.781-4.578c0-.64-.5-.969-.718-.969-.297 0-.782.438-.782.703 0 .157.125.328.25.453.25.25.344.454.344.891 0 .5-.531 3.11-1.922 3.11-.61 0-.687-.297-.687-.907 0-.672.312-1.547.687-2.547.078-.203.14-.36.14-.594 0-.53-.577-1.109-1.171-1.109C.797-5.547.14-3.687.14-3.578c0 .125.484.219.484.219l-.14.03c.124 0 .328-.155.39-.343.344-1.203.672-1.344 1.016-1.344.093 0 .093-.14.093.25 0 .297-.125.625-.203.829C1.25-2.548 1.094-2 1.094-1.485 1.094-.188 2.359.125 2.906.125c2 0 2.875-4.078 2.875-4.703zm0 0"/></svg><svg overflow="visible" x="19.81" y="19.161"><path d="M5.328-1.406c0-.078-.266-.297-.328-.297-.063 0-.234.062-.297.156C3.75-.359 2.593-.39 2.453-.39c-.937 0-.844-.875-.844-1.265 0-.14 0-.5.141-1.11h.484c.344 0 1.235-.015 1.829-.265.843-.36 1.093-1.203 1.093-1.375 0-.516-.656-1.14-1.468-1.14-1.329 0-3.344 1.296-3.344 3.39C.344-.937 1.25.125 2.422.125c1.719 0 2.906-1.39 2.906-1.531zm-.969-3c0 1.25-1.703 1.125-2.203 1.125h-.25c.422-1.688 1.469-1.735 1.782-1.735.562 0 .671.204.671.61zm0 0"/></svg><svg overflow="visible" x="25.381" y="19.161"><path d="M7.016-1.844c0-.11-.297-.25-.329-.25-.125 0-.328.172-.39.344-.234.813-.422 1.36-1.016 1.36-.203 0-.093.015-.093-.266 0-.297.109-.594.218-.844.219-.64.719-1.953.719-2.64 0-.798-.703-1.407-1.563-1.407-1.078 0-1.796.797-2 1.078l.329.094c-.063-.672-.735-1.172-1.282-1.172-.562 0-.921.5-1.14.89C.313-4.327.14-3.624.14-3.577c0 .125.484.219.484.219l-.14.03c.124 0 .328-.14.406-.405.203-.844.25-1.282.671-1.282.25 0 .172.016.172.407 0 .265-.03.39-.187 1.015L.844-.844c-.031.188-.11.469-.11.516 0 .219.375.453.563.453.14 0 .547-.219.656-.547-.078.156.125-.5.203-.797l.266-1.078c.062-.265.14-.531.203-.797l.14-.594c.188-.374.626-1.328 1.766-1.328.532 0 .438.313.438.704 0 .734-.578 2.265-.766 2.78-.11.282-.125.423-.125.548 0 .562.625 1.109 1.188 1.109 1.125 0 1.75-1.875 1.75-1.969zm0 0"/></svg><svg overflow="visible" x="36.452" y="19.161"><path d="M6.797-7.734c0-.547-.75-.954-1.234-.954-.407 0-1.36.344-1.72 1.532-.077.25-.109.36-.374 1.734h-.64c-.235 0-.563.14-.563.36 0 .156.296.28.53.28h.563L2.484-.186c-.218 1.156-.218 2.109-.828 2.109-.047 0-.218.031-.218.031.187-.016.484-.578.484-.766 0-.265-.406-.546-.625-.546-.313 0-.86.406-.86.859 0 .531.72.953 1.22.953.655 0 1.312-.844 1.687-1.61.172-.343.5-1.89.515-1.968l.688-3.656h.875c.234 0 .547-.125.547-.375 0-.125-.313-.266-.516-.266h-.781c.11-.547.094-.531.234-1.219.047-.25.157-1.015.219-1.156l.063-.094c.109-.218.125-.265.375-.265.046 0 .203-.047.218-.031-.156.03-.484.578-.484.75 0 .28.422.546.64.546.313 0 .86-.39.86-.843zm0 0"/></svg><svg overflow="visible" x="43.386" y="19.161"><path d="M4.156 2.719c0-.047-.078-.172-.11-.203-1.234-.922-2-3.22-2-5.141v-1c0-1.906.767-4.203 2-5.14a.457.457 0 00.11-.188c0-.063-.25-.25-.312-.25a1.01 1.01 0 00-.203.062C2.312-8.156 1-5.67 1-3.625v1C1-.578 2.313 1.906 3.64 2.906c.016.016.188.063.204.063.062 0 .312-.203.312-.25zm0 0"/></svg><svg overflow="visible" x="48.036" y="19.161"><path d="M4.14-5.156c0-.125-.312-.266-.53-.266H2.78c.39-1.562.453-1.797.453-1.875 0-.203-.328-.453-.53-.453-.032 0-.579.14-.688.563l-.422 1.765H.64c-.25 0-.563.14-.563.36 0 .156.297.28.531.28h.813C.594-1.515.547-1.311.547-1.093c0 .64.656 1.219 1.312 1.219 1.22 0 2.079-1.875 2.079-1.969 0-.11-.282-.25-.329-.25-.109 0-.328.172-.375.297C2.72-.547 2.281-.39 1.875-.39c-.25 0-.172-.03-.172-.421 0-.282.016-.375.063-.579l.859-3.39h.953c.25 0 .563-.125.563-.375zm0 0"/></svg><svg overflow="visible" x="52.352" y="19.161"><path d="M3.64-2.625v-1c0-2.047-1.328-4.531-2.64-5.516a.774.774 0 00-.203-.062c-.063 0-.313.187-.313.25 0 .031.079.172.094.187 1.25.938 2.016 3.235 2.016 5.141v1c0 1.922-.766 4.219-2.016 5.14-.015.032-.094.157-.094.204 0 .047.25.25.313.25A.774.774 0 001 2.906c1.313-1 2.64-3.484 2.64-5.531zm0 0"/></svg><svg overflow="visible" x="60.314" y="19.161"><path d="M8.828-4.281c0-.125-.312-.375-.437-.375H.906c-.125 0-.437.25-.437.375 0 .14.312.375.437.375h7.485c.125 0 .437-.235.437-.375zm0 2.328c0-.14-.312-.375-.437-.375H.906c-.125 0-.437.234-.437.375 0 .125.312.36.437.36h7.485c.125 0 .437-.235.437-.36zm0 0"/></svg><svg overflow="visible" x="72.939" y="19.161"><path d="M6.14-1.844c0-.11-.296-.25-.327-.25-.125 0-.344.188-.375.344-.204.781-.22 1.36-.704 1.36-.328 0-.171-.188-.171-.422 0-.266.03-.36.156-.891l.265-1.063.438-1.687c.078-.328.078-.36.078-.406 0-.204-.344-.454-.547-.454-.281 0-.656.407-.703.657h.406c-.218-.438-.765-.89-1.297-.89-1.406 0-3.078 1.89-3.078 3.64 0 1.125.86 2.031 1.781 2.031.25 0 .97-.078 1.422-.61.032.094.657.61 1.22.61.421 0 .827-.297 1.015-.688l.062-.093c.203-.438.297-1.094.297-1.094zm-2.03-2.25c0 .063-.016.14-.032.203l-.594 2.344c-.062.203 0 .14-.187.344-.531.656-.875.812-1.203.812-.594 0-.578-.53-.578-1 0-.593.328-1.968.593-2.515.375-.703.782-1.11 1.266-1.11.766 0 .734.844.734.922zm0 0"/></svg><svg overflow="visible" x="79.263" y="19.161"><path d="M4.14-5.156c0-.125-.312-.266-.53-.266H2.78c.39-1.562.453-1.797.453-1.875 0-.203-.328-.453-.53-.453-.032 0-.579.14-.688.563l-.422 1.765H.64c-.25 0-.563.14-.563.36 0 .156.297.28.531.28h.813C.594-1.515.547-1.311.547-1.093c0 .64.656 1.219 1.312 1.219 1.22 0 2.079-1.875 2.079-1.969 0-.11-.282-.25-.329-.25-.109 0-.328.172-.375.297C2.72-.547 2.281-.39 1.875-.39c-.25 0-.172-.03-.172-.421 0-.282.016-.375.063-.579l.859-3.39h.953c.25 0 .563-.125.563-.375zm0 0"/></svg><svg overflow="visible" x="83.587" y="14.821"><path d="M4.234-1.844H3.75c-.047.344-.063.735-.172.813-.062.047-.562 0-.687 0H1.812c.563-.5.86-.735 1.36-1.125.625-.5 1.265-1.14 1.265-1.938 0-1-1.093-1.781-2.171-1.781-1.032 0-1.954.89-1.954 1.656 0 .422.579.625.657.625.203 0 .656-.297.656-.61 0-.14-.266-.593-.422-.593.188-.437.547-.469.938-.469.843 0 1.062.5 1.062 1.172 0 .735-.453 1.203-.719 1.5l-2.03 2C.374-.516.311-.39.311 0h3.844l.313-1.844zm0 0"/></svg><svg overflow="visible" x="91.504" y="19.161"><path d="M8.828-3.125c0-.125-.312-.36-.437-.36H5.078v-3.374c0-.141-.297-.375-.422-.375-.14 0-.453.234-.453.375v3.375H.906c-.125 0-.437.234-.437.359 0 .14.312.375.437.375h3.297V.625c0 .125.313.36.453.36.125 0 .422-.235.422-.36V-2.75h3.313c.125 0 .437-.234.437-.375zm0 0"/></svg><svg overflow="visible" x="103.459" y="19.161"><path d="M5.156-3.5c0-1.094-.828-2.047-1.781-2.047-.547 0-1.188.39-1.547.75l.328.094.89-3.594-.062.094s-.125-.36-.28-.36c-.282 0-1.157.094-1.454.126-.11.015-.438.156-.438.374 0 .141.313.266.485.266.578 0 .406-.047.406.078 0 .078-.11.485-.172.735L.547-3.078c-.14.594-.188.781-.188 1.203 0 1.14.829 2 1.72 2 1.405 0 3.077-1.906 3.077-3.625zm-1.265-.531c0 .703-.391 2.078-.61 2.531-.39.813-.734 1.11-1.203 1.11-.406 0-.61-.188-.61-1.079 0-.234 0-.453.188-1.203l.266-1.11c.078-.265.016-.187.125-.312.578-.781.984-.922 1.297-.922.437 0 .547.22.547.985zm0 0"/></svg><svg overflow="visible" x="108.755" y="19.161"><path d="M4.14-5.156c0-.125-.312-.266-.53-.266H2.78c.39-1.562.453-1.797.453-1.875 0-.203-.328-.453-.53-.453-.032 0-.579.14-.688.563l-.422 1.765H.64c-.25 0-.563.14-.563.36 0 .156.297.28.531.28h.813C.594-1.515.547-1.311.547-1.093c0 .64.656 1.219 1.312 1.219 1.22 0 2.079-1.875 2.079-1.969 0-.11-.282-.25-.329-.25-.109 0-.328.172-.375.297C2.72-.547 2.281-.39 1.875-.39c-.25 0-.172-.03-.172-.421 0-.282.016-.375.063-.579l.859-3.39h.953c.25 0 .563-.125.563-.375zm0 0"/></svg><svg overflow="visible" x="115.725" y="19.161"><path d="M8.828-3.125c0-.125-.312-.36-.437-.36H5.078v-3.374c0-.141-.297-.375-.422-.375-.14 0-.453.234-.453.375v3.375H.906c-.125 0-.437.234-.437.359 0 .14.312.375.437.375h3.297V.625c0 .125.313.36.453.36.125 0 .422-.235.422-.36V-2.75h3.313c.125 0 .437-.234.437-.375zm0 0"/></svg><svg overflow="visible" x="127.68" y="19.161"><path d="M5.328-1.406c0-.078-.266-.297-.328-.297-.063 0-.234.062-.297.156C3.75-.359 2.593-.39 2.453-.39c-.75 0-.89-.453-.89-1.171 0-.5.187-1.563.593-2.297.36-.688.89-1.157 1.547-1.157.406 0 .719.11.766.204.078 0-.235.046-.407.203a1.026 1.026 0 00-.265.562c0 .297.406.563.64.563.344 0 .86-.422.86-.907 0-.578-.75-1.156-1.61-1.156-1.609 0-3.406 1.844-3.406 3.531 0 1.079.906 2.141 2.14 2.141 1.72 0 2.907-1.39 2.907-1.531zm0 0"/></svg><svg overflow="visible" x="133.156" y="19.161"><path d="M2.625-.14c0-.797-.5-1.391-.969-1.391-.39 0-.828.437-.828.765 0 .329.438.766.828.766.157 0 .438-.078.563-.188l.047-.046s-.313-.078-.313.093c0 .875-.344 1.5-.75 1.891-.125.14-.187.266-.187.297 0 .078.265.265.328.265.125 0 1.281-1.062 1.281-2.453zm0 0"/></svg><svg overflow="visible" x="142.373" y="19.161"><path d="M6.797-7.734c0-.547-.75-.954-1.234-.954-.407 0-1.36.344-1.72 1.532-.077.25-.109.36-.374 1.734h-.64c-.235 0-.563.14-.563.36 0 .156.296.28.53.28h.563L2.484-.186c-.218 1.156-.218 2.109-.828 2.109-.047 0-.218.031-.218.031.187-.016.484-.578.484-.766 0-.265-.406-.546-.625-.546-.313 0-.86.406-.86.859 0 .531.72.953 1.22.953.655 0 1.312-.844 1.687-1.61.172-.343.5-1.89.515-1.968l.688-3.656h.875c.234 0 .547-.125.547-.375 0-.125-.313-.266-.516-.266h-.781c.11-.547.094-.531.234-1.219.047-.25.157-1.015.219-1.156l.063-.094c.109-.218.125-.265.375-.265.046 0 .203-.047.218-.031-.156.03-.484.578-.484.75 0 .28.422.546.64.546.313 0 .86-.39.86-.843zm0 0"/></svg><svg overflow="visible" x="149.307" y="19.161"><path d="M4.156 2.719c0-.047-.078-.172-.11-.203-1.234-.922-2-3.22-2-5.141v-1c0-1.906.767-4.203 2-5.14a.457.457 0 00.11-.188c0-.063-.25-.25-.312-.25a1.01 1.01 0 00-.203.062C2.312-8.156 1-5.67 1-3.625v1C1-.578 2.313 1.906 3.64 2.906c.016.016.188.063.204.063.062 0 .312-.203.312-.25zm0 0"/></svg><svg overflow="visible" x="153.958" y="19.161"><path d="M4.14-5.156c0-.125-.312-.266-.53-.266H2.78c.39-1.562.453-1.797.453-1.875 0-.203-.328-.453-.53-.453-.032 0-.579.14-.688.563l-.422 1.765H.64c-.25 0-.563.14-.563.36 0 .156.297.28.531.28h.813C.594-1.515.547-1.311.547-1.093c0 .64.656 1.219 1.312 1.219 1.22 0 2.079-1.875 2.079-1.969 0-.11-.282-.25-.329-.25-.109 0-.328.172-.375.297C2.72-.547 2.281-.39 1.875-.39c-.25 0-.172-.03-.172-.421 0-.282.016-.375.063-.579l.859-3.39h.953c.25 0 .563-.125.563-.375zm0 0"/></svg><svg overflow="visible" x="158.274" y="19.161"><path d="M3.64-2.625v-1c0-2.047-1.328-4.531-2.64-5.516a.774.774 0 00-.203-.062c-.063 0-.313.187-.313.25 0 .031.079.172.094.187 1.25.938 2.016 3.235 2.016 5.141v1c0 1.922-.766 4.219-2.016 5.14-.015.032-.094.157-.094.204 0 .047.25.25.313.25A.774.774 0 001 2.906c1.313-1 2.64-3.484 2.64-5.531zm0 0"/></svg><svg overflow="visible" x="166.248" y="19.161"><path d="M8.828-4.281c0-.125-.312-.375-.437-.375H.906c-.125 0-.437.25-.437.375 0 .14.312.375.437.375h7.485c.125 0 .437-.235.437-.375zm0 2.328c0-.14-.312-.375-.437-.375H.906c-.125 0-.437.234-.437.375 0 .125.312.36.437.36h7.485c.125 0 .437-.235.437-.36zm0 0"/></svg><svg overflow="visible" x="178.873" y="19.161"><path d="M5.688-3.953c0-.953-.063-1.922-.47-2.797-.562-1.156-1.734-1.469-2.234-1.469-.718 0-1.796.438-2.28 1.547-.376.828-.438 1.766-.438 2.719 0 .89.109 2.062.593 2.969.516.968 1.532 1.25 2.11 1.25.656 0 1.75-.391 2.281-1.516.375-.828.438-1.766.438-2.703zm-1.391-.14c0 .89 0 1.702-.125 2.468C4-.485 3.516-.265 2.969-.265 2.516-.266 2-.438 1.78-1.579c-.125-.719-.125-1.813-.125-2.516 0-.765 0-1.562.094-2.203.219-1.422.922-1.406 1.219-1.406.406 0 .984.094 1.219 1.266.109.671.109 1.578.109 2.343zm0 0"/></svg><svg overflow="visible" x="188.748" y="19.161"><path d="M8.453-4.578c0-.656-.515-.969-.719-.969-.296 0-.796.438-.796.703 0 .157.125.328.234.422.125.125.375.344.375.922 0 .406-.297 1.484-.61 2.094l-.046.093c-.313.625-.532.922-1.125.922-.547 0-.688-.234-.688-.906 0-.344.078-.719.14-.875l.5-2.015c.048-.266.173-.704.173-.766 0-.219-.36-.469-.532-.469-.14 0-.562.234-.656.469-.031.094-.594 2.375-.672 2.687-.093.36-.11.563-.11.782 0 .14 0 .156.017.218-.282.625-.438.875-.907.875-.953 0-.765-.75-.765-.953 0-.39.062-.86.625-2.328.14-.36.203-.531.203-.765 0-.532-.578-1.11-1.172-1.11C.782-5.547.14-3.687.14-3.578c0 .125.484.219.484.219l-.14.03c.124 0 .328-.155.39-.343.313-1.11.594-1.344 1.016-1.344.109 0 .093-.125.093.266 0 .297-.125.625-.218.828-.516 1.406-.672 1.969-.672 2.422C1.094-.422 2.109.125 3 .125c.203 0 .89-.031 1.203-.563.14.36 1.172.563 1.531.563.907 0 1.61-.875 1.922-1.594.407-.937.797-2.531.797-3.11zm0 0"/></svg><svg overflow="visible" x="197.343" y="19.161"><path d="M6.719-1.844c0-.11-.297-.25-.328-.25-.125 0-.329.172-.391.344-.172.64-.36 1.36-1.016 1.36-.203 0-.093.015-.093-.266 0-.297.109-.594.218-.844.188-.516.72-1.938.72-2.64 0-.766-.673-1.407-1.563-1.407-.75 0-1.47.406-1.907.953l.329.094.937-3.797-.063.094s-.124-.36-.28-.36c-.282 0-1.157.094-1.47.126-.093.015-.421.156-.421.374 0 .141.312.266.484.266.578 0 .39-.047.39.078l-.03.235L.5-.594c-.047.156-.047.188-.047.266 0 .266.438.453.547.453.188 0 .578-.266.64-.438l.22-.906.265-1.078c.078-.265.14-.531.203-.797.031-.078.125-.469.14-.547.032-.093.345-.671.75-1 .266-.187.5-.375 1.016-.375s.438.266.438.704c0 .64-.453 1.953-.734 2.671-.094.282-.157.422-.157.657 0 .562.625 1.109 1.172 1.109C6.078.125 6.72-1.75 6.72-1.844zm0 0"/></svg><svg overflow="visible" x="204.23" y="19.161"><path d="M5.328-1.406c0-.078-.266-.297-.328-.297-.063 0-.234.062-.297.156C3.75-.359 2.593-.39 2.453-.39c-.937 0-.844-.875-.844-1.265 0-.14 0-.5.141-1.11h.484c.344 0 1.235-.015 1.829-.265.843-.36 1.093-1.203 1.093-1.375 0-.516-.656-1.14-1.468-1.14-1.329 0-3.344 1.296-3.344 3.39C.344-.937 1.25.125 2.422.125c1.719 0 2.906-1.39 2.906-1.531zm-.969-3c0 1.25-1.703 1.125-2.203 1.125h-.25c.422-1.688 1.469-1.735 1.782-1.735.562 0 .671.204.671.61zm0 0"/></svg><svg overflow="visible" x="209.801" y="19.161"><path d="M7.016-1.844c0-.11-.297-.25-.329-.25-.125 0-.328.172-.39.344-.234.813-.422 1.36-1.016 1.36-.203 0-.093.015-.093-.266 0-.297.109-.594.218-.844.219-.64.719-1.953.719-2.64 0-.798-.703-1.407-1.563-1.407-1.078 0-1.796.797-2 1.078l.329.094c-.063-.672-.735-1.172-1.282-1.172-.562 0-.921.5-1.14.89C.313-4.327.14-3.624.14-3.577c0 .125.484.219.484.219l-.14.03c.124 0 .328-.14.406-.405.203-.844.25-1.282.671-1.282.25 0 .172.016.172.407 0 .265-.03.39-.187 1.015L.844-.844c-.031.188-.11.469-.11.516 0 .219.375.453.563.453.14 0 .547-.219.656-.547-.078.156.125-.5.203-.797l.266-1.078c.062-.265.14-.531.203-.797l.14-.594c.188-.374.626-1.328 1.766-1.328.532 0 .438.313.438.704 0 .734-.578 2.265-.766 2.78-.11.282-.125.423-.125.548 0 .562.625 1.109 1.188 1.109 1.125 0 1.75-1.875 1.75-1.969zm0 0"/></svg><svg overflow="visible" x="220.871" y="19.161"><path d="M4.14-5.156c0-.125-.312-.266-.53-.266H2.78c.39-1.562.453-1.797.453-1.875 0-.203-.328-.453-.53-.453-.032 0-.579.14-.688.563l-.422 1.765H.64c-.25 0-.563.14-.563.36 0 .156.297.28.531.28h.813C.594-1.515.547-1.311.547-1.093c0 .64.656 1.219 1.312 1.219 1.22 0 2.079-1.875 2.079-1.969 0-.11-.282-.25-.329-.25-.109 0-.328.172-.375.297C2.72-.547 2.281-.39 1.875-.39c-.25 0-.172-.03-.172-.421 0-.282.016-.375.063-.579l.859-3.39h.953c.25 0 .563-.125.563-.375zm0 0"/></svg><svg overflow="visible" x="228.499" y="19.161"><path d="M8.828-4.281c0-.125-.312-.375-.437-.375H.906c-.125 0-.437.25-.437.375 0 .14.312.375.437.375h7.485c.125 0 .437-.235.437-.375zm0 2.328c0-.14-.312-.375-.437-.375H.906c-.125 0-.437.234-.437.375 0 .125.312.36.437.36h7.485c.125 0 .437-.235.437-.36zm0 0"/></svg><g><svg overflow="visible" x="242.326" y="11.067"><path d="M8.828-3.125c0-.125-.312-.36-.437-.36H.906c-.125 0-.437.235-.437.36 0 .14.312.375.437.375h7.485c.125 0 .437-.234.437-.375zm0 0"/></svg><svg overflow="visible" x="251.627" y="11.067"><path d="M5.156-3.5c0-1.094-.828-2.047-1.781-2.047-.547 0-1.188.39-1.547.75l.328.094.89-3.594-.062.094s-.125-.36-.28-.36c-.282 0-1.157.094-1.454.126-.11.015-.438.156-.438.374 0 .141.313.266.485.266.578 0 .406-.047.406.078 0 .078-.11.485-.172.735L.547-3.078c-.14.594-.188.781-.188 1.203 0 1.14.829 2 1.72 2 1.405 0 3.077-1.906 3.077-3.625zm-1.265-.531c0 .703-.391 2.078-.61 2.531-.39.813-.734 1.11-1.203 1.11-.406 0-.61-.188-.61-1.079 0-.234 0-.453.188-1.203l.266-1.11c.078-.265.016-.187.125-.312.578-.781.984-.922 1.297-.922.437 0 .547.22.547.985zm0 0"/></svg></g><g><svg overflow="visible" x="259.577" y="11.067"><path d="M8.828.64c0-.14-.312-.374-.437-.374H5.078V-2.75h3.313c.125 0 .437-.234.437-.375 0-.125-.312-.36-.437-.36H5.078v-3.374c0-.141-.297-.375-.422-.375-.14 0-.453.234-.453.375v3.375H.906c-.125 0-.437.234-.437.359 0 .14.312.375.437.375h3.297V.266H.906C.781.266.47.5.47.64.469.766.78 1 .906 1h7.485c.125 0 .437-.234.437-.36zm0 0"/></svg></g><g><svg overflow="visible" x="271.538" y=".589"><path d="M10.39-.375c0-.125-.296-.36-.437-.36-.14 0-.312.11-.39.25l-.063.11-5.047 10.469h.39L2.829 5.672c-.219-.453-.375-.563-.469-.563a.543.543 0 00-.296.125l-1.188.891c-.14.11-.203.219-.203.266 0 .093.25.265.312.265a.58.58 0 00.313-.125l.406-.297 2.234 4.938c.079.156.313.297.438.297.188 0 .406-.172.484-.36L10.313-.17c.062-.126.078-.141.078-.204zm0 0"/></svg></g><path d="M281.496.352h42.95" fill="none" stroke-width=".478" stroke="#000" stroke-miterlimit="10"/><g><svg overflow="visible" x="281.497" y="11.067"><path d="M5.156-3.5c0-1.094-.828-2.047-1.781-2.047-.547 0-1.188.39-1.547.75l.328.094.89-3.594-.062.094s-.125-.36-.28-.36c-.282 0-1.157.094-1.454.126-.11.015-.438.156-.438.374 0 .141.313.266.485.266.578 0 .406-.047.406.078 0 .078-.11.485-.172.735L.547-3.078c-.14.594-.188.781-.188 1.203 0 1.14.829 2 1.72 2 1.405 0 3.077-1.906 3.077-3.625zm-1.265-.531c0 .703-.391 2.078-.61 2.531-.39.813-.734 1.11-1.203 1.11-.406 0-.61-.188-.61-1.079 0-.234 0-.453.188-1.203l.266-1.11c.078-.265.016-.187.125-.312.578-.781.984-.922 1.297-.922.437 0 .547.22.547.985zm0 0"/></svg></g><g><svg overflow="visible" x="286.793" y="7.611"><path d="M4.234-1.844H3.75c-.047.344-.063.735-.172.813-.062.047-.562 0-.687 0H1.812c.563-.5.86-.735 1.36-1.125.625-.5 1.265-1.14 1.265-1.938 0-1-1.093-1.781-2.171-1.781-1.032 0-1.954.89-1.954 1.656 0 .422.579.625.657.625.203 0 .656-.297.656-.61 0-.14-.266-.593-.422-.593.188-.437.547-.469.938-.469.843 0 1.062.5 1.062 1.172 0 .735-.453 1.203-.719 1.5l-2.03 2C.374-.516.311-.39.311 0h3.844l.313-1.844zm0 0"/></svg></g><g><svg overflow="visible" x="294.71" y="11.067"><path d="M8.828-3.125c0-.125-.312-.36-.437-.36H.906c-.125 0-.437.235-.437.36 0 .14.312.375.437.375h7.485c.125 0 .437-.234.437-.375zm0 0"/></svg></g><g><svg overflow="visible" x="306.665" y="11.067"><path d="M5.828-2.11v-.5H4.625v-5.296c0-.25-.188-.453-.375-.453-.11 0-.297.046-.39.187L.124-2.469v.5h3.188v.907c0 .421.171.421-.704.421h-.453v.672C2.844-.03 3.47-.03 3.97-.03s1.14 0 1.812.062V-.64h-.437c-.89 0-.719 0-.719-.421v-.907h1.203zm-2.25-.5H.953L3.72-6.843l-.344-.093v4.328zm0 0"/></svg><svg overflow="visible" x="312.643" y="11.067"><path d="M6.14-1.844c0-.11-.296-.25-.327-.25-.125 0-.344.188-.375.344-.204.781-.22 1.36-.704 1.36-.328 0-.171-.188-.171-.422 0-.266.03-.36.156-.891l.265-1.063.438-1.687c.078-.328.078-.36.078-.406 0-.204-.344-.454-.547-.454-.281 0-.656.407-.703.657h.406c-.218-.438-.765-.89-1.297-.89-1.406 0-3.078 1.89-3.078 3.64 0 1.125.86 2.031 1.781 2.031.25 0 .97-.078 1.422-.61.032.094.657.61 1.22.61.421 0 .827-.297 1.015-.688l.062-.093c.203-.438.297-1.094.297-1.094zm-2.03-2.25c0 .063-.016.14-.032.203l-.594 2.344c-.062.203 0 .14-.187.344-.531.656-.875.812-1.203.812-.594 0-.578-.53-.578-1 0-.593.328-1.968.593-2.515.375-.703.782-1.11 1.266-1.11.766 0 .734.844.734.922zm0 0"/></svg><svg overflow="visible" x="318.967" y="11.067"><path d="M5.328-1.406c0-.078-.266-.297-.328-.297-.063 0-.234.062-.297.156C3.75-.359 2.593-.39 2.453-.39c-.75 0-.89-.453-.89-1.171 0-.5.187-1.563.593-2.297.36-.688.89-1.157 1.547-1.157.406 0 .719.11.766.204.078 0-.235.046-.407.203a1.026 1.026 0 00-.265.562c0 .297.406.563.64.563.344 0 .86-.422.86-.907 0-.578-.75-1.156-1.61-1.156-1.609 0-3.406 1.844-3.406 3.531 0 1.079.906 2.141 2.14 2.141 1.72 0 2.907-1.39 2.907-1.531zm0 0"/></svg></g><path d="M242.324 16.172h82.121" fill="none" stroke-width=".478" stroke="#000" stroke-miterlimit="10"/><g><svg overflow="visible" x="277.234" y="27.363"><path d="M5.36-2.344h-.47c-.077.485-.109.922-.234 1.094-.078.11-.718.063-.984.063H1.89l1.03-1c1.86-1.657 2.642-2.391 2.642-3.579 0-1.375-1.266-2.453-2.735-2.453C1.484-8.219.391-7 .391-5.922c0 .656.796.797.843.797.204 0 .813-.281.813-.766 0-.312-.406-.75-.828-.75-.094 0-.125 0 .125-.093.187-.547.64-.86 1.328-.86 1.094 0 1.406.844 1.406 1.828 0 .954-.547 1.797-1.203 2.532L.578-.672C.453-.532.391-.422.391 0h4.812l.375-2.344zm0 0"/></svg><svg overflow="visible" x="283.212" y="27.363"><path d="M6.14-1.844c0-.11-.296-.25-.327-.25-.125 0-.344.188-.375.344-.204.781-.22 1.36-.704 1.36-.328 0-.171-.188-.171-.422 0-.266.03-.36.156-.891l.265-1.063.438-1.687c.078-.328.078-.36.078-.406 0-.204-.344-.454-.547-.454-.281 0-.656.407-.703.657h.406c-.218-.438-.765-.89-1.297-.89-1.406 0-3.078 1.89-3.078 3.64 0 1.125.86 2.031 1.781 2.031.25 0 .97-.078 1.422-.61.032.094.657.61 1.22.61.421 0 .827-.297 1.015-.688l.062-.093c.203-.438.297-1.094.297-1.094zm-2.03-2.25c0 .063-.016.14-.032.203l-.594 2.344c-.062.203 0 .14-.187.344-.531.656-.875.812-1.203.812-.594 0-.578-.53-.578-1 0-.593.328-1.968.593-2.515.375-.703.782-1.11 1.266-1.11.766 0 .734.844.734.922zm0 0"/></svg></g></svg>