<svg xmlns="http://www.w3.org/2000/svg" xmlns:xlink="http://www.w3.org/1999/xlink" width="253px" height="44" viewBox="0 0 190 33"><svg overflow="visible" x=".483" y="10.961"><path d="M.25-4.203h.375l.266-.64c.078-.204.156-.204.437-.204.219 0 .438.031.656.031.25 0 .438-.015.375 0C1.281-3.859.734-2.766.734-1.578c0 .922.72 1.703 1.485 1.703.5 0 1.078-.25 1.625-.734.562-.516 1.187-1.407 1.562-2.235.266-.594.469-1.406.469-1.875 0-.687-.484-1.312-.922-1.312-.14 0-.422.093-.516.187l-.671.625.28.469c.282-.188.266-.188.376-.188.328 0 .328.141.328.625 0 1.766-.969 3.579-2.031 3.579-.578 0-.781-.36-.781-1.141 0-1.25.421-2.25 1.64-3.781l-.219-.407c-.312.141-.468.188-.796.188-.5 0-.985-.047-1.47-.094-.155 0-.25.032-.515.14C.406-5.515.234-5 .031-4.202zm0 0"/></svg><svg overflow="visible" x="6.281" y="10.961"><path d="M0-1.469C0-.547.703.125 1.563.125c.687 0 1.468-.36 2.64-1.313L4-1.688l-.5.344c-.625.453-1.078.657-1.5.657-.578 0-.75-.313-.75-1.047 0-.313.031-.61.078-.86l.828-.203c.203-.047.516-.172.828-.297C4-3.547 4.641-4.219 4.641-4.954c0-.562-.563-1.077-1.172-1.077-.781 0-2.219.843-2.688 1.61C.421-3.845 0-2.313 0-1.47zm1.406-1.5l.11-.437c.187-.797.39-1.219.703-1.516.234-.219.5-.344.797-.344.343 0 .39.11.39.5 0 .516-.234.954-.86 1.25a6.042 6.042 0 01-1.093.375zm0 0"/></svg><svg overflow="visible" x="10.932" y="10.961"><path d="M.125-4.766l.172.47.594-.391c.343-.22.359-.235.453-.235.125 0 .031-.031.031.125 0 .703-.516 3.156-1 4.734l.266.188a5.85 5.85 0 01.984-.219l.328-1.547c.219-.984.453-1.53.969-2.203.406-.531.61-.75.875-.75.187 0 .172.032.344.235h.406c.062-.594.11-.97.219-1.516-.313-.14-.36-.156-.422-.156-.36 0-.86.328-1.297.937-.406.594-.875 1.25-1.172 1.907h.344l.312-1.516c.063-.25.14-.531.14-.813 0-.234-.25-.515-.437-.515-.25 0-.828.297-1.718.922l-.391.296zm0 0"/></svg><svg overflow="visible" x="15.75" y="10.961"><path d="M-.281 2.234c0 .516.625 1.063 1.172 1.063 1.265 0 2.75-1.61 3.453-3.828L6.03-5.828l-.265-.219c-.391.156-.657.219-1.063.266L4.25-4.094c-.156.563-.516 1.344-.922 1.938-.406.61-.86 1.094-1.125 1.094s-.078-.438-.062-.594l.171-2.328c.032-.36.047-.829.047-1.157 0-.53-.25-.89-.453-.89-.156 0-.453.125-1.015.515l-1.063.735.281.453.782-.469c.046-.047.093-.11.171-.11.313 0 .079.485.079.673L.937-1.328l-.015.484c-.016.5.39.969.687.969.454 0 1.563-1.047 2.47-2.39L3.78-2.36 3.187-.33c-.609 2.126-1.03 2.86-1.859 2.86-.422 0-.578-.187-.578-.61 0-.062.016-.155.031-.312l-.344-.156-.687.5c-.031.156-.031.219-.031.281zm0 0"/></svg><svg overflow="visible" x="24.716" y="10.961"><path d="M-.016-.063l.141.188 1.063-.25c.203-1.469.359-2.094.703-2.734.53-.97 1.64-2.094 2.156-2.094.156 0 .078-.016.078.14 0 .204-.078.672-.188 1.063l-.609 2.344c-.094.422-.156.687-.156.922 0 .28.312.593.547.593.312 0 .86-.28 2.11-1.218l-.266-.47-.5.329c-.344.219-.47.313-.594.313-.078 0 .015.03.015-.11 0-.11.016-.203.079-.469l.765-3.062c.078-.313.14-.688.14-.89 0-.25-.312-.563-.515-.563-.406 0-1.266.437-2.031 1.078-.406.344-.61.562-1.172 1.266l-.234.296.296.094L3-8.797l-.297-.265c-.781.39-1.078.453-2.094.546l-.093.5h.78c.282 0 .22-.046.22.157 0 .109-.016.203-.016.296L.984-4.765C.672-2.969.188-.906-.062-.14zm0 0"/></svg><svg overflow="visible" x="30.694" y="10.961"><path d="M-.125-.922c0 .516.36 1.047.578 1.047.25 0 .813-.281 1.25-.656.516-.453 1-1.016 1.656-1.938l-.296-.094-.344 1.516a2.715 2.715 0 00-.078.61c0 .265.28.562.468.562.266 0 .891-.36 1.922-1.219l-.187-.562c-.297.234-.297.25-.36.297-.39.312-.437.39-.609.39-.125 0-.016.031-.016-.156 0-.047 0-.078.016-.125l1.11-4.563-.282-.25-.453.25c-.422-.156-.656-.218-.969-.218-.344 0-.578.062-.906.218-.75.375-1.266.766-1.688 1.61-.453.906-.812 2.328-.812 3.281zm1.203-.39c0-.766.313-2.094.734-3.094.282-.688.407-.766.985-.766.281 0 .5.047.828.156-.25 1.22-.438 1.735-.828 2.344C2.14-1.656 1.516-.969 1.125-.969c-.14 0-.047-.015-.047-.344zm0 0"/></svg><svg overflow="visible" x="36.002" y="10.961"><path d="M.125-4.766l.172.47.594-.391c.343-.22.359-.235.453-.235.125 0 .031-.031.031.125 0 .703-.516 3.156-1 4.734l.266.188a5.85 5.85 0 01.984-.219l.328-1.547c.219-.984.453-1.53.969-2.203.406-.531.61-.75.875-.75.187 0 .172.032.344.235h.406c.062-.594.11-.97.219-1.516-.313-.14-.36-.156-.422-.156-.36 0-.86.328-1.297.937-.406.594-.875 1.25-1.172 1.907h.344l.312-1.516c.063-.25.14-.531.14-.813 0-.234-.25-.515-.437-.515-.25 0-.828.297-1.718.922l-.391.296zm0 0"/></svg><svg overflow="visible" x="40.306" y="10.961"><path d="M.031-1.156C.031-.375.375.125.734.125c.313 0 .875-.234 1.282-.563.656-.515 1.046-.984 1.843-2.187l-.296-.094L3.28-1.64c-.125.532-.187.907-.187 1.22 0 .25.281.546.484.546.219 0 .625-.203 1.031-.5l1.032-.766-.266-.484-.703.484c-.172.125-.219.172-.328.172-.094 0 0 .031 0-.14 0-.094.015-.204.093-.547l1.516-7.14-.297-.267c-.781.391-1.078.454-2.093.547l-.094.5h.781c.281 0 .219-.046.219.157 0 .109-.016.203-.016.296l-.312 1.657a3.082 3.082 0 00-.829-.125c-.828 0-2.078.906-2.624 1.937C.313-3.39.03-2.156.03-1.156zm1.203-.14c0-1.516.5-3.282 1.079-3.735.156-.125.265-.14.593-.14.531 0 .735.03 1.078.202l-.14.64a5.186 5.186 0 01-1.485 2.72c-.421.39-.765.64-1 .64-.187 0-.125-.031-.125-.328zm0 0"/></svg><svg overflow="visible" x="46.283" y="10.961"><path d="M.344-.64c0 .359.39.703.703.703.406 0 .906-.516.906-.954 0-.328-.406-.718-.703-.718-.406 0-.906.515-.906.968zm.703-4.126c0 .344.375.688.703.688.406 0 .89-.5.89-.953 0-.328-.406-.703-.703-.703-.39 0-.89.515-.89.968zm0 0"/></svg><svg overflow="visible" x="53.253" y="10.961"><path d="M-.031-.234C.438 0 .969.125 1.39.125c.578 0 1.25-.25 1.859-.719.61-.484.906-1.015.906-1.625 0-.64-.531-1.11-1.437-1.281l-.5-.094c-.719-.14-.781-.203-.781-.703 0-.625.359-.984 1.046-.984.485 0 .813.172.954.422v.765h.609c.062-.547.11-.86.25-1.531-.64-.297-.969-.406-1.375-.406-.61 0-1.469.39-2.047.968-.313.329-.5.72-.5 1.157 0 .672.563 1.187 1.344 1.344l.75.14c.531.094.547.156.547.64 0 .798-.375 1.173-1.22 1.173-.437 0-.671-.094-.952-.329V-2.03h-.64C.124-1.297.062-.875-.079-.266zm0 0"/></svg><svg overflow="visible" x="57.904" y="10.961"><path d="M.031-1.953C.031-.687.734.125 1.734.125c.657 0 1.5-.344 2.032-.844.734-.703 1.312-2.156 1.312-3.375 0-1.125-.766-1.937-1.75-1.937-.515 0-1.219.25-1.75.625-.969.703-1.547 2-1.547 3.453zm1.25.016c0-1.344.422-2.72 1-3.204.156-.125.313-.171.594-.171.734 0 .953.406.953 1.421 0 1.141-.328 2.313-.86 2.954-.202.25-.39.359-.75.359-.702 0-.937-.406-.937-1.36zm0 0"/></svg><svg overflow="visible" x="63.212" y="10.961"><path d="M.25-.484c0 .28.313.593.531.593.313 0 .875-.296 2.11-1.218l-.266-.47-.484.329c-.36.234-.485.313-.594.313-.094 0 0 .03 0-.11s.047-.297.078-.437l1.547-7.313-.297-.265c-.766.39-1.063.453-2.094.546l-.094.5h.782c.281 0 .234-.046.234.141 0 .156-.047.422-.078.578L.485-1.703C.312-1.093.25-.75.25-.484zm0 0"/></svg><svg overflow="visible" x="66.129" y="10.961"><path d="M.25-4.203h.375l.266-.64c.078-.204.156-.204.437-.204.219 0 .438.031.656.031.25 0 .438-.015.375 0C1.281-3.859.734-2.766.734-1.578c0 .922.72 1.703 1.485 1.703.5 0 1.078-.25 1.625-.734.562-.516 1.187-1.407 1.562-2.235.266-.594.469-1.406.469-1.875 0-.687-.484-1.312-.922-1.312-.14 0-.422.093-.516.187l-.671.625.28.469c.282-.188.266-.188.376-.188.328 0 .328.141.328.625 0 1.766-.969 3.579-2.031 3.579-.578 0-.781-.36-.781-1.141 0-1.25.421-2.25 1.64-3.781l-.219-.407c-.312.141-.468.188-.796.188-.5 0-.985-.047-1.47-.094-.155 0-.25.032-.515.14C.406-5.515.234-5 .031-4.202zm0 0"/></svg><svg overflow="visible" x="71.927" y="10.961"><path d="M0-1.469C0-.547.703.125 1.563.125c.687 0 1.468-.36 2.64-1.313L4-1.688l-.5.344c-.625.453-1.078.657-1.5.657-.578 0-.75-.313-.75-1.047 0-.313.031-.61.078-.86l.828-.203c.203-.047.516-.172.828-.297C4-3.547 4.641-4.219 4.641-4.954c0-.562-.563-1.077-1.172-1.077-.781 0-2.219.843-2.688 1.61C.421-3.845 0-2.313 0-1.47zm1.406-1.5l.11-.437c.187-.797.39-1.219.703-1.516.234-.219.5-.344.797-.344.343 0 .39.11.39.5 0 .516-.234.954-.86 1.25a6.042 6.042 0 01-1.093.375zm0 0"/></svg><svg overflow="visible" x="79.558" y="10.961"><path d="M4.984-1.14l-.156-.485c-.25.203-.266.219-.328.266-.375.312-.453.39-.625.39-.125 0-.047.031-.047-.156 0-.047 0-.078.016-.125l1.11-4.578-.25-.203-.438.218c-.438-.156-.672-.218-.985-.218-.344 0-.578.062-.906.218-.75.375-1.234.766-1.531 1.36l-.047.094C.28-3.297-.093-1.875-.093-.922c0 .516.327 1.047.546 1.047.25 0 .797-.281 1.234-.656.516-.453.985-1.016 1.641-1.938l-.234-.094-.344 1.516a2.715 2.715 0 00-.078.61c0 .265.25.562.437.562.266 0 .86-.36 1.891-1.219zM3.672-5.079c-.266 1.281-.453 1.797-.844 2.406C2.156-1.656 1.516-.969 1.125-.969c-.14 0-.078-.015-.078-.344 0-.765.297-2.093.719-3.093.296-.688.453-.766 1.03-.766.282 0 .5.047.86.172zm0 0"/></svg><svg overflow="visible" x="84.866" y="10.961"><path d="M3.703-5.516c-.453.047-.86.063-1.156.063.172-.984.297-1.578.531-2.25l-.25-.328a7.16 7.16 0 01-1.094.531l-.296 2.031c-.391.203-.704.328-1.063.407l-.047.406h1l-.64 3.25C.625-1.11.53-.813.53-.5c0 .297.266.61.5.61.422 0 .922-.282 1.86-1.032.218-.172.14-.125.437-.36l-.25-.437-.672.469c-.36.25-.484.313-.625.313-.093 0-.031.046-.031-.11 0-.297.156-1.234.516-3l.14-.61h1.266l.203-.89zm0 0"/></svg><svg overflow="visible" x="88.907" y="6.728"><path d="M4.703-2.11c0-.421-.25-.89-.594-1.124a2.225 2.225 0 00-.703-.282c.531-.375.86-.875.86-1.406 0-.781-.86-1.437-1.938-1.437-.64 0-1.203.203-1.687.656L.312-4.406h.594l.219-.625c.11-.297.563-.469 1.063-.469.624 0 .984.328.984.89 0 .673-.406 1.094-1.094 1.094-.078 0-.36.204-.36.204l-.265-.094-.125.515.203.157c.407-.172.594-.22.844-.22.813 0 1.11.329 1.11 1.142 0 .906-.422 1.359-1.329 1.359-.437 0-.719-.094-1.015-.344C.906-.984.828-1.094.578-1.75l-.531.188c.234.609.312.937.375 1.468C1.078.11 1.5.172 1.859.172c.782 0 1.766-.422 2.297-1.016.328-.375.547-.86.547-1.265zm0 0"/></svg><svg overflow="visible" x="97.061" y="10.961"><path d="M8.266-2.766a1.332 1.332 0 01-.047-.359c0-.11.015-.234.062-.484h-3.25v-3.266c-.25.063-.375.078-.484.078-.125 0-.25-.016-.5-.078v3.266H.78c.063.25.063.375.063.484 0 .125 0 .25-.063.5h3.266V.641c.25-.063.375-.079.5-.079.11 0 .234.016.484.079v-3.266h3.25zm0 0"/></svg><svg overflow="visible" x="108.801" y="10.961"><path d="M5.313-4.625c0-.453-.157-1.016-.297-1.203-.079-.094-.329-.203-.516-.203-.281 0-.75.14-1.078.312-.61.313-1 .672-1.75 1.625L1.906-4l1.047-4.813-.265-.234c-.75.375-1.079.438-2.047.531l-.11.5h.75c.282 0 .266-.046.266.157 0 .093-.016.218-.031.296L.312-.984C.297-.938.297-.891.297-.86c0 .468.719.984 1.375.984.437 0 1.156-.25 1.656-.625 1.156-.813 1.985-2.547 1.985-4.125zm-1.141.281c0 .766-.25 1.797-.61 2.578-.39.829-.734 1.079-1.374 1.079-.547 0-.72-.157-.72-.657 0-.297.048-.625.157-1.078.234-.953.484-1.422.953-1.922.39-.406.922-.718 1.266-.718.312 0 .328.14.328.718zm0 0"/></svg><svg overflow="visible" x="114.336" y="10.961"><path d="M3.703-5.516c-.453.047-.86.063-1.156.063.172-.984.297-1.578.531-2.25l-.25-.328a7.16 7.16 0 01-1.094.531l-.296 2.031c-.391.203-.704.328-1.063.407l-.047.406h1l-.64 3.25C.625-1.11.53-.813.53-.5c0 .297.266.61.5.61.422 0 .922-.282 1.86-1.032.218-.172.14-.125.437-.36l-.25-.437-.672.469c-.36.25-.484.313-.625.313-.093 0-.031.046-.031-.11 0-.297.156-1.234.516-3l.14-.61h1.266l.203-.89zm0 0"/></svg><svg overflow="visible" x="118.38" y="6.728"><path d="M4.75-.11c-.016-.187-.016-.265-.016-.39s0-.203.032-.547l-3.141.094 1.5-1.469c.938-.906 1.266-1.5 1.266-2.156 0-1.016-.891-1.781-2.125-1.781-.688 0-1.282.218-1.782.687L.297-4.266h.547l.172-.546c.156-.516.359-.594 1-.594.828 0 1.203.343 1.203 1.093 0 .657-.36 1.22-1.453 2.282L.078-.391v.422L2.391 0l2.375.031zm0 0"/></svg><svg overflow="visible" x="126.533" y="10.961"><path d="M8.266-2.766a1.332 1.332 0 01-.047-.359c0-.11.015-.234.062-.484h-3.25v-3.266c-.25.063-.375.078-.484.078-.125 0-.25-.016-.5-.078v3.266H.78c.063.25.063.375.063.484 0 .125 0 .25-.063.5h3.266V.641c.25-.063.375-.079.5-.079.11 0 .234.016.484.079v-3.266h3.25zm0 0"/></svg><svg overflow="visible" x="138.273" y="10.961"><path d="M4.75-5.703c-.297-.188-.797-.328-1.25-.328-.531 0-1.484.468-2.172 1.062C.641-4.375.156-3.03.156-1.75.156-.61.796.125 1.75.125c.656 0 1.328-.266 1.984-.813l.657-.53-.204-.485-.343.219c-.86.578-1.203.75-1.625.75-.672 0-.875-.36-.875-1.297 0-1.266.36-2.406.937-2.875.25-.203.453-.266.844-.266.531 0 .813.094.813.375v.86h.546c.11-.922.188-1.36.329-1.735zm0 0"/></svg><svg overflow="visible" x="143.258" y="10.961"><path d="M3.703-5.516c-.453.047-.86.063-1.156.063.172-.984.297-1.578.531-2.25l-.25-.328a7.16 7.16 0 01-1.094.531l-.296 2.031c-.391.203-.704.328-1.063.407l-.047.406h1l-.64 3.25C.625-1.11.53-.813.53-.5c0 .297.266.61.5.61.422 0 .922-.282 1.86-1.032.218-.172.14-.125.437-.36l-.25-.437-.672.469c-.36.25-.484.313-.625.313-.093 0-.031.046-.031-.11 0-.297.156-1.234.516-3l.14-.61h1.266l.203-.89zm0 0"/></svg><svg overflow="visible" x="149.953" y="10.961"><path d="M8.266-2.766a1.332 1.332 0 01-.047-.359c0-.11.015-.234.062-.484h-3.25v-3.266c-.25.063-.375.078-.484.078-.125 0-.25-.016-.5-.078v3.266H.78c.063.25.063.375.063.484 0 .125 0 .25-.063.5h3.266V.641c.25-.063.375-.079.5-.079.11 0 .234.016.484.079v-3.266h3.25zm0 0"/></svg><svg overflow="visible" x="161.693" y="10.961"><path d="M5.875-8.86l-.219-.187c-.75.375-1.078.438-2.062.531l-.094.5h.75c.281 0 .25-.046.25.157 0 .109 0 .203-.016.296L4.188-5.89a3.109 3.109 0 00-.875-.14c-.829 0-2.063.906-2.61 1.937-.375.703-.64 1.938-.64 2.938C.063-.375.374.125.734.125c.313 0 .86-.234 1.266-.563.64-.515 1.031-.984 1.844-2.187l-.25-.094-.266 1.078c-.14.532-.203.907-.203 1.22 0 .25.25.546.453.546.219 0 .594-.203 1-.5l1.047-.766-.266-.468-.656.468c-.172.125-.25.172-.36.172-.093 0-.046.031-.046-.14 0-.094.031-.204.11-.547l1.515-7.157zM4.031-5.03l-.14.703A5.233 5.233 0 012.375-1.61c-.422.39-.781.64-1.016.64-.187 0-.171-.031-.171-.328 0-1.516.515-3.281 1.109-3.734.156-.125.281-.14.61-.14.53 0 .765.03 1.109.218zm0 0"/></svg><svg overflow="visible" x="171.126" y="10.961"><path d="M8.266-4.078a1.419 1.419 0 01-.047-.36c0-.109.015-.234.062-.484h-7.5c.063.25.063.375.063.484 0 .125 0 .235-.063.5h7.5zm0 2.625a1.332 1.332 0 01-.047-.36c0-.109.015-.234.062-.484h-7.5c.063.25.063.375.063.485 0 .125 0 .25-.063.5h7.5zm0 0"/></svg><svg overflow="visible" x="183.535" y="10.961"><path d="M5.688-4.5c0-2.625-.907-4-2.547-4C1.297-8.5.203-6.89.203-4c0 1.39.281 2.703.703 3.281.422.594 1.203.953 1.938.953 1.812 0 2.844-1.687 2.844-4.734zm-1.282.594C4.406-1.36 4.094-.437 3-.437c-1.156 0-1.516-1.079-1.516-4 0-2.516.313-3.375 1.438-3.375 1.172 0 1.484 1.03 1.484 3.906zm0 0"/></svg><svg overflow="visible" x="19.348" y="29.607"><path d="M0-1.469C0-.547.703.125 1.563.125c.687 0 1.468-.36 2.64-1.313L4-1.688l-.5.344c-.625.453-1.078.657-1.5.657-.578 0-.75-.313-.75-1.047 0-.313.031-.61.078-.86l.828-.203c.203-.047.516-.172.828-.297C4-3.547 4.641-4.219 4.641-4.954c0-.562-.563-1.077-1.172-1.077-.781 0-2.219.843-2.688 1.61C.421-3.845 0-2.313 0-1.47zm1.406-1.5l.11-.437c.187-.797.39-1.219.703-1.516.234-.219.5-.344.797-.344.343 0 .39.11.39.5 0 .516-.234.954-.86 1.25a6.042 6.042 0 01-1.093.375zm0 0"/></svg><svg overflow="visible" x="23.999" y="29.607"><path d="M-.125-.922c0 .516.36 1.047.578 1.047.25 0 .813-.281 1.25-.656.516-.453 1-1.016 1.656-1.938l-.296-.094-.344 1.516a2.715 2.715 0 00-.078.61c0 .265.28.562.468.562.266 0 .891-.36 1.922-1.219l-.187-.562c-.297.234-.297.25-.36.297-.39.312-.437.39-.609.39-.125 0-.016.031-.016-.156 0-.047 0-.078.016-.125l1.11-4.563-.282-.25-.453.25c-.422-.156-.656-.218-.969-.218-.344 0-.578.062-.906.218-.75.375-1.266.766-1.688 1.61-.453.906-.812 2.328-.812 3.281zm1.203-.39c0-.766.313-2.094.734-3.094.282-.688.407-.766.985-.766.281 0 .5.047.828.156-.25 1.22-.438 1.735-.828 2.344C2.14-1.656 1.516-.969 1.125-.969c-.14 0-.047-.015-.047-.344zm0 0"/></svg><svg overflow="visible" x="29.307" y="29.607"><path d="M-.031-.234C.438 0 .969.125 1.39.125c.578 0 1.25-.25 1.859-.719.61-.484.906-1.015.906-1.625 0-.64-.531-1.11-1.437-1.281l-.5-.094c-.719-.14-.781-.203-.781-.703 0-.625.359-.984 1.046-.984.485 0 .813.172.954.422v.765h.609c.062-.547.11-.86.25-1.531-.64-.297-.969-.406-1.375-.406-.61 0-1.469.39-2.047.968-.313.329-.5.72-.5 1.157 0 .672.563 1.187 1.344 1.344l.75.14c.531.094.547.156.547.64 0 .798-.375 1.173-1.22 1.173-.437 0-.671-.094-.952-.329V-2.03h-.64C.124-1.297.062-.875-.079-.266zm0 0"/></svg><svg overflow="visible" x="33.957" y="29.607"><path d="M.234-4.766l.157.47.593-.391c.36-.22.36-.235.47-.235.109 0 .015-.031.015.11 0 .109-.047.359-.094.53L.578-1.405c-.094.375-.14.672-.14.922 0 .28.296.593.53.593.313 0 .876-.296 2.11-1.218l-.265-.47-.5.329c-.36.234-.47.313-.594.313-.078 0 .015.03.015-.11 0-.11.016-.203.079-.469l.921-3.64c.047-.203.079-.313.079-.422 0-.203-.266-.453-.47-.453-.265 0-.827.281-1.734.922l-.39.296zm1.641-2.578c0 .297.36.625.656.625.375 0 .813-.484.813-.937 0-.282-.344-.61-.594-.61-.36 0-.875.516-.875.922zm0 0"/></svg><svg overflow="visible" x="37.281" y="29.607"><path d="M0-1.469C0-.547.703.125 1.563.125c.687 0 1.468-.36 2.64-1.313L4-1.688l-.5.344c-.625.453-1.078.657-1.5.657-.578 0-.75-.313-.75-1.047 0-.313.031-.61.078-.86l.828-.203c.203-.047.516-.172.828-.297C4-3.547 4.641-4.219 4.641-4.954c0-.562-.563-1.077-1.172-1.077-.781 0-2.219.843-2.688 1.61C.421-3.845 0-2.313 0-1.47zm1.406-1.5l.11-.437c.187-.797.39-1.219.703-1.516.234-.219.5-.344.797-.344.343 0 .39.11.39.5 0 .516-.234.954-.86 1.25a6.042 6.042 0 01-1.093.375zm0 0"/></svg><svg overflow="visible" x="41.931" y="29.607"><path d="M.125-4.766l.172.47.594-.391c.343-.22.359-.235.453-.235.125 0 .031-.031.031.125 0 .703-.516 3.156-1 4.734l.266.188a5.85 5.85 0 01.984-.219l.328-1.547c.219-.984.453-1.53.969-2.203.406-.531.61-.75.875-.75.187 0 .172.032.344.235h.406c.062-.594.11-.97.219-1.516-.313-.14-.36-.156-.422-.156-.36 0-.86.328-1.297.937-.406.594-.875 1.25-1.172 1.907h.344l.312-1.516c.063-.25.14-.531.14-.813 0-.234-.25-.515-.437-.515-.25 0-.828.297-1.718.922l-.391.296zm0 0"/></svg><g><svg overflow="visible" x="46.295" y="29.607"><path d="M.344-.64c0 .359.39.703.703.703.406 0 .906-.516.906-.954 0-.328-.406-.718-.703-.718-.406 0-.906.515-.906.968zm.703-4.126c0 .344.375.688.703.688.406 0 .89-.5.89-.953 0-.328-.406-.703-.703-.703-.39 0-.89.515-.89.968zm0 0"/></svg></g><g><svg overflow="visible" x="53.253" y="29.607"><path d="M-.031-.234C.438 0 .969.125 1.39.125c.578 0 1.25-.25 1.859-.719.61-.484.906-1.015.906-1.625 0-.64-.531-1.11-1.437-1.281l-.5-.094c-.719-.14-.781-.203-.781-.703 0-.625.359-.984 1.046-.984.485 0 .813.172.954.422v.765h.609c.062-.547.11-.86.25-1.531-.64-.297-.969-.406-1.375-.406-.61 0-1.469.39-2.047.968-.313.329-.5.72-.5 1.157 0 .672.563 1.187 1.344 1.344l.75.14c.531.094.547.156.547.64 0 .798-.375 1.173-1.22 1.173-.437 0-.671-.094-.952-.329V-2.03h-.64C.124-1.297.062-.875-.079-.266zm0 0"/></svg><svg overflow="visible" x="57.904" y="29.607"><path d="M.031-1.953C.031-.687.734.125 1.734.125c.657 0 1.5-.344 2.032-.844.734-.703 1.312-2.156 1.312-3.375 0-1.125-.766-1.937-1.75-1.937-.515 0-1.219.25-1.75.625-.969.703-1.547 2-1.547 3.453zm1.25.016c0-1.344.422-2.72 1-3.204.156-.125.313-.171.594-.171.734 0 .953.406.953 1.421 0 1.141-.328 2.313-.86 2.954-.202.25-.39.359-.75.359-.702 0-.937-.406-.937-1.36zm0 0"/></svg><svg overflow="visible" x="63.212" y="29.607"><path d="M.25-.484c0 .28.313.593.531.593.313 0 .875-.296 2.11-1.218l-.266-.47-.484.329c-.36.234-.485.313-.594.313-.094 0 0 .03 0-.11s.047-.297.078-.437l1.547-7.313-.297-.265c-.766.39-1.063.453-2.094.546l-.094.5h.782c.281 0 .234-.046.234.141 0 .156-.047.422-.078.578L.485-1.703C.312-1.093.25-.75.25-.484zm0 0"/></svg></g><g><svg overflow="visible" x="66.129" y="29.607"><path d="M.25-4.203h.375l.266-.64c.078-.204.156-.204.437-.204.219 0 .438.031.656.031.25 0 .438-.015.375 0C1.281-3.859.734-2.766.734-1.578c0 .922.72 1.703 1.485 1.703.5 0 1.078-.25 1.625-.734.562-.516 1.187-1.407 1.562-2.235.266-.594.469-1.406.469-1.875 0-.687-.484-1.312-.922-1.312-.14 0-.422.093-.516.187l-.671.625.28.469c.282-.188.266-.188.376-.188.328 0 .328.141.328.625 0 1.766-.969 3.579-2.031 3.579-.578 0-.781-.36-.781-1.141 0-1.25.421-2.25 1.64-3.781l-.219-.407c-.312.141-.468.188-.796.188-.5 0-.985-.047-1.47-.094-.155 0-.25.032-.515.14C.406-5.515.234-5 .031-4.202zm0 0"/></svg></g><g><svg overflow="visible" x="71.927" y="29.607"><path d="M0-1.469C0-.547.703.125 1.563.125c.687 0 1.468-.36 2.64-1.313L4-1.688l-.5.344c-.625.453-1.078.657-1.5.657-.578 0-.75-.313-.75-1.047 0-.313.031-.61.078-.86l.828-.203c.203-.047.516-.172.828-.297C4-3.547 4.641-4.219 4.641-4.954c0-.562-.563-1.077-1.172-1.077-.781 0-2.219.843-2.688 1.61C.421-3.845 0-2.313 0-1.47zm1.406-1.5l.11-.437c.187-.797.39-1.219.703-1.516.234-.219.5-.344.797-.344.343 0 .39.11.39.5 0 .516-.234.954-.86 1.25a6.042 6.042 0 01-1.093.375zm0 0"/></svg></g><g><svg overflow="visible" x="79.558" y="29.607"><path d="M3.703-5.516c-.453.047-.86.063-1.156.063.172-.984.297-1.578.531-2.25l-.25-.328a7.16 7.16 0 01-1.094.531l-.296 2.031c-.391.203-.704.328-1.063.407l-.047.406h1l-.64 3.25C.625-1.11.53-.813.53-.5c0 .297.266.61.5.61.422 0 .922-.282 1.86-1.032.218-.172.14-.125.437-.36l-.25-.437-.672.469c-.36.25-.484.313-.625.313-.093 0-.031.046-.031-.11 0-.297.156-1.234.516-3l.14-.61h1.266l.203-.89zm0 0"/></svg></g><g><svg overflow="visible" x="83.599" y="25.375"><path d="M4.703-2.11c0-.421-.25-.89-.594-1.124a2.225 2.225 0 00-.703-.282c.531-.375.86-.875.86-1.406 0-.781-.86-1.437-1.938-1.437-.64 0-1.203.203-1.687.656L.312-4.406h.594l.219-.625c.11-.297.563-.469 1.063-.469.624 0 .984.328.984.89 0 .673-.406 1.094-1.094 1.094-.078 0-.36.204-.36.204l-.265-.094-.125.515.203.157c.407-.172.594-.22.844-.22.813 0 1.11.329 1.11 1.142 0 .906-.422 1.359-1.329 1.359-.437 0-.719-.094-1.015-.344C.906-.984.828-1.094.578-1.75l-.531.188c.234.609.312.937.375 1.468C1.078.11 1.5.172 1.859.172c.782 0 1.766-.422 2.297-1.016.328-.375.547-.86.547-1.265zm0 0"/></svg></g><g><svg overflow="visible" x="91.753" y="29.607"><path d="M8.266-2.766a1.332 1.332 0 01-.047-.359c0-.11.015-.234.062-.484h-3.25v-3.266c-.25.063-.375.078-.484.078-.125 0-.25-.016-.5-.078v3.266H.78c.063.25.063.375.063.484 0 .125 0 .25-.063.5h3.266V.641c.25-.063.375-.079.5-.079.11 0 .234.016.484.079v-3.266h3.25zm0 0"/></svg></g><g><svg overflow="visible" x="103.493" y="29.607"><path d="M5.688-4.563c0-.796-.407-1.468-.829-1.468-.515 0-1.234.36-1.875.922-.468.421-.718.718-1.156 1.421l.234.11.297-1.438c.032-.203.063-.375.063-.515 0-.235-.235-.5-.406-.5-.25 0-.813.297-1.688.922l-.406.296.187.485.547-.36c.328-.218.375-.234.485-.234.109 0 .046-.031.046.14 0 .095-.015.329-.046.454L.453-.234l-.578 2.89-.11.485.204.171a5.507 5.507 0 011.015-.234l.5-3.062V0c.313.11.485.125.625.125.657 0 2.141-.906 2.641-1.656.5-.735.938-2.14.938-3.032zm-1.141.172c0 .97-.438 2.297-1.063 3.204-.25.343-.515.5-1.015.5-.36 0-.563-.047-.828-.204l.203-1.218C2.109-3.641 3.25-5.063 4.25-5.063c.297 0 .297.125.297.672zm0 0"/></svg><svg overflow="visible" x="109.471" y="29.607"><path d="M3.703-5.516c-.453.047-.86.063-1.156.063.172-.984.297-1.578.531-2.25l-.25-.328a7.16 7.16 0 01-1.094.531l-.296 2.031c-.391.203-.704.328-1.063.407l-.047.406h1l-.64 3.25C.625-1.11.53-.813.53-.5c0 .297.266.61.5.61.422 0 .922-.282 1.86-1.032.218-.172.14-.125.437-.36l-.25-.437-.672.469c-.36.25-.484.313-.625.313-.093 0-.031.046-.031-.11 0-.297.156-1.234.516-3l.14-.61h1.266l.203-.89zm0 0"/></svg></g><g><svg overflow="visible" x="116.166" y="29.607"><path d="M8.266-2.766a1.332 1.332 0 01-.047-.359c0-.11.015-.234.062-.484h-3.25v-3.266c-.25.063-.375.078-.484.078-.125 0-.25-.016-.5-.078v3.266H.78c.063.25.063.375.063.484 0 .125 0 .25-.063.5h3.266V.641c.25-.063.375-.079.5-.079.11 0 .234.016.484.079v-3.266h3.25zm0 0"/></svg></g><g><svg overflow="visible" x="127.906" y="29.607"><path d="M5.156-5.922l-.187-.094-.39.266c-.485-.188-.845-.281-1.188-.281-.313 0-.72.14-1.047.343-.438.266-.953.688-1.219.985-.484.562-.984 2.406-.984 3.64C.14-.359.437.125.719.125c.265 0 .594-.11.969-.39l.093-.063c.766-.578 1.547-1.422 2-2.203l-.25-.094-.906 4.938c-.047.296-.14.437-.36.671l.235.344a6.877 6.877 0 011.203-.25c.063-.765.14-1.422.235-2.015l1.03-5.454c.141-.718.204-1.03.345-1.484zm-1.11.938l-.25 1.14c-.124.61-.358 1.031-.796 1.578C2.375-1.5 1.75-.969 1.406-.969c-.156 0-.125-.125-.125-.515 0-1.141.469-2.844.985-3.438.14-.187.39-.25.765-.25.344 0 .594.063 1.016.266zm0 0"/></svg></g><g><svg overflow="visible" x="136.764" y="29.607"><path d="M8.266-4.078a1.419 1.419 0 01-.047-.36c0-.109.015-.234.062-.484h-7.5c.063.25.063.375.063.484 0 .125 0 .235-.063.5h7.5zm0 2.625a1.332 1.332 0 01-.047-.36c0-.109.015-.234.062-.484h-7.5c.063.25.063.375.063.485 0 .125 0 .25-.063.5h7.5zm0 0"/></svg></g><g><svg overflow="visible" x="149.174" y="29.607"><path d="M5.688-4.5c0-2.625-.907-4-2.547-4C1.297-8.5.203-6.89.203-4c0 1.39.281 2.703.703 3.281.422.594 1.203.953 1.938.953 1.812 0 2.844-1.687 2.844-4.734zm-1.282.594C4.406-1.36 4.094-.437 3-.437c-1.156 0-1.516-1.079-1.516-4 0-2.516.313-3.375 1.438-3.375 1.172 0 1.484 1.03 1.484 3.906zm0 0"/></svg></g></svg>