<svg xmlns="http://www.w3.org/2000/svg" xmlns:xlink="http://www.w3.org/1999/xlink" width="553px" height="37px" viewBox="0 0 415 28"><svg overflow="visible" x="-.055" y="9.745"><path d="M9.234-6.64c0-.891-.984-1.782-2.421-1.782H2.796c-.235 0-.547.125-.547.36 0 .14.313.265.531.265l.14-.031s.11.031.313.062c.22.016.125-.093.125.063 0 .047-.015.078-.046.219l-1.61 6.421c-.11.47.063.422-.875.422-.203 0-.531.141-.531.375 0 .141.312.266.531.266h4.266c1.89 0 3.484-1.547 3.484-2.719 0-.86-.875-1.687-2.047-1.812v.265c1.25-.234 2.703-1.25 2.703-2.375zM7.75-6.689c0 1.047-.828 2.047-2.281 2.047H3.937l.72-2.828c.093-.422-.063-.328.452-.328h1.532c1.062 0 1.109.578 1.109 1.11zm-.672 3.844c0 1.188-.86 2.203-2.266 2.203h-1.89c-.125-.015.031.11.031 0 0-.03 0-.046.063-.265l.78-3.203h2.11c1.14 0 1.172.75 1.172 1.265zm0 0"/></svg><svg overflow="visible" x="9.306" y="9.745"><path d="M4.156 2.719c0-.047-.078-.172-.11-.203-1.234-.922-2-3.22-2-5.141v-1c0-1.906.767-4.203 2-5.14a.457.457 0 00.11-.188c0-.063-.25-.25-.312-.25a1.01 1.01 0 00-.203.062C2.312-8.156 1-5.67 1-3.625v1C1-.578 2.313 1.906 3.64 2.906c.016.016.188.063.204.063.062 0 .312-.203.312-.25zm0 0"/></svg><svg overflow="visible" x="13.956" y="9.745"><path d="M4.14-5.156c0-.125-.312-.266-.53-.266H2.78c.39-1.562.453-1.797.453-1.875 0-.203-.328-.453-.53-.453-.032 0-.579.14-.688.563l-.422 1.765H.64c-.25 0-.563.14-.563.36 0 .156.297.28.531.28h.813C.594-1.515.547-1.311.547-1.093c0 .64.656 1.219 1.312 1.219 1.22 0 2.079-1.875 2.079-1.969 0-.11-.282-.25-.329-.25-.109 0-.328.172-.375.297C2.72-.547 2.281-.39 1.875-.39c-.25 0-.172-.03-.172-.421 0-.282.016-.375.063-.579l.859-3.39h.953c.25 0 .563-.125.563-.375zm0 0"/></svg><svg overflow="visible" x="18.272" y="9.745"><path d="M3.64-2.625v-1c0-2.047-1.328-4.531-2.64-5.516a.774.774 0 00-.203-.062c-.063 0-.313.187-.313.25 0 .031.079.172.094.187 1.25.938 2.016 3.235 2.016 5.141v1c0 1.922-.766 4.219-2.016 5.14-.015.032-.094.157-.094.204 0 .047.25.25.313.25A.774.774 0 001 2.906c1.313-1 2.64-3.484 2.64-5.531zm0 0"/></svg><svg overflow="visible" x="26.82" y="9.745"><path d="M6.688-1.844c0-.11-.297-.25-.344-.25-.11 0-.328.188-.375.344-.157.672-.188 1.36-.688 1.36-.25 0-.172-.032-.172-.422 0-.266.141-.829.235-1.25l.328-1.282c.047-.187.156-.64.203-.812.063-.282.188-.735.188-.797 0-.219-.36-.469-.547-.469-.047 0-.563.156-.657.563l-.906 3.593c-.015.047-.281.875-1.156.875-.625 0-.547-.406-.547-.859 0-.656.328-1.61.64-2.438.141-.359.204-.515.204-.75 0-.53-.578-1.109-1.172-1.109C.782-5.547.14-3.687.14-3.578c0 .125.484.219.484.219l-.14.03c.124 0 .328-.155.39-.343.297-1.031.563-1.344 1.016-1.344.109 0 .093-.125.093.266 0 .281-.125.625-.203.813-.437 1.171-.687 1.921-.687 2.5 0 1.14 1.015 1.562 1.672 1.562.78 0 1.343-.563 1.328-.531.015.094.64.531 1.156.531.422 0 .828-.297 1.016-.688l.062-.093c.203-.438.297-1.094.297-1.094zm0 0"/></svg><svg overflow="visible" x="33.659" y="9.745"><path d="M5.219-4.39c0-.532-.719-1.157-1.625-1.157-1.578 0-2.219 1.344-2.219 1.875 0 .938 1.094 1.25 1.438 1.313.624.125 1.03.125 1.03.78 0 .313-.062 1.188-1.5 1.188-.171 0-.89.125-1.093-.328.188.016.672-.469.672-.812 0-.282-.375-.547-.625-.547-.313 0-.875.375-.875.922 0 .672.875 1.281 1.906 1.281 1.938 0 2.594-1.578 2.594-2.11 0-.437-.281-.827-.422-.968-.328-.328-.813-.422-1.328-.531-.438-.094-.719-.047-.719-.594 0-.344.094-.938 1.14-.938.298 0 .704-.046.829.282-.078.015-.531.406-.531.671 0 .172.312.485.578.485.265 0 .75-.344.75-.813zm0 0"/></svg><svg overflow="visible" x="39.266" y="9.745"><path d="M5.328-1.406c0-.078-.266-.297-.328-.297-.063 0-.234.062-.297.156C3.75-.359 2.593-.39 2.453-.39c-.937 0-.844-.875-.844-1.265 0-.14 0-.5.141-1.11h.484c.344 0 1.235-.015 1.829-.265.843-.36 1.093-1.203 1.093-1.375 0-.516-.656-1.14-1.468-1.14-1.329 0-3.344 1.296-3.344 3.39C.344-.937 1.25.125 2.422.125c1.719 0 2.906-1.39 2.906-1.531zm-.969-3c0 1.25-1.703 1.125-2.203 1.125h-.25c.422-1.688 1.469-1.735 1.782-1.735.562 0 .671.204.671.61zm0 0"/></svg><svg overflow="visible" x="44.837" y="9.745"><path d="M5.219-4.39c0-.532-.719-1.157-1.625-1.157-1.578 0-2.219 1.344-2.219 1.875 0 .938 1.094 1.25 1.438 1.313.624.125 1.03.125 1.03.78 0 .313-.062 1.188-1.5 1.188-.171 0-.89.125-1.093-.328.188.016.672-.469.672-.812 0-.282-.375-.547-.625-.547-.313 0-.875.375-.875.922 0 .672.875 1.281 1.906 1.281 1.938 0 2.594-1.578 2.594-2.11 0-.437-.281-.827-.422-.968-.328-.328-.813-.422-1.328-.531-.438-.094-.719-.047-.719-.594 0-.344.094-.938 1.14-.938.298 0 .704-.046.829.282-.078.015-.531.406-.531.671 0 .172.312.485.578.485.265 0 .75-.344.75-.813zm0 0"/></svg><svg overflow="visible" x="54.341" y="9.745"><path d="M5.266 2.719c0-.094-.25-.281-.329-.281-.89 0-1.359-.454-1.359-1.079v-2.984c0-.688-.765-1.375-1.562-1.625v.266c.796-.25 1.562-.938 1.562-1.625v-3c0-.61.469-1.063 1.36-1.063.078 0 .328-.203.328-.281 0-.078-.25-.281-.329-.281-1.25 0-2.546.765-2.546 1.625v3c0 .687-.454 1.218-1.344 1.218-.094 0-.36.188-.36.266 0 .094.266.281.36.281.89 0 1.344.531 1.344 1.219v2.984c0 .875 1.296 1.625 2.546 1.625.079 0 .329-.187.329-.265zm0 0"/></svg><svg overflow="visible" x="60.331" y="9.745"><path d="M6.047-3.5c0-1.125-.875-2.047-1.781-2.047-.594 0-1.313.469-1.438.625-.062-.234-.765-.625-1.203-.625-.547 0-.922.5-1.031.719-.219.406-.422 1.219-.422 1.25 0 .125.469.219.469.219l-.125.03c.125 0 .328-.14.39-.405.203-.844.25-1.282.688-1.282.203 0 .156-.046.156.407 0 .28-.031.406-.078.609L.328 1.328c-.094.406.094.36-.437.36-.141 0-.47.125-.47.359 0 .094.25.265.345.265.328 0 .671-.03 1.015-.03.39 0 .797.03 1.172.03.063 0 .406-.124.406-.359 0-.14-.296-.266-.468-.266-.594 0-.407.047-.407-.062 0-.14.5-2.094.579-2.39h-.391c.156.343.687.89 1.297.89 1.39 0 3.078-1.875 3.078-3.625zm-1.25-.531c0 .703-.39 2.078-.61 2.531-.406.844-.78 1.11-1.218 1.11-.797 0-.75-.86-.75-.938l-.063.094s.063-.141.094-.282l.578-2.343c.094-.329.344-.563.563-.75.421-.36.64-.407.843-.407.47 0 .563.282.563.985zm0 0"/></svg><svg overflow="visible" x="66.344" y="12.698"><path d="M4.172-.156v-.469H3.64c-.829 0-.625.063-.625-.219v-4.64c0-.235-.235-.391-.563-.391-.578.578-1.203.531-1.75.531v.625c.406 0 1.11-.047 1.219-.11v3.985c0 .281.203.219-.625.219H.766v.64L2.469-.03l1.703.047zm0 0"/></svg><svg overflow="visible" x="71.604" y="9.745"><path d="M2.625-.14c0-.797-.5-1.391-.969-1.391-.39 0-.828.437-.828.765 0 .329.438.766.828.766.157 0 .438-.078.563-.188l.047-.046s-.313-.078-.313.093c0 .875-.344 1.5-.75 1.891-.125.14-.187.266-.187.297 0 .078.265.265.328.265.125 0 1.281-1.062 1.281-2.453zm0 0"/></svg><svg overflow="visible" x="76.912" y="9.745"><path d="M6.047-3.5c0-1.125-.875-2.047-1.781-2.047-.594 0-1.313.469-1.438.625-.062-.234-.765-.625-1.203-.625-.547 0-.922.5-1.031.719-.219.406-.422 1.219-.422 1.25 0 .125.469.219.469.219l-.125.03c.125 0 .328-.14.39-.405.203-.844.25-1.282.688-1.282.203 0 .156-.046.156.407 0 .28-.031.406-.078.609L.328 1.328c-.094.406.094.36-.437.36-.141 0-.47.125-.47.359 0 .094.25.265.345.265.328 0 .671-.03 1.015-.03.39 0 .797.03 1.172.03.063 0 .406-.124.406-.359 0-.14-.296-.266-.468-.266-.594 0-.407.047-.407-.062 0-.14.5-2.094.579-2.39h-.391c.156.343.687.89 1.297.89 1.39 0 3.078-1.875 3.078-3.625zm-1.25-.531c0 .703-.39 2.078-.61 2.531-.406.844-.78 1.11-1.218 1.11-.797 0-.75-.86-.75-.938l-.063.094s.063-.141.094-.282l.578-2.343c.094-.329.344-.563.563-.75.421-.36.64-.407.843-.407.47 0 .563.282.563.985zm0 0"/></svg><svg overflow="visible" x="82.934" y="12.698"><path d="M4.234-1.844H3.75c-.047.344-.063.735-.172.813-.062.047-.562 0-.687 0H1.812c.563-.5.86-.735 1.36-1.125.625-.5 1.265-1.14 1.265-1.938 0-1-1.093-1.781-2.171-1.781-1.032 0-1.954.89-1.954 1.656 0 .422.579.625.657.625.203 0 .656-.297.656-.61 0-.14-.266-.593-.422-.593.188-.437.547-.469.938-.469.843 0 1.062.5 1.062 1.172 0 .735-.453 1.203-.719 1.5l-2.03 2C.374-.516.311-.39.311 0h3.844l.313-1.844zm0 0"/></svg><svg overflow="visible" x="88.193" y="9.745"><path d="M2.625-.14c0-.797-.5-1.391-.969-1.391-.39 0-.828.437-.828.765 0 .329.438.766.828.766.157 0 .438-.078.563-.188l.047-.046s-.313-.078-.313.093c0 .875-.344 1.5-.75 1.891-.125.14-.187.266-.187.297 0 .078.265.265.328.265.125 0 1.281-1.062 1.281-2.453zm0 0"/></svg><svg overflow="visible" x="93.501" y="9.745"><path d="M6.047-3.5c0-1.125-.875-2.047-1.781-2.047-.594 0-1.313.469-1.438.625-.062-.234-.765-.625-1.203-.625-.547 0-.922.5-1.031.719-.219.406-.422 1.219-.422 1.25 0 .125.469.219.469.219l-.125.03c.125 0 .328-.14.39-.405.203-.844.25-1.282.688-1.282.203 0 .156-.046.156.407 0 .28-.031.406-.078.609L.328 1.328c-.094.406.094.36-.437.36-.141 0-.47.125-.47.359 0 .094.25.265.345.265.328 0 .671-.03 1.015-.03.39 0 .797.03 1.172.03.063 0 .406-.124.406-.359 0-.14-.296-.266-.468-.266-.594 0-.407.047-.407-.062 0-.14.5-2.094.579-2.39h-.391c.156.343.687.89 1.297.89 1.39 0 3.078-1.875 3.078-3.625zm-1.25-.531c0 .703-.39 2.078-.61 2.531-.406.844-.78 1.11-1.218 1.11-.797 0-.75-.86-.75-.938l-.063.094s.063-.141.094-.282l.578-2.343c.094-.329.344-.563.563-.75.421-.36.64-.407.843-.407.47 0 .563.282.563.985zm0 0"/></svg><svg overflow="visible" x="99.523" y="12.698"><path d="M4.516-1.61c0-.656-.75-1.468-1.672-1.656v.313c.89-.313 1.406-1.094 1.406-1.61 0-.656-.969-1.312-1.89-1.312-.938 0-1.86.61-1.86 1.281 0 .282.39.594.64.594.266 0 .641-.344.641-.578 0-.25-.375-.578-.297-.578.094-.11.532-.157.844-.157.375 0 .688.016.688.75 0 .344-.047.625-.266.891-.281.313-.36.281-.781.313-.203.015-.235.015-.266.015l.14.281s-.437-.109-.437-.015c0 .125.282.281.422.281h.453c.656 0 .922.297.922 1.188 0 1.046-.39 1.187-.89 1.187-.329 0-.922-.031-1.094-.266.078-.015.375-.453.375-.625 0-.265-.407-.625-.672-.625-.235 0-.672.297-.672.641C.25-.5 1.328.172 2.344.172 3.5.172 4.516-.766 4.516-1.61zm0 0"/></svg><svg overflow="visible" x="104.783" y="9.745"><path d="M2.625-.14c0-.797-.5-1.391-.969-1.391-.39 0-.828.437-.828.765 0 .329.438.766.828.766.157 0 .438-.078.563-.188l.047-.046s-.313-.078-.313.093c0 .875-.344 1.5-.75 1.891-.125.14-.187.266-.187.297 0 .078.265.265.328.265.125 0 1.281-1.062 1.281-2.453zm0 0"/></svg><svg overflow="visible" x="110.091" y="9.745"><path d="M6.047-3.5c0-1.125-.875-2.047-1.781-2.047-.594 0-1.313.469-1.438.625-.062-.234-.765-.625-1.203-.625-.547 0-.922.5-1.031.719-.219.406-.422 1.219-.422 1.25 0 .125.469.219.469.219l-.125.03c.125 0 .328-.14.39-.405.203-.844.25-1.282.688-1.282.203 0 .156-.046.156.407 0 .28-.031.406-.078.609L.328 1.328c-.094.406.094.36-.437.36-.141 0-.47.125-.47.359 0 .094.25.265.345.265.328 0 .671-.03 1.015-.03.39 0 .797.03 1.172.03.063 0 .406-.124.406-.359 0-.14-.296-.266-.468-.266-.594 0-.407.047-.407-.062 0-.14.5-2.094.579-2.39h-.391c.156.343.687.89 1.297.89 1.39 0 3.078-1.875 3.078-3.625zm-1.25-.531c0 .703-.39 2.078-.61 2.531-.406.844-.78 1.11-1.218 1.11-.797 0-.75-.86-.75-.938l-.063.094s.063-.141.094-.282l.578-2.343c.094-.329.344-.563.563-.75.421-.36.64-.407.843-.407.47 0 .563.282.563.985zm0 0"/></svg><svg overflow="visible" x="116.113" y="12.698"><path d="M4.64-1.531V-2h-.937v-3.563c0-.187-.203-.406-.39-.406-.094 0-.282.063-.36.172L.125-1.844v.469h2.453v.531c0 .281.203.219-.469.219h-.437v.64L3.14-.03l1.468.047v-.641h-.437c-.672 0-.469.063-.469-.219v-.531h.938zM2.845-2H.969l2.015-2.781-.343-.125V-2zm0 0"/></svg><svg overflow="visible" x="121.373" y="9.745"><path d="M5.266-3.125c0-.078-.25-.266-.329-.266-.89 0-1.359-.53-1.359-1.218v-3c0-.86-1.281-1.625-2.531-1.625-.094 0-.36.203-.36.28 0 .079.266.282.36.282.89 0 1.344.453 1.344 1.063v3c0 .687.78 1.375 1.578 1.625v-.266C3.172-3 2.39-2.312 2.39-1.625v2.984c0 .625-.454 1.079-1.344 1.079-.094 0-.36.187-.36.28 0 .079.266.266.36.266 1.25 0 2.531-.75 2.531-1.625v-2.984c0-.688.469-1.219 1.36-1.219.078 0 .328-.187.328-.281zm0 0"/></svg><svg overflow="visible" x="-.055" y="24.19"><path d="M9.234-6.64c0-.891-.984-1.782-2.421-1.782H2.796c-.235 0-.547.125-.547.36 0 .14.313.265.531.265l.14-.031s.11.031.313.062c.22.016.125-.093.125.063 0 .047-.015.078-.046.219l-1.61 6.421c-.11.47.063.422-.875.422-.203 0-.531.141-.531.375 0 .141.312.266.531.266h4.266c1.89 0 3.484-1.547 3.484-2.719 0-.86-.875-1.687-2.047-1.812v.265c1.25-.234 2.703-1.25 2.703-2.375zM7.75-6.689c0 1.047-.828 2.047-2.281 2.047H3.937l.72-2.828c.093-.422-.063-.328.452-.328h1.532c1.062 0 1.109.578 1.109 1.11zm-.672 3.844c0 1.188-.86 2.203-2.266 2.203h-1.89c-.125-.015.031.11.031 0 0-.03 0-.046.063-.265l.78-3.203h2.11c1.14 0 1.172.75 1.172 1.265zm0 0"/></svg><svg overflow="visible" x="9.318" y="19.85"><path d="M3.063-4.313c0-.25-.422-.609-.672-.609-.172 0-.563.281-.61.406l-1.5 3.72H1L2.922-3.97c.047-.062.14-.265.14-.344zm0 0"/></svg><svg overflow="visible" x="13.222" y="24.19"><path d="M4.156 2.719c0-.047-.078-.172-.11-.203-1.234-.922-2-3.22-2-5.141v-1c0-1.906.767-4.203 2-5.14a.457.457 0 00.11-.188c0-.063-.25-.25-.312-.25a1.01 1.01 0 00-.203.062C2.312-8.156 1-5.67 1-3.625v1C1-.578 2.313 1.906 3.64 2.906c.016.016.188.063.204.063.062 0 .312-.203.312-.25zm0 0"/></svg><svg overflow="visible" x="17.873" y="24.19"><path d="M4.14-5.156c0-.125-.312-.266-.53-.266H2.78c.39-1.562.453-1.797.453-1.875 0-.203-.328-.453-.53-.453-.032 0-.579.14-.688.563l-.422 1.765H.64c-.25 0-.563.14-.563.36 0 .156.297.28.531.28h.813C.594-1.515.547-1.311.547-1.093c0 .64.656 1.219 1.312 1.219 1.22 0 2.079-1.875 2.079-1.969 0-.11-.282-.25-.329-.25-.109 0-.328.172-.375.297C2.72-.547 2.281-.39 1.875-.39c-.25 0-.172-.03-.172-.421 0-.282.016-.375.063-.579l.859-3.39h.953c.25 0 .563-.125.563-.375zm0 0"/></svg><svg overflow="visible" x="22.188" y="24.19"><path d="M3.64-2.625v-1c0-2.047-1.328-4.531-2.64-5.516a.774.774 0 00-.203-.062c-.063 0-.313.187-.313.25 0 .031.079.172.094.187 1.25.938 2.016 3.235 2.016 5.141v1c0 1.922-.766 4.219-2.016 5.14-.015.032-.094.157-.094.204 0 .047.25.25.313.25A.774.774 0 001 2.906c1.313-1 2.64-3.484 2.64-5.531zm0 0"/></svg><svg overflow="visible" x="30.724" y="24.19"><path d="M6.688-1.844c0-.11-.297-.25-.344-.25-.11 0-.328.188-.375.344-.157.672-.188 1.36-.688 1.36-.25 0-.172-.032-.172-.422 0-.266.141-.829.235-1.25l.328-1.282c.047-.187.156-.64.203-.812.063-.282.188-.735.188-.797 0-.219-.36-.469-.547-.469-.047 0-.563.156-.657.563l-.906 3.593c-.015.047-.281.875-1.156.875-.625 0-.547-.406-.547-.859 0-.656.328-1.61.64-2.438.141-.359.204-.515.204-.75 0-.53-.578-1.109-1.172-1.109C.782-5.547.14-3.687.14-3.578c0 .125.484.219.484.219l-.14.03c.124 0 .328-.155.39-.343.297-1.031.563-1.344 1.016-1.344.109 0 .093-.125.093.266 0 .281-.125.625-.203.813-.437 1.171-.687 1.921-.687 2.5 0 1.14 1.015 1.562 1.672 1.562.78 0 1.343-.563 1.328-.531.015.094.64.531 1.156.531.422 0 .828-.297 1.016-.688l.062-.093c.203-.438.297-1.094.297-1.094zm0 0"/></svg><svg overflow="visible" x="37.563" y="24.19"><path d="M5.219-4.39c0-.532-.719-1.157-1.625-1.157-1.578 0-2.219 1.344-2.219 1.875 0 .938 1.094 1.25 1.438 1.313.624.125 1.03.125 1.03.78 0 .313-.062 1.188-1.5 1.188-.171 0-.89.125-1.093-.328.188.016.672-.469.672-.812 0-.282-.375-.547-.625-.547-.313 0-.875.375-.875.922 0 .672.875 1.281 1.906 1.281 1.938 0 2.594-1.578 2.594-2.11 0-.437-.281-.827-.422-.968-.328-.328-.813-.422-1.328-.531-.438-.094-.719-.047-.719-.594 0-.344.094-.938 1.14-.938.298 0 .704-.046.829.282-.078.015-.531.406-.531.671 0 .172.312.485.578.485.265 0 .75-.344.75-.813zm0 0"/></svg><svg overflow="visible" x="43.17" y="24.19"><path d="M5.328-1.406c0-.078-.266-.297-.328-.297-.063 0-.234.062-.297.156C3.75-.359 2.593-.39 2.453-.39c-.937 0-.844-.875-.844-1.265 0-.14 0-.5.141-1.11h.484c.344 0 1.235-.015 1.829-.265.843-.36 1.093-1.203 1.093-1.375 0-.516-.656-1.14-1.468-1.14-1.329 0-3.344 1.296-3.344 3.39C.344-.937 1.25.125 2.422.125c1.719 0 2.906-1.39 2.906-1.531zm-.969-3c0 1.25-1.703 1.125-2.203 1.125h-.25c.422-1.688 1.469-1.735 1.782-1.735.562 0 .671.204.671.61zm0 0"/></svg><svg overflow="visible" x="48.741" y="24.19"><path d="M5.219-4.39c0-.532-.719-1.157-1.625-1.157-1.578 0-2.219 1.344-2.219 1.875 0 .938 1.094 1.25 1.438 1.313.624.125 1.03.125 1.03.78 0 .313-.062 1.188-1.5 1.188-.171 0-.89.125-1.093-.328.188.016.672-.469.672-.812 0-.282-.375-.547-.625-.547-.313 0-.875.375-.875.922 0 .672.875 1.281 1.906 1.281 1.938 0 2.594-1.578 2.594-2.11 0-.437-.281-.827-.422-.968-.328-.328-.813-.422-1.328-.531-.438-.094-.719-.047-.719-.594 0-.344.094-.938 1.14-.938.298 0 .704-.046.829.282-.078.015-.531.406-.531.671 0 .172.312.485.578.485.265 0 .75-.344.75-.813zm0 0"/></svg><svg overflow="visible" x="58.257" y="24.19"><path d="M5.266 2.719c0-.094-.25-.281-.329-.281-.89 0-1.359-.454-1.359-1.079v-2.984c0-.688-.765-1.375-1.562-1.625v.266c.796-.25 1.562-.938 1.562-1.625v-3c0-.61.469-1.063 1.36-1.063.078 0 .328-.203.328-.281 0-.078-.25-.281-.329-.281-1.25 0-2.546.765-2.546 1.625v3c0 .687-.454 1.218-1.344 1.218-.094 0-.36.188-.36.266 0 .094.266.281.36.281.89 0 1.344.531 1.344 1.219v2.984c0 .875 1.296 1.625 2.546 1.625.079 0 .329-.187.329-.265zm0 0"/></svg><svg overflow="visible" x="64.235" y="24.19"><path d="M5.781-4.578c0-.64-.5-.969-.718-.969-.297 0-.782.438-.782.703 0 .157.125.328.25.453.25.25.344.454.344.891 0 .5-.531 3.11-1.922 3.11-.61 0-.687-.297-.687-.907 0-.672.312-1.547.687-2.547.078-.203.14-.36.14-.594 0-.53-.577-1.109-1.171-1.109C.797-5.547.14-3.687.14-3.578c0 .125.484.219.484.219l-.14.03c.124 0 .328-.155.39-.343.344-1.203.672-1.344 1.016-1.344.093 0 .093-.14.093.25 0 .297-.125.625-.203.829C1.25-2.548 1.094-2 1.094-1.485 1.094-.188 2.359.125 2.906.125c2 0 2.875-4.078 2.875-4.703zm0 0"/></svg><svg overflow="visible" x="70.033" y="27.144"><path d="M4.172-.156v-.469H3.64c-.829 0-.625.063-.625-.219v-4.64c0-.235-.235-.391-.563-.391-.578.578-1.203.531-1.75.531v.625c.406 0 1.11-.047 1.219-.11v3.985c0 .281.203.219-.625.219H.766v.64L2.469-.03l1.703.047zm0 0"/></svg><svg overflow="visible" x="75.293" y="24.19"><path d="M2.625-.14c0-.797-.5-1.391-.969-1.391-.39 0-.828.437-.828.765 0 .329.438.766.828.766.157 0 .438-.078.563-.188l.047-.046s-.313-.078-.313.093c0 .875-.344 1.5-.75 1.891-.125.14-.187.266-.187.297 0 .078.265.265.328.265.125 0 1.281-1.062 1.281-2.453zm0 0"/></svg><svg overflow="visible" x="80.601" y="24.19"><path d="M5.781-4.578c0-.64-.5-.969-.718-.969-.297 0-.782.438-.782.703 0 .157.125.328.25.453.25.25.344.454.344.891 0 .5-.531 3.11-1.922 3.11-.61 0-.687-.297-.687-.907 0-.672.312-1.547.687-2.547.078-.203.14-.36.14-.594 0-.53-.577-1.109-1.171-1.109C.797-5.547.14-3.687.14-3.578c0 .125.484.219.484.219l-.14.03c.124 0 .328-.155.39-.343.344-1.203.672-1.344 1.016-1.344.093 0 .093-.14.093.25 0 .297-.125.625-.203.829C1.25-2.548 1.094-2 1.094-1.485 1.094-.188 2.359.125 2.906.125c2 0 2.875-4.078 2.875-4.703zm0 0"/></svg><svg overflow="visible" x="86.407" y="27.144"><path d="M4.234-1.844H3.75c-.047.344-.063.735-.172.813-.062.047-.562 0-.687 0H1.812c.563-.5.86-.735 1.36-1.125.625-.5 1.265-1.14 1.265-1.938 0-1-1.093-1.781-2.171-1.781-1.032 0-1.954.89-1.954 1.656 0 .422.579.625.657.625.203 0 .656-.297.656-.61 0-.14-.266-.593-.422-.593.188-.437.547-.469.938-.469.843 0 1.062.5 1.062 1.172 0 .735-.453 1.203-.719 1.5l-2.03 2C.374-.516.311-.39.311 0h3.844l.313-1.844zm0 0"/></svg><svg overflow="visible" x="91.667" y="24.19"><path d="M2.625-.14c0-.797-.5-1.391-.969-1.391-.39 0-.828.437-.828.765 0 .329.438.766.828.766.157 0 .438-.078.563-.188l.047-.046s-.313-.078-.313.093c0 .875-.344 1.5-.75 1.891-.125.14-.187.266-.187.297 0 .078.265.265.328.265.125 0 1.281-1.062 1.281-2.453zm0 0"/></svg><svg overflow="visible" x="96.975" y="24.19"><path d="M5.781-4.578c0-.64-.5-.969-.718-.969-.297 0-.782.438-.782.703 0 .157.125.328.25.453.25.25.344.454.344.891 0 .5-.531 3.11-1.922 3.11-.61 0-.687-.297-.687-.907 0-.672.312-1.547.687-2.547.078-.203.14-.36.14-.594 0-.53-.577-1.109-1.171-1.109C.797-5.547.14-3.687.14-3.578c0 .125.484.219.484.219l-.14.03c.124 0 .328-.155.39-.343.344-1.203.672-1.344 1.016-1.344.093 0 .093-.14.093.25 0 .297-.125.625-.203.829C1.25-2.548 1.094-2 1.094-1.485 1.094-.188 2.359.125 2.906.125c2 0 2.875-4.078 2.875-4.703zm0 0"/></svg><svg overflow="visible" x="102.782" y="27.144"><path d="M4.516-1.61c0-.656-.75-1.468-1.672-1.656v.313c.89-.313 1.406-1.094 1.406-1.61 0-.656-.969-1.312-1.89-1.312-.938 0-1.86.61-1.86 1.281 0 .282.39.594.64.594.266 0 .641-.344.641-.578 0-.25-.375-.578-.297-.578.094-.11.532-.157.844-.157.375 0 .688.016.688.75 0 .344-.047.625-.266.891-.281.313-.36.281-.781.313-.203.015-.235.015-.266.015l.14.281s-.437-.109-.437-.015c0 .125.282.281.422.281h.453c.656 0 .922.297.922 1.188 0 1.046-.39 1.187-.89 1.187-.329 0-.922-.031-1.094-.266.078-.015.375-.453.375-.625 0-.265-.407-.625-.672-.625-.235 0-.672.297-.672.641C.25-.5 1.328.172 2.344.172 3.5.172 4.516-.766 4.516-1.61zm0 0"/></svg><svg overflow="visible" x="108.042" y="24.19"><path d="M5.266-3.125c0-.078-.25-.266-.329-.266-.89 0-1.359-.53-1.359-1.218v-3c0-.86-1.281-1.625-2.531-1.625-.094 0-.36.203-.36.28 0 .079.266.282.36.282.89 0 1.344.453 1.344 1.063v3c0 .687.78 1.375 1.578 1.625v-.266C3.172-3 2.39-2.312 2.39-1.625v2.984c0 .625-.454 1.079-1.344 1.079-.094 0-.36.187-.36.28 0 .079.266.266.36.266 1.25 0 2.531-.75 2.531-1.625v-2.984c0-.688.469-1.219 1.36-1.219.078 0 .328-.187.328-.281zm0 0"/></svg><svg overflow="visible" x="114.02" y="24.19"><path d="M2.625-.14c0-.797-.5-1.391-.969-1.391-.39 0-.828.437-.828.765 0 .329.438.766.828.766.157 0 .438-.078.563-.188l.047-.046s-.313-.078-.313.093c0 .875-.344 1.5-.75 1.891-.125.14-.187.266-.187.297 0 .078.265.265.328.265.125 0 1.281-1.062 1.281-2.453zm0 0"/></svg><svg overflow="visible" x="123.225" y="24.19"><path d="M8.453-4.578c0-.656-.515-.969-.719-.969-.296 0-.796.438-.796.703 0 .157.125.328.234.422.125.125.375.344.375.922 0 .406-.297 1.484-.61 2.094l-.046.093c-.313.625-.532.922-1.125.922-.547 0-.688-.234-.688-.906 0-.344.078-.719.14-.875l.5-2.015c.048-.266.173-.704.173-.766 0-.219-.36-.469-.532-.469-.14 0-.562.234-.656.469-.031.094-.594 2.375-.672 2.687-.093.36-.11.563-.11.782 0 .14 0 .156.017.218-.282.625-.438.875-.907.875-.953 0-.765-.75-.765-.953 0-.39.062-.86.625-2.328.14-.36.203-.531.203-.765 0-.532-.578-1.11-1.172-1.11C.782-5.547.14-3.687.14-3.578c0 .125.484.219.484.219l-.14.03c.124 0 .328-.155.39-.343.313-1.11.594-1.344 1.016-1.344.109 0 .093-.125.093.266 0 .297-.125.625-.218.828-.516 1.406-.672 1.969-.672 2.422C1.094-.422 2.109.125 3 .125c.203 0 .89-.031 1.203-.563.14.36 1.172.563 1.531.563.907 0 1.61-.875 1.922-1.594.407-.937.797-2.531.797-3.11zm0 0"/></svg><svg overflow="visible" x="131.821" y="24.19"><path d="M6.719-1.844c0-.11-.297-.25-.328-.25-.125 0-.329.172-.391.344-.172.64-.36 1.36-1.016 1.36-.203 0-.093.015-.093-.266 0-.297.109-.594.218-.844.188-.516.72-1.938.72-2.64 0-.766-.673-1.407-1.563-1.407-.75 0-1.47.406-1.907.953l.329.094.937-3.797-.063.094s-.124-.36-.28-.36c-.282 0-1.157.094-1.47.126-.093.015-.421.156-.421.374 0 .141.312.266.484.266.578 0 .39-.047.39.078l-.03.235L.5-.594c-.047.156-.047.188-.047.266 0 .266.438.453.547.453.188 0 .578-.266.64-.438l.22-.906.265-1.078c.078-.265.14-.531.203-.797.031-.078.125-.469.14-.547.032-.093.345-.671.75-1 .266-.187.5-.375 1.016-.375s.438.266.438.704c0 .64-.453 1.953-.734 2.671-.094.282-.157.422-.157.657 0 .562.625 1.109 1.172 1.109C6.078.125 6.72-1.75 6.72-1.844zm0 0"/></svg><svg overflow="visible" x="138.707" y="24.19"><path d="M5.328-1.406c0-.078-.266-.297-.328-.297-.063 0-.234.062-.297.156C3.75-.359 2.593-.39 2.453-.39c-.937 0-.844-.875-.844-1.265 0-.14 0-.5.141-1.11h.484c.344 0 1.235-.015 1.829-.265.843-.36 1.093-1.203 1.093-1.375 0-.516-.656-1.14-1.468-1.14-1.329 0-3.344 1.296-3.344 3.39C.344-.937 1.25.125 2.422.125c1.719 0 2.906-1.39 2.906-1.531zm-.969-3c0 1.25-1.703 1.125-2.203 1.125h-.25c.422-1.688 1.469-1.735 1.782-1.735.562 0 .671.204.671.61zm0 0"/></svg><svg overflow="visible" x="144.278" y="24.19"><path d="M5.406-4.64c0-.423-.578-.907-1.187-.907-.782 0-1.453.625-1.672.953l.328.094c-.094-.531-.719-1.047-1.266-1.047-.562 0-.921.5-1.03.719C.358-4.422.14-3.61.14-3.578c0 .125.484.219.484.219l-.14.03c.124 0 .328-.14.406-.405.203-.844.25-1.282.671-1.282.204 0 .172-.046.172.407 0 .265-.03.39-.187 1.015L.844-.844c-.031.188-.11.469-.11.516 0 .219.375.453.563.453.14 0 .547-.219.656-.547-.062.14.406-1.594.453-1.797l.375-1.562c.047-.156.328-.625.61-.875.093-.094.312-.36.828-.36.312 0 .64.11.64.11l-.14-.235c-.36.063-.828.485-.828.797 0 .188.343.547.656.547.328 0 .86-.406.86-.844zm0 0"/></svg><svg overflow="visible" x="149.825" y="24.19"><path d="M5.328-1.406c0-.078-.266-.297-.328-.297-.063 0-.234.062-.297.156C3.75-.359 2.593-.39 2.453-.39c-.937 0-.844-.875-.844-1.265 0-.14 0-.5.141-1.11h.484c.344 0 1.235-.015 1.829-.265.843-.36 1.093-1.203 1.093-1.375 0-.516-.656-1.14-1.468-1.14-1.329 0-3.344 1.296-3.344 3.39C.344-.937 1.25.125 2.422.125c1.719 0 2.906-1.39 2.906-1.531zm-.969-3c0 1.25-1.703 1.125-2.203 1.125h-.25c.422-1.688 1.469-1.735 1.782-1.735.562 0 .671.204.671.61zm0 0"/></svg><svg overflow="visible" x="159.294" y="24.19"><path d="M5.781-4.578c0-.64-.5-.969-.718-.969-.297 0-.782.438-.782.703 0 .157.125.328.25.453.25.25.344.454.344.891 0 .5-.531 3.11-1.922 3.11-.61 0-.687-.297-.687-.907 0-.672.312-1.547.687-2.547.078-.203.14-.36.14-.594 0-.53-.577-1.109-1.171-1.109C.797-5.547.14-3.687.14-3.578c0 .125.484.219.484.219l-.14.03c.124 0 .328-.155.39-.343.344-1.203.672-1.344 1.016-1.344.093 0 .093-.14.093.25 0 .297-.125.625-.203.829C1.25-2.548 1.094-2 1.094-1.485 1.094-.188 2.359.125 2.906.125c2 0 2.875-4.078 2.875-4.703zm0 0"/></svg><svg overflow="visible" x="165.1" y="27.144"><path d="M4.172-.156v-.469H3.64c-.829 0-.625.063-.625-.219v-4.64c0-.235-.235-.391-.563-.391-.578.578-1.203.531-1.75.531v.625c.406 0 1.11-.047 1.219-.11v3.985c0 .281.203.219-.625.219H.766v.64L2.469-.03l1.703.047zm0 0"/></svg><svg overflow="visible" x="173.681" y="24.19"><path d="M8.828-4.281c0-.125-.312-.375-.437-.375H.906c-.125 0-.437.25-.437.375 0 .14.312.375.437.375h7.485c.125 0 .437-.235.437-.375zm0 2.328c0-.14-.312-.375-.437-.375H.906c-.125 0-.437.234-.437.375 0 .125.312.36.437.36h7.485c.125 0 .437-.235.437-.36zm0 0"/></svg><svg overflow="visible" x="186.294" y="24.19"><path d="M5.656-2.172c0-.984-.953-2.047-2.187-2.297v.266c.984-.328 1.86-1.297 1.86-2.234 0-.985-1.235-1.782-2.391-1.782-1.204 0-2.313.844-2.313 1.75 0 .39.469.75.813.75.375 0 .796-.39.796-.734 0-.594-.75-.734-.656-.734.234-.36.89-.47 1.313-.47.484 0 .953.126.953 1.204 0 .14.031.734-.281 1.266-.36.578-.626.578-.922.578a4.76 4.76 0 01-.47.046c-.093.016-.374.157-.374.266 0 .14.281.266.484.266h.531c.985 0 1.22.687 1.22 1.86 0 1.624-.626 1.843-1.157 1.843-.516 0-1.266-.172-1.531-.61.125.016.687-.375.687-.828 0-.437-.515-.796-.86-.796-.28 0-.874.296-.874.812C.297-.656 1.609.266 2.922.266c1.453 0 2.734-1.22 2.734-2.438zm0 0"/></svg><svg overflow="visible" x="192.271" y="24.19"><path d="M4.156 2.719c0-.047-.078-.172-.11-.203-1.234-.922-2-3.22-2-5.141v-1c0-1.906.767-4.203 2-5.14a.457.457 0 00.11-.188c0-.063-.25-.25-.312-.25a1.01 1.01 0 00-.203.062C2.312-8.156 1-5.67 1-3.625v1C1-.578 2.313 1.906 3.64 2.906c.016.016.188.063.204.063.062 0 .312-.203.312-.25zm0 0"/></svg><svg overflow="visible" x="196.922" y="24.19"><path d="M6.047-3.5c0-1.125-.875-2.047-1.781-2.047-.594 0-1.313.469-1.438.625-.062-.234-.765-.625-1.203-.625-.547 0-.922.5-1.031.719-.219.406-.422 1.219-.422 1.25 0 .125.469.219.469.219l-.125.03c.125 0 .328-.14.39-.405.203-.844.25-1.282.688-1.282.203 0 .156-.046.156.407 0 .28-.031.406-.078.609L.328 1.328c-.094.406.094.36-.437.36-.141 0-.47.125-.47.359 0 .094.25.265.345.265.328 0 .671-.03 1.015-.03.39 0 .797.03 1.172.03.063 0 .406-.124.406-.359 0-.14-.296-.266-.468-.266-.594 0-.407.047-.407-.062 0-.14.5-2.094.579-2.39h-.391c.156.343.687.89 1.297.89 1.39 0 3.078-1.875 3.078-3.625zm-1.25-.531c0 .703-.39 2.078-.61 2.531-.406.844-.78 1.11-1.218 1.11-.797 0-.75-.86-.75-.938l-.063.094s.063-.141.094-.282l.578-2.343c.094-.329.344-.563.563-.75.421-.36.64-.407.843-.407.47 0 .563.282.563.985zm0 0"/></svg><svg overflow="visible" x="202.945" y="27.144"><path d="M4.234-1.844H3.75c-.047.344-.063.735-.172.813-.062.047-.562 0-.687 0H1.812c.563-.5.86-.735 1.36-1.125.625-.5 1.265-1.14 1.265-1.938 0-1-1.093-1.781-2.171-1.781-1.032 0-1.954.89-1.954 1.656 0 .422.579.625.657.625.203 0 .656-.297.656-.61 0-.14-.266-.593-.422-.593.188-.437.547-.469.938-.469.843 0 1.062.5 1.062 1.172 0 .735-.453 1.203-.719 1.5l-2.03 2C.374-.516.311-.39.311 0h3.844l.313-1.844zm0 0"/></svg><svg overflow="visible" x="210.862" y="24.19"><path d="M8.828-3.125c0-.125-.312-.36-.437-.36H.906c-.125 0-.437.235-.437.36 0 .14.312.375.437.375h7.485c.125 0 .437-.234.437-.375zm0 0"/></svg><svg overflow="visible" x="222.817" y="24.19"><path d="M6.047-3.5c0-1.125-.875-2.047-1.781-2.047-.594 0-1.313.469-1.438.625-.062-.234-.765-.625-1.203-.625-.547 0-.922.5-1.031.719-.219.406-.422 1.219-.422 1.25 0 .125.469.219.469.219l-.125.03c.125 0 .328-.14.39-.405.203-.844.25-1.282.688-1.282.203 0 .156-.046.156.407 0 .28-.031.406-.078.609L.328 1.328c-.094.406.094.36-.437.36-.141 0-.47.125-.47.359 0 .094.25.265.345.265.328 0 .671-.03 1.015-.03.39 0 .797.03 1.172.03.063 0 .406-.124.406-.359 0-.14-.296-.266-.468-.266-.594 0-.407.047-.407-.062 0-.14.5-2.094.579-2.39h-.391c.156.343.687.89 1.297.89 1.39 0 3.078-1.875 3.078-3.625zm-1.25-.531c0 .703-.39 2.078-.61 2.531-.406.844-.78 1.11-1.218 1.11-.797 0-.75-.86-.75-.938l-.063.094s.063-.141.094-.282l.578-2.343c.094-.329.344-.563.563-.75.421-.36.64-.407.843-.407.47 0 .563.282.563.985zm0 0"/></svg><svg overflow="visible" x="228.833" y="27.144"><path d="M4.172-.156v-.469H3.64c-.829 0-.625.063-.625-.219v-4.64c0-.235-.235-.391-.563-.391-.578.578-1.203.531-1.75.531v.625c.406 0 1.11-.047 1.219-.11v3.985c0 .281.203.219-.625.219H.766v.64L2.469-.03l1.703.047zm0 0"/></svg><svg overflow="visible" x="234.093" y="24.19"><path d="M3.64-2.625v-1c0-2.047-1.328-4.531-2.64-5.516a.774.774 0 00-.203-.062c-.063 0-.313.187-.313.25 0 .031.079.172.094.187 1.25.938 2.016 3.235 2.016 5.141v1c0 1.922-.766 4.219-2.016 5.14-.015.032-.094.157-.094.204 0 .047.25.25.313.25A.774.774 0 001 2.906c1.313-1 2.64-3.484 2.64-5.531zm0 0"/></svg><svg overflow="visible" x="238.744" y="24.19"><path d="M2.625-.14c0-.797-.5-1.391-.969-1.391-.39 0-.828.437-.828.765 0 .329.438.766.828.766.157 0 .438-.078.563-.188l.047-.046s-.313-.078-.313.093c0 .875-.344 1.5-.75 1.891-.125.14-.187.266-.187.297 0 .078.265.265.328.265.125 0 1.281-1.062 1.281-2.453zm0 0"/></svg><svg overflow="visible" x="247.949" y="24.19"><path d="M5.781-4.578c0-.64-.5-.969-.718-.969-.297 0-.782.438-.782.703 0 .157.125.328.25.453.25.25.344.454.344.891 0 .5-.531 3.11-1.922 3.11-.61 0-.687-.297-.687-.907 0-.672.312-1.547.687-2.547.078-.203.14-.36.14-.594 0-.53-.577-1.109-1.171-1.109C.797-5.547.14-3.687.14-3.578c0 .125.484.219.484.219l-.14.03c.124 0 .328-.155.39-.343.344-1.203.672-1.344 1.016-1.344.093 0 .093-.14.093.25 0 .297-.125.625-.203.829C1.25-2.548 1.094-2 1.094-1.485 1.094-.188 2.359.125 2.906.125c2 0 2.875-4.078 2.875-4.703zm0 0"/></svg><g><svg overflow="visible" x="253.756" y="27.144"><path d="M4.234-1.844H3.75c-.047.344-.063.735-.172.813-.062.047-.562 0-.687 0H1.812c.563-.5.86-.735 1.36-1.125.625-.5 1.265-1.14 1.265-1.938 0-1-1.093-1.781-2.171-1.781-1.032 0-1.954.89-1.954 1.656 0 .422.579.625.657.625.203 0 .656-.297.656-.61 0-.14-.266-.593-.422-.593.188-.437.547-.469.938-.469.843 0 1.062.5 1.062 1.172 0 .735-.453 1.203-.719 1.5l-2.03 2C.374-.516.311-.39.311 0h3.844l.313-1.844zm0 0"/></svg></g><g><svg overflow="visible" x="262.337" y="24.19"><path d="M8.828-4.281c0-.125-.312-.375-.437-.375H.906c-.125 0-.437.25-.437.375 0 .14.312.375.437.375h7.485c.125 0 .437-.235.437-.375zm0 2.328c0-.14-.312-.375-.437-.375H.906c-.125 0-.437.234-.437.375 0 .125.312.36.437.36h7.485c.125 0 .437-.235.437-.36zm0 0"/></svg></g><g><svg overflow="visible" x="274.95" y="24.19"><path d="M5.656-2.172c0-.984-.953-2.047-2.187-2.297v.266c.984-.328 1.86-1.297 1.86-2.234 0-.985-1.235-1.782-2.391-1.782-1.204 0-2.313.844-2.313 1.75 0 .39.469.75.813.75.375 0 .796-.39.796-.734 0-.594-.75-.734-.656-.734.234-.36.89-.47 1.313-.47.484 0 .953.126.953 1.204 0 .14.031.734-.281 1.266-.36.578-.626.578-.922.578a4.76 4.76 0 01-.47.046c-.093.016-.374.157-.374.266 0 .14.281.266.484.266h.531c.985 0 1.22.687 1.22 1.86 0 1.624-.626 1.843-1.157 1.843-.516 0-1.266-.172-1.531-.61.125.016.687-.375.687-.828 0-.437-.515-.796-.86-.796-.28 0-.874.296-.874.812C.297-.656 1.609.266 2.922.266c1.453 0 2.734-1.22 2.734-2.438zm0 0"/></svg><svg overflow="visible" x="280.927" y="24.19"><path d="M4.156 2.719c0-.047-.078-.172-.11-.203-1.234-.922-2-3.22-2-5.141v-1c0-1.906.767-4.203 2-5.14a.457.457 0 00.11-.188c0-.063-.25-.25-.312-.25a1.01 1.01 0 00-.203.062C2.312-8.156 1-5.67 1-3.625v1C1-.578 2.313 1.906 3.64 2.906c.016.016.188.063.204.063.062 0 .312-.203.312-.25zm0 0"/></svg><svg overflow="visible" x="285.578" y="24.19"><path d="M6.047-3.5c0-1.125-.875-2.047-1.781-2.047-.594 0-1.313.469-1.438.625-.062-.234-.765-.625-1.203-.625-.547 0-.922.5-1.031.719-.219.406-.422 1.219-.422 1.25 0 .125.469.219.469.219l-.125.03c.125 0 .328-.14.39-.405.203-.844.25-1.282.688-1.282.203 0 .156-.046.156.407 0 .28-.031.406-.078.609L.328 1.328c-.094.406.094.36-.437.36-.141 0-.47.125-.47.359 0 .094.25.265.345.265.328 0 .671-.03 1.015-.03.39 0 .797.03 1.172.03.063 0 .406-.124.406-.359 0-.14-.296-.266-.468-.266-.594 0-.407.047-.407-.062 0-.14.5-2.094.579-2.39h-.391c.156.343.687.89 1.297.89 1.39 0 3.078-1.875 3.078-3.625zm-1.25-.531c0 .703-.39 2.078-.61 2.531-.406.844-.78 1.11-1.218 1.11-.797 0-.75-.86-.75-.938l-.063.094s.063-.141.094-.282l.578-2.343c.094-.329.344-.563.563-.75.421-.36.64-.407.843-.407.47 0 .563.282.563.985zm0 0"/></svg></g><g><svg overflow="visible" x="291.601" y="27.144"><path d="M4.516-1.61c0-.656-.75-1.468-1.672-1.656v.313c.89-.313 1.406-1.094 1.406-1.61 0-.656-.969-1.312-1.89-1.312-.938 0-1.86.61-1.86 1.281 0 .282.39.594.64.594.266 0 .641-.344.641-.578 0-.25-.375-.578-.297-.578.094-.11.532-.157.844-.157.375 0 .688.016.688.75 0 .344-.047.625-.266.891-.281.313-.36.281-.781.313-.203.015-.235.015-.266.015l.14.281s-.437-.109-.437-.015c0 .125.282.281.422.281h.453c.656 0 .922.297.922 1.188 0 1.046-.39 1.187-.89 1.187-.329 0-.922-.031-1.094-.266.078-.015.375-.453.375-.625 0-.265-.407-.625-.672-.625-.235 0-.672.297-.672.641C.25-.5 1.328.172 2.344.172 3.5.172 4.516-.766 4.516-1.61zm0 0"/></svg></g><g><svg overflow="visible" x="299.517" y="24.19"><path d="M8.828-3.125c0-.125-.312-.36-.437-.36H.906c-.125 0-.437.235-.437.36 0 .14.312.375.437.375h7.485c.125 0 .437-.234.437-.375zm0 0"/></svg></g><g><svg overflow="visible" x="311.472" y="24.19"><path d="M6.047-3.5c0-1.125-.875-2.047-1.781-2.047-.594 0-1.313.469-1.438.625-.062-.234-.765-.625-1.203-.625-.547 0-.922.5-1.031.719-.219.406-.422 1.219-.422 1.25 0 .125.469.219.469.219l-.125.03c.125 0 .328-.14.39-.405.203-.844.25-1.282.688-1.282.203 0 .156-.046.156.407 0 .28-.031.406-.078.609L.328 1.328c-.094.406.094.36-.437.36-.141 0-.47.125-.47.359 0 .094.25.265.345.265.328 0 .671-.03 1.015-.03.39 0 .797.03 1.172.03.063 0 .406-.124.406-.359 0-.14-.296-.266-.468-.266-.594 0-.407.047-.407-.062 0-.14.5-2.094.579-2.39h-.391c.156.343.687.89 1.297.89 1.39 0 3.078-1.875 3.078-3.625zm-1.25-.531c0 .703-.39 2.078-.61 2.531-.406.844-.78 1.11-1.218 1.11-.797 0-.75-.86-.75-.938l-.063.094s.063-.141.094-.282l.578-2.343c.094-.329.344-.563.563-.75.421-.36.64-.407.843-.407.47 0 .563.282.563.985zm0 0"/></svg></g><g><svg overflow="visible" x="317.489" y="27.144"><path d="M4.234-1.844H3.75c-.047.344-.063.735-.172.813-.062.047-.562 0-.687 0H1.812c.563-.5.86-.735 1.36-1.125.625-.5 1.265-1.14 1.265-1.938 0-1-1.093-1.781-2.171-1.781-1.032 0-1.954.89-1.954 1.656 0 .422.579.625.657.625.203 0 .656-.297.656-.61 0-.14-.266-.593-.422-.593.188-.437.547-.469.938-.469.843 0 1.062.5 1.062 1.172 0 .735-.453 1.203-.719 1.5l-2.03 2C.374-.516.311-.39.311 0h3.844l.313-1.844zm0 0"/></svg></g><g><svg overflow="visible" x="322.749" y="24.19"><path d="M3.64-2.625v-1c0-2.047-1.328-4.531-2.64-5.516a.774.774 0 00-.203-.062c-.063 0-.313.187-.313.25 0 .031.079.172.094.187 1.25.938 2.016 3.235 2.016 5.141v1c0 1.922-.766 4.219-2.016 5.14-.015.032-.094.157-.094.204 0 .047.25.25.313.25A.774.774 0 001 2.906c1.313-1 2.64-3.484 2.64-5.531zm0 0"/></svg><svg overflow="visible" x="327.4" y="24.19"><path d="M2.625-.14c0-.797-.5-1.391-.969-1.391-.39 0-.828.437-.828.765 0 .329.438.766.828.766.157 0 .438-.078.563-.188l.047-.046s-.313-.078-.313.093c0 .875-.344 1.5-.75 1.891-.125.14-.187.266-.187.297 0 .078.265.265.328.265.125 0 1.281-1.062 1.281-2.453zm0 0"/></svg></g><g><svg overflow="visible" x="336.605" y="24.19"><path d="M5.781-4.578c0-.64-.5-.969-.718-.969-.297 0-.782.438-.782.703 0 .157.125.328.25.453.25.25.344.454.344.891 0 .5-.531 3.11-1.922 3.11-.61 0-.687-.297-.687-.907 0-.672.312-1.547.687-2.547.078-.203.14-.36.14-.594 0-.53-.577-1.109-1.171-1.109C.797-5.547.14-3.687.14-3.578c0 .125.484.219.484.219l-.14.03c.124 0 .328-.155.39-.343.344-1.203.672-1.344 1.016-1.344.093 0 .093-.14.093.25 0 .297-.125.625-.203.829C1.25-2.548 1.094-2 1.094-1.485 1.094-.188 2.359.125 2.906.125c2 0 2.875-4.078 2.875-4.703zm0 0"/></svg></g><g><svg overflow="visible" x="342.411" y="27.144"><path d="M4.516-1.61c0-.656-.75-1.468-1.672-1.656v.313c.89-.313 1.406-1.094 1.406-1.61 0-.656-.969-1.312-1.89-1.312-.938 0-1.86.61-1.86 1.281 0 .282.39.594.64.594.266 0 .641-.344.641-.578 0-.25-.375-.578-.297-.578.094-.11.532-.157.844-.157.375 0 .688.016.688.75 0 .344-.047.625-.266.891-.281.313-.36.281-.781.313-.203.015-.235.015-.266.015l.14.281s-.437-.109-.437-.015c0 .125.282.281.422.281h.453c.656 0 .922.297.922 1.188 0 1.046-.39 1.187-.89 1.187-.329 0-.922-.031-1.094-.266.078-.015.375-.453.375-.625 0-.265-.407-.625-.672-.625-.235 0-.672.297-.672.641C.25-.5 1.328.172 2.344.172 3.5.172 4.516-.766 4.516-1.61zm0 0"/></svg></g><g><svg overflow="visible" x="350.992" y="24.19"><path d="M8.828-4.281c0-.125-.312-.375-.437-.375H.906c-.125 0-.437.25-.437.375 0 .14.312.375.437.375h7.485c.125 0 .437-.235.437-.375zm0 2.328c0-.14-.312-.375-.437-.375H.906c-.125 0-.437.234-.437.375 0 .125.312.36.437.36h7.485c.125 0 .437-.235.437-.36zm0 0"/></svg></g><g><svg overflow="visible" x="363.605" y="24.19"><path d="M5.656-2.172c0-.984-.953-2.047-2.187-2.297v.266c.984-.328 1.86-1.297 1.86-2.234 0-.985-1.235-1.782-2.391-1.782-1.204 0-2.313.844-2.313 1.75 0 .39.469.75.813.75.375 0 .796-.39.796-.734 0-.594-.75-.734-.656-.734.234-.36.89-.47 1.313-.47.484 0 .953.126.953 1.204 0 .14.031.734-.281 1.266-.36.578-.626.578-.922.578a4.76 4.76 0 01-.47.046c-.093.016-.374.157-.374.266 0 .14.281.266.484.266h.531c.985 0 1.22.687 1.22 1.86 0 1.624-.626 1.843-1.157 1.843-.516 0-1.266-.172-1.531-.61.125.016.687-.375.687-.828 0-.437-.515-.796-.86-.796-.28 0-.874.296-.874.812C.297-.656 1.609.266 2.922.266c1.453 0 2.734-1.22 2.734-2.438zm0 0"/></svg><svg overflow="visible" x="369.582" y="24.19"><path d="M4.156 2.719c0-.047-.078-.172-.11-.203-1.234-.922-2-3.22-2-5.141v-1c0-1.906.767-4.203 2-5.14a.457.457 0 00.11-.188c0-.063-.25-.25-.312-.25a1.01 1.01 0 00-.203.062C2.312-8.156 1-5.67 1-3.625v1C1-.578 2.313 1.906 3.64 2.906c.016.016.188.063.204.063.062 0 .312-.203.312-.25zm0 0"/></svg><svg overflow="visible" x="374.233" y="24.19"><path d="M6.047-3.5c0-1.125-.875-2.047-1.781-2.047-.594 0-1.313.469-1.438.625-.062-.234-.765-.625-1.203-.625-.547 0-.922.5-1.031.719-.219.406-.422 1.219-.422 1.25 0 .125.469.219.469.219l-.125.03c.125 0 .328-.14.39-.405.203-.844.25-1.282.688-1.282.203 0 .156-.046.156.407 0 .28-.031.406-.078.609L.328 1.328c-.094.406.094.36-.437.36-.141 0-.47.125-.47.359 0 .094.25.265.345.265.328 0 .671-.03 1.015-.03.39 0 .797.03 1.172.03.063 0 .406-.124.406-.359 0-.14-.296-.266-.468-.266-.594 0-.407.047-.407-.062 0-.14.5-2.094.579-2.39h-.391c.156.343.687.89 1.297.89 1.39 0 3.078-1.875 3.078-3.625zm-1.25-.531c0 .703-.39 2.078-.61 2.531-.406.844-.78 1.11-1.218 1.11-.797 0-.75-.86-.75-.938l-.063.094s.063-.141.094-.282l.578-2.343c.094-.329.344-.563.563-.75.421-.36.64-.407.843-.407.47 0 .563.282.563.985zm0 0"/></svg></g><g><svg overflow="visible" x="380.256" y="27.144"><path d="M4.64-1.531V-2h-.937v-3.563c0-.187-.203-.406-.39-.406-.094 0-.282.063-.36.172L.125-1.844v.469h2.453v.531c0 .281.203.219-.469.219h-.437v.64L3.14-.03l1.468.047v-.641h-.437c-.672 0-.469.063-.469-.219v-.531h.938zM2.845-2H.969l2.015-2.781-.343-.125V-2zm0 0"/></svg></g><g><svg overflow="visible" x="388.173" y="24.19"><path d="M8.828-3.125c0-.125-.312-.36-.437-.36H.906c-.125 0-.437.235-.437.36 0 .14.312.375.437.375h7.485c.125 0 .437-.234.437-.375zm0 0"/></svg></g><g><svg overflow="visible" x="400.128" y="24.19"><path d="M6.047-3.5c0-1.125-.875-2.047-1.781-2.047-.594 0-1.313.469-1.438.625-.062-.234-.765-.625-1.203-.625-.547 0-.922.5-1.031.719-.219.406-.422 1.219-.422 1.25 0 .125.469.219.469.219l-.125.03c.125 0 .328-.14.39-.405.203-.844.25-1.282.688-1.282.203 0 .156-.046.156.407 0 .28-.031.406-.078.609L.328 1.328c-.094.406.094.36-.437.36-.141 0-.47.125-.47.359 0 .094.25.265.345.265.328 0 .671-.03 1.015-.03.39 0 .797.03 1.172.03.063 0 .406-.124.406-.359 0-.14-.296-.266-.468-.266-.594 0-.407.047-.407-.062 0-.14.5-2.094.579-2.39h-.391c.156.343.687.89 1.297.89 1.39 0 3.078-1.875 3.078-3.625zm-1.25-.531c0 .703-.39 2.078-.61 2.531-.406.844-.78 1.11-1.218 1.11-.797 0-.75-.86-.75-.938l-.063.094s.063-.141.094-.282l.578-2.343c.094-.329.344-.563.563-.75.421-.36.64-.407.843-.407.47 0 .563.282.563.985zm0 0"/></svg></g><g><svg overflow="visible" x="406.145" y="27.144"><path d="M4.516-1.61c0-.656-.75-1.468-1.672-1.656v.313c.89-.313 1.406-1.094 1.406-1.61 0-.656-.969-1.312-1.89-1.312-.938 0-1.86.61-1.86 1.281 0 .282.39.594.64.594.266 0 .641-.344.641-.578 0-.25-.375-.578-.297-.578.094-.11.532-.157.844-.157.375 0 .688.016.688.75 0 .344-.047.625-.266.891-.281.313-.36.281-.781.313-.203.015-.235.015-.266.015l.14.281s-.437-.109-.437-.015c0 .125.282.281.422.281h.453c.656 0 .922.297.922 1.188 0 1.046-.39 1.187-.89 1.187-.329 0-.922-.031-1.094-.266.078-.015.375-.453.375-.625 0-.265-.407-.625-.672-.625-.235 0-.672.297-.672.641C.25-.5 1.328.172 2.344.172 3.5.172 4.516-.766 4.516-1.61zm0 0"/></svg></g><g><svg overflow="visible" x="411.405" y="24.19"><path d="M3.64-2.625v-1c0-2.047-1.328-4.531-2.64-5.516a.774.774 0 00-.203-.062c-.063 0-.313.187-.313.25 0 .031.079.172.094.187 1.25.938 2.016 3.235 2.016 5.141v1c0 1.922-.766 4.219-2.016 5.14-.015.032-.094.157-.094.204 0 .047.25.25.313.25A.774.774 0 001 2.906c1.313-1 2.64-3.484 2.64-5.531zm0 0"/></svg></g></svg>