<svg xmlns="http://www.w3.org/2000/svg" xmlns:xlink="http://www.w3.org/1999/xlink" width="431px" height="77px" viewBox="0 0 323 58"><svg overflow="visible" x="-.104" y="32.518"><path d="M8.266-4.078a1.419 1.419 0 01-.047-.36c0-.109.015-.234.062-.484h-7.5c.063.25.063.375.063.484 0 .125 0 .235-.063.5h7.5zm0 2.625a1.332 1.332 0 01-.047-.36c0-.109.015-.234.062-.484h-7.5c.063.25.063.375.063.485 0 .125 0 .25-.063.5h7.5zm0 0"/></svg><svg overflow="visible" x="12.294" y="32.518"><path d="M4.406-9.766c-.015-.078-.031-.156-.031-.234 0-.094.016-.172.078-.375H1.375V4.141h3.078c-.062-.204-.078-.297-.078-.375 0-.079.016-.172.078-.375H2.437V-9.641h2.016zm0 0"/></svg><svg overflow="visible" x="17.6" y="32.526"><path d="M5.125-.094v-.484l-.75-.047c-.656-.031-.64-.031-.64-.656v-7.172l-.313-.125c-.875.469-1.61.781-2.86 1.219l.125.718h.235l1.547-.687.031-.016c.063 0-.047-.015-.047.266v5.797c0 .625.016.625-.64.656L1-.578v.625L3.125 0l2 .047zm0 0"/></svg><svg overflow="visible" x="33.536" y="32.526"><path d="M3.703-5.516c-.453.047-.86.063-1.156.063.172-.984.297-1.578.531-2.25l-.25-.328a7.16 7.16 0 01-1.094.531l-.296 2.031c-.391.203-.704.328-1.063.407l-.047.406h1l-.64 3.25C.625-1.11.53-.813.53-.5c0 .297.266.61.5.61.422 0 .922-.282 1.86-1.032.218-.172.14-.125.437-.36l-.25-.437-.672.469c-.36.25-.484.313-.625.313-.093 0-.031.046-.031-.11 0-.297.156-1.234.516-3l.14-.61h1.266l.203-.89zm0 0"/></svg><svg overflow="visible" x="47.536" y="32.526"><path d="M3.703-5.516c-.453.047-.86.063-1.156.063.172-.984.297-1.578.531-2.25l-.25-.328a7.16 7.16 0 01-1.094.531l-.296 2.031c-.391.203-.704.328-1.063.407l-.047.406h1l-.64 3.25C.625-1.11.53-.813.53-.5c0 .297.266.61.5.61.422 0 .922-.282 1.86-1.032.218-.172.14-.125.437-.36l-.25-.437-.672.469c-.36.25-.484.313-.625.313-.093 0-.031.046-.031-.11 0-.297.156-1.234.516-3l.14-.61h1.266l.203-.89zm0 0"/></svg><svg overflow="visible" x="51.584" y="28.294"><path d="M4.75-.11c-.016-.187-.016-.265-.016-.39s0-.203.032-.547l-3.141.094 1.5-1.469c.938-.906 1.266-1.5 1.266-2.156 0-1.016-.891-1.781-2.125-1.781-.688 0-1.282.218-1.782.687L.297-4.266h.547l.172-.546c.156-.516.359-.594 1-.594.828 0 1.203.343 1.203 1.093 0 .657-.36 1.22-1.453 2.282L.078-.391v.422L2.391 0l2.375.031zm0 0"/></svg><svg overflow="visible" x="67.044" y="32.526"><path d="M3.703-5.516c-.453.047-.86.063-1.156.063.172-.984.297-1.578.531-2.25l-.25-.328a7.16 7.16 0 01-1.094.531l-.296 2.031c-.391.203-.704.328-1.063.407l-.047.406h1l-.64 3.25C.625-1.11.53-.813.53-.5c0 .297.266.61.5.61.422 0 .922-.282 1.86-1.032.218-.172.14-.125.437-.36l-.25-.437-.672.469c-.36.25-.484.313-.625.313-.093 0-.031.046-.031-.11 0-.297.156-1.234.516-3l.14-.61h1.266l.203-.89zm0 0"/></svg><svg overflow="visible" x="71.084" y="28.294"><path d="M4.703-2.11c0-.421-.25-.89-.594-1.124a2.225 2.225 0 00-.703-.282c.531-.375.86-.875.86-1.406 0-.781-.86-1.437-1.938-1.437-.64 0-1.203.203-1.687.656L.312-4.406h.594l.219-.625c.11-.297.563-.469 1.063-.469.624 0 .984.328.984.89 0 .673-.406 1.094-1.094 1.094-.078 0-.36.204-.36.204l-.265-.094-.125.515.203.157c.407-.172.594-.22.844-.22.813 0 1.11.329 1.11 1.142 0 .906-.422 1.359-1.329 1.359-.437 0-.719-.094-1.015-.344C.906-.984.828-1.094.578-1.75l-.531.188c.234.609.312.937.375 1.468C1.078.11 1.5.172 1.859.172c.782 0 1.766-.422 2.297-1.016.328-.375.547-.86.547-1.265zm0 0"/></svg><svg overflow="visible" x="76.581" y="32.518"><path d="M3.906 4v-14.375H.828c.063.203.078.281.078.375 0 .078-.015.156-.078.36h2.016V3.39H.828c.063.204.078.297.078.376 0 .078-.015.171-.078.375h3.078zm0 0"/></svg><svg overflow="visible" x="84.531" y="32.518"><path d="M2.516-3.125c0-.422-.407-.844-.844-.844-.422 0-.86.422-.86.844 0 .438.438.86.86.86.437 0 .844-.422.844-.86zm0 0"/></svg><svg overflow="visible" x="90.539" y="17.642"><path d="M5.078-14.781H1.562V0h1.235v-14.031h2.469c-.079-.203-.094-.281-.094-.375 0-.078.016-.172.094-.375zm0 0"/></svg><svg overflow="visible" x="90.539" y="26.343"><path d="M2.672-9.938h-1.11V0h1.235v-9.938zm0 0"/></svg><svg overflow="visible" x="90.539" y="34.371"><path d="M2.672-9.938h-1.11V0h1.235v-9.938zm0 0"/></svg><svg overflow="visible" x="90.539" y="42.399"><path d="M2.672-9.938h-1.11V0h1.235v-9.938zm0 0"/></svg><svg overflow="visible" x="90.539" y="55.93"><path d="M5.219-.125a.648.648 0 01-.047-.25c0-.078.016-.156.094-.36h-2.47V-14.78H1.564V0h3.703zm0 0"/></svg><svg overflow="visible" x="101.31" y="10.749"><path d="M5.125-.094v-.484l-.75-.047c-.656-.031-.64-.031-.64-.656v-7.172l-.313-.125c-.875.469-1.61.781-2.86 1.219l.125.718h.235l1.547-.687.031-.016c.063 0-.047-.015-.047.266v5.797c0 .625.016.625-.64.656L1-.578v.625L3.125 0l2 .047zm0 0"/></svg><svg overflow="visible" x="126.332" y="10.749"><path d="M5.688-4.5c0-2.625-.907-4-2.547-4C1.297-8.5.203-6.89.203-4c0 1.39.281 2.703.703 3.281.422.594 1.203.953 1.938.953 1.812 0 2.844-1.687 2.844-4.734zm-1.282.594C4.406-1.36 4.094-.437 3-.437c-1.156 0-1.516-1.079-1.516-4 0-2.516.313-3.375 1.438-3.375 1.172 0 1.484 1.03 1.484 3.906zm0 0"/></svg><svg overflow="visible" x="151.354" y="10.749"><path d="M5.688-4.5c0-2.625-.907-4-2.547-4C1.297-8.5.203-6.89.203-4c0 1.39.281 2.703.703 3.281.422.594 1.203.953 1.938.953 1.812 0 2.844-1.687 2.844-4.734zm-1.282.594C4.406-1.36 4.094-.437 3-.437c-1.156 0-1.516-1.079-1.516-4 0-2.516.313-3.375 1.438-3.375 1.172 0 1.484 1.03 1.484 3.906zm0 0"/></svg><svg overflow="visible" x="171.846" y="10.749"><path d="M5.688-4.5c0-2.625-.907-4-2.547-4C1.297-8.5.203-6.89.203-4c0 1.39.281 2.703.703 3.281.422.594 1.203.953 1.938.953 1.812 0 2.844-1.687 2.844-4.734zm-1.282.594C4.406-1.36 4.094-.437 3-.437c-1.156 0-1.516-1.079-1.516-4 0-2.516.313-3.375 1.438-3.375 1.172 0 1.484 1.03 1.484 3.906zm0 0"/></svg><svg overflow="visible" x="96.767" y="25.195"><path d="M8.266-2.766a1.332 1.332 0 01-.047-.359c0-.11.015-.234.062-.484h-7.5c.063.25.063.375.063.484 0 .125 0 .25-.063.5h7.5zm0 0"/></svg><svg overflow="visible" x="105.853" y="25.195"><path d="M5.656-2.813c0-.562-.281-1.171-.703-1.468-.297-.219-.672-.344-.953-.407.734-.562 1.125-1.203 1.125-1.906 0-1.062-1.016-1.906-2.344-1.906-.812 0-1.453.266-2.047.86L.328-5.954h.64l.266-.797c.125-.406.75-.688 1.375-.688.766 0 1.266.5 1.266 1.25 0 .907-.563 1.532-1.406 1.532-.11 0-.469.187-.469.187l-.25-.093-.14.671.202.188C2.297-3.938 2.516-4 2.845-4c1 0 1.422.516 1.422 1.594 0 1.219-.579 1.89-1.704 1.89-.546 0-.937-.14-1.296-.468C.984-1.25.859-1.438.578-2.25l-.562.219C.28-1.234.375-.797.469-.11c.765.25 1.281.343 1.734.343.953 0 2.14-.562 2.813-1.375.406-.484.64-1.109.64-1.671zm0 0"/></svg><svg overflow="visible" x="126.332" y="25.195"><path d="M5.656-2.813c0-.562-.281-1.171-.703-1.468-.297-.219-.672-.344-.953-.407.734-.562 1.125-1.203 1.125-1.906 0-1.062-1.016-1.906-2.344-1.906-.812 0-1.453.266-2.047.86L.328-5.954h.64l.266-.797c.125-.406.75-.688 1.375-.688.766 0 1.266.5 1.266 1.25 0 .907-.563 1.532-1.406 1.532-.11 0-.469.187-.469.187l-.25-.093-.14.671.202.188C2.297-3.938 2.516-4 2.845-4c1 0 1.422.516 1.422 1.594 0 1.219-.579 1.89-1.704 1.89-.546 0-.937-.14-1.296-.468C.984-1.25.859-1.438.578-2.25l-.562.219C.28-1.234.375-.797.469-.11c.765.25 1.281.343 1.734.343.953 0 2.14-.562 2.813-1.375.406-.484.64-1.109.64-1.671zm0 0"/></svg><svg overflow="visible" x="151.354" y="25.195"><path d="M5.688-4.5c0-2.625-.907-4-2.547-4C1.297-8.5.203-6.89.203-4c0 1.39.281 2.703.703 3.281.422.594 1.203.953 1.938.953 1.812 0 2.844-1.687 2.844-4.734zm-1.282.594C4.406-1.36 4.094-.437 3-.437c-1.156 0-1.516-1.079-1.516-4 0-2.516.313-3.375 1.438-3.375 1.172 0 1.484 1.03 1.484 3.906zm0 0"/></svg><svg overflow="visible" x="171.846" y="25.195"><path d="M5.688-4.5c0-2.625-.907-4-2.547-4C1.297-8.5.203-6.89.203-4c0 1.39.281 2.703.703 3.281.422.594 1.203.953 1.938.953 1.812 0 2.844-1.687 2.844-4.734zm-1.282.594C4.406-1.36 4.094-.437 3-.437c-1.156 0-1.516-1.079-1.516-4 0-2.516.313-3.375 1.438-3.375 1.172 0 1.484 1.03 1.484 3.906zm0 0"/></svg><svg overflow="visible" x="101.31" y="39.641"><path d="M5.656-2.813c0-.562-.281-1.171-.703-1.468-.297-.219-.672-.344-.953-.407.734-.562 1.125-1.203 1.125-1.906 0-1.062-1.016-1.906-2.344-1.906-.812 0-1.453.266-2.047.86L.328-5.954h.64l.266-.797c.125-.406.75-.688 1.375-.688.766 0 1.266.5 1.266 1.25 0 .907-.563 1.532-1.406 1.532-.11 0-.469.187-.469.187l-.25-.093-.14.671.202.188C2.297-3.938 2.516-4 2.845-4c1 0 1.422.516 1.422 1.594 0 1.219-.579 1.89-1.704 1.89-.546 0-.937-.14-1.296-.468C.984-1.25.859-1.438.578-2.25l-.562.219C.28-1.234.375-.797.469-.11c.765.25 1.281.343 1.734.343.953 0 2.14-.562 2.813-1.375.406-.484.64-1.109.64-1.671zm0 0"/></svg><svg overflow="visible" x="121.789" y="39.641"><path d="M8.266-2.766a1.332 1.332 0 01-.047-.359c0-.11.015-.234.062-.484h-7.5c.063.25.063.375.063.484 0 .125 0 .25-.063.5h7.5zm0 0"/></svg><svg overflow="visible" x="130.875" y="39.641"><path d="M5.719-2.75c0-1.375-.953-2.406-2.219-2.406-.703 0-1.25.328-1.766.75.22-1.844 1.094-2.89 3.375-3.563v-.265L4.531-8.5c-1.156.39-1.75.656-2.36 1.188C.939-6.282.235-4.72.235-3.079.234-1.11 1.344.234 2.875.234c1.563 0 2.844-1.359 2.844-2.984zm-1.297.422c0 1.234-.469 1.906-1.39 1.906-1.016 0-1.423-.734-1.423-2.344 0-.406 0-.546.141-.75.266-.406.719-.656 1.297-.656.906 0 1.375.656 1.375 1.844zm0 0"/></svg><svg overflow="visible" x="151.354" y="39.641"><path d="M5.656-2.813c0-.562-.281-1.171-.703-1.468-.297-.219-.672-.344-.953-.407.734-.562 1.125-1.203 1.125-1.906 0-1.062-1.016-1.906-2.344-1.906-.812 0-1.453.266-2.047.86L.328-5.954h.64l.266-.797c.125-.406.75-.688 1.375-.688.766 0 1.266.5 1.266 1.25 0 .907-.563 1.532-1.406 1.532-.11 0-.469.187-.469.187l-.25-.093-.14.671.202.188C2.297-3.938 2.516-4 2.845-4c1 0 1.422.516 1.422 1.594 0 1.219-.579 1.89-1.704 1.89-.546 0-.937-.14-1.296-.468C.984-1.25.859-1.438.578-2.25l-.562.219C.28-1.234.375-.797.469-.11c.765.25 1.281.343 1.734.343.953 0 2.14-.562 2.813-1.375.406-.484.64-1.109.64-1.671zm0 0"/></svg><svg overflow="visible" x="171.846" y="39.641"><path d="M5.688-4.5c0-2.625-.907-4-2.547-4C1.297-8.5.203-6.89.203-4c0 1.39.281 2.703.703 3.281.422.594 1.203.953 1.938.953 1.812 0 2.844-1.687 2.844-4.734zm-1.282.594C4.406-1.36 4.094-.437 3-.437c-1.156 0-1.516-1.079-1.516-4 0-2.516.313-3.375 1.438-3.375 1.172 0 1.484 1.03 1.484 3.906zm0 0"/></svg><svg overflow="visible" x="96.767" y="54.087"><path d="M8.266-2.766a1.332 1.332 0 01-.047-.359c0-.11.015-.234.062-.484h-7.5c.063.25.063.375.063.484 0 .125 0 .25-.063.5h7.5zm0 0"/></svg><svg overflow="visible" x="105.853" y="54.087"><path d="M5.125-.094v-.484l-.75-.047c-.656-.031-.64-.031-.64-.656v-7.172l-.313-.125c-.875.469-1.61.781-2.86 1.219l.125.718h.235l1.547-.687.031-.016c.063 0-.047-.015-.047.266v5.797c0 .625.016.625-.64.656L1-.578v.625L3.125 0l2 .047zm0 0"/></svg><svg overflow="visible" x="126.332" y="54.087"><path d="M5.656-2.813c0-.562-.281-1.171-.703-1.468-.297-.219-.672-.344-.953-.407.734-.562 1.125-1.203 1.125-1.906 0-1.062-1.016-1.906-2.344-1.906-.812 0-1.453.266-2.047.86L.328-5.954h.64l.266-.797c.125-.406.75-.688 1.375-.688.766 0 1.266.5 1.266 1.25 0 .907-.563 1.532-1.406 1.532-.11 0-.469.187-.469.187l-.25-.093-.14.671.202.188C2.297-3.938 2.516-4 2.845-4c1 0 1.422.516 1.422 1.594 0 1.219-.579 1.89-1.704 1.89-.546 0-.937-.14-1.296-.468C.984-1.25.859-1.438.578-2.25l-.562.219C.28-1.234.375-.797.469-.11c.765.25 1.281.343 1.734.343.953 0 2.14-.562 2.813-1.375.406-.484.64-1.109.64-1.671zm0 0"/></svg><svg overflow="visible" x="146.811" y="54.087"><path d="M8.266-2.766a1.332 1.332 0 01-.047-.359c0-.11.015-.234.062-.484h-7.5c.063.25.063.375.063.484 0 .125 0 .25-.063.5h7.5zm0 0"/></svg><svg overflow="visible" x="155.897" y="54.087"><path d="M5.656-2.813c0-.562-.281-1.171-.703-1.468-.297-.219-.672-.344-.953-.407.734-.562 1.125-1.203 1.125-1.906 0-1.062-1.016-1.906-2.344-1.906-.812 0-1.453.266-2.047.86L.328-5.954h.64l.266-.797c.125-.406.75-.688 1.375-.688.766 0 1.266.5 1.266 1.25 0 .907-.563 1.532-1.406 1.532-.11 0-.469.187-.469.187l-.25-.093-.14.671.202.188C2.297-3.938 2.516-4 2.845-4c1 0 1.422.516 1.422 1.594 0 1.219-.579 1.89-1.704 1.89-.546 0-.937-.14-1.296-.468C.984-1.25.859-1.438.578-2.25l-.562.219C.28-1.234.375-.797.469-.11c.765.25 1.281.343 1.734.343.953 0 2.14-.562 2.813-1.375.406-.484.64-1.109.64-1.671zm0 0"/></svg><svg overflow="visible" x="171.846" y="54.087"><path d="M5.125-.094v-.484l-.75-.047c-.656-.031-.64-.031-.64-.656v-7.172l-.313-.125c-.875.469-1.61.781-2.86 1.219l.125.718h.235l1.547-.687.031-.016c.063 0-.047-.015-.047.266v5.797c0 .625.016.625-.64.656L1-.578v.625L3.125 0l2 .047zm0 0"/></svg><svg overflow="visible" x="177.823" y="17.642"><path d="M4.656-.125v-14.656H.953c.078.203.094.297.094.375 0 .094-.016.172-.094.375h2.469V0h1.234zm0 0"/></svg><svg overflow="visible" x="177.823" y="26.343"><path d="M4.656-.125v-9.813H3.422V0h1.234zm0 0"/></svg><svg overflow="visible" x="177.823" y="34.371"><path d="M4.656-.125v-9.813H3.422V0h1.234zm0 0"/></svg><svg overflow="visible" x="177.823" y="42.399"><path d="M4.656-.125v-9.813H3.422V0h1.234zm0 0"/></svg><svg overflow="visible" x="177.823" y="55.93"><path d="M4.656-.125v-14.656H3.422V-.734H.953c.078.203.094.28.094.359 0 .094-.016.172-.094.375h3.703zm0 0"/></svg><svg overflow="visible" x="186.709" y="32.518"><path d="M2.516-3.125c0-.422-.407-.844-.844-.844-.422 0-.86.422-.86.844 0 .438.438.86.86.86.437 0 .844-.422.844-.86zm0 0"/></svg><svg overflow="visible" x="192.713" y="15.637"><path d="M5.078-14.781H1.562V0h1.235v-14.031h2.469c-.079-.203-.094-.281-.094-.375 0-.078.016-.172.094-.375zm0 0"/></svg><svg overflow="visible" x="192.713" y="23.851"><path d="M2.672-9.938h-1.11V0h1.235v-9.938zm0 0"/></svg><svg overflow="visible" x="192.713" y="30.864"><path d="M2.672-9.938h-1.11V0h1.235v-9.938zm0 0"/></svg><svg overflow="visible" x="192.713" y="37.878"><path d="M2.672-9.938h-1.11V0h1.235v-9.938zm0 0"/></svg><svg overflow="visible" x="192.713" y="44.891"><path d="M2.672-9.938h-1.11V0h1.235v-9.938zm0 0"/></svg><svg overflow="visible" x="192.713" y="57.935"><path d="M5.219-.125a.648.648 0 01-.047-.25c0-.078.016-.156.094-.36h-2.47V-14.78H1.564V0h3.703zm0 0"/></svg><svg overflow="visible" x="203.01" y="8.745"><path d="M5.688-4.5c0-2.625-.907-4-2.547-4C1.297-8.5.203-6.89.203-4c0 1.39.281 2.703.703 3.281.422.594 1.203.953 1.938.953 1.812 0 2.844-1.687 2.844-4.734zm-1.282.594C4.406-1.36 4.094-.437 3-.437c-1.156 0-1.516-1.079-1.516-4 0-2.516.313-3.375 1.438-3.375 1.172 0 1.484 1.03 1.484 3.906zm0 0"/></svg><svg overflow="visible" x="226.753" y="8.745"><path d="M5.125-.094v-.484l-.75-.047c-.656-.031-.64-.031-.64-.656v-7.172l-.313-.125c-.875.469-1.61.781-2.86 1.219l.125.718h.235l1.547-.687.031-.016c.063 0-.047-.015-.047.266v5.797c0 .625.016.625-.64.656L1-.578v.625L3.125 0l2 .047zm0 0"/></svg><svg overflow="visible" x="250.161" y="8.745"><path d="M5.688-4.5c0-2.625-.907-4-2.547-4C1.297-8.5.203-6.89.203-4c0 1.39.281 2.703.703 3.281.422.594 1.203.953 1.938.953 1.812 0 2.844-1.687 2.844-4.734zm-1.282.594C4.406-1.36 4.094-.437 3-.437c-1.156 0-1.516-1.079-1.516-4 0-2.516.313-3.375 1.438-3.375 1.172 0 1.484 1.03 1.484 3.906zm0 0"/></svg><svg overflow="visible" x="273.904" y="8.745"><path d="M5.688-4.5c0-2.625-.907-4-2.547-4C1.297-8.5.203-6.89.203-4c0 1.39.281 2.703.703 3.281.422.594 1.203.953 1.938.953 1.812 0 2.844-1.687 2.844-4.734zm-1.282.594C4.406-1.36 4.094-.437 3-.437c-1.156 0-1.516-1.079-1.516-4 0-2.516.313-3.375 1.438-3.375 1.172 0 1.484 1.03 1.484 3.906zm0 0"/></svg><svg overflow="visible" x="200.137" y="19.218"><path d="M6.156-2.078c-.015-.094-.015-.172-.015-.266 0-.094 0-.172.046-.39H.516c.046.218.062.296.062.39 0 .094-.015.172-.062.39h5.671zm0 0"/></svg><svg overflow="visible" x="206.861" y="19.218"><path d="M4.266-.11V-.5l-.657-.031c-.515-.031-.468.015-.468-.453v-5.329l-.282-.093c-.625.297-1.312.562-2.375.906l.11.594h.234l1.25-.516.031-.016c.047 0-.078-.046-.078.172v4.282c0 .468.047.421-.469.453L.86-.5v.531L2.594 0l1.672.031zm0 0"/></svg><path d="M200.137 21.836h11.722" fill="none" stroke-width=".717" stroke="#000" stroke-miterlimit="10"/><svg overflow="visible" x="200.469" y="29.352"><path d="M4.75-2.063c0-1.03-.813-1.812-1.844-1.812-.562 0-1.031.234-1.375.5.172-1.281.828-2.016 2.719-2.531v-.235l-.516-.218c-.921.28-1.421.5-1.921.89C.828-4.703.234-3.53.234-2.312.234-.86 1.172.171 2.422.171 3.656.172 4.75-.86 4.75-2.063zm-1.14.297c0 .922-.329 1.391-1.079 1.391-.812 0-1.11-.516-1.11-1.703 0-.313 0-.375.095-.531.218-.297.578-.485 1.03-.485.735 0 1.063.453 1.063 1.328zm0 0"/></svg><svg overflow="visible" x="205.467" y="29.352"><path d="M5.922-4.484l-.11-.172c-.328.11-.765.203-1.078.203-.125 0-.359.016-.609.016-.531 0-1.64-.079-2.063-.079-.734 0-1.156.422-1.5 1.25l.329.172.171-.14c.282-.61.516-.5 1.063-.5l.781.03c-.14.376-.797 2.048-.828 2.626-.047.922.469 1.172.766 1.172.5 0 .89-.14 1.578-.656L4.266-1l-.422.266.219.187s-.375-.031-.532-.031c-.469 0-.422-.125-.406-.672.016-.234.047-.469.11-.719l.484-1.703.515.016c.235 0 .47-.016.688-.047.172 0 .39-.078.64-.156.125-.204.157-.22.422-.516zm0 0"/></svg><svg overflow="visible" x="226.754" y="24.826"><path d="M5.125-.094v-.484l-.75-.047c-.656-.031-.64-.031-.64-.656v-7.172l-.313-.125c-.875.469-1.61.781-2.86 1.219l.125.718h.235l1.547-.687.031-.016c.063 0-.047-.015-.047.266v5.797c0 .625.016.625-.64.656L1-.578v.625L3.125 0l2 .047zm0 0"/></svg><svg overflow="visible" x="250.655" y="19.218"><path d="M4.266-.11V-.5l-.657-.031c-.515-.031-.468.015-.468-.453v-5.329l-.282-.093c-.625.297-1.312.562-2.375.906l.11.594h.234l1.25-.516.031-.016c.047 0-.078-.046-.078.172v4.282c0 .468.047.421-.469.453L.86-.5v.531L2.594 0l1.672.031zm0 0"/></svg><path d="M247.625 21.836h11.059" fill="none" stroke-width=".717" stroke="#000" stroke-miterlimit="10"/><svg overflow="visible" x="247.625" y="29.352"><path d="M4.75-2.063c0-1.03-.813-1.812-1.844-1.812-.562 0-1.031.234-1.375.5.172-1.281.828-2.016 2.719-2.531v-.235l-.516-.218c-.921.28-1.421.5-1.921.89C.828-4.703.234-3.53.234-2.312.234-.86 1.172.171 2.422.171 3.656.172 4.75-.86 4.75-2.063zm-1.14.297c0 .922-.329 1.391-1.079 1.391-.812 0-1.11-.516-1.11-1.703 0-.313 0-.375.095-.531.218-.297.578-.485 1.03-.485.735 0 1.063.453 1.063 1.328zm0 0"/></svg><svg overflow="visible" x="252.623" y="29.352"><path d="M5.922-4.484l-.11-.172c-.328.11-.765.203-1.078.203-.125 0-.359.016-.609.016-.531 0-1.64-.079-2.063-.079-.734 0-1.156.422-1.5 1.25l.329.172.171-.14c.282-.61.516-.5 1.063-.5l.781.03c-.14.376-.797 2.048-.828 2.626-.047.922.469 1.172.766 1.172.5 0 .89-.14 1.578-.656L4.266-1l-.422.266.219.187s-.375-.031-.532-.031c-.469 0-.422-.125-.406-.672.016-.234.047-.469.11-.719l.484-1.703.515.016c.235 0 .47-.016.688-.047.172 0 .39-.078.64-.156.125-.204.157-.22.422-.516zm0 0"/></svg><svg overflow="visible" x="273.91" y="24.826"><path d="M5.688-4.5c0-2.625-.907-4-2.547-4C1.297-8.5.203-6.89.203-4c0 1.39.281 2.703.703 3.281.422.594 1.203.953 1.938.953 1.812 0 2.844-1.687 2.844-4.734zm-1.282.594C4.406-1.36 4.094-.437 3-.437c-1.156 0-1.516-1.079-1.516-4 0-2.516.313-3.375 1.438-3.375 1.172 0 1.484 1.03 1.484 3.906zm0 0"/></svg><svg overflow="visible" x="203.01" y="41.276"><path d="M5.688-4.5c0-2.625-.907-4-2.547-4C1.297-8.5.203-6.89.203-4c0 1.39.281 2.703.703 3.281.422.594 1.203.953 1.938.953 1.812 0 2.844-1.687 2.844-4.734zm-1.282.594C4.406-1.36 4.094-.437 3-.437c-1.156 0-1.516-1.079-1.516-4 0-2.516.313-3.375 1.438-3.375 1.172 0 1.484 1.03 1.484 3.906zm0 0"/></svg><svg overflow="visible" x="227.243" y="35.669"><path d="M4.266-.11V-.5l-.657-.031c-.515-.031-.468.015-.468-.453v-5.329l-.282-.093c-.625.297-1.312.562-2.375.906l.11.594h.234l1.25-.516.031-.016c.047 0-.078-.046-.078.172v4.282c0 .468.047.421-.469.453L.86-.5v.531L2.594 0l1.672.031zm0 0"/></svg><path d="M224.215 38.285h11.058" fill="none" stroke-width=".717" stroke="#000" stroke-miterlimit="10"/><svg overflow="visible" x="224.213" y="45.803"><path d="M4.75-2.063c0-1.03-.813-1.812-1.844-1.812-.562 0-1.031.234-1.375.5.172-1.281.828-2.016 2.719-2.531v-.235l-.516-.218c-.921.28-1.421.5-1.921.89C.828-4.703.234-3.53.234-2.312.234-.86 1.172.171 2.422.171 3.656.172 4.75-.86 4.75-2.063zm-1.14.297c0 .922-.329 1.391-1.079 1.391-.812 0-1.11-.516-1.11-1.703 0-.313 0-.375.095-.531.218-.297.578-.485 1.03-.485.735 0 1.063.453 1.063 1.328zm0 0"/></svg><svg overflow="visible" x="229.211" y="45.803"><path d="M5.922-4.484l-.11-.172c-.328.11-.765.203-1.078.203-.125 0-.359.016-.609.016-.531 0-1.64-.079-2.063-.079-.734 0-1.156.422-1.5 1.25l.329.172.171-.14c.282-.61.516-.5 1.063-.5l.781.03c-.14.376-.797 2.048-.828 2.626-.047.922.469 1.172.766 1.172.5 0 .89-.14 1.578-.656L4.266-1l-.422.266.219.187s-.375-.031-.532-.031c-.469 0-.422-.125-.406-.672.016-.234.047-.469.11-.719l.484-1.703.515.016c.235 0 .47-.016.688-.047.172 0 .39-.078.64-.156.125-.204.157-.22.422-.516zm0 0"/></svg><svg overflow="visible" x="250.166" y="41.276"><path d="M5.125-.094v-.484l-.75-.047c-.656-.031-.64-.031-.64-.656v-7.172l-.313-.125c-.875.469-1.61.781-2.86 1.219l.125.718h.235l1.547-.687.031-.016c.063 0-.047-.015-.047.266v5.797c0 .625.016.625-.64.656L1-.578v.625L3.125 0l2 .047zm0 0"/></svg><svg overflow="visible" x="271.037" y="35.669"><path d="M6.156-2.078c-.015-.094-.015-.172-.015-.266 0-.094 0-.172.046-.39H.516c.046.218.062.296.062.39 0 .094-.015.172-.062.39h5.671zm0 0"/></svg><svg overflow="visible" x="277.761" y="35.669"><path d="M4.266-.11V-.5l-.657-.031c-.515-.031-.468.015-.468-.453v-5.329l-.282-.093c-.625.297-1.312.562-2.375.906l.11.594h.234l1.25-.516.031-.016c.047 0-.078-.046-.078.172v4.282c0 .468.047.421-.469.453L.86-.5v.531L2.594 0l1.672.031zm0 0"/></svg><path d="M271.035 38.285h11.727" fill="none" stroke-width=".717" stroke="#000" stroke-miterlimit="10"/><svg overflow="visible" x="271.369" y="45.803"><path d="M4.75-2.063c0-1.03-.813-1.812-1.844-1.812-.562 0-1.031.234-1.375.5.172-1.281.828-2.016 2.719-2.531v-.235l-.516-.218c-.921.28-1.421.5-1.921.89C.828-4.703.234-3.53.234-2.312.234-.86 1.172.171 2.422.171 3.656.172 4.75-.86 4.75-2.063zm-1.14.297c0 .922-.329 1.391-1.079 1.391-.812 0-1.11-.516-1.11-1.703 0-.313 0-.375.095-.531.218-.297.578-.485 1.03-.485.735 0 1.063.453 1.063 1.328zm0 0"/></svg><svg overflow="visible" x="276.367" y="45.803"><path d="M5.922-4.484l-.11-.172c-.328.11-.765.203-1.078.203-.125 0-.359.016-.609.016-.531 0-1.64-.079-2.063-.079-.734 0-1.156.422-1.5 1.25l.329.172.171-.14c.282-.61.516-.5 1.063-.5l.781.03c-.14.376-.797 2.048-.828 2.626-.047.922.469 1.172.766 1.172.5 0 .89-.14 1.578-.656L4.266-1l-.422.266.219.187s-.375-.031-.532-.031c-.469 0-.422-.125-.406-.672.016-.234.047-.469.11-.719l.484-1.703.515.016c.235 0 .47-.016.688-.047.172 0 .39-.078.64-.156.125-.204.157-.22.422-.516zm0 0"/></svg><svg overflow="visible" x="203.01" y="56.092"><path d="M5.688-4.5c0-2.625-.907-4-2.547-4C1.297-8.5.203-6.89.203-4c0 1.39.281 2.703.703 3.281.422.594 1.203.953 1.938.953 1.812 0 2.844-1.687 2.844-4.734zm-1.282.594C4.406-1.36 4.094-.437 3-.437c-1.156 0-1.516-1.079-1.516-4 0-2.516.313-3.375 1.438-3.375 1.172 0 1.484 1.03 1.484 3.906zm0 0"/></svg><svg overflow="visible" x="226.753" y="56.092"><path d="M5.688-4.5c0-2.625-.907-4-2.547-4C1.297-8.5.203-6.89.203-4c0 1.39.281 2.703.703 3.281.422.594 1.203.953 1.938.953 1.812 0 2.844-1.687 2.844-4.734zm-1.282.594C4.406-1.36 4.094-.437 3-.437c-1.156 0-1.516-1.079-1.516-4 0-2.516.313-3.375 1.438-3.375 1.172 0 1.484 1.03 1.484 3.906zm0 0"/></svg><svg overflow="visible" x="250.161" y="56.092"><path d="M5.125-.094v-.484l-.75-.047c-.656-.031-.64-.031-.64-.656v-7.172l-.313-.125c-.875.469-1.61.781-2.86 1.219l.125.718h.235l1.547-.687.031-.016c.063 0-.047-.015-.047.266v5.797c0 .625.016.625-.64.656L1-.578v.625L3.125 0l2 .047zm0 0"/></svg><svg overflow="visible" x="273.904" y="56.092"><path d="M5.688-4.5c0-2.625-.907-4-2.547-4C1.297-8.5.203-6.89.203-4c0 1.39.281 2.703.703 3.281.422.594 1.203.953 1.938.953 1.812 0 2.844-1.687 2.844-4.734zm-1.282.594C4.406-1.36 4.094-.437 3-.437c-1.156 0-1.516-1.079-1.516-4 0-2.516.313-3.375 1.438-3.375 1.172 0 1.484 1.03 1.484 3.906zm0 0"/></svg><svg overflow="visible" x="283.955" y="15.637"><path d="M4.656-.125v-14.656H.953c.078.203.094.297.094.375 0 .094-.016.172-.094.375h2.469V0h1.234zm0 0"/></svg><svg overflow="visible" x="283.955" y="23.85"><path d="M4.656-.125v-9.813H3.422V0h1.234zm0 0"/></svg><svg overflow="visible" x="283.955" y="30.864"><path d="M4.656-.125v-9.813H3.422V0h1.234zm0 0"/></svg><svg overflow="visible" x="283.955" y="37.878"><path d="M4.656-.125v-9.813H3.422V0h1.234zm0 0"/></svg><svg overflow="visible" x="283.955" y="44.891"><path d="M4.656-.125v-9.813H3.422V0h1.234zm0 0"/></svg><svg overflow="visible" x="283.955" y="57.935"><path d="M4.656-.125v-14.656H3.422V-.734H.953c.078.203.094.28.094.359 0 .094-.016.172-.094.375h3.703zm0 0"/></svg><svg overflow="visible" x="292.841" y="32.518"><path d="M2.516-3.125c0-.422-.407-.844-.844-.844-.422 0-.86.422-.86.844 0 .438.438.86.86.86.437 0 .844-.422.844-.86zm0 0"/></svg><svg overflow="visible" x="298.845" y="17.642"><path d="M5.078-14.781H1.562V0h1.235v-14.031h2.469c-.079-.203-.094-.281-.094-.375 0-.078.016-.172.094-.375zm0 0"/></svg><svg overflow="visible" x="298.845" y="26.343"><path d="M2.672-9.938h-1.11V0h1.235v-9.938zm0 0"/></svg><svg overflow="visible" x="298.845" y="34.371"><path d="M2.672-9.938h-1.11V0h1.235v-9.938zm0 0"/></svg><svg overflow="visible" x="298.845" y="42.399"><path d="M2.672-9.938h-1.11V0h1.235v-9.938zm0 0"/></svg><svg overflow="visible" x="298.845" y="55.93"><path d="M5.219-.125a.648.648 0 01-.047-.25c0-.078.016-.156.094-.36h-2.47V-14.78H1.564V0h3.703zm0 0"/></svg><svg overflow="visible" x="305.074" y="10.749"><path d="M7.234-6.594c0-1.218-1.265-1.937-2.312-1.937-.547 0-1.094.031-1.64.031l-2.126-.047-.062.61.812.03c.297 0 .282-.03.282.188 0 .172-.047.532-.11.907l-.89 5.187C1-.531 1.125-.641.64-.594l-.61.031-.093.61L1.688 0l1.78.047.063-.61-.922-.03c-.312-.016-.296.015-.296-.235 0-.11 0-.188.046-.422l.97-5.813-.032.094s.078-.343.14-.578c.016-.062.047-.172.063-.203.328-.063.516-.094.75-.094 1.219 0 1.656.39 1.656 1.516 0 1.281-.718 2.203-1.765 2.203-.266 0-.5-.063-1.11-.281l.047.625c.578.281.813.344 1.172.344 1.531 0 2.984-1.532 2.984-3.157zm0 0"/></svg><svg overflow="visible" x="312.378" y="13.523"><path d="M4.266-.11V-.5l-.657-.031c-.515-.031-.468.015-.468-.453v-5.329l-.282-.093c-.625.297-1.312.562-2.375.906l.11.594h.234l1.25-.516.031-.016c.047 0-.078-.046-.078.172v4.282c0 .468.047.421-.469.453L.86-.5v.531L2.594 0l1.672.031zm0 0"/></svg><svg overflow="visible" x="305.074" y="25.195"><path d="M7.234-6.594c0-1.218-1.265-1.937-2.312-1.937-.547 0-1.094.031-1.64.031l-2.126-.047-.062.61.812.03c.297 0 .282-.03.282.188 0 .172-.047.532-.11.907l-.89 5.187C1-.531 1.125-.641.64-.594l-.61.031-.093.61L1.688 0l1.78.047.063-.61-.922-.03c-.312-.016-.296.015-.296-.235 0-.11 0-.188.046-.422l.97-5.813-.032.094s.078-.343.14-.578c.016-.062.047-.172.063-.203.328-.063.516-.094.75-.094 1.219 0 1.656.39 1.656 1.516 0 1.281-.718 2.203-1.765 2.203-.266 0-.5-.063-1.11-.281l.047.625c.578.281.813.344 1.172.344 1.531 0 2.984-1.532 2.984-3.157zm0 0"/></svg><g><svg overflow="visible" x="312.378" y="27.969"><path d="M4.75-.11c-.016-.187-.016-.265-.016-.39s0-.203.032-.547l-3.141.094 1.5-1.469c.938-.906 1.266-1.5 1.266-2.156 0-1.016-.891-1.781-2.125-1.781-.688 0-1.282.218-1.782.687L.297-4.266h.547l.172-.546c.156-.516.359-.594 1-.594.828 0 1.203.343 1.203 1.093 0 .657-.36 1.22-1.453 2.282L.078-.391v.422L2.391 0l2.375.031zm0 0"/></svg></g><g><svg overflow="visible" x="305.074" y="39.641"><path d="M7.234-6.594c0-1.218-1.265-1.937-2.312-1.937-.547 0-1.094.031-1.64.031l-2.126-.047-.062.61.812.03c.297 0 .282-.03.282.188 0 .172-.047.532-.11.907l-.89 5.187C1-.531 1.125-.641.64-.594l-.61.031-.093.61L1.688 0l1.78.047.063-.61-.922-.03c-.312-.016-.296.015-.296-.235 0-.11 0-.188.046-.422l.97-5.813-.032.094s.078-.343.14-.578c.016-.062.047-.172.063-.203.328-.063.516-.094.75-.094 1.219 0 1.656.39 1.656 1.516 0 1.281-.718 2.203-1.765 2.203-.266 0-.5-.063-1.11-.281l.047.625c.578.281.813.344 1.172.344 1.531 0 2.984-1.532 2.984-3.157zm0 0"/></svg></g><g><svg overflow="visible" x="312.378" y="42.415"><path d="M4.703-2.11c0-.421-.25-.89-.594-1.124a2.225 2.225 0 00-.703-.282c.531-.375.86-.875.86-1.406 0-.781-.86-1.437-1.938-1.437-.64 0-1.203.203-1.687.656L.312-4.406h.594l.219-.625c.11-.297.563-.469 1.063-.469.624 0 .984.328.984.89 0 .673-.406 1.094-1.094 1.094-.078 0-.36.204-.36.204l-.265-.094-.125.515.203.157c.407-.172.594-.22.844-.22.813 0 1.11.329 1.11 1.142 0 .906-.422 1.359-1.329 1.359-.437 0-.719-.094-1.015-.344C.906-.984.828-1.094.578-1.75l-.531.188c.234.609.312.937.375 1.468C1.078.11 1.5.172 1.859.172c.782 0 1.766-.422 2.297-1.016.328-.375.547-.86.547-1.265zm0 0"/></svg></g><g><svg overflow="visible" x="305.074" y="54.087"><path d="M7.234-6.594c0-1.218-1.265-1.937-2.312-1.937-.547 0-1.094.031-1.64.031l-2.126-.047-.062.61.812.03c.297 0 .282-.03.282.188 0 .172-.047.532-.11.907l-.89 5.187C1-.531 1.125-.641.64-.594l-.61.031-.093.61L1.688 0l1.78.047.063-.61-.922-.03c-.312-.016-.296.015-.296-.235 0-.11 0-.188.046-.422l.97-5.813-.032.094s.078-.343.14-.578c.016-.062.047-.172.063-.203.328-.063.516-.094.75-.094 1.219 0 1.656.39 1.656 1.516 0 1.281-.718 2.203-1.765 2.203-.266 0-.5-.063-1.11-.281l.047.625c.578.281.813.344 1.172.344 1.531 0 2.984-1.532 2.984-3.157zm0 0"/></svg></g><g><svg overflow="visible" x="312.378" y="56.861"><path d="M4.781-.11V-.5l-.61-.031c-.468-.031-.421-.016-.421-.531v-.532c.422 0 .625 0 1.031.047v-.781l-.047.094s-.562-.204-.875-.204H3.75V-3.53c0-1.578.016-2.328.078-2.766l-.281-.11-.813.282-2.796 4.172.187.36h2.5v.53c0 .516.047.516-.422.532l-.75.031v.531L3.172 0l1.61.031zm-2-2.328H.97L2.89-5.312l-.266-.094v2.968zm0 0"/></svg></g><g><svg overflow="visible" x="317.875" y="17.642"><path d="M4.656-.125v-14.656H.953c.078.203.094.297.094.375 0 .094-.016.172-.094.375h2.469V0h1.234zm0 0"/></svg></g><g><svg overflow="visible" x="317.875" y="26.343"><path d="M4.656-.125v-9.813H3.422V0h1.234zm0 0"/></svg></g><g><svg overflow="visible" x="317.875" y="34.371"><path d="M4.656-.125v-9.813H3.422V0h1.234zm0 0"/></svg></g><g><svg overflow="visible" x="317.875" y="42.399"><path d="M4.656-.125v-9.813H3.422V0h1.234zm0 0"/></svg></g><g><svg overflow="visible" x="317.875" y="55.93"><path d="M4.656-.125v-14.656H3.422V-.734H.953c.078.203.094.28.094.359 0 .094-.016.172-.094.375h3.703zm0 0"/></svg></g></svg>