<svg xmlns="http://www.w3.org/2000/svg" xmlns:xlink="http://www.w3.org/1999/xlink" width="621px" height="79px" viewBox="0 0 466 59"><svg overflow="visible" x=".605" y="31.813"><path d="M8.61-8.094c0-.125-.313-.265-.516-.265h-6.64c-.282 0-.5.14-.579.375l-.75 2.171c.078-.14.297.25.297.25l-.344-.109c0 .078.266.266.36.266.109 0 .312-.188.39-.375.64-1.86.766-1.938 2.531-1.938h.47c.327 0 .124-.093.124.016 0 .062-.031.203-.047.25L2.312-1.078c-.109.437.047.437-1.218.437-.438 0-.719.141-.719.36 0 .156.344.281.406.281.328 0 .672-.031.985-.031H3.78c.344 0 .703.031 1.031.031.125 0 .454-.125.454-.375 0-.125-.282-.266-.594-.266-.297 0-.453 0-.766-.015-.344-.031-.25.062-.25-.125l-.062.094s.062-.172.11-.36L5.296-7.39c.078-.328-.063-.265.078-.312.11-.016.5-.016.75-.016 1.219 0 1.547-.093 1.547.844a8.8 8.8 0 01-.094.953 1.387 1.387 0 00-.031.234c0 .063.234.282.344.282.125 0 .343-.219.375-.407l.312-2.078c.016-.046.031-.171.031-.203zm0 0"/></svg><svg overflow="visible" x="12.01" y="31.813"><path d="M2.484-3.125c0-.344-.468-.766-.828-.766-.343 0-.828.422-.828.766 0 .36.485.766.828.766.36 0 .828-.407.828-.766zm0 0"/></svg><svg overflow="visible" x="17.994" y="20.356"><path d="M7.922-17.703c0-.203-.344-.485-.547-.485H3.641V0H4.75v-17.219h2.625c.203 0 .547-.281.547-.484zm0 0"/></svg><svg overflow="visible" x="17.994" y="30.524"><path d="M4.75-.125v-12.094H3.64V0h1.11zm0 0"/></svg><svg overflow="visible" x="17.994" y="39.079"><path d="M4.75-.125v-12.094H3.64V0h1.11zm0 0"/></svg><svg overflow="visible" x="17.994" y="55.225"><path d="M7.922-.484c0-.204-.344-.5-.547-.5H4.75v-17.203H3.64V0h3.735c.203 0 .547-.281.547-.484zm0 0"/></svg><svg overflow="visible" x="25.968" y="10.044"><path d="M9.203-6.484c0-.922-.984-1.938-2.547-1.938H2.781c-.219 0-.562.125-.562.36 0 .14.312.265.547.265.156 0 .375.016.515.031.203.016.063-.078.063.063 0 .047-.016.078-.047.219L1.703-1.063c-.125.47.047.422-.89.422C.609-.64.28-.5.28-.28c0 .156.344.281.375.281l1.516-.031h.765c.266 0 .532.031.782.031.078 0 .422-.125.422-.375 0-.125-.297-.266-.516-.266-.453 0-.594.141-.594-.078 0-.062.031-.125.047-.203l.703-2.86h1.875c1.688 0 3.547-1.374 3.547-2.702zm-1.5-.297c0 .468-.187 1.406-.656 1.828-.594.547-1.172.61-1.688.61H3.891l.78-3.126c.11-.422-.062-.328.454-.328h1.156c.985 0 1.422.188 1.422 1.016zm0 0"/></svg><svg overflow="visible" x="33.643" y="12.997"><path d="M4.172-.156v-.469H3.64c-.829 0-.625.063-.625-.219v-4.64c0-.235-.235-.391-.563-.391-.578.578-1.203.531-1.75.531v.625c.406 0 1.11-.047 1.219-.11v3.985c0 .281.203.219-.625.219H.766v.64L2.469-.03l1.703.047zm0 0"/></svg><svg overflow="visible" x="25.968" y="24.49"><path d="M9.203-6.484c0-.922-.984-1.938-2.547-1.938H2.781c-.219 0-.562.125-.562.36 0 .14.312.265.547.265.156 0 .375.016.515.031.203.016.063-.078.063.063 0 .047-.016.078-.047.219L1.703-1.063c-.125.47.047.422-.89.422C.609-.64.28-.5.28-.28c0 .156.344.281.375.281l1.516-.031h.765c.266 0 .532.031.782.031.078 0 .422-.125.422-.375 0-.125-.297-.266-.516-.266-.453 0-.594.141-.594-.078 0-.062.031-.125.047-.203l.703-2.86h1.875c1.688 0 3.547-1.374 3.547-2.702zm-1.5-.297c0 .468-.187 1.406-.656 1.828-.594.547-1.172.61-1.688.61H3.891l.78-3.126c.11-.422-.062-.328.454-.328h1.156c.985 0 1.422.188 1.422 1.016zm0 0"/></svg><svg overflow="visible" x="33.643" y="27.443"><path d="M4.234-1.844H3.75c-.047.344-.063.735-.172.813-.062.047-.562 0-.687 0H1.812c.563-.5.86-.735 1.36-1.125.625-.5 1.265-1.14 1.265-1.938 0-1-1.093-1.781-2.171-1.781-1.032 0-1.954.89-1.954 1.656 0 .422.579.625.657.625.203 0 .656-.297.656-.61 0-.14-.266-.593-.422-.593.188-.437.547-.469.938-.469.843 0 1.062.5 1.062 1.172 0 .735-.453 1.203-.719 1.5l-2.03 2C.374-.516.311-.39.311 0h3.844l.313-1.844zm0 0"/></svg><svg overflow="visible" x="25.968" y="38.936"><path d="M9.203-6.484c0-.922-.984-1.938-2.547-1.938H2.781c-.219 0-.562.125-.562.36 0 .14.312.265.547.265.156 0 .375.016.515.031.203.016.063-.078.063.063 0 .047-.016.078-.047.219L1.703-1.063c-.125.47.047.422-.89.422C.609-.64.28-.5.28-.28c0 .156.344.281.375.281l1.516-.031h.765c.266 0 .532.031.782.031.078 0 .422-.125.422-.375 0-.125-.297-.266-.516-.266-.453 0-.594.141-.594-.078 0-.062.031-.125.047-.203l.703-2.86h1.875c1.688 0 3.547-1.374 3.547-2.702zm-1.5-.297c0 .468-.187 1.406-.656 1.828-.594.547-1.172.61-1.688.61H3.891l.78-3.126c.11-.422-.062-.328.454-.328h1.156c.985 0 1.422.188 1.422 1.016zm0 0"/></svg><svg overflow="visible" x="33.643" y="41.889"><path d="M4.516-1.61c0-.656-.75-1.468-1.672-1.656v.313c.89-.313 1.406-1.094 1.406-1.61 0-.656-.969-1.312-1.89-1.312-.938 0-1.86.61-1.86 1.281 0 .282.39.594.64.594.266 0 .641-.344.641-.578 0-.25-.375-.578-.297-.578.094-.11.532-.157.844-.157.375 0 .688.016.688.75 0 .344-.047.625-.266.891-.281.313-.36.281-.781.313-.203.015-.235.015-.266.015l.14.281s-.437-.109-.437-.015c0 .125.282.281.422.281h.453c.656 0 .922.297.922 1.188 0 1.046-.39 1.187-.89 1.187-.329 0-.922-.031-1.094-.266.078-.015.375-.453.375-.625 0-.265-.407-.625-.672-.625-.235 0-.672.297-.672.641C.25-.5 1.328.172 2.344.172 3.5.172 4.516-.766 4.516-1.61zm0 0"/></svg><svg overflow="visible" x="25.968" y="53.382"><path d="M9.203-6.484c0-.922-.984-1.938-2.547-1.938H2.781c-.219 0-.562.125-.562.36 0 .14.312.265.547.265.156 0 .375.016.515.031.203.016.063-.078.063.063 0 .047-.016.078-.047.219L1.703-1.063c-.125.47.047.422-.89.422C.609-.64.28-.5.28-.28c0 .156.344.281.375.281l1.516-.031h.765c.266 0 .532.031.782.031.078 0 .422-.125.422-.375 0-.125-.297-.266-.516-.266-.453 0-.594.141-.594-.078 0-.062.031-.125.047-.203l.703-2.86h1.875c1.688 0 3.547-1.374 3.547-2.702zm-1.5-.297c0 .468-.187 1.406-.656 1.828-.594.547-1.172.61-1.688.61H3.891l.78-3.126c.11-.422-.062-.328.454-.328h1.156c.985 0 1.422.188 1.422 1.016zm0 0"/></svg><svg overflow="visible" x="33.643" y="56.335"><path d="M4.64-1.531V-2h-.937v-3.563c0-.187-.203-.406-.39-.406-.094 0-.282.063-.36.172L.125-1.844v.469h2.453v.531c0 .281.203.219-.469.219h-.437v.64L3.14-.03l1.468.047v-.641h-.437c-.672 0-.469.063-.469-.219v-.531h.938zM2.845-2H.969l2.015-2.781-.343-.125V-2zm0 0"/></svg><svg overflow="visible" x="38.903" y="20.356"><path d="M4.328-.125v-18.063H.594c-.203 0-.563.282-.563.485s.36.484.563.484h2.625V0h1.11zm0 0"/></svg><svg overflow="visible" x="38.903" y="30.524"><path d="M4.14-12.219H3.22V0h1.11v-12.219zm0 0"/></svg><svg overflow="visible" x="38.903" y="39.079"><path d="M4.14-12.219H3.22V0h1.11v-12.219zm0 0"/></svg><svg overflow="visible" x="38.903" y="55.225"><path d="M4.328-.125v-18.063h-1.11V-.983H.595c-.203 0-.563.296-.563.5 0 .203.36.484.563.484h3.734zm0 0"/></svg><svg overflow="visible" x="50.198" y="31.813"><path d="M8.828-4.281c0-.125-.312-.375-.437-.375H.906c-.125 0-.437.25-.437.375 0 .14.312.375.437.375h7.485c.125 0 .437-.235.437-.375zm0 2.328c0-.14-.312-.375-.437-.375H.906c-.125 0-.437.234-.437.375 0 .125.312.36.437.36h7.485c.125 0 .437-.235.437-.36zm0 0"/></svg><svg overflow="visible" x="62.821" y="19.056"><path d="M7.922-17.703c0-.203-.344-.485-.547-.485H3.641V0H4.75v-17.219h2.625c.203 0 .547-.281.547-.484zm0 0"/></svg><svg overflow="visible" x="62.821" y="29.867"><path d="M4.75-.125v-12.094H3.64V0h1.11zm0 0"/></svg><svg overflow="visible" x="62.821" y="39.736"><path d="M4.75-.125v-12.094H3.64V0h1.11zm0 0"/></svg><svg overflow="visible" x="62.821" y="56.524"><path d="M7.922-.484c0-.204-.344-.5-.547-.5H4.75v-17.203H3.64V0h3.735c.203 0 .547-.281.547-.484zm0 0"/></svg><svg overflow="visible" x="79.431" y="8.745"><path d="M9.203-6.484c0-.922-.984-1.938-2.547-1.938H2.781c-.219 0-.562.125-.562.36 0 .14.312.265.547.265.156 0 .375.016.515.031.203.016.063-.078.063.063 0 .047-.016.078-.047.219L1.703-1.063c-.125.47.047.422-.89.422C.609-.64.28-.5.28-.28c0 .156.344.281.375.281l1.516-.031h.765c.266 0 .532.031.782.031.078 0 .422-.125.422-.375 0-.125-.297-.266-.516-.266-.453 0-.594.141-.594-.078 0-.062.031-.125.047-.203l.703-2.86h1.875c1.688 0 3.547-1.374 3.547-2.702zm-1.5-.297c0 .468-.187 1.406-.656 1.828-.594.547-1.172.61-1.688.61H3.891l.78-3.126c.11-.422-.062-.328.454-.328h1.156c.985 0 1.422.188 1.422 1.016zm0 0"/></svg><svg overflow="visible" x="87.106" y="11.698"><path d="M4.234-1.844H3.75c-.047.344-.063.735-.172.813-.062.047-.562 0-.687 0H1.812c.563-.5.86-.735 1.36-1.125.625-.5 1.265-1.14 1.265-1.938 0-1-1.093-1.781-2.171-1.781-1.032 0-1.954.89-1.954 1.656 0 .422.579.625.657.625.203 0 .656-.297.656-.61 0-.14-.266-.593-.422-.593.188-.437.547-.469.938-.469.843 0 1.062.5 1.062 1.172 0 .735-.453 1.203-.719 1.5l-2.03 2C.374-.516.311-.39.311 0h3.844l.313-1.844zm0 0"/></svg><svg overflow="visible" x="79.431" y="23.19"><path d="M9.203-6.484c0-.922-.984-1.938-2.547-1.938H2.781c-.219 0-.562.125-.562.36 0 .14.312.265.547.265.156 0 .375.016.515.031.203.016.063-.078.063.063 0 .047-.016.078-.047.219L1.703-1.063c-.125.47.047.422-.89.422C.609-.64.28-.5.28-.28c0 .156.344.281.375.281l1.516-.031h.765c.266 0 .532.031.782.031.078 0 .422-.125.422-.375 0-.125-.297-.266-.516-.266-.453 0-.594.141-.594-.078 0-.062.031-.125.047-.203l.703-2.86h1.875c1.688 0 3.547-1.374 3.547-2.702zm-1.5-.297c0 .468-.187 1.406-.656 1.828-.594.547-1.172.61-1.688.61H3.891l.78-3.126c.11-.422-.062-.328.454-.328h1.156c.985 0 1.422.188 1.422 1.016zm0 0"/></svg><svg overflow="visible" x="87.106" y="26.144"><path d="M4.516-1.61c0-.656-.75-1.468-1.672-1.656v.313c.89-.313 1.406-1.094 1.406-1.61 0-.656-.969-1.312-1.89-1.312-.938 0-1.86.61-1.86 1.281 0 .282.39.594.64.594.266 0 .641-.344.641-.578 0-.25-.375-.578-.297-.578.094-.11.532-.157.844-.157.375 0 .688.016.688.75 0 .344-.047.625-.266.891-.281.313-.36.281-.781.313-.203.015-.235.015-.266.015l.14.281s-.437-.109-.437-.015c0 .125.282.281.422.281h.453c.656 0 .922.297.922 1.188 0 1.046-.39 1.187-.89 1.187-.329 0-.922-.031-1.094-.266.078-.015.375-.453.375-.625 0-.265-.407-.625-.672-.625-.235 0-.672.297-.672.641C.25-.5 1.328.172 2.344.172 3.5.172 4.516-.766 4.516-1.61zm0 0"/></svg><svg overflow="visible" x="71.99" y="33.24"><path d="M7.188-4.578c0-.703-.891-1.453-2.032-1.453H2.22c-.172 0-.485.156-.485.343 0 .11.313.266.5.266.125 0 .157 0 .313.016.172.015-.031-.125-.031-.032l.359.11s-.36-.063-.39.062L1.374-.844c-.078.328.125.219-.531.219-.156 0-.453.172-.453.344l.343.125S.594 0 .734 0c.235 0 .844-.031 1.079-.031h.578c.171.015.375.031.546.031.047 0 .376-.156.376-.344 0-.11-.313-.281-.47-.281l.141.281s-.312-.281-.468-.297c-.188-.015.015.125.015.032l-.062.125s.062-.172.11-.297l.437-1.813h1.359c1.406 0 2.813-1.062 2.813-1.984zM5.921-4.75c0 .266-.047.813-.469 1.188-.297.265-.625.374-1.219.374H3.125l.547-2.109c.062-.25-.14-.125.219-.125h.968c.782 0 1.063.078 1.063.672zm0 0"/></svg><svg overflow="visible" x="78.074" y="35.307"><path d="M3.781-1.219c0-.5-.625-1.093-1.312-1.25v.36c.719-.235 1.11-.86 1.11-1.204 0-.484-.813-1.03-1.563-1.03-.735 0-1.532.484-1.532 1.03 0 .282.438.532.547.532.172 0 .532-.313.532-.516 0-.14-.266-.484-.11-.469.031-.03.422 0 .547 0 .438 0 .547.047.547.454 0 .343-.031.718-.656.75-.172 0-.188.015-.344.015-.063.016-.344.188-.344.281 0 .11.266.282.375.282h.39c.563 0 .72.171.72.75 0 .625-.172.765-.704.765-.062 0-.64.047-.703-.015-.14.03.125-.344.125-.485 0-.219-.36-.547-.562-.547-.188 0-.563.313-.563.563C.281-.328 1.187.125 2 .125c.984 0 1.781-.766 1.781-1.344zm0 0"/></svg><svg overflow="visible" x="82.643" y="33.24"><path d="M6.25-2.25c0-.094-.281-.328-.375-.328H.641c-.094 0-.375.234-.375.328s.28.328.375.328h5.234c.094 0 .375-.234.375-.328zm0 0"/></svg><svg overflow="visible" x="89.154" y="33.24"><path d="M7.188-4.578c0-.703-.891-1.453-2.032-1.453H2.22c-.172 0-.485.156-.485.343 0 .11.313.266.5.266.125 0 .157 0 .313.016.172.015-.031-.125-.031-.032l.359.11s-.36-.063-.39.062L1.374-.844c-.078.328.125.219-.531.219-.156 0-.453.172-.453.344l.343.125S.594 0 .734 0c.235 0 .844-.031 1.079-.031h.578c.171.015.375.031.546.031.047 0 .376-.156.376-.344 0-.11-.313-.281-.47-.281l.141.281s-.312-.281-.468-.297c-.188-.015.015.125.015.032l-.062.125s.062-.172.11-.297l.437-1.813h1.359c1.406 0 2.813-1.062 2.813-1.984zM5.921-4.75c0 .266-.047.813-.469 1.188-.297.265-.625.374-1.219.374H3.125l.547-2.109c.062-.25-.14-.125.219-.125h.968c.782 0 1.063.078 1.063.672zm0 0"/></svg><svg overflow="visible" x="95.238" y="35.307"><path d="M3.516-.172v-.453h-.5c-.641 0-.438.11-.438-.063v-3.296c0-.188-.219-.36-.5-.36-.484.438-1 .375-1.125.375H.656v.625h.297c.14 0 .531-.015.672-.078v2.735c0 .171.203.062-.422.062H.687v.64C1.235-.03 1.766-.03 2.11-.03c.344 0 .875 0 1.407.047zm0 0"/></svg><path d="M71.988 36.012h27.82" fill="none" stroke-width=".478" stroke="#000" stroke-miterlimit="10"/><svg overflow="visible" x="83.518" y="43.127"><path d="M4.234-1.844H3.75c-.047.344-.063.735-.172.813-.062.047-.562 0-.687 0H1.812c.563-.5.86-.735 1.36-1.125.625-.5 1.265-1.14 1.265-1.938 0-1-1.093-1.781-2.171-1.781-1.032 0-1.954.89-1.954 1.656 0 .422.579.625.657.625.203 0 .656-.297.656-.61 0-.14-.266-.593-.422-.593.188-.437.547-.469.938-.469.843 0 1.062.5 1.062 1.172 0 .735-.453 1.203-.719 1.5l-2.03 2C.374-.516.311-.39.311 0h3.844l.313-1.844zm0 0"/></svg><svg overflow="visible" x="71.99" y="49.051"><path d="M7.188-4.578c0-.703-.891-1.453-2.032-1.453H2.22c-.172 0-.485.156-.485.343 0 .11.313.266.5.266.125 0 .157 0 .313.016.172.015-.031-.125-.031-.032l.359.11s-.36-.063-.39.062L1.374-.844c-.078.328.125.219-.531.219-.156 0-.453.172-.453.344l.343.125S.594 0 .734 0c.235 0 .844-.031 1.079-.031h.578c.171.015.375.031.546.031.047 0 .376-.156.376-.344 0-.11-.313-.281-.47-.281l.141.281s-.312-.281-.468-.297c-.188-.015.015.125.015.032l-.062.125s.062-.172.11-.297l.437-1.813h1.359c1.406 0 2.813-1.062 2.813-1.984zM5.921-4.75c0 .266-.047.813-.469 1.188-.297.265-.625.374-1.219.374H3.125l.547-2.109c.062-.25-.14-.125.219-.125h.968c.782 0 1.063.078 1.063.672zm0 0"/></svg><svg overflow="visible" x="78.074" y="51.118"><path d="M3.89-1.156v-.438h-.75v-2.453c0-.14-.203-.36-.359-.36a.457.457 0 00-.328.141L.172-1.469v.5h2v.281c0 .188.203.063-.328.063h-.407V0l1.22-.031L3.874 0v-.625h-.406c-.531 0-.328.125-.328-.063v-.28h.75zm-1.468-.438H1.047l1.516-1.86-.344-.124v1.984zm0 0"/></svg><svg overflow="visible" x="82.643" y="49.051"><path d="M6.25-2.25c0-.094-.281-.328-.375-.328H.641c-.094 0-.375.234-.375.328s.28.328.375.328h5.234c.094 0 .375-.234.375-.328zm0 0"/></svg><svg overflow="visible" x="89.154" y="49.051"><path d="M7.188-4.578c0-.703-.891-1.453-2.032-1.453H2.22c-.172 0-.485.156-.485.343 0 .11.313.266.5.266.125 0 .157 0 .313.016.172.015-.031-.125-.031-.032l.359.11s-.36-.063-.39.062L1.374-.844c-.078.328.125.219-.531.219-.156 0-.453.172-.453.344l.343.125S.594 0 .734 0c.235 0 .844-.031 1.079-.031h.578c.171.015.375.031.546.031.047 0 .376-.156.376-.344 0-.11-.313-.281-.47-.281l.141.281s-.312-.281-.468-.297c-.188-.015.015.125.015.032l-.062.125s.062-.172.11-.297l.437-1.813h1.359c1.406 0 2.813-1.062 2.813-1.984zM5.921-4.75c0 .266-.047.813-.469 1.188-.297.265-.625.374-1.219.374H3.125l.547-2.109c.062-.25-.14-.125.219-.125h.968c.782 0 1.063.078 1.063.672zm0 0"/></svg><svg overflow="visible" x="95.238" y="51.118"><path d="M3.531-1.516h-.437c-.047.297-.047.547-.14.594-.048.047-.407-.015-.5-.015H1.28l.14.312c.391-.297.845-.625 1.204-.875.531-.36 1.094-.844 1.094-1.469 0-.765-.922-1.375-1.781-1.375-.797 0-1.594.64-1.594 1.235 0 .312.469.546.547.546.156 0 .546-.296.546-.53 0-.22-.343-.516-.234-.5 0 0 .219-.126.61-.126.593 0 .875.172.875.75 0 .5-.297.766-.75 1.156L.468-.577a.397.397 0 00-.124.219V0H3.5l.25-1.516zm0 0"/></svg><path d="M71.988 51.691h27.82" fill="none" stroke-width=".478" stroke="#000" stroke-miterlimit="10"/><svg overflow="visible" x="83.518" y="58.806"><path d="M4.234-1.844H3.75c-.047.344-.063.735-.172.813-.062.047-.562 0-.687 0H1.812c.563-.5.86-.735 1.36-1.125.625-.5 1.265-1.14 1.265-1.938 0-1-1.093-1.781-2.171-1.781-1.032 0-1.954.89-1.954 1.656 0 .422.579.625.657.625.203 0 .656-.297.656-.61 0-.14-.266-.593-.422-.593.188-.437.547-.469.938-.469.843 0 1.062.5 1.062 1.172 0 .735-.453 1.203-.719 1.5l-2.03 2C.374-.516.311-.39.311 0h3.844l.313-1.844zm0 0"/></svg><svg overflow="visible" x="101.002" y="19.056"><path d="M4.328-.125v-18.063H.594c-.203 0-.563.282-.563.485s.36.484.563.484h2.625V0h1.11zm0 0"/></svg><svg overflow="visible" x="101.002" y="29.867"><path d="M4.14-12.219H3.22V0h1.11v-12.219zm0 0"/></svg><svg overflow="visible" x="101.002" y="39.736"><path d="M4.14-12.219H3.22V0h1.11v-12.219zm0 0"/></svg><svg overflow="visible" x="101.002" y="56.524"><path d="M4.328-.125v-18.063h-1.11V-.983H.595c-.203 0-.563.296-.563.5 0 .203.36.484.563.484h3.734zm0 0"/></svg><svg overflow="visible" x="112.297" y="31.813"><path d="M8.828-4.281c0-.125-.312-.375-.437-.375H.906c-.125 0-.437.25-.437.375 0 .14.312.375.437.375h7.485c.125 0 .437-.235.437-.375zm0 2.328c0-.14-.312-.375-.437-.375H.906c-.125 0-.437.234-.437.375 0 .125.312.36.437.36h7.485c.125 0 .437-.235.437-.36zm0 0"/></svg><svg overflow="visible" x="124.92" y="20.2"><path d="M7.922-17.703c0-.203-.344-.485-.547-.485H3.641V0H4.75v-17.219h2.625c.203 0 .547-.281.547-.484zm0 0"/></svg><svg overflow="visible" x="124.92" y="30.445"><path d="M4.75-.125v-12.094H3.64V0h1.11zm0 0"/></svg><svg overflow="visible" x="124.92" y="39.158"><path d="M4.75-.125v-12.094H3.64V0h1.11zm0 0"/></svg><svg overflow="visible" x="124.92" y="55.38"><path d="M7.922-.484c0-.204-.344-.5-.547-.5H4.75v-17.203H3.64V0h3.735c.203 0 .547-.281.547-.484zm0 0"/></svg><svg overflow="visible" x="136.737" y="9.889"><path d="M5.688-3.953c0-.953-.063-1.922-.47-2.797-.562-1.156-1.734-1.469-2.234-1.469-.718 0-1.796.438-2.28 1.547-.376.828-.438 1.766-.438 2.719 0 .89.109 2.062.593 2.969.516.968 1.532 1.25 2.11 1.25.656 0 1.75-.391 2.281-1.516.375-.828.438-1.766.438-2.703zm-1.391-.14c0 .89 0 1.702-.125 2.468C4-.485 3.516-.265 2.969-.265 2.516-.266 2-.438 1.78-1.579c-.125-.719-.125-1.813-.125-2.516 0-.765 0-1.562.094-2.203.219-1.422.922-1.406 1.219-1.406.406 0 .984.094 1.219 1.266.109.671.109 1.578.109 2.343zm0 0"/></svg><svg overflow="visible" x="145.369" y="9.889"><path d="M2.484-3.125c0-.344-.468-.766-.828-.766-.343 0-.828.422-.828.766 0 .36.485.766.828.766.36 0 .828-.407.828-.766zm0 0"/></svg><svg overflow="visible" x="151.346" y="9.889"><path d="M9.203-6.484c0-.922-.984-1.938-2.547-1.938H2.781c-.219 0-.562.125-.562.36 0 .14.312.265.547.265.156 0 .375.016.515.031.203.016.063-.078.063.063 0 .047-.016.078-.047.219L1.703-1.063c-.125.47.047.422-.89.422C.609-.64.28-.5.28-.28c0 .156.344.281.375.281l1.516-.031h.765c.266 0 .532.031.782.031.078 0 .422-.125.422-.375 0-.125-.297-.266-.516-.266-.453 0-.594.141-.594-.078 0-.062.031-.125.047-.203l.703-2.86h1.875c1.688 0 3.547-1.374 3.547-2.702zm-1.5-.297c0 .468-.187 1.406-.656 1.828-.594.547-1.172.61-1.688.61H3.891l.78-3.126c.11-.422-.062-.328.454-.328h1.156c.985 0 1.422.188 1.422 1.016zm0 0"/></svg><svg overflow="visible" x="160.695" y="9.889"><path d="M5.203-.125v-.516h-.578c-1.078 0-.922 0-.922-.437v-6.703c0-.282-.187-.438-.578-.438-.766.797-1.672.766-2.266.766v.625c.438 0 1.282-.031 1.563-.172v5.922c0 .437.172.437-.906.437H.937v.672C1.547-.03 2.595-.03 3.079-.03c.469 0 1.516 0 2.125.062zm0 0"/></svg><svg overflow="visible" x="180.481" y="9.889"><path d="M8.828-3.125c0-.125-.312-.36-.437-.36H5.078v-3.374c0-.141-.297-.375-.422-.375-.14 0-.453.234-.453.375v3.375H.906c-.125 0-.437.234-.437.359 0 .14.312.375.437.375h3.297V.625c0 .125.313.36.453.36.125 0 .422-.235.422-.36V-2.75h3.313c.125 0 .437-.234.437-.375zm0 0"/></svg><svg overflow="visible" x="189.782" y="9.889"><path d="M5.203-.125v-.516h-.578c-1.078 0-.922 0-.922-.437v-6.703c0-.282-.187-.438-.578-.438-.766.797-1.672.766-2.266.766v.625c.438 0 1.282-.031 1.563-.172v5.922c0 .437.172.437-.906.437H.937v.672C1.547-.03 2.595-.03 3.079-.03c.469 0 1.516 0 2.125.062zm0 0"/></svg><svg overflow="visible" x="198.414" y="9.889"><path d="M2.484-3.125c0-.344-.468-.766-.828-.766-.343 0-.828.422-.828.766 0 .36.485.766.828.766.36 0 .828-.407.828-.766zm0 0"/></svg><svg overflow="visible" x="204.391" y="9.889"><path d="M9.203-6.484c0-.922-.984-1.938-2.547-1.938H2.781c-.219 0-.562.125-.562.36 0 .14.312.265.547.265.156 0 .375.016.515.031.203.016.063-.078.063.063 0 .047-.016.078-.047.219L1.703-1.063c-.125.47.047.422-.89.422C.609-.64.28-.5.28-.28c0 .156.344.281.375.281l1.516-.031h.765c.266 0 .532.031.782.031.078 0 .422-.125.422-.375 0-.125-.297-.266-.516-.266-.453 0-.594.141-.594-.078 0-.062.031-.125.047-.203l.703-2.86h1.875c1.688 0 3.547-1.374 3.547-2.702zm-1.5-.297c0 .468-.187 1.406-.656 1.828-.594.547-1.172.61-1.688.61H3.891l.78-3.126c.11-.422-.062-.328.454-.328h1.156c.985 0 1.422.188 1.422 1.016zm0 0"/></svg><svg overflow="visible" x="213.74" y="9.889"><path d="M5.36-2.344h-.47c-.077.485-.109.922-.234 1.094-.078.11-.718.063-.984.063H1.89l1.03-1c1.86-1.657 2.642-2.391 2.642-3.579 0-1.375-1.266-2.453-2.735-2.453C1.484-8.219.391-7 .391-5.922c0 .656.796.797.843.797.204 0 .813-.281.813-.766 0-.312-.406-.75-.828-.75-.094 0-.125 0 .125-.093.187-.547.64-.86 1.328-.86 1.094 0 1.406.844 1.406 1.828 0 .954-.547 1.797-1.203 2.532L.578-.672C.453-.532.391-.422.391 0h4.812l.375-2.344zm0 0"/></svg><svg overflow="visible" x="230.274" y="9.889"><path d="M8.828-3.125c0-.125-.312-.36-.437-.36H5.078v-3.374c0-.141-.297-.375-.422-.375-.14 0-.453.234-.453.375v3.375H.906c-.125 0-.437.234-.437.359 0 .14.312.375.437.375h3.297V.625c0 .125.313.36.453.36.125 0 .422-.235.422-.36V-2.75h3.313c.125 0 .437-.234.437-.375zm0 0"/></svg><svg overflow="visible" x="239.576" y="9.889"><path d="M5.688-3.953c0-.953-.063-1.922-.47-2.797-.562-1.156-1.734-1.469-2.234-1.469-.718 0-1.796.438-2.28 1.547-.376.828-.438 1.766-.438 2.719 0 .89.109 2.062.593 2.969.516.968 1.532 1.25 2.11 1.25.656 0 1.75-.391 2.281-1.516.375-.828.438-1.766.438-2.703zm-1.391-.14c0 .89 0 1.702-.125 2.468C4-.485 3.516-.265 2.969-.265 2.516-.266 2-.438 1.78-1.579c-.125-.719-.125-1.813-.125-2.516 0-.765 0-1.562.094-2.203.219-1.422.922-1.406 1.219-1.406.406 0 .984.094 1.219 1.266.109.671.109 1.578.109 2.343zm0 0"/></svg><svg overflow="visible" x="248.207" y="9.889"><path d="M2.484-3.125c0-.344-.468-.766-.828-.766-.343 0-.828.422-.828.766 0 .36.485.766.828.766.36 0 .828-.407.828-.766zm0 0"/></svg><svg overflow="visible" x="254.185" y="9.889"><path d="M9.203-6.484c0-.922-.984-1.938-2.547-1.938H2.781c-.219 0-.562.125-.562.36 0 .14.312.265.547.265.156 0 .375.016.515.031.203.016.063-.078.063.063 0 .047-.016.078-.047.219L1.703-1.063c-.125.47.047.422-.89.422C.609-.64.28-.5.28-.28c0 .156.344.281.375.281l1.516-.031h.765c.266 0 .532.031.782.031.078 0 .422-.125.422-.375 0-.125-.297-.266-.516-.266-.453 0-.594.141-.594-.078 0-.062.031-.125.047-.203l.703-2.86h1.875c1.688 0 3.547-1.374 3.547-2.702zm-1.5-.297c0 .468-.187 1.406-.656 1.828-.594.547-1.172.61-1.688.61H3.891l.78-3.126c.11-.422-.062-.328.454-.328h1.156c.985 0 1.422.188 1.422 1.016zm0 0"/></svg><svg overflow="visible" x="263.534" y="9.889"><path d="M5.656-2.172c0-.984-.953-2.047-2.187-2.297v.266c.984-.328 1.86-1.297 1.86-2.234 0-.985-1.235-1.782-2.391-1.782-1.204 0-2.313.844-2.313 1.75 0 .39.469.75.813.75.375 0 .796-.39.796-.734 0-.594-.75-.734-.656-.734.234-.36.89-.47 1.313-.47.484 0 .953.126.953 1.204 0 .14.031.734-.281 1.266-.36.578-.626.578-.922.578a4.76 4.76 0 01-.47.046c-.093.016-.374.157-.374.266 0 .14.281.266.484.266h.531c.985 0 1.22.687 1.22 1.86 0 1.624-.626 1.843-1.157 1.843-.516 0-1.266-.172-1.531-.61.125.016.687-.375.687-.828 0-.437-.515-.796-.86-.796-.28 0-.874.296-.874.812C.297-.656 1.609.266 2.922.266c1.453 0 2.734-1.22 2.734-2.438zm0 0"/></svg><svg overflow="visible" x="280.654" y="9.889"><path d="M8.828-3.125c0-.125-.312-.36-.437-.36H5.078v-3.374c0-.141-.297-.375-.422-.375-.14 0-.453.234-.453.375v3.375H.906c-.125 0-.437.234-.437.359 0 .14.312.375.437.375h3.297V.625c0 .125.313.36.453.36.125 0 .422-.235.422-.36V-2.75h3.313c.125 0 .437-.234.437-.375zm0 0"/></svg><svg overflow="visible" x="289.955" y="9.889"><path d="M5.688-3.953c0-.953-.063-1.922-.47-2.797-.562-1.156-1.734-1.469-2.234-1.469-.718 0-1.796.438-2.28 1.547-.376.828-.438 1.766-.438 2.719 0 .89.109 2.062.593 2.969.516.968 1.532 1.25 2.11 1.25.656 0 1.75-.391 2.281-1.516.375-.828.438-1.766.438-2.703zm-1.391-.14c0 .89 0 1.702-.125 2.468C4-.485 3.516-.265 2.969-.265 2.516-.266 2-.438 1.78-1.579c-.125-.719-.125-1.813-.125-2.516 0-.765 0-1.562.094-2.203.219-1.422.922-1.406 1.219-1.406.406 0 .984.094 1.219 1.266.109.671.109 1.578.109 2.343zm0 0"/></svg><svg overflow="visible" x="298.586" y="9.889"><path d="M2.484-3.125c0-.344-.468-.766-.828-.766-.343 0-.828.422-.828.766 0 .36.485.766.828.766.36 0 .828-.407.828-.766zm0 0"/></svg><svg overflow="visible" x="304.564" y="9.889"><path d="M9.203-6.484c0-.922-.984-1.938-2.547-1.938H2.781c-.219 0-.562.125-.562.36 0 .14.312.265.547.265.156 0 .375.016.515.031.203.016.063-.078.063.063 0 .047-.016.078-.047.219L1.703-1.063c-.125.47.047.422-.89.422C.609-.64.28-.5.28-.28c0 .156.344.281.375.281l1.516-.031h.765c.266 0 .532.031.782.031.078 0 .422-.125.422-.375 0-.125-.297-.266-.516-.266-.453 0-.594.141-.594-.078 0-.062.031-.125.047-.203l.703-2.86h1.875c1.688 0 3.547-1.374 3.547-2.702zm-1.5-.297c0 .468-.187 1.406-.656 1.828-.594.547-1.172.61-1.688.61H3.891l.78-3.126c.11-.422-.062-.328.454-.328h1.156c.985 0 1.422.188 1.422 1.016zm0 0"/></svg><svg overflow="visible" x="313.913" y="9.889"><path d="M5.828-2.11v-.5H4.625v-5.296c0-.25-.188-.453-.375-.453-.11 0-.297.046-.39.187L.124-2.469v.5h3.188v.907c0 .421.171.421-.704.421h-.453v.672C2.844-.03 3.47-.03 3.97-.03s1.14 0 1.812.062V-.64h-.437c-.89 0-.719 0-.719-.421v-.907h1.203zm-2.25-.5H.953L3.72-6.843l-.344-.093v4.328zm0 0"/></svg><svg overflow="visible" x="136.737" y="24.334"><path d="M5.688-3.953c0-.953-.063-1.922-.47-2.797-.562-1.156-1.734-1.469-2.234-1.469-.718 0-1.796.438-2.28 1.547-.376.828-.438 1.766-.438 2.719 0 .89.109 2.062.593 2.969.516.968 1.532 1.25 2.11 1.25.656 0 1.75-.391 2.281-1.516.375-.828.438-1.766.438-2.703zm-1.391-.14c0 .89 0 1.702-.125 2.468C4-.485 3.516-.265 2.969-.265 2.516-.266 2-.438 1.78-1.579c-.125-.719-.125-1.813-.125-2.516 0-.765 0-1.562.094-2.203.219-1.422.922-1.406 1.219-1.406.406 0 .984.094 1.219 1.266.109.671.109 1.578.109 2.343zm0 0"/></svg><svg overflow="visible" x="145.369" y="24.334"><path d="M2.484-3.125c0-.344-.468-.766-.828-.766-.343 0-.828.422-.828.766 0 .36.485.766.828.766.36 0 .828-.407.828-.766zm0 0"/></svg><svg overflow="visible" x="151.346" y="24.334"><path d="M9.203-6.484c0-.922-.984-1.938-2.547-1.938H2.781c-.219 0-.562.125-.562.36 0 .14.312.265.547.265.156 0 .375.016.515.031.203.016.063-.078.063.063 0 .047-.016.078-.047.219L1.703-1.063c-.125.47.047.422-.89.422C.609-.64.28-.5.28-.28c0 .156.344.281.375.281l1.516-.031h.765c.266 0 .532.031.782.031.078 0 .422-.125.422-.375 0-.125-.297-.266-.516-.266-.453 0-.594.141-.594-.078 0-.062.031-.125.047-.203l.703-2.86h1.875c1.688 0 3.547-1.374 3.547-2.702zm-1.5-.297c0 .468-.187 1.406-.656 1.828-.594.547-1.172.61-1.688.61H3.891l.78-3.126c.11-.422-.062-.328.454-.328h1.156c.985 0 1.422.188 1.422 1.016zm0 0"/></svg><svg overflow="visible" x="160.695" y="24.334"><path d="M5.203-.125v-.516h-.578c-1.078 0-.922 0-.922-.437v-6.703c0-.282-.187-.438-.578-.438-.766.797-1.672.766-2.266.766v.625c.438 0 1.282-.031 1.563-.172v5.922c0 .437.172.437-.906.437H.937v.672C1.547-.03 2.595-.03 3.079-.03c.469 0 1.516 0 2.125.062zm0 0"/></svg><svg overflow="visible" x="180.481" y="24.334"><path d="M8.828-3.125c0-.125-.312-.36-.437-.36H5.078v-3.374c0-.141-.297-.375-.422-.375-.14 0-.453.234-.453.375v3.375H.906c-.125 0-.437.234-.437.359 0 .14.312.375.437.375h3.297V.625c0 .125.313.36.453.36.125 0 .422-.235.422-.36V-2.75h3.313c.125 0 .437-.234.437-.375zm0 0"/></svg><svg overflow="visible" x="189.782" y="24.334"><path d="M5.688-3.953c0-.953-.063-1.922-.47-2.797-.562-1.156-1.734-1.469-2.234-1.469-.718 0-1.796.438-2.28 1.547-.376.828-.438 1.766-.438 2.719 0 .89.109 2.062.593 2.969.516.968 1.532 1.25 2.11 1.25.656 0 1.75-.391 2.281-1.516.375-.828.438-1.766.438-2.703zm-1.391-.14c0 .89 0 1.702-.125 2.468C4-.485 3.516-.265 2.969-.265 2.516-.266 2-.438 1.78-1.579c-.125-.719-.125-1.813-.125-2.516 0-.765 0-1.562.094-2.203.219-1.422.922-1.406 1.219-1.406.406 0 .984.094 1.219 1.266.109.671.109 1.578.109 2.343zm0 0"/></svg><svg overflow="visible" x="198.414" y="24.334"><path d="M2.484-3.125c0-.344-.468-.766-.828-.766-.343 0-.828.422-.828.766 0 .36.485.766.828.766.36 0 .828-.407.828-.766zm0 0"/></svg><svg overflow="visible" x="204.391" y="24.334"><path d="M9.203-6.484c0-.922-.984-1.938-2.547-1.938H2.781c-.219 0-.562.125-.562.36 0 .14.312.265.547.265.156 0 .375.016.515.031.203.016.063-.078.063.063 0 .047-.016.078-.047.219L1.703-1.063c-.125.47.047.422-.89.422C.609-.64.28-.5.28-.28c0 .156.344.281.375.281l1.516-.031h.765c.266 0 .532.031.782.031.078 0 .422-.125.422-.375 0-.125-.297-.266-.516-.266-.453 0-.594.141-.594-.078 0-.062.031-.125.047-.203l.703-2.86h1.875c1.688 0 3.547-1.374 3.547-2.702zm-1.5-.297c0 .468-.187 1.406-.656 1.828-.594.547-1.172.61-1.688.61H3.891l.78-3.126c.11-.422-.062-.328.454-.328h1.156c.985 0 1.422.188 1.422 1.016zm0 0"/></svg><svg overflow="visible" x="213.74" y="24.334"><path d="M5.36-2.344h-.47c-.077.485-.109.922-.234 1.094-.078.11-.718.063-.984.063H1.89l1.03-1c1.86-1.657 2.642-2.391 2.642-3.579 0-1.375-1.266-2.453-2.735-2.453C1.484-8.219.391-7 .391-5.922c0 .656.796.797.843.797.204 0 .813-.281.813-.766 0-.312-.406-.75-.828-.75-.094 0-.125 0 .125-.093.187-.547.64-.86 1.328-.86 1.094 0 1.406.844 1.406 1.828 0 .954-.547 1.797-1.203 2.532L.578-.672C.453-.532.391-.422.391 0h4.812l.375-2.344zm0 0"/></svg><svg overflow="visible" x="230.274" y="24.334"><path d="M8.828-3.125c0-.125-.312-.36-.437-.36H5.078v-3.374c0-.141-.297-.375-.422-.375-.14 0-.453.234-.453.375v3.375H.906c-.125 0-.437.234-.437.359 0 .14.312.375.437.375h3.297V.625c0 .125.313.36.453.36.125 0 .422-.235.422-.36V-2.75h3.313c.125 0 .437-.234.437-.375zm0 0"/></svg><svg overflow="visible" x="239.576" y="24.334"><path d="M5.203-.125v-.516h-.578c-1.078 0-.922 0-.922-.437v-6.703c0-.282-.187-.438-.578-.438-.766.797-1.672.766-2.266.766v.625c.438 0 1.282-.031 1.563-.172v5.922c0 .437.172.437-.906.437H.937v.672C1.547-.03 2.595-.03 3.079-.03c.469 0 1.516 0 2.125.062zm0 0"/></svg><svg overflow="visible" x="248.207" y="24.334"><path d="M2.484-3.125c0-.344-.468-.766-.828-.766-.343 0-.828.422-.828.766 0 .36.485.766.828.766.36 0 .828-.407.828-.766zm0 0"/></svg><svg overflow="visible" x="254.185" y="24.334"><path d="M9.203-6.484c0-.922-.984-1.938-2.547-1.938H2.781c-.219 0-.562.125-.562.36 0 .14.312.265.547.265.156 0 .375.016.515.031.203.016.063-.078.063.063 0 .047-.016.078-.047.219L1.703-1.063c-.125.47.047.422-.89.422C.609-.64.28-.5.28-.28c0 .156.344.281.375.281l1.516-.031h.765c.266 0 .532.031.782.031.078 0 .422-.125.422-.375 0-.125-.297-.266-.516-.266-.453 0-.594.141-.594-.078 0-.062.031-.125.047-.203l.703-2.86h1.875c1.688 0 3.547-1.374 3.547-2.702zm-1.5-.297c0 .468-.187 1.406-.656 1.828-.594.547-1.172.61-1.688.61H3.891l.78-3.126c.11-.422-.062-.328.454-.328h1.156c.985 0 1.422.188 1.422 1.016zm0 0"/></svg><svg overflow="visible" x="263.534" y="24.334"><path d="M5.656-2.172c0-.984-.953-2.047-2.187-2.297v.266c.984-.328 1.86-1.297 1.86-2.234 0-.985-1.235-1.782-2.391-1.782-1.204 0-2.313.844-2.313 1.75 0 .39.469.75.813.75.375 0 .796-.39.796-.734 0-.594-.75-.734-.656-.734.234-.36.89-.47 1.313-.47.484 0 .953.126.953 1.204 0 .14.031.734-.281 1.266-.36.578-.626.578-.922.578a4.76 4.76 0 01-.47.046c-.093.016-.374.157-.374.266 0 .14.281.266.484.266h.531c.985 0 1.22.687 1.22 1.86 0 1.624-.626 1.843-1.157 1.843-.516 0-1.266-.172-1.531-.61.125.016.687-.375.687-.828 0-.437-.515-.796-.86-.796-.28 0-.874.296-.874.812C.297-.656 1.609.266 2.922.266c1.453 0 2.734-1.22 2.734-2.438zm0 0"/></svg><svg overflow="visible" x="280.654" y="24.334"><path d="M8.828-3.125c0-.125-.312-.36-.437-.36H5.078v-3.374c0-.141-.297-.375-.422-.375-.14 0-.453.234-.453.375v3.375H.906c-.125 0-.437.234-.437.359 0 .14.312.375.437.375h3.297V.625c0 .125.313.36.453.36.125 0 .422-.235.422-.36V-2.75h3.313c.125 0 .437-.234.437-.375zm0 0"/></svg><svg overflow="visible" x="289.955" y="24.334"><path d="M5.688-3.953c0-.953-.063-1.922-.47-2.797-.562-1.156-1.734-1.469-2.234-1.469-.718 0-1.796.438-2.28 1.547-.376.828-.438 1.766-.438 2.719 0 .89.109 2.062.593 2.969.516.968 1.532 1.25 2.11 1.25.656 0 1.75-.391 2.281-1.516.375-.828.438-1.766.438-2.703zm-1.391-.14c0 .89 0 1.702-.125 2.468C4-.485 3.516-.265 2.969-.265 2.516-.266 2-.438 1.78-1.579c-.125-.719-.125-1.813-.125-2.516 0-.765 0-1.562.094-2.203.219-1.422.922-1.406 1.219-1.406.406 0 .984.094 1.219 1.266.109.671.109 1.578.109 2.343zm0 0"/></svg><svg overflow="visible" x="298.586" y="24.334"><path d="M2.484-3.125c0-.344-.468-.766-.828-.766-.343 0-.828.422-.828.766 0 .36.485.766.828.766.36 0 .828-.407.828-.766zm0 0"/></svg><svg overflow="visible" x="304.564" y="24.334"><path d="M9.203-6.484c0-.922-.984-1.938-2.547-1.938H2.781c-.219 0-.562.125-.562.36 0 .14.312.265.547.265.156 0 .375.016.515.031.203.016.063-.078.063.063 0 .047-.016.078-.047.219L1.703-1.063c-.125.47.047.422-.89.422C.609-.64.28-.5.28-.28c0 .156.344.281.375.281l1.516-.031h.765c.266 0 .532.031.782.031.078 0 .422-.125.422-.375 0-.125-.297-.266-.516-.266-.453 0-.594.141-.594-.078 0-.062.031-.125.047-.203l.703-2.86h1.875c1.688 0 3.547-1.374 3.547-2.702zm-1.5-.297c0 .468-.187 1.406-.656 1.828-.594.547-1.172.61-1.688.61H3.891l.78-3.126c.11-.422-.062-.328.454-.328h1.156c.985 0 1.422.188 1.422 1.016zm0 0"/></svg><svg overflow="visible" x="313.913" y="24.334"><path d="M5.828-2.11v-.5H4.625v-5.296c0-.25-.188-.453-.375-.453-.11 0-.297.046-.39.187L.124-2.469v.5h3.188v.907c0 .421.171.421-.704.421h-.453v.672C2.844-.03 3.47-.03 3.97-.03s1.14 0 1.812.062V-.64h-.437c-.89 0-.719 0-.719-.421v-.907h1.203zm-2.25-.5H.953L3.72-6.843l-.344-.093v4.328zm0 0"/></svg><svg overflow="visible" x="134.089" y="34.225"><path d="M6.25-2.25c0-.094-.281-.328-.375-.328H.641c-.094 0-.375.234-.375.328s.28.328.375.328h5.234c.094 0 .375-.234.375-.328zm0 0"/></svg><svg overflow="visible" x="140.6" y="34.225"><path d="M4.172-.156v-.469H3.64c-.829 0-.625.063-.625-.219v-4.64c0-.235-.235-.391-.563-.391-.578.578-1.203.531-1.75.531v.625c.406 0 1.11-.047 1.219-.11v3.985c0 .281.203.219-.625.219H.766v.64L2.469-.03l1.703.047zm0 0"/></svg><path d="M134.09 35.945h11.273" fill="none" stroke-width=".478" stroke="#000" stroke-miterlimit="10"/><svg overflow="visible" x="137.345" y="43.061"><path d="M4.234-1.844H3.75c-.047.344-.063.735-.172.813-.062.047-.562 0-.687 0H1.812c.563-.5.86-.735 1.36-1.125.625-.5 1.265-1.14 1.265-1.938 0-1-1.093-1.781-2.171-1.781-1.032 0-1.954.89-1.954 1.656 0 .422.579.625.657.625.203 0 .656-.297.656-.61 0-.14-.266-.593-.422-.593.188-.437.547-.469.938-.469.843 0 1.062.5 1.062 1.172 0 .735-.453 1.203-.719 1.5l-2.03 2C.374-.516.311-.39.311 0h3.844l.313-1.844zm0 0"/></svg><svg overflow="visible" x="149.214" y="38.936"><path d="M2.484-3.125c0-.344-.468-.766-.828-.766-.343 0-.828.422-.828.766 0 .36.485.766.828.766.36 0 .828-.407.828-.766zm0 0"/></svg><svg overflow="visible" x="155.192" y="38.936"><path d="M9.203-6.484c0-.922-.984-1.938-2.547-1.938H2.781c-.219 0-.562.125-.562.36 0 .14.312.265.547.265.156 0 .375.016.515.031.203.016.063-.078.063.063 0 .047-.016.078-.047.219L1.703-1.063c-.125.47.047.422-.89.422C.609-.64.28-.5.28-.28c0 .156.344.281.375.281l1.516-.031h.765c.266 0 .532.031.782.031.078 0 .422-.125.422-.375 0-.125-.297-.266-.516-.266-.453 0-.594.141-.594-.078 0-.062.031-.125.047-.203l.703-2.86h1.875c1.688 0 3.547-1.374 3.547-2.702zm-1.5-.297c0 .468-.187 1.406-.656 1.828-.594.547-1.172.61-1.688.61H3.891l.78-3.126c.11-.422-.062-.328.454-.328h1.156c.985 0 1.422.188 1.422 1.016zm0 0"/></svg><svg overflow="visible" x="164.541" y="38.936"><path d="M5.203-.125v-.516h-.578c-1.078 0-.922 0-.922-.437v-6.703c0-.282-.187-.438-.578-.438-.766.797-1.672.766-2.266.766v.625c.438 0 1.282-.031 1.563-.172v5.922c0 .437.172.437-.906.437H.937v.672C1.547-.03 2.595-.03 3.079-.03c.469 0 1.516 0 2.125.062zm0 0"/></svg><svg overflow="visible" x="180.477" y="38.936"><path d="M8.828-3.125c0-.125-.312-.36-.437-.36H5.078v-3.374c0-.141-.297-.375-.422-.375-.14 0-.453.234-.453.375v3.375H.906c-.125 0-.437.234-.437.359 0 .14.312.375.437.375h3.297V.625c0 .125.313.36.453.36.125 0 .422-.235.422-.36V-2.75h3.313c.125 0 .437-.234.437-.375zm0 0"/></svg><svg overflow="visible" x="189.778" y="38.936"><path d="M5.688-3.953c0-.953-.063-1.922-.47-2.797-.562-1.156-1.734-1.469-2.234-1.469-.718 0-1.796.438-2.28 1.547-.376.828-.438 1.766-.438 2.719 0 .89.109 2.062.593 2.969.516.968 1.532 1.25 2.11 1.25.656 0 1.75-.391 2.281-1.516.375-.828.438-1.766.438-2.703zm-1.391-.14c0 .89 0 1.702-.125 2.468C4-.485 3.516-.265 2.969-.265 2.516-.266 2-.438 1.78-1.579c-.125-.719-.125-1.813-.125-2.516 0-.765 0-1.562.094-2.203.219-1.422.922-1.406 1.219-1.406.406 0 .984.094 1.219 1.266.109.671.109 1.578.109 2.343zm0 0"/></svg><svg overflow="visible" x="198.41" y="38.936"><path d="M2.484-3.125c0-.344-.468-.766-.828-.766-.343 0-.828.422-.828.766 0 .36.485.766.828.766.36 0 .828-.407.828-.766zm0 0"/></svg><svg overflow="visible" x="204.399" y="38.936"><path d="M9.203-6.484c0-.922-.984-1.938-2.547-1.938H2.781c-.219 0-.562.125-.562.36 0 .14.312.265.547.265.156 0 .375.016.515.031.203.016.063-.078.063.063 0 .047-.016.078-.047.219L1.703-1.063c-.125.47.047.422-.89.422C.609-.64.28-.5.28-.28c0 .156.344.281.375.281l1.516-.031h.765c.266 0 .532.031.782.031.078 0 .422-.125.422-.375 0-.125-.297-.266-.516-.266-.453 0-.594.141-.594-.078 0-.062.031-.125.047-.203l.703-2.86h1.875c1.688 0 3.547-1.374 3.547-2.702zm-1.5-.297c0 .468-.187 1.406-.656 1.828-.594.547-1.172.61-1.688.61H3.891l.78-3.126c.11-.422-.062-.328.454-.328h1.156c.985 0 1.422.188 1.422 1.016zm0 0"/></svg><svg overflow="visible" x="213.748" y="38.936"><path d="M5.36-2.344h-.47c-.077.485-.109.922-.234 1.094-.078.11-.718.063-.984.063H1.89l1.03-1c1.86-1.657 2.642-2.391 2.642-3.579 0-1.375-1.266-2.453-2.735-2.453C1.484-8.219.391-7 .391-5.922c0 .656.796.797.843.797.204 0 .813-.281.813-.766 0-.312-.406-.75-.828-.75-.094 0-.125 0 .125-.093.187-.547.64-.86 1.328-.86 1.094 0 1.406.844 1.406 1.828 0 .954-.547 1.797-1.203 2.532L.578-.672C.453-.532.391-.422.391 0h4.812l.375-2.344zm0 0"/></svg><svg overflow="visible" x="229.684" y="38.936"><path d="M8.828-3.125c0-.125-.312-.36-.437-.36H5.078v-3.374c0-.141-.297-.375-.422-.375-.14 0-.453.234-.453.375v3.375H.906c-.125 0-.437.234-.437.359 0 .14.312.375.437.375h3.297V.625c0 .125.313.36.453.36.125 0 .422-.235.422-.36V-2.75h3.313c.125 0 .437-.234.437-.375zm0 0"/></svg><svg overflow="visible" x="240.186" y="34.225"><path d="M4.172-.156v-.469H3.64c-.829 0-.625.063-.625-.219v-4.64c0-.235-.235-.391-.563-.391-.578.578-1.203.531-1.75.531v.625c.406 0 1.11-.047 1.219-.11v3.985c0 .281.203.219-.625.219H.766v.64L2.469-.03l1.703.047zm0 0"/></svg><path d="M240.188 35.945h4.761" fill="none" stroke-width=".478" stroke="#000" stroke-miterlimit="10"/><svg overflow="visible" x="240.186" y="43.061"><path d="M4.234-1.844H3.75c-.047.344-.063.735-.172.813-.062.047-.562 0-.687 0H1.812c.563-.5.86-.735 1.36-1.125.625-.5 1.265-1.14 1.265-1.938 0-1-1.093-1.781-2.171-1.781-1.032 0-1.954.89-1.954 1.656 0 .422.579.625.657.625.203 0 .656-.297.656-.61 0-.14-.266-.593-.422-.593.188-.437.547-.469.938-.469.843 0 1.062.5 1.062 1.172 0 .735-.453 1.203-.719 1.5l-2.03 2C.374-.516.311-.39.311 0h3.844l.313-1.844zm0 0"/></svg><svg overflow="visible" x="248.8" y="38.936"><path d="M2.484-3.125c0-.344-.468-.766-.828-.766-.343 0-.828.422-.828.766 0 .36.485.766.828.766.36 0 .828-.407.828-.766zm0 0"/></svg><svg overflow="visible" x="254.778" y="38.936"><path d="M9.203-6.484c0-.922-.984-1.938-2.547-1.938H2.781c-.219 0-.562.125-.562.36 0 .14.312.265.547.265.156 0 .375.016.515.031.203.016.063-.078.063.063 0 .047-.016.078-.047.219L1.703-1.063c-.125.47.047.422-.89.422C.609-.64.28-.5.28-.28c0 .156.344.281.375.281l1.516-.031h.765c.266 0 .532.031.782.031.078 0 .422-.125.422-.375 0-.125-.297-.266-.516-.266-.453 0-.594.141-.594-.078 0-.062.031-.125.047-.203l.703-2.86h1.875c1.688 0 3.547-1.374 3.547-2.702zm-1.5-.297c0 .468-.187 1.406-.656 1.828-.594.547-1.172.61-1.688.61H3.891l.78-3.126c.11-.422-.062-.328.454-.328h1.156c.985 0 1.422.188 1.422 1.016zm0 0"/></svg><svg overflow="visible" x="264.127" y="38.936"><path d="M5.656-2.172c0-.984-.953-2.047-2.187-2.297v.266c.984-.328 1.86-1.297 1.86-2.234 0-.985-1.235-1.782-2.391-1.782-1.204 0-2.313.844-2.313 1.75 0 .39.469.75.813.75.375 0 .796-.39.796-.734 0-.594-.75-.734-.656-.734.234-.36.89-.47 1.313-.47.484 0 .953.126.953 1.204 0 .14.031.734-.281 1.266-.36.578-.626.578-.922.578a4.76 4.76 0 01-.47.046c-.093.016-.374.157-.374.266 0 .14.281.266.484.266h.531c.985 0 1.22.687 1.22 1.86 0 1.624-.626 1.843-1.157 1.843-.516 0-1.266-.172-1.531-.61.125.016.687-.375.687-.828 0-.437-.515-.796-.86-.796-.28 0-.874.296-.874.812C.297-.656 1.609.266 2.922.266c1.453 0 2.734-1.22 2.734-2.438zm0 0"/></svg><svg overflow="visible" x="280.649" y="38.936"><path d="M8.828-3.125c0-.125-.312-.36-.437-.36H5.078v-3.374c0-.141-.297-.375-.422-.375-.14 0-.453.234-.453.375v3.375H.906c-.125 0-.437.234-.437.359 0 .14.312.375.437.375h3.297V.625c0 .125.313.36.453.36.125 0 .422-.235.422-.36V-2.75h3.313c.125 0 .437-.234.437-.375zm0 0"/></svg><svg overflow="visible" x="289.95" y="38.936"><path d="M5.688-3.953c0-.953-.063-1.922-.47-2.797-.562-1.156-1.734-1.469-2.234-1.469-.718 0-1.796.438-2.28 1.547-.376.828-.438 1.766-.438 2.719 0 .89.109 2.062.593 2.969.516.968 1.532 1.25 2.11 1.25.656 0 1.75-.391 2.281-1.516.375-.828.438-1.766.438-2.703zm-1.391-.14c0 .89 0 1.702-.125 2.468C4-.485 3.516-.265 2.969-.265 2.516-.266 2-.438 1.78-1.579c-.125-.719-.125-1.813-.125-2.516 0-.765 0-1.562.094-2.203.219-1.422.922-1.406 1.219-1.406.406 0 .984.094 1.219 1.266.109.671.109 1.578.109 2.343zm0 0"/></svg><svg overflow="visible" x="298.581" y="38.936"><path d="M2.484-3.125c0-.344-.468-.766-.828-.766-.343 0-.828.422-.828.766 0 .36.485.766.828.766.36 0 .828-.407.828-.766zm0 0"/></svg><svg overflow="visible" x="304.571" y="38.936"><path d="M9.203-6.484c0-.922-.984-1.938-2.547-1.938H2.781c-.219 0-.562.125-.562.36 0 .14.312.265.547.265.156 0 .375.016.515.031.203.016.063-.078.063.063 0 .047-.016.078-.047.219L1.703-1.063c-.125.47.047.422-.89.422C.609-.64.28-.5.28-.28c0 .156.344.281.375.281l1.516-.031h.765c.266 0 .532.031.782.031.078 0 .422-.125.422-.375 0-.125-.297-.266-.516-.266-.453 0-.594.141-.594-.078 0-.062.031-.125.047-.203l.703-2.86h1.875c1.688 0 3.547-1.374 3.547-2.702zm-1.5-.297c0 .468-.187 1.406-.656 1.828-.594.547-1.172.61-1.688.61H3.891l.78-3.126c.11-.422-.062-.328.454-.328h1.156c.985 0 1.422.188 1.422 1.016zm0 0"/></svg><svg overflow="visible" x="313.92" y="38.936"><path d="M5.828-2.11v-.5H4.625v-5.296c0-.25-.188-.453-.375-.453-.11 0-.297.046-.39.187L.124-2.469v.5h3.188v.907c0 .421.171.421-.704.421h-.453v.672C2.844-.03 3.47-.03 3.97-.03s1.14 0 1.812.062V-.64h-.437c-.89 0-.719 0-.719-.421v-.907h1.203zm-2.25-.5H.953L3.72-6.843l-.344-.093v4.328zm0 0"/></svg><svg overflow="visible" x="136.737" y="53.537"><path d="M5.688-3.953c0-.953-.063-1.922-.47-2.797-.562-1.156-1.734-1.469-2.234-1.469-.718 0-1.796.438-2.28 1.547-.376.828-.438 1.766-.438 2.719 0 .89.109 2.062.593 2.969.516.968 1.532 1.25 2.11 1.25.656 0 1.75-.391 2.281-1.516.375-.828.438-1.766.438-2.703zm-1.391-.14c0 .89 0 1.702-.125 2.468C4-.485 3.516-.265 2.969-.265 2.516-.266 2-.438 1.78-1.579c-.125-.719-.125-1.813-.125-2.516 0-.765 0-1.562.094-2.203.219-1.422.922-1.406 1.219-1.406.406 0 .984.094 1.219 1.266.109.671.109 1.578.109 2.343zm0 0"/></svg><svg overflow="visible" x="145.369" y="53.537"><path d="M2.484-3.125c0-.344-.468-.766-.828-.766-.343 0-.828.422-.828.766 0 .36.485.766.828.766.36 0 .828-.407.828-.766zm0 0"/></svg><svg overflow="visible" x="151.346" y="53.537"><path d="M9.203-6.484c0-.922-.984-1.938-2.547-1.938H2.781c-.219 0-.562.125-.562.36 0 .14.312.265.547.265.156 0 .375.016.515.031.203.016.063-.078.063.063 0 .047-.016.078-.047.219L1.703-1.063c-.125.47.047.422-.89.422C.609-.64.28-.5.28-.28c0 .156.344.281.375.281l1.516-.031h.765c.266 0 .532.031.782.031.078 0 .422-.125.422-.375 0-.125-.297-.266-.516-.266-.453 0-.594.141-.594-.078 0-.062.031-.125.047-.203l.703-2.86h1.875c1.688 0 3.547-1.374 3.547-2.702zm-1.5-.297c0 .468-.187 1.406-.656 1.828-.594.547-1.172.61-1.688.61H3.891l.78-3.126c.11-.422-.062-.328.454-.328h1.156c.985 0 1.422.188 1.422 1.016zm0 0"/></svg><svg overflow="visible" x="160.695" y="53.537"><path d="M5.203-.125v-.516h-.578c-1.078 0-.922 0-.922-.437v-6.703c0-.282-.187-.438-.578-.438-.766.797-1.672.766-2.266.766v.625c.438 0 1.282-.031 1.563-.172v5.922c0 .437.172.437-.906.437H.937v.672C1.547-.03 2.595-.03 3.079-.03c.469 0 1.516 0 2.125.062zm0 0"/></svg><svg overflow="visible" x="182.487" y="48.826"><path d="M6.25-2.25c0-.094-.281-.328-.375-.328H.641c-.094 0-.375.234-.375.328s.28.328.375.328h5.234c.094 0 .375-.234.375-.328zm0 0"/></svg><svg overflow="visible" x="188.998" y="48.826"><path d="M4.172-.156v-.469H3.64c-.829 0-.625.063-.625-.219v-4.64c0-.235-.235-.391-.563-.391-.578.578-1.203.531-1.75.531v.625c.406 0 1.11-.047 1.219-.11v3.985c0 .281.203.219-.625.219H.766v.64L2.469-.03l1.703.047zm0 0"/></svg><path d="M182.488 50.547h11.274" fill="none" stroke-width=".478" stroke="#000" stroke-miterlimit="10"/><svg overflow="visible" x="185.743" y="57.662"><path d="M4.234-1.844H3.75c-.047.344-.063.735-.172.813-.062.047-.562 0-.687 0H1.812c.563-.5.86-.735 1.36-1.125.625-.5 1.265-1.14 1.265-1.938 0-1-1.093-1.781-2.171-1.781-1.032 0-1.954.89-1.954 1.656 0 .422.579.625.657.625.203 0 .656-.297.656-.61 0-.14-.266-.593-.422-.593.188-.437.547-.469.938-.469.843 0 1.062.5 1.062 1.172 0 .735-.453 1.203-.719 1.5l-2.03 2C.374-.516.311-.39.311 0h3.844l.313-1.844zm0 0"/></svg><svg overflow="visible" x="197.612" y="53.537"><path d="M2.484-3.125c0-.344-.468-.766-.828-.766-.343 0-.828.422-.828.766 0 .36.485.766.828.766.36 0 .828-.407.828-.766zm0 0"/></svg><svg overflow="visible" x="203.59" y="53.537"><path d="M9.203-6.484c0-.922-.984-1.938-2.547-1.938H2.781c-.219 0-.562.125-.562.36 0 .14.312.265.547.265.156 0 .375.016.515.031.203.016.063-.078.063.063 0 .047-.016.078-.047.219L1.703-1.063c-.125.47.047.422-.89.422C.609-.64.28-.5.28-.28c0 .156.344.281.375.281l1.516-.031h.765c.266 0 .532.031.782.031.078 0 .422-.125.422-.375 0-.125-.297-.266-.516-.266-.453 0-.594.141-.594-.078 0-.062.031-.125.047-.203l.703-2.86h1.875c1.688 0 3.547-1.374 3.547-2.702zm-1.5-.297c0 .468-.187 1.406-.656 1.828-.594.547-1.172.61-1.688.61H3.891l.78-3.126c.11-.422-.062-.328.454-.328h1.156c.985 0 1.422.188 1.422 1.016zm0 0"/></svg><svg overflow="visible" x="212.939" y="53.537"><path d="M5.36-2.344h-.47c-.077.485-.109.922-.234 1.094-.078.11-.718.063-.984.063H1.89l1.03-1c1.86-1.657 2.642-2.391 2.642-3.579 0-1.375-1.266-2.453-2.735-2.453C1.484-8.219.391-7 .391-5.922c0 .656.796.797.843.797.204 0 .813-.281.813-.766 0-.312-.406-.75-.828-.75-.094 0-.125 0 .125-.093.187-.547.64-.86 1.328-.86 1.094 0 1.406.844 1.406 1.828 0 .954-.547 1.797-1.203 2.532L.578-.672C.453-.532.391-.422.391 0h4.812l.375-2.344zm0 0"/></svg><svg overflow="visible" x="230.274" y="53.537"><path d="M8.828-3.125c0-.125-.312-.36-.437-.36H5.078v-3.374c0-.141-.297-.375-.422-.375-.14 0-.453.234-.453.375v3.375H.906c-.125 0-.437.234-.437.359 0 .14.312.375.437.375h3.297V.625c0 .125.313.36.453.36.125 0 .422-.235.422-.36V-2.75h3.313c.125 0 .437-.234.437-.375zm0 0"/></svg><svg overflow="visible" x="239.575" y="53.537"><path d="M5.688-3.953c0-.953-.063-1.922-.47-2.797-.562-1.156-1.734-1.469-2.234-1.469-.718 0-1.796.438-2.28 1.547-.376.828-.438 1.766-.438 2.719 0 .89.109 2.062.593 2.969.516.968 1.532 1.25 2.11 1.25.656 0 1.75-.391 2.281-1.516.375-.828.438-1.766.438-2.703zm-1.391-.14c0 .89 0 1.702-.125 2.468C4-.485 3.516-.265 2.969-.265 2.516-.266 2-.438 1.78-1.579c-.125-.719-.125-1.813-.125-2.516 0-.765 0-1.562.094-2.203.219-1.422.922-1.406 1.219-1.406.406 0 .984.094 1.219 1.266.109.671.109 1.578.109 2.343zm0 0"/></svg><svg overflow="visible" x="248.206" y="53.537"><path d="M2.484-3.125c0-.344-.468-.766-.828-.766-.343 0-.828.422-.828.766 0 .36.485.766.828.766.36 0 .828-.407.828-.766zm0 0"/></svg><svg overflow="visible" x="254.184" y="53.537"><path d="M9.203-6.484c0-.922-.984-1.938-2.547-1.938H2.781c-.219 0-.562.125-.562.36 0 .14.312.265.547.265.156 0 .375.016.515.031.203.016.063-.078.063.063 0 .047-.016.078-.047.219L1.703-1.063c-.125.47.047.422-.89.422C.609-.64.28-.5.28-.28c0 .156.344.281.375.281l1.516-.031h.765c.266 0 .532.031.782.031.078 0 .422-.125.422-.375 0-.125-.297-.266-.516-.266-.453 0-.594.141-.594-.078 0-.062.031-.125.047-.203l.703-2.86h1.875c1.688 0 3.547-1.374 3.547-2.702zm-1.5-.297c0 .468-.187 1.406-.656 1.828-.594.547-1.172.61-1.688.61H3.891l.78-3.126c.11-.422-.062-.328.454-.328h1.156c.985 0 1.422.188 1.422 1.016zm0 0"/></svg><svg overflow="visible" x="263.533" y="53.537"><path d="M5.656-2.172c0-.984-.953-2.047-2.187-2.297v.266c.984-.328 1.86-1.297 1.86-2.234 0-.985-1.235-1.782-2.391-1.782-1.204 0-2.313.844-2.313 1.75 0 .39.469.75.813.75.375 0 .796-.39.796-.734 0-.594-.75-.734-.656-.734.234-.36.89-.47 1.313-.47.484 0 .953.126.953 1.204 0 .14.031.734-.281 1.266-.36.578-.626.578-.922.578a4.76 4.76 0 01-.47.046c-.093.016-.374.157-.374.266 0 .14.281.266.484.266h.531c.985 0 1.22.687 1.22 1.86 0 1.624-.626 1.843-1.157 1.843-.516 0-1.266-.172-1.531-.61.125.016.687-.375.687-.828 0-.437-.515-.796-.86-.796-.28 0-.874.296-.874.812C.297-.656 1.609.266 2.922.266c1.453 0 2.734-1.22 2.734-2.438zm0 0"/></svg><svg overflow="visible" x="280.067" y="53.537"><path d="M8.828-3.125c0-.125-.312-.36-.437-.36H5.078v-3.374c0-.141-.297-.375-.422-.375-.14 0-.453.234-.453.375v3.375H.906c-.125 0-.437.234-.437.359 0 .14.312.375.437.375h3.297V.625c0 .125.313.36.453.36.125 0 .422-.235.422-.36V-2.75h3.313c.125 0 .437-.234.437-.375zm0 0"/></svg><svg overflow="visible" x="290.567" y="48.826"><path d="M4.172-.156v-.469H3.64c-.829 0-.625.063-.625-.219v-4.64c0-.235-.235-.391-.563-.391-.578.578-1.203.531-1.75.531v.625c.406 0 1.11-.047 1.219-.11v3.985c0 .281.203.219-.625.219H.766v.64L2.469-.03l1.703.047zm0 0"/></svg><path d="M290.566 50.547h4.762" fill="none" stroke-width=".478" stroke="#000" stroke-miterlimit="10"/><svg overflow="visible" x="290.567" y="57.662"><path d="M4.234-1.844H3.75c-.047.344-.063.735-.172.813-.062.047-.562 0-.687 0H1.812c.563-.5.86-.735 1.36-1.125.625-.5 1.265-1.14 1.265-1.938 0-1-1.093-1.781-2.171-1.781-1.032 0-1.954.89-1.954 1.656 0 .422.579.625.657.625.203 0 .656-.297.656-.61 0-.14-.266-.593-.422-.593.188-.437.547-.469.938-.469.843 0 1.062.5 1.062 1.172 0 .735-.453 1.203-.719 1.5l-2.03 2C.374-.516.311-.39.311 0h3.844l.313-1.844zm0 0"/></svg><svg overflow="visible" x="299.181" y="53.537"><path d="M2.484-3.125c0-.344-.468-.766-.828-.766-.343 0-.828.422-.828.766 0 .36.485.766.828.766.36 0 .828-.407.828-.766zm0 0"/></svg><svg overflow="visible" x="305.159" y="53.537"><path d="M9.203-6.484c0-.922-.984-1.938-2.547-1.938H2.781c-.219 0-.562.125-.562.36 0 .14.312.265.547.265.156 0 .375.016.515.031.203.016.063-.078.063.063 0 .047-.016.078-.047.219L1.703-1.063c-.125.47.047.422-.89.422C.609-.64.28-.5.28-.28c0 .156.344.281.375.281l1.516-.031h.765c.266 0 .532.031.782.031.078 0 .422-.125.422-.375 0-.125-.297-.266-.516-.266-.453 0-.594.141-.594-.078 0-.062.031-.125.047-.203l.703-2.86h1.875c1.688 0 3.547-1.374 3.547-2.702zm-1.5-.297c0 .468-.187 1.406-.656 1.828-.594.547-1.172.61-1.688.61H3.891l.78-3.126c.11-.422-.062-.328.454-.328h1.156c.985 0 1.422.188 1.422 1.016zm0 0"/></svg><svg overflow="visible" x="314.508" y="53.537"><path d="M5.828-2.11v-.5H4.625v-5.296c0-.25-.188-.453-.375-.453-.11 0-.297.046-.39.187L.124-2.469v.5h3.188v.907c0 .421.171.421-.704.421h-.453v.672C2.844-.03 3.47-.03 3.97-.03s1.14 0 1.812.062V-.64h-.437c-.89 0-.719 0-.719-.421v-.907h1.203zm-2.25-.5H.953L3.72-6.843l-.344-.093v4.328zm0 0"/></svg><svg overflow="visible" x="320.488" y="20.2"><path d="M4.328-.125v-18.063H.594c-.203 0-.563.282-.563.485s.36.484.563.484h2.625V0h1.11zm0 0"/></svg><svg overflow="visible" x="320.488" y="30.445"><path d="M4.14-12.219H3.22V0h1.11v-12.219zm0 0"/></svg><svg overflow="visible" x="320.488" y="39.158"><path d="M4.14-12.219H3.22V0h1.11v-12.219zm0 0"/></svg><svg overflow="visible" x="320.488" y="55.38"><path d="M4.328-.125v-18.063h-1.11V-.983H.595c-.203 0-.563.296-.563.5 0 .203.36.484.563.484h3.734zm0 0"/></svg><svg overflow="visible" x="331.783" y="31.813"><path d="M8.828-4.281c0-.125-.312-.375-.437-.375H.906c-.125 0-.437.25-.437.375 0 .14.312.375.437.375h7.485c.125 0 .437-.235.437-.375zm0 2.328c0-.14-.312-.375-.437-.375H.906c-.125 0-.437.234-.437.375 0 .125.312.36.437.36h7.485c.125 0 .437-.235.437-.36zm0 0"/></svg><svg overflow="visible" x="344.405" y="20.2"><path d="M7.922-17.703c0-.203-.344-.485-.547-.485H3.641V0H4.75v-17.219h2.625c.203 0 .547-.281.547-.484zm0 0"/></svg><svg overflow="visible" x="344.405" y="30.445"><path d="M4.75-.125v-12.094H3.64V0h1.11zm0 0"/></svg><svg overflow="visible" x="344.405" y="39.158"><path d="M4.75-.125v-12.094H3.64V0h1.11zm0 0"/></svg><svg overflow="visible" x="344.405" y="55.38"><path d="M7.922-.484c0-.204-.344-.5-.547-.5H4.75v-17.203H3.64V0h3.735c.203 0 .547-.281.547-.484zm0 0"/></svg><svg overflow="visible" x="356.223" y="9.889"><path d="M5.688-3.953c0-.953-.063-1.922-.47-2.797-.562-1.156-1.734-1.469-2.234-1.469-.718 0-1.796.438-2.28 1.547-.376.828-.438 1.766-.438 2.719 0 .89.109 2.062.593 2.969.516.968 1.532 1.25 2.11 1.25.656 0 1.75-.391 2.281-1.516.375-.828.438-1.766.438-2.703zm-1.391-.14c0 .89 0 1.702-.125 2.468C4-.485 3.516-.265 2.969-.265 2.516-.266 2-.438 1.78-1.579c-.125-.719-.125-1.813-.125-2.516 0-.765 0-1.562.094-2.203.219-1.422.922-1.406 1.219-1.406.406 0 .984.094 1.219 1.266.109.671.109 1.578.109 2.343zm0 0"/></svg><svg overflow="visible" x="379.846" y="9.889"><path d="M5.203-.125v-.516h-.578c-1.078 0-.922 0-.922-.437v-6.703c0-.282-.187-.438-.578-.438-.766.797-1.672.766-2.266.766v.625c.438 0 1.282-.031 1.563-.172v5.922c0 .437.172.437-.906.437H.937v.672C1.547-.03 2.595-.03 3.079-.03c.469 0 1.516 0 2.125.062zm0 0"/></svg><svg overflow="visible" x="400.218" y="9.889"><path d="M5.688-3.953c0-.953-.063-1.922-.47-2.797-.562-1.156-1.734-1.469-2.234-1.469-.718 0-1.796.438-2.28 1.547-.376.828-.438 1.766-.438 2.719 0 .89.109 2.062.593 2.969.516.968 1.532 1.25 2.11 1.25.656 0 1.75-.391 2.281-1.516.375-.828.438-1.766.438-2.703zm-1.391-.14c0 .89 0 1.702-.125 2.468C4-.485 3.516-.265 2.969-.265 2.516-.266 2-.438 1.78-1.579c-.125-.719-.125-1.813-.125-2.516 0-.765 0-1.562.094-2.203.219-1.422.922-1.406 1.219-1.406.406 0 .984.094 1.219 1.266.109.671.109 1.578.109 2.343zm0 0"/></svg><svg overflow="visible" x="417.326" y="9.889"><path d="M5.688-3.953c0-.953-.063-1.922-.47-2.797-.562-1.156-1.734-1.469-2.234-1.469-.718 0-1.796.438-2.28 1.547-.376.828-.438 1.766-.438 2.719 0 .89.109 2.062.593 2.969.516.968 1.532 1.25 2.11 1.25.656 0 1.75-.391 2.281-1.516.375-.828.438-1.766.438-2.703zm-1.391-.14c0 .89 0 1.702-.125 2.468C4-.485 3.516-.265 2.969-.265 2.516-.266 2-.438 1.78-1.579c-.125-.719-.125-1.813-.125-2.516 0-.765 0-1.562.094-2.203.219-1.422.922-1.406 1.219-1.406.406 0 .984.094 1.219 1.266.109.671.109 1.578.109 2.343zm0 0"/></svg><svg overflow="visible" x="356.222" y="24.334"><path d="M5.688-3.953c0-.953-.063-1.922-.47-2.797-.562-1.156-1.734-1.469-2.234-1.469-.718 0-1.796.438-2.28 1.547-.376.828-.438 1.766-.438 2.719 0 .89.109 2.062.593 2.969.516.968 1.532 1.25 2.11 1.25.656 0 1.75-.391 2.281-1.516.375-.828.438-1.766.438-2.703zm-1.391-.14c0 .89 0 1.702-.125 2.468C4-.485 3.516-.265 2.969-.265 2.516-.266 2-.438 1.78-1.579c-.125-.719-.125-1.813-.125-2.516 0-.765 0-1.562.094-2.203.219-1.422.922-1.406 1.219-1.406.406 0 .984.094 1.219 1.266.109.671.109 1.578.109 2.343zm0 0"/></svg><svg overflow="visible" x="379.845" y="24.334"><path d="M5.688-3.953c0-.953-.063-1.922-.47-2.797-.562-1.156-1.734-1.469-2.234-1.469-.718 0-1.796.438-2.28 1.547-.376.828-.438 1.766-.438 2.719 0 .89.109 2.062.593 2.969.516.968 1.532 1.25 2.11 1.25.656 0 1.75-.391 2.281-1.516.375-.828.438-1.766.438-2.703zm-1.391-.14c0 .89 0 1.702-.125 2.468C4-.485 3.516-.265 2.969-.265 2.516-.266 2-.438 1.78-1.579c-.125-.719-.125-1.813-.125-2.516 0-.765 0-1.562.094-2.203.219-1.422.922-1.406 1.219-1.406.406 0 .984.094 1.219 1.266.109.671.109 1.578.109 2.343zm0 0"/></svg><svg overflow="visible" x="400.217" y="24.334"><path d="M5.203-.125v-.516h-.578c-1.078 0-.922 0-.922-.437v-6.703c0-.282-.187-.438-.578-.438-.766.797-1.672.766-2.266.766v.625c.438 0 1.282-.031 1.563-.172v5.922c0 .437.172.437-.906.437H.937v.672C1.547-.03 2.595-.03 3.079-.03c.469 0 1.516 0 2.125.062zm0 0"/></svg><svg overflow="visible" x="417.325" y="24.334"><path d="M5.688-3.953c0-.953-.063-1.922-.47-2.797-.562-1.156-1.734-1.469-2.234-1.469-.718 0-1.796.438-2.28 1.547-.376.828-.438 1.766-.438 2.719 0 .89.109 2.062.593 2.969.516.968 1.532 1.25 2.11 1.25.656 0 1.75-.391 2.281-1.516.375-.828.438-1.766.438-2.703zm-1.391-.14c0 .89 0 1.702-.125 2.468C4-.485 3.516-.265 2.969-.265 2.516-.266 2-.438 1.78-1.579c-.125-.719-.125-1.813-.125-2.516 0-.765 0-1.562.094-2.203.219-1.422.922-1.406 1.219-1.406.406 0 .984.094 1.219 1.266.109.671.109 1.578.109 2.343zm0 0"/></svg><svg overflow="visible" x="353.575" y="34.225"><path d="M6.25-2.25c0-.094-.281-.328-.375-.328H.641c-.094 0-.375.234-.375.328s.28.328.375.328h5.234c.094 0 .375-.234.375-.328zm0 0"/></svg><svg overflow="visible" x="360.086" y="34.225"><path d="M4.172-.156v-.469H3.64c-.829 0-.625.063-.625-.219v-4.64c0-.235-.235-.391-.563-.391-.578.578-1.203.531-1.75.531v.625c.406 0 1.11-.047 1.219-.11v3.985c0 .281.203.219-.625.219H.766v.64L2.469-.03l1.703.047zm0 0"/></svg><path d="M353.574 35.945h11.274" fill="none" stroke-width=".478" stroke="#000" stroke-miterlimit="10"/><svg overflow="visible" x="356.83" y="43.061"><path d="M4.234-1.844H3.75c-.047.344-.063.735-.172.813-.062.047-.562 0-.687 0H1.812c.563-.5.86-.735 1.36-1.125.625-.5 1.265-1.14 1.265-1.938 0-1-1.093-1.781-2.171-1.781-1.032 0-1.954.89-1.954 1.656 0 .422.579.625.657.625.203 0 .656-.297.656-.61 0-.14-.266-.593-.422-.593.188-.437.547-.469.938-.469.843 0 1.062.5 1.062 1.172 0 .735-.453 1.203-.719 1.5l-2.03 2C.374-.516.311-.39.311 0h3.844l.313-1.844zm0 0"/></svg><svg overflow="visible" x="379.849" y="38.936"><path d="M5.688-3.953c0-.953-.063-1.922-.47-2.797-.562-1.156-1.734-1.469-2.234-1.469-.718 0-1.796.438-2.28 1.547-.376.828-.438 1.766-.438 2.719 0 .89.109 2.062.593 2.969.516.968 1.532 1.25 2.11 1.25.656 0 1.75-.391 2.281-1.516.375-.828.438-1.766.438-2.703zm-1.391-.14c0 .89 0 1.702-.125 2.468C4-.485 3.516-.265 2.969-.265 2.516-.266 2-.438 1.78-1.579c-.125-.719-.125-1.813-.125-2.516 0-.765 0-1.562.094-2.203.219-1.422.922-1.406 1.219-1.406.406 0 .984.094 1.219 1.266.109.671.109 1.578.109 2.343zm0 0"/></svg><svg overflow="visible" x="400.827" y="34.225"><path d="M4.172-.156v-.469H3.64c-.829 0-.625.063-.625-.219v-4.64c0-.235-.235-.391-.563-.391-.578.578-1.203.531-1.75.531v.625c.406 0 1.11-.047 1.219-.11v3.985c0 .281.203.219-.625.219H.766v.64L2.469-.03l1.703.047zm0 0"/></svg><path d="M400.828 35.945h4.762" fill="none" stroke-width=".478" stroke="#000" stroke-miterlimit="10"/><svg overflow="visible" x="400.827" y="43.061"><path d="M4.234-1.844H3.75c-.047.344-.063.735-.172.813-.062.047-.562 0-.687 0H1.812c.563-.5.86-.735 1.36-1.125.625-.5 1.265-1.14 1.265-1.938 0-1-1.093-1.781-2.171-1.781-1.032 0-1.954.89-1.954 1.656 0 .422.579.625.657.625.203 0 .656-.297.656-.61 0-.14-.266-.593-.422-.593.188-.437.547-.469.938-.469.843 0 1.062.5 1.062 1.172 0 .735-.453 1.203-.719 1.5l-2.03 2C.374-.516.311-.39.311 0h3.844l.313-1.844zm0 0"/></svg><svg overflow="visible" x="417.335" y="38.936"><path d="M5.688-3.953c0-.953-.063-1.922-.47-2.797-.562-1.156-1.734-1.469-2.234-1.469-.718 0-1.796.438-2.28 1.547-.376.828-.438 1.766-.438 2.719 0 .89.109 2.062.593 2.969.516.968 1.532 1.25 2.11 1.25.656 0 1.75-.391 2.281-1.516.375-.828.438-1.766.438-2.703zm-1.391-.14c0 .89 0 1.702-.125 2.468C4-.485 3.516-.265 2.969-.265 2.516-.266 2-.438 1.78-1.579c-.125-.719-.125-1.813-.125-2.516 0-.765 0-1.562.094-2.203.219-1.422.922-1.406 1.219-1.406.406 0 .984.094 1.219 1.266.109.671.109 1.578.109 2.343zm0 0"/></svg><svg overflow="visible" x="356.222" y="53.537"><path d="M5.688-3.953c0-.953-.063-1.922-.47-2.797-.562-1.156-1.734-1.469-2.234-1.469-.718 0-1.796.438-2.28 1.547-.376.828-.438 1.766-.438 2.719 0 .89.109 2.062.593 2.969.516.968 1.532 1.25 2.11 1.25.656 0 1.75-.391 2.281-1.516.375-.828.438-1.766.438-2.703zm-1.391-.14c0 .89 0 1.702-.125 2.468C4-.485 3.516-.265 2.969-.265 2.516-.266 2-.438 1.78-1.579c-.125-.719-.125-1.813-.125-2.516 0-.765 0-1.562.094-2.203.219-1.422.922-1.406 1.219-1.406.406 0 .984.094 1.219 1.266.109.671.109 1.578.109 2.343zm0 0"/></svg><svg overflow="visible" x="377.201" y="48.826"><path d="M6.25-2.25c0-.094-.281-.328-.375-.328H.641c-.094 0-.375.234-.375.328s.28.328.375.328h5.234c.094 0 .375-.234.375-.328zm0 0"/></svg><svg overflow="visible" x="383.712" y="48.826"><path d="M4.172-.156v-.469H3.64c-.829 0-.625.063-.625-.219v-4.64c0-.235-.235-.391-.563-.391-.578.578-1.203.531-1.75.531v.625c.406 0 1.11-.047 1.219-.11v3.985c0 .281.203.219-.625.219H.766v.64L2.469-.03l1.703.047zm0 0"/></svg><path d="M377.2 50.547h11.273" fill="none" stroke-width=".478" stroke="#000" stroke-miterlimit="10"/><svg overflow="visible" x="380.457" y="57.662"><path d="M4.234-1.844H3.75c-.047.344-.063.735-.172.813-.062.047-.562 0-.687 0H1.812c.563-.5.86-.735 1.36-1.125.625-.5 1.265-1.14 1.265-1.938 0-1-1.093-1.781-2.171-1.781-1.032 0-1.954.89-1.954 1.656 0 .422.579.625.657.625.203 0 .656-.297.656-.61 0-.14-.266-.593-.422-.593.188-.437.547-.469.938-.469.843 0 1.062.5 1.062 1.172 0 .735-.453 1.203-.719 1.5l-2.03 2C.374-.516.311-.39.311 0h3.844l.313-1.844zm0 0"/></svg><svg overflow="visible" x="400.219" y="53.537"><path d="M5.688-3.953c0-.953-.063-1.922-.47-2.797-.562-1.156-1.734-1.469-2.234-1.469-.718 0-1.796.438-2.28 1.547-.376.828-.438 1.766-.438 2.719 0 .89.109 2.062.593 2.969.516.968 1.532 1.25 2.11 1.25.656 0 1.75-.391 2.281-1.516.375-.828.438-1.766.438-2.703zm-1.391-.14c0 .89 0 1.702-.125 2.468C4-.485 3.516-.265 2.969-.265 2.516-.266 2-.438 1.78-1.579c-.125-.719-.125-1.813-.125-2.516 0-.765 0-1.562.094-2.203.219-1.422.922-1.406 1.219-1.406.406 0 .984.094 1.219 1.266.109.671.109 1.578.109 2.343zm0 0"/></svg><svg overflow="visible" x="417.943" y="48.826"><path d="M4.172-.156v-.469H3.64c-.829 0-.625.063-.625-.219v-4.64c0-.235-.235-.391-.563-.391-.578.578-1.203.531-1.75.531v.625c.406 0 1.11-.047 1.219-.11v3.985c0 .281.203.219-.625.219H.766v.64L2.469-.03l1.703.047zm0 0"/></svg><path d="M417.941 50.547h4.762" fill="none" stroke-width=".478" stroke="#000" stroke-miterlimit="10"/><svg overflow="visible" x="417.943" y="57.662"><path d="M4.234-1.844H3.75c-.047.344-.063.735-.172.813-.062.047-.562 0-.687 0H1.812c.563-.5.86-.735 1.36-1.125.625-.5 1.265-1.14 1.265-1.938 0-1-1.093-1.781-2.171-1.781-1.032 0-1.954.89-1.954 1.656 0 .422.579.625.657.625.203 0 .656-.297.656-.61 0-.14-.266-.593-.422-.593.188-.437.547-.469.938-.469.843 0 1.062.5 1.062 1.172 0 .735-.453 1.203-.719 1.5l-2.03 2C.374-.516.311-.39.311 0h3.844l.313-1.844zm0 0"/></svg><svg overflow="visible" x="423.9" y="20.2"><path d="M4.328-.125v-18.063H.594c-.203 0-.563.282-.563.485s.36.484.563.484h2.625V0h1.11zm0 0"/></svg><svg overflow="visible" x="423.9" y="30.445"><path d="M4.14-12.219H3.22V0h1.11v-12.219zm0 0"/></svg><svg overflow="visible" x="423.9" y="39.158"><path d="M4.14-12.219H3.22V0h1.11v-12.219zm0 0"/></svg><svg overflow="visible" x="423.9" y="55.38"><path d="M4.328-.125v-18.063h-1.11V-.983H.595c-.203 0-.563.296-.563.5 0 .203.36.484.563.484h3.734zm0 0"/></svg><svg overflow="visible" x="434.531" y="31.813"><path d="M2.484-3.125c0-.344-.468-.766-.828-.766-.343 0-.828.422-.828.766 0 .36.485.766.828.766.36 0 .828-.407.828-.766zm0 0"/></svg><svg overflow="visible" x="440.512" y="20.356"><path d="M7.922-17.703c0-.203-.344-.485-.547-.485H3.641V0H4.75v-17.219h2.625c.203 0 .547-.281.547-.484zm0 0"/></svg><g><svg overflow="visible" x="440.512" y="30.524"><path d="M4.75-.125v-12.094H3.64V0h1.11zm0 0"/></svg></g><g><svg overflow="visible" x="440.512" y="39.079"><path d="M4.75-.125v-12.094H3.64V0h1.11zm0 0"/></svg></g><g><svg overflow="visible" x="440.512" y="55.225"><path d="M7.922-.484c0-.204-.344-.5-.547-.5H4.75v-17.203H3.64V0h3.735c.203 0 .547-.281.547-.484zm0 0"/></svg></g><g><svg overflow="visible" x="448.486" y="10.044"><path d="M9.203-6.484c0-.922-.984-1.938-2.547-1.938H2.781c-.219 0-.562.125-.562.36 0 .14.312.265.547.265.156 0 .375.016.515.031.203.016.063-.078.063.063 0 .047-.016.078-.047.219L1.703-1.063c-.125.47.047.422-.89.422C.609-.64.28-.5.28-.28c0 .156.344.281.375.281l1.516-.031h.765c.266 0 .532.031.782.031.078 0 .422-.125.422-.375 0-.125-.297-.266-.516-.266-.453 0-.594.141-.594-.078 0-.062.031-.125.047-.203l.703-2.86h1.875c1.688 0 3.547-1.374 3.547-2.702zm-1.5-.297c0 .468-.187 1.406-.656 1.828-.594.547-1.172.61-1.688.61H3.891l.78-3.126c.11-.422-.062-.328.454-.328h1.156c.985 0 1.422.188 1.422 1.016zm0 0"/></svg></g><g><svg overflow="visible" x="456.161" y="12.997"><path d="M4.172-.156v-.469H3.64c-.829 0-.625.063-.625-.219v-4.64c0-.235-.235-.391-.563-.391-.578.578-1.203.531-1.75.531v.625c.406 0 1.11-.047 1.219-.11v3.985c0 .281.203.219-.625.219H.766v.64L2.469-.03l1.703.047zm0 0"/></svg></g><g><svg overflow="visible" x="448.486" y="24.49"><path d="M9.203-6.484c0-.922-.984-1.938-2.547-1.938H2.781c-.219 0-.562.125-.562.36 0 .14.312.265.547.265.156 0 .375.016.515.031.203.016.063-.078.063.063 0 .047-.016.078-.047.219L1.703-1.063c-.125.47.047.422-.89.422C.609-.64.28-.5.28-.28c0 .156.344.281.375.281l1.516-.031h.765c.266 0 .532.031.782.031.078 0 .422-.125.422-.375 0-.125-.297-.266-.516-.266-.453 0-.594.141-.594-.078 0-.062.031-.125.047-.203l.703-2.86h1.875c1.688 0 3.547-1.374 3.547-2.702zm-1.5-.297c0 .468-.187 1.406-.656 1.828-.594.547-1.172.61-1.688.61H3.891l.78-3.126c.11-.422-.062-.328.454-.328h1.156c.985 0 1.422.188 1.422 1.016zm0 0"/></svg></g><g><svg overflow="visible" x="456.161" y="27.443"><path d="M4.234-1.844H3.75c-.047.344-.063.735-.172.813-.062.047-.562 0-.687 0H1.812c.563-.5.86-.735 1.36-1.125.625-.5 1.265-1.14 1.265-1.938 0-1-1.093-1.781-2.171-1.781-1.032 0-1.954.89-1.954 1.656 0 .422.579.625.657.625.203 0 .656-.297.656-.61 0-.14-.266-.593-.422-.593.188-.437.547-.469.938-.469.843 0 1.062.5 1.062 1.172 0 .735-.453 1.203-.719 1.5l-2.03 2C.374-.516.311-.39.311 0h3.844l.313-1.844zm0 0"/></svg></g><g><svg overflow="visible" x="448.486" y="38.936"><path d="M9.203-6.484c0-.922-.984-1.938-2.547-1.938H2.781c-.219 0-.562.125-.562.36 0 .14.312.265.547.265.156 0 .375.016.515.031.203.016.063-.078.063.063 0 .047-.016.078-.047.219L1.703-1.063c-.125.47.047.422-.89.422C.609-.64.28-.5.28-.28c0 .156.344.281.375.281l1.516-.031h.765c.266 0 .532.031.782.031.078 0 .422-.125.422-.375 0-.125-.297-.266-.516-.266-.453 0-.594.141-.594-.078 0-.062.031-.125.047-.203l.703-2.86h1.875c1.688 0 3.547-1.374 3.547-2.702zm-1.5-.297c0 .468-.187 1.406-.656 1.828-.594.547-1.172.61-1.688.61H3.891l.78-3.126c.11-.422-.062-.328.454-.328h1.156c.985 0 1.422.188 1.422 1.016zm0 0"/></svg></g><g><svg overflow="visible" x="456.161" y="41.889"><path d="M4.516-1.61c0-.656-.75-1.468-1.672-1.656v.313c.89-.313 1.406-1.094 1.406-1.61 0-.656-.969-1.312-1.89-1.312-.938 0-1.86.61-1.86 1.281 0 .282.39.594.64.594.266 0 .641-.344.641-.578 0-.25-.375-.578-.297-.578.094-.11.532-.157.844-.157.375 0 .688.016.688.75 0 .344-.047.625-.266.891-.281.313-.36.281-.781.313-.203.015-.235.015-.266.015l.14.281s-.437-.109-.437-.015c0 .125.282.281.422.281h.453c.656 0 .922.297.922 1.188 0 1.046-.39 1.187-.89 1.187-.329 0-.922-.031-1.094-.266.078-.015.375-.453.375-.625 0-.265-.407-.625-.672-.625-.235 0-.672.297-.672.641C.25-.5 1.328.172 2.344.172 3.5.172 4.516-.766 4.516-1.61zm0 0"/></svg></g><g><svg overflow="visible" x="448.486" y="53.382"><path d="M9.203-6.484c0-.922-.984-1.938-2.547-1.938H2.781c-.219 0-.562.125-.562.36 0 .14.312.265.547.265.156 0 .375.016.515.031.203.016.063-.078.063.063 0 .047-.016.078-.047.219L1.703-1.063c-.125.47.047.422-.89.422C.609-.64.28-.5.28-.28c0 .156.344.281.375.281l1.516-.031h.765c.266 0 .532.031.782.031.078 0 .422-.125.422-.375 0-.125-.297-.266-.516-.266-.453 0-.594.141-.594-.078 0-.062.031-.125.047-.203l.703-2.86h1.875c1.688 0 3.547-1.374 3.547-2.702zm-1.5-.297c0 .468-.187 1.406-.656 1.828-.594.547-1.172.61-1.688.61H3.891l.78-3.126c.11-.422-.062-.328.454-.328h1.156c.985 0 1.422.188 1.422 1.016zm0 0"/></svg></g><g><svg overflow="visible" x="456.161" y="56.335"><path d="M4.64-1.531V-2h-.937v-3.563c0-.187-.203-.406-.39-.406-.094 0-.282.063-.36.172L.125-1.844v.469h2.453v.531c0 .281.203.219-.469.219h-.437v.64L3.14-.03l1.468.047v-.641h-.437c-.672 0-.469.063-.469-.219v-.531h.938zM2.845-2H.969l2.015-2.781-.343-.125V-2zm0 0"/></svg></g><g><svg overflow="visible" x="461.421" y="20.356"><path d="M4.328-.125v-18.063H.594c-.203 0-.563.282-.563.485s.36.484.563.484h2.625V0h1.11zm0 0"/></svg></g><g><svg overflow="visible" x="461.421" y="30.524"><path d="M4.14-12.219H3.22V0h1.11v-12.219zm0 0"/></svg></g><g><svg overflow="visible" x="461.421" y="39.079"><path d="M4.14-12.219H3.22V0h1.11v-12.219zm0 0"/></svg></g><g><svg overflow="visible" x="461.421" y="55.225"><path d="M4.328-.125v-18.063h-1.11V-.983H.595c-.203 0-.563.296-.563.5 0 .203.36.484.563.484h3.734zm0 0"/></svg></g></svg>