<svg xmlns="http://www.w3.org/2000/svg" xmlns:xlink="http://www.w3.org/1999/xlink" width="268" height="81px" viewBox="0 0 201 61"><svg overflow="visible" x="-2.901" y="20.356"><path d="M7.922-17.703c0-.203-.344-.485-.547-.485H3.641V0H4.75v-17.219h2.625c.203 0 .547-.281.547-.484zm0 0"/></svg><svg overflow="visible" x="-2.901" y="30.524"><path d="M4.75-.125v-12.094H3.64V0h1.11zm0 0"/></svg><svg overflow="visible" x="-2.901" y="39.079"><path d="M4.75-.125v-12.094H3.64V0h1.11zm0 0"/></svg><svg overflow="visible" x="-2.901" y="55.225"><path d="M7.922-.484c0-.204-.344-.5-.547-.5H4.75v-17.203H3.64V0h3.735c.203 0 .547-.281.547-.484zm0 0"/></svg><svg overflow="visible" x="5.073" y="10.044"><path d="M9.203-6.484c0-.922-.984-1.938-2.547-1.938H2.781c-.219 0-.562.125-.562.36 0 .14.312.265.547.265.156 0 .375.016.515.031.203.016.063-.078.063.063 0 .047-.016.078-.047.219L1.703-1.063c-.125.47.047.422-.89.422C.609-.64.28-.5.28-.28c0 .156.344.281.375.281l1.516-.031h.765c.266 0 .532.031.782.031.078 0 .422-.125.422-.375 0-.125-.297-.266-.516-.266-.453 0-.594.141-.594-.078 0-.062.031-.125.047-.203l.703-2.86h1.875c1.688 0 3.547-1.374 3.547-2.702zm-1.5-.297c0 .468-.187 1.406-.656 1.828-.594.547-1.172.61-1.688.61H3.891l.78-3.126c.11-.422-.062-.328.454-.328h1.156c.985 0 1.422.188 1.422 1.016zm0 0"/></svg><svg overflow="visible" x="12.748" y="12.997"><path d="M4.172-.156v-.469H3.64c-.829 0-.625.063-.625-.219v-4.64c0-.235-.235-.391-.563-.391-.578.578-1.203.531-1.75.531v.625c.406 0 1.11-.047 1.219-.11v3.985c0 .281.203.219-.625.219H.766v.64L2.469-.03l1.703.047zm0 0"/></svg><svg overflow="visible" x="5.073" y="24.49"><path d="M9.203-6.484c0-.922-.984-1.938-2.547-1.938H2.781c-.219 0-.562.125-.562.36 0 .14.312.265.547.265.156 0 .375.016.515.031.203.016.063-.078.063.063 0 .047-.016.078-.047.219L1.703-1.063c-.125.47.047.422-.89.422C.609-.64.28-.5.28-.28c0 .156.344.281.375.281l1.516-.031h.765c.266 0 .532.031.782.031.078 0 .422-.125.422-.375 0-.125-.297-.266-.516-.266-.453 0-.594.141-.594-.078 0-.062.031-.125.047-.203l.703-2.86h1.875c1.688 0 3.547-1.374 3.547-2.702zm-1.5-.297c0 .468-.187 1.406-.656 1.828-.594.547-1.172.61-1.688.61H3.891l.78-3.126c.11-.422-.062-.328.454-.328h1.156c.985 0 1.422.188 1.422 1.016zm0 0"/></svg><svg overflow="visible" x="12.748" y="27.443"><path d="M4.234-1.844H3.75c-.047.344-.063.735-.172.813-.062.047-.562 0-.687 0H1.812c.563-.5.86-.735 1.36-1.125.625-.5 1.265-1.14 1.265-1.938 0-1-1.093-1.781-2.171-1.781-1.032 0-1.954.89-1.954 1.656 0 .422.579.625.657.625.203 0 .656-.297.656-.61 0-.14-.266-.593-.422-.593.188-.437.547-.469.938-.469.843 0 1.062.5 1.062 1.172 0 .735-.453 1.203-.719 1.5l-2.03 2C.374-.516.311-.39.311 0h3.844l.313-1.844zm0 0"/></svg><svg overflow="visible" x="5.073" y="38.936"><path d="M9.203-6.484c0-.922-.984-1.938-2.547-1.938H2.781c-.219 0-.562.125-.562.36 0 .14.312.265.547.265.156 0 .375.016.515.031.203.016.063-.078.063.063 0 .047-.016.078-.047.219L1.703-1.063c-.125.47.047.422-.89.422C.609-.64.28-.5.28-.28c0 .156.344.281.375.281l1.516-.031h.765c.266 0 .532.031.782.031.078 0 .422-.125.422-.375 0-.125-.297-.266-.516-.266-.453 0-.594.141-.594-.078 0-.062.031-.125.047-.203l.703-2.86h1.875c1.688 0 3.547-1.374 3.547-2.702zm-1.5-.297c0 .468-.187 1.406-.656 1.828-.594.547-1.172.61-1.688.61H3.891l.78-3.126c.11-.422-.062-.328.454-.328h1.156c.985 0 1.422.188 1.422 1.016zm0 0"/></svg><svg overflow="visible" x="12.748" y="41.889"><path d="M4.516-1.61c0-.656-.75-1.468-1.672-1.656v.313c.89-.313 1.406-1.094 1.406-1.61 0-.656-.969-1.312-1.89-1.312-.938 0-1.86.61-1.86 1.281 0 .282.39.594.64.594.266 0 .641-.344.641-.578 0-.25-.375-.578-.297-.578.094-.11.532-.157.844-.157.375 0 .688.016.688.75 0 .344-.047.625-.266.891-.281.313-.36.281-.781.313-.203.015-.235.015-.266.015l.14.281s-.437-.109-.437-.015c0 .125.282.281.422.281h.453c.656 0 .922.297.922 1.188 0 1.046-.39 1.187-.89 1.187-.329 0-.922-.031-1.094-.266.078-.015.375-.453.375-.625 0-.265-.407-.625-.672-.625-.235 0-.672.297-.672.641C.25-.5 1.328.172 2.344.172 3.5.172 4.516-.766 4.516-1.61zm0 0"/></svg><svg overflow="visible" x="5.073" y="53.382"><path d="M9.203-6.484c0-.922-.984-1.938-2.547-1.938H2.781c-.219 0-.562.125-.562.36 0 .14.312.265.547.265.156 0 .375.016.515.031.203.016.063-.078.063.063 0 .047-.016.078-.047.219L1.703-1.063c-.125.47.047.422-.89.422C.609-.64.28-.5.28-.28c0 .156.344.281.375.281l1.516-.031h.765c.266 0 .532.031.782.031.078 0 .422-.125.422-.375 0-.125-.297-.266-.516-.266-.453 0-.594.141-.594-.078 0-.062.031-.125.047-.203l.703-2.86h1.875c1.688 0 3.547-1.374 3.547-2.702zm-1.5-.297c0 .468-.187 1.406-.656 1.828-.594.547-1.172.61-1.688.61H3.891l.78-3.126c.11-.422-.062-.328.454-.328h1.156c.985 0 1.422.188 1.422 1.016zm0 0"/></svg><svg overflow="visible" x="12.748" y="56.335"><path d="M4.64-1.531V-2h-.937v-3.563c0-.187-.203-.406-.39-.406-.094 0-.282.063-.36.172L.125-1.844v.469h2.453v.531c0 .281.203.219-.469.219h-.437v.64L3.14-.03l1.468.047v-.641h-.437c-.672 0-.469.063-.469-.219v-.531h.938zM2.845-2H.969l2.015-2.781-.343-.125V-2zm0 0"/></svg><svg overflow="visible" x="18.008" y="20.356"><path d="M4.328-.125v-18.063H.594c-.203 0-.563.282-.563.485s.36.484.563.484h2.625V0h1.11zm0 0"/></svg><svg overflow="visible" x="18.008" y="30.524"><path d="M4.14-12.219H3.22V0h1.11v-12.219zm0 0"/></svg><svg overflow="visible" x="18.008" y="39.079"><path d="M4.14-12.219H3.22V0h1.11v-12.219zm0 0"/></svg><svg overflow="visible" x="18.008" y="55.225"><path d="M4.328-.125v-18.063h-1.11V-.983H.595c-.203 0-.563.296-.563.5 0 .203.36.484.563.484h3.734zm0 0"/></svg><svg overflow="visible" x="25.982" y="59.389"><path d="M7.266-5.938c0-.046-.235-.265-.313-.265a.52.52 0 00-.297.14l-.453.47c.047.077-.562-.61-1.594-.61C2.58-6.203.375-4.25.375-2.36.375-.984 1.656.17 3.156.17c.453 0 1.406-.14 2.266-.859.656-.562.906-1.421.906-1.484 0-.11-.312-.265-.344-.265-.109 0-.343.203-.359.296C5.281-1 4.312-.453 3.297-.453c-.89 0-1.656-.313-1.656-1.64 0-.25-.016-1.454.953-2.5.578-.657 1.312-1 2.11-1 .968 0 1.327.546 1.327 1.484 0 .234-.031.296-.031.343 0 .11.328.266.36.266.14 0 .343-.172.39-.328zm0 0"/></svg><svg overflow="visible" x="33.271" y="59.389"><path d="M4.984-1.36c0-.109-.312-.265-.343-.265-.11 0-.329.188-.391.422-.094.406-.047.734-.39.734-.22 0-.079-.031-.079-.25 0-.14.078-.453.125-.656l.188-.766c.078-.312.093-.359.172-.625.046-.218.14-.625.14-.656 0-.187-.36-.437-.484-.437-.14 0-.547.265-.594.5l.344-.11c-.172-.281-.594-.547-1-.547-1.078 0-2.375 1.344-2.375 2.547 0 .813.766 1.547 1.484 1.547.453 0 .985-.297 1.078-.39.063.156.75.39.97.39.296 0 .655-.219.796-.484.188-.328.36-.922.36-.953zm-1.78-1.53c0 .03-.017.093-.017.124l-.406 1.563c-.047.234-.172.297-.36.453-.077.063-.265.281-.624.281-.313 0-.39-.062-.39-.656 0-.438.171-1.25.359-1.578.39-.672.671-.75.906-.75.594 0 .531.469.531.562zm0 0"/></svg><svg overflow="visible" x="38.46" y="59.389"><path d="M3.39-3.656c0-.11-.312-.266-.453-.266h-.562l.281-1.094c0-.03.031-.078.031-.109 0-.156-.328-.422-.5-.422-.218 0-.546.297-.609.516-.047.203.063-.188-.281 1.11H.625c-.172 0-.484.155-.484.343 0 .11.312.265.468.265h.532L.687-1.484c-.046.203-.125.5-.125.609 0 .5.641.953 1.11.953.937 0 1.672-1.328 1.672-1.437 0-.11-.328-.266-.344-.266-.11 0-.313.172-.39.313-.235.53-.454.843-.907.843-.172 0-.094.047-.094-.25 0-.078.047-.265.063-.344l.562-2.25h.688c.156 0 .469-.156.469-.343zm0 0"/></svg><svg overflow="visible" x="42.075" y="59.389"><path d="M8.297-1.36c0-.109-.328-.265-.344-.265-.125 0-.344.203-.375.297-.187.672-.344.86-.672.86-.187 0 0 .046 0-.141 0-.188.032-.297.188-.672.093-.266.437-1.14.437-1.61 0-.14-.062-.609-.375-.843-.14-.11-.515-.282-.922-.282-.75 0-1.359.547-1.625.907L4.97-3c-.063-.719-.875-1.016-1.297-1.016-.703 0-1.313.485-1.563.813l.36.11c-.063-.579-.766-.923-1.11-.923-.359 0-.703.313-.812.5-.188.313-.36.907-.36.938 0 .11.329.281.344.281.125 0 .344-.187.39-.422.141-.484.079-.734.407-.734.219 0 .078.015.078.25 0 .156-.078.469-.14.687l-.188.75L.812-.687c-.03.109-.078.312-.078.343 0 .188.36.422.485.422.156 0 .437-.14.468-.219.047-.078.188-.468.22-.64l.187-.75.14-.563c.094-.344.047-.297.282-.64.234-.329.484-.72 1.125-.72.484 0 .28.267.28.423 0 .203-.03.312-.14.781l-.36 1.406c-.03.172-.108.453-.108.5 0 .188.359.422.484.422.156 0 .437-.14.469-.219.046-.078.187-.468.218-.64l.188-.75c.047-.188.11-.375.14-.563.094-.36.032-.265.204-.515.265-.407.53-.844 1.187-.844.469 0 .281.219.281.422 0 .5-.359 1.437-.484 1.781-.094.234-.125.313-.125.453 0 .438.578.875 1 .875.844 0 1.422-1.312 1.422-1.437zm0 0"/></svg><svg overflow="visible" x="50.561" y="59.389"><path d="M5.469-1.36c0-.109-.328-.265-.36-.265-.109 0-.328.188-.39.422-.094.39-.047.734-.39.734-.22 0-.079-.031-.079-.25 0-.14.078-.453.125-.656l.188-.766.187-.734c.063-.219.156-.578.156-.625 0-.172-.343-.422-.5-.422-.297 0-.578.39-.64.656l-.438 1.75c-.031.172-.047.375-.062.391-.172.25-.344.656-.875.656-.579 0-.36-.39-.36-.531 0-.5.235-1.094.469-1.703.063-.172.11-.297.11-.422 0-.438-.579-.89-1-.89-.844 0-1.423 1.312-1.423 1.437 0 .11.329.281.344.281.125 0 .344-.203.36-.297.203-.687.359-.86.687-.86.14 0 0-.077 0 .126s-.062.375-.14.562C.984-1.609.984-1.359.984-1.14c0 .141.047.641.36.922.25.188.718.297 1.015.297.532 0 .954-.328 1-.36.063.188.844.36.938.36.281 0 .64-.203.797-.484a4.99 4.99 0 00.375-.953zm0 0"/></svg><svg overflow="visible" x="56.209" y="59.389"><path d="M2.61-5.86c0-.03-.25-.265-.344-.265-.172 0-.86.063-1.079.078-.062.016-.39.172-.39.36 0 .109.328.265.422.265.406 0 .203-.094.203-.031a.47.47 0 01-.047.187L.344-1.125c-.031.078-.031.172-.031.25 0 .547.687.953 1.093.953.188 0 .594-.11.813-.484.172-.313.36-.922.36-.953 0-.11-.329-.266-.345-.266-.125 0-.343.203-.39.36-.11.421-.047.796-.407.796-.234 0-.078-.047-.078-.25 0-.094.016-.25.047-.344L2.578-5.75c-.062.125-.047.016-.047.016zm0 0"/></svg><svg overflow="visible" x="59.23" y="59.389"><path d="M2.61-5.86c0-.03-.25-.265-.344-.265-.172 0-.86.063-1.079.078-.062.016-.39.172-.39.36 0 .109.328.265.422.265.406 0 .203-.094.203-.031a.47.47 0 01-.047.187L.344-1.125c-.031.078-.031.172-.031.25 0 .547.687.953 1.093.953.188 0 .594-.11.813-.484.172-.313.36-.922.36-.953 0-.11-.329-.266-.345-.266-.125 0-.343.203-.39.36-.11.421-.047.796-.407.796-.234 0-.078-.047-.078-.25 0-.094.016-.25.047-.344L2.578-5.75c-.062.125-.047.016-.047.016zm0 0"/></svg><svg overflow="visible" x="62.252" y="59.389"><path d="M5.781-4.719c0 .344-.093.766-.484 1.063-.344.265-.719.36-1.297.36h-.828l.5-2c.062-.235-.14-.095.047-.126h.531c.781 0 1.531-.156 1.531.703zm1.532 3.75c0-.015-.22-.265-.344-.265-.11 0-.328.218-.36.296-.125.375-.218.547-.578.547-.203 0-.156.079-.156-.375 0-.218.047-.656.078-.875.031-.234.031-.312.031-.39 0-.11-.062-.485-.296-.735-.157-.171-.532-.328-.72-.406v.328c1-.234 2.095-1 2.095-1.75C7.063-5.312 6-6.03 4.796-6.03H2.219c-.156 0-.485.156-.485.343 0 .11.313.266.485.266l.14-.031s.032.031.172.047c.188.015-.015-.125-.015-.032l.359.11s-.36-.063-.39.062L1.374-.812c-.063.28.125.187-.531.187-.14 0-.453.172-.453.344C.39-.203.656 0 .734 0c.157 0 .344-.031.516-.031h1.094c.172 0 .375.031.547.031.046 0 .39-.156.39-.328 0-.125-.297-.297-.484-.297-.14 0-.172 0-.313-.016-.187-.015.016.125.016.032l-.063.125s.063-.172.094-.297l.485-1.969H4c.719 0 .813.203.813.594 0 .11-.079.39-.11.594-.11.375-.14.5-.14.656C4.563-.25 5.39.172 6 .172c.781 0 1.313-.984 1.313-1.14zm0 0"/></svg><svg overflow="visible" x="69.591" y="59.389"><path d="M4.656-2.39c0-.922-.906-1.626-1.718-1.626-1.25 0-2.626 1.329-2.626 2.47 0 .843.813 1.624 1.735 1.624 1.187 0 2.61-1.266 2.61-2.469zm-1.11-.297c0 .203-.03.921-.405 1.5-.313.5-.672.718-1.094.718-.406 0-.625-.11-.625-.765 0-.344.094-1.047.422-1.532.36-.515.703-.687 1.078-.687.453 0 .625.14.625.765zm0 0"/></svg><svg overflow="visible" x="74.311" y="59.389"><path d="M8.297-1.36c0-.109-.328-.265-.344-.265-.125 0-.344.203-.375.297-.187.672-.344.86-.672.86-.187 0 0 .046 0-.141 0-.188.032-.297.188-.672.093-.266.437-1.14.437-1.61 0-.14-.062-.609-.375-.843-.14-.11-.515-.282-.922-.282-.75 0-1.359.547-1.625.907L4.97-3c-.063-.719-.875-1.016-1.297-1.016-.703 0-1.313.485-1.563.813l.36.11c-.063-.579-.766-.923-1.11-.923-.359 0-.703.313-.812.5-.188.313-.36.907-.36.938 0 .11.329.281.344.281.125 0 .344-.187.39-.422.141-.484.079-.734.407-.734.219 0 .078.015.078.25 0 .156-.078.469-.14.687l-.188.75L.812-.687c-.03.109-.078.312-.078.343 0 .188.36.422.485.422.156 0 .437-.14.468-.219.047-.078.188-.468.22-.64l.187-.75.14-.563c.094-.344.047-.297.282-.64.234-.329.484-.72 1.125-.72.484 0 .28.267.28.423 0 .203-.03.312-.14.781l-.36 1.406c-.03.172-.108.453-.108.5 0 .188.359.422.484.422.156 0 .437-.14.469-.219.046-.078.187-.468.218-.64l.188-.75c.047-.188.11-.375.14-.563.094-.36.032-.265.204-.515.265-.407.53-.844 1.187-.844.469 0 .281.219.281.422 0 .5-.359 1.437-.484 1.781-.094.234-.125.313-.125.453 0 .438.578.875 1 .875.844 0 1.422-1.312 1.422-1.437zm0 0"/></svg><svg overflow="visible" x="86.616" y="31.813"><path d="M11.422-3.125c0-.063-.25-.25-.313-.281-.859-.235-1.468-.688-2.109-1.25-.531-.453-.969-1.016-1.172-1.422-.094-.219-.375-.406-.469-.406-.125 0-.437.25-.437.375 0 .03.016.078 0 .062.375.688.734 1.188.922 1.39H.954c-.126 0-.438.25-.438.376 0 .14.312.375.437.375h7.688a6.905 6.905 0 001.328.781c-.235.094-.89.453-1.328.797H.953c-.125 0-.437.234-.437.375 0 .125.312.36.437.36h6.89c-.187.202-.546.702-.921 1.405.016-.015 0 .016 0 .063 0 .125.312.36.437.36.094 0 .375-.172.47-.391.202-.406.64-.969 1.171-1.438.64-.562 1.25-1.015 2.11-1.234.062-.031.312-.219.312-.297zm0 0"/></svg><svg overflow="visible" x="101.892" y="19.056"><path d="M7.922-17.703c0-.203-.344-.485-.547-.485H3.641V0H4.75v-17.219h2.625c.203 0 .547-.281.547-.484zm0 0"/></svg><svg overflow="visible" x="101.892" y="29.867"><path d="M4.75-.125v-12.094H3.64V0h1.11zm0 0"/></svg><svg overflow="visible" x="101.892" y="39.736"><path d="M4.75-.125v-12.094H3.64V0h1.11zm0 0"/></svg><svg overflow="visible" x="101.892" y="56.524"><path d="M7.922-.484c0-.204-.344-.5-.547-.5H4.75v-17.203H3.64V0h3.735c.203 0 .547-.281.547-.484zm0 0"/></svg><svg overflow="visible" x="132.278" y="8.745"><path d="M9.203-6.484c0-.922-.984-1.938-2.547-1.938H2.781c-.219 0-.562.125-.562.36 0 .14.312.265.547.265.156 0 .375.016.515.031.203.016.063-.078.063.063 0 .047-.016.078-.047.219L1.703-1.063c-.125.47.047.422-.89.422C.609-.64.28-.5.28-.28c0 .156.344.281.375.281l1.516-.031h.765c.266 0 .532.031.782.031.078 0 .422-.125.422-.375 0-.125-.297-.266-.516-.266-.453 0-.594.141-.594-.078 0-.062.031-.125.047-.203l.703-2.86h1.875c1.688 0 3.547-1.374 3.547-2.702zm-1.5-.297c0 .468-.187 1.406-.656 1.828-.594.547-1.172.61-1.688.61H3.891l.78-3.126c.11-.422-.062-.328.454-.328h1.156c.985 0 1.422.188 1.422 1.016zm0 0"/></svg><svg overflow="visible" x="139.953" y="11.698"><path d="M4.234-1.844H3.75c-.047.344-.063.735-.172.813-.062.047-.562 0-.687 0H1.812c.563-.5.86-.735 1.36-1.125.625-.5 1.265-1.14 1.265-1.938 0-1-1.093-1.781-2.171-1.781-1.032 0-1.954.89-1.954 1.656 0 .422.579.625.657.625.203 0 .656-.297.656-.61 0-.14-.266-.593-.422-.593.188-.437.547-.469.938-.469.843 0 1.062.5 1.062 1.172 0 .735-.453 1.203-.719 1.5l-2.03 2C.374-.516.311-.39.311 0h3.844l.313-1.844zm0 0"/></svg><svg overflow="visible" x="109.867" y="24.556"><path d="M9.203-6.484c0-.922-.984-1.938-2.547-1.938H2.781c-.219 0-.562.125-.562.36 0 .14.312.265.547.265.156 0 .375.016.515.031.203.016.063-.078.063.063 0 .047-.016.078-.047.219L1.703-1.063c-.125.47.047.422-.89.422C.609-.64.28-.5.28-.28c0 .156.344.281.375.281l1.516-.031h.765c.266 0 .532.031.782.031.078 0 .422-.125.422-.375 0-.125-.297-.266-.516-.266-.453 0-.594.141-.594-.078 0-.062.031-.125.047-.203l.703-2.86h1.875c1.688 0 3.547-1.374 3.547-2.702zm-1.5-.297c0 .468-.187 1.406-.656 1.828-.594.547-1.172.61-1.688.61H3.891l.78-3.126c.11-.422-.062-.328.454-.328h1.156c.985 0 1.422.188 1.422 1.016zm0 0"/></svg><svg overflow="visible" x="117.542" y="27.509"><path d="M4.234-1.844H3.75c-.047.344-.063.735-.172.813-.062.047-.562 0-.687 0H1.812c.563-.5.86-.735 1.36-1.125.625-.5 1.265-1.14 1.265-1.938 0-1-1.093-1.781-2.171-1.781-1.032 0-1.954.89-1.954 1.656 0 .422.579.625.657.625.203 0 .656-.297.656-.61 0-.14-.266-.593-.422-.593.188-.437.547-.469.938-.469.843 0 1.062.5 1.062 1.172 0 .735-.453 1.203-.719 1.5l-2.03 2C.374-.516.311-.39.311 0h3.844l.313-1.844zm0 0"/></svg><svg overflow="visible" x="125.459" y="24.556"><path d="M8.828-3.125c0-.125-.312-.36-.437-.36H5.078v-3.374c0-.141-.297-.375-.422-.375-.14 0-.453.234-.453.375v3.375H.906c-.125 0-.437.234-.437.359 0 .14.312.375.437.375h3.297V.625c0 .125.313.36.453.36.125 0 .422-.235.422-.36V-2.75h3.313c.125 0 .437-.234.437-.375zm0 0"/></svg><svg overflow="visible" x="138.612" y="18.794"><path d="M7.188-4.578c0-.703-.891-1.453-2.032-1.453H2.22c-.172 0-.485.156-.485.343 0 .11.313.266.5.266.125 0 .157 0 .313.016.172.015-.031-.125-.031-.032l.359.11s-.36-.063-.39.062L1.374-.844c-.078.328.125.219-.531.219-.156 0-.453.172-.453.344l.343.125S.594 0 .734 0c.235 0 .844-.031 1.079-.031h.578c.171.015.375.031.546.031.047 0 .376-.156.376-.344 0-.11-.313-.281-.47-.281l.141.281s-.312-.281-.468-.297c-.188-.015.015.125.015.032l-.062.125s.062-.172.11-.297l.437-1.813h1.359c1.406 0 2.813-1.062 2.813-1.984zM5.921-4.75c0 .266-.047.813-.469 1.188-.297.265-.625.374-1.219.374H3.125l.547-2.109c.062-.25-.14-.125.219-.125h.968c.782 0 1.063.078 1.063.672zm0 0"/></svg><svg overflow="visible" x="144.696" y="20.861"><path d="M3.781-1.219c0-.5-.625-1.093-1.312-1.25v.36c.719-.235 1.11-.86 1.11-1.204 0-.484-.813-1.03-1.563-1.03-.735 0-1.532.484-1.532 1.03 0 .282.438.532.547.532.172 0 .532-.313.532-.516 0-.14-.266-.484-.11-.469.031-.03.422 0 .547 0 .438 0 .547.047.547.454 0 .343-.031.718-.656.75-.172 0-.188.015-.344.015-.063.016-.344.188-.344.281 0 .11.266.282.375.282h.39c.563 0 .72.171.72.75 0 .625-.172.765-.704.765-.062 0-.64.047-.703-.015-.14.03.125-.344.125-.485 0-.219-.36-.547-.562-.547-.188 0-.563.313-.563.563C.281-.328 1.187.125 2 .125c.984 0 1.781-.766 1.781-1.344zm0 0"/></svg><svg overflow="visible" x="149.265" y="18.794"><path d="M6.25-2.25c0-.094-.281-.328-.375-.328H.641c-.094 0-.375.234-.375.328s.28.328.375.328h5.234c.094 0 .375-.234.375-.328zm0 0"/></svg><svg overflow="visible" x="155.776" y="18.794"><path d="M7.188-4.578c0-.703-.891-1.453-2.032-1.453H2.22c-.172 0-.485.156-.485.343 0 .11.313.266.5.266.125 0 .157 0 .313.016.172.015-.031-.125-.031-.032l.359.11s-.36-.063-.39.062L1.374-.844c-.078.328.125.219-.531.219-.156 0-.453.172-.453.344l.343.125S.594 0 .734 0c.235 0 .844-.031 1.079-.031h.578c.171.015.375.031.546.031.047 0 .376-.156.376-.344 0-.11-.313-.281-.47-.281l.141.281s-.312-.281-.468-.297c-.188-.015.015.125.015.032l-.062.125s.062-.172.11-.297l.437-1.813h1.359c1.406 0 2.813-1.062 2.813-1.984zM5.921-4.75c0 .266-.047.813-.469 1.188-.297.265-.625.374-1.219.374H3.125l.547-2.109c.062-.25-.14-.125.219-.125h.968c.782 0 1.063.078 1.063.672zm0 0"/></svg><svg overflow="visible" x="161.86" y="20.861"><path d="M3.516-.172v-.453h-.5c-.641 0-.438.11-.438-.063v-3.296c0-.188-.219-.36-.5-.36-.484.438-1 .375-1.125.375H.656v.625h.297c.14 0 .531-.015.672-.078v2.735c0 .171.203.062-.422.062H.687v.64C1.235-.03 1.766-.03 2.11-.03c.344 0 .875 0 1.407.047zm0 0"/></svg><path d="M138.613 21.566h27.817" fill="none" stroke-width=".478" stroke="#000" stroke-miterlimit="10"/><svg overflow="visible" x="146.424" y="28.681"><path d="M4.516-1.875c0-1.063-1.063-2-2.032-2-.671 0-1.25.594-1.437.984h.422c0-.687-.016-1.203.312-1.703.282-.453.594-.718 1.125-.718.25 0 .438.015.422 0 .125-.016-.265.28-.265.53 0 .204.359.548.609.548s.61-.329.61-.563c0-.484-.563-1.078-1.391-1.078C1.687-5.875.25-4.609.25-2.812.25-.642 1.469.171 2.39.171c1.032 0 2.126-.938 2.126-2.047zm-1.22 0c0 .484.048.734-.171 1.047-.203.297-.313.406-.734.406-.422 0-.532-.078-.563-.14-.344-.672-.344-.985-.344-1.485 0-.812.282-1.281.954-1.281.39 0 .5.11.703.422.203.312.156.547.156 1.031zm0 0"/></svg><svg overflow="visible" x="151.186" y="28.681"><path d="M1.813-2.25c0-.25-.407-.61-.641-.61-.25 0-.656.36-.656.61 0 .234.406.594.656.594.234 0 .64-.36.64-.594zm0 0"/></svg><svg overflow="visible" x="153.512" y="28.681"><path d="M5.078-3.531c0-.235-.422-.39-.562-.39H1.875c-.234 0-.656.062-1.094.468-.25.219-.61.765-.61.828 0 .11.313.266.345.266.093 0 .25-.063.296-.141.422-.578.797-.547.985-.547h.484L1.5-.516c-.031.125-.031.141-.031.188 0 .234.422.422.484.422.313 0 .578-.453.61-.578l.484-2.563h1.39c.079 0 .641-.156.641-.484zm0 0"/></svg><svg overflow="visible" x="109.867" y="40.236"><path d="M9.203-6.484c0-.922-.984-1.938-2.547-1.938H2.781c-.219 0-.562.125-.562.36 0 .14.312.265.547.265.156 0 .375.016.515.031.203.016.063-.078.063.063 0 .047-.016.078-.047.219L1.703-1.063c-.125.47.047.422-.89.422C.609-.64.28-.5.28-.28c0 .156.344.281.375.281l1.516-.031h.765c.266 0 .532.031.782.031.078 0 .422-.125.422-.375 0-.125-.297-.266-.516-.266-.453 0-.594.141-.594-.078 0-.062.031-.125.047-.203l.703-2.86h1.875c1.688 0 3.547-1.374 3.547-2.702zm-1.5-.297c0 .468-.187 1.406-.656 1.828-.594.547-1.172.61-1.688.61H3.891l.78-3.126c.11-.422-.062-.328.454-.328h1.156c.985 0 1.422.188 1.422 1.016zm0 0"/></svg><svg overflow="visible" x="117.542" y="43.189"><path d="M4.516-1.61c0-.656-.75-1.468-1.672-1.656v.313c.89-.313 1.406-1.094 1.406-1.61 0-.656-.969-1.312-1.89-1.312-.938 0-1.86.61-1.86 1.281 0 .282.39.594.64.594.266 0 .641-.344.641-.578 0-.25-.375-.578-.297-.578.094-.11.532-.157.844-.157.375 0 .688.016.688.75 0 .344-.047.625-.266.891-.281.313-.36.281-.781.313-.203.015-.235.015-.266.015l.14.281s-.437-.109-.437-.015c0 .125.282.281.422.281h.453c.656 0 .922.297.922 1.188 0 1.046-.39 1.187-.89 1.187-.329 0-.922-.031-1.094-.266.078-.015.375-.453.375-.625 0-.265-.407-.625-.672-.625-.235 0-.672.297-.672.641C.25-.5 1.328.172 2.344.172 3.5.172 4.516-.766 4.516-1.61zm0 0"/></svg><svg overflow="visible" x="125.459" y="40.236"><path d="M8.828-3.125c0-.125-.312-.36-.437-.36H.906c-.125 0-.437.235-.437.36 0 .14.312.375.437.375h7.485c.125 0 .437-.234.437-.375zm0 0"/></svg><svg overflow="visible" x="138.612" y="34.605"><path d="M7.188-4.578c0-.703-.891-1.453-2.032-1.453H2.22c-.172 0-.485.156-.485.343 0 .11.313.266.5.266.125 0 .157 0 .313.016.172.015-.031-.125-.031-.032l.359.11s-.36-.063-.39.062L1.374-.844c-.078.328.125.219-.531.219-.156 0-.453.172-.453.344l.343.125S.594 0 .734 0c.235 0 .844-.031 1.079-.031h.578c.171.015.375.031.546.031.047 0 .376-.156.376-.344 0-.11-.313-.281-.47-.281l.141.281s-.312-.281-.468-.297c-.188-.015.015.125.015.032l-.062.125s.062-.172.11-.297l.437-1.813h1.359c1.406 0 2.813-1.062 2.813-1.984zM5.921-4.75c0 .266-.047.813-.469 1.188-.297.265-.625.374-1.219.374H3.125l.547-2.109c.062-.25-.14-.125.219-.125h.968c.782 0 1.063.078 1.063.672zm0 0"/></svg><svg overflow="visible" x="144.696" y="36.673"><path d="M3.89-1.156v-.438h-.75v-2.453c0-.14-.203-.36-.359-.36a.457.457 0 00-.328.141L.172-1.469v.5h2v.281c0 .188.203.063-.328.063h-.407V0l1.22-.031L3.874 0v-.625h-.406c-.531 0-.328.125-.328-.063v-.28h.75zm-1.468-.438H1.047l1.516-1.86-.344-.124v1.984zm0 0"/></svg><svg overflow="visible" x="149.265" y="34.605"><path d="M6.25-2.25c0-.094-.281-.328-.375-.328H.641c-.094 0-.375.234-.375.328s.28.328.375.328h5.234c.094 0 .375-.234.375-.328zm0 0"/></svg><svg overflow="visible" x="155.776" y="34.605"><path d="M7.188-4.578c0-.703-.891-1.453-2.032-1.453H2.22c-.172 0-.485.156-.485.343 0 .11.313.266.5.266.125 0 .157 0 .313.016.172.015-.031-.125-.031-.032l.359.11s-.36-.063-.39.062L1.374-.844c-.078.328.125.219-.531.219-.156 0-.453.172-.453.344l.343.125S.594 0 .734 0c.235 0 .844-.031 1.079-.031h.578c.171.015.375.031.546.031.047 0 .376-.156.376-.344 0-.11-.313-.281-.47-.281l.141.281s-.312-.281-.468-.297c-.188-.015.015.125.015.032l-.062.125s.062-.172.11-.297l.437-1.813h1.359c1.406 0 2.813-1.062 2.813-1.984zM5.921-4.75c0 .266-.047.813-.469 1.188-.297.265-.625.374-1.219.374H3.125l.547-2.109c.062-.25-.14-.125.219-.125h.968c.782 0 1.063.078 1.063.672zm0 0"/></svg><g><svg overflow="visible" x="161.86" y="36.673"><path d="M3.531-1.516h-.437c-.047.297-.047.547-.14.594-.048.047-.407-.015-.5-.015H1.28l.14.312c.391-.297.845-.625 1.204-.875.531-.36 1.094-.844 1.094-1.469 0-.765-.922-1.375-1.781-1.375-.797 0-1.594.64-1.594 1.235 0 .312.469.546.547.546.156 0 .546-.296.546-.53 0-.22-.343-.516-.234-.5 0 0 .219-.126.61-.126.593 0 .875.172.875.75 0 .5-.297.766-.75 1.156L.468-.577a.397.397 0 00-.124.219V0H3.5l.25-1.516zm0 0"/></svg></g><path d="M138.613 37.246h27.817" fill="none" stroke-width=".478" stroke="#000" stroke-miterlimit="10"/><g><svg overflow="visible" x="146.424" y="44.36"><path d="M4.516-1.875c0-1.063-1.063-2-2.032-2-.671 0-1.25.594-1.437.984h.422c0-.687-.016-1.203.312-1.703.282-.453.594-.718 1.125-.718.25 0 .438.015.422 0 .125-.016-.265.28-.265.53 0 .204.359.548.609.548s.61-.329.61-.563c0-.484-.563-1.078-1.391-1.078C1.687-5.875.25-4.609.25-2.812.25-.642 1.469.171 2.39.171c1.032 0 2.126-.938 2.126-2.047zm-1.22 0c0 .484.048.734-.171 1.047-.203.297-.313.406-.734.406-.422 0-.532-.078-.563-.14-.344-.672-.344-.985-.344-1.485 0-.812.282-1.281.954-1.281.39 0 .5.11.703.422.203.312.156.547.156 1.031zm0 0"/></svg><svg overflow="visible" x="151.186" y="44.36"><path d="M1.813-2.25c0-.25-.407-.61-.641-.61-.25 0-.656.36-.656.61 0 .234.406.594.656.594.234 0 .64-.36.64-.594zm0 0"/></svg><svg overflow="visible" x="153.512" y="44.36"><path d="M5.078-3.531c0-.235-.422-.39-.562-.39H1.875c-.234 0-.656.062-1.094.468-.25.219-.61.765-.61.828 0 .11.313.266.345.266.093 0 .25-.063.296-.141.422-.578.797-.547.985-.547h.484L1.5-.516c-.031.125-.031.141-.031.188 0 .234.422.422.484.422.313 0 .578-.453.61-.578l.484-2.563h1.39c.079 0 .641-.156.641-.484zm0 0"/></svg></g><g><svg overflow="visible" x="132.278" y="54.681"><path d="M9.203-6.484c0-.922-.984-1.938-2.547-1.938H2.781c-.219 0-.562.125-.562.36 0 .14.312.265.547.265.156 0 .375.016.515.031.203.016.063-.078.063.063 0 .047-.016.078-.047.219L1.703-1.063c-.125.47.047.422-.89.422C.609-.64.28-.5.28-.28c0 .156.344.281.375.281l1.516-.031h.765c.266 0 .532.031.782.031.078 0 .422-.125.422-.375 0-.125-.297-.266-.516-.266-.453 0-.594.141-.594-.078 0-.062.031-.125.047-.203l.703-2.86h1.875c1.688 0 3.547-1.374 3.547-2.702zm-1.5-.297c0 .468-.187 1.406-.656 1.828-.594.547-1.172.61-1.688.61H3.891l.78-3.126c.11-.422-.062-.328.454-.328h1.156c.985 0 1.422.188 1.422 1.016zm0 0"/></svg></g><g><svg overflow="visible" x="139.953" y="57.635"><path d="M4.516-1.61c0-.656-.75-1.468-1.672-1.656v.313c.89-.313 1.406-1.094 1.406-1.61 0-.656-.969-1.312-1.89-1.312-.938 0-1.86.61-1.86 1.281 0 .282.39.594.64.594.266 0 .641-.344.641-.578 0-.25-.375-.578-.297-.578.094-.11.532-.157.844-.157.375 0 .688.016.688.75 0 .344-.047.625-.266.891-.281.313-.36.281-.781.313-.203.015-.235.015-.266.015l.14.281s-.437-.109-.437-.015c0 .125.282.281.422.281h.453c.656 0 .922.297.922 1.188 0 1.046-.39 1.187-.89 1.187-.329 0-.922-.031-1.094-.266.078-.015.375-.453.375-.625 0-.265-.407-.625-.672-.625-.235 0-.672.297-.672.641C.25-.5 1.328.172 2.344.172 3.5.172 4.516-.766 4.516-1.61zm0 0"/></svg></g><g><svg overflow="visible" x="167.624" y="19.056"><path d="M4.328-.125v-18.063H.594c-.203 0-.563.282-.563.485s.36.484.563.484h2.625V0h1.11zm0 0"/></svg></g><g><svg overflow="visible" x="167.624" y="29.867"><path d="M4.14-12.219H3.22V0h1.11v-12.219zm0 0"/></svg></g><g><svg overflow="visible" x="167.624" y="39.736"><path d="M4.14-12.219H3.22V0h1.11v-12.219zm0 0"/></svg></g><g><svg overflow="visible" x="167.624" y="56.524"><path d="M4.328-.125v-18.063h-1.11V-.983H.595c-.203 0-.563.296-.563.5 0 .203.36.484.563.484h3.734zm0 0"/></svg></g><g><svg overflow="visible" x="175.598" y="60.689"><path d="M6.234-2.016c0-.609-.703-1.28-1.437-1.359v.39c.86-.171 1.906-1 1.906-1.765 0-.672-.812-1.36-1.734-1.36H2.266c-.141 0-.454.204-.454.36 0 .11.313.313.454.313.218 0 .25-.204.25-.079 0 .063 0 .079-.032.188L1.36-.828c-.078.281.079.172-.437.172-.172 0-.485.187-.485.344C.438-.189.75 0 .891 0h2.89c1.235 0 2.453-1.14 2.453-2.016zM5.563-4.78c0 .687-.5 1.312-1.516 1.312h-.984l.468-1.875c.063-.297-.078-.093.188-.093h1.14c.907 0 .704.562.704.656zm-.485 2.703c0 .828-.562 1.422-1.5 1.422H2.375c-.078 0-.156 0-.016.015-.015.063-.015.032.016-.078l.531-2.14h1.438c.906 0 .734.64.734.78zm0 0"/></svg><svg overflow="visible" x="181.916" y="60.689"><path d="M4.406-1.031c0-.063-.312-.375-.375-.375-.047 0-.203.078-.281.172-.453.546-.969.703-1.422.703-.578 0-.515-.39-.515-.766 0-.187.062-.547.078-.61h.328c.328 0 2.094-.202 2.094-1.25 0-.421-.563-.921-1.141-.921-.906 0-2.39.984-2.39 2.469 0 .765.655 1.687 1.53 1.687 1.22 0 2.094-.984 2.094-1.11zm-.875-2.125c0 .812-1.078.625-1.39.625h-.094c.234-.844.765-.922 1.125-.922.297 0 .36-.047.36.297zm1.188-2.61c0-.171-.344-.453-.469-.453-.11 0-.094.438-.094.438l-.281-.266-1.297 1.203c-.031.016-.156.219-.156.282 0 .046.281.359.375.359a.868.868 0 00.265-.11L4.47-5.327a.674.674 0 00.25-.438zm0 0"/></svg><svg overflow="visible" x="186.05" y="60.689"><path d="M4.094-1.406c0-.11-.313-.297-.36-.297-.125 0-.343.219-.375.328-.14.406-.359.5-.75.5-.171 0-.328-.063-.562-.14-.281-.11-.375-.11-.14-.11l.296-.313.938-.843c.484-.5.5-.5.64-.672.156-.203.531-.735.531-.828 0-.11-.296-.297-.375-.297-.093 0-.265.062-.312.14-.266.438-.203.454-.375.454s-.156-.079-.281-.22c-.219-.233-.5-.374-.703-.374C1.609-4.078 1-3.125 1-2.906c0 .094.313.297.36.297.109 0 .327-.204.359-.282.172-.421.422-.218.468-.218.172 0 .36.062.485.109.312.125.375.125.14.125.016-.031-.453.39-.843.719-.266.25-.547.5-.797.765C.719-.906.328-.297.328-.203c0 .094.313.281.36.281.109 0 .265-.062.328-.172.109-.172.218-.422.515-.422.14 0 .078 0 .297.235.156.187.453.36.703.36.86 0 1.563-1.235 1.563-1.485zm0 0"/></svg><svg overflow="visible" x="189.724" y="60.689"><path d="M3.172-1.39c0-.11-.313-.298-.36-.298-.124 0-.343.22-.39.36-.156.547-.219.797-.578.797-.157 0 .031.078.031-.078 0-.188.047-.344.172-.688l.562-1.453c.063-.188.094-.266.094-.438 0-.468-.547-.89-.89-.89-.797 0-1.36 1.36-1.36 1.469 0 .109.328.312.375.312.14 0 .344-.219.375-.375.125-.437.188-.781.594-.781.14 0-.031-.094-.031.062 0 .188-.063.344-.172.641l-.578 1.563c-.032.078-.094.234-.094.39 0 .375.484.875.906.875.797 0 1.344-1.375 1.344-1.469zm.14-3.891c0-.297-.437-.578-.593-.578-.281 0-.766.453-.766.734 0 .25.406.578.594.578.281 0 .765-.437.765-.734zm0 0"/></svg><svg overflow="visible" x="192.477" y="60.689"><path d="M4.406-1.031c0-.063-.312-.375-.375-.375-.047 0-.203.078-.281.172-.453.546-.969.703-1.422.703-.578 0-.515-.39-.515-.766 0-.187.062-.547.078-.61h.328c.328 0 2.094-.202 2.094-1.25 0-.421-.563-.921-1.141-.921-.906 0-2.39.984-2.39 2.469 0 .765.655 1.687 1.53 1.687 1.22 0 2.094-.984 2.094-1.11zm-.875-2.125c0 .812-1.078.625-1.39.625h-.094c.234-.844.765-.922 1.125-.922.297 0 .36-.047.36.297zm0 0"/></svg><svg overflow="visible" x="196.612" y="60.689"><path d="M4.516-3.313c0-.484-.813-.765-1.094-.765-.485 0-.985.328-.969.312.031.141-.453-.312-.86-.312-.28 0-.624.219-.796.516-.156.28-.344.921-.344.953 0 .109.328.312.375.312.14 0 .344-.219.39-.422.126-.5.079-.734.36-.734.234 0 .031.094.031.172 0 .11-.015.25-.046.36L.953-.47C.922-.39.922-.375.922-.344c0 .14.312.422.453.422.234 0 .531-.375.563-.515l.515-2.047c.016-.125.203-.97.969-.97.078 0 .156-.062.078-.108.125-.047-.11.359-.11.437 0 .234.391.469.5.469.157 0 .626-.313.626-.656zm0 0"/></svg></g></svg>