<svg xmlns="http://www.w3.org/2000/svg" xmlns:xlink="http://www.w3.org/1999/xlink" width="672" height="84" viewBox="0 0 504 63"><svg overflow="visible" x="-3.369" y="24.52"><path d="M7.922-17.703c0-.203-.344-.485-.547-.485H3.641V0H4.75v-17.219h2.625c.203 0 .547-.281.547-.484zm0 0"/></svg><svg overflow="visible" x="-3.369" y="34.688"><path d="M4.75-.125v-12.094H3.64V0h1.11zm0 0"/></svg><svg overflow="visible" x="-3.369" y="43.244"><path d="M4.75-.125v-12.094H3.64V0h1.11zm0 0"/></svg><svg overflow="visible" x="-3.369" y="59.389"><path d="M7.922-.484c0-.204-.344-.5-.547-.5H4.75v-17.203H3.64V0h3.735c.203 0 .547-.281.547-.484zm0 0"/></svg><svg overflow="visible" x="9.255" y="14.209"><path d="M5.203-.125v-.516h-.578c-1.078 0-.922 0-.922-.437v-6.703c0-.282-.187-.438-.578-.438-.766.797-1.672.766-2.266.766v.625c.438 0 1.282-.031 1.563-.172v5.922c0 .437.172.437-.906.437H.937v.672C1.547-.03 2.595-.03 3.079-.03c.469 0 1.516 0 2.125.062zm0 0"/></svg><svg overflow="visible" x="34.492" y="14.209"><path d="M5.688-3.953c0-.953-.063-1.922-.47-2.797-.562-1.156-1.734-1.469-2.234-1.469-.718 0-1.796.438-2.28 1.547-.376.828-.438 1.766-.438 2.719 0 .89.109 2.062.593 2.969.516.968 1.532 1.25 2.11 1.25.656 0 1.75-.391 2.281-1.516.375-.828.438-1.766.438-2.703zm-1.391-.14c0 .89 0 1.702-.125 2.468C4-.485 3.516-.265 2.969-.265 2.516-.266 2-.438 1.78-1.579c-.125-.719-.125-1.813-.125-2.516 0-.765 0-1.562.094-2.203.219-1.422.922-1.406 1.219-1.406.406 0 .984.094 1.219 1.266.109.671.109 1.578.109 2.343zm0 0"/></svg><svg overflow="visible" x="59.73" y="14.209"><path d="M5.688-3.953c0-.953-.063-1.922-.47-2.797-.562-1.156-1.734-1.469-2.234-1.469-.718 0-1.796.438-2.28 1.547-.376.828-.438 1.766-.438 2.719 0 .89.109 2.062.593 2.969.516.968 1.532 1.25 2.11 1.25.656 0 1.75-.391 2.281-1.516.375-.828.438-1.766.438-2.703zm-1.391-.14c0 .89 0 1.702-.125 2.468C4-.485 3.516-.265 2.969-.265 2.516-.266 2-.438 1.78-1.579c-.125-.719-.125-1.813-.125-2.516 0-.765 0-1.562.094-2.203.219-1.422.922-1.406 1.219-1.406.406 0 .984.094 1.219 1.266.109.671.109 1.578.109 2.343zm0 0"/></svg><svg overflow="visible" x="80.329" y="14.209"><path d="M5.688-3.953c0-.953-.063-1.922-.47-2.797-.562-1.156-1.734-1.469-2.234-1.469-.718 0-1.796.438-2.28 1.547-.376.828-.438 1.766-.438 2.719 0 .89.109 2.062.593 2.969.516.968 1.532 1.25 2.11 1.25.656 0 1.75-.391 2.281-1.516.375-.828.438-1.766.438-2.703zm-1.391-.14c0 .89 0 1.702-.125 2.468C4-.485 3.516-.265 2.969-.265 2.516-.266 2-.438 1.78-1.579c-.125-.719-.125-1.813-.125-2.516 0-.765 0-1.562.094-2.203.219-1.422.922-1.406 1.219-1.406.406 0 .984.094 1.219 1.266.109.671.109 1.578.109 2.343zm0 0"/></svg><svg overflow="visible" x="4.605" y="28.655"><path d="M8.828-3.125c0-.125-.312-.36-.437-.36H.906c-.125 0-.437.235-.437.36 0 .14.312.375.437.375h7.485c.125 0 .437-.234.437-.375zm0 0"/></svg><svg overflow="visible" x="13.906" y="28.655"><path d="M5.656-2.172c0-.984-.953-2.047-2.187-2.297v.266c.984-.328 1.86-1.297 1.86-2.234 0-.985-1.235-1.782-2.391-1.782-1.204 0-2.313.844-2.313 1.75 0 .39.469.75.813.75.375 0 .796-.39.796-.734 0-.594-.75-.734-.656-.734.234-.36.89-.47 1.313-.47.484 0 .953.126.953 1.204 0 .14.031.734-.281 1.266-.36.578-.626.578-.922.578a4.76 4.76 0 01-.47.046c-.093.016-.374.157-.374.266 0 .14.281.266.484.266h.531c.985 0 1.22.687 1.22 1.86 0 1.624-.626 1.843-1.157 1.843-.516 0-1.266-.172-1.531-.61.125.016.687-.375.687-.828 0-.437-.515-.796-.86-.796-.28 0-.874.296-.874.812C.297-.656 1.609.266 2.922.266c1.453 0 2.734-1.22 2.734-2.438zm0 0"/></svg><svg overflow="visible" x="34.493" y="28.655"><path d="M5.656-2.172c0-.984-.953-2.047-2.187-2.297v.266c.984-.328 1.86-1.297 1.86-2.234 0-.985-1.235-1.782-2.391-1.782-1.204 0-2.313.844-2.313 1.75 0 .39.469.75.813.75.375 0 .796-.39.796-.734 0-.594-.75-.734-.656-.734.234-.36.89-.47 1.313-.47.484 0 .953.126.953 1.204 0 .14.031.734-.281 1.266-.36.578-.626.578-.922.578a4.76 4.76 0 01-.47.046c-.093.016-.374.157-.374.266 0 .14.281.266.484.266h.531c.985 0 1.22.687 1.22 1.86 0 1.624-.626 1.843-1.157 1.843-.516 0-1.266-.172-1.531-.61.125.016.687-.375.687-.828 0-.437-.515-.796-.86-.796-.28 0-.874.296-.874.812C.297-.656 1.609.266 2.922.266c1.453 0 2.734-1.22 2.734-2.438zm0 0"/></svg><svg overflow="visible" x="59.73" y="28.655"><path d="M5.688-3.953c0-.953-.063-1.922-.47-2.797-.562-1.156-1.734-1.469-2.234-1.469-.718 0-1.796.438-2.28 1.547-.376.828-.438 1.766-.438 2.719 0 .89.109 2.062.593 2.969.516.968 1.532 1.25 2.11 1.25.656 0 1.75-.391 2.281-1.516.375-.828.438-1.766.438-2.703zm-1.391-.14c0 .89 0 1.702-.125 2.468C4-.485 3.516-.265 2.969-.265 2.516-.266 2-.438 1.78-1.579c-.125-.719-.125-1.813-.125-2.516 0-.765 0-1.562.094-2.203.219-1.422.922-1.406 1.219-1.406.406 0 .984.094 1.219 1.266.109.671.109 1.578.109 2.343zm0 0"/></svg><svg overflow="visible" x="80.317" y="28.655"><path d="M5.688-3.953c0-.953-.063-1.922-.47-2.797-.562-1.156-1.734-1.469-2.234-1.469-.718 0-1.796.438-2.28 1.547-.376.828-.438 1.766-.438 2.719 0 .89.109 2.062.593 2.969.516.968 1.532 1.25 2.11 1.25.656 0 1.75-.391 2.281-1.516.375-.828.438-1.766.438-2.703zm-1.391-.14c0 .89 0 1.702-.125 2.468C4-.485 3.516-.265 2.969-.265 2.516-.266 2-.438 1.78-1.579c-.125-.719-.125-1.813-.125-2.516 0-.765 0-1.562.094-2.203.219-1.422.922-1.406 1.219-1.406.406 0 .984.094 1.219 1.266.109.671.109 1.578.109 2.343zm0 0"/></svg><svg overflow="visible" x="9.255" y="43.101"><path d="M5.656-2.172c0-.984-.953-2.047-2.187-2.297v.266c.984-.328 1.86-1.297 1.86-2.234 0-.985-1.235-1.782-2.391-1.782-1.204 0-2.313.844-2.313 1.75 0 .39.469.75.813.75.375 0 .796-.39.796-.734 0-.594-.75-.734-.656-.734.234-.36.89-.47 1.313-.47.484 0 .953.126.953 1.204 0 .14.031.734-.281 1.266-.36.578-.626.578-.922.578a4.76 4.76 0 01-.47.046c-.093.016-.374.157-.374.266 0 .14.281.266.484.266h.531c.985 0 1.22.687 1.22 1.86 0 1.624-.626 1.843-1.157 1.843-.516 0-1.266-.172-1.531-.61.125.016.687-.375.687-.828 0-.437-.515-.796-.86-.796-.28 0-.874.296-.874.812C.297-.656 1.609.266 2.922.266c1.453 0 2.734-1.22 2.734-2.438zm0 0"/></svg><svg overflow="visible" x="29.842" y="43.101"><path d="M8.828-3.125c0-.125-.312-.36-.437-.36H.906c-.125 0-.437.235-.437.36 0 .14.312.375.437.375h7.485c.125 0 .437-.234.437-.375zm0 0"/></svg><svg overflow="visible" x="39.143" y="43.101"><path d="M5.656-2.563c0-1.53-1.25-2.796-2.578-2.796-.812 0-1.469.734-1.703 1.312h.39v-.297c0-3.015 1.298-3.312 1.907-3.312.281 0 .64.031.75.203.125 0-.563.14-.563.672 0 .375.485.687.75.687.204 0 .75-.234.75-.703 0-.719-.718-1.422-1.718-1.422-1.532 0-3.344 1.672-3.344 4.313C.297-.72 1.89.266 3 .266c1.328 0 2.656-1.25 2.656-2.829zm-1.468-.015c0 .562 0 1.172-.204 1.594l.063-.094c-.36.719-.766.75-1.047.75-.75 0-.922-.594-.984-.766-.22-.562-.22-1.531-.22-1.734 0-.938.188-2 1.266-2 .188 0 .594-.031.97.703l-.063-.094c.219.438.219 1.047.219 1.64zm0 0"/></svg><svg overflow="visible" x="59.73" y="43.101"><path d="M5.656-2.172c0-.984-.953-2.047-2.187-2.297v.266c.984-.328 1.86-1.297 1.86-2.234 0-.985-1.235-1.782-2.391-1.782-1.204 0-2.313.844-2.313 1.75 0 .39.469.75.813.75.375 0 .796-.39.796-.734 0-.594-.75-.734-.656-.734.234-.36.89-.47 1.313-.47.484 0 .953.126.953 1.204 0 .14.031.734-.281 1.266-.36.578-.626.578-.922.578a4.76 4.76 0 01-.47.046c-.093.016-.374.157-.374.266 0 .14.281.266.484.266h.531c.985 0 1.22.687 1.22 1.86 0 1.624-.626 1.843-1.157 1.843-.516 0-1.266-.172-1.531-.61.125.016.687-.375.687-.828 0-.437-.515-.796-.86-.796-.28 0-.874.296-.874.812C.297-.656 1.609.266 2.922.266c1.453 0 2.734-1.22 2.734-2.438zm0 0"/></svg><svg overflow="visible" x="80.329" y="43.101"><path d="M5.688-3.953c0-.953-.063-1.922-.47-2.797-.562-1.156-1.734-1.469-2.234-1.469-.718 0-1.796.438-2.28 1.547-.376.828-.438 1.766-.438 2.719 0 .89.109 2.062.593 2.969.516.968 1.532 1.25 2.11 1.25.656 0 1.75-.391 2.281-1.516.375-.828.438-1.766.438-2.703zm-1.391-.14c0 .89 0 1.702-.125 2.468C4-.485 3.516-.265 2.969-.265 2.516-.266 2-.438 1.78-1.579c-.125-.719-.125-1.813-.125-2.516 0-.765 0-1.562.094-2.203.219-1.422.922-1.406 1.219-1.406.406 0 .984.094 1.219 1.266.109.671.109 1.578.109 2.343zm0 0"/></svg><svg overflow="visible" x="4.605" y="57.546"><path d="M8.828-3.125c0-.125-.312-.36-.437-.36H.906c-.125 0-.437.235-.437.36 0 .14.312.375.437.375h7.485c.125 0 .437-.234.437-.375zm0 0"/></svg><svg overflow="visible" x="13.906" y="57.546"><path d="M5.203-.125v-.516h-.578c-1.078 0-.922 0-.922-.437v-6.703c0-.282-.187-.438-.578-.438-.766.797-1.672.766-2.266.766v.625c.438 0 1.282-.031 1.563-.172v5.922c0 .437.172.437-.906.437H.937v.672C1.547-.03 2.595-.03 3.079-.03c.469 0 1.516 0 2.125.062zm0 0"/></svg><svg overflow="visible" x="34.493" y="57.546"><path d="M5.656-2.172c0-.984-.953-2.047-2.187-2.297v.266c.984-.328 1.86-1.297 1.86-2.234 0-.985-1.235-1.782-2.391-1.782-1.204 0-2.313.844-2.313 1.75 0 .39.469.75.813.75.375 0 .796-.39.796-.734 0-.594-.75-.734-.656-.734.234-.36.89-.47 1.313-.47.484 0 .953.126.953 1.204 0 .14.031.734-.281 1.266-.36.578-.626.578-.922.578a4.76 4.76 0 01-.47.046c-.093.016-.374.157-.374.266 0 .14.281.266.484.266h.531c.985 0 1.22.687 1.22 1.86 0 1.624-.626 1.843-1.157 1.843-.516 0-1.266-.172-1.531-.61.125.016.687-.375.687-.828 0-.437-.515-.796-.86-.796-.28 0-.874.296-.874.812C.297-.656 1.609.266 2.922.266c1.453 0 2.734-1.22 2.734-2.438zm0 0"/></svg><svg overflow="visible" x="55.08" y="57.546"><path d="M8.828-3.125c0-.125-.312-.36-.437-.36H.906c-.125 0-.437.235-.437.36 0 .14.312.375.437.375h7.485c.125 0 .437-.234.437-.375zm0 0"/></svg><svg overflow="visible" x="64.381" y="57.546"><path d="M5.656-2.172c0-.984-.953-2.047-2.187-2.297v.266c.984-.328 1.86-1.297 1.86-2.234 0-.985-1.235-1.782-2.391-1.782-1.204 0-2.313.844-2.313 1.75 0 .39.469.75.813.75.375 0 .796-.39.796-.734 0-.594-.75-.734-.656-.734.234-.36.89-.47 1.313-.47.484 0 .953.126.953 1.204 0 .14.031.734-.281 1.266-.36.578-.626.578-.922.578a4.76 4.76 0 01-.47.046c-.093.016-.374.157-.374.266 0 .14.281.266.484.266h.531c.985 0 1.22.687 1.22 1.86 0 1.624-.626 1.843-1.157 1.843-.516 0-1.266-.172-1.531-.61.125.016.687-.375.687-.828 0-.437-.515-.796-.86-.796-.28 0-.874.296-.874.812C.297-.656 1.609.266 2.922.266c1.453 0 2.734-1.22 2.734-2.438zm0 0"/></svg><svg overflow="visible" x="80.317" y="57.546"><path d="M5.203-.125v-.516h-.578c-1.078 0-.922 0-.922-.437v-6.703c0-.282-.187-.438-.578-.438-.766.797-1.672.766-2.266.766v.625c.438 0 1.282-.031 1.563-.172v5.922c0 .437.172.437-.906.437H.937v.672C1.547-.03 2.595-.03 3.079-.03c.469 0 1.516 0 2.125.062zm0 0"/></svg><svg overflow="visible" x="86.306" y="24.52"><path d="M4.328-.125v-18.063H.594c-.203 0-.563.282-.563.485s.36.484.563.484h2.625V0h1.11zm0 0"/></svg><svg overflow="visible" x="86.306" y="34.688"><path d="M4.14-12.219H3.22V0h1.11v-12.219zm0 0"/></svg><svg overflow="visible" x="86.306" y="43.244"><path d="M4.14-12.219H3.22V0h1.11v-12.219zm0 0"/></svg><svg overflow="visible" x="86.306" y="59.389"><path d="M4.328-.125v-18.063h-1.11V-.983H.595c-.203 0-.563.296-.563.5 0 .203.36.484.563.484h3.734zm0 0"/></svg><svg overflow="visible" x="94.28" y="6.189"><path d="M6.25-2.25c0-.094-.281-.328-.375-.328H.641c-.094 0-.375.234-.375.328s.28.328.375.328h5.234c.094 0 .375-.234.375-.328zm0 0"/></svg><svg overflow="visible" x="100.791" y="6.189"><path d="M4.172-.156v-.469H3.64c-.829 0-.625.063-.625-.219v-4.64c0-.235-.235-.391-.563-.391-.578.578-1.203.531-1.75.531v.625c.406 0 1.11-.047 1.219-.11v3.985c0 .281.203.219-.625.219H.766v.64L2.469-.03l1.703.047zm0 0"/></svg><svg overflow="visible" x="108.708" y="35.978"><path d="M2.484-3.125c0-.344-.468-.766-.828-.766-.343 0-.828.422-.828.766 0 .36.485.766.828.766.36 0 .828-.407.828-.766zm0 0"/></svg><svg overflow="visible" x="114.689" y="24.287"><path d="M7.922-17.703c0-.203-.344-.485-.547-.485H3.641V0H4.75v-17.219h2.625c.203 0 .547-.281.547-.484zm0 0"/></svg><svg overflow="visible" x="114.689" y="34.57"><path d="M4.75-.125v-12.094H3.64V0h1.11zm0 0"/></svg><svg overflow="visible" x="114.689" y="43.362"><path d="M4.75-.125v-12.094H3.64V0h1.11zm0 0"/></svg><svg overflow="visible" x="114.689" y="59.623"><path d="M7.922-.484c0-.204-.344-.5-.547-.5H4.75v-17.203H3.64V0h3.735c.203 0 .547-.281.547-.484zm0 0"/></svg><svg overflow="visible" x="126.506" y="13.976"><path d="M5.688-3.953c0-.953-.063-1.922-.47-2.797-.562-1.156-1.734-1.469-2.234-1.469-.718 0-1.796.438-2.28 1.547-.376.828-.438 1.766-.438 2.719 0 .89.109 2.062.593 2.969.516.968 1.532 1.25 2.11 1.25.656 0 1.75-.391 2.281-1.516.375-.828.438-1.766.438-2.703zm-1.391-.14c0 .89 0 1.702-.125 2.468C4-.485 3.516-.265 2.969-.265 2.516-.266 2-.438 1.78-1.579c-.125-.719-.125-1.813-.125-2.516 0-.765 0-1.562.094-2.203.219-1.422.922-1.406 1.219-1.406.406 0 .984.094 1.219 1.266.109.671.109 1.578.109 2.343zm0 0"/></svg><svg overflow="visible" x="159.718" y="13.976"><path d="M5.203-.125v-.516h-.578c-1.078 0-.922 0-.922-.437v-6.703c0-.282-.187-.438-.578-.438-.766.797-1.672.766-2.266.766v.625c.438 0 1.282-.031 1.563-.172v5.922c0 .437.172.437-.906.437H.937v.672C1.547-.03 2.595-.03 3.079-.03c.469 0 1.516 0 2.125.062zm0 0"/></svg><svg overflow="visible" x="202.538" y="13.976"><path d="M5.688-3.953c0-.953-.063-1.922-.47-2.797-.562-1.156-1.734-1.469-2.234-1.469-.718 0-1.796.438-2.28 1.547-.376.828-.438 1.766-.438 2.719 0 .89.109 2.062.593 2.969.516.968 1.532 1.25 2.11 1.25.656 0 1.75-.391 2.281-1.516.375-.828.438-1.766.438-2.703zm-1.391-.14c0 .89 0 1.702-.125 2.468C4-.485 3.516-.265 2.969-.265 2.516-.266 2-.438 1.78-1.579c-.125-.719-.125-1.813-.125-2.516 0-.765 0-1.562.094-2.203.219-1.422.922-1.406 1.219-1.406.406 0 .984.094 1.219 1.266.109.671.109 1.578.109 2.343zm0 0"/></svg><svg overflow="visible" x="235.75" y="13.976"><path d="M5.688-3.953c0-.953-.063-1.922-.47-2.797-.562-1.156-1.734-1.469-2.234-1.469-.718 0-1.796.438-2.28 1.547-.376.828-.438 1.766-.438 2.719 0 .89.109 2.062.593 2.969.516.968 1.532 1.25 2.11 1.25.656 0 1.75-.391 2.281-1.516.375-.828.438-1.766.438-2.703zm-1.391-.14c0 .89 0 1.702-.125 2.468C4-.485 3.516-.265 2.969-.265 2.516-.266 2-.438 1.78-1.579c-.125-.719-.125-1.813-.125-2.516 0-.765 0-1.562.094-2.203.219-1.422.922-1.406 1.219-1.406.406 0 .984.094 1.219 1.266.109.671.109 1.578.109 2.343zm0 0"/></svg><svg overflow="visible" x="123.858" y="23.866"><path d="M6.25-2.25c0-.094-.281-.328-.375-.328H.641c-.094 0-.375.234-.375.328s.28.328.375.328h5.234c.094 0 .375-.234.375-.328zm0 0"/></svg><svg overflow="visible" x="130.369" y="23.866"><path d="M4.172-.156v-.469H3.64c-.829 0-.625.063-.625-.219v-4.64c0-.235-.235-.391-.563-.391-.578.578-1.203.531-1.75.531v.625c.406 0 1.11-.047 1.219-.11v3.985c0 .281.203.219-.625.219H.766v.64L2.469-.03l1.703.047zm0 0"/></svg><path d="M123.86 25.59h11.273" fill="none" stroke-width=".478" stroke="#000" stroke-miterlimit="10"/><svg overflow="visible" x="124.561" y="32.702"><path d="M4.234-1.844H3.75c-.047.344-.063.735-.172.813-.062.047-.562 0-.687 0H1.812c.563-.5.86-.735 1.36-1.125.625-.5 1.265-1.14 1.265-1.938 0-1-1.093-1.781-2.171-1.781-1.032 0-1.954.89-1.954 1.656 0 .422.579.625.657.625.203 0 .656-.297.656-.61 0-.14-.266-.593-.422-.593.188-.437.547-.469.938-.469.843 0 1.062.5 1.062 1.172 0 .735-.453 1.203-.719 1.5l-2.03 2C.374-.516.311-.39.311 0h3.844l.313-1.844zm0 0"/></svg><svg overflow="visible" x="129.323" y="32.702"><path d="M5.078-3.531c0-.235-.422-.39-.562-.39H1.875c-.234 0-.656.062-1.094.468-.25.219-.61.765-.61.828 0 .11.313.266.345.266.093 0 .25-.063.296-.141.422-.578.797-.547.985-.547h.484L1.5-.516c-.031.125-.031.141-.031.188 0 .234.422.422.484.422.313 0 .578-.453.61-.578l.484-2.563h1.39c.079 0 .641-.156.641-.484zm0 0"/></svg><svg overflow="visible" x="159.725" y="28.577"><path d="M5.688-3.953c0-.953-.063-1.922-.47-2.797-.562-1.156-1.734-1.469-2.234-1.469-.718 0-1.796.438-2.28 1.547-.376.828-.438 1.766-.438 2.719 0 .89.109 2.062.593 2.969.516.968 1.532 1.25 2.11 1.25.656 0 1.75-.391 2.281-1.516.375-.828.438-1.766.438-2.703zm-1.391-.14c0 .89 0 1.702-.125 2.468C4-.485 3.516-.265 2.969-.265 2.516-.266 2-.438 1.78-1.579c-.125-.719-.125-1.813-.125-2.516 0-.765 0-1.562.094-2.203.219-1.422.922-1.406 1.219-1.406.406 0 .984.094 1.219 1.266.109.671.109 1.578.109 2.343zm0 0"/></svg><svg overflow="visible" x="203.146" y="23.866"><path d="M4.172-.156v-.469H3.64c-.829 0-.625.063-.625-.219v-4.64c0-.235-.235-.391-.563-.391-.578.578-1.203.531-1.75.531v.625c.406 0 1.11-.047 1.219-.11v3.985c0 .281.203.219-.625.219H.766v.64L2.469-.03l1.703.047zm0 0"/></svg><path d="M200.594 25.59h9.867" fill="none" stroke-width=".478" stroke="#000" stroke-miterlimit="10"/><svg overflow="visible" x="200.594" y="32.702"><path d="M4.234-1.844H3.75c-.047.344-.063.735-.172.813-.062.047-.562 0-.687 0H1.812c.563-.5.86-.735 1.36-1.125.625-.5 1.265-1.14 1.265-1.938 0-1-1.093-1.781-2.171-1.781-1.032 0-1.954.89-1.954 1.656 0 .422.579.625.657.625.203 0 .656-.297.656-.61 0-.14-.266-.593-.422-.593.188-.437.547-.469.938-.469.843 0 1.062.5 1.062 1.172 0 .735-.453 1.203-.719 1.5l-2.03 2C.374-.516.311-.39.311 0h3.844l.313-1.844zm0 0"/></svg><svg overflow="visible" x="205.356" y="32.702"><path d="M5.078-3.531c0-.235-.422-.39-.562-.39H1.875c-.234 0-.656.062-1.094.468-.25.219-.61.765-.61.828 0 .11.313.266.345.266.093 0 .25-.063.296-.141.422-.578.797-.547.985-.547h.484L1.5-.516c-.031.125-.031.141-.031.188 0 .234.422.422.484.422.313 0 .578-.453.61-.578l.484-2.563h1.39c.079 0 .641-.156.641-.484zm0 0"/></svg><svg overflow="visible" x="235.758" y="28.577"><path d="M5.688-3.953c0-.953-.063-1.922-.47-2.797-.562-1.156-1.734-1.469-2.234-1.469-.718 0-1.796.438-2.28 1.547-.376.828-.438 1.766-.438 2.719 0 .89.109 2.062.593 2.969.516.968 1.532 1.25 2.11 1.25.656 0 1.75-.391 2.281-1.516.375-.828.438-1.766.438-2.703zm-1.391-.14c0 .89 0 1.702-.125 2.468C4-.485 3.516-.265 2.969-.265 2.516-.266 2-.438 1.78-1.579c-.125-.719-.125-1.813-.125-2.516 0-.765 0-1.562.094-2.203.219-1.422.922-1.406 1.219-1.406.406 0 .984.094 1.219 1.266.109.671.109 1.578.109 2.343zm0 0"/></svg><svg overflow="visible" x="127.114" y="38.467"><path d="M4.172-.156v-.469H3.64c-.829 0-.625.063-.625-.219v-4.64c0-.235-.235-.391-.563-.391-.578.578-1.203.531-1.75.531v.625c.406 0 1.11-.047 1.219-.11v3.985c0 .281.203.219-.625.219H.766v.64L2.469-.03l1.703.047zm0 0"/></svg><path d="M126.941 40.188h5.106" fill="none" stroke-width=".478" stroke="#000" stroke-miterlimit="10"/><svg overflow="visible" x="126.942" y="47.303"><path d="M5.078-3.531c0-.235-.422-.39-.562-.39H1.875c-.234 0-.656.062-1.094.468-.25.219-.61.765-.61.828 0 .11.313.266.345.266.093 0 .25-.063.296-.141.422-.578.797-.547.985-.547h.484L1.5-.516c-.031.125-.031.141-.031.188 0 .234.422.422.484.422.313 0 .578-.453.61-.578l.484-2.563h1.39c.079 0 .641-.156.641-.484zm0 0"/></svg><svg overflow="visible" x="150.037" y="38.467"><path d="M4.172-.156v-.469H3.64c-.829 0-.625.063-.625-.219v-4.64c0-.235-.235-.391-.563-.391-.578.578-1.203.531-1.75.531v.625c.406 0 1.11-.047 1.219-.11v3.985c0 .281.203.219-.625.219H.766v.64L2.469-.03l1.703.047zm0 0"/></svg><path d="M148.23 40.188h8.375" fill="none" stroke-width=".478" stroke="#000" stroke-miterlimit="10"/><svg overflow="visible" x="148.229" y="47.303"><path d="M4.234-1.844H3.75c-.047.344-.063.735-.172.813-.062.047-.562 0-.687 0H1.812c.563-.5.86-.735 1.36-1.125.625-.5 1.265-1.14 1.265-1.938 0-1-1.093-1.781-2.171-1.781-1.032 0-1.954.89-1.954 1.656 0 .422.579.625.657.625.203 0 .656-.297.656-.61 0-.14-.266-.593-.422-.593.188-.437.547-.469.938-.469.843 0 1.062.5 1.062 1.172 0 .735-.453 1.203-.719 1.5l-2.03 2C.374-.516.311-.39.311 0h3.844l.313-1.844zm0 0"/></svg><svg overflow="visible" x="152.991" y="47.303"><path d="M3.39-3.656c0-.11-.312-.266-.453-.266h-.562l.281-1.094c0-.03.031-.078.031-.109 0-.156-.328-.422-.5-.422-.218 0-.546.297-.609.516-.047.203.063-.188-.281 1.11H.625c-.172 0-.484.155-.484.343 0 .11.312.265.468.265h.532L.687-1.484c-.046.203-.125.5-.125.609 0 .5.641.953 1.11.953.937 0 1.672-1.328 1.672-1.437 0-.11-.328-.266-.344-.266-.11 0-.313.172-.39.313-.235.53-.454.843-.907.843-.172 0-.094.047-.094-.25 0-.078.047-.265.063-.344l.562-2.25h.688c.156 0 .469-.156.469-.343zm0 0"/></svg><svg overflow="visible" x="160.459" y="43.178"><path d="M8.828-3.125c0-.125-.312-.36-.437-.36H.906c-.125 0-.437.235-.437.36 0 .14.312.375.437.375h7.485c.125 0 .437-.234.437-.375zm0 0"/></svg><svg overflow="visible" x="172.414" y="43.178"><path d="M5.656-2.172c0-.984-.953-2.047-2.187-2.297v.266c.984-.328 1.86-1.297 1.86-2.234 0-.985-1.235-1.782-2.391-1.782-1.204 0-2.313.844-2.313 1.75 0 .39.469.75.813.75.375 0 .796-.39.796-.734 0-.594-.75-.734-.656-.734.234-.36.89-.47 1.313-.47.484 0 .953.126.953 1.204 0 .14.031.734-.281 1.266-.36.578-.626.578-.922.578a4.76 4.76 0 01-.47.046c-.093.016-.374.157-.374.266 0 .14.281.266.484.266h.531c.985 0 1.22.687 1.22 1.86 0 1.624-.626 1.843-1.157 1.843-.516 0-1.266-.172-1.531-.61.125.016.687-.375.687-.828 0-.437-.515-.796-.86-.796-.28 0-.874.296-.874.812C.297-.656 1.609.266 2.922.266c1.453 0 2.734-1.22 2.734-2.438zm0 0"/></svg><svg overflow="visible" x="191.65" y="43.178"><path d="M5.656-2.172c0-.984-.953-2.047-2.187-2.297v.266c.984-.328 1.86-1.297 1.86-2.234 0-.985-1.235-1.782-2.391-1.782-1.204 0-2.313.844-2.313 1.75 0 .39.469.75.813.75.375 0 .796-.39.796-.734 0-.594-.75-.734-.656-.734.234-.36.89-.47 1.313-.47.484 0 .953.126.953 1.204 0 .14.031.734-.281 1.266-.36.578-.626.578-.922.578a4.76 4.76 0 01-.47.046c-.093.016-.374.157-.374.266 0 .14.281.266.484.266h.531c.985 0 1.22.687 1.22 1.86 0 1.624-.626 1.843-1.157 1.843-.516 0-1.266-.172-1.531-.61.125.016.687-.375.687-.828 0-.437-.515-.796-.86-.796-.28 0-.874.296-.874.812C.297-.656 1.609.266 2.922.266c1.453 0 2.734-1.22 2.734-2.438zm0 0"/></svg><svg overflow="visible" x="200.282" y="43.178"><path d="M8.828-3.125c0-.125-.312-.36-.437-.36H.906c-.125 0-.437.235-.437.36 0 .14.312.375.437.375h7.485c.125 0 .437-.234.437-.375zm0 0"/></svg><svg overflow="visible" x="213.442" y="38.467"><path d="M4.172-.156v-.469H3.64c-.829 0-.625.063-.625-.219v-4.64c0-.235-.235-.391-.563-.391-.578.578-1.203.531-1.75.531v.625c.406 0 1.11-.047 1.219-.11v3.985c0 .281.203.219-.625.219H.766v.64L2.469-.03l1.703.047zm0 0"/></svg><path d="M213.441 40.188h4.762" fill="none" stroke-width=".478" stroke="#000" stroke-miterlimit="10"/><svg overflow="visible" x="214.016" y="47.303"><path d="M3.39-3.656c0-.11-.312-.266-.453-.266h-.562l.281-1.094c0-.03.031-.078.031-.109 0-.156-.328-.422-.5-.422-.218 0-.546.297-.609.516-.047.203.063-.188-.281 1.11H.625c-.172 0-.484.155-.484.343 0 .11.312.265.468.265h.532L.687-1.484c-.046.203-.125.5-.125.609 0 .5.641.953 1.11.953.937 0 1.672-1.328 1.672-1.437 0-.11-.328-.266-.344-.266-.11 0-.313.172-.39.313-.235.53-.454.843-.907.843-.172 0-.094.047-.094-.25 0-.078.047-.265.063-.344l.562-2.25h.688c.156 0 .469-.156.469-.343zm0 0"/></svg><svg overflow="visible" x="233.11" y="38.467"><path d="M6.25-2.25c0-.094-.281-.328-.375-.328H.641c-.094 0-.375.234-.375.328s.28.328.375.328h5.234c.094 0 .375-.234.375-.328zm0 0"/></svg><svg overflow="visible" x="239.621" y="38.467"><path d="M4.172-.156v-.469H3.64c-.829 0-.625.063-.625-.219v-4.64c0-.235-.235-.391-.563-.391-.578.578-1.203.531-1.75.531v.625c.406 0 1.11-.047 1.219-.11v3.985c0 .281.203.219-.625.219H.766v.64L2.469-.03l1.703.047zm0 0"/></svg><path d="M233.11 40.188h11.273" fill="none" stroke-width=".478" stroke="#000" stroke-miterlimit="10"/><svg overflow="visible" x="234.558" y="47.303"><path d="M4.234-1.844H3.75c-.047.344-.063.735-.172.813-.062.047-.562 0-.687 0H1.812c.563-.5.86-.735 1.36-1.125.625-.5 1.265-1.14 1.265-1.938 0-1-1.093-1.781-2.171-1.781-1.032 0-1.954.89-1.954 1.656 0 .422.579.625.657.625.203 0 .656-.297.656-.61 0-.14-.266-.593-.422-.593.188-.437.547-.469.938-.469.843 0 1.062.5 1.062 1.172 0 .735-.453 1.203-.719 1.5l-2.03 2C.374-.516.311-.39.311 0h3.844l.313-1.844zm0 0"/></svg><svg overflow="visible" x="239.32" y="47.303"><path d="M3.39-3.656c0-.11-.312-.266-.453-.266h-.562l.281-1.094c0-.03.031-.078.031-.109 0-.156-.328-.422-.5-.422-.218 0-.546.297-.609.516-.047.203.063-.188-.281 1.11H.625c-.172 0-.484.155-.484.343 0 .11.312.265.468.265h.532L.687-1.484c-.046.203-.125.5-.125.609 0 .5.641.953 1.11.953.937 0 1.672-1.328 1.672-1.437 0-.11-.328-.266-.344-.266-.11 0-.313.172-.39.313-.235.53-.454.843-.907.843-.172 0-.094.047-.094-.25 0-.078.047-.265.063-.344l.562-2.25h.688c.156 0 .469-.156.469-.343zm0 0"/></svg><svg overflow="visible" x="123.858" y="53.069"><path d="M6.25-2.25c0-.094-.281-.328-.375-.328H.641c-.094 0-.375.234-.375.328s.28.328.375.328h5.234c.094 0 .375-.234.375-.328zm0 0"/></svg><svg overflow="visible" x="130.369" y="53.069"><path d="M4.172-.156v-.469H3.64c-.829 0-.625.063-.625-.219v-4.64c0-.235-.235-.391-.563-.391-.578.578-1.203.531-1.75.531v.625c.406 0 1.11-.047 1.219-.11v3.985c0 .281.203.219-.625.219H.766v.64L2.469-.03l1.703.047zm0 0"/></svg><path d="M123.86 54.79h11.273" fill="none" stroke-width=".478" stroke="#000" stroke-miterlimit="10"/><svg overflow="visible" x="125.306" y="61.905"><path d="M4.234-1.844H3.75c-.047.344-.063.735-.172.813-.062.047-.562 0-.687 0H1.812c.563-.5.86-.735 1.36-1.125.625-.5 1.265-1.14 1.265-1.938 0-1-1.093-1.781-2.171-1.781-1.032 0-1.954.89-1.954 1.656 0 .422.579.625.657.625.203 0 .656-.297.656-.61 0-.14-.266-.593-.422-.593.188-.437.547-.469.938-.469.843 0 1.062.5 1.062 1.172 0 .735-.453 1.203-.719 1.5l-2.03 2C.374-.516.311-.39.311 0h3.844l.313-1.844zm0 0"/></svg><svg overflow="visible" x="130.068" y="61.905"><path d="M3.39-3.656c0-.11-.312-.266-.453-.266h-.562l.281-1.094c0-.03.031-.078.031-.109 0-.156-.328-.422-.5-.422-.218 0-.546.297-.609.516-.047.203.063-.188-.281 1.11H.625c-.172 0-.484.155-.484.343 0 .11.312.265.468.265h.532L.687-1.484c-.046.203-.125.5-.125.609 0 .5.641.953 1.11.953.937 0 1.672-1.328 1.672-1.437 0-.11-.328-.266-.344-.266-.11 0-.313.172-.39.313-.235.53-.454.843-.907.843-.172 0-.094.047-.094-.25 0-.078.047-.265.063-.344l.562-2.25h.688c.156 0 .469-.156.469-.343zm0 0"/></svg><svg overflow="visible" x="146.289" y="57.78"><path d="M5.36-2.344h-.47c-.077.485-.109.922-.234 1.094-.078.11-.718.063-.984.063H1.89l1.03-1c1.86-1.657 2.642-2.391 2.642-3.579 0-1.375-1.266-2.453-2.735-2.453C1.484-8.219.391-7 .391-5.922c0 .656.796.797.843.797.204 0 .813-.281.813-.766 0-.312-.406-.75-.828-.75-.094 0-.125 0 .125-.093.187-.547.64-.86 1.328-.86 1.094 0 1.406.844 1.406 1.828 0 .954-.547 1.797-1.203 2.532L.578-.672C.453-.532.391-.422.391 0h4.812l.375-2.344zm0 0"/></svg><svg overflow="visible" x="154.921" y="57.78"><path d="M8.828-3.125c0-.125-.312-.36-.437-.36H.906c-.125 0-.437.235-.437.36 0 .14.312.375.437.375h7.485c.125 0 .437-.234.437-.375zm0 0"/></svg><svg overflow="visible" x="170.629" y="53.069"><path d="M4.172-.156v-.469H3.64c-.829 0-.625.063-.625-.219v-4.64c0-.235-.235-.391-.563-.391-.578.578-1.203.531-1.75.531v.625c.406 0 1.11-.047 1.219-.11v3.985c0 .281.203.219-.625.219H.766v.64L2.469-.03l1.703.047zm0 0"/></svg><path d="M168.078 54.79h9.867" fill="none" stroke-width=".478" stroke="#000" stroke-miterlimit="10"/><svg overflow="visible" x="168.077" y="61.905"><path d="M4.234-1.844H3.75c-.047.344-.063.735-.172.813-.062.047-.562 0-.687 0H1.812c.563-.5.86-.735 1.36-1.125.625-.5 1.265-1.14 1.265-1.938 0-1-1.093-1.781-2.171-1.781-1.032 0-1.954.89-1.954 1.656 0 .422.579.625.657.625.203 0 .656-.297.656-.61 0-.14-.266-.593-.422-.593.188-.437.547-.469.938-.469.843 0 1.062.5 1.062 1.172 0 .735-.453 1.203-.719 1.5l-2.03 2C.374-.516.311-.39.311 0h3.844l.313-1.844zm0 0"/></svg><svg overflow="visible" x="172.839" y="61.905"><path d="M5.078-3.531c0-.235-.422-.39-.562-.39H1.875c-.234 0-.656.062-1.094.468-.25.219-.61.765-.61.828 0 .11.313.266.345.266.093 0 .25-.063.296-.141.422-.578.797-.547.985-.547h.484L1.5-.516c-.031.125-.031.141-.031.188 0 .234.422.422.484.422.313 0 .578-.453.61-.578l.484-2.563h1.39c.079 0 .641-.156.641-.484zm0 0"/></svg><svg overflow="visible" x="192.85" y="53.069"><path d="M4.172-.156v-.469H3.64c-.829 0-.625.063-.625-.219v-4.64c0-.235-.235-.391-.563-.391-.578.578-1.203.531-1.75.531v.625c.406 0 1.11-.047 1.219-.11v3.985c0 .281.203.219-.625.219H.766v.64L2.469-.03l1.703.047zm0 0"/></svg><path d="M190.297 54.79h9.867" fill="none" stroke-width=".478" stroke="#000" stroke-miterlimit="10"/><svg overflow="visible" x="190.297" y="61.905"><path d="M4.234-1.844H3.75c-.047.344-.063.735-.172.813-.062.047-.562 0-.687 0H1.812c.563-.5.86-.735 1.36-1.125.625-.5 1.265-1.14 1.265-1.938 0-1-1.093-1.781-2.171-1.781-1.032 0-1.954.89-1.954 1.656 0 .422.579.625.657.625.203 0 .656-.297.656-.61 0-.14-.266-.593-.422-.593.188-.437.547-.469.938-.469.843 0 1.062.5 1.062 1.172 0 .735-.453 1.203-.719 1.5l-2.03 2C.374-.516.311-.39.311 0h3.844l.313-1.844zm0 0"/></svg><svg overflow="visible" x="195.059" y="61.905"><path d="M5.078-3.531c0-.235-.422-.39-.562-.39H1.875c-.234 0-.656.062-1.094.468-.25.219-.61.765-.61.828 0 .11.313.266.345.266.093 0 .25-.063.296-.141.422-.578.797-.547.985-.547h.484L1.5-.516c-.031.125-.031.141-.031.188 0 .234.422.422.484.422.313 0 .578-.453.61-.578l.484-2.563h1.39c.079 0 .641-.156.641-.484zm0 0"/></svg><svg overflow="visible" x="204.016" y="57.78"><path d="M8.828-3.125c0-.125-.312-.36-.437-.36H.906c-.125 0-.437.235-.437.36 0 .14.312.375.437.375h7.485c.125 0 .437-.234.437-.375zm0 0"/></svg><svg overflow="visible" x="215.971" y="57.78"><path d="M5.36-2.344h-.47c-.077.485-.109.922-.234 1.094-.078.11-.718.063-.984.063H1.89l1.03-1c1.86-1.657 2.642-2.391 2.642-3.579 0-1.375-1.266-2.453-2.735-2.453C1.484-8.219.391-7 .391-5.922c0 .656.796.797.843.797.204 0 .813-.281.813-.766 0-.312-.406-.75-.828-.75-.094 0-.125 0 .125-.093.187-.547.64-.86 1.328-.86 1.094 0 1.406.844 1.406 1.828 0 .954-.547 1.797-1.203 2.532L.578-.672C.453-.532.391-.422.391 0h4.812l.375-2.344zm0 0"/></svg><svg overflow="visible" x="236.366" y="53.069"><path d="M4.172-.156v-.469H3.64c-.829 0-.625.063-.625-.219v-4.64c0-.235-.235-.391-.563-.391-.578.578-1.203.531-1.75.531v.625c.406 0 1.11-.047 1.219-.11v3.985c0 .281.203.219-.625.219H.766v.64L2.469-.03l1.703.047zm0 0"/></svg><path d="M234.559 54.79h8.375" fill="none" stroke-width=".478" stroke="#000" stroke-miterlimit="10"/><svg overflow="visible" x="234.558" y="61.905"><path d="M4.234-1.844H3.75c-.047.344-.063.735-.172.813-.062.047-.562 0-.687 0H1.812c.563-.5.86-.735 1.36-1.125.625-.5 1.265-1.14 1.265-1.938 0-1-1.093-1.781-2.171-1.781-1.032 0-1.954.89-1.954 1.656 0 .422.579.625.657.625.203 0 .656-.297.656-.61 0-.14-.266-.593-.422-.593.188-.437.547-.469.938-.469.843 0 1.062.5 1.062 1.172 0 .735-.453 1.203-.719 1.5l-2.03 2C.374-.516.311-.39.311 0h3.844l.313-1.844zm0 0"/></svg><svg overflow="visible" x="239.32" y="61.905"><path d="M3.39-3.656c0-.11-.312-.266-.453-.266h-.562l.281-1.094c0-.03.031-.078.031-.109 0-.156-.328-.422-.5-.422-.218 0-.546.297-.609.516-.047.203.063-.188-.281 1.11H.625c-.172 0-.484.155-.484.343 0 .11.312.265.468.265h.532L.687-1.484c-.046.203-.125.5-.125.609 0 .5.641.953 1.11.953.937 0 1.672-1.328 1.672-1.437 0-.11-.328-.266-.344-.266-.11 0-.313.172-.39.313-.235.53-.454.843-.907.843-.172 0-.094.047-.094-.25 0-.078.047-.265.063-.344l.562-2.25h.688c.156 0 .469-.156.469-.343zm0 0"/></svg><svg overflow="visible" x="245.578" y="24.287"><path d="M4.328-.125v-18.063H.594c-.203 0-.563.282-.563.485s.36.484.563.484h2.625V0h1.11zm0 0"/></svg><svg overflow="visible" x="245.578" y="34.57"><path d="M4.14-12.219H3.22V0h1.11v-12.219zm0 0"/></svg><svg overflow="visible" x="245.578" y="43.362"><path d="M4.14-12.219H3.22V0h1.11v-12.219zm0 0"/></svg><svg overflow="visible" x="245.578" y="59.623"><path d="M4.328-.125v-18.063h-1.11V-.983H.595c-.203 0-.563.296-.563.5 0 .203.36.484.563.484h3.734zm0 0"/></svg><svg overflow="visible" x="256.874" y="35.978"><path d="M8.828-4.281c0-.125-.312-.375-.437-.375H.906c-.125 0-.437.25-.437.375 0 .14.312.375.437.375h7.485c.125 0 .437-.235.437-.375zm0 2.328c0-.14-.312-.375-.437-.375H.906c-.125 0-.437.234-.437.375 0 .125.312.36.437.36h7.485c.125 0 .437-.235.437-.36zm0 0"/></svg><svg overflow="visible" x="269.496" y="24.52"><path d="M7.922-17.703c0-.203-.344-.485-.547-.485H3.641V0H4.75v-17.219h2.625c.203 0 .547-.281.547-.484zm0 0"/></svg><svg overflow="visible" x="269.496" y="34.688"><path d="M4.75-.125v-12.094H3.64V0h1.11zm0 0"/></svg><svg overflow="visible" x="269.496" y="43.244"><path d="M4.75-.125v-12.094H3.64V0h1.11zm0 0"/></svg><svg overflow="visible" x="269.496" y="59.389"><path d="M7.922-.484c0-.204-.344-.5-.547-.5H4.75v-17.203H3.64V0h3.735c.203 0 .547-.281.547-.484zm0 0"/></svg><svg overflow="visible" x="282.121" y="14.209"><path d="M5.203-.125v-.516h-.578c-1.078 0-.922 0-.922-.437v-6.703c0-.282-.187-.438-.578-.438-.766.797-1.672.766-2.266.766v.625c.438 0 1.282-.031 1.563-.172v5.922c0 .437.172.437-.906.437H.937v.672C1.547-.03 2.595-.03 3.079-.03c.469 0 1.516 0 2.125.062zm0 0"/></svg><svg overflow="visible" x="307.358" y="14.209"><path d="M5.688-3.953c0-.953-.063-1.922-.47-2.797-.562-1.156-1.734-1.469-2.234-1.469-.718 0-1.796.438-2.28 1.547-.376.828-.438 1.766-.438 2.719 0 .89.109 2.062.593 2.969.516.968 1.532 1.25 2.11 1.25.656 0 1.75-.391 2.281-1.516.375-.828.438-1.766.438-2.703zm-1.391-.14c0 .89 0 1.702-.125 2.468C4-.485 3.516-.265 2.969-.265 2.516-.266 2-.438 1.78-1.579c-.125-.719-.125-1.813-.125-2.516 0-.765 0-1.562.094-2.203.219-1.422.922-1.406 1.219-1.406.406 0 .984.094 1.219 1.266.109.671.109 1.578.109 2.343zm0 0"/></svg><svg overflow="visible" x="332.596" y="14.209"><path d="M5.688-3.953c0-.953-.063-1.922-.47-2.797-.562-1.156-1.734-1.469-2.234-1.469-.718 0-1.796.438-2.28 1.547-.376.828-.438 1.766-.438 2.719 0 .89.109 2.062.593 2.969.516.968 1.532 1.25 2.11 1.25.656 0 1.75-.391 2.281-1.516.375-.828.438-1.766.438-2.703zm-1.391-.14c0 .89 0 1.702-.125 2.468C4-.485 3.516-.265 2.969-.265 2.516-.266 2-.438 1.78-1.579c-.125-.719-.125-1.813-.125-2.516 0-.765 0-1.562.094-2.203.219-1.422.922-1.406 1.219-1.406.406 0 .984.094 1.219 1.266.109.671.109 1.578.109 2.343zm0 0"/></svg><svg overflow="visible" x="353.183" y="14.209"><path d="M5.688-3.953c0-.953-.063-1.922-.47-2.797-.562-1.156-1.734-1.469-2.234-1.469-.718 0-1.796.438-2.28 1.547-.376.828-.438 1.766-.438 2.719 0 .89.109 2.062.593 2.969.516.968 1.532 1.25 2.11 1.25.656 0 1.75-.391 2.281-1.516.375-.828.438-1.766.438-2.703zm-1.391-.14c0 .89 0 1.702-.125 2.468C4-.485 3.516-.265 2.969-.265 2.516-.266 2-.438 1.78-1.579c-.125-.719-.125-1.813-.125-2.516 0-.765 0-1.562.094-2.203.219-1.422.922-1.406 1.219-1.406.406 0 .984.094 1.219 1.266.109.671.109 1.578.109 2.343zm0 0"/></svg><svg overflow="visible" x="277.47" y="28.655"><path d="M8.828-3.125c0-.125-.312-.36-.437-.36H.906c-.125 0-.437.235-.437.36 0 .14.312.375.437.375h7.485c.125 0 .437-.234.437-.375zm0 0"/></svg><svg overflow="visible" x="286.771" y="28.655"><path d="M5.656-2.172c0-.984-.953-2.047-2.187-2.297v.266c.984-.328 1.86-1.297 1.86-2.234 0-.985-1.235-1.782-2.391-1.782-1.204 0-2.313.844-2.313 1.75 0 .39.469.75.813.75.375 0 .796-.39.796-.734 0-.594-.75-.734-.656-.734.234-.36.89-.47 1.313-.47.484 0 .953.126.953 1.204 0 .14.031.734-.281 1.266-.36.578-.626.578-.922.578a4.76 4.76 0 01-.47.046c-.093.016-.374.157-.374.266 0 .14.281.266.484.266h.531c.985 0 1.22.687 1.22 1.86 0 1.624-.626 1.843-1.157 1.843-.516 0-1.266-.172-1.531-.61.125.016.687-.375.687-.828 0-.437-.515-.796-.86-.796-.28 0-.874.296-.874.812C.297-.656 1.609.266 2.922.266c1.453 0 2.734-1.22 2.734-2.438zm0 0"/></svg><svg overflow="visible" x="307.358" y="28.655"><path d="M5.656-2.172c0-.984-.953-2.047-2.187-2.297v.266c.984-.328 1.86-1.297 1.86-2.234 0-.985-1.235-1.782-2.391-1.782-1.204 0-2.313.844-2.313 1.75 0 .39.469.75.813.75.375 0 .796-.39.796-.734 0-.594-.75-.734-.656-.734.234-.36.89-.47 1.313-.47.484 0 .953.126.953 1.204 0 .14.031.734-.281 1.266-.36.578-.626.578-.922.578a4.76 4.76 0 01-.47.046c-.093.016-.374.157-.374.266 0 .14.281.266.484.266h.531c.985 0 1.22.687 1.22 1.86 0 1.624-.626 1.843-1.157 1.843-.516 0-1.266-.172-1.531-.61.125.016.687-.375.687-.828 0-.437-.515-.796-.86-.796-.28 0-.874.296-.874.812C.297-.656 1.609.266 2.922.266c1.453 0 2.734-1.22 2.734-2.438zm0 0"/></svg><svg overflow="visible" x="332.595" y="28.655"><path d="M5.688-3.953c0-.953-.063-1.922-.47-2.797-.562-1.156-1.734-1.469-2.234-1.469-.718 0-1.796.438-2.28 1.547-.376.828-.438 1.766-.438 2.719 0 .89.109 2.062.593 2.969.516.968 1.532 1.25 2.11 1.25.656 0 1.75-.391 2.281-1.516.375-.828.438-1.766.438-2.703zm-1.391-.14c0 .89 0 1.702-.125 2.468C4-.485 3.516-.265 2.969-.265 2.516-.266 2-.438 1.78-1.579c-.125-.719-.125-1.813-.125-2.516 0-.765 0-1.562.094-2.203.219-1.422.922-1.406 1.219-1.406.406 0 .984.094 1.219 1.266.109.671.109 1.578.109 2.343zm0 0"/></svg><svg overflow="visible" x="353.194" y="28.655"><path d="M5.688-3.953c0-.953-.063-1.922-.47-2.797-.562-1.156-1.734-1.469-2.234-1.469-.718 0-1.796.438-2.28 1.547-.376.828-.438 1.766-.438 2.719 0 .89.109 2.062.593 2.969.516.968 1.532 1.25 2.11 1.25.656 0 1.75-.391 2.281-1.516.375-.828.438-1.766.438-2.703zm-1.391-.14c0 .89 0 1.702-.125 2.468C4-.485 3.516-.265 2.969-.265 2.516-.266 2-.438 1.78-1.579c-.125-.719-.125-1.813-.125-2.516 0-.765 0-1.562.094-2.203.219-1.422.922-1.406 1.219-1.406.406 0 .984.094 1.219 1.266.109.671.109 1.578.109 2.343zm0 0"/></svg><svg overflow="visible" x="282.121" y="43.101"><path d="M5.656-2.172c0-.984-.953-2.047-2.187-2.297v.266c.984-.328 1.86-1.297 1.86-2.234 0-.985-1.235-1.782-2.391-1.782-1.204 0-2.313.844-2.313 1.75 0 .39.469.75.813.75.375 0 .796-.39.796-.734 0-.594-.75-.734-.656-.734.234-.36.89-.47 1.313-.47.484 0 .953.126.953 1.204 0 .14.031.734-.281 1.266-.36.578-.626.578-.922.578a4.76 4.76 0 01-.47.046c-.093.016-.374.157-.374.266 0 .14.281.266.484.266h.531c.985 0 1.22.687 1.22 1.86 0 1.624-.626 1.843-1.157 1.843-.516 0-1.266-.172-1.531-.61.125.016.687-.375.687-.828 0-.437-.515-.796-.86-.796-.28 0-.874.296-.874.812C.297-.656 1.609.266 2.922.266c1.453 0 2.734-1.22 2.734-2.438zm0 0"/></svg><svg overflow="visible" x="302.708" y="43.101"><path d="M8.828-3.125c0-.125-.312-.36-.437-.36H.906c-.125 0-.437.235-.437.36 0 .14.312.375.437.375h7.485c.125 0 .437-.234.437-.375zm0 0"/></svg><svg overflow="visible" x="312.009" y="43.101"><path d="M5.656-2.563c0-1.53-1.25-2.796-2.578-2.796-.812 0-1.469.734-1.703 1.312h.39v-.297c0-3.015 1.298-3.312 1.907-3.312.281 0 .64.031.75.203.125 0-.563.14-.563.672 0 .375.485.687.75.687.204 0 .75-.234.75-.703 0-.719-.718-1.422-1.718-1.422-1.532 0-3.344 1.672-3.344 4.313C.297-.72 1.89.266 3 .266c1.328 0 2.656-1.25 2.656-2.829zm-1.468-.015c0 .562 0 1.172-.204 1.594l.063-.094c-.36.719-.766.75-1.047.75-.75 0-.922-.594-.984-.766-.22-.562-.22-1.531-.22-1.734 0-.938.188-2 1.266-2 .188 0 .594-.031.97.703l-.063-.094c.219.438.219 1.047.219 1.64zm0 0"/></svg><svg overflow="visible" x="332.596" y="43.101"><path d="M5.656-2.172c0-.984-.953-2.047-2.187-2.297v.266c.984-.328 1.86-1.297 1.86-2.234 0-.985-1.235-1.782-2.391-1.782-1.204 0-2.313.844-2.313 1.75 0 .39.469.75.813.75.375 0 .796-.39.796-.734 0-.594-.75-.734-.656-.734.234-.36.89-.47 1.313-.47.484 0 .953.126.953 1.204 0 .14.031.734-.281 1.266-.36.578-.626.578-.922.578a4.76 4.76 0 01-.47.046c-.093.016-.374.157-.374.266 0 .14.281.266.484.266h.531c.985 0 1.22.687 1.22 1.86 0 1.624-.626 1.843-1.157 1.843-.516 0-1.266-.172-1.531-.61.125.016.687-.375.687-.828 0-.437-.515-.796-.86-.796-.28 0-.874.296-.874.812C.297-.656 1.609.266 2.922.266c1.453 0 2.734-1.22 2.734-2.438zm0 0"/></svg><svg overflow="visible" x="353.183" y="43.101"><path d="M5.688-3.953c0-.953-.063-1.922-.47-2.797-.562-1.156-1.734-1.469-2.234-1.469-.718 0-1.796.438-2.28 1.547-.376.828-.438 1.766-.438 2.719 0 .89.109 2.062.593 2.969.516.968 1.532 1.25 2.11 1.25.656 0 1.75-.391 2.281-1.516.375-.828.438-1.766.438-2.703zm-1.391-.14c0 .89 0 1.702-.125 2.468C4-.485 3.516-.265 2.969-.265 2.516-.266 2-.438 1.78-1.579c-.125-.719-.125-1.813-.125-2.516 0-.765 0-1.562.094-2.203.219-1.422.922-1.406 1.219-1.406.406 0 .984.094 1.219 1.266.109.671.109 1.578.109 2.343zm0 0"/></svg><svg overflow="visible" x="277.47" y="57.546"><path d="M8.828-3.125c0-.125-.312-.36-.437-.36H.906c-.125 0-.437.235-.437.36 0 .14.312.375.437.375h7.485c.125 0 .437-.234.437-.375zm0 0"/></svg><svg overflow="visible" x="286.771" y="57.546"><path d="M5.203-.125v-.516h-.578c-1.078 0-.922 0-.922-.437v-6.703c0-.282-.187-.438-.578-.438-.766.797-1.672.766-2.266.766v.625c.438 0 1.282-.031 1.563-.172v5.922c0 .437.172.437-.906.437H.937v.672C1.547-.03 2.595-.03 3.079-.03c.469 0 1.516 0 2.125.062zm0 0"/></svg><svg overflow="visible" x="307.358" y="57.546"><path d="M5.656-2.172c0-.984-.953-2.047-2.187-2.297v.266c.984-.328 1.86-1.297 1.86-2.234 0-.985-1.235-1.782-2.391-1.782-1.204 0-2.313.844-2.313 1.75 0 .39.469.75.813.75.375 0 .796-.39.796-.734 0-.594-.75-.734-.656-.734.234-.36.89-.47 1.313-.47.484 0 .953.126.953 1.204 0 .14.031.734-.281 1.266-.36.578-.626.578-.922.578a4.76 4.76 0 01-.47.046c-.093.016-.374.157-.374.266 0 .14.281.266.484.266h.531c.985 0 1.22.687 1.22 1.86 0 1.624-.626 1.843-1.157 1.843-.516 0-1.266-.172-1.531-.61.125.016.687-.375.687-.828 0-.437-.515-.796-.86-.796-.28 0-.874.296-.874.812C.297-.656 1.609.266 2.922.266c1.453 0 2.734-1.22 2.734-2.438zm0 0"/></svg><svg overflow="visible" x="327.945" y="57.546"><path d="M8.828-3.125c0-.125-.312-.36-.437-.36H.906c-.125 0-.437.235-.437.36 0 .14.312.375.437.375h7.485c.125 0 .437-.234.437-.375zm0 0"/></svg><svg overflow="visible" x="337.246" y="57.546"><path d="M5.656-2.172c0-.984-.953-2.047-2.187-2.297v.266c.984-.328 1.86-1.297 1.86-2.234 0-.985-1.235-1.782-2.391-1.782-1.204 0-2.313.844-2.313 1.75 0 .39.469.75.813.75.375 0 .796-.39.796-.734 0-.594-.75-.734-.656-.734.234-.36.89-.47 1.313-.47.484 0 .953.126.953 1.204 0 .14.031.734-.281 1.266-.36.578-.626.578-.922.578a4.76 4.76 0 01-.47.046c-.093.016-.374.157-.374.266 0 .14.281.266.484.266h.531c.985 0 1.22.687 1.22 1.86 0 1.624-.626 1.843-1.157 1.843-.516 0-1.266-.172-1.531-.61.125.016.687-.375.687-.828 0-.437-.515-.796-.86-.796-.28 0-.874.296-.874.812C.297-.656 1.609.266 2.922.266c1.453 0 2.734-1.22 2.734-2.438zm0 0"/></svg><svg overflow="visible" x="353.194" y="57.546"><path d="M5.203-.125v-.516h-.578c-1.078 0-.922 0-.922-.437v-6.703c0-.282-.187-.438-.578-.438-.766.797-1.672.766-2.266.766v.625c.438 0 1.282-.031 1.563-.172v5.922c0 .437.172.437-.906.437H.937v.672C1.547-.03 2.595-.03 3.079-.03c.469 0 1.516 0 2.125.062zm0 0"/></svg><svg overflow="visible" x="359.172" y="24.52"><path d="M4.328-.125v-18.063H.594c-.203 0-.563.282-.563.485s.36.484.563.484h2.625V0h1.11zm0 0"/></svg><svg overflow="visible" x="359.172" y="34.688"><path d="M4.14-12.219H3.22V0h1.11v-12.219zm0 0"/></svg><svg overflow="visible" x="359.172" y="43.244"><path d="M4.14-12.219H3.22V0h1.11v-12.219zm0 0"/></svg><svg overflow="visible" x="359.172" y="59.389"><path d="M4.328-.125v-18.063h-1.11V-.983H.595c-.203 0-.563.296-.563.5 0 .203.36.484.563.484h3.734zm0 0"/></svg><svg overflow="visible" x="367.146" y="6.189"><path d="M6.25-2.25c0-.094-.281-.328-.375-.328H.641c-.094 0-.375.234-.375.328s.28.328.375.328h5.234c.094 0 .375-.234.375-.328zm0 0"/></svg><svg overflow="visible" x="373.657" y="6.189"><path d="M4.172-.156v-.469H3.64c-.829 0-.625.063-.625-.219v-4.64c0-.235-.235-.391-.563-.391-.578.578-1.203.531-1.75.531v.625c.406 0 1.11-.047 1.219-.11v3.985c0 .281.203.219-.625.219H.766v.64L2.469-.03l1.703.047zm0 0"/></svg><svg overflow="visible" x="381.573" y="35.978"><path d="M2.484-3.125c0-.344-.468-.766-.828-.766-.343 0-.828.422-.828.766 0 .36.485.766.828.766.36 0 .828-.407.828-.766zm0 0"/></svg><svg overflow="visible" x="387.554" y="24.52"><path d="M7.922-17.703c0-.203-.344-.485-.547-.485H3.641V0H4.75v-17.219h2.625c.203 0 .547-.281.547-.484zm0 0"/></svg><svg overflow="visible" x="387.554" y="34.688"><path d="M4.75-.125v-12.094H3.64V0h1.11zm0 0"/></svg><svg overflow="visible" x="387.554" y="43.244"><path d="M4.75-.125v-12.094H3.64V0h1.11zm0 0"/></svg><svg overflow="visible" x="387.554" y="59.389"><path d="M7.922-.484c0-.204-.344-.5-.547-.5H4.75v-17.203H3.64V0h3.735c.203 0 .547-.281.547-.484zm0 0"/></svg><svg overflow="visible" x="400.178" y="14.209"><path d="M5.203-.125v-.516h-.578c-1.078 0-.922 0-.922-.437v-6.703c0-.282-.187-.438-.578-.438-.766.797-1.672.766-2.266.766v.625c.438 0 1.282-.031 1.563-.172v5.922c0 .437.172.437-.906.437H.937v.672C1.547-.03 2.595-.03 3.079-.03c.469 0 1.516 0 2.125.062zm0 0"/></svg><g><svg overflow="visible" x="425.415" y="14.209"><path d="M5.688-3.953c0-.953-.063-1.922-.47-2.797-.562-1.156-1.734-1.469-2.234-1.469-.718 0-1.796.438-2.28 1.547-.376.828-.438 1.766-.438 2.719 0 .89.109 2.062.593 2.969.516.968 1.532 1.25 2.11 1.25.656 0 1.75-.391 2.281-1.516.375-.828.438-1.766.438-2.703zm-1.391-.14c0 .89 0 1.702-.125 2.468C4-.485 3.516-.265 2.969-.265 2.516-.266 2-.438 1.78-1.579c-.125-.719-.125-1.813-.125-2.516 0-.765 0-1.562.094-2.203.219-1.422.922-1.406 1.219-1.406.406 0 .984.094 1.219 1.266.109.671.109 1.578.109 2.343zm0 0"/></svg></g><g><svg overflow="visible" x="450.653" y="14.209"><path d="M5.688-3.953c0-.953-.063-1.922-.47-2.797-.562-1.156-1.734-1.469-2.234-1.469-.718 0-1.796.438-2.28 1.547-.376.828-.438 1.766-.438 2.719 0 .89.109 2.062.593 2.969.516.968 1.532 1.25 2.11 1.25.656 0 1.75-.391 2.281-1.516.375-.828.438-1.766.438-2.703zm-1.391-.14c0 .89 0 1.702-.125 2.468C4-.485 3.516-.265 2.969-.265 2.516-.266 2-.438 1.78-1.579c-.125-.719-.125-1.813-.125-2.516 0-.765 0-1.562.094-2.203.219-1.422.922-1.406 1.219-1.406.406 0 .984.094 1.219 1.266.109.671.109 1.578.109 2.343zm0 0"/></svg></g><g><svg overflow="visible" x="471.252" y="14.209"><path d="M5.688-3.953c0-.953-.063-1.922-.47-2.797-.562-1.156-1.734-1.469-2.234-1.469-.718 0-1.796.438-2.28 1.547-.376.828-.438 1.766-.438 2.719 0 .89.109 2.062.593 2.969.516.968 1.532 1.25 2.11 1.25.656 0 1.75-.391 2.281-1.516.375-.828.438-1.766.438-2.703zm-1.391-.14c0 .89 0 1.702-.125 2.468C4-.485 3.516-.265 2.969-.265 2.516-.266 2-.438 1.78-1.579c-.125-.719-.125-1.813-.125-2.516 0-.765 0-1.562.094-2.203.219-1.422.922-1.406 1.219-1.406.406 0 .984.094 1.219 1.266.109.671.109 1.578.109 2.343zm0 0"/></svg></g><g><svg overflow="visible" x="395.528" y="28.655"><path d="M8.828-3.125c0-.125-.312-.36-.437-.36H.906c-.125 0-.437.235-.437.36 0 .14.312.375.437.375h7.485c.125 0 .437-.234.437-.375zm0 0"/></svg><svg overflow="visible" x="404.829" y="28.655"><path d="M5.656-2.172c0-.984-.953-2.047-2.187-2.297v.266c.984-.328 1.86-1.297 1.86-2.234 0-.985-1.235-1.782-2.391-1.782-1.204 0-2.313.844-2.313 1.75 0 .39.469.75.813.75.375 0 .796-.39.796-.734 0-.594-.75-.734-.656-.734.234-.36.89-.47 1.313-.47.484 0 .953.126.953 1.204 0 .14.031.734-.281 1.266-.36.578-.626.578-.922.578a4.76 4.76 0 01-.47.046c-.093.016-.374.157-.374.266 0 .14.281.266.484.266h.531c.985 0 1.22.687 1.22 1.86 0 1.624-.626 1.843-1.157 1.843-.516 0-1.266-.172-1.531-.61.125.016.687-.375.687-.828 0-.437-.515-.796-.86-.796-.28 0-.874.296-.874.812C.297-.656 1.609.266 2.922.266c1.453 0 2.734-1.22 2.734-2.438zm0 0"/></svg></g><g><svg overflow="visible" x="425.416" y="28.655"><path d="M5.656-2.172c0-.984-.953-2.047-2.187-2.297v.266c.984-.328 1.86-1.297 1.86-2.234 0-.985-1.235-1.782-2.391-1.782-1.204 0-2.313.844-2.313 1.75 0 .39.469.75.813.75.375 0 .796-.39.796-.734 0-.594-.75-.734-.656-.734.234-.36.89-.47 1.313-.47.484 0 .953.126.953 1.204 0 .14.031.734-.281 1.266-.36.578-.626.578-.922.578a4.76 4.76 0 01-.47.046c-.093.016-.374.157-.374.266 0 .14.281.266.484.266h.531c.985 0 1.22.687 1.22 1.86 0 1.624-.626 1.843-1.157 1.843-.516 0-1.266-.172-1.531-.61.125.016.687-.375.687-.828 0-.437-.515-.796-.86-.796-.28 0-.874.296-.874.812C.297-.656 1.609.266 2.922.266c1.453 0 2.734-1.22 2.734-2.438zm0 0"/></svg></g><g><svg overflow="visible" x="450.653" y="28.655"><path d="M5.688-3.953c0-.953-.063-1.922-.47-2.797-.562-1.156-1.734-1.469-2.234-1.469-.718 0-1.796.438-2.28 1.547-.376.828-.438 1.766-.438 2.719 0 .89.109 2.062.593 2.969.516.968 1.532 1.25 2.11 1.25.656 0 1.75-.391 2.281-1.516.375-.828.438-1.766.438-2.703zm-1.391-.14c0 .89 0 1.702-.125 2.468C4-.485 3.516-.265 2.969-.265 2.516-.266 2-.438 1.78-1.579c-.125-.719-.125-1.813-.125-2.516 0-.765 0-1.562.094-2.203.219-1.422.922-1.406 1.219-1.406.406 0 .984.094 1.219 1.266.109.671.109 1.578.109 2.343zm0 0"/></svg></g><g><svg overflow="visible" x="471.24" y="28.655"><path d="M5.688-3.953c0-.953-.063-1.922-.47-2.797-.562-1.156-1.734-1.469-2.234-1.469-.718 0-1.796.438-2.28 1.547-.376.828-.438 1.766-.438 2.719 0 .89.109 2.062.593 2.969.516.968 1.532 1.25 2.11 1.25.656 0 1.75-.391 2.281-1.516.375-.828.438-1.766.438-2.703zm-1.391-.14c0 .89 0 1.702-.125 2.468C4-.485 3.516-.265 2.969-.265 2.516-.266 2-.438 1.78-1.579c-.125-.719-.125-1.813-.125-2.516 0-.765 0-1.562.094-2.203.219-1.422.922-1.406 1.219-1.406.406 0 .984.094 1.219 1.266.109.671.109 1.578.109 2.343zm0 0"/></svg></g><g><svg overflow="visible" x="400.178" y="43.1"><path d="M5.656-2.172c0-.984-.953-2.047-2.187-2.297v.266c.984-.328 1.86-1.297 1.86-2.234 0-.985-1.235-1.782-2.391-1.782-1.204 0-2.313.844-2.313 1.75 0 .39.469.75.813.75.375 0 .796-.39.796-.734 0-.594-.75-.734-.656-.734.234-.36.89-.47 1.313-.47.484 0 .953.126.953 1.204 0 .14.031.734-.281 1.266-.36.578-.626.578-.922.578a4.76 4.76 0 01-.47.046c-.093.016-.374.157-.374.266 0 .14.281.266.484.266h.531c.985 0 1.22.687 1.22 1.86 0 1.624-.626 1.843-1.157 1.843-.516 0-1.266-.172-1.531-.61.125.016.687-.375.687-.828 0-.437-.515-.796-.86-.796-.28 0-.874.296-.874.812C.297-.656 1.609.266 2.922.266c1.453 0 2.734-1.22 2.734-2.438zm0 0"/></svg></g><g><svg overflow="visible" x="420.765" y="43.1"><path d="M8.828-3.125c0-.125-.312-.36-.437-.36H.906c-.125 0-.437.235-.437.36 0 .14.312.375.437.375h7.485c.125 0 .437-.234.437-.375zm0 0"/></svg><svg overflow="visible" x="430.066" y="43.1"><path d="M5.656-2.563c0-1.53-1.25-2.796-2.578-2.796-.812 0-1.469.734-1.703 1.312h.39v-.297c0-3.015 1.298-3.312 1.907-3.312.281 0 .64.031.75.203.125 0-.563.14-.563.672 0 .375.485.687.75.687.204 0 .75-.234.75-.703 0-.719-.718-1.422-1.718-1.422-1.532 0-3.344 1.672-3.344 4.313C.297-.72 1.89.266 3 .266c1.328 0 2.656-1.25 2.656-2.829zm-1.468-.015c0 .562 0 1.172-.204 1.594l.063-.094c-.36.719-.766.75-1.047.75-.75 0-.922-.594-.984-.766-.22-.562-.22-1.531-.22-1.734 0-.938.188-2 1.266-2 .188 0 .594-.031.97.703l-.063-.094c.219.438.219 1.047.219 1.64zm0 0"/></svg></g><g><svg overflow="visible" x="450.653" y="43.1"><path d="M5.656-2.172c0-.984-.953-2.047-2.187-2.297v.266c.984-.328 1.86-1.297 1.86-2.234 0-.985-1.235-1.782-2.391-1.782-1.204 0-2.313.844-2.313 1.75 0 .39.469.75.813.75.375 0 .796-.39.796-.734 0-.594-.75-.734-.656-.734.234-.36.89-.47 1.313-.47.484 0 .953.126.953 1.204 0 .14.031.734-.281 1.266-.36.578-.626.578-.922.578a4.76 4.76 0 01-.47.046c-.093.016-.374.157-.374.266 0 .14.281.266.484.266h.531c.985 0 1.22.687 1.22 1.86 0 1.624-.626 1.843-1.157 1.843-.516 0-1.266-.172-1.531-.61.125.016.687-.375.687-.828 0-.437-.515-.796-.86-.796-.28 0-.874.296-.874.812C.297-.656 1.609.266 2.922.266c1.453 0 2.734-1.22 2.734-2.438zm0 0"/></svg></g><g><svg overflow="visible" x="471.252" y="43.1"><path d="M5.688-3.953c0-.953-.063-1.922-.47-2.797-.562-1.156-1.734-1.469-2.234-1.469-.718 0-1.796.438-2.28 1.547-.376.828-.438 1.766-.438 2.719 0 .89.109 2.062.593 2.969.516.968 1.532 1.25 2.11 1.25.656 0 1.75-.391 2.281-1.516.375-.828.438-1.766.438-2.703zm-1.391-.14c0 .89 0 1.702-.125 2.468C4-.485 3.516-.265 2.969-.265 2.516-.266 2-.438 1.78-1.579c-.125-.719-.125-1.813-.125-2.516 0-.765 0-1.562.094-2.203.219-1.422.922-1.406 1.219-1.406.406 0 .984.094 1.219 1.266.109.671.109 1.578.109 2.343zm0 0"/></svg></g><g><svg overflow="visible" x="395.528" y="57.546"><path d="M8.828-3.125c0-.125-.312-.36-.437-.36H.906c-.125 0-.437.235-.437.36 0 .14.312.375.437.375h7.485c.125 0 .437-.234.437-.375zm0 0"/></svg><svg overflow="visible" x="404.829" y="57.546"><path d="M5.203-.125v-.516h-.578c-1.078 0-.922 0-.922-.437v-6.703c0-.282-.187-.438-.578-.438-.766.797-1.672.766-2.266.766v.625c.438 0 1.282-.031 1.563-.172v5.922c0 .437.172.437-.906.437H.937v.672C1.547-.03 2.595-.03 3.079-.03c.469 0 1.516 0 2.125.062zm0 0"/></svg></g><g><svg overflow="visible" x="425.416" y="57.546"><path d="M5.656-2.172c0-.984-.953-2.047-2.187-2.297v.266c.984-.328 1.86-1.297 1.86-2.234 0-.985-1.235-1.782-2.391-1.782-1.204 0-2.313.844-2.313 1.75 0 .39.469.75.813.75.375 0 .796-.39.796-.734 0-.594-.75-.734-.656-.734.234-.36.89-.47 1.313-.47.484 0 .953.126.953 1.204 0 .14.031.734-.281 1.266-.36.578-.626.578-.922.578a4.76 4.76 0 01-.47.046c-.093.016-.374.157-.374.266 0 .14.281.266.484.266h.531c.985 0 1.22.687 1.22 1.86 0 1.624-.626 1.843-1.157 1.843-.516 0-1.266-.172-1.531-.61.125.016.687-.375.687-.828 0-.437-.515-.796-.86-.796-.28 0-.874.296-.874.812C.297-.656 1.609.266 2.922.266c1.453 0 2.734-1.22 2.734-2.438zm0 0"/></svg></g><g><svg overflow="visible" x="446.003" y="57.546"><path d="M8.828-3.125c0-.125-.312-.36-.437-.36H.906c-.125 0-.437.235-.437.36 0 .14.312.375.437.375h7.485c.125 0 .437-.234.437-.375zm0 0"/></svg><svg overflow="visible" x="455.304" y="57.546"><path d="M5.656-2.172c0-.984-.953-2.047-2.187-2.297v.266c.984-.328 1.86-1.297 1.86-2.234 0-.985-1.235-1.782-2.391-1.782-1.204 0-2.313.844-2.313 1.75 0 .39.469.75.813.75.375 0 .796-.39.796-.734 0-.594-.75-.734-.656-.734.234-.36.89-.47 1.313-.47.484 0 .953.126.953 1.204 0 .14.031.734-.281 1.266-.36.578-.626.578-.922.578a4.76 4.76 0 01-.47.046c-.093.016-.374.157-.374.266 0 .14.281.266.484.266h.531c.985 0 1.22.687 1.22 1.86 0 1.624-.626 1.843-1.157 1.843-.516 0-1.266-.172-1.531-.61.125.016.687-.375.687-.828 0-.437-.515-.796-.86-.796-.28 0-.874.296-.874.812C.297-.656 1.609.266 2.922.266c1.453 0 2.734-1.22 2.734-2.438zm0 0"/></svg></g><g><svg overflow="visible" x="471.24" y="57.546"><path d="M5.203-.125v-.516h-.578c-1.078 0-.922 0-.922-.437v-6.703c0-.282-.187-.438-.578-.438-.766.797-1.672.766-2.266.766v.625c.438 0 1.282-.031 1.563-.172v5.922c0 .437.172.437-.906.437H.937v.672C1.547-.03 2.595-.03 3.079-.03c.469 0 1.516 0 2.125.062zm0 0"/></svg></g><g><svg overflow="visible" x="477.23" y="24.52"><path d="M4.328-.125v-18.063H.594c-.203 0-.563.282-.563.485s.36.484.563.484h2.625V0h1.11zm0 0"/></svg></g><g><svg overflow="visible" x="477.23" y="34.688"><path d="M4.14-12.219H3.22V0h1.11v-12.219zm0 0"/></svg></g><g><svg overflow="visible" x="477.23" y="43.244"><path d="M4.14-12.219H3.22V0h1.11v-12.219zm0 0"/></svg></g><g><svg overflow="visible" x="477.23" y="59.389"><path d="M4.328-.125v-18.063h-1.11V-.983H.595c-.203 0-.563.296-.563.5 0 .203.36.484.563.484h3.734zm0 0"/></svg></g><g><svg overflow="visible" x="487.861" y="35.978"><path d="M2.484-3.125c0-.344-.468-.766-.828-.766-.343 0-.828.422-.828.766 0 .36.485.766.828.766.36 0 .828-.407.828-.766zm0 0"/></svg></g><g><svg overflow="visible" x="493.839" y="35.978"><path d="M9.39-8.156c0-.094-.265-.266-.359-.266-.312 0-.656.031-.969.031-.406 0-.812-.03-1.187-.03-.078 0-.438.124-.438.358 0 .126.313.266.407.266.312.031.343.016.343.266 0 .187.157.547.157.547l-.282-.188-3.671 5.828.343.094-.812-6.313c0-.203.078-.234.625-.234.172 0 .5-.125.5-.36 0-.109-.297-.265-.36-.265-.484 0-1 .031-1.484.031-.219 0-.453-.015-.656-.015-.219 0-.453-.016-.656-.016-.079 0-.422.125-.422.36 0 .14.312.265.5.265.672 0 .484-.016.515.281L2.422-.14c.047.235.297.407.453.407.188 0 .36-.094.453-.25l4.313-6.86c.578-.922.953-.922 1.39-.953.156-.016.297-.266.297-.266zm0 0"/></svg></g></svg>