<svg xmlns="http://www.w3.org/2000/svg" xmlns:xlink="http://www.w3.org/1999/xlink" width="276" height="41px" viewBox="0 0 207 31"><svg overflow="visible" x=".566" y="17.454"><path d="M.313.031C.671.016 1.046 0 1.405 0c.64 0 1.266.031 1.922.031.563 0 1.25-.156 1.813-.5.937-.562 1.515-1.469 1.515-2.375 0-.515-.218-1-.531-1.265-.313-.25-.797-.391-1.625-.516v.266c.688-.25 1.094-.438 1.469-.75.547-.485.875-1.125.875-1.735 0-.984-1.125-1.687-2.047-1.687-.594 0-1.203.031-1.797.031-.61 0-1.203-.016-1.969-.047l-.062.61.828.03c.281 0 .234-.03.234.188 0 .172-.047.547-.11.907L.892-.782c-.047.204-.016.157-.672.266l-.11.579zm1.843-.656l.578-3.438h.875c1.235 0 1.657.375 1.657 1.407 0 1.234-.704 1.984-1.891 1.984-.25 0-.594-.015-.984-.047-.079-.015-.22-.015-.22-.015zm.672-4l.563-3.14c.187 0 .5-.063.812-.063.969 0 1.266.297 1.266 1.187 0 1.266-.703 1.891-2.188 1.891H2.86zm0 0"/></svg><svg overflow="visible" x="7.871" y="17.454"><path d="M0-1.469C0-.547.703.125 1.563.125c.687 0 1.468-.36 2.64-1.313L4-1.688l-.5.344c-.625.453-1.078.657-1.5.657-.578 0-.75-.313-.75-1.047 0-.313.031-.61.078-.86l.828-.203c.203-.047.516-.172.828-.297C4-3.547 4.641-4.219 4.641-4.954c0-.562-.563-1.077-1.172-1.077-.781 0-2.219.843-2.688 1.61C.421-3.845 0-2.313 0-1.47zm1.406-1.5l.11-.437c.187-.797.39-1.219.703-1.516.234-.219.5-.344.797-.344.343 0 .39.11.39.5 0 .516-.234.954-.86 1.25a6.042 6.042 0 01-1.093.375zm.485-3.375h.453l2-1.25c.265-.156.39-.36.39-.531 0-.188-.39-.5-.625-.5-.109 0-.375.11-.53.25L1.53-6.344zm0 0"/></svg><svg overflow="visible" x="12.521" y="17.454"><path d="M-.188-.375L0 .203c.563-.437.766-.516 1.188-.516.296 0 .625.047 1.25.204.718.171 1.093.234 1.406.234.156 0 .25-.016.75-.156.156-.828.25-1.235.422-1.922h-.61l-.312.844c-.078.218-.032.171-.282.171-.265 0-.53-.078-.796-.14-.391-.078-.797-.14-1.032-.14-.375 0-.703.077-1.14.25l.125.234L5.062-5.36l.079-.47-.282-.28-.406.39c-.11.125-.11.14-.266.14-.406 0-1.03-.093-1.609-.25-.312-.093-.625-.202-.953-.202-.203 0-.438.047-.89.156L.296-4.187h.562l.375-.72c.094-.015.204-.03.36-.03s.297.015.531.062c.406.078.719.125.969.125.437 0 .844-.11 1.234-.313l-.25-.203-4.281 4.86zm0 0"/></svg><svg overflow="visible" x="17.829" y="17.454"><path d="M.234-4.766l.157.47.593-.391c.36-.22.36-.235.47-.235.109 0 .015-.031.015.11 0 .109-.047.359-.094.53L.578-1.405c-.094.375-.14.672-.14.922 0 .28.296.593.53.593.313 0 .876-.296 2.11-1.218l-.265-.47-.5.329c-.36.234-.47.313-.594.313-.078 0 .015.03.015-.11 0-.11.016-.203.079-.469l.921-3.64c.047-.203.079-.313.079-.422 0-.203-.266-.453-.47-.453-.265 0-.827.281-1.734.922l-.39.296zm1.641-2.578c0 .297.36.625.656.625.375 0 .813-.484.813-.937 0-.282-.344-.61-.594-.61-.36 0-.875.516-.875.922zm0 0"/></svg><svg overflow="visible" x="21.153" y="17.454"><path d="M0-1.469C0-.547.703.125 1.563.125c.687 0 1.468-.36 2.64-1.313L4-1.688l-.5.344c-.625.453-1.078.657-1.5.657-.578 0-.75-.313-.75-1.047 0-.313.031-.61.078-.86l.828-.203c.203-.047.516-.172.828-.297C4-3.547 4.641-4.219 4.641-4.954c0-.562-.563-1.077-1.172-1.077-.781 0-2.219.843-2.688 1.61C.421-3.845 0-2.313 0-1.47zm1.406-1.5l.11-.437c.187-.797.39-1.219.703-1.516.234-.219.5-.344.797-.344.343 0 .39.11.39.5 0 .516-.234.954-.86 1.25a6.042 6.042 0 01-1.093.375zm0 0"/></svg><svg overflow="visible" x="25.803" y="17.454"><path d="M.125-4.766l.172.47.594-.391c.343-.22.359-.235.453-.235.125 0 .031-.031.031.125 0 .703-.516 3.156-1 4.734l.266.188a5.85 5.85 0 01.984-.219l.328-1.547c.219-.984.453-1.53.969-2.203.406-.531.61-.75.875-.75.187 0 .172.032.344.235h.406c.062-.594.11-.97.219-1.516-.313-.14-.36-.156-.422-.156-.36 0-.86.328-1.297.937-.406.594-.875 1.25-1.172 1.907h.344l.312-1.516c.063-.25.14-.531.14-.813 0-.234-.25-.515-.437-.515-.25 0-.828.297-1.718.922l-.391.296zm0 0"/></svg><svg overflow="visible" x="30.453" y="17.454"><path d="M4.203-7.828a.735.735 0 01-.187-.14c-.063-.063-.11-.126-.22-.329-1.593 1.61-2.5 3.266-2.5 4.781v.797c0 1.516.907 3.172 2.5 4.781.11-.203.157-.265.22-.328.062-.062.125-.109.312-.203C2.875.063 2.281-1.344 2.281-2.719v-.797c0-1.39.594-2.78 2.047-4.25zm0 0"/></svg><svg overflow="visible" x="35.522" y="17.454"><path d="M6.234-1.25l-.171-.297-.454.297c-.343.219-.5.313-.625.313-.078 0-.03.03-.03-.11 0-.047.015-.187.03-.234l.782-3.297c.093-.344.14-.688.14-.89 0-.266-.265-.563-.5-.563-.5 0-1.437.5-2.14 1.156-.454.422-.797.828-1.407 1.703l.235.094.453-1.938c.047-.203.078-.343.078-.484 0-.25-.234-.531-.406-.531-.266 0-.828.312-1.703.922l-.391.296.172.485.547-.36c.437-.28.39-.265.469-.265.14 0 .078 0 .078.172 0 .61-.5 2.922-.985 4.656l.172.25c.36-.094.625-.172 1.016-.234.234-1.625.468-2.313 1-3.125.656-1.016 1.453-1.72 1.984-1.72.125 0 .063-.015.063.157 0 .219-.032.469-.141.86l-.61 2.53c-.109.438-.156.72-.156.907 0 .297.266.61.5.61.313 0 .829-.282 2.079-1.22zm0 0"/></svg><svg overflow="visible" x="42.169" y="17.454"><path d="M2.703-1.531L2.47-1.75c-.36.125-.563.203-1.328.406C1.047-.328.78.344.016 1.625l.312.25.61-.281C1.905.328 2.405-.516 2.75-1.47zm0 0"/></svg><svg overflow="visible" x="47.142" y="17.454"><path d="M3.703-5.516c-.453.047-.86.063-1.156.063.172-.984.297-1.578.531-2.25l-.25-.328a7.16 7.16 0 01-1.094.531l-.296 2.031c-.391.203-.704.328-1.063.407l-.047.406h1l-.64 3.25C.625-1.11.53-.813.53-.5c0 .297.266.61.5.61.422 0 .922-.282 1.86-1.032.218-.172.14-.125.437-.36l-.25-.437-.672.469c-.36.25-.484.313-.625.313-.093 0-.031.046-.031-.11 0-.297.156-1.234.516-3l.14-.61h1.266l.203-.89zm0 0"/></svg><svg overflow="visible" x="51.183" y="17.454"><path d="M3.766-2.719v-.797c0-1.515-.907-3.171-2.516-4.78-.11.202-.156.265-.203.327-.063.063-.125.11-.313.203 1.438 1.47 2.032 2.86 2.032 4.25v.797c0 1.375-.594 2.781-2.032 4.25.188.094.25.14.313.203.047.063.094.125.203.329C2.86.452 3.766-1.204 3.766-2.72zm0 0"/></svg><svg overflow="visible" x="59.576" y="17.454"><path d="M8.266-4.078a1.419 1.419 0 01-.047-.36c0-.109.015-.234.062-.484h-7.5c.063.25.063.375.063.484 0 .125 0 .235-.063.5h7.5zm0 2.625a1.332 1.332 0 01-.047-.36c0-.109.015-.234.062-.484h-7.5c.063.25.063.375.063.485 0 .125 0 .25-.063.5h7.5zm0 0"/></svg><svg overflow="visible" x="76.668" y="4.331"><path d="M5.14-.984l-.156-.25-.406.25c-.281.156-.375.218-.469.218-.062 0 .016.063.016-.046 0-.032-.031-.032.031-.157l.625-2.453c.078-.25.11-.5.11-.656 0-.203-.25-.453-.438-.453-.406 0-1.187.375-1.766.86-.359.312-.64.608-1.124 1.25l.265.108.36-1.421c.046-.172.062-.266.062-.375 0-.188-.234-.422-.375-.422-.203 0-.703.234-1.39.687l-.344.235.172.421.5-.28c.343-.22.265-.188.343-.188.094 0 .016-.047.016.078 0 .453-.406 2.156-.813 3.453l.172.219c.313-.078.531-.125.875-.188.203-1.218.375-1.703.797-2.312.531-.735 1.14-1.25 1.578-1.25.094 0 0-.063 0 .078 0 .156-.015.344-.11.625l-.5 1.875c-.077.328-.124.531-.124.672 0 .219.265.484.453.484.25 0 .703-.219 1.734-.922zm0 0"/></svg><svg overflow="visible" x="71.989" y="17.454"><path d="M13.938 2.344h-.61l-.094.937c-.093.922-.156.86-3.625.86H2.531l5.11-7.672-4.72-7.453h5.767c3.343 0 3.578-.032 3.624.53l.094 1.126h.75a16.115 16.115 0 01-.062-1.281c0-.36.015-.61.062-1.266l-8.984.047-3.281-.047-.079.563 5.313 8.39L.812 5.063v.578l7.344-.063 5.828.063c0-1.344.016-2.407.094-3.297zm0 0"/></svg><svg overflow="visible" x="72.125" y="30.615"><path d="M2.516-.984l-.157-.25-.406.25c-.297.171-.375.218-.469.218-.078 0 .016.063.016-.046 0-.079.016-.157.063-.344l.75-2.688c.046-.156.062-.234.062-.328 0-.14-.234-.36-.39-.36-.22 0-.688.22-1.407.688l-.344.235.172.421.5-.28c.266-.173.266-.173.344-.173.11 0 0-.062 0 .047 0 .078-.031.266-.063.39l-.64 2.126c-.094.281-.125.5-.125.687 0 .204.266.47.437.47.266 0 .72-.235 1.735-.923zm.28-4.72c0-.202-.28-.484-.483-.484-.297 0-.735.422-.735.72 0 .218.313.5.547.5.313 0 .672-.391.672-.735zm0 0"/></svg><svg overflow="visible" x="75.027" y="30.615"><path d="M6.156-3.047c-.015-.094-.015-.187-.015-.265 0-.094 0-.188.046-.407H.516c.046.219.062.313.062.406 0 .079-.015.172-.062.391h5.671zm0 1.938c-.015-.079-.015-.172-.015-.266 0-.078 0-.172.046-.39H.516c.046.218.062.312.062.39 0 .094-.015.188-.062.406h5.671zm0 0"/></svg><svg overflow="visible" x="81.75" y="30.615"><path d="M4.719-3.375c0-1.938-.782-2.984-2.094-2.984C1.125-6.36.219-5.141.219-3c0 1.031.234 2.031.578 2.453.328.438.984.719 1.578.719 1.469 0 2.344-1.281 2.344-3.547zm-1.125.453c0 1.875-.203 2.531-1.078 2.531-.938 0-1.188-.765-1.188-2.921 0-1.876.203-2.47 1.125-2.47.938 0 1.14.735 1.14 2.86zm0 0"/></svg><svg overflow="visible" x="88.878" y="17.454"><path d="M7.063-17.313c-.063-.046-.125-.093-.188-.156-.063-.047-.11-.11-.219-.312C3.47-14.594 1.563-10.328 1.563-5.5v4.766c0 4.828 1.906 9.093 5.093 12.28.11-.202.157-.265.219-.327.063-.047.125-.11.313-.203C4.14 7.953 2.796 3.89 2.796-.734V-5.5c0-4.64 1.344-8.688 4.39-11.766zm0 0"/></svg><svg overflow="visible" x="96.996" y="8.845"><path d="M6.234-1.25l-.171-.297-.454.297c-.343.219-.5.313-.625.313-.078 0-.03.03-.03-.11 0-.047.015-.187.03-.234l.782-3.297c.093-.344.14-.688.14-.89 0-.266-.265-.563-.5-.563-.5 0-1.437.5-2.14 1.156-.454.422-.797.828-1.407 1.703l.235.094.453-1.938c.047-.203.078-.343.078-.484 0-.25-.234-.531-.406-.531-.266 0-.828.312-1.703.922l-.391.296.172.485.547-.36c.437-.28.39-.265.469-.265.14 0 .078 0 .078.172 0 .61-.5 2.922-.985 4.656l.172.25c.36-.094.625-.172 1.016-.234.234-1.625.468-2.313 1-3.125.656-1.016 1.453-1.72 1.984-1.72.125 0 .063-.015.063.157 0 .219-.032.469-.141.86l-.61 2.53c-.109.438-.156.72-.156.907 0 .297.266.61.5.61.313 0 .829-.282 2.079-1.22zm0 0"/></svg><svg overflow="visible" x="98.562" y="25.417"><path d="M2.969-1.25l-.172-.297-.453.297c-.36.234-.5.313-.625.313-.078 0-.016.03-.016-.11 0-.11 0-.203.078-.469l.922-3.64c.047-.203.063-.313.063-.422 0-.203-.22-.453-.422-.453-.266 0-.797.281-1.703.922l-.407.296.188.485.547-.36c.344-.218.375-.234.484-.234.11 0 .047-.031.047.11 0 .109-.047.359-.094.53L.625-1.405c-.11.375-.156.672-.156.922 0 .28.265.593.5.593.312 0 .844-.296 2.078-1.218zm.344-6.406c0-.282-.313-.61-.563-.61-.36 0-.844.516-.844.922 0 .297.328.625.625.625.375 0 .781-.484.781-.937zm0 0"/></svg><svg overflow="visible" x="103.643" y="17.454"><path d="M6.531-.734V-5.5c0-4.828-1.875-9.094-5.078-12.281-.11.203-.156.265-.219.312-.062.063-.125.11-.312.203 3.062 3.078 4.39 7.125 4.39 11.766v4.766c0 4.625-1.328 8.687-4.39 11.75.187.093.25.156.312.203.063.062.11.125.22.328C4.655 8.359 6.53 4.094 6.53-.734zm0 0"/></svg><svg overflow="visible" x="114.415" y="17.454"><path d="M2.516-3.125c0-.422-.407-.844-.844-.844-.422 0-.86.422-.86.844 0 .438.438.86.86.86.437 0 .844-.422.844-.86zm0 0"/></svg><svg overflow="visible" x="120.416" y="17.454"><path d="M4.203-7.828a.735.735 0 01-.187-.14c-.063-.063-.11-.126-.22-.329-1.593 1.61-2.5 3.266-2.5 4.781v.797c0 1.516.907 3.172 2.5 4.781.11-.203.157-.265.22-.328.062-.062.125-.109.312-.203C2.875.063 2.281-1.344 2.281-2.719v-.797c0-1.39.594-2.78 2.047-4.25zm0 0"/></svg><svg overflow="visible" x="125.485" y="17.454"><path d="M5.125-.094v-.484l-.75-.047c-.656-.031-.64-.031-.64-.656v-7.172l-.313-.125c-.875.469-1.61.781-2.86 1.219l.125.718h.235l1.547-.687.031-.016c.063 0-.047-.015-.047.266v5.797c0 .625.016.625-.64.656L1-.578v.625L3.125 0l2 .047zm0 0"/></svg><svg overflow="visible" x="134.117" y="17.454"><path d="M8.266-2.766a1.332 1.332 0 01-.047-.359c0-.11.015-.234.062-.484h-7.5c.063.25.063.375.063.484 0 .125 0 .25-.063.5h7.5zm0 0"/></svg><g><svg overflow="visible" x="145.857" y="17.454"><path d="M3.703-5.516c-.453.047-.86.063-1.156.063.172-.984.297-1.578.531-2.25l-.25-.328a7.16 7.16 0 01-1.094.531l-.296 2.031c-.391.203-.704.328-1.063.407l-.047.406h1l-.64 3.25C.625-1.11.53-.813.53-.5c0 .297.266.61.5.61.422 0 .922-.282 1.86-1.032.218-.172.14-.125.437-.36l-.25-.437-.672.469c-.36.25-.484.313-.625.313-.093 0-.031.046-.031-.11 0-.297.156-1.234.516-3l.14-.61h1.266l.203-.89zm0 0"/></svg></g><g><svg overflow="visible" x="149.898" y="17.454"><path d="M3.766-2.719v-.797c0-1.515-.907-3.171-2.516-4.78-.11.202-.156.265-.203.327-.063.063-.125.11-.313.203 1.438 1.47 2.032 2.86 2.032 4.25v.797c0 1.375-.594 2.781-2.032 4.25.188.094.25.14.313.203.047.063.094.125.203.329C2.86.452 3.766-1.204 3.766-2.72zm0 0"/></svg></g><g><svg overflow="visible" x="154.978" y="13.221"><path d="M5.14-.984l-.156-.25-.406.25c-.281.156-.375.218-.469.218-.062 0 .016.063.016-.046 0-.032-.031-.032.031-.157l.625-2.453c.078-.25.11-.5.11-.656 0-.203-.25-.453-.438-.453-.406 0-1.187.375-1.766.86-.359.312-.64.608-1.124 1.25l.265.108.36-1.421c.046-.172.062-.266.062-.375 0-.188-.234-.422-.375-.422-.203 0-.703.234-1.39.687l-.344.235.172.421.5-.28c.343-.22.265-.188.343-.188.094 0 .016-.047.016.078 0 .453-.406 2.156-.813 3.453l.172.219c.313-.078.531-.125.875-.188.203-1.218.375-1.703.797-2.312.531-.735 1.14-1.25 1.578-1.25.094 0 0-.063 0 .078 0 .156-.015.344-.11.625l-.5 1.875c-.077.328-.124.531-.124.672 0 .219.265.484.453.484.25 0 .703-.219 1.734-.922zm0 0"/></svg><svg overflow="visible" x="160.516" y="13.221"><path d="M6.156-2.078c-.015-.094-.015-.172-.015-.266 0-.094 0-.172.046-.39H.516c.046.218.062.296.062.39 0 .094-.015.172-.062.39h5.671zm0 0"/></svg><svg overflow="visible" x="167.24" y="13.221"><path d="M2.516-.984l-.157-.25-.406.25c-.297.171-.375.218-.469.218-.078 0 .016.063.016-.046 0-.079.016-.157.063-.344l.75-2.688c.046-.156.062-.234.062-.328 0-.14-.234-.36-.39-.36-.22 0-.688.22-1.407.688l-.344.235.172.421.5-.28c.266-.173.266-.173.344-.173.11 0 0-.062 0 .047 0 .078-.031.266-.063.39l-.64 2.126c-.094.281-.125.5-.125.687 0 .204.266.47.437.47.266 0 .72-.235 1.735-.923zm.28-4.72c0-.202-.28-.484-.483-.484-.297 0-.735.422-.735.72 0 .218.313.5.547.5.313 0 .672-.391.672-.735zm0 0"/></svg></g><g><svg overflow="visible" x="173.296" y="17.454"><path d="M2.516-3.125c0-.422-.407-.844-.844-.844-.422 0-.86.422-.86.844 0 .438.438.86.86.86.437 0 .844-.422.844-.86zm0 0"/></svg></g><g><svg overflow="visible" x="179.298" y="17.454"><path d="M3.703-5.516c-.453.047-.86.063-1.156.063.172-.984.297-1.578.531-2.25l-.25-.328a7.16 7.16 0 01-1.094.531l-.296 2.031c-.391.203-.704.328-1.063.407l-.047.406h1l-.64 3.25C.625-1.11.53-.813.53-.5c0 .297.266.61.5.61.422 0 .922-.282 1.86-1.032.218-.172.14-.125.437-.36l-.25-.437-.672.469c-.36.25-.484.313-.625.313-.093 0-.031.046-.031-.11 0-.297.156-1.234.516-3l.14-.61h1.266l.203-.89zm0 0"/></svg></g><g><svg overflow="visible" x="183.342" y="13.221"><path d="M2.516-.984l-.157-.25-.406.25c-.297.171-.375.218-.469.218-.078 0 .016.063.016-.046 0-.079.016-.157.063-.344l.75-2.688c.046-.156.062-.234.062-.328 0-.14-.234-.36-.39-.36-.22 0-.688.22-1.407.688l-.344.235.172.421.5-.28c.266-.173.266-.173.344-.173.11 0 0-.062 0 .047 0 .078-.031.266-.063.39l-.64 2.126c-.094.281-.125.5-.125.687 0 .204.266.47.437.47.266 0 .72-.235 1.735-.923zm.28-4.72c0-.202-.28-.484-.483-.484-.297 0-.735.422-.735.72 0 .218.313.5.547.5.313 0 .672-.391.672-.735zm0 0"/></svg></g><g><svg overflow="visible" x="189.399" y="17.454"><path d="M2.516-3.125c0-.422-.407-.844-.844-.844-.422 0-.86.422-.86.844 0 .438.438.86.86.86.437 0 .844-.422.844-.86zm0 0"/></svg></g><g><svg overflow="visible" x="195.401" y="17.454"><path d="M8.484-4.719c0-.687-.437-1.312-.875-1.312-.156 0-.406.093-.5.187l-.671.625.265.453c.25-.171.266-.171.375-.171.328 0 .375.14.375.625 0 1.734-1.016 3.578-2.031 3.578-.36 0-.469-.344-.469-1 0-.563.11-1.344.25-1.86l.625-2.234-.187-.219-1.032.313-.375 1.89c-.14.735-.28 1.125-.625 1.766-.484.89-.828 1.344-1.187 1.344-.406 0-.563-.329-.563-1.016 0-1.422.454-2.5 1.704-3.906l-.235-.407c-.281.141-.437.188-.765.188-.5 0-.985-.047-1.47-.094-.155 0-.25.032-.5.125-.155.328-.327.844-.515 1.64h.5l.266-.64c.094-.203.203-.203.484-.203.219 0 .438.031.672.031.25 0 .406-.015.422-.015.062-.11-.063.015-.188.172C1.156-3.61.72-2.656.72-1.641c0 .985.562 1.766 1.187 1.766.766 0 1.485-.688 2.375-2.39l-.234-.094c-.11.515-.156.812-.156 1.093 0 .75.5 1.391 1.03 1.391.97 0 2.36-1.328 3.095-2.969.265-.594.468-1.406.468-1.875zm0 0"/></svg></g><g><svg overflow="visible" x="204.035" y="20.228"><path d="M2.516-.984l-.157-.25-.406.25c-.297.171-.375.218-.469.218-.078 0 .016.063.016-.046 0-.079.016-.157.063-.344l.75-2.688c.046-.156.062-.234.062-.328 0-.14-.234-.36-.39-.36-.22 0-.688.22-1.407.688l-.344.235.172.421.5-.28c.266-.173.266-.173.344-.173.11 0 0-.062 0 .047 0 .078-.031.266-.063.39l-.64 2.126c-.094.281-.125.5-.125.687 0 .204.266.47.437.47.266 0 .72-.235 1.735-.923zm.28-4.72c0-.202-.28-.484-.483-.484-.297 0-.735.422-.735.72 0 .218.313.5.547.5.313 0 .672-.391.672-.735zm0 0"/></svg></g></svg>