<svg xmlns="http://www.w3.org/2000/svg" xmlns:xlink="http://www.w3.org/1999/xlink" width="93px" height="17px" viewBox="0 0 70 13"><svg overflow="visible" x="-.415" y="9.082"><path d="M6.797-7.734c0-.547-.75-.954-1.234-.954-.407 0-1.36.344-1.72 1.532-.077.25-.109.36-.374 1.734h-.64c-.235 0-.563.14-.563.36 0 .156.296.28.53.28h.563L2.484-.186c-.218 1.156-.218 2.109-.828 2.109-.047 0-.218.031-.218.031.187-.016.484-.578.484-.766 0-.265-.406-.546-.625-.546-.313 0-.86.406-.86.859 0 .531.72.953 1.22.953.655 0 1.312-.844 1.687-1.61.172-.343.5-1.89.515-1.968l.688-3.656h.875c.234 0 .547-.125.547-.375 0-.125-.313-.266-.516-.266h-.781c.11-.547.094-.531.234-1.219.047-.25.157-1.015.219-1.156l.063-.094c.109-.218.125-.265.375-.265.046 0 .203-.047.218-.031-.156.03-.484.578-.484.75 0 .28.422.546.64.546.313 0 .86-.39.86-.843zm0 0"/></svg><svg overflow="visible" x="6.519" y="9.082"><path d="M4.156 2.719c0-.047-.078-.172-.11-.203-1.234-.922-2-3.22-2-5.141v-1c0-1.906.767-4.203 2-5.14a.457.457 0 00.11-.188c0-.063-.25-.25-.312-.25a1.01 1.01 0 00-.203.062C2.312-8.156 1-5.67 1-3.625v1C1-.578 2.313 1.906 3.64 2.906c.016.016.188.063.204.063.062 0 .312-.203.312-.25zm0 0"/></svg><svg overflow="visible" x="11.17" y="9.082"><path d="M6.484-4.625c0-.625-.89-.922-1.296-.922-.688 0-1.25.672-1.235.61-.125-.36-.969-.61-1.312-.61-1.235 0-2.125 1.672-2.125 1.969 0 .125.468.219.468.219l-.125.03c.094 0 .329-.155.344-.25.406-1.28 1.016-1.437 1.422-1.437.219 0 .438-.03.438.672 0 .36-.204 1.172-.641 2.844-.203.734-.406 1.11-.938 1.11-.078 0-.218.03-.218.03-.079.016.375-.374.375-.703 0-.328-.454-.546-.641-.546-.36 0-.86.437-.86.828 0 .547.797.906 1.329.906.797 0 1.36-.86 1.39-.938l-.343-.093c.156.437.78 1.031 1.5 1.031 1.234 0 2.109-1.672 2.109-1.969 0-.11-.297-.25-.344-.25-.11 0-.328.188-.36.266-.39 1.281-1 1.437-1.374 1.437-.469 0-.469-.25-.469-.656 0-.266.063-.531.203-1.062l.406-1.625c.063-.313.157-1.282.985-1.282a.604.604 0 00.187-.046c.079 0-.359.421-.359.718 0 .188.328.547.656.547.266 0 .828-.344.828-.828zm0 0"/></svg><svg overflow="visible" x="18.008" y="9.082"><path d="M3.64-2.625v-1c0-2.047-1.328-4.531-2.64-5.516a.774.774 0 00-.203-.062c-.063 0-.313.187-.313.25 0 .031.079.172.094.187 1.25.938 2.016 3.235 2.016 5.141v1c0 1.922-.766 4.219-2.016 5.14-.015.032-.094.157-.094.204 0 .047.25.25.313.25A.774.774 0 001 2.906c1.313-1 2.64-3.484 2.64-5.531zm0 0"/></svg><svg overflow="visible" x="25.97" y="9.082"><path d="M8.828-4.281c0-.125-.312-.375-.437-.375H.906c-.125 0-.437.25-.437.375 0 .14.312.375.437.375h7.485c.125 0 .437-.235.437-.375zm0 2.328c0-.14-.312-.375-.437-.375H.906c-.125 0-.437.234-.437.375 0 .125.312.36.437.36h7.485c.125 0 .437-.235.437-.36zm0 0"/></svg><g><svg overflow="visible" x="38.602" y="9.082"><path d="M5.016-1.563c0-.109-.25-.265-.282-.265-.109 0-.28.187-.328.328-.265.86-.734 1.063-1.375 1.063-.734 0-1.547-.485-1.547-2.297 0-1.985.86-2.329 1.454-2.329.453 0 1 .141 1.109.344.14 0-.469.157-.469.64 0 .282.36.641.656.641.266 0 .657-.312.657-.656 0-.812-1-1.531-1.97-1.531-1.39 0-2.671 1.39-2.671 2.906C.25-1.188 1.563.125 2.922.125c1.578 0 2.094-1.578 2.094-1.688zm0 0"/></svg><svg overflow="visible" x="43.803" y="9.082"><path d="M5.64-2.703c0-1.547-1.327-2.922-2.718-2.922C1.5-5.625.187-4.203.187-2.703c0 1.531 1.36 2.828 2.735 2.828 1.406 0 2.719-1.313 2.719-2.828zm-1.234-.11c0 .422.047 1.063-.265 1.626-.329.562-.766.75-1.22.75-.437 0-.858-.141-1.218-.735-.312-.531-.281-1.14-.281-1.64 0-.454-.047-1.079.328-1.61.328-.516.75-.672 1.172-.672.453 0 .844.188 1.172.64.36.563.312 1.204.312 1.641zm0 0"/></svg><svg overflow="visible" x="49.661" y="9.082"><path d="M4.36-1.656c0-.657-.438-1.14-.548-1.25-.437-.375-.859-.485-1.656-.625-.344-.078-1.062-.094-1.062-.813 0-.36.093-.765 1.172-.765 1.296 0 1.203.968 1.218 1.328.016.094.266.25.313.25.125 0 .281-.203.281-.422v-1.25c0-.219-.156-.422-.281-.422-.094 0-.438.313-.438.313-.234-.204-.703-.313-1.093-.313-1.438 0-2.032.938-2.032 1.594 0 .14.047.656.5 1.078.375.328.907.453 1.454.562.656.125.687.125.984.375.219.172.328.329.328.672 0 .5-.125.922-1.188.922-.78 0-1.203-.297-1.468-1.484-.047-.219-.11-.14-.11-.14v-.22C.72-2.312.563-2.359.531-2.359c-.14 0-.297.218-.297.437v1.625c0 .219.157.422.282.422.062 0 .171-.047.375-.297.062-.094.062-.11.125-.172.343.422 1.109.469 1.312.469 1.25 0 2.031-.844 2.031-1.781zm0 0"/></svg></g><g><svg overflow="visible" x="54.275" y="9.082"><path d="M4.156 2.719c0-.047-.078-.172-.11-.203-1.234-.922-2-3.22-2-5.141v-1c0-1.906.767-4.203 2-5.14a.457.457 0 00.11-.188c0-.063-.25-.25-.312-.25a1.01 1.01 0 00-.203.062C2.312-8.156 1-5.67 1-3.625v1C1-.578 2.313 1.906 3.64 2.906c.016.016.188.063.204.063.062 0 .312-.203.312-.25zm0 0"/></svg><svg overflow="visible" x="58.926" y="9.082"><path d="M6.484-4.625c0-.625-.89-.922-1.296-.922-.688 0-1.25.672-1.235.61-.125-.36-.969-.61-1.312-.61-1.235 0-2.125 1.672-2.125 1.969 0 .125.468.219.468.219l-.125.03c.094 0 .329-.155.344-.25.406-1.28 1.016-1.437 1.422-1.437.219 0 .438-.03.438.672 0 .36-.204 1.172-.641 2.844-.203.734-.406 1.11-.938 1.11-.078 0-.218.03-.218.03-.079.016.375-.374.375-.703 0-.328-.454-.546-.641-.546-.36 0-.86.437-.86.828 0 .547.797.906 1.329.906.797 0 1.36-.86 1.39-.938l-.343-.093c.156.437.78 1.031 1.5 1.031 1.234 0 2.109-1.672 2.109-1.969 0-.11-.297-.25-.344-.25-.11 0-.328.188-.36.266-.39 1.281-1 1.437-1.374 1.437-.469 0-.469-.25-.469-.656 0-.266.063-.531.203-1.062l.406-1.625c.063-.313.157-1.282.985-1.282a.604.604 0 00.187-.046c.079 0-.359.421-.359.718 0 .188.328.547.656.547.266 0 .828-.344.828-.828zm0 0"/></svg><svg overflow="visible" x="65.764" y="9.082"><path d="M3.64-2.625v-1c0-2.047-1.328-4.531-2.64-5.516a.774.774 0 00-.203-.062c-.063 0-.313.187-.313.25 0 .031.079.172.094.187 1.25.938 2.016 3.235 2.016 5.141v1c0 1.922-.766 4.219-2.016 5.14-.015.032-.094.157-.094.204 0 .047.25.25.313.25A.774.774 0 001 2.906c1.313-1 2.64-3.484 2.64-5.531zm0 0"/></svg></g></svg>