<svg xmlns="http://www.w3.org/2000/svg" xmlns:xlink="http://www.w3.org/1999/xlink" width="340" height="64" viewBox="0 0 255 48"><svg overflow="visible" x=".369" y="8.745"><path d="M.64.031C1.329.016 2 0 2.673 0c.687 0 1.36.016 2.031.031L4.75-.28l-.844-.047c-.547-.047-.703-.156-.703-.578 0-.14.016-.219.094-.719l.89-5.219.282-1.375-.172-.14-1.203.5c-.453.187-.813.28-1.672.5l-.281.062L1-6.594l.094.063 1-.485c.922-.453.719-.296 1.234-.5L2.297-1.219c-.094.625-.203.766-.578.813L.703-.281zm0 0"/></svg><svg overflow="visible" x="6.347" y="8.745"><path d="M.594 0h4.781v-5.781H.594zm.594-.594v-4.593H4.78v4.593zm0 0"/></svg><svg overflow="visible" x="15.646" y="8.745"><path d="M8.125-3.938c-.016-.124-.031-.25-.031-.359 0-.125.015-.25.031-.36H.953c.031.11.031.235.031.36 0 .11 0 .234-.03.36zm0 2.626c-.016-.125-.031-.235-.031-.36s.015-.234.031-.36H.953a1.4 1.4 0 01.031.36c0 .125 0 .234-.03.36zm0 0"/></svg><svg overflow="visible" x="28.044" y="8.745"><path d="M4.11-7.61a.735.735 0 01-.188-.14c-.063-.063-.11-.11-.14-.188-1.47 1.47-2.345 3.032-2.345 4.563v.781c0 1.516.875 3.078 2.344 4.547a.735.735 0 01.14-.187.735.735 0 01.188-.141C2.781.281 2.156-1.203 2.156-2.594v-.781c0-1.39.625-2.89 1.953-4.234zm0 0"/></svg><svg overflow="visible" x="33.113" y="8.745"><path d="M5 .031v-.36l-.625-.03c-.656-.032-.781-.172-.781-.782v-7.093l-.156-.063c-.782.406-1.626.766-2.72 1.156l.079.5h.125l1.547-.687.031-.016c.063 0 .094.11.094.407v5.796c0 .61-.125.75-.781.782l-.672.03v.36L3.125 0zm0 0"/></svg><svg overflow="visible" x="41.756" y="8.745"><path d="M8.125-2.625c-.016-.125-.031-.25-.031-.36 0-.124.015-.25.031-.359H.953c.031.11.031.235.031.36 0 .109 0 .234-.03.359zm0 0"/></svg><svg overflow="visible" x="53.496" y="8.745"><path d="M3.703-5.266c-.453.047-.86.079-1.312.079.187-1.125.328-1.704.53-2.36l-.124-.172c-.235.14-.563.282-.938.422l-.296 2.031c-.516.25-.829.391-1.047.454l-.032.156H1.5L.828-1.281c-.062.297-.156.593-.156.906 0 .297.125.484.36.484.421 0 .827-.234 1.765-1 .219-.156.14-.109.375-.296l-.125-.22-.531.376c-.36.25-.594.36-.735.36-.093 0-.156-.095-.156-.235 0-.313.14-1.25.516-3.016l.156-.734h1.281zm0 0"/></svg><svg overflow="visible" x="57.537" y="8.745"><path d="M3.64-2.594v-.781c0-1.531-.874-3.094-2.343-4.563-.047.079-.094.125-.156.188a.427.427 0 01-.188.14c1.328 1.344 1.969 2.844 1.969 4.235v.781c0 1.39-.64 2.875-1.969 4.219.078.031.14.078.188.14.062.063.109.126.156.188C2.766.484 3.64-1.078 3.64-2.594zm0 0"/></svg><svg overflow="visible" x="65.26" y="8.745"><path d="M8.125-2.625c-.016-.125-.031-.25-.031-.36 0-.124.015-.25.031-.359H4.906v-3.234c-.125.031-.25.047-.36.047-.124 0-.25-.016-.359-.047v3.234H.954c.031.11.031.235.031.36 0 .109 0 .234-.03.359h3.234V.594c.109-.016.234-.031.359-.031.11 0 .234.015.36.03v-3.218zm0 0"/></svg><svg overflow="visible" x="77" y="8.745"><path d="M3.703-5.266c-.453.047-.86.079-1.312.079.187-1.125.328-1.704.53-2.36l-.124-.172c-.235.14-.563.282-.938.422l-.296 2.031c-.516.25-.829.391-1.047.454l-.032.156H1.5L.828-1.281c-.062.297-.156.593-.156.906 0 .297.125.484.36.484.421 0 .827-.234 1.765-1 .219-.156.14-.109.375-.296l-.125-.22-.531.376c-.36.25-.594.36-.735.36-.093 0-.156-.095-.156-.235 0-.313.14-1.25.516-3.016l.156-.734h1.281zm0 0"/></svg><svg overflow="visible" x=".369" y="27.391"><path d="M.14.031C.938.016 1.75 0 2.563 0c.797 0 1.594.016 2.391.031l.203-.812-.062-.11a6.61 6.61 0 01-1.375.141H1.203l2.953-3.219c.688-.734 1.063-1.64 1.063-2.469 0-1.171-.782-1.921-2.016-1.921-.61 0-1.047.14-1.578.53L.906-6.39l.266.11c.578-.969 1.031-1.297 1.703-1.297.797 0 1.328.531 1.328 1.328 0 .813-.437 1.844-1.203 2.828-.5.656-1.344 1.64-2.266 2.625l-.593.625zm0 0"/></svg><svg overflow="visible" x="6.347" y="27.391"><path d="M.594 0h4.781v-5.781H.594zm.594-.594v-4.593H4.78v4.593zm0 0"/></svg><svg overflow="visible" x="15.646" y="27.391"><path d="M8.125-3.938c-.016-.124-.031-.25-.031-.359 0-.125.015-.25.031-.36H.953c.031.11.031.235.031.36 0 .11 0 .234-.03.36zm0 2.626c-.016-.125-.031-.235-.031-.36s.015-.234.031-.36H.953a1.4 1.4 0 01.031.36c0 .125 0 .234-.03.36zm0 0"/></svg><svg overflow="visible" x="28.044" y="27.391"><path d="M4.11-7.61a.735.735 0 01-.188-.14c-.063-.063-.11-.11-.14-.188-1.47 1.47-2.345 3.032-2.345 4.563v.781c0 1.516.875 3.078 2.344 4.547a.735.735 0 01.14-.187.735.735 0 01.188-.141C2.781.281 2.156-1.203 2.156-2.594v-.781c0-1.39.625-2.89 1.953-4.234zm0 0"/></svg><svg overflow="visible" x="33.113" y="27.391"><path d="M5 .031v-.36l-.625-.03c-.656-.032-.781-.172-.781-.782v-7.093l-.156-.063c-.782.406-1.626.766-2.72 1.156l.079.5h.125l1.547-.687.031-.016c.063 0 .094.11.094.407v5.796c0 .61-.125.75-.781.782l-.672.03v.36L3.125 0zm0 0"/></svg><svg overflow="visible" x="41.756" y="27.391"><path d="M8.125-2.625c-.016-.125-.031-.25-.031-.36 0-.124.015-.25.031-.359H.953c.031.11.031.235.031.36 0 .109 0 .234-.03.359zm0 0"/></svg><svg overflow="visible" x="53.496" y="27.391"><path d="M3.703-5.266c-.453.047-.86.079-1.312.079.187-1.125.328-1.704.53-2.36l-.124-.172c-.235.14-.563.282-.938.422l-.296 2.031c-.516.25-.829.391-1.047.454l-.032.156H1.5L.828-1.281c-.062.297-.156.593-.156.906 0 .297.125.484.36.484.421 0 .827-.234 1.765-1 .219-.156.14-.109.375-.296l-.125-.22-.531.376c-.36.25-.594.36-.735.36-.093 0-.156-.095-.156-.235 0-.313.14-1.25.516-3.016l.156-.734h1.281zm0 0"/></svg><svg overflow="visible" x="57.537" y="27.391"><path d="M3.64-2.594v-.781c0-1.531-.874-3.094-2.343-4.563-.047.079-.094.125-.156.188a.427.427 0 01-.188.14c1.328 1.344 1.969 2.844 1.969 4.235v.781c0 1.39-.64 2.875-1.969 4.219.078.031.14.078.188.14.062.063.109.126.156.188C2.766.484 3.64-1.078 3.64-2.594zm0 0"/></svg><svg overflow="visible" x="62.609" y="23.159"><path d="M4.594.031c-.016-.187-.016-.281-.016-.406 0-.11 0-.203.016-.39l-3.328.078 1.75-1.704c.937-.906 1.234-1.39 1.234-2.062 0-1.016-.75-1.64-1.984-1.64-.688 0-1.172.171-1.641.624L.469-4.266H.75l.11-.406c.171-.516.515-.734 1.156-.734.828 0 1.359.468 1.359 1.218 0 .672-.406 1.329-1.484 2.391L.234-.203V.03L2.391 0zm0 0"/></svg><svg overflow="visible" x="70.763" y="27.391"><path d="M8.125-2.625c-.016-.125-.031-.25-.031-.36 0-.124.015-.25.031-.359H4.906v-3.234c-.125.031-.25.047-.36.047-.124 0-.25-.016-.359-.047v3.234H.954c.031.11.031.235.031.36 0 .109 0 .234-.03.359h3.234V.594c.109-.016.234-.031.359-.031.11 0 .234.015.36.03v-3.218zm0 0"/></svg><svg overflow="visible" x="82.503" y="27.391"><path d="M5.594.031c-.032-.25-.032-.36-.032-.531 0-.156 0-.281.032-.547l-4.14.125L3.64-3.234c1.156-1.22 1.515-1.875 1.515-2.782 0-1.375-.937-2.218-2.453-2.218-.86 0-1.453.234-2.031.828l-.203 1.64h.344l.156-.562c.187-.688.625-.984 1.422-.984 1.03 0 1.687.64 1.687 1.656 0 .906-.5 1.781-1.86 3.218L.189-.28V.03L2.858 0zm0 0"/></svg><svg overflow="visible" x="91.135" y="27.391"><path d="M2.39-2.984c0-.438-.28-.72-.718-.72-.422 0-.719.282-.719.72 0 .421.297.718.719.718.437 0 .719-.296.719-.718zm0 0"/></svg><svg overflow="visible" x="97.136" y="27.391"><path d="M4.11-7.61a.735.735 0 01-.188-.14c-.063-.063-.11-.11-.14-.188-1.47 1.47-2.345 3.032-2.345 4.563v.781c0 1.516.875 3.078 2.344 4.547a.735.735 0 01.14-.187.735.735 0 01.188-.141C2.781.281 2.156-1.203 2.156-2.594v-.781c0-1.39.625-2.89 1.953-4.234zm0 0"/></svg><svg overflow="visible" x="102.205" y="27.391"><path d="M5 .031v-.36l-.625-.03c-.656-.032-.781-.172-.781-.782v-7.093l-.156-.063c-.782.406-1.626.766-2.72 1.156l.079.5h.125l1.547-.687.031-.016c.063 0 .094.11.094.407v5.796c0 .61-.125.75-.781.782l-.672.03v.36L3.125 0zm0 0"/></svg><svg overflow="visible" x="110.837" y="27.391"><path d="M8.125-2.625c-.016-.125-.031-.25-.031-.36 0-.124.015-.25.031-.359H.953c.031.11.031.235.031.36 0 .109 0 .234-.03.359zm0 0"/></svg><svg overflow="visible" x="122.589" y="27.391"><path d="M3.703-5.266c-.453.047-.86.079-1.312.079.187-1.125.328-1.704.53-2.36l-.124-.172c-.235.14-.563.282-.938.422l-.296 2.031c-.516.25-.829.391-1.047.454l-.032.156H1.5L.828-1.281c-.062.297-.156.593-.156.906 0 .297.125.484.36.484.421 0 .827-.234 1.765-1 .219-.156.14-.109.375-.296l-.125-.22-.531.376c-.36.25-.594.36-.735.36-.093 0-.156-.095-.156-.235 0-.313.14-1.25.516-3.016l.156-.734h1.281zm0 0"/></svg><svg overflow="visible" x="126.63" y="27.391"><path d="M3.64-2.594v-.781c0-1.531-.874-3.094-2.343-4.563-.047.079-.094.125-.156.188a.427.427 0 01-.188.14c1.328 1.344 1.969 2.844 1.969 4.235v.781c0 1.39-.64 2.875-1.969 4.219.078.031.14.078.188.14.062.063.109.126.156.188C2.766.484 3.64-1.078 3.64-2.594zm0 0"/></svg><svg overflow="visible" x="134.353" y="27.391"><path d="M2.39-2.984c0-.438-.28-.72-.718-.72-.422 0-.719.282-.719.72 0 .421.297.718.719.718.437 0 .719-.296.719-.718zm0 0"/></svg><svg overflow="visible" x="140.354" y="27.391"><path d="M3.703-5.266c-.453.047-.86.079-1.312.079.187-1.125.328-1.704.53-2.36l-.124-.172c-.235.14-.563.282-.938.422l-.296 2.031c-.516.25-.829.391-1.047.454l-.032.156H1.5L.828-1.281c-.062.297-.156.593-.156.906 0 .297.125.484.36.484.421 0 .827-.234 1.765-1 .219-.156.14-.109.375-.296l-.125-.22-.531.376c-.36.25-.594.36-.735.36-.093 0-.156-.095-.156-.235 0-.313.14-1.25.516-3.016l.156-.734h1.281zm0 0"/></svg><svg overflow="visible" x="147.049" y="27.391"><path d="M8.125-2.625c-.016-.125-.031-.25-.031-.36 0-.124.015-.25.031-.359H4.906v-3.234c-.125.031-.25.047-.36.047-.124 0-.25-.016-.359-.047v3.234H.954c.031.11.031.235.031.36 0 .109 0 .234-.03.359h3.234V.594c.109-.016.234-.031.359-.031.11 0 .234.015.36.03v-3.218zm0 0"/></svg><svg overflow="visible" x="158.801" y="27.391"><path d="M3.703-5.266c-.453.047-.86.079-1.312.079.187-1.125.328-1.704.53-2.36l-.124-.172c-.235.14-.563.282-.938.422l-.296 2.031c-.516.25-.829.391-1.047.454l-.032.156H1.5L.828-1.281c-.062.297-.156.593-.156.906 0 .297.125.484.36.484.421 0 .827-.234 1.765-1 .219-.156.14-.109.375-.296l-.125-.22-.531.376c-.36.25-.594.36-.735.36-.093 0-.156-.095-.156-.235 0-.313.14-1.25.516-3.016l.156-.734h1.281zm0 0"/></svg><svg overflow="visible" x="162.844" y="23.159"><path d="M4.594.031c-.016-.187-.016-.281-.016-.406 0-.11 0-.203.016-.39l-3.328.078 1.75-1.704c.937-.906 1.234-1.39 1.234-2.062 0-1.016-.75-1.64-1.984-1.64-.688 0-1.172.171-1.641.624L.469-4.266H.75l.11-.406c.171-.516.515-.734 1.156-.734.828 0 1.359.468 1.359 1.218 0 .672-.406 1.329-1.484 2.391L.234-.203V.03L2.391 0zm0 0"/></svg><svg overflow="visible" x=".369" y="46.038"><path d="M.266-.39c.578.374 1.062.515 1.765.515 1.828 0 3.313-1.313 3.313-2.938 0-.624-.203-1.078-.625-1.406-.297-.218-.578-.328-1.203-.484C4.766-5.36 5.25-5.937 5.25-6.797c0-.922-.75-1.562-1.828-1.562-.438 0-.797.093-1.39.375l-.688 1.187.218.156.25-.296c.47-.532.75-.688 1.282-.688.734 0 1.203.438 1.203 1.11 0 .968-.813 1.796-1.86 1.75-.171-.016-.343-.032-.53-.032l-.204.516.063.14c.437-.156.64-.187.937-.187 1.016 0 1.61.594 1.61 1.61 0 .718-.282 1.437-.766 1.937-.313.328-.75.5-1.235.5-.906 0-1.468-.485-1.468-1.266 0-.125 0-.234.047-.516l-.297-.062zm0 0"/></svg><svg overflow="visible" x="6.347" y="46.038"><path d="M.594 0h4.781v-5.781H.594zm.594-.594v-4.593H4.78v4.593zm0 0"/></svg><svg overflow="visible" x="15.646" y="46.038"><path d="M8.125-3.938c-.016-.124-.031-.25-.031-.359 0-.125.015-.25.031-.36H.953c.031.11.031.235.031.36 0 .11 0 .234-.03.36zm0 2.626c-.016-.125-.031-.235-.031-.36s.015-.234.031-.36H.953a1.4 1.4 0 01.031.36c0 .125 0 .234-.03.36zm0 0"/></svg><svg overflow="visible" x="28.044" y="46.038"><path d="M4.11-7.61a.735.735 0 01-.188-.14c-.063-.063-.11-.11-.14-.188-1.47 1.47-2.345 3.032-2.345 4.563v.781c0 1.516.875 3.078 2.344 4.547a.735.735 0 01.14-.187.735.735 0 01.188-.141C2.781.281 2.156-1.203 2.156-2.594v-.781c0-1.39.625-2.89 1.953-4.234zm0 0"/></svg><svg overflow="visible" x="33.113" y="46.038"><path d="M5 .031v-.36l-.625-.03c-.656-.032-.781-.172-.781-.782v-7.093l-.156-.063c-.782.406-1.626.766-2.72 1.156l.079.5h.125l1.547-.687.031-.016c.063 0 .094.11.094.407v5.796c0 .61-.125.75-.781.782l-.672.03v.36L3.125 0zm0 0"/></svg><svg overflow="visible" x="41.756" y="46.038"><path d="M8.125-2.625c-.016-.125-.031-.25-.031-.36 0-.124.015-.25.031-.359H.953c.031.11.031.235.031.36 0 .109 0 .234-.03.359zm0 0"/></svg><svg overflow="visible" x="53.496" y="46.038"><path d="M3.703-5.266c-.453.047-.86.079-1.312.079.187-1.125.328-1.704.53-2.36l-.124-.172c-.235.14-.563.282-.938.422l-.296 2.031c-.516.25-.829.391-1.047.454l-.032.156H1.5L.828-1.281c-.062.297-.156.593-.156.906 0 .297.125.484.36.484.421 0 .827-.234 1.765-1 .219-.156.14-.109.375-.296l-.125-.22-.531.376c-.36.25-.594.36-.735.36-.093 0-.156-.095-.156-.235 0-.313.14-1.25.516-3.016l.156-.734h1.281zm0 0"/></svg><svg overflow="visible" x="57.537" y="46.038"><path d="M3.64-2.594v-.781c0-1.531-.874-3.094-2.343-4.563-.047.079-.094.125-.156.188a.427.427 0 01-.188.14c1.328 1.344 1.969 2.844 1.969 4.235v.781c0 1.39-.64 2.875-1.969 4.219.078.031.14.078.188.14.062.063.109.126.156.188C2.766.484 3.64-1.078 3.64-2.594zm0 0"/></svg><svg overflow="visible" x="62.609" y="41.806"><path d="M4.547-1.984c0-.422-.203-.797-.547-1.016-.234-.156-.469-.234-.938-.313.766-.546 1.063-.953 1.063-1.468 0-.797-.719-1.313-1.797-1.313-.64 0-1.078.172-1.547.594L.5-4.406h.313l.156-.5c.11-.297.719-.594 1.219-.594.624 0 1.14.469 1.14 1.031 0 .657-.562 1.219-1.25 1.219-.078 0-.453-.031-.453-.031l-.125.469.078.046c.36-.14.547-.187.797-.187.813 0 1.266.469 1.266 1.265 0 .907-.579 1.5-1.485 1.5-.437 0-.828-.124-1.125-.374C.813-.766.671-.97.5-1.438l-.266.078C.437-.813.516-.5.563-.047c.515.156.937.219 1.296.219.782 0 1.657-.39 2.188-.984.328-.36.5-.75.5-1.172zm0 0"/></svg><svg overflow="visible" x="70.763" y="46.038"><path d="M8.125-2.625c-.016-.125-.031-.25-.031-.36 0-.124.015-.25.031-.359H4.906v-3.234c-.125.031-.25.047-.36.047-.124 0-.25-.016-.359-.047v3.234H.954c.031.11.031.235.031.36 0 .109 0 .234-.03.359h3.234V.594c.109-.016.234-.031.359-.031.11 0 .234.015.36.03v-3.218zm0 0"/></svg><svg overflow="visible" x="82.503" y="46.038"><path d="M5.516-2.672c0-.578-.235-1.078-.657-1.375-.312-.219-.578-.312-1.171-.422C4.64-5.219 5-5.766 5-6.469c0-1.062-.89-1.765-2.219-1.765-.812 0-1.344.218-1.922.796L.516-5.952H.89l.203-.672c.14-.406.89-.813 1.515-.813.766 0 1.407.641 1.407 1.391 0 .89-.704 1.64-1.547 1.64-.11 0-.563-.03-.563-.03l-.156.64.094.063c.453-.204.672-.266 1-.266 1 0 1.562.64 1.562 1.734 0 1.22-.718 2.016-1.843 2.016a2.035 2.035 0 01-1.391-.516C.89-1.03.734-1.296.5-1.953l-.328.125c.266.734.36 1.156.422 1.75.64.219 1.156.312 1.61.312.952 0 2.046-.53 2.702-1.328.407-.5.61-1.015.61-1.578zm0 0"/></svg><svg overflow="visible" x="91.135" y="46.038"><path d="M2.39-2.984c0-.438-.28-.72-.718-.72-.422 0-.719.282-.719.72 0 .421.297.718.719.718.437 0 .719-.296.719-.718zm0 0"/></svg><svg overflow="visible" x="97.136" y="46.038"><path d="M4.11-7.61a.735.735 0 01-.188-.14c-.063-.063-.11-.11-.14-.188-1.47 1.47-2.345 3.032-2.345 4.563v.781c0 1.516.875 3.078 2.344 4.547a.735.735 0 01.14-.187.735.735 0 01.188-.141C2.781.281 2.156-1.203 2.156-2.594v-.781c0-1.39.625-2.89 1.953-4.234zm0 0"/></svg><svg overflow="visible" x="102.205" y="46.038"><path d="M5 .031v-.36l-.625-.03c-.656-.032-.781-.172-.781-.782v-7.093l-.156-.063c-.782.406-1.626.766-2.72 1.156l.079.5h.125l1.547-.687.031-.016c.063 0 .094.11.094.407v5.796c0 .61-.125.75-.781.782l-.672.03v.36L3.125 0zm0 0"/></svg><svg overflow="visible" x="110.837" y="46.038"><path d="M8.125-2.625c-.016-.125-.031-.25-.031-.36 0-.124.015-.25.031-.359H.953c.031.11.031.235.031.36 0 .109 0 .234-.03.359zm0 0"/></svg><svg overflow="visible" x="122.589" y="46.038"><path d="M3.703-5.266c-.453.047-.86.079-1.312.079.187-1.125.328-1.704.53-2.36l-.124-.172c-.235.14-.563.282-.938.422l-.296 2.031c-.516.25-.829.391-1.047.454l-.032.156H1.5L.828-1.281c-.062.297-.156.593-.156.906 0 .297.125.484.36.484.421 0 .827-.234 1.765-1 .219-.156.14-.109.375-.296l-.125-.22-.531.376c-.36.25-.594.36-.735.36-.093 0-.156-.095-.156-.235 0-.313.14-1.25.516-3.016l.156-.734h1.281zm0 0"/></svg><svg overflow="visible" x="126.63" y="46.038"><path d="M3.64-2.594v-.781c0-1.531-.874-3.094-2.343-4.563-.047.079-.094.125-.156.188a.427.427 0 01-.188.14c1.328 1.344 1.969 2.844 1.969 4.235v.781c0 1.39-.64 2.875-1.969 4.219.078.031.14.078.188.14.062.063.109.126.156.188C2.766.484 3.64-1.078 3.64-2.594zm0 0"/></svg><svg overflow="visible" x="131.701" y="41.806"><path d="M4.594.031c-.016-.187-.016-.281-.016-.406 0-.11 0-.203.016-.39l-3.328.078 1.75-1.704c.937-.906 1.234-1.39 1.234-2.062 0-1.016-.75-1.64-1.984-1.64-.688 0-1.172.171-1.641.624L.469-4.266H.75l.11-.406c.171-.516.515-.734 1.156-.734.828 0 1.359.468 1.359 1.218 0 .672-.406 1.329-1.484 2.391L.234-.203V.03L2.391 0zm0 0"/></svg><svg overflow="visible" x="139.854" y="46.038"><path d="M2.39-2.984c0-.438-.28-.72-.718-.72-.422 0-.719.282-.719.72 0 .421.297.718.719.718.437 0 .719-.296.719-.718zm0 0"/></svg><svg overflow="visible" x="145.856" y="46.038"><path d="M3.703-5.266c-.453.047-.86.079-1.312.079.187-1.125.328-1.704.53-2.36l-.124-.172c-.235.14-.563.282-.938.422l-.296 2.031c-.516.25-.829.391-1.047.454l-.032.156H1.5L.828-1.281c-.062.297-.156.593-.156.906 0 .297.125.484.36.484.421 0 .827-.234 1.765-1 .219-.156.14-.109.375-.296l-.125-.22-.531.376c-.36.25-.594.36-.735.36-.093 0-.156-.095-.156-.235 0-.313.14-1.25.516-3.016l.156-.734h1.281zm0 0"/></svg><svg overflow="visible" x="152.55" y="46.038"><path d="M8.125-2.625c-.016-.125-.031-.25-.031-.36 0-.124.015-.25.031-.359H4.906v-3.234c-.125.031-.25.047-.36.047-.124 0-.25-.016-.359-.047v3.234H.954c.031.11.031.235.031.36 0 .109 0 .234-.03.359h3.234V.594c.109-.016.234-.031.359-.031.11 0 .234.015.36.03v-3.218zm0 0"/></svg><svg overflow="visible" x="164.29" y="46.038"><path d="M5.516-2.672c0-.578-.235-1.078-.657-1.375-.312-.219-.578-.312-1.171-.422C4.64-5.219 5-5.766 5-6.469c0-1.062-.89-1.765-2.219-1.765-.812 0-1.344.218-1.922.796L.516-5.952H.89l.203-.672c.14-.406.89-.813 1.515-.813.766 0 1.407.641 1.407 1.391 0 .89-.704 1.64-1.547 1.64-.11 0-.563-.03-.563-.03l-.156.64.094.063c.453-.204.672-.266 1-.266 1 0 1.562.64 1.562 1.734 0 1.22-.718 2.016-1.843 2.016a2.035 2.035 0 01-1.391-.516C.89-1.03.734-1.296.5-1.953l-.328.125c.266.734.36 1.156.422 1.75.64.219 1.156.312 1.61.312.952 0 2.046-.53 2.702-1.328.407-.5.61-1.015.61-1.578zm0 0"/></svg><svg overflow="visible" x="172.934" y="46.038"><path d="M2.39-2.984c0-.438-.28-.72-.718-.72-.422 0-.719.282-.719.72 0 .421.297.718.719.718.437 0 .719-.296.719-.718zm0 0"/></svg><svg overflow="visible" x="178.936" y="46.038"><path d="M4.11-7.61a.735.735 0 01-.188-.14c-.063-.063-.11-.11-.14-.188-1.47 1.47-2.345 3.032-2.345 4.563v.781c0 1.516.875 3.078 2.344 4.547a.735.735 0 01.14-.187.735.735 0 01.188-.141C2.781.281 2.156-1.203 2.156-2.594v-.781c0-1.39.625-2.89 1.953-4.234zm0 0"/></svg><svg overflow="visible" x="184.005" y="46.038"><path d="M5 .031v-.36l-.625-.03c-.656-.032-.781-.172-.781-.782v-7.093l-.156-.063c-.782.406-1.626.766-2.72 1.156l.079.5h.125l1.547-.687.031-.016c.063 0 .094.11.094.407v5.796c0 .61-.125.75-.781.782l-.672.03v.36L3.125 0zm0 0"/></svg><g><svg overflow="visible" x="192.636" y="46.038"><path d="M8.125-2.625c-.016-.125-.031-.25-.031-.36 0-.124.015-.25.031-.359H.953c.031.11.031.235.031.36 0 .109 0 .234-.03.359zm0 0"/></svg></g><g><svg overflow="visible" x="204.376" y="46.038"><path d="M3.703-5.266c-.453.047-.86.079-1.312.079.187-1.125.328-1.704.53-2.36l-.124-.172c-.235.14-.563.282-.938.422l-.296 2.031c-.516.25-.829.391-1.047.454l-.032.156H1.5L.828-1.281c-.062.297-.156.593-.156.906 0 .297.125.484.36.484.421 0 .827-.234 1.765-1 .219-.156.14-.109.375-.296l-.125-.22-.531.376c-.36.25-.594.36-.735.36-.093 0-.156-.095-.156-.235 0-.313.14-1.25.516-3.016l.156-.734h1.281zm0 0"/></svg></g><g><svg overflow="visible" x="208.417" y="46.038"><path d="M3.64-2.594v-.781c0-1.531-.874-3.094-2.343-4.563-.047.079-.094.125-.156.188a.427.427 0 01-.188.14c1.328 1.344 1.969 2.844 1.969 4.235v.781c0 1.39-.64 2.875-1.969 4.219.078.031.14.078.188.14.062.063.109.126.156.188C2.766.484 3.64-1.078 3.64-2.594zm0 0"/></svg></g><g><svg overflow="visible" x="216.14" y="46.038"><path d="M2.39-2.984c0-.438-.28-.72-.718-.72-.422 0-.719.282-.719.72 0 .421.297.718.719.718.437 0 .719-.296.719-.718zm0 0"/></svg></g><g><svg overflow="visible" x="222.154" y="46.038"><path d="M3.703-5.266c-.453.047-.86.079-1.312.079.187-1.125.328-1.704.53-2.36l-.124-.172c-.235.14-.563.282-.938.422l-.296 2.031c-.516.25-.829.391-1.047.454l-.032.156H1.5L.828-1.281c-.062.297-.156.593-.156.906 0 .297.125.484.36.484.421 0 .827-.234 1.765-1 .219-.156.14-.109.375-.296l-.125-.22-.531.376c-.36.25-.594.36-.735.36-.093 0-.156-.095-.156-.235 0-.313.14-1.25.516-3.016l.156-.734h1.281zm0 0"/></svg></g><g><svg overflow="visible" x="226.197" y="41.806"><path d="M4.594.031c-.016-.187-.016-.281-.016-.406 0-.11 0-.203.016-.39l-3.328.078 1.75-1.704c.937-.906 1.234-1.39 1.234-2.062 0-1.016-.75-1.64-1.984-1.64-.688 0-1.172.171-1.641.624L.469-4.266H.75l.11-.406c.171-.516.515-.734 1.156-.734.828 0 1.359.468 1.359 1.218 0 .672-.406 1.329-1.484 2.391L.234-.203V.03L2.391 0zm0 0"/></svg></g><g><svg overflow="visible" x="234.35" y="46.038"><path d="M8.125-2.625c-.016-.125-.031-.25-.031-.36 0-.124.015-.25.031-.359H4.906v-3.234c-.125.031-.25.047-.36.047-.124 0-.25-.016-.359-.047v3.234H.954c.031.11.031.235.031.36 0 .109 0 .234-.03.359h3.234V.594c.109-.016.234-.031.359-.031.11 0 .234.015.36.03v-3.218zm0 0"/></svg></g><g><svg overflow="visible" x="246.09" y="46.038"><path d="M3.703-5.266c-.453.047-.86.079-1.312.079.187-1.125.328-1.704.53-2.36l-.124-.172c-.235.14-.563.282-.938.422l-.296 2.031c-.516.25-.829.391-1.047.454l-.032.156H1.5L.828-1.281c-.062.297-.156.593-.156.906 0 .297.125.484.36.484.421 0 .827-.234 1.765-1 .219-.156.14-.109.375-.296l-.125-.22-.531.376c-.36.25-.594.36-.735.36-.093 0-.156-.095-.156-.235 0-.313.14-1.25.516-3.016l.156-.734h1.281zm0 0"/></svg></g><g><svg overflow="visible" x="250.134" y="41.806"><path d="M4.547-1.984c0-.422-.203-.797-.547-1.016-.234-.156-.469-.234-.938-.313.766-.546 1.063-.953 1.063-1.468 0-.797-.719-1.313-1.797-1.313-.64 0-1.078.172-1.547.594L.5-4.406h.313l.156-.5c.11-.297.719-.594 1.219-.594.624 0 1.14.469 1.14 1.031 0 .657-.562 1.219-1.25 1.219-.078 0-.453-.031-.453-.031l-.125.469.078.046c.36-.14.547-.187.797-.187.813 0 1.266.469 1.266 1.265 0 .907-.579 1.5-1.485 1.5-.437 0-.828-.124-1.125-.374C.813-.766.671-.97.5-1.438l-.266.078C.437-.813.516-.5.563-.047c.515.156.937.219 1.296.219.782 0 1.657-.39 2.188-.984.328-.36.5-.75.5-1.172zm0 0"/></svg></g></svg>