<svg xmlns="http://www.w3.org/2000/svg" xmlns:xlink="http://www.w3.org/1999/xlink" width="321px" height="59px" viewBox="0 0 241 44"><svg overflow="visible" x="-.21" y="17.59"><path d="M8.094-2.766c0-.921-.89-1.64-1.813-1.765v.265c1.266-.25 2.5-1.359 2.5-2.421 0-.829-.828-1.735-2.14-1.735H3.094c-.219 0-.516.125-.516.36 0 .109.281.25.5.25.297 0 .453-.141.453.062 0 .063 0 .094-.031.172L1.86-.984c-.11.406.015.375-.72.375-.202 0-.5.125-.5.359 0 .125.282.25.47.25h3.796c1.625 0 3.188-1.5 3.188-2.766zm-.64-3.968c0 1.03-.766 2.109-2.126 2.109H3.984L4.688-7.5c.109-.453.015-.313.406-.313h1.39c.954 0 .97.563.97 1.079zm-.72 3.828c0 1.25-.828 2.297-2.093 2.297H3.17c-.343 0-.187.125-.187-.016 0-.047 0-.063.047-.234l.813-3.266h1.89c.938 0 1 .61 1 1.219zm0 0"/></svg><svg overflow="visible" x="8.015" y="17.59"><path d="M5.64-1.39c0-.079-.28-.313-.343-.313a.51.51 0 00-.281.156c-.625.86-1.391 1.172-2 1.172-.797 0-.72-.813-.72-1.203 0-.531.079-.86.173-1.188h.281c.422 0 2.844-.14 2.844-1.64 0-.547-.625-1.125-1.328-1.125-1.235 0-3.094 1.343-3.094 3.453C1.172-.875 1.984.125 3 .125c1.484 0 2.64-1.344 2.64-1.516zm-.827-3.032c0 1.281-1.782 1.14-2.172 1.14h-.032c.438-1.765 1.438-1.75 1.641-1.75.484 0 .563.204.563.61zm1.421-3.703c0-.188-.328-.453-.515-.453-.157 0-.203.39-.203.39l-.25-.187-1.72 1.75c-.108.094-.171.219-.171.25 0 .094.313.313.36.313.062 0 .25-.063.28-.11l1.907-1.5c.094-.062.312-.281.312-.453zm0 0"/></svg><svg overflow="visible" x="13.395" y="17.59"><path d="M5.234-1.813c0-.093-.25-.25-.343-.25-.141 0-.344.172-.375.282-.282.812-.782.922-1.11.922-.203 0-.375-.079-.703-.235l.125.047c-.39-.203-.656-.234-.797-.234-.031 0-.172 0 .172-.11.156-.187.672-.718 1.203-1.203 1.14-1.015 2.219-2.5 2.219-2.719 0-.093-.266-.218-.328-.218a.364.364 0 00-.344.203c-.328.562-.375.687-.61.687-.202 0-.202-.046-.405-.343-.204-.282-.485-.547-.86-.547-.86 0-1.547 1.234-1.547 1.468 0 .11.297.235.344.235.14 0 .328-.156.375-.266.125-.36.36-.453.703-.453.235 0 .438.094.313.047.625.328.875.36.78.36a5.6 5.6 0 01-.405.452L1.953-2C1.141-1.187.531-.203.531-.11c0 .094.313.235.36.235.125 0 .25-.047.328-.203.187-.281.39-.703.797-.703.109 0 .14-.031.406.344.203.312.5.562.86.562 1.124 0 1.952-1.656 1.952-1.938zm0 0"/></svg><svg overflow="visible" x="18.177" y="17.59"><path d="M4.047-1.844c0-.11-.297-.234-.344-.234-.14 0-.344.172-.39.344-.11.406-.235 1.359-.907 1.359-.14 0-.094.063-.094-.219 0-.312.157-.75.376-1.328l.703-1.937c.109-.297.14-.391.14-.61 0-.61-.578-1.062-1.047-1.062-1.093 0-1.687 1.89-1.687 1.953 0 .11.297.25.36.25.14 0 .343-.172.39-.344.094-.375.219-1.36.922-1.36.25 0 .062.095.062.22 0 .312-.062.515-.156.734l-.953 2.594c-.094.265-.094.421-.094.53 0 .688.656 1.079 1.047 1.079 1.11 0 1.672-1.922 1.672-1.969zm.312-5.578c0-.328-.421-.61-.656-.61-.36 0-.89.47-.89.813 0 .328.437.61.671.61.36 0 .875-.454.875-.813zm0 0"/></svg><svg overflow="visible" x="21.764" y="17.59"><path d="M5.64-1.39c0-.079-.28-.313-.343-.313a.51.51 0 00-.281.156c-.625.86-1.391 1.172-2 1.172-.797 0-.72-.813-.72-1.203 0-.531.079-.86.173-1.188h.281c.422 0 2.844-.14 2.844-1.64 0-.547-.625-1.125-1.328-1.125-1.235 0-3.094 1.343-3.094 3.453C1.172-.875 1.984.125 3 .125c1.484 0 2.64-1.344 2.64-1.516zm-.827-3.032c0 1.281-1.782 1.14-2.172 1.14h-.032c.438-1.765 1.438-1.75 1.641-1.75.484 0 .563.204.563.61zm0 0"/></svg><svg overflow="visible" x="27.143" y="17.59"><path d="M5.922-4.703c0-.61-.984-.828-1.313-.828-.562 0-1.14.297-1.578.922l.297.093c-.094-.703-.797-1.015-1.11-1.015-.28 0-.78.25-1.14 1-.062.11.031 1.047.031 1.047l-.312-.094c0 .094.25.25.36.25.14 0 .327-.156.39-.422.187-.703.234-1.281.64-1.281.313 0 .126.218.126.36 0 .218-.047.484-.094.655L1.344-.53c-.047.172-.047.187-.047.234 0 .14.281.422.5.422.266 0 .562-.36.625-.563l.765-3.109c.047-.14.391-1.484 1.407-1.484.062 0 .265-.032.297-.016.171-.031-.235.281-.235.578 0 .25.375.469.563.469.203 0 .703-.281.703-.703zm0 0"/></svg><svg overflow="visible" x="32.081" y="17.59"><path d="M4.156 2.719c0-.047-.078-.172-.11-.203-1.234-.922-2-3.22-2-5.141v-1c0-1.906.767-4.203 2-5.14a.457.457 0 00.11-.188c0-.063-.25-.25-.312-.25a1.01 1.01 0 00-.203.062C2.312-8.156 1-5.67 1-3.625v1C1-.578 2.313 1.906 3.64 2.906c.016.016.188.063.204.063.062 0 .312-.203.312-.25zm0 0"/></svg><svg overflow="visible" x="36.732" y="17.59"><path d="M7.016-1.844c0-.11-.297-.25-.329-.25-.125 0-.328.172-.39.344-.234.813-.422 1.36-1.016 1.36-.203 0-.093.015-.093-.266 0-.297.109-.594.218-.844.219-.64.719-1.953.719-2.64 0-.798-.703-1.407-1.563-1.407-1.078 0-1.796.797-2 1.078l.329.094c-.063-.672-.735-1.172-1.282-1.172-.562 0-.921.5-1.14.89C.313-4.327.14-3.624.14-3.577c0 .125.484.219.484.219l-.14.03c.124 0 .328-.14.406-.405.203-.844.25-1.282.671-1.282.25 0 .172.016.172.407 0 .265-.03.39-.187 1.015L.844-.844c-.031.188-.11.469-.11.516 0 .219.375.453.563.453.14 0 .547-.219.656-.547-.078.156.125-.5.203-.797l.266-1.078c.062-.265.14-.531.203-.797l.14-.594c.188-.374.626-1.328 1.766-1.328.532 0 .438.313.438.704 0 .734-.578 2.265-.766 2.78-.11.282-.125.423-.125.548 0 .562.625 1.109 1.188 1.109 1.125 0 1.75-1.875 1.75-1.969zm0 0"/></svg><svg overflow="visible" x="43.905" y="17.59"><path d="M2.625-.14c0-.797-.5-1.391-.969-1.391-.39 0-.828.437-.828.765 0 .329.438.766.828.766.157 0 .438-.078.563-.188l.047-.046s-.313-.078-.313.093c0 .875-.344 1.5-.75 1.891-.125.14-.187.266-.187.297 0 .078.265.265.328.265.125 0 1.281-1.062 1.281-2.453zm0 0"/></svg><svg overflow="visible" x="49.213" y="17.59"><path d="M4.14-5.156c0-.125-.312-.266-.53-.266H2.78c.39-1.562.453-1.797.453-1.875 0-.203-.328-.453-.53-.453-.032 0-.579.14-.688.563l-.422 1.765H.64c-.25 0-.563.14-.563.36 0 .156.297.28.531.28h.813C.594-1.515.547-1.311.547-1.093c0 .64.656 1.219 1.312 1.219 1.22 0 2.079-1.875 2.079-1.969 0-.11-.282-.25-.329-.25-.109 0-.328.172-.375.297C2.72-.547 2.281-.39 1.875-.39c-.25 0-.172-.03-.172-.421 0-.282.016-.375.063-.579l.859-3.39h.953c.25 0 .563-.125.563-.375zm0 0"/></svg><svg overflow="visible" x="53.529" y="17.59"><path d="M3.64-2.625v-1c0-2.047-1.328-4.531-2.64-5.516a.774.774 0 00-.203-.062c-.063 0-.313.187-.313.25 0 .031.079.172.094.187 1.25.938 2.016 3.235 2.016 5.141v1c0 1.922-.766 4.219-2.016 5.14-.015.032-.094.157-.094.204 0 .047.25.25.313.25A.774.774 0 001 2.906c1.313-1 2.64-3.484 2.64-5.531zm0 0"/></svg><svg overflow="visible" x="61.503" y="17.59"><path d="M8.828-4.281c0-.125-.312-.375-.437-.375H.906c-.125 0-.437.25-.437.375 0 .14.312.375.437.375h7.485c.125 0 .437-.235.437-.375zm0 2.328c0-.14-.312-.375-.437-.375H.906c-.125 0-.437.234-.437.375 0 .125.312.36.437.36h7.485c.125 0 .437-.235.437-.36zm0 0"/></svg><svg overflow="visible" x="79.808" y="3.758"><path d="M5.719-1.36c0-.109-.313-.265-.344-.265-.11 0-.328.203-.36.297-.202.672-.343.86-.687.86-.172 0 0 .046 0-.141 0-.188.047-.297.188-.672.109-.266.453-1.14.453-1.61 0-.812-.86-1.125-1.297-1.125-.703 0-1.313.485-1.563.813l.36.11c-.063-.579-.766-.923-1.11-.923-.359 0-.703.313-.812.5-.188.313-.36.907-.36.938 0 .11.329.281.344.281.125 0 .344-.187.39-.422.141-.484.079-.734.407-.734.219 0 .078.015.078.25 0 .156-.078.469-.14.687l-.188.75L.812-.687c-.03.109-.078.312-.078.343 0 .188.36.422.485.422.156 0 .437-.14.468-.219.047-.078.188-.468.22-.64l.187-.75.14-.563c.094-.344.047-.297.282-.64.234-.329.484-.72 1.125-.72.484 0 .28.267.28.423 0 .5-.358 1.437-.5 1.781-.093.234-.124.313-.124.453 0 .438.578.875 1.015.875.829 0 1.407-1.312 1.407-1.437zm0 0"/></svg><svg overflow="visible" x="74.131" y="17.589"><path d="M16.578 1.297h-.453c-.516 1.375-1.578 2.047-2.953 2.406-.25.063-1.422.375-3.719.375H2.578l5.89-6.906c.079-.094.157-.235.157-.297l-.047.094s0-.25-.094-.36l-5.406-7.39h6.25c1.61 0 2.703.172 2.797.187.656.094 1.547.266 2.5.86.297.203 1.047.64 1.516 1.734h.687l-1.562-3.625H1c-.266 0-.422.047-.547.297.016-.047.016.187.016.328L6.78-2.36.656 4.813c-.125.141.156.407.156.407l-.328-.11c0 .141.297.266.516.266h14.281l1.531-4.078zm0 0"/></svg><svg overflow="visible" x="75.435" y="30.522"><path d="M2.922-5.39c0-.141-.313-.485-.547-.485-.219 0-.672.375-.672.625 0 .14.313.469.547.469.234 0 .672-.39.672-.61zm.219 4.03c0-.109-.313-.265-.344-.265-.11 0-.328.203-.375.297-.188.672-.344.86-.672.86-.172 0 0 .046 0-.141 0-.188.063-.344.14-.532l.266-.671.406-1.063a.794.794 0 00.047-.266c0-.39-.546-.875-1-.875-.828 0-1.421 1.297-1.421 1.438 0 .11.328.281.343.281.125 0 .344-.203.36-.297.218-.719.375-.86.687-.86.14 0 0-.093 0 .126 0 .203-.047.328-.25.844L.797-1.141c-.031.11-.078.22-.078.36 0 .39.547.86 1 .86.843 0 1.422-1.313 1.422-1.438zm0 0"/></svg><svg overflow="visible" x="78.816" y="30.522"><path d="M6.25-3.063c0-.093-.281-.328-.375-.328H.641c-.094 0-.375.235-.375.329 0 .093.28.328.375.328h5.234c.094 0 .375-.235.375-.329zm0 1.626c0-.094-.281-.329-.375-.329H.641c-.094 0-.375.235-.375.329 0 .093.28.328.375.328h5.234c.094 0 .375-.235.375-.329zm0 0"/></svg><svg overflow="visible" x="85.327" y="30.522"><path d="M4.531-2.828c0-.922-.172-1.688-.562-2.281-.266-.391-.922-.766-1.594-.766C.437-5.875.219-3.437.219-2.828c0 .594.218 3 2.156 3 1.953 0 2.156-2.406 2.156-3zm-1.187-.11c0 .626 0 1.235-.11 1.766-.156.766-.515.781-.859.781-.375 0-.688-.062-.844-.75-.125-.5-.125-1.171-.125-1.796 0-.61 0-1.25.125-1.704.172-.671.5-.687.844-.687.453 0 .688.125.828.61.14.452.14 1.046.14 1.78zm0 0"/></svg><svg overflow="visible" x="114.475" y="17.589"><path d="M8.344 10.969a.486.486 0 00-.14-.266C5.655 8.781 3.936 3.578 3.936-.89v-4.453c0-4.484 1.72-9.687 4.266-11.593a.486.486 0 00.14-.266c0-.11-.28-.344-.405-.344-.047 0-.235.063-.282.078-2.64 2-5.156 7.422-5.156 12.125V-.89c0 4.688 2.516 10.125 5.156 12.11a.993.993 0 00.282.094c.125 0 .406-.235.406-.344zm0 0"/></svg><svg overflow="visible" x="123.274" y="9.495"><path d="M7.016-1.844c0-.11-.297-.25-.329-.25-.125 0-.328.172-.39.344-.234.813-.422 1.36-1.016 1.36-.203 0-.093.015-.093-.266 0-.297.109-.594.218-.844.219-.64.719-1.953.719-2.64 0-.798-.703-1.407-1.563-1.407-1.078 0-1.796.797-2 1.078l.329.094c-.063-.672-.735-1.172-1.282-1.172-.562 0-.921.5-1.14.89C.313-4.327.14-3.624.14-3.577c0 .125.484.219.484.219l-.14.03c.124 0 .328-.14.406-.405.203-.844.25-1.282.671-1.282.25 0 .172.016.172.407 0 .265-.03.39-.187 1.015L.844-.844c-.031.188-.11.469-.11.516 0 .219.375.453.563.453.14 0 .547-.219.656-.547-.078.156.125-.5.203-.797l.266-1.078c.062-.265.14-.531.203-.797l.14-.594c.188-.374.626-1.328 1.766-1.328.532 0 .438.313.438.704 0 .734-.578 2.265-.766 2.78-.11.282-.125.423-.125.548 0 .562.625 1.109 1.188 1.109 1.125 0 1.75-1.875 1.75-1.969zm0 0"/></svg><svg overflow="visible" x="124.799" y="25.792"><path d="M3.578-7.61c0-.234-.344-.546-.625-.546-.328 0-.844.437-.844.75 0 .234.36.562.657.562.265 0 .812-.406.812-.765zm.11 5.766c0-.11-.297-.25-.329-.25-.125 0-.328.172-.39.344-.203.766-.406 1.36-1.016 1.36-.203 0-.094.015-.094-.266 0-.297.079-.469.36-1.203l.453-1.25c.156-.344.156-.375.265-.688.094-.25.157-.406.157-.64 0-.532-.578-1.11-1.172-1.11C.797-5.547.14-3.687.14-3.578c0 .125.484.219.484.219l-.14.03c.124 0 .328-.155.39-.343.313-1.125.61-1.344 1.016-1.344.093 0 .093-.14.093.25 0 .25-.078.5-.125.625-.109.297-.64 1.688-.828 2.204-.125.312-.281.703-.281.953 0 .562.61 1.109 1.188 1.109 1.125 0 1.75-1.86 1.75-1.969zm0 0"/></svg><svg overflow="visible" x="130.448" y="17.589"><path d="M6.281-.89v-4.454c0-4.703-2.5-10.125-5.156-12.125a1.32 1.32 0 00-.266-.078c-.125 0-.421.235-.421.344 0 .078.093.234.14.265 2.547 1.907 4.266 7.11 4.266 11.594V-.89c0 4.47-1.719 9.672-4.266 11.594a.486.486 0 00-.14.266c0 .11.296.344.421.344a.77.77 0 00.266-.094C3.781 9.234 6.281 3.797 6.281-.891zm0 0"/></svg><svg overflow="visible" x="114.93" y="28.899"><path d="M24.047.86c0-.047-.235-.22-.281-.22a.5.5 0 00-.297.188c-.344.953-1.735 1.328-3.235 1.328h-4.78c-1.782 0-3.36.969-3.735 1.86h.406c-.375-.891-1.938-1.86-3.719-1.86H3.625c-1.5 0-2.906-.375-3.25-1.328A.476.476 0 00.094.641c-.047 0-.297.171-.297.218v.032c.39 1.062 2.14 2.296 3.828 2.296h4.781c1.828 0 3.219.36 3.219 1.297 0 .063.25.22.297.22.062 0 .297-.157.297-.22 0-.937 1.406-1.296 3.234-1.296h4.781c1.688 0 3.422-1.235 3.813-2.297zm0 0"/></svg><svg overflow="visible" x="93.387" y="42.52"><path d="M5.531-5.031L6-5.578c.188.168.383.375.594.625l-.094.14H1.297l-.078-.218zm.813 4.156l.468-.578c.22.187.422.402.61.64l-.094.157H.641L.547-.875zm0 0"/></svg><svg overflow="visible" x="101.756" y="42.52"><path d="M4.125-4.875h.578c.07-.29.129-.629.172-1.016H3.047l-.094-.203h3.672l.422-.515c.187.148.351.304.5.468l.078.094-.078.156H5.516c-.18.356-.371.696-.579 1.016h1.47l.312-.375c.32.25.484.414.484.484 0 .032-.023.063-.062.094l-.188.125v3.672h-.469v-.297H4.063v.344h-.47v-4.297c.188.074.364.156.532.25zm2.36 1.281H4.061v.969h2.422zm0-.187v-.89H4.061v.89zm0 2.406v-1.047H4.061v1.047zM2-5.172v3.36c.406-.133.797-.27 1.172-.407l.047.188C2.375-1.582 1.602-1.238.906-1c-.023.23-.07.344-.14.344-.106 0-.235-.242-.391-.735.414-.082.8-.175 1.156-.28v-3.5H.47L.39-5.376h1.921l.36-.5c.164.148.332.324.5.531l-.078.172zM5.578-.89c1.383.293 2.078.649 2.078 1.063 0 .187-.086.281-.25.281a.33.33 0 01-.234-.11C6.797-.062 6.238-.421 5.5-.733zM2.25.375C3.082.094 3.781-.32 4.344-.875c.406.2.61.344.61.438 0 .054-.063.078-.188.078-.024 0-.079-.004-.172-.016A6.695 6.695 0 012.39.547zm0 0"/></svg><svg overflow="visible" x="110.124" y="42.52"><path d="M3.969-2.703L4-2.72c.676-.562 1.406-1.328 2.188-2.297.414.23.625.403.625.516 0 .055-.07.078-.204.078-.043 0-.117-.004-.218-.016a15.52 15.52 0 01-2.047 1.735c.82-.05 1.468-.086 1.937-.11l.375-.03a4.726 4.726 0 00-.781-.704L6-3.703c.57.281 1.004.578 1.297.89.207.243.312.45.312.626 0 .187-.086.28-.25.28-.105 0-.199-.093-.28-.28a2.754 2.754 0 00-.266-.454l-.079.016c-.586.094-1.117.156-1.593.188V.578h-.47V-2.39c-.343.032-.991.09-1.937.172-.062.18-.12.266-.171.266-.094 0-.188-.234-.282-.703.414 0 .977-.016 1.688-.047zm-.156-1.563c.394-.476.703-.921.921-1.328-.574.094-1.328.203-2.265.328l-.094-.187c1.738-.27 3.094-.598 4.063-.984.394.218.593.37.593.453 0 .054-.054.078-.156.078a1.7 1.7 0 01-.328-.047c-.563.125-1.117.234-1.656.328.363.156.546.29.546.39 0 .063-.074.094-.218.094h-.14A7.326 7.326 0 014-4.14c.281.22.422.422.422.61 0 .18-.086.265-.25.265-.094 0-.188-.082-.281-.25-.2-.375-.586-.738-1.157-1.093l.094-.157c.395.157.723.325.985.5zm-2.11 0c.29.055.438.121.438.204 0 .074-.11.148-.329.218V.578H1.36v-4.125C1.086-3.023.77-2.52.406-2.03l-.156-.11C1.05-3.46 1.633-4.945 2-6.594c.477.117.719.227.719.328 0 .086-.121.149-.36.188-.218.73-.437 1.336-.656 1.812zm4 2.422c.633.305 1.14.672 1.516 1.11.156.168.234.34.234.515 0 .211-.09.313-.266.313-.117 0-.214-.098-.296-.297-.211-.488-.641-.988-1.297-1.5zM2.141.125c.562-.52 1.02-1.176 1.375-1.969.437.2.656.356.656.469 0 .074-.121.11-.36.11A5.214 5.214 0 012.266.28zm0 0"/></svg><svg overflow="visible" x="118.493" y="42.52"><path d="M2.125-4.938v-1.671c.477.03.719.093.719.187 0 .063-.094.121-.281.172v1.313H3.5l.328-.438c.164.18.297.34.39.484l-.093.157H2.562v.296c.852.188 1.282.434 1.282.735 0 .168-.074.25-.219.25-.086 0-.168-.047-.25-.14a2.297 2.297 0 00-.813-.626v1.157h-.437v-1.204a5.543 5.543 0 01-1.64 1.188l-.11-.172c.664-.406 1.203-.898 1.61-1.484h-1.5l-.063-.204zm-.766 3.813a4.277 4.277 0 01-.14.219 2.279 2.279 0 00-.125.203l-.39-.172c.269-.414.503-.832.702-1.25h-1l-.078-.203h1.156c.094-.195.192-.445.297-.75.414.137.625.246.625.328 0 .063-.105.105-.312.125l-.125.297h1.5l.297-.39c.195.167.351.32.468.452l-.078.141h-.703v.031a.693.693 0 01-.031.11c-.106.449-.274.851-.5 1.203.469.23.703.437.703.625 0 .156-.074.234-.219.234a.281.281 0 01-.203-.094 8.941 8.941 0 00-.515-.421c-.45.5-1.165.832-2.141 1L.437.374C1.281.187 1.91-.16 2.329-.672a8.604 8.604 0 00-.969-.453zm.094-.172c.332.074.692.184 1.078.328.196-.332.348-.719.453-1.156H1.875a7.536 7.536 0 01-.422.828zm4.531-.219C6.43-.922 7.02-.414 7.75 0c-.148.133-.273.29-.375.469-.71-.508-1.258-1.04-1.64-1.594C5.171-.352 4.41.207 3.452.563L3.328.39c.938-.47 1.656-1.11 2.156-1.922-.375-.657-.656-1.52-.843-2.594-.211.45-.47.867-.782 1.25L3.688-3c.55-.895.94-2.098 1.171-3.61.5.106.75.212.75.313 0 .074-.109.133-.328.172a10.68 10.68 0 01-.328 1.188h1.875l.36-.5c.207.187.382.375.53.562l-.077.14h-.829v.11c-.105 1.25-.382 2.29-.828 3.11zm-.28-.406c.331-.789.534-1.695.609-2.719l.015-.093H4.875a.236.236 0 01-.031.093l-.047.125c.207 1.075.508 1.938.906 2.594zM.765-6.359c.57.324.859.648.859.968 0 .2-.094.297-.281.297-.117 0-.196-.093-.235-.281-.054-.27-.214-.55-.484-.844zM2.89-5.156c.25-.375.453-.79.609-1.25.395.18.594.312.594.406 0 .074-.106.11-.313.11-.156.23-.402.507-.734.827zm0 0"/></svg><svg overflow="visible" x="126.861" y="42.52"><path d="M1.61-2.156h1.702l.297-.375c.332.261.5.43.5.5 0 .031-.03.062-.093.094l-.188.125V.374h-.453v-.531H1.547v.64h-.453v-2.921c.156.074.328.167.515.28zm-.063.203V-.36h1.828v-1.594zm.672-3.406v-1.25c.508.023.765.093.765.218 0 .063-.105.133-.312.204v.828h.953l.36-.485c.195.18.367.352.515.516l-.11.172H.626L.547-5.36zm.484 2.187c.238-.488.438-1.125.594-1.906.476.156.719.289.719.39 0 .063-.106.11-.313.141a9.445 9.445 0 01-.75 1.375h.781l.375-.531c.176.168.344.36.5.578l-.078.156H.5l-.078-.203zm3.485-.61c.882.606 1.328 1.321 1.328 2.141 0 .762-.305 1.164-.907 1.204a.352.352 0 00-.156-.297c-.117-.051-.383-.114-.797-.188v-.219c.352.055.649.079.89.079.196 0 .329-.063.391-.188.063-.125.094-.313.094-.563 0-.675-.375-1.316-1.125-1.921.282-.563.54-1.235.782-2.016H5.375V.578h-.469v-6.797c.239.106.426.196.563.266H6.64l.28-.36c.333.313.5.512.5.594 0 .043-.023.074-.062.094l-.234.094a11.556 11.556 0 01-.938 1.75zM1.218-5c.583.46.876.902.876 1.328 0 .242-.106.36-.313.36-.117 0-.183-.086-.203-.266a2.574 2.574 0 00-.5-1.297zm0 0"/></svg><svg overflow="visible" x="135.23" y="42.52"><path d="M3.11-3.234H1.827l-.062-.204h3.687l.297-.359c.313.25.469.406.469.469 0 .043-.028.086-.078.125l-.157.125c-.011 1.586-.148 2.605-.406 3.062-.168.32-.476.485-.922.485 0-.156-.105-.278-.312-.36-.157-.062-.438-.125-.844-.187v-.219c.54.074.96.11 1.266.11.27 0 .445-.165.53-.5.134-.551.208-1.399.22-2.547H3.609c-.086.968-.312 1.742-.687 2.312C2.516-.285 1.875.207 1 .563L.875.39c.938-.508 1.57-1.196 1.906-2.063.164-.457.274-.976.328-1.562zm1.703-3.172C5.55-5.113 6.444-4.148 7.5-3.516a1.274 1.274 0 00-.406.485 7.398 7.398 0 01-1.907-2.156C5-5.5 4.806-5.867 4.61-6.298zM.53-2.828c1.102-.914 1.906-2.11 2.406-3.578.489.168.735.304.735.406 0 .074-.117.137-.344.188-.398.835-.828 1.507-1.297 2.015a7.282 7.282 0 01-1.36 1.125zm0 0"/></svg><svg overflow="visible" x="143.599" y="42.52"><path d="M3.766-5.313c.175.262.265.493.265.688 0 .305-.074.715-.218 1.234a8.518 8.518 0 01-.594 1.454c-.219.449-.434.765-.64.953a.971.971 0 01-.673.265c-.168 0-.355-.11-.562-.328-.149-.133-.262-.351-.344-.656a2.931 2.931 0 01-.14-.906c0-.414.093-.817.28-1.204a3.06 3.06 0 01.688-.921c.645-.582 1.43-.875 2.36-.875.718 0 1.332.171 1.843.515.727.512 1.094 1.219 1.094 2.125 0 .875-.32 1.547-.953 2.016-.574.437-1.34.715-2.297.828l-.047-.234c.895-.164 1.586-.508 2.078-1.032.438-.457.657-1 .657-1.625 0-.718-.258-1.304-.766-1.765-.406-.375-.95-.563-1.625-.563-.137 0-.274.012-.406.032zm-.25.047c-.532.137-.97.356-1.313.657-.293.25-.527.562-.703.937a2.516 2.516 0 00-.234 1.047c0 .43.097.793.296 1.094.125.18.25.265.375.265.114 0 .243-.07.391-.218.3-.313.578-.79.828-1.438.32-.789.485-1.383.485-1.781 0-.25-.043-.438-.125-.563zm0 0"/></svg><svg overflow="visible" x="151.967" y="42.52"><path d="M4.125-4.875h.578c.07-.29.129-.629.172-1.016H3.047l-.094-.203h3.672l.422-.515c.187.148.351.304.5.468l.078.094-.078.156H5.516c-.18.356-.371.696-.579 1.016h1.47l.312-.375c.32.25.484.414.484.484 0 .032-.023.063-.062.094l-.188.125v3.672h-.469v-.297H4.063v.344h-.47v-4.297c.188.074.364.156.532.25zm2.36 1.281H4.061v.969h2.422zm0-.187v-.89H4.061v.89zm0 2.406v-1.047H4.061v1.047zM2-5.172v3.36c.406-.133.797-.27 1.172-.407l.047.188C2.375-1.582 1.602-1.238.906-1c-.023.23-.07.344-.14.344-.106 0-.235-.242-.391-.735.414-.082.8-.175 1.156-.28v-3.5H.47L.39-5.376h1.921l.36-.5c.164.148.332.324.5.531l-.078.172zM5.578-.89c1.383.293 2.078.649 2.078 1.063 0 .187-.086.281-.25.281a.33.33 0 01-.234-.11C6.797-.062 6.238-.421 5.5-.733zM2.25.375C3.082.094 3.781-.32 4.344-.875c.406.2.61.344.61.438 0 .054-.063.078-.188.078-.024 0-.079-.004-.172-.016A6.695 6.695 0 012.39.547zm0 0"/></svg><g><svg overflow="visible" x="162.992" y="17.59"><path d="M2.484-3.125c0-.344-.468-.766-.828-.766-.343 0-.828.422-.828.766 0 .36.485.766.828.766.36 0 .828-.407.828-.766zm0 0"/></svg></g><g><svg overflow="visible" x="172.867" y="17.59"><path d="M4.156 2.719c0-.047-.078-.172-.11-.203-1.234-.922-2-3.22-2-5.141v-1c0-1.906.767-4.203 2-5.14a.457.457 0 00.11-.188c0-.063-.25-.25-.312-.25a1.01 1.01 0 00-.203.062C2.312-8.156 1-5.67 1-3.625v1C1-.578 2.313 1.906 3.64 2.906c.016.016.188.063.204.063.062 0 .312-.203.312-.25zm0 0"/></svg><svg overflow="visible" x="177.518" y="17.59"><path d="M5.203-.125v-.516h-.578c-1.078 0-.922 0-.922-.437v-6.703c0-.282-.187-.438-.578-.438-.766.797-1.672.766-2.266.766v.625c.438 0 1.282-.031 1.563-.172v5.922c0 .437.172.437-.906.437H.937v.672C1.547-.03 2.595-.03 3.079-.03c.469 0 1.516 0 2.125.062zm0 0"/></svg></g><g><svg overflow="visible" x="186.149" y="17.59"><path d="M8.828-3.125c0-.125-.312-.36-.437-.36H.906c-.125 0-.437.235-.437.36 0 .14.312.375.437.375h7.485c.125 0 .437-.234.437-.375zm0 0"/></svg></g><g><svg overflow="visible" x="198.104" y="17.59"><path d="M4.14-5.156c0-.125-.312-.266-.53-.266H2.78c.39-1.562.453-1.797.453-1.875 0-.203-.328-.453-.53-.453-.032 0-.579.14-.688.563l-.422 1.765H.64c-.25 0-.563.14-.563.36 0 .156.297.28.531.28h.813C.594-1.515.547-1.311.547-1.093c0 .64.656 1.219 1.312 1.219 1.22 0 2.079-1.875 2.079-1.969 0-.11-.282-.25-.329-.25-.109 0-.328.172-.375.297C2.72-.547 2.281-.39 1.875-.39c-.25 0-.172-.03-.172-.421 0-.282.016-.375.063-.579l.859-3.39h.953c.25 0 .563-.125.563-.375zm0 0"/></svg><svg overflow="visible" x="202.42" y="17.59"><path d="M3.64-2.625v-1c0-2.047-1.328-4.531-2.64-5.516a.774.774 0 00-.203-.062c-.063 0-.313.187-.313.25 0 .031.079.172.094.187 1.25.938 2.016 3.235 2.016 5.141v1c0 1.922-.766 4.219-2.016 5.14-.015.032-.094.157-.094.204 0 .047.25.25.313.25A.774.774 0 001 2.906c1.313-1 2.64-3.484 2.64-5.531zm0 0"/></svg></g><g><svg overflow="visible" x="207.08" y="14.134"><path d="M5.719-1.36c0-.109-.313-.265-.344-.265-.11 0-.328.203-.36.297-.202.672-.343.86-.687.86-.172 0 0 .046 0-.141 0-.188.047-.297.188-.672.109-.266.453-1.14.453-1.61 0-.812-.86-1.125-1.297-1.125-.703 0-1.313.485-1.563.813l.36.11c-.063-.579-.766-.923-1.11-.923-.359 0-.703.313-.812.5-.188.313-.36.907-.36.938 0 .11.329.281.344.281.125 0 .344-.187.39-.422.141-.484.079-.734.407-.734.219 0 .078.015.078.25 0 .156-.078.469-.14.687l-.188.75L.812-.687c-.03.109-.078.312-.078.343 0 .188.36.422.485.422.156 0 .437-.14.468-.219.047-.078.188-.468.22-.64l.187-.75.14-.563c.094-.344.047-.297.282-.64.234-.329.484-.72 1.125-.72.484 0 .28.267.28.423 0 .5-.358 1.437-.5 1.781-.093.234-.124.313-.124.453 0 .438.578.875 1.015.875.829 0 1.407-1.312 1.407-1.437zm0 0"/></svg><svg overflow="visible" x="212.988" y="14.134"><path d="M6.25-2.25c0-.094-.281-.328-.375-.328H.641c-.094 0-.375.234-.375.328s.28.328.375.328h5.234c.094 0 .375-.234.375-.328zm0 0"/></svg><svg overflow="visible" x="219.499" y="14.134"><path d="M2.922-5.39c0-.141-.313-.485-.547-.485-.219 0-.672.375-.672.625 0 .14.313.469.547.469.234 0 .672-.39.672-.61zm.219 4.03c0-.109-.313-.265-.344-.265-.11 0-.328.203-.375.297-.188.672-.344.86-.672.86-.172 0 0 .046 0-.141 0-.188.063-.344.14-.532l.266-.671.406-1.063a.794.794 0 00.047-.266c0-.39-.546-.875-1-.875-.828 0-1.421 1.297-1.421 1.438 0 .11.328.281.343.281.125 0 .344-.203.36-.297.218-.719.375-.86.687-.86.14 0 0-.093 0 .126 0 .203-.047.328-.25.844L.797-1.141c-.031.11-.078.22-.078.36 0 .39.547.86 1 .86.843 0 1.422-1.313 1.422-1.438zm0 0"/></svg></g><g><svg overflow="visible" x="226.035" y="17.59"><path d="M2.484-3.125c0-.344-.468-.766-.828-.766-.343 0-.828.422-.828.766 0 .36.485.766.828.766.36 0 .828-.407.828-.766zm0 0"/></svg></g><g><svg overflow="visible" x="232.013" y="17.59"><path d="M4.14-5.156c0-.125-.312-.266-.53-.266H2.78c.39-1.562.453-1.797.453-1.875 0-.203-.328-.453-.53-.453-.032 0-.579.14-.688.563l-.422 1.765H.64c-.25 0-.563.14-.563.36 0 .156.297.28.531.28h.813C.594-1.515.547-1.311.547-1.093c0 .64.656 1.219 1.312 1.219 1.22 0 2.079-1.875 2.079-1.969 0-.11-.282-.25-.329-.25-.109 0-.328.172-.375.297C2.72-.547 2.281-.39 1.875-.39c-.25 0-.172-.03-.172-.421 0-.282.016-.375.063-.579l.859-3.39h.953c.25 0 .563-.125.563-.375zm0 0"/></svg></g><g><svg overflow="visible" x="236.331" y="14.134"><path d="M2.922-5.39c0-.141-.313-.485-.547-.485-.219 0-.672.375-.672.625 0 .14.313.469.547.469.234 0 .672-.39.672-.61zm.219 4.03c0-.109-.313-.265-.344-.265-.11 0-.328.203-.375.297-.188.672-.344.86-.672.86-.172 0 0 .046 0-.141 0-.188.063-.344.14-.532l.266-.671.406-1.063a.794.794 0 00.047-.266c0-.39-.546-.875-1-.875-.828 0-1.421 1.297-1.421 1.438 0 .11.328.281.343.281.125 0 .344-.203.36-.297.218-.719.375-.86.687-.86.14 0 0-.093 0 .126 0 .203-.047.328-.25.844L.797-1.141c-.031.11-.078.22-.078.36 0 .39.547.86 1 .86.843 0 1.422-1.313 1.422-1.438zm0 0"/></svg></g><g><svg overflow="visible" x="172.87" y="20.555"><path d="M12.172 3.375V2.031H6.094C3.359 2.031.875 1.766.484.72.47.656.234.484.156.484c-.078 0-.36.204-.36.282 0 .015.063.14.032.125.406 1.093 3.235 2.625 6.266 2.625h6.078zm0 0"/></svg></g><g><svg overflow="visible" x="183.773" y="20.555"><path d="M12.078 3.375V2.031H-.203v1.485h12.281zm0 0"/></svg></g><g><svg overflow="visible" x="194.581" y="20.555"><path d="M23.938 2.031h-6.032c-2.984 0-5.468 1.094-5.937 1.906C11.484 3.125 9 2.032 6.03 2.032H-.203v1.485H6.03c3.094 0 5.578.218 5.578 1.25 0 .093.266.296.36.296.078 0 .344-.203.344-.296 0-1.032 2.484-1.25 5.593-1.25h6.235V2.03zm0 0"/></svg></g><g><svg overflow="visible" x="217.451" y="20.555"><path d="M12.078 3.375V2.031H-.203v1.485h12.281zm0 0"/></svg></g><g><svg overflow="visible" x="228.246" y="20.555"><path d="M12.156.766c0-.079-.265-.282-.344-.282-.078 0-.328.172-.343.235-.39 1.047-2.86 1.312-5.594 1.312H-.203v1.485h6.078c3.031 0 5.844-1.532 6.25-2.625-.031.015.031-.11.031-.125zm0 0"/></svg></g><g><svg overflow="visible" x="177.25" y="34.522"><path d="M3.64-5.703h1.61l.328-.375c.344.293.516.484.516.578 0 .031-.028.059-.078.078l-.266.078c-.781 1-1.672 1.762-2.672 2.282-.668.335-1.469.617-2.406.843l-.11-.172c1.282-.414 2.282-.882 3-1.406a.223.223 0 01-.062.016c-.105 0-.188-.078-.25-.235-.086-.25-.293-.492-.625-.734-.531.418-1.168.777-1.906 1.078l-.11-.156c1.332-.695 2.36-1.613 3.079-2.75.437.156.656.277.656.36 0 .073-.133.116-.39.124a3.459 3.459 0 01-.313.39zm-.187.203c-.187.2-.406.406-.656.625.644.242.969.508.969.797a.281.281 0 01-.063.172A7.577 7.577 0 005.266-5.5zm1.344 2.469H6.5l.313-.36c.332.313.5.512.5.594 0 .031-.028.059-.079.078L7-2.625C6.113-1.469 5.086-.645 3.922-.156c-.774.32-1.711.554-2.813.703L1 .359C2.457.08 3.625-.332 4.5-.875h-.031c-.094 0-.164-.047-.203-.14-.149-.352-.399-.676-.75-.97a9.174 9.174 0 01-1.891.938l-.11-.172C2.962-1.852 4.126-2.78 5-4c.414.137.625.25.625.344 0 .074-.125.117-.375.125-.086.105-.219.261-.406.469zm-.203.203a6.688 6.688 0 01-.875.719c.687.336 1.031.652 1.031.953A.248.248 0 014.703-1a7.748 7.748 0 001.813-1.828zm0 0"/></svg><svg overflow="visible" x="185.619" y="34.522"><path d="M4.125-4.875h.578c.07-.29.129-.629.172-1.016H3.047l-.094-.203h3.672l.422-.515c.187.148.351.304.5.468l.078.094-.078.156H5.516c-.18.356-.371.696-.579 1.016h1.47l.312-.375c.32.25.484.414.484.484 0 .032-.023.063-.062.094l-.188.125v3.672h-.469v-.297H4.063v.344h-.47v-4.297c.188.074.364.156.532.25zm2.36 1.281H4.061v.969h2.422zm0-.187v-.89H4.061v.89zm0 2.406v-1.047H4.061v1.047zM2-5.172v3.36c.406-.133.797-.27 1.172-.407l.047.188C2.375-1.582 1.602-1.238.906-1c-.023.23-.07.344-.14.344-.106 0-.235-.242-.391-.735.414-.082.8-.175 1.156-.28v-3.5H.47L.39-5.376h1.921l.36-.5c.164.148.332.324.5.531l-.078.172zM5.578-.89c1.383.293 2.078.649 2.078 1.063 0 .187-.086.281-.25.281a.33.33 0 01-.234-.11C6.797-.062 6.238-.421 5.5-.733zM2.25.375C3.082.094 3.781-.32 4.344-.875c.406.2.61.344.61.438 0 .054-.063.078-.188.078-.024 0-.079-.004-.172-.016A6.695 6.695 0 012.39.547zm0 0"/></svg><svg overflow="visible" x="193.987" y="34.522"><path d="M4.938-4.516c.187 1.305.566 2.371 1.14 3.204.332.5.567.75.703.75.133 0 .266-.5.39-1.5l.204.093c-.055.524-.078.918-.078 1.188 0 .437.098.695.297.765-.055.25-.18.375-.375.375-.274 0-.625-.246-1.063-.734-.886-1.008-1.453-2.379-1.703-4.11H.703l-.078-.202h3.797a1.195 1.195 0 01-.016-.22 10.96 10.96 0 01-.047-1.077v-.547c.52.043.782.117.782.218 0 .063-.102.137-.297.22v.171c0 .399.023.797.078 1.203h1.64l.375-.562c.165.156.32.324.47.5l.062.078-.094.187zM2.89-2.78v1.89a26.411 26.411 0 001.765-.421l.032.218a29.263 29.263 0 01-3.329 1c-.043.219-.093.328-.156.328-.117 0-.242-.257-.375-.78.531-.071 1.063-.157 1.594-.25v-1.985H1.016l-.079-.203h2.547l.407-.547c.195.18.375.37.53.578l-.093.172zM5.5-6.406c.707.281 1.063.61 1.063.984 0 .2-.094.297-.282.297-.148 0-.242-.086-.281-.266-.074-.312-.273-.601-.594-.875zm0 0"/></svg><svg overflow="visible" x="202.356" y="34.522"><path d="M1.61-2.156h1.702l.297-.375c.332.261.5.43.5.5 0 .031-.03.062-.093.094l-.188.125V.374h-.453v-.531H1.547v.64h-.453v-2.921c.156.074.328.167.515.28zm-.063.203V-.36h1.828v-1.594zm.672-3.406v-1.25c.508.023.765.093.765.218 0 .063-.105.133-.312.204v.828h.953l.36-.485c.195.18.367.352.515.516l-.11.172H.626L.547-5.36zm.484 2.187c.238-.488.438-1.125.594-1.906.476.156.719.289.719.39 0 .063-.106.11-.313.141a9.445 9.445 0 01-.75 1.375h.781l.375-.531c.176.168.344.36.5.578l-.078.156H.5l-.078-.203zm3.485-.61c.882.606 1.328 1.321 1.328 2.141 0 .762-.305 1.164-.907 1.204a.352.352 0 00-.156-.297c-.117-.051-.383-.114-.797-.188v-.219c.352.055.649.079.89.079.196 0 .329-.063.391-.188.063-.125.094-.313.094-.563 0-.675-.375-1.316-1.125-1.921.282-.563.54-1.235.782-2.016H5.375V.578h-.469v-6.797c.239.106.426.196.563.266H6.64l.28-.36c.333.313.5.512.5.594 0 .043-.023.074-.062.094l-.234.094a11.556 11.556 0 01-.938 1.75zM1.218-5c.583.46.876.902.876 1.328 0 .242-.106.36-.313.36-.117 0-.183-.086-.203-.266a2.574 2.574 0 00-.5-1.297zm0 0"/></svg><svg overflow="visible" x="210.724" y="34.522"><path d="M3.11-3.234H1.827l-.062-.204h3.687l.297-.359c.313.25.469.406.469.469 0 .043-.028.086-.078.125l-.157.125c-.011 1.586-.148 2.605-.406 3.062-.168.32-.476.485-.922.485 0-.156-.105-.278-.312-.36-.157-.062-.438-.125-.844-.187v-.219c.54.074.96.11 1.266.11.27 0 .445-.165.53-.5.134-.551.208-1.399.22-2.547H3.609c-.086.968-.312 1.742-.687 2.312C2.516-.285 1.875.207 1 .563L.875.39c.938-.508 1.57-1.196 1.906-2.063.164-.457.274-.976.328-1.562zm1.703-3.172C5.55-5.113 6.444-4.148 7.5-3.516a1.274 1.274 0 00-.406.485 7.398 7.398 0 01-1.907-2.156C5-5.5 4.806-5.867 4.61-6.298zM.53-2.828c1.102-.914 1.906-2.11 2.406-3.578.489.168.735.304.735.406 0 .074-.117.137-.344.188-.398.835-.828 1.507-1.297 2.015a7.282 7.282 0 01-1.36 1.125zm0 0"/></svg><svg overflow="visible" x="219.093" y="34.522"><path d="M3.766-5.313c.175.262.265.493.265.688 0 .305-.074.715-.218 1.234a8.518 8.518 0 01-.594 1.454c-.219.449-.434.765-.64.953a.971.971 0 01-.673.265c-.168 0-.355-.11-.562-.328-.149-.133-.262-.351-.344-.656a2.931 2.931 0 01-.14-.906c0-.414.093-.817.28-1.204a3.06 3.06 0 01.688-.921c.645-.582 1.43-.875 2.36-.875.718 0 1.332.171 1.843.515.727.512 1.094 1.219 1.094 2.125 0 .875-.32 1.547-.953 2.016-.574.437-1.34.715-2.297.828l-.047-.234c.895-.164 1.586-.508 2.078-1.032.438-.457.657-1 .657-1.625 0-.718-.258-1.304-.766-1.765-.406-.375-.95-.563-1.625-.563-.137 0-.274.012-.406.032zm-.25.047c-.532.137-.97.356-1.313.657-.293.25-.527.562-.703.937a2.516 2.516 0 00-.234 1.047c0 .43.097.793.296 1.094.125.18.25.265.375.265.114 0 .243-.07.391-.218.3-.313.578-.79.828-1.438.32-.789.485-1.383.485-1.781 0-.25-.043-.438-.125-.563zm0 0"/></svg><svg overflow="visible" x="227.462" y="34.522"><path d="M4.125-4.875h.578c.07-.29.129-.629.172-1.016H3.047l-.094-.203h3.672l.422-.515c.187.148.351.304.5.468l.078.094-.078.156H5.516c-.18.356-.371.696-.579 1.016h1.47l.312-.375c.32.25.484.414.484.484 0 .032-.023.063-.062.094l-.188.125v3.672h-.469v-.297H4.063v.344h-.47v-4.297c.188.074.364.156.532.25zm2.36 1.281H4.061v.969h2.422zm0-.187v-.89H4.061v.89zm0 2.406v-1.047H4.061v1.047zM2-5.172v3.36c.406-.133.797-.27 1.172-.407l.047.188C2.375-1.582 1.602-1.238.906-1c-.023.23-.07.344-.14.344-.106 0-.235-.242-.391-.735.414-.082.8-.175 1.156-.28v-3.5H.47L.39-5.376h1.921l.36-.5c.164.148.332.324.5.531l-.078.172zM5.578-.89c1.383.293 2.078.649 2.078 1.063 0 .187-.086.281-.25.281a.33.33 0 01-.234-.11C6.797-.062 6.238-.421 5.5-.733zM2.25.375C3.082.094 3.781-.32 4.344-.875c.406.2.61.344.61.438 0 .054-.063.078-.188.078-.024 0-.079-.004-.172-.016A6.695 6.695 0 012.39.547zm0 0"/></svg></g></svg>