<svg xmlns="http://www.w3.org/2000/svg" xmlns:xlink="http://www.w3.org/1999/xlink" width="79px" height="40" viewBox="0 0 59 30"><svg overflow="visible" x="-1.117" y="18.067"><path d="M7.938 10.969c0-.125-.282-.36-.391-.39-1.453-.454-2.313-1.767-2.313-2.938V.469c0-1.438-1.468-3-2.734-3.594 1.266-.578 2.734-2.14 2.734-3.578v-7.172c0-1.172.86-2.484 2.313-2.938.11-.046.39-.265.39-.39 0-.14-.312-.39-.453-.39a1.55 1.55 0 00-.234.046c-1.688.531-3.531 2.203-3.531 3.672v7.172c0 1.312-.844 2.75-2.313 3.203-.11.031-.39.266-.39.375 0 .125.28.36.39.39C2.875-2.28 3.72-.843 3.72.47V7.64c0 1.468 1.844 3.125 3.531 3.671.047 0 .203.047.234.047.141 0 .454-.25.454-.39zm0 0"/></svg><svg overflow="visible" x="7.849" y="10.745"><path d="M6.484-4.625c0-.625-.89-.922-1.296-.922-.688 0-1.25.672-1.235.61-.125-.36-.969-.61-1.312-.61-1.235 0-2.125 1.672-2.125 1.969 0 .125.468.219.468.219l-.125.03c.094 0 .329-.155.344-.25.406-1.28 1.016-1.437 1.422-1.437.219 0 .438-.03.438.672 0 .36-.204 1.172-.641 2.844-.203.734-.406 1.11-.938 1.11-.078 0-.218.03-.218.03-.079.016.375-.374.375-.703 0-.328-.454-.546-.641-.546-.36 0-.86.437-.86.828 0 .547.797.906 1.329.906.797 0 1.36-.86 1.39-.938l-.343-.093c.156.437.78 1.031 1.5 1.031 1.234 0 2.109-1.672 2.109-1.969 0-.11-.297-.25-.344-.25-.11 0-.328.188-.36.266-.39 1.281-1 1.437-1.374 1.437-.469 0-.469-.25-.469-.656 0-.266.063-.531.203-1.062l.406-1.625c.063-.313.157-1.282.985-1.282a.604.604 0 00.187-.046c.079 0-.359.421-.359.718 0 .188.328.547.656.547.266 0 .828-.344.828-.828zm0 0"/></svg><svg overflow="visible" x="17.999" y="10.745"><path d="M8.828-4.281c0-.125-.312-.375-.437-.375H.906c-.125 0-.437.25-.437.375 0 .14.312.375.437.375h7.485c.125 0 .437-.235.437-.375zm0 2.328c0-.14-.312-.375-.437-.375H.906c-.125 0-.437.234-.437.375 0 .125.312.36.437.36h7.485c.125 0 .437-.235.437-.36zm0 0"/></svg><svg overflow="visible" x="30.631" y="10.745"><path d="M5.016-1.563c0-.109-.25-.265-.282-.265-.109 0-.28.187-.328.328-.265.86-.734 1.063-1.375 1.063-.734 0-1.547-.485-1.547-2.297 0-1.985.86-2.329 1.454-2.329.453 0 1 .141 1.109.344.14 0-.469.157-.469.64 0 .282.36.641.656.641.266 0 .657-.312.657-.656 0-.812-1-1.531-1.97-1.531-1.39 0-2.671 1.39-2.671 2.906C.25-1.188 1.563.125 2.922.125c1.578 0 2.094-1.578 2.094-1.688zm0 0"/></svg><svg overflow="visible" x="35.832" y="10.745"><path d="M5.64-2.703c0-1.547-1.327-2.922-2.718-2.922C1.5-5.625.187-4.203.187-2.703c0 1.531 1.36 2.828 2.735 2.828 1.406 0 2.719-1.313 2.719-2.828zm-1.234-.11c0 .422.047 1.063-.265 1.626-.329.562-.766.75-1.22.75-.437 0-.858-.141-1.218-.735-.312-.531-.281-1.14-.281-1.64 0-.454-.047-1.079.328-1.61.328-.516.75-.672 1.172-.672.453 0 .844.188 1.172.64.36.563.312 1.204.312 1.641zm0 0"/></svg><svg overflow="visible" x="41.69" y="10.745"><path d="M4.36-1.656c0-.657-.438-1.14-.548-1.25-.437-.375-.859-.485-1.656-.625-.344-.078-1.062-.094-1.062-.813 0-.36.093-.765 1.172-.765 1.296 0 1.203.968 1.218 1.328.016.094.266.25.313.25.125 0 .281-.203.281-.422v-1.25c0-.219-.156-.422-.281-.422-.094 0-.438.313-.438.313-.234-.204-.703-.313-1.093-.313-1.438 0-2.032.938-2.032 1.594 0 .14.047.656.5 1.078.375.328.907.453 1.454.562.656.125.687.125.984.375.219.172.328.329.328.672 0 .5-.125.922-1.188.922-.78 0-1.203-.297-1.468-1.484-.047-.219-.11-.14-.11-.14v-.22C.72-2.312.563-2.359.531-2.359c-.14 0-.297.218-.297.437v1.625c0 .219.157.422.282.422.062 0 .171-.047.375-.297.062-.094.062-.11.125-.172.343.422 1.109.469 1.312.469 1.25 0 2.031-.844 2.031-1.781zm0 0"/></svg><svg overflow="visible" x="46.305" y="10.745"><path d="M4.156 2.719c0-.047-.078-.172-.11-.203-1.234-.922-2-3.22-2-5.141v-1c0-1.906.767-4.203 2-5.14a.457.457 0 00.11-.188c0-.063-.25-.25-.312-.25a1.01 1.01 0 00-.203.062C2.312-8.156 1-5.67 1-3.625v1C1-.578 2.313 1.906 3.64 2.906c.016.016.188.063.204.063.062 0 .312-.203.312-.25zm0 0"/></svg><svg overflow="visible" x="50.956" y="10.745"><path d="M4.14-5.156c0-.125-.312-.266-.53-.266H2.78c.39-1.562.453-1.797.453-1.875 0-.203-.328-.453-.53-.453-.032 0-.579.14-.688.563l-.422 1.765H.64c-.25 0-.563.14-.563.36 0 .156.297.28.531.28h.813C.594-1.515.547-1.311.547-1.093c0 .64.656 1.219 1.312 1.219 1.22 0 2.079-1.875 2.079-1.969 0-.11-.282-.25-.329-.25-.109 0-.328.172-.375.297C2.72-.547 2.281-.39 1.875-.39c-.25 0-.172-.03-.172-.421 0-.282.016-.375.063-.579l.859-3.39h.953c.25 0 .563-.125.563-.375zm0 0"/></svg><svg overflow="visible" x="55.271" y="10.745"><path d="M3.64-2.625v-1c0-2.047-1.328-4.531-2.64-5.516a.774.774 0 00-.203-.062c-.063 0-.313.187-.313.25 0 .031.079.172.094.187 1.25.938 2.016 3.235 2.016 5.141v1c0 1.922-.766 4.219-2.016 5.14-.015.032-.094.157-.094.204 0 .047.25.25.313.25A.774.774 0 001 2.906c1.313-1 2.64-3.484 2.64-5.531zm0 0"/></svg><g><svg overflow="visible" x="8.824" y="25.19"><path d="M6.047-4.953c0-.219-.36-.469-.531-.469-.125 0-.454.11-.641.406-.016.047-.11.407-.156.625l-.235.954-.546 2.156c-.047.187-.36.89-1.141.89-.61 0-.547-.39-.547-.843 0-.547.203-1.282.61-2.344.187-.485.234-.625.234-.86 0-.53-.578-1.109-1.172-1.109C.782-5.547.14-3.687.14-3.578c0 .125.484.219.484.219l-.14.03c.124 0 .328-.155.39-.343.313-1.125.61-1.344 1.016-1.344.093 0 .093-.14.093.25 0 .297-.125.61-.203.829-.484 1.265-.687 1.953-.687 2.515 0 1.063.953 1.547 1.656 1.547.469 0 1-.234 1.344-.563L3.75-.53c-.156.61-.234 1.11-.719 1.734-.312.406-.61.719-1.172.719-.156 0-.515.094-.656-.234-.062 0 .234-.032.406-.188.11-.094.297-.36.297-.578 0-.375-.515-.547-.64-.547-.282 0-.875.313-.875.906 0 .594.734 1.172 1.468 1.172 1.235 0 2.657-1.219 3-2.578L6-4.688c.047-.171.047-.187.047-.265zm0 0"/></svg></g><g><svg overflow="visible" x="18.328" y="25.19"><path d="M8.828-4.281c0-.125-.312-.375-.437-.375H.906c-.125 0-.437.25-.437.375 0 .14.312.375.437.375h7.485c.125 0 .437-.235.437-.375zm0 2.328c0-.14-.312-.375-.437-.375H.906c-.125 0-.437.234-.437.375 0 .125.312.36.437.36h7.485c.125 0 .437-.235.437-.36zm0 0"/></svg></g><g><svg overflow="visible" x="30.96" y="25.19"><path d="M4.36-1.656c0-.657-.438-1.14-.548-1.25-.437-.375-.859-.485-1.656-.625-.344-.078-1.062-.094-1.062-.813 0-.36.093-.765 1.172-.765 1.296 0 1.203.968 1.218 1.328.016.094.266.25.313.25.125 0 .281-.203.281-.422v-1.25c0-.219-.156-.422-.281-.422-.094 0-.438.313-.438.313-.234-.204-.703-.313-1.093-.313-1.438 0-2.032.938-2.032 1.594 0 .14.047.656.5 1.078.375.328.907.453 1.454.562.656.125.687.125.984.375.219.172.328.329.328.672 0 .5-.125.922-1.188.922-.78 0-1.203-.297-1.468-1.484-.047-.219-.11-.14-.11-.14v-.22C.72-2.312.563-2.359.531-2.359c-.14 0-.297.218-.297.437v1.625c0 .219.157.422.282.422.062 0 .171-.047.375-.297.062-.094.062-.11.125-.172.343.422 1.109.469 1.312.469 1.25 0 2.031-.844 2.031-1.781zm0 0"/></svg><svg overflow="visible" x="35.575" y="25.19"><path d="M3.031-.14v-.5c-.922 0-.812.093-.812-.376v-4.562l-1.953.156v.625c.921 0 .875-.062.875.516v3.25c0 .547.03.39-.907.39v.657c.5-.047 1.063-.047 1.422-.047.125 0 .813 0 1.375.047zM2.36-7.36c0-.359-.437-.75-.718-.75-.344 0-.75.422-.75.75 0 .313.421.72.734.72.36 0 .734-.438.734-.72zm0 0"/></svg><svg overflow="visible" x="38.827" y="25.19"><path d="M6.39-.14v-.5c-.765 0-.906.156-.921-.204v-2.203c0-1.11-.047-1.562-.313-1.937-.343-.47-1.015-.579-1.422-.579-1.171 0-1.78 1.141-1.828 1.22h.25v-1.235L.22-5.422v.625c.969 0 .906-.062.906.531v3.235c0 .547.031.39-.906.39v.672C.688-.03 1.344-.03 1.672-.03c.344 0 1 0 1.453.062V-.64c-.906 0-.906.157-.906-.39V-3.25c0-1.25.672-1.781 1.422-1.781.734 0 .734.468.734 1.187v2.813c0 .547.031.39-.906.39v.672C3.938-.03 4.594-.03 4.922-.03c.344 0 1 0 1.469.062zm0 0"/></svg></g><g><svg overflow="visible" x="45.33" y="25.19"><path d="M4.156 2.719c0-.047-.078-.172-.11-.203-1.234-.922-2-3.22-2-5.141v-1c0-1.906.767-4.203 2-5.14a.457.457 0 00.11-.188c0-.063-.25-.25-.312-.25a1.01 1.01 0 00-.203.062C2.312-8.156 1-5.67 1-3.625v1C1-.578 2.313 1.906 3.64 2.906c.016.016.188.063.204.063.062 0 .312-.203.312-.25zm0 0"/></svg><svg overflow="visible" x="49.981" y="25.19"><path d="M4.14-5.156c0-.125-.312-.266-.53-.266H2.78c.39-1.562.453-1.797.453-1.875 0-.203-.328-.453-.53-.453-.032 0-.579.14-.688.563l-.422 1.765H.64c-.25 0-.563.14-.563.36 0 .156.297.28.531.28h.813C.594-1.515.547-1.311.547-1.093c0 .64.656 1.219 1.312 1.219 1.22 0 2.079-1.875 2.079-1.969 0-.11-.282-.25-.329-.25-.109 0-.328.172-.375.297C2.72-.547 2.281-.39 1.875-.39c-.25 0-.172-.03-.172-.421 0-.282.016-.375.063-.579l.859-3.39h.953c.25 0 .563-.125.563-.375zm0 0"/></svg><svg overflow="visible" x="54.296" y="25.19"><path d="M3.64-2.625v-1c0-2.047-1.328-4.531-2.64-5.516a.774.774 0 00-.203-.062c-.063 0-.313.187-.313.25 0 .031.079.172.094.187 1.25.938 2.016 3.235 2.016 5.141v1c0 1.922-.766 4.219-2.016 5.14-.015.032-.094.157-.094.204 0 .047.25.25.313.25A.774.774 0 001 2.906c1.313-1 2.64-3.484 2.64-5.531zm0 0"/></svg></g></svg>