<svg xmlns="http://www.w3.org/2000/svg" xmlns:xlink="http://www.w3.org/1999/xlink" width="336" height="63px" viewBox="0 0 252 47"><svg overflow="visible" x="6.06" y="8.745"><path d="M3.828-1.5c-.078.39-.203.86-.203 1.094 0 .234.234.531.594.531.578 0 1.203-.453 1.812-1.219-.047-.14-.265-.36-.5-.36-.343.391-.578.595-.703.595-.078 0 .031.078.031-.079 0-.109.063-.359.125-.671l.532-2.766c.078-.453 0-.344.421-.39l.344-.048c.063-.015.219-.359.203-.468l-.046.093S5.64-5.39 5.155-5.39H3c-.453 0-.703-.015-1.219-.03-.093.109-.078.53.032.609.437.062.515-.079.515.25 0 .25-.078.656-.234 1.328-.281 1.265-.485 1.89-.688 2.25-.218.437-.187.421-.297.421-.093 0 .016.016.032-.078-.047.016 0-.093 0-.109 0-.172-.25-.438-.422-.438-.235 0-.547.313-.594.547.031-.062-.016.063-.016.094 0 .281.438.672.782.672.453 0 .984-.438 1.203-.89.234-.485.578-1.563.797-2.547.265-1.126.234-1.344.656-1.344h.64c.266 0 .22-.078.22.11 0 .077-.032.187-.063.327zm0 0"/></svg><svg overflow="visible" x="12.062" y="8.745"><path d="M6.188-4.344c.046-.203.156-.562.156-.718 0-.204-.266-.454-.64-.454-.454 0-.595.657-.704 1.11l-.344 1.281C3.813-1.672 3.328-.859 2.734-.859c-.218 0-.218.015-.218-.313 0-.187.03-.437.109-.766l.516-1.953c.093-.375.25-.859.25-1.093a.565.565 0 00-.563-.532c-.578 0-1.375.454-1.984 1.22.047.14.281.359.5.359.36-.391.656-.594.765-.594.094 0-.03-.078-.03.078 0 .11-.063.36-.157.672l-.516 2.015a2.765 2.765 0 00-.125.797c0 .688.532 1.094.953 1.094.938 0 1.625-.781 2.422-1.938l-.172-.093-.125.406c-.109.375-.203.86-.203 1.094 0 .234.25.531.594.531.578 0 1.219-.453 1.828-1.219-.047-.14-.266-.36-.5-.36-.36.391-.594.595-.719.595-.078 0 .032.078.032-.079 0-.109.062-.359.125-.671zm0 0"/></svg><svg overflow="visible" x="18.29" y="8.745"><path d="M1.063-.984C1-.75.905-.454.905-.328c0 .203.281.453.672.453.453 0 .578-.656.688-1.11l.359-1.546h1.813L4.202-1.5C4.125-1.14 4-.64 4-.406c0 .234.25.531.61.531.562 0 1.202-.453 1.812-1.219-.047-.14-.266-.36-.5-.36-.36.391-.594.532-.703.532-.094 0 .015.078.015-.062 0-.11.063-.313.125-.625l.672-2.735c.047-.203.157-.562.157-.718 0-.204-.266-.454-.641-.454-.453 0-.61.657-.703 1.11l-.235 1.14H2.797l.156-.687c.11-.469.235-.938.235-1.14 0-.173-.22-.376-.376-.376-.39 0-.921.078-1.562.157-.11.125-.094.453 0 .593l.563.032c.14.015.062-.016.062.109 0 .11-.016.281-.11.61zm0 0"/></svg><svg overflow="visible" x="24.411" y="8.745"><path d="M6.188-4.344c.046-.203.156-.562.156-.718 0-.204-.266-.454-.64-.454-.454 0-.595.657-.704 1.11l-.344 1.281C3.813-1.672 3.328-.859 2.734-.859c-.218 0-.218.015-.218-.313 0-.187.03-.437.109-.766l.516-1.953c.093-.375.25-.859.25-1.093a.565.565 0 00-.563-.532c-.578 0-1.375.454-1.984 1.22.047.14.281.359.5.359.36-.391.656-.594.765-.594.094 0-.03-.078-.03.078 0 .11-.063.36-.157.672l-.516 2.015a2.765 2.765 0 00-.125.797c0 .688.532 1.094.953 1.094.938 0 1.625-.781 2.422-1.938l-.172-.093-.125.406c-.109.375-.203.86-.203 1.094 0 .234.25.531.594.531.578 0 1.219-.453 1.828-1.219-.047-.14-.266-.36-.5-.36-.36.391-.594.595-.719.595-.078 0 .032.078.032-.079 0-.109.062-.359.125-.671zm0 0"/></svg><svg overflow="visible" x="30.64" y="8.745"><path d="M6.188-4.344c.046-.203.156-.562.156-.718 0-.204-.266-.454-.64-.454-.454 0-.595.657-.704 1.11l-.344 1.281C3.813-1.672 3.328-.859 2.734-.859c-.218 0-.218.015-.218-.313 0-.187.03-.437.109-.766l.516-1.953c.093-.375.25-.859.25-1.093a.565.565 0 00-.563-.532c-.578 0-1.375.454-1.984 1.22.047.14.281.359.5.359.36-.391.656-.594.765-.594.094 0-.03-.078-.03.078 0 .11-.063.36-.157.672l-.516 2.015a2.765 2.765 0 00-.125.797c0 .688.532 1.094.953 1.094.938 0 1.625-.781 2.422-1.938l-.172-.093-.125.406c-.109.375-.203.86-.203 1.094 0 .234.25.531.594.531.578 0 1.219-.453 1.828-1.219-.047-.14-.266-.36-.5-.36-.36.391-.594.595-.719.595-.078 0 .032.078.032-.079 0-.109.062-.359.125-.671zm-.22-2.86L5.626-7.5c-.39.547-.781.813-1.11.813-.343 0-.421-.032-.421-.25 0-.11.047-.141.047-.25 0-.157-.266-.454-.516-.454-.188 0-.656.297-.656.735 0 .468.687.953 1.39.953.579 0 1.266-.438 1.672-1.188zm0 0"/></svg><svg overflow="visible" x="36.869" y="8.745"><path d="M1.063-.984C1-.75.905-.454.905-.328c0 .203.281.453.672.453.453 0 .578-.656.688-1.11l.359-1.546h1.813L4.202-1.5C4.125-1.14 4-.64 4-.406c0 .234.25.531.61.531.562 0 1.202-.453 1.812-1.219-.047-.14-.266-.36-.5-.36-.36.391-.594.532-.703.532-.094 0 .015.078.015-.062 0-.11.063-.313.125-.625l.672-2.735c.047-.203.157-.562.157-.718 0-.204-.266-.454-.641-.454-.453 0-.61.657-.703 1.11l-.235 1.14H2.797l.156-.687c.11-.469.235-.938.235-1.14 0-.173-.22-.376-.376-.376-.39 0-.921.078-1.562.157-.11.125-.094.453 0 .593l.563.032c.14.015.062-.016.062.109 0 .11-.016.281-.11.61zm0 0"/></svg><svg overflow="visible" x="42.99" y="8.745"><path d="M3.031-.531c-.406 0-.547-.172-.547-.672 0-.906.47-1.281.594-1.406.469-.422.688-.516.922-.516.281 0 .375.14.375.672 0 1.203-.688 1.922-1.344 1.922zm.047-3.422c.11-.469.25-.938.25-1.14 0-.173-.25-.376-.406-.376-.375 0-.906.078-1.563.157-.109.125-.078.453.016.593l.563.032c.14.015.062-.016.062.109 0 .11-.047.281-.11.61L1.376-1.61a2.973 2.973 0 00-.078.625C1.297-.328 1.953.14 2.53.14 3.953.14 5.61-1.188 5.61-2.72c0-.64-.5-1.312-1.062-1.312-.453 0-1.25.39-1.922 1.047h.219zM6.891-.922c-.094 0 .015.078.015-.015 0-.141.047-.344.125-.657l.625-2.64.297-1.344c-.39.14-.625.187-.844.187-.125 0-.375-.015-.453-.03l-.172.109a1.4 1.4 0 01.047.406c0 .343-.062.687-.125.922L5.828-1.5c-.11.406-.203.86-.203 1.094 0 .234.297.531.656.531.563 0 1.203-.453 1.813-1.219-.047-.14-.266-.36-.5-.36-.344.391-.578.532-.703.532zm0 0"/></svg><svg overflow="visible" x="50.952" y="8.745"><path d="M6.188-4.344c.046-.203.156-.562.156-.718 0-.204-.266-.454-.64-.454-.454 0-.595.657-.704 1.11l-.344 1.281C3.813-1.672 3.328-.859 2.734-.859c-.218 0-.218.015-.218-.313 0-.187.03-.437.109-.766l.516-1.953c.093-.375.25-.859.25-1.093a.565.565 0 00-.563-.532c-.578 0-1.375.454-1.984 1.22.047.14.281.359.5.359.36-.391.656-.594.765-.594.094 0-.03-.078-.03.078 0 .11-.063.36-.157.672l-.516 2.015a2.765 2.765 0 00-.125.797c0 .688.532 1.094.953 1.094.938 0 1.625-.781 2.422-1.938l-.172-.093-.125.406c-.109.375-.203.86-.203 1.094 0 .234.25.531.594.531.578 0 1.219-.453 1.828-1.219-.047-.14-.266-.36-.5-.36-.36.391-.594.595-.719.595-.078 0 .032.078.032-.079 0-.109.062-.359.125-.671zm-.22-2.86L5.626-7.5c-.39.547-.781.813-1.11.813-.343 0-.421-.032-.421-.25 0-.11.047-.141.047-.25 0-.157-.266-.454-.516-.454-.188 0-.656.297-.656.735 0 .468.687.953 1.39.953.579 0 1.266-.438 1.672-1.188zm0 0"/></svg><svg overflow="visible" x="60.501" y="8.745"><path d="M7.766-1.563v-.921H.406v1.046h7.36zm0-2.39v-.922H.406v1.047h7.36zm0 0"/></svg><svg overflow="visible" x="72.012" y="8.745" fill="#00f"><path d="M4.219-4.203c0 .406-.078.875-.172 1.187C3.703-1.875 3.03-.875 2.219-.875c-.328 0-.547-.016-.547-.656 0-.422.125-.938.344-1.485.406-1 .953-1.906 1.78-1.906.454 0 .423.219.423.719zM5.64-5.375H4.547l-.094.39h.25c0-.124-.406-.546-.922-.546-1.719 0-3.469 2.515-3.469 4.093 0 .766.47 1.563 1.235 1.563.469 0 1.312-.203 2.14-1.266h-.25c0 .063-.078.313-.078.47 0 .39.282.796.672.796.578 0 1.328-.766 1.766-1.438l-.344-.343c-.562.75-.625.734-.75.734-.094 0 0 .063 0-.062 0-.11-.047-.047-.047-.047l.047-.094 1.125-4.25zm0 0"/></svg><svg overflow="visible" x="80.67" y="8.745"><path d="M7.75-2.766v-.921H4.64v-3.11H3.532v3.11H.406v1.062h3.125v3.11h1.11v-3.11H7.75zm0 0"/></svg><svg overflow="visible" x="91.517" y="8.745" fill="red"><path d="M2.297-3.14c.125-.547.375-1.47 1.234-1.47.406 0 .688.126.688.97 0 1.218-.625 3.156-2.078 3.156-.282 0-.5 0-.5-.094zm.422-1.563l.922-3.578-2.297.344.11.484c.218-.094.359-.094.484-.094.156 0 .171-.047.171.11 0 .03 0 .093-.015.14L.359-.516c.594.391 1.204.641 1.844.641 1.875 0 3.328-2.281 3.328-3.719 0-.984-.64-1.937-1.484-1.937-.578 0-1.172.406-1.438.672l.11.125zm0 0"/></svg><svg overflow="visible" x="-.109" y="26.179"><path d="M5.625-4.25c.234 0 .734-.36.734-.766 0-.203-.28-.5-.656-.5-.594 0-1.219.688-1.562 1.25-.407.641-.766 1.079-1.375 1.079l.187-.766c.11-.469.25-.938.25-1.14 0-.173-.234-.376-.39-.376-.391 0-.922.078-1.563.157-.11.125-.094.453 0 .593l.563.032c.14.015.062-.016.062.109 0 .11-.016.281-.11.61L1.064-.985C1-.75.905-.454.905-.328c0 .203.281.453.672.453.453 0 .578-.656.688-1.11L2.625-2.5c.719.078.703.39.828 1.016.094.5.5 1.468 1.047 1.484l.875.031.094-.093.078-.297c0-.079-.203-.22-.266-.22l-.078-.015c-.453-.062-.531-.953-.61-1.422-.124-.578-.671-.953-1.312-.953v.25c.547-.078 1.016-.61 1.328-1.125.204-.375.344-.61.47-.61.28 0 .187.204.546.204zm0 0"/></svg><svg overflow="visible" x="5.51" y="26.179"><path d="M3.828-1.734c0 .796-.344 1.375-1.094 1.375-.359 0-.78-.016-.78-.938 0-.39 0-.906.14-1.219.328-.125.672-.218.984-.218.563 0 .75.484.75 1zm.719-2.875c0 .75-.547 1.015-2.234 1.406.515-1.406 1.015-1.813 1.828-1.813.484 0 .406.25.406.407zm-.297-.938c-.922 0-1.797.39-2.469 1.11C1.125-3.72.734-2.798.734-1.876.734-.625 1.5.141 2.75.141c1.281 0 2.375-.891 2.375-1.797 0-.5-.422-1.516-1.64-1.578v.265c1.39-.484 2.203-.969 2.203-1.578 0-.36-.36-1-1.438-1zm0 0"/></svg><svg overflow="visible" x="10.699" y="26.179"><path d="M4.906-5.438c-.328-.03-.484-.078-.968-.078C2.671-5.516.78-3.5.78-1.625c0 .672.313 1.75 1.313 1.75.625 0 1.39-.703 2.031-1.64l-.156-.157-.14.469a2.125 2.125 0 00-.126.656c0 .219.235.672.64.672.75 0 1.376-.61 1.688-1.313-.11-.187-.265-.312-.515-.312-.344.484-.454.64-.579.64-.03 0 0 .11 0-.03 0-.11.079-.454.125-.672l.844-3.86c-.453 0-.765.047-1-.016zm-.703 2.594C3.61-1.766 2.797-.797 2.422-.797c-.406 0-.39-.344-.39-1.015 0-1.266.843-3.063 1.952-3.063.25 0 .407.047.625.188h.204s-.36 1.171-.641 1.89zm0 0"/></svg><svg overflow="visible" x="16.509" y="26.179"><path d="M4.547-4.25c0 .64-.219 3.625-1.688 3.625-.562 0-.734-.516-.734-1.328.016-1.922.844-2.875 1.656-2.875.328 0 .766.016.766.578zm-.5-1.297c-.25 0-.828.156-1.375.453C1.797-4.609.844-3.328.844-1.828c0 .937.594 1.969 1.64 1.969.891 0 1.438-.422 1.891-.829.734-.671 1.39-2.156 1.39-3.64-.015-.89-.28-1.844-.765-2.578-.89-1.407-1.781-1.282-2.64-1.766h-.032c-.015 0-.203.203-.203.313 0 .39.313.953.875 1.14 1 .344 1.703.39 1.703 1.719 0 .094 0 .188.047.047a3.073 3.073 0 00-.703-.094zm0 0"/></svg><svg overflow="visible" x="21.972" y="26.179"><path d="M3.328-4.953c.047-.219.156-.578.156-.719 0-.203-.265-.453-.656-.453-.453 0-.61.656-.703 1.11L2-4.392c-.578.407-1.016.766-1.422 1.266.063.188.328.406.61.406.296-.39.562-.61.89-.875l-.25-.094L.594 1.798C.53 2.125.5 2.14.125 2.203l-.234.031c-.063.016-.266.157-.266.235v.265l.063.079h.203s.718-.032 1.156-.032c.453 0 1.375-.015 1.375-.015l.062-.063v-.281c0-.063-.171-.219-.218-.235l-.22-.03c-.187-.032-.343.046-.25-.36L2.25-.125s.453.25.797.25c.844 0 1.64-.516 2.172-1.156.64-.782 1.015-1.688 1.015-2.547 0-1.016-.484-1.938-1.687-1.938-.61 0-1.156.266-1.172.266zm1.625 1.562c0 .579-.203 1.313-.656 2.016-.297.484-.672.813-1.125.813-.313 0-.547-.125-.75-.391l.765-3.39c.282-.173.532-.36.985-.36.812 0 .781.719.781 1.312zm0 0"/></svg><svg overflow="visible" x="27.818" y="26.179"><path d="M4.906-5.438c-.328-.03-.484-.078-.968-.078C2.671-5.516.78-3.5.78-1.625c0 .672.313 1.75 1.313 1.75.625 0 1.39-.703 2.031-1.64l-.156-.157-.14.469a2.125 2.125 0 00-.126.656c0 .219.235.672.64.672.75 0 1.376-.61 1.688-1.313-.11-.187-.265-.312-.515-.312-.344.484-.454.64-.579.64-.03 0 0 .11 0-.03 0-.11.079-.454.125-.672l.844-3.86c-.453 0-.765.047-1-.016zm-.703 2.594C3.61-1.766 2.797-.797 2.422-.797c-.406 0-.39-.344-.39-1.015 0-1.266.843-3.063 1.952-3.063.25 0 .407.047.625.188h.204s-.36 1.171-.641 1.89zm0 0"/></svg><svg overflow="visible" x="33.629" y="26.179"><path d="M2.016-3.969L1.344-.984c-.063.234-.157.53-.157.656 0 .203.266.453.641.453.453 0 .578-.656.688-1.11l.468-1.89c.907-1.297 1.47-1.656 1.86-1.656.234 0 .156-.047.156.312 0 .14-.016.422-.094.797L4.328-.984c-.062.234-.156.53-.156.656 0 .203.266.453.64.453.454 0 .594-.656.704-1.11l.437-1.843c.984-1.375 1.344-1.703 1.734-1.703.22 0 .188-.047.188.312 0 .125-.016.485-.11.844L7.298-1.5c-.11.5-.203.984-.203 1.094 0 .234.36.531.531.531.703 0 1.5-.484 1.906-1.469-.015-.11-.25-.297-.484-.297-.313.5-.531.782-.75.782-.063 0 .062.062.062 0 0-.047.016-.344.063-.485l.562-2.125c.063-.265.11-.64.11-.875 0-.75-.5-1.172-.875-1.172-.844 0-1.61.766-2.297 1.641l.25.094c.031-.188.047-.406.047-.563 0-.828-.5-1.172-.844-1.172-.86 0-1.734.672-2.39 1.516l.187.078v-.031c.125-.469.265-.938.265-1.14 0-.173-.218-.376-.374-.376-.391 0-.922.078-1.563.157-.11.125-.094.453 0 .593l.563.032c.156.015.062-.016.062.109 0 .11-.031.281-.11.61zm0 0"/></svg><svg overflow="visible" x="42.989" y="26.179"><path d="M3.031-.531c-.406 0-.547-.172-.547-.672 0-.906.47-1.281.594-1.406.469-.422.688-.516.922-.516.281 0 .375.14.375.672 0 1.203-.688 1.922-1.344 1.922zm.047-3.422c.11-.469.25-.938.25-1.14 0-.173-.25-.376-.406-.376-.375 0-.906.078-1.563.157-.109.125-.078.453.016.593l.563.032c.14.015.062-.016.062.109 0 .11-.047.281-.11.61L1.376-1.61a2.973 2.973 0 00-.078.625C1.297-.328 1.953.14 2.53.14 3.953.14 5.61-1.188 5.61-2.72c0-.64-.5-1.312-1.062-1.312-.453 0-1.25.39-1.922 1.047h.219zM6.891-.922c-.094 0 .015.078.015-.015 0-.141.047-.344.125-.657l.625-2.64.297-1.344c-.39.14-.625.187-.844.187-.125 0-.375-.015-.453-.03l-.172.109a1.4 1.4 0 01.047.406c0 .343-.062.687-.125.922L5.828-1.5c-.11.406-.203.86-.203 1.094 0 .234.297.531.656.531.563 0 1.203-.453 1.813-1.219-.047-.14-.266-.36-.5-.36-.344.391-.578.532-.703.532zm0 0"/></svg><svg overflow="visible" x="50.952" y="26.179"><path d="M6.188-4.344c.046-.203.156-.562.156-.718 0-.204-.266-.454-.64-.454-.454 0-.595.657-.704 1.11l-.344 1.281C3.813-1.672 3.328-.859 2.734-.859c-.218 0-.218.015-.218-.313 0-.187.03-.437.109-.766l.516-1.953c.093-.375.25-.859.25-1.093a.565.565 0 00-.563-.532c-.578 0-1.375.454-1.984 1.22.047.14.281.359.5.359.36-.391.656-.594.765-.594.094 0-.03-.078-.03.078 0 .11-.063.36-.157.672l-.516 2.015a2.765 2.765 0 00-.125.797c0 .688.532 1.094.953 1.094.938 0 1.625-.781 2.422-1.938l-.172-.093-.125.406c-.109.375-.203.86-.203 1.094 0 .234.25.531.594.531.578 0 1.219-.453 1.828-1.219-.047-.14-.266-.36-.5-.36-.36.391-.594.595-.719.595-.078 0 .032.078.032-.079 0-.109.062-.359.125-.671zm-.22-2.86L5.626-7.5c-.39.547-.781.813-1.11.813-.343 0-.421-.032-.421-.25 0-.11.047-.141.047-.25 0-.157-.266-.454-.516-.454-.188 0-.656.297-.656.735 0 .468.687.953 1.39.953.579 0 1.266-.438 1.672-1.188zm0 0"/></svg><svg overflow="visible" x="60.501" y="26.179"><path d="M7.766-1.563v-.921H.406v1.046h7.36zm0-2.39v-.922H.406v1.047h7.36zm0 0"/></svg><svg overflow="visible" x="72.012" y="26.179" fill="#00f"><path d="M4.219-4.203c0 .406-.078.875-.172 1.187C3.703-1.875 3.03-.875 2.219-.875c-.328 0-.547-.016-.547-.656 0-.422.125-.938.344-1.485.406-1 .953-1.906 1.78-1.906.454 0 .423.219.423.719zM5.64-5.375H4.547l-.094.39h.25c0-.124-.406-.546-.922-.546-1.719 0-3.469 2.515-3.469 4.093 0 .766.47 1.563 1.235 1.563.469 0 1.312-.203 2.14-1.266h-.25c0 .063-.078.313-.078.47 0 .39.282.796.672.796.578 0 1.328-.766 1.766-1.438l-.344-.343c-.562.75-.625.734-.75.734-.094 0 0 .063 0-.062 0-.11-.047-.047-.047-.047l.047-.094 1.125-4.25zm0 0"/></svg><svg overflow="visible" x="80.67" y="26.179"><path d="M2.578-3.156c0-.375-.469-.844-.86-.844-.39 0-.89.484-.89.844s.5.844.89.844c.391 0 .86-.454.86-.844zm0 0"/></svg><svg overflow="visible" x="86.746" y="26.179" fill="#00f"><path d="M4.219-4.203c0 .406-.078.875-.172 1.187C3.703-1.875 3.03-.875 2.219-.875c-.328 0-.547-.016-.547-.656 0-.422.125-.938.344-1.485.406-1 .953-1.906 1.78-1.906.454 0 .423.219.423.719zM5.64-5.375H4.547l-.094.39h.25c0-.124-.406-.546-.922-.546-1.719 0-3.469 2.515-3.469 4.093 0 .766.47 1.563 1.235 1.563.469 0 1.312-.203 2.14-1.266h-.25c0 .063-.078.313-.078.47 0 .39.282.796.672.796.578 0 1.328-.766 1.766-1.438l-.344-.343c-.562.75-.625.734-.75.734-.094 0 0 .063 0-.062 0-.11-.047-.047-.047-.047l.047-.094 1.125-4.25zm0 0"/></svg><svg overflow="visible" x="95.405" y="26.179"><path d="M7.75-2.766v-.921H4.64v-3.11H3.532v3.11H.406v1.062h3.125v3.11h1.11v-3.11H7.75zm0 0"/></svg><svg overflow="visible" x="106.251" y="26.179" fill="#00f"><path d="M4.219-4.203c0 .406-.078.875-.172 1.187C3.703-1.875 3.03-.875 2.219-.875c-.328 0-.547-.016-.547-.656 0-.422.125-.938.344-1.485.406-1 .953-1.906 1.78-1.906.454 0 .423.219.423.719zM5.64-5.375H4.547l-.094.39h.25c0-.124-.406-.546-.922-.546-1.719 0-3.469 2.515-3.469 4.093 0 .766.47 1.563 1.235 1.563.469 0 1.312-.203 2.14-1.266h-.25c0 .063-.078.313-.078.47 0 .39.282.796.672.796.578 0 1.328-.766 1.766-1.438l-.344-.343c-.562.75-.625.734-.75.734-.094 0 0 .063 0-.062 0-.11-.047-.047-.047-.047l.047-.094 1.125-4.25zm0 0"/></svg><svg overflow="visible" x="114.91" y="26.179"><path d="M2.578-3.156c0-.375-.469-.844-.86-.844-.39 0-.89.484-.89.844s.5.844.89.844c.391 0 .86-.454.86-.844zm0 0"/></svg><svg overflow="visible" x="120.986" y="26.179" fill="red"><path d="M2.297-3.14c.125-.547.375-1.47 1.234-1.47.406 0 .688.126.688.97 0 1.218-.625 3.156-2.078 3.156-.282 0-.5 0-.5-.094zm.422-1.563l.922-3.578-2.297.344.11.484c.218-.094.359-.094.484-.094.156 0 .171-.047.171.11 0 .03 0 .093-.015.14L.359-.516c.594.391 1.204.641 1.844.641 1.875 0 3.328-2.281 3.328-3.719 0-.984-.64-1.937-1.484-1.937-.578 0-1.172.406-1.438.672l.11.125zm0 0"/></svg><svg overflow="visible" x="129.262" y="26.179"><path d="M7.75-2.766v-.921H4.64v-3.11H3.532v3.11H.406v1.062h3.125v3.11h1.11v-3.11H7.75zm0 0"/></svg><svg overflow="visible" x="140.108" y="26.179" fill="red"><path d="M2.297-3.14c.125-.547.375-1.47 1.234-1.47.406 0 .688.126.688.97 0 1.218-.625 3.156-2.078 3.156-.282 0-.5 0-.5-.094zm.422-1.563l.922-3.578-2.297.344.11.484c.218-.094.359-.094.484-.094.156 0 .171-.047.171.11 0 .03 0 .093-.015.14L.359-.516c.594.391 1.204.641 1.844.641 1.875 0 3.328-2.281 3.328-3.719 0-.984-.64-1.937-1.484-1.937-.578 0-1.172.406-1.438.672l.11.125zm0 0"/></svg><svg overflow="visible" x="148.384" y="26.179"><path d="M2.578-3.156c0-.375-.469-.844-.86-.844-.39 0-.89.484-.89.844s.5.844.89.844c.391 0 .86-.454.86-.844zm0 0"/></svg><svg overflow="visible" x="154.46" y="26.179" fill="red"><path d="M2.297-3.14c.125-.547.375-1.47 1.234-1.47.406 0 .688.126.688.97 0 1.218-.625 3.156-2.078 3.156-.282 0-.5 0-.5-.094zm.422-1.563l.922-3.578-2.297.344.11.484c.218-.094.359-.094.484-.094.156 0 .171-.047.171.11 0 .03 0 .093-.015.14L.359-.516c.594.391 1.204.641 1.844.641 1.875 0 3.328-2.281 3.328-3.719 0-.984-.64-1.937-1.484-1.937-.578 0-1.172.406-1.438.672l.11.125zm0 0"/></svg><svg overflow="visible" x=".214" y="43.614"><path d="M5.625-4.25c.234 0 .734-.36.734-.766 0-.203-.28-.5-.656-.5-.594 0-1.219.688-1.562 1.25-.407.641-.766 1.079-1.375 1.079l.187-.766c.11-.469.25-.938.25-1.14 0-.173-.234-.376-.39-.376-.391 0-.922.078-1.563.157-.11.125-.094.453 0 .593l.563.032c.14.015.062-.016.062.109 0 .11-.016.281-.11.61L1.064-.985C1-.75.905-.454.905-.328c0 .203.281.453.672.453.453 0 .578-.656.688-1.11L2.625-2.5c.719.078.703.39.828 1.016.094.5.5 1.468 1.047 1.484l.875.031.094-.093.078-.297c0-.079-.203-.22-.266-.22l-.078-.015c-.453-.062-.531-.953-.61-1.422-.124-.578-.671-.953-1.312-.953v.25c.547-.078 1.016-.61 1.328-1.125.204-.375.344-.61.47-.61.28 0 .187.204.546.204zm0 0"/></svg><svg overflow="visible" x="5.833" y="43.614"><path d="M4.297-.031c.25-.39 1.75-2.719 2.094-3.5.171-.422.312-.86.312-1.281 0-.344-.297-.704-.766-.704-.343 0-.718.297-.718.579 0 .078.093.28.125.343.172.266.203.422.203.625 0 .516-.438 1.313-.844 1.969l.203.188S4.078-1 3.813-.625l.124.063c-.062-1.329-.14-2.454-.5-3.938-.171-.625-.468-1.016-.765-1.016-.281 0-1.266.547-1.735.891 0 .172.11.422.25.578.204-.094.594-.281.844-.281.14 0 .156 0 .235.094.046.093.062.187.125.406.375 1.219.734 4.14.64 4.328-.5.813-.89 1.313-1.062 1.313-.11 0-.25-.125-.313-.188-.093-.078-.422-.203-.515-.203-.25 0-.704.375-.704.734 0 .406.672.64.875.64.641 0 1.672-.812 2.454-2zm0 0"/></svg><svg overflow="visible" x="11.846" y="43.614"><path d="M5.828-3.64c0-.954-.578-1.876-1.781-1.876-1.063 0-1.75.704-2.094 1.22l.25.093c.11-.453.266-.86.5-1.203.5-.75.75-1.032 1.781-1.125.985-.094 1.86-.672 2.36-2.078H6.28c-.312.75-.64.859-1.578.921C2.391-7.5.843-3.625.843-1.875c0 1.344.907 2 1.782 2 1.594 0 3.203-1.86 3.203-3.766zM2.922-.532c-.5 0-.86-.547-.86-1.375 0-1.375.563-2.953 1.782-2.953.515 0 .703.515.703 1.312 0 1.438-.5 3.016-1.625 3.016zm0 0"/></svg><svg overflow="visible" x="17.274" y="43.614"><path d="M6.188-4.344c.046-.203.156-.562.156-.718 0-.204-.266-.454-.64-.454-.454 0-.595.657-.704 1.11l-.344 1.281C3.813-1.672 3.328-.859 2.734-.859c-.218 0-.218.015-.218-.313 0-.187.03-.437.109-.766l.516-1.953c.093-.375.25-.859.25-1.093a.565.565 0 00-.563-.532c-.578 0-1.375.454-1.984 1.22.047.14.281.359.5.359.36-.391.656-.594.765-.594.094 0-.03-.078-.03.078 0 .11-.063.36-.157.672l-.516 2.015a2.765 2.765 0 00-.125.797c0 .688.532 1.094.953 1.094.938 0 1.625-.781 2.422-1.938l-.172-.093-.125.406c-.109.375-.203.86-.203 1.094 0 .234.25.531.594.531.578 0 1.219-.453 1.828-1.219-.047-.14-.266-.36-.5-.36-.36.391-.594.595-.719.595-.078 0 .032.078.032-.079 0-.109.062-.359.125-.671zm0 0"/></svg><svg overflow="visible" x="23.503" y="43.614"><path d="M3.016-3.953c.125-.469.234-.938.234-1.14 0-.173-.219-.376-.375-.376-.39 0-.922.078-1.578.157-.11.125-.078.453.016.593l.562.032c.14.015.063-.016.063.109 0 .11-.032.281-.11.61l-.172.796c-.062.297-.093.5-.093.703 0 .469.312.906.953.906.687 0 1.687-.578 2.234-1l-.25-.093L4.25-1.5c-.078.36-.203.86-.203 1.094 0 .234.25.531.61.531.562 0 1.202-.453 1.812-1.219-.047-.14-.266-.36-.5-.36-.344.391-.594.532-.703.532-.094 0 .015.078.015-.062 0-.11.063-.313.14-.625l.657-2.735c.047-.203.156-.562.156-.718 0-.204-.265-.454-.64-.454-.453 0-.61.657-.703 1.11l-.266 1.203c-.453.344-1.11.781-1.5.781-.406 0-.313-.094-.313-.422 0-.203.032-.469.11-.797zm0 0"/></svg><svg overflow="visible" x="29.66" y="43.614"><path d="M4.094-4.547c0 1.063-1.11 1.328-1.828 1.422.375-1.531.89-1.75 1.39-1.75.438 0 .438-.031.438.328zM2-2.375c3.11-.61 3.219-1.672 3.219-2.125 0-.297-.422-1.016-1.282-1.016C1.86-5.516.845-3.344.845-1.828c0 1.016.625 1.953 1.625 1.953.797 0 1.625-.453 2.39-1.438-.078-.156-.296-.343-.515-.343-.703.718-.875.797-1.453.797-.532 0-.766-.157-.766-1.25v-.297zm0 0"/></svg><svg overflow="visible" x="34.454" y="43.614"><path d="M2.5.125c.86 0 1.734-.656 2.36-1.531-.048-.14-.313-.36-.485-.36-.5.563-.875.922-1.5.922-.203 0-.344-.015-.516-.25-.171-.218-.25-.36-.25-1.078 0-1.781.704-2.703 1.625-2.703.157 0 .344-.078.344.328 0 .063.016.063-.016.125-.03.047-.109.281-.109.344 0 .187.281.516.485.516.312 0 .765-.376.765-.672 0-.47-.187-1.282-1.484-1.282-.485 0-1.36.36-1.86.875C1.281-4 .844-2.984.844-1.906c0 .39.11 1.015.406 1.422.25.343.766.609 1.25.609zm0 0"/></svg><svg overflow="visible" x="39.104" y="43.614"><path d="M5.625-4.25c.234 0 .734-.36.734-.766 0-.203-.28-.5-.656-.5-.594 0-1.219.688-1.562 1.25-.407.641-.766 1.079-1.375 1.079l.187-.766c.11-.469.25-.938.25-1.14 0-.173-.234-.376-.39-.376-.391 0-.922.078-1.563.157-.11.125-.094.453 0 .593l.563.032c.14.015.062-.016.062.109 0 .11-.016.281-.11.61L1.064-.985C1-.75.905-.454.905-.328c0 .203.281.453.672.453.453 0 .578-.656.688-1.11L2.625-2.5c.719.078.703.39.828 1.016.094.5.5 1.468 1.047 1.484l.875.031.094-.093.078-.297c0-.079-.203-.22-.266-.22l-.078-.015c-.453-.062-.531-.953-.61-1.422-.124-.578-.671-.953-1.312-.953v.25c.547-.078 1.016-.61 1.328-1.125.204-.375.344-.61.47-.61.28 0 .187.204.546.204zm0 0"/></svg><svg overflow="visible" x="44.723" y="43.614"><path d="M6.188-4.344c.046-.203.156-.562.156-.718 0-.204-.266-.454-.64-.454-.454 0-.595.657-.704 1.11l-.344 1.281C3.813-1.672 3.328-.859 2.734-.859c-.218 0-.218.015-.218-.313 0-.187.03-.437.109-.766l.516-1.953c.093-.375.25-.859.25-1.093a.565.565 0 00-.563-.532c-.578 0-1.375.454-1.984 1.22.047.14.281.359.5.359.36-.391.656-.594.765-.594.094 0-.03-.078-.03.078 0 .11-.063.36-.157.672l-.516 2.015a2.765 2.765 0 00-.125.797c0 .688.532 1.094.953 1.094.938 0 1.625-.781 2.422-1.938l-.172-.093-.125.406c-.109.375-.203.86-.203 1.094 0 .234.25.531.594.531.578 0 1.219-.453 1.828-1.219-.047-.14-.266-.36-.5-.36-.36.391-.594.595-.719.595-.078 0 .032.078.032-.079 0-.109.062-.359.125-.671zm0 0"/></svg><svg overflow="visible" x="50.952" y="43.614"><path d="M6.188-4.344c.046-.203.156-.562.156-.718 0-.204-.266-.454-.64-.454-.454 0-.595.657-.704 1.11l-.344 1.281C3.813-1.672 3.328-.859 2.734-.859c-.218 0-.218.015-.218-.313 0-.187.03-.437.109-.766l.516-1.953c.093-.375.25-.859.25-1.093a.565.565 0 00-.563-.532c-.578 0-1.375.454-1.984 1.22.047.14.281.359.5.359.36-.391.656-.594.765-.594.094 0-.03-.078-.03.078 0 .11-.063.36-.157.672l-.516 2.015a2.765 2.765 0 00-.125.797c0 .688.532 1.094.953 1.094.938 0 1.625-.781 2.422-1.938l-.172-.093-.125.406c-.109.375-.203.86-.203 1.094 0 .234.25.531.594.531.578 0 1.219-.453 1.828-1.219-.047-.14-.266-.36-.5-.36-.36.391-.594.595-.719.595-.078 0 .032.078.032-.079 0-.109.062-.359.125-.671zm-.22-2.86L5.626-7.5c-.39.547-.781.813-1.11.813-.343 0-.421-.032-.421-.25 0-.11.047-.141.047-.25 0-.157-.266-.454-.516-.454-.188 0-.656.297-.656.735 0 .468.687.953 1.39.953.579 0 1.266-.438 1.672-1.188zm0 0"/></svg><g><svg overflow="visible" x="60.501" y="43.614"><path d="M7.766-1.563v-.921H.406v1.046h7.36zm0-2.39v-.922H.406v1.047h7.36zm0 0"/></svg></g><g fill="#00f"><svg overflow="visible" x="72.012" y="43.614"><path d="M4.219-4.203c0 .406-.078.875-.172 1.187C3.703-1.875 3.03-.875 2.219-.875c-.328 0-.547-.016-.547-.656 0-.422.125-.938.344-1.485.406-1 .953-1.906 1.78-1.906.454 0 .423.219.423.719zM5.64-5.375H4.547l-.094.39h.25c0-.124-.406-.546-.922-.546-1.719 0-3.469 2.515-3.469 4.093 0 .766.47 1.563 1.235 1.563.469 0 1.312-.203 2.14-1.266h-.25c0 .063-.078.313-.078.47 0 .39.282.796.672.796.578 0 1.328-.766 1.766-1.438l-.344-.343c-.562.75-.625.734-.75.734-.094 0 0 .063 0-.062 0-.11-.047-.047-.047-.047l.047-.094 1.125-4.25zm0 0"/></svg></g><g><svg overflow="visible" x="80.67" y="43.614"><path d="M2.578-3.156c0-.375-.469-.844-.86-.844-.39 0-.89.484-.89.844s.5.844.89.844c.391 0 .86-.454.86-.844zm0 0"/></svg></g><g fill="#00f"><svg overflow="visible" x="86.746" y="43.614"><path d="M4.219-4.203c0 .406-.078.875-.172 1.187C3.703-1.875 3.03-.875 2.219-.875c-.328 0-.547-.016-.547-.656 0-.422.125-.938.344-1.485.406-1 .953-1.906 1.78-1.906.454 0 .423.219.423.719zM5.64-5.375H4.547l-.094.39h.25c0-.124-.406-.546-.922-.546-1.719 0-3.469 2.515-3.469 4.093 0 .766.47 1.563 1.235 1.563.469 0 1.312-.203 2.14-1.266h-.25c0 .063-.078.313-.078.47 0 .39.282.796.672.796.578 0 1.328-.766 1.766-1.438l-.344-.343c-.562.75-.625.734-.75.734-.094 0 0 .063 0-.062 0-.11-.047-.047-.047-.047l.047-.094 1.125-4.25zm0 0"/></svg></g><g><svg overflow="visible" x="95.405" y="43.614"><path d="M2.578-3.156c0-.375-.469-.844-.86-.844-.39 0-.89.484-.89.844s.5.844.89.844c.391 0 .86-.454.86-.844zm0 0"/></svg></g><g fill="#00f"><svg overflow="visible" x="101.481" y="43.614"><path d="M4.219-4.203c0 .406-.078.875-.172 1.187C3.703-1.875 3.03-.875 2.219-.875c-.328 0-.547-.016-.547-.656 0-.422.125-.938.344-1.485.406-1 .953-1.906 1.78-1.906.454 0 .423.219.423.719zM5.64-5.375H4.547l-.094.39h.25c0-.124-.406-.546-.922-.546-1.719 0-3.469 2.515-3.469 4.093 0 .766.47 1.563 1.235 1.563.469 0 1.312-.203 2.14-1.266h-.25c0 .063-.078.313-.078.47 0 .39.282.796.672.796.578 0 1.328-.766 1.766-1.438l-.344-.343c-.562.75-.625.734-.75.734-.094 0 0 .063 0-.062 0-.11-.047-.047-.047-.047l.047-.094 1.125-4.25zm0 0"/></svg></g><g><svg overflow="visible" x="110.14" y="43.614"><path d="M7.75-2.766v-.921H4.64v-3.11H3.532v3.11H.406v1.062h3.125v3.11h1.11v-3.11H7.75zm0 0"/></svg></g><g fill="#00f"><svg overflow="visible" x="120.986" y="43.614"><path d="M4.219-4.203c0 .406-.078.875-.172 1.187C3.703-1.875 3.03-.875 2.219-.875c-.328 0-.547-.016-.547-.656 0-.422.125-.938.344-1.485.406-1 .953-1.906 1.78-1.906.454 0 .423.219.423.719zM5.64-5.375H4.547l-.094.39h.25c0-.124-.406-.546-.922-.546-1.719 0-3.469 2.515-3.469 4.093 0 .766.47 1.563 1.235 1.563.469 0 1.312-.203 2.14-1.266h-.25c0 .063-.078.313-.078.47 0 .39.282.796.672.796.578 0 1.328-.766 1.766-1.438l-.344-.343c-.562.75-.625.734-.75.734-.094 0 0 .063 0-.062 0-.11-.047-.047-.047-.047l.047-.094 1.125-4.25zm0 0"/></svg></g><g><svg overflow="visible" x="129.644" y="43.614"><path d="M2.578-3.156c0-.375-.469-.844-.86-.844-.39 0-.89.484-.89.844s.5.844.89.844c.391 0 .86-.454.86-.844zm0 0"/></svg></g><g fill="#00f"><svg overflow="visible" x="135.72" y="43.614"><path d="M4.219-4.203c0 .406-.078.875-.172 1.187C3.703-1.875 3.03-.875 2.219-.875c-.328 0-.547-.016-.547-.656 0-.422.125-.938.344-1.485.406-1 .953-1.906 1.78-1.906.454 0 .423.219.423.719zM5.64-5.375H4.547l-.094.39h.25c0-.124-.406-.546-.922-.546-1.719 0-3.469 2.515-3.469 4.093 0 .766.47 1.563 1.235 1.563.469 0 1.312-.203 2.14-1.266h-.25c0 .063-.078.313-.078.47 0 .39.282.796.672.796.578 0 1.328-.766 1.766-1.438l-.344-.343c-.562.75-.625.734-.75.734-.094 0 0 .063 0-.062 0-.11-.047-.047-.047-.047l.047-.094 1.125-4.25zm0 0"/></svg></g><g><svg overflow="visible" x="144.379" y="43.614"><path d="M2.578-3.156c0-.375-.469-.844-.86-.844-.39 0-.89.484-.89.844s.5.844.89.844c.391 0 .86-.454.86-.844zm0 0"/></svg></g><g fill="red"><svg overflow="visible" x="150.455" y="43.614"><path d="M2.297-3.14c.125-.547.375-1.47 1.234-1.47.406 0 .688.126.688.97 0 1.218-.625 3.156-2.078 3.156-.282 0-.5 0-.5-.094zm.422-1.563l.922-3.578-2.297.344.11.484c.218-.094.359-.094.484-.094.156 0 .171-.047.171.11 0 .03 0 .093-.015.14L.359-.516c.594.391 1.204.641 1.844.641 1.875 0 3.328-2.281 3.328-3.719 0-.984-.64-1.937-1.484-1.937-.578 0-1.172.406-1.438.672l.11.125zm0 0"/></svg></g><g><svg overflow="visible" x="158.731" y="43.614"><path d="M7.75-2.766v-.921H4.64v-3.11H3.532v3.11H.406v1.062h3.125v3.11h1.11v-3.11H7.75zm0 0"/></svg></g><g fill="#00f"><svg overflow="visible" x="169.577" y="43.614"><path d="M4.219-4.203c0 .406-.078.875-.172 1.187C3.703-1.875 3.03-.875 2.219-.875c-.328 0-.547-.016-.547-.656 0-.422.125-.938.344-1.485.406-1 .953-1.906 1.78-1.906.454 0 .423.219.423.719zM5.64-5.375H4.547l-.094.39h.25c0-.124-.406-.546-.922-.546-1.719 0-3.469 2.515-3.469 4.093 0 .766.47 1.563 1.235 1.563.469 0 1.312-.203 2.14-1.266h-.25c0 .063-.078.313-.078.47 0 .39.282.796.672.796.578 0 1.328-.766 1.766-1.438l-.344-.343c-.562.75-.625.734-.75.734-.094 0 0 .063 0-.062 0-.11-.047-.047-.047-.047l.047-.094 1.125-4.25zm0 0"/></svg></g><g><svg overflow="visible" x="178.236" y="43.614"><path d="M2.578-3.156c0-.375-.469-.844-.86-.844-.39 0-.89.484-.89.844s.5.844.89.844c.391 0 .86-.454.86-.844zm0 0"/></svg></g><g fill="red"><svg overflow="visible" x="184.312" y="43.614"><path d="M2.297-3.14c.125-.547.375-1.47 1.234-1.47.406 0 .688.126.688.97 0 1.218-.625 3.156-2.078 3.156-.282 0-.5 0-.5-.094zm.422-1.563l.922-3.578-2.297.344.11.484c.218-.094.359-.094.484-.094.156 0 .171-.047.171.11 0 .03 0 .093-.015.14L.359-.516c.594.391 1.204.641 1.844.641 1.875 0 3.328-2.281 3.328-3.719 0-.984-.64-1.937-1.484-1.937-.578 0-1.172.406-1.438.672l.11.125zm0 0"/></svg></g><g><svg overflow="visible" x="192.588" y="43.614"><path d="M2.578-3.156c0-.375-.469-.844-.86-.844-.39 0-.89.484-.89.844s.5.844.89.844c.391 0 .86-.454.86-.844zm0 0"/></svg></g><g fill="red"><svg overflow="visible" x="198.664" y="43.614"><path d="M2.297-3.14c.125-.547.375-1.47 1.234-1.47.406 0 .688.126.688.97 0 1.218-.625 3.156-2.078 3.156-.282 0-.5 0-.5-.094zm.422-1.563l.922-3.578-2.297.344.11.484c.218-.094.359-.094.484-.094.156 0 .171-.047.171.11 0 .03 0 .093-.015.14L.359-.516c.594.391 1.204.641 1.844.641 1.875 0 3.328-2.281 3.328-3.719 0-.984-.64-1.937-1.484-1.937-.578 0-1.172.406-1.438.672l.11.125zm0 0"/></svg></g><g><svg overflow="visible" x="206.94" y="43.614"><path d="M7.75-2.766v-.921H4.64v-3.11H3.532v3.11H.406v1.062h3.125v3.11h1.11v-3.11H7.75zm0 0"/></svg></g><g fill="red"><svg overflow="visible" x="217.786" y="43.614"><path d="M2.297-3.14c.125-.547.375-1.47 1.234-1.47.406 0 .688.126.688.97 0 1.218-.625 3.156-2.078 3.156-.282 0-.5 0-.5-.094zm.422-1.563l.922-3.578-2.297.344.11.484c.218-.094.359-.094.484-.094.156 0 .171-.047.171.11 0 .03 0 .093-.015.14L.359-.516c.594.391 1.204.641 1.844.641 1.875 0 3.328-2.281 3.328-3.719 0-.984-.64-1.937-1.484-1.937-.578 0-1.172.406-1.438.672l.11.125zm0 0"/></svg></g><g><svg overflow="visible" x="226.062" y="43.614"><path d="M2.578-3.156c0-.375-.469-.844-.86-.844-.39 0-.89.484-.89.844s.5.844.89.844c.391 0 .86-.454.86-.844zm0 0"/></svg></g><g fill="red"><svg overflow="visible" x="232.138" y="43.614"><path d="M2.297-3.14c.125-.547.375-1.47 1.234-1.47.406 0 .688.126.688.97 0 1.218-.625 3.156-2.078 3.156-.282 0-.5 0-.5-.094zm.422-1.563l.922-3.578-2.297.344.11.484c.218-.094.359-.094.484-.094.156 0 .171-.047.171.11 0 .03 0 .093-.015.14L.359-.516c.594.391 1.204.641 1.844.641 1.875 0 3.328-2.281 3.328-3.719 0-.984-.64-1.937-1.484-1.937-.578 0-1.172.406-1.438.672l.11.125zm0 0"/></svg></g><g><svg overflow="visible" x="240.414" y="43.614"><path d="M2.578-3.156c0-.375-.469-.844-.86-.844-.39 0-.89.484-.89.844s.5.844.89.844c.391 0 .86-.454.86-.844zm0 0"/></svg></g><g fill="red"><svg overflow="visible" x="246.49" y="43.614"><path d="M2.297-3.14c.125-.547.375-1.47 1.234-1.47.406 0 .688.126.688.97 0 1.218-.625 3.156-2.078 3.156-.282 0-.5 0-.5-.094zm.422-1.563l.922-3.578-2.297.344.11.484c.218-.094.359-.094.484-.094.156 0 .171-.047.171.11 0 .03 0 .093-.015.14L.359-.516c.594.391 1.204.641 1.844.641 1.875 0 3.328-2.281 3.328-3.719 0-.984-.64-1.937-1.484-1.937-.578 0-1.172.406-1.438.672l.11.125zm0 0"/></svg></g></svg>