<svg xmlns="http://www.w3.org/2000/svg" xmlns:xlink="http://www.w3.org/1999/xlink" width="367px" height="64" viewBox="0 0 275 48"><svg overflow="visible" x="3.925" y="8.745"><path d="M.25-.484c0 .28.313.593.531.593.313 0 .875-.296 2.11-1.218l-.266-.47-.484.329c-.36.234-.485.313-.594.313-.094 0 0 .03 0-.11s.047-.297.078-.437l1.547-7.313-.297-.265c-.766.39-1.063.453-2.094.546l-.094.5h.782c.281 0 .234-.046.234.141 0 .156-.047.422-.078.578L.485-1.703C.312-1.093.25-.75.25-.484zm0 0"/></svg><svg overflow="visible" x="7.249" y="8.745"><path d="M.234-4.766l.157.47.593-.391c.36-.22.36-.235.47-.235.109 0 .015-.031.015.11 0 .109-.047.359-.094.53L.578-1.405c-.094.375-.14.672-.14.922 0 .28.296.593.53.593.313 0 .876-.296 2.11-1.218l-.265-.47-.5.329c-.36.234-.47.313-.594.313-.078 0 .015.03.015-.11 0-.11.016-.203.079-.469l.921-3.64c.047-.203.079-.313.079-.422 0-.203-.266-.453-.47-.453-.265 0-.827.281-1.734.922l-.39.296zm1.641-2.578c0 .297.36.625.656.625.375 0 .813-.484.813-.937 0-.282-.344-.61-.594-.61-.36 0-.875.516-.875.922zm0 0"/></svg><svg overflow="visible" x="10.572" y="8.745"><path d="M.11-4.766l.171.47.594-.391c.422-.282.36-.266.438-.266.14 0 .03 0 .03.172 0 .61-.484 2.922-.968 4.64l.172.266c.39-.094.656-.172 1.078-.25.234-1.61.453-2.297 1-3.11.656-1.015 1.422-1.718 1.953-1.718.125 0 .031-.016.031.156 0 .219-.046.469-.14.86l-.625 2.53c-.11.438-.156.72-.156.907 0 .297.312.61.546.61.313 0 .86-.282 2.094-1.22l-.25-.468-.5.328c-.344.219-.469.313-.594.313-.078 0 .016.03.016-.11 0-.047.016-.187.016-.234l.796-3.297c.079-.344.125-.688.125-.89 0-.266-.296-.563-.53-.563-.5 0-1.47.5-2.173 1.156-.453.422-.78.828-1.406 1.703l.297.094.453-1.938c.047-.203.078-.343.078-.484 0-.25-.265-.531-.437-.531-.266 0-.86.312-1.735.922l-.39.296zm0 0"/></svg><svg overflow="visible" x="17.219" y="8.745"><path d="M0-1.469C0-.547.703.125 1.563.125c.687 0 1.468-.36 2.64-1.313L4-1.688l-.5.344c-.625.453-1.078.657-1.5.657-.578 0-.75-.313-.75-1.047 0-.313.031-.61.078-.86l.828-.203c.203-.047.516-.172.828-.297C4-3.547 4.641-4.219 4.641-4.954c0-.562-.563-1.077-1.172-1.077-.781 0-2.219.843-2.688 1.61C.421-3.845 0-2.313 0-1.47zm1.406-1.5l.11-.437c.187-.797.39-1.219.703-1.516.234-.219.5-.344.797-.344.343 0 .39.11.39.5 0 .516-.234.954-.86 1.25a6.042 6.042 0 01-1.093.375zm0 0"/></svg><svg overflow="visible" x="21.87" y="8.745"><path d="M-.125-.922c0 .516.36 1.047.578 1.047.25 0 .813-.281 1.25-.656.516-.453 1-1.016 1.656-1.938l-.296-.094-.344 1.516a2.715 2.715 0 00-.078.61c0 .265.28.562.468.562.266 0 .891-.36 1.922-1.219l-.187-.562c-.297.234-.297.25-.36.297-.39.312-.437.39-.609.39-.125 0-.016.031-.016-.156 0-.047 0-.078.016-.125l1.11-4.563-.282-.25-.453.25c-.422-.156-.656-.218-.969-.218-.344 0-.578.062-.906.218-.75.375-1.266.766-1.688 1.61-.453.906-.812 2.328-.812 3.281zm1.203-.39c0-.766.313-2.094.734-3.094.282-.688.407-.766.985-.766.281 0 .5.047.828.156-.25 1.22-.438 1.735-.828 2.344C2.14-1.656 1.516-.969 1.125-.969c-.14 0-.047-.015-.047-.344zm0 0"/></svg><svg overflow="visible" x="27.178" y="8.745"><path d="M.125-4.766l.172.47.594-.391c.343-.22.359-.235.453-.235.125 0 .031-.031.031.125 0 .703-.516 3.156-1 4.734l.266.188a5.85 5.85 0 01.984-.219l.328-1.547c.219-.984.453-1.53.969-2.203.406-.531.61-.75.875-.75.187 0 .172.032.344.235h.406c.062-.594.11-.97.219-1.516-.313-.14-.36-.156-.422-.156-.36 0-.86.328-1.297.937-.406.594-.875 1.25-1.172 1.907h.344l.312-1.516c.063-.25.14-.531.14-.813 0-.234-.25-.515-.437-.515-.25 0-.828.297-1.718.922l-.391.296zm0 0"/></svg><svg overflow="visible" x="35.15" y="8.745"><path d="M8.266-4.078a1.419 1.419 0 01-.047-.36c0-.109.015-.234.062-.484h-7.5c.063.25.063.375.063.484 0 .125 0 .235-.063.5h7.5zm0 2.625a1.332 1.332 0 01-.047-.36c0-.109.015-.234.062-.484h-7.5c.063.25.063.375.063.485 0 .125 0 .25-.063.5h7.5zm0 0"/></svg><svg overflow="visible" x="47.548" y="8.745"><path d="M4.203-7.828a.735.735 0 01-.187-.14c-.063-.063-.11-.126-.22-.329-1.593 1.61-2.5 3.266-2.5 4.781v.797c0 1.516.907 3.172 2.5 4.781.11-.203.157-.265.22-.328.062-.062.125-.109.312-.203C2.875.063 2.281-1.344 2.281-2.719v-.797c0-1.39.594-2.78 2.047-4.25zm0 0"/></svg><svg overflow="visible" x="52.617" y="8.745"><path d="M5.125-.094v-.484l-.75-.047c-.656-.031-.64-.031-.64-.656v-7.172l-.313-.125c-.875.469-1.61.781-2.86 1.219l.125.718h.235l1.547-.687.031-.016c.063 0-.047-.015-.047.266v5.797c0 .625.016.625-.64.656L1-.578v.625L3.125 0l2 .047zm0 0"/></svg><svg overflow="visible" x="61.26" y="8.745"><path d="M8.266-2.766a1.332 1.332 0 01-.047-.359c0-.11.015-.234.062-.484h-7.5c.063.25.063.375.063.484 0 .125 0 .25-.063.5h7.5zm0 0"/></svg><svg overflow="visible" x="73" y="8.745"><path d="M3.703-5.516c-.453.047-.86.063-1.156.063.172-.984.297-1.578.531-2.25l-.25-.328a7.16 7.16 0 01-1.094.531l-.296 2.031c-.391.203-.704.328-1.063.407l-.047.406h1l-.64 3.25C.625-1.11.53-.813.53-.5c0 .297.266.61.5.61.422 0 .922-.282 1.86-1.032.218-.172.14-.125.437-.36l-.25-.437-.672.469c-.36.25-.484.313-.625.313-.093 0-.031.046-.031-.11 0-.297.156-1.234.516-3l.14-.61h1.266l.203-.89zm0 0"/></svg><svg overflow="visible" x="77.041" y="8.745"><path d="M3.766-2.719v-.797c0-1.515-.907-3.171-2.516-4.78-.11.202-.156.265-.203.327-.063.063-.125.11-.313.203 1.438 1.47 2.032 2.86 2.032 4.25v.797c0 1.375-.594 2.781-2.032 4.25.188.094.25.14.313.203.047.063.094.125.203.329C2.86.452 3.766-1.204 3.766-2.72zm0 0"/></svg><svg overflow="visible" x="84.764" y="8.745"><path d="M8.266-2.766a1.332 1.332 0 01-.047-.359c0-.11.015-.234.062-.484h-3.25v-3.266c-.25.063-.375.078-.484.078-.125 0-.25-.016-.5-.078v3.266H.78c.063.25.063.375.063.484 0 .125 0 .25-.063.5h3.266V.641c.25-.063.375-.079.5-.079.11 0 .234.016.484.079v-3.266h3.25zm0 0"/></svg><svg overflow="visible" x="96.504" y="8.745"><path d="M3.703-5.516c-.453.047-.86.063-1.156.063.172-.984.297-1.578.531-2.25l-.25-.328a7.16 7.16 0 01-1.094.531l-.296 2.031c-.391.203-.704.328-1.063.407l-.047.406h1l-.64 3.25C.625-1.11.53-.813.53-.5c0 .297.266.61.5.61.422 0 .922-.282 1.86-1.032.218-.172.14-.125.437-.36l-.25-.437-.672.469c-.36.25-.484.313-.625.313-.093 0-.031.046-.031-.11 0-.297.156-1.234.516-3l.14-.61h1.266l.203-.89zm0 0"/></svg><svg overflow="visible" x=".865" y="27.391"><path d="M-.031-.234C.438 0 .969.125 1.39.125c.578 0 1.25-.25 1.859-.719.61-.484.906-1.015.906-1.625 0-.64-.531-1.11-1.437-1.281l-.5-.094c-.719-.14-.781-.203-.781-.703 0-.625.359-.984 1.046-.984.485 0 .813.172.954.422v.765h.609c.062-.547.11-.86.25-1.531-.64-.297-.969-.406-1.375-.406-.61 0-1.469.39-2.047.968-.313.329-.5.72-.5 1.157 0 .672.563 1.187 1.344 1.344l.75.14c.531.094.547.156.547.64 0 .798-.375 1.173-1.22 1.173-.437 0-.671-.094-.952-.329V-2.03h-.64C.124-1.297.062-.875-.079-.266zm0 0"/></svg><svg overflow="visible" x="5.516" y="27.391"><path d="M.11-1.063C.11-.359.437.125.718.125c.265 0 .625-.11.984-.39l.11-.063c.75-.578 1.546-1.422 1.984-2.203L3.5-2.625l-.906 4.938c-.047.296-.125.437-.344.671l.219.344a7.547 7.547 0 011.265-.25c.063-.765.141-1.422.25-2.015l1.032-5.454c.125-.718.203-1.03.328-1.468l-.39-.172-.407.265c-.453-.171-.813-.265-1.156-.265-.313 0-.735.14-1.079.343-.421.266-.953.688-1.218.985-.469.562-.985 2.406-.985 3.64zm1.202-.421c0-1.141.47-2.844.97-3.438.14-.187.374-.25.75-.25.343 0 .593.063.968.25l-.234 1.078c-.125.61-.344 1.031-.797 1.578C2.359-1.5 1.75-.969 1.406-.969c-.156 0-.093-.125-.093-.515zm0 0"/></svg><svg overflow="visible" x="10.872" y="27.391"><path d="M.203-4.766l.172.47.594-.391c.344-.22.344-.235.453-.235.125 0 .031-.031.031.11a.792.792 0 01-.031.203l-.75 3.562c-.031.11-.047.375-.047.563 0 .265.36.609.594.609.75 0 2.312-1.375 3.328-3.016l-.297-.093-.453 1.687c-.078.313-.125.61-.125.797 0 .297.312.625.531.625.313 0 .875-.313 2.11-1.234l-.266-.47-.484.329c-.297.188-.454.281-.61.281-.094 0 .016.047.016-.078 0-.14.047-.328.078-.469l1-4.296-.172-.235-1.047.266-.14.703c-.188.906-.422 1.61-.766 2.156C3.219-1.812 2.39-.969 1.906-.969c-.11 0 0 .031 0-.172 0-.187.032-.312.094-.625l.672-3.25c.047-.187.062-.343.062-.5 0-.234-.265-.515-.421-.515-.25 0-.829.281-1.735.922l-.39.296zm0 0"/></svg><svg overflow="visible" x="17.519" y="27.391"><path d="M-.125-.922c0 .516.36 1.047.578 1.047.25 0 .813-.281 1.25-.656.516-.453 1-1.016 1.656-1.938l-.296-.094-.344 1.516a2.715 2.715 0 00-.078.61c0 .265.28.562.468.562.266 0 .891-.36 1.922-1.219l-.187-.562c-.297.234-.297.25-.36.297-.39.312-.437.39-.609.39-.125 0-.016.031-.016-.156 0-.047 0-.078.016-.125l1.11-4.563-.282-.25-.453.25c-.422-.156-.656-.218-.969-.218-.344 0-.578.062-.906.218-.75.375-1.266.766-1.688 1.61-.453.906-.812 2.328-.812 3.281zm1.203-.39c0-.766.313-2.094.734-3.094.282-.688.407-.766.985-.766.281 0 .5.047.828.156-.25 1.22-.438 1.735-.828 2.344C2.14-1.656 1.516-.969 1.125-.969c-.14 0-.047-.015-.047-.344zm0 0"/></svg><svg overflow="visible" x="22.827" y="27.391"><path d="M.125-4.766l.172.47.594-.391c.343-.22.359-.235.453-.235.125 0 .031-.031.031.125 0 .703-.516 3.156-1 4.734l.266.188a5.85 5.85 0 01.984-.219l.328-1.547c.219-.984.453-1.53.969-2.203.406-.531.61-.75.875-.75.187 0 .172.032.344.235h.406c.062-.594.11-.97.219-1.516-.313-.14-.36-.156-.422-.156-.36 0-.86.328-1.297.937-.406.594-.875 1.25-1.172 1.907h.344l.312-1.516c.063-.25.14-.531.14-.813 0-.234-.25-.515-.437-.515-.25 0-.828.297-1.718.922l-.391.296zm0 0"/></svg><svg overflow="visible" x="27.178" y="27.391"><path d="M0-1.469C0-.547.703.125 1.563.125c.687 0 1.468-.36 2.64-1.313L4-1.688l-.5.344c-.625.453-1.078.657-1.5.657-.578 0-.75-.313-.75-1.047 0-.313.031-.61.078-.86l.828-.203c.203-.047.516-.172.828-.297C4-3.547 4.641-4.219 4.641-4.954c0-.562-.563-1.077-1.172-1.077-.781 0-2.219.843-2.688 1.61C.421-3.845 0-2.313 0-1.47zm1.406-1.5l.11-.437c.187-.797.39-1.219.703-1.516.234-.219.5-.344.797-.344.343 0 .39.11.39.5 0 .516-.234.954-.86 1.25a6.042 6.042 0 01-1.093.375zm0 0"/></svg><svg overflow="visible" x="35.15" y="27.391"><path d="M8.266-4.078a1.419 1.419 0 01-.047-.36c0-.109.015-.234.062-.484h-7.5c.063.25.063.375.063.484 0 .125 0 .235-.063.5h7.5zm0 2.625a1.332 1.332 0 01-.047-.36c0-.109.015-.234.062-.484h-7.5c.063.25.063.375.063.485 0 .125 0 .25-.063.5h7.5zm0 0"/></svg><svg overflow="visible" x="47.548" y="27.391"><path d="M4.203-7.828a.735.735 0 01-.187-.14c-.063-.063-.11-.126-.22-.329-1.593 1.61-2.5 3.266-2.5 4.781v.797c0 1.516.907 3.172 2.5 4.781.11-.203.157-.265.22-.328.062-.062.125-.109.312-.203C2.875.063 2.281-1.344 2.281-2.719v-.797c0-1.39.594-2.78 2.047-4.25zm0 0"/></svg><svg overflow="visible" x="52.617" y="27.391"><path d="M5.125-.094v-.484l-.75-.047c-.656-.031-.64-.031-.64-.656v-7.172l-.313-.125c-.875.469-1.61.781-2.86 1.219l.125.718h.235l1.547-.687.031-.016c.063 0-.047-.015-.047.266v5.797c0 .625.016.625-.64.656L1-.578v.625L3.125 0l2 .047zm0 0"/></svg><svg overflow="visible" x="61.26" y="27.391"><path d="M8.266-2.766a1.332 1.332 0 01-.047-.359c0-.11.015-.234.062-.484h-7.5c.063.25.063.375.063.484 0 .125 0 .25-.063.5h7.5zm0 0"/></svg><svg overflow="visible" x="73" y="27.391"><path d="M3.703-5.516c-.453.047-.86.063-1.156.063.172-.984.297-1.578.531-2.25l-.25-.328a7.16 7.16 0 01-1.094.531l-.296 2.031c-.391.203-.704.328-1.063.407l-.047.406h1l-.64 3.25C.625-1.11.53-.813.53-.5c0 .297.266.61.5.61.422 0 .922-.282 1.86-1.032.218-.172.14-.125.437-.36l-.25-.437-.672.469c-.36.25-.484.313-.625.313-.093 0-.031.046-.031-.11 0-.297.156-1.234.516-3l.14-.61h1.266l.203-.89zm0 0"/></svg><svg overflow="visible" x="77.041" y="27.391"><path d="M3.766-2.719v-.797c0-1.515-.907-3.171-2.516-4.78-.11.202-.156.265-.203.327-.063.063-.125.11-.313.203 1.438 1.47 2.032 2.86 2.032 4.25v.797c0 1.375-.594 2.781-2.032 4.25.188.094.25.14.313.203.047.063.094.125.203.329C2.86.452 3.766-1.204 3.766-2.72zm0 0"/></svg><svg overflow="visible" x="82.113" y="23.159"><path d="M4.75-.11c-.016-.187-.016-.265-.016-.39s0-.203.032-.547l-3.141.094 1.5-1.469c.938-.906 1.266-1.5 1.266-2.156 0-1.016-.891-1.781-2.125-1.781-.688 0-1.282.218-1.782.687L.297-4.266h.547l.172-.546c.156-.516.359-.594 1-.594.828 0 1.203.343 1.203 1.093 0 .657-.36 1.22-1.453 2.282L.078-.391v.422L2.391 0l2.375.031zm0 0"/></svg><svg overflow="visible" x="90.267" y="27.391"><path d="M8.266-2.766a1.332 1.332 0 01-.047-.359c0-.11.015-.234.062-.484h-3.25v-3.266c-.25.063-.375.078-.484.078-.125 0-.25-.016-.5-.078v3.266H.78c.063.25.063.375.063.484 0 .125 0 .25-.063.5h3.266V.641c.25-.063.375-.079.5-.079.11 0 .234.016.484.079v-3.266h3.25zm0 0"/></svg><svg overflow="visible" x="102.007" y="27.391"><path d="M5.719-.094c-.016-.25-.016-.375-.016-.547 0-.14 0-.265.031-.671l-4.28.125.093.234 2.187-2.313C4.891-4.5 5.281-5.25 5.281-6.14 5.281-7.516 4.22-8.5 2.703-8.5c-.86 0-1.562.281-2.172.906L.312-5.766h.594l.188-.687c.203-.688.5-.86 1.297-.86 1.03 0 1.546.516 1.546 1.532 0 .89-.468 1.687-1.828 3.11L.047-.454v.5L2.859 0l2.875.047zm0 0"/></svg><svg overflow="visible" x="110.639" y="27.391"><path d="M2.516-3.125c0-.422-.407-.844-.844-.844-.422 0-.86.422-.86.844 0 .438.438.86.86.86.437 0 .844-.422.844-.86zm0 0"/></svg><svg overflow="visible" x="116.64" y="27.391"><path d="M4.203-7.828a.735.735 0 01-.187-.14c-.063-.063-.11-.126-.22-.329-1.593 1.61-2.5 3.266-2.5 4.781v.797c0 1.516.907 3.172 2.5 4.781.11-.203.157-.265.22-.328.062-.062.125-.109.312-.203C2.875.063 2.281-1.344 2.281-2.719v-.797c0-1.39.594-2.78 2.047-4.25zm0 0"/></svg><svg overflow="visible" x="121.709" y="27.391"><path d="M5.125-.094v-.484l-.75-.047c-.656-.031-.64-.031-.64-.656v-7.172l-.313-.125c-.875.469-1.61.781-2.86 1.219l.125.718h.235l1.547-.687.031-.016c.063 0-.047-.015-.047.266v5.797c0 .625.016.625-.64.656L1-.578v.625L3.125 0l2 .047zm0 0"/></svg><svg overflow="visible" x="130.341" y="27.391"><path d="M8.266-2.766a1.332 1.332 0 01-.047-.359c0-.11.015-.234.062-.484h-7.5c.063.25.063.375.063.484 0 .125 0 .25-.063.5h7.5zm0 0"/></svg><svg overflow="visible" x="142.093" y="27.391"><path d="M3.703-5.516c-.453.047-.86.063-1.156.063.172-.984.297-1.578.531-2.25l-.25-.328a7.16 7.16 0 01-1.094.531l-.296 2.031c-.391.203-.704.328-1.063.407l-.047.406h1l-.64 3.25C.625-1.11.53-.813.53-.5c0 .297.266.61.5.61.422 0 .922-.282 1.86-1.032.218-.172.14-.125.437-.36l-.25-.437-.672.469c-.36.25-.484.313-.625.313-.093 0-.031.046-.031-.11 0-.297.156-1.234.516-3l.14-.61h1.266l.203-.89zm0 0"/></svg><svg overflow="visible" x="146.134" y="27.391"><path d="M3.766-2.719v-.797c0-1.515-.907-3.171-2.516-4.78-.11.202-.156.265-.203.327-.063.063-.125.11-.313.203 1.438 1.47 2.032 2.86 2.032 4.25v.797c0 1.375-.594 2.781-2.032 4.25.188.094.25.14.313.203.047.063.094.125.203.329C2.86.452 3.766-1.204 3.766-2.72zm0 0"/></svg><svg overflow="visible" x="153.857" y="27.391"><path d="M2.516-3.125c0-.422-.407-.844-.844-.844-.422 0-.86.422-.86.844 0 .438.438.86.86.86.437 0 .844-.422.844-.86zm0 0"/></svg><svg overflow="visible" x="159.858" y="27.391"><path d="M3.703-5.516c-.453.047-.86.063-1.156.063.172-.984.297-1.578.531-2.25l-.25-.328a7.16 7.16 0 01-1.094.531l-.296 2.031c-.391.203-.704.328-1.063.407l-.047.406h1l-.64 3.25C.625-1.11.53-.813.53-.5c0 .297.266.61.5.61.422 0 .922-.282 1.86-1.032.218-.172.14-.125.437-.36l-.25-.437-.672.469c-.36.25-.484.313-.625.313-.093 0-.031.046-.031-.11 0-.297.156-1.234.516-3l.14-.61h1.266l.203-.89zm0 0"/></svg><svg overflow="visible" x="166.553" y="27.391"><path d="M8.266-2.766a1.332 1.332 0 01-.047-.359c0-.11.015-.234.062-.484h-3.25v-3.266c-.25.063-.375.078-.484.078-.125 0-.25-.016-.5-.078v3.266H.78c.063.25.063.375.063.484 0 .125 0 .25-.063.5h3.266V.641c.25-.063.375-.079.5-.079.11 0 .234.016.484.079v-3.266h3.25zm0 0"/></svg><svg overflow="visible" x="178.305" y="27.391"><path d="M3.703-5.516c-.453.047-.86.063-1.156.063.172-.984.297-1.578.531-2.25l-.25-.328a7.16 7.16 0 01-1.094.531l-.296 2.031c-.391.203-.704.328-1.063.407l-.047.406h1l-.64 3.25C.625-1.11.53-.813.53-.5c0 .297.266.61.5.61.422 0 .922-.282 1.86-1.032.218-.172.14-.125.437-.36l-.25-.437-.672.469c-.36.25-.484.313-.625.313-.093 0-.031.046-.031-.11 0-.297.156-1.234.516-3l.14-.61h1.266l.203-.89zm0 0"/></svg><svg overflow="visible" x="182.348" y="23.159"><path d="M4.75-.11c-.016-.187-.016-.265-.016-.39s0-.203.032-.547l-3.141.094 1.5-1.469c.938-.906 1.266-1.5 1.266-2.156 0-1.016-.891-1.781-2.125-1.781-.688 0-1.282.218-1.782.687L.297-4.266h.547l.172-.546c.156-.516.359-.594 1-.594.828 0 1.203.343 1.203 1.093 0 .657-.36 1.22-1.453 2.282L.078-.391v.422L2.391 0l2.375.031zm0 0"/></svg><svg overflow="visible" x="6.591" y="46.038"><path d="M.125-1.75C.125-.61.797.125 1.75.125c.656 0 1.344-.266 2-.813l.656-.546-.203-.5-.375.25c-.86.578-1.187.75-1.61.75-.671 0-.843-.36-.843-1.297 0-1.266.36-2.406.938-2.875.25-.203.421-.266.812-.266.531 0 .781.094.781.375v.86H4.5c.125-.922.203-1.36.328-1.72-.36-.234-.875-.374-1.328-.374-.531 0-1.516.468-2.203 1.062C.625-4.375.125-3.03.125-1.75zm0 0"/></svg><svg overflow="visible" x="11.457" y="46.038"><path d="M.203-4.766l.172.47.594-.391c.344-.22.344-.235.453-.235.125 0 .031-.031.031.11a.792.792 0 01-.031.203l-.75 3.562c-.031.11-.047.375-.047.563 0 .265.36.609.594.609.75 0 2.312-1.375 3.328-3.016l-.297-.093-.453 1.687c-.078.313-.125.61-.125.797 0 .297.312.625.531.625.313 0 .875-.313 2.11-1.234l-.266-.47-.484.329c-.297.188-.454.281-.61.281-.094 0 .016.047.016-.078 0-.14.047-.328.078-.469l1-4.296-.172-.235-1.047.266-.14.703c-.188.906-.422 1.61-.766 2.156C3.219-1.812 2.39-.969 1.906-.969c-.11 0 0 .031 0-.172 0-.187.032-.312.094-.625l.672-3.25c.047-.187.062-.343.062-.5 0-.234-.265-.515-.421-.515-.25 0-.829.281-1.735.922l-.39.296zm0 0"/></svg><svg overflow="visible" x="18.104" y="46.038"><path d="M.266-.86c0 .47.75.985 1.406.985.437 0 1.172-.25 1.687-.625C4.5-1.313 5.344-3.047 5.344-4.625c0-.453-.157-1.016-.297-1.203-.094-.094-.36-.203-.547-.203-.281 0-.766.14-1.11.312-.609.313-1 .672-1.734 1.625L1.953-4l1.031-4.797-.296-.265c-.782.39-1.079.453-2.094.546l-.094.5h.781c.282 0 .219-.046.219.157 0 .093 0 .218-.016.296L.281-.984C.266-.938.266-.891.266-.86zM1.5-1.343c0-.297.047-.625.156-1.078.235-.953.469-1.422.953-1.922.391-.406.891-.718 1.235-.718.312 0 .297.14.297.718 0 .766-.25 1.797-.61 2.578-.406.829-.703 1.079-1.344 1.079-.546 0-.687-.157-.687-.657zm0 0"/></svg><svg overflow="visible" x="23.639" y="46.038"><path d="M.234-4.766l.157.47.593-.391c.36-.22.36-.235.47-.235.109 0 .015-.031.015.11 0 .109-.047.359-.094.53L.578-1.405c-.094.375-.14.672-.14.922 0 .28.296.593.53.593.313 0 .876-.296 2.11-1.218l-.265-.47-.5.329c-.36.234-.47.313-.594.313-.078 0 .015.03.015-.11 0-.11.016-.203.079-.469l.921-3.64c.047-.203.079-.313.079-.422 0-.203-.266-.453-.47-.453-.265 0-.827.281-1.734.922l-.39.296zm1.641-2.578c0 .297.36.625.656.625.375 0 .813-.484.813-.937 0-.282-.344-.61-.594-.61-.36 0-.875.516-.875.922zm0 0"/></svg><svg overflow="visible" x="26.963" y="46.038"><path d="M.125-1.75C.125-.61.797.125 1.75.125c.656 0 1.344-.266 2-.813l.656-.546-.203-.5-.375.25c-.86.578-1.187.75-1.61.75-.671 0-.843-.36-.843-1.297 0-1.266.36-2.406.938-2.875.25-.203.421-.266.812-.266.531 0 .781.094.781.375v.86H4.5c.125-.922.203-1.36.328-1.72-.36-.234-.875-.374-1.328-.374-.531 0-1.516.468-2.203 1.062C.625-4.375.125-3.03.125-1.75zm0 0"/></svg><svg overflow="visible" x="35.15" y="46.038"><path d="M8.266-4.078a1.419 1.419 0 01-.047-.36c0-.109.015-.234.062-.484h-7.5c.063.25.063.375.063.484 0 .125 0 .235-.063.5h7.5zm0 2.625a1.332 1.332 0 01-.047-.36c0-.109.015-.234.062-.484h-7.5c.063.25.063.375.063.485 0 .125 0 .25-.063.5h7.5zm0 0"/></svg><svg overflow="visible" x="47.548" y="46.038"><path d="M4.203-7.828a.735.735 0 01-.187-.14c-.063-.063-.11-.126-.22-.329-1.593 1.61-2.5 3.266-2.5 4.781v.797c0 1.516.907 3.172 2.5 4.781.11-.203.157-.265.22-.328.062-.062.125-.109.312-.203C2.875.063 2.281-1.344 2.281-2.719v-.797c0-1.39.594-2.78 2.047-4.25zm0 0"/></svg><svg overflow="visible" x="52.617" y="46.038"><path d="M5.125-.094v-.484l-.75-.047c-.656-.031-.64-.031-.64-.656v-7.172l-.313-.125c-.875.469-1.61.781-2.86 1.219l.125.718h.235l1.547-.687.031-.016c.063 0-.047-.015-.047.266v5.797c0 .625.016.625-.64.656L1-.578v.625L3.125 0l2 .047zm0 0"/></svg><svg overflow="visible" x="61.26" y="46.038"><path d="M8.266-2.766a1.332 1.332 0 01-.047-.359c0-.11.015-.234.062-.484h-7.5c.063.25.063.375.063.484 0 .125 0 .25-.063.5h7.5zm0 0"/></svg><svg overflow="visible" x="73" y="46.038"><path d="M3.703-5.516c-.453.047-.86.063-1.156.063.172-.984.297-1.578.531-2.25l-.25-.328a7.16 7.16 0 01-1.094.531l-.296 2.031c-.391.203-.704.328-1.063.407l-.047.406h1l-.64 3.25C.625-1.11.53-.813.53-.5c0 .297.266.61.5.61.422 0 .922-.282 1.86-1.032.218-.172.14-.125.437-.36l-.25-.437-.672.469c-.36.25-.484.313-.625.313-.093 0-.031.046-.031-.11 0-.297.156-1.234.516-3l.14-.61h1.266l.203-.89zm0 0"/></svg><svg overflow="visible" x="77.041" y="46.038"><path d="M3.766-2.719v-.797c0-1.515-.907-3.171-2.516-4.78-.11.202-.156.265-.203.327-.063.063-.125.11-.313.203 1.438 1.47 2.032 2.86 2.032 4.25v.797c0 1.375-.594 2.781-2.032 4.25.188.094.25.14.313.203.047.063.094.125.203.329C2.86.452 3.766-1.204 3.766-2.72zm0 0"/></svg><svg overflow="visible" x="82.113" y="41.806"><path d="M4.703-2.11c0-.421-.25-.89-.594-1.124a2.225 2.225 0 00-.703-.282c.531-.375.86-.875.86-1.406 0-.781-.86-1.437-1.938-1.437-.64 0-1.203.203-1.687.656L.312-4.406h.594l.219-.625c.11-.297.563-.469 1.063-.469.624 0 .984.328.984.89 0 .673-.406 1.094-1.094 1.094-.078 0-.36.204-.36.204l-.265-.094-.125.515.203.157c.407-.172.594-.22.844-.22.813 0 1.11.329 1.11 1.142 0 .906-.422 1.359-1.329 1.359-.437 0-.719-.094-1.015-.344C.906-.984.828-1.094.578-1.75l-.531.188c.234.609.312.937.375 1.468C1.078.11 1.5.172 1.859.172c.782 0 1.766-.422 2.297-1.016.328-.375.547-.86.547-1.265zm0 0"/></svg><svg overflow="visible" x="90.267" y="46.038"><path d="M8.266-2.766a1.332 1.332 0 01-.047-.359c0-.11.015-.234.062-.484h-3.25v-3.266c-.25.063-.375.078-.484.078-.125 0-.25-.016-.5-.078v3.266H.78c.063.25.063.375.063.484 0 .125 0 .25-.063.5h3.266V.641c.25-.063.375-.079.5-.079.11 0 .234.016.484.079v-3.266h3.25zm0 0"/></svg><svg overflow="visible" x="102.007" y="46.038"><path d="M5.656-2.813c0-.562-.281-1.171-.703-1.468-.297-.219-.672-.344-.953-.407.734-.562 1.125-1.203 1.125-1.906 0-1.062-1.016-1.906-2.344-1.906-.812 0-1.453.266-2.047.86L.328-5.954h.64l.266-.797c.125-.406.75-.688 1.375-.688.766 0 1.266.5 1.266 1.25 0 .907-.563 1.532-1.406 1.532-.11 0-.469.187-.469.187l-.25-.093-.14.671.202.188C2.297-3.938 2.516-4 2.845-4c1 0 1.422.516 1.422 1.594 0 1.219-.579 1.89-1.704 1.89-.546 0-.937-.14-1.296-.468C.984-1.25.859-1.438.578-2.25l-.562.219C.28-1.234.375-.797.469-.11c.765.25 1.281.343 1.734.343.953 0 2.14-.562 2.813-1.375.406-.484.64-1.109.64-1.671zm0 0"/></svg><svg overflow="visible" x="110.639" y="46.038"><path d="M2.516-3.125c0-.422-.407-.844-.844-.844-.422 0-.86.422-.86.844 0 .438.438.86.86.86.437 0 .844-.422.844-.86zm0 0"/></svg><svg overflow="visible" x="116.64" y="46.038"><path d="M4.203-7.828a.735.735 0 01-.187-.14c-.063-.063-.11-.126-.22-.329-1.593 1.61-2.5 3.266-2.5 4.781v.797c0 1.516.907 3.172 2.5 4.781.11-.203.157-.265.22-.328.062-.062.125-.109.312-.203C2.875.063 2.281-1.344 2.281-2.719v-.797c0-1.39.594-2.78 2.047-4.25zm0 0"/></svg><svg overflow="visible" x="121.709" y="46.038"><path d="M5.125-.094v-.484l-.75-.047c-.656-.031-.64-.031-.64-.656v-7.172l-.313-.125c-.875.469-1.61.781-2.86 1.219l.125.718h.235l1.547-.687.031-.016c.063 0-.047-.015-.047.266v5.797c0 .625.016.625-.64.656L1-.578v.625L3.125 0l2 .047zm0 0"/></svg><svg overflow="visible" x="130.341" y="46.038"><path d="M8.266-2.766a1.332 1.332 0 01-.047-.359c0-.11.015-.234.062-.484h-7.5c.063.25.063.375.063.484 0 .125 0 .25-.063.5h7.5zm0 0"/></svg><svg overflow="visible" x="142.093" y="46.038"><path d="M3.703-5.516c-.453.047-.86.063-1.156.063.172-.984.297-1.578.531-2.25l-.25-.328a7.16 7.16 0 01-1.094.531l-.296 2.031c-.391.203-.704.328-1.063.407l-.047.406h1l-.64 3.25C.625-1.11.53-.813.53-.5c0 .297.266.61.5.61.422 0 .922-.282 1.86-1.032.218-.172.14-.125.437-.36l-.25-.437-.672.469c-.36.25-.484.313-.625.313-.093 0-.031.046-.031-.11 0-.297.156-1.234.516-3l.14-.61h1.266l.203-.89zm0 0"/></svg><g><svg overflow="visible" x="146.134" y="46.038"><path d="M3.766-2.719v-.797c0-1.515-.907-3.171-2.516-4.78-.11.202-.156.265-.203.327-.063.063-.125.11-.313.203 1.438 1.47 2.032 2.86 2.032 4.25v.797c0 1.375-.594 2.781-2.032 4.25.188.094.25.14.313.203.047.063.094.125.203.329C2.86.452 3.766-1.204 3.766-2.72zm0 0"/></svg></g><g><svg overflow="visible" x="151.205" y="41.806"><path d="M4.75-.11c-.016-.187-.016-.265-.016-.39s0-.203.032-.547l-3.141.094 1.5-1.469c.938-.906 1.266-1.5 1.266-2.156 0-1.016-.891-1.781-2.125-1.781-.688 0-1.282.218-1.782.687L.297-4.266h.547l.172-.546c.156-.516.359-.594 1-.594.828 0 1.203.343 1.203 1.093 0 .657-.36 1.22-1.453 2.282L.078-.391v.422L2.391 0l2.375.031zm0 0"/></svg></g><g><svg overflow="visible" x="159.359" y="46.038"><path d="M2.516-3.125c0-.422-.407-.844-.844-.844-.422 0-.86.422-.86.844 0 .438.438.86.86.86.437 0 .844-.422.844-.86zm0 0"/></svg></g><g><svg overflow="visible" x="165.361" y="46.038"><path d="M3.703-5.516c-.453.047-.86.063-1.156.063.172-.984.297-1.578.531-2.25l-.25-.328a7.16 7.16 0 01-1.094.531l-.296 2.031c-.391.203-.704.328-1.063.407l-.047.406h1l-.64 3.25C.625-1.11.53-.813.53-.5c0 .297.266.61.5.61.422 0 .922-.282 1.86-1.032.218-.172.14-.125.437-.36l-.25-.437-.672.469c-.36.25-.484.313-.625.313-.093 0-.031.046-.031-.11 0-.297.156-1.234.516-3l.14-.61h1.266l.203-.89zm0 0"/></svg></g><g><svg overflow="visible" x="172.055" y="46.038"><path d="M8.266-2.766a1.332 1.332 0 01-.047-.359c0-.11.015-.234.062-.484h-3.25v-3.266c-.25.063-.375.078-.484.078-.125 0-.25-.016-.5-.078v3.266H.78c.063.25.063.375.063.484 0 .125 0 .25-.063.5h3.266V.641c.25-.063.375-.079.5-.079.11 0 .234.016.484.079v-3.266h3.25zm0 0"/></svg></g><g><svg overflow="visible" x="183.795" y="46.038"><path d="M5.656-2.813c0-.562-.281-1.171-.703-1.468-.297-.219-.672-.344-.953-.407.734-.562 1.125-1.203 1.125-1.906 0-1.062-1.016-1.906-2.344-1.906-.812 0-1.453.266-2.047.86L.328-5.954h.64l.266-.797c.125-.406.75-.688 1.375-.688.766 0 1.266.5 1.266 1.25 0 .907-.563 1.532-1.406 1.532-.11 0-.469.187-.469.187l-.25-.093-.14.671.202.188C2.297-3.938 2.516-4 2.845-4c1 0 1.422.516 1.422 1.594 0 1.219-.579 1.89-1.704 1.89-.546 0-.937-.14-1.296-.468C.984-1.25.859-1.438.578-2.25l-.562.219C.28-1.234.375-.797.469-.11c.765.25 1.281.343 1.734.343.953 0 2.14-.562 2.813-1.375.406-.484.64-1.109.64-1.671zm0 0"/></svg></g><g><svg overflow="visible" x="192.427" y="46.038"><path d="M2.516-3.125c0-.422-.407-.844-.844-.844-.422 0-.86.422-.86.844 0 .438.438.86.86.86.437 0 .844-.422.844-.86zm0 0"/></svg></g><g><svg overflow="visible" x="198.441" y="46.038"><path d="M4.203-7.828a.735.735 0 01-.187-.14c-.063-.063-.11-.126-.22-.329-1.593 1.61-2.5 3.266-2.5 4.781v.797c0 1.516.907 3.172 2.5 4.781.11-.203.157-.265.22-.328.062-.062.125-.109.312-.203C2.875.063 2.281-1.344 2.281-2.719v-.797c0-1.39.594-2.78 2.047-4.25zm0 0"/></svg><svg overflow="visible" x="203.51" y="46.038"><path d="M5.125-.094v-.484l-.75-.047c-.656-.031-.64-.031-.64-.656v-7.172l-.313-.125c-.875.469-1.61.781-2.86 1.219l.125.718h.235l1.547-.687.031-.016c.063 0-.047-.015-.047.266v5.797c0 .625.016.625-.64.656L1-.578v.625L3.125 0l2 .047zm0 0"/></svg></g><g><svg overflow="visible" x="212.141" y="46.038"><path d="M8.266-2.766a1.332 1.332 0 01-.047-.359c0-.11.015-.234.062-.484h-7.5c.063.25.063.375.063.484 0 .125 0 .25-.063.5h7.5zm0 0"/></svg></g><g><svg overflow="visible" x="223.881" y="46.038"><path d="M3.703-5.516c-.453.047-.86.063-1.156.063.172-.984.297-1.578.531-2.25l-.25-.328a7.16 7.16 0 01-1.094.531l-.296 2.031c-.391.203-.704.328-1.063.407l-.047.406h1l-.64 3.25C.625-1.11.53-.813.53-.5c0 .297.266.61.5.61.422 0 .922-.282 1.86-1.032.218-.172.14-.125.437-.36l-.25-.437-.672.469c-.36.25-.484.313-.625.313-.093 0-.031.046-.031-.11 0-.297.156-1.234.516-3l.14-.61h1.266l.203-.89zm0 0"/></svg></g><g><svg overflow="visible" x="227.922" y="46.038"><path d="M3.766-2.719v-.797c0-1.515-.907-3.171-2.516-4.78-.11.202-.156.265-.203.327-.063.063-.125.11-.313.203 1.438 1.47 2.032 2.86 2.032 4.25v.797c0 1.375-.594 2.781-2.032 4.25.188.094.25.14.313.203.047.063.094.125.203.329C2.86.452 3.766-1.204 3.766-2.72zm0 0"/></svg></g><g><svg overflow="visible" x="235.645" y="46.038"><path d="M2.516-3.125c0-.422-.407-.844-.844-.844-.422 0-.86.422-.86.844 0 .438.438.86.86.86.437 0 .844-.422.844-.86zm0 0"/></svg></g><g><svg overflow="visible" x="241.659" y="46.038"><path d="M3.703-5.516c-.453.047-.86.063-1.156.063.172-.984.297-1.578.531-2.25l-.25-.328a7.16 7.16 0 01-1.094.531l-.296 2.031c-.391.203-.704.328-1.063.407l-.047.406h1l-.64 3.25C.625-1.11.53-.813.53-.5c0 .297.266.61.5.61.422 0 .922-.282 1.86-1.032.218-.172.14-.125.437-.36l-.25-.437-.672.469c-.36.25-.484.313-.625.313-.093 0-.031.046-.031-.11 0-.297.156-1.234.516-3l.14-.61h1.266l.203-.89zm0 0"/></svg></g><g><svg overflow="visible" x="245.701" y="41.806"><path d="M4.75-.11c-.016-.187-.016-.265-.016-.39s0-.203.032-.547l-3.141.094 1.5-1.469c.938-.906 1.266-1.5 1.266-2.156 0-1.016-.891-1.781-2.125-1.781-.688 0-1.282.218-1.782.687L.297-4.266h.547l.172-.546c.156-.516.359-.594 1-.594.828 0 1.203.343 1.203 1.093 0 .657-.36 1.22-1.453 2.282L.078-.391v.422L2.391 0l2.375.031zm0 0"/></svg></g><g><svg overflow="visible" x="253.855" y="46.038"><path d="M8.266-2.766a1.332 1.332 0 01-.047-.359c0-.11.015-.234.062-.484h-3.25v-3.266c-.25.063-.375.078-.484.078-.125 0-.25-.016-.5-.078v3.266H.78c.063.25.063.375.063.484 0 .125 0 .25-.063.5h3.266V.641c.25-.063.375-.079.5-.079.11 0 .234.016.484.079v-3.266h3.25zm0 0"/></svg></g><g><svg overflow="visible" x="265.595" y="46.038"><path d="M3.703-5.516c-.453.047-.86.063-1.156.063.172-.984.297-1.578.531-2.25l-.25-.328a7.16 7.16 0 01-1.094.531l-.296 2.031c-.391.203-.704.328-1.063.407l-.047.406h1l-.64 3.25C.625-1.11.53-.813.53-.5c0 .297.266.61.5.61.422 0 .922-.282 1.86-1.032.218-.172.14-.125.437-.36l-.25-.437-.672.469c-.36.25-.484.313-.625.313-.093 0-.031.046-.031-.11 0-.297.156-1.234.516-3l.14-.61h1.266l.203-.89zm0 0"/></svg></g><g><svg overflow="visible" x="269.639" y="41.806"><path d="M4.703-2.11c0-.421-.25-.89-.594-1.124a2.225 2.225 0 00-.703-.282c.531-.375.86-.875.86-1.406 0-.781-.86-1.437-1.938-1.437-.64 0-1.203.203-1.687.656L.312-4.406h.594l.219-.625c.11-.297.563-.469 1.063-.469.624 0 .984.328.984.89 0 .673-.406 1.094-1.094 1.094-.078 0-.36.204-.36.204l-.265-.094-.125.515.203.157c.407-.172.594-.22.844-.22.813 0 1.11.329 1.11 1.142 0 .906-.422 1.359-1.329 1.359-.437 0-.719-.094-1.015-.344C.906-.984.828-1.094.578-1.75l-.531.188c.234.609.312.937.375 1.468C1.078.11 1.5.172 1.859.172c.782 0 1.766-.422 2.297-1.016.328-.375.547-.86.547-1.265zm0 0"/></svg></g></svg>