<svg xmlns="http://www.w3.org/2000/svg" xmlns:xlink="http://www.w3.org/1999/xlink" width="163px" height="85px" viewBox="0 0 122 64"><svg overflow="visible" x="-.112" y="9.745"><path d="M5.203-.125v-.516h-.578c-1.078 0-.922 0-.922-.437v-6.703c0-.282-.187-.438-.578-.438-.766.797-1.672.766-2.266.766v.625c.438 0 1.282-.031 1.563-.172v5.922c0 .437.172.437-.906.437H.937v.672C1.547-.03 2.595-.03 3.079-.03c.469 0 1.516 0 2.125.062zm0 0"/></svg><svg overflow="visible" x="5.865" y="9.745"><path d="M7.547-7.156v.25c0 1.367.281 2.601.844 3.703.625 1.219 1.613 2.273 2.968 3.156a2.214 2.214 0 00-.609.688C9.562-.273 8.687-1.375 8.125-2.656c-.305-.676-.531-1.461-.688-2.36C7.29-3.859 6.973-2.852 6.484-2 5.785-.79 4.711.156 3.266.844l-.172-.25C4.332-.133 5.27-1.117 5.906-2.36c.625-1.22.938-2.688.938-4.407v-.39H5.609c-.468 1.023-1.015 1.851-1.64 2.484l-.219-.187c.938-1.383 1.578-3.032 1.922-4.938.781.137 1.172.293 1.172.469 0 .105-.184.21-.547.312a12.176 12.176 0 01-.547 1.563h4.156l.469-.656c.54.523.813.836.813.937 0 .063-.043.117-.126.156l-.328.141c-.46.855-.968 1.625-1.53 2.313l-.282-.172c.394-.664.742-1.473 1.047-2.422zM.937-8.984c1.157.523 1.735 1.07 1.735 1.64 0 .324-.152.485-.453.485-.188 0-.313-.133-.375-.407-.125-.52-.48-1.02-1.063-1.5zm3.25 1.312l-1.796 4.39a2.11 2.11 0 00-.172.813c0 .106.031.32.094.64.082.47.124.915.124 1.329 0 .52-.18.781-.53.781-.274 0-.407-.14-.407-.422 0-.02.008-.097.031-.234a8.12 8.12 0 00.063-.469c.05-.32.078-.613.078-.875 0-.5-.125-.836-.375-1.015-.125-.102-.36-.188-.703-.25v-.297c.187.023.344.031.469.031.289 0 .539-.16.75-.484.613-.946 1.3-2.317 2.062-4.11zm0 0"/></svg><svg overflow="visible" x="21.142" y="9.745"><path d="M8.828-4.281c0-.125-.312-.375-.437-.375H.906c-.125 0-.437.25-.437.375 0 .14.312.375.437.375h7.485c.125 0 .437-.235.437-.375zm0 2.328c0-.14-.312-.375-.437-.375H.906c-.125 0-.437.234-.437.375 0 .125.312.36.437.36h7.485c.125 0 .437-.235.437-.36zm0 0"/></svg><svg overflow="visible" x="63.643" y="9.745"><path d="M5.203-.125v-.516h-.578c-1.078 0-.922 0-.922-.437v-6.703c0-.282-.187-.438-.578-.438-.766.797-1.672.766-2.266.766v.625c.438 0 1.282-.031 1.563-.172v5.922c0 .437.172.437-.906.437H.937v.672C1.547-.03 2.595-.03 3.079-.03c.469 0 1.516 0 2.125.062zm0 0"/></svg><svg overflow="visible" x="72.286" y="9.745"><path d="M8.828-3.125c0-.125-.312-.36-.437-.36H5.078v-3.374c0-.141-.297-.375-.422-.375-.14 0-.453.234-.453.375v3.375H.906c-.125 0-.437.234-.437.359 0 .14.312.375.437.375h3.297V.625c0 .125.313.36.453.36.125 0 .422-.235.422-.36V-2.75h3.313c.125 0 .437-.234.437-.375zm0 0"/></svg><svg overflow="visible" x="84.242" y="9.745"><path d="M5.203-.125v-.516h-.578c-1.078 0-.922 0-.922-.437v-6.703c0-.282-.187-.438-.578-.438-.766.797-1.672.766-2.266.766v.625c.438 0 1.282-.031 1.563-.172v5.922c0 .437.172.437-.906.437H.937v.672C1.547-.03 2.595-.03 3.079-.03c.469 0 1.516 0 2.125.062zm0 0"/></svg><svg overflow="visible" x="-.112" y="27.179"><path d="M5.36-2.344h-.47c-.077.485-.109.922-.234 1.094-.078.11-.718.063-.984.063H1.89l1.03-1c1.86-1.657 2.642-2.391 2.642-3.579 0-1.375-1.266-2.453-2.735-2.453C1.484-8.219.391-7 .391-5.922c0 .656.796.797.843.797.204 0 .813-.281.813-.766 0-.312-.406-.75-.828-.75-.094 0-.125 0 .125-.093.187-.547.64-.86 1.328-.86 1.094 0 1.406.844 1.406 1.828 0 .954-.547 1.797-1.203 2.532L.578-.672C.453-.532.391-.422.391 0h4.812l.375-2.344zm0 0"/></svg><svg overflow="visible" x="5.865" y="27.179"><path d="M7.547-7.156v.25c0 1.367.281 2.601.844 3.703.625 1.219 1.613 2.273 2.968 3.156a2.214 2.214 0 00-.609.688C9.562-.273 8.687-1.375 8.125-2.656c-.305-.676-.531-1.461-.688-2.36C7.29-3.859 6.973-2.852 6.484-2 5.785-.79 4.711.156 3.266.844l-.172-.25C4.332-.133 5.27-1.117 5.906-2.36c.625-1.22.938-2.688.938-4.407v-.39H5.609c-.468 1.023-1.015 1.851-1.64 2.484l-.219-.187c.938-1.383 1.578-3.032 1.922-4.938.781.137 1.172.293 1.172.469 0 .105-.184.21-.547.312a12.176 12.176 0 01-.547 1.563h4.156l.469-.656c.54.523.813.836.813.937 0 .063-.043.117-.126.156l-.328.141c-.46.855-.968 1.625-1.53 2.313l-.282-.172c.394-.664.742-1.473 1.047-2.422zM.937-8.984c1.157.523 1.735 1.07 1.735 1.64 0 .324-.152.485-.453.485-.188 0-.313-.133-.375-.407-.125-.52-.48-1.02-1.063-1.5zm3.25 1.312l-1.796 4.39a2.11 2.11 0 00-.172.813c0 .106.031.32.094.64.082.47.124.915.124 1.329 0 .52-.18.781-.53.781-.274 0-.407-.14-.407-.422 0-.02.008-.097.031-.234a8.12 8.12 0 00.063-.469c.05-.32.078-.613.078-.875 0-.5-.125-.836-.375-1.015-.125-.102-.36-.188-.703-.25v-.297c.187.023.344.031.469.031.289 0 .539-.16.75-.484.613-.946 1.3-2.317 2.062-4.11zm0 0"/></svg><svg overflow="visible" x="21.142" y="27.179"><path d="M8.828-4.281c0-.125-.312-.375-.437-.375H.906c-.125 0-.437.25-.437.375 0 .14.312.375.437.375h7.485c.125 0 .437-.235.437-.375zm0 2.328c0-.14-.312-.375-.437-.375H.906c-.125 0-.437.234-.437.375 0 .125.312.36.437.36h7.485c.125 0 .437-.235.437-.36zm0 0"/></svg><svg overflow="visible" x="54.079" y="27.179"><path d="M5.203-.125v-.516h-.578c-1.078 0-.922 0-.922-.437v-6.703c0-.282-.187-.438-.578-.438-.766.797-1.672.766-2.266.766v.625c.438 0 1.282-.031 1.563-.172v5.922c0 .437.172.437-.906.437H.937v.672C1.547-.03 2.595-.03 3.079-.03c.469 0 1.516 0 2.125.062zm0 0"/></svg><svg overflow="visible" x="62.722" y="27.179"><path d="M8.828-3.125c0-.125-.312-.36-.437-.36H5.078v-3.374c0-.141-.297-.375-.422-.375-.14 0-.453.234-.453.375v3.375H.906c-.125 0-.437.234-.437.359 0 .14.312.375.437.375h3.297V.625c0 .125.313.36.453.36.125 0 .422-.235.422-.36V-2.75h3.313c.125 0 .437-.234.437-.375zm0 0"/></svg><svg overflow="visible" x="74.677" y="27.179"><path d="M5.36-2.344h-.47c-.077.485-.109.922-.234 1.094-.078.11-.718.063-.984.063H1.89l1.03-1c1.86-1.657 2.642-2.391 2.642-3.579 0-1.375-1.266-2.453-2.735-2.453C1.484-8.219.391-7 .391-5.922c0 .656.796.797.843.797.204 0 .813-.281.813-.766 0-.312-.406-.75-.828-.75-.094 0-.125 0 .125-.093.187-.547.64-.86 1.328-.86 1.094 0 1.406.844 1.406 1.828 0 .954-.547 1.797-1.203 2.532L.578-.672C.453-.532.391-.422.391 0h4.812l.375-2.344zm0 0"/></svg><svg overflow="visible" x="83.309" y="27.179"><path d="M8.828-3.125c0-.125-.312-.36-.437-.36H5.078v-3.374c0-.141-.297-.375-.422-.375-.14 0-.453.234-.453.375v3.375H.906c-.125 0-.437.234-.437.359 0 .14.312.375.437.375h3.297V.625c0 .125.313.36.453.36.125 0 .422-.235.422-.36V-2.75h3.313c.125 0 .437-.234.437-.375zm0 0"/></svg><svg overflow="visible" x="95.264" y="27.179"><path d="M5.203-.125v-.516h-.578c-1.078 0-.922 0-.922-.437v-6.703c0-.282-.187-.438-.578-.438-.766.797-1.672.766-2.266.766v.625c.438 0 1.282-.031 1.563-.172v5.922c0 .437.172.437-.906.437H.937v.672C1.547-.03 2.595-.03 3.079-.03c.469 0 1.516 0 2.125.062zm0 0"/></svg><svg overflow="visible" x="-.112" y="44.614"><path d="M5.656-2.172c0-.984-.953-2.047-2.187-2.297v.266c.984-.328 1.86-1.297 1.86-2.234 0-.985-1.235-1.782-2.391-1.782-1.204 0-2.313.844-2.313 1.75 0 .39.469.75.813.75.375 0 .796-.39.796-.734 0-.594-.75-.734-.656-.734.234-.36.89-.47 1.313-.47.484 0 .953.126.953 1.204 0 .14.031.734-.281 1.266-.36.578-.626.578-.922.578a4.76 4.76 0 01-.47.046c-.093.016-.374.157-.374.266 0 .14.281.266.484.266h.531c.985 0 1.22.687 1.22 1.86 0 1.624-.626 1.843-1.157 1.843-.516 0-1.266-.172-1.531-.61.125.016.687-.375.687-.828 0-.437-.515-.796-.86-.796-.28 0-.874.296-.874.812C.297-.656 1.609.266 2.922.266c1.453 0 2.734-1.22 2.734-2.438zm0 0"/></svg><svg overflow="visible" x="5.865" y="44.614"><path d="M7.547-7.156v.25c0 1.367.281 2.601.844 3.703.625 1.219 1.613 2.273 2.968 3.156a2.214 2.214 0 00-.609.688C9.562-.273 8.687-1.375 8.125-2.656c-.305-.676-.531-1.461-.688-2.36C7.29-3.859 6.973-2.852 6.484-2 5.785-.79 4.711.156 3.266.844l-.172-.25C4.332-.133 5.27-1.117 5.906-2.36c.625-1.22.938-2.688.938-4.407v-.39H5.609c-.468 1.023-1.015 1.851-1.64 2.484l-.219-.187c.938-1.383 1.578-3.032 1.922-4.938.781.137 1.172.293 1.172.469 0 .105-.184.21-.547.312a12.176 12.176 0 01-.547 1.563h4.156l.469-.656c.54.523.813.836.813.937 0 .063-.043.117-.126.156l-.328.141c-.46.855-.968 1.625-1.53 2.313l-.282-.172c.394-.664.742-1.473 1.047-2.422zM.937-8.984c1.157.523 1.735 1.07 1.735 1.64 0 .324-.152.485-.453.485-.188 0-.313-.133-.375-.407-.125-.52-.48-1.02-1.063-1.5zm3.25 1.312l-1.796 4.39a2.11 2.11 0 00-.172.813c0 .106.031.32.094.64.082.47.124.915.124 1.329 0 .52-.18.781-.53.781-.274 0-.407-.14-.407-.422 0-.02.008-.097.031-.234a8.12 8.12 0 00.063-.469c.05-.32.078-.613.078-.875 0-.5-.125-.836-.375-1.015-.125-.102-.36-.188-.703-.25v-.297c.187.023.344.031.469.031.289 0 .539-.16.75-.484.613-.946 1.3-2.317 2.062-4.11zm0 0"/></svg><svg overflow="visible" x="21.142" y="44.614"><path d="M8.828-4.281c0-.125-.312-.375-.437-.375H.906c-.125 0-.437.25-.437.375 0 .14.312.375.437.375h7.485c.125 0 .437-.235.437-.375zm0 2.328c0-.14-.312-.375-.437-.375H.906c-.125 0-.437.234-.437.375 0 .125.312.36.437.36h7.485c.125 0 .437-.235.437-.36zm0 0"/></svg><svg overflow="visible" x="43.917" y="44.614"><path d="M5.203-.125v-.516h-.578c-1.078 0-.922 0-.922-.437v-6.703c0-.282-.187-.438-.578-.438-.766.797-1.672.766-2.266.766v.625c.438 0 1.282-.031 1.563-.172v5.922c0 .437.172.437-.906.437H.937v.672C1.547-.03 2.595-.03 3.079-.03c.469 0 1.516 0 2.125.062zm0 0"/></svg><svg overflow="visible" x="52.56" y="44.614"><path d="M8.828-3.125c0-.125-.312-.36-.437-.36H5.078v-3.374c0-.141-.297-.375-.422-.375-.14 0-.453.234-.453.375v3.375H.906c-.125 0-.437.234-.437.359 0 .14.312.375.437.375h3.297V.625c0 .125.313.36.453.36.125 0 .422-.235.422-.36V-2.75h3.313c.125 0 .437-.234.437-.375zm0 0"/></svg><svg overflow="visible" x="64.515" y="44.614"><path d="M5.656-2.172c0-.984-.953-2.047-2.187-2.297v.266c.984-.328 1.86-1.297 1.86-2.234 0-.985-1.235-1.782-2.391-1.782-1.204 0-2.313.844-2.313 1.75 0 .39.469.75.813.75.375 0 .796-.39.796-.734 0-.594-.75-.734-.656-.734.234-.36.89-.47 1.313-.47.484 0 .953.126.953 1.204 0 .14.031.734-.281 1.266-.36.578-.626.578-.922.578a4.76 4.76 0 01-.47.046c-.093.016-.374.157-.374.266 0 .14.281.266.484.266h.531c.985 0 1.22.687 1.22 1.86 0 1.624-.626 1.843-1.157 1.843-.516 0-1.266-.172-1.531-.61.125.016.687-.375.687-.828 0-.437-.515-.796-.86-.796-.28 0-.874.296-.874.812C.297-.656 1.609.266 2.922.266c1.453 0 2.734-1.22 2.734-2.438zm0 0"/></svg><svg overflow="visible" x="73.147" y="44.614"><path d="M8.828-3.125c0-.125-.312-.36-.437-.36H5.078v-3.374c0-.141-.297-.375-.422-.375-.14 0-.453.234-.453.375v3.375H.906c-.125 0-.437.234-.437.359 0 .14.312.375.437.375h3.297V.625c0 .125.313.36.453.36.125 0 .422-.235.422-.36V-2.75h3.313c.125 0 .437-.234.437-.375zm0 0"/></svg><svg overflow="visible" x="85.102" y="44.614"><path d="M5.656-2.172c0-.984-.953-2.047-2.187-2.297v.266c.984-.328 1.86-1.297 1.86-2.234 0-.985-1.235-1.782-2.391-1.782-1.204 0-2.313.844-2.313 1.75 0 .39.469.75.813.75.375 0 .796-.39.796-.734 0-.594-.75-.734-.656-.734.234-.36.89-.47 1.313-.47.484 0 .953.126.953 1.204 0 .14.031.734-.281 1.266-.36.578-.626.578-.922.578a4.76 4.76 0 01-.47.046c-.093.016-.374.157-.374.266 0 .14.281.266.484.266h.531c.985 0 1.22.687 1.22 1.86 0 1.624-.626 1.843-1.157 1.843-.516 0-1.266-.172-1.531-.61.125.016.687-.375.687-.828 0-.437-.515-.796-.86-.796-.28 0-.874.296-.874.812C.297-.656 1.609.266 2.922.266c1.453 0 2.734-1.22 2.734-2.438zm0 0"/></svg><svg overflow="visible" x="93.746" y="44.614"><path d="M8.828-3.125c0-.125-.312-.36-.437-.36H5.078v-3.374c0-.141-.297-.375-.422-.375-.14 0-.453.234-.453.375v3.375H.906c-.125 0-.437.234-.437.359 0 .14.312.375.437.375h3.297V.625c0 .125.313.36.453.36.125 0 .422-.235.422-.36V-2.75h3.313c.125 0 .437-.234.437-.375zm0 0"/></svg><svg overflow="visible" x="105.701" y="44.614"><path d="M5.203-.125v-.516h-.578c-1.078 0-.922 0-.922-.437v-6.703c0-.282-.187-.438-.578-.438-.766.797-1.672.766-2.266.766v.625c.438 0 1.282-.031 1.563-.172v5.922c0 .437.172.437-.906.437H.937v.672C1.547-.03 2.595-.03 3.079-.03c.469 0 1.516 0 2.125.062zm0 0"/></svg><svg overflow="visible" x="-.112" y="62.048"><path d="M5.828-2.11v-.5H4.625v-5.296c0-.25-.188-.453-.375-.453-.11 0-.297.046-.39.187L.124-2.469v.5h3.188v.907c0 .421.171.421-.704.421h-.453v.672C2.844-.03 3.47-.03 3.97-.03s1.14 0 1.812.062V-.64h-.437c-.89 0-.719 0-.719-.421v-.907h1.203zm-2.25-.5H.953L3.72-6.843l-.344-.093v4.328zm0 0"/></svg><svg overflow="visible" x="5.865" y="62.048"><path d="M7.547-7.156v.25c0 1.367.281 2.601.844 3.703.625 1.219 1.613 2.273 2.968 3.156a2.214 2.214 0 00-.609.688C9.562-.273 8.687-1.375 8.125-2.656c-.305-.676-.531-1.461-.688-2.36C7.29-3.859 6.973-2.852 6.484-2 5.785-.79 4.711.156 3.266.844l-.172-.25C4.332-.133 5.27-1.117 5.906-2.36c.625-1.22.938-2.688.938-4.407v-.39H5.609c-.468 1.023-1.015 1.851-1.64 2.484l-.219-.187c.938-1.383 1.578-3.032 1.922-4.938.781.137 1.172.293 1.172.469 0 .105-.184.21-.547.312a12.176 12.176 0 01-.547 1.563h4.156l.469-.656c.54.523.813.836.813.937 0 .063-.043.117-.126.156l-.328.141c-.46.855-.968 1.625-1.53 2.313l-.282-.172c.394-.664.742-1.473 1.047-2.422zM.937-8.984c1.157.523 1.735 1.07 1.735 1.64 0 .324-.152.485-.453.485-.188 0-.313-.133-.375-.407-.125-.52-.48-1.02-1.063-1.5zm3.25 1.312l-1.796 4.39a2.11 2.11 0 00-.172.813c0 .106.031.32.094.64.082.47.124.915.124 1.329 0 .52-.18.781-.53.781-.274 0-.407-.14-.407-.422 0-.02.008-.097.031-.234a8.12 8.12 0 00.063-.469c.05-.32.078-.613.078-.875 0-.5-.125-.836-.375-1.015-.125-.102-.36-.188-.703-.25v-.297c.187.023.344.031.469.031.289 0 .539-.16.75-.484.613-.946 1.3-2.317 2.062-4.11zm0 0"/></svg><svg overflow="visible" x="21.142" y="62.048"><path d="M8.828-4.281c0-.125-.312-.375-.437-.375H.906c-.125 0-.437.25-.437.375 0 .14.312.375.437.375h7.485c.125 0 .437-.235.437-.375zm0 2.328c0-.14-.312-.375-.437-.375H.906c-.125 0-.437.234-.437.375 0 .125.312.36.437.36h7.485c.125 0 .437-.235.437-.36zm0 0"/></svg><svg overflow="visible" x="33.755" y="62.048"><path d="M5.203-.125v-.516h-.578c-1.078 0-.922 0-.922-.437v-6.703c0-.282-.187-.438-.578-.438-.766.797-1.672.766-2.266.766v.625c.438 0 1.282-.031 1.563-.172v5.922c0 .437.172.437-.906.437H.937v.672C1.547-.03 2.595-.03 3.079-.03c.469 0 1.516 0 2.125.062zm0 0"/></svg><svg overflow="visible" x="42.398" y="62.048"><path d="M8.828-3.125c0-.125-.312-.36-.437-.36H5.078v-3.374c0-.141-.297-.375-.422-.375-.14 0-.453.234-.453.375v3.375H.906c-.125 0-.437.234-.437.359 0 .14.312.375.437.375h3.297V.625c0 .125.313.36.453.36.125 0 .422-.235.422-.36V-2.75h3.313c.125 0 .437-.234.437-.375zm0 0"/></svg><svg overflow="visible" x="54.354" y="62.048"><path d="M5.828-2.11v-.5H4.625v-5.296c0-.25-.188-.453-.375-.453-.11 0-.297.046-.39.187L.124-2.469v.5h3.188v.907c0 .421.171.421-.704.421h-.453v.672C2.844-.03 3.47-.03 3.97-.03s1.14 0 1.812.062V-.64h-.437c-.89 0-.719 0-.719-.421v-.907h1.203zm-2.25-.5H.953L3.72-6.843l-.344-.093v4.328zm0 0"/></svg><svg overflow="visible" x="62.985" y="62.048"><path d="M8.828-3.125c0-.125-.312-.36-.437-.36H5.078v-3.374c0-.141-.297-.375-.422-.375-.14 0-.453.234-.453.375v3.375H.906c-.125 0-.437.234-.437.359 0 .14.312.375.437.375h3.297V.625c0 .125.313.36.453.36.125 0 .422-.235.422-.36V-2.75h3.313c.125 0 .437-.234.437-.375zm0 0"/></svg><svg overflow="visible" x="74.94" y="62.048"><path d="M5.656-2.563c0-1.53-1.25-2.796-2.578-2.796-.812 0-1.469.734-1.703 1.312h.39v-.297c0-3.015 1.298-3.312 1.907-3.312.281 0 .64.031.75.203.125 0-.563.14-.563.672 0 .375.485.687.75.687.204 0 .75-.234.75-.703 0-.719-.718-1.422-1.718-1.422-1.532 0-3.344 1.672-3.344 4.313C.297-.72 1.89.266 3 .266c1.328 0 2.656-1.25 2.656-2.829zm-1.468-.015c0 .562 0 1.172-.204 1.594l.063-.094c-.36.719-.766.75-1.047.75-.75 0-.922-.594-.984-.766-.22-.562-.22-1.531-.22-1.734 0-.938.188-2 1.266-2 .188 0 .594-.031.97.703l-.063-.094c.219.438.219 1.047.219 1.64zm0 0"/></svg><svg overflow="visible" x="83.584" y="62.048"><path d="M8.828-3.125c0-.125-.312-.36-.437-.36H5.078v-3.374c0-.141-.297-.375-.422-.375-.14 0-.453.234-.453.375v3.375H.906c-.125 0-.437.234-.437.359 0 .14.312.375.437.375h3.297V.625c0 .125.313.36.453.36.125 0 .422-.235.422-.36V-2.75h3.313c.125 0 .437-.234.437-.375zm0 0"/></svg><svg overflow="visible" x="95.539" y="62.048"><path d="M5.828-2.11v-.5H4.625v-5.296c0-.25-.188-.453-.375-.453-.11 0-.297.046-.39.187L.124-2.469v.5h3.188v.907c0 .421.171.421-.704.421h-.453v.672C2.844-.03 3.47-.03 3.97-.03s1.14 0 1.812.062V-.64h-.437c-.89 0-.719 0-.719-.421v-.907h1.203zm-2.25-.5H.953L3.72-6.843l-.344-.093v4.328zm0 0"/></svg><svg overflow="visible" x="104.171" y="62.048"><path d="M8.828-3.125c0-.125-.312-.36-.437-.36H5.078v-3.374c0-.141-.297-.375-.422-.375-.14 0-.453.234-.453.375v3.375H.906c-.125 0-.437.234-.437.359 0 .14.312.375.437.375h3.297V.625c0 .125.313.36.453.36.125 0 .422-.235.422-.36V-2.75h3.313c.125 0 .437-.234.437-.375zm0 0"/></svg><svg overflow="visible" x="116.126" y="62.048"><path d="M5.203-.125v-.516h-.578c-1.078 0-.922 0-.922-.437v-6.703c0-.282-.187-.438-.578-.438-.766.797-1.672.766-2.266.766v.625c.438 0 1.282-.031 1.563-.172v5.922c0 .437.172.437-.906.437H.937v.672C1.547-.03 2.595-.03 3.079-.03c.469 0 1.516 0 2.125.062zm0 0"/></svg></svg>