<svg xmlns="http://www.w3.org/2000/svg" xmlns:xlink="http://www.w3.org/1999/xlink" width="297px" height="67px" viewBox="0 0 223 50"><svg overflow="visible" x="-.146" y="8.745"><path d="M7.766-1.563v-.921H.406v1.046h7.36zm0-2.39v-.922H.406v1.047h7.36zm0 0"/></svg><svg overflow="visible" x="11.355" y="8.745"><path d="M3.734 1.703C2.063.297 1.75-.953 1.75-3.172c0-2.312.328-3.328 2.063-4.812l-.235-.422C1.5-7.172.406-5.36.406-3.141.406-1.109 1.484 1 3.531 2.172l.297-.406zm0 0"/></svg><svg overflow="visible" x="15.336" y="8.745"><path d="M4.86-.125v-.313c-1.048 0-1.126-.093-1.126-.609v-7.219l-.296-.093-2.282 1.156v.453l.5-.188c.203-.093.407-.156.532-.156.25 0 .187.047.187.453v5.375c0 .657-.078.782-1.125.829V0h3.61zm0 0"/></svg><svg overflow="visible" x="23.98" y="8.745"><path d="M7.578-2.766v-.921H.594v1.062h6.984zm0 0"/></svg><svg overflow="visible" x="34.823" y="8.745"><path d="M3.375-5.5h-.64l.374-1.547h-.453C2.11-5.875 1.546-5.563.484-5.359l-.093.578h.906L.375-1.094c-.047.14-.063.297-.063.453 0 .313.266.75.625.75.72 0 1.422-.953 1.797-1.437l-.39-.328c-.531.718-.578.937-.578.937l-.11-.219c-.156 0-.031.047-.031-.015a.58.58 0 01.031-.14l.89-3.688h.829l.203-.719zm0 0"/></svg><svg overflow="visible" x="38.565" y="8.745"><path d="M.234-7.922c1.72 1.36 1.985 2.64 1.985 4.875C2.219-.734 1.922.297.156 1.75l.235.438C2.469.921 3.562-.876 3.562-3.079c0-2.031-1.14-4.125-3.124-5.328L.124-8zm0 0"/></svg><svg overflow="visible" x="45.2" y="8.745"><path d="M7.75-2.766v-.921H4.64v-3.11H3.532v3.11H.406v1.062h3.125v3.11h1.11v-3.11H7.75zm0 0"/></svg><svg overflow="visible" x="56.043" y="8.745"><path d="M3.375-5.5h-.64l.374-1.547h-.453C2.11-5.875 1.546-5.563.484-5.359l-.093.578h.906L.375-1.094c-.047.14-.063.297-.063.453 0 .313.266.75.625.75.72 0 1.422-.953 1.797-1.437l-.39-.328c-.531.718-.578.937-.578.937l-.11-.219c-.156 0-.031.047-.031-.015a.58.58 0 01.031-.14l.89-3.688h.829l.203-.719zm0 0"/></svg><svg overflow="visible" x="-.146" y="27.907"><path d="M7.766-1.563v-.921H.406v1.046h7.36zm0-2.39v-.922H.406v1.047h7.36zm0 0"/></svg><svg overflow="visible" x="11.355" y="27.907"><path d="M3.734 1.703C2.063.297 1.75-.953 1.75-3.172c0-2.312.328-3.328 2.063-4.812l-.235-.422C1.5-7.172.406-5.36.406-3.141.406-1.109 1.484 1 3.531 2.172l.297-.406zm0 0"/></svg><svg overflow="visible" x="15.336" y="27.907"><path d="M4.86-.125v-.313c-1.048 0-1.126-.093-1.126-.609v-7.219l-.296-.093-2.282 1.156v.453l.5-.188c.203-.093.407-.156.532-.156.25 0 .187.047.187.453v5.375c0 .657-.078.782-1.125.829V0h3.61zm0 0"/></svg><svg overflow="visible" x="23.98" y="27.907"><path d="M7.578-2.766v-.921H.594v1.062h6.984zm0 0"/></svg><svg overflow="visible" x="34.823" y="27.907"><path d="M3.375-5.5h-.64l.374-1.547h-.453C2.11-5.875 1.546-5.563.484-5.359l-.093.578h.906L.375-1.094c-.047.14-.063.297-.063.453 0 .313.266.75.625.75.72 0 1.422-.953 1.797-1.437l-.39-.328c-.531.718-.578.937-.578.937l-.11-.219c-.156 0-.031.047-.031-.015a.58.58 0 01.031-.14l.89-3.688h.829l.203-.719zm0 0"/></svg><svg overflow="visible" x="38.565" y="27.907"><path d="M.234-7.922c1.72 1.36 1.985 2.64 1.985 4.875C2.219-.734 1.922.297.156 1.75l.235.438C2.469.921 3.562-.876 3.562-3.079c0-2.031-1.14-4.125-3.124-5.328L.124-8zm0 0"/></svg><svg overflow="visible" x="42.549" y="23.125"><path d="M4.25-1.5l-.219-.094c-.343.578-.39.64-.765.64h-1.75l1.25-1.343c.796-.844 1.203-1.61 1.203-2.328 0-.875-.828-1.703-1.828-1.703-1.11 0-1.875.86-2.079 2l.516.125C1-5.25 1.125-5.406 1.781-5.406c.75 0 1.047.328 1.047 1.14 0 .766-.265 1.344-1.11 2.235L.079-.281V0h3.813l.562-1.406zm0 0"/></svg><svg overflow="visible" x="50.187" y="27.907"><path d="M7.75-2.766v-.921H4.64v-3.11H3.532v3.11H.406v1.062h3.125v3.11h1.11v-3.11H7.75zm0 0"/></svg><svg overflow="visible" x="61.03" y="27.907"><path d="M5.672-1.906l-.25-.11c-.438.75-.563.844-1.078.844H1.875l1.766-1.875c1.062-1.125 1.578-2.11 1.578-3.062 0-1.188-1.016-2.235-2.375-2.235-1.469 0-2.406 1.11-2.672 2.61l.531.109C1.25-6.938 1.5-7.203 2.36-7.203c1.016 0 1.5.469 1.5 1.562 0 1.016-.375 1.829-1.5 3.016L.172-.328V0h4.953l.719-1.828zm0 0"/></svg><svg overflow="visible" x="69.662" y="27.907"><path d="M2.578-3.156c0-.375-.469-.844-.86-.844-.39 0-.89.484-.89.844s.5.844.89.844c.391 0 .86-.454.86-.844zm0 0"/></svg><svg overflow="visible" x="75.735" y="27.907"><path d="M3.734 1.703C2.063.297 1.75-.953 1.75-3.172c0-2.312.328-3.328 2.063-4.812l-.235-.422C1.5-7.172.406-5.36.406-3.141.406-1.109 1.484 1 3.531 2.172l.297-.406zm0 0"/></svg><svg overflow="visible" x="79.716" y="27.907"><path d="M4.86-.125v-.313c-1.048 0-1.126-.093-1.126-.609v-7.219l-.296-.093-2.282 1.156v.453l.5-.188c.203-.093.407-.156.532-.156.25 0 .187.047.187.453v5.375c0 .657-.078.782-1.125.829V0h3.61zm0 0"/></svg><svg overflow="visible" x="88.36" y="27.907"><path d="M7.578-2.766v-.921H.594v1.062h6.984zm0 0"/></svg><svg overflow="visible" x="99.203" y="27.907"><path d="M3.375-5.5h-.64l.374-1.547h-.453C2.11-5.875 1.546-5.563.484-5.359l-.093.578h.906L.375-1.094c-.047.14-.063.297-.063.453 0 .313.266.75.625.75.72 0 1.422-.953 1.797-1.437l-.39-.328c-.531.718-.578.937-.578.937l-.11-.219c-.156 0-.031.047-.031-.015a.58.58 0 01.031-.14l.89-3.688h.829l.203-.719zm0 0"/></svg><svg overflow="visible" x="102.945" y="27.907"><path d="M.234-7.922c1.72 1.36 1.985 2.64 1.985 4.875C2.219-.734 1.922.297.156 1.75l.235.438C2.469.921 3.562-.876 3.562-3.079c0-2.031-1.14-4.125-3.124-5.328L.124-8zm0 0"/></svg><svg overflow="visible" x="109.58" y="27.907"><path d="M2.578-3.156c0-.375-.469-.844-.86-.844-.39 0-.89.484-.89.844s.5.844.89.844c.391 0 .86-.454.86-.844zm0 0"/></svg><svg overflow="visible" x="115.654" y="27.907"><path d="M3.375-5.5h-.64l.374-1.547h-.453C2.11-5.875 1.546-5.563.484-5.359l-.093.578h.906L.375-1.094c-.047.14-.063.297-.063.453 0 .313.266.75.625.75.72 0 1.422-.953 1.797-1.437l-.39-.328c-.531.718-.578.937-.578.937l-.11-.219c-.156 0-.031.047-.031-.015a.58.58 0 01.031-.14l.89-3.688h.829l.203-.719zm0 0"/></svg><svg overflow="visible" x="122.062" y="27.907"><path d="M7.75-2.766v-.921H4.64v-3.11H3.532v3.11H.406v1.062h3.125v3.11h1.11v-3.11H7.75zm0 0"/></svg><svg overflow="visible" x="132.905" y="27.907"><path d="M3.375-5.5h-.64l.374-1.547h-.453C2.11-5.875 1.546-5.563.484-5.359l-.093.578h.906L.375-1.094c-.047.14-.063.297-.063.453 0 .313.266.75.625.75.72 0 1.422-.953 1.797-1.437l-.39-.328c-.531.718-.578.937-.578.937l-.11-.219c-.156 0-.031.047-.031-.015a.58.58 0 01.031-.14l.89-3.688h.829l.203-.719zm0 0"/></svg><svg overflow="visible" x="136.65" y="23.125"><path d="M4.25-1.5l-.219-.094c-.343.578-.39.64-.765.64h-1.75l1.25-1.343c.796-.844 1.203-1.61 1.203-2.328 0-.875-.828-1.703-1.828-1.703-1.11 0-1.875.86-2.079 2l.516.125C1-5.25 1.125-5.406 1.781-5.406c.75 0 1.047.328 1.047 1.14 0 .766-.265 1.344-1.11 2.235L.079-.281V0h3.813l.562-1.406zm0 0"/></svg><svg overflow="visible" x="-.146" y="47.07"><path d="M7.766-1.563v-.921H.406v1.046h7.36zm0-2.39v-.922H.406v1.047h7.36zm0 0"/></svg><svg overflow="visible" x="11.355" y="47.07"><path d="M3.734 1.703C2.063.297 1.75-.953 1.75-3.172c0-2.312.328-3.328 2.063-4.812l-.235-.422C1.5-7.172.406-5.36.406-3.141.406-1.109 1.484 1 3.531 2.172l.297-.406zm0 0"/></svg><svg overflow="visible" x="15.336" y="47.07"><path d="M4.86-.125v-.313c-1.048 0-1.126-.093-1.126-.609v-7.219l-.296-.093-2.282 1.156v.453l.5-.188c.203-.093.407-.156.532-.156.25 0 .187.047.187.453v5.375c0 .657-.078.782-1.125.829V0h3.61zm0 0"/></svg><svg overflow="visible" x="23.98" y="47.07"><path d="M7.578-2.766v-.921H.594v1.062h6.984zm0 0"/></svg><svg overflow="visible" x="34.823" y="47.07"><path d="M3.375-5.5h-.64l.374-1.547h-.453C2.11-5.875 1.546-5.563.484-5.359l-.093.578h.906L.375-1.094c-.047.14-.063.297-.063.453 0 .313.266.75.625.75.72 0 1.422-.953 1.797-1.437l-.39-.328c-.531.718-.578.937-.578.937l-.11-.219c-.156 0-.031.047-.031-.015a.58.58 0 01.031-.14l.89-3.688h.829l.203-.719zm0 0"/></svg><svg overflow="visible" x="38.565" y="47.07"><path d="M.234-7.922c1.72 1.36 1.985 2.64 1.985 4.875C2.219-.734 1.922.297.156 1.75l.235.438C2.469.921 3.562-.876 3.562-3.079c0-2.031-1.14-4.125-3.124-5.328L.124-8zm0 0"/></svg><svg overflow="visible" x="42.549" y="42.287"><path d="M.672-4.61c.375-.671.656-.921 1.219-.921.578 0 .765.172.765.781 0 .547-.219.86-.672 1.11-.171.109-.265.171-.796.343v.344c.703 0 .906.015 1.093.078.625.188.75.484.75 1.172 0 .766-.312 1.234-.984 1.234-.25 0-.313 0-.64-.234C1.156-.891.89-.984.733-.984c-.203 0-.562.28-.562.468 0 .313.547.641 1.203.641.797 0 1.766-.297 2.203-.875.266-.328.469-.875.469-1.344 0-.469-.203-.984-.453-1.265a2.062 2.062 0 00-.578-.375c.437-.25.718-.797.718-1.235 0-.734-.734-1.36-1.578-1.36-.922 0-1.687.735-1.969 1.673l.454.11zm0 0"/></svg><svg overflow="visible" x="50.187" y="47.07"><path d="M7.75-2.766v-.921H4.64v-3.11H3.532v3.11H.406v1.062h3.125v3.11h1.11v-3.11H7.75zm0 0"/></svg><svg overflow="visible" x="61.03" y="47.07"><path d="M.844-6.125c.484-.89.922-1.234 1.672-1.234.78 0 1.125.265 1.125 1.078 0 .734-.344 1.172-.922 1.515-.25.141-.438.235-1.063.438v.39c.86 0 1.125.032 1.39.11.829.25 1.079.703 1.079 1.61 0 1.015-.5 1.687-1.39 1.687-.329 0-.47-.016-.922-.328-.329-.235-.625-.344-.829-.344-.28 0-.656.312-.656.562 0 .422.625.813 1.5.813 1.063 0 2.313-.39 2.875-1.156.36-.454.61-1.125.61-1.766 0-.625-.25-1.266-.579-1.64-.25-.266-.578-.438-.812-.548.625-.375.984-1.062.984-1.64 0-.969-.906-1.766-2.031-1.766-1.234 0-2.156.938-2.531 2.156l.453.11zm0 0"/></svg><svg overflow="visible" x="69.662" y="47.07"><path d="M2.578-3.156c0-.375-.469-.844-.86-.844-.39 0-.89.484-.89.844s.5.844.89.844c.391 0 .86-.454.86-.844zm0 0"/></svg><svg overflow="visible" x="75.735" y="47.07"><path d="M3.734 1.703C2.063.297 1.75-.953 1.75-3.172c0-2.312.328-3.328 2.063-4.812l-.235-.422C1.5-7.172.406-5.36.406-3.141.406-1.109 1.484 1 3.531 2.172l.297-.406zm0 0"/></svg><svg overflow="visible" x="79.716" y="47.07"><path d="M4.86-.125v-.313c-1.048 0-1.126-.093-1.126-.609v-7.219l-.296-.093-2.282 1.156v.453l.5-.188c.203-.093.407-.156.532-.156.25 0 .187.047.187.453v5.375c0 .657-.078.782-1.125.829V0h3.61zm0 0"/></svg><svg overflow="visible" x="88.36" y="47.07"><path d="M7.578-2.766v-.921H.594v1.062h6.984zm0 0"/></svg><svg overflow="visible" x="99.203" y="47.07"><path d="M3.375-5.5h-.64l.374-1.547h-.453C2.11-5.875 1.546-5.563.484-5.359l-.093.578h.906L.375-1.094c-.047.14-.063.297-.063.453 0 .313.266.75.625.75.72 0 1.422-.953 1.797-1.437l-.39-.328c-.531.718-.578.937-.578.937l-.11-.219c-.156 0-.031.047-.031-.015a.58.58 0 01.031-.14l.89-3.688h.829l.203-.719zm0 0"/></svg><svg overflow="visible" x="102.945" y="47.07"><path d="M.234-7.922c1.72 1.36 1.985 2.64 1.985 4.875C2.219-.734 1.922.297.156 1.75l.235.438C2.469.921 3.562-.876 3.562-3.079c0-2.031-1.14-4.125-3.124-5.328L.124-8zm0 0"/></svg><svg overflow="visible" x="106.929" y="42.287"><path d="M4.25-1.5l-.219-.094c-.343.578-.39.64-.765.64h-1.75l1.25-1.343c.796-.844 1.203-1.61 1.203-2.328 0-.875-.828-1.703-1.828-1.703-1.11 0-1.875.86-2.079 2l.516.125C1-5.25 1.125-5.406 1.781-5.406c.75 0 1.047.328 1.047 1.14 0 .766-.265 1.344-1.11 2.235L.079-.281V0h3.813l.562-1.406zm0 0"/></svg><svg overflow="visible" x="114.568" y="47.07"><path d="M2.578-3.156c0-.375-.469-.844-.86-.844-.39 0-.89.484-.89.844s.5.844.89.844c.391 0 .86-.454.86-.844zm0 0"/></svg><svg overflow="visible" x="120.641" y="47.07"><path d="M3.375-5.5h-.64l.374-1.547h-.453C2.11-5.875 1.546-5.563.484-5.359l-.093.578h.906L.375-1.094c-.047.14-.063.297-.063.453 0 .313.266.75.625.75.72 0 1.422-.953 1.797-1.437l-.39-.328c-.531.718-.578.937-.578.937l-.11-.219c-.156 0-.031.047-.031-.015a.58.58 0 01.031-.14l.89-3.688h.829l.203-.719zm0 0"/></svg><svg overflow="visible" x="127.037" y="47.07"><path d="M7.75-2.766v-.921H4.64v-3.11H3.532v3.11H.406v1.062h3.125v3.11h1.11v-3.11H7.75zm0 0"/></svg><svg overflow="visible" x="137.881" y="47.07"><path d="M.844-6.125c.484-.89.922-1.234 1.672-1.234.78 0 1.125.265 1.125 1.078 0 .734-.344 1.172-.922 1.515-.25.141-.438.235-1.063.438v.39c.86 0 1.125.032 1.39.11.829.25 1.079.703 1.079 1.61 0 1.015-.5 1.687-1.39 1.687-.329 0-.47-.016-.922-.328-.329-.235-.625-.344-.829-.344-.28 0-.656.312-.656.562 0 .422.625.813 1.5.813 1.063 0 2.313-.39 2.875-1.156.36-.454.61-1.125.61-1.766 0-.625-.25-1.266-.579-1.64-.25-.266-.578-.438-.812-.548.625-.375.984-1.062.984-1.64 0-.969-.906-1.766-2.031-1.766-1.234 0-2.156.938-2.531 2.156l.453.11zm0 0"/></svg><g><svg overflow="visible" x="146.512" y="47.07"><path d="M2.578-3.156c0-.375-.469-.844-.86-.844-.39 0-.89.484-.89.844s.5.844.89.844c.391 0 .86-.454.86-.844zm0 0"/></svg></g><g><svg overflow="visible" x="152.597" y="47.07"><path d="M3.734 1.703C2.063.297 1.75-.953 1.75-3.172c0-2.312.328-3.328 2.063-4.812l-.235-.422C1.5-7.172.406-5.36.406-3.141.406-1.109 1.484 1 3.531 2.172l.297-.406zm0 0"/></svg><svg overflow="visible" x="156.579" y="47.07"><path d="M4.86-.125v-.313c-1.048 0-1.126-.093-1.126-.609v-7.219l-.296-.093-2.282 1.156v.453l.5-.188c.203-.093.407-.156.532-.156.25 0 .187.047.187.453v5.375c0 .657-.078.782-1.125.829V0h3.61zm0 0"/></svg></g><g><svg overflow="visible" x="165.21" y="47.07"><path d="M7.578-2.766v-.921H.594v1.062h6.984zm0 0"/></svg></g><g><svg overflow="visible" x="176.054" y="47.07"><path d="M3.375-5.5h-.64l.374-1.547h-.453C2.11-5.875 1.546-5.563.484-5.359l-.093.578h.906L.375-1.094c-.047.14-.063.297-.063.453 0 .313.266.75.625.75.72 0 1.422-.953 1.797-1.437l-.39-.328c-.531.718-.578.937-.578.937l-.11-.219c-.156 0-.031.047-.031-.015a.58.58 0 01.031-.14l.89-3.688h.829l.203-.719zm0 0"/></svg><svg overflow="visible" x="179.796" y="47.07"><path d="M.234-7.922c1.72 1.36 1.985 2.64 1.985 4.875C2.219-.734 1.922.297.156 1.75l.235.438C2.469.921 3.562-.876 3.562-3.079c0-2.031-1.14-4.125-3.124-5.328L.124-8zm0 0"/></svg></g><g><svg overflow="visible" x="186.431" y="47.07"><path d="M2.578-3.156c0-.375-.469-.844-.86-.844-.39 0-.89.484-.89.844s.5.844.89.844c.391 0 .86-.454.86-.844zm0 0"/></svg></g><g><svg overflow="visible" x="192.516" y="47.07"><path d="M3.375-5.5h-.64l.374-1.547h-.453C2.11-5.875 1.546-5.563.484-5.359l-.093.578h.906L.375-1.094c-.047.14-.063.297-.063.453 0 .313.266.75.625.75.72 0 1.422-.953 1.797-1.437l-.39-.328c-.531.718-.578.937-.578.937l-.11-.219c-.156 0-.031.047-.031-.015a.58.58 0 01.031-.14l.89-3.688h.829l.203-.719zm0 0"/></svg></g><g><svg overflow="visible" x="196.26" y="42.287"><path d="M4.25-1.5l-.219-.094c-.343.578-.39.64-.765.64h-1.75l1.25-1.343c.796-.844 1.203-1.61 1.203-2.328 0-.875-.828-1.703-1.828-1.703-1.11 0-1.875.86-2.079 2l.516.125C1-5.25 1.125-5.406 1.781-5.406c.75 0 1.047.328 1.047 1.14 0 .766-.265 1.344-1.11 2.235L.079-.281V0h3.813l.562-1.406zm0 0"/></svg></g><g><svg overflow="visible" x="203.898" y="47.07"><path d="M7.75-2.766v-.921H4.64v-3.11H3.532v3.11H.406v1.062h3.125v3.11h1.11v-3.11H7.75zm0 0"/></svg></g><g><svg overflow="visible" x="214.741" y="47.07"><path d="M3.375-5.5h-.64l.374-1.547h-.453C2.11-5.875 1.546-5.563.484-5.359l-.093.578h.906L.375-1.094c-.047.14-.063.297-.063.453 0 .313.266.75.625.75.72 0 1.422-.953 1.797-1.437l-.39-.328c-.531.718-.578.937-.578.937l-.11-.219c-.156 0-.031.047-.031-.015a.58.58 0 01.031-.14l.89-3.688h.829l.203-.719zm0 0"/></svg></g><g><svg overflow="visible" x="218.486" y="42.287"><path d="M.672-4.61c.375-.671.656-.921 1.219-.921.578 0 .765.172.765.781 0 .547-.219.86-.672 1.11-.171.109-.265.171-.796.343v.344c.703 0 .906.015 1.093.078.625.188.75.484.75 1.172 0 .766-.312 1.234-.984 1.234-.25 0-.313 0-.64-.234C1.156-.891.89-.984.733-.984c-.203 0-.562.28-.562.468 0 .313.547.641 1.203.641.797 0 1.766-.297 2.203-.875.266-.328.469-.875.469-1.344 0-.469-.203-.984-.453-1.265a2.062 2.062 0 00-.578-.375c.437-.25.718-.797.718-1.235 0-.734-.734-1.36-1.578-1.36-.922 0-1.687.735-1.969 1.673l.454.11zm0 0"/></svg></g></svg>