<svg xmlns="http://www.w3.org/2000/svg" xmlns:xlink="http://www.w3.org/1999/xlink" width="312" height="60" viewBox="0 0 234 45"><svg overflow="visible" x="3.205" y="8.745"><path d="M3.219-8.203s-.14-.36-.297-.36c-.266 0-1.14.094-1.453.126-.094.015-.422.156-.422.374 0 .141.312.266.5.266.562 0 .375-.016.375.078l-.031.235L.375-1.5a1.376 1.376 0 00-.047.406c0 .672.719 1.219 1.281 1.219.407 0 .891-.36 1.094-.797C2.922-1.125 3-1.75 3-1.75l.063-.094c0-.11-.297-.25-.344-.25-.11 0-.328.188-.36.344-.203.781-.234 1.36-.703 1.36-.36 0-.172-.25-.172-.422 0-.282.016-.344.063-.579L3.28-8.297zm0 0"/></svg><svg overflow="visible" x="6.768" y="8.745"><path d="M3.578-7.61c0-.234-.344-.546-.625-.546-.328 0-.844.437-.844.75 0 .234.36.562.657.562.265 0 .812-.406.812-.765zm.11 5.766c0-.11-.297-.25-.329-.25-.125 0-.328.172-.39.344-.203.766-.406 1.36-1.016 1.36-.203 0-.094.015-.094-.266 0-.297.079-.469.36-1.203l.453-1.25c.156-.344.156-.375.265-.688.094-.25.157-.406.157-.64 0-.532-.578-1.11-1.172-1.11C.797-5.547.14-3.687.14-3.578c0 .125.484.219.484.219l-.14.03c.124 0 .328-.155.39-.343.313-1.125.61-1.344 1.016-1.344.093 0 .093-.14.093.25 0 .25-.078.5-.125.625-.109.297-.64 1.688-.828 2.204-.125.312-.281.703-.281.953 0 .562.61 1.109 1.188 1.109 1.125 0 1.75-1.86 1.75-1.969zm0 0"/></svg><svg overflow="visible" x="10.892" y="8.745"><path d="M7.016-1.844c0-.11-.297-.25-.329-.25-.125 0-.328.172-.39.344-.234.813-.422 1.36-1.016 1.36-.203 0-.093.015-.093-.266 0-.297.109-.594.218-.844.219-.64.719-1.953.719-2.64 0-.798-.703-1.407-1.563-1.407-1.078 0-1.796.797-2 1.078l.329.094c-.063-.672-.735-1.172-1.282-1.172-.562 0-.921.5-1.14.89C.313-4.327.14-3.624.14-3.577c0 .125.484.219.484.219l-.14.03c.124 0 .328-.14.406-.405.203-.844.25-1.282.671-1.282.25 0 .172.016.172.407 0 .265-.03.39-.187 1.015L.844-.844c-.031.188-.11.469-.11.516 0 .219.375.453.563.453.14 0 .547-.219.656-.547-.078.156.125-.5.203-.797l.266-1.078c.062-.265.14-.531.203-.797l.14-.594c.188-.374.626-1.328 1.766-1.328.532 0 .438.313.438.704 0 .734-.578 2.265-.766 2.78-.11.282-.125.423-.125.548 0 .562.625 1.109 1.188 1.109 1.125 0 1.75-1.875 1.75-1.969zm0 0"/></svg><svg overflow="visible" x="18.065" y="8.745"><path d="M5.328-1.406c0-.078-.266-.297-.328-.297-.063 0-.234.062-.297.156C3.75-.359 2.593-.39 2.453-.39c-.937 0-.844-.875-.844-1.265 0-.14 0-.5.141-1.11h.484c.344 0 1.235-.015 1.829-.265.843-.36 1.093-1.203 1.093-1.375 0-.516-.656-1.14-1.468-1.14-1.329 0-3.344 1.296-3.344 3.39C.344-.937 1.25.125 2.422.125c1.719 0 2.906-1.39 2.906-1.531zm-.969-3c0 1.25-1.703 1.125-2.203 1.125h-.25c.422-1.688 1.469-1.735 1.782-1.735.562 0 .671.204.671.61zm0 0"/></svg><svg overflow="visible" x="23.636" y="8.745"><path d="M6.14-1.844c0-.11-.296-.25-.327-.25-.125 0-.344.188-.375.344-.204.781-.22 1.36-.704 1.36-.328 0-.171-.188-.171-.422 0-.266.03-.36.156-.891l.265-1.063.438-1.687c.078-.328.078-.36.078-.406 0-.204-.344-.454-.547-.454-.281 0-.656.407-.703.657h.406c-.218-.438-.765-.89-1.297-.89-1.406 0-3.078 1.89-3.078 3.64 0 1.125.86 2.031 1.781 2.031.25 0 .97-.078 1.422-.61.032.094.657.61 1.22.61.421 0 .827-.297 1.015-.688l.062-.093c.203-.438.297-1.094.297-1.094zm-2.03-2.25c0 .063-.016.14-.032.203l-.594 2.344c-.062.203 0 .14-.187.344-.531.656-.875.812-1.203.812-.594 0-.578-.53-.578-1 0-.593.328-1.968.593-2.515.375-.703.782-1.11 1.266-1.11.766 0 .734.844.734.922zm0 0"/></svg><svg overflow="visible" x="29.961" y="8.745"><path d="M5.406-4.64c0-.423-.578-.907-1.187-.907-.782 0-1.453.625-1.672.953l.328.094c-.094-.531-.719-1.047-1.266-1.047-.562 0-.921.5-1.03.719C.358-4.422.14-3.61.14-3.578c0 .125.484.219.484.219l-.14.03c.124 0 .328-.14.406-.405.203-.844.25-1.282.671-1.282.204 0 .172-.046.172.407 0 .265-.03.39-.187 1.015L.844-.844c-.031.188-.11.469-.11.516 0 .219.375.453.563.453.14 0 .547-.219.656-.547-.062.14.406-1.594.453-1.797l.375-1.562c.047-.156.328-.625.61-.875.093-.094.312-.36.828-.36.312 0 .64.11.64.11l-.14-.235c-.36.063-.828.485-.828.797 0 .188.343.547.656.547.328 0 .86-.406.86-.844zm0 0"/></svg><svg overflow="visible" x="38.82" y="8.745"><path d="M8.828-4.281c0-.125-.312-.375-.437-.375H.906c-.125 0-.437.25-.437.375 0 .14.312.375.437.375h7.485c.125 0 .437-.235.437-.375zm0 2.328c0-.14-.312-.375-.437-.375H.906c-.125 0-.437.234-.437.375 0 .125.312.36.437.36h7.485c.125 0 .437-.235.437-.36zm0 0"/></svg><svg overflow="visible" x="51.451" y="8.745" fill="#00f"><path d="M6.14-1.844c0-.11-.296-.25-.327-.25-.125 0-.344.188-.375.344-.204.781-.22 1.36-.704 1.36-.328 0-.171-.188-.171-.422 0-.266.03-.36.156-.891l.265-1.063.438-1.687c.078-.328.078-.36.078-.406 0-.204-.344-.454-.547-.454-.281 0-.656.407-.703.657h.406c-.218-.438-.765-.89-1.297-.89-1.406 0-3.078 1.89-3.078 3.64 0 1.125.86 2.031 1.781 2.031.25 0 .97-.078 1.422-.61.032.094.657.61 1.22.61.421 0 .827-.297 1.015-.688l.062-.093c.203-.438.297-1.094.297-1.094zm-2.03-2.25c0 .063-.016.14-.032.203l-.594 2.344c-.062.203 0 .14-.187.344-.531.656-.875.812-1.203.812-.594 0-.578-.53-.578-1 0-.593.328-1.968.593-2.515.375-.703.782-1.11 1.266-1.11.766 0 .734.844.734.922zm0 0"/></svg><svg overflow="visible" x="60.433" y="8.745"><path d="M8.828-3.125c0-.125-.312-.36-.437-.36H5.078v-3.374c0-.141-.297-.375-.422-.375-.14 0-.453.234-.453.375v3.375H.906c-.125 0-.437.234-.437.359 0 .14.312.375.437.375h3.297V.625c0 .125.313.36.453.36.125 0 .422-.235.422-.36V-2.75h3.313c.125 0 .437-.234.437-.375zm0 0"/></svg><svg overflow="visible" x="72.391" y="8.745" fill="red"><path d="M5.156-3.5c0-1.094-.828-2.047-1.781-2.047-.547 0-1.188.39-1.547.75l.328.094.89-3.594-.062.094s-.125-.36-.28-.36c-.282 0-1.157.094-1.454.126-.11.015-.438.156-.438.374 0 .141.313.266.485.266.578 0 .406-.047.406.078 0 .078-.11.485-.172.735L.547-3.078c-.14.594-.188.781-.188 1.203 0 1.14.829 2 1.72 2 1.405 0 3.077-1.906 3.077-3.625zm-1.265-.531c0 .703-.391 2.078-.61 2.531-.39.813-.734 1.11-1.203 1.11-.406 0-.61-.188-.61-1.079 0-.234 0-.453.188-1.203l.266-1.11c.078-.265.016-.187.125-.312.578-.781.984-.922 1.297-.922.437 0 .547.22.547.985zm0 0"/></svg><svg overflow="visible" x="-.119" y="26.179"><path d="M5.219-4.39c0-.532-.719-1.157-1.625-1.157-1.578 0-2.219 1.344-2.219 1.875 0 .938 1.094 1.25 1.438 1.313.624.125 1.03.125 1.03.78 0 .313-.062 1.188-1.5 1.188-.171 0-.89.125-1.093-.328.188.016.672-.469.672-.812 0-.282-.375-.547-.625-.547-.313 0-.875.375-.875.922 0 .672.875 1.281 1.906 1.281 1.938 0 2.594-1.578 2.594-2.11 0-.437-.281-.827-.422-.968-.328-.328-.813-.422-1.328-.531-.438-.094-.719-.047-.719-.594 0-.344.094-.938 1.14-.938.298 0 .704-.046.829.282-.078.015-.531.406-.531.671 0 .172.312.485.578.485.265 0 .75-.344.75-.813zm0 0"/></svg><svg overflow="visible" x="5.488" y="26.179"><path d="M5.594-5.281c0-.047-.235-.25-.313-.25-.125 0-.75.515-.781.562-.094-.25-.766-.578-1.14-.578C1.952-5.547.28-3.64.28-1.907c0 1.173.906 2.032 1.781 2.032.5 0 1.11-.313 1.532-.75l-.328-.094-.547 2.14c-.094.329.015.25-.656.266-.157 0-.47.125-.47.375l.329.094s-.125.156.031.156c.375 0 .797-.03 1.188-.03.406 0 .843.03 1.234.03.063 0 .406-.124.406-.359 0-.14-.312-.266-.5-.266-.578 0-.39.047-.39-.062 0-.078.03-.156.046-.266zm-1.5 1.187c0 .063-.594 2.594-.625 2.64C3.28-1.124 2.766-.39 2.094-.39c-.719 0-.578-.796-.578-1 0-.562.343-1.875.546-2.375.376-.89.813-1.25 1.297-1.25.782 0 .735.829.735.922zm0 0"/></svg><svg overflow="visible" x="11.226" y="26.179"><path d="M6.688-1.844c0-.11-.297-.25-.344-.25-.11 0-.328.188-.375.344-.157.672-.188 1.36-.688 1.36-.25 0-.172-.032-.172-.422 0-.266.141-.829.235-1.25l.328-1.282c.047-.187.156-.64.203-.812.063-.282.188-.735.188-.797 0-.219-.36-.469-.547-.469-.047 0-.563.156-.657.563l-.906 3.593c-.015.047-.281.875-1.156.875-.625 0-.547-.406-.547-.859 0-.656.328-1.61.64-2.438.141-.359.204-.515.204-.75 0-.53-.578-1.109-1.172-1.109C.782-5.547.14-3.687.14-3.578c0 .125.484.219.484.219l-.14.03c.124 0 .328-.155.39-.343.297-1.031.563-1.344 1.016-1.344.109 0 .093-.125.093.266 0 .281-.125.625-.203.813-.437 1.171-.687 1.921-.687 2.5 0 1.14 1.015 1.562 1.672 1.562.78 0 1.343-.563 1.328-.531.015.094.64.531 1.156.531.422 0 .828-.297 1.016-.688l.062-.093c.203-.438.297-1.094.297-1.094zm0 0"/></svg><svg overflow="visible" x="18.065" y="26.179"><path d="M6.14-1.844c0-.11-.296-.25-.327-.25-.125 0-.344.188-.375.344-.204.781-.22 1.36-.704 1.36-.328 0-.171-.188-.171-.422 0-.266.03-.36.156-.891l.265-1.063.438-1.687c.078-.328.078-.36.078-.406 0-.204-.344-.454-.547-.454-.281 0-.656.407-.703.657h.406c-.218-.438-.765-.89-1.297-.89-1.406 0-3.078 1.89-3.078 3.64 0 1.125.86 2.031 1.781 2.031.25 0 .97-.078 1.422-.61.032.094.657.61 1.22.61.421 0 .827-.297 1.015-.688l.062-.093c.203-.438.297-1.094.297-1.094zm-2.03-2.25c0 .063-.016.14-.032.203l-.594 2.344c-.062.203 0 .14-.187.344-.531.656-.875.812-1.203.812-.594 0-.578-.53-.578-1 0-.593.328-1.968.593-2.515.375-.703.782-1.11 1.266-1.11.766 0 .734.844.734.922zm0 0"/></svg><svg overflow="visible" x="24.389" y="26.179"><path d="M5.406-4.64c0-.423-.578-.907-1.187-.907-.782 0-1.453.625-1.672.953l.328.094c-.094-.531-.719-1.047-1.266-1.047-.562 0-.921.5-1.03.719C.358-4.422.14-3.61.14-3.578c0 .125.484.219.484.219l-.14.03c.124 0 .328-.14.406-.405.203-.844.25-1.282.671-1.282.204 0 .172-.046.172.407 0 .265-.03.39-.187 1.015L.844-.844c-.031.188-.11.469-.11.516 0 .219.375.453.563.453.14 0 .547-.219.656-.547-.062.14.406-1.594.453-1.797l.375-1.562c.047-.156.328-.625.61-.875.093-.094.312-.36.828-.36.312 0 .64.11.64.11l-.14-.235c-.36.063-.828.485-.828.797 0 .188.343.547.656.547.328 0 .86-.406.86-.844zm0 0"/></svg><svg overflow="visible" x="29.936" y="26.179"><path d="M5.328-1.406c0-.078-.266-.297-.328-.297-.063 0-.234.062-.297.156C3.75-.359 2.593-.39 2.453-.39c-.937 0-.844-.875-.844-1.265 0-.14 0-.5.141-1.11h.484c.344 0 1.235-.015 1.829-.265.843-.36 1.093-1.203 1.093-1.375 0-.516-.656-1.14-1.468-1.14-1.329 0-3.344 1.296-3.344 3.39C.344-.937 1.25.125 2.422.125c1.719 0 2.906-1.39 2.906-1.531zm-.969-3c0 1.25-1.703 1.125-2.203 1.125h-.25c.422-1.688 1.469-1.735 1.782-1.735.562 0 .671.204.671.61zm0 0"/></svg><svg overflow="visible" x="38.819" y="26.179"><path d="M8.828-4.281c0-.125-.312-.375-.437-.375H.906c-.125 0-.437.25-.437.375 0 .14.312.375.437.375h7.485c.125 0 .437-.235.437-.375zm0 2.328c0-.14-.312-.375-.437-.375H.906c-.125 0-.437.234-.437.375 0 .125.312.36.437.36h7.485c.125 0 .437-.235.437-.36zm0 0"/></svg><svg overflow="visible" x="51.451" y="26.179" fill="#00f"><path d="M6.14-1.844c0-.11-.296-.25-.327-.25-.125 0-.344.188-.375.344-.204.781-.22 1.36-.704 1.36-.328 0-.171-.188-.171-.422 0-.266.03-.36.156-.891l.265-1.063.438-1.687c.078-.328.078-.36.078-.406 0-.204-.344-.454-.547-.454-.281 0-.656.407-.703.657h.406c-.218-.438-.765-.89-1.297-.89-1.406 0-3.078 1.89-3.078 3.64 0 1.125.86 2.031 1.781 2.031.25 0 .97-.078 1.422-.61.032.094.657.61 1.22.61.421 0 .827-.297 1.015-.688l.062-.093c.203-.438.297-1.094.297-1.094zm-2.03-2.25c0 .063-.016.14-.032.203l-.594 2.344c-.062.203 0 .14-.187.344-.531.656-.875.812-1.203.812-.594 0-.578-.53-.578-1 0-.593.328-1.968.593-2.515.375-.703.782-1.11 1.266-1.11.766 0 .734.844.734.922zm0 0"/></svg><svg overflow="visible" x="60.433" y="26.179"><path d="M2.484-3.125c0-.344-.468-.766-.828-.766-.343 0-.828.422-.828.766 0 .36.485.766.828.766.36 0 .828-.407.828-.766zm0 0"/></svg><svg overflow="visible" x="66.413" y="26.179" fill="#00f"><path d="M6.14-1.844c0-.11-.296-.25-.327-.25-.125 0-.344.188-.375.344-.204.781-.22 1.36-.704 1.36-.328 0-.171-.188-.171-.422 0-.266.03-.36.156-.891l.265-1.063.438-1.687c.078-.328.078-.36.078-.406 0-.204-.344-.454-.547-.454-.281 0-.656.407-.703.657h.406c-.218-.438-.765-.89-1.297-.89-1.406 0-3.078 1.89-3.078 3.64 0 1.125.86 2.031 1.781 2.031.25 0 .97-.078 1.422-.61.032.094.657.61 1.22.61.421 0 .827-.297 1.015-.688l.062-.093c.203-.438.297-1.094.297-1.094zm-2.03-2.25c0 .063-.016.14-.032.203l-.594 2.344c-.062.203 0 .14-.187.344-.531.656-.875.812-1.203.812-.594 0-.578-.53-.578-1 0-.593.328-1.968.593-2.515.375-.703.782-1.11 1.266-1.11.766 0 .734.844.734.922zm0 0"/></svg><svg overflow="visible" x="75.394" y="26.179"><path d="M8.828-3.125c0-.125-.312-.36-.437-.36H5.078v-3.374c0-.141-.297-.375-.422-.375-.14 0-.453.234-.453.375v3.375H.906c-.125 0-.437.234-.437.359 0 .14.312.375.437.375h3.297V.625c0 .125.313.36.453.36.125 0 .422-.235.422-.36V-2.75h3.313c.125 0 .437-.234.437-.375zm0 0"/></svg><svg overflow="visible" x="87.352" y="26.179" fill="#00f"><path d="M6.14-1.844c0-.11-.296-.25-.327-.25-.125 0-.344.188-.375.344-.204.781-.22 1.36-.704 1.36-.328 0-.171-.188-.171-.422 0-.266.03-.36.156-.891l.265-1.063.438-1.687c.078-.328.078-.36.078-.406 0-.204-.344-.454-.547-.454-.281 0-.656.407-.703.657h.406c-.218-.438-.765-.89-1.297-.89-1.406 0-3.078 1.89-3.078 3.64 0 1.125.86 2.031 1.781 2.031.25 0 .97-.078 1.422-.61.032.094.657.61 1.22.61.421 0 .827-.297 1.015-.688l.062-.093c.203-.438.297-1.094.297-1.094zm-2.03-2.25c0 .063-.016.14-.032.203l-.594 2.344c-.062.203 0 .14-.187.344-.531.656-.875.812-1.203.812-.594 0-.578-.53-.578-1 0-.593.328-1.968.593-2.515.375-.703.782-1.11 1.266-1.11.766 0 .734.844.734.922zm0 0"/></svg><svg overflow="visible" x="96.334" y="26.179"><path d="M2.484-3.125c0-.344-.468-.766-.828-.766-.343 0-.828.422-.828.766 0 .36.485.766.828.766.36 0 .828-.407.828-.766zm0 0"/></svg><svg overflow="visible" x="102.314" y="26.179" fill="red"><path d="M5.156-3.5c0-1.094-.828-2.047-1.781-2.047-.547 0-1.188.39-1.547.75l.328.094.89-3.594-.062.094s-.125-.36-.28-.36c-.282 0-1.157.094-1.454.126-.11.015-.438.156-.438.374 0 .141.313.266.485.266.578 0 .406-.047.406.078 0 .078-.11.485-.172.735L.547-3.078c-.14.594-.188.781-.188 1.203 0 1.14.829 2 1.72 2 1.405 0 3.077-1.906 3.077-3.625zm-1.265-.531c0 .703-.391 2.078-.61 2.531-.39.813-.734 1.11-1.203 1.11-.406 0-.61-.188-.61-1.079 0-.234 0-.453.188-1.203l.266-1.11c.078-.265.016-.187.125-.312.578-.781.984-.922 1.297-.922.437 0 .547.22.547.985zm0 0"/></svg><svg overflow="visible" x="110.267" y="26.179"><path d="M8.828-3.125c0-.125-.312-.36-.437-.36H5.078v-3.374c0-.141-.297-.375-.422-.375-.14 0-.453.234-.453.375v3.375H.906c-.125 0-.437.234-.437.359 0 .14.312.375.437.375h3.297V.625c0 .125.313.36.453.36.125 0 .422-.235.422-.36V-2.75h3.313c.125 0 .437-.234.437-.375zm0 0"/></svg><svg overflow="visible" x="122.225" y="26.179" fill="red"><path d="M5.156-3.5c0-1.094-.828-2.047-1.781-2.047-.547 0-1.188.39-1.547.75l.328.094.89-3.594-.062.094s-.125-.36-.28-.36c-.282 0-1.157.094-1.454.126-.11.015-.438.156-.438.374 0 .141.313.266.485.266.578 0 .406-.047.406.078 0 .078-.11.485-.172.735L.547-3.078c-.14.594-.188.781-.188 1.203 0 1.14.829 2 1.72 2 1.405 0 3.077-1.906 3.077-3.625zm-1.265-.531c0 .703-.391 2.078-.61 2.531-.39.813-.734 1.11-1.203 1.11-.406 0-.61-.188-.61-1.079 0-.234 0-.453.188-1.203l.266-1.11c.078-.265.016-.187.125-.312.578-.781.984-.922 1.297-.922.437 0 .547.22.547.985zm0 0"/></svg><svg overflow="visible" x="130.178" y="26.179"><path d="M2.484-3.125c0-.344-.468-.766-.828-.766-.343 0-.828.422-.828.766 0 .36.485.766.828.766.36 0 .828-.407.828-.766zm0 0"/></svg><svg overflow="visible" x="136.159" y="26.179" fill="red"><path d="M5.156-3.5c0-1.094-.828-2.047-1.781-2.047-.547 0-1.188.39-1.547.75l.328.094.89-3.594-.062.094s-.125-.36-.28-.36c-.282 0-1.157.094-1.454.126-.11.015-.438.156-.438.374 0 .141.313.266.485.266.578 0 .406-.047.406.078 0 .078-.11.485-.172.735L.547-3.078c-.14.594-.188.781-.188 1.203 0 1.14.829 2 1.72 2 1.405 0 3.077-1.906 3.077-3.625zm-1.265-.531c0 .703-.391 2.078-.61 2.531-.39.813-.734 1.11-1.203 1.11-.406 0-.61-.188-.61-1.079 0-.234 0-.453.188-1.203l.266-1.11c.078-.265.016-.187.125-.312.578-.781.984-.922 1.297-.922.437 0 .547.22.547.985zm0 0"/></svg><svg overflow="visible" x="8.298" y="43.614"><path d="M5.328-1.406c0-.078-.266-.297-.328-.297-.063 0-.234.062-.297.156C3.75-.359 2.593-.39 2.453-.39c-.75 0-.89-.453-.89-1.171 0-.5.187-1.563.593-2.297.36-.688.89-1.157 1.547-1.157.406 0 .719.11.766.204.078 0-.235.046-.407.203a1.026 1.026 0 00-.265.562c0 .297.406.563.64.563.344 0 .86-.422.86-.907 0-.578-.75-1.156-1.61-1.156-1.609 0-3.406 1.844-3.406 3.531 0 1.079.906 2.141 2.14 2.141 1.72 0 2.907-1.39 2.907-1.531zm0 0"/></svg><svg overflow="visible" x="13.762" y="43.614"><path d="M6.688-1.844c0-.11-.297-.25-.344-.25-.11 0-.328.188-.375.344-.157.672-.188 1.36-.688 1.36-.25 0-.172-.032-.172-.422 0-.266.141-.829.235-1.25l.328-1.282c.047-.187.156-.64.203-.812.063-.282.188-.735.188-.797 0-.219-.36-.469-.547-.469-.047 0-.563.156-.657.563l-.906 3.593c-.015.047-.281.875-1.156.875-.625 0-.547-.406-.547-.859 0-.656.328-1.61.64-2.438.141-.359.204-.515.204-.75 0-.53-.578-1.109-1.172-1.109C.782-5.547.14-3.687.14-3.578c0 .125.484.219.484.219l-.14.03c.124 0 .328-.155.39-.343.297-1.031.563-1.344 1.016-1.344.109 0 .093-.125.093.266 0 .281-.125.625-.203.813-.437 1.171-.687 1.921-.687 2.5 0 1.14 1.015 1.562 1.672 1.562.78 0 1.343-.563 1.328-.531.015.094.64.531 1.156.531.422 0 .828-.297 1.016-.688l.062-.093c.203-.438.297-1.094.297-1.094zm0 0"/></svg><svg overflow="visible" x="20.6" y="43.614"><path d="M5.156-3.5c0-1.094-.828-2.047-1.781-2.047-.547 0-1.188.39-1.547.75l.328.094.89-3.594-.062.094s-.125-.36-.28-.36c-.282 0-1.157.094-1.454.126-.11.015-.438.156-.438.374 0 .141.313.266.485.266.578 0 .406-.047.406.078 0 .078-.11.485-.172.735L.547-3.078c-.14.594-.188.781-.188 1.203 0 1.14.829 2 1.72 2 1.405 0 3.077-1.906 3.077-3.625zm-1.265-.531c0 .703-.391 2.078-.61 2.531-.39.813-.734 1.11-1.203 1.11-.406 0-.61-.188-.61-1.079 0-.234 0-.453.188-1.203l.266-1.11c.078-.265.016-.187.125-.312.578-.781.984-.922 1.297-.922.437 0 .547.22.547.985zm0 0"/></svg><svg overflow="visible" x="25.896" y="43.614"><path d="M3.578-7.61c0-.234-.344-.546-.625-.546-.328 0-.844.437-.844.75 0 .234.36.562.657.562.265 0 .812-.406.812-.765zm.11 5.766c0-.11-.297-.25-.329-.25-.125 0-.328.172-.39.344-.203.766-.406 1.36-1.016 1.36-.203 0-.094.015-.094-.266 0-.297.079-.469.36-1.203l.453-1.25c.156-.344.156-.375.265-.688.094-.25.157-.406.157-.64 0-.532-.578-1.11-1.172-1.11C.797-5.547.14-3.687.14-3.578c0 .125.484.219.484.219l-.14.03c.124 0 .328-.155.39-.343.313-1.125.61-1.344 1.016-1.344.093 0 .093-.14.093.25 0 .25-.078.5-.125.625-.109.297-.64 1.688-.828 2.204-.125.312-.281.703-.281.953 0 .562.61 1.109 1.188 1.109 1.125 0 1.75-1.86 1.75-1.969zm0 0"/></svg><svg overflow="visible" x="30.021" y="43.614"><path d="M5.328-1.406c0-.078-.266-.297-.328-.297-.063 0-.234.062-.297.156C3.75-.359 2.593-.39 2.453-.39c-.75 0-.89-.453-.89-1.171 0-.5.187-1.563.593-2.297.36-.688.89-1.157 1.547-1.157.406 0 .719.11.766.204.078 0-.235.046-.407.203a1.026 1.026 0 00-.265.562c0 .297.406.563.64.563.344 0 .86-.422.86-.907 0-.578-.75-1.156-1.61-1.156-1.609 0-3.406 1.844-3.406 3.531 0 1.079.906 2.141 2.14 2.141 1.72 0 2.907-1.39 2.907-1.531zm0 0"/></svg><svg overflow="visible" x="38.82" y="43.614"><path d="M8.828-4.281c0-.125-.312-.375-.437-.375H.906c-.125 0-.437.25-.437.375 0 .14.312.375.437.375h7.485c.125 0 .437-.235.437-.375zm0 2.328c0-.14-.312-.375-.437-.375H.906c-.125 0-.437.234-.437.375 0 .125.312.36.437.36h7.485c.125 0 .437-.235.437-.36zm0 0"/></svg><svg overflow="visible" x="51.451" y="43.614" fill="#00f"><path d="M6.14-1.844c0-.11-.296-.25-.327-.25-.125 0-.344.188-.375.344-.204.781-.22 1.36-.704 1.36-.328 0-.171-.188-.171-.422 0-.266.03-.36.156-.891l.265-1.063.438-1.687c.078-.328.078-.36.078-.406 0-.204-.344-.454-.547-.454-.281 0-.656.407-.703.657h.406c-.218-.438-.765-.89-1.297-.89-1.406 0-3.078 1.89-3.078 3.64 0 1.125.86 2.031 1.781 2.031.25 0 .97-.078 1.422-.61.032.094.657.61 1.22.61.421 0 .827-.297 1.015-.688l.062-.093c.203-.438.297-1.094.297-1.094zm-2.03-2.25c0 .063-.016.14-.032.203l-.594 2.344c-.062.203 0 .14-.187.344-.531.656-.875.812-1.203.812-.594 0-.578-.53-.578-1 0-.593.328-1.968.593-2.515.375-.703.782-1.11 1.266-1.11.766 0 .734.844.734.922zm0 0"/></svg><svg overflow="visible" x="60.433" y="43.614"><path d="M2.484-3.125c0-.344-.468-.766-.828-.766-.343 0-.828.422-.828.766 0 .36.485.766.828.766.36 0 .828-.407.828-.766zm0 0"/></svg><svg overflow="visible" x="66.413" y="43.614" fill="#00f"><path d="M6.14-1.844c0-.11-.296-.25-.327-.25-.125 0-.344.188-.375.344-.204.781-.22 1.36-.704 1.36-.328 0-.171-.188-.171-.422 0-.266.03-.36.156-.891l.265-1.063.438-1.687c.078-.328.078-.36.078-.406 0-.204-.344-.454-.547-.454-.281 0-.656.407-.703.657h.406c-.218-.438-.765-.89-1.297-.89-1.406 0-3.078 1.89-3.078 3.64 0 1.125.86 2.031 1.781 2.031.25 0 .97-.078 1.422-.61.032.094.657.61 1.22.61.421 0 .827-.297 1.015-.688l.062-.093c.203-.438.297-1.094.297-1.094zm-2.03-2.25c0 .063-.016.14-.032.203l-.594 2.344c-.062.203 0 .14-.187.344-.531.656-.875.812-1.203.812-.594 0-.578-.53-.578-1 0-.593.328-1.968.593-2.515.375-.703.782-1.11 1.266-1.11.766 0 .734.844.734.922zm0 0"/></svg><svg overflow="visible" x="75.394" y="43.614"><path d="M2.484-3.125c0-.344-.468-.766-.828-.766-.343 0-.828.422-.828.766 0 .36.485.766.828.766.36 0 .828-.407.828-.766zm0 0"/></svg><svg overflow="visible" x="81.375" y="43.614" fill="#00f"><path d="M6.14-1.844c0-.11-.296-.25-.327-.25-.125 0-.344.188-.375.344-.204.781-.22 1.36-.704 1.36-.328 0-.171-.188-.171-.422 0-.266.03-.36.156-.891l.265-1.063.438-1.687c.078-.328.078-.36.078-.406 0-.204-.344-.454-.547-.454-.281 0-.656.407-.703.657h.406c-.218-.438-.765-.89-1.297-.89-1.406 0-3.078 1.89-3.078 3.64 0 1.125.86 2.031 1.781 2.031.25 0 .97-.078 1.422-.61.032.094.657.61 1.22.61.421 0 .827-.297 1.015-.688l.062-.093c.203-.438.297-1.094.297-1.094zm-2.03-2.25c0 .063-.016.14-.032.203l-.594 2.344c-.062.203 0 .14-.187.344-.531.656-.875.812-1.203.812-.594 0-.578-.53-.578-1 0-.593.328-1.968.593-2.515.375-.703.782-1.11 1.266-1.11.766 0 .734.844.734.922zm0 0"/></svg><svg overflow="visible" x="90.356" y="43.614"><path d="M8.828-3.125c0-.125-.312-.36-.437-.36H5.078v-3.374c0-.141-.297-.375-.422-.375-.14 0-.453.234-.453.375v3.375H.906c-.125 0-.437.234-.437.359 0 .14.312.375.437.375h3.297V.625c0 .125.313.36.453.36.125 0 .422-.235.422-.36V-2.75h3.313c.125 0 .437-.234.437-.375zm0 0"/></svg><svg overflow="visible" x="102.314" y="43.614" fill="#00f"><path d="M6.14-1.844c0-.11-.296-.25-.327-.25-.125 0-.344.188-.375.344-.204.781-.22 1.36-.704 1.36-.328 0-.171-.188-.171-.422 0-.266.03-.36.156-.891l.265-1.063.438-1.687c.078-.328.078-.36.078-.406 0-.204-.344-.454-.547-.454-.281 0-.656.407-.703.657h.406c-.218-.438-.765-.89-1.297-.89-1.406 0-3.078 1.89-3.078 3.64 0 1.125.86 2.031 1.781 2.031.25 0 .97-.078 1.422-.61.032.094.657.61 1.22.61.421 0 .827-.297 1.015-.688l.062-.093c.203-.438.297-1.094.297-1.094zm-2.03-2.25c0 .063-.016.14-.032.203l-.594 2.344c-.062.203 0 .14-.187.344-.531.656-.875.812-1.203.812-.594 0-.578-.53-.578-1 0-.593.328-1.968.593-2.515.375-.703.782-1.11 1.266-1.11.766 0 .734.844.734.922zm0 0"/></svg><svg overflow="visible" x="111.295" y="43.614"><path d="M2.484-3.125c0-.344-.468-.766-.828-.766-.343 0-.828.422-.828.766 0 .36.485.766.828.766.36 0 .828-.407.828-.766zm0 0"/></svg><svg overflow="visible" x="117.276" y="43.614" fill="#00f"><path d="M6.14-1.844c0-.11-.296-.25-.327-.25-.125 0-.344.188-.375.344-.204.781-.22 1.36-.704 1.36-.328 0-.171-.188-.171-.422 0-.266.03-.36.156-.891l.265-1.063.438-1.687c.078-.328.078-.36.078-.406 0-.204-.344-.454-.547-.454-.281 0-.656.407-.703.657h.406c-.218-.438-.765-.89-1.297-.89-1.406 0-3.078 1.89-3.078 3.64 0 1.125.86 2.031 1.781 2.031.25 0 .97-.078 1.422-.61.032.094.657.61 1.22.61.421 0 .827-.297 1.015-.688l.062-.093c.203-.438.297-1.094.297-1.094zm-2.03-2.25c0 .063-.016.14-.032.203l-.594 2.344c-.062.203 0 .14-.187.344-.531.656-.875.812-1.203.812-.594 0-.578-.53-.578-1 0-.593.328-1.968.593-2.515.375-.703.782-1.11 1.266-1.11.766 0 .734.844.734.922zm0 0"/></svg><svg overflow="visible" x="126.257" y="43.614"><path d="M2.484-3.125c0-.344-.468-.766-.828-.766-.343 0-.828.422-.828.766 0 .36.485.766.828.766.36 0 .828-.407.828-.766zm0 0"/></svg><svg overflow="visible" x="132.238" y="43.614" fill="red"><path d="M5.156-3.5c0-1.094-.828-2.047-1.781-2.047-.547 0-1.188.39-1.547.75l.328.094.89-3.594-.062.094s-.125-.36-.28-.36c-.282 0-1.157.094-1.454.126-.11.015-.438.156-.438.374 0 .141.313.266.485.266.578 0 .406-.047.406.078 0 .078-.11.485-.172.735L.547-3.078c-.14.594-.188.781-.188 1.203 0 1.14.829 2 1.72 2 1.405 0 3.077-1.906 3.077-3.625zm-1.265-.531c0 .703-.391 2.078-.61 2.531-.39.813-.734 1.11-1.203 1.11-.406 0-.61-.188-.61-1.079 0-.234 0-.453.188-1.203l.266-1.11c.078-.265.016-.187.125-.312.578-.781.984-.922 1.297-.922.437 0 .547.22.547.985zm0 0"/></svg><svg overflow="visible" x="140.191" y="43.614"><path d="M8.828-3.125c0-.125-.312-.36-.437-.36H5.078v-3.374c0-.141-.297-.375-.422-.375-.14 0-.453.234-.453.375v3.375H.906c-.125 0-.437.234-.437.359 0 .14.312.375.437.375h3.297V.625c0 .125.313.36.453.36.125 0 .422-.235.422-.36V-2.75h3.313c.125 0 .437-.234.437-.375zm0 0"/></svg><svg overflow="visible" x="152.149" y="43.614" fill="#00f"><path d="M6.14-1.844c0-.11-.296-.25-.327-.25-.125 0-.344.188-.375.344-.204.781-.22 1.36-.704 1.36-.328 0-.171-.188-.171-.422 0-.266.03-.36.156-.891l.265-1.063.438-1.687c.078-.328.078-.36.078-.406 0-.204-.344-.454-.547-.454-.281 0-.656.407-.703.657h.406c-.218-.438-.765-.89-1.297-.89-1.406 0-3.078 1.89-3.078 3.64 0 1.125.86 2.031 1.781 2.031.25 0 .97-.078 1.422-.61.032.094.657.61 1.22.61.421 0 .827-.297 1.015-.688l.062-.093c.203-.438.297-1.094.297-1.094zm-2.03-2.25c0 .063-.016.14-.032.203l-.594 2.344c-.062.203 0 .14-.187.344-.531.656-.875.812-1.203.812-.594 0-.578-.53-.578-1 0-.593.328-1.968.593-2.515.375-.703.782-1.11 1.266-1.11.766 0 .734.844.734.922zm0 0"/></svg><g><svg overflow="visible" x="161.13" y="43.614"><path d="M2.484-3.125c0-.344-.468-.766-.828-.766-.343 0-.828.422-.828.766 0 .36.485.766.828.766.36 0 .828-.407.828-.766zm0 0"/></svg></g><g fill="red"><svg overflow="visible" x="167.111" y="43.614"><path d="M5.156-3.5c0-1.094-.828-2.047-1.781-2.047-.547 0-1.188.39-1.547.75l.328.094.89-3.594-.062.094s-.125-.36-.28-.36c-.282 0-1.157.094-1.454.126-.11.015-.438.156-.438.374 0 .141.313.266.485.266.578 0 .406-.047.406.078 0 .078-.11.485-.172.735L.547-3.078c-.14.594-.188.781-.188 1.203 0 1.14.829 2 1.72 2 1.405 0 3.077-1.906 3.077-3.625zm-1.265-.531c0 .703-.391 2.078-.61 2.531-.39.813-.734 1.11-1.203 1.11-.406 0-.61-.188-.61-1.079 0-.234 0-.453.188-1.203l.266-1.11c.078-.265.016-.187.125-.312.578-.781.984-.922 1.297-.922.437 0 .547.22.547.985zm0 0"/></svg></g><g><svg overflow="visible" x="175.064" y="43.614"><path d="M2.484-3.125c0-.344-.468-.766-.828-.766-.343 0-.828.422-.828.766 0 .36.485.766.828.766.36 0 .828-.407.828-.766zm0 0"/></svg></g><g fill="red"><svg overflow="visible" x="181.044" y="43.614"><path d="M5.156-3.5c0-1.094-.828-2.047-1.781-2.047-.547 0-1.188.39-1.547.75l.328.094.89-3.594-.062.094s-.125-.36-.28-.36c-.282 0-1.157.094-1.454.126-.11.015-.438.156-.438.374 0 .141.313.266.485.266.578 0 .406-.047.406.078 0 .078-.11.485-.172.735L.547-3.078c-.14.594-.188.781-.188 1.203 0 1.14.829 2 1.72 2 1.405 0 3.077-1.906 3.077-3.625zm-1.265-.531c0 .703-.391 2.078-.61 2.531-.39.813-.734 1.11-1.203 1.11-.406 0-.61-.188-.61-1.079 0-.234 0-.453.188-1.203l.266-1.11c.078-.265.016-.187.125-.312.578-.781.984-.922 1.297-.922.437 0 .547.22.547.985zm0 0"/></svg></g><g><svg overflow="visible" x="188.997" y="43.614"><path d="M8.828-3.125c0-.125-.312-.36-.437-.36H5.078v-3.374c0-.141-.297-.375-.422-.375-.14 0-.453.234-.453.375v3.375H.906c-.125 0-.437.234-.437.359 0 .14.312.375.437.375h3.297V.625c0 .125.313.36.453.36.125 0 .422-.235.422-.36V-2.75h3.313c.125 0 .437-.234.437-.375zm0 0"/></svg></g><g fill="red"><svg overflow="visible" x="200.955" y="43.614"><path d="M5.156-3.5c0-1.094-.828-2.047-1.781-2.047-.547 0-1.188.39-1.547.75l.328.094.89-3.594-.062.094s-.125-.36-.28-.36c-.282 0-1.157.094-1.454.126-.11.015-.438.156-.438.374 0 .141.313.266.485.266.578 0 .406-.047.406.078 0 .078-.11.485-.172.735L.547-3.078c-.14.594-.188.781-.188 1.203 0 1.14.829 2 1.72 2 1.405 0 3.077-1.906 3.077-3.625zm-1.265-.531c0 .703-.391 2.078-.61 2.531-.39.813-.734 1.11-1.203 1.11-.406 0-.61-.188-.61-1.079 0-.234 0-.453.188-1.203l.266-1.11c.078-.265.016-.187.125-.312.578-.781.984-.922 1.297-.922.437 0 .547.22.547.985zm0 0"/></svg></g><g><svg overflow="visible" x="208.908" y="43.614"><path d="M2.484-3.125c0-.344-.468-.766-.828-.766-.343 0-.828.422-.828.766 0 .36.485.766.828.766.36 0 .828-.407.828-.766zm0 0"/></svg></g><g fill="red"><svg overflow="visible" x="214.889" y="43.614"><path d="M5.156-3.5c0-1.094-.828-2.047-1.781-2.047-.547 0-1.188.39-1.547.75l.328.094.89-3.594-.062.094s-.125-.36-.28-.36c-.282 0-1.157.094-1.454.126-.11.015-.438.156-.438.374 0 .141.313.266.485.266.578 0 .406-.047.406.078 0 .078-.11.485-.172.735L.547-3.078c-.14.594-.188.781-.188 1.203 0 1.14.829 2 1.72 2 1.405 0 3.077-1.906 3.077-3.625zm-1.265-.531c0 .703-.391 2.078-.61 2.531-.39.813-.734 1.11-1.203 1.11-.406 0-.61-.188-.61-1.079 0-.234 0-.453.188-1.203l.266-1.11c.078-.265.016-.187.125-.312.578-.781.984-.922 1.297-.922.437 0 .547.22.547.985zm0 0"/></svg></g><g><svg overflow="visible" x="222.842" y="43.614"><path d="M2.484-3.125c0-.344-.468-.766-.828-.766-.343 0-.828.422-.828.766 0 .36.485.766.828.766.36 0 .828-.407.828-.766zm0 0"/></svg></g><g fill="red"><svg overflow="visible" x="228.823" y="43.614"><path d="M5.156-3.5c0-1.094-.828-2.047-1.781-2.047-.547 0-1.188.39-1.547.75l.328.094.89-3.594-.062.094s-.125-.36-.28-.36c-.282 0-1.157.094-1.454.126-.11.015-.438.156-.438.374 0 .141.313.266.485.266.578 0 .406-.047.406.078 0 .078-.11.485-.172.735L.547-3.078c-.14.594-.188.781-.188 1.203 0 1.14.829 2 1.72 2 1.405 0 3.077-1.906 3.077-3.625zm-1.265-.531c0 .703-.391 2.078-.61 2.531-.39.813-.734 1.11-1.203 1.11-.406 0-.61-.188-.61-1.079 0-.234 0-.453.188-1.203l.266-1.11c.078-.265.016-.187.125-.312.578-.781.984-.922 1.297-.922.437 0 .547.22.547.985zm0 0"/></svg></g></svg>