<svg xmlns="http://www.w3.org/2000/svg" xmlns:xlink="http://www.w3.org/1999/xlink" width="243px" height="49px" viewBox="0 0 182 37"><svg overflow="visible" x=".824" y="19.196"><path d="M3.61-6.938c.078-.406-.047-.39.953-.39.562 0 1.093.14 1.093 1.031 0 .125-.031.266-.047.422-.203 1.016-.812 1.234-1.765 1.234h-.688zm-.688 2.97h.781c1.36 0 1.766.546 1.766 1.421 0 .14-.032.281-.047.438-.188.875-.516 1.468-2.25 1.468-.688 0-.735.016-.735-.25 0-.046.016-.109.032-.171L3.03-3.97zM.078-.36l-.047.28.11.11C.75.016 1.219 0 1.67 0c.454 0 .61.031 1.641.031 2.282 0 3.266-1.328 3.47-2.36.015-.155.046-.296.046-.437 0-.875-.719-1.53-1.39-1.75v.125c.484-.234 1.25-.984 1.375-1.64.03-.14.046-.282.046-.438C6.86-7.156 6.313-8 4.563-8c-.407 0-.922.031-1.391.031-.453 0-.906-.015-1.5-.031l-.125.094-.063.297c0 .062.172.218.22.218l.343.032c.375.015.375-.063.375.156 0 .062-.016.125-.031.203L1.219-.984c-.078.421-.047.343-.532.375l-.359.03c-.047 0-.234.157-.25.22zm0 0"/></svg><svg overflow="visible" x="7.483" y="19.196"><path d="M4.344-8.188L3.156-6.766c-.125.157-.234.297-.25.438-.015.078.203.281.297.281.078 0 .281-.078.485-.266l1.687-1.343v-.235c-.266-.312-.672-.359-.75-.359-.063 0-.125.016-.281.047zm-.25 3.641c0 1.063-1.11 1.328-1.828 1.422.375-1.531.89-1.75 1.39-1.75.438 0 .438-.031.438.328zM2-2.375c3.11-.61 3.219-1.672 3.219-2.125 0-.297-.422-1.016-1.282-1.016C1.86-5.516.845-3.344.845-1.828c0 1.016.625 1.953 1.625 1.953.797 0 1.625-.453 2.39-1.438-.078-.156-.296-.343-.515-.343-.703.718-.875.797-1.453.797-.532 0-.766-.157-.766-1.25v-.297zm0 0"/></svg><svg overflow="visible" x="12.277" y="19.196"><path d="M5.125-5.531c-.266.312-.344.343-.531.343-.219 0-.39-.046-.953-.171-.563-.094-.922-.157-1.266-.157-.422 0-1.11.907-1.328 1.657.14.14.36.187.578.187.313-.672.375-.672.922-.672.531 0 .984.11 1.344.11.156 0 .25 0 .359-.016l-.11-.234-2.859 3.171c-.234.266-.75.938-.797 1.094.047.094.25.281.329.297.093.031.171.047.343.078.297-.484.5-.64.61-.64.203 0 .421.03.796.265.313.188.813.344 1.141.344.516 0 1.047-.438 1.625-1.75a.655.655 0 00-.531-.234c-.484.765-.719.796-1.063.796-.609 0-.53-.421-1.312-.421.61-.704 1.922-2.047 2.594-2.875.296-.36.546-.61.75-.954l-.579-.296zm0 0"/></svg><svg overflow="visible" x="17.49" y="19.196"><path d="M2.25-6.938c0 .297.422.704.719.704.312 0 .719-.407.719-.704 0-.312-.407-.718-.72-.718-.296 0-.718.406-.718.718zm.828 2.985c.094-.469.25-.938.25-1.14 0-.173-.25-.376-.406-.376-.375 0-.906.078-1.563.157-.109.125-.078.453.016.593l.563.032c.14.015.062-.016.062.109 0 .11-.031.281-.11.61L1.329-1.5c-.078.375-.203.86-.203 1.094 0 .234.281.531.64.531.579 0 1.204-.453 1.813-1.219-.047-.14-.25-.36-.5-.36-.344.391-.578.595-.703.595-.078 0 .031.078.031-.079 0-.109.063-.359.125-.671zm0 0"/></svg><svg overflow="visible" x="20.789" y="19.196"><path d="M4.094-4.547c0 1.063-1.11 1.328-1.828 1.422.375-1.531.89-1.75 1.39-1.75.438 0 .438-.031.438.328zM2-2.375c3.11-.61 3.219-1.672 3.219-2.125 0-.297-.422-1.016-1.282-1.016C1.86-5.516.845-3.344.845-1.828c0 1.016.625 1.953 1.625 1.953.797 0 1.625-.453 2.39-1.438-.078-.156-.296-.343-.515-.343-.703.718-.875.797-1.453.797-.532 0-.766-.157-.766-1.25v-.297zm0 0"/></svg><svg overflow="visible" x="25.583" y="19.196"><path d="M2.781-3.531l.094-.422c.11-.469.203-.89.203-1.094 0-.172-.234-.422-.39-.422-.376 0-.876.078-1.516.157-.11.125-.078.453.016.593l.562.032c.14.015.063-.016.063.109 0 .11 0 .281-.094.61L1.062-.985C1-.734.906-.531.906-.328s.266.453.61.453c.421 0 .578-.656.703-1.11l.328-1.374c.531-.97 1.11-2.047 1.39-2.047.11 0 .063.015.141.11.078.093.344.28.516.28.312 0 .672-.484.672-.796 0-.25-.313-.704-.766-.704-.594 0-1.438.875-1.89 1.829l.203.046zm0 0"/></svg><svg overflow="visible" x="29.851" y="19.196"><path d="M3.734 1.703C2.063.297 1.75-.953 1.75-3.172c0-2.312.328-3.328 2.063-4.812l-.235-.422C1.5-7.172.406-5.36.406-3.141.406-1.109 1.484 1 3.531 2.172l.297-.406zm0 0"/></svg><svg overflow="visible" x="33.832" y="19.196"><path d="M5.688-1.375l-.282-.234c-.265.312-.437.703-.718.703-.141 0-.016.031-.032-.031 0-.063-.047 0 .016-.125l.703-2.766c.063-.235.14-.531.14-.828 0-.407-.296-.875-.827-.875-.72 0-1.563.828-2.032 1.422-.031.03-.5.828-.547.828h.157l.609-2.281-2.281.328.062.437c.235-.031.36-.062.485-.062.312 0 .187.046.187.25L.156 0h1.25l.422-1.61c.078-.25.328-.718.766-1.359.375-.562 1.015-1.562 1.469-1.562.218 0 .125.093.125.328 0 .156-.063.406-.094.5l-.672 2.64a1.57 1.57 0 00-.094.485c0 .265.281.672.672.672.61 0 1.297-.797 1.625-1.203l.156-.188zm0 0"/></svg><svg overflow="visible" x="39.774" y="19.196"><path d="M.984 1.688c.829-.391 1.5-1.282 1.5-2 0-.625-.578-1.172-1.109-1.172-.438 0-.89.406-.89.812s.421.75.859.75c.14 0 .265-.047.36-.047.093 0 0-.062 0 .016 0 .39-.298.734-1.016 1.234l.218.438zm0 0"/></svg><svg overflow="visible" x="44.747" y="19.196"><path d="M3.375-5.5h-.64l.374-1.547h-.453C2.11-5.875 1.546-5.563.484-5.359l-.093.578h.906L.375-1.094c-.047.14-.063.297-.063.453 0 .313.266.75.625.75.72 0 1.422-.953 1.797-1.437l-.39-.328c-.531.718-.578.937-.578.937l-.11-.219c-.156 0-.031.047-.031-.015a.58.58 0 01.031-.14l.89-3.688h.829l.203-.719zm0 0"/></svg><svg overflow="visible" x="48.489" y="19.196"><path d="M.234-7.922c1.72 1.36 1.985 2.64 1.985 4.875C2.219-.734 1.922.297.156 1.75l.235.438C2.469.921 3.562-.876 3.562-3.079c0-2.031-1.14-4.125-3.124-5.328L.124-8zm0 0"/></svg><svg overflow="visible" x="55.794" y="19.196"><path d="M7.766-1.563v-.921H.406v1.046h7.36zm0-2.39v-.922H.406v1.047h7.36zm0 0"/></svg><svg overflow="visible" x="72.805" y="3.954"><path d="M4.313-1.094l-.266-.218c-.234.265-.313.562-.531.562-.094 0 .046.063.046 0 0-.047-.062.031.016-.125l.516-2.031c.047-.172.11-.406.11-.625 0-.297-.298-.688-.688-.688-.532 0-1.204.625-1.563 1.078-.031.016-.328.61-.375.61h.203l.469-1.735-1.875.282.063.39c.218-.031.328-.047.421-.047.235 0 .079-.015.079.157L.046 0h1.062l.329-1.25c.046-.188.234-.516.546-1 .282-.406.72-1.156 1.063-1.156.156 0 .031.047.031.219 0 .124-.047.296-.062.374L2.5-.827a1.23 1.23 0 00-.063.36c0 .202.266.546.563.546.469 0 1.016-.61 1.266-.922l.14-.172zm0 0"/></svg><svg overflow="visible" x="67.31" y="25.461"><path d="M14.375-5.828h-.61c-.468 2.094-1.124 2.797-2.78 2.797h-6.5L10-10.234l-4.828-6.61h4.234c.422 0 .938.016 1.266.063.797.093 1.437.578 1.765 2.156.047.234.141.547.141.906h.75v-4.469H1.218L7.548-9.5.78-.578H13.61l.938-5.25zm0 0"/></svg><svg overflow="visible" x="68.326" y="32.729"><path d="M2.031-4.219L.406-4l.078.438c.22-.063.329-.094.407-.094.218 0 .093-.078.093.062 0 .031.047 0-.03.156C.265-.717.265-.562.265-.453c0 .25.296.547.546.547C1.25.094 1.829-.47 2.234-1l-.375-.281c-.421.468-.343.531-.546.531-.063 0 .062.11.062.047 0-.031 0-.063.016-.125l.875-3.438zm.453-.984c0-.234-.375-.594-.609-.594-.266 0-.625.36-.625.594 0 .219.36.547.625.547.234 0 .61-.328.61-.547zm0 0"/></svg><svg overflow="visible" x="71.115" y="32.729"><path d="M5.89-1.203v-.734H.235v.859h5.657zM5.89-3v-.734H.235v.859h5.657zm0 0"/></svg><svg overflow="visible" x="77.257" y="32.729"><path d="M3.219-3.047C3.219-1.28 3-.375 2.25-.375c-.781 0-1-.89-1-2.703 0-1.828.234-2.75.969-2.75.797 0 1 .906 1 2.781zm1.234-.047c0-1.844-1-3.234-2.172-3.234-1.453 0-2.25 1.594-2.25 3.187C.031-1.67.703.125 2.25.125c1.453 0 2.203-1.672 2.203-3.219zm0 0"/></svg><svg overflow="visible" x="84.749" y="26.202"><path d="M8.078 3.906C5.953 1.281 3.641-2.797 3.641-10.125c0-7.25 2.312-11.875 4.484-14.125v-.906c-3.672 2.953-6.11 8.593-6.11 15.031 0 6.469 2.438 11.61 6.11 15.063v-.97zm0 0"/></svg><svg overflow="visible" x="93.715" y="12.262"><path d="M5.688-1.375l-.282-.234c-.265.312-.437.703-.718.703-.141 0-.016.031-.032-.031 0-.063-.047 0 .016-.125l.703-2.766c.063-.235.14-.531.14-.828 0-.407-.296-.875-.827-.875-.72 0-1.563.828-2.032 1.422-.031.03-.5.828-.547.828h.157l.609-2.281-2.281.328.062.437c.235-.031.36-.062.485-.062.312 0 .187.046.187.25L.156 0h1.25l.422-1.61c.078-.25.328-.718.766-1.359.375-.562 1.015-1.562 1.469-1.562.218 0 .125.093.125.328 0 .156-.063.406-.094.5l-.672 2.64a1.57 1.57 0 00-.094.485c0 .265.281.672.672.672.61 0 1.297-.797 1.625-1.203l.156-.188zm0 0"/></svg><svg overflow="visible" x="94.827" y="27.566"><path d="M2.719-5.531L.64-5.25l.093.484c.204-.078.36-.093.454-.093.28 0 .218-.079.218.125 0 .03.032.03-.031.14C.437-.922.437-.687.437-.547c0 .313.297.672.641.672.578 0 1.281-.75 1.797-1.406L2.5-1.578c-.531.578-.484.687-.75.687-.078 0 0 .094 0 0 0-.046 0-.093.016-.156l1.156-4.516zm.515-1.36c0-.312-.421-.734-.734-.734-.344 0-.75.422-.75.734 0 .297.406.672.75.672.313 0 .734-.375.734-.672zm0 0"/></svg><svg overflow="visible" x="99.657" y="26.202"><path d="M.875-24.156C3-21.563 5.313-17.47 5.313-10.125 5.313-2.875 3 1.75.827 4v.906c3.672-2.953 6.11-8.64 6.11-15.031 0-6.516-2.438-11.61-6.11-15.063v.97zm0 0"/></svg><svg overflow="visible" x="85.412" y="30.912"><path d="M21.86 2.266c-.266.718-1.282.906-2.5.906-.36 0-2.313-.016-2.47-.016h-1.624c-1.797 0-3.329.531-4.063 1.438h.125c-.734-.907-2.234-1.438-4.031-1.438H5.672c-.156 0-1.266.016-2.5.016-1.219 0-2.094-.172-2.578-1.047h-.797C.125 3.344 1.812 4.25 5.094 4.25h3.062c1.078 0 2.5.156 2.813 1.047h.61c.296-.89 1.765-1.047 2.827-1.047h3.063c3.281 0 4.937-.906 5.265-2.125h-.828zm0 0"/></svg><svg overflow="visible" x="111.28" y="19.196"><path d="M2.578-3.156c0-.375-.469-.844-.86-.844-.39 0-.89.484-.89.844s.5.844.89.844c.391 0 .86-.454.86-.844zm0 0"/></svg><svg overflow="visible" x="120.342" y="19.196"><path d="M3.734 1.703C2.063.297 1.75-.953 1.75-3.172c0-2.312.328-3.328 2.063-4.812l-.235-.422C1.5-7.172.406-5.36.406-3.141.406-1.109 1.484 1 3.531 2.172l.297-.406zm0 0"/></svg><svg overflow="visible" x="124.323" y="19.196"><path d="M4.86-.125v-.313c-1.048 0-1.126-.093-1.126-.609v-7.219l-.296-.093-2.282 1.156v.453l.5-.188c.203-.093.407-.156.532-.156.25 0 .187.047.187.453v5.375c0 .657-.078.782-1.125.829V0h3.61zm0 0"/></svg><svg overflow="visible" x="132.955" y="19.196"><path d="M7.578-2.766v-.921H.594v1.062h6.984zm0 0"/></svg><svg overflow="visible" x="143.798" y="19.196"><path d="M3.375-5.5h-.64l.374-1.547h-.453C2.11-5.875 1.546-5.563.484-5.359l-.093.578h.906L.375-1.094c-.047.14-.063.297-.063.453 0 .313.266.75.625.75.72 0 1.422-.953 1.797-1.437l-.39-.328c-.531.718-.578.937-.578.937l-.11-.219c-.156 0-.031.047-.031-.015a.58.58 0 01.031-.14l.89-3.688h.829l.203-.719zm0 0"/></svg><svg overflow="visible" x="147.54" y="19.196"><path d="M.234-7.922c1.72 1.36 1.985 2.64 1.985 4.875C2.219-.734 1.922.297.156 1.75l.235.438C2.469.921 3.562-.876 3.562-3.079c0-2.031-1.14-4.125-3.124-5.328L.124-8zm0 0"/></svg><svg overflow="visible" x="151.53" y="15.908"><path d="M4.313-1.094l-.266-.218c-.234.265-.313.562-.531.562-.094 0 .046.063.046 0 0-.047-.062.031.016-.125l.516-2.031c.047-.172.11-.406.11-.625 0-.297-.298-.688-.688-.688-.532 0-1.204.625-1.563 1.078-.031.016-.328.61-.375.61h.203l.469-1.735-1.875.282.063.39c.218-.031.328-.047.421-.047.235 0 .079-.015.079.157L.046 0h1.062l.329-1.25c.046-.188.234-.516.546-1 .282-.406.72-1.156 1.063-1.156.156 0 .031.047.031.219 0 .124-.047.296-.062.374L2.5-.827a1.23 1.23 0 00-.063.36c0 .202.266.546.563.546.469 0 1.016-.61 1.266-.922l.14-.172zm0 0"/></svg><svg overflow="visible" x="155.986" y="15.908"><path d="M5.75-2.11v-.718H.39v.86h5.36zm0 0"/></svg><svg overflow="visible" x="162.128" y="15.908"><path d="M2.031-4.219L.406-4l.078.438c.22-.063.329-.094.407-.094.218 0 .093-.078.093.062 0 .031.047 0-.03.156C.265-.717.265-.562.265-.453c0 .25.296.547.546.547C1.25.094 1.829-.47 2.234-1l-.375-.281c-.421.468-.343.531-.546.531-.063 0 .062.11.062.047 0-.031 0-.063.016-.125l.875-3.438zm.453-.984c0-.234-.375-.594-.609-.594-.266 0-.625.36-.625.594 0 .219.36.547.625.547.234 0 .61-.328.61-.547zm0 0"/></svg><g><svg overflow="visible" x="168.072" y="19.196"><path d="M2.578-3.156c0-.375-.469-.844-.86-.844-.39 0-.89.484-.89.844s.5.844.89.844c.391 0 .86-.454.86-.844zm0 0"/></svg></g><g><svg overflow="visible" x="174.145" y="19.196"><path d="M3.375-5.5h-.64l.374-1.547h-.453C2.11-5.875 1.546-5.563.484-5.359l-.093.578h.906L.375-1.094c-.047.14-.063.297-.063.453 0 .313.266.75.625.75.72 0 1.422-.953 1.797-1.437l-.39-.328c-.531.718-.578.937-.578.937l-.11-.219c-.156 0-.031.047-.031-.015a.58.58 0 01.031-.14l.89-3.688h.829l.203-.719zm0 0"/></svg></g><g><svg overflow="visible" x="177.89" y="15.908"><path d="M2.031-4.219L.406-4l.078.438c.22-.063.329-.094.407-.094.218 0 .093-.078.093.062 0 .031.047 0-.03.156C.265-.717.265-.562.265-.453c0 .25.296.547.546.547C1.25.094 1.829-.47 2.234-1l-.375-.281c-.421.468-.343.531-.546.531-.063 0 .062.11.062.047 0-.031 0-.063.016-.125l.875-3.438zm.453-.984c0-.234-.375-.594-.609-.594-.266 0-.625.36-.625.594 0 .219.36.547.625.547.234 0 .61-.328.61-.547zm0 0"/></svg></g><g><svg overflow="visible" x="120.345" y="21.312"><path d="M11.016 7.547V5.813h-4.47c-2.312 0-5.765-.735-6.03-3.688h-1C.14 6.469 4.25 7.688 7.953 7.688h3.063zm0 0"/></svg></g><g><svg overflow="visible" x="130.328" y="21.312"><path d="M4.047 7.547V5.813H-.172v1.875h4.219zm0 0"/></svg></g><g><svg overflow="visible" x="133.472" y="21.312"><path d="M4.047 7.547V5.813H-.172v1.875h4.219zm0 0"/></svg></g><g><svg overflow="visible" x="136.604" y="21.312"><path d="M4.047 7.547V5.813H-.172v1.875h4.219zm0 0"/></svg></g><g><svg overflow="visible" x="139.748" y="21.312"><path d="M22.313 7.547V5.813h-4.735c-2.937 0-5.437.859-6.64 3.468h.156C9.89 6.671 7.469 5.812 4.547 5.812H-.281v1.875h6.218c1.766 0 4.204.829 4.61 3.141h.922c.422-2.312 2.937-3.14 4.703-3.14h6.14zm0 0"/></svg></g><g><svg overflow="visible" x="161.041" y="21.312"><path d="M4.047 7.547V5.813H-.172v1.875h4.219zm0 0"/></svg></g><g><svg overflow="visible" x="164.185" y="21.312"><path d="M4.047 7.547V5.813H-.172v1.875h4.219zm0 0"/></svg></g><g><svg overflow="visible" x="167.317" y="21.312"><path d="M4.047 7.547V5.813H-.172v1.875h4.219zm0 0"/></svg></g><g><svg overflow="visible" x="170.461" y="21.312"><path d="M10.188 2.266c-.266 2.812-3.704 3.546-6.016 3.546H-.297v1.875h3.063c3.718 0 7.796-1.218 8.437-5.562h-1zm0 0"/></svg></g></svg>