<svg xmlns="http://www.w3.org/2000/svg" xmlns:xlink="http://www.w3.org/1999/xlink" width="81px" height="37px" viewBox="0 0 61 28"><svg overflow="visible" x=".463" y="17.538"><path d="M7.766-.094V-.53c-.61-.078-.657-.14-.985-.64L4.703-4.267c.438-.078.875-.265 1.313-.578.687-.5 1.093-1.25 1.093-1.984 0-1.031-1.234-1.703-2.218-1.703-.594 0-1.204.031-1.797.031l-1.938-.047-.062.61.828.03c.297 0 .281-.03.281.188 0 .172-.047.547-.11.907l-.905 5.187C1-.531 1.125-.641.64-.594l-.61.031-.093.61L1.688 0 3.28.047l.047-.61-.719-.03c-.328-.032-.296.015-.296-.235 0-.11 0-.219.046-.422l1.016-5.813.11-.484.046-.203c.25-.063.485-.094.813-.094 1.031 0 1.437.344 1.437 1.219 0 1.14-.781 1.844-2.031 1.844h-.625l-.094.281C4.687-2.094 5.062-1.516 5.984.047 6.36.016 6.641 0 6.938 0c.25 0 .468.016.828.063zm0 0"/></svg><svg overflow="visible" x="8.437" y="17.538"><path d="M4.203-7.828a.735.735 0 01-.187-.14c-.063-.063-.11-.126-.22-.329-1.593 1.61-2.5 3.266-2.5 4.781v.797c0 1.516.907 3.172 2.5 4.781.11-.203.157-.265.22-.328.062-.062.125-.109.312-.203C2.875.063 2.281-1.344 2.281-2.719v-.797c0-1.39.594-2.78 2.047-4.25zm0 0"/></svg><svg overflow="visible" x="13.506" y="17.538"><path d="M3.703-5.516c-.453.047-.86.063-1.156.063.172-.984.297-1.578.531-2.25l-.25-.328a7.16 7.16 0 01-1.094.531l-.296 2.031c-.391.203-.704.328-1.063.407l-.047.406h1l-.64 3.25C.625-1.11.53-.813.53-.5c0 .297.266.61.5.61.422 0 .922-.282 1.86-1.032.218-.172.14-.125.437-.36l-.25-.437-.672.469c-.36.25-.484.313-.625.313-.093 0-.031.046-.031-.11 0-.297.156-1.234.516-3l.14-.61h1.266l.203-.89zm0 0"/></svg><svg overflow="visible" x="17.535" y="17.538"><path d="M3.766-2.719v-.797c0-1.515-.907-3.171-2.516-4.78-.11.202-.156.265-.203.327-.063.063-.125.11-.313.203 1.438 1.47 2.032 2.86 2.032 4.25v.797c0 1.375-.594 2.781-2.032 4.25.188.094.25.14.313.203.047.063.094.125.203.329C2.86.452 3.766-1.204 3.766-2.72zm0 0"/></svg><svg overflow="visible" x="25.928" y="17.538"><path d="M8.266-4.078a1.419 1.419 0 01-.047-.36c0-.109.015-.234.062-.484h-7.5c.063.25.063.375.063.484 0 .125 0 .235-.063.5h7.5zm0 2.625a1.332 1.332 0 01-.047-.36c0-.109.015-.234.062-.484h-7.5c.063.25.063.375.063.485 0 .125 0 .25-.063.5h7.5zm0 0"/></svg><svg overflow="visible" x="46.952" y="8.929"><path d="M5.125-.094v-.484l-.75-.047c-.656-.031-.64-.031-.64-.656v-7.172l-.313-.125c-.875.469-1.61.781-2.86 1.219l.125.718h.235l1.547-.687.031-.016c.063 0-.047-.015-.047.266v5.797c0 .625.016.625-.64.656L1-.578v.625L3.125 0l2 .047zm0 0"/></svg><path d="M39.54 14.55h20.804" fill="none" stroke-width=".717" stroke="#000" stroke-miterlimit="10"/><svg overflow="visible" x="39.54" y="25.501"><path d="M6.281-5.922a1.98 1.98 0 00-.562-.11c-.782 0-1.922.954-3.516 3.048l.235.093.203-.796c.078-.266.187-.75.265-1.016l.078-.313c.063-.203.094-.343.094-.5.016-.25-.203-.5-.375-.5-.25 0-.828.282-1.75.907l-.375.28.14.5.579-.359c.344-.218.375-.234.484-.234.125 0 .047-.031.047.11-.031.718-.656 3.156-1.219 4.75l.235.187.937-.25.39-1.719c.126-.515.407-.906.657-1.125C3.468-.844 3.953.11 4.25.11c.156 0 .531-.187 1.094-.562l.625-.422-.188-.469-.687.375c-.188.094-.14.078-.25.078-.125 0-.094-.03-.203-.234-.391-.766-.579-1.313-.97-2.734l.126-.125c.765-.72 1.234-.985 1.828-.985.11 0 .234.016.516.094l.296-.984zm0 0"/></svg><g><svg overflow="visible" x="46.151" y="25.501"><path d="M4.203-7.828a.735.735 0 01-.187-.14c-.063-.063-.11-.126-.22-.329-1.593 1.61-2.5 3.266-2.5 4.781v.797c0 1.516.907 3.172 2.5 4.781.11-.203.157-.265.22-.328.062-.062.125-.109.312-.203C2.875.063 2.281-1.344 2.281-2.719v-.797c0-1.39.594-2.78 2.047-4.25zm0 0"/></svg><svg overflow="visible" x="51.22" y="25.501"><path d="M3.703-5.516c-.453.047-.86.063-1.156.063.172-.984.297-1.578.531-2.25l-.25-.328a7.16 7.16 0 01-1.094.531l-.296 2.031c-.391.203-.704.328-1.063.407l-.047.406h1l-.64 3.25C.625-1.11.53-.813.53-.5c0 .297.266.61.5.61.422 0 .922-.282 1.86-1.032.218-.172.14-.125.437-.36l-.25-.437-.672.469c-.36.25-.484.313-.625.313-.093 0-.031.046-.031-.11 0-.297.156-1.234.516-3l.14-.61h1.266l.203-.89zm0 0"/></svg></g><g><svg overflow="visible" x="55.261" y="25.501"><path d="M3.766-2.719v-.797c0-1.515-.907-3.171-2.516-4.78-.11.202-.156.265-.203.327-.063.063-.125.11-.313.203 1.438 1.47 2.032 2.86 2.032 4.25v.797c0 1.375-.594 2.781-2.032 4.25.188.094.25.14.313.203.047.063.094.125.203.329C2.86.452 3.766-1.204 3.766-2.72zm0 0"/></svg></g></svg>