<svg xmlns="http://www.w3.org/2000/svg" xmlns:xlink="http://www.w3.org/1999/xlink" width="81px" height="37px" viewBox="0 0 61 28"><svg overflow="visible" x=".092" y="16.689"><path d="M7.516-6.734c0 .406-.125 1.125-.594 1.593-.313.313-.797.657-1.875.657h-1.11l.735-2.985c.078-.281-.078-.281.14-.312.11-.016.5-.016.735-.016.844 0 1.969-.125 1.969 1.063zM9.219-1.25c0-.14-.203-.047-.203-.047l-.141-.219c-.094 0-.328.22-.36.297-.296.89-.609.953-.874.953-.391 0-.297-.125-.297-.593 0-.375.078-.985.125-1.36.031-.172.047-.406.047-.562 0-.922-.985-1.422-1.313-1.547v.266C7.406-4.329 9.031-5.298 9.031-6.5c0-1.031-1.281-1.922-2.844-1.922H2.781c-.234 0-.547.125-.547.36 0 .14.313.265.532.265l.14-.031s.125.031.328.062c.204.016.11-.093.11.063 0 .047-.016.078-.047.219L1.703-1.063c-.125.47.047.422-.89.422C.593-.64.28-.5.28-.266c0 .141.5.235.5.235L.656 0l1.5-.031L3.687 0c.094 0 .422-.125.422-.375 0-.125-.296-.266-.53-.266C3.14-.64 3-.5 3-.719c0-.062.031-.125.031-.203l.766-3.031h1.265c1.079 0 1.094.531 1.094.953 0 .172-.093.547-.172.828-.078.328-.187.766-.187 1.016C5.797.125 7.437.266 7.594.266c1.015 0 1.625-1.344 1.625-1.516zm0 0"/></svg><svg overflow="visible" x="9.453" y="16.689"><path d="M4.156 2.719c0-.047-.078-.172-.11-.203-1.234-.922-2-3.22-2-5.141v-1c0-1.906.767-4.203 2-5.14a.457.457 0 00.11-.188c0-.063-.25-.25-.312-.25a1.01 1.01 0 00-.203.062C2.312-8.156 1-5.67 1-3.625v1C1-.578 2.313 1.906 3.64 2.906c.016.016.188.063.204.063.062 0 .312-.203.312-.25zm0 0"/></svg><svg overflow="visible" x="14.103" y="16.689"><path d="M4.14-5.156c0-.125-.312-.266-.53-.266H2.78c.39-1.562.453-1.797.453-1.875 0-.203-.328-.453-.53-.453-.032 0-.579.14-.688.563l-.422 1.765H.64c-.25 0-.563.14-.563.36 0 .156.297.28.531.28h.813C.594-1.515.547-1.311.547-1.093c0 .64.656 1.219 1.312 1.219 1.22 0 2.079-1.875 2.079-1.969 0-.11-.282-.25-.329-.25-.109 0-.328.172-.375.297C2.72-.547 2.281-.39 1.875-.39c-.25 0-.172-.03-.172-.421 0-.282.016-.375.063-.579l.859-3.39h.953c.25 0 .563-.125.563-.375zm0 0"/></svg><svg overflow="visible" x="18.419" y="16.689"><path d="M3.64-2.625v-1c0-2.047-1.328-4.531-2.64-5.516a.774.774 0 00-.203-.062c-.063 0-.313.187-.313.25 0 .031.079.172.094.187 1.25.938 2.016 3.235 2.016 5.141v1c0 1.922-.766 4.219-2.016 5.14-.015.032-.094.157-.094.204 0 .047.25.25.313.25A.774.774 0 001 2.906c1.313-1 2.64-3.484 2.64-5.531zm0 0"/></svg><svg overflow="visible" x="26.381" y="16.689"><path d="M8.828-4.281c0-.125-.312-.375-.437-.375H.906c-.125 0-.437.25-.437.375 0 .14.312.375.437.375h7.485c.125 0 .437-.235.437-.375zm0 2.328c0-.14-.312-.375-.437-.375H.906c-.125 0-.437.234-.437.375 0 .125.312.36.437.36h7.485c.125 0 .437-.235.437-.36zm0 0"/></svg><svg overflow="visible" x="47.472" y="8.595"><path d="M5.203-.125v-.516h-.578c-1.078 0-.922 0-.922-.437v-6.703c0-.282-.187-.438-.578-.438-.766.797-1.672.766-2.266.766v.625c.438 0 1.282-.031 1.563-.172v5.922c0 .437.172.437-.906.437H.937v.672C1.547-.03 2.595-.03 3.079-.03c.469 0 1.516 0 2.125.062zm0 0"/></svg><path d="M40.21 13.7h20.5" fill="none" stroke-width=".478" stroke="#000" stroke-miterlimit="10"/><g><svg overflow="visible" x="40.209" y="24.891"><path d="M6.719-1.844c0-.11-.297-.25-.328-.25-.125 0-.344.188-.375.344-.235.828-.297 1.36-.844 1.36-.25 0-.188-.032-.188-.454 0-.172.047-.453.094-.656.031-.11.063-.266.063-.406 0-1.125-1.844-1.328-2.516-1.36l.14.235c.391-.219.766-.547 1.094-.813.547-.469.766-.719.938-.797.078-.203.047-.062.047 0 0 .141.281.547.656.547s.828-.468.828-.765c0-.11-.234-.563-.656-.563-.734 0-1.578.64-2.11 1.078-.812.703-.953.844-1.14.89l.187-.702c.063-.313.22-.875.22-.938 0-.203-.345-.453-.548-.453-.031 0-.578.125-.672.563L.5-.594c-.047.156-.047.188-.047.266 0 .219.375.453.547.453.36 0 .625-.406.719-.797.125-.422.047-.203.531-2.062.844.015 1.688.093 1.688.875 0 .078 0 .14-.032.25a1.923 1.923 0 00-.062.421c0 .704.687 1.313 1.312 1.313.375 0 .813-.25 1.063-.656.297-.5.437-1.219.437-1.219zm0 0"/></svg><svg overflow="visible" x="47.095" y="24.891"><path d="M4.156 2.719c0-.047-.078-.172-.11-.203-1.234-.922-2-3.22-2-5.141v-1c0-1.906.767-4.203 2-5.14a.457.457 0 00.11-.188c0-.063-.25-.25-.312-.25a1.01 1.01 0 00-.203.062C2.312-8.156 1-5.67 1-3.625v1C1-.578 2.313 1.906 3.64 2.906c.016.016.188.063.204.063.062 0 .312-.203.312-.25zm0 0"/></svg><svg overflow="visible" x="51.746" y="24.891"><path d="M4.14-5.156c0-.125-.312-.266-.53-.266H2.78c.39-1.562.453-1.797.453-1.875 0-.203-.328-.453-.53-.453-.032 0-.579.14-.688.563l-.422 1.765H.64c-.25 0-.563.14-.563.36 0 .156.297.28.531.28h.813C.594-1.515.547-1.311.547-1.093c0 .64.656 1.219 1.312 1.219 1.22 0 2.079-1.875 2.079-1.969 0-.11-.282-.25-.329-.25-.109 0-.328.172-.375.297C2.72-.547 2.281-.39 1.875-.39c-.25 0-.172-.03-.172-.421 0-.282.016-.375.063-.579l.859-3.39h.953c.25 0 .563-.125.563-.375zm0 0"/></svg><svg overflow="visible" x="56.062" y="24.891"><path d="M3.64-2.625v-1c0-2.047-1.328-4.531-2.64-5.516a.774.774 0 00-.203-.062c-.063 0-.313.187-.313.25 0 .031.079.172.094.187 1.25.938 2.016 3.235 2.016 5.141v1c0 1.922-.766 4.219-2.016 5.14-.015.032-.094.157-.094.204 0 .047.25.25.313.25A.774.774 0 001 2.906c1.313-1 2.64-3.484 2.64-5.531zm0 0"/></svg></g></svg>