<svg xmlns="http://www.w3.org/2000/svg" xmlns:xlink="http://www.w3.org/1999/xlink" width="476" height="44" viewBox="0 0 357 33"><svg overflow="visible" x="-.102" y="18.701"><path d="M7.422-13.094c-.25-.14-.672-.281-.969-.281-.328 0-1.016.313-1.219.531-.406.453-.687.766-1.093 1.281-.141.188-.235.532-.313.813-.375 1.297-.375 5.078-.375 7.625 0 2.61 0 6.813-.172 7.797-.187 1-.406 1.297-1.031 1.281-.297-.016-.172-.25-.203-.906H.937a5.986 5.986 0 01-.14 1.766c.297.187.734.328 1.047.328.312 0 1-.313 1.187-.547.406-.453.703-.75 1.11-1.282.14-.171.234-.515.312-.812.375-1.281.375-5.063.375-7.625 0-2.594 0-6.813.188-7.781.171-1.016.39-1.313 1.03-1.281.282 0 .141.25.188.906h1.11c-.047-.797.031-1.36.125-1.766zm0 0"/></svg><svg overflow="visible" x="8.183" y="7.639"><path d="M4.203-4.406l-.187-.188-.344.297c-.094.094-.078.094-.219.094-.328 0-.812-.063-1.281-.188-.25-.062-.516-.14-.781-.14-.157 0-.344.031-.704.125L.313-3.094h.47l.296-.531c.078-.016.172-.031.297-.031s.234.015.422.047c.328.062.578.093.781.093.36 0 .594-.062.906-.203l-.109-.234L-.094-.36l.188.515c.453-.344.61-.39.953-.39.234 0 .516.047 1 .156.594.125.89.172 1.14.172.126 0 .204-.016.61-.11.125-.656.203-.953.344-1.5h-.5l-.266.657c-.063.156 0 .093-.203.093-.219 0-.438-.062-.656-.093a5.038 5.038 0 00-.829-.11c-.312 0-.562.047-.921.188l.109.219L4.188-3.97l.062-.39zm0 0"/></svg><svg overflow="visible" x="5.565" y="26.865"><path d="M4.719-3.375c0-1.938-.782-2.984-2.094-2.984C1.125-6.36.219-5.141.219-3c0 1.031.234 2.031.578 2.453.328.438.984.719 1.578.719 1.469 0 2.344-1.281 2.344-3.547zm-1.125.453c0 1.875-.203 2.531-1.078 2.531-.938 0-1.188-.765-1.188-2.921 0-1.876.203-2.47 1.125-2.47.938 0 1.14.735 1.14 2.86zm0 0"/></svg><svg overflow="visible" x="15.133" y="15.975"><path d="M9.219-13.766v-.843H6.953L4.875 5h.281L3.375-2.797H1.297v.985h.812L4.375 8.03c.266-.047.422-.062.578-.062.156 0 .328.015.61.062l2.296-21.656h1.36zm0 0"/></svg><path d="M23.86 1.988h103.652" fill="none" stroke-width=".717" stroke="#000" stroke-miterlimit="10"/><svg overflow="visible" x="23.86" y="18.701"><path d="M4.563-8.781l-.188-.14c-.063-.063-.11-.126-.219-.329-1.781 1.781-2.812 3.719-2.812 5.563v1.124c0 1.86 1.031 3.797 2.812 5.579.11-.204.157-.266.219-.329.063-.062.125-.109.313-.203C3.046.844 2.374-.844 2.374-2.562v-1.126c0-1.703.672-3.39 2.313-5.03zm0 0"/></svg><svg overflow="visible" x="29.312" y="18.701"><path d="M5.875-8.86l-.219-.187c-.75.375-1.078.438-2.062.531l-.094.5h.75c.281 0 .25-.046.25.157 0 .109 0 .203-.016.296L4.188-5.89a3.109 3.109 0 00-.875-.14c-.829 0-2.063.906-2.61 1.937-.375.703-.64 1.938-.64 2.938C.063-.375.374.125.734.125c.313 0 .86-.234 1.266-.563.64-.515 1.031-.984 1.844-2.187l-.25-.094-.266 1.078c-.14.532-.203.907-.203 1.22 0 .25.25.546.453.546.219 0 .594-.203 1-.5l1.047-.766-.266-.468-.656.468c-.172.125-.25.172-.36.172-.093 0-.046.031-.046-.14 0-.094.031-.204.11-.547l1.515-7.157zM4.031-5.03l-.14.703A5.233 5.233 0 012.375-1.61c-.422.39-.781.64-1.016.64-.187 0-.171-.031-.171-.328 0-1.516.515-3.281 1.109-3.734.156-.125.281-.14.61-.14.53 0 .765.03 1.109.218zm0 0"/></svg><svg overflow="visible" x="35.421" y="18.701"><path d="M5.875-5.875c-.14-.078-.344-.156-.453-.156-.469 0-1.063.468-1.797 1.578l-.453.656.25.094-.078-.578c-.14-1.188-.594-1.75-1.297-1.75-.313 0-.688.14-.797.297L.484-4.61l.407.25c.437-.485.578-.61.812-.61.39 0 .516.36.719 1.532l.125.718-.438.656C1.594-1.25 1.297-.905.953-.905c-.172 0-.172.078-.203.015l-.188-.468-.453.062c0 .36-.03.516-.093.89-.032.141-.047.173-.063.329.219.125.531.203.672.203.39 0 .953-.375 1.328-.938l.906-1.406-.234-.094.125.829c.172 1.015.578 1.609 1 1.609.266 0 .75-.234 1.125-.578l.64-.578-.218-.469c-.578.453-.766.61-.953.61-.188 0-.25-.094-.453-.5.015.046-.11-.407-.172-.75L3.5-3.313l.39-.532c.563-.765.782-1.015 1.157-1.015.187 0 .187-.032.312.312l.36-.11.203-1.171zm0 0"/></svg><svg overflow="visible" x="41.542" y="18.701"><path d="M4.86-8.031c-.11.015-.204.031-.313.031-.094 0-.203-.016-.39-.063L.75 1.86c.297-.093.406-.109.5-.109.11 0 .203.016.39.063l3.407-9.891zm0 0"/></svg><svg overflow="visible" x="47.352" y="18.701"><path d="M5.875-8.86l-.219-.187c-.75.375-1.078.438-2.062.531l-.094.5h.75c.281 0 .25-.046.25.157 0 .109 0 .203-.016.296L4.188-5.89a3.109 3.109 0 00-.875-.14c-.829 0-2.063.906-2.61 1.937-.375.703-.64 1.938-.64 2.938C.063-.375.374.125.734.125c.313 0 .86-.234 1.266-.563.64-.515 1.031-.984 1.844-2.187l-.25-.094-.266 1.078c-.14.532-.203.907-.203 1.22 0 .25.25.546.453.546.219 0 .594-.203 1-.5l1.047-.766-.266-.468-.656.468c-.172.125-.25.172-.36.172-.093 0-.046.031-.046-.14 0-.094.031-.204.11-.547l1.515-7.157zM4.031-5.03l-.14.703A5.233 5.233 0 012.375-1.61c-.422.39-.781.64-1.016.64-.187 0-.171-.031-.171-.328 0-1.516.515-3.281 1.109-3.734.156-.125.281-.14.61-.14.53 0 .765.03 1.109.218zm0 0"/></svg><svg overflow="visible" x="53.461" y="18.701"><path d="M3.703-5.516c-.453.047-.86.063-1.156.063.172-.984.297-1.578.531-2.25l-.25-.328a7.16 7.16 0 01-1.094.531l-.296 2.031c-.391.203-.704.328-1.063.407l-.047.406h1l-.64 3.25C.625-1.11.53-.813.53-.5c0 .297.266.61.5.61.422 0 .922-.282 1.86-1.032.218-.172.14-.125.437-.36l-.25-.437-.672.469c-.36.25-.484.313-.625.313-.093 0-.031.046-.031-.11 0-.297.156-1.234.516-3l.14-.61h1.266l.203-.89zm0 0"/></svg><svg overflow="visible" x="57.502" y="18.701"><path d="M4.094-2.563v-1.124c0-1.844-1.016-3.782-2.813-5.563-.11.203-.156.266-.218.328-.063.047-.125.094-.313.203 1.64 1.64 2.313 3.328 2.313 5.031v1.126C3.063-.845 2.39.844.75 2.484c.188.094.25.141.313.204.062.062.109.124.218.328 1.797-1.782 2.813-3.72 2.813-5.579zm0 0"/></svg><svg overflow="visible" x="62.954" y="11.86"><path d="M4.75-.11c-.016-.187-.016-.265-.016-.39s0-.203.032-.547l-3.141.094 1.5-1.469c.938-.906 1.266-1.5 1.266-2.156 0-1.016-.891-1.781-2.125-1.781-.688 0-1.282.218-1.782.687L.297-4.266h.547l.172-.546c.156-.516.359-.594 1-.594.828 0 1.203.343 1.203 1.093 0 .657-.36 1.22-1.453 2.282L.078-.391v.422L2.391 0l2.375.031zm0 0"/></svg><svg overflow="visible" x="71.107" y="18.702"><path d="M8.266-2.766a1.332 1.332 0 01-.047-.359c0-.11.015-.234.062-.484h-3.25v-3.266c-.25.063-.375.078-.484.078-.125 0-.25-.016-.5-.078v3.266H.78c.063.25.063.375.063.484 0 .125 0 .25-.063.5h3.266V.641c.25-.063.375-.079.5-.079.11 0 .234.016.484.079v-3.266h3.25zm0 0"/></svg><svg overflow="visible" x="82.847" y="18.702"><path d="M4.563-8.781l-.188-.14c-.063-.063-.11-.126-.219-.329-1.781 1.781-2.812 3.719-2.812 5.563v1.124c0 1.86 1.031 3.797 2.812 5.579.11-.204.157-.266.219-.329.063-.062.125-.109.313-.203C3.046.844 2.374-.844 2.374-2.562v-1.126c0-1.703.672-3.39 2.313-5.03zm0 0"/></svg><svg overflow="visible" x="88.299" y="18.702"><path d="M5.875-8.86l-.219-.187c-.75.375-1.078.438-2.062.531l-.094.5h.75c.281 0 .25-.046.25.157 0 .109 0 .203-.016.296L4.188-5.89a3.109 3.109 0 00-.875-.14c-.829 0-2.063.906-2.61 1.937-.375.703-.64 1.938-.64 2.938C.063-.375.374.125.734.125c.313 0 .86-.234 1.266-.563.64-.515 1.031-.984 1.844-2.187l-.25-.094-.266 1.078c-.14.532-.203.907-.203 1.22 0 .25.25.546.453.546.219 0 .594-.203 1-.5l1.047-.766-.266-.468-.656.468c-.172.125-.25.172-.36.172-.093 0-.046.031-.046-.14 0-.094.031-.204.11-.547l1.515-7.157zM4.031-5.03l-.14.703A5.233 5.233 0 012.375-1.61c-.422.39-.781.64-1.016.64-.187 0-.171-.031-.171-.328 0-1.516.515-3.281 1.109-3.734.156-.125.281-.14.61-.14.53 0 .765.03 1.109.218zm0 0"/></svg><svg overflow="visible" x="94.408" y="18.702"><path d="M5.953-5.875l-.203-.156c-.375.14-.64.203-1.016.234l-.453 1.703c-.14.563-.531 1.344-.922 1.938-.421.61-.89 1.094-1.156 1.094-.265 0-.11-.438-.094-.594l.172-2.328c.031-.36.047-.829.047-1.157 0-.53-.219-.89-.422-.89-.156 0-.422.125-1 .515L-.14-4.78l.266.437.734-.453c.063-.047.125-.11.204-.11.312 0 .125.485.109.673L.969-1.328l-.016.484c-.015.5.36.969.656.969.454 0 1.547-1.047 2.438-2.39l-.234-.094-.579 2.03c-.609 2.126-1.078 2.86-1.906 2.86-.422 0-.61-.187-.61-.61 0-.062.016-.155.032-.343l-.297-.11-.672.485c-.015.156-.015.219-.015.281 0 .516.578 1.063 1.125 1.063 1.265 0 2.703-1.61 3.406-3.828L6-5.828zm0 0"/></svg><svg overflow="visible" x="100.6" y="18.702"><path d="M4.86-8.031c-.11.015-.204.031-.313.031-.094 0-.203-.016-.39-.063L.75 1.86c.297-.093.406-.109.5-.109.11 0 .203.016.39.063l3.407-9.891zm0 0"/></svg><svg overflow="visible" x="106.411" y="18.702"><path d="M5.875-8.86l-.219-.187c-.75.375-1.078.438-2.062.531l-.094.5h.75c.281 0 .25-.046.25.157 0 .109 0 .203-.016.296L4.188-5.89a3.109 3.109 0 00-.875-.14c-.829 0-2.063.906-2.61 1.937-.375.703-.64 1.938-.64 2.938C.063-.375.374.125.734.125c.313 0 .86-.234 1.266-.563.64-.515 1.031-.984 1.844-2.187l-.25-.094-.266 1.078c-.14.532-.203.907-.203 1.22 0 .25.25.546.453.546.219 0 .594-.203 1-.5l1.047-.766-.266-.468-.656.468c-.172.125-.25.172-.36.172-.093 0-.046.031-.046-.14 0-.094.031-.204.11-.547l1.515-7.157zM4.031-5.03l-.14.703A5.233 5.233 0 012.375-1.61c-.422.39-.781.64-1.016.64-.187 0-.171-.031-.171-.328 0-1.516.515-3.281 1.109-3.734.156-.125.281-.14.61-.14.53 0 .765.03 1.109.218zm0 0"/></svg><svg overflow="visible" x="112.52" y="18.702"><path d="M3.703-5.516c-.453.047-.86.063-1.156.063.172-.984.297-1.578.531-2.25l-.25-.328a7.16 7.16 0 01-1.094.531l-.296 2.031c-.391.203-.704.328-1.063.407l-.047.406h1l-.64 3.25C.625-1.11.53-.813.53-.5c0 .297.266.61.5.61.422 0 .922-.282 1.86-1.032.218-.172.14-.125.437-.36l-.25-.437-.672.469c-.36.25-.484.313-.625.313-.093 0-.031.046-.031-.11 0-.297.156-1.234.516-3l.14-.61h1.266l.203-.89zm0 0"/></svg><svg overflow="visible" x="116.561" y="18.702"><path d="M4.094-2.563v-1.124c0-1.844-1.016-3.782-2.813-5.563-.11.203-.156.266-.218.328-.063.047-.125.094-.313.203 1.64 1.64 2.313 3.328 2.313 5.031v1.126C3.063-.845 2.39.844.75 2.484c.188.094.25.141.313.204.062.062.109.124.218.328 1.797-1.782 2.813-3.72 2.813-5.579zm0 0"/></svg><svg overflow="visible" x="122.015" y="11.86"><path d="M4.75-.11c-.016-.187-.016-.265-.016-.39s0-.203.032-.547l-3.141.094 1.5-1.469c.938-.906 1.266-1.5 1.266-2.156 0-1.016-.891-1.781-2.125-1.781-.688 0-1.282.218-1.782.687L.297-4.266h.547l.172-.546c.156-.516.359-.594 1-.594.828 0 1.203.343 1.203 1.093 0 .657-.36 1.22-1.453 2.282L.078-.391v.422L2.391 0l2.375.031zm0 0"/></svg><svg overflow="visible" x="127.512" y="18.702"><path d="M5.875-8.86l-.219-.187c-.75.375-1.078.438-2.062.531l-.094.5h.75c.281 0 .25-.046.25.157 0 .109 0 .203-.016.296L4.188-5.89a3.109 3.109 0 00-.875-.14c-.829 0-2.063.906-2.61 1.937-.375.703-.64 1.938-.64 2.938C.063-.375.374.125.734.125c.313 0 .86-.234 1.266-.563.64-.515 1.031-.984 1.844-2.187l-.25-.094-.266 1.078c-.14.532-.203.907-.203 1.22 0 .25.25.546.453.546.219 0 .594-.203 1-.5l1.047-.766-.266-.468-.656.468c-.172.125-.25.172-.36.172-.093 0-.046.031-.046-.14 0-.094.031-.204.11-.547l1.515-7.157zM4.031-5.03l-.14.703A5.233 5.233 0 012.375-1.61c-.422.39-.781.64-1.016.64-.187 0-.171-.031-.171-.328 0-1.516.515-3.281 1.109-3.734.156-.125.281-.14.61-.14.53 0 .765.03 1.109.218zm0 0"/></svg><svg overflow="visible" x="133.609" y="18.702"><path d="M3.703-5.516c-.453.047-.86.063-1.156.063.172-.984.297-1.578.531-2.25l-.25-.328a7.16 7.16 0 01-1.094.531l-.296 2.031c-.391.203-.704.328-1.063.407l-.047.406h1l-.64 3.25C.625-1.11.53-.813.53-.5c0 .297.266.61.5.61.422 0 .922-.282 1.86-1.032.218-.172.14-.125.437-.36l-.25-.437-.672.469c-.36.25-.484.313-.625.313-.093 0-.031.046-.031-.11 0-.297.156-1.234.516-3l.14-.61h1.266l.203-.89zm0 0"/></svg><svg overflow="visible" x="140.974" y="18.702"><path d="M8.266-1.453a1.332 1.332 0 01-.047-.36c0-.109.015-.234.062-.484h-7.5c.063.25.063.375.063.485 0 .125 0 .25-.063.5h7.5zm-.157-4c-.078 0-.156-.016-.234-.031-.063-.032-.047-.032-.281-.188C7.25-4.656 7-4.438 6.437-4.282c-.109.032-.203.048-.296.048-.5 0-.875-.297-1.297-.594-.563-.39-1.297-.781-1.938-.781-.14 0-.297.015-.453.062-.75.203-1.281.938-1.672 2.125.266 0 .344.016.422.047.078.016.047.016.281.172.329-1 .61-1.235 1.172-1.39a.885.885 0 01.281-.048c.5 0 .86.297 1.297.594.563.39 1.297.781 1.954.781.14 0 .296-.015.453-.062.734-.203 1.265-.922 1.656-2.125zm0 0"/></svg><svg overflow="visible" x="154.92" y="10.093"><path d="M5.063-5.875l-.204-.203-.375.36c-.125.124-.14.14-.296.14-.407 0-1.032-.094-1.61-.25-.312-.094-.625-.203-.953-.203-.203 0-.438.047-.844.156L.328-4.187h.516l.36-.704c.124-.03.234-.046.39-.046s.297.015.531.062c.406.078.719.125.969.125.437 0 .812-.11 1.203-.313l-.203-.203L-.172-.422l.203.594c.5-.406.735-.484 1.157-.484.296 0 .625.046 1.25.203.718.171 1.093.234 1.406.234.156 0 .25-.016.703-.14.156-.844.266-1.25.422-1.938h-.516l-.312.844c-.094.218-.079.171-.329.171-.265 0-.53-.078-.796-.14-.391-.078-.797-.14-1.032-.14-.375 0-.703.077-1.14.25l.094.234 4.078-4.61.093-.484zm0 0"/></svg><path d="M154.586 15.715h5.976" fill="none" stroke-width=".717" stroke="#000" stroke-miterlimit="10"/><svg overflow="visible" x="154.585" y="26.665"><path d="M5.719-.094c-.016-.25-.016-.375-.016-.547 0-.14 0-.265.031-.671l-4.28.125.093.234 2.187-2.313C4.891-4.5 5.281-5.25 5.281-6.14 5.281-7.516 4.22-8.5 2.703-8.5c-.86 0-1.562.281-2.172.906L.312-5.766h.594l.188-.687c.203-.688.5-.86 1.297-.86 1.03 0 1.546.516 1.546 1.532 0 .89-.468 1.687-1.828 3.11L.047-.454v.5L2.859 0l2.875.047zm0 0"/></svg><svg overflow="visible" x="164.416" y="18.702"><path d="M2.516-3.125c0-.422-.407-.844-.844-.844-.422 0-.86.422-.86.844 0 .438.438.86.86.86.437 0 .844-.422.844-.86zm0 0"/></svg><svg overflow="visible" x="170.42" y="15.146"><path d="M5.078-14.781H1.562V0h1.235v-14.031h2.469c-.079-.203-.094-.281-.094-.375 0-.078.016-.172.094-.375zm0 0"/></svg><svg overflow="visible" x="170.42" y="20.555"><path d="M2.672-9.938h-1.11V0h1.235v-9.938zm0 0"/></svg><svg overflow="visible" x="170.42" y="30.793"><path d="M5.219-.125a.648.648 0 01-.047-.25c0-.078.016-.156.094-.36h-2.47V-14.78H1.564V0h3.703zm0 0"/></svg><svg overflow="visible" x="176.649" y="18.702"><path d="M4.938-8.875c-.204-.094-.547-.156-.844-.156-.125 0-.422.078-.578.156-.125.063-1.204.828-1.485 1.125-.265.25-.437.703-.578 1.39l-.156.876c-.36.171-.61.265-1.016.421l-.125.485h.985l-.094.531C.687-1.703.25.516-.016 1.343c-.218.704-.421.938-.859.938-.266 0-.313-.047-.578-.375l-.328.11c-.078.375-.203.859-.328 1.109.171.11.453.172.593.172.485 0 1.235-.406 1.688-.969.734-.86 1.016-1.781 1.906-5.984.063-.297.156-.656.203-.922h1.25c.063-.36.156-.64.219-.813l-.11-.234-.156.063c-.28.078-.406.078-1 .078h-.03l.218-1.204c.203-1.03.406-1.359.953-1.359.36 0 .578.14.797.5l.281-.11.313-.905.078-.235zm0 0"/></svg><svg overflow="visible" x="183.914" y="15.074"><path d="M7.063-14.328l-.188-.14c-.063-.063-.11-.126-.219-.329C3.47-11.609 1.563-7.344 1.563-2.516V0h1.234v-2.516c0-4.625 1.344-8.687 4.39-11.75zm0 0"/></svg><svg overflow="visible" x="183.914" y="18.08"><path d="M2.797-.125V-5H1.562v5h1.235zm0 0"/></svg><svg overflow="visible" x="183.914" y="30.793"><path d="M7.063-.563C4.14-3.5 2.796-7.546 2.796-12.187v-2.516H1.562v2.515c0 4.829 1.907 9.094 5.094 12.282.11-.203.157-.266.219-.328.063-.047.125-.094.313-.203zm0 0"/></svg><svg overflow="visible" x="193.561" y="10.093"><path d="M5.063-5.875l-.204-.203-.375.36c-.125.124-.14.14-.296.14-.407 0-1.032-.094-1.61-.25-.312-.094-.625-.203-.953-.203-.203 0-.438.047-.844.156L.328-4.187h.516l.36-.704c.124-.03.234-.046.39-.046s.297.015.531.062c.406.078.719.125.969.125.437 0 .812-.11 1.203-.313l-.203-.203L-.172-.422l.203.594c.5-.406.735-.484 1.157-.484.296 0 .625.046 1.25.203.718.171 1.093.234 1.406.234.156 0 .25-.016.703-.14.156-.844.266-1.25.422-1.938h-.516l-.312.844c-.094.218-.079.171-.329.171-.265 0-.53-.078-.796-.14-.391-.078-.797-.14-1.032-.14-.375 0-.703.077-1.14.25l.094.234 4.078-4.61.093-.484zm0 0"/></svg><path d="M193.227 15.715h5.976" fill="none" stroke-width=".717" stroke="#000" stroke-miterlimit="10"/><svg overflow="visible" x="193.227" y="26.665"><path d="M5.719-.094c-.016-.25-.016-.375-.016-.547 0-.14 0-.265.031-.671l-4.28.125.093.234 2.187-2.313C4.891-4.5 5.281-5.25 5.281-6.14 5.281-7.516 4.22-8.5 2.703-8.5c-.86 0-1.562.281-2.172.906L.312-5.766h.594l.188-.687c.203-.688.5-.86 1.297-.86 1.03 0 1.546.516 1.546 1.532 0 .89-.468 1.687-1.828 3.11L.047-.454v.5L2.859 0l2.875.047zm0 0"/></svg><svg overflow="visible" x="203.057" y="18.702"><path d="M2.516-3.125c0-.422-.407-.844-.844-.844-.422 0-.86.422-.86.844 0 .438.438.86.86.86.437 0 .844-.422.844-.86zm0 0"/></svg><svg overflow="visible" x="210.257" y="10.093"><path d="M8.266-2.766a1.332 1.332 0 01-.047-.359c0-.11.015-.234.062-.484h-7.5c.063.25.063.375.063.484 0 .125 0 .25-.063.5h7.5zm0 0"/></svg><svg overflow="visible" x="219.343" y="10.093"><path d="M5.125-.094v-.484l-.75-.047c-.656-.031-.64-.031-.64-.656v-7.172l-.313-.125c-.875.469-1.61.781-2.86 1.219l.125.718h.235l1.547-.687.031-.016c.063 0-.047-.015-.047.266v5.797c0 .625.016.625-.64.656L1-.578v.625L3.125 0l2 .047zm0 0"/></svg><path d="M210.258 15.715h15.062" fill="none" stroke-width=".717" stroke="#000" stroke-miterlimit="10"/><svg overflow="visible" x="210.597" y="28.744"><path d="M8.89-9.453v-.844H7.329L4.5 1.875h.266L3.328-2.359H1.297v.968h.86l1.75 5.125c.265-.046.421-.062.593-.062.156 0 .313.015.578.062L8.11-9.328h.782zm0 0"/></svg><path d="M219.004 19.059h5.976" fill="none" stroke-width=".717" stroke="#000" stroke-miterlimit="10"/><svg overflow="visible" x="219.002" y="30.651"><path d="M5.656-2.813c0-.562-.281-1.171-.703-1.468-.297-.219-.672-.344-.953-.407.734-.562 1.125-1.203 1.125-1.906 0-1.062-1.016-1.906-2.344-1.906-.812 0-1.453.266-2.047.86L.328-5.954h.64l.266-.797c.125-.406.75-.688 1.375-.688.766 0 1.266.5 1.266 1.25 0 .907-.563 1.532-1.406 1.532-.11 0-.469.187-.469.187l-.25-.093-.14.671.202.188C2.297-3.938 2.516-4 2.845-4c1 0 1.422.516 1.422 1.594 0 1.219-.579 1.89-1.704 1.89-.546 0-.937-.14-1.296-.468C.984-1.25.859-1.438.578-2.25l-.562.219C.28-1.234.375-.797.469-.11c.765.25 1.281.343 1.734.343.953 0 2.14-.562 2.813-1.375.406-.484.64-1.109.64-1.671zm0 0"/></svg><svg overflow="visible" x="229.173" y="18.702"><path d="M8.266-2.766a1.332 1.332 0 01-.047-.359c0-.11.015-.234.062-.484h-3.25v-3.266c-.25.063-.375.078-.484.078-.125 0-.25-.016-.5-.078v3.266H.78c.063.25.063.375.063.484 0 .125 0 .25-.063.5h3.266V.641c.25-.063.375-.079.5-.079.11 0 .234.016.484.079v-3.266h3.25zm0 0"/></svg><svg overflow="visible" x="242.446" y="10.093"><path d="M5.063-5.875l-.204-.203-.375.36c-.125.124-.14.14-.296.14-.407 0-1.032-.094-1.61-.25-.312-.094-.625-.203-.953-.203-.203 0-.438.047-.844.156L.328-4.187h.516l.36-.704c.124-.03.234-.046.39-.046s.297.015.531.062c.406.078.719.125.969.125.437 0 .812-.11 1.203-.313l-.203-.203L-.172-.422l.203.594c.5-.406.735-.484 1.157-.484.296 0 .625.046 1.25.203.718.171 1.093.234 1.406.234.156 0 .25-.016.703-.14.156-.844.266-1.25.422-1.938h-.516l-.312.844c-.094.218-.079.171-.329.171-.265 0-.53-.078-.796-.14-.391-.078-.797-.14-1.032-.14-.375 0-.703.077-1.14.25l.094.234 4.078-4.61.093-.484zm0 0"/></svg><path d="M242.11 15.715h5.98" fill="none" stroke-width=".717" stroke="#000" stroke-miterlimit="10"/><svg overflow="visible" x="242.111" y="26.665"><path d="M5.719-.094c-.016-.25-.016-.375-.016-.547 0-.14 0-.265.031-.671l-4.28.125.093.234 2.187-2.313C4.891-4.5 5.281-5.25 5.281-6.14 5.281-7.516 4.22-8.5 2.703-8.5c-.86 0-1.562.281-2.172.906L.312-5.766h.594l.188-.687c.203-.688.5-.86 1.297-.86 1.03 0 1.546.516 1.546 1.532 0 .89-.468 1.687-1.828 3.11L.047-.454v.5L2.859 0l2.875.047zm0 0"/></svg><svg overflow="visible" x="249.284" y="15.074"><path d="M6.531-.125v-2.39c0-4.829-1.875-9.094-5.078-12.282-.11.203-.156.266-.219.328-.062.047-.125.094-.312.203 3.062 3.063 4.39 7.125 4.39 11.75V0h1.22zm0 0"/></svg><svg overflow="visible" x="249.284" y="18.08"><path d="M6.531-.125V-5H5.313v5H6.53zm0 0"/></svg><svg overflow="visible" x="249.284" y="30.793"><path d="M6.531-12.188v-2.515H5.313v2.515C5.313-7.546 3.984-3.5.921-.438c.187.11.25.157.312.204.063.062.11.125.22.328C4.655-3.094 6.53-7.36 6.53-12.187zm0 0"/></svg><svg overflow="visible" x="260.059" y="18.702"><path d="M8.266-2.766a1.332 1.332 0 01-.047-.359c0-.11.015-.234.062-.484h-3.25v-3.266c-.25.063-.375.078-.484.078-.125 0-.25-.016-.5-.078v3.266H.78c.063.25.063.375.063.484 0 .125 0 .25-.063.5h3.266V.641c.25-.063.375-.079.5-.079.11 0 .234.016.484.079v-3.266h3.25zm0 0"/></svg><svg overflow="visible" x="271.799" y="18.702"><path d="M4.938-8.875c-.204-.094-.547-.156-.844-.156-.125 0-.422.078-.578.156-.125.063-1.204.828-1.485 1.125-.265.25-.437.703-.578 1.39l-.156.876c-.36.171-.61.265-1.016.421l-.125.485h.985l-.094.531C.687-1.703.25.516-.016 1.343c-.218.704-.421.938-.859.938-.266 0-.313-.047-.578-.375l-.328.11c-.078.375-.203.859-.328 1.109.171.11.453.172.593.172.485 0 1.235-.406 1.688-.969.734-.86 1.016-1.781 1.906-5.984.063-.297.156-.656.203-.922h1.25c.063-.36.156-.64.219-.813l-.11-.234-.156.063c-.28.078-.406.078-1 .078h-.03l.218-1.204c.203-1.03.406-1.359.953-1.359.36 0 .578.14.797.5l.281-.11.313-.905.078-.235zm0 0"/></svg><svg overflow="visible" x="279.066" y="15.074"><path d="M7.063-14.328l-.188-.14c-.063-.063-.11-.126-.219-.329C3.47-11.609 1.563-7.344 1.563-2.516V0h1.234v-2.516c0-4.625 1.344-8.687 4.39-11.75zm0 0"/></svg><svg overflow="visible" x="279.066" y="18.08"><path d="M2.797-.125V-5H1.562v5h1.235zm0 0"/></svg><svg overflow="visible" x="279.066" y="30.793"><path d="M7.063-.563C4.14-3.5 2.796-7.546 2.796-12.187v-2.516H1.562v2.515c0 4.829 1.907 9.094 5.094 12.282.11-.203.157-.266.219-.328.063-.047.125-.094.313-.203zm0 0"/></svg><svg overflow="visible" x="288.714" y="10.093"><path d="M5.063-5.875l-.204-.203-.375.36c-.125.124-.14.14-.296.14-.407 0-1.032-.094-1.61-.25-.312-.094-.625-.203-.953-.203-.203 0-.438.047-.844.156L.328-4.187h.516l.36-.704c.124-.03.234-.046.39-.046s.297.015.531.062c.406.078.719.125.969.125.437 0 .812-.11 1.203-.313l-.203-.203L-.172-.422l.203.594c.5-.406.735-.484 1.157-.484.296 0 .625.046 1.25.203.718.171 1.093.234 1.406.234.156 0 .25-.016.703-.14.156-.844.266-1.25.422-1.938h-.516l-.312.844c-.094.218-.079.171-.329.171-.265 0-.53-.078-.796-.14-.391-.078-.797-.14-1.032-.14-.375 0-.703.077-1.14.25l.094.234 4.078-4.61.093-.484zm0 0"/></svg><path d="M288.379 15.715h5.976" fill="none" stroke-width=".717" stroke="#000" stroke-miterlimit="10"/><svg overflow="visible" x="288.38" y="26.665"><path d="M5.719-.094c-.016-.25-.016-.375-.016-.547 0-.14 0-.265.031-.671l-4.28.125.093.234 2.187-2.313C4.891-4.5 5.281-5.25 5.281-6.14 5.281-7.516 4.22-8.5 2.703-8.5c-.86 0-1.562.281-2.172.906L.312-5.766h.594l.188-.687c.203-.688.5-.86 1.297-.86 1.03 0 1.546.516 1.546 1.532 0 .89-.468 1.687-1.828 3.11L.047-.454v.5L2.859 0l2.875.047zm0 0"/></svg><svg overflow="visible" x="298.21" y="18.702"><path d="M2.516-3.125c0-.422-.407-.844-.844-.844-.422 0-.86.422-.86.844 0 .438.438.86.86.86.437 0 .844-.422.844-.86zm0 0"/></svg><svg overflow="visible" x="309.612" y="10.093"><path d="M5.125-.094v-.484l-.75-.047c-.656-.031-.64-.031-.64-.656v-7.172l-.313-.125c-.875.469-1.61.781-2.86 1.219l.125.718h.235l1.547-.687.031-.016c.063 0-.047-.015-.047.266v5.797c0 .625.016.625-.64.656L1-.578v.625L3.125 0l2 .047zm0 0"/></svg><path d="M305.41 15.715h14.383" fill="none" stroke-width=".717" stroke="#000" stroke-miterlimit="10"/><svg overflow="visible" x="305.41" y="28.744"><path d="M8.89-9.453v-.844H7.329L4.5 1.875h.266L3.328-2.359H1.297v.968h.86l1.75 5.125c.265-.046.421-.062.593-.062.156 0 .313.015.578.062L8.11-9.328h.782zm0 0"/></svg><path d="M313.813 19.059h5.98" fill="none" stroke-width=".717" stroke="#000" stroke-miterlimit="10"/><svg overflow="visible" x="313.814" y="30.651"><path d="M5.656-2.813c0-.562-.281-1.171-.703-1.468-.297-.219-.672-.344-.953-.407.734-.562 1.125-1.203 1.125-1.906 0-1.062-1.016-1.906-2.344-1.906-.812 0-1.453.266-2.047.86L.328-5.954h.64l.266-.797c.125-.406.75-.688 1.375-.688.766 0 1.266.5 1.266 1.25 0 .907-.563 1.532-1.406 1.532-.11 0-.469.187-.469.187l-.25-.093-.14.671.202.188C2.297-3.938 2.516-4 2.845-4c1 0 1.422.516 1.422 1.594 0 1.219-.579 1.89-1.704 1.89-.546 0-.937-.14-1.296-.468C.984-1.25.859-1.438.578-2.25l-.562.219C.28-1.234.375-.797.469-.11c.765.25 1.281.343 1.734.343.953 0 2.14-.562 2.813-1.375.406-.484.64-1.109.64-1.671zm0 0"/></svg><svg overflow="visible" x="323.644" y="18.702"><path d="M8.266-2.766a1.332 1.332 0 01-.047-.359c0-.11.015-.234.062-.484h-3.25v-3.266c-.25.063-.375.078-.484.078-.125 0-.25-.016-.5-.078v3.266H.78c.063.25.063.375.063.484 0 .125 0 .25-.063.5h3.266V.641c.25-.063.375-.079.5-.079.11 0 .234.016.484.079v-3.266h3.25zm0 0"/></svg><svg overflow="visible" x="336.917" y="10.093"><path d="M5.063-5.875l-.204-.203-.375.36c-.125.124-.14.14-.296.14-.407 0-1.032-.094-1.61-.25-.312-.094-.625-.203-.953-.203-.203 0-.438.047-.844.156L.328-4.187h.516l.36-.704c.124-.03.234-.046.39-.046s.297.015.531.062c.406.078.719.125.969.125.437 0 .812-.11 1.203-.313l-.203-.203L-.172-.422l.203.594c.5-.406.735-.484 1.157-.484.296 0 .625.046 1.25.203.718.171 1.093.234 1.406.234.156 0 .25-.016.703-.14.156-.844.266-1.25.422-1.938h-.516l-.312.844c-.094.218-.079.171-.329.171-.265 0-.53-.078-.796-.14-.391-.078-.797-.14-1.032-.14-.375 0-.703.077-1.14.25l.094.234 4.078-4.61.093-.484zm0 0"/></svg><path d="M336.582 15.715h5.977" fill="none" stroke-width=".717" stroke="#000" stroke-miterlimit="10"/><svg overflow="visible" x="336.582" y="26.665"><path d="M5.719-.094c-.016-.25-.016-.375-.016-.547 0-.14 0-.265.031-.671l-4.28.125.093.234 2.187-2.313C4.891-4.5 5.281-5.25 5.281-6.14 5.281-7.516 4.22-8.5 2.703-8.5c-.86 0-1.562.281-2.172.906L.312-5.766h.594l.188-.687c.203-.688.5-.86 1.297-.86 1.03 0 1.546.516 1.546 1.532 0 .89-.468 1.687-1.828 3.11L.047-.454v.5L2.859 0l2.875.047zm0 0"/></svg><svg overflow="visible" x="343.756" y="15.074"><path d="M6.531-.125v-2.39c0-4.829-1.875-9.094-5.078-12.282-.11.203-.156.266-.219.328-.062.047-.125.094-.312.203 3.062 3.063 4.39 7.125 4.39 11.75V0h1.22zm0 0"/></svg><g><svg overflow="visible" x="343.756" y="18.08"><path d="M6.531-.125V-5H5.313v5H6.53zm0 0"/></svg></g><g><svg overflow="visible" x="343.756" y="30.793"><path d="M6.531-12.188v-2.515H5.313v2.515C5.313-7.546 3.984-3.5.921-.438c.187.11.25.157.312.204.063.062.11.125.22.328C4.655-3.094 6.53-7.36 6.53-12.187zm0 0"/></svg></g><g><svg overflow="visible" x="351.873" y="15.146"><path d="M4.656-.125v-14.656H.953c.078.203.094.297.094.375 0 .094-.016.172-.094.375h2.469V0h1.234zm0 0"/></svg></g><g><svg overflow="visible" x="351.873" y="20.555"><path d="M4.656-.125v-9.813H3.422V0h1.234zm0 0"/></svg></g><g><svg overflow="visible" x="351.873" y="30.793"><path d="M4.656-.125v-14.656H3.422V-.734H.953c.078.203.094.28.094.359 0 .094-.016.172-.094.375h3.703zm0 0"/></svg></g></svg>