<svg xmlns="http://www.w3.org/2000/svg" xmlns:xlink="http://www.w3.org/1999/xlink" width="341px" height="72" viewBox="0 0 256 54"><svg overflow="visible" x="-.897" y="17.423"><path d="M6.719-9.516c-.219-.125-.594-.265-.875-.265-.282 0-.922.297-1.094.484-.36.406-.61.672-.984 1.14-.125.157-.204.47-.282.735-.343 1.188-.343 2.86-.343 4.297 0 1.484 0 3.656-.141 4.453-.156.89-.328 1.14-.89 1.125-.25-.015-.141-.203-.172-.797H.905c.047.719-.015 1.219-.11 1.578.282.172.673.297.954.297.266 0 .89-.281 1.078-.469.344-.406.61-.687.969-1.14.125-.172.203-.469.297-.734.328-1.204.328-2.86.328-4.313 0-1.484 0-3.64.14-4.438.172-.906.344-1.156.922-1.125.235.016.11.204.141.797h1.031a5.573 5.573 0 01.11-1.593zm0 0"/></svg><svg overflow="visible" x="6.683" y="9.959"><path d="M4.203-4.406l-.187-.188-.344.297c-.094.094-.078.094-.219.094-.328 0-.812-.063-1.281-.188-.25-.062-.516-.14-.781-.14-.157 0-.344.031-.704.125L.313-3.094h.47l.296-.531c.078-.016.172-.031.297-.031s.234.015.422.047c.328.062.578.093.781.093.36 0 .594-.062.906-.203l-.109-.234L-.094-.36l.188.515c.453-.344.61-.39.953-.39.234 0 .516.047 1 .156.594.125.89.172 1.14.172.126 0 .204-.016.61-.11.125-.656.203-.953.344-1.5h-.5l-.266.657c-.063.156 0 .093-.203.093-.219 0-.438-.062-.656-.093a5.038 5.038 0 00-.829-.11c-.312 0-.562.047-.921.188l.109.219L4.188-3.97l.062-.39zm0 0"/></svg><svg overflow="visible" x="4.423" y="21.988"><path d="M4.719-3.375c0-1.938-.782-2.984-2.094-2.984C1.125-6.36.219-5.141.219-3c0 1.031.234 2.031.578 2.453.328.438.984.719 1.578.719 1.469 0 2.344-1.281 2.344-3.547zm-1.125.453c0 1.875-.203 2.531-1.078 2.531-.938 0-1.188-.765-1.188-2.921 0-1.876.203-2.47 1.125-2.47.938 0 1.14.735 1.14 2.86zm0 0"/></svg><svg overflow="visible" x="13.632" y="14.696"><path d="M9.219-13.766v-.843H6.953L4.875 5h.281L3.375-2.797H1.297v.985h.812L4.375 8.03c.266-.047.422-.062.578-.062.156 0 .328.015.61.062l2.296-21.656h1.36zm0 0"/></svg><path d="M22.36.707h103.652" fill="none" stroke-width=".717" stroke="#000" stroke-miterlimit="10"/><svg overflow="visible" x="22.359" y="17.423"><path d="M4.563-8.781l-.188-.14c-.063-.063-.11-.126-.219-.329-1.781 1.781-2.812 3.719-2.812 5.563v1.124c0 1.86 1.031 3.797 2.812 5.579.11-.204.157-.266.219-.329.063-.062.125-.109.313-.203C3.046.844 2.374-.844 2.374-2.562v-1.126c0-1.703.672-3.39 2.313-5.03zm0 0"/></svg><svg overflow="visible" x="27.811" y="17.423"><path d="M5.875-8.86l-.219-.187c-.75.375-1.078.438-2.062.531l-.094.5h.75c.281 0 .25-.046.25.157 0 .109 0 .203-.016.296L4.188-5.89a3.109 3.109 0 00-.875-.14c-.829 0-2.063.906-2.61 1.937-.375.703-.64 1.938-.64 2.938C.063-.375.374.125.734.125c.313 0 .86-.234 1.266-.563.64-.515 1.031-.984 1.844-2.187l-.25-.094-.266 1.078c-.14.532-.203.907-.203 1.22 0 .25.25.546.453.546.219 0 .594-.203 1-.5l1.047-.766-.266-.468-.656.468c-.172.125-.25.172-.36.172-.093 0-.046.031-.046-.14 0-.094.031-.204.11-.547l1.515-7.157zM4.031-5.03l-.14.703A5.233 5.233 0 012.375-1.61c-.422.39-.781.64-1.016.64-.187 0-.171-.031-.171-.328 0-1.516.515-3.281 1.109-3.734.156-.125.281-.14.61-.14.53 0 .765.03 1.109.218zm0 0"/></svg><svg overflow="visible" x="33.92" y="17.423"><path d="M5.875-5.875c-.14-.078-.344-.156-.453-.156-.469 0-1.063.468-1.797 1.578l-.453.656.25.094-.078-.578c-.14-1.188-.594-1.75-1.297-1.75-.313 0-.688.14-.797.297L.484-4.61l.407.25c.437-.485.578-.61.812-.61.39 0 .516.36.719 1.532l.125.718-.438.656C1.594-1.25 1.297-.905.953-.905c-.172 0-.172.078-.203.015l-.188-.468-.453.062c0 .36-.03.516-.093.89-.032.141-.047.173-.063.329.219.125.531.203.672.203.39 0 .953-.375 1.328-.938l.906-1.406-.234-.094.125.829c.172 1.015.578 1.609 1 1.609.266 0 .75-.234 1.125-.578l.64-.578-.218-.469c-.578.453-.766.61-.953.61-.188 0-.25-.094-.453-.5.015.046-.11-.407-.172-.75L3.5-3.313l.39-.532c.563-.765.782-1.015 1.157-1.015.187 0 .187-.032.312.312l.36-.11.203-1.171zm0 0"/></svg><svg overflow="visible" x="40.041" y="17.423"><path d="M4.86-8.031c-.11.015-.204.031-.313.031-.094 0-.203-.016-.39-.063L.75 1.86c.297-.093.406-.109.5-.109.11 0 .203.016.39.063l3.407-9.891zm0 0"/></svg><svg overflow="visible" x="45.851" y="17.423"><path d="M5.875-8.86l-.219-.187c-.75.375-1.078.438-2.062.531l-.094.5h.75c.281 0 .25-.046.25.157 0 .109 0 .203-.016.296L4.188-5.89a3.109 3.109 0 00-.875-.14c-.829 0-2.063.906-2.61 1.937-.375.703-.64 1.938-.64 2.938C.063-.375.374.125.734.125c.313 0 .86-.234 1.266-.563.64-.515 1.031-.984 1.844-2.187l-.25-.094-.266 1.078c-.14.532-.203.907-.203 1.22 0 .25.25.546.453.546.219 0 .594-.203 1-.5l1.047-.766-.266-.468-.656.468c-.172.125-.25.172-.36.172-.093 0-.046.031-.046-.14 0-.094.031-.204.11-.547l1.515-7.157zM4.031-5.03l-.14.703A5.233 5.233 0 012.375-1.61c-.422.39-.781.64-1.016.64-.187 0-.171-.031-.171-.328 0-1.516.515-3.281 1.109-3.734.156-.125.281-.14.61-.14.53 0 .765.03 1.109.218zm0 0"/></svg><svg overflow="visible" x="51.96" y="17.423"><path d="M3.703-5.516c-.453.047-.86.063-1.156.063.172-.984.297-1.578.531-2.25l-.25-.328a7.16 7.16 0 01-1.094.531l-.296 2.031c-.391.203-.704.328-1.063.407l-.047.406h1l-.64 3.25C.625-1.11.53-.813.53-.5c0 .297.266.61.5.61.422 0 .922-.282 1.86-1.032.218-.172.14-.125.437-.36l-.25-.437-.672.469c-.36.25-.484.313-.625.313-.093 0-.031.046-.031-.11 0-.297.156-1.234.516-3l.14-.61h1.266l.203-.89zm0 0"/></svg><svg overflow="visible" x="56.001" y="17.423"><path d="M4.094-2.563v-1.124c0-1.844-1.016-3.782-2.813-5.563-.11.203-.156.266-.218.328-.063.047-.125.094-.313.203 1.64 1.64 2.313 3.328 2.313 5.031v1.126C3.063-.845 2.39.844.75 2.484c.188.094.25.141.313.204.062.062.109.124.218.328 1.797-1.782 2.813-3.72 2.813-5.579zm0 0"/></svg><svg overflow="visible" x="61.453" y="10.581"><path d="M4.75-.11c-.016-.187-.016-.265-.016-.39s0-.203.032-.547l-3.141.094 1.5-1.469c.938-.906 1.266-1.5 1.266-2.156 0-1.016-.891-1.781-2.125-1.781-.688 0-1.282.218-1.782.687L.297-4.266h.547l.172-.546c.156-.516.359-.594 1-.594.828 0 1.203.343 1.203 1.093 0 .657-.36 1.22-1.453 2.282L.078-.391v.422L2.391 0l2.375.031zm0 0"/></svg><svg overflow="visible" x="69.606" y="17.423"><path d="M8.266-2.766a1.332 1.332 0 01-.047-.359c0-.11.015-.234.062-.484h-3.25v-3.266c-.25.063-.375.078-.484.078-.125 0-.25-.016-.5-.078v3.266H.78c.063.25.063.375.063.484 0 .125 0 .25-.063.5h3.266V.641c.25-.063.375-.079.5-.079.11 0 .234.016.484.079v-3.266h3.25zm0 0"/></svg><svg overflow="visible" x="81.346" y="17.423"><path d="M4.563-8.781l-.188-.14c-.063-.063-.11-.126-.219-.329-1.781 1.781-2.812 3.719-2.812 5.563v1.124c0 1.86 1.031 3.797 2.812 5.579.11-.204.157-.266.219-.329.063-.062.125-.109.313-.203C3.046.844 2.374-.844 2.374-2.562v-1.126c0-1.703.672-3.39 2.313-5.03zm0 0"/></svg><svg overflow="visible" x="86.798" y="17.423"><path d="M5.875-8.86l-.219-.187c-.75.375-1.078.438-2.062.531l-.094.5h.75c.281 0 .25-.046.25.157 0 .109 0 .203-.016.296L4.188-5.89a3.109 3.109 0 00-.875-.14c-.829 0-2.063.906-2.61 1.937-.375.703-.64 1.938-.64 2.938C.063-.375.374.125.734.125c.313 0 .86-.234 1.266-.563.64-.515 1.031-.984 1.844-2.187l-.25-.094-.266 1.078c-.14.532-.203.907-.203 1.22 0 .25.25.546.453.546.219 0 .594-.203 1-.5l1.047-.766-.266-.468-.656.468c-.172.125-.25.172-.36.172-.093 0-.046.031-.046-.14 0-.094.031-.204.11-.547l1.515-7.157zM4.031-5.03l-.14.703A5.233 5.233 0 012.375-1.61c-.422.39-.781.64-1.016.64-.187 0-.171-.031-.171-.328 0-1.516.515-3.281 1.109-3.734.156-.125.281-.14.61-.14.53 0 .765.03 1.109.218zm0 0"/></svg><svg overflow="visible" x="92.907" y="17.423"><path d="M5.953-5.875l-.203-.156c-.375.14-.64.203-1.016.234l-.453 1.703c-.14.563-.531 1.344-.922 1.938-.421.61-.89 1.094-1.156 1.094-.265 0-.11-.438-.094-.594l.172-2.328c.031-.36.047-.829.047-1.157 0-.53-.219-.89-.422-.89-.156 0-.422.125-1 .515L-.14-4.78l.266.437.734-.453c.063-.047.125-.11.204-.11.312 0 .125.485.109.673L.969-1.328l-.016.484c-.015.5.36.969.656.969.454 0 1.547-1.047 2.438-2.39l-.234-.094-.579 2.03c-.609 2.126-1.078 2.86-1.906 2.86-.422 0-.61-.187-.61-.61 0-.062.016-.155.032-.343l-.297-.11-.672.485c-.015.156-.015.219-.015.281 0 .516.578 1.063 1.125 1.063 1.265 0 2.703-1.61 3.406-3.828L6-5.828zm0 0"/></svg><svg overflow="visible" x="99.099" y="17.423"><path d="M4.86-8.031c-.11.015-.204.031-.313.031-.094 0-.203-.016-.39-.063L.75 1.86c.297-.093.406-.109.5-.109.11 0 .203.016.39.063l3.407-9.891zm0 0"/></svg><svg overflow="visible" x="104.91" y="17.423"><path d="M5.875-8.86l-.219-.187c-.75.375-1.078.438-2.062.531l-.094.5h.75c.281 0 .25-.046.25.157 0 .109 0 .203-.016.296L4.188-5.89a3.109 3.109 0 00-.875-.14c-.829 0-2.063.906-2.61 1.937-.375.703-.64 1.938-.64 2.938C.063-.375.374.125.734.125c.313 0 .86-.234 1.266-.563.64-.515 1.031-.984 1.844-2.187l-.25-.094-.266 1.078c-.14.532-.203.907-.203 1.22 0 .25.25.546.453.546.219 0 .594-.203 1-.5l1.047-.766-.266-.468-.656.468c-.172.125-.25.172-.36.172-.093 0-.046.031-.046-.14 0-.094.031-.204.11-.547l1.515-7.157zM4.031-5.03l-.14.703A5.233 5.233 0 012.375-1.61c-.422.39-.781.64-1.016.64-.187 0-.171-.031-.171-.328 0-1.516.515-3.281 1.109-3.734.156-.125.281-.14.61-.14.53 0 .765.03 1.109.218zm0 0"/></svg><svg overflow="visible" x="111.019" y="17.423"><path d="M3.703-5.516c-.453.047-.86.063-1.156.063.172-.984.297-1.578.531-2.25l-.25-.328a7.16 7.16 0 01-1.094.531l-.296 2.031c-.391.203-.704.328-1.063.407l-.047.406h1l-.64 3.25C.625-1.11.53-.813.53-.5c0 .297.266.61.5.61.422 0 .922-.282 1.86-1.032.218-.172.14-.125.437-.36l-.25-.437-.672.469c-.36.25-.484.313-.625.313-.093 0-.031.046-.031-.11 0-.297.156-1.234.516-3l.14-.61h1.266l.203-.89zm0 0"/></svg><svg overflow="visible" x="115.06" y="17.423"><path d="M4.094-2.563v-1.124c0-1.844-1.016-3.782-2.813-5.563-.11.203-.156.266-.218.328-.063.047-.125.094-.313.203 1.64 1.64 2.313 3.328 2.313 5.031v1.126C3.063-.845 2.39.844.75 2.484c.188.094.25.141.313.204.062.062.109.124.218.328 1.797-1.782 2.813-3.72 2.813-5.579zm0 0"/></svg><svg overflow="visible" x="120.514" y="10.581"><path d="M4.75-.11c-.016-.187-.016-.265-.016-.39s0-.203.032-.547l-3.141.094 1.5-1.469c.938-.906 1.266-1.5 1.266-2.156 0-1.016-.891-1.781-2.125-1.781-.688 0-1.282.218-1.782.687L.297-4.266h.547l.172-.546c.156-.516.359-.594 1-.594.828 0 1.203.343 1.203 1.093 0 .657-.36 1.22-1.453 2.282L.078-.391v.422L2.391 0l2.375.031zm0 0"/></svg><svg overflow="visible" x="126.011" y="17.423"><path d="M5.875-8.86l-.219-.187c-.75.375-1.078.438-2.062.531l-.094.5h.75c.281 0 .25-.046.25.157 0 .109 0 .203-.016.296L4.188-5.89a3.109 3.109 0 00-.875-.14c-.829 0-2.063.906-2.61 1.937-.375.703-.64 1.938-.64 2.938C.063-.375.374.125.734.125c.313 0 .86-.234 1.266-.563.64-.515 1.031-.984 1.844-2.187l-.25-.094-.266 1.078c-.14.532-.203.907-.203 1.22 0 .25.25.546.453.546.219 0 .594-.203 1-.5l1.047-.766-.266-.468-.656.468c-.172.125-.25.172-.36.172-.093 0-.046.031-.046-.14 0-.094.031-.204.11-.547l1.515-7.157zM4.031-5.03l-.14.703A5.233 5.233 0 012.375-1.61c-.422.39-.781.64-1.016.64-.187 0-.171-.031-.171-.328 0-1.516.515-3.281 1.109-3.734.156-.125.281-.14.61-.14.53 0 .765.03 1.109.218zm0 0"/></svg><svg overflow="visible" x="132.12" y="17.423"><path d="M3.703-5.516c-.453.047-.86.063-1.156.063.172-.984.297-1.578.531-2.25l-.25-.328a7.16 7.16 0 01-1.094.531l-.296 2.031c-.391.203-.704.328-1.063.407l-.047.406h1l-.64 3.25C.625-1.11.53-.813.53-.5c0 .297.266.61.5.61.422 0 .922-.282 1.86-1.032.218-.172.14-.125.437-.36l-.25-.437-.672.469c-.36.25-.484.313-.625.313-.093 0-.031.046-.031-.11 0-.297.156-1.234.516-3l.14-.61h1.266l.203-.89zm0 0"/></svg><svg overflow="visible" x="-.897" y="32.82"><path d="M8.266-1.453a1.332 1.332 0 01-.047-.36c0-.109.015-.234.062-.484h-7.5c.063.25.063.375.063.485 0 .125 0 .25-.063.5h7.5zm-.157-4c-.078 0-.156-.016-.234-.031-.063-.032-.047-.032-.281-.188C7.25-4.656 7-4.438 6.437-4.282c-.109.032-.203.048-.296.048-.5 0-.875-.297-1.297-.594-.563-.39-1.297-.781-1.938-.781-.14 0-.297.015-.453.062-.75.203-1.281.938-1.672 2.125.266 0 .344.016.422.047.078.016.047.016.281.172.329-1 .61-1.235 1.172-1.39a.885.885 0 01.281-.048c.5 0 .86.297 1.297.594.563.39 1.297.781 1.954.781.14 0 .296-.015.453-.062.734-.203 1.265-.922 1.656-2.125zm0 0"/></svg><svg overflow="visible" x="15.964" y="27.213"><path d="M4.203-4.406l-.187-.188-.344.297c-.094.094-.078.094-.219.094-.328 0-.812-.063-1.281-.188-.25-.062-.516-.14-.781-.14-.157 0-.344.031-.704.125L.313-3.094h.47l.296-.531c.078-.016.172-.031.297-.031s.234.015.422.047c.328.062.578.093.781.093.36 0 .594-.062.906-.203l-.109-.234L-.094-.36l.188.515c.453-.344.61-.39.953-.39.234 0 .516.047 1 .156.594.125.89.172 1.14.172.126 0 .204-.016.61-.11.125-.656.203-.953.344-1.5h-.5l-.266.657c-.063.156 0 .093-.203.093-.219 0-.438-.062-.656-.093a5.038 5.038 0 00-.829-.11c-.312 0-.562.047-.921.188l.109.219L4.188-3.97l.062-.39zm0 0"/></svg><path d="M15.695 29.832h4.996" fill="none" stroke-width=".717" stroke="#000" stroke-miterlimit="10"/><svg overflow="visible" x="15.694" y="37.347"><path d="M4.75-.11c-.016-.187-.016-.265-.016-.39s0-.203.032-.547l-3.141.094 1.5-1.469c.938-.906 1.266-1.5 1.266-2.156 0-1.016-.891-1.781-2.125-1.781-.688 0-1.282.218-1.782.687L.297-4.266h.547l.172-.546c.156-.516.359-.594 1-.594.828 0 1.203.343 1.203 1.093 0 .657-.36 1.22-1.453 2.282L.078-.391v.422L2.391 0l2.375.031zm0 0"/></svg><svg overflow="visible" x="24.545" y="32.82"><path d="M2.516-3.125c0-.422-.407-.844-.844-.844-.422 0-.86.422-.86.844 0 .438.438.86.86.86.437 0 .844-.422.844-.86zm0 0"/></svg><svg overflow="visible" x="30.547" y="32.82"><path d="M4.406-9.766c-.015-.078-.031-.156-.031-.234 0-.094.016-.172.078-.375H1.375V4.141h3.078c-.062-.204-.078-.297-.078-.375 0-.079.016-.172.078-.375H2.437V-9.641h2.016zm0 0"/></svg><svg overflow="visible" x="35.843" y="32.82"><path d="M7.781-8.219c-.922-.344-1.593-.484-2.328-.484-.984 0-2.078.344-2.906.89C1.14-6.859.39-5.358.39-3.53c0 2.328 1.421 3.75 3.703 3.75C5.25.219 6.187-.094 7.28-.844l.157-.578-.266-.187c-1.234.765-1.75.921-2.672.921-1.89 0-2.781-1.015-2.781-3.14 0-1.328.375-2.406 1.11-3.156.546-.563 1.218-.829 2.171-.829.86 0 1.36.141 2 .547v1.063h.578c.078-.813.172-1.328.36-1.953zm0 0"/></svg><svg overflow="visible" x="43.82" y="35.594"><path d="M4.266-.11V-.5l-.657-.031c-.515-.031-.468.015-.468-.453v-5.329l-.282-.093c-.625.297-1.312.562-2.375.906l.11.594h.234l1.25-.516.031-.016c.047 0-.078-.046-.078.172v4.282c0 .468.047.421-.469.453L.86-.5v.531L2.594 0l1.672.031zm0 0"/></svg><svg overflow="visible" x="51.974" y="32.82"><path d="M2.516-3.125c0-.422-.407-.844-.844-.844-.422 0-.86.422-.86.844 0 .438.438.86.86.86.437 0 .844-.422.844-.86zm0 0"/></svg><svg overflow="visible" x="57.976" y="32.82"><path d="M4.938-8.875c-.204-.094-.547-.156-.844-.156-.125 0-.422.078-.578.156-.125.063-1.204.828-1.485 1.125-.265.25-.437.703-.578 1.39l-.156.876c-.36.171-.61.265-1.016.421l-.125.485h.985l-.094.531C.687-1.703.25.516-.016 1.343c-.218.704-.421.938-.859.938-.266 0-.313-.047-.578-.375l-.328.11c-.078.375-.203.859-.328 1.109.171.11.453.172.593.172.485 0 1.235-.406 1.688-.969.734-.86 1.016-1.781 1.906-5.984.063-.297.156-.656.203-.922h1.25c.063-.36.156-.64.219-.813l-.11-.234-.156.063c-.28.078-.406.078-1 .078h-.03l.218-1.204c.203-1.03.406-1.359.953-1.359.36 0 .578.14.797.5l.281-.11.313-.905.078-.235zm0 0"/></svg><svg overflow="visible" x="65.232" y="32.82"><path d="M4.953-9.938a.595.595 0 01-.203-.14c-.047-.063-.094-.125-.203-.328-2.016 2-3.172 4.265-3.172 6.515v1.532c0 2.265 1.156 4.515 3.172 6.515.11-.203.156-.265.203-.312.063-.063.125-.11.313-.203-1.844-1.875-2.625-3.907-2.625-6v-1.532c0-2.078.78-4.125 2.624-5.984zm0 0"/></svg><svg overflow="visible" x="72.578" y="27.213"><path d="M4.203-4.406l-.187-.188-.344.297c-.094.094-.078.094-.219.094-.328 0-.812-.063-1.281-.188-.25-.062-.516-.14-.781-.14-.157 0-.344.031-.704.125L.313-3.094h.47l.296-.531c.078-.016.172-.031.297-.031s.234.015.422.047c.328.062.578.093.781.093.36 0 .594-.062.906-.203l-.109-.234L-.094-.36l.188.515c.453-.344.61-.39.953-.39.234 0 .516.047 1 .156.594.125.89.172 1.14.172.126 0 .204-.016.61-.11.125-.656.203-.953.344-1.5h-.5l-.266.657c-.063.156 0 .093-.203.093-.219 0-.438-.062-.656-.093a5.038 5.038 0 00-.829-.11c-.312 0-.562.047-.921.188l.109.219L4.188-3.97l.062-.39zm0 0"/></svg><path d="M72.309 29.832h5" fill="none" stroke-width=".717" stroke="#000" stroke-miterlimit="10"/><svg overflow="visible" x="72.308" y="37.347"><path d="M4.75-.11c-.016-.187-.016-.265-.016-.39s0-.203.032-.547l-3.141.094 1.5-1.469c.938-.906 1.266-1.5 1.266-2.156 0-1.016-.891-1.781-2.125-1.781-.688 0-1.282.218-1.782.687L.297-4.266h.547l.172-.546c.156-.516.359-.594 1-.594.828 0 1.203.343 1.203 1.093 0 .657-.36 1.22-1.453 2.282L.078-.391v.422L2.391 0l2.375.031zm0 0"/></svg><svg overflow="visible" x="81.159" y="32.82"><path d="M2.516-3.125c0-.422-.407-.844-.844-.844-.422 0-.86.422-.86.844 0 .438.438.86.86.86.437 0 .844-.422.844-.86zm0 0"/></svg><svg overflow="visible" x="87.161" y="32.82"><path d="M3.703-5.516c-.453.047-.86.063-1.156.063.172-.984.297-1.578.531-2.25l-.25-.328a7.16 7.16 0 01-1.094.531l-.296 2.031c-.391.203-.704.328-1.063.407l-.047.406h1l-.64 3.25C.625-1.11.53-.813.53-.5c0 .297.266.61.5.61.422 0 .922-.282 1.86-1.032.218-.172.14-.125.437-.36l-.25-.437-.672.469c-.36.25-.484.313-.625.313-.093 0-.031.046-.031-.11 0-.297.156-1.234.516-3l.14-.61h1.266l.203-.89zm0 0"/></svg><svg overflow="visible" x="91.145" y="35.594"><path d="M4.266-.11V-.5l-.657-.031c-.515-.031-.468.015-.468-.453v-5.329l-.282-.093c-.625.297-1.312.562-2.375.906l.11.594h.234l1.25-.516.031-.016c.047 0-.078-.046-.078.172v4.282c0 .468.047.421-.469.453L.86-.5v.531L2.594 0l1.672.031zm0 0"/></svg><svg overflow="visible" x="99.298" y="32.82"><path d="M8.266-2.766a1.332 1.332 0 01-.047-.359c0-.11.015-.234.062-.484h-3.25v-3.266c-.25.063-.375.078-.484.078-.125 0-.25-.016-.5-.078v3.266H.78c.063.25.063.375.063.484 0 .125 0 .25-.063.5h3.266V.641c.25-.063.375-.079.5-.079.11 0 .234.016.484.079v-3.266h3.25zm0 0"/></svg><svg overflow="visible" x="112.507" y="27.213"><path d="M4.203-4.406l-.187-.188-.344.297c-.094.094-.078.094-.219.094-.328 0-.812-.063-1.281-.188-.25-.062-.516-.14-.781-.14-.157 0-.344.031-.704.125L.313-3.094h.47l.296-.531c.078-.016.172-.031.297-.031s.234.015.422.047c.328.062.578.093.781.093.36 0 .594-.062.906-.203l-.109-.234L-.094-.36l.188.515c.453-.344.61-.39.953-.39.234 0 .516.047 1 .156.594.125.89.172 1.14.172.126 0 .204-.016.61-.11.125-.656.203-.953.344-1.5h-.5l-.266.657c-.063.156 0 .093-.203.093-.219 0-.438-.062-.656-.093a5.038 5.038 0 00-.829-.11c-.312 0-.562.047-.921.188l.109.219L4.188-3.97l.062-.39zm0 0"/></svg><path d="M112.238 29.832h4.996" fill="none" stroke-width=".717" stroke="#000" stroke-miterlimit="10"/><svg overflow="visible" x="112.237" y="37.347"><path d="M4.75-.11c-.016-.187-.016-.265-.016-.39s0-.203.032-.547l-3.141.094 1.5-1.469c.938-.906 1.266-1.5 1.266-2.156 0-1.016-.891-1.781-2.125-1.781-.688 0-1.282.218-1.782.687L.297-4.266h.547l.172-.546c.156-.516.359-.594 1-.594.828 0 1.203.343 1.203 1.093 0 .657-.36 1.22-1.453 2.282L.078-.391v.422L2.391 0l2.375.031zm0 0"/></svg><svg overflow="visible" x="118.431" y="32.82"><path d="M4.484-2.36v-1.53c0-2.25-1.156-4.516-3.171-6.516-.11.203-.157.265-.22.328-.046.062-.109.11-.312.203 1.86 1.86 2.64 3.906 2.64 5.984v1.532c0 2.093-.78 4.125-2.64 6 .203.093.266.14.313.203.062.047.11.11.218.312 2.016-2 3.172-4.25 3.172-6.515zm0 0"/></svg><svg overflow="visible" x="126.955" y="32.82"><path d="M8.266-2.766a1.332 1.332 0 01-.047-.359c0-.11.015-.234.062-.484h-3.25v-3.266c-.25.063-.375.078-.484.078-.125 0-.25-.016-.5-.078v3.266H.78c.063.25.063.375.063.484 0 .125 0 .25-.063.5h3.266V.641c.25-.063.375-.079.5-.079.11 0 .234.016.484.079v-3.266h3.25zm0 0"/></svg><svg overflow="visible" x="138.695" y="32.82"><path d="M2.313-.766c0-.359-.454-.828-.829-.828-.359 0-.828.469-.828.828 0 .36.469.829.813.829.39 0 .843-.454.843-.829zm0 0"/></svg><svg overflow="visible" x="141.684" y="32.82"><path d="M2.313-.766c0-.359-.454-.828-.829-.828-.359 0-.828.469-.828.828 0 .36.469.829.813.829.39 0 .843-.454.843-.829zm0 0"/></svg><svg overflow="visible" x="144.673" y="32.82"><path d="M2.313-.766c0-.359-.454-.828-.829-.828-.359 0-.828.469-.828.828 0 .36.469.829.813.829.39 0 .843-.454.843-.829zm0 0"/></svg><svg overflow="visible" x="150.316" y="32.82"><path d="M8.266-2.766a1.332 1.332 0 01-.047-.359c0-.11.015-.234.062-.484h-3.25v-3.266c-.25.063-.375.078-.484.078-.125 0-.25-.016-.5-.078v3.266H.78c.063.25.063.375.063.484 0 .125 0 .25-.063.5h3.266V.641c.25-.063.375-.079.5-.079.11 0 .234.016.484.079v-3.266h3.25zm0 0"/></svg><svg overflow="visible" x="162.056" y="32.82"><path d="M7.781-8.219c-.922-.344-1.593-.484-2.328-.484-.984 0-2.078.344-2.906.89C1.14-6.859.39-5.358.39-3.53c0 2.328 1.421 3.75 3.703 3.75C5.25.219 6.187-.094 7.28-.844l.157-.578-.266-.187c-1.234.765-1.75.921-2.672.921-1.89 0-2.781-1.015-2.781-3.14 0-1.328.375-2.406 1.11-3.156.546-.563 1.218-.829 2.171-.829.86 0 1.36.141 2 .547v1.063h.578c.078-.813.172-1.328.36-1.953zm0 0"/></svg><svg overflow="visible" x="170.041" y="35.594"><path d="M5.14-.984l-.156-.25-.406.25c-.281.156-.375.218-.469.218-.062 0 .016.063.016-.046 0-.032-.031-.032.031-.157l.625-2.453c.078-.25.11-.5.11-.656 0-.203-.25-.453-.438-.453-.406 0-1.187.375-1.766.86-.359.312-.64.608-1.124 1.25l.265.108.36-1.421c.046-.172.062-.266.062-.375 0-.188-.234-.422-.375-.422-.203 0-.703.234-1.39.687l-.344.235.172.421.5-.28c.343-.22.265-.188.343-.188.094 0 .016-.047.016.078 0 .453-.406 2.156-.813 3.453l.172.219c.313-.078.531-.125.875-.188.203-1.218.375-1.703.797-2.312.531-.735 1.14-1.25 1.578-1.25.094 0 0-.063 0 .078 0 .156-.015.344-.11.625l-.5 1.875c-.077.328-.124.531-.124.672 0 .219.265.484.453.484.25 0 .703-.219 1.734-.922zm0 0"/></svg><svg overflow="visible" x="178.734" y="32.82"><path d="M2.516-3.125c0-.422-.407-.844-.844-.844-.422 0-.86.422-.86.844 0 .438.438.86.86.86.437 0 .844-.422.844-.86zm0 0"/></svg><svg overflow="visible" x="184.736" y="32.82"><path d="M4.938-8.875c-.204-.094-.547-.156-.844-.156-.125 0-.422.078-.578.156-.125.063-1.204.828-1.485 1.125-.265.25-.437.703-.578 1.39l-.156.876c-.36.171-.61.265-1.016.421l-.125.485h.985l-.094.531C.687-1.703.25.516-.016 1.343c-.218.704-.421.938-.859.938-.266 0-.313-.047-.578-.375l-.328.11c-.078.375-.203.859-.328 1.109.171.11.453.172.593.172.485 0 1.235-.406 1.688-.969.734-.86 1.016-1.781 1.906-5.984.063-.297.156-.656.203-.922h1.25c.063-.36.156-.64.219-.813l-.11-.234-.156.063c-.28.078-.406.078-1 .078h-.03l.218-1.204c.203-1.03.406-1.359.953-1.359.36 0 .578.14.797.5l.281-.11.313-.905.078-.235zm0 0"/></svg><svg overflow="visible" x="191.992" y="32.82"><path d="M4.953-9.938a.595.595 0 01-.203-.14c-.047-.063-.094-.125-.203-.328-2.016 2-3.172 4.265-3.172 6.515v1.532c0 2.265 1.156 4.515 3.172 6.515.11-.203.156-.265.203-.312.063-.063.125-.11.313-.203-1.844-1.875-2.625-3.907-2.625-6v-1.532c0-2.078.78-4.125 2.624-5.984zm0 0"/></svg><svg overflow="visible" x="199.339" y="27.213"><path d="M4.203-4.406l-.187-.188-.344.297c-.094.094-.078.094-.219.094-.328 0-.812-.063-1.281-.188-.25-.062-.516-.14-.781-.14-.157 0-.344.031-.704.125L.313-3.094h.47l.296-.531c.078-.016.172-.031.297-.031s.234.015.422.047c.328.062.578.093.781.093.36 0 .594-.062.906-.203l-.109-.234L-.094-.36l.188.515c.453-.344.61-.39.953-.39.234 0 .516.047 1 .156.594.125.89.172 1.14.172.126 0 .204-.016.61-.11.125-.656.203-.953.344-1.5h-.5l-.266.657c-.063.156 0 .093-.203.093-.219 0-.438-.062-.656-.093a5.038 5.038 0 00-.829-.11c-.312 0-.562.047-.921.188l.109.219L4.188-3.97l.062-.39zm0 0"/></svg><path d="M199.07 29.832h4.996" fill="none" stroke-width=".717" stroke="#000" stroke-miterlimit="10"/><svg overflow="visible" x="199.069" y="37.347"><path d="M4.75-.11c-.016-.187-.016-.265-.016-.39s0-.203.032-.547l-3.141.094 1.5-1.469c.938-.906 1.266-1.5 1.266-2.156 0-1.016-.891-1.781-2.125-1.781-.688 0-1.282.218-1.782.687L.297-4.266h.547l.172-.546c.156-.516.359-.594 1-.594.828 0 1.203.343 1.203 1.093 0 .657-.36 1.22-1.453 2.282L.078-.391v.422L2.391 0l2.375.031zm0 0"/></svg><svg overflow="visible" x="207.92" y="32.82"><path d="M2.516-3.125c0-.422-.407-.844-.844-.844-.422 0-.86.422-.86.844 0 .438.438.86.86.86.437 0 .844-.422.844-.86zm0 0"/></svg><svg overflow="visible" x="213.922" y="32.82"><path d="M3.703-5.516c-.453.047-.86.063-1.156.063.172-.984.297-1.578.531-2.25l-.25-.328a7.16 7.16 0 01-1.094.531l-.296 2.031c-.391.203-.704.328-1.063.407l-.047.406h1l-.64 3.25C.625-1.11.53-.813.53-.5c0 .297.266.61.5.61.422 0 .922-.282 1.86-1.032.218-.172.14-.125.437-.36l-.25-.437-.672.469c-.36.25-.484.313-.625.313-.093 0-.031.046-.031-.11 0-.297.156-1.234.516-3l.14-.61h1.266l.203-.89zm0 0"/></svg><svg overflow="visible" x="217.905" y="35.594"><path d="M5.14-.984l-.156-.25-.406.25c-.281.156-.375.218-.469.218-.062 0 .016.063.016-.046 0-.032-.031-.032.031-.157l.625-2.453c.078-.25.11-.5.11-.656 0-.203-.25-.453-.438-.453-.406 0-1.187.375-1.766.86-.359.312-.64.608-1.124 1.25l.265.108.36-1.421c.046-.172.062-.266.062-.375 0-.188-.234-.422-.375-.422-.203 0-.703.234-1.39.687l-.344.235.172.421.5-.28c.343-.22.265-.188.343-.188.094 0 .016-.047.016.078 0 .453-.406 2.156-.813 3.453l.172.219c.313-.078.531-.125.875-.188.203-1.218.375-1.703.797-2.312.531-.735 1.14-1.25 1.578-1.25.094 0 0-.063 0 .078 0 .156-.015.344-.11.625l-.5 1.875c-.077.328-.124.531-.124.672 0 .219.265.484.453.484.25 0 .703-.219 1.734-.922zm0 0"/></svg><svg overflow="visible" x="226.599" y="32.82"><path d="M8.266-2.766a1.332 1.332 0 01-.047-.359c0-.11.015-.234.062-.484h-3.25v-3.266c-.25.063-.375.078-.484.078-.125 0-.25-.016-.5-.078v3.266H.78c.063.25.063.375.063.484 0 .125 0 .25-.063.5h3.266V.641c.25-.063.375-.079.5-.079.11 0 .234.016.484.079v-3.266h3.25zm0 0"/></svg><svg overflow="visible" x="239.807" y="27.213"><path d="M4.203-4.406l-.187-.188-.344.297c-.094.094-.078.094-.219.094-.328 0-.812-.063-1.281-.188-.25-.062-.516-.14-.781-.14-.157 0-.344.031-.704.125L.313-3.094h.47l.296-.531c.078-.016.172-.031.297-.031s.234.015.422.047c.328.062.578.093.781.093.36 0 .594-.062.906-.203l-.109-.234L-.094-.36l.188.515c.453-.344.61-.39.953-.39.234 0 .516.047 1 .156.594.125.89.172 1.14.172.126 0 .204-.016.61-.11.125-.656.203-.953.344-1.5h-.5l-.266.657c-.063.156 0 .093-.203.093-.219 0-.438-.062-.656-.093a5.038 5.038 0 00-.829-.11c-.312 0-.562.047-.921.188l.109.219L4.188-3.97l.062-.39zm0 0"/></svg><path d="M239.535 29.832h5" fill="none" stroke-width=".717" stroke="#000" stroke-miterlimit="10"/><svg overflow="visible" x="239.537" y="37.347"><path d="M4.75-.11c-.016-.187-.016-.265-.016-.39s0-.203.032-.547l-3.141.094 1.5-1.469c.938-.906 1.266-1.5 1.266-2.156 0-1.016-.891-1.781-2.125-1.781-.688 0-1.282.218-1.782.687L.297-4.266h.547l.172-.546c.156-.516.359-.594 1-.594.828 0 1.203.343 1.203 1.093 0 .657-.36 1.22-1.453 2.282L.078-.391v.422L2.391 0l2.375.031zm0 0"/></svg><svg overflow="visible" x="245.731" y="32.82"><path d="M4.484-2.36v-1.53c0-2.25-1.156-4.516-3.171-6.516-.11.203-.157.265-.22.328-.046.062-.109.11-.312.203 1.86 1.86 2.64 3.906 2.64 5.984v1.532c0 2.093-.78 4.125-2.64 6 .203.093.266.14.313.203.062.047.11.11.218.312 2.016-2 3.172-4.25 3.172-6.515zm0 0"/></svg><svg overflow="visible" x="251.601" y="32.82"><path d="M3.906 4v-14.375H.828c.063.203.078.281.078.375 0 .078-.015.156-.078.36h2.016V3.39H.828c.063.204.078.297.078.376 0 .078-.015.171-.078.375h3.078zm0 0"/></svg><svg overflow="visible" x="-.897" y="48.552"><path d="M8.266-4.078a1.419 1.419 0 01-.047-.36c0-.109.015-.234.062-.484h-7.5c.063.25.063.375.063.484 0 .125 0 .235-.063.5h7.5zm0 2.625a1.332 1.332 0 01-.047-.36c0-.109.015-.234.062-.484h-7.5c.063.25.063.375.063.485 0 .125 0 .25-.063.5h7.5zm0 0"/></svg><svg overflow="visible" x="15.964" y="42.944"><path d="M4.203-4.406l-.187-.188-.344.297c-.094.094-.078.094-.219.094-.328 0-.812-.063-1.281-.188-.25-.062-.516-.14-.781-.14-.157 0-.344.031-.704.125L.313-3.094h.47l.296-.531c.078-.016.172-.031.297-.031s.234.015.422.047c.328.062.578.093.781.093.36 0 .594-.062.906-.203l-.109-.234L-.094-.36l.188.515c.453-.344.61-.39.953-.39.234 0 .516.047 1 .156.594.125.89.172 1.14.172.126 0 .204-.016.61-.11.125-.656.203-.953.344-1.5h-.5l-.266.657c-.063.156 0 .093-.203.093-.219 0-.438-.062-.656-.093a5.038 5.038 0 00-.829-.11c-.312 0-.562.047-.921.188l.109.219L4.188-3.97l.062-.39zm0 0"/></svg><path d="M15.695 45.563h4.996" fill="none" stroke-width=".717" stroke="#000" stroke-miterlimit="10"/><svg overflow="visible" x="15.694" y="53.078"><path d="M4.75-.11c-.016-.187-.016-.265-.016-.39s0-.203.032-.547l-3.141.094 1.5-1.469c.938-.906 1.266-1.5 1.266-2.156 0-1.016-.891-1.781-2.125-1.781-.688 0-1.282.218-1.782.687L.297-4.266h.547l.172-.546c.156-.516.359-.594 1-.594.828 0 1.203.343 1.203 1.093 0 .657-.36 1.22-1.453 2.282L.078-.391v.422L2.391 0l2.375.031zm0 0"/></svg><svg overflow="visible" x="24.545" y="48.552"><path d="M2.516-3.125c0-.422-.407-.844-.844-.844-.422 0-.86.422-.86.844 0 .438.438.86.86.86.437 0 .844-.422.844-.86zm0 0"/></svg><svg overflow="visible" x="30.547" y="48.552"><path d="M10.797-.063h-.578l-.078.86c-.094.86-.141.812-2.672.812H2.516l3.718-5.125-3.39-4.89h3.922c2.265 0 2.468-.016 2.515.484l.094 1.047h.703c-.031-.61-.047-.844-.047-1.188 0-.328.016-.562.047-1.171l-6.14.046L.89-9.233l-.079.546L4.783-3 .811 2.469V3l5.563-.047L10.844 3c0-1.25.015-2.234.094-3.063zm0 0"/></svg><svg overflow="visible" x="42.302" y="41.638"><path d="M5.14-.984l-.156-.25-.406.25c-.281.156-.375.218-.469.218-.062 0 .016.063.016-.046 0-.032-.031-.032.031-.157l.625-2.453c.078-.25.11-.5.11-.656 0-.203-.25-.453-.438-.453-.406 0-1.187.375-1.766.86-.359.312-.64.608-1.124 1.25l.265.108.36-1.421c.046-.172.062-.266.062-.375 0-.188-.234-.422-.375-.422-.203 0-.703.234-1.39.687l-.344.235.172.421.5-.28c.343-.22.265-.188.343-.188.094 0 .016-.047.016.078 0 .453-.406 2.156-.813 3.453l.172.219c.313-.078.531-.125.875-.188.203-1.218.375-1.703.797-2.312.531-.735 1.14-1.25 1.578-1.25.094 0 0-.063 0 .078 0 .156-.015.344-.11.625l-.5 1.875c-.077.328-.124.531-.124.672 0 .219.265.484.453.484.25 0 .703-.219 1.734-.922zm0 0"/></svg><svg overflow="visible" x="42.302" y="52.566"><path d="M2.516-.984l-.157-.25-.406.25c-.297.171-.375.218-.469.218-.078 0 .016.063.016-.046 0-.079.016-.157.063-.344l.75-2.688c.046-.156.062-.234.062-.328 0-.14-.234-.36-.39-.36-.22 0-.688.22-1.407.688l-.344.235.172.421.5-.28c.266-.173.266-.173.344-.173.11 0 0-.062 0 .047 0 .078-.031.266-.063.39l-.64 2.126c-.094.281-.125.5-.125.687 0 .204.266.47.437.47.266 0 .72-.235 1.735-.923zm.28-4.72c0-.202-.28-.484-.483-.484-.297 0-.735.422-.735.72 0 .218.313.5.547.5.313 0 .672-.391.672-.735zm0 0"/></svg><svg overflow="visible" x="45.195" y="52.566"><path d="M6.156-3.047c-.015-.094-.015-.187-.015-.265 0-.094 0-.188.046-.407H.516c.046.219.062.313.062.406 0 .079-.015.172-.062.391h5.671zm0 1.938c-.015-.079-.015-.172-.015-.266 0-.078 0-.172.046-.39H.516c.046.218.062.312.062.39 0 .094-.015.188-.062.406h5.671zm0 0"/></svg><svg overflow="visible" x="51.918" y="52.566"><path d="M4.266-.11V-.5l-.657-.031c-.515-.031-.468.015-.468-.453v-5.329l-.282-.093c-.625.297-1.312.562-2.375.906l.11.594h.234l1.25-.516.031-.016c.047 0-.078-.046-.078.172v4.282c0 .468.047.421-.469.453L.86-.5v.531L2.594 0l1.672.031zm0 0"/></svg><svg overflow="visible" x="59.416" y="48.552"><path d="M7.781-8.219c-.922-.344-1.593-.484-2.328-.484-.984 0-2.078.344-2.906.89C1.14-6.859.39-5.358.39-3.53c0 2.328 1.421 3.75 3.703 3.75C5.25.219 6.187-.094 7.28-.844l.157-.578-.266-.187c-1.234.765-1.75.921-2.672.921-1.89 0-2.781-1.015-2.781-3.14 0-1.328.375-2.406 1.11-3.156.546-.563 1.218-.829 2.171-.829.86 0 1.36.141 2 .547v1.063h.578c.078-.813.172-1.328.36-1.953zm0 0"/></svg><svg overflow="visible" x="67.39" y="51.326"><path d="M2.516-.984l-.157-.25-.406.25c-.297.171-.375.218-.469.218-.078 0 .016.063.016-.046 0-.079.016-.157.063-.344l.75-2.688c.046-.156.062-.234.062-.328 0-.14-.234-.36-.39-.36-.22 0-.688.22-1.407.688l-.344.235.172.421.5-.28c.266-.173.266-.173.344-.173.11 0 0-.062 0 .047 0 .078-.031.266-.063.39l-.64 2.126c-.094.281-.125.5-.125.687 0 .204.266.47.437.47.266 0 .72-.235 1.735-.923zm.28-4.72c0-.202-.28-.484-.483-.484-.297 0-.735.422-.735.72 0 .218.313.5.547.5.313 0 .672-.391.672-.735zm0 0"/></svg><svg overflow="visible" x="73.447" y="48.552"><path d="M2.516-3.125c0-.422-.407-.844-.844-.844-.422 0-.86.422-.86.844 0 .438.438.86.86.86.437 0 .844-.422.844-.86zm0 0"/></svg><svg overflow="visible" x="79.449" y="48.552"><path d="M4.938-8.875c-.204-.094-.547-.156-.844-.156-.125 0-.422.078-.578.156-.125.063-1.204.828-1.485 1.125-.265.25-.437.703-.578 1.39l-.156.876c-.36.171-.61.265-1.016.421l-.125.485h.985l-.094.531C.687-1.703.25.516-.016 1.343c-.218.704-.421.938-.859.938-.266 0-.313-.047-.578-.375l-.328.11c-.078.375-.203.859-.328 1.109.171.11.453.172.593.172.485 0 1.235-.406 1.688-.969.734-.86 1.016-1.781 1.906-5.984.063-.297.156-.656.203-.922h1.25c.063-.36.156-.64.219-.813l-.11-.234-.156.063c-.28.078-.406.078-1 .078h-.03l.218-1.204c.203-1.03.406-1.359.953-1.359.36 0 .578.14.797.5l.281-.11.313-.905.078-.235zm0 0"/></svg><svg overflow="visible" x="86.705" y="48.552"><path d="M4.953-9.938a.595.595 0 01-.203-.14c-.047-.063-.094-.125-.203-.328-2.016 2-3.172 4.265-3.172 6.515v1.532c0 2.265 1.156 4.515 3.172 6.515.11-.203.156-.265.203-.312.063-.063.125-.11.313-.203-1.844-1.875-2.625-3.907-2.625-6v-1.532c0-2.078.78-4.125 2.624-5.984zm0 0"/></svg><svg overflow="visible" x="94.052" y="42.944"><path d="M4.203-4.406l-.187-.188-.344.297c-.094.094-.078.094-.219.094-.328 0-.812-.063-1.281-.188-.25-.062-.516-.14-.781-.14-.157 0-.344.031-.704.125L.313-3.094h.47l.296-.531c.078-.016.172-.031.297-.031s.234.015.422.047c.328.062.578.093.781.093.36 0 .594-.062.906-.203l-.109-.234L-.094-.36l.188.515c.453-.344.61-.39.953-.39.234 0 .516.047 1 .156.594.125.89.172 1.14.172.126 0 .204-.016.61-.11.125-.656.203-.953.344-1.5h-.5l-.266.657c-.063.156 0 .093-.203.093-.219 0-.438-.062-.656-.093a5.038 5.038 0 00-.829-.11c-.312 0-.562.047-.921.188l.109.219L4.188-3.97l.062-.39zm0 0"/></svg><path d="M93.781 45.563h5" fill="none" stroke-width=".717" stroke="#000" stroke-miterlimit="10"/><g><svg overflow="visible" x="93.782" y="53.078"><path d="M4.75-.11c-.016-.187-.016-.265-.016-.39s0-.203.032-.547l-3.141.094 1.5-1.469c.938-.906 1.266-1.5 1.266-2.156 0-1.016-.891-1.781-2.125-1.781-.688 0-1.282.218-1.782.687L.297-4.266h.547l.172-.546c.156-.516.359-.594 1-.594.828 0 1.203.343 1.203 1.093 0 .657-.36 1.22-1.453 2.282L.078-.391v.422L2.391 0l2.375.031zm0 0"/></svg></g><g><svg overflow="visible" x="102.633" y="48.552"><path d="M2.516-3.125c0-.422-.407-.844-.844-.844-.422 0-.86.422-.86.844 0 .438.438.86.86.86.437 0 .844-.422.844-.86zm0 0"/></svg></g><g><svg overflow="visible" x="108.635" y="48.552"><path d="M3.703-5.516c-.453.047-.86.063-1.156.063.172-.984.297-1.578.531-2.25l-.25-.328a7.16 7.16 0 01-1.094.531l-.296 2.031c-.391.203-.704.328-1.063.407l-.047.406h1l-.64 3.25C.625-1.11.53-.813.53-.5c0 .297.266.61.5.61.422 0 .922-.282 1.86-1.032.218-.172.14-.125.437-.36l-.25-.437-.672.469c-.36.25-.484.313-.625.313-.093 0-.031.046-.031-.11 0-.297.156-1.234.516-3l.14-.61h1.266l.203-.89zm0 0"/></svg></g><g><svg overflow="visible" x="112.619" y="51.326"><path d="M2.516-.984l-.157-.25-.406.25c-.297.171-.375.218-.469.218-.078 0 .016.063.016-.046 0-.079.016-.157.063-.344l.75-2.688c.046-.156.062-.234.062-.328 0-.14-.234-.36-.39-.36-.22 0-.688.22-1.407.688l-.344.235.172.421.5-.28c.266-.173.266-.173.344-.173.11 0 0-.062 0 .047 0 .078-.031.266-.063.39l-.64 2.126c-.094.281-.125.5-.125.687 0 .204.266.47.437.47.266 0 .72-.235 1.735-.923zm.28-4.72c0-.202-.28-.484-.483-.484-.297 0-.735.422-.735.72 0 .218.313.5.547.5.313 0 .672-.391.672-.735zm0 0"/></svg></g><g><svg overflow="visible" x="118.675" y="48.552"><path d="M8.266-2.766a1.332 1.332 0 01-.047-.359c0-.11.015-.234.062-.484h-3.25v-3.266c-.25.063-.375.078-.484.078-.125 0-.25-.016-.5-.078v3.266H.78c.063.25.063.375.063.484 0 .125 0 .25-.063.5h3.266V.641c.25-.063.375-.079.5-.079.11 0 .234.016.484.079v-3.266h3.25zm0 0"/></svg></g><g><svg overflow="visible" x="131.884" y="42.944"><path d="M4.203-4.406l-.187-.188-.344.297c-.094.094-.078.094-.219.094-.328 0-.812-.063-1.281-.188-.25-.062-.516-.14-.781-.14-.157 0-.344.031-.704.125L.313-3.094h.47l.296-.531c.078-.016.172-.031.297-.031s.234.015.422.047c.328.062.578.093.781.093.36 0 .594-.062.906-.203l-.109-.234L-.094-.36l.188.515c.453-.344.61-.39.953-.39.234 0 .516.047 1 .156.594.125.89.172 1.14.172.126 0 .204-.016.61-.11.125-.656.203-.953.344-1.5h-.5l-.266.657c-.063.156 0 .093-.203.093-.219 0-.438-.062-.656-.093a5.038 5.038 0 00-.829-.11c-.312 0-.562.047-.921.188l.109.219L4.188-3.97l.062-.39zm0 0"/></svg></g><path d="M131.613 45.563h5" fill="none" stroke-width=".717" stroke="#000" stroke-miterlimit="10"/><g><svg overflow="visible" x="131.614" y="53.078"><path d="M4.75-.11c-.016-.187-.016-.265-.016-.39s0-.203.032-.547l-3.141.094 1.5-1.469c.938-.906 1.266-1.5 1.266-2.156 0-1.016-.891-1.781-2.125-1.781-.688 0-1.282.218-1.782.687L.297-4.266h.547l.172-.546c.156-.516.359-.594 1-.594.828 0 1.203.343 1.203 1.093 0 .657-.36 1.22-1.453 2.282L.078-.391v.422L2.391 0l2.375.031zm0 0"/></svg></g><g><svg overflow="visible" x="137.808" y="48.551"><path d="M4.484-2.36v-1.53c0-2.25-1.156-4.516-3.171-6.516-.11.203-.157.265-.22.328-.046.062-.109.11-.312.203 1.86 1.86 2.64 3.906 2.64 5.984v1.532c0 2.093-.78 4.125-2.64 6 .203.093.266.14.313.203.062.047.11.11.218.312 2.016-2 3.172-4.25 3.172-6.515zm0 0"/></svg></g></svg>