<svg xmlns="http://www.w3.org/2000/svg" xmlns:xlink="http://www.w3.org/1999/xlink" width="472" height="60" viewBox="0 0 354 45"><defs><symbol overflow="visible" id="a"><path d="M4.64 17.938v.64H1.329v-44.016h3.313v.641H2.547v42.734zm0 0"/></symbol><symbol overflow="visible" id="b"><path d="M3.266.094c-.844 0-1.477-.332-1.891-1C.957-1.57.75-2.578.75-3.922c0-.719.063-1.336.188-1.86.132-.53.316-.96.546-1.296.227-.344.5-.598.813-.766.32-.164.676-.25 1.062-.25.852 0 1.489.336 1.907 1 .414.657.625 1.653.625 2.985 0 1.386-.227 2.433-.672 3.14C4.769-.258 4.117.094 3.266.094zM1.906-4.11c0 1.28.114 2.218.344 2.812.238.594.61.89 1.11.89.468 0 .816-.28 1.046-.843.227-.563.344-1.426.344-2.594 0-.906-.063-1.633-.188-2.187-.117-.563-.277-.961-.484-1.203-.21-.239-.46-.36-.75-.36-.273 0-.5.086-.687.25-.18.157-.325.387-.438.688a4.958 4.958 0 0 0-.234 1.093c-.043.43-.063.915-.063 1.454zm0 0"/></symbol><symbol overflow="visible" id="c"><path d="M4.078-1.531c0 .23.008.402.031.515a.68.68 0 0 0 .141.282.572.572 0 0 0 .266.171c.125.043.273.075.453.094.187.024.43.04.734.047V0H1.375v-.422A8.17 8.17 0 0 0 2.297-.5c.187-.04.328-.094.422-.156a.516.516 0 0 0 .219-.281c.05-.125.078-.32.078-.594v-4.75c0-.157-.032-.27-.094-.344a.282.282 0 0 0-.235-.11c-.124 0-.304.07-.53.204-.231.125-.516.304-.86.531l-.25-.453 2.734-1.64h.328a27.34 27.34 0 0 0-.03 1.562zm0 0"/></symbol><symbol overflow="visible" id="d"><path d="M5.031-5.313l.547-.39.375.094-.86 3.718c-.093.368-.14.653-.14.86 0 .156.024.273.078.343.051.075.133.11.25.11a.61.61 0 0 0 .36-.14c.132-.102.328-.286.578-.548l.328.329c-.356.375-.656.64-.906.796a1.44 1.44 0 0 1-.797.235.748.748 0 0 1-.578-.235c-.149-.164-.22-.379-.22-.64 0-.219.04-.446.126-.688L4.109-1.5c-.375.555-.734.96-1.078 1.219-.336.25-.687.375-1.062.375-.43 0-.762-.16-1-.485-.242-.332-.36-.789-.36-1.375C.61-2.43.74-3.07 1-3.687c.27-.626.633-1.114 1.094-1.47a2.47 2.47 0 0 1 1.547-.546c.25 0 .484.031.703.094.226.054.457.152.687.296zm-.515 1.75a3.32 3.32 0 0 0 .078-.421c.008-.114.015-.239.015-.375 0-.301-.07-.52-.203-.657-.125-.144-.343-.218-.656-.218-.398 0-.758.164-1.078.484-.324.324-.574.762-.75 1.313a5.146 5.146 0 0 0-.266 1.624c0 .407.051.711.157.907.113.199.3.297.562.297.258 0 .516-.11.766-.329.25-.218.504-.535.765-.953.258-.414.446-.89.563-1.421zm0 0"/></symbol><symbol overflow="visible" id="e"><path d="M1.453-.281L.922.094.547 0l1.515-6.703c.083-.395.126-.68.126-.86 0-.164-.055-.28-.157-.343-.094-.07-.273-.11-.531-.11l.078-.312 1.484-.047h.344L2.375-4.281l.063.031c.382-.508.742-.879 1.078-1.11.332-.226.66-.343.984-.343.426 0 .758.168 1 .5.238.324.36.777.36 1.36 0 .648-.133 1.28-.391 1.905-.262.625-.625 1.122-1.094 1.485a2.39 2.39 0 0 1-1.531.547c-.524 0-.985-.125-1.39-.375zm.516-1.766a3.68 3.68 0 0 0-.094.797c0 .313.066.54.203.672.133.137.36.203.672.203.164 0 .316-.023.453-.078.145-.05.29-.133.438-.25.156-.125.3-.285.437-.485a4.08 4.08 0 0 0 .375-.718c.113-.29.203-.602.266-.938.062-.332.093-.648.093-.953 0-.406-.058-.707-.171-.906-.118-.207-.305-.313-.563-.313a.934.934 0 0 0-.547.188c-.18.117-.383.312-.61.594a4.772 4.772 0 0 0-.546.843 5.612 5.612 0 0 0-.36 1.11zm0 0"/></symbol><symbol overflow="visible" id="f"><path d="M.266 18.578v-.64h2.078v-42.735H.266v-.64h3.296v44.015zm0 0"/></symbol><symbol overflow="visible" id="g"><path d="M1.688-4.14c.207 0 .375.07.5.202.124.126.187.297.187.516 0 .211-.063.383-.188.516a.678.678 0 0 1-.5.187c-.199 0-.359-.062-.484-.187a.722.722 0 0 1-.187-.516c0-.219.062-.39.187-.515a.636.636 0 0 1 .484-.204zm0 0"/></symbol><symbol overflow="visible" id="h"><path d="M2.797-2.656a65.21 65.21 0 0 0-.188-.875c-.062-.29-.125-.555-.187-.797-.063-.25-.121-.41-.172-.484-.043-.083-.09-.133-.14-.157a.289.289 0 0 0-.172-.047.477.477 0 0 0-.235.063.787.787 0 0 0-.219.187 4.023 4.023 0 0 0-.296.422l-.391-.25c.25-.375.488-.648.719-.828.226-.187.492-.281.796-.281.126 0 .227.016.313.047a.604.604 0 0 1 .25.125c.07.054.133.125.188.218.05.086.101.204.156.36.05.156.097.351.14.578.051.23.094.469.125.719h.063c.375-.531.656-.914.844-1.156.195-.25.363-.43.5-.547.132-.125.257-.207.375-.25.125-.051.289-.079.5-.079.175 0 .328.024.453.063l-.235 1.063h-.421c-.024-.165-.09-.25-.204-.25a.26.26 0 0 0-.109.03.64.64 0 0 0-.156.079 1.516 1.516 0 0 0-.25.219 10.63 10.63 0 0 0-.36.421c-.136.157-.277.329-.421.516l-.391.5c.07.375.14.7.203.969l.156.687c.051.18.094.32.125.422.04.106.082.184.125.235a.32.32 0 0 0 .125.109.474.474 0 0 0 .469-.078c.102-.082.25-.27.438-.563l.375.25c-.274.407-.516.696-.735.86-.219.164-.484.25-.797.25A.864.864 0 0 1 3.734 0a.958.958 0 0 1-.312-.281c-.086-.133-.156-.344-.219-.625-.125-.5-.2-.883-.219-1.156h-.062c-.418.585-.73 1.007-.938 1.265-.199.25-.367.438-.5.563-.125.117-.25.199-.375.25C.992.066.832.094.625.094.445.094.297.066.172.016l.234-1.063h.422c.02.168.086.25.203.25.051 0 .11-.015.172-.047a1.1 1.1 0 0 0 .25-.203c.113-.113.27-.289.469-.531.207-.238.5-.598.875-1.078zm0 0"/></symbol><symbol overflow="visible" id="i"><path d="M2.86.016a55.642 55.642 0 0 0-.454-2.485A59.384 59.384 0 0 0 2-4.375c-.086-.3-.172-.492-.266-.578a.34.34 0 0 0-.203-.063.54.54 0 0 0-.36.157c-.105.093-.234.265-.39.515l-.39-.25c.27-.406.52-.691.75-.86.238-.163.504-.25.796-.25.157 0 .29.028.407.079.082.031.16.086.234.156a.699.699 0 0 1 .203.297c.063.125.114.274.156.438.051.156.102.386.157.687.094.5.18 1.031.265 1.594.094.555.172 1.07.235 1.547.375-.551.691-1.086.953-1.61.27-.52.46-.972.578-1.359.113-.383.172-.703.172-.953 0-.176-.043-.297-.125-.36-.074-.07-.203-.113-.39-.125l.062-.296h1.531l.172.296a20.29 20.29 0 0 1-1.219 2.61C4.828-1.797 4.254-.895 3.61 0c-.617.863-1.125 1.484-1.53 1.86-.294.257-.571.445-.829.562-.21.094-.434.14-.672.14-.086 0-.183-.011-.297-.03a1.012 1.012 0 0 1-.234-.048l.25-1.14H.75c0 .25.086.375.266.375.226 0 .488-.14.78-.422.302-.281.657-.711 1.063-1.281zm0 0"/></symbol><symbol overflow="visible" id="j"><path d="M4.86-1.64L4.5 0H.266L.14-.281l3.218-3.703c.446-.52.774-.891.985-1.11l-.032-.031H2.938c-.199 0-.343.016-.437.047a.792.792 0 0 0-.281.14c-.094.063-.2.165-.313.297a4.167 4.167 0 0 0-.36.579h-.515l.344-1.547h4.172l.11.296-2.798 3.22A169.64 169.64 0 0 1 1.453-.517l.031.047h1.329c.226 0 .406-.008.53-.031a.852.852 0 0 0 .329-.156c.094-.07.187-.176.281-.313.102-.144.235-.367.39-.672zm0 0"/></symbol><symbol overflow="visible" id="k"><path d="M.875-4.25v-.781h7.219v.781zm0 2.422v-.781h7.219v.78zm7.469-1.594zm0 0"/></symbol><symbol overflow="visible" id="l"><path d="M4.906-3.047V.328h-.843v-3.375H.874v-.781h3.188v-3.375h.843v3.375h3.188v.781zm0 0"/></symbol></defs><use xlink:href="#a" x="-.418" y="25.967"/><use xlink:href="#b" x="9.443" y="10.998"/><use xlink:href="#c" x="16.066" y="10.998"/><use xlink:href="#b" x="32.648" y="10.998"/><use xlink:href="#d" x="49.23" y="10.998"/><use xlink:href="#b" x="12.753" y="25.444"/><use xlink:href="#c" x="32.646" y="25.444"/><use xlink:href="#e" x="49.348" y="25.444"/><use xlink:href="#b" x="12.753" y="39.89"/><use xlink:href="#b" x="32.646" y="39.89"/><use xlink:href="#c" x="49.396" y="39.89"/><use xlink:href="#f" x="61.162" y="25.967"/><use xlink:href="#g" x="68.699" y="25.97"/><use xlink:href="#a" x="74.729" y="25.967"/><use xlink:href="#h" x="90.335" y="10.998"/><use xlink:href="#i" x="90.251" y="25.444"/><use xlink:href="#j" x="79.609" y="39.89"/><use xlink:href="#k" x="88.898" y="39.89"/><use xlink:href="#c" x="101.152" y="39.89"/><use xlink:href="#f" x="107.786" y="25.967"/><use xlink:href="#k" x="115.987" y="25.97"/><use xlink:href="#a" x="128.239" y="25.967"/><use xlink:href="#c" x="133.119" y="10.998"/><use xlink:href="#g" x="142.396" y="10.998"/><use xlink:href="#h" x="148.422" y="10.998"/><use xlink:href="#l" x="157.795" y="10.998"/><use xlink:href="#b" x="169.391" y="10.998"/><use xlink:href="#g" x="178.668" y="10.998"/><use xlink:href="#i" x="184.694" y="10.998"/><use xlink:href="#l" x="194.246" y="10.998"/><use xlink:href="#d" x="205.842" y="10.998"/><use xlink:href="#g" x="215.443" y="10.998"/><use xlink:href="#j" x="221.48" y="10.998"/><use xlink:href="#b" x="133.242" y="25.444"/><use xlink:href="#g" x="142.519" y="25.444"/><use xlink:href="#h" x="148.545" y="25.444"/><use xlink:href="#l" x="157.918" y="25.444"/><use xlink:href="#c" x="169.514" y="25.444"/><use xlink:href="#g" x="178.791" y="25.444"/><use xlink:href="#i" x="184.817" y="25.444"/><use xlink:href="#l" x="194.369" y="25.444"/><use xlink:href="#e" x="205.965" y="25.444"/><use xlink:href="#g" x="215.326" y="25.444"/><use xlink:href="#j" x="221.352" y="25.444"/><use xlink:href="#b" x="133.286" y="39.89"/><use xlink:href="#g" x="142.563" y="39.89"/><use xlink:href="#h" x="148.589" y="39.89"/><use xlink:href="#l" x="157.962" y="39.89"/><use xlink:href="#b" x="169.558" y="39.89"/><use xlink:href="#g" x="178.835" y="39.89"/><use xlink:href="#i" x="184.861" y="39.89"/><use xlink:href="#l" x="194.413" y="39.89"/><use xlink:href="#c" x="206.009" y="39.89"/><use xlink:href="#g" x="215.287" y="39.89"/><use xlink:href="#j" x="221.312" y="39.89"/><use xlink:href="#f" x="227.465" y="25.967"/><use xlink:href="#k" x="235.666" y="25.97"/><use xlink:href="#a" x="247.919" y="25.967"/><use xlink:href="#h" x="252.799" y="10.998"/><use xlink:href="#l" x="262.172" y="10.998"/><use xlink:href="#d" x="273.756" y="10.998"/><use xlink:href="#g" x="283.368" y="10.998"/><use xlink:href="#c" x="289.394" y="10.998"/><use xlink:href="#i" x="252.837" y="25.444"/><use xlink:href="#l" x="262.389" y="25.444"/><use xlink:href="#e" x="273.974" y="25.444"/><use xlink:href="#g" x="283.335" y="25.444"/><use xlink:href="#c" x="289.36" y="25.444"/><use xlink:href="#c" x="263.768" y="39.89"/><use xlink:href="#g" x="273.045" y="39.89"/><use xlink:href="#j" x="279.071" y="39.89"/><use xlink:href="#f" x="296.028" y="25.967"/><use xlink:href="#k" x="304.229" y="25.97"/><use xlink:href="#a" x="316.481" y="25.967"/><use xlink:href="#h" x="321.489" y="10.998"/><use xlink:href="#l" x="330.862" y="10.998"/><use xlink:href="#d" x="342.446" y="10.998"/><use xlink:href="#i" x="321.527" y="25.444"/><use xlink:href="#l" x="331.079" y="25.444"/><use xlink:href="#e" x="342.664" y="25.444"/><use xlink:href="#j" x="321.362" y="39.89"/><use xlink:href="#k" x="330.651" y="39.89"/><use xlink:href="#c" x="342.905" y="39.89"/><g><use xlink:href="#f" x="349.538" y="25.967"/></g></svg>