<svg xmlns="http://www.w3.org/2000/svg" xmlns:xlink="http://www.w3.org/1999/xlink" width="61pt" height="28pt" viewBox="0 0 61 28"><defs><symbol overflow="visible" id="a"><path d="M7.64.031V-.28c-.484-.063-.624-.156-.952-.656L4.483-4.235c.657-.11 1-.266 1.438-.579.687-.5 1.062-1.156 1.062-1.875 0-1.03-1.109-1.578-2.093-1.578-.594 0-1.204.032-1.797.032l-1.797-.032-.047.329.672.03c.297 0 .422.095.422.313 0 .172-.047.547-.11.907L1.344-1.5C1.14-.406 1.125-.375.64-.328l-.485.031L.11.031 1.688 0l1.468.031.031-.328-.578-.031c-.328-.031-.437-.125-.437-.36 0-.109.015-.218.047-.421l1.015-5.829.11-.468.094-.344c.343-.063.578-.094.906-.094 1.031 0 1.578.469 1.578 1.36C5.922-5.36 5-4.516 3.75-4.516h-.516l-.046.125C4.796-2.062 5.155-1.484 6.062.031 6.36.016 6.641 0 6.938 0c.25 0 .47.016.704.031zm0 0"/></symbol><symbol overflow="visible" id="b"><path d="M4.11-7.61a.735.735 0 0 1-.188-.14c-.063-.063-.11-.11-.14-.188-1.47 1.47-2.345 3.032-2.345 4.563v.781c0 1.516.875 3.078 2.344 4.547a.735.735 0 0 1 .14-.187.735.735 0 0 1 .188-.141C2.781.281 2.156-1.203 2.156-2.594v-.781c0-1.39.625-2.89 1.953-4.234zm0 0"/></symbol><symbol overflow="visible" id="c"><path d="M3.703-5.266c-.453.047-.86.079-1.312.079.187-1.125.328-1.704.53-2.36l-.124-.172c-.235.14-.563.282-.938.422l-.296 2.031c-.516.25-.829.391-1.047.454l-.032.156H1.5L.828-1.281c-.062.297-.156.593-.156.906 0 .297.125.484.36.484.421 0 .827-.234 1.765-1 .219-.156.14-.109.375-.296l-.125-.22-.531.376c-.36.25-.594.36-.735.36-.093 0-.156-.095-.156-.235 0-.313.14-1.25.516-3.016l.156-.734h1.281zm0 0"/></symbol><symbol overflow="visible" id="d"><path d="M3.64-2.594v-.781c0-1.531-.874-3.094-2.343-4.563-.047.079-.094.125-.156.188a.427.427 0 0 1-.188.14c1.328 1.344 1.969 2.844 1.969 4.235v.781c0 1.39-.64 2.875-1.969 4.219.078.031.14.078.188.14.062.063.109.126.156.188C2.766.484 3.64-1.078 3.64-2.594zm0 0"/></symbol><symbol overflow="visible" id="e"><path d="M8.125-3.938c-.016-.124-.031-.25-.031-.359 0-.125.015-.25.031-.36H.953c.031.11.031.235.031.36 0 .11 0 .234-.03.36zm0 2.626c-.016-.125-.031-.235-.031-.36s.015-.234.031-.36H.953a1.4 1.4 0 0 1 .031.36c0 .125 0 .234-.03.36zm0 0"/></symbol><symbol overflow="visible" id="f"><path d="M5 .031v-.36l-.625-.03c-.656-.032-.781-.172-.781-.782v-7.093l-.156-.063c-.782.406-1.626.766-2.72 1.156l.079.5h.125l1.547-.687.031-.016c.063 0 .094.11.094.407v5.796c0 .61-.125.75-.781.782l-.672.03v.36L3.125 0zm0 0"/></symbol><symbol overflow="visible" id="g"><path d="M6.281-5.656a1.98 1.98 0 0 0-.562-.11c-.782 0-1.828.907-3.407 3l.204-.78c.062-.282.171-.75.25-1.017l.093-.312c.063-.219.094-.36.094-.5.016-.25-.078-.375-.25-.375-.25 0-.719.234-1.64.875l-.329.234.063.235.39-.25c.36-.203.485-.266.594-.266.125 0 .188.11.188.25-.032.703-.657 3.156-1.203 4.703L.875.11l.797-.203.375-1.61c.11-.53.437-1.015.844-1.39C3.609-.704 3.953.11 4.25.11c.156 0 .438-.156 1-.53l.563-.376-.094-.234-.516.297c-.187.093-.25.109-.36.109-.124 0-.187-.063-.296-.266-.39-.765-.61-1.421-1.016-2.89l.172-.156C4.47-4.673 5.031-4.97 5.625-4.97c.11 0 .234.016.438.063zm0 0"/></symbol></defs><use xlink:href="#a" x=".463" y="17.538"/><use xlink:href="#b" x="8.437" y="17.538"/><use xlink:href="#c" x="13.506" y="17.538"/><use xlink:href="#d" x="17.535" y="17.538"/><use xlink:href="#e" x="25.928" y="17.538"/><use xlink:href="#f" x="46.952" y="8.929"/><path d="M39.54 14.55h20.804" fill="none" stroke-width=".717" stroke="#000" stroke-miterlimit="10"/><use xlink:href="#g" x="39.54" y="25.501"/><g><use xlink:href="#b" x="46.151" y="25.501"/><use xlink:href="#c" x="51.22" y="25.501"/></g><g><use xlink:href="#d" x="55.261" y="25.501"/></g></svg>