<svg xmlns="http://www.w3.org/2000/svg" xmlns:xlink="http://www.w3.org/1999/xlink" width="355pt" height="43pt" viewBox="0 0 355 43"><defs><symbol overflow="visible" id="a"><path d="M8.266-4.078a1.419 1.419 0 0 1-.047-.36c0-.109.015-.234.062-.484h-7.5c.063.25.063.375.063.484 0 .125 0 .235-.063.5h7.5zm0 2.625a1.332 1.332 0 0 1-.047-.36c0-.109.015-.234.062-.484h-7.5c.063.25.063.375.063.485 0 .125 0 .25-.063.5h7.5zm0 0"/></symbol><symbol overflow="visible" id="b"><path d="M4.406-9.766c-.015-.078-.031-.156-.031-.234 0-.094.016-.172.078-.375H1.375V4.141h3.078c-.062-.204-.078-.297-.078-.375 0-.079.016-.172.078-.375H2.437V-9.641h2.016zm0 0"/></symbol><symbol overflow="visible" id="c"><path d="M5.125-.094v-.484l-.75-.047c-.656-.031-.64-.031-.64-.656v-7.172l-.313-.125c-.875.469-1.61.781-2.86 1.219l.125.718h.235l1.547-.687.031-.016c.063 0-.047-.015-.047.266v5.797c0 .625.016.625-.64.656L1-.578v.625L3.125 0l2 .047zm0 0"/></symbol><symbol overflow="visible" id="d"><path d="M3.703-5.516c-.453.047-.86.063-1.156.063.172-.984.297-1.578.531-2.25l-.25-.328a7.16 7.16 0 0 1-1.094.531l-.296 2.031c-.391.203-.704.328-1.063.407l-.047.406h1l-.64 3.25C.625-1.11.53-.813.53-.5c0 .297.266.61.5.61.422 0 .922-.282 1.86-1.032.218-.172.14-.125.437-.36l-.25-.437-.672.469c-.36.25-.484.313-.625.313-.093 0-.031.046-.031-.11 0-.297.156-1.234.516-3l.14-.61h1.266l.203-.89zm0 0"/></symbol><symbol overflow="visible" id="f"><path d="M3.906 4v-14.375H.828c.063.203.078.281.078.375 0 .078-.015.156-.078.36h2.016V3.39H.828c.063.204.078.297.078.376 0 .078-.015.171-.078.375h3.078zm0 0"/></symbol><symbol overflow="visible" id="g"><path d="M2.516-3.125c0-.422-.407-.844-.844-.844-.422 0-.86.422-.86.844 0 .438.438.86.86.86.437 0 .844-.422.844-.86zm0 0"/></symbol><symbol overflow="visible" id="h"><path d="M5.078-14.781H1.562V0h1.235v-14.031h2.469c-.079-.203-.094-.281-.094-.375 0-.078.016-.172.094-.375zm0 0"/></symbol><symbol overflow="visible" id="i"><path d="M2.672-9.938h-1.11V0h1.235v-9.938zm0 0"/></symbol><symbol overflow="visible" id="j"><path d="M5.219-.125a.648.648 0 0 1-.047-.25c0-.078.016-.156.094-.36h-2.47V-14.78H1.564V0h3.703zm0 0"/></symbol><symbol overflow="visible" id="k"><path d="M5.688-4.5c0-2.625-.907-4-2.547-4C1.297-8.5.203-6.89.203-4c0 1.39.281 2.703.703 3.281.422.594 1.203.953 1.938.953 1.812 0 2.844-1.687 2.844-4.734zm-1.282.594C4.406-1.36 4.094-.437 3-.437c-1.156 0-1.516-1.079-1.516-4 0-2.516.313-3.375 1.438-3.375 1.172 0 1.484 1.03 1.484 3.906zm0 0"/></symbol><symbol overflow="visible" id="l"><path d="M8.266-2.766a1.332 1.332 0 0 1-.047-.359c0-.11.015-.234.062-.484h-7.5c.063.25.063.375.063.484 0 .125 0 .25-.063.5h7.5zm0 0"/></symbol><symbol overflow="visible" id="m"><path d="M5.719-.094c-.016-.25-.016-.375-.016-.547 0-.14 0-.265.031-.671l-4.28.125.093.234 2.187-2.313C4.891-4.5 5.281-5.25 5.281-6.14 5.281-7.516 4.22-8.5 2.703-8.5c-.86 0-1.562.281-2.172.906L.312-5.766h.594l.188-.687c.203-.688.5-.86 1.297-.86 1.03 0 1.546.516 1.546 1.532 0 .89-.468 1.687-1.828 3.11L.047-.454v.5L2.859 0l2.875.047zm0 0"/></symbol><symbol overflow="visible" id="n"><path d="M4.656-.125v-14.656H.953c.078.203.094.297.094.375 0 .094-.016.172-.094.375h2.469V0h1.234zm0 0"/></symbol><symbol overflow="visible" id="o"><path d="M4.656-.125v-9.813H3.422V0h1.234zm0 0"/></symbol><symbol overflow="visible" id="p"><path d="M4.656-.125v-14.656H3.422V-.734H.953c.078.203.094.28.094.359 0 .094-.016.172-.094.375h3.703zm0 0"/></symbol><symbol overflow="visible" id="q"><path d="M7.063-14.328l-.188-.14c-.063-.063-.11-.126-.219-.329C3.47-11.609 1.563-7.344 1.563-2.516V0h1.234v-2.516c0-4.625 1.344-8.687 4.39-11.75zm0 0"/></symbol><symbol overflow="visible" id="r"><path d="M2.797-.125V-5H1.562v5h1.235zm0 0"/></symbol><symbol overflow="visible" id="s"><path d="M7.063-.563C4.14-3.5 2.796-7.546 2.796-12.187v-2.516H1.562v2.515c0 4.829 1.907 9.094 5.094 12.282.11-.203.157-.266.219-.328.063-.047.125-.094.313-.203zm0 0"/></symbol><symbol overflow="visible" id="t"><path d="M4.203-7.828a.735.735 0 0 1-.187-.14c-.063-.063-.11-.126-.22-.329-1.593 1.61-2.5 3.266-2.5 4.781v.797c0 1.516.907 3.172 2.5 4.781.11-.203.157-.265.22-.328.062-.062.125-.109.312-.203C2.875.063 2.281-1.344 2.281-2.719v-.797c0-1.39.594-2.78 2.047-4.25zm0 0"/></symbol><symbol overflow="visible" id="u"><path d="M5.063-5.875l-.204-.203-.375.36c-.125.124-.14.14-.296.14-.407 0-1.032-.094-1.61-.25-.312-.094-.625-.203-.953-.203-.203 0-.438.047-.844.156L.328-4.187h.516l.36-.704c.124-.03.234-.046.39-.046s.297.015.531.062c.406.078.719.125.969.125.437 0 .812-.11 1.203-.313l-.203-.203L-.172-.422l.203.594c.5-.406.735-.484 1.157-.484.296 0 .625.046 1.25.203.718.171 1.093.234 1.406.234.156 0 .25-.016.703-.14.156-.844.266-1.25.422-1.938h-.516l-.312.844c-.094.218-.079.171-.329.171-.265 0-.53-.078-.796-.14-.391-.078-.797-.14-1.032-.14-.375 0-.703.077-1.14.25l.094.234 4.078-4.61.093-.484zm0 0"/></symbol><symbol overflow="visible" id="v"><path d="M3.766-2.719v-.797c0-1.515-.907-3.171-2.516-4.78-.11.202-.156.265-.203.327-.063.063-.125.11-.313.203 1.438 1.47 2.032 2.86 2.032 4.25v.797c0 1.375-.594 2.781-2.032 4.25.188.094.25.14.313.203.047.063.094.125.203.329C2.86.452 3.766-1.204 3.766-2.72zm0 0"/></symbol><symbol overflow="visible" id="w"><path d="M7.234-6.594c0-1.218-1.265-1.937-2.312-1.937-.547 0-1.094.031-1.64.031l-2.126-.047-.062.61.812.03c.297 0 .282-.03.282.188 0 .172-.047.532-.11.907l-.89 5.187C1-.531 1.125-.641.64-.594l-.61.031-.093.61L1.688 0l1.78.047.063-.61-.922-.03c-.312-.016-.296.015-.296-.235 0-.11 0-.188.046-.422l.97-5.813-.032.094s.078-.343.14-.578c.016-.062.047-.172.063-.203.328-.063.516-.094.75-.094 1.219 0 1.656.39 1.656 1.516 0 1.281-.718 2.203-1.765 2.203-.266 0-.5-.063-1.11-.281l.047.625c.578.281.813.344 1.172.344 1.531 0 2.984-1.532 2.984-3.157zm0 0"/></symbol><symbol overflow="visible" id="z"><path d="M6.531-.125v-2.39c0-4.829-1.875-9.094-5.078-12.282-.11.203-.156.266-.219.328-.062.047-.125.094-.312.203 3.062 3.063 4.39 7.125 4.39 11.75V0h1.22zm0 0"/></symbol><symbol overflow="visible" id="A"><path d="M6.531-.125V-5H5.313v5H6.53zm0 0"/></symbol><symbol overflow="visible" id="B"><path d="M6.531-12.188v-2.515H5.313v2.515C5.313-7.546 3.984-3.5.921-.438c.187.11.25.157.312.204.063.062.11.125.22.328C4.655-3.094 6.53-7.36 6.53-12.187zm0 0"/></symbol><symbol overflow="visible" id="e"><path d="M4.75-.11c-.016-.187-.016-.265-.016-.39s0-.203.032-.547l-3.141.094 1.5-1.469c.938-.922 1.281-1.5 1.281-2.172 0-1.015-.906-1.781-2.14-1.781-.688 0-1.282.219-1.782.703l-.187 1.39h.547l.172-.53c.156-.516.359-.61 1-.61.843 0 1.203.344 1.203 1.094 0 .672-.36 1.234-1.453 2.297L.078-.391v.422L2.406 0l2.36.031zm0 0"/></symbol><symbol overflow="visible" id="x"><path d="M4.281-.11V-.5l-.656-.031c-.531-.031-.484.015-.484-.453v-5.344l-.282-.094c-.625.313-1.312.578-2.375.906l.125.594h.22l1.25-.516h.03c.047 0-.078-.062-.078.157v4.297c0 .468.047.421-.469.453L.86-.5v.531L2.61 0l1.672.031zm0 0"/></symbol><symbol overflow="visible" id="y"><path d="M4.703-2.125c0-.422-.234-.89-.578-1.11a2.69 2.69 0 0 0-.719-.296c.531-.36.875-.875.875-1.39 0-.798-.875-1.454-1.937-1.454-.656 0-1.203.203-1.703.656L.312-4.406h.594l.219-.64c.11-.298.563-.47 1.078-.47.61 0 .969.344.969.907 0 .656-.406 1.078-1.094 1.078-.078 0-.344.203-.344.203l-.265-.094-.125.531.203.141c.39-.172.578-.203.844-.203.796 0 1.093.328 1.093 1.14 0 .907-.421 1.36-1.328 1.36-.437 0-.719-.094-1.015-.344C.906-1 .828-1.094.578-1.75l-.531.188c.234.609.312.937.375 1.468C1.078.11 1.5.172 1.875.172c.766 0 1.75-.422 2.281-1.016.328-.375.547-.86.547-1.281zm0 0"/></symbol></defs><use xlink:href="#a" x="-.241" y="25.4"/><use xlink:href="#b" x="12.157" y="25.4"/><use xlink:href="#c" x="17.462" y="25.411"/><use xlink:href="#d" x="33.398" y="25.411"/><use xlink:href="#d" x="47.398" y="25.411"/><use xlink:href="#e" x="51.447" y="21.178"/><use xlink:href="#f" x="56.947" y="25.4"/><use xlink:href="#g" x="64.897" y="25.4"/><use xlink:href="#h" x="70.904" y="17.407"/><use xlink:href="#i" x="70.904" y="24.702"/><use xlink:href="#i" x="70.904" y="29.804"/><use xlink:href="#j" x="70.904" y="41.929"/><use xlink:href="#c" x="81.675" y="10.855"/><use xlink:href="#k" x="106.697" y="10.855"/><use xlink:href="#k" x="127.176" y="10.855"/><use xlink:href="#l" x="77.133" y="25.3"/><use xlink:href="#m" x="86.219" y="25.3"/><use xlink:href="#m" x="106.698" y="25.3"/><use xlink:href="#k" x="127.177" y="25.3"/><use xlink:href="#c" x="81.676" y="39.746"/><use xlink:href="#l" x="102.155" y="39.746"/><use xlink:href="#m" x="111.241" y="39.746"/><use xlink:href="#c" x="127.177" y="39.746"/><use xlink:href="#n" x="133.162" y="17.407"/><use xlink:href="#o" x="133.162" y="24.702"/><use xlink:href="#o" x="133.162" y="29.804"/><use xlink:href="#p" x="133.162" y="41.929"/><use xlink:href="#g" x="142.048" y="25.4"/><use xlink:href="#q" x="148.052" y="17.232"/><use xlink:href="#r" x="148.052" y="21.229"/><use xlink:href="#r" x="148.052" y="24.778"/><use xlink:href="#r" x="148.052" y="28.328"/><use xlink:href="#s" x="148.052" y="42.032"/><use xlink:href="#h" x="156.169" y="17.304"/><use xlink:href="#i" x="156.169" y="24.65"/><use xlink:href="#i" x="156.169" y="29.857"/><use xlink:href="#j" x="156.169" y="42.032"/><use xlink:href="#t" x="162.398" y="10.965"/><use xlink:href="#u" x="167.467" y="10.965"/><use xlink:href="#l" x="175.429" y="10.965"/><use xlink:href="#c" x="187.169" y="10.965"/><use xlink:href="#v" x="193.147" y="10.965"/><use xlink:href="#e" x="198.221" y="6.733"/><use xlink:href="#l" x="213.684" y="10.965"/><use xlink:href="#m" x="222.77" y="10.965"/><use xlink:href="#g" x="231.402" y="10.965"/><use xlink:href="#u" x="237.403" y="10.965"/><use xlink:href="#g" x="245.365" y="10.965"/><use xlink:href="#t" x="251.367" y="10.965"/><use xlink:href="#u" x="256.436" y="10.965"/><use xlink:href="#l" x="264.41" y="10.965"/><use xlink:href="#c" x="276.15" y="10.965"/><use xlink:href="#v" x="282.128" y="10.965"/><use xlink:href="#u" x="297.155" y="10.965"/><use xlink:href="#e" x="302.471" y="6.733"/><use xlink:href="#k" x="180.071" y="25.411"/><use xlink:href="#l" x="227.988" y="25.41"/><use xlink:href="#t" x="237.074" y="25.41"/><use xlink:href="#u" x="242.143" y="25.41"/><use xlink:href="#l" x="250.105" y="25.41"/><use xlink:href="#c" x="261.845" y="25.41"/><use xlink:href="#v" x="267.823" y="25.41"/><use xlink:href="#u" x="299.91" y="25.41"/><use xlink:href="#k" x="180.071" y="39.856"/><use xlink:href="#k" x="247.454" y="39.856"/><use xlink:href="#c" x="299.579" y="39.856"/><use xlink:href="#n" x="307.972" y="17.304"/><use xlink:href="#o" x="307.972" y="24.65"/><use xlink:href="#o" x="307.972" y="29.857"/><use xlink:href="#p" x="307.972" y="42.032"/><use xlink:href="#g" x="316.857" y="25.4"/><use xlink:href="#h" x="322.861" y="17.407"/><use xlink:href="#i" x="322.861" y="24.702"/><use xlink:href="#i" x="322.861" y="29.804"/><use xlink:href="#j" x="322.861" y="41.929"/><use xlink:href="#w" x="329.09" y="10.855"/><use xlink:href="#x" x="336.394" y="13.628"/><use xlink:href="#w" x="329.09" y="25.3"/><use xlink:href="#e" x="336.394" y="28.074"/><use xlink:href="#w" x="329.09" y="39.746"/><g><use xlink:href="#y" x="336.394" y="42.52"/></g><g><use xlink:href="#n" x="341.895" y="17.407"/></g><g><use xlink:href="#o" x="341.895" y="24.702"/></g><g><use xlink:href="#o" x="341.895" y="29.804"/></g><g><use xlink:href="#p" x="341.895" y="41.929"/></g><g><use xlink:href="#z" x="348.123" y="17.232"/></g><g><use xlink:href="#A" x="348.123" y="21.229"/></g><g><use xlink:href="#A" x="348.123" y="24.778"/></g><g><use xlink:href="#A" x="348.123" y="28.328"/></g><g><use xlink:href="#B" x="348.123" y="42.032"/></g></svg>