<svg xmlns="http://www.w3.org/2000/svg" xmlns:xlink="http://www.w3.org/1999/xlink" width="355pt" height="43pt" viewBox="0 0 355 43"><defs><symbol overflow="visible" id="a"><path d="M8.125-3.938c-.016-.124-.031-.25-.031-.359 0-.125.015-.25.031-.36H.953c.031.11.031.235.031.36 0 .11 0 .234-.03.36zm0 2.626c-.016-.125-.031-.235-.031-.36s.015-.234.031-.36H.953a1.4 1.4 0 0 1 .031.36c0 .125 0 .234-.03.36zm0 0"/></symbol><symbol overflow="visible" id="b"><path d="M4.281-9.64c-.031-.063-.031-.157-.031-.235 0-.078 0-.172.031-.234H1.516V4.14H4.28c-.031-.079-.031-.157-.031-.25 0-.079 0-.157.031-.235H2.313V-9.64zm0 0"/></symbol><symbol overflow="visible" id="c"><path d="M5 .031v-.36l-.625-.03c-.656-.032-.781-.172-.781-.782v-7.093l-.156-.063c-.782.406-1.626.766-2.72 1.156l.079.5h.125l1.547-.687.031-.016c.063 0 .094.11.094.407v5.796c0 .61-.125.75-.781.782l-.672.03v.36L3.125 0zm0 0"/></symbol><symbol overflow="visible" id="d"><path d="M3.703-5.266c-.453.047-.86.079-1.312.079.187-1.125.328-1.704.53-2.36l-.124-.172c-.235.14-.563.282-.938.422l-.296 2.031c-.516.25-.829.391-1.047.454l-.032.156H1.5L.828-1.281c-.062.297-.156.593-.156.906 0 .297.125.484.36.484.421 0 .827-.234 1.765-1 .219-.156.14-.109.375-.296l-.125-.22-.531.376c-.36.25-.594.36-.735.36-.093 0-.156-.095-.156-.235 0-.313.14-1.25.516-3.016l.156-.734h1.281zm0 0"/></symbol><symbol overflow="visible" id="f"><path d="M3.781 4.14v-14.25H1.016a.57.57 0 0 1 .03.235c0 .078 0 .172-.03.234h1.968V3.656H1.016a.607.607 0 0 1 .03.235c0 .093 0 .171-.03.25zm0 0"/></symbol><symbol overflow="visible" id="g"><path d="M2.39-2.984c0-.438-.28-.72-.718-.72-.422 0-.719.282-.719.72 0 .421.297.718.719.718.437 0 .719-.296.719-.718zm0 0"/></symbol><symbol overflow="visible" id="h"><path d="M5.078-14.516H1.703V0h.969v-14.031h2.406c-.016-.078-.031-.156-.031-.235 0-.093.016-.171.031-.25zm0 0"/></symbol><symbol overflow="visible" id="i"><path d="M2.672-9.688h-.969V0h.969zm0 0"/></symbol><symbol overflow="visible" id="j"><path d="M5.078 0c-.016-.078-.031-.156-.031-.234 0-.094.016-.172.031-.25H2.672v-14.032h-.969V0zm0 0"/></symbol><symbol overflow="visible" id="k"><path d="M5.563-4.375c0-2.625-.782-3.86-2.422-3.86-1.844 0-2.797 1.47-2.797 4.36 0 1.406.25 2.61.672 3.188.421.593 1.093.921 1.828.921 1.812 0 2.719-1.546 2.719-4.609zm-1.016.594c0 2.547-.453 3.61-1.547 3.61-1.156 0-1.656-1.22-1.656-4.126 0-2.531.453-3.516 1.578-3.516 1.172 0 1.625 1.172 1.625 4.032zm0 0"/></symbol><symbol overflow="visible" id="l"><path d="M8.125-2.625c-.016-.125-.031-.25-.031-.36 0-.124.015-.25.031-.359H.953c.031.11.031.235.031.36 0 .109 0 .234-.03.359zm0 0"/></symbol><symbol overflow="visible" id="m"><path d="M5.594.031c-.032-.25-.032-.36-.032-.531 0-.156 0-.281.032-.547l-4.14.125L3.64-3.234c1.156-1.22 1.515-1.875 1.515-2.782 0-1.375-.937-2.218-2.453-2.218-.86 0-1.453.234-2.031.828l-.203 1.64h.344l.156-.562c.187-.688.625-.984 1.422-.984 1.03 0 1.687.64 1.687 1.656 0 .906-.5 1.781-1.86 3.218L.189-.28V.03L2.858 0zm0 0"/></symbol><symbol overflow="visible" id="n"><path d="M4.516 0v-14.516H1.14a.648.648 0 0 1 0 .485h2.421V0zm0 0"/></symbol><symbol overflow="visible" id="o"><path d="M4.516 0v-9.688h-.954V0zm0 0"/></symbol><symbol overflow="visible" id="p"><path d="M4.516 0v-14.516h-.954V-.484H1.142a.648.648 0 0 1 0 .484zm0 0"/></symbol><symbol overflow="visible" id="q"><path d="M6.969-14.11c-.078-.03-.125-.078-.188-.14a.735.735 0 0 1-.14-.188C3.578-11.374 1.703-7.202 1.703-2.374V0h.969v-2.375c0-4.64 1.375-8.797 4.297-11.734zm0 0"/></symbol><symbol overflow="visible" id="r"><path d="M2.672 0v-4.734h-.969V0zm0 0"/></symbol><symbol overflow="visible" id="s"><path d="M6.969-.328C4.047-3.281 2.672-7.422 2.672-12.063v-2.374h-.969v2.374c0 4.829 1.875 9 4.938 12.063.03-.078.078-.125.14-.188.063-.062.11-.109.188-.14zm0 0"/></symbol><symbol overflow="visible" id="t"><path d="M4.11-7.61a.735.735 0 0 1-.188-.14c-.063-.063-.11-.11-.14-.188-1.47 1.47-2.345 3.032-2.345 4.563v.781c0 1.516.875 3.078 2.344 4.547a.735.735 0 0 1 .14-.187.735.735 0 0 1 .188-.141C2.781.281 2.156-1.203 2.156-2.594v-.781c0-1.39.625-2.89 1.953-4.234zm0 0"/></symbol><symbol overflow="visible" id="u"><path d="M4.969-5.656l-.11-.11-.265.282a.533.533 0 0 1-.407.171c-.406 0-1.03-.109-1.609-.25-.312-.093-.625-.203-.953-.203-.203 0-.438.047-.734.125L.516-4.187h.25l.359-.688c.203-.047.313-.063.469-.063.156 0 .297.016.531.063.406.078.719.125.969.125.437 0 .719-.078 1.11-.281L-.017-.25l.11.328c.344-.281.672-.39 1.093-.39.297 0 .625.046 1.25.203.72.171 1.094.234 1.407.234.156 0 .25-.016.61-.11.124-.75.218-1.156.359-1.718h-.266l-.266.719c-.078.218-.218.296-.468.296-.266 0-.532-.062-.797-.125-.391-.078-.797-.14-1.032-.14-.375 0-.703.062-1.14.25l4.062-4.563zm0 0"/></symbol><symbol overflow="visible" id="v"><path d="M3.64-2.594v-.781c0-1.531-.874-3.094-2.343-4.563-.047.079-.094.125-.156.188a.427.427 0 0 1-.188.14c1.328 1.344 1.969 2.844 1.969 4.235v.781c0 1.39-.64 2.875-1.969 4.219.078.031.14.078.188.14.062.063.109.126.156.188C2.766.484 3.64-1.078 3.64-2.594zm0 0"/></symbol><symbol overflow="visible" id="w"><path d="M7.094-6.469c0-1.203-1.125-1.797-2.172-1.797-.547 0-1.094.032-1.64.032l-1.985-.032-.047.329.656.03c.297 0 .422.095.422.313 0 .172-.047.547-.11.907L1.345-1.5C1.14-.406 1.125-.375.64-.328l-.485.031L.11.031 1.688 0l1.656.031.031-.328-.766-.031c-.312-.016-.437-.11-.437-.36 0-.109.015-.203.047-.421l.984-5.829s.047-.25.11-.468c.015-.063.046-.188.078-.344.437-.063.625-.094.859-.094 1.219 0 1.797.532 1.797 1.64 0 1.298-.86 2.345-1.906 2.345-.266 0-.5-.063-.954-.235l.032.375c.437.219.672.281 1.031.281 1.531 0 2.844-1.406 2.844-3.03zm0 0"/></symbol><symbol overflow="visible" id="z"><path d="M6.406 0v-2.375c0-4.828-1.86-9-4.922-12.063a.735.735 0 0 1-.14.188.595.595 0 0 1-.203.14c2.953 2.938 4.312 7.094 4.312 11.735V0zm0 0"/></symbol><symbol overflow="visible" id="A"><path d="M6.406 0v-4.734h-.953V0zm0 0"/></symbol><symbol overflow="visible" id="B"><path d="M6.406-12.063v-2.374h-.953v2.374c0 4.641-1.36 8.782-4.312 11.735.078.031.14.078.203.14.062.063.11.11.14.188 3.063-3.063 4.922-7.234 4.922-12.063zm0 0"/></symbol><symbol overflow="visible" id="e"><path d="M4.594.031c-.016-.187-.016-.281-.016-.406 0-.11 0-.203.016-.39l-3.328.078 1.75-1.704c.937-.906 1.234-1.39 1.234-2.062 0-1.016-.75-1.64-1.984-1.64-.688 0-1.172.171-1.641.624L.469-4.266H.75l.11-.406c.171-.516.515-.734 1.156-.734.828 0 1.359.468 1.359 1.218 0 .672-.406 1.329-1.484 2.391L.234-.203V.03L2.391 0zm0 0"/></symbol><symbol overflow="visible" id="x"><path d="M4.125.031v-.265l-.516-.032c-.515-.03-.625-.125-.625-.578v-5.25L2.86-6.14c-.625.297-1.312.563-2.203.86l.078.375h.094l1.25-.516.031-.016c.047 0 .079.094.079.297v4.297c0 .453-.11.547-.626.578l-.546.032V.03L2.594 0zm0 0"/></symbol><symbol overflow="visible" id="y"><path d="M4.547-1.984c0-.422-.203-.797-.547-1.016-.234-.156-.469-.234-.938-.313.766-.546 1.063-.953 1.063-1.468 0-.797-.719-1.313-1.797-1.313-.64 0-1.078.172-1.547.594L.5-4.406h.313l.156-.5c.11-.297.719-.594 1.219-.594.624 0 1.14.469 1.14 1.031 0 .657-.562 1.219-1.25 1.219-.078 0-.453-.031-.453-.031l-.125.469.078.046c.36-.14.547-.187.797-.187.813 0 1.266.469 1.266 1.265 0 .907-.579 1.5-1.485 1.5-.437 0-.828-.124-1.125-.374C.813-.766.671-.97.5-1.438l-.266.078C.437-.813.516-.5.563-.047c.515.156.937.219 1.296.219.782 0 1.657-.39 2.188-.984.328-.36.5-.75.5-1.172zm0 0"/></symbol></defs><use xlink:href="#a" x="-.235" y="25.398"/><use xlink:href="#b" x="12.163" y="25.398"/><use xlink:href="#c" x="17.468" y="25.406"/><use xlink:href="#d" x="33.404" y="25.406"/><use xlink:href="#d" x="47.404" y="25.406"/><use xlink:href="#e" x="51.452" y="21.174"/><use xlink:href="#f" x="56.949" y="25.398"/><use xlink:href="#g" x="64.899" y="25.398"/><use xlink:href="#h" x="70.907" y="17.405"/><use xlink:href="#i" x="70.907" y="24.7"/><use xlink:href="#i" x="70.907" y="29.802"/><use xlink:href="#j" x="70.907" y="41.927"/><use xlink:href="#c" x="81.678" y="10.853"/><use xlink:href="#k" x="106.7" y="10.853"/><use xlink:href="#k" x="127.179" y="10.853"/><use xlink:href="#l" x="77.135" y="25.298"/><use xlink:href="#m" x="86.221" y="25.298"/><use xlink:href="#m" x="106.7" y="25.298"/><use xlink:href="#k" x="127.179" y="25.298"/><use xlink:href="#c" x="81.678" y="39.744"/><use xlink:href="#l" x="102.157" y="39.744"/><use xlink:href="#m" x="111.243" y="39.744"/><use xlink:href="#c" x="127.179" y="39.744"/><use xlink:href="#n" x="133.165" y="17.405"/><use xlink:href="#o" x="133.165" y="24.7"/><use xlink:href="#o" x="133.165" y="29.802"/><use xlink:href="#p" x="133.165" y="41.927"/><use xlink:href="#g" x="142.051" y="25.398"/><use xlink:href="#q" x="148.055" y="17.23"/><use xlink:href="#r" x="148.055" y="21.227"/><use xlink:href="#r" x="148.055" y="24.776"/><use xlink:href="#r" x="148.055" y="28.326"/><use xlink:href="#s" x="148.055" y="42.03"/><use xlink:href="#h" x="156.173" y="17.302"/><use xlink:href="#i" x="156.173" y="24.647"/><use xlink:href="#i" x="156.173" y="29.855"/><use xlink:href="#j" x="156.173" y="42.03"/><use xlink:href="#t" x="162.401" y="10.961"/><use xlink:href="#u" x="167.47" y="10.961"/><use xlink:href="#l" x="175.432" y="10.961"/><use xlink:href="#c" x="187.172" y="10.961"/><use xlink:href="#v" x="193.15" y="10.961"/><use xlink:href="#e" x="198.225" y="6.728"/><use xlink:href="#l" x="213.684" y="10.961"/><use xlink:href="#m" x="222.77" y="10.961"/><use xlink:href="#g" x="231.402" y="10.961"/><use xlink:href="#u" x="237.403" y="10.961"/><use xlink:href="#g" x="245.365" y="10.961"/><use xlink:href="#t" x="251.367" y="10.961"/><use xlink:href="#u" x="256.436" y="10.961"/><use xlink:href="#l" x="264.41" y="10.961"/><use xlink:href="#c" x="276.15" y="10.961"/><use xlink:href="#v" x="282.128" y="10.961"/><use xlink:href="#u" x="297.155" y="10.961"/><use xlink:href="#e" x="302.473" y="6.728"/><use xlink:href="#k" x="180.073" y="25.406"/><use xlink:href="#l" x="227.988" y="25.406"/><use xlink:href="#t" x="237.074" y="25.406"/><use xlink:href="#u" x="242.143" y="25.406"/><use xlink:href="#l" x="250.105" y="25.406"/><use xlink:href="#c" x="261.845" y="25.406"/><use xlink:href="#v" x="267.823" y="25.406"/><use xlink:href="#u" x="299.91" y="25.406"/><use xlink:href="#k" x="180.073" y="39.852"/><use xlink:href="#k" x="247.454" y="39.852"/><use xlink:href="#c" x="299.578" y="39.852"/><use xlink:href="#n" x="307.969" y="17.302"/><use xlink:href="#o" x="307.969" y="24.647"/><use xlink:href="#o" x="307.969" y="29.855"/><use xlink:href="#p" x="307.969" y="42.03"/><use xlink:href="#g" x="316.855" y="25.398"/><use xlink:href="#h" x="322.859" y="17.405"/><use xlink:href="#i" x="322.859" y="24.7"/><use xlink:href="#i" x="322.859" y="29.802"/><use xlink:href="#j" x="322.859" y="41.927"/><use xlink:href="#w" x="329.088" y="10.853"/><use xlink:href="#x" x="336.393" y="13.626"/><use xlink:href="#w" x="329.088" y="25.298"/><use xlink:href="#e" x="336.393" y="28.072"/><use xlink:href="#w" x="329.088" y="39.744"/><g><use xlink:href="#y" x="336.393" y="42.518"/></g><g><use xlink:href="#n" x="341.889" y="17.405"/></g><g><use xlink:href="#o" x="341.889" y="24.7"/></g><g><use xlink:href="#o" x="341.889" y="29.802"/></g><g><use xlink:href="#p" x="341.889" y="41.927"/></g><g><use xlink:href="#z" x="348.118" y="17.23"/></g><g><use xlink:href="#A" x="348.118" y="21.227"/></g><g><use xlink:href="#A" x="348.118" y="24.776"/></g><g><use xlink:href="#A" x="348.118" y="28.326"/></g><g><use xlink:href="#B" x="348.118" y="42.03"/></g></svg>