<svg xmlns="http://www.w3.org/2000/svg" xmlns:xlink="http://www.w3.org/1999/xlink" width="716" height="36" viewBox="0 0 537 27"><defs><symbol overflow="visible" id="a"><path d="M6.625-2.844c0-.515-.203-1-.531-1.265-.313-.25-.766-.391-1.594-.516v.266c.688-.25 1.063-.438 1.453-.75.531-.485.86-1.125.86-1.735 0-.984-1.094-1.687-2.016-1.687-.594 0-1.203.031-1.797.031-.61 0-1.203-.016-1.938-.047l-.078.61.813.03c.281 0 .266-.03.266.188 0 .172-.047.547-.11.907L.922-.782C.89-.577.875-.624.25-.531L.125.048C.672.016 1.047 0 1.406 0c.64 0 1.266.031 1.922.031.563 0 1.219-.156 1.781-.5.954-.562 1.516-1.469 1.516-2.375zm-1.328.188c0 1.234-.734 1.984-1.922 1.984-.25 0-.594-.015-.984-.047-.079-.015-.22-.015-.25-.031l.562-3.313h.906c1.235 0 1.688.375 1.688 1.407zm.219-3.985c0 1.266-.75 1.891-2.235 1.891h-.453l.531-3.016c.22 0 .532-.062.844-.062.969 0 1.313.297 1.313 1.187zm0 0"/></symbol><symbol overflow="visible" id="b"><path d="M4.14-1.234l-.171-.422-.438.312c-.64.453-1.11.657-1.531.657-.578 0-.781-.313-.781-1.047 0-.313.031-.61.078-.844l.86-.219c.202-.047.515-.172.827-.297C4-3.547 4.61-4.219 4.61-4.954c0-.562-.53-1.077-1.14-1.077-.781 0-2.188.843-2.672 1.61C.437-3.845.03-2.313.03-1.47.031-.547.703.125 1.563.125 2.25.125 3-.235 4.171-1.188zm-.702-3.532c0 .516-.266.954-.891 1.25a5.596 5.596 0 0 1-1.125.375l.062-.265c.188-.797.391-1.219.72-1.516.218-.219.515-.344.812-.344.343 0 .421.11.421.5zm1.265-3.359c0-.188-.36-.5-.594-.5-.109 0-.359.11-.5.25L1.781-6.578l.11.234h.421l2.016-1.25c.25-.156.375-.36.375-.531zm0 0"/></symbol><symbol overflow="visible" id="c"><path d="M4.813-1.953h-.36l-.312.844c-.094.218-.079.171-.329.171-.265 0-.53-.078-.796-.14-.391-.078-.797-.14-1.032-.14-.375 0-.703.077-1.14.25l.094.234 4.078-4.61.093-.484-.25-.25-.375.36c-.125.124-.14.14-.296.14-.407 0-1.032-.094-1.61-.25-.312-.094-.625-.203-.953-.203-.203 0-.438.047-.844.156L.328-4.187h.516l.36-.704c.124-.03.234-.046.39-.046s.297.015.531.062c.406.078.719.125.969.125.437 0 .812-.11 1.203-.313l-.203-.203L-.172-.422l.203.594c.5-.406.735-.484 1.157-.484.296 0 .625.046 1.25.203.718.171 1.093.234 1.406.234.156 0 .25-.016.719-.14.14-.844.25-1.25.406-1.938zm0 0"/></symbol><symbol overflow="visible" id="d"><path d="M2.969-1.25l-.172-.297-.453.297c-.36.234-.5.313-.625.313-.078 0-.016.03-.016-.11 0-.11 0-.203.078-.469l.922-3.64c.047-.203.063-.313.063-.422 0-.203-.22-.453-.422-.453-.266 0-.797.281-1.703.922l-.407.296.188.485.547-.36c.344-.218.375-.234.484-.234.11 0 .047-.031.047.11 0 .109-.047.359-.094.53L.625-1.405c-.11.375-.156.672-.156.922 0 .28.265.593.5.593.312 0 .844-.296 2.078-1.218zm.344-6.406c0-.282-.313-.61-.563-.61-.36 0-.844.516-.844.922 0 .297.328.625.625.625.375 0 .781-.484.781-.937zm0 0"/></symbol><symbol overflow="visible" id="e"><path d="M4.14-1.234l-.171-.422-.438.312c-.64.453-1.11.657-1.531.657-.578 0-.781-.313-.781-1.047 0-.313.031-.61.078-.844l.86-.219c.202-.047.515-.172.827-.297C4-3.547 4.61-4.219 4.61-4.954c0-.562-.53-1.077-1.14-1.077-.781 0-2.188.843-2.672 1.61C.437-3.845.03-2.313.03-1.47.031-.547.703.125 1.563.125 2.25.125 3-.235 4.171-1.188zm-.702-3.532c0 .516-.266.954-.891 1.25a5.596 5.596 0 0 1-1.125.375l.062-.265c.188-.797.391-1.219.72-1.516.218-.219.515-.344.812-.344.343 0 .421.11.421.5zm0 0"/></symbol><symbol overflow="visible" id="f"><path d="M4.531-4.5c.032-.453.094-.828.203-1.39-.28-.126-.328-.141-.39-.141-.36 0-.844.328-1.266.937-.406.594-.86 1.25-1.172 1.907h.282L2.5-4.704c.063-.25.14-.531.14-.813 0-.234-.218-.515-.406-.515-.25 0-.812.297-1.703.922l-.39.296.187.485.547-.36c.328-.218.375-.234.469-.234.125 0 .062-.031.062.125 0 .703-.515 3.156-1.015 4.75l.25.172c.296-.094.562-.156.953-.203l.328-1.563c.219-.984.453-1.53.984-2.203.406-.531.625-.75.89-.75.188 0 .204.032.36.235h.36zm0 0"/></symbol><symbol overflow="visible" id="g"><path d="M5.156-.984L5-1.234 4.594-1c-.282.172-.39.234-.469.234-.078 0 .016.063.016-.046 0-.032-.032-.032.015-.157l.64-2.453c.063-.265.11-.515.11-.656 0-.203-.265-.453-.453-.453-.406 0-1.187.375-1.766.86-.359.312-.624.608-1.124 1.25l.265.093.36-1.422c.046-.156.062-.266.062-.36 0-.187-.234-.421-.375-.421-.203 0-.703.218-1.39.687l-.344.219.172.438.5-.297c.343-.204.265-.188.343-.188.11 0 .016-.047.016.094 0 .453-.406 2.156-.813 3.453l.172.219c.313-.078.531-.125.875-.188.203-1.218.375-1.703.813-2.312.531-.75 1.125-1.266 1.562-1.266.11 0 .016-.047.016.078 0 .172-.031.344-.11.64l-.5 1.876c-.093.328-.124.531-.124.672 0 .219.265.484.453.484.234 0 .687-.219 1.718-.922zm0 0"/></symbol><symbol overflow="visible" id="h"><path d="M2.297-1.203l-.203-.172-1.125.328C.89-.28.688.187.047 1.172l.297.219.531-.235C1.672.234 2.078-.422 2.359-1.14zm0 0"/></symbol><symbol overflow="visible" id="i"><path d="M4.422-4.453a1.395 1.395 0 0 0-.469-.078c-.625 0-1.547.718-2.75 2.265l.266.094L2.5-6.578l-.234-.203c-.532.25-.891.328-1.704.406l-.109.438h.656c.235 0 .172-.063.172.078 0 .078 0 .156-.015.218l-.47 2.375C.673-2.609.5-2 0-.094l.188.188.843-.188.25-1.203c.078-.437.266-.734.422-.875C2.281-.656 2.75.078 2.984.078c.125 0 .47-.156.891-.422l.5-.328-.172-.406-.594.297c-.14.078-.093.062-.171.062-.094 0-.047-.031-.141-.172-.344-.578-.5-.953-.875-2l.078-.062c.594-.547.922-.735 1.422-.735.062 0 .172.016.453.079l.219-.797zm0 0"/></symbol><symbol overflow="visible" id="r"><path d="M3.156-5.86c-.062-.03-.094-.062-.14-.109-.047-.047-.079-.093-.188-.281C1.594-5.016.906-3.766.906-2.64v.578c0 1.124.688 2.39 1.922 3.624.11-.203.14-.25.188-.28.046-.048.078-.079.265-.173C2.171-.016 1.75-1.03 1.75-2.062v-.579c0-1.03.422-2.03 1.531-3.156zm0 0"/></symbol><symbol overflow="visible" id="s"><path d="M6.172-2.078c-.016-.094-.031-.188-.031-.266 0-.094.015-.187.062-.406H.516c.046.219.062.313.062.406 0 .078-.015.172-.062.39h5.687zm0 0"/></symbol><symbol overflow="visible" id="t"><path d="M4.281-.11V-.5l-.656-.031c-.531-.031-.484.015-.484-.453v-5.344l-.282-.094c-.625.313-1.312.578-2.375.906l.125.594h.22l1.25-.516h.03c.047 0-.078-.062-.078.157v4.297c0 .468.047.421-.469.453L.86-.5v.531L2.61 0l1.672.031zm0 0"/></symbol><symbol overflow="visible" id="u"><path d="M2.844-2.063v-.578c0-1.125-.688-2.375-1.938-3.609-.094.188-.125.234-.172.281-.046.047-.093.078-.265.172C1.579-4.672 2-3.672 2-2.64v.579C2-1.032 1.578-.017.469 1.108c.172.094.219.125.265.172.047.032.079.078.172.282 1.25-1.235 1.938-2.5 1.938-3.625zm0 0"/></symbol><symbol overflow="visible" id="v"><path d="M4.734-3.375c0-1.938-.78-3-2.109-3C1.141-6.375.219-5.141.219-3c0 1.031.234 2.031.578 2.453.344.438 1 .719 1.594.719 1.453 0 2.343-1.281 2.343-3.547zm-1.125.438c0 1.89-.203 2.53-1.093 2.53-.938 0-1.188-.75-1.188-2.921 0-1.86.203-2.469 1.125-2.469.938 0 1.156.734 1.156 2.86zm0 0"/></symbol><symbol overflow="visible" id="z"><path d="M4.75-.11c-.016-.187-.016-.265-.016-.39s0-.203.032-.547l-3.141.094 1.5-1.469c.938-.922 1.281-1.5 1.281-2.172 0-1.015-.906-1.781-2.14-1.781-.688 0-1.282.219-1.782.703l-.187 1.39h.547l.172-.53c.156-.516.359-.61 1-.61.843 0 1.203.344 1.203 1.094 0 .672-.36 1.234-1.453 2.297L.078-.391v.422L2.406 0l2.36.031zm0 0"/></symbol><symbol overflow="visible" id="A"><path d="M4.703-2.125c0-.422-.234-.89-.578-1.11a2.69 2.69 0 0 0-.719-.296c.531-.36.875-.875.875-1.39 0-.798-.875-1.454-1.937-1.454-.656 0-1.203.203-1.703.656L.312-4.406h.594l.219-.64c.11-.298.563-.47 1.078-.47.61 0 .969.344.969.907 0 .656-.406 1.078-1.094 1.078-.078 0-.344.203-.344.203l-.265-.094-.125.531.203.141c.39-.172.578-.203.844-.203.796 0 1.093.328 1.093 1.14 0 .907-.421 1.36-1.328 1.36-.437 0-.719-.094-1.015-.344C.906-1 .828-1.094.578-1.75l-.531.188c.234.609.312.937.375 1.468C1.078.11 1.5.172 1.875.172c.766 0 1.75-.422 2.281-1.016.328-.375.547-.86.547-1.281zm0 0"/></symbol><symbol overflow="visible" id="j"><path d="M4.203-7.828a.735.735 0 0 1-.187-.14c-.063-.063-.11-.126-.22-.329-1.593 1.61-2.5 3.266-2.5 4.781v.797c0 1.516.907 3.172 2.5 4.781.11-.203.157-.265.22-.328.062-.062.125-.109.312-.203C2.875.063 2.281-1.344 2.281-2.719v-.797c0-1.39.594-2.78 2.047-4.25zm0 0"/></symbol><symbol overflow="visible" id="k"><path d="M3.703-5.516c-.453.047-.86.063-1.156.063.172-.984.297-1.578.531-2.25l-.25-.328a7.16 7.16 0 0 1-1.094.531l-.296 2.031c-.391.203-.704.328-1.063.407l-.047.406h1l-.64 3.25C.625-1.11.53-.813.53-.5c0 .297.266.61.5.61.422 0 .922-.282 1.86-1.032.218-.172.14-.125.437-.36l-.25-.437-.672.469c-.36.25-.484.313-.625.313-.093 0-.031.046-.031-.11 0-.297.156-1.234.516-3l.14-.61h1.266l.203-.89zm0 0"/></symbol><symbol overflow="visible" id="l"><path d="M3.766-2.719v-.797c0-1.515-.907-3.171-2.516-4.78-.11.202-.156.265-.203.327-.063.063-.125.11-.313.203 1.438 1.47 2.032 2.86 2.032 4.25v.797c0 1.375-.594 2.781-2.032 4.25.188.094.25.14.313.203.047.063.094.125.203.329C2.86.452 3.766-1.204 3.766-2.72zm0 0"/></symbol><symbol overflow="visible" id="m"><path d="M5.875-8.86l-.219-.187c-.75.375-1.078.438-2.062.531l-.094.5h.75c.281 0 .25-.046.25.157 0 .109 0 .203-.016.296L4.188-5.89a3.109 3.109 0 0 0-.875-.14c-.829 0-2.063.906-2.61 1.937-.375.703-.64 1.938-.64 2.938C.063-.375.374.125.734.125c.313 0 .86-.234 1.266-.563.64-.515 1.031-.984 1.844-2.187l-.25-.094-.266 1.078c-.14.532-.203.907-.203 1.22 0 .25.25.546.453.546.219 0 .594-.203 1-.5l1.047-.766-.266-.468-.656.468c-.172.125-.25.172-.36.172-.093 0-.046.031-.046-.14 0-.094.031-.204.11-.547l1.515-7.157zM4.031-5.03l-.14.703A5.233 5.233 0 0 1 2.375-1.61c-.422.39-.781.64-1.016.64-.187 0-.171-.031-.171-.328 0-1.516.515-3.281 1.109-3.734.156-.125.281-.14.61-.14.53 0 .765.03 1.109.218zm0 0"/></symbol><symbol overflow="visible" id="n"><path d="M8.266-4.078a1.419 1.419 0 0 1-.047-.36c0-.109.015-.234.062-.484h-7.5c.063.25.063.375.063.484 0 .125 0 .235-.063.5h7.5zm0 2.625a1.332 1.332 0 0 1-.047-.36c0-.109.015-.234.062-.484h-7.5c.063.25.063.375.063.485 0 .125 0 .25-.063.5h7.5zm0 0"/></symbol><symbol overflow="visible" id="o"><path d="M6.234-1.25l-.171-.297-.454.297c-.343.219-.5.313-.625.313-.078 0-.03.03-.03-.11 0-.047.015-.187.03-.234l.782-3.297c.093-.344.14-.688.14-.89 0-.266-.265-.563-.5-.563-.5 0-1.437.5-2.14 1.156-.454.422-.797.828-1.407 1.703l.235.094.453-1.938c.047-.203.078-.343.078-.484 0-.25-.234-.531-.406-.531-.266 0-.828.312-1.703.922l-.391.296.172.485.547-.36c.437-.28.39-.265.469-.265.14 0 .078 0 .078.172 0 .61-.5 2.922-.985 4.656l.172.25c.36-.094.625-.172 1.016-.234.234-1.625.468-2.313 1-3.125.656-1.016 1.453-1.72 1.984-1.72.125 0 .063-.015.063.157 0 .219-.032.469-.141.86l-.61 2.53c-.109.438-.156.72-.156.907 0 .297.266.61.5.61.313 0 .829-.282 2.079-1.22zm0 0"/></symbol><symbol overflow="visible" id="p"><path d="M2.516-3.125c0-.422-.407-.844-.844-.844-.422 0-.86.422-.86.844 0 .438.438.86.86.86.437 0 .844-.422.844-.86zm0 0"/></symbol><symbol overflow="visible" id="q"><path d="M6.813-6.844c0-.984-1.094-1.687-2.016-1.687-.594 0-1.203.031-1.797.031l-1.938-.047-.062.61.797.03c.281 0 .266-.03.266.188 0 .172-.047.547-.11.907L.922-.782C.89-.577.875-.624.25-.531L.14.048A21.28 21.28 0 0 1 1.407 0c.64 0 1.266.031 1.922.031.563 0 1.219-.156 1.781-.5.954-.562 1.516-1.469 1.516-2.375 0-.515-.203-1-.531-1.265-.313-.25-.766-.391-1.594-.516v.266c.688-.25 1.063-.438 1.453-.75.531-.485.86-1.125.86-1.735zM5.296-2.656c0 1.234-.734 1.984-1.922 1.984-.25 0-.594-.015-.984-.047-.079-.015-.22-.015-.25-.031l.562-3.313h.906c1.235 0 1.688.375 1.688 1.407zm.219-3.985c0 1.266-.75 1.891-2.235 1.891h-.453l.531-3.016c.22 0 .532-.062.844-.062.969 0 1.313.297 1.313 1.187zm0 0"/></symbol><symbol overflow="visible" id="w"><path d="M8.484-4.719c0-.687-.437-1.312-.875-1.312-.156 0-.406.093-.5.187l-.671.625.265.453c.25-.171.266-.171.375-.171.328 0 .375.14.375.625 0 1.734-1.016 3.578-2.031 3.578-.36 0-.469-.344-.469-1 0-.563.11-1.344.25-1.86l.625-2.234-.187-.219-1.032.313-.375 1.89c-.14.735-.28 1.125-.625 1.766-.484.89-.828 1.344-1.187 1.344-.406 0-.563-.329-.563-1.016 0-1.422.454-2.5 1.704-3.906l-.235-.407c-.281.141-.437.188-.765.188-.5 0-.985-.047-1.47-.094-.155 0-.25.032-.5.125-.155.328-.327.844-.515 1.64h.5l.266-.64c.094-.203.203-.203.484-.203.219 0 .438.031.672.031.25 0 .406-.015.422-.015.062-.11-.063.015-.188.172C1.156-3.61.72-2.656.72-1.641c0 .985.562 1.766 1.187 1.766.766 0 1.485-.688 2.375-2.39l-.234-.094c-.11.515-.156.812-.156 1.093 0 .75.5 1.391 1.03 1.391.97 0 2.36-1.328 3.095-2.969.265-.594.468-1.406.468-1.875zm0 0"/></symbol><symbol overflow="visible" id="x"><path d="M8.266-2.766a1.332 1.332 0 0 1-.047-.359c0-.11.015-.234.062-.484h-7.5c.063.25.063.375.063.484 0 .125 0 .25-.063.5h7.5zm0 0"/></symbol><symbol overflow="visible" id="y"><path d="M8.266-2.766a1.332 1.332 0 0 1-.047-.359c0-.11.015-.234.062-.484h-3.25v-3.266c-.25.063-.375.078-.484.078-.125 0-.25-.016-.5-.078v3.266H.78c.063.25.063.375.063.484 0 .125 0 .25-.063.5h3.266V.641c.25-.063.375-.079.5-.079.11 0 .234.016.484.079v-3.266h3.25zm0 0"/></symbol><symbol overflow="visible" id="B"><path d="M2.313-.766c0-.359-.454-.828-.829-.828-.359 0-.828.469-.828.828 0 .36.469.829.813.829.39 0 .843-.454.843-.829zm0 0"/></symbol></defs><use xlink:href="#a" x=".435" y="17.959"/><use xlink:href="#b" x="7.74" y="17.959"/><use xlink:href="#c" x="12.39" y="17.959"/><use xlink:href="#d" x="17.698" y="17.959"/><use xlink:href="#e" x="21.022" y="17.959"/><use xlink:href="#f" x="25.672" y="17.959"/><use xlink:href="#g" x="30.323" y="20.732"/><use xlink:href="#h" x="35.865" y="20.732"/><use xlink:href="#i" x="38.451" y="20.732"/><use xlink:href="#j" x="43.615" y="17.959"/><use xlink:href="#k" x="48.684" y="17.959"/><use xlink:href="#l" x="52.713" y="17.959"/><use xlink:href="#m" x="61.01" y="9.351"/><path d="M58.988 14.969h10.153" fill="none" stroke-width=".717" stroke="#000" stroke-miterlimit="10"/><use xlink:href="#m" x="58.989" y="26.004"/><use xlink:href="#k" x="65.098" y="26.004"/><use xlink:href="#n" x="73.655" y="17.959"/><use xlink:href="#o" x="86.053" y="17.959"/><use xlink:href="#p" x="95.366" y="17.959"/><use xlink:href="#q" x="101.367" y="17.959"/><use xlink:href="#r" x="108.675" y="20.732"/><use xlink:href="#g" x="112.429" y="20.732"/><use xlink:href="#s" x="117.971" y="20.732"/><use xlink:href="#t" x="124.7" y="20.732"/><use xlink:href="#u" x="129.702" y="20.732"/><use xlink:href="#h" x="133.456" y="20.732"/><use xlink:href="#v" x="136.041" y="20.732" fill="#00f"/><use xlink:href="#j" x="141.541" y="17.959"/><use xlink:href="#k" x="146.61" y="17.959"/><use xlink:href="#l" x="150.651" y="17.959"/><use xlink:href="#p" x="158.374" y="17.959"/><use xlink:href="#j" x="164.375" y="17.959"/><use xlink:href="#w" x="169.444" y="17.959"/><use xlink:href="#t" x="178.082" y="20.732"/><use xlink:href="#x" x="186.239" y="17.959"/><use xlink:href="#w" x="197.979" y="17.959"/><use xlink:href="#v" x="206.613" y="20.732"/><use xlink:href="#l" x="212.113" y="17.959"/><use xlink:href="#y" x="219.836" y="17.959"/><use xlink:href="#o" x="231.576" y="17.959"/><use xlink:href="#p" x="240.877" y="17.959"/><use xlink:href="#q" x="246.879" y="17.959"/><use xlink:href="#r" x="254.194" y="20.732"/><use xlink:href="#g" x="257.948" y="20.732"/><use xlink:href="#s" x="263.49" y="20.732"/><use xlink:href="#t" x="270.219" y="20.732"/><use xlink:href="#u" x="275.221" y="20.732"/><use xlink:href="#h" x="278.975" y="20.732"/><use xlink:href="#t" x="281.56" y="20.732" fill="red"/><use xlink:href="#j" x="287.061" y="17.959"/><use xlink:href="#k" x="292.13" y="17.959"/><use xlink:href="#l" x="296.159" y="17.959"/><use xlink:href="#p" x="303.894" y="17.959"/><use xlink:href="#j" x="309.895" y="17.959"/><use xlink:href="#w" x="314.964" y="17.959"/><g><use xlink:href="#z" x="323.601" y="20.732"/></g><g><use xlink:href="#x" x="331.758" y="17.959"/></g><g><use xlink:href="#w" x="343.498" y="17.959"/></g><g><use xlink:href="#t" x="352.132" y="20.732"/></g><g><use xlink:href="#l" x="357.633" y="17.959"/></g><g><use xlink:href="#y" x="365.356" y="17.959"/></g><g><use xlink:href="#o" x="377.096" y="17.959"/></g><g><use xlink:href="#p" x="386.397" y="17.959"/></g><g><use xlink:href="#q" x="392.399" y="17.959"/></g><g><use xlink:href="#r" x="399.714" y="20.732"/><use xlink:href="#g" x="403.468" y="20.732"/><use xlink:href="#s" x="409.01" y="20.732"/><use xlink:href="#t" x="415.739" y="20.732"/><use xlink:href="#u" x="420.741" y="20.732"/><use xlink:href="#h" x="424.495" y="20.732"/></g><g fill="#ec008c"><use xlink:href="#z" x="427.08" y="20.732"/></g><g><use xlink:href="#j" x="432.58" y="17.959"/><use xlink:href="#k" x="437.649" y="17.959"/></g><g><use xlink:href="#l" x="441.69" y="17.959"/></g><g><use xlink:href="#p" x="449.413" y="17.959"/></g><g><use xlink:href="#j" x="455.414" y="17.959"/><use xlink:href="#w" x="460.483" y="17.959"/></g><g><use xlink:href="#A" x="469.121" y="20.732"/></g><g><use xlink:href="#x" x="477.278" y="17.959"/></g><g><use xlink:href="#w" x="489.018" y="17.959"/></g><g><use xlink:href="#z" x="497.652" y="20.732"/></g><g><use xlink:href="#l" x="503.152" y="17.959"/></g><g><use xlink:href="#y" x="513.864" y="17.959"/></g><g><use xlink:href="#B" x="528.593" y="17.959"/><use xlink:href="#B" x="531.581" y="17.959"/><use xlink:href="#B" x="534.57" y="17.959"/></g></svg>