<svg xmlns:xlink="http://www.w3.org/1999/xlink" width="39.167ex" height="8.833ex" style="vertical-align:-3.833ex;margin-bottom:1px;margin-top:1px" viewBox="0 -2163.9 16875.4 3827.9" xmlns="http://www.w3.org/2000/svg"><defs><path stroke-width="10" id="a" d="M722 347c0-11-9-20-20-20H76c-11 0-20 9-20 20s9 20 20 20h626c11 0 20-9 20-20zm0-194c0-11-9-20-20-20H76c-11 0-20 9-20 20s9 20 20 20h626c11 0 20-9 20-20z"/><path stroke-width="10" id="b" d="M256-230c0-11-9-20-20-20H114V750h122c11 0 20-9 20-20s-9-20-20-20h-82v-920h82c11 0 20-9 20-20z"/><path stroke-width="10" id="c" d="M419 0c-35 3-122 3-162 3S130 3 95 0v31h32c90 0 93 12 93 48v518c-52-26-111-26-131-26v31c32 0 120 0 182 64 23 0 23-2 23-26V79c0-37 3-48 93-48h32V0z"/><path stroke-width="10" id="d" d="M330 420c0-20-10-20-30-20h-94l-74-295c-4-17-6-24-6-48 0-33 10-46 31-46 34 0 87 24 130 128 5 11 6 14 15 14 4 0 12 0 12-10 0-8-57-154-159-154-54 0-92 38-92 92 0 18 4 35 76 319H51c-20 0-28 0-28 12 0 19 10 19 30 19h94l39 159c9 35 37 36 40 36 17 0 29-10 29-27 0-6-5-26-41-168h88c18 0 28 0 28-11z"/><path stroke-width="10" id="e" d="M449 174L421 0H50c0 24 0 26 11 37l192 214c55 62 105 141 105 221 0 82-43 163-134 163-58 0-112-37-135-102 3 1 5 1 13 1 35 0 53-26 53-52 0-41-35-53-52-53-3 0-53 0-53 56 0 89 74 181 187 181 122 0 212-80 212-194 0-100-60-154-216-292L127 77h180c22 0 88 0 95 8 10 15 17 59 22 89h25z"/><path stroke-width="10" id="f" d="M164-250H42c-11 0-20 9-20 20s9 20 20 20h82v920H42c-11 0-20 9-20 20s9 20 20 20h122V-250z"/><path stroke-width="10" id="g" d="M192 250c0-29-24-53-53-53s-53 24-53 53 24 53 53 53 53-24 53-53z"/><path stroke-width="10" id="h" d="M723 674c0-6-2-11-3-15L161 34h171c170 0 218 72 262 208 7 21 8 25 17 25s13-6 13-11c0-4-3-11-4-15L549 20c-6-19-7-20-31-20H83C65 0 58 0 58 9c0 3 4 18 4 18l559 625H458c-156 0-208-66-246-184-2-3-4-10-13-10-12 0-12 11-12 11s1 9 3 14l55 180c6 19 7 20 31 20h422c20 0 25 0 25-9z"/><path stroke-width="10" id="i" d="M1044 672c0-20-9-20-32-20-75 0-77-10-86-46L793 73c-5-18-5-20-5-24 0-18 28-18 65-18 19 0 28 0 28-11 0-20-13-20-19-20-41 0-84 3-125 3L613 0c-3 0-15 0-15 12 0 19 11 19 28 19 79 0 81 8 91 47l143 573h-1L455 18c-5-7-11-18-22-18-12 0-13 11-15 23l-86 620h-1L195 98c-3-11-4-16-4-23 0-23 11-43 68-44 7 0 18 0 18-11 0-20-13-20-18-20-33 0-69 3-103 3-33 0-68-3-100-3-8 0-14 3-14 12 0 18 13 19 18 19 81 3 98 35 108 75l127 509c3 12 4 15 4 19 0 11-6 14-22 16-12 1-30 2-43 2-20 0-29 0-29 12 0 19 11 19 30 19h137c26 0 28 0 31-23l78-566 365 570c12 19 13 19 39 19h132c17 0 27 0 27-11z"/><path stroke-width="10" id="j" d="M1002-294H510C256-294 36-177 1-80c-1 1-1 3-1 5 0 7 6 13 13 13 6 0 10-4 12-9 32-88 256-121 485-121h492v-102z"/><path stroke-width="10" id="m" d="M1001-75c0-2 0-4-1-5-35-97-255-214-509-214H0v102h491c229 0 453 33 485 121 2 5 6 9 12 9 7 0 13-6 13-13z"/><path stroke-width="10" id="l" d="M2003-192v-102h-505c-260 0-484-29-484-116 0-8-6-13-13-13s-13 5-13 13c0 87-224 116-484 116H0v102h504c249 0 446-89 497-176 51 87 248 176 497 176h505z"/><path stroke-width="10" id="k" d="M994-294H0v102h994v-102z"/><path stroke-width="10" id="n" d="M691 372c0-48-32-182-66-260-26-60-70-123-145-123-30 0-99 6-125 70-40-70-87-70-104-70-75 0-142 35-142 126 0 38 12 84 56 202 7 17 18 45 18 70 0 32-16 33-25 33-35 0-74-31-101-124-5-16-6-18-16-18 0 0-12 0-12 10 0 9 37 154 132 154 49 0 82-37 82-82 0-20-6-34-17-64-47-123-52-162-52-194 0-17 0-91 80-91 39 0 69 31 92 84-1 5-1 7-1 18 0 18 2 36 9 66 7 26 54 217 57 224 7 20 25 28 37 28 15 0 29-9 29-27 0-6-10-43-15-65l-42-168c-4-14-11-45-11-73 0-57 27-87 74-87 49 0 84 35 110 88 26 51 55 149 55 183 0 48-25 74-36 85-9 8-15 14-15 27 0 22 25 48 50 48 17 0 44-15 44-70z"/><path stroke-width="10" id="o" d="M430 107c0-12-84-118-227-118-98 0-157 79-157 181 0 175 151 272 262 272 69 0 107-41 107-85 0-14-5-73-75-103-50-21-124-23-153-23h-53c-15-61-16-92-16-104 0-32 9-116 87-116 12 0 121 0 200 99 6 8 8 10 13 10 6 0 12-7 12-13zm-48 250c0 34-27 63-74 63-26 0-129-15-168-167h41c41 0 201 0 201 104z"/><path stroke-width="10" id="p" d="M543 143s-13-63-30-99c-16-32-39-55-74-55-43 0-78 26-89 67-17-22-53-67-119-67-54 0-123 25-123 120 0 49 21 111 58 210 6 15 17 44 17 68 0 32-16 33-25 33-38 0-76-37-101-124-5-16-6-18-16-18 0 0-12 0-12 10 0 9 37 154 132 154 50 0 82-37 82-82 0-19-5-33-17-63-26-69-54-148-54-204 0-37 10-82 62-82 73 0 113 80 114 84l75 301c8 34 34 35 39 35 15 0 29-9 29-27 0-6-10-44-15-67-4-15-14-53-17-68l-28-108c-8-35-20-82-20-104 0-33 10-46 31-46 42 0 61 68 75 124 3 14 4 18 14 18 3 0 12 0 12-10z"/><path stroke-width="10" id="q" d="M436 377c0-36-28-59-55-59s-38 19-38 35c0 26 22 50 52 55 0 0-16 12-42 12-43 0-72-26-80-33-24-22-52-69-56-82l-32-130c-4-18-38-154-40-158-7-20-25-28-37-28-15 0-29 9-29 27 0 5 6 28 9 43l58 231c13 52 16 63 16 84 0 38-14 46-31 46-36 0-56-48-73-119-6-22-7-23-17-23 0 0-12 0-12 10 0 3 13 63 31 97 9 18 28 57 74 57 47 0 83-32 91-77 19 28 63 77 128 77 51 0 83-30 83-65z"/><path stroke-width="10" id="r" d="M571 143c0-8-37-154-131-154-47 0-82 35-82 82 0 11 1 23 10 46 16 43 65 171 65 233 0 33-9 70-54 70-95 0-148-91-163-122l-13-50c-5-23-11-45-17-67l-22-90c-6-25-18-72-19-74-7-20-25-28-37-28-15 0-29 9-29 27 0 5 6 28 9 43l58 231c13 52 16 63 16 84 0 33-11 46-31 46-36 0-56-48-73-119-6-22-7-23-17-23 0 0-12 0-12 10 0 4 14 63 30 97 10 18 29 57 75 57s87-31 92-87c17 23 66 87 156 87 72 0 115-40 115-107 0-57-42-167-61-220-9-22-18-46-18-71 0-23 7-33 24-33 49 0 82 56 102 124 5 15 5 18 15 18 3 0 12 0 12-10z"/><path stroke-width="10" id="s" d="M546 143c0-8-37-154-131-154-47 0-82 35-82 82 0 20 5 32 13 55 24 61 62 170 62 224 0 36-11 70-54 70s-74-19-96-35c-34-27-65-83-68-92-1-6-9-39-11-45-5-23-11-45-17-67l-22-90-19-76c-5-14-21-26-37-26-9 0-29 5-29 28 0 6 0 8 4 22l145 576 3 20c0 10-2 17-50 17-15 0-24 0-24 12 0 18 11 19 19 20 26 2 99 10 122 10 13 0 13-11 13-11l-78-318c37 46 85 77 148 77 75 0 115-42 115-107 0-58-45-177-61-220-9-22-18-46-18-71 0-23 7-33 24-33 55 0 87 71 102 124 5 15 5 18 15 18 3 0 12 0 12-10z"/><path stroke-width="10" id="t" d="M498 143s-13-63-30-99c-16-32-39-55-74-55-48 0-83 33-91 75-60-71-110-75-130-75C95-11 40 55 40 149c0 146 124 293 241 293 45 0 74-27 92-64 3 22 18 44 42 44 17 0 29-10 29-27 0-4 0-6-7-34l-36-140-22-90c-11-44-13-52-13-74 0-20 3-46 30-46 41 0 59 59 76 124 3 14 4 18 14 18 3 0 12 0 12-10zM361 332c0 6-14 88-79 88-40 0-85-37-116-96-23-46-55-169-55-219 0-39 14-94 64-94 28 0 69 16 113 71 15 17 15 19 20 37l50 196c1 5 3 11 3 17z"/><path stroke-width="10" id="u" d="M516 683L372 105c-4-17-6-24-6-48 0-20 3-46 30-46 41 0 59 59 76 124 3 14 4 18 14 18 3 0 12 0 12-10 0 0-13-63-30-99-16-32-39-55-74-55-48 0-83 33-91 75-60-71-110-75-130-75C95-11 40 55 40 149c0 146 124 293 241 293 45 0 74-27 92-64l60 237 3 20c0 10-2 17-50 17-15 0-24 0-24 12 0 13 6 18 14 19 17 2 112 11 127 11 13 0 13-11 13-11zM361 332c0 6-14 88-79 88-40 0-85-37-116-96-23-46-55-169-55-219 0-39 14-94 64-94 28 0 69 16 113 71 15 17 15 19 20 37l50 196c1 5 3 11 3 17z"/><path stroke-width="10" id="v" d="M258 683L114 105c-5-19-6-24-6-48 0-14 0-46 30-46 40 0 59 59 76 124 3 14 4 18 14 18 3 0 12 0 12-10 0 0-12-60-30-98-17-36-42-56-75-56-47 0-91 35-91 92 0 16 2 23 5 34l126 500 3 20c0 8-1 17-49 17-15 0-25 0-25 11 0 19 11 20 19 21 26 2 99 10 122 10 13 0 13-11 13-11z"/><path stroke-width="10" id="w" d="M192 53c0-29-24-53-53-53S86 24 86 53s24 53 53 53 53-24 53-53z"/><path stroke-width="10" id="A" d="M754 532c0-112-139-216-281-216H303L241 66c-1-6-3-11-3-17 0-18 28-18 65-18 19 0 28 0 28-11 0-20-13-20-20-20-21 0-43 2-65 2l-64 1L55 0c-3 0-15 0-15 12 0 19 11 19 28 19 79 0 81 8 91 47l134 537c3 12 4 15 4 19 0 11-6 14-22 16-12 1-30 2-43 2-20 0-29 0-29 12 0 19 11 19 30 19h324c131 0 197-74 197-151zm-93 24c0 69-53 96-136 96h-96c-43 0-45-3-54-38l-68-272h141c44 0 104 8 154 53 39 36 59 122 59 161z"/><path stroke-width="10" id="B" d="M457 171c0-102-91-193-213-193C135-22 42 44 42 135c0 44 32 58 56 58 29 0 56-20 56-56 0-38-31-60-66-55C123 23 198 6 241 6c44 0 113 29 113 165 0 98-37 166-119 166h-44c-17 0-24 0-24 11 0 10 7 11 15 12 7 0 31 2 39 3 25 1 59 4 89 52 26 44 28 102 28 114 0 90-55 112-96 112-36 0-102-13-133-62 15 0 62 0 62-50 0-29-20-51-51-51-29 0-51 19-51 52 0 76 76 136 177 136 96 0 184-56 184-138 0-79-58-149-140-176 104-21 167-99 167-181z"/><path stroke-width="10" id="x" d="M647 1470c0-17-13-30-30-30H381V0h-60v1500h296c17 0 30-13 30-30z"/><path stroke-width="10" id="z" d="M647 30c0-17-13-30-30-30H321v1500h60V60h236c17 0 30-13 30-30z"/><path stroke-width="10" id="y" d="M381 0h-60v1000h60V0z"/><path stroke-width="10" id="C" d="M346 0h-60v1440H50c-17 0-30 13-30 30s13 30 30 30h296V0z"/><path stroke-width="10" id="E" d="M346 0H50C33 0 20 13 20 30s13 30 30 30h236v1440h60V0z"/><path stroke-width="10" id="D" d="M346 1000V0h-60v1000h60z"/></defs><g stroke="currentColor" fill="currentColor" stroke-width="0" transform="scale(1 -1)"><use xlink:href="#a"/><g transform="translate(1060)"><use xlink:href="#b"/><g transform="translate(450)"><use xlink:href="#c" x="-11" y="-71"/><use xlink:href="#d" x="1494" y="-71"/><g transform="translate(2860 -71)"><use xlink:href="#d"/><use transform="scale(.707)" xlink:href="#e" x="517" y="513"/></g></g><use xlink:href="#f" x="4300"/></g><use xlink:href="#g" x="5866"/><g transform="translate(6371)"><use xlink:href="#h" x="2250"/><use xlink:href="#g" x="3200"/><use xlink:href="#i" x="3705"/><g transform="translate(0 -138)"><use xlink:href="#j" x="-5"/><use xlink:href="#k" transform="matrix(1.50576 0 0 1 994.471 0)"/><use xlink:href="#l" x="2498"/><use xlink:href="#k" transform="matrix(1.50576 0 0 1 4499.193 0)"/><use xlink:href="#m" x="5998"/></g><g transform="matrix(.707 0 0 .707 511 -1236)"><use xlink:href="#n"/><use xlink:href="#o" x="721"/><use xlink:href="#d" x="1661"/><use xlink:href="#p" x="2027"/><use xlink:href="#q" x="2604"/><use xlink:href="#r" x="3060"/><use xlink:href="#s" x="4135"/><use xlink:href="#t" x="4716"/><use xlink:href="#r" x="5250"/><use xlink:href="#u" x="5855"/><use xlink:href="#v" x="6380"/><use xlink:href="#o" x="6683"/><use xlink:href="#q" x="7154"/><use xlink:href="#w" x="7610"/><use xlink:href="#w" x="7893"/><use xlink:href="#w" x="8176"/></g></g><use xlink:href="#g" x="13598"/><g transform="translate(14103 2150)"><use xlink:href="#x" y="-1510"/><use xlink:href="#y" transform="matrix(1 0 0 .84314 0 -2321.569)"/><use xlink:href="#z" y="-3790"/></g><g transform="translate(14931 1350)"><use xlink:href="#A"/><use transform="scale(.707)" xlink:href="#c" x="914" y="-213"/></g><g transform="translate(14931 -50)"><use xlink:href="#A"/><use transform="scale(.707)" xlink:href="#e" x="914" y="-213"/></g><g transform="translate(14931 -1450)"><use xlink:href="#A"/><use transform="scale(.707)" xlink:href="#B" x="914" y="-213"/></g><g transform="translate(16202 2150)"><use xlink:href="#C" y="-1510"/><use xlink:href="#D" transform="matrix(1 0 0 .84314 0 -2321.569)"/><use xlink:href="#E" y="-3790"/></g></g></svg>