<svg xmlns:xlink="http://www.w3.org/1999/xlink" width="29.667ex" height="4.5ex" style="vertical-align:-1.667ex;margin-bottom:1px;margin-top:1px" viewBox="0 -1213.3 12793.8 1932.7" xmlns="http://www.w3.org/2000/svg"><defs><path stroke-width="10" id="a" d="M754 532c0-112-139-216-281-216H303L241 66c-1-6-3-11-3-17 0-18 28-18 65-18 19 0 28 0 28-11 0-20-13-20-20-20-21 0-43 2-65 2l-64 1L55 0c-3 0-15 0-15 12 0 19 11 19 28 19 79 0 81 8 91 47l134 537c3 12 4 15 4 19 0 11-6 14-22 16-12 1-30 2-43 2-20 0-29 0-29 12 0 19 11 19 30 19h324c131 0 197-74 197-151zm-93 24c0 69-53 96-136 96h-96c-43 0-45-3-54-38l-68-272h141c44 0 104 8 154 53 39 36 59 122 59 161z"/><path stroke-width="10" id="b" d="M527 376c0-40-32-58-54-58-27 0-38 19-38 35 0 24 20 49 48 54-21 13-45 13-50 13-70 0-93-92-99-118l-34-137c-11-44-17-66-17-88 0-34 16-66 55-66 32 0 100 24 133 131 2 7 4 11 13 11 3 0 12 0 12-10 0-25-57-154-160-154-60 0-96 39-108 76-3-6-39-76-105-76-44 0-94 20-94 66 0 32 25 58 55 58 15 0 37-8 37-35 0-28-22-49-47-54 21-13 44-13 50-13 44 0 79 42 95 104 37 140 54 207 54 238 0 58-35 67-54 67-34 0-100-25-134-131-2-9-5-11-13-11 0 0-12 0-12 10 0 25 57 154 161 154 29 0 83-10 108-76 12 23 47 76 105 76 34 0 93-14 93-66z"/><path stroke-width="10" id="c" d="M722 347c0-11-9-20-20-20H76c-11 0-20 9-20 20s9 20 20 20h626c11 0 20-9 20-20zm0-194c0-11-9-20-20-20H76c-11 0-20 9-20 20s9 20 20 20h626c11 0 20-9 20-20z"/><path stroke-width="10" id="d" d="M430 107c0-12-84-118-227-118C99-11 41 68 41 158c0 141 133 284 268 284 71 0 118-37 118-86 0-40-27-64-56-64-19 0-37 11-37 35 0 7 2 24 18 39 14 14 28 14 44 14-14 27-52 40-86 40-55 0-110-43-141-100-34-62-54-159-54-200 0-60 27-109 90-109 12 0 121 0 200 99 6 8 8 10 13 10 6 0 12-7 12-13z"/><path stroke-width="10" id="e" d="M469 273c0-146-135-284-268-284-93 0-160 70-160 169 0 142 134 284 268 284 90 0 160-65 160-169zm-73 39c0 60-30 108-88 108-28 0-85-15-135-92-32-51-58-159-58-208 0-78 44-109 87-109 46 0 101 34 136 92 38 65 58 170 58 209z"/><path stroke-width="10" id="f" d="M420 356c0-39-24-56-46-56s-31 15-31 29c0 22 20 44 48 45-15 39-65 46-90 46-88 0-112-61-112-90 0-45 40-52 76-60 44-9 73-14 100-42 12-12 31-37 31-73 0-45-39-166-201-166-86 0-143 40-143 97 0 45 30 66 56 66 21 0 37-12 37-35 0-28-25-58-63-53 23-53 100-53 114-53 120 0 143 84 143 110 0 55-52 66-104 76-29 6-103 21-103 99 0 44 37 146 169 146 76 0 119-41 119-86z"/><path stroke-width="10" id="g" d="M332-238c0-5-5-10-10-10-2 0-4 1-6 2-110 83-215 283-215 454v84c0 171 105 371 215 454 2 1 4 2 6 2 5 0 10-5 10-10 0-3-2-6-4-8-104-78-173-278-173-438v-84c0-160 69-360 173-438 2-2 4-5 4-8z"/><path stroke-width="10" id="h" d="M590 304c40-158-75-315-241-315-17 0-25 1-34 2 9-142 12-175 11-183-4-23-26-26-31-26-10 0-30 6-36 28-1 5 0 7 0 20L271-2C157 23 73 96 50 190c-24 96 16 241 44 241 10 0 14-6 15-10 0 0 1-4-5-13-43-69-38-179-31-207 18-72 88-128 201-148 11 195 23 389 168 389 75 0 129-60 148-138zm-22-22c-12 48-53 102-122 102-89 0-143-96-142-224l7-108c1-3 2-4 14-4 8-1 10-1 18-1 154 0 253 122 225 235z"/><path stroke-width="10" id="i" d="M449 174L421 0H50c0 24 0 26 11 37l192 214c55 62 105 141 105 221 0 82-43 163-134 163-58 0-112-37-135-102 3 1 5 1 13 1 35 0 53-26 53-52 0-41-35-53-52-53-3 0-53 0-53 56 0 89 74 181 187 181 122 0 212-80 212-194 0-100-60-154-216-292L127 77h180c22 0 88 0 95 8 10 15 17 59 22 89h25z"/><path stroke-width="10" id="j" d="M288 208c0-171-105-371-215-454-2-1-4-2-6-2-5 0-10 5-10 10 0 3 2 6 4 8 104 78 173 278 173 438v84c0 160-69 360-173 438-2 2-4 5-4 8 0 5 5 10 10 10 2 0 4-1 6-2 110-83 215-283 215-454v-84z"/><path stroke-width="10" id="k" d="M203 1c0-117-80-194-91-194-5 0-10 4-10 11 0 3 0 5 11 16 33 33 68 93 68 167 0 14-2 15-2 15s-2-1-5-3c-10-9-23-13-35-13-33 0-53 26-53 53 0 28 20 53 53 53 39 0 64-39 64-105z"/><path stroke-width="10" id="l" d="M490 404c0-7 0-9-4-23L390-1c-28-113-131-204-234-204-62 0-106 37-106 87 0 49 33 65 56 65 10 0 37-4 37-35 0-19-10-32-20-41-14-12-27-12-43-12 17-39 62-42 76-42 46 0 84 29 110 63 40 53 52 102 65 154-28-28-62-45-101-45-59 0-122 30-122 119 0 47 18 104 58 210 7 19 17 45 17 70 0 32-17 32-25 32-34 0-74-30-101-124-5-16-6-18-16-18 0 0-12 0-12 10 0 9 37 154 132 154 50 0 82-37 82-82 0-20-4-31-20-72-34-88-51-150-51-196 0-37 11-81 62-81 66 0 109 70 113 85l45 180 20 80c4 18 12 49 14 54 9 15 25 21 35 21 15 0 29-9 29-27z"/><path stroke-width="10" id="m" d="M284 625c0-30-30-53-53-53-24 0-38 17-38 36 0 27 27 53 54 53 23 0 37-16 37-36zm9-482c0-9-37-154-131-154-48 0-82 35-82 82 0 21 13 54 23 80 16 43 61 159 69 185 4 10 11 31 11 52 0 32-17 32-25 32-34 0-74-30-101-124-5-16-6-18-16-18 0 0-12 0-12 10 0 9 38 154 132 154 50 0 82-37 82-82 0-19-5-33-13-53-10-27-10-29-22-58l-39-105c-23-61-29-75-29-100 0-23 7-33 24-33 51 0 84 61 102 124 5 15 5 18 15 18 3 0 12 0 12-10z"/><path stroke-width="10" id="n" d="M571 143c0-8-37-154-131-154-47 0-82 35-82 82 0 11 1 23 10 46 16 43 65 171 65 233 0 33-9 70-54 70-95 0-148-91-163-122l-13-50c-5-23-11-45-17-67l-22-90c-6-25-18-72-19-74-7-20-25-28-37-28-15 0-29 9-29 27 0 5 6 28 9 43l58 231c13 52 16 63 16 84 0 33-11 46-31 46-36 0-56-48-73-119-6-22-7-23-17-23 0 0-12 0-12 10 0 4 14 63 30 97 10 18 29 57 75 57s87-31 92-87c17 23 66 87 156 87 72 0 115-40 115-107 0-57-42-167-61-220-9-22-18-46-18-71 0-23 7-33 24-33 49 0 82 56 102 124 5 15 5 18 15 18 3 0 12 0 12-10z"/></defs><g stroke="currentColor" fill="currentColor" stroke-width="0" transform="scale(1 -1)"><use xlink:href="#a"/><use transform="scale(.707)" xlink:href="#b" x="914" y="-213"/><use xlink:href="#c" x="1432"/><use xlink:href="#d" x="2493"/><use xlink:href="#e" x="2931"/><use xlink:href="#f" x="3421"/><use xlink:href="#g" x="3895"/><g transform="translate(4409)"><path d="M0 220h766v60H0z" stroke="none"/><use xlink:href="#h" x="60" y="747"/><use xlink:href="#i" x="130" y="-696"/></g><use xlink:href="#j" x="5295"/><use xlink:href="#k" x="6021"/><g transform="translate(7135)"><use xlink:href="#a"/><use transform="scale(.707)" xlink:href="#l" x="914" y="-213"/></g><use xlink:href="#c" x="8510"/><use xlink:href="#f" x="9570"/><use xlink:href="#m" x="10044"/><use xlink:href="#n" x="10394"/><use xlink:href="#g" x="10999"/><g transform="translate(11513)"><path d="M0 220h766v60H0z" stroke="none"/><use xlink:href="#h" x="60" y="747"/><use xlink:href="#i" x="130" y="-696"/></g><use xlink:href="#j" x="12399"/></g></svg>