<svg xmlns="http://www.w3.org/2000/svg" xmlns:xlink="http://www.w3.org/1999/xlink" width="188" height="32" viewBox="0 0 141 24"><defs><symbol overflow="visible" id="a"><path d="M7.234-6.594c0-1.218-1.265-1.937-2.312-1.937-.547 0-1.094.031-1.64.031l-2.126-.047-.062.61.812.03c.297 0 .282-.03.282.188 0 .172-.047.532-.11.907l-.89 5.187C1-.531 1.125-.641.64-.594l-.61.031-.093.61L1.688 0l1.78.047.063-.61-.922-.03c-.312-.016-.296.015-.296-.235 0-.11 0-.188.046-.422l.97-5.813-.032.094s.078-.343.14-.578c.016-.062.047-.172.063-.203.328-.063.516-.094.75-.094 1.219 0 1.656.39 1.656 1.516 0 1.281-.718 2.203-1.765 2.203-.266 0-.5-.063-1.11-.281l.047.625c.578.281.813.344 1.172.344 1.531 0 2.984-1.532 2.984-3.157zm0 0"/></symbol><symbol overflow="visible" id="c"><path d="M8.266-4.078a1.419 1.419 0 0 1-.047-.36c0-.109.015-.234.062-.484h-7.5c.063.25.063.375.063.484 0 .125 0 .235-.063.5h7.5zm0 2.625a1.332 1.332 0 0 1-.047-.36c0-.109.015-.234.062-.484h-7.5c.063.25.063.375.063.485 0 .125 0 .25-.063.5h7.5zm0 0"/></symbol><symbol overflow="visible" id="d"><path d="M4.75-5.703c-.297-.188-.797-.328-1.25-.328-.531 0-1.484.468-2.172 1.062C.641-4.375.156-3.03.156-1.75.156-.61.796.125 1.75.125c.656 0 1.328-.266 1.984-.813l.657-.53-.204-.485-.343.219c-.86.578-1.203.75-1.625.75-.672 0-.875-.36-.875-1.297 0-1.266.36-2.406.937-2.875.25-.203.453-.266.844-.266.531 0 .813.094.813.375v.86h.546c.11-.922.188-1.36.329-1.735zm0 0"/></symbol><symbol overflow="visible" id="e"><path d="M5.047-4.094c0-1.125-.734-1.937-1.719-1.937-.515 0-1.187.25-1.719.625-.968.703-1.546 2-1.546 3.453C.063-.687.734.125 1.734.125c.657 0 1.47-.344 2-.844.75-.703 1.313-2.156 1.313-3.375zm-1.188.203C3.86-2.75 3.531-1.578 3-.937c-.219.25-.422.359-.781.359-.703 0-.969-.406-.969-1.36 0-1.343.422-2.718 1.016-3.203.156-.125.328-.171.609-.171.734 0 .984.406.984 1.421zm0 0"/></symbol><symbol overflow="visible" id="f"><path d="M4.125-5.703c-.469-.219-.797-.328-1.203-.328-.61 0-1.453.39-2.031.968a1.63 1.63 0 0 0-.47 1.157c0 .672.516 1.187 1.298 1.344l.75.14c.531.094.578.156.578.64 0 .798-.406 1.173-1.25 1.173-.438 0-.703-.094-1-.344v-1.078H.234C.172-1.297.094-.875-.046-.25.453 0 .968.125 1.39.125c.578 0 1.234-.25 1.843-.719.61-.484.891-1.015.891-1.625 0-.64-.5-1.11-1.406-1.281l-.5-.094c-.719-.14-.813-.203-.813-.703 0-.625.39-.984 1.078-.984.485 0 .844.172 1 .422v.765h.532c.062-.547.109-.86.25-1.531zm0 0"/></symbol><symbol overflow="visible" id="g"><path d="M4.203-7.828a.735.735 0 0 1-.187-.14c-.063-.063-.11-.126-.22-.329-1.593 1.61-2.5 3.266-2.5 4.781v.797c0 1.516.907 3.172 2.5 4.781.11-.203.157-.265.22-.328.062-.062.125-.109.312-.203C2.875.063 2.281-1.344 2.281-2.719v-.797c0-1.39.594-2.78 2.047-4.25zm0 0"/></symbol><symbol overflow="visible" id="h"><path d="M7.422-4.094a2.021 2.021 0 0 0-.125-.765c-.156-.36-.766-1.172-1.078-1.172-.282 0-.703.125-.953.265-.47.266-1.047.704-1.36 1.047-.11.125-.25.453-.297.64l-.734 3.47c-.844-.079-1.266-.47-1.219-1.329.047-1.343.907-2.703 1.89-3.218.032-.016.235-.078.532-.11.156-.156.14-.156.266-.312-.047-.172-.219-.313-.25-.313-.266 0-.75.22-1.125.407-1.453.687-2.438 2.046-2.5 3.53C.406-.671 1.28.126 2.672.126c.078 0 .156 0 .031.031l-.64 2.5-.11.485.203.171a5.507 5.507 0 0 1 1.016-.234l.625-3.094c.469-.109 1.14-.359 1.625-.671 1.094-.72 1.937-2.172 2-3.407zm-1.188.203c-.062 1.157-.75 2.313-1.609 2.954-.266.171-.484.265-.688.296l.282-1.265c.187-.938.531-2.782.812-3.016.157-.187.407-.25.797-.25.328 0 .438.64.406 1.281zm0 0"/></symbol><symbol overflow="visible" id="i"><path d="M5.719-.094c-.016-.25-.016-.375-.016-.547 0-.14 0-.265.031-.671l-4.28.125.093.234 2.187-2.313C4.891-4.5 5.281-5.25 5.281-6.14 5.281-7.516 4.22-8.5 2.703-8.5c-.86 0-1.562.281-2.172.906L.312-5.766h.594l.188-.687c.203-.688.5-.86 1.297-.86 1.03 0 1.546.516 1.546 1.532 0 .89-.468 1.687-1.828 3.11L.047-.454v.5L2.859 0l2.875.047zm0 0"/></symbol><symbol overflow="visible" id="j"><path d="M3.766-2.719v-.797c0-1.515-.907-3.171-2.516-4.78-.11.202-.156.265-.203.327-.063.063-.125.11-.313.203 1.438 1.47 2.032 2.86 2.032 4.25v.797c0 1.375-.594 2.781-2.032 4.25.188.094.25.14.313.203.047.063.094.125.203.329C2.86.452 3.766-1.204 3.766-2.72zm0 0"/></symbol><symbol overflow="visible" id="k"><path d="M2.703-1.531L2.47-1.75c-.36.125-.563.203-1.328.406C1.047-.328.78.344.016 1.625l.312.25.61-.281C1.905.328 2.405-.516 2.75-1.47zm0 0"/></symbol><symbol overflow="visible" id="m"><path d="M2.969-1.25l-.172-.297-.453.297c-.36.234-.5.313-.625.313-.078 0-.016.03-.016-.11 0-.11 0-.203.078-.469l.922-3.64c.047-.203.063-.313.063-.422 0-.203-.22-.453-.422-.453-.266 0-.797.281-1.703.922l-.407.296.188.485.547-.36c.344-.218.375-.234.484-.234.11 0 .047-.031.047.11 0 .109-.047.359-.094.53L.625-1.405c-.11.375-.156.672-.156.922 0 .28.265.593.5.593.312 0 .844-.296 2.078-1.218zm.344-6.406c0-.282-.313-.61-.563-.61-.36 0-.844.516-.844.922 0 .297.328.625.625.625.375 0 .781-.484.781-.937zm0 0"/></symbol><symbol overflow="visible" id="n"><path d="M6.234-1.25l-.171-.297-.454.297c-.343.219-.5.313-.625.313-.078 0-.03.03-.03-.11 0-.047.015-.187.03-.234l.782-3.297c.093-.344.14-.688.14-.89 0-.266-.265-.563-.5-.563-.5 0-1.437.5-2.14 1.156-.454.422-.797.828-1.407 1.703l.235.094.453-1.938c.047-.203.078-.343.078-.484 0-.25-.234-.531-.406-.531-.266 0-.828.312-1.703.922l-.391.296.172.485.547-.36c.437-.28.39-.265.469-.265.14 0 .078 0 .078.172 0 .61-.5 2.922-.985 4.656l.172.25c.36-.094.625-.172 1.016-.234.234-1.625.468-2.313 1-3.125.656-1.016 1.453-1.72 1.984-1.72.125 0 .063-.015.063.157 0 .219-.032.469-.141.86l-.61 2.53c-.109.438-.156.72-.156.907 0 .297.266.61.5.61.313 0 .829-.282 2.079-1.22zm0 0"/></symbol><symbol overflow="visible" id="b"><path d="M4.875-4.406c-.125-.063-.313-.125-.406-.125-.39 0-.875.343-1.485 1.172l-.359.484.266.094-.063-.422c-.11-.875-.515-1.328-1.094-1.328-.25 0-.578.093-.656.218l-.656.875.406.22c.36-.376.453-.47.64-.47.313 0 .36.235.532 1.094l.094.531-.328.485C1.344-1 1.14-.75.859-.75c-.14 0-.093.11-.109.063l-.172-.407-.437.063c0 .297-.032.406-.094.687-.016.11-.016.14-.031.266.187.11.468.172.578.172.312 0 .797-.281 1.094-.703l.734-1.032-.266-.109.11.61c.14.765.5 1.234.859 1.234.203 0 .625-.188.938-.438l.53-.437-.202-.438c-.516.39-.641.485-.797.485-.14 0-.172-.047-.266-.235a2.77 2.77 0 0 1-.187-.656l-.188-.86.313-.374c.453-.563.593-.735.89-.735.157 0 .11-.062.235.235l.359-.11.172-.906zm0 0"/></symbol><symbol overflow="visible" id="l"><path d="M4.922-4.422l-.172-.125c-.313.11-.547.156-.875.188L3.5-3.063c-.11.407-.406.97-.734 1.391-.329.453-.688.813-.891.813-.219 0-.047-.297-.047-.407l.14-1.718c.032-.282.048-.61.048-.86 0-.406-.22-.687-.391-.687-.125 0-.36.093-.828.39l-.89.547.265.39.64-.358c.047-.032.063-.063.141-.063.25 0 .047.313.047.453L.828-1.016l-.015.344c0 .375.343.766.578.766.359 0 1.28-.781 2-1.782l-.266-.109L2.656-.28c-.5 1.578-.828 2.094-1.5 2.094-.328 0-.453-.11-.453-.422 0-.047.016-.11.047-.266l-.297-.11-.594.376c-.015.14-.015.187-.015.234 0 .375.531.813.969.813 1.015 0 2.218-1.22 2.796-2.86l1.375-3.953zm0 0"/></symbol></defs><use xlink:href="#a" x=".428" y="15.082"/><use xlink:href="#b" x="7.732" y="17.856"/><use xlink:href="#c" x="16.554" y="15.082"/><use xlink:href="#d" x="28.952" y="15.082"/><use xlink:href="#e" x="33.937" y="15.082"/><use xlink:href="#f" x="39.245" y="15.082"/><use xlink:href="#g" x="43.896" y="15.082"/><use xlink:href="#h" x="50.169" y="6.474"/><path d="M50.168 12.094h7.629" fill="none" stroke-width=".717" stroke="#000" stroke-miterlimit="10"/><use xlink:href="#i" x="50.994" y="23.044"/><use xlink:href="#j" x="58.992" y="15.082"/><use xlink:href="#k" x="67.038" y="15.082"/><use xlink:href="#a" x="78.001" y="15.082"/><use xlink:href="#l" x="85.313" y="17.856"/><use xlink:href="#c" x="94.196" y="15.082"/><use xlink:href="#f" x="106.594" y="15.082"/><use xlink:href="#m" x="111.244" y="15.082"/><use xlink:href="#n" x="114.759" y="15.082"/><use xlink:href="#g" x="121.406" y="15.082"/><g><use xlink:href="#h" x="127.68" y="6.474"/></g><path d="M127.68 12.094h7.629" fill="none" stroke-width=".717" stroke="#000" stroke-miterlimit="10"/><g><use xlink:href="#i" x="128.505" y="23.044"/></g><g><use xlink:href="#j" x="136.503" y="15.082"/></g></svg>