<svg xmlns="http://www.w3.org/2000/svg" xmlns:xlink="http://www.w3.org/1999/xlink" width="188pt" height="14pt" viewBox="0 0 188 14"><defs><symbol overflow="visible" id="a"><path d="M5.125-9.266h4.047l.437-.515c.47.367.704.605.704.719 0 .042-.032.09-.094.14l-.281.203v3.766H9.25v-.469H5v.469h-.672v-4.688c.207.075.473.2.797.375zM5-8.969v1.438h4.25V-8.97zm4.25 3.25v-1.515H5v1.515zM5-2.594v2.078a23.664 23.664 0 0 0 2.203-.5l.063.297C6.078-.25 4.926.125 3.812.406c-.062.301-.14.453-.234.453-.156 0-.328-.355-.515-1.062.488-.063.91-.125 1.265-.188v-4.234c.758.031 1.14.125 1.14.281 0 .106-.155.219-.468.344v1.11h1.172l.516-.704c.195.2.41.461.64.781l-.125.22zm3.266.203c.832-.394 1.523-.89 2.078-1.484.531.324.797.563.797.719 0 .094-.086.14-.25.14a1.7 1.7 0 0 1-.329-.046 9.607 9.607 0 0 1-2.296 1.03v1.485c0 .211.066.328.203.36.113.03.414.046.906.046.676 0 1.055-.082 1.14-.25.114-.207.196-.66.25-1.359l.297.125c0 .574.036.953.11 1.14.05.137.164.204.344.204-.012.375-.168.601-.47.687-.28.063-.866.094-1.75.094-.78 0-1.26-.055-1.437-.156-.18-.106-.265-.336-.265-.688v-4.453c.789.055 1.187.164 1.187.328 0 .106-.172.211-.515.313zM.719-7.078c1 .355 1.5.797 1.5 1.328 0 .305-.133.453-.39.453-.212 0-.34-.14-.391-.422-.086-.414-.372-.8-.86-1.156zm.703-2.594c1.062.336 1.594.766 1.594 1.297 0 .305-.137.453-.407.453-.168 0-.28-.117-.343-.36-.149-.425-.477-.812-.985-1.155zm2.562 2.063L2.328-2.313c-.125.376-.187.657-.187.844 0 .086.02.23.062.438.102.449.156.812.156 1.093 0 .508-.183.766-.546.766-.262 0-.391-.133-.391-.39 0-.012.008-.09.031-.235.02-.219.04-.394.063-.531.03-.219.046-.453.046-.703 0-.469-.117-.79-.343-.969-.125-.082-.32-.156-.578-.219v-.297c.207.032.363.047.468.047.313 0 .563-.195.75-.594.57-1.175 1.192-2.757 1.86-4.75zm0 0"/></symbol><symbol overflow="visible" id="b"><path d="M4.063-5.188C4.03-3.726 4.02-2.82 4.03-2.467c.008.398.051.718.125.968.102.313.348.527.735.64.332.118.832.172 1.5.172 1 0 1.785-.082 2.359-.25.125-.039.219-.062.281-.062.219 0 .399.047.547.14.133.087.203.184.203.297 0 .2-.117.325-.344.375-.605.137-1.468.204-2.593.204-.98 0-1.727-.11-2.235-.329-.43-.175-.73-.453-.906-.828-.148-.289-.234-.773-.265-1.453-.032-.5-.043-1.316-.032-2.453-.73.137-1.297.277-1.703.422a1.036 1.036 0 0 1-.437.094c-.149 0-.32-.114-.516-.344a2.104 2.104 0 0 1-.406-.781l.234-.172c.238.324.52.484.844.484.414 0 1.07-.07 1.969-.218.039-1.04.007-1.68-.094-1.922-.074-.188-.309-.332-.703-.438l.062-.36c.614.063 1.02.153 1.219.266.238.137.36.278.36.422 0 .074-.012.18-.032.313a2.86 2.86 0 0 0-.062.328c-.032.367-.055.793-.063 1.281a67.521 67.521 0 0 1 3.625-.469c.031-.757.047-1.367.047-1.828 0-.375-.059-.613-.172-.718a1.489 1.489 0 0 0-.5-.266l.125-.313c.445.024.805.118 1.078.282.227.125.344.265.344.421 0 .012-.043.157-.125.438-.063.156-.133.793-.203 1.906a26.68 26.68 0 0 0 1.734-.203c.188-.031.332-.047.438-.047a.87.87 0 0 1 .547.172c.164.137.25.29.25.453 0 .18-.11.266-.329.266-.042 0-.124-.004-.25-.016a17.66 17.66 0 0 0-1.812-.093c-.25 0-.45.007-.594.015-.062 1-.133 1.805-.203 2.406-.043.325-.14.579-.297.766-.117.156-.234.234-.36.234-.116 0-.257-.101-.421-.312-.18-.219-.586-.547-1.219-.985l.14-.265c.302.168.641.34 1.016.515a.79.79 0 0 0 .313.079c.082 0 .145-.082.188-.25.082-.438.156-1.16.218-2.172-1.199.105-2.398.261-3.593.468zm5-4.375c.519.18.925.403 1.218.672.25.23.375.461.375.688 0 .281-.12.422-.36.422-.167 0-.296-.125-.39-.375-.187-.446-.527-.836-1.015-1.172zm1.109-.828c.508.157.922.375 1.234.657.258.242.39.468.39.687 0 .281-.116.422-.343.422-.156 0-.293-.129-.406-.39-.18-.395-.531-.77-1.063-1.126zm0 0"/></symbol><symbol overflow="visible" id="c"><path d="M3.469-3.39h4.937l.485-.563c.52.406.78.656.78.75 0 .043-.038.09-.108.14l-.313.22V.843h-.719V.016H3.312v.828H2.61v-4.61c.22.075.504.2.86.375zm-.156.312v2.797H8.53v-2.797zm2.921-6.063a13.927 13.927 0 0 0 5.172 3.766c-.261.2-.453.43-.578.688-1.98-1.051-3.574-2.426-4.781-4.125-1.168 2-2.902 3.53-5.203 4.593l-.203-.25C2.92-5.8 4.594-7.582 5.656-9.812c.739.124 1.11.261 1.11.406 0 .086-.18.168-.532.25zm1.204 3.766l.578-.719c.218.18.453.403.703.672l.125.125-.156.234H3.28l-.156-.312zm0 0"/></symbol><symbol overflow="visible" id="d"><path d="M4.281-4.953C5.5-6.141 6.738-6.734 8-6.734c.79 0 1.426.242 1.906.718.57.575.86 1.282.86 2.125 0 1.086-.508 1.946-1.516 2.579-.781.5-1.734.78-2.86.843l-.046-.328c2.426-.582 3.64-1.66 3.64-3.234 0-.54-.156-1.008-.468-1.407-.399-.507-.946-.765-1.641-.765-1.137 0-2.336.61-3.594 1.828.008 1.086.051 2.172.125 3.266v.359c0 .344-.043.586-.125.719-.136.195-.261.297-.375.297-.156 0-.261-.141-.312-.422a2.312 2.312 0 0 0-.36-.875c-.156-.227-.414-.54-.765-.938l.203-.25c.082.086.203.196.36.328.32.274.554.485.702.641l.047-3.11-1.469 1.985c-.312.418-.53.715-.656.89-.105.137-.215.204-.328.204-.086 0-.156-.055-.219-.172a.65.65 0 0 1-.093-.344c0-.195.164-.46.5-.797.644-.664 1.41-1.539 2.296-2.625 0-.008.008-.41.032-1.203-.774.375-1.235.602-1.39.672-.188.086-.31.125-.36.125-.149 0-.281-.102-.406-.313-.137-.195-.231-.457-.282-.78l.328-.11c.114.262.286.39.516.39.164 0 .703-.156 1.61-.468v-.375c.007-.176.015-.446.015-.813 0-.344-.055-.578-.156-.703-.086-.113-.262-.21-.531-.297l.093-.344c.938.063 1.406.32 1.406.766 0 .074-.03.25-.093.531-.032.106-.09.45-.172 1.032h.047c.113 0 .218.046.312.14.176.18.266.32.266.422 0 .074-.059.18-.172.313-.188.199-.383.492-.578.875zm0 0"/></symbol><symbol overflow="visible" id="e"><path d="M3.031-2.203c0 .45.313.828.938 1.14.625.305 1.426.454 2.406.454.488 0 .898-.04 1.234-.125.114-.02.196-.032.25-.032.157 0 .29.04.407.11.156.086.234.226.234.422 0 .156-.137.257-.406.312-.23.05-.602.078-1.11.078-1.562 0-2.734-.254-3.515-.765-.649-.407-.969-.942-.969-1.61 0-.57.281-1.015.844-1.328.457-.27 1.039-.406 1.75-.406 1.008 0 1.972.121 2.89.36a21.833 21.833 0 0 1-1.578-2.641c-.906.25-1.699.375-2.375.375-.898 0-1.562-.282-2-.844l.219-.25c.5.375 1.055.562 1.672.562.601 0 1.348-.125 2.234-.375-.136-.289-.289-.632-.453-1.03a12.23 12.23 0 0 0-.297-.688c-.117-.239-.304-.36-.562-.36-.094 0-.227.016-.39.047l-.11-.344a3.01 3.01 0 0 1 1.14-.234c.22 0 .375.059.47.172.03.043.093.25.187.625.132.531.32 1.086.562 1.656.988-.375 1.64-.703 1.953-.984a.76.76 0 0 1 .453-.125c.414 0 .625.105.625.312 0 .262-.93.711-2.78 1.344.538 1.074 1.034 1.871 1.484 2.39.175.2.289.36.343.485.051.117.078.25.078.406 0 .375-.117.563-.343.563-.125 0-.282-.094-.47-.281-.148-.133-.429-.266-.843-.391a6.791 6.791 0 0 0-1.984-.313c-1.461 0-2.188.438-2.188 1.313zm0 0"/></symbol><symbol overflow="visible" id="f"><path d="M1.969-4.375l.25-.219c.226.282.422.422.578.422.133 0 .351-.066.656-.203 1.531-.664 2.735-1 3.61-1 .726 0 1.32.18 1.78.531.52.418.782.969.782 1.657 0 .937-.422 1.671-1.266 2.203-.836.543-2.074.875-3.718 1l-.032-.344c1.5-.227 2.598-.602 3.297-1.125.625-.457.938-1.04.938-1.75 0-.563-.188-1-.563-1.313-.304-.257-.71-.39-1.219-.39-.93 0-2.09.418-3.484 1.25a1.483 1.483 0 0 0-.297.203.46.46 0 0 1-.344.125c-.312 0-.636-.348-.968-1.047zm0 0"/></symbol><symbol overflow="visible" id="g"><path d="M4.156-6.797c.301-.863.453-1.484.453-1.86 0-.226-.195-.429-.578-.609l.14-.296c.907.167 1.36.406 1.36.718a.63.63 0 0 1-.11.328c-.073.118-.167.34-.28.672-.137.387-.25.696-.344.922.52-.101.914-.25 1.187-.437.188-.102.344-.157.47-.157.218 0 .382.047.5.141.05.055.077.14.077.266 0 .136-.195.265-.578.39-.355.117-.969.258-1.844.422a155.238 155.238 0 0 1-2.14 5.61c-.137.386-.274.578-.406.578A.334.334 0 0 1 1.78-.25a.526.526 0 0 1-.14-.39c0-.126.097-.376.296-.75.676-1.395 1.348-2.993 2.016-4.798-.48.063-.922.094-1.328.094-.281 0-.547-.078-.797-.234a1.75 1.75 0 0 1-.594-.656l.266-.22c.3.376.68.563 1.14.563.489 0 .993-.05 1.516-.156zm3.032 2.734c.312-.3.664-.628 1.062-.984-.648.012-1.375.125-2.188.344l-.109-.328c1.031-.426 1.992-.64 2.89-.64.79 0 1.188.14 1.188.421 0 .18-.152.266-.453.266-.387 0-.672.054-.86.156-.28.18-.714.516-1.296 1.016zM5.702-2.171c.164.512.457.875.875 1.094.383.21.906.312 1.563.312.457 0 .89-.035 1.296-.109.352-.05.536-.078.547-.078.207 0 .352.031.438.094a.464.464 0 0 1 .187.39c0 .149-.14.25-.421.313-.293.062-.782.093-1.47.093-1.179 0-2.023-.19-2.53-.578-.399-.289-.668-.757-.813-1.406zm0 0"/></symbol><symbol overflow="visible" id="h"><path d="M6.64-6.797h.532a.306.306 0 0 0 .016-.11c.03-.195.07-.562.125-1.093H4.25l-.11-.313h3.204l.015-.187c.04-.5.07-.957.094-1.375.781.012 1.172.11 1.172.297 0 .086-.168.183-.5.297-.023.148-.047.469-.078.969h1.765l.594-.766c.332.312.602.594.813.844L11.094-8H8.016L8-7.812c-.031.324-.07.664-.11 1.015h1.344l.454-.562c.5.367.75.617.75.75 0 .043-.028.078-.079.109l-.343.203v5.313h-.672v-.672H6.53v.812H5.86v-6.36c.157.063.414.2.782.407zm2.704 1.813H6.53v1.328h2.813zm0-.297V-6.5H6.53v1.219zm0 3.328V-3.36H6.53v1.406zM4.704.14v.718H4.03v-6.843c.739.011 1.11.109 1.11.296 0 .094-.149.196-.438.297v5.22h5.281l.61-.735c.27.219.547.492.828.812l-.14.235zM2.546-6.58c.469.075.703.18.703.313 0 .106-.168.204-.5.297V.86h-.672v-6.421A16.332 16.332 0 0 1 .672-3.22l-.266-.187C1.508-5.27 2.332-7.422 2.875-9.86c.727.168 1.094.343 1.094.53 0 .106-.18.188-.531.25-.231.774-.493 1.524-.782 2.25zm0 0"/></symbol><symbol overflow="visible" id="i"><path d="M8.125-3.938c-.016-.124-.031-.25-.031-.359 0-.125.015-.25.031-.36H.953c.031.11.031.235.031.36 0 .11 0 .234-.03.36zm0 2.626c-.016-.125-.031-.235-.031-.36s.015-.234.031-.36H.953a1.4 1.4 0 0 1 .031.36c0 .125 0 .234-.03.36zm0 0"/></symbol><symbol overflow="visible" id="j"><path d="M4.86-1.016l-.094-.25c-.079.079-.094.079-.157.125-.375.329-.562.438-.734.438-.125 0-.188-.094-.188-.281 0-.063 0-.094.016-.125l1.11-4.532-.125-.109-.391.219c-.469-.188-.703-.235-1.016-.235-.344 0-.578.063-.906.22-.75.374-1.125.734-1.438 1.312C.422-3.172.047-1.75.047-.781c0 .5.187.906.406.906.25 0 .688-.25 1.14-.625.516-.438.985-1 1.641-1.938L2.891-.921a2.882 2.882 0 0 0-.063.61c0 .28.094.437.281.437.266 0 .766-.328 1.75-1.14zM3.811-4.953c-.265 1.281-.484 1.906-.89 2.516-.656 1-1.406 1.734-1.797 1.734-.14 0-.219-.156-.219-.485 0-.765.313-2.093.735-3.078.28-.687.578-.906 1.156-.906.281 0 .5.047 1.015.219zm0 0"/></symbol><symbol overflow="visible" id="k"><path d="M2.39-2.984c0-.438-.28-.72-.718-.72-.422 0-.719.282-.719.72 0 .421.297.718.719.718.437 0 .719-.296.719-.718zm0 0"/></symbol><symbol overflow="visible" id="m"><path d="M8.125-2.625c-.016-.125-.031-.25-.031-.36 0-.124.015-.25.031-.359H4.906v-3.234c-.125.031-.25.047-.36.047-.124 0-.25-.016-.359-.047v3.234H.954c.031.11.031.235.031.36 0 .109 0 .234-.03.359h3.234V.594c.109-.016.234-.031.359-.031.11 0 .234.015.36.03v-3.218zm0 0"/></symbol><symbol overflow="visible" id="n"><path d="M5.172-4.5c0-.453-.11-.922-.25-1.094-.078-.11-.234-.172-.422-.172-.281 0-.64.094-.969.266-.61.328-1.015.688-1.75 1.625l1.032-4.75-.141-.14c-.625.312-1.063.421-1.922.5l-.047.25h.578c.282 0 .407.093.407.296 0 .078-.016.219-.032.282L.453-.845c-.016.031-.016.078-.016.11 0 .468.579.859 1.235.859.437 0 1.047-.219 1.562-.594C4.391-1.28 5.172-2.922 5.172-4.5zm-.86.297c0 .766-.25 1.781-.609 2.562-.39.829-.875 1.204-1.515 1.204-.547 0-.844-.266-.844-.766 0-.297.047-.64.156-1.078.219-.953.516-1.531.984-2.031.391-.407 1.016-.75 1.36-.75.312 0 .469.265.469.859zm0 0"/></symbol><symbol overflow="visible" id="l"><path d="M4.125.031v-.265l-.516-.032c-.515-.03-.625-.125-.625-.578v-5.25L2.86-6.14c-.625.297-1.312.563-2.203.86l.078.375h.094l1.25-.516.031-.016c.047 0 .079.094.079.297v4.297c0 .453-.11.547-.626.578l-.546.032V.03L2.594 0zm0 0"/></symbol><symbol overflow="visible" id="o"><path d="M4.594.031c-.016-.187-.016-.281-.016-.406 0-.11 0-.203.016-.39l-3.328.078 1.75-1.704c.937-.906 1.234-1.39 1.234-2.062 0-1.016-.75-1.64-1.984-1.64-.688 0-1.172.171-1.641.624L.469-4.266H.75l.11-.406c.171-.516.515-.734 1.156-.734.828 0 1.359.468 1.359 1.218 0 .672-.406 1.329-1.484 2.391L.234-.203V.03L2.391 0zm0 0"/></symbol></defs><use xlink:href="#a" x="-.42" y="11.082"/><use xlink:href="#b" x="11.535" y="11.082"/><use xlink:href="#c" x="23.49" y="11.082"/><use xlink:href="#d" x="35.446" y="11.082"/><use xlink:href="#e" x="47.401" y="11.082"/><use xlink:href="#f" x="59.356" y="11.082"/><use xlink:href="#g" x="71.311" y="11.082"/><use xlink:href="#h" x="83.266" y="11.082"/><use xlink:href="#i" x="98.543" y="11.082"/><use xlink:href="#j" x="110.941" y="11.082"/><use xlink:href="#k" x="118.915" y="11.082"/><g><use xlink:href="#h" x="124.92" y="11.082"/></g><g><use xlink:href="#l" x="136.875" y="13.856"/></g><g><use xlink:href="#m" x="145.028" y="11.082"/></g><g><use xlink:href="#n" x="156.768" y="11.082"/></g><g><use xlink:href="#k" x="164.957" y="11.082"/></g><g><use xlink:href="#h" x="170.968" y="11.082"/></g><g><use xlink:href="#o" x="182.923" y="13.856"/></g></svg>