<svg xmlns="http://www.w3.org/2000/svg" xmlns:xlink="http://www.w3.org/1999/xlink" width="73pt" height="26pt" viewBox="0 0 73 26"><defs><symbol overflow="visible" id="a"><path d="M2.531.094C2.344.945 2.062 1.582 1.687 2a1.779 1.779 0 0 1-1.39.625c-.168 0-.297-.012-.39-.031l.109-.516c.039.008.129.016.265.016a.736.736 0 0 0 .453-.14c.125-.087.239-.243.344-.47.113-.218.219-.527.313-.921l1.25-5.579h-.985l.078-.406c.27-.008.461-.023.579-.047a.673.673 0 0 0 .265-.125.821.821 0 0 0 .156-.218c.051-.094.11-.254.172-.485.207-.707.524-1.238.953-1.594.438-.351.989-.53 1.657-.53.382 0 .718.03 1 .093l-.235 1h-.515c-.055-.219-.125-.375-.22-.469-.085-.101-.214-.156-.39-.156a.872.872 0 0 0-.562.187 1.528 1.528 0 0 0-.407.547c-.105.242-.203.57-.296.985l-.141.625h1.5l-.125.593H3.609zm0 0"/></symbol><symbol overflow="visible" id="b"><path d="M2.063-2.969c0 1.367.218 2.492.656 3.375.445.895 1.117 1.492 2.015 1.797l-.14.453C3.457 2.352 2.582 1.703 1.969.703c-.606-.988-.907-2.191-.907-3.61 0-1.405.301-2.609.907-3.609.613-1 1.488-1.648 2.625-1.953l.172.453c-.918.305-1.602.891-2.047 1.766-.438.867-.656 1.96-.656 3.281zm0 0"/></symbol><symbol overflow="visible" id="c"><path d="M5.031-5.313l.547-.39.375.094-.86 3.718c-.093.368-.14.653-.14.86 0 .156.024.273.078.343.051.075.133.11.25.11a.61.61 0 0 0 .36-.14c.132-.102.328-.286.578-.548l.328.329c-.356.375-.656.64-.906.796a1.44 1.44 0 0 1-.797.235.748.748 0 0 1-.578-.235c-.149-.164-.22-.379-.22-.64 0-.219.04-.446.126-.688L4.109-1.5c-.375.555-.734.96-1.078 1.219-.336.25-.687.375-1.062.375-.43 0-.762-.16-1-.485-.242-.332-.36-.789-.36-1.375C.61-2.43.74-3.07 1-3.687c.27-.626.633-1.114 1.094-1.47a2.47 2.47 0 0 1 1.547-.546c.25 0 .484.031.703.094.226.054.457.152.687.296zm-.515 1.75a3.32 3.32 0 0 0 .078-.421c.008-.114.015-.239.015-.375 0-.301-.07-.52-.203-.657-.125-.144-.343-.218-.656-.218-.398 0-.758.164-1.078.484-.324.324-.574.762-.75 1.313a5.146 5.146 0 0 0-.266 1.624c0 .407.051.711.157.907.113.199.3.297.562.297.258 0 .516-.11.766-.329.25-.218.504-.535.765-.953.258-.414.446-.89.563-1.421zm0 0"/></symbol><symbol overflow="visible" id="d"><path d="M2.906-2.969c0-1.32-.219-2.414-.656-3.281A3.389 3.389 0 0 0 .219-8.016l.156-.453c1.145.305 2.02.953 2.625 1.953.613 1 .922 2.204.922 3.61 0 1.418-.309 2.62-.922 3.61-.605 1-1.48 1.648-2.625 1.952l-.14-.453C1.14 1.898 1.812 1.301 2.25.406c.438-.883.656-2.008.656-3.375zm0 0"/></symbol><symbol overflow="visible" id="e"><path d="M.875-4.25v-.781h7.219v.781zm0 2.422v-.781h7.219v.78zm7.469-1.594zm0 0"/></symbol><symbol overflow="visible" id="f"><path d="M4.938-5.469v1.219h-.75a1.834 1.834 0 0 0-.25-.594.751.751 0 0 0-.344-.297 1.044 1.044 0 0 0-.469-.093c-.273 0-.516.09-.734.265-.211.168-.375.434-.5.797-.118.356-.172.793-.172 1.313 0 .336.02.64.062.921.051.274.13.508.235.704.113.199.265.355.453.468.187.106.422.157.703.157.27 0 .52-.051.75-.157.226-.113.469-.3.719-.562l.343.39c-.199.22-.375.387-.53.5a2.811 2.811 0 0 1-.5.297c-.169.086-.34.141-.517.172-.167.04-.351.063-.546.063-.743 0-1.309-.242-1.704-.735C.801-1.129.61-1.836.61-2.766c0-.582.11-1.093.329-1.53.218-.446.523-.79.921-1.032.395-.25.852-.375 1.375-.375.313 0 .602.023.875.062.282.032.555.09.829.172zm0 0"/></symbol><symbol overflow="visible" id="g"><path d="M3.125.094c-.813 0-1.438-.239-1.875-.719C.82-1.102.61-1.813.61-2.75c0-.645.113-1.188.343-1.625.227-.445.535-.781.922-1a2.728 2.728 0 0 1 1.344-.328c.832 0 1.46.246 1.89.734.426.48.641 1.18.641 2.094 0 .648-.11 1.195-.328 1.64-.211.45-.512.782-.906 1-.399.22-.86.329-1.391.329zM1.719-2.875c0 .805.125 1.422.375 1.86.258.43.629.64 1.11.64.257 0 .483-.063.671-.188.188-.125.336-.289.453-.5.113-.218.192-.468.234-.75.051-.289.079-.585.079-.89 0-.57-.063-1.047-.188-1.422-.125-.383-.297-.664-.516-.844a1.166 1.166 0 0 0-.75-.265c-.468 0-.835.203-1.093.609-.25.406-.375.992-.375 1.75zm0 0"/></symbol><symbol overflow="visible" id="h"><path d="M4.5-4.313h-.563a2.074 2.074 0 0 0-.312-.562.957.957 0 0 0-.406-.281 1.638 1.638 0 0 0-.531-.078c-.313 0-.563.074-.75.218a.716.716 0 0 0-.282.594c0 .18.035.328.11.453.07.117.187.227.343.328.157.094.43.23.829.407.406.168.71.324.921.468.22.149.391.32.516.516.125.188.188.414.188.672 0 .312-.055.574-.157.781-.105.211-.258.383-.453.516A1.68 1.68 0 0 1 3.266 0a3.69 3.69 0 0 1-.86.094c-.324 0-.64-.028-.953-.078a5.645 5.645 0 0 1-.906-.188V-1.39h.578c.102.356.258.618.469.782.207.156.492.234.86.234.132 0 .269-.008.405-.031.133-.031.254-.078.36-.14a.793.793 0 0 0 .25-.282.997.997 0 0 0 .094-.453.874.874 0 0 0-.126-.485 1.09 1.09 0 0 0-.359-.343c-.156-.102-.445-.243-.86-.422a5.693 5.693 0 0 1-.859-.422 1.844 1.844 0 0 1-.5-.5 1.25 1.25 0 0 1-.187-.688c0-.32.086-.597.265-.828.176-.238.426-.422.75-.547a3.278 3.278 0 0 1 1.157-.187c.258 0 .508.016.75.047.238.023.539.07.906.14zm0 0"/></symbol><symbol overflow="visible" id="i"><path d="M1.453-.281L.922.094.547 0l1.515-6.703c.083-.395.126-.68.126-.86 0-.164-.055-.28-.157-.343-.094-.07-.273-.11-.531-.11l.078-.312 1.484-.047h.344L2.375-4.281l.063.031c.382-.508.742-.879 1.078-1.11.332-.226.66-.343.984-.343.426 0 .758.168 1 .5.238.324.36.777.36 1.36 0 .648-.133 1.28-.391 1.905-.262.625-.625 1.122-1.094 1.485a2.39 2.39 0 0 1-1.531.547c-.524 0-.985-.125-1.39-.375zm.516-1.766a3.68 3.68 0 0 0-.094.797c0 .313.066.54.203.672.133.137.36.203.672.203.164 0 .316-.023.453-.078.145-.05.29-.133.438-.25.156-.125.3-.285.437-.485a4.08 4.08 0 0 0 .375-.718c.113-.29.203-.602.266-.938.062-.332.093-.648.093-.953 0-.406-.058-.707-.171-.906-.118-.207-.305-.313-.563-.313a.934.934 0 0 0-.547.188c-.18.117-.383.312-.61.594a4.772 4.772 0 0 0-.546.843 5.612 5.612 0 0 0-.36 1.11zm0 0"/></symbol><symbol overflow="visible" id="j"><path d="M2.25-7.906v1.14H1.172v-1.14zM.562-.281a2.61 2.61 0 0 0 .329-.125.63.63 0 0 0 .266-.438c.03-.125.046-.328.046-.61V-4c0-.25-.008-.445-.016-.594a.94.94 0 0 0-.093-.375.396.396 0 0 0-.203-.203 1.392 1.392 0 0 0-.407-.125v-.312l1.375-.047h.344v4.187c0 .336.016.57.047.703a.543.543 0 0 0 .172.313c.094.062.238.121.437.172V0H.563zm0 0"/></symbol><symbol overflow="visible" id="k"><path d="M6.281 0H3.97v-.281a2.61 2.61 0 0 0 .328-.125.63.63 0 0 0 .266-.438 2.8 2.8 0 0 0 .046-.593v-1.547c0-.27-.011-.516-.03-.735a2.531 2.531 0 0 0-.079-.547.943.943 0 0 0-.125-.328.853.853 0 0 0-.188-.203A.985.985 0 0 0 3.563-5c-.156 0-.304.031-.437.094-.137.062-.29.172-.453.328a1.95 1.95 0 0 0-.36.437.997.997 0 0 0-.109.485v2.187c0 .336.016.57.047.703a.543.543 0 0 0 .172.313c.094.062.238.121.437.172V0H.563v-.281A2.61 2.61 0 0 0 .89-.406a.63.63 0 0 0 .266-.438c.03-.125.046-.328.046-.61V-4c0-.25-.008-.445-.016-.594a.94.94 0 0 0-.093-.375.396.396 0 0 0-.203-.203 1.392 1.392 0 0 0-.407-.125v-.312l1.375-.047h.36l-.063.953.078.031c.29-.289.524-.5.704-.625.175-.125.351-.223.53-.297.188-.07.38-.11.579-.11.207 0 .394.028.562.079.164.055.313.133.438.234a.95.95 0 0 1 .312.375c.082.149.145.329.188.547.039.211.062.477.062.797v2.203c0 .274.004.469.016.594.02.117.05.21.094.281.039.063.097.121.172.172.07.043.203.09.39.14zm0 0"/></symbol></defs><use xlink:href="#a" x=".499" y="8.745"/><use xlink:href="#b" x="7.421" y="8.745"/><use xlink:href="#c" x="12.382" y="8.745"/><use xlink:href="#d" x="19.328" y="8.745"/><use xlink:href="#e" x="27.613" y="8.745"/><use xlink:href="#f" x="39.867" y="8.745"/><use xlink:href="#g" x="45.14" y="8.745"/><use xlink:href="#h" x="51.488" y="8.745"/><use xlink:href="#b" x="56.629" y="8.745"/><use xlink:href="#c" x="61.59" y="8.745"/><use xlink:href="#d" x="68.536" y="8.745"/><use xlink:href="#a" x="1.555" y="23.19"/><g><use xlink:href="#b" x="8.477" y="23.19"/><use xlink:href="#i" x="13.438" y="23.19"/></g><g><use xlink:href="#d" x="20.145" y="23.19"/></g><g><use xlink:href="#e" x="28.43" y="23.19"/></g><g><use xlink:href="#h" x="40.672" y="23.19"/><use xlink:href="#j" x="45.813" y="23.19"/><use xlink:href="#k" x="49.137" y="23.19"/><use xlink:href="#b" x="55.808" y="23.19"/><use xlink:href="#i" x="60.769" y="23.19"/></g><g><use xlink:href="#d" x="67.476" y="23.19"/></g></svg>