<svg xmlns="http://www.w3.org/2000/svg" xmlns:xlink="http://www.w3.org/1999/xlink" width="552" height="73pt" viewBox="0 0 414 73"><defs><symbol overflow="visible" id="a"><path d="M8.266-2.766a1.332 1.332 0 0 1-.047-.359c0-.11.015-.234.062-.484h-7.5c.063.25.063.375.063.484 0 .125 0 .25-.063.5h7.5zm0 0"/></symbol><symbol overflow="visible" id="b"><path d="M5.125-.094v-.484l-.75-.047c-.656-.031-.64-.031-.64-.656v-7.172l-.313-.125c-.875.469-1.61.781-2.86 1.219l.125.718h.235l1.547-.687.031-.016c.063 0-.047-.015-.047.266v5.797c0 .625.016.625-.64.656L1-.578v.625L3.125 0l2 .047zm0 0"/></symbol><symbol overflow="visible" id="c"><path d="M5.672-2.594c0-.953-.563-1.61-1.672-2.11.922-.624 1.344-1.218 1.344-1.937 0-1.03-.985-1.859-2.25-1.859-1.422 0-2.61 1.047-2.61 2.297 0 .812.36 1.36 1.25 1.937-.218.11-.53.266-.796.532a2.443 2.443 0 0 0-.72 1.703C.219-.797 1.345.234 2.704.234c1.547 0 2.969-1.343 2.969-2.828zm-1.219.5c0 1-.61 1.656-1.578 1.656-1.016 0-1.531-.578-1.531-1.687 0-.875.312-1.328 1.11-1.813l.937.407c.75.344 1.062.797 1.062 1.437zM4.25-6.516c0 .688-.25 1.047-.953 1.5l-.625-.296c-.766-.375-1.016-.72-1.016-1.329 0-.78.453-1.187 1.297-1.187.875 0 1.297.437 1.297 1.312zm0 0"/></symbol><symbol overflow="visible" id="d"><path d="M3.703-5.516c-.453.047-.86.063-1.156.063.172-.984.297-1.578.531-2.25l-.25-.328a7.16 7.16 0 0 1-1.094.531l-.296 2.031c-.391.203-.704.328-1.063.407l-.047.406h1l-.64 3.25C.625-1.11.53-.813.53-.5c0 .297.266.61.5.61.422 0 .922-.282 1.86-1.032.218-.172.14-.125.437-.36l-.25-.437-.672.469c-.36.25-.484.313-.625.313-.093 0-.031.046-.031-.11 0-.297.156-1.234.516-3l.14-.61h1.266l.203-.89zm0 0"/></symbol><symbol overflow="visible" id="f"><path d="M5.875-5.875c-.14-.078-.344-.156-.453-.156-.469 0-1.063.468-1.797 1.578l-.453.656.25.094-.078-.578c-.14-1.188-.594-1.75-1.297-1.75-.313 0-.688.14-.797.297L.484-4.61l.407.25c.437-.485.578-.61.812-.61.39 0 .516.36.719 1.532l.125.718-.438.656C1.594-1.25 1.297-.905.953-.905c-.172 0-.172.078-.203.015l-.188-.468-.453.062c0 .36-.03.516-.093.89-.032.141-.047.173-.063.329.219.125.531.203.672.203.39 0 .953-.375 1.328-.938l.906-1.406-.234-.094.125.829c.172 1.015.578 1.609 1 1.609.266 0 .75-.234 1.125-.578l.64-.578-.218-.469c-.578.453-.766.61-.953.61-.188 0-.25-.094-.453-.5.015.046-.11-.407-.172-.75L3.5-3.313l.39-.532c.563-.765.782-1.015 1.157-1.015.187 0 .187-.032.312.312l.36-.11.203-1.171zm0 0"/></symbol><symbol overflow="visible" id="g"><path d="M5.953-5.875l-.203-.156c-.375.14-.64.203-1.016.234l-.453 1.703c-.14.563-.531 1.344-.922 1.938-.421.61-.89 1.094-1.156 1.094-.265 0-.11-.438-.094-.594l.172-2.328c.031-.36.047-.829.047-1.157 0-.53-.219-.89-.422-.89-.156 0-.422.125-1 .515L-.14-4.78l.266.437.734-.453c.063-.047.125-.11.204-.11.312 0 .125.485.109.673L.969-1.328l-.016.484c-.015.5.36.969.656.969.454 0 1.547-1.047 2.438-2.39l-.234-.094-.579 2.03c-.609 2.126-1.078 2.86-1.906 2.86-.422 0-.61-.187-.61-.61 0-.062.016-.155.032-.343l-.297-.11-.672.485c-.015.156-.015.219-.015.281 0 .516.578 1.063 1.125 1.063 1.265 0 2.703-1.61 3.406-3.828L6-5.828zm0 0"/></symbol><symbol overflow="visible" id="i"><path d="M8.266-2.766a1.332 1.332 0 0 1-.047-.359c0-.11.015-.234.062-.484h-3.25v-3.266c-.25.063-.375.078-.484.078-.125 0-.25-.016-.5-.078v3.266H.78c.063.25.063.375.063.484 0 .125 0 .25-.063.5h3.266V.641c.25-.063.375-.079.5-.079.11 0 .234.016.484.079v-3.266h3.25zm0 0"/></symbol><symbol overflow="visible" id="j"><path d="M5.656-2.813c0-.562-.281-1.171-.703-1.468-.297-.219-.672-.344-.953-.407.734-.562 1.125-1.203 1.125-1.906 0-1.062-1.016-1.906-2.344-1.906-.812 0-1.453.266-2.047.86L.328-5.954h.64l.266-.797c.125-.406.75-.688 1.375-.688.766 0 1.266.5 1.266 1.25 0 .907-.563 1.532-1.406 1.532-.11 0-.469.187-.469.187l-.25-.093-.14.671.202.188C2.297-3.938 2.516-4 2.845-4c1 0 1.422.516 1.422 1.594 0 1.219-.579 1.89-1.704 1.89-.546 0-.937-.14-1.296-.468C.984-1.25.859-1.438.578-2.25l-.562.219C.28-1.234.375-.797.469-.11c.765.25 1.281.343 1.734.343.953 0 2.14-.562 2.813-1.375.406-.484.64-1.109.64-1.671zm0 0"/></symbol><symbol overflow="visible" id="k"><path d="M5.719-2.75c0-1.375-.953-2.406-2.219-2.406-.703 0-1.25.328-1.766.75.22-1.844 1.094-2.89 3.375-3.563v-.265L4.531-8.5c-1.156.39-1.75.656-2.36 1.188C.939-6.282.235-4.72.235-3.079.234-1.11 1.344.234 2.875.234c1.563 0 2.844-1.359 2.844-2.984zm-1.297.422c0 1.234-.469 1.906-1.39 1.906-1.016 0-1.423-.734-1.423-2.344 0-.406 0-.546.141-.75.266-.406.719-.656 1.297-.656.906 0 1.375.656 1.375 1.844zm0 0"/></symbol><symbol overflow="visible" id="n"><path d="M5.625-3.156c0-1.344-1.11-2.438-2.469-2.438-.578 0-1.11.188-1.61.485l.095-2.11 3.578.063.14-.157c-.03-.265-.03-.343-.03-.515 0-.188 0-.266.03-.531l-.093-.11v.203s-1.375-.171-2.188-.171c-.812 0-1.984.171-1.984.171L.89-8.469l-.094.11.031 1.687C.828-5.625.781-4.5.75-3.89l.422.141c.625-.625.844-.75 1.437-.75 1.141 0 1.72.672 1.72 1.969 0 1.328-.626 1.969-1.923 1.969-.656 0-1.156-.172-1.312-.485l-.61-1.062-.5.28c.297.735.454 1.126.641 1.735.344.188.922.328 1.438.328.812 0 1.75-.375 2.406-.953.734-.64 1.156-1.547 1.156-2.437zm0 0"/></symbol><symbol overflow="visible" id="o"><path d="M5.766-.094v-.484l-.704-.047c-.578-.031-.578-.063-.578-.781v-.75c.579 0 .829 0 1.282.062v-1L5.734-3s-.671-.188-1.062-.188h-.188v-1.53c0-2.126.016-3.157.094-3.72l-.281-.124-.984.343-3.438 5.64.203.423h3.125v.75c0 .718.016.765-.578.781l-.875.047v.625L3.813 0l1.953.047zM3.344-3.188H1l2.438-3.984-.235-.094v4.079zm0 0"/></symbol><symbol overflow="visible" id="e"><path d="M4.75-.11c-.016-.187-.016-.265-.016-.39s0-.203.032-.547l-3.141.094 1.5-1.469c.938-.922 1.281-1.5 1.281-2.172 0-1.015-.906-1.781-2.14-1.781-.688 0-1.282.219-1.782.703l-.187 1.39h.547l.172-.53c.156-.516.359-.61 1-.61.843 0 1.203.344 1.203 1.094 0 .672-.36 1.234-1.453 2.297L.078-.391v.422L2.406 0l2.36.031zm0 0"/></symbol><symbol overflow="visible" id="h"><path d="M4.281-.11V-.5l-.656-.031c-.531-.031-.484.015-.484-.453v-5.344l-.282-.094c-.625.313-1.312.578-2.375.906l.125.594h.22l1.25-.516h.03c.047 0-.078-.062-.078.157v4.297c0 .468.047.421-.469.453L.86-.5v.531L2.61 0l1.672.031zm0 0"/></symbol><symbol overflow="visible" id="l"><path d="M4.703-2.125c0-.422-.234-.89-.578-1.11a2.69 2.69 0 0 0-.719-.296c.531-.36.875-.875.875-1.39 0-.798-.875-1.454-1.937-1.454-.656 0-1.203.203-1.703.656L.312-4.406h.594l.219-.64c.11-.298.563-.47 1.078-.47.61 0 .969.344.969.907 0 .656-.406 1.078-1.094 1.078-.078 0-.344.203-.344.203l-.265-.094-.125.531.203.141c.39-.172.578-.203.844-.203.796 0 1.093.328 1.093 1.14 0 .907-.421 1.36-1.328 1.36-.437 0-.719-.094-1.015-.344C.906-1 .828-1.094.578-1.75l-.531.188c.234.609.312.937.375 1.468C1.078.11 1.5.172 1.875.172c.766 0 1.75-.422 2.281-1.016.328-.375.547-.86.547-1.281zm0 0"/></symbol><symbol overflow="visible" id="m"><path d="M4.797-.11V-.5l-.61-.031c-.468-.031-.437-.016-.437-.547v-.531c.422 0 .625.015 1.047.062v-.781l-.047.094s-.578-.204-.89-.204h-.11V-3.53c0-1.578.031-2.344.078-2.781l-.281-.11-.813.281-2.796 4.188.187.344h2.5v.53c0 .532.063.532-.406.548L1.453-.5v.531L3.172 0l1.625.031zm-2-2.328H.969l1.922-2.89-.266-.094v2.984zm0 0"/></symbol></defs><use xlink:href="#a" x="-.678" y="10.965"/><use xlink:href="#b" x="8.408" y="10.965"/><use xlink:href="#c" x="14.386" y="10.965"/><use xlink:href="#d" x="20.363" y="10.965"/><use xlink:href="#e" x="24.404" y="6.733"/><use xlink:href="#f" x="29.905" y="10.965"/><use xlink:href="#e" x="35.882" y="13.738"/><use xlink:href="#g" x="41.383" y="10.965"/><use xlink:href="#h" x="47.36" y="13.738"/><use xlink:href="#i" x="62.823" y="10.965"/><use xlink:href="#j" x="81.868" y="10.965"/><use xlink:href="#k" x="87.845" y="10.965"/><use xlink:href="#d" x="93.823" y="10.965"/><use xlink:href="#e" x="97.868" y="6.733"/><use xlink:href="#f" x="103.368" y="10.965"/><use xlink:href="#l" x="109.346" y="13.738"/><use xlink:href="#g" x="114.846" y="10.965"/><use xlink:href="#h" x="120.824" y="13.738"/><use xlink:href="#a" x="136.287" y="10.965"/><use xlink:href="#b" x="155.332" y="10.965"/><use xlink:href="#c" x="161.309" y="10.965"/><use xlink:href="#d" x="167.287" y="10.965"/><use xlink:href="#e" x="171.331" y="6.733"/><use xlink:href="#f" x="176.832" y="10.965"/><use xlink:href="#m" x="182.809" y="13.738"/><use xlink:href="#g" x="188.31" y="10.965"/><use xlink:href="#h" x="194.287" y="13.738"/><use xlink:href="#i" x="209.75" y="10.965"/><use xlink:href="#b" x="228.795" y="10.965"/><use xlink:href="#c" x="234.772" y="10.965"/><use xlink:href="#d" x="240.75" y="10.965"/><use xlink:href="#e" x="244.795" y="6.733"/><use xlink:href="#f" x="250.295" y="10.965"/><use xlink:href="#h" x="256.273" y="13.738"/><use xlink:href="#g" x="261.773" y="10.965"/><use xlink:href="#e" x="267.751" y="13.738"/><use xlink:href="#a" x="283.214" y="10.965"/><use xlink:href="#n" x="302.259" y="10.965"/><use xlink:href="#o" x="308.236" y="10.965"/><use xlink:href="#d" x="314.214" y="10.965"/><use xlink:href="#e" x="318.258" y="6.733"/><use xlink:href="#f" x="323.759" y="10.965"/><use xlink:href="#l" x="329.736" y="13.738"/><use xlink:href="#g" x="335.237" y="10.965"/><use xlink:href="#e" x="341.214" y="13.738"/><use xlink:href="#i" x="-.677" y="25.631"/><use xlink:href="#j" x="8.409" y="25.631"/><use xlink:href="#k" x="14.387" y="25.631"/><use xlink:href="#d" x="20.364" y="25.631"/><use xlink:href="#e" x="24.404" y="21.399"/><use xlink:href="#f" x="29.905" y="25.631"/><use xlink:href="#m" x="35.882" y="28.404"/><use xlink:href="#g" x="41.383" y="25.631"/><use xlink:href="#e" x="47.36" y="28.404"/><use xlink:href="#a" x="62.823" y="25.631"/><use xlink:href="#j" x="81.868" y="25.631"/><use xlink:href="#k" x="87.845" y="25.631"/><use xlink:href="#d" x="93.823" y="25.631"/><use xlink:href="#e" x="97.868" y="21.399"/><use xlink:href="#f" x="103.368" y="25.631"/><use xlink:href="#h" x="109.346" y="28.404"/><use xlink:href="#g" x="114.846" y="25.631"/><use xlink:href="#l" x="120.824" y="28.404"/><use xlink:href="#i" x="136.287" y="25.631"/><use xlink:href="#n" x="155.332" y="25.631"/><use xlink:href="#o" x="161.309" y="25.631"/><use xlink:href="#d" x="167.287" y="25.631"/><use xlink:href="#e" x="171.331" y="21.399"/><use xlink:href="#f" x="176.832" y="25.631"/><use xlink:href="#e" x="182.809" y="28.404"/><use xlink:href="#g" x="188.31" y="25.631"/><use xlink:href="#l" x="194.287" y="28.404"/><use xlink:href="#a" x="209.75" y="25.631"/><use xlink:href="#b" x="228.795" y="25.631"/><use xlink:href="#c" x="234.772" y="25.631"/><use xlink:href="#d" x="240.75" y="25.631"/><use xlink:href="#e" x="244.795" y="21.399"/><use xlink:href="#f" x="250.295" y="25.631"/><use xlink:href="#m" x="256.273" y="28.404"/><use xlink:href="#g" x="261.773" y="25.631"/><use xlink:href="#l" x="267.751" y="28.404"/><use xlink:href="#i" x="283.214" y="25.631"/><use xlink:href="#b" x="302.259" y="25.631"/><use xlink:href="#c" x="308.236" y="25.631"/><use xlink:href="#d" x="314.214" y="25.631"/><use xlink:href="#e" x="318.258" y="21.399"/><use xlink:href="#f" x="323.759" y="25.631"/><use xlink:href="#h" x="329.736" y="28.404"/><use xlink:href="#g" x="335.237" y="25.631"/><use xlink:href="#m" x="341.214" y="28.404"/><use xlink:href="#a" x="-.677" y="40.297"/><use xlink:href="#j" x="8.409" y="40.297"/><use xlink:href="#k" x="14.387" y="40.297"/><use xlink:href="#d" x="20.364" y="40.297"/><use xlink:href="#e" x="24.404" y="36.065"/><use xlink:href="#f" x="29.905" y="40.297"/><use xlink:href="#e" x="35.882" y="43.07"/><use xlink:href="#g" x="41.383" y="40.297"/><use xlink:href="#m" x="47.36" y="43.07"/><use xlink:href="#i" x="62.823" y="40.297"/><use xlink:href="#b" x="81.868" y="40.297"/><use xlink:href="#c" x="87.845" y="40.297"/><use xlink:href="#d" x="93.823" y="40.297"/><use xlink:href="#e" x="97.868" y="36.065"/><use xlink:href="#f" x="103.368" y="40.297"/><use xlink:href="#l" x="109.346" y="43.07"/><use xlink:href="#g" x="114.846" y="40.297"/><use xlink:href="#m" x="120.824" y="43.07"/><use xlink:href="#i" x="136.287" y="40.297"/><use xlink:href="#j" x="155.332" y="40.297"/><use xlink:href="#k" x="161.309" y="40.297"/><use xlink:href="#d" x="167.287" y="40.297"/><use xlink:href="#f" x="171.328" y="40.297"/><use xlink:href="#e" x="177.309" y="43.07"/><use xlink:href="#g" x="182.809" y="40.297"/><use xlink:href="#h" x="188.787" y="43.07"/><use xlink:href="#a" x="209.75" y="40.297"/><use xlink:href="#n" x="228.795" y="40.297"/><use xlink:href="#o" x="234.772" y="40.297"/><use xlink:href="#d" x="240.75" y="40.297"/><use xlink:href="#f" x="244.791" y="40.297"/><use xlink:href="#l" x="250.772" y="43.07"/><use xlink:href="#g" x="256.273" y="40.297"/><use xlink:href="#h" x="262.25" y="43.07"/><use xlink:href="#i" x="283.214" y="40.297"/><use xlink:href="#b" x="302.259" y="40.297"/><use xlink:href="#c" x="308.236" y="40.297"/><use xlink:href="#d" x="314.214" y="40.297"/><use xlink:href="#f" x="318.255" y="40.297"/><use xlink:href="#m" x="324.236" y="43.07"/><use xlink:href="#g" x="329.736" y="40.297"/><use xlink:href="#h" x="335.714" y="43.07"/><use xlink:href="#a" x="356.677" y="40.297"/><use xlink:href="#j" x="375.722" y="40.297"/><use xlink:href="#k" x="381.699" y="40.297"/><use xlink:href="#d" x="387.677" y="40.297"/><use xlink:href="#f" x="391.718" y="40.297"/><use xlink:href="#h" x="397.699" y="43.07"/><use xlink:href="#g" x="403.2" y="40.297"/><use xlink:href="#e" x="409.177" y="43.07"/><use xlink:href="#i" x="-.677" y="54.743"/><use xlink:href="#n" x="8.409" y="54.743"/><use xlink:href="#o" x="14.387" y="54.743"/><use xlink:href="#d" x="20.364" y="54.743"/><use xlink:href="#f" x="24.393" y="54.743"/><use xlink:href="#l" x="30.382" y="57.516"/><use xlink:href="#g" x="35.882" y="54.743"/><use xlink:href="#e" x="41.86" y="57.516"/><use xlink:href="#a" x="62.823" y="54.743"/><use xlink:href="#b" x="81.868" y="54.743"/><use xlink:href="#c" x="87.845" y="54.743"/><use xlink:href="#d" x="93.823" y="54.743"/><use xlink:href="#f" x="97.864" y="54.743"/><use xlink:href="#m" x="103.846" y="57.516"/><use xlink:href="#g" x="109.346" y="54.743"/><use xlink:href="#e" x="115.323" y="57.516"/><use xlink:href="#i" x="136.287" y="54.743"/><use xlink:href="#n" x="155.332" y="54.743"/><use xlink:href="#o" x="161.309" y="54.743"/><use xlink:href="#d" x="167.287" y="54.743"/><use xlink:href="#f" x="171.328" y="54.743"/><use xlink:href="#h" x="177.309" y="57.516"/><use xlink:href="#g" x="182.809" y="54.743"/><use xlink:href="#l" x="188.787" y="57.516"/><use xlink:href="#a" x="209.75" y="54.743"/><use xlink:href="#n" x="228.795" y="54.743"/><use xlink:href="#o" x="234.772" y="54.743"/><use xlink:href="#d" x="240.75" y="54.743"/><use xlink:href="#f" x="244.791" y="54.743"/><g><use xlink:href="#e" x="250.772" y="57.516"/></g><g><use xlink:href="#g" x="256.273" y="54.743"/></g><g><use xlink:href="#l" x="262.25" y="57.516"/></g><g><use xlink:href="#a" x="283.214" y="54.743"/></g><g><use xlink:href="#b" x="302.259" y="54.743"/><use xlink:href="#c" x="308.236" y="54.743"/><use xlink:href="#d" x="314.214" y="54.743"/></g><g><use xlink:href="#f" x="318.255" y="54.743"/></g><g><use xlink:href="#h" x="324.236" y="57.516"/></g><g><use xlink:href="#g" x="329.736" y="54.743"/></g><g><use xlink:href="#m" x="335.714" y="57.516"/></g><g><use xlink:href="#i" x="356.677" y="54.743"/></g><g><use xlink:href="#b" x="375.722" y="54.743"/><use xlink:href="#c" x="381.699" y="54.743"/><use xlink:href="#d" x="387.677" y="54.743"/></g><g><use xlink:href="#f" x="391.718" y="54.743"/></g><g><use xlink:href="#e" x="397.699" y="57.516"/></g><g><use xlink:href="#g" x="403.2" y="54.743"/></g><g><use xlink:href="#m" x="409.177" y="57.516"/></g><g><use xlink:href="#a" x="-.677" y="69.188"/><use xlink:href="#b" x="8.409" y="69.188"/><use xlink:href="#c" x="14.387" y="69.188"/><use xlink:href="#f" x="20.364" y="69.188"/></g><g><use xlink:href="#e" x="26.341" y="71.962"/></g><g><use xlink:href="#g" x="31.842" y="69.188"/></g><g><use xlink:href="#h" x="37.819" y="71.962"/></g><g><use xlink:href="#i" x="62.823" y="69.188"/></g><g><use xlink:href="#b" x="81.868" y="69.188"/><use xlink:href="#c" x="87.845" y="69.188"/><use xlink:href="#f" x="93.823" y="69.188"/></g><g><use xlink:href="#l" x="99.805" y="71.962"/></g><g><use xlink:href="#g" x="105.305" y="69.188"/></g><g><use xlink:href="#h" x="111.283" y="71.962"/></g><g><use xlink:href="#i" x="136.287" y="69.188"/></g><g><use xlink:href="#b" x="155.332" y="69.188"/><use xlink:href="#c" x="161.309" y="69.188"/><use xlink:href="#f" x="167.287" y="69.188"/></g><g><use xlink:href="#h" x="173.268" y="71.962"/></g><g><use xlink:href="#g" x="178.769" y="69.188"/></g><g><use xlink:href="#e" x="184.746" y="71.962"/></g><g><use xlink:href="#a" x="209.75" y="69.188"/></g><g><use xlink:href="#b" x="228.795" y="69.188"/><use xlink:href="#c" x="234.772" y="69.188"/><use xlink:href="#f" x="240.75" y="69.188"/></g><g><use xlink:href="#l" x="246.732" y="71.962"/></g><g><use xlink:href="#g" x="252.232" y="69.188"/></g><g><use xlink:href="#e" x="258.21" y="71.962"/></g><g><use xlink:href="#a" x="283.214" y="69.188"/></g><g><use xlink:href="#b" x="302.259" y="69.188"/><use xlink:href="#c" x="308.236" y="69.188"/><use xlink:href="#f" x="314.214" y="69.188"/></g><g><use xlink:href="#h" x="320.195" y="71.962"/></g><g><use xlink:href="#g" x="325.695" y="69.188"/></g><g><use xlink:href="#l" x="331.673" y="71.962"/></g><g><use xlink:href="#i" x="356.677" y="69.188"/></g><g><use xlink:href="#b" x="375.722" y="69.188"/><use xlink:href="#c" x="381.699" y="69.188"/><use xlink:href="#f" x="387.677" y="69.188"/></g><g><use xlink:href="#e" x="393.659" y="71.962"/></g><g><use xlink:href="#g" x="399.159" y="69.188"/></g><g><use xlink:href="#l" x="405.136" y="71.962"/></g></svg>