<svg xmlns:xlink="http://www.w3.org/1999/xlink" width="33.333ex" height="7.333ex" style="vertical-align:-3.167ex;margin-bottom:1px;margin-top:1px" viewBox="0 -1846.5 14353.3 3193" xmlns="http://www.w3.org/2000/svg"><defs><path stroke-width="10" id="f" d="M425-238c0-7-5-12-12-12-105 0-196 52-196 125v250c0 58-55 113-130 113-7 0-12 5-12 12s5 12 12 12c75 0 130 55 130 113v250c0 73 91 125 196 125 7 0 12-5 12-12s-5-12-12-12c-75 0-130-49-130-101V375c0-58-48-104-115-125 67-21 115-67 115-125v-250c0-52 55-101 130-101 7 0 12-5 12-12z"/><path stroke-width="10" id="b" d="M468 372c0-52-57-383-225-383-46 0-134 16-134 124 0 43 13 89 57 205 7 18 17 45 17 70 0 32-17 32-25 32-29 0-72-23-101-124-5-16-6-18-16-18 0 0-12 0-12 10 0 9 38 154 132 154 50 0 82-37 82-82 0-19-5-33-12-50-31-83-58-156-58-212 0-52 23-87 74-87 117 0 178 229 178 271 0 36-13 62-34 82-11 11-16 17-16 30 0 22 24 48 49 48 18 0 44-16 44-70z"/><path stroke-width="10" id="c" d="M-56 616c0-7-5-12-11-14-36-12-65-38-81-72-2-5-7-9-13-9-9 0-15 7-15 15 0 2 0 4 1 6 10 23 26 43 45 59h-327c-8 0-15 7-15 15s7 15 15 15h327c-19 16-35 36-45 59-1 2-1 4-1 6 0 8 6 15 15 15 6 0 11-4 13-9 16-34 45-60 81-72 6-2 11-7 11-14z"/><path stroke-width="10" id="d" d="M527 376c0-40-32-58-54-58-27 0-38 19-38 35 0 24 20 49 48 54-21 13-45 13-50 13-70 0-93-92-99-118l-34-137c-11-44-17-66-17-88 0-34 16-66 55-66 32 0 100 24 133 131 2 7 4 11 13 11 3 0 12 0 12-10 0-25-57-154-160-154-60 0-96 39-108 76-3-6-39-76-105-76-44 0-94 20-94 66 0 32 25 58 55 58 15 0 37-8 37-35 0-28-22-49-47-54 21-13 44-13 50-13 44 0 79 42 95 104 37 140 54 207 54 238 0 58-35 67-54 67-34 0-100-25-134-131-2-9-5-11-13-11 0 0-12 0-12 10 0 25 57 154 161 154 29 0 83-10 108-76 12 23 47 76 105 76 34 0 93-14 93-66z"/><path stroke-width="10" id="e" d="M722 347c0-11-9-20-20-20H76c-11 0-20 9-20 20s9 20 20 20h626c11 0 20-9 20-20zm0-194c0-11-9-20-20-20H76c-11 0-20 9-20 20s9 20 20 20h626c11 0 20-9 20-20z"/><path stroke-width="10" id="g" d="M760 695l-63-255c-5-18-5-20-18-20-4 0-15 0-15 10s3 11 3 51c0 116-59 193-161 193-89 0-183-50-244-121-100-117-121-279-121-336C141 61 247 9 337 9c52 0 115 17 184 73 69 58 92 129 101 158 2 8 7 10 13 10 0 0 12 0 12-10 0-3-17-94-110-176-53-46-129-86-216-86C168-22 50 87 50 252c0 232 225 453 448 453 111 0 157-75 166-89l70 77c11 11 12 12 15 12 9 0 11-7 11-10z"/><path stroke-width="10" id="h" d="M203 1c0-117-80-194-91-194-5 0-10 4-10 11 0 3 0 5 11 16 33 33 68 93 68 167 0 14-2 15-2 15s-2-1-5-3c-10-9-23-13-35-13-33 0-53 26-53 53 0 28 20 53 53 53 39 0 64-39 64-105z"/><path stroke-width="10" id="i" d="M721 20c0-20-12-20-18-20-25 0-88 3-113 3-41 0-84-3-125-3 0 0-14 0-14 11 0 20 10 20 24 20 20 0 72 3 72 33 0 10-14 146-16 167H280c-68-116-69-116-76-128-8-14-14-25-14-37 0-25 24-33 47-35 7 0 16-1 16-12 0-19-13-19-19-19-32 0-67 3-100 3-28 0-59-3-86-3-8 0-13 5-13 11 0 19 9 19 21 20 44 3 83 17 123 84l348 584c6 10 10 17 26 17 17 0 17-4 19-24l61-625c3-29 3-36 65-36 13 0 23 0 23-11zM528 262l-32 330-197-330h229z"/><path stroke-width="10" id="j" d="M425 250c0-7-5-12-12-12-75 0-130-55-130-113v-250c0-73-91-125-196-125-7 0-12 5-12 12s5 12 12 12c75 0 130 49 130 101v250c0 58 48 104 115 125-67 21-115 67-115 125v250c0 52-55 101-130 101-7 0-12 5-12 12s5 12 12 12c105 0 196-52 196-125V375c0-58 55-113 130-113 7 0 12-5 12-12z"/><path stroke-width="10" id="k" d="M471 165H371V78c0-36 2-47 76-47h21V0c-41 3-94 3-136 3s-94 0-135-3v31h21c74 0 76 11 76 47v87H28v31l307 469c8 12 11 12 20 12 16 0 16-6 16-26V196h100v-31zm-171 31v373L56 196h244z"/><path stroke-width="10" id="l" d="M457 171c0-102-91-193-213-193C135-22 42 44 42 135c0 44 32 58 56 58 29 0 56-20 56-56 0-38-31-60-66-55C123 23 198 6 241 6c44 0 113 29 113 165 0 98-37 166-119 166h-44c-17 0-24 0-24 11 0 10 7 11 15 12 7 0 31 2 39 3 25 1 59 4 89 52 26 44 28 102 28 114 0 90-55 112-96 112-36 0-102-13-133-62 15 0 62 0 62-50 0-29-20-51-51-51-29 0-51 19-51 52 0 76 76 136 177 136 96 0 184-56 184-138 0-79-58-149-140-176 104-21 167-99 167-181z"/><path stroke-width="10" id="m" d="M192 250c0-29-24-53-53-53s-53 24-53 53 24 53 53 53 53-24 53-53z"/><path stroke-width="10" id="n" d="M332-238c0-5-5-10-10-10-2 0-4 1-6 2-110 83-215 283-215 454v84c0 171 105 371 215 454 2 1 4 2 6 2 5 0 10-5 10-10 0-3-2-6-4-8-104-78-173-278-173-438v-84c0-160 69-360 173-438 2-2 4-5 4-8z"/><path stroke-width="10" id="o" d="M756 545c0-95-105-169-209-188 97-11 155-69 155-141C702 118 584 0 426 0H69C51 0 42 0 42 11c0 20 10 20 27 20 79 0 81 8 91 47l134 537c3 12 4 15 4 19 0 13-9 14-27 16-17 2-38 2-38 2-19 0-28 0-28 11 0 20 10 20 29 20h336c120 0 186-64 186-138zm-91 4c0 44-21 103-109 103H427c-43 0-45-3-54-38l-62-248h146c122 0 208 95 208 183zm-56-322c0 43-19 117-115 117H305L236 65c-5-18-5-20-5-23 0-8 3-9 13-10 6-1 8-1 22-1h136c118 0 207 97 207 196z"/><path stroke-width="10" id="p" d="M722 250c0-11-9-20-20-20H76c-11 0-20 9-20 20s9 20 20 20h626c11 0 20-9 20-20z"/><path stroke-width="10" id="q" d="M288 208c0-171-105-371-215-454-2-1-4-2-6-2-5 0-10 5-10 10 0 3 2 6 4 8 104 78 173 278 173 438v84c0 160-69 360-173 438-2 2-4 5-4 8 0 5 5 10 10 10 2 0 4-1 6-2 110-83 215-283 215-454v-84z"/><path stroke-width="10" id="r" d="M490 404c0-7 0-9-4-23L390-1c-28-113-131-204-234-204-62 0-106 37-106 87 0 49 33 65 56 65 10 0 37-4 37-35 0-19-10-32-20-41-14-12-27-12-43-12 17-39 62-42 76-42 46 0 84 29 110 63 40 53 52 102 65 154-28-28-62-45-101-45-59 0-122 30-122 119 0 47 18 104 58 210 7 19 17 45 17 70 0 32-17 32-25 32-34 0-74-30-101-124-5-16-6-18-16-18 0 0-12 0-12 10 0 9 37 154 132 154 50 0 82-37 82-82 0-20-4-31-20-72-34-88-51-150-51-196 0-37 11-81 62-81 66 0 109 70 113 85l45 180 20 80c4 18 12 49 14 54 9 15 25 21 35 21 15 0 29-9 29-27z"/><path stroke-width="10" id="a" d="M755-1224c0-14-12-26-26-26-3 0-6 1-9 2-169 61-320 222-320 373v750c0 137-97 300-236 351-10 3-17 13-17 24s7 21 17 24c139 51 236 214 236 351v750c0 151 151 312 320 373 3 1 6 2 9 2 14 0 26-12 26-26 0-11-7-21-17-24-138-51-236-202-236-325V625c0-147-120-300-265-375 145-75 265-228 265-375v-750c0-123 98-274 236-325 10-3 17-13 17-24z"/></defs><g stroke="currentColor" fill="currentColor" stroke-width="0" transform="scale(1 -1)"><use xlink:href="#a"/><g transform="translate(1063 895)"><use xlink:href="#b"/><use xlink:href="#c" x="476" y="48"/><use transform="scale(.707)" xlink:href="#d" x="692" y="-213"/><use xlink:href="#e" x="1275"/><use xlink:href="#f" x="2336"/><use xlink:href="#g" x="2841"/><use xlink:href="#h" x="3606"/><use xlink:href="#i" x="4056"/><g transform="translate(4811)"><use xlink:href="#j"/><use transform="scale(.707)" xlink:href="#d" x="714" y="-213"/></g><use xlink:href="#e" x="6102"/><g transform="translate(7282)"><path stroke="none" d="M0 220h477v60H0z"/><use transform="scale(.707)" xlink:href="#k" x="84" y="638"/><use transform="scale(.707)" xlink:href="#l" x="84" y="-598"/></g><use xlink:href="#m" x="8102"/><use xlink:href="#n" x="8607"/><g transform="translate(9001)"><use xlink:href="#o"/><use transform="scale(.707)" xlink:href="#d" x="1080" y="-213"/></g><use xlink:href="#p" x="10495"/><g transform="translate(11500)"><use xlink:href="#g"/><use transform="scale(.707)" xlink:href="#d" x="1018" y="-213"/></g><use xlink:href="#q" x="12728"/></g><g transform="translate(1063 -888)"><use xlink:href="#b"/><use xlink:href="#c" x="476" y="48"/><use transform="scale(.707)" xlink:href="#r" x="692" y="-213"/><use xlink:href="#e" x="1217"/><use xlink:href="#f" x="2278"/><use xlink:href="#g" x="2783"/><use xlink:href="#h" x="3548"/><use xlink:href="#i" x="3998"/><g transform="translate(4753)"><use xlink:href="#j"/><use transform="scale(.707)" xlink:href="#r" x="714" y="-213"/></g><use xlink:href="#e" x="5986"/><g transform="translate(7166)"><path stroke="none" d="M0 220h477v60H0z"/><use transform="scale(.707)" xlink:href="#k" x="84" y="638"/><use transform="scale(.707)" xlink:href="#l" x="84" y="-598"/></g><use xlink:href="#m" x="7986"/><use xlink:href="#n" x="8491"/><g transform="translate(8885)"><use xlink:href="#o"/><use transform="scale(.707)" xlink:href="#r" x="1080" y="-213"/></g><use xlink:href="#p" x="10321"/><g transform="translate(11326)"><use xlink:href="#g"/><use transform="scale(.707)" xlink:href="#r" x="1018" y="-213"/></g><use xlink:href="#q" x="12496"/></g></g></svg>