<svg xmlns="http://www.w3.org/2000/svg" xmlns:xlink="http://www.w3.org/1999/xlink" width="272" height="116" viewBox="0 0 204 87"><defs><symbol overflow="visible" id="a"><path d="M11.234-8.531c-.328.015-.671.031-1 .031-.343 0-.671-.016-1.078-.047-.25.485-.031.172-1.047 1.906L5.172-1.594l.25.094-1.844-7.047c-.422.031-.75.047-1.094.047-.328 0-.671-.016-1.125-.047l-.062.61.469.03c.625.048.703.032.703.345a.693.693 0 0 1-.047.234L.687-1.25C.516-.625.47-.594-.327-.531l-.047.578L1.109 0C1.547 0 2 .016 2.547.047l.062-.594-.593-.047c-.391-.047-.47-.015-.47-.187 0-.125.032-.281.095-.5l1.484-5.547h-.281L4.656.219h.453l.72-1.282 2.843-4.953.625-1.03-.235-.095-.437 6.204c-.031.343-.047.28-.672.343l-.5.047-.047.594L9.156 0l1.703.047.063-.594-.578-.047C9.906-.64 9.813-.64 9.828-.89l.016-.437.484-6.344c.016-.234.078-.219.422-.234l.563-.032.062-.609zm0 0"/></symbol><symbol overflow="visible" id="b"><path d="M6.813-6.844c0-.984-1.094-1.687-2.016-1.687-.594 0-1.203.031-1.797.031l-1.938-.047-.062.61.797.03c.281 0 .266-.03.266.188 0 .172-.047.547-.11.907L.922-.782C.89-.577.875-.624.25-.531L.14.048A21.28 21.28 0 0 1 1.407 0c.64 0 1.266.031 1.922.031.563 0 1.219-.156 1.781-.5.954-.562 1.516-1.469 1.516-2.375 0-.515-.203-1-.531-1.265-.313-.25-.766-.391-1.594-.516v.266c.688-.25 1.063-.438 1.453-.75.531-.485.86-1.125.86-1.735zM5.296-2.656c0 1.234-.734 1.984-1.922 1.984-.25 0-.594-.015-.984-.047-.079-.015-.22-.015-.25-.031l.562-3.313h.906c1.235 0 1.688.375 1.688 1.407zm.219-3.985c0 1.266-.75 1.891-2.235 1.891h-.453l.531-3.016c.22 0 .532-.062.844-.062.969 0 1.313.297 1.313 1.187zm0 0"/></symbol><symbol overflow="visible" id="d"><path d="M8.266-4.078a1.419 1.419 0 0 1-.047-.36c0-.109.015-.234.062-.484h-7.5c.063.25.063.375.063.484 0 .125 0 .235-.063.5h7.5zm0 2.625a1.332 1.332 0 0 1-.047-.36c0-.109.015-.234.062-.484h-7.5c.063.25.063.375.063.485 0 .125 0 .25-.063.5h7.5zm0 0"/></symbol><symbol overflow="visible" id="f"><path d="M4.203-7.828a.735.735 0 0 1-.187-.14c-.063-.063-.11-.126-.22-.329-1.593 1.61-2.5 3.266-2.5 4.781v.797c0 1.516.907 3.172 2.5 4.781.11-.203.157-.265.22-.328.062-.062.125-.109.312-.203C2.875.063 2.281-1.344 2.281-2.719v-.797c0-1.39.594-2.78 2.047-4.25zm0 0"/></symbol><symbol overflow="visible" id="h"><path d="M3.766-2.719v-.797c0-1.515-.907-3.171-2.516-4.78-.11.202-.156.265-.203.327-.063.063-.125.11-.313.203 1.438 1.47 2.032 2.86 2.032 4.25v.797c0 1.375-.594 2.781-2.032 4.25.188.094.25.14.313.203.047.063.094.125.203.329C2.86.452 3.766-1.204 3.766-2.72zm0 0"/></symbol><symbol overflow="visible" id="k"><path d="M4.234-8.531L2.891-8.5l-1.75-.047-.063.61.719.03c.281 0 .266-.03.266.173 0 .109-.047.656-.11.921l-.86 5.188C.923-.562 1.032-.641.548-.594l-.563.031-.062.61L1.594 0l1.625.047.062-.61-.765-.03c-.329-.032-.297.015-.297-.22 0-.078 0-.187.015-.25l1.063-6.39c.078-.469.015-.406.484-.453l.531-.032.063-.609zm0 0"/></symbol><symbol overflow="visible" id="c"><path d="M5.156-.984L5-1.234 4.594-1c-.282.172-.39.234-.469.234-.078 0 .016.063.016-.046 0-.032-.032-.032.015-.157l.64-2.453c.063-.265.11-.515.11-.656 0-.203-.265-.453-.453-.453-.406 0-1.187.375-1.766.86-.359.312-.624.608-1.124 1.25l.265.093.36-1.422c.046-.156.062-.266.062-.36 0-.187-.234-.421-.375-.421-.203 0-.703.218-1.39.687l-.344.219.172.438.5-.297c.343-.204.265-.188.343-.188.11 0 .016-.047.016.094 0 .453-.406 2.156-.813 3.453l.172.219c.313-.078.531-.125.875-.188.203-1.218.375-1.703.813-2.312.531-.75 1.125-1.266 1.562-1.266.11 0 .016-.047.016.078 0 .172-.031.344-.11.64l-.5 1.876c-.093.328-.124.531-.124.672 0 .219.265.484.453.484.234 0 .687-.219 1.718-.922zm0 0"/></symbol><symbol overflow="visible" id="e"><path d="M4.422-4.453a1.395 1.395 0 0 0-.469-.078c-.625 0-1.547.718-2.75 2.265l.266.094L2.5-6.578l-.234-.203c-.532.25-.891.328-1.704.406l-.109.438h.656c.235 0 .172-.063.172.078 0 .078 0 .156-.015.218l-.47 2.375C.673-2.609.5-2 0-.094l.188.188.843-.188.25-1.203c.078-.437.266-.734.422-.875C2.281-.656 2.75.078 2.984.078c.125 0 .47-.156.891-.422l.5-.328-.172-.406-.594.297c-.14.078-.093.062-.171.062-.094 0-.047-.031-.141-.172-.344-.578-.5-.953-.875-2l.078-.062c.594-.547.922-.735 1.422-.735.062 0 .172.016.453.079l.219-.797zm0 0"/></symbol><symbol overflow="visible" id="g"><path d="M6.219-6.39L3.5-6.376.625-6.391.422-4.67h.562l.188-.673c.047-.187.078-.234.125-.297.062-.062.328-.078.687-.078h.891l-.797 4.485c-.14.796-.015.703-.406.718l-.64.032L.968.03 2.516 0l1.421.031.047-.515-.718-.032c-.266 0-.204.063-.204-.125 0-.093 0-.125.032-.312l.89-4.766h.579c.75 0 .937-.093.968.016.032.062.047.234.047.328l-.062.703h.578l.297-1.734zm0 0"/></symbol><symbol overflow="visible" id="i"><path d="M6.172-2.078c-.016-.094-.031-.188-.031-.266 0-.094.015-.187.062-.406H.516c.046.219.062.313.062.406 0 .078-.015.172-.062.39h5.687zm0 0"/></symbol><symbol overflow="visible" id="j"><path d="M4.281-.11V-.5l-.656-.031c-.531-.031-.484.015-.484-.453v-5.344l-.282-.094c-.625.313-1.312.578-2.375.906l.125.594h.22l1.25-.516h.03c.047 0-.078-.062-.078.157v4.297c0 .468.047.421-.469.453L.86-.5v.531L2.61 0l1.672.031zm0 0"/></symbol></defs><use xlink:href="#a" x="80.512" y="8.745"/><use xlink:href="#b" x="92.085" y="8.745"/><use xlink:href="#c" x="99.389" y="11.518"/><use xlink:href="#d" x="108.751" y="8.745"/><use xlink:href="#b" x="121.149" y="8.745"/><use xlink:href="#e" x="128.462" y="11.518"/><use xlink:href="#f" x="51.84" y="27.422"/><use xlink:href="#a" x="56.909" y="27.422"/><use xlink:href="#g" x="68.482" y="23.19"/><use xlink:href="#a" x="75.443" y="27.422"/><use xlink:href="#h" x="87.016" y="27.422"/><use xlink:href="#b" x="92.085" y="27.422"/><use xlink:href="#c" x="99.389" y="30.196"/><use xlink:href="#d" x="108.751" y="27.422"/><use xlink:href="#a" x="121.149" y="27.422"/><use xlink:href="#g" x="132.73" y="23.19"/><use xlink:href="#b" x="139.691" y="27.422"/><use xlink:href="#e" x="146.996" y="30.196"/><use xlink:href="#f" x="-.633" y="46.118"/><use xlink:href="#a" x="4.436" y="46.118"/><use xlink:href="#g" x="16.009" y="41.885"/><use xlink:href="#a" x="22.97" y="46.118"/><use xlink:href="#h" x="34.531" y="46.118"/><use xlink:href="#i" x="39.611" y="41.885"/><use xlink:href="#j" x="46.34" y="41.885"/><use xlink:href="#f" x="51.84" y="46.118"/><use xlink:href="#a" x="56.909" y="46.118"/><use xlink:href="#g" x="68.482" y="41.885"/><use xlink:href="#a" x="75.443" y="46.118"/><use xlink:href="#h" x="87.016" y="46.118"/><use xlink:href="#b" x="92.085" y="46.118"/><use xlink:href="#c" x="99.389" y="48.891"/><use xlink:href="#d" x="108.751" y="46.118"/><use xlink:href="#f" x="121.149" y="46.118"/><use xlink:href="#a" x="126.218" y="46.118"/><use xlink:href="#g" x="137.799" y="41.885"/><use xlink:href="#a" x="144.76" y="46.118"/><use xlink:href="#h" x="156.333" y="46.118"/><use xlink:href="#i" x="161.402" y="41.885"/><use xlink:href="#j" x="168.131" y="41.885"/><use xlink:href="#a" x="173.631" y="46.118"/><use xlink:href="#g" x="185.203" y="41.885"/><use xlink:href="#b" x="192.165" y="46.118"/><use xlink:href="#e" x="199.469" y="48.891"/><use xlink:href="#k" x="87.518" y="64.813"/><use xlink:href="#b" x="92.073" y="64.813"/><use xlink:href="#c" x="99.389" y="67.587"/><use xlink:href="#d" x="108.751" y="64.813"/><use xlink:href="#f" x="121.149" y="64.813"/><use xlink:href="#a" x="126.218" y="64.813"/><use xlink:href="#g" x="137.799" y="60.581"/><use xlink:href="#a" x="144.76" y="64.813"/><use xlink:href="#h" x="156.333" y="64.813"/><use xlink:href="#i" x="161.402" y="60.581"/><use xlink:href="#j" x="168.131" y="60.581"/><use xlink:href="#a" x="173.631" y="64.813"/><use xlink:href="#g" x="185.203" y="60.581"/><use xlink:href="#b" x="192.165" y="64.813"/><use xlink:href="#e" x="199.469" y="67.587"/><use xlink:href="#b" x="92.085" y="83.508"/><use xlink:href="#c" x="99.389" y="86.282"/><g><use xlink:href="#d" x="108.751" y="83.508"/></g><g><use xlink:href="#f" x="121.149" y="83.508"/><use xlink:href="#a" x="126.218" y="83.508"/></g><g><use xlink:href="#g" x="137.799" y="79.276"/></g><g><use xlink:href="#a" x="144.76" y="83.508"/></g><g><use xlink:href="#h" x="156.333" y="83.508"/></g><g><use xlink:href="#i" x="161.402" y="79.276"/><use xlink:href="#j" x="168.131" y="79.276"/></g><g><use xlink:href="#a" x="173.631" y="83.508"/></g><g><use xlink:href="#g" x="185.203" y="79.276"/></g><g><use xlink:href="#b" x="192.165" y="83.508"/></g><g><use xlink:href="#e" x="199.469" y="86.282"/></g></svg>