<svg xmlns="http://www.w3.org/2000/svg" xmlns:xlink="http://www.w3.org/1999/xlink" width="277pt" height="40" viewBox="0 0 277 30"><defs><symbol overflow="visible" id="a"><path d="M5.875-8.86l-.219-.187c-.75.375-1.078.438-2.062.531l-.094.5h.75c.281 0 .25-.046.25.157 0 .109 0 .203-.016.296L4.188-5.89a3.109 3.109 0 0 0-.875-.14c-.829 0-2.063.906-2.61 1.937-.375.703-.64 1.938-.64 2.938C.063-.375.374.125.734.125c.313 0 .86-.234 1.266-.563.64-.515 1.031-.984 1.844-2.187l-.25-.094-.266 1.078c-.14.532-.203.907-.203 1.22 0 .25.25.546.453.546.219 0 .594-.203 1-.5l1.047-.766-.266-.468-.656.468c-.172.125-.25.172-.36.172-.093 0-.046.031-.046-.14 0-.094.031-.204.11-.547l1.515-7.157zM4.031-5.03l-.14.703A5.233 5.233 0 0 1 2.375-1.61c-.422.39-.781.64-1.016.64-.187 0-.171-.031-.171-.328 0-1.516.515-3.281 1.109-3.734.156-.125.281-.14.61-.14.53 0 .765.03 1.109.218zm0 0"/></symbol><symbol overflow="visible" id="d"><path d="M4.203-7.828a.735.735 0 0 1-.187-.14c-.063-.063-.11-.126-.22-.329-1.593 1.61-2.5 3.266-2.5 4.781v.797c0 1.516.907 3.172 2.5 4.781.11-.203.157-.265.22-.328.062-.062.125-.109.312-.203C2.875.063 2.281-1.344 2.281-2.719v-.797c0-1.39.594-2.78 2.047-4.25zm0 0"/></symbol><symbol overflow="visible" id="e"><path d="M3.703-5.516c-.453.047-.86.063-1.156.063.172-.984.297-1.578.531-2.25l-.25-.328a7.16 7.16 0 0 1-1.094.531l-.296 2.031c-.391.203-.704.328-1.063.407l-.047.406h1l-.64 3.25C.625-1.11.53-.813.53-.5c0 .297.266.61.5.61.422 0 .922-.282 1.86-1.032.218-.172.14-.125.437-.36l-.25-.437-.672.469c-.36.25-.484.313-.625.313-.093 0-.031.046-.031-.11 0-.297.156-1.234.516-3l.14-.61h1.266l.203-.89zm0 0"/></symbol><symbol overflow="visible" id="f"><path d="M3.766-2.719v-.797c0-1.515-.907-3.171-2.516-4.78-.11.202-.156.265-.203.327-.063.063-.125.11-.313.203 1.438 1.47 2.032 2.86 2.032 4.25v.797c0 1.375-.594 2.781-2.032 4.25.188.094.25.14.313.203.047.063.094.125.203.329C2.86.452 3.766-1.204 3.766-2.72zm0 0"/></symbol><symbol overflow="visible" id="g"><path d="M8.266-4.078a1.419 1.419 0 0 1-.047-.36c0-.109.015-.234.062-.484h-7.5c.063.25.063.375.063.484 0 .125 0 .235-.063.5h7.5zm0 2.625a1.332 1.332 0 0 1-.047-.36c0-.109.015-.234.062-.484h-7.5c.063.25.063.375.063.485 0 .125 0 .25-.063.5h7.5zm0 0"/></symbol><symbol overflow="visible" id="h"><path d="M5.688-4.5c0-2.625-.907-4-2.547-4C1.297-8.5.203-6.89.203-4c0 1.39.281 2.703.703 3.281.422.594 1.203.953 1.938.953 1.812 0 2.844-1.687 2.844-4.734zm-1.282.594C4.406-1.36 4.094-.437 3-.437c-1.156 0-1.516-1.079-1.516-4 0-2.516.313-3.375 1.438-3.375 1.172 0 1.484 1.03 1.484 3.906zm0 0"/></symbol><symbol overflow="visible" id="i"><path d="M2.703-1.531L2.47-1.75c-.36.125-.563.203-1.328.406C1.047-.328.78.344.016 1.625l.312.25.61-.281C1.905.328 2.405-.516 2.75-1.47zm0 0"/></symbol><symbol overflow="visible" id="k"><path d="M9.61-8.531c-.438.015-.876.031-1.313.031-.422 0-.844-.016-1.375-.047l-.11.61.735.03c.312 0 .281-.046.281.157 0 .078-.031.39-.062.547L6.812-1.36l.235-.094L2.89-8.547c-.375.031-.704.047-1.032.047-.312 0-.64-.016-1.078-.047l-.11.61.579.03c.203 0 .36.048.5.157.172.14.313.281.313.375 0 .078-.032.281-.047.36L.953-1.345c-.14.735-.062.703-.5.75l-.484.047-.11.594L1.344 0c.453 0 .89.016 1.422.047l.109-.594-.656-.047c-.469-.047-.453 0-.453-.39 0-.11.015-.235.046-.36l.954-5.547-.25.094L6.594.125h.781l1.14-6.734c.235-1.344.157-1.282.594-1.297l.547-.032.11-.609zm0 0"/></symbol><symbol overflow="visible" id="n"><path d="M5.89 10.797c-1.374-.375-1.796-1.485-1.796-3.203V.437c0-1.921-.766-3.218-1.782-3.687v.266c1.016-.47 1.782-1.766 1.782-3.704v-7.14c0-1.719.422-2.828 1.984-3.25-.125-.235-.125-.235-.156-.297-.016-.094-.016-.172-.016-.406-1.812.468-3.031 1.843-3.031 3.953v7.14c0 2.079-.36 3.204-1.922 3.204.078.203.094.28.094.359 0 .094-.016.172-.094.375 1.563 0 1.922 1.125 1.922 3.188v7.156c0 2.093 1.219 3.468 3.031 3.968 0-.25 0-.343.016-.421.031-.079.031-.063.156-.297zm0 0"/></symbol><symbol overflow="visible" id="o"><path d="M5.125-.094v-.484l-.75-.047c-.656-.031-.64-.031-.64-.656v-7.172l-.313-.125c-.875.469-1.61.781-2.86 1.219l.125.718h.235l1.547-.687.031-.016c.063 0-.047-.015-.047.266v5.797c0 .625.016.625-.64.656L1-.578v.625L3.125 0l2 .047zm0 0"/></symbol><symbol overflow="visible" id="r"><path d="M8.469.469c-.016-.125-.031-.235-.031-.36s.015-.234.062-.484H4.547c-1.75 0-2.61-.75-2.719-2.25H8.5a2.634 2.634 0 0 1-.063-.5c0-.11.016-.234.063-.484H1.828c.11-1.5.969-2.25 2.719-2.25H8.5a2.657 2.657 0 0 1-.063-.485c0-.125.016-.25.063-.5H4.547c-2.328 0-3.734 1.39-3.734 3.719C.813-.781 2.218.594 4.546.594H8.5zm0 0"/></symbol><symbol overflow="visible" id="s"><path d="M3.938 1.297H2.28v-8.828h1.844c-.078-.203-.078-.282-.078-.375 0-.078 0-.157.078-.36H1.297V2.031h2.828c-.078-.203-.078-.281-.078-.375 0-.078 0-.156.078-.36zm0 0"/></symbol><symbol overflow="visible" id="t"><path d="M5.36-5.922a2.204 2.204 0 0 0-.563-.11c-.797 0-1.89.97-3.39 3.063l.25.094 1.28-5.938-.265-.234c-.75.375-1.063.438-2.047.531l-.094.5h.735c.28 0 .265-.046.265.157 0 .109-.015.203-.031.296L.937-4.358c-.156.89-.359 1.718-1 4.25l.204.234.968-.25.297-1.578c.11-.578.36-1.016.61-1.281C2.766-.844 3.28.109 3.578.109c.156 0 .547-.187 1.078-.562l.61-.438-.204-.453-.671.375c-.172.094-.141.078-.25.078-.11 0-.094-.03-.204-.234-.421-.766-.656-1.313-1.109-2.734l.125-.125c.735-.72 1.188-.985 1.781-.985.094 0 .22.016.516.094l.266-1zm0 0"/></symbol><symbol overflow="visible" id="u"><path d="M6.234-1.25l-.171-.297-.454.297c-.343.219-.5.313-.625.313-.078 0-.03.03-.03-.11 0-.047.015-.187.03-.234l.782-3.297c.093-.344.14-.688.14-.89 0-.266-.265-.563-.5-.563-.5 0-1.437.5-2.14 1.156-.454.422-.797.828-1.407 1.703l.235.094.453-1.938c.047-.203.078-.343.078-.484 0-.25-.234-.531-.406-.531-.266 0-.828.312-1.703.922l-.391.296.172.485.547-.36c.437-.28.39-.265.469-.265.14 0 .078 0 .078.172 0 .61-.5 2.922-.985 4.656l.172.25c.36-.094.625-.172 1.016-.234.234-1.625.468-2.313 1-3.125.656-1.016 1.453-1.72 1.984-1.72.125 0 .063-.015.063.157 0 .219-.032.469-.141.86l-.61 2.53c-.109.438-.156.72-.156.907 0 .297.266.61.5.61.313 0 .829-.282 2.079-1.22zm0 0"/></symbol><symbol overflow="visible" id="v"><path d="M5.047-4.094c0-1.125-.734-1.937-1.719-1.937-.515 0-1.187.25-1.719.625-.968.703-1.546 2-1.546 3.453C.063-.687.734.125 1.734.125c.657 0 1.47-.344 2-.844.75-.703 1.313-2.156 1.313-3.375zm-1.188.203C3.86-2.75 3.531-1.578 3-.937c-.219.25-.422.359-.781.359-.703 0-.969-.406-.969-1.36 0-1.343.422-2.718 1.016-3.203.156-.125.328-.171.609-.171.734 0 .984.406.984 1.421zm0 0"/></symbol><symbol overflow="visible" id="b"><path d="M4.422-4.453a1.395 1.395 0 0 0-.469-.078c-.625 0-1.547.718-2.75 2.265l.266.094L2.5-6.578l-.234-.203c-.532.25-.891.328-1.704.406l-.109.438h.656c.235 0 .172-.063.172.078 0 .078 0 .156-.015.218l-.47 2.375C.673-2.609.5-2 0-.094l.188.188.843-.188.25-1.203c.078-.437.266-.734.422-.875C2.281-.656 2.75.078 2.984.078c.125 0 .47-.156.891-.422l.5-.328-.172-.406-.594.297c-.14.078-.093.062-.171.062-.094 0-.047-.031-.141-.172-.344-.578-.5-.953-.875-2l.078-.062c.594-.547.922-.735 1.422-.735.062 0 .172.016.453.079l.219-.797zm0 0"/></symbol><symbol overflow="visible" id="c"><path d="M4.734-3.375c0-1.938-.78-3-2.109-3C1.141-6.375.219-5.141.219-3c0 1.031.234 2.031.578 2.453.344.438 1 .719 1.594.719 1.453 0 2.343-1.281 2.343-3.547zm-1.125.438c0 1.89-.203 2.53-1.093 2.53-.938 0-1.188-.75-1.188-2.921 0-1.86.203-2.469 1.125-2.469.938 0 1.156.734 1.156 2.86zm0 0"/></symbol><symbol overflow="visible" id="j"><path d="M2.531-.984l-.172-.25L1.953-1c-.281.188-.375.234-.469.234-.078 0 .016.063.016-.046 0-.079.016-.157.063-.344l.75-2.703a.983.983 0 0 0 .062-.313c0-.156-.234-.36-.39-.36-.22 0-.688.204-1.407.688l-.344.219.172.438.5-.297c.266-.172.266-.172.36-.172.093 0 0-.047 0 .062 0 .063-.047.25-.079.39l-.64 2.126c-.094.281-.125.5-.125.672 0 .219.266.484.453.484.25 0 .703-.234 1.734-.922zm.281-4.72c0-.218-.296-.5-.5-.5-.296 0-.734.423-.734.735 0 .219.313.485.563.485.296 0 .671-.391.671-.72zm0 0"/></symbol><symbol overflow="visible" id="l"><path d="M2.297-1.203l-.203-.172-1.125.328C.89-.28.688.187.047 1.172l.297.219.531-.235C1.672.234 2.078-.422 2.359-1.14zm0 0"/></symbol><symbol overflow="visible" id="m"><path d="M4.281-.11V-.5l-.656-.031c-.531-.031-.484.015-.484-.453v-5.344l-.282-.094c-.625.313-1.312.578-2.375.906l.125.594h.22l1.25-.516h.03c.047 0-.078-.062-.078.157v4.297c0 .468.047.421-.469.453L.86-.5v.531L2.61 0l1.672.031zm0 0"/></symbol><symbol overflow="visible" id="w"><path d="M6.172-2.078c-.016-.094-.031-.188-.031-.266 0-.094.015-.187.062-.406H3.781v-2.422c-.234.047-.328.063-.422.063-.078 0-.171-.016-.421-.063v2.422H.515c.046.219.062.313.062.406 0 .078-.015.172-.062.39h2.421V.485c.25-.062.344-.062.422-.062.094 0 .188 0 .422.062v-2.437h2.422zm0 0"/></symbol><symbol overflow="visible" id="p"><path d="M3.375-.11v-.5l-.688-.046c-.406-.031-.312.047-.312-.703v-4.422l-.234-.125a7.46 7.46 0 0 1-2.016.515v.61h.594c.469 0 .375-.063.375.734v2.688c0 .75.11.671-.297.703L.109-.61v.656C.75.016 1.25 0 1.75 0s.984.016 1.625.047zm-.906-7.109c0-.343-.36-.75-.719-.75-.36 0-.75.39-.75.75s.39.735.75.735.719-.375.719-.735zm0 0"/></symbol><symbol overflow="visible" id="q"><path d="M4.203-7.797v-1.016C3.828-8.969 3.687-9 3.531-9c-.39 0-.906.25-1.172.547l-.703.797c-.343.39-.531 1.031-.531 1.828v.406l-.828.375v.5l.828-.047v3.235c0 .75.11.671-.297.703L.125-.61v.656A33.37 33.37 0 0 1 1.765 0c.5 0 1 .016 1.626.047V-.61l-.672-.047c-.406-.031-.313.047-.313-.703v-3.25H3.86L4-5.531c-.688.031-1.203.047-1.594.047v-.86c0-1.375.016-1.562.703-1.562.329 0 .422.047.782.36l.312-.157zm0 0"/></symbol><symbol overflow="visible" id="x"><path d="M6.281-2.969a2.937 2.937 0 0 0-2.953-2.937c-1.734 0-3.094 1.39-3.094 3.172 0 1.687 1.22 2.968 2.75 2.968 1.844 0 3.297-1.421 3.297-3.203zm-1.39.438c0 1.375-.47 2.078-1.438 2.078-1.172 0-1.828-1-1.828-2.688 0-1.437.438-2.078 1.5-2.078 1.094 0 1.766 1.063 1.766 2.688zm0 0"/></symbol><symbol overflow="visible" id="y"><path d="M3.813-5.516l-1.5.079v-.297c0-.5.03-.938.14-1.766l-.281-.25c-.406.25-.656.36-1.188.531.063.469.063.688.063 1.047v.75L.125-5v.5l.906-.047v3.281c0 .891.532 1.407 1.453 1.407.282 0 .657-.094.735-.172l.656-.735-.297-.39c-.453.234-.515.25-.75.25-.469 0-.515-.078-.515-.672v-2.984h1.5l.156-.954zm0 0"/></symbol><symbol overflow="visible" id="z"><path d="M6.969-.11v-.5l-.625-.046c-.407-.031-.313.062-.313-.703v-2.313c0-1.39-.781-2.234-2.125-2.234-.437 0-.797.14-1.047.343l-.671.594v-3.828l-.22-.187c-.546.203-.937.312-2.03.468v.61H.75c.219 0 .156 0 .156.36v6.187c0 .75.11.671-.297.703l-.687.047v.656C.562.016 1.062 0 1.547 0c.5 0 1 .016 1.625.047V-.61L2.5-.656c-.406-.031-.313.047-.313-.703v-2.532c0-.546.657-.984 1.391-.984.797 0 1.172.453 1.172 1.375V.047A16.1 16.1 0 0 1 5.844 0c.343 0 .656.016 1.125.047zm0 0"/></symbol><symbol overflow="visible" id="A"><path d="M5.484-3.484c0-1.375-1.015-2.422-2.359-2.422-.438 0-1.063.203-1.547.484C.594-4.859.172-4 .172-2.766c0 .75.203 1.516.531 1.97.469.624 1.39 1.03 2.281 1.03.454 0 .891-.093 1.375-.312.329-.125.672-.313.72-.39l.327-.548-.328-.25c-.875.516-1.047.579-1.562.579-.782 0-1.329-.297-1.657-.891-.234-.39-.28-.625-.312-1.172h1.625c.828 0 1.328-.031 2.281-.172.016-.312.031-.406.031-.562zm-1.187 0l-1.344.03c-.547 0-.86-.015-1.375-.046 0-.438.016-.594.172-.906l.031-.094c.25-.531.64-.719 1.203-.719.391 0 .594.125.813.453.265.391.344.625.344 1.282zm0 0"/></symbol><symbol overflow="visible" id="B"><path d="M4.563-5.719c-.125-.093-.438-.187-.657-.187-.36 0-.844.234-1.094.547l-.671.78.234.11V-5.78l-.234-.125a7.46 7.46 0 0 1-2.016.515v.61h.594c.469 0 .375-.063.375.734v2.688c0 .75.11.671-.297.703L.109-.61v.656A31.702 31.702 0 0 1 1.72 0c.578 0 1.14.016 1.843.047V-.61l-.75-.047c-.546-.031-.437.078-.437-.703v-2.063c0-.719.344-1.172.938-1.172.359 0 .5.14.718.547h.453l.125-1.64zm0 0"/></symbol><symbol overflow="visible" id="C"><path d="M9.797-5.297v-.484c-.531.015-.922.031-1.313.031-.39 0-.78-.016-1.312-.031v.625l.547.031c.484.016.406.172.234.656L7.36-2.797l-.562 1.485h.266l-1.375-3.47a8.569 8.569 0 0 1-.391-1.124h-.438L2.891-1.391h.28L2.157-4.687c-.094-.36-.172-.422.281-.438l.61-.031v-.625c-.61.015-1.078.031-1.547.031-.484 0-.953-.016-1.578-.031v.625l.484.031c.328.016.344.078.64 1.047L2.313.078h.735l1.234-2.89c.219-.5.578-1.235.578-1.235l-.234-.094L6.313.08h.703l1.703-4.313c.328-.844.36-.875.625-.891l.453-.031zm0 0"/></symbol><symbol overflow="visible" id="D"><path d="M4.813-1.906c0-.375-.141-.766-.375-1-.313-.313-.797-.485-1.86-.688-.969-.203-1.172-.281-1.172-.828 0-.594.297-.797 1.016-.797.812 0 1.265.282 1.265.844v.422h.61c.016-.844.031-1.125.078-1.594-.781-.281-1.203-.36-1.703-.36-1.375 0-2.375.813-2.375 1.891 0 .579.406 1.125.953 1.375.328.141.969.329 1.781.516.531.11.61.219.61.672 0 .656-.454.953-1.297.953-.875 0-1.36-.266-1.36-.86v-.656h-.64C.344-1.03.313-.672.188-.094.984.156 1.452.234 2 .234c1.563 0 2.813-.968 2.813-2.14zm0 0"/></symbol></defs><use xlink:href="#a" x=".79" y="18.123"/><use xlink:href="#b" x="6.899" y="13.891"/><use xlink:href="#c" x="6.768" y="21.983"/><use xlink:href="#d" x="12.268" y="18.123"/><use xlink:href="#e" x="17.337" y="18.123"/><use xlink:href="#f" x="21.366" y="18.123"/><use xlink:href="#g" x="29.758" y="18.123"/><use xlink:href="#h" x="42.168" y="18.123"/><use xlink:href="#i" x="48.146" y="18.123"/><use xlink:href="#a" x="56.12" y="18.123"/><use xlink:href="#c" x="62.231" y="13.891"/><use xlink:href="#j" x="62.1" y="21.912"/><use xlink:href="#d" x="67.732" y="18.123"/><use xlink:href="#e" x="72.801" y="18.123"/><use xlink:href="#f" x="76.83" y="18.123"/><use xlink:href="#g" x="85.222" y="18.123"/><use xlink:href="#k" x="97.632" y="18.123"/><use xlink:href="#j" x="106.939" y="20.897"/><use xlink:href="#l" x="109.843" y="20.897"/><use xlink:href="#m" x="112.428" y="20.897"/><use xlink:href="#d" x="117.929" y="18.123"/><use xlink:href="#e" x="122.998" y="18.123"/><use xlink:href="#f" x="127.027" y="18.123"/><use xlink:href="#g" x="135.419" y="18.123"/><use xlink:href="#n" x="147.829" y="18.123"/><use xlink:href="#o" x="154.877" y="10.8"/><use xlink:href="#p" x="170.817" y="10.8"/><use xlink:href="#q" x="174.296" y="10.8"/><use xlink:href="#e" x="181.266" y="10.8"/><use xlink:href="#r" x="188.618" y="10.8"/><use xlink:href="#s" x="201.243" y="10.8"/><use xlink:href="#t" x="206.145" y="10.8"/><use xlink:href="#u" x="211.847" y="10.8"/><use xlink:href="#v" x="218.494" y="10.8"/><use xlink:href="#e" x="223.803" y="10.8"/><use xlink:href="#j" x="227.79" y="13.574"/><use xlink:href="#i" x="231.192" y="10.8"/><use xlink:href="#t" x="236.165" y="10.8"/><use xlink:href="#u" x="241.868" y="10.8"/><use xlink:href="#v" x="248.515" y="10.8"/><use xlink:href="#e" x="253.823" y="10.8"/><g><use xlink:href="#j" x="257.813" y="13.574"/></g><g><use xlink:href="#w" x="260.708" y="13.574"/><use xlink:href="#m" x="267.437" y="13.574"/></g><g><use xlink:href="#f" x="272.945" y="10.8"/></g><g><use xlink:href="#h" x="154.877" y="25.246"/></g><g><use xlink:href="#x" x="198.258" y="25.246"/></g><g><use xlink:href="#y" x="204.606" y="25.246"/></g><g><use xlink:href="#z" x="208.671" y="25.246"/><use xlink:href="#A" x="215.629" y="25.246"/><use xlink:href="#B" x="221.355" y="25.246"/></g><g><use xlink:href="#C" x="226.317" y="25.246"/><use xlink:href="#p" x="236.287" y="25.246"/><use xlink:href="#D" x="239.766" y="25.246"/></g><g><use xlink:href="#A" x="244.847" y="25.246"/></g></svg>