<svg xmlns="http://www.w3.org/2000/svg" xmlns:xlink="http://www.w3.org/1999/xlink" width="284pt" height="31pt" viewBox="0 0 284 31"><defs><symbol overflow="visible" id="a"><path d="M4.11-1.5c-.376.555-.735.96-1.079 1.219-.336.25-.687.375-1.062.375-.43 0-.762-.16-1-.485-.242-.332-.36-.789-.36-1.375C.61-2.43.74-3.07 1-3.687c.27-.626.633-1.114 1.094-1.47a2.47 2.47 0 0 1 1.547-.546c.238 0 .457.027.656.078.195.043.406.125.625.25l.297-1.36c.031-.124.054-.265.078-.421a2.09 2.09 0 0 0 .047-.407.414.414 0 0 0-.078-.265.322.322 0 0 0-.188-.125c-.074-.031-.215-.05-.422-.063l.078-.312 1.47-.047h.343L5.094-1.891c-.094.387-.14.672-.14.86 0 .156.023.273.077.343.051.075.133.11.25.11a.61.61 0 0 0 .36-.14c.132-.102.328-.286.578-.548l.328.329c-.367.375-.672.64-.922.796-.242.157-.5.235-.781.235a.748.748 0 0 1-.578-.235c-.149-.164-.22-.379-.22-.64 0-.219.04-.446.126-.688zm.39-2.063c.05-.28.078-.546.078-.796 0-.313-.062-.536-.187-.672-.125-.133-.34-.203-.641-.203-.406 0-.766.164-1.078.484-.313.324-.563.762-.75 1.313a5.146 5.146 0 0 0-.266 1.624c0 .407.051.711.157.907.113.199.3.297.562.297.125 0 .25-.024.375-.079.125-.05.254-.132.39-.25.133-.113.266-.253.391-.421.133-.176.254-.348.36-.516.113-.164.218-.363.312-.594.094-.238.172-.52.234-.844zm0 0"/></symbol><symbol overflow="visible" id="d"><path d="M2.063-2.969c0 1.367.218 2.492.656 3.375.445.895 1.117 1.492 2.015 1.797l-.14.453C3.457 2.352 2.582 1.703 1.969.703c-.606-.988-.907-2.191-.907-3.61 0-1.405.301-2.609.907-3.609.613-1 1.488-1.648 2.625-1.953l.172.453c-.918.305-1.602.891-2.047 1.766-.438.867-.656 1.96-.656 3.281zm0 0"/></symbol><symbol overflow="visible" id="e"><path d="M4.078-1.11c-.344.407-.672.712-.984.907a1.8 1.8 0 0 1-.985.297C1.285.094.875-.316.875-1.141c0-.257.035-.535.11-.828l.687-3.047H.688l.093-.406c.227 0 .399-.016.516-.047a.839.839 0 0 0 .297-.125.671.671 0 0 0 .218-.234c.07-.102.141-.234.204-.39.062-.157.156-.43.28-.829h.798L2.78-5.609h1.781l-.125.593h-1.78l-.532 2.282c-.105.437-.172.757-.203.953a3.79 3.79 0 0 0-.031.468c0 .481.203.72.609.72.164 0 .344-.063.531-.188.196-.133.43-.36.703-.672zm0 0"/></symbol><symbol overflow="visible" id="f"><path d="M2.906-2.969c0-1.32-.219-2.414-.656-3.281A3.389 3.389 0 0 0 .219-8.016l.156-.453c1.145.305 2.02.953 2.625 1.953.613 1 .922 2.204.922 3.61 0 1.418-.309 2.62-.922 3.61-.605 1-1.48 1.648-2.625 1.952l-.14-.453C1.14 1.898 1.812 1.301 2.25.406c.438-.883.656-2.008.656-3.375zm0 0"/></symbol><symbol overflow="visible" id="g"><path d="M.875-4.25v-.781h7.219v.781zm0 2.422v-.781h7.219v.78zm7.469-1.594zm0 0"/></symbol><symbol overflow="visible" id="h"><path d="M3.266.094c-.844 0-1.477-.332-1.891-1C.957-1.57.75-2.578.75-3.922c0-.719.063-1.336.188-1.86.132-.53.316-.96.546-1.296.227-.344.5-.598.813-.766.32-.164.676-.25 1.062-.25.852 0 1.489.336 1.907 1 .414.657.625 1.653.625 2.985 0 1.386-.227 2.433-.672 3.14C4.769-.258 4.117.094 3.266.094zM1.906-4.11c0 1.28.114 2.218.344 2.812.238.594.61.89 1.11.89.468 0 .816-.28 1.046-.843.227-.563.344-1.426.344-2.594 0-.906-.063-1.633-.188-2.187-.117-.563-.277-.961-.484-1.203-.21-.239-.46-.36-.75-.36-.273 0-.5.086-.687.25-.18.157-.325.387-.438.688a4.958 4.958 0 0 0-.234 1.093c-.043.43-.063.915-.063 1.454zm0 0"/></symbol><symbol overflow="visible" id="i"><path d="M1.813-1.36c.05.274.078.544.078.813 0 .274-.047.524-.141.75a2.24 2.24 0 0 1-.453.672c-.2.227-.48.477-.844.75l-.312-.36C.336 1.079.477.907.562.75A1.6 1.6 0 0 0 .766.234a3.58 3.58 0 0 0 .062-.718c0-.29-.015-.582-.047-.875zm0 0"/></symbol><symbol overflow="visible" id="k"><path d="M8.453-8l-.062.281c-.149.032-.258.07-.329.11a.62.62 0 0 0-.171.187 2.776 2.776 0 0 0-.157.36 9.535 9.535 0 0 0-.203.812L6.156 0H5.36L3.656-5.031c-.21-.602-.39-1.203-.547-1.797h-.078c-.023.2-.09.578-.203 1.14-.105.563-.215 1.11-.328 1.641l-.516 2.344a4.09 4.09 0 0 0-.125.906c0 .18.04.305.125.375.094.074.243.121.454.14L2.374 0H.328l.063-.281a.872.872 0 0 0 .328-.125.7.7 0 0 0 .187-.219 1.95 1.95 0 0 0 .14-.344c.04-.133.11-.394.204-.781l.984-4.516c.04-.164.07-.32.094-.468.031-.157.047-.313.047-.47 0-.187-.047-.312-.14-.374-.094-.07-.243-.117-.438-.14L1.859-8h1.875l1.547 4.563c.219.656.39 1.214.516 1.671h.062c.032-.238.098-.632.204-1.187.113-.563.218-1.047.312-1.453l.406-1.86c.094-.382.14-.695.14-.937 0-.188-.046-.313-.14-.375-.093-.07-.242-.117-.437-.14L6.406-8zm0 0"/></symbol><symbol overflow="visible" id="n"><path d="M.594-3.703c.55-.02.976-.27 1.281-.75.313-.488.469-1.211.469-2.172 0-.426-.09-1.242-.266-2.453-.168-1.219-.25-2.219-.25-3 0-1.988.328-3.535.984-4.64.657-1.102 1.586-1.735 2.797-1.891v.515a2.531 2.531 0 0 0-1.109.5c-.324.25-.602.606-.828 1.063-.23.449-.406 1-.531 1.656-.125.648-.188 1.398-.188 2.25 0 .637.078 1.602.235 2.89.156 1.294.234 2.137.234 2.532 0 1.043-.188 1.887-.563 2.531-.367.637-.73 1.027-1.093 1.172v.14c.363.15.726.54 1.093 1.172.375.637.563 1.477.563 2.516 0 .238-.078 1.11-.235 2.61-.156 1.507-.234 2.44-.234 2.796 0 .864.055 1.618.172 2.266.113.656.29 1.21.531 1.672.239.457.52.816.844 1.078.32.258.691.422 1.11.484v.516c-1.18-.086-2.106-.68-2.782-1.781-.668-1.106-1-2.59-1-4.453 0-.7.082-1.746.25-3.141.176-1.398.266-2.273.266-2.625 0-.926-.153-1.633-.453-2.125-.305-.5-.735-.758-1.297-.781zm0 0"/></symbol><symbol overflow="visible" id="o"><path d="M4.078-1.531c0 .23.008.402.031.515a.68.68 0 0 0 .141.282.572.572 0 0 0 .266.171c.125.043.273.075.453.094.187.024.43.04.734.047V0H1.375v-.422A8.17 8.17 0 0 0 2.297-.5c.187-.04.328-.094.422-.156a.516.516 0 0 0 .219-.281c.05-.125.078-.32.078-.594v-4.75c0-.157-.032-.27-.094-.344a.282.282 0 0 0-.235-.11c-.124 0-.304.07-.53.204-.231.125-.516.304-.86.531l-.25-.453 2.734-1.64h.328a27.34 27.34 0 0 0-.03 1.562zm0 0"/></symbol><symbol overflow="visible" id="r"><path d="M6.61-3.89v.812H1.78c.02.367.07.687.157.969.082.28.207.523.375.718.175.2.398.344.671.438.282.094.664.14 1.157.14h2.468V0h-2.5a6.62 6.62 0 0 1-.984-.063 3.138 3.138 0 0 1-.766-.234 2.128 2.128 0 0 1-.656-.469c-.2-.218-.36-.457-.484-.718a3.538 3.538 0 0 1-.282-.875 5.492 5.492 0 0 1-.093-1.047c0-.625.062-1.133.187-1.531a2.84 2.84 0 0 1 .61-1.079c.28-.32.617-.55 1.015-.687.406-.133.926-.203 1.563-.203h2.39v.812H4.203c-.387 0-.7.028-.937.078-.243.043-.446.11-.61.204-.156.093-.304.23-.437.406-.125.18-.227.398-.297.656-.074.25-.121.54-.14.86zm0 0"/></symbol><symbol overflow="visible" id="s"><path d="M3.953 2.688h-2.61V-8.485h2.61v.437h-1.64V2.234h1.64zm0 0"/></symbol><symbol overflow="visible" id="t"><path d="M3.094-2.406a1.064 1.064 0 0 0-.125-.313.347.347 0 0 0-.14-.125.757.757 0 0 0-.267-.031h-.406L1.546 0h-1l1.5-6.703c.052-.219.087-.39.11-.516.02-.133.031-.25.031-.343 0-.165-.054-.282-.156-.344-.094-.07-.273-.11-.531-.11l.078-.312 1.469-.047h.344L2.25-3.265h.188c.289 0 .617-.126.984-.376.363-.257.656-.5.875-.718.219-.22.328-.43.328-.641 0-.188-.137-.29-.406-.313l.078-.296h1.89l.11.296c-.324.293-.668.579-1.031.86L3.812-3.328l.579 2.11c.039.187.082.323.125.405a.63.63 0 0 0 .125.172c.05.032.117.047.203.047.101 0 .222-.05.36-.156a4.03 4.03 0 0 0 .484-.469l.328.328c-.356.368-.649.621-.875.766-.23.145-.45.219-.657.219-.273 0-.484-.074-.64-.219-.156-.156-.281-.41-.375-.766zm0 0"/></symbol><symbol overflow="visible" id="u"><path d="M1.594-3.719c.093-.375.14-.66.14-.86 0-.155-.027-.269-.078-.343-.054-.07-.136-.11-.25-.11-.117 0-.242.055-.375.157-.136.094-.324.273-.562.531L.14-4.672c.363-.375.66-.64.89-.797.239-.156.508-.234.813-.234.25 0 .441.086.578.25.144.156.219.367.219.625 0 .21-.047.445-.141.703l.078.016c.375-.54.735-.942 1.078-1.204.352-.257.711-.39 1.078-.39.364 0 .641.11.829.328.195.21.296.496.296.86 0 .25-.054.6-.156 1.046l-.39 1.547c-.106.418-.157.715-.157.89 0 .157.024.274.078.345.051.074.13.109.235.109.125 0 .25-.047.375-.14.133-.102.32-.286.562-.548l.344.329c-.344.355-.64.617-.89.78-.25.165-.532.25-.844.25a.795.795 0 0 1-.625-.265c-.149-.187-.22-.422-.22-.703 0-.25.063-.625.188-1.125l.266-1c.094-.375.156-.645.188-.813.03-.175.046-.32.046-.437 0-.27-.046-.46-.14-.578-.094-.125-.242-.188-.438-.188-.168 0-.343.07-.531.204-.188.125-.39.324-.61.593-.21.262-.382.516-.515.766-.125.25-.23.558-.313.922L1.766 0H.75zm0 0"/></symbol><symbol overflow="visible" id="v"><path d="M2.563.094c-.618 0-1.09-.164-1.422-.5-.336-.344-.5-.832-.5-1.469 0-.313.046-.672.14-1.078a4.079 4.079 0 0 1 .61-1.453c.289-.414.644-.735 1.062-.953a2.827 2.827 0 0 1 1.375-.344c.625 0 1.098.172 1.422.516.332.343.5.835.5 1.468 0 .461-.078.95-.234 1.469-.157.512-.375.945-.657 1.297a2.675 2.675 0 0 1-.984.781 3.138 3.138 0 0 1-1.313.266zm-.891-1.719c0 .43.086.746.266.953.175.211.445.313.812.313.375 0 .707-.172 1-.516.3-.344.535-.82.703-1.438.176-.624.266-1.171.266-1.64 0-.426-.086-.742-.25-.953-.157-.219-.414-.328-.766-.328-.406 0-.762.171-1.062.515-.305.344-.543.836-.72 1.469-.167.625-.25 1.168-.25 1.625zm0 0"/></symbol><symbol overflow="visible" id="b"><path d="M1.844-2.203L1.359 0H.516l1.062-4.719c.031-.156.05-.273.063-.36.02-.093.03-.175.03-.25a.337.337 0 0 0-.03-.14.27.27 0 0 0-.094-.093.405.405 0 0 0-.172-.063 2.627 2.627 0 0 0-.281-.016l.078-.312L2.375-6h.313l-.766 3.422h.125c.101 0 .219-.02.344-.063a2.7 2.7 0 0 0 .75-.438 2.254 2.254 0 0 0 .53-.562.438.438 0 0 0 .079-.218.198.198 0 0 0-.078-.157c-.043-.05-.125-.082-.25-.093l.062-.282h1.579l.109.266c-.188.156-.367.305-.531.438-.168.136-.336.265-.5.39-.168.125-.336.25-.5.375-.157.117-.32.242-.485.375.07.219.145.445.219.672.07.23.145.46.219.688.031.117.062.218.094.312.03.086.062.152.093.203a.54.54 0 0 0 .125.125c.04.024.086.031.14.031.04 0 .083-.004.126-.015a.346.346 0 0 0 .156-.078c.05-.04.11-.094.172-.157a2.99 2.99 0 0 0 .25-.25l.297.282a3.615 3.615 0 0 1-.734.625C4.207-.047 4.101 0 4 .03a.944.944 0 0 1-.297.047.661.661 0 0 1-.437-.14 1.11 1.11 0 0 1-.297-.391 5.681 5.681 0 0 1-.219-.625c-.063-.238-.137-.508-.219-.813a1.942 1.942 0 0 0-.062-.171.313.313 0 0 0-.078-.094.21.21 0 0 0-.11-.031.841.841 0 0 0-.156-.016zm0 0"/></symbol><symbol overflow="visible" id="c"><path d="M2.563.094c-.657 0-1.141-.235-1.454-.703C.797-1.086.641-1.805.641-2.766c0-.5.046-.93.14-1.296.094-.364.227-.665.406-.907.176-.238.383-.414.625-.531.25-.125.52-.188.813-.188.344 0 .64.07.89.204.25.125.454.308.61.546.156.243.27.54.344.891.07.344.11.734.11 1.172 0 .98-.173 1.719-.516 2.219-.344.5-.844.75-1.5.75zM1.546-2.86c0 .437.02.82.062 1.14.04.313.102.574.188.782.094.199.207.343.344.437.132.094.296.14.484.14.176 0 .328-.038.453-.124a1.02 1.02 0 0 0 .328-.422 2.58 2.58 0 0 0 .203-.735c.04-.289.063-.64.063-1.046 0-.446-.027-.833-.078-1.157a2.962 2.962 0 0 0-.203-.812c-.086-.207-.196-.36-.329-.453a.75.75 0 0 0-.453-.157.768.768 0 0 0-.515.172 1.074 1.074 0 0 0-.328.469c-.086.2-.141.45-.172.75a9.71 9.71 0 0 0-.047 1.016zm0 0"/></symbol><symbol overflow="visible" id="j"><path d="M2.734-6.219l-.218.953H1.64l.218-.953zM1.672-1.516c-.043.18-.074.32-.094.422a2.143 2.143 0 0 0-.016.266c0 .117.02.2.063.25.05.043.125.062.219.062.05 0 .101-.007.156-.03.05-.02.102-.052.156-.095.063-.039.13-.093.203-.156.07-.07.157-.16.25-.265l.297.296a5.8 5.8 0 0 1-.422.391 3.12 3.12 0 0 1-.359.266 1.342 1.342 0 0 1-.656.187.796.796 0 0 1-.313-.062.756.756 0 0 1-.234-.172.715.715 0 0 1-.14-.25 1.11 1.11 0 0 1-.048-.328c0-.102.008-.223.032-.36.02-.144.046-.3.078-.468.039-.165.082-.344.125-.532.05-.187.097-.367.14-.547.04-.187.079-.363.11-.53.031-.165.054-.317.078-.454v-.078-.047A.28.28 0 0 0 1.172-4c-.074-.063-.203-.094-.39-.094l.046-.297 1.281-.046h.22zm0 0"/></symbol><symbol overflow="visible" id="l"><path d="M1.36-1.016c.038.2.062.403.062.61 0 .199-.04.383-.11.547A1.773 1.773 0 0 1 .97.656a5.054 5.054 0 0 1-.625.563L.109.937C.254.801.36.676.422.563a1.28 1.28 0 0 0 .156-.39A2.45 2.45 0 0 0 .625-.36c0-.22-.012-.438-.031-.657zm0 0"/></symbol><symbol overflow="visible" id="m"><path d="M3.219-1.156v.234c.008.063.02.121.031.172a.252.252 0 0 0 .047.11c.02.03.047.058.078.078.04.042.086.074.14.093.063.012.133.028.22.047.093.012.203.024.328.031.132 0 .289.008.468.016V0H1.047v-.375c.176-.008.32-.016.437-.016.125-.007.227-.02.313-.03L2-.47a.53.53 0 0 0 .125-.062 1.36 1.36 0 0 0 .11-.094.237.237 0 0 0 .062-.11c.02-.05.035-.109.047-.171a2.25 2.25 0 0 0 .015-.25v-3.157c0-.113-.023-.19-.062-.234a.233.233 0 0 0-.188-.078c-.093 0-.23.047-.406.14-.18.094-.406.235-.687.423-.043-.07-.079-.141-.11-.204-.031-.07-.07-.14-.11-.203.364-.195.724-.394 1.079-.593l1.094-.594h.265a5.867 5.867 0 0 0-.015.437v.719zm0 0"/></symbol><symbol overflow="visible" id="w"><path d="M3.625-2.234V.078h-.703v-2.312H.75v-.672h2.172V-5.22h.703v2.313h2.188v.672zm0 0"/></symbol><symbol overflow="visible" id="p"><path d="M2.25-7.906v1.14H1.172v-1.14zM.562-.281a2.61 2.61 0 0 0 .329-.125.63.63 0 0 0 .266-.438c.03-.125.046-.328.046-.61V-4c0-.25-.008-.445-.016-.594a.94.94 0 0 0-.093-.375.396.396 0 0 0-.203-.203 1.392 1.392 0 0 0-.407-.125v-.312l1.375-.047h.344v4.187c0 .336.016.57.047.703a.543.543 0 0 0 .172.313c.094.062.238.121.437.172V0H.563zm0 0"/></symbol><symbol overflow="visible" id="q"><path d="M3.578-5.016h-1.39v3.547c0 .262.007.461.03.594.02.137.055.242.11.313.05.062.113.117.188.156.082.043.21.086.39.125V0H.516v-.281a1.9 1.9 0 0 0 .359-.14.51.51 0 0 0 .172-.157c.039-.07.07-.172.094-.297.02-.125.03-.32.03-.594v-3.547H.47v-.296c.144-.02.238-.036.281-.047.05-.02.098-.04.14-.063a.348.348 0 0 0 .126-.125.817.817 0 0 0 .078-.219c.031-.101.054-.242.078-.421.031-.426.101-.77.219-1.032.125-.27.3-.5.53-.687a2 2 0 0 1 .735-.39c.258-.083.563-.126.906-.126.313 0 .579.027.797.078v1.047h-.578c-.086-.226-.18-.39-.281-.484-.094-.094-.23-.14-.406-.14a.847.847 0 0 0-.328.062.65.65 0 0 0-.235.156c-.074.074-.14.172-.203.297-.055.125-.09.281-.11.468-.023.188-.03.43-.03.72v.609h1.39zm0 0"/></symbol><symbol overflow="visible" id="x"><path d="M3.125.094c-.813 0-1.438-.239-1.875-.719C.82-1.102.61-1.813.61-2.75c0-.645.113-1.188.343-1.625.227-.445.535-.781.922-1a2.728 2.728 0 0 1 1.344-.328c.832 0 1.46.246 1.89.734.426.48.641 1.18.641 2.094 0 .648-.11 1.195-.328 1.64-.211.45-.512.782-.906 1-.399.22-.86.329-1.391.329zM1.719-2.875c0 .805.125 1.422.375 1.86.258.43.629.64 1.11.64.257 0 .483-.063.671-.188.188-.125.336-.289.453-.5.113-.218.192-.468.234-.75.051-.289.079-.585.079-.89 0-.57-.063-1.047-.188-1.422-.125-.383-.297-.664-.516-.844a1.166 1.166 0 0 0-.75-.265c-.468 0-.835.203-1.093.609-.25.406-.375.992-.375 1.75zm0 0"/></symbol><symbol overflow="visible" id="y"><path d="M.219-5.313c.195-.03.351-.082.469-.156a.814.814 0 0 0 .28-.297 1.76 1.76 0 0 0 .173-.468c.039-.188.082-.457.125-.813h.828v1.438h1.89v.593h-1.89v2.61c0 .386.015.695.047.922.03.218.086.39.171.515a.877.877 0 0 0 .282.281c.113.055.258.079.437.079.156 0 .301-.032.438-.094.133-.07.27-.164.406-.281l.266.312a3.275 3.275 0 0 1-.797.594 1.783 1.783 0 0 1-.766.172c-.5 0-.875-.145-1.125-.438-.25-.3-.375-.773-.375-1.422v-3.25h-.86zm0 0"/></symbol><symbol overflow="visible" id="z"><path d="M2.14-4.688l.016.016c.313-.312.555-.531.735-.656.175-.125.347-.219.515-.281.176-.063.364-.094.563-.094.219 0 .41.027.578.078.164.055.312.133.437.234.133.106.239.235.313.391.082.148.14.324.172.531.039.211.062.477.062.797v2.203c0 .344.016.578.047.703.031.118.082.211.156.282.082.074.239.14.47.203V0H3.89v-.281a2.61 2.61 0 0 0 .328-.125.63.63 0 0 0 .266-.438 2.8 2.8 0 0 0 .046-.593v-1.547c0-.508-.027-.899-.078-1.172-.055-.282-.156-.489-.312-.625C3.984-4.926 3.77-5 3.5-5a.93.93 0 0 0-.422.094 1.764 1.764 0 0 0-.437.297 1.536 1.536 0 0 0-.375.421.943.943 0 0 0-.125.485v2.234c0 .274.004.465.015.578.02.106.047.2.078.282.04.074.098.136.172.187.082.043.211.09.39.14V0H.47v-.281c.176-.051.3-.098.375-.14a.51.51 0 0 0 .172-.157.776.776 0 0 0 .078-.297c.02-.125.031-.32.031-.594v-4.906c0-.375-.008-.633-.016-.781 0-.145-.015-.27-.046-.375a.663.663 0 0 0-.094-.235.387.387 0 0 0-.188-.14 1.456 1.456 0 0 0-.406-.11v-.312l1.406-.063h.36zm0 0"/></symbol><symbol overflow="visible" id="A"><path d="M5.25-1c-.25.262-.48.469-.688.625a2.577 2.577 0 0 1-1.515.469c-.805 0-1.414-.239-1.828-.719-.407-.488-.61-1.203-.61-2.14 0-.583.102-1.094.313-1.532.207-.445.504-.789.89-1.031.383-.25.833-.375 1.344-.375.395 0 .727.062 1 .187.282.125.504.297.672.516.164.219.29.496.375.828.094.324.149.75.172 1.281H1.672v.11c0 .46.05.844.156 1.156.102.313.274.563.516.75.238.18.547.266.922.266.32 0 .609-.055.859-.172.258-.125.516-.32.766-.594zm-.984-2.375c-.024-.426-.075-.77-.157-1.031-.086-.27-.21-.473-.375-.61-.156-.144-.37-.218-.64-.218-.406 0-.73.164-.969.484-.242.324-.383.781-.422 1.375zm0 0"/></symbol><symbol overflow="visible" id="B"><path d="M2.156-4.625l.078.016c.22-.258.414-.461.594-.61.188-.156.383-.273.594-.36.219-.081.46-.124.734-.124.219 0 .422.012.61.031v1.36h-.657c-.093-.22-.199-.375-.312-.47a.612.612 0 0 0-.422-.14.792.792 0 0 0-.422.125A1.779 1.779 0 0 0 2.281-4a1.3 1.3 0 0 0-.078.484v2.047c0 .356.02.602.063.735.05.136.125.234.218.296.102.063.254.118.454.157V0H.578v-.281c.145-.051.25-.094.313-.125a.63.63 0 0 0 .266-.438c.03-.125.046-.328.046-.61V-4c0-.25-.008-.445-.016-.594a.94.94 0 0 0-.093-.375.396.396 0 0 0-.203-.203 1.392 1.392 0 0 0-.407-.125v-.297l1.375-.062h.36zm0 0"/></symbol><symbol overflow="visible" id="C"><path d="M4.672-4.375L3.14.031h-.813L.922-4.312a4.202 4.202 0 0 0-.235-.594.663.663 0 0 0-.187-.266.942.942 0 0 0-.328-.14v-.297h2.312v.296c-.23.043-.386.106-.468.188-.075.074-.11.188-.11.344a2.067 2.067 0 0 0 .14.719l.923 3 1.5-4.547h.828l1.281 4.546L7.61-3.938a3.91 3.91 0 0 0 .125-.421c.04-.133.063-.258.063-.375 0-.164-.047-.29-.14-.375-.087-.094-.231-.16-.438-.204v-.296h2.047v.296a.819.819 0 0 0-.25.079.852.852 0 0 0-.344.406c-.063.117-.14.297-.235.547L6.734.03h-.78zm0 0"/></symbol><symbol overflow="visible" id="D"><path d="M4.5-4.313h-.563a2.074 2.074 0 0 0-.312-.562.957.957 0 0 0-.406-.281 1.638 1.638 0 0 0-.531-.078c-.313 0-.563.074-.75.218a.716.716 0 0 0-.282.594c0 .18.035.328.11.453.07.117.187.227.343.328.157.094.43.23.829.407.406.168.71.324.921.468.22.149.391.32.516.516.125.188.188.414.188.672 0 .312-.055.574-.157.781-.105.211-.258.383-.453.516A1.68 1.68 0 0 1 3.266 0a3.69 3.69 0 0 1-.86.094c-.324 0-.64-.028-.953-.078a5.645 5.645 0 0 1-.906-.188V-1.39h.578c.102.356.258.618.469.782.207.156.492.234.86.234.132 0 .269-.008.405-.031.133-.031.254-.078.36-.14a.793.793 0 0 0 .25-.282.997.997 0 0 0 .094-.453.874.874 0 0 0-.126-.485 1.09 1.09 0 0 0-.359-.343c-.156-.102-.445-.243-.86-.422a5.693 5.693 0 0 1-.859-.422 1.844 1.844 0 0 1-.5-.5 1.25 1.25 0 0 1-.187-.688c0-.32.086-.597.265-.828.176-.238.426-.422.75-.547a3.278 3.278 0 0 1 1.157-.187c.258 0 .508.016.75.047.238.023.539.07.906.14zm0 0"/></symbol></defs><use xlink:href="#a" x=".396" y="19.172"/><use xlink:href="#b" x="7.704" y="14.63"/><use xlink:href="#c" x="7.325" y="21.957"/><use xlink:href="#d" x="13.719" y="19.172"/><use xlink:href="#e" x="18.68" y="19.172"/><use xlink:href="#f" x="23.69" y="19.172"/><use xlink:href="#g" x="31.975" y="19.172"/><use xlink:href="#h" x="44.217" y="19.172"/><use xlink:href="#i" x="50.84" y="19.172"/><use xlink:href="#a" x="57.917" y="19.172"/><use xlink:href="#c" x="65.229" y="14.618"/><use xlink:href="#j" x="64.85" y="22.462"/><use xlink:href="#d" x="70.759" y="19.172"/><use xlink:href="#e" x="75.72" y="19.172"/><use xlink:href="#f" x="80.73" y="19.172"/><use xlink:href="#g" x="89.015" y="19.172"/><use xlink:href="#k" x="101.269" y="19.172"/><use xlink:href="#j" x="109.029" y="21.612"/><use xlink:href="#l" x="112.377" y="21.612"/><use xlink:href="#m" x="114.16" y="21.612"/><use xlink:href="#d" x="119.689" y="19.172"/><use xlink:href="#e" x="124.65" y="19.172"/><use xlink:href="#f" x="129.66" y="19.172"/><use xlink:href="#g" x="137.945" y="19.172"/><use xlink:href="#n" x="150.187" y="19.172"/><use xlink:href="#o" x="156.148" y="11.424"/><use xlink:href="#p" x="172.731" y="11.424"/><use xlink:href="#q" x="176.055" y="11.424"/><use xlink:href="#e" x="182.304" y="11.424"/><use xlink:href="#r" x="190.637" y="11.424"/><use xlink:href="#s" x="201.396" y="11.424"/><use xlink:href="#t" x="205.581" y="11.424"/><use xlink:href="#u" x="212.539" y="11.424"/><use xlink:href="#v" x="219.604" y="11.424"/><use xlink:href="#e" x="226.239" y="11.424"/><use xlink:href="#j" x="230.772" y="13.864"/><use xlink:href="#i" x="234.616" y="11.424"/><use xlink:href="#t" x="239.051" y="11.424"/><use xlink:href="#u" x="245.997" y="11.424"/><g><use xlink:href="#v" x="253.075" y="11.424"/></g><g><use xlink:href="#e" x="259.71" y="11.424"/></g><g><use xlink:href="#j" x="264.243" y="13.864"/></g><g><use xlink:href="#w" x="267.591" y="13.864"/><use xlink:href="#m" x="273.923" y="13.864"/></g><g><use xlink:href="#f" x="279.447" y="11.424"/></g><g><use xlink:href="#h" x="156.148" y="25.869"/></g><g><use xlink:href="#x" x="202.914" y="25.869"/><use xlink:href="#y" x="209.262" y="25.869"/><use xlink:href="#z" x="213.303" y="25.869"/><use xlink:href="#A" x="219.902" y="25.869"/><use xlink:href="#B" x="225.736" y="25.869"/><use xlink:href="#C" x="230.686" y="25.869"/><use xlink:href="#p" x="239.939" y="25.869"/><use xlink:href="#D" x="243.263" y="25.869"/><use xlink:href="#A" x="248.404" y="25.869"/></g></svg>