<svg xmlns="http://www.w3.org/2000/svg" xmlns:xlink="http://www.w3.org/1999/xlink" width="152" height="31pt" viewBox="0 0 114 31"><defs><symbol overflow="visible" id="a"><path d="M8.219-14.89h-.64c-.024-.208-.075-.368-.157-.485-.074-.113-.219-.172-.438-.172-.554 0-.953.621-1.203 1.86-.25 1.23-.476 4.624-.672 10.187-.199 5-.59 8.414-1.171 10.25-.575 1.844-1.352 2.766-2.329 2.766-.199 0-.382-.016-.546-.047a1.59 1.59 0 0 1-.454-.156L.734 8.03h.579c.062.258.14.438.234.531.094.102.234.157.422.157.351 0 .691-.61 1.015-1.828.32-1.211.579-4.383.766-9.516.227-5.582.594-9.254 1.094-11.016.5-1.77 1.332-2.656 2.5-2.656.195 0 .379.024.547.063.175.03.32.074.437.125zm0 0"/></symbol><symbol overflow="visible" id="d"><path d="M2.234 2.016l2.954 5.437 2.437-24.64h1.828v.78H8.281L5.671 9.579h-.546L1.5 2.938.437 3.5l-.234-.422zm0 0"/></symbol><symbol overflow="visible" id="e"><path d="M2.531.094C2.344.945 2.062 1.582 1.687 2a1.779 1.779 0 0 1-1.39.625c-.168 0-.297-.012-.39-.031l.109-.516c.039.008.129.016.265.016a.736.736 0 0 0 .453-.14c.125-.087.239-.243.344-.47.113-.218.219-.527.313-.921l1.25-5.579h-.985l.078-.406c.27-.008.461-.023.579-.047a.673.673 0 0 0 .265-.125.821.821 0 0 0 .156-.218c.051-.094.11-.254.172-.485.207-.707.524-1.238.953-1.594.438-.351.989-.53 1.657-.53.382 0 .718.03 1 .093l-.235 1h-.515c-.055-.219-.125-.375-.22-.469-.085-.101-.214-.156-.39-.156a.872.872 0 0 0-.562.187 1.528 1.528 0 0 0-.407.547c-.105.242-.203.57-.296.985l-.141.625h1.5l-.125.593H3.609zm0 0"/></symbol><symbol overflow="visible" id="h"><path d="M2.063-2.969c0 1.367.218 2.492.656 3.375.445.895 1.117 1.492 2.015 1.797l-.14.453C3.457 2.352 2.582 1.703 1.969.703c-.606-.988-.907-2.191-.907-3.61 0-1.405.301-2.609.907-3.609.613-1 1.488-1.648 2.625-1.953l.172.453c-.918.305-1.602.891-2.047 1.766-.438.867-.656 1.96-.656 3.281zm0 0"/></symbol><symbol overflow="visible" id="i"><path d="M4.078-1.11c-.344.407-.672.712-.984.907a1.8 1.8 0 0 1-.985.297C1.285.094.875-.316.875-1.141c0-.257.035-.535.11-.828l.687-3.047H.688l.093-.406c.227 0 .399-.016.516-.047a.839.839 0 0 0 .297-.125.671.671 0 0 0 .218-.234c.07-.102.141-.234.204-.39.062-.157.156-.43.28-.829h.798L2.78-5.609h1.781l-.125.593h-1.78l-.532 2.282c-.105.437-.172.757-.203.953a3.79 3.79 0 0 0-.031.468c0 .481.203.72.609.72.164 0 .344-.063.531-.188.196-.133.43-.36.703-.672zm0 0"/></symbol><symbol overflow="visible" id="j"><path d="M2.906-2.969c0-1.32-.219-2.414-.656-3.281A3.389 3.389 0 0 0 .219-8.016l.156-.453c1.145.305 2.02.953 2.625 1.953.613 1 .922 2.204.922 3.61 0 1.418-.309 2.62-.922 3.61-.605 1-1.48 1.648-2.625 1.952l-.14-.453C1.14 1.898 1.812 1.301 2.25.406c.438-.883.656-2.008.656-3.375zm0 0"/></symbol><symbol overflow="visible" id="l"><path d="M4.906-3.047V.328h-.843v-3.375H.874v-.781h3.188v-3.375h.843v3.375h3.188v.781zm0 0"/></symbol><symbol overflow="visible" id="n"><path d="M4.11-1.5c-.376.555-.735.96-1.079 1.219-.336.25-.687.375-1.062.375-.43 0-.762-.16-1-.485-.242-.332-.36-.789-.36-1.375C.61-2.43.74-3.07 1-3.687c.27-.626.633-1.114 1.094-1.47a2.47 2.47 0 0 1 1.547-.546c.238 0 .457.027.656.078.195.043.406.125.625.25l.297-1.36c.031-.124.054-.265.078-.421a2.09 2.09 0 0 0 .047-.407.414.414 0 0 0-.078-.265.322.322 0 0 0-.188-.125c-.074-.031-.215-.05-.422-.063l.078-.312 1.47-.047h.343L5.094-1.891c-.094.387-.14.672-.14.86 0 .156.023.273.077.343.051.075.133.11.25.11a.61.61 0 0 0 .36-.14c.132-.102.328-.286.578-.548l.328.329c-.367.375-.672.64-.922.796-.242.157-.5.235-.781.235a.748.748 0 0 1-.578-.235c-.149-.164-.22-.379-.22-.64 0-.219.04-.446.126-.688zm.39-2.063c.05-.28.078-.546.078-.796 0-.313-.062-.536-.187-.672-.125-.133-.34-.203-.641-.203-.406 0-.766.164-1.078.484-.313.324-.563.762-.75 1.313a5.146 5.146 0 0 0-.266 1.624c0 .407.051.711.157.907.113.199.3.297.562.297.125 0 .25-.024.375-.079.125-.05.254-.132.39-.25.133-.113.266-.253.391-.421.133-.176.254-.348.36-.516.113-.164.218-.363.312-.594.094-.238.172-.52.234-.844zm0 0"/></symbol><symbol overflow="visible" id="b"><path d="M4.016-1.328L3.734 0H.25L.125-.266 1-1.234c.3-.332.598-.66.89-.985.301-.32.587-.629.86-.922.27-.289.516-.554.734-.796-.011-.008-.015-.016-.015-.016h-1.14c-.126 0-.235.012-.329.031a.716.716 0 0 0-.25.125.985.985 0 0 0-.219.235 4.164 4.164 0 0 0-.25.421H.828l.266-1.25h3.422l.109.266c-.2.21-.387.414-.563.61-.167.187-.34.374-.515.562-.168.187-.34.375-.516.562-.168.188-.344.387-.531.594-.18.2-.371.406-.578.625-.2.219-.414.453-.64.703a.086.086 0 0 0 .015.031h1.375c.082 0 .156-.003.219-.015a.857.857 0 0 0 .171-.078.688.688 0 0 0 .141-.156c.05-.063.102-.145.156-.25.063-.102.13-.235.204-.391zm0 0"/></symbol><symbol overflow="visible" id="c"><path d="M2.563.094c-.657 0-1.141-.235-1.454-.703C.797-1.086.641-1.805.641-2.766c0-.5.046-.93.14-1.296.094-.364.227-.665.406-.907.176-.238.383-.414.625-.531.25-.125.52-.188.813-.188.344 0 .64.07.89.204.25.125.454.308.61.546.156.243.27.54.344.891.07.344.11.734.11 1.172 0 .98-.173 1.719-.516 2.219-.344.5-.844.75-1.5.75zM1.546-2.86c0 .437.02.82.062 1.14.04.313.102.574.188.782.094.199.207.343.344.437.132.094.296.14.484.14.176 0 .328-.038.453-.124a1.02 1.02 0 0 0 .328-.422 2.58 2.58 0 0 0 .203-.735c.04-.289.063-.64.063-1.046 0-.446-.027-.833-.078-1.157a2.962 2.962 0 0 0-.203-.812c-.086-.207-.196-.36-.329-.453a.75.75 0 0 0-.453-.157.768.768 0 0 0-.515.172 1.074 1.074 0 0 0-.328.469c-.086.2-.141.45-.172.75a9.71 9.71 0 0 0-.047 1.016zm0 0"/></symbol><symbol overflow="visible" id="f"><path d="M2.625-4.656v.343L1.172-.796.656-.953 1.5-4.656zm0 0"/></symbol><symbol overflow="visible" id="g"><path d="M2.328-2.125a57.17 57.17 0 0 1-.14-.625c-.043-.188-.079-.344-.11-.469a1.783 1.783 0 0 0-.11-.328.829.829 0 0 0-.093-.187.324.324 0 0 0-.11-.11.337.337 0 0 0-.14-.031.4.4 0 0 0-.14.031.29.29 0 0 0-.126.078c-.043.043-.093.102-.156.172-.055.074-.11.168-.172.281L.688-3.53C.8-3.707.905-3.86 1-3.984c.102-.125.203-.223.297-.297a.945.945 0 0 1 .297-.157c.101-.03.222-.046.36-.046.155 0 .284.039.39.109a.68.68 0 0 1 .25.297c.07.137.129.305.172.5.039.2.086.43.14.687h.063l.453-.609c.125-.164.238-.305.344-.422.101-.125.191-.223.265-.297a.939.939 0 0 1 .235-.156.87.87 0 0 1 .234-.078c.082-.02.176-.031.281-.031.145 0 .282.027.407.078l-.22.86h-.374c-.012-.126-.059-.188-.14-.188a.613.613 0 0 0-.11.015.553.553 0 0 0-.125.078 1.163 1.163 0 0 0-.188.141 2.996 2.996 0 0 0-.25.25c-.094.105-.203.23-.328.375-.117.148-.25.32-.406.516.082.406.148.73.203.968.063.243.117.43.172.563.05.125.101.21.156.25.05.043.113.062.188.062.05 0 .097-.004.14-.015a.263.263 0 0 0 .125-.078c.04-.04.086-.098.14-.172.063-.07.13-.172.204-.297l.344.219c-.137.187-.258.343-.36.468a1.481 1.481 0 0 1-.28.297.893.893 0 0 1-.298.125 1.039 1.039 0 0 1-.328.047.973.973 0 0 1-.312-.047.459.459 0 0 1-.22-.172.87.87 0 0 1-.124-.203 1.8 1.8 0 0 1-.11-.265 9.15 9.15 0 0 1-.093-.297c-.024-.102-.043-.203-.063-.297-.011-.094-.023-.172-.031-.234l-.031-.172h-.047c-.18.242-.336.449-.469.625-.125.168-.242.312-.344.437-.105.125-.199.23-.28.313a1.393 1.393 0 0 1-.25.203.904.904 0 0 1-.266.078C.727.067.633.078.53.078A.942.942 0 0 1 .141 0l.203-.86h.375c.008.137.054.204.14.204.04-.008.07-.016.094-.016a.36.36 0 0 0 .11-.062c.039-.032.093-.07.156-.125.062-.063.14-.145.234-.25.102-.114.223-.25.36-.407.144-.164.316-.367.515-.609zm0 0"/></symbol><symbol overflow="visible" id="k"><path d="M3.188-.719c.132 0 .242-.004.328-.015a.498.498 0 0 0 .203-.063.386.386 0 0 0 .14-.156c.04-.07.086-.172.141-.297h.406c-.023.21-.039.418-.047.625-.011.21-.027.418-.046.625H.592v-.234C.665-.391.75-.54.844-.688c.095-.156.196-.312.313-.468.125-.164.258-.332.407-.5.144-.164.312-.344.5-.532.269-.269.488-.5.656-.687.176-.195.312-.375.406-.531.102-.156.172-.297.203-.422a1.408 1.408 0 0 0 0-.828.835.835 0 0 0-.187-.313.624.624 0 0 0-.297-.203 1.005 1.005 0 0 0-.406-.078c-.282 0-.516.074-.704.219-.18.148-.32.36-.421.64H.734v-.859a5.539 5.539 0 0 1 1.032-.328c.32-.07.609-.11.859-.11.3 0 .563.04.781.11.219.062.39.152.516.266.133.117.234.257.297.421.062.168.093.344.093.532 0 .117-.011.226-.03.328-.012.093-.04.187-.079.281a2.749 2.749 0 0 1-.156.297 2.42 2.42 0 0 1-.234.297 3.877 3.877 0 0 1-.297.328c-.118.125-.246.262-.391.406l-.438.438a16.056 16.056 0 0 0-.828.89 2.679 2.679 0 0 0-.296.375zm0 0"/></symbol><symbol overflow="visible" id="m"><path d="M2.422-.031a85.238 85.238 0 0 1-.266-1.438c-.074-.406-.14-.75-.203-1.031a8.579 8.579 0 0 0-.156-.703 2.408 2.408 0 0 0-.156-.406c-.043-.102-.09-.172-.141-.204a.21.21 0 0 0-.14-.062c-.055 0-.106.008-.157.016a.429.429 0 0 0-.14.078 1.45 1.45 0 0 0-.141.172 6.962 6.962 0 0 0-.203.296L.375-3.53c.133-.188.254-.336.36-.453a1.57 1.57 0 0 1 .312-.297c.101-.07.207-.125.312-.157.114-.03.235-.046.36-.046.101 0 .191.011.265.03a.607.607 0 0 1 .22.11.553.553 0 0 1 .155.172c.051.074.102.168.157.281.02.063.046.157.078.282.031.117.062.25.094.406a39.518 39.518 0 0 1 .188 1.125l.093.64c.031.22.054.434.078.641a7.36 7.36 0 0 0 .594-.875c.175-.289.328-.566.453-.828.125-.27.218-.508.281-.719.063-.219.094-.39.094-.515 0-.133-.04-.227-.11-.282-.062-.05-.171-.082-.328-.093l.047-.282h1.25l.156.25c-.293.73-.636 1.434-1.03 2.11A16.894 16.894 0 0 1 3.14-.094c-.22.258-.418.477-.594.656a8.174 8.174 0 0 1-.469.485 3.055 3.055 0 0 1-.39.328c-.125.082-.25.148-.375.203-.118.05-.231.086-.344.11a5 5 0 0 1-.36.046c-.074 0-.156-.011-.25-.03a1.793 1.793 0 0 1-.25-.048L.33.688h.405v.03c0 .196.079.298.235.298.219 0 .437-.086.656-.25.219-.168.484-.434.797-.797zm0 0"/></symbol></defs><use xlink:href="#a" x="-.215" y="19.165"/><use xlink:href="#b" x="9.428" y="4.879"/><use xlink:href="#c" x="5.021" y="29.999"/><use xlink:href="#d" x="16.713" y="18.693"/><path d="M25.688 1.96h76.21" fill="none" stroke-width=".776" stroke="#000" stroke-miterlimit="10"/><use xlink:href="#e" x="25.686" y="19.198"/><use xlink:href="#f" x="32.609" y="14.732"/><use xlink:href="#g" x="29.924" y="20.819"/><use xlink:href="#h" x="36.207" y="19.198"/><use xlink:href="#i" x="41.168" y="19.198"/><use xlink:href="#j" x="46.178" y="19.198"/><use xlink:href="#k" x="51.139" y="15.607"/><use xlink:href="#l" x="59.326" y="19.198"/><use xlink:href="#e" x="70.911" y="19.198"/><use xlink:href="#f" x="77.837" y="14.732"/><use xlink:href="#m" x="75.152" y="20.819"/><use xlink:href="#h" x="81.436" y="19.198"/><use xlink:href="#i" x="86.397" y="19.198"/><use xlink:href="#j" x="91.407" y="19.198"/><use xlink:href="#k" x="96.368" y="15.607"/><g><use xlink:href="#n" x="101.898" y="19.198"/></g><g><use xlink:href="#i" x="109.203" y="19.198"/></g></svg>