<svg xmlns="http://www.w3.org/2000/svg" xmlns:xlink="http://www.w3.org/1999/xlink" width="257pt" height="40pt" viewBox="0 0 257 40"><defs><symbol overflow="visible" id="a"><path d="M5.25-4.094c.363.149.64.356.828.625.195.262.297.563.297.906 0 .399-.074.758-.219 1.079-.148.312-.383.59-.703.828a2.89 2.89 0 0 1-1.094.515C3.953-.047 3.453 0 2.86 0H.25l.063-.281A.872.872 0 0 0 .64-.406a.7.7 0 0 0 .187-.219 1.95 1.95 0 0 0 .14-.344c.04-.133.11-.394.204-.781l.984-4.516c.094-.382.14-.691.14-.921 0-.188-.046-.317-.14-.391-.094-.07-.242-.117-.437-.14L1.78-8h2.907c.582 0 1.05.063 1.406.188.351.125.613.308.781.546.164.23.25.528.25.891 0 .512-.156.96-.469 1.344-.312.375-.781.668-1.406.875zm-1.625-.312c.406 0 .734-.024.984-.078.25-.063.454-.145.61-.25a2.03 2.03 0 0 0 .406-.391c.125-.145.223-.316.297-.516.07-.195.11-.43.11-.703 0-.164-.032-.32-.095-.468a.822.822 0 0 0-.296-.375 1.28 1.28 0 0 0-.485-.22 2.957 2.957 0 0 0-.75-.077c-.336 0-.648.007-.937.015l-.672 3.063zM1.953-.546c.3.023.586.03.86.03.582 0 1.035-.07 1.359-.218.32-.157.582-.399.781-.735.195-.332.297-.734.297-1.203 0-.25-.055-.46-.156-.64a.998.998 0 0 0-.469-.422c-.21-.102-.508-.157-.89-.157H2.671zm0 0"/></symbol><symbol overflow="visible" id="b"><path d="M4.766-1.172a4.584 4.584 0 0 1-.829.766c-.261.18-.527.308-.796.39-.262.07-.555.11-.875.11a2.13 2.13 0 0 1-.813-.14A1.503 1.503 0 0 1 .906-.47a1.678 1.678 0 0 1-.328-.625 3.081 3.081 0 0 1-.094-.781c0-.414.07-.863.22-1.344.155-.476.382-.906.687-1.281.3-.383.664-.68 1.093-.89a3.07 3.07 0 0 1 1.36-.313c.469 0 .82.101 1.062.297.239.187.36.484.36.89 0 .668-.313 1.168-.938 1.5-.625.325-1.555.485-2.781.485a4.372 4.372 0 0 0-.063.765c0 .407.079.704.235.891.164.188.43.281.797.281.351 0 .675-.078.968-.234.29-.156.598-.395.922-.719zm-3.11-1.86c.352 0 .664-.015.938-.046.27-.04.504-.094.703-.156.195-.063.36-.141.484-.235.133-.094.239-.191.313-.297.07-.101.125-.21.156-.328.031-.125.047-.254.047-.39 0-.227-.059-.41-.172-.547-.105-.133-.266-.203-.484-.203-.282 0-.555.101-.813.296a2.94 2.94 0 0 0-.703.797c-.2.336-.355.704-.469 1.11zm3.532-5.421l-.063.297-2.203 1.89-.36-.359L4.11-8.453zm0 0"/></symbol><symbol overflow="visible" id="c"><path d="M4.672-1.64L4.312 0H.079l-.125-.281 3.219-3.703c.445-.52.773-.891.984-1.11l-.031-.031H2.75c-.2 0-.344.016-.438.047a.792.792 0 0 0-.28.14c-.095.063-.2.165-.313.297a4.167 4.167 0 0 0-.36.579H.844l.344-1.547h4.171l.11.296L1.266-.516l.03.047h1.329c.227 0 .406-.008.531-.031a.852.852 0 0 0 .328-.156c.094-.07.188-.176.282-.313.101-.144.234-.367.39-.672zm0 0"/></symbol><symbol overflow="visible" id="d"><path d="M3.281-7.906l-.265 1.14H1.969l.281-1.14zM1.828-1.47c-.043.2-.07.344-.078.438a1.895 1.895 0 0 0-.016.234c0 .117.02.211.063.281.039.063.098.118.172.157.082.03.218.058.406.078L2.328 0H.516l.875-3.953c.05-.227.086-.406.109-.531.02-.133.031-.25.031-.344a.61.61 0 0 0-.047-.266.301.301 0 0 0-.171-.14c-.075-.032-.211-.051-.407-.063l.063-.312 1.437-.047h.344zm0 0"/></symbol><symbol overflow="visible" id="e"><path d="M4.766-1.172a4.584 4.584 0 0 1-.829.766c-.261.18-.527.308-.796.39-.262.07-.555.11-.875.11a2.13 2.13 0 0 1-.813-.14A1.503 1.503 0 0 1 .906-.47a1.678 1.678 0 0 1-.328-.625 3.081 3.081 0 0 1-.094-.781c0-.414.07-.863.22-1.344.155-.476.382-.906.687-1.281.3-.383.664-.68 1.093-.89a3.07 3.07 0 0 1 1.36-.313c.469 0 .82.101 1.062.297.239.187.36.484.36.89 0 .668-.313 1.168-.938 1.5-.625.325-1.555.485-2.781.485a4.372 4.372 0 0 0-.063.765c0 .407.079.704.235.891.164.188.43.281.797.281.351 0 .675-.078.968-.234.29-.156.598-.395.922-.719zm-3.11-1.86c.352 0 .664-.015.938-.046.27-.04.504-.094.703-.156.195-.063.36-.141.484-.235.133-.094.239-.191.313-.297.07-.101.125-.21.156-.328.031-.125.047-.254.047-.39 0-.227-.059-.41-.172-.547-.105-.133-.266-.203-.484-.203-.282 0-.555.101-.813.296a2.94 2.94 0 0 0-.703.797c-.2.336-.355.704-.469 1.11zm0 0"/></symbol><symbol overflow="visible" id="f"><path d="M2.328-5.656h.36L2.28-4.22l.063.032c.375-.508.738-.891 1.094-1.141.351-.25.718-.375 1.093-.375.282 0 .516.027.703.078l-.28 1.313h-.595a1.17 1.17 0 0 0-.156-.47c-.062-.1-.168-.155-.312-.155-.149 0-.32.078-.516.234-.2.156-.402.371-.61.64a3.58 3.58 0 0 0-.468.766c-.106.23-.184.485-.235.766L1.532 0H.515l.89-4c.082-.363.125-.645.125-.844a.473.473 0 0 0-.062-.25.301.301 0 0 0-.172-.14c-.074-.032-.203-.051-.39-.063l.062-.312zm0 0"/></symbol><symbol overflow="visible" id="g"><path d="M2.625-4.656v.343L1.172-.796.656-.953 1.5-4.656zm0 0"/></symbol><symbol overflow="visible" id="o"><path d="M2.266-3.328c.289-.383.57-.672.843-.86.282-.195.567-.296.86-.296.312 0 .547.086.703.25.156.168.234.402.234.703 0 .094-.015.226-.047.39a9.338 9.338 0 0 1-.093.516c-.043.188-.09.387-.141.594a26 26 0 0 1-.125.547l-.11.437a1.343 1.343 0 0 0-.03.219c0 .117.019.2.062.25.039.043.101.062.187.062a.42.42 0 0 0 .172-.03c.051-.02.102-.052.157-.095.062-.039.128-.093.203-.156.07-.07.148-.16.234-.265l.313.296a5.473 5.473 0 0 1-.407.375c-.117.106-.23.196-.343.266a1.272 1.272 0 0 1-.688.203.763.763 0 0 1-.297-.062.61.61 0 0 1-.234-.172.903.903 0 0 1-.156-.25 1.039 1.039 0 0 1-.047-.328c0-.114.007-.25.03-.407.032-.156.071-.328.126-.515.05-.188.098-.367.14-.547.051-.176.094-.336.126-.485.03-.144.054-.273.078-.39.02-.113.03-.211.03-.297 0-.176-.038-.305-.109-.39-.062-.083-.171-.126-.328-.126a.844.844 0 0 0-.296.063 1.425 1.425 0 0 0-.297.187 2.132 2.132 0 0 0-.297.297 2.969 2.969 0 0 0-.485.735c-.062.136-.109.273-.14.406L1.594 0h-.86l.657-2.86c.039-.156.066-.288.078-.406.02-.125.031-.222.031-.296 0-.22-.086-.329-.25-.329a.573.573 0 0 0-.172.032.732.732 0 0 0-.172.109 2.231 2.231 0 0 0-.187.172 3.823 3.823 0 0 0-.235.219l-.296-.282c.144-.144.273-.27.39-.375.125-.113.238-.203.344-.265.113-.07.223-.125.328-.157a1.28 1.28 0 0 1 .344-.046c.218 0 .383.074.5.218.125.137.187.32.187.547 0 .063-.008.125-.015.188a.706.706 0 0 1-.063.187zm0 0"/></symbol><symbol overflow="visible" id="p"><path d="M.75-2.234v-.672h5.063v.672zm0 0"/></symbol><symbol overflow="visible" id="q"><path d="M3.219-1.156v.234c.008.063.02.121.031.172a.252.252 0 0 0 .047.11c.02.03.047.058.078.078.04.042.086.074.14.093.063.012.133.028.22.047.093.012.203.024.328.031.132 0 .289.008.468.016V0H1.047v-.375c.176-.008.32-.016.437-.016.125-.007.227-.02.313-.03L2-.47a.53.53 0 0 0 .125-.062 1.36 1.36 0 0 0 .11-.094.237.237 0 0 0 .062-.11c.02-.05.035-.109.047-.171a2.25 2.25 0 0 0 .015-.25v-3.157c0-.113-.023-.19-.062-.234a.233.233 0 0 0-.188-.078c-.093 0-.23.047-.406.14-.18.094-.406.235-.687.423-.043-.07-.079-.141-.11-.204-.031-.07-.07-.14-.11-.203.364-.195.724-.394 1.079-.593l1.094-.594h.265a5.867 5.867 0 0 0-.015.437v.719zm0 0"/></symbol><symbol overflow="visible" id="s"><path d="M2.734-6.219l-.218.953H1.64l.218-.953zM1.672-1.516c-.043.18-.074.32-.094.422a2.143 2.143 0 0 0-.016.266c0 .117.02.2.063.25.05.043.125.062.219.062.05 0 .101-.007.156-.03.05-.02.102-.052.156-.095.063-.039.13-.093.203-.156.07-.07.157-.16.25-.265l.297.296a5.8 5.8 0 0 1-.422.391 3.12 3.12 0 0 1-.359.266 1.342 1.342 0 0 1-.656.187.796.796 0 0 1-.313-.062.756.756 0 0 1-.234-.172.715.715 0 0 1-.14-.25 1.11 1.11 0 0 1-.048-.328c0-.102.008-.223.032-.36.02-.144.046-.3.078-.468.039-.165.082-.344.125-.532.05-.187.097-.367.14-.547.04-.187.079-.363.11-.53.031-.165.054-.317.078-.454v-.078-.047A.28.28 0 0 0 1.172-4c-.074-.063-.203-.094-.39-.094l.046-.297 1.281-.046h.22zm0 0"/></symbol><symbol overflow="visible" id="t"><path d="M.75-3.188v-.671h5.063v.671zm0 1.907v-.672h5.063v.672zm0 0"/></symbol><symbol overflow="visible" id="u"><path d="M2.563.094c-.657 0-1.141-.235-1.454-.703C.797-1.086.641-1.805.641-2.766c0-.5.046-.93.14-1.296.094-.364.227-.665.406-.907.176-.238.383-.414.625-.531.25-.125.52-.188.813-.188.344 0 .64.07.89.204.25.125.454.308.61.546.156.243.27.54.344.891.07.344.11.734.11 1.172 0 .98-.173 1.719-.516 2.219-.344.5-.844.75-1.5.75zM1.546-2.86c0 .437.02.82.062 1.14.04.313.102.574.188.782.094.199.207.343.344.437.132.094.296.14.484.14.176 0 .328-.038.453-.124a1.02 1.02 0 0 0 .328-.422 2.58 2.58 0 0 0 .203-.735c.04-.289.063-.64.063-1.046 0-.446-.027-.833-.078-1.157a2.962 2.962 0 0 0-.203-.812c-.086-.207-.196-.36-.329-.453a.75.75 0 0 0-.453-.157.768.768 0 0 0-.515.172 1.074 1.074 0 0 0-.328.469c-.086.2-.141.45-.172.75a9.71 9.71 0 0 0-.047 1.016zm0 0"/></symbol><symbol overflow="visible" id="w"><path d="M3.625-2.234V.078h-.703v-2.312H.75v-.672h2.172V-5.22h.703v2.313h2.188v.672zm0 0"/></symbol><symbol overflow="visible" id="h"><path d="M2.063-2.969c0 1.367.218 2.492.656 3.375.445.895 1.117 1.492 2.015 1.797l-.14.453C3.457 2.352 2.582 1.703 1.969.703c-.606-.988-.907-2.191-.907-3.61 0-1.405.301-2.609.907-3.609.613-1 1.488-1.648 2.625-1.953l.172.453c-.918.305-1.602.891-2.047 1.766-.438.867-.656 1.96-.656 3.281zm0 0"/></symbol><symbol overflow="visible" id="i"><path d="M1.594-3.719c.093-.375.14-.66.14-.86 0-.155-.027-.269-.078-.343-.054-.07-.136-.11-.25-.11-.117 0-.242.055-.375.157-.136.094-.324.273-.562.531L.14-4.672c.363-.375.66-.64.89-.797.239-.156.508-.234.813-.234.25 0 .441.086.578.25.144.156.219.367.219.625 0 .21-.047.445-.141.703l.078.016c.375-.54.735-.942 1.078-1.204.352-.257.711-.39 1.078-.39.364 0 .641.11.829.328.195.21.296.496.296.86 0 .25-.054.6-.156 1.046l-.39 1.547c-.106.418-.157.715-.157.89 0 .157.024.274.078.345.051.074.13.109.235.109.125 0 .25-.047.375-.14.133-.102.32-.286.562-.548l.344.329c-.344.355-.64.617-.89.78-.25.165-.532.25-.844.25a.795.795 0 0 1-.625-.265c-.149-.187-.22-.422-.22-.703 0-.25.063-.625.188-1.125l.266-1c.094-.375.156-.645.188-.813.03-.175.046-.32.046-.437 0-.27-.046-.46-.14-.578-.094-.125-.242-.188-.438-.188-.168 0-.343.07-.531.204-.188.125-.39.324-.61.593-.21.262-.382.516-.515.766-.125.25-.23.558-.313.922L1.766 0H.75zm0 0"/></symbol><symbol overflow="visible" id="j"><path d="M1.813-1.36c.05.274.078.544.078.813 0 .274-.047.524-.141.75a2.24 2.24 0 0 1-.453.672c-.2.227-.48.477-.844.75l-.312-.36C.336 1.079.477.907.562.75A1.6 1.6 0 0 0 .766.234a3.58 3.58 0 0 0 .062-.718c0-.29-.015-.582-.047-.875zm0 0"/></symbol><symbol overflow="visible" id="k"><path d="M4.078-1.11c-.344.407-.672.712-.984.907a1.8 1.8 0 0 1-.985.297C1.285.094.875-.316.875-1.141c0-.257.035-.535.11-.828l.687-3.047H.688l.093-.406c.227 0 .399-.016.516-.047a.839.839 0 0 0 .297-.125.671.671 0 0 0 .218-.234c.07-.102.141-.234.204-.39.062-.157.156-.43.28-.829h.798L2.78-5.609h1.781l-.125.593h-1.78l-.532 2.282c-.105.437-.172.757-.203.953a3.79 3.79 0 0 0-.031.468c0 .481.203.72.609.72.164 0 .344-.063.531-.188.196-.133.43-.36.703-.672zm0 0"/></symbol><symbol overflow="visible" id="l"><path d="M2.906-2.969c0-1.32-.219-2.414-.656-3.281A3.389 3.389 0 0 0 .219-8.016l.156-.453c1.145.305 2.02.953 2.625 1.953.613 1 .922 2.204.922 3.61 0 1.418-.309 2.62-.922 3.61-.605 1-1.48 1.648-2.625 1.952l-.14-.453C1.14 1.898 1.812 1.301 2.25.406c.438-.883.656-2.008.656-3.375zm0 0"/></symbol><symbol overflow="visible" id="m"><path d="M.875-4.25v-.781h7.219v.781zm0 2.422v-.781h7.219v.78zm7.469-1.594zm0 0"/></symbol><symbol overflow="visible" id="n"><path d="M1.688-4.14c.207 0 .375.07.5.202.124.126.187.297.187.516 0 .211-.063.383-.188.516a.678.678 0 0 1-.5.187c-.199 0-.359-.062-.484-.187a.722.722 0 0 1-.187-.516c0-.219.062-.39.187-.515a.636.636 0 0 1 .484-.204zm0 0"/></symbol><symbol overflow="visible" id="r"><path d="M2.734-14.11l7 9.485v.703L2.188 6.328h10.156c.445 0 .789-.164 1.031-.484.238-.313.445-1.016.625-2.11h.86l-.297 4.297H.155v-.578L8.36-3.687.391-14.329v-.563h14.156v3.47h-.781c-.086-.821-.266-1.474-.547-1.954-.274-.488-.684-.734-1.235-.734zm0 0"/></symbol><symbol overflow="visible" id="v"><path d="M1.453-.281L.922.094.547 0l1.515-6.703c.083-.395.126-.68.126-.86 0-.164-.055-.28-.157-.343-.094-.07-.273-.11-.531-.11l.078-.312 1.484-.047h.344L2.375-4.281l.063.031c.382-.508.742-.879 1.078-1.11.332-.226.66-.343.984-.343.426 0 .758.168 1 .5.238.324.36.777.36 1.36 0 .648-.133 1.28-.391 1.905-.262.625-.625 1.122-1.094 1.485a2.39 2.39 0 0 1-1.531.547c-.524 0-.985-.125-1.39-.375zm.516-1.766a3.68 3.68 0 0 0-.094.797c0 .313.066.54.203.672.133.137.36.203.672.203.164 0 .316-.023.453-.078.145-.05.29-.133.438-.25.156-.125.3-.285.437-.485a4.08 4.08 0 0 0 .375-.718c.113-.29.203-.602.266-.938.062-.332.093-.648.093-.953 0-.406-.058-.707-.171-.906-.118-.207-.305-.313-.563-.313a.934.934 0 0 0-.547.188c-.18.117-.383.312-.61.594a4.772 4.772 0 0 0-.546.843 5.612 5.612 0 0 0-.36 1.11zm0 0"/></symbol><symbol overflow="visible" id="x"><path d="M.875-3.047v-.781h7.219v.781zm0 0"/></symbol><symbol overflow="visible" id="y"><path d="M4.078-1.531c0 .23.008.402.031.515a.68.68 0 0 0 .141.282.572.572 0 0 0 .266.171c.125.043.273.075.453.094.187.024.43.04.734.047V0H1.375v-.422A8.17 8.17 0 0 0 2.297-.5c.187-.04.328-.094.422-.156a.516.516 0 0 0 .219-.281c.05-.125.078-.32.078-.594v-4.75c0-.157-.032-.27-.094-.344a.282.282 0 0 0-.235-.11c-.124 0-.304.07-.53.204-.231.125-.516.304-.86.531l-.25-.453 2.734-1.64h.328a27.34 27.34 0 0 0-.03 1.562zm0 0"/></symbol></defs><use xlink:href="#a" x=".697" y="24.183"/><use xlink:href="#b" x="7.822" y="24.183"/><use xlink:href="#c" x="13.202" y="24.183"/><use xlink:href="#d" x="18.582" y="24.183"/><use xlink:href="#e" x="21.822" y="24.183"/><use xlink:href="#f" x="27.285" y="24.183"/><use xlink:href="#g" x="32.15" y="17.719"/><use xlink:href="#h" x="35.748" y="24.183"/><use xlink:href="#i" x="40.709" y="24.183"/><use xlink:href="#j" x="47.775" y="24.183"/><use xlink:href="#k" x="52.21" y="24.183"/><use xlink:href="#l" x="57.231" y="24.183"/><use xlink:href="#m" x="65.504" y="24.183"/><use xlink:href="#i" x="77.759" y="24.183"/><use xlink:href="#n" x="87.49" y="24.183"/><use xlink:href="#o" x="93.512" y="6.437"/><use xlink:href="#p" x="99.304" y="6.437"/><use xlink:href="#q" x="105.635" y="6.437"/><use xlink:href="#r" x="94.165" y="24.183"/><use xlink:href="#s" x="94.737" y="39.419"/><use xlink:href="#t" x="98.085" y="39.419"/><use xlink:href="#u" x="104.417" y="39.419"/><use xlink:href="#h" x="110.667" y="24.183"/><use xlink:href="#v" x="115.628" y="24.183"/><use xlink:href="#s" x="121.694" y="26.623"/><use xlink:href="#w" x="125.042" y="26.623"/><use xlink:href="#q" x="131.374" y="26.623"/><use xlink:href="#x" x="139.555" y="24.183"/><use xlink:href="#v" x="151.14" y="24.183"/><use xlink:href="#s" x="157.208" y="26.623"/><use xlink:href="#l" x="161.052" y="24.183"/><g><use xlink:href="#n" x="168.667" y="24.183"/></g><g><use xlink:href="#a" x="174.702" y="24.183"/><use xlink:href="#b" x="181.827" y="24.183"/></g><g><use xlink:href="#c" x="187.207" y="24.183"/><use xlink:href="#d" x="192.587" y="24.183"/><use xlink:href="#e" x="195.827" y="24.183"/><use xlink:href="#f" x="201.29" y="24.183"/></g><g><use xlink:href="#h" x="206.154" y="24.183"/><use xlink:href="#i" x="211.115" y="24.183"/></g><g><use xlink:href="#x" x="220.835" y="24.183"/></g><g><use xlink:href="#y" x="232.42" y="24.183"/><use xlink:href="#j" x="239.043" y="24.183"/></g><g><use xlink:href="#k" x="243.49" y="24.183"/></g><g><use xlink:href="#l" x="248.499" y="24.183"/></g><g><use xlink:href="#s" x="253.459" y="26.623"/></g></svg>