<svg xmlns="http://www.w3.org/2000/svg" xmlns:xlink="http://www.w3.org/1999/xlink" width="470pt" height="56" viewBox="0 0 470 42"><defs><symbol overflow="visible" id="a"><path d="M8.469.734h-.313c-.062.641-.328.938-.812.938-.203 0-.422-.063-.735-.172L3.797.344C3.484.234 3.28.172 3 .172c-.89 0-1.547.61-1.5 1.531 0 0 0 .11.016.203l.296.157c0-.922.282-1.36.907-1.36.36 0 .687.094 1.156.344l1.734.906c.72.375.922.453 1.407.453.89 0 1.328-.515 1.453-1.672zm.469-5.812c0-2.125-1.235-3.36-3.391-3.36C2.719-8.438.64-6.25.64-3.25.64-.984 1.75.219 3.859.219 4.875.219 5.72-.016 6.5-.5c1.516-.938 2.438-2.688 2.438-4.578zm-1.047.187c0 1.516-.485 2.86-1.297 3.704-.578.593-1.36.906-2.297.906-1.719 0-2.61-1.031-2.61-3.031 0-1.547.47-2.954 1.297-3.782.563-.562 1.282-.843 2.188-.843.578 0 1.156.14 1.562.39.766.453 1.157 1.344 1.157 2.656zm0 0"/></symbol><symbol overflow="visible" id="b"><path d="M8.125-3.938c-.016-.124-.031-.25-.031-.359 0-.125.015-.25.031-.36H.953c.031.11.031.235.031.36 0 .11 0 .234-.03.36zm0 2.626c-.016-.125-.031-.235-.031-.36s.015-.234.031-.36H.953a1.4 1.4 0 0 1 .031.36c0 .125 0 .234-.03.36zm0 0"/></symbol><symbol overflow="visible" id="c"><path d="M11.234-8.266c-.328.016-.671.032-1 .032-.343 0-.671-.016-1-.032-.218.438 0 .11-1.015 1.86L5.28-1.36 3.484-8.266c-.328.016-.656.032-1 .032-.328 0-.671-.016-.984-.032l-.047.329.313.03c.625.048.843.157.843.47a.627.627 0 0 1-.046.234L.843-1.11c-.187.625-.374.78-1.03.828L-.234.03 1.109 0C1.547 0 2 .016 2.422.031l.047-.328-.453-.031c-.391-.047-.594-.156-.594-.328 0-.125.031-.281.078-.485l1.484-5.546L4.766.218h.28l.673-1.25 2.86-4.938.624-1.047-.437 6.22c-.032.327-.188.405-.813.468l-.36.031-.046.328L9.157 0l1.593.031.031-.328-.437-.031C9.906-.375 9.688-.5 9.688-.75l.015-.438.5-6.359c0-.219.203-.344.547-.36l.453-.03zm0 0"/></symbol><symbol overflow="visible" id="f"><path d="M2.39-2.984c0-.438-.28-.72-.718-.72-.422 0-.719.282-.719.72 0 .421.297.718.719.718.437 0 .719-.296.719-.718zm0 0"/></symbol><symbol overflow="visible" id="g"><path d="M7.61-8.031v-.235l-1.938.032-2.828-.032H1.438c0 .563-.032 1.016-.141 1.891h.312c.047-.266.11-.563.25-1.031l.079-.235c.671-.109 1.125-.156 2.156-.156h2.14l-6 7.563V.03L3.125 0l3.844.031a16.96 16.96 0 0 1 .281-1.984h-.313l-.093.25c-.313.984-.25.766-.375 1.078-.547.11-1 .156-1.516.156h-3.36zm0 0"/></symbol><symbol overflow="visible" id="h"><path d="M5.078-14.516H1.703V0h.969v-14.031h2.406c-.016-.078-.031-.156-.031-.235 0-.093.016-.171.031-.25zm0 0"/></symbol><symbol overflow="visible" id="i"><path d="M2.672-9.688h-.969V0h.969zm0 0"/></symbol><symbol overflow="visible" id="j"><path d="M5.078 0c-.016-.078-.031-.156-.031-.234 0-.094.016-.172.031-.25H2.672v-14.032h-.969V0zm0 0"/></symbol><symbol overflow="visible" id="k"><path d="M5 .031v-.36l-.625-.03c-.656-.032-.781-.172-.781-.782v-7.093l-.156-.063c-.782.406-1.626.766-2.72 1.156l.079.5h.125l1.547-.687.031-.016c.063 0 .094.11.094.407v5.796c0 .61-.125.75-.781.782l-.672.03v.36L3.125 0zm0 0"/></symbol><symbol overflow="visible" id="l"><path d="M5.563-4.375c0-2.625-.782-3.86-2.422-3.86-1.844 0-2.797 1.47-2.797 4.36 0 1.406.25 2.61.672 3.188.421.593 1.093.921 1.828.921 1.812 0 2.719-1.546 2.719-4.609zm-1.016.594c0 2.547-.453 3.61-1.547 3.61-1.156 0-1.656-1.22-1.656-4.126 0-2.531.453-3.516 1.578-3.516 1.172 0 1.625 1.172 1.625 4.032zm0 0"/></symbol><symbol overflow="visible" id="n"><path d="M4.516 0v-14.516H1.14a.648.648 0 0 1 0 .485h2.421V0zm0 0"/></symbol><symbol overflow="visible" id="o"><path d="M4.516 0v-9.688h-.954V0zm0 0"/></symbol><symbol overflow="visible" id="p"><path d="M4.516 0v-14.516h-.954V-.484H1.142a.648.648 0 0 1 0 .484zm0 0"/></symbol><symbol overflow="visible" id="q"><path d="M4.969-5.656l-.11-.11-.265.282a.533.533 0 0 1-.407.171c-.406 0-1.03-.109-1.609-.25-.312-.093-.625-.203-.953-.203-.203 0-.438.047-.734.125L.516-4.187h.25l.359-.688c.203-.047.313-.063.469-.063.156 0 .297.016.531.063.406.078.719.125.969.125.437 0 .719-.078 1.11-.281L-.017-.25l.11.328c.344-.281.672-.39 1.093-.39.297 0 .625.046 1.25.203.72.171 1.094.234 1.407.234.156 0 .25-.016.61-.11.124-.75.218-1.156.359-1.718h-.266l-.266.719c-.078.218-.218.296-.468.296-.266 0-.532-.062-.797-.125-.391-.078-.797-.14-1.032-.14-.375 0-.703.062-1.14.25l4.062-4.563zm0 0"/></symbol><symbol overflow="visible" id="r"><path d="M8.125-2.625c-.016-.125-.031-.25-.031-.36 0-.124.015-.25.031-.359H.953c.031.11.031.235.031.36 0 .109 0 .234-.03.359zm0 0"/></symbol><symbol overflow="visible" id="s"><path d="M5.594.031c-.032-.25-.032-.36-.032-.531 0-.156 0-.281.032-.547l-4.14.125L3.64-3.234c1.156-1.22 1.515-1.875 1.515-2.782 0-1.375-.937-2.218-2.453-2.218-.86 0-1.453.234-2.031.828l-.203 1.64h.344l.156-.562c.187-.688.625-.984 1.422-.984 1.03 0 1.687.64 1.687 1.656 0 .906-.5 1.781-1.86 3.218L.189-.28V.03L2.858 0zm0 0"/></symbol><symbol overflow="visible" id="t"><path d="M4.11-7.61a.735.735 0 0 1-.188-.14c-.063-.063-.11-.11-.14-.188-1.47 1.47-2.345 3.032-2.345 4.563v.781c0 1.516.875 3.078 2.344 4.547a.735.735 0 0 1 .14-.187.735.735 0 0 1 .188-.141C2.781.281 2.156-1.203 2.156-2.594v-.781c0-1.39.625-2.89 1.953-4.234zm0 0"/></symbol><symbol overflow="visible" id="u"><path d="M3.64-2.594v-.781c0-1.531-.874-3.094-2.343-4.563-.047.079-.094.125-.156.188a.427.427 0 0 1-.188.14c1.328 1.344 1.969 2.844 1.969 4.235v.781c0 1.39-.64 2.875-1.969 4.219.078.031.14.078.188.14.062.063.109.126.156.188C2.766.484 3.64-1.078 3.64-2.594zm0 0"/></symbol><symbol overflow="visible" id="d"><path d="M6.016-1.953a1.368 1.368 0 0 1-.032-.25c0-.094.016-.188.032-.266H.703c.016.078.031.172.031.266 0 .078-.015.172-.03.25zm0 0"/></symbol><symbol overflow="visible" id="e"><path d="M4.125.031v-.265l-.516-.032c-.515-.03-.625-.125-.625-.578v-5.25L2.86-6.14c-.625.297-1.312.563-2.203.86l.078.375h.094l1.25-.516.031-.016c.047 0 .079.094.079.297v4.297c0 .453-.11.547-.626.578l-.546.032V.03L2.594 0zm0 0"/></symbol><symbol overflow="visible" id="m"><path d="M4.594.031c-.016-.187-.016-.281-.016-.406 0-.11 0-.203.016-.39l-3.328.078 1.75-1.704c.937-.906 1.234-1.39 1.234-2.062 0-1.016-.75-1.64-1.984-1.64-.688 0-1.172.171-1.641.624L.469-4.266H.75l.11-.406c.171-.516.515-.734 1.156-.734.828 0 1.359.468 1.359 1.218 0 .672-.406 1.329-1.484 2.391L.234-.203V.03L2.391 0zm0 0"/></symbol></defs><use xlink:href="#a" x=".279" y="24.218"/><use xlink:href="#b" x="12.892" y="24.218"/><use xlink:href="#c" x="25.301" y="24.218"/><use xlink:href="#d" x="36.881" y="19.985"/><use xlink:href="#e" x="43.605" y="19.985"/><use xlink:href="#f" x="51.758" y="24.218"/><use xlink:href="#g" x="57.76" y="24.218"/><use xlink:href="#f" x="68.388" y="24.218"/><use xlink:href="#c" x="74.389" y="24.218"/><use xlink:href="#b" x="89.285" y="24.218"/><use xlink:href="#h" x="101.699" y="15.389"/><use xlink:href="#i" x="101.699" y="23.093"/><use xlink:href="#i" x="101.699" y="29.048"/><use xlink:href="#j" x="101.699" y="41.582"/><use xlink:href="#k" x="107.927" y="8.745"/><use xlink:href="#l" x="124.569" y="8.745"/><use xlink:href="#l" x="141.21" y="8.745"/><use xlink:href="#k" x="107.927" y="24.826"/><use xlink:href="#e" x="125.063" y="19.218"/><path d="M125.063 21.836h5" fill="none" stroke-width=".717" stroke="#000" stroke-miterlimit="10"/><use xlink:href="#m" x="125.063" y="29.352"/><use xlink:href="#l" x="141.22" y="24.826"/><use xlink:href="#k" x="107.927" y="39.491"/><use xlink:href="#k" x="124.569" y="39.491"/><use xlink:href="#k" x="141.21" y="39.491"/><use xlink:href="#n" x="147.197" y="15.389"/><use xlink:href="#o" x="147.197" y="23.093"/><use xlink:href="#o" x="147.197" y="29.048"/><use xlink:href="#p" x="147.197" y="41.582"/><use xlink:href="#f" x="156.083" y="24.218"/><use xlink:href="#h" x="162.087" y="16.121"/><use xlink:href="#i" x="162.087" y="23.467"/><use xlink:href="#i" x="162.087" y="28.674"/><use xlink:href="#j" x="162.087" y="40.849"/><use xlink:href="#k" x="168.316" y="9.564"/><use xlink:href="#l" x="184.252" y="9.564"/><use xlink:href="#l" x="202.604" y="9.564"/><use xlink:href="#l" x="168.316" y="24.01"/><use xlink:href="#q" x="184.587" y="24.01"/><use xlink:href="#l" x="202.604" y="24.01"/><use xlink:href="#l" x="168.316" y="38.671"/><use xlink:href="#l" x="184.252" y="38.671"/><use xlink:href="#q" x="200.189" y="38.671"/><use xlink:href="#m" x="205.505" y="34.439"/><use xlink:href="#n" x="211.001" y="16.121"/><use xlink:href="#o" x="211.001" y="23.467"/><use xlink:href="#o" x="211.001" y="28.674"/><use xlink:href="#p" x="211.001" y="40.849"/><use xlink:href="#f" x="219.887" y="24.218"/><use xlink:href="#h" x="225.891" y="16.224"/><use xlink:href="#i" x="225.891" y="23.519"/><use xlink:href="#i" x="225.891" y="28.622"/><use xlink:href="#j" x="225.891" y="40.746"/><use xlink:href="#k" x="236.663" y="9.672"/><use xlink:href="#l" x="261.685" y="9.672"/><use xlink:href="#l" x="282.164" y="9.672"/><use xlink:href="#r" x="232.12" y="24.118"/><use xlink:href="#s" x="241.206" y="24.118"/><use xlink:href="#s" x="261.685" y="24.118"/><use xlink:href="#l" x="282.164" y="24.118"/><use xlink:href="#k" x="236.663" y="38.563"/><use xlink:href="#r" x="257.142" y="38.563"/><use xlink:href="#s" x="266.228" y="38.563"/><use xlink:href="#k" x="282.164" y="38.563"/><use xlink:href="#n" x="288.15" y="16.224"/><use xlink:href="#o" x="288.15" y="23.519"/><use xlink:href="#o" x="288.15" y="28.622"/><use xlink:href="#p" x="288.15" y="40.746"/><use xlink:href="#b" x="297.7" y="24.218"/><use xlink:href="#h" x="310.107" y="16.121"/><use xlink:href="#i" x="310.107" y="23.467"/><use xlink:href="#i" x="310.107" y="28.674"/><use xlink:href="#j" x="310.107" y="40.849"/><use xlink:href="#k" x="335.801" y="9.564"/><use xlink:href="#l" x="404.978" y="9.564"/><use xlink:href="#l" x="457.101" y="9.564"/><use xlink:href="#r" x="316.335" y="24.01"/><use xlink:href="#t" x="325.421" y="24.01"/><use xlink:href="#q" x="330.49" y="24.01"/><use xlink:href="#r" x="338.452" y="24.01"/><use xlink:href="#k" x="350.192" y="24.01"/><use xlink:href="#u" x="356.17" y="24.01"/><use xlink:href="#q" x="405.312" y="24.01"/><use xlink:href="#l" x="457.101" y="24.01"/><use xlink:href="#t" x="318.13" y="38.671"/><use xlink:href="#q" x="323.199" y="38.671"/><use xlink:href="#r" x="331.161" y="38.671"/><use xlink:href="#k" x="342.901" y="38.671"/><use xlink:href="#u" x="348.879" y="38.671"/><use xlink:href="#m" x="353.953" y="34.439"/><use xlink:href="#r" x="371.207" y="38.671"/><use xlink:href="#s" x="380.293" y="38.671"/><use xlink:href="#f" x="388.925" y="38.671"/><use xlink:href="#t" x="394.926" y="38.671"/><use xlink:href="#q" x="399.995" y="38.671"/><g><use xlink:href="#r" x="407.957" y="38.671"/></g><g><use xlink:href="#k" x="419.709" y="38.671"/><use xlink:href="#u" x="425.687" y="38.671"/></g><g><use xlink:href="#f" x="433.41" y="38.671"/></g><g><use xlink:href="#q" x="439.411" y="38.671"/></g><g><use xlink:href="#q" x="454.678" y="38.671"/></g><g><use xlink:href="#m" x="459.996" y="34.439"/></g><g><use xlink:href="#n" x="465.493" y="16.121"/></g><g><use xlink:href="#o" x="465.493" y="23.467"/></g><g><use xlink:href="#o" x="465.493" y="28.674"/></g><g><use xlink:href="#p" x="465.493" y="40.849"/></g></svg>