<svg xmlns="http://www.w3.org/2000/svg" xmlns:xlink="http://www.w3.org/1999/xlink" width="175pt" height="29pt" viewBox="0 0 175 29"><defs><symbol overflow="visible" id="a"><path d="M4.438 0L4.5-.281c.238-.02.41-.11.516-.266.113-.164.171-.453.171-.86 0-.144-.007-.312-.015-.5l-.031-.75H2.562l-.328.579a4.718 4.718 0 0 0-.343.703 1.612 1.612 0 0 0-.094.5c0 .336.195.531.594.594L2.328 0H-.078l.062-.281a.803.803 0 0 0 .344-.14c.113-.083.227-.204.344-.36.125-.164.297-.438.515-.813l3.75-6.5h.891l.422 6.531c.02.313.05.56.094.735.05.168.117.293.203.375a.77.77 0 0 0 .39.172L6.875 0zM2.813-3.172h2.296l-.093-1.875a38.468 38.468 0 0 1-.032-.969 28.865 28.865 0 0 1-.015-.843h-.063zm0 0"/></symbol><symbol overflow="visible" id="b"><path d="M.875-4.25v-.781h7.219v.781zm0 2.422v-.781h7.219v.78zm7.469-1.594zm0 0"/></symbol><symbol overflow="visible" id="c"><path d="M5.328-4.094c.363.149.645.356.844.625.195.262.297.563.297.906 0 .524-.121.965-.36 1.329-.242.367-.601.664-1.078.89-.48.23-1.18.344-2.093.344H.328l.078-.281a.872.872 0 0 0 .328-.125.7.7 0 0 0 .188-.219 1.95 1.95 0 0 0 .14-.344c.04-.133.102-.394.188-.781l1-4.516c.082-.382.125-.691.125-.921 0-.188-.047-.317-.14-.391-.087-.07-.227-.117-.422-.14L1.875-8h2.89c.594 0 1.063.063 1.407.188.351.125.613.308.781.546.164.23.25.528.25.891 0 .512-.156.96-.469 1.344-.312.375-.777.668-1.39.875zm-1.61-.312c.458 0 .821-.035 1.095-.11.269-.082.507-.218.718-.406a1.72 1.72 0 0 0 .453-.625c.094-.226.141-.492.141-.797 0-.164-.031-.32-.094-.468a.822.822 0 0 0-.297-.375 1.444 1.444 0 0 0-.5-.22 2.783 2.783 0 0 0-.734-.077c-.344 0-.664.007-.953.015L2.89-4.406zM2.048-.546c.226.023.52.03.875.03.594 0 1.035-.066 1.328-.203.3-.133.555-.375.766-.719.218-.343.328-.765.328-1.265 0-.395-.133-.692-.39-.89-.25-.196-.638-.298-1.157-.298H2.766zm0 0"/></symbol><symbol overflow="visible" id="d"><path d="M.875-3.047v-.781h7.219v.781zm0 0"/></symbol><symbol overflow="visible" id="e"><path d="M6.984-7.797l-.343 1.594h-.563c-.031-.477-.14-.82-.328-1.031-.18-.22-.46-.329-.844-.329-.543 0-1.047.274-1.515.813-.461.531-.825 1.242-1.094 2.125-.274.887-.406 1.71-.406 2.469 0 .594.101 1.031.312 1.312.219.281.547.422.985.422.289 0 .546-.039.765-.125.219-.094.422-.242.61-.453.195-.207.39-.5.578-.875h.562l-.36 1.656c-.73.211-1.495.313-2.296.313-.742 0-1.305-.207-1.688-.625C.984-.957.797-1.578.797-2.391c0-.57.098-1.234.297-1.984.207-.75.5-1.406.875-1.969.375-.57.816-1.004 1.328-1.297.508-.3 1.07-.453 1.687-.453.352 0 .68.024.985.063.3.043.64.12 1.015.234zm0 0"/></symbol><symbol overflow="visible" id="f"><path d="M2.61-4.188c.374-.519.738-.898 1.093-1.14.352-.25.711-.375 1.078-.375.282 0 .52.027.719.078l-.281 1.313h-.61a1.438 1.438 0 0 0-.093-.375c-.043-.094-.094-.157-.157-.188a.41.41 0 0 0-.218-.063c-.149 0-.305.063-.47.188-.167.117-.355.305-.562.563-.199.261-.359.511-.484.75-.125.23-.23.53-.313.906L1.766 0H.75l.844-3.719c.05-.226.082-.406.093-.531.02-.133.032-.242.032-.328 0-.156-.028-.27-.078-.344-.043-.07-.121-.11-.235-.11a.659.659 0 0 0-.39.157 4.824 4.824 0 0 0-.547.531L.14-4.672c.351-.375.648-.64.89-.797.25-.156.52-.234.813-.234.238 0 .43.086.578.25.144.156.219.367.219.625 0 .2-.04.402-.11.61zm0 0"/></symbol><symbol overflow="visible" id="g"><path d="M5.031-5.313l.547-.39.375.094-.86 3.718c-.093.368-.14.653-.14.86 0 .156.024.273.078.343.051.075.133.11.25.11a.61.61 0 0 0 .36-.14c.132-.102.328-.286.578-.548l.328.329c-.356.375-.656.64-.906.796a1.44 1.44 0 0 1-.797.235.748.748 0 0 1-.578-.235c-.149-.164-.22-.379-.22-.64 0-.219.04-.446.126-.688L4.109-1.5c-.375.555-.734.96-1.078 1.219-.336.25-.687.375-1.062.375-.43 0-.762-.16-1-.485-.242-.332-.36-.789-.36-1.375C.61-2.43.74-3.07 1-3.687c.27-.626.633-1.114 1.094-1.47a2.47 2.47 0 0 1 1.547-.546c.25 0 .484.031.703.094.226.054.457.152.687.296zm-.515 1.75a3.32 3.32 0 0 0 .078-.421c.008-.114.015-.239.015-.375 0-.301-.07-.52-.203-.657-.125-.144-.343-.218-.656-.218-.398 0-.758.164-1.078.484-.324.324-.574.762-.75 1.313a5.146 5.146 0 0 0-.266 1.624c0 .407.051.711.157.907.113.199.3.297.562.297.258 0 .516-.11.766-.329.25-.218.504-.535.765-.953.258-.414.446-.89.563-1.421zm0 0"/></symbol><symbol overflow="visible" id="h"><path d="M4.078-1.11c-.344.407-.672.712-.984.907a1.8 1.8 0 0 1-.985.297C1.285.094.875-.316.875-1.141c0-.257.035-.535.11-.828l.687-3.047H.688l.093-.406c.227 0 .399-.016.516-.047a.839.839 0 0 0 .297-.125.671.671 0 0 0 .218-.234c.07-.102.141-.234.204-.39.062-.157.156-.43.28-.829h.798L2.78-5.609h1.781l-.125.593h-1.78l-.532 2.282c-.105.437-.172.757-.203.953a3.79 3.79 0 0 0-.031.468c0 .481.203.72.609.72.164 0 .344-.063.531-.188.196-.133.43-.36.703-.672zm0 0"/></symbol><symbol overflow="visible" id="i"><path d="M3.313-7.906l-.266 1.14H2l.281-1.14zM1.421-3.953c.094-.383.14-.676.14-.875 0-.176-.042-.297-.125-.36-.085-.062-.25-.097-.5-.109L1-5.609l1.438-.047h.343l-.844 3.765c-.085.387-.125.672-.125.86 0 .156.02.273.063.343.05.075.133.11.25.11a.68.68 0 0 0 .375-.14c.133-.102.32-.286.563-.548l.328.329c-.387.398-.7.667-.938.812a1.47 1.47 0 0 1-.797.219.756.756 0 0 1-.61-.281C.899-.376.829-.61.829-.891c0-.3.05-.68.156-1.14zm0 0"/></symbol><symbol overflow="visible" id="j"><path d="M2.563.094c-.618 0-1.09-.164-1.422-.5-.336-.344-.5-.832-.5-1.469 0-.313.046-.672.14-1.078a4.079 4.079 0 0 1 .61-1.453c.289-.414.644-.735 1.062-.953a2.827 2.827 0 0 1 1.375-.344c.625 0 1.098.172 1.422.516.332.343.5.835.5 1.468 0 .461-.078.95-.234 1.469-.157.512-.375.945-.657 1.297a2.675 2.675 0 0 1-.984.781 3.138 3.138 0 0 1-1.313.266zm-.891-1.719c0 .43.086.746.266.953.175.211.445.313.812.313.375 0 .707-.172 1-.516.3-.344.535-.82.703-1.438.176-.624.266-1.171.266-1.64 0-.426-.086-.742-.25-.953-.157-.219-.414-.328-.766-.328-.406 0-.762.171-1.062.515-.305.344-.543.836-.72 1.469-.167.625-.25 1.168-.25 1.625zm0 0"/></symbol><symbol overflow="visible" id="k"><path d="M2.063-2.969c0 1.367.218 2.492.656 3.375.445.895 1.117 1.492 2.015 1.797l-.14.453C3.457 2.352 2.582 1.703 1.969.703c-.606-.988-.907-2.191-.907-3.61 0-1.405.301-2.609.907-3.609.613-1 1.488-1.648 2.625-1.953l.172.453c-.918.305-1.602.891-2.047 1.766-.438.867-.656 1.96-.656 3.281zm0 0"/></symbol><symbol overflow="visible" id="l"><path d="M2.906-2.969c0-1.32-.219-2.414-.656-3.281A3.389 3.389 0 0 0 .219-8.016l.156-.453c1.145.305 2.02.953 2.625 1.953.613 1 .922 2.204.922 3.61 0 1.418-.309 2.62-.922 3.61-.605 1-1.48 1.648-2.625 1.952l-.14-.453C1.14 1.898 1.812 1.301 2.25.406c.438-.883.656-2.008.656-3.375zm0 0"/></symbol><symbol overflow="visible" id="m"><path d="M4.906-3.047V.328h-.843v-3.375H.874v-.781h3.188v-3.375h.843v3.375h3.188v.781zm0 0"/></symbol></defs><use xlink:href="#a" x=".139" y="17.742"/><use xlink:href="#b" x="11.138" y="17.742"/><use xlink:href="#c" x="23.392" y="17.742"/><use xlink:href="#d" x="34.211" y="17.742"/><use xlink:href="#e" x="53.793" y="8.694"/><use xlink:href="#d" x="64.11" y="8.694"/><use xlink:href="#c" x="75.695" y="8.694"/><path d="M47.008 14.328h43.64" fill="none" stroke-width=".776" stroke="#000" stroke-miterlimit="10"/><use xlink:href="#f" x="47.007" y="25.74"/><use xlink:href="#g" x="52.961" y="25.74"/><use xlink:href="#h" x="59.907" y="25.74"/><use xlink:href="#i" x="64.916" y="25.74"/><use xlink:href="#j" x="69.088" y="25.74"/><use xlink:href="#k" x="75.723" y="25.74"/><use xlink:href="#h" x="80.685" y="25.74"/><use xlink:href="#l" x="85.694" y="25.74"/><use xlink:href="#b" x="95.165" y="17.742"/><use xlink:href="#c" x="107.407" y="17.742"/><use xlink:href="#m" x="118.227" y="17.742"/><use xlink:href="#c" x="137.81" y="8.694"/><use xlink:href="#d" x="148.629" y="8.694"/><use xlink:href="#e" x="160.214" y="8.694"/><path d="M131.023 14.328h43.641" fill="none" stroke-width=".776" stroke="#000" stroke-miterlimit="10"/><use xlink:href="#f" x="131.024" y="25.74"/><use xlink:href="#g" x="136.966" y="25.74"/><use xlink:href="#h" x="143.924" y="25.74"/><use xlink:href="#i" x="148.933" y="25.74"/><use xlink:href="#j" x="153.105" y="25.74"/><use xlink:href="#k" x="159.74" y="25.74"/><use xlink:href="#h" x="164.702" y="25.74"/><g><use xlink:href="#l" x="169.711" y="25.74"/></g></svg>