<svg xmlns="http://www.w3.org/2000/svg" xmlns:xlink="http://www.w3.org/1999/xlink" width="157pt" height="36" viewBox="0 0 157 27"><defs><symbol overflow="visible" id="a"><path d="M6.688-6.719c0-.984-.97-1.547-1.891-1.547-.594 0-1.203.032-1.797.032l-1.813-.032-.03.329.64.03c.281 0 .422.095.422.313 0 .172-.063.547-.11.907L1.063-.657c-.032.22-.188.298-.688.376L.312.03C.672.016 1.047 0 1.407 0c.64 0 1.266.031 1.922.031.563 0 1.125-.125 1.688-.469.953-.546 1.468-1.375 1.468-2.28 0-.516-.156-.907-.484-1.173-.313-.25-.672-.359-1.5-.468.688-.25.969-.391 1.36-.72.53-.484.827-1.03.827-1.64zm-1.25 4.203c0 1.22-.875 2.11-2.063 2.11-.25 0-.594-.016-.984-.047a2.223 2.223 0 0 0-.407-.031l.61-3.579h1.015c1.235 0 1.829.5 1.829 1.547zM5.655-6.5c0 1.25-.89 2-2.375 2h-.61l.579-3.266c.328 0 .64-.062.953-.062.969 0 1.453.422 1.453 1.328zm0 0"/></symbol><symbol overflow="visible" id="e"><path d="M4.11-7.61a.735.735 0 0 1-.188-.14c-.063-.063-.11-.11-.14-.188-1.47 1.47-2.345 3.032-2.345 4.563v.781c0 1.516.875 3.078 2.344 4.547a.735.735 0 0 1 .14-.187.735.735 0 0 1 .188-.141C2.781.281 2.156-1.203 2.156-2.594v-.781c0-1.39.625-2.89 1.953-4.234zm0 0"/></symbol><symbol overflow="visible" id="f"><path d="M3.703-5.266c-.453.047-.86.079-1.312.079.187-1.125.328-1.704.53-2.36l-.124-.172c-.235.14-.563.282-.938.422l-.296 2.031c-.516.25-.829.391-1.047.454l-.032.156H1.5L.828-1.281c-.062.297-.156.593-.156.906 0 .297.125.484.36.484.421 0 .827-.234 1.765-1 .219-.156.14-.109.375-.296l-.125-.22-.531.376c-.36.25-.594.36-.735.36-.093 0-.156-.095-.156-.235 0-.313.14-1.25.516-3.016l.156-.734h1.281zm0 0"/></symbol><symbol overflow="visible" id="g"><path d="M3.64-2.594v-.781c0-1.531-.874-3.094-2.343-4.563-.047.079-.094.125-.156.188a.427.427 0 0 1-.188.14c1.328 1.344 1.969 2.844 1.969 4.235v.781c0 1.39-.64 2.875-1.969 4.219.078.031.14.078.188.14.062.063.109.126.156.188C2.766.484 3.64-1.078 3.64-2.594zm0 0"/></symbol><symbol overflow="visible" id="h"><path d="M5.766-8.625l-.141-.14c-.61.312-1.047.421-1.906.5l-.047.25h.578c.281 0 .406.093.406.296 0 .094-.015.203-.031.282l-.328 1.843a3.437 3.437 0 0 0-.984-.172c-.829 0-1.954.86-2.5 1.907-.375.687-.61 1.828-.61 2.828C.203-.25.375.125.734.125c.313 0 .766-.203 1.172-.516.64-.53 1.032-1 1.828-2.203L3.47-1.5c-.14.516-.188.906-.188 1.219 0 .25.094.406.297.406.219 0 .5-.156.906-.453l.97-.719-.126-.234-.516.375c-.171.125-.359.203-.468.203-.094 0-.172-.11-.172-.281 0-.094.031-.204.094-.547zM4.172-4.906l-.14.703c-.22 1.062-.798 2.11-1.548 2.812-.421.407-.89.688-1.125.688-.187 0-.296-.172-.296-.469 0-1.5.546-3.375 1.14-3.828.156-.11.375-.172.703-.172.531 0 .875.063 1.266.266zm0 0"/></symbol><symbol overflow="visible" id="i"><path d="M8.125-3.938c-.016-.124-.031-.25-.031-.359 0-.125.015-.25.031-.36H.953c.031.11.031.235.031.36 0 .11 0 .234-.03.36zm0 2.626c-.016-.125-.031-.235-.031-.36s.015-.234.031-.36H.953a1.4 1.4 0 0 1 .031.36c0 .125 0 .234-.03.36zm0 0"/></symbol><symbol overflow="visible" id="j"><path d="M5.766-12.734a.735.735 0 0 1-.188-.141.735.735 0 0 1-.14-.188c-2.375 2.376-3.829 5.376-3.829 8.704v2.75c0 3.312 1.454 6.312 3.829 8.703a.595.595 0 0 1 .14-.203l.188-.141C3.53 4.5 2.469 1.531 2.469-1.61v-2.75c0-3.14 1.062-6.109 3.297-8.374zm0 0"/></symbol><symbol overflow="visible" id="k"><path d="M6.14-1.016l-.109-.218-.312.203c-.36.234-.61.36-.735.36-.078 0-.156-.11-.156-.235 0-.063.016-.188.031-.235l.782-3.312a4.47 4.47 0 0 0 .125-.875c0-.281-.125-.438-.36-.438-.5 0-1.328.454-2.031 1.11-.453.422-.797.828-1.422 1.703l.469-1.922c.047-.219.062-.36.062-.484 0-.266-.093-.407-.265-.407-.266 0-.719.266-1.594.891l-.344.234.094.235.375-.25c.438-.282.484-.297.563-.297.14 0 .218.125.218.297 0 .61-.484 2.922-.984 4.625l.094.14c.296-.078.562-.156.828-.203.234-1.515.484-2.281 1.031-3.11.656-1 1.547-1.75 2.078-1.75.125 0 .203.11.203.298 0 .203-.031.453-.125.843L4.031-1.28c-.11.437-.156.718-.156.906 0 .297.125.484.36.484.312 0 .734-.25 1.906-1.125zm0 0"/></symbol><symbol overflow="visible" id="l"><path d="M5.36-5.656a2.204 2.204 0 0 0-.563-.11c-.797 0-1.781.922-3.281 3.016l1.28-5.875-.14-.14c-.625.312-1.047.421-1.922.5l-.046.25h.578c.28 0 .406.093.406.296 0 .094-.016.203-.016.282l-.578 3.203C.922-3.328.718-2.516.094-.016l.11.125L1-.094l.281-1.484c.11-.578.39-1.11.797-1.516C2.906-.704 3.281.11 3.578.11c.156 0 .453-.156.969-.53l.562-.376-.093-.234-.516.297c-.172.093-.25.109-.36.109-.109 0-.202-.063-.296-.266-.422-.765-.688-1.421-1.156-2.89l.171-.156c.72-.735 1.282-1.032 1.875-1.032.094 0 .22.016.422.063zm0 0"/></symbol><symbol overflow="visible" id="m"><path d="M5.234-1.61v-2.75c0-3.327-1.437-6.327-3.828-8.703a.735.735 0 0 1-.14.188.735.735 0 0 1-.188.14c2.25 2.266 3.297 5.235 3.297 8.376v2.75c0 3.14-1.047 6.109-3.297 8.359l.188.14c.062.063.109.126.14.204 2.39-2.39 3.828-5.39 3.828-8.703zm0 0"/></symbol><symbol overflow="visible" id="n"><path d="M5 .031v-.36l-.625-.03c-.656-.032-.781-.172-.781-.782v-7.093l-.156-.063c-.782.406-1.626.766-2.72 1.156l.079.5h.125l1.547-.687.031-.016c.063 0 .094.11.094.407v5.796c0 .61-.125.75-.781.782l-.672.03v.36L3.125 0zm0 0"/></symbol><symbol overflow="visible" id="o"><path d="M8.125-2.625c-.016-.125-.031-.25-.031-.36 0-.124.015-.25.031-.359H.953c.031.11.031.235.031.36 0 .109 0 .234-.03.359zm0 0"/></symbol><symbol overflow="visible" id="b"><path d="M5.047-.75l-.11-.156-.234.14c-.297.172-.5.266-.594.266-.062 0-.125-.078-.125-.172 0-.047 0-.14.016-.172l.64-2.453c.063-.25.094-.5.094-.64 0-.204-.093-.329-.28-.329-.407 0-1.079.344-1.657.829-.36.312-.625.609-1.125 1.25l.36-1.422c.046-.157.062-.266.062-.36 0-.187-.078-.297-.219-.297-.203 0-.578.204-1.281.657l-.281.171.078.188.312-.188c.344-.218.375-.218.453-.218.094 0 .172.078.172.219 0 .453-.406 2.156-.797 3.421l.063.094c.25-.062.469-.11.687-.156.172-1.11.39-1.688.828-2.297.532-.734 1.235-1.281 1.672-1.281.094 0 .156.078.156.203 0 .156-.015.344-.093.625L3.328-.953c-.078.328-.125.531-.125.672 0 .234.11.36.297.36.25 0 .594-.188 1.547-.829zm0 0"/></symbol><symbol overflow="visible" id="c"><path d="M2.188-.969l-.141-.125-.938.266C1.047-.156.813.422.234 1.282l.141.093.39-.172C1.563.281 1.923-.28 2.188-.969zm0 0"/></symbol><symbol overflow="visible" id="d"><path d="M4.406-4.188a1.836 1.836 0 0 0-.453-.078c-.64 0-1.437.688-2.64 2.235l1.03-4.36-.109-.093c-.515.234-.859.312-1.546.375l-.047.187h.468c.235 0 .329.063.329.203 0 .078 0 .157-.016.219L.953-3.125C.828-2.469.656-1.859.172-.015L.25.077l.656-.156.219-1.094c.078-.422.313-.812.64-1.125.673 1.781.97 2.375 1.22 2.375.124 0 .343-.11.78-.39l.438-.282-.078-.172-.406.22c-.14.062-.203.093-.281.093-.11 0-.172-.063-.25-.203-.344-.578-.547-1.047-.938-2.14l.14-.126c.594-.531 1.032-.75 1.516-.75a2.1 2.1 0 0 1 .344.047zm0 0"/></symbol><symbol overflow="visible" id="p"><path d="M6.016-1.953a1.368 1.368 0 0 1-.032-.25c0-.094.016-.188.032-.266H.703c.016.078.031.172.031.266 0 .078-.015.172-.03.25zm0 0"/></symbol></defs><use xlink:href="#a" x=".449" y="18.004"/><use xlink:href="#b" x="7.753" y="20.778"/><use xlink:href="#c" x="13.291" y="20.778"/><use xlink:href="#d" x="15.874" y="20.778"/><use xlink:href="#e" x="21.035" y="18.004"/><use xlink:href="#f" x="26.104" y="18.004"/><use xlink:href="#g" x="30.133" y="18.004"/><use xlink:href="#h" x="38.43" y="9.396"/><path d="M36.41 15.016H46.56" fill="none" stroke-width=".717" stroke="#000" stroke-miterlimit="10"/><use xlink:href="#h" x="36.409" y="26.05"/><use xlink:href="#f" x="42.518" y="26.05"/><use xlink:href="#i" x="51.076" y="18.004"/><use xlink:href="#j" x="63.474" y="18.004"/><use xlink:href="#k" x="70.333" y="9.396"/><use xlink:href="#l" x="70.806" y="25.967"/><use xlink:href="#m" x="76.981" y="18.004"/><use xlink:href="#f" x="83.831" y="18.004"/><use xlink:href="#d" x="87.872" y="13.772"/><use xlink:href="#e" x="93.032" y="18.004"/><use xlink:href="#n" x="98.101" y="18.004"/><use xlink:href="#o" x="106.733" y="18.004"/><use xlink:href="#f" x="118.473" y="18.004"/><use xlink:href="#g" x="122.514" y="18.004"/><g><use xlink:href="#b" x="127.588" y="13.772"/><use xlink:href="#p" x="133.126" y="13.772"/><use xlink:href="#d" x="139.85" y="13.772"/></g><g><use xlink:href="#h" x="148.226" y="9.396"/></g><path d="M146.207 15.016h10.148" fill="none" stroke-width=".717" stroke="#000" stroke-miterlimit="10"/><g><use xlink:href="#h" x="146.206" y="26.05"/></g><g><use xlink:href="#f" x="152.303" y="26.05"/></g></svg>