<svg xmlns:xlink="http://www.w3.org/1999/xlink" width="82.667ex" height="6ex" style="vertical-align:-2.5ex;margin-bottom:1px;margin-top:1px" viewBox="0 -1548.4 35561.4 2596.8" xmlns="http://www.w3.org/2000/svg"><defs><path stroke-width="10" id="a" d="M756 545c0-95-105-169-209-188 97-11 155-69 155-141C702 118 584 0 426 0H69C51 0 42 0 42 11c0 20 10 20 27 20 79 0 81 8 91 47l134 537c3 12 4 15 4 19 0 13-9 14-27 16-17 2-38 2-38 2-19 0-28 0-28 11 0 20 10 20 29 20h336c120 0 186-64 186-138zm-91 4c0 44-21 103-109 103H427c-43 0-45-3-54-38l-62-248h146c122 0 208 95 208 183zm-56-322c0 43-19 117-115 117H305L236 65c-5-18-5-20-5-23 0-8 3-9 13-10 6-1 8-1 22-1h136c118 0 207 97 207 196z"/><path stroke-width="10" id="b" d="M332-238c0-5-5-10-10-10-2 0-4 1-6 2-110 83-215 283-215 454v84c0 171 105 371 215 454 2 1 4 2 6 2 5 0 10-5 10-10 0-3-2-6-4-8-104-78-173-278-173-438v-84c0-160 69-360 173-438 2-2 4-5 4-8z"/><path stroke-width="10" id="c" d="M330 420c0-20-10-20-30-20h-94l-74-295c-4-17-6-24-6-48 0-33 10-46 31-46 34 0 87 24 130 128 5 11 6 14 15 14 4 0 12 0 12-10 0-8-57-154-159-154-54 0-92 38-92 92 0 18 4 35 76 319H51c-20 0-28 0-28 12 0 19 10 19 30 19h94l39 159c9 35 37 36 40 36 17 0 29-10 29-27 0-6-5-26-41-168h88c18 0 28 0 28-11z"/><path stroke-width="10" id="d" d="M288 208c0-171-105-371-215-454-2-1-4-2-6-2-5 0-10 5-10 10 0 3 2 6 4 8 104 78 173 278 173 438v84c0 160-69 360-173 438-2 2-4 5-4 8 0 5 5 10 10 10 2 0 4-1 6-2 110-83 215-283 215-454v-84z"/><path stroke-width="10" id="e" d="M543 143s-13-63-30-99c-16-32-39-55-74-55-43 0-78 26-89 67-17-22-53-67-119-67-54 0-123 25-123 120 0 49 21 111 58 210 6 15 17 44 17 68 0 32-16 33-25 33-38 0-76-37-101-124-5-16-6-18-16-18 0 0-12 0-12 10 0 9 37 154 132 154 50 0 82-37 82-82 0-19-5-33-17-63-26-69-54-148-54-204 0-37 10-82 62-82 73 0 113 80 114 84l75 301c8 34 34 35 39 35 15 0 29-9 29-27 0-6-10-44-15-67-4-15-14-53-17-68l-28-108c-8-35-20-82-20-104 0-33 10-46 31-46 42 0 61 68 75 124 3 14 4 18 14 18 3 0 12 0 12-10z"/><path stroke-width="10" id="f" d="M420 356c0-39-24-56-46-56s-31 15-31 29c0 22 20 44 48 45-15 39-65 46-90 46-88 0-112-61-112-90 0-45 40-52 76-60 44-9 73-14 100-42 12-12 31-37 31-73 0-45-39-166-201-166-86 0-143 40-143 97 0 45 30 66 56 66 21 0 37-12 37-35 0-28-25-58-63-53 23-53 100-53 114-53 120 0 143 84 143 110 0 55-52 66-104 76-29 6-103 21-103 99 0 44 37 146 169 146 76 0 119-41 119-86z"/><path stroke-width="10" id="g" d="M430 107c0-12-84-118-227-118-98 0-157 79-157 181 0 175 151 272 262 272 69 0 107-41 107-85 0-14-5-73-75-103-50-21-124-23-153-23h-53c-15-61-16-92-16-104 0-32 9-116 87-116 12 0 121 0 200 99 6 8 8 10 13 10 6 0 12-7 12-13zm-48 250c0 34-27 63-74 63-26 0-129-15-168-167h41c41 0 201 0 201 104z"/><path stroke-width="10" id="h" d="M425-238c0-7-5-12-12-12-105 0-196 52-196 125v250c0 58-55 113-130 113-7 0-12 5-12 12s5 12 12 12c75 0 130 55 130 113v250c0 73 91 125 196 125 7 0 12-5 12-12s-5-12-12-12c-75 0-130-49-130-101V375c0-58-48-104-115-125 67-21 115-67 115-125v-250c0-52 55-101 130-101 7 0 12-5 12-12z"/><path stroke-width="10" id="i" d="M490 282c0-147-125-293-241-293-51 0-79 35-92 64-7-25-49-188-49-200 0-9 0-16 50-16 14 0 24 0 24-11 0-20-13-20-18-20-32 0-66 3-99 3-28 0-57-3-84-3-8 0-13 4-13 12 0 19 11 19 23 19 44 0 46 7 54 41l112 445c4 17 7 28 7 51 0 38-14 46-31 46-36 0-56-48-73-119-6-22-7-23-17-23 0 0-12 0-12 10 0 3 13 63 31 97 9 18 28 57 74 57 37 0 80-21 90-75 33 39 81 75 131 75 76 0 133-66 133-160zm-72 44c0 59-24 94-64 94-17 0-46-7-81-38-18-15-45-43-52-70l-49-196c-3-12-3-16-3-16 0-6 13-89 79-89 37 0 85 33 119 103 18 38 51 153 51 212z"/><path stroke-width="10" id="j" d="M419 0c-35 3-122 3-162 3S130 3 95 0v31h32c90 0 93 12 93 48v518c-52-26-111-26-131-26v31c32 0 120 0 182 64 23 0 23-2 23-26V79c0-37 3-48 93-48h32V0z"/><path stroke-width="10" id="k" d="M203 1c0-117-80-194-91-194-5 0-10 4-10 11 0 3 0 5 11 16 33 33 68 93 68 167 0 14-2 15-2 15s-2-1-5-3c-10-9-23-13-35-13-33 0-53 26-53 53 0 28 20 53 53 53 39 0 64-39 64-105z"/><path stroke-width="10" id="l" d="M449 174L421 0H50c0 24 0 26 11 37l192 214c55 62 105 141 105 221 0 82-43 163-134 163-58 0-112-37-135-102 3 1 5 1 13 1 35 0 53-26 53-52 0-41-35-53-52-53-3 0-53 0-53 56 0 89 74 181 187 181 122 0 212-80 212-194 0-100-60-154-216-292L127 77h180c22 0 88 0 95 8 10 15 17 59 22 89h25z"/><path stroke-width="10" id="m" d="M457 171c0-102-91-193-213-193C135-22 42 44 42 135c0 44 32 58 56 58 29 0 56-20 56-56 0-38-31-60-66-55C123 23 198 6 241 6c44 0 113 29 113 165 0 98-37 166-119 166h-44c-17 0-24 0-24 11 0 10 7 11 15 12 7 0 31 2 39 3 25 1 59 4 89 52 26 44 28 102 28 114 0 90-55 112-96 112-36 0-102-13-133-62 15 0 62 0 62-50 0-29-20-51-51-51-29 0-51 19-51 52 0 76 76 136 177 136 96 0 184-56 184-138 0-79-58-149-140-176 104-21 167-99 167-181z"/><path stroke-width="10" id="n" d="M471 165H371V78c0-36 2-47 76-47h21V0c-41 3-94 3-136 3s-94 0-135-3v31h21c74 0 76 11 76 47v87H28v31l307 469c8 12 11 12 20 12 16 0 16-6 16-26V196h100v-31zm-171 31v373L56 196h244z"/><path stroke-width="10" id="o" d="M425 250c0-7-5-12-12-12-75 0-130-55-130-113v-250c0-73-91-125-196-125-7 0-12 5-12 12s5 12 12 12c75 0 130 49 130 101v250c0 58 48 104 115 125-67 21-115 67-115 125v250c0 52-55 101-130 101-7 0-12 5-12 12s5 12 12 12c105 0 196-52 196-125V375c0-58 55-113 130-113 7 0 12-5 12-12z"/><path stroke-width="10" id="p" d="M251 710c0-7-2-14-6-19L87 430H60l120 297c4 11 18 21 33 21 21 0 38-17 38-38z"/><path stroke-width="10" id="q" d="M468 372c0-52-57-383-225-383-46 0-134 16-134 124 0 43 13 89 57 205 7 18 17 45 17 70 0 32-17 32-25 32-29 0-72-23-101-124-5-16-6-18-16-18 0 0-12 0-12 10 0 9 38 154 132 154 50 0 82-37 82-82 0-19-5-33-12-50-31-83-58-156-58-212 0-52 23-87 74-87 117 0 178 229 178 271 0 36-13 62-34 82-11 11-16 17-16 30 0 22 24 48 49 48 18 0 44-16 44-70z"/><path stroke-width="10" id="r" d="M192 53c0-29-24-53-53-53S86 24 86 53s24 53 53 53 53-24 53-53z"/><path stroke-width="10" id="s" d="M691 372c0-48-32-182-66-260-26-60-70-123-145-123-30 0-99 6-125 70-40-70-87-70-104-70-75 0-142 35-142 126 0 38 12 84 56 202 7 17 18 45 18 70 0 32-16 33-25 33-35 0-74-31-101-124-5-16-6-18-16-18 0 0-12 0-12 10 0 9 37 154 132 154 49 0 82-37 82-82 0-20-6-34-17-64-47-123-52-162-52-194 0-17 0-91 80-91 39 0 69 31 92 84-1 5-1 7-1 18 0 18 2 36 9 66 7 26 54 217 57 224 7 20 25 28 37 28 15 0 29-9 29-27 0-6-10-43-15-65l-42-168c-4-14-11-45-11-73 0-57 27-87 74-87 49 0 84 35 110 88 26 51 55 149 55 183 0 48-25 74-36 85-9 8-15 14-15 27 0 22 25 48 50 48 17 0 44-15 44-70z"/><path stroke-width="10" id="t" d="M546 143c0-8-37-154-131-154-47 0-82 35-82 82 0 20 5 32 13 55 24 61 62 170 62 224 0 36-11 70-54 70s-74-19-96-35c-34-27-65-83-68-92-1-6-9-39-11-45-5-23-11-45-17-67l-22-90-19-76c-5-14-21-26-37-26-9 0-29 5-29 28 0 6 0 8 4 22l145 576 3 20c0 10-2 17-50 17-15 0-24 0-24 12 0 18 11 19 19 20 26 2 99 10 122 10 13 0 13-11 13-11l-78-318c37 46 85 77 148 77 75 0 115-42 115-107 0-58-45-177-61-220-9-22-18-46-18-71 0-23 7-33 24-33 55 0 87 71 102 124 5 15 5 18 15 18 3 0 12 0 12-10z"/><path stroke-width="10" id="u" d="M436 377c0-36-28-59-55-59s-38 19-38 35c0 26 22 50 52 55 0 0-16 12-42 12-43 0-72-26-80-33-24-22-52-69-56-82l-32-130c-4-18-38-154-40-158-7-20-25-28-37-28-15 0-29 9-29 27 0 5 6 28 9 43l58 231c13 52 16 63 16 84 0 38-14 46-31 46-36 0-56-48-73-119-6-22-7-23-17-23 0 0-12 0-12 10 0 3 13 63 31 97 9 18 28 57 74 57 47 0 83-32 91-77 19 28 63 77 128 77 51 0 83-30 83-65z"/><path stroke-width="10" id="v" d="M722 347c0-11-9-20-20-20H76c-11 0-20 9-20 20s9 20 20 20h626c11 0 20-9 20-20zm0-194c0-11-9-20-20-20H76c-11 0-20 9-20 20s9 20 20 20h626c11 0 20-9 20-20z"/><path stroke-width="10" id="w" d="M722 250c0-11-9-20-20-20H76c-11 0-20 9-20 20s9 20 20 20h626c11 0 20-9 20-20z"/></defs><g stroke="currentColor" fill="currentColor" stroke-width="0"><g transform="matrix(1 0 0 -1 24596 -734)"><use xlink:href="#a"/><use xlink:href="#b" x="764"/><use xlink:href="#c" x="1158"/><use xlink:href="#d" x="1524"/><use xlink:href="#e" x="2250"/><use xlink:href="#f" x="2827"/><use xlink:href="#g" x="3301"/><use xlink:href="#f" x="3772"/><use xlink:href="#h" x="4578"/><g transform="translate(5083)"><use xlink:href="#i"/><use transform="scale(.707)" xlink:href="#j" x="718" y="-213"/></g><use xlink:href="#k" x="6048"/><g transform="translate(6497)"><use xlink:href="#i"/><use transform="scale(.707)" xlink:href="#l" x="718" y="-213"/></g><use xlink:href="#k" x="7462"/><g transform="translate(7912)"><use xlink:href="#i"/><use transform="scale(.707)" xlink:href="#m" x="718" y="-213"/></g><use xlink:href="#k" x="8877"/><g transform="translate(9327)"><use xlink:href="#i"/><use transform="scale(.707)" xlink:href="#n" x="718" y="-213"/></g><use xlink:href="#o" x="10292"/></g><g transform="matrix(1 0 0 -1 156 775)"><use xlink:href="#a"/><use transform="scale(.707)" xlink:href="#p" x="1080" y="583"/><use xlink:href="#b" x="1087"/><use xlink:href="#c" x="1481"/><use xlink:href="#d" x="1847"/><use xlink:href="#e" x="2573"/><use xlink:href="#f" x="3150"/><use xlink:href="#g" x="3624"/><use xlink:href="#f" x="4095"/><use xlink:href="#h" x="4901"/><g transform="translate(5406)"><use xlink:href="#q"/><use transform="scale(.707)" xlink:href="#j" x="692" y="-213"/></g><use xlink:href="#r" x="6353"/><g transform="translate(6803)"><use xlink:href="#q"/><use transform="scale(.707)" xlink:href="#l" x="692" y="-213"/></g><use xlink:href="#k" x="7750"/><g transform="translate(8199)"><use xlink:href="#q"/><use transform="scale(.707)" xlink:href="#m" x="692" y="-213"/></g><use xlink:href="#o" x="9147"/><use xlink:href="#k" x="9652"/><use xlink:href="#s" x="10433"/><use xlink:href="#t" x="11154"/><use xlink:href="#g" x="11735"/><use xlink:href="#u" x="12206"/><use xlink:href="#g" x="12662"/><g transform="translate(13465)"><use xlink:href="#q"/><use transform="scale(.707)" xlink:href="#j" x="692" y="-213"/></g><use xlink:href="#v" x="14690"/><use xlink:href="#m" x="15751"/><use xlink:href="#b" x="16256"/><g transform="translate(16650)"><use xlink:href="#i"/><use transform="scale(.707)" xlink:href="#l" x="718" y="-213"/></g><use xlink:href="#w" x="17837"/><g transform="translate(18842)"><use xlink:href="#i"/><use transform="scale(.707)" xlink:href="#j" x="718" y="-213"/></g><use xlink:href="#d" x="19807"/><use xlink:href="#k" x="20201"/><g transform="translate(20983)"><use xlink:href="#q"/><use transform="scale(.707)" xlink:href="#l" x="692" y="-213"/></g><use xlink:href="#v" x="22208"/><use xlink:href="#m" x="23269"/><use xlink:href="#b" x="23774"/><g transform="translate(24168)"><use xlink:href="#i"/><use transform="scale(.707)" xlink:href="#m" x="718" y="-213"/></g><use xlink:href="#w" x="25355"/><g transform="translate(26360)"><use xlink:href="#i"/><use transform="scale(.707)" xlink:href="#l" x="718" y="-213"/></g><use xlink:href="#d" x="27325"/><use xlink:href="#k" x="27719"/><g transform="translate(28501)"><use xlink:href="#q"/><use transform="scale(.707)" xlink:href="#m" x="692" y="-213"/></g><use xlink:href="#v" x="29726"/><use xlink:href="#m" x="30787"/><use xlink:href="#b" x="31292"/><g transform="translate(31686)"><use xlink:href="#i"/><use transform="scale(.707)" xlink:href="#n" x="718" y="-213"/></g><use xlink:href="#w" x="32873"/><g transform="translate(33878)"><use xlink:href="#i"/><use transform="scale(.707)" xlink:href="#m" x="718" y="-213"/></g><use xlink:href="#d" x="34843"/></g></g></svg>