<!--
\left \{ \begin{matrix}
tangent_x(t) = B'_x(t) \\
tangent_y(t) = B'_y(t)
\end{matrix} \right.
-->
<svg xmlns:xlink="http://www.w3.org/1999/xlink" width="23ex" height="6.167ex" style="vertical-align: -2.5ex; margin-left: 0ex; margin-right: 0ex; margin-bottom: 1px; margin-top: 1px;" viewBox="0 -1594.6 9934.1 2689.2" xmlns="http://www.w3.org/2000/svg">
<defs>
<path stroke-width="10" id="E1-LATINMODERNMAIN-7B" d="M425 -238c0 -7 -5 -12 -12 -12c-105 0 -196 52 -196 125v250c0 58 -55 113 -130 113c-7 0 -12 5 -12 12s5 12 12 12c75 0 130 55 130 113v250c0 73 91 125 196 125c7 0 12 -5 12 -12s-5 -12 -12 -12c-75 0 -130 -49 -130 -101v-250c0 -58 -48 -104 -115 -125 c67 -21 115 -67 115 -125v-250c0 -52 55 -101 130 -101c7 0 12 -5 12 -12Z"></path>
<path stroke-width="10" id="E1-LATINMODERNNORMAL-1D461" d="M330 420c0 -20 -10 -20 -30 -20h-94l-74 -295c-4 -17 -6 -24 -6 -48c0 -33 10 -46 31 -46c34 0 87 24 130 128c5 11 6 14 15 14c4 0 12 0 12 -10c0 -8 -57 -154 -159 -154c-54 0 -92 38 -92 92c0 18 4 35 76 319h-88c-20 0 -28 0 -28 12c0 19 10 19 30 19h94l39 159 c9 35 37 36 40 36c17 0 29 -10 29 -27c0 -6 -5 -26 -41 -168h88c18 0 28 0 28 -11Z"></path>
<path stroke-width="10" id="E1-LATINMODERNNORMAL-1D44E" d="M498 143c0 0 -13 -63 -30 -99c-16 -32 -39 -55 -74 -55c-48 0 -83 33 -91 75c-60 -71 -110 -75 -130 -75c-78 0 -133 66 -133 160c0 146 124 293 241 293c45 0 74 -27 92 -64c3 22 18 44 42 44c17 0 29 -10 29 -27c0 -4 0 -6 -7 -34l-36 -140l-22 -90 c-11 -44 -13 -52 -13 -74c0 -20 3 -46 30 -46c41 0 59 59 76 124c3 14 4 18 14 18c3 0 12 0 12 -10zM361 332c0 6 -14 88 -79 88c-40 0 -85 -37 -116 -96c-23 -46 -55 -169 -55 -219c0 -39 14 -94 64 -94c28 0 69 16 113 71c15 17 15 19 20 37l50 196c1 5 3 11 3 17Z"></path>
<path stroke-width="10" id="E1-LATINMODERNNORMAL-1D45B" d="M571 143c0 -8 -37 -154 -131 -154c-47 0 -82 35 -82 82c0 11 1 23 10 46c16 43 65 171 65 233c0 33 -9 70 -54 70c-95 0 -148 -91 -163 -122l-13 -50c-5 -23 -11 -45 -17 -67l-22 -90c-6 -25 -18 -72 -19 -74c-7 -20 -25 -28 -37 -28c-15 0 -29 9 -29 27c0 5 6 28 9 43 l58 231c13 52 16 63 16 84c0 33 -11 46 -31 46c-36 0 -56 -48 -73 -119c-6 -22 -7 -23 -17 -23c0 0 -12 0 -12 10c0 4 14 63 30 97c10 18 29 57 75 57s87 -31 92 -87c17 23 66 87 156 87c72 0 115 -40 115 -107c0 -57 -42 -167 -61 -220c-9 -22 -18 -46 -18 -71 c0 -23 7 -33 24 -33c49 0 82 56 102 124c5 15 5 18 15 18c3 0 12 0 12 -10Z"></path>
<path stroke-width="10" id="E1-LATINMODERNNORMAL-1D454" d="M474 395c0 -7 -2 -12 -3 -18l-111 -444c-15 -60 -87 -138 -212 -138c-96 0 -133 20 -133 61c0 40 32 58 54 58c27 0 38 -19 38 -35c0 -17 -11 -43 -41 -52c28 -9 61 -10 80 -10c106 0 140 99 144 108l33 132l-1 1c-10 -11 -57 -58 -116 -58c-72 0 -133 59 -133 158 c0 144 124 284 238 284c40 0 75 -26 93 -63c4 36 31 43 41 43c17 0 29 -10 29 -27zM392 334c0 5 -14 86 -80 86c-42 0 -85 -40 -112 -89c-27 -51 -56 -169 -56 -217c0 -40 15 -92 65 -92c29 0 60 18 81 36c22 19 45 44 51 70l48 191c1 4 3 10 3 15Z"></path>
<path stroke-width="10" id="E1-LATINMODERNNORMAL-1D452" d="M430 107c0 -12 -84 -118 -227 -118c-98 0 -157 79 -157 181c0 175 151 272 262 272c69 0 107 -41 107 -85c0 -14 -5 -73 -75 -103c-50 -21 -124 -23 -153 -23h-53c-15 -61 -16 -92 -16 -104c0 -32 9 -116 87 -116c12 0 121 0 200 99c6 8 8 10 13 10c6 0 12 -7 12 -13z M382 357c0 34 -27 63 -74 63c-26 0 -129 -15 -168 -167h41c41 0 201 0 201 104Z"></path>
<path stroke-width="10" id="E1-LATINMODERNNORMAL-1D465" d="M527 376c0 -40 -32 -58 -54 -58c-27 0 -38 19 -38 35c0 24 20 49 48 54c-21 13 -45 13 -50 13c-70 0 -93 -92 -99 -118l-34 -137c-11 -44 -17 -66 -17 -88c0 -34 16 -66 55 -66c32 0 100 24 133 131c2 7 4 11 13 11c3 0 12 0 12 -10c0 -25 -57 -154 -160 -154 c-60 0 -96 39 -108 76c-3 -6 -39 -76 -105 -76c-44 0 -94 20 -94 66c0 32 25 58 55 58c15 0 37 -8 37 -35c0 -28 -22 -49 -47 -54c21 -13 44 -13 50 -13c44 0 79 42 95 104c37 140 54 207 54 238c0 58 -35 67 -54 67c-34 0 -100 -25 -134 -131c-2 -9 -5 -11 -13 -11 c0 0 -12 0 -12 10c0 25 57 154 161 154c29 0 83 -10 108 -76c12 23 47 76 105 76c34 0 93 -14 93 -66Z"></path>
<path stroke-width="10" id="E1-LATINMODERNMAIN-28" d="M332 -238c0 -5 -5 -10 -10 -10c-2 0 -4 1 -6 2c-110 83 -215 283 -215 454v84c0 171 105 371 215 454c2 1 4 2 6 2c5 0 10 -5 10 -10c0 -3 -2 -6 -4 -8c-104 -78 -173 -278 -173 -438v-84c0 -160 69 -360 173 -438c2 -2 4 -5 4 -8Z"></path>
<path stroke-width="10" id="E1-LATINMODERNMAIN-29" d="M288 208c0 -171 -105 -371 -215 -454c-2 -1 -4 -2 -6 -2c-5 0 -10 5 -10 10c0 3 2 6 4 8c104 78 173 278 173 438v84c0 160 -69 360 -173 438c-2 2 -4 5 -4 8c0 5 5 10 10 10c2 0 4 -1 6 -2c110 -83 215 -283 215 -454v-84Z"></path>
<path stroke-width="10" id="E1-LATINMODERNMAIN-3D" d="M722 347c0 -11 -9 -20 -20 -20h-626c-11 0 -20 9 -20 20s9 20 20 20h626c11 0 20 -9 20 -20zM722 153c0 -11 -9 -20 -20 -20h-626c-11 0 -20 9 -20 20s9 20 20 20h626c11 0 20 -9 20 -20Z"></path>
<path stroke-width="10" id="E1-LATINMODERNNORMAL-1D435" d="M756 545c0 -95 -105 -169 -209 -188c97 -11 155 -69 155 -141c0 -98 -118 -216 -276 -216h-357c-18 0 -27 0 -27 11c0 20 10 20 27 20c79 0 81 8 91 47l134 537c3 12 4 15 4 19c0 13 -9 14 -27 16c-17 2 -38 2 -38 2c-19 0 -28 0 -28 11c0 20 10 20 29 20h336 c120 0 186 -64 186 -138zM665 549c0 44 -21 103 -109 103h-129c-43 0 -45 -3 -54 -38l-62 -248h146c122 0 208 95 208 183zM609 227c0 43 -19 117 -115 117h-189l-69 -279c-5 -18 -5 -20 -5 -23c0 -8 3 -9 13 -10c6 -1 8 -1 22 -1h136c118 0 207 97 207 196Z"></path>
<path stroke-width="10" id="E1-LATINMODERNMAIN-2032" d="M251 710c0 -7 -2 -14 -6 -19l-158 -261h-27l120 297c4 11 18 21 33 21c21 0 38 -17 38 -38Z"></path>
<path stroke-width="10" id="E1-LATINMODERNNORMAL-1D466" d="M490 404c0 -7 0 -9 -4 -23l-96 -382c-28 -113 -131 -204 -234 -204c-62 0 -106 37 -106 87c0 49 33 65 56 65c10 0 37 -4 37 -35c0 -19 -10 -32 -20 -41c-14 -12 -27 -12 -43 -12c17 -39 62 -42 76 -42c46 0 84 29 110 63c40 53 52 102 65 154c-28 -28 -62 -45 -101 -45 c-59 0 -122 30 -122 119c0 47 18 104 58 210c7 19 17 45 17 70c0 32 -17 32 -25 32c-34 0 -74 -30 -101 -124c-5 -16 -6 -18 -16 -18c0 0 -12 0 -12 10c0 9 37 154 132 154c50 0 82 -37 82 -82c0 -20 -4 -31 -20 -72c-34 -88 -51 -150 -51 -196c0 -37 11 -81 62 -81 c66 0 109 70 113 85l45 180l20 80c4 18 12 49 14 54c9 15 25 21 35 21c15 0 29 -9 29 -27Z"></path>
<path stroke-width="10" id="E1-LATINMODERNSIZE6-7B" d="M648 -928c0 -12 -10 -22 -22 -22c-2 0 -4 0 -6 1c-155 48 -292 176 -292 299v600c0 110 -87 241 -210 279c-9 3 -16 11 -16 21s7 18 16 21c123 38 210 169 210 279v600c0 123 137 251 292 299c2 1 4 1 6 1c12 0 22 -10 22 -22c0 -10 -7 -18 -16 -21 c-122 -38 -210 -159 -210 -257v-600c0 -120 -107 -240 -237 -300c130 -60 237 -180 237 -300v-600c0 -98 88 -219 210 -257c9 -3 16 -11 16 -21Z"></path>
</defs>
<g stroke="currentColor" fill="currentColor" stroke-width="0" transform="matrix(1 0 0 -1 0 0)">
 <use xlink:href="#E1-LATINMODERNSIZE6-7B"></use>
<g transform="translate(922,0)">
<g transform="translate(-11,0)">
<g transform="translate(0,780)">
 <use xlink:href="#E1-LATINMODERNNORMAL-1D461" x="0" y="0"></use>
 <use xlink:href="#E1-LATINMODERNNORMAL-1D44E" x="366" y="0"></use>
 <use xlink:href="#E1-LATINMODERNNORMAL-1D45B" x="900" y="0"></use>
 <use xlink:href="#E1-LATINMODERNNORMAL-1D454" x="1505" y="0"></use>
 <use xlink:href="#E1-LATINMODERNNORMAL-1D452" x="1987" y="0"></use>
 <use xlink:href="#E1-LATINMODERNNORMAL-1D45B" x="2458" y="0"></use>
<g transform="translate(3063,0)">
 <use xlink:href="#E1-LATINMODERNNORMAL-1D461" x="0" y="0"></use>
 <use transform="scale(0.707)" xlink:href="#E1-LATINMODERNNORMAL-1D465" x="517" y="-213"></use>
</g>
 <use xlink:href="#E1-LATINMODERNMAIN-28" x="3937" y="0"></use>
 <use xlink:href="#E1-LATINMODERNNORMAL-1D461" x="4331" y="0"></use>
 <use xlink:href="#E1-LATINMODERNMAIN-29" x="4697" y="0"></use>
 <use xlink:href="#E1-LATINMODERNMAIN-3D" x="5368" y="0"></use>
<g transform="translate(6429,0)">
 <use xlink:href="#E1-LATINMODERNNORMAL-1D435" x="0" y="0"></use>
 <use transform="scale(0.707)" xlink:href="#E1-LATINMODERNMAIN-2032" x="1080" y="0"></use>
 <use transform="scale(0.707)" xlink:href="#E1-LATINMODERNNORMAL-1D465" x="1080" y="-350"></use>
</g>
 <use xlink:href="#E1-LATINMODERNMAIN-28" x="7701" y="0"></use>
 <use xlink:href="#E1-LATINMODERNNORMAL-1D461" x="8095" y="0"></use>
 <use xlink:href="#E1-LATINMODERNMAIN-29" x="8461" y="0"></use>
</g>
<g transform="translate(57,-682)">
 <use xlink:href="#E1-LATINMODERNNORMAL-1D461" x="0" y="0"></use>
 <use xlink:href="#E1-LATINMODERNNORMAL-1D44E" x="366" y="0"></use>
 <use xlink:href="#E1-LATINMODERNNORMAL-1D45B" x="900" y="0"></use>
 <use xlink:href="#E1-LATINMODERNNORMAL-1D454" x="1505" y="0"></use>
 <use xlink:href="#E1-LATINMODERNNORMAL-1D452" x="1987" y="0"></use>
 <use xlink:href="#E1-LATINMODERNNORMAL-1D45B" x="2458" y="0"></use>
<g transform="translate(3063,0)">
 <use xlink:href="#E1-LATINMODERNNORMAL-1D461" x="0" y="0"></use>
 <use transform="scale(0.707)" xlink:href="#E1-LATINMODERNNORMAL-1D466" x="517" y="-213"></use>
</g>
 <use xlink:href="#E1-LATINMODERNMAIN-28" x="3879" y="0"></use>
 <use xlink:href="#E1-LATINMODERNNORMAL-1D461" x="4273" y="0"></use>
 <use xlink:href="#E1-LATINMODERNMAIN-29" x="4639" y="0"></use>
 <use xlink:href="#E1-LATINMODERNMAIN-3D" x="5310" y="0"></use>
<g transform="translate(6371,0)">
 <use xlink:href="#E1-LATINMODERNNORMAL-1D435" x="0" y="0"></use>
 <use transform="scale(0.707)" xlink:href="#E1-LATINMODERNMAIN-2032" x="1080" y="0"></use>
 <use transform="scale(0.707)" xlink:href="#E1-LATINMODERNNORMAL-1D466" x="1080" y="-350"></use>
</g>
 <use xlink:href="#E1-LATINMODERNMAIN-28" x="7585" y="0"></use>
 <use xlink:href="#E1-LATINMODERNNORMAL-1D461" x="7979" y="0"></use>
 <use xlink:href="#E1-LATINMODERNMAIN-29" x="8345" y="0"></use>
</g>
</g>
</g>
</g>
</svg>