<svg xmlns="http://www.w3.org/2000/svg" xmlns:xlink="http://www.w3.org/1999/xlink" width="173pt" height="16pt" viewBox="0 0 173 16"><defs><symbol overflow="visible" id="a"><path d="M6.813-8.5a14.129 14.129 0 0 0-.829-.031L3.172-8.5l-2.047-.047-.063.61.797.03c.297 0 .282-.03.282.173 0 .187-.032.53-.11.921L.984-.78c-.03.203-.046.156-.687.25l-.11.578L2.204 0l2.688.031C5.92.031 5.67.016 6.266 0l.062-.563c.063-.5.156-1 .266-1.625h-.578l-.235.844c-.11.422-.062.438-.312.5-.235.063-1.078.11-1.797.11-.5 0-.813 0-1.438-.063 0-.031 0-.156.032-.297L2.75-4h1.297c1.5 0 1.203.047 1.64.063l.282-.688-.11-.219-2.687.094H2.89l.484-2.719c.031-.187.016-.187.047-.25.594-.031.297-.031 1.484-.047.766 0 1.125-.03 1.125.157l.11 1.187h.546c.047-.89.125-1.484.297-2.062zm0 0"/></symbol><symbol overflow="visible" id="b"><path d="M4.203-7.828a.735.735 0 0 1-.187-.14c-.063-.063-.11-.126-.22-.329-1.593 1.61-2.5 3.266-2.5 4.781v.797c0 1.516.907 3.172 2.5 4.781.11-.203.157-.265.22-.328.062-.062.125-.109.312-.203C2.875.063 2.281-1.344 2.281-2.719v-.797c0-1.39.594-2.78 2.047-4.25zm0 0"/></symbol><symbol overflow="visible" id="c"><path d="M7.781-8.219c-.922-.344-1.593-.484-2.328-.484-.984 0-2.078.344-2.906.89C1.14-6.859.39-5.358.39-3.53c0 2.328 1.421 3.75 3.703 3.75C5.25.219 6.187-.094 7.28-.844l.157-.578-.266-.187c-1.234.765-1.75.921-2.672.921-1.89 0-2.781-1.015-2.781-3.14 0-1.328.375-2.406 1.11-3.156.546-.563 1.218-.829 2.171-.829.86 0 1.36.141 2 .547v1.063h.578c.078-.813.172-1.328.36-1.953zm0 0"/></symbol><symbol overflow="visible" id="d"><path d="M3.766-2.719v-.797c0-1.515-.907-3.171-2.516-4.78-.11.202-.156.265-.203.327-.063.063-.125.11-.313.203 1.438 1.47 2.032 2.86 2.032 4.25v.797c0 1.375-.594 2.781-2.032 4.25.188.094.25.14.313.203.047.063.094.125.203.329C2.86.452 3.766-1.204 3.766-2.72zm0 0"/></symbol><symbol overflow="visible" id="e"><path d="M8.266-4.078a1.419 1.419 0 0 1-.047-.36c0-.109.015-.234.062-.484h-7.5c.063.25.063.375.063.484 0 .125 0 .235-.063.5h7.5zm0 2.625a1.332 1.332 0 0 1-.047-.36c0-.109.015-.234.062-.484h-7.5c.063.25.063.375.063.485 0 .125 0 .25-.063.5h7.5zm0 0"/></symbol><symbol overflow="visible" id="f"><path d="M7.234-6.594c0-1.218-1.265-1.937-2.312-1.937-.547 0-1.094.031-1.64.031l-2.126-.047-.062.61.812.03c.297 0 .282-.03.282.188 0 .172-.047.532-.11.907l-.89 5.187C1-.531 1.125-.641.64-.594l-.61.031-.093.61L1.688 0l1.78.047.063-.61-.922-.03c-.312-.016-.296.015-.296-.235 0-.11 0-.188.046-.422l.97-5.813-.032.094s.078-.343.14-.578c.016-.062.047-.172.063-.203.328-.063.516-.094.75-.094 1.219 0 1.656.39 1.656 1.516 0 1.281-.718 2.203-1.765 2.203-.266 0-.5-.063-1.11-.281l.047.625c.578.281.813.344 1.172.344 1.531 0 2.984-1.532 2.984-3.157zm0 0"/></symbol><symbol overflow="visible" id="g"><path d="M8.266-2.766a1.332 1.332 0 0 1-.047-.359c0-.11.015-.234.062-.484h-7.5c.063.25.063.375.063.484 0 .125 0 .25-.063.5h7.5zm0 0"/></symbol><symbol overflow="visible" id="h"><path d="M8.89-8.469H.798l.172 2.703.797-.093-.032-.516c-.03-.563.735-1.297 1.5-1.297h.36c.047.297.11.969.11 1.39V-1.5c0 .672.108.656-.22.672l-.718.047V0h4.171v-.781l-.703-.047C5.922-.844 6-.828 6-1.5v-4.781c0-.453.063-1.094.11-1.39h.374c.766 0 1.657.718 1.625 1.28l-.046.532.812.093.156-2.703zm-.656.625l-.03.594.233-.094a4.519 4.519 0 0 0-.624-.593l-.094.234h.5zm-6.28-.093a3.545 3.545 0 0 0-.548.53l.235.11-.032-.406h.454zm3.359.125c-.063.53-.11 1.125-.11 1.53V-1.5c0 .375.016.656.016.719h-.735C4.5-.844 4.5-1.125 4.5-1.5v-4.781c0-.407-.047-.985-.094-1.39h.89zm0 0"/></symbol><symbol overflow="visible" id="i"><path d="M11.234-8.531c-.328.015-.671.031-1 .031-.343 0-.671-.016-1.078-.047-.25.485-.031.172-1.047 1.906L5.172-1.594l.25.094-1.844-7.047c-.422.031-.75.047-1.094.047-.328 0-.671-.016-1.125-.047l-.062.61.469.03c.625.048.703.032.703.345a.693.693 0 0 1-.047.234L.687-1.25C.516-.625.47-.594-.327-.531l-.047.578L1.109 0C1.547 0 2 .016 2.547.047l.062-.594-.593-.047c-.391-.047-.47-.015-.47-.187 0-.125.032-.281.095-.5l1.484-5.547h-.281L4.656.219h.453l.72-1.282 2.843-4.953.625-1.03-.235-.095-.437 6.204c-.031.343-.047.28-.672.343l-.5.047-.047.594L9.156 0l1.703.047.063-.594-.578-.047C9.906-.64 9.813-.64 9.828-.89l.016-.437.484-6.344c.016-.234.078-.219.422-.234l.563-.032.062-.609zm0 0"/></symbol><symbol overflow="visible" id="j"><path d="M6.219-6.39L3.5-6.376.625-6.391.422-4.67h.562l.188-.673c.047-.187.078-.234.125-.297.062-.062.328-.078.687-.078h.891l-.797 4.485c-.14.796-.015.703-.406.718l-.64.032L.968.03 2.516 0l1.421.031.047-.515-.718-.032c-.266 0-.204.063-.204-.125 0-.093 0-.125.032-.312l.89-4.766h.579c.75 0 .937-.093.968.016.032.062.047.234.047.328l-.062.703h.578l.297-1.734zm0 0"/></symbol></defs><use xlink:href="#a" x=".365" y="13.082"/><use xlink:href="#b" x="7.67" y="13.082"/><use xlink:href="#c" x="12.739" y="13.082"/><use xlink:href="#d" x="20.844" y="13.082"/><use xlink:href="#e" x="29.237" y="13.082"/><use xlink:href="#b" x="41.646" y="13.082"/><use xlink:href="#f" x="46.715" y="13.082"/><use xlink:href="#g" x="56.805" y="13.082"/><use xlink:href="#h" x="68.546" y="13.082"/><use xlink:href="#i" x="78.397" y="13.082"/><use xlink:href="#c" x="89.969" y="13.082"/><use xlink:href="#d" x="98.087" y="13.082"/><use xlink:href="#j" x="103.167" y="6.696"/><use xlink:href="#b" x="112.121" y="13.082"/><use xlink:href="#f" x="117.19" y="13.082"/><g><use xlink:href="#g" x="127.28" y="13.082"/></g><g><use xlink:href="#h" x="139.02" y="13.082"/><use xlink:href="#i" x="148.871" y="13.082"/></g><g><use xlink:href="#c" x="160.444" y="13.082"/></g><g><use xlink:href="#d" x="168.561" y="13.082"/></g></svg>