<svg xmlns="http://www.w3.org/2000/svg" xmlns:xlink="http://www.w3.org/1999/xlink" width="300" height="82pt" viewBox="0 0 225 82"><defs><symbol overflow="visible" id="a"><path d="M6.14-1.016l-.109-.218-.312.203c-.36.234-.61.36-.735.36-.078 0-.156-.11-.156-.235 0-.063.016-.188.031-.235l.782-3.312a4.47 4.47 0 0 0 .125-.875c0-.281-.125-.438-.36-.438-.5 0-1.328.454-2.031 1.11-.453.422-.797.828-1.422 1.703l.469-1.922c.047-.219.062-.36.062-.484 0-.266-.093-.407-.265-.407-.266 0-.719.266-1.594.891l-.344.234.094.235.375-.25c.438-.282.484-.297.563-.297.14 0 .218.125.218.297 0 .61-.484 2.922-.984 4.625l.094.14c.296-.078.562-.156.828-.203.234-1.515.484-2.281 1.031-3.11.656-1 1.547-1.75 2.078-1.75.125 0 .203.11.203.298 0 .203-.031.453-.125.843L4.031-1.28c-.11.437-.156.718-.156.906 0 .297.125.484.36.484.312 0 .734-.25 1.906-1.125zm0 0"/></symbol><symbol overflow="visible" id="b"><path d="M2.39-2.984c0-.438-.28-.72-.718-.72-.422 0-.719.282-.719.72 0 .421.297.718.719.718.437 0 .719-.296.719-.718zm0 0"/></symbol><symbol overflow="visible" id="c"><path d="M6.688-6.719c0-.984-.97-1.547-1.891-1.547-.594 0-1.203.032-1.797.032l-1.813-.032-.03.329.64.03c.281 0 .422.095.422.313 0 .172-.063.547-.11.907L1.063-.657c-.032.22-.188.298-.688.376L.312.03C.672.016 1.047 0 1.407 0c.64 0 1.266.031 1.922.031.563 0 1.125-.125 1.688-.469.953-.546 1.468-1.375 1.468-2.28 0-.516-.156-.907-.484-1.173-.313-.25-.672-.359-1.5-.468.688-.25.969-.391 1.36-.72.53-.484.827-1.03.827-1.64zm-1.25 4.203c0 1.22-.875 2.11-2.063 2.11-.25 0-.594-.016-.984-.047a2.223 2.223 0 0 0-.407-.031l.61-3.579h1.015c1.235 0 1.829.5 1.829 1.547zM5.655-6.5c0 1.25-.89 2-2.375 2h-.61l.579-3.266c.328 0 .64-.062.953-.062.969 0 1.453.422 1.453 1.328zm0 0"/></symbol><symbol overflow="visible" id="h"><path d="M4.11-7.61a.735.735 0 0 1-.188-.14c-.063-.063-.11-.11-.14-.188-1.47 1.47-2.345 3.032-2.345 4.563v.781c0 1.516.875 3.078 2.344 4.547a.735.735 0 0 1 .14-.187.735.735 0 0 1 .188-.141C2.781.281 2.156-1.203 2.156-2.594v-.781c0-1.39.625-2.89 1.953-4.234zm0 0"/></symbol><symbol overflow="visible" id="i"><path d="M3.703-5.266c-.453.047-.86.079-1.312.079.187-1.125.328-1.704.53-2.36l-.124-.172c-.235.14-.563.282-.938.422l-.296 2.031c-.516.25-.829.391-1.047.454l-.032.156H1.5L.828-1.281c-.062.297-.156.593-.156.906 0 .297.125.484.36.484.421 0 .827-.234 1.765-1 .219-.156.14-.109.375-.296l-.125-.22-.531.376c-.36.25-.594.36-.735.36-.093 0-.156-.095-.156-.235 0-.313.14-1.25.516-3.016l.156-.734h1.281zm0 0"/></symbol><symbol overflow="visible" id="j"><path d="M3.64-2.594v-.781c0-1.531-.874-3.094-2.343-4.563-.047.079-.094.125-.156.188a.427.427 0 0 1-.188.14c1.328 1.344 1.969 2.844 1.969 4.235v.781c0 1.39-.64 2.875-1.969 4.219.078.031.14.078.188.14.062.063.109.126.156.188C2.766.484 3.64-1.078 3.64-2.594zm0 0"/></symbol><symbol overflow="visible" id="k"><path d="M8.36-4.594c0-.672-.313-1.172-.75-1.172a.545.545 0 0 0-.391.141l-.594.563.125.234a.55.55 0 0 1 .328-.11c.328 0 .516.282.516.75 0 1.735-1.157 3.72-2.172 3.72-.36 0-.61-.47-.61-1.141a8.2 8.2 0 0 1 .25-1.86l.625-2.203-.078-.094-.89.266-.344 1.781a5.727 5.727 0 0 1-.656 1.86C3.234-.953 2.78-.47 2.422-.47c-.406 0-.688-.469-.688-1.156 0-1.422.485-2.578 1.672-3.922l-.125-.219c-.234.11-.39.141-.719.141-.5 0-.984-.047-1.468-.078-.157-.016-.25.031-.39.078-.173.328-.298.766-.454 1.422h.266l.203-.5c.078-.203.328-.344.61-.344.218 0 .437.031.671.031.25 0 .406-.015.703-.046-.11.156-.234.28-.36.421C1.267-3.375.86-2.516.86-1.5c0 .969.422 1.625 1.047 1.625.766 0 1.39-.656 2.282-2.36-.11.532-.141.829-.141 1.094 0 .766.344 1.266.875 1.266.969 0 2.219-1.203 2.969-2.844.265-.594.468-1.39.468-1.875zm0 0"/></symbol><symbol overflow="visible" id="m"><path d="M8.125-2.625c-.016-.125-.031-.25-.031-.36 0-.124.015-.25.031-.359H4.906v-3.234c-.125.031-.25.047-.36.047-.124 0-.25-.016-.359-.047v3.234H.954c.031.11.031.235.031.36 0 .109 0 .234-.03.359h3.234V.594c.109-.016.234-.031.359-.031.11 0 .234.015.36.03v-3.218zm0 0"/></symbol><symbol overflow="visible" id="n"><path d="M8.125-2.625c-.016-.125-.031-.25-.031-.36 0-.124.015-.25.031-.359H.953c.031.11.031.235.031.36 0 .109 0 .234-.03.359zm0 0"/></symbol><symbol overflow="visible" id="q"><path d="M2.188-.64c0-.344-.329-.688-.704-.688-.359 0-.687.344-.687.687 0 .36.328.704.672.704.39 0 .718-.329.718-.704zm0 0"/></symbol><symbol overflow="visible" id="d"><path d="M5.047-.75l-.11-.156-.234.14c-.297.172-.5.266-.594.266-.062 0-.125-.078-.125-.172 0-.047 0-.14.016-.172l.64-2.453c.063-.25.094-.5.094-.64 0-.204-.093-.329-.28-.329-.407 0-1.079.344-1.657.829-.36.312-.625.609-1.125 1.25l.36-1.422c.046-.157.062-.266.062-.36 0-.187-.078-.297-.219-.297-.203 0-.578.204-1.281.657l-.281.171.078.188.312-.188c.344-.218.375-.218.453-.218.094 0 .172.078.172.219 0 .453-.406 2.156-.797 3.421l.063.094c.25-.062.469-.11.687-.156.172-1.11.39-1.688.828-2.297.532-.734 1.235-1.281 1.672-1.281.094 0 .156.078.156.203 0 .156-.015.344-.093.625L3.328-.953c-.078.328-.125.531-.125.672 0 .234.11.36.297.36.25 0 .594-.188 1.547-.829zm0 0"/></symbol><symbol overflow="visible" id="e"><path d="M6.016-1.953a1.368 1.368 0 0 1-.032-.25c0-.094.016-.188.032-.266H.703c.016.078.031.172.031.266 0 .078-.015.172-.03.25zm0 0"/></symbol><symbol overflow="visible" id="f"><path d="M4.125.031v-.265l-.516-.032c-.515-.03-.625-.125-.625-.578v-5.25L2.86-6.14c-.625.297-1.312.563-2.203.86l.078.375h.094l1.25-.516.031-.016c.047 0 .079.094.079.297v4.297c0 .453-.11.547-.626.578l-.546.032V.03L2.594 0zm0 0"/></symbol><symbol overflow="visible" id="g"><path d="M2.188-.969l-.141-.125-.938.266C1.047-.156.813.422.234 1.282l.141.093.39-.172C1.563.281 1.923-.28 2.188-.969zm0 0"/></symbol><symbol overflow="visible" id="l"><path d="M4.578-3.234c0-1.938-.64-2.86-1.953-2.86-1.5 0-2.25 1.094-2.25 3.235C.375-1.83.563-.938.906-.5c.344.422.875.672 1.469.672 1.469 0 2.203-1.14 2.203-3.406zm-.812.437c0 1.89-.375 2.672-1.25 2.672-.938 0-1.344-.906-1.344-3.063 0-1.859.36-2.593 1.281-2.593.938 0 1.313.86 1.313 2.984zm0 0"/></symbol><symbol overflow="visible" id="o"><path d="M4.594.031c-.016-.187-.016-.281-.016-.406 0-.11 0-.203.016-.39l-3.328.078 1.75-1.704c.937-.906 1.234-1.39 1.234-2.062 0-1.016-.75-1.64-1.984-1.64-.688 0-1.172.171-1.641.624L.469-4.266H.75l.11-.406c.171-.516.515-.734 1.156-.734.828 0 1.359.468 1.359 1.218 0 .672-.406 1.329-1.484 2.391L.234-.203V.03L2.391 0zm0 0"/></symbol><symbol overflow="visible" id="p"><path d="M4.547-1.984c0-.422-.203-.797-.547-1.016-.234-.156-.469-.234-.938-.313.766-.546 1.063-.953 1.063-1.468 0-.797-.719-1.313-1.797-1.313-.64 0-1.078.172-1.547.594L.5-4.406h.313l.156-.5c.11-.297.719-.594 1.219-.594.624 0 1.14.469 1.14 1.031 0 .657-.562 1.219-1.25 1.219-.078 0-.453-.031-.453-.031l-.125.469.078.046c.36-.14.547-.187.797-.187.813 0 1.266.469 1.266 1.265 0 .907-.579 1.5-1.485 1.5-.437 0-.828-.124-1.125-.374C.813-.766.671-.97.5-1.438l-.266.078C.437-.813.516-.5.563-.047c.515.156.937.219 1.296.219.782 0 1.657-.39 2.188-.984.328-.36.5-.75.5-1.172zm0 0"/></symbol></defs><use xlink:href="#a" x=".687" y="8.745"/><use xlink:href="#b" x="9.988" y="8.745"/><use xlink:href="#c" x="15.99" y="8.745"/><use xlink:href="#d" x="23.3" y="11.518"/><use xlink:href="#e" x="28.838" y="11.518"/><use xlink:href="#f" x="35.562" y="11.518"/><use xlink:href="#g" x="40.56" y="11.518"/><use xlink:href="#e" x="43.143" y="11.518"/><use xlink:href="#f" x="49.867" y="11.518"/><use xlink:href="#h" x="55.363" y="8.745"/><use xlink:href="#i" x="60.432" y="8.745"/><use xlink:href="#j" x="64.473" y="8.745"/><use xlink:href="#b" x="72.196" y="8.745"/><use xlink:href="#k" x="78.197" y="8.745"/><use xlink:href="#l" x="86.835" y="11.518"/><use xlink:href="#m" x="102.295" y="8.745"/><use xlink:href="#a" x=".687" y="23.19"/><use xlink:href="#b" x="9.988" y="23.19"/><use xlink:href="#c" x="15.99" y="23.19"/><use xlink:href="#d" x="23.3" y="25.964"/><use xlink:href="#e" x="28.838" y="25.964"/><use xlink:href="#f" x="35.562" y="25.964"/><use xlink:href="#g" x="40.56" y="25.964"/><use xlink:href="#l" x="43.143" y="25.964" fill="#00f"/><use xlink:href="#h" x="48.64" y="23.19"/><use xlink:href="#i" x="53.709" y="23.19"/><use xlink:href="#j" x="57.738" y="23.19"/><use xlink:href="#b" x="65.473" y="23.19"/><use xlink:href="#k" x="71.474" y="23.19"/><use xlink:href="#f" x="80.112" y="25.964"/><use xlink:href="#n" x="102.295" y="23.19"/><use xlink:href="#a" x="121.34" y="23.19"/><use xlink:href="#b" x="130.641" y="23.19"/><use xlink:href="#c" x="136.642" y="23.19"/><use xlink:href="#d" x="143.956" y="25.964"/><use xlink:href="#e" x="149.494" y="25.964"/><use xlink:href="#f" x="156.218" y="25.964"/><use xlink:href="#g" x="161.216" y="25.964"/><use xlink:href="#l" x="163.8" y="25.964" fill="#00f"/><use xlink:href="#h" x="169.296" y="23.19"/><use xlink:href="#i" x="174.365" y="23.19"/><use xlink:href="#j" x="178.406" y="23.19"/><use xlink:href="#b" x="186.129" y="23.19"/><use xlink:href="#k" x="192.13" y="23.19"/><use xlink:href="#l" x="200.768" y="25.964"/><use xlink:href="#m" x="216.227" y="23.19"/><use xlink:href="#a" x=".687" y="37.636"/><use xlink:href="#b" x="9.988" y="37.636"/><use xlink:href="#c" x="15.99" y="37.636"/><use xlink:href="#d" x="23.3" y="40.41"/><use xlink:href="#e" x="28.838" y="40.41"/><use xlink:href="#f" x="35.562" y="40.41"/><use xlink:href="#g" x="40.56" y="40.41"/><use xlink:href="#f" x="43.143" y="40.41" fill="red"/><use xlink:href="#h" x="48.64" y="37.636"/><use xlink:href="#i" x="53.709" y="37.636"/><use xlink:href="#j" x="57.738" y="37.636"/><use xlink:href="#b" x="65.473" y="37.636"/><use xlink:href="#k" x="71.474" y="37.636"/><use xlink:href="#o" x="80.112" y="40.41"/><use xlink:href="#n" x="102.295" y="37.636"/><use xlink:href="#a" x="121.34" y="37.636"/><use xlink:href="#b" x="130.641" y="37.636"/><use xlink:href="#c" x="136.642" y="37.636"/><use xlink:href="#d" x="143.956" y="40.41"/><use xlink:href="#e" x="149.494" y="40.41"/><use xlink:href="#f" x="156.218" y="40.41"/><use xlink:href="#g" x="161.216" y="40.41"/><use xlink:href="#f" x="163.8" y="40.41" fill="red"/><use xlink:href="#h" x="169.296" y="37.636"/><use xlink:href="#i" x="174.365" y="37.636"/><use xlink:href="#j" x="178.406" y="37.636"/><use xlink:href="#b" x="186.129" y="37.636"/><use xlink:href="#k" x="192.13" y="37.636"/><use xlink:href="#f" x="200.768" y="40.41"/><use xlink:href="#m" x="216.227" y="37.636"/><use xlink:href="#a" x=".687" y="52.082"/><use xlink:href="#b" x="9.988" y="52.082"/><use xlink:href="#c" x="15.99" y="52.082"/><use xlink:href="#d" x="23.3" y="54.856"/><use xlink:href="#e" x="28.838" y="54.856"/><use xlink:href="#f" x="35.562" y="54.856"/><use xlink:href="#g" x="40.56" y="54.856"/><use xlink:href="#o" x="43.143" y="54.856" fill="#ec008c"/><use xlink:href="#h" x="48.64" y="52.082"/><use xlink:href="#i" x="53.709" y="52.082"/><use xlink:href="#j" x="57.738" y="52.082"/><use xlink:href="#b" x="65.473" y="52.082"/><use xlink:href="#k" x="71.474" y="52.082"/><g><use xlink:href="#p" x="80.112" y="54.856"/></g><g><use xlink:href="#n" x="102.295" y="52.082"/></g><g><use xlink:href="#a" x="121.34" y="52.082"/></g><g><use xlink:href="#b" x="130.641" y="52.082"/></g><g><use xlink:href="#c" x="136.642" y="52.082"/></g><g><use xlink:href="#d" x="143.956" y="54.856"/><use xlink:href="#e" x="149.494" y="54.856"/><use xlink:href="#f" x="156.218" y="54.856"/><use xlink:href="#g" x="161.216" y="54.856"/></g><g fill="#ec008c"><use xlink:href="#o" x="163.8" y="54.856"/></g><g><use xlink:href="#h" x="169.296" y="52.082"/><use xlink:href="#i" x="174.365" y="52.082"/></g><g><use xlink:href="#j" x="178.406" y="52.082"/></g><g><use xlink:href="#b" x="186.129" y="52.082"/></g><g><use xlink:href="#k" x="192.13" y="52.082"/></g><g><use xlink:href="#o" x="200.768" y="54.856"/></g><g><use xlink:href="#m" x="216.227" y="52.082"/></g><g><use xlink:href="#q" x=".687" y="66.528"/><use xlink:href="#q" x="3.676" y="66.528"/><use xlink:href="#q" x="6.665" y="66.528"/></g><g><use xlink:href="#n" x="102.295" y="66.528"/></g><g><use xlink:href="#a" x="121.34" y="66.528"/></g><g><use xlink:href="#b" x="130.641" y="66.528"/></g><g><use xlink:href="#c" x="136.642" y="66.528"/></g><g><use xlink:href="#d" x="143.956" y="69.302"/><use xlink:href="#e" x="149.494" y="69.302"/><use xlink:href="#f" x="156.218" y="69.302"/><use xlink:href="#g" x="161.216" y="69.302"/><use xlink:href="#p" x="163.799" y="69.302"/></g><g><use xlink:href="#h" x="169.296" y="66.528"/><use xlink:href="#i" x="174.365" y="66.528"/></g><g><use xlink:href="#j" x="178.406" y="66.528"/></g><g><use xlink:href="#b" x="186.129" y="66.528"/></g><g><use xlink:href="#k" x="192.13" y="66.528"/></g><g><use xlink:href="#p" x="200.768" y="69.302"/></g><g><use xlink:href="#m" x="216.227" y="66.528"/></g><g><use xlink:href="#q" x=".687" y="80.974"/><use xlink:href="#q" x="3.676" y="80.974"/><use xlink:href="#q" x="6.665" y="80.974"/></g></svg>