<svg xmlns="http://www.w3.org/2000/svg" xmlns:xlink="http://www.w3.org/1999/xlink" width="307pt" height="60" viewBox="0 0 307 45"><defs><symbol overflow="visible" id="a"><path d="M.625-3.75c.707-.02 1.27-.39 1.688-1.11.414-.718.624-1.812.624-3.28 0-.696-.124-1.926-.374-3.688-.243-1.77-.36-3.223-.36-4.36 0-2.675.395-4.832 1.188-6.468.8-1.633 1.914-2.594 3.343-2.875v.578c-.5.125-.953.398-1.359.812-.406.407-.758.95-1.047 1.625-.293.68-.516 1.48-.672 2.407-.156.918-.234 1.953-.234 3.109 0 .898.113 2.328.344 4.297.238 1.96.359 3.203.359 3.734 0 1.512-.246 2.746-.734 3.703-.48.961-.985 1.547-1.516 1.766v.14c.531.22 1.035.81 1.516 1.766.488.961.734 2.192.734 3.703 0 .282-.121 1.57-.36 3.875-.23 2.313-.343 3.696-.343 4.157 0 1.164.07 2.203.219 3.109.156.914.379 1.719.671 2.406.313.696.665 1.242 1.063 1.64.406.407.86.673 1.36.798v.593c-1.274-.167-2.344-1.042-3.22-2.625-.874-1.585-1.312-3.632-1.312-6.14 0-1.024.117-2.586.36-4.688.25-2.093.374-3.414.374-3.953 0-1.426-.21-2.508-.624-3.25-.418-.75-.981-1.129-1.688-1.14zm0 0"/></symbol><symbol overflow="visible" id="b"><path d="M5.328-4.094c.363.149.645.356.844.625.195.262.297.563.297.906 0 .524-.121.965-.36 1.329-.242.367-.601.664-1.078.89-.48.23-1.18.344-2.093.344H.328l.078-.281a.872.872 0 0 0 .328-.125.7.7 0 0 0 .188-.219 1.95 1.95 0 0 0 .14-.344c.04-.133.102-.394.188-.781l1-4.516c.082-.382.125-.691.125-.921 0-.188-.047-.317-.14-.391-.087-.07-.227-.117-.422-.14L1.875-8h2.89c.594 0 1.063.063 1.407.188.351.125.613.308.781.546.164.23.25.528.25.891 0 .512-.156.96-.469 1.344-.312.375-.777.668-1.39.875zm-1.61-.312c.458 0 .821-.035 1.095-.11.269-.082.507-.218.718-.406a1.72 1.72 0 0 0 .453-.625c.094-.226.141-.492.141-.797 0-.164-.031-.32-.094-.468a.822.822 0 0 0-.297-.375 1.444 1.444 0 0 0-.5-.22 2.783 2.783 0 0 0-.734-.077c-.344 0-.664.007-.953.015L2.89-4.406zM2.048-.546c.226.023.52.03.875.03.594 0 1.035-.066 1.328-.203.3-.133.555-.375.766-.719.218-.343.328-.765.328-1.265 0-.395-.133-.692-.39-.89-.25-.196-.638-.298-1.157-.298H2.766zm0 0"/></symbol><symbol overflow="visible" id="d"><path d="M.875-3.047v-.781h7.219v.781zm0 0"/></symbol><symbol overflow="visible" id="e"><path d="M6.984-7.797l-.343 1.594h-.563c-.031-.477-.14-.82-.328-1.031-.18-.22-.46-.329-.844-.329-.543 0-1.047.274-1.515.813-.461.531-.825 1.242-1.094 2.125-.274.887-.406 1.71-.406 2.469 0 .594.101 1.031.312 1.312.219.281.547.422.985.422.289 0 .546-.039.765-.125.219-.094.422-.242.61-.453.195-.207.39-.5.578-.875h.562l-.36 1.656c-.73.211-1.495.313-2.296.313-.742 0-1.305-.207-1.688-.625C.984-.957.797-1.578.797-2.391c0-.57.098-1.234.297-1.984.207-.75.5-1.406.875-1.969.375-.57.816-1.004 1.328-1.297.508-.3 1.07-.453 1.687-.453.352 0 .68.024.985.063.3.043.64.12 1.015.234zm0 0"/></symbol><symbol overflow="visible" id="f"><path d="M.875-4.25v-.781h7.219v.781zm0 2.422v-.781h7.219v.78zm7.469-1.594zm0 0"/></symbol><symbol overflow="visible" id="g"><path d="M4.406-4.203c0-.29-.023-.504-.062-.64a.542.542 0 0 0-.203-.298.705.705 0 0 0-.391-.093c-.398 0-.75.156-1.063.468-.312.313-.57.762-.765 1.344a5.036 5.036 0 0 0-.297 1.656c0 .399.078.696.234.891.157.188.391.281.704.281.351 0 .66-.066.921-.203.258-.133.532-.348.813-.64l.36.359c-.368.406-.735.703-1.11.89a2.658 2.658 0 0 1-1.203.282c-.563 0-.996-.164-1.297-.5-.293-.332-.438-.82-.438-1.469 0-.414.079-.875.235-1.375.156-.5.383-.938.687-1.313a2.91 2.91 0 0 1 1.047-.859 3.05 3.05 0 0 1 1.297-.281c.52 0 1 .062 1.438.187L5.03-4.203zm0 0"/></symbol><symbol overflow="visible" id="h"><path d="M2.563.094c-.618 0-1.09-.164-1.422-.5-.336-.344-.5-.832-.5-1.469 0-.313.046-.672.14-1.078a4.079 4.079 0 0 1 .61-1.453c.289-.414.644-.735 1.062-.953a2.827 2.827 0 0 1 1.375-.344c.625 0 1.098.172 1.422.516.332.343.5.835.5 1.468 0 .461-.078.95-.234 1.469-.157.512-.375.945-.657 1.297a2.675 2.675 0 0 1-.984.781 3.138 3.138 0 0 1-1.313.266zm-.891-1.719c0 .43.086.746.266.953.175.211.445.313.812.313.375 0 .707-.172 1-.516.3-.344.535-.82.703-1.438.176-.624.266-1.171.266-1.64 0-.426-.086-.742-.25-.953-.157-.219-.414-.328-.766-.328-.406 0-.762.171-1.062.515-.305.344-.543.836-.72 1.469-.167.625-.25 1.168-.25 1.625zm0 0"/></symbol><symbol overflow="visible" id="i"><path d="M4.422-4.172c-.043-.351-.156-.617-.344-.797-.187-.176-.48-.265-.875-.265-.312 0-.57.078-.765.234a.776.776 0 0 0-.282.625.85.85 0 0 0 .078.375c.051.105.149.227.297.36.145.124.375.28.688.468a4.5 4.5 0 0 1 .594.406c.144.125.257.25.343.375a.943.943 0 0 1 .188.375c.039.137.062.297.062.485 0 .343-.093.64-.281.89-.18.25-.43.438-.75.563a3.153 3.153 0 0 1-1.078.172c-.324 0-.64-.028-.953-.078A6.29 6.29 0 0 1 .297-.22L.578-1.5h.453c.02.375.125.664.313.86.195.187.508.28.937.28.375 0 .664-.081.875-.25.207-.163.313-.398.313-.703 0-.175-.031-.328-.094-.453a1.186 1.186 0 0 0-.297-.375 4.756 4.756 0 0 0-.625-.437 6.084 6.084 0 0 1-.719-.5 1.413 1.413 0 0 1-.375-.485 1.337 1.337 0 0 1-.125-.593c0-.313.082-.582.25-.813.164-.238.399-.422.704-.547a2.887 2.887 0 0 1 1.078-.187c.363 0 .695.027 1 .078.3.043.597.117.89.219l-.265 1.234zm0 0"/></symbol><symbol overflow="visible" id="j"><path d="M5.297-13.328l.203.469c-1.043.68-1.86 1.84-2.453 3.484-.594 1.637-.89 3.621-.89 5.953 0 2.281.288 4.25.874 5.906C3.625 4.141 4.445 5.313 5.5 6l-.203.469c-1.305-.657-2.34-1.883-3.11-3.672-.773-1.793-1.156-3.867-1.156-6.235 0-2.382.383-4.46 1.157-6.234.769-1.77 1.804-2.988 3.109-3.656zm0 0"/></symbol><symbol overflow="visible" id="m"><path d="M.578-13.328c1.3.668 2.336 1.887 3.11 3.656.78 1.774 1.171 3.852 1.171 6.235 0 2.367-.39 4.44-1.171 6.234-.774 1.789-1.81 3.015-3.11 3.672L.391 6C1.43 5.312 2.25 4.14 2.844 2.484c.594-1.656.89-3.625.89-5.906 0-2.332-.296-4.316-.89-5.953C2.25-11.02 1.43-12.18.39-12.859zm0 0"/></symbol><symbol overflow="visible" id="o"><path d="M3.313-7.906l-.266 1.14H2l.281-1.14zM1.421-3.953c.094-.383.14-.676.14-.875 0-.176-.042-.297-.125-.36-.085-.062-.25-.097-.5-.109L1-5.609l1.438-.047h.343l-.844 3.765c-.085.387-.125.672-.125.86 0 .156.02.273.063.343.05.075.133.11.25.11a.68.68 0 0 0 .375-.14c.133-.102.32-.286.563-.548l.328.329c-.387.398-.7.667-.938.812a1.47 1.47 0 0 1-.797.219.756.756 0 0 1-.61-.281C.899-.376.829-.61.829-.891c0-.3.05-.68.156-1.14zm0 0"/></symbol><symbol overflow="visible" id="p"><path d="M1.594-3.719c.093-.375.14-.66.14-.86 0-.155-.027-.269-.078-.343-.054-.07-.136-.11-.25-.11-.117 0-.242.055-.375.157-.136.094-.324.273-.562.531L.14-4.672c.363-.375.66-.64.89-.797.239-.156.508-.234.813-.234.25 0 .441.086.578.25.144.156.219.367.219.625 0 .21-.047.445-.141.703l.078.016c.375-.54.735-.942 1.078-1.204.352-.257.711-.39 1.078-.39.364 0 .641.11.829.328.195.21.296.496.296.86 0 .25-.054.6-.156 1.046l-.39 1.547c-.106.418-.157.715-.157.89 0 .157.024.274.078.345.051.074.13.109.235.109.125 0 .25-.047.375-.14.133-.102.32-.286.562-.548l.344.329c-.344.355-.64.617-.89.78-.25.165-.532.25-.844.25a.795.795 0 0 1-.625-.265c-.149-.187-.22-.422-.22-.703 0-.25.063-.625.188-1.125l.266-1c.094-.375.156-.645.188-.813.03-.175.046-.32.046-.437 0-.27-.046-.46-.14-.578-.094-.125-.242-.188-.438-.188-.168 0-.343.07-.531.204-.188.125-.39.324-.61.593-.21.262-.382.516-.515.766-.125.25-.23.558-.313.922L1.766 0H.75zm0 0"/></symbol><symbol overflow="visible" id="q"><path d="M2.063-2.969c0 1.367.218 2.492.656 3.375.445.895 1.117 1.492 2.015 1.797l-.14.453C3.457 2.352 2.582 1.703 1.969.703c-.606-.988-.907-2.191-.907-3.61 0-1.405.301-2.609.907-3.609.613-1 1.488-1.648 2.625-1.953l.172.453c-.918.305-1.602.891-2.047 1.766-.438.867-.656 1.96-.656 3.281zm0 0"/></symbol><symbol overflow="visible" id="r"><path d="M2.906-2.969c0-1.32-.219-2.414-.656-3.281A3.389 3.389 0 0 0 .219-8.016l.156-.453c1.145.305 2.02.953 2.625 1.953.613 1 .922 2.204.922 3.61 0 1.418-.309 2.62-.922 3.61-.605 1-1.48 1.648-2.625 1.952l-.14-.453C1.14 1.898 1.812 1.301 2.25.406c.438-.883.656-2.008.656-3.375zm0 0"/></symbol><symbol overflow="visible" id="s"><path d="M1.688-4.14c.207 0 .375.07.5.202.124.126.187.297.187.516 0 .211-.063.383-.188.516a.678.678 0 0 1-.5.187c-.199 0-.359-.062-.484-.187a.722.722 0 0 1-.187-.516c0-.219.062-.39.187-.515a.636.636 0 0 1 .484-.204zm0 0"/></symbol><symbol overflow="visible" id="c"><path d="M2.328-2.125a57.17 57.17 0 0 1-.14-.625c-.043-.188-.079-.344-.11-.469a1.783 1.783 0 0 0-.11-.328.829.829 0 0 0-.093-.187.324.324 0 0 0-.11-.11.337.337 0 0 0-.14-.031.4.4 0 0 0-.14.031.29.29 0 0 0-.126.078c-.043.043-.093.102-.156.172-.055.074-.11.168-.172.281L.688-3.53C.8-3.707.905-3.86 1-3.984c.102-.125.203-.223.297-.297a.945.945 0 0 1 .297-.157c.101-.03.222-.046.36-.046.155 0 .284.039.39.109a.68.68 0 0 1 .25.297c.07.137.129.305.172.5.039.2.086.43.14.687h.063l.453-.609c.125-.164.238-.305.344-.422.101-.125.191-.223.265-.297a.939.939 0 0 1 .235-.156.87.87 0 0 1 .234-.078c.082-.02.176-.031.281-.031.145 0 .282.027.407.078l-.22.86h-.374c-.012-.126-.059-.188-.14-.188a.613.613 0 0 0-.11.015.553.553 0 0 0-.125.078 1.163 1.163 0 0 0-.188.141 2.996 2.996 0 0 0-.25.25c-.094.105-.203.23-.328.375-.117.148-.25.32-.406.516.082.406.148.73.203.968.063.243.117.43.172.563.05.125.101.21.156.25.05.043.113.062.188.062.05 0 .097-.004.14-.015a.263.263 0 0 0 .125-.078c.04-.04.086-.098.14-.172.063-.07.13-.172.204-.297l.344.219c-.137.187-.258.343-.36.468a1.481 1.481 0 0 1-.28.297.893.893 0 0 1-.298.125 1.039 1.039 0 0 1-.328.047.973.973 0 0 1-.312-.047.459.459 0 0 1-.22-.172.87.87 0 0 1-.124-.203 1.8 1.8 0 0 1-.11-.265 9.15 9.15 0 0 1-.093-.297c-.024-.102-.043-.203-.063-.297-.011-.094-.023-.172-.031-.234l-.031-.172h-.047c-.18.242-.336.449-.469.625-.125.168-.242.312-.344.437-.105.125-.199.23-.28.313a1.393 1.393 0 0 1-.25.203.904.904 0 0 1-.266.078C.727.067.633.078.53.078A.942.942 0 0 1 .141 0l.203-.86h.375c.008.137.054.204.14.204.04-.008.07-.016.094-.016a.36.36 0 0 0 .11-.062c.039-.032.093-.07.156-.125.062-.063.14-.145.234-.25.102-.114.223-.25.36-.407.144-.164.316-.367.515-.609zm0 0"/></symbol><symbol overflow="visible" id="k"><path d="M2.89-4.125c-.492.375-.867.773-1.124 1.188-.25.406-.375.812-.375 1.218 0 .387.086.688.265.907.176.21.453.343.828.406l.438-1.985c.082-.363.191-.675.328-.937.133-.27.285-.488.453-.656.176-.164.367-.29.578-.375.207-.082.422-.125.64-.125.438 0 .766.132.985.39.227.262.344.633.344 1.11 0 .43-.074.828-.219 1.203-.136.375-.34.699-.61.968a2.762 2.762 0 0 1-.968.641 3.493 3.493 0 0 1-1.266.25l-.406 1.797h-.828L2.375.047a3.303 3.303 0 0 1-.781-.203A2.2 2.2 0 0 1 1-.531a1.619 1.619 0 0 1-.36-.531 1.82 1.82 0 0 1-.124-.704c0-.488.175-.957.53-1.406.352-.457.876-.894 1.563-1.312zm.376 3.766c.363-.02.675-.11.937-.266.27-.156.492-.36.672-.61.176-.25.305-.53.39-.843a3.34 3.34 0 0 0 .141-.969c0-.094-.008-.195-.015-.312a1.111 1.111 0 0 0-.079-.313.694.694 0 0 0-.171-.25.44.44 0 0 0-.313-.11.673.673 0 0 0-.469.173 1.35 1.35 0 0 0-.296.406 2.325 2.325 0 0 0-.204.515 5.686 5.686 0 0 0-.125.532zm0 0"/></symbol><symbol overflow="visible" id="l"><path d="M3.188-.719c.132 0 .242-.004.328-.015a.498.498 0 0 0 .203-.063.386.386 0 0 0 .14-.156c.04-.07.086-.172.141-.297h.406c-.023.21-.039.418-.047.625-.011.21-.027.418-.046.625H.592v-.234C.665-.391.75-.54.844-.688c.095-.156.196-.312.313-.468.125-.164.258-.332.407-.5.144-.164.312-.344.5-.532.269-.269.488-.5.656-.687.176-.195.312-.375.406-.531.102-.156.172-.297.203-.422a1.408 1.408 0 0 0 0-.828.835.835 0 0 0-.187-.313.624.624 0 0 0-.297-.203 1.005 1.005 0 0 0-.406-.078c-.282 0-.516.074-.704.219-.18.148-.32.36-.421.64H.734v-.859a5.539 5.539 0 0 1 1.032-.328c.32-.07.609-.11.859-.11.3 0 .563.04.781.11.219.062.39.152.516.266.133.117.234.257.297.421.062.168.093.344.093.532 0 .117-.011.226-.03.328-.012.093-.04.187-.079.281a2.749 2.749 0 0 1-.156.297 2.42 2.42 0 0 1-.234.297 3.877 3.877 0 0 1-.297.328c-.118.125-.246.262-.391.406l-.438.438a16.056 16.056 0 0 0-.828.89 2.679 2.679 0 0 0-.296.375zm0 0"/></symbol><symbol overflow="visible" id="n"><path d="M2.422-.031a85.238 85.238 0 0 1-.266-1.438c-.074-.406-.14-.75-.203-1.031a8.579 8.579 0 0 0-.156-.703 2.408 2.408 0 0 0-.156-.406c-.043-.102-.09-.172-.141-.204a.21.21 0 0 0-.14-.062c-.055 0-.106.008-.157.016a.429.429 0 0 0-.14.078 1.45 1.45 0 0 0-.141.172 6.962 6.962 0 0 0-.203.296L.375-3.53c.133-.188.254-.336.36-.453a1.57 1.57 0 0 1 .312-.297c.101-.07.207-.125.312-.157.114-.03.235-.046.36-.046.101 0 .191.011.265.03a.607.607 0 0 1 .22.11.553.553 0 0 1 .155.172c.051.074.102.168.157.281.02.063.046.157.078.282.031.117.062.25.094.406a39.518 39.518 0 0 1 .188 1.125l.093.64c.031.22.054.434.078.641a7.36 7.36 0 0 0 .594-.875c.175-.289.328-.566.453-.828.125-.27.218-.508.281-.719.063-.219.094-.39.094-.515 0-.133-.04-.227-.11-.282-.062-.05-.171-.082-.328-.093l.047-.282h1.25l.156.25c-.293.73-.636 1.434-1.03 2.11A16.894 16.894 0 0 1 3.14-.094c-.22.258-.418.477-.594.656a8.174 8.174 0 0 1-.469.485 3.055 3.055 0 0 1-.39.328c-.125.082-.25.148-.375.203-.118.05-.231.086-.344.11a5 5 0 0 1-.36.046c-.074 0-.156-.011-.25-.03a1.793 1.793 0 0 1-.25-.048L.33.688h.405v.03c0 .196.079.298.235.298.219 0 .437-.086.656-.25.219-.168.484-.434.797-.797zm0 0"/></symbol><symbol overflow="visible" id="t"><path d="M3.484-3.281c-.03-.27-.12-.469-.265-.594-.137-.125-.356-.188-.656-.188a1.11 1.11 0 0 0-.329.047.69.69 0 0 0-.265.141.539.539 0 0 0-.172.203.485.485 0 0 0-.063.25c0 .094.008.18.032.25.02.063.062.133.125.203.062.063.144.133.25.203.113.075.257.157.437.25.188.106.344.204.469.297.125.094.223.196.297.297.07.094.117.2.14.313.032.105.047.226.047.359 0 .21-.043.398-.125.563a1.223 1.223 0 0 1-.36.406 1.578 1.578 0 0 1-.53.265c-.211.063-.434.094-.672.094a5.31 5.31 0 0 1-.797-.062 4.972 4.972 0 0 1-.828-.172l.218-1h.391c.008.273.094.476.25.61.156.136.399.202.734.202.29 0 .52-.062.688-.187a.63.63 0 0 0 .25-.531.972.972 0 0 0-.031-.25.493.493 0 0 0-.125-.22.878.878 0 0 0-.235-.202 6.991 6.991 0 0 0-.406-.25 4.159 4.159 0 0 1-.453-.297 2.049 2.049 0 0 1-.313-.281 1.087 1.087 0 0 1-.171-.297 1.28 1.28 0 0 1 .062-.86c.082-.156.192-.289.328-.406a1.61 1.61 0 0 1 .516-.266c.207-.062.437-.093.687-.093.282 0 .54.023.782.062.238.031.472.078.703.14l-.219 1zm0 0"/></symbol><symbol overflow="visible" id="u"><path d="M2.734-6.219l-.218.953H1.64l.218-.953zM1.672-1.516c-.043.18-.074.32-.094.422a2.143 2.143 0 0 0-.016.266c0 .117.02.2.063.25.05.043.125.062.219.062.05 0 .101-.007.156-.03.05-.02.102-.052.156-.095.063-.039.13-.093.203-.156.07-.07.157-.16.25-.265l.297.296a5.8 5.8 0 0 1-.422.391 3.12 3.12 0 0 1-.359.266 1.342 1.342 0 0 1-.656.187.796.796 0 0 1-.313-.062.756.756 0 0 1-.234-.172.715.715 0 0 1-.14-.25 1.11 1.11 0 0 1-.048-.328c0-.102.008-.223.032-.36.02-.144.046-.3.078-.468.039-.165.082-.344.125-.532.05-.187.097-.367.14-.547.04-.187.079-.363.11-.53.031-.165.054-.317.078-.454v-.078-.047A.28.28 0 0 0 1.172-4c-.074-.063-.203-.094-.39-.094l.046-.297 1.281-.046h.22zm0 0"/></symbol><symbol overflow="visible" id="v"><path d="M2.266-3.328c.289-.383.57-.672.843-.86.282-.195.567-.296.86-.296.312 0 .547.086.703.25.156.168.234.402.234.703 0 .094-.015.226-.047.39a9.338 9.338 0 0 1-.093.516c-.043.188-.09.387-.141.594a26 26 0 0 1-.125.547l-.11.437a1.343 1.343 0 0 0-.03.219c0 .117.019.2.062.25.039.043.101.062.187.062a.42.42 0 0 0 .172-.03c.051-.02.102-.052.157-.095.062-.039.128-.093.203-.156.07-.07.148-.16.234-.265l.313.296a5.473 5.473 0 0 1-.407.375c-.117.106-.23.196-.343.266a1.272 1.272 0 0 1-.688.203.763.763 0 0 1-.297-.062.61.61 0 0 1-.234-.172.903.903 0 0 1-.156-.25 1.039 1.039 0 0 1-.047-.328c0-.114.007-.25.03-.407.032-.156.071-.328.126-.515.05-.188.098-.367.14-.547.051-.176.094-.336.126-.485.03-.144.054-.273.078-.39.02-.113.03-.211.03-.297 0-.176-.038-.305-.109-.39-.062-.083-.171-.126-.328-.126a.844.844 0 0 0-.296.063 1.425 1.425 0 0 0-.297.187 2.132 2.132 0 0 0-.297.297 2.969 2.969 0 0 0-.485.735c-.062.136-.109.273-.14.406L1.594 0h-.86l.657-2.86c.039-.156.066-.288.078-.406.02-.125.031-.222.031-.296 0-.22-.086-.329-.25-.329a.573.573 0 0 0-.172.032.732.732 0 0 0-.172.109 2.231 2.231 0 0 0-.187.172 3.823 3.823 0 0 0-.235.219l-.296-.282c.144-.144.273-.27.39-.375.125-.113.238-.203.344-.265.113-.07.223-.125.328-.157a1.28 1.28 0 0 1 .344-.046c.218 0 .383.074.5.218.125.137.187.32.187.547 0 .063-.008.125-.015.188a.706.706 0 0 1-.063.187zm0 0"/></symbol><symbol overflow="visible" id="w"><path d="M1.547-2.219c0 1.024.164 1.867.5 2.531.332.665.836 1.11 1.515 1.329l-.109.343c-.867-.23-1.527-.718-1.984-1.468-.45-.739-.672-1.641-.672-2.704 0-1.05.226-1.953.687-2.703a3.13 3.13 0 0 1 1.97-1.453l.108.328c-.68.23-1.183.672-1.515 1.329-.336.656-.5 1.48-.5 2.468zm0 0"/></symbol><symbol overflow="visible" id="x"><path d="M2.188-2.219c0-.988-.168-1.812-.5-2.469A2.524 2.524 0 0 0 .171-6.016l.11-.328A3.15 3.15 0 0 1 2.25-4.89c.457.75.688 1.653.688 2.704 0 1.062-.231 1.964-.688 2.703-.45.75-1.105 1.238-1.969 1.468l-.094-.343c.676-.22 1.176-.664 1.5-1.329.333-.664.5-1.507.5-2.53zm0 0"/></symbol></defs><use xlink:href="#a" x=".359" y="26.072"/><use xlink:href="#b" x="12.45" y="16.213"/><use xlink:href="#c" x="19.245" y="18.653"/><use xlink:href="#d" x="27.772" y="16.213"/><use xlink:href="#e" x="39.357" y="16.213"/><use xlink:href="#c" x="45.793" y="18.653"/><use xlink:href="#f" x="54.984" y="16.213"/><use xlink:href="#g" x="67.226" y="16.213"/><use xlink:href="#h" x="73.108" y="16.213"/><use xlink:href="#i" x="79.743" y="16.213"/><use xlink:href="#j" x="87.506" y="16.219"/><use xlink:href="#k" x="94.562" y="9.208"/><path d="M94.563 12.797h6.746" fill="none" stroke-width=".776" stroke="#000" stroke-miterlimit="10"/><use xlink:href="#l" x="95.42" y="22.225"/><use xlink:href="#m" x="102.505" y="16.219"/><use xlink:href="#d" x="111.023" y="16.213"/><use xlink:href="#g" x="122.608" y="16.213"/><use xlink:href="#h" x="128.478" y="16.213"/><use xlink:href="#i" x="135.113" y="16.213"/><use xlink:href="#l" x="140.888" y="11.835"/><use xlink:href="#j" x="148.411" y="16.219"/><use xlink:href="#k" x="155.467" y="9.208"/><path d="M155.469 12.797h6.746" fill="none" stroke-width=".776" stroke="#000" stroke-miterlimit="10"/><use xlink:href="#l" x="156.325" y="22.225"/><use xlink:href="#m" x="163.41" y="16.219"/><use xlink:href="#b" x="12.45" y="35.932"/><use xlink:href="#n" x="19.245" y="38.372"/><use xlink:href="#d" x="28.12" y="35.932"/><use xlink:href="#e" x="39.705" y="35.932"/><use xlink:href="#n" x="46.141" y="38.372"/><use xlink:href="#f" x="55.68" y="35.932"/><use xlink:href="#i" x="67.922" y="35.932"/><use xlink:href="#o" x="73.696" y="35.932"/><use xlink:href="#p" x="77.869" y="35.932"/><use xlink:href="#j" x="86.924" y="35.938"/><use xlink:href="#k" x="93.98" y="28.927"/><path d="M93.98 32.516h6.747" fill="none" stroke-width=".776" stroke="#000" stroke-miterlimit="10"/><use xlink:href="#l" x="94.838" y="41.944"/><use xlink:href="#m" x="101.923" y="35.938"/><use xlink:href="#d" x="110.441" y="35.932"/><use xlink:href="#g" x="122.026" y="35.932"/><use xlink:href="#h" x="127.896" y="35.932"/><use xlink:href="#i" x="134.531" y="35.932"/><use xlink:href="#q" x="140.305" y="35.932"/><use xlink:href="#k" x="146.463" y="28.927"/><path d="M146.465 32.516h6.746" fill="none" stroke-width=".776" stroke="#000" stroke-miterlimit="10"/><use xlink:href="#l" x="147.321" y="41.944"/><use xlink:href="#r" x="154.407" y="35.932"/><use xlink:href="#s" x="162.022" y="35.932"/><use xlink:href="#i" x="168.048" y="35.932"/><use xlink:href="#o" x="173.81" y="35.932"/><use xlink:href="#p" x="177.983" y="35.932"/><use xlink:href="#j" x="187.047" y="35.938"/><use xlink:href="#k" x="194.104" y="28.927"/><path d="M194.105 32.516h6.747" fill="none" stroke-width=".776" stroke="#000" stroke-miterlimit="10"/><use xlink:href="#l" x="194.961" y="41.944"/><use xlink:href="#m" x="202.047" y="35.938"/><use xlink:href="#f" x="211.228" y="35.932"/><use xlink:href="#i" x="223.47" y="35.932"/><use xlink:href="#o" x="229.244" y="35.932"/><use xlink:href="#p" x="233.417" y="35.932"/><use xlink:href="#j" x="242.472" y="35.938"/><use xlink:href="#k" x="249.528" y="28.927"/><path d="M249.527 32.516h6.75" fill="none" stroke-width=".776" stroke="#000" stroke-miterlimit="10"/><use xlink:href="#l" x="250.386" y="41.944"/><use xlink:href="#m" x="257.472" y="35.938"/><use xlink:href="#d" x="265.989" y="35.932"/><use xlink:href="#t" x="278.773" y="28.927"/><use xlink:href="#u" x="283.156" y="28.927"/><use xlink:href="#v" x="286.504" y="28.927"/><use xlink:href="#w" x="292.297" y="28.927"/><use xlink:href="#k" x="295.906" y="28.927"/><use xlink:href="#x" x="302.654" y="28.927"/><path d="M278.773 32.516h27.497" fill="none" stroke-width=".776" stroke="#000" stroke-miterlimit="10"/><g><use xlink:href="#l" x="290.005" y="41.944"/></g></svg>