<svg xmlns="http://www.w3.org/2000/svg" xmlns:xlink="http://www.w3.org/1999/xlink" width="324" height="112" viewBox="0 0 243 84"><defs><symbol overflow="visible" id="a"><path d="M5.328-4.094c.363.149.645.356.844.625.195.262.297.563.297.906 0 .524-.121.965-.36 1.329-.242.367-.601.664-1.078.89-.48.23-1.18.344-2.093.344H.328l.078-.281a.872.872 0 0 0 .328-.125.7.7 0 0 0 .188-.219 1.95 1.95 0 0 0 .14-.344c.04-.133.102-.394.188-.781l1-4.516c.082-.382.125-.691.125-.921 0-.188-.047-.317-.14-.391-.087-.07-.227-.117-.422-.14L1.875-8h2.89c.594 0 1.063.063 1.407.188.351.125.613.308.781.546.164.23.25.528.25.891 0 .512-.156.96-.469 1.344-.312.375-.777.668-1.39.875zm-1.61-.312c.458 0 .821-.035 1.095-.11.269-.082.507-.218.718-.406a1.72 1.72 0 0 0 .453-.625c.094-.226.141-.492.141-.797 0-.164-.031-.32-.094-.468a.822.822 0 0 0-.297-.375 1.444 1.444 0 0 0-.5-.22 2.783 2.783 0 0 0-.734-.077c-.344 0-.664.007-.953.015L2.89-4.406zM2.048-.546c.226.023.52.03.875.03.594 0 1.035-.066 1.328-.203.3-.133.555-.375.766-.719.218-.343.328-.765.328-1.265 0-.395-.133-.692-.39-.89-.25-.196-.638-.298-1.157-.298H2.766zm0 0"/></symbol><symbol overflow="visible" id="c"><path d="M2.063-2.969c0 1.367.218 2.492.656 3.375.445.895 1.117 1.492 2.015 1.797l-.14.453C3.457 2.352 2.582 1.703 1.969.703c-.606-.988-.907-2.191-.907-3.61 0-1.405.301-2.609.907-3.609.613-1 1.488-1.648 2.625-1.953l.172.453c-.918.305-1.602.891-2.047 1.766-.438.867-.656 1.96-.656 3.281zm0 0"/></symbol><symbol overflow="visible" id="d"><path d="M4.078-1.11c-.344.407-.672.712-.984.907a1.8 1.8 0 0 1-.985.297C1.285.094.875-.316.875-1.141c0-.257.035-.535.11-.828l.687-3.047H.688l.093-.406c.227 0 .399-.016.516-.047a.839.839 0 0 0 .297-.125.671.671 0 0 0 .218-.234c.07-.102.141-.234.204-.39.062-.157.156-.43.28-.829h.798L2.78-5.609h1.781l-.125.593h-1.78l-.532 2.282c-.105.437-.172.757-.203.953a3.79 3.79 0 0 0-.031.468c0 .481.203.72.609.72.164 0 .344-.063.531-.188.196-.133.43-.36.703-.672zm0 0"/></symbol><symbol overflow="visible" id="e"><path d="M2.906-2.969c0-1.32-.219-2.414-.656-3.281A3.389 3.389 0 0 0 .219-8.016l.156-.453c1.145.305 2.02.953 2.625 1.953.613 1 .922 2.204.922 3.61 0 1.418-.309 2.62-.922 3.61-.605 1-1.48 1.648-2.625 1.952l-.14-.453C1.14 1.898 1.812 1.301 2.25.406c.438-.883.656-2.008.656-3.375zm0 0"/></symbol><symbol overflow="visible" id="f"><path d="M.875-4.25v-.781h7.219v.781zm0 2.422v-.781h7.219v.78zm7.469-1.594zm0 0"/></symbol><symbol overflow="visible" id="g"><path d="M2.094.094A.473.473 0 0 1 1.797 0a.612.612 0 0 1-.188-.219 1.458 1.458 0 0 1-.093-.36 3.058 3.058 0 0 1-.032-.484c0-.218.016-.453.047-.703.032-.257.067-.515.11-.765l.234-1.625c.02-.094.035-.18.047-.266.008-.082.016-.144.016-.187a.633.633 0 0 0-.063-.297.215.215 0 0 0-.203-.125.452.452 0 0 0-.234.078 1.782 1.782 0 0 0-.266.172 2.132 2.132 0 0 0-.25.218 5.272 5.272 0 0 1-.235.22l-.28-.329c.124-.125.253-.242.39-.36.133-.124.273-.234.422-.327.156-.102.316-.188.484-.25a1.57 1.57 0 0 1 .531-.094c.145 0 .266.027.36.078a.513.513 0 0 1 .219.188c.05.085.085.171.109.265.02.094.031.188.031.281 0 .055-.008.106-.015.157a.7.7 0 0 1-.016.14l-.328 2.125-.094.656a5.07 5.07 0 0 0-.031.563c0 .168.008.305.031.406.02.094.055.14.11.14.132 0 .296-.05.484-.155.195-.102.398-.243.61-.422a5.28 5.28 0 0 0 .655-.64c.22-.25.41-.52.579-.813.175-.29.316-.594.421-.907a3.2 3.2 0 0 0 .157-.968c0-.145-.032-.254-.094-.329-.055-.07-.149-.109-.281-.109a.689.689 0 0 0-.454.188 3.03 3.03 0 0 0-.421.5l-.344-.297c.094-.145.203-.282.328-.407a3.4 3.4 0 0 1 .406-.328c.145-.101.29-.18.438-.234.156-.063.304-.094.453-.094.281 0 .484.074.61.219.124.148.187.34.187.578 0 .188-.04.406-.11.656a4.505 4.505 0 0 1-.28.766 7.536 7.536 0 0 1-.423.828 9.012 9.012 0 0 1-1.203 1.578c-.23.242-.469.45-.719.625-.25.168-.507.305-.765.406-.25.102-.5.157-.75.157zm0 0"/></symbol><symbol overflow="visible" id="i"><path d="M4.078-1.531c0 .23.008.402.031.515a.68.68 0 0 0 .141.282.572.572 0 0 0 .266.171c.125.043.273.075.453.094.187.024.43.04.734.047V0H1.375v-.422A8.17 8.17 0 0 0 2.297-.5c.187-.04.328-.094.422-.156a.516.516 0 0 0 .219-.281c.05-.125.078-.32.078-.594v-4.75c0-.157-.032-.27-.094-.344a.282.282 0 0 0-.235-.11c-.124 0-.304.07-.53.204-.231.125-.516.304-.86.531l-.25-.453 2.734-1.64h.328a27.34 27.34 0 0 0-.03 1.562zm0 0"/></symbol><symbol overflow="visible" id="j"><path d="M.875-3.047v-.781h7.219v.781zm0 0"/></symbol><symbol overflow="visible" id="l"><path d="M4.906-3.047V.328h-.843v-3.375H.874v-.781h3.188v-3.375h.843v3.375h3.188v.781zm0 0"/></symbol><symbol overflow="visible" id="m"><path d="M4.11-.938c.195 0 .35-.007.468-.03a.85.85 0 0 0 .281-.126.55.55 0 0 0 .172-.203c.04-.094.094-.234.157-.422h.484L5.578 0H.75v-.281c.176-.406.406-.82.688-1.25.28-.438.687-.946 1.218-1.532.446-.5.77-.878.969-1.14.219-.281.379-.52.484-.719.114-.207.192-.398.235-.578.05-.188.078-.367.078-.547 0-.3-.047-.562-.14-.781a1.13 1.13 0 0 0-.438-.531c-.188-.125-.43-.188-.719-.188-.742 0-1.234.406-1.484 1.219H.937v-1.125c.47-.227.907-.39 1.313-.484.414-.102.79-.157 1.125-.157.719 0 1.266.164 1.64.485.376.312.563.773.563 1.375 0 .21-.023.402-.062.578-.043.18-.11.351-.204.515a3.255 3.255 0 0 1-.359.547c-.148.2-.308.399-.484.594-.18.2-.485.531-.922 1-.75.793-1.297 1.48-1.64 2.063zm0 0"/></symbol><symbol overflow="visible" id="o"><path d="M1.828-1.36V0H.641v-1.36zm0 0"/></symbol><symbol overflow="visible" id="b"><path d="M2.625-4.656v.343L1.172-.796.656-.953 1.5-4.656zm0 0"/></symbol><symbol overflow="visible" id="h"><path d="M3.219-1.156v.234c.008.063.02.121.031.172a.252.252 0 0 0 .047.11c.02.03.047.058.078.078.04.042.086.074.14.093.063.012.133.028.22.047.093.012.203.024.328.031.132 0 .289.008.468.016V0H1.047v-.375c.176-.008.32-.016.437-.016.125-.007.227-.02.313-.03L2-.47a.53.53 0 0 0 .125-.062 1.36 1.36 0 0 0 .11-.094.237.237 0 0 0 .062-.11c.02-.05.035-.109.047-.171a2.25 2.25 0 0 0 .015-.25v-3.157c0-.113-.023-.19-.062-.234a.233.233 0 0 0-.188-.078c-.093 0-.23.047-.406.14-.18.094-.406.235-.687.423-.043-.07-.079-.141-.11-.204-.031-.07-.07-.14-.11-.203.364-.195.724-.394 1.079-.593l1.094-.594h.265a5.867 5.867 0 0 0-.015.437v.719zm0 0"/></symbol><symbol overflow="visible" id="k"><path d="M3.188-.719c.132 0 .242-.004.328-.015a.498.498 0 0 0 .203-.063.386.386 0 0 0 .14-.156c.04-.07.086-.172.141-.297h.406c-.023.21-.039.418-.047.625-.011.21-.027.418-.046.625H.592v-.234C.665-.391.75-.54.844-.688c.095-.156.196-.312.313-.468.125-.164.258-.332.407-.5.144-.164.312-.344.5-.532.269-.269.488-.5.656-.687.176-.195.312-.375.406-.531.102-.156.172-.297.203-.422a1.408 1.408 0 0 0 0-.828.835.835 0 0 0-.187-.313.624.624 0 0 0-.297-.203 1.005 1.005 0 0 0-.406-.078c-.282 0-.516.074-.704.219-.18.148-.32.36-.421.64H.734v-.859a5.539 5.539 0 0 1 1.032-.328c.32-.07.609-.11.859-.11.3 0 .563.04.781.11.219.062.39.152.516.266.133.117.234.257.297.421.062.168.093.344.093.532 0 .117-.011.226-.03.328-.012.093-.04.187-.079.281a2.749 2.749 0 0 1-.156.297 2.42 2.42 0 0 1-.234.297 3.877 3.877 0 0 1-.297.328c-.118.125-.246.262-.391.406l-.438.438a16.056 16.056 0 0 0-.828.89 2.679 2.679 0 0 0-.296.375zm0 0"/></symbol><symbol overflow="visible" id="n"><path d="M.75-4.375v-.875c.352-.145.68-.254.984-.328.301-.07.594-.11.875-.11.239 0 .457.028.657.079.207.043.382.117.53.218.157.106.274.235.36.391.082.148.125.32.125.516 0 .187-.027.355-.078.5a1.297 1.297 0 0 1-.25.39c-.117.117-.25.219-.406.313-.156.094-.34.187-.547.281v.047c.195.031.379.09.547.172.164.074.312.172.437.297.133.117.239.25.313.406.07.156.11.328.11.515 0 .231-.048.45-.141.657-.086.199-.215.37-.391.515a1.94 1.94 0 0 1-.656.344c-.25.082-.547.125-.89.125-.282 0-.563-.027-.845-.078a7.375 7.375 0 0 1-.796-.219v-.953h.562c.05.149.11.274.172.375a.983.983 0 0 0 .219.266c.093.062.195.11.312.14.113.024.238.032.375.032.383 0 .672-.086.86-.266.195-.176.296-.445.296-.813 0-.394-.132-.69-.39-.89-.25-.195-.633-.297-1.14-.297h-.376v-.422c.3-.02.563-.062.781-.125.227-.07.414-.164.563-.281.156-.113.27-.25.344-.406.07-.157.109-.317.109-.485 0-.281-.086-.5-.25-.656-.168-.164-.406-.25-.719-.25-.273 0-.5.074-.687.219-.18.148-.313.367-.407.656zm0 0"/></symbol></defs><use xlink:href="#a" x=".684" y="10.745"/><use xlink:href="#b" x="8.85" y="6.366"/><use xlink:href="#c" x="12.448" y="10.745"/><use xlink:href="#d" x="17.409" y="10.745"/><use xlink:href="#e" x="22.419" y="10.745"/><use xlink:href="#f" x="30.704" y="10.745"/><use xlink:href="#g" x="42.958" y="10.745"/><use xlink:href="#h" x="48.756" y="13.185"/><use xlink:href="#c" x="54.287" y="10.745"/><use xlink:href="#i" x="59.248" y="10.745"/><use xlink:href="#j" x="68.526" y="10.745"/><use xlink:href="#d" x="80.11" y="10.745"/><use xlink:href="#e" x="85.119" y="10.745"/><use xlink:href="#k" x="90.083" y="6.366"/><use xlink:href="#l" x="98.27" y="10.745"/><use xlink:href="#m" x="109.855" y="10.745"/><use xlink:href="#g" x="116.478" y="10.745"/><use xlink:href="#k" x="122.281" y="13.185"/><use xlink:href="#c" x="127.811" y="10.745"/><use xlink:href="#i" x="132.772" y="10.745"/><use xlink:href="#j" x="142.05" y="10.745"/><use xlink:href="#d" x="153.634" y="10.745"/><use xlink:href="#e" x="158.643" y="10.745"/><use xlink:href="#d" x="163.605" y="10.745"/><use xlink:href="#l" x="171.28" y="10.745"/><use xlink:href="#g" x="182.865" y="10.745"/><use xlink:href="#n" x="188.663" y="13.185"/><use xlink:href="#d" x="194.194" y="10.745"/><use xlink:href="#k" x="199.085" y="6.366"/><use xlink:href="#o" x="20.025" y="28.179"/><use xlink:href="#o" x="22.476" y="28.179"/><use xlink:href="#o" x="24.927" y="28.179"/><use xlink:href="#f" x="30.689" y="28.179"/><use xlink:href="#g" x="42.943" y="28.179"/><use xlink:href="#h" x="48.756" y="30.619"/><use xlink:href="#c" x="54.287" y="28.179"/><use xlink:href="#d" x="59.248" y="28.179"/><use xlink:href="#k" x="64.14" y="23.801"/><use xlink:href="#j" x="72.327" y="28.179"/><use xlink:href="#m" x="83.912" y="28.179"/><use xlink:href="#d" x="90.535" y="28.179"/><use xlink:href="#l" x="98.198" y="28.179"/><use xlink:href="#i" x="109.795" y="28.179"/><use xlink:href="#e" x="116.418" y="28.179"/><use xlink:href="#l" x="124.033" y="28.179"/><use xlink:href="#m" x="135.618" y="28.179"/><use xlink:href="#g" x="142.241" y="28.179"/><use xlink:href="#k" x="148.037" y="30.619"/><use xlink:href="#c" x="153.567" y="28.179"/><use xlink:href="#d" x="158.528" y="28.179"/><use xlink:href="#j" x="166.192" y="28.179"/><use xlink:href="#d" x="177.776" y="28.179"/><use xlink:href="#k" x="182.674" y="23.801"/><use xlink:href="#e" x="188.204" y="28.179"/><use xlink:href="#l" x="195.819" y="28.179"/><use xlink:href="#g" x="207.404" y="28.179"/><use xlink:href="#n" x="213.213" y="30.619"/><use xlink:href="#d" x="218.744" y="28.179"/><use xlink:href="#k" x="223.635" y="23.801"/><use xlink:href="#o" x="20.025" y="45.614"/><use xlink:href="#o" x="22.476" y="45.614"/><use xlink:href="#o" x="24.927" y="45.614"/><use xlink:href="#f" x="30.689" y="45.614"/><use xlink:href="#g" x="42.943" y="45.614"/><use xlink:href="#h" x="48.756" y="48.054"/><use xlink:href="#d" x="54.286" y="45.614"/><use xlink:href="#k" x="59.178" y="41.236"/><use xlink:href="#j" x="67.365" y="45.614"/><use xlink:href="#m" x="78.95" y="45.614"/><use xlink:href="#g" x="85.573" y="45.614"/><use xlink:href="#h" x="91.376" y="48.054"/><use xlink:href="#d" x="96.906" y="45.614"/><use xlink:href="#l" x="104.569" y="45.614"/><use xlink:href="#g" x="116.154" y="45.614"/><use xlink:href="#h" x="121.962" y="48.054"/><use xlink:href="#l" x="130.149" y="45.614"/><use xlink:href="#m" x="141.734" y="45.614"/><use xlink:href="#g" x="148.357" y="45.614"/><use xlink:href="#k" x="154.159" y="48.054"/><use xlink:href="#d" x="159.689" y="45.614"/><use xlink:href="#j" x="167.352" y="45.614"/><use xlink:href="#m" x="178.937" y="45.614"/><use xlink:href="#g" x="185.56" y="45.614"/><use xlink:href="#k" x="191.365" y="48.054"/><use xlink:href="#d" x="196.895" y="45.614"/><use xlink:href="#k" x="201.787" y="41.236"/><use xlink:href="#l" x="209.974" y="45.614"/><use xlink:href="#g" x="221.559" y="45.614"/><use xlink:href="#n" x="227.364" y="48.054"/><use xlink:href="#d" x="232.894" y="45.614"/><use xlink:href="#k" x="237.786" y="41.236"/><use xlink:href="#o" x="20.025" y="63.048"/><use xlink:href="#o" x="22.476" y="63.048"/><use xlink:href="#o" x="24.927" y="63.048"/><use xlink:href="#f" x="30.689" y="63.048"/><use xlink:href="#g" x="42.943" y="63.048"/><use xlink:href="#h" x="48.756" y="65.488"/><use xlink:href="#d" x="54.287" y="63.048"/><use xlink:href="#k" x="59.178" y="58.67"/><use xlink:href="#j" x="67.365" y="63.048"/><use xlink:href="#m" x="78.95" y="63.048"/><use xlink:href="#g" x="85.573" y="63.048"/><use xlink:href="#k" x="91.376" y="65.488"/><use xlink:href="#d" x="96.906" y="63.048"/><use xlink:href="#k" x="101.798" y="58.67"/><use xlink:href="#l" x="109.985" y="63.048"/><use xlink:href="#g" x="121.57" y="63.048"/><use xlink:href="#n" x="127.375" y="65.488"/><use xlink:href="#d" x="132.905" y="63.048"/><use xlink:href="#k" x="137.797" y="58.67"/><use xlink:href="#j" x="145.984" y="63.048"/><use xlink:href="#m" x="157.569" y="63.048"/><use xlink:href="#g" x="164.192" y="63.048"/><use xlink:href="#h" x="169.994" y="65.488"/><use xlink:href="#d" x="175.525" y="63.048"/><use xlink:href="#l" x="183.188" y="63.048"/><use xlink:href="#g" x="194.773" y="63.048"/><use xlink:href="#h" x="200.58" y="65.488"/><use xlink:href="#l" x="208.767" y="63.048"/><use xlink:href="#m" x="220.352" y="63.048"/><use xlink:href="#g" x="226.975" y="63.048"/><use xlink:href="#k" x="232.778" y="65.488"/><use xlink:href="#d" x="238.308" y="63.048"/><g><use xlink:href="#o" x="20.025" y="80.483"/><use xlink:href="#o" x="22.476" y="80.483"/><use xlink:href="#o" x="24.927" y="80.483"/></g><g><use xlink:href="#f" x="30.689" y="80.483"/></g><g><use xlink:href="#c" x="42.943" y="80.483"/><use xlink:href="#g" x="47.905" y="80.483"/></g><g><use xlink:href="#h" x="53.718" y="82.923"/></g><g><use xlink:href="#j" x="61.905" y="80.483"/></g><g><use xlink:href="#m" x="73.49" y="80.483"/><use xlink:href="#g" x="80.113" y="80.483"/></g><g><use xlink:href="#k" x="85.915" y="82.923"/></g><g><use xlink:href="#l" x="94.102" y="80.483"/></g><g><use xlink:href="#g" x="105.687" y="80.483"/></g><g><use xlink:href="#n" x="111.493" y="82.923"/></g><g><use xlink:href="#e" x="117.023" y="80.483"/><use xlink:href="#d" x="121.984" y="80.483"/></g><g><use xlink:href="#k" x="126.877" y="76.105"/></g><g><use xlink:href="#l" x="135.064" y="80.483"/></g><g><use xlink:href="#m" x="146.649" y="80.483"/><use xlink:href="#c" x="153.272" y="80.483"/><use xlink:href="#g" x="158.233" y="80.483"/></g><g><use xlink:href="#k" x="164.036" y="82.923"/></g><g><use xlink:href="#j" x="172.223" y="80.483"/></g><g><use xlink:href="#g" x="183.808" y="80.483"/></g><g><use xlink:href="#h" x="189.613" y="82.923"/></g><g><use xlink:href="#e" x="195.144" y="80.483"/><use xlink:href="#d" x="200.105" y="80.483"/></g><g><use xlink:href="#l" x="207.769" y="80.483"/></g><g><use xlink:href="#g" x="219.353" y="80.483"/></g><g><use xlink:href="#h" x="225.161" y="82.923"/></g></svg>