<svg xmlns="http://www.w3.org/2000/svg" xmlns:xlink="http://www.w3.org/1999/xlink" width="236pt" height="89pt" viewBox="0 0 236 89"><defs><symbol overflow="visible" id="a"><path d="M6.688-6.719c0-.984-.97-1.547-1.891-1.547-.594 0-1.203.032-1.797.032l-1.813-.032-.03.329.64.03c.281 0 .422.095.422.313 0 .172-.063.547-.11.907L1.063-.657c-.032.22-.188.298-.688.376L.312.03C.672.016 1.047 0 1.407 0c.64 0 1.266.031 1.922.031.563 0 1.125-.125 1.688-.469.953-.546 1.468-1.375 1.468-2.28 0-.516-.156-.907-.484-1.173-.313-.25-.672-.359-1.5-.468.688-.25.969-.391 1.36-.72.53-.484.827-1.03.827-1.64zm-1.25 4.203c0 1.22-.875 2.11-2.063 2.11-.25 0-.594-.016-.984-.047a2.223 2.223 0 0 0-.407-.031l.61-3.579h1.015c1.235 0 1.829.5 1.829 1.547zM5.655-6.5c0 1.25-.89 2-2.375 2h-.61l.579-3.266c.328 0 .64-.062.953-.062.969 0 1.453.422 1.453 1.328zm0 0"/></symbol><symbol overflow="visible" id="c"><path d="M4.11-7.61a.735.735 0 0 1-.188-.14c-.063-.063-.11-.11-.14-.188-1.47 1.47-2.345 3.032-2.345 4.563v.781c0 1.516.875 3.078 2.344 4.547a.735.735 0 0 1 .14-.187.735.735 0 0 1 .188-.141C2.781.281 2.156-1.203 2.156-2.594v-.781c0-1.39.625-2.89 1.953-4.234zm0 0"/></symbol><symbol overflow="visible" id="d"><path d="M3.703-5.266c-.453.047-.86.079-1.312.079.187-1.125.328-1.704.53-2.36l-.124-.172c-.235.14-.563.282-.938.422l-.296 2.031c-.516.25-.829.391-1.047.454l-.032.156H1.5L.828-1.281c-.062.297-.156.593-.156.906 0 .297.125.484.36.484.421 0 .827-.234 1.765-1 .219-.156.14-.109.375-.296l-.125-.22-.531.376c-.36.25-.594.36-.735.36-.093 0-.156-.095-.156-.235 0-.313.14-1.25.516-3.016l.156-.734h1.281zm0 0"/></symbol><symbol overflow="visible" id="e"><path d="M3.64-2.594v-.781c0-1.531-.874-3.094-2.343-4.563-.047.079-.094.125-.156.188a.427.427 0 0 1-.188.14c1.328 1.344 1.969 2.844 1.969 4.235v.781c0 1.39-.64 2.875-1.969 4.219.078.031.14.078.188.14.062.063.109.126.156.188C2.766.484 3.64-1.078 3.64-2.594zm0 0"/></symbol><symbol overflow="visible" id="f"><path d="M8.125-3.938c-.016-.124-.031-.25-.031-.359 0-.125.015-.25.031-.36H.953c.031.11.031.235.031.36 0 .11 0 .234-.03.36zm0 2.626c-.016-.125-.031-.235-.031-.36s.015-.234.031-.36H.953a1.4 1.4 0 0 1 .031.36c0 .125 0 .234-.03.36zm0 0"/></symbol><symbol overflow="visible" id="g"><path d="M5.703-4.594c0-.672-.312-1.172-.75-1.172a.571.571 0 0 0-.39.141l-.594.563.125.234a.55.55 0 0 1 .328-.11c.328 0 .516.282.516.75 0 1.766-1.157 3.72-2.22 3.72-.577 0-.952-.5-.952-1.282 0-1.25.468-2.344 1.64-3.797l-.125-.219c-.234.11-.39.141-.719.141-.5 0-.984-.047-1.468-.078-.157-.016-.25.031-.39.078-.173.328-.298.766-.454 1.422h.266l.203-.5c.078-.203.328-.344.61-.344.218 0 .437.031.655.031.25 0 .438-.015.75-.046C1.406-3.641.906-2.642.906-1.454c0 .922.547 1.578 1.313 1.578.5 0 .953-.203 1.515-.703.563-.516 1.125-1.313 1.5-2.14.266-.595.47-1.391.47-1.876zm0 0"/></symbol><symbol overflow="visible" id="i"><path d="M5 .031v-.36l-.625-.03c-.656-.032-.781-.172-.781-.782v-7.093l-.156-.063c-.782.406-1.626.766-2.72 1.156l.079.5h.125l1.547-.687.031-.016c.063 0 .094.11.094.407v5.796c0 .61-.125.75-.781.782l-.672.03v.36L3.125 0zm0 0"/></symbol><symbol overflow="visible" id="j"><path d="M8.125-2.625c-.016-.125-.031-.25-.031-.36 0-.124.015-.25.031-.359H.953c.031.11.031.235.031.36 0 .109 0 .234-.03.359zm0 0"/></symbol><symbol overflow="visible" id="l"><path d="M8.125-2.625c-.016-.125-.031-.25-.031-.36 0-.124.015-.25.031-.359H4.906v-3.234c-.125.031-.25.047-.36.047-.124 0-.25-.016-.359-.047v3.234H.954c.031.11.031.235.031.36 0 .109 0 .234-.03.359h3.234V.594c.109-.016.234-.031.359-.031.11 0 .234.015.36.03v-3.218zm0 0"/></symbol><symbol overflow="visible" id="m"><path d="M5.594.031c-.032-.25-.032-.36-.032-.531 0-.156 0-.281.032-.547l-4.14.125L3.64-3.234c1.156-1.22 1.515-1.875 1.515-2.782 0-1.375-.937-2.218-2.453-2.218-.86 0-1.453.234-2.031.828l-.203 1.64h.344l.156-.562c.187-.688.625-.984 1.422-.984 1.03 0 1.687.64 1.687 1.656 0 .906-.5 1.781-1.86 3.218L.189-.28V.03L2.858 0zm0 0"/></symbol><symbol overflow="visible" id="o"><path d="M2.188-.64c0-.344-.329-.688-.704-.688-.359 0-.687.344-.687.687 0 .36.328.704.672.704.39 0 .718-.329.718-.704zm0 0"/></symbol><symbol overflow="visible" id="b"><path d="M2.5-4.438l-.156-.14-.906.328-.86 3.219.172.125.36-.188zm0 0"/></symbol><symbol overflow="visible" id="h"><path d="M4.125.031v-.265l-.516-.032c-.515-.03-.625-.125-.625-.578v-5.25L2.86-6.14c-.625.297-1.312.563-2.203.86l.078.375h.094l1.25-.516.031-.016c.047 0 .079.094.079.297v4.297c0 .453-.11.547-.626.578l-.546.032V.03L2.594 0zm0 0"/></symbol><symbol overflow="visible" id="k"><path d="M4.594.031c-.016-.187-.016-.281-.016-.406 0-.11 0-.203.016-.39l-3.328.078 1.75-1.704c.937-.906 1.234-1.39 1.234-2.062 0-1.016-.75-1.64-1.984-1.64-.688 0-1.172.171-1.641.624L.469-4.266H.75l.11-.406c.171-.516.515-.734 1.156-.734.828 0 1.359.468 1.359 1.218 0 .672-.406 1.329-1.484 2.391L.234-.203V.03L2.391 0zm0 0"/></symbol><symbol overflow="visible" id="n"><path d="M4.547-1.984c0-.422-.203-.797-.547-1.016-.234-.156-.469-.234-.938-.313.766-.546 1.063-.953 1.063-1.468 0-.797-.719-1.313-1.797-1.313-.64 0-1.078.172-1.547.594L.5-4.406h.313l.156-.5c.11-.297.719-.594 1.219-.594.624 0 1.14.469 1.14 1.031 0 .657-.562 1.219-1.25 1.219-.078 0-.453-.031-.453-.031l-.125.469.078.046c.36-.14.547-.187.797-.187.813 0 1.266.469 1.266 1.265 0 .907-.579 1.5-1.485 1.5-.437 0-.828-.124-1.125-.374C.813-.766.671-.97.5-1.438l-.266.078C.437-.813.516-.5.563-.047c.515.156.937.219 1.296.219.782 0 1.657-.39 2.188-.984.328-.36.5-.75.5-1.172zm0 0"/></symbol></defs><use xlink:href="#a" x="-.125" y="10.961"/><use xlink:href="#b" x="7.179" y="6.728"/><use xlink:href="#c" x="10.747" y="10.961"/><use xlink:href="#d" x="15.816" y="10.961"/><use xlink:href="#e" x="19.857" y="10.961"/><use xlink:href="#f" x="28.237" y="10.961"/><use xlink:href="#g" x="40.647" y="10.961"/><use xlink:href="#h" x="46.632" y="13.734"/><use xlink:href="#c" x="52.129" y="10.961"/><use xlink:href="#i" x="57.198" y="10.961"/><use xlink:href="#j" x="65.83" y="10.961"/><use xlink:href="#d" x="77.57" y="10.961"/><use xlink:href="#e" x="81.611" y="10.961"/><use xlink:href="#k" x="86.685" y="6.728"/><use xlink:href="#l" x="94.838" y="10.961"/><use xlink:href="#m" x="106.578" y="10.961"/><use xlink:href="#g" x="112.556" y="10.961"/><use xlink:href="#k" x="118.536" y="13.734"/><use xlink:href="#c" x="124.033" y="10.961"/><use xlink:href="#i" x="129.102" y="10.961"/><use xlink:href="#j" x="137.734" y="10.961"/><use xlink:href="#d" x="149.474" y="10.961"/><use xlink:href="#e" x="153.515" y="10.961"/><use xlink:href="#d" x="158.584" y="10.961"/><use xlink:href="#l" x="165.278" y="10.961"/><use xlink:href="#g" x="177.018" y="10.961"/><use xlink:href="#n" x="183.008" y="13.734"/><use xlink:href="#d" x="188.504" y="10.961"/><use xlink:href="#k" x="192.545" y="6.728"/><use xlink:href="#o" x="15.96" y="29.607"/><use xlink:href="#o" x="18.949" y="29.607"/><use xlink:href="#o" x="21.938" y="29.607"/><use xlink:href="#f" x="28.238" y="29.607"/><use xlink:href="#g" x="40.647" y="29.607"/><use xlink:href="#h" x="46.632" y="32.381"/><use xlink:href="#c" x="52.129" y="29.607"/><use xlink:href="#d" x="57.198" y="29.607"/><use xlink:href="#k" x="61.238" y="25.375"/><use xlink:href="#j" x="69.392" y="29.607"/><use xlink:href="#m" x="81.132" y="29.607"/><use xlink:href="#d" x="87.11" y="29.607"/><use xlink:href="#l" x="93.805" y="29.607"/><use xlink:href="#i" x="105.545" y="29.607"/><use xlink:href="#e" x="111.522" y="29.607"/><use xlink:href="#l" x="119.245" y="29.607"/><use xlink:href="#m" x="130.997" y="29.607"/><use xlink:href="#g" x="136.975" y="29.607"/><use xlink:href="#k" x="142.955" y="32.381"/><use xlink:href="#c" x="148.451" y="29.607"/><use xlink:href="#d" x="153.52" y="29.607"/><use xlink:href="#j" x="160.215" y="29.607"/><use xlink:href="#d" x="171.955" y="29.607"/><use xlink:href="#k" x="176.002" y="25.375"/><use xlink:href="#e" x="181.498" y="29.607"/><use xlink:href="#l" x="189.221" y="29.607"/><use xlink:href="#g" x="200.961" y="29.607"/><use xlink:href="#n" x="206.945" y="32.381"/><use xlink:href="#d" x="212.441" y="29.607"/><use xlink:href="#k" x="216.482" y="25.375"/><use xlink:href="#o" x="15.96" y="48.254"/><use xlink:href="#o" x="18.949" y="48.254"/><use xlink:href="#o" x="21.938" y="48.254"/><use xlink:href="#f" x="28.238" y="48.254"/><use xlink:href="#g" x="40.647" y="48.254"/><use xlink:href="#h" x="46.632" y="51.028"/><use xlink:href="#d" x="52.129" y="48.254"/><use xlink:href="#k" x="56.169" y="44.022"/><use xlink:href="#j" x="64.323" y="48.254"/><use xlink:href="#m" x="76.063" y="48.254"/><use xlink:href="#g" x="82.041" y="48.254"/><use xlink:href="#h" x="88.021" y="51.028"/><use xlink:href="#d" x="93.518" y="48.254"/><use xlink:href="#l" x="100.213" y="48.254"/><use xlink:href="#g" x="111.953" y="48.254"/><use xlink:href="#h" x="117.936" y="51.028"/><use xlink:href="#l" x="126.089" y="48.254"/><use xlink:href="#m" x="137.829" y="48.254"/><use xlink:href="#g" x="143.807" y="48.254"/><use xlink:href="#k" x="149.788" y="51.028"/><use xlink:href="#d" x="155.284" y="48.254"/><use xlink:href="#j" x="161.979" y="48.254"/><use xlink:href="#m" x="173.719" y="48.254"/><use xlink:href="#g" x="179.697" y="48.254"/><use xlink:href="#k" x="185.68" y="51.028"/><use xlink:href="#d" x="191.177" y="48.254"/><use xlink:href="#k" x="195.217" y="44.022"/><use xlink:href="#l" x="203.371" y="48.254"/><use xlink:href="#g" x="215.111" y="48.254"/><use xlink:href="#n" x="221.091" y="51.028"/><use xlink:href="#d" x="226.588" y="48.254"/><use xlink:href="#k" x="230.629" y="44.022"/><use xlink:href="#o" x="15.96" y="66.901"/><use xlink:href="#o" x="18.949" y="66.901"/><use xlink:href="#o" x="21.938" y="66.901"/><use xlink:href="#f" x="28.238" y="66.901"/><use xlink:href="#g" x="40.647" y="66.901"/><use xlink:href="#h" x="46.632" y="69.675"/><use xlink:href="#d" x="52.129" y="66.901"/><use xlink:href="#k" x="56.169" y="62.669"/><use xlink:href="#j" x="64.323" y="66.901"/><use xlink:href="#m" x="76.063" y="66.901"/><use xlink:href="#g" x="82.041" y="66.901"/><use xlink:href="#k" x="88.021" y="69.675"/><use xlink:href="#d" x="93.518" y="66.901"/><use xlink:href="#k" x="97.559" y="62.669"/><use xlink:href="#l" x="105.712" y="66.901"/><use xlink:href="#g" x="117.452" y="66.901"/><use xlink:href="#n" x="123.433" y="69.675"/><use xlink:href="#d" x="128.929" y="66.901"/><use xlink:href="#k" x="132.97" y="62.669"/><use xlink:href="#j" x="141.124" y="66.901"/><use xlink:href="#m" x="152.864" y="66.901"/><use xlink:href="#g" x="158.842" y="66.901"/><use xlink:href="#h" x="164.822" y="69.675"/><use xlink:href="#d" x="170.318" y="66.901"/><use xlink:href="#l" x="177.013" y="66.901"/><use xlink:href="#g" x="188.753" y="66.901"/><use xlink:href="#h" x="194.736" y="69.675"/><use xlink:href="#l" x="202.89" y="66.901"/><use xlink:href="#m" x="214.63" y="66.901"/><use xlink:href="#g" x="220.608" y="66.901"/><use xlink:href="#k" x="226.588" y="69.675"/><use xlink:href="#d" x="232.085" y="66.901"/><g><use xlink:href="#o" x="15.96" y="85.548"/><use xlink:href="#o" x="18.949" y="85.548"/><use xlink:href="#o" x="21.938" y="85.548"/></g><g><use xlink:href="#f" x="28.238" y="85.548"/></g><g><use xlink:href="#c" x="40.647" y="85.548"/><use xlink:href="#g" x="45.716" y="85.548"/></g><g><use xlink:href="#h" x="51.701" y="88.322"/></g><g><use xlink:href="#j" x="59.855" y="85.548"/></g><g><use xlink:href="#m" x="71.595" y="85.548"/><use xlink:href="#g" x="77.573" y="85.548"/></g><g><use xlink:href="#k" x="83.553" y="88.322"/></g><g><use xlink:href="#l" x="91.706" y="85.548"/></g><g><use xlink:href="#g" x="103.446" y="85.548"/></g><g><use xlink:href="#n" x="109.427" y="88.322"/></g><g><use xlink:href="#e" x="114.923" y="85.548"/><use xlink:href="#d" x="119.992" y="85.548"/></g><g><use xlink:href="#k" x="124.033" y="81.315"/></g><g><use xlink:href="#l" x="132.187" y="85.548"/></g><g><use xlink:href="#m" x="143.927" y="85.548"/><use xlink:href="#c" x="149.905" y="85.548"/><use xlink:href="#g" x="154.974" y="85.548"/></g><g><use xlink:href="#k" x="160.954" y="88.322"/></g><g><use xlink:href="#j" x="169.107" y="85.548"/></g><g><use xlink:href="#g" x="180.847" y="85.548"/></g><g><use xlink:href="#h" x="186.828" y="88.322"/></g><g><use xlink:href="#e" x="192.324" y="85.548"/><use xlink:href="#d" x="197.393" y="85.548"/></g><g><use xlink:href="#l" x="204.088" y="85.548"/></g><g><use xlink:href="#g" x="215.828" y="85.548"/></g><g><use xlink:href="#h" x="221.812" y="88.322"/></g></svg>