<svg xmlns="http://www.w3.org/2000/svg" xmlns:xlink="http://www.w3.org/1999/xlink" width="313pt" height="41pt" viewBox="0 0 313 41"><defs><symbol overflow="visible" id="a"><path d="M6.688-6.719c0-.984-.97-1.547-1.891-1.547-.594 0-1.203.032-1.797.032l-1.813-.032-.03.329.64.03c.281 0 .422.095.422.313 0 .172-.063.547-.11.907L1.063-.657c-.032.22-.188.298-.688.376L.312.03C.672.016 1.047 0 1.407 0c.64 0 1.266.031 1.922.031.563 0 1.125-.125 1.688-.469.953-.546 1.468-1.375 1.468-2.28 0-.516-.156-.907-.484-1.173-.313-.25-.672-.359-1.5-.468.688-.25.969-.391 1.36-.72.53-.484.827-1.03.827-1.64zm-1.25 4.203c0 1.22-.875 2.11-2.063 2.11-.25 0-.594-.016-.984-.047a2.223 2.223 0 0 0-.407-.031l.61-3.579h1.015c1.235 0 1.829.5 1.829 1.547zM5.655-6.5c0 1.25-.89 2-2.375 2h-.61l.579-3.266c.328 0 .64-.062.953-.062.969 0 1.453.422 1.453 1.328zm0 0"/></symbol><symbol overflow="visible" id="b"><path d="M4.11-7.61a.735.735 0 0 1-.188-.14c-.063-.063-.11-.11-.14-.188-1.47 1.47-2.345 3.032-2.345 4.563v.781c0 1.516.875 3.078 2.344 4.547a.735.735 0 0 1 .14-.187.735.735 0 0 1 .188-.141C2.781.281 2.156-1.203 2.156-2.594v-.781c0-1.39.625-2.89 1.953-4.234zm0 0"/></symbol><symbol overflow="visible" id="c"><path d="M3.703-5.266c-.453.047-.86.079-1.312.079.187-1.125.328-1.704.53-2.36l-.124-.172c-.235.14-.563.282-.938.422l-.296 2.031c-.516.25-.829.391-1.047.454l-.032.156H1.5L.828-1.281c-.062.297-.156.593-.156.906 0 .297.125.484.36.484.421 0 .827-.234 1.765-1 .219-.156.14-.109.375-.296l-.125-.22-.531.376c-.36.25-.594.36-.735.36-.093 0-.156-.095-.156-.235 0-.313.14-1.25.516-3.016l.156-.734h1.281zm0 0"/></symbol><symbol overflow="visible" id="d"><path d="M3.64-2.594v-.781c0-1.531-.874-3.094-2.343-4.563-.047.079-.094.125-.156.188a.427.427 0 0 1-.188.14c1.328 1.344 1.969 2.844 1.969 4.235v.781c0 1.39-.64 2.875-1.969 4.219.078.031.14.078.188.14.062.063.109.126.156.188C2.766.484 3.64-1.078 3.64-2.594zm0 0"/></symbol><symbol overflow="visible" id="e"><path d="M8.125-3.938c-.016-.124-.031-.25-.031-.359 0-.125.015-.25.031-.36H.953c.031.11.031.235.031.36 0 .11 0 .234-.03.36zm0 2.626c-.016-.125-.031-.235-.031-.36s.015-.234.031-.36H.953a1.4 1.4 0 0 1 .031.36c0 .125 0 .234-.03.36zm0 0"/></symbol><symbol overflow="visible" id="f"><path d="M4.281-9.64c-.031-.063-.031-.157-.031-.235 0-.078 0-.172.031-.234H1.516V4.14H4.28c-.031-.079-.031-.157-.031-.25 0-.079 0-.157.031-.235H2.313V-9.64zm0 0"/></symbol><symbol overflow="visible" id="g"><path d="M5 .031v-.36l-.625-.03c-.656-.032-.781-.172-.781-.782v-7.093l-.156-.063c-.782.406-1.626.766-2.72 1.156l.079.5h.125l1.547-.687.031-.016c.063 0 .094.11.094.407v5.796c0 .61-.125.75-.781.782l-.672.03v.36L3.125 0zm0 0"/></symbol><symbol overflow="visible" id="i"><path d="M3.781 4.14v-14.25H1.016a.57.57 0 0 1 .03.235c0 .078 0 .172-.03.234h1.968V3.656H1.016a.607.607 0 0 1 .03.235c0 .093 0 .171-.03.25zm0 0"/></symbol><symbol overflow="visible" id="j"><path d="M2.39-2.984c0-.438-.28-.72-.718-.72-.422 0-.719.282-.719.72 0 .421.297.718.719.718.437 0 .719-.296.719-.718zm0 0"/></symbol><symbol overflow="visible" id="k"><path d="M11.234-8.266c-.328.016-.671.032-1 .032-.343 0-.671-.016-1-.032-.218.438 0 .11-1.015 1.86L5.28-1.36 3.484-8.266c-.328.016-.656.032-1 .032-.328 0-.671-.016-.984-.032l-.047.329.313.03c.625.048.843.157.843.47a.627.627 0 0 1-.046.234L.843-1.11c-.187.625-.374.78-1.03.828L-.234.03 1.109 0C1.547 0 2 .016 2.422.031l.047-.328-.453-.031c-.391-.047-.594-.156-.594-.328 0-.125.031-.281.078-.485l1.484-5.546L4.766.218h.28l.673-1.25 2.86-4.938.624-1.047-.437 6.22c-.032.327-.188.405-.813.468l-.36.031-.046.328L9.157 0l1.593.031.031-.328-.437-.031C9.906-.375 9.688-.5 9.688-.75l.015-.438.5-6.359c0-.219.203-.344.547-.36l.453-.03zm0 0"/></symbol><symbol overflow="visible" id="l"><path d="M8.469.734h-.313c-.062.641-.328.938-.812.938-.203 0-.422-.063-.735-.172L3.797.344C3.484.234 3.28.172 3 .172c-.89 0-1.547.61-1.5 1.531 0 0 0 .11.016.203l.296.157c0-.922.282-1.36.907-1.36.36 0 .687.094 1.156.344l1.734.906c.72.375.922.453 1.407.453.89 0 1.328-.515 1.453-1.672zm.469-5.812c0-2.125-1.235-3.36-3.391-3.36C2.719-8.438.64-6.25.64-3.25.64-.984 1.75.219 3.859.219 4.875.219 5.72-.016 6.5-.5c1.516-.938 2.438-2.688 2.438-4.578zm-1.047.187c0 1.516-.485 2.86-1.297 3.704-.578.593-1.36.906-2.297.906-1.719 0-2.61-1.031-2.61-3.031 0-1.547.47-2.954 1.297-3.782.563-.562 1.282-.843 2.188-.843.578 0 1.156.14 1.562.39.766.453 1.157 1.344 1.157 2.656zm0 0"/></symbol><symbol overflow="visible" id="m"><path d="M5.078-14.516H1.703V0h.969v-14.031h2.406c-.016-.078-.031-.156-.031-.235 0-.093.016-.171.031-.25zm0 0"/></symbol><symbol overflow="visible" id="n"><path d="M2.672-9.688h-.969V0h.969zm0 0"/></symbol><symbol overflow="visible" id="o"><path d="M5.078 0c-.016-.078-.031-.156-.031-.234 0-.094.016-.172.031-.25H2.672v-14.032h-.969V0zm0 0"/></symbol><symbol overflow="visible" id="p"><path d="M7.094-6.469c0-1.203-1.125-1.797-2.172-1.797-.547 0-1.094.032-1.64.032l-1.985-.032-.047.329.656.03c.297 0 .422.095.422.313 0 .172-.047.547-.11.907L1.345-1.5C1.14-.406 1.125-.375.64-.328l-.485.031L.11.031 1.688 0l1.656.031.031-.328-.766-.031c-.312-.016-.437-.11-.437-.36 0-.109.015-.203.047-.421l.984-5.829s.047-.25.11-.468c.015-.063.046-.188.078-.344.437-.063.625-.094.859-.094 1.219 0 1.797.532 1.797 1.64 0 1.298-.86 2.345-1.906 2.345-.266 0-.5-.063-.954-.235l.032.375c.437.219.672.281 1.031.281 1.531 0 2.844-1.406 2.844-3.03zm0 0"/></symbol><symbol overflow="visible" id="s"><path d="M4.516 0v-14.516H1.14a.648.648 0 0 1 0 .485h2.421V0zm0 0"/></symbol><symbol overflow="visible" id="t"><path d="M4.516 0v-9.688h-.954V0zm0 0"/></symbol><symbol overflow="visible" id="u"><path d="M4.516 0v-14.516h-.954V-.484H1.142a.648.648 0 0 1 0 .484zm0 0"/></symbol><symbol overflow="visible" id="v"><path d="M6.969-14.11c-.078-.03-.125-.078-.188-.14a.735.735 0 0 1-.14-.188C3.578-11.374 1.703-7.202 1.703-2.374V0h.969v-2.375c0-4.64 1.375-8.797 4.297-11.734zm0 0"/></symbol><symbol overflow="visible" id="w"><path d="M2.672 0v-4.734h-.969V0zm0 0"/></symbol><symbol overflow="visible" id="x"><path d="M6.969-.328C4.047-3.281 2.672-7.422 2.672-12.063v-2.374h-.969v2.374c0 4.829 1.875 9 4.938 12.063.03-.078.078-.125.14-.188.063-.062.11-.109.188-.14zm0 0"/></symbol><symbol overflow="visible" id="y"><path d="M6.406 0v-2.375c0-4.828-1.86-9-4.922-12.063a.735.735 0 0 1-.14.188.595.595 0 0 1-.203.14c2.953 2.938 4.312 7.094 4.312 11.735V0zm0 0"/></symbol><symbol overflow="visible" id="z"><path d="M6.406 0v-4.734h-.953V0zm0 0"/></symbol><symbol overflow="visible" id="A"><path d="M6.406-12.063v-2.374h-.953v2.374c0 4.641-1.36 8.782-4.312 11.735.078.031.14.078.203.14.062.063.11.11.14.188 3.063-3.063 4.922-7.234 4.922-12.063zm0 0"/></symbol><symbol overflow="visible" id="h"><path d="M4.594.031c-.016-.187-.016-.281-.016-.406 0-.11 0-.203.016-.39l-3.328.078 1.75-1.704c.937-.906 1.234-1.39 1.234-2.062 0-1.016-.75-1.64-1.984-1.64-.688 0-1.172.171-1.641.624L.469-4.266H.75l.11-.406c.171-.516.515-.734 1.156-.734.828 0 1.359.468 1.359 1.218 0 .672-.406 1.329-1.484 2.391L.234-.203V.03L2.391 0zm0 0"/></symbol><symbol overflow="visible" id="q"><path d="M4.125.031v-.265l-.516-.032c-.515-.03-.625-.125-.625-.578v-5.25L2.86-6.14c-.625.297-1.312.563-2.203.86l.078.375h.094l1.25-.516.031-.016c.047 0 .079.094.079.297v4.297c0 .453-.11.547-.626.578l-.546.032V.03L2.594 0zm0 0"/></symbol><symbol overflow="visible" id="r"><path d="M4.547-1.984c0-.422-.203-.797-.547-1.016-.234-.156-.469-.234-.938-.313.766-.546 1.063-.953 1.063-1.468 0-.797-.719-1.313-1.797-1.313-.64 0-1.078.172-1.547.594L.5-4.406h.313l.156-.5c.11-.297.719-.594 1.219-.594.624 0 1.14.469 1.14 1.031 0 .657-.562 1.219-1.25 1.219-.078 0-.453-.031-.453-.031l-.125.469.078.046c.36-.14.547-.187.797-.187.813 0 1.266.469 1.266 1.265 0 .907-.579 1.5-1.485 1.5-.437 0-.828-.124-1.125-.374C.813-.766.671-.97.5-1.438l-.266.078C.437-.813.516-.5.563-.047c.515.156.937.219 1.296.219.782 0 1.657-.39 2.188-.984.328-.36.5-.75.5-1.172zm0 0"/></symbol></defs><use xlink:href="#a" x=".223" y="23.29"/><use xlink:href="#b" x="7.528" y="23.29"/><use xlink:href="#c" x="12.597" y="23.29"/><use xlink:href="#d" x="16.626" y="23.29"/><use xlink:href="#e" x="25.018" y="23.29"/><use xlink:href="#f" x="37.428" y="23.29"/><use xlink:href="#g" x="42.731" y="23.298"/><use xlink:href="#c" x="58.667" y="23.298"/><use xlink:href="#c" x="72.667" y="23.298"/><use xlink:href="#h" x="76.715" y="19.066"/><use xlink:href="#i" x="82.212" y="23.29"/><use xlink:href="#j" x="90.162" y="23.29"/><use xlink:href="#k" x="96.164" y="23.29"/><use xlink:href="#j" x="110.39" y="23.29"/><use xlink:href="#l" x="116.392" y="23.29"/><use xlink:href="#j" x="128.359" y="23.29"/><use xlink:href="#m" x="134.366" y="15.297"/><use xlink:href="#n" x="134.366" y="22.592"/><use xlink:href="#n" x="134.366" y="27.694"/><use xlink:href="#o" x="134.366" y="39.819"/><use xlink:href="#p" x="140.594" y="8.745"/><use xlink:href="#q" x="147.899" y="11.518"/><use xlink:href="#p" x="140.594" y="23.19"/><use xlink:href="#h" x="147.899" y="25.964"/><use xlink:href="#p" x="140.594" y="37.636"/><use xlink:href="#r" x="147.899" y="40.41"/><use xlink:href="#s" x="153.396" y="15.297"/><use xlink:href="#t" x="153.396" y="22.592"/><use xlink:href="#t" x="153.396" y="27.694"/><use xlink:href="#u" x="153.396" y="39.819"/><use xlink:href="#e" x="162.945" y="23.29"/><use xlink:href="#f" x="175.343" y="23.29"/><use xlink:href="#g" x="180.649" y="23.298"/><use xlink:href="#c" x="196.585" y="23.298"/><use xlink:href="#c" x="210.585" y="23.298"/><use xlink:href="#h" x="214.633" y="19.066"/><use xlink:href="#i" x="220.13" y="23.29"/><use xlink:href="#j" x="228.08" y="23.29"/><use xlink:href="#k" x="234.082" y="23.29"/><use xlink:href="#j" x="248.308" y="23.29"/><use xlink:href="#v" x="254.321" y="15.225"/><use xlink:href="#w" x="254.321" y="19.189"/><use xlink:href="#w" x="254.321" y="22.668"/><use xlink:href="#w" x="254.321" y="26.147"/><use xlink:href="#x" x="254.321" y="39.819"/><use xlink:href="#l" x="262.439" y="23.29"/><use xlink:href="#j" x="274.394" y="23.29"/><use xlink:href="#m" x="280.401" y="15.297"/><use xlink:href="#n" x="280.401" y="22.592"/><use xlink:href="#n" x="280.401" y="27.694"/><use xlink:href="#o" x="280.401" y="39.819"/><use xlink:href="#p" x="286.63" y="8.744"/><use xlink:href="#q" x="293.935" y="11.518"/><use xlink:href="#p" x="286.63" y="23.19"/><use xlink:href="#h" x="293.935" y="25.964"/><use xlink:href="#p" x="286.63" y="37.636"/><use xlink:href="#r" x="293.935" y="40.41"/><use xlink:href="#s" x="299.431" y="15.297"/><use xlink:href="#t" x="299.431" y="22.592"/><use xlink:href="#t" x="299.431" y="27.694"/><use xlink:href="#u" x="299.431" y="39.819"/><use xlink:href="#y" x="305.66" y="15.225"/><use xlink:href="#z" x="305.66" y="19.189"/><use xlink:href="#z" x="305.66" y="22.668"/><g><use xlink:href="#z" x="305.66" y="26.147"/></g><g><use xlink:href="#A" x="305.66" y="39.819"/></g></svg>