<svg xmlns:xlink="http://www.w3.org/1999/xlink" width="67.667ex" height="8.833ex" style="vertical-align:-3.833ex;margin-bottom:1px;margin-top:1px" viewBox="0 -2163.9 29120.3 3827.9" xmlns="http://www.w3.org/2000/svg"><defs><path stroke-width="10" id="a" d="M756 545c0-95-105-169-209-188 97-11 155-69 155-141C702 118 584 0 426 0H69C51 0 42 0 42 11c0 20 10 20 27 20 79 0 81 8 91 47l134 537c3 12 4 15 4 19 0 13-9 14-27 16-17 2-38 2-38 2-19 0-28 0-28 11 0 20 10 20 29 20h336c120 0 186-64 186-138zm-91 4c0 44-21 103-109 103H427c-43 0-45-3-54-38l-62-248h146c122 0 208 95 208 183zm-56-322c0 43-19 117-115 117H305L236 65c-5-18-5-20-5-23 0-8 3-9 13-10 6-1 8-1 22-1h136c118 0 207 97 207 196z"/><path stroke-width="10" id="b" d="M332-238c0-5-5-10-10-10-2 0-4 1-6 2-110 83-215 283-215 454v84c0 171 105 371 215 454 2 1 4 2 6 2 5 0 10-5 10-10 0-3-2-6-4-8-104-78-173-278-173-438v-84c0-160 69-360 173-438 2-2 4-5 4-8z"/><path stroke-width="10" id="c" d="M330 420c0-20-10-20-30-20h-94l-74-295c-4-17-6-24-6-48 0-33 10-46 31-46 34 0 87 24 130 128 5 11 6 14 15 14 4 0 12 0 12-10 0-8-57-154-159-154-54 0-92 38-92 92 0 18 4 35 76 319H51c-20 0-28 0-28 12 0 19 10 19 30 19h94l39 159c9 35 37 36 40 36 17 0 29-10 29-27 0-6-5-26-41-168h88c18 0 28 0 28-11z"/><path stroke-width="10" id="d" d="M288 208c0-171-105-371-215-454-2-1-4-2-6-2-5 0-10 5-10 10 0 3 2 6 4 8 104 78 173 278 173 438v84c0 160-69 360-173 438-2 2-4 5-4 8 0 5 5 10 10 10 2 0 4-1 6-2 110-83 215-283 215-454v-84z"/><path stroke-width="10" id="e" d="M722 347c0-11-9-20-20-20H76c-11 0-20 9-20 20s9 20 20 20h626c11 0 20-9 20-20zm0-194c0-11-9-20-20-20H76c-11 0-20 9-20 20s9 20 20 20h626c11 0 20-9 20-20z"/><path stroke-width="10" id="f" d="M256-230c0-11-9-20-20-20H114V750h122c11 0 20-9 20-20s-9-20-20-20h-82v-920h82c11 0 20-9 20-20z"/><path stroke-width="10" id="g" d="M419 0c-35 3-122 3-162 3S130 3 95 0v31h32c90 0 93 12 93 48v518c-52-26-111-26-131-26v31c32 0 120 0 182 64 23 0 23-2 23-26V79c0-37 3-48 93-48h32V0z"/><path stroke-width="10" id="h" d="M449 174L421 0H50c0 24 0 26 11 37l192 214c55 62 105 141 105 221 0 82-43 163-134 163-58 0-112-37-135-102 3 1 5 1 13 1 35 0 53-26 53-52 0-41-35-53-52-53-3 0-53 0-53 56 0 89 74 181 187 181 122 0 212-80 212-194 0-100-60-154-216-292L127 77h180c22 0 88 0 95 8 10 15 17 59 22 89h25z"/><path stroke-width="10" id="i" d="M164-250H42c-11 0-20 9-20 20s9 20 20 20h82v920H42c-11 0-20 9-20 20s9 20 20 20h122V-250z"/><path stroke-width="10" id="j" d="M192 250c0-29-24-53-53-53s-53 24-53 53 24 53 53 53 53-24 53-53z"/><path stroke-width="10" id="k" d="M1044 672c0-20-9-20-32-20-75 0-77-10-86-46L793 73c-5-18-5-20-5-24 0-18 28-18 65-18 19 0 28 0 28-11 0-20-13-20-19-20-41 0-84 3-125 3L613 0c-3 0-15 0-15 12 0 19 11 19 28 19 79 0 81 8 91 47l143 573h-1L455 18c-5-7-11-18-22-18-12 0-13 11-15 23l-86 620h-1L195 98c-3-11-4-16-4-23 0-23 11-43 68-44 7 0 18 0 18-11 0-20-13-20-18-20-33 0-69 3-103 3-33 0-68-3-100-3-8 0-14 3-14 12 0 18 13 19 18 19 81 3 98 35 108 75l127 509c3 12 4 15 4 19 0 11-6 14-22 16-12 1-30 2-43 2-20 0-29 0-29 12 0 19 11 19 30 19h137c26 0 28 0 31-23l78-566 365 570c12 19 13 19 39 19h132c17 0 27 0 27-11z"/><path stroke-width="10" id="l" d="M740 436C740 243 593 65 438 6c10-76 25-103 71-103 35 0 93 25 117 96 2 6 4 11 12 11 4 0 11-3 11-10 0-11-48-194-167-194-83 0-83 78-83 110 0 13 0 15 4 77-39-11-73-15-98-15C161-22 49 79 49 245c0 233 220 460 436 460 149 0 255-108 255-269zm-88 32c0 134-73 212-173 212-73 0-167-46-240-148-76-108-102-250-102-319 0-90 34-168 112-199 0 0-6 12-6 32 0 52 49 102 102 102 73 0 83-73 88-108 168 94 219 328 219 428zM406 41c0 61-19 85-61 85s-80-40-80-80c0-43 32-43 46-43 28 0 58 7 84 18 10 4 11 5 11 20z"/><path stroke-width="10" id="p" d="M754 532c0-112-139-216-281-216H303L241 66c-1-6-3-11-3-17 0-18 28-18 65-18 19 0 28 0 28-11 0-20-13-20-20-20-21 0-43 2-65 2l-64 1L55 0c-3 0-15 0-15 12 0 19 11 19 28 19 79 0 81 8 91 47l134 537c3 12 4 15 4 19 0 11-6 14-22 16-12 1-30 2-43 2-20 0-29 0-29 12 0 19 11 19 30 19h324c131 0 197-74 197-151zm-93 24c0 69-53 96-136 96h-96c-43 0-45-3-54-38l-68-272h141c44 0 104 8 154 53 39 36 59 122 59 161z"/><path stroke-width="10" id="q" d="M457 171c0-102-91-193-213-193C135-22 42 44 42 135c0 44 32 58 56 58 29 0 56-20 56-56 0-38-31-60-66-55C123 23 198 6 241 6c44 0 113 29 113 165 0 98-37 166-119 166h-44c-17 0-24 0-24 11 0 10 7 11 15 12 7 0 31 2 39 3 25 1 59 4 89 52 26 44 28 102 28 114 0 90-55 112-96 112-36 0-102-13-133-62 15 0 62 0 62-50 0-29-20-51-51-51-29 0-51 19-51 52 0 76 76 136 177 136 96 0 184-56 184-138 0-79-58-149-140-176 104-21 167-99 167-181z"/><path stroke-width="10" id="m" d="M647 1470c0-17-13-30-30-30H381V0h-60v1500h296c17 0 30-13 30-30z"/><path stroke-width="10" id="o" d="M647 30c0-17-13-30-30-30H321v1500h60V60h236c17 0 30-13 30-30z"/><path stroke-width="10" id="n" d="M381 0h-60v1000h60V0z"/><path stroke-width="10" id="r" d="M346 0h-60v1440H50c-17 0-30 13-30 30s13 30 30 30h296V0z"/><path stroke-width="10" id="t" d="M346 0H50C33 0 20 13 20 30s13 30 30 30h236v1440h60V0z"/><path stroke-width="10" id="s" d="M346 1000V0h-60v1000h60z"/><path stroke-width="10" id="u" d="M823 1474c0-7-3-13-9-17-255-192-435-739-435-1207V0H277v250c0 490 245 1039 513 1241 3 2 7 4 12 4 11 0 21-10 21-21z"/><path stroke-width="10" id="w" d="M823 21c0-12-10-21-21-21-5 0-9 2-12 4-268 201-513 751-513 1241v250h102v-250C379 776 559 230 814 37c6-3 9-9 9-16z"/><path stroke-width="10" id="v" d="M379 0H277v498h102V0z"/><path stroke-width="10" id="x" d="M598 0H496v250c0 468-180 1015-435 1207-6 4-9 10-9 17 0 11 10 21 21 21 5 0 9-2 12-4 268-202 513-751 513-1241V0z"/><path stroke-width="10" id="z" d="M598 1245C598 755 353 205 85 4c-3-2-7-4-12-4-11 0-21 9-21 21 0 7 3 13 9 16 255 193 435 739 435 1208v250h102v-250z"/><path stroke-width="10" id="y" d="M598 498V0H496v498h102z"/></defs><g stroke="currentColor" fill="currentColor" stroke-width="0" transform="scale(1 -1)"><use xlink:href="#a"/><use xlink:href="#b" x="764"/><use xlink:href="#c" x="1158"/><use xlink:href="#d" x="1524"/><use xlink:href="#e" x="2195"/><g transform="translate(3256)"><use xlink:href="#f"/><g transform="translate(450)"><use xlink:href="#g" x="-11" y="-71"/><use xlink:href="#c" x="1494" y="-71"/><g transform="translate(2860 -71)"><use xlink:href="#c"/><use transform="scale(.707)" xlink:href="#h" x="517" y="513"/></g></g><use xlink:href="#i" x="4300"/></g><use xlink:href="#j" x="8062"/><use xlink:href="#k" x="8567"/><use xlink:href="#j" x="9838"/><use xlink:href="#l" x="10344"/><use xlink:href="#j" x="11362"/><g transform="translate(11867 2150)"><use xlink:href="#m" y="-1510"/><use xlink:href="#n" transform="matrix(1 0 0 .84314 0 -2321.57)"/><use xlink:href="#o" y="-3790"/></g><g transform="translate(12695 1350)"><use xlink:href="#p"/><use transform="scale(.707)" xlink:href="#g" x="914" y="-213"/></g><g transform="translate(12695 -50)"><use xlink:href="#p"/><use transform="scale(.707)" xlink:href="#h" x="914" y="-213"/></g><g transform="translate(12695 -1450)"><use xlink:href="#p"/><use transform="scale(.707)" xlink:href="#q" x="914" y="-213"/></g><g transform="translate(13966 2150)"><use xlink:href="#r" y="-1510"/><use xlink:href="#s" transform="matrix(1 0 0 .84314 0 -2321.57)"/><use xlink:href="#t" y="-3790"/></g><use xlink:href="#e" x="14916"/><g transform="translate(15977)"><use xlink:href="#f"/><g transform="translate(450)"><use xlink:href="#g" x="-11" y="-71"/><use xlink:href="#c" x="1494" y="-71"/><g transform="translate(2860 -71)"><use xlink:href="#c"/><use transform="scale(.707)" xlink:href="#h" x="517" y="513"/></g></g><use xlink:href="#i" x="4300"/></g><use xlink:href="#j" x="20783"/><use xlink:href="#k" x="21288"/><use xlink:href="#j" x="22560"/><g transform="translate(23065)"><g transform="translate(0 2150)"><use xlink:href="#u" y="-1505"/><use xlink:href="#v" transform="matrix(1 0 0 1.67954 0 -2318.205)"/><use xlink:href="#w" y="-3790"/></g><use xlink:href="#l" x="880"/><use xlink:href="#j" x="1898"/><g transform="translate(2403 2150)"><use xlink:href="#m" y="-1510"/><use xlink:href="#n" transform="matrix(1 0 0 .84314 0 -2321.57)"/><use xlink:href="#o" y="-3790"/></g><g transform="translate(3231 1350)"><use xlink:href="#p"/><use transform="scale(.707)" xlink:href="#g" x="914" y="-213"/></g><g transform="translate(3231 -50)"><use xlink:href="#p"/><use transform="scale(.707)" xlink:href="#h" x="914" y="-213"/></g><g transform="translate(3231 -1450)"><use xlink:href="#p"/><use transform="scale(.707)" xlink:href="#q" x="914" y="-213"/></g><g transform="translate(4502 2150)"><use xlink:href="#r" y="-1510"/><use xlink:href="#s" transform="matrix(1 0 0 .84314 0 -2321.57)"/><use xlink:href="#t" y="-3790"/></g><g transform="translate(5175 2150)"><use xlink:href="#x" y="-1505"/><use xlink:href="#y" transform="matrix(1 0 0 1.67954 0 -2318.205)"/><use xlink:href="#z" y="-3790"/></g></g></g></svg>