<svg xmlns="http://www.w3.org/2000/svg" xmlns:xlink="http://www.w3.org/1999/xlink" width="289pt" height="16pt" viewBox="0 0 289 16"><defs><symbol overflow="visible" id="a"><path d="M7.781-7.953c-.922-.344-1.593-.484-2.328-.484a5 5 0 0 0-2.797.859C1.25-6.641.531-5.218.531-3.391.531-1.078 1.812.22 4.094.22c1.156 0 1.984-.281 3.078-1.016l.125-.437-.125-.079c-1.125.688-1.75.891-2.672.891-1.89 0-2.906-1.14-2.906-3.265 0-1.344.406-2.516 1.125-3.25.562-.579 1.328-.875 2.281-.875.86 0 1.469.171 2.14.609v1h.313c.063-.688.156-1.203.328-1.75zm0 0"/></symbol><symbol overflow="visible" id="b"><path d="M4.11-7.61a.735.735 0 0 1-.188-.14c-.063-.063-.11-.11-.14-.188-1.47 1.47-2.345 3.032-2.345 4.563v.781c0 1.516.875 3.078 2.344 4.547a.735.735 0 0 1 .14-.187.735.735 0 0 1 .188-.141C2.781.281 2.156-1.203 2.156-2.594v-.781c0-1.39.625-2.89 1.953-4.234zm0 0"/></symbol><symbol overflow="visible" id="c"><path d="M3.703-5.266c-.453.047-.86.079-1.312.079.187-1.125.328-1.704.53-2.36l-.124-.172c-.235.14-.563.282-.938.422l-.296 2.031c-.516.25-.829.391-1.047.454l-.032.156H1.5L.828-1.281c-.062.297-.156.593-.156.906 0 .297.125.484.36.484.421 0 .827-.234 1.765-1 .219-.156.14-.109.375-.296l-.125-.22-.531.376c-.36.25-.594.36-.735.36-.093 0-.156-.095-.156-.235 0-.313.14-1.25.516-3.016l.156-.734h1.281zm0 0"/></symbol><symbol overflow="visible" id="d"><path d="M3.64-2.594v-.781c0-1.531-.874-3.094-2.343-4.563-.047.079-.094.125-.156.188a.427.427 0 0 1-.188.14c1.328 1.344 1.969 2.844 1.969 4.235v.781c0 1.39-.64 2.875-1.969 4.219.078.031.14.078.188.14.062.063.109.126.156.188C2.766.484 3.64-1.078 3.64-2.594zm0 0"/></symbol><symbol overflow="visible" id="e"><path d="M8.125-3.938c-.016-.124-.031-.25-.031-.359 0-.125.015-.25.031-.36H.953c.031.11.031.235.031.36 0 .11 0 .234-.03.36zm0 2.626c-.016-.125-.031-.235-.031-.36s.015-.234.031-.36H.953a1.4 1.4 0 0 1 .031.36c0 .125 0 .234-.03.36zm0 0"/></symbol><symbol overflow="visible" id="m"><path d="M2.781-9.156l-.156-.156-.969.359-.937 3.5.172.125.406-.203zm0 0"/></symbol><symbol overflow="visible" id="n"><path d="M2.39-2.984c0-.438-.28-.72-.718-.72-.422 0-.719.282-.719.72 0 .421.297.718.719.718.437 0 .719-.296.719-.718zm0 0"/></symbol><symbol overflow="visible" id="p"><path d="M8.125-2.625c-.016-.125-.031-.25-.031-.36 0-.124.015-.25.031-.359H.953c.031.11.031.235.031.36 0 .109 0 .234-.03.359zm0 0"/></symbol><symbol overflow="visible" id="f"><path d="M.313.031C.671.016 1.046 0 1.405 0c.64 0 1.266.031 1.922.031.563 0 1.125-.125 1.688-.469.953-.546 1.468-1.375 1.468-2.28 0-.516-.156-.907-.484-1.173-.313-.25-.672-.359-1.5-.468.688-.25.969-.391 1.36-.72.53-.484.827-1.03.827-1.64 0-.984-.968-1.547-1.89-1.547-.594 0-1.203.032-1.797.032-.61 0-1.203-.016-1.813-.032l-.03.329.64.03c.281 0 .422.095.422.313 0 .172-.063.547-.11.907L1.063-.657c-.032.22-.188.298-.688.376zm1.671-.515l.61-3.579h1.015c1.235 0 1.829.5 1.829 1.547 0 1.22-.875 2.11-2.063 2.11-.25 0-.594-.016-.984-.047a2.223 2.223 0 0 0-.407-.031zM2.672-4.5l.578-3.266c.328 0 .64-.062.953-.062.969 0 1.453.422 1.453 1.328 0 1.25-.89 2-2.375 2zm0 0"/></symbol><symbol overflow="visible" id="g"><path d="M.172-1.344c0 .922.531 1.469 1.39 1.469.688 0 1.344-.328 2.454-1.219l-.094-.234-.281.203C3-.672 2.42-.437 2-.437c-.578 0-.906-.438-.906-1.172 0-.297.015-.61.093-.954l.97-.234c.202-.047.515-.172.827-.297C4-3.547 4.47-4.094 4.47-4.828c0-.563-.39-.938-1-.938-.781 0-2.078.813-2.563 1.563-.36.594-.734 2.031-.734 2.86zM1.25-2.828l.094-.453c.203-.797.437-1.313.765-1.61.22-.218.61-.375.907-.375.343 0 .562.25.562.625 0 .532-.406 1.094-1.031 1.391-.328.156-.766.297-1.297.422zm.64-3.516h.407l1.937-1.203c.25-.156.329-.266.329-.453 0-.188-.22-.36-.454-.36-.109 0-.25.063-.39.204zm0 0"/></symbol><symbol overflow="visible" id="h"><path d="M-.016-.25l.11.328c.344-.281.672-.39 1.093-.39.297 0 .625.046 1.25.203.72.171 1.094.234 1.407.234.156 0 .25-.016.61-.11.124-.75.218-1.156.359-1.718h-.266l-.266.719c-.078.218-.218.296-.468.296-.266 0-.532-.062-.797-.125-.391-.078-.797-.14-1.032-.14-.375 0-.703.062-1.14.25l4.062-4.563.063-.39-.11-.11-.265.282a.533.533 0 0 1-.407.171c-.406 0-1.03-.109-1.609-.25-.312-.093-.625-.203-.953-.203-.203 0-.438.047-.734.125L.516-4.187h.25l.359-.688c.203-.047.313-.063.469-.063.156 0 .297.016.531.063.406.078.719.125.969.125.437 0 .719-.078 1.11-.281zm0 0"/></symbol><symbol overflow="visible" id="i"><path d="M.406-4.64l.078.234.391-.25c.344-.219.469-.266.578-.266.11 0 .203.11.203.25 0 .094-.047.344-.11.531l-.78 2.86c-.11.39-.157.687-.157.922 0 .28.125.468.36.468.312 0 .75-.265 1.906-1.125l-.11-.218-.312.203c-.36.25-.61.36-.734.36-.078 0-.157-.11-.157-.235 0-.125.016-.219.094-.485l.907-3.625c.062-.203.078-.328.078-.437 0-.203-.094-.313-.297-.313-.266 0-.688.25-1.61.891zm1.656-2.563c0 .297.172.484.47.484.374 0 .64-.343.64-.797 0-.296-.172-.5-.422-.5-.36 0-.688.407-.688.813zm0 0"/></symbol><symbol overflow="visible" id="j"><path d="M.172-1.344c0 .922.531 1.469 1.39 1.469.688 0 1.344-.328 2.454-1.219l-.094-.234-.281.203C3-.672 2.42-.437 2-.437c-.578 0-.906-.438-.906-1.172 0-.297.015-.61.093-.954l.97-.234c.202-.047.515-.172.827-.297C4-3.547 4.47-4.094 4.47-4.828c0-.563-.39-.938-1-.938-.781 0-2.078.813-2.563 1.563-.36.594-.734 2.031-.734 2.86zM1.25-2.828l.094-.453c.203-.797.437-1.313.765-1.61.22-.218.61-.375.907-.375.343 0 .562.25.562.625 0 .532-.406 1.094-1.031 1.391-.328.156-.766.297-1.297.422zm0 0"/></symbol><symbol overflow="visible" id="k"><path d="M.313-4.64l.078.234.39-.25c.328-.203.469-.266.563-.266.125 0 .203.11.203.266 0 .687-.5 3.156-.984 4.687L.688.11c.25-.078.515-.14.796-.187L1.797-1.5c.219-1 .484-1.625 1.016-2.313.406-.53.718-.78.984-.78.187 0 .297.062.437.234h.172c.032-.454.094-.844.188-1.329-.14-.062-.188-.078-.25-.078-.36 0-.735.297-1.172.907-.406.578-.813 1.156-1.11 1.796l.297-1.5c.063-.265.157-.546.157-.812 0-.25-.094-.39-.282-.39-.25 0-.703.25-1.593.89zm0 0"/></symbol><symbol overflow="visible" id="l"><path d="M4.766-4.172a.703.703 0 0 0-.297-.094c-.39 0-.766.329-1.375 1.141l-.36.484-.062-.421c-.11-.876-.36-1.204-.938-1.204-.25 0-.453.079-.546.188l-.563.734.172.094c.281-.313.484-.422.656-.422.328 0 .531.36.703 1.219l.094.547-.375.547c-.422.593-.75.875-1.016.875-.14 0-.25-.032-.265-.079l-.11-.25-.187.032c0 .187-.016.297-.078.578-.032.11-.032.125-.047.187a.94.94 0 0 0 .422.11c.312 0 .687-.25.984-.672l.734-1.031.11.609c.14.75.344 1.094.687 1.094.22 0 .532-.14.829-.406l.468-.391-.078-.156c-.344.265-.594.39-.734.39-.156 0-.281-.094-.375-.265-.094-.172-.188-.5-.235-.75l-.187-.891.344-.438c.453-.578.718-.78 1.015-.78.157 0 .266.077.313.202l.14-.03zm0 0"/></symbol><symbol overflow="visible" id="o"><path d="M4.813-4.188l-.11-.078c-.281.094-.5.157-.719.172l-.328 1.172c-.125.406-.453 1.063-.765 1.485-.344.453-.813.843-1.032.843-.203 0-.187-.422-.171-.531l.14-1.719c.016-.281.031-.61.031-.86 0-.405-.062-.562-.234-.562-.125 0-.25.063-.719.36l-.797.5.11.156.484-.266a.458.458 0 0 1 .25-.109c.235 0 .203.453.203.594L.984-.891.97-.53c0 .375.187.625.422.625.359 0 1.171-.75 1.89-1.75L2.797-.141c-.485 1.563-.969 2.204-1.64 2.204-.329 0-.595-.235-.595-.547 0-.032 0-.11.016-.188l-.094-.031-.468.297v.156c0 .375.359.688.796.688 1.016 0 2.079-1.094 2.641-2.735zm0 0"/></symbol></defs><use xlink:href="#a" x=".429" y="10.082"/><use xlink:href="#b" x="8.547" y="10.082"/><use xlink:href="#c" x="13.616" y="10.082"/><use xlink:href="#d" x="17.656" y="10.082"/><use xlink:href="#e" x="26.037" y="10.082"/><use xlink:href="#f" x="38.454" y="10.082"/><use xlink:href="#g" x="45.759" y="10.082"/><use xlink:href="#h" x="50.409" y="10.082"/><use xlink:href="#i" x="55.717" y="10.082"/><use xlink:href="#j" x="59.041" y="10.082"/><use xlink:href="#k" x="63.691" y="10.082"/><use xlink:href="#l" x="68.342" y="12.856"/><use xlink:href="#m" x="73.838" y="10.082"/><use xlink:href="#b" x="77.341" y="10.082"/><use xlink:href="#c" x="82.41" y="10.082"/><use xlink:href="#d" x="86.451" y="10.082"/><use xlink:href="#n" x="94.174" y="10.082"/><use xlink:href="#f" x="100.181" y="10.082"/><use xlink:href="#g" x="107.486" y="10.082"/><use xlink:href="#h" x="112.136" y="10.082"/><use xlink:href="#i" x="117.444" y="10.082"/><use xlink:href="#j" x="120.768" y="10.082"/><use xlink:href="#k" x="125.418" y="10.082"/><g><use xlink:href="#o" x="130.069" y="12.856"/></g><g><use xlink:href="#m" x="135.628" y="10.082"/><use xlink:href="#m" x="139.131" y="10.082"/><use xlink:href="#b" x="142.634" y="10.082"/><use xlink:href="#c" x="147.703" y="10.082"/></g><g><use xlink:href="#d" x="151.732" y="10.082"/></g><g><use xlink:href="#p" x="159.467" y="10.082"/></g><g><use xlink:href="#f" x="171.212" y="10.082"/><use xlink:href="#g" x="178.517" y="10.082"/><use xlink:href="#h" x="183.167" y="10.082"/><use xlink:href="#i" x="188.475" y="10.082"/><use xlink:href="#j" x="191.799" y="10.082"/><use xlink:href="#k" x="196.449" y="10.082"/></g><g><use xlink:href="#o" x="201.1" y="12.856"/></g><g><use xlink:href="#m" x="206.659" y="10.082"/><use xlink:href="#b" x="210.162" y="10.082"/><use xlink:href="#c" x="215.231" y="10.082"/></g><g><use xlink:href="#d" x="219.26" y="10.082"/></g><g><use xlink:href="#n" x="226.995" y="10.082"/></g><g><use xlink:href="#f" x="233.002" y="10.082"/><use xlink:href="#g" x="240.307" y="10.082"/><use xlink:href="#h" x="244.957" y="10.082"/><use xlink:href="#i" x="250.265" y="10.082"/><use xlink:href="#j" x="253.589" y="10.082"/><use xlink:href="#k" x="258.239" y="10.082"/></g><g><use xlink:href="#l" x="262.89" y="12.856"/></g><g><use xlink:href="#m" x="268.386" y="10.082"/><use xlink:href="#m" x="271.889" y="10.082"/><use xlink:href="#b" x="275.392" y="10.082"/><use xlink:href="#c" x="280.461" y="10.082"/></g><g><use xlink:href="#d" x="284.502" y="10.082"/></g></svg>