<svg xmlns="http://www.w3.org/2000/svg" xmlns:xlink="http://www.w3.org/1999/xlink" width="308" height="47pt" viewBox="0 0 231 47"><defs><symbol overflow="visible" id="a"><path d="M4.86-1.016l-.094-.25c-.079.079-.094.079-.157.125-.375.329-.562.438-.734.438-.125 0-.188-.094-.188-.281 0-.063 0-.094.016-.125l1.11-4.532-.125-.109-.391.219c-.469-.188-.703-.235-1.016-.235-.344 0-.578.063-.906.22-.75.374-1.125.734-1.438 1.312C.422-3.172.047-1.75.047-.781c0 .5.187.906.406.906.25 0 .688-.25 1.14-.625.516-.438.985-1 1.641-1.938L2.891-.921a2.882 2.882 0 0 0-.063.61c0 .28.094.437.281.437.266 0 .766-.328 1.75-1.14zM3.811-4.953c-.265 1.281-.484 1.906-.89 2.516-.656 1-1.406 1.734-1.797 1.734-.14 0-.219-.156-.219-.485 0-.765.313-2.093.735-3.078.28-.687.578-.906 1.156-.906.281 0 .5.047 1.015.219zm0 0"/></symbol><symbol overflow="visible" id="b"><path d="M8.125-3.938c-.016-.124-.031-.25-.031-.359 0-.125.015-.25.031-.36H.953c.031.11.031.235.031.36 0 .11 0 .234-.03.36zm0 2.626c-.016-.125-.031-.235-.031-.36s.015-.234.031-.36H.953a1.4 1.4 0 0 1 .031.36c0 .125 0 .234-.03.36zm0 0"/></symbol><symbol overflow="visible" id="c"><path d="M5.703-4.594c0-.672-.312-1.172-.75-1.172a.571.571 0 0 0-.39.141l-.594.563.125.234a.55.55 0 0 1 .328-.11c.328 0 .516.282.516.75 0 1.766-1.157 3.72-2.22 3.72-.577 0-.952-.5-.952-1.282 0-1.25.468-2.344 1.64-3.797l-.125-.219c-.234.11-.39.141-.719.141-.5 0-.984-.047-1.468-.078-.157-.016-.25.031-.39.078-.173.328-.298.766-.454 1.422h.266l.203-.5c.078-.203.328-.344.61-.344.218 0 .437.031.655.031.25 0 .438-.015.75-.046C1.406-3.641.906-2.642.906-1.454c0 .922.547 1.578 1.313 1.578.5 0 .953-.203 1.515-.703.563-.516 1.125-1.313 1.5-2.14.266-.595.47-1.391.47-1.876zm0 0"/></symbol><symbol overflow="visible" id="e"><path d="M8.125-2.625c-.016-.125-.031-.25-.031-.36 0-.124.015-.25.031-.359H.953c.031.11.031.235.031.36 0 .109 0 .234-.03.359zm0 0"/></symbol><symbol overflow="visible" id="f"><path d="M5.594.031c-.032-.25-.032-.36-.032-.531 0-.156 0-.281.032-.547l-4.14.125L3.64-3.234c1.156-1.22 1.515-1.875 1.515-2.782 0-1.375-.937-2.218-2.453-2.218-.86 0-1.453.234-2.031.828l-.203 1.64h.344l.156-.562c.187-.688.625-.984 1.422-.984 1.03 0 1.687.64 1.687 1.656 0 .906-.5 1.781-1.86 3.218L.189-.28V.03L2.858 0zm0 0"/></symbol><symbol overflow="visible" id="h"><path d="M8.125-2.625c-.016-.125-.031-.25-.031-.36 0-.124.015-.25.031-.359H4.906v-3.234c-.125.031-.25.047-.36.047-.124 0-.25-.016-.359-.047v3.234H.954c.031.11.031.235.031.36 0 .109 0 .234-.03.359h3.234V.594c.109-.016.234-.031.359-.031.11 0 .234.015.36.03v-3.218zm0 0"/></symbol><symbol overflow="visible" id="j"><path d="M5.516-2.672c0-.578-.235-1.078-.657-1.375-.312-.219-.578-.312-1.171-.422C4.64-5.219 5-5.766 5-6.469c0-1.062-.89-1.765-2.219-1.765-.812 0-1.344.218-1.922.796L.516-5.952H.89l.203-.672c.14-.406.89-.813 1.515-.813.766 0 1.407.641 1.407 1.391 0 .89-.704 1.64-1.547 1.64-.11 0-.563-.03-.563-.03l-.156.64.094.063c.453-.204.672-.266 1-.266 1 0 1.562.64 1.562 1.734 0 1.22-.718 2.016-1.843 2.016a2.035 2.035 0 0 1-1.391-.516C.89-1.03.734-1.296.5-1.953l-.328.125c.266.734.36 1.156.422 1.75.64.219 1.156.312 1.61.312.952 0 2.046-.53 2.702-1.328.407-.5.61-1.015.61-1.578zm0 0"/></symbol><symbol overflow="visible" id="k"><path d="M4.11-7.61a.735.735 0 0 1-.188-.14c-.063-.063-.11-.11-.14-.188-1.47 1.47-2.345 3.032-2.345 4.563v.781c0 1.516.875 3.078 2.344 4.547a.735.735 0 0 1 .14-.187.735.735 0 0 1 .188-.141C2.781.281 2.156-1.203 2.156-2.594v-.781c0-1.39.625-2.89 1.953-4.234zm0 0"/></symbol><symbol overflow="visible" id="l"><path d="M5.563-4.438c0-.796-.282-1.328-.704-1.328-.515 0-1.125.329-1.765.875-.469.438-.735.735-1.156 1.438l.28-1.422c.048-.203.063-.39.063-.531 0-.219-.094-.36-.265-.36-.25 0-.704.25-1.579.891l-.343.234.078.235.39-.25c.329-.203.47-.266.579-.266.109 0 .203.11.203.266 0 .11-.032.343-.047.453L.594-.093.016 2.78l-.094.453.078.063c.25-.078.484-.14.875-.203l.5-3.125.11.031c.312.11.484.125.624.125.657 0 2.032-.86 2.547-1.625.5-.719.907-2.031.907-2.938zm-.86.188c0 .969-.484 2.39-1.125 3.297-.234.344-.61.515-1.11.515-.359 0-.655-.078-.968-.265l.203-1.266C1.97-3.5 3.25-5.062 4.25-5.062c.297 0 .453.25.453.812zm0 0"/></symbol><symbol overflow="visible" id="n"><path d="M3.64-2.594v-.781c0-1.531-.874-3.094-2.343-4.563-.047.079-.094.125-.156.188a.427.427 0 0 1-.188.14c1.328 1.344 1.969 2.844 1.969 4.235v.781c0 1.39-.64 2.875-1.969 4.219.078.031.14.078.188.14.062.063.109.126.156.188C2.766.484 3.64-1.078 3.64-2.594zm0 0"/></symbol><symbol overflow="visible" id="o"><path d="M5.172-4.5c0-.453-.11-.922-.25-1.094-.078-.11-.234-.172-.422-.172-.281 0-.64.094-.969.266-.61.328-1.015.688-1.75 1.625l1.032-4.75-.141-.14c-.625.312-1.063.421-1.922.5l-.047.25h.578c.282 0 .407.093.407.296 0 .078-.016.219-.032.282L.453-.845c-.016.031-.016.078-.016.11 0 .468.579.859 1.235.859.437 0 1.047-.219 1.562-.594C4.391-1.28 5.172-2.922 5.172-4.5zm-.86.297c0 .766-.25 1.781-.609 2.562-.39.829-.875 1.204-1.515 1.204-.547 0-.844-.266-.844-.766 0-.297.047-.64.156-1.078.219-.953.516-1.531.984-2.031.391-.407 1.016-.75 1.36-.75.312 0 .469.265.469.859zm0 0"/></symbol><symbol overflow="visible" id="p"><path d="M5.594-2.625C5.594-4 4.766-4.891 3.5-4.891c-.703 0-1.14.282-1.938.938.25-2.172 1.266-3.344 3.407-3.985v-.093l-.438-.203c-1.156.375-1.64.625-2.25 1.14C1.047-6.047.375-4.594.375-2.954c0 1.97.969 3.188 2.5 3.188 1.563 0 2.719-1.218 2.719-2.859zm-1.032.422c0 1.25-.609 2.047-1.53 2.047-1.016 0-1.563-.875-1.563-2.469 0-.422.047-.656.187-.86.25-.406.813-.687 1.39-.687.907 0 1.517.797 1.517 1.969zm0 0"/></symbol><symbol overflow="visible" id="q"><path d="M4.656-5.469c-.312-.203-.703-.297-1.156-.297-.531 0-1.39.422-2.063 1.016C.75-4.14.298-2.906.298-1.625c0 1.14.5 1.75 1.453 1.75.656 0 1.219-.234 1.89-.766l.594-.5-.093-.234-.188.125c-.86.563-1.312.766-1.734.766-.672 0-1.016-.47-1.016-1.422 0-1.266.406-2.5.984-2.953.25-.22.547-.313.938-.313.531 0 .969.219.969.516v.718h.265c.094-.78.188-1.218.297-1.53zm0 0"/></symbol><symbol overflow="visible" id="d"><path d="M4.125.031v-.265l-.516-.032c-.515-.03-.625-.125-.625-.578v-5.25L2.86-6.14c-.625.297-1.312.563-2.203.86l.078.375h.094l1.25-.516.031-.016c.047 0 .079.094.079.297v4.297c0 .453-.11.547-.626.578l-.546.032V.03L2.594 0zm0 0"/></symbol><symbol overflow="visible" id="g"><path d="M4.594.031c-.016-.187-.016-.281-.016-.406 0-.11 0-.203.016-.39l-3.328.078 1.75-1.704c.937-.906 1.234-1.39 1.234-2.062 0-1.016-.75-1.64-1.984-1.64-.688 0-1.172.171-1.641.624L.469-4.266H.75l.11-.406c.171-.516.515-.734 1.156-.734.828 0 1.359.468 1.359 1.218 0 .672-.406 1.329-1.484 2.391L.234-.203V.03L2.391 0zm0 0"/></symbol><symbol overflow="visible" id="i"><path d="M4.547-1.984c0-.422-.203-.797-.547-1.016-.234-.156-.469-.234-.938-.313.766-.546 1.063-.953 1.063-1.468 0-.797-.719-1.313-1.797-1.313-.64 0-1.078.172-1.547.594L.5-4.406h.313l.156-.5c.11-.297.719-.594 1.219-.594.624 0 1.14.469 1.14 1.031 0 .657-.562 1.219-1.25 1.219-.078 0-.453-.031-.453-.031l-.125.469.078.046c.36-.14.547-.187.797-.187.813 0 1.266.469 1.266 1.265 0 .907-.579 1.5-1.485 1.5-.437 0-.828-.124-1.125-.374C.813-.766.671-.97.5-1.438l-.266.078C.437-.813.516-.5.563-.047c.515.156.937.219 1.296.219.782 0 1.657-.39 2.188-.984.328-.36.5-.75.5-1.172zm0 0"/></symbol><symbol overflow="visible" id="m"><path d="M4.64.031v-.265l-.468-.032c-.469-.03-.578-.14-.578-.671v-.657c.578 0 .781 0 1.047.032v-.625s-.47.015-.782.015h-.265V-3.39c0-1.578.015-2.343.062-2.703l-.11-.047-.702.235-2.735 4.11.11.202H2.78v.657c0 .53-.11.656-.578.671l-.594.032V.03L3.172 0zM2.782-2.172H.72l2.062-3.11zm0 0"/></symbol></defs><use xlink:href="#a" x=".005" y="8.745"/><use xlink:href="#b" x="8.625" y="8.745"/><use xlink:href="#c" x="21.034" y="8.745"/><use xlink:href="#d" x="27.019" y="11.518"/><use xlink:href="#e" x="35.172" y="8.745"/><use xlink:href="#f" x="46.912" y="8.745"/><use xlink:href="#c" x="52.89" y="8.745"/><use xlink:href="#g" x="58.87" y="11.518"/><use xlink:href="#h" x="67.024" y="8.745"/><use xlink:href="#c" x="78.764" y="8.745"/><use xlink:href="#i" x="84.745" y="11.518"/><use xlink:href="#b" x="93.562" y="8.745"/><use xlink:href="#j" x="105.96" y="8.745"/><use xlink:href="#k" x="111.937" y="8.745"/><use xlink:href="#e" x="117.006" y="8.745"/><use xlink:href="#l" x="126.092" y="8.745"/><use xlink:href="#d" x="132.08" y="11.518"/><use xlink:href="#h" x="140.233" y="8.745"/><use xlink:href="#j" x="151.973" y="8.745"/><use xlink:href="#l" x="157.951" y="8.745"/><use xlink:href="#g" x="163.931" y="11.518"/><use xlink:href="#e" x="172.085" y="8.745"/><use xlink:href="#j" x="183.825" y="8.745"/><use xlink:href="#l" x="189.803" y="8.745"/><use xlink:href="#i" x="195.783" y="11.518"/><use xlink:href="#h" x="203.936" y="8.745"/><use xlink:href="#l" x="215.676" y="8.745"/><use xlink:href="#m" x="221.657" y="11.518"/><use xlink:href="#n" x="227.153" y="8.745"/><use xlink:href="#o" x="-.222" y="26.179"/><use xlink:href="#b" x="8.625" y="26.179"/><use xlink:href="#f" x="21.034" y="26.179"/><use xlink:href="#k" x="27.012" y="26.179"/><use xlink:href="#c" x="32.081" y="26.179"/><use xlink:href="#g" x="38.065" y="28.953"/><use xlink:href="#e" x="46.219" y="26.179"/><use xlink:href="#c" x="57.959" y="26.179"/><use xlink:href="#d" x="63.939" y="28.953"/><use xlink:href="#n" x="69.436" y="26.179"/><use xlink:href="#b" x="77.817" y="26.179"/><use xlink:href="#p" x="90.226" y="26.179"/><use xlink:href="#k" x="96.204" y="26.179"/><use xlink:href="#l" x="101.273" y="26.179"/><use xlink:href="#d" x="107.258" y="28.953"/><use xlink:href="#e" x="115.411" y="26.179"/><use xlink:href="#f" x="127.151" y="26.179"/><use xlink:href="#l" x="133.129" y="26.179"/><use xlink:href="#g" x="139.109" y="28.953"/><use xlink:href="#h" x="147.263" y="26.179"/><use xlink:href="#l" x="159.003" y="26.179"/><use xlink:href="#i" x="164.983" y="28.953"/><use xlink:href="#n" x="170.48" y="26.179"/><g><use xlink:href="#q" x=".328" y="43.614"/></g><g><use xlink:href="#b" x="8.625" y="43.614"/></g><g><use xlink:href="#c" x="21.034" y="43.614"/></g><g><use xlink:href="#d" x="27.019" y="46.388"/></g><g><use xlink:href="#b" x="35.837" y="43.614"/></g><g><use xlink:href="#j" x="48.235" y="43.614"/><use xlink:href="#k" x="54.212" y="43.614"/><use xlink:href="#l" x="59.281" y="43.614"/></g><g><use xlink:href="#g" x="65.268" y="46.388"/></g><g><use xlink:href="#e" x="73.422" y="43.614"/></g><g><use xlink:href="#l" x="85.162" y="43.614"/></g><g><use xlink:href="#d" x="91.142" y="46.388"/></g><g><use xlink:href="#n" x="96.639" y="43.614"/></g></svg>