<svg xmlns="http://www.w3.org/2000/svg" xmlns:xlink="http://www.w3.org/1999/xlink" width="308" height="47pt" viewBox="0 0 231 47"><defs><symbol overflow="visible" id="a"><path d="M4.984-1.14l-.156-.485c-.25.203-.266.219-.328.266-.375.312-.453.39-.625.39-.125 0-.047.031-.047-.156 0-.047 0-.078.016-.125l1.11-4.578-.25-.203-.438.218c-.438-.156-.672-.218-.985-.218-.344 0-.578.062-.906.218-.75.375-1.234.766-1.531 1.36l-.047.094C.28-3.297-.093-1.875-.093-.922c0 .516.327 1.047.546 1.047.25 0 .797-.281 1.234-.656.516-.453.985-1.016 1.641-1.938l-.234-.094-.344 1.516a2.715 2.715 0 0 0-.078.61c0 .265.25.562.437.562.266 0 .86-.36 1.891-1.219zM3.672-5.079c-.266 1.281-.453 1.797-.844 2.406C2.156-1.656 1.516-.969 1.125-.969c-.14 0-.078-.015-.078-.344 0-.765.297-2.093.719-3.093.296-.688.453-.766 1.03-.766.282 0 .5.047.86.172zm0 0"/></symbol><symbol overflow="visible" id="b"><path d="M8.266-4.078a1.419 1.419 0 0 1-.047-.36c0-.109.015-.234.062-.484h-7.5c.063.25.063.375.063.484 0 .125 0 .235-.063.5h7.5zm0 2.625a1.332 1.332 0 0 1-.047-.36c0-.109.015-.234.062-.484h-7.5c.063.25.063.375.063.485 0 .125 0 .25-.063.5h7.5zm0 0"/></symbol><symbol overflow="visible" id="c"><path d="M5.828-4.719c0-.687-.437-1.312-.875-1.312-.14 0-.406.093-.5.187l-.656.625.25.453c.25-.171.266-.171.375-.171.328 0 .375.14.375.625 0 1.765-1.016 3.578-2.078 3.578-.578 0-.813-.36-.813-1.141 0-1.25.422-2.25 1.657-3.781l-.235-.407c-.281.141-.437.188-.765.188-.5 0-.985-.047-1.47-.094-.155 0-.25.032-.5.125-.155.328-.327.844-.515 1.64h.5l.266-.64c.094-.203.203-.203.484-.203.219 0 .438.031.656.031.25 0 .438-.015.75-.046l-.109-.235C1.297-3.859.765-2.766.765-1.578c0 .922.688 1.703 1.454 1.703.5 0 1.062-.25 1.61-.734C4.39-1.125 5-2.016 5.358-2.844c.266-.594.47-1.406.47-1.875zm0 0"/></symbol><symbol overflow="visible" id="e"><path d="M8.266-2.766a1.332 1.332 0 0 1-.047-.359c0-.11.015-.234.062-.484h-7.5c.063.25.063.375.063.484 0 .125 0 .25-.063.5h7.5zm0 0"/></symbol><symbol overflow="visible" id="f"><path d="M5.719-.094c-.016-.25-.016-.375-.016-.547 0-.14 0-.265.031-.671l-4.28.125.093.234 2.187-2.313C4.891-4.5 5.281-5.25 5.281-6.14 5.281-7.516 4.22-8.5 2.703-8.5c-.86 0-1.562.281-2.172.906L.312-5.766h.594l.188-.687c.203-.688.5-.86 1.297-.86 1.03 0 1.546.516 1.546 1.532 0 .89-.468 1.687-1.828 3.11L.047-.454v.5L2.859 0l2.875.047zm0 0"/></symbol><symbol overflow="visible" id="h"><path d="M8.266-2.766a1.332 1.332 0 0 1-.047-.359c0-.11.015-.234.062-.484h-3.25v-3.266c-.25.063-.375.078-.484.078-.125 0-.25-.016-.5-.078v3.266H.78c.063.25.063.375.063.484 0 .125 0 .25-.063.5h3.266V.641c.25-.063.375-.079.5-.079.11 0 .234.016.484.079v-3.266h3.25zm0 0"/></symbol><symbol overflow="visible" id="j"><path d="M5.656-2.813c0-.562-.281-1.171-.703-1.468-.297-.219-.672-.344-.953-.407.734-.562 1.125-1.203 1.125-1.906 0-1.062-1.016-1.906-2.344-1.906-.812 0-1.453.266-2.047.86L.328-5.954h.64l.266-.797c.125-.406.75-.688 1.375-.688.766 0 1.266.5 1.266 1.25 0 .907-.563 1.532-1.406 1.532-.11 0-.469.187-.469.187l-.25-.093-.14.671.202.188C2.297-3.938 2.516-4 2.845-4c1 0 1.422.516 1.422 1.594 0 1.219-.579 1.89-1.704 1.89-.546 0-.937-.14-1.296-.468C.984-1.25.859-1.438.578-2.25l-.562.219C.28-1.234.375-.797.469-.11c.765.25 1.281.343 1.734.343.953 0 2.14-.562 2.813-1.375.406-.484.64-1.109.64-1.671zm0 0"/></symbol><symbol overflow="visible" id="k"><path d="M4.203-7.828a.735.735 0 0 1-.187-.14c-.063-.063-.11-.126-.22-.329-1.593 1.61-2.5 3.266-2.5 4.781v.797c0 1.516.907 3.172 2.5 4.781.11-.203.157-.265.22-.328.062-.062.125-.109.312-.203C2.875.063 2.281-1.344 2.281-2.719v-.797c0-1.39.594-2.78 2.047-4.25zm0 0"/></symbol><symbol overflow="visible" id="l"><path d="M5.688-4.563c0-.796-.407-1.468-.829-1.468-.515 0-1.234.36-1.875.922-.468.421-.718.718-1.156 1.421l.234.11.297-1.438c.032-.203.063-.375.063-.515 0-.235-.235-.5-.406-.5-.25 0-.813.297-1.688.922l-.406.296.187.485.547-.36c.328-.218.375-.234.485-.234.109 0 .046-.031.046.14 0 .095-.015.329-.046.454L.453-.234l-.578 2.89-.11.485.204.171a5.507 5.507 0 0 1 1.015-.234l.5-3.062V0c.313.11.485.125.625.125.657 0 2.141-.906 2.641-1.656.5-.735.938-2.14.938-3.032zm-1.141.172c0 .97-.438 2.297-1.063 3.204-.25.343-.515.5-1.015.5-.36 0-.563-.047-.828-.204l.203-1.218C2.109-3.641 3.25-5.063 4.25-5.063c.297 0 .297.125.297.672zm0 0"/></symbol><symbol overflow="visible" id="n"><path d="M3.766-2.719v-.797c0-1.515-.907-3.171-2.516-4.78-.11.202-.156.265-.203.327-.063.063-.125.11-.313.203 1.438 1.47 2.032 2.86 2.032 4.25v.797c0 1.375-.594 2.781-2.032 4.25.188.094.25.14.313.203.047.063.094.125.203.329C2.86.452 3.766-1.204 3.766-2.72zm0 0"/></symbol><symbol overflow="visible" id="o"><path d="M5.313-4.625c0-.453-.157-1.016-.297-1.203-.079-.094-.329-.203-.516-.203-.281 0-.75.14-1.078.312-.61.313-1 .672-1.75 1.625L1.906-4l1.047-4.813-.265-.234c-.75.375-1.079.438-2.047.531l-.11.5h.75c.282 0 .266-.046.266.157 0 .093-.016.218-.031.296L.312-.984C.297-.938.297-.891.297-.86c0 .468.719.984 1.375.984.437 0 1.156-.25 1.656-.625 1.156-.813 1.985-2.547 1.985-4.125zm-1.141.281c0 .766-.25 1.797-.61 2.578-.39.829-.734 1.079-1.374 1.079-.547 0-.72-.157-.72-.657 0-.297.048-.625.157-1.078.234-.953.484-1.422.953-1.922.39-.406.922-.718 1.266-.718.312 0 .328.14.328.718zm0 0"/></symbol><symbol overflow="visible" id="p"><path d="M5.719-2.75c0-1.375-.953-2.406-2.219-2.406-.703 0-1.25.328-1.766.75.22-1.844 1.094-2.89 3.375-3.563v-.265L4.531-8.5c-1.156.39-1.75.656-2.36 1.188C.939-6.282.235-4.72.235-3.079.234-1.11 1.344.234 2.875.234c1.563 0 2.844-1.359 2.844-2.984zm-1.297.422c0 1.234-.469 1.906-1.39 1.906-1.016 0-1.423-.734-1.423-2.344 0-.406 0-.546.141-.75.266-.406.719-.656 1.297-.656.906 0 1.375.656 1.375 1.844zm0 0"/></symbol><symbol overflow="visible" id="q"><path d="M4.75-5.703c-.297-.188-.797-.328-1.25-.328-.531 0-1.484.468-2.172 1.062C.641-4.375.156-3.03.156-1.75.156-.61.796.125 1.75.125c.656 0 1.328-.266 1.984-.813l.657-.53-.204-.485-.343.219c-.86.578-1.203.75-1.625.75-.672 0-.875-.36-.875-1.297 0-1.266.36-2.406.937-2.875.25-.203.453-.266.844-.266.531 0 .813.094.813.375v.86h.546c.11-.922.188-1.36.329-1.735zm0 0"/></symbol><symbol overflow="visible" id="d"><path d="M4.281-.11V-.5l-.656-.031c-.531-.031-.484.015-.484-.453v-5.344l-.282-.094c-.625.313-1.312.578-2.375.906l.125.594h.22l1.25-.516h.03c.047 0-.078-.062-.078.157v4.297c0 .468.047.421-.469.453L.86-.5v.531L2.61 0l1.672.031zm0 0"/></symbol><symbol overflow="visible" id="g"><path d="M4.75-.11c-.016-.187-.016-.265-.016-.39s0-.203.032-.547l-3.141.094 1.5-1.469c.938-.922 1.281-1.5 1.281-2.172 0-1.015-.906-1.781-2.14-1.781-.688 0-1.282.219-1.782.703l-.187 1.39h.547l.172-.53c.156-.516.359-.61 1-.61.843 0 1.203.344 1.203 1.094 0 .672-.36 1.234-1.453 2.297L.078-.391v.422L2.406 0l2.36.031zm0 0"/></symbol><symbol overflow="visible" id="i"><path d="M4.703-2.125c0-.422-.234-.89-.578-1.11a2.69 2.69 0 0 0-.719-.296c.531-.36.875-.875.875-1.39 0-.798-.875-1.454-1.937-1.454-.656 0-1.203.203-1.703.656L.312-4.406h.594l.219-.64c.11-.298.563-.47 1.078-.47.61 0 .969.344.969.907 0 .656-.406 1.078-1.094 1.078-.078 0-.344.203-.344.203l-.265-.094-.125.531.203.141c.39-.172.578-.203.844-.203.796 0 1.093.328 1.093 1.14 0 .907-.421 1.36-1.328 1.36-.437 0-.719-.094-1.015-.344C.906-1 .828-1.094.578-1.75l-.531.188c.234.609.312.937.375 1.468C1.078.11 1.5.172 1.875.172c.766 0 1.75-.422 2.281-1.016.328-.375.547-.86.547-1.281zm0 0"/></symbol><symbol overflow="visible" id="m"><path d="M4.797-.11V-.5l-.61-.031c-.468-.031-.437-.016-.437-.547v-.531c.422 0 .625.015 1.047.062v-.781l-.047.094s-.578-.204-.89-.204h-.11V-3.53c0-1.578.031-2.344.078-2.781l-.281-.11-.813.281-2.796 4.188.187.344h2.5v.53c0 .532.063.532-.406.548L1.453-.5v.531L3.172 0l1.625.031zm-2-2.328H.969l1.922-2.89-.266-.094v2.984zm0 0"/></symbol></defs><use xlink:href="#a" x="-.007" y="8.745"/><use xlink:href="#b" x="8.613" y="8.745"/><use xlink:href="#c" x="21.022" y="8.745"/><use xlink:href="#d" x="27.007" y="11.518"/><use xlink:href="#e" x="35.164" y="8.745"/><use xlink:href="#f" x="46.904" y="8.745"/><use xlink:href="#c" x="52.882" y="8.745"/><use xlink:href="#g" x="58.862" y="11.518"/><use xlink:href="#h" x="67.019" y="8.745"/><use xlink:href="#c" x="78.759" y="8.745"/><use xlink:href="#i" x="84.739" y="11.518"/><use xlink:href="#b" x="93.56" y="8.745"/><use xlink:href="#j" x="105.958" y="8.745"/><use xlink:href="#k" x="111.935" y="8.745"/><use xlink:href="#e" x="117.004" y="8.745"/><use xlink:href="#l" x="126.09" y="8.745"/><use xlink:href="#d" x="132.077" y="11.518"/><use xlink:href="#h" x="140.234" y="8.745"/><use xlink:href="#j" x="151.974" y="8.745"/><use xlink:href="#l" x="157.952" y="8.745"/><use xlink:href="#g" x="163.932" y="11.518"/><use xlink:href="#e" x="172.089" y="8.745"/><use xlink:href="#j" x="183.829" y="8.745"/><use xlink:href="#l" x="189.807" y="8.745"/><use xlink:href="#i" x="195.787" y="11.518"/><use xlink:href="#h" x="203.944" y="8.745"/><use xlink:href="#l" x="215.684" y="8.745"/><use xlink:href="#m" x="221.664" y="11.518"/><use xlink:href="#n" x="227.165" y="8.745"/><use xlink:href="#o" x="-.234" y="26.179"/><use xlink:href="#b" x="8.613" y="26.179"/><use xlink:href="#f" x="21.022" y="26.179"/><use xlink:href="#k" x="27" y="26.179"/><use xlink:href="#c" x="32.069" y="26.179"/><use xlink:href="#g" x="38.053" y="28.953"/><use xlink:href="#e" x="46.211" y="26.179"/><use xlink:href="#c" x="57.951" y="26.179"/><use xlink:href="#d" x="63.931" y="28.953"/><use xlink:href="#n" x="69.431" y="26.179"/><use xlink:href="#b" x="77.812" y="26.179"/><use xlink:href="#p" x="90.221" y="26.179"/><use xlink:href="#k" x="96.199" y="26.179"/><use xlink:href="#l" x="101.268" y="26.179"/><use xlink:href="#d" x="107.252" y="28.953"/><use xlink:href="#e" x="115.409" y="26.179"/><use xlink:href="#f" x="127.149" y="26.179"/><use xlink:href="#l" x="133.127" y="26.179"/><use xlink:href="#g" x="139.107" y="28.953"/><use xlink:href="#h" x="147.264" y="26.179"/><use xlink:href="#l" x="159.004" y="26.179"/><use xlink:href="#i" x="164.984" y="28.953"/><use xlink:href="#n" x="170.485" y="26.179"/><g><use xlink:href="#q" x=".316" y="43.614"/></g><g><use xlink:href="#b" x="8.613" y="43.614"/></g><g><use xlink:href="#c" x="21.022" y="43.614"/></g><g><use xlink:href="#d" x="27.007" y="46.387"/></g><g><use xlink:href="#b" x="35.828" y="43.614"/></g><g><use xlink:href="#j" x="48.226" y="43.614"/><use xlink:href="#k" x="54.203" y="43.614"/><use xlink:href="#l" x="59.272" y="43.614"/></g><g><use xlink:href="#g" x="65.259" y="46.387"/></g><g><use xlink:href="#e" x="73.416" y="43.614"/></g><g><use xlink:href="#l" x="85.156" y="43.614"/></g><g><use xlink:href="#d" x="91.136" y="46.387"/></g><g><use xlink:href="#n" x="96.637" y="43.614"/></g></svg>