<svg xmlns="http://www.w3.org/2000/svg" xmlns:xlink="http://www.w3.org/1999/xlink" width="299pt" height="115pt" viewBox="0 0 299 115"><defs><symbol overflow="visible" id="a"><path d="M5.875-8.86l-.219-.187c-.75.375-1.078.438-2.062.531l-.094.5h.75c.281 0 .25-.046.25.157 0 .109 0 .203-.016.296L4.188-5.89a3.109 3.109 0 0 0-.875-.14c-.829 0-2.063.906-2.61 1.937-.375.703-.64 1.938-.64 2.938C.063-.375.374.125.734.125c.313 0 .86-.234 1.266-.563.64-.515 1.031-.984 1.844-2.187l-.25-.094-.266 1.078c-.14.532-.203.907-.203 1.22 0 .25.25.546.453.546.219 0 .594-.203 1-.5l1.047-.766-.266-.468-.656.468c-.172.125-.25.172-.36.172-.093 0-.046.031-.046-.14 0-.094.031-.204.11-.547l1.515-7.157zM4.031-5.03l-.14.703A5.233 5.233 0 0 1 2.375-1.61c-.422.39-.781.64-1.016.64-.187 0-.171-.031-.171-.328 0-1.516.515-3.281 1.109-3.734.156-.125.281-.14.61-.14.53 0 .765.03 1.109.218zm0 0"/></symbol><symbol overflow="visible" id="c"><path d="M4.203-7.828a.735.735 0 0 1-.187-.14c-.063-.063-.11-.126-.22-.329-1.593 1.61-2.5 3.266-2.5 4.781v.797c0 1.516.907 3.172 2.5 4.781.11-.203.157-.265.22-.328.062-.062.125-.109.312-.203C2.875.063 2.281-1.344 2.281-2.719v-.797c0-1.39.594-2.78 2.047-4.25zm0 0"/></symbol><symbol overflow="visible" id="d"><path d="M7.422-4.094a2.021 2.021 0 0 0-.125-.765c-.156-.36-.766-1.172-1.078-1.172-.282 0-.703.125-.953.265-.47.266-1.047.704-1.36 1.047-.11.125-.25.453-.297.64l-.734 3.47c-.844-.079-1.266-.47-1.219-1.329.047-1.343.907-2.703 1.89-3.218.032-.016.235-.078.532-.11.156-.156.14-.156.266-.312-.047-.172-.219-.313-.25-.313-.266 0-.75.22-1.125.407-1.453.687-2.438 2.046-2.5 3.53C.406-.671 1.28.126 2.672.126c.078 0 .156 0 .031.031l-.64 2.5-.11.485.203.171a5.507 5.507 0 0 1 1.016-.234l.625-3.094c.469-.109 1.14-.359 1.625-.671 1.094-.72 1.937-2.172 2-3.407zm-1.188.203c-.062 1.157-.75 2.313-1.609 2.954-.266.171-.484.265-.688.296l.282-1.265c.187-.938.531-2.782.812-3.016.157-.187.407-.25.797-.25.328 0 .438.64.406 1.281zm0 0"/></symbol><symbol overflow="visible" id="e"><path d="M3.766-2.719v-.797c0-1.515-.907-3.171-2.516-4.78-.11.202-.156.265-.203.327-.063.063-.125.11-.313.203 1.438 1.47 2.032 2.86 2.032 4.25v.797c0 1.375-.594 2.781-2.032 4.25.188.094.25.14.313.203.047.063.094.125.203.329C2.86.452 3.766-1.204 3.766-2.72zm0 0"/></symbol><symbol overflow="visible" id="f"><path d="M8.266-4.078a1.419 1.419 0 0 1-.047-.36c0-.109.015-.234.062-.484h-7.5c.063.25.063.375.063.484 0 .125 0 .235-.063.5h7.5zm0 2.625a1.332 1.332 0 0 1-.047-.36c0-.109.015-.234.062-.484h-7.5c.063.25.063.375.063.485 0 .125 0 .25-.063.5h7.5zm0 0"/></symbol><symbol overflow="visible" id="g"><path d="M7.594-8.531L4.219-8.5l-3.5-.047-.235 2.235h.594l.219-.844c.047-.266.11-.36.172-.453.078-.079.437-.11.875-.11h1.172l-1 6.094c-.188 1.094-.079 1-.563 1.031l-.719.031-.093.61L3 0l1.703.047.063-.61-.844-.03c-.313-.016-.297.015-.297-.235 0-.11 0-.156.047-.422l1.094-6.469h.765c.938 0 1.219-.078 1.266.063.031.11.047.328.047.453l-.063.89h.594l.375-2.234zm0 0"/></symbol><symbol overflow="visible" id="h"><path d="M8.266-2.766a1.332 1.332 0 0 1-.047-.359c0-.11.015-.234.062-.484h-7.5c.063.25.063.375.063.484 0 .125 0 .25-.063.5h7.5zm0 0"/></symbol><symbol overflow="visible" id="i"><path d="M7.234-6.594c0-1.218-1.265-1.937-2.312-1.937-.547 0-1.094.031-1.64.031l-2.126-.047-.062.61.812.03c.297 0 .282-.03.282.188 0 .172-.047.532-.11.907l-.89 5.187C1-.531 1.125-.641.64-.594l-.61.031-.093.61L1.688 0l1.78.047.063-.61-.922-.03c-.312-.016-.296.015-.296-.235 0-.11 0-.188.046-.422l.97-5.813-.032.094s.078-.343.14-.578c.016-.062.047-.172.063-.203.328-.063.516-.094.75-.094 1.219 0 1.656.39 1.656 1.516 0 1.281-.718 2.203-1.765 2.203-.266 0-.5-.063-1.11-.281l.047.625c.578.281.813.344 1.172.344 1.531 0 2.984-1.532 2.984-3.157zm0 0"/></symbol><symbol overflow="visible" id="j"><path d="M5.125-.094v-.484l-.75-.047c-.656-.031-.64-.031-.64-.656v-7.172l-.313-.125c-.875.469-1.61.781-2.86 1.219l.125.718h.235l1.547-.687.031-.016c.063 0-.047-.015-.047.266v5.797c0 .625.016.625-.64.656L1-.578v.625L3.125 0l2 .047zm0 0"/></symbol><symbol overflow="visible" id="k"><path d="M5.766-.094v-.484l-.704-.047c-.578-.031-.578-.063-.578-.781v-.75c.579 0 .829 0 1.282.062v-1L5.734-3s-.671-.188-1.062-.188h-.188v-1.53c0-2.126.016-3.157.094-3.72l-.281-.124-.984.343-3.438 5.64.203.423h3.125v.75c0 .718.016.765-.578.781l-.875.047v.625L3.813 0l1.953.047zM3.344-3.188H1l2.438-3.984-.235-.094v4.079zm0 0"/></symbol><symbol overflow="visible" id="l"><path d="M5.656-2.813c0-.562-.281-1.171-.703-1.468-.297-.219-.672-.344-.953-.407.734-.562 1.125-1.203 1.125-1.906 0-1.062-1.016-1.906-2.344-1.906-.812 0-1.453.266-2.047.86L.328-5.954h.64l.266-.797c.125-.406.75-.688 1.375-.688.766 0 1.266.5 1.266 1.25 0 .907-.563 1.532-1.406 1.532-.11 0-.469.187-.469.187l-.25-.093-.14.671.202.188C2.297-3.938 2.516-4 2.845-4c1 0 1.422.516 1.422 1.594 0 1.219-.579 1.89-1.704 1.89-.546 0-.937-.14-1.296-.468C.984-1.25.859-1.438.578-2.25l-.562.219C.28-1.234.375-.797.469-.11c.765.25 1.281.343 1.734.343.953 0 2.14-.562 2.813-1.375.406-.484.64-1.109.64-1.671zm0 0"/></symbol><symbol overflow="visible" id="m"><path d="M8.266-2.766a1.332 1.332 0 0 1-.047-.359c0-.11.015-.234.062-.484h-3.25v-3.266c-.25.063-.375.078-.484.078-.125 0-.25-.016-.5-.078v3.266H.78c.063.25.063.375.063.484 0 .125 0 .25-.063.5h3.266V.641c.25-.063.375-.079.5-.079.11 0 .234.016.484.079v-3.266h3.25zm0 0"/></symbol><symbol overflow="visible" id="n"><path d="M4.75-5.703c-.297-.188-.797-.328-1.25-.328-.531 0-1.484.468-2.172 1.062C.641-4.375.156-3.03.156-1.75.156-.61.796.125 1.75.125c.656 0 1.328-.266 1.984-.813l.657-.53-.204-.485-.343.219c-.86.578-1.203.75-1.625.75-.672 0-.875-.36-.875-1.297 0-1.266.36-2.406.937-2.875.25-.203.453-.266.844-.266.531 0 .813.094.813.375v.86h.546c.11-.922.188-1.36.329-1.735zm0 0"/></symbol><symbol overflow="visible" id="o"><path d="M5.047-4.094c0-1.125-.734-1.937-1.719-1.937-.515 0-1.187.25-1.719.625-.968.703-1.546 2-1.546 3.453C.063-.687.734.125 1.734.125c.657 0 1.47-.344 2-.844.75-.703 1.313-2.156 1.313-3.375zm-1.188.203C3.86-2.75 3.531-1.578 3-.937c-.219.25-.422.359-.781.359-.703 0-.969-.406-.969-1.36 0-1.343.422-2.718 1.016-3.203.156-.125.328-.171.609-.171.734 0 .984.406.984 1.421zm0 0"/></symbol><symbol overflow="visible" id="p"><path d="M4.125-5.703c-.469-.219-.797-.328-1.203-.328-.61 0-1.453.39-2.031.968a1.63 1.63 0 0 0-.47 1.157c0 .672.516 1.187 1.298 1.344l.75.14c.531.094.578.156.578.64 0 .798-.406 1.173-1.25 1.173-.438 0-.703-.094-1-.344v-1.078H.234C.172-1.297.094-.875-.046-.25.453 0 .968.125 1.39.125c.578 0 1.234-.25 1.843-.719.61-.484.891-1.015.891-1.625 0-.64-.5-1.11-1.406-1.281l-.5-.094c-.719-.14-.813-.203-.813-.703 0-.625.39-.984 1.078-.984.485 0 .844.172 1 .422v.765h.532c.062-.547.109-.86.25-1.531zm0 0"/></symbol><symbol overflow="visible" id="q"><path d="M5.719-.094c-.016-.25-.016-.375-.016-.547 0-.14 0-.265.031-.671l-4.28.125.093.234 2.187-2.313C4.891-4.5 5.281-5.25 5.281-6.14 5.281-7.516 4.22-8.5 2.703-8.5c-.86 0-1.562.281-2.172.906L.312-5.766h.594l.188-.687c.203-.688.5-.86 1.297-.86 1.03 0 1.546.516 1.546 1.532 0 .89-.468 1.687-1.828 3.11L.047-.454v.5L2.859 0l2.875.047zm0 0"/></symbol><symbol overflow="visible" id="r"><path d="M2.969-1.25l-.172-.297-.453.297c-.36.234-.5.313-.625.313-.078 0-.016.03-.016-.11 0-.11 0-.203.078-.469l.922-3.64c.047-.203.063-.313.063-.422 0-.203-.22-.453-.422-.453-.266 0-.797.281-1.703.922l-.407.296.188.485.547-.36c.344-.218.375-.234.484-.234.11 0 .047-.031.047.11 0 .109-.047.359-.094.53L.625-1.405c-.11.375-.156.672-.156.922 0 .28.265.593.5.593.312 0 .844-.296 2.078-1.218zm.344-6.406c0-.282-.313-.61-.563-.61-.36 0-.844.516-.844.922 0 .297.328.625.625.625.375 0 .781-.484.781-.937zm0 0"/></symbol><symbol overflow="visible" id="s"><path d="M6.234-1.25l-.171-.297-.454.297c-.343.219-.5.313-.625.313-.078 0-.03.03-.03-.11 0-.047.015-.187.03-.234l.782-3.297c.093-.344.14-.688.14-.89 0-.266-.265-.563-.5-.563-.5 0-1.437.5-2.14 1.156-.454.422-.797.828-1.407 1.703l.235.094.453-1.938c.047-.203.078-.343.078-.484 0-.25-.234-.531-.406-.531-.266 0-.828.312-1.703.922l-.391.296.172.485.547-.36c.437-.28.39-.265.469-.265.14 0 .078 0 .078.172 0 .61-.5 2.922-.985 4.656l.172.25c.36-.094.625-.172 1.016-.234.234-1.625.468-2.313 1-3.125.656-1.016 1.453-1.72 1.984-1.72.125 0 .063-.015.063.157 0 .219-.032.469-.141.86l-.61 2.53c-.109.438-.156.72-.156.907 0 .297.266.61.5.61.313 0 .829-.282 2.079-1.22zm0 0"/></symbol><symbol overflow="visible" id="u"><path d="M6.438-14.938l-.188-.14c-.063-.063-.11-.125-.219-.328-2.843 2.828-4.515 6.469-4.515 10.469v3.64c0 4 1.671 7.625 4.515 10.469.11-.203.157-.266.219-.328.063-.063.125-.11.313-.203-2.704-2.72-3.86-6.125-3.86-9.938v-3.64c0-3.813 1.156-7.235 3.86-9.938zm0 0"/></symbol><symbol overflow="visible" id="v"><path d="M5.922-1.297v-3.64c0-4-1.672-7.641-4.516-10.47-.11.204-.156.266-.218.329-.047.047-.11.094-.297.203C3.578-12.172 4.75-8.75 4.75-4.937v3.64c0 3.813-1.172 7.219-3.86 9.938.188.093.25.14.297.203.063.062.11.125.22.328C4.25 6.328 5.921 2.703 5.921-1.297zm0 0"/></symbol><symbol overflow="visible" id="w"><path d="M2.703-1.531L2.47-1.75c-.36.125-.563.203-1.328.406C1.047-.328.78.344.016 1.625l.312.25.61-.281C1.905.328 2.405-.516 2.75-1.47zm0 0"/></symbol><symbol overflow="visible" id="y"><path d="M3.703-5.516c-.453.047-.86.063-1.156.063.172-.984.297-1.578.531-2.25l-.25-.328a7.16 7.16 0 0 1-1.094.531l-.296 2.031c-.391.203-.704.328-1.063.407l-.047.406h1l-.64 3.25C.625-1.11.53-.813.53-.5c0 .297.266.61.5.61.422 0 .922-.282 1.86-1.032.218-.172.14-.125.437-.36l-.25-.437-.672.469c-.36.25-.484.313-.625.313-.093 0-.031.046-.031-.11 0-.297.156-1.234.516-3l.14-.61h1.266l.203-.89zm0 0"/></symbol><symbol overflow="visible" id="z"><path d="M4.984-1.14l-.156-.485c-.25.203-.266.219-.328.266-.375.312-.453.39-.625.39-.125 0-.047.031-.047-.156 0-.047 0-.078.016-.125l1.11-4.578-.25-.203-.438.218c-.438-.156-.672-.218-.985-.218-.344 0-.578.062-.906.218-.75.375-1.234.766-1.531 1.36l-.047.094C.28-3.297-.093-1.875-.093-.922c0 .516.327 1.047.546 1.047.25 0 .797-.281 1.234-.656.516-.453.985-1.016 1.641-1.938l-.234-.094-.344 1.516a2.715 2.715 0 0 0-.078.61c0 .265.25.562.437.562.266 0 .86-.36 1.891-1.219zM3.672-5.079c-.266 1.281-.453 1.797-.844 2.406C2.156-1.656 1.516-.969 1.125-.969c-.14 0-.078-.015-.078-.344 0-.765.297-2.093.719-3.093.296-.688.453-.766 1.03-.766.282 0 .5.047.86.172zm0 0"/></symbol><symbol overflow="visible" id="A"><path d="M5.875-.906a2.838 2.838 0 0 1-.047-.5c0-.188.016-.344.094-.828-.625.484-.938.765-1.016.828v-6.36c-.25.063-.36.063-.484.063-.125 0-.234 0-.5-.063v7.36a6.44 6.44 0 0 0-.578.656c-.125-.172-.375-.438-.578-.656v-7.36c-.25.063-.375.063-.5.063-.11 0-.235 0-.5-.063v6.36c-.063-.063-.375-.344-1-.828.078.484.078.64.078.828 0 .156 0 .328-.047.562a16.35 16.35 0 0 1 2.547 2.547c.797-1 1.61-1.812 2.531-2.547zm0 0"/></symbol><symbol overflow="visible" id="B"><path d="M9.063-11.61v-.843H7.14L4.67 3.422h.282l-1.594-6H1.297v.969h.828l1.969 7.484c.281-.047.437-.047.61-.047.155 0 .312 0 .577.047l2.703-17.344h1.079zm0 0"/></symbol><symbol overflow="visible" id="D"><path d="M2.313-.766c0-.359-.454-.828-.829-.828-.359 0-.828.469-.828.828 0 .36.469.829.813.829.39 0 .843-.454.843-.829zm0 0"/></symbol><symbol overflow="visible" id="E"><path d="M9.688-20.219v-.843h-3.25v31.406h.265L3.36-3.437H1.297v.968h.828l4.094 16.953c.265-.046.422-.062.593-.062.157 0 .329.015.61.062v-34.562h2.266zm0 0"/></symbol><symbol overflow="visible" id="b"><path d="M4.875-4.406c-.125-.063-.313-.125-.406-.125-.39 0-.875.343-1.485 1.172l-.359.484.266.094-.063-.422c-.11-.875-.515-1.328-1.094-1.328-.25 0-.578.093-.656.218l-.656.875.406.22c.36-.376.453-.47.64-.47.313 0 .36.235.532 1.094l.094.531-.328.485C1.344-1 1.14-.75.859-.75c-.14 0-.093.11-.109.063l-.172-.407-.437.063c0 .297-.032.406-.094.687-.016.11-.016.14-.031.266.187.11.468.172.578.172.312 0 .797-.281 1.094-.703l.734-1.032-.266-.109.11.61c.14.765.5 1.234.859 1.234.203 0 .625-.188.938-.438l.53-.437-.202-.438c-.516.39-.641.485-.797.485-.14 0-.172-.047-.266-.235a2.77 2.77 0 0 1-.187-.656l-.188-.86.313-.374c.453-.563.593-.735.89-.735.157 0 .11-.062.235.235l.359-.11.172-.906zm0 0"/></symbol><symbol overflow="visible" id="t"><path d="M4.797-.11V-.5l-.61-.031c-.468-.031-.437-.016-.437-.547v-.531c.422 0 .625.015 1.047.062v-.781l-.047.094s-.578-.204-.89-.204h-.11V-3.53c0-1.578.031-2.344.078-2.781l-.281-.11-.813.281-2.796 4.188.187.344h2.5v.53c0 .532.063.532-.406.548L1.453-.5v.531L3.172 0l1.625.031zm-2-2.328H.969l1.922-2.89-.266-.094v2.984zm0 0"/></symbol><symbol overflow="visible" id="x"><path d="M4.922-4.422l-.172-.125c-.313.11-.547.156-.875.188L3.5-3.063c-.11.407-.406.97-.734 1.391-.329.453-.688.813-.891.813-.219 0-.047-.297-.047-.407l.14-1.718c.032-.282.048-.61.048-.86 0-.406-.22-.687-.391-.687-.125 0-.36.093-.828.39l-.89.547.265.39.64-.358c.047-.032.063-.063.141-.063.25 0 .047.313.047.453L.828-1.016l-.015.344c0 .375.343.766.578.766.359 0 1.28-.781 2-1.782l-.266-.109L2.656-.28c-.5 1.578-.828 2.094-1.5 2.094-.328 0-.453-.11-.453-.422 0-.047.016-.11.047-.266l-.297-.11-.594.376c-.015.14-.015.187-.015.234 0 .375.531.813.969.813 1.015 0 2.218-1.22 2.796-2.86l1.375-3.953zm0 0"/></symbol><symbol overflow="visible" id="C"><path d="M4.75-.11c-.016-.187-.016-.265-.016-.39s0-.203.032-.547l-3.141.094 1.5-1.469c.938-.922 1.281-1.5 1.281-2.172 0-1.015-.906-1.781-2.14-1.781-.688 0-1.282.219-1.782.703l-.187 1.39h.547l.172-.53c.156-.516.359-.61 1-.61.843 0 1.203.344 1.203 1.094 0 .672-.36 1.234-1.453 2.297L.078-.391v.422L2.406 0l2.36.031zm0 0"/></symbol><symbol overflow="visible" id="F"><path d="M6.125-3.063a1.253 1.253 0 0 0-.094-.562c-.125-.266-.656-.906-.922-.906-.218 0-.468.062-1.046.328-.125.062-.594.39-.844.64-.094.094-.219.36-.266.5L2.375-.53c-.64-.047-.938-.297-.906-.938.047-1 .625-1.937 1.39-2.312.11-.063.282-.094.532-.125.156-.11.14-.11.234-.266-.016-.125-.203-.266-.234-.266-.204 0-.594.172-.907.297-1.171.516-2 1.547-2.062 2.657C.375-.531 1.109.094 2.25.094c.047 0 .11 0-.031.031l-.5 1.813-.094.359.188.172c.25-.078.437-.125.875-.188l.515-2.297a5.639 5.639 0 0 0 1.297-.5c.875-.53 1.594-1.64 1.625-2.546zm-1.047.141c-.062.86-.594 1.688-1.281 2.156-.203.141-.36.204-.469.204l.203-.875c.156-.704.422-2.047.656-2.22.125-.14.282-.187.61-.187.266 0 .312.453.281.922zm0 0"/></symbol></defs><use xlink:href="#a" x=".671" y="17.537"/><use xlink:href="#b" x="6.649" y="20.311"/><use xlink:href="#c" x="12.149" y="17.537"/><use xlink:href="#d" x="17.218" y="17.537"/><use xlink:href="#e" x="24.845" y="17.537"/><use xlink:href="#f" x="33.226" y="17.537"/><use xlink:href="#g" x="45.636" y="17.537"/><use xlink:href="#b" x="52.947" y="20.311"/><use xlink:href="#h" x="61.104" y="17.537"/><use xlink:href="#i" x="72.844" y="17.537"/><use xlink:href="#b" x="80.151" y="20.311"/><use xlink:href="#f" x="88.972" y="17.537"/><use xlink:href="#j" x="102.575" y="8.929"/><path d="M102.574 14.547h5.977" fill="none" stroke-width=".717" stroke="#000" stroke-miterlimit="10"/><use xlink:href="#k" x="102.575" y="25.499"/><use xlink:href="#c" x="109.748" y="17.537"/><use xlink:href="#l" x="114.817" y="17.537"/><use xlink:href="#m" x="123.449" y="17.537"/><use xlink:href="#n" x="135.189" y="17.537"/><use xlink:href="#o" x="140.174" y="17.537"/><use xlink:href="#p" x="145.482" y="17.537"/><use xlink:href="#c" x="150.133" y="17.537"/><use xlink:href="#d" x="155.202" y="17.537"/><use xlink:href="#e" x="162.829" y="17.537"/><use xlink:href="#e" x="167.898" y="17.537"/><use xlink:href="#h" x="175.621" y="17.537"/><use xlink:href="#n" x="187.361" y="17.537"/><use xlink:href="#o" x="192.346" y="17.537"/><use xlink:href="#p" x="197.655" y="17.537"/><use xlink:href="#c" x="202.305" y="17.537"/><use xlink:href="#d" x="208.58" y="8.929"/><path d="M208.578 14.547h7.629" fill="none" stroke-width=".717" stroke="#000" stroke-miterlimit="10"/><use xlink:href="#q" x="209.405" y="25.499"/><use xlink:href="#e" x="217.403" y="17.537"/><use xlink:href="#f" x="225.784" y="17.537"/><use xlink:href="#q" x="238.193" y="17.537"/><use xlink:href="#p" x="244.171" y="17.537"/><use xlink:href="#r" x="248.821" y="17.537"/><use xlink:href="#s" x="252.336" y="17.537"/><use xlink:href="#t" x="258.989" y="13.305"/><use xlink:href="#u" x="266.482" y="17.537"/><use xlink:href="#d" x="275.138" y="8.929"/><path d="M275.137 14.547h7.629" fill="none" stroke-width=".717" stroke="#000" stroke-miterlimit="10"/><use xlink:href="#k" x="275.963" y="25.499"/><use xlink:href="#v" x="283.961" y="17.537"/><use xlink:href="#w" x="296.394" y="17.537"/><use xlink:href="#a" x=".609" y="47.501"/><use xlink:href="#x" x="6.587" y="50.275"/><use xlink:href="#c" x="12.149" y="47.501"/><use xlink:href="#d" x="17.218" y="47.501"/><use xlink:href="#e" x="24.845" y="47.501"/><use xlink:href="#f" x="33.226" y="47.501"/><use xlink:href="#g" x="45.636" y="47.501"/><use xlink:href="#x" x="52.947" y="50.275"/><use xlink:href="#h" x="61.166" y="47.501"/><use xlink:href="#i" x="72.906" y="47.501"/><use xlink:href="#x" x="80.213" y="50.275"/><use xlink:href="#f" x="89.096" y="47.501"/><use xlink:href="#j" x="102.699" y="38.893"/><path d="M102.7 44.512h5.976" fill="none" stroke-width=".717" stroke="#000" stroke-miterlimit="10"/><use xlink:href="#k" x="102.699" y="55.463"/><use xlink:href="#u" x="111.864" y="47.501"/><use xlink:href="#q" x="119.324" y="47.501"/><use xlink:href="#y" x="125.302" y="47.501"/><use xlink:href="#z" x="129.343" y="47.501"/><use xlink:href="#s" x="134.651" y="47.501"/><use xlink:href="#u" x="143.282" y="47.501"/><use xlink:href="#d" x="151.946" y="38.893"/><path d="M151.945 44.512h7.63" fill="none" stroke-width=".717" stroke="#000" stroke-miterlimit="10"/><use xlink:href="#q" x="152.771" y="55.463"/><use xlink:href="#v" x="160.769" y="47.501"/><use xlink:href="#m" x="170.883" y="47.501"/><use xlink:href="#p" x="182.623" y="47.501"/><use xlink:href="#r" x="187.274" y="47.501"/><use xlink:href="#s" x="190.789" y="47.501"/><use xlink:href="#c" x="197.436" y="47.501"/><use xlink:href="#d" x="202.505" y="47.501"/><use xlink:href="#e" x="210.132" y="47.501"/><use xlink:href="#v" x="215.201" y="47.501"/><use xlink:href="#h" x="225.315" y="47.501"/><use xlink:href="#p" x="237.055" y="47.501"/><use xlink:href="#r" x="241.706" y="47.501"/><use xlink:href="#s" x="245.221" y="47.501"/><use xlink:href="#c" x="251.868" y="47.501"/><use xlink:href="#d" x="258.142" y="38.893"/><path d="M258.14 44.512h7.63" fill="none" stroke-width=".717" stroke="#000" stroke-miterlimit="10"/><use xlink:href="#q" x="258.967" y="55.463"/><use xlink:href="#e" x="266.965" y="47.501"/><use xlink:href="#w" x="275.023" y="47.501"/><use xlink:href="#A" x="33.235" y="70.672"/><use xlink:href="#a" x="6.04" y="99.389"/><use xlink:href="#c" x="12.137" y="99.389"/><use xlink:href="#d" x="17.206" y="99.389"/><use xlink:href="#e" x="24.834" y="99.389"/><use xlink:href="#f" x="33.226" y="99.389"/><use xlink:href="#B" x="45.642" y="99.271"/><path d="M54.215 87.434h37.617" fill="none" stroke-width=".717" stroke="#000" stroke-miterlimit="10"/><use xlink:href="#a" x="54.214" y="99.389"/><use xlink:href="#C" x="60.323" y="95.85"/><use xlink:href="#b" x="60.191" y="102.163"/><use xlink:href="#m" x="68.48" y="99.389"/><g><use xlink:href="#a" x="80.22" y="99.389"/></g><g><use xlink:href="#C" x="86.332" y="95.85"/></g><g><use xlink:href="#x" x="86.2" y="102.163"/></g><g><use xlink:href="#f" x="95.153" y="99.389"/></g><g><use xlink:href="#D" x="110.539" y="99.389"/><use xlink:href="#D" x="113.528" y="99.389"/><use xlink:href="#D" x="116.517" y="99.389"/></g><g><use xlink:href="#f" x="125.818" y="99.389"/></g><g><use xlink:href="#q" x="138.228" y="99.389"/><use xlink:href="#p" x="144.205" y="99.389"/><use xlink:href="#r" x="148.856" y="99.389"/></g><g><use xlink:href="#s" x="152.371" y="99.389"/></g><g><use xlink:href="#t" x="159.022" y="95.157"/></g><g><use xlink:href="#c" x="164.522" y="99.389"/></g><g><use xlink:href="#d" x="170.786" y="90.781"/></g><path d="M170.785 96.398h7.63" fill="none" stroke-width=".717" stroke="#000" stroke-miterlimit="10"/><g><use xlink:href="#q" x="171.611" y="107.351"/></g><g><use xlink:href="#e" x="179.609" y="99.389"/></g><g><use xlink:href="#E" x="184.678" y="100.51"/></g><path d="M193.883 80.066h41.695" fill="none" stroke-width=".717" stroke="#000" stroke-miterlimit="10"/><g><use xlink:href="#j" x="211.742" y="90.781"/></g><path d="M195.078 96.398h39.305" fill="none" stroke-width=".717" stroke="#000" stroke-miterlimit="10"/><g><use xlink:href="#n" x="195.079" y="109.793"/></g><g><use xlink:href="#o" x="200.064" y="109.793"/><use xlink:href="#p" x="205.372" y="109.793"/></g><g><use xlink:href="#C" x="210.023" y="106.254"/></g><g><use xlink:href="#c" x="215.524" y="109.793"/></g><g><use xlink:href="#F" x="221.788" y="102.939"/></g><path d="M221.79 106.805h6.327" fill="none" stroke-width=".717" stroke="#000" stroke-miterlimit="10"/><g><use xlink:href="#C" x="222.452" y="114.325"/></g><g><use xlink:href="#e" x="229.314" y="109.793"/></g></svg>