<svg xmlns:xlink="http://www.w3.org/1999/xlink" width="83.167ex" height="8ex" style="vertical-align:-3.5ex;margin-bottom:1px;margin-top:1px" viewBox="0 -1988.9 35801 3477.8" xmlns="http://www.w3.org/2000/svg"><defs><path stroke-width="10" id="a" d="M192 53c0-29-24-53-53-53S86 24 86 53s24 53 53 53 53-24 53-53z"/><path stroke-width="10" id="b" d="M722 347c0-11-9-20-20-20H76c-11 0-20 9-20 20s9 20 20 20h626c11 0 20-9 20-20zm0-194c0-11-9-20-20-20H76c-11 0-20 9-20 20s9 20 20 20h626c11 0 20-9 20-20z"/><path stroke-width="10" id="c" d="M571 143c0-8-37-154-131-154-47 0-82 35-82 82 0 11 1 23 10 46 16 43 65 171 65 233 0 33-9 70-54 70-95 0-148-91-163-122l-13-50c-5-23-11-45-17-67l-22-90c-6-25-18-72-19-74-7-20-25-28-37-28-15 0-29 9-29 27 0 5 6 28 9 43l58 231c13 52 16 63 16 84 0 33-11 46-31 46-36 0-56-48-73-119-6-22-7-23-17-23 0 0-12 0-12 10 0 4 14 63 30 97 10 18 29 57 75 57s87-31 92-87c17 23 66 87 156 87 72 0 115-40 115-107 0-57-42-167-61-220-9-22-18-46-18-71 0-23 7-33 24-33 49 0 82 56 102 124 5 15 5 18 15 18 3 0 12 0 12-10z"/><path stroke-width="10" id="h" d="M332-238c0-5-5-10-10-10-2 0-4 1-6 2-110 83-215 283-215 454v84c0 171 105 371 215 454 2 1 4 2 6 2 5 0 10-5 10-10 0-3-2-6-4-8-104-78-173-278-173-438v-84c0-160 69-360 173-438 2-2 4-5 4-8z"/><path stroke-width="10" id="e" d="M527 376c0-40-32-58-54-58-27 0-38 19-38 35 0 24 20 49 48 54-21 13-45 13-50 13-70 0-93-92-99-118l-34-137c-11-44-17-66-17-88 0-34 16-66 55-66 32 0 100 24 133 131 2 7 4 11 13 11 3 0 12 0 12-10 0-25-57-154-160-154-60 0-96 39-108 76-3-6-39-76-105-76-44 0-94 20-94 66 0 32 25 58 55 58 15 0 37-8 37-35 0-28-22-49-47-54 21-13 44-13 50-13 44 0 79 42 95 104 37 140 54 207 54 238 0 58-35 67-54 67-34 0-100-25-134-131-2-9-5-11-13-11 0 0-12 0-12 10 0 25 57 154 161 154 29 0 83-10 108-76 12 23 47 76 105 76 34 0 93-14 93-66z"/><path stroke-width="10" id="f" d="M192 665l-39-456c-1-17-4-22-14-22-12 0-13 8-14 23L86 665c0 33 27 51 53 51s53-18 53-51zm0-612c0-29-24-53-53-53S86 24 86 53s24 53 53 53 53-24 53-53z"/><path stroke-width="10" id="g" d="M490 404c0-7 0-9-4-23L390-1c-28-113-131-204-234-204-62 0-106 37-106 87 0 49 33 65 56 65 10 0 37-4 37-35 0-19-10-32-20-41-14-12-27-12-43-12 17-39 62-42 76-42 46 0 84 29 110 63 40 53 52 102 65 154-28-28-62-45-101-45-59 0-122 30-122 119 0 47 18 104 58 210 7 19 17 45 17 70 0 32-17 32-25 32-34 0-74-30-101-124-5-16-6-18-16-18 0 0-12 0-12 10 0 9 37 154 132 154 50 0 82-37 82-82 0-20-4-31-20-72-34-88-51-150-51-196 0-37 11-81 62-81 66 0 109 70 113 85l45 180 20 80c4 18 12 49 14 54 9 15 25 21 35 21 15 0 29-9 29-27z"/><path stroke-width="10" id="i" d="M722 250c0-11-9-20-20-20H76c-11 0-20 9-20 20s9 20 20 20h626c11 0 20-9 20-20z"/><path stroke-width="10" id="j" d="M288 208c0-171-105-371-215-454-2-1-4-2-6-2-5 0-10 5-10 10 0 3 2 6 4 8 104 78 173 278 173 438v84c0 160-69 360-173 438-2 2-4 5-4 8 0 5 5 10 10 10 2 0 4-1 6-2 110-83 215-283 215-454v-84z"/><path stroke-width="10" id="k" d="M330 420c0-20-10-20-30-20h-94l-74-295c-4-17-6-24-6-48 0-33 10-46 31-46 34 0 87 24 130 128 5 11 6 14 15 14 4 0 12 0 12-10 0-8-57-154-159-154-54 0-92 38-92 92 0 18 4 35 76 319H51c-20 0-28 0-28 12 0 19 10 19 30 19h94l39 159c9 35 37 36 40 36 17 0 29-10 29-27 0-6-5-26-41-168h88c18 0 28 0 28-11z"/><path stroke-width="10" id="l" d="M419 0c-35 3-122 3-162 3S130 3 95 0v31h32c90 0 93 12 93 48v518c-52-26-111-26-131-26v31c32 0 120 0 182 64 23 0 23-2 23-26V79c0-37 3-48 93-48h32V0z"/><path stroke-width="10" id="m" d="M508 379c0-39-29-61-55-61-27 0-38 19-38 35 0 12 9 51 57 54-2 2-2 3-4 4-8 6-9 6-21 8-2 1-3 1-9 1-49 0-95-43-143-96-23-24-55-56-86-74 85-11 148-40 148-105 0-10 0-14-4-31-4-16-8-39-8-56 0-36 13-47 32-47 44 0 67 51 87 124 3 14 4 18 14 18 3 0 12 0 12-10 0 0-11-57-36-101-22-37-49-53-79-53-52 0-92 40-92 99 0 11 2 23 4 35 3 10 3 14 3 21 0 66-82 82-116 85-6-25-51-210-56-219-6-12-21-21-34-21-9 0-29 5-29 28 0 6 0 8 4 22l145 576 3 20c0 10-2 17-50 17-15 0-24 0-24 12 0 18 11 19 19 20 26 2 99 10 122 10 13 0 13-11 13-11L183 261c38 15 77 55 111 93 72 80 118 88 146 88 45 0 68-33 68-63z"/><path stroke-width="10" id="d" d="M539-632c0-8-6-14-14-14-3 0-6 1-9 2-175 132-337 475-337 776v236c0 301 162 644 337 776 3 1 6 2 9 2 8 0 14-6 14-14 0-5-2-9-5-12-167-125-283-466-283-752V132c0-286 116-627 283-752 3-3 5-7 5-12z"/><path stroke-width="10" id="n" d="M418 132c0-301-162-644-337-776-3-1-6-2-9-2-8 0-14 6-14 14 0 5 2 9 5 12 167 125 283 466 283 752v236c0 286-116 627-283 752-3 3-5 7-5 12 0 8 6 14 14 14 3 0 6-1 9-2 175-132 337-475 337-776V132z"/><path stroke-width="10" id="o" d="M203 1c0-117-80-194-91-194-5 0-10 4-10 11 0 3 0 5 11 16 33 33 68 93 68 167 0 14-2 15-2 15s-2-1-5-3c-10-9-23-13-35-13-33 0-53 26-53 53 0 28 20 53 53 53 39 0 64-39 64-105z"/><path stroke-width="10" id="p" d="M691 372c0-48-32-182-66-260-26-60-70-123-145-123-30 0-99 6-125 70-40-70-87-70-104-70-75 0-142 35-142 126 0 38 12 84 56 202 7 17 18 45 18 70 0 32-16 33-25 33-35 0-74-31-101-124-5-16-6-18-16-18 0 0-12 0-12 10 0 9 37 154 132 154 49 0 82-37 82-82 0-20-6-34-17-64-47-123-52-162-52-194 0-17 0-91 80-91 39 0 69 31 92 84-1 5-1 7-1 18 0 18 2 36 9 66 7 26 54 217 57 224 7 20 25 28 37 28 15 0 29-9 29-27 0-6-10-43-15-65l-42-168c-4-14-11-45-11-73 0-57 27-87 74-87 49 0 84 35 110 88 26 51 55 149 55 183 0 48-25 74-36 85-9 8-15 14-15 27 0 22 25 48 50 48 17 0 44-15 44-70z"/><path stroke-width="10" id="q" d="M284 625c0-30-30-53-53-53-24 0-38 17-38 36 0 27 27 53 54 53 23 0 37-16 37-36zm9-482c0-9-37-154-131-154-48 0-82 35-82 82 0 21 13 54 23 80 16 43 61 159 69 185 4 10 11 31 11 52 0 32-17 32-25 32-34 0-74-30-101-124-5-16-6-18-16-18 0 0-12 0-12 10 0 9 38 154 132 154 50 0 82-37 82-82 0-19-5-33-13-53-10-27-10-29-22-58l-39-105c-23-61-29-75-29-100 0-23 7-33 24-33 51 0 84 61 102 124 5 15 5 18 15 18 3 0 12 0 12-10z"/><path stroke-width="10" id="r" d="M546 143c0-8-37-154-131-154-47 0-82 35-82 82 0 20 5 32 13 55 24 61 62 170 62 224 0 36-11 70-54 70s-74-19-96-35c-34-27-65-83-68-92-1-6-9-39-11-45-5-23-11-45-17-67l-22-90-19-76c-5-14-21-26-37-26-9 0-29 5-29 28 0 6 0 8 4 22l145 576 3 20c0 10-2 17-50 17-15 0-24 0-24 12 0 18 11 19 19 20 26 2 99 10 122 10 13 0 13-11 13-11l-78-318c37 46 85 77 148 77 75 0 115-42 115-107 0-58-45-177-61-220-9-22-18-46-18-71 0-23 7-33 24-33 55 0 87 71 102 124 5 15 5 18 15 18 3 0 12 0 12-10z"/><path stroke-width="10" id="t" d="M756 545c0-95-105-169-209-188 97-11 155-69 155-141C702 118 584 0 426 0H69C51 0 42 0 42 11c0 20 10 20 27 20 79 0 81 8 91 47l134 537c3 12 4 15 4 19 0 13-9 14-27 16-17 2-38 2-38 2-19 0-28 0-28 11 0 20 10 20 29 20h336c120 0 186-64 186-138zm-91 4c0 44-21 103-109 103H427c-43 0-45-3-54-38l-62-248h146c122 0 208 95 208 183zm-56-322c0 43-19 117-115 117H305L236 65c-5-18-5-20-5-23 0-8 3-9 13-10 6-1 8-1 22-1h136c118 0 207 97 207 196z"/><path stroke-width="10" id="s" d="M395-336c0-6-5-11-11-11-3 0-5 1-7 2-127 96-246 330-246 531v128c0 201 119 435 246 531 2 1 4 2 7 2 6 0 11-5 11-11 0-4-2-7-4-9-120-90-202-324-202-513V186c0-189 82-423 202-513 2-2 4-5 4-9z"/><path stroke-width="10" id="u" d="M327 186c0-201-119-435-246-531-2-1-4-2-7-2-6 0-11 5-11 11 0 4 2 7 4 9C187-237 269-3 269 186v128c0 189-82 423-202 513-2 2-4 5-4 9 0 6 5 11 11 11 3 0 5-1 7-2 127-96 246-330 246-531V186z"/></defs><g stroke="currentColor" fill="currentColor" stroke-width="0"><g transform="matrix(1 0 0 -1 156 -818)"><use xlink:href="#a"/><use xlink:href="#a" x="449"/><use xlink:href="#a" x="899"/></g><g transform="matrix(1 0 0 -1 156 1101)"><use xlink:href="#a"/><use xlink:href="#a" x="449"/><use xlink:href="#a" x="899"/></g><g><g transform="matrix(1 0 0 -1 2338 -818)"><use xlink:href="#b"/><use xlink:href="#c" x="1060"/><g transform="translate(1832)"><use xlink:href="#d"/><path stroke="none" d="M722 220h2739v60H722z"/><g transform="matrix(.707 0 0 .707 1787 459)"><use xlink:href="#e"/><use xlink:href="#f" x="577"/></g><g transform="matrix(.707 0 0 .707 782 -481)"><use xlink:href="#g"/><use xlink:href="#f" x="495"/><use xlink:href="#h" x="778"/><use xlink:href="#e" x="1172"/><use xlink:href="#i" x="1749"/><use xlink:href="#g" x="2532"/><use xlink:href="#j" x="3027"/><use xlink:href="#f" x="3421"/></g><g transform="translate(3581)"><use xlink:href="#k"/><use transform="scale(.707)" xlink:href="#g" x="517" y="513"/></g><use xlink:href="#h" x="4397"/><use xlink:href="#l" x="4791"/><use xlink:href="#i" x="5518"/><use xlink:href="#k" x="6523"/><g transform="translate(6889)"><use xlink:href="#j"/><g transform="matrix(.707 0 0 .707 394 362)"><use xlink:href="#e"/><use xlink:href="#i" x="577"/><use xlink:href="#g" x="1360"/></g></g><use xlink:href="#i" x="8917"/><path stroke="none" d="M10042 220h2782v60h-2782z"/><g transform="matrix(.707 0 0 .707 11129 459)"><use xlink:href="#e"/><use xlink:href="#f" x="577"/></g><g transform="matrix(.707 0 0 .707 10102 -481)"><use xlink:href="#m"/><use xlink:href="#f" x="526"/><use xlink:href="#h" x="809"/><use xlink:href="#e" x="1203"/><use xlink:href="#i" x="1780"/><use xlink:href="#m" x="2563"/><use xlink:href="#j" x="3089"/><use xlink:href="#f" x="3483"/></g><g transform="translate(12945)"><use xlink:href="#k"/><use transform="scale(.707)" xlink:href="#m" x="517" y="513"/></g><use xlink:href="#h" x="13783"/><use xlink:href="#l" x="14177"/><use xlink:href="#i" x="14904"/><use xlink:href="#k" x="15910"/><g transform="translate(16276)"><use xlink:href="#j"/><g transform="matrix(.707 0 0 .707 394 362)"><use xlink:href="#e"/><use xlink:href="#i" x="577"/><use xlink:href="#m" x="1360"/></g></g><use xlink:href="#n" x="18103"/></g><use xlink:href="#o" x="21036"/><use xlink:href="#p" x="21818"/><use xlink:href="#q" x="22539"/><use xlink:href="#k" x="22889"/><use xlink:href="#r" x="23255"/><use xlink:href="#e" x="24168"/><use xlink:href="#b" x="25023"/><use xlink:href="#c" x="26083"/><use xlink:href="#i" x="26911"/><use xlink:href="#l" x="27916"/><use xlink:href="#o" x="28421"/><use xlink:href="#g" x="29203"/><use xlink:href="#b" x="29975"/><use xlink:href="#m" x="31036"/><use xlink:href="#i" x="31784"/><use xlink:href="#l" x="32790"/></g><g transform="matrix(1 0 0 -1 2338 1101)"><use xlink:href="#b"/><use xlink:href="#c" x="1060"/><g transform="translate(1832)"><use xlink:href="#s"/><g transform="translate(463)"><use xlink:href="#t"/><g transform="matrix(.707 0 0 .707 764 -192)"><use xlink:href="#h"/><use xlink:href="#c" x="394"/><use xlink:href="#i" x="999"/><use xlink:href="#l" x="1782"/><use xlink:href="#j" x="2287"/><use xlink:href="#o" x="2681"/><use xlink:href="#h" x="2964"/><use xlink:href="#m" x="3358"/><use xlink:href="#i" x="3884"/><use xlink:href="#l" x="4667"/><use xlink:href="#j" x="5172"/></g></g><use xlink:href="#h" x="5262"/><use xlink:href="#k" x="5656"/><use xlink:href="#j" x="6022"/><use xlink:href="#i" x="6638"/><g transform="translate(7644)"><use xlink:href="#t"/><g transform="matrix(.707 0 0 .707 764 -192)"><use xlink:href="#h"/><use xlink:href="#c" x="394"/><use xlink:href="#i" x="999"/><use xlink:href="#l" x="1782"/><use xlink:href="#j" x="2287"/><use xlink:href="#o" x="2681"/><use xlink:href="#m" x="2964"/></g></g><use xlink:href="#h" x="10976"/><use xlink:href="#k" x="11370"/><use xlink:href="#j" x="11736"/><use xlink:href="#u" x="12130"/></g></g></g></g></svg>