<svg xmlns="http://www.w3.org/2000/svg" xmlns:xlink="http://www.w3.org/1999/xlink" width="493pt" height="88" viewBox="0 0 493 66"><defs><symbol overflow="visible" id="a"><path d="M5.078-14.516H1.703V0h.969v-14.031h2.406c-.016-.078-.031-.156-.031-.235 0-.093.016-.171.031-.25zm0 0"/></symbol><symbol overflow="visible" id="b"><path d="M2.672-9.688h-.969V0h.969zm0 0"/></symbol><symbol overflow="visible" id="c"><path d="M5.078 0c-.016-.078-.031-.156-.031-.234 0-.094.016-.172.031-.25H2.672v-14.032h-.969V0zm0 0"/></symbol><symbol overflow="visible" id="d"><path d="M5 .031v-.36l-.625-.03c-.656-.032-.781-.172-.781-.782v-7.093l-.156-.063c-.782.406-1.626.766-2.72 1.156l.079.5h.125l1.547-.687.031-.016c.063 0 .094.11.094.407v5.796c0 .61-.125.75-.781.782l-.672.03v.36L3.125 0zm0 0"/></symbol><symbol overflow="visible" id="e"><path d="M5.563-4.375c0-2.625-.782-3.86-2.422-3.86-1.844 0-2.797 1.47-2.797 4.36 0 1.406.25 2.61.672 3.188.421.593 1.093.921 1.828.921 1.812 0 2.719-1.546 2.719-4.609zm-1.016.594c0 2.547-.453 3.61-1.547 3.61-1.156 0-1.656-1.22-1.656-4.126 0-2.531.453-3.516 1.578-3.516 1.172 0 1.625 1.172 1.625 4.032zm0 0"/></symbol><symbol overflow="visible" id="f"><path d="M8.125-2.625c-.016-.125-.031-.25-.031-.36 0-.124.015-.25.031-.359H.953c.031.11.031.235.031.36 0 .109 0 .234-.03.359zm0 0"/></symbol><symbol overflow="visible" id="g"><path d="M5.516-2.672c0-.578-.235-1.078-.657-1.375-.312-.219-.578-.312-1.171-.422C4.64-5.219 5-5.766 5-6.469c0-1.062-.89-1.765-2.219-1.765-.812 0-1.344.218-1.922.796L.516-5.952H.89l.203-.672c.14-.406.89-.813 1.515-.813.766 0 1.407.641 1.407 1.391 0 .89-.704 1.64-1.547 1.64-.11 0-.563-.03-.563-.03l-.156.64.094.063c.453-.204.672-.266 1-.266 1 0 1.562.64 1.562 1.734 0 1.22-.718 2.016-1.843 2.016a2.035 2.035 0 0 1-1.391-.516C.89-1.03.734-1.296.5-1.953l-.328.125c.266.734.36 1.156.422 1.75.64.219 1.156.312 1.61.312.952 0 2.046-.53 2.702-1.328.407-.5.61-1.015.61-1.578zm0 0"/></symbol><symbol overflow="visible" id="h"><path d="M5.594-2.625C5.594-4 4.766-4.891 3.5-4.891c-.703 0-1.14.282-1.938.938.25-2.172 1.266-3.344 3.407-3.985v-.093l-.438-.203c-1.156.375-1.64.625-2.25 1.14C1.047-6.047.375-4.594.375-2.954c0 1.97.969 3.188 2.5 3.188 1.563 0 2.719-1.218 2.719-2.859zm-1.032.422c0 1.25-.609 2.047-1.53 2.047-1.016 0-1.563-.875-1.563-2.469 0-.422.047-.656.187-.86.25-.406.813-.687 1.39-.687.907 0 1.517.797 1.517 1.969zm0 0"/></symbol><symbol overflow="visible" id="i"><path d="M4.516 0v-14.516H1.14a.648.648 0 0 1 0 .485h2.421V0zm0 0"/></symbol><symbol overflow="visible" id="j"><path d="M4.516 0v-9.688h-.954V0zm0 0"/></symbol><symbol overflow="visible" id="k"><path d="M4.516 0v-14.516h-.954V-.484H1.142a.648.648 0 0 1 0 .484zm0 0"/></symbol><symbol overflow="visible" id="n"><path d="M2.39-2.984c0-.438-.28-.72-.718-.72-.422 0-.719.282-.719.72 0 .421.297.718.719.718.437 0 .719-.296.719-.718zm0 0"/></symbol><symbol overflow="visible" id="r"><path d="M5.594.031c-.032-.25-.032-.36-.032-.531 0-.156 0-.281.032-.547l-4.14.125L3.64-3.234c1.156-1.22 1.515-1.875 1.515-2.782 0-1.375-.937-2.218-2.453-2.218-.86 0-1.453.234-2.031.828l-.203 1.64h.344l.156-.562c.187-.688.625-.984 1.422-.984 1.03 0 1.687.64 1.687 1.656 0 .906-.5 1.781-1.86 3.218L.189-.28V.03L2.858 0zm0 0"/></symbol><symbol overflow="visible" id="s"><path d="M8.125-3.938c-.016-.124-.031-.25-.031-.359 0-.125.015-.25.031-.36H.953c.031.11.031.235.031.36 0 .11 0 .234-.03.36zm0 2.626c-.016-.125-.031-.235-.031-.36s.015-.234.031-.36H.953a1.4 1.4 0 0 1 .031.36c0 .125 0 .234-.03.36zm0 0"/></symbol><symbol overflow="visible" id="t"><path d="M9.016-7.938v-.328c-.391.016-.766.032-1.157.032l-1.468-.032v.329l.296.03c.454.032.688.157.688.376 0 .125-.047.265-.188.5l-3.484 5.89-.844-6.312c-.046-.375.172-.453.5-.453l.5-.032v-.328l-1.484.032-1.484-.032v.329l.296.03c.532.048.657.126.72.563L2.952.094h.578l4.531-7.39c.297-.485.391-.579.735-.61zm0 0"/></symbol><symbol overflow="visible" id="l"><path d="M6.016-1.953a1.368 1.368 0 0 1-.032-.25c0-.094.016-.188.032-.266H.703c.016.078.031.172.031.266 0 .078-.015.172-.03.25zm0 0"/></symbol><symbol overflow="visible" id="m"><path d="M4.125.031v-.265l-.516-.032c-.515-.03-.625-.125-.625-.578v-5.25L2.86-6.14c-.625.297-1.312.563-2.203.86l.078.375h.094l1.25-.516.031-.016c.047 0 .079.094.079.297v4.297c0 .453-.11.547-.626.578l-.546.032V.03L2.594 0zm0 0"/></symbol><symbol overflow="visible" id="o"><path d="M4.594.031c-.016-.187-.016-.281-.016-.406 0-.11 0-.203.016-.39l-3.328.078 1.75-1.704c.937-.906 1.234-1.39 1.234-2.062 0-1.016-.75-1.64-1.984-1.64-.688 0-1.172.171-1.641.624L.469-4.266H.75l.11-.406c.171-.516.515-.734 1.156-.734.828 0 1.359.468 1.359 1.218 0 .672-.406 1.329-1.484 2.391L.234-.203V.03L2.391 0zm0 0"/></symbol><symbol overflow="visible" id="p"><path d="M5.813-4.25l-.063-.11c-.266.079-.703.173-1.016.173-.125 0-.359.015-.609.015-.531 0-1.64-.078-2.063-.078-.734 0-1 .281-1.312 1.063l.125.062.094-.063c.219-.53.61-.546 1.156-.546l.984.03c-.187.5-.843 2.173-.875 2.75-.046.938.313 1.048.61 1.048.5 0 .781-.11 1.406-.578l-.063-.172-.234.156s-.265.188-.422.188c-.469 0-.578-.266-.547-.813 0-.219.032-.453.11-.719l.515-1.828.625.016c.235 0 .47-.016.688-.047.172 0 .39-.078.547-.14.11-.188.14-.204.343-.407zm0 0"/></symbol><symbol overflow="visible" id="q"><path d="M3.078-3.89c-.375.03-.703.046-1.062.046.156-.828.25-1.265.437-1.734l-.11-.14c-.187.109-.452.218-.75.327l-.234 1.5c-.437.188-.687.282-.859.329l-.016.109h.813L.75-.953C.703-.72.625-.5.625-.281c0 .234.11.36.297.36.328 0 .656-.173 1.422-.735.172-.125.11-.094.297-.219l-.094-.156-.438.265c-.28.188-.468.266-.593.266-.063 0-.125-.063-.125-.172 0-.234.125-.922.421-2.234l.125-.547H2.97zm0 0"/></symbol></defs><use xlink:href="#a" x="-1.134" y="21.724"/><use xlink:href="#b" x="-1.134" y="30.425"/><use xlink:href="#b" x="-1.134" y="38.453"/><use xlink:href="#b" x="-1.134" y="46.481"/><use xlink:href="#c" x="-1.134" y="60.012"/><use xlink:href="#d" x="9.638" y="14.832"/><use xlink:href="#e" x="34.66" y="14.832"/><use xlink:href="#e" x="59.682" y="14.832"/><use xlink:href="#e" x="80.174" y="14.832"/><use xlink:href="#f" x="5.095" y="29.277"/><use xlink:href="#g" x="14.181" y="29.277"/><use xlink:href="#g" x="34.66" y="29.277"/><use xlink:href="#e" x="59.682" y="29.277"/><use xlink:href="#e" x="80.174" y="29.277"/><use xlink:href="#g" x="9.638" y="43.723"/><use xlink:href="#f" x="30.117" y="43.723"/><use xlink:href="#h" x="39.203" y="43.723"/><use xlink:href="#g" x="59.682" y="43.723"/><use xlink:href="#e" x="80.174" y="43.723"/><use xlink:href="#f" x="5.095" y="58.169"/><use xlink:href="#d" x="14.181" y="58.169"/><use xlink:href="#g" x="34.66" y="58.169"/><use xlink:href="#f" x="55.139" y="58.169"/><use xlink:href="#g" x="64.225" y="58.169"/><use xlink:href="#d" x="80.174" y="58.169"/><use xlink:href="#i" x="86.151" y="21.724"/><use xlink:href="#j" x="86.151" y="30.425"/><use xlink:href="#j" x="86.151" y="38.453"/><use xlink:href="#j" x="86.151" y="46.481"/><use xlink:href="#k" x="86.151" y="60.012"/><use xlink:href="#l" x="92.38" y="6.772"/><use xlink:href="#m" x="99.104" y="6.772"/><use xlink:href="#n" x="107.257" y="36.6"/><use xlink:href="#a" x="113.261" y="18.845"/><use xlink:href="#b" x="113.261" y="27.271"/><use xlink:href="#b" x="113.261" y="34.725"/><use xlink:href="#b" x="113.261" y="42.18"/><use xlink:href="#b" x="113.261" y="49.635"/><use xlink:href="#c" x="113.261" y="62.891"/><use xlink:href="#e" x="123.558" y="11.952"/><use xlink:href="#d" x="157.487" y="11.952"/><use xlink:href="#e" x="201.28" y="11.952"/><use xlink:href="#e" x="235.209" y="11.952"/><use xlink:href="#l" x="120.686" y="22.426"/><use xlink:href="#m" x="127.41" y="22.426"/><path d="M120.684 25.043h11.722" fill="none" stroke-width=".717" stroke="#000" stroke-miterlimit="10"/><use xlink:href="#o" x="121.017" y="32.56"/><use xlink:href="#p" x="126.015" y="32.56"/><use xlink:href="#e" x="157.49" y="28.033"/><use xlink:href="#m" x="201.77" y="22.426"/><path d="M198.738 25.043h11.059" fill="none" stroke-width=".717" stroke="#000" stroke-miterlimit="10"/><use xlink:href="#o" x="198.74" y="32.56"/><use xlink:href="#p" x="203.738" y="32.56"/><use xlink:href="#e" x="235.213" y="28.033"/><use xlink:href="#m" x="124.047" y="38.797"/><path d="M123.516 41.414h6.062" fill="none" stroke-width=".717" stroke="#000" stroke-miterlimit="10"/><use xlink:href="#p" x="123.516" y="48.123"/><use xlink:href="#m" x="147.791" y="38.797"/><path d="M146.098 41.414h8.386" fill="none" stroke-width=".717" stroke="#000" stroke-miterlimit="10"/><use xlink:href="#o" x="146.097" y="48.931"/><use xlink:href="#q" x="151.095" y="48.931"/><use xlink:href="#f" x="158.336" y="44.405"/><use xlink:href="#g" x="170.076" y="44.405"/><use xlink:href="#g" x="190.376" y="44.405"/><use xlink:href="#f" x="199.02" y="44.405"/><use xlink:href="#m" x="211.958" y="38.797"/><path d="M211.957 41.414h5" fill="none" stroke-width=".717" stroke="#000" stroke-miterlimit="10"/><use xlink:href="#q" x="212.763" y="48.551"/><use xlink:href="#l" x="232.341" y="38.797"/><use xlink:href="#m" x="239.065" y="38.797"/><path d="M232.34 41.414h11.722" fill="none" stroke-width=".717" stroke="#000" stroke-miterlimit="10"/><use xlink:href="#o" x="234.008" y="48.931"/><use xlink:href="#q" x="239.006" y="48.931"/><use xlink:href="#l" x="120.685" y="55.15"/><use xlink:href="#m" x="127.409" y="55.15"/><path d="M120.684 57.77h11.722" fill="none" stroke-width=".717" stroke="#000" stroke-miterlimit="10"/><use xlink:href="#o" x="122.353" y="65.285"/><use xlink:href="#q" x="127.351" y="65.285"/><use xlink:href="#r" x="143.566" y="60.758"/><use xlink:href="#f" x="152.198" y="60.758"/><use xlink:href="#m" x="168.169" y="55.15"/><path d="M165.14 57.77h11.055" fill="none" stroke-width=".717" stroke="#000" stroke-miterlimit="10"/><use xlink:href="#o" x="165.139" y="65.285"/><use xlink:href="#p" x="170.137" y="65.285"/><use xlink:href="#m" x="191.581" y="55.15"/><path d="M188.55 57.77h11.06" fill="none" stroke-width=".717" stroke="#000" stroke-miterlimit="10"/><use xlink:href="#o" x="188.551" y="65.285"/><use xlink:href="#p" x="193.549" y="65.285"/><use xlink:href="#f" x="203.462" y="60.758"/><use xlink:href="#r" x="215.202" y="60.758"/><use xlink:href="#m" x="235.702" y="55.15"/><path d="M234.008 57.77h8.387" fill="none" stroke-width=".717" stroke="#000" stroke-miterlimit="10"/><use xlink:href="#o" x="234.008" y="65.285"/><use xlink:href="#q" x="239.006" y="65.285"/><use xlink:href="#i" x="245.258" y="18.845"/><use xlink:href="#j" x="245.258" y="27.27"/><use xlink:href="#j" x="245.258" y="34.725"/><use xlink:href="#j" x="245.258" y="42.18"/><use xlink:href="#j" x="245.258" y="49.635"/><use xlink:href="#k" x="245.258" y="62.891"/><use xlink:href="#s" x="254.808" y="36.6"/><use xlink:href="#a" x="267.215" y="21.724"/><use xlink:href="#b" x="267.215" y="30.425"/><use xlink:href="#b" x="267.215" y="38.453"/><use xlink:href="#b" x="267.215" y="46.481"/><use xlink:href="#c" x="267.215" y="60.012"/><use xlink:href="#d" x="277.987" y="14.832"/><use xlink:href="#e" x="303.009" y="14.832"/><use xlink:href="#e" x="328.031" y="14.832"/><use xlink:href="#e" x="348.511" y="14.832"/><use xlink:href="#f" x="273.444" y="29.277"/><use xlink:href="#g" x="282.53" y="29.277"/><use xlink:href="#g" x="303.009" y="29.277"/><use xlink:href="#e" x="328.031" y="29.277"/><use xlink:href="#e" x="348.511" y="29.277"/><use xlink:href="#g" x="277.987" y="43.723"/><use xlink:href="#f" x="298.466" y="43.723"/><use xlink:href="#h" x="307.552" y="43.723"/><use xlink:href="#g" x="328.031" y="43.723"/><use xlink:href="#e" x="348.511" y="43.723"/><use xlink:href="#f" x="273.444" y="58.169"/><use xlink:href="#d" x="282.53" y="58.169"/><use xlink:href="#g" x="303.009" y="58.169"/><use xlink:href="#f" x="323.488" y="58.169"/><use xlink:href="#g" x="332.574" y="58.169"/><use xlink:href="#d" x="348.511" y="58.169"/><use xlink:href="#i" x="354.5" y="21.724"/><use xlink:href="#j" x="354.5" y="30.425"/><use xlink:href="#j" x="354.5" y="38.453"/><use xlink:href="#j" x="354.5" y="46.481"/><use xlink:href="#k" x="354.5" y="60.012"/><use xlink:href="#l" x="360.728" y="6.772"/><use xlink:href="#m" x="367.452" y="6.772"/><use xlink:href="#n" x="375.606" y="36.6"/><use xlink:href="#a" x="381.61" y="21.724"/><use xlink:href="#b" x="381.61" y="30.425"/><use xlink:href="#b" x="381.61" y="38.453"/><use xlink:href="#b" x="381.61" y="46.481"/><use xlink:href="#c" x="381.61" y="60.012"/><use xlink:href="#d" x="392.382" y="14.832"/><use xlink:href="#e" x="417.404" y="14.832"/><g><use xlink:href="#e" x="442.426" y="14.832"/></g><g><use xlink:href="#e" x="462.906" y="14.832"/></g><g><use xlink:href="#f" x="387.839" y="29.277"/><use xlink:href="#g" x="396.925" y="29.277"/></g><g><use xlink:href="#g" x="417.404" y="29.277"/></g><g><use xlink:href="#e" x="442.426" y="29.277"/></g><g><use xlink:href="#e" x="462.906" y="29.277"/></g><g><use xlink:href="#g" x="392.382" y="43.723"/></g><g><use xlink:href="#f" x="412.861" y="43.723"/><use xlink:href="#h" x="421.947" y="43.723"/></g><g><use xlink:href="#g" x="442.426" y="43.723"/></g><g><use xlink:href="#e" x="462.906" y="43.723"/></g><g><use xlink:href="#f" x="387.839" y="58.169"/><use xlink:href="#d" x="396.925" y="58.169"/></g><g><use xlink:href="#g" x="417.404" y="58.169"/></g><g><use xlink:href="#f" x="437.883" y="58.169"/><use xlink:href="#g" x="446.969" y="58.169"/></g><g><use xlink:href="#d" x="462.906" y="58.169"/></g><g><use xlink:href="#i" x="468.895" y="21.724"/></g><g><use xlink:href="#j" x="468.895" y="30.425"/></g><g><use xlink:href="#j" x="468.895" y="38.453"/></g><g><use xlink:href="#j" x="468.895" y="46.481"/></g><g><use xlink:href="#k" x="468.895" y="60.012"/></g><g><use xlink:href="#n" x="477.78" y="36.6"/></g><g><use xlink:href="#t" x="483.782" y="36.6"/></g></svg>