<svg xmlns="http://www.w3.org/2000/svg" xmlns:xlink="http://www.w3.org/1999/xlink" width="338pt" height="60" viewBox="0 0 338 45"><defs><symbol overflow="visible" id="a"><path d="M2.797-2.656a65.21 65.21 0 0 0-.188-.875c-.062-.29-.125-.555-.187-.797-.063-.25-.121-.41-.172-.484-.043-.083-.09-.133-.14-.157a.289.289 0 0 0-.172-.047.477.477 0 0 0-.235.063.787.787 0 0 0-.219.187 4.023 4.023 0 0 0-.296.422l-.391-.25c.25-.375.488-.648.719-.828.226-.187.492-.281.796-.281.126 0 .227.016.313.047a.604.604 0 0 1 .25.125c.07.054.133.125.188.218.05.086.101.204.156.36.05.156.097.351.14.578.051.23.094.469.125.719h.063c.375-.531.656-.914.844-1.156.195-.25.363-.43.5-.547.132-.125.257-.207.375-.25.125-.051.289-.079.5-.079.175 0 .328.024.453.063l-.235 1.063h-.421c-.024-.165-.09-.25-.204-.25a.26.26 0 0 0-.109.03.64.64 0 0 0-.156.079 1.516 1.516 0 0 0-.25.219 10.63 10.63 0 0 0-.36.421c-.136.157-.277.329-.421.516l-.391.5c.07.375.14.7.203.969l.156.687c.051.18.094.32.125.422.04.106.082.184.125.235a.32.32 0 0 0 .125.109.474.474 0 0 0 .469-.078c.102-.082.25-.27.438-.563l.375.25c-.274.407-.516.696-.735.86-.219.164-.484.25-.797.25A.864.864 0 0 1 3.734 0a.958.958 0 0 1-.312-.281c-.086-.133-.156-.344-.219-.625-.125-.5-.2-.883-.219-1.156h-.062c-.418.585-.73 1.007-.938 1.265-.199.25-.367.438-.5.563-.125.117-.25.199-.375.25C.992.066.832.094.625.094.445.094.297.066.172.016l.234-1.063h.422c.02.168.086.25.203.25.051 0 .11-.015.172-.047a1.1 1.1 0 0 0 .25-.203c.113-.113.27-.289.469-.531.207-.238.5-.598.875-1.078zm0 0"/></symbol><symbol overflow="visible" id="b"><path d="M.875-4.25v-.781h7.219v.781zm0 2.422v-.781h7.219v.78zm7.469-1.594zm0 0"/></symbol><symbol overflow="visible" id="c"><path d="M4.078-1.531c0 .23.008.402.031.515a.68.68 0 0 0 .141.282.572.572 0 0 0 .266.171c.125.043.273.075.453.094.187.024.43.04.734.047V0H1.375v-.422A8.17 8.17 0 0 0 2.297-.5c.187-.04.328-.094.422-.156a.516.516 0 0 0 .219-.281c.05-.125.078-.32.078-.594v-4.75c0-.157-.032-.27-.094-.344a.282.282 0 0 0-.235-.11c-.124 0-.304.07-.53.204-.231.125-.516.304-.86.531l-.25-.453 2.734-1.64h.328a27.34 27.34 0 0 0-.03 1.562zm0 0"/></symbol><symbol overflow="visible" id="d"><path d="M4.64-4.219l.016.063c.438.18.77.433 1 .765.227.325.344.72.344 1.188 0 .46-.11.867-.328 1.219-.219.343-.54.609-.953.796C4.3 0 3.816.094 3.266.094c-.524 0-.98-.086-1.375-.25a2.055 2.055 0 0 1-.922-.766C.758-1.266.656-1.66.656-2.109c0-.344.055-.641.172-.891.113-.25.266-.453.453-.61.196-.163.438-.316.719-.453v-.062C1.156-4.488.734-5.113.734-6c0-.406.11-.766.329-1.078.218-.313.53-.555.937-.734a3.257 3.257 0 0 1 1.36-.282c.562 0 1.035.078 1.421.235.383.156.672.386.86.687.195.305.296.664.296 1.078 0 .43-.109.797-.328 1.11-.21.312-.53.57-.968.765zM1.829-6.047c0 .23.024.45.078.656.063.2.149.371.266.516.125.148.281.266.469.36.195.085.437.124.718.124.32 0 .594-.062.813-.187.226-.125.394-.305.5-.547.101-.25.156-.535.156-.86 0-.35-.062-.648-.187-.89a1.202 1.202 0 0 0-.532-.547 1.608 1.608 0 0 0-.75-.172c-.5 0-.882.137-1.14.407-.262.261-.39.64-.39 1.14zm-.062 3.844c0 .25.03.484.093.703.063.219.157.414.282.578.125.156.285.281.484.375.195.094.441.14.734.14.313 0 .582-.062.813-.187.226-.133.398-.332.516-.594.125-.257.187-.562.187-.906 0-.375-.07-.695-.203-.969a1.424 1.424 0 0 0-.547-.624 1.47 1.47 0 0 0-.797-.22c-.293 0-.539.048-.734.141-.2.086-.36.204-.485.36s-.214.34-.265.547c-.055.199-.078.418-.078.656zm0 0"/></symbol><symbol overflow="visible" id="e"><path d="M2.063-2.969c0 1.367.218 2.492.656 3.375.445.895 1.117 1.492 2.015 1.797l-.14.453C3.457 2.352 2.582 1.703 1.969.703c-.606-.988-.907-2.191-.907-3.61 0-1.405.301-2.609.907-3.609.613-1 1.488-1.648 2.625-1.953l.172.453c-.918.305-1.602.891-2.047 1.766-.438.867-.656 1.96-.656 3.281zm0 0"/></symbol><symbol overflow="visible" id="f"><path d="M.875-3.047v-.781h7.219v.781zm0 0"/></symbol><symbol overflow="visible" id="g"><path d="M.938-6.344v-1.11a6.877 6.877 0 0 1 1.265-.484 4.574 4.574 0 0 1 1.14-.156c.446 0 .833.07 1.157.203.332.137.586.336.766.594.175.25.265.559.265.922 0 .324-.07.617-.203.875a1.86 1.86 0 0 1-.562.656 4.907 4.907 0 0 1-.922.547v.047c.238.055.469.133.687.234.219.094.41.227.578.391.176.168.317.367.422.594.102.23.157.492.157.781 0 .45-.102.852-.297 1.203-.2.356-.5.637-.907.844-.406.2-.902.297-1.484.297-.336 0-.7-.04-1.094-.11A6.822 6.822 0 0 1 .844-.328v-1.234h.703c.133.406.312.703.531.89.227.18.535.266.922.266.508 0 .895-.133 1.156-.406.258-.282.39-.692.39-1.235 0-.57-.171-1.008-.515-1.312-.343-.301-.851-.454-1.515-.454H2v-.515c.52-.031.96-.129 1.328-.297.363-.176.629-.398.797-.672.176-.27.266-.57.266-.906 0-.426-.118-.754-.344-.984-.23-.239-.563-.36-1-.36-.375 0-.68.102-.906.297-.23.2-.399.5-.5.906zm0 0"/></symbol><symbol overflow="visible" id="h"><path d="M5.031-5.313l.547-.39.375.094-.86 3.718c-.093.368-.14.653-.14.86 0 .156.024.273.078.343.051.075.133.11.25.11a.61.61 0 0 0 .36-.14c.132-.102.328-.286.578-.548l.328.329c-.356.375-.656.64-.906.796a1.44 1.44 0 0 1-.797.235.748.748 0 0 1-.578-.235c-.149-.164-.22-.379-.22-.64 0-.219.04-.446.126-.688L4.109-1.5c-.375.555-.734.96-1.078 1.219-.336.25-.687.375-1.062.375-.43 0-.762-.16-1-.485-.242-.332-.36-.789-.36-1.375C.61-2.43.74-3.07 1-3.687c.27-.626.633-1.114 1.094-1.47a2.47 2.47 0 0 1 1.547-.546c.25 0 .484.031.703.094.226.054.457.152.687.296zm-.515 1.75a3.32 3.32 0 0 0 .078-.421c.008-.114.015-.239.015-.375 0-.301-.07-.52-.203-.657-.125-.144-.343-.218-.656-.218-.398 0-.758.164-1.078.484-.324.324-.574.762-.75 1.313a5.146 5.146 0 0 0-.266 1.624c0 .407.051.711.157.907.113.199.3.297.562.297.258 0 .516-.11.766-.329.25-.218.504-.535.765-.953.258-.414.446-.89.563-1.421zm0 0"/></symbol><symbol overflow="visible" id="i"><path d="M4.906-3.047V.328h-.843v-3.375H.874v-.781h3.188v-3.375h.843v3.375h3.188v.781zm0 0"/></symbol><symbol overflow="visible" id="j"><path d="M4.11-.938c.195 0 .35-.007.468-.03a.85.85 0 0 0 .281-.126.55.55 0 0 0 .172-.203c.04-.094.094-.234.157-.422h.484L5.578 0H.75v-.281c.176-.406.406-.82.688-1.25.28-.438.687-.946 1.218-1.532.446-.5.77-.878.969-1.14.219-.281.379-.52.484-.719.114-.207.192-.398.235-.578.05-.188.078-.367.078-.547 0-.3-.047-.562-.14-.781a1.13 1.13 0 0 0-.438-.531c-.188-.125-.43-.188-.719-.188-.742 0-1.234.406-1.484 1.219H.937v-1.125c.47-.227.907-.39 1.313-.484.414-.102.79-.157 1.125-.157.719 0 1.266.164 1.64.485.376.312.563.773.563 1.375 0 .21-.023.402-.062.578-.043.18-.11.351-.204.515a3.255 3.255 0 0 1-.359.547c-.148.2-.308.399-.484.594-.18.2-.485.531-.922 1-.75.793-1.297 1.48-1.64 2.063zm0 0"/></symbol><symbol overflow="visible" id="k"><path d="M1.453-.281L.922.094.547 0l1.515-6.703c.083-.395.126-.68.126-.86 0-.164-.055-.28-.157-.343-.094-.07-.273-.11-.531-.11l.078-.312 1.484-.047h.344L2.375-4.281l.063.031c.382-.508.742-.879 1.078-1.11.332-.226.66-.343.984-.343.426 0 .758.168 1 .5.238.324.36.777.36 1.36 0 .648-.133 1.28-.391 1.905-.262.625-.625 1.122-1.094 1.485a2.39 2.39 0 0 1-1.531.547c-.524 0-.985-.125-1.39-.375zm.516-1.766a3.68 3.68 0 0 0-.094.797c0 .313.066.54.203.672.133.137.36.203.672.203.164 0 .316-.023.453-.078.145-.05.29-.133.438-.25.156-.125.3-.285.437-.485a4.08 4.08 0 0 0 .375-.718c.113-.29.203-.602.266-.938.062-.332.093-.648.093-.953 0-.406-.058-.707-.171-.906-.118-.207-.305-.313-.563-.313a.934.934 0 0 0-.547.188c-.18.117-.383.312-.61.594a4.772 4.772 0 0 0-.546.843 5.612 5.612 0 0 0-.36 1.11zm0 0"/></symbol><symbol overflow="visible" id="l"><path d="M4.406-4.203c0-.29-.023-.504-.062-.64a.542.542 0 0 0-.203-.298.705.705 0 0 0-.391-.093c-.398 0-.75.156-1.063.468-.312.313-.57.762-.765 1.344a5.036 5.036 0 0 0-.297 1.656c0 .399.078.696.234.891.157.188.391.281.704.281.351 0 .66-.066.921-.203.258-.133.532-.348.813-.64l.36.359c-.368.406-.735.703-1.11.89a2.658 2.658 0 0 1-1.203.282c-.563 0-.996-.164-1.297-.5-.293-.332-.438-.82-.438-1.469 0-.414.079-.875.235-1.375.156-.5.383-.938.687-1.313a2.91 2.91 0 0 1 1.047-.859 3.05 3.05 0 0 1 1.297-.281c.52 0 1 .062 1.438.187L5.03-4.203zm0 0"/></symbol><symbol overflow="visible" id="m"><path d="M4.11-1.5c-.376.555-.735.96-1.079 1.219-.336.25-.687.375-1.062.375-.43 0-.762-.16-1-.485-.242-.332-.36-.789-.36-1.375C.61-2.43.74-3.07 1-3.687c.27-.626.633-1.114 1.094-1.47a2.47 2.47 0 0 1 1.547-.546c.238 0 .457.027.656.078.195.043.406.125.625.25l.297-1.36c.031-.124.054-.265.078-.421a2.09 2.09 0 0 0 .047-.407.414.414 0 0 0-.078-.265.322.322 0 0 0-.188-.125c-.074-.031-.215-.05-.422-.063l.078-.312 1.47-.047h.343L5.094-1.891c-.094.387-.14.672-.14.86 0 .156.023.273.077.343.051.075.133.11.25.11a.61.61 0 0 0 .36-.14c.132-.102.328-.286.578-.548l.328.329c-.367.375-.672.64-.922.796-.242.157-.5.235-.781.235a.748.748 0 0 1-.578-.235c-.149-.164-.22-.379-.22-.64 0-.219.04-.446.126-.688zm.39-2.063c.05-.28.078-.546.078-.796 0-.313-.062-.536-.187-.672-.125-.133-.34-.203-.641-.203-.406 0-.766.164-1.078.484-.313.324-.563.762-.75 1.313a5.146 5.146 0 0 0-.266 1.624c0 .407.051.711.157.907.113.199.3.297.562.297.125 0 .25-.024.375-.079.125-.05.254-.132.39-.25.133-.113.266-.253.391-.421.133-.176.254-.348.36-.516.113-.164.218-.363.312-.594.094-.238.172-.52.234-.844zm0 0"/></symbol><symbol overflow="visible" id="n"><path d="M2.906-2.969c0-1.32-.219-2.414-.656-3.281A3.389 3.389 0 0 0 .219-8.016l.156-.453c1.145.305 2.02.953 2.625 1.953.613 1 .922 2.204.922 3.61 0 1.418-.309 2.62-.922 3.61-.605 1-1.48 1.648-2.625 1.952l-.14-.453C1.14 1.898 1.812 1.301 2.25.406c.438-.883.656-2.008.656-3.375zm0 0"/></symbol><symbol overflow="visible" id="o"><path d="M2.86.016a55.642 55.642 0 0 0-.454-2.485A59.384 59.384 0 0 0 2-4.375c-.086-.3-.172-.492-.266-.578a.34.34 0 0 0-.203-.063.54.54 0 0 0-.36.157c-.105.093-.234.265-.39.515l-.39-.25c.27-.406.52-.691.75-.86.238-.163.504-.25.796-.25.157 0 .29.028.407.079.082.031.16.086.234.156a.699.699 0 0 1 .203.297c.063.125.114.274.156.438.051.156.102.386.157.687.094.5.18 1.031.265 1.594.094.555.172 1.07.235 1.547.375-.551.691-1.086.953-1.61.27-.52.46-.972.578-1.359.113-.383.172-.703.172-.953 0-.176-.043-.297-.125-.36-.074-.07-.203-.113-.39-.125l.062-.296h1.531l.172.296a20.29 20.29 0 0 1-1.219 2.61C4.828-1.797 4.254-.895 3.61 0c-.617.863-1.125 1.484-1.53 1.86-.294.257-.571.445-.829.562-.21.094-.434.14-.672.14-.086 0-.183-.011-.297-.03a1.012 1.012 0 0 1-.234-.048l.25-1.14H.75c0 .25.086.375.266.375.226 0 .488-.14.78-.422.302-.281.657-.711 1.063-1.281zm0 0"/></symbol><symbol overflow="visible" id="p"><path d="M4.86-1.64L4.5 0H.266L.14-.281l3.218-3.703c.446-.52.774-.891.985-1.11l-.032-.031H2.938c-.199 0-.343.016-.437.047a.792.792 0 0 0-.281.14c-.094.063-.2.165-.313.297a4.167 4.167 0 0 0-.36.579h-.515l.344-1.547h4.172l.11.296-2.798 3.22A169.64 169.64 0 0 1 1.453-.517l.031.047h1.329c.226 0 .406-.008.53-.031a.852.852 0 0 0 .329-.156c.094-.07.187-.176.281-.313.102-.144.235-.367.39-.672zm0 0"/></symbol><symbol overflow="visible" id="q"><path d="M6.516-3.11c-.72.012-1.29.391-1.704 1.141-.406.742-.609 1.824-.609 3.25 0 .54.117 1.86.36 3.953.25 2.102.375 3.664.375 4.688 0 2.508-.438 4.555-1.313 6.14-.875 1.583-1.95 2.458-3.219 2.625v-.593c.5-.125.946-.39 1.344-.797.406-.399.758-.945 1.063-1.64.3-.688.523-1.493.671-2.407.145-.906.22-1.945.22-3.11 0-.46-.118-1.843-.345-4.156-.23-2.304-.343-3.593-.343-3.875 0-1.511.238-2.742.718-3.703.477-.957.989-1.547 1.532-1.765V-3.5c-.543-.219-1.055-.805-1.532-1.766-.48-.957-.718-2.191-.718-3.703 0-.531.113-1.773.343-3.734.227-1.969.344-3.399.344-4.297 0-1.156-.078-2.191-.234-3.11-.156-.925-.383-1.726-.672-2.406-.281-.675-.625-1.218-1.031-1.625-.407-.414-.86-.687-1.36-.812v-.578c1.426.281 2.535 1.242 3.328 2.875.801 1.636 1.204 3.793 1.204 6.468 0 1.137-.125 2.59-.375 4.36-.243 1.762-.36 2.992-.36 3.687 0 1.47.203 2.563.61 3.282.414.718.984 1.09 1.703 1.109zm0 0"/></symbol><symbol overflow="visible" id="r"><path d="M6.984-7.797l-.343 1.594h-.563c-.031-.477-.14-.82-.328-1.031-.18-.22-.46-.329-.844-.329-.543 0-1.047.274-1.515.813-.461.531-.825 1.242-1.094 2.125-.274.887-.406 1.71-.406 2.469 0 .594.101 1.031.312 1.312.219.281.547.422.985.422.289 0 .546-.039.765-.125.219-.094.422-.242.61-.453.195-.207.39-.5.578-.875h.562l-.36 1.656c-.73.211-1.495.313-2.296.313-.742 0-1.305-.207-1.688-.625C.984-.957.797-1.578.797-2.391c0-.57.098-1.234.297-1.984.207-.75.5-1.406.875-1.969.375-.57.816-1.004 1.328-1.297.508-.3 1.07-.453 1.687-.453.352 0 .68.024.985.063.3.043.64.12 1.015.234zm0 0"/></symbol><symbol overflow="visible" id="s"><path d="M4.078-1.11c-.344.407-.672.712-.984.907a1.8 1.8 0 0 1-.985.297C1.285.094.875-.316.875-1.141c0-.257.035-.535.11-.828l.687-3.047H.688l.093-.406c.227 0 .399-.016.516-.047a.839.839 0 0 0 .297-.125.671.671 0 0 0 .218-.234c.07-.102.141-.234.204-.39.062-.157.156-.43.28-.829h.798L2.78-5.609h1.781l-.125.593h-1.78l-.532 2.282c-.105.437-.172.757-.203.953a3.79 3.79 0 0 0-.031.468c0 .481.203.72.609.72.164 0 .344-.063.531-.188.196-.133.43-.36.703-.672zm0 0"/></symbol><symbol overflow="visible" id="t"><path d="M3.266.094c-.844 0-1.477-.332-1.891-1C.957-1.57.75-2.578.75-3.922c0-.719.063-1.336.188-1.86.132-.53.316-.96.546-1.296.227-.344.5-.598.813-.766.32-.164.676-.25 1.062-.25.852 0 1.489.336 1.907 1 .414.657.625 1.653.625 2.985 0 1.386-.227 2.433-.672 3.14C4.769-.258 4.117.094 3.266.094zM1.906-4.11c0 1.28.114 2.218.344 2.812.238.594.61.89 1.11.89.468 0 .816-.28 1.046-.843.227-.563.344-1.426.344-2.594 0-.906-.063-1.633-.188-2.187-.117-.563-.277-.961-.484-1.203-.21-.239-.46-.36-.75-.36-.273 0-.5.086-.687.25-.18.157-.325.387-.438.688a4.958 4.958 0 0 0-.234 1.093c-.043.43-.063.915-.063 1.454zm0 0"/></symbol><symbol overflow="visible" id="u"><path d="M.719-2.61h7.297l.656-.812L8-4.25H.719v-.781h6.687L6.47-6.156l.375-.313 2.875 2.86v.375L6.844-.375l-.375-.313.937-1.14H.72zm-.422-.812zm0 0"/></symbol><symbol overflow="visible" id="v"><path d="M.875 1.203V.422h7.219v.781zm4-4.937V-.36h-.813v-3.375H.876v-.782h3.188V-7.89h.812v3.375h3.219v.782zm0 0"/></symbol><symbol overflow="visible" id="w"><path d="M2.125-2.75l2.031 4.516L7.72-11.563h1.64v.782H8.188L4.374 3.344h-.578L1.375-1.875l-.984.438-.188-.438zm0 0"/></symbol><symbol overflow="visible" id="y"><path d="M3.031-.281c.239-.063.399-.13.485-.203a.59.59 0 0 0 .156-.329c.02-.144.031-.363.031-.656v-.953H.453v-.437l3.422-5.188h.844V-3h.125c.226 0 .39-.016.484-.047a.462.462 0 0 0 .234-.172c.07-.082.133-.222.188-.422h.438l-.063 1.22H4.719v.952c0 .262.004.453.015.578a.83.83 0 0 0 .094.297.54.54 0 0 0 .188.172c.082.043.21.09.39.14V0H3.031zM1.421-3h2.282v-1.453c0-.363.004-.774.016-1.234.02-.458.035-.801.047-1.032h-.063l-2.281 3.64zm0 0"/></symbol><symbol overflow="visible" id="x"><path d="M3.188-.719c.132 0 .242-.004.328-.015a.498.498 0 0 0 .203-.063.386.386 0 0 0 .14-.156c.04-.07.086-.172.141-.297h.406c-.023.21-.039.418-.047.625-.011.21-.027.418-.046.625H.592v-.234C.665-.391.75-.54.844-.688c.095-.156.196-.312.313-.468.125-.164.258-.332.407-.5.144-.164.312-.344.5-.532.269-.269.488-.5.656-.687.176-.195.312-.375.406-.531.102-.156.172-.297.203-.422a1.408 1.408 0 0 0 0-.828.835.835 0 0 0-.187-.313.624.624 0 0 0-.297-.203 1.005 1.005 0 0 0-.406-.078c-.282 0-.516.074-.704.219-.18.148-.32.36-.421.64H.734v-.859a5.539 5.539 0 0 1 1.032-.328c.32-.07.609-.11.859-.11.3 0 .563.04.781.11.219.062.39.152.516.266.133.117.234.257.297.421.062.168.093.344.093.532 0 .117-.011.226-.03.328-.012.093-.04.187-.079.281a2.749 2.749 0 0 1-.156.297 2.42 2.42 0 0 1-.234.297 3.877 3.877 0 0 1-.297.328c-.118.125-.246.262-.391.406l-.438.438a16.056 16.056 0 0 0-.828.89 2.679 2.679 0 0 0-.296.375zm0 0"/></symbol></defs><use xlink:href="#a" x=".823" y="11.101"/><use xlink:href="#b" x="10.865" y="11.101"/><use xlink:href="#c" x="29.838" y="11.101"/><use xlink:href="#d" x="36.461" y="11.101"/><use xlink:href="#e" x="43.085" y="11.101"/><use xlink:href="#f" x="48.046" y="11.101"/><use xlink:href="#g" x="56.977" y="11.101"/><use xlink:href="#h" x="63.6" y="11.101"/><use xlink:href="#i" x="73.212" y="11.101"/><use xlink:href="#j" x="84.796" y="11.101"/><use xlink:href="#k" x="91.42" y="11.101"/><use xlink:href="#i" x="100.78" y="11.101"/><use xlink:href="#g" x="112.365" y="11.101"/><use xlink:href="#l" x="118.988" y="11.101"/><use xlink:href="#f" x="127.524" y="11.101"/><use xlink:href="#m" x="139.109" y="11.101"/><use xlink:href="#n" x="146.425" y="11.101"/><use xlink:href="#o" x=".739" y="25.546"/><use xlink:href="#b" x="10.949" y="25.546"/><use xlink:href="#c" x="48.392" y="25.546"/><use xlink:href="#d" x="55.016" y="25.546"/><use xlink:href="#e" x="61.639" y="25.546"/><use xlink:href="#g" x="66.6" y="25.546"/><use xlink:href="#h" x="73.223" y="25.546"/><use xlink:href="#f" x="82.835" y="25.546"/><use xlink:href="#k" x="94.42" y="25.546"/><use xlink:href="#f" x="103.793" y="25.546"/><use xlink:href="#g" x="115.377" y="25.546"/><use xlink:href="#l" x="122.001" y="25.546"/><use xlink:href="#n" x="127.883" y="25.546"/><use xlink:href="#p" x="1.194" y="39.992"/><use xlink:href="#b" x="10.483" y="39.992"/><use xlink:href="#c" x="65.496" y="39.992"/><use xlink:href="#d" x="72.119" y="39.992"/><use xlink:href="#e" x="78.742" y="39.992"/><use xlink:href="#l" x="83.704" y="39.992"/><use xlink:href="#f" x="92.228" y="39.992"/><use xlink:href="#h" x="103.824" y="39.992"/><use xlink:href="#n" x="110.77" y="39.992"/><use xlink:href="#q" x="151.382" y="26.072"/><use xlink:href="#r" x="163.11" y="26.072"/><use xlink:href="#e" x="170.773" y="26.072"/><use xlink:href="#s" x="175.735" y="26.072"/><use xlink:href="#n" x="180.756" y="26.072"/><g><use xlink:href="#b" x="189.041" y="26.072"/></g><g><use xlink:href="#t" x="201.283" y="26.072"/></g><g><use xlink:href="#u" x="213.86" y="26.072"/></g><g><use xlink:href="#s" x="230.167" y="26.072"/></g><g><use xlink:href="#b" x="238.511" y="26.072"/></g><g><use xlink:href="#f" x="251.936" y="17.024"/><use xlink:href="#o" x="260.867" y="17.024"/></g><g><use xlink:href="#v" x="270.419" y="17.024"/></g><g><use xlink:href="#w" x="282.006" y="16.974"/></g><path d="M290.887 5.844h46.375" fill="none" stroke-width=".776" stroke="#000" stroke-miterlimit="10"/><g><use xlink:href="#o" x="290.885" y="17.024"/></g><g><use xlink:href="#x" x="298.158" y="13.434"/></g><g><use xlink:href="#f" x="306.345" y="17.024"/></g><g><use xlink:href="#y" x="317.93" y="17.024"/><use xlink:href="#a" x="324.553" y="17.024"/></g><g><use xlink:href="#p" x="331.272" y="17.024"/></g><path d="M251.938 22.656h85.324" fill="none" stroke-width=".776" stroke="#000" stroke-miterlimit="10"/><g><use xlink:href="#j" x="287.926" y="34.07"/><use xlink:href="#a" x="294.549" y="34.07"/></g></svg>