<svg xmlns:xlink="http://www.w3.org/1999/xlink" width="68.167ex" height="9.333ex" style="vertical-align:-4.167ex;margin-bottom:1px;margin-top:1px" viewBox="0 -2250.9 29372 4001.9" xmlns="http://www.w3.org/2000/svg"><defs><path stroke-width="10" id="a" d="M527 376c0-40-32-58-54-58-27 0-38 19-38 35 0 24 20 49 48 54-21 13-45 13-50 13-70 0-93-92-99-118l-34-137c-11-44-17-66-17-88 0-34 16-66 55-66 32 0 100 24 133 131 2 7 4 11 13 11 3 0 12 0 12-10 0-25-57-154-160-154-60 0-96 39-108 76-3-6-39-76-105-76-44 0-94 20-94 66 0 32 25 58 55 58 15 0 37-8 37-35 0-28-22-49-47-54 21-13 44-13 50-13 44 0 79 42 95 104 37 140 54 207 54 238 0 58-35 67-54 67-34 0-100-25-134-131-2-9-5-11-13-11 0 0-12 0-12 10 0 25 57 154 161 154 29 0 83-10 108-76 12 23 47 76 105 76 34 0 93-14 93-66z"/><path stroke-width="10" id="b" d="M722 347c0-11-9-20-20-20H76c-11 0-20 9-20 20s9 20 20 20h626c11 0 20-9 20-20zm0-194c0-11-9-20-20-20H76c-11 0-20 9-20 20s9 20 20 20h626c11 0 20-9 20-20z"/><path stroke-width="10" id="e" d="M419 0c-35 3-122 3-162 3S130 3 95 0v31h32c90 0 93 12 93 48v518c-52-26-111-26-131-26v31c32 0 120 0 182 64 23 0 23-2 23-26V79c0-37 3-48 93-48h32V0z"/><path stroke-width="10" id="f" d="M457 168c0-107-95-190-208-190C144-22 42 45 42 151c0 99 86 155 144 184-25 17-62 42-73 54-42 47-44 92-44 110 0 93 81 167 181 167 91 0 180-57 180-149 0-66-49-118-121-155 64-40 80-50 99-71 38-42 49-87 49-123zm-71 349c0 72-64 124-137 124-71 0-136-42-136-103 0-17 4-51 50-81l124-80c60 35 99 83 99 140zm21-385c0 61-47 91-75 110l-123 78C124 273 92 209 92 151 92 68 164 6 250 6c82 0 157 52 157 126z"/><path stroke-width="10" id="g" d="M332-238c0-5-5-10-10-10-2 0-4 1-6 2-110 83-215 283-215 454v84c0 171 105 371 215 454 2 1 4 2 6 2 5 0 10-5 10-10 0-3-2-6-4-8-104-78-173-278-173-438v-84c0-160 69-360 173-438 2-2 4-5 4-8z"/><path stroke-width="10" id="h" d="M722 250c0-11-9-20-20-20H76c-11 0-20 9-20 20s9 20 20 20h626c11 0 20-9 20-20z"/><path stroke-width="10" id="i" d="M457 171c0-102-91-193-213-193C135-22 42 44 42 135c0 44 32 58 56 58 29 0 56-20 56-56 0-38-31-60-66-55C123 23 198 6 241 6c44 0 113 29 113 165 0 98-37 166-119 166h-44c-17 0-24 0-24 11 0 10 7 11 15 12 7 0 31 2 39 3 25 1 59 4 89 52 26 44 28 102 28 114 0 90-55 112-96 112-36 0-102-13-133-62 15 0 62 0 62-50 0-29-20-51-51-51-29 0-51 19-51 52 0 76 76 136 177 136 96 0 184-56 184-138 0-79-58-149-140-176 104-21 167-99 167-181z"/><path stroke-width="10" id="j" d="M498 143s-13-63-30-99c-16-32-39-55-74-55-48 0-83 33-91 75-60-71-110-75-130-75C95-11 40 55 40 149c0 146 124 293 241 293 45 0 74-27 92-64 3 22 18 44 42 44 17 0 29-10 29-27 0-4 0-6-7-34l-36-140-22-90c-11-44-13-52-13-74 0-20 3-46 30-46 41 0 59 59 76 124 3 14 4 18 14 18 3 0 12 0 12-10zM361 332c0 6-14 88-79 88-40 0-85-37-116-96-23-46-55-169-55-219 0-39 14-94 64-94 28 0 69 16 113 71 15 17 15 19 20 37l50 196c1 5 3 11 3 17z"/><path stroke-width="10" id="k" d="M722 250c0-11-9-20-20-20H409V-63c0-11-9-20-20-20s-20 9-20 20v293H76c-11 0-20 9-20 20s9 20 20 20h293v293c0 11 9 20 20 20s20-9 20-20V270h293c11 0 20-9 20-20z"/><path stroke-width="10" id="l" d="M449 174L421 0H50c0 24 0 26 11 37l192 214c55 62 105 141 105 221 0 82-43 163-134 163-58 0-112-37-135-102 3 1 5 1 13 1 35 0 53-26 53-52 0-41-35-53-52-53-3 0-53 0-53 56 0 89 74 181 187 181 122 0 212-80 212-194 0-100-60-154-216-292L127 77h180c22 0 88 0 95 8 10 15 17 59 22 89h25z"/><path stroke-width="10" id="m" d="M415 282c0-144-123-293-241-293-74 0-127 62-127 157 0 35 4 51 16 101l82 326c5 21 14 55 14 62 0 10-2 17-50 17-15 0-24 0-24 12 0 18 11 19 19 20 26 2 99 10 122 10 13 0 13-11 13-11l-74-301c30 31 71 60 117 60 80 0 133-69 133-160zm-72 44c0 64-27 94-63 94-26 0-71-15-120-80-9-11-9-13-15-35l-22-92c-16-63-16-82-16-101 0-74 33-101 67-101 39 0 85 36 118 103 18 38 51 153 51 212z"/><path stroke-width="10" id="n" d="M430 107c0-12-84-118-227-118C99-11 41 68 41 158c0 141 133 284 268 284 71 0 118-37 118-86 0-40-27-64-56-64-19 0-37 11-37 35 0 7 2 24 18 39 14 14 28 14 44 14-14 27-52 40-86 40-55 0-110-43-141-100-34-62-54-159-54-200 0-60 27-109 90-109 12 0 121 0 200 99 6 8 8 10 13 10 6 0 12-7 12-13z"/><path stroke-width="10" id="o" d="M516 683L372 105c-4-17-6-24-6-48 0-20 3-46 30-46 41 0 59 59 76 124 3 14 4 18 14 18 3 0 12 0 12-10 0 0-13-63-30-99-16-32-39-55-74-55-48 0-83 33-91 75-60-71-110-75-130-75C95-11 40 55 40 149c0 146 124 293 241 293 45 0 74-27 92-64l60 237 3 20c0 10-2 17-50 17-15 0-24 0-24 12 0 13 6 18 14 19 17 2 112 11 127 11 13 0 13-11 13-11zM361 332c0 6-14 88-79 88-40 0-85-37-116-96-23-46-55-169-55-219 0-39 14-94 64-94 28 0 69 16 113 71 15 17 15 19 20 37l50 196c1 5 3 11 3 17z"/><path stroke-width="10" id="p" d="M288 208c0-171-105-371-215-454-2-1-4-2-6-2-5 0-10 5-10 10 0 3 2 6 4 8 104 78 173 278 173 438v84c0 160-69 360-173 438-2 2-4 5-4 8 0 5 5 10 10 10 2 0 4-1 6-2 110-83 215-283 215-454v-84z"/><path stroke-width="10" id="c" d="M490 404c0-7 0-9-4-23L390-1c-28-113-131-204-234-204-62 0-106 37-106 87 0 49 33 65 56 65 10 0 37-4 37-35 0-19-10-32-20-41-14-12-27-12-43-12 17-39 62-42 76-42 46 0 84 29 110 63 40 53 52 102 65 154-28-28-62-45-101-45-59 0-122 30-122 119 0 47 18 104 58 210 7 19 17 45 17 70 0 32-17 32-25 32-34 0-74-30-101-124-5-16-6-18-16-18 0 0-12 0-12 10 0 9 37 154 132 154 50 0 82-37 82-82 0-20-4-31-20-72-34-88-51-150-51-196 0-37 11-81 62-81 66 0 109 70 113 85l45 180 20 80c4 18 12 49 14 54 9 15 25 21 35 21 15 0 29-9 29-27z"/><path stroke-width="10" id="d" d="M467 432c0-4-22-52-117-145-36-36-98-90-98-90-36-31-65-56-119-114 9 3 27 3 27 3 21 0 36-4 70-17 21-7 39-13 59-13 33 0 97 19 120 84 3 7 5 13 14 13 8 0 12-5 12-10 0-27-58-154-157-154-29 0-47 16-64 37-25 29-35 38-58 38-32 0-62-27-85-62-6-11-8-13-16-13 0 0-12 0-12 10 0 7 35 64 103 131l90 84c19 16 103 88 139 131-26 0-37 0-77 15-23 8-42 15-63 15-8 0-66-1-85-47-2-6-4-11-13-11s-12 6-12 11c0 21 46 114 121 114 33 0 50-20 69-43 15-17 27-32 51-32s45 16 75 64c5 9 8 11 15 11 0 0 11 0 11-10z"/><path stroke-width="10" id="q" d="M502 0H400v375c0 123-98 274-236 325-10 3-17 13-17 24 0 14 12 26 26 26 3 0 6-1 9-2 169-61 320-222 320-373V0z"/><path stroke-width="10" id="t" d="M502 375C502 224 351 63 182 2c-3-1-6-2-9-2-14 0-26 12-26 26 0 11 7 21 17 24 138 51 236 202 236 325v375h102V375z"/><path stroke-width="10" id="s" d="M755 750c0-11-7-21-17-24-139-51-236-214-236-351V0H400v375c0 147 120 300 265 375-145 75-265 228-265 375v375h102v-375c0-137 97-300 236-351 10-3 17-13 17-24z"/><path stroke-width="10" id="r" d="M502 0H400v748h102V0z"/><path stroke-width="10" id="u" d="M760 695l-63-255c-5-18-5-20-18-20-4 0-15 0-15 10s3 11 3 51c0 116-59 193-161 193-89 0-183-50-244-121-100-117-121-279-121-336C141 61 247 9 337 9c52 0 115 17 184 73 69 58 92 129 101 158 2 8 7 10 13 10 0 0 12 0 12-10 0-3-17-94-110-176-53-46-129-86-216-86C168-22 50 87 50 252c0 232 225 453 448 453 111 0 157-75 166-89l70 77c11 11 12 12 15 12 9 0 11-7 11-10z"/><path stroke-width="10" id="v" d="M330 420c0-20-10-20-30-20h-94l-74-295c-4-17-6-24-6-48 0-33 10-46 31-46 34 0 87 24 130 128 5 11 6 14 15 14 4 0 12 0 12-10 0-8-57-154-159-154-54 0-92 38-92 92 0 18 4 35 76 319H51c-20 0-28 0-28 12 0 19 10 19 30 19h94l39 159c9 35 37 36 40 36 17 0 29-10 29-27 0-6-5-26-41-168h88c18 0 28 0 28-11z"/><path stroke-width="10" id="w" d="M460 320c0-79-5-157-37-226C379-1 303-22 249-22 200-22 127-2 84 79c-41 76-45 166-45 241 0 80 5 158 37 227 41 93 114 119 174 119 42 0 124-16 170-112 35-74 40-154 40-234zm-83 12c0 63 0 139-10 195-19 99-85 117-118 117-25 0-100-9-119-128-8-54-8-120-8-184 0-59 0-151 11-211C151 25 210 0 249 0c45 0 102 30 117 125 11 64 11 132 11 207z"/><path stroke-width="10" id="x" d="M939 250c0-6-4-11-9-13-72-19-134-60-188-107-44-39-81-86-108-139-3-7-10-11-18-11-11 0-20 9-20 20 0 3 1 6 2 9 24 46 54 88 89 124H80c-11 0-20 9-20 20s9 20 20 20h651c40 32 84 58 132 77-48 19-92 45-132 77H80c-11 0-20 9-20 20s9 20 20 20h607c-35 36-65 78-89 124-1 3-2 6-2 9 0 11 9 20 20 20 8 0 15-4 18-11 27-53 64-100 108-139 54-47 116-88 188-107 5-2 9-7 9-13z"/><path stroke-width="10" id="y" d="M722-64c0-11-9-20-20-20H76c-11 0-20 9-20 20s9 20 20 20h293v274H76c-11 0-20 9-20 20s9 20 20 20h293v293c0 11 9 20 20 20s20-9 20-20V270h293c11 0 20-9 20-20s-9-20-20-20H409V-44h293c11 0 20-9 20-20z"/><path stroke-width="10" id="A" d="M471 165H371V78c0-36 2-47 76-47h21V0c-41 3-94 3-136 3s-94 0-135-3v31h21c74 0 76 11 76 47v87H28v31l307 469c8 12 11 12 20 12 16 0 16-6 16-26V196h100v-31zm-171 31v373L56 196h244z"/><path stroke-width="10" id="z" d="M1020 830c0-3 0-5-7-18L466-330c-10-19-11-20-42-20L196 181l-71-54-15 16 139 107 213-496L978 830c5 11 9 20 22 20 12 0 20-9 20-20z"/></defs><g stroke="currentColor" fill="currentColor" stroke-width="0" transform="scale(1 -1)"><g transform="translate(156 1437)"><use xlink:href="#a"/><use xlink:href="#b" x="854"/></g><g transform="translate(197 -21)"><use xlink:href="#c"/><use xlink:href="#b" x="772"/></g><g transform="translate(208 -1479)"><use xlink:href="#d"/><use xlink:href="#b" x="749"/></g><g transform="translate(2794 1437)"><use xlink:href="#e"/><use xlink:href="#f" x="505"/><use xlink:href="#g" x="1010"/><use xlink:href="#h" x="1404"/><use xlink:href="#i" x="2187"/><use xlink:href="#j" x="2692"/><use xlink:href="#k" x="3448"/><use xlink:href="#l" x="4453"/><use xlink:href="#m" x="4958"/><use xlink:href="#k" x="5614"/><use xlink:href="#i" x="6619"/><use xlink:href="#n" x="7124"/><use xlink:href="#h" x="7785"/><use xlink:href="#o" x="8790"/><use xlink:href="#p" x="9315"/></g><g transform="translate(4314 -21)"><use xlink:href="#e"/><use xlink:href="#f" x="505"/><use xlink:href="#g" x="1010"/><use xlink:href="#i" x="1404"/><use xlink:href="#j" x="1909"/><use xlink:href="#h" x="2665"/><use xlink:href="#m" x="3670"/><use xlink:href="#h" x="4326"/><use xlink:href="#i" x="5331"/><use xlink:href="#n" x="5836"/><use xlink:href="#p" x="6274"/></g><g transform="translate(5649 -1479)"><use xlink:href="#e"/><use xlink:href="#f" x="505"/><use xlink:href="#g" x="1010"/><use xlink:href="#n" x="1404"/><use xlink:href="#h" x="2064"/><use xlink:href="#j" x="3069"/><use xlink:href="#p" x="3603"/></g><g transform="translate(12670 2237)"><use xlink:href="#q" y="-760"/><use xlink:href="#r" transform="matrix(1 0 0 .72526 0 -1269.747)"/><use xlink:href="#s" y="-2737"/><use xlink:href="#r" transform="matrix(1 0 0 .72526 0 -3246.747)"/><use xlink:href="#t" y="-3964"/></g><use xlink:href="#u" x="14076"/><use xlink:href="#g" x="14841"/><use xlink:href="#v" x="15235"/><use xlink:href="#p" x="15601"/><use xlink:href="#b" x="16273"/><use xlink:href="#w" x="17333"/><use xlink:href="#x" x="18448"/><use xlink:href="#v" x="20063"/><use xlink:href="#b" x="20707"/><g><path stroke="none" d="M21887 220h7363v60h-7363z"/><g transform="translate(21947 847)"><use xlink:href="#h"/><use xlink:href="#c" x="783"/><use xlink:href="#y" x="1500"/><g transform="translate(2505)"><use xlink:href="#z" y="32"/><path stroke="none" d="M1005 832h3733v60H1005z"/><g transform="translate(1005)"><use xlink:href="#c"/><use transform="scale(.707)" xlink:href="#l" x="700" y="408"/><use xlink:href="#h" x="1174"/><use xlink:href="#A" x="2179"/><use xlink:href="#a" x="2684"/><use xlink:href="#d" x="3261"/></g></g></g><g transform="translate(25027 -696)"><use xlink:href="#l"/><use xlink:href="#a" x="505"/></g></g></g></svg>