<svg xmlns="http://www.w3.org/2000/svg" xmlns:xlink="http://www.w3.org/1999/xlink" width="211pt" height="16pt" viewBox="0 0 211 16"><defs><symbol overflow="visible" id="a"><path d="M5.766-8.625l-.141-.14c-.61.312-1.047.421-1.906.5l-.047.25h.578c.281 0 .406.093.406.296 0 .094-.015.203-.031.282l-.328 1.843a3.437 3.437 0 0 0-.984-.172c-.829 0-1.954.86-2.5 1.907-.375.687-.61 1.828-.61 2.828C.203-.25.375.125.734.125c.313 0 .766-.203 1.172-.516.64-.53 1.032-1 1.828-2.203L3.47-1.5c-.14.516-.188.906-.188 1.219 0 .25.094.406.297.406.219 0 .5-.156.906-.453l.97-.719-.126-.234-.516.375c-.171.125-.359.203-.468.203-.094 0-.172-.11-.172-.281 0-.094.031-.204.094-.547zM4.172-4.906l-.14.703c-.22 1.062-.798 2.11-1.548 2.812-.421.407-.89.688-1.125.688-.187 0-.296-.172-.296-.469 0-1.5.546-3.375 1.14-3.828.156-.11.375-.172.703-.172.531 0 .875.063 1.266.266zm0 0"/></symbol><symbol overflow="visible" id="d"><path d="M4.11-7.61a.735.735 0 0 1-.188-.14c-.063-.063-.11-.11-.14-.188-1.47 1.47-2.345 3.032-2.345 4.563v.781c0 1.516.875 3.078 2.344 4.547a.735.735 0 0 1 .14-.187.735.735 0 0 1 .188-.141C2.781.281 2.156-1.203 2.156-2.594v-.781c0-1.39.625-2.89 1.953-4.234zm0 0"/></symbol><symbol overflow="visible" id="e"><path d="M3.703-5.266c-.453.047-.86.079-1.312.079.187-1.125.328-1.704.53-2.36l-.124-.172c-.235.14-.563.282-.938.422l-.296 2.031c-.516.25-.829.391-1.047.454l-.032.156H1.5L.828-1.281c-.062.297-.156.593-.156.906 0 .297.125.484.36.484.421 0 .827-.234 1.765-1 .219-.156.14-.109.375-.296l-.125-.22-.531.376c-.36.25-.594.36-.735.36-.093 0-.156-.095-.156-.235 0-.313.14-1.25.516-3.016l.156-.734h1.281zm0 0"/></symbol><symbol overflow="visible" id="f"><path d="M3.64-2.594v-.781c0-1.531-.874-3.094-2.343-4.563-.047.079-.094.125-.156.188a.427.427 0 0 1-.188.14c1.328 1.344 1.969 2.844 1.969 4.235v.781c0 1.39-.64 2.875-1.969 4.219.078.031.14.078.188.14.062.063.109.126.156.188C2.766.484 3.64-1.078 3.64-2.594zm0 0"/></symbol><symbol overflow="visible" id="g"><path d="M8.125-3.938c-.016-.124-.031-.25-.031-.359 0-.125.015-.25.031-.36H.953c.031.11.031.235.031.36 0 .11 0 .234-.03.36zm0 2.626c-.016-.125-.031-.235-.031-.36s.015-.234.031-.36H.953a1.4 1.4 0 0 1 .031.36c0 .125 0 .234-.03.36zm0 0"/></symbol><symbol overflow="visible" id="h"><path d="M5.922-.938l-.094-.234c-.469.375-.75.469-.937.469-.188 0-.329-.031-.438-.266-.094-.219-.219-.734-.25-1.094l-.062-.562c.375-.469.75-1 .937-1.266.188-.25.64-.968.734-1.203a2.911 2.911 0 0 1-.171-.422c-.032-.015-.125-.046-.172-.078-.328.985-.5 1.328-.969 2.032l-.406.578-.235-2.188c-.078-.547-.421-.594-.671-.594-.266.016-.672.22-1.079.594a3.788 3.788 0 0 0-.765.938C.766-3.172.328-1.75.28-.781c-.031.39.14.906.406.906.47 0 .86-.234 1.235-.5a16.262 16.262 0 0 0 1.484-1.39c.078 1.234.406 1.89.86 1.89.265 0 .64-.203 1.046-.547zM3.375-2.14c-.36.407-.734.766-1.047 1.016-.375.313-.719.422-.922.422-.156 0-.218-.172-.218-.485.046-.765.296-2.046.734-3.046.172-.391.5-.735.75-.735.36 0 .469.219.515.735zm0 0"/></symbol><symbol overflow="visible" id="j"><path d="M2.39-2.984c0-.438-.28-.72-.718-.72-.422 0-.719.282-.719.72 0 .421.297.718.719.718.437 0 .719-.296.719-.718zm0 0"/></symbol><symbol overflow="visible" id="m"><path d="M8.125-2.625c-.016-.125-.031-.25-.031-.36 0-.124.015-.25.031-.359H4.906v-3.234c-.125.031-.25.047-.36.047-.124 0-.25-.016-.359-.047v3.234H.954c.031.11.031.235.031.36 0 .109 0 .234-.03.359h3.234V.594c.109-.016.234-.031.359-.031.11 0 .234.015.36.03v-3.218zm0 0"/></symbol><symbol overflow="visible" id="n"><path d="M5 .031v-.36l-.625-.03c-.656-.032-.781-.172-.781-.782v-7.093l-.156-.063c-.782.406-1.626.766-2.72 1.156l.079.5h.125l1.547-.687.031-.016c.063 0 .094.11.094.407v5.796c0 .61-.125.75-.781.782l-.672.03v.36L3.125 0zm0 0"/></symbol><symbol overflow="visible" id="o"><path d="M8.125-2.625c-.016-.125-.031-.25-.031-.36 0-.124.015-.25.031-.359H.953c.031.11.031.235.031.36 0 .109 0 .234-.03.359zm0 0"/></symbol><symbol overflow="visible" id="b"><path d="M4.406-4.188a1.836 1.836 0 0 0-.453-.078c-.64 0-1.437.688-2.64 2.235l1.03-4.36-.109-.093c-.515.234-.859.312-1.546.375l-.047.187h.468c.235 0 .329.063.329.203 0 .078 0 .157-.016.219L.953-3.125C.828-2.469.656-1.859.172-.015L.25.077l.656-.156.219-1.094c.078-.422.313-.812.64-1.125.673 1.781.97 2.375 1.22 2.375.124 0 .343-.11.78-.39l.438-.282-.078-.172-.406.22c-.14.062-.203.093-.281.093-.11 0-.172-.063-.25-.203-.344-.578-.547-1.047-.938-2.14l.14-.126c.594-.531 1.032-.75 1.516-.75a2.1 2.1 0 0 1 .344.047zm0 0"/></symbol><symbol overflow="visible" id="c"><path d="M2.422-.75l-.11-.156-.25.14c-.28.188-.484.266-.578.266-.078 0-.125-.078-.125-.172 0-.094 0-.156.063-.36l.734-2.687a.983.983 0 0 0 .063-.312c0-.157-.078-.235-.235-.235-.218 0-.562.188-1.296.657l-.266.171.062.188.313-.188c.265-.171.375-.203.453-.203.11 0 .172.079.172.188 0 .062-.047.25-.078.39l-.64 2.11c-.079.297-.126.515-.126.687 0 .22.11.344.281.344.266 0 .625-.187 1.563-.828zm.234-4.813c0-.218-.14-.359-.344-.359-.296 0-.562.281-.562.594 0 .219.14.36.375.36.313 0 .531-.266.531-.595zm0 0"/></symbol><symbol overflow="visible" id="i"><path d="M2.188-.969l-.141-.125-.938.266C1.047-.156.813.422.234 1.282l.141.093.39-.172C1.563.281 1.923-.28 2.188-.969zm0 0"/></symbol><symbol overflow="visible" id="k"><path d="M6.016-1.953a1.368 1.368 0 0 1-.032-.25c0-.094.016-.188.032-.266H.703c.016.078.031.172.031.266 0 .078-.015.172-.03.25zm0 0"/></symbol><symbol overflow="visible" id="l"><path d="M4.125.031v-.265l-.516-.032c-.515-.03-.625-.125-.625-.578v-5.25L2.86-6.14c-.625.297-1.312.563-2.203.86l.078.375h.094l1.25-.516.031-.016c.047 0 .079.094.079.297v4.297c0 .453-.11.547-.626.578l-.546.032V.03L2.594 0zm0 0"/></symbol></defs><use xlink:href="#a" x=".057" y="11.082"/><use xlink:href="#b" x="6.166" y="6.849"/><use xlink:href="#c" x="6.034" y="14.769"/><use xlink:href="#d" x="11.326" y="11.082"/><use xlink:href="#e" x="16.395" y="11.082"/><use xlink:href="#f" x="20.436" y="11.082"/><use xlink:href="#g" x="28.816" y="11.082"/><use xlink:href="#h" x="41.226" y="11.082"/><use xlink:href="#c" x="47.653" y="13.856"/><use xlink:href="#i" x="50.555" y="13.856"/><use xlink:href="#b" x="53.138" y="13.856"/><use xlink:href="#j" x="60.956" y="11.082"/><use xlink:href="#a" x="66.958" y="11.082"/><use xlink:href="#b" x="73.069" y="6.849"/><use xlink:href="#k" x="77.731" y="6.849"/><use xlink:href="#l" x="84.455" y="6.849"/><use xlink:href="#c" x="72.938" y="14.769"/><use xlink:href="#d" x="89.952" y="11.082"/><use xlink:href="#e" x="95.021" y="11.082"/><use xlink:href="#f" x="99.05" y="11.082"/><use xlink:href="#m" x="106.785" y="11.082"/><use xlink:href="#d" x="118.525" y="11.082"/><use xlink:href="#n" x="123.594" y="11.082"/><use xlink:href="#o" x="132.226" y="11.082"/><use xlink:href="#h" x="143.966" y="11.082"/><use xlink:href="#c" x="150.397" y="13.856"/><use xlink:href="#i" x="153.29" y="13.856"/><use xlink:href="#b" x="155.873" y="13.856"/><use xlink:href="#f" x="161.042" y="11.082"/><use xlink:href="#j" x="168.765" y="11.082"/><use xlink:href="#a" x="174.767" y="11.082"/><g><use xlink:href="#b" x="180.882" y="6.849"/></g><g><use xlink:href="#k" x="185.535" y="6.849"/><use xlink:href="#l" x="192.259" y="6.849"/></g><g><use xlink:href="#c" x="180.75" y="14.982"/></g><g><use xlink:href="#k" x="183.652" y="14.982"/><use xlink:href="#l" x="190.375" y="14.982"/></g><g><use xlink:href="#d" x="197.764" y="11.082"/><use xlink:href="#e" x="202.833" y="11.082"/></g><g><use xlink:href="#f" x="206.874" y="11.082"/></g></svg>