<svg xmlns="http://www.w3.org/2000/svg" xmlns:xlink="http://www.w3.org/1999/xlink" width="250pt" height="31pt" viewBox="0 0 250 31"><defs><symbol overflow="visible" id="a"><path d="M6.984-7.797l-.343 1.594h-.563c-.031-.477-.14-.82-.328-1.031-.18-.22-.46-.329-.844-.329-.543 0-1.047.274-1.515.813-.461.531-.825 1.242-1.094 2.125-.274.887-.406 1.71-.406 2.469 0 .594.101 1.031.312 1.312.219.281.547.422.985.422.289 0 .546-.039.765-.125.219-.094.422-.242.61-.453.195-.207.39-.5.578-.875h.562l-.36 1.656c-.73.211-1.495.313-2.296.313-.742 0-1.305-.207-1.688-.625C.984-.957.797-1.578.797-2.391c0-.57.098-1.234.297-1.984.207-.75.5-1.406.875-1.969.375-.57.816-1.004 1.328-1.297.508-.3 1.07-.453 1.687-.453.352 0 .68.024.985.063.3.043.64.12 1.015.234zm0 0"/></symbol><symbol overflow="visible" id="c"><path d="M.875-4.25v-.781h7.219v.781zm0 2.422v-.781h7.219v.78zm7.469-1.594zm0 0"/></symbol><symbol overflow="visible" id="d"><path d="M4.344 11.156v.563H1.328v-30.297h3.016v.562H2.469v29.172zm0 0"/></symbol><symbol overflow="visible" id="e"><path d="M4.406-4.203c0-.29-.023-.504-.062-.64a.542.542 0 0 0-.203-.298.705.705 0 0 0-.391-.093c-.398 0-.75.156-1.063.468-.312.313-.57.762-.765 1.344a5.036 5.036 0 0 0-.297 1.656c0 .399.078.696.234.891.157.188.391.281.704.281.351 0 .66-.066.921-.203.258-.133.532-.348.813-.64l.36.359c-.368.406-.735.703-1.11.89a2.658 2.658 0 0 1-1.203.282c-.563 0-.996-.164-1.297-.5-.293-.332-.438-.82-.438-1.469 0-.414.079-.875.235-1.375.156-.5.383-.938.687-1.313a2.91 2.91 0 0 1 1.047-.859 3.05 3.05 0 0 1 1.297-.281c.52 0 1 .062 1.438.187L5.03-4.203zm0 0"/></symbol><symbol overflow="visible" id="f"><path d="M2.563.094c-.618 0-1.09-.164-1.422-.5-.336-.344-.5-.832-.5-1.469 0-.313.046-.672.14-1.078a4.079 4.079 0 0 1 .61-1.453c.289-.414.644-.735 1.062-.953a2.827 2.827 0 0 1 1.375-.344c.625 0 1.098.172 1.422.516.332.343.5.835.5 1.468 0 .461-.078.95-.234 1.469-.157.512-.375.945-.657 1.297a2.675 2.675 0 0 1-.984.781 3.138 3.138 0 0 1-1.313.266zm-.891-1.719c0 .43.086.746.266.953.175.211.445.313.812.313.375 0 .707-.172 1-.516.3-.344.535-.82.703-1.438.176-.624.266-1.171.266-1.64 0-.426-.086-.742-.25-.953-.157-.219-.414-.328-.766-.328-.406 0-.762.171-1.062.515-.305.344-.543.836-.72 1.469-.167.625-.25 1.168-.25 1.625zm0 0"/></symbol><symbol overflow="visible" id="g"><path d="M4.422-4.172c-.043-.351-.156-.617-.344-.797-.187-.176-.48-.265-.875-.265-.312 0-.57.078-.765.234a.776.776 0 0 0-.282.625.85.85 0 0 0 .078.375c.051.105.149.227.297.36.145.124.375.28.688.468a4.5 4.5 0 0 1 .594.406c.144.125.257.25.343.375a.943.943 0 0 1 .188.375c.039.137.062.297.062.485 0 .343-.093.64-.281.89-.18.25-.43.438-.75.563a3.153 3.153 0 0 1-1.078.172c-.324 0-.64-.028-.953-.078A6.29 6.29 0 0 1 .297-.22L.578-1.5h.453c.02.375.125.664.313.86.195.187.508.28.937.28.375 0 .664-.081.875-.25.207-.163.313-.398.313-.703 0-.175-.031-.328-.094-.453a1.186 1.186 0 0 0-.297-.375 4.756 4.756 0 0 0-.625-.437 6.084 6.084 0 0 1-.719-.5 1.413 1.413 0 0 1-.375-.485 1.337 1.337 0 0 1-.125-.593c0-.313.082-.582.25-.813.164-.238.399-.422.704-.547a2.887 2.887 0 0 1 1.078-.187c.363 0 .695.027 1 .078.3.043.597.117.89.219l-.265 1.234zm0 0"/></symbol><symbol overflow="visible" id="h"><path d="M2.063-2.969c0 1.367.218 2.492.656 3.375.445.895 1.117 1.492 2.015 1.797l-.14.453C3.457 2.352 2.582 1.703 1.969.703c-.606-.988-.907-2.191-.907-3.61 0-1.405.301-2.609.907-3.609.613-1 1.488-1.648 2.625-1.953l.172.453c-.918.305-1.602.891-2.047 1.766-.438.867-.656 1.96-.656 3.281zm0 0"/></symbol><symbol overflow="visible" id="i"><path d="M3.438-5.313a5.101 5.101 0 0 0-1.376 1.47c-.335.562-.5 1.116-.5 1.655 0 .512.11.915.329 1.204.226.293.57.484 1.03.578l.595-2.688c.207-.894.523-1.55.953-1.969.426-.425.914-.64 1.468-.64.532 0 .93.152 1.204.453.27.293.406.742.406 1.344 0 .742-.156 1.418-.469 2.031A3.598 3.598 0 0 1 5.75-.437c-.574.343-1.242.519-2 .53l-.563 2.438h-.906L2.828.078c-.73-.082-1.293-.32-1.687-.719-.387-.406-.579-.937-.579-1.593 0-1.29.86-2.454 2.579-3.485zm.406 4.954a2.232 2.232 0 0 0 1.422-.547c.406-.352.718-.82.937-1.406a5.249 5.249 0 0 0 .328-1.829c0-.343-.062-.609-.187-.796-.117-.196-.282-.297-.5-.297-.313 0-.586.18-.813.53-.23.356-.43.919-.593 1.688zm0 0"/></symbol><symbol overflow="visible" id="j"><path d="M2.906-2.969c0-1.32-.219-2.414-.656-3.281A3.389 3.389 0 0 0 .219-8.016l.156-.453c1.145.305 2.02.953 2.625 1.953.613 1 .922 2.204.922 3.61 0 1.418-.309 2.62-.922 3.61-.605 1-1.48 1.648-2.625 1.952l-.14-.453C1.14 1.898 1.812 1.301 2.25.406c.438-.883.656-2.008.656-3.375zm0 0"/></symbol><symbol overflow="visible" id="k"><path d="M4.906-3.047V.328h-.843v-3.375H.874v-.781h3.188v-3.375h.843v3.375h3.188v.781zm0 0"/></symbol><symbol overflow="visible" id="l"><path d="M2.531.094C2.344.945 2.062 1.582 1.687 2a1.779 1.779 0 0 1-1.39.625c-.168 0-.297-.012-.39-.031l.109-.516c.039.008.129.016.265.016a.736.736 0 0 0 .453-.14c.125-.087.239-.243.344-.47.113-.218.219-.527.313-.921l1.25-5.579h-.985l.078-.406c.27-.008.461-.023.579-.047a.673.673 0 0 0 .265-.125.821.821 0 0 0 .156-.218c.051-.094.11-.254.172-.485.207-.707.524-1.238.953-1.594.438-.351.989-.53 1.657-.53.382 0 .718.03 1 .093l-.235 1h-.515c-.055-.219-.125-.375-.22-.469-.085-.101-.214-.156-.39-.156a.872.872 0 0 0-.562.187 1.528 1.528 0 0 0-.407.547c-.105.242-.203.57-.296.985l-.141.625h1.5l-.125.593H3.609zm0 0"/></symbol><symbol overflow="visible" id="m"><path d="M1.688-4.14c.207 0 .375.07.5.202.124.126.187.297.187.516 0 .211-.063.383-.188.516a.678.678 0 0 1-.5.187c-.199 0-.359-.062-.484-.187a.722.722 0 0 1-.187-.516c0-.219.062-.39.187-.515a.636.636 0 0 1 .484-.204zm0 0"/></symbol><symbol overflow="visible" id="n"><path d="M3.313-7.906l-.266 1.14H2l.281-1.14zM1.421-3.953c.094-.383.14-.676.14-.875 0-.176-.042-.297-.125-.36-.085-.062-.25-.097-.5-.109L1-5.609l1.438-.047h.343l-.844 3.765c-.085.387-.125.672-.125.86 0 .156.02.273.063.343.05.075.133.11.25.11a.68.68 0 0 0 .375-.14c.133-.102.32-.286.563-.548l.328.329c-.387.398-.7.667-.938.812a1.47 1.47 0 0 1-.797.219.756.756 0 0 1-.61-.281C.899-.376.829-.61.829-.891c0-.3.05-.68.156-1.14zm0 0"/></symbol><symbol overflow="visible" id="o"><path d="M1.594-3.719c.093-.375.14-.66.14-.86 0-.155-.027-.269-.078-.343-.054-.07-.136-.11-.25-.11-.117 0-.242.055-.375.157-.136.094-.324.273-.562.531L.14-4.672c.363-.375.66-.64.89-.797.239-.156.508-.234.813-.234.25 0 .441.086.578.25.144.156.219.367.219.625 0 .21-.047.445-.141.703l.078.016c.375-.54.735-.942 1.078-1.204.352-.257.711-.39 1.078-.39.364 0 .641.11.829.328.195.21.296.496.296.86 0 .25-.054.6-.156 1.046l-.39 1.547c-.106.418-.157.715-.157.89 0 .157.024.274.078.345.051.074.13.109.235.109.125 0 .25-.047.375-.14.133-.102.32-.286.562-.548l.344.329c-.344.355-.64.617-.89.78-.25.165-.532.25-.844.25a.795.795 0 0 1-.625-.265c-.149-.187-.22-.422-.22-.703 0-.25.063-.625.188-1.125l.266-1c.094-.375.156-.645.188-.813.03-.175.046-.32.046-.437 0-.27-.046-.46-.14-.578-.094-.125-.242-.188-.438-.188-.168 0-.343.07-.531.204-.188.125-.39.324-.61.593-.21.262-.382.516-.515.766-.125.25-.23.558-.313.922L1.766 0H.75zm0 0"/></symbol><symbol overflow="visible" id="p"><path d="M.875-3.047v-.781h7.219v.781zm0 0"/></symbol><symbol overflow="visible" id="q"><path d="M.266 11.719v-.563H2.14v-29.172H.266v-.562H3.28v30.297zm0 0"/></symbol><symbol overflow="visible" id="r"><path d="M1.813-1.36c.05.274.078.544.078.813 0 .274-.047.524-.141.75a2.24 2.24 0 0 1-.453.672c-.2.227-.48.477-.844.75l-.312-.36C.336 1.079.477.907.562.75A1.6 1.6 0 0 0 .766.234a3.58 3.58 0 0 0 .062-.718c0-.29-.015-.582-.047-.875zm0 0"/></symbol><symbol overflow="visible" id="s"><path d="M5.61-.969C6.222-1.844 6.686-2.602 7-3.25c.32-.645.484-1.172.484-1.578 0-.176-.043-.297-.125-.36-.074-.07-.203-.113-.39-.125l.062-.296h1.5l.172.296c-.148.356-.262.625-.344.813-.074.188-.18.414-.312.672-.137.262-.277.523-.422.781-.148.262-.324.555-.531.875-.2.313-.422.656-.672 1.031-.25.368-.547.778-.89 1.235h-.688l-.25-2.453a18.74 18.74 0 0 0-.063-.735 9.95 9.95 0 0 1-.031-.734h-.063a15.721 15.721 0 0 1-.875 1.734A36.223 36.223 0 0 1 2.22.094h-.781L.984-4.313a3.316 3.316 0 0 0-.093-.546.6.6 0 0 0-.172-.329c-.074-.07-.203-.113-.39-.125l.062-.296h1.53l.36 4.625c.54-.895.93-1.579 1.172-2.047.25-.469.43-.875.547-1.219.125-.344.219-.695.281-1.063l.063-.296h.843zm0 0"/></symbol><symbol overflow="visible" id="t"><path d="M4.078-1.11c-.344.407-.672.712-.984.907a1.8 1.8 0 0 1-.985.297C1.285.094.875-.316.875-1.141c0-.257.035-.535.11-.828l.687-3.047H.688l.093-.406c.227 0 .399-.016.516-.047a.839.839 0 0 0 .297-.125.671.671 0 0 0 .218-.234c.07-.102.141-.234.204-.39.062-.157.156-.43.28-.829h.798L2.78-5.609h1.781l-.125.593h-1.78l-.532 2.282c-.105.437-.172.757-.203.953a3.79 3.79 0 0 0-.031.468c0 .481.203.72.609.72.164 0 .344-.063.531-.188.196-.133.43-.36.703-.672zm0 0"/></symbol><symbol overflow="visible" id="u"><path d="M2.047-6.703c.094-.414.14-.703.14-.86 0-.164-.054-.28-.156-.343-.094-.07-.273-.11-.531-.11l.078-.312 1.469-.047h.344l-1 4.063.062.015c.375-.488.723-.844 1.047-1.062.332-.227.664-.344 1-.344.363 0 .645.11.844.328.195.21.297.496.297.86 0 .25-.059.6-.172 1.046l-.375 1.547c-.117.418-.172.715-.172.89 0 .157.023.274.078.345.05.074.133.109.25.109a.61.61 0 0 0 .36-.14c.132-.102.327-.286.577-.548l.329.329c-.375.386-.684.656-.922.812a1.553 1.553 0 0 1-.813.219.779.779 0 0 1-.61-.266c-.148-.187-.218-.422-.218-.703 0-.25.063-.625.188-1.125l.25-1c.093-.363.156-.633.187-.813.031-.187.047-.332.047-.437 0-.281-.047-.477-.14-.594-.087-.113-.231-.172-.438-.172-.156 0-.336.07-.531.204-.2.136-.407.34-.625.609-.211.273-.375.531-.5.781s-.227.547-.297.89L1.547 0h-1zm0 0"/></symbol><symbol overflow="visible" id="v"><path d="M3.031-.281c.239-.063.399-.13.485-.203a.59.59 0 0 0 .156-.329c.02-.144.031-.363.031-.656v-.953H.453v-.437l3.422-5.188h.844V-3h.125c.226 0 .39-.016.484-.047a.462.462 0 0 0 .234-.172c.07-.082.133-.222.188-.422h.438l-.063 1.22H4.719v.952c0 .262.004.453.015.578a.83.83 0 0 0 .094.297.54.54 0 0 0 .188.172c.082.043.21.09.39.14V0H3.031zM1.421-3h2.282v-1.453c0-.363.004-.774.016-1.234.02-.458.035-.801.047-1.032h-.063l-2.281 3.64zm0 0"/></symbol><symbol overflow="visible" id="w"><path d="M.938-6.344v-1.11a6.877 6.877 0 0 1 1.265-.484 4.574 4.574 0 0 1 1.14-.156c.446 0 .833.07 1.157.203.332.137.586.336.766.594.175.25.265.559.265.922 0 .324-.07.617-.203.875a1.86 1.86 0 0 1-.562.656 4.907 4.907 0 0 1-.922.547v.047c.238.055.469.133.687.234.219.094.41.227.578.391.176.168.317.367.422.594.102.23.157.492.157.781 0 .45-.102.852-.297 1.203-.2.356-.5.637-.907.844-.406.2-.902.297-1.484.297-.336 0-.7-.04-1.094-.11A6.822 6.822 0 0 1 .844-.328v-1.234h.703c.133.406.312.703.531.89.227.18.535.266.922.266.508 0 .895-.133 1.156-.406.258-.282.39-.692.39-1.235 0-.57-.171-1.008-.515-1.312-.343-.301-.851-.454-1.515-.454H2v-.515c.52-.031.96-.129 1.328-.297.363-.176.629-.398.797-.672.176-.27.266-.57.266-.906 0-.426-.118-.754-.344-.984-.23-.239-.563-.36-1-.36-.375 0-.68.102-.906.297-.23.2-.399.5-.5.906zm0 0"/></symbol><symbol overflow="visible" id="x"><path d="M5.031-5.313l.547-.39.375.094-.86 3.718c-.093.368-.14.653-.14.86 0 .156.024.273.078.343.051.075.133.11.25.11a.61.61 0 0 0 .36-.14c.132-.102.328-.286.578-.548l.328.329c-.356.375-.656.64-.906.796a1.44 1.44 0 0 1-.797.235.748.748 0 0 1-.578-.235c-.149-.164-.22-.379-.22-.64 0-.219.04-.446.126-.688L4.109-1.5c-.375.555-.734.96-1.078 1.219-.336.25-.687.375-1.062.375-.43 0-.762-.16-1-.485-.242-.332-.36-.789-.36-1.375C.61-2.43.74-3.07 1-3.687c.27-.626.633-1.114 1.094-1.47a2.47 2.47 0 0 1 1.547-.546c.25 0 .484.031.703.094.226.054.457.152.687.296zm-.515 1.75a3.32 3.32 0 0 0 .078-.421c.008-.114.015-.239.015-.375 0-.301-.07-.52-.203-.657-.125-.144-.343-.218-.656-.218-.398 0-.758.164-1.078.484-.324.324-.574.762-.75 1.313a5.146 5.146 0 0 0-.266 1.624c0 .407.051.711.157.907.113.199.3.297.562.297.258 0 .516-.11.766-.329.25-.218.504-.535.765-.953.258-.414.446-.89.563-1.421zm0 0"/></symbol><symbol overflow="visible" id="y"><path d="M1-3.438c0-3 .414-5.5 1.25-7.5.844-2.007 1.828-3.457 2.953-4.343l.344.39c-.992.918-1.809 2.34-2.453 4.266-.637 1.93-.953 4.328-.953 7.203 0 2.867.316 5.258.953 7.188.644 1.925 1.46 3.347 2.453 4.265l-.344.39c-1.125-.874-2.11-2.32-2.953-4.327C1.414 2.082 1-.426 1-3.438zm0 0"/></symbol><symbol overflow="visible" id="z"><path d="M4.938-3.438c0 3.012-.422 5.52-1.266 7.532-.836 2.008-1.82 3.453-2.953 4.328l-.344-.39c.988-.919 1.805-2.34 2.453-4.266.645-1.93.969-4.32.969-7.188 0-2.875-.324-5.273-.969-7.203-.648-1.926-1.465-3.348-2.453-4.266l.344-.39c1.133.886 2.117 2.336 2.953 4.344.844 2 1.265 4.5 1.265 7.5zm0 0"/></symbol><symbol overflow="visible" id="b"><path d="M3.188-.719c.132 0 .242-.004.328-.015a.498.498 0 0 0 .203-.063.386.386 0 0 0 .14-.156c.04-.07.086-.172.141-.297h.406c-.023.21-.039.418-.047.625-.011.21-.027.418-.046.625H.592v-.234C.665-.391.75-.54.844-.688c.095-.156.196-.312.313-.468.125-.164.258-.332.407-.5.144-.164.312-.344.5-.532.269-.269.488-.5.656-.687.176-.195.312-.375.406-.531.102-.156.172-.297.203-.422a1.408 1.408 0 0 0 0-.828.835.835 0 0 0-.187-.313.624.624 0 0 0-.297-.203 1.005 1.005 0 0 0-.406-.078c-.282 0-.516.074-.704.219-.18.148-.32.36-.421.64H.734v-.859a5.539 5.539 0 0 1 1.032-.328c.32-.07.609-.11.859-.11.3 0 .563.04.781.11.219.062.39.152.516.266.133.117.234.257.297.421.062.168.093.344.093.532 0 .117-.011.226-.03.328-.012.093-.04.187-.079.281a2.749 2.749 0 0 1-.156.297 2.42 2.42 0 0 1-.234.297 3.877 3.877 0 0 1-.297.328c-.118.125-.246.262-.391.406l-.438.438a16.056 16.056 0 0 0-.828.89 2.679 2.679 0 0 0-.296.375zm0 0"/></symbol></defs><use xlink:href="#a" x="-.19" y="19.134"/><use xlink:href="#b" x="6.243" y="21.575"/><use xlink:href="#c" x="15.095" y="19.134"/><use xlink:href="#d" x="27.347" y="19.137"/><use xlink:href="#e" x="31.935" y="11.386"/><use xlink:href="#f" x="37.805" y="11.386"/><use xlink:href="#g" x="44.44" y="11.386"/><use xlink:href="#h" x="50.215" y="11.386"/><use xlink:href="#i" x="55.176" y="11.386"/><use xlink:href="#j" x="63.521" y="11.386"/><use xlink:href="#k" x="71.136" y="11.386"/><use xlink:href="#l" x="82.733" y="11.386"/><use xlink:href="#m" x="92.309" y="11.386"/><use xlink:href="#g" x="98.334" y="11.386"/><use xlink:href="#n" x="104.109" y="11.386"/><use xlink:href="#o" x="108.281" y="11.386"/><use xlink:href="#h" x="115.346" y="11.386"/><use xlink:href="#i" x="120.308" y="11.386"/><use xlink:href="#j" x="128.653" y="11.386"/><use xlink:href="#g" x="31.935" y="25.831"/><use xlink:href="#n" x="37.697" y="25.831"/><use xlink:href="#o" x="41.87" y="25.831"/><use xlink:href="#h" x="48.935" y="25.831"/><use xlink:href="#i" x="53.897" y="25.831"/><use xlink:href="#j" x="62.241" y="25.831"/><use xlink:href="#p" x="69.869" y="25.831"/><use xlink:href="#l" x="81.453" y="25.831"/><use xlink:href="#m" x="91.03" y="25.831"/><use xlink:href="#e" x="97.067" y="25.831"/><use xlink:href="#f" x="102.937" y="25.831"/><use xlink:href="#g" x="109.572" y="25.831"/><use xlink:href="#h" x="115.346" y="25.831"/><use xlink:href="#i" x="120.308" y="25.831"/><use xlink:href="#j" x="128.653" y="25.831"/><use xlink:href="#q" x="133.621" y="19.137"/><use xlink:href="#r" x="140.202" y="19.134"/><use xlink:href="#s" x="147.268" y="19.134"/><use xlink:href="#n" x="156.461" y="19.134"/><use xlink:href="#t" x="160.621" y="19.134"/><use xlink:href="#u" x="165.643" y="19.134"/><use xlink:href="#l" x="175.111" y="19.134"/><use xlink:href="#c" x="185.357" y="19.134"/><use xlink:href="#v" x="198.798" y="10.086"/><path d="M198.797 15.719h6.621" fill="none" stroke-width=".776" stroke="#000" stroke-miterlimit="10"/><use xlink:href="#w" x="198.798" y="27.132"/><use xlink:href="#t" x="206.613" y="19.134"/><use xlink:href="#x" x="211.622" y="19.134"/><use xlink:href="#o" x="218.568" y="19.134"/><use xlink:href="#y" x="227.63" y="19.134"/><g><use xlink:href="#i" x="234.733" y="10.086"/></g><path d="M234.734 15.719h8.352" fill="none" stroke-width=".776" stroke="#000" stroke-miterlimit="10"/><g><use xlink:href="#v" x="235.6" y="27.132"/></g><g><use xlink:href="#z" x="244.282" y="19.134"/></g></svg>