<svg xmlns="http://www.w3.org/2000/svg" xmlns:xlink="http://www.w3.org/1999/xlink" width="173pt" height="146pt" viewBox="0 0 173 146"><defs><symbol overflow="visible" id="a"><path d="M4.86-1.016l-.094-.25c-.079.079-.094.079-.157.125-.375.329-.562.438-.734.438-.125 0-.188-.094-.188-.281 0-.063 0-.094.016-.125l1.11-4.532-.125-.109-.391.219c-.469-.188-.703-.235-1.016-.235-.344 0-.578.063-.906.22-.75.374-1.125.734-1.438 1.312C.422-3.172.047-1.75.047-.781c0 .5.187.906.406.906.25 0 .688-.25 1.14-.625.516-.438.985-1 1.641-1.938L2.891-.921a2.882 2.882 0 0 0-.063.61c0 .28.094.437.281.437.266 0 .766-.328 1.75-1.14zM3.811-4.953c-.265 1.281-.484 1.906-.89 2.516-.656 1-1.406 1.734-1.797 1.734-.14 0-.219-.156-.219-.485 0-.765.313-2.093.735-3.078.28-.687.578-.906 1.156-.906.281 0 .5.047 1.015.219zm0 0"/></symbol><symbol overflow="visible" id="b"><path d="M8.125-3.938c-.016-.124-.031-.25-.031-.359 0-.125.015-.25.031-.36H.953c.031.11.031.235.031.36 0 .11 0 .234-.03.36zm0 2.626c-.016-.125-.031-.235-.031-.36s.015-.234.031-.36H.953a1.4 1.4 0 0 1 .031.36c0 .125 0 .234-.03.36zm0 0"/></symbol><symbol overflow="visible" id="c"><path d="M4.125-5.438c-.469-.234-.797-.328-1.203-.328-.61 0-1.344.344-1.922.938-.313.328-.438.625-.438 1.047 0 .672.375 1.062 1.157 1.219l.75.14c.531.094.719.297.719.766 0 .797-.547 1.312-1.391 1.312-.438 0-.797-.14-1.125-.422v-1H.375C.312-1.156.235-.734.109-.187.563.03.97.124 1.391.124c.578 0 1.125-.203 1.734-.688.61-.484.875-.921.875-1.515 0-.64-.375-1-1.281-1.156l-.5-.094c-.719-.14-.953-.344-.953-.828 0-.64.53-1.125 1.218-1.125.485 0 .954.218 1.141.531v.656h.266c.046-.406.109-.734.234-1.343zm0 0"/></symbol><symbol overflow="visible" id="d"><path d="M2.875-1.016l-.11-.218-.312.203c-.36.25-.61.36-.734.36-.078 0-.157-.11-.157-.235 0-.125.016-.219.094-.485l.907-3.625c.062-.203.078-.328.078-.437 0-.203-.094-.313-.297-.313-.266 0-.688.25-1.61.891l-.328.234.078.235.391-.25c.344-.219.469-.266.578-.266.11 0 .203.11.203.25 0 .094-.047.344-.11.531l-.78 2.86c-.11.39-.157.687-.157.922 0 .28.125.468.36.468.312 0 .75-.265 1.906-1.125zm.297-6.5c0-.296-.172-.5-.422-.5-.36 0-.688.407-.688.813 0 .297.172.484.47.484.374 0 .64-.343.64-.797zm0 0"/></symbol><symbol overflow="visible" id="e"><path d="M6.14-1.016l-.109-.218-.312.203c-.36.234-.61.36-.735.36-.078 0-.156-.11-.156-.235 0-.063.016-.188.031-.235l.782-3.312a4.47 4.47 0 0 0 .125-.875c0-.281-.125-.438-.36-.438-.5 0-1.328.454-2.031 1.11-.453.422-.797.828-1.422 1.703l.469-1.922c.047-.219.062-.36.062-.484 0-.266-.093-.407-.265-.407-.266 0-.719.266-1.594.891l-.344.234.094.235.375-.25c.438-.282.484-.297.563-.297.14 0 .218.125.218.297 0 .61-.484 2.922-.984 4.625l.094.14c.296-.078.562-.156.828-.203.234-1.515.484-2.281 1.031-3.11.656-1 1.547-1.75 2.078-1.75.125 0 .203.11.203.298 0 .203-.031.453-.125.843L4.031-1.28c-.11.437-.156.718-.156.906 0 .297.125.484.36.484.312 0 .734-.25 1.906-1.125zm0 0"/></symbol><symbol overflow="visible" id="f"><path d="M4.11-7.61a.735.735 0 0 1-.188-.14c-.063-.063-.11-.11-.14-.188-1.47 1.47-2.345 3.032-2.345 4.563v.781c0 1.516.875 3.078 2.344 4.547a.735.735 0 0 1 .14-.187.735.735 0 0 1 .188-.141C2.781.281 2.156-1.203 2.156-2.594v-.781c0-1.39.625-2.89 1.953-4.234zm0 0"/></symbol><symbol overflow="visible" id="g"><path d="M7.297-3.953c0-.297-.047-.547-.14-.766-.141-.36-.626-1.047-.938-1.047-.282 0-.594.094-.86.235-.453.265-1.03.703-1.343 1.031-.125.14-.22.36-.266.563L2.969-.329c-.938-.11-1.485-.61-1.453-1.484.062-1.329.953-2.797 1.906-3.297a2.5 2.5 0 0 1 .594-.157c.125-.109.109-.109.187-.218-.031-.141-.078-.141-.11-.141-.265 0-.75.219-1.124.406C1.516-4.53.688-3.312.609-1.812.547-.532 1.281.125 2.672.125h.219l-.672 2.656-.11.453.079.063c.25-.078.484-.14.874-.203L3.688.016c.578-.141 1.156-.36 1.624-.672 1.11-.703 1.922-2.063 1.985-3.297zm-.922.187c-.063 1.157-.781 2.422-1.64 3.047a2.33 2.33 0 0 1-.97.375l.329-1.422c.172-.953.562-2.89.843-3.125.157-.171.5-.28.891-.28.328 0 .578.765.547 1.405zm0 0"/></symbol><symbol overflow="visible" id="h"><path d="M3.64-2.594v-.781c0-1.531-.874-3.094-2.343-4.563-.047.079-.094.125-.156.188a.427.427 0 0 1-.188.14c1.328 1.344 1.969 2.844 1.969 4.235v.781c0 1.39-.64 2.875-1.969 4.219.078.031.14.078.188.14.062.063.109.126.156.188C2.766.484 3.64-1.078 3.64-2.594zm0 0"/></symbol><symbol overflow="visible" id="i"><path d="M8.125-2.625c-.016-.125-.031-.25-.031-.36 0-.124.015-.25.031-.359H4.906v-3.234c-.125.031-.25.047-.36.047-.124 0-.25-.016-.359-.047v3.234H.954c.031.11.031.235.031.36 0 .109 0 .234-.03.359h3.234V.594c.109-.016.234-.031.359-.031.11 0 .234.015.36.03v-3.218zm0 0"/></symbol><symbol overflow="visible" id="j"><path d="M5.172-4.5c0-.453-.11-.922-.25-1.094-.078-.11-.234-.172-.422-.172-.281 0-.64.094-.969.266-.61.328-1.015.688-1.75 1.625l1.032-4.75-.141-.14c-.625.312-1.063.421-1.922.5l-.047.25h.578c.282 0 .407.093.407.296 0 .078-.016.219-.032.282L.453-.845c-.016.031-.016.078-.016.11 0 .468.579.859 1.235.859.437 0 1.047-.219 1.562-.594C4.391-1.28 5.172-2.922 5.172-4.5zm-.86.297c0 .766-.25 1.781-.609 2.562-.39.829-.875 1.204-1.515 1.204-.547 0-.844-.266-.844-.766 0-.297.047-.64.156-1.078.219-.953.516-1.531.984-2.031.391-.407 1.016-.75 1.36-.75.312 0 .469.265.469.859zm0 0"/></symbol><symbol overflow="visible" id="k"><path d="M2.39-2.984c0-.438-.28-.72-.718-.72-.422 0-.719.282-.719.72 0 .421.297.718.719.718.437 0 .719-.296.719-.718zm0 0"/></symbol><symbol overflow="visible" id="l"><path d="M4.656-5.469c-.312-.203-.703-.297-1.156-.297-.531 0-1.39.422-2.063 1.016C.75-4.14.298-2.906.298-1.625c0 1.14.5 1.75 1.453 1.75.656 0 1.219-.234 1.89-.766l.594-.5-.093-.234-.188.125c-.86.563-1.312.766-1.734.766-.672 0-1.016-.47-1.016-1.422 0-1.266.406-2.5.984-2.953.25-.22.547-.313.938-.313.531 0 .969.219.969.516v.718h.265c.094-.78.188-1.218.297-1.53zm0 0"/></symbol><symbol overflow="visible" id="m"><path d="M4.906-3.953c0-1.125-.593-1.813-1.578-1.813-.515 0-1.078.204-1.625.594-.969.688-1.5 1.89-1.5 3.36C.203-.548.734.125 1.734.125c.657 0 1.375-.297 1.907-.813.75-.703 1.265-2.062 1.265-3.265zM4-3.766c0 1.141-.36 2.422-.89 3.047-.22.25-.532.39-.891.39-.703 0-1.11-.53-1.11-1.484 0-1.343.47-2.812 1.047-3.296.156-.125.438-.204.719-.204.734 0 1.125.547 1.125 1.547zm0 0"/></symbol><symbol overflow="visible" id="n"><path d="M2.188-.64c0-.344-.329-.688-.704-.688-.359 0-.687.344-.687.687 0 .36.328.704.672.704.39 0 .718-.329.718-.704zm0 0"/></symbol><symbol overflow="visible" id="o"><path d="M8.125-2.625c-.016-.125-.031-.25-.031-.36 0-.124.015-.25.031-.359H.953c.031.11.031.235.031.36 0 .109 0 .234-.03.359zm0 0"/></symbol><symbol overflow="visible" id="p"><path d="M5 .031v-.36l-.625-.03c-.656-.032-.781-.172-.781-.782v-7.093l-.156-.063c-.782.406-1.626.766-2.72 1.156l.079.5h.125l1.547-.687.031-.016c.063 0 .094.11.094.407v5.796c0 .61-.125.75-.781.782l-.672.03v.36L3.125 0zm0 0"/></symbol><symbol overflow="visible" id="q"><path d="M4.594.031c-.016-.187-.016-.281-.016-.406 0-.11 0-.203.016-.39l-3.328.078 1.75-1.704c.937-.906 1.234-1.39 1.234-2.062 0-1.016-.75-1.64-1.984-1.64-.688 0-1.172.171-1.641.624L.469-4.266H.75l.11-.406c.171-.516.515-.734 1.156-.734.828 0 1.359.468 1.359 1.218 0 .672-.406 1.329-1.484 2.391L.234-.203V.03L2.391 0zm0 0"/></symbol></defs><use xlink:href="#a" x=".36" y="8.745"/><use xlink:href="#b" x="8.98" y="8.745"/><use xlink:href="#c" x="21.389" y="8.745"/><use xlink:href="#d" x="26.04" y="8.745"/><use xlink:href="#e" x="29.555" y="8.745"/><use xlink:href="#f" x="36.202" y="8.745"/><use xlink:href="#g" x="41.271" y="8.745"/><use xlink:href="#h" x="48.898" y="8.745"/><use xlink:href="#i" x="56.621" y="8.745"/><use xlink:href="#j" x="68.373" y="8.745"/><use xlink:href="#k" x="76.562" y="8.745"/><use xlink:href="#l" x="82.564" y="8.745"/><use xlink:href="#m" x="87.549" y="8.745"/><use xlink:href="#c" x="92.857" y="8.745"/><use xlink:href="#f" x="97.508" y="8.745"/><use xlink:href="#g" x="102.577" y="8.745"/><use xlink:href="#h" x="110.204" y="8.745"/><use xlink:href="#n" x="-.309" y="33.969"/><use xlink:href="#n" x="2.68" y="33.969"/><use xlink:href="#b" x="8.98" y="33.969"/><use xlink:href="#c" x="21.39" y="33.969"/><use xlink:href="#d" x="26.04" y="33.969"/><use xlink:href="#e" x="29.555" y="33.969"/><use xlink:href="#f" x="36.202" y="33.969"/><use xlink:href="#g" x="41.271" y="33.969"/><use xlink:href="#h" x="48.899" y="33.969"/><use xlink:href="#i" x="56.622" y="33.969"/><use xlink:href="#o" x="69.57" y="25.36"/><use xlink:href="#p" x="78.656" y="25.36"/><use xlink:href="#i" x="87.288" y="25.36"/><use xlink:href="#l" x="99.028" y="25.36"/><use xlink:href="#m" x="104.013" y="25.36"/><use xlink:href="#c" x="109.321" y="25.36"/><use xlink:href="#f" x="113.972" y="25.36"/><use xlink:href="#g" x="119.041" y="25.36"/><use xlink:href="#h" x="126.668" y="25.36"/><path d="M69.57 30.98h62.172" fill="none" stroke-width=".717" stroke="#000" stroke-miterlimit="10"/><use xlink:href="#c" x="84.368" y="41.932"/><use xlink:href="#d" x="89.019" y="41.932"/><use xlink:href="#e" x="92.521" y="41.932"/><use xlink:href="#f" x="99.169" y="41.932"/><use xlink:href="#g" x="104.238" y="41.932"/><use xlink:href="#h" x="111.865" y="41.932"/><use xlink:href="#k" x="135.595" y="33.969"/><use xlink:href="#l" x="141.597" y="33.969"/><use xlink:href="#m" x="146.582" y="33.969"/><use xlink:href="#c" x="151.89" y="33.969"/><use xlink:href="#f" x="156.541" y="33.969"/><use xlink:href="#g" x="161.61" y="33.969"/><use xlink:href="#h" x="169.237" y="33.969"/><use xlink:href="#n" x="-.309" y="68.153"/><use xlink:href="#n" x="2.68" y="68.153"/><use xlink:href="#b" x="8.98" y="68.153"/><use xlink:href="#c" x="21.39" y="68.153"/><use xlink:href="#d" x="26.04" y="68.153"/><use xlink:href="#e" x="29.555" y="68.153"/><use xlink:href="#f" x="36.202" y="68.153"/><use xlink:href="#g" x="41.271" y="68.153"/><use xlink:href="#h" x="48.899" y="68.153"/><use xlink:href="#i" x="56.622" y="68.153"/><use xlink:href="#o" x="69.57" y="59.545"/><use xlink:href="#l" x="78.656" y="59.545"/><use xlink:href="#m" x="83.641" y="59.545"/><use xlink:href="#c" x="88.949" y="59.545"/><use xlink:href="#f" x="93.6" y="59.545"/><use xlink:href="#g" x="98.669" y="59.545"/><use xlink:href="#h" x="106.296" y="59.545"/><g><use xlink:href="#i" x="114.019" y="59.545"/></g><g><use xlink:href="#l" x="125.759" y="59.545"/></g><g><use xlink:href="#m" x="130.745" y="59.545"/><use xlink:href="#c" x="136.053" y="59.545"/></g><g><use xlink:href="#q" x="140.709" y="55.312"/></g><g><use xlink:href="#f" x="146.206" y="59.545"/><use xlink:href="#g" x="151.275" y="59.545"/><use xlink:href="#h" x="158.902" y="59.545"/></g><path d="M69.57 65.164h94.403" fill="none" stroke-width=".717" stroke="#000" stroke-miterlimit="10"/><g><use xlink:href="#c" x="100.482" y="76.116"/><use xlink:href="#d" x="105.133" y="76.116"/></g><g><use xlink:href="#e" x="108.635" y="76.116"/><use xlink:href="#f" x="115.283" y="76.116"/><use xlink:href="#g" x="120.352" y="76.116"/><use xlink:href="#h" x="127.979" y="76.116"/></g><g><use xlink:href="#n" x="-.309" y="102.338"/><use xlink:href="#n" x="2.68" y="102.338"/></g><g><use xlink:href="#b" x="8.98" y="102.338"/></g><g><use xlink:href="#c" x="22.592" y="93.729"/><use xlink:href="#d" x="27.243" y="93.729"/></g><g><use xlink:href="#e" x="30.757" y="93.729"/></g><g><use xlink:href="#q" x="37.405" y="89.496"/></g><g><use xlink:href="#f" x="42.901" y="93.729"/><use xlink:href="#g" x="47.97" y="93.729"/><use xlink:href="#h" x="55.597" y="93.729"/></g><g><use xlink:href="#i" x="63.32" y="93.729"/></g><g><use xlink:href="#l" x="75.06" y="93.729"/></g><g><use xlink:href="#m" x="80.046" y="93.729"/><use xlink:href="#c" x="85.354" y="93.729"/></g><g><use xlink:href="#q" x="90.011" y="89.496"/></g><g><use xlink:href="#f" x="95.507" y="93.729"/><use xlink:href="#g" x="100.576" y="93.729"/><use xlink:href="#h" x="108.203" y="93.729"/></g><g><use xlink:href="#o" x="115.926" y="93.729"/></g><g><use xlink:href="#l" x="127.666" y="93.729"/></g><g><use xlink:href="#m" x="132.652" y="93.729"/><use xlink:href="#c" x="137.96" y="93.729"/><use xlink:href="#f" x="142.61" y="93.729"/><use xlink:href="#g" x="147.679" y="93.729"/><use xlink:href="#h" x="155.307" y="93.729"/></g><path d="M22.594 99.348h137.789" fill="none" stroke-width=".717" stroke="#000" stroke-miterlimit="10"/><g><use xlink:href="#c" x="75.198" y="110.301"/><use xlink:href="#d" x="79.849" y="110.301"/></g><g><use xlink:href="#e" x="83.363" y="110.301"/><use xlink:href="#f" x="90.01" y="110.301"/><use xlink:href="#g" x="95.079" y="110.301"/><use xlink:href="#h" x="102.707" y="110.301"/></g><g><use xlink:href="#a" x=".36" y="134.491"/></g><g><use xlink:href="#b" x="8.98" y="134.491"/></g><g><use xlink:href="#p" x="22.592" y="125.882"/></g><g><use xlink:href="#o" x="31.224" y="125.882"/></g><g><use xlink:href="#l" x="42.964" y="125.882"/></g><g><use xlink:href="#m" x="47.949" y="125.882"/><use xlink:href="#c" x="53.257" y="125.882"/><use xlink:href="#f" x="57.908" y="125.882"/><use xlink:href="#g" x="62.977" y="125.882"/><use xlink:href="#h" x="70.604" y="125.882"/></g><path d="M22.594 131.504H75.68" fill="none" stroke-width=".717" stroke="#000" stroke-miterlimit="10"/><g><use xlink:href="#c" x="32.847" y="142.454"/><use xlink:href="#d" x="37.498" y="142.454"/></g><g><use xlink:href="#e" x="41" y="142.454"/><use xlink:href="#f" x="47.648" y="142.454"/><use xlink:href="#g" x="52.717" y="142.454"/><use xlink:href="#h" x="60.344" y="142.454"/></g></svg>