<svg xmlns:xlink="http://www.w3.org/1999/xlink" width="39.167ex" height="4.5ex" style="vertical-align:-1.667ex;margin-bottom:1px;margin-top:1px" viewBox="0 -1205.9 16857.8 1907.9" xmlns="http://www.w3.org/2000/svg"><defs><path stroke-width="10" id="a" d="M516 683L372 105c-4-17-6-24-6-48 0-20 3-46 30-46 41 0 59 59 76 124 3 14 4 18 14 18 3 0 12 0 12-10 0 0-13-63-30-99-16-32-39-55-74-55-48 0-83 33-91 75-60-71-110-75-130-75C95-11 40 55 40 149c0 146 124 293 241 293 45 0 74-27 92-64l60 237 3 20c0 10-2 17-50 17-15 0-24 0-24 12 0 13 6 18 14 19 17 2 112 11 127 11 13 0 13-11 13-11zM361 332c0 6-14 88-79 88-40 0-85-37-116-96-23-46-55-169-55-219 0-39 14-94 64-94 28 0 69 16 113 71 15 17 15 19 20 37l50 196c1 5 3 11 3 17z"/><path stroke-width="10" id="b" d="M722 347c0-11-9-20-20-20H76c-11 0-20 9-20 20s9 20 20 20h626c11 0 20-9 20-20zm0-194c0-11-9-20-20-20H76c-11 0-20 9-20 20s9 20 20 20h626c11 0 20-9 20-20z"/><path stroke-width="10" id="c" d="M159-230c0-11-9-20-20-20s-20 9-20 20v960c0 11 9 20 20 20s20-9 20-20v-960z"/><path stroke-width="10" id="d" d="M330 420c0-20-10-20-30-20h-94l-74-295c-4-17-6-24-6-48 0-33 10-46 31-46 34 0 87 24 130 128 5 11 6 14 15 14 4 0 12 0 12-10 0-8-57-154-159-154-54 0-92 38-92 92 0 18 4 35 76 319H51c-20 0-28 0-28 12 0 19 10 19 30 19h94l39 159c9 35 37 36 40 36 17 0 29-10 29-27 0-6-5-26-41-168h88c18 0 28 0 28-11z"/><path stroke-width="10" id="e" d="M498 143s-13-63-30-99c-16-32-39-55-74-55-48 0-83 33-91 75-60-71-110-75-130-75C95-11 40 55 40 149c0 146 124 293 241 293 45 0 74-27 92-64 3 22 18 44 42 44 17 0 29-10 29-27 0-4 0-6-7-34l-36-140-22-90c-11-44-13-52-13-74 0-20 3-46 30-46 41 0 59 59 76 124 3 14 4 18 14 18 3 0 12 0 12-10zM361 332c0 6-14 88-79 88-40 0-85-37-116-96-23-46-55-169-55-219 0-39 14-94 64-94 28 0 69 16 113 71 15 17 15 19 20 37l50 196c1 5 3 11 3 17z"/><path stroke-width="10" id="f" d="M571 143c0-8-37-154-131-154-47 0-82 35-82 82 0 11 1 23 10 46 16 43 65 171 65 233 0 33-9 70-54 70-95 0-148-91-163-122l-13-50c-5-23-11-45-17-67l-22-90c-6-25-18-72-19-74-7-20-25-28-37-28-15 0-29 9-29 27 0 5 6 28 9 43l58 231c13 52 16 63 16 84 0 33-11 46-31 46-36 0-56-48-73-119-6-22-7-23-17-23 0 0-12 0-12 10 0 4 14 63 30 97 10 18 29 57 75 57s87-31 92-87c17 23 66 87 156 87 72 0 115-40 115-107 0-57-42-167-61-220-9-22-18-46-18-71 0-23 7-33 24-33 49 0 82 56 102 124 5 15 5 18 15 18 3 0 12 0 12-10z"/><path stroke-width="10" id="g" d="M474 395c0-7-2-12-3-18L360-67c-15-60-87-138-212-138-96 0-133 20-133 61 0 40 32 58 54 58 27 0 38-19 38-35 0-17-11-43-41-52 28-9 61-10 80-10 106 0 140 99 144 108l33 132-1 1C312 47 265 0 206 0 134 0 73 59 73 158c0 144 124 284 238 284 40 0 75-26 93-63 4 36 31 43 41 43 17 0 29-10 29-27zm-82-61c0 5-14 86-80 86-42 0-85-40-112-89-27-51-56-169-56-217 0-40 15-92 65-92 29 0 60 18 81 36 22 19 45 44 51 70l48 191c1 4 3 10 3 15z"/><path stroke-width="10" id="h" d="M430 107c0-12-84-118-227-118-98 0-157 79-157 181 0 175 151 272 262 272 69 0 107-41 107-85 0-14-5-73-75-103-50-21-124-23-153-23h-53c-15-61-16-92-16-104 0-32 9-116 87-116 12 0 121 0 200 99 6 8 8 10 13 10 6 0 12-7 12-13zm-48 250c0 34-27 63-74 63-26 0-129-15-168-167h41c41 0 201 0 201 104z"/><path stroke-width="10" id="i" d="M332-238c0-5-5-10-10-10-2 0-4 1-6 2-110 83-215 283-215 454v84c0 171 105 371 215 454 2 1 4 2 6 2 5 0 10-5 10-10 0-3-2-6-4-8-104-78-173-278-173-438v-84c0-160 69-360 173-438 2-2 4-5 4-8z"/><path stroke-width="10" id="j" d="M288 208c0-171-105-371-215-454-2-1-4-2-6-2-5 0-10 5-10 10 0 3 2 6 4 8 104 78 173 278 173 438v84c0 160-69 360-173 438-2 2-4 5-4 8 0 5 5 10 10 10 2 0 4-1 6-2 110-83 215-283 215-454v-84z"/><path stroke-width="10" id="l" d="M756 545c0-95-105-169-209-188 97-11 155-69 155-141C702 118 584 0 426 0H69C51 0 42 0 42 11c0 20 10 20 27 20 79 0 81 8 91 47l134 537c3 12 4 15 4 19 0 13-9 14-27 16-17 2-38 2-38 2-19 0-28 0-28 11 0 20 10 20 29 20h336c120 0 186-64 186-138zm-91 4c0 44-21 103-109 103H427c-43 0-45-3-54-38l-62-248h146c122 0 208 95 208 183zm-56-322c0 43-19 117-115 117H305L236 65c-5-18-5-20-5-23 0-8 3-9 13-10 6-1 8-1 22-1h136c118 0 207 97 207 196z"/><path stroke-width="10" id="m" d="M251 710c0-7-2-14-6-19L87 430H60l120 297c4 11 18 21 33 21 21 0 38-17 38-38z"/><path stroke-width="10" id="n" d="M527 376c0-40-32-58-54-58-27 0-38 19-38 35 0 24 20 49 48 54-21 13-45 13-50 13-70 0-93-92-99-118l-34-137c-11-44-17-66-17-88 0-34 16-66 55-66 32 0 100 24 133 131 2 7 4 11 13 11 3 0 12 0 12-10 0-25-57-154-160-154-60 0-96 39-108 76-3-6-39-76-105-76-44 0-94 20-94 66 0 32 25 58 55 58 15 0 37-8 37-35 0-28-22-49-47-54 21-13 44-13 50-13 44 0 79 42 95 104 37 140 54 207 54 238 0 58-35 67-54 67-34 0-100-25-134-131-2-9-5-11-13-11 0 0-12 0-12 10 0 25 57 154 161 154 29 0 83-10 108-76 12 23 47 76 105 76 34 0 93-14 93-66z"/><path stroke-width="10" id="o" d="M449 174L421 0H50c0 24 0 26 11 37l192 214c55 62 105 141 105 221 0 82-43 163-134 163-58 0-112-37-135-102 3 1 5 1 13 1 35 0 53-26 53-52 0-41-35-53-52-53-3 0-53 0-53 56 0 89 74 181 187 181 122 0 212-80 212-194 0-100-60-154-216-292L127 77h180c22 0 88 0 95 8 10 15 17 59 22 89h25z"/><path stroke-width="10" id="p" d="M722 250c0-11-9-20-20-20H409V-63c0-11-9-20-20-20s-20 9-20 20v293H76c-11 0-20 9-20 20s9 20 20 20h293v293c0 11 9 20 20 20s20-9 20-20V270h293c11 0 20-9 20-20z"/><path stroke-width="10" id="q" d="M490 404c0-7 0-9-4-23L390-1c-28-113-131-204-234-204-62 0-106 37-106 87 0 49 33 65 56 65 10 0 37-4 37-35 0-19-10-32-20-41-14-12-27-12-43-12 17-39 62-42 76-42 46 0 84 29 110 63 40 53 52 102 65 154-28-28-62-45-101-45-59 0-122 30-122 119 0 47 18 104 58 210 7 19 17 45 17 70 0 32-17 32-25 32-34 0-74-30-101-124-5-16-6-18-16-18 0 0-12 0-12 10 0 9 37 154 132 154 50 0 82-37 82-82 0-20-4-31-20-72-34-88-51-150-51-196 0-37 11-81 62-81 66 0 109 70 113 85l45 180 20 80c4 18 12 49 14 54 9 15 25 21 35 21 15 0 29-9 29-27z"/><path stroke-width="10" id="k" d="M1020 1130s0-5-5-20L466-626c-8-24-9-24-42-24L194 152l-68-80-16 15 139 163 215-750 513 1624c4 13 8 26 23 26 12 0 20-9 20-20z"/></defs><g stroke="currentColor" fill="currentColor" stroke-width="0" transform="scale(1 -1)"><use xlink:href="#a"/><use xlink:href="#b" x="802"/><use xlink:href="#c" x="1863"/><use xlink:href="#c" x="2146"/><use xlink:href="#d" x="2429"/><use xlink:href="#e" x="2795"/><use xlink:href="#f" x="3329"/><use xlink:href="#g" x="3934"/><use xlink:href="#h" x="4416"/><use xlink:href="#f" x="4887"/><use xlink:href="#d" x="5492"/><use xlink:href="#i" x="5858"/><use xlink:href="#d" x="6252"/><use xlink:href="#j" x="6618"/><use xlink:href="#c" x="7012"/><use xlink:href="#c" x="7295"/><use xlink:href="#b" x="7856"/><g transform="translate(8917)"><use xlink:href="#k" y="-28"/><path d="M1005 1072h6935v60H1005z" stroke="none"/><g transform="translate(1005)"><use xlink:href="#l"/><use transform="scale(.707)" xlink:href="#m" x="1080"/><use transform="scale(.707)" xlink:href="#n" x="1080" y="-350"/><use xlink:href="#i" x="1272"/><use xlink:href="#d" x="1666"/><g transform="translate(2032)"><use xlink:href="#j"/><use transform="scale(.707)" xlink:href="#o" x="557" y="583"/></g><use xlink:href="#p" x="3105"/><g transform="translate(4110)"><use xlink:href="#l"/><use transform="scale(.707)" xlink:href="#m" x="1080"/><use transform="scale(.707)" xlink:href="#q" x="1080" y="-350"/></g><use xlink:href="#i" x="5324"/><use xlink:href="#d" x="5718"/><g transform="translate(6084)"><use xlink:href="#j"/><use transform="scale(.707)" xlink:href="#o" x="557" y="583"/></g></g></g></g></svg>