<!--
f(x) = a \cdot x^3 + b \cdot x^2 + c \cdot x + d
-->
<svg xmlns:xlink="http://www.w3.org/1999/xlink" width="31.833ex" height="2.667ex" style="vertical-align: -0.667ex; margin-left: 0ex; margin-right: 0ex; margin-bottom: 1px; margin-top: 1px;" viewBox="0 -904.8 13701.4 1176.8" xmlns="http://www.w3.org/2000/svg">
<defs>
<path stroke-width="10" id="E1-LATINMODERNNORMAL-1D453" d="M552 636c0 -38 -29 -60 -55 -60c-19 0 -37 12 -37 35c0 15 10 50 54 54c-19 18 -45 18 -49 18c-21 0 -38 -15 -47 -34c-6 -12 -20 -83 -24 -104c-11 -58 -10 -56 -21 -114h83c17 0 27 0 27 -11c0 -20 -10 -20 -30 -20h-86l-60 -317c-1 -7 -24 -128 -56 -191 c-18 -38 -58 -97 -113 -97c-41 0 -85 24 -85 69c0 38 29 60 55 60c19 0 37 -12 37 -35c0 -15 -9 -51 -55 -54c19 -18 44 -18 48 -18c52 0 69 91 87 188l75 395h-66c-19 0 -28 0 -28 12c0 19 11 19 30 19h69c24 126 27 136 33 157c30 99 93 117 127 117c41 0 87 -23 87 -69Z"></path>
<path stroke-width="10" id="E1-LATINMODERNMAIN-28" d="M332 -238c0 -5 -5 -10 -10 -10c-2 0 -4 1 -6 2c-110 83 -215 283 -215 454v84c0 171 105 371 215 454c2 1 4 2 6 2c5 0 10 -5 10 -10c0 -3 -2 -6 -4 -8c-104 -78 -173 -278 -173 -438v-84c0 -160 69 -360 173 -438c2 -2 4 -5 4 -8Z"></path>
<path stroke-width="10" id="E1-LATINMODERNNORMAL-1D465" d="M527 376c0 -40 -32 -58 -54 -58c-27 0 -38 19 -38 35c0 24 20 49 48 54c-21 13 -45 13 -50 13c-70 0 -93 -92 -99 -118l-34 -137c-11 -44 -17 -66 -17 -88c0 -34 16 -66 55 -66c32 0 100 24 133 131c2 7 4 11 13 11c3 0 12 0 12 -10c0 -25 -57 -154 -160 -154 c-60 0 -96 39 -108 76c-3 -6 -39 -76 -105 -76c-44 0 -94 20 -94 66c0 32 25 58 55 58c15 0 37 -8 37 -35c0 -28 -22 -49 -47 -54c21 -13 44 -13 50 -13c44 0 79 42 95 104c37 140 54 207 54 238c0 58 -35 67 -54 67c-34 0 -100 -25 -134 -131c-2 -9 -5 -11 -13 -11 c0 0 -12 0 -12 10c0 25 57 154 161 154c29 0 83 -10 108 -76c12 23 47 76 105 76c34 0 93 -14 93 -66Z"></path>
<path stroke-width="10" id="E1-LATINMODERNMAIN-29" d="M288 208c0 -171 -105 -371 -215 -454c-2 -1 -4 -2 -6 -2c-5 0 -10 5 -10 10c0 3 2 6 4 8c104 78 173 278 173 438v84c0 160 -69 360 -173 438c-2 2 -4 5 -4 8c0 5 5 10 10 10c2 0 4 -1 6 -2c110 -83 215 -283 215 -454v-84Z"></path>
<path stroke-width="10" id="E1-LATINMODERNMAIN-3D" d="M722 347c0 -11 -9 -20 -20 -20h-626c-11 0 -20 9 -20 20s9 20 20 20h626c11 0 20 -9 20 -20zM722 153c0 -11 -9 -20 -20 -20h-626c-11 0 -20 9 -20 20s9 20 20 20h626c11 0 20 -9 20 -20Z"></path>
<path stroke-width="10" id="E1-LATINMODERNNORMAL-1D44E" d="M498 143c0 0 -13 -63 -30 -99c-16 -32 -39 -55 -74 -55c-48 0 -83 33 -91 75c-60 -71 -110 -75 -130 -75c-78 0 -133 66 -133 160c0 146 124 293 241 293c45 0 74 -27 92 -64c3 22 18 44 42 44c17 0 29 -10 29 -27c0 -4 0 -6 -7 -34l-36 -140l-22 -90 c-11 -44 -13 -52 -13 -74c0 -20 3 -46 30 -46c41 0 59 59 76 124c3 14 4 18 14 18c3 0 12 0 12 -10zM361 332c0 6 -14 88 -79 88c-40 0 -85 -37 -116 -96c-23 -46 -55 -169 -55 -219c0 -39 14 -94 64 -94c28 0 69 16 113 71c15 17 15 19 20 37l50 196c1 5 3 11 3 17Z"></path>
<path stroke-width="10" id="E1-LATINMODERNMAIN-22C5" d="M192 250c0 -29 -24 -53 -53 -53s-53 24 -53 53s24 53 53 53s53 -24 53 -53Z"></path>
<path stroke-width="10" id="E1-LATINMODERNMAIN-33" d="M457 171c0 -102 -91 -193 -213 -193c-109 0 -202 66 -202 157c0 44 32 58 56 58c29 0 56 -20 56 -56c0 -38 -31 -60 -66 -55c35 -59 110 -76 153 -76c44 0 113 29 113 165c0 98 -37 166 -119 166h-44c-17 0 -24 0 -24 11c0 10 7 11 15 12c7 0 31 2 39 3c25 1 59 4 89 52 c26 44 28 102 28 114c0 90 -55 112 -96 112c-36 0 -102 -13 -133 -62c15 0 62 0 62 -50c0 -29 -20 -51 -51 -51c-29 0 -51 19 -51 52c0 76 76 136 177 136c96 0 184 -56 184 -138c0 -79 -58 -149 -140 -176c104 -21 167 -99 167 -181Z"></path>
<path stroke-width="10" id="E1-LATINMODERNMAIN-2B" d="M722 250c0 -11 -9 -20 -20 -20h-293v-293c0 -11 -9 -20 -20 -20s-20 9 -20 20v293h-293c-11 0 -20 9 -20 20s9 20 20 20h293v293c0 11 9 20 20 20s20 -9 20 -20v-293h293c11 0 20 -9 20 -20Z"></path>
<path stroke-width="10" id="E1-LATINMODERNNORMAL-1D44F" d="M415 282c0 -144 -123 -293 -241 -293c-74 0 -127 62 -127 157c0 35 4 51 16 101l82 326c5 21 14 55 14 62c0 10 -2 17 -50 17c-15 0 -24 0 -24 12c0 18 11 19 19 20c26 2 99 10 122 10c13 0 13 -11 13 -11l-74 -301c30 31 71 60 117 60c80 0 133 -69 133 -160zM343 326 c0 64 -27 94 -63 94c-26 0 -71 -15 -120 -80c-9 -11 -9 -13 -15 -35l-22 -92c-16 -63 -16 -82 -16 -101c0 -74 33 -101 67 -101c39 0 85 36 118 103c18 38 51 153 51 212Z"></path>
<path stroke-width="10" id="E1-LATINMODERNMAIN-32" d="M449 174l-28 -174h-371c0 24 0 26 11 37l192 214c55 62 105 141 105 221c0 82 -43 163 -134 163c-58 0 -112 -37 -135 -102c3 1 5 1 13 1c35 0 53 -26 53 -52c0 -41 -35 -53 -52 -53c-3 0 -53 0 -53 56c0 89 74 181 187 181c122 0 212 -80 212 -194 c0 -100 -60 -154 -216 -292l-106 -103h180c22 0 88 0 95 8c10 15 17 59 22 89h25Z"></path>
<path stroke-width="10" id="E1-LATINMODERNNORMAL-1D450" d="M430 107c0 -12 -84 -118 -227 -118c-104 0 -162 79 -162 169c0 141 133 284 268 284c71 0 118 -37 118 -86c0 -40 -27 -64 -56 -64c-19 0 -37 11 -37 35c0 7 2 24 18 39c14 14 28 14 44 14c-14 27 -52 40 -86 40c-55 0 -110 -43 -141 -100c-34 -62 -54 -159 -54 -200 c0 -60 27 -109 90 -109c12 0 121 0 200 99c6 8 8 10 13 10c6 0 12 -7 12 -13Z"></path>
<path stroke-width="10" id="E1-LATINMODERNNORMAL-1D451" d="M516 683l-144 -578c-4 -17 -6 -24 -6 -48c0 -20 3 -46 30 -46c41 0 59 59 76 124c3 14 4 18 14 18c3 0 12 0 12 -10c0 0 -13 -63 -30 -99c-16 -32 -39 -55 -74 -55c-48 0 -83 33 -91 75c-60 -71 -110 -75 -130 -75c-78 0 -133 66 -133 160c0 146 124 293 241 293 c45 0 74 -27 92 -64l60 237l3 20c0 10 -2 17 -50 17c-15 0 -24 0 -24 12c0 13 6 18 14 19c17 2 112 11 127 11c13 0 13 -11 13 -11zM361 332c0 6 -14 88 -79 88c-40 0 -85 -37 -116 -96c-23 -46 -55 -169 -55 -219c0 -39 14 -94 64 -94c28 0 69 16 113 71c15 17 15 19 20 37 l50 196c1 5 3 11 3 17Z"></path>
</defs>
<g stroke="currentColor" fill="currentColor" stroke-width="0" transform="matrix(1 0 0 -1 0 0)">
 <use xlink:href="#E1-LATINMODERNNORMAL-1D453" x="0" y="0"></use>
 <use xlink:href="#E1-LATINMODERNMAIN-28" x="557" y="0"></use>
 <use xlink:href="#E1-LATINMODERNNORMAL-1D465" x="951" y="0"></use>
 <use xlink:href="#E1-LATINMODERNMAIN-29" x="1528" y="0"></use>
 <use xlink:href="#E1-LATINMODERNMAIN-3D" x="2199" y="0"></use>
 <use xlink:href="#E1-LATINMODERNNORMAL-1D44E" x="3260" y="0"></use>
 <use xlink:href="#E1-LATINMODERNMAIN-22C5" x="4016" y="0"></use>
<g transform="translate(4522,0)">
 <use xlink:href="#E1-LATINMODERNNORMAL-1D465" x="0" y="0"></use>
 <use transform="scale(0.707)" xlink:href="#E1-LATINMODERNMAIN-33" x="816" y="583"></use>
</g>
 <use xlink:href="#E1-LATINMODERNMAIN-2B" x="5778" y="0"></use>
 <use xlink:href="#E1-LATINMODERNNORMAL-1D44F" x="6783" y="0"></use>
 <use xlink:href="#E1-LATINMODERNMAIN-22C5" x="7439" y="0"></use>
<g transform="translate(7944,0)">
 <use xlink:href="#E1-LATINMODERNNORMAL-1D465" x="0" y="0"></use>
 <use transform="scale(0.707)" xlink:href="#E1-LATINMODERNMAIN-32" x="816" y="583"></use>
</g>
 <use xlink:href="#E1-LATINMODERNMAIN-2B" x="9201" y="0"></use>
 <use xlink:href="#E1-LATINMODERNNORMAL-1D450" x="10206" y="0"></use>
 <use xlink:href="#E1-LATINMODERNMAIN-22C5" x="10866" y="0"></use>
 <use xlink:href="#E1-LATINMODERNNORMAL-1D465" x="11371" y="0"></use>
 <use xlink:href="#E1-LATINMODERNMAIN-2B" x="12171" y="0"></use>
 <use xlink:href="#E1-LATINMODERNNORMAL-1D451" x="13176" y="0"></use>
</g>
</svg>