<svg xmlns:xlink="http://www.w3.org/1999/xlink" width="31.833ex" height="2.667ex" style="vertical-align:-.667ex;margin-bottom:1px;margin-top:1px" viewBox="0 -904.8 13701.4 1176.8" xmlns="http://www.w3.org/2000/svg"><defs><path stroke-width="10" id="a" d="M552 636c0-38-29-60-55-60-19 0-37 12-37 35 0 15 10 50 54 54-19 18-45 18-49 18-21 0-38-15-47-34-6-12-20-83-24-104-11-58-10-56-21-114h83c17 0 27 0 27-11 0-20-10-20-30-20h-86L307 83c-1-7-24-128-56-191-18-38-58-97-113-97-41 0-85 24-85 69 0 38 29 60 55 60 19 0 37-12 37-35 0-15-9-51-55-54 19-18 44-18 48-18 52 0 69 91 87 188l75 395h-66c-19 0-28 0-28 12 0 19 11 19 30 19h69c24 126 27 136 33 157 30 99 93 117 127 117 41 0 87-23 87-69z"/><path stroke-width="10" id="b" d="M332-238c0-5-5-10-10-10-2 0-4 1-6 2-110 83-215 283-215 454v84c0 171 105 371 215 454 2 1 4 2 6 2 5 0 10-5 10-10 0-3-2-6-4-8-104-78-173-278-173-438v-84c0-160 69-360 173-438 2-2 4-5 4-8z"/><path stroke-width="10" id="c" d="M527 376c0-40-32-58-54-58-27 0-38 19-38 35 0 24 20 49 48 54-21 13-45 13-50 13-70 0-93-92-99-118l-34-137c-11-44-17-66-17-88 0-34 16-66 55-66 32 0 100 24 133 131 2 7 4 11 13 11 3 0 12 0 12-10 0-25-57-154-160-154-60 0-96 39-108 76-3-6-39-76-105-76-44 0-94 20-94 66 0 32 25 58 55 58 15 0 37-8 37-35 0-28-22-49-47-54 21-13 44-13 50-13 44 0 79 42 95 104 37 140 54 207 54 238 0 58-35 67-54 67-34 0-100-25-134-131-2-9-5-11-13-11 0 0-12 0-12 10 0 25 57 154 161 154 29 0 83-10 108-76 12 23 47 76 105 76 34 0 93-14 93-66z"/><path stroke-width="10" id="d" d="M288 208c0-171-105-371-215-454-2-1-4-2-6-2-5 0-10 5-10 10 0 3 2 6 4 8 104 78 173 278 173 438v84c0 160-69 360-173 438-2 2-4 5-4 8 0 5 5 10 10 10 2 0 4-1 6-2 110-83 215-283 215-454v-84z"/><path stroke-width="10" id="e" d="M722 347c0-11-9-20-20-20H76c-11 0-20 9-20 20s9 20 20 20h626c11 0 20-9 20-20zm0-194c0-11-9-20-20-20H76c-11 0-20 9-20 20s9 20 20 20h626c11 0 20-9 20-20z"/><path stroke-width="10" id="f" d="M498 143s-13-63-30-99c-16-32-39-55-74-55-48 0-83 33-91 75-60-71-110-75-130-75C95-11 40 55 40 149c0 146 124 293 241 293 45 0 74-27 92-64 3 22 18 44 42 44 17 0 29-10 29-27 0-4 0-6-7-34l-36-140-22-90c-11-44-13-52-13-74 0-20 3-46 30-46 41 0 59 59 76 124 3 14 4 18 14 18 3 0 12 0 12-10zM361 332c0 6-14 88-79 88-40 0-85-37-116-96-23-46-55-169-55-219 0-39 14-94 64-94 28 0 69 16 113 71 15 17 15 19 20 37l50 196c1 5 3 11 3 17z"/><path stroke-width="10" id="g" d="M192 250c0-29-24-53-53-53s-53 24-53 53 24 53 53 53 53-24 53-53z"/><path stroke-width="10" id="h" d="M457 171c0-102-91-193-213-193C135-22 42 44 42 135c0 44 32 58 56 58 29 0 56-20 56-56 0-38-31-60-66-55C123 23 198 6 241 6c44 0 113 29 113 165 0 98-37 166-119 166h-44c-17 0-24 0-24 11 0 10 7 11 15 12 7 0 31 2 39 3 25 1 59 4 89 52 26 44 28 102 28 114 0 90-55 112-96 112-36 0-102-13-133-62 15 0 62 0 62-50 0-29-20-51-51-51-29 0-51 19-51 52 0 76 76 136 177 136 96 0 184-56 184-138 0-79-58-149-140-176 104-21 167-99 167-181z"/><path stroke-width="10" id="i" d="M722 250c0-11-9-20-20-20H409V-63c0-11-9-20-20-20s-20 9-20 20v293H76c-11 0-20 9-20 20s9 20 20 20h293v293c0 11 9 20 20 20s20-9 20-20V270h293c11 0 20-9 20-20z"/><path stroke-width="10" id="j" d="M415 282c0-144-123-293-241-293-74 0-127 62-127 157 0 35 4 51 16 101l82 326c5 21 14 55 14 62 0 10-2 17-50 17-15 0-24 0-24 12 0 18 11 19 19 20 26 2 99 10 122 10 13 0 13-11 13-11l-74-301c30 31 71 60 117 60 80 0 133-69 133-160zm-72 44c0 64-27 94-63 94-26 0-71-15-120-80-9-11-9-13-15-35l-22-92c-16-63-16-82-16-101 0-74 33-101 67-101 39 0 85 36 118 103 18 38 51 153 51 212z"/><path stroke-width="10" id="k" d="M449 174L421 0H50c0 24 0 26 11 37l192 214c55 62 105 141 105 221 0 82-43 163-134 163-58 0-112-37-135-102 3 1 5 1 13 1 35 0 53-26 53-52 0-41-35-53-52-53-3 0-53 0-53 56 0 89 74 181 187 181 122 0 212-80 212-194 0-100-60-154-216-292L127 77h180c22 0 88 0 95 8 10 15 17 59 22 89h25z"/><path stroke-width="10" id="l" d="M430 107c0-12-84-118-227-118C99-11 41 68 41 158c0 141 133 284 268 284 71 0 118-37 118-86 0-40-27-64-56-64-19 0-37 11-37 35 0 7 2 24 18 39 14 14 28 14 44 14-14 27-52 40-86 40-55 0-110-43-141-100-34-62-54-159-54-200 0-60 27-109 90-109 12 0 121 0 200 99 6 8 8 10 13 10 6 0 12-7 12-13z"/><path stroke-width="10" id="m" d="M516 683L372 105c-4-17-6-24-6-48 0-20 3-46 30-46 41 0 59 59 76 124 3 14 4 18 14 18 3 0 12 0 12-10 0 0-13-63-30-99-16-32-39-55-74-55-48 0-83 33-91 75-60-71-110-75-130-75C95-11 40 55 40 149c0 146 124 293 241 293 45 0 74-27 92-64l60 237 3 20c0 10-2 17-50 17-15 0-24 0-24 12 0 13 6 18 14 19 17 2 112 11 127 11 13 0 13-11 13-11zM361 332c0 6-14 88-79 88-40 0-85-37-116-96-23-46-55-169-55-219 0-39 14-94 64-94 28 0 69 16 113 71 15 17 15 19 20 37l50 196c1 5 3 11 3 17z"/></defs><g stroke="currentColor" fill="currentColor" stroke-width="0" transform="scale(1 -1)"><use xlink:href="#a"/><use xlink:href="#b" x="557"/><use xlink:href="#c" x="951"/><use xlink:href="#d" x="1528"/><use xlink:href="#e" x="2199"/><use xlink:href="#f" x="3260"/><use xlink:href="#g" x="4016"/><g transform="translate(4522)"><use xlink:href="#c"/><use transform="scale(.707)" xlink:href="#h" x="816" y="583"/></g><use xlink:href="#i" x="5778"/><use xlink:href="#j" x="6783"/><use xlink:href="#g" x="7439"/><g transform="translate(7944)"><use xlink:href="#c"/><use transform="scale(.707)" xlink:href="#k" x="816" y="583"/></g><use xlink:href="#i" x="9201"/><use xlink:href="#l" x="10206"/><use xlink:href="#g" x="10866"/><use xlink:href="#c" x="11371"/><use xlink:href="#i" x="12171"/><use xlink:href="#m" x="13176"/></g></svg>