<svg xmlns="http://www.w3.org/2000/svg" xmlns:xlink="http://www.w3.org/1999/xlink" width="85pt" height="35pt" viewBox="0 0 85 35"><defs><symbol overflow="visible" id="a"><path d="M6.281-5.922a1.98 1.98 0 0 0-.562-.11c-.782 0-1.922.954-3.516 3.048l.235.093.203-.796c.078-.266.187-.75.265-1.016l.078-.313c.063-.203.094-.343.094-.5.016-.25-.203-.5-.375-.5-.25 0-.828.282-1.75.907l-.375.28.14.5.579-.359c.344-.218.375-.234.484-.234.125 0 .047-.031.047.11-.031.718-.656 3.156-1.219 4.75l.235.187.937-.25.39-1.719c.126-.515.407-.906.657-1.125C3.468-.844 3.953.11 4.25.11c.156 0 .531-.187 1.094-.562l.625-.422-.188-.469-.687.375c-.188.094-.14.078-.25.078-.125 0-.094-.03-.203-.234-.391-.766-.579-1.313-.97-2.734l.126-.125c.765-.72 1.234-.985 1.828-.985.11 0 .234.016.516.094l.296-.984zm0 0"/></symbol><symbol overflow="visible" id="b"><path d="M8.266-4.078a1.419 1.419 0 0 1-.047-.36c0-.109.015-.234.062-.484h-7.5c.063.25.063.375.063.484 0 .125 0 .235-.063.5h7.5zm0 2.625a1.332 1.332 0 0 1-.047-.36c0-.109.015-.234.062-.484h-7.5c.063.25.063.375.063.485 0 .125 0 .25-.063.5h7.5zm0 0"/></symbol><symbol overflow="visible" id="c"><path d="M5.875-5.875c-.14-.078-.344-.156-.453-.156-.469 0-1.063.468-1.797 1.578l-.453.656.25.094-.078-.578c-.14-1.188-.594-1.75-1.297-1.75-.313 0-.688.14-.797.297L.484-4.61l.407.25c.437-.485.578-.61.812-.61.39 0 .516.36.719 1.532l.125.718-.438.656C1.594-1.25 1.297-.905.953-.905c-.172 0-.172.078-.203.015l-.188-.468-.453.062c0 .36-.03.516-.093.89-.032.141-.047.173-.063.329.219.125.531.203.672.203.39 0 .953-.375 1.328-.938l.906-1.406-.234-.094.125.829c.172 1.015.578 1.609 1 1.609.266 0 .75-.234 1.125-.578l.64-.578-.218-.469c-.578.453-.766.61-.953.61-.188 0-.25-.094-.453-.5.015.046-.11-.407-.172-.75L3.5-3.313l.39-.532c.563-.765.782-1.015 1.157-1.015.187 0 .187-.032.312.312l.36-.11.203-1.171zm0 0"/></symbol><symbol overflow="visible" id="e"><path d="M5.953-5.875l-.203-.156c-.375.14-.64.203-1.016.234l-.453 1.703c-.14.563-.531 1.344-.922 1.938-.421.61-.89 1.094-1.156 1.094-.265 0-.11-.438-.094-.594l.172-2.328c.031-.36.047-.829.047-1.157 0-.53-.219-.89-.422-.89-.156 0-.422.125-1 .515L-.14-4.78l.266.437.734-.453c.063-.047.125-.11.204-.11.312 0 .125.485.109.673L.969-1.328l-.016.484c-.015.5.36.969.656.969.454 0 1.547-1.047 2.438-2.39l-.234-.094-.579 2.03c-.609 2.126-1.078 2.86-1.906 2.86-.422 0-.61-.187-.61-.61 0-.062.016-.155.032-.343l-.297-.11-.672.485c-.015.156-.015.219-.015.281 0 .516.578 1.063 1.125 1.063 1.265 0 2.703-1.61 3.406-3.828L6-5.828zm0 0"/></symbol><symbol overflow="visible" id="g"><path d="M8.266-2.766a1.332 1.332 0 0 1-.047-.359c0-.11.015-.234.062-.484h-7.5c.063.25.063.375.063.484 0 .125 0 .25-.063.5h7.5zm0 0"/></symbol><symbol overflow="visible" id="h"><path d="M4.203-7.828a.735.735 0 0 1-.187-.14c-.063-.063-.11-.126-.22-.329-1.593 1.61-2.5 3.266-2.5 4.781v.797c0 1.516.907 3.172 2.5 4.781.11-.203.157-.265.22-.328.062-.062.125-.109.312-.203C2.875.063 2.281-1.344 2.281-2.719v-.797c0-1.39.594-2.78 2.047-4.25zm0 0"/></symbol><symbol overflow="visible" id="j"><path d="M8.266-2.766a1.332 1.332 0 0 1-.047-.359c0-.11.015-.234.062-.484h-3.25v-3.266c-.25.063-.375.078-.484.078-.125 0-.25-.016-.5-.078v3.266H.78c.063.25.063.375.063.484 0 .125 0 .25-.063.5h3.266V.641c.25-.063.375-.079.5-.079.11 0 .234.016.484.079v-3.266h3.25zm0 0"/></symbol><symbol overflow="visible" id="k"><path d="M3.766-2.719v-.797c0-1.515-.907-3.171-2.516-4.78-.11.202-.156.265-.203.327-.063.063-.125.11-.313.203 1.438 1.47 2.032 2.86 2.032 4.25v.797c0 1.375-.594 2.781-2.032 4.25.188.094.25.14.313.203.047.063.094.125.203.329C2.86.452 3.766-1.204 3.766-2.72zm0 0"/></symbol><symbol overflow="visible" id="d"><path d="M2.61-4.672l-.22-.203-1.093.39-.89 3.376.312.234.5-.266 1.453-3.468zm0 0"/></symbol><symbol overflow="visible" id="f"><path d="M2.61-4.672l-.22-.203-1.093.39-.89 3.376.312.234.5-.266 1.453-3.468zm2.124 0l-.218-.203-1.094.39-.89 3.376.312.234.5-.266 1.453-3.468zm0 0"/></symbol><symbol overflow="visible" id="i"><path d="M4.75-.11c-.016-.187-.016-.265-.016-.39s0-.203.032-.547l-3.141.094 1.5-1.469c.938-.922 1.281-1.5 1.281-2.172 0-1.015-.906-1.781-2.14-1.781-.688 0-1.282.219-1.782.703l-.187 1.39h.547l.172-.53c.156-.516.359-.61 1-.61.843 0 1.203.344 1.203 1.094 0 .672-.36 1.234-1.453 2.297L.078-.391v.422L2.406 0l2.36.031zm0 0"/></symbol><symbol overflow="visible" id="l"><path d="M3.86-1.625c0-.313-.22-.703-.485-.875-.203-.11-.484-.203-.875-.266l.11.266c.624-.422.906-.828.906-1.203 0-.594-.735-1.14-1.594-1.14-.516 0-.984.171-1.39.515L.25-3.281h.563L1-3.797c.094-.219.406-.297.813-.297.5 0 .734.203.734.61 0 .5-.281.75-.828.75-.063 0-.25.25-.25.25l-.282-.11-.109.406.203.157c.328-.14.469-.172.672-.172.656 0 .844.203.844.797 0 .672-.297.953-1 .953-.36 0-.563-.047-.797-.234C.812-.829.766-.875.547-1.422l-.5.172c.187.5.25.734.312 1.172.563.156.907.203 1.188.203.625 0 1.437-.328 1.86-.781.265-.266.452-.656.452-.969zm0 0"/></symbol><symbol overflow="visible" id="m"><path d="M3.906-.125c-.031-.14-.031-.203-.031-.297 0-.094 0-.156.047-.469l-2.844.079.11.265 1.39-1.281c.75-.672 1.031-1.14 1.031-1.625 0-.766-.765-1.39-1.734-1.39-.563 0-1.047.187-1.469.546L.234-3.172h.532l.156-.453c.125-.39.234-.406.75-.406.656 0 .906.203.906.765 0 .5-.265.875-1.125 1.657L.078-.375v.406L1.968 0l1.954.031zm0 0"/></symbol></defs><use xlink:href="#a" x=".13" y="18.059"/><use xlink:href="#b" x="10.065" y="18.059"/><use xlink:href="#c" x="25.397" y="9.451"/><use xlink:href="#d" x="31.518" y="5.219"/><use xlink:href="#e" x="35.088" y="9.451"/><use xlink:href="#f" x="41.281" y="5.219"/><use xlink:href="#g" x="49.632" y="9.451"/><use xlink:href="#c" x="61.372" y="9.451"/><use xlink:href="#f" x="67.496" y="5.219"/><use xlink:href="#e" x="73.191" y="9.451"/><use xlink:href="#d" x="79.384" y="5.219"/><path d="M23.676 15.07h61" fill="none" stroke-width=".717" stroke="#000" stroke-miterlimit="10"/><use xlink:href="#h" x="23.676" y="31.672"/><use xlink:href="#c" x="28.745" y="31.672"/><use xlink:href="#d" x="34.866" y="28.133"/><use xlink:href="#i" x="37.938" y="28.133"/><use xlink:href="#j" x="46.095" y="31.672"/><use xlink:href="#e" x="57.835" y="31.672"/><use xlink:href="#d" x="64.031" y="28.133"/><use xlink:href="#i" x="67.103" y="28.133"/><use xlink:href="#k" x="72.603" y="31.672"/><g><use xlink:href="#l" x="78.868" y="21.876"/></g><path d="M78.867 23.816h4.113" fill="none" stroke-width=".531" stroke="#000" stroke-miterlimit="10"/><g><use xlink:href="#m" x="78.868" y="29.405"/></g></svg>