<svg xmlns="http://www.w3.org/2000/svg" xmlns:xlink="http://www.w3.org/1999/xlink" width="290pt" height="62pt" viewBox="0 0 290 62"><defs><symbol overflow="visible" id="a"><path d="M5.078-14.516H1.703V0h.969v-14.031h2.406c-.016-.078-.031-.156-.031-.235 0-.093.016-.171.031-.25zm0 0"/></symbol><symbol overflow="visible" id="b"><path d="M2.672-9.688h-.969V0h.969zm0 0"/></symbol><symbol overflow="visible" id="c"><path d="M5.078 0c-.016-.078-.031-.156-.031-.234 0-.094.016-.172.031-.25H2.672v-14.032h-.969V0zm0 0"/></symbol><symbol overflow="visible" id="d"><path d="M9.016-7.938v-.328c-.391.016-.766.032-1.157.032l-1.468-.032v.329l.296.03c.454.032.688.157.688.376 0 .125-.047.265-.188.5l-3.484 5.89-.844-6.312c-.046-.375.172-.453.5-.453l.5-.032v-.328l-1.484.032-1.484-.032v.329l.296.03c.532.048.657.126.72.563L2.952.094h.578l4.531-7.39c.297-.485.391-.579.735-.61zm0 0"/></symbol><symbol overflow="visible" id="h"><path d="M4.516 0v-14.516H1.14a.648.648 0 0 1 0 .485h2.421V0zm0 0"/></symbol><symbol overflow="visible" id="i"><path d="M4.516 0v-9.688h-.954V0zm0 0"/></symbol><symbol overflow="visible" id="j"><path d="M4.516 0v-14.516h-.954V-.484H1.142a.648.648 0 0 1 0 .484zm0 0"/></symbol><symbol overflow="visible" id="k"><path d="M8.125-3.938c-.016-.124-.031-.25-.031-.359 0-.125.015-.25.031-.36H.953c.031.11.031.235.031.36 0 .11 0 .234-.03.36zm0 2.626c-.016-.125-.031-.235-.031-.36s.015-.234.031-.36H.953a1.4 1.4 0 0 1 .031.36c0 .125 0 .234-.03.36zm0 0"/></symbol><symbol overflow="visible" id="l"><path d="M7.594-8.266l-3.375.032-3.375-.032L.64-6.312h.343l.172-.72c.063-.265.14-.452.219-.53.078-.094.531-.157.969-.157h1.344L2.655-1.5C2.47-.406 2.437-.36 1.953-.328l-.61.031-.046.328L3 0l1.594.031.031-.328-.703-.031c-.313-.016-.438-.11-.438-.36 0-.125 0-.171.047-.421l1.125-6.61h.875c.938 0 1.36.063 1.407.203a1.3 1.3 0 0 1 .046.438l-.046.766h.328zm0 0"/></symbol><symbol overflow="visible" id="m"><path d="M2.39-2.984c0-.438-.28-.72-.718-.72-.422 0-.719.282-.719.72 0 .421.297.718.719.718.437 0 .719-.296.719-.718zm0 0"/></symbol><symbol overflow="visible" id="n"><path d="M7.094-6.469c0-1.203-1.125-1.797-2.172-1.797-.547 0-1.094.032-1.64.032l-1.985-.032-.047.329.656.03c.297 0 .422.095.422.313 0 .172-.047.547-.11.907L1.345-1.5C1.14-.406 1.125-.375.64-.328l-.485.031L.11.031 1.688 0l1.656.031.031-.328-.766-.031c-.312-.016-.437-.11-.437-.36 0-.109.015-.203.047-.421l.984-5.829s.047-.25.11-.468c.015-.063.046-.188.078-.344.437-.063.625-.094.859-.094 1.219 0 1.797.532 1.797 1.64 0 1.298-.86 2.345-1.906 2.345-.266 0-.5-.063-.954-.235l.032.375c.437.219.672.281 1.031.281 1.531 0 2.844-1.406 2.844-3.03zm0 0"/></symbol><symbol overflow="visible" id="w"><path d="M10.047-2.984a15.72 15.72 0 0 1-2.39-2.391c-.173.016-.345.031-.516.031a5.05 5.05 0 0 1-.5-.031c.25.328.546.64.828.953H.953a1.4 1.4 0 0 1 .031.36c0 .125 0 .234-.03.359h7.25c.265.25.53.484.827.719-.297.218-.562.468-.828.718H.953c.031.11.031.235.031.36 0 .11 0 .234-.03.36h6.515c-.282.296-.578.609-.828.952.156-.031.328-.047.5-.047.171 0 .343.016.515.047a15.72 15.72 0 0 1 2.39-2.39zm0 0"/></symbol><symbol overflow="visible" id="x"><path d="M5 .031v-.36l-.625-.03c-.656-.032-.781-.172-.781-.782v-7.093l-.156-.063c-.782.406-1.626.766-2.72 1.156l.079.5h.125l1.547-.687.031-.016c.063 0 .094.11.094.407v5.796c0 .61-.125.75-.781.782l-.672.03v.36L3.125 0zm0 0"/></symbol><symbol overflow="visible" id="y"><path d="M5.594.031c-.032-.25-.032-.36-.032-.531 0-.156 0-.281.032-.547l-4.14.125L3.64-3.234c1.156-1.22 1.515-1.875 1.515-2.782 0-1.375-.937-2.218-2.453-2.218-.86 0-1.453.234-2.031.828l-.203 1.64h.344l.156-.562c.187-.688.625-.984 1.422-.984 1.03 0 1.687.64 1.687 1.656 0 .906-.5 1.781-1.86 3.218L.189-.28V.03L2.858 0zm0 0"/></symbol><symbol overflow="visible" id="z"><path d="M5.563-4.375c0-2.625-.782-3.86-2.422-3.86-1.844 0-2.797 1.47-2.797 4.36 0 1.406.25 2.61.672 3.188.421.593 1.093.921 1.828.921 1.812 0 2.719-1.546 2.719-4.609zm-1.016.594c0 2.547-.453 3.61-1.547 3.61-1.156 0-1.656-1.22-1.656-4.126 0-2.531.453-3.516 1.578-3.516 1.172 0 1.625 1.172 1.625 4.032zm0 0"/></symbol><symbol overflow="visible" id="A"><path d="M8.125-2.625c-.016-.125-.031-.25-.031-.36 0-.124.015-.25.031-.359H.953c.031.11.031.235.031.36 0 .109 0 .234-.03.359zm0 0"/></symbol><symbol overflow="visible" id="e"><path d="M4.125.031v-.265l-.516-.032c-.515-.03-.625-.125-.625-.578v-5.25L2.86-6.14c-.625.297-1.312.563-2.203.86l.078.375h.094l1.25-.516.031-.016c.047 0 .079.094.079.297v4.297c0 .453-.11.547-.626.578l-.546.032V.03L2.594 0zm0 0"/></symbol><symbol overflow="visible" id="f"><path d="M4.594.031c-.016-.187-.016-.281-.016-.406 0-.11 0-.203.016-.39l-3.328.078 1.75-1.704c.937-.906 1.234-1.39 1.234-2.062 0-1.016-.75-1.64-1.984-1.64-.688 0-1.172.171-1.641.624L.469-4.266H.75l.11-.406c.171-.516.515-.734 1.156-.734.828 0 1.359.468 1.359 1.218 0 .672-.406 1.329-1.484 2.391L.234-.203V.03L2.391 0zm0 0"/></symbol><symbol overflow="visible" id="g"><path d="M2.5-4.438l-.156-.14-.906.328-.86 3.219.172.125.36-.188zm0 0"/></symbol><symbol overflow="visible" id="o"><path d="M4.547-1.984c0-.422-.203-.797-.547-1.016-.234-.156-.469-.234-.938-.313.766-.546 1.063-.953 1.063-1.468 0-.797-.719-1.313-1.797-1.313-.64 0-1.078.172-1.547.594L.5-4.406h.313l.156-.5c.11-.297.719-.594 1.219-.594.624 0 1.14.469 1.14 1.031 0 .657-.562 1.219-1.25 1.219-.078 0-.453-.031-.453-.031l-.125.469.078.046c.36-.14.547-.187.797-.187.813 0 1.266.469 1.266 1.265 0 .907-.579 1.5-1.485 1.5-.437 0-.828-.124-1.125-.374C.813-.766.671-.97.5-1.438l-.266.078C.437-.813.516-.5.563-.047c.515.156.937.219 1.296.219.782 0 1.657-.39 2.188-.984.328-.36.5-.75.5-1.172zm0 0"/></symbol><symbol overflow="visible" id="p"><path d="M4.64.031v-.265l-.468-.032c-.469-.03-.578-.14-.578-.671v-.657c.578 0 .781 0 1.047.032v-.625s-.47.015-.782.015h-.265V-3.39c0-1.578.015-2.343.062-2.703l-.11-.047-.702.235-2.735 4.11.11.202H2.78v.657c0 .53-.11.656-.578.671l-.594.032V.03L3.172 0zM2.782-2.172H.72l2.062-3.11zm0 0"/></symbol><symbol overflow="visible" id="q"><path d="M5.813-4.781c0-.89-.907-1.344-1.75-1.344-.454 0-.891.031-1.329.031l-1.609-.031-.031.25.531.016c.234.015.344.078.344.25 0 .125-.047.39-.078.671l-.72 3.829C1.017-.297.985-.281.61-.25l-.39.031-.047.25L1.453 0l1.328.031.031-.25-.624-.031c-.25 0-.344-.078-.344-.266 0-.078 0-.14.047-.312l.78-4.297s.032-.188.095-.36c0-.046.03-.124.062-.25.344-.046.5-.062.688-.062.984 0 1.453.39 1.453 1.203 0 .953-.703 1.735-1.547 1.735-.219 0-.406-.047-.766-.172l.016.281c.375.156.562.203.844.203 1.25 0 2.296-1.031 2.296-2.234zm0 0"/></symbol><symbol overflow="visible" id="s"><path d="M6.016-1.953a1.368 1.368 0 0 1-.032-.25c0-.094.016-.188.032-.266H.703c.016.078.031.172.031.266 0 .078-.015.172-.03.25zm0 0"/></symbol><symbol overflow="visible" id="r"><path d="M3.688-1.469a.866.866 0 0 0-.438-.765c-.188-.11-.36-.172-.75-.22.625-.421.844-.718.844-1.108 0-.579-.563-.97-1.422-.97-.516 0-.875.126-1.234.438l-.235.813h.25l.14-.36c.079-.234.563-.453.97-.453.5 0 .906.344.906.766 0 .5-.453.906-1 .906-.063 0-.36-.015-.36-.015l-.093.343.046.047c.297-.125.438-.156.641-.156.656 0 1.016.36 1.016.953 0 .672-.469 1.11-1.172 1.11-.36 0-.672-.094-.906-.282-.188-.14-.297-.297-.438-.656L.25-1c.156.39.219.625.266.953.406.125.75.172 1.03.172.626 0 1.329-.297 1.75-.734.267-.266.392-.563.392-.86zm0 0"/></symbol><symbol overflow="visible" id="t"><path d="M3.344.016v-.188l-.39-.031c-.423-.016-.5-.094-.5-.422v-3.906l-.11-.032a13.8 13.8 0 0 1-1.75.625l.047.282h.078l1-.375h.031c.047 0 .047.047.047.203v3.203c0 .328-.078.406-.5.422l-.422.031v.188L2.141 0zm0 0"/></symbol><symbol overflow="visible" id="u"><path d="M3.766.016v-.188L3.39-.203c-.375-.016-.454-.094-.454-.5v-.485c.454 0 .61 0 .829.016v-.453s-.375.016-.625.016h-.204v-.922c0-1.172.016-1.735.047-2l-.093-.032-.563.172L.141-1.344l.093.157h2.063v.484c0 .406-.094.5-.469.5l-.484.031v.188L2.578 0zM2.296-1.61H.626l1.672-2.313zm0 0"/></symbol><symbol overflow="visible" id="v"><path d="M3.734.016C3.72-.125 3.72-.188 3.72-.281c0-.078 0-.14.015-.297L1.078-.5l1.39-1.281c.75-.672.985-1.032.985-1.532 0-.75-.61-1.218-1.578-1.218-.563 0-.938.125-1.313.453l-.125.906h.22l.093-.312c.125-.375.406-.547.922-.547.656 0 1.078.36 1.078.922 0 .484-.313.984-1.188 1.765L.25-.156v.172L1.969 0zm0 0"/></symbol></defs><use xlink:href="#a" x="-.772" y="18.404"/><use xlink:href="#b" x="-.772" y="27.105"/><use xlink:href="#b" x="-.772" y="35.133"/><use xlink:href="#b" x="-.772" y="43.161"/><use xlink:href="#c" x="-.772" y="56.692"/><use xlink:href="#d" x="5.457" y="11.512"/><use xlink:href="#e" x="14.088" y="14.285"/><use xlink:href="#d" x="5.457" y="25.957"/><use xlink:href="#f" x="14.088" y="28.731"/><use xlink:href="#d" x="5.457" y="40.403"/><use xlink:href="#g" x="14.805" y="36.171"/><use xlink:href="#e" x="14.088" y="44.223"/><use xlink:href="#d" x="5.457" y="54.849"/><use xlink:href="#g" x="14.805" y="50.616"/><use xlink:href="#f" x="14.088" y="58.625"/><use xlink:href="#h" x="19.585" y="18.404"/><use xlink:href="#i" x="19.585" y="27.105"/><use xlink:href="#i" x="19.585" y="35.133"/><use xlink:href="#i" x="19.585" y="43.161"/><use xlink:href="#j" x="19.585" y="56.692"/><use xlink:href="#k" x="29.135" y="33.28"/><use xlink:href="#l" x="41.533" y="33.28"/><use xlink:href="#m" x="52.125" y="33.28"/><use xlink:href="#a" x="58.129" y="18.404"/><use xlink:href="#b" x="58.129" y="27.105"/><use xlink:href="#b" x="58.129" y="35.133"/><use xlink:href="#b" x="58.129" y="43.161"/><use xlink:href="#c" x="58.129" y="56.692"/><use xlink:href="#n" x="64.358" y="11.511"/><use xlink:href="#e" x="71.663" y="14.285"/><use xlink:href="#n" x="64.358" y="25.957"/><use xlink:href="#f" x="71.663" y="28.731"/><use xlink:href="#n" x="64.358" y="40.403"/><use xlink:href="#o" x="71.663" y="43.177"/><use xlink:href="#n" x="64.358" y="54.849"/><use xlink:href="#p" x="71.663" y="57.623"/><use xlink:href="#h" x="77.159" y="18.404"/><use xlink:href="#i" x="77.159" y="27.105"/><use xlink:href="#i" x="77.159" y="35.133"/><use xlink:href="#i" x="77.159" y="43.161"/><use xlink:href="#j" x="77.159" y="56.692"/><use xlink:href="#k" x="86.709" y="33.28"/><use xlink:href="#a" x="99.116" y="15.637"/><use xlink:href="#b" x="99.116" y="24.035"/><use xlink:href="#b" x="99.116" y="31.434"/><use xlink:href="#b" x="99.116" y="38.832"/><use xlink:href="#b" x="99.116" y="46.23"/><use xlink:href="#c" x="99.116" y="59.459"/><use xlink:href="#n" x="114.178" y="8.745"/><use xlink:href="#f" x="121.483" y="11.518"/><use xlink:href="#n" x="114.178" y="23.19"/><use xlink:href="#o" x="121.483" y="25.964"/><use xlink:href="#q" x="106.54" y="33.646"/><use xlink:href="#r" x="112.609" y="35.699"/><use xlink:href="#s" x="117.217" y="33.646"/><use xlink:href="#q" x="123.941" y="33.646"/><use xlink:href="#t" x="130.01" y="35.699"/><path d="M106.54 37.25h28.077" fill="none" stroke-width=".717" stroke="#000" stroke-miterlimit="10"/><use xlink:href="#f" x="118.08" y="44.766"/><use xlink:href="#q" x="106.54" y="50.915"/><use xlink:href="#u" x="112.609" y="52.967"/><use xlink:href="#s" x="117.217" y="50.915"/><use xlink:href="#q" x="123.941" y="50.915"/><use xlink:href="#v" x="130.01" y="52.967"/><path d="M106.54 54.406h28.077" fill="none" stroke-width=".717" stroke="#000" stroke-miterlimit="10"/><use xlink:href="#f" x="118.08" y="61.923"/><use xlink:href="#h" x="135.813" y="15.637"/><use xlink:href="#i" x="135.813" y="24.035"/><use xlink:href="#i" x="135.813" y="31.434"/><use xlink:href="#i" x="135.813" y="38.832"/><use xlink:href="#i" x="135.813" y="46.23"/><use xlink:href="#j" x="135.813" y="59.459"/><use xlink:href="#w" x="148.351" y="33.28"/><use xlink:href="#l" x="165.65" y="33.28"/><use xlink:href="#k" x="176.9" y="33.28"/><use xlink:href="#x" x="190.51" y="24.672"/><path d="M190.512 30.29h5.976" fill="none" stroke-width=".717" stroke="#000" stroke-miterlimit="10"/><use xlink:href="#y" x="190.51" y="41.243"/><use xlink:href="#m" x="200.34" y="33.28"/><use xlink:href="#a" x="206.345" y="18.404"/><use xlink:href="#b" x="206.345" y="27.105"/><use xlink:href="#b" x="206.345" y="35.133"/><use xlink:href="#b" x="206.345" y="43.161"/><use xlink:href="#c" x="206.345" y="56.692"/><use xlink:href="#z" x="217.116" y="11.511"/><use xlink:href="#y" x="242.138" y="11.511"/><use xlink:href="#z" x="262.617" y="11.511"/><use xlink:href="#z" x="278.566" y="11.511"/><use xlink:href="#z" x="217.116" y="25.957"/><use xlink:href="#z" x="242.138" y="25.957"/><use xlink:href="#y" x="262.617" y="25.957"/><use xlink:href="#z" x="278.566" y="25.957"/><use xlink:href="#A" x="212.573" y="40.403"/><use xlink:href="#x" x="221.659" y="40.403"/><use xlink:href="#z" x="242.138" y="40.403"/><use xlink:href="#x" x="262.617" y="40.403"/><use xlink:href="#z" x="278.566" y="40.403"/><use xlink:href="#z" x="217.116" y="54.849"/><use xlink:href="#A" x="237.595" y="54.849"/><use xlink:href="#x" x="246.681" y="54.849"/><use xlink:href="#z" x="262.617" y="54.849"/><use xlink:href="#x" x="278.566" y="54.849"/><use xlink:href="#h" x="284.544" y="18.404"/><g><use xlink:href="#i" x="284.544" y="27.105"/></g><g><use xlink:href="#i" x="284.544" y="35.133"/></g><g><use xlink:href="#i" x="284.544" y="43.161"/></g><g><use xlink:href="#j" x="284.544" y="56.692"/></g></svg>