<!--
Bézier_{n,k}(t) \frac{d}{dt} = \sum_{k=0}^{n-1} n \cdot B_{n-1,k}(t) \cdot (w_{k+1} - w_k)
= \sum_{k=0}^{n-1} B_{n-1,k}(t) \cdot \underset{derivative\ weights}
{\underbrace{n \cdot (w_{k+1} - w_k)}}
-->
<svg xmlns:xlink="http://www.w3.org/1999/xlink" width="81.167ex" height="8.167ex" style="vertical-align: -4.167ex; margin-left: 0ex; margin-right: 0ex; margin-bottom: 1px; margin-top: 1px;" viewBox="0 -1751.9 34976.4 3501.4" xmlns="http://www.w3.org/2000/svg">
<defs>
<path stroke-width="10" id="E1-LATINMODERNNORMAL-1D435" d="M756 545c0 -95 -105 -169 -209 -188c97 -11 155 -69 155 -141c0 -98 -118 -216 -276 -216h-357c-18 0 -27 0 -27 11c0 20 10 20 27 20c79 0 81 8 91 47l134 537c3 12 4 15 4 19c0 13 -9 14 -27 16c-17 2 -38 2 -38 2c-19 0 -28 0 -28 11c0 20 10 20 29 20h336 c120 0 186 -64 186 -138zM665 549c0 44 -21 103 -109 103h-129c-43 0 -45 -3 -54 -38l-62 -248h146c122 0 208 95 208 183zM609 227c0 43 -19 117 -115 117h-189l-69 -279c-5 -18 -5 -20 -5 -23c0 -8 3 -9 13 -10c6 -1 8 -1 22 -1h136c118 0 207 97 207 196Z"></path>
<path stroke-width="10" id="E1-LATINMODERNLATIN-E9" d="M415 119c0 -19 -45 -130 -167 -130c-115 0 -220 97 -220 231c0 125 92 228 208 228c125 0 179 -97 179 -196c0 -21 -3 -21 -25 -21h-279c0 -36 0 -102 30 -150c23 -37 63 -67 113 -67c10 0 100 0 135 103c2 8 4 14 13 14c5 0 13 -2 13 -12zM349 252 c0 39 -10 174 -113 174c-34 0 -118 -25 -124 -174h237zM346 662c0 -12 -8 -23 -17 -30l-152 -122l-17 18l120 153c4 6 15 17 30 17c18 0 36 -18 36 -36Z"></path>
<path stroke-width="10" id="E1-LATINMODERNNORMAL-1D467" d="M467 432c0 -4 -22 -52 -117 -145c-36 -36 -98 -90 -98 -90c-36 -31 -65 -56 -119 -114c9 3 27 3 27 3c21 0 36 -4 70 -17c21 -7 39 -13 59 -13c33 0 97 19 120 84c3 7 5 13 14 13c8 0 12 -5 12 -10c0 -27 -58 -154 -157 -154c-29 0 -47 16 -64 37c-25 29 -35 38 -58 38 c-32 0 -62 -27 -85 -62c-6 -11 -8 -13 -16 -13c0 0 -12 0 -12 10c0 7 35 64 103 131l90 84c19 16 103 88 139 131c-26 0 -37 0 -77 15c-23 8 -42 15 -63 15c-8 0 -66 -1 -85 -47c-2 -6 -4 -11 -13 -11s-12 6 -12 11c0 21 46 114 121 114c33 0 50 -20 69 -43 c15 -17 27 -32 51 -32s45 16 75 64c5 9 8 11 15 11c0 0 11 0 11 -10Z"></path>
<path stroke-width="10" id="E1-LATINMODERNNORMAL-1D456" d="M284 625c0 -30 -30 -53 -53 -53c-24 0 -38 17 -38 36c0 27 27 53 54 53c23 0 37 -16 37 -36zM293 143c0 -9 -37 -154 -131 -154c-48 0 -82 35 -82 82c0 21 13 54 23 80c16 43 61 159 69 185c4 10 11 31 11 52c0 32 -17 32 -25 32c-34 0 -74 -30 -101 -124 c-5 -16 -6 -18 -16 -18c0 0 -12 0 -12 10c0 9 38 154 132 154c50 0 82 -37 82 -82c0 -19 -5 -33 -13 -53c-10 -27 -10 -29 -22 -58l-39 -105c-23 -61 -29 -75 -29 -100c0 -23 7 -33 24 -33c51 0 84 61 102 124c5 15 5 18 15 18c3 0 12 0 12 -10Z"></path>
<path stroke-width="10" id="E1-LATINMODERNNORMAL-1D452" d="M430 107c0 -12 -84 -118 -227 -118c-98 0 -157 79 -157 181c0 175 151 272 262 272c69 0 107 -41 107 -85c0 -14 -5 -73 -75 -103c-50 -21 -124 -23 -153 -23h-53c-15 -61 -16 -92 -16 -104c0 -32 9 -116 87 -116c12 0 121 0 200 99c6 8 8 10 13 10c6 0 12 -7 12 -13z M382 357c0 34 -27 63 -74 63c-26 0 -129 -15 -168 -167h41c41 0 201 0 201 104Z"></path>
<path stroke-width="10" id="E1-LATINMODERNNORMAL-1D45F" d="M436 377c0 -36 -28 -59 -55 -59s-38 19 -38 35c0 26 22 50 52 55c0 0 -16 12 -42 12c-43 0 -72 -26 -80 -33c-24 -22 -52 -69 -56 -82l-32 -130c-4 -18 -38 -154 -40 -158c-7 -20 -25 -28 -37 -28c-15 0 -29 9 -29 27c0 5 6 28 9 43l58 231c13 52 16 63 16 84 c0 38 -14 46 -31 46c-36 0 -56 -48 -73 -119c-6 -22 -7 -23 -17 -23c0 0 -12 0 -12 10c0 3 13 63 31 97c9 18 28 57 74 57c47 0 83 -32 91 -77c19 28 63 77 128 77c51 0 83 -30 83 -65Z"></path>
<path stroke-width="10" id="E1-LATINMODERNNORMAL-1D45B" d="M571 143c0 -8 -37 -154 -131 -154c-47 0 -82 35 -82 82c0 11 1 23 10 46c16 43 65 171 65 233c0 33 -9 70 -54 70c-95 0 -148 -91 -163 -122l-13 -50c-5 -23 -11 -45 -17 -67l-22 -90c-6 -25 -18 -72 -19 -74c-7 -20 -25 -28 -37 -28c-15 0 -29 9 -29 27c0 5 6 28 9 43 l58 231c13 52 16 63 16 84c0 33 -11 46 -31 46c-36 0 -56 -48 -73 -119c-6 -22 -7 -23 -17 -23c0 0 -12 0 -12 10c0 4 14 63 30 97c10 18 29 57 75 57s87 -31 92 -87c17 23 66 87 156 87c72 0 115 -40 115 -107c0 -57 -42 -167 -61 -220c-9 -22 -18 -46 -18 -71 c0 -23 7 -33 24 -33c49 0 82 56 102 124c5 15 5 18 15 18c3 0 12 0 12 -10Z"></path>
<path stroke-width="10" id="E1-LATINMODERNMAIN-2C" d="M203 1c0 -117 -80 -194 -91 -194c-5 0 -10 4 -10 11c0 3 0 5 11 16c33 33 68 93 68 167c0 14 -2 15 -2 15s-2 -1 -5 -3c-10 -9 -23 -13 -35 -13c-33 0 -53 26 -53 53c0 28 20 53 53 53c39 0 64 -39 64 -105Z"></path>
<path stroke-width="10" id="E1-LATINMODERNNORMAL-1D458" d="M508 379c0 -39 -29 -61 -55 -61c-27 0 -38 19 -38 35c0 12 9 51 57 54c-2 2 -2 3 -4 4c-8 6 -9 6 -21 8c-2 1 -3 1 -9 1c-49 0 -95 -43 -143 -96c-23 -24 -55 -56 -86 -74c85 -11 148 -40 148 -105c0 -10 0 -14 -4 -31c-4 -16 -8 -39 -8 -56c0 -36 13 -47 32 -47 c44 0 67 51 87 124c3 14 4 18 14 18c3 0 12 0 12 -10c0 0 -11 -57 -36 -101c-22 -37 -49 -53 -79 -53c-52 0 -92 40 -92 99c0 11 2 23 4 35c3 10 3 14 3 21c0 66 -82 82 -116 85c-6 -25 -51 -210 -56 -219c-6 -12 -21 -21 -34 -21c-9 0 -29 5 -29 28c0 6 0 8 4 22l145 576 l3 20c0 10 -2 17 -50 17c-15 0 -24 0 -24 12c0 18 11 19 19 20c26 2 99 10 122 10c13 0 13 -11 13 -11l-104 -422c38 15 77 55 111 93c72 80 118 88 146 88c45 0 68 -33 68 -63Z"></path>
<path stroke-width="10" id="E1-LATINMODERNMAIN-28" d="M332 -238c0 -5 -5 -10 -10 -10c-2 0 -4 1 -6 2c-110 83 -215 283 -215 454v84c0 171 105 371 215 454c2 1 4 2 6 2c5 0 10 -5 10 -10c0 -3 -2 -6 -4 -8c-104 -78 -173 -278 -173 -438v-84c0 -160 69 -360 173 -438c2 -2 4 -5 4 -8Z"></path>
<path stroke-width="10" id="E1-LATINMODERNNORMAL-1D461" d="M330 420c0 -20 -10 -20 -30 -20h-94l-74 -295c-4 -17 -6 -24 -6 -48c0 -33 10 -46 31 -46c34 0 87 24 130 128c5 11 6 14 15 14c4 0 12 0 12 -10c0 -8 -57 -154 -159 -154c-54 0 -92 38 -92 92c0 18 4 35 76 319h-88c-20 0 -28 0 -28 12c0 19 10 19 30 19h94l39 159 c9 35 37 36 40 36c17 0 29 -10 29 -27c0 -6 -5 -26 -41 -168h88c18 0 28 0 28 -11Z"></path>
<path stroke-width="10" id="E1-LATINMODERNMAIN-29" d="M288 208c0 -171 -105 -371 -215 -454c-2 -1 -4 -2 -6 -2c-5 0 -10 5 -10 10c0 3 2 6 4 8c104 78 173 278 173 438v84c0 160 -69 360 -173 438c-2 2 -4 5 -4 8c0 5 5 10 10 10c2 0 4 -1 6 -2c110 -83 215 -283 215 -454v-84Z"></path>
<path stroke-width="10" id="E1-LATINMODERNNORMAL-1D451" d="M516 683l-144 -578c-4 -17 -6 -24 -6 -48c0 -20 3 -46 30 -46c41 0 59 59 76 124c3 14 4 18 14 18c3 0 12 0 12 -10c0 0 -13 -63 -30 -99c-16 -32 -39 -55 -74 -55c-48 0 -83 33 -91 75c-60 -71 -110 -75 -130 -75c-78 0 -133 66 -133 160c0 146 124 293 241 293 c45 0 74 -27 92 -64l60 237l3 20c0 10 -2 17 -50 17c-15 0 -24 0 -24 12c0 13 6 18 14 19c17 2 112 11 127 11c13 0 13 -11 13 -11zM361 332c0 6 -14 88 -79 88c-40 0 -85 -37 -116 -96c-23 -46 -55 -169 -55 -219c0 -39 14 -94 64 -94c28 0 69 16 113 71c15 17 15 19 20 37 l50 196c1 5 3 11 3 17Z"></path>
<path stroke-width="10" id="E1-LATINMODERNMAIN-3D" d="M722 347c0 -11 -9 -20 -20 -20h-626c-11 0 -20 9 -20 20s9 20 20 20h626c11 0 20 -9 20 -20zM722 153c0 -11 -9 -20 -20 -20h-626c-11 0 -20 9 -20 20s9 20 20 20h626c11 0 20 -9 20 -20Z"></path>
<path stroke-width="10" id="E1-LATINMODERNSIZE1-2211" d="M1387 -130l-121 -320h-1182c-18 0 -27 0 -27 11c0 0 0 6 10 18l518 607l-529 724c0 11 0 30 1 33c3 6 4 7 27 7h1182l121 -281h-25c-34 81 -102 126 -127 142c-79 50 -166 67 -220 75c-9 2 -100 16 -234 16h-548l466 -637c7 -10 7 -15 7 -15c0 -5 -2 -8 -9 -16l-509 -597 h603c192 0 290 26 311 31c115 30 221 98 260 202h25Z"></path>
<path stroke-width="10" id="E1-LATINMODERNMAIN-30" d="M460 320c0 -79 -5 -157 -37 -226c-44 -95 -120 -116 -174 -116c-49 0 -122 20 -165 101c-41 76 -45 166 -45 241c0 80 5 158 37 227c41 93 114 119 174 119c42 0 124 -16 170 -112c35 -74 40 -154 40 -234zM377 332c0 63 0 139 -10 195c-19 99 -85 117 -118 117 c-25 0 -100 -9 -119 -128c-8 -54 -8 -120 -8 -184c0 -59 0 -151 11 -211c18 -96 77 -121 116 -121c45 0 102 30 117 125c11 64 11 132 11 207Z"></path>
<path stroke-width="10" id="E1-LATINMODERNMAIN-2212" d="M722 250c0 -11 -9 -20 -20 -20h-626c-11 0 -20 9 -20 20s9 20 20 20h626c11 0 20 -9 20 -20Z"></path>
<path stroke-width="10" id="E1-LATINMODERNMAIN-31" d="M419 0c-35 3 -122 3 -162 3s-127 0 -162 -3v31h32c90 0 93 12 93 48v518c-52 -26 -111 -26 -131 -26v31c32 0 120 0 182 64c23 0 23 -2 23 -26v-561c0 -37 3 -48 93 -48h32v-31Z"></path>
<path stroke-width="10" id="E1-LATINMODERNMAIN-22C5" d="M192 250c0 -29 -24 -53 -53 -53s-53 24 -53 53s24 53 53 53s53 -24 53 -53Z"></path>
<path stroke-width="10" id="E1-LATINMODERNNORMAL-1D464" d="M691 372c0 -48 -32 -182 -66 -260c-26 -60 -70 -123 -145 -123c-30 0 -99 6 -125 70c-40 -70 -87 -70 -104 -70c-75 0 -142 35 -142 126c0 38 12 84 56 202c7 17 18 45 18 70c0 32 -16 33 -25 33c-35 0 -74 -31 -101 -124c-5 -16 -6 -18 -16 -18c0 0 -12 0 -12 10 c0 9 37 154 132 154c49 0 82 -37 82 -82c0 -20 -6 -34 -17 -64c-47 -123 -52 -162 -52 -194c0 -17 0 -91 80 -91c39 0 69 31 92 84c-1 5 -1 7 -1 18c0 18 2 36 9 66c7 26 54 217 57 224c7 20 25 28 37 28c15 0 29 -9 29 -27c0 -6 -10 -43 -15 -65l-42 -168 c-4 -14 -11 -45 -11 -73c0 -57 27 -87 74 -87c49 0 84 35 110 88c26 51 55 149 55 183c0 48 -25 74 -36 85c-9 8 -15 14 -15 27c0 22 25 48 50 48c17 0 44 -15 44 -70Z"></path>
<path stroke-width="10" id="E1-LATINMODERNMAIN-2B" d="M722 250c0 -11 -9 -20 -20 -20h-293v-293c0 -11 -9 -20 -20 -20s-20 9 -20 20v293h-293c-11 0 -20 9 -20 20s9 20 20 20h293v293c0 11 9 20 20 20s20 -9 20 -20v-293h293c11 0 20 -9 20 -20Z"></path>
<path stroke-width="10" id="E1-LATINMODERNMAIN-23DF" d="M492 -116c-7 -75 -40 -142 -86 -142h-80c-32 0 -69 -37 -74 -90c0 -3 -3 -5 -6 -5s-6 2 -6 5c-5 53 -42 90 -74 90h-80c-46 0 -79 67 -86 142c0 4 3 7 6 7s6 -2 6 -5c5 -53 42 -90 74 -90h80c37 0 67 -45 80 -103c13 58 43 103 80 103h80c32 0 69 37 74 90c0 3 3 5 6 5 s6 -3 6 -7Z"></path>
<path stroke-width="10" id="E1-LATINMODERNSIZE7-E111" d="M1002 -294h-492c-254 0 -474 117 -509 214c-1 1 -1 3 -1 5c0 7 6 13 13 13c6 0 10 -4 12 -9c32 -88 256 -121 485 -121h492v-102Z"></path>
<path stroke-width="10" id="E1-LATINMODERNSIZE7-E114" d="M1001 -75c0 -2 0 -4 -1 -5c-35 -97 -255 -214 -509 -214h-491v102h491c229 0 453 33 485 121c2 5 6 9 12 9c7 0 13 -6 13 -13Z"></path>
<path stroke-width="10" id="E1-LATINMODERNSIZE7-E113" d="M2003 -192v-102h-505c-260 0 -484 -29 -484 -116c0 -8 -6 -13 -13 -13s-13 5 -13 13c0 87 -224 116 -484 116h-504v102h504c249 0 446 -89 497 -176c51 87 248 176 497 176h505Z"></path>
<path stroke-width="10" id="E1-LATINMODERNSIZE7-E112" d="M994 -294h-989h-5v102h5h989v-102Z"></path>
<path stroke-width="10" id="E1-LATINMODERNNORMAL-1D463" d="M468 372c0 -52 -57 -383 -225 -383c-46 0 -134 16 -134 124c0 43 13 89 57 205c7 18 17 45 17 70c0 32 -17 32 -25 32c-29 0 -72 -23 -101 -124c-5 -16 -6 -18 -16 -18c0 0 -12 0 -12 10c0 9 38 154 132 154c50 0 82 -37 82 -82c0 -19 -5 -33 -12 -50 c-31 -83 -58 -156 -58 -212c0 -52 23 -87 74 -87c117 0 178 229 178 271c0 36 -13 62 -34 82c-11 11 -16 17 -16 30c0 22 24 48 49 48c18 0 44 -16 44 -70Z"></path>
<path stroke-width="10" id="E1-LATINMODERNNORMAL-1D44E" d="M498 143c0 0 -13 -63 -30 -99c-16 -32 -39 -55 -74 -55c-48 0 -83 33 -91 75c-60 -71 -110 -75 -130 -75c-78 0 -133 66 -133 160c0 146 124 293 241 293c45 0 74 -27 92 -64c3 22 18 44 42 44c17 0 29 -10 29 -27c0 -4 0 -6 -7 -34l-36 -140l-22 -90 c-11 -44 -13 -52 -13 -74c0 -20 3 -46 30 -46c41 0 59 59 76 124c3 14 4 18 14 18c3 0 12 0 12 -10zM361 332c0 6 -14 88 -79 88c-40 0 -85 -37 -116 -96c-23 -46 -55 -169 -55 -219c0 -39 14 -94 64 -94c28 0 69 16 113 71c15 17 15 19 20 37l50 196c1 5 3 11 3 17Z"></path>
<path stroke-width="10" id="E1-LATINMODERNNORMAL-1D454" d="M474 395c0 -7 -2 -12 -3 -18l-111 -444c-15 -60 -87 -138 -212 -138c-96 0 -133 20 -133 61c0 40 32 58 54 58c27 0 38 -19 38 -35c0 -17 -11 -43 -41 -52c28 -9 61 -10 80 -10c106 0 140 99 144 108l33 132l-1 1c-10 -11 -57 -58 -116 -58c-72 0 -133 59 -133 158 c0 144 124 284 238 284c40 0 75 -26 93 -63c4 36 31 43 41 43c17 0 29 -10 29 -27zM392 334c0 5 -14 86 -80 86c-42 0 -85 -40 -112 -89c-27 -51 -56 -169 -56 -217c0 -40 15 -92 65 -92c29 0 60 18 81 36c22 19 45 44 51 70l48 191c1 4 3 10 3 15Z"></path>
<path stroke-width="10" id="E1-LATINMODERNNORMAL-210E" d="M546 143c0 -8 -37 -154 -131 -154c-47 0 -82 35 -82 82c0 20 5 32 13 55c24 61 62 170 62 224c0 36 -11 70 -54 70s-74 -19 -96 -35c-34 -27 -65 -83 -68 -92c-1 -6 -9 -39 -11 -45c-5 -23 -11 -45 -17 -67l-22 -90l-19 -76c-5 -14 -21 -26 -37 -26c-9 0 -29 5 -29 28 c0 6 0 8 4 22l145 576l3 20c0 10 -2 17 -50 17c-15 0 -24 0 -24 12c0 18 11 19 19 20c26 2 99 10 122 10c13 0 13 -11 13 -11l-78 -318c37 46 85 77 148 77c75 0 115 -42 115 -107c0 -58 -45 -177 -61 -220c-9 -22 -18 -46 -18 -71c0 -23 7 -33 24 -33c55 0 87 71 102 124 c5 15 5 18 15 18c3 0 12 0 12 -10Z"></path>
<path stroke-width="10" id="E1-LATINMODERNNORMAL-1D460" d="M420 356c0 -39 -24 -56 -46 -56s-31 15 -31 29c0 22 20 44 48 45c-15 39 -65 46 -90 46c-88 0 -112 -61 -112 -90c0 -45 40 -52 76 -60c44 -9 73 -14 100 -42c12 -12 31 -37 31 -73c0 -45 -39 -166 -201 -166c-86 0 -143 40 -143 97c0 45 30 66 56 66c21 0 37 -12 37 -35 c0 -28 -25 -58 -63 -53c23 -53 100 -53 114 -53c120 0 143 84 143 110c0 55 -52 66 -104 76c-29 6 -103 21 -103 99c0 44 37 146 169 146c76 0 119 -41 119 -86Z"></path>
</defs>
<g stroke="currentColor" fill="currentColor" stroke-width="0" transform="matrix(1 0 0 -1 0 0)">
 <use xlink:href="#E1-LATINMODERNNORMAL-1D435" x="0" y="0"></use>
 <use xlink:href="#E1-LATINMODERNLATIN-E9" x="764" y="0"></use>
 <use xlink:href="#E1-LATINMODERNNORMAL-1D467" x="1213" y="0"></use>
 <use xlink:href="#E1-LATINMODERNNORMAL-1D456" x="1685" y="0"></use>
 <use xlink:href="#E1-LATINMODERNNORMAL-1D452" x="2035" y="0"></use>
<g transform="translate(2506,0)">
 <use xlink:href="#E1-LATINMODERNNORMAL-1D45F" x="0" y="0"></use>
<g transform="translate(456,-154)">
 <use transform="scale(0.707)" xlink:href="#E1-LATINMODERNNORMAL-1D45B" x="0" y="0"></use>
 <use transform="scale(0.707)" xlink:href="#E1-LATINMODERNMAIN-2C" x="605" y="0"></use>
 <use transform="scale(0.707)" xlink:href="#E1-LATINMODERNNORMAL-1D458" x="888" y="0"></use>
</g>
</g>
 <use xlink:href="#E1-LATINMODERNMAIN-28" x="4061" y="0"></use>
 <use xlink:href="#E1-LATINMODERNNORMAL-1D461" x="4455" y="0"></use>
 <use xlink:href="#E1-LATINMODERNMAIN-29" x="4821" y="0"></use>
<g transform="translate(5215,0)">
<g transform="translate(120,0)">
<rect stroke="none" width="1011" height="60" x="0" y="220"></rect>
 <use xlink:href="#E1-LATINMODERNNORMAL-1D451" x="243" y="676"></use>
<g transform="translate(60,-724)">
 <use xlink:href="#E1-LATINMODERNNORMAL-1D451" x="0" y="0"></use>
 <use xlink:href="#E1-LATINMODERNNORMAL-1D461" x="525" y="0"></use>
</g>
</g>
</g>
 <use xlink:href="#E1-LATINMODERNMAIN-3D" x="6744" y="0"></use>
<g transform="translate(7805,0)">
 <use xlink:href="#E1-LATINMODERNSIZE1-2211" x="0" y="0"></use>
<g transform="translate(83,-1125)">
 <use transform="scale(0.707)" xlink:href="#E1-LATINMODERNNORMAL-1D458" x="0" y="0"></use>
 <use transform="scale(0.707)" xlink:href="#E1-LATINMODERNMAIN-3D" x="526" y="0"></use>
 <use transform="scale(0.707)" xlink:href="#E1-LATINMODERNMAIN-30" x="1309" y="0"></use>
</g>
<g transform="translate(55,1160)">
 <use transform="scale(0.707)" xlink:href="#E1-LATINMODERNNORMAL-1D45B" x="0" y="0"></use>
 <use transform="scale(0.707)" xlink:href="#E1-LATINMODERNMAIN-2212" x="605" y="0"></use>
 <use transform="scale(0.707)" xlink:href="#E1-LATINMODERNMAIN-31" x="1388" y="0"></use>
</g>
</g>
 <use xlink:href="#E1-LATINMODERNNORMAL-1D45B" x="9421" y="0"></use>
 <use xlink:href="#E1-LATINMODERNMAIN-22C5" x="10248" y="0"></use>
<g transform="translate(10753,0)">
 <use xlink:href="#E1-LATINMODERNNORMAL-1D435" x="0" y="0"></use>
<g transform="translate(764,-154)">
 <use transform="scale(0.707)" xlink:href="#E1-LATINMODERNNORMAL-1D45B" x="0" y="0"></use>
 <use transform="scale(0.707)" xlink:href="#E1-LATINMODERNMAIN-2212" x="605" y="0"></use>
 <use transform="scale(0.707)" xlink:href="#E1-LATINMODERNMAIN-31" x="1388" y="0"></use>
 <use transform="scale(0.707)" xlink:href="#E1-LATINMODERNMAIN-2C" x="1892" y="0"></use>
 <use transform="scale(0.707)" xlink:href="#E1-LATINMODERNNORMAL-1D458" x="2176" y="0"></use>
</g>
</g>
 <use xlink:href="#E1-LATINMODERNMAIN-28" x="13528" y="0"></use>
 <use xlink:href="#E1-LATINMODERNNORMAL-1D461" x="13922" y="0"></use>
 <use xlink:href="#E1-LATINMODERNMAIN-29" x="14288" y="0"></use>
 <use xlink:href="#E1-LATINMODERNMAIN-22C5" x="14904" y="0"></use>
 <use xlink:href="#E1-LATINMODERNMAIN-28" x="15409" y="0"></use>
<g transform="translate(15803,0)">
 <use xlink:href="#E1-LATINMODERNNORMAL-1D464" x="0" y="0"></use>
<g transform="translate(721,-154)">
 <use transform="scale(0.707)" xlink:href="#E1-LATINMODERNNORMAL-1D458" x="0" y="0"></use>
 <use transform="scale(0.707)" xlink:href="#E1-LATINMODERNMAIN-2B" x="526" y="0"></use>
 <use transform="scale(0.707)" xlink:href="#E1-LATINMODERNMAIN-31" x="1309" y="0"></use>
</g>
</g>
 <use xlink:href="#E1-LATINMODERNMAIN-2212" x="18129" y="0"></use>
<g transform="translate(19134,0)">
 <use xlink:href="#E1-LATINMODERNNORMAL-1D464" x="0" y="0"></use>
 <use transform="scale(0.707)" xlink:href="#E1-LATINMODERNNORMAL-1D458" x="1019" y="-217"></use>
</g>
 <use xlink:href="#E1-LATINMODERNMAIN-29" x="20327" y="0"></use>
 <use xlink:href="#E1-LATINMODERNMAIN-3D" x="20999" y="0"></use>
<g transform="translate(22060,0)">
 <use xlink:href="#E1-LATINMODERNSIZE1-2211" x="0" y="0"></use>
<g transform="translate(83,-1125)">
 <use transform="scale(0.707)" xlink:href="#E1-LATINMODERNNORMAL-1D458" x="0" y="0"></use>
 <use transform="scale(0.707)" xlink:href="#E1-LATINMODERNMAIN-3D" x="526" y="0"></use>
 <use transform="scale(0.707)" xlink:href="#E1-LATINMODERNMAIN-30" x="1309" y="0"></use>
</g>
<g transform="translate(55,1160)">
 <use transform="scale(0.707)" xlink:href="#E1-LATINMODERNNORMAL-1D45B" x="0" y="0"></use>
 <use transform="scale(0.707)" xlink:href="#E1-LATINMODERNMAIN-2212" x="605" y="0"></use>
 <use transform="scale(0.707)" xlink:href="#E1-LATINMODERNMAIN-31" x="1388" y="0"></use>
</g>
</g>
<g transform="translate(23675,0)">
 <use xlink:href="#E1-LATINMODERNNORMAL-1D435" x="0" y="0"></use>
<g transform="translate(764,-154)">
 <use transform="scale(0.707)" xlink:href="#E1-LATINMODERNNORMAL-1D45B" x="0" y="0"></use>
 <use transform="scale(0.707)" xlink:href="#E1-LATINMODERNMAIN-2212" x="605" y="0"></use>
 <use transform="scale(0.707)" xlink:href="#E1-LATINMODERNMAIN-31" x="1388" y="0"></use>
 <use transform="scale(0.707)" xlink:href="#E1-LATINMODERNMAIN-2C" x="1892" y="0"></use>
 <use transform="scale(0.707)" xlink:href="#E1-LATINMODERNNORMAL-1D458" x="2176" y="0"></use>
</g>
</g>
 <use xlink:href="#E1-LATINMODERNMAIN-28" x="26450" y="0"></use>
 <use xlink:href="#E1-LATINMODERNNORMAL-1D461" x="26844" y="0"></use>
 <use xlink:href="#E1-LATINMODERNMAIN-29" x="27210" y="0"></use>
 <use xlink:href="#E1-LATINMODERNMAIN-22C5" x="27826" y="0"></use>
<g transform="translate(28331,0)">
 <use xlink:href="#E1-LATINMODERNNORMAL-1D45B" x="0" y="0"></use>
 <use xlink:href="#E1-LATINMODERNMAIN-22C5" x="827" y="0"></use>
 <use xlink:href="#E1-LATINMODERNMAIN-28" x="1332" y="0"></use>
<g transform="translate(1726,0)">
 <use xlink:href="#E1-LATINMODERNNORMAL-1D464" x="0" y="0"></use>
<g transform="translate(721,-154)">
 <use transform="scale(0.707)" xlink:href="#E1-LATINMODERNNORMAL-1D458" x="0" y="0"></use>
 <use transform="scale(0.707)" xlink:href="#E1-LATINMODERNMAIN-2B" x="526" y="0"></use>
 <use transform="scale(0.707)" xlink:href="#E1-LATINMODERNMAIN-31" x="1309" y="0"></use>
</g>
</g>
 <use xlink:href="#E1-LATINMODERNMAIN-2212" x="4052" y="0"></use>
<g transform="translate(5057,0)">
 <use xlink:href="#E1-LATINMODERNNORMAL-1D464" x="0" y="0"></use>
 <use transform="scale(0.707)" xlink:href="#E1-LATINMODERNNORMAL-1D458" x="1019" y="-217"></use>
</g>
 <use xlink:href="#E1-LATINMODERNMAIN-29" x="6250" y="0"></use>
<g transform="translate(0,-386)">
 <use xlink:href="#E1-LATINMODERNSIZE7-E111" x="-5" y="0"></use>
<g transform="translate(995.3764618791112,0) scale(1.3247076241777718,1)">
 <use xlink:href="#E1-LATINMODERNSIZE7-E112"></use>
</g>
 <use xlink:href="#E1-LATINMODERNSIZE7-E113" x="2318" y="0"></use>
<g transform="translate(4320.1358403118165,0) scale(1.3247076241777718,1)">
 <use xlink:href="#E1-LATINMODERNSIZE7-E112"></use>
</g>
 <use xlink:href="#E1-LATINMODERNSIZE7-E114" x="5638" y="0"></use>
</g>
<g transform="translate(346,-1484)">
 <use transform="scale(0.707)" xlink:href="#E1-LATINMODERNNORMAL-1D451" x="0" y="0"></use>
 <use transform="scale(0.707)" xlink:href="#E1-LATINMODERNNORMAL-1D452" x="525" y="0"></use>
 <use transform="scale(0.707)" xlink:href="#E1-LATINMODERNNORMAL-1D45F" x="995" y="0"></use>
 <use transform="scale(0.707)" xlink:href="#E1-LATINMODERNNORMAL-1D456" x="1452" y="0"></use>
 <use transform="scale(0.707)" xlink:href="#E1-LATINMODERNNORMAL-1D463" x="1802" y="0"></use>
 <use transform="scale(0.707)" xlink:href="#E1-LATINMODERNNORMAL-1D44E" x="2292" y="0"></use>
 <use transform="scale(0.707)" xlink:href="#E1-LATINMODERNNORMAL-1D461" x="2826" y="0"></use>
 <use transform="scale(0.707)" xlink:href="#E1-LATINMODERNNORMAL-1D456" x="3192" y="0"></use>
 <use transform="scale(0.707)" xlink:href="#E1-LATINMODERNNORMAL-1D463" x="3541" y="0"></use>
 <use transform="scale(0.707)" xlink:href="#E1-LATINMODERNNORMAL-1D452" x="4031" y="0"></use>
 <use transform="scale(0.707)" xlink:href="#E1-LATINMODERNNORMAL-1D464" x="4972" y="0"></use>
 <use transform="scale(0.707)" xlink:href="#E1-LATINMODERNNORMAL-1D452" x="5693" y="0"></use>
 <use transform="scale(0.707)" xlink:href="#E1-LATINMODERNNORMAL-1D456" x="6164" y="0"></use>
 <use transform="scale(0.707)" xlink:href="#E1-LATINMODERNNORMAL-1D454" x="6514" y="0"></use>
 <use transform="scale(0.707)" xlink:href="#E1-LATINMODERNNORMAL-210E" x="6996" y="0"></use>
 <use transform="scale(0.707)" xlink:href="#E1-LATINMODERNNORMAL-1D461" x="7577" y="0"></use>
 <use transform="scale(0.707)" xlink:href="#E1-LATINMODERNNORMAL-1D460" x="7943" y="0"></use>
</g>
</g>
</g>
</svg>