<svg xmlns="http://www.w3.org/2000/svg" xmlns:xlink="http://www.w3.org/1999/xlink" width="623pt" height="55pt" viewBox="0 0 623 55"><defs><symbol overflow="visible" id="a"><path d="M.453 0v-14.516h3.531v.532H1.688V0zm0 0"/></symbol><symbol overflow="visible" id="b"><path d="M.453 0v-14.656h1.234V0zm0 0"/></symbol><symbol overflow="visible" id="c"><path d="M1.688-14.516V-.53h2.296V0H.454v-14.516zm0 0"/></symbol><symbol overflow="visible" id="d"><path d="M4.078-1.531c0 .23.008.402.031.515a.68.68 0 0 0 .141.282.572.572 0 0 0 .266.171c.125.043.273.075.453.094.187.024.43.04.734.047V0H1.375v-.422A8.17 8.17 0 0 0 2.297-.5c.187-.04.328-.094.422-.156a.516.516 0 0 0 .219-.281c.05-.125.078-.32.078-.594v-4.75c0-.157-.032-.27-.094-.344a.282.282 0 0 0-.235-.11c-.124 0-.304.07-.53.204-.231.125-.516.304-.86.531l-.25-.453 2.734-1.64h.328a27.34 27.34 0 0 0-.03 1.562zm0 0"/></symbol><symbol overflow="visible" id="e"><path d="M3.266.094c-.844 0-1.477-.332-1.891-1C.957-1.57.75-2.578.75-3.922c0-.719.063-1.336.188-1.86.132-.53.316-.96.546-1.296.227-.344.5-.598.813-.766.32-.164.676-.25 1.062-.25.852 0 1.489.336 1.907 1 .414.657.625 1.653.625 2.985 0 1.386-.227 2.433-.672 3.14C4.769-.258 4.117.094 3.266.094zM1.906-4.11c0 1.28.114 2.218.344 2.812.238.594.61.89 1.11.89.468 0 .816-.28 1.046-.843.227-.563.344-1.426.344-2.594 0-.906-.063-1.633-.188-2.187-.117-.563-.277-.961-.484-1.203-.21-.239-.46-.36-.75-.36-.273 0-.5.086-.687.25-.18.157-.325.387-.438.688a4.958 4.958 0 0 0-.234 1.093c-.043.43-.063.915-.063 1.454zm0 0"/></symbol><symbol overflow="visible" id="f"><path d="M.875-3.047v-.781h7.219v.781zm0 0"/></symbol><symbol overflow="visible" id="g"><path d="M2.063-2.969c0 1.367.218 2.492.656 3.375.445.895 1.117 1.492 2.015 1.797l-.14.453C3.457 2.352 2.582 1.703 1.969.703c-.606-.988-.907-2.191-.907-3.61 0-1.405.301-2.609.907-3.609.613-1 1.488-1.648 2.625-1.953l.172.453c-.918.305-1.602.891-2.047 1.766-.438.867-.656 1.96-.656 3.281zm0 0"/></symbol><symbol overflow="visible" id="h"><path d="M4.86-1.64L4.5 0H.266L.14-.281l3.218-3.703c.446-.52.774-.891.985-1.11l-.032-.031H2.938c-.199 0-.343.016-.437.047a.792.792 0 0 0-.281.14c-.094.063-.2.165-.313.297a4.167 4.167 0 0 0-.36.579h-.515l.344-1.547h4.172l.11.296-2.798 3.22A169.64 169.64 0 0 1 1.453-.517l.031.047h1.329c.226 0 .406-.008.53-.031a.852.852 0 0 0 .329-.156c.094-.07.187-.176.281-.313.102-.144.235-.367.39-.672zm0 0"/></symbol><symbol overflow="visible" id="i"><path d="M2.906-2.969c0-1.32-.219-2.414-.656-3.281A3.389 3.389 0 0 0 .219-8.016l.156-.453c1.145.305 2.02.953 2.625 1.953.613 1 .922 2.204.922 3.61 0 1.418-.309 2.62-.922 3.61-.605 1-1.48 1.648-2.625 1.952l-.14-.453C1.14 1.898 1.812 1.301 2.25.406c.438-.883.656-2.008.656-3.375zm0 0"/></symbol><symbol overflow="visible" id="k"><path d="M4.11-.938c.195 0 .35-.007.468-.03a.85.85 0 0 0 .281-.126.55.55 0 0 0 .172-.203c.04-.094.094-.234.157-.422h.484L5.578 0H.75v-.281c.176-.406.406-.82.688-1.25.28-.438.687-.946 1.218-1.532.446-.5.77-.878.969-1.14.219-.281.379-.52.484-.719.114-.207.192-.398.235-.578.05-.188.078-.367.078-.547 0-.3-.047-.562-.14-.781a1.13 1.13 0 0 0-.438-.531c-.188-.125-.43-.188-.719-.188-.742 0-1.234.406-1.484 1.219H.937v-1.125c.47-.227.907-.39 1.313-.484.414-.102.79-.157 1.125-.157.719 0 1.266.164 1.64.485.376.312.563.773.563 1.375 0 .21-.023.402-.062.578-.043.18-.11.351-.204.515a3.255 3.255 0 0 1-.359.547c-.148.2-.308.399-.484.594-.18.2-.485.531-.922 1-.75.793-1.297 1.48-1.64 2.063zm0 0"/></symbol><symbol overflow="visible" id="l"><path d="M1.688-4.14c.207 0 .375.07.5.202.124.126.187.297.187.516 0 .211-.063.383-.188.516a.678.678 0 0 1-.5.187c-.199 0-.359-.062-.484-.187a.722.722 0 0 1-.187-.516c0-.219.062-.39.187-.515a.636.636 0 0 1 .484-.204zm0 0"/></symbol><symbol overflow="visible" id="n"><path d="M.938-6.344v-1.11a6.877 6.877 0 0 1 1.265-.484 4.574 4.574 0 0 1 1.14-.156c.446 0 .833.07 1.157.203.332.137.586.336.766.594.175.25.265.559.265.922 0 .324-.07.617-.203.875a1.86 1.86 0 0 1-.562.656 4.907 4.907 0 0 1-.922.547v.047c.238.055.469.133.687.234.219.094.41.227.578.391.176.168.317.367.422.594.102.23.157.492.157.781 0 .45-.102.852-.297 1.203-.2.356-.5.637-.907.844-.406.2-.902.297-1.484.297-.336 0-.7-.04-1.094-.11A6.822 6.822 0 0 1 .844-.328v-1.234h.703c.133.406.312.703.531.89.227.18.535.266.922.266.508 0 .895-.133 1.156-.406.258-.282.39-.692.39-1.235 0-.57-.171-1.008-.515-1.312-.343-.301-.851-.454-1.515-.454H2v-.515c.52-.031.96-.129 1.328-.297.363-.176.629-.398.797-.672.176-.27.266-.57.266-.906 0-.426-.118-.754-.344-.984-.23-.239-.563-.36-1-.36-.375 0-.68.102-.906.297-.23.2-.399.5-.5.906zm0 0"/></symbol><symbol overflow="visible" id="o"><path d="M2.516 0v-13.984H.219v-.532H3.75V0zm0 0"/></symbol><symbol overflow="visible" id="p"><path d="M3.75-14.656V0H2.516v-14.656zm0 0"/></symbol><symbol overflow="visible" id="q"><path d="M3.75-14.516V0H.219v-.531h2.297v-13.985zm0 0"/></symbol><symbol overflow="visible" id="r"><path d="M4.453-8a5 5 0 0 1 1.14.11c.302.074.548.187.735.343.195.149.344.336.438.563.101.23.156.496.156.796 0 .594-.14 1.106-.422 1.532-.281.43-.664.746-1.14.953-.47.2-1.04.297-1.704.297-.398 0-.726-.004-.984-.016l-.375 1.719a2.22 2.22 0 0 0-.078.375c-.012.086-.024.18-.031.281-.012.094-.016.18-.016.25a.76.76 0 0 0 .047.297c.039.063.097.11.172.14a1.8 1.8 0 0 0 .421.079L2.75 0H.328l.078-.281a.872.872 0 0 0 .328-.125.7.7 0 0 0 .188-.219 1.95 1.95 0 0 0 .14-.344c.04-.133.102-.394.188-.781l1-4.516c.082-.382.125-.691.125-.921 0-.188-.047-.317-.14-.391-.087-.07-.227-.117-.422-.14L1.875-8zM3.375-3.922c.469 0 .848-.047 1.14-.14.29-.094.532-.243.72-.454.187-.207.327-.453.421-.734.102-.281.157-.586.157-.922 0-.445-.118-.773-.344-.984-.23-.219-.61-.328-1.14-.328-.243 0-.497.007-.766.015l-.797 3.547zm0 0"/></symbol><symbol overflow="visible" id="u"><path d="M.875-4.25v-.781h7.219v.781zm0 2.422v-.781h7.219v.78zm7.469-1.594zm0 0"/></symbol><symbol overflow="visible" id="v"><path d="M4.906-3.047V.328h-.843v-3.375H.874v-.781h3.188v-3.375h.843v3.375h3.188v.781zm0 0"/></symbol><symbol overflow="visible" id="j"><path d="M3.188-.719c.132 0 .242-.004.328-.015a.498.498 0 0 0 .203-.063.386.386 0 0 0 .14-.156c.04-.07.086-.172.141-.297h.406c-.023.21-.039.418-.047.625-.011.21-.027.418-.046.625H.592v-.234C.665-.391.75-.54.844-.688c.095-.156.196-.312.313-.468.125-.164.258-.332.407-.5.144-.164.312-.344.5-.532.269-.269.488-.5.656-.687.176-.195.312-.375.406-.531.102-.156.172-.297.203-.422a1.408 1.408 0 0 0 0-.828.835.835 0 0 0-.187-.313.624.624 0 0 0-.297-.203 1.005 1.005 0 0 0-.406-.078c-.282 0-.516.074-.704.219-.18.148-.32.36-.421.64H.734v-.859a5.539 5.539 0 0 1 1.032-.328c.32-.07.609-.11.859-.11.3 0 .563.04.781.11.219.062.39.152.516.266.133.117.234.257.297.421.062.168.093.344.093.532 0 .117-.011.226-.03.328-.012.093-.04.187-.079.281a2.749 2.749 0 0 1-.156.297 2.42 2.42 0 0 1-.234.297 3.877 3.877 0 0 1-.297.328c-.118.125-.246.262-.391.406l-.438.438a16.056 16.056 0 0 0-.828.89 2.679 2.679 0 0 0-.296.375zm0 0"/></symbol><symbol overflow="visible" id="m"><path d="M.75-4.375v-.875c.352-.145.68-.254.984-.328.301-.07.594-.11.875-.11.239 0 .457.028.657.079.207.043.382.117.53.218.157.106.274.235.36.391.082.148.125.32.125.516 0 .187-.027.355-.078.5a1.297 1.297 0 0 1-.25.39c-.117.117-.25.219-.406.313-.156.094-.34.187-.547.281v.047c.195.031.379.09.547.172.164.074.312.172.437.297.133.117.239.25.313.406.07.156.11.328.11.515 0 .231-.048.45-.141.657-.086.199-.215.37-.391.515a1.94 1.94 0 0 1-.656.344c-.25.082-.547.125-.89.125-.282 0-.563-.027-.845-.078a7.375 7.375 0 0 1-.796-.219v-.953h.562c.05.149.11.274.172.375a.983.983 0 0 0 .219.266c.093.062.195.11.312.14.113.024.238.032.375.032.383 0 .672-.086.86-.266.195-.176.296-.445.296-.813 0-.394-.132-.69-.39-.89-.25-.195-.633-.297-1.14-.297h-.376v-.422c.3-.02.563-.062.781-.125.227-.07.414-.164.563-.281.156-.113.27-.25.344-.406.07-.157.109-.317.109-.485 0-.281-.086-.5-.25-.656-.168-.164-.406-.25-.719-.25-.273 0-.5.074-.687.219-.18.148-.313.367-.407.656zm0 0"/></symbol><symbol overflow="visible" id="s"><path d="M3.219-1.156v.234c.008.063.02.121.031.172a.252.252 0 0 0 .047.11c.02.03.047.058.078.078.04.042.086.074.14.093.063.012.133.028.22.047.093.012.203.024.328.031.132 0 .289.008.468.016V0H1.047v-.375c.176-.008.32-.016.437-.016.125-.007.227-.02.313-.03L2-.47a.53.53 0 0 0 .125-.062 1.36 1.36 0 0 0 .11-.094.237.237 0 0 0 .062-.11c.02-.05.035-.109.047-.171a2.25 2.25 0 0 0 .015-.25v-3.157c0-.113-.023-.19-.062-.234a.233.233 0 0 0-.188-.078c-.093 0-.23.047-.406.14-.18.094-.406.235-.687.423-.043-.07-.079-.141-.11-.204-.031-.07-.07-.14-.11-.203.364-.195.724-.394 1.079-.593l1.094-.594h.265a5.867 5.867 0 0 0-.015.437v.719zm0 0"/></symbol><symbol overflow="visible" id="t"><path d="M2.297-.266c.094-.02.164-.039.219-.062a.865.865 0 0 0 .156-.063.53.53 0 0 0 .094-.093.38.38 0 0 0 .046-.125c.008-.051.016-.114.016-.188v-.875H.36v-.344c.438-.601.868-1.203 1.297-1.796.426-.602.86-1.208 1.297-1.813h.703v3.5h.078c.125 0 .223-.004.297-.016a.36.36 0 0 0 .172-.062.452.452 0 0 0 .125-.156c.031-.07.063-.16.094-.266h.375c-.012.156-.024.32-.031.484-.012.157-.024.313-.032.47H3.656v.984a.502.502 0 0 0 .063.218c.039.055.097.094.172.125.07.024.175.047.312.078V0H2.297zM1.14-2.125h1.687v-.89-.36a8.04 8.04 0 0 0 .016-.438c.008-.156.015-.3.015-.437.008-.133.016-.25.016-.344h-.047l-.844 1.219c-.28.398-.562.793-.843 1.188zm0 0"/></symbol></defs><use xlink:href="#a" x=".601" y="15.538"/><use xlink:href="#b" x=".601" y="28.382"/><use xlink:href="#b" x=".601" y="41.17"/><use xlink:href="#c" x=".601" y="53.88"/><use xlink:href="#d" x="27.094" y="8.7"/><use xlink:href="#e" x="100.513" y="8.7"/><use xlink:href="#e" x="188.922" y="8.7"/><use xlink:href="#e" x="245.247" y="8.7"/><use xlink:href="#f" x="7.552" y="23.146"/><use xlink:href="#g" x="16.483" y="23.146"/><use xlink:href="#h" x="21.444" y="23.146"/><use xlink:href="#f" x="30.076" y="23.146"/><use xlink:href="#d" x="41.66" y="23.146"/><use xlink:href="#i" x="48.283" y="23.146"/><use xlink:href="#h" x="100.832" y="23.146"/><use xlink:href="#e" x="188.922" y="23.146"/><use xlink:href="#e" x="245.247" y="23.146"/><use xlink:href="#g" x="9.252" y="37.591"/><use xlink:href="#h" x="14.213" y="37.591"/><use xlink:href="#f" x="22.845" y="37.591"/><use xlink:href="#d" x="34.43" y="37.591"/><use xlink:href="#i" x="41.053" y="37.591"/><use xlink:href="#j" x="46.024" y="33.213"/><use xlink:href="#f" x="65.983" y="37.591"/><use xlink:href="#k" x="74.914" y="37.591"/><use xlink:href="#l" x="84.191" y="37.591"/><use xlink:href="#g" x="90.216" y="37.591"/><use xlink:href="#h" x="95.178" y="37.591"/><use xlink:href="#f" x="103.809" y="37.591"/><use xlink:href="#d" x="115.394" y="37.591"/><use xlink:href="#i" x="122.017" y="37.591"/><use xlink:href="#l" x="129.644" y="37.591"/><use xlink:href="#h" x="135.67" y="37.591"/><use xlink:href="#h" x="186.475" y="37.591"/><use xlink:href="#j" x="192.459" y="33.213"/><use xlink:href="#e" x="245.247" y="37.591"/><use xlink:href="#f" x="4.787" y="52.037"/><use xlink:href="#g" x="13.718" y="52.037"/><use xlink:href="#h" x="18.679" y="52.037"/><use xlink:href="#f" x="27.311" y="52.037"/><use xlink:href="#d" x="38.895" y="52.037"/><use xlink:href="#i" x="45.518" y="52.037"/><use xlink:href="#m" x="50.49" y="47.659"/><use xlink:href="#n" x="67.683" y="52.037"/><use xlink:href="#l" x="76.96" y="52.037"/><use xlink:href="#g" x="82.986" y="52.037"/><use xlink:href="#h" x="87.947" y="52.037"/><use xlink:href="#f" x="96.579" y="52.037"/><use xlink:href="#d" x="108.175" y="52.037"/><use xlink:href="#i" x="114.798" y="52.037"/><use xlink:href="#j" x="119.762" y="47.659"/><use xlink:href="#l" x="127.949" y="52.037"/><use xlink:href="#h" x="133.974" y="52.037"/><use xlink:href="#f" x="151.608" y="52.037"/><use xlink:href="#n" x="160.539" y="52.037"/><use xlink:href="#l" x="169.828" y="52.037"/><use xlink:href="#g" x="175.853" y="52.037"/><use xlink:href="#h" x="180.815" y="52.037"/><use xlink:href="#f" x="189.447" y="52.037"/><use xlink:href="#d" x="201.031" y="52.037"/><use xlink:href="#i" x="207.654" y="52.037"/><use xlink:href="#l" x="215.282" y="52.037"/><use xlink:href="#h" x="221.307" y="52.037"/><use xlink:href="#j" x="227.308" y="47.659"/><use xlink:href="#h" x="242.8" y="52.037"/><use xlink:href="#m" x="248.784" y="47.659"/><use xlink:href="#o" x="254.314" y="15.538"/><use xlink:href="#p" x="254.314" y="28.382"/><use xlink:href="#p" x="254.314" y="41.17"/><use xlink:href="#q" x="254.314" y="53.88"/><use xlink:href="#l" x="258.5" y="30.894"/><use xlink:href="#a" x="261.874" y="15.538"/><use xlink:href="#b" x="261.874" y="28.382"/><use xlink:href="#b" x="261.874" y="41.17"/><use xlink:href="#c" x="261.874" y="53.88"/><use xlink:href="#r" x="266.059" y="8.7"/><use xlink:href="#s" x="271.138" y="11.14"/><use xlink:href="#r" x="266.059" y="23.146"/><use xlink:href="#j" x="271.138" y="25.586"/><use xlink:href="#r" x="266.059" y="37.591"/><use xlink:href="#m" x="271.138" y="40.031"/><use xlink:href="#r" x="266.059" y="52.037"/><use xlink:href="#t" x="271.138" y="54.477"/><use xlink:href="#o" x="276.668" y="15.538"/><use xlink:href="#p" x="276.668" y="28.382"/><use xlink:href="#p" x="276.668" y="41.171"/><use xlink:href="#q" x="276.668" y="53.88"/><use xlink:href="#u" x="284.174" y="30.894"/><use xlink:href="#a" x="296.427" y="15.538"/><use xlink:href="#b" x="296.427" y="28.382"/><use xlink:href="#b" x="296.427" y="41.171"/><use xlink:href="#c" x="296.427" y="53.88"/><use xlink:href="#r" x="454.455" y="8.7"/><use xlink:href="#s" x="459.534" y="11.14"/><use xlink:href="#h" x="411.963" y="23.146"/><use xlink:href="#l" x="420.595" y="23.146"/><use xlink:href="#r" x="426.62" y="23.146"/><use xlink:href="#j" x="431.713" y="25.586"/><use xlink:href="#f" x="439.9" y="23.146"/><use xlink:href="#g" x="451.485" y="23.146"/><use xlink:href="#h" x="456.446" y="23.146"/><use xlink:href="#f" x="465.078" y="23.146"/><use xlink:href="#d" x="476.662" y="23.146"/><use xlink:href="#i" x="483.285" y="23.146"/><use xlink:href="#l" x="490.901" y="23.146"/><use xlink:href="#r" x="496.938" y="23.146"/><use xlink:href="#s" x="502.026" y="25.586"/><use xlink:href="#h" x="356.288" y="37.591"/><use xlink:href="#j" x="362.271" y="33.213"/><use xlink:href="#l" x="370.458" y="37.591"/><use xlink:href="#r" x="376.483" y="37.591"/><use xlink:href="#m" x="381.567" y="40.032"/><use xlink:href="#f" x="389.754" y="37.591"/><use xlink:href="#k" x="401.339" y="37.591"/><use xlink:href="#l" x="410.616" y="37.591"/><use xlink:href="#h" x="416.641" y="37.591"/><use xlink:href="#l" x="425.285" y="37.591"/><use xlink:href="#g" x="431.31" y="37.591"/><use xlink:href="#h" x="436.272" y="37.591"/><use xlink:href="#f" x="444.903" y="37.591"/><use xlink:href="#d" x="456.488" y="37.591"/><use xlink:href="#i" x="463.111" y="37.591"/><use xlink:href="#l" x="470.739" y="37.591"/><use xlink:href="#r" x="476.764" y="37.591"/><use xlink:href="#j" x="481.858" y="40.032"/><use xlink:href="#v" x="490.045" y="37.591"/><use xlink:href="#g" x="501.63" y="37.591"/><use xlink:href="#h" x="506.591" y="37.591"/><use xlink:href="#f" x="515.223" y="37.591"/><use xlink:href="#d" x="526.807" y="37.591"/><use xlink:href="#i" x="533.43" y="37.591"/><use xlink:href="#j" x="538.405" y="33.213"/><use xlink:href="#l" x="546.592" y="37.591"/><use xlink:href="#r" x="552.617" y="37.591"/><use xlink:href="#s" x="557.701" y="40.032"/><use xlink:href="#h" x="300.612" y="52.037"/><use xlink:href="#m" x="306.595" y="47.659"/><use xlink:href="#l" x="314.782" y="52.037"/><use xlink:href="#r" x="320.807" y="52.037"/><use xlink:href="#t" x="325.892" y="54.477"/><use xlink:href="#f" x="334.079" y="52.037"/><use xlink:href="#n" x="345.664" y="52.037"/><use xlink:href="#l" x="354.941" y="52.037"/><use xlink:href="#h" x="360.966" y="52.037"/><use xlink:href="#j" x="366.957" y="47.659"/><use xlink:href="#l" x="375.144" y="52.037"/><use xlink:href="#g" x="381.169" y="52.037"/><use xlink:href="#h" x="386.131" y="52.037"/><use xlink:href="#f" x="394.762" y="52.037"/><use xlink:href="#d" x="406.347" y="52.037"/><use xlink:href="#i" x="412.97" y="52.037"/><use xlink:href="#l" x="420.598" y="52.037"/><use xlink:href="#r" x="426.623" y="52.037"/><use xlink:href="#m" x="431.713" y="54.477"/><g><use xlink:href="#v" x="439.9" y="52.037"/></g><g><use xlink:href="#n" x="451.485" y="52.037"/></g><g><use xlink:href="#l" x="460.762" y="52.037"/></g><g><use xlink:href="#h" x="466.787" y="52.037"/></g><g><use xlink:href="#l" x="475.419" y="52.037"/></g><g><use xlink:href="#g" x="481.456" y="52.037"/><use xlink:href="#h" x="486.418" y="52.037"/></g><g><use xlink:href="#f" x="495.049" y="52.037"/></g><g><use xlink:href="#d" x="506.634" y="52.037"/><use xlink:href="#i" x="513.257" y="52.037"/></g><g><use xlink:href="#j" x="518.238" y="47.659"/></g><g><use xlink:href="#l" x="526.425" y="52.037"/></g><g><use xlink:href="#r" x="532.45" y="52.037"/></g><g><use xlink:href="#j" x="537.534" y="54.477"/></g><g><use xlink:href="#f" x="545.721" y="52.037"/></g><g><use xlink:href="#g" x="557.306" y="52.037"/><use xlink:href="#h" x="562.267" y="52.037"/></g><g><use xlink:href="#f" x="570.899" y="52.037"/></g><g><use xlink:href="#d" x="582.483" y="52.037"/><use xlink:href="#i" x="589.106" y="52.037"/></g><g><use xlink:href="#m" x="594.081" y="47.659"/></g><g><use xlink:href="#l" x="602.268" y="52.037"/></g><g><use xlink:href="#r" x="608.293" y="52.037"/></g><g><use xlink:href="#s" x="613.377" y="54.477"/></g><g><use xlink:href="#o" x="618.907" y="15.538"/></g><g><use xlink:href="#p" x="618.907" y="28.382"/></g><g><use xlink:href="#p" x="618.907" y="41.171"/></g><g><use xlink:href="#q" x="618.907" y="53.88"/></g></svg>