<svg xmlns="http://www.w3.org/2000/svg" xmlns:xlink="http://www.w3.org/1999/xlink" width="349pt" height="193pt" viewBox="0 0 349 193"><defs><symbol overflow="visible" id="a"><path d="M.313.031C.671.016 1.046 0 1.405 0c.64 0 1.266.031 1.922.031.563 0 1.125-.125 1.688-.469.953-.546 1.468-1.375 1.468-2.28 0-.516-.156-.907-.484-1.173-.313-.25-.672-.359-1.5-.468.688-.25.969-.391 1.36-.72.53-.484.827-1.03.827-1.64 0-.984-.968-1.547-1.89-1.547-.594 0-1.203.032-1.797.032-.61 0-1.203-.016-1.813-.032l-.03.329.64.03c.281 0 .422.095.422.313 0 .172-.063.547-.11.907L1.063-.657c-.032.22-.188.298-.688.376zm1.671-.515l.61-3.579h1.015c1.235 0 1.829.5 1.829 1.547 0 1.22-.875 2.11-2.063 2.11-.25 0-.594-.016-.984-.047a2.223 2.223 0 0 0-.407-.031zM2.672-4.5l.578-3.266c.328 0 .64-.062.953-.062.969 0 1.453.422 1.453 1.328 0 1.25-.89 2-2.375 2zm0 0"/></symbol><symbol overflow="visible" id="b"><path d="M.172-1.344c0 .922.531 1.469 1.39 1.469.688 0 1.344-.328 2.454-1.219l-.094-.234-.281.203C3-.672 2.42-.437 2-.437c-.578 0-.906-.438-.906-1.172 0-.297.015-.61.093-.954l.97-.234c.202-.047.515-.172.827-.297C4-3.547 4.47-4.094 4.47-4.828c0-.563-.39-.938-1-.938-.781 0-2.078.813-2.563 1.563-.36.594-.734 2.031-.734 2.86zM1.25-2.828l.094-.453c.203-.797.437-1.313.765-1.61.22-.218.61-.375.907-.375.343 0 .562.25.562.625 0 .532-.406 1.094-1.031 1.391-.328.156-.766.297-1.297.422zm.64-3.516h.407l1.937-1.203c.25-.156.329-.266.329-.453 0-.188-.22-.36-.454-.36-.109 0-.25.063-.39.204zm0 0"/></symbol><symbol overflow="visible" id="c"><path d="M-.016-.25l.11.328c.344-.281.672-.39 1.093-.39.297 0 .625.046 1.25.203.72.171 1.094.234 1.407.234.156 0 .25-.016.61-.11.124-.75.218-1.156.359-1.718h-.266l-.266.719c-.078.218-.218.296-.468.296-.266 0-.532-.062-.797-.125-.391-.078-.797-.14-1.032-.14-.375 0-.703.062-1.14.25l4.062-4.563.063-.39-.11-.11-.265.282a.533.533 0 0 1-.407.171c-.406 0-1.03-.109-1.609-.25-.312-.093-.625-.203-.953-.203-.203 0-.438.047-.734.125L.516-4.187h.25l.359-.688c.203-.047.313-.063.469-.063.156 0 .297.016.531.063.406.078.719.125.969.125.437 0 .719-.078 1.11-.281zm0 0"/></symbol><symbol overflow="visible" id="d"><path d="M.406-4.64l.078.234.391-.25c.344-.219.469-.266.578-.266.11 0 .203.11.203.25 0 .094-.047.344-.11.531l-.78 2.86c-.11.39-.157.687-.157.922 0 .28.125.468.36.468.312 0 .75-.265 1.906-1.125l-.11-.218-.312.203c-.36.25-.61.36-.734.36-.078 0-.157-.11-.157-.235 0-.125.016-.219.094-.485l.907-3.625c.062-.203.078-.328.078-.437 0-.203-.094-.313-.297-.313-.266 0-.688.25-1.61.891zm1.656-2.563c0 .297.172.484.47.484.374 0 .64-.343.64-.797 0-.296-.172-.5-.422-.5-.36 0-.688.407-.688.813zm0 0"/></symbol><symbol overflow="visible" id="e"><path d="M.172-1.344c0 .922.531 1.469 1.39 1.469.688 0 1.344-.328 2.454-1.219l-.094-.234-.281.203C3-.672 2.42-.437 2-.437c-.578 0-.906-.438-.906-1.172 0-.297.015-.61.093-.954l.97-.234c.202-.047.515-.172.827-.297C4-3.547 4.47-4.094 4.47-4.828c0-.563-.39-.938-1-.938-.781 0-2.078.813-2.563 1.563-.36.594-.734 2.031-.734 2.86zM1.25-2.828l.094-.453c.203-.797.437-1.313.765-1.61.22-.218.61-.375.907-.375.343 0 .562.25.562.625 0 .532-.406 1.094-1.031 1.391-.328.156-.766.297-1.297.422zm0 0"/></symbol><symbol overflow="visible" id="f"><path d="M.313-4.64l.078.234.39-.25c.328-.203.469-.266.563-.266.125 0 .203.11.203.266 0 .687-.5 3.156-.984 4.687L.688.11c.25-.078.515-.14.796-.187L1.797-1.5c.219-1 .484-1.625 1.016-2.313.406-.53.718-.78.984-.78.187 0 .297.062.437.234h.172c.032-.454.094-.844.188-1.329-.14-.062-.188-.078-.25-.078-.36 0-.735.297-1.172.907-.406.578-.813 1.156-1.11 1.796l.297-1.5c.063-.265.157-.546.157-.812 0-.25-.094-.39-.282-.39-.25 0-.703.25-1.593.89zm0 0"/></symbol><symbol overflow="visible" id="B"><path d="M.25-4.203h.266l.203-.5c.078-.203.328-.344.61-.344.218 0 .437.031.671.031.25 0 .406-.015.703-.046-.11.156-.234.28-.36.421C1.267-3.375.86-2.516.86-1.5c0 .969.422 1.625 1.047 1.625.766 0 1.39-.656 2.282-2.36-.11.532-.141.829-.141 1.094 0 .766.344 1.266.875 1.266.969 0 2.219-1.203 2.969-2.844.265-.594.468-1.39.468-1.875 0-.672-.312-1.172-.75-1.172a.545.545 0 0 0-.39.141l-.594.563.125.234a.55.55 0 0 1 .328-.11c.328 0 .516.282.516.75 0 1.735-1.157 3.72-2.172 3.72-.36 0-.61-.47-.61-1.141a8.2 8.2 0 0 1 .25-1.86l.625-2.203-.078-.094-.89.266-.344 1.781a5.727 5.727 0 0 1-.656 1.86C3.234-.953 2.78-.47 2.422-.47c-.406 0-.688-.469-.688-1.156 0-1.422.485-2.578 1.672-3.922l-.125-.219c-.234.11-.39.141-.719.141-.5 0-.984-.047-1.468-.078-.157-.016-.25.031-.39.078-.173.328-.298.766-.454 1.422zm0 0"/></symbol><symbol overflow="visible" id="C"><path d="M.125-.031l.078.14.828-.187c.188-1.375.39-2.11.735-2.75.53-.969 1.765-2.125 2.28-2.125.157 0 .25.11.25.266 0 .218-.062.671-.171 1.062l-.61 2.344c-.109.437-.156.703-.156.922 0 .28.125.468.36.468.312 0 .734-.25 1.906-1.125l-.11-.218-.312.203c-.344.234-.61.36-.734.36-.078 0-.157-.11-.157-.235 0-.125.016-.219.094-.485l.75-3.062c.078-.297.14-.672.14-.875 0-.266-.14-.438-.343-.438-.406 0-1.14.407-1.89 1.032-.422.343-.61.578-1.172 1.265l-.235.297 1.172-5.453-.156-.14c-.61.312-1.047.421-1.906.5l-.047.25h.578c.281 0 .406.093.406.296 0 .094-.016.203-.031.282l-.5 2.796C.844-2.828.375-.78.125-.03zm0 0"/></symbol><symbol overflow="visible" id="g"><path d="M4.11-7.61a.735.735 0 0 1-.188-.14c-.063-.063-.11-.11-.14-.188-1.47 1.47-2.345 3.032-2.345 4.563v.781c0 1.516.875 3.078 2.344 4.547a.735.735 0 0 1 .14-.187.735.735 0 0 1 .188-.141C2.781.281 2.156-1.203 2.156-2.594v-.781c0-1.39.625-2.89 1.953-4.234zm0 0"/></symbol><symbol overflow="visible" id="h"><path d="M6.14-1.016l-.109-.218-.312.203c-.36.234-.61.36-.735.36-.078 0-.156-.11-.156-.235 0-.063.016-.188.031-.235l.782-3.312a4.47 4.47 0 0 0 .125-.875c0-.281-.125-.438-.36-.438-.5 0-1.328.454-2.031 1.11-.453.422-.797.828-1.422 1.703l.469-1.922c.047-.219.062-.36.062-.484 0-.266-.093-.407-.265-.407-.266 0-.719.266-1.594.891l-.344.234.094.235.375-.25c.438-.282.484-.297.563-.297.14 0 .218.125.218.297 0 .61-.484 2.922-.984 4.625l.094.14c.296-.078.562-.156.828-.203.234-1.515.484-2.281 1.031-3.11.656-1 1.547-1.75 2.078-1.75.125 0 .203.11.203.298 0 .203-.031.453-.125.843L4.031-1.28c-.11.437-.156.718-.156.906 0 .297.125.484.36.484.312 0 .734-.25 1.906-1.125zm0 0"/></symbol><symbol overflow="visible" id="i"><path d="M2.61-1.297l-.172-.172c-.329.11-.532.172-1.172.36C1.187-.203.89.578.187 1.719l.172.14.485-.234c.969-1.25 1.422-2 1.765-2.922zm0 0"/></symbol><symbol overflow="visible" id="j"><path d="M3.703-5.266c-.453.047-.86.079-1.312.079.187-1.125.328-1.704.53-2.36l-.124-.172c-.235.14-.563.282-.938.422l-.296 2.031c-.516.25-.829.391-1.047.454l-.032.156H1.5L.828-1.281c-.062.297-.156.593-.156.906 0 .297.125.484.36.484.421 0 .827-.234 1.765-1 .219-.156.14-.109.375-.296l-.125-.22-.531.376c-.36.25-.594.36-.735.36-.093 0-.156-.095-.156-.235 0-.313.14-1.25.516-3.016l.156-.734h1.281zm0 0"/></symbol><symbol overflow="visible" id="k"><path d="M3.64-2.594v-.781c0-1.531-.874-3.094-2.343-4.563-.047.079-.094.125-.156.188a.427.427 0 0 1-.188.14c1.328 1.344 1.969 2.844 1.969 4.235v.781c0 1.39-.64 2.875-1.969 4.219.078.031.14.078.188.14.062.063.109.126.156.188C2.766.484 3.64-1.078 3.64-2.594zm0 0"/></symbol><symbol overflow="visible" id="l"><path d="M8.125-3.938c-.016-.124-.031-.25-.031-.359 0-.125.015-.25.031-.36H.953c.031.11.031.235.031.36 0 .11 0 .234-.03.36zm0 2.626c-.016-.125-.031-.235-.031-.36s.015-.234.031-.36H.953a1.4 1.4 0 0 1 .031.36c0 .125 0 .234-.03.36zm0 0"/></symbol><symbol overflow="visible" id="p"><path d="M13.938 2.61h-.485l-.078.796c-.094.922-.297 1-3.766 1H2.297l5.187-7.812-4.812-7.578h6.015c3.344 0 3.72.109 3.766.656l.078 1h.485c-.032-.516-.047-.766-.047-1.14 0-.36.015-.61.047-1.141l-8.844.046-3.156-.046-.063.406 5.328 8.406L.953 5.234v.391l7.203-.047 5.703.047c0-1.203 0-2.266.079-3.016zm0 0"/></symbol><symbol overflow="visible" id="t"><path d="M8.36-4.594c0-.672-.313-1.172-.75-1.172a.545.545 0 0 0-.391.141l-.594.563.125.234a.55.55 0 0 1 .328-.11c.328 0 .516.282.516.75 0 1.735-1.157 3.72-2.172 3.72-.36 0-.61-.47-.61-1.141a8.2 8.2 0 0 1 .25-1.86l.625-2.203-.078-.094-.89.266-.344 1.781a5.727 5.727 0 0 1-.656 1.86C3.234-.953 2.78-.47 2.422-.47c-.406 0-.688-.469-.688-1.156 0-1.422.485-2.578 1.672-3.922l-.125-.219c-.234.11-.39.141-.719.141-.5 0-.984-.047-1.468-.078-.157-.016-.25.031-.39.078-.173.328-.298.766-.454 1.422h.266l.203-.5c.078-.203.328-.344.61-.344.218 0 .437.031.671.031.25 0 .406-.015.703-.046-.11.156-.234.28-.36.421C1.267-3.375.86-2.516.86-1.5c0 .969.422 1.625 1.047 1.625.766 0 1.39-.656 2.282-2.36-.11.532-.141.829-.141 1.094 0 .766.344 1.266.875 1.266.969 0 2.219-1.203 2.969-2.844.265-.594.468-1.39.468-1.875zm0 0"/></symbol><symbol overflow="visible" id="u"><path d="M5 .031v-.36l-.625-.03c-.656-.032-.781-.172-.781-.782v-7.093l-.156-.063c-.782.406-1.626.766-2.72 1.156l.079.5h.125l1.547-.687.031-.016c.063 0 .094.11.094.407v5.796c0 .61-.125.75-.781.782l-.672.03v.36L3.125 0zm0 0"/></symbol><symbol overflow="visible" id="v"><path d="M8.125-2.625c-.016-.125-.031-.25-.031-.36 0-.124.015-.25.031-.359H.953c.031.11.031.235.031.36 0 .109 0 .234-.03.359zm0 0"/></symbol><symbol overflow="visible" id="w"><path d="M6.688-6.719c0-.984-.97-1.547-1.891-1.547-.594 0-1.203.032-1.797.032l-1.813-.032-.03.329.64.03c.281 0 .422.095.422.313 0 .172-.063.547-.11.907L1.063-.657c-.032.22-.188.298-.688.376L.312.03C.672.016 1.047 0 1.407 0c.64 0 1.266.031 1.922.031.563 0 1.125-.125 1.688-.469.953-.546 1.468-1.375 1.468-2.28 0-.516-.156-.907-.484-1.173-.313-.25-.672-.359-1.5-.468.688-.25.969-.391 1.36-.72.53-.484.827-1.03.827-1.64zm-1.25 4.203c0 1.22-.875 2.11-2.063 2.11-.25 0-.594-.016-.984-.047a2.223 2.223 0 0 0-.407-.031l.61-3.579h1.015c1.235 0 1.829.5 1.829 1.547zM5.655-6.5c0 1.25-.89 2-2.375 2h-.61l.579-3.266c.328 0 .64-.062.953-.062.969 0 1.453.422 1.453 1.328zm0 0"/></symbol><symbol overflow="visible" id="x"><path d="M8.125-2.625c-.016-.125-.031-.25-.031-.36 0-.124.015-.25.031-.359H4.906v-3.234c-.125.031-.25.047-.36.047-.124 0-.25-.016-.359-.047v3.234H.954c.031.11.031.235.031.36 0 .109 0 .234-.03.359h3.234V.594c.109-.016.234-.031.359-.031.11 0 .234.015.36.03v-3.218zm0 0"/></symbol><symbol overflow="visible" id="y"><path d="M5.36-5.656a2.204 2.204 0 0 0-.563-.11c-.797 0-1.781.922-3.281 3.016l1.28-5.875-.14-.14c-.625.312-1.047.421-1.922.5l-.046.25h.578c.28 0 .406.093.406.296 0 .094-.016.203-.016.282l-.578 3.203C.922-3.328.718-2.516.094-.016l.11.125L1-.094l.281-1.484c.11-.578.39-1.11.797-1.516C2.906-.704 3.281.11 3.578.11c.156 0 .453-.156.969-.53l.562-.376-.093-.234-.516.297c-.172.093-.25.109-.36.109-.109 0-.202-.063-.296-.266-.422-.765-.688-1.421-1.156-2.89l.171-.156c.72-.735 1.282-1.032 1.875-1.032.094 0 .22.016.422.063zm0 0"/></symbol><symbol overflow="visible" id="z"><path d="M2.875-1.016l-.11-.218-.312.203c-.36.25-.61.36-.734.36-.078 0-.157-.11-.157-.235 0-.125.016-.219.094-.485l.907-3.625c.062-.203.078-.328.078-.437 0-.203-.094-.313-.297-.313-.266 0-.688.25-1.61.891l-.328.234.078.235.391-.25c.344-.219.469-.266.578-.266.11 0 .203.11.203.25 0 .094-.047.344-.11.531l-.78 2.86c-.11.39-.157.687-.157.922 0 .28.125.468.36.468.312 0 .75-.265 1.906-1.125zm.297-6.5c0-.296-.172-.5-.422-.5-.36 0-.688.407-.688.813 0 .297.172.484.47.484.374 0 .64-.343.64-.797zm0 0"/></symbol><symbol overflow="visible" id="D"><path d="M5.563-4.438c0-.796-.282-1.328-.704-1.328-.515 0-1.125.329-1.765.875-.469.438-.735.735-1.156 1.438l.28-1.422c.048-.203.063-.39.063-.531 0-.219-.094-.36-.265-.36-.25 0-.704.25-1.579.891l-.343.234.078.235.39-.25c.329-.203.47-.266.579-.266.109 0 .203.11.203.266 0 .11-.032.343-.047.453L.594-.093.016 2.78l-.094.453.078.063c.25-.078.484-.14.875-.203l.5-3.125.11.031c.312.11.484.125.624.125.657 0 2.032-.86 2.547-1.625.5-.719.907-2.031.907-2.938zm-.86.188c0 .969-.484 2.39-1.125 3.297-.234.344-.61.515-1.11.515-.359 0-.655-.078-.968-.265l.203-1.266C1.97-3.5 3.25-5.062 4.25-5.062c.297 0 .453.25.453.812zm0 0"/></symbol><symbol overflow="visible" id="F"><path d="M6.969-17.094c-.078-.031-.125-.078-.188-.14a.735.735 0 0 1-.14-.188c-3.063 3.047-4.938 7.219-4.938 12.063v4.75c0 4.828 1.875 9 4.938 12.062a.427.427 0 0 1 .14-.187c.063-.063.11-.11.188-.157C4.047 8.172 2.672 4.031 2.672-.609v-4.75c0-4.641 1.375-8.797 4.297-11.735zm0 0"/></symbol><symbol overflow="visible" id="G"><path d="M6.406-.61v-4.75c0-4.843-1.86-9.015-4.922-12.062a.735.735 0 0 1-.14.188.595.595 0 0 1-.203.14C4.094-14.156 5.453-10 5.453-5.359v4.75c0 4.64-1.36 8.78-4.312 11.718.078.047.14.094.203.157.062.046.11.109.14.187C4.547 8.391 6.406 4.22 6.406-.609zm0 0"/></symbol><symbol overflow="visible" id="H"><path d="M4.469-8.563a.735.735 0 0 1-.188-.14.735.735 0 0 1-.14-.188C2.484-7.25 1.484-5.406 1.484-3.547v1.125c0 1.844 1 3.688 2.657 5.344a.595.595 0 0 1 .14-.203l.188-.14C2.953 1.061 2.25-.72 2.25-2.422v-1.126c0-1.719.703-3.5 2.219-5.015zm0 0"/></symbol><symbol overflow="visible" id="I"><path d="M4.125-5.438c-.469-.234-.797-.328-1.203-.328-.61 0-1.344.344-1.922.938-.313.328-.438.625-.438 1.047 0 .672.375 1.062 1.157 1.219l.75.14c.531.094.719.297.719.766 0 .797-.547 1.312-1.391 1.312-.438 0-.797-.14-1.125-.422v-1H.375C.312-1.156.235-.734.109-.187.563.03.97.124 1.391.124c.578 0 1.125-.203 1.734-.688.61-.484.875-.921.875-1.515 0-.64-.375-1-1.281-1.156l-.5-.094c-.719-.14-.953-.344-.953-.828 0-.64.53-1.125 1.218-1.125.485 0 .954.218 1.141.531v.656h.266c.046-.406.109-.734.234-1.343zm0 0"/></symbol><symbol overflow="visible" id="J"><path d="M3.969-2.422v-1.125c0-1.86-1-3.703-2.656-5.344a.735.735 0 0 1-.141.188.735.735 0 0 1-.188.14c1.516 1.516 2.22 3.297 2.22 5.016v1.125c0 1.703-.704 3.485-2.22 5l.188.14c.062.063.11.126.14.204C2.97 1.266 3.97-.578 3.97-2.422zm0 0"/></symbol><symbol overflow="visible" id="m"><path d="M5.047-.75l-.11-.156-.234.14c-.297.172-.5.266-.594.266-.062 0-.125-.078-.125-.172 0-.047 0-.14.016-.172l.64-2.453c.063-.25.094-.5.094-.64 0-.204-.093-.329-.28-.329-.407 0-1.079.344-1.657.829-.36.312-.625.609-1.125 1.25l.36-1.422c.046-.157.062-.266.062-.36 0-.187-.078-.297-.219-.297-.203 0-.578.204-1.281.657l-.281.171.078.188.312-.188c.344-.218.375-.218.453-.218.094 0 .172.078.172.219 0 .453-.406 2.156-.797 3.421l.063.094c.25-.062.469-.11.687-.156.172-1.11.39-1.688.828-2.297.532-.734 1.235-1.281 1.672-1.281.094 0 .156.078.156.203 0 .156-.015.344-.093.625L3.328-.953c-.078.328-.125.531-.125.672 0 .234.11.36.297.36.25 0 .594-.188 1.547-.829zm0 0"/></symbol><symbol overflow="visible" id="n"><path d="M6.016-1.953a1.368 1.368 0 0 1-.032-.25c0-.094.016-.188.032-.266H3.625v-2.39c-.094.015-.172.015-.266.015-.093 0-.171 0-.265-.015v2.39H.704c.015.078.03.172.03.266 0 .078-.015.172-.03.25h2.39v2.39c.094-.015.172-.015.265-.015.094 0 .172 0 .266.016v-2.391zm0 0"/></symbol><symbol overflow="visible" id="o"><path d="M4.125.031v-.265l-.516-.032c-.515-.03-.625-.125-.625-.578v-5.25L2.86-6.14c-.625.297-1.312.563-2.203.86l.078.375h.094l1.25-.516.031-.016c.047 0 .079.094.079.297v4.297c0 .453-.11.547-.626.578l-.546.032V.03L2.594 0zm0 0"/></symbol><symbol overflow="visible" id="q"><path d="M2.422-.75l-.11-.156-.25.14c-.28.188-.484.266-.578.266-.078 0-.125-.078-.125-.172 0-.094 0-.156.063-.36l.734-2.687a.983.983 0 0 0 .063-.312c0-.157-.078-.235-.235-.235-.218 0-.562.188-1.296.657l-.266.171.062.188.313-.188c.265-.171.375-.203.453-.203.11 0 .172.079.172.188 0 .062-.047.25-.078.39l-.64 2.11c-.079.297-.126.515-.126.687 0 .22.11.344.281.344.266 0 .625-.187 1.563-.828zm.234-4.813c0-.218-.14-.359-.344-.359-.296 0-.562.281-.562.594 0 .219.14.36.375.36.313 0 .531-.266.531-.595zm0 0"/></symbol><symbol overflow="visible" id="r"><path d="M6.016-2.922a1.376 1.376 0 0 1-.032-.265c0-.079.016-.172.032-.266H.703c.016.094.031.187.031.265 0 .094-.015.188-.03.266zm0 1.953c-.016-.094-.032-.187-.032-.265 0-.094.016-.188.032-.266H.703c.016.078.031.172.031.266 0 .078-.015.171-.03.265zm0 0"/></symbol><symbol overflow="visible" id="s"><path d="M4.578-3.234c0-1.938-.64-2.86-1.953-2.86-1.5 0-2.25 1.094-2.25 3.235C.375-1.83.563-.938.906-.5c.344.422.875.672 1.469.672 1.469 0 2.203-1.14 2.203-3.406zm-.812.437c0 1.89-.375 2.672-1.25 2.672-.938 0-1.344-.906-1.344-3.063 0-1.859.36-2.593 1.281-2.593.938 0 1.313.86 1.313 2.984zm0 0"/></symbol><symbol overflow="visible" id="A"><path d="M4.406-4.188a1.836 1.836 0 0 0-.453-.078c-.64 0-1.437.688-2.64 2.235l1.03-4.36-.109-.093c-.515.234-.859.312-1.546.375l-.047.187h.468c.235 0 .329.063.329.203 0 .078 0 .157-.016.219L.953-3.125C.828-2.469.656-1.859.172-.015L.25.077l.656-.156.219-1.094c.078-.422.313-.812.64-1.125.673 1.781.97 2.375 1.22 2.375.124 0 .343-.11.78-.39l.438-.282-.078-.172-.406.22c-.14.062-.203.093-.281.093-.11 0-.172-.063-.25-.203-.344-.578-.547-1.047-.938-2.14l.14-.126c.594-.531 1.032-.75 1.516-.75a2.1 2.1 0 0 1 .344.047zm0 0"/></symbol><symbol overflow="visible" id="E"><path d="M6.016-1.953a1.368 1.368 0 0 1-.032-.25c0-.094.016-.188.032-.266H.703c.016.078.031.172.031.266 0 .078-.015.172-.03.25zm0 0"/></symbol></defs><use xlink:href="#a" x=".69" y="19.692"/><use xlink:href="#b" x="7.995" y="19.692"/><use xlink:href="#c" x="12.645" y="19.692"/><use xlink:href="#d" x="17.953" y="19.692"/><use xlink:href="#e" x="21.277" y="19.692"/><use xlink:href="#f" x="25.927" y="19.692"/><use xlink:href="#g" x="30.577" y="19.692"/><use xlink:href="#h" x="35.646" y="19.692"/><use xlink:href="#i" x="42.293" y="19.692"/><use xlink:href="#j" x="47.266" y="19.692"/><use xlink:href="#k" x="51.307" y="19.692"/><use xlink:href="#l" x="59.7" y="19.692"/><use xlink:href="#m" x="72.113" y="6.207"/><use xlink:href="#n" x="77.651" y="6.207"/><use xlink:href="#o" x="84.375" y="6.207"/><use xlink:href="#p" x="73.295" y="19.692"/><use xlink:href="#q" x="73.431" y="32.853"/><use xlink:href="#r" x="76.333" y="32.853"/><use xlink:href="#s" x="83.056" y="32.853"/><use xlink:href="#t" x="91.366" y="19.692"/><use xlink:href="#q" x="99.998" y="22.466"/><use xlink:href="#g" x="103.398" y="19.692"/><use xlink:href="#u" x="108.467" y="19.692"/><use xlink:href="#v" x="117.099" y="19.692"/><use xlink:href="#j" x="128.839" y="19.692"/><use xlink:href="#k" x="132.88" y="19.692"/><use xlink:href="#w" x="137.949" y="19.692"/><use xlink:href="#m" x="145.258" y="15.46"/><use xlink:href="#q" x="145.259" y="23.379"/><use xlink:href="#g" x="151.295" y="19.692"/><use xlink:href="#j" x="156.364" y="19.692"/><use xlink:href="#k" x="160.393" y="19.692"/><use xlink:href="#x" x="168.128" y="19.692"/><use xlink:href="#m" x="179.873" y="6.207"/><use xlink:href="#n" x="185.411" y="6.207"/><use xlink:href="#o" x="192.135" y="6.207"/><use xlink:href="#p" x="181.055" y="19.692"/><use xlink:href="#q" x="181.192" y="32.853"/><use xlink:href="#r" x="184.085" y="32.853"/><use xlink:href="#s" x="190.808" y="32.853"/><use xlink:href="#t" x="199.126" y="19.692"/><use xlink:href="#q" x="207.758" y="22.466"/><use xlink:href="#j" x="211.158" y="19.692"/><use xlink:href="#w" x="215.187" y="19.692"/><use xlink:href="#m" x="222.503" y="15.46"/><use xlink:href="#q" x="222.503" y="23.379"/><use xlink:href="#g" x="228.54" y="19.692"/><use xlink:href="#j" x="233.609" y="19.692"/><use xlink:href="#k" x="237.638" y="19.692"/><use xlink:href="#l" x="59.706" y="59.509"/><use xlink:href="#m" x="72.113" y="46.023"/><use xlink:href="#n" x="77.651" y="46.023"/><use xlink:href="#o" x="84.375" y="46.023"/><use xlink:href="#p" x="73.295" y="59.509"/><use xlink:href="#q" x="73.431" y="72.669"/><use xlink:href="#r" x="76.333" y="72.669"/><use xlink:href="#s" x="83.056" y="72.669"/><use xlink:href="#t" x="91.366" y="59.509"/><use xlink:href="#q" x="99.998" y="62.283"/><use xlink:href="#y" x="104.593" y="50.9"/><use xlink:href="#v" x="112.95" y="50.9"/><use xlink:href="#z" x="124.69" y="50.9"/><path d="M104.594 56.52h23.617" fill="none" stroke-width=".717" stroke="#000" stroke-miterlimit="10"/><use xlink:href="#y" x="113.55" y="67.554"/><use xlink:href="#w" x="129.406" y="59.509"/><use xlink:href="#A" x="136.711" y="55.276"/><use xlink:href="#q" x="136.711" y="63.196"/><use xlink:href="#g" x="141.871" y="59.509"/><use xlink:href="#j" x="146.94" y="59.509"/><use xlink:href="#k" x="150.969" y="59.509"/><use xlink:href="#x" x="158.704" y="59.509"/><use xlink:href="#m" x="170.45" y="46.023"/><use xlink:href="#n" x="175.988" y="46.023"/><use xlink:href="#o" x="182.712" y="46.023"/><use xlink:href="#p" x="171.632" y="59.509"/><use xlink:href="#q" x="171.768" y="72.669"/><use xlink:href="#r" x="174.661" y="72.669"/><use xlink:href="#s" x="181.384" y="72.669"/><use xlink:href="#t" x="189.703" y="59.509"/><use xlink:href="#q" x="198.334" y="62.283"/><use xlink:href="#z" x="202.93" y="50.9"/><use xlink:href="#x" x="209.099" y="50.9"/><use xlink:href="#u" x="220.839" y="50.9"/><path d="M202.93 56.52h23.89" fill="none" stroke-width=".717" stroke="#000" stroke-miterlimit="10"/><use xlink:href="#y" x="212.024" y="67.554"/><use xlink:href="#w" x="228.017" y="59.509"/><use xlink:href="#A" x="235.322" y="55.276"/><use xlink:href="#q" x="235.322" y="63.409"/><use xlink:href="#n" x="238.215" y="63.409"/><use xlink:href="#o" x="244.938" y="63.409"/><use xlink:href="#g" x="250.444" y="59.509"/><use xlink:href="#j" x="255.513" y="59.509"/><use xlink:href="#k" x="259.542" y="59.509"/><use xlink:href="#i" x="264.611" y="59.509"/><use xlink:href="#B" x="269.604" y="59.509"/><use xlink:href="#C" x="278.236" y="59.509"/><use xlink:href="#e" x="284.213" y="59.509"/><use xlink:href="#f" x="288.864" y="59.509"/><use xlink:href="#e" x="293.227" y="59.509"/><use xlink:href="#y" x="300.855" y="59.509"/><use xlink:href="#l" x="309.869" y="59.509"/><use xlink:href="#h" x="322.279" y="59.509"/><use xlink:href="#x" x="331.58" y="59.509"/><use xlink:href="#u" x="343.332" y="59.509"/><use xlink:href="#l" x="59.706" y="99.326"/><use xlink:href="#m" x="72.113" y="85.84"/><use xlink:href="#n" x="77.651" y="85.84"/><use xlink:href="#o" x="84.375" y="85.84"/><use xlink:href="#p" x="73.295" y="99.325"/><use xlink:href="#q" x="73.431" y="112.486"/><use xlink:href="#r" x="76.333" y="112.486"/><use xlink:href="#s" x="83.056" y="112.486"/><use xlink:href="#t" x="91.366" y="99.326"/><use xlink:href="#q" x="99.998" y="102.1"/><use xlink:href="#y" x="104.593" y="90.717"/><use xlink:href="#v" x="112.95" y="90.717"/><use xlink:href="#z" x="124.69" y="90.717"/><path d="M104.594 96.336h23.617" fill="none" stroke-width=".717" stroke="#000" stroke-miterlimit="10"/><use xlink:href="#y" x="113.55" y="107.371"/><use xlink:href="#w" x="129.406" y="99.326"/><use xlink:href="#A" x="136.711" y="95.093"/><use xlink:href="#q" x="136.711" y="103.013"/><use xlink:href="#g" x="141.871" y="99.326"/><use xlink:href="#j" x="146.94" y="99.326"/><use xlink:href="#k" x="150.969" y="99.326"/><use xlink:href="#x" x="158.704" y="99.326"/><use xlink:href="#m" x="170.45" y="85.84"/><use xlink:href="#n" x="175.988" y="85.84"/><use xlink:href="#o" x="182.712" y="85.84"/><use xlink:href="#p" x="171.632" y="99.325"/><use xlink:href="#q" x="171.768" y="112.486"/><use xlink:href="#r" x="174.661" y="112.486"/><use xlink:href="#s" x="181.384" y="112.486"/><use xlink:href="#D" x="189.703" y="99.326"/><use xlink:href="#q" x="195.68" y="102.1"/><use xlink:href="#E" x="198.582" y="102.1"/><use xlink:href="#o" x="205.305" y="102.1"/><use xlink:href="#z" x="213.091" y="90.717"/><path d="M211.996 96.336h5.703" fill="none" stroke-width=".717" stroke="#000" stroke-miterlimit="10"/><use xlink:href="#y" x="211.998" y="107.371"/><use xlink:href="#w" x="218.896" y="99.326"/><use xlink:href="#A" x="226.2" y="95.093"/><use xlink:href="#q" x="226.2" y="103.013"/><use xlink:href="#g" x="231.361" y="99.326"/><use xlink:href="#j" x="236.43" y="99.326"/><use xlink:href="#k" x="240.459" y="99.326"/><use xlink:href="#l" x="59.706" y="139.142"/><use xlink:href="#m" x="72.113" y="125.657"/><use xlink:href="#n" x="77.651" y="125.657"/><use xlink:href="#o" x="84.375" y="125.657"/><use xlink:href="#p" x="73.295" y="139.142"/><use xlink:href="#q" x="73.431" y="152.303"/><use xlink:href="#r" x="76.333" y="152.303"/><use xlink:href="#s" x="83.056" y="152.303"/><use xlink:href="#F" x="91.366" y="139.142"/><use xlink:href="#t" x="99.484" y="139.142"/><use xlink:href="#q" x="108.115" y="141.916"/><use xlink:href="#y" x="112.711" y="130.534"/><use xlink:href="#v" x="121.068" y="130.534"/><g><use xlink:href="#z" x="132.808" y="130.534"/></g><path d="M112.71 136.152h23.618" fill="none" stroke-width=".717" stroke="#000" stroke-miterlimit="10"/><g><use xlink:href="#y" x="121.668" y="147.188"/></g><g><use xlink:href="#x" x="140.18" y="139.142"/></g><g><use xlink:href="#D" x="151.92" y="139.142"/></g><g><use xlink:href="#q" x="157.901" y="141.916"/></g><g><use xlink:href="#E" x="160.794" y="141.916"/><use xlink:href="#o" x="167.517" y="141.916"/></g><g><use xlink:href="#z" x="175.312" y="130.534"/></g><path d="M174.219 136.152h5.703" fill="none" stroke-width=".717" stroke="#000" stroke-miterlimit="10"/><g><use xlink:href="#y" x="174.218" y="147.188"/></g><g><use xlink:href="#G" x="181.117" y="139.142"/></g><g><use xlink:href="#w" x="191.219" y="139.142"/></g><g><use xlink:href="#A" x="198.531" y="134.91"/></g><g><use xlink:href="#q" x="198.531" y="142.83"/></g><g><use xlink:href="#g" x="203.692" y="139.142"/><use xlink:href="#j" x="208.761" y="139.142"/></g><g><use xlink:href="#k" x="212.79" y="139.142"/></g><g><use xlink:href="#l" x="59.706" y="178.959"/></g><g><use xlink:href="#m" x="72.113" y="165.474"/><use xlink:href="#n" x="77.651" y="165.474"/><use xlink:href="#o" x="84.375" y="165.474"/></g><g><use xlink:href="#p" x="73.295" y="178.959"/></g><g><use xlink:href="#q" x="73.431" y="192.12"/></g><g><use xlink:href="#r" x="76.333" y="192.12"/><use xlink:href="#s" x="83.056" y="192.12"/></g><g><use xlink:href="#H" x="91.366" y="178.959"/><use xlink:href="#t" x="96.818" y="178.959"/></g><g><use xlink:href="#q" x="105.449" y="181.733"/></g><g><use xlink:href="#g" x="108.849" y="178.959"/><use xlink:href="#u" x="113.918" y="178.959"/></g><g><use xlink:href="#v" x="122.55" y="178.959"/></g><g><use xlink:href="#I" x="134.29" y="178.959"/><use xlink:href="#k" x="138.94" y="178.959"/></g><g><use xlink:href="#x" x="146.663" y="178.959"/></g><g><use xlink:href="#D" x="158.403" y="178.959"/></g><g><use xlink:href="#q" x="164.393" y="181.733"/></g><g><use xlink:href="#E" x="167.286" y="181.733"/><use xlink:href="#o" x="174.009" y="181.733"/></g><g><use xlink:href="#I" x="179.515" y="178.959"/><use xlink:href="#J" x="184.166" y="178.959"/></g><g><use xlink:href="#w" x="191.602" y="178.959"/></g><g><use xlink:href="#A" x="198.914" y="174.727"/></g><g><use xlink:href="#q" x="198.914" y="182.646"/></g><g><use xlink:href="#g" x="204.074" y="178.959"/><use xlink:href="#j" x="209.143" y="178.959"/></g><g><use xlink:href="#k" x="213.184" y="178.959"/><use xlink:href="#i" x="218.253" y="178.959"/></g><g><use xlink:href="#B" x="223.235" y="178.959"/><use xlink:href="#C" x="231.867" y="178.959"/><use xlink:href="#e" x="237.844" y="178.959"/><use xlink:href="#f" x="242.495" y="178.959"/></g><g><use xlink:href="#e" x="246.847" y="178.959"/></g><g><use xlink:href="#I" x="254.486" y="178.959"/></g><g><use xlink:href="#l" x="262.448" y="178.959"/></g><g><use xlink:href="#z" x="277.154" y="170.35"/></g><path d="M276.059 175.969h5.703" fill="none" stroke-width=".717" stroke="#000" stroke-miterlimit="10"/><g><use xlink:href="#y" x="276.06" y="187.005"/></g></svg>