<svg xmlns="http://www.w3.org/2000/svg" xmlns:xlink="http://www.w3.org/1999/xlink" width="121pt" height="84" viewBox="0 0 121 63"><defs><symbol overflow="visible" id="a"><path d="M5.125-.094v-.484l-.75-.047c-.656-.031-.64-.031-.64-.656v-7.172l-.313-.125c-.875.469-1.61.781-2.86 1.219l.125.718h.235l1.547-.687.031-.016c.063 0-.047-.015-.047.266v5.797c0 .625.016.625-.64.656L1-.578v.625L3.125 0l2 .047zm0 0"/></symbol><symbol overflow="visible" id="c"><path d="M8.266-4.078a1.419 1.419 0 0 1-.047-.36c0-.109.015-.234.062-.484h-7.5c.063.25.063.375.063.484 0 .125 0 .235-.063.5h7.5zm0 2.625a1.332 1.332 0 0 1-.047-.36c0-.109.015-.234.062-.484h-7.5c.063.25.063.375.063.485 0 .125 0 .25-.063.5h7.5zm0 0"/></symbol><symbol overflow="visible" id="d"><path d="M8.266-2.766a1.332 1.332 0 0 1-.047-.359c0-.11.015-.234.062-.484h-3.25v-3.266c-.25.063-.375.078-.484.078-.125 0-.25-.016-.5-.078v3.266H.78c.063.25.063.375.063.484 0 .125 0 .25-.063.5h3.266V.641c.25-.063.375-.079.5-.079.11 0 .234.016.484.079v-3.266h3.25zm0 0"/></symbol><symbol overflow="visible" id="e"><path d="M5.719-.094c-.016-.25-.016-.375-.016-.547 0-.14 0-.265.031-.671l-4.28.125.093.234 2.187-2.313C4.891-4.5 5.281-5.25 5.281-6.14 5.281-7.516 4.22-8.5 2.703-8.5c-.86 0-1.562.281-2.172.906L.312-5.766h.594l.188-.687c.203-.688.5-.86 1.297-.86 1.03 0 1.546.516 1.546 1.532 0 .89-.468 1.687-1.828 3.11L.047-.454v.5L2.859 0l2.875.047zm0 0"/></symbol><symbol overflow="visible" id="f"><path d="M5.656-2.813c0-.562-.281-1.171-.703-1.468-.297-.219-.672-.344-.953-.407.734-.562 1.125-1.203 1.125-1.906 0-1.062-1.016-1.906-2.344-1.906-.812 0-1.453.266-2.047.86L.328-5.954h.64l.266-.797c.125-.406.75-.688 1.375-.688.766 0 1.266.5 1.266 1.25 0 .907-.563 1.532-1.406 1.532-.11 0-.469.187-.469.187l-.25-.093-.14.671.202.188C2.297-3.938 2.516-4 2.845-4c1 0 1.422.516 1.422 1.594 0 1.219-.579 1.89-1.704 1.89-.546 0-.937-.14-1.296-.468C.984-1.25.859-1.438.578-2.25l-.562.219C.28-1.234.375-.797.469-.11c.765.25 1.281.343 1.734.343.953 0 2.14-.562 2.813-1.375.406-.484.64-1.109.64-1.671zm0 0"/></symbol><symbol overflow="visible" id="g"><path d="M5.766-.094v-.484l-.704-.047c-.578-.031-.578-.063-.578-.781v-.75c.579 0 .829 0 1.282.062v-1L5.734-3s-.671-.188-1.062-.188h-.188v-1.53c0-2.126.016-3.157.094-3.72l-.281-.124-.984.343-3.438 5.64.203.423h3.125v.75c0 .718.016.765-.578.781l-.875.047v.625L3.813 0l1.953.047zM3.344-3.188H1l2.438-3.984-.235-.094v4.079zm0 0"/></symbol><symbol overflow="visible" id="h"><path d="M5.719-2.75c0-1.375-.953-2.406-2.219-2.406-.703 0-1.25.328-1.766.75.22-1.844 1.094-2.89 3.375-3.563v-.265L4.531-8.5c-1.156.39-1.75.656-2.36 1.188C.939-6.282.235-4.72.235-3.079.234-1.11 1.344.234 2.875.234c1.563 0 2.844-1.359 2.844-2.984zm-1.297.422c0 1.234-.469 1.906-1.39 1.906-1.016 0-1.423-.734-1.423-2.344 0-.406 0-.546.141-.75.266-.406.719-.656 1.297-.656.906 0 1.375.656 1.375 1.844zm0 0"/></symbol><symbol overflow="visible" id="b"><path d="M7.547-7.156v.25c0 1.367.281 2.601.844 3.703.625 1.219 1.613 2.273 2.968 3.156a2.214 2.214 0 0 0-.609.688C9.562-.273 8.687-1.375 8.125-2.656c-.305-.676-.531-1.461-.688-2.36C7.29-3.859 6.973-2.852 6.484-2 5.785-.79 4.711.156 3.266.844l-.172-.25C4.332-.133 5.27-1.117 5.906-2.36c.625-1.22.938-2.688.938-4.407v-.39H5.609c-.468 1.023-1.015 1.851-1.64 2.484l-.219-.187c.938-1.383 1.578-3.032 1.922-4.938.781.137 1.172.293 1.172.469 0 .105-.184.21-.547.312a12.176 12.176 0 0 1-.547 1.563h4.156l.469-.656c.54.523.813.836.813.937 0 .063-.043.117-.126.156l-.328.141c-.46.855-.968 1.625-1.53 2.313l-.282-.172c.394-.664.742-1.473 1.047-2.422zM.937-8.984c1.157.523 1.735 1.07 1.735 1.64 0 .324-.152.485-.453.485-.188 0-.313-.133-.375-.407-.125-.52-.48-1.02-1.063-1.5zm3.25 1.312l-1.796 4.39a2.11 2.11 0 0 0-.172.813c0 .106.031.32.094.64.082.47.124.915.124 1.329 0 .52-.18.781-.53.781-.274 0-.407-.14-.407-.422 0-.02.008-.097.031-.234a8.12 8.12 0 0 0 .063-.469c.05-.32.078-.613.078-.875 0-.5-.125-.836-.375-1.015-.125-.102-.36-.188-.703-.25v-.297c.187.023.344.031.469.031.289 0 .539-.16.75-.484.613-.946 1.3-2.317 2.062-4.11zm0 0"/></symbol></defs><use xlink:href="#a" x=".427" y="9.745"/><use xlink:href="#b" x="6.405" y="9.745"/><use xlink:href="#c" x="21.681" y="9.745"/><use xlink:href="#a" x="63.967" y="9.745"/><use xlink:href="#d" x="72.598" y="9.745"/><use xlink:href="#a" x="84.35" y="9.745"/><use xlink:href="#e" x=".427" y="27.179"/><use xlink:href="#b" x="6.405" y="27.179"/><use xlink:href="#c" x="21.681" y="27.179"/><use xlink:href="#a" x="54.402" y="27.179"/><use xlink:href="#d" x="63.034" y="27.179"/><use xlink:href="#e" x="74.786" y="27.179"/><use xlink:href="#d" x="83.418" y="27.179"/><use xlink:href="#a" x="95.158" y="27.179"/><use xlink:href="#f" x=".427" y="44.614"/><use xlink:href="#b" x="6.405" y="44.614"/><use xlink:href="#c" x="21.681" y="44.614"/><use xlink:href="#a" x="44.24" y="44.614"/><use xlink:href="#d" x="52.872" y="44.614"/><use xlink:href="#f" x="64.624" y="44.614"/><use xlink:href="#d" x="73.256" y="44.614"/><use xlink:href="#f" x="84.996" y="44.614"/><use xlink:href="#d" x="93.627" y="44.614"/><use xlink:href="#a" x="105.379" y="44.614"/><use xlink:href="#g" x=".427" y="62.048"/><use xlink:href="#b" x="6.405" y="62.048"/><use xlink:href="#c" x="21.681" y="62.048"/><use xlink:href="#a" x="34.079" y="62.048"/><use xlink:href="#d" x="42.71" y="62.048"/><use xlink:href="#g" x="54.462" y="62.048"/><use xlink:href="#d" x="63.094" y="62.048"/><use xlink:href="#h" x="74.834" y="62.048"/><use xlink:href="#d" x="83.465" y="62.048"/><use xlink:href="#g" x="95.217" y="62.048"/><use xlink:href="#d" x="103.849" y="62.048"/><use xlink:href="#a" x="115.589" y="62.048"/></svg>