<!--
ratio(t)_{quadratic} = \left | \frac{2t^2 - 2t}{2t^2 - 2t + 1} \right |
-->
<svg xmlns:xlink="http://www.w3.org/1999/xlink" width="32.167ex" height="6ex" style="vertical-align: -2.333ex; margin-left: 0ex; margin-right: 0ex; margin-bottom: 1px; margin-top: 1px;" viewBox="0 -1531.3 13869.5 2556.3" xmlns="http://www.w3.org/2000/svg">
<defs>
<path stroke-width="10" id="E1-LATINMODERNNORMAL-1D45F" d="M436 377c0 -36 -28 -59 -55 -59s-38 19 -38 35c0 26 22 50 52 55c0 0 -16 12 -42 12c-43 0 -72 -26 -80 -33c-24 -22 -52 -69 -56 -82l-32 -130c-4 -18 -38 -154 -40 -158c-7 -20 -25 -28 -37 -28c-15 0 -29 9 -29 27c0 5 6 28 9 43l58 231c13 52 16 63 16 84 c0 38 -14 46 -31 46c-36 0 -56 -48 -73 -119c-6 -22 -7 -23 -17 -23c0 0 -12 0 -12 10c0 3 13 63 31 97c9 18 28 57 74 57c47 0 83 -32 91 -77c19 28 63 77 128 77c51 0 83 -30 83 -65Z"></path>
<path stroke-width="10" id="E1-LATINMODERNNORMAL-1D44E" d="M498 143c0 0 -13 -63 -30 -99c-16 -32 -39 -55 -74 -55c-48 0 -83 33 -91 75c-60 -71 -110 -75 -130 -75c-78 0 -133 66 -133 160c0 146 124 293 241 293c45 0 74 -27 92 -64c3 22 18 44 42 44c17 0 29 -10 29 -27c0 -4 0 -6 -7 -34l-36 -140l-22 -90 c-11 -44 -13 -52 -13 -74c0 -20 3 -46 30 -46c41 0 59 59 76 124c3 14 4 18 14 18c3 0 12 0 12 -10zM361 332c0 6 -14 88 -79 88c-40 0 -85 -37 -116 -96c-23 -46 -55 -169 -55 -219c0 -39 14 -94 64 -94c28 0 69 16 113 71c15 17 15 19 20 37l50 196c1 5 3 11 3 17Z"></path>
<path stroke-width="10" id="E1-LATINMODERNNORMAL-1D461" d="M330 420c0 -20 -10 -20 -30 -20h-94l-74 -295c-4 -17 -6 -24 -6 -48c0 -33 10 -46 31 -46c34 0 87 24 130 128c5 11 6 14 15 14c4 0 12 0 12 -10c0 -8 -57 -154 -159 -154c-54 0 -92 38 -92 92c0 18 4 35 76 319h-88c-20 0 -28 0 -28 12c0 19 10 19 30 19h94l39 159 c9 35 37 36 40 36c17 0 29 -10 29 -27c0 -6 -5 -26 -41 -168h88c18 0 28 0 28 -11Z"></path>
<path stroke-width="10" id="E1-LATINMODERNNORMAL-1D456" d="M284 625c0 -30 -30 -53 -53 -53c-24 0 -38 17 -38 36c0 27 27 53 54 53c23 0 37 -16 37 -36zM293 143c0 -9 -37 -154 -131 -154c-48 0 -82 35 -82 82c0 21 13 54 23 80c16 43 61 159 69 185c4 10 11 31 11 52c0 32 -17 32 -25 32c-34 0 -74 -30 -101 -124 c-5 -16 -6 -18 -16 -18c0 0 -12 0 -12 10c0 9 38 154 132 154c50 0 82 -37 82 -82c0 -19 -5 -33 -13 -53c-10 -27 -10 -29 -22 -58l-39 -105c-23 -61 -29 -75 -29 -100c0 -23 7 -33 24 -33c51 0 84 61 102 124c5 15 5 18 15 18c3 0 12 0 12 -10Z"></path>
<path stroke-width="10" id="E1-LATINMODERNNORMAL-1D45C" d="M469 273c0 -146 -135 -284 -268 -284c-93 0 -160 70 -160 169c0 142 134 284 268 284c90 0 160 -65 160 -169zM396 312c0 60 -30 108 -88 108c-28 0 -85 -15 -135 -92c-32 -51 -58 -159 -58 -208c0 -78 44 -109 87 -109c46 0 101 34 136 92c38 65 58 170 58 209Z"></path>
<path stroke-width="10" id="E1-LATINMODERNMAIN-28" d="M332 -238c0 -5 -5 -10 -10 -10c-2 0 -4 1 -6 2c-110 83 -215 283 -215 454v84c0 171 105 371 215 454c2 1 4 2 6 2c5 0 10 -5 10 -10c0 -3 -2 -6 -4 -8c-104 -78 -173 -278 -173 -438v-84c0 -160 69 -360 173 -438c2 -2 4 -5 4 -8Z"></path>
<path stroke-width="10" id="E1-LATINMODERNMAIN-29" d="M288 208c0 -171 -105 -371 -215 -454c-2 -1 -4 -2 -6 -2c-5 0 -10 5 -10 10c0 3 2 6 4 8c104 78 173 278 173 438v84c0 160 -69 360 -173 438c-2 2 -4 5 -4 8c0 5 5 10 10 10c2 0 4 -1 6 -2c110 -83 215 -283 215 -454v-84Z"></path>
<path stroke-width="10" id="E1-LATINMODERNNORMAL-1D45E" d="M452 431l-138 -556c-2 -9 -4 -15 -4 -22c0 -9 0 -16 48 -16c16 0 26 0 26 -11c0 -20 -13 -20 -18 -20c-33 0 -69 3 -103 3c-33 0 -68 -3 -100 -3c-13 0 -13 11 -13 11c0 20 10 20 23 20c56 1 64 5 72 33l45 179c-36 -36 -75 -60 -118 -60c-73 0 -132 62 -132 160 c0 145 123 293 241 293c32 0 71 -16 93 -70c17 29 57 69 68 69c7 0 10 -6 10 -10zM360 332c0 7 -14 88 -79 88c-41 0 -93 -42 -124 -116c-17 -42 -46 -151 -46 -199c0 -17 4 -94 64 -94c56 0 112 64 127 92c3 4 58 223 58 229Z"></path>
<path stroke-width="10" id="E1-LATINMODERNNORMAL-1D462" d="M543 143c0 0 -13 -63 -30 -99c-16 -32 -39 -55 -74 -55c-43 0 -78 26 -89 67c-17 -22 -53 -67 -119 -67c-54 0 -123 25 -123 120c0 49 21 111 58 210c6 15 17 44 17 68c0 32 -16 33 -25 33c-38 0 -76 -37 -101 -124c-5 -16 -6 -18 -16 -18c0 0 -12 0 -12 10 c0 9 37 154 132 154c50 0 82 -37 82 -82c0 -19 -5 -33 -17 -63c-26 -69 -54 -148 -54 -204c0 -37 10 -82 62 -82c73 0 113 80 114 84l75 301c8 34 34 35 39 35c15 0 29 -9 29 -27c0 -6 -10 -44 -15 -67c-4 -15 -14 -53 -17 -68l-28 -108c-8 -35 -20 -82 -20 -104 c0 -33 10 -46 31 -46c42 0 61 68 75 124c3 14 4 18 14 18c3 0 12 0 12 -10Z"></path>
<path stroke-width="10" id="E1-LATINMODERNNORMAL-1D451" d="M516 683l-144 -578c-4 -17 -6 -24 -6 -48c0 -20 3 -46 30 -46c41 0 59 59 76 124c3 14 4 18 14 18c3 0 12 0 12 -10c0 0 -13 -63 -30 -99c-16 -32 -39 -55 -74 -55c-48 0 -83 33 -91 75c-60 -71 -110 -75 -130 -75c-78 0 -133 66 -133 160c0 146 124 293 241 293 c45 0 74 -27 92 -64l60 237l3 20c0 10 -2 17 -50 17c-15 0 -24 0 -24 12c0 13 6 18 14 19c17 2 112 11 127 11c13 0 13 -11 13 -11zM361 332c0 6 -14 88 -79 88c-40 0 -85 -37 -116 -96c-23 -46 -55 -169 -55 -219c0 -39 14 -94 64 -94c28 0 69 16 113 71c15 17 15 19 20 37 l50 196c1 5 3 11 3 17Z"></path>
<path stroke-width="10" id="E1-LATINMODERNNORMAL-1D450" d="M430 107c0 -12 -84 -118 -227 -118c-104 0 -162 79 -162 169c0 141 133 284 268 284c71 0 118 -37 118 -86c0 -40 -27 -64 -56 -64c-19 0 -37 11 -37 35c0 7 2 24 18 39c14 14 28 14 44 14c-14 27 -52 40 -86 40c-55 0 -110 -43 -141 -100c-34 -62 -54 -159 -54 -200 c0 -60 27 -109 90 -109c12 0 121 0 200 99c6 8 8 10 13 10c6 0 12 -7 12 -13Z"></path>
<path stroke-width="10" id="E1-LATINMODERNMAIN-3D" d="M722 347c0 -11 -9 -20 -20 -20h-626c-11 0 -20 9 -20 20s9 20 20 20h626c11 0 20 -9 20 -20zM722 153c0 -11 -9 -20 -20 -20h-626c-11 0 -20 9 -20 20s9 20 20 20h626c11 0 20 -9 20 -20Z"></path>
<path stroke-width="10" id="E1-LATINMODERNMAIN-7C" d="M159 -230c0 -11 -9 -20 -20 -20s-20 9 -20 20v960c0 11 9 20 20 20s20 -9 20 -20v-960Z"></path>
<path stroke-width="10" id="E1-LATINMODERNMAIN-32" d="M449 174l-28 -174h-371c0 24 0 26 11 37l192 214c55 62 105 141 105 221c0 82 -43 163 -134 163c-58 0 -112 -37 -135 -102c3 1 5 1 13 1c35 0 53 -26 53 -52c0 -41 -35 -53 -52 -53c-3 0 -53 0 -53 56c0 89 74 181 187 181c122 0 212 -80 212 -194 c0 -100 -60 -154 -216 -292l-106 -103h180c22 0 88 0 95 8c10 15 17 59 22 89h25Z"></path>
<path stroke-width="10" id="E1-LATINMODERNMAIN-2212" d="M722 250c0 -11 -9 -20 -20 -20h-626c-11 0 -20 9 -20 20s9 20 20 20h626c11 0 20 -9 20 -20Z"></path>
<path stroke-width="10" id="E1-LATINMODERNMAIN-2B" d="M722 250c0 -11 -9 -20 -20 -20h-293v-293c0 -11 -9 -20 -20 -20s-20 9 -20 20v293h-293c-11 0 -20 9 -20 20s9 20 20 20h293v293c0 11 9 20 20 20s20 -9 20 -20v-293h293c11 0 20 -9 20 -20Z"></path>
<path stroke-width="10" id="E1-LATINMODERNMAIN-31" d="M419 0c-35 3 -122 3 -162 3s-127 0 -162 -3v31h32c90 0 93 12 93 48v518c-52 -26 -111 -26 -131 -26v31c32 0 120 0 182 64c23 0 23 -2 23 -26v-561c0 -37 3 -48 93 -48h32v-31Z"></path>
<path stroke-width="10" id="E1-LATINMODERNSIZE5-7C" d="M172 -969c0 -18 -15 -32 -33 -32s-32 14 -32 32v2438c0 18 14 32 32 32s33 -14 33 -32v-2438Z"></path>
</defs>
<g stroke="currentColor" fill="currentColor" stroke-width="0" transform="matrix(1 0 0 -1 0 0)">
 <use xlink:href="#E1-LATINMODERNNORMAL-1D45F" x="0" y="0"></use>
 <use xlink:href="#E1-LATINMODERNNORMAL-1D44E" x="456" y="0"></use>
 <use xlink:href="#E1-LATINMODERNNORMAL-1D461" x="990" y="0"></use>
 <use xlink:href="#E1-LATINMODERNNORMAL-1D456" x="1356" y="0"></use>
 <use xlink:href="#E1-LATINMODERNNORMAL-1D45C" x="1706" y="0"></use>
 <use xlink:href="#E1-LATINMODERNMAIN-28" x="2196" y="0"></use>
 <use xlink:href="#E1-LATINMODERNNORMAL-1D461" x="2590" y="0"></use>
<g transform="translate(2956,0)">
 <use xlink:href="#E1-LATINMODERNMAIN-29" x="0" y="0"></use>
<g transform="translate(394,-154)">
 <use transform="scale(0.707)" xlink:href="#E1-LATINMODERNNORMAL-1D45E" x="0" y="0"></use>
 <use transform="scale(0.707)" xlink:href="#E1-LATINMODERNNORMAL-1D462" x="456" y="0"></use>
 <use transform="scale(0.707)" xlink:href="#E1-LATINMODERNNORMAL-1D44E" x="1034" y="0"></use>
 <use transform="scale(0.707)" xlink:href="#E1-LATINMODERNNORMAL-1D451" x="1568" y="0"></use>
 <use transform="scale(0.707)" xlink:href="#E1-LATINMODERNNORMAL-1D45F" x="2093" y="0"></use>
 <use transform="scale(0.707)" xlink:href="#E1-LATINMODERNNORMAL-1D44E" x="2549" y="0"></use>
 <use transform="scale(0.707)" xlink:href="#E1-LATINMODERNNORMAL-1D461" x="3083" y="0"></use>
 <use transform="scale(0.707)" xlink:href="#E1-LATINMODERNNORMAL-1D456" x="3449" y="0"></use>
 <use transform="scale(0.707)" xlink:href="#E1-LATINMODERNNORMAL-1D450" x="3799" y="0"></use>
</g>
</g>
 <use xlink:href="#E1-LATINMODERNMAIN-3D" x="6723" y="0"></use>
<g transform="translate(7784,0)">
 <use xlink:href="#E1-LATINMODERNSIZE5-7C"></use>
<g transform="translate(283,0)">
<g transform="translate(120,0)">
<rect stroke="none" width="5278" height="60" x="0" y="220"></rect>
<g transform="translate(926,676)">
 <use xlink:href="#E1-LATINMODERNMAIN-32" x="0" y="0"></use>
<g transform="translate(505,0)">
 <use xlink:href="#E1-LATINMODERNNORMAL-1D461" x="0" y="0"></use>
 <use transform="scale(0.707)" xlink:href="#E1-LATINMODERNMAIN-32" x="517" y="513"></use>
</g>
 <use xlink:href="#E1-LATINMODERNMAIN-2212" x="1550" y="0"></use>
 <use xlink:href="#E1-LATINMODERNMAIN-32" x="2555" y="0"></use>
 <use xlink:href="#E1-LATINMODERNNORMAL-1D461" x="3060" y="0"></use>
</g>
<g transform="translate(60,-787)">
 <use xlink:href="#E1-LATINMODERNMAIN-32" x="0" y="0"></use>
<g transform="translate(505,0)">
 <use xlink:href="#E1-LATINMODERNNORMAL-1D461" x="0" y="0"></use>
 <use transform="scale(0.707)" xlink:href="#E1-LATINMODERNMAIN-32" x="517" y="408"></use>
</g>
 <use xlink:href="#E1-LATINMODERNMAIN-2212" x="1550" y="0"></use>
 <use xlink:href="#E1-LATINMODERNMAIN-32" x="2555" y="0"></use>
 <use xlink:href="#E1-LATINMODERNNORMAL-1D461" x="3060" y="0"></use>
 <use xlink:href="#E1-LATINMODERNMAIN-2B" x="3648" y="0"></use>
 <use xlink:href="#E1-LATINMODERNMAIN-31" x="4653" y="0"></use>
</g>
</g>
</g>
 <use xlink:href="#E1-LATINMODERNSIZE5-7C" x="5801" y="0"></use>
</g>
</g>
</svg>