<svg xmlns="http://www.w3.org/2000/svg" xmlns:xlink="http://www.w3.org/1999/xlink" width="284" height="58pt" viewBox="0 0 213 58"><defs><symbol overflow="visible" id="a"><path d="M5.078-14.516H1.703V0h.969v-14.031h2.406c-.016-.078-.031-.156-.031-.235 0-.093.016-.171.031-.25zm0 0"/></symbol><symbol overflow="visible" id="b"><path d="M2.672-9.688h-.969V0h.969zm0 0"/></symbol><symbol overflow="visible" id="c"><path d="M5.078 0c-.016-.078-.031-.156-.031-.234 0-.094.016-.172.031-.25H2.672v-14.032h-.969V0zm0 0"/></symbol><symbol overflow="visible" id="d"><path d="M7.094-6.469c0-1.203-1.125-1.797-2.172-1.797-.547 0-1.094.032-1.64.032l-1.985-.032-.047.329.656.03c.297 0 .422.095.422.313 0 .172-.047.547-.11.907L1.345-1.5C1.14-.406 1.125-.375.64-.328l-.485.031L.11.031 1.688 0l1.656.031.031-.328-.766-.031c-.312-.016-.437-.11-.437-.36 0-.109.015-.203.047-.421l.984-5.829s.047-.25.11-.468c.015-.063.046-.188.078-.344.437-.063.625-.094.859-.094 1.219 0 1.797.532 1.797 1.64 0 1.298-.86 2.345-1.906 2.345-.266 0-.5-.063-.954-.235l.032.375c.437.219.672.281 1.031.281 1.531 0 2.844-1.406 2.844-3.03zm0 0"/></symbol><symbol overflow="visible" id="i"><path d="M4.516 0v-14.516H1.14a.648.648 0 0 1 0 .485h2.421V0zm0 0"/></symbol><symbol overflow="visible" id="j"><path d="M4.516 0v-9.688h-.954V0zm0 0"/></symbol><symbol overflow="visible" id="k"><path d="M4.516 0v-14.516h-.954V-.484H1.142a.648.648 0 0 1 0 .484zm0 0"/></symbol><symbol overflow="visible" id="r"><path d="M10.047-2.984a15.72 15.72 0 0 1-2.39-2.391c-.173.016-.345.031-.516.031a5.05 5.05 0 0 1-.5-.031c.25.328.546.64.828.953H.953a1.4 1.4 0 0 1 .031.36c0 .125 0 .234-.03.359h7.25c.265.25.53.484.827.719-.297.218-.562.468-.828.718H.953c.031.11.031.235.031.36 0 .11 0 .234-.03.36h6.515c-.282.296-.578.609-.828.952.156-.031.328-.047.5-.047.171 0 .343.016.515.047a15.72 15.72 0 0 1 2.39-2.39zm0 0"/></symbol><symbol overflow="visible" id="s"><path d="M8.125-2.625c-.016-.125-.031-.25-.031-.36 0-.124.015-.25.031-.359H4.906v-3.234c-.125.031-.25.047-.36.047-.124 0-.25-.016-.359-.047v3.234H.954c.031.11.031.235.031.36 0 .109 0 .234-.03.359h3.234V.594c.109-.016.234-.031.359-.031.11 0 .234.015.36.03v-3.218zm0 0"/></symbol><symbol overflow="visible" id="t"><path d="M5.516-2.672c0-.578-.235-1.078-.657-1.375-.312-.219-.578-.312-1.171-.422C4.64-5.219 5-5.766 5-6.469c0-1.062-.89-1.765-2.219-1.765-.812 0-1.344.218-1.922.796L.516-5.952H.89l.203-.672c.14-.406.89-.813 1.515-.813.766 0 1.407.641 1.407 1.391 0 .89-.704 1.64-1.547 1.64-.11 0-.563-.03-.563-.03l-.156.64.094.063c.453-.204.672-.266 1-.266 1 0 1.562.64 1.562 1.734 0 1.22-.718 2.016-1.843 2.016a2.035 2.035 0 0 1-1.391-.516C.89-1.03.734-1.296.5-1.953l-.328.125c.266.734.36 1.156.422 1.75.64.219 1.156.312 1.61.312.952 0 2.046-.53 2.702-1.328.407-.5.61-1.015.61-1.578zm0 0"/></symbol><symbol overflow="visible" id="u"><path d="M4.11-7.61a.735.735 0 0 1-.188-.14c-.063-.063-.11-.11-.14-.188-1.47 1.47-2.345 3.032-2.345 4.563v.781c0 1.516.875 3.078 2.344 4.547a.735.735 0 0 1 .14-.187.735.735 0 0 1 .188-.141C2.781.281 2.156-1.203 2.156-2.594v-.781c0-1.39.625-2.89 1.953-4.234zm0 0"/></symbol><symbol overflow="visible" id="v"><path d="M8.125-2.625c-.016-.125-.031-.25-.031-.36 0-.124.015-.25.031-.359H.953c.031.11.031.235.031.36 0 .109 0 .234-.03.359zm0 0"/></symbol><symbol overflow="visible" id="w"><path d="M3.64-2.594v-.781c0-1.531-.874-3.094-2.343-4.563-.047.079-.094.125-.156.188a.427.427 0 0 1-.188.14c1.328 1.344 1.969 2.844 1.969 4.235v.781c0 1.39-.64 2.875-1.969 4.219.078.031.14.078.188.14.062.063.109.126.156.188C2.766.484 3.64-1.078 3.64-2.594zm0 0"/></symbol><symbol overflow="visible" id="e"><path d="M4.125.031v-.265l-.516-.032c-.515-.03-.625-.125-.625-.578v-5.25L2.86-6.14c-.625.297-1.312.563-2.203.86l.078.375h.094l1.25-.516.031-.016c.047 0 .079.094.079.297v4.297c0 .453-.11.547-.626.578l-.546.032V.03L2.594 0zm0 0"/></symbol><symbol overflow="visible" id="f"><path d="M4.594.031c-.016-.187-.016-.281-.016-.406 0-.11 0-.203.016-.39l-3.328.078 1.75-1.704c.937-.906 1.234-1.39 1.234-2.062 0-1.016-.75-1.64-1.984-1.64-.688 0-1.172.171-1.641.624L.469-4.266H.75l.11-.406c.171-.516.515-.734 1.156-.734.828 0 1.359.468 1.359 1.218 0 .672-.406 1.329-1.484 2.391L.234-.203V.03L2.391 0zm0 0"/></symbol><symbol overflow="visible" id="g"><path d="M4.547-1.984c0-.422-.203-.797-.547-1.016-.234-.156-.469-.234-.938-.313.766-.546 1.063-.953 1.063-1.468 0-.797-.719-1.313-1.797-1.313-.64 0-1.078.172-1.547.594L.5-4.406h.313l.156-.5c.11-.297.719-.594 1.219-.594.624 0 1.14.469 1.14 1.031 0 .657-.562 1.219-1.25 1.219-.078 0-.453-.031-.453-.031l-.125.469.078.046c.36-.14.547-.187.797-.187.813 0 1.266.469 1.266 1.265 0 .907-.579 1.5-1.485 1.5-.437 0-.828-.124-1.125-.374C.813-.766.671-.97.5-1.438l-.266.078C.437-.813.516-.5.563-.047c.515.156.937.219 1.296.219.782 0 1.657-.39 2.188-.984.328-.36.5-.75.5-1.172zm0 0"/></symbol><symbol overflow="visible" id="h"><path d="M4.64.031v-.265l-.468-.032c-.469-.03-.578-.14-.578-.671v-.657c.578 0 .781 0 1.047.032v-.625s-.47.015-.782.015h-.265V-3.39c0-1.578.015-2.343.062-2.703l-.11-.047-.702.235-2.735 4.11.11.202H2.78v.657c0 .53-.11.656-.578.671l-.594.032V.03L3.172 0zM2.782-2.172H.72l2.062-3.11zm0 0"/></symbol><symbol overflow="visible" id="x"><path d="M6.375-5.875c-.75-.266-1.297-.375-1.89-.375-.782 0-1.579.234-2.25.64-1.141.704-1.72 1.75-1.72 3.094C.516-.796 1.548.156 3.392.156c.937 0 1.609-.203 2.484-.75l.094-.312-.094-.063c-.906.516-1.406.656-2.156.656-1.531 0-2.344-.843-2.344-2.421 0-.985.328-1.86.922-2.407.437-.421 1.062-.64 1.828-.64.688 0 1.188.125 1.719.453v.734h.265c.047-.5.11-.875.266-1.281zm0 0"/></symbol><symbol overflow="visible" id="y"><path d="M4-.75l-.063-.188c-.078.047-.078.063-.124.094-.313.25-.454.328-.61.328-.094 0-.14-.078-.14-.218 0-.032 0-.063.015-.094l.89-3.344-.109-.078-.312.156c-.375-.14-.563-.172-.813-.172-.28 0-.468.047-.734.157-.61.28-.906.546-1.156.984C.422-2.344.125-1.297.125-.578c0 .375.156.672.328.672.203 0 .563-.188.922-.469.406-.328.797-.734 1.328-1.422l-.281 1.11a1.656 1.656 0 0 0-.063.453c0 .203.094.328.235.328.219 0 .61-.25 1.406-.844zm-.828-2.906c-.219.937-.406 1.406-.719 1.86-.531.734-1.14 1.28-1.469 1.28-.109 0-.156-.125-.156-.359 0-.563.235-1.547.578-2.281.235-.516.469-.672.938-.672.219 0 .406.031.828.172zm0 0"/></symbol><symbol overflow="visible" id="z"><path d="M3.078-3.89c-.375.03-.703.046-1.062.046.156-.828.25-1.265.437-1.734l-.11-.14c-.187.109-.452.218-.75.327l-.234 1.5c-.437.188-.687.282-.859.329l-.016.109h.813L.75-.953C.703-.72.625-.5.625-.281c0 .234.11.36.297.36.328 0 .656-.173 1.422-.735.172-.125.11-.094.297-.219l-.094-.156-.438.265c-.28.188-.468.266-.593.266-.063 0-.125-.063-.125-.172 0-.234.125-.922.421-2.234l.125-.547H2.97zm0 0"/></symbol><symbol overflow="visible" id="A"><path d="M7.219-.75l-.094-.156-.25.14c-.281.172-.484.266-.594.266-.062 0-.125-.078-.125-.172 0-.094.032-.172.063-.36l.734-2.624c.031-.14.063-.281.063-.36 0-.156-.094-.25-.25-.25-.282 0-.641.157-1.235.547-.61.39-.937.703-1.406 1.313l.281-1.203c.047-.188.063-.313.063-.375 0-.172-.094-.282-.235-.282-.296 0-.734.204-1.265.563-.438.312-.625.5-1.25 1.265l.312-1.171c.047-.141.063-.266.063-.375 0-.172-.094-.282-.219-.282-.203 0-.578.188-1.281.657l-.281.171.078.188.312-.188c.344-.218.375-.218.453-.218.094 0 .172.078.172.219 0 .453-.406 2.156-.797 3.421l.031.094.657-.125.218-.906c.22-.985.485-1.5 1.016-2.031.406-.407.844-.672 1.11-.672.062 0 .093.062.093.187 0 .297-.203 1.313-.594 2.86l-.156.593.047.094.656-.125L3.83-1c.14-.719.468-1.375.89-1.813.531-.546 1.015-.843 1.328-.843.078 0 .125.078.125.219 0 .203-.016.328-.234 1.109L5.516-.953c-.079.25-.125.484-.125.672 0 .234.093.36.28.36.266 0 .61-.188 1.548-.829zm0 0"/></symbol><symbol overflow="visible" id="B"><path d="M5.016-.75l-.094-.156-.25.14c-.234.141-.469.25-.594.25-.062 0-.11-.062-.11-.156 0-.11.016-.25.063-.36l.797-3.155-.062-.079-.657.157-.093.453c-.157.672-.375 1.265-.657 1.672-.578.812-1.343 1.468-1.734 1.468-.094 0-.125-.078-.125-.234 0-.14.016-.234.063-.469l.546-2.39c.032-.141.047-.266.047-.375 0-.172-.062-.282-.203-.282-.203 0-.562.188-1.297.657l-.265.171.078.188.297-.188c.28-.171.39-.203.468-.203.094 0 .157.079.157.172 0 .047 0 .11-.016.156L.765-.687a3.371 3.371 0 0 0-.03.437c0 .188.14.344.328.344.625 0 1.78-.985 2.593-2.203l-.36 1.25c-.062.218-.108.437-.108.578 0 .234.109.375.296.375.25 0 .594-.203 1.532-.844zm0 0"/></symbol><symbol overflow="visible" id="C"><path d="M2.516-6.39l-.125-.094c-.5.234-.844.312-1.547.375l-.031.187h.468c.219 0 .313.063.313.188s-.032.328-.047.421L.625-1.171c-.14.469-.188.719-.188.906 0 .22.11.344.282.344.25 0 .61-.187 1.547-.828l-.094-.156-.25.14c-.297.188-.484.266-.594.266-.062 0-.125-.078-.125-.172 0-.11.031-.219.063-.328zm0 0"/></symbol><symbol overflow="visible" id="D"><path d="M6.25.031v-.25c-.39-.031-.5-.11-.781-.484L3.703-3.125c.531-.094.813-.203 1.156-.438.563-.359.86-.843.86-1.39 0-.766-.89-1.172-1.688-1.172-.484 0-.968.031-1.453.031l-1.453-.031-.031.25.547.016c.234.015.343.078.343.25 0 .125-.046.406-.093.671l-.72 3.829C1.017-.297.985-.281.61-.25l-.39.031-.047.25L1.453 0l1.188.031.015-.25-.469-.031c-.265-.016-.343-.094-.343-.266 0-.078 0-.156.047-.312l.812-4.297.078-.36.078-.25c.266-.046.47-.062.735-.062.828 0 1.281.344 1.281 1 0 .828-.75 1.453-1.766 1.453h-.421l-.032.094C3.953-1.516 4.25-1.094 4.984.031 5.22.016 5.454 0 5.688 0c.187 0 .375.016.562.031zm0 0"/></symbol><symbol overflow="visible" id="E"><path d="M4.047-2.922c0-.844-.484-1.344-1.281-1.344-.407 0-.86.157-1.297.438C.687-3.313.25-2.422.25-1.344.25-.406.688.094 1.484.094c.532 0 1.11-.219 1.547-.594.594-.531 1.016-1.531 1.016-2.422zm-.734.14c0 .845-.297 1.782-.72 2.25a.952.952 0 0 1-.718.298c-.563 0-.89-.407-.89-1.094 0-1 .374-2.094.843-2.453.125-.094.36-.14.594-.14.578 0 .89.39.89 1.14zm0 0"/></symbol><symbol overflow="visible" id="l"><path d="M.234.031C.5.016.766 0 1.031 0c.485 0 .953.031 1.422.031.438 0 .844-.11 1.266-.344C4.406-.734 4.797-1.327 4.797-2c0-.39-.125-.672-.36-.875-.234-.188-.5-.266-1.109-.36.516-.171.719-.28 1-.53.406-.344.61-.75.61-1.204 0-.734-.704-1.156-1.391-1.156-.438 0-.89.031-1.328.031-.453 0-.89-.015-1.328-.031l-.032.25.47.016c.202.015.312.078.312.25 0 .125-.047.406-.079.671L.782-.484c-.016.156-.141.218-.5.28zm1.235-.39L1.922-3h.75c.906 0 1.36.36 1.36 1.14 0 .907-.657 1.563-1.532 1.563-.188 0-.438-.016-.734-.047-.047 0-.157-.015-.297-.015zm.5-2.97l.437-2.421c.235 0 .469-.047.703-.047.72 0 1.079.328 1.079.984 0 .938-.657 1.485-1.75 1.485zm0 0"/></symbol><symbol overflow="visible" id="m"><path d="M.125-.984c0 .671.39 1.078 1.031 1.078.5 0 1-.25 1.813-.906l-.063-.172-.219.156c-.468.328-.89.515-1.203.515-.437 0-.671-.328-.671-.875 0-.234.015-.453.062-.703l.719-.171a3.93 3.93 0 0 0 .61-.235c.765-.328 1.108-.734 1.108-1.281 0-.406-.296-.688-.75-.688-.578 0-1.53.594-1.89 1.157-.266.437-.547 1.5-.547 2.125zm.797-1.11L1-2.422c.14-.594.313-.969.563-1.187a.972.972 0 0 1 .671-.282c.25 0 .422.172.422.454 0 .39-.312.812-.765 1.03-.25.11-.579.22-.97.313zm.469-2.61h.312l1.422-.89c.188-.11.25-.187.25-.328 0-.14-.156-.266-.328-.266-.094 0-.188.047-.297.157zm0 0"/></symbol><symbol overflow="visible" id="n"><path d="M-.016-.188l.094.235a1.16 1.16 0 0 1 .797-.281c.219 0 .469.047.922.156.531.125.812.172 1.047.172.11 0 .187-.016.453-.078.094-.563.156-.86.265-1.266H3.36l-.187.531C3.109-.563 3-.5 2.828-.5c-.203 0-.406-.063-.594-.094a4.445 4.445 0 0 0-.765-.11c-.282 0-.516.048-.844.188l3-3.39.047-.281-.078-.079-.203.204c-.079.093-.172.125-.297.125-.297 0-.766-.063-1.188-.188-.218-.063-.468-.14-.703-.14-.156 0-.328.03-.547.093L.375-3.094h.188l.265-.515c.156-.032.235-.047.344-.047.125 0 .219.015.406.047.297.062.531.093.719.093.312 0 .531-.062.812-.203zm0 0"/></symbol><symbol overflow="visible" id="o"><path d="M.297-3.438l.062.188.282-.188c.265-.171.343-.203.421-.203.094 0 .157.079.157.188 0 .062-.032.25-.063.39L.563-.953a2.76 2.76 0 0 0-.11.687c0 .22.094.344.266.344.234 0 .562-.187 1.406-.828l-.078-.156-.235.14c-.265.188-.453.266-.53.266-.063 0-.126-.078-.126-.172 0-.094.016-.156.063-.36l.687-2.687c.032-.14.047-.234.047-.312 0-.157-.062-.235-.219-.235-.203 0-.515.188-1.187.657zm1.219-1.89c0 .219.14.36.359.36.281 0 .484-.266.484-.595 0-.218-.14-.359-.328-.359-.265 0-.515.281-.515.594zm0 0"/></symbol><symbol overflow="visible" id="p"><path d="M.125-.984c0 .671.39 1.078 1.031 1.078.5 0 1-.25 1.813-.906l-.063-.172-.219.156c-.468.328-.89.515-1.203.515-.437 0-.671-.328-.671-.875 0-.234.015-.453.062-.703l.719-.171a3.93 3.93 0 0 0 .61-.235c.765-.328 1.108-.734 1.108-1.281 0-.406-.296-.688-.75-.688-.578 0-1.53.594-1.89 1.157-.266.437-.547 1.5-.547 2.125zm.797-1.11L1-2.422c.14-.594.313-.969.563-1.187a.972.972 0 0 1 .671-.282c.25 0 .422.172.422.454 0 .39-.312.812-.765 1.03-.25.11-.579.22-.97.313zm0 0"/></symbol><symbol overflow="visible" id="q"><path d="M.234-3.438l.063.188.281-.188c.25-.156.344-.203.422-.203.094 0 .156.079.156.188 0 .515-.39 2.344-.734 3.469L.5.078c.203-.062.39-.094.594-.125l.234-1.062c.156-.735.36-1.204.75-1.72.297-.374.547-.562.735-.562.124 0 .218.032.312.157h.125c.031-.329.078-.61.14-.97-.093-.046-.124-.062-.171-.062-.281 0-.547.22-.86.672-.312.422-.609.86-.843 1.328l.234-1.109c.047-.203.11-.406.11-.61 0-.171-.079-.28-.204-.28-.187 0-.531.187-1.172.656zm0 0"/></symbol></defs><use xlink:href="#a" x="-.962" y="15.637"/><use xlink:href="#b" x="-.962" y="24.338"/><use xlink:href="#b" x="-.962" y="32.366"/><use xlink:href="#b" x="-.962" y="40.394"/><use xlink:href="#c" x="-.962" y="53.925"/><use xlink:href="#d" x="5.267" y="8.745"/><use xlink:href="#e" x="12.572" y="11.518"/><use xlink:href="#d" x="5.267" y="23.19"/><use xlink:href="#f" x="12.572" y="25.964"/><use xlink:href="#d" x="5.267" y="37.636"/><use xlink:href="#g" x="12.572" y="40.41"/><use xlink:href="#d" x="5.267" y="52.082"/><use xlink:href="#h" x="12.572" y="54.856"/><use xlink:href="#i" x="18.068" y="15.637"/><use xlink:href="#j" x="18.068" y="24.338"/><use xlink:href="#j" x="18.068" y="32.366"/><use xlink:href="#j" x="18.068" y="40.394"/><use xlink:href="#k" x="18.068" y="53.925"/><use xlink:href="#l" x="24.297" y="57.442"/><use xlink:href="#m" x="29.702" y="57.442"/><use xlink:href="#n" x="33.144" y="57.442"/><use xlink:href="#o" x="37.072" y="57.442"/><use xlink:href="#p" x="39.531" y="57.442"/><use xlink:href="#q" x="42.973" y="57.442"/><use xlink:href="#r" x="50.233" y="30.513"/><use xlink:href="#a" x="64.553" y="15.637"/><use xlink:href="#b" x="64.553" y="24.338"/><use xlink:href="#b" x="64.553" y="32.366"/><use xlink:href="#b" x="64.553" y="40.394"/><use xlink:href="#c" x="64.553" y="53.925"/><use xlink:href="#d" x="106.041" y="8.744"/><use xlink:href="#e" x="113.345" y="11.518"/><use xlink:href="#d" x="106.041" y="23.19"/><use xlink:href="#h" x="113.345" y="25.964"/><use xlink:href="#d" x="70.782" y="37.636"/><use xlink:href="#h" x="78.086" y="40.41"/><use xlink:href="#s" x="86.24" y="37.636"/><use xlink:href="#t" x="97.98" y="37.636"/><use xlink:href="#u" x="103.958" y="37.636"/><use xlink:href="#d" x="109.027" y="37.636"/><use xlink:href="#e" x="116.334" y="40.41"/><use xlink:href="#v" x="124.488" y="37.636"/><use xlink:href="#d" x="136.228" y="37.636"/><use xlink:href="#f" x="143.535" y="40.41"/><use xlink:href="#w" x="149.032" y="37.636"/><use xlink:href="#d" x="70.782" y="52.082"/><use xlink:href="#e" x="78.086" y="54.856"/><use xlink:href="#s" x="86.24" y="52.082"/><use xlink:href="#t" x="97.98" y="52.082"/><use xlink:href="#u" x="103.958" y="52.082"/><use xlink:href="#d" x="109.027" y="52.082"/><use xlink:href="#h" x="116.334" y="54.856"/><use xlink:href="#v" x="124.488" y="52.082"/><g><use xlink:href="#d" x="136.228" y="52.082"/></g><g><use xlink:href="#g" x="143.535" y="54.856"/></g><g><use xlink:href="#w" x="149.032" y="52.082"/></g><g><use xlink:href="#i" x="154.101" y="15.637"/></g><g><use xlink:href="#j" x="154.101" y="24.338"/></g><g><use xlink:href="#j" x="154.101" y="32.366"/></g><g><use xlink:href="#j" x="154.101" y="40.394"/></g><g><use xlink:href="#k" x="154.101" y="53.925"/></g><g><use xlink:href="#x" x="160.329" y="57.442"/><use xlink:href="#y" x="166.938" y="57.442"/><use xlink:href="#z" x="171.396" y="57.442"/><use xlink:href="#A" x="174.785" y="57.442"/><use xlink:href="#B" x="182.464" y="57.442"/><use xlink:href="#C" x="188.002" y="57.442"/><use xlink:href="#C" x="190.859" y="57.442"/><use xlink:href="#D" x="193.717" y="57.442"/><use xlink:href="#E" x="200.325" y="57.442"/><use xlink:href="#A" x="204.784" y="57.442"/></g></svg>