<svg xmlns="http://www.w3.org/2000/svg" xmlns:xlink="http://www.w3.org/1999/xlink" width="272" height="41pt" viewBox="0 0 204 41"><defs><symbol overflow="visible" id="a"><path d="M6.047-8.031c-.547-.281-1-.406-1.578-.406-.89 0-1.782.374-2.422 1-.5.5-.75 1.109-.75 1.812 0 1.016.453 1.578 1.453 1.813l1.14.28c.657.157.97.563.97 1.25C4.86-1.14 4-.358 2.765-.358 2.125-.36 1.672-.5 1.14-.875v-1.188H.78C.72-1.405.641-.859.5-.234a4.132 4.132 0 0 0 1.86.453c1.843 0 3.437-1.39 3.437-3.016 0-.937-.516-1.453-1.719-1.703l-.781-.172c-.781-.172-1.14-.61-1.14-1.406 0-1.031.796-1.781 1.89-1.781.594 0 .984.156 1.344.53v.907h.359c.047-.64.125-1.094.297-1.61zm0 0"/></symbol><symbol overflow="visible" id="b"><path d="M8.125-3.938c-.016-.124-.031-.25-.031-.359 0-.125.015-.25.031-.36H.953c.031.11.031.235.031.36 0 .11 0 .234-.03.36zm0 2.626c-.016-.125-.031-.235-.031-.36s.015-.234.031-.36H.953a1.4 1.4 0 0 1 .031.36c0 .125 0 .234-.03.36zm0 0"/></symbol><symbol overflow="visible" id="c"><path d="M4.281-9.64c-.031-.063-.031-.157-.031-.235 0-.078 0-.172.031-.234H1.516V4.14H4.28c-.031-.079-.031-.157-.031-.25 0-.079 0-.157.031-.235H2.313V-9.64zm0 0"/></symbol><symbol overflow="visible" id="d"><path d="M4.125-5.438c-.469-.234-.797-.328-1.203-.328-.61 0-1.344.344-1.922.938-.313.328-.438.625-.438 1.047 0 .672.375 1.062 1.157 1.219l.75.14c.531.094.719.297.719.766 0 .797-.547 1.312-1.391 1.312-.438 0-.797-.14-1.125-.422v-1H.375C.312-1.156.235-.734.109-.187.563.03.97.124 1.391.124c.578 0 1.125-.203 1.734-.688.61-.484.875-.921.875-1.515 0-.64-.375-1-1.281-1.156l-.5-.094c-.719-.14-.953-.344-.953-.828 0-.64.53-1.125 1.218-1.125.485 0 .954.218 1.141.531v.656h.266c.046-.406.109-.734.234-1.343zm0 0"/></symbol><symbol overflow="visible" id="g"><path d="M2.188-.64c0-.344-.329-.688-.704-.688-.359 0-.687.344-.687.687 0 .36.328.704.672.704.39 0 .718-.329.718-.704zm0 0"/></symbol><symbol overflow="visible" id="i"><path d="M3.781 4.14v-14.25H1.016a.57.57 0 0 1 .03.235c0 .078 0 .172-.03.234h1.968V3.656H1.016a.607.607 0 0 1 .03.235c0 .093 0 .171-.03.25zm0 0"/></symbol><symbol overflow="visible" id="j"><path d="M2.61-1.297l-.172-.172c-.329.11-.532.172-1.172.36C1.187-.203.89.578.187 1.719l.172.14.485-.234c.969-1.25 1.422-2 1.765-2.922zm0 0"/></symbol><symbol overflow="visible" id="o"><path d="M5.89-6.906c-.03-.063-.062-.14-.093-.219-.031-.078-.031-.172-.031-.234-1.672.437-2.75 1.687-2.75 3.78V0h.953v-3.578c0-1.719.547-2.953 1.922-3.328zm0 0"/></symbol><symbol overflow="visible" id="p"><path d="M3.969 0v-7.125h-.953V0zm0 0"/></symbol><symbol overflow="visible" id="q"><path d="M3.969 0v-3.578c0-1.922-.64-3.094-1.656-3.563 1.015-.468 1.656-1.64 1.656-3.562v-3.563h-.953v3.563c0 2.078-.5 3.328-1.875 3.328a.648.648 0 0 1 0 .484c1.375 0 1.875 1.25 1.875 3.313V0zm0 0"/></symbol><symbol overflow="visible" id="r"><path d="M5.89-.469C4.517-.829 3.97-2.063 3.97-3.797v-3.562h-.953v3.562c0 2.094 1.078 3.344 2.75 3.797 0-.078 0-.172.03-.234.032-.094.063-.157.095-.235zm0 0"/></symbol><symbol overflow="visible" id="s"><path d="M5.563-4.375c0-2.625-.782-3.86-2.422-3.86-1.844 0-2.797 1.47-2.797 4.36 0 1.406.25 2.61.672 3.188.421.593 1.093.921 1.828.921 1.812 0 2.719-1.546 2.719-4.609zm-1.016.594c0 2.547-.453 3.61-1.547 3.61-1.156 0-1.656-1.22-1.656-4.126 0-2.531.453-3.516 1.578-3.516 1.172 0 1.625 1.172 1.625 4.032zm0 0"/></symbol><symbol overflow="visible" id="u"><path d="M5.766-8.625l-.141-.14c-.61.312-1.047.421-1.906.5l-.047.25h.578c.281 0 .406.093.406.296 0 .094-.015.203-.031.282l-.328 1.843a3.437 3.437 0 0 0-.984-.172c-.829 0-1.954.86-2.5 1.907-.375.687-.61 1.828-.61 2.828C.203-.25.375.125.734.125c.313 0 .766-.203 1.172-.516.64-.53 1.032-1 1.828-2.203L3.47-1.5c-.14.516-.188.906-.188 1.219 0 .25.094.406.297.406.219 0 .5-.156.906-.453l.97-.719-.126-.234-.516.375c-.171.125-.359.203-.468.203-.094 0-.172-.11-.172-.281 0-.094.031-.204.094-.547zM4.172-4.906l-.14.703c-.22 1.062-.798 2.11-1.548 2.812-.421.407-.89.688-1.125.688-.187 0-.296-.172-.296-.469 0-1.5.546-3.375 1.14-3.828.156-.11.375-.172.703-.172.531 0 .875.063 1.266.266zm0 0"/></symbol><symbol overflow="visible" id="v"><path d="M4.86-7.766c-.11.016-.204.032-.313.032-.094 0-.203-.016-.297-.032L.953 1.797a.981.981 0 0 1 .297-.047c.11 0 .203.016.313.047zm0 0"/></symbol><symbol overflow="visible" id="w"><path d="M5 .031v-.36l-.625-.03c-.656-.032-.781-.172-.781-.782v-7.093l-.156-.063c-.782.406-1.626.766-2.72 1.156l.079.5h.125l1.547-.687.031-.016c.063 0 .094.11.094.407v5.796c0 .61-.125.75-.781.782l-.672.03v.36L3.125 0zm0 0"/></symbol><symbol overflow="visible" id="e"><path d="M4.125.031v-.265l-.516-.032c-.515-.03-.625-.125-.625-.578v-5.25L2.86-6.14c-.625.297-1.312.563-2.203.86l.078.375h.094l1.25-.516.031-.016c.047 0 .079.094.079.297v4.297c0 .453-.11.547-.626.578l-.546.032V.03L2.594 0zm0 0"/></symbol><symbol overflow="visible" id="f"><path d="M4.594.031c-.016-.187-.016-.281-.016-.406 0-.11 0-.203.016-.39l-3.328.078 1.75-1.704c.937-.906 1.234-1.39 1.234-2.062 0-1.016-.75-1.64-1.984-1.64-.688 0-1.172.171-1.641.624L.469-4.266H.75l.11-.406c.171-.516.515-.734 1.156-.734.828 0 1.359.468 1.359 1.218 0 .672-.406 1.329-1.484 2.391L.234-.203V.03L2.391 0zm0 0"/></symbol><symbol overflow="visible" id="h"><path d="M5.047-.75l-.11-.156-.234.14c-.297.172-.5.266-.594.266-.062 0-.125-.078-.125-.172 0-.047 0-.14.016-.172l.64-2.453c.063-.25.094-.5.094-.64 0-.204-.093-.329-.28-.329-.407 0-1.079.344-1.657.829-.36.312-.625.609-1.125 1.25l.36-1.422c.046-.157.062-.266.062-.36 0-.187-.078-.297-.219-.297-.203 0-.578.204-1.281.657l-.281.171.078.188.312-.188c.344-.218.375-.218.453-.218.094 0 .172.078.172.219 0 .453-.406 2.156-.797 3.421l.063.094c.25-.062.469-.11.687-.156.172-1.11.39-1.688.828-2.297.532-.734 1.235-1.281 1.672-1.281.094 0 .156.078.156.203 0 .156-.015.344-.093.625L3.328-.953c-.078.328-.125.531-.125.672 0 .234.11.36.297.36.25 0 .594-.188 1.547-.829zm0 0"/></symbol><symbol overflow="visible" id="t"><path d="M2.422-.75l-.11-.156-.25.14c-.28.188-.484.266-.578.266-.078 0-.125-.078-.125-.172 0-.094 0-.156.063-.36l.734-2.687a.983.983 0 0 0 .063-.312c0-.157-.078-.235-.235-.235-.218 0-.562.188-1.296.657l-.266.171.062.188.313-.188c.265-.171.375-.203.453-.203.11 0 .172.079.172.188 0 .062-.047.25-.078.39l-.64 2.11c-.079.297-.126.515-.126.687 0 .22.11.344.281.344.266 0 .625-.187 1.563-.828zm.234-4.813c0-.218-.14-.359-.344-.359-.296 0-.562.281-.562.594 0 .219.14.36.375.36.313 0 .531-.266.531-.595zm0 0"/></symbol><symbol overflow="visible" id="k"><path d="M.25-4.203h.266l.203-.5c.078-.203.328-.344.61-.344.218 0 .437.031.671.031.25 0 .406-.015.703-.046-.11.156-.234.28-.36.421C1.267-3.375.86-2.516.86-1.5c0 .969.422 1.625 1.047 1.625.766 0 1.39-.656 2.282-2.36-.11.532-.141.829-.141 1.094 0 .766.344 1.266.875 1.266.969 0 2.219-1.203 2.969-2.844.265-.594.468-1.39.468-1.875 0-.672-.312-1.172-.75-1.172a.545.545 0 0 0-.39.141l-.594.563.125.234a.55.55 0 0 1 .328-.11c.328 0 .516.282.516.75 0 1.735-1.157 3.72-2.172 3.72-.36 0-.61-.47-.61-1.141a8.2 8.2 0 0 1 .25-1.86l.625-2.203-.078-.094-.89.266-.344 1.781a5.727 5.727 0 0 1-.656 1.86C3.234-.953 2.78-.47 2.422-.47c-.406 0-.688-.469-.688-1.156 0-1.422.485-2.578 1.672-3.922l-.125-.219c-.234.11-.39.141-.719.141-.5 0-.984-.047-1.468-.078-.157-.016-.25.031-.39.078-.173.328-.298.766-.454 1.422zm0 0"/></symbol><symbol overflow="visible" id="l"><path d="M.125-.031l.078.14.828-.187c.188-1.375.39-2.11.735-2.75.53-.969 1.765-2.125 2.28-2.125.157 0 .25.11.25.266 0 .218-.062.671-.171 1.062l-.61 2.344c-.109.437-.156.703-.156.922 0 .28.125.468.36.468.312 0 .734-.25 1.906-1.125l-.11-.218-.312.203c-.344.234-.61.36-.734.36-.078 0-.157-.11-.157-.235 0-.125.016-.219.094-.485l.75-3.062c.078-.297.14-.672.14-.875 0-.266-.14-.438-.343-.438-.406 0-1.14.407-1.89 1.032-.422.343-.61.578-1.172 1.265l-.235.297 1.172-5.453-.156-.14c-.61.312-1.047.421-1.906.5l-.047.25h.578c.281 0 .406.093.406.296 0 .094-.016.203-.031.282l-.5 2.796C.844-2.828.375-.78.125-.03zm0 0"/></symbol><symbol overflow="visible" id="m"><path d="M.172-1.344c0 .922.531 1.469 1.39 1.469.688 0 1.344-.328 2.454-1.219l-.094-.234-.281.203C3-.672 2.42-.437 2-.437c-.578 0-.906-.438-.906-1.172 0-.297.015-.61.093-.954l.97-.234c.202-.047.515-.172.827-.297C4-3.547 4.47-4.094 4.47-4.828c0-.563-.39-.938-1-.938-.781 0-2.078.813-2.563 1.563-.36.594-.734 2.031-.734 2.86zM1.25-2.828l.094-.453c.203-.797.437-1.313.765-1.61.22-.218.61-.375.907-.375.343 0 .562.25.562.625 0 .532-.406 1.094-1.031 1.391-.328.156-.766.297-1.297.422zm0 0"/></symbol><symbol overflow="visible" id="n"><path d="M.313-4.64l.078.234.39-.25c.328-.203.469-.266.563-.266.125 0 .203.11.203.266 0 .687-.5 3.156-.984 4.687L.688.11c.25-.078.515-.14.796-.187L1.797-1.5c.219-1 .484-1.625 1.016-2.313.406-.53.718-.78.984-.78.187 0 .297.062.437.234h.172c.032-.454.094-.844.188-1.329-.14-.062-.188-.078-.25-.078-.36 0-.735.297-1.172.907-.406.578-.813 1.156-1.11 1.796l.297-1.5c.063-.265.157-.546.157-.812 0-.25-.094-.39-.282-.39-.25 0-.703.25-1.593.89zm0 0"/></symbol></defs><use xlink:href="#a" x=".386" y="23.29"/><use xlink:href="#b" x="10.345" y="23.29"/><use xlink:href="#c" x="22.754" y="23.29"/><use xlink:href="#d" x="28.058" y="23.19"/><use xlink:href="#e" x="32.709" y="25.964"/><use xlink:href="#d" x="48.168" y="23.19"/><use xlink:href="#f" x="52.818" y="25.964"/><use xlink:href="#g" x="68.278" y="23.19"/><use xlink:href="#g" x="71.267" y="23.19"/><use xlink:href="#g" x="74.256" y="23.19"/><use xlink:href="#d" x="87.203" y="23.19"/><use xlink:href="#h" x="91.857" y="25.964"/><use xlink:href="#i" x="97.893" y="23.29"/><use xlink:href="#j" x="105.174" y="23.29"/><use xlink:href="#k" x="113.153" y="23.29"/><use xlink:href="#l" x="121.785" y="23.29"/><use xlink:href="#m" x="127.762" y="23.29"/><use xlink:href="#n" x="132.413" y="23.29"/><use xlink:href="#m" x="136.765" y="23.29"/><use xlink:href="#o" x="146.396" y="8.148"/><use xlink:href="#p" x="146.396" y="14.218"/><use xlink:href="#q" x="146.396" y="27.438"/><use xlink:href="#p" x="146.396" y="33.509"/><use xlink:href="#r" x="146.396" y="39.819"/><use xlink:href="#d" x="163.001" y="8.745"/><use xlink:href="#e" x="167.652" y="11.518"/><use xlink:href="#b" x="176.47" y="8.744"/><use xlink:href="#s" x="188.868" y="8.744"/><use xlink:href="#d" x="153.438" y="23.19"/><use xlink:href="#t" x="158.088" y="25.964"/><use xlink:href="#b" x="164.809" y="23.19"/><use xlink:href="#u" x="177.207" y="23.19"/><use xlink:href="#t" x="183.194" y="25.964"/><use xlink:href="#v" x="186.594" y="23.19"/><use xlink:href="#u" x="192.404" y="23.19"/><g><use xlink:href="#h" x="198.382" y="25.964"/></g><g><use xlink:href="#d" x="162.731" y="37.636"/></g><g><use xlink:href="#h" x="167.382" y="40.41"/></g><g><use xlink:href="#b" x="176.74" y="37.636"/></g><g><use xlink:href="#w" x="189.138" y="37.636"/></g></svg>