<svg xmlns="http://www.w3.org/2000/svg" xmlns:xlink="http://www.w3.org/1999/xlink" width="289pt" height="47pt" viewBox="0 0 289 47"><defs><symbol overflow="visible" id="a"><path d="M2.016-6.734c.05-.196.086-.36.109-.485.02-.125.031-.238.031-.343a.414.414 0 0 0-.078-.266.322.322 0 0 0-.187-.125c-.075-.031-.215-.05-.422-.063l.078-.312 1.469-.047h.343L1.922-1.891c-.086.387-.125.672-.125.86 0 .156.023.273.078.343.05.075.129.11.234.11a.68.68 0 0 0 .375-.14c.133-.102.32-.286.563-.548l.328.329C3-.54 2.691-.27 2.453-.125a1.553 1.553 0 0 1-.812.219.756.756 0 0 1-.61-.281C.883-.376.813-.61.813-.891c0-.27.05-.648.156-1.14zm0 0"/></symbol><symbol overflow="visible" id="b"><path d="M3.313-7.906l-.266 1.14H2l.281-1.14zM1.421-3.953c.094-.383.14-.676.14-.875 0-.176-.042-.297-.125-.36-.085-.062-.25-.097-.5-.109L1-5.609l1.438-.047h.343l-.844 3.765c-.085.387-.125.672-.125.86 0 .156.02.273.063.343.05.075.133.11.25.11a.68.68 0 0 0 .375-.14c.133-.102.32-.286.563-.548l.328.329c-.387.398-.7.667-.938.812a1.47 1.47 0 0 1-.797.219.756.756 0 0 1-.61-.281C.899-.376.829-.61.829-.891c0-.3.05-.68.156-1.14zm0 0"/></symbol><symbol overflow="visible" id="c"><path d="M1.594-3.719c.093-.375.14-.66.14-.86 0-.155-.027-.269-.078-.343-.054-.07-.136-.11-.25-.11-.117 0-.242.055-.375.157-.136.094-.324.273-.562.531L.14-4.672c.363-.375.66-.64.89-.797.239-.156.508-.234.813-.234.25 0 .441.086.578.25.144.156.219.367.219.625 0 .21-.047.445-.141.703l.078.016c.375-.54.735-.942 1.078-1.204.352-.257.711-.39 1.078-.39.364 0 .641.11.829.328.195.21.296.496.296.86 0 .25-.054.6-.156 1.046l-.39 1.547c-.106.418-.157.715-.157.89 0 .157.024.274.078.345.051.074.13.109.235.109.125 0 .25-.047.375-.14.133-.102.32-.286.562-.548l.344.329c-.344.355-.64.617-.89.78-.25.165-.532.25-.844.25a.795.795 0 0 1-.625-.265c-.149-.187-.22-.422-.22-.703 0-.25.063-.625.188-1.125l.266-1c.094-.375.156-.645.188-.813.03-.175.046-.32.046-.437 0-.27-.046-.46-.14-.578-.094-.125-.242-.188-.438-.188-.168 0-.343.07-.531.204-.188.125-.39.324-.61.593-.21.262-.382.516-.515.766-.125.25-.23.558-.313.922L1.766 0H.75zm0 0"/></symbol><symbol overflow="visible" id="d"><path d="M4.906-1.172a4.522 4.522 0 0 1-1.156.953c-.387.211-.84.313-1.36.313-.562 0-1-.172-1.312-.516C.766-.766.61-1.25.61-1.875c0-.414.07-.863.22-1.344.155-.476.382-.906.687-1.281.312-.383.68-.68 1.109-.89a3.07 3.07 0 0 1 1.36-.313c.468 0 .816.101 1.046.297.239.187.36.484.36.89 0 .668-.313 1.168-.938 1.5-.617.325-1.539.485-2.766.485a4.372 4.372 0 0 0-.062.765c0 .407.078.704.234.891.157.188.414.281.782.281.363 0 .691-.078.984-.234.29-.156.598-.395.922-.719zm-3.125-1.86a6.27 6.27 0 0 0 1.422-.14c.395-.094.695-.242.906-.453.22-.207.329-.492.329-.86 0-.226-.06-.41-.172-.546-.118-.133-.282-.203-.5-.203-.399 0-.778.199-1.141.593-.367.399-.648.934-.844 1.61zm0 0"/></symbol><symbol overflow="visible" id="e"><path d="M5.031-5.313l.547-.39.375.094-.86 3.718c-.093.368-.14.653-.14.86 0 .156.024.273.078.343.051.075.133.11.25.11a.61.61 0 0 0 .36-.14c.132-.102.328-.286.578-.548l.328.329c-.356.375-.656.64-.906.796a1.44 1.44 0 0 1-.797.235.748.748 0 0 1-.578-.235c-.149-.164-.22-.379-.22-.64 0-.219.04-.446.126-.688L4.109-1.5c-.375.555-.734.96-1.078 1.219-.336.25-.687.375-1.062.375-.43 0-.762-.16-1-.485-.242-.332-.36-.789-.36-1.375C.61-2.43.74-3.07 1-3.687c.27-.626.633-1.114 1.094-1.47a2.47 2.47 0 0 1 1.547-.546c.25 0 .484.031.703.094.226.054.457.152.687.296zm-.515 1.75a3.32 3.32 0 0 0 .078-.421c.008-.114.015-.239.015-.375 0-.301-.07-.52-.203-.657-.125-.144-.343-.218-.656-.218-.398 0-.758.164-1.078.484-.324.324-.574.762-.75 1.313a5.146 5.146 0 0 0-.266 1.624c0 .407.051.711.157.907.113.199.3.297.562.297.258 0 .516-.11.766-.329.25-.218.504-.535.765-.953.258-.414.446-.89.563-1.421zm0 0"/></symbol><symbol overflow="visible" id="f"><path d="M2.61-4.188c.374-.519.738-.898 1.093-1.14.352-.25.711-.375 1.078-.375.282 0 .52.027.719.078l-.281 1.313h-.61a1.438 1.438 0 0 0-.093-.375c-.043-.094-.094-.157-.157-.188a.41.41 0 0 0-.218-.063c-.149 0-.305.063-.47.188-.167.117-.355.305-.562.563-.199.261-.359.511-.484.75-.125.23-.23.53-.313.906L1.766 0H.75l.844-3.719c.05-.226.082-.406.093-.531.02-.133.032-.242.032-.328 0-.156-.028-.27-.078-.344-.043-.07-.121-.11-.235-.11a.659.659 0 0 0-.39.157 4.824 4.824 0 0 0-.547.531L.14-4.672c.351-.375.648-.64.89-.797.25-.156.52-.234.813-.234.238 0 .43.086.578.25.144.156.219.367.219.625 0 .2-.04.402-.11.61zm0 0"/></symbol><symbol overflow="visible" id="g"><path d="M.875-4.25v-.781h7.219v.781zm0 2.422v-.781h7.219v.78zm7.469-1.594zm0 0"/></symbol><symbol overflow="visible" id="h"><path d="M2.063-2.969c0 1.367.218 2.492.656 3.375.445.895 1.117 1.492 2.015 1.797l-.14.453C3.457 2.352 2.582 1.703 1.969.703c-.606-.988-.907-2.191-.907-3.61 0-1.405.301-2.609.907-3.609.613-1 1.488-1.648 2.625-1.953l.172.453c-.918.305-1.602.891-2.047 1.766-.438.867-.656 1.96-.656 3.281zm0 0"/></symbol><symbol overflow="visible" id="i"><path d="M4.078-1.531c0 .23.008.402.031.515a.68.68 0 0 0 .141.282.572.572 0 0 0 .266.171c.125.043.273.075.453.094.187.024.43.04.734.047V0H1.375v-.422A8.17 8.17 0 0 0 2.297-.5c.187-.04.328-.094.422-.156a.516.516 0 0 0 .219-.281c.05-.125.078-.32.078-.594v-4.75c0-.157-.032-.27-.094-.344a.282.282 0 0 0-.235-.11c-.124 0-.304.07-.53.204-.231.125-.516.304-.86.531l-.25-.453 2.734-1.64h.328a27.34 27.34 0 0 0-.03 1.562zm0 0"/></symbol><symbol overflow="visible" id="j"><path d="M.875-3.047v-.781h7.219v.781zm0 0"/></symbol><symbol overflow="visible" id="k"><path d="M4.078-1.11c-.344.407-.672.712-.984.907a1.8 1.8 0 0 1-.985.297C1.285.094.875-.316.875-1.141c0-.257.035-.535.11-.828l.687-3.047H.688l.093-.406c.227 0 .399-.016.516-.047a.839.839 0 0 0 .297-.125.671.671 0 0 0 .218-.234c.07-.102.141-.234.204-.39.062-.157.156-.43.28-.829h.798L2.78-5.609h1.781l-.125.593h-1.78l-.532 2.282c-.105.437-.172.757-.203.953a3.79 3.79 0 0 0-.031.468c0 .481.203.72.609.72.164 0 .344-.063.531-.188.196-.133.43-.36.703-.672zm0 0"/></symbol><symbol overflow="visible" id="l"><path d="M2.906-2.969c0-1.32-.219-2.414-.656-3.281A3.389 3.389 0 0 0 .219-8.016l.156-.453c1.145.305 2.02.953 2.625 1.953.613 1 .922 2.204.922 3.61 0 1.418-.309 2.62-.922 3.61-.605 1-1.48 1.648-2.625 1.952l-.14-.453C1.14 1.898 1.812 1.301 2.25.406c.438-.883.656-2.008.656-3.375zm0 0"/></symbol><symbol overflow="visible" id="m"><path d="M4.906-3.047V.328h-.843v-3.375H.874v-.781h3.188v-3.375h.843v3.375h3.188v.781zm0 0"/></symbol><symbol overflow="visible" id="n"><path d="M4.422-4.172c-.043-.351-.156-.617-.344-.797-.187-.176-.48-.265-.875-.265-.312 0-.57.078-.765.234a.776.776 0 0 0-.282.625.85.85 0 0 0 .078.375c.051.105.149.227.297.36.145.124.375.28.688.468a4.5 4.5 0 0 1 .594.406c.144.125.257.25.343.375a.943.943 0 0 1 .188.375c.039.137.062.297.062.485 0 .343-.093.64-.281.89-.18.25-.43.438-.75.563a3.153 3.153 0 0 1-1.078.172c-.324 0-.64-.028-.953-.078A6.29 6.29 0 0 1 .297-.22L.578-1.5h.453c.02.375.125.664.313.86.195.187.508.28.937.28.375 0 .664-.081.875-.25.207-.163.313-.398.313-.703 0-.175-.031-.328-.094-.453a1.186 1.186 0 0 0-.297-.375 4.756 4.756 0 0 0-.625-.437 6.084 6.084 0 0 1-.719-.5 1.413 1.413 0 0 1-.375-.485 1.337 1.337 0 0 1-.125-.593c0-.313.082-.582.25-.813.164-.238.399-.422.704-.547a2.887 2.887 0 0 1 1.078-.187c.363 0 .695.027 1 .078.3.043.597.117.89.219l-.265 1.234zm0 0"/></symbol><symbol overflow="visible" id="o"><path d="M4.016-1.36c-.336.47-.68.829-1.032 1.079-.343.25-.683.375-1.015.375-.43 0-.762-.16-1-.485-.242-.332-.36-.789-.36-1.375C.61-2.43.74-3.07 1-3.687c.27-.626.633-1.114 1.094-1.47a2.47 2.47 0 0 1 1.547-.546c.238 0 .468.031.687.094.219.054.445.152.688.296l.53-.39.376.094-1.5 6.671a3.4 3.4 0 0 0-.094.657c0 .176.04.3.125.375.094.07.266.117.516.14l-.047.282H3.094l1.015-3.844zM4.5-3.561c.05-.282.078-.547.078-.797 0-.313-.062-.536-.187-.672-.125-.133-.34-.203-.641-.203-.406 0-.766.164-1.078.484-.313.324-.563.762-.75 1.313a5.146 5.146 0 0 0-.266 1.624c0 .407.051.711.157.907.113.199.3.297.562.297.125 0 .25-.024.375-.079.125-.05.254-.132.39-.25.133-.113.266-.253.391-.421.133-.176.254-.348.36-.516.113-.164.218-.363.312-.594.094-.238.172-.52.234-.844zm0 0"/></symbol><symbol overflow="visible" id="p"><path d="M5.281-1.89c-.086.374-.125.663-.125.859 0 .156.024.273.078.343.051.075.13.11.235.11.125 0 .25-.047.375-.14.133-.102.32-.286.562-.548l.344.329c-.355.375-.656.64-.906.796-.25.157-.516.235-.797.235-.25 0-.45-.078-.594-.235-.137-.164-.203-.379-.203-.64 0-.219.047-.453.14-.703L4.314-1.5c-.387.543-.75.945-1.094 1.203-.344.262-.7.39-1.063.39-.367 0-.648-.1-.844-.312-.199-.218-.296-.508-.296-.875 0-.25.054-.597.171-1.047l.391-1.546c.102-.415.156-.711.156-.891 0-.156-.027-.27-.078-.344-.054-.07-.136-.11-.25-.11-.117 0-.242.055-.375.157-.136.094-.324.273-.562.531L.14-4.672c.332-.332.582-.562.75-.687.164-.125.328-.211.484-.266a1.66 1.66 0 0 1 .516-.078.76.76 0 0 1 .593.25c.145.168.22.398.22.687 0 .305-.063.688-.188 1.157l-.25 1c-.075.261-.125.464-.157.609-.023.148-.043.273-.062.375a2.427 2.427 0 0 0-.016.266c0 .273.04.468.125.593.094.118.242.172.453.172.164 0 .344-.062.532-.187.187-.133.382-.332.593-.594.22-.27.391-.531.516-.781a3.82 3.82 0 0 0 .328-.922l.547-2.531h1.016zm0 0"/></symbol><symbol overflow="visible" id="r"><path d="M4.11-.938c.195 0 .35-.007.468-.03a.85.85 0 0 0 .281-.126.55.55 0 0 0 .172-.203c.04-.094.094-.234.157-.422h.484L5.578 0H.75v-.281c.176-.406.406-.82.688-1.25.28-.438.687-.946 1.218-1.532.446-.5.77-.878.969-1.14.219-.281.379-.52.484-.719.114-.207.192-.398.235-.578.05-.188.078-.367.078-.547 0-.3-.047-.562-.14-.781a1.13 1.13 0 0 0-.438-.531c-.188-.125-.43-.188-.719-.188-.742 0-1.234.406-1.484 1.219H.937v-1.125c.47-.227.907-.39 1.313-.484.414-.102.79-.157 1.125-.157.719 0 1.266.164 1.64.485.376.312.563.773.563 1.375 0 .21-.023.402-.062.578-.043.18-.11.351-.204.515a3.255 3.255 0 0 1-.359.547c-.148.2-.308.399-.484.594-.18.2-.485.531-.922 1-.75.793-1.297 1.48-1.64 2.063zm0 0"/></symbol><symbol overflow="visible" id="s"><path d="M1.688-4.14c.207 0 .375.07.5.202.124.126.187.297.187.516 0 .211-.063.383-.188.516a.678.678 0 0 1-.5.187c-.199 0-.359-.062-.484-.187a.722.722 0 0 1-.187-.516c0-.219.062-.39.187-.515a.636.636 0 0 1 .484-.204zm0 0"/></symbol><symbol overflow="visible" id="t"><path d="M4.406-4.203c0-.29-.023-.504-.062-.64a.542.542 0 0 0-.203-.298.705.705 0 0 0-.391-.093c-.398 0-.75.156-1.063.468-.312.313-.57.762-.765 1.344a5.036 5.036 0 0 0-.297 1.656c0 .399.078.696.234.891.157.188.391.281.704.281.351 0 .66-.066.921-.203.258-.133.532-.348.813-.64l.36.359c-.368.406-.735.703-1.11.89a2.658 2.658 0 0 1-1.203.282c-.563 0-.996-.164-1.297-.5-.293-.332-.438-.82-.438-1.469 0-.414.079-.875.235-1.375.156-.5.383-.938.687-1.313a2.91 2.91 0 0 1 1.047-.859 3.05 3.05 0 0 1 1.297-.281c.52 0 1 .062 1.438.187L5.03-4.203zm0 0"/></symbol><symbol overflow="visible" id="u"><path d="M1.453-.281L.922.094.547 0l1.515-6.703c.083-.395.126-.68.126-.86 0-.164-.055-.28-.157-.343-.094-.07-.273-.11-.531-.11l.078-.312 1.484-.047h.344L2.375-4.281l.063.031c.382-.508.742-.879 1.078-1.11.332-.226.66-.343.984-.343.426 0 .758.168 1 .5.238.324.36.777.36 1.36 0 .648-.133 1.28-.391 1.905-.262.625-.625 1.122-1.094 1.485a2.39 2.39 0 0 1-1.531.547c-.524 0-.985-.125-1.39-.375zm.516-1.766a3.68 3.68 0 0 0-.094.797c0 .313.066.54.203.672.133.137.36.203.672.203.164 0 .316-.023.453-.078.145-.05.29-.133.438-.25.156-.125.3-.285.437-.485a4.08 4.08 0 0 0 .375-.718c.113-.29.203-.602.266-.938.062-.332.093-.648.093-.953 0-.406-.058-.707-.171-.906-.118-.207-.305-.313-.563-.313a.934.934 0 0 0-.547.188c-.18.117-.383.312-.61.594a4.772 4.772 0 0 0-.546.843 5.612 5.612 0 0 0-.36 1.11zm0 0"/></symbol><symbol overflow="visible" id="w"><path d="M.938-6.344v-1.11a6.877 6.877 0 0 1 1.265-.484 4.574 4.574 0 0 1 1.14-.156c.446 0 .833.07 1.157.203.332.137.586.336.766.594.175.25.265.559.265.922 0 .324-.07.617-.203.875a1.86 1.86 0 0 1-.562.656 4.907 4.907 0 0 1-.922.547v.047c.238.055.469.133.687.234.219.094.41.227.578.391.176.168.317.367.422.594.102.23.157.492.157.781 0 .45-.102.852-.297 1.203-.2.356-.5.637-.907.844-.406.2-.902.297-1.484.297-.336 0-.7-.04-1.094-.11A6.822 6.822 0 0 1 .844-.328v-1.234h.703c.133.406.312.703.531.89.227.18.535.266.922.266.508 0 .895-.133 1.156-.406.258-.282.39-.692.39-1.235 0-.57-.171-1.008-.515-1.312-.343-.301-.851-.454-1.515-.454H2v-.515c.52-.031.96-.129 1.328-.297.363-.176.629-.398.797-.672.176-.27.266-.57.266-.906 0-.426-.118-.754-.344-.984-.23-.239-.563-.36-1-.36-.375 0-.68.102-.906.297-.23.2-.399.5-.5.906zm0 0"/></symbol><symbol overflow="visible" id="q"><path d="M3.188-.719c.132 0 .242-.004.328-.015a.498.498 0 0 0 .203-.063.386.386 0 0 0 .14-.156c.04-.07.086-.172.141-.297h.406c-.023.21-.039.418-.047.625-.011.21-.027.418-.046.625H.592v-.234C.665-.391.75-.54.844-.688c.095-.156.196-.312.313-.468.125-.164.258-.332.407-.5.144-.164.312-.344.5-.532.269-.269.488-.5.656-.687.176-.195.312-.375.406-.531.102-.156.172-.297.203-.422a1.408 1.408 0 0 0 0-.828.835.835 0 0 0-.187-.313.624.624 0 0 0-.297-.203 1.005 1.005 0 0 0-.406-.078c-.282 0-.516.074-.704.219-.18.148-.32.36-.421.64H.734v-.859a5.539 5.539 0 0 1 1.032-.328c.32-.07.609-.11.859-.11.3 0 .563.04.781.11.219.062.39.152.516.266.133.117.234.257.297.421.062.168.093.344.093.532 0 .117-.011.226-.03.328-.012.093-.04.187-.079.281a2.749 2.749 0 0 1-.156.297 2.42 2.42 0 0 1-.234.297 3.877 3.877 0 0 1-.297.328c-.118.125-.246.262-.391.406l-.438.438a16.056 16.056 0 0 0-.828.89 2.679 2.679 0 0 0-.296.375zm0 0"/></symbol><symbol overflow="visible" id="v"><path d="M.75-4.375v-.875c.352-.145.68-.254.984-.328.301-.07.594-.11.875-.11.239 0 .457.028.657.079.207.043.382.117.53.218.157.106.274.235.36.391.082.148.125.32.125.516 0 .187-.027.355-.078.5a1.297 1.297 0 0 1-.25.39c-.117.117-.25.219-.406.313-.156.094-.34.187-.547.281v.047c.195.031.379.09.547.172.164.074.312.172.437.297.133.117.239.25.313.406.07.156.11.328.11.515 0 .231-.048.45-.141.657-.086.199-.215.37-.391.515a1.94 1.94 0 0 1-.656.344c-.25.082-.547.125-.89.125-.282 0-.563-.027-.845-.078a7.375 7.375 0 0 1-.796-.219v-.953h.562c.05.149.11.274.172.375a.983.983 0 0 0 .219.266c.093.062.195.11.312.14.113.024.238.032.375.032.383 0 .672-.086.86-.266.195-.176.296-.445.296-.813 0-.394-.132-.69-.39-.89-.25-.195-.633-.297-1.14-.297h-.376v-.422c.3-.02.563-.062.781-.125.227-.07.414-.164.563-.281.156-.113.27-.25.344-.406.07-.157.109-.317.109-.485 0-.281-.086-.5-.25-.656-.168-.164-.406-.25-.719-.25-.273 0-.5.074-.687.219-.18.148-.313.367-.407.656zm0 0"/></symbol></defs><use xlink:href="#a" x="4.63" y="8.745"/><use xlink:href="#b" x="8.778" y="8.745"/><use xlink:href="#c" x="12.951" y="8.745"/><use xlink:href="#d" x="20.016" y="8.745"/><use xlink:href="#e" x="26.209" y="8.745"/><use xlink:href="#f" x="33.155" y="8.745"/><use xlink:href="#g" x="42.432" y="8.745"/><use xlink:href="#h" x="54.686" y="8.745"/><use xlink:href="#i" x="59.648" y="8.745"/><use xlink:href="#j" x="68.925" y="8.745"/><use xlink:href="#k" x="80.51" y="8.745"/><use xlink:href="#l" x="85.531" y="8.745"/><use xlink:href="#m" x="93.146" y="8.745"/><use xlink:href="#k" x="104.731" y="8.745"/><use xlink:href="#n" x=".287" y="26.179"/><use xlink:href="#o" x="6.049" y="26.179"/><use xlink:href="#p" x="12.852" y="26.179"/><use xlink:href="#e" x="20.025" y="26.179"/><use xlink:href="#f" x="26.971" y="26.179"/><use xlink:href="#d" x="32.925" y="26.179"/><use xlink:href="#g" x="42.441" y="26.179"/><use xlink:href="#h" x="54.695" y="26.179"/><use xlink:href="#i" x="59.657" y="26.179"/><use xlink:href="#j" x="68.934" y="26.179"/><use xlink:href="#k" x="80.518" y="26.179"/><use xlink:href="#l" x="85.528" y="26.179"/><use xlink:href="#q" x="90.482" y="21.801"/><use xlink:href="#m" x="98.669" y="26.179"/><use xlink:href="#r" x="110.254" y="26.179"/><use xlink:href="#s" x="119.531" y="26.179"/><use xlink:href="#h" x="125.556" y="26.179"/><use xlink:href="#i" x="130.518" y="26.179"/><use xlink:href="#j" x="139.795" y="26.179"/><use xlink:href="#k" x="151.391" y="26.179"/><use xlink:href="#l" x="156.401" y="26.179"/><use xlink:href="#s" x="164.016" y="26.179"/><use xlink:href="#k" x="170.053" y="26.179"/><use xlink:href="#m" x="177.717" y="26.179"/><use xlink:href="#k" x="189.301" y="26.179"/><use xlink:href="#q" x="194.194" y="21.801"/><use xlink:href="#t" x="9.318" y="43.614"/><use xlink:href="#p" x="15.188" y="43.614"/><use xlink:href="#u" x="22.361" y="43.614"/><use xlink:href="#b" x="29.068" y="43.614"/><use xlink:href="#t" x="33.228" y="43.614"/><use xlink:href="#g" x="42.434" y="43.614"/><use xlink:href="#h" x="54.688" y="43.614"/><use xlink:href="#i" x="59.649" y="43.614"/><use xlink:href="#j" x="68.927" y="43.614"/><use xlink:href="#k" x="80.511" y="43.614"/><use xlink:href="#l" x="85.52" y="43.614"/><use xlink:href="#v" x="90.482" y="39.236"/><use xlink:href="#m" x="98.669" y="43.614"/><use xlink:href="#w" x="110.254" y="43.614"/><use xlink:href="#s" x="119.531" y="43.614"/><use xlink:href="#h" x="125.556" y="43.614"/><use xlink:href="#i" x="130.518" y="43.614"/><use xlink:href="#j" x="139.795" y="43.614"/><use xlink:href="#k" x="151.391" y="43.614"/><use xlink:href="#l" x="156.401" y="43.614"/><use xlink:href="#q" x="161.361" y="39.236"/><use xlink:href="#s" x="169.548" y="43.614"/><use xlink:href="#k" x="175.573" y="43.614"/><use xlink:href="#m" x="183.237" y="43.614"/><use xlink:href="#w" x="194.833" y="43.614"/><use xlink:href="#s" x="204.11" y="43.614"/><use xlink:href="#h" x="210.136" y="43.614"/><use xlink:href="#i" x="215.097" y="43.614"/><use xlink:href="#j" x="224.375" y="43.614"/><use xlink:href="#k" x="235.971" y="43.614"/><use xlink:href="#l" x="240.98" y="43.614"/><g><use xlink:href="#s" x="248.596" y="43.614"/></g><g><use xlink:href="#k" x="254.621" y="43.614"/></g><g><use xlink:href="#q" x="259.516" y="39.236"/></g><g><use xlink:href="#m" x="267.703" y="43.614"/></g><g><use xlink:href="#k" x="279.288" y="43.614"/></g><g><use xlink:href="#v" x="284.183" y="39.236"/></g></svg>