<svg xmlns="http://www.w3.org/2000/svg" xmlns:xlink="http://www.w3.org/1999/xlink" width="284" height="40" viewBox="0 0 213 30"><defs><symbol overflow="visible" id="a"><path d="M7.781-7.953c-.922-.344-1.593-.484-2.328-.484a5 5 0 0 0-2.797.859C1.25-6.641.531-5.218.531-3.391.531-1.078 1.812.22 4.094.22c1.156 0 1.984-.281 3.078-1.016l.125-.437-.125-.079c-1.125.688-1.75.891-2.672.891-1.89 0-2.906-1.14-2.906-3.265 0-1.344.406-2.516 1.125-3.25.562-.579 1.328-.875 2.281-.875.86 0 1.469.171 2.14.609v1h.313c.063-.688.156-1.203.328-1.75zm0 0"/></symbol><symbol overflow="visible" id="b"><path d="M8.125-3.938c-.016-.124-.031-.25-.031-.359 0-.125.015-.25.031-.36H.953c.031.11.031.235.031.36 0 .11 0 .234-.03.36zm0 2.626c-.016-.125-.031-.235-.031-.36s.015-.234.031-.36H.953a1.4 1.4 0 0 1 .031.36c0 .125 0 .234-.03.36zm0 0"/></symbol><symbol overflow="visible" id="c"><path d="M6.047-8.031c-.547-.281-1-.406-1.578-.406-.89 0-1.782.374-2.422 1-.5.5-.75 1.109-.75 1.812 0 1.016.453 1.578 1.453 1.813l1.14.28c.657.157.97.563.97 1.25C4.86-1.14 4-.358 2.765-.358 2.125-.36 1.672-.5 1.14-.875v-1.188H.78C.72-1.405.641-.859.5-.234a4.132 4.132 0 0 0 1.86.453c1.843 0 3.437-1.39 3.437-3.016 0-.937-.516-1.453-1.719-1.703l-.781-.172c-.781-.172-1.14-.61-1.14-1.406 0-1.031.796-1.781 1.89-1.781.594 0 .984.156 1.344.53v.907h.359c.047-.64.125-1.094.297-1.61zm0 0"/></symbol><symbol overflow="visible" id="d"><path d="M8.125-2.625c-.016-.125-.031-.25-.031-.36 0-.124.015-.25.031-.359H4.906v-3.234c-.125.031-.25.047-.36.047-.124 0-.25-.016-.359-.047v3.234H.954c.031.11.031.235.031.36 0 .109 0 .234-.03.359h3.234V.594c.109-.016.234-.031.359-.031.11 0 .234.015.36.03v-3.218zm0 0"/></symbol><symbol overflow="visible" id="e"><path d="M4.86-1.016l-.094-.25c-.079.079-.094.079-.157.125-.375.329-.562.438-.734.438-.125 0-.188-.094-.188-.281 0-.063 0-.094.016-.125l1.11-4.532-.125-.109-.391.219c-.469-.188-.703-.235-1.016-.235-.344 0-.578.063-.906.22-.75.374-1.125.734-1.438 1.312C.422-3.172.047-1.75.047-.781c0 .5.187.906.406.906.25 0 .688-.25 1.14-.625.516-.438.985-1 1.641-1.938L2.891-.921a2.882 2.882 0 0 0-.063.61c0 .28.094.437.281.437.266 0 .766-.328 1.75-1.14zM3.811-4.953c-.265 1.281-.484 1.906-.89 2.516-.656 1-1.406 1.734-1.797 1.734-.14 0-.219-.156-.219-.485 0-.765.313-2.093.735-3.078.28-.687.578-.906 1.156-.906.281 0 .5.047 1.015.219zm0 0"/></symbol><symbol overflow="visible" id="f"><path d="M2.39-2.984c0-.438-.28-.72-.718-.72-.422 0-.719.282-.719.72 0 .421.297.718.719.718.437 0 .719-.296.719-.718zm0 0"/></symbol><symbol overflow="visible" id="g"><path d="M6.969-17.094c-.078-.031-.125-.078-.188-.14a.735.735 0 0 1-.14-.188c-3.063 3.047-4.938 7.219-4.938 12.063v4.75c0 4.828 1.875 9 4.938 12.062a.427.427 0 0 1 .14-.187c.063-.063.11-.11.188-.157C4.047 8.172 2.672 4.031 2.672-.609v-4.75c0-4.641 1.375-8.797 4.297-11.735zm0 0"/></symbol><symbol overflow="visible" id="h"><path d="M5.563-4.375c0-2.625-.782-3.86-2.422-3.86-1.844 0-2.797 1.47-2.797 4.36 0 1.406.25 2.61.672 3.188.421.593 1.093.921 1.828.921 1.812 0 2.719-1.546 2.719-4.609zm-1.016.594c0 2.547-.453 3.61-1.547 3.61-1.156 0-1.656-1.22-1.656-4.126 0-2.531.453-3.516 1.578-3.516 1.172 0 1.625 1.172 1.625 4.032zm0 0"/></symbol><symbol overflow="visible" id="i"><path d="M5 .031v-.36l-.625-.03c-.656-.032-.781-.172-.781-.782v-7.093l-.156-.063c-.782.406-1.626.766-2.72 1.156l.079.5h.125l1.547-.687.031-.016c.063 0 .094.11.094.407v5.796c0 .61-.125.75-.781.782l-.672.03v.36L3.125 0zm0 0"/></symbol><symbol overflow="visible" id="j"><path d="M6.406-.61v-4.75c0-4.843-1.86-9.015-4.922-12.062a.735.735 0 0 1-.14.188.595.595 0 0 1-.203.14C4.094-14.156 5.453-10 5.453-5.359v4.75c0 4.64-1.36 8.78-4.312 11.718.078.047.14.094.203.157.062.046.11.109.14.187C4.547 8.391 6.406 4.22 6.406-.609zm0 0"/></symbol><symbol overflow="visible" id="k"><path d="M2.61-1.297l-.172-.172c-.329.11-.532.172-1.172.36C1.187-.203.89.578.187 1.719l.172.14.485-.234c.969-1.25 1.422-2 1.765-2.922zm0 0"/></symbol><symbol overflow="visible" id="l"><path d="M6.813-8.234c-.266-.032-.547-.032-.829-.032l-2.812.032-1.922-.032-.031.329.64.03c.297 0 .422.095.422.298 0 .187-.031.546-.11.921L1.142-.655c-.047.219-.204.297-.72.375L.36.03 2.203 0l2.688.031C5.92.031 5.67.016 6.14 0l.046-.438c.063-.5.157-1 .25-1.484h-.312l-.203.719c-.094.422-.203.562-.453.625-.235.047-1.078.11-1.797.11-.5 0-.813-.016-1.563-.079 0-.14 0-.281.016-.422L2.641-4h1.406c1.5 0 1.203.047 1.578.063l.219-.547-.047-.079-2.625.063h-.438l.5-2.844c.047-.187.063-.281.11-.375.672-.031.375-.031 1.562-.047.766 0 1.266.11 1.282.282l.093 1.062h.282c.03-.766.125-1.36.25-1.812zm0 0"/></symbol><symbol overflow="visible" id="m"><path d="M5.172-4.5c0-.453-.11-.922-.25-1.094-.078-.11-.234-.172-.422-.172-.281 0-.64.094-.969.266-.61.328-1.015.688-1.75 1.625l1.032-4.75-.141-.14c-.625.312-1.063.421-1.922.5l-.047.25h.578c.282 0 .407.093.407.296 0 .078-.016.219-.032.282L.453-.845c-.016.031-.016.078-.016.11 0 .468.579.859 1.235.859.437 0 1.047-.219 1.562-.594C4.391-1.28 5.172-2.922 5.172-4.5zm-.86.297c0 .766-.25 1.781-.609 2.562-.39.829-.875 1.204-1.515 1.204-.547 0-.844-.266-.844-.766 0-.297.047-.64.156-1.078.219-.953.516-1.531.984-2.031.391-.407 1.016-.75 1.36-.75.312 0 .469.265.469.859zm0 0"/></symbol><symbol overflow="visible" id="n"><path d="M8.125-2.625c-.016-.125-.031-.25-.031-.36 0-.124.015-.25.031-.359H.953c.031.11.031.235.031.36 0 .109 0 .234-.03.359zm0 0"/></symbol><symbol overflow="visible" id="o"><path d="M4.125-5.438c-.469-.234-.797-.328-1.203-.328-.61 0-1.344.344-1.922.938-.313.328-.438.625-.438 1.047 0 .672.375 1.062 1.157 1.219l.75.14c.531.094.719.297.719.766 0 .797-.547 1.312-1.391 1.312-.438 0-.797-.14-1.125-.422v-1H.375C.312-1.156.235-.734.109-.187.563.03.97.124 1.391.124c.578 0 1.125-.203 1.734-.688.61-.484.875-.921.875-1.515 0-.64-.375-1-1.281-1.156l-.5-.094c-.719-.14-.953-.344-.953-.828 0-.64.53-1.125 1.218-1.125.485 0 .954.218 1.141.531v.656h.266c.046-.406.109-.734.234-1.343zm0 0"/></symbol><symbol overflow="visible" id="p"><path d="M2.875-1.016l-.11-.218-.312.203c-.36.25-.61.36-.734.36-.078 0-.157-.11-.157-.235 0-.125.016-.219.094-.485l.907-3.625c.062-.203.078-.328.078-.437 0-.203-.094-.313-.297-.313-.266 0-.688.25-1.61.891l-.328.234.078.235.391-.25c.344-.219.469-.266.578-.266.11 0 .203.11.203.25 0 .094-.047.344-.11.531l-.78 2.86c-.11.39-.157.687-.157.922 0 .28.125.468.36.468.312 0 .75-.265 1.906-1.125zm.297-6.5c0-.296-.172-.5-.422-.5-.36 0-.688.407-.688.813 0 .297.172.484.47.484.374 0 .64-.343.64-.797zm0 0"/></symbol><symbol overflow="visible" id="q"><path d="M6.14-1.016l-.109-.218-.312.203c-.36.234-.61.36-.735.36-.078 0-.156-.11-.156-.235 0-.063.016-.188.031-.235l.782-3.312a4.47 4.47 0 0 0 .125-.875c0-.281-.125-.438-.36-.438-.5 0-1.328.454-2.031 1.11-.453.422-.797.828-1.422 1.703l.469-1.922c.047-.219.062-.36.062-.484 0-.266-.093-.407-.265-.407-.266 0-.719.266-1.594.891l-.344.234.094.235.375-.25c.438-.282.484-.297.563-.297.14 0 .218.125.218.297 0 .61-.484 2.922-.984 4.625l.094.14c.296-.078.562-.156.828-.203.234-1.515.484-2.281 1.031-3.11.656-1 1.547-1.75 2.078-1.75.125 0 .203.11.203.298 0 .203-.031.453-.125.843L4.031-1.28c-.11.437-.156.718-.156.906 0 .297.125.484.36.484.312 0 .734-.25 1.906-1.125zm0 0"/></symbol><symbol overflow="visible" id="r"><path d="M4.11-7.61a.735.735 0 0 1-.188-.14c-.063-.063-.11-.11-.14-.188-1.47 1.47-2.345 3.032-2.345 4.563v.781c0 1.516.875 3.078 2.344 4.547a.735.735 0 0 1 .14-.187.735.735 0 0 1 .188-.141C2.781.281 2.156-1.203 2.156-2.594v-.781c0-1.39.625-2.89 1.953-4.234zm0 0"/></symbol><symbol overflow="visible" id="s"><path d="M7.297-3.953c0-.297-.047-.547-.14-.766-.141-.36-.626-1.047-.938-1.047-.282 0-.594.094-.86.235-.453.265-1.03.703-1.343 1.031-.125.14-.22.36-.266.563L2.969-.329c-.938-.11-1.485-.61-1.453-1.484.062-1.329.953-2.797 1.906-3.297a2.5 2.5 0 0 1 .594-.157c.125-.109.109-.109.187-.218-.031-.141-.078-.141-.11-.141-.265 0-.75.219-1.124.406C1.516-4.53.688-3.312.609-1.812.547-.532 1.281.125 2.672.125h.219l-.672 2.656-.11.453.079.063c.25-.078.484-.14.874-.203L3.688.016c.578-.141 1.156-.36 1.624-.672 1.11-.703 1.922-2.063 1.985-3.297zm-.922.187c-.063 1.157-.781 2.422-1.64 3.047a2.33 2.33 0 0 1-.97.375l.329-1.422c.172-.953.562-2.89.843-3.125.157-.171.5-.28.891-.28.328 0 .578.765.547 1.405zm0 0"/></symbol><symbol overflow="visible" id="t"><path d="M3.64-2.594v-.781c0-1.531-.874-3.094-2.343-4.563-.047.079-.094.125-.156.188a.427.427 0 0 1-.188.14c1.328 1.344 1.969 2.844 1.969 4.235v.781c0 1.39-.64 2.875-1.969 4.219.078.031.14.078.188.14.062.063.109.126.156.188C2.766.484 3.64-1.078 3.64-2.594zm0 0"/></symbol><symbol overflow="visible" id="u"><path d="M4.656-5.469c-.312-.203-.703-.297-1.156-.297-.531 0-1.39.422-2.063 1.016C.75-4.14.298-2.906.298-1.625c0 1.14.5 1.75 1.453 1.75.656 0 1.219-.234 1.89-.766l.594-.5-.093-.234-.188.125c-.86.563-1.312.766-1.734.766-.672 0-1.016-.47-1.016-1.422 0-1.266.406-2.5.984-2.953.25-.22.547-.313.938-.313.531 0 .969.219.969.516v.718h.265c.094-.78.188-1.218.297-1.53zm0 0"/></symbol><symbol overflow="visible" id="v"><path d="M4.906-3.953c0-1.125-.593-1.813-1.578-1.813-.515 0-1.078.204-1.625.594-.969.688-1.5 1.89-1.5 3.36C.203-.548.734.125 1.734.125c.657 0 1.375-.297 1.907-.813.75-.703 1.265-2.062 1.265-3.265zM4-3.766c0 1.141-.36 2.422-.89 3.047-.22.25-.532.39-.891.39-.703 0-1.11-.53-1.11-1.484 0-1.343.47-2.812 1.047-3.296.156-.125.438-.204.719-.204.734 0 1.125.547 1.125 1.547zm0 0"/></symbol></defs><use xlink:href="#a" x="-.331" y="18.067"/><use xlink:href="#b" x="11.098" y="18.067"/><use xlink:href="#c" x="23.508" y="18.067"/><use xlink:href="#d" x="32.809" y="18.067"/><use xlink:href="#e" x="44.561" y="18.067"/><use xlink:href="#f" x="52.523" y="18.067"/><use xlink:href="#g" x="58.524" y="18.067"/><use xlink:href="#h" x="66.649" y="10.745"/><use xlink:href="#i" x="66.649" y="25.19"/><use xlink:href="#j" x="72.627" y="18.067"/><use xlink:href="#k" x="85.718" y="18.067"/><use xlink:href="#a" x="96.681" y="18.067"/><use xlink:href="#b" x="108.122" y="18.067"/><use xlink:href="#l" x="120.52" y="18.067"/><use xlink:href="#d" x="130.49" y="18.067"/><use xlink:href="#m" x="142.23" y="18.067"/><use xlink:href="#f" x="150.419" y="18.067"/><use xlink:href="#g" x="156.421" y="18.067"/><use xlink:href="#n" x="164.549" y="10.745"/><use xlink:href="#o" x="173.635" y="10.745"/><use xlink:href="#p" x="178.286" y="10.745"/><use xlink:href="#q" x="181.8" y="10.745"/><use xlink:href="#r" x="188.447" y="10.745"/><use xlink:href="#s" x="193.516" y="10.745"/><use xlink:href="#t" x="201.144" y="10.745"/><g><use xlink:href="#u" x="169.027" y="25.19"/></g><g><use xlink:href="#v" x="174" y="25.19"/><use xlink:href="#o" x="179.308" y="25.19"/><use xlink:href="#r" x="183.959" y="25.19"/><use xlink:href="#s" x="189.028" y="25.19"/><use xlink:href="#t" x="196.655" y="25.19"/></g><g><use xlink:href="#j" x="206.213" y="18.067"/></g></svg>