<svg xmlns="http://www.w3.org/2000/svg" xmlns:xlink="http://www.w3.org/1999/xlink" width="422pt" height="60" viewBox="0 0 422 45"><defs><symbol overflow="visible" id="a"><path d="M4.64 17.938v.64H1.329v-44.016h3.313v.641H2.547v42.734zm0 0"/></symbol><symbol overflow="visible" id="b"><path d="M4.078-1.531c0 .23.008.402.031.515a.68.68 0 0 0 .141.282.572.572 0 0 0 .266.171c.125.043.273.075.453.094.187.024.43.04.734.047V0H1.375v-.422A8.17 8.17 0 0 0 2.297-.5c.187-.04.328-.094.422-.156a.516.516 0 0 0 .219-.281c.05-.125.078-.32.078-.594v-4.75c0-.157-.032-.27-.094-.344a.282.282 0 0 0-.235-.11c-.124 0-.304.07-.53.204-.231.125-.516.304-.86.531l-.25-.453 2.734-1.64h.328a27.34 27.34 0 0 0-.03 1.562zm0 0"/></symbol><symbol overflow="visible" id="c"><path d="M3.266.094c-.844 0-1.477-.332-1.891-1C.957-1.57.75-2.578.75-3.922c0-.719.063-1.336.188-1.86.132-.53.316-.96.546-1.296.227-.344.5-.598.813-.766.32-.164.676-.25 1.062-.25.852 0 1.489.336 1.907 1 .414.657.625 1.653.625 2.985 0 1.386-.227 2.433-.672 3.14C4.769-.258 4.117.094 3.266.094zM1.906-4.11c0 1.28.114 2.218.344 2.812.238.594.61.89 1.11.89.468 0 .816-.28 1.046-.843.227-.563.344-1.426.344-2.594 0-.906-.063-1.633-.188-2.187-.117-.563-.277-.961-.484-1.203-.21-.239-.46-.36-.75-.36-.273 0-.5.086-.687.25-.18.157-.325.387-.438.688a4.958 4.958 0 0 0-.234 1.093c-.043.43-.063.915-.063 1.454zm0 0"/></symbol><symbol overflow="visible" id="d"><path d="M.875-3.047v-.781h7.219v.781zm0 0"/></symbol><symbol overflow="visible" id="e"><path d="M2.063-2.969c0 1.367.218 2.492.656 3.375.445.895 1.117 1.492 2.015 1.797l-.14.453C3.457 2.352 2.582 1.703 1.969.703c-.606-.988-.907-2.191-.907-3.61 0-1.405.301-2.609.907-3.609.613-1 1.488-1.648 2.625-1.953l.172.453c-.918.305-1.602.891-2.047 1.766-.438.867-.656 1.96-.656 3.281zm0 0"/></symbol><symbol overflow="visible" id="f"><path d="M4.86-1.64L4.5 0H.266L.14-.281l3.218-3.703c.446-.52.774-.891.985-1.11l-.032-.031H2.938c-.199 0-.343.016-.437.047a.792.792 0 0 0-.281.14c-.094.063-.2.165-.313.297a4.167 4.167 0 0 0-.36.579h-.515l.344-1.547h4.172l.11.296-2.798 3.22A169.64 169.64 0 0 1 1.453-.517l.031.047h1.329c.226 0 .406-.008.53-.031a.852.852 0 0 0 .329-.156c.094-.07.187-.176.281-.313.102-.144.235-.367.39-.672zm0 0"/></symbol><symbol overflow="visible" id="g"><path d="M2.906-2.969c0-1.32-.219-2.414-.656-3.281A3.389 3.389 0 0 0 .219-8.016l.156-.453c1.145.305 2.02.953 2.625 1.953.613 1 .922 2.204.922 3.61 0 1.418-.309 2.62-.922 3.61-.605 1-1.48 1.648-2.625 1.952l-.14-.453C1.14 1.898 1.812 1.301 2.25.406c.438-.883.656-2.008.656-3.375zm0 0"/></symbol><symbol overflow="visible" id="i"><path d="M4.11-.938c.195 0 .35-.007.468-.03a.85.85 0 0 0 .281-.126.55.55 0 0 0 .172-.203c.04-.094.094-.234.157-.422h.484L5.578 0H.75v-.281c.176-.406.406-.82.688-1.25.28-.438.687-.946 1.218-1.532.446-.5.77-.878.969-1.14.219-.281.379-.52.484-.719.114-.207.192-.398.235-.578.05-.188.078-.367.078-.547 0-.3-.047-.562-.14-.781a1.13 1.13 0 0 0-.438-.531c-.188-.125-.43-.188-.719-.188-.742 0-1.234.406-1.484 1.219H.937v-1.125c.47-.227.907-.39 1.313-.484.414-.102.79-.157 1.125-.157.719 0 1.266.164 1.64.485.376.312.563.773.563 1.375 0 .21-.023.402-.062.578-.043.18-.11.351-.204.515a3.255 3.255 0 0 1-.359.547c-.148.2-.308.399-.484.594-.18.2-.485.531-.922 1-.75.793-1.297 1.48-1.64 2.063zm0 0"/></symbol><symbol overflow="visible" id="j"><path d="M1.688-4.14c.207 0 .375.07.5.202.124.126.187.297.187.516 0 .211-.063.383-.188.516a.678.678 0 0 1-.5.187c-.199 0-.359-.062-.484-.187a.722.722 0 0 1-.187-.516c0-.219.062-.39.187-.515a.636.636 0 0 1 .484-.204zm0 0"/></symbol><symbol overflow="visible" id="k"><path d="M.266 18.578v-.64h2.078v-42.735H.266v-.64h3.296v44.015zm0 0"/></symbol><symbol overflow="visible" id="l"><path d="M4.453-8a5 5 0 0 1 1.14.11c.302.074.548.187.735.343.195.149.344.336.438.563.101.23.156.496.156.796 0 .594-.14 1.106-.422 1.532-.281.43-.664.746-1.14.953-.47.2-1.04.297-1.704.297-.398 0-.726-.004-.984-.016l-.375 1.719a2.22 2.22 0 0 0-.078.375c-.012.086-.024.18-.031.281-.012.094-.016.18-.016.25a.76.76 0 0 0 .047.297c.039.063.097.11.172.14a1.8 1.8 0 0 0 .421.079L2.75 0H.328l.078-.281a.872.872 0 0 0 .328-.125.7.7 0 0 0 .188-.219 1.95 1.95 0 0 0 .14-.344c.04-.133.102-.394.188-.781l1-4.516c.082-.382.125-.691.125-.921 0-.188-.047-.317-.14-.391-.087-.07-.227-.117-.422-.14L1.875-8zM3.375-3.922c.469 0 .848-.047 1.14-.14.29-.094.532-.243.72-.454.187-.207.327-.453.421-.734.102-.281.157-.586.157-.922 0-.445-.118-.773-.344-.984-.23-.219-.61-.328-1.14-.328-.243 0-.497.007-.766.015l-.797 3.547zm0 0"/></symbol><symbol overflow="visible" id="o"><path d="M.875-4.25v-.781h7.219v.781zm0 2.422v-.781h7.219v.78zm7.469-1.594zm0 0"/></symbol><symbol overflow="visible" id="p"><path d="M4.906-3.047V.328h-.843v-3.375H.874v-.781h3.188v-3.375h.843v3.375h3.188v.781zm0 0"/></symbol><symbol overflow="visible" id="h"><path d="M3.188-.719c.132 0 .242-.004.328-.015a.498.498 0 0 0 .203-.063.386.386 0 0 0 .14-.156c.04-.07.086-.172.141-.297h.406c-.023.21-.039.418-.047.625-.011.21-.027.418-.046.625H.592v-.234C.665-.391.75-.54.844-.688c.095-.156.196-.312.313-.468.125-.164.258-.332.407-.5.144-.164.312-.344.5-.532.269-.269.488-.5.656-.687.176-.195.312-.375.406-.531.102-.156.172-.297.203-.422a1.408 1.408 0 0 0 0-.828.835.835 0 0 0-.187-.313.624.624 0 0 0-.297-.203 1.005 1.005 0 0 0-.406-.078c-.282 0-.516.074-.704.219-.18.148-.32.36-.421.64H.734v-.859a5.539 5.539 0 0 1 1.032-.328c.32-.07.609-.11.859-.11.3 0 .563.04.781.11.219.062.39.152.516.266.133.117.234.257.297.421.062.168.093.344.093.532 0 .117-.011.226-.03.328-.012.093-.04.187-.079.281a2.749 2.749 0 0 1-.156.297 2.42 2.42 0 0 1-.234.297 3.877 3.877 0 0 1-.297.328c-.118.125-.246.262-.391.406l-.438.438a16.056 16.056 0 0 0-.828.89 2.679 2.679 0 0 0-.296.375zm0 0"/></symbol><symbol overflow="visible" id="m"><path d="M3.219-1.156v.234c.008.063.02.121.031.172a.252.252 0 0 0 .047.11c.02.03.047.058.078.078.04.042.086.074.14.093.063.012.133.028.22.047.093.012.203.024.328.031.132 0 .289.008.468.016V0H1.047v-.375c.176-.008.32-.016.437-.016.125-.007.227-.02.313-.03L2-.47a.53.53 0 0 0 .125-.062 1.36 1.36 0 0 0 .11-.094.237.237 0 0 0 .062-.11c.02-.05.035-.109.047-.171a2.25 2.25 0 0 0 .015-.25v-3.157c0-.113-.023-.19-.062-.234a.233.233 0 0 0-.188-.078c-.093 0-.23.047-.406.14-.18.094-.406.235-.687.423-.043-.07-.079-.141-.11-.204-.031-.07-.07-.14-.11-.203.364-.195.724-.394 1.079-.593l1.094-.594h.265a5.867 5.867 0 0 0-.015.437v.719zm0 0"/></symbol><symbol overflow="visible" id="n"><path d="M.75-4.375v-.875c.352-.145.68-.254.984-.328.301-.07.594-.11.875-.11.239 0 .457.028.657.079.207.043.382.117.53.218.157.106.274.235.36.391.082.148.125.32.125.516 0 .187-.027.355-.078.5a1.297 1.297 0 0 1-.25.39c-.117.117-.25.219-.406.313-.156.094-.34.187-.547.281v.047c.195.031.379.09.547.172.164.074.312.172.437.297.133.117.239.25.313.406.07.156.11.328.11.515 0 .231-.048.45-.141.657-.086.199-.215.37-.391.515a1.94 1.94 0 0 1-.656.344c-.25.082-.547.125-.89.125-.282 0-.563-.027-.845-.078a7.375 7.375 0 0 1-.796-.219v-.953h.562c.05.149.11.274.172.375a.983.983 0 0 0 .219.266c.093.062.195.11.312.14.113.024.238.032.375.032.383 0 .672-.086.86-.266.195-.176.296-.445.296-.813 0-.394-.132-.69-.39-.89-.25-.195-.633-.297-1.14-.297h-.376v-.422c.3-.02.563-.062.781-.125.227-.07.414-.164.563-.281.156-.113.27-.25.344-.406.07-.157.109-.317.109-.485 0-.281-.086-.5-.25-.656-.168-.164-.406-.25-.719-.25-.273 0-.5.074-.687.219-.18.148-.313.367-.407.656zm0 0"/></symbol></defs><use xlink:href="#a" x="-.959" y="25.967"/><use xlink:href="#b" x="23.463" y="10.998"/><use xlink:href="#c" x="94.118" y="10.998"/><use xlink:href="#c" x="147.678" y="10.998"/><use xlink:href="#d" x="3.921" y="25.444"/><use xlink:href="#e" x="12.852" y="25.444"/><use xlink:href="#f" x="17.813" y="25.444"/><use xlink:href="#d" x="26.445" y="25.444"/><use xlink:href="#b" x="38.029" y="25.444"/><use xlink:href="#g" x="44.652" y="25.444"/><use xlink:href="#f" x="94.436" y="25.444"/><use xlink:href="#c" x="147.678" y="25.444"/><use xlink:href="#e" x="5.622" y="39.89"/><use xlink:href="#f" x="10.583" y="39.89"/><use xlink:href="#d" x="19.215" y="39.89"/><use xlink:href="#b" x="30.8" y="39.89"/><use xlink:href="#g" x="37.423" y="39.89"/><use xlink:href="#h" x="42.394" y="35.512"/><use xlink:href="#d" x="59.587" y="39.89"/><use xlink:href="#i" x="68.518" y="39.89"/><use xlink:href="#j" x="77.795" y="39.89"/><use xlink:href="#e" x="83.82" y="39.89"/><use xlink:href="#f" x="88.782" y="39.89"/><use xlink:href="#d" x="97.413" y="39.89"/><use xlink:href="#b" x="108.998" y="39.89"/><use xlink:href="#g" x="115.621" y="39.89"/><use xlink:href="#j" x="123.248" y="39.89"/><use xlink:href="#f" x="129.274" y="39.89"/><use xlink:href="#f" x="145.21" y="39.89"/><use xlink:href="#h" x="151.214" y="35.512"/><use xlink:href="#k" x="156.745" y="25.967"/><use xlink:href="#j" x="164.281" y="25.97"/><use xlink:href="#a" x="170.312" y="25.967"/><use xlink:href="#l" x="175.192" y="10.998"/><use xlink:href="#m" x="180.271" y="13.439"/><use xlink:href="#l" x="175.192" y="25.444"/><use xlink:href="#h" x="180.271" y="27.884"/><use xlink:href="#l" x="175.192" y="39.89"/><use xlink:href="#n" x="180.271" y="42.33"/><use xlink:href="#k" x="185.801" y="25.967"/><use xlink:href="#o" x="194.002" y="25.97"/><use xlink:href="#a" x="206.254" y="25.967"/><use xlink:href="#l" x="309.302" y="10.999"/><use xlink:href="#m" x="314.381" y="13.439"/><use xlink:href="#f" x="266.81" y="25.444"/><use xlink:href="#j" x="275.442" y="25.444"/><use xlink:href="#l" x="281.467" y="25.444"/><use xlink:href="#h" x="286.56" y="27.884"/><use xlink:href="#d" x="294.747" y="25.444"/><use xlink:href="#e" x="306.332" y="25.444"/><use xlink:href="#f" x="311.293" y="25.444"/><use xlink:href="#d" x="319.925" y="25.444"/><use xlink:href="#b" x="331.509" y="25.444"/><use xlink:href="#g" x="338.132" y="25.444"/><use xlink:href="#j" x="345.748" y="25.444"/><use xlink:href="#l" x="351.785" y="25.444"/><use xlink:href="#m" x="356.873" y="27.884"/><use xlink:href="#f" x="211.135" y="39.89"/><use xlink:href="#h" x="217.118" y="35.512"/><use xlink:href="#j" x="225.305" y="39.89"/><use xlink:href="#l" x="231.33" y="39.89"/><use xlink:href="#n" x="236.414" y="42.33"/><use xlink:href="#d" x="244.601" y="39.89"/><use xlink:href="#i" x="256.186" y="39.89"/><use xlink:href="#j" x="265.463" y="39.89"/><use xlink:href="#f" x="271.488" y="39.89"/><use xlink:href="#j" x="280.132" y="39.89"/><use xlink:href="#e" x="286.157" y="39.89"/><use xlink:href="#f" x="291.119" y="39.89"/><use xlink:href="#d" x="299.75" y="39.89"/><use xlink:href="#b" x="311.335" y="39.89"/><use xlink:href="#g" x="317.958" y="39.89"/><g><use xlink:href="#j" x="325.586" y="39.89"/></g><g><use xlink:href="#l" x="331.611" y="39.89"/></g><g><use xlink:href="#h" x="336.705" y="42.33"/></g><g><use xlink:href="#p" x="344.892" y="39.89"/></g><g><use xlink:href="#e" x="356.477" y="39.89"/><use xlink:href="#f" x="361.438" y="39.89"/></g><g><use xlink:href="#d" x="370.07" y="39.89"/></g><g><use xlink:href="#b" x="381.654" y="39.89"/><use xlink:href="#g" x="388.277" y="39.89"/></g><g><use xlink:href="#h" x="393.252" y="35.512"/></g><g><use xlink:href="#j" x="401.439" y="39.89"/></g><g><use xlink:href="#l" x="407.464" y="39.89"/></g><g><use xlink:href="#m" x="412.548" y="42.33"/></g><g><use xlink:href="#k" x="418.079" y="25.967"/></g></svg>