<svg xmlns:xlink="http://www.w3.org/1999/xlink" width="52.167ex" height="2.667ex" style="vertical-align: -0.667ex; margin-left: 0ex; margin-right: 0ex; margin-bottom: 1px; margin-top: 1px;" viewBox="0 -904.8 22444.4 1176.8" xmlns="http://www.w3.org/2000/svg">
<defs>
<path stroke-width="10" id="E1-LATINMODERNNORMAL-1D435" d="M756 545c0 -95 -105 -169 -209 -188c97 -11 155 -69 155 -141c0 -98 -118 -216 -276 -216h-357c-18 0 -27 0 -27 11c0 20 10 20 27 20c79 0 81 8 91 47l134 537c3 12 4 15 4 19c0 13 -9 14 -27 16c-17 2 -38 2 -38 2c-19 0 -28 0 -28 11c0 20 10 20 29 20h336 c120 0 186 -64 186 -138zM665 549c0 44 -21 103 -109 103h-129c-43 0 -45 -3 -54 -38l-62 -248h146c122 0 208 95 208 183zM609 227c0 43 -19 117 -115 117h-189l-69 -279c-5 -18 -5 -20 -5 -23c0 -8 3 -9 13 -10c6 -1 8 -1 22 -1h136c118 0 207 97 207 196Z"></path>
<path stroke-width="10" id="E1-LATINMODERNMAIN-28" d="M332 -238c0 -5 -5 -10 -10 -10c-2 0 -4 1 -6 2c-110 83 -215 283 -215 454v84c0 171 105 371 215 454c2 1 4 2 6 2c5 0 10 -5 10 -10c0 -3 -2 -6 -4 -8c-104 -78 -173 -278 -173 -438v-84c0 -160 69 -360 173 -438c2 -2 4 -5 4 -8Z"></path>
<path stroke-width="10" id="E1-LATINMODERNNORMAL-1D461" d="M330 420c0 -20 -10 -20 -30 -20h-94l-74 -295c-4 -17 -6 -24 -6 -48c0 -33 10 -46 31 -46c34 0 87 24 130 128c5 11 6 14 15 14c4 0 12 0 12 -10c0 -8 -57 -154 -159 -154c-54 0 -92 38 -92 92c0 18 4 35 76 319h-88c-20 0 -28 0 -28 12c0 19 10 19 30 19h94l39 159 c9 35 37 36 40 36c17 0 29 -10 29 -27c0 -6 -5 -26 -41 -168h88c18 0 28 0 28 -11Z"></path>
<path stroke-width="10" id="E1-LATINMODERNMAIN-29" d="M288 208c0 -171 -105 -371 -215 -454c-2 -1 -4 -2 -6 -2c-5 0 -10 5 -10 10c0 3 2 6 4 8c104 78 173 278 173 438v84c0 160 -69 360 -173 438c-2 2 -4 5 -4 8c0 5 5 10 10 10c2 0 4 -1 6 -2c110 -83 215 -283 215 -454v-84Z"></path>
<path stroke-width="10" id="E1-LATINMODERNMAIN-3D" d="M722 347c0 -11 -9 -20 -20 -20h-626c-11 0 -20 9 -20 20s9 20 20 20h626c11 0 20 -9 20 -20zM722 153c0 -11 -9 -20 -20 -20h-626c-11 0 -20 9 -20 20s9 20 20 20h626c11 0 20 -9 20 -20Z"></path>
<path stroke-width="10" id="E1-LATINMODERNMAIN-31" d="M419 0c-35 3 -122 3 -162 3s-127 0 -162 -3v31h32c90 0 93 12 93 48v518c-52 -26 -111 -26 -131 -26v31c32 0 120 0 182 64c23 0 23 -2 23 -26v-561c0 -37 3 -48 93 -48h32v-31Z"></path>
<path stroke-width="10" id="E1-LATINMODERNMAIN-2212" d="M722 250c0 -11 -9 -20 -20 -20h-626c-11 0 -20 9 -20 20s9 20 20 20h626c11 0 20 -9 20 -20Z"></path>
<path stroke-width="10" id="E1-LATINMODERNMAIN-33" d="M457 171c0 -102 -91 -193 -213 -193c-109 0 -202 66 -202 157c0 44 32 58 56 58c29 0 56 -20 56 -56c0 -38 -31 -60 -66 -55c35 -59 110 -76 153 -76c44 0 113 29 113 165c0 98 -37 166 -119 166h-44c-17 0 -24 0 -24 11c0 10 7 11 15 12c7 0 31 2 39 3c25 1 59 4 89 52 c26 44 28 102 28 114c0 90 -55 112 -96 112c-36 0 -102 -13 -133 -62c15 0 62 0 62 -50c0 -29 -20 -51 -51 -51c-29 0 -51 19 -51 52c0 76 76 136 177 136c96 0 184 -56 184 -138c0 -79 -58 -149 -140 -176c104 -21 167 -99 167 -181Z"></path>
<path stroke-width="10" id="E1-LATINMODERNMAIN-2B" d="M722 250c0 -11 -9 -20 -20 -20h-293v-293c0 -11 -9 -20 -20 -20s-20 9 -20 20v293h-293c-11 0 -20 9 -20 20s9 20 20 20h293v293c0 11 9 20 20 20s20 -9 20 -20v-293h293c11 0 20 -9 20 -20Z"></path>
<path stroke-width="10" id="E1-LATINMODERNMAIN-22C5" d="M192 250c0 -29 -24 -53 -53 -53s-53 24 -53 53s24 53 53 53s53 -24 53 -53Z"></path>
<path stroke-width="10" id="E1-LATINMODERNMAIN-32" d="M449 174l-28 -174h-371c0 24 0 26 11 37l192 214c55 62 105 141 105 221c0 82 -43 163 -134 163c-58 0 -112 -37 -135 -102c3 1 5 1 13 1c35 0 53 -26 53 -52c0 -41 -35 -53 -52 -53c-3 0 -53 0 -53 56c0 89 74 181 187 181c122 0 212 -80 212 -194 c0 -100 -60 -154 -216 -292l-106 -103h180c22 0 88 0 95 8c10 15 17 59 22 89h25Z"></path>
</defs>
<g stroke="currentColor" fill="currentColor" stroke-width="0" transform="matrix(1 0 0 -1 0 0)">
 <use xlink:href="#E1-LATINMODERNNORMAL-1D435" x="0" y="0"></use>
 <use xlink:href="#E1-LATINMODERNMAIN-28" x="764" y="0"></use>
 <use xlink:href="#E1-LATINMODERNNORMAL-1D461" x="1158" y="0"></use>
 <use xlink:href="#E1-LATINMODERNMAIN-29" x="1524" y="0"></use>
 <use xlink:href="#E1-LATINMODERNMAIN-3D" x="2195" y="0"></use>
 <use xlink:href="#E1-LATINMODERNMAIN-28" x="3256" y="0"></use>
 <use xlink:href="#E1-LATINMODERNMAIN-31" x="3650" y="0"></use>
 <use xlink:href="#E1-LATINMODERNMAIN-2212" x="4377" y="0"></use>
 <use xlink:href="#E1-LATINMODERNNORMAL-1D461" x="5383" y="0"></use>
<g transform="translate(5749,0)">
 <use xlink:href="#E1-LATINMODERNMAIN-29" x="0" y="0"></use>
 <use transform="scale(0.707)" xlink:href="#E1-LATINMODERNMAIN-33" x="557" y="583"></use>
</g>
 <use xlink:href="#E1-LATINMODERNMAIN-2B" x="6822" y="0"></use>
 <use xlink:href="#E1-LATINMODERNMAIN-33" x="7827" y="0"></use>
 <use xlink:href="#E1-LATINMODERNMAIN-22C5" x="8554" y="0"></use>
 <use xlink:href="#E1-LATINMODERNMAIN-28" x="9059" y="0"></use>
 <use xlink:href="#E1-LATINMODERNMAIN-31" x="9453" y="0"></use>
 <use xlink:href="#E1-LATINMODERNMAIN-2212" x="10181" y="0"></use>
 <use xlink:href="#E1-LATINMODERNNORMAL-1D461" x="11186" y="0"></use>
<g transform="translate(11552,0)">
 <use xlink:href="#E1-LATINMODERNMAIN-29" x="0" y="0"></use>
 <use transform="scale(0.707)" xlink:href="#E1-LATINMODERNMAIN-32" x="557" y="583"></use>
</g>
 <use xlink:href="#E1-LATINMODERNMAIN-22C5" x="12625" y="0"></use>
 <use xlink:href="#E1-LATINMODERNNORMAL-1D461" x="13130" y="0"></use>
 <use xlink:href="#E1-LATINMODERNMAIN-2B" x="13719" y="0"></use>
 <use xlink:href="#E1-LATINMODERNMAIN-33" x="14724" y="0"></use>
 <use xlink:href="#E1-LATINMODERNMAIN-22C5" x="15451" y="0"></use>
 <use xlink:href="#E1-LATINMODERNMAIN-28" x="15956" y="0"></use>
 <use xlink:href="#E1-LATINMODERNMAIN-31" x="16350" y="0"></use>
 <use xlink:href="#E1-LATINMODERNMAIN-2212" x="17078" y="0"></use>
 <use xlink:href="#E1-LATINMODERNNORMAL-1D461" x="18083" y="0"></use>
 <use xlink:href="#E1-LATINMODERNMAIN-29" x="18449" y="0"></use>
 <use xlink:href="#E1-LATINMODERNMAIN-22C5" x="19065" y="0"></use>
<g transform="translate(19570,0)">
 <use xlink:href="#E1-LATINMODERNNORMAL-1D461" x="0" y="0"></use>
 <use transform="scale(0.707)" xlink:href="#E1-LATINMODERNMAIN-32" x="517" y="583"></use>
</g>
 <use xlink:href="#E1-LATINMODERNMAIN-2B" x="20616" y="0"></use>
<g transform="translate(21621,0)">
 <use xlink:href="#E1-LATINMODERNNORMAL-1D461" x="0" y="0"></use>
 <use transform="scale(0.707)" xlink:href="#E1-LATINMODERNMAIN-33" x="517" y="583"></use>
</g>
</g>
</svg>