<svg xmlns="http://www.w3.org/2000/svg" xmlns:xlink="http://www.w3.org/1999/xlink" width="316pt" height="41pt" viewBox="0 0 316 41"><defs><symbol overflow="visible" id="a"><path d="M6.813-6.844c0-.984-1.094-1.687-2.016-1.687-.594 0-1.203.031-1.797.031l-1.938-.047-.062.61.797.03c.281 0 .266-.03.266.188 0 .172-.047.547-.11.907L.922-.782C.89-.577.875-.624.25-.531L.14.048A21.28 21.28 0 0 1 1.407 0c.64 0 1.266.031 1.922.031.563 0 1.219-.156 1.781-.5.954-.562 1.516-1.469 1.516-2.375 0-.515-.203-1-.531-1.265-.313-.25-.766-.391-1.594-.516v.266c.688-.25 1.063-.438 1.453-.75.531-.485.86-1.125.86-1.735zM5.296-2.656c0 1.234-.734 1.984-1.922 1.984-.25 0-.594-.015-.984-.047-.079-.015-.22-.015-.25-.031l.562-3.313h.906c1.235 0 1.688.375 1.688 1.407zm.219-3.985c0 1.266-.75 1.891-2.235 1.891h-.453l.531-3.016c.22 0 .532-.062.844-.062.969 0 1.313.297 1.313 1.187zm0 0"/></symbol><symbol overflow="visible" id="b"><path d="M4.203-7.828a.735.735 0 0 1-.187-.14c-.063-.063-.11-.126-.22-.329-1.593 1.61-2.5 3.266-2.5 4.781v.797c0 1.516.907 3.172 2.5 4.781.11-.203.157-.265.22-.328.062-.062.125-.109.312-.203C2.875.063 2.281-1.344 2.281-2.719v-.797c0-1.39.594-2.78 2.047-4.25zm0 0"/></symbol><symbol overflow="visible" id="c"><path d="M3.703-5.516c-.453.047-.86.063-1.156.063.172-.984.297-1.578.531-2.25l-.25-.328a7.16 7.16 0 0 1-1.094.531l-.296 2.031c-.391.203-.704.328-1.063.407l-.047.406h1l-.64 3.25C.625-1.11.53-.813.53-.5c0 .297.266.61.5.61.422 0 .922-.282 1.86-1.032.218-.172.14-.125.437-.36l-.25-.437-.672.469c-.36.25-.484.313-.625.313-.093 0-.031.046-.031-.11 0-.297.156-1.234.516-3l.14-.61h1.266l.203-.89zm0 0"/></symbol><symbol overflow="visible" id="d"><path d="M3.766-2.719v-.797c0-1.515-.907-3.171-2.516-4.78-.11.202-.156.265-.203.327-.063.063-.125.11-.313.203 1.438 1.47 2.032 2.86 2.032 4.25v.797c0 1.375-.594 2.781-2.032 4.25.188.094.25.14.313.203.047.063.094.125.203.329C2.86.452 3.766-1.204 3.766-2.72zm0 0"/></symbol><symbol overflow="visible" id="e"><path d="M8.266-4.078a1.419 1.419 0 0 1-.047-.36c0-.109.015-.234.062-.484h-7.5c.063.25.063.375.063.484 0 .125 0 .235-.063.5h7.5zm0 2.625a1.332 1.332 0 0 1-.047-.36c0-.109.015-.234.062-.484h-7.5c.063.25.063.375.063.485 0 .125 0 .25-.063.5h7.5zm0 0"/></symbol><symbol overflow="visible" id="f"><path d="M4.406-9.766c-.015-.078-.031-.156-.031-.234 0-.094.016-.172.078-.375H1.375V4.141h3.078c-.062-.204-.078-.297-.078-.375 0-.079.016-.172.078-.375H2.437V-9.641h2.016zm0 0"/></symbol><symbol overflow="visible" id="g"><path d="M5.125-.094v-.484l-.75-.047c-.656-.031-.64-.031-.64-.656v-7.172l-.313-.125c-.875.469-1.61.781-2.86 1.219l.125.718h.235l1.547-.687.031-.016c.063 0-.047-.015-.047.266v5.797c0 .625.016.625-.64.656L1-.578v.625L3.125 0l2 .047zm0 0"/></symbol><symbol overflow="visible" id="i"><path d="M3.906 4v-14.375H.828c.063.203.078.281.078.375 0 .078-.015.156-.078.36h2.016V3.39H.828c.063.204.078.297.078.376 0 .078-.015.171-.078.375h3.078zm0 0"/></symbol><symbol overflow="visible" id="j"><path d="M2.516-3.125c0-.422-.407-.844-.844-.844-.422 0-.86.422-.86.844 0 .438.438.86.86.86.437 0 .844-.422.844-.86zm0 0"/></symbol><symbol overflow="visible" id="k"><path d="M11.234-8.531c-.328.015-.671.031-1 .031-.343 0-.671-.016-1.078-.047-.25.485-.031.172-1.047 1.906L5.172-1.594l.25.094-1.844-7.047c-.422.031-.75.047-1.094.047-.328 0-.671-.016-1.125-.047l-.062.61.469.03c.625.048.703.032.703.345a.693.693 0 0 1-.047.234L.687-1.25C.516-.625.47-.594-.327-.531l-.047.578L1.109 0C1.547 0 2 .016 2.547.047l.062-.594-.593-.047c-.391-.047-.47-.015-.47-.187 0-.125.032-.281.095-.5l1.484-5.547h-.281L4.656.219h.453l.72-1.282 2.843-4.953.625-1.03-.235-.095-.437 6.204c-.031.343-.047.28-.672.343l-.5.047-.047.594L9.156 0l1.703.047.063-.594-.578-.047C9.906-.64 9.813-.64 9.828-.89l.016-.437.484-6.344c.016-.234.078-.219.422-.234l.563-.032.062-.609zm0 0"/></symbol><symbol overflow="visible" id="l"><path d="M8.469.469H8.03c-.078.781-.203.937-.687.937-.203 0-.422-.062-.735-.172L3.797.078C3.484-.032 3.28-.078 3-.078c-.89 0-1.688.734-1.64 1.64l.25.094s-.25.016-.22.203l.548.297c0-1.156.156-1.453.78-1.453.36 0 .579.063 1.048.313l1.734.906c.719.375 1.031.484 1.516.484.89 0 1.453-.656 1.593-1.937zm.61-5.688c0-2.125-1.376-3.484-3.532-3.484-2.828 0-5.063 2.312-5.063 5.328C.484-1.125 1.75.219 3.86.219c1.016 0 1.97-.266 2.735-.75C8.109-1.47 9.078-3.328 9.078-5.22zm-1.329.203c0 1.5-.453 2.75-1.266 3.594-.578.594-1.25.875-2.187.875-1.719 0-2.484-.906-2.484-2.89 0-1.563.453-2.86 1.265-3.688.563-.578 1.188-.813 2.094-.813.578 0 1.062.11 1.453.344.781.453 1.125 1.266 1.125 2.578zm0 0"/></symbol><symbol overflow="visible" id="m"><path d="M5.078-14.781H1.562V0h1.235v-14.031h2.469c-.079-.203-.094-.281-.094-.375 0-.078.016-.172.094-.375zm0 0"/></symbol><symbol overflow="visible" id="n"><path d="M2.672-9.938h-1.11V0h1.235v-9.938zm0 0"/></symbol><symbol overflow="visible" id="o"><path d="M5.219-.125a.648.648 0 0 1-.047-.25c0-.078.016-.156.094-.36h-2.47V-14.78H1.564V0h3.703zm0 0"/></symbol><symbol overflow="visible" id="p"><path d="M7.234-6.594c0-1.218-1.265-1.937-2.312-1.937-.547 0-1.094.031-1.64.031l-2.126-.047-.062.61.812.03c.297 0 .282-.03.282.188 0 .172-.047.532-.11.907l-.89 5.187C1-.531 1.125-.641.64-.594l-.61.031-.093.61L1.688 0l1.78.047.063-.61-.922-.03c-.312-.016-.296.015-.296-.235 0-.11 0-.188.046-.422l.97-5.813-.032.094s.078-.343.14-.578c.016-.062.047-.172.063-.203.328-.063.516-.094.75-.094 1.219 0 1.656.39 1.656 1.516 0 1.281-.718 2.203-1.765 2.203-.266 0-.5-.063-1.11-.281l.047.625c.578.281.813.344 1.172.344 1.531 0 2.984-1.532 2.984-3.157zm0 0"/></symbol><symbol overflow="visible" id="s"><path d="M4.656-.125v-14.656H.953c.078.203.094.297.094.375 0 .094-.016.172-.094.375h2.469V0h1.234zm0 0"/></symbol><symbol overflow="visible" id="t"><path d="M4.656-.125v-9.813H3.422V0h1.234zm0 0"/></symbol><symbol overflow="visible" id="u"><path d="M4.656-.125v-14.656H3.422V-.734H.953c.078.203.094.28.094.359 0 .094-.016.172-.094.375h3.703zm0 0"/></symbol><symbol overflow="visible" id="v"><path d="M7.063-14.328l-.188-.14c-.063-.063-.11-.126-.219-.329C3.47-11.609 1.563-7.344 1.563-2.516V0h1.234v-2.516c0-4.625 1.344-8.687 4.39-11.75zm0 0"/></symbol><symbol overflow="visible" id="w"><path d="M2.797-.125V-5H1.562v5h1.235zm0 0"/></symbol><symbol overflow="visible" id="x"><path d="M7.063-.563C4.14-3.5 2.796-7.546 2.796-12.187v-2.516H1.562v2.515c0 4.829 1.907 9.094 5.094 12.282.11-.203.157-.266.219-.328.063-.047.125-.094.313-.203zm0 0"/></symbol><symbol overflow="visible" id="z"><path d="M6.531-.125v-2.39c0-4.829-1.875-9.094-5.078-12.282-.11.203-.156.266-.219.328-.062.047-.125.094-.312.203 3.062 3.063 4.39 7.125 4.39 11.75V0h1.22zm0 0"/></symbol><symbol overflow="visible" id="A"><path d="M6.531-.125V-5H5.313v5H6.53zm0 0"/></symbol><symbol overflow="visible" id="B"><path d="M6.531-12.188v-2.515H5.313v2.515C5.313-7.546 3.984-3.5.921-.438c.187.11.25.157.312.204.063.062.11.125.22.328C4.655-3.094 6.53-7.36 6.53-12.187zm0 0"/></symbol><symbol overflow="visible" id="h"><path d="M4.75-.11c-.016-.187-.016-.265-.016-.39s0-.203.032-.547l-3.141.094 1.5-1.469c.938-.922 1.281-1.5 1.281-2.172 0-1.015-.906-1.781-2.14-1.781-.688 0-1.282.219-1.782.703l-.187 1.39h.547l.172-.53c.156-.516.359-.61 1-.61.843 0 1.203.344 1.203 1.094 0 .672-.36 1.234-1.453 2.297L.078-.391v.422L2.406 0l2.36.031zm0 0"/></symbol><symbol overflow="visible" id="q"><path d="M4.281-.11V-.5l-.656-.031c-.531-.031-.484.015-.484-.453v-5.344l-.282-.094c-.625.313-1.312.578-2.375.906l.125.594h.22l1.25-.516h.03c.047 0-.078-.062-.078.157v4.297c0 .468.047.421-.469.453L.86-.5v.531L2.61 0l1.672.031zm0 0"/></symbol><symbol overflow="visible" id="r"><path d="M4.703-2.125c0-.422-.234-.89-.578-1.11a2.69 2.69 0 0 0-.719-.296c.531-.36.875-.875.875-1.39 0-.798-.875-1.454-1.937-1.454-.656 0-1.203.203-1.703.656L.312-4.406h.594l.219-.64c.11-.298.563-.47 1.078-.47.61 0 .969.344.969.907 0 .656-.406 1.078-1.094 1.078-.078 0-.344.203-.344.203l-.265-.094-.125.531.203.141c.39-.172.578-.203.844-.203.796 0 1.093.328 1.093 1.14 0 .907-.421 1.36-1.328 1.36-.437 0-.719-.094-1.015-.344C.906-1 .828-1.094.578-1.75l-.531.188c.234.609.312.937.375 1.468C1.078.11 1.5.172 1.875.172c.766 0 1.75-.422 2.281-1.016.328-.375.547-.86.547-1.281zm0 0"/></symbol><symbol overflow="visible" id="y"><path d="M2.61-4.672l-.22-.203-1.093.39-.89 3.376.312.234.5-.266 1.453-3.468zm0 0"/></symbol></defs><use xlink:href="#a" x=".432" y="23.29"/><use xlink:href="#b" x="7.737" y="23.29"/><use xlink:href="#c" x="12.806" y="23.29"/><use xlink:href="#d" x="16.846" y="23.29"/><use xlink:href="#e" x="25.227" y="23.29"/><use xlink:href="#f" x="37.637" y="23.29"/><use xlink:href="#g" x="42.939" y="23.3"/><use xlink:href="#c" x="58.875" y="23.3"/><use xlink:href="#c" x="72.875" y="23.3"/><use xlink:href="#h" x="76.924" y="19.068"/><use xlink:href="#i" x="82.424" y="23.29"/><use xlink:href="#j" x="90.374" y="23.29"/><use xlink:href="#k" x="96.376" y="23.29"/><use xlink:href="#j" x="110.602" y="23.29"/><use xlink:href="#l" x="116.604" y="23.29"/><use xlink:href="#j" x="128.571" y="23.29"/><use xlink:href="#m" x="134.577" y="15.297"/><use xlink:href="#n" x="134.577" y="22.592"/><use xlink:href="#n" x="134.577" y="27.694"/><use xlink:href="#o" x="134.577" y="39.819"/><use xlink:href="#p" x="140.805" y="8.745"/><use xlink:href="#q" x="148.11" y="11.518"/><use xlink:href="#p" x="140.805" y="23.19"/><use xlink:href="#h" x="148.11" y="25.964"/><use xlink:href="#p" x="140.805" y="37.636"/><use xlink:href="#r" x="148.11" y="40.41"/><use xlink:href="#s" x="153.61" y="15.297"/><use xlink:href="#t" x="153.61" y="22.592"/><use xlink:href="#t" x="153.61" y="27.694"/><use xlink:href="#u" x="153.61" y="39.819"/><use xlink:href="#e" x="163.16" y="23.29"/><use xlink:href="#f" x="175.558" y="23.29"/><use xlink:href="#g" x="180.863" y="23.3"/><use xlink:href="#c" x="196.799" y="23.3"/><use xlink:href="#c" x="210.799" y="23.3"/><use xlink:href="#h" x="214.847" y="19.068"/><use xlink:href="#i" x="220.348" y="23.29"/><use xlink:href="#j" x="228.298" y="23.29"/><use xlink:href="#k" x="234.3" y="23.29"/><use xlink:href="#j" x="248.526" y="23.29"/><use xlink:href="#v" x="254.538" y="15.225"/><use xlink:href="#w" x="254.538" y="19.189"/><use xlink:href="#w" x="254.538" y="22.668"/><use xlink:href="#w" x="254.538" y="26.147"/><use xlink:href="#x" x="254.538" y="39.819"/><use xlink:href="#l" x="262.656" y="23.29"/><use xlink:href="#y" x="271.957" y="19.058"/><use xlink:href="#j" x="278.184" y="23.29"/><use xlink:href="#m" x="284.188" y="15.297"/><use xlink:href="#n" x="284.188" y="22.592"/><use xlink:href="#n" x="284.188" y="27.694"/><use xlink:href="#o" x="284.188" y="39.819"/><use xlink:href="#p" x="290.417" y="8.744"/><use xlink:href="#q" x="297.721" y="11.518"/><use xlink:href="#p" x="290.417" y="23.19"/><use xlink:href="#h" x="297.721" y="25.964"/><use xlink:href="#p" x="290.417" y="37.636"/><use xlink:href="#r" x="297.721" y="40.41"/><use xlink:href="#s" x="303.222" y="15.297"/><use xlink:href="#t" x="303.222" y="22.592"/><use xlink:href="#t" x="303.222" y="27.694"/><use xlink:href="#u" x="303.222" y="39.819"/><use xlink:href="#z" x="309.45" y="15.225"/><use xlink:href="#A" x="309.45" y="19.189"/><use xlink:href="#A" x="309.45" y="22.668"/><g><use xlink:href="#A" x="309.45" y="26.147"/></g><g><use xlink:href="#B" x="309.45" y="39.819"/></g></svg>