<svg xmlns="http://www.w3.org/2000/svg" xmlns:xlink="http://www.w3.org/1999/xlink" width="100pt" height="50pt" viewBox="0 0 100 50"><defs><symbol overflow="visible" id="a"><path d="M7.594-8.531L4.219-8.5l-3.5-.047-.235 2.235h.594l.219-.844c.047-.266.11-.36.172-.453.078-.079.437-.11.875-.11h1.172l-1 6.094c-.188 1.094-.079 1-.563 1.031l-.719.031-.093.61L3 0l1.703.047.063-.61-.844-.03c-.313-.016-.297.015-.297-.235 0-.11 0-.156.047-.422l1.094-6.469h.765c.938 0 1.219-.078 1.266.063.031.11.047.328.047.453l-.063.89h.594l.375-2.234zm0 0"/></symbol><symbol overflow="visible" id="c"><path d="M8.266-4.078a1.419 1.419 0 0 1-.047-.36c0-.109.015-.234.062-.484h-7.5c.063.25.063.375.063.484 0 .125 0 .235-.063.5h7.5zm0 2.625a1.332 1.332 0 0 1-.047-.36c0-.109.015-.234.062-.484h-7.5c.063.25.063.375.063.485 0 .125 0 .25-.063.5h7.5zm0 0"/></symbol><symbol overflow="visible" id="d"><path d="M5.078-14.781H1.562V0h1.235v-14.031h2.469c-.079-.203-.094-.281-.094-.375 0-.078.016-.172.094-.375zm0 0"/></symbol><symbol overflow="visible" id="e"><path d="M2.672-9.938h-1.11V0h1.235v-9.938zm0 0"/></symbol><symbol overflow="visible" id="f"><path d="M5.219-.125a.648.648 0 0 1-.047-.25c0-.078.016-.156.094-.36h-2.47V-14.78H1.564V0h3.703zm0 0"/></symbol><symbol overflow="visible" id="g"><path d="M5.125-.094v-.484l-.75-.047c-.656-.031-.64-.031-.64-.656v-7.172l-.313-.125c-.875.469-1.61.781-2.86 1.219l.125.718h.235l1.547-.687.031-.016c.063 0-.047-.015-.047.266v5.797c0 .625.016.625-.64.656L1-.578v.625L3.125 0l2 .047zm0 0"/></symbol><symbol overflow="visible" id="h"><path d="M8.266-2.766a1.332 1.332 0 0 1-.047-.359c0-.11.015-.234.062-.484h-7.5c.063.25.063.375.063.484 0 .125 0 .25-.063.5h7.5zm0 0"/></symbol><symbol overflow="visible" id="m"><path d="M5.688-4.5c0-2.625-.907-4-2.547-4C1.297-8.5.203-6.89.203-4c0 1.39.281 2.703.703 3.281.422.594 1.203.953 1.938.953 1.812 0 2.844-1.687 2.844-4.734zm-1.282.594C4.406-1.36 4.094-.437 3-.437c-1.156 0-1.516-1.079-1.516-4 0-2.516.313-3.375 1.438-3.375 1.172 0 1.484 1.03 1.484 3.906zm0 0"/></symbol><symbol overflow="visible" id="n"><path d="M4.656-.125v-14.656H.953c.078.203.094.297.094.375 0 .094-.016.172-.094.375h2.469V0h1.234zm0 0"/></symbol><symbol overflow="visible" id="o"><path d="M4.656-.125v-9.813H3.422V0h1.234zm0 0"/></symbol><symbol overflow="visible" id="p"><path d="M4.656-.125v-14.656H3.422V-.734H.953c.078.203.094.28.094.359 0 .094-.016.172-.094.375h3.703zm0 0"/></symbol><symbol overflow="visible" id="b"><path d="M4.75-.11c-.016-.187-.016-.265-.016-.39s0-.203.032-.547l-3.141.094 1.5-1.469c.938-.922 1.281-1.5 1.281-2.172 0-1.015-.906-1.781-2.14-1.781-.688 0-1.282.219-1.782.703l-.187 1.39h.547l.172-.53c.156-.516.359-.61 1-.61.843 0 1.203.344 1.203 1.094 0 .672-.36 1.234-1.453 2.297L.078-.391v.422L2.406 0l2.36.031zm0 0"/></symbol><symbol overflow="visible" id="i"><path d="M7.797-6.39l-1.094.015-1.469-.031-.046.531.625.016c.296 0 .218-.016.171.218L5.313-1.75c-.704.781-1.36 1.14-2.188 1.14-.828 0-1.188-.265-1.188-.89 0-.172 0-.266.063-.531l.875-4.39c-.469.046-.75.046-1.047.046-.281 0-.562 0-1-.031l-.062.531.671.016c.25 0 .172-.079.172.062 0 .094-.03.313-.062.516L.922-1.953c-.031.187-.047.39-.047.531C.875-.5 1.672.172 2.75.172c.438 0 .828-.094 1.297-.313.562-.265.969-.5 1.484-1.03l-.265-.11c-.079.406-.141.64-.282 1.172l.157.14C5.5.016 5.78 0 6.062 0c.282 0 .563.016.938.031l.11-.515-.75-.032c-.235-.03-.157.063-.157-.062 0-.14 0-.156.047-.5l.828-4.484c.047-.344-.031-.266.344-.297l.484-.032.047-.515zm0 0"/></symbol><symbol overflow="visible" id="j"><path d="M3.906-.125c-.031-.14-.031-.203-.031-.297 0-.094 0-.156.047-.469l-2.844.079.11.265 1.39-1.281c.75-.672 1.031-1.14 1.031-1.625 0-.766-.765-1.39-1.734-1.39-.563 0-1.047.187-1.469.546L.234-3.172h.532l.156-.453c.125-.39.234-.406.75-.406.656 0 .906.203.906.765 0 .5-.265.875-1.125 1.657L.078-.375v.406L1.968 0l1.954.031zm0 0"/></symbol><symbol overflow="visible" id="k"><path d="M3.969-3.375c-.094-.047-.266-.11-.344-.11-.313 0-.734.282-1.203.891l-.297.36.297.109-.047-.313c-.094-.64-.469-1.046-.922-1.046-.203 0-.5.109-.562.187l-.563.703.39.203c.329-.296.36-.343.5-.343.266 0 .25.109.391.765l.079.375-.25.328c-.329.438-.485.594-.688.594-.125 0-.047.14-.047.11l-.172-.36-.406.047c0 .281-.016.36-.063.578-.015.078-.015.094-.046.219.296.125.421.156.515.156.25 0 .672-.25.906-.547l.375-.484.016.062c.11.563.438.97.719.97.172 0 .531-.157.781-.36l.453-.344-.203-.406c-.453.328-.531.375-.656.375-.11 0-.094-.016-.172-.156-.078-.125-.11-.25-.14-.438l-.141-.625.219-.266c.359-.421.453-.53.687-.53.125 0 .047-.095.156.171l.344-.078.156-.75zm0 0"/></symbol><symbol overflow="visible" id="l"><path d="M4.016-3.375L3.844-3.5a2.55 2.55 0 0 1-.719.156l-.313 1.016c-.093.312-.312.672-.562 1-.281.328-.531.578-.703.578-.172 0 .016-.156.016-.25l.125-1.266c.015-.203.015-.453.015-.64 0-.297-.203-.578-.344-.578-.093 0-.312.093-.687.312l-.735.438.235.359.562-.297c.047-.015.032-.031.079-.031.203 0 0 .187 0 .297L.671-.812v.265c-.016.281.312.625.5.625.281 0 1.047-.61 1.625-1.36L2.5-1.374 2.125-.25C1.735.906 1.531 1.234.985 1.234c-.266 0-.313-.03-.313-.25 0-.03 0-.093.031-.234L.422.64l-.5.313c-.016.125-.016.172-.016.203 0 .282.453.657.797.657.813 0 1.828-.97 2.281-2.188l1.094-2.953zm0 0"/></symbol></defs><use xlink:href="#a" x=".372" y="29.396"/><use xlink:href="#b" x="7.677" y="32.17"/><use xlink:href="#c" x="16.498" y="29.396"/><use xlink:href="#d" x="28.905" y="17.637"/><use xlink:href="#e" x="28.905" y="26.778"/><use xlink:href="#e" x="28.905" y="35.721"/><use xlink:href="#f" x="28.905" y="49.692"/><use xlink:href="#g" x="35.134" y="14.079"/><use xlink:href="#h" x="51.07" y="14.079"/><use xlink:href="#i" x="61.355" y="6.759"/><use xlink:href="#j" x="69.04" y="8.813"/><use xlink:href="#k" x="73.652" y="9.596"/><path d="M61.355 11.09h16.907" fill="none" stroke-width=".717" stroke="#000" stroke-miterlimit="10"/><use xlink:href="#i" x="61.355" y="18.637"/><use xlink:href="#j" x="69.04" y="20.692"/><use xlink:href="#l" x="73.652" y="21.475"/><use xlink:href="#m" x="89.421" y="14.079"/><use xlink:href="#m" x="35.134" y="33.403"/><use xlink:href="#g" x="62.272" y="33.403"/><use xlink:href="#m" x="89.411" y="33.403"/><use xlink:href="#m" x="35.134" y="47.849"/><use xlink:href="#m" x="62.272" y="47.849"/><use xlink:href="#g" x="89.411" y="47.849"/><use xlink:href="#n" x="95.399" y="17.637"/><use xlink:href="#o" x="95.399" y="26.778"/><use xlink:href="#o" x="95.399" y="35.721"/><use xlink:href="#p" x="95.399" y="49.692"/></svg>