<svg xmlns="http://www.w3.org/2000/svg" xmlns:xlink="http://www.w3.org/1999/xlink" width="97pt" height="53pt" viewBox="0 0 97 53"><defs><symbol overflow="visible" id="a"><path d="M3.5 0H1.031l.063-.281a1.91 1.91 0 0 0 .343-.094.537.537 0 0 0 .188-.188c.063-.082.117-.21.172-.39.062-.176.129-.442.203-.797l1.266-5.734h-.75c-.243 0-.434.039-.579.109a1.322 1.322 0 0 0-.437.39c-.148.188-.324.508-.531.954H.406L.844-8h6.125l-.453 2.063h-.563a8.74 8.74 0 0 0-.031-.844c-.024-.196-.063-.344-.125-.438-.055-.101-.121-.172-.203-.203-.074-.039-.211-.062-.407-.062h-.875l-1.265 5.78c-.043.15-.07.266-.078.36a6.315 6.315 0 0 0-.031.297c-.012.094-.016.18-.016.25a.76.76 0 0 0 .047.297c.039.063.097.11.172.14a1.8 1.8 0 0 0 .421.079zm0 0"/></symbol><symbol overflow="visible" id="c"><path d="M.875-4.25v-.781h7.219v.781zm0 2.422v-.781h7.219v.78zm7.469-1.594zm0 0"/></symbol><symbol overflow="visible" id="d"><path d="M4.797 22.219H1.344v-51.297h3.453v.672H2.625v49.953h2.172zm0 0"/></symbol><symbol overflow="visible" id="e"><path d="M4.078-1.531c0 .23.008.402.031.515a.68.68 0 0 0 .141.282.572.572 0 0 0 .266.171c.125.043.273.075.453.094.187.024.43.04.734.047V0H1.375v-.422A8.17 8.17 0 0 0 2.297-.5c.187-.04.328-.094.422-.156a.516.516 0 0 0 .219-.281c.05-.125.078-.32.078-.594v-4.75c0-.157-.032-.27-.094-.344a.282.282 0 0 0-.235-.11c-.124 0-.304.07-.53.204-.231.125-.516.304-.86.531l-.25-.453 2.734-1.64h.328a27.34 27.34 0 0 0-.03 1.562zm0 0"/></symbol><symbol overflow="visible" id="f"><path d="M.875-3.047v-.781h7.219v.781zm0 0"/></symbol><symbol overflow="visible" id="k"><path d="M3.266.094c-.844 0-1.477-.332-1.891-1C.957-1.57.75-2.578.75-3.922c0-.719.063-1.336.188-1.86.132-.53.316-.96.546-1.296.227-.344.5-.598.813-.766.32-.164.676-.25 1.062-.25.852 0 1.489.336 1.907 1 .414.657.625 1.653.625 2.985 0 1.386-.227 2.433-.672 3.14C4.769-.258 4.117.094 3.266.094zM1.906-4.11c0 1.28.114 2.218.344 2.812.238.594.61.89 1.11.89.468 0 .816-.28 1.046-.843.227-.563.344-1.426.344-2.594 0-.906-.063-1.633-.188-2.187-.117-.563-.277-.961-.484-1.203-.21-.239-.46-.36-.75-.36-.273 0-.5.086-.687.25-.18.157-.325.387-.438.688a4.958 4.958 0 0 0-.234 1.093c-.043.43-.063.915-.063 1.454zm0 0"/></symbol><symbol overflow="visible" id="l"><path d="M.266 21.547h2.171v-49.953H.267v-.672h3.453v51.297H.266zm0 0"/></symbol><symbol overflow="visible" id="b"><path d="M3.188-.719c.132 0 .242-.004.328-.015a.498.498 0 0 0 .203-.063.386.386 0 0 0 .14-.156c.04-.07.086-.172.141-.297h.406c-.023.21-.039.418-.047.625-.011.21-.027.418-.046.625H.592v-.234C.665-.391.75-.54.844-.688c.095-.156.196-.312.313-.468.125-.164.258-.332.407-.5.144-.164.312-.344.5-.532.269-.269.488-.5.656-.687.176-.195.312-.375.406-.531.102-.156.172-.297.203-.422a1.408 1.408 0 0 0 0-.828.835.835 0 0 0-.187-.313.624.624 0 0 0-.297-.203 1.005 1.005 0 0 0-.406-.078c-.282 0-.516.074-.704.219-.18.148-.32.36-.421.64H.734v-.859a5.539 5.539 0 0 1 1.032-.328c.32-.07.609-.11.859-.11.3 0 .563.04.781.11.219.062.39.152.516.266.133.117.234.257.297.421.062.168.093.344.093.532 0 .117-.011.226-.03.328-.012.093-.04.187-.079.281a2.749 2.749 0 0 1-.156.297 2.42 2.42 0 0 1-.234.297 3.877 3.877 0 0 1-.297.328c-.118.125-.246.262-.391.406l-.438.438a16.056 16.056 0 0 0-.828.89 2.679 2.679 0 0 0-.296.375zm0 0"/></symbol><symbol overflow="visible" id="g"><path d="M1.469-4.469c.07-.258.11-.457.11-.593 0-.125-.04-.211-.11-.266-.063-.063-.188-.094-.375-.094l.062-.281h1.875l-.062.266c-.094.03-.172.058-.235.078a.304.304 0 0 0-.156.125.843.843 0 0 0-.125.265 22.89 22.89 0 0 0-.125.532l-.515 2.312c-.032.148-.06.29-.079.422a2.495 2.495 0 0 0-.03.422c0 .617.327.922.984.922.226 0 .425-.032.593-.094.164-.07.305-.176.422-.313.125-.132.223-.3.297-.5.082-.195.156-.43.219-.703l.578-2.5c.031-.125.05-.234.062-.328.008-.101.016-.191.016-.266 0-.125-.04-.21-.11-.265-.062-.063-.183-.094-.359-.094l.063-.281H6.25l-.063.266a.621.621 0 0 0-.156.046.237.237 0 0 0-.11.063.827.827 0 0 0-.093.078.31.31 0 0 0-.062.11c-.032.105-.075.234-.125.39a7.849 7.849 0 0 0-.125.484c-.043.18-.09.368-.141.563-.043.2-.086.402-.125.61-.043.198-.086.398-.125.593-.043.188-.086.371-.125.547-.086.367-.195.68-.328.937a1.89 1.89 0 0 1-.484.641c-.2.168-.438.29-.72.36-.273.07-.585.109-.937.109-.543 0-.96-.117-1.25-.36C1-.516.86-.863.86-1.312c0-.333.055-.735.172-1.204zm0 0"/></symbol><symbol overflow="visible" id="h"><path d="M2.531-.563c.114 0 .203-.003.266-.015a.297.297 0 0 0 .14-.047.53.53 0 0 0 .094-.094c.02-.039.055-.125.11-.25h.343L3.422 0H.5v-.188c.102-.238.254-.476.453-.718.195-.239.422-.485.672-.735.313-.289.531-.507.656-.656.133-.156.235-.3.297-.437a.95.95 0 0 0 .094-.407c0-.226-.063-.406-.188-.53-.125-.134-.308-.204-.546-.204a.833.833 0 0 0-.532.172.91.91 0 0 0-.328.484H.594v-.672c.3-.125.578-.21.828-.265.25-.051.469-.078.656-.078.258 0 .473.03.64.093.177.055.317.125.423.22a.797.797 0 0 1 .218.327c.04.117.063.242.063.375 0 .156-.04.309-.11.453-.062.137-.171.29-.328.454-.148.167-.414.43-.796.78-.407.376-.704.7-.891.97zm0 0"/></symbol><symbol overflow="visible" id="i"><path d="M1.938-1.703l-.11-.484a5.164 5.164 0 0 0-.11-.454.834.834 0 0 0-.109-.28.294.294 0 0 0-.109-.126.237.237 0 0 0-.125-.031.345.345 0 0 0-.234.094 1.663 1.663 0 0 0-.266.359l-.297-.172c.145-.219.27-.379.375-.484a.948.948 0 0 1 .297-.235.88.88 0 0 1 .39-.078c.157 0 .286.047.391.14.102.087.18.235.235.454.062.21.113.434.156.672h.047l.344-.422c.144-.188.269-.332.374-.438a1.83 1.83 0 0 1 .266-.25.766.766 0 0 1 .235-.124c.082-.02.175-.032.28-.032.134 0 .255.024.36.063l-.187.719h-.329c-.011-.102-.046-.157-.109-.157a.468.468 0 0 0-.297.156 3.82 3.82 0 0 0-.312.313c-.125.137-.309.344-.547.625.05.262.101.512.156.75.063.242.11.402.14.484a.356.356 0 0 0 .11.157c.04.03.098.046.172.046.05 0 .098-.007.14-.03a.713.713 0 0 0 .157-.141c.05-.063.117-.16.203-.297l.281.172c-.148.23-.273.402-.375.515a.85.85 0 0 1-.312.235.941.941 0 0 1-.36.062.545.545 0 0 1-.265-.062.476.476 0 0 1-.188-.141 1.165 1.165 0 0 1-.14-.234 5.663 5.663 0 0 1-.125-.47 7.525 7.525 0 0 1-.079-.452h-.046c-.25.343-.45.601-.594.765a6.124 6.124 0 0 1-.36.36.782.782 0 0 1-.28.172.81.81 0 0 1-.313.062A.875.875 0 0 1 .109 0l.188-.703h.328c0 .105.035.156.11.156.05 0 .109-.02.171-.062.07-.04.188-.145.344-.313.156-.164.383-.426.688-.781zm0 0"/></symbol><symbol overflow="visible" id="j"><path d="M2.031-.031l-.187-1.14a19.484 19.484 0 0 0-.313-1.407c-.062-.227-.125-.375-.187-.438a.225.225 0 0 0-.157-.062.358.358 0 0 0-.156.031.717.717 0 0 0-.156.125 2 2 0 0 0-.219.297L.36-2.797c.145-.207.274-.367.391-.484.125-.114.238-.192.344-.235a.991.991 0 0 1 .406-.078c.125 0 .223.016.297.047.07.031.133.086.187.156a.746.746 0 0 1 .157.266c.05.105.097.266.14.484.051.211.102.5.156.875.063.368.114.727.157 1.079.351-.438.633-.875.844-1.313.207-.438.312-.766.312-.984 0-.176-.121-.27-.36-.282l.047-.25H4.47l.14.204c-.136.312-.257.574-.359.78a15.35 15.35 0 0 1-.64 1.126c-.243.386-.493.746-.75 1.078A16.3 16.3 0 0 1 1.983.688c-.218.238-.406.41-.562.515A1.68 1.68 0 0 1 1 1.422c-.125.039-.262.062-.406.062a.98.98 0 0 1-.219-.03.86.86 0 0 1-.234-.063L.328.609h.344v.016c0 .164.078.25.234.25.133 0 .29-.078.469-.234.188-.149.406-.371.656-.672zm0 0"/></symbol></defs><use xlink:href="#a" x=".384" y="30.138"/><use xlink:href="#b" x="5.865" y="32.578"/><use xlink:href="#c" x="14.716" y="30.138"/><use xlink:href="#d" x="26.958" y="30.138"/><use xlink:href="#e" x="32.006" y="13.483"/><use xlink:href="#f" x="48.588" y="13.483"/><use xlink:href="#g" x="58.911" y="6.14"/><use xlink:href="#h" x="64.754" y="7.915"/><use xlink:href="#i" x="69.539" y="9.041"/><path d="M58.715 10.066H74.8" fill="none" stroke-width=".776" stroke="#000" stroke-miterlimit="10"/><use xlink:href="#g" x="58.715" y="19.496"/><use xlink:href="#h" x="64.559" y="21.271"/><use xlink:href="#j" x="69.344" y="22.397"/><use xlink:href="#k" x="85.959" y="13.483"/><use xlink:href="#k" x="32.006" y="34.033"/><use xlink:href="#e" x="58.977" y="34.033"/><use xlink:href="#k" x="85.96" y="34.033"/><use xlink:href="#k" x="32.006" y="48.479"/><use xlink:href="#k" x="58.977" y="48.479"/><use xlink:href="#e" x="85.96" y="48.479"/><use xlink:href="#l" x="92.579" y="30.138"/></svg>