<svg xmlns="http://www.w3.org/2000/svg" xmlns:xlink="http://www.w3.org/1999/xlink" width="179pt" height="41pt" viewBox="0 0 179 41"><defs><symbol overflow="visible" id="a"><path d="M6.281-5.922a1.98 1.98 0 0 0-.562-.11c-.782 0-1.922.954-3.516 3.048l.235.093.203-.796c.078-.266.187-.75.265-1.016l.078-.313c.063-.203.094-.343.094-.5.016-.25-.203-.5-.375-.5-.25 0-.828.282-1.75.907l-.375.28.14.5.579-.359c.344-.218.375-.234.484-.234.125 0 .047-.031.047.11-.031.718-.656 3.156-1.219 4.75l.235.187.937-.25.39-1.719c.126-.515.407-.906.657-1.125C3.468-.844 3.953.11 4.25.11c.156 0 .531-.187 1.094-.562l.625-.422-.188-.469-.687.375c-.188.094-.14.078-.25.078-.125 0-.094-.03-.203-.234-.391-.766-.579-1.313-.97-2.734l.126-.125c.765-.72 1.234-.985 1.828-.985.11 0 .234.016.516.094l.296-.984zm0 0"/></symbol><symbol overflow="visible" id="b"><path d="M4.203-7.828a.735.735 0 0 1-.187-.14c-.063-.063-.11-.126-.22-.329-1.593 1.61-2.5 3.266-2.5 4.781v.797c0 1.516.907 3.172 2.5 4.781.11-.203.157-.265.22-.328.062-.062.125-.109.312-.203C2.875.063 2.281-1.344 2.281-2.719v-.797c0-1.39.594-2.78 2.047-4.25zm0 0"/></symbol><symbol overflow="visible" id="c"><path d="M3.703-5.516c-.453.047-.86.063-1.156.063.172-.984.297-1.578.531-2.25l-.25-.328a7.16 7.16 0 0 1-1.094.531l-.296 2.031c-.391.203-.704.328-1.063.407l-.047.406h1l-.64 3.25C.625-1.11.53-.813.53-.5c0 .297.266.61.5.61.422 0 .922-.282 1.86-1.032.218-.172.14-.125.437-.36l-.25-.437-.672.469c-.36.25-.484.313-.625.313-.093 0-.031.046-.031-.11 0-.297.156-1.234.516-3l.14-.61h1.266l.203-.89zm0 0"/></symbol><symbol overflow="visible" id="d"><path d="M3.766-2.719v-.797c0-1.515-.907-3.171-2.516-4.78-.11.202-.156.265-.203.327-.063.063-.125.11-.313.203 1.438 1.47 2.032 2.86 2.032 4.25v.797c0 1.375-.594 2.781-2.032 4.25.188.094.25.14.313.203.047.063.094.125.203.329C2.86.452 3.766-1.204 3.766-2.72zm0 0"/></symbol><symbol overflow="visible" id="e"><path d="M8.266-4.078a1.419 1.419 0 0 1-.047-.36c0-.109.015-.234.062-.484h-7.5c.063.25.063.375.063.484 0 .125 0 .235-.063.5h7.5zm0 2.625a1.332 1.332 0 0 1-.047-.36c0-.109.015-.234.062-.484h-7.5c.063.25.063.375.063.485 0 .125 0 .25-.063.5h7.5zm0 0"/></symbol><symbol overflow="visible" id="f"><path d="M6.813-6.844c0-.984-1.094-1.687-2.016-1.687-.594 0-1.203.031-1.797.031l-1.938-.047-.062.61.797.03c.281 0 .266-.03.266.188 0 .172-.047.547-.11.907L.922-.782C.89-.577.875-.624.25-.531L.14.048A21.28 21.28 0 0 1 1.407 0c.64 0 1.266.031 1.922.031.563 0 1.219-.156 1.781-.5.954-.562 1.516-1.469 1.516-2.375 0-.515-.203-1-.531-1.265-.313-.25-.766-.391-1.594-.516v.266c.688-.25 1.063-.438 1.453-.75.531-.485.86-1.125.86-1.735zM5.296-2.656c0 1.234-.734 1.984-1.922 1.984-.25 0-.594-.015-.984-.047-.079-.015-.22-.015-.25-.031l.562-3.313h.906c1.235 0 1.688.375 1.688 1.407zm.219-3.985c0 1.266-.75 1.891-2.235 1.891h-.453l.531-3.016c.22 0 .532-.062.844-.062.969 0 1.313.297 1.313 1.187zm0 0"/></symbol><symbol overflow="visible" id="k"><path d="M8.266-2.766a1.332 1.332 0 0 1-.047-.359c0-.11.015-.234.062-.484h-7.5c.063.25.063.375.063.484 0 .125 0 .25-.063.5h7.5zm0 0"/></symbol><symbol overflow="visible" id="m"><path d="M8.266-2.766a1.332 1.332 0 0 1-.047-.359c0-.11.015-.234.062-.484h-3.25v-3.266c-.25.063-.375.078-.484.078-.125 0-.25-.016-.5-.078v3.266H.78c.063.25.063.375.063.484 0 .125 0 .25-.063.5h3.266V.641c.25-.063.375-.079.5-.079.11 0 .234.016.484.079v-3.266h3.25zm0 0"/></symbol><symbol overflow="visible" id="g"><path d="M4.875-4.406c-.125-.063-.313-.125-.406-.125-.39 0-.875.343-1.485 1.172l-.359.484.266.094-.063-.422c-.11-.875-.515-1.328-1.094-1.328-.25 0-.578.093-.656.218l-.656.875.406.22c.36-.376.453-.47.64-.47.313 0 .36.235.532 1.094l.094.531-.328.485C1.344-1 1.14-.75.859-.75c-.14 0-.093.11-.109.063l-.172-.407-.437.063c0 .297-.032.406-.094.687-.016.11-.016.14-.031.266.187.11.468.172.578.172.312 0 .797-.281 1.094-.703l.734-1.032-.266-.109.11.61c.14.765.5 1.234.859 1.234.203 0 .625-.188.938-.438l.53-.437-.202-.438c-.516.39-.641.485-.797.485-.14 0-.172-.047-.266-.235a2.77 2.77 0 0 1-.187-.656l-.188-.86.313-.374c.453-.563.593-.735.89-.735.157 0 .11-.062.235.235l.359-.11.172-.906zm0 0"/></symbol><symbol overflow="visible" id="h"><path d="M2.61-4.672l-.22-.203-1.093.39-.89 3.376.312.234.5-.266 1.453-3.468zm0 0"/></symbol><symbol overflow="visible" id="i"><path d="M4.922-4.422l-.172-.125c-.313.11-.547.156-.875.188L3.5-3.063c-.11.407-.406.97-.734 1.391-.329.453-.688.813-.891.813-.219 0-.047-.297-.047-.407l.14-1.718c.032-.282.048-.61.048-.86 0-.406-.22-.687-.391-.687-.125 0-.36.093-.828.39l-.89.547.265.39.64-.358c.047-.032.063-.063.141-.063.25 0 .047.313.047.453L.828-1.016l-.015.344c0 .375.343.766.578.766.359 0 1.28-.781 2-1.782l-.266-.109L2.656-.28c-.5 1.578-.828 2.094-1.5 2.094-.328 0-.453-.11-.453-.422 0-.047.016-.11.047-.266l-.297-.11-.594.376c-.015.14-.015.187-.015.234 0 .375.531.813.969.813 1.015 0 2.218-1.22 2.796-2.86l1.375-3.953zm0 0"/></symbol><symbol overflow="visible" id="j"><path d="M2.61-4.672l-.22-.203-1.093.39-.89 3.376.312.234.5-.266 1.453-3.468zm2.124 0l-.218-.203-1.094.39-.89 3.376.312.234.5-.266 1.453-3.468zm0 0"/></symbol><symbol overflow="visible" id="l"><path d="M4.75-.11c-.016-.187-.016-.265-.016-.39s0-.203.032-.547l-3.141.094 1.5-1.469c.938-.922 1.281-1.5 1.281-2.172 0-1.015-.906-1.781-2.14-1.781-.688 0-1.282.219-1.782.703l-.187 1.39h.547l.172-.53c.156-.516.359-.61 1-.61.843 0 1.203.344 1.203 1.094 0 .672-.36 1.234-1.453 2.297L.078-.391v.422L2.406 0l2.36.031zm0 0"/></symbol><symbol overflow="visible" id="n"><path d="M3.906-.125c-.031-.14-.031-.203-.031-.297 0-.094 0-.156.047-.469l-2.844.079.11.265 1.39-1.281c.75-.672 1.031-1.14 1.031-1.625 0-.766-.765-1.39-1.734-1.39-.563 0-1.047.187-1.469.546L.234-3.172h.532l.156-.453c.125-.39.234-.406.75-.406.656 0 .906.203.906.765 0 .5-.265.875-1.125 1.657L.078-.375v.406L1.968 0l1.954.031zm0 0"/></symbol><symbol overflow="visible" id="o"><path d="M3.86-1.625c0-.313-.22-.703-.485-.875-.203-.11-.484-.203-.875-.266l.11.266c.624-.422.906-.828.906-1.203 0-.594-.735-1.14-1.594-1.14-.516 0-.984.171-1.39.515L.25-3.281h.563L1-3.797c.094-.219.406-.297.813-.297.5 0 .734.203.734.61 0 .5-.281.75-.828.75-.063 0-.25.25-.25.25l-.282-.11-.109.406.203.157c.328-.14.469-.172.672-.172.656 0 .844.203.844.797 0 .672-.297.953-1 .953-.36 0-.563-.047-.797-.234C.812-.829.766-.875.547-1.422l-.5.172c.187.5.25.734.312 1.172.563.156.907.203 1.188.203.625 0 1.437-.328 1.86-.781.265-.266.452-.656.452-.969zm0 0"/></symbol></defs><use xlink:href="#a" x=".045" y="21.915"/><use xlink:href="#b" x="6.656" y="21.915"/><use xlink:href="#c" x="11.725" y="21.915"/><use xlink:href="#d" x="15.778" y="21.915"/><use xlink:href="#e" x="24.159" y="21.915"/><use xlink:href="#f" x="37.77" y="11.438"/><use xlink:href="#g" x="45.075" y="14.211"/><use xlink:href="#h" x="50.575" y="5.219"/><use xlink:href="#b" x="54.145" y="11.438"/><use xlink:href="#c" x="59.214" y="11.438"/><use xlink:href="#d" x="63.255" y="11.438"/><use xlink:href="#f" x="68.324" y="11.438"/><use xlink:href="#i" x="75.629" y="14.211"/><use xlink:href="#j" x="81.191" y="5.219"/><use xlink:href="#b" x="86.886" y="11.438"/><use xlink:href="#c" x="91.955" y="11.438"/><use xlink:href="#d" x="95.996" y="11.438"/><use xlink:href="#k" x="103.719" y="11.438"/><use xlink:href="#f" x="115.459" y="11.438"/><use xlink:href="#g" x="122.769" y="14.211"/><use xlink:href="#j" x="128.27" y="5.219"/><use xlink:href="#b" x="133.965" y="11.438"/><use xlink:href="#c" x="139.034" y="11.438"/><use xlink:href="#d" x="143.063" y="11.438"/><use xlink:href="#f" x="148.132" y="11.438"/><use xlink:href="#i" x="155.448" y="14.211"/><use xlink:href="#h" x="161.01" y="5.219"/><use xlink:href="#b" x="164.581" y="11.438"/><use xlink:href="#c" x="169.65" y="11.438"/><use xlink:href="#d" x="173.679" y="11.438"/><path d="M37.77 18.926h140.992" fill="none" stroke-width=".717" stroke="#000" stroke-miterlimit="10"/><use xlink:href="#b" x="56.41" y="35.64"/><use xlink:href="#f" x="61.479" y="35.64"/><use xlink:href="#g" x="68.783" y="38.414"/><use xlink:href="#h" x="74.283" y="29.421"/><use xlink:href="#b" x="77.854" y="35.64"/><use xlink:href="#c" x="82.923" y="35.64"/><use xlink:href="#d" x="86.952" y="35.64"/><use xlink:href="#l" x="92.033" y="32.102"/><use xlink:href="#m" x="100.19" y="35.64"/><use xlink:href="#f" x="111.93" y="35.64"/><g><use xlink:href="#i" x="119.237" y="38.414"/></g><g><use xlink:href="#h" x="124.799" y="29.421"/></g><g><use xlink:href="#b" x="128.37" y="35.64"/><use xlink:href="#c" x="133.439" y="35.64"/></g><g><use xlink:href="#d" x="137.468" y="35.64"/></g><g><use xlink:href="#l" x="142.548" y="32.101"/></g><g><use xlink:href="#d" x="148.049" y="35.64"/></g><g><use xlink:href="#n" x="154.313" y="25.732"/></g><path d="M154.313 27.672h4.113" fill="none" stroke-width=".531" stroke="#000" stroke-miterlimit="10"/><g><use xlink:href="#o" x="154.313" y="33.261"/></g></svg>