<!--
m = a \cdot value_1 + f(a)=(C-a) \cdot value_2, C = constant
-->
<svg xmlns:xlink="http://www.w3.org/1999/xlink" width="55.833ex" height="2.5ex" style="vertical-align: -0.667ex; margin-left: 0ex; margin-right: 0ex; margin-bottom: 1px; margin-top: 1px;" viewBox="0 -771.9 24065.3 1043.9" xmlns="http://www.w3.org/2000/svg">
<defs>
<path stroke-width="10" id="E1-LATINMODERNNORMAL-1D45A" d="M848 143c0 -8 -37 -154 -131 -154c-47 0 -82 35 -82 82c0 20 4 31 13 55c20 53 62 167 62 224c0 36 -11 70 -54 70c-109 0 -162 -120 -165 -133l-60 -241c-8 -32 -14 -57 -45 -57c-15 0 -29 9 -29 27c0 5 9 39 13 59c9 33 10 39 20 76l28 116c8 30 15 58 15 83 c0 33 -9 70 -54 70c-95 0 -148 -91 -163 -122l-13 -50c-5 -23 -11 -45 -17 -67l-22 -90c-6 -25 -18 -72 -19 -74c-7 -20 -25 -28 -37 -28c-15 0 -29 9 -29 27c0 5 6 28 9 43l58 231c13 52 16 63 16 84c0 38 -15 46 -31 46c-36 0 -56 -48 -73 -119c-6 -22 -7 -23 -17 -23 c0 0 -12 0 -12 10c0 3 13 62 31 97c9 18 28 57 74 57c45 0 87 -30 92 -87c17 23 66 87 156 87c25 0 57 -5 82 -26c28 -24 31 -58 32 -71c37 53 88 97 163 97s115 -42 115 -107c0 -57 -42 -168 -61 -220c-9 -22 -18 -46 -18 -71c0 -23 7 -33 24 -33c55 0 87 71 102 124 c5 15 5 18 15 18c3 0 12 0 12 -10Z"></path>
<path stroke-width="10" id="E1-LATINMODERNMAIN-3D" d="M722 347c0 -11 -9 -20 -20 -20h-626c-11 0 -20 9 -20 20s9 20 20 20h626c11 0 20 -9 20 -20zM722 153c0 -11 -9 -20 -20 -20h-626c-11 0 -20 9 -20 20s9 20 20 20h626c11 0 20 -9 20 -20Z"></path>
<path stroke-width="10" id="E1-LATINMODERNNORMAL-1D44E" d="M498 143c0 0 -13 -63 -30 -99c-16 -32 -39 -55 -74 -55c-48 0 -83 33 -91 75c-60 -71 -110 -75 -130 -75c-78 0 -133 66 -133 160c0 146 124 293 241 293c45 0 74 -27 92 -64c3 22 18 44 42 44c17 0 29 -10 29 -27c0 -4 0 -6 -7 -34l-36 -140l-22 -90 c-11 -44 -13 -52 -13 -74c0 -20 3 -46 30 -46c41 0 59 59 76 124c3 14 4 18 14 18c3 0 12 0 12 -10zM361 332c0 6 -14 88 -79 88c-40 0 -85 -37 -116 -96c-23 -46 -55 -169 -55 -219c0 -39 14 -94 64 -94c28 0 69 16 113 71c15 17 15 19 20 37l50 196c1 5 3 11 3 17Z"></path>
<path stroke-width="10" id="E1-LATINMODERNMAIN-22C5" d="M192 250c0 -29 -24 -53 -53 -53s-53 24 -53 53s24 53 53 53s53 -24 53 -53Z"></path>
<path stroke-width="10" id="E1-LATINMODERNNORMAL-1D463" d="M468 372c0 -52 -57 -383 -225 -383c-46 0 -134 16 -134 124c0 43 13 89 57 205c7 18 17 45 17 70c0 32 -17 32 -25 32c-29 0 -72 -23 -101 -124c-5 -16 -6 -18 -16 -18c0 0 -12 0 -12 10c0 9 38 154 132 154c50 0 82 -37 82 -82c0 -19 -5 -33 -12 -50 c-31 -83 -58 -156 -58 -212c0 -52 23 -87 74 -87c117 0 178 229 178 271c0 36 -13 62 -34 82c-11 11 -16 17 -16 30c0 22 24 48 49 48c18 0 44 -16 44 -70Z"></path>
<path stroke-width="10" id="E1-LATINMODERNNORMAL-1D459" d="M258 683l-144 -578c-5 -19 -6 -24 -6 -48c0 -14 0 -46 30 -46c40 0 59 59 76 124c3 14 4 18 14 18c3 0 12 0 12 -10c0 0 -12 -60 -30 -98c-17 -36 -42 -56 -75 -56c-47 0 -91 35 -91 92c0 16 2 23 5 34l126 500l3 20c0 8 -1 17 -49 17c-15 0 -25 0 -25 11 c0 19 11 20 19 21c26 2 99 10 122 10c13 0 13 -11 13 -11Z"></path>
<path stroke-width="10" id="E1-LATINMODERNNORMAL-1D462" d="M543 143c0 0 -13 -63 -30 -99c-16 -32 -39 -55 -74 -55c-43 0 -78 26 -89 67c-17 -22 -53 -67 -119 -67c-54 0 -123 25 -123 120c0 49 21 111 58 210c6 15 17 44 17 68c0 32 -16 33 -25 33c-38 0 -76 -37 -101 -124c-5 -16 -6 -18 -16 -18c0 0 -12 0 -12 10 c0 9 37 154 132 154c50 0 82 -37 82 -82c0 -19 -5 -33 -17 -63c-26 -69 -54 -148 -54 -204c0 -37 10 -82 62 -82c73 0 113 80 114 84l75 301c8 34 34 35 39 35c15 0 29 -9 29 -27c0 -6 -10 -44 -15 -67c-4 -15 -14 -53 -17 -68l-28 -108c-8 -35 -20 -82 -20 -104 c0 -33 10 -46 31 -46c42 0 61 68 75 124c3 14 4 18 14 18c3 0 12 0 12 -10Z"></path>
<path stroke-width="10" id="E1-LATINMODERNNORMAL-1D452" d="M430 107c0 -12 -84 -118 -227 -118c-98 0 -157 79 -157 181c0 175 151 272 262 272c69 0 107 -41 107 -85c0 -14 -5 -73 -75 -103c-50 -21 -124 -23 -153 -23h-53c-15 -61 -16 -92 -16 -104c0 -32 9 -116 87 -116c12 0 121 0 200 99c6 8 8 10 13 10c6 0 12 -7 12 -13z M382 357c0 34 -27 63 -74 63c-26 0 -129 -15 -168 -167h41c41 0 201 0 201 104Z"></path>
<path stroke-width="10" id="E1-LATINMODERNMAIN-31" d="M419 0c-35 3 -122 3 -162 3s-127 0 -162 -3v31h32c90 0 93 12 93 48v518c-52 -26 -111 -26 -131 -26v31c32 0 120 0 182 64c23 0 23 -2 23 -26v-561c0 -37 3 -48 93 -48h32v-31Z"></path>
<path stroke-width="10" id="E1-LATINMODERNMAIN-2B" d="M722 250c0 -11 -9 -20 -20 -20h-293v-293c0 -11 -9 -20 -20 -20s-20 9 -20 20v293h-293c-11 0 -20 9 -20 20s9 20 20 20h293v293c0 11 9 20 20 20s20 -9 20 -20v-293h293c11 0 20 -9 20 -20Z"></path>
<path stroke-width="10" id="E1-LATINMODERNNORMAL-1D453" d="M552 636c0 -38 -29 -60 -55 -60c-19 0 -37 12 -37 35c0 15 10 50 54 54c-19 18 -45 18 -49 18c-21 0 -38 -15 -47 -34c-6 -12 -20 -83 -24 -104c-11 -58 -10 -56 -21 -114h83c17 0 27 0 27 -11c0 -20 -10 -20 -30 -20h-86l-60 -317c-1 -7 -24 -128 -56 -191 c-18 -38 -58 -97 -113 -97c-41 0 -85 24 -85 69c0 38 29 60 55 60c19 0 37 -12 37 -35c0 -15 -9 -51 -55 -54c19 -18 44 -18 48 -18c52 0 69 91 87 188l75 395h-66c-19 0 -28 0 -28 12c0 19 11 19 30 19h69c24 126 27 136 33 157c30 99 93 117 127 117c41 0 87 -23 87 -69Z"></path>
<path stroke-width="10" id="E1-LATINMODERNMAIN-28" d="M332 -238c0 -5 -5 -10 -10 -10c-2 0 -4 1 -6 2c-110 83 -215 283 -215 454v84c0 171 105 371 215 454c2 1 4 2 6 2c5 0 10 -5 10 -10c0 -3 -2 -6 -4 -8c-104 -78 -173 -278 -173 -438v-84c0 -160 69 -360 173 -438c2 -2 4 -5 4 -8Z"></path>
<path stroke-width="10" id="E1-LATINMODERNMAIN-29" d="M288 208c0 -171 -105 -371 -215 -454c-2 -1 -4 -2 -6 -2c-5 0 -10 5 -10 10c0 3 2 6 4 8c104 78 173 278 173 438v84c0 160 -69 360 -173 438c-2 2 -4 5 -4 8c0 5 5 10 10 10c2 0 4 -1 6 -2c110 -83 215 -283 215 -454v-84Z"></path>
<path stroke-width="10" id="E1-LATINMODERNNORMAL-1D436" d="M760 695l-63 -255c-5 -18 -5 -20 -18 -20c-4 0 -15 0 -15 10s3 11 3 51c0 116 -59 193 -161 193c-89 0 -183 -50 -244 -121c-100 -117 -121 -279 -121 -336c0 -156 106 -208 196 -208c52 0 115 17 184 73c69 58 92 129 101 158c2 8 7 10 13 10c0 0 12 0 12 -10 c0 -3 -17 -94 -110 -176c-53 -46 -129 -86 -216 -86c-153 0 -271 109 -271 274c0 232 225 453 448 453c111 0 157 -75 166 -89l70 77c11 11 12 12 15 12c9 0 11 -7 11 -10Z"></path>
<path stroke-width="10" id="E1-LATINMODERNMAIN-2212" d="M722 250c0 -11 -9 -20 -20 -20h-626c-11 0 -20 9 -20 20s9 20 20 20h626c11 0 20 -9 20 -20Z"></path>
<path stroke-width="10" id="E1-LATINMODERNMAIN-32" d="M449 174l-28 -174h-371c0 24 0 26 11 37l192 214c55 62 105 141 105 221c0 82 -43 163 -134 163c-58 0 -112 -37 -135 -102c3 1 5 1 13 1c35 0 53 -26 53 -52c0 -41 -35 -53 -52 -53c-3 0 -53 0 -53 56c0 89 74 181 187 181c122 0 212 -80 212 -194 c0 -100 -60 -154 -216 -292l-106 -103h180c22 0 88 0 95 8c10 15 17 59 22 89h25Z"></path>
<path stroke-width="10" id="E1-LATINMODERNMAIN-2C" d="M203 1c0 -117 -80 -194 -91 -194c-5 0 -10 4 -10 11c0 3 0 5 11 16c33 33 68 93 68 167c0 14 -2 15 -2 15s-2 -1 -5 -3c-10 -9 -23 -13 -35 -13c-33 0 -53 26 -53 53c0 28 20 53 53 53c39 0 64 -39 64 -105Z"></path>
<path stroke-width="10" id="E1-LATINMODERNNORMAL-1D450" d="M430 107c0 -12 -84 -118 -227 -118c-104 0 -162 79 -162 169c0 141 133 284 268 284c71 0 118 -37 118 -86c0 -40 -27 -64 -56 -64c-19 0 -37 11 -37 35c0 7 2 24 18 39c14 14 28 14 44 14c-14 27 -52 40 -86 40c-55 0 -110 -43 -141 -100c-34 -62 -54 -159 -54 -200 c0 -60 27 -109 90 -109c12 0 121 0 200 99c6 8 8 10 13 10c6 0 12 -7 12 -13Z"></path>
<path stroke-width="10" id="E1-LATINMODERNNORMAL-1D45C" d="M469 273c0 -146 -135 -284 -268 -284c-93 0 -160 70 -160 169c0 142 134 284 268 284c90 0 160 -65 160 -169zM396 312c0 60 -30 108 -88 108c-28 0 -85 -15 -135 -92c-32 -51 -58 -159 -58 -208c0 -78 44 -109 87 -109c46 0 101 34 136 92c38 65 58 170 58 209Z"></path>
<path stroke-width="10" id="E1-LATINMODERNNORMAL-1D45B" d="M571 143c0 -8 -37 -154 -131 -154c-47 0 -82 35 -82 82c0 11 1 23 10 46c16 43 65 171 65 233c0 33 -9 70 -54 70c-95 0 -148 -91 -163 -122l-13 -50c-5 -23 -11 -45 -17 -67l-22 -90c-6 -25 -18 -72 -19 -74c-7 -20 -25 -28 -37 -28c-15 0 -29 9 -29 27c0 5 6 28 9 43 l58 231c13 52 16 63 16 84c0 33 -11 46 -31 46c-36 0 -56 -48 -73 -119c-6 -22 -7 -23 -17 -23c0 0 -12 0 -12 10c0 4 14 63 30 97c10 18 29 57 75 57s87 -31 92 -87c17 23 66 87 156 87c72 0 115 -40 115 -107c0 -57 -42 -167 -61 -220c-9 -22 -18 -46 -18 -71 c0 -23 7 -33 24 -33c49 0 82 56 102 124c5 15 5 18 15 18c3 0 12 0 12 -10Z"></path>
<path stroke-width="10" id="E1-LATINMODERNNORMAL-1D460" d="M420 356c0 -39 -24 -56 -46 -56s-31 15 -31 29c0 22 20 44 48 45c-15 39 -65 46 -90 46c-88 0 -112 -61 -112 -90c0 -45 40 -52 76 -60c44 -9 73 -14 100 -42c12 -12 31 -37 31 -73c0 -45 -39 -166 -201 -166c-86 0 -143 40 -143 97c0 45 30 66 56 66c21 0 37 -12 37 -35 c0 -28 -25 -58 -63 -53c23 -53 100 -53 114 -53c120 0 143 84 143 110c0 55 -52 66 -104 76c-29 6 -103 21 -103 99c0 44 37 146 169 146c76 0 119 -41 119 -86Z"></path>
<path stroke-width="10" id="E1-LATINMODERNNORMAL-1D461" d="M330 420c0 -20 -10 -20 -30 -20h-94l-74 -295c-4 -17 -6 -24 -6 -48c0 -33 10 -46 31 -46c34 0 87 24 130 128c5 11 6 14 15 14c4 0 12 0 12 -10c0 -8 -57 -154 -159 -154c-54 0 -92 38 -92 92c0 18 4 35 76 319h-88c-20 0 -28 0 -28 12c0 19 10 19 30 19h94l39 159 c9 35 37 36 40 36c17 0 29 -10 29 -27c0 -6 -5 -26 -41 -168h88c18 0 28 0 28 -11Z"></path>
</defs>
<g stroke="currentColor" fill="currentColor" stroke-width="0" transform="matrix(1 0 0 -1 0 0)">
 <use xlink:href="#E1-LATINMODERNNORMAL-1D45A" x="0" y="0"></use>
 <use xlink:href="#E1-LATINMODERNMAIN-3D" x="1160" y="0"></use>
 <use xlink:href="#E1-LATINMODERNNORMAL-1D44E" x="2221" y="0"></use>
 <use xlink:href="#E1-LATINMODERNMAIN-22C5" x="2977" y="0"></use>
 <use xlink:href="#E1-LATINMODERNNORMAL-1D463" x="3483" y="0"></use>
 <use xlink:href="#E1-LATINMODERNNORMAL-1D44E" x="3973" y="0"></use>
 <use xlink:href="#E1-LATINMODERNNORMAL-1D459" x="4507" y="0"></use>
 <use xlink:href="#E1-LATINMODERNNORMAL-1D462" x="4810" y="0"></use>
<g transform="translate(5387,0)">
 <use xlink:href="#E1-LATINMODERNNORMAL-1D452" x="0" y="0"></use>
 <use transform="scale(0.707)" xlink:href="#E1-LATINMODERNMAIN-31" x="666" y="-213"></use>
</g>
 <use xlink:href="#E1-LATINMODERNMAIN-2B" x="6537" y="0"></use>
 <use xlink:href="#E1-LATINMODERNNORMAL-1D453" x="7542" y="0"></use>
 <use xlink:href="#E1-LATINMODERNMAIN-28" x="8099" y="0"></use>
 <use xlink:href="#E1-LATINMODERNNORMAL-1D44E" x="8493" y="0"></use>
 <use xlink:href="#E1-LATINMODERNMAIN-29" x="9027" y="0"></use>
 <use xlink:href="#E1-LATINMODERNMAIN-3D" x="9699" y="0"></use>
 <use xlink:href="#E1-LATINMODERNMAIN-28" x="10760" y="0"></use>
 <use xlink:href="#E1-LATINMODERNNORMAL-1D436" x="11154" y="0"></use>
 <use xlink:href="#E1-LATINMODERNMAIN-2212" x="12141" y="0"></use>
 <use xlink:href="#E1-LATINMODERNNORMAL-1D44E" x="13146" y="0"></use>
 <use xlink:href="#E1-LATINMODERNMAIN-29" x="13680" y="0"></use>
 <use xlink:href="#E1-LATINMODERNMAIN-22C5" x="14296" y="0"></use>
 <use xlink:href="#E1-LATINMODERNNORMAL-1D463" x="14801" y="0"></use>
 <use xlink:href="#E1-LATINMODERNNORMAL-1D44E" x="15291" y="0"></use>
 <use xlink:href="#E1-LATINMODERNNORMAL-1D459" x="15825" y="0"></use>
 <use xlink:href="#E1-LATINMODERNNORMAL-1D462" x="16128" y="0"></use>
<g transform="translate(16705,0)">
 <use xlink:href="#E1-LATINMODERNNORMAL-1D452" x="0" y="0"></use>
 <use transform="scale(0.707)" xlink:href="#E1-LATINMODERNMAIN-32" x="666" y="-213"></use>
</g>
 <use xlink:href="#E1-LATINMODERNMAIN-2C" x="17634" y="0"></use>
 <use xlink:href="#E1-LATINMODERNNORMAL-1D436" x="18083" y="0"></use>
 <use xlink:href="#E1-LATINMODERNMAIN-3D" x="19126" y="0"></use>
 <use xlink:href="#E1-LATINMODERNNORMAL-1D450" x="20187" y="0"></use>
 <use xlink:href="#E1-LATINMODERNNORMAL-1D45C" x="20625" y="0"></use>
 <use xlink:href="#E1-LATINMODERNNORMAL-1D45B" x="21115" y="0"></use>
 <use xlink:href="#E1-LATINMODERNNORMAL-1D460" x="21720" y="0"></use>
 <use xlink:href="#E1-LATINMODERNNORMAL-1D461" x="22194" y="0"></use>
 <use xlink:href="#E1-LATINMODERNNORMAL-1D44E" x="22560" y="0"></use>
 <use xlink:href="#E1-LATINMODERNNORMAL-1D45B" x="23094" y="0"></use>
 <use xlink:href="#E1-LATINMODERNNORMAL-1D461" x="23699" y="0"></use>
</g>
</svg>