<svg xmlns="http://www.w3.org/2000/svg" xmlns:xlink="http://www.w3.org/1999/xlink" width="420" height="28" viewBox="0 0 315 21"><defs><symbol overflow="visible" id="a"><path d="M1.828-1.36V0H.641v-1.36zm0 0"/></symbol><symbol overflow="visible" id="b"><path d="M.875-4.25v-.781h7.219v.781zm0 2.422v-.781h7.219v.78zm7.469-1.594zm0 0"/></symbol><symbol overflow="visible" id="c"><path d="M5.297-13.328l.203.469c-1.043.68-1.86 1.84-2.453 3.484-.594 1.637-.89 3.621-.89 5.953 0 2.281.288 4.25.874 5.906C3.625 4.141 4.445 5.313 5.5 6l-.203.469c-1.305-.657-2.34-1.883-3.11-3.672-.773-1.793-1.156-3.867-1.156-6.235 0-2.382.383-4.46 1.157-6.234.769-1.77 1.804-2.988 3.109-3.656zm0 0"/></symbol><symbol overflow="visible" id="f"><path d="M.578-13.328c1.3.668 2.336 1.887 3.11 3.656.78 1.774 1.171 3.852 1.171 6.235 0 2.367-.39 4.44-1.171 6.234-.774 1.789-1.81 3.015-3.11 3.672L.391 6C1.43 5.312 2.25 4.14 2.844 2.484c.594-1.656.89-3.625.89-5.906 0-2.332-.296-4.316-.89-5.953C2.25-11.02 1.43-12.18.39-12.859zm0 0"/></symbol><symbol overflow="visible" id="g"><path d="M5.016-10.203c-.95.367-1.668 1.148-2.157 2.344-.48 1.187-.718 2.668-.718 4.437 0 1.762.238 3.242.718 4.438.489 1.195 1.207 1.972 2.157 2.328l-.157.484c-1.218-.324-2.156-1.156-2.812-2.5-.656-1.344-.985-2.926-.985-4.75 0-1.832.329-3.422.985-4.765.656-1.344 1.594-2.172 2.812-2.485zm0 0"/></symbol><symbol overflow="visible" id="h"><path d="M3.094-2.406a1.064 1.064 0 0 0-.125-.313.347.347 0 0 0-.14-.125.757.757 0 0 0-.267-.031h-.406L1.546 0h-1l1.5-6.703c.052-.219.087-.39.11-.516.02-.133.031-.25.031-.343 0-.165-.054-.282-.156-.344-.094-.07-.273-.11-.531-.11l.078-.312 1.469-.047h.344L2.25-3.265h.188c.289 0 .617-.126.984-.376.363-.257.656-.5.875-.718.219-.22.328-.43.328-.641 0-.188-.137-.29-.406-.313l.078-.296h1.89l.11.296c-.324.293-.668.579-1.031.86L3.812-3.328l.579 2.11c.039.187.082.323.125.405a.63.63 0 0 0 .125.172c.05.032.117.047.203.047.101 0 .222-.05.36-.156a4.03 4.03 0 0 0 .484-.469l.328.328c-.356.368-.649.621-.875.766-.23.145-.45.219-.657.219-.273 0-.484-.074-.64-.219-.156-.156-.281-.41-.375-.766zm0 0"/></symbol><symbol overflow="visible" id="i"><path d="M1.688-4.14c.207 0 .375.07.5.202.124.126.187.297.187.516 0 .211-.063.383-.188.516a.678.678 0 0 1-.5.187c-.199 0-.359-.062-.484-.187a.722.722 0 0 1-.187-.516c0-.219.062-.39.187-.515a.636.636 0 0 1 .484-.204zm0 0"/></symbol><symbol overflow="visible" id="j"><path d="M4.078-1.11c-.344.407-.672.712-.984.907a1.8 1.8 0 0 1-.985.297C1.285.094.875-.316.875-1.141c0-.257.035-.535.11-.828l.687-3.047H.688l.093-.406c.227 0 .399-.016.516-.047a.839.839 0 0 0 .297-.125.671.671 0 0 0 .218-.234c.07-.102.141-.234.204-.39.062-.157.156-.43.28-.829h.798L2.78-5.609h1.781l-.125.593h-1.78l-.532 2.282c-.105.437-.172.757-.203.953a3.79 3.79 0 0 0-.031.468c0 .481.203.72.609.72.164 0 .344-.063.531-.188.196-.133.43-.36.703-.672zm0 0"/></symbol><symbol overflow="visible" id="m"><path d="M2.063-2.969c0 1.367.218 2.492.656 3.375.445.895 1.117 1.492 2.015 1.797l-.14.453C3.457 2.352 2.582 1.703 1.969.703c-.606-.988-.907-2.191-.907-3.61 0-1.405.301-2.609.907-3.609.613-1 1.488-1.648 2.625-1.953l.172.453c-.918.305-1.602.891-2.047 1.766-.438.867-.656 1.96-.656 3.281zm0 0"/></symbol><symbol overflow="visible" id="n"><path d="M4.078-1.531c0 .23.008.402.031.515a.68.68 0 0 0 .141.282.572.572 0 0 0 .266.171c.125.043.273.075.453.094.187.024.43.04.734.047V0H1.375v-.422A8.17 8.17 0 0 0 2.297-.5c.187-.04.328-.094.422-.156a.516.516 0 0 0 .219-.281c.05-.125.078-.32.078-.594v-4.75c0-.157-.032-.27-.094-.344a.282.282 0 0 0-.235-.11c-.124 0-.304.07-.53.204-.231.125-.516.304-.86.531l-.25-.453 2.734-1.64h.328a27.34 27.34 0 0 0-.03 1.562zm0 0"/></symbol><symbol overflow="visible" id="o"><path d="M.875-3.047v-.781h7.219v.781zm0 0"/></symbol><symbol overflow="visible" id="p"><path d="M2.906-2.969c0-1.32-.219-2.414-.656-3.281A3.389 3.389 0 0 0 .219-8.016l.156-.453c1.145.305 2.02.953 2.625 1.953.613 1 .922 2.204.922 3.61 0 1.418-.309 2.62-.922 3.61-.605 1-1.48 1.648-2.625 1.952l-.14-.453C1.14 1.898 1.812 1.301 2.25.406c.438-.883.656-2.008.656-3.375zm0 0"/></symbol><symbol overflow="visible" id="q"><path d="M4.906-3.047V.328h-.843v-3.375H.874v-.781h3.188v-3.375h.843v3.375h3.188v.781zm0 0"/></symbol><symbol overflow="visible" id="r"><path d="M1.594-3.719c.093-.375.14-.66.14-.86 0-.155-.027-.269-.078-.343-.054-.07-.136-.11-.25-.11-.117 0-.242.055-.375.157-.136.094-.324.273-.562.531L.14-4.672c.363-.375.66-.64.89-.797.239-.156.508-.234.813-.234.25 0 .441.086.578.25.144.156.219.367.219.625 0 .21-.047.445-.141.703l.078.016c.375-.54.735-.942 1.078-1.204.352-.257.711-.39 1.078-.39.364 0 .641.11.829.328.195.21.296.496.296.86 0 .25-.054.6-.156 1.046l-.39 1.547c-.106.418-.157.715-.157.89 0 .157.024.274.078.345.051.074.13.109.235.109.125 0 .25-.047.375-.14.133-.102.32-.286.562-.548l.344.329c-.344.355-.64.617-.89.78-.25.165-.532.25-.844.25a.795.795 0 0 1-.625-.265c-.149-.187-.22-.422-.22-.703 0-.25.063-.625.188-1.125l.266-1c.094-.375.156-.645.188-.813.03-.175.046-.32.046-.437 0-.27-.046-.46-.14-.578-.094-.125-.242-.188-.438-.188-.168 0-.343.07-.531.204-.188.125-.39.324-.61.593-.21.262-.382.516-.515.766-.125.25-.23.558-.313.922L1.766 0H.75zm0 0"/></symbol><symbol overflow="visible" id="s"><path d="M.531-10.672c1.219.313 2.156 1.14 2.813 2.485.664 1.343 1 2.933 1 4.765 0 1.824-.336 3.406-1 4.75C2.688 2.672 1.75 3.504.53 3.828l-.156-.484c.945-.356 1.664-1.133 2.156-2.328.489-1.196.735-2.676.735-4.438 0-1.77-.246-3.25-.735-4.437-.492-1.196-1.21-1.977-2.156-2.344zm0 0"/></symbol><symbol overflow="visible" id="d"><path d="M2.266-3.328c.289-.383.57-.672.843-.86.282-.195.567-.296.86-.296.312 0 .547.086.703.25.156.168.234.402.234.703 0 .094-.015.226-.047.39a9.338 9.338 0 0 1-.093.516c-.043.188-.09.387-.141.594a26 26 0 0 1-.125.547l-.11.437a1.343 1.343 0 0 0-.03.219c0 .117.019.2.062.25.039.043.101.062.187.062a.42.42 0 0 0 .172-.03c.051-.02.102-.052.157-.095.062-.039.128-.093.203-.156.07-.07.148-.16.234-.265l.313.296a5.473 5.473 0 0 1-.407.375c-.117.106-.23.196-.343.266a1.272 1.272 0 0 1-.688.203.763.763 0 0 1-.297-.062.61.61 0 0 1-.234-.172.903.903 0 0 1-.156-.25 1.039 1.039 0 0 1-.047-.328c0-.114.007-.25.03-.407.032-.156.071-.328.126-.515.05-.188.098-.367.14-.547.051-.176.094-.336.126-.485.03-.144.054-.273.078-.39.02-.113.03-.211.03-.297 0-.176-.038-.305-.109-.39-.062-.083-.171-.126-.328-.126a.844.844 0 0 0-.296.063 1.425 1.425 0 0 0-.297.187 2.132 2.132 0 0 0-.297.297 2.969 2.969 0 0 0-.485.735c-.062.136-.109.273-.14.406L1.594 0h-.86l.657-2.86c.039-.156.066-.288.078-.406.02-.125.031-.222.031-.296 0-.22-.086-.329-.25-.329a.573.573 0 0 0-.172.032.732.732 0 0 0-.172.109 2.231 2.231 0 0 0-.187.172 3.823 3.823 0 0 0-.235.219l-.296-.282c.144-.144.273-.27.39-.375.125-.113.238-.203.344-.265.113-.07.223-.125.328-.157a1.28 1.28 0 0 1 .344-.046c.218 0 .383.074.5.218.125.137.187.32.187.547 0 .063-.008.125-.015.188a.706.706 0 0 1-.063.187zm0 0"/></symbol><symbol overflow="visible" id="e"><path d="M1.844-2.203L1.359 0H.516l1.062-4.719c.031-.156.05-.273.063-.36.02-.093.03-.175.03-.25a.337.337 0 0 0-.03-.14.27.27 0 0 0-.094-.093.405.405 0 0 0-.172-.063 2.627 2.627 0 0 0-.281-.016l.078-.312L2.375-6h.313l-.766 3.422h.125c.101 0 .219-.02.344-.063a2.7 2.7 0 0 0 .75-.438 2.254 2.254 0 0 0 .53-.562.438.438 0 0 0 .079-.218.198.198 0 0 0-.078-.157c-.043-.05-.125-.082-.25-.093l.062-.282h1.579l.109.266c-.188.156-.367.305-.531.438-.168.136-.336.265-.5.39-.168.125-.336.25-.5.375-.157.117-.32.242-.485.375.07.219.145.445.219.672.07.23.145.46.219.688.031.117.062.218.094.312.03.086.062.152.093.203a.54.54 0 0 0 .125.125c.04.024.086.031.14.031.04 0 .083-.004.126-.015a.346.346 0 0 0 .156-.078c.05-.04.11-.094.172-.157a2.99 2.99 0 0 0 .25-.25l.297.282a3.615 3.615 0 0 1-.734.625C4.207-.047 4.101 0 4 .03a.944.944 0 0 1-.297.047.661.661 0 0 1-.437-.14 1.11 1.11 0 0 1-.297-.391 5.681 5.681 0 0 1-.219-.625c-.063-.238-.137-.508-.219-.813a1.942 1.942 0 0 0-.062-.171.313.313 0 0 0-.078-.094.21.21 0 0 0-.11-.031.841.841 0 0 0-.156-.016zm0 0"/></symbol><symbol overflow="visible" id="k"><path d="M.75-2.234v-.672h5.063v.672zm0 0"/></symbol><symbol overflow="visible" id="l"><path d="M3.219-1.156v.234c.008.063.02.121.031.172a.252.252 0 0 0 .047.11c.02.03.047.058.078.078.04.042.086.074.14.093.063.012.133.028.22.047.093.012.203.024.328.031.132 0 .289.008.468.016V0H1.047v-.375c.176-.008.32-.016.437-.016.125-.007.227-.02.313-.03L2-.47a.53.53 0 0 0 .125-.062 1.36 1.36 0 0 0 .11-.094.237.237 0 0 0 .062-.11c.02-.05.035-.109.047-.171a2.25 2.25 0 0 0 .015-.25v-3.157c0-.113-.023-.19-.062-.234a.233.233 0 0 0-.188-.078c-.093 0-.23.047-.406.14-.18.094-.406.235-.687.423-.043-.07-.079-.141-.11-.204-.031-.07-.07-.14-.11-.203.364-.195.724-.394 1.079-.593l1.094-.594h.265a5.867 5.867 0 0 0-.015.437v.719zm0 0"/></symbol></defs><use xlink:href="#a" x=".374" y="14.082"/><use xlink:href="#a" x="2.825" y="14.082"/><use xlink:href="#a" x="5.276" y="14.082"/><use xlink:href="#b" x="11.038" y="14.082"/><use xlink:href="#c" x="23.303" y="14.088"/><use xlink:href="#d" x="29.163" y="8.595"/><use xlink:href="#e" x="29.304" y="20.095"/><use xlink:href="#f" x="34.96" y="14.088"/><use xlink:href="#g" x="42.813" y="14.082"/><use xlink:href="#h" x="48.181" y="14.082"/><use xlink:href="#i" x="57.781" y="14.082"/><use xlink:href="#j" x="63.806" y="14.082"/><use xlink:href="#e" x="68.71" y="9.704"/><use xlink:href="#k" x="74.224" y="9.704"/><use xlink:href="#l" x="80.555" y="9.704"/><use xlink:href="#m" x="86.083" y="14.082"/><use xlink:href="#n" x="91.044" y="14.082"/><use xlink:href="#o" x="100.322" y="14.082"/><use xlink:href="#j" x="111.906" y="14.082"/><use xlink:href="#p" x="116.915" y="14.082"/><use xlink:href="#d" x="121.88" y="9.704"/><use xlink:href="#k" x="127.672" y="9.704"/><use xlink:href="#e" x="134.003" y="9.704"/><use xlink:href="#q" x="142.675" y="14.082"/><use xlink:href="#j" x="154.26" y="14.082"/><use xlink:href="#e" x="159.155" y="9.704"/><use xlink:href="#i" x="167.826" y="14.082"/><use xlink:href="#m" x="173.851" y="14.082"/><use xlink:href="#n" x="178.813" y="14.082"/><use xlink:href="#o" x="188.09" y="14.082"/><use xlink:href="#j" x="199.675" y="14.082"/><use xlink:href="#p" x="204.696" y="14.082"/><use xlink:href="#d" x="209.653" y="9.704"/><use xlink:href="#k" x="215.445" y="9.704"/><use xlink:href="#e" x="221.776" y="9.704"/><g><use xlink:href="#k" x="227.29" y="9.704"/><use xlink:href="#l" x="233.621" y="9.704"/></g><g><use xlink:href="#i" x="241.807" y="14.082"/></g><g><use xlink:href="#m" x="247.832" y="14.082"/><use xlink:href="#r" x="252.794" y="14.082"/></g><g><use xlink:href="#o" x="262.513" y="14.082"/></g><g><use xlink:href="#h" x="274.098" y="14.082"/></g><g><use xlink:href="#p" x="281.056" y="14.082"/></g><g><use xlink:href="#i" x="288.671" y="14.082"/></g><g><use xlink:href="#o" x="294.697" y="14.082"/><use xlink:href="#n" x="303.627" y="14.082"/><use xlink:href="#s" x="310.251" y="14.082"/></g></svg>