<svg xmlns="http://www.w3.org/2000/svg" xmlns:xlink="http://www.w3.org/1999/xlink" width="308pt" height="55pt" viewBox="0 0 308 55"><defs><symbol overflow="visible" id="a"><path d="M6.984-7.797l-.343 1.594h-.563c-.031-.477-.14-.82-.328-1.031-.18-.22-.46-.329-.844-.329-.543 0-1.047.274-1.515.813-.461.531-.825 1.242-1.094 2.125-.274.887-.406 1.71-.406 2.469 0 .594.101 1.031.312 1.312.219.281.547.422.985.422.289 0 .546-.039.765-.125.219-.094.422-.242.61-.453.195-.207.39-.5.578-.875h.562l-.36 1.656c-.73.211-1.495.313-2.296.313-.742 0-1.305-.207-1.688-.625C.984-.957.797-1.578.797-2.391c0-.57.098-1.234.297-1.984.207-.75.5-1.406.875-1.969.375-.57.816-1.004 1.328-1.297.508-.3 1.07-.453 1.687-.453.352 0 .68.024.985.063.3.043.64.12 1.015.234zm0 0"/></symbol><symbol overflow="visible" id="b"><path d="M5.031-5.313l.547-.39.375.094-.86 3.718c-.093.368-.14.653-.14.86 0 .156.024.273.078.343.051.075.133.11.25.11a.61.61 0 0 0 .36-.14c.132-.102.328-.286.578-.548l.328.329c-.356.375-.656.64-.906.796a1.44 1.44 0 0 1-.797.235.748.748 0 0 1-.578-.235c-.149-.164-.22-.379-.22-.64 0-.219.04-.446.126-.688L4.109-1.5c-.375.555-.734.96-1.078 1.219-.336.25-.687.375-1.062.375-.43 0-.762-.16-1-.485-.242-.332-.36-.789-.36-1.375C.61-2.43.74-3.07 1-3.687c.27-.626.633-1.114 1.094-1.47a2.47 2.47 0 0 1 1.547-.546c.25 0 .484.031.703.094.226.054.457.152.687.296zm-.515 1.75a3.32 3.32 0 0 0 .078-.421c.008-.114.015-.239.015-.375 0-.301-.07-.52-.203-.657-.125-.144-.343-.218-.656-.218-.398 0-.758.164-1.078.484-.324.324-.574.762-.75 1.313a5.146 5.146 0 0 0-.266 1.624c0 .407.051.711.157.907.113.199.3.297.562.297.258 0 .516-.11.766-.329.25-.218.504-.535.765-.953.258-.414.446-.89.563-1.421zm0 0"/></symbol><symbol overflow="visible" id="c"><path d="M4.078-1.11c-.344.407-.672.712-.984.907a1.8 1.8 0 0 1-.985.297C1.285.094.875-.316.875-1.141c0-.257.035-.535.11-.828l.687-3.047H.688l.093-.406c.227 0 .399-.016.516-.047a.839.839 0 0 0 .297-.125.671.671 0 0 0 .218-.234c.07-.102.141-.234.204-.39.062-.157.156-.43.28-.829h.798L2.78-5.609h1.781l-.125.593h-1.78l-.532 2.282c-.105.437-.172.757-.203.953a3.79 3.79 0 0 0-.031.468c0 .481.203.72.609.72.164 0 .344-.063.531-.188.196-.133.43-.36.703-.672zm0 0"/></symbol><symbol overflow="visible" id="d"><path d="M2.578-4.11c.363-.538.723-.94 1.078-1.202.352-.258.711-.391 1.078-.391.375 0 .657.11.844.328.195.21.297.516.297.922v.172c.332-.477.664-.832 1-1.063.332-.238.68-.36 1.047-.36.351 0 .629.106.828.313.195.211.297.5.297.875 0 .25-.059.602-.172 1.047l-.39 1.547c-.106.418-.157.715-.157.89 0 .157.024.274.078.345.051.074.133.109.25.109a.61.61 0 0 0 .36-.14c.132-.102.328-.286.578-.548l.328.329c-.336.355-.625.617-.875.78-.25.165-.54.25-.86.25a.779.779 0 0 1-.609-.265 1.061 1.061 0 0 1-.234-.703c0-.25.066-.625.203-1.125l.25-1c.094-.375.156-.645.187-.813.032-.175.047-.32.047-.437 0-.27-.047-.46-.14-.578-.086-.125-.23-.188-.438-.188-.168 0-.344.063-.531.188-.188.125-.387.32-.594.578-.2.262-.367.516-.5.766-.137.25-.242.558-.312.921L4.984 0H3.97l.672-2.984c.082-.352.14-.618.171-.797.032-.176.047-.328.047-.453 0-.282-.054-.477-.156-.594-.105-.125-.262-.188-.469-.188-.148 0-.312.063-.5.188-.187.125-.39.324-.609.594-.219.273-.39.53-.516.78-.117.25-.214.56-.296.923L1.765 0H.75l.844-3.719c.093-.375.14-.66.14-.86 0-.155-.027-.269-.078-.343-.054-.07-.136-.11-.25-.11-.117 0-.242.055-.375.157-.136.094-.324.273-.562.531L.14-4.672c.343-.351.64-.613.89-.781.25-.164.52-.25.813-.25.25 0 .441.086.578.25.144.156.219.367.219.625 0 .219-.043.45-.125.687zm0 0"/></symbol><symbol overflow="visible" id="e"><path d="M5.281-1.89c-.086.374-.125.663-.125.859 0 .156.024.273.078.343.051.075.13.11.235.11.125 0 .25-.047.375-.14.133-.102.32-.286.562-.548l.344.329c-.355.375-.656.64-.906.796-.25.157-.516.235-.797.235-.25 0-.45-.078-.594-.235-.137-.164-.203-.379-.203-.64 0-.219.047-.453.14-.703L4.314-1.5c-.387.543-.75.945-1.094 1.203-.344.262-.7.39-1.063.39-.367 0-.648-.1-.844-.312-.199-.218-.296-.508-.296-.875 0-.25.054-.597.171-1.047l.391-1.546c.102-.415.156-.711.156-.891 0-.156-.027-.27-.078-.344-.054-.07-.136-.11-.25-.11-.117 0-.242.055-.375.157-.136.094-.324.273-.562.531L.14-4.672c.332-.332.582-.562.75-.687.164-.125.328-.211.484-.266a1.66 1.66 0 0 1 .516-.078.76.76 0 0 1 .593.25c.145.168.22.398.22.687 0 .305-.063.688-.188 1.157l-.25 1c-.075.261-.125.464-.157.609-.023.148-.043.273-.062.375a2.427 2.427 0 0 0-.016.266c0 .273.04.468.125.593.094.118.242.172.453.172.164 0 .344-.062.532-.187.187-.133.382-.332.593-.594.22-.27.391-.531.516-.781a3.82 3.82 0 0 0 .328-.922l.547-2.531h1.016zm0 0"/></symbol><symbol overflow="visible" id="f"><path d="M2.016-6.734c.05-.196.086-.36.109-.485.02-.125.031-.238.031-.343a.414.414 0 0 0-.078-.266.322.322 0 0 0-.187-.125c-.075-.031-.215-.05-.422-.063l.078-.312 1.469-.047h.343L1.922-1.891c-.086.387-.125.672-.125.86 0 .156.023.273.078.343.05.075.129.11.234.11a.68.68 0 0 0 .375-.14c.133-.102.32-.286.563-.548l.328.329C3-.54 2.691-.27 2.453-.125a1.553 1.553 0 0 1-.812.219.756.756 0 0 1-.61-.281C.883-.376.813-.61.813-.891c0-.27.05-.648.156-1.14zm0 0"/></symbol><symbol overflow="visible" id="g"><path d="M4.828-3.625c.188.137.336.305.453.5.114.2.207.469.282.813l.14.687c.04.21.086.402.14.578.052.168.114.305.188.406a.864.864 0 0 0 .266.235c.094.054.234.094.422.125L6.656 0H5.031a8.16 8.16 0 0 1-.328-1.25l-.266-1.234a2.819 2.819 0 0 0-.156-.547.735.735 0 0 0-.218-.328.593.593 0 0 0-.297-.157 1.388 1.388 0 0 0-.391-.046h-.672l-.406 1.859c-.043.148-.07.266-.078.36a6.315 6.315 0 0 0-.031.296c-.012.094-.016.18-.016.25a.76.76 0 0 0 .047.297c.039.063.097.11.172.14a1.8 1.8 0 0 0 .421.079L2.75 0H.328l.078-.281a.872.872 0 0 0 .328-.125.7.7 0 0 0 .188-.219 1.95 1.95 0 0 0 .14-.344c.04-.133.102-.394.188-.781l1-4.516c.082-.382.125-.691.125-.921 0-.188-.047-.317-.14-.391-.087-.07-.227-.117-.422-.14L1.875-8h2.61c.406 0 .738.027 1 .078.269.043.492.117.671.219.188.094.344.219.469.375s.219.336.281.531c.063.188.094.39.094.61 0 .605-.184 1.12-.547 1.546-.367.418-.906.735-1.625.954zM3.5-4.063c.57 0 1.02-.078 1.344-.234.332-.156.593-.406.781-.75a2.311 2.311 0 0 0 .234-1.562 1.176 1.176 0 0 0-.125-.329.61.61 0 0 0-.187-.234 1.215 1.215 0 0 0-.297-.172 1.616 1.616 0 0 0-.406-.11 5.008 5.008 0 0 0-.625-.03c-.211 0-.43.011-.657.03l-.75 3.391zm0 0"/></symbol><symbol overflow="visible" id="h"><path d="M2.563.094c-.618 0-1.09-.164-1.422-.5-.336-.344-.5-.832-.5-1.469 0-.313.046-.672.14-1.078a4.079 4.079 0 0 1 .61-1.453c.289-.414.644-.735 1.062-.953a2.827 2.827 0 0 1 1.375-.344c.625 0 1.098.172 1.422.516.332.343.5.835.5 1.468 0 .461-.078.95-.234 1.469-.157.512-.375.945-.657 1.297a2.675 2.675 0 0 1-.984.781 3.138 3.138 0 0 1-1.313.266zm-.891-1.719c0 .43.086.746.266.953.175.211.445.313.812.313.375 0 .707-.172 1-.516.3-.344.535-.82.703-1.438.176-.624.266-1.171.266-1.64 0-.426-.086-.742-.25-.953-.157-.219-.414-.328-.766-.328-.406 0-.762.171-1.062.515-.305.344-.543.836-.72 1.469-.167.625-.25 1.168-.25 1.625zm0 0"/></symbol><symbol overflow="visible" id="i"><path d="M2.063-2.969c0 1.367.218 2.492.656 3.375.445.895 1.117 1.492 2.015 1.797l-.14.453C3.457 2.352 2.582 1.703 1.969.703c-.606-.988-.907-2.191-.907-3.61 0-1.405.301-2.609.907-3.609.613-1 1.488-1.648 2.625-1.953l.172.453c-.918.305-1.602.891-2.047 1.766-.438.867-.656 1.96-.656 3.281zm0 0"/></symbol><symbol overflow="visible" id="j"><path d="M2.906-2.969c0-1.32-.219-2.414-.656-3.281A3.389 3.389 0 0 0 .219-8.016l.156-.453c1.145.305 2.02.953 2.625 1.953.613 1 .922 2.204.922 3.61 0 1.418-.309 2.62-.922 3.61-.605 1-1.48 1.648-2.625 1.952l-.14-.453C1.14 1.898 1.812 1.301 2.25.406c.438-.883.656-2.008.656-3.375zm0 0"/></symbol><symbol overflow="visible" id="k"><path d="M.875-4.25v-.781h7.219v.781zm0 2.422v-.781h7.219v.78zm7.469-1.594zm0 0"/></symbol><symbol overflow="visible" id="l"><path d="M4.016 3.828H1.344v-14.5h2.672v.469H2.422V3.344h1.594zm0 0"/></symbol><symbol overflow="visible" id="m"><path d="M4.078-1.531c0 .23.008.402.031.515a.68.68 0 0 0 .141.282.572.572 0 0 0 .266.171c.125.043.273.075.453.094.187.024.43.04.734.047V0H1.375v-.422A8.17 8.17 0 0 0 2.297-.5c.187-.04.328-.094.422-.156a.516.516 0 0 0 .219-.281c.05-.125.078-.32.078-.594v-4.75c0-.157-.032-.27-.094-.344a.282.282 0 0 0-.235-.11c-.124 0-.304.07-.53.204-.231.125-.516.304-.86.531l-.25-.453 2.734-1.64h.328a27.34 27.34 0 0 0-.03 1.562zm0 0"/></symbol><symbol overflow="visible" id="p"><path d="M.266 3.344h1.578v-13.547H.266v-.469h2.671v14.5H.267zm0 0"/></symbol><symbol overflow="visible" id="q"><path d="M1.688-4.14c.207 0 .375.07.5.202.124.126.187.297.187.516 0 .211-.063.383-.188.516a.678.678 0 0 1-.5.187c-.199 0-.359-.062-.484-.187a.722.722 0 0 1-.187-.516c0-.219.062-.39.187-.515a.636.636 0 0 1 .484-.204zm0 0"/></symbol><symbol overflow="visible" id="r"><path d="M.453 0v-14.516h3.531v.532H1.688V0zm0 0"/></symbol><symbol overflow="visible" id="s"><path d="M.453 0v-14.656h1.234V0zm0 0"/></symbol><symbol overflow="visible" id="t"><path d="M1.688-14.516V-.53h2.296V0H.454v-14.516zm0 0"/></symbol><symbol overflow="visible" id="u"><path d="M3.266.094c-.844 0-1.477-.332-1.891-1C.957-1.57.75-2.578.75-3.922c0-.719.063-1.336.188-1.86.132-.53.316-.96.546-1.296.227-.344.5-.598.813-.766.32-.164.676-.25 1.062-.25.852 0 1.489.336 1.907 1 .414.657.625 1.653.625 2.985 0 1.386-.227 2.433-.672 3.14C4.769-.258 4.117.094 3.266.094zM1.906-4.11c0 1.28.114 2.218.344 2.812.238.594.61.89 1.11.89.468 0 .816-.28 1.046-.843.227-.563.344-1.426.344-2.594 0-.906-.063-1.633-.188-2.187-.117-.563-.277-.961-.484-1.203-.21-.239-.46-.36-.75-.36-.273 0-.5.086-.687.25-.18.157-.325.387-.438.688a4.958 4.958 0 0 0-.234 1.093c-.043.43-.063.915-.063 1.454zm0 0"/></symbol><symbol overflow="visible" id="v"><path d="M.875-3.047v-.781h7.219v.781zm0 0"/></symbol><symbol overflow="visible" id="w"><path d="M.938-6.344v-1.11a6.877 6.877 0 0 1 1.265-.484 4.574 4.574 0 0 1 1.14-.156c.446 0 .833.07 1.157.203.332.137.586.336.766.594.175.25.265.559.265.922 0 .324-.07.617-.203.875a1.86 1.86 0 0 1-.562.656 4.907 4.907 0 0 1-.922.547v.047c.238.055.469.133.687.234.219.094.41.227.578.391.176.168.317.367.422.594.102.23.157.492.157.781 0 .45-.102.852-.297 1.203-.2.356-.5.637-.907.844-.406.2-.902.297-1.484.297-.336 0-.7-.04-1.094-.11A6.822 6.822 0 0 1 .844-.328v-1.234h.703c.133.406.312.703.531.89.227.18.535.266.922.266.508 0 .895-.133 1.156-.406.258-.282.39-.692.39-1.235 0-.57-.171-1.008-.515-1.312-.343-.301-.851-.454-1.515-.454H2v-.515c.52-.031.96-.129 1.328-.297.363-.176.629-.398.797-.672.176-.27.266-.57.266-.906 0-.426-.118-.754-.344-.984-.23-.239-.563-.36-1-.36-.375 0-.68.102-.906.297-.23.2-.399.5-.5.906zm0 0"/></symbol><symbol overflow="visible" id="x"><path d="M4.11-.938c.195 0 .35-.007.468-.03a.85.85 0 0 0 .281-.126.55.55 0 0 0 .172-.203c.04-.094.094-.234.157-.422h.484L5.578 0H.75v-.281c.176-.406.406-.82.688-1.25.28-.438.687-.946 1.218-1.532.446-.5.77-.878.969-1.14.219-.281.379-.52.484-.719.114-.207.192-.398.235-.578.05-.188.078-.367.078-.547 0-.3-.047-.562-.14-.781a1.13 1.13 0 0 0-.438-.531c-.188-.125-.43-.188-.719-.188-.742 0-1.234.406-1.484 1.219H.937v-1.125c.47-.227.907-.39 1.313-.484.414-.102.79-.157 1.125-.157.719 0 1.266.164 1.64.485.376.312.563.773.563 1.375 0 .21-.023.402-.062.578-.043.18-.11.351-.204.515a3.255 3.255 0 0 1-.359.547c-.148.2-.308.399-.484.594-.18.2-.485.531-.922 1-.75.793-1.297 1.48-1.64 2.063zm0 0"/></symbol><symbol overflow="visible" id="y"><path d="M2.516 0v-13.984H.219v-.532H3.75V0zm0 0"/></symbol><symbol overflow="visible" id="z"><path d="M3.75-14.656V0H2.516v-14.656zm0 0"/></symbol><symbol overflow="visible" id="A"><path d="M3.75-14.516V0H.219v-.531h2.297v-13.985zm0 0"/></symbol><symbol overflow="visible" id="B"><path d="M3.047-8l-.063.281c-.18.024-.312.074-.406.157a.704.704 0 0 0-.203.343 2.981 2.981 0 0 0-.047.594c0 .055.004.23.016.531L2.5-1.812v.468h.063l2.53-4.578c.157-.27.27-.5.345-.687.07-.196.109-.368.109-.516 0-.332-.2-.531-.594-.594L5.016-8h2.406l-.063.281c-.105.024-.21.063-.312.125a1.6 1.6 0 0 0-.328.328c-.117.149-.297.434-.547.86l-3.75 6.5H1.64L1.25-6.438a3.98 3.98 0 0 0-.078-.656.969.969 0 0 0-.203-.422C.883-7.617.75-7.687.563-7.719L.625-8zm0 0"/></symbol><symbol overflow="visible" id="n"><path d="M3.188-.719c.132 0 .242-.004.328-.015a.498.498 0 0 0 .203-.063.386.386 0 0 0 .14-.156c.04-.07.086-.172.141-.297h.406c-.023.21-.039.418-.047.625-.011.21-.027.418-.046.625H.592v-.234C.665-.391.75-.54.844-.688c.095-.156.196-.312.313-.468.125-.164.258-.332.407-.5.144-.164.312-.344.5-.532.269-.269.488-.5.656-.687.176-.195.312-.375.406-.531.102-.156.172-.297.203-.422a1.408 1.408 0 0 0 0-.828.835.835 0 0 0-.187-.313.624.624 0 0 0-.297-.203 1.005 1.005 0 0 0-.406-.078c-.282 0-.516.074-.704.219-.18.148-.32.36-.421.64H.734v-.859a5.539 5.539 0 0 1 1.032-.328c.32-.07.609-.11.859-.11.3 0 .563.04.781.11.219.062.39.152.516.266.133.117.234.257.297.421.062.168.093.344.093.532 0 .117-.011.226-.03.328-.012.093-.04.187-.079.281a2.749 2.749 0 0 1-.156.297 2.42 2.42 0 0 1-.234.297 3.877 3.877 0 0 1-.297.328c-.118.125-.246.262-.391.406l-.438.438a16.056 16.056 0 0 0-.828.89 2.679 2.679 0 0 0-.296.375zm0 0"/></symbol><symbol overflow="visible" id="o"><path d="M.75-4.375v-.875c.352-.145.68-.254.984-.328.301-.07.594-.11.875-.11.239 0 .457.028.657.079.207.043.382.117.53.218.157.106.274.235.36.391.082.148.125.32.125.516 0 .187-.027.355-.078.5a1.297 1.297 0 0 1-.25.39c-.117.117-.25.219-.406.313-.156.094-.34.187-.547.281v.047c.195.031.379.09.547.172.164.074.312.172.437.297.133.117.239.25.313.406.07.156.11.328.11.515 0 .231-.048.45-.141.657-.086.199-.215.37-.391.515a1.94 1.94 0 0 1-.656.344c-.25.082-.547.125-.89.125-.282 0-.563-.027-.845-.078a7.375 7.375 0 0 1-.796-.219v-.953h.562c.05.149.11.274.172.375a.983.983 0 0 0 .219.266c.093.062.195.11.312.14.113.024.238.032.375.032.383 0 .672-.086.86-.266.195-.176.296-.445.296-.813 0-.394-.132-.69-.39-.89-.25-.195-.633-.297-1.14-.297h-.376v-.422c.3-.02.563-.062.781-.125.227-.07.414-.164.563-.281.156-.113.27-.25.344-.406.07-.157.109-.317.109-.485 0-.281-.086-.5-.25-.656-.168-.164-.406-.25-.719-.25-.273 0-.5.074-.687.219-.18.148-.313.367-.407.656zm0 0"/></symbol><symbol overflow="visible" id="C"><path d="M3.219-1.156v.234c.008.063.02.121.031.172a.252.252 0 0 0 .047.11c.02.03.047.058.078.078.04.042.086.074.14.093.063.012.133.028.22.047.093.012.203.024.328.031.132 0 .289.008.468.016V0H1.047v-.375c.176-.008.32-.016.437-.016.125-.007.227-.02.313-.03L2-.47a.53.53 0 0 0 .125-.062 1.36 1.36 0 0 0 .11-.094.237.237 0 0 0 .062-.11c.02-.05.035-.109.047-.171a2.25 2.25 0 0 0 .015-.25v-3.157c0-.113-.023-.19-.062-.234a.233.233 0 0 0-.188-.078c-.093 0-.23.047-.406.14-.18.094-.406.235-.687.423-.043-.07-.079-.141-.11-.204-.031-.07-.07-.14-.11-.203.364-.195.724-.394 1.079-.593l1.094-.594h.265a5.867 5.867 0 0 0-.015.437v.719zm0 0"/></symbol><symbol overflow="visible" id="D"><path d="M2.625-4.656v.343L1.172-.796.656-.953 1.5-4.656zm0 0"/></symbol></defs><use xlink:href="#a" x="-.42" y="30.939"/><use xlink:href="#b" x="7.231" y="30.939"/><use xlink:href="#c" x="14.189" y="30.939"/><use xlink:href="#d" x="19.198" y="30.939"/><use xlink:href="#e" x="29.42" y="30.939"/><use xlink:href="#f" x="36.593" y="30.939"/><use xlink:href="#f" x="40.742" y="30.939"/><use xlink:href="#g" x="44.902" y="30.939"/><use xlink:href="#h" x="52.876" y="30.939"/><use xlink:href="#d" x="59.511" y="30.939"/><use xlink:href="#i" x="69.733" y="30.939"/><use xlink:href="#c" x="74.695" y="30.939"/><use xlink:href="#j" x="79.704" y="30.939"/><use xlink:href="#k" x="87.989" y="30.939"/><use xlink:href="#l" x="100.243" y="30.939"/><use xlink:href="#m" x="104.49" y="30.413"/><use xlink:href="#c" x="121.072" y="30.413"/><use xlink:href="#c" x="136.052" y="30.413"/><use xlink:href="#n" x="140.935" y="26.035"/><use xlink:href="#c" x="156.428" y="30.413"/><use xlink:href="#o" x="161.32" y="26.035"/><use xlink:href="#p" x="166.85" y="30.939"/><use xlink:href="#q" x="173.76" y="30.939"/><use xlink:href="#r" x="179.793" y="15.583"/><use xlink:href="#s" x="179.793" y="28.427"/><use xlink:href="#s" x="179.793" y="41.215"/><use xlink:href="#t" x="179.793" y="53.925"/><use xlink:href="#m" x="188.445" y="8.745"/><use xlink:href="#u" x="213.957" y="8.745"/><use xlink:href="#u" x="239.47" y="8.745"/><use xlink:href="#u" x="264.994" y="8.745"/><use xlink:href="#u" x="188.445" y="23.19"/><use xlink:href="#u" x="213.957" y="23.19"/><use xlink:href="#m" x="239.47" y="23.19"/><use xlink:href="#u" x="264.994" y="23.19"/><use xlink:href="#v" x="183.979" y="37.636"/><use xlink:href="#w" x="192.91" y="37.636"/><use xlink:href="#w" x="213.951" y="37.636"/><use xlink:href="#v" x="235.004" y="37.636"/><use xlink:href="#x" x="243.934" y="37.636"/><use xlink:href="#v" x="260.528" y="37.636"/><use xlink:href="#m" x="269.459" y="37.636"/><use xlink:href="#x" x="188.445" y="52.082"/><use xlink:href="#v" x="209.486" y="52.082"/><use xlink:href="#x" x="218.417" y="52.082"/><use xlink:href="#m" x="239.47" y="52.082"/><use xlink:href="#m" x="264.994" y="52.082"/><use xlink:href="#y" x="276.071" y="15.583"/><use xlink:href="#z" x="276.071" y="28.427"/><use xlink:href="#z" x="276.071" y="41.215"/><use xlink:href="#A" x="276.071" y="53.925"/><use xlink:href="#q" x="282.913" y="30.939"/><use xlink:href="#r" x="288.944" y="15.583"/><use xlink:href="#s" x="288.944" y="28.427"/><use xlink:href="#s" x="288.944" y="41.215"/><use xlink:href="#t" x="288.944" y="53.925"/><use xlink:href="#B" x="293.579" y="8.745"/><use xlink:href="#C" x="298.255" y="11.185"/><use xlink:href="#B" x="293.579" y="23.19"/><use xlink:href="#n" x="298.255" y="25.63"/><use xlink:href="#B" x="293.129" y="37.636"/><use xlink:href="#D" x="300.636" y="33.171"/><use xlink:href="#C" x="297.805" y="40.391"/><use xlink:href="#B" x="293.129" y="52.082"/><use xlink:href="#D" x="300.636" y="47.616"/><g><use xlink:href="#n" x="297.805" y="54.867"/></g><g><use xlink:href="#y" x="304.235" y="15.583"/></g><g><use xlink:href="#z" x="304.235" y="28.427"/></g><g><use xlink:href="#z" x="304.235" y="41.215"/></g><g><use xlink:href="#A" x="304.235" y="53.925"/></g></svg>