<svg xmlns="http://www.w3.org/2000/svg" xmlns:xlink="http://www.w3.org/1999/xlink" width="307pt" height="56pt" viewBox="0 0 307 56"><defs><symbol overflow="visible" id="a"><path d="M7.781-8.219c-.922-.344-1.593-.484-2.328-.484-.984 0-2.078.344-2.906.89C1.14-6.859.39-5.358.39-3.53c0 2.328 1.421 3.75 3.703 3.75C5.25.219 6.187-.094 7.28-.844l.157-.578-.266-.187c-1.234.765-1.75.921-2.672.921-1.89 0-2.781-1.015-2.781-3.14 0-1.328.375-2.406 1.11-3.156.546-.563 1.218-.829 2.171-.829.86 0 1.36.141 2 .547v1.063h.578c.078-.813.172-1.328.36-1.953zm0 0"/></symbol><symbol overflow="visible" id="b"><path d="M4.984-1.14l-.156-.485c-.25.203-.266.219-.328.266-.375.312-.453.39-.625.39-.125 0-.047.031-.047-.156 0-.047 0-.078.016-.125l1.11-4.578-.25-.203-.438.218c-.438-.156-.672-.218-.985-.218-.344 0-.578.062-.906.218-.75.375-1.234.766-1.531 1.36l-.047.094C.28-3.297-.093-1.875-.093-.922c0 .516.327 1.047.546 1.047.25 0 .797-.281 1.234-.656.516-.453.985-1.016 1.641-1.938l-.234-.094-.344 1.516a2.715 2.715 0 0 0-.078.61c0 .265.25.562.437.562.266 0 .86-.36 1.891-1.219zM3.672-5.079c-.266 1.281-.453 1.797-.844 2.406C2.156-1.656 1.516-.969 1.125-.969c-.14 0-.078-.015-.078-.344 0-.765.297-2.093.719-3.093.296-.688.453-.766 1.03-.766.282 0 .5.047.86.172zm0 0"/></symbol><symbol overflow="visible" id="c"><path d="M3.703-5.516c-.453.047-.86.063-1.156.063.172-.984.297-1.578.531-2.25l-.25-.328a7.16 7.16 0 0 1-1.094.531l-.296 2.031c-.391.203-.704.328-1.063.407l-.047.406h1l-.64 3.25C.625-1.11.53-.813.53-.5c0 .297.266.61.5.61.422 0 .922-.282 1.86-1.032.218-.172.14-.125.437-.36l-.25-.437-.672.469c-.36.25-.484.313-.625.313-.093 0-.031.046-.031-.11 0-.297.156-1.234.516-3l.14-.61h1.266l.203-.89zm0 0"/></symbol><symbol overflow="visible" id="d"><path d="M8.938-1.25l-.172-.297-.454.297c-.359.219-.5.313-.624.313-.079 0-.032.03-.032-.11 0-.11.032-.219.094-.469l.89-3.546c.047-.204.079-.407.079-.5 0-.204-.25-.47-.438-.47-.344 0-.906.266-1.64.766-.75.547-1.172.97-1.75 1.782l.234.109.36-1.64c.046-.25.077-.423.077-.5 0-.235-.25-.516-.437-.516-.36 0-1.016.312-1.672.812-.531.407-.765.657-1.547 1.703l.25.094.39-1.594c.048-.187.079-.359.079-.5 0-.234-.25-.515-.406-.515-.266 0-.813.297-1.703.922l-.391.296.172.485.547-.36c.437-.28.39-.265.469-.265.14 0 .078 0 .078.172 0 .61-.5 2.922-.985 4.625l.078.281L1.5-.094l.297-1.328c.281-1.328.562-1.937 1.234-2.656.5-.547.938-.875 1.266-.875.094 0 0-.031 0 .125 0 .422-.25 1.781-.766 3.875l-.187.797.14.281 1-.219.266-1.39c.203-.97.563-1.766 1.094-2.36C6.5-4.563 7-4.954 7.39-4.954c.093 0 .015-.015.015.173 0 .281-.015.453-.312 1.5l-.5 1.875c-.11.328-.157.64-.157.906 0 .297.266.61.5.61.313 0 .829-.282 2.079-1.22zm0 0"/></symbol><symbol overflow="visible" id="e"><path d="M6.219-1.25l-.188-.297-.453.297c-.297.188-.469.281-.625.281-.094 0-.016.047-.016-.078 0-.14.032-.328.079-.469L6.03-5.828l-.187-.219-.985.25-.14.719c-.172.906-.422 1.61-.782 2.156-.703 1.11-1.546 1.953-2.03 1.953-.11 0-.032.031-.032-.172 0-.187.031-.312.078-.625l.688-3.25c.03-.187.062-.343.062-.5 0-.234-.234-.515-.39-.515-.25 0-.813.281-1.704.922l-.39.296.172.485.546-.36c.36-.218.375-.234.485-.234.125 0 .062-.031.062.11a.792.792 0 0 1-.03.203l-.75 3.562c-.016.11-.048.375-.048.563 0 .265.328.609.563.609.75 0 2.297-1.375 3.297-3.016l-.235-.093-.437 1.687c-.094.313-.14.61-.14.797 0 .297.28.625.5.625.312 0 .859-.313 2.077-1.234zm0 0"/></symbol><symbol overflow="visible" id="f"><path d="M3.094-8.86l-.219-.187c-.75.375-1.063.438-2.047.531l-.094.5h.735c.281 0 .265-.046.265.141 0 .156-.046.422-.078.578L.516-1.703C.344-1.093.28-.75.28-.484c0 .28.281.593.5.593.313 0 .86-.296 2.094-1.218l-.25-.438-.469.297c-.344.234-.5.313-.61.313-.093 0-.03.03-.03-.11s.03-.297.078-.437L3.14-8.813zm0 0"/></symbol><symbol overflow="visible" id="g"><path d="M7.766-.094V-.53c-.61-.078-.657-.14-.985-.64L4.703-4.267c.438-.078.875-.265 1.313-.578.687-.5 1.093-1.25 1.093-1.984 0-1.031-1.234-1.703-2.218-1.703-.594 0-1.204.031-1.797.031l-1.938-.047-.062.61.828.03c.297 0 .281-.03.281.188 0 .172-.047.547-.11.907l-.905 5.187C1-.531 1.125-.641.64-.594l-.61.031-.093.61L1.688 0 3.28.047l.047-.61-.719-.03c-.328-.032-.296.015-.296-.235 0-.11 0-.219.046-.422l1.016-5.813.11-.484.046-.203c.25-.063.485-.094.813-.094 1.031 0 1.437.344 1.437 1.219 0 1.14-.781 1.844-2.031 1.844h-.625l-.094.281C4.687-2.094 5.062-1.516 5.984.047 6.36.016 6.641 0 6.938 0c.25 0 .468.016.828.063zm0 0"/></symbol><symbol overflow="visible" id="h"><path d="M5.047-4.094c0-1.125-.734-1.937-1.719-1.937-.515 0-1.187.25-1.719.625-.968.703-1.546 2-1.546 3.453C.063-.687.734.125 1.734.125c.657 0 1.47-.344 2-.844.75-.703 1.313-2.156 1.313-3.375zm-1.188.203C3.86-2.75 3.531-1.578 3-.937c-.219.25-.422.359-.781.359-.703 0-.969-.406-.969-1.36 0-1.343.422-2.718 1.016-3.203.156-.125.328-.171.609-.171.734 0 .984.406.984 1.421zm0 0"/></symbol><symbol overflow="visible" id="i"><path d="M4.203-7.828a.735.735 0 0 1-.187-.14c-.063-.063-.11-.126-.22-.329-1.593 1.61-2.5 3.266-2.5 4.781v.797c0 1.516.907 3.172 2.5 4.781.11-.203.157-.265.22-.328.062-.062.125-.109.312-.203C2.875.063 2.281-1.344 2.281-2.719v-.797c0-1.39.594-2.78 2.047-4.25zm0 0"/></symbol><symbol overflow="visible" id="j"><path d="M3.766-2.719v-.797c0-1.515-.907-3.171-2.516-4.78-.11.202-.156.265-.203.327-.063.063-.125.11-.313.203 1.438 1.47 2.032 2.86 2.032 4.25v.797c0 1.375-.594 2.781-2.032 4.25.188.094.25.14.313.203.047.063.094.125.203.329C2.86.452 3.766-1.204 3.766-2.72zm0 0"/></symbol><symbol overflow="visible" id="k"><path d="M8.266-4.078a1.419 1.419 0 0 1-.047-.36c0-.109.015-.234.062-.484h-7.5c.063.25.063.375.063.484 0 .125 0 .235-.063.5h7.5zm0 2.625a1.332 1.332 0 0 1-.047-.36c0-.109.015-.234.062-.484h-7.5c.063.25.063.375.063.485 0 .125 0 .25-.063.5h7.5zm0 0"/></symbol><symbol overflow="visible" id="l"><path d="M4.406-9.766c-.015-.078-.031-.156-.031-.234 0-.094.016-.172.078-.375H1.375V4.141h3.078c-.062-.204-.078-.297-.078-.375 0-.079.016-.172.078-.375H2.437V-9.641h2.016zm0 0"/></symbol><symbol overflow="visible" id="m"><path d="M5.125-.094v-.484l-.75-.047c-.656-.031-.64-.031-.64-.656v-7.172l-.313-.125c-.875.469-1.61.781-2.86 1.219l.125.718h.235l1.547-.687.031-.016c.063 0-.047-.015-.047.266v5.797c0 .625.016.625-.64.656L1-.578v.625L3.125 0l2 .047zm0 0"/></symbol><symbol overflow="visible" id="p"><path d="M3.906 4v-14.375H.828c.063.203.078.281.078.375 0 .078-.015.156-.078.36h2.016V3.39H.828c.063.204.078.297.078.376 0 .078-.015.171-.078.375h3.078zm0 0"/></symbol><symbol overflow="visible" id="q"><path d="M2.516-3.125c0-.422-.407-.844-.844-.844-.422 0-.86.422-.86.844 0 .438.438.86.86.86.437 0 .844-.422.844-.86zm0 0"/></symbol><symbol overflow="visible" id="r"><path d="M5.078-14.781H1.562V0h1.235v-14.031h2.469c-.079-.203-.094-.281-.094-.375 0-.078.016-.172.094-.375zm0 0"/></symbol><symbol overflow="visible" id="s"><path d="M2.672-9.938h-1.11V0h1.235v-9.938zm0 0"/></symbol><symbol overflow="visible" id="t"><path d="M5.219-.125a.648.648 0 0 1-.047-.25c0-.078.016-.156.094-.36h-2.47V-14.78H1.564V0h3.703zm0 0"/></symbol><symbol overflow="visible" id="u"><path d="M5.688-4.5c0-2.625-.907-4-2.547-4C1.297-8.5.203-6.89.203-4c0 1.39.281 2.703.703 3.281.422.594 1.203.953 1.938.953 1.812 0 2.844-1.687 2.844-4.734zm-1.282.594C4.406-1.36 4.094-.437 3-.437c-1.156 0-1.516-1.079-1.516-4 0-2.516.313-3.375 1.438-3.375 1.172 0 1.484 1.03 1.484 3.906zm0 0"/></symbol><symbol overflow="visible" id="v"><path d="M8.266-2.766a1.332 1.332 0 0 1-.047-.359c0-.11.015-.234.062-.484h-7.5c.063.25.063.375.063.484 0 .125 0 .25-.063.5h7.5zm0 0"/></symbol><symbol overflow="visible" id="w"><path d="M5.656-2.813c0-.562-.281-1.171-.703-1.468-.297-.219-.672-.344-.953-.407.734-.562 1.125-1.203 1.125-1.906 0-1.062-1.016-1.906-2.344-1.906-.812 0-1.453.266-2.047.86L.328-5.954h.64l.266-.797c.125-.406.75-.688 1.375-.688.766 0 1.266.5 1.266 1.25 0 .907-.563 1.532-1.406 1.532-.11 0-.469.187-.469.187l-.25-.093-.14.671.202.188C2.297-3.938 2.516-4 2.845-4c1 0 1.422.516 1.422 1.594 0 1.219-.579 1.89-1.704 1.89-.546 0-.937-.14-1.296-.468C.984-1.25.859-1.438.578-2.25l-.562.219C.28-1.234.375-.797.469-.11c.765.25 1.281.343 1.734.343.953 0 2.14-.562 2.813-1.375.406-.484.64-1.109.64-1.671zm0 0"/></symbol><symbol overflow="visible" id="x"><path d="M5.719-.094c-.016-.25-.016-.375-.016-.547 0-.14 0-.265.031-.671l-4.28.125.093.234 2.187-2.313C4.891-4.5 5.281-5.25 5.281-6.14 5.281-7.516 4.22-8.5 2.703-8.5c-.86 0-1.562.281-2.172.906L.312-5.766h.594l.188-.687c.203-.688.5-.86 1.297-.86 1.03 0 1.546.516 1.546 1.532 0 .89-.468 1.687-1.828 3.11L.047-.454v.5L2.859 0l2.875.047zm0 0"/></symbol><symbol overflow="visible" id="y"><path d="M4.656-.125v-14.656H.953c.078.203.094.297.094.375 0 .094-.016.172-.094.375h2.469V0h1.234zm0 0"/></symbol><symbol overflow="visible" id="z"><path d="M4.656-.125v-9.813H3.422V0h1.234zm0 0"/></symbol><symbol overflow="visible" id="A"><path d="M4.656-.125v-14.656H3.422V-.734H.953c.078.203.094.28.094.359 0 .094-.016.172-.094.375h3.703zm0 0"/></symbol><symbol overflow="visible" id="B"><path d="M9.14-8.063v-.484c-.515.031-.89.047-1.28.047l-1.626-.047v.61l.454.03c.453.032.546.016.546.25 0 .126-.015.157-.156.407L3.594-1.375l.25.094-.86-6.313c-.046-.36.047-.312.375-.312L4-7.938v-.609L2.375-8.5.75-8.547v.61l.438.03c.53.048.515 0 .562.438L2.828.094h.766l4.562-7.438c.297-.468.297-.531.64-.562l.345-.047zm0 0"/></symbol><symbol overflow="visible" id="n"><path d="M4.75-.11c-.016-.187-.016-.265-.016-.39s0-.203.032-.547l-3.141.094 1.5-1.469c.938-.922 1.281-1.5 1.281-2.172 0-1.015-.906-1.781-2.14-1.781-.688 0-1.282.219-1.782.703l-.187 1.39h.547l.172-.53c.156-.516.359-.61 1-.61.843 0 1.203.344 1.203 1.094 0 .672-.36 1.234-1.453 2.297L.078-.391v.422L2.406 0l2.36.031zm0 0"/></symbol><symbol overflow="visible" id="o"><path d="M4.703-2.125c0-.422-.234-.89-.578-1.11a2.69 2.69 0 0 0-.719-.296c.531-.36.875-.875.875-1.39 0-.798-.875-1.454-1.937-1.454-.656 0-1.203.203-1.703.656L.312-4.406h.594l.219-.64c.11-.298.563-.47 1.078-.47.61 0 .969.344.969.907 0 .656-.406 1.078-1.094 1.078-.078 0-.344.203-.344.203l-.265-.094-.125.531.203.141c.39-.172.578-.203.844-.203.796 0 1.093.328 1.093 1.14 0 .907-.421 1.36-1.328 1.36-.437 0-.719-.094-1.015-.344C.906-1 .828-1.094.578-1.75l-.531.188c.234.609.312.937.375 1.468C1.078.11 1.5.172 1.875.172c.766 0 1.75-.422 2.281-1.016.328-.375.547-.86.547-1.281zm0 0"/></symbol><symbol overflow="visible" id="C"><path d="M4.281-.11V-.5l-.656-.031c-.531-.031-.484.015-.484-.453v-5.344l-.282-.094c-.625.313-1.312.578-2.375.906l.125.594h.22l1.25-.516h.03c.047 0-.078-.062-.078.157v4.297c0 .468.047.421-.469.453L.86-.5v.531L2.61 0l1.672.031zm0 0"/></symbol><symbol overflow="visible" id="D"><path d="M2.61-4.672l-.22-.203-1.093.39-.89 3.376.312.234.5-.266 1.453-3.468zm0 0"/></symbol></defs><use xlink:href="#a" x="-.321" y="30.513"/><use xlink:href="#b" x="7.785" y="30.513"/><use xlink:href="#c" x="13.093" y="30.513"/><use xlink:href="#d" x="17.134" y="30.513"/><use xlink:href="#e" x="26.435" y="30.513"/><use xlink:href="#f" x="33.082" y="30.513"/><use xlink:href="#f" x="36.405" y="30.513"/><use xlink:href="#g" x="39.729" y="30.513"/><use xlink:href="#h" x="47.703" y="30.513"/><use xlink:href="#d" x="53.011" y="30.513"/><use xlink:href="#i" x="62.312" y="30.513"/><use xlink:href="#c" x="67.381" y="30.513"/><use xlink:href="#j" x="71.422" y="30.513"/><use xlink:href="#k" x="79.815" y="30.513"/><use xlink:href="#l" x="92.224" y="30.513"/><use xlink:href="#m" x="97.526" y="30.523"/><use xlink:href="#c" x="113.462" y="30.523"/><use xlink:href="#c" x="127.462" y="30.523"/><use xlink:href="#n" x="131.511" y="26.291"/><use xlink:href="#c" x="146.974" y="30.523"/><use xlink:href="#o" x="151.015" y="26.291"/><use xlink:href="#p" x="156.515" y="30.513"/><use xlink:href="#q" x="164.465" y="30.513"/><use xlink:href="#r" x="170.472" y="15.637"/><use xlink:href="#s" x="170.472" y="24.338"/><use xlink:href="#s" x="170.472" y="32.366"/><use xlink:href="#s" x="170.472" y="40.394"/><use xlink:href="#t" x="170.472" y="53.925"/><use xlink:href="#m" x="181.244" y="8.744"/><use xlink:href="#u" x="206.266" y="8.744"/><use xlink:href="#u" x="231.288" y="8.744"/><use xlink:href="#u" x="256.311" y="8.744"/><use xlink:href="#u" x="181.244" y="23.19"/><use xlink:href="#u" x="206.266" y="23.19"/><use xlink:href="#m" x="231.288" y="23.19"/><use xlink:href="#u" x="256.311" y="23.19"/><use xlink:href="#v" x="176.701" y="37.636"/><use xlink:href="#w" x="185.787" y="37.636"/><use xlink:href="#w" x="206.266" y="37.636"/><use xlink:href="#v" x="226.745" y="37.636"/><use xlink:href="#x" x="235.831" y="37.636"/><use xlink:href="#v" x="251.768" y="37.636"/><use xlink:href="#m" x="260.854" y="37.636"/><use xlink:href="#x" x="181.244" y="52.082"/><use xlink:href="#v" x="201.723" y="52.082"/><use xlink:href="#x" x="210.809" y="52.082"/><use xlink:href="#m" x="231.288" y="52.082"/><use xlink:href="#m" x="256.311" y="52.082"/><use xlink:href="#y" x="266.843" y="15.637"/><use xlink:href="#z" x="266.843" y="24.338"/><use xlink:href="#z" x="266.843" y="32.366"/><use xlink:href="#z" x="266.843" y="40.394"/><use xlink:href="#A" x="266.843" y="53.925"/><use xlink:href="#q" x="275.728" y="30.513"/><use xlink:href="#r" x="281.732" y="15.637"/><use xlink:href="#s" x="281.732" y="24.338"/><use xlink:href="#s" x="281.732" y="32.366"/><use xlink:href="#s" x="281.732" y="40.394"/><use xlink:href="#t" x="281.732" y="53.925"/><use xlink:href="#B" x="287.961" y="8.745"/><use xlink:href="#C" x="296.592" y="11.518"/><g><use xlink:href="#B" x="287.961" y="23.19"/></g><g><use xlink:href="#n" x="296.592" y="25.964"/></g><g><use xlink:href="#B" x="287.961" y="37.636"/></g><g><use xlink:href="#D" x="297.31" y="33.404"/></g><g><use xlink:href="#C" x="296.592" y="41.461"/></g><g><use xlink:href="#B" x="287.961" y="52.082"/></g><g><use xlink:href="#D" x="297.31" y="47.85"/></g><g><use xlink:href="#n" x="296.592" y="55.863"/></g><g><use xlink:href="#y" x="302.093" y="15.637"/></g><g><use xlink:href="#z" x="302.093" y="24.338"/></g><g><use xlink:href="#z" x="302.093" y="32.366"/></g><g><use xlink:href="#z" x="302.093" y="40.394"/></g><g><use xlink:href="#A" x="302.093" y="53.925"/></g></svg>