<svg xmlns="http://www.w3.org/2000/svg" xmlns:xlink="http://www.w3.org/1999/xlink" width="616pt" height="60" viewBox="0 0 616 45"><defs><symbol overflow="visible" id="a"><path d="M.313.031C.671.016 1.046 0 1.405 0c.64 0 1.266.031 1.922.031.563 0 1.125-.125 1.688-.469.953-.546 1.468-1.375 1.468-2.28 0-.516-.156-.907-.484-1.173-.313-.25-.672-.359-1.5-.468.688-.25.969-.391 1.36-.72.53-.484.827-1.03.827-1.64 0-.984-.968-1.547-1.89-1.547-.594 0-1.203.032-1.797.032-.61 0-1.203-.016-1.813-.032l-.03.329.64.03c.281 0 .422.095.422.313 0 .172-.063.547-.11.907L1.063-.657c-.032.22-.188.298-.688.376zm1.671-.515l.61-3.579h1.015c1.235 0 1.829.5 1.829 1.547 0 1.22-.875 2.11-2.063 2.11-.25 0-.594-.016-.984-.047a2.223 2.223 0 0 0-.407-.031zM2.672-4.5l.578-3.266c.328 0 .64-.062.953-.062.969 0 1.453.422 1.453 1.328 0 1.25-.89 2-2.375 2zm0 0"/></symbol><symbol overflow="visible" id="b"><path d="M.172-1.344c0 .922.531 1.469 1.39 1.469.688 0 1.344-.328 2.454-1.219l-.094-.234-.281.203C3-.672 2.42-.437 2-.437c-.578 0-.906-.438-.906-1.172 0-.297.015-.61.093-.954l.97-.234c.202-.047.515-.172.827-.297C4-3.547 4.47-4.094 4.47-4.828c0-.563-.39-.938-1-.938-.781 0-2.078.813-2.563 1.563-.36.594-.734 2.031-.734 2.86zM1.25-2.828l.094-.453c.203-.797.437-1.313.765-1.61.22-.218.61-.375.907-.375.343 0 .562.25.562.625 0 .532-.406 1.094-1.031 1.391-.328.156-.766.297-1.297.422zm.64-3.516h.407l1.937-1.203c.25-.156.329-.266.329-.453 0-.188-.22-.36-.454-.36-.109 0-.25.063-.39.204zm0 0"/></symbol><symbol overflow="visible" id="c"><path d="M-.016-.25l.11.328c.344-.281.672-.39 1.093-.39.297 0 .625.046 1.25.203.72.171 1.094.234 1.407.234.156 0 .25-.016.61-.11.124-.75.218-1.156.359-1.718h-.266l-.266.719c-.078.218-.218.296-.468.296-.266 0-.532-.062-.797-.125-.391-.078-.797-.14-1.032-.14-.375 0-.703.062-1.14.25l4.062-4.563.063-.39-.11-.11-.265.282a.533.533 0 0 1-.407.171c-.406 0-1.03-.109-1.609-.25-.312-.093-.625-.203-.953-.203-.203 0-.438.047-.734.125L.516-4.187h.25l.359-.688c.203-.047.313-.063.469-.063.156 0 .297.016.531.063.406.078.719.125.969.125.437 0 .719-.078 1.11-.281zm0 0"/></symbol><symbol overflow="visible" id="d"><path d="M.406-4.64l.078.234.391-.25c.344-.219.469-.266.578-.266.11 0 .203.11.203.25 0 .094-.047.344-.11.531l-.78 2.86c-.11.39-.157.687-.157.922 0 .28.125.468.36.468.312 0 .75-.265 1.906-1.125l-.11-.218-.312.203c-.36.25-.61.36-.734.36-.078 0-.157-.11-.157-.235 0-.125.016-.219.094-.485l.907-3.625c.062-.203.078-.328.078-.437 0-.203-.094-.313-.297-.313-.266 0-.688.25-1.61.891zm1.656-2.563c0 .297.172.484.47.484.374 0 .64-.343.64-.797 0-.296-.172-.5-.422-.5-.36 0-.688.407-.688.813zm0 0"/></symbol><symbol overflow="visible" id="e"><path d="M.172-1.344c0 .922.531 1.469 1.39 1.469.688 0 1.344-.328 2.454-1.219l-.094-.234-.281.203C3-.672 2.42-.437 2-.437c-.578 0-.906-.438-.906-1.172 0-.297.015-.61.093-.954l.97-.234c.202-.047.515-.172.827-.297C4-3.547 4.47-4.094 4.47-4.828c0-.563-.39-.938-1-.938-.781 0-2.078.813-2.563 1.563-.36.594-.734 2.031-.734 2.86zM1.25-2.828l.094-.453c.203-.797.437-1.313.765-1.61.22-.218.61-.375.907-.375.343 0 .562.25.562.625 0 .532-.406 1.094-1.031 1.391-.328.156-.766.297-1.297.422zm0 0"/></symbol><symbol overflow="visible" id="f"><path d="M.313-4.64l.078.234.39-.25c.328-.203.469-.266.563-.266.125 0 .203.11.203.266 0 .687-.5 3.156-.984 4.687L.688.11c.25-.078.515-.14.796-.187L1.797-1.5c.219-1 .484-1.625 1.016-2.313.406-.53.718-.78.984-.78.187 0 .297.062.437.234h.172c.032-.454.094-.844.188-1.329-.14-.062-.188-.078-.25-.078-.36 0-.735.297-1.172.907-.406.578-.813 1.156-1.11 1.796l.297-1.5c.063-.265.157-.546.157-.812 0-.25-.094-.39-.282-.39-.25 0-.703.25-1.593.89zm0 0"/></symbol><symbol overflow="visible" id="g"><path d="M4.11-7.61a.735.735 0 0 1-.188-.14c-.063-.063-.11-.11-.14-.188-1.47 1.47-2.345 3.032-2.345 4.563v.781c0 1.516.875 3.078 2.344 4.547a.735.735 0 0 1 .14-.187.735.735 0 0 1 .188-.141C2.781.281 2.156-1.203 2.156-2.594v-.781c0-1.39.625-2.89 1.953-4.234zm0 0"/></symbol><symbol overflow="visible" id="h"><path d="M5.36-5.656a2.204 2.204 0 0 0-.563-.11c-.797 0-1.781.922-3.281 3.016l1.28-5.875-.14-.14c-.625.312-1.047.421-1.922.5l-.046.25h.578c.28 0 .406.093.406.296 0 .094-.016.203-.016.282l-.578 3.203C.922-3.328.718-2.516.094-.016l.11.125L1-.094l.281-1.484c.11-.578.39-1.11.797-1.516C2.906-.704 3.281.11 3.578.11c.156 0 .453-.156.969-.53l.562-.376-.093-.234-.516.297c-.172.093-.25.109-.36.109-.109 0-.202-.063-.296-.266-.422-.765-.688-1.421-1.156-2.89l.171-.156c.72-.735 1.282-1.032 1.875-1.032.094 0 .22.016.422.063zm0 0"/></symbol><symbol overflow="visible" id="i"><path d="M2.61-1.297l-.172-.172c-.329.11-.532.172-1.172.36C1.187-.203.89.578.187 1.719l.172.14.485-.234c.969-1.25 1.422-2 1.765-2.922zm0 0"/></symbol><symbol overflow="visible" id="j"><path d="M3.703-5.266c-.453.047-.86.079-1.312.079.187-1.125.328-1.704.53-2.36l-.124-.172c-.235.14-.563.282-.938.422l-.296 2.031c-.516.25-.829.391-1.047.454l-.032.156H1.5L.828-1.281c-.062.297-.156.593-.156.906 0 .297.125.484.36.484.421 0 .827-.234 1.765-1 .219-.156.14-.109.375-.296l-.125-.22-.531.376c-.36.25-.594.36-.735.36-.093 0-.156-.095-.156-.235 0-.313.14-1.25.516-3.016l.156-.734h1.281zm0 0"/></symbol><symbol overflow="visible" id="k"><path d="M3.64-2.594v-.781c0-1.531-.874-3.094-2.343-4.563-.047.079-.094.125-.156.188a.427.427 0 0 1-.188.14c1.328 1.344 1.969 2.844 1.969 4.235v.781c0 1.39-.64 2.875-1.969 4.219.078.031.14.078.188.14.062.063.109.126.156.188C2.766.484 3.64-1.078 3.64-2.594zm0 0"/></symbol><symbol overflow="visible" id="l"><path d="M8.125-3.938c-.016-.124-.031-.25-.031-.359 0-.125.015-.25.031-.36H.953c.031.11.031.235.031.36 0 .11 0 .234-.03.36zm0 2.626c-.016-.125-.031-.235-.031-.36s.015-.234.031-.36H.953a1.4 1.4 0 0 1 .031.36c0 .125 0 .234-.03.36zm0 0"/></symbol><symbol overflow="visible" id="n"><path d="M13.938 2.61h-.485l-.078.796c-.094.922-.297 1-3.766 1H2.297l5.187-7.812-4.812-7.578h6.015c3.344 0 3.72.109 3.766.656l.078 1h.485c-.032-.516-.047-.766-.047-1.14 0-.36.015-.61.047-1.141l-8.844.046-3.156-.046-.063.406 5.328 8.406L.953 5.234v.391l7.203-.047 5.703.047c0-1.203 0-2.266.079-3.016zm0 0"/></symbol><symbol overflow="visible" id="r"><path d="M6.969-17.094c-.078-.031-.125-.078-.188-.14a.735.735 0 0 1-.14-.188c-3.063 3.047-4.938 7.219-4.938 12.063v4.75c0 4.828 1.875 9 4.938 12.062a.427.427 0 0 1 .14-.187c.063-.063.11-.11.188-.157C4.047 8.172 2.672 4.031 2.672-.609v-4.75c0-4.641 1.375-8.797 4.297-11.735zm0 0"/></symbol><symbol overflow="visible" id="s"><path d="M2.875-1.016l-.11-.218-.312.203c-.36.25-.61.36-.734.36-.078 0-.157-.11-.157-.235 0-.125.016-.219.094-.485l.907-3.625c.062-.203.078-.328.078-.437 0-.203-.094-.313-.297-.313-.266 0-.688.25-1.61.891l-.328.234.078.235.391-.25c.344-.219.469-.266.578-.266.11 0 .203.11.203.25 0 .094-.047.344-.11.531l-.78 2.86c-.11.39-.157.687-.157.922 0 .28.125.468.36.468.312 0 .75-.265 1.906-1.125zm.297-6.5c0-.296-.172-.5-.422-.5-.36 0-.688.407-.688.813 0 .297.172.484.47.484.374 0 .64-.343.64-.797zm0 0"/></symbol><symbol overflow="visible" id="t"><path d="M6.406-.61v-4.75c0-4.843-1.86-9.015-4.922-12.062a.735.735 0 0 1-.14.188.595.595 0 0 1-.203.14C4.094-14.156 5.453-10 5.453-5.359v4.75c0 4.64-1.36 8.78-4.312 11.718.078.047.14.094.203.157.062.046.11.109.14.187C4.547 8.391 6.406 4.22 6.406-.609zm0 0"/></symbol><symbol overflow="visible" id="u"><path d="M18.39 1.594c-.093-.016-.171-.032-.25-.047a.996.996 0 0 1-.218-.125c-.25.703-1.156.984-2.5.984h-3.5c-1.422 0-2.328.328-2.735.828-.406-.5-1.312-.828-2.734-.828H2.97c-1.36 0-2.266-.281-2.516-.984-.078.047-.14.094-.219.125L0 1.594c.313.86 1.313 1.437 2.969 1.437h3.484c1.578 0 2.5.203 2.5.89.078-.03.156-.03.235-.03.093 0 .156 0 .25.03 0-.687.906-.89 2.484-.89h3.5c1.64 0 2.64-.578 2.969-1.437zm0 0"/></symbol><symbol overflow="visible" id="C"><path d="M2.39-2.984c0-.438-.28-.72-.718-.72-.422 0-.719.282-.719.72 0 .421.297.718.719.718.437 0 .719-.296.719-.718zm0 0"/></symbol><symbol overflow="visible" id="D"><path d="M5 .031v-.36l-.625-.03c-.656-.032-.781-.172-.781-.782v-7.093l-.156-.063c-.782.406-1.626.766-2.72 1.156l.079.5h.125l1.547-.687.031-.016c.063 0 .094.11.094.407v5.796c0 .61-.125.75-.781.782l-.672.03v.36L3.125 0zm0 0"/></symbol><symbol overflow="visible" id="E"><path d="M8.125-2.625c-.016-.125-.031-.25-.031-.36 0-.124.015-.25.031-.359H.953c.031.11.031.235.031.36 0 .109 0 .234-.03.359zm0 0"/></symbol><symbol overflow="visible" id="G"><path d="M10.563 2.36h-5.11c-2.922 0-4.719-.157-5-.97-.078.048-.14.094-.219.11A.627.627 0 0 1 0 1.547c.328.922 2.188 1.687 5.453 1.687h5.11zm0 0"/></symbol><symbol overflow="visible" id="H"><path d="M10.453 3.234V2.36H0v.875zm0 0"/></symbol><symbol overflow="visible" id="I"><path d="M21.14 3.234V2.36h-5.343c-2.86 0-4.625.532-5.219 1.204-.61-.672-2.36-1.204-5.219-1.204H0v.875h5.36c3.187 0 4.984.079 4.984.891.062-.031.156-.031.234-.031.078 0 .156 0 .235.031 0-.813 1.796-.89 4.984-.89zm0 0"/></symbol><symbol overflow="visible" id="J"><path d="M10.578 1.547a.57.57 0 0 1-.234-.047c-.094-.016-.156-.063-.219-.11-.297.813-2.094.97-5 .97H0v.874h5.125c3.25 0 5.125-.765 5.453-1.687zm0 0"/></symbol><symbol overflow="visible" id="M"><path d="M8.36-4.594c0-.672-.313-1.172-.75-1.172a.545.545 0 0 0-.391.141l-.594.563.125.234a.55.55 0 0 1 .328-.11c.328 0 .516.282.516.75 0 1.735-1.157 3.72-2.172 3.72-.36 0-.61-.47-.61-1.141a8.2 8.2 0 0 1 .25-1.86l.625-2.203-.078-.094-.89.266-.344 1.781a5.727 5.727 0 0 1-.656 1.86C3.234-.953 2.78-.47 2.422-.47c-.406 0-.688-.469-.688-1.156 0-1.422.485-2.578 1.672-3.922l-.125-.219c-.234.11-.39.141-.719.141-.5 0-.984-.047-1.468-.078-.157-.016-.25.031-.39.078-.173.328-.298.766-.454 1.422h.266l.203-.5c.078-.203.328-.344.61-.344.218 0 .437.031.671.031.25 0 .406-.015.703-.046-.11.156-.234.28-.36.421C1.267-3.375.86-2.516.86-1.5c0 .969.422 1.625 1.047 1.625.766 0 1.39-.656 2.282-2.36-.11.532-.141.829-.141 1.094 0 .766.344 1.266.875 1.266.969 0 2.219-1.203 2.969-2.844.265-.594.468-1.39.468-1.875zm0 0"/></symbol><symbol overflow="visible" id="N"><path d="M8.125-2.625c-.016-.125-.031-.25-.031-.36 0-.124.015-.25.031-.359H4.906v-3.234c-.125.031-.25.047-.36.047-.124 0-.25-.016-.359-.047v3.234H.954c.031.11.031.235.031.36 0 .109 0 .234-.03.359h3.234V.594c.109-.016.234-.031.359-.031.11 0 .234.015.36.03v-3.218zm0 0"/></symbol><symbol overflow="visible" id="X"><path d="M6.14-1.016l-.109-.218-.312.203c-.36.234-.61.36-.735.36-.078 0-.156-.11-.156-.235 0-.063.016-.188.031-.235l.782-3.312a4.47 4.47 0 0 0 .125-.875c0-.281-.125-.438-.36-.438-.5 0-1.328.454-2.031 1.11-.453.422-.797.828-1.422 1.703l.469-1.922c.047-.219.062-.36.062-.484 0-.266-.093-.407-.265-.407-.266 0-.719.266-1.594.891l-.344.234.094.235.375-.25c.438-.282.484-.297.563-.297.14 0 .218.125.218.297 0 .61-.484 2.922-.984 4.625l.094.14c.296-.078.562-.156.828-.203.234-1.515.484-2.281 1.031-3.11.656-1 1.547-1.75 2.078-1.75.125 0 .203.11.203.298 0 .203-.031.453-.125.843L4.031-1.28c-.11.437-.156.718-.156.906 0 .297.125.484.36.484.312 0 .734-.25 1.906-1.125zm0 0"/></symbol><symbol overflow="visible" id="aa"><path d="M5.563-4.375c0-2.625-.782-3.86-2.422-3.86-1.844 0-2.797 1.47-2.797 4.36 0 1.406.25 2.61.672 3.188.421.593 1.093.921 1.828.921 1.812 0 2.719-1.546 2.719-4.609zm-1.016.594c0 2.547-.453 3.61-1.547 3.61-1.156 0-1.656-1.22-1.656-4.126 0-2.531.453-3.516 1.578-3.516 1.172 0 1.625 1.172 1.625 4.032zm0 0"/></symbol><symbol overflow="visible" id="m"><path d="M4.406-4.188a1.836 1.836 0 0 0-.453-.078c-.64 0-1.437.688-2.64 2.235l1.03-4.36-.109-.093c-.515.234-.859.312-1.546.375l-.047.187h.468c.235 0 .329.063.329.203 0 .078 0 .157-.016.219L.953-3.125C.828-2.469.656-1.859.172-.015L.25.077l.656-.156.219-1.094c.078-.422.313-.812.64-1.125.673 1.781.97 2.375 1.22 2.375.124 0 .343-.11.78-.39l.438-.282-.078-.172-.406.22c-.14.062-.203.093-.281.093-.11 0-.172-.063-.25-.203-.344-.578-.547-1.047-.938-2.14l.14-.126c.594-.531 1.032-.75 1.516-.75a2.1 2.1 0 0 1 .344.047zm0 0"/></symbol><symbol overflow="visible" id="o"><path d="M2.422-.75l-.11-.156-.25.14c-.28.188-.484.266-.578.266-.078 0-.125-.078-.125-.172 0-.094 0-.156.063-.36l.734-2.687a.983.983 0 0 0 .063-.312c0-.157-.078-.235-.235-.235-.218 0-.562.188-1.296.657l-.266.171.062.188.313-.188c.265-.171.375-.203.453-.203.11 0 .172.079.172.188 0 .062-.047.25-.078.39l-.64 2.11c-.079.297-.126.515-.126.687 0 .22.11.344.281.344.266 0 .625-.187 1.563-.828zm.234-4.813c0-.218-.14-.359-.344-.359-.296 0-.562.281-.562.594 0 .219.14.36.375.36.313 0 .531-.266.531-.595zm0 0"/></symbol><symbol overflow="visible" id="p"><path d="M6.016-2.922a1.376 1.376 0 0 1-.032-.265c0-.079.016-.172.032-.266H.703c.016.094.031.187.031.265 0 .094-.015.188-.03.266zm0 1.953c-.016-.094-.032-.187-.032-.265 0-.094.016-.188.032-.266H.703c.016.078.031.172.031.266 0 .078-.015.171-.03.265zm0 0"/></symbol><symbol overflow="visible" id="q"><path d="M4.578-3.234c0-1.938-.64-2.86-1.953-2.86-1.5 0-2.25 1.094-2.25 3.235C.375-1.83.563-.938.906-.5c.344.422.875.672 1.469.672 1.469 0 2.203-1.14 2.203-3.406zm-.812.437c0 1.89-.375 2.672-1.25 2.672-.938 0-1.344-.906-1.344-3.063 0-1.859.36-2.593 1.281-2.593.938 0 1.313.86 1.313 2.984zm0 0"/></symbol><symbol overflow="visible" id="F"><path d="M6.016-1.953a1.368 1.368 0 0 1-.032-.25c0-.094.016-.188.032-.266H.703c.016.078.031.172.031.266 0 .078-.015.172-.03.25zm0 0"/></symbol><symbol overflow="visible" id="O"><path d="M4.125.031v-.265l-.516-.032c-.515-.03-.625-.125-.625-.578v-5.25L2.86-6.14c-.625.297-1.312.563-2.203.86l.078.375h.094l1.25-.516.031-.016c.047 0 .079.094.079.297v4.297c0 .453-.11.547-.626.578l-.546.032V.03L2.594 0zm0 0"/></symbol><symbol overflow="visible" id="v"><path d="M6.125-5.547l.5-.61c.207.18.43.407.672.688l-.11.157h-5.75l-.093-.235zM7-.969l.531-.64c.239.21.461.445.672.703l-.11.187H.704l-.11-.25zm0 0"/></symbol><symbol overflow="visible" id="w"><path d="M4.547-5.39h.64c.083-.32.149-.696.204-1.126H3.375l-.11-.218h4.063l.453-.579c.207.168.395.344.563.532l.094.11-.094.155h-2.25c-.2.399-.407.774-.625 1.125h1.61l.359-.421c.351.28.53.464.53.546 0 .043-.027.075-.077.094l-.204.156v4.047h-.515v-.328H4.484v.375h-.5v-4.734c.196.086.383.172.563.265zM7.172-3.97H4.484v1.078h2.688zm0-.219v-.984H4.484v.984zm0 2.672v-1.156H4.484v1.156zM2.203-5.719V-2c.457-.145.89-.297 1.297-.453l.047.219c-.93.492-1.777.87-2.547 1.14-.023.25-.074.375-.156.375-.117 0-.258-.27-.422-.812a14.29 14.29 0 0 0 1.266-.313v-3.875H.516l-.079-.218h2.11l.406-.563c.188.168.375.367.563.594l-.094.187zM6.172-.984C7.703-.66 8.469-.27 8.469.187c0 .208-.102.313-.297.313-.086 0-.168-.043-.25-.125-.406-.438-1.024-.828-1.844-1.172zM2.484.422C3.41.109 4.18-.352 4.797-.968c.445.218.672.386.672.5 0 .054-.07.077-.203.077a2.05 2.05 0 0 1-.188-.015C4.368.063 3.555.398 2.641.609zm0 0"/></symbol><symbol overflow="visible" id="x"><path d="M4.39-2.984L4.423-3c.738-.625 1.547-1.473 2.422-2.547.457.262.687.45.687.563 0 .074-.074.109-.218.109-.055 0-.137-.008-.25-.031a17.067 17.067 0 0 1-2.266 1.922c.906-.051 1.617-.094 2.14-.125l.407-.032a5.046 5.046 0 0 0-.86-.78l.141-.157c.633.305 1.113.625 1.438.969.226.261.343.496.343.703 0 .199-.09.297-.265.297-.118 0-.227-.102-.329-.313a2.58 2.58 0 0 0-.28-.484l-.095.015c-.636.094-1.226.164-1.765.204V.64h-.516v-3.282c-.375.043-1.09.106-2.14.188-.063.2-.125.297-.188.297-.105 0-.203-.254-.297-.766a90.488 90.488 0 0 0 1.86-.062zM4.22-4.72a9.538 9.538 0 0 0 1.015-1.468c-.636.117-1.468.242-2.5.375l-.125-.22c1.926-.3 3.426-.663 4.5-1.093.438.242.657.414.657.516 0 .054-.059.078-.172.078-.086 0-.203-.016-.36-.047-.625.148-1.242.266-1.843.36.406.179.609.323.609.437 0 .074-.078.11-.234.11a.584.584 0 0 1-.157-.016c-.386.43-.78.796-1.187 1.109.312.25.469.476.469.672 0 .21-.094.312-.282.312-.105 0-.21-.094-.312-.281-.219-.426-.649-.832-1.281-1.219l.109-.172c.438.168.8.352 1.094.547zm-2.344 0c.32.063.484.14.484.235 0 .074-.12.152-.359.234V.64h-.5v-4.562C1.207-3.348.86-2.789.453-2.25l-.187-.125c.894-1.457 1.539-3.098 1.937-4.922.54.137.813.262.813.375 0 .094-.137.164-.407.203-.242.805-.484 1.469-.734 2zm4.422 2.672c.695.344 1.258.762 1.687 1.25.164.18.25.36.25.547 0 .242-.101.36-.296.36C7.82.11 7.71 0 7.609-.22c-.23-.539-.71-1.093-1.437-1.656zM2.359.141c.625-.57 1.133-1.297 1.532-2.172.476.219.718.39.718.515 0 .075-.132.11-.39.11A5.636 5.636 0 0 1 2.5.312zm0 0"/></symbol><symbol overflow="visible" id="y"><path d="M2.344-5.453v-1.844c.531.024.797.09.797.203 0 .074-.106.137-.313.188v1.453H3.86l.36-.5c.187.21.332.39.437.547l-.093.187H2.827v.328c.945.2 1.422.465 1.422.797 0 .188-.086.282-.25.282-.086 0-.172-.051-.266-.157a2.76 2.76 0 0 0-.906-.703v1.297h-.484v-1.344c-.48.524-1.078.961-1.797 1.313l-.14-.188c.738-.445 1.331-.988 1.78-1.625H.548l-.078-.234zM1.5-1.234c-.031.054-.086.132-.156.234-.063.105-.11.18-.14.219L.78-.97c.29-.457.547-.922.766-1.39H.453L.36-2.58h1.282c.101-.218.21-.487.328-.812.457.149.687.266.687.36 0 .062-.117.105-.344.125l-.14.328h1.656L4.172-3c.207.18.379.344.516.5l-.094.14h-.766c-.012.012-.015.028-.015.047-.012.055-.024.094-.032.126a4.12 4.12 0 0 1-.547 1.312c.508.262.766.496.766.703 0 .176-.078.266-.234.266-.075 0-.153-.04-.235-.11a5.401 5.401 0 0 0-.562-.468C2.469.066 1.676.437.594.625L.484.422c.938-.219 1.63-.61 2.079-1.172-.344-.195-.7-.36-1.063-.484zm.11-.188c.363.074.757.195 1.187.36.219-.375.383-.805.5-1.297H2.078c-.137.312-.293.625-.469.937zm5-.25C7.097-1.016 7.753-.457 8.577 0c-.18.145-.32.316-.422.516C7.363-.047 6.758-.633 6.344-1.25 5.719-.395 4.875.227 3.812.625l-.14-.203C4.703-.086 5.5-.797 6.062-1.703c-.417-.707-.73-1.656-.937-2.844-.23.492-.516.945-.86 1.36l-.187-.126C4.68-4.3 5.113-5.628 5.375-7.296c.54.117.813.227.813.328 0 .086-.122.149-.36.188-.117.531-.234.976-.36 1.328h2.079L7.953-6c.227.21.422.414.578.61l-.078.171h-.922v.11c-.117 1.375-.422 2.523-.922 3.437zm-.313-.453c.375-.875.601-1.875.687-3v-.094H5.391a.472.472 0 0 1-.032.094.388.388 0 0 0-.046.125c.218 1.188.546 2.148.984 2.875zM.844-7.031c.625.367.937.718.937 1.062 0 .219-.101.328-.297.328-.125 0-.21-.097-.25-.296-.062-.301-.246-.614-.546-.938zm2.36 1.328c.257-.414.483-.875.671-1.375.438.187.656.336.656.437 0 .086-.117.125-.343.125-.18.262-.454.57-.829.922zm0 0"/></symbol><symbol overflow="visible" id="z"><path d="M1.781-2.375h1.875l.328-.422c.364.293.547.477.547.547 0 .043-.031.078-.093.11l-.22.14V.422h-.484v-.594h-2.03v.703h-.485v-3.219c.156.075.343.18.562.313zm-.078.219v1.765h2.031v-1.765zm.75-3.766v-1.39c.563.023.844.105.844.25 0 .074-.117.152-.344.234v.906h1.063l.39-.547c.219.211.407.407.563.594l-.11.172H.688l-.094-.219zM2.984-3.5c.258-.55.477-1.254.657-2.11.53.18.796.32.796.423 0 .085-.117.136-.343.156-.188.449-.469.96-.844 1.531h.875l.406-.578c.196.18.383.387.563.625L5-3.281H.562L.47-3.5zm3.844-.672c.977.668 1.469 1.453 1.469 2.36 0 .843-.328 1.289-.985 1.328a.348.348 0 0 0-.187-.313C7-.867 6.707-.94 6.25-1.016v-.234c.395.055.723.078.984.078.22 0 .364-.07.438-.219.062-.125.094-.328.094-.609 0-.75-.418-1.457-1.25-2.125.312-.625.601-1.363.875-2.219H5.937V.641h-.515v-7.5c.258.117.469.21.625.28h1.297l.297-.39c.375.344.562.563.562.657 0 .042-.023.074-.062.093l-.266.094c-.336.762-.684 1.414-1.047 1.953zM1.344-5.516c.644.5.968.985.968 1.454 0 .273-.117.406-.343.406-.137 0-.211-.098-.219-.297a2.787 2.787 0 0 0-.563-1.438zm0 0"/></symbol><symbol overflow="visible" id="A"><path d="M3.422-3.578h-1.39l-.079-.219h4.063l.343-.406c.344.281.516.46.516.531 0 .055-.027.102-.078.14l-.188.141c-.011 1.743-.156 2.868-.437 3.375-.2.352-.543.532-1.031.532 0-.168-.118-.297-.344-.391-.168-.074-.477-.145-.922-.219v-.234c.594.086 1.055.125 1.39.125.301 0 .5-.188.594-.563.145-.601.223-1.539.235-2.812h-2.11c-.086 1.074-.336 1.93-.75 2.562-.449.7-1.164 1.243-2.14 1.641L.969.422C2-.128 2.695-.883 3.063-1.844c.187-.508.304-1.086.359-1.734zm1.89-3.5c.82 1.43 1.817 2.492 2.985 3.187-.18.125-.336.309-.469.547a8.556 8.556 0 0 1-2.094-2.39c-.21-.344-.421-.75-.64-1.22zM.595-3.125C1.813-4.133 2.695-5.453 3.25-7.078c.531.187.797.34.797.453 0 .086-.125.148-.375.188-.438.937-.914 1.683-1.422 2.234-.398.437-.902.86-1.516 1.266zm0 0"/></symbol><symbol overflow="visible" id="B"><path d="M4.156-5.875c.196.293.297.547.297.766 0 .336-.086.789-.25 1.359a9.035 9.035 0 0 1-.64 1.61c-.25.492-.493.84-.72 1.046-.218.211-.464.313-.734.313-.187 0-.398-.125-.625-.375-.156-.157-.289-.395-.39-.719-.094-.32-.14-.66-.14-1.016 0-.445.1-.882.312-1.312.187-.383.441-.727.765-1.031.707-.645 1.578-.97 2.61-.97.789 0 1.468.196 2.03.579.802.563 1.204 1.344 1.204 2.344 0 .969-.352 1.715-1.047 2.234-.637.48-1.484.781-2.547.906l-.047-.25c.989-.187 1.754-.566 2.297-1.14.477-.508.719-1.11.719-1.797 0-.8-.281-1.453-.844-1.953-.449-.414-1.047-.625-1.797-.625-.156 0-.308.011-.453.031zm-.281.063c-.586.148-1.063.386-1.438.718a2.783 2.783 0 0 0-.78 1.032c-.169.386-.25.773-.25 1.156 0 .48.109.883.327 1.203.133.21.27.312.407.312.125 0 .27-.078.437-.234.32-.352.625-.883.906-1.594.352-.883.532-1.539.532-1.969 0-.28-.047-.488-.141-.625zm0 0"/></symbol><symbol overflow="visible" id="K"><path d="M4.016-6.297h1.796l.344-.406c.383.312.578.523.578.625 0 .043-.03.07-.093.078l-.297.094c-.856 1.105-1.84 1.945-2.953 2.515-.73.368-1.61.684-2.641.954l-.125-.204c1.406-.457 2.508-.976 3.313-1.562a.228.228 0 0 1-.079.016c-.117 0-.203-.083-.265-.25-.094-.282-.324-.551-.688-.813-.594.46-1.304.855-2.125 1.188l-.11-.172c1.47-.758 2.599-1.77 3.391-3.032.489.168.735.297.735.391 0 .086-.14.133-.422.14-.063.087-.184.231-.36.438zm-.204.219c-.21.219-.453.45-.734.687.719.262 1.078.559 1.078.891a.3.3 0 0 1-.078.188 7.766 7.766 0 0 0 1.734-1.766zm1.485 2.734h1.89l.329-.39c.375.343.562.558.562.64 0 .043-.027.074-.078.094l-.266.094c-.98 1.281-2.109 2.195-3.39 2.734C3.488.18 2.445.441 1.219.61l-.11-.218C2.723.086 4.016-.363 4.984-.97h-.046c-.106 0-.18-.05-.22-.156-.155-.383-.433-.738-.827-1.063a9.76 9.76 0 0 1-2.094 1.032l-.125-.203c1.594-.688 2.879-1.704 3.86-3.047.456.148.687.273.687.375 0 .086-.137.125-.407.125a13.1 13.1 0 0 1-.468.515zm-.219.219a7.504 7.504 0 0 1-.969.797c.758.375 1.141.726 1.141 1.047a.237.237 0 0 1-.063.172 8.099 8.099 0 0 0 2.016-2.016zm0 0"/></symbol><symbol overflow="visible" id="L"><path d="M5.453-5c.207 1.438.629 2.625 1.266 3.563.363.542.625.812.781.812.145 0 .285-.55.422-1.656l.234.11a13.123 13.123 0 0 0-.094 1.296c0 .5.11.79.329.86-.063.269-.204.406-.422.406-.293 0-.68-.274-1.157-.813-.992-1.101-1.62-2.613-1.89-4.531H.766l-.079-.219h4.204a3.106 3.106 0 0 1-.032-.25 13.254 13.254 0 0 1-.046-1.187v-.61c.582.043.875.121.875.235 0 .074-.118.156-.344.25v.187c0 .438.031.883.093 1.328H7.25l.422-.61c.176.169.348.352.516.548l.062.093L8.156-5zm-2.25 1.938v2.078a33.794 33.794 0 0 0 1.938-.454l.046.22C3.946-.759 2.72-.384 1.5-.095c-.055.227-.11.344-.172.344-.125 0-.266-.285-.422-.86a23.42 23.42 0 0 0 1.781-.28v-2.172H1.11l-.078-.235h2.813l.453-.61c.219.2.414.419.594.657l-.11.188zm2.875-4.016C6.86-6.766 7.25-6.406 7.25-6c0 .219-.105.328-.313.328-.156 0-.257-.094-.296-.281-.086-.344-.309-.664-.672-.969zm0 0"/></symbol><symbol overflow="visible" id="P"><path d="M5.438-3.906v.14c-.012.938-.102 1.73-.266 2.375a4.513 4.513 0 0 1-1.156 2L3.844.47c.476-.676.789-1.453.937-2.328.094-.602.14-1.313.14-2.125V-6.5c.24.086.43.164.579.234.695-.207 1.285-.504 1.766-.89.406.261.609.445.609.547 0 .054-.055.078-.156.078a1.07 1.07 0 0 1-.266-.032c-.574.22-1.246.403-2.016.547v1.891h2l.422-.578c.22.2.399.402.547.61l-.078.187H7.125V.53h-.516v-4.437zM2.296-1.734A7.006 7.006 0 0 1 .484.094L.328-.078c.863-.727 1.5-1.55 1.906-2.469H.641l-.094-.219h1.75v-1.03c.55.023.828.085.828.187 0 .062-.11.136-.328.218v.625h.875l.375-.484c.195.21.36.39.484.547l-.093.156H2.796v.36c.976.367 1.469.75 1.469 1.156 0 .21-.09.312-.266.312-.094 0-.184-.078-.266-.234a3.19 3.19 0 0 0-.937-.969V.641h-.5zm.469-2.454c.226-.519.406-1.05.53-1.593.49.18.735.324.735.437 0 .063-.12.102-.36.11a8.18 8.18 0 0 1-.64 1.046h.844l.375-.515c.176.187.32.375.438.562l-.094.172H.53l-.094-.219zm-.47-1.89v-1.219c.552.031.829.106.829.219 0 .074-.117.152-.344.234v.766h.89l.36-.531c.176.168.32.328.438.484l.062.094-.11.172H.75l-.11-.22zM1.22-5.75c.625.367.937.746.937 1.14 0 .22-.105.329-.312.329-.149 0-.227-.102-.235-.313-.03-.332-.199-.672-.5-1.015zm0 0"/></symbol><symbol overflow="visible" id="Q"><path d="M7.563-2.938c-.274.907-.641 1.602-1.11 2.079-.648.636-1.406.953-2.281.953-.688 0-1.18-.176-1.469-.531-.273-.32-.406-.836-.406-1.547 0-.875.031-1.844.094-2.907.03-.351.046-.671.046-.953 0-.25-.03-.426-.093-.531-.063-.113-.184-.21-.36-.297l.079-.203c.312.031.582.137.812.313.176.148.266.277.266.39 0 .043-.016.156-.047.344-.055.2-.086.387-.094.562-.156 1.243-.234 2.313-.234 3.22 0 .679.117 1.124.359 1.343.195.187.555.281 1.078.281.676 0 1.297-.25 1.86-.75.519-.457.937-1.082 1.25-1.875zm0 0"/></symbol><symbol overflow="visible" id="R"><path d="M4.125-2.922c-.313.762-.5 1.215-.563 1.36-.117.324-.171.554-.171.687l.078.453c0 .156-.078.234-.235.234-.093 0-.226-.05-.39-.156a2.56 2.56 0 0 1-.438-.328c-.355-.351-.61-.875-.765-1.562-.125-.508-.188-1.286-.188-2.329a3.33 3.33 0 0 0-.078-.796 1.056 1.056 0 0 0-.469-.579l.156-.218c.657.312.985.648.985 1 0 .031-.012.09-.031.172a.88.88 0 0 0-.047.171 15.01 15.01 0 0 0-.063 1.297c0 .825.203 1.555.61 2.188.062.105.14.156.234.156.063 0 .129-.055.203-.172.195-.289.508-.851.938-1.687zm1.703-2.39c.438.218.785.46 1.047.718.207.2.41.453.61.766.312.492.468.953.468 1.39 0 .336-.11.5-.328.5-.125 0-.219-.132-.281-.406-.242-1.226-.805-2.14-1.688-2.734zm0 0"/></symbol><symbol overflow="visible" id="S"><path d="M2.156-4.469h1.938v-.828H.656l-.094-.219h3.532v-.843l-.625.062c-.719.063-1.477.11-2.266.14L1.11-6.39c1.989-.132 3.782-.382 5.375-.75.383.23.579.391.579.485 0 .054-.063.078-.188.078-.094 0-.203-.008-.328-.031-.805.105-1.45.18-1.938.218v.875h2.625l.438-.546c.195.167.398.37.61.609l-.079.156H4.61v.828h2.032l.312-.39c.352.273.531.449.531.53 0 .044-.027.087-.078.126l-.203.156v2.36h-.516V-2H4.61v.922h2.079l.437-.484c.207.156.41.335.61.53l-.11.173H4.609v.968h2.657l.484-.562c.156.125.375.328.656.61l-.125.171H.547L.453.11h3.64v-.968H1.189l-.094-.22h3V-2h-2v.438h-.5V-4.75c.218.094.406.188.562.281zm-.062.219v.86h2v-.86zm4.594 2.031v-.953H4.608v.953zm0-1.172v-.859H4.608v.86zm-2.594.22h-2v.952h2zm0 0"/></symbol><symbol overflow="visible" id="T"><path d="M3.781-3.234c-.543.968-.965 1.632-1.265 1.984-.325.367-.637.547-.938.547A.692.692 0 0 1 1-.984a.908.908 0 0 1-.172-.563c0-.363.094-.695.281-1 .176-.27.414-.492.72-.672.468-.258 1.007-.39 1.624-.39.3-.633.629-1.47.985-2.5a22.7 22.7 0 0 1-.922.234c-.325.086-.559.148-.704.188a.758.758 0 0 1-.218.046c-.313 0-.5-.273-.563-.828l.235-.062c.101.261.254.39.453.39.289 0 .742-.07 1.36-.218.194-.04.331-.086.405-.141.082-.05.145-.078.188-.078.07 0 .164.058.281.172.145.136.219.261.219.375 0 .054-.027.101-.078.14a.66.66 0 0 0-.25.313c-.48 1.055-.79 1.719-.922 2 .789.117 1.61.375 2.453.781.082-.406.125-.77.125-1.094 0-.164-.031-.289-.094-.375a.634.634 0 0 0-.343-.203l.062-.25c.27.012.508.074.719.188.133.086.203.246.203.484 0 .45-.07.945-.203 1.484.52.282.93.54 1.234.766.164.156.25.32.25.484 0 .2-.09.297-.265.297-.063 0-.188-.082-.376-.25a8.284 8.284 0 0 0-1.015-.78C6.222-.892 5.363-.11 4.094.296l-.11-.219C5.11-.41 5.86-1.203 6.234-2.297a6.696 6.696 0 0 0-2.453-.937zm-.484-.032c-.5 0-.922.11-1.266.329-.511.335-.765.765-.765 1.296 0 .325.129.485.39.485.352 0 .899-.703 1.64-2.11zm0 0"/></symbol><symbol overflow="visible" id="U"><path d="M4.156-6.797c.301-.863.453-1.484.453-1.86 0-.226-.195-.429-.578-.609l.14-.296c.907.167 1.36.406 1.36.718a.63.63 0 0 1-.11.328c-.073.118-.167.34-.28.672-.137.387-.25.696-.344.922.52-.101.914-.25 1.187-.437.188-.102.344-.157.47-.157.218 0 .382.047.5.141.05.055.077.14.077.266 0 .136-.195.265-.578.39-.355.117-.969.258-1.844.422a155.238 155.238 0 0 1-2.14 5.61c-.137.386-.274.578-.406.578A.334.334 0 0 1 1.78-.25a.526.526 0 0 1-.14-.39c0-.126.097-.376.296-.75.676-1.395 1.348-2.993 2.016-4.798-.48.063-.922.094-1.328.094-.281 0-.547-.078-.797-.234a1.75 1.75 0 0 1-.594-.656l.266-.22c.3.376.68.563 1.14.563.489 0 .993-.05 1.516-.156zm3.032 2.734c.312-.3.664-.628 1.062-.984-.648.012-1.375.125-2.188.344l-.109-.328c1.031-.426 1.992-.64 2.89-.64.79 0 1.188.14 1.188.421 0 .18-.152.266-.453.266-.387 0-.672.054-.86.156-.28.18-.714.516-1.296 1.016zM5.702-2.171c.164.512.457.875.875 1.094.383.21.906.312 1.563.312.457 0 .89-.035 1.296-.109.352-.05.536-.078.547-.078.207 0 .352.031.438.094a.464.464 0 0 1 .187.39c0 .149-.14.25-.421.313-.293.062-.782.093-1.47.093-1.179 0-2.023-.19-2.53-.578-.399-.289-.668-.757-.813-1.406zm0 0"/></symbol><symbol overflow="visible" id="V"><path d="M8.516-8.813c.52.168.925.391 1.218.672.25.23.375.461.375.688 0 .281-.12.422-.359.422-.168 0-.297-.125-.39-.375-.188-.446-.528-.836-1.016-1.172zm1.109-.828c.508.149.914.36 1.219.641.27.242.406.469.406.688 0 .28-.117.421-.344.421-.156 0-.293-.129-.406-.39-.188-.395-.543-.77-1.063-1.125zM4.156-6.67c.301-.864.453-1.485.453-1.86 0-.239-.195-.442-.578-.61l.14-.296c.907.156 1.36.398 1.36.718a.63.63 0 0 1-.11.328c-.073.118-.167.34-.28.672-.137.387-.25.688-.344.907.52-.102.914-.243 1.187-.422.188-.114.344-.172.47-.172.218 0 .382.054.5.156.05.055.077.14.077.266 0 .136-.195.265-.578.39-.355.106-.969.242-1.844.407A188.254 188.254 0 0 1 2.47-.579C2.332-.191 2.195 0 2.063 0a.334.334 0 0 1-.282-.14.526.526 0 0 1-.14-.391c0-.114.097-.364.296-.75.676-1.383 1.348-2.985 2.016-4.797-.48.074-.922.11-1.328.11-.281 0-.547-.079-.797-.235a1.74 1.74 0 0 1-.594-.672l.266-.219c.3.375.68.563 1.14.563.489 0 .993-.047 1.516-.14zm3.032 2.734c.312-.301.664-.63 1.062-.985-.648.012-1.375.125-2.188.344l-.109-.344c1.031-.426 1.992-.64 2.89-.64.79 0 1.188.148 1.188.437 0 .18-.152.266-.453.266-.387 0-.672.054-.86.156-.273.18-.702.516-1.296 1.016zm-1.485 1.89c.164.5.457.867.875 1.094.383.21.906.312 1.563.312.457 0 .89-.035 1.296-.109.352-.05.536-.078.547-.078.207 0 .352.031.438.094a.464.464 0 0 1 .187.39c0 .149-.14.246-.421.297-.293.063-.782.094-1.47.094-1.179 0-2.023-.188-2.53-.563-.399-.289-.668-.757-.813-1.406zm0 0"/></symbol><symbol overflow="visible" id="W"><path d="M10.219-3.969c-.367 1.219-.867 2.156-1.5 2.813C7.852-.313 6.82.109 5.625.109c-.918 0-1.574-.234-1.969-.703-.367-.437-.547-1.133-.547-2.094 0-1.175.04-2.476.125-3.906.032-.5.047-.93.047-1.297 0-.343-.039-.586-.11-.734-.085-.156-.245-.285-.483-.39l.109-.282a1.98 1.98 0 0 1 1.078.438c.25.187.375.367.375.53 0 .044-.027.196-.078.454a4.957 4.957 0 0 0-.125.766c-.2 1.68-.297 3.125-.297 4.343 0 .918.156 1.524.469 1.813.27.262.758.39 1.468.39.907 0 1.739-.335 2.5-1.015.708-.625 1.274-1.473 1.704-2.547zm0 0"/></symbol><symbol overflow="visible" id="Y"><path d="M1.969-2.047c.289 0 .55.078.781.235.488.28.734.703.734 1.265 0 .375-.14.719-.421 1.031a1.457 1.457 0 0 1-1.079.47 1.26 1.26 0 0 1-.64-.173C.77.508.484.066.484-.547c0-.539.239-.957.72-1.25.237-.164.491-.25.765-.25zm.015.422c-.293 0-.554.117-.78.344-.2.21-.298.453-.298.734 0 .2.055.387.172.563.219.343.52.515.906.515.258 0 .489-.09.688-.265.258-.22.39-.489.39-.813 0-.363-.152-.656-.453-.875a1.112 1.112 0 0 0-.625-.203zm0 0"/></symbol><symbol overflow="visible" id="Z"><path d="M5.703-7.156c-.023-.969-.058-1.504-.11-1.61-.085-.164-.28-.27-.593-.312l.031-.36c.469 0 .844.07 1.125.204.227.105.344.218.344.343 0 .055-.031.262-.094.625-.043.211-.062.559-.062 1.047.625-.082 1.082-.16 1.375-.234.281-.063.484-.125.61-.188.144-.07.343-.109.593-.109.394 0 .594.105.594.313 0 .156-.106.277-.313.359-.355.105-1.308.234-2.86.39v1.72c.895-.134 1.516-.27 1.86-.407.156-.063.32-.094.5-.094.395 0 .594.106.594.313 0 .18-.086.293-.25.343-.438.118-1.328.247-2.672.391 0 .125.008.484.031 1.078.008.43.02.781.032 1.063.906.219 1.875.636 2.906 1.25.312.187.469.386.469.593 0 .293-.11.438-.329.438-.105 0-.23-.055-.375-.172C8.191-.89 7.316-1.379 6.484-1.64v.297c0 .637-.156 1.074-.468 1.313-.305.226-.793.344-1.47.344-.636 0-1.167-.149-1.593-.438-.387-.25-.578-.55-.578-.906 0-.477.238-.844.719-1.094.375-.195.86-.297 1.453-.297.363 0 .797.016 1.297.047 0-.219-.028-.875-.078-1.969-.711.063-1.215.094-1.516.094-.68 0-1.23-.254-1.656-.766l.234-.25c.238.22.492.36.766.422.164.032.43.047.797.047.175 0 .632-.031 1.375-.094l-.047-1.703c-.793.063-1.371.094-1.735.094-.812 0-1.418-.254-1.812-.766l.219-.25c.437.325 1.039.485 1.812.485.395 0 .895-.04 1.5-.125zm.14 5.406a7.772 7.772 0 0 0-1.546-.172c-.438 0-.797.09-1.078.266-.25.156-.375.351-.375.578 0 .242.16.437.484.594.281.136.625.203 1.031.203.563 0 .97-.102 1.22-.313.175-.176.265-.562.265-1.156zm0 0"/></symbol><symbol overflow="visible" id="ab"><path d="M5.61-7.938c.269.399.406.743.406 1.032 0 .46-.11 1.07-.329 1.828a10.703 10.703 0 0 1-.875 2.187c-.335.668-.656 1.137-.968 1.407-.305.28-.633.421-.985.421-.261 0-.546-.16-.859-.484-.21-.219-.383-.55-.516-1a4.803 4.803 0 0 1-.187-1.36c0-.613.133-1.206.406-1.78.25-.52.594-.985 1.031-1.391.957-.875 2.133-1.313 3.532-1.313 1.07 0 1.988.262 2.75.782 1.082.761 1.625 1.82 1.625 3.171 0 1.313-.47 2.32-1.407 3.016-.867.649-2.011 1.059-3.437 1.234L5.719-.53c1.343-.25 2.379-.766 3.11-1.547A3.357 3.357 0 0 0 9.811-4.5c0-1.082-.382-1.957-1.14-2.625-.617-.57-1.43-.86-2.438-.86-.21 0-.418.016-.625.048zm-.36.079c-.793.21-1.45.539-1.969.984a3.791 3.791 0 0 0-1.031 1.39 3.685 3.685 0 0 0-.36 1.563c0 .649.15 1.188.454 1.625.176.274.36.406.547.406.175 0 .375-.101.593-.312.438-.477.844-1.195 1.22-2.156.476-1.188.718-2.07.718-2.657 0-.375-.059-.656-.172-.843zm0 0"/></symbol><symbol overflow="visible" id="ac"><path d="M4.906-4.844c-.336-.718-.593-1.742-.781-3.078-.043-.383-.102-.613-.172-.687-.125-.102-.336-.16-.625-.172v-.36c.164-.03.399-.046.703-.046.614 0 .922.187.922.562l-.062.828c0 .906.171 1.793.515 2.656l2.438-1.375c.187-.101.281-.191.281-.265 0-.114-.14-.27-.422-.469l.25-.25c.79.398 1.188.766 1.188 1.11 0 .124-.079.23-.235.312-.062.043-.246.121-.547.234-1.886.782-3.257 1.492-4.109 2.125C3.457-3.125 3.062-2.55 3.062-2c0 .43.235.73.704.906.457.18 1.175.266 2.156.266a12.7 12.7 0 0 0 2.484-.25c.051-.008.16-.035.328-.078a.953.953 0 0 1 .172-.032c.227 0 .399.043.516.125a.441.441 0 0 1 .203.375c0 .211-.168.34-.5.391-.867.125-1.781.188-2.75.188-1.492 0-2.527-.176-3.11-.532C2.798-.93 2.563-1.383 2.563-2c0-.957.782-1.906 2.344-2.844zm0 0"/></symbol><symbol overflow="visible" id="ad"><path d="M3.203-1.844c0 .45.305.793.922 1.032.531.218 1.203.328 2.016.328.445 0 .925-.047 1.437-.141a1.47 1.47 0 0 1 .313-.047c.207 0 .347.027.421.078a.435.435 0 0 1 .204.39c0 .18-.184.298-.547.36C7.656.22 7.129.25 6.39.25 5.117.25 4.148.035 3.484-.39c-.543-.352-.812-.805-.812-1.36 0-.602.344-1.047 1.031-1.328.477-.195 1.055-.297 1.735-.297.945 0 1.789.074 2.53.219a16.276 16.276 0 0 1-.577-.969 31.27 31.27 0 0 0-.5-.89c-1 .25-1.813.374-2.438.374-.96 0-1.719-.32-2.281-.968l.234-.25c.489.48 1.14.718 1.953.718.664 0 1.426-.125 2.282-.375-.149-.257-.387-.75-.72-1.468-.698.156-1.304.234-1.812.234-.687 0-1.218-.195-1.593-.594l.203-.25c.383.242.797.36 1.234.36.52 0 1.102-.079 1.75-.235l-.453-.984c-.21-.445-.5-.672-.875-.672-.031 0-.117.008-.25.016l-.047-.36c.445-.07.8-.11 1.063-.11.3 0 .492.157.578.47.164.554.328 1.039.484 1.453.79-.313 1.297-.547 1.516-.703a.876.876 0 0 1 .515-.157c.313 0 .47.086.47.25 0 .137-.227.297-.673.485-.281.125-.82.328-1.61.61.259.593.505 1.093.735 1.5.969-.352 1.586-.657 1.86-.907a.683.683 0 0 1 .453-.172c.394 0 .594.09.594.266 0 .324-.887.757-2.657 1.296.227.418.567.954 1.016 1.61.219.324.328.586.328.781 0 .399-.09.594-.266.594-.093 0-.226-.055-.39-.172-.242-.164-.672-.313-1.297-.438a8.762 8.762 0 0 0-1.547-.14c-.637 0-1.152.125-1.547.375-.336.2-.5.445-.5.734zm0 0"/></symbol></defs><use xlink:href="#a" x=".601" y="19.63"/><use xlink:href="#b" x="7.906" y="19.63"/><use xlink:href="#c" x="12.556" y="19.63"/><use xlink:href="#d" x="17.864" y="19.63"/><use xlink:href="#e" x="21.188" y="19.63"/><use xlink:href="#f" x="25.838" y="19.63"/><use xlink:href="#g" x="30.489" y="19.63"/><use xlink:href="#h" x="35.558" y="19.63"/><use xlink:href="#i" x="41.261" y="19.63"/><use xlink:href="#j" x="46.234" y="19.63"/><use xlink:href="#k" x="50.275" y="19.63"/><use xlink:href="#l" x="58.667" y="19.63"/><use xlink:href="#m" x="76.197" y="6.507"/><use xlink:href="#n" x="71.081" y="19.629"/><use xlink:href="#o" x="71.217" y="32.79"/><use xlink:href="#p" x="74.11" y="32.79"/><use xlink:href="#q" x="80.833" y="32.79"/><use xlink:href="#r" x="112.388" y="19.629"/><use xlink:href="#h" x="120.505" y="11.021"/><use xlink:href="#s" x="121.599" y="27.593"/><use xlink:href="#t" x="126.208" y="19.629"/><use xlink:href="#u" x="114.163" y="31.082"/><use xlink:href="#v" x="87.969" y="43.747"/><use xlink:href="#w" x="96.816" y="43.747"/><use xlink:href="#x" x="105.663" y="43.747"/><use xlink:href="#y" x="114.509" y="43.747"/><use xlink:href="#z" x="123.356" y="43.747"/><use xlink:href="#A" x="132.203" y="43.747"/><use xlink:href="#B" x="141.05" y="43.747"/><use xlink:href="#w" x="149.897" y="43.747"/><use xlink:href="#C" x="158.744" y="19.63"/><use xlink:href="#g" x="164.076" y="19.63"/><use xlink:href="#D" x="169.145" y="19.63"/><use xlink:href="#E" x="177.777" y="19.63"/><use xlink:href="#j" x="189.529" y="19.63"/><use xlink:href="#k" x="193.569" y="19.63"/><use xlink:href="#m" x="198.64" y="16.091"/><use xlink:href="#F" x="203.302" y="16.091"/><use xlink:href="#o" x="210.026" y="16.091"/><use xlink:href="#C" x="216.083" y="19.63"/><use xlink:href="#j" x="222.085" y="19.63"/><use xlink:href="#o" x="226.128" y="16.091"/><use xlink:href="#G" x="164.084" y="21.59"/><use xlink:href="#H" x="172.273" y="21.59"/><use xlink:href="#H" x="178.167" y="21.59"/><use xlink:href="#I" x="186.237" y="21.59"/><use xlink:href="#H" x="204.995" y="21.59"/><use xlink:href="#H" x="210.889" y="21.59"/><use xlink:href="#J" x="218.958" y="21.59"/><use xlink:href="#K" x="165.842" y="34.458"/><use xlink:href="#w" x="174.689" y="34.458"/><use xlink:href="#L" x="183.536" y="34.458"/><use xlink:href="#z" x="192.382" y="34.458"/><use xlink:href="#A" x="201.229" y="34.458"/><use xlink:href="#B" x="210.076" y="34.458"/><use xlink:href="#w" x="218.923" y="34.458"/><use xlink:href="#C" x="231.521" y="19.63"/><use xlink:href="#r" x="238.85" y="19.63"/><use xlink:href="#g" x="248.166" y="11.021"/><use xlink:href="#h" x="253.235" y="11.021"/><use xlink:href="#E" x="261.592" y="11.021"/><use xlink:href="#s" x="273.332" y="11.021"/><use xlink:href="#k" x="276.847" y="11.021"/><use xlink:href="#C" x="284.57" y="11.021"/><use xlink:href="#M" x="290.583" y="11.021"/><use xlink:href="#o" x="299.215" y="13.795"/><use xlink:href="#N" x="305.272" y="11.021"/><use xlink:href="#s" x="317.012" y="11.021"/><use xlink:href="#C" x="323.181" y="11.021"/><use xlink:href="#M" x="329.182" y="11.021"/><use xlink:href="#o" x="337.822" y="13.795"/><use xlink:href="#F" x="340.724" y="13.795"/><use xlink:href="#O" x="347.447" y="13.795"/><path d="M248.164 16.64h104.781" fill="none" stroke-width=".717" stroke="#000" stroke-miterlimit="10"/><use xlink:href="#h" x="297.704" y="27.675"/><use xlink:href="#t" x="354.14" y="19.629"/><use xlink:href="#G" x="236.861" y="31.082"/><use xlink:href="#H" x="246.246" y="31.082"/><use xlink:href="#H" x="254.614" y="31.082"/><use xlink:href="#H" x="262.983" y="31.082"/><g><use xlink:href="#H" x="271.352" y="31.082"/></g><g><use xlink:href="#H" x="279.72" y="31.082"/></g><g><use xlink:href="#I" x="288.986" y="31.082"/></g><g><use xlink:href="#H" x="308.951" y="31.082"/></g><g><use xlink:href="#H" x="317.319" y="31.082"/></g><g><use xlink:href="#H" x="325.688" y="31.082"/></g><g><use xlink:href="#H" x="334.057" y="31.082"/></g><g><use xlink:href="#H" x="342.425" y="31.082"/></g><g><use xlink:href="#J" x="351.679" y="31.082"/></g><g><use xlink:href="#P" x="277.442" y="43.942"/><use xlink:href="#Q" x="286.289" y="43.942"/><use xlink:href="#R" x="295.136" y="43.942"/><use xlink:href="#S" x="303.982" y="43.942"/><use xlink:href="#T" x="312.829" y="43.942"/></g><g><use xlink:href="#U" x="386.168" y="19.63"/><use xlink:href="#V" x="398.123" y="19.63"/><use xlink:href="#W" x="410.078" y="19.63"/></g><g><use xlink:href="#h" x="424.026" y="19.63"/></g><g><use xlink:href="#l" x="433.04" y="19.63"/></g><g><use xlink:href="#X" x="445.45" y="19.63"/><use xlink:href="#N" x="452.097" y="19.63"/><use xlink:href="#D" x="461.183" y="19.63"/></g><g><use xlink:href="#Y" x="467.167" y="19.63"/><use xlink:href="#Z" x="479.122" y="19.63"/><use xlink:href="#U" x="491.077" y="19.63"/></g><g><use xlink:href="#s" x="505.025" y="19.63"/></g><g><use xlink:href="#l" x="511.851" y="19.63"/></g><g><use xlink:href="#aa" x="524.261" y="19.63"/></g><g><use xlink:href="#ab" x="532.239" y="19.63"/><use xlink:href="#ac" x="544.194" y="19.63"/><use xlink:href="#ad" x="556.149" y="19.63"/></g><g><use xlink:href="#M" x="570.097" y="19.63"/></g><g><use xlink:href="#o" x="578.728" y="22.404"/></g><g><use xlink:href="#F" x="581.63" y="22.404"/><use xlink:href="#O" x="588.353" y="22.404"/></g><g><use xlink:href="#l" x="597.171" y="19.63"/></g><g><use xlink:href="#aa" x="609.569" y="19.63"/></g></svg>