<!--
N(t) \perp \left ( \frac{B'(t)}{\left || B'(t) \right || } \right )
-->
<svg xmlns:xlink="http://www.w3.org/1999/xlink" width="21ex" height="7ex" style="vertical-align: -3ex; margin-left: 0ex; margin-right: 0ex; margin-bottom: 1px; margin-top: 1px;" viewBox="0 -1768.9 9038.7 3037.9" xmlns="http://www.w3.org/2000/svg">
<defs>
<path stroke-width="10" id="E1-LATINMODERNNORMAL-1D441" d="M881 672c0 -19 -12 -20 -17 -20c-80 -3 -98 -34 -108 -74l-140 -557c-5 -18 -5 -21 -16 -21c-9 0 -12 2 -19 19l-249 589c-5 10 -5 12 -9 18l-132 -528c-3 -11 -4 -16 -4 -23c0 -20 8 -42 66 -44c11 0 20 -1 20 -11c0 -20 -13 -20 -18 -20c-33 0 -69 3 -103 3 c-33 0 -68 -3 -100 -3c-8 0 -13 4 -13 11c0 19 11 20 17 20c81 3 98 35 108 75l134 537c0 9 -63 9 -68 9c-19 0 -28 0 -28 11c0 20 9 20 29 20h134c23 0 24 -1 32 -19l221 -522l112 445c1 3 3 18 3 21c0 22 -11 43 -68 44c-8 0 -18 0 -18 11c0 20 12 20 18 20 c33 0 68 -3 102 -3c33 0 68 3 101 3c13 0 13 -11 13 -11Z"></path>
<path stroke-width="10" id="E1-LATINMODERNMAIN-28" d="M332 -238c0 -5 -5 -10 -10 -10c-2 0 -4 1 -6 2c-110 83 -215 283 -215 454v84c0 171 105 371 215 454c2 1 4 2 6 2c5 0 10 -5 10 -10c0 -3 -2 -6 -4 -8c-104 -78 -173 -278 -173 -438v-84c0 -160 69 -360 173 -438c2 -2 4 -5 4 -8Z"></path>
<path stroke-width="10" id="E1-LATINMODERNNORMAL-1D461" d="M330 420c0 -20 -10 -20 -30 -20h-94l-74 -295c-4 -17 -6 -24 -6 -48c0 -33 10 -46 31 -46c34 0 87 24 130 128c5 11 6 14 15 14c4 0 12 0 12 -10c0 -8 -57 -154 -159 -154c-54 0 -92 38 -92 92c0 18 4 35 76 319h-88c-20 0 -28 0 -28 12c0 19 10 19 30 19h94l39 159 c9 35 37 36 40 36c17 0 29 -10 29 -27c0 -6 -5 -26 -41 -168h88c18 0 28 0 28 -11Z"></path>
<path stroke-width="10" id="E1-LATINMODERNMAIN-29" d="M288 208c0 -171 -105 -371 -215 -454c-2 -1 -4 -2 -6 -2c-5 0 -10 5 -10 10c0 3 2 6 4 8c104 78 173 278 173 438v84c0 160 -69 360 -173 438c-2 2 -4 5 -4 8c0 5 5 10 10 10c2 0 4 -1 6 -2c110 -83 215 -283 215 -454v-84Z"></path>
<path stroke-width="10" id="E1-LATINMODERNMAIN-22A5" d="M722 20c0 -11 -9 -20 -20 -20h-626c-11 0 -20 9 -20 20s9 20 20 20h293v624c0 11 9 20 20 20s20 -9 20 -20v-624h293c11 0 20 -9 20 -20Z"></path>
<path stroke-width="10" id="E1-LATINMODERNNORMAL-1D435" d="M756 545c0 -95 -105 -169 -209 -188c97 -11 155 -69 155 -141c0 -98 -118 -216 -276 -216h-357c-18 0 -27 0 -27 11c0 20 10 20 27 20c79 0 81 8 91 47l134 537c3 12 4 15 4 19c0 13 -9 14 -27 16c-17 2 -38 2 -38 2c-19 0 -28 0 -28 11c0 20 10 20 29 20h336 c120 0 186 -64 186 -138zM665 549c0 44 -21 103 -109 103h-129c-43 0 -45 -3 -54 -38l-62 -248h146c122 0 208 95 208 183zM609 227c0 43 -19 117 -115 117h-189l-69 -279c-5 -18 -5 -20 -5 -23c0 -8 3 -9 13 -10c6 -1 8 -1 22 -1h136c118 0 207 97 207 196Z"></path>
<path stroke-width="10" id="E1-LATINMODERNMAIN-2032" d="M251 710c0 -7 -2 -14 -6 -19l-158 -261h-27l120 297c4 11 18 21 33 21c21 0 38 -17 38 -38Z"></path>
<path stroke-width="10" id="E1-LATINMODERNMAIN-7C" d="M159 -230c0 -11 -9 -20 -20 -20s-20 9 -20 20v960c0 11 9 20 20 20s20 -9 20 -20v-960Z"></path>
<path stroke-width="10" id="E1-LATINMODERNSIZE1-7C" d="M161 -329c0 -12 -10 -22 -22 -22s-22 10 -22 22v1158c0 12 10 22 22 22s22 -10 22 -22v-1158Z"></path>
<path stroke-width="10" id="E1-LATINMODERNSIZE7-28" d="M823 -1224c0 -11 -10 -21 -21 -21c-5 0 -9 2 -12 4c-268 202 -513 751 -513 1241v500c0 490 245 1039 513 1241c3 2 7 4 12 4c11 0 21 -10 21 -21c0 -7 -3 -13 -9 -17c-255 -192 -435 -739 -435 -1207v-500c0 -468 180 -1015 435 -1207c6 -4 9 -10 9 -17Z"></path>
<path stroke-width="10" id="E1-LATINMODERNSIZE7-29" d="M598 0c0 -490 -245 -1039 -513 -1241c-3 -2 -7 -4 -12 -4c-11 0 -21 10 -21 21c0 7 3 13 9 17c255 192 435 739 435 1207v500c0 468 -180 1015 -435 1207c-6 4 -9 10 -9 17c0 11 10 21 21 21c5 0 9 -2 12 -4c268 -202 513 -751 513 -1241v-500Z"></path>
</defs>
<g stroke="currentColor" fill="currentColor" stroke-width="0" transform="matrix(1 0 0 -1 0 0)">
 <use xlink:href="#E1-LATINMODERNNORMAL-1D441" x="0" y="0"></use>
 <use xlink:href="#E1-LATINMODERNMAIN-28" x="886" y="0"></use>
 <use xlink:href="#E1-LATINMODERNNORMAL-1D461" x="1280" y="0"></use>
 <use xlink:href="#E1-LATINMODERNMAIN-29" x="1646" y="0"></use>
 <use xlink:href="#E1-LATINMODERNMAIN-22A5" x="2317" y="0"></use>
<g transform="translate(3378,0)">
 <use xlink:href="#E1-LATINMODERNSIZE7-28"></use>
<g transform="translate(880,0)">
<g transform="translate(120,0)">
<rect stroke="none" width="3660" height="60" x="0" y="220"></rect>
<g transform="translate(709,777)">
 <use xlink:href="#E1-LATINMODERNNORMAL-1D435" x="0" y="0"></use>
 <use transform="scale(0.707)" xlink:href="#E1-LATINMODERNMAIN-2032" x="1080" y="513"></use>
 <use xlink:href="#E1-LATINMODERNMAIN-28" x="1087" y="0"></use>
 <use xlink:href="#E1-LATINMODERNNORMAL-1D461" x="1481" y="0"></use>
 <use xlink:href="#E1-LATINMODERNMAIN-29" x="1847" y="0"></use>
</g>
<g transform="translate(60,-881)">
 <use xlink:href="#E1-LATINMODERNSIZE1-7C"></use>
 <use xlink:href="#E1-LATINMODERNMAIN-7C" x="283" y="0"></use>
<g transform="translate(566,0)">
 <use xlink:href="#E1-LATINMODERNNORMAL-1D435" x="0" y="0"></use>
 <use transform="scale(0.707)" xlink:href="#E1-LATINMODERNMAIN-2032" x="1080" y="408"></use>
</g>
 <use xlink:href="#E1-LATINMODERNMAIN-28" x="1653" y="0"></use>
 <use xlink:href="#E1-LATINMODERNNORMAL-1D461" x="2047" y="0"></use>
 <use xlink:href="#E1-LATINMODERNMAIN-29" x="2413" y="0"></use>
 <use xlink:href="#E1-LATINMODERNSIZE1-7C" x="2807" y="0"></use>
 <use xlink:href="#E1-LATINMODERNMAIN-7C" x="3257" y="0"></use>
</g>
</g>
</g>
 <use xlink:href="#E1-LATINMODERNSIZE7-29" x="4780" y="0"></use>
</g>
</g>
</svg>