<svg xmlns:xlink="http://www.w3.org/1999/xlink" width="70.167ex" height="18ex" style="vertical-align:-8.5ex;margin-bottom:1px;margin-top:1px" viewBox="0 -4128 30241.4 7756.1" xmlns="http://www.w3.org/2000/svg"><defs><path stroke-width="10" id="a" d="M848 143c0-8-37-154-131-154-47 0-82 35-82 82 0 20 4 31 13 55 20 53 62 167 62 224 0 36-11 70-54 70-109 0-162-120-165-133L431 46c-8-32-14-57-45-57-15 0-29 9-29 27 0 5 9 39 13 59 9 33 10 39 20 76l28 116c8 30 15 58 15 83 0 33-9 70-54 70-95 0-148-91-163-122l-13-50c-5-23-11-45-17-67l-22-90c-6-25-18-72-19-74-7-20-25-28-37-28-15 0-29 9-29 27 0 5 6 28 9 43l58 231c13 52 16 63 16 84 0 38-15 46-31 46-36 0-56-48-73-119-6-22-7-23-17-23 0 0-12 0-12 10 0 3 13 62 31 97 9 18 28 57 74 57 45 0 87-30 92-87 17 23 66 87 156 87 25 0 57-5 82-26 28-24 31-58 32-71 37 53 88 97 163 97s115-42 115-107c0-57-42-168-61-220-9-22-18-46-18-71 0-23 7-33 24-33 55 0 87 71 102 124 5 15 5 18 15 18 3 0 12 0 12-10z"/><path stroke-width="10" id="b" d="M498 143s-13-63-30-99c-16-32-39-55-74-55-48 0-83 33-91 75-60-71-110-75-130-75C95-11 40 55 40 149c0 146 124 293 241 293 45 0 74-27 92-64 3 22 18 44 42 44 17 0 29-10 29-27 0-4 0-6-7-34l-36-140-22-90c-11-44-13-52-13-74 0-20 3-46 30-46 41 0 59 59 76 124 3 14 4 18 14 18 3 0 12 0 12-10zM361 332c0 6-14 88-79 88-40 0-85-37-116-96-23-46-55-169-55-219 0-39 14-94 64-94 28 0 69 16 113 71 15 17 15 19 20 37l50 196c1 5 3 11 3 17z"/><path stroke-width="10" id="c" d="M490 282c0-147-125-293-241-293-51 0-79 35-92 64-7-25-49-188-49-200 0-9 0-16 50-16 14 0 24 0 24-11 0-20-13-20-18-20-32 0-66 3-99 3-28 0-57-3-84-3-8 0-13 4-13 12 0 19 11 19 23 19 44 0 46 7 54 41l112 445c4 17 7 28 7 51 0 38-14 46-31 46-36 0-56-48-73-119-6-22-7-23-17-23 0 0-12 0-12 10 0 3 13 63 31 97 9 18 28 57 74 57 37 0 80-21 90-75 33 39 81 75 131 75 76 0 133-66 133-160zm-72 44c0 59-24 94-64 94-17 0-46-7-81-38-18-15-45-43-52-70l-49-196c-3-12-3-16-3-16 0-6 13-89 79-89 37 0 85 33 119 103 18 38 51 153 51 212z"/><path stroke-width="10" id="d" d="M430 107c0-12-84-118-227-118-98 0-157 79-157 181 0 175 151 272 262 272 69 0 107-41 107-85 0-14-5-73-75-103-50-21-124-23-153-23h-53c-15-61-16-92-16-104 0-32 9-116 87-116 12 0 121 0 200 99 6 8 8 10 13 10 6 0 12-7 12-13zm-48 250c0 34-27 63-74 63-26 0-129-15-168-167h41c41 0 201 0 201 104z"/><path stroke-width="10" id="e" d="M516 683L372 105c-4-17-6-24-6-48 0-20 3-46 30-46 41 0 59 59 76 124 3 14 4 18 14 18 3 0 12 0 12-10 0 0-13-63-30-99-16-32-39-55-74-55-48 0-83 33-91 75-60-71-110-75-130-75C95-11 40 55 40 149c0 146 124 293 241 293 45 0 74-27 92-64l60 237 3 20c0 10-2 17-50 17-15 0-24 0-24 12 0 13 6 18 14 19 17 2 112 11 127 11 13 0 13-11 13-11zM361 332c0 6-14 88-79 88-40 0-85-37-116-96-23-46-55-169-55-219 0-39 14-94 64-94 28 0 69 16 113 71 15 17 15 19 20 37l50 196c1 5 3 11 3 17z"/><path stroke-width="10" id="f" d="M471 165H371V78c0-36 2-47 76-47h21V0c-41 3-94 3-136 3s-94 0-135-3v31h21c74 0 76 11 76 47v87H28v31l307 469c8 12 11 12 20 12 16 0 16-6 16-26V196h100v-31zm-171 31v373L56 196h244z"/><path stroke-width="10" id="g" d="M722 347c0-11-9-20-20-20H76c-11 0-20 9-20 20s9 20 20 20h626c11 0 20-9 20-20zm0-194c0-11-9-20-20-20H76c-11 0-20 9-20 20s9 20 20 20h626c11 0 20-9 20-20z"/><path stroke-width="10" id="o" d="M332-238c0-5-5-10-10-10-2 0-4 1-6 2-110 83-215 283-215 454v84c0 171 105 371 215 454 2 1 4 2 6 2 5 0 10-5 10-10 0-3-2-6-4-8-104-78-173-278-173-438v-84c0-160 69-360 173-438 2-2 4-5 4-8z"/><path stroke-width="10" id="k" d="M527 376c0-40-32-58-54-58-27 0-38 19-38 35 0 24 20 49 48 54-21 13-45 13-50 13-70 0-93-92-99-118l-34-137c-11-44-17-66-17-88 0-34 16-66 55-66 32 0 100 24 133 131 2 7 4 11 13 11 3 0 12 0 12-10 0-25-57-154-160-154-60 0-96 39-108 76-3-6-39-76-105-76-44 0-94 20-94 66 0 32 25 58 55 58 15 0 37-8 37-35 0-28-22-49-47-54 21-13 44-13 50-13 44 0 79 42 95 104 37 140 54 207 54 238 0 58-35 67-54 67-34 0-100-25-134-131-2-9-5-11-13-11 0 0-12 0-12 10 0 25 57 154 161 154 29 0 83-10 108-76 12 23 47 76 105 76 34 0 93-14 93-66z"/><path stroke-width="10" id="l" d="M722 250c0-11-9-20-20-20H76c-11 0-20 9-20 20s9 20 20 20h626c11 0 20-9 20-20z"/><path stroke-width="10" id="m" d="M419 0c-35 3-122 3-162 3S130 3 95 0v31h32c90 0 93 12 93 48v518c-52-26-111-26-131-26v31c32 0 120 0 182 64 23 0 23-2 23-26V79c0-37 3-48 93-48h32V0z"/><path stroke-width="10" id="n" d="M722 250c0-11-9-20-20-20H409V-63c0-11-9-20-20-20s-20 9-20 20v293H76c-11 0-20 9-20 20s9 20 20 20h293v293c0 11 9 20 20 20s20-9 20-20V270h293c11 0 20-9 20-20z"/><path stroke-width="10" id="p" d="M449 174L421 0H50c0 24 0 26 11 37l192 214c55 62 105 141 105 221 0 82-43 163-134 163-58 0-112-37-135-102 3 1 5 1 13 1 35 0 53-26 53-52 0-41-35-53-52-53-3 0-53 0-53 56 0 89 74 181 187 181 122 0 212-80 212-194 0-100-60-154-216-292L127 77h180c22 0 88 0 95 8 10 15 17 59 22 89h25z"/><path stroke-width="10" id="q" d="M288 208c0-171-105-371-215-454-2-1-4-2-6-2-5 0-10 5-10 10 0 3 2 6 4 8 104 78 173 278 173 438v84c0 160-69 360-173 438-2 2-4 5-4 8 0 5 5 10 10 10 2 0 4-1 6-2 110-83 215-283 215-454v-84z"/><path stroke-width="10" id="r" d="M490 404c0-7 0-9-4-23L390-1c-28-113-131-204-234-204-62 0-106 37-106 87 0 49 33 65 56 65 10 0 37-4 37-35 0-19-10-32-20-41-14-12-27-12-43-12 17-39 62-42 76-42 46 0 84 29 110 63 40 53 52 102 65 154-28-28-62-45-101-45-59 0-122 30-122 119 0 47 18 104 58 210 7 19 17 45 17 70 0 32-17 32-25 32-34 0-74-30-101-124-5-16-6-18-16-18 0 0-12 0-12 10 0 9 37 154 132 154 50 0 82-37 82-82 0-20-4-31-20-72-34-88-51-150-51-196 0-37 11-81 62-81 66 0 109 70 113 85l45 180 20 80c4 18 12 49 14 54 9 15 25 21 35 21 15 0 29-9 29-27z"/><path stroke-width="10" id="s" d="M457 171c0-102-91-193-213-193C135-22 42 44 42 135c0 44 32 58 56 58 29 0 56-20 56-56 0-38-31-60-66-55C123 23 198 6 241 6c44 0 113 29 113 165 0 98-37 166-119 166h-44c-17 0-24 0-24 11 0 10 7 11 15 12 7 0 31 2 39 3 25 1 59 4 89 52 26 44 28 102 28 114 0 90-55 112-96 112-36 0-102-13-133-62 15 0 62 0 62-50 0-29-20-51-51-51-29 0-51 19-51 52 0 76 76 136 177 136 96 0 184-56 184-138 0-79-58-149-140-176 104-21 167-99 167-181z"/><path stroke-width="10" id="h" d="M823 1474c0-7-3-13-9-17-255-192-435-739-435-1207V0H277v250c0 490 245 1039 513 1241 3 2 7 4 12 4 11 0 21-10 21-21z"/><path stroke-width="10" id="j" d="M823 21c0-12-10-21-21-21-5 0-9 2-12 4-268 201-513 751-513 1241v250h102v-250C379 776 559 230 814 37c6-3 9-9 9-16z"/><path stroke-width="10" id="i" d="M379 0H277v498h102V0z"/><path stroke-width="10" id="t" d="M598 0H496v250c0 468-180 1015-435 1207-6 4-9 10-9 17 0 11 10 21 21 21 5 0 9-2 12-4 268-202 513-751 513-1241V0z"/><path stroke-width="10" id="v" d="M598 1245C598 755 353 205 85 4c-3-2-7-4-12-4-11 0-21 9-21 21 0 7 3 13 9 16 255 193 435 739 435 1208v250h102v-250z"/><path stroke-width="10" id="u" d="M598 498V0H496v498h102z"/><path stroke-width="10" id="w" d="M608-780c0-9-7-16-16-16-4 0-7 1-10 3-199 150-381 545-381 893v300c0 348 182 743 381 893 3 2 6 3 10 3 9 0 16-7 16-16 0-5-3-10-6-13-190-142-323-535-323-867V100c0-332 133-725 323-867 3-3 6-8 6-13z"/><path stroke-width="10" id="x" d="M462 100c0-348-182-743-382-893-2-2-6-3-9-3-9 0-16 7-16 16 0 5 2 10 6 13 190 142 323 535 323 867v300c0 332-133 725-323 867-4 3-6 8-6 13 0 9 7 16 16 16 3 0 7-1 9-3 200-150 382-545 382-893V100z"/><path stroke-width="10" id="y" d="M682-928c0-10-8-18-18-18-4 0-8 2-11 4C431-775 226-329 226 64v372c0 393 205 839 427 1006 3 2 7 4 11 4 10 0 18-8 18-18 0-6-3-11-7-14-213-160-361-603-361-978V64c0-375 148-818 361-978 4-3 7-8 7-14z"/><path stroke-width="10" id="z" d="M510 64c0-393-205-839-427-1006-3-2-7-4-11-4-10 0-18 8-18 18 0 6 3 11 7 14C274-754 422-311 422 64v372c0 375-148 818-361 978-4 3-7 8-7 14 0 10 8 18 18 18 4 0 8-2 11-4 222-167 427-613 427-1006V64z"/></defs><g stroke="currentColor" fill="currentColor" stroke-width="0" transform="scale(1 -1)"><use xlink:href="#a"/><use xlink:href="#b" x="883"/><use xlink:href="#c" x="1417"/><use xlink:href="#c" x="1925"/><use xlink:href="#d" x="2433"/><g transform="translate(2904)"><use xlink:href="#e"/><use transform="scale(.707)" xlink:href="#f" x="742" y="-213"/></g><use xlink:href="#g" x="4163"/><g transform="translate(5224 4114)"><use xlink:href="#h" y="-1505"/><use xlink:href="#i" transform="matrix(1 0 0 9.263 0 -6170.554)"/><use xlink:href="#j" y="-7719"/></g><g transform="translate(11268 2100)"><use xlink:href="#k"/><use xlink:href="#g" x="854"/><g transform="translate(1915 2014)"><use xlink:href="#h" y="-1505"/><use xlink:href="#i" transform="matrix(1 0 0 1.15445 0 -2051.46)"/><use xlink:href="#j" y="-3519"/></g><path d="M2915 220h9001v60H2915z" stroke="none"/><g transform="translate(2975 998)"><use transform="scale(.707)" xlink:href="#l"/><g transform="translate(553)"><use transform="scale(.707)" xlink:href="#k"/><use transform="scale(.574)" xlink:href="#m" x="710" y="-252"/></g><use transform="scale(.707)" xlink:href="#n" x="1869"/><g transform="translate(1875)"><use transform="scale(.707)" xlink:href="#k"/><use transform="scale(.574)" xlink:href="#f" x="710" y="-263"/></g><use transform="scale(.707)" xlink:href="#l" x="3739"/><path d="M3318 146h5442v60H3318z" stroke="none"/><g transform="translate(3378 573)"><use transform="scale(.574)" xlink:href="#o"/><use transform="scale(.574)" xlink:href="#l" x="394"/><g transform="translate(675) scale(.574)"><use xlink:href="#k"/><use xlink:href="#m" x="577" y="-332"/></g><use transform="scale(.574)" xlink:href="#n" x="2359"/><g transform="translate(1803) scale(.574)"><use xlink:href="#k"/><use xlink:href="#p" x="577" y="-332"/></g><use transform="scale(.574)" xlink:href="#q" x="4324"/><use transform="scale(.574)" xlink:href="#o" x="4718"/><use transform="scale(.574)" xlink:href="#l" x="5112"/><g transform="translate(3384) scale(.574)"><use xlink:href="#r"/><use xlink:href="#m" x="494" y="-332"/></g><use transform="scale(.574)" xlink:href="#n" x="6995"/><g transform="translate(4465) scale(.574)"><use xlink:href="#r"/><use xlink:href="#f" x="494" y="-343"/></g><use transform="scale(.574)" xlink:href="#q" x="8878"/></g><g transform="translate(4958 -359)"><use transform="scale(.574)" xlink:href="#l"/><g transform="translate(449) scale(.574)"><use xlink:href="#r"/><use xlink:href="#m" x="494" y="-332"/></g><use transform="scale(.574)" xlink:href="#n" x="1882"/><g transform="translate(1530) scale(.574)"><use xlink:href="#r"/><use xlink:href="#p" x="494" y="-332"/></g></g></g><g transform="translate(2975 -960)"><use transform="scale(.707)" xlink:href="#l"/><g transform="translate(553)"><use transform="scale(.707)" xlink:href="#k"/><use transform="scale(.574)" xlink:href="#m" x="710" y="-252"/></g><use transform="scale(.707)" xlink:href="#n" x="1869"/><g transform="translate(1875)"><use transform="scale(.707)" xlink:href="#k"/><use transform="scale(.574)" xlink:href="#s" x="710" y="-252"/></g><use transform="scale(.707)" xlink:href="#l" x="3739"/><path d="M3318 146h5442v60H3318z" stroke="none"/><g transform="translate(3378 580)"><use transform="scale(.574)" xlink:href="#o"/><use transform="scale(.574)" xlink:href="#l" x="394"/><g transform="translate(675) scale(.574)"><use xlink:href="#k"/><use xlink:href="#m" x="577" y="-332"/></g><use transform="scale(.574)" xlink:href="#n" x="2359"/><g transform="translate(1803) scale(.574)"><use xlink:href="#k"/><use xlink:href="#p" x="577" y="-332"/></g><use transform="scale(.574)" xlink:href="#q" x="4324"/><use transform="scale(.574)" xlink:href="#o" x="4718"/><use transform="scale(.574)" xlink:href="#l" x="5112"/><g transform="translate(3384) scale(.574)"><use xlink:href="#r"/><use xlink:href="#m" x="494" y="-332"/></g><use transform="scale(.574)" xlink:href="#n" x="6995"/><g transform="translate(4465) scale(.574)"><use xlink:href="#r"/><use xlink:href="#s" x="494" y="-332"/></g><use transform="scale(.574)" xlink:href="#q" x="8878"/></g><g transform="translate(4958 -359)"><use transform="scale(.574)" xlink:href="#l"/><g transform="translate(449) scale(.574)"><use xlink:href="#r"/><use xlink:href="#m" x="494" y="-332"/></g><use transform="scale(.574)" xlink:href="#n" x="1882"/><g transform="translate(1530) scale(.574)"><use xlink:href="#r"/><use xlink:href="#p" x="494" y="-332"/></g></g></g><g transform="translate(12036 2014)"><use xlink:href="#t" y="-1505"/><use xlink:href="#u" transform="matrix(1 0 0 1.15445 0 -2051.46)"/><use xlink:href="#v" y="-3519"/></g></g><g transform="translate(6260 -1965)"><use xlink:href="#r"/><use xlink:href="#g" x="772"/><g transform="translate(1833)"><g transform="translate(0 2150)"><use xlink:href="#h" y="-1505"/><use xlink:href="#i" transform="matrix(1 0 0 1.67988 0 -2318.38)"/><use xlink:href="#j" y="-3791"/></g><path d="M1000 220h3205v60H1000z" stroke="none"/><g transform="translate(1060 631)"><use transform="scale(.707)" xlink:href="#o"/><use transform="scale(.707)" xlink:href="#l" x="394"/><g transform="translate(832)"><use transform="scale(.707)" xlink:href="#r"/><use transform="scale(.574)" xlink:href="#m" x="609" y="-315"/></g><use transform="scale(.707)" xlink:href="#n" x="2181"/><g transform="translate(2096)"><use transform="scale(.707)" xlink:href="#r"/><use transform="scale(.574)" xlink:href="#f" x="609" y="-315"/></g><use transform="scale(.707)" xlink:href="#q" x="3969"/></g><g transform="translate(1338 -364)"><use transform="scale(.707)" xlink:href="#l"/><g transform="translate(553)"><use transform="scale(.707)" xlink:href="#r"/><use transform="scale(.574)" xlink:href="#m" x="609" y="-315"/></g><use transform="scale(.707)" xlink:href="#n" x="1787"/><g transform="translate(1817)"><use transform="scale(.707)" xlink:href="#r"/><use transform="scale(.574)" xlink:href="#p" x="609" y="-315"/></g></g><use xlink:href="#n" x="4548"/><path d="M5673 220h14426v60H5673z" stroke="none"/><g transform="translate(5733 1120)"><use transform="scale(.707)" xlink:href="#w"/><use transform="scale(.707)" xlink:href="#m" x="668"/><use transform="scale(.707)" xlink:href="#l" x="1173"/><path d="M1503 146h2281v60H1503z" stroke="none"/><g transform="translate(1563 580)"><use transform="scale(.574)" xlink:href="#l"/><g transform="translate(449) scale(.574)"><use xlink:href="#r"/><use xlink:href="#m" x="494" y="-332"/></g><use transform="scale(.574)" xlink:href="#n" x="1882"/><g transform="translate(1530) scale(.574)"><use xlink:href="#r"/><use xlink:href="#s" x="494" y="-332"/></g></g><g transform="translate(1563 -359)"><use transform="scale(.574)" xlink:href="#l"/><g transform="translate(449) scale(.574)"><use xlink:href="#r"/><use xlink:href="#m" x="494" y="-332"/></g><use transform="scale(.574)" xlink:href="#n" x="1882"/><g transform="translate(1530) scale(.574)"><use xlink:href="#r"/><use xlink:href="#p" x="494" y="-332"/></g></g><use transform="scale(.707)" xlink:href="#x" x="5522"/><g transform="translate(4377)"><use transform="scale(.707)" xlink:href="#y"/><use transform="scale(.707)" xlink:href="#l" x="741"/><g transform="translate(1077)"><use transform="scale(.707)" xlink:href="#k"/><use transform="scale(.574)" xlink:href="#m" x="710" y="-252"/></g><use transform="scale(.707)" xlink:href="#n" x="2610"/><g transform="translate(2399)"><use transform="scale(.707)" xlink:href="#k"/><use transform="scale(.574)" xlink:href="#f" x="710" y="-263"/></g><use transform="scale(.707)" xlink:href="#l" x="4480"/><path d="M3842 146h5442v60H3842z" stroke="none"/><g transform="translate(3902 573)"><use transform="scale(.574)" xlink:href="#o"/><use transform="scale(.574)" xlink:href="#l" x="394"/><g transform="translate(675) scale(.574)"><use xlink:href="#k"/><use xlink:href="#m" x="577" y="-332"/></g><use transform="scale(.574)" xlink:href="#n" x="2359"/><g transform="translate(1803) scale(.574)"><use xlink:href="#k"/><use xlink:href="#p" x="577" y="-332"/></g><use transform="scale(.574)" xlink:href="#q" x="4324"/><use transform="scale(.574)" xlink:href="#o" x="4718"/><use transform="scale(.574)" xlink:href="#l" x="5112"/><g transform="translate(3384) scale(.574)"><use xlink:href="#r"/><use xlink:href="#m" x="494" y="-332"/></g><use transform="scale(.574)" xlink:href="#n" x="6995"/><g transform="translate(4465) scale(.574)"><use xlink:href="#r"/><use xlink:href="#f" x="494" y="-343"/></g><use transform="scale(.574)" xlink:href="#q" x="8878"/></g><g transform="translate(5482 -359)"><use transform="scale(.574)" xlink:href="#l"/><g transform="translate(449) scale(.574)"><use xlink:href="#r"/><use xlink:href="#m" x="494" y="-332"/></g><use transform="scale(.574)" xlink:href="#n" x="1882"/><g transform="translate(1530) scale(.574)"><use xlink:href="#r"/><use xlink:href="#p" x="494" y="-332"/></g></g><use transform="scale(.707)" xlink:href="#z" x="13300"/></g></g><g transform="translate(8445 -960)"><use transform="scale(.707)" xlink:href="#l"/><g transform="translate(553)"><use transform="scale(.707)" xlink:href="#k"/><use transform="scale(.574)" xlink:href="#m" x="710" y="-252"/></g><use transform="scale(.707)" xlink:href="#n" x="1869"/><g transform="translate(1875)"><use transform="scale(.707)" xlink:href="#k"/><use transform="scale(.574)" xlink:href="#s" x="710" y="-252"/></g><use transform="scale(.707)" xlink:href="#l" x="3739"/><path d="M3318 146h5442v60H3318z" stroke="none"/><g transform="translate(3378 580)"><use transform="scale(.574)" xlink:href="#o"/><use transform="scale(.574)" xlink:href="#l" x="394"/><g transform="translate(675) scale(.574)"><use xlink:href="#k"/><use xlink:href="#m" x="577" y="-332"/></g><use transform="scale(.574)" xlink:href="#n" x="2359"/><g transform="translate(1803) scale(.574)"><use xlink:href="#k"/><use xlink:href="#p" x="577" y="-332"/></g><use transform="scale(.574)" xlink:href="#q" x="4324"/><use transform="scale(.574)" xlink:href="#o" x="4718"/><use transform="scale(.574)" xlink:href="#l" x="5112"/><g transform="translate(3384) scale(.574)"><use xlink:href="#r"/><use xlink:href="#m" x="494" y="-332"/></g><use transform="scale(.574)" xlink:href="#n" x="6995"/><g transform="translate(4465) scale(.574)"><use xlink:href="#r"/><use xlink:href="#s" x="494" y="-332"/></g><use transform="scale(.574)" xlink:href="#q" x="8878"/></g><g transform="translate(4958 -359)"><use transform="scale(.574)" xlink:href="#l"/><g transform="translate(449) scale(.574)"><use xlink:href="#r"/><use xlink:href="#m" x="494" y="-332"/></g><use transform="scale(.574)" xlink:href="#n" x="1882"/><g transform="translate(1530) scale(.574)"><use xlink:href="#r"/><use xlink:href="#p" x="494" y="-332"/></g></g></g><g transform="translate(20219 2150)"><use xlink:href="#t" y="-1505"/><use xlink:href="#u" transform="matrix(1 0 0 1.67988 0 -2318.38)"/><use xlink:href="#v" y="-3791"/></g></g></g><g transform="translate(29360 4114)"><use xlink:href="#t" y="-1505"/><use xlink:href="#u" transform="matrix(1 0 0 9.263 0 -6170.554)"/><use xlink:href="#v" y="-7719"/></g></g></svg>