<svg xmlns="http://www.w3.org/2000/svg" xmlns:xlink="http://www.w3.org/1999/xlink" width="352pt" height="96" viewBox="0 0 352 72"><defs><symbol overflow="visible" id="a"><path d="M2.578-4.11c.363-.538.723-.94 1.078-1.202.352-.258.711-.391 1.078-.391.375 0 .657.11.844.328.195.21.297.516.297.922v.172c.332-.477.664-.832 1-1.063.332-.238.68-.36 1.047-.36.351 0 .629.106.828.313.195.211.297.5.297.875 0 .25-.059.602-.172 1.047l-.39 1.547c-.106.418-.157.715-.157.89 0 .157.024.274.078.345.051.074.133.109.25.109a.61.61 0 0 0 .36-.14c.132-.102.328-.286.578-.548l.328.329c-.336.355-.625.617-.875.78-.25.165-.54.25-.86.25a.779.779 0 0 1-.609-.265 1.061 1.061 0 0 1-.234-.703c0-.25.066-.625.203-1.125l.25-1c.094-.375.156-.645.187-.813.032-.175.047-.32.047-.437 0-.27-.047-.46-.14-.578-.086-.125-.23-.188-.438-.188-.168 0-.344.063-.531.188-.188.125-.387.32-.594.578-.2.262-.367.516-.5.766-.137.25-.242.558-.312.921L4.984 0H3.97l.672-2.984c.082-.352.14-.618.171-.797.032-.176.047-.328.047-.453 0-.282-.054-.477-.156-.594-.105-.125-.262-.188-.469-.188-.148 0-.312.063-.5.188-.187.125-.39.324-.609.594-.219.273-.39.53-.516.78-.117.25-.214.56-.296.923L1.765 0H.75l.844-3.719c.093-.375.14-.66.14-.86 0-.155-.027-.269-.078-.343-.054-.07-.136-.11-.25-.11-.117 0-.242.055-.375.157-.136.094-.324.273-.562.531L.14-4.672c.343-.351.64-.613.89-.781.25-.164.52-.25.813-.25.25 0 .441.086.578.25.144.156.219.367.219.625 0 .219-.043.45-.125.687zm0 0"/></symbol><symbol overflow="visible" id="b"><path d="M5.031-5.313l.547-.39.375.094-.86 3.718c-.093.368-.14.653-.14.86 0 .156.024.273.078.343.051.075.133.11.25.11a.61.61 0 0 0 .36-.14c.132-.102.328-.286.578-.548l.328.329c-.356.375-.656.64-.906.796a1.44 1.44 0 0 1-.797.235.748.748 0 0 1-.578-.235c-.149-.164-.22-.379-.22-.64 0-.219.04-.446.126-.688L4.109-1.5c-.375.555-.734.96-1.078 1.219-.336.25-.687.375-1.062.375-.43 0-.762-.16-1-.485-.242-.332-.36-.789-.36-1.375C.61-2.43.74-3.07 1-3.687c.27-.626.633-1.114 1.094-1.47a2.47 2.47 0 0 1 1.547-.546c.25 0 .484.031.703.094.226.054.457.152.687.296zm-.515 1.75a3.32 3.32 0 0 0 .078-.421c.008-.114.015-.239.015-.375 0-.301-.07-.52-.203-.657-.125-.144-.343-.218-.656-.218-.398 0-.758.164-1.078.484-.324.324-.574.762-.75 1.313a5.146 5.146 0 0 0-.266 1.624c0 .407.051.711.157.907.113.199.3.297.562.297.258 0 .516-.11.766-.329.25-.218.504-.535.765-.953.258-.414.446-.89.563-1.421zm0 0"/></symbol><symbol overflow="visible" id="c"><path d="M1.61-3.703c.081-.352.124-.645.124-.875 0-.156-.027-.27-.078-.344-.054-.07-.136-.11-.25-.11-.117 0-.242.055-.375.157-.136.094-.324.273-.562.531L.14-4.672c.351-.363.648-.625.89-.781.25-.164.52-.25.813-.25.238 0 .43.086.578.25.144.156.219.367.219.625 0 .219-.047.453-.141.703l.078.016c.719-1.063 1.438-1.594 2.156-1.594.426 0 .754.168.985.5.238.324.36.777.36 1.36 0 .648-.134 1.28-.391 1.905-.262.625-.622 1.122-1.079 1.485-.46.367-.976.547-1.546.547-.524 0-.954-.114-1.297-.344L1.5 1.031a3.292 3.292 0 0 0-.094.688c0 .176.04.3.125.375.094.07.266.117.516.14L2 2.516H.187zm.593 1.656a4.09 4.09 0 0 0-.078.485c-.012.105-.016.21-.016.312 0 .313.063.54.188.672.133.137.363.203.687.203.196 0 .38-.035.547-.11.164-.081.32-.195.469-.343a2.1 2.1 0 0 0 .406-.531c.125-.22.235-.461.328-.735.102-.281.176-.566.22-.86.05-.3.077-.581.077-.843 0-.406-.058-.707-.172-.906a.584.584 0 0 0-.546-.313c-.2 0-.399.07-.594.204-.188.136-.399.355-.625.656-.23.293-.414.586-.547.875a4.791 4.791 0 0 0-.297 1zm0 0"/></symbol><symbol overflow="visible" id="d"><path d="M4.906-1.172a4.522 4.522 0 0 1-1.156.953c-.387.211-.84.313-1.36.313-.562 0-1-.172-1.312-.516C.766-.766.61-1.25.61-1.875c0-.414.07-.863.22-1.344.155-.476.382-.906.687-1.281.312-.383.68-.68 1.109-.89a3.07 3.07 0 0 1 1.36-.313c.468 0 .816.101 1.046.297.239.187.36.484.36.89 0 .668-.313 1.168-.938 1.5-.617.325-1.539.485-2.766.485a4.372 4.372 0 0 0-.062.765c0 .407.078.704.234.891.157.188.414.281.782.281.363 0 .691-.078.984-.234.29-.156.598-.395.922-.719zm-3.125-1.86a6.27 6.27 0 0 0 1.422-.14c.395-.094.695-.242.906-.453.22-.207.329-.492.329-.86 0-.226-.06-.41-.172-.546-.118-.133-.282-.203-.5-.203-.399 0-.778.199-1.141.593-.367.399-.648.934-.844 1.61zm0 0"/></symbol><symbol overflow="visible" id="e"><path d="M4.11-1.5c-.376.555-.735.96-1.079 1.219-.336.25-.687.375-1.062.375-.43 0-.762-.16-1-.485-.242-.332-.36-.789-.36-1.375C.61-2.43.74-3.07 1-3.687c.27-.626.633-1.114 1.094-1.47a2.47 2.47 0 0 1 1.547-.546c.238 0 .457.027.656.078.195.043.406.125.625.25l.297-1.36c.031-.124.054-.265.078-.421a2.09 2.09 0 0 0 .047-.407.414.414 0 0 0-.078-.265.322.322 0 0 0-.188-.125c-.074-.031-.215-.05-.422-.063l.078-.312 1.47-.047h.343L5.094-1.891c-.094.387-.14.672-.14.86 0 .156.023.273.077.343.051.075.133.11.25.11a.61.61 0 0 0 .36-.14c.132-.102.328-.286.578-.548l.328.329c-.367.375-.672.64-.922.796-.242.157-.5.235-.781.235a.748.748 0 0 1-.578-.235c-.149-.164-.22-.379-.22-.64 0-.219.04-.446.126-.688zm.39-2.063c.05-.28.078-.546.078-.796 0-.313-.062-.536-.187-.672-.125-.133-.34-.203-.641-.203-.406 0-.766.164-1.078.484-.313.324-.563.762-.75 1.313a5.146 5.146 0 0 0-.266 1.624c0 .407.051.711.157.907.113.199.3.297.562.297.125 0 .25-.024.375-.079.125-.05.254-.132.39-.25.133-.113.266-.253.391-.421.133-.176.254-.348.36-.516.113-.164.218-.363.312-.594.094-.238.172-.52.234-.844zm0 0"/></symbol><symbol overflow="visible" id="g"><path d="M.875-4.25v-.781h7.219v.781zm0 2.422v-.781h7.219v.78zm7.469-1.594zm0 0"/></symbol><symbol overflow="visible" id="h"><path d="M1.39 0v-1.75c0-5.3.641-10.258 1.923-14.875 1.289-4.613 3.007-8.316 5.156-11.11l.453.391c-2.012 2.856-3.559 6.574-4.64 11.157C3.194-11.614 2.647-6.806 2.64-1.767V0zm0 0"/></symbol><symbol overflow="visible" id="i"><path d="M2.64-14.656V0H1.39v-14.656zm0 0"/></symbol><symbol overflow="visible" id="j"><path d="M2.64-27.719v1.75c.008 5.043.555 9.856 1.641 14.438 1.082 4.586 2.63 8.304 4.64 11.156L8.47 0C6.32-2.781 4.602-6.477 3.313-11.094 2.03-15.707 1.39-20.664 1.39-25.969v-1.75zm0 0"/></symbol><symbol overflow="visible" id="k"><path d="M2.797-2.656a65.21 65.21 0 0 0-.188-.875c-.062-.29-.125-.555-.187-.797-.063-.25-.121-.41-.172-.484-.043-.083-.09-.133-.14-.157a.289.289 0 0 0-.172-.047.477.477 0 0 0-.235.063.787.787 0 0 0-.219.187 4.023 4.023 0 0 0-.296.422l-.391-.25c.25-.375.488-.648.719-.828.226-.187.492-.281.796-.281.126 0 .227.016.313.047a.604.604 0 0 1 .25.125c.07.054.133.125.188.218.05.086.101.204.156.36.05.156.097.351.14.578.051.23.094.469.125.719h.063c.375-.531.656-.914.844-1.156.195-.25.363-.43.5-.547.132-.125.257-.207.375-.25.125-.051.289-.079.5-.079.175 0 .328.024.453.063l-.235 1.063h-.421c-.024-.165-.09-.25-.204-.25a.26.26 0 0 0-.109.03.64.64 0 0 0-.156.079 1.516 1.516 0 0 0-.25.219 10.63 10.63 0 0 0-.36.421c-.136.157-.277.329-.421.516l-.391.5c.07.375.14.7.203.969l.156.687c.051.18.094.32.125.422.04.106.082.184.125.235a.32.32 0 0 0 .125.109.474.474 0 0 0 .469-.078c.102-.082.25-.27.438-.563l.375.25c-.274.407-.516.696-.735.86-.219.164-.484.25-.797.25A.864.864 0 0 1 3.734 0a.958.958 0 0 1-.312-.281c-.086-.133-.156-.344-.219-.625-.125-.5-.2-.883-.219-1.156h-.062c-.418.585-.73 1.007-.938 1.265-.199.25-.367.438-.5.563-.125.117-.25.199-.375.25C.992.066.832.094.625.094.445.094.297.066.172.016l.234-1.063h.422c.02.168.086.25.203.25.051 0 .11-.015.172-.047a1.1 1.1 0 0 0 .25-.203c.113-.113.27-.289.469-.531.207-.238.5-.598.875-1.078zm0 0"/></symbol><symbol overflow="visible" id="l"><path d="M6.938-20.75c-1.586 1.773-2.782 4.152-3.594 7.14C2.539-10.616 2.14-7.226 2.14-3.437c0 3.813.398 7.208 1.203 10.188.812 2.988 2.008 5.367 3.594 7.14l-.375.407c-1.774-1.73-3.153-4.106-4.141-7.125C1.43 4.16.937.617.937-3.453c0-4.04.493-7.567 1.485-10.578.988-3.02 2.367-5.395 4.14-7.125zm0 0"/></symbol><symbol overflow="visible" id="z"><path d="M.75-21.156c1.77 1.73 3.148 4.105 4.14 7.125.989 3.011 1.485 6.539 1.485 10.578 0 4.07-.496 7.613-1.484 10.625-.993 3.02-2.371 5.394-4.141 7.125l-.375-.406c1.582-1.774 2.781-4.153 3.594-7.141C4.78 3.77 5.188.375 5.188-3.438c0-3.789-.407-7.18-1.22-10.171-.812-2.989-2.011-5.368-3.593-7.141zm0 0"/></symbol><symbol overflow="visible" id="A"><path d="M2.86.016a55.642 55.642 0 0 0-.454-2.485A59.384 59.384 0 0 0 2-4.375c-.086-.3-.172-.492-.266-.578a.34.34 0 0 0-.203-.063.54.54 0 0 0-.36.157c-.105.093-.234.265-.39.515l-.39-.25c.27-.406.52-.691.75-.86.238-.163.504-.25.796-.25.157 0 .29.028.407.079.082.031.16.086.234.156a.699.699 0 0 1 .203.297c.063.125.114.274.156.438.051.156.102.386.157.687.094.5.18 1.031.265 1.594.094.555.172 1.07.235 1.547.375-.551.691-1.086.953-1.61.27-.52.46-.972.578-1.359.113-.383.172-.703.172-.953 0-.176-.043-.297-.125-.36-.074-.07-.203-.113-.39-.125l.062-.296h1.531l.172.296a20.29 20.29 0 0 1-1.219 2.61C4.828-1.797 4.254-.895 3.61 0c-.617.863-1.125 1.484-1.53 1.86-.294.257-.571.445-.829.562-.21.094-.434.14-.672.14-.086 0-.183-.011-.297-.03a1.012 1.012 0 0 1-.234-.048l.25-1.14H.75c0 .25.086.375.266.375.226 0 .488-.14.78-.422.302-.281.657-.711 1.063-1.281zm0 0"/></symbol><symbol overflow="visible" id="E"><path d="M4.906-3.047V.328h-.843v-3.375H.874v-.781h3.188v-3.375h.843v3.375h3.188v.781zm0 0"/></symbol><symbol overflow="visible" id="I"><path d="M6.469 0v-1.766c-.012-5.039-.559-9.847-1.64-14.421C3.741-20.77 2.19-24.489.171-27.345l.469-.39c2.132 2.793 3.847 6.496 5.14 11.109C7.071-12.008 7.72-7.051 7.72-1.75V0zm0 0"/></symbol><symbol overflow="visible" id="J"><path d="M7.719-14.656V0h-1.25v-14.656zm0 0"/></symbol><symbol overflow="visible" id="K"><path d="M7.719-27.734v1.765c0 5.293-.649 10.246-1.938 14.86C4.488-6.492 2.773-2.79.641 0L.17-.375c2.02-2.852 3.571-6.57 4.657-11.156 1.082-4.582 1.629-9.395 1.64-14.438v-1.765zm0 0"/></symbol><symbol overflow="visible" id="f"><path d="M2.297-.266c.094-.02.164-.039.219-.062a.865.865 0 0 0 .156-.063.53.53 0 0 0 .094-.093.38.38 0 0 0 .046-.125c.008-.051.016-.114.016-.188v-.875H.36v-.344c.438-.601.868-1.203 1.297-1.796.426-.602.86-1.208 1.297-1.813h.703v3.5h.078c.125 0 .223-.004.297-.016a.36.36 0 0 0 .172-.062.452.452 0 0 0 .125-.156c.031-.07.063-.16.094-.266h.375c-.012.156-.024.32-.031.484-.012.157-.024.313-.032.47H3.656v.984a.502.502 0 0 0 .063.218c.039.055.097.094.172.125.07.024.175.047.312.078V0H2.297zM1.14-2.125h1.687v-.89-.36a8.04 8.04 0 0 0 .016-.438c.008-.156.015-.3.015-.437.008-.133.016-.25.016-.344h-.047l-.844 1.219c-.28.398-.562.793-.843 1.188zm0 0"/></symbol><symbol overflow="visible" id="m"><path d="M.75-2.234v-.672h5.063v.672zm0 0"/></symbol><symbol overflow="visible" id="n"><path d="M2.328-2.125a57.17 57.17 0 0 1-.14-.625c-.043-.188-.079-.344-.11-.469a1.783 1.783 0 0 0-.11-.328.829.829 0 0 0-.093-.187.324.324 0 0 0-.11-.11.337.337 0 0 0-.14-.031.4.4 0 0 0-.14.031.29.29 0 0 0-.126.078c-.043.043-.093.102-.156.172-.055.074-.11.168-.172.281L.688-3.53C.8-3.707.905-3.86 1-3.984c.102-.125.203-.223.297-.297a.945.945 0 0 1 .297-.157c.101-.03.222-.046.36-.046.155 0 .284.039.39.109a.68.68 0 0 1 .25.297c.07.137.129.305.172.5.039.2.086.43.14.687h.063l.453-.609c.125-.164.238-.305.344-.422.101-.125.191-.223.265-.297a.939.939 0 0 1 .235-.156.87.87 0 0 1 .234-.078c.082-.02.176-.031.281-.031.145 0 .282.027.407.078l-.22.86h-.374c-.012-.126-.059-.188-.14-.188a.613.613 0 0 0-.11.015.553.553 0 0 0-.125.078 1.163 1.163 0 0 0-.188.141 2.996 2.996 0 0 0-.25.25c-.094.105-.203.23-.328.375-.117.148-.25.32-.406.516.082.406.148.73.203.968.063.243.117.43.172.563.05.125.101.21.156.25.05.043.113.062.188.062.05 0 .097-.004.14-.015a.263.263 0 0 0 .125-.078c.04-.04.086-.098.14-.172.063-.07.13-.172.204-.297l.344.219c-.137.187-.258.343-.36.468a1.481 1.481 0 0 1-.28.297.893.893 0 0 1-.298.125 1.039 1.039 0 0 1-.328.047.973.973 0 0 1-.312-.047.459.459 0 0 1-.22-.172.87.87 0 0 1-.124-.203 1.8 1.8 0 0 1-.11-.265 9.15 9.15 0 0 1-.093-.297c-.024-.102-.043-.203-.063-.297-.011-.094-.023-.172-.031-.234l-.031-.172h-.047c-.18.242-.336.449-.469.625-.125.168-.242.312-.344.437-.105.125-.199.23-.28.313a1.393 1.393 0 0 1-.25.203.904.904 0 0 1-.266.078C.727.067.633.078.53.078A.942.942 0 0 1 .141 0l.203-.86h.375c.008.137.054.204.14.204.04-.008.07-.016.094-.016a.36.36 0 0 0 .11-.062c.039-.032.093-.07.156-.125.062-.063.14-.145.234-.25.102-.114.223-.25.36-.407.144-.164.316-.367.515-.609zm0 0"/></symbol><symbol overflow="visible" id="p"><path d="M3.625-2.234V.078h-.703v-2.312H.75v-.672h2.172V-5.22h.703v2.313h2.188v.672zm0 0"/></symbol><symbol overflow="visible" id="B"><path d="M1.547-2.219c0 1.024.164 1.867.5 2.531.332.665.836 1.11 1.515 1.329l-.109.343c-.867-.23-1.527-.718-1.984-1.468-.45-.739-.672-1.641-.672-2.704 0-1.05.226-1.953.687-2.703a3.13 3.13 0 0 1 1.97-1.453l.108.328c-.68.23-1.183.672-1.515 1.329-.336.656-.5 1.48-.5 2.468zm0 0"/></symbol><symbol overflow="visible" id="C"><path d="M2.422-.031a85.238 85.238 0 0 1-.266-1.438c-.074-.406-.14-.75-.203-1.031a8.579 8.579 0 0 0-.156-.703 2.408 2.408 0 0 0-.156-.406c-.043-.102-.09-.172-.141-.204a.21.21 0 0 0-.14-.062c-.055 0-.106.008-.157.016a.429.429 0 0 0-.14.078 1.45 1.45 0 0 0-.141.172 6.962 6.962 0 0 0-.203.296L.375-3.53c.133-.188.254-.336.36-.453a1.57 1.57 0 0 1 .312-.297c.101-.07.207-.125.312-.157.114-.03.235-.046.36-.046.101 0 .191.011.265.03a.607.607 0 0 1 .22.11.553.553 0 0 1 .155.172c.051.074.102.168.157.281.02.063.046.157.078.282.031.117.062.25.094.406a39.518 39.518 0 0 1 .188 1.125l.093.64c.031.22.054.434.078.641a7.36 7.36 0 0 0 .594-.875c.175-.289.328-.566.453-.828.125-.27.218-.508.281-.719.063-.219.094-.39.094-.515 0-.133-.04-.227-.11-.282-.062-.05-.171-.082-.328-.093l.047-.282h1.25l.156.25c-.293.73-.636 1.434-1.03 2.11A16.894 16.894 0 0 1 3.14-.094c-.22.258-.418.477-.594.656a8.174 8.174 0 0 1-.469.485 3.055 3.055 0 0 1-.39.328c-.125.082-.25.148-.375.203-.118.05-.231.086-.344.11a5 5 0 0 1-.36.046c-.074 0-.156-.011-.25-.03a1.793 1.793 0 0 1-.25-.048L.33.688h.405v.03c0 .196.079.298.235.298.219 0 .437-.086.656-.25.219-.168.484-.434.797-.797zm0 0"/></symbol><symbol overflow="visible" id="D"><path d="M2.188-2.219c0-.988-.168-1.812-.5-2.469A2.524 2.524 0 0 0 .171-6.016l.11-.328A3.15 3.15 0 0 1 2.25-4.89c.457.75.688 1.653.688 2.704 0 1.062-.231 1.964-.688 2.703-.45.75-1.105 1.238-1.969 1.468l-.094-.343c.676-.22 1.176-.664 1.5-1.329.333-.664.5-1.507.5-2.53zm0 0"/></symbol><symbol overflow="visible" id="F"><path d="M.75-2.578c0-2.25.313-4.125.938-5.625.632-1.508 1.375-2.598 2.218-3.266l.25.297c-.742.688-1.355 1.758-1.843 3.203-.481 1.45-.72 3.246-.72 5.39 0 2.157.239 3.958.72 5.407.488 1.445 1.101 2.516 1.843 3.203l-.25.282c-.844-.657-1.586-1.743-2.219-3.25C1.063 1.563.75-.317.75-2.579zm0 0"/></symbol><symbol overflow="visible" id="G"><path d="M3.219-1.156v.234c.008.063.02.121.031.172a.252.252 0 0 0 .047.11c.02.03.047.058.078.078.04.042.086.074.14.093.063.012.133.028.22.047.093.012.203.024.328.031.132 0 .289.008.468.016V0H1.047v-.375c.176-.008.32-.016.437-.016.125-.007.227-.02.313-.03L2-.47a.53.53 0 0 0 .125-.062 1.36 1.36 0 0 0 .11-.094.237.237 0 0 0 .062-.11c.02-.05.035-.109.047-.171a2.25 2.25 0 0 0 .015-.25v-3.157c0-.113-.023-.19-.062-.234a.233.233 0 0 0-.188-.078c-.093 0-.23.047-.406.14-.18.094-.406.235-.687.423-.043-.07-.079-.141-.11-.204-.031-.07-.07-.14-.11-.203.364-.195.724-.394 1.079-.593l1.094-.594h.265a5.867 5.867 0 0 0-.015.437v.719zm0 0"/></symbol><symbol overflow="visible" id="H"><path d="M3.703-2.578c0 2.262-.32 4.14-.953 5.64C2.125 4.57 1.39 5.656.547 6.313l-.266-.28C1.02 5.343 1.63 4.272 2.11 2.827c.489-1.45.735-3.25.735-5.406 0-2.145-.246-3.942-.735-5.39-.48-1.446-1.09-2.516-1.828-3.204l.266-.297C1.39-10.8 2.125-9.71 2.75-8.203c.633 1.5.953 3.375.953 5.625zm0 0"/></symbol><symbol overflow="visible" id="o"><path d="M2.578-.89c0 .148.008.25.031.312.032.062.07.11.125.14a.8.8 0 0 0 .282.079c.132.023.343.039.625.046V0H.812v-.313a4.36 4.36 0 0 0 .61-.046.997.997 0 0 0 .281-.079.307.307 0 0 0 .14-.14c.032-.063.048-.164.048-.313v-2.265c0-.082-.024-.14-.063-.172a.172.172 0 0 0-.14-.063c-.063 0-.168.04-.313.11a6.526 6.526 0 0 0-.563.328l-.187-.344 1.75-.906h.219c0 .055-.008.172-.016.36v.546zm0 0"/></symbol><symbol overflow="visible" id="q"><path d="M1.781-.219c.145-.031.242-.062.297-.093a.267.267 0 0 0 .11-.141c.019-.07.03-.195.03-.375v-.39H.298v-.266l2.015-2.688h.579v2.578h.062c.125 0 .211-.008.266-.031a.31.31 0 0 0 .156-.11.798.798 0 0 0 .094-.25h.328l-.047.766h-.86v.39c0 .18.008.306.032.376.02.062.055.11.11.14.062.032.16.063.296.094V0H1.781zM.938-1.594h1.28v-.593c0-.145.005-.336.016-.579.008-.238.02-.437.032-.593h-.047L.938-1.641zm0 0"/></symbol><symbol overflow="visible" id="r"><path d="M1.203-1.734c0 .804.125 1.46.375 1.968.258.52.656.868 1.188 1.047l-.079.266A2.534 2.534 0 0 1 1.141.407C.785-.165.609-.868.609-1.704c0-.813.176-1.508.532-2.094.363-.582.879-.96 1.546-1.14l.094.265c-.543.18-.945.524-1.203 1.031-.25.5-.375 1.137-.375 1.907zm0 0"/></symbol><symbol overflow="visible" id="s"><path d="M.578-1.703v-.594h4.078v.594zm0 0"/></symbol><symbol overflow="visible" id="t"><path d="M1.938-1.703l-.11-.484a5.164 5.164 0 0 0-.11-.454.834.834 0 0 0-.109-.28.294.294 0 0 0-.109-.126.237.237 0 0 0-.125-.031.345.345 0 0 0-.234.094 1.663 1.663 0 0 0-.266.359l-.297-.172c.145-.219.27-.379.375-.484a.948.948 0 0 1 .297-.235.88.88 0 0 1 .39-.078c.157 0 .286.047.391.14.102.087.18.235.235.454.062.21.113.434.156.672h.047l.344-.422c.144-.188.269-.332.374-.438a1.83 1.83 0 0 1 .266-.25.766.766 0 0 1 .235-.124c.082-.02.175-.032.28-.032.134 0 .255.024.36.063l-.187.719h-.329c-.011-.102-.046-.157-.109-.157a.468.468 0 0 0-.297.156 3.82 3.82 0 0 0-.312.313c-.125.137-.309.344-.547.625.05.262.101.512.156.75.063.242.11.402.14.484a.356.356 0 0 0 .11.157c.04.03.098.046.172.046.05 0 .098-.007.14-.03a.713.713 0 0 0 .157-.141c.05-.063.117-.16.203-.297l.281.172c-.148.23-.273.402-.375.515a.85.85 0 0 1-.312.235.941.941 0 0 1-.36.062.545.545 0 0 1-.265-.062.476.476 0 0 1-.188-.141 1.165 1.165 0 0 1-.14-.234 5.663 5.663 0 0 1-.125-.47 7.525 7.525 0 0 1-.079-.452h-.046c-.25.343-.45.601-.594.765a6.124 6.124 0 0 1-.36.36.782.782 0 0 1-.28.172.81.81 0 0 1-.313.062A.875.875 0 0 1 .109 0l.188-.703h.328c0 .105.035.156.11.156.05 0 .109-.02.171-.062.07-.04.188-.145.344-.313.156-.164.383-.426.688-.781zm0 0"/></symbol><symbol overflow="visible" id="u"><path d="M2.922-1.703V.125h-.625v-1.828H.578v-.594h1.719v-1.828h.625v1.828h1.734v.594zm0 0"/></symbol><symbol overflow="visible" id="v"><path d="M2.531-.563c.114 0 .203-.003.266-.015a.297.297 0 0 0 .14-.047.53.53 0 0 0 .094-.094c.02-.039.055-.125.11-.25h.343L3.422 0H.5v-.188c.102-.238.254-.476.453-.718.195-.239.422-.485.672-.735.313-.289.531-.507.656-.656.133-.156.235-.3.297-.437a.95.95 0 0 0 .094-.407c0-.226-.063-.406-.188-.53-.125-.134-.308-.204-.546-.204a.833.833 0 0 0-.532.172.91.91 0 0 0-.328.484H.594v-.672c.3-.125.578-.21.828-.265.25-.051.469-.078.656-.078.258 0 .473.03.64.093.177.055.317.125.423.22a.797.797 0 0 1 .218.327c.04.117.063.242.063.375 0 .156-.04.309-.11.453-.062.137-.171.29-.328.454-.148.167-.414.43-.796.78-.407.376-.704.7-.891.97zm0 0"/></symbol><symbol overflow="visible" id="w"><path d="M1.703-1.734c0-.77-.133-1.407-.39-1.907A1.968 1.968 0 0 0 .125-4.67l.094-.266c.664.18 1.176.558 1.531 1.14.363.586.547 1.281.547 2.094 0 .836-.184 1.539-.547 2.11-.355.581-.867.96-1.531 1.14L.14 1.28A1.95 1.95 0 0 0 1.312.234c.258-.507.391-1.164.391-1.968zm0 0"/></symbol><symbol overflow="visible" id="x"><path d="M2.031-.031l-.187-1.14a19.484 19.484 0 0 0-.313-1.407c-.062-.227-.125-.375-.187-.438a.225.225 0 0 0-.157-.062.358.358 0 0 0-.156.031.717.717 0 0 0-.156.125 2 2 0 0 0-.219.297L.36-2.797c.145-.207.274-.367.391-.484.125-.114.238-.192.344-.235a.991.991 0 0 1 .406-.078c.125 0 .223.016.297.047.07.031.133.086.187.156a.746.746 0 0 1 .157.266c.05.105.097.266.14.484.051.211.102.5.156.875.063.368.114.727.157 1.079.351-.438.633-.875.844-1.313.207-.438.312-.766.312-.984 0-.176-.121-.27-.36-.282l.047-.25H4.47l.14.204c-.136.312-.257.574-.359.78a15.35 15.35 0 0 1-.64 1.126c-.243.386-.493.746-.75 1.078A16.3 16.3 0 0 1 1.983.688c-.218.238-.406.41-.562.515A1.68 1.68 0 0 1 1 1.422c-.125.039-.262.062-.406.062a.98.98 0 0 1-.219-.03.86.86 0 0 1-.234-.063L.328.609h.344v.016c0 .164.078.25.234.25.133 0 .29-.078.469-.234.188-.149.406-.371.656-.672zm0 0"/></symbol><symbol overflow="visible" id="y"><path d="M.625-3.219v-.687c.531-.219 1.02-.328 1.469-.328.226 0 .441.03.64.093.196.063.352.164.47.297a.735.735 0 0 1 .187.516c0 .18-.043.336-.125.469-.086.136-.2.25-.344.343a3.12 3.12 0 0 1-.531.282v.046c.32.055.582.172.78.36a.907.907 0 0 1 .298.672c0 .242-.063.453-.188.64-.117.18-.297.32-.547.422-.242.102-.539.157-.89.157-.23 0-.453-.024-.672-.063a3.739 3.739 0 0 1-.594-.156v-.735h.453c.063.22.16.375.297.47.133.093.313.14.531.14.29 0 .508-.063.657-.188.144-.133.218-.336.218-.61 0-.28-.101-.491-.296-.64-.2-.144-.493-.218-.876-.218h-.296v-.344c.312-.008.57-.055.78-.14.208-.095.36-.204.454-.329a.792.792 0 0 0 .14-.469c0-.207-.062-.367-.187-.484-.117-.113-.293-.172-.531-.172-.2 0-.371.059-.516.172a.91.91 0 0 0-.328.484zm0 0"/></symbol></defs><use xlink:href="#a" x=".798" y="39.563"/><use xlink:href="#b" x="11.02" y="39.563"/><use xlink:href="#c" x="17.966" y="39.563"/><use xlink:href="#c" x="24.78" y="39.563"/><use xlink:href="#d" x="31.595" y="39.563"/><use xlink:href="#e" x="37.787" y="39.563"/><use xlink:href="#f" x="44.726" y="42.003"/><use xlink:href="#g" x="53.577" y="39.563"/><use xlink:href="#h" x="65.829" y="30.602"/><use xlink:href="#i" x="65.829" y="43.444"/><use xlink:href="#j" x="65.829" y="69.31"/><use xlink:href="#k" x="133.563" y="21.712"/><use xlink:href="#g" x="143.605" y="21.712"/><use xlink:href="#l" x="155.847" y="21.712"/><use xlink:href="#m" x="164.342" y="11.384"/><use xlink:href="#n" x="170.673" y="11.384"/><use xlink:href="#o" x="175.531" y="13.159"/><use xlink:href="#p" x="180.316" y="11.384"/><use xlink:href="#n" x="186.647" y="11.384"/><use xlink:href="#q" x="191.782" y="13.159"/><use xlink:href="#m" x="196.567" y="11.384"/><use xlink:href="#r" x="204.089" y="6.288"/><use xlink:href="#s" x="207.08" y="6.288"/><use xlink:href="#t" x="212.465" y="6.288"/><use xlink:href="#o" x="217.035" y="7.939"/><use xlink:href="#u" x="221.82" y="6.288"/><use xlink:href="#t" x="227.204" y="6.288"/><use xlink:href="#v" x="231.773" y="7.971"/><use xlink:href="#w" x="236.558" y="6.288"/><use xlink:href="#r" x="239.549" y="6.288"/><use xlink:href="#s" x="242.541" y="6.288"/><use xlink:href="#x" x="247.925" y="6.288"/><use xlink:href="#o" x="252.885" y="7.939"/><use xlink:href="#u" x="257.67" y="6.288"/><use xlink:href="#x" x="263.054" y="6.288"/><use xlink:href="#q" x="268.014" y="7.914"/><use xlink:href="#w" x="272.799" y="6.288"/><path d="M204.09 8.898h71.7" fill="none" stroke-width=".565" stroke="#000" stroke-miterlimit="10"/><use xlink:href="#s" x="224.811" y="15.758"/><use xlink:href="#x" x="230.195" y="15.758"/><use xlink:href="#o" x="235.155" y="17.409"/><use xlink:href="#u" x="239.94" y="15.758"/><use xlink:href="#x" x="245.324" y="15.758"/><use xlink:href="#v" x="250.284" y="17.44"/><path d="M164.344 18.297h112.644" fill="none" stroke-width=".776" stroke="#000" stroke-miterlimit="10"/><use xlink:href="#m" x="164.342" y="29.335"/><use xlink:href="#n" x="170.673" y="29.335"/><use xlink:href="#o" x="175.531" y="31.11"/><use xlink:href="#p" x="180.316" y="29.335"/><use xlink:href="#n" x="186.647" y="29.335"/><use xlink:href="#y" x="191.782" y="31.11"/><use xlink:href="#m" x="196.567" y="29.335"/><use xlink:href="#r" x="204.089" y="24.239"/><use xlink:href="#s" x="207.08" y="24.239"/><use xlink:href="#t" x="212.465" y="24.239"/><use xlink:href="#o" x="217.035" y="25.89"/><use xlink:href="#u" x="221.82" y="24.239"/><use xlink:href="#t" x="227.204" y="24.239"/><use xlink:href="#v" x="231.773" y="25.921"/><use xlink:href="#w" x="236.558" y="24.239"/><use xlink:href="#r" x="239.549" y="24.239"/><use xlink:href="#s" x="242.541" y="24.239"/><use xlink:href="#x" x="247.925" y="24.239"/><use xlink:href="#o" x="252.885" y="25.89"/><use xlink:href="#u" x="257.67" y="24.239"/><use xlink:href="#x" x="263.054" y="24.239"/><use xlink:href="#y" x="268.014" y="25.921"/><use xlink:href="#w" x="272.799" y="24.239"/><path d="M204.09 26.852h71.7" fill="none" stroke-width=".565" stroke="#000" stroke-miterlimit="10"/><use xlink:href="#s" x="224.811" y="33.709"/><use xlink:href="#x" x="230.195" y="33.709"/><use xlink:href="#o" x="235.155" y="35.359"/><use xlink:href="#u" x="239.94" y="33.709"/><use xlink:href="#x" x="245.324" y="33.709"/><use xlink:href="#v" x="250.284" y="35.391"/><use xlink:href="#z" x="278.182" y="21.712"/><use xlink:href="#A" x="74.895" y="57.413"/><use xlink:href="#g" x="85.105" y="57.413"/><use xlink:href="#l" x="97.359" y="57.413"/><use xlink:href="#B" x="105.842" y="50.408"/><use xlink:href="#m" x="109.451" y="50.408"/><use xlink:href="#C" x="115.782" y="50.408"/><use xlink:href="#o" x="120.586" y="52.183"/><use xlink:href="#p" x="125.371" y="50.408"/><use xlink:href="#C" x="131.702" y="50.408"/><use xlink:href="#q" x="136.782" y="52.183"/><use xlink:href="#D" x="141.567" y="50.408"/><path d="M105.844 54h39.332" fill="none" stroke-width=".776" stroke="#000" stroke-miterlimit="10"/><use xlink:href="#m" x="109.452" y="63.426"/><use xlink:href="#C" x="115.783" y="63.426"/><use xlink:href="#o" x="120.586" y="65.201"/><use xlink:href="#p" x="125.371" y="63.426"/><use xlink:href="#C" x="131.702" y="63.426"/><use xlink:href="#v" x="136.782" y="65.201"/><use xlink:href="#E" x="149.028" y="57.413"/><use xlink:href="#F" x="161.812" y="47.036"/><use xlink:href="#G" x="166.108" y="47.036"/><use xlink:href="#m" x="171.144" y="47.036"/><use xlink:href="#s" x="178.664" y="41.94"/><use xlink:href="#x" x="184.048" y="41.94"/><use xlink:href="#o" x="189.008" y="43.591"/><use xlink:href="#u" x="193.793" y="41.94"/><use xlink:href="#x" x="199.177" y="41.94"/><use xlink:href="#y" x="204.137" y="43.622"/><path d="M178.664 44.55h30.258" fill="none" stroke-width=".565" stroke="#000" stroke-miterlimit="10"/><use xlink:href="#s" x="178.664" y="51.41"/><use xlink:href="#x" x="184.048" y="51.41"/><use xlink:href="#o" x="189.008" y="53.06"/><use xlink:href="#u" x="193.793" y="51.41"/><use xlink:href="#x" x="199.177" y="51.41"/><use xlink:href="#v" x="204.137" y="53.092"/><use xlink:href="#H" x="210.118" y="47.036"/><use xlink:href="#F" x="214.414" y="47.036"/><use xlink:href="#m" x="218.71" y="47.036"/><use xlink:href="#n" x="225.042" y="47.036"/><use xlink:href="#o" x="229.902" y="48.811"/><use xlink:href="#p" x="234.687" y="47.036"/><use xlink:href="#n" x="241.018" y="47.036"/><use xlink:href="#q" x="246.153" y="48.811"/><use xlink:href="#m" x="250.938" y="47.036"/><use xlink:href="#r" x="258.461" y="41.94"/><use xlink:href="#s" x="261.452" y="41.94"/><use xlink:href="#t" x="266.837" y="41.94"/><g><use xlink:href="#o" x="271.406" y="43.591"/></g><g><use xlink:href="#u" x="276.191" y="41.94"/><use xlink:href="#t" x="281.575" y="41.94"/></g><g><use xlink:href="#v" x="286.144" y="43.622"/></g><g><use xlink:href="#w" x="290.929" y="41.94"/><use xlink:href="#r" x="293.92" y="41.94"/><use xlink:href="#s" x="296.912" y="41.94"/><use xlink:href="#x" x="302.296" y="41.94"/></g><g><use xlink:href="#o" x="307.256" y="43.591"/></g><g><use xlink:href="#u" x="312.041" y="41.94"/><use xlink:href="#x" x="317.425" y="41.94"/></g><g><use xlink:href="#q" x="322.386" y="43.566"/></g><g><use xlink:href="#w" x="327.171" y="41.94"/></g><path d="M258.46 44.55h71.7" fill="none" stroke-width=".565" stroke="#000" stroke-miterlimit="10"/><g><use xlink:href="#s" x="279.182" y="51.41"/><use xlink:href="#x" x="284.566" y="51.41"/></g><g><use xlink:href="#o" x="289.526" y="53.06"/></g><g><use xlink:href="#u" x="294.311" y="51.41"/><use xlink:href="#x" x="299.695" y="51.41"/></g><g><use xlink:href="#v" x="304.656" y="53.092"/></g><g><use xlink:href="#H" x="331.358" y="47.036"/></g><path d="M161.813 54h173.843" fill="none" stroke-width=".776" stroke="#000" stroke-miterlimit="10"/><g><use xlink:href="#m" x="192.411" y="65.036"/><use xlink:href="#n" x="198.742" y="65.036"/></g><g><use xlink:href="#o" x="203.601" y="66.812"/></g><g><use xlink:href="#p" x="208.386" y="65.036"/><use xlink:href="#n" x="214.717" y="65.036"/></g><g><use xlink:href="#y" x="219.851" y="66.812"/></g><g><use xlink:href="#m" x="224.636" y="65.036"/></g><g><use xlink:href="#r" x="232.159" y="59.941"/><use xlink:href="#s" x="235.15" y="59.941"/><use xlink:href="#t" x="240.535" y="59.941"/></g><g><use xlink:href="#o" x="245.104" y="61.591"/></g><g><use xlink:href="#u" x="249.889" y="59.941"/><use xlink:href="#t" x="255.273" y="59.941"/></g><g><use xlink:href="#v" x="259.842" y="61.623"/></g><g><use xlink:href="#w" x="264.627" y="59.941"/><use xlink:href="#r" x="267.618" y="59.941"/><use xlink:href="#s" x="270.61" y="59.941"/><use xlink:href="#x" x="275.994" y="59.941"/></g><g><use xlink:href="#o" x="280.955" y="61.591"/></g><g><use xlink:href="#u" x="285.74" y="59.941"/><use xlink:href="#x" x="291.124" y="59.941"/></g><g><use xlink:href="#y" x="296.084" y="61.623"/></g><g><use xlink:href="#w" x="300.869" y="59.941"/></g><path d="M232.16 62.55h71.7" fill="none" stroke-width=".565" stroke="#000" stroke-miterlimit="10"/><g><use xlink:href="#s" x="252.881" y="69.41"/><use xlink:href="#x" x="258.265" y="69.41"/></g><g><use xlink:href="#o" x="263.225" y="71.061"/></g><g><use xlink:href="#u" x="268.01" y="69.41"/><use xlink:href="#x" x="273.394" y="69.41"/></g><g><use xlink:href="#v" x="278.354" y="71.093"/></g><g><use xlink:href="#z" x="336.851" y="57.413"/></g><g><use xlink:href="#I" x="344.136" y="30.602"/></g><g><use xlink:href="#J" x="344.136" y="43.444"/></g><g><use xlink:href="#K" x="344.136" y="69.316"/></g></svg>