<svg xmlns="http://www.w3.org/2000/svg" xmlns:xlink="http://www.w3.org/1999/xlink" width="185pt" height="41pt" viewBox="0 0 185 41"><defs><symbol overflow="visible" id="a"><path d="M8.266-4.078a1.419 1.419 0 0 1-.047-.36c0-.109.015-.234.062-.484h-7.5c.063.25.063.375.063.484 0 .125 0 .235-.063.5h7.5zm0 2.625a1.332 1.332 0 0 1-.047-.36c0-.109.015-.234.062-.484h-7.5c.063.25.063.375.063.485 0 .125 0 .25-.063.5h7.5zm0 0"/></symbol><symbol overflow="visible" id="b"><path d="M4.406-9.766c-.015-.078-.031-.156-.031-.234 0-.094.016-.172.078-.375H1.375V4.141h3.078c-.062-.204-.078-.297-.078-.375 0-.079.016-.172.078-.375H2.437V-9.641h2.016zm0 0"/></symbol><symbol overflow="visible" id="c"><path d="M5.125-.094v-.484l-.75-.047c-.656-.031-.64-.031-.64-.656v-7.172l-.313-.125c-.875.469-1.61.781-2.86 1.219l.125.718h.235l1.547-.687.031-.016c.063 0-.047-.015-.047.266v5.797c0 .625.016.625-.64.656L1-.578v.625L3.125 0l2 .047zm0 0"/></symbol><symbol overflow="visible" id="d"><path d="M3.703-5.516c-.453.047-.86.063-1.156.063.172-.984.297-1.578.531-2.25l-.25-.328a7.16 7.16 0 0 1-1.094.531l-.296 2.031c-.391.203-.704.328-1.063.407l-.047.406h1l-.64 3.25C.625-1.11.53-.813.53-.5c0 .297.266.61.5.61.422 0 .922-.282 1.86-1.032.218-.172.14-.125.437-.36l-.25-.437-.672.469c-.36.25-.484.313-.625.313-.093 0-.031.046-.031-.11 0-.297.156-1.234.516-3l.14-.61h1.266l.203-.89zm0 0"/></symbol><symbol overflow="visible" id="f"><path d="M3.906 4v-14.375H.828c.063.203.078.281.078.375 0 .078-.015.156-.078.36h2.016V3.39H.828c.063.204.078.297.078.376 0 .078-.015.171-.078.375h3.078zm0 0"/></symbol><symbol overflow="visible" id="g"><path d="M2.516-3.125c0-.422-.407-.844-.844-.844-.422 0-.86.422-.86.844 0 .438.438.86.86.86.437 0 .844-.422.844-.86zm0 0"/></symbol><symbol overflow="visible" id="h"><path d="M11.234-8.531c-.328.015-.671.031-1 .031-.343 0-.671-.016-1.078-.047-.25.485-.031.172-1.047 1.906L5.172-1.594l.25.094-1.844-7.047c-.422.031-.75.047-1.094.047-.328 0-.671-.016-1.125-.047l-.062.61.469.03c.625.048.703.032.703.345a.693.693 0 0 1-.047.234L.687-1.25C.516-.625.47-.594-.327-.531l-.047.578L1.109 0C1.547 0 2 .016 2.547.047l.062-.594-.593-.047c-.391-.047-.47-.015-.47-.187 0-.125.032-.281.095-.5l1.484-5.547h-.281L4.656.219h.453l.72-1.282 2.843-4.953.625-1.03-.235-.095-.437 6.204c-.031.343-.047.28-.672.343l-.5.047-.047.594L9.156 0l1.703.047.063-.594-.578-.047C9.906-.64 9.813-.64 9.828-.89l.016-.437.484-6.344c.016-.234.078-.219.422-.234l.563-.032.062-.609zm0 0"/></symbol><symbol overflow="visible" id="k"><path d="M7.75-8.156v-.39L5.672-8.5l-2.828-.031-1.547.015c0 .672-.047 1.141-.156 2.141h.578c.062-.39.14-.688.281-1.156l.031-.125c.578-.094 1.031-.14 2.063-.14h1.86L.093-.407v.453L3.125 0l3.969.047c.031-.625.125-1.313.312-2.266h-.562l-.14.39c-.313.985-.266.766-.329.954-.453.094-.906.14-1.422.14H1.86L7.75-8.108zm0 0"/></symbol><symbol overflow="visible" id="l"><path d="M10.563 2.11h-5.11C2.531 2.11.875 2.062.516 1.046c-.235.156-.204.172-.282.203-.078.016-.156.031-.406.063.36 1.015 2.36 1.921 5.625 1.921h5.25V2.11zm0 0"/></symbol><symbol overflow="visible" id="m"><path d="M10.578 3.094v-.985H-.14v1.125h10.72zm0 0"/></symbol><symbol overflow="visible" id="n"><path d="M21.281 3.094v-.985h-5.484c-2.86 0-4.735.563-5.235 1.125-.5-.562-2.343-1.125-5.203-1.125h-5.5v1.125h5.5c3.188 0 4.844-.062 4.844.938.203-.078.297-.078.375-.078.078 0 .156 0 .375.078 0-1 1.656-.938 4.844-.938h5.484zm0 0"/></symbol><symbol overflow="visible" id="o"><path d="M10.578 1.297c-.078-.016-.172-.031-.234-.047-.094-.031-.063-.047-.281-.203-.376 1.016-2.032 1.062-4.938 1.062H-.141v1.125h5.266c3.25 0 5.25-.906 5.625-1.921zm0 0"/></symbol><symbol overflow="visible" id="u"><path d="M5.078-14.781H1.562V0h1.235v-14.031h2.469c-.079-.203-.094-.281-.094-.375 0-.078.016-.172.094-.375zm0 0"/></symbol><symbol overflow="visible" id="v"><path d="M2.672-9.938h-1.11V0h1.235v-9.938zm0 0"/></symbol><symbol overflow="visible" id="w"><path d="M5.219-.125a.648.648 0 0 1-.047-.25c0-.078.016-.156.094-.36h-2.47V-14.78H1.564V0h3.703zm0 0"/></symbol><symbol overflow="visible" id="x"><path d="M7.234-6.594c0-1.218-1.265-1.937-2.312-1.937-.547 0-1.094.031-1.64.031l-2.126-.047-.062.61.812.03c.297 0 .282-.03.282.188 0 .172-.047.532-.11.907l-.89 5.187C1-.531 1.125-.641.64-.594l-.61.031-.093.61L1.688 0l1.78.047.063-.61-.922-.03c-.312-.016-.296.015-.296-.235 0-.11 0-.188.046-.422l.97-5.813-.032.094s.078-.343.14-.578c.016-.062.047-.172.063-.203.328-.063.516-.094.75-.094 1.219 0 1.656.39 1.656 1.516 0 1.281-.718 2.203-1.765 2.203-.266 0-.5-.063-1.11-.281l.047.625c.578.281.813.344 1.172.344 1.531 0 2.984-1.532 2.984-3.157zm0 0"/></symbol><symbol overflow="visible" id="z"><path d="M4.656-.125v-14.656H.953c.078.203.094.297.094.375 0 .094-.016.172-.094.375h2.469V0h1.234zm0 0"/></symbol><symbol overflow="visible" id="A"><path d="M4.656-.125v-9.813H3.422V0h1.234zm0 0"/></symbol><symbol overflow="visible" id="B"><path d="M4.656-.125v-14.656H3.422V-.734H.953c.078.203.094.28.094.359 0 .094-.016.172-.094.375h3.703zm0 0"/></symbol><symbol overflow="visible" id="e"><path d="M4.75-.11c-.016-.187-.016-.265-.016-.39s0-.203.032-.547l-3.141.094 1.5-1.469c.938-.922 1.281-1.5 1.281-2.172 0-1.015-.906-1.781-2.14-1.781-.688 0-1.282.219-1.782.703l-.187 1.39h.547l.172-.53c.156-.516.359-.61 1-.61.843 0 1.203.344 1.203 1.094 0 .672-.36 1.234-1.453 2.297L.078-.391v.422L2.406 0l2.36.031zm0 0"/></symbol><symbol overflow="visible" id="i"><path d="M6.172-2.078c-.016-.094-.031-.188-.031-.266 0-.094.015-.187.062-.406H.516c.046.219.062.313.062.406 0 .078-.015.172-.062.39h5.687zm0 0"/></symbol><symbol overflow="visible" id="j"><path d="M4.281-.11V-.5l-.656-.031c-.531-.031-.484.015-.484-.453v-5.344l-.282-.094c-.625.313-1.312.578-2.375.906l.125.594h.22l1.25-.516h.03c.047 0-.078-.062-.078.157v4.297c0 .468.047.421-.469.453L.86-.5v.531L2.61 0l1.672.031zm0 0"/></symbol><symbol overflow="visible" id="y"><path d="M4.703-2.125c0-.422-.234-.89-.578-1.11a2.69 2.69 0 0 0-.719-.296c.531-.36.875-.875.875-1.39 0-.798-.875-1.454-1.937-1.454-.656 0-1.203.203-1.703.656L.312-4.406h.594l.219-.64c.11-.298.563-.47 1.078-.47.61 0 .969.344.969.907 0 .656-.406 1.078-1.094 1.078-.078 0-.344.203-.344.203l-.265-.094-.125.531.203.141c.39-.172.578-.203.844-.203.796 0 1.093.328 1.093 1.14 0 .907-.421 1.36-1.328 1.36-.437 0-.719-.094-1.015-.344C.906-1 .828-1.094.578-1.75l-.531.188c.234.609.312.937.375 1.468C1.078.11 1.5.172 1.875.172c.766 0 1.75-.422 2.281-1.016.328-.375.547-.86.547-1.281zm0 0"/></symbol><symbol overflow="visible" id="p"><path d="M1.5-3.984c.102 0 .203.03.297.093a.541.541 0 0 1 .11.844.538.538 0 0 1-.407.188.438.438 0 0 1-.25-.079.488.488 0 0 1-.313-.484c0-.164.067-.305.204-.422a.515.515 0 0 1 .359-.14zm2.984 0c.114 0 .22.03.313.093a.541.541 0 0 1 .11.844.538.538 0 0 1-.407.188.516.516 0 0 1-.266-.079c-.199-.093-.296-.253-.296-.484 0-.164.066-.305.203-.422a.498.498 0 0 1 .343-.14zm3 0c.114 0 .22.03.313.093a.541.541 0 0 1 .11.844.538.538 0 0 1-.407.188.469.469 0 0 1-.266-.079c-.199-.093-.296-.253-.296-.484 0-.164.066-.305.203-.422a.466.466 0 0 1 .343-.14zm0 0"/></symbol><symbol overflow="visible" id="q"><path d="M3.234-4.61a50.885 50.885 0 0 1 1.5-1.046 4.623 4.623 0 0 1-.75.062c-.687 0-1.203-.207-1.546-.625l.156-.187c.344.23.742.343 1.203.343.406 0 .906-.039 1.5-.125a7.01 7.01 0 0 1 .61-.062c.155 0 .273.04.359.11a.352.352 0 0 1 .156.296c0 .137-.106.203-.313.203-.367 0-.656.047-.875.141-.304.125-.914.492-1.828 1.094zM1.906-2.483c.125.593.41 1.015.86 1.265.363.211.93.313 1.703.313.851 0 1.547-.094 2.078-.281a1.75 1.75 0 0 1 .281-.032c.188 0 .32.047.406.14.04.063.063.126.063.188 0 .157-.09.258-.266.297-.562.149-1.343.219-2.343.219-1.012 0-1.762-.164-2.25-.5-.461-.332-.727-.844-.797-1.531zm0 0"/></symbol><symbol overflow="visible" id="r"><path d="M3.39-5.75c.126-.07.286-.164.485-.281.238-.145.379-.235.422-.266a2.081 2.081 0 0 1-1.094-.828l.188-.172c.312.305.629.492.953.563.226.054.52.093.875.125.508.043.765.183.765.421 0 .157-.105.235-.312.235 0 0-.047-.004-.14-.016A3.718 3.718 0 0 0 5-6.016c-.387 0-.875.157-1.469.47zM2.267-4.687c.03.312.132.468.312.468.04 0 .18-.05.422-.156 1.04-.406 1.758-.61 2.156-.61.489 0 .89.196 1.203.579.313.386.47.84.47 1.36 0 .98-.419 1.788-1.25 2.421-.587.45-1.384.766-2.391.953l-.079-.25c.914-.226 1.63-.57 2.141-1.031.645-.594.969-1.29.969-2.094 0-.476-.106-.867-.313-1.172-.199-.27-.433-.406-.703-.406-.262 0-.617.094-1.062.281-.387.157-.84.407-1.36.75a.483.483 0 0 1-.234.078c-.149 0-.274-.082-.375-.25-.094-.156-.14-.359-.14-.609v-.25zm0 0"/></symbol><symbol overflow="visible" id="s"><path d="M7.688-2.984c-.274.918-.649 1.62-1.125 2.109-.657.648-1.434.969-2.329.969-.699 0-1.195-.176-1.484-.531-.273-.333-.406-.864-.406-1.594 0-.875.031-1.852.094-2.938.019-.375.03-.695.03-.968 0-.258-.027-.446-.077-.563-.063-.113-.184-.207-.36-.281L2.11-7c.313.031.582.14.813.328.187.149.281.277.281.39 0 .044-.023.165-.062.36a4.693 4.693 0 0 0-.094.563c-.149 1.273-.219 2.367-.219 3.28 0 .688.113 1.142.344 1.36.207.2.578.297 1.11.297.675 0 1.304-.254 1.89-.766.531-.468.953-1.109 1.266-1.921zm0 0"/></symbol><symbol overflow="visible" id="t"><path d="M1.047-5.797c.156.281.348.422.578.422.031 0 1.04-.195 3.031-.594 1.5-.3 2.297-.453 2.39-.453.196 0 .384.055.563.156.102.075.157.164.157.266 0 .148-.106.219-.313.219h-.437c-.2 0-.387.008-.563.015-.586.063-1.07.262-1.453.594-.762.668-1.14 1.508-1.14 2.516 0 .625.195 1.117.593 1.469.29.273.695.406 1.219.406.094 0 .25-.004.469-.016.156-.008.25-.015.28-.015.22 0 .376.03.47.093.082.063.125.168.125.313 0 .168-.336.25-1 .25-.887 0-1.559-.239-2.016-.719-.406-.426-.61-1.004-.61-1.734 0-1.313.626-2.348 1.876-3.11L5.25-5.75a40.76 40.76 0 0 0-3.328.906c-.188.074-.324.11-.406.11-.125 0-.262-.094-.407-.282a1.411 1.411 0 0 1-.296-.656zm0 0"/></symbol></defs><use xlink:href="#a" x=".014" y="23.29"/><use xlink:href="#b" x="12.412" y="23.29"/><use xlink:href="#c" x="17.717" y="23.3"/><use xlink:href="#d" x="33.653" y="23.3"/><use xlink:href="#d" x="47.653" y="23.3"/><use xlink:href="#e" x="51.702" y="19.068"/><use xlink:href="#f" x="57.202" y="23.29"/><use xlink:href="#g" x="65.152" y="23.29"/><use xlink:href="#h" x="71.154" y="23.29"/><use xlink:href="#g" x="85.38" y="23.29"/><use xlink:href="#h" x="91.382" y="23.29"/><use xlink:href="#i" x="102.965" y="19.751"/><use xlink:href="#j" x="109.694" y="19.751"/><use xlink:href="#g" x="117.851" y="23.29"/><use xlink:href="#k" x="123.853" y="23.29"/><use xlink:href="#g" x="134.481" y="23.29"/><use xlink:href="#h" x="140.482" y="23.29"/><use xlink:href="#l" x="71.159" y="23.505"/><use xlink:href="#m" x="81.249" y="23.505"/><use xlink:href="#m" x="91.076" y="23.505"/><use xlink:href="#n" x="101.035" y="23.505"/><use xlink:href="#m" x="121.694" y="23.505"/><use xlink:href="#m" x="131.521" y="23.505"/><use xlink:href="#o" x="141.491" y="23.505"/><use xlink:href="#p" x="85.05" y="36.245"/><use xlink:href="#q" x="93.903" y="36.245"/><use xlink:href="#r" x="102.757" y="36.245"/><use xlink:href="#s" x="111.611" y="36.245"/><use xlink:href="#t" x="120.464" y="36.245"/><use xlink:href="#p" x="129.317" y="36.245"/><use xlink:href="#g" x="154.719" y="23.29"/><use xlink:href="#u" x="160.724" y="15.297"/><use xlink:href="#v" x="160.724" y="22.592"/><use xlink:href="#v" x="160.724" y="27.694"/><use xlink:href="#w" x="160.724" y="39.819"/><use xlink:href="#x" x="166.952" y="8.745"/><use xlink:href="#j" x="174.257" y="11.518"/><use xlink:href="#x" x="166.952" y="23.19"/><use xlink:href="#e" x="174.257" y="25.964"/><g><use xlink:href="#x" x="166.952" y="37.636"/></g><g><use xlink:href="#y" x="174.257" y="40.41"/></g><g><use xlink:href="#z" x="179.757" y="15.297"/></g><g><use xlink:href="#A" x="179.757" y="22.592"/></g><g><use xlink:href="#A" x="179.757" y="27.694"/></g><g><use xlink:href="#B" x="179.757" y="39.819"/></g></svg>