<svg xmlns:xlink="http://www.w3.org/1999/xlink" width="131ex" height="12.833ex" style="vertical-align: -5.833ex; margin-left: 0ex; margin-right: 0ex; margin-bottom: 1px; margin-top: 1px;" viewBox="0 -2994.8 56371.8 5489.7" xmlns="http://www.w3.org/2000/svg">
<defs>
<path stroke-width="10" id="E1-MJMAIN-5B" d="M118 -250V750H255V710H158V-210H255V-250H118Z"></path>
<path stroke-width="10" id="E1-MJMAIN-31" d="M213 578L200 573Q186 568 160 563T102 556H83V602H102Q149 604 189 617T245 641T273 663Q275 666 285 666Q294 666 302 660V361L303 61Q310 54 315 52T339 48T401 46H427V0H416Q395 3 257 3Q121 3 100 0H88V46H114Q136 46 152 46T177 47T193 50T201 52T207 57T213 61V578Z"></path>
<path stroke-width="10" id="E1-MJMAIN-30" d="M96 585Q152 666 249 666Q297 666 345 640T423 548Q460 465 460 320Q460 165 417 83Q397 41 362 16T301 -15T250 -22Q224 -22 198 -16T137 16T82 83Q39 165 39 320Q39 494 96 585ZM321 597Q291 629 250 629Q208 629 178 597Q153 571 145 525T137 333Q137 175 145 125T181 46Q209 16 250 16Q290 16 318 46Q347 76 354 130T362 333Q362 478 354 524T321 597Z"></path>
<path stroke-width="10" id="E1-MJMAIN-2212" d="M84 237T84 250T98 270H679Q694 262 694 250T679 230H98Q84 237 84 250Z"></path>
<path stroke-width="10" id="E1-MJMAIN-28" d="M94 250Q94 319 104 381T127 488T164 576T202 643T244 695T277 729T302 750H315H319Q333 750 333 741Q333 738 316 720T275 667T226 581T184 443T167 250T184 58T225 -81T274 -167T316 -220T333 -241Q333 -250 318 -250H315H302L274 -226Q180 -141 137 -14T94 250Z"></path>
<path stroke-width="10" id="E1-MJMATHI-7A" d="M347 338Q337 338 294 349T231 360Q211 360 197 356T174 346T162 335T155 324L153 320Q150 317 138 317Q117 317 117 325Q117 330 120 339Q133 378 163 406T229 440Q241 442 246 442Q271 442 291 425T329 392T367 375Q389 375 411 408T434 441Q435 442 449 442H462Q468 436 468 434Q468 430 463 420T449 399T432 377T418 358L411 349Q368 298 275 214T160 106L148 94L163 93Q185 93 227 82T290 71Q328 71 360 90T402 140Q406 149 409 151T424 153Q443 153 443 143Q443 138 442 134Q425 72 376 31T278 -11Q252 -11 232 6T193 40T155 57Q111 57 76 -3Q70 -11 59 -11H54H41Q35 -5 35 -2Q35 13 93 84Q132 129 225 214T340 322Q352 338 347 338Z"></path>
<path stroke-width="10" id="E1-MJMAIN-29" d="M60 749L64 750Q69 750 74 750H86L114 726Q208 641 251 514T294 250Q294 182 284 119T261 12T224 -76T186 -143T145 -194T113 -227T90 -246Q87 -249 86 -250H74Q66 -250 63 -250T58 -247T55 -238Q56 -237 66 -225Q221 -64 221 250T66 725Q56 737 55 738Q55 746 60 749Z"></path>
<path stroke-width="10" id="E1-MJMAIN-32" d="M109 429Q82 429 66 447T50 491Q50 562 103 614T235 666Q326 666 387 610T449 465Q449 422 429 383T381 315T301 241Q265 210 201 149L142 93L218 92Q375 92 385 97Q392 99 409 186V189H449V186Q448 183 436 95T421 3V0H50V19V31Q50 38 56 46T86 81Q115 113 136 137Q145 147 170 174T204 211T233 244T261 278T284 308T305 340T320 369T333 401T340 431T343 464Q343 527 309 573T212 619Q179 619 154 602T119 569T109 550Q109 549 114 549Q132 549 151 535T170 489Q170 464 154 447T109 429Z"></path>
<path stroke-width="10" id="E1-MJMAIN-22C5" d="M78 250Q78 274 95 292T138 310Q162 310 180 294T199 251Q199 226 182 208T139 190T96 207T78 250Z"></path>
<path stroke-width="10" id="E1-MJMAIN-33" d="M127 463Q100 463 85 480T69 524Q69 579 117 622T233 665Q268 665 277 664Q351 652 390 611T430 522Q430 470 396 421T302 350L299 348Q299 347 308 345T337 336T375 315Q457 262 457 175Q457 96 395 37T238 -22Q158 -22 100 21T42 130Q42 158 60 175T105 193Q133 193 151 175T169 130Q169 119 166 110T159 94T148 82T136 74T126 70T118 67L114 66Q165 21 238 21Q293 21 321 74Q338 107 338 175V195Q338 290 274 322Q259 328 213 329L171 330L168 332Q166 335 166 348Q166 366 174 366Q202 366 232 371Q266 376 294 413T322 525V533Q322 590 287 612Q265 626 240 626Q208 626 181 615T143 592T132 580H135Q138 579 143 578T153 573T165 566T175 555T183 540T186 520Q186 498 172 481T127 463Z"></path>
<path stroke-width="10" id="E1-MJMAIN-5D" d="M22 710V750H159V-250H22V-210H119V710H22Z"></path>
<path stroke-width="10" id="E1-MJSZ4-23A1" d="M319 -645V1154H666V1070H403V-645H319Z"></path>
<path stroke-width="10" id="E1-MJSZ4-23A3" d="M319 -644V1155H403V-560H666V-644H319Z"></path>
<path stroke-width="10" id="E1-MJSZ4-23A2" d="M319 0V602H403V0H319Z"></path>
<path stroke-width="10" id="E1-MJSZ4-23A4" d="M0 1070V1154H347V-645H263V1070H0Z"></path>
<path stroke-width="10" id="E1-MJSZ4-23A6" d="M263 -560V1155H347V-644H0V-560H263Z"></path>
<path stroke-width="10" id="E1-MJSZ4-23A5" d="M263 0V602H347V0H263Z"></path>
<path stroke-width="10" id="E1-MJMATHI-50" d="M287 628Q287 635 230 637Q206 637 199 638T192 648Q192 649 194 659Q200 679 203 681T397 683Q587 682 600 680Q664 669 707 631T751 530Q751 453 685 389Q616 321 507 303Q500 302 402 301H307L277 182Q247 66 247 59Q247 55 248 54T255 50T272 48T305 46H336Q342 37 342 35Q342 19 335 5Q330 0 319 0Q316 0 282 1T182 2Q120 2 87 2T51 1Q33 1 33 11Q33 13 36 25Q40 41 44 43T67 46Q94 46 127 49Q141 52 146 61Q149 65 218 339T287 628ZM645 554Q645 567 643 575T634 597T609 619T560 635Q553 636 480 637Q463 637 445 637T416 636T404 636Q391 635 386 627Q384 621 367 550T332 412T314 344Q314 342 395 342H407H430Q542 342 590 392Q617 419 631 471T645 554Z"></path>
<path stroke-width="10" id="E1-MJMAIN-34" d="M462 0Q444 3 333 3Q217 3 199 0H190V46H221Q241 46 248 46T265 48T279 53T286 61Q287 63 287 115V165H28V211L179 442Q332 674 334 675Q336 677 355 677H373L379 671V211H471V165H379V114Q379 73 379 66T385 54Q393 47 442 46H471V0H462ZM293 211V545L74 212L183 211H293Z"></path>
<path stroke-width="10" id="E1-MJMAIN-3D" d="M56 347Q56 360 70 367H707Q722 359 722 347Q722 336 708 328L390 327H72Q56 332 56 347ZM56 153Q56 168 72 173H708Q722 163 722 153Q722 140 707 133H70Q56 140 56 153Z"></path>
<path stroke-width="10" id="E1-MJMAIN-2B" d="M56 237T56 250T70 270H369V420L370 570Q380 583 389 583Q402 583 409 568V270H707Q722 262 722 250T707 230H409V-68Q401 -82 391 -82H389H387Q375 -82 369 -68V230H70Q56 237 56 250Z"></path>
</defs>
<g stroke="currentColor" fill="currentColor" stroke-width="0" transform="matrix(1 0 0 -1 0 0)">
<g transform="translate(0,2980)">
 <use xlink:href="#E1-MJSZ4-23A1" x="0" y="-1164"></use>
<g transform="translate(0,-3661.863230412376) scale(1,3.092913775183621)">
 <use xlink:href="#E1-MJSZ4-23A2"></use>
</g>
 <use xlink:href="#E1-MJSZ4-23A3" x="0" y="-4808"></use>
</g>
<g transform="translate(839,0)">
<g transform="translate(-11,0)">
 <use xlink:href="#E1-MJMAIN-31" x="1864" y="2180"></use>
<g transform="translate(228,780)">
 <use xlink:href="#E1-MJMAIN-2212" x="0" y="0"></use>
 <use xlink:href="#E1-MJMAIN-28" x="783" y="0"></use>
 <use xlink:href="#E1-MJMATHI-7A" x="1177" y="0"></use>
 <use xlink:href="#E1-MJMAIN-2212" x="1872" y="0"></use>
 <use xlink:href="#E1-MJMAIN-31" x="2877" y="0"></use>
 <use xlink:href="#E1-MJMAIN-29" x="3382" y="0"></use>
</g>
<g transform="translate(391,-720)">
 <use xlink:href="#E1-MJMAIN-28" x="0" y="0"></use>
 <use xlink:href="#E1-MJMATHI-7A" x="394" y="0"></use>
 <use xlink:href="#E1-MJMAIN-2212" x="1089" y="0"></use>
 <use xlink:href="#E1-MJMAIN-31" x="2094" y="0"></use>
<g transform="translate(2599,0)">
 <use xlink:href="#E1-MJMAIN-29" x="0" y="0"></use>
 <use transform="scale(0.707)" xlink:href="#E1-MJMAIN-32" x="557" y="513"></use>
</g>
</g>
<g transform="translate(0,-2221)">
 <use xlink:href="#E1-MJMAIN-2212" x="0" y="0"></use>
 <use xlink:href="#E1-MJMAIN-28" x="783" y="0"></use>
 <use xlink:href="#E1-MJMATHI-7A" x="1177" y="0"></use>
 <use xlink:href="#E1-MJMAIN-2212" x="1872" y="0"></use>
 <use xlink:href="#E1-MJMAIN-31" x="2877" y="0"></use>
<g transform="translate(3382,0)">
 <use xlink:href="#E1-MJMAIN-29" x="0" y="0"></use>
 <use transform="scale(0.707)" xlink:href="#E1-MJMAIN-33" x="557" y="513"></use>
</g>
</g>
</g>
<g transform="translate(5223,0)">
 <use xlink:href="#E1-MJMAIN-30" x="2852" y="2180"></use>
 <use xlink:href="#E1-MJMATHI-7A" x="2868" y="780"></use>
<g transform="translate(0,-720)">
 <use xlink:href="#E1-MJMAIN-2212" x="0" y="0"></use>
 <use xlink:href="#E1-MJMAIN-32" x="783" y="0"></use>
 <use xlink:href="#E1-MJMAIN-22C5" x="1510" y="0"></use>
 <use xlink:href="#E1-MJMAIN-28" x="2015" y="0"></use>
 <use xlink:href="#E1-MJMATHI-7A" x="2409" y="0"></use>
 <use xlink:href="#E1-MJMAIN-2212" x="3104" y="0"></use>
 <use xlink:href="#E1-MJMAIN-31" x="4109" y="0"></use>
 <use xlink:href="#E1-MJMAIN-29" x="4614" y="0"></use>
 <use xlink:href="#E1-MJMAIN-22C5" x="5231" y="0"></use>
 <use xlink:href="#E1-MJMATHI-7A" x="5736" y="0"></use>
</g>
<g transform="translate(162,-2221)">
 <use xlink:href="#E1-MJMAIN-33" x="0" y="0"></use>
 <use xlink:href="#E1-MJMAIN-22C5" x="727" y="0"></use>
 <use xlink:href="#E1-MJMAIN-28" x="1232" y="0"></use>
 <use xlink:href="#E1-MJMATHI-7A" x="1626" y="0"></use>
 <use xlink:href="#E1-MJMAIN-2212" x="2321" y="0"></use>
 <use xlink:href="#E1-MJMAIN-31" x="3326" y="0"></use>
<g transform="translate(3831,0)">
 <use xlink:href="#E1-MJMAIN-29" x="0" y="0"></use>
 <use transform="scale(0.707)" xlink:href="#E1-MJMAIN-32" x="557" y="513"></use>
</g>
 <use xlink:href="#E1-MJMAIN-22C5" x="4905" y="0"></use>
 <use xlink:href="#E1-MJMATHI-7A" x="5410" y="0"></use>
</g>
</g>
<g transform="translate(12432,0)">
 <use xlink:href="#E1-MJMAIN-30" x="3081" y="2180"></use>
 <use xlink:href="#E1-MJMAIN-30" x="3081" y="780"></use>
<g transform="translate(2868,-720)">
 <use xlink:href="#E1-MJMATHI-7A" x="0" y="0"></use>
 <use transform="scale(0.707)" xlink:href="#E1-MJMAIN-32" x="670" y="513"></use>
</g>
<g transform="translate(0,-2221)">
 <use xlink:href="#E1-MJMAIN-2212" x="0" y="0"></use>
 <use xlink:href="#E1-MJMAIN-33" x="783" y="0"></use>
 <use xlink:href="#E1-MJMAIN-22C5" x="1510" y="0"></use>
 <use xlink:href="#E1-MJMAIN-28" x="2015" y="0"></use>
 <use xlink:href="#E1-MJMATHI-7A" x="2409" y="0"></use>
 <use xlink:href="#E1-MJMAIN-2212" x="3104" y="0"></use>
 <use xlink:href="#E1-MJMAIN-31" x="4109" y="0"></use>
 <use xlink:href="#E1-MJMAIN-29" x="4614" y="0"></use>
 <use xlink:href="#E1-MJMAIN-22C5" x="5231" y="0"></use>
<g transform="translate(5736,0)">
 <use xlink:href="#E1-MJMATHI-7A" x="0" y="0"></use>
 <use transform="scale(0.707)" xlink:href="#E1-MJMAIN-32" x="670" y="513"></use>
</g>
</g>
</g>
<g transform="translate(20099,0)">
 <use xlink:href="#E1-MJMAIN-30" x="213" y="2180"></use>
 <use xlink:href="#E1-MJMAIN-30" x="213" y="780"></use>
 <use xlink:href="#E1-MJMAIN-30" x="213" y="-720"></use>
<g transform="translate(0,-2221)">
 <use xlink:href="#E1-MJMATHI-7A" x="0" y="0"></use>
 <use transform="scale(0.707)" xlink:href="#E1-MJMAIN-33" x="670" y="513"></use>
</g>
</g>
</g>
<g transform="translate(22036,2980)">
 <use xlink:href="#E1-MJSZ4-23A4" x="0" y="-1164"></use>
<g transform="translate(0,-3661.863230412376) scale(1,3.092913775183621)">
 <use xlink:href="#E1-MJSZ4-23A5"></use>
</g>
 <use xlink:href="#E1-MJSZ4-23A6" x="0" y="-4808"></use>
</g>
 <use xlink:href="#E1-MJMAIN-22C5" x="22931" y="0"></use>
<g transform="translate(23436,0)">
<g transform="translate(0,2850)">
 <use xlink:href="#E1-MJSZ4-23A1" x="0" y="-1164"></use>
<g transform="translate(0,-3404.279742765273) scale(1,2.672025723472669)">
 <use xlink:href="#E1-MJSZ4-23A2"></use>
</g>
 <use xlink:href="#E1-MJSZ4-23A3" x="0" y="-4546"></use>
</g>
<g transform="translate(839,0)">
<g transform="translate(-11,0)">
<g transform="translate(0,2050)">
 <use xlink:href="#E1-MJMATHI-50" x="0" y="0"></use>
 <use transform="scale(0.707)" xlink:href="#E1-MJMAIN-31" x="914" y="-213"></use>
</g>
<g transform="translate(0,650)">
 <use xlink:href="#E1-MJMATHI-50" x="0" y="0"></use>
 <use transform="scale(0.707)" xlink:href="#E1-MJMAIN-32" x="914" y="-213"></use>
</g>
<g transform="translate(0,-750)">
 <use xlink:href="#E1-MJMATHI-50" x="0" y="0"></use>
 <use transform="scale(0.707)" xlink:href="#E1-MJMAIN-33" x="914" y="-213"></use>
</g>
<g transform="translate(0,-2150)">
 <use xlink:href="#E1-MJMATHI-50" x="0" y="0"></use>
 <use transform="scale(0.707)" xlink:href="#E1-MJMAIN-34" x="914" y="-213"></use>
</g>
</g>
</g>
<g transform="translate(2099,2850)">
 <use xlink:href="#E1-MJSZ4-23A4" x="0" y="-1164"></use>
<g transform="translate(0,-3404.279742765273) scale(1,2.672025723472669)">
 <use xlink:href="#E1-MJSZ4-23A5"></use>
</g>
 <use xlink:href="#E1-MJSZ4-23A6" x="0" y="-4546"></use>
</g>
</g>
 <use xlink:href="#E1-MJMAIN-3D" x="26485" y="0"></use>
<g transform="translate(27546,0)">
<g transform="translate(0,2980)">
 <use xlink:href="#E1-MJSZ4-23A1" x="0" y="-1164"></use>
<g transform="translate(0,-3661.863230412376) scale(1,3.092913775183621)">
 <use xlink:href="#E1-MJSZ4-23A2"></use>
</g>
 <use xlink:href="#E1-MJSZ4-23A3" x="0" y="-4808"></use>
</g>
<g transform="translate(839,0)">
<g transform="translate(-11,0)">
<g transform="translate(13026,2180)">
 <use xlink:href="#E1-MJMATHI-50" x="0" y="0"></use>
 <use transform="scale(0.707)" xlink:href="#E1-MJMAIN-31" x="914" y="-213"></use>
</g>
<g transform="translate(9400,780)">
 <use xlink:href="#E1-MJMATHI-7A" x="0" y="0"></use>
 <use xlink:href="#E1-MJMAIN-22C5" x="695" y="0"></use>
<g transform="translate(1200,0)">
 <use xlink:href="#E1-MJMATHI-50" x="0" y="0"></use>
 <use transform="scale(0.707)" xlink:href="#E1-MJMAIN-32" x="914" y="-213"></use>
</g>
 <use xlink:href="#E1-MJMAIN-2212" x="2526" y="0"></use>
 <use xlink:href="#E1-MJMAIN-28" x="3531" y="0"></use>
 <use xlink:href="#E1-MJMATHI-7A" x="3925" y="0"></use>
 <use xlink:href="#E1-MJMAIN-2212" x="4621" y="0"></use>
 <use xlink:href="#E1-MJMAIN-31" x="5626" y="0"></use>
 <use xlink:href="#E1-MJMAIN-29" x="6131" y="0"></use>
 <use xlink:href="#E1-MJMAIN-22C5" x="6747" y="0"></use>
<g transform="translate(7252,0)">
 <use xlink:href="#E1-MJMATHI-50" x="0" y="0"></use>
 <use transform="scale(0.707)" xlink:href="#E1-MJMAIN-31" x="914" y="-213"></use>
</g>
</g>
<g transform="translate(4700,-720)">
 <use xlink:href="#E1-MJMATHI-7A" x="0" y="0"></use>
 <use transform="scale(0.707)" xlink:href="#E1-MJMAIN-32" x="670" y="513"></use>
 <use xlink:href="#E1-MJMAIN-22C5" x="1153" y="0"></use>
<g transform="translate(1658,0)">
 <use xlink:href="#E1-MJMATHI-50" x="0" y="0"></use>
 <use transform="scale(0.707)" xlink:href="#E1-MJMAIN-33" x="914" y="-213"></use>
</g>
 <use xlink:href="#E1-MJMAIN-2212" x="2984" y="0"></use>
 <use xlink:href="#E1-MJMAIN-32" x="3990" y="0"></use>
 <use xlink:href="#E1-MJMAIN-22C5" x="4717" y="0"></use>
 <use xlink:href="#E1-MJMATHI-7A" x="5222" y="0"></use>
 <use xlink:href="#E1-MJMAIN-22C5" x="5917" y="0"></use>
 <use xlink:href="#E1-MJMAIN-28" x="6422" y="0"></use>
 <use xlink:href="#E1-MJMATHI-7A" x="6816" y="0"></use>
 <use xlink:href="#E1-MJMAIN-2212" x="7512" y="0"></use>
 <use xlink:href="#E1-MJMAIN-31" x="8517" y="0"></use>
 <use xlink:href="#E1-MJMAIN-29" x="9022" y="0"></use>
 <use xlink:href="#E1-MJMAIN-22C5" x="9638" y="0"></use>
<g transform="translate(10143,0)">
 <use xlink:href="#E1-MJMATHI-50" x="0" y="0"></use>
 <use transform="scale(0.707)" xlink:href="#E1-MJMAIN-32" x="914" y="-213"></use>
</g>
 <use xlink:href="#E1-MJMAIN-2B" x="11470" y="0"></use>
 <use xlink:href="#E1-MJMAIN-28" x="12475" y="0"></use>
 <use xlink:href="#E1-MJMATHI-7A" x="12869" y="0"></use>
 <use xlink:href="#E1-MJMAIN-2212" x="13564" y="0"></use>
 <use xlink:href="#E1-MJMAIN-31" x="14569" y="0"></use>
<g transform="translate(15074,0)">
 <use xlink:href="#E1-MJMAIN-29" x="0" y="0"></use>
 <use transform="scale(0.707)" xlink:href="#E1-MJMAIN-32" x="557" y="513"></use>
</g>
 <use xlink:href="#E1-MJMAIN-22C5" x="16148" y="0"></use>
<g transform="translate(16653,0)">
 <use xlink:href="#E1-MJMATHI-50" x="0" y="0"></use>
 <use transform="scale(0.707)" xlink:href="#E1-MJMAIN-31" x="914" y="-213"></use>
</g>
</g>
<g transform="translate(0,-2221)">
 <use xlink:href="#E1-MJMATHI-7A" x="0" y="0"></use>
 <use transform="scale(0.707)" xlink:href="#E1-MJMAIN-33" x="670" y="513"></use>
 <use xlink:href="#E1-MJMAIN-22C5" x="1153" y="0"></use>
<g transform="translate(1658,0)">
 <use xlink:href="#E1-MJMATHI-50" x="0" y="0"></use>
 <use transform="scale(0.707)" xlink:href="#E1-MJMAIN-34" x="914" y="-213"></use>
</g>
 <use xlink:href="#E1-MJMAIN-2212" x="2984" y="0"></use>
 <use xlink:href="#E1-MJMAIN-33" x="3990" y="0"></use>
 <use xlink:href="#E1-MJMAIN-22C5" x="4717" y="0"></use>
<g transform="translate(5222,0)">
 <use xlink:href="#E1-MJMATHI-7A" x="0" y="0"></use>
 <use transform="scale(0.707)" xlink:href="#E1-MJMAIN-32" x="670" y="513"></use>
</g>
 <use xlink:href="#E1-MJMAIN-22C5" x="6375" y="0"></use>
 <use xlink:href="#E1-MJMAIN-28" x="6880" y="0"></use>
 <use xlink:href="#E1-MJMATHI-7A" x="7274" y="0"></use>
 <use xlink:href="#E1-MJMAIN-2212" x="7970" y="0"></use>
 <use xlink:href="#E1-MJMAIN-31" x="8975" y="0"></use>
 <use xlink:href="#E1-MJMAIN-29" x="9480" y="0"></use>
 <use xlink:href="#E1-MJMAIN-22C5" x="10096" y="0"></use>
<g transform="translate(10601,0)">
 <use xlink:href="#E1-MJMATHI-50" x="0" y="0"></use>
 <use transform="scale(0.707)" xlink:href="#E1-MJMAIN-33" x="914" y="-213"></use>
</g>
 <use xlink:href="#E1-MJMAIN-2B" x="11928" y="0"></use>
 <use xlink:href="#E1-MJMAIN-33" x="12933" y="0"></use>
 <use xlink:href="#E1-MJMAIN-22C5" x="13660" y="0"></use>
 <use xlink:href="#E1-MJMATHI-7A" x="14165" y="0"></use>
 <use xlink:href="#E1-MJMAIN-22C5" x="14861" y="0"></use>
 <use xlink:href="#E1-MJMAIN-28" x="15366" y="0"></use>
 <use xlink:href="#E1-MJMATHI-7A" x="15760" y="0"></use>
 <use xlink:href="#E1-MJMAIN-2212" x="16455" y="0"></use>
 <use xlink:href="#E1-MJMAIN-31" x="17460" y="0"></use>
<g transform="translate(17965,0)">
 <use xlink:href="#E1-MJMAIN-29" x="0" y="0"></use>
 <use transform="scale(0.707)" xlink:href="#E1-MJMAIN-32" x="557" y="513"></use>
</g>
 <use xlink:href="#E1-MJMAIN-22C5" x="19039" y="0"></use>
<g transform="translate(19544,0)">
 <use xlink:href="#E1-MJMATHI-50" x="0" y="0"></use>
 <use transform="scale(0.707)" xlink:href="#E1-MJMAIN-32" x="914" y="-213"></use>
</g>
 <use xlink:href="#E1-MJMAIN-2212" x="20870" y="0"></use>
 <use xlink:href="#E1-MJMAIN-28" x="21875" y="0"></use>
 <use xlink:href="#E1-MJMATHI-7A" x="22269" y="0"></use>
 <use xlink:href="#E1-MJMAIN-2212" x="22964" y="0"></use>
 <use xlink:href="#E1-MJMAIN-31" x="23970" y="0"></use>
<g transform="translate(24475,0)">
 <use xlink:href="#E1-MJMAIN-29" x="0" y="0"></use>
 <use transform="scale(0.707)" xlink:href="#E1-MJMAIN-33" x="557" y="513"></use>
</g>
 <use xlink:href="#E1-MJMAIN-22C5" x="25548" y="0"></use>
<g transform="translate(26053,0)">
 <use xlink:href="#E1-MJMATHI-50" x="0" y="0"></use>
 <use transform="scale(0.707)" xlink:href="#E1-MJMAIN-31" x="914" y="-213"></use>
</g>
</g>
</g>
</g>
<g transform="translate(28153,2980)">
 <use xlink:href="#E1-MJSZ4-23A4" x="0" y="-1164"></use>
<g transform="translate(0,-3661.863230412376) scale(1,3.092913775183621)">
 <use xlink:href="#E1-MJSZ4-23A5"></use>
</g>
 <use xlink:href="#E1-MJSZ4-23A6" x="0" y="-4808"></use>
</g>
</g>
</g>
</svg>