<svg xmlns="http://www.w3.org/2000/svg" xmlns:xlink="http://www.w3.org/1999/xlink" width="254pt" height="60" viewBox="0 0 254 45"><defs><symbol overflow="visible" id="a"><path d="M5.89-6.906c-.03-.063-.062-.14-.093-.219-.031-.078-.031-.172-.031-.234-1.672.437-2.75 1.687-2.75 3.78V0h.953v-3.578c0-1.719.547-2.953 1.922-3.328zm0 0"/></symbol><symbol overflow="visible" id="b"><path d="M3.969 0v-7.125h-.953V0zm0 0"/></symbol><symbol overflow="visible" id="c"><path d="M3.969 0v-3.578c0-1.922-.64-3.094-1.656-3.563 1.015-.468 1.656-1.64 1.656-3.562v-3.563h-.953v3.563c0 2.078-.5 3.328-1.875 3.328a.648.648 0 0 1 0 .484c1.375 0 1.875 1.25 1.875 3.313V0zm0 0"/></symbol><symbol overflow="visible" id="d"><path d="M5.89-.469C4.517-.829 3.97-2.063 3.97-3.797v-3.562h-.953v3.562c0 2.094 1.078 3.344 2.75 3.797 0-.078 0-.172.03-.234.032-.094.063-.157.095-.235zm0 0"/></symbol><symbol overflow="visible" id="e"><path d="M6.14-1.016l-.109-.218-.312.203c-.36.234-.61.36-.735.36-.078 0-.156-.11-.156-.235 0-.063.016-.188.031-.235l.782-3.312a4.47 4.47 0 0 0 .125-.875c0-.281-.125-.438-.36-.438-.5 0-1.328.454-2.031 1.11-.453.422-.797.828-1.422 1.703l.469-1.922c.047-.219.062-.36.062-.484 0-.266-.093-.407-.265-.407-.266 0-.719.266-1.594.891l-.344.234.094.235.375-.25c.438-.282.484-.297.563-.297.14 0 .218.125.218.297 0 .61-.484 2.922-.984 4.625l.094.14c.296-.078.562-.156.828-.203.234-1.515.484-2.281 1.031-3.11.656-1 1.547-1.75 2.078-1.75.125 0 .203.11.203.298 0 .203-.031.453-.125.843L4.031-1.28c-.11.437-.156.718-.156.906 0 .297.125.484.36.484.312 0 .734-.25 1.906-1.125zm0 0"/></symbol><symbol overflow="visible" id="f"><path d="M4.906-3.953c0-1.125-.593-1.813-1.578-1.813-.515 0-1.078.204-1.625.594-.969.688-1.5 1.89-1.5 3.36C.203-.548.734.125 1.734.125c.657 0 1.375-.297 1.907-.813.75-.703 1.265-2.062 1.265-3.265zM4-3.766c0 1.141-.36 2.422-.89 3.047-.22.25-.532.39-.891.39-.703 0-1.11-.53-1.11-1.484 0-1.343.47-2.812 1.047-3.296.156-.125.438-.204.719-.204.734 0 1.125.547 1.125 1.547zm0 0"/></symbol><symbol overflow="visible" id="g"><path d="M4.594-5.688c-.14-.062-.188-.078-.25-.078-.36 0-.735.297-1.172.907-.406.578-.813 1.156-1.11 1.796l.297-1.5c.063-.265.157-.546.157-.812 0-.25-.094-.39-.282-.39-.25 0-.703.25-1.593.89l-.329.234.079.235.39-.25c.328-.203.469-.266.563-.266.125 0 .203.11.203.266 0 .687-.5 3.156-.984 4.687L.688.11c.25-.078.515-.14.796-.187L1.797-1.5c.219-1 .484-1.625 1.016-2.313.406-.53.718-.78.984-.78.187 0 .297.062.437.234h.172c.032-.454.094-.844.188-1.329zm0 0"/></symbol><symbol overflow="visible" id="h"><path d="M8.844-1.016l-.125-.218-.297.203c-.36.234-.61.36-.735.36-.078 0-.156-.11-.156-.235 0-.125.016-.235.078-.485l.907-3.546a2.7 2.7 0 0 0 .078-.485c0-.203-.125-.344-.313-.344-.344 0-.797.22-1.531.735C6-4.5 5.578-4.078 5-3.25l.36-1.64a3.63 3.63 0 0 0 .077-.5c0-.235-.125-.376-.312-.376-.36 0-.906.266-1.563.766-.53.406-.765.656-1.546 1.719l.406-1.594c.047-.188.062-.375.062-.516 0-.234-.109-.375-.265-.375-.266 0-.719.25-1.594.891l-.344.234.094.235.375-.25c.438-.282.484-.297.563-.297.14 0 .218.125.218.297 0 .61-.484 2.922-.984 4.625l.031.14.828-.187.25-1.219c.297-1.328.61-2.031 1.266-2.75.515-.547 1.047-.906 1.375-.906.094 0 .14.094.14.25 0 .422-.25 1.781-.75 3.875l-.203.797.063.14.828-.187.25-1.266c.188-.968.594-1.875 1.125-2.453C6.406-4.53 7-4.953 7.39-4.953c.094 0 .157.11.157.297 0 .297-.016.453-.297 1.5l-.516 1.875c-.093.343-.156.64-.156.906 0 .297.125.484.36.484.312 0 .734-.25 1.906-1.125zm0 0"/></symbol><symbol overflow="visible" id="i"><path d="M4.86-1.016l-.094-.25c-.079.079-.094.079-.157.125-.375.329-.562.438-.734.438-.125 0-.188-.094-.188-.281 0-.063 0-.094.016-.125l1.11-4.532-.125-.109-.391.219c-.469-.188-.703-.235-1.016-.235-.344 0-.578.063-.906.22-.75.374-1.125.734-1.438 1.312C.422-3.172.047-1.75.047-.781c0 .5.187.906.406.906.25 0 .688-.25 1.14-.625.516-.438.985-1 1.641-1.938L2.891-.921a2.882 2.882 0 0 0-.063.61c0 .28.094.437.281.437.266 0 .766-.328 1.75-1.14zM3.811-4.953c-.265 1.281-.484 1.906-.89 2.516-.656 1-1.406 1.734-1.797 1.734-.14 0-.219-.156-.219-.485 0-.765.313-2.093.735-3.078.28-.687.578-.906 1.156-.906.281 0 .5.047 1.015.219zm0 0"/></symbol><symbol overflow="visible" id="j"><path d="M3-8.625l-.14-.14c-.626.312-1.047.421-1.922.5l-.047.25h.578c.281 0 .406.093.406.265 0 .156-.047.438-.063.578L.657-1.578C.484-.953.437-.625.437-.36c0 .28.126.468.344.468.313 0 .766-.265 1.922-1.125l-.125-.218-.312.203c-.36.25-.61.36-.72.36-.093 0-.155-.11-.155-.235 0-.156.03-.297.062-.438zm0 0"/></symbol><symbol overflow="visible" id="l"><path d="M4.11-7.61a.735.735 0 0 1-.188-.14c-.063-.063-.11-.11-.14-.188-1.47 1.47-2.345 3.032-2.345 4.563v.781c0 1.516.875 3.078 2.344 4.547a.735.735 0 0 1 .14-.187.735.735 0 0 1 .188-.141C2.781.281 2.156-1.203 2.156-2.594v-.781c0-1.39.625-2.89 1.953-4.234zm0 0"/></symbol><symbol overflow="visible" id="m"><path d="M3.703-5.266c-.453.047-.86.079-1.312.079.187-1.125.328-1.704.53-2.36l-.124-.172c-.235.14-.563.282-.938.422l-.296 2.031c-.516.25-.829.391-1.047.454l-.032.156H1.5L.828-1.281c-.062.297-.156.593-.156.906 0 .297.125.484.36.484.421 0 .827-.234 1.765-1 .219-.156.14-.109.375-.296l-.125-.22-.531.376c-.36.25-.594.36-.735.36-.093 0-.156-.095-.156-.235 0-.313.14-1.25.516-3.016l.156-.734h1.281zm0 0"/></symbol><symbol overflow="visible" id="n"><path d="M3.64-2.594v-.781c0-1.531-.874-3.094-2.343-4.563-.047.079-.094.125-.156.188a.427.427 0 0 1-.188.14c1.328 1.344 1.969 2.844 1.969 4.235v.781c0 1.39-.64 2.875-1.969 4.219.078.031.14.078.188.14.062.063.109.126.156.188C2.766.484 3.64-1.078 3.64-2.594zm0 0"/></symbol><symbol overflow="visible" id="o"><path d="M8.125-3.938c-.016-.124-.031-.25-.031-.359 0-.125.015-.25.031-.36H.953c.031.11.031.235.031.36 0 .11 0 .234-.03.36zm0 2.626c-.016-.125-.031-.235-.031-.36s.015-.234.031-.36H.953a1.4 1.4 0 0 1 .031.36c0 .125 0 .234-.03.36zm0 0"/></symbol><symbol overflow="visible" id="p"><path d="M-.906-7c-.672-.5-1.36-.953-2.078-1.36-.72.407-1.422.86-2.079 1.36l.188.328 1.89-1.031 1.891 1.031zm0 0"/></symbol><symbol overflow="visible" id="q"><path d="M5.781-5.64c-.14-.079-.25-.126-.36-.126-.468 0-.952.438-1.687 1.532l-.453.656-.062-.563c-.14-1.187-.469-1.625-1.172-1.625-.313 0-.578.094-.688.25l-.687 1 .203.11c.36-.407.594-.563.828-.563.39 0 .656.485.86 1.657l.124.75-.468.734C1.703-1.031 1.297-.641.953-.641.781-.64.641-.687.625-.75l-.14-.344-.235.047c0 .234-.016.39-.094.766-.031.156-.031.187-.047.265.172.094.375.141.516.141.39 0 .86-.344 1.234-.906l.907-1.39.125.827C3.062-.328 3.328.125 3.75.125c.266 0 .656-.203 1.031-.547l.578-.516-.093-.234c-.438.36-.735.531-.922.531C4.156-.64 4-.75 3.89-.984a4.761 4.761 0 0 1-.313-1.032l-.203-1.203.422-.578c.547-.781.875-1.062 1.25-1.062.187 0 .328.109.39.28l.172-.046zm0 0"/></symbol><symbol overflow="visible" id="r"><path d="M2.39-2.984c0-.438-.28-.72-.718-.72-.422 0-.719.282-.719.72 0 .421.297.718.719.718.437 0 .719-.296.719-.718zm0 0"/></symbol><symbol overflow="visible" id="x"><path d="M8.125-2.625c-.016-.125-.031-.25-.031-.36 0-.124.015-.25.031-.359H.953c.031.11.031.235.031.36 0 .109 0 .234-.03.359zm0 0"/></symbol><symbol overflow="visible" id="y"><path d="M5.86-5.656l-.141-.11c-.344.141-.61.204-.875.235l-.422 1.578c-.14.562-.563 1.437-.953 2.015-.422.61-1 1.141-1.266 1.141-.265 0-.25-.578-.234-.734l.187-2.313c.016-.375.047-.828.047-1.172 0-.53-.094-.75-.297-.75-.156 0-.312.094-.89.485L.03-4.61l.14.203.595-.344c.062-.063.218-.156.296-.156.313 0 .266.61.25.812L1.11-1.187l-.015.468c0 .5.218.844.515.844.454 0 1.454-1.016 2.344-2.36L3.375-.187c-.61 2.11-1.219 2.985-2.047 2.985a.737.737 0 0 1-.75-.735c0-.062.016-.156.031-.265L.484 1.75l-.562.406c-.016.078-.016.156-.016.203 0 .516.438.938.985.938 1.265 0 2.578-1.485 3.28-3.688zm0 0"/></symbol><symbol overflow="visible" id="C"><path d="M8.125-2.625c-.016-.125-.031-.25-.031-.36 0-.124.015-.25.031-.359H4.906v-3.234c-.125.031-.25.047-.36.047-.124 0-.25-.016-.359-.047v3.234H.954c.031.11.031.235.031.36 0 .109 0 .234-.03.359h3.234V.594c.109-.016.234-.031.359-.031.11 0 .234.015.36.03v-3.218zm0 0"/></symbol><symbol overflow="visible" id="D"><path d="M10.563 2.36h-5.11c-2.922 0-4.719-.157-5-.97-.078.048-.14.094-.219.11A.627.627 0 0 1 0 1.547c.328.922 2.188 1.687 5.453 1.687h5.11zm0 0"/></symbol><symbol overflow="visible" id="E"><path d="M10.453 3.234V2.36H0v.875zm0 0"/></symbol><symbol overflow="visible" id="F"><path d="M21.14 3.234V2.36h-5.343c-2.86 0-4.625.532-5.219 1.204-.61-.672-2.36-1.204-5.219-1.204H0v.875h5.36c3.187 0 4.984.079 4.984.891.062-.031.156-.031.234-.031.078 0 .156 0 .235.031 0-.813 1.796-.89 4.984-.89zm0 0"/></symbol><symbol overflow="visible" id="G"><path d="M10.578 1.547a.57.57 0 0 1-.234-.047c-.094-.016-.156-.063-.219-.11-.297.813-2.094.97-5 .97H0v.874h5.125c3.25 0 5.125-.765 5.453-1.687zm0 0"/></symbol><symbol overflow="visible" id="k"><path d="M4.766-4.172a.703.703 0 0 0-.297-.094c-.39 0-.766.329-1.375 1.141l-.36.484-.062-.421c-.11-.876-.36-1.204-.938-1.204-.25 0-.453.079-.546.188l-.563.734.172.094c.281-.313.484-.422.656-.422.328 0 .531.36.703 1.219l.094.547-.375.547c-.422.593-.75.875-1.016.875-.14 0-.25-.032-.265-.079l-.11-.25-.187.032c0 .187-.016.297-.078.578-.032.11-.032.125-.047.187a.94.94 0 0 0 .422.11c.312 0 .687-.25.984-.672l.734-1.031.11.609c.14.75.344 1.094.687 1.094.22 0 .532-.14.829-.406l.468-.391-.078-.156c-.344.265-.594.39-.734.39-.156 0-.281-.094-.375-.265-.094-.172-.188-.5-.235-.75l-.187-.891.344-.438c.453-.578.718-.78 1.015-.78.157 0 .266.077.313.202l.14-.03zm0 0"/></symbol><symbol overflow="visible" id="v"><path d="M6.89-4.25l-.077-.11c-.266.079-.688.173-1.016.173-.11 0-.36.015-.594.015L2.172-4.25c-.735 0-1 .281-1.281 1.063l.125.062.093-.063c.204-.53.594-.546 1.141-.546h.484C1.906-1.72 1.531-1.11.75.016l.078.078.703-.219c.36-.703.969-2.047 1.516-3.594l1.797.063c-.172.547-.75 2.14-.766 2.703 0 .937.36 1.047.656 1.047.5 0 .782-.11 1.391-.578l-.078-.172-.234.156c.03-.016-.25.188-.422.188-.454 0-.579-.266-.579-.813.016-.219.032-.453.094-.719l.438-1.812c.218 0 .437-.016.656-.047.188 0 .39-.078.531-.14.125-.188.172-.204.36-.407zm0 0"/></symbol><symbol overflow="visible" id="w"><path d="M4.594.031c-.016-.187-.016-.281-.016-.406 0-.11 0-.203.016-.39l-3.328.078 1.75-1.704c.937-.906 1.234-1.39 1.234-2.062 0-1.016-.75-1.64-1.984-1.64-.688 0-1.172.171-1.641.624L.469-4.266H.75l.11-.406c.171-.516.515-.734 1.156-.734.828 0 1.359.468 1.359 1.218 0 .672-.406 1.329-1.484 2.391L.234-.203V.03L2.391 0zm0 0"/></symbol><symbol overflow="visible" id="B"><path d="M4.813-4.188l-.11-.078c-.281.094-.5.157-.719.172l-.328 1.172c-.125.406-.453 1.063-.765 1.485-.344.453-.813.843-1.032.843-.203 0-.187-.422-.171-.531l.14-1.719c.016-.281.031-.61.031-.86 0-.405-.062-.562-.234-.562-.125 0-.25.063-.719.36l-.797.5.11.156.484-.266a.458.458 0 0 1 .25-.109c.235 0 .203.453.203.594L.984-.891.97-.53c0 .375.187.625.422.625.359 0 1.171-.75 1.89-1.75L2.797-.141c-.485 1.563-.969 2.204-1.64 2.204-.329 0-.595-.235-.595-.547 0-.032 0-.11.016-.188l-.094-.031-.468.297v.156c0 .375.359.688.796.688 1.016 0 2.079-1.094 2.641-2.735zm0 0"/></symbol><symbol overflow="visible" id="H"><path d="M4.25-4.188l-.125-.062-.328.203c-.406-.156-.688-.219-.969-.219-.265 0-.5.079-.765.22-.344.202-.766.515-.985.734C.703-2.892.312-1.595.312-.688c0 .516.126.782.344.782.219 0 .406-.063.719-.266l.078-.047c.61-.422 1.25-1.047 1.61-1.625l-.735 3.657a.818.818 0 0 1-.265.5l.093.124c.297-.062.594-.124.828-.14.032-.485.094-.969.188-1.406l.812-4.032c.11-.546.172-.78.266-1.046zm-.781.594l-.203.844c-.094.453-.313.844-.672 1.25-.5.563-1.094.984-1.36.984-.14 0-.218-.187-.218-.484 0-.844.421-2.172.812-2.61.125-.14.406-.218.703-.218.266 0 .469.047.938.234zm0 0"/></symbol><symbol overflow="visible" id="I"><path d="M5.016-.75l-.094-.156-.25.14c-.234.141-.469.25-.594.25-.062 0-.11-.062-.11-.156 0-.11.016-.25.063-.36l.797-3.155-.062-.079-.657.157-.093.453c-.157.672-.375 1.265-.657 1.672-.578.812-1.343 1.468-1.734 1.468-.094 0-.125-.078-.125-.234 0-.14.016-.234.063-.469l.546-2.39c.032-.141.047-.266.047-.375 0-.172-.062-.282-.203-.282-.203 0-.562.188-1.297.657l-.265.171.078.188.297-.188c.28-.171.39-.203.468-.203.094 0 .157.079.157.172 0 .047 0 .11-.016.156L.765-.687a3.371 3.371 0 0 0-.03.437c0 .188.14.344.328.344.625 0 1.78-.985 2.593-2.203l-.36 1.25c-.062.218-.108.437-.108.578 0 .234.109.375.296.375.25 0 .594-.203 1.532-.844zm0 0"/></symbol><symbol overflow="visible" id="J"><path d="M4-.75l-.063-.188c-.078.047-.078.063-.124.094-.313.25-.454.328-.61.328-.094 0-.14-.078-.14-.218 0-.032 0-.063.015-.094l.89-3.344-.109-.078-.312.156c-.375-.14-.563-.172-.813-.172-.28 0-.468.047-.734.157-.61.28-.906.546-1.156.984C.422-2.344.125-1.297.125-.578c0 .375.156.672.328.672.203 0 .563-.188.922-.469.406-.328.797-.734 1.328-1.422l-.281 1.11a1.656 1.656 0 0 0-.063.453c0 .203.094.328.235.328.219 0 .61-.25 1.406-.844zm-.828-2.906c-.219.937-.406 1.406-.719 1.86-.531.734-1.14 1.28-1.469 1.28-.109 0-.156-.125-.156-.359 0-.563.235-1.547.578-2.281.235-.516.469-.672.938-.672.219 0 .406.031.828.172zm0 0"/></symbol><symbol overflow="visible" id="K"><path d="M3.797-4.203c-.11-.047-.156-.063-.203-.063-.297 0-.594.22-.938.672-.328.422-.672.86-.906 1.328L2-3.375c.047-.203.11-.406.11-.61 0-.171-.079-.28-.22-.28-.202 0-.562.187-1.28.656l-.266.171.062.188.313-.188c.265-.156.375-.203.453-.203.11 0 .172.079.172.188 0 .515-.422 2.344-.797 3.469L.64.078c.203-.062.421-.094.64-.125l.25-1.062c.172-.735.39-1.204.828-1.72.313-.374.579-.562.797-.562.14 0 .235.032.344.157h.14c.016-.329.079-.61.157-.97zm0 0"/></symbol><symbol overflow="visible" id="L"><path d="M3.078-3.89c-.375.03-.703.046-1.062.046.156-.828.25-1.265.437-1.734l-.11-.14c-.187.109-.452.218-.75.327l-.234 1.5c-.437.188-.687.282-.859.329l-.016.109h.813L.75-.953C.703-.72.625-.5.625-.281c0 .234.11.36.297.36.328 0 .656-.173 1.422-.735.172-.125.11-.094.297-.219l-.094-.156-.438.265c-.28.188-.468.266-.593.266-.063 0-.125-.063-.125-.172 0-.234.125-.922.421-2.234l.125-.547H2.97zm0 0"/></symbol><symbol overflow="visible" id="M"><path d="M3.703-3.578c0-.406-.328-.688-.812-.688-.641 0-1.688.594-2.063 1.157-.297.437-.594 1.5-.594 2.125C.234-.313.656.094 1.36.094c.547 0 1.079-.25 1.97-.906L3.25-.984l-.234.156c-.5.328-.97.515-1.313.515-.469 0-.734-.328-.734-.875 0-.234.015-.453.078-.703l.781-.171c.172-.047.422-.126.672-.235.813-.328 1.203-.734 1.203-1.281zm-.719.14c0 .391-.343.813-.843 1.032-.266.11-.625.219-1.047.312l.078-.328c.156-.594.344-.969.61-1.187.187-.172.484-.282.734-.282.28 0 .468.172.468.454zm0 0"/></symbol><symbol overflow="visible" id="N"><path d="M3.844-4.047c-.25-.14-.563-.219-.938-.219-.437 0-1.11.313-1.656.75-.547.454-.922 1.36-.922 2.313C.328-.36.734.094 1.5.094c.531 0 .984-.172 1.516-.578l.484-.36-.078-.172-.14.094c-.704.422-1.063.563-1.391.563-.547 0-.829-.344-.829-1.047 0-.938.329-1.844.782-2.188.203-.172.453-.234.75-.234.453 0 .797.172.797.375v.531h.218c.079-.578.141-.906.235-1.125zm0 0"/></symbol><symbol overflow="visible" id="O"><path d="M2.422-.75l-.11-.156-.25.14c-.28.188-.484.266-.578.266-.078 0-.125-.078-.125-.172 0-.094 0-.156.063-.36l.734-2.687a.983.983 0 0 0 .063-.312c0-.157-.078-.235-.235-.235-.218 0-.562.188-1.296.657l-.266.171.062.188.313-.188c.265-.171.375-.203.453-.203.11 0 .172.079.172.188 0 .062-.047.25-.078.39l-.64 2.11c-.079.297-.126.515-.126.687 0 .22.11.344.281.344.266 0 .625-.187 1.563-.828zm.234-4.813c0-.218-.14-.359-.344-.359-.296 0-.562.281-.562.594 0 .219.14.36.375.36.313 0 .531-.266.531-.595zm0 0"/></symbol><symbol overflow="visible" id="P"><path d="M2.516-6.39l-.125-.094c-.5.234-.844.312-1.547.375l-.031.187h.468c.219 0 .313.063.313.188s-.032.328-.047.421L.625-1.171c-.14.469-.188.719-.188.906 0 .22.11.344.282.344.25 0 .61-.187 1.547-.828l-.094-.156-.25.14c-.297.188-.484.266-.594.266-.062 0-.125-.078-.125-.172 0-.11.031-.219.063-.328zm0 0"/></symbol><symbol overflow="visible" id="Q"><path d="M4.047-2.922c0-.844-.484-1.344-1.281-1.344-.407 0-.86.157-1.297.438C.687-3.313.25-2.422.25-1.344.25-.406.688.094 1.484.094c.532 0 1.11-.219 1.547-.594.594-.531 1.016-1.531 1.016-2.422zm-.734.14c0 .845-.297 1.782-.72 2.25a.952.952 0 0 1-.718.298c-.563 0-.89-.407-.89-1.094 0-1 .374-2.094.843-2.453.125-.094.36-.14.594-.14.578 0 .89.39.89 1.14zm0 0"/></symbol><symbol overflow="visible" id="R"><path d="M5.047-.75l-.11-.156-.234.14c-.297.172-.5.266-.594.266-.062 0-.125-.078-.125-.172 0-.047 0-.14.016-.172l.64-2.453c.063-.25.094-.5.094-.64 0-.204-.093-.329-.28-.329-.407 0-1.079.344-1.657.829-.36.312-.625.609-1.125 1.25l.36-1.422c.046-.157.062-.266.062-.36 0-.187-.078-.297-.219-.297-.203 0-.578.204-1.281.657l-.281.171.078.188.312-.188c.344-.218.375-.218.453-.218.094 0 .172.078.172.219 0 .453-.406 2.156-.797 3.421l.063.094c.25-.062.469-.11.687-.156.172-1.11.39-1.688.828-2.297.532-.734 1.235-1.281 1.672-1.281.094 0 .156.078.156.203 0 .156-.015.344-.093.625L3.328-.953c-.078.328-.125.531-.125.672 0 .234.11.36.297.36.25 0 .594-.188 1.547-.829zm0 0"/></symbol><symbol overflow="visible" id="s"><path d="M.313-2.516c0 1.625 1.14 2.75 2.734 2.75.625 0 1.515-.218 1.64-.406l.25-.375-.125-.187c-.437.25-.812.359-1.25.359-1.328 0-2.203-1.031-2.203-2.61 0-1.28.594-2 1.672-2 .531 0 1.11.235 1.313.532l.093.734h.329c0-.547.062-1.031.171-1.469-.484-.28-.89-.421-1.39-.421-.578 0-1.235.234-1.953.687C.75-4.406.312-3.562.312-2.516zm0 0"/></symbol><symbol overflow="visible" id="t"><path d="M.375-2.594C.375-.906 1.453.234 2.985.234c1.843 0 3.156-1.28 3.156-3.062 0-1.625-1.172-2.781-2.813-2.781C1.594-5.61.375-4.375.375-2.594zM1.5-3c0-1.438.563-2.219 1.625-2.219 1.094 0 1.906 1.203 1.906 2.828 0 1.375-.61 2.235-1.578 2.235C2.281-.156 1.5-1.296 1.5-3zm0 0"/></symbol><symbol overflow="visible" id="u"><path d="M.36-.047C.983.156 1.452.234 2 .234c1.563 0 2.672-.828 2.672-2 0-.375-.094-.656-.328-.89-.313-.313-.703-.438-1.766-.64-.969-.188-1.297-.438-1.297-.985 0-.594.422-.938 1.14-.938.813 0 1.423.422 1.423.985v.28h.328c.016-.702.031-.983.062-1.358-.64-.204-1.062-.297-1.562-.297-1.375 0-2.235.656-2.235 1.734 0 .578.266.984.813 1.234.328.141.969.329 1.781.516.531.11.766.375.766.828 0 .64-.61 1.094-1.453 1.094-.875 0-1.5-.422-1.5-1.016v-.484h-.36C.484-.891.454-.531.36-.047zm0 0"/></symbol><symbol overflow="visible" id="z"><path d="M.25.031C.75.016 1.25 0 1.75 0s.984.016 1.484.031v-.36l-.546-.03c-.407-.016-.438-.11-.438-.86v-4.343l-.11-.047c-.609.25-1.234.421-1.859.5v.328H.72c.469 0 .531.078.531.875v2.687c0 .75-.047.844-.453.86L.25-.33zm.89-7.11c0 .36.25.595.61.595s.594-.235.594-.594c0-.344-.235-.594-.594-.594-.36 0-.61.234-.61.594zm0 0"/></symbol><symbol overflow="visible" id="A"><path d="M.078.031C.562.016 1.063 0 1.547 0c.5 0 1 .016 1.484.031v-.36L2.5-.358c-.406-.016-.438-.11-.438-.86V-3.75c0-.547.782-1.125 1.516-1.125.797 0 1.328.594 1.328 1.516V.03C5.22.016 5.531 0 5.844 0c.343 0 .656.016 1 .031v-.36l-.5-.03c-.407-.016-.438-.094-.438-.86V-3.53c0-1.39-.656-2.078-2-2.078-.437 0-.687.093-.937.296l-.906.797v-1.046l-.11-.047c-.61.25-1.234.421-1.875.5v.328h.453c.469 0 .516.078.516.875v2.687c0 .75-.031.844-.438.86l-.53.03zm0 0"/></symbol></defs><use xlink:href="#a" x="-.703" y="10.241"/><use xlink:href="#b" x="-.703" y="16.743"/><use xlink:href="#c" x="-.703" y="30.395"/><use xlink:href="#b" x="-.703" y="36.897"/><use xlink:href="#d" x="-.703" y="43.638"/><use xlink:href="#e" x="11.32" y="10.745"/><use xlink:href="#f" x="17.967" y="10.745"/><use xlink:href="#g" x="23.275" y="10.745"/><use xlink:href="#h" x="28.201" y="10.745"/><use xlink:href="#i" x="37.502" y="10.745"/><use xlink:href="#j" x="42.81" y="10.745"/><use xlink:href="#k" x="46.133" y="13.518"/><use xlink:href="#l" x="51.63" y="10.745"/><use xlink:href="#m" x="56.699" y="10.745"/><use xlink:href="#n" x="60.74" y="10.745"/><use xlink:href="#o" x="69.12" y="10.745"/><use xlink:href="#p" x="88.129" y="10.745"/><use xlink:href="#q" x="81.542" y="10.745"/><use xlink:href="#l" x="87.651" y="10.745"/><use xlink:href="#m" x="92.72" y="10.745"/><use xlink:href="#n" x="96.761" y="10.745"/><use xlink:href="#r" x="104.484" y="10.745"/><use xlink:href="#s" x="110.498" y="10.745"/><use xlink:href="#t" x="115.806" y="10.745"/><use xlink:href="#u" x="122.334" y="10.745"/><use xlink:href="#v" x="130.591" y="5.137"/><path d="M130.59 7.754h7.14" fill="none" stroke-width=".717" stroke="#000" stroke-miterlimit="10"/><use xlink:href="#w" x="131.662" y="15.271"/><use xlink:href="#x" x="141.583" y="10.745"/><use xlink:href="#p" x="160.006" y="10.745"/><use xlink:href="#y" x="153.335" y="10.745"/><use xlink:href="#l" x="159.516" y="10.745"/><use xlink:href="#m" x="164.585" y="10.745"/><use xlink:href="#n" x="168.626" y="10.745"/><use xlink:href="#r" x="176.349" y="10.745"/><use xlink:href="#u" x="182.359" y="10.745"/><use xlink:href="#z" x="187.428" y="10.745"/><use xlink:href="#A" x="190.859" y="10.745"/><use xlink:href="#v" x="201.005" y="5.137"/><path d="M201.004 7.754h7.14" fill="none" stroke-width=".717" stroke="#000" stroke-miterlimit="10"/><use xlink:href="#w" x="202.076" y="15.271"/><use xlink:href="#o" x="212.661" y="10.745"/><use xlink:href="#x" x="225.059" y="10.745"/><use xlink:href="#p" x="240.827" y="10.745"/><use xlink:href="#y" x="234.156" y="10.745"/><use xlink:href="#l" x="240.337" y="10.745"/><use xlink:href="#m" x="245.406" y="10.745"/><use xlink:href="#n" x="249.447" y="10.745"/><use xlink:href="#e" x="11.32" y="25.41"/><use xlink:href="#f" x="17.967" y="25.41"/><use xlink:href="#g" x="23.275" y="25.41"/><use xlink:href="#h" x="28.201" y="25.41"/><use xlink:href="#i" x="37.502" y="25.41"/><use xlink:href="#j" x="42.81" y="25.41"/><use xlink:href="#B" x="46.133" y="28.184"/><use xlink:href="#l" x="51.692" y="25.41"/><use xlink:href="#m" x="56.761" y="25.41"/><use xlink:href="#n" x="60.79" y="25.41"/><use xlink:href="#o" x="69.182" y="25.41"/><use xlink:href="#p" x="88.191" y="25.41"/><use xlink:href="#q" x="81.604" y="25.41"/><use xlink:href="#l" x="87.713" y="25.41"/><use xlink:href="#m" x="92.782" y="25.41"/><use xlink:href="#n" x="96.823" y="25.41"/><use xlink:href="#r" x="104.546" y="25.41"/><use xlink:href="#u" x="110.56" y="25.41"/><use xlink:href="#z" x="115.629" y="25.41"/><use xlink:href="#A" x="119.06" y="25.41"/><use xlink:href="#v" x="129.207" y="19.802"/><path d="M129.207 22.422h7.14" fill="none" stroke-width=".717" stroke="#000" stroke-miterlimit="10"/><use xlink:href="#w" x="130.277" y="29.936"/><use xlink:href="#C" x="140.199" y="25.41"/><use xlink:href="#p" x="158.622" y="25.41"/><use xlink:href="#y" x="151.951" y="25.41"/><use xlink:href="#l" x="158.132" y="25.41"/><use xlink:href="#m" x="163.201" y="25.41"/><use xlink:href="#n" x="167.242" y="25.41"/><use xlink:href="#r" x="174.965" y="25.41"/><use xlink:href="#s" x="180.974" y="25.41"/><use xlink:href="#t" x="186.282" y="25.41"/><use xlink:href="#u" x="192.81" y="25.41"/><use xlink:href="#v" x="201.067" y="19.802"/><path d="M201.066 22.422h7.141" fill="none" stroke-width=".717" stroke="#000" stroke-miterlimit="10"/><use xlink:href="#w" x="202.138" y="29.936"/><use xlink:href="#D" x="81.599" y="29.963"/><use xlink:href="#E" x="91.103" y="29.963"/><use xlink:href="#E" x="99.711" y="29.963"/><g><use xlink:href="#E" x="108.331" y="29.963"/></g><g><use xlink:href="#E" x="116.939" y="29.963"/></g><g><use xlink:href="#E" x="125.546" y="29.963"/></g><g><use xlink:href="#F" x="134.931" y="29.963"/></g><g><use xlink:href="#E" x="155.004" y="29.963"/></g><g><use xlink:href="#E" x="163.612" y="29.963"/></g><g><use xlink:href="#E" x="172.231" y="29.963"/></g><g><use xlink:href="#E" x="180.839" y="29.963"/></g><g><use xlink:href="#E" x="189.447" y="29.963"/></g><g><use xlink:href="#G" x="198.832" y="29.963"/></g><g><use xlink:href="#H" x="100.202" y="42.007"/><use xlink:href="#I" x="104.847" y="42.007"/><use xlink:href="#J" x="110.385" y="42.007"/><use xlink:href="#K" x="114.843" y="42.007"/></g><g><use xlink:href="#L" x="118.878" y="42.007"/><use xlink:href="#M" x="122.266" y="42.007"/><use xlink:href="#K" x="126.194" y="42.007"/></g><g><use xlink:href="#N" x="133.227" y="42.007"/><use xlink:href="#O" x="137.332" y="42.007"/></g><g><use xlink:href="#K" x="140.234" y="42.007"/></g><g><use xlink:href="#N" x="144.277" y="42.007"/><use xlink:href="#P" x="148.382" y="42.007"/><use xlink:href="#M" x="151.239" y="42.007"/></g><g><use xlink:href="#K" x="158.157" y="42.007"/></g><g><use xlink:href="#Q" x="162.2" y="42.007"/><use xlink:href="#L" x="166.659" y="42.007"/><use xlink:href="#J" x="170.047" y="42.007"/><use xlink:href="#L" x="174.506" y="42.007"/><use xlink:href="#O" x="177.895" y="42.007"/></g><g><use xlink:href="#Q" x="180.796" y="42.007"/><use xlink:href="#R" x="185.255" y="42.007"/></g><g><use xlink:href="#o" x="212.723" y="25.41"/></g><g><use xlink:href="#p" x="231.72" y="25.41"/></g><g><use xlink:href="#q" x="225.132" y="25.41"/></g><g><use xlink:href="#l" x="231.242" y="25.41"/><use xlink:href="#m" x="236.311" y="25.41"/></g><g><use xlink:href="#n" x="240.351" y="25.41"/></g></svg>