<!--
ratio(t) = \frac{distance(B,C)}{distance(A,B)} = Constant
-->
<svg xmlns:xlink="http://www.w3.org/1999/xlink" width="39.833ex" height="6ex" style="vertical-align: -2.5ex; margin-left: 0ex; margin-right: 0ex; margin-bottom: 1px; margin-top: 1px;" viewBox="0 -1549.3 17121.8 2598.7" xmlns="http://www.w3.org/2000/svg">
<defs>
<path stroke-width="10" id="E1-LATINMODERNNORMAL-1D45F" d="M436 377c0 -36 -28 -59 -55 -59s-38 19 -38 35c0 26 22 50 52 55c0 0 -16 12 -42 12c-43 0 -72 -26 -80 -33c-24 -22 -52 -69 -56 -82l-32 -130c-4 -18 -38 -154 -40 -158c-7 -20 -25 -28 -37 -28c-15 0 -29 9 -29 27c0 5 6 28 9 43l58 231c13 52 16 63 16 84 c0 38 -14 46 -31 46c-36 0 -56 -48 -73 -119c-6 -22 -7 -23 -17 -23c0 0 -12 0 -12 10c0 3 13 63 31 97c9 18 28 57 74 57c47 0 83 -32 91 -77c19 28 63 77 128 77c51 0 83 -30 83 -65Z"></path>
<path stroke-width="10" id="E1-LATINMODERNNORMAL-1D44E" d="M498 143c0 0 -13 -63 -30 -99c-16 -32 -39 -55 -74 -55c-48 0 -83 33 -91 75c-60 -71 -110 -75 -130 -75c-78 0 -133 66 -133 160c0 146 124 293 241 293c45 0 74 -27 92 -64c3 22 18 44 42 44c17 0 29 -10 29 -27c0 -4 0 -6 -7 -34l-36 -140l-22 -90 c-11 -44 -13 -52 -13 -74c0 -20 3 -46 30 -46c41 0 59 59 76 124c3 14 4 18 14 18c3 0 12 0 12 -10zM361 332c0 6 -14 88 -79 88c-40 0 -85 -37 -116 -96c-23 -46 -55 -169 -55 -219c0 -39 14 -94 64 -94c28 0 69 16 113 71c15 17 15 19 20 37l50 196c1 5 3 11 3 17Z"></path>
<path stroke-width="10" id="E1-LATINMODERNNORMAL-1D461" d="M330 420c0 -20 -10 -20 -30 -20h-94l-74 -295c-4 -17 -6 -24 -6 -48c0 -33 10 -46 31 -46c34 0 87 24 130 128c5 11 6 14 15 14c4 0 12 0 12 -10c0 -8 -57 -154 -159 -154c-54 0 -92 38 -92 92c0 18 4 35 76 319h-88c-20 0 -28 0 -28 12c0 19 10 19 30 19h94l39 159 c9 35 37 36 40 36c17 0 29 -10 29 -27c0 -6 -5 -26 -41 -168h88c18 0 28 0 28 -11Z"></path>
<path stroke-width="10" id="E1-LATINMODERNNORMAL-1D456" d="M284 625c0 -30 -30 -53 -53 -53c-24 0 -38 17 -38 36c0 27 27 53 54 53c23 0 37 -16 37 -36zM293 143c0 -9 -37 -154 -131 -154c-48 0 -82 35 -82 82c0 21 13 54 23 80c16 43 61 159 69 185c4 10 11 31 11 52c0 32 -17 32 -25 32c-34 0 -74 -30 -101 -124 c-5 -16 -6 -18 -16 -18c0 0 -12 0 -12 10c0 9 38 154 132 154c50 0 82 -37 82 -82c0 -19 -5 -33 -13 -53c-10 -27 -10 -29 -22 -58l-39 -105c-23 -61 -29 -75 -29 -100c0 -23 7 -33 24 -33c51 0 84 61 102 124c5 15 5 18 15 18c3 0 12 0 12 -10Z"></path>
<path stroke-width="10" id="E1-LATINMODERNNORMAL-1D45C" d="M469 273c0 -146 -135 -284 -268 -284c-93 0 -160 70 -160 169c0 142 134 284 268 284c90 0 160 -65 160 -169zM396 312c0 60 -30 108 -88 108c-28 0 -85 -15 -135 -92c-32 -51 -58 -159 -58 -208c0 -78 44 -109 87 -109c46 0 101 34 136 92c38 65 58 170 58 209Z"></path>
<path stroke-width="10" id="E1-LATINMODERNMAIN-28" d="M332 -238c0 -5 -5 -10 -10 -10c-2 0 -4 1 -6 2c-110 83 -215 283 -215 454v84c0 171 105 371 215 454c2 1 4 2 6 2c5 0 10 -5 10 -10c0 -3 -2 -6 -4 -8c-104 -78 -173 -278 -173 -438v-84c0 -160 69 -360 173 -438c2 -2 4 -5 4 -8Z"></path>
<path stroke-width="10" id="E1-LATINMODERNMAIN-29" d="M288 208c0 -171 -105 -371 -215 -454c-2 -1 -4 -2 -6 -2c-5 0 -10 5 -10 10c0 3 2 6 4 8c104 78 173 278 173 438v84c0 160 -69 360 -173 438c-2 2 -4 5 -4 8c0 5 5 10 10 10c2 0 4 -1 6 -2c110 -83 215 -283 215 -454v-84Z"></path>
<path stroke-width="10" id="E1-LATINMODERNMAIN-3D" d="M722 347c0 -11 -9 -20 -20 -20h-626c-11 0 -20 9 -20 20s9 20 20 20h626c11 0 20 -9 20 -20zM722 153c0 -11 -9 -20 -20 -20h-626c-11 0 -20 9 -20 20s9 20 20 20h626c11 0 20 -9 20 -20Z"></path>
<path stroke-width="10" id="E1-LATINMODERNNORMAL-1D451" d="M516 683l-144 -578c-4 -17 -6 -24 -6 -48c0 -20 3 -46 30 -46c41 0 59 59 76 124c3 14 4 18 14 18c3 0 12 0 12 -10c0 0 -13 -63 -30 -99c-16 -32 -39 -55 -74 -55c-48 0 -83 33 -91 75c-60 -71 -110 -75 -130 -75c-78 0 -133 66 -133 160c0 146 124 293 241 293 c45 0 74 -27 92 -64l60 237l3 20c0 10 -2 17 -50 17c-15 0 -24 0 -24 12c0 13 6 18 14 19c17 2 112 11 127 11c13 0 13 -11 13 -11zM361 332c0 6 -14 88 -79 88c-40 0 -85 -37 -116 -96c-23 -46 -55 -169 -55 -219c0 -39 14 -94 64 -94c28 0 69 16 113 71c15 17 15 19 20 37 l50 196c1 5 3 11 3 17Z"></path>
<path stroke-width="10" id="E1-LATINMODERNNORMAL-1D460" d="M420 356c0 -39 -24 -56 -46 -56s-31 15 -31 29c0 22 20 44 48 45c-15 39 -65 46 -90 46c-88 0 -112 -61 -112 -90c0 -45 40 -52 76 -60c44 -9 73 -14 100 -42c12 -12 31 -37 31 -73c0 -45 -39 -166 -201 -166c-86 0 -143 40 -143 97c0 45 30 66 56 66c21 0 37 -12 37 -35 c0 -28 -25 -58 -63 -53c23 -53 100 -53 114 -53c120 0 143 84 143 110c0 55 -52 66 -104 76c-29 6 -103 21 -103 99c0 44 37 146 169 146c76 0 119 -41 119 -86Z"></path>
<path stroke-width="10" id="E1-LATINMODERNNORMAL-1D45B" d="M571 143c0 -8 -37 -154 -131 -154c-47 0 -82 35 -82 82c0 11 1 23 10 46c16 43 65 171 65 233c0 33 -9 70 -54 70c-95 0 -148 -91 -163 -122l-13 -50c-5 -23 -11 -45 -17 -67l-22 -90c-6 -25 -18 -72 -19 -74c-7 -20 -25 -28 -37 -28c-15 0 -29 9 -29 27c0 5 6 28 9 43 l58 231c13 52 16 63 16 84c0 33 -11 46 -31 46c-36 0 -56 -48 -73 -119c-6 -22 -7 -23 -17 -23c0 0 -12 0 -12 10c0 4 14 63 30 97c10 18 29 57 75 57s87 -31 92 -87c17 23 66 87 156 87c72 0 115 -40 115 -107c0 -57 -42 -167 -61 -220c-9 -22 -18 -46 -18 -71 c0 -23 7 -33 24 -33c49 0 82 56 102 124c5 15 5 18 15 18c3 0 12 0 12 -10Z"></path>
<path stroke-width="10" id="E1-LATINMODERNNORMAL-1D450" d="M430 107c0 -12 -84 -118 -227 -118c-104 0 -162 79 -162 169c0 141 133 284 268 284c71 0 118 -37 118 -86c0 -40 -27 -64 -56 -64c-19 0 -37 11 -37 35c0 7 2 24 18 39c14 14 28 14 44 14c-14 27 -52 40 -86 40c-55 0 -110 -43 -141 -100c-34 -62 -54 -159 -54 -200 c0 -60 27 -109 90 -109c12 0 121 0 200 99c6 8 8 10 13 10c6 0 12 -7 12 -13Z"></path>
<path stroke-width="10" id="E1-LATINMODERNNORMAL-1D452" d="M430 107c0 -12 -84 -118 -227 -118c-98 0 -157 79 -157 181c0 175 151 272 262 272c69 0 107 -41 107 -85c0 -14 -5 -73 -75 -103c-50 -21 -124 -23 -153 -23h-53c-15 -61 -16 -92 -16 -104c0 -32 9 -116 87 -116c12 0 121 0 200 99c6 8 8 10 13 10c6 0 12 -7 12 -13z M382 357c0 34 -27 63 -74 63c-26 0 -129 -15 -168 -167h41c41 0 201 0 201 104Z"></path>
<path stroke-width="10" id="E1-LATINMODERNNORMAL-1D435" d="M756 545c0 -95 -105 -169 -209 -188c97 -11 155 -69 155 -141c0 -98 -118 -216 -276 -216h-357c-18 0 -27 0 -27 11c0 20 10 20 27 20c79 0 81 8 91 47l134 537c3 12 4 15 4 19c0 13 -9 14 -27 16c-17 2 -38 2 -38 2c-19 0 -28 0 -28 11c0 20 10 20 29 20h336 c120 0 186 -64 186 -138zM665 549c0 44 -21 103 -109 103h-129c-43 0 -45 -3 -54 -38l-62 -248h146c122 0 208 95 208 183zM609 227c0 43 -19 117 -115 117h-189l-69 -279c-5 -18 -5 -20 -5 -23c0 -8 3 -9 13 -10c6 -1 8 -1 22 -1h136c118 0 207 97 207 196Z"></path>
<path stroke-width="10" id="E1-LATINMODERNMAIN-2C" d="M203 1c0 -117 -80 -194 -91 -194c-5 0 -10 4 -10 11c0 3 0 5 11 16c33 33 68 93 68 167c0 14 -2 15 -2 15s-2 -1 -5 -3c-10 -9 -23 -13 -35 -13c-33 0 -53 26 -53 53c0 28 20 53 53 53c39 0 64 -39 64 -105Z"></path>
<path stroke-width="10" id="E1-LATINMODERNNORMAL-1D436" d="M760 695l-63 -255c-5 -18 -5 -20 -18 -20c-4 0 -15 0 -15 10s3 11 3 51c0 116 -59 193 -161 193c-89 0 -183 -50 -244 -121c-100 -117 -121 -279 -121 -336c0 -156 106 -208 196 -208c52 0 115 17 184 73c69 58 92 129 101 158c2 8 7 10 13 10c0 0 12 0 12 -10 c0 -3 -17 -94 -110 -176c-53 -46 -129 -86 -216 -86c-153 0 -271 109 -271 274c0 232 225 453 448 453c111 0 157 -75 166 -89l70 77c11 11 12 12 15 12c9 0 11 -7 11 -10Z"></path>
<path stroke-width="10" id="E1-LATINMODERNNORMAL-1D434" d="M721 20c0 -20 -12 -20 -18 -20c-25 0 -88 3 -113 3c-41 0 -84 -3 -125 -3c0 0 -14 0 -14 11c0 20 10 20 24 20c20 0 72 3 72 33c0 10 -14 146 -16 167h-251c-68 -116 -69 -116 -76 -128c-8 -14 -14 -25 -14 -37c0 -25 24 -33 47 -35c7 0 16 -1 16 -12 c0 -19 -13 -19 -19 -19c-32 0 -67 3 -100 3c-28 0 -59 -3 -86 -3c-8 0 -13 5 -13 11c0 19 9 19 21 20c44 3 83 17 123 84l348 584c6 10 10 17 26 17c17 0 17 -4 19 -24l61 -625c3 -29 3 -36 65 -36c13 0 23 0 23 -11zM528 262l-32 330l-197 -330h229Z"></path>
</defs>
<g stroke="currentColor" fill="currentColor" stroke-width="0" transform="matrix(1 0 0 -1 0 0)">
 <use xlink:href="#E1-LATINMODERNNORMAL-1D45F" x="0" y="0"></use>
 <use xlink:href="#E1-LATINMODERNNORMAL-1D44E" x="456" y="0"></use>
 <use xlink:href="#E1-LATINMODERNNORMAL-1D461" x="990" y="0"></use>
 <use xlink:href="#E1-LATINMODERNNORMAL-1D456" x="1356" y="0"></use>
 <use xlink:href="#E1-LATINMODERNNORMAL-1D45C" x="1706" y="0"></use>
 <use xlink:href="#E1-LATINMODERNMAIN-28" x="2196" y="0"></use>
 <use xlink:href="#E1-LATINMODERNNORMAL-1D461" x="2590" y="0"></use>
 <use xlink:href="#E1-LATINMODERNMAIN-29" x="2956" y="0"></use>
 <use xlink:href="#E1-LATINMODERNMAIN-3D" x="3627" y="0"></use>
<g transform="translate(4410,0)">
<g transform="translate(397,0)">
<rect stroke="none" width="6649" height="60" x="0" y="220"></rect>
<g transform="translate(60,777)">
 <use xlink:href="#E1-LATINMODERNNORMAL-1D451" x="0" y="0"></use>
 <use xlink:href="#E1-LATINMODERNNORMAL-1D456" x="525" y="0"></use>
 <use xlink:href="#E1-LATINMODERNNORMAL-1D460" x="875" y="0"></use>
 <use xlink:href="#E1-LATINMODERNNORMAL-1D461" x="1349" y="0"></use>
 <use xlink:href="#E1-LATINMODERNNORMAL-1D44E" x="1715" y="0"></use>
 <use xlink:href="#E1-LATINMODERNNORMAL-1D45B" x="2249" y="0"></use>
 <use xlink:href="#E1-LATINMODERNNORMAL-1D450" x="2854" y="0"></use>
 <use xlink:href="#E1-LATINMODERNNORMAL-1D452" x="3292" y="0"></use>
 <use xlink:href="#E1-LATINMODERNMAIN-28" x="3763" y="0"></use>
 <use xlink:href="#E1-LATINMODERNNORMAL-1D435" x="4157" y="0"></use>
 <use xlink:href="#E1-LATINMODERNMAIN-2C" x="4921" y="0"></use>
 <use xlink:href="#E1-LATINMODERNNORMAL-1D436" x="5370" y="0"></use>
 <use xlink:href="#E1-LATINMODERNMAIN-29" x="6135" y="0"></use>
</g>
<g transform="translate(65,-778)">
 <use xlink:href="#E1-LATINMODERNNORMAL-1D451" x="0" y="0"></use>
 <use xlink:href="#E1-LATINMODERNNORMAL-1D456" x="525" y="0"></use>
 <use xlink:href="#E1-LATINMODERNNORMAL-1D460" x="875" y="0"></use>
 <use xlink:href="#E1-LATINMODERNNORMAL-1D461" x="1349" y="0"></use>
 <use xlink:href="#E1-LATINMODERNNORMAL-1D44E" x="1715" y="0"></use>
 <use xlink:href="#E1-LATINMODERNNORMAL-1D45B" x="2249" y="0"></use>
 <use xlink:href="#E1-LATINMODERNNORMAL-1D450" x="2854" y="0"></use>
 <use xlink:href="#E1-LATINMODERNNORMAL-1D452" x="3292" y="0"></use>
 <use xlink:href="#E1-LATINMODERNMAIN-28" x="3763" y="0"></use>
 <use xlink:href="#E1-LATINMODERNNORMAL-1D434" x="4157" y="0"></use>
 <use xlink:href="#E1-LATINMODERNMAIN-2C" x="4912" y="0"></use>
 <use xlink:href="#E1-LATINMODERNNORMAL-1D435" x="5361" y="0"></use>
 <use xlink:href="#E1-LATINMODERNMAIN-29" x="6125" y="0"></use>
</g>
</g>
</g>
 <use xlink:href="#E1-LATINMODERNMAIN-3D" x="11856" y="0"></use>
 <use xlink:href="#E1-LATINMODERNNORMAL-1D436" x="12916" y="0"></use>
 <use xlink:href="#E1-LATINMODERNNORMAL-1D45C" x="13681" y="0"></use>
 <use xlink:href="#E1-LATINMODERNNORMAL-1D45B" x="14171" y="0"></use>
 <use xlink:href="#E1-LATINMODERNNORMAL-1D460" x="14776" y="0"></use>
 <use xlink:href="#E1-LATINMODERNNORMAL-1D461" x="15250" y="0"></use>
 <use xlink:href="#E1-LATINMODERNNORMAL-1D44E" x="15616" y="0"></use>
 <use xlink:href="#E1-LATINMODERNNORMAL-1D45B" x="16150" y="0"></use>
 <use xlink:href="#E1-LATINMODERNNORMAL-1D461" x="16755" y="0"></use>
</g>
</svg>