<svg xmlns:xlink="http://www.w3.org/1999/xlink" width="82.5ex" height="13.333ex" style="vertical-align:-6.167ex;margin-bottom:1px;margin-top:1px" viewBox="0 -3132.3 35501.1 5764.5" xmlns="http://www.w3.org/2000/svg"><defs><path stroke-width="10" id="a" d="M756 545c0-95-105-169-209-188 97-11 155-69 155-141C702 118 584 0 426 0H69C51 0 42 0 42 11c0 20 10 20 27 20 79 0 81 8 91 47l134 537c3 12 4 15 4 19 0 13-9 14-27 16-17 2-38 2-38 2-19 0-28 0-28 11 0 20 10 20 29 20h336c120 0 186-64 186-138zm-91 4c0 44-21 103-109 103H427c-43 0-45-3-54-38l-62-248h146c122 0 208 95 208 183zm-56-322c0 43-19 117-115 117H305L236 65c-5-18-5-20-5-23 0-8 3-9 13-10 6-1 8-1 22-1h136c118 0 207 97 207 196z"/><path stroke-width="10" id="b" d="M332-238c0-5-5-10-10-10-2 0-4 1-6 2-110 83-215 283-215 454v84c0 171 105 371 215 454 2 1 4 2 6 2 5 0 10-5 10-10 0-3-2-6-4-8-104-78-173-278-173-438v-84c0-160 69-360 173-438 2-2 4-5 4-8z"/><path stroke-width="10" id="c" d="M571 143c0-8-37-154-131-154-47 0-82 35-82 82 0 11 1 23 10 46 16 43 65 171 65 233 0 33-9 70-54 70-95 0-148-91-163-122l-13-50c-5-23-11-45-17-67l-22-90c-6-25-18-72-19-74-7-20-25-28-37-28-15 0-29 9-29 27 0 5 6 28 9 43l58 231c13 52 16 63 16 84 0 33-11 46-31 46-36 0-56-48-73-119-6-22-7-23-17-23 0 0-12 0-12 10 0 4 14 63 30 97 10 18 29 57 75 57s87-31 92-87c17 23 66 87 156 87 72 0 115-40 115-107 0-57-42-167-61-220-9-22-18-46-18-71 0-23 7-33 24-33 49 0 82 56 102 124 5 15 5 18 15 18 3 0 12 0 12-10z"/><path stroke-width="10" id="d" d="M203 1c0-117-80-194-91-194-5 0-10 4-10 11 0 3 0 5 11 16 33 33 68 93 68 167 0 14-2 15-2 15s-2-1-5-3c-10-9-23-13-35-13-33 0-53 26-53 53 0 28 20 53 53 53 39 0 64-39 64-105z"/><path stroke-width="10" id="e" d="M330 420c0-20-10-20-30-20h-94l-74-295c-4-17-6-24-6-48 0-33 10-46 31-46 34 0 87 24 130 128 5 11 6 14 15 14 4 0 12 0 12-10 0-8-57-154-159-154-54 0-92 38-92 92 0 18 4 35 76 319H51c-20 0-28 0-28 12 0 19 10 19 30 19h94l39 159c9 35 37 36 40 36 17 0 29-10 29-27 0-6-5-26-41-168h88c18 0 28 0 28-11z"/><path stroke-width="10" id="f" d="M288 208c0-171-105-371-215-454-2-1-4-2-6-2-5 0-10 5-10 10 0 3 2 6 4 8 104 78 173 278 173 438v84c0 160-69 360-173 438-2 2-4 5-4 8 0 5 5 10 10 10 2 0 4-1 6-2 110-83 215-283 215-454v-84z"/><path stroke-width="10" id="n" d="M691 372c0-48-32-182-66-260-26-60-70-123-145-123-30 0-99 6-125 70-40-70-87-70-104-70-75 0-142 35-142 126 0 38 12 84 56 202 7 17 18 45 18 70 0 32-16 33-25 33-35 0-74-31-101-124-5-16-6-18-16-18 0 0-12 0-12 10 0 9 37 154 132 154 49 0 82-37 82-82 0-20-6-34-17-64-47-123-52-162-52-194 0-17 0-91 80-91 39 0 69 31 92 84-1 5-1 7-1 18 0 18 2 36 9 66 7 26 54 217 57 224 7 20 25 28 37 28 15 0 29-9 29-27 0-6-10-43-15-65l-42-168c-4-14-11-45-11-73 0-57 27-87 74-87 49 0 84 35 110 88 26 51 55 149 55 183 0 48-25 74-36 85-9 8-15 14-15 27 0 22 25 48 50 48 17 0 44-15 44-70z"/><path stroke-width="10" id="j" d="M722 347c0-11-9-20-20-20H76c-11 0-20 9-20 20s9 20 20 20h626c11 0 20-9 20-20zm0-194c0-11-9-20-20-20H76c-11 0-20 9-20 20s9 20 20 20h626c11 0 20-9 20-20z"/><path stroke-width="10" id="o" d="M425-238c0-7-5-12-12-12-105 0-196 52-196 125v250c0 58-55 113-130 113-7 0-12 5-12 12s5 12 12 12c75 0 130 55 130 113v250c0 73 91 125 196 125 7 0 12-5 12-12s-5-12-12-12c-75 0-130-49-130-101V375c0-58-48-104-115-125 67-21 115-67 115-125v-250c0-52 55-101 130-101 7 0 12-5 12-12z"/><path stroke-width="10" id="p" d="M721 20c0-20-12-20-18-20-25 0-88 3-113 3-41 0-84-3-125-3 0 0-14 0-14 11 0 20 10 20 24 20 20 0 72 3 72 33 0 10-14 146-16 167H280c-68-116-69-116-76-128-8-14-14-25-14-37 0-25 24-33 47-35 7 0 16-1 16-12 0-19-13-19-19-19-32 0-67 3-100 3-28 0-59-3-86-3-8 0-13 5-13 11 0 19 9 19 21 20 44 3 83 17 123 84l348 584c6 10 10 17 26 17 17 0 17-4 19-24l61-625c3-29 3-36 65-36 13 0 23 0 23-11zM528 262l-32 330-197-330h229z"/><path stroke-width="10" id="q" d="M760 695l-63-255c-5-18-5-20-18-20-4 0-15 0-15 10s3 11 3 51c0 116-59 193-161 193-89 0-183-50-244-121-100-117-121-279-121-336C141 61 247 9 337 9c52 0 115 17 184 73 69 58 92 129 101 158 2 8 7 10 13 10 0 0 12 0 12-10 0-3-17-94-110-176-53-46-129-86-216-86C168-22 50 87 50 252c0 232 225 453 448 453 111 0 157-75 166-89l70 77c11 11 12 12 15 12 9 0 11-7 11-10z"/><path stroke-width="10" id="r" d="M804 430C804 211 607 0 399 0H68C49 0 40 0 40 12c0 19 11 19 28 19 79 0 81 8 91 47l134 537c3 12 4 15 4 19 0 11-6 14-22 16-12 1-30 2-43 2-20 0-29 0-29 12 0 19 11 19 30 19h336c150 0 235-112 235-253zm-87 37c0 132-83 185-181 185H429c-43 0-45-3-54-38L238 65c-5-18-5-20-5-23 0-8 3-9 13-10 6-1 8-1 22-1h113c123 0 202 76 231 113 85 110 105 274 105 323z"/><path stroke-width="10" id="s" d="M425 250c0-7-5-12-12-12-75 0-130-55-130-113v-250c0-73-91-125-196-125-7 0-12 5-12 12s5 12 12 12c75 0 130 49 130 101v250c0 58 48 104 115 125-67 21-115 67-115 125v250c0 52-55 101-130 101-7 0-12 5-12 12s5 12 12 12c105 0 196-52 196-125V375c0-58 55-113 130-113 7 0 12-5 12-12z"/><path stroke-width="10" id="g" d="M251 710c0-7-2-14-6-19L87 430H60l120 297c4 11 18 21 33 21 21 0 38-17 38-38z"/><path stroke-width="10" id="k" d="M457 171c0-102-91-193-213-193C135-22 42 44 42 135c0 44 32 58 56 58 29 0 56-20 56-56 0-38-31-60-66-55C123 23 198 6 241 6c44 0 113 29 113 165 0 98-37 166-119 166h-44c-17 0-24 0-24 11 0 10 7 11 15 12 7 0 31 2 39 3 25 1 59 4 89 52 26 44 28 102 28 114 0 90-55 112-96 112-36 0-102-13-133-62 15 0 62 0 62-50 0-29-20-51-51-51-29 0-51 19-51 52 0 76 76 136 177 136 96 0 184-56 184-138 0-79-58-149-140-176 104-21 167-99 167-181z"/><path stroke-width="10" id="t" d="M192 250c0-29-24-53-53-53s-53 24-53 53 24 53 53 53 53-24 53-53z"/><path stroke-width="10" id="u" d="M722 250c0-11-9-20-20-20H76c-11 0-20 9-20 20s9 20 20 20h626c11 0 20-9 20-20z"/><path stroke-width="10" id="h" d="M251 710c0-7-2-14-6-19L87 430H60l120 297c4 11 18 21 33 21 21 0 38-17 38-38zm200 0c0-7-2-14-6-19L287 430h-27l120 297c4 11 18 21 33 21 21 0 38-17 38-38z"/><path stroke-width="10" id="l" d="M449 174L421 0H50c0 24 0 26 11 37l192 214c55 62 105 141 105 221 0 82-43 163-134 163-58 0-112-37-135-102 3 1 5 1 13 1 35 0 53-26 53-52 0-41-35-53-52-53-3 0-53 0-53 56 0 89 74 181 187 181 122 0 212-80 212-194 0-100-60-154-216-292L127 77h180c22 0 88 0 95 8 10 15 17 59 22 89h25z"/><path stroke-width="10" id="i" d="M251 710c0-7-2-14-6-19L87 430H60l120 297c4 11 18 21 33 21 21 0 38-17 38-38zm200 0c0-7-2-14-6-19L287 430h-27l120 297c4 11 18 21 33 21 21 0 38-17 38-38zm200 0c0-7-2-14-6-19L487 430h-27l120 297c4 11 18 21 33 21 21 0 38-17 38-38z"/><path stroke-width="10" id="m" d="M419 0c-35 3-122 3-162 3S130 3 95 0v31h32c90 0 93 12 93 48v518c-52-26-111-26-131-26v31c32 0 120 0 182 64 23 0 23-2 23-26V79c0-37 3-48 93-48h32V0z"/></defs><g stroke="currentColor" fill="currentColor" stroke-width="0"><g transform="matrix(1 0 0 -1 156 -2318)"><use xlink:href="#a"/><use xlink:href="#b" x="764"/><use xlink:href="#c" x="1158"/><use xlink:href="#d" x="1763"/><use xlink:href="#e" x="2212"/><use xlink:href="#f" x="2578"/><use xlink:href="#d" x="2972"/></g><g transform="matrix(1 0 0 -1 156 -759)"><use xlink:href="#a"/><use transform="scale(.707)" xlink:href="#g" x="1080" y="513"/><use xlink:href="#b" x="1087"/><use xlink:href="#c" x="1481"/><use xlink:href="#d" x="2086"/><use xlink:href="#e" x="2536"/><use xlink:href="#f" x="2902"/><use xlink:href="#d" x="3296"/></g><g transform="matrix(1 0 0 -1 156 800)"><use xlink:href="#a"/><use transform="scale(.707)" xlink:href="#h" x="1080" y="513"/><use xlink:href="#b" x="1228"/><use xlink:href="#c" x="1622"/><use xlink:href="#d" x="2227"/><use xlink:href="#e" x="2677"/><use xlink:href="#f" x="3043"/><use xlink:href="#d" x="3437"/></g><g transform="matrix(1 0 0 -1 156 2359)"><use xlink:href="#a"/><use transform="scale(.707)" xlink:href="#i" x="1080" y="513"/><use xlink:href="#b" x="1370"/><use xlink:href="#c" x="1764"/><use xlink:href="#d" x="2369"/><use xlink:href="#e" x="2818"/><use xlink:href="#f" x="3184"/><use xlink:href="#d" x="3578"/></g><g><g transform="matrix(1 0 0 -1 5018 -759)"><use xlink:href="#c"/><use xlink:href="#j" x="882"/><use xlink:href="#k" x="1943"/><use xlink:href="#d" x="2448"/></g><g transform="matrix(1 0 0 -1 5018 800)"><use xlink:href="#c"/><use xlink:href="#j" x="882"/><use xlink:href="#l" x="1943"/><use xlink:href="#d" x="2448"/></g><g transform="matrix(1 0 0 -1 5018 2359)"><use xlink:href="#c"/><use xlink:href="#j" x="882"/><use xlink:href="#m" x="1943"/><use xlink:href="#d" x="2448"/></g></g><g><g transform="matrix(1 0 0 -1 8750 -2318)"><use xlink:href="#n"/><use xlink:href="#j" x="998"/><use xlink:href="#o" x="2059"/><use xlink:href="#p" x="2564"/><use xlink:href="#d" x="3319"/><use xlink:href="#a" x="3769"/><use xlink:href="#d" x="4533"/><use xlink:href="#q" x="4982"/><use xlink:href="#d" x="5747"/><use xlink:href="#r" x="6197"/><use xlink:href="#s" x="7030"/></g><g transform="matrix(1 0 0 -1 8750 -759)"><use xlink:href="#n"/><use transform="scale(.707)" xlink:href="#g" x="1019" y="513"/><use xlink:href="#j" x="1322"/><use xlink:href="#o" x="2383"/><g transform="translate(2888)"><use xlink:href="#p"/><use transform="scale(.707)" xlink:href="#g" x="1067" y="513"/></g><use xlink:href="#d" x="3966"/><g transform="translate(4416)"><use xlink:href="#a"/><use transform="scale(.707)" xlink:href="#g" x="1080" y="513"/></g><use xlink:href="#d" x="5503"/><g transform="translate(5953)"><use xlink:href="#q"/><use transform="scale(.707)" xlink:href="#g" x="1101" y="513"/></g><use xlink:href="#s" x="7055"/></g><g transform="matrix(1 0 0 -1 8750 800)"><use xlink:href="#n"/><use transform="scale(.707)" xlink:href="#h" x="1019" y="513"/><use xlink:href="#j" x="1463"/><use xlink:href="#o" x="2524"/><g transform="translate(3029)"><use xlink:href="#p"/><use transform="scale(.707)" xlink:href="#h" x="1067" y="513"/></g><use xlink:href="#d" x="4249"/><g transform="translate(4698)"><use xlink:href="#a"/><use transform="scale(.707)" xlink:href="#h" x="1080" y="513"/></g><use xlink:href="#s" x="5927"/></g><g transform="matrix(1 0 0 -1 8750 2359)"><use xlink:href="#n"/><use transform="scale(.707)" xlink:href="#i" x="1019" y="513"/><use xlink:href="#j" x="1605"/><use xlink:href="#o" x="2665"/><g transform="translate(3170)"><use xlink:href="#p"/><use transform="scale(.707)" xlink:href="#i" x="1067" y="513"/></g><use xlink:href="#s" x="4532"/></g></g><g><g transform="matrix(1 0 0 -1 17310 -759)"><use xlink:href="#j"/><use xlink:href="#o" x="1060"/><use xlink:href="#k" x="1565"/><use xlink:href="#t" x="2293"/><use xlink:href="#b" x="2798"/><use xlink:href="#a" x="3192"/><use xlink:href="#u" x="4178"/><use xlink:href="#p" x="5183"/><use xlink:href="#f" x="5938"/><use xlink:href="#d" x="6332"/><use xlink:href="#k" x="7114"/><use xlink:href="#t" x="7841"/><use xlink:href="#b" x="8346"/><use xlink:href="#q" x="8740"/><use xlink:href="#u" x="9728"/><use xlink:href="#a" x="10733"/><use xlink:href="#f" x="11497"/><use xlink:href="#d" x="11891"/><use xlink:href="#k" x="12672"/><use xlink:href="#t" x="13400"/><use xlink:href="#b" x="13905"/><use xlink:href="#r" x="14299"/><use xlink:href="#u" x="15354"/><use xlink:href="#q" x="16359"/><use xlink:href="#f" x="17124"/><use xlink:href="#s" x="17518"/></g><g transform="matrix(1 0 0 -1 17310 800)"><use xlink:href="#j"/><use xlink:href="#o" x="1060"/><use xlink:href="#l" x="1565"/><use xlink:href="#t" x="2293"/><use xlink:href="#b" x="2798"/><g transform="translate(3192)"><use xlink:href="#a"/><use transform="scale(.707)" xlink:href="#g" x="1080" y="513"/></g><use xlink:href="#u" x="4501"/><g transform="translate(5507)"><use xlink:href="#p"/><use transform="scale(.707)" xlink:href="#g" x="1067" y="513"/></g><use xlink:href="#f" x="6585"/><use xlink:href="#d" x="6979"/><use xlink:href="#l" x="7761"/><use xlink:href="#t" x="8488"/><use xlink:href="#b" x="8993"/><g transform="translate(9387)"><use xlink:href="#q"/><use transform="scale(.707)" xlink:href="#g" x="1101" y="513"/></g><use xlink:href="#u" x="10711"/><g transform="translate(11717)"><use xlink:href="#a"/><use transform="scale(.707)" xlink:href="#g" x="1080" y="513"/></g><use xlink:href="#f" x="12804"/><use xlink:href="#s" x="13198"/></g><g transform="matrix(1 0 0 -1 17310 2359)"><use xlink:href="#j"/><use xlink:href="#o" x="1060"/><use xlink:href="#m" x="1565"/><use xlink:href="#t" x="2293"/><use xlink:href="#b" x="2798"/><g transform="translate(3192)"><use xlink:href="#a"/><use transform="scale(.707)" xlink:href="#h" x="1080" y="513"/></g><use xlink:href="#u" x="4643"/><g transform="translate(5648)"><use xlink:href="#p"/><use transform="scale(.707)" xlink:href="#h" x="1067" y="513"/></g><use xlink:href="#f" x="6868"/><use xlink:href="#s" x="7262"/></g></g></g></svg>