<svg xmlns:xlink="http://www.w3.org/1999/xlink" width="100ex" height="6.167ex" style="vertical-align: -4.5ex; margin-left: 0ex; margin-right: 0ex; margin-bottom: 1px; margin-top: 1px;" viewBox="0 -773.9 43055.4 2687.3" xmlns="http://www.w3.org/2000/svg">
<defs>
<path stroke-width="10" id="E1-LATINMODERNNORMAL-1D435" d="M756 545c0 -95 -105 -169 -209 -188c97 -11 155 -69 155 -141c0 -98 -118 -216 -276 -216h-357c-18 0 -27 0 -27 11c0 20 10 20 27 20c79 0 81 8 91 47l134 537c3 12 4 15 4 19c0 13 -9 14 -27 16c-17 2 -38 2 -38 2c-19 0 -28 0 -28 11c0 20 10 20 29 20h336 c120 0 186 -64 186 -138zM665 549c0 44 -21 103 -109 103h-129c-43 0 -45 -3 -54 -38l-62 -248h146c122 0 208 95 208 183zM609 227c0 43 -19 117 -115 117h-189l-69 -279c-5 -18 -5 -20 -5 -23c0 -8 3 -9 13 -10c6 -1 8 -1 22 -1h136c118 0 207 97 207 196Z"></path>
<path stroke-width="10" id="E1-LATINMODERNMAIN-28" d="M332 -238c0 -5 -5 -10 -10 -10c-2 0 -4 1 -6 2c-110 83 -215 283 -215 454v84c0 171 105 371 215 454c2 1 4 2 6 2c5 0 10 -5 10 -10c0 -3 -2 -6 -4 -8c-104 -78 -173 -278 -173 -438v-84c0 -160 69 -360 173 -438c2 -2 4 -5 4 -8Z"></path>
<path stroke-width="10" id="E1-LATINMODERNNORMAL-1D461" d="M330 420c0 -20 -10 -20 -30 -20h-94l-74 -295c-4 -17 -6 -24 -6 -48c0 -33 10 -46 31 -46c34 0 87 24 130 128c5 11 6 14 15 14c4 0 12 0 12 -10c0 -8 -57 -154 -159 -154c-54 0 -92 38 -92 92c0 18 4 35 76 319h-88c-20 0 -28 0 -28 12c0 19 10 19 30 19h94l39 159 c9 35 37 36 40 36c17 0 29 -10 29 -27c0 -6 -5 -26 -41 -168h88c18 0 28 0 28 -11Z"></path>
<path stroke-width="10" id="E1-LATINMODERNMAIN-29" d="M288 208c0 -171 -105 -371 -215 -454c-2 -1 -4 -2 -6 -2c-5 0 -10 5 -10 10c0 3 2 6 4 8c104 78 173 278 173 438v84c0 160 -69 360 -173 438c-2 2 -4 5 -4 8c0 5 5 10 10 10c2 0 4 -1 6 -2c110 -83 215 -283 215 -454v-84Z"></path>
<path stroke-width="10" id="E1-LATINMODERNNORMAL-1D462" d="M543 143c0 0 -13 -63 -30 -99c-16 -32 -39 -55 -74 -55c-43 0 -78 26 -89 67c-17 -22 -53 -67 -119 -67c-54 0 -123 25 -123 120c0 49 21 111 58 210c6 15 17 44 17 68c0 32 -16 33 -25 33c-38 0 -76 -37 -101 -124c-5 -16 -6 -18 -16 -18c0 0 -12 0 -12 10 c0 9 37 154 132 154c50 0 82 -37 82 -82c0 -19 -5 -33 -17 -63c-26 -69 -54 -148 -54 -204c0 -37 10 -82 62 -82c73 0 113 80 114 84l75 301c8 34 34 35 39 35c15 0 29 -9 29 -27c0 -6 -10 -44 -15 -67c-4 -15 -14 -53 -17 -68l-28 -108c-8 -35 -20 -82 -20 -104 c0 -33 10 -46 31 -46c42 0 61 68 75 124c3 14 4 18 14 18c3 0 12 0 12 -10Z"></path>
<path stroke-width="10" id="E1-LATINMODERNNORMAL-1D460" d="M420 356c0 -39 -24 -56 -46 -56s-31 15 -31 29c0 22 20 44 48 45c-15 39 -65 46 -90 46c-88 0 -112 -61 -112 -90c0 -45 40 -52 76 -60c44 -9 73 -14 100 -42c12 -12 31 -37 31 -73c0 -45 -39 -166 -201 -166c-86 0 -143 40 -143 97c0 45 30 66 56 66c21 0 37 -12 37 -35 c0 -28 -25 -58 -63 -53c23 -53 100 -53 114 -53c120 0 143 84 143 110c0 55 -52 66 -104 76c-29 6 -103 21 -103 99c0 44 37 146 169 146c76 0 119 -41 119 -86Z"></path>
<path stroke-width="10" id="E1-LATINMODERNNORMAL-1D452" d="M430 107c0 -12 -84 -118 -227 -118c-98 0 -157 79 -157 181c0 175 151 272 262 272c69 0 107 -41 107 -85c0 -14 -5 -73 -75 -103c-50 -21 -124 -23 -153 -23h-53c-15 -61 -16 -92 -16 -104c0 -32 9 -116 87 -116c12 0 121 0 200 99c6 8 8 10 13 10c6 0 12 -7 12 -13z M382 357c0 34 -27 63 -74 63c-26 0 -129 -15 -168 -167h41c41 0 201 0 201 104Z"></path>
<path stroke-width="10" id="E1-LATINMODERNMAIN-7B" d="M425 -238c0 -7 -5 -12 -12 -12c-105 0 -196 52 -196 125v250c0 58 -55 113 -130 113c-7 0 -12 5 -12 12s5 12 12 12c75 0 130 55 130 113v250c0 73 91 125 196 125c7 0 12 -5 12 -12s-5 -12 -12 -12c-75 0 -130 -49 -130 -101v-250c0 -58 -48 -104 -115 -125 c67 -21 115 -67 115 -125v-250c0 -52 55 -101 130 -101c7 0 12 -5 12 -12Z"></path>
<path stroke-width="10" id="E1-LATINMODERNNORMAL-1D45D" d="M490 282c0 -147 -125 -293 -241 -293c-51 0 -79 35 -92 64c-7 -25 -49 -188 -49 -200c0 -9 0 -16 50 -16c14 0 24 0 24 -11c0 -20 -13 -20 -18 -20c-32 0 -66 3 -99 3c-28 0 -57 -3 -84 -3c-8 0 -13 4 -13 12c0 19 11 19 23 19c44 0 46 7 54 41l112 445c4 17 7 28 7 51 c0 38 -14 46 -31 46c-36 0 -56 -48 -73 -119c-6 -22 -7 -23 -17 -23c0 0 -12 0 -12 10c0 3 13 63 31 97c9 18 28 57 74 57c37 0 80 -21 90 -75c33 39 81 75 131 75c76 0 133 -66 133 -160zM418 326c0 59 -24 94 -64 94c-17 0 -46 -7 -81 -38c-18 -15 -45 -43 -52 -70 l-49 -196c-3 -12 -3 -16 -3 -16c0 -6 13 -89 79 -89c37 0 85 33 119 103c18 38 51 153 51 212Z"></path>
<path stroke-width="10" id="E1-LATINMODERNMAIN-31" d="M419 0c-35 3 -122 3 -162 3s-127 0 -162 -3v31h32c90 0 93 12 93 48v518c-52 -26 -111 -26 -131 -26v31c32 0 120 0 182 64c23 0 23 -2 23 -26v-561c0 -37 3 -48 93 -48h32v-31Z"></path>
<path stroke-width="10" id="E1-LATINMODERNMAIN-2C" d="M203 1c0 -117 -80 -194 -91 -194c-5 0 -10 4 -10 11c0 3 0 5 11 16c33 33 68 93 68 167c0 14 -2 15 -2 15s-2 -1 -5 -3c-10 -9 -23 -13 -35 -13c-33 0 -53 26 -53 53c0 28 20 53 53 53c39 0 64 -39 64 -105Z"></path>
<path stroke-width="10" id="E1-LATINMODERNMAIN-32" d="M449 174l-28 -174h-371c0 24 0 26 11 37l192 214c55 62 105 141 105 221c0 82 -43 163 -134 163c-58 0 -112 -37 -135 -102c3 1 5 1 13 1c35 0 53 -26 53 -52c0 -41 -35 -53 -52 -53c-3 0 -53 0 -53 56c0 89 74 181 187 181c122 0 212 -80 212 -194 c0 -100 -60 -154 -216 -292l-106 -103h180c22 0 88 0 95 8c10 15 17 59 22 89h25Z"></path>
<path stroke-width="10" id="E1-LATINMODERNMAIN-33" d="M457 171c0 -102 -91 -193 -213 -193c-109 0 -202 66 -202 157c0 44 32 58 56 58c29 0 56 -20 56 -56c0 -38 -31 -60 -66 -55c35 -59 110 -76 153 -76c44 0 113 29 113 165c0 98 -37 166 -119 166h-44c-17 0 -24 0 -24 11c0 10 7 11 15 12c7 0 31 2 39 3c25 1 59 4 89 52 c26 44 28 102 28 114c0 90 -55 112 -96 112c-36 0 -102 -13 -133 -62c15 0 62 0 62 -50c0 -29 -20 -51 -51 -51c-29 0 -51 19 -51 52c0 76 76 136 177 136c96 0 184 -56 184 -138c0 -79 -58 -149 -140 -176c104 -21 167 -99 167 -181Z"></path>
<path stroke-width="10" id="E1-LATINMODERNMAIN-34" d="M471 165h-100v-87c0 -36 2 -47 76 -47h21v-31c-41 3 -94 3 -136 3s-94 0 -135 -3v31h21c74 0 76 11 76 47v87h-266v31l307 469c8 12 11 12 20 12c16 0 16 -6 16 -26v-455h100v-31zM300 196v373l-244 -373h244Z"></path>
<path stroke-width="10" id="E1-LATINMODERNMAIN-7D" d="M425 250c0 -7 -5 -12 -12 -12c-75 0 -130 -55 -130 -113v-250c0 -73 -91 -125 -196 -125c-7 0 -12 5 -12 12s5 12 12 12c75 0 130 49 130 101v250c0 58 48 104 115 125c-67 21 -115 67 -115 125v250c0 52 -55 101 -130 101c-7 0 -12 5 -12 12s5 12 12 12 c105 0 196 -52 196 -125v-250c0 -58 55 -113 130 -113c7 0 12 -5 12 -12Z"></path>
<path stroke-width="10" id="E1-LATINMODERNMAIN-2032" d="M251 710c0 -7 -2 -14 -6 -19l-158 -261h-27l120 297c4 11 18 21 33 21c21 0 38 -17 38 -38Z"></path>
<path stroke-width="10" id="E1-LATINMODERNNORMAL-1D463" d="M468 372c0 -52 -57 -383 -225 -383c-46 0 -134 16 -134 124c0 43 13 89 57 205c7 18 17 45 17 70c0 32 -17 32 -25 32c-29 0 -72 -23 -101 -124c-5 -16 -6 -18 -16 -18c0 0 -12 0 -12 10c0 9 38 154 132 154c50 0 82 -37 82 -82c0 -19 -5 -33 -12 -50 c-31 -83 -58 -156 -58 -212c0 -52 23 -87 74 -87c117 0 178 229 178 271c0 36 -13 62 -34 82c-11 11 -16 17 -16 30c0 22 24 48 49 48c18 0 44 -16 44 -70Z"></path>
<path stroke-width="10" id="E1-LATINMODERNMAIN-2E" d="M192 53c0 -29 -24 -53 -53 -53s-53 24 -53 53s24 53 53 53s53 -24 53 -53Z"></path>
<path stroke-width="10" id="E1-LATINMODERNNORMAL-1D464" d="M691 372c0 -48 -32 -182 -66 -260c-26 -60 -70 -123 -145 -123c-30 0 -99 6 -125 70c-40 -70 -87 -70 -104 -70c-75 0 -142 35 -142 126c0 38 12 84 56 202c7 17 18 45 18 70c0 32 -16 33 -25 33c-35 0 -74 -31 -101 -124c-5 -16 -6 -18 -16 -18c0 0 -12 0 -12 10 c0 9 37 154 132 154c49 0 82 -37 82 -82c0 -20 -6 -34 -17 -64c-47 -123 -52 -162 -52 -194c0 -17 0 -91 80 -91c39 0 69 31 92 84c-1 5 -1 7 -1 18c0 18 2 36 9 66c7 26 54 217 57 224c7 20 25 28 37 28c15 0 29 -9 29 -27c0 -6 -10 -43 -15 -65l-42 -168 c-4 -14 -11 -45 -11 -73c0 -57 27 -87 74 -87c49 0 84 35 110 88c26 51 55 149 55 183c0 48 -25 74 -36 85c-9 8 -15 14 -15 27c0 22 25 48 50 48c17 0 44 -15 44 -70Z"></path>
<path stroke-width="10" id="E1-LATINMODERNNORMAL-210E" d="M546 143c0 -8 -37 -154 -131 -154c-47 0 -82 35 -82 82c0 20 5 32 13 55c24 61 62 170 62 224c0 36 -11 70 -54 70s-74 -19 -96 -35c-34 -27 -65 -83 -68 -92c-1 -6 -9 -39 -11 -45c-5 -23 -11 -45 -17 -67l-22 -90l-19 -76c-5 -14 -21 -26 -37 -26c-9 0 -29 5 -29 28 c0 6 0 8 4 22l145 576l3 20c0 10 -2 17 -50 17c-15 0 -24 0 -24 12c0 18 11 19 19 20c26 2 99 10 122 10c13 0 13 -11 13 -11l-78 -318c37 46 85 77 148 77c75 0 115 -42 115 -107c0 -58 -45 -177 -61 -220c-9 -22 -18 -46 -18 -71c0 -23 7 -33 24 -33c55 0 87 71 102 124 c5 15 5 18 15 18c3 0 12 0 12 -10Z"></path>
<path stroke-width="10" id="E1-LATINMODERNNORMAL-1D45F" d="M436 377c0 -36 -28 -59 -55 -59s-38 19 -38 35c0 26 22 50 52 55c0 0 -16 12 -42 12c-43 0 -72 -26 -80 -33c-24 -22 -52 -69 -56 -82l-32 -130c-4 -18 -38 -154 -40 -158c-7 -20 -25 -28 -37 -28c-15 0 -29 9 -29 27c0 5 6 28 9 43l58 231c13 52 16 63 16 84 c0 38 -14 46 -31 46c-36 0 -56 -48 -73 -119c-6 -22 -7 -23 -17 -23c0 0 -12 0 -12 10c0 3 13 63 31 97c9 18 28 57 74 57c47 0 83 -32 91 -77c19 28 63 77 128 77c51 0 83 -30 83 -65Z"></path>
<path stroke-width="10" id="E1-LATINMODERNMAIN-3D" d="M722 347c0 -11 -9 -20 -20 -20h-626c-11 0 -20 9 -20 20s9 20 20 20h626c11 0 20 -9 20 -20zM722 153c0 -11 -9 -20 -20 -20h-626c-11 0 -20 9 -20 20s9 20 20 20h626c11 0 20 -9 20 -20Z"></path>
<path stroke-width="10" id="E1-LATINMODERNMAIN-2212" d="M722 250c0 -11 -9 -20 -20 -20h-626c-11 0 -20 9 -20 20s9 20 20 20h626c11 0 20 -9 20 -20Z"></path>
</defs>
<g stroke="currentColor" fill="currentColor" stroke-width="0" transform="matrix(1 0 0 -1 0 0)">
<g transform="translate(16129,0)">
 <use xlink:href="#E1-LATINMODERNNORMAL-1D435" x="0" y="0"></use>
 <use xlink:href="#E1-LATINMODERNMAIN-28" x="764" y="0"></use>
 <use xlink:href="#E1-LATINMODERNNORMAL-1D461" x="1158" y="0"></use>
 <use xlink:href="#E1-LATINMODERNMAIN-29" x="1524" y="0"></use>
 <use xlink:href="#E1-LATINMODERNNORMAL-1D462" x="2250" y="0"></use>
 <use xlink:href="#E1-LATINMODERNNORMAL-1D460" x="2827" y="0"></use>
 <use xlink:href="#E1-LATINMODERNNORMAL-1D452" x="3301" y="0"></use>
 <use xlink:href="#E1-LATINMODERNNORMAL-1D460" x="3772" y="0"></use>
 <use xlink:href="#E1-LATINMODERNMAIN-7B" x="4578" y="0"></use>
<g transform="translate(5083,0)">
 <use xlink:href="#E1-LATINMODERNNORMAL-1D45D" x="0" y="0"></use>
 <use transform="scale(0.707)" xlink:href="#E1-LATINMODERNMAIN-31" x="718" y="-213"></use>
</g>
 <use xlink:href="#E1-LATINMODERNMAIN-2C" x="6048" y="0"></use>
<g transform="translate(6497,0)">
 <use xlink:href="#E1-LATINMODERNNORMAL-1D45D" x="0" y="0"></use>
 <use transform="scale(0.707)" xlink:href="#E1-LATINMODERNMAIN-32" x="718" y="-213"></use>
</g>
 <use xlink:href="#E1-LATINMODERNMAIN-2C" x="7462" y="0"></use>
<g transform="translate(7912,0)">
 <use xlink:href="#E1-LATINMODERNNORMAL-1D45D" x="0" y="0"></use>
 <use transform="scale(0.707)" xlink:href="#E1-LATINMODERNMAIN-33" x="718" y="-213"></use>
</g>
 <use xlink:href="#E1-LATINMODERNMAIN-2C" x="8877" y="0"></use>
<g transform="translate(9327,0)">
 <use xlink:href="#E1-LATINMODERNNORMAL-1D45D" x="0" y="0"></use>
 <use transform="scale(0.707)" xlink:href="#E1-LATINMODERNMAIN-34" x="718" y="-213"></use>
</g>
 <use xlink:href="#E1-LATINMODERNMAIN-7D" x="10292" y="0"></use>
</g>
<g transform="translate(3908,-1640)">
 <use xlink:href="#E1-LATINMODERNNORMAL-1D435" x="0" y="0"></use>
 <use transform="scale(0.707)" xlink:href="#E1-LATINMODERNMAIN-2032" x="1080" y="583"></use>
 <use xlink:href="#E1-LATINMODERNMAIN-28" x="1087" y="0"></use>
 <use xlink:href="#E1-LATINMODERNNORMAL-1D461" x="1481" y="0"></use>
 <use xlink:href="#E1-LATINMODERNMAIN-29" x="1847" y="0"></use>
 <use xlink:href="#E1-LATINMODERNNORMAL-1D462" x="2573" y="0"></use>
 <use xlink:href="#E1-LATINMODERNNORMAL-1D460" x="3150" y="0"></use>
 <use xlink:href="#E1-LATINMODERNNORMAL-1D452" x="3624" y="0"></use>
 <use xlink:href="#E1-LATINMODERNNORMAL-1D460" x="4095" y="0"></use>
 <use xlink:href="#E1-LATINMODERNMAIN-7B" x="4901" y="0"></use>
<g transform="translate(5406,0)">
 <use xlink:href="#E1-LATINMODERNNORMAL-1D463" x="0" y="0"></use>
 <use transform="scale(0.707)" xlink:href="#E1-LATINMODERNMAIN-31" x="692" y="-213"></use>
</g>
 <use xlink:href="#E1-LATINMODERNMAIN-2E" x="6353" y="0"></use>
<g transform="translate(6803,0)">
 <use xlink:href="#E1-LATINMODERNNORMAL-1D463" x="0" y="0"></use>
 <use transform="scale(0.707)" xlink:href="#E1-LATINMODERNMAIN-32" x="692" y="-213"></use>
</g>
 <use xlink:href="#E1-LATINMODERNMAIN-2C" x="7750" y="0"></use>
<g transform="translate(8199,0)">
 <use xlink:href="#E1-LATINMODERNNORMAL-1D463" x="0" y="0"></use>
 <use transform="scale(0.707)" xlink:href="#E1-LATINMODERNMAIN-33" x="692" y="-213"></use>
</g>
 <use xlink:href="#E1-LATINMODERNMAIN-7D" x="9147" y="0"></use>
 <use xlink:href="#E1-LATINMODERNMAIN-2C" x="9652" y="0"></use>
 <use xlink:href="#E1-LATINMODERNNORMAL-1D464" x="10433" y="0"></use>
 <use xlink:href="#E1-LATINMODERNNORMAL-210E" x="11154" y="0"></use>
 <use xlink:href="#E1-LATINMODERNNORMAL-1D452" x="11735" y="0"></use>
 <use xlink:href="#E1-LATINMODERNNORMAL-1D45F" x="12206" y="0"></use>
 <use xlink:href="#E1-LATINMODERNNORMAL-1D452" x="12662" y="0"></use>
<g transform="translate(13465,0)">
 <use xlink:href="#E1-LATINMODERNNORMAL-1D463" x="0" y="0"></use>
 <use transform="scale(0.707)" xlink:href="#E1-LATINMODERNMAIN-31" x="692" y="-213"></use>
</g>
 <use xlink:href="#E1-LATINMODERNMAIN-3D" x="14690" y="0"></use>
 <use xlink:href="#E1-LATINMODERNMAIN-33" x="15751" y="0"></use>
 <use xlink:href="#E1-LATINMODERNMAIN-28" x="16256" y="0"></use>
<g transform="translate(16650,0)">
 <use xlink:href="#E1-LATINMODERNNORMAL-1D45D" x="0" y="0"></use>
 <use transform="scale(0.707)" xlink:href="#E1-LATINMODERNMAIN-32" x="718" y="-213"></use>
</g>
 <use xlink:href="#E1-LATINMODERNMAIN-2212" x="17837" y="0"></use>
<g transform="translate(18842,0)">
 <use xlink:href="#E1-LATINMODERNNORMAL-1D45D" x="0" y="0"></use>
 <use transform="scale(0.707)" xlink:href="#E1-LATINMODERNMAIN-31" x="718" y="-213"></use>
</g>
 <use xlink:href="#E1-LATINMODERNMAIN-29" x="19807" y="0"></use>
 <use xlink:href="#E1-LATINMODERNMAIN-2C" x="20201" y="0"></use>
<g transform="translate(20983,0)">
 <use xlink:href="#E1-LATINMODERNNORMAL-1D463" x="0" y="0"></use>
 <use transform="scale(0.707)" xlink:href="#E1-LATINMODERNMAIN-32" x="692" y="-213"></use>
</g>
 <use xlink:href="#E1-LATINMODERNMAIN-3D" x="22208" y="0"></use>
 <use xlink:href="#E1-LATINMODERNMAIN-33" x="23269" y="0"></use>
 <use xlink:href="#E1-LATINMODERNMAIN-28" x="23774" y="0"></use>
<g transform="translate(24168,0)">
 <use xlink:href="#E1-LATINMODERNNORMAL-1D45D" x="0" y="0"></use>
 <use transform="scale(0.707)" xlink:href="#E1-LATINMODERNMAIN-33" x="718" y="-213"></use>
</g>
 <use xlink:href="#E1-LATINMODERNMAIN-2212" x="25355" y="0"></use>
<g transform="translate(26360,0)">
 <use xlink:href="#E1-LATINMODERNNORMAL-1D45D" x="0" y="0"></use>
 <use transform="scale(0.707)" xlink:href="#E1-LATINMODERNMAIN-32" x="718" y="-213"></use>
</g>
 <use xlink:href="#E1-LATINMODERNMAIN-29" x="27325" y="0"></use>
 <use xlink:href="#E1-LATINMODERNMAIN-2C" x="27719" y="0"></use>
<g transform="translate(28501,0)">
 <use xlink:href="#E1-LATINMODERNNORMAL-1D463" x="0" y="0"></use>
 <use transform="scale(0.707)" xlink:href="#E1-LATINMODERNMAIN-33" x="692" y="-213"></use>
</g>
 <use xlink:href="#E1-LATINMODERNMAIN-3D" x="29726" y="0"></use>
 <use xlink:href="#E1-LATINMODERNMAIN-33" x="30787" y="0"></use>
 <use xlink:href="#E1-LATINMODERNMAIN-28" x="31292" y="0"></use>
<g transform="translate(31686,0)">
 <use xlink:href="#E1-LATINMODERNNORMAL-1D45D" x="0" y="0"></use>
 <use transform="scale(0.707)" xlink:href="#E1-LATINMODERNMAIN-34" x="718" y="-213"></use>
</g>
 <use xlink:href="#E1-LATINMODERNMAIN-2212" x="32873" y="0"></use>
<g transform="translate(33878,0)">
 <use xlink:href="#E1-LATINMODERNNORMAL-1D45D" x="0" y="0"></use>
 <use transform="scale(0.707)" xlink:href="#E1-LATINMODERNMAIN-33" x="718" y="-213"></use>
</g>
 <use xlink:href="#E1-LATINMODERNMAIN-29" x="34843" y="0"></use>
</g>
</g>
</svg>