<svg xmlns="http://www.w3.org/2000/svg" xmlns:xlink="http://www.w3.org/1999/xlink" width="217pt" height="43pt" viewBox="0 0 217 43"><defs><symbol overflow="visible" id="a"><path d="M5.984-7.14c-.03-.063-.03-.048-.062-.11-.016-.094-.016-.172-.016-.406-1.812.468-3.031 1.843-3.031 3.953V0h1.219v-3.703c0-1.719.422-2.828 1.984-3.25zm0 0"/></symbol><symbol overflow="visible" id="b"><path d="M4.094-.125v-7.266H2.875V0h1.219zm0 0"/></symbol><symbol overflow="visible" id="c"><path d="M4.094-.125v-3.578c0-1.922-.766-3.235-1.782-3.703v.265c1.016-.468 1.782-1.765 1.782-3.687v-3.703H2.875v3.703c0 2.062-.36 3.187-1.922 3.187.078.204.094.297.094.375 0 .079-.016.172-.094.375 1.563 0 1.922 1.125 1.922 3.188V0h1.219zm0 0"/></symbol><symbol overflow="visible" id="d"><path d="M5.89-.734c-1.374-.36-1.796-1.47-1.796-3.188v-3.703H2.875v3.703c0 2.094 1.219 3.469 3.031 3.969 0-.266 0-.344.016-.422.031-.078.031-.063.156-.313zm0 0"/></symbol><symbol overflow="visible" id="e"><path d="M-.813-7.234a29.143 29.143 0 0 0-2.171-1.422c-.829.484-1.516.937-2.266 1.484l.313.547L-3-7.688l1.953 1.063.313-.547zm0 0"/></symbol><symbol overflow="visible" id="f"><path d="M5.875-5.875c-.14-.078-.344-.156-.453-.156-.469 0-1.063.468-1.797 1.578l-.453.656.25.094-.078-.578c-.14-1.188-.594-1.75-1.297-1.75-.313 0-.688.14-.797.297L.484-4.61l.407.25c.437-.485.578-.61.812-.61.39 0 .516.36.719 1.532l.125.718-.438.656C1.594-1.25 1.297-.905.953-.905c-.172 0-.172.078-.203.015l-.188-.468-.453.062c0 .36-.03.516-.093.89-.032.141-.047.173-.063.329.219.125.531.203.672.203.39 0 .953-.375 1.328-.938l.906-1.406-.234-.094.125.829c.172 1.015.578 1.609 1 1.609.266 0 .75-.234 1.125-.578l.64-.578-.218-.469c-.578.453-.766.61-.953.61-.188 0-.25-.094-.453-.5.015.046-.11-.407-.172-.75L3.5-3.313l.39-.532c.563-.765.782-1.015 1.157-1.015.187 0 .187-.032.312.312l.36-.11.203-1.171zm0 0"/></symbol><symbol overflow="visible" id="g"><path d="M4.203-7.828a.735.735 0 0 1-.187-.14c-.063-.063-.11-.126-.22-.329-1.593 1.61-2.5 3.266-2.5 4.781v.797c0 1.516.907 3.172 2.5 4.781.11-.203.157-.265.22-.328.062-.062.125-.109.312-.203C2.875.063 2.281-1.344 2.281-2.719v-.797c0-1.39.594-2.78 2.047-4.25zm0 0"/></symbol><symbol overflow="visible" id="h"><path d="M3.703-5.516c-.453.047-.86.063-1.156.063.172-.984.297-1.578.531-2.25l-.25-.328a7.16 7.16 0 0 1-1.094.531l-.296 2.031c-.391.203-.704.328-1.063.407l-.047.406h1l-.64 3.25C.625-1.11.53-.813.53-.5c0 .297.266.61.5.61.422 0 .922-.282 1.86-1.032.218-.172.14-.125.437-.36l-.25-.437-.672.469c-.36.25-.484.313-.625.313-.093 0-.031.046-.031-.11 0-.297.156-1.234.516-3l.14-.61h1.266l.203-.89zm0 0"/></symbol><symbol overflow="visible" id="i"><path d="M3.766-2.719v-.797c0-1.515-.907-3.171-2.516-4.78-.11.202-.156.265-.203.327-.063.063-.125.11-.313.203 1.438 1.47 2.032 2.86 2.032 4.25v.797c0 1.375-.594 2.781-2.032 4.25.188.094.25.14.313.203.047.063.094.125.203.329C2.86.452 3.766-1.204 3.766-2.72zm0 0"/></symbol><symbol overflow="visible" id="j"><path d="M8.266-4.078a1.419 1.419 0 0 1-.047-.36c0-.109.015-.234.062-.484h-7.5c.063.25.063.375.063.484 0 .125 0 .235-.063.5h7.5zm0 2.625a1.332 1.332 0 0 1-.047-.36c0-.109.015-.234.062-.484h-7.5c.063.25.063.375.063.485 0 .125 0 .25-.063.5h7.5zm0 0"/></symbol><symbol overflow="visible" id="k"><path d="M1.656 1.656v-9.719A1.95 1.95 0 0 1 1.25-8c-.11 0-.203-.016-.438-.063v9.891c.235-.062.329-.078.438-.078.094 0 .188.016.406.078zm0 0"/></symbol><symbol overflow="visible" id="l"><path d="M4.984-1.14l-.156-.485c-.25.203-.266.219-.328.266-.375.312-.453.39-.625.39-.125 0-.047.031-.047-.156 0-.047 0-.078.016-.125l1.11-4.578-.25-.203-.438.218c-.438-.156-.672-.218-.985-.218-.344 0-.578.062-.906.218-.75.375-1.234.766-1.531 1.36l-.047.094C.28-3.297-.093-1.875-.093-.922c0 .516.327 1.047.546 1.047.25 0 .797-.281 1.234-.656.516-.453.985-1.016 1.641-1.938l-.234-.094-.344 1.516a2.715 2.715 0 0 0-.078.61c0 .265.25.562.437.562.266 0 .86-.36 1.891-1.219zM3.672-5.079c-.266 1.281-.453 1.797-.844 2.406C2.156-1.656 1.516-.969 1.125-.969c-.14 0-.078-.015-.078-.344 0-.765.297-2.093.719-3.093.296-.688.453-.766 1.03-.766.282 0 .5.047.86.172zm0 0"/></symbol><symbol overflow="visible" id="m"><path d="M6.234-1.25l-.171-.297-.454.297c-.343.219-.5.313-.625.313-.078 0-.03.03-.03-.11 0-.047.015-.187.03-.234l.782-3.297c.093-.344.14-.688.14-.89 0-.266-.265-.563-.5-.563-.5 0-1.437.5-2.14 1.156-.454.422-.797.828-1.407 1.703l.235.094.453-1.938c.047-.203.078-.343.078-.484 0-.25-.234-.531-.406-.531-.266 0-.828.312-1.703.922l-.391.296.172.485.547-.36c.437-.28.39-.265.469-.265.14 0 .078 0 .078.172 0 .61-.5 2.922-.985 4.656l.172.25c.36-.094.625-.172 1.016-.234.234-1.625.468-2.313 1-3.125.656-1.016 1.453-1.72 1.984-1.72.125 0 .063-.015.063.157 0 .219-.032.469-.141.86l-.61 2.53c-.109.438-.156.72-.156.907 0 .297.266.61.5.61.313 0 .829-.282 2.079-1.22zm0 0"/></symbol><symbol overflow="visible" id="n"><path d="M6.047-5.328l-.078-.14c-.39.109-.625.14-1.219.14-.14-.281-.36-.422-.656-.547a2.495 2.495 0 0 0-.813-.156c-.484 0-1.187.265-1.719.672A2.62 2.62 0 0 0 .516-3.234c0 .921.671 1.609 1.593 1.609.11 0 .235 0 .36-.016l-.11-.218-.484.453c-.188.172-.36.484-.36.656 0 .11.126.344.126.344C1-.187.53.03.078.39c-.406.343-.656.906-.656 1.375 0 .859.969 1.53 2.281 1.53 1.531 0 3.016-.983 3.016-1.983 0-.422-.282-.954-.797-1.375l-.719-.579c-.406-.328-.531-.453-.531-.687 0-.11.047-.125.219-.36.03-.046.046-.062.046-.062 1.11-.281 2.079-1.406 2.079-2.469 0-.11 0-.218-.032-.39l.032.093h.234c.203 0 .313-.015.703-.062l.125-.672zm-2.39 7.031c0 .625-.688 1-1.673 1C1 2.703.454 2.328.454 1.61c0-.468.187-.78.562-1.109C1.328.25 1.5.172 2.062 0l.86.656c.547.438.734.656.734 1.047zm.234-5.906c0 1.234-.438 1.937-1.266 1.937-.734 0-.984-.359-.984-1.312 0-1.125.468-1.781 1.343-1.781.704 0 .907.296.907 1.156zm0 0"/></symbol><symbol overflow="visible" id="o"><path d="M4.61-4.953c0-.563-.532-1.078-1.141-1.078-.781 0-2.188.843-2.672 1.61C.437-3.845.03-2.313.03-1.47.031-.547.703.125 1.563.125 2.25.125 3-.235 4.171-1.188l-.203-.468-.438.312c-.64.453-1.11.657-1.531.657-.578 0-.781-.313-.781-1.047 0-.313.031-.61.078-.844l.86-.219c.202-.047.515-.172.827-.297C4-3.547 4.61-4.219 4.61-4.954zm-1.173.187c0 .516-.265.954-.89 1.25a5.596 5.596 0 0 1-1.125.375l.062-.265c.188-.797.391-1.219.72-1.516.218-.219.515-.344.812-.344.343 0 .421.11.421.5zm0 0"/></symbol><symbol overflow="visible" id="C"><path d="M5.953-5.875l-.203-.156c-.375.14-.64.203-1.016.234l-.453 1.703c-.14.563-.531 1.344-.922 1.938-.421.61-.89 1.094-1.156 1.094-.265 0-.11-.438-.094-.594l.172-2.328c.031-.36.047-.829.047-1.157 0-.53-.219-.89-.422-.89-.156 0-.422.125-1 .515L-.14-4.78l.266.437.734-.453c.063-.047.125-.11.204-.11.312 0 .125.485.109.673L.969-1.328l-.016.484c-.015.5.36.969.656.969.454 0 1.547-1.047 2.438-2.39l-.234-.094-.579 2.03c-.609 2.126-1.078 2.86-1.906 2.86-.422 0-.61-.187-.61-.61 0-.062.016-.155.032-.343l-.297-.11-.672.485c-.015.156-.015.219-.015.281 0 .516.578 1.063 1.125 1.063 1.265 0 2.703-1.61 3.406-3.828L6-5.828zm0 0"/></symbol><symbol overflow="visible" id="p"><path d="M4.875-4.406c-.125-.063-.313-.125-.406-.125-.39 0-.875.343-1.485 1.172l-.359.484.266.094-.063-.422c-.11-.875-.515-1.328-1.094-1.328-.25 0-.578.093-.656.218l-.656.875.406.22c.36-.376.453-.47.64-.47.313 0 .36.235.532 1.094l.094.531-.328.485C1.344-1 1.14-.75.859-.75c-.14 0-.093.11-.109.063l-.172-.407-.437.063c0 .297-.032.406-.094.687-.016.11-.016.14-.031.266.187.11.468.172.578.172.312 0 .797-.281 1.094-.703l.734-1.032-.266-.109.11.61c.14.765.5 1.234.859 1.234.203 0 .625-.188.938-.438l.53-.437-.202-.438c-.516.39-.641.485-.797.485-.14 0-.172-.047-.266-.235a2.77 2.77 0 0 1-.187-.656l-.188-.86.313-.374c.453-.563.593-.735.89-.735.157 0 .11-.062.235.235l.359-.11.172-.906zm0 0"/></symbol><symbol overflow="visible" id="q"><path d="M3.078-4.156c-.36.031-.687.047-.875.047.125-.704.219-1.141.406-1.641l-.218-.281c-.36.187-.5.25-.938.406L1.22-4.109a5.102 5.102 0 0 1-.86.312l-.046.344h.796L.594-1.078C.547-.86.469-.641.469-.406c0 .219.265.484.453.484.344 0 .765-.219 1.531-.765.172-.125.11-.094.375-.282l-.234-.39L2-1c-.297.188-.36.234-.469.234-.078 0 .016.063.016-.046 0-.22.125-.922.422-2.22l.093-.421h1.032l.172-.735zm0 0"/></symbol><symbol overflow="visible" id="r"><path d="M4.156-.89L4-1.298c-.25.188-.25.188-.297.219-.312.25-.344.297-.484.297-.094 0 0 .062 0-.094 0-.031 0-.063.015-.078l.891-3.406-.234-.188-.36.172C3.187-4.5 3-4.531 2.734-4.531c-.265 0-.468.047-.718.156-.61.266-1.047.578-1.282 1.016C.313-2.58-.03-1.422-.03-.72c0 .375.312.813.484.813.203 0 .672-.219 1.031-.5.407-.328.797-.75 1.329-1.438l-.266-.093-.281 1.125a1.58 1.58 0 0 0-.063.453c0 .203.25.453.39.453.22 0 .735-.281 1.595-.938zm-1.14-2.907c-.22.938-.36 1.313-.672 1.766C1.813-1.297 1.313-.781 1-.781c-.125 0-.031.015-.031-.235 0-.562.25-1.546.594-2.28.234-.517.312-.548.78-.548.22 0 .407.047.657.125zm0 0"/></symbol><symbol overflow="visible" id="s"><path d="M5.156-.984L5-1.234 4.594-1c-.282.172-.39.234-.469.234-.078 0 .016.063.016-.046 0-.032-.032-.032.015-.157l.64-2.453c.063-.265.11-.515.11-.656 0-.203-.265-.453-.453-.453-.406 0-1.187.375-1.766.86-.359.312-.624.608-1.124 1.25l.265.093.36-1.422c.046-.156.062-.266.062-.36 0-.187-.234-.421-.375-.421-.203 0-.703.218-1.39.687l-.344.219.172.438.5-.297c.343-.204.265-.188.343-.188.11 0 .016-.047.016.094 0 .453-.406 2.156-.813 3.453l.172.219c.313-.078.531-.125.875-.188.203-1.218.375-1.703.813-2.312.531-.75 1.125-1.266 1.562-1.266.11 0 .016-.047.016.078 0 .172-.031.344-.11.64l-.5 1.876c-.093.328-.124.531-.124.672 0 .219.265.484.453.484.234 0 .687-.219 1.718-.922zm0 0"/></symbol><symbol overflow="visible" id="t"><path d="M5-4.016l-.063-.109a3.64 3.64 0 0 1-.984.11c-.11-.204-.328-.313-.562-.407a2.296 2.296 0 0 0-.641-.11c-.406 0-1 .204-1.422.485a1.983 1.983 0 0 0-.875 1.625c0 .672.594 1.219 1.344 1.219.078 0 .187 0 .297-.016l-.125-.218-.39.328c-.157.14-.298.39-.298.515 0 .094.094.281.063.25-.438.125-.86.297-1.219.578-.328.25-.547.688-.547 1.047 0 .625.828 1.157 1.89 1.157 1.235 0 2.485-.766 2.485-1.5 0-.313-.25-.735-.672-1.047l-.578-.438c-.328-.234-.406-.297-.406-.469 0-.078.015-.078.156-.25.031-.03.031-.03.031-.046.86-.188 1.704-1.063 1.704-1.844 0-.094 0-.172-.032-.328l.094.14h.078c.156 0 .266-.015.61-.047l.109-.53zm-2 5.25c0 .454-.516.704-1.313.704-.78 0-1.187-.25-1.187-.782C.5.813.625.61.938.36c.25-.187.359-.234.812-.343l.672.468c.437.313.578.454.578.75zm.188-4.39c0 .922-.313 1.406-.985 1.406-.594 0-.75-.234-.75-.938 0-.843.344-1.28 1.047-1.28.563 0 .688.187.688.812zm0 0"/></symbol><symbol overflow="visible" id="u"><path d="M3.86-3.719c0-.406-.47-.812-.97-.812-.624 0-1.796.625-2.187 1.187C.422-2.906.078-1.75.078-1.125.078-.437.656.094 1.36.094c.547 0 1.188-.281 2.141-1l-.172-.406-.422.25c-.5.343-.86.484-1.203.484-.469 0-.594-.203-.594-.735 0-.234.032-.453.063-.609l.656-.156c.172-.031.422-.125.672-.219.828-.328 1.36-.86 1.36-1.422zm-1.032.14c0 .392-.172.688-.687.907-.266.11-.61.219-.86.266l.047-.156c.156-.594.297-.876.563-1.094a.954.954 0 0 1 .64-.235c.266 0 .297.032.297.313zm0 0"/></symbol><symbol overflow="visible" id="w"><path d="M3.156-5.86c-.062-.03-.094-.062-.14-.109-.047-.047-.079-.093-.188-.281C1.594-5.016.906-3.766.906-2.64v.578c0 1.124.688 2.39 1.922 3.624.11-.203.14-.25.188-.28.046-.048.078-.079.265-.173C2.171-.016 1.75-1.03 1.75-2.062v-.579c0-1.03.422-2.03 1.531-3.156zm0 0"/></symbol><symbol overflow="visible" id="x"><path d="M2.844-2.063v-.578c0-1.125-.688-2.375-1.938-3.609-.094.188-.125.234-.172.281-.046.047-.093.078-.265.172C1.579-4.672 2-3.672 2-2.64v.579C2-1.032 1.578-.017.469 1.108c.172.094.219.125.265.172.047.032.079.078.172.282 1.25-1.235 1.938-2.5 1.938-3.625zm0 0"/></symbol><symbol overflow="visible" id="y"><path d="M1.281 1.203v-7.266C1.063-6 1-6 .921-6c-.077 0-.14 0-.374-.063v7.438c.234-.063.297-.078.375-.078.078 0 .14.016.36.078zm0 0"/></symbol><symbol overflow="visible" id="z"><path d="M5.64-5.11c0-.734-.937-1.28-1.687-1.28-.469 0-.953.015-1.437.015l-1.61-.031-.047.531.672.016c.235 0 .188-.063.188.093 0 .125-.047.422-.094.688L.781-.625c-.015.172.016.094-.531.172l-.11.5C.626.016.938 0 1.22 0c.515 0 1.031.031 1.547.031a3.24 3.24 0 0 0 1.484-.39c.766-.407 1.234-1.11 1.234-1.782 0-.39-.171-.78-.437-.968-.25-.188-.656-.297-1.313-.391v.266c.547-.172.875-.329 1.188-.563.437-.36.719-.86.719-1.312zM4.329-2c0 .906-.547 1.438-1.516 1.438-.187 0-.468-.016-.796-.047a.913.913 0 0 1-.157-.016l.454-2.39H3c1 0 1.328.25 1.328 1.015zM4.5-4.953c0 .937-.563 1.36-1.75 1.36h-.328l.406-2.173c.156 0 .39-.03.656-.03.782 0 1.016.187 1.016.843zm0 0"/></symbol><symbol overflow="visible" id="B"><path d="M4.86-6.625l-.188-.156c-.531.25-.89.328-1.719.406l-.078.438h.64c.235 0 .172-.063.172.078 0 .078-.015.156-.015.218l-.25 1.188a3.598 3.598 0 0 0-.656-.078c-.672 0-1.688.672-2.141 1.437C.328-2.578.094-1.64.094-.89c0 .579.312.985.578.985.265 0 .734-.188 1.062-.422.516-.39.829-.734 1.485-1.625l-.266-.11-.219.813c-.109.39-.156.672-.156.906 0 .188.235.438.406.438.172 0 .5-.157.829-.375l.859-.594-.234-.406-.579.375c-.14.094-.187.125-.265.125-.078 0 .015.047.015-.078 0-.079.016-.157.079-.407l1.218-5.312zm-1.563 2.86l-.11.515a3.695 3.695 0 0 1-1.203 1.984c-.343.297-.609.485-.796.485-.157 0-.094 0-.094-.219 0-1.125.406-2.406.875-2.734.125-.094.203-.11.468-.11.422 0 .704.063.844.14zm0 0"/></symbol><symbol overflow="visible" id="D"><path d="M4.922-4.422l-.172-.125c-.313.11-.547.156-.875.188L3.5-3.063c-.11.407-.406.97-.734 1.391-.329.453-.688.813-.891.813-.219 0-.047-.297-.047-.407l.14-1.718c.032-.282.048-.61.048-.86 0-.406-.22-.687-.391-.687-.125 0-.36.093-.828.39l-.89.547.265.39.64-.358c.047-.032.063-.063.141-.063.25 0 .047.313.047.453L.828-1.016l-.015.344c0 .375.343.766.578.766.359 0 1.28-.781 2-1.782l-.266-.109L2.656-.28c-.5 1.578-.828 2.094-1.5 2.094-.328 0-.453-.11-.453-.422 0-.047.016-.11.047-.266l-.297-.11-.594.376c-.015.14-.015.187-.015.234 0 .375.531.813.969.813 1.015 0 2.218-1.22 2.796-2.86l1.375-3.953zm0 0"/></symbol><symbol overflow="visible" id="v"><path d="M3.969-3.375c-.094-.047-.266-.11-.344-.11-.313 0-.734.282-1.203.891l-.297.36.297.109-.047-.313c-.094-.64-.469-1.046-.922-1.046-.203 0-.5.109-.562.187l-.563.703.39.203c.329-.296.36-.343.5-.343.266 0 .25.109.391.765l.079.375-.25.328c-.329.438-.485.594-.688.594-.125 0-.047.14-.047.11l-.172-.36-.406.047c0 .281-.016.36-.063.578-.015.078-.015.094-.046.219.296.125.421.156.515.156.25 0 .672-.25.906-.547l.375-.484.016.062c.11.563.438.97.719.97.172 0 .531-.157.781-.36l.453-.344-.203-.406c-.453.328-.531.375-.656.375-.11 0-.094-.016-.172-.156-.078-.125-.11-.25-.14-.438l-.141-.625.219-.266c.359-.421.453-.53.687-.53.125 0 .047-.095.156.171l.344-.078.156-.75zm0 0"/></symbol><symbol overflow="visible" id="A"><path d="M2.14-3.703l-.187-.172L1-3.562.266-.86l.296.187.516-.203 1.14-2.766zm0 0"/></symbol><symbol overflow="visible" id="E"><path d="M4.016-3.375L3.844-3.5a2.55 2.55 0 0 1-.719.156l-.313 1.016c-.093.312-.312.672-.562 1-.281.328-.531.578-.703.578-.172 0 .016-.156.016-.25l.125-1.266c.015-.203.015-.453.015-.64 0-.297-.203-.578-.344-.578-.093 0-.312.093-.687.312l-.735.438.235.359.562-.297c.047-.015.032-.031.079-.031.203 0 0 .187 0 .297L.671-.812v.265c-.016.281.312.625.5.625.281 0 1.047-.61 1.625-1.36L2.5-1.374 2.125-.25C1.735.906 1.531 1.234.985 1.234c-.266 0-.313-.03-.313-.25 0-.03 0-.093.031-.234L.422.64l-.5.313c-.016.125-.016.172-.016.203 0 .282.453.657.797.657.813 0 1.828-.97 2.281-2.188l1.094-2.953zm0 0"/></symbol></defs><use xlink:href="#a" x="-.616" y="10.063"/><use xlink:href="#b" x="-.616" y="15.767"/><use xlink:href="#c" x="-.616" y="28.621"/><use xlink:href="#b" x="-.616" y="34.325"/><use xlink:href="#d" x="-.616" y="40.269"/><use xlink:href="#e" x="13.092" y="13.857"/><use xlink:href="#f" x="6.493" y="13.857"/><use xlink:href="#g" x="12.602" y="13.857"/><use xlink:href="#h" x="17.671" y="13.857"/><use xlink:href="#i" x="21.712" y="13.857"/><use xlink:href="#j" x="30.104" y="13.857"/><use xlink:href="#k" x="42.514" y="13.857"/><use xlink:href="#k" x="45" y="13.857"/><use xlink:href="#h" x="47.487" y="13.857"/><use xlink:href="#l" x="51.528" y="13.857"/><use xlink:href="#m" x="56.836" y="13.857"/><use xlink:href="#n" x="63.483" y="13.857"/><use xlink:href="#o" x="69.772" y="13.857"/><use xlink:href="#m" x="74.578" y="13.857"/><use xlink:href="#h" x="81.225" y="13.857"/><use xlink:href="#p" x="85.212" y="16.631"/><use xlink:href="#g" x="90.712" y="13.857"/><use xlink:href="#h" x="95.781" y="13.857"/><use xlink:href="#i" x="99.822" y="13.857"/><use xlink:href="#k" x="104.891" y="13.857"/><use xlink:href="#k" x="107.378" y="13.857"/><use xlink:href="#j" x="113.176" y="13.857"/><use xlink:href="#q" x="128.165" y="7.003"/><use xlink:href="#r" x="131.556" y="7.003"/><use xlink:href="#s" x="136.018" y="7.003"/><use xlink:href="#t" x="141.56" y="7.003"/><use xlink:href="#u" x="146.704" y="7.003"/><use xlink:href="#s" x="150.635" y="7.003"/><use xlink:href="#q" x="156.177" y="7.003"/><use xlink:href="#v" x="159.568" y="9.058"/><use xlink:href="#w" x="164.18" y="7.003"/><use xlink:href="#q" x="167.934" y="7.003"/><use xlink:href="#x" x="171.325" y="7.003"/><path d="M126.79 10.867h49.667" fill="none" stroke-width=".717" stroke="#000" stroke-miterlimit="10"/><use xlink:href="#y" x="126.788" y="18.168"/><use xlink:href="#y" x="128.63" y="18.168"/><use xlink:href="#q" x="130.471" y="18.168"/><use xlink:href="#r" x="133.862" y="18.168"/><use xlink:href="#s" x="138.324" y="18.168"/><use xlink:href="#t" x="143.866" y="18.168"/><use xlink:href="#u" x="149.001" y="18.168"/><use xlink:href="#s" x="152.932" y="18.168"/><use xlink:href="#q" x="158.475" y="18.168"/><use xlink:href="#w" x="161.866" y="18.168"/><use xlink:href="#q" x="165.619" y="18.168"/><use xlink:href="#x" x="169.01" y="18.168"/><use xlink:href="#y" x="172.764" y="18.168"/><use xlink:href="#y" x="174.606" y="18.168"/><use xlink:href="#j" x="180.972" y="13.857"/><use xlink:href="#z" x="194.575" y="7.321"/><use xlink:href="#A" x="200.648" y="4.186"/><use xlink:href="#v" x="200.648" y="9.375"/><use xlink:href="#w" x="205.26" y="7.321"/><use xlink:href="#q" x="209.014" y="7.321"/><use xlink:href="#x" x="212.405" y="7.321"/><path d="M194.574 10.867h21.582" fill="none" stroke-width=".717" stroke="#000" stroke-miterlimit="10"/><g><use xlink:href="#B" x="202.865" y="18.779"/></g><g><use xlink:href="#e" x="13.108" y="35.58"/></g><g><use xlink:href="#C" x="6.437" y="35.58"/></g><g><use xlink:href="#g" x="12.618" y="35.58"/><use xlink:href="#h" x="17.687" y="35.58"/></g><g><use xlink:href="#i" x="21.728" y="35.58"/></g><g><use xlink:href="#j" x="30.108" y="35.58"/></g><g><use xlink:href="#k" x="42.518" y="35.58"/><use xlink:href="#k" x="45.004" y="35.58"/><use xlink:href="#h" x="47.491" y="35.58"/></g><g><use xlink:href="#l" x="51.532" y="35.58"/><use xlink:href="#m" x="56.84" y="35.58"/><use xlink:href="#n" x="63.487" y="35.58"/></g><g><use xlink:href="#o" x="69.776" y="35.58"/></g><g><use xlink:href="#m" x="74.582" y="35.58"/><use xlink:href="#h" x="81.229" y="35.58"/></g><g><use xlink:href="#D" x="85.217" y="38.354"/></g><g><use xlink:href="#g" x="90.779" y="35.58"/><use xlink:href="#h" x="95.848" y="35.58"/></g><g><use xlink:href="#i" x="99.889" y="35.58"/><use xlink:href="#k" x="104.958" y="35.58"/><use xlink:href="#k" x="107.445" y="35.58"/></g><g><use xlink:href="#j" x="113.243" y="35.58"/></g><g><use xlink:href="#q" x="128.232" y="27.3"/><use xlink:href="#r" x="131.623" y="27.3"/><use xlink:href="#s" x="136.085" y="27.3"/><use xlink:href="#t" x="141.627" y="27.3"/></g><g><use xlink:href="#u" x="146.762" y="27.3"/><use xlink:href="#s" x="150.693" y="27.3"/><use xlink:href="#q" x="156.236" y="27.3"/></g><g><use xlink:href="#E" x="159.635" y="29.354"/></g><g><use xlink:href="#w" x="164.247" y="27.3"/><use xlink:href="#q" x="168.001" y="27.3"/><use xlink:href="#x" x="171.392" y="27.3"/></g><path d="M126.855 32.59h49.668" fill="none" stroke-width=".717" stroke="#000" stroke-miterlimit="10"/><g><use xlink:href="#y" x="126.855" y="39.891"/><use xlink:href="#y" x="128.697" y="39.891"/><use xlink:href="#q" x="130.538" y="39.891"/><use xlink:href="#r" x="133.929" y="39.891"/><use xlink:href="#s" x="138.391" y="39.891"/><use xlink:href="#t" x="143.933" y="39.891"/></g><g><use xlink:href="#u" x="149.068" y="39.891"/><use xlink:href="#s" x="152.999" y="39.891"/><use xlink:href="#q" x="158.542" y="39.891"/><use xlink:href="#w" x="161.933" y="39.891"/><use xlink:href="#q" x="165.686" y="39.891"/><use xlink:href="#x" x="169.077" y="39.891"/><use xlink:href="#y" x="172.831" y="39.891"/><use xlink:href="#y" x="174.673" y="39.891"/></g><g><use xlink:href="#j" x="181.039" y="35.58"/></g><g><use xlink:href="#z" x="194.641" y="27.3"/></g><g><use xlink:href="#A" x="200.715" y="24.165"/></g><g><use xlink:href="#E" x="200.715" y="29.354"/></g><g><use xlink:href="#w" x="205.326" y="27.3"/><use xlink:href="#q" x="209.08" y="27.3"/><use xlink:href="#x" x="212.471" y="27.3"/></g><path d="M194.64 32.59h21.587" fill="none" stroke-width=".717" stroke="#000" stroke-miterlimit="10"/><g><use xlink:href="#B" x="202.932" y="40.502"/></g></svg>