<svg xmlns="http://www.w3.org/2000/svg" xmlns:xlink="http://www.w3.org/1999/xlink" width="158pt" height="40" viewBox="0 0 158 30"><defs><symbol overflow="visible" id="a"><path d="M5.078 11.516a.946.946 0 0 1-.031-.235c0-.078.016-.172.031-.234H2.672v-28.063h2.406c-.016-.078-.031-.156-.031-.25 0-.078.016-.156.031-.234H1.703v29.016zm0 0"/></symbol><symbol overflow="visible" id="b"><path d="M5.781-5.64c-.14-.079-.25-.126-.36-.126-.468 0-.952.438-1.687 1.532l-.453.656-.062-.563c-.14-1.187-.469-1.625-1.172-1.625-.313 0-.578.094-.688.25l-.687 1 .203.11c.36-.407.594-.563.828-.563.39 0 .656.485.86 1.657l.124.75-.468.734C1.703-1.031 1.297-.641.953-.641.781-.64.641-.687.625-.75l-.14-.344-.235.047c0 .234-.016.39-.094.766-.031.156-.031.187-.047.265.172.094.375.141.516.141.39 0 .86-.344 1.234-.906l.907-1.39.125.827C3.062-.328 3.328.125 3.75.125c.266 0 .656-.203 1.031-.547l.578-.516-.093-.234c-.438.36-.735.531-.922.531C4.156-.64 4-.75 3.89-.984a4.761 4.761 0 0 1-.313-1.032l-.203-1.203.422-.578c.547-.781.875-1.062 1.25-1.062.187 0 .328.109.39.28l.172-.046zm0 0"/></symbol><symbol overflow="visible" id="d"><path d="M5.86-5.656l-.141-.11c-.344.141-.61.204-.875.235l-.422 1.578c-.14.562-.563 1.437-.953 2.015-.422.61-1 1.141-1.266 1.141-.265 0-.25-.578-.234-.734l.187-2.313c.016-.375.047-.828.047-1.172 0-.53-.094-.75-.297-.75-.156 0-.312.094-.89.485L.03-4.61l.14.203.595-.344c.062-.063.218-.156.296-.156.313 0 .266.61.25.812L1.11-1.187l-.015.468c0 .5.218.844.515.844.454 0 1.454-1.016 2.344-2.36L3.375-.187c-.61 2.11-1.219 2.985-2.047 2.985a.737.737 0 0 1-.75-.735c0-.062.016-.156.031-.265L.484 1.75l-.562.406c-.016.078-.016.156-.016.203 0 .516.438.938.985.938 1.265 0 2.578-1.485 3.28-3.688zm0 0"/></symbol><symbol overflow="visible" id="e"><path d="M4.516 11.516V-17.5H1.14a.648.648 0 0 1 0 .484h2.421v28.063H1.142a.57.57 0 0 1 .046.234.522.522 0 0 1-.046.235zm0 0"/></symbol><symbol overflow="visible" id="f"><path d="M8.125-3.938c-.016-.124-.031-.25-.031-.359 0-.125.015-.25.031-.36H.953c.031.11.031.235.031.36 0 .11 0 .234-.03.36zm0 2.626c-.016-.125-.031-.235-.031-.36s.015-.234.031-.36H.953a1.4 1.4 0 0 1 .031.36c0 .125 0 .234-.03.36zm0 0"/></symbol><symbol overflow="visible" id="j"><path d="M4.11-7.61a.735.735 0 0 1-.188-.14c-.063-.063-.11-.11-.14-.188-1.47 1.47-2.345 3.032-2.345 4.563v.781c0 1.516.875 3.078 2.344 4.547a.735.735 0 0 1 .14-.187.735.735 0 0 1 .188-.141C2.781.281 2.156-1.203 2.156-2.594v-.781c0-1.39.625-2.89 1.953-4.234zm0 0"/></symbol><symbol overflow="visible" id="k"><path d="M7.234-3.797c.032-1.125-.78-1.86-2.125-1.922a.44.44 0 0 0-.203 0c.157-.781.282-1.281.485-1.797l-.125-.187c-.235.14-.563.25-.938.39l-.281 1.657a6.038 6.038 0 0 0-1.11.343C1.516-4.671.704-3.484.658-1.983.608-.688 1.343.03 2.718.094c.078 0 .156.015.219 0l-.626 2.672-.109.421.078.094c.25-.078.485-.125.875-.156L3.734.031a5.244 5.244 0 0 0 1.61-.594c1.078-.656 1.86-2 1.89-3.234zm-.906.14c-.047 1.173-.734 2.407-1.578 3-.25.173-.578.282-.953.329.047-.156.078-.297.094-.36l.25-1.265.53-2.688.141-.625c.985.125 1.532.688 1.516 1.61zm-2.36-1.64L3.017-.359c-1.063-.172-1.485-.688-1.47-1.563.048-1.36.923-2.781 1.845-3.234.14-.063.343-.11.578-.14zm0 0"/></symbol><symbol overflow="visible" id="l"><path d="M3.64-2.594v-.781c0-1.531-.874-3.094-2.343-4.563-.047.079-.094.125-.156.188a.427.427 0 0 1-.188.14c1.328 1.344 1.969 2.844 1.969 4.235v.781c0 1.39-.64 2.875-1.969 4.219.078.031.14.078.188.14.062.063.109.126.156.188C2.766.484 3.64-1.078 3.64-2.594zm0 0"/></symbol><symbol overflow="visible" id="m"><path d="M8.125-2.625c-.016-.125-.031-.25-.031-.36 0-.124.015-.25.031-.359H.953c.031.11.031.235.031.36 0 .109 0 .234-.03.359zm0 0"/></symbol><symbol overflow="visible" id="c"><path d="M2.5-4.438l-.156-.14-.906.328-.86 3.219.172.125.36-.188zm0 0"/></symbol><symbol overflow="visible" id="g"><path d="M.313-2.516c0 1.625 1.14 2.75 2.734 2.75.625 0 1.515-.218 1.64-.406l.25-.375-.125-.187c-.437.25-.812.359-1.25.359-1.328 0-2.203-1.031-2.203-2.61 0-1.28.594-2 1.672-2 .531 0 1.11.235 1.313.532l.093.734h.329c0-.547.062-1.031.171-1.469-.484-.28-.89-.421-1.39-.421-.578 0-1.235.234-1.953.687C.75-4.406.312-3.562.312-2.516zm0 0"/></symbol><symbol overflow="visible" id="h"><path d="M.375-2.594C.375-.906 1.453.234 2.985.234c1.843 0 3.156-1.28 3.156-3.062 0-1.625-1.172-2.781-2.813-2.781C1.594-5.61.375-4.375.375-2.594zM1.5-3c0-1.438.563-2.219 1.625-2.219 1.094 0 1.906 1.203 1.906 2.828 0 1.375-.61 2.235-1.578 2.235C2.281-.156 1.5-1.296 1.5-3zm0 0"/></symbol><symbol overflow="visible" id="i"><path d="M.36-.047C.983.156 1.452.234 2 .234c1.563 0 2.672-.828 2.672-2 0-.375-.094-.656-.328-.89-.313-.313-.703-.438-1.766-.64-.969-.188-1.297-.438-1.297-.985 0-.594.422-.938 1.14-.938.813 0 1.423.422 1.423.985v.28h.328c.016-.702.031-.983.062-1.358-.64-.204-1.062-.297-1.562-.297-1.375 0-2.235.656-2.235 1.734 0 .578.266.984.813 1.234.328.141.969.329 1.781.516.531.11.766.375.766.828 0 .64-.61 1.094-1.453 1.094-.875 0-1.5-.422-1.5-1.016v-.484h-.36C.484-.891.454-.531.36-.047zm0 0"/></symbol><symbol overflow="visible" id="n"><path d="M.25.031C.75.016 1.25 0 1.75 0s.984.016 1.484.031v-.36l-.546-.03c-.407-.016-.438-.11-.438-.86v-4.343l-.11-.047c-.609.25-1.234.421-1.859.5v.328H.72c.469 0 .531.078.531.875v2.687c0 .75-.047.844-.453.86L.25-.33zm.89-7.11c0 .36.25.595.61.595s.594-.235.594-.594c0-.344-.235-.594-.594-.594-.36 0-.61.234-.61.594zm0 0"/></symbol><symbol overflow="visible" id="o"><path d="M.078.031C.562.016 1.063 0 1.547 0c.5 0 1 .016 1.484.031v-.36L2.5-.358c-.406-.016-.438-.11-.438-.86V-3.75c0-.547.782-1.125 1.516-1.125.797 0 1.328.594 1.328 1.516V.03C5.22.016 5.531 0 5.844 0c.343 0 .656.016 1 .031v-.36l-.5-.03c-.407-.016-.438-.094-.438-.86V-3.53c0-1.39-.656-2.078-2-2.078-.437 0-.687.093-.937.296l-.906.797v-1.046l-.11-.047c-.61.25-1.234.421-1.875.5v.328h.453c.469 0 .516.078.516.875v2.687c0 .75-.031.844-.438.86l-.53.03zm0 0"/></symbol></defs><use xlink:href="#a" x="-.979" y="18.135"/><use xlink:href="#b" x="5.286" y="10.812"/><use xlink:href="#c" x="11.407" y="6.58"/><use xlink:href="#d" x="5.25" y="25.258"/><use xlink:href="#c" x="11.443" y="21.025"/><use xlink:href="#e" x="15.011" y="18.135"/><use xlink:href="#f" x="24.551" y="18.135"/><use xlink:href="#a" x="36.961" y="18.135"/><use xlink:href="#g" x="43.196" y="10.812"/><use xlink:href="#h" x="48.504" y="10.812"/><use xlink:href="#i" x="55.032" y="10.812"/><use xlink:href="#j" x="60.101" y="10.812"/><use xlink:href="#k" x="65.17" y="10.812"/><use xlink:href="#l" x="72.785" y="10.812"/><use xlink:href="#m" x="87.813" y="10.812"/><use xlink:href="#i" x="98.896" y="10.812"/><use xlink:href="#n" x="103.965" y="10.812"/><use xlink:href="#o" x="107.396" y="10.812"/><use xlink:href="#j" x="114.354" y="10.812"/><use xlink:href="#k" x="119.423" y="10.812"/><use xlink:href="#l" x="127.038" y="10.812"/><use xlink:href="#i" x="43.92" y="25.258"/><use xlink:href="#n" x="48.989" y="25.258"/><use xlink:href="#o" x="52.42" y="25.258"/><g><use xlink:href="#j" x="59.378" y="25.258"/><use xlink:href="#k" x="64.447" y="25.258"/><use xlink:href="#l" x="72.062" y="25.258"/></g><g><use xlink:href="#g" x="92.633" y="25.258"/><use xlink:href="#h" x="97.941" y="25.258"/><use xlink:href="#i" x="104.469" y="25.258"/></g><g><use xlink:href="#j" x="109.538" y="25.258"/><use xlink:href="#k" x="114.607" y="25.258"/><use xlink:href="#l" x="122.222" y="25.258"/></g><g><use xlink:href="#e" x="132.107" y="18.135"/></g><g><use xlink:href="#a" x="140.32" y="18.135"/></g><g><use xlink:href="#b" x="146.593" y="10.812"/></g><g><use xlink:href="#d" x="146.557" y="25.258"/></g><g><use xlink:href="#e" x="152.75" y="18.135"/></g></svg>