<svg xmlns:xlink="http://www.w3.org/1999/xlink" width="13.833ex" height="2.5ex" style="vertical-align:-.667ex;margin-bottom:1px;margin-top:1px" viewBox="0 -771.9 5978.6 1043.9" xmlns="http://www.w3.org/2000/svg"><defs><path stroke-width="10" id="a" d="M552 636c0-38-29-60-55-60-19 0-37 12-37 35 0 15 10 50 54 54-19 18-45 18-49 18-21 0-38-15-47-34-6-12-20-83-24-104-11-58-10-56-21-114h83c17 0 27 0 27-11 0-20-10-20-30-20h-86L307 83c-1-7-24-128-56-191-18-38-58-97-113-97-41 0-85 24-85 69 0 38 29 60 55 60 19 0 37-12 37-35 0-15-9-51-55-54 19-18 44-18 48-18 52 0 69 91 87 188l75 395h-66c-19 0-28 0-28 12 0 19 11 19 30 19h69c24 126 27 136 33 157 30 99 93 117 127 117 41 0 87-23 87-69z"/><path stroke-width="10" id="b" d="M332-238c0-5-5-10-10-10-2 0-4 1-6 2-110 83-215 283-215 454v84c0 171 105 371 215 454 2 1 4 2 6 2 5 0 10-5 10-10 0-3-2-6-4-8-104-78-173-278-173-438v-84c0-160 69-360 173-438 2-2 4-5 4-8z"/><path stroke-width="10" id="c" d="M527 376c0-40-32-58-54-58-27 0-38 19-38 35 0 24 20 49 48 54-21 13-45 13-50 13-70 0-93-92-99-118l-34-137c-11-44-17-66-17-88 0-34 16-66 55-66 32 0 100 24 133 131 2 7 4 11 13 11 3 0 12 0 12-10 0-25-57-154-160-154-60 0-96 39-108 76-3-6-39-76-105-76-44 0-94 20-94 66 0 32 25 58 55 58 15 0 37-8 37-35 0-28-22-49-47-54 21-13 44-13 50-13 44 0 79 42 95 104 37 140 54 207 54 238 0 58-35 67-54 67-34 0-100-25-134-131-2-9-5-11-13-11 0 0-12 0-12 10 0 25 57 154 161 154 29 0 83-10 108-76 12 23 47 76 105 76 34 0 93-14 93-66z"/><path stroke-width="10" id="d" d="M288 208c0-171-105-371-215-454-2-1-4-2-6-2-5 0-10 5-10 10 0 3 2 6 4 8 104 78 173 278 173 438v84c0 160-69 360-173 438-2 2-4 5-4 8 0 5 5 10 10 10 2 0 4-1 6-2 110-83 215-283 215-454v-84z"/><path stroke-width="10" id="e" d="M722 347c0-11-9-20-20-20H76c-11 0-20 9-20 20s9 20 20 20h626c11 0 20-9 20-20zm0-194c0-11-9-20-20-20H76c-11 0-20 9-20 20s9 20 20 20h626c11 0 20-9 20-20z"/><path stroke-width="10" id="f" d="M415 119c0-10-32-130-166-130C133-11 34 88 34 216c0 124 92 232 217 232 77 0 153-39 153-107 0-30-20-47-46-47-28 0-46 20-46 46 0 13 6 43 47 46-35 36-98 37-107 37-53 0-135-42-135-205 0-161 88-204 141-204 37 0 102 12 131 105 2 6 4 10 13 10 3 0 13 0 13-10z"/><path stroke-width="10" id="g" d="M471 214C471 87 370-11 249-11 132-11 28 85 28 214c0 125 97 234 222 234 121 0 221-106 221-234zm-83 8c0 38 0 96-26 139s-69 65-113 65c-40 0-87-21-114-67-24-44-24-98-24-137 0-36 0-97 25-141 27-46 71-67 114-67 50 0 94 29 116 74 22 44 22 98 22 134z"/><path stroke-width="10" id="h" d="M360 128c0-72-46-139-161-139-21 0-66 1-110 43C71 13 71 11 69 9 50-10 49-11 44-11c-11 0-11 7-11 24v132c0 18 0 25 13 25 10 0 11-4 14-17C79 68 115 11 199 11c78 0 113 40 113 91 0 72-82 88-104 92-72 14-100 20-132 46-27 22-43 50-43 85 0 56 38 123 160 123 15 0 56 0 94-28 4 3 14 12 17 16 13 12 15 12 20 12 11 0 11-7 11-24V323c0-19 0-24-13-24 0 0-11 0-12 9-2 31-7 121-117 121-86 0-112-41-112-76 0-58 67-71 123-82 42-8 81-16 114-48 12-12 42-42 42-95z"/></defs><g stroke="currentColor" fill="currentColor" stroke-width="0" transform="scale(1 -1)"><use xlink:href="#a"/><use xlink:href="#b" x="557"/><use xlink:href="#c" x="951"/><use xlink:href="#d" x="1528"/><use xlink:href="#e" x="2199"/><g transform="translate(3260)"><use xlink:href="#f"/><use xlink:href="#g" x="449"/><use xlink:href="#h" x="954"/></g><use xlink:href="#b" x="4613"/><use xlink:href="#c" x="5007"/><use xlink:href="#d" x="5584"/></g></svg>