<svg xmlns:xlink="http://www.w3.org/1999/xlink" width="61.833ex" height="13ex" style="vertical-align: -5.833ex; margin-left: 0ex; margin-right: 0ex; margin-bottom: 1px; margin-top: 1px;" viewBox="0 -3032.7 26633.5 5565.5" xmlns="http://www.w3.org/2000/svg">
<defs>
<path stroke-width="10" id="E1-LATINMODERNMAIN-2E" d="M192 53c0 -29 -24 -53 -53 -53s-53 24 -53 53s24 53 53 53s53 -24 53 -53Z"></path>
<path stroke-width="10" id="E1-LATINMODERNMAIN-3D" d="M722 347c0 -11 -9 -20 -20 -20h-626c-11 0 -20 9 -20 20s9 20 20 20h626c11 0 20 -9 20 -20zM722 153c0 -11 -9 -20 -20 -20h-626c-11 0 -20 9 -20 20s9 20 20 20h626c11 0 20 -9 20 -20Z"></path>
<path stroke-width="10" id="E1-LATINMODERNMAIN-28" d="M332 -238c0 -5 -5 -10 -10 -10c-2 0 -4 1 -6 2c-110 83 -215 283 -215 454v84c0 171 105 371 215 454c2 1 4 2 6 2c5 0 10 -5 10 -10c0 -3 -2 -6 -4 -8c-104 -78 -173 -278 -173 -438v-84c0 -160 69 -360 173 -438c2 -2 4 -5 4 -8Z"></path>
<path stroke-width="10" id="E1-LATINMODERNMAIN-31" d="M419 0c-35 3 -122 3 -162 3s-127 0 -162 -3v31h32c90 0 93 12 93 48v518c-52 -26 -111 -26 -131 -26v31c32 0 120 0 182 64c23 0 23 -2 23 -26v-561c0 -37 3 -48 93 -48h32v-31Z"></path>
<path stroke-width="10" id="E1-LATINMODERNMAIN-2212" d="M722 250c0 -11 -9 -20 -20 -20h-626c-11 0 -20 9 -20 20s9 20 20 20h626c11 0 20 -9 20 -20Z"></path>
<path stroke-width="10" id="E1-LATINMODERNNORMAL-1D461" d="M330 420c0 -20 -10 -20 -30 -20h-94l-74 -295c-4 -17 -6 -24 -6 -48c0 -33 10 -46 31 -46c34 0 87 24 130 128c5 11 6 14 15 14c4 0 12 0 12 -10c0 -8 -57 -154 -159 -154c-54 0 -92 38 -92 92c0 18 4 35 76 319h-88c-20 0 -28 0 -28 12c0 19 10 19 30 19h94l39 159 c9 35 37 36 40 36c17 0 29 -10 29 -27c0 -6 -5 -26 -41 -168h88c18 0 28 0 28 -11Z"></path>
<path stroke-width="10" id="E1-LATINMODERNMAIN-29" d="M288 208c0 -171 -105 -371 -215 -454c-2 -1 -4 -2 -6 -2c-5 0 -10 5 -10 10c0 3 2 6 4 8c104 78 173 278 173 438v84c0 160 -69 360 -173 438c-2 2 -4 5 -4 8c0 5 5 10 10 10c2 0 4 -1 6 -2c110 -83 215 -283 215 -454v-84Z"></path>
<path stroke-width="10" id="E1-LATINMODERNMAIN-22C5" d="M192 250c0 -29 -24 -53 -53 -53s-53 24 -53 53s24 53 53 53s53 -24 53 -53Z"></path>
<path stroke-width="10" id="E1-LATINMODERNMAIN-33" d="M457 171c0 -102 -91 -193 -213 -193c-109 0 -202 66 -202 157c0 44 32 58 56 58c29 0 56 -20 56 -56c0 -38 -31 -60 -66 -55c35 -59 110 -76 153 -76c44 0 113 29 113 165c0 98 -37 166 -119 166h-44c-17 0 -24 0 -24 11c0 10 7 11 15 12c7 0 31 2 39 3c25 1 59 4 89 52 c26 44 28 102 28 114c0 90 -55 112 -96 112c-36 0 -102 -13 -133 -62c15 0 62 0 62 -50c0 -29 -20 -51 -51 -51c-29 0 -51 19 -51 52c0 76 76 136 177 136c96 0 184 -56 184 -138c0 -79 -58 -149 -140 -176c104 -21 167 -99 167 -181Z"></path>
<path stroke-width="10" id="E1-LATINMODERNMAIN-2B" d="M722 250c0 -11 -9 -20 -20 -20h-293v-293c0 -11 -9 -20 -20 -20s-20 9 -20 20v293h-293c-11 0 -20 9 -20 20s9 20 20 20h293v293c0 11 9 20 20 20s20 -9 20 -20v-293h293c11 0 20 -9 20 -20Z"></path>
<path stroke-width="10" id="E1-LATINMODERNMAIN-32" d="M449 174l-28 -174h-371c0 24 0 26 11 37l192 214c55 62 105 141 105 221c0 82 -43 163 -134 163c-58 0 -112 -37 -135 -102c3 1 5 1 13 1c35 0 53 -26 53 -52c0 -41 -35 -53 -52 -53c-3 0 -53 0 -53 56c0 89 74 181 187 181c122 0 212 -80 212 -194 c0 -100 -60 -154 -216 -292l-106 -103h180c22 0 88 0 95 8c10 15 17 59 22 89h25Z"></path>
<path stroke-width="10" id="E1-LATINMODERNMAIN-36" d="M457 204c0 -132 -95 -226 -206 -226c-93 0 -209 71 -209 338c0 221 135 350 263 350c83 0 127 -48 127 -108c0 -39 -30 -48 -46 -48c-22 0 -46 15 -46 46c0 45 40 45 55 45c-22 34 -64 40 -88 40c-51 0 -175 -36 -175 -289v-24c20 48 57 99 125 99 c111 0 200 -96 200 -223zM367 205c0 49 0 100 -18 137c-31 62 -77 62 -93 62c-90 0 -122 -100 -122 -178c0 -18 0 -98 18 -145c6 -15 36 -75 99 -75c23 0 69 5 99 65c17 36 17 86 17 134Z"></path>
</defs>
<g stroke="currentColor" fill="currentColor" stroke-width="0" transform="matrix(1 0 0 -1 0 0)">
<g transform="translate(167,0)">
<g transform="translate(-11,0)">
<g transform="translate(0,2177)">
 <use xlink:href="#E1-LATINMODERNMAIN-2E" x="0" y="0"></use>
 <use xlink:href="#E1-LATINMODERNMAIN-2E" x="449" y="0"></use>
 <use xlink:href="#E1-LATINMODERNMAIN-2E" x="899" y="0"></use>
</g>
</g>
<g transform="translate(2171,0)">
 <use xlink:href="#E1-LATINMODERNMAIN-3D" x="0" y="2177"></use>
 <use xlink:href="#E1-LATINMODERNMAIN-2B" x="0" y="679"></use>
 <use xlink:href="#E1-LATINMODERNMAIN-2B" x="0" y="-820"></use>
 <use xlink:href="#E1-LATINMODERNMAIN-2B" x="0" y="-2319"></use>
</g>
<g transform="translate(3954,0)">
<g transform="translate(0,2177)">
 <use xlink:href="#E1-LATINMODERNMAIN-28" x="0" y="0"></use>
 <use xlink:href="#E1-LATINMODERNMAIN-31" x="394" y="0"></use>
 <use xlink:href="#E1-LATINMODERNMAIN-2212" x="1121" y="0"></use>
 <use xlink:href="#E1-LATINMODERNNORMAL-1D461" x="2126" y="0"></use>
 <use xlink:href="#E1-LATINMODERNMAIN-29" x="2492" y="0"></use>
 <use xlink:href="#E1-LATINMODERNMAIN-22C5" x="3108" y="0"></use>
 <use xlink:href="#E1-LATINMODERNMAIN-28" x="3613" y="0"></use>
 <use xlink:href="#E1-LATINMODERNMAIN-31" x="4007" y="0"></use>
 <use xlink:href="#E1-LATINMODERNMAIN-2212" x="4735" y="0"></use>
 <use xlink:href="#E1-LATINMODERNNORMAL-1D461" x="5740" y="0"></use>
 <use xlink:href="#E1-LATINMODERNMAIN-29" x="6106" y="0"></use>
 <use xlink:href="#E1-LATINMODERNMAIN-22C5" x="6722" y="0"></use>
 <use xlink:href="#E1-LATINMODERNMAIN-28" x="7227" y="0"></use>
 <use xlink:href="#E1-LATINMODERNMAIN-31" x="7621" y="0"></use>
 <use xlink:href="#E1-LATINMODERNMAIN-2212" x="8349" y="0"></use>
 <use xlink:href="#E1-LATINMODERNNORMAL-1D461" x="9354" y="0"></use>
 <use xlink:href="#E1-LATINMODERNMAIN-29" x="9720" y="0"></use>
</g>
<g transform="translate(644,679)">
 <use xlink:href="#E1-LATINMODERNMAIN-33" x="0" y="0"></use>
 <use xlink:href="#E1-LATINMODERNMAIN-22C5" x="727" y="0"></use>
 <use xlink:href="#E1-LATINMODERNMAIN-28" x="1232" y="0"></use>
 <use xlink:href="#E1-LATINMODERNMAIN-31" x="1626" y="0"></use>
 <use xlink:href="#E1-LATINMODERNMAIN-2212" x="2353" y="0"></use>
 <use xlink:href="#E1-LATINMODERNNORMAL-1D461" x="3358" y="0"></use>
 <use xlink:href="#E1-LATINMODERNMAIN-29" x="3724" y="0"></use>
 <use xlink:href="#E1-LATINMODERNMAIN-22C5" x="4341" y="0"></use>
 <use xlink:href="#E1-LATINMODERNMAIN-28" x="4846" y="0"></use>
 <use xlink:href="#E1-LATINMODERNMAIN-31" x="5240" y="0"></use>
 <use xlink:href="#E1-LATINMODERNMAIN-2212" x="5967" y="0"></use>
 <use xlink:href="#E1-LATINMODERNNORMAL-1D461" x="6972" y="0"></use>
 <use xlink:href="#E1-LATINMODERNMAIN-29" x="7338" y="0"></use>
 <use xlink:href="#E1-LATINMODERNMAIN-22C5" x="7955" y="0"></use>
 <use xlink:href="#E1-LATINMODERNNORMAL-1D461" x="8460" y="0"></use>
</g>
<g transform="translate(1904,-820)">
 <use xlink:href="#E1-LATINMODERNMAIN-33" x="0" y="0"></use>
 <use xlink:href="#E1-LATINMODERNMAIN-22C5" x="727" y="0"></use>
 <use xlink:href="#E1-LATINMODERNMAIN-28" x="1232" y="0"></use>
 <use xlink:href="#E1-LATINMODERNMAIN-31" x="1626" y="0"></use>
 <use xlink:href="#E1-LATINMODERNMAIN-2212" x="2353" y="0"></use>
 <use xlink:href="#E1-LATINMODERNNORMAL-1D461" x="3358" y="0"></use>
 <use xlink:href="#E1-LATINMODERNMAIN-29" x="3724" y="0"></use>
 <use xlink:href="#E1-LATINMODERNMAIN-22C5" x="4341" y="0"></use>
 <use xlink:href="#E1-LATINMODERNNORMAL-1D461" x="4846" y="0"></use>
 <use xlink:href="#E1-LATINMODERNMAIN-22C5" x="5434" y="0"></use>
 <use xlink:href="#E1-LATINMODERNNORMAL-1D461" x="5939" y="0"></use>
</g>
<g transform="translate(3780,-2319)">
 <use xlink:href="#E1-LATINMODERNNORMAL-1D461" x="0" y="0"></use>
 <use xlink:href="#E1-LATINMODERNMAIN-22C5" x="588" y="0"></use>
 <use xlink:href="#E1-LATINMODERNNORMAL-1D461" x="1093" y="0"></use>
 <use xlink:href="#E1-LATINMODERNMAIN-22C5" x="1681" y="0"></use>
 <use xlink:href="#E1-LATINMODERNNORMAL-1D461" x="2186" y="0"></use>
</g>
</g>
<g transform="translate(15069,0)">
 <use xlink:href="#E1-LATINMODERNMAIN-3D" x="0" y="2177"></use>
 <use xlink:href="#E1-LATINMODERNMAIN-3D" x="0" y="679"></use>
 <use xlink:href="#E1-LATINMODERNMAIN-3D" x="0" y="-820"></use>
 <use xlink:href="#E1-LATINMODERNMAIN-3D" x="0" y="-2319"></use>
</g>
<g transform="translate(16852,0)">
<g transform="translate(0,2177)">
 <use xlink:href="#E1-LATINMODERNMAIN-2212" x="0" y="0"></use>
<g transform="translate(783,0)">
 <use xlink:href="#E1-LATINMODERNNORMAL-1D461" x="0" y="0"></use>
 <use transform="scale(0.707)" xlink:href="#E1-LATINMODERNMAIN-33" x="517" y="513"></use>
</g>
 <use xlink:href="#E1-LATINMODERNMAIN-2B" x="1828" y="0"></use>
 <use xlink:href="#E1-LATINMODERNMAIN-33" x="2833" y="0"></use>
 <use xlink:href="#E1-LATINMODERNMAIN-22C5" x="3560" y="0"></use>
<g transform="translate(4065,0)">
 <use xlink:href="#E1-LATINMODERNNORMAL-1D461" x="0" y="0"></use>
 <use transform="scale(0.707)" xlink:href="#E1-LATINMODERNMAIN-32" x="517" y="513"></use>
</g>
 <use xlink:href="#E1-LATINMODERNMAIN-2212" x="5111" y="0"></use>
 <use xlink:href="#E1-LATINMODERNMAIN-33" x="6116" y="0"></use>
 <use xlink:href="#E1-LATINMODERNMAIN-22C5" x="6843" y="0"></use>
 <use xlink:href="#E1-LATINMODERNNORMAL-1D461" x="7348" y="0"></use>
 <use xlink:href="#E1-LATINMODERNMAIN-2B" x="7937" y="0"></use>
 <use xlink:href="#E1-LATINMODERNMAIN-31" x="8942" y="0"></use>
</g>
<g transform="translate(641,679)">
 <use xlink:href="#E1-LATINMODERNMAIN-33" x="0" y="0"></use>
 <use xlink:href="#E1-LATINMODERNMAIN-22C5" x="727" y="0"></use>
<g transform="translate(1232,0)">
 <use xlink:href="#E1-LATINMODERNNORMAL-1D461" x="0" y="0"></use>
 <use transform="scale(0.707)" xlink:href="#E1-LATINMODERNMAIN-33" x="517" y="513"></use>
</g>
 <use xlink:href="#E1-LATINMODERNMAIN-2212" x="2277" y="0"></use>
 <use xlink:href="#E1-LATINMODERNMAIN-36" x="3282" y="0"></use>
 <use xlink:href="#E1-LATINMODERNMAIN-22C5" x="4010" y="0"></use>
<g transform="translate(4515,0)">
 <use xlink:href="#E1-LATINMODERNNORMAL-1D461" x="0" y="0"></use>
 <use transform="scale(0.707)" xlink:href="#E1-LATINMODERNMAIN-32" x="517" y="513"></use>
</g>
 <use xlink:href="#E1-LATINMODERNMAIN-2B" x="5560" y="0"></use>
 <use xlink:href="#E1-LATINMODERNMAIN-33" x="6565" y="0"></use>
 <use xlink:href="#E1-LATINMODERNMAIN-22C5" x="7293" y="0"></use>
 <use xlink:href="#E1-LATINMODERNNORMAL-1D461" x="7798" y="0"></use>
</g>
<g transform="translate(1662,-820)">
 <use xlink:href="#E1-LATINMODERNMAIN-2212" x="0" y="0"></use>
 <use xlink:href="#E1-LATINMODERNMAIN-33" x="783" y="0"></use>
 <use xlink:href="#E1-LATINMODERNMAIN-22C5" x="1510" y="0"></use>
<g transform="translate(2015,0)">
 <use xlink:href="#E1-LATINMODERNNORMAL-1D461" x="0" y="0"></use>
 <use transform="scale(0.707)" xlink:href="#E1-LATINMODERNMAIN-33" x="517" y="513"></use>
</g>
 <use xlink:href="#E1-LATINMODERNMAIN-2B" x="3060" y="0"></use>
 <use xlink:href="#E1-LATINMODERNMAIN-33" x="4065" y="0"></use>
 <use xlink:href="#E1-LATINMODERNMAIN-22C5" x="4793" y="0"></use>
<g transform="translate(5298,0)">
 <use xlink:href="#E1-LATINMODERNNORMAL-1D461" x="0" y="0"></use>
 <use transform="scale(0.707)" xlink:href="#E1-LATINMODERNMAIN-32" x="517" y="513"></use>
</g>
</g>
<g transform="translate(4312,-2319)">
 <use xlink:href="#E1-LATINMODERNNORMAL-1D461" x="0" y="0"></use>
 <use transform="scale(0.707)" xlink:href="#E1-LATINMODERNMAIN-33" x="517" y="513"></use>
</g>
</g>
</g>
</g>
</svg>