<svg xmlns="http://www.w3.org/2000/svg" xmlns:xlink="http://www.w3.org/1999/xlink" width="304" height="65pt" viewBox="0 0 228 65"><defs><symbol overflow="visible" id="a"><path d="M3.5 0H1.031l.063-.281a1.91 1.91 0 0 0 .343-.094.537.537 0 0 0 .188-.188c.063-.082.117-.21.172-.39.062-.176.129-.442.203-.797l1.266-5.734h-.75c-.243 0-.434.039-.579.109a1.322 1.322 0 0 0-.437.39c-.148.188-.324.508-.531.954H.406L.844-8h6.125l-.453 2.063h-.563a8.74 8.74 0 0 0-.031-.844c-.024-.196-.063-.344-.125-.438-.055-.101-.121-.172-.203-.203-.074-.039-.211-.062-.407-.062h-.875l-1.265 5.78c-.043.15-.07.266-.078.36a6.315 6.315 0 0 0-.031.297c-.012.094-.016.18-.016.25a.76.76 0 0 0 .047.297c.039.063.097.11.172.14a1.8 1.8 0 0 0 .421.079zm0 0"/></symbol><symbol overflow="visible" id="b"><path d="M1.688-4.14c.207 0 .375.07.5.202.124.126.187.297.187.516 0 .211-.063.383-.188.516a.678.678 0 0 1-.5.187c-.199 0-.359-.062-.484-.187a.722.722 0 0 1-.187-.516c0-.219.062-.39.187-.515a.636.636 0 0 1 .484-.204zm0 0"/></symbol><symbol overflow="visible" id="c"><path d="M.453 0v-14.516h3.531v.532H1.688V0zm0 0"/></symbol><symbol overflow="visible" id="d"><path d="M.453 0v-14.656h1.234V0zm0 0"/></symbol><symbol overflow="visible" id="e"><path d="M1.688-14.516V-.53h2.296V0H.454v-14.516zm0 0"/></symbol><symbol overflow="visible" id="f"><path d="M4.453-8a5 5 0 0 1 1.14.11c.302.074.548.187.735.343.195.149.344.336.438.563.101.23.156.496.156.796 0 .594-.14 1.106-.422 1.532-.281.43-.664.746-1.14.953-.47.2-1.04.297-1.704.297-.398 0-.726-.004-.984-.016l-.375 1.719a2.22 2.22 0 0 0-.078.375c-.012.086-.024.18-.031.281-.012.094-.016.18-.016.25a.76.76 0 0 0 .047.297c.039.063.097.11.172.14a1.8 1.8 0 0 0 .421.079L2.75 0H.328l.078-.281a.872.872 0 0 0 .328-.125.7.7 0 0 0 .188-.219 1.95 1.95 0 0 0 .14-.344c.04-.133.102-.394.188-.781l1-4.516c.082-.382.125-.691.125-.921 0-.188-.047-.317-.14-.391-.087-.07-.227-.117-.422-.14L1.875-8zM3.375-3.922c.469 0 .848-.047 1.14-.14.29-.094.532-.243.72-.454.187-.207.327-.453.421-.734.102-.281.157-.586.157-.922 0-.445-.118-.773-.344-.984-.23-.219-.61-.328-1.14-.328-.243 0-.497.007-.766.015l-.797 3.547zm0 0"/></symbol><symbol overflow="visible" id="k"><path d="M2.516 0v-13.984H.219v-.532H3.75V0zm0 0"/></symbol><symbol overflow="visible" id="l"><path d="M3.75-14.656V0H2.516v-14.656zm0 0"/></symbol><symbol overflow="visible" id="m"><path d="M3.75-14.516V0H.219v-.531h2.297v-13.985zm0 0"/></symbol><symbol overflow="visible" id="n"><path d="M.875-4.25v-.781h7.219v.781zm0 2.422v-.781h7.219v.78zm7.469-1.594zm0 0"/></symbol><symbol overflow="visible" id="w"><path d="M.719-2.61h7.297l.656-.812L8-4.25H.719v-.781h6.687L6.47-6.156l.375-.313 2.875 2.86v.375L6.844-.375l-.375-.313.937-1.14H.72zm-.422-.812zm0 0"/></symbol><symbol overflow="visible" id="x"><path d="M4.078-1.531c0 .23.008.402.031.515a.68.68 0 0 0 .141.282.572.572 0 0 0 .266.171c.125.043.273.075.453.094.187.024.43.04.734.047V0H1.375v-.422A8.17 8.17 0 0 0 2.297-.5c.187-.04.328-.094.422-.156a.516.516 0 0 0 .219-.281c.05-.125.078-.32.078-.594v-4.75c0-.157-.032-.27-.094-.344a.282.282 0 0 0-.235-.11c-.124 0-.304.07-.53.204-.231.125-.516.304-.86.531l-.25-.453 2.734-1.64h.328a27.34 27.34 0 0 0-.03 1.562zm0 0"/></symbol><symbol overflow="visible" id="y"><path d="M4.11-.938c.195 0 .35-.007.468-.03a.85.85 0 0 0 .281-.126.55.55 0 0 0 .172-.203c.04-.094.094-.234.157-.422h.484L5.578 0H.75v-.281c.176-.406.406-.82.688-1.25.28-.438.687-.946 1.218-1.532.446-.5.77-.878.969-1.14.219-.281.379-.52.484-.719.114-.207.192-.398.235-.578.05-.188.078-.367.078-.547 0-.3-.047-.562-.14-.781a1.13 1.13 0 0 0-.438-.531c-.188-.125-.43-.188-.719-.188-.742 0-1.234.406-1.484 1.219H.937v-1.125c.47-.227.907-.39 1.313-.484.414-.102.79-.157 1.125-.157.719 0 1.266.164 1.64.485.376.312.563.773.563 1.375 0 .21-.023.402-.062.578-.043.18-.11.351-.204.515a3.255 3.255 0 0 1-.359.547c-.148.2-.308.399-.484.594-.18.2-.485.531-.922 1-.75.793-1.297 1.48-1.64 2.063zm0 0"/></symbol><symbol overflow="visible" id="z"><path d="M3.266.094c-.844 0-1.477-.332-1.891-1C.957-1.57.75-2.578.75-3.922c0-.719.063-1.336.188-1.86.132-.53.316-.96.546-1.296.227-.344.5-.598.813-.766.32-.164.676-.25 1.062-.25.852 0 1.489.336 1.907 1 .414.657.625 1.653.625 2.985 0 1.386-.227 2.433-.672 3.14C4.769-.258 4.117.094 3.266.094zM1.906-4.11c0 1.28.114 2.218.344 2.812.238.594.61.89 1.11.89.468 0 .816-.28 1.046-.843.227-.563.344-1.426.344-2.594 0-.906-.063-1.633-.188-2.187-.117-.563-.277-.961-.484-1.203-.21-.239-.46-.36-.75-.36-.273 0-.5.086-.687.25-.18.157-.325.387-.438.688a4.958 4.958 0 0 0-.234 1.093c-.043.43-.063.915-.063 1.454zm0 0"/></symbol><symbol overflow="visible" id="A"><path d="M.875-3.047v-.781h7.219v.781zm0 0"/></symbol><symbol overflow="visible" id="B"><path d="M1.875-2.406c.063-.281.156-.649.281-1.11.125-.468.25-.89.375-1.265L2.5-4.828H2c-.262 0-.465.023-.61.062a1.336 1.336 0 0 0-.406.22 2.23 2.23 0 0 0-.406.421l-.375-.313c.207-.257.39-.46.547-.609.164-.156.32-.27.469-.344.144-.07.3-.125.468-.156.165-.039.383-.062.657-.062h3.078l-.188.78H3.406L2.75-1.89c-.094.387-.14.672-.14.86 0 .156.023.273.078.343.05.075.132.11.25.11.124 0 .265-.05.421-.156.157-.114.332-.29.532-.532l.343.313c-.336.375-.636.648-.906.812a1.539 1.539 0 0 1-.797.235c-.281 0-.508-.09-.672-.266-.156-.187-.234-.426-.234-.719 0-.27.055-.648.172-1.14zm0 0"/></symbol><symbol overflow="visible" id="g"><path d="M3.219-1.156v.234c.008.063.02.121.031.172a.252.252 0 0 0 .047.11c.02.03.047.058.078.078.04.042.086.074.14.093.063.012.133.028.22.047.093.012.203.024.328.031.132 0 .289.008.468.016V0H1.047v-.375c.176-.008.32-.016.437-.016.125-.007.227-.02.313-.03L2-.47a.53.53 0 0 0 .125-.062 1.36 1.36 0 0 0 .11-.094.237.237 0 0 0 .062-.11c.02-.05.035-.109.047-.171a2.25 2.25 0 0 0 .015-.25v-3.157c0-.113-.023-.19-.062-.234a.233.233 0 0 0-.188-.078c-.093 0-.23.047-.406.14-.18.094-.406.235-.687.423-.043-.07-.079-.141-.11-.204-.031-.07-.07-.14-.11-.203.364-.195.724-.394 1.079-.593l1.094-.594h.265a5.867 5.867 0 0 0-.015.437v.719zm0 0"/></symbol><symbol overflow="visible" id="h"><path d="M3.188-.719c.132 0 .242-.004.328-.015a.498.498 0 0 0 .203-.063.386.386 0 0 0 .14-.156c.04-.07.086-.172.141-.297h.406c-.023.21-.039.418-.047.625-.011.21-.027.418-.046.625H.592v-.234C.665-.391.75-.54.844-.688c.095-.156.196-.312.313-.468.125-.164.258-.332.407-.5.144-.164.312-.344.5-.532.269-.269.488-.5.656-.687.176-.195.312-.375.406-.531.102-.156.172-.297.203-.422a1.408 1.408 0 0 0 0-.828.835.835 0 0 0-.187-.313.624.624 0 0 0-.297-.203 1.005 1.005 0 0 0-.406-.078c-.282 0-.516.074-.704.219-.18.148-.32.36-.421.64H.734v-.859a5.539 5.539 0 0 1 1.032-.328c.32-.07.609-.11.859-.11.3 0 .563.04.781.11.219.062.39.152.516.266.133.117.234.257.297.421.062.168.093.344.093.532 0 .117-.011.226-.03.328-.012.093-.04.187-.079.281a2.749 2.749 0 0 1-.156.297 2.42 2.42 0 0 1-.234.297 3.877 3.877 0 0 1-.297.328c-.118.125-.246.262-.391.406l-.438.438a16.056 16.056 0 0 0-.828.89 2.679 2.679 0 0 0-.296.375zm0 0"/></symbol><symbol overflow="visible" id="i"><path d="M.75-4.375v-.875c.352-.145.68-.254.984-.328.301-.07.594-.11.875-.11.239 0 .457.028.657.079.207.043.382.117.53.218.157.106.274.235.36.391.082.148.125.32.125.516 0 .187-.027.355-.078.5a1.297 1.297 0 0 1-.25.39c-.117.117-.25.219-.406.313-.156.094-.34.187-.547.281v.047c.195.031.379.09.547.172.164.074.312.172.437.297.133.117.239.25.313.406.07.156.11.328.11.515 0 .231-.048.45-.141.657-.086.199-.215.37-.391.515a1.94 1.94 0 0 1-.656.344c-.25.082-.547.125-.89.125-.282 0-.563-.027-.845-.078a7.375 7.375 0 0 1-.796-.219v-.953h.562c.05.149.11.274.172.375a.983.983 0 0 0 .219.266c.093.062.195.11.312.14.113.024.238.032.375.032.383 0 .672-.086.86-.266.195-.176.296-.445.296-.813 0-.394-.132-.69-.39-.89-.25-.195-.633-.297-1.14-.297h-.376v-.422c.3-.02.563-.062.781-.125.227-.07.414-.164.563-.281.156-.113.27-.25.344-.406.07-.157.109-.317.109-.485 0-.281-.086-.5-.25-.656-.168-.164-.406-.25-.719-.25-.273 0-.5.074-.687.219-.18.148-.313.367-.407.656zm0 0"/></symbol><symbol overflow="visible" id="j"><path d="M2.297-.266c.094-.02.164-.039.219-.062a.865.865 0 0 0 .156-.063.53.53 0 0 0 .094-.093.38.38 0 0 0 .046-.125c.008-.051.016-.114.016-.188v-.875H.36v-.344c.438-.601.868-1.203 1.297-1.796.426-.602.86-1.208 1.297-1.813h.703v3.5h.078c.125 0 .223-.004.297-.016a.36.36 0 0 0 .172-.062.452.452 0 0 0 .125-.156c.031-.07.063-.16.094-.266h.375c-.012.156-.024.32-.031.484-.012.157-.024.313-.032.47H3.656v.984a.502.502 0 0 0 .063.218c.039.055.097.094.172.125.07.024.175.047.312.078V0H2.297zM1.14-2.125h1.687v-.89-.36a8.04 8.04 0 0 0 .016-.438c.008-.156.015-.3.015-.437.008-.133.016-.25.016-.344h-.047l-.844 1.219c-.28.398-.562.793-.843 1.188zm0 0"/></symbol><symbol overflow="visible" id="o"><path d="M1.375-5.703h1.984c.32 0 .602.027.844.078.25.043.457.121.625.234.164.106.29.246.375.422.094.168.14.375.14.625 0 .324-.062.61-.187.86a1.63 1.63 0 0 1-.5.625 2.413 2.413 0 0 1-.797.359c-.304.086-.64.125-1.015.125h-.438c-.125-.008-.234-.016-.328-.016-.031.149-.07.313-.11.5-.042.18-.077.352-.109.516a30.05 30.05 0 0 1-.093.453 1.845 1.845 0 0 0-.032.297c0 .063.004.117.016.156.02.043.047.078.078.11.04.023.094.043.156.062.07.012.16.024.266.031L2.187 0H.298l.047-.266C.426-.286.5-.305.563-.328a.3.3 0 0 0 .156-.125 1 1 0 0 0 .11-.281c.038-.125.085-.301.14-.532l.719-3.203c.03-.125.05-.234.062-.328.02-.101.031-.187.031-.25 0-.133-.039-.226-.11-.281-.062-.063-.183-.094-.359-.094zm1.313 2.86c.343.011.628-.02.859-.095.226-.07.41-.175.547-.312a1.11 1.11 0 0 0 .281-.469c.05-.187.078-.383.078-.594 0-.32-.094-.554-.281-.703-.18-.144-.465-.218-.86-.218-.105 0-.21.007-.312.015h-.281l-.547 2.375zm0 0"/></symbol><symbol overflow="visible" id="q"><path d="M.75-2.234v-.672h5.063v.672zm0 0"/></symbol><symbol overflow="visible" id="s"><path d="M1.266-3.11a.507.507 0 0 1 .516.531.578.578 0 0 1-.141.407.507.507 0 0 1-.375.14.483.483 0 0 1-.36-.14.578.578 0 0 1-.14-.406c0-.156.046-.281.14-.375a.467.467 0 0 1 .36-.156zm0 0"/></symbol><symbol overflow="visible" id="t"><path d="M4.344-3.719H2.828c-.086.387-.168.766-.25 1.14-.086.376-.172.759-.265 1.142a2.586 2.586 0 0 0-.079.625c0 .093.016.167.047.218.04.055.11.078.203.078a.61.61 0 0 0 .36-.14c.133-.094.285-.239.453-.438l.297.297a7.94 7.94 0 0 1-.406.406c-.126.106-.25.196-.376.266a1.272 1.272 0 0 1-.671.203.796.796 0 0 1-.313-.062.734.734 0 0 1-.25-.172.838.838 0 0 1-.156-.266 1.11 1.11 0 0 1-.047-.328c0-.094.008-.203.031-.328a12.596 12.596 0 0 1 .188-.969c.05-.187.101-.375.156-.562.05-.196.102-.383.156-.563.063-.187.117-.363.172-.531v-.016h-.484a3.002 3.002 0 0 0-.328.047.87.87 0 0 0-.266.078 1.613 1.613 0 0 0-.234.172 1.543 1.543 0 0 0-.266.266l-.328-.297c.113-.133.219-.25.312-.344.094-.094.18-.172.266-.234.082-.07.16-.13.234-.172a.93.93 0 0 1 .266-.11c.094-.03.195-.05.313-.062.113-.008.242-.016.39-.016H4.47zm0 0"/></symbol><symbol overflow="visible" id="p"><path d="M.625-3.219v-.687c.531-.219 1.02-.328 1.469-.328.226 0 .441.03.64.093.196.063.352.164.47.297a.735.735 0 0 1 .187.516c0 .18-.043.336-.125.469-.086.136-.2.25-.344.343a3.12 3.12 0 0 1-.531.282v.046c.32.055.582.172.78.36a.907.907 0 0 1 .298.672c0 .242-.063.453-.188.64-.117.18-.297.32-.547.422-.242.102-.539.157-.89.157-.23 0-.453-.024-.672-.063a3.739 3.739 0 0 1-.594-.156v-.735h.453c.063.22.16.375.297.47.133.093.313.14.531.14.29 0 .508-.063.657-.188.144-.133.218-.336.218-.61 0-.28-.101-.491-.296-.64-.2-.144-.493-.218-.876-.218h-.296v-.344c.312-.008.57-.055.78-.14.208-.095.36-.204.454-.329a.792.792 0 0 0 .14-.469c0-.207-.062-.367-.187-.484-.117-.113-.293-.172-.531-.172-.2 0-.371.059-.516.172a.91.91 0 0 0-.328.484zm0 0"/></symbol><symbol overflow="visible" id="r"><path d="M2.578-.89c0 .148.008.25.031.312.032.062.07.11.125.14a.8.8 0 0 0 .282.079c.132.023.343.039.625.046V0H.812v-.313a4.36 4.36 0 0 0 .61-.046.997.997 0 0 0 .281-.079.307.307 0 0 0 .14-.14c.032-.063.048-.164.048-.313v-2.265c0-.082-.024-.14-.063-.172a.172.172 0 0 0-.14-.063c-.063 0-.168.04-.313.11a6.526 6.526 0 0 0-.563.328l-.187-.344 1.75-.906h.219c0 .055-.008.172-.016.36v.546zm0 0"/></symbol><symbol overflow="visible" id="u"><path d="M1.781-.219c.145-.031.242-.062.297-.093a.267.267 0 0 0 .11-.141c.019-.07.03-.195.03-.375v-.39H.298v-.266l2.015-2.688h.579v2.578h.062c.125 0 .211-.008.266-.031a.31.31 0 0 0 .156-.11.798.798 0 0 0 .094-.25h.328l-.047.766h-.86v.39c0 .18.008.306.032.376.02.062.055.11.11.14.062.032.16.063.296.094V0H1.781zM.938-1.594h1.28v-.593c0-.145.005-.336.016-.579.008-.238.02-.437.032-.593h-.047L.938-1.641zm0 0"/></symbol><symbol overflow="visible" id="v"><path d="M2.531-.563c.114 0 .203-.003.266-.015a.297.297 0 0 0 .14-.047.53.53 0 0 0 .094-.094c.02-.039.055-.125.11-.25h.343L3.422 0H.5v-.188c.102-.238.254-.476.453-.718.195-.239.422-.485.672-.735.313-.289.531-.507.656-.656.133-.156.235-.3.297-.437a.95.95 0 0 0 .094-.407c0-.226-.063-.406-.188-.53-.125-.134-.308-.204-.546-.204a.833.833 0 0 0-.532.172.91.91 0 0 0-.328.484H.594v-.672c.3-.125.578-.21.828-.265.25-.051.469-.078.656-.078.258 0 .473.03.64.093.177.055.317.125.423.22a.797.797 0 0 1 .218.327c.04.117.063.242.063.375 0 .156-.04.309-.11.453-.062.137-.171.29-.328.454-.148.167-.414.43-.796.78-.407.376-.704.7-.891.97zm0 0"/></symbol></defs><use xlink:href="#a" x=".138" y="35.095"/><use xlink:href="#b" x="10.168" y="35.095"/><use xlink:href="#c" x="16.204" y="19.739"/><use xlink:href="#d" x="16.204" y="32.583"/><use xlink:href="#d" x="16.204" y="45.371"/><use xlink:href="#e" x="16.204" y="58.081"/><use xlink:href="#f" x="20.39" y="12.901"/><use xlink:href="#g" x="25.468" y="15.341"/><use xlink:href="#f" x="20.39" y="27.346"/><use xlink:href="#h" x="25.468" y="29.787"/><use xlink:href="#f" x="20.39" y="41.792"/><use xlink:href="#i" x="25.468" y="44.232"/><use xlink:href="#f" x="20.39" y="56.238"/><use xlink:href="#j" x="25.468" y="58.678"/><use xlink:href="#k" x="30.998" y="19.739"/><use xlink:href="#l" x="30.998" y="32.583"/><use xlink:href="#l" x="30.998" y="45.371"/><use xlink:href="#m" x="30.998" y="58.081"/><use xlink:href="#n" x="38.505" y="35.095"/><use xlink:href="#c" x="50.757" y="15.583"/><use xlink:href="#d" x="50.757" y="27.358"/><use xlink:href="#d" x="50.757" y="38.977"/><use xlink:href="#d" x="50.757" y="50.596"/><use xlink:href="#e" x="50.757" y="62.237"/><use xlink:href="#f" x="63.449" y="8.745"/><use xlink:href="#h" x="68.528" y="11.185"/><use xlink:href="#f" x="63.449" y="23.19"/><use xlink:href="#i" x="68.528" y="25.631"/><use xlink:href="#o" x="56.276" y="33.032"/><use xlink:href="#p" x="60.943" y="34.807"/><use xlink:href="#q" x="65.728" y="33.032"/><use xlink:href="#o" x="72.059" y="33.032"/><use xlink:href="#r" x="76.446" y="34.807"/><path d="M56.277 36.621H81.23" fill="none" stroke-width=".776" stroke="#000" stroke-miterlimit="10"/><use xlink:href="#h" x="62.713" y="46.05"/><use xlink:href="#s" x="67.748" y="46.05"/><use xlink:href="#t" x="70.201" y="46.05"/><use xlink:href="#o" x="56.138" y="51.634"/><use xlink:href="#u" x="60.805" y="53.409"/><use xlink:href="#q" x="65.59" y="51.634"/><use xlink:href="#o" x="71.921" y="51.634"/><use xlink:href="#v" x="76.584" y="53.409"/><path d="M56.137 55.223h25.23" fill="none" stroke-width=".776" stroke="#000" stroke-miterlimit="10"/><use xlink:href="#h" x="62.713" y="64.651"/><use xlink:href="#s" x="67.748" y="64.651"/><use xlink:href="#t" x="70.201" y="64.651"/><use xlink:href="#k" x="82.565" y="15.583"/><use xlink:href="#l" x="82.565" y="27.358"/><use xlink:href="#l" x="82.565" y="38.977"/><use xlink:href="#l" x="82.565" y="50.596"/><use xlink:href="#m" x="82.565" y="62.237"/><use xlink:href="#w" x="90.071" y="35.095"/><use xlink:href="#a" x="106.366" y="35.095"/><use xlink:href="#n" x="117.066" y="35.095"/><use xlink:href="#x" x="130.522" y="26.047"/><path d="M130.523 31.68h6.618" fill="none" stroke-width=".776" stroke="#000" stroke-miterlimit="10"/><use xlink:href="#y" x="130.522" y="43.093"/><use xlink:href="#b" x="140.994" y="35.095"/><use xlink:href="#c" x="147.024" y="19.739"/><use xlink:href="#d" x="147.024" y="32.583"/><use xlink:href="#d" x="147.024" y="45.371"/><use xlink:href="#e" x="147.024" y="58.081"/><use xlink:href="#z" x="155.235" y="12.901"/><use xlink:href="#y" x="179.863" y="12.901"/><use xlink:href="#z" x="200.473" y="12.901"/><use xlink:href="#z" x="217.067" y="12.901"/><use xlink:href="#z" x="155.235" y="27.346"/><use xlink:href="#z" x="179.863" y="27.346"/><use xlink:href="#y" x="200.473" y="27.346"/><use xlink:href="#z" x="217.067" y="27.346"/><use xlink:href="#A" x="151.21" y="41.792"/><use xlink:href="#B" x="160.141" y="41.792"/><use xlink:href="#z" x="179.855" y="41.792"/><use xlink:href="#B" x="200.908" y="41.792"/><use xlink:href="#z" x="217.047" y="41.792"/><use xlink:href="#z" x="155.235" y="56.238"/><g><use xlink:href="#A" x="175.834" y="56.238"/><use xlink:href="#B" x="184.764" y="56.238"/></g><g><use xlink:href="#z" x="200.462" y="56.238"/></g><g><use xlink:href="#B" x="217.498" y="56.238"/></g><g><use xlink:href="#k" x="223.676" y="19.739"/></g><g><use xlink:href="#l" x="223.676" y="32.583"/></g><g><use xlink:href="#l" x="223.676" y="45.371"/></g><g><use xlink:href="#m" x="223.676" y="58.081"/></g></svg>