<svg xmlns="http://www.w3.org/2000/svg" xmlns:xlink="http://www.w3.org/1999/xlink" width="298pt" height="56pt" viewBox="0 0 298 56"><defs><symbol overflow="visible" id="a"><path d="M2.188-.64c0-.344-.329-.688-.704-.688-.359 0-.687.344-.687.687 0 .36.328.704.672.704.39 0 .718-.329.718-.704zm0 0"/></symbol><symbol overflow="visible" id="b"><path d="M8.125-3.938c-.016-.124-.031-.25-.031-.359 0-.125.015-.25.031-.36H.953c.031.11.031.235.031.36 0 .11 0 .234-.03.36zm0 2.626c-.016-.125-.031-.235-.031-.36s.015-.234.031-.36H.953a1.4 1.4 0 0 1 .031.36c0 .125 0 .234-.03.36zm0 0"/></symbol><symbol overflow="visible" id="c"><path d="M4.11-7.61a.735.735 0 0 1-.188-.14c-.063-.063-.11-.11-.14-.188-1.47 1.47-2.345 3.032-2.345 4.563v.781c0 1.516.875 3.078 2.344 4.547a.735.735 0 0 1 .14-.187.735.735 0 0 1 .188-.141C2.781.281 2.156-1.203 2.156-2.594v-.781c0-1.39.625-2.89 1.953-4.234zm0 0"/></symbol><symbol overflow="visible" id="d"><path d="M5 .031v-.36l-.625-.03c-.656-.032-.781-.172-.781-.782v-7.093l-.156-.063c-.782.406-1.626.766-2.72 1.156l.079.5h.125l1.547-.687.031-.016c.063 0 .094.11.094.407v5.796c0 .61-.125.75-.781.782l-.672.03v.36L3.125 0zm0 0"/></symbol><symbol overflow="visible" id="e"><path d="M8.125-2.625c-.016-.125-.031-.25-.031-.36 0-.124.015-.25.031-.359H.953c.031.11.031.235.031.36 0 .109 0 .234-.03.359zm0 0"/></symbol><symbol overflow="visible" id="f"><path d="M3.703-5.266c-.453.047-.86.079-1.312.079.187-1.125.328-1.704.53-2.36l-.124-.172c-.235.14-.563.282-.938.422l-.296 2.031c-.516.25-.829.391-1.047.454l-.032.156H1.5L.828-1.281c-.062.297-.156.593-.156.906 0 .297.125.484.36.484.421 0 .827-.234 1.765-1 .219-.156.14-.109.375-.296l-.125-.22-.531.376c-.36.25-.594.36-.735.36-.093 0-.156-.095-.156-.235 0-.313.14-1.25.516-3.016l.156-.734h1.281zm0 0"/></symbol><symbol overflow="visible" id="g"><path d="M3.64-2.594v-.781c0-1.531-.874-3.094-2.343-4.563-.047.079-.094.125-.156.188a.427.427 0 0 1-.188.14c1.328 1.344 1.969 2.844 1.969 4.235v.781c0 1.39-.64 2.875-1.969 4.219.078.031.14.078.188.14.062.063.109.126.156.188C2.766.484 3.64-1.078 3.64-2.594zm0 0"/></symbol><symbol overflow="visible" id="h"><path d="M2.39-2.984c0-.438-.28-.72-.718-.72-.422 0-.719.282-.719.72 0 .421.297.718.719.718.437 0 .719-.296.719-.718zm0 0"/></symbol><symbol overflow="visible" id="j"><path d="M8.125-2.625c-.016-.125-.031-.25-.031-.36 0-.124.015-.25.031-.359H4.906v-3.234c-.125.031-.25.047-.36.047-.124 0-.25-.016-.359-.047v3.234H.954c.031.11.031.235.031.36 0 .109 0 .234-.03.359h3.234V.594c.109-.016.234-.031.359-.031.11 0 .234.015.36.03v-3.218zm0 0"/></symbol><symbol overflow="visible" id="k"><path d="M5.516-2.672c0-.578-.235-1.078-.657-1.375-.312-.219-.578-.312-1.171-.422C4.64-5.219 5-5.766 5-6.469c0-1.062-.89-1.765-2.219-1.765-.812 0-1.344.218-1.922.796L.516-5.952H.89l.203-.672c.14-.406.89-.813 1.515-.813.766 0 1.407.641 1.407 1.391 0 .89-.704 1.64-1.547 1.64-.11 0-.563-.03-.563-.03l-.156.64.094.063c.453-.204.672-.266 1-.266 1 0 1.562.64 1.562 1.734 0 1.22-.718 2.016-1.843 2.016a2.035 2.035 0 0 1-1.391-.516C.89-1.03.734-1.296.5-1.953l-.328.125c.266.734.36 1.156.422 1.75.64.219 1.156.312 1.61.312.952 0 2.046-.53 2.702-1.328.407-.5.61-1.015.61-1.578zm0 0"/></symbol><symbol overflow="visible" id="m"><path d="M5.594-2.625C5.594-4 4.766-4.891 3.5-4.891c-.703 0-1.14.282-1.938.938.25-2.172 1.266-3.344 3.407-3.985v-.093l-.438-.203c-1.156.375-1.64.625-2.25 1.14C1.047-6.047.375-4.594.375-2.954c0 1.97.969 3.188 2.5 3.188 1.563 0 2.719-1.218 2.719-2.859zm-1.032.422c0 1.25-.609 2.047-1.53 2.047-1.016 0-1.563-.875-1.563-2.469 0-.422.047-.656.187-.86.25-.406.813-.687 1.39-.687.907 0 1.517.797 1.517 1.969zm0 0"/></symbol><symbol overflow="visible" id="i"><path d="M4.547-1.984c0-.422-.203-.797-.547-1.016-.234-.156-.469-.234-.938-.313.766-.546 1.063-.953 1.063-1.468 0-.797-.719-1.313-1.797-1.313-.64 0-1.078.172-1.547.594L.5-4.406h.313l.156-.5c.11-.297.719-.594 1.219-.594.624 0 1.14.469 1.14 1.031 0 .657-.562 1.219-1.25 1.219-.078 0-.453-.031-.453-.031l-.125.469.078.046c.36-.14.547-.187.797-.187.813 0 1.266.469 1.266 1.265 0 .907-.579 1.5-1.485 1.5-.437 0-.828-.124-1.125-.374C.813-.766.671-.97.5-1.438l-.266.078C.437-.813.516-.5.563-.047c.515.156.937.219 1.296.219.782 0 1.657-.39 2.188-.984.328-.36.5-.75.5-1.172zm0 0"/></symbol><symbol overflow="visible" id="l"><path d="M4.594.031c-.016-.187-.016-.281-.016-.406 0-.11 0-.203.016-.39l-3.328.078 1.75-1.704c.937-.906 1.234-1.39 1.234-2.062 0-1.016-.75-1.64-1.984-1.64-.688 0-1.172.171-1.641.624L.469-4.266H.75l.11-.406c.171-.516.515-.734 1.156-.734.828 0 1.359.468 1.359 1.218 0 .672-.406 1.329-1.484 2.391L.234-.203V.03L2.391 0zm0 0"/></symbol></defs><use xlink:href="#a" x="-.319" y="10.961"/><use xlink:href="#a" x="2.67" y="10.961"/><use xlink:href="#a" x="5.659" y="10.961"/><use xlink:href="#b" x="18.606" y="10.961"/><use xlink:href="#c" x="37.651" y="10.961"/><use xlink:href="#d" x="42.72" y="10.961"/><use xlink:href="#e" x="51.351" y="10.961"/><use xlink:href="#f" x="63.103" y="10.961"/><use xlink:href="#g" x="67.144" y="10.961"/><use xlink:href="#h" x="74.867" y="10.961"/><use xlink:href="#c" x="80.869" y="10.961"/><use xlink:href="#d" x="85.938" y="10.961"/><use xlink:href="#e" x="94.569" y="10.961"/><use xlink:href="#f" x="106.321" y="10.961"/><use xlink:href="#g" x="110.362" y="10.961"/><use xlink:href="#h" x="118.085" y="10.961"/><use xlink:href="#c" x="124.087" y="10.961"/><use xlink:href="#d" x="129.156" y="10.961"/><use xlink:href="#e" x="137.787" y="10.961"/><use xlink:href="#f" x="149.539" y="10.961"/><use xlink:href="#g" x="153.58" y="10.961"/><use xlink:href="#b" x="168.608" y="10.961"/><use xlink:href="#e" x="187.653" y="10.961"/><use xlink:href="#f" x="196.739" y="10.961"/><use xlink:href="#i" x="200.789" y="6.728"/><use xlink:href="#j" x="208.942" y="10.961"/><use xlink:href="#k" x="220.682" y="10.961"/><use xlink:href="#h" x="229.314" y="10.961"/><use xlink:href="#f" x="235.315" y="10.961"/><use xlink:href="#l" x="239.365" y="6.728"/><use xlink:href="#e" x="247.518" y="10.961"/><use xlink:href="#k" x="259.258" y="10.961"/><use xlink:href="#h" x="267.89" y="10.961"/><use xlink:href="#f" x="273.891" y="10.961"/><use xlink:href="#j" x="280.598" y="10.961"/><use xlink:href="#d" x="292.338" y="10.961"/><use xlink:href="#j" x="18.61" y="25.622"/><use xlink:href="#k" x="45.593" y="25.622"/><use xlink:href="#h" x="54.225" y="25.622"/><use xlink:href="#c" x="60.226" y="25.622"/><use xlink:href="#d" x="65.295" y="25.622"/><use xlink:href="#e" x="73.939" y="25.622"/><use xlink:href="#f" x="85.679" y="25.622"/><use xlink:href="#g" x="89.72" y="25.622"/><use xlink:href="#h" x="97.443" y="25.622"/><use xlink:href="#c" x="103.444" y="25.622"/><use xlink:href="#d" x="108.513" y="25.622"/><use xlink:href="#e" x="117.157" y="25.622"/><use xlink:href="#f" x="128.897" y="25.622"/><use xlink:href="#g" x="132.938" y="25.622"/><use xlink:href="#h" x="140.661" y="25.622"/><use xlink:href="#f" x="146.662" y="25.622"/><use xlink:href="#b" x="168.612" y="25.622"/><use xlink:href="#k" x="195.069" y="25.622"/><use xlink:href="#h" x="203.7" y="25.622"/><use xlink:href="#f" x="209.702" y="25.622"/><use xlink:href="#i" x="213.754" y="21.39"/><use xlink:href="#e" x="221.907" y="25.622"/><use xlink:href="#m" x="233.647" y="25.622"/><use xlink:href="#h" x="242.279" y="25.622"/><use xlink:href="#f" x="248.28" y="25.622"/><use xlink:href="#l" x="252.33" y="21.39"/><use xlink:href="#j" x="260.484" y="25.622"/><use xlink:href="#k" x="272.224" y="25.622"/><use xlink:href="#h" x="280.856" y="25.622"/><use xlink:href="#f" x="286.857" y="25.622"/><use xlink:href="#j" x="18.61" y="40.284"/><use xlink:href="#k" x="60.848" y="40.284"/><use xlink:href="#h" x="69.479" y="40.284"/><use xlink:href="#c" x="75.493" y="40.284"/><use xlink:href="#d" x="80.562" y="40.284"/><use xlink:href="#e" x="89.194" y="40.284"/><use xlink:href="#f" x="100.934" y="40.284"/><use xlink:href="#g" x="104.974" y="40.284"/><use xlink:href="#h" x="112.697" y="40.284"/><use xlink:href="#f" x="118.711" y="40.284"/><use xlink:href="#h" x="125.406" y="40.284"/><use xlink:href="#f" x="131.407" y="40.284"/><use xlink:href="#b" x="168.612" y="40.284"/><use xlink:href="#e" x="207.06" y="40.284"/><use xlink:href="#k" x="216.146" y="40.284"/><use xlink:href="#h" x="224.789" y="40.284"/><use xlink:href="#f" x="230.791" y="40.284"/><use xlink:href="#i" x="234.837" y="36.052"/><use xlink:href="#j" x="242.99" y="40.284"/><use xlink:href="#k" x="254.73" y="40.284"/><use xlink:href="#h" x="263.362" y="40.284"/><use xlink:href="#f" x="269.363" y="40.284"/><g><use xlink:href="#l" x="273.413" y="36.052"/></g><g><use xlink:href="#j" x="18.61" y="54.946"/></g><g><use xlink:href="#f" x="83.432" y="54.946"/></g><g><use xlink:href="#h" x="90.127" y="54.946"/></g><g><use xlink:href="#f" x="96.128" y="54.946"/></g><g><use xlink:href="#h" x="102.823" y="54.946"/></g><g><use xlink:href="#f" x="108.825" y="54.946"/></g><g><use xlink:href="#b" x="168.613" y="54.946"/></g><g><use xlink:href="#f" x="238.221" y="54.946"/></g><g><use xlink:href="#i" x="242.262" y="50.713"/></g></svg>