<svg xmlns:xlink="http://www.w3.org/1999/xlink" width="107ex" height="5ex" style="vertical-align:-1.833ex;margin-bottom:1px;margin-top:1px" viewBox="0 -1394.4 46041.5 2152.8" xmlns="http://www.w3.org/2000/svg"><defs><path stroke-width="10" id="a" d="M756 545c0-95-105-169-209-188 97-11 155-69 155-141C702 118 584 0 426 0H69C51 0 42 0 42 11c0 20 10 20 27 20 79 0 81 8 91 47l134 537c3 12 4 15 4 19 0 13-9 14-27 16-17 2-38 2-38 2-19 0-28 0-28 11 0 20 10 20 29 20h336c120 0 186-64 186-138zm-91 4c0 44-21 103-109 103H427c-43 0-45-3-54-38l-62-248h146c122 0 208 95 208 183zm-56-322c0 43-19 117-115 117H305L236 65c-5-18-5-20-5-23 0-8 3-9 13-10 6-1 8-1 22-1h136c118 0 207 97 207 196z"/><path stroke-width="10" id="b" d="M415 119c0-19-45-130-167-130C133-11 28 86 28 220c0 125 92 228 208 228 125 0 179-97 179-196 0-21-3-21-25-21H111c0-36 0-102 30-150 23-37 63-67 113-67 10 0 100 0 135 103 2 8 4 14 13 14 5 0 13-2 13-12zm-66 133c0 39-10 174-113 174-34 0-118-25-124-174h237zm-3 410c0-12-8-23-17-30L177 510l-17 18 120 153c4 6 15 17 30 17 18 0 36-18 36-36z"/><path stroke-width="10" id="c" d="M467 432c0-4-22-52-117-145-36-36-98-90-98-90-36-31-65-56-119-114 9 3 27 3 27 3 21 0 36-4 70-17 21-7 39-13 59-13 33 0 97 19 120 84 3 7 5 13 14 13 8 0 12-5 12-10 0-27-58-154-157-154-29 0-47 16-64 37-25 29-35 38-58 38-32 0-62-27-85-62-6-11-8-13-16-13 0 0-12 0-12 10 0 7 35 64 103 131l90 84c19 16 103 88 139 131-26 0-37 0-77 15-23 8-42 15-63 15-8 0-66-1-85-47-2-6-4-11-13-11s-12 6-12 11c0 21 46 114 121 114 33 0 50-20 69-43 15-17 27-32 51-32s45 16 75 64c5 9 8 11 15 11 0 0 11 0 11-10z"/><path stroke-width="10" id="d" d="M284 625c0-30-30-53-53-53-24 0-38 17-38 36 0 27 27 53 54 53 23 0 37-16 37-36zm9-482c0-9-37-154-131-154-48 0-82 35-82 82 0 21 13 54 23 80 16 43 61 159 69 185 4 10 11 31 11 52 0 32-17 32-25 32-34 0-74-30-101-124-5-16-6-18-16-18 0 0-12 0-12 10 0 9 38 154 132 154 50 0 82-37 82-82 0-19-5-33-13-53-10-27-10-29-22-58l-39-105c-23-61-29-75-29-100 0-23 7-33 24-33 51 0 84 61 102 124 5 15 5 18 15 18 3 0 12 0 12-10z"/><path stroke-width="10" id="e" d="M430 107c0-12-84-118-227-118-98 0-157 79-157 181 0 175 151 272 262 272 69 0 107-41 107-85 0-14-5-73-75-103-50-21-124-23-153-23h-53c-15-61-16-92-16-104 0-32 9-116 87-116 12 0 121 0 200 99 6 8 8 10 13 10 6 0 12-7 12-13zm-48 250c0 34-27 63-74 63-26 0-129-15-168-167h41c41 0 201 0 201 104z"/><path stroke-width="10" id="f" d="M436 377c0-36-28-59-55-59s-38 19-38 35c0 26 22 50 52 55 0 0-16 12-42 12-43 0-72-26-80-33-24-22-52-69-56-82l-32-130c-4-18-38-154-40-158-7-20-25-28-37-28-15 0-29 9-29 27 0 5 6 28 9 43l58 231c13 52 16 63 16 84 0 38-14 46-31 46-36 0-56-48-73-119-6-22-7-23-17-23 0 0-12 0-12 10 0 3 13 63 31 97 9 18 28 57 74 57 47 0 83-32 91-77 19 28 63 77 128 77 51 0 83-30 83-65z"/><path stroke-width="10" id="g" d="M571 143c0-8-37-154-131-154-47 0-82 35-82 82 0 11 1 23 10 46 16 43 65 171 65 233 0 33-9 70-54 70-95 0-148-91-163-122l-13-50c-5-23-11-45-17-67l-22-90c-6-25-18-72-19-74-7-20-25-28-37-28-15 0-29 9-29 27 0 5 6 28 9 43l58 231c13 52 16 63 16 84 0 33-11 46-31 46-36 0-56-48-73-119-6-22-7-23-17-23 0 0-12 0-12 10 0 4 14 63 30 97 10 18 29 57 75 57s87-31 92-87c17 23 66 87 156 87 72 0 115-40 115-107 0-57-42-167-61-220-9-22-18-46-18-71 0-23 7-33 24-33 49 0 82 56 102 124 5 15 5 18 15 18 3 0 12 0 12-10z"/><path stroke-width="10" id="h" d="M203 1c0-117-80-194-91-194-5 0-10 4-10 11 0 3 0 5 11 16 33 33 68 93 68 167 0 14-2 15-2 15s-2-1-5-3c-10-9-23-13-35-13-33 0-53 26-53 53 0 28 20 53 53 53 39 0 64-39 64-105z"/><path stroke-width="10" id="i" d="M508 379c0-39-29-61-55-61-27 0-38 19-38 35 0 12 9 51 57 54-2 2-2 3-4 4-8 6-9 6-21 8-2 1-3 1-9 1-49 0-95-43-143-96-23-24-55-56-86-74 85-11 148-40 148-105 0-10 0-14-4-31-4-16-8-39-8-56 0-36 13-47 32-47 44 0 67 51 87 124 3 14 4 18 14 18 3 0 12 0 12-10 0 0-11-57-36-101-22-37-49-53-79-53-52 0-92 40-92 99 0 11 2 23 4 35 3 10 3 14 3 21 0 66-82 82-116 85-6-25-51-210-56-219-6-12-21-21-34-21-9 0-29 5-29 28 0 6 0 8 4 22l145 576 3 20c0 10-2 17-50 17-15 0-24 0-24 12 0 18 11 19 19 20 26 2 99 10 122 10 13 0 13-11 13-11L183 261c38 15 77 55 111 93 72 80 118 88 146 88 45 0 68-33 68-63z"/><path stroke-width="10" id="j" d="M332-238c0-5-5-10-10-10-2 0-4 1-6 2-110 83-215 283-215 454v84c0 171 105 371 215 454 2 1 4 2 6 2 5 0 10-5 10-10 0-3-2-6-4-8-104-78-173-278-173-438v-84c0-160 69-360 173-438 2-2 4-5 4-8z"/><path stroke-width="10" id="k" d="M330 420c0-20-10-20-30-20h-94l-74-295c-4-17-6-24-6-48 0-33 10-46 31-46 34 0 87 24 130 128 5 11 6 14 15 14 4 0 12 0 12-10 0-8-57-154-159-154-54 0-92 38-92 92 0 18 4 35 76 319H51c-20 0-28 0-28 12 0 19 10 19 30 19h94l39 159c9 35 37 36 40 36 17 0 29-10 29-27 0-6-5-26-41-168h88c18 0 28 0 28-11z"/><path stroke-width="10" id="l" d="M288 208c0-171-105-371-215-454-2-1-4-2-6-2-5 0-10 5-10 10 0 3 2 6 4 8 104 78 173 278 173 438v84c0 160-69 360-173 438-2 2-4 5-4 8 0 5 5 10 10 10 2 0 4-1 6-2 110-83 215-283 215-454v-84z"/><path stroke-width="10" id="m" d="M516 683L372 105c-4-17-6-24-6-48 0-20 3-46 30-46 41 0 59 59 76 124 3 14 4 18 14 18 3 0 12 0 12-10 0 0-13-63-30-99-16-32-39-55-74-55-48 0-83 33-91 75-60-71-110-75-130-75C95-11 40 55 40 149c0 146 124 293 241 293 45 0 74-27 92-64l60 237 3 20c0 10-2 17-50 17-15 0-24 0-24 12 0 13 6 18 14 19 17 2 112 11 127 11 13 0 13-11 13-11zM361 332c0 6-14 88-79 88-40 0-85-37-116-96-23-46-55-169-55-219 0-39 14-94 64-94 28 0 69 16 113 71 15 17 15 19 20 37l50 196c1 5 3 11 3 17z"/><path stroke-width="10" id="n" d="M722 347c0-11-9-20-20-20H76c-11 0-20 9-20 20s9 20 20 20h626c11 0 20-9 20-20zm0-194c0-11-9-20-20-20H76c-11 0-20 9-20 20s9 20 20 20h626c11 0 20-9 20-20z"/><path stroke-width="10" id="o" d="M192 250c0-29-24-53-53-53s-53 24-53 53 24 53 53 53 53-24 53-53z"/><path stroke-width="10" id="p" d="M722 250c0-11-9-20-20-20H76c-11 0-20 9-20 20s9 20 20 20h626c11 0 20-9 20-20z"/><path stroke-width="10" id="q" d="M419 0c-35 3-122 3-162 3S130 3 95 0v31h32c90 0 93 12 93 48v518c-52-26-111-26-131-26v31c32 0 120 0 182 64 23 0 23-2 23-26V79c0-37 3-48 93-48h32V0z"/><path stroke-width="10" id="r" d="M460 320c0-79-5-157-37-226C379-1 303-22 249-22 200-22 127-2 84 79c-41 76-45 166-45 241 0 80 5 158 37 227 41 93 114 119 174 119 42 0 124-16 170-112 35-74 40-154 40-234zm-83 12c0 63 0 139-10 195-19 99-85 117-118 117-25 0-100-9-119-128-8-54-8-120-8-184 0-59 0-151 11-211C151 25 210 0 249 0c45 0 102 30 117 125 11 64 11 132 11 207z"/><path stroke-width="10" id="s" d="M691 372c0-48-32-182-66-260-26-60-70-123-145-123-30 0-99 6-125 70-40-70-87-70-104-70-75 0-142 35-142 126 0 38 12 84 56 202 7 17 18 45 18 70 0 32-16 33-25 33-35 0-74-31-101-124-5-16-6-18-16-18 0 0-12 0-12 10 0 9 37 154 132 154 49 0 82-37 82-82 0-20-6-34-17-64-47-123-52-162-52-194 0-17 0-91 80-91 39 0 69 31 92 84-1 5-1 7-1 18 0 18 2 36 9 66 7 26 54 217 57 224 7 20 25 28 37 28 15 0 29-9 29-27 0-6-10-43-15-65l-42-168c-4-14-11-45-11-73 0-57 27-87 74-87 49 0 84 35 110 88 26 51 55 149 55 183 0 48-25 74-36 85-9 8-15 14-15 27 0 22 25 48 50 48 17 0 44-15 44-70z"/><path stroke-width="10" id="t" d="M722 250c0-11-9-20-20-20H409V-63c0-11-9-20-20-20s-20 9-20 20v293H76c-11 0-20 9-20 20s9 20 20 20h293v293c0 11 9 20 20 20s20-9 20-20V270h293c11 0 20-9 20-20z"/><path stroke-width="10" id="u" d="M449 174L421 0H50c0 24 0 26 11 37l192 214c55 62 105 141 105 221 0 82-43 163-134 163-58 0-112-37-135-102 3 1 5 1 13 1 35 0 53-26 53-52 0-41-35-53-52-53-3 0-53 0-53 56 0 89 74 181 187 181 122 0 212-80 212-194 0-100-60-154-216-292L127 77h180c22 0 88 0 95 8 10 15 17 59 22 89h25z"/><path stroke-width="10" id="v" d="M457 171c0-102-91-193-213-193C135-22 42 44 42 135c0 44 32 58 56 58 29 0 56-20 56-56 0-38-31-60-66-55C123 23 198 6 241 6c44 0 113 29 113 165 0 98-37 166-119 166h-44c-17 0-24 0-24 11 0 10 7 11 15 12 7 0 31 2 39 3 25 1 59 4 89 52 26 44 28 102 28 114 0 90-55 112-96 112-36 0-102-13-133-62 15 0 62 0 62-50 0-29-20-51-51-51-29 0-51 19-51 52 0 76 76 136 177 136 96 0 184-56 184-138 0-79-58-149-140-176 104-21 167-99 167-181z"/><path stroke-width="10" id="w" d="M192 53c0-29-24-53-53-53S86 24 86 53s24 53 53 53 53-24 53-53z"/></defs><g stroke="currentColor" fill="currentColor" stroke-width="0" transform="scale(1 -1)"><use xlink:href="#a"/><use xlink:href="#b" x="764"/><use xlink:href="#c" x="1213"/><use xlink:href="#d" x="1685"/><use xlink:href="#e" x="2035"/><g transform="translate(2506)"><use xlink:href="#f"/><g transform="matrix(.707 0 0 .707 456 -154)"><use xlink:href="#g"/><use xlink:href="#h" x="605"/><use xlink:href="#i" x="888"/></g></g><use xlink:href="#j" x="4061"/><use xlink:href="#k" x="4455"/><use xlink:href="#l" x="4821"/><g transform="translate(5335)"><path stroke="none" d="M0 220h1011v60H0z"/><use xlink:href="#m" x="243" y="676"/><g transform="translate(60 -724)"><use xlink:href="#m"/><use xlink:href="#k" x="525"/></g></g><use xlink:href="#n" x="6744"/><use xlink:href="#g" x="7805"/><use xlink:href="#o" x="8632"/><g transform="translate(9137)"><use xlink:href="#a"/><g transform="translate(764 -192)"><use transform="scale(.707)" xlink:href="#j"/><use transform="scale(.707)" xlink:href="#g" x="394"/><use transform="scale(.707)" xlink:href="#p" x="999"/><use transform="scale(.707)" xlink:href="#q" x="1782"/><use transform="scale(.707)" xlink:href="#l" x="2287"/><use transform="scale(.707)" xlink:href="#h" x="2681"/><use transform="translate(2095) scale(.707)" xlink:href="#r" fill="#00f" stroke="#00f"/></g></g><use xlink:href="#j" x="12454"/><use xlink:href="#k" x="12848"/><use xlink:href="#l" x="13214"/><use xlink:href="#o" x="13831"/><use xlink:href="#j" x="14336"/><g transform="translate(14730)"><use xlink:href="#s"/><use transform="scale(.707)" xlink:href="#q" x="1019" y="-213"/></g><use xlink:href="#p" x="16130"/><g transform="translate(17135)"><use xlink:href="#s"/><use transform="scale(.707)" xlink:href="#r" x="1019" y="-213"/></g><use xlink:href="#l" x="18313"/><use xlink:href="#t" x="18930"/><use xlink:href="#g" x="19935"/><use xlink:href="#o" x="20762"/><g transform="translate(21267)"><use xlink:href="#a"/><g transform="translate(764 -192)"><use transform="scale(.707)" xlink:href="#j"/><use transform="scale(.707)" xlink:href="#g" x="394"/><use transform="scale(.707)" xlink:href="#p" x="999"/><use transform="scale(.707)" xlink:href="#q" x="1782"/><use transform="scale(.707)" xlink:href="#l" x="2287"/><use transform="scale(.707)" xlink:href="#h" x="2681"/><use transform="translate(2095) scale(.707)" xlink:href="#q" fill="red" stroke="red"/></g></g><use xlink:href="#j" x="24584"/><use xlink:href="#k" x="24978"/><use xlink:href="#l" x="25344"/><use xlink:href="#o" x="25960"/><use xlink:href="#j" x="26466"/><g transform="translate(26860)"><use xlink:href="#s"/><use transform="scale(.707)" xlink:href="#u" x="1019" y="-213"/></g><use xlink:href="#p" x="28260"/><g transform="translate(29265)"><use xlink:href="#s"/><use transform="scale(.707)" xlink:href="#q" x="1019" y="-213"/></g><use xlink:href="#l" x="30443"/><use xlink:href="#t" x="31060"/><use xlink:href="#g" x="32065"/><use xlink:href="#o" x="32892"/><g transform="translate(33397)"><use xlink:href="#a"/><g transform="translate(764 -192)"><use transform="scale(.707)" xlink:href="#j"/><use transform="scale(.707)" xlink:href="#g" x="394"/><use transform="scale(.707)" xlink:href="#p" x="999"/><use transform="scale(.707)" xlink:href="#q" x="1782"/><use transform="scale(.707)" xlink:href="#l" x="2287"/><use transform="scale(.707)" xlink:href="#h" x="2681"/><use transform="translate(2095) scale(.707)" xlink:href="#u" fill="#f0f" stroke="#f0f"/></g></g><use xlink:href="#j" x="36714"/><use xlink:href="#k" x="37108"/><use xlink:href="#l" x="37474"/><use xlink:href="#o" x="38090"/><use xlink:href="#j" x="38596"/><g transform="translate(38990)"><use xlink:href="#s"/><use transform="scale(.707)" xlink:href="#v" x="1019" y="-213"/></g><use xlink:href="#p" x="40390"/><g transform="translate(41395)"><use xlink:href="#s"/><use transform="scale(.707)" xlink:href="#u" x="1019" y="-213"/></g><use xlink:href="#l" x="42573"/><use xlink:href="#t" x="43521"/><use xlink:href="#w" x="44859"/><use xlink:href="#w" x="45308"/><use xlink:href="#w" x="45758"/></g></svg>