<svg xmlns="http://www.w3.org/2000/svg" xmlns:xlink="http://www.w3.org/1999/xlink" width="161pt" height="16" viewBox="0 0 161 12"><defs><symbol overflow="visible" id="a"><path d="M8.938-1.25l-.172-.297-.454.297c-.359.219-.5.313-.624.313-.079 0-.032.03-.032-.11 0-.11.032-.219.094-.469l.89-3.546c.047-.204.079-.407.079-.5 0-.204-.25-.47-.438-.47-.344 0-.906.266-1.64.766-.75.547-1.172.97-1.75 1.782l.234.109.36-1.64c.046-.25.077-.423.077-.5 0-.235-.25-.516-.437-.516-.36 0-1.016.312-1.672.812-.531.407-.765.657-1.547 1.703l.25.094.39-1.594c.048-.187.079-.359.079-.5 0-.234-.25-.515-.406-.515-.266 0-.813.297-1.703.922l-.391.296.172.485.547-.36c.437-.28.39-.265.469-.265.14 0 .078 0 .078.172 0 .61-.5 2.922-.985 4.625l.078.281L1.5-.094l.297-1.328c.281-1.328.562-1.937 1.234-2.656.5-.547.938-.875 1.266-.875.094 0 0-.031 0 .125 0 .422-.25 1.781-.766 3.875l-.187.797.14.281 1-.219.266-1.39c.203-.97.563-1.766 1.094-2.36C6.5-4.563 7-4.954 7.39-4.954c.093 0 .015-.015.015.173 0 .281-.015.453-.312 1.5l-.5 1.875c-.11.328-.157.64-.157.906 0 .297.266.61.5.61.313 0 .829-.282 2.079-1.22zm0 0"/></symbol><symbol overflow="visible" id="b"><path d="M2.969-1.25l-.172-.297-.453.297c-.36.234-.5.313-.625.313-.078 0-.016.03-.016-.11 0-.11 0-.203.078-.469l.922-3.64c.047-.203.063-.313.063-.422 0-.203-.22-.453-.422-.453-.266 0-.797.281-1.703.922l-.407.296.188.485.547-.36c.344-.218.375-.234.484-.234.11 0 .047-.031.047.11 0 .109-.047.359-.094.53L.625-1.405c-.11.375-.156.672-.156.922 0 .28.265.593.5.593.312 0 .844-.296 2.078-1.218zm.344-6.406c0-.282-.313-.61-.563-.61-.36 0-.844.516-.844.922 0 .297.328.625.625.625.375 0 .781-.484.781-.937zm0 0"/></symbol><symbol overflow="visible" id="c"><path d="M5.875-5.875c-.14-.078-.344-.156-.453-.156-.469 0-1.063.468-1.797 1.578l-.453.656.25.094-.078-.578c-.14-1.188-.594-1.75-1.297-1.75-.313 0-.688.14-.797.297L.484-4.61l.407.25c.437-.485.578-.61.812-.61.39 0 .516.36.719 1.532l.125.718-.438.656C1.594-1.25 1.297-.905.953-.905c-.172 0-.172.078-.203.015l-.188-.468-.453.062c0 .36-.03.516-.093.89-.032.141-.047.173-.063.329.219.125.531.203.672.203.39 0 .953-.375 1.328-.938l.906-1.406-.234-.094.125.829c.172 1.015.578 1.609 1 1.609.266 0 .75-.234 1.125-.578l.64-.578-.218-.469c-.578.453-.766.61-.953.61-.188 0-.25-.094-.453-.5.015.046-.11-.407-.172-.75L3.5-3.313l.39-.532c.563-.765.782-1.015 1.157-1.015.187 0 .187-.032.312.312l.36-.11.203-1.171zm0 0"/></symbol><symbol overflow="visible" id="d"><path d="M3.703-5.516c-.453.047-.86.063-1.156.063.172-.984.297-1.578.531-2.25l-.25-.328a7.16 7.16 0 0 1-1.094.531l-.296 2.031c-.391.203-.704.328-1.063.407l-.047.406h1l-.64 3.25C.625-1.11.53-.813.53-.5c0 .297.266.61.5.61.422 0 .922-.282 1.86-1.032.218-.172.14-.125.437-.36l-.25-.437-.672.469c-.36.25-.484.313-.625.313-.093 0-.031.046-.031-.11 0-.297.156-1.234.516-3l.14-.61h1.266l.203-.89zm0 0"/></symbol><symbol overflow="visible" id="e"><path d="M6.219-1.25l-.188-.297-.453.297c-.297.188-.469.281-.625.281-.094 0-.016.047-.016-.078 0-.14.032-.328.079-.469L6.03-5.828l-.187-.219-.985.25-.14.719c-.172.906-.422 1.61-.782 2.156-.703 1.11-1.546 1.953-2.03 1.953-.11 0-.032.031-.032-.172 0-.187.031-.312.078-.625l.688-3.25c.03-.187.062-.343.062-.5 0-.234-.234-.515-.39-.515-.25 0-.813.281-1.704.922l-.39.296.172.485.546-.36c.36-.218.375-.234.485-.234.125 0 .062-.031.062.11a.792.792 0 0 1-.03.203l-.75 3.562c-.016.11-.048.375-.048.563 0 .265.328.609.563.609.75 0 2.297-1.375 3.297-3.016l-.235-.093-.437 1.687c-.094.313-.14.61-.14.797 0 .297.28.625.5.625.312 0 .859-.313 2.077-1.234zm0 0"/></symbol><symbol overflow="visible" id="f"><path d="M4.594-5.953c-.14-.063-.188-.078-.25-.078-.36 0-.844.328-1.266.937-.406.594-.86 1.25-1.172 1.907h.282L2.5-4.704c.063-.25.14-.531.14-.813 0-.234-.218-.515-.406-.515-.25 0-.812.297-1.703.922l-.39.296.187.485.547-.36c.328-.218.375-.234.469-.234.125 0 .062-.031.062.125 0 .703-.515 3.156-1 4.75l.235.172c.296-.094.562-.156.953-.203l.328-1.563c.219-.984.453-1.53.984-2.203.406-.531.625-.75.89-.75.188 0 .204.032.36.235h.36c.046-.594.109-.97.218-1.532zm0 0"/></symbol><symbol overflow="visible" id="g"><path d="M4.61-4.953c0-.563-.532-1.078-1.141-1.078-.781 0-2.188.843-2.672 1.61C.437-3.845.03-2.313.03-1.47.031-.547.703.125 1.563.125 2.25.125 3-.235 4.171-1.188l-.203-.468-.438.312c-.64.453-1.11.657-1.531.657-.578 0-.781-.313-.781-1.047 0-.313.031-.61.078-.844l.86-.219c.202-.047.515-.172.827-.297C4-3.547 4.61-4.219 4.61-4.954zm-1.173.187c0 .516-.265.954-.89 1.25a5.596 5.596 0 0 1-1.125.375l.062-.265c.188-.797.391-1.219.72-1.516.218-.219.515-.344.812-.344.343 0 .421.11.421.5zm0 0"/></symbol><symbol overflow="visible" id="h"><path d="M8.266-4.078a1.419 1.419 0 0 1-.047-.36c0-.109.015-.234.062-.484h-7.5c.063.25.063.375.063.484 0 .125 0 .235-.063.5h7.5zm0 2.625a1.332 1.332 0 0 1-.047-.36c0-.109.015-.234.062-.484h-7.5c.063.25.063.375.063.485 0 .125 0 .25-.063.5h7.5zm0 0"/></symbol><symbol overflow="visible" id="i"><path d="M4.984-1.14l-.156-.485c-.25.203-.266.219-.328.266-.375.312-.453.39-.625.39-.125 0-.047.031-.047-.156 0-.047 0-.078.016-.125l1.11-4.578-.25-.203-.438.218c-.438-.156-.672-.218-.985-.218-.344 0-.578.062-.906.218-.75.375-1.234.766-1.531 1.36l-.047.094C.28-3.297-.093-1.875-.093-.922c0 .516.327 1.047.546 1.047.25 0 .797-.281 1.234-.656.516-.453.985-1.016 1.641-1.938l-.234-.094-.344 1.516a2.715 2.715 0 0 0-.078.61c0 .265.25.562.437.562.266 0 .86-.36 1.891-1.219zM3.672-5.079c-.266 1.281-.453 1.797-.844 2.406C2.156-1.656 1.516-.969 1.125-.969c-.14 0-.078-.015-.078-.344 0-.765.297-2.093.719-3.093.296-.688.453-.766 1.03-.766.282 0 .5.047.86.172zm0 0"/></symbol><symbol overflow="visible" id="j"><path d="M2.516-3.125c0-.422-.407-.844-.844-.844-.422 0-.86.422-.86.844 0 .438.438.86.86.86.437 0 .844-.422.844-.86zm0 0"/></symbol><symbol overflow="visible" id="k"><path d="M5.828-4.719c0-.687-.437-1.312-.875-1.312-.14 0-.406.093-.5.187l-.656.625.25.453c.25-.171.266-.171.375-.171.328 0 .375.14.375.625 0 1.765-1.016 3.578-2.078 3.578-.578 0-.813-.36-.813-1.141 0-1.25.422-2.25 1.657-3.781l-.235-.407c-.281.141-.437.188-.765.188-.5 0-.985-.047-1.47-.094-.155 0-.25.032-.5.125-.155.328-.327.844-.515 1.64h.5l.266-.64c.094-.203.203-.203.484-.203.219 0 .438.031.656.031.25 0 .438-.015.75-.046l-.109-.235C1.297-3.859.765-2.766.765-1.578c0 .922.688 1.703 1.454 1.703.5 0 1.062-.25 1.61-.734C4.39-1.125 5-2.016 5.358-2.844c.266-.594.47-1.406.47-1.875zm0 0"/></symbol><symbol overflow="visible" id="l"><path d="M3.094-8.86l-.219-.187c-.75.375-1.063.438-2.047.531l-.094.5h.735c.281 0 .265-.046.265.141 0 .156-.046.422-.078.578L.516-1.703C.344-1.093.28-.75.28-.484c0 .28.281.593.5.593.313 0 .86-.296 2.094-1.218l-.25-.438-.469.297c-.344.234-.5.313-.61.313-.093 0-.03.03-.03-.11s.03-.297.078-.437L3.14-8.813zm0 0"/></symbol><symbol overflow="visible" id="n"><path d="M8.266-2.766a1.332 1.332 0 0 1-.047-.359c0-.11.015-.234.062-.484h-3.25v-3.266c-.25.063-.375.078-.484.078-.125 0-.25-.016-.5-.078v3.266H.78c.063.25.063.375.063.484 0 .125 0 .25-.063.5h3.266V.641c.25-.063.375-.079.5-.079.11 0 .234.016.484.079v-3.266h3.25zm0 0"/></symbol><symbol overflow="visible" id="o"><path d="M5.313-4.625c0-.453-.157-1.016-.297-1.203-.079-.094-.329-.203-.516-.203-.281 0-.75.14-1.078.312-.61.313-1 .672-1.75 1.625L1.906-4l1.047-4.813-.265-.234c-.75.375-1.079.438-2.047.531l-.11.5h.75c.282 0 .266-.046.266.157 0 .093-.016.218-.031.296L.312-.984C.297-.938.297-.891.297-.86c0 .468.719.984 1.375.984.437 0 1.156-.25 1.656-.625 1.156-.813 1.985-2.547 1.985-4.125zm-1.141.281c0 .766-.25 1.797-.61 2.578-.39.829-.734 1.079-1.374 1.079-.547 0-.72-.157-.72-.657 0-.297.048-.625.157-1.078.234-.953.484-1.422.953-1.922.39-.406.922-.718 1.266-.718.312 0 .328.14.328.718zm0 0"/></symbol><symbol overflow="visible" id="m"><path d="M4.281-.11V-.5l-.656-.031c-.531-.031-.484.015-.484-.453v-5.344l-.282-.094c-.625.313-1.312.578-2.375.906l.125.594h.22l1.25-.516h.03c.047 0-.078-.062-.078.157v4.297c0 .468.047.421-.469.453L.86-.5v.531L2.61 0l1.672.031zm0 0"/></symbol><symbol overflow="visible" id="p"><path d="M4.75-.11c-.016-.187-.016-.265-.016-.39s0-.203.032-.547l-3.141.094 1.5-1.469c.938-.922 1.281-1.5 1.281-2.172 0-1.015-.906-1.781-2.14-1.781-.688 0-1.282.219-1.782.703l-.187 1.39h.547l.172-.53c.156-.516.359-.61 1-.61.843 0 1.203.344 1.203 1.094 0 .672-.36 1.234-1.453 2.297L.078-.391v.422L2.406 0l2.36.031zm0 0"/></symbol></defs><use xlink:href="#a" x=".709" y="9.082"/><use xlink:href="#b" x="10.01" y="9.082"/><use xlink:href="#c" x="13.513" y="9.082"/><use xlink:href="#d" x="19.634" y="9.082"/><use xlink:href="#e" x="23.675" y="9.082"/><use xlink:href="#f" x="30.322" y="9.082"/><use xlink:href="#g" x="35.248" y="9.082"/><use xlink:href="#h" x="43.377" y="9.082"/><use xlink:href="#i" x="55.787" y="9.082"/><use xlink:href="#j" x="63.749" y="9.082"/><use xlink:href="#k" x="69.75" y="9.082"/><use xlink:href="#i" x="75.788" y="9.082"/><use xlink:href="#l" x="81.096" y="9.082"/><use xlink:href="#e" x="84.419" y="9.082"/><use xlink:href="#g" x="91.066" y="9.082"/><use xlink:href="#m" x="95.728" y="11.856"/><use xlink:href="#n" x="103.886" y="9.082"/><g><use xlink:href="#o" x="115.626" y="9.082"/></g><g><use xlink:href="#j" x="123.815" y="9.082"/></g><g><use xlink:href="#k" x="129.817" y="9.082"/></g><g><use xlink:href="#i" x="135.854" y="9.082"/><use xlink:href="#l" x="141.162" y="9.082"/><use xlink:href="#e" x="144.486" y="9.082"/><use xlink:href="#g" x="151.133" y="9.082"/></g><g><use xlink:href="#p" x="155.791" y="11.856"/></g></svg>