<svg xmlns="http://www.w3.org/2000/svg" xmlns:xlink="http://www.w3.org/1999/xlink" width="221pt" height="32pt" viewBox="0 0 221 32"><defs><symbol overflow="visible" id="a"><path d="M6.688-6.719c0-.984-.97-1.547-1.891-1.547-.594 0-1.203.032-1.797.032l-1.813-.032-.03.329.64.03c.281 0 .422.095.422.313 0 .172-.063.547-.11.907L1.063-.657c-.032.22-.188.298-.688.376L.312.03C.672.016 1.047 0 1.407 0c.64 0 1.266.031 1.922.031.563 0 1.125-.125 1.688-.469.953-.546 1.468-1.375 1.468-2.28 0-.516-.156-.907-.484-1.173-.313-.25-.672-.359-1.5-.468.688-.25.969-.391 1.36-.72.53-.484.827-1.03.827-1.64zm-1.25 4.203c0 1.22-.875 2.11-2.063 2.11-.25 0-.594-.016-.984-.047a2.223 2.223 0 0 0-.407-.031l.61-3.579h1.015c1.235 0 1.829.5 1.829 1.547zM5.655-6.5c0 1.25-.89 2-2.375 2h-.61l.579-3.266c.328 0 .64-.062.953-.062.969 0 1.453.422 1.453 1.328zm0 0"/></symbol><symbol overflow="visible" id="j"><path d="M8.125-3.938c-.016-.124-.031-.25-.031-.359 0-.125.015-.25.031-.36H.953c.031.11.031.235.031.36 0 .11 0 .234-.03.36zm0 2.626c-.016-.125-.031-.235-.031-.36s.015-.234.031-.36H.953a1.4 1.4 0 0 1 .031.36c0 .125 0 .234-.03.36zm0 0"/></symbol><symbol overflow="visible" id="k"><path d="M4.86-1.016l-.094-.25c-.079.079-.094.079-.157.125-.375.329-.562.438-.734.438-.125 0-.188-.094-.188-.281 0-.063 0-.094.016-.125l1.11-4.532-.125-.109-.391.219c-.469-.188-.703-.235-1.016-.235-.344 0-.578.063-.906.22-.75.374-1.125.734-1.438 1.312C.422-3.172.047-1.75.047-.781c0 .5.187.906.406.906.25 0 .688-.25 1.14-.625.516-.438.985-1 1.641-1.938L2.891-.921a2.882 2.882 0 0 0-.063.61c0 .28.094.437.281.437.266 0 .766-.328 1.75-1.14zM3.811-4.953c-.265 1.281-.484 1.906-.89 2.516-.656 1-1.406 1.734-1.797 1.734-.14 0-.219-.156-.219-.485 0-.765.313-2.093.735-3.078.28-.687.578-.906 1.156-.906.281 0 .5.047 1.015.219zm0 0"/></symbol><symbol overflow="visible" id="l"><path d="M4.11-7.61a.735.735 0 0 1-.188-.14c-.063-.063-.11-.11-.14-.188-1.47 1.47-2.345 3.032-2.345 4.563v.781c0 1.516.875 3.078 2.344 4.547a.735.735 0 0 1 .14-.187.735.735 0 0 1 .188-.141C2.781.281 2.156-1.203 2.156-2.594v-.781c0-1.39.625-2.89 1.953-4.234zm0 0"/></symbol><symbol overflow="visible" id="m"><path d="M5 .031v-.36l-.625-.03c-.656-.032-.781-.172-.781-.782v-7.093l-.156-.063c-.782.406-1.626.766-2.72 1.156l.079.5h.125l1.547-.687.031-.016c.063 0 .094.11.094.407v5.796c0 .61-.125.75-.781.782l-.672.03v.36L3.125 0zm0 0"/></symbol><symbol overflow="visible" id="n"><path d="M8.125-2.625c-.016-.125-.031-.25-.031-.36 0-.124.015-.25.031-.359H.953c.031.11.031.235.031.36 0 .109 0 .234-.03.359zm0 0"/></symbol><symbol overflow="visible" id="o"><path d="M3.703-5.266c-.453.047-.86.079-1.312.079.187-1.125.328-1.704.53-2.36l-.124-.172c-.235.14-.563.282-.938.422l-.296 2.031c-.516.25-.829.391-1.047.454l-.032.156H1.5L.828-1.281c-.062.297-.156.593-.156.906 0 .297.125.484.36.484.421 0 .827-.234 1.765-1 .219-.156.14-.109.375-.296l-.125-.22-.531.376c-.36.25-.594.36-.735.36-.093 0-.156-.095-.156-.235 0-.313.14-1.25.516-3.016l.156-.734h1.281zm0 0"/></symbol><symbol overflow="visible" id="p"><path d="M3.64-2.594v-.781c0-1.531-.874-3.094-2.343-4.563-.047.079-.094.125-.156.188a.427.427 0 0 1-.188.14c1.328 1.344 1.969 2.844 1.969 4.235v.781c0 1.39-.64 2.875-1.969 4.219.078.031.14.078.188.14.062.063.109.126.156.188C2.766.484 3.64-1.078 3.64-2.594zm0 0"/></symbol><symbol overflow="visible" id="r"><path d="M8.125-2.625c-.016-.125-.031-.25-.031-.36 0-.124.015-.25.031-.359H4.906v-3.234c-.125.031-.25.047-.36.047-.124 0-.25-.016-.359-.047v3.234H.954c.031.11.031.235.031.36 0 .109 0 .234-.03.359h3.234V.594c.109-.016.234-.031.359-.031.11 0 .234.015.36.03v-3.218zm0 0"/></symbol><symbol overflow="visible" id="s"><path d="M5.594.031c-.032-.25-.032-.36-.032-.531 0-.156 0-.281.032-.547l-4.14.125L3.64-3.234c1.156-1.22 1.515-1.875 1.515-2.782 0-1.375-.937-2.218-2.453-2.218-.86 0-1.453.234-2.031.828l-.203 1.64h.344l.156-.562c.187-.688.625-.984 1.422-.984 1.03 0 1.687.64 1.687 1.656 0 .906-.5 1.781-1.86 3.218L.189-.28V.03L2.858 0zm0 0"/></symbol><symbol overflow="visible" id="t"><path d="M5.172-4.5c0-.453-.11-.922-.25-1.094-.078-.11-.234-.172-.422-.172-.281 0-.64.094-.969.266-.61.328-1.015.688-1.75 1.625l1.032-4.75-.141-.14c-.625.312-1.063.421-1.922.5l-.047.25h.578c.282 0 .407.093.407.296 0 .078-.016.219-.032.282L.453-.845c-.016.031-.016.078-.016.11 0 .468.579.859 1.235.859.437 0 1.047-.219 1.562-.594C4.391-1.28 5.172-2.922 5.172-4.5zm-.86.297c0 .766-.25 1.781-.609 2.562-.39.829-.875 1.204-1.515 1.204-.547 0-.844-.266-.844-.766 0-.297.047-.64.156-1.078.219-.953.516-1.531.984-2.031.391-.407 1.016-.75 1.36-.75.312 0 .469.265.469.859zm0 0"/></symbol><symbol overflow="visible" id="u"><path d="M4.656-5.469c-.312-.203-.703-.297-1.156-.297-.531 0-1.39.422-2.063 1.016C.75-4.14.298-2.906.298-1.625c0 1.14.5 1.75 1.453 1.75.656 0 1.219-.234 1.89-.766l.594-.5-.093-.234-.188.125c-.86.563-1.312.766-1.734.766-.672 0-1.016-.47-1.016-1.422 0-1.266.406-2.5.984-2.953.25-.22.547-.313.938-.313.531 0 .969.219.969.516v.718h.265c.094-.78.188-1.218.297-1.53zm0 0"/></symbol><symbol overflow="visible" id="b"><path d="M4.25-4.188l-.125-.062-.328.203c-.406-.156-.688-.219-.969-.219-.265 0-.5.079-.765.22-.344.202-.766.515-.985.734C.703-2.892.312-1.595.312-.688c0 .516.126.782.344.782.219 0 .406-.063.719-.266l.078-.047c.61-.422 1.25-1.047 1.61-1.625l-.735 3.657a.818.818 0 0 1-.265.5l.093.124c.297-.062.594-.124.828-.14.032-.485.094-.969.188-1.406l.812-4.032c.11-.546.172-.78.266-1.046zm-.781.594l-.203.844c-.094.453-.313.844-.672 1.25-.5.563-1.094.984-1.36.984-.14 0-.218-.187-.218-.484 0-.844.421-2.172.812-2.61.125-.14.406-.218.703-.218.266 0 .469.047.938.234zm0 0"/></symbol><symbol overflow="visible" id="c"><path d="M5.016-.75l-.094-.156-.25.14c-.234.141-.469.25-.594.25-.062 0-.11-.062-.11-.156 0-.11.016-.25.063-.36l.797-3.155-.062-.079-.657.157-.093.453c-.157.672-.375 1.265-.657 1.672-.578.812-1.343 1.468-1.734 1.468-.094 0-.125-.078-.125-.234 0-.14.016-.234.063-.469l.546-2.39c.032-.141.047-.266.047-.375 0-.172-.062-.282-.203-.282-.203 0-.562.188-1.297.657l-.265.171.078.188.297-.188c.28-.171.39-.203.468-.203.094 0 .157.079.157.172 0 .047 0 .11-.016.156L.765-.687a3.371 3.371 0 0 0-.03.437c0 .188.14.344.328.344.625 0 1.78-.985 2.593-2.203l-.36 1.25c-.062.218-.108.437-.108.578 0 .234.109.375.296.375.25 0 .594-.203 1.532-.844zm0 0"/></symbol><symbol overflow="visible" id="d"><path d="M4-.75l-.063-.188c-.078.047-.078.063-.124.094-.313.25-.454.328-.61.328-.094 0-.14-.078-.14-.218 0-.032 0-.063.015-.094l.89-3.344-.109-.078-.312.156c-.375-.14-.563-.172-.813-.172-.28 0-.468.047-.734.157-.61.28-.906.546-1.156.984C.422-2.344.125-1.297.125-.578c0 .375.156.672.328.672.203 0 .563-.188.922-.469.406-.328.797-.734 1.328-1.422l-.281 1.11a1.656 1.656 0 0 0-.063.453c0 .203.094.328.235.328.219 0 .61-.25 1.406-.844zm-.828-2.906c-.219.937-.406 1.406-.719 1.86-.531.734-1.14 1.28-1.469 1.28-.109 0-.156-.125-.156-.359 0-.563.235-1.547.578-2.281.235-.516.469-.672.938-.672.219 0 .406.031.828.172zm0 0"/></symbol><symbol overflow="visible" id="e"><path d="M4.734-6.39l-.109-.094c-.5.234-.844.312-1.531.375l-.047.187h.469c.218 0 .328.063.328.203 0 .078-.016.157-.016.219l-.281 1.36a2.996 2.996 0 0 0-.781-.126c-.672 0-1.579.641-2.016 1.407C.437-2.344.25-1.5.25-.766c0 .579.14.86.422.86.265 0 .625-.14.953-.39.516-.392.828-.735 1.484-1.626l-.218.813c-.11.39-.157.671-.157.89 0 .188.079.313.25.313.157 0 .391-.125.72-.344l.78-.531-.093-.172-.422.281c-.14.094-.297.156-.375.156-.078 0-.14-.078-.14-.203 0-.078.015-.156.077-.406zm-1.28 2.765l-.126.516c-.156.78-.64 1.562-1.234 2.078-.328.297-.719.515-.906.515-.157 0-.235-.125-.235-.343 0-1.125.438-2.5.906-2.844.125-.078.313-.125.579-.125.421 0 .687.047 1.015.203zm0 0"/></symbol><symbol overflow="visible" id="f"><path d="M3.797-4.203c-.11-.047-.156-.063-.203-.063-.297 0-.594.22-.938.672-.328.422-.672.86-.906 1.328L2-3.375c.047-.203.11-.406.11-.61 0-.171-.079-.28-.22-.28-.202 0-.562.187-1.28.656l-.266.171.062.188.313-.188c.265-.156.375-.203.453-.203.11 0 .172.079.172.188 0 .515-.422 2.344-.797 3.469L.64.078c.203-.062.421-.094.64-.125l.25-1.062c.172-.735.39-1.204.828-1.72.313-.374.579-.562.797-.562.14 0 .235.032.344.157h.14c.016-.329.079-.61.157-.97zm0 0"/></symbol><symbol overflow="visible" id="g"><path d="M3.078-3.89c-.375.03-.703.046-1.062.046.156-.828.25-1.265.437-1.734l-.11-.14c-.187.109-.452.218-.75.327l-.234 1.5c-.437.188-.687.282-.859.329l-.016.109h.813L.75-.953C.703-.72.625-.5.625-.281c0 .234.11.36.297.36.328 0 .656-.173 1.422-.735.172-.125.11-.094.297-.219l-.094-.156-.438.265c-.28.188-.468.266-.593.266-.063 0-.125-.063-.125-.172 0-.234.125-.922.421-2.234l.125-.547H2.97zm0 0"/></symbol><symbol overflow="visible" id="h"><path d="M2.422-.75l-.11-.156-.25.14c-.28.188-.484.266-.578.266-.078 0-.125-.078-.125-.172 0-.094 0-.156.063-.36l.734-2.687a.983.983 0 0 0 .063-.312c0-.157-.078-.235-.235-.235-.218 0-.562.188-1.296.657l-.266.171.062.188.313-.188c.265-.171.375-.203.453-.203.11 0 .172.079.172.188 0 .062-.047.25-.078.39l-.64 2.11c-.079.297-.126.515-.126.687 0 .22.11.344.281.344.266 0 .625-.187 1.563-.828zm.234-4.813c0-.218-.14-.359-.344-.359-.296 0-.562.281-.562.594 0 .219.14.36.375.36.313 0 .531-.266.531-.595zm0 0"/></symbol><symbol overflow="visible" id="i"><path d="M3.844-4.047c-.25-.14-.563-.219-.938-.219-.437 0-1.11.313-1.656.75-.547.454-.922 1.36-.922 2.313C.328-.36.734.094 1.5.094c.531 0 .984-.172 1.516-.578l.484-.36-.078-.172-.14.094c-.704.422-1.063.563-1.391.563-.547 0-.829-.344-.829-1.047 0-.938.329-1.844.782-2.188.203-.172.453-.234.75-.234.453 0 .797.172.797.375v.531h.218c.079-.578.141-.906.235-1.125zm0 0"/></symbol><symbol overflow="visible" id="q"><path d="M4.594.031c-.016-.187-.016-.281-.016-.406 0-.11 0-.203.016-.39l-3.328.078 1.75-1.704c.937-.906 1.234-1.39 1.234-2.062 0-1.016-.75-1.64-1.984-1.64-.688 0-1.172.171-1.641.624L.469-4.266H.75l.11-.406c.171-.516.515-.734 1.156-.734.828 0 1.359.468 1.359 1.218 0 .672-.406 1.329-1.484 2.391L.234-.203V.03L2.391 0zm0 0"/></symbol></defs><use xlink:href="#a" x=".663" y="10.961"/><use xlink:href="#b" x="7.968" y="13.734"/><use xlink:href="#c" x="12.613" y="13.734"/><use xlink:href="#d" x="18.151" y="13.734"/><use xlink:href="#e" x="22.609" y="13.734"/><use xlink:href="#f" x="27.608" y="13.734"/><use xlink:href="#d" x="31.642" y="13.734"/><use xlink:href="#g" x="36.101" y="13.734"/><use xlink:href="#h" x="39.489" y="13.734"/><use xlink:href="#i" x="42.391" y="13.734"/><use xlink:href="#j" x="50.324" y="10.961"/><use xlink:href="#k" x="62.722" y="10.961"/><use xlink:href="#l" x="68.03" y="10.961"/><use xlink:href="#m" x="73.099" y="10.961"/><use xlink:href="#n" x="81.742" y="10.961"/><use xlink:href="#o" x="93.482" y="10.961"/><use xlink:href="#p" x="97.523" y="10.961"/><use xlink:href="#q" x="102.595" y="6.728"/><use xlink:href="#r" x="110.749" y="10.961"/><use xlink:href="#s" x="122.489" y="10.961"/><use xlink:href="#t" x="128.467" y="10.961"/><use xlink:href="#l" x="134.002" y="10.961"/><use xlink:href="#m" x="139.071" y="10.961"/><use xlink:href="#n" x="147.703" y="10.961"/><use xlink:href="#o" x="159.443" y="10.961"/><use xlink:href="#p" x="163.483" y="10.961"/><use xlink:href="#o" x="168.552" y="10.961"/><use xlink:href="#r" x="175.247" y="10.961"/><use xlink:href="#u" x="186.999" y="10.961"/><use xlink:href="#o" x="191.985" y="10.961"/><use xlink:href="#q" x="196.028" y="6.728"/><use xlink:href="#j" x="50.324" y="30.489"/><use xlink:href="#k" x="62.722" y="30.489"/><use xlink:href="#n" x="70.696" y="30.489"/><use xlink:href="#s" x="82.436" y="30.489"/><use xlink:href="#k" x="88.413" y="30.489"/><use xlink:href="#o" x="93.721" y="30.489"/><g><use xlink:href="#r" x="100.416" y="30.489"/></g><g><use xlink:href="#k" x="112.156" y="30.489"/><use xlink:href="#o" x="117.464" y="30.489"/></g><g><use xlink:href="#q" x="121.514" y="26.257"/></g><g><use xlink:href="#r" x="129.668" y="30.489"/></g><g><use xlink:href="#s" x="141.408" y="30.489"/><use xlink:href="#t" x="147.386" y="30.489"/><use xlink:href="#o" x="152.921" y="30.489"/></g><g><use xlink:href="#n" x="159.616" y="30.489"/></g><g><use xlink:href="#s" x="171.356" y="30.489"/><use xlink:href="#t" x="177.333" y="30.489"/><use xlink:href="#o" x="182.869" y="30.489"/></g><g><use xlink:href="#q" x="186.918" y="26.257"/></g><g><use xlink:href="#r" x="195.071" y="30.489"/></g><g><use xlink:href="#u" x="206.811" y="30.489"/></g><g><use xlink:href="#o" x="211.796" y="30.489"/></g><g><use xlink:href="#q" x="215.84" y="26.257"/></g></svg>