<svg xmlns="http://www.w3.org/2000/svg" xmlns:xlink="http://www.w3.org/1999/xlink" width="370pt" height="31pt" viewBox="0 0 370 31"><defs><symbol overflow="visible" id="a"><path d="M.594-3.703c.55-.02.976-.27 1.281-.75.313-.488.469-1.211.469-2.172 0-.426-.09-1.242-.266-2.453-.168-1.219-.25-2.219-.25-3 0-1.988.328-3.535.984-4.64.657-1.102 1.586-1.735 2.797-1.891v.515a2.531 2.531 0 0 0-1.109.5c-.324.25-.602.606-.828 1.063-.23.449-.406 1-.531 1.656-.125.648-.188 1.398-.188 2.25 0 .637.078 1.602.235 2.89.156 1.294.234 2.137.234 2.532 0 1.043-.188 1.887-.563 2.531-.367.637-.73 1.027-1.093 1.172v.14c.363.15.726.54 1.093 1.172.375.637.563 1.477.563 2.516 0 .238-.078 1.11-.235 2.61-.156 1.507-.234 2.44-.234 2.796 0 .864.055 1.618.172 2.266.113.656.29 1.21.531 1.672.239.457.52.816.844 1.078.32.258.691.422 1.11.484v.516c-1.18-.086-2.106-.68-2.782-1.781-.668-1.106-1-2.59-1-4.453 0-.7.082-1.746.25-3.141.176-1.398.266-2.273.266-2.625 0-.926-.153-1.633-.453-2.125-.305-.5-.735-.758-1.297-.781zm0 0"/></symbol><symbol overflow="visible" id="b"><path d="M2.797-2.656a65.21 65.21 0 0 0-.188-.875c-.062-.29-.125-.555-.187-.797-.063-.25-.121-.41-.172-.484-.043-.083-.09-.133-.14-.157a.289.289 0 0 0-.172-.047.477.477 0 0 0-.235.063.787.787 0 0 0-.219.187 4.023 4.023 0 0 0-.296.422l-.391-.25c.25-.375.488-.648.719-.828.226-.187.492-.281.796-.281.126 0 .227.016.313.047a.604.604 0 0 1 .25.125c.07.054.133.125.188.218.05.086.101.204.156.36.05.156.097.351.14.578.051.23.094.469.125.719h.063c.375-.531.656-.914.844-1.156.195-.25.363-.43.5-.547.132-.125.257-.207.375-.25.125-.051.289-.079.5-.079.175 0 .328.024.453.063l-.235 1.063h-.421c-.024-.165-.09-.25-.204-.25a.26.26 0 0 0-.109.03.64.64 0 0 0-.156.079 1.516 1.516 0 0 0-.25.219 10.63 10.63 0 0 0-.36.421c-.136.157-.277.329-.421.516l-.391.5c.07.375.14.7.203.969l.156.687c.051.18.094.32.125.422.04.106.082.184.125.235a.32.32 0 0 0 .125.109.474.474 0 0 0 .469-.078c.102-.082.25-.27.438-.563l.375.25c-.274.407-.516.696-.735.86-.219.164-.484.25-.797.25A.864.864 0 0 1 3.734 0a.958.958 0 0 1-.312-.281c-.086-.133-.156-.344-.219-.625-.125-.5-.2-.883-.219-1.156h-.062c-.418.585-.73 1.007-.938 1.265-.199.25-.367.438-.5.563-.125.117-.25.199-.375.25C.992.066.832.094.625.094.445.094.297.066.172.016l.234-1.063h.422c.02.168.086.25.203.25.051 0 .11-.015.172-.047a1.1 1.1 0 0 0 .25-.203c.113-.113.27-.289.469-.531.207-.238.5-.598.875-1.078zm0 0"/></symbol><symbol overflow="visible" id="c"><path d="M.875-4.25v-.781h7.219v.781zm0 2.422v-.781h7.219v.78zm7.469-1.594zm0 0"/></symbol><symbol overflow="visible" id="d"><path d="M4.078-1.531c0 .23.008.402.031.515a.68.68 0 0 0 .141.282.572.572 0 0 0 .266.171c.125.043.273.075.453.094.187.024.43.04.734.047V0H1.375v-.422A8.17 8.17 0 0 0 2.297-.5c.187-.04.328-.094.422-.156a.516.516 0 0 0 .219-.281c.05-.125.078-.32.078-.594v-4.75c0-.157-.032-.27-.094-.344a.282.282 0 0 0-.235-.11c-.124 0-.304.07-.53.204-.231.125-.516.304-.86.531l-.25-.453 2.734-1.64h.328a27.34 27.34 0 0 0-.03 1.562zm0 0"/></symbol><symbol overflow="visible" id="e"><path d="M4.11-.938c.195 0 .35-.007.468-.03a.85.85 0 0 0 .281-.126.55.55 0 0 0 .172-.203c.04-.094.094-.234.157-.422h.484L5.578 0H.75v-.281c.176-.406.406-.82.688-1.25.28-.438.687-.946 1.218-1.532.446-.5.77-.878.969-1.14.219-.281.379-.52.484-.719.114-.207.192-.398.235-.578.05-.188.078-.367.078-.547 0-.3-.047-.562-.14-.781a1.13 1.13 0 0 0-.438-.531c-.188-.125-.43-.188-.719-.188-.742 0-1.234.406-1.484 1.219H.937v-1.125c.47-.227.907-.39 1.313-.484.414-.102.79-.157 1.125-.157.719 0 1.266.164 1.64.485.376.312.563.773.563 1.375 0 .21-.023.402-.062.578-.043.18-.11.351-.204.515a3.255 3.255 0 0 1-.359.547c-.148.2-.308.399-.484.594-.18.2-.485.531-.922 1-.75.793-1.297 1.48-1.64 2.063zm0 0"/></symbol><symbol overflow="visible" id="f"><path d="M3.266.094c-.844 0-1.477-.332-1.891-1C.957-1.57.75-2.578.75-3.922c0-.719.063-1.336.188-1.86.132-.53.316-.96.546-1.296.227-.344.5-.598.813-.766.32-.164.676-.25 1.062-.25.852 0 1.489.336 1.907 1 .414.657.625 1.653.625 2.985 0 1.386-.227 2.433-.672 3.14C4.769-.258 4.117.094 3.266.094zM1.906-4.11c0 1.28.114 2.218.344 2.812.238.594.61.89 1.11.89.468 0 .816-.28 1.046-.843.227-.563.344-1.426.344-2.594 0-.906-.063-1.633-.188-2.187-.117-.563-.277-.961-.484-1.203-.21-.239-.46-.36-.75-.36-.273 0-.5.086-.687.25-.18.157-.325.387-.438.688a4.958 4.958 0 0 0-.234 1.093c-.043.43-.063.915-.063 1.454zm0 0"/></symbol><symbol overflow="visible" id="g"><path d="M1.688-4.14c.207 0 .375.07.5.202.124.126.187.297.187.516 0 .211-.063.383-.188.516a.678.678 0 0 1-.5.187c-.199 0-.359-.062-.484-.187a.722.722 0 0 1-.187-.516c0-.219.062-.39.187-.515a.636.636 0 0 1 .484-.204zm0 0"/></symbol><symbol overflow="visible" id="h"><path d="M2.063-2.969c0 1.367.218 2.492.656 3.375.445.895 1.117 1.492 2.015 1.797l-.14.453C3.457 2.352 2.582 1.703 1.969.703c-.606-.988-.907-2.191-.907-3.61 0-1.405.301-2.609.907-3.609.613-1 1.488-1.648 2.625-1.953l.172.453c-.918.305-1.602.891-2.047 1.766-.438.867-.656 1.96-.656 3.281zm0 0"/></symbol><symbol overflow="visible" id="i"><path d="M.875-3.047v-.781h7.219v.781zm0 0"/></symbol><symbol overflow="visible" id="j"><path d="M4.078-1.11c-.344.407-.672.712-.984.907a1.8 1.8 0 0 1-.985.297C1.285.094.875-.316.875-1.141c0-.257.035-.535.11-.828l.687-3.047H.688l.093-.406c.227 0 .399-.016.516-.047a.839.839 0 0 0 .297-.125.671.671 0 0 0 .218-.234c.07-.102.141-.234.204-.39.062-.157.156-.43.28-.829h.798L2.78-5.609h1.781l-.125.593h-1.78l-.532 2.282c-.105.437-.172.757-.203.953a3.79 3.79 0 0 0-.031.468c0 .481.203.72.609.72.164 0 .344-.063.531-.188.196-.133.43-.36.703-.672zm0 0"/></symbol><symbol overflow="visible" id="k"><path d="M2.906-2.969c0-1.32-.219-2.414-.656-3.281A3.389 3.389 0 0 0 .219-8.016l.156-.453c1.145.305 2.02.953 2.625 1.953.613 1 .922 2.204.922 3.61 0 1.418-.309 2.62-.922 3.61-.605 1-1.48 1.648-2.625 1.952l-.14-.453C1.14 1.898 1.812 1.301 2.25.406c.438-.883.656-2.008.656-3.375zm0 0"/></symbol><symbol overflow="visible" id="m"><path d="M4.906-3.047V.328h-.843v-3.375H.874v-.781h3.188v-3.375h.843v3.375h3.188v.781zm0 0"/></symbol><symbol overflow="visible" id="n"><path d="M.938-6.344v-1.11a6.877 6.877 0 0 1 1.265-.484 4.574 4.574 0 0 1 1.14-.156c.446 0 .833.07 1.157.203.332.137.586.336.766.594.175.25.265.559.265.922 0 .324-.07.617-.203.875a1.86 1.86 0 0 1-.562.656 4.907 4.907 0 0 1-.922.547v.047c.238.055.469.133.687.234.219.094.41.227.578.391.176.168.317.367.422.594.102.23.157.492.157.781 0 .45-.102.852-.297 1.203-.2.356-.5.637-.907.844-.406.2-.902.297-1.484.297-.336 0-.7-.04-1.094-.11A6.822 6.822 0 0 1 .844-.328v-1.234h.703c.133.406.312.703.531.89.227.18.535.266.922.266.508 0 .895-.133 1.156-.406.258-.282.39-.692.39-1.235 0-.57-.171-1.008-.515-1.312-.343-.301-.851-.454-1.515-.454H2v-.515c.52-.031.96-.129 1.328-.297.363-.176.629-.398.797-.672.176-.27.266-.57.266-.906 0-.426-.118-.754-.344-.984-.23-.239-.563-.36-1-.36-.375 0-.68.102-.906.297-.23.2-.399.5-.5.906zm0 0"/></symbol><symbol overflow="visible" id="o"><path d="M.875-.328v-1.234h.719c.113.398.285.687.515.875.239.187.547.28.922.28.52 0 .91-.156 1.172-.468.27-.313.406-.781.406-1.406 0-.406-.074-.742-.218-1.016a1.32 1.32 0 0 0-.563-.594A1.772 1.772 0 0 0 3-4.078c-.262 0-.492.023-.688.062a5.56 5.56 0 0 0-.609.141l-.469-.266V-8h3.22a.81.81 0 0 0 .28-.031c.063-.02.11-.051.141-.094.04-.05.086-.14.14-.266h.454l-.094 1.36h-3.36v2.578c.196-.082.415-.145.657-.188.238-.05.476-.078.719-.078.457 0 .863.102 1.218.297.364.188.645.461.844.813.195.343.297.746.297 1.203 0 .523-.11.969-.328 1.344-.219.375-.54.664-.953.859-.418.2-.907.297-1.469.297-.68 0-1.387-.14-2.125-.422zm0 0"/></symbol><symbol overflow="visible" id="q"><path d="M2.86.016a55.642 55.642 0 0 0-.454-2.485A59.384 59.384 0 0 0 2-4.375c-.086-.3-.172-.492-.266-.578a.34.34 0 0 0-.203-.063.54.54 0 0 0-.36.157c-.105.093-.234.265-.39.515l-.39-.25c.27-.406.52-.691.75-.86.238-.163.504-.25.796-.25.157 0 .29.028.407.079.082.031.16.086.234.156a.699.699 0 0 1 .203.297c.063.125.114.274.156.438.051.156.102.386.157.687.094.5.18 1.031.265 1.594.094.555.172 1.07.235 1.547.375-.551.691-1.086.953-1.61.27-.52.46-.972.578-1.359.113-.383.172-.703.172-.953 0-.176-.043-.297-.125-.36-.074-.07-.203-.113-.39-.125l.062-.296h1.531l.172.296a20.29 20.29 0 0 1-1.219 2.61C4.828-1.797 4.254-.895 3.61 0c-.617.863-1.125 1.484-1.53 1.86-.294.257-.571.445-.829.562-.21.094-.434.14-.672.14-.086 0-.183-.011-.297-.03a1.012 1.012 0 0 1-.234-.048l.25-1.14H.75c0 .25.086.375.266.375.226 0 .488-.14.78-.422.302-.281.657-.711 1.063-1.281zm0 0"/></symbol><symbol overflow="visible" id="r"><path d="M5.344-7.766v.282c-.606 0-1.14.132-1.61.39-.46.262-.843.64-1.156 1.14-.305.5-.515 1.095-.64 1.782L2-4.156c.32-.227.64-.395.953-.5A3.13 3.13 0 0 1 4-4.828c.438 0 .813.101 1.125.297.313.187.547.46.703.812.156.344.234.75.234 1.219 0 .512-.101.96-.296 1.344-.2.386-.5.695-.907.922-.406.218-.906.328-1.5.328-.867 0-1.515-.266-1.953-.797-.43-.531-.64-1.313-.64-2.344 0-.695.109-1.348.328-1.953a4.842 4.842 0 0 1 .922-1.578 4.573 4.573 0 0 1 1.406-1.078 4.316 4.316 0 0 1 1.672-.438zm-1.75 3.547c-.188 0-.375.024-.563.063a2.13 2.13 0 0 0-.5.187 2.609 2.609 0 0 0-.453.313.756.756 0 0 0-.11.14 1.3 1.3 0 0 0-.077.282 5.658 5.658 0 0 0-.016.53c0 .75.125 1.325.375 1.72.25.386.629.578 1.14.578.29 0 .536-.047.735-.14.207-.102.367-.243.484-.423.125-.187.211-.398.266-.64.05-.239.078-.5.078-.782 0-.57-.121-1.02-.36-1.343-.23-.32-.562-.485-1-.485zm0 0"/></symbol><symbol overflow="visible" id="s"><path d="M3.031-.281c.239-.063.399-.13.485-.203a.59.59 0 0 0 .156-.329c.02-.144.031-.363.031-.656v-.953H.453v-.437l3.422-5.188h.844V-3h.125c.226 0 .39-.016.484-.047a.462.462 0 0 0 .234-.172c.07-.082.133-.222.188-.422h.438l-.063 1.22H4.719v.952c0 .262.004.453.015.578a.83.83 0 0 0 .094.297.54.54 0 0 0 .188.172c.082.043.21.09.39.14V0H3.031zM1.421-3h2.282v-1.453c0-.363.004-.774.016-1.234.02-.458.035-.801.047-1.032h-.063l-2.281 3.64zm0 0"/></symbol><symbol overflow="visible" id="l"><path d="M.75-4.375v-.875c.352-.145.68-.254.984-.328.301-.07.594-.11.875-.11.239 0 .457.028.657.079.207.043.382.117.53.218.157.106.274.235.36.391.082.148.125.32.125.516 0 .187-.027.355-.078.5a1.297 1.297 0 0 1-.25.39c-.117.117-.25.219-.406.313-.156.094-.34.187-.547.281v.047c.195.031.379.09.547.172.164.074.312.172.437.297.133.117.239.25.313.406.07.156.11.328.11.515 0 .231-.048.45-.141.657-.086.199-.215.37-.391.515a1.94 1.94 0 0 1-.656.344c-.25.082-.547.125-.89.125-.282 0-.563-.027-.845-.078a7.375 7.375 0 0 1-.796-.219v-.953h.562c.05.149.11.274.172.375a.983.983 0 0 0 .219.266c.093.062.195.11.312.14.113.024.238.032.375.032.383 0 .672-.086.86-.266.195-.176.296-.445.296-.813 0-.394-.132-.69-.39-.89-.25-.195-.633-.297-1.14-.297h-.376v-.422c.3-.02.563-.062.781-.125.227-.07.414-.164.563-.281.156-.113.27-.25.344-.406.07-.157.109-.317.109-.485 0-.281-.086-.5-.25-.656-.168-.164-.406-.25-.719-.25-.273 0-.5.074-.687.219-.18.148-.313.367-.407.656zm0 0"/></symbol><symbol overflow="visible" id="p"><path d="M3.188-.719c.132 0 .242-.004.328-.015a.498.498 0 0 0 .203-.063.386.386 0 0 0 .14-.156c.04-.07.086-.172.141-.297h.406c-.023.21-.039.418-.047.625-.011.21-.027.418-.046.625H.592v-.234C.665-.391.75-.54.844-.688c.095-.156.196-.312.313-.468.125-.164.258-.332.407-.5.144-.164.312-.344.5-.532.269-.269.488-.5.656-.687.176-.195.312-.375.406-.531.102-.156.172-.297.203-.422a1.408 1.408 0 0 0 0-.828.835.835 0 0 0-.187-.313.624.624 0 0 0-.297-.203 1.005 1.005 0 0 0-.406-.078c-.282 0-.516.074-.704.219-.18.148-.32.36-.421.64H.734v-.859a5.539 5.539 0 0 1 1.032-.328c.32-.07.609-.11.859-.11.3 0 .563.04.781.11.219.062.39.152.516.266.133.117.234.257.297.421.062.168.093.344.093.532 0 .117-.011.226-.03.328-.012.093-.04.187-.079.281a2.749 2.749 0 0 1-.156.297 2.42 2.42 0 0 1-.234.297 3.877 3.877 0 0 1-.297.328c-.118.125-.246.262-.391.406l-.438.438a16.056 16.056 0 0 0-.828.89 2.679 2.679 0 0 0-.296.375zm0 0"/></symbol></defs><use xlink:href="#a" x="-.106" y="19.172"/><use xlink:href="#b" x="5.933" y="11.424"/><use xlink:href="#c" x="15.975" y="11.424"/><g fill="#00f"><use xlink:href="#d" x="28.231" y="11.424"/><use xlink:href="#e" x="34.854" y="11.424"/><use xlink:href="#f" x="41.477" y="11.424"/></g><use xlink:href="#g" x="50.747" y="11.424"/><use xlink:href="#h" x="56.772" y="11.424"/><use xlink:href="#d" x="61.734" y="11.424"/><use xlink:href="#i" x="71.011" y="11.424"/><use xlink:href="#j" x="82.596" y="11.424"/><use xlink:href="#k" x="87.617" y="11.424"/><use xlink:href="#l" x="92.575" y="7.045"/><use xlink:href="#m" x="100.762" y="11.424"/><g fill="#00f"><use xlink:href="#n" x="112.35" y="11.424"/><use xlink:href="#o" x="118.973" y="11.424"/></g><use xlink:href="#g" x="128.246" y="11.424"/><use xlink:href="#n" x="134.271" y="11.424"/><use xlink:href="#g" x="143.549" y="11.424"/><use xlink:href="#h" x="149.574" y="11.424"/><use xlink:href="#d" x="154.535" y="11.424"/><use xlink:href="#i" x="163.813" y="11.424"/><use xlink:href="#j" x="175.409" y="11.424"/><use xlink:href="#k" x="180.418" y="11.424"/><use xlink:href="#p" x="185.381" y="7.045"/><use xlink:href="#g" x="193.568" y="11.424"/><use xlink:href="#j" x="199.593" y="11.424"/><use xlink:href="#m" x="207.257" y="11.424"/><g fill="#00f"><use xlink:href="#e" x="218.852" y="11.424"/><use xlink:href="#e" x="225.475" y="11.424"/><use xlink:href="#f" x="232.098" y="11.424"/></g><use xlink:href="#g" x="241.368" y="11.424"/><use xlink:href="#n" x="247.393" y="11.424"/><use xlink:href="#g" x="256.671" y="11.424"/><use xlink:href="#h" x="262.696" y="11.424"/><use xlink:href="#d" x="267.657" y="11.424"/><use xlink:href="#i" x="276.935" y="11.424"/><use xlink:href="#j" x="288.531" y="11.424"/><use xlink:href="#k" x="293.54" y="11.424"/><use xlink:href="#g" x="301.156" y="11.424"/><use xlink:href="#j" x="307.181" y="11.424"/><use xlink:href="#p" x="312.082" y="7.045"/><use xlink:href="#m" x="320.269" y="11.424"/><g fill="#00f"><use xlink:href="#e" x="331.857" y="11.424"/><use xlink:href="#e" x="338.48" y="11.424"/><use xlink:href="#f" x="345.103" y="11.424"/></g><use xlink:href="#g" x="354.373" y="11.424"/><use xlink:href="#j" x="360.398" y="11.424"/><use xlink:href="#l" x="365.295" y="7.045"/><use xlink:href="#q" x="5.849" y="25.869"/><use xlink:href="#c" x="16.059" y="25.869"/><g fill="#00f"><use xlink:href="#d" x="28.316" y="25.869"/><use xlink:href="#r" x="34.939" y="25.869"/><use xlink:href="#f" x="41.562" y="25.869"/></g><use xlink:href="#g" x="50.832" y="25.869"/><use xlink:href="#h" x="56.857" y="25.869"/><use xlink:href="#d" x="61.819" y="25.869"/><use xlink:href="#i" x="71.096" y="25.869"/><use xlink:href="#j" x="82.681" y="25.869"/><use xlink:href="#k" x="87.702" y="25.869"/><use xlink:href="#l" x="92.659" y="21.491"/><use xlink:href="#m" x="100.846" y="25.869"/><g fill="#00f"><use xlink:href="#e" x="112.434" y="25.869"/><use xlink:href="#f" x="119.057" y="25.869"/><use xlink:href="#f" x="125.68" y="25.869"/></g><use xlink:href="#g" x="134.95" y="25.869"/><use xlink:href="#n" x="140.975" y="25.869"/><use xlink:href="#g" x="150.253" y="25.869"/><use xlink:href="#h" x="156.278" y="25.869"/><use xlink:href="#d" x="161.239" y="25.869"/><use xlink:href="#i" x="170.517" y="25.869"/><use xlink:href="#j" x="182.113" y="25.869"/><use xlink:href="#k" x="187.122" y="25.869"/><use xlink:href="#p" x="192.085" y="21.491"/><use xlink:href="#g" x="200.272" y="25.869"/><use xlink:href="#j" x="206.297" y="25.869"/><use xlink:href="#m" x="213.961" y="25.869"/><g fill="#00f"><use xlink:href="#e" x="225.556" y="25.869"/><use xlink:href="#r" x="232.179" y="25.869"/><use xlink:href="#f" x="238.802" y="25.869"/></g><use xlink:href="#g" x="248.072" y="25.869"/><use xlink:href="#n" x="254.097" y="25.869"/><use xlink:href="#g" x="263.375" y="25.869"/><use xlink:href="#h" x="269.4" y="25.869"/><use xlink:href="#d" x="274.361" y="25.869"/><use xlink:href="#i" x="283.639" y="25.869"/><use xlink:href="#j" x="295.235" y="25.869"/><use xlink:href="#k" x="300.244" y="25.869"/><use xlink:href="#g" x="307.86" y="25.869"/><use xlink:href="#j" x="313.885" y="25.869"/><g><use xlink:href="#p" x="318.786" y="21.491"/></g><g><use xlink:href="#m" x="326.973" y="25.869"/></g><g fill="#00f"><use xlink:href="#s" x="338.561" y="25.869"/><use xlink:href="#f" x="345.184" y="25.869"/></g><g><use xlink:href="#g" x="354.457" y="25.869"/></g><g><use xlink:href="#j" x="360.482" y="25.869"/></g><g><use xlink:href="#l" x="365.38" y="21.491"/></g></svg>