<svg xmlns="http://www.w3.org/2000/svg" xmlns:xlink="http://www.w3.org/1999/xlink" width="184pt" height="26pt" viewBox="0 0 184 26"><defs><symbol overflow="visible" id="a"><path d="M3.094-8.86l-.219-.187c-.75.375-1.063.438-2.047.531l-.094.5h.735c.281 0 .265-.046.265.141 0 .156-.046.422-.078.578L.516-1.703C.344-1.093.28-.75.28-.484c0 .28.281.593.5.593.313 0 .86-.296 2.094-1.218l-.25-.438-.469.297c-.344.234-.5.313-.61.313-.093 0-.03.03-.03-.11s.03-.297.078-.437L3.14-8.813zm0 0"/></symbol><symbol overflow="visible" id="b"><path d="M4.61-4.953c0-.563-.532-1.078-1.141-1.078-.781 0-2.188.843-2.672 1.61C.437-3.845.03-2.313.03-1.47.031-.547.703.125 1.563.125 2.25.125 3-.235 4.171-1.188l-.203-.468-.438.312c-.64.453-1.11.657-1.531.657-.578 0-.781-.313-.781-1.047 0-.313.031-.61.078-.844l.86-.219c.202-.047.515-.172.827-.297C4-3.547 4.61-4.219 4.61-4.954zm-1.173.187c0 .516-.265.954-.89 1.25a5.596 5.596 0 0 1-1.125.375l.062-.265c.188-.797.391-1.219.72-1.516.218-.219.515-.344.812-.344.343 0 .421.11.421.5zm0 0"/></symbol><symbol overflow="visible" id="c"><path d="M6.234-1.25l-.171-.297-.454.297c-.343.219-.5.313-.625.313-.078 0-.03.03-.03-.11 0-.047.015-.187.03-.234l.782-3.297c.093-.344.14-.688.14-.89 0-.266-.265-.563-.5-.563-.5 0-1.437.5-2.14 1.156-.454.422-.797.828-1.407 1.703l.235.094.453-1.938c.047-.203.078-.343.078-.484 0-.25-.234-.531-.406-.531-.266 0-.828.312-1.703.922l-.391.296.172.485.547-.36c.437-.28.39-.265.469-.265.14 0 .078 0 .078.172 0 .61-.5 2.922-.985 4.656l.172.25c.36-.094.625-.172 1.016-.234.234-1.625.468-2.313 1-3.125.656-1.016 1.453-1.72 1.984-1.72.125 0 .063-.015.063.157 0 .219-.032.469-.141.86l-.61 2.53c-.109.438-.156.72-.156.907 0 .297.266.61.5.61.313 0 .829-.282 2.079-1.22zm0 0"/></symbol><symbol overflow="visible" id="d"><path d="M6.047-5.328l-.078-.14c-.39.109-.625.14-1.219.14-.14-.281-.36-.422-.656-.547a2.495 2.495 0 0 0-.813-.156c-.484 0-1.187.265-1.719.672A2.62 2.62 0 0 0 .516-3.234c0 .921.671 1.609 1.593 1.609.11 0 .235 0 .36-.016l-.11-.218-.484.453c-.188.172-.36.484-.36.656 0 .11.126.344.126.344C1-.187.53.03.078.39c-.406.343-.656.906-.656 1.375 0 .859.969 1.53 2.281 1.53 1.531 0 3.016-.983 3.016-1.983 0-.422-.282-.954-.797-1.375l-.719-.579c-.406-.328-.531-.453-.531-.687 0-.11.047-.125.219-.36.03-.046.046-.062.046-.062 1.11-.281 2.079-1.406 2.079-2.469 0-.11 0-.218-.032-.39l.032.093h.234c.203 0 .313-.015.703-.062l.125-.672zm-2.39 7.031c0 .625-.688 1-1.673 1C1 2.703.454 2.328.454 1.61c0-.468.187-.78.562-1.109C1.328.25 1.5.172 2.062 0l.86.656c.547.438.734.656.734 1.047zm.234-5.906c0 1.234-.438 1.937-1.266 1.937-.734 0-.984-.359-.984-1.312 0-1.125.468-1.781 1.343-1.781.704 0 .907.296.907 1.156zm0 0"/></symbol><symbol overflow="visible" id="e"><path d="M3.703-5.516c-.453.047-.86.063-1.156.063.172-.984.297-1.578.531-2.25l-.25-.328a7.16 7.16 0 0 1-1.094.531l-.296 2.031c-.391.203-.704.328-1.063.407l-.047.406h1l-.64 3.25C.625-1.11.53-.813.53-.5c0 .297.266.61.5.61.422 0 .922-.282 1.86-1.032.218-.172.14-.125.437-.36l-.25-.437-.672.469c-.36.25-.484.313-.625.313-.093 0-.031.046-.031-.11 0-.297.156-1.234.516-3l.14-.61h1.266l.203-.89zm0 0"/></symbol><symbol overflow="visible" id="f"><path d="M5.719-1.25l-.172-.297-.453.297c-.344.219-.5.313-.625.313-.078 0-.016.03-.016-.11 0-.11 0-.203.078-.469l.766-3.062c.062-.313.125-.688.125-.89 0-.25-.266-.563-.469-.563-.406 0-1.25.437-2 1.078-.422.344-.61.562-1.172 1.266l-.234.296.234.094L2.97-8.812l-.266-.235c-.75.375-1.078.438-2.062.531l-.094.5h.75c.281 0 .25-.046.25.157 0 .109 0 .203-.016.296l-.5 2.797C.703-2.969.234-.906-.03-.125l.156.25 1.016-.234c.203-1.485.375-2.11.718-2.75.532-.97 1.672-2.094 2.188-2.094.156 0 .11-.016.11.14 0 .204-.063.672-.173 1.063l-.609 2.344c-.11.422-.156.687-.156.922 0 .28.265.593.5.593.312 0 .828-.28 2.078-1.218zm0 0"/></symbol><symbol overflow="visible" id="g"><path d="M8.266-4.078a1.419 1.419 0 0 1-.047-.36c0-.109.015-.234.062-.484h-7.5c.063.25.063.375.063.484 0 .125 0 .235-.063.5h7.5zm0 2.625a1.332 1.332 0 0 1-.047-.36c0-.109.015-.234.062-.484h-7.5c.063.25.063.375.063.485 0 .125 0 .25-.063.5h7.5zm0 0"/></symbol><symbol overflow="visible" id="h"><path d="M7.422-13.094c-.25-.14-.672-.281-.969-.281-.328 0-1.016.313-1.219.531-.406.453-.687.766-1.093 1.281-.141.188-.235.532-.313.813-.375 1.297-.375 5.078-.375 7.625 0 2.61 0 6.813-.172 7.797-.187 1-.406 1.297-1.031 1.281-.297-.016-.172-.25-.203-.906H.937a5.986 5.986 0 0 1-.14 1.766c.297.187.734.328 1.047.328.312 0 1-.313 1.187-.547.406-.453.703-.75 1.11-1.282.14-.171.234-.515.312-.812.375-1.281.375-5.063.375-7.625 0-2.594 0-6.813.188-7.781.171-1.016.39-1.313 1.03-1.281.282 0 .141.25.188.906h1.11c-.047-.797.031-1.36.125-1.766zm0 0"/></symbol><symbol overflow="visible" id="k"><path d="M9.219-13.766v-.843H6.953L4.875 5h.281L3.375-2.797H1.297v.985h.812L4.375 8.03c.266-.047.422-.062.578-.062.156 0 .328.015.61.062l2.296-21.656h1.36zm0 0"/></symbol><symbol overflow="visible" id="l"><path d="M4.563-8.781l-.188-.14c-.063-.063-.11-.126-.219-.329-1.781 1.781-2.812 3.719-2.812 5.563v1.124c0 1.86 1.031 3.797 2.812 5.579.11-.204.157-.266.219-.329.063-.062.125-.109.313-.203C3.046.844 2.374-.844 2.374-2.562v-1.126c0-1.703.672-3.39 2.313-5.03zm0 0"/></symbol><symbol overflow="visible" id="m"><path d="M5.875-8.86l-.219-.187c-.75.375-1.078.438-2.062.531l-.094.5h.75c.281 0 .25-.046.25.157 0 .109 0 .203-.016.296L4.188-5.89a3.109 3.109 0 0 0-.875-.14c-.829 0-2.063.906-2.61 1.937-.375.703-.64 1.938-.64 2.938C.063-.375.374.125.734.125c.313 0 .86-.234 1.266-.563.64-.515 1.031-.984 1.844-2.187l-.25-.094-.266 1.078c-.14.532-.203.907-.203 1.22 0 .25.25.546.453.546.219 0 .594-.203 1-.5l1.047-.766-.266-.468-.656.468c-.172.125-.25.172-.36.172-.093 0-.046.031-.046-.14 0-.094.031-.204.11-.547l1.515-7.157zM4.031-5.03l-.14.703A5.233 5.233 0 0 1 2.375-1.61c-.422.39-.781.64-1.016.64-.187 0-.171-.031-.171-.328 0-1.516.515-3.281 1.109-3.734.156-.125.281-.14.61-.14.53 0 .765.03 1.109.218zm0 0"/></symbol><symbol overflow="visible" id="n"><path d="M5.875-5.875c-.14-.078-.344-.156-.453-.156-.469 0-1.063.468-1.797 1.578l-.453.656.25.094-.078-.578c-.14-1.188-.594-1.75-1.297-1.75-.313 0-.688.14-.797.297L.484-4.61l.407.25c.437-.485.578-.61.812-.61.39 0 .516.36.719 1.532l.125.718-.438.656C1.594-1.25 1.297-.905.953-.905c-.172 0-.172.078-.203.015l-.188-.468-.453.062c0 .36-.03.516-.093.89-.032.141-.047.173-.063.329.219.125.531.203.672.203.39 0 .953-.375 1.328-.938l.906-1.406-.234-.094.125.829c.172 1.015.578 1.609 1 1.609.266 0 .75-.234 1.125-.578l.64-.578-.218-.469c-.578.453-.766.61-.953.61-.188 0-.25-.094-.453-.5.015.046-.11-.407-.172-.75L3.5-3.313l.39-.532c.563-.765.782-1.015 1.157-1.015.187 0 .187-.032.312.312l.36-.11.203-1.171zm0 0"/></symbol><symbol overflow="visible" id="o"><path d="M4.86-8.031c-.11.015-.204.031-.313.031-.094 0-.203-.016-.39-.063L.75 1.86c.297-.093.406-.109.5-.109.11 0 .203.016.39.063l3.407-9.891zm0 0"/></symbol><symbol overflow="visible" id="p"><path d="M4.094-2.563v-1.124c0-1.844-1.016-3.782-2.813-5.563-.11.203-.156.266-.218.328-.063.047-.125.094-.313.203 1.64 1.64 2.313 3.328 2.313 5.031v1.126C3.063-.845 2.39.844.75 2.484c.188.094.25.141.313.204.062.062.109.124.218.328 1.797-1.782 2.813-3.72 2.813-5.579zm0 0"/></symbol><symbol overflow="visible" id="r"><path d="M8.266-2.766a1.332 1.332 0 0 1-.047-.359c0-.11.015-.234.062-.484h-3.25v-3.266c-.25.063-.375.078-.484.078-.125 0-.25-.016-.5-.078v3.266H.78c.063.25.063.375.063.484 0 .125 0 .25-.063.5h3.266V.641c.25-.063.375-.079.5-.079.11 0 .234.016.484.079v-3.266h3.25zm0 0"/></symbol><symbol overflow="visible" id="s"><path d="M5.953-5.875l-.203-.156c-.375.14-.64.203-1.016.234l-.453 1.703c-.14.563-.531 1.344-.922 1.938-.421.61-.89 1.094-1.156 1.094-.265 0-.11-.438-.094-.594l.172-2.328c.031-.36.047-.829.047-1.157 0-.53-.219-.89-.422-.89-.156 0-.422.125-1 .515L-.14-4.78l.266.437.734-.453c.063-.047.125-.11.204-.11.312 0 .125.485.109.673L.969-1.328l-.016.484c-.015.5.36.969.656.969.454 0 1.547-1.047 2.438-2.39l-.234-.094-.579 2.03c-.609 2.126-1.078 2.86-1.906 2.86-.422 0-.61-.187-.61-.61 0-.062.016-.155.032-.343l-.297-.11-.672.485c-.015.156-.015.219-.015.281 0 .516.578 1.063 1.125 1.063 1.265 0 2.703-1.61 3.406-3.828L6-5.828zm0 0"/></symbol><symbol overflow="visible" id="i"><path d="M4.203-4.422l-.187-.172-.329.297c-.093.094-.078.094-.218.094-.328 0-.828-.078-1.297-.188-.25-.062-.5-.14-.766-.14-.172 0-.36.015-.718.11L.313-3.095H.78l.297-.531c.078-.031.172-.031.297-.031s.234 0 .438.047c.328.062.578.078.78.078.345 0 .579-.047.891-.203l-.109-.22L-.094-.358l.188.515c.453-.344.61-.39.953-.39.234 0 .516.047 1.016.156.578.125.874.172 1.14.172.11 0 .203-.016.61-.11.124-.656.203-.953.343-1.515h-.5l-.265.672c-.063.156-.016.093-.22.093-.218 0-.437-.062-.64-.109a5.079 5.079 0 0 0-.844-.094c-.312 0-.562.047-.921.188l.109.219 3.313-3.422.078-.391zm0 0"/></symbol><symbol overflow="visible" id="j"><path d="M4.734-3.375c0-1.938-.78-3-2.109-3C1.141-6.375.219-5.141.219-3c0 1.031.234 2.031.578 2.453.344.438 1 .719 1.594.719 1.453 0 2.343-1.281 2.343-3.547zm-1.125.438c0 1.89-.203 2.53-1.093 2.53-.938 0-1.188-.75-1.188-2.921 0-1.86.203-2.469 1.125-2.469.938 0 1.156.734 1.156 2.86zm0 0"/></symbol><symbol overflow="visible" id="q"><path d="M4.75-.11c-.016-.187-.016-.265-.016-.39s0-.203.032-.547l-3.141.094 1.5-1.469c.938-.922 1.281-1.5 1.281-2.172 0-1.015-.906-1.781-2.14-1.781-.688 0-1.282.219-1.782.703l-.187 1.39h.547l.172-.53c.156-.516.359-.61 1-.61.843 0 1.203.344 1.203 1.094 0 .672-.36 1.234-1.453 2.297L.078-.391v.422L2.406 0l2.36.031zm0 0"/></symbol></defs><use xlink:href="#a" x="-.292" y="17.424"/><use xlink:href="#b" x="3.032" y="17.424"/><use xlink:href="#c" x="7.826" y="17.424"/><use xlink:href="#d" x="14.473" y="17.424"/><use xlink:href="#e" x="20.761" y="17.424"/><use xlink:href="#f" x="24.802" y="17.424"/><use xlink:href="#g" x="34.103" y="17.424"/><use xlink:href="#h" x="46.513" y="17.424"/><use xlink:href="#i" x="54.804" y="6.364"/><use xlink:href="#j" x="52.186" y="25.589"/><use xlink:href="#k" x="61.757" y="14.696"/><path d="M70.484.707h103.657" fill="none" stroke-width=".717" stroke="#000" stroke-miterlimit="10"/><use xlink:href="#l" x="70.484" y="17.424"/><use xlink:href="#m" x="75.936" y="17.424"/><use xlink:href="#n" x="82.033" y="17.424"/><use xlink:href="#o" x="88.154" y="17.424"/><use xlink:href="#m" x="93.964" y="17.424"/><use xlink:href="#e" x="100.073" y="17.424"/><use xlink:href="#p" x="104.114" y="17.424"/><use xlink:href="#q" x="109.577" y="10.584"/><use xlink:href="#r" x="117.734" y="17.424"/><use xlink:href="#l" x="129.474" y="17.424"/><use xlink:href="#m" x="134.926" y="17.424"/><use xlink:href="#s" x="141.035" y="17.424"/><use xlink:href="#o" x="147.227" y="17.424"/><use xlink:href="#m" x="153.038" y="17.424"/><g><use xlink:href="#e" x="159.147" y="17.424"/></g><g><use xlink:href="#p" x="163.188" y="17.424"/></g><g><use xlink:href="#q" x="168.642" y="10.584"/></g><g><use xlink:href="#m" x="174.142" y="17.424"/></g><g><use xlink:href="#e" x="180.251" y="17.424"/></g></svg>