<svg xmlns="http://www.w3.org/2000/svg" xmlns:xlink="http://www.w3.org/1999/xlink" width="322pt" height="108" viewBox="0 0 322 81"><defs><symbol overflow="visible" id="a"><path d="M7.063-14.328l-.188-.14c-.063-.063-.11-.126-.219-.329C3.47-11.609 1.563-7.344 1.563-2.516V0h1.234v-2.516c0-4.625 1.344-8.687 4.39-11.75zm0 0"/></symbol><symbol overflow="visible" id="b"><path d="M2.797-.125V-5H1.562v5h1.235zm0 0"/></symbol><symbol overflow="visible" id="c"><path d="M7.063-.563C4.14-3.5 2.796-7.546 2.796-12.187v-2.516H1.562v2.515c0 4.829 1.907 9.094 5.094 12.282.11-.203.157-.266.219-.328.063-.047.125-.094.313-.203zm0 0"/></symbol><symbol overflow="visible" id="d"><path d="M5.688-4.563c0-.796-.407-1.468-.829-1.468-.515 0-1.234.36-1.875.922-.468.421-.718.718-1.156 1.421l.234.11.297-1.438c.032-.203.063-.375.063-.515 0-.235-.235-.5-.406-.5-.25 0-.813.297-1.688.922l-.406.296.187.485.547-.36c.328-.218.375-.234.485-.234.109 0 .046-.031.046.14 0 .095-.015.329-.046.454L.453-.234l-.578 2.89-.11.485.204.171a5.507 5.507 0 0 1 1.015-.234l.5-3.062V0c.313.11.485.125.625.125.657 0 2.141-.906 2.641-1.656.5-.735.938-2.14.938-3.032zm-1.141.172c0 .97-.438 2.297-1.063 3.204-.25.343-.515.5-1.015.5-.36 0-.563-.047-.828-.204l.203-1.218C2.109-3.641 3.25-5.063 4.25-5.063c.297 0 .297.125.297.672zm0 0"/></symbol><symbol overflow="visible" id="f"><path d="M8.266-4.078a1.419 1.419 0 0 1-.047-.36c0-.109.015-.234.062-.484h-7.5c.063.25.063.375.063.484 0 .125 0 .235-.063.5h7.5zm0 2.625a1.332 1.332 0 0 1-.047-.36c0-.109.015-.234.062-.484h-7.5c.063.25.063.375.063.485 0 .125 0 .25-.063.5h7.5zm0 0"/></symbol><symbol overflow="visible" id="p"><path d="M4.203-7.828a.735.735 0 0 1-.187-.14c-.063-.063-.11-.126-.22-.329-1.593 1.61-2.5 3.266-2.5 4.781v.797c0 1.516.907 3.172 2.5 4.781.11-.203.157-.265.22-.328.062-.062.125-.109.312-.203C2.875.063 2.281-1.344 2.281-2.719v-.797c0-1.39.594-2.78 2.047-4.25zm0 0"/></symbol><symbol overflow="visible" id="q"><path d="M8.266-2.766a1.332 1.332 0 0 1-.047-.359c0-.11.015-.234.062-.484h-7.5c.063.25.063.375.063.484 0 .125 0 .25-.063.5h7.5zm0 0"/></symbol><symbol overflow="visible" id="r"><path d="M3.766-2.719v-.797c0-1.515-.907-3.171-2.516-4.78-.11.202-.156.265-.203.327-.063.063-.125.11-.313.203 1.438 1.47 2.032 2.86 2.032 4.25v.797c0 1.375-.594 2.781-2.032 4.25.188.094.25.14.313.203.047.063.094.125.203.329C2.86.452 3.766-1.204 3.766-2.72zm0 0"/></symbol><symbol overflow="visible" id="w"><path d="M5.125-.094v-.484l-.75-.047c-.656-.031-.64-.031-.64-.656v-7.172l-.313-.125c-.875.469-1.61.781-2.86 1.219l.125.718h.235l1.547-.687.031-.016c.063 0-.047-.015-.047.266v5.797c0 .625.016.625-.64.656L1-.578v.625L3.125 0l2 .047zm0 0"/></symbol><symbol overflow="visible" id="x"><path d="M5.688-4.5c0-2.625-.907-4-2.547-4C1.297-8.5.203-6.89.203-4c0 1.39.281 2.703.703 3.281.422.594 1.203.953 1.938.953 1.812 0 2.844-1.687 2.844-4.734zm-1.282.594C4.406-1.36 4.094-.437 3-.437c-1.156 0-1.516-1.079-1.516-4 0-2.516.313-3.375 1.438-3.375 1.172 0 1.484 1.03 1.484 3.906zm0 0"/></symbol><symbol overflow="visible" id="y"><path d="M6.531-.125v-2.39c0-4.829-1.875-9.094-5.078-12.282-.11.203-.156.266-.219.328-.062.047-.125.094-.312.203 3.062 3.063 4.39 7.125 4.39 11.75V0h1.22zm0 0"/></symbol><symbol overflow="visible" id="z"><path d="M6.531-.125V-5H5.313v5H6.53zm0 0"/></symbol><symbol overflow="visible" id="A"><path d="M6.531-12.188v-2.515H5.313v2.515C5.313-7.546 3.984-3.5.921-.438c.187.11.25.157.312.204.063.062.11.125.22.328C4.655-3.094 6.53-7.36 6.53-12.187zm0 0"/></symbol><symbol overflow="visible" id="H"><path d="M8.266-2.766a1.332 1.332 0 0 1-.047-.359c0-.11.015-.234.062-.484h-3.25v-3.266c-.25.063-.375.078-.484.078-.125 0-.25-.016-.5-.078v3.266H.78c.063.25.063.375.063.484 0 .125 0 .25-.063.5h3.266V.641c.25-.063.375-.079.5-.079.11 0 .234.016.484.079v-3.266h3.25zm0 0"/></symbol><symbol overflow="visible" id="I"><path d="M2.516-3.125c0-.422-.407-.844-.844-.844-.422 0-.86.422-.86.844 0 .438.438.86.86.86.437 0 .844-.422.844-.86zm0 0"/></symbol><symbol overflow="visible" id="e"><path d="M4.281-.11V-.5l-.656-.031c-.531-.031-.484.015-.484-.453v-5.344l-.282-.094c-.625.313-1.312.578-2.375.906l.125.594h.22l1.25-.516h.03c.047 0-.078-.062-.078.157v4.297c0 .468.047.421-.469.453L.86-.5v.531L2.61 0l1.672.031zm0 0"/></symbol><symbol overflow="visible" id="k"><path d="M4.75-.11c-.016-.187-.016-.265-.016-.39s0-.203.032-.547l-3.141.094 1.5-1.469c.938-.922 1.281-1.5 1.281-2.172 0-1.015-.906-1.781-2.14-1.781-.688 0-1.282.219-1.782.703l-.187 1.39h.547l.172-.53c.156-.516.359-.61 1-.61.843 0 1.203.344 1.203 1.094 0 .672-.36 1.234-1.453 2.297L.078-.391v.422L2.406 0l2.36.031zm0 0"/></symbol><symbol overflow="visible" id="g"><path d="M9.406-4.844l.719-.89c.375.324.695.648.969.968l-.14.235H1.015l-.094-.313zm0 0"/></symbol><symbol overflow="visible" id="h"><path d="M5.61-7.61v-2.327c.843.03 1.265.136 1.265.312 0 .117-.188.242-.563.375v1.64h3.25l.657-.859c.281.242.582.555.906.938l-.11.218H5.673c0 .907-.047 1.68-.14 2.313h3.53l.485-.594c.5.399.75.653.75.766 0 .062-.04.117-.11.156l-.312.188c-.055 2.71-.34 4.312-.86 4.812-.273.27-.667.399-1.187.39-.012-.241-.187-.417-.531-.53-.242-.094-.75-.204-1.531-.329v-.343c.863.125 1.566.187 2.109.187.488 0 .79-.195.906-.594.25-.832.38-2.101.39-3.812H5.485C5.285-3.43 4.898-2.363 4.328-1.5 3.672-.531 2.68.258 1.36.875L1.172.594c1.644-.977 2.726-2.266 3.25-3.86.258-.8.422-1.804.484-3.015v-.422c.008-.207.016-.41.016-.61H1.016l-.094-.296zm0 0"/></symbol><symbol overflow="visible" id="i"><path d="M5.64-7.969c.27.399.407.742.407 1.032 0 .46-.11 1.074-.328 1.843-.23.782-.528 1.512-.89 2.188-.337.668-.657 1.14-.97 1.422-.304.28-.636.421-1 .421-.25 0-.53-.164-.843-.5-.22-.207-.399-.539-.532-1a4.803 4.803 0 0 1-.187-1.359c0-.613.14-1.21.422-1.797.25-.52.593-.984 1.031-1.39.957-.875 2.133-1.313 3.531-1.313 1.082 0 2.004.262 2.766.781 1.094.774 1.64 1.836 1.64 3.188 0 1.312-.476 2.32-1.421 3.016-.868.656-2.016 1.074-3.454 1.25l-.078-.344c1.352-.25 2.395-.766 3.125-1.547.657-.688.985-1.5.985-2.438 0-1.082-.383-1.96-1.14-2.64-.618-.57-1.43-.86-2.438-.86-.22 0-.43.016-.625.047zm-.374.078c-.793.211-1.45.54-1.97.985-.437.367-.788.836-1.046 1.406a3.763 3.763 0 0 0-.344 1.563c0 .648.145 1.195.438 1.64.187.274.375.406.562.406.176 0 .375-.109.594-.328.438-.476.848-1.195 1.234-2.156.477-1.195.72-2.086.72-2.672 0-.375-.063-.656-.188-.844zm0 0"/></symbol><symbol overflow="visible" id="j"><path d="M3.328-5.953h2.203v-3.875c.832.031 1.25.14 1.25.328 0 .105-.183.215-.547.328v1.313h3.282l.609-.797c.313.281.586.57.828.86l-.156.234H6.234v1.609h2.407l.453-.547c.488.387.734.633.734.734 0 .043-.031.09-.094.141l-.296.203v3.078h-.72v-.547h-5.53v.579h-.72v-4c.321.105.61.226.86.359zm-.14.297v2.468h5.53v-2.468zm1.124 3.593c.633.762.954 1.446.954 2.047 0 .477-.172.72-.516.72-.23 0-.344-.134-.344-.391v-.391c0-.613-.117-1.238-.343-1.875zm2.25-.062C7.582-1.32 8.095-.578 8.095.109c0 .364-.164.547-.485.547-.21 0-.336-.172-.375-.515-.086-.696-.375-1.395-.875-2.094zm-4.015.11l.281.078c-.055.992-.34 1.789-.86 2.39-.241.27-.476.406-.702.406C.953.86.796.703.796.391c0-.137.118-.274.36-.407.645-.363 1.11-1.03 1.39-2zm6.437-.141c.801.398 1.41.836 1.829 1.312.289.344.437.664.437.953 0 .332-.152.5-.453.5-.188 0-.336-.164-.438-.484-.218-.688-.734-1.379-1.546-2.078zm0 0"/></symbol><symbol overflow="visible" id="l"><path d="M3.922-3.547c-.7 0-1.2-.07-1.5-.219-.293-.164-.524-.43-.688-.796l.25-.235c.196.274.47.453.813.547.281.086.687.133 1.219.14.007-.113.054-.476.14-1.093.051-.363.094-.688.125-.969a6.772 6.772 0 0 1-.578.016c-.906 0-1.512-.301-1.812-.907l.265-.234c.219.242.461.39.735.453.3.074.8.106 1.5.094.093-.582.156-1.004.187-1.266.031-.238.047-.453.047-.64A.51.51 0 0 0 4.5-9c-.074-.094-.219-.188-.438-.281l.125-.328c.907.187 1.36.46 1.36.812 0 .117-.047.324-.14.625-.063.168-.169.625-.313 1.375.664-.101 1.086-.195 1.265-.281.157-.082.336-.125.547-.125.375 0 .563.125.563.375 0 .137-.106.242-.313.312-.367.125-1.101.243-2.203.344a59.12 59.12 0 0 0-.36 2.094c.821-.05 1.384-.14 1.688-.266.176-.07.364-.11.563-.11.125 0 .238.044.343.126.083.074.125.14.125.203 0 .242-.152.383-.453.422a22.3 22.3 0 0 1-2.343.203c-.055.48-.079.98-.079 1.5 0 1.094.579 1.64 1.735 1.64.945 0 1.703-.226 2.266-.687.437-.344.656-.8.656-1.375 0-.676-.274-1.305-.813-1.89l.266-.22c.844.688 1.265 1.45 1.265 2.282 0 .793-.355 1.434-1.062 1.922-.637.426-1.383.64-2.234.64-.95 0-1.653-.273-2.11-.812-.355-.406-.531-.953-.531-1.64 0-.47.016-.938.047-1.407zm0 0"/></symbol><symbol overflow="visible" id="m"><path d="M4.531-7.656c.157-.102.367-.235.64-.39.313-.188.5-.302.563-.345A2.915 2.915 0 0 1 4.266-9.5l.265-.234c.407.406.828.656 1.266.75.3.062.691.12 1.172.171.676.063 1.015.25 1.015.563 0 .21-.14.313-.421.313-.012 0-.07-.004-.172-.016a4.485 4.485 0 0 0-.735-.078c-.5 0-1.152.215-1.953.64zM3.016-6.234c.05.406.191.609.421.609.063 0 .254-.066.579-.203 1.382-.55 2.336-.828 2.859-.828.656 0 1.191.258 1.61.765.413.524.624 1.133.624 1.829 0 1.312-.558 2.386-1.671 3.218C6.655-.238 5.593.191 4.25.453L4.14.11c1.22-.312 2.165-.77 2.844-1.375.875-.789 1.313-1.726 1.313-2.812 0-.633-.14-1.149-.422-1.547-.262-.363-.574-.547-.938-.547-.343 0-.812.125-1.406.375-.523.211-1.133.543-1.828 1a.592.592 0 0 1-.312.11c-.188 0-.352-.11-.485-.329-.136-.218-.203-.488-.203-.812 0-.145.004-.258.016-.344zm0 0"/></symbol><symbol overflow="visible" id="n"><path d="M4.203-5.938H3.47v2h.734l.531-.78c.27.292.5.573.688.843l-.14.234H3.468v2.672c.508-.133 1.11-.316 1.797-.547l.078.313C3.676-.516 2.274-.003 1.14.328c-.063.3-.137.453-.22.453C.755.781.572.414.376-.313c.3-.039.555-.082.766-.124V-4.5c.707.043 1.062.148 1.062.313 0 .093-.14.187-.422.28v3.345l.172-.047c.125-.02.281-.051.469-.094.219-.05.344-.082.375-.094v-5.14H1.78v.562h-.64v-4.156c.312.136.523.234.64.297l.094.062h2.219L4.5-9.75c.469.387.703.633.703.734 0 .043-.023.079-.062.11l-.313.203v3.25h-.625zm0-.296V-8.86H1.781v2.625zm2.422-.141h3.016l.406-.516c.488.387.734.633.734.735 0 .054-.039.101-.11.14l-.296.188v3.406h-.656v-.734H6.625v2.828h3.484l.61-.797c.258.23.504.512.734.844l-.14.25H6.625v.906h-.703V-9.391c.258.106.531.235.812.391h3.157l.546-.75c.29.273.551.54.782.797l-.125.25H6.625zm0 .297v2.625h3.094v-2.625zm0 0"/></symbol><symbol overflow="visible" id="o"><path d="M2.86-3.219H1.593V.86H.937v-4.75c.258.106.485.211.672.313l.11.062h1.187c.04-.187.098-.578.172-1.171H1.86v.5h-.625v-3.547c.645.03.97.117.97.25 0 .086-.118.171-.345.265V-5h3.157v-2.766c.687.012 1.03.094 1.03.25 0 .094-.136.188-.405.282v2.968h-.625v-.421H3.859a1.165 1.165 0 0 1-.062.234 6.072 6.072 0 0 0-.094.36c-.062.21-.121.402-.172.577h1.625l.39-.5c.446.344.673.575.673.688 0 .055-.032.101-.094.14l-.25.157v2.875c0 .613-.34.914-1.016.906-.011-.219-.14-.375-.39-.469C4.344.238 4.062.18 3.625.11v-.312c.395.043.8.062 1.219.062.258 0 .39-.113.39-.343V-3.22H3.438c-.2.606-.391 1.153-.579 1.64.457-.062.907-.128 1.344-.202a3.632 3.632 0 0 0-.547-.89l.188-.173c.8.617 1.203 1.2 1.203 1.75 0 .262-.121.39-.36.39-.167 0-.261-.1-.28-.312a4.974 4.974 0 0 0-.095-.468c-.605.199-1.242.367-1.906.5-.054.25-.117.375-.187.375-.149 0-.281-.29-.406-.875.132 0 .359-.016.671-.047 0-.008.004-.047.016-.11a.88.88 0 0 1 .031-.093c.082-.332.176-.758.281-1.282zm4-2.484c-.231.406-.516.828-.86 1.266l-.266-.157C6.617-5.957 7.316-7.758 7.828-10c.688.18 1.031.36 1.031.547 0 .105-.168.18-.5.219-.23.742-.476 1.414-.734 2.015h1.297c.281-.656.539-1.52.781-2.593.676.18 1.016.355 1.016.53 0 .118-.156.188-.469.22a9.67 9.67 0 0 1-.969 1.843h.953l.5-.734c.157.18.368.445.641.797l-.125.234H9.5V-5h.563l.5-.688c.187.243.378.493.578.75l-.11.25H9.5v2.016h.563l.5-.687c.132.156.296.355.484.593l.125.157-.125.25H9.5v2.171h.86l.578-.78c.207.241.421.515.64.827l-.14.25H7.53v.75H6.86zm.671-1.219V-5h1.297v-1.922zm1.297 2.234H7.531v2.016h1.297zm-1.297 4.5h1.297v-2.171H7.531zM3.22-6.468a6.592 6.592 0 0 0-.938-.688l.156-.203c.395.187.739.375 1.032.562.258-.332.484-.691.672-1.078.457.25.687.438.687.563 0 .074-.086.109-.25.109a.684.684 0 0 1-.156-.016c-.125.242-.305.48-.531.719.445.313.671.602.671.86 0 .199-.085.296-.25.296-.105 0-.226-.093-.359-.281a4.049 4.049 0 0 0-.406-.516 5.584 5.584 0 0 1-1.281.875l-.172-.218c.406-.27.781-.598 1.125-.985zm-.11-1.938v-1.531c.782.023 1.172.117 1.172.28 0 .106-.172.216-.515.329v.922h1.39l.532-.735c.226.211.468.477.718.797l-.125.25H.594l-.11-.312zm0 0"/></symbol><symbol overflow="visible" id="s"><path d="M2.984-5.344v4.328c.79-.164 1.77-.441 2.938-.828L6-1.53A35.68 35.68 0 0 1 1.406.079c-.062.312-.14.468-.234.468C1.016.547.828.18.609-.547c.164-.02.711-.117 1.641-.297v-8.61c.863.024 1.297.134 1.297.329 0 .105-.188.227-.563.36v3.124h1.61l.593-.828c.227.23.454.485.672.766l.094.125-.125.234zm4.344.36a12.343 12.343 0 0 0 2.688-2.407c.57.399.859.688.859.875 0 .086-.078.125-.234.125-.094 0-.211-.015-.344-.046a16.626 16.626 0 0 1-2.969 1.859v3.922c0 .23.086.36.266.39.125.032.437.047.937.047.758 0 1.223-.023 1.39-.078.208-.062.337-.234.392-.516.113-.539.187-1.175.218-1.906l.344.125c0 1.063.04 1.703.125 1.922.05.18.176.266.375.266-.012.375-.184.601-.516.687-.336.082-1.148.125-2.437.125-.918 0-1.461-.078-1.625-.234-.125-.137-.188-.39-.188-.766v-8.844c.864.043 1.297.157 1.297.344 0 .106-.195.227-.578.36zm0 0"/></symbol><symbol overflow="visible" id="t"><path d="M7.563-3.703l-.188.031c-.95.2-2.031.367-3.25.5-.074.262-.152.39-.234.39-.168 0-.305-.32-.407-.968a73.87 73.87 0 0 0 1.375-.047A18.577 18.577 0 0 0 6.953-6.64c.54.313.813.54.813.672 0 .106-.18.157-.532.157a15.595 15.595 0 0 1-1.828 1.89l-.11.094c.571-.031 1.27-.094 2.095-.188-.125-.218-.34-.472-.641-.765l.172-.188c1 .512 1.5 1.047 1.5 1.61 0 .28-.125.421-.375.421-.188 0-.309-.128-.36-.39a1.773 1.773 0 0 0-.125-.375zM4.858-5.97c.282-.582.504-1.18.672-1.797.645.243.969.446.969.61 0 .105-.156.156-.469.156-.25.387-.562.79-.937 1.203.343.274.515.531.515.781s-.132.375-.39.375c-.137 0-.25-.101-.344-.312-.18-.457-.586-.89-1.219-1.297l.14-.219c.458.157.813.324 1.063.5zm.766-2.156v-1.797c.813.024 1.219.125 1.219.313 0 .105-.18.214-.532.328v1.156H9.47l.625-.75c.312.242.594.508.844.797l-.141.25H1.203l-.11-.297zm.703 6.484v2.5h-.703v-2.5H.75l-.11-.312h4.985v-1.094c.79.024 1.188.125 1.188.313 0 .093-.165.195-.485.296v.485h3.516l.656-.766c.29.242.582.512.875.813l-.156.265zm-4.89-5.64c1.257.437 1.89.933 1.89 1.484 0 .281-.125.422-.375.422-.168 0-.293-.11-.375-.328-.21-.488-.633-.942-1.265-1.36zm6.515 1.64a12.856 12.856 0 0 0 1.969-1.843c.488.375.734.636.734.78 0 .075-.07.11-.203.11-.094 0-.203-.02-.328-.062-.563.437-1.234.851-2.016 1.234zm.094.563c1.789.469 2.687.996 2.687 1.578 0 .242-.117.36-.343.36-.125 0-.274-.098-.438-.297-.43-.508-1.101-.973-2.015-1.391zM4.078-5.11l.125.25c-.687.593-1.45 1.14-2.281 1.64 0 .324-.055.485-.156.485-.168 0-.375-.305-.625-.922 1.125-.438 2.101-.922 2.937-1.453zm0 0"/></symbol><symbol overflow="visible" id="u"><path d="M3.125-6.328h1.719c.289-.77.5-1.52.625-2.25H.89l-.125-.313h8.843l.688-.859c.414.387.719.688.906.906l-.14.266H6.484c-.43.937-.84 1.687-1.234 2.25h3.578l.453-.563c.5.375.75.61.75.704 0 .062-.047.132-.14.203l-.235.218v6.61h-.719V0H3.032v.844h-.734v-7.578c.3.136.578.273.828.406zm-.094.297v2.562h5.906V-6.03zM8.937-.297v-2.875H3.032v2.875zm0 0"/></symbol><symbol overflow="visible" id="v"><path d="M4.656-4.86H2.75l-.094-.296h5.516l.453-.547c.469.375.703.617.703.719 0 .062-.039.125-.11.187l-.25.188c-.011 2.367-.21 3.898-.593 4.593-.262.477-.73.72-1.406.72 0-.231-.153-.407-.453-.532-.23-.094-.653-.192-1.266-.297v-.313c.813.106 1.441.157 1.89.157.415 0 .688-.25.813-.75.195-.832.3-2.11.313-3.828h-2.86C5.29-3.4 4.953-2.242 4.391-1.391 3.773-.43 2.805.313 1.484.844L1.313.578C2.718-.172 3.663-1.195 4.155-2.5c.258-.695.426-1.484.5-2.36zM7.22-9.593C8.32-7.664 9.664-6.227 11.25-5.28c-.23.168-.438.414-.625.734A11.396 11.396 0 0 1 7.781-7.78a19.049 19.049 0 0 1-.875-1.657zM.797-4.234c1.656-1.375 2.86-3.16 3.61-5.36.726.25 1.093.453 1.093.61 0 .105-.168.195-.5.265-.605 1.262-1.258 2.266-1.953 3.016C2.516-5.11 1.832-4.54 1-4zm0 0"/></symbol><symbol overflow="visible" id="B"><path d="M4.922-4.86c-.336-.726-.59-1.757-.766-3.093-.054-.383-.117-.613-.187-.688-.125-.101-.34-.16-.64-.171v-.376a6.98 6.98 0 0 1 .733-.03c.602 0 .907.187.907.562l-.063.828c0 .918.176 1.808.532 2.672l2.437-1.39c.188-.095.281-.177.281-.25 0-.114-.14-.274-.422-.485l.25-.25c.79.406 1.188.781 1.188 1.125 0 .117-.078.218-.235.312-.062.032-.246.11-.546.235-1.899.78-3.274 1.492-4.125 2.125-.793.593-1.188 1.168-1.188 1.718 0 .43.235.735.703.922.457.18 1.18.266 2.172.266a12.7 12.7 0 0 0 2.484-.25c.063-.008.172-.035.329-.078a.915.915 0 0 1 .187-.032c.219 0 .39.043.516.125a.441.441 0 0 1 .203.375c0 .211-.168.34-.5.391-.875.117-1.805.172-2.781.172-1.493 0-2.528-.172-3.11-.516-.48-.289-.719-.742-.719-1.359 0-.969.786-1.922 2.36-2.86zm0 0"/></symbol><symbol overflow="visible" id="C"><path d="M3.219-1.86c0 .45.312.798.937 1.048.52.21 1.188.312 2 .312.446 0 .93-.047 1.453-.14a2.37 2.37 0 0 1 .313-.032c.207 0 .348.027.422.078a.435.435 0 0 1 .203.39c0 .18-.184.302-.547.376-.313.05-.84.078-1.578.078C5.14.25 4.164.031 3.5-.406c-.555-.344-.828-.79-.828-1.344 0-.613.348-1.063 1.047-1.344.476-.195 1.062-.297 1.75-.297.945 0 1.789.075 2.531.22a16.276 16.276 0 0 1-.578-.97c-.262-.457-.43-.757-.5-.906-1.012.262-1.824.39-2.438.39-.968 0-1.734-.32-2.296-.968l.234-.25c.488.469 1.144.703 1.969.703.656 0 1.41-.125 2.265-.375a50.67 50.67 0 0 1-.718-1.469c-.7.157-1.305.235-1.813.235-.688 0-1.227-.192-1.61-.578l.204-.266c.394.242.812.36 1.25.36.52 0 1.101-.079 1.75-.235l-.453-.984c-.2-.457-.493-.688-.875-.688-.032 0-.118.012-.25.031L4.094-9.5c.445-.07.8-.11 1.062-.11.301 0 .5.153.594.454.156.554.316 1.043.484 1.469.79-.313 1.297-.547 1.516-.704a.812.812 0 0 1 .516-.171c.312 0 .468.09.468.265 0 .137-.226.297-.671.485-.282.125-.82.328-1.61.609.258.594.5 1.094.719 1.5.976-.352 1.601-.656 1.875-.906a.747.747 0 0 1 .469-.172c.382 0 .578.09.578.265 0 .325-.887.762-2.656 1.313.226.406.566.945 1.015 1.61.219.323.328.585.328.78 0 .407-.09.61-.265.61-.094 0-.22-.055-.375-.172-.25-.176-.688-.32-1.313-.438a8.836 8.836 0 0 0-1.562-.14c-.637 0-1.153.121-1.547.36-.336.198-.5.445-.5.734zm0 0"/></symbol><symbol overflow="visible" id="D"><path d="M.828-1.938c.977.344 1.707.805 2.188 1.375.226.282.343.56.343.829 0 .394-.187.593-.562.593-.211 0-.371-.152-.485-.453-.335-.82-.886-1.531-1.656-2.125zm0 0"/></symbol><symbol overflow="visible" id="E"><path d="M7.39-5.297v.188c-.023 1.273-.148 2.351-.374 3.234A6.03 6.03 0 0 1 5.453.828l-.25-.203c.656-.914 1.082-1.96 1.281-3.14.133-.833.204-1.797.204-2.891v-3.422c.312.117.57.219.78.312.938-.28 1.735-.675 2.391-1.187.551.344.829.59.829.734 0 .074-.075.11-.22.11-.105 0-.226-.016-.359-.047-.78.293-1.687.539-2.718.734v2.563h2.703l.562-.766c.301.262.555.531.766.813l-.125.265H9.672V.72h-.688v-6.016zM3.11-2.359C2.483-1.41 1.663-.582.655.125L.453-.109c1.176-.989 2.035-2.102 2.578-3.344H.875L.75-3.75h2.36v-1.406c.75.031 1.124.117 1.124.25 0 .093-.152.195-.453.297v.859H5l.5-.672c.27.281.488.54.656.766l-.125.203h-2.25v.484c1.344.492 2.016 1.016 2.016 1.578 0 .274-.125.407-.375.407-.117 0-.234-.098-.36-.297-.292-.5-.718-.942-1.28-1.328V.859h-.673zm.64-3.313c.313-.707.55-1.43.719-2.172.664.242 1 .434 1 .578 0 .106-.157.164-.469.172-.188.375-.484.852-.89 1.422h1.156l.5-.703c.238.25.441.5.609.75l-.14.25H.718l-.125-.297zM3.11-8.25v-1.656c.757.043 1.14.148 1.14.312 0 .094-.156.2-.469.313v1.031H5l.469-.734c.238.242.437.468.593.687l.079.11L6-7.954H1.016L.875-8.25zm-1.438.438c.832.5 1.25 1.023 1.25 1.562 0 .305-.14.453-.422.453-.2 0-.309-.144-.328-.437-.031-.446-.258-.907-.672-1.375zm0 0"/></symbol><symbol overflow="visible" id="F"><path d="M10.266-3.984c-.375 1.23-.883 2.168-1.516 2.812C7.883-.305 6.852.125 5.656.125c-.93 0-1.59-.238-1.984-.719-.367-.445-.547-1.148-.547-2.11 0-1.175.04-2.483.125-3.921a20.6 20.6 0 0 0 .047-1.297c0-.344-.04-.586-.11-.734-.085-.156-.246-.285-.484-.39l.11-.282c.406.043.765.183 1.078.422.25.199.375.375.375.531 0 .055-.028.21-.079.469a9.445 9.445 0 0 0-.125.765C3.864-5.453 3.767-4 3.767-2.78c0 .93.156 1.539.468 1.828.27.262.758.39 1.47.39.913 0 1.753-.335 2.515-1.015.707-.625 1.273-1.477 1.703-2.563zm0 0"/></symbol><symbol overflow="visible" id="G"><path d="M5.594-3.969a65.088 65.088 0 0 0-.75 1.844c-.168.45-.25.766-.25.953l.125.61c0 .199-.11.296-.328.296-.125 0-.309-.066-.547-.203a3.045 3.045 0 0 1-.563-.453c-.48-.476-.828-1.18-1.047-2.11-.168-.687-.257-1.738-.265-3.155 0-.446-.04-.805-.11-1.079a1.367 1.367 0 0 0-.625-.796l.204-.282C2.332-7.926 2.78-7.477 2.78-7a.875.875 0 0 1-.047.219 1.33 1.33 0 0 0-.062.234c-.055.68-.078 1.266-.078 1.766 0 1.125.27 2.12.812 2.984.094.137.203.203.328.203.082 0 .176-.078.282-.234.27-.395.691-1.156 1.265-2.281zm2.312-3.234c.594.305 1.067.625 1.422.969.281.261.555.605.828 1.03.414.669.625 1.298.625 1.891 0 .461-.148.688-.437.688-.18 0-.305-.188-.375-.563-.324-1.656-1.086-2.89-2.281-3.703zm0 0"/></symbol></defs><use xlink:href="#a" x="-1.662" y="17.565"/><use xlink:href="#b" x="-1.662" y="21.871"/><use xlink:href="#b" x="-1.662" y="26.096"/><use xlink:href="#b" x="-1.662" y="30.321"/><use xlink:href="#b" x="-1.662" y="34.546"/><use xlink:href="#b" x="-1.662" y="38.771"/><use xlink:href="#b" x="-1.662" y="42.996"/><use xlink:href="#b" x="-1.662" y="47.221"/><use xlink:href="#b" x="-1.662" y="51.445"/><use xlink:href="#b" x="-1.662" y="55.67"/><use xlink:href="#b" x="-1.662" y="59.895"/><use xlink:href="#b" x="-1.662" y="64.12"/><use xlink:href="#c" x="-1.662" y="78.134"/><use xlink:href="#d" x="18.888" y="10.745"/><use xlink:href="#e" x="24.865" y="13.518"/><use xlink:href="#f" x="33.686" y="10.745"/><use xlink:href="#g" x="46.093" y="10.745"/><use xlink:href="#h" x="58.048" y="10.745"/><use xlink:href="#i" x="70.003" y="10.745"/><use xlink:href="#j" x="81.959" y="10.745"/><use xlink:href="#d" x="18.888" y="28.179"/><use xlink:href="#k" x="24.865" y="30.953"/><use xlink:href="#f" x="33.686" y="28.179"/><use xlink:href="#l" x="46.093" y="28.179"/><use xlink:href="#m" x="58.048" y="28.179"/><use xlink:href="#g" x="70.003" y="28.179"/><use xlink:href="#h" x="81.959" y="28.179"/><use xlink:href="#i" x="93.914" y="28.179"/><use xlink:href="#j" x="105.869" y="28.179"/><use xlink:href="#n" x="6.455" y="45.614"/><use xlink:href="#o" x="18.41" y="45.614"/><use xlink:href="#f" x="33.686" y="45.614"/><use xlink:href="#p" x="46.084" y="45.614"/><use xlink:href="#d" x="51.153" y="45.614"/><use xlink:href="#k" x="57.14" y="48.387"/><use xlink:href="#q" x="65.297" y="45.614"/><use xlink:href="#d" x="77.037" y="45.614"/><use xlink:href="#e" x="83.017" y="48.387"/><use xlink:href="#r" x="88.518" y="45.614"/><use xlink:href="#s" x="6.455" y="72.423"/><use xlink:href="#t" x="18.41" y="72.423"/><use xlink:href="#f" x="33.686" y="72.423"/><use xlink:href="#u" x="47.289" y="63.815"/><use xlink:href="#v" x="59.244" y="63.815"/><use xlink:href="#t" x="71.199" y="63.815"/><path d="M47.29 69.434h35.862" fill="none" stroke-width=".717" stroke="#000" stroke-miterlimit="10"/><use xlink:href="#w" x="56.255" y="80.386"/><use xlink:href="#x" x="62.233" y="80.386"/><use xlink:href="#x" x="68.21" y="80.386"/><use xlink:href="#y" x="117.824" y="17.565"/><use xlink:href="#z" x="117.824" y="21.871"/><use xlink:href="#z" x="117.824" y="26.096"/><use xlink:href="#z" x="117.824" y="30.321"/><use xlink:href="#z" x="117.824" y="34.546"/><use xlink:href="#z" x="117.824" y="38.771"/><g><use xlink:href="#z" x="117.824" y="42.996"/></g><g><use xlink:href="#z" x="117.824" y="47.221"/></g><g><use xlink:href="#z" x="117.824" y="51.445"/></g><g><use xlink:href="#z" x="117.824" y="55.67"/></g><g><use xlink:href="#z" x="117.824" y="59.895"/></g><g><use xlink:href="#z" x="117.824" y="64.12"/></g><g><use xlink:href="#A" x="117.824" y="78.134"/></g><g><use xlink:href="#i" x="127.934" y="43.617"/><use xlink:href="#B" x="139.889" y="43.617"/><use xlink:href="#C" x="151.844" y="43.617"/><use xlink:href="#D" x="163.8" y="43.617"/><use xlink:href="#E" x="175.755" y="43.617"/><use xlink:href="#F" x="187.71" y="43.617"/><use xlink:href="#G" x="199.665" y="43.617"/><use xlink:href="#j" x="211.62" y="43.617"/></g><g><use xlink:href="#f" x="226.897" y="43.617"/></g><g><use xlink:href="#d" x="239.295" y="43.617"/></g><g><use xlink:href="#e" x="245.281" y="46.391"/></g><g><use xlink:href="#H" x="253.438" y="43.617"/></g><g><use xlink:href="#n" x="265.181" y="43.617"/><use xlink:href="#o" x="277.136" y="43.617"/></g><g><use xlink:href="#I" x="291.748" y="43.617"/></g><g><use xlink:href="#s" x="297.752" y="43.617"/><use xlink:href="#t" x="309.707" y="43.617"/></g></svg>