<svg xmlns:xlink="http://www.w3.org/1999/xlink" width="21ex" height="14.167ex" style="vertical-align:-6.5ex;margin-bottom:1px;margin-top:1px" viewBox="0 -3288.2 9018.1 6076.3" xmlns="http://www.w3.org/2000/svg"><defs><path stroke-width="10" id="a" d="M258 683L114 105c-5-19-6-24-6-48 0-14 0-46 30-46 40 0 59 59 76 124 3 14 4 18 14 18 3 0 12 0 12-10 0 0-12-60-30-98-17-36-42-56-75-56-47 0-91 35-91 92 0 16 2 23 5 34l126 500 3 20c0 8-1 17-49 17-15 0-25 0-25 11 0 19 11 20 19 21 26 2 99 10 122 10 13 0 13-11 13-11z"/><path stroke-width="10" id="b" d="M332-238c0-5-5-10-10-10-2 0-4 1-6 2-110 83-215 283-215 454v84c0 171 105 371 215 454 2 1 4 2 6 2 5 0 10-5 10-10 0-3-2-6-4-8-104-78-173-278-173-438v-84c0-160 69-360 173-438 2-2 4-5 4-8z"/><path stroke-width="10" id="c" d="M527 376c0-40-32-58-54-58-27 0-38 19-38 35 0 24 20 49 48 54-21 13-45 13-50 13-70 0-93-92-99-118l-34-137c-11-44-17-66-17-88 0-34 16-66 55-66 32 0 100 24 133 131 2 7 4 11 13 11 3 0 12 0 12-10 0-25-57-154-160-154-60 0-96 39-108 76-3-6-39-76-105-76-44 0-94 20-94 66 0 32 25 58 55 58 15 0 37-8 37-35 0-28-22-49-47-54 21-13 44-13 50-13 44 0 79 42 95 104 37 140 54 207 54 238 0 58-35 67-54 67-34 0-100-25-134-131-2-9-5-11-13-11 0 0-12 0-12 10 0 25 57 154 161 154 29 0 83-10 108-76 12 23 47 76 105 76 34 0 93-14 93-66z"/><path stroke-width="10" id="d" d="M288 208c0-171-105-371-215-454-2-1-4-2-6-2-5 0-10 5-10 10 0 3 2 6 4 8 104 78 173 278 173 438v84c0 160-69 360-173 438-2 2-4 5-4 8 0 5 5 10 10 10 2 0 4-1 6-2 110-83 215-283 215-454v-84z"/><path stroke-width="10" id="e" d="M722 347c0-11-9-20-20-20H76c-11 0-20 9-20 20s9 20 20 20h626c11 0 20-9 20-20zm0-194c0-11-9-20-20-20H76c-11 0-20 9-20 20s9 20 20 20h626c11 0 20-9 20-20z"/><path stroke-width="10" id="f" d="M498 143s-13-63-30-99c-16-32-39-55-74-55-48 0-83 33-91 75-60-71-110-75-130-75C95-11 40 55 40 149c0 146 124 293 241 293 45 0 74-27 92-64 3 22 18 44 42 44 17 0 29-10 29-27 0-4 0-6-7-34l-36-140-22-90c-11-44-13-52-13-74 0-20 3-46 30-46 41 0 59 59 76 124 3 14 4 18 14 18 3 0 12 0 12-10zM361 332c0 6-14 88-79 88-40 0-85-37-116-96-23-46-55-169-55-219 0-39 14-94 64-94 28 0 69 16 113 71 15 17 15 19 20 37l50 196c1 5 3 11 3 17z"/><path stroke-width="10" id="g" d="M722 250c0-11-9-20-20-20H409V-63c0-11-9-20-20-20s-20 9-20 20v293H76c-11 0-20 9-20 20s9 20 20 20h293v293c0 11 9 20 20 20s20-9 20-20V270h293c11 0 20-9 20-20z"/><path stroke-width="10" id="h" d="M415 282c0-144-123-293-241-293-74 0-127 62-127 157 0 35 4 51 16 101l82 326c5 21 14 55 14 62 0 10-2 17-50 17-15 0-24 0-24 12 0 18 11 19 19 20 26 2 99 10 122 10 13 0 13-11 13-11l-74-301c30 31 71 60 117 60 80 0 133-69 133-160zm-72 44c0 64-27 94-63 94-26 0-71-15-120-80-9-11-9-13-15-35l-22-92c-16-63-16-82-16-101 0-74 33-101 67-101 39 0 85 36 118 103 18 38 51 153 51 212z"/><path stroke-width="10" id="i" d="M460 320c0-79-5-157-37-226C379-1 303-22 249-22 200-22 127-2 84 79c-41 76-45 166-45 241 0 80 5 158 37 227 41 93 114 119 174 119 42 0 124-16 170-112 35-74 40-154 40-234zm-83 12c0 63 0 139-10 195-19 99-85 117-118 117-25 0-100-9-119-128-8-54-8-120-8-184 0-59 0-151 11-211C151 25 210 0 249 0c45 0 102 30 117 125 11 64 11 132 11 207z"/><path stroke-width="10" id="j" d="M203 1c0-117-80-194-91-194-5 0-10 4-10 11 0 3 0 5 11 16 33 33 68 93 68 167 0 14-2 15-2 15s-2-1-5-3c-10-9-23-13-35-13-33 0-53 26-53 53 0 28 20 53 53 53 39 0 64-39 64-105z"/><path stroke-width="10" id="k" d="M722 250c0-11-9-20-20-20H76c-11 0-20 9-20 20s9 20 20 20h626c11 0 20-9 20-20z"/></defs><g stroke="currentColor" fill="currentColor" stroke-width="0"><g transform="matrix(1 0 0 -1 156 0)"><g transform="translate(0 2474)"><use xlink:href="#a"/><use xlink:href="#b" x="303"/><use xlink:href="#c" x="697"/><use xlink:href="#d" x="1274"/><use xlink:href="#e" x="1945"/><use xlink:href="#f" x="3006"/><use xlink:href="#c" x="3540"/><use xlink:href="#g" x="4339"/><use xlink:href="#h" x="5345"/></g><g transform="translate(3006 1116)"><use xlink:href="#f"/><use xlink:href="#c" x="534"/><use xlink:href="#g" x="1333"/><use xlink:href="#h" x="2338"/></g><g transform="translate(4668 -187)"><use xlink:href="#f"/><use xlink:href="#c" x="534"/></g><use xlink:href="#c" x="5202" y="-2068"/></g><g transform="matrix(1 0 0 -1 5935 -2474)"><use xlink:href="#e" x="277"/><use xlink:href="#i" x="1338"/><use xlink:href="#j" x="1843"/></g><g transform="matrix(1 0 0 -1 5935 -1116)"><use xlink:href="#e" x="277"/><use xlink:href="#i" x="1338"/><use xlink:href="#j" x="1843"/></g><g transform="matrix(1 0 0 -1 5935 187)"><use xlink:href="#e" x="277"/><use xlink:href="#k" x="1338"/><use xlink:href="#h" x="2121"/></g><g transform="matrix(1 0 0 -1 5935 2068)"><use xlink:href="#e" x="277"/><g transform="translate(1457)"><path stroke="none" d="M0 220h1337v60H0z"/><g transform="translate(60 676)"><use xlink:href="#k"/><use xlink:href="#h" x="783"/></g><use xlink:href="#f" x="401" y="-686"/></g></g></g></svg>