<svg xmlns="http://www.w3.org/2000/svg" xmlns:xlink="http://www.w3.org/1999/xlink" width="196pt" height="50pt" viewBox="0 0 196 50"><defs><symbol overflow="visible" id="a"><path d="M3-8.625l-.14-.14c-.626.312-1.047.421-1.922.5l-.047.25h.578c.281 0 .406.093.406.265 0 .156-.047.438-.063.578L.657-1.578C.484-.953.437-.625.437-.36c0 .28.126.468.344.468.313 0 .766-.265 1.922-1.125l-.125-.218-.312.203c-.36.25-.61.36-.72.36-.093 0-.155-.11-.155-.235 0-.156.03-.297.062-.438zm0 0"/></symbol><symbol overflow="visible" id="b"><path d="M8.125-3.938c-.016-.124-.031-.25-.031-.359 0-.125.015-.25.031-.36H.953c.031.11.031.235.031.36 0 .11 0 .234-.03.36zm0 2.626c-.016-.125-.031-.235-.031-.36s.015-.234.031-.36H.953a1.4 1.4 0 0 1 .031.36c0 .125 0 .234-.03.36zm0 0"/></symbol><symbol overflow="visible" id="c"><path d="M4.656-5.469c-.312-.203-.703-.297-1.156-.297-.531 0-1.39.422-2.063 1.016C.75-4.14.298-2.906.298-1.625c0 1.14.5 1.75 1.453 1.75.656 0 1.219-.234 1.89-.766l.594-.5-.093-.234-.188.125c-.86.563-1.312.766-1.734.766-.672 0-1.016-.47-1.016-1.422 0-1.266.406-2.5.984-2.953.25-.22.547-.313.938-.313.531 0 .969.219.969.516v.718h.265c.094-.78.188-1.218.297-1.53zm0 0"/></symbol><symbol overflow="visible" id="d"><path d="M4.906-3.953c0-1.125-.593-1.813-1.578-1.813-.515 0-1.078.204-1.625.594-.969.688-1.5 1.89-1.5 3.36C.203-.548.734.125 1.734.125c.657 0 1.375-.297 1.907-.813.75-.703 1.265-2.062 1.265-3.265zM4-3.766c0 1.141-.36 2.422-.89 3.047-.22.25-.532.39-.891.39-.703 0-1.11-.53-1.11-1.484 0-1.343.47-2.812 1.047-3.296.156-.125.438-.204.719-.204.734 0 1.125.547 1.125 1.547zm0 0"/></symbol><symbol overflow="visible" id="e"><path d="M4.125-5.438c-.469-.234-.797-.328-1.203-.328-.61 0-1.344.344-1.922.938-.313.328-.438.625-.438 1.047 0 .672.375 1.062 1.157 1.219l.75.14c.531.094.719.297.719.766 0 .797-.547 1.312-1.391 1.312-.438 0-.797-.14-1.125-.422v-1H.375C.312-1.156.235-.734.109-.187.563.03.97.124 1.391.124c.578 0 1.125-.203 1.734-.688.61-.484.875-.921.875-1.515 0-.64-.375-1-1.281-1.156l-.5-.094c-.719-.14-.953-.344-.953-.828 0-.64.53-1.125 1.218-1.125.485 0 .954.218 1.141.531v.656h.266c.046-.406.109-.734.234-1.343zm0 0"/></symbol><symbol overflow="visible" id="f"><path d="M4.11-7.61a.735.735 0 0 1-.188-.14c-.063-.063-.11-.11-.14-.188-1.47 1.47-2.345 3.032-2.345 4.563v.781c0 1.516.875 3.078 2.344 4.547a.735.735 0 0 1 .14-.187.735.735 0 0 1 .188-.141C2.781.281 2.156-1.203 2.156-2.594v-.781c0-1.39.625-2.89 1.953-4.234zm0 0"/></symbol><symbol overflow="visible" id="i"><path d="M3.64-2.594v-.781c0-1.531-.874-3.094-2.343-4.563-.047.079-.094.125-.156.188a.427.427 0 0 1-.188.14c1.328 1.344 1.969 2.844 1.969 4.235v.781c0 1.39-.64 2.875-1.969 4.219.078.031.14.078.188.14.062.063.109.126.156.188C2.766.484 3.64-1.078 3.64-2.594zm0 0"/></symbol><symbol overflow="visible" id="j"><path d="M2.61-1.297l-.172-.172c-.329.11-.532.172-1.172.36C1.187-.203.89.578.187 1.719l.172.14.485-.234c.969-1.25 1.422-2 1.765-2.922zm0 0"/></symbol><symbol overflow="visible" id="k"><path d="M5.89-6.906c-.03-.063-.062-.14-.093-.219-.031-.078-.031-.172-.031-.234-1.672.437-2.75 1.687-2.75 3.78V0h.953v-3.578c0-1.719.547-2.953 1.922-3.328zm0 0"/></symbol><symbol overflow="visible" id="l"><path d="M3.969 0v-7.125h-.953V0zm0 0"/></symbol><symbol overflow="visible" id="m"><path d="M3.969 0v-3.578c0-1.922-.64-3.094-1.656-3.563 1.015-.468 1.656-1.64 1.656-3.562v-3.563h-.953v3.563c0 2.078-.5 3.328-1.875 3.328a.648.648 0 0 1 0 .484c1.375 0 1.875 1.25 1.875 3.313V0zm0 0"/></symbol><symbol overflow="visible" id="n"><path d="M5.89-.469C4.517-.829 3.97-2.063 3.97-3.797v-3.562h-.953v3.562c0 2.094 1.078 3.344 2.75 3.797 0-.078 0-.172.03-.234.032-.094.063-.157.095-.235zm0 0"/></symbol><symbol overflow="visible" id="o"><path d="M7.781-7.953c-.922-.344-1.593-.484-2.328-.484a5 5 0 0 0-2.797.859C1.25-6.641.531-5.218.531-3.391.531-1.078 1.812.22 4.094.22c1.156 0 1.984-.281 3.078-1.016l.125-.437-.125-.079c-1.125.688-1.75.891-2.672.891-1.89 0-2.906-1.14-2.906-3.265 0-1.344.406-2.516 1.125-3.25.562-.579 1.328-.875 2.281-.875.86 0 1.469.171 2.14.609v1h.313c.063-.688.156-1.203.328-1.75zm0 0"/></symbol><symbol overflow="visible" id="q"><path d="M2.39-2.984c0-.438-.28-.72-.718-.72-.422 0-.719.282-.719.72 0 .421.297.718.719.718.437 0 .719-.296.719-.718zm0 0"/></symbol><symbol overflow="visible" id="r"><path d="M5.313-11.078c-.079-.031-.141-.094-.204-.14-.046-.063-.093-.126-.14-.204-2.11 2.125-3.407 4.672-3.407 7.406v2.063c0 2.734 1.297 5.281 3.407 7.39.047-.078.093-.125.14-.187a.595.595 0 0 1 .204-.14C3.327 3.124 2.405.61 2.405-1.954v-2.063c0-2.578.922-5.078 2.906-7.062zm0 0"/></symbol><symbol overflow="visible" id="s"><path d="M4.781-1.953v-2.063c0-2.734-1.297-5.28-3.406-7.406a.595.595 0 0 1-.14.203c-.063.047-.126.11-.188.14 1.984 1.985 2.89 4.485 2.89 7.063v2.063c0 2.562-.906 5.078-2.89 7.062a.735.735 0 0 1 .187.141c.063.063.11.11.141.188C3.485 3.328 4.781.78 4.781-1.954zm0 0"/></symbol><symbol overflow="visible" id="u"><path d="M2.875-1.016l-.11-.218-.312.203c-.36.25-.61.36-.734.36-.078 0-.157-.11-.157-.235 0-.125.016-.219.094-.485l.907-3.625c.062-.203.078-.328.078-.437 0-.203-.094-.313-.297-.313-.266 0-.688.25-1.61.891l-.328.234.078.235.391-.25c.344-.219.469-.266.578-.266.11 0 .203.11.203.25 0 .094-.047.344-.11.531l-.78 2.86c-.11.39-.157.687-.157.922 0 .28.125.468.36.468.312 0 .75-.265 1.906-1.125zm.297-6.5c0-.296-.172-.5-.422-.5-.36 0-.688.407-.688.813 0 .297.172.484.47.484.374 0 .64-.343.64-.797zm0 0"/></symbol><symbol overflow="visible" id="v"><path d="M6.14-1.016l-.109-.218-.312.203c-.36.234-.61.36-.735.36-.078 0-.156-.11-.156-.235 0-.063.016-.188.031-.235l.782-3.312a4.47 4.47 0 0 0 .125-.875c0-.281-.125-.438-.36-.438-.5 0-1.328.454-2.031 1.11-.453.422-.797.828-1.422 1.703l.469-1.922c.047-.219.062-.36.062-.484 0-.266-.093-.407-.265-.407-.266 0-.719.266-1.594.891l-.344.234.094.235.375-.25c.438-.282.484-.297.563-.297.14 0 .218.125.218.297 0 .61-.484 2.922-.984 4.625l.094.14c.296-.078.562-.156.828-.203.234-1.515.484-2.281 1.031-3.11.656-1 1.547-1.75 2.078-1.75.125 0 .203.11.203.298 0 .203-.031.453-.125.843L4.031-1.28c-.11.437-.156.718-.156.906 0 .297.125.484.36.484.312 0 .734-.25 1.906-1.125zm0 0"/></symbol><symbol overflow="visible" id="g"><path d="M5.969-2.922a1.162 1.162 0 0 0-.11-.578c-.109-.266-.5-.766-.75-.766-.234 0-.468.063-.703.172-.36.188-.828.516-1.078.766a.933.933 0 0 0-.219.406L2.5-.25c-.781-.063-1.219-.453-1.188-1.078.047-1 .782-2.078 1.532-2.453.125-.047.281-.094.484-.125.11-.078.078-.078.14-.156-.015-.094-.062-.11-.077-.11-.22 0-.594.172-.907.313C1.313-3.36.641-2.453.578-1.344.531-.39 1.11.094 2.25.094h.172l-.547 1.968-.094.329.063.046c.203-.062.406-.109.718-.14l.5-2.281c.47-.11.938-.266 1.329-.5.875-.532 1.53-1.532 1.578-2.438zm-.735.14c-.062.86-.64 1.782-1.328 2.25-.203.141-.469.235-.781.282l.25-1.063c.156-.687.469-2.125.703-2.296.125-.141.39-.22.703-.22.266 0 .469.579.453 1.048zm0 0"/></symbol><symbol overflow="visible" id="h"><path d="M4.594.031c-.016-.187-.016-.281-.016-.406 0-.11 0-.203.016-.39l-3.328.078 1.75-1.704c.937-.906 1.234-1.39 1.234-2.062 0-1.016-.75-1.64-1.984-1.64-.688 0-1.172.171-1.641.624L.469-4.266H.75l.11-.406c.171-.516.515-.734 1.156-.734.828 0 1.359.468 1.359 1.218 0 .672-.406 1.329-1.484 2.391L.234-.203V.03L2.391 0zm0 0"/></symbol><symbol overflow="visible" id="p"><path d="M4.766-4.172a.703.703 0 0 0-.297-.094c-.39 0-.766.329-1.375 1.141l-.36.484-.062-.421c-.11-.876-.36-1.204-.938-1.204-.25 0-.453.079-.546.188l-.563.734.172.094c.281-.313.484-.422.656-.422.328 0 .531.36.703 1.219l.094.547-.375.547c-.422.593-.75.875-1.016.875-.14 0-.25-.032-.265-.079l-.11-.25-.187.032c0 .187-.016.297-.078.578-.032.11-.032.125-.047.187a.94.94 0 0 0 .422.11c.312 0 .687-.25.984-.672l.734-1.031.11.609c.14.75.344 1.094.687 1.094.22 0 .532-.14.829-.406l.468-.391-.078-.156c-.344.265-.594.39-.734.39-.156 0-.281-.094-.375-.265-.094-.172-.188-.5-.235-.75l-.187-.891.344-.438c.453-.578.718-.78 1.015-.78.157 0 .266.077.313.202l.14-.03zm0 0"/></symbol><symbol overflow="visible" id="t"><path d="M4.813-4.188l-.11-.078c-.281.094-.5.157-.719.172l-.328 1.172c-.125.406-.453 1.063-.765 1.485-.344.453-.813.843-1.032.843-.203 0-.187-.422-.171-.531l.14-1.719c.016-.281.031-.61.031-.86 0-.405-.062-.562-.234-.562-.125 0-.25.063-.719.36l-.797.5.11.156.484-.266a.458.458 0 0 1 .25-.109c.235 0 .203.453.203.594L.984-.891.97-.53c0 .375.187.625.422.625.359 0 1.171-.75 1.89-1.75L2.797-.141c-.485 1.563-.969 2.204-1.64 2.204-.329 0-.595-.235-.595-.547 0-.032 0-.11.016-.188l-.094-.031-.468.297v.156c0 .375.359.688.796.688 1.016 0 2.079-1.094 2.641-2.735zm0 0"/></symbol></defs><use xlink:href="#a" x="-.02" y="11.748"/><use xlink:href="#b" x="6.615" y="11.748"/><use xlink:href="#c" x="19.025" y="11.748"/><use xlink:href="#d" x="24.01" y="11.748"/><use xlink:href="#e" x="29.318" y="11.748"/><use xlink:href="#f" x="33.969" y="11.748"/><use xlink:href="#g" x="40.24" y="4.897"/><path d="M40.238 8.758h6.328" fill="none" stroke-width=".717" stroke="#000" stroke-miterlimit="10"/><use xlink:href="#h" x="40.904" y="16.274"/><use xlink:href="#i" x="47.761" y="11.748"/><use xlink:href="#j" x="55.819" y="11.748"/><use xlink:href="#k" x="-.02" y="25.339"/><use xlink:href="#l" x="-.02" y="29.242"/><use xlink:href="#m" x="-.02" y="40.295"/><use xlink:href="#l" x="-.02" y="44.198"/><use xlink:href="#n" x="-.02" y="48.341"/><use xlink:href="#o" x="12.003" y="27.718"/><use xlink:href="#p" x="19.977" y="30.492"/><use xlink:href="#b" x="28.795" y="27.718"/><use xlink:href="#a" x="41.193" y="27.718"/><use xlink:href="#q" x="47.182" y="27.718"/><use xlink:href="#c" x="53.184" y="27.718"/><use xlink:href="#d" x="58.169" y="27.718"/><use xlink:href="#e" x="63.477" y="27.718"/><use xlink:href="#r" x="70.112" y="27.718"/><use xlink:href="#g" x="77.667" y="20.867"/><path d="M77.668 24.73h6.324" fill="none" stroke-width=".717" stroke="#000" stroke-miterlimit="10"/><use xlink:href="#h" x="78.331" y="32.245"/><use xlink:href="#s" x="85.188" y="27.718"/><use xlink:href="#b" x="94.848" y="27.718"/><use xlink:href="#c" x="107.257" y="27.718"/><use xlink:href="#d" x="112.243" y="27.718"/><use xlink:href="#e" x="117.551" y="27.718"/><use xlink:href="#h" x="122.209" y="23.486"/><use xlink:href="#r" x="129.698" y="27.718"/><use xlink:href="#g" x="137.242" y="20.867"/><path d="M137.242 24.73h6.324" fill="none" stroke-width=".717" stroke="#000" stroke-miterlimit="10"/><use xlink:href="#h" x="137.905" y="32.245"/><use xlink:href="#s" x="144.763" y="27.718"/><use xlink:href="#j" x="156.085" y="27.718"/><use xlink:href="#o" x="12.003" y="44.575"/><use xlink:href="#t" x="19.977" y="47.349"/><use xlink:href="#b" x="28.857" y="44.575"/><use xlink:href="#a" x="41.255" y="44.575"/><use xlink:href="#q" x="47.244" y="44.575"/><use xlink:href="#e" x="53.246" y="44.575"/><use xlink:href="#u" x="57.896" y="44.575"/><use xlink:href="#v" x="61.411" y="44.575"/><use xlink:href="#r" x="70.043" y="44.575"/><use xlink:href="#g" x="77.598" y="37.724"/><path d="M77.598 41.586h6.324" fill="none" stroke-width=".717" stroke="#000" stroke-miterlimit="10"/><use xlink:href="#h" x="78.261" y="49.102"/><use xlink:href="#s" x="85.119" y="44.575"/><use xlink:href="#b" x="94.779" y="44.575"/><use xlink:href="#c" x="107.188" y="44.575"/><use xlink:href="#d" x="112.174" y="44.575"/><use xlink:href="#e" x="117.482" y="44.575"/><use xlink:href="#f" x="122.132" y="44.575"/><use xlink:href="#g" x="128.404" y="37.724"/><path d="M128.402 41.586h6.328" fill="none" stroke-width=".717" stroke="#000" stroke-miterlimit="10"/><use xlink:href="#h" x="129.067" y="49.102"/><use xlink:href="#i" x="135.925" y="44.575"/><use xlink:href="#q" x="143.648" y="44.575"/><use xlink:href="#e" x="149.65" y="44.575"/><use xlink:href="#u" x="154.3" y="44.575"/><g><use xlink:href="#v" x="157.815" y="44.575"/></g><g><use xlink:href="#r" x="166.459" y="44.575"/></g><g><use xlink:href="#g" x="174.004" y="37.724"/></g><path d="M174.004 41.586h6.324" fill="none" stroke-width=".717" stroke="#000" stroke-miterlimit="10"/><g><use xlink:href="#h" x="174.667" y="49.102"/></g><g><use xlink:href="#s" x="181.525" y="44.575"/></g><g><use xlink:href="#j" x="192.847" y="44.575"/></g></svg>