<svg xmlns:xlink="http://www.w3.org/1999/xlink" width="57ex" height="14.667ex" style="vertical-align:-6.833ex;margin-bottom:1px;margin-top:1px" viewBox="0 -3403.4 24507.9 6306.8" xmlns="http://www.w3.org/2000/svg"><defs><path stroke-width="10" id="a" d="M722 347c0-11-9-20-20-20H76c-11 0-20 9-20 20s9 20 20 20h626c11 0 20-9 20-20zm0-194c0-11-9-20-20-20H76c-11 0-20 9-20 20s9 20 20 20h626c11 0 20-9 20-20z"/><path stroke-width="10" id="b" d="M256-230c0-11-9-20-20-20H114V750h122c11 0 20-9 20-20s-9-20-20-20h-82v-920h82c11 0 20-9 20-20z"/><path stroke-width="10" id="c" d="M419 0c-35 3-122 3-162 3S130 3 95 0v31h32c90 0 93 12 93 48v518c-52-26-111-26-131-26v31c32 0 120 0 182 64 23 0 23-2 23-26V79c0-37 3-48 93-48h32V0z"/><path stroke-width="10" id="d" d="M330 420c0-20-10-20-30-20h-94l-74-295c-4-17-6-24-6-48 0-33 10-46 31-46 34 0 87 24 130 128 5 11 6 14 15 14 4 0 12 0 12-10 0-8-57-154-159-154-54 0-92 38-92 92 0 18 4 35 76 319H51c-20 0-28 0-28 12 0 19 10 19 30 19h94l39 159c9 35 37 36 40 36 17 0 29-10 29-27 0-6-5-26-41-168h88c18 0 28 0 28-11z"/><path stroke-width="10" id="e" d="M449 174L421 0H50c0 24 0 26 11 37l192 214c55 62 105 141 105 221 0 82-43 163-134 163-58 0-112-37-135-102 3 1 5 1 13 1 35 0 53-26 53-52 0-41-35-53-52-53-3 0-53 0-53 56 0 89 74 181 187 181 122 0 212-80 212-194 0-100-60-154-216-292L127 77h180c22 0 88 0 95 8 10 15 17 59 22 89h25z"/><path stroke-width="10" id="f" d="M457 171c0-102-91-193-213-193C135-22 42 44 42 135c0 44 32 58 56 58 29 0 56-20 56-56 0-38-31-60-66-55C123 23 198 6 241 6c44 0 113 29 113 165 0 98-37 166-119 166h-44c-17 0-24 0-24 11 0 10 7 11 15 12 7 0 31 2 39 3 25 1 59 4 89 52 26 44 28 102 28 114 0 90-55 112-96 112-36 0-102-13-133-62 15 0 62 0 62-50 0-29-20-51-51-51-29 0-51 19-51 52 0 76 76 136 177 136 96 0 184-56 184-138 0-79-58-149-140-176 104-21 167-99 167-181z"/><path stroke-width="10" id="g" d="M164-250H42c-11 0-20 9-20 20s9 20 20 20h82v920H42c-11 0-20 9-20 20s9 20 20 20h122V-250z"/><path stroke-width="10" id="h" d="M192 250c0-29-24-53-53-53s-53 24-53 53 24 53 53 53 53-24 53-53z"/><path stroke-width="10" id="m" d="M460 320c0-79-5-157-37-226C379-1 303-22 249-22 200-22 127-2 84 79c-41 76-45 166-45 241 0 80 5 158 37 227 41 93 114 119 174 119 42 0 124-16 170-112 35-74 40-154 40-234zm-83 12c0 63 0 139-10 195-19 99-85 117-118 117-25 0-100-9-119-128-8-54-8-120-8-184 0-59 0-151 11-211C151 25 210 0 249 0c45 0 102 30 117 125 11 64 11 132 11 207z"/><path stroke-width="10" id="l" d="M722 250c0-11-9-20-20-20H76c-11 0-20 9-20 20s9 20 20 20h626c11 0 20-9 20-20z"/><path stroke-width="10" id="n" d="M457 204c0-132-95-226-206-226-93 0-209 71-209 338 0 221 135 350 263 350 83 0 127-48 127-108 0-39-30-48-46-48-22 0-46 15-46 46 0 45 40 45 55 45-22 34-64 40-88 40-51 0-175-36-175-289v-24c20 48 57 99 125 99 111 0 200-96 200-223zm-90 1c0 49 0 100-18 137-31 62-77 62-93 62-90 0-122-100-122-178 0-18 0-98 18-145 6-15 36-75 99-75 23 0 69 5 99 65 17 36 17 86 17 134z"/><path stroke-width="10" id="i" d="M647 1470c0-17-13-30-30-30H381V0h-60v1500h296c17 0 30-13 30-30z"/><path stroke-width="10" id="k" d="M647 30c0-17-13-30-30-30H321v1500h60V60h236c17 0 30-13 30-30z"/><path stroke-width="10" id="j" d="M381 0h-60v1000h60V0z"/><path stroke-width="10" id="o" d="M346 0h-60v1440H50c-17 0-30 13-30 30s13 30 30 30h296V0z"/><path stroke-width="10" id="q" d="M346 0H50C33 0 20 13 20 30s13 30 30 30h236v1440h60V0z"/><path stroke-width="10" id="p" d="M346 1000V0h-60v1000h60z"/><path stroke-width="10" id="r" d="M754 532c0-112-139-216-281-216H303L241 66c-1-6-3-11-3-17 0-18 28-18 65-18 19 0 28 0 28-11 0-20-13-20-20-20-21 0-43 2-65 2l-64 1L55 0c-3 0-15 0-15 12 0 19 11 19 28 19 79 0 81 8 91 47l134 537c3 12 4 15 4 19 0 11-6 14-22 16-12 1-30 2-43 2-20 0-29 0-29 12 0 19 11 19 30 19h324c131 0 197-74 197-151zm-93 24c0 69-53 96-136 96h-96c-43 0-45-3-54-38l-68-272h141c44 0 104 8 154 53 39 36 59 122 59 161z"/><path stroke-width="10" id="s" d="M722 250c0-11-9-20-20-20H409V-63c0-11-9-20-20-20s-20 9-20 20v293H76c-11 0-20 9-20 20s9 20 20 20h293v293c0 11 9 20 20 20s20-9 20-20V270h293c11 0 20-9 20-20z"/><path stroke-width="10" id="t" d="M459 407c9-34-27-34-40-34H251l18-342c1-15 3-43-30-43-22 0-33 16-36 27-1 4 0 25 1 37l18 321h-83c-21 0-78 0-108-77-4-8-5-12-13-12-12 0-14 10-14 10-2 6 14 54 38 90 32 47 71 47 91 47h280c19 0 40 0 46-24z"/><path stroke-width="10" id="u" d="M471 165H371V78c0-36 2-47 76-47h21V0c-41 3-94 3-136 3s-94 0-135-3v31h21c74 0 76 11 76 47v87H28v31l307 469c8 12 11 12 20 12 16 0 16-6 16-26V196h100v-31zm-171 31v373L56 196h244z"/></defs><g stroke="currentColor" fill="currentColor" stroke-width="0" transform="scale(1 -1)"><use xlink:href="#a"/><g transform="translate(1060)"><use xlink:href="#b"/><g transform="translate(450)"><use xlink:href="#c" x="-11" y="-71"/><use xlink:href="#d" x="1494" y="-71"/><g transform="translate(2860 -71)"><use xlink:href="#d"/><use transform="scale(.707)" xlink:href="#e" x="517" y="513"/></g><g transform="translate(4683 -71)"><use xlink:href="#d"/><use transform="scale(.707)" xlink:href="#f" x="517" y="513"/></g></g><use xlink:href="#g" x="6123"/></g><use xlink:href="#h" x="7689"/><g transform="translate(8194 2850)"><use xlink:href="#i" y="-1510"/><use xlink:href="#j" transform="matrix(1 0 0 2.21569 0 -3707.843)"/><use xlink:href="#k" y="-5190"/></g><g transform="translate(9022)"><use xlink:href="#c" x="391" y="2050"/><g transform="translate(0 650)"><use xlink:href="#l"/><use xlink:href="#f" x="783"/></g><use xlink:href="#f" x="391" y="-750"/><g transform="translate(0 -2150)"><use xlink:href="#l"/><use xlink:href="#c" x="783"/></g></g><g transform="translate(11310)"><use xlink:href="#m" x="391" y="2050"/><use xlink:href="#f" x="391" y="650"/><g transform="translate(0 -750)"><use xlink:href="#l"/><use xlink:href="#n" x="783"/></g><use xlink:href="#f" x="391" y="-2150"/></g><g transform="translate(13598)"><use xlink:href="#m" x="391" y="2050"/><use xlink:href="#m" x="391" y="650"/><use xlink:href="#f" x="391" y="-750"/><g transform="translate(0 -2150)"><use xlink:href="#l"/><use xlink:href="#f" x="783"/></g></g><g transform="translate(15886)"><use xlink:href="#m" y="2050"/><use xlink:href="#m" y="650"/><use xlink:href="#m" y="-750"/><use xlink:href="#c" y="-2150"/></g><g transform="translate(16558 2850)"><use xlink:href="#o" y="-1510"/><use xlink:href="#p" transform="matrix(1 0 0 2.21569 0 -3707.843)"/><use xlink:href="#q" y="-5190"/></g><use xlink:href="#h" x="17453"/><g><g transform="translate(17958 3389)"><use xlink:href="#i" y="-1510"/><use xlink:href="#j" transform="matrix(1 0 0 3.2735 0 -4776.226)"/><use xlink:href="#k" y="-6269"/></g><g transform="translate(20674 2589)"><use xlink:href="#r"/><use transform="scale(.707)" xlink:href="#e" x="914" y="-213"/></g><g transform="translate(18786 892)"><use xlink:href="#r"/><use transform="scale(.707)" xlink:href="#e" x="914" y="-213"/><use xlink:href="#s" x="1326"/><path stroke="none" d="M2451 220h2309v60H2451z"/><g transform="translate(2511 607)"><use transform="scale(.707)" xlink:href="#r"/><use transform="scale(.574)" xlink:href="#f" x="796" y="-252"/><use transform="scale(.707)" xlink:href="#l" x="1156"/><g transform="translate(1371)"><use transform="scale(.707)" xlink:href="#r"/><use transform="scale(.574)" xlink:href="#c" x="796" y="-252"/></g></g><g transform="matrix(.707 0 0 .707 3138 -423)"><use xlink:href="#n"/><use xlink:href="#h" x="505"/><use xlink:href="#t" x="788"/></g></g><g transform="translate(18786 -1045)"><use xlink:href="#r"/><use transform="scale(.707)" xlink:href="#f" x="914" y="-213"/><use xlink:href="#l" x="1326"/><path stroke="none" d="M2451 220h2309v60H2451z"/><g transform="translate(2511 601)"><use transform="scale(.707)" xlink:href="#r"/><use transform="scale(.574)" xlink:href="#u" x="796" y="-263"/><use transform="scale(.707)" xlink:href="#l" x="1156"/><g transform="translate(1371)"><use transform="scale(.707)" xlink:href="#r"/><use transform="scale(.574)" xlink:href="#e" x="796" y="-252"/></g></g><g transform="matrix(.707 0 0 .707 3138 -423)"><use xlink:href="#n"/><use xlink:href="#h" x="505"/><use xlink:href="#t" x="788"/></g></g><g transform="translate(20674 -2690)"><use xlink:href="#r"/><use transform="scale(.707)" xlink:href="#f" x="914" y="-213"/></g><g transform="translate(23834 3389)"><use xlink:href="#o" y="-1510"/><use xlink:href="#p" transform="matrix(1 0 0 3.2735 0 -4776.226)"/><use xlink:href="#q" y="-6269"/></g></g></g></svg>