<svg xmlns="http://www.w3.org/2000/svg" xmlns:xlink="http://www.w3.org/1999/xlink" width="432" height="31pt" viewBox="0 0 324 31"><defs><symbol overflow="visible" id="a"><path d="M.313.031C.671.016 1.046 0 1.405 0c.64 0 1.266.031 1.922.031.563 0 1.125-.125 1.688-.469.953-.546 1.468-1.375 1.468-2.28 0-.516-.156-.907-.484-1.173-.313-.25-.672-.359-1.5-.468.688-.25.969-.391 1.36-.72.53-.484.827-1.03.827-1.64 0-.984-.968-1.547-1.89-1.547-.594 0-1.203.032-1.797.032-.61 0-1.203-.016-1.813-.032l-.03.329.64.03c.281 0 .422.095.422.313 0 .172-.063.547-.11.907L1.063-.657c-.032.22-.188.298-.688.376zm1.671-.515l.61-3.579h1.015c1.235 0 1.829.5 1.829 1.547 0 1.22-.875 2.11-2.063 2.11-.25 0-.594-.016-.984-.047a2.223 2.223 0 0 0-.407-.031zM2.672-4.5l.578-3.266c.328 0 .64-.062.953-.062.969 0 1.453.422 1.453 1.328 0 1.25-.89 2-2.375 2zm0 0"/></symbol><symbol overflow="visible" id="b"><path d="M.172-1.344c0 .922.531 1.469 1.39 1.469.688 0 1.344-.328 2.454-1.219l-.094-.234-.281.203C3-.672 2.42-.437 2-.437c-.578 0-.906-.438-.906-1.172 0-.297.015-.61.093-.954l.97-.234c.202-.047.515-.172.827-.297C4-3.547 4.47-4.094 4.47-4.828c0-.563-.39-.938-1-.938-.781 0-2.078.813-2.563 1.563-.36.594-.734 2.031-.734 2.86zM1.25-2.828l.094-.453c.203-.797.437-1.313.765-1.61.22-.218.61-.375.907-.375.343 0 .562.25.562.625 0 .532-.406 1.094-1.031 1.391-.328.156-.766.297-1.297.422zm.64-3.516h.407l1.937-1.203c.25-.156.329-.266.329-.453 0-.188-.22-.36-.454-.36-.109 0-.25.063-.39.204zm0 0"/></symbol><symbol overflow="visible" id="c"><path d="M-.016-.25l.11.328c.344-.281.672-.39 1.093-.39.297 0 .625.046 1.25.203.72.171 1.094.234 1.407.234.156 0 .25-.016.61-.11.124-.75.218-1.156.359-1.718h-.266l-.266.719c-.078.218-.218.296-.468.296-.266 0-.532-.062-.797-.125-.391-.078-.797-.14-1.032-.14-.375 0-.703.062-1.14.25l4.062-4.563.063-.39-.11-.11-.265.282a.533.533 0 0 1-.407.171c-.406 0-1.03-.109-1.609-.25-.312-.093-.625-.203-.953-.203-.203 0-.438.047-.734.125L.516-4.187h.25l.359-.688c.203-.047.313-.063.469-.063.156 0 .297.016.531.063.406.078.719.125.969.125.437 0 .719-.078 1.11-.281zm0 0"/></symbol><symbol overflow="visible" id="d"><path d="M.406-4.64l.078.234.391-.25c.344-.219.469-.266.578-.266.11 0 .203.11.203.25 0 .094-.047.344-.11.531l-.78 2.86c-.11.39-.157.687-.157.922 0 .28.125.468.36.468.312 0 .75-.265 1.906-1.125l-.11-.218-.312.203c-.36.25-.61.36-.734.36-.078 0-.157-.11-.157-.235 0-.125.016-.219.094-.485l.907-3.625c.062-.203.078-.328.078-.437 0-.203-.094-.313-.297-.313-.266 0-.688.25-1.61.891zm1.656-2.563c0 .297.172.484.47.484.374 0 .64-.343.64-.797 0-.296-.172-.5-.422-.5-.36 0-.688.407-.688.813zm0 0"/></symbol><symbol overflow="visible" id="e"><path d="M.172-1.344c0 .922.531 1.469 1.39 1.469.688 0 1.344-.328 2.454-1.219l-.094-.234-.281.203C3-.672 2.42-.437 2-.437c-.578 0-.906-.438-.906-1.172 0-.297.015-.61.093-.954l.97-.234c.202-.047.515-.172.827-.297C4-3.547 4.47-4.094 4.47-4.828c0-.563-.39-.938-1-.938-.781 0-2.078.813-2.563 1.563-.36.594-.734 2.031-.734 2.86zM1.25-2.828l.094-.453c.203-.797.437-1.313.765-1.61.22-.218.61-.375.907-.375.343 0 .562.25.562.625 0 .532-.406 1.094-1.031 1.391-.328.156-.766.297-1.297.422zm0 0"/></symbol><symbol overflow="visible" id="f"><path d="M.313-4.64l.078.234.39-.25c.328-.203.469-.266.563-.266.125 0 .203.11.203.266 0 .687-.5 3.156-.984 4.687L.688.11c.25-.078.515-.14.796-.187L1.797-1.5c.219-1 .484-1.625 1.016-2.313.406-.53.718-.78.984-.78.187 0 .297.062.437.234h.172c.032-.454.094-.844.188-1.329-.14-.062-.188-.078-.25-.078-.36 0-.735.297-1.172.907-.406.578-.813 1.156-1.11 1.796l.297-1.5c.063-.265.157-.546.157-.812 0-.25-.094-.39-.282-.39-.25 0-.703.25-1.593.89zm0 0"/></symbol><symbol overflow="visible" id="g"><path d="M4.11-7.61a.735.735 0 0 1-.188-.14c-.063-.063-.11-.11-.14-.188-1.47 1.47-2.345 3.032-2.345 4.563v.781c0 1.516.875 3.078 2.344 4.547a.735.735 0 0 1 .14-.187.735.735 0 0 1 .188-.141C2.781.281 2.156-1.203 2.156-2.594v-.781c0-1.39.625-2.89 1.953-4.234zm0 0"/></symbol><symbol overflow="visible" id="h"><path d="M6.14-1.016l-.109-.218-.312.203c-.36.234-.61.36-.735.36-.078 0-.156-.11-.156-.235 0-.063.016-.188.031-.235l.782-3.312a4.47 4.47 0 0 0 .125-.875c0-.281-.125-.438-.36-.438-.5 0-1.328.454-2.031 1.11-.453.422-.797.828-1.422 1.703l.469-1.922c.047-.219.062-.36.062-.484 0-.266-.093-.407-.265-.407-.266 0-.719.266-1.594.891l-.344.234.094.235.375-.25c.438-.282.484-.297.563-.297.14 0 .218.125.218.297 0 .61-.484 2.922-.984 4.625l.094.14c.296-.078.562-.156.828-.203.234-1.515.484-2.281 1.031-3.11.656-1 1.547-1.75 2.078-1.75.125 0 .203.11.203.298 0 .203-.031.453-.125.843L4.031-1.28c-.11.437-.156.718-.156.906 0 .297.125.484.36.484.312 0 .734-.25 1.906-1.125zm0 0"/></symbol><symbol overflow="visible" id="i"><path d="M2.61-1.297l-.172-.172c-.329.11-.532.172-1.172.36C1.187-.203.89.578.187 1.719l.172.14.485-.234c.969-1.25 1.422-2 1.765-2.922zm0 0"/></symbol><symbol overflow="visible" id="j"><path d="M3.703-5.266c-.453.047-.86.079-1.312.079.187-1.125.328-1.704.53-2.36l-.124-.172c-.235.14-.563.282-.938.422l-.296 2.031c-.516.25-.829.391-1.047.454l-.032.156H1.5L.828-1.281c-.062.297-.156.593-.156.906 0 .297.125.484.36.484.421 0 .827-.234 1.765-1 .219-.156.14-.109.375-.296l-.125-.22-.531.376c-.36.25-.594.36-.735.36-.093 0-.156-.095-.156-.235 0-.313.14-1.25.516-3.016l.156-.734h1.281zm0 0"/></symbol><symbol overflow="visible" id="k"><path d="M3.64-2.594v-.781c0-1.531-.874-3.094-2.343-4.563-.047.079-.094.125-.156.188a.427.427 0 0 1-.188.14c1.328 1.344 1.969 2.844 1.969 4.235v.781c0 1.39-.64 2.875-1.969 4.219.078.031.14.078.188.14.062.063.109.126.156.188C2.766.484 3.64-1.078 3.64-2.594zm0 0"/></symbol><symbol overflow="visible" id="l"><path d="M8.125-3.938c-.016-.124-.031-.25-.031-.359 0-.125.015-.25.031-.36H.953c.031.11.031.235.031.36 0 .11 0 .234-.03.36zm0 2.626c-.016-.125-.031-.235-.031-.36s.015-.234.031-.36H.953a1.4 1.4 0 0 1 .031.36c0 .125 0 .234-.03.36zm0 0"/></symbol><symbol overflow="visible" id="n"><path d="M13.938 2.61h-.485l-.078.796c-.094.922-.297 1-3.766 1H2.297l5.187-7.812-4.812-7.578h6.015c3.344 0 3.72.109 3.766.656l.078 1h.485c-.032-.516-.047-.766-.047-1.14 0-.36.015-.61.047-1.141l-8.844.046-3.156-.046-.063.406 5.328 8.406L.953 5.234v.391l7.203-.047 5.703.047c0-1.203 0-2.266.079-3.016zm0 0"/></symbol><symbol overflow="visible" id="r"><path d="M8.36-4.594c0-.672-.313-1.172-.75-1.172a.545.545 0 0 0-.391.141l-.594.563.125.234a.55.55 0 0 1 .328-.11c.328 0 .516.282.516.75 0 1.735-1.157 3.72-2.172 3.72-.36 0-.61-.47-.61-1.141a8.2 8.2 0 0 1 .25-1.86l.625-2.203-.078-.094-.89.266-.344 1.781a5.727 5.727 0 0 1-.656 1.86C3.234-.953 2.78-.47 2.422-.47c-.406 0-.688-.469-.688-1.156 0-1.422.485-2.578 1.672-3.922l-.125-.219c-.234.11-.39.141-.719.141-.5 0-.984-.047-1.468-.078-.157-.016-.25.031-.39.078-.173.328-.298.766-.454 1.422h.266l.203-.5c.078-.203.328-.344.61-.344.218 0 .437.031.671.031.25 0 .406-.015.703-.046-.11.156-.234.28-.36.421C1.267-3.375.86-2.516.86-1.5c0 .969.422 1.625 1.047 1.625.766 0 1.39-.656 2.282-2.36-.11.532-.141.829-.141 1.094 0 .766.344 1.266.875 1.266.969 0 2.219-1.203 2.969-2.844.265-.594.468-1.39.468-1.875zm0 0"/></symbol><symbol overflow="visible" id="s"><path d="M6.688-6.719c0-.984-.97-1.547-1.891-1.547-.594 0-1.203.032-1.797.032l-1.813-.032-.03.329.64.03c.281 0 .422.095.422.313 0 .172-.063.547-.11.907L1.063-.657c-.032.22-.188.298-.688.376L.312.03C.672.016 1.047 0 1.407 0c.64 0 1.266.031 1.922.031.563 0 1.125-.125 1.688-.469.953-.546 1.468-1.375 1.468-2.28 0-.516-.156-.907-.484-1.173-.313-.25-.672-.359-1.5-.468.688-.25.969-.391 1.36-.72.53-.484.827-1.03.827-1.64zm-1.25 4.203c0 1.22-.875 2.11-2.063 2.11-.25 0-.594-.016-.984-.047a2.223 2.223 0 0 0-.407-.031l.61-3.579h1.015c1.235 0 1.829.5 1.829 1.547zM5.655-6.5c0 1.25-.89 2-2.375 2h-.61l.579-3.266c.328 0 .64-.062.953-.062.969 0 1.453.422 1.453 1.328zm0 0"/></symbol><symbol overflow="visible" id="t"><path d="M5.625-1.016l-.11-.218-.312.203c-.344.234-.61.36-.734.36-.078 0-.157-.11-.157-.235 0-.125.016-.219.094-.485l.75-3.062c.078-.297.14-.672.14-.875 0-.266-.14-.438-.343-.438-.406 0-1.14.407-1.89 1.032-.422.343-.61.578-1.172 1.265l-.235.297 1.172-5.453-.156-.14c-.61.312-1.047.421-1.906.5l-.047.25h.578c.281 0 .406.093.406.296 0 .094-.016.203-.031.282l-.5 2.796C.844-2.828.375-.78.125-.03l.078.14.828-.187c.188-1.375.39-2.11.735-2.75.53-.969 1.765-2.125 2.28-2.125.157 0 .25.11.25.266 0 .218-.062.671-.171 1.062l-.61 2.344c-.109.437-.156.703-.156.922 0 .28.125.468.36.468.312 0 .734-.25 1.906-1.125zm0 0"/></symbol><symbol overflow="visible" id="u"><path d="M4.469-4.828c0-.563-.39-.938-1-.938-.781 0-2.078.813-2.563 1.563-.36.594-.734 2.031-.734 2.86 0 .921.531 1.468 1.39 1.468.688 0 1.344-.328 2.454-1.219l-.094-.234-.281.203C3-.672 2.42-.437 2-.437c-.578 0-.906-.438-.906-1.172 0-.297.015-.61.093-.954l.97-.234c.202-.047.515-.172.827-.297C4-3.547 4.47-4.094 4.47-4.828zm-.89.187c0 .532-.407 1.094-1.032 1.391-.328.156-.766.297-1.297.422l.094-.453c.203-.797.437-1.313.765-1.61.22-.218.61-.375.907-.375.343 0 .562.25.562.625zm0 0"/></symbol><symbol overflow="visible" id="v"><path d="M4.594-5.688c-.14-.062-.188-.078-.25-.078-.36 0-.735.297-1.172.907-.406.578-.813 1.156-1.11 1.796l.297-1.5c.063-.265.157-.546.157-.812 0-.25-.094-.39-.282-.39-.25 0-.703.25-1.593.89l-.329.234.079.235.39-.25c.328-.203.469-.266.563-.266.125 0 .203.11.203.266 0 .687-.5 3.156-.984 4.687L.688.11c.25-.078.515-.14.796-.187L1.797-1.5c.219-1 .484-1.625 1.016-2.313.406-.53.718-.78.984-.78.187 0 .297.062.437.234h.172c.032-.454.094-.844.188-1.329zm0 0"/></symbol><symbol overflow="visible" id="w"><path d="M2.39-2.984c0-.438-.28-.72-.718-.72-.422 0-.719.282-.719.72 0 .421.297.718.719.718.437 0 .719-.296.719-.718zm0 0"/></symbol><symbol overflow="visible" id="x"><path d="M6.969-17.094c-.078-.031-.125-.078-.188-.14a.735.735 0 0 1-.14-.188c-3.063 3.047-4.938 7.219-4.938 12.063v4.75c0 4.828 1.875 9 4.938 12.062a.427.427 0 0 1 .14-.187c.063-.063.11-.11.188-.157C4.047 8.172 2.672 4.031 2.672-.609v-4.75c0-4.641 1.375-8.797 4.297-11.735zm0 0"/></symbol><symbol overflow="visible" id="y"><path d="M2.875-1.016l-.11-.218-.312.203c-.36.25-.61.36-.734.36-.078 0-.157-.11-.157-.235 0-.125.016-.219.094-.485l.907-3.625c.062-.203.078-.328.078-.437 0-.203-.094-.313-.297-.313-.266 0-.688.25-1.61.891l-.328.234.078.235.391-.25c.344-.219.469-.266.578-.266.11 0 .203.11.203.25 0 .094-.047.344-.11.531l-.78 2.86c-.11.39-.157.687-.157.922 0 .28.125.468.36.468.312 0 .75-.265 1.906-1.125zm.297-6.5c0-.296-.172-.5-.422-.5-.36 0-.688.407-.688.813 0 .297.172.484.47.484.374 0 .64-.343.64-.797zm0 0"/></symbol><symbol overflow="visible" id="z"><path d="M6.406-.61v-4.75c0-4.843-1.86-9.015-4.922-12.062a.735.735 0 0 1-.14.188.595.595 0 0 1-.203.14C4.094-14.156 5.453-10 5.453-5.359v4.75c0 4.64-1.36 8.78-4.312 11.718.078.047.14.094.203.157.062.046.11.109.14.187C4.547 8.391 6.406 4.22 6.406-.609zm0 0"/></symbol><symbol overflow="visible" id="A"><path d="M5 .031v-.36l-.625-.03c-.656-.032-.781-.172-.781-.782v-7.093l-.156-.063c-.782.406-1.626.766-2.72 1.156l.079.5h.125l1.547-.687.031-.016c.063 0 .094.11.094.407v5.796c0 .61-.125.75-.781.782l-.672.03v.36L3.125 0zm0 0"/></symbol><symbol overflow="visible" id="B"><path d="M8.125-2.625c-.016-.125-.031-.25-.031-.36 0-.124.015-.25.031-.359H.953c.031.11.031.235.031.36 0 .109 0 .234-.03.359zm0 0"/></symbol><symbol overflow="visible" id="m"><path d="M5.047-.75l-.11-.156-.234.14c-.297.172-.5.266-.594.266-.062 0-.125-.078-.125-.172 0-.047 0-.14.016-.172l.64-2.453c.063-.25.094-.5.094-.64 0-.204-.093-.329-.28-.329-.407 0-1.079.344-1.657.829-.36.312-.625.609-1.125 1.25l.36-1.422c.046-.157.062-.266.062-.36 0-.187-.078-.297-.219-.297-.203 0-.578.204-1.281.657l-.281.171.078.188.312-.188c.344-.218.375-.218.453-.218.094 0 .172.078.172.219 0 .453-.406 2.156-.797 3.421l.063.094c.25-.062.469-.11.687-.156.172-1.11.39-1.688.828-2.297.532-.734 1.235-1.281 1.672-1.281.094 0 .156.078.156.203 0 .156-.015.344-.093.625L3.328-.953c-.078.328-.125.531-.125.672 0 .234.11.36.297.36.25 0 .594-.188 1.547-.829zm0 0"/></symbol><symbol overflow="visible" id="o"><path d="M2.422-.75l-.11-.156-.25.14c-.28.188-.484.266-.578.266-.078 0-.125-.078-.125-.172 0-.094 0-.156.063-.36l.734-2.687a.983.983 0 0 0 .063-.312c0-.157-.078-.235-.235-.235-.218 0-.562.188-1.296.657l-.266.171.062.188.313-.188c.265-.171.375-.203.453-.203.11 0 .172.079.172.188 0 .062-.047.25-.078.39l-.64 2.11c-.079.297-.126.515-.126.687 0 .22.11.344.281.344.266 0 .625-.187 1.563-.828zm.234-4.813c0-.218-.14-.359-.344-.359-.296 0-.562.281-.562.594 0 .219.14.36.375.36.313 0 .531-.266.531-.595zm0 0"/></symbol><symbol overflow="visible" id="p"><path d="M6.016-2.922a1.376 1.376 0 0 1-.032-.265c0-.079.016-.172.032-.266H.703c.016.094.031.187.031.265 0 .094-.015.188-.03.266zm0 1.953c-.016-.094-.032-.187-.032-.265 0-.094.016-.188.032-.266H.703c.016.078.031.172.031.266 0 .078-.015.171-.03.265zm0 0"/></symbol><symbol overflow="visible" id="q"><path d="M4.578-3.234c0-1.938-.64-2.86-1.953-2.86-1.5 0-2.25 1.094-2.25 3.235C.375-1.83.563-.938.906-.5c.344.422.875.672 1.469.672 1.469 0 2.203-1.14 2.203-3.406zm-.812.437c0 1.89-.375 2.672-1.25 2.672-.938 0-1.344-.906-1.344-3.063 0-1.859.36-2.593 1.281-2.593.938 0 1.313.86 1.313 2.984zm0 0"/></symbol><symbol overflow="visible" id="C"><path d="M6.016-1.953a1.368 1.368 0 0 1-.032-.25c0-.094.016-.188.032-.266H.703c.016.078.031.172.031.266 0 .078-.015.172-.03.25zm0 0"/></symbol></defs><use xlink:href="#a" x=".072" y="17.454"/><use xlink:href="#b" x="7.377" y="17.454"/><use xlink:href="#c" x="12.027" y="17.454"/><use xlink:href="#d" x="17.335" y="17.454"/><use xlink:href="#e" x="20.659" y="17.454"/><use xlink:href="#f" x="25.309" y="17.454"/><use xlink:href="#g" x="29.96" y="17.454"/><use xlink:href="#h" x="35.029" y="17.454"/><use xlink:href="#i" x="41.676" y="17.454"/><use xlink:href="#j" x="46.649" y="17.454"/><use xlink:href="#k" x="50.69" y="17.454"/><use xlink:href="#l" x="59.083" y="17.454"/><use xlink:href="#m" x="76.175" y="4.331"/><use xlink:href="#n" x="71.496" y="17.454"/><use xlink:href="#o" x="71.632" y="30.615"/><use xlink:href="#p" x="74.525" y="30.615"/><use xlink:href="#q" x="81.248" y="30.615"/><use xlink:href="#r" x="88.384" y="17.454"/><use xlink:href="#o" x="97.016" y="20.228"/><use xlink:href="#s" x="100.416" y="17.454"/><use xlink:href="#m" x="107.721" y="13.221"/><use xlink:href="#o" x="107.721" y="21.141"/><use xlink:href="#g" x="113.757" y="17.454"/><use xlink:href="#j" x="118.826" y="17.454"/><use xlink:href="#k" x="122.855" y="17.454"/><use xlink:href="#i" x="127.924" y="17.454"/><use xlink:href="#r" x="132.909" y="17.454"/><use xlink:href="#t" x="141.601" y="17.454"/><use xlink:href="#u" x="147.578" y="17.454"/><use xlink:href="#v" x="152.384" y="17.454"/><use xlink:href="#u" x="157.31" y="17.454"/><use xlink:href="#s" x="162.116" y="17.454"/><use xlink:href="#m" x="169.428" y="13.221"/><use xlink:href="#o" x="169.428" y="21.141"/><use xlink:href="#g" x="175.465" y="17.454"/><use xlink:href="#j" x="180.534" y="17.454"/><use xlink:href="#k" x="184.563" y="17.454"/><use xlink:href="#l" x="192.955" y="17.454"/><use xlink:href="#r" x="205.365" y="17.454"/><use xlink:href="#o" x="214.003" y="20.228"/><use xlink:href="#w" x="220.06" y="17.454"/><use xlink:href="#x" x="226.062" y="17.454"/><g><use xlink:href="#h" x="234.182" y="8.845"/></g><g><use xlink:href="#y" x="235.748" y="25.417"/></g><g><use xlink:href="#z" x="240.829" y="17.454"/></g><g><use xlink:href="#w" x="251.601" y="17.454"/></g><g><use xlink:href="#g" x="257.602" y="17.454"/><use xlink:href="#A" x="262.671" y="17.454"/></g><g><use xlink:href="#B" x="271.303" y="17.454"/></g><g><use xlink:href="#j" x="283.055" y="17.454"/></g><g><use xlink:href="#k" x="287.096" y="17.454"/></g><g><use xlink:href="#m" x="292.164" y="13.221"/><use xlink:href="#C" x="297.702" y="13.221"/><use xlink:href="#o" x="304.426" y="13.221"/></g><g><use xlink:href="#w" x="310.483" y="17.454"/></g><g><use xlink:href="#j" x="316.485" y="17.454"/></g><g><use xlink:href="#o" x="320.528" y="13.221"/></g></svg>