<svg xmlns:xlink="http://www.w3.org/1999/xlink" width="63.667ex" height="2.5ex" style="vertical-align: -0.667ex; margin-left: 0ex; margin-right: 0ex; margin-bottom: 1px; margin-top: 1px;" viewBox="0 -792.9 27397.6 1085.9" xmlns="http://www.w3.org/2000/svg">
<defs>
<path stroke-width="10" id="E1-LATINMODERNNORMAL-1D446" d="M645 695l-54 -219c-4 -17 -5 -20 -15 -20c-12 0 -12 10 -12 10c0 6 4 24 4 56c0 112 -61 155 -144 155c-95 0 -175 -85 -175 -166c0 -53 34 -82 61 -91l67 -18c89 -23 104 -27 127 -50c15 -14 49 -48 49 -117c0 -124 -118 -257 -254 -257c-58 0 -126 14 -169 72l-49 -57 c-12 -14 -13 -15 -18 -15c-6 0 -11 4 -11 10c0 3 56 231 60 235c3 3 5 4 10 4s12 -1 12 -11c0 0 -1 -3 -2 -7c-1 -6 -6 -30 -6 -54c0 -124 111 -146 175 -146c98 0 180 94 180 184c0 82 -55 97 -92 106l-107 28c-51 15 -104 61 -104 142c0 121 120 236 247 236 c65 0 117 -25 143 -72l48 57c12 14 13 15 18 15c9 0 11 -7 11 -10Z"></path>
<path stroke-width="10" id="E1-LATINMODERNMAIN-3D" d="M722 347c0 -11 -9 -20 -20 -20h-626c-11 0 -20 9 -20 20s9 20 20 20h626c11 0 20 -9 20 -20zM722 153c0 -11 -9 -20 -20 -20h-626c-11 0 -20 9 -20 20s9 20 20 20h626c11 0 20 -9 20 -20Z"></path>
<path stroke-width="10" id="E1-LATINMODERNMAIN-28" d="M332 -238c0 -5 -5 -10 -10 -10c-2 0 -4 1 -6 2c-110 83 -215 283 -215 454v84c0 171 105 371 215 454c2 1 4 2 6 2c5 0 10 -5 10 -10c0 -3 -2 -6 -4 -8c-104 -78 -173 -278 -173 -438v-84c0 -160 69 -360 173 -438c2 -2 4 -5 4 -8Z"></path>
<path stroke-width="10" id="E1-LATINMODERNMAIN-31" d="M419 0c-35 3 -122 3 -162 3s-127 0 -162 -3v31h32c90 0 93 12 93 48v518c-52 -26 -111 -26 -131 -26v31c32 0 120 0 182 64c23 0 23 -2 23 -26v-561c0 -37 3 -48 93 -48h32v-31Z"></path>
<path stroke-width="10" id="E1-LATINMODERNMAIN-2C" d="M203 1c0 -117 -80 -194 -91 -194c-5 0 -10 4 -10 11c0 3 0 5 11 16c33 33 68 93 68 167c0 14 -2 15 -2 15s-2 -1 -5 -3c-10 -9 -23 -13 -35 -13c-33 0 -53 26 -53 53c0 28 20 53 53 53c39 0 64 -39 64 -105Z"></path>
<path stroke-width="10" id="E1-LATINMODERNMAIN-30" d="M460 320c0 -79 -5 -157 -37 -226c-44 -95 -120 -116 -174 -116c-49 0 -122 20 -165 101c-41 76 -45 166 -45 241c0 80 5 158 37 227c41 93 114 119 174 119c42 0 124 -16 170 -112c35 -74 40 -154 40 -234zM377 332c0 63 0 139 -10 195c-19 99 -85 117 -118 117 c-25 0 -100 -9 -119 -128c-8 -54 -8 -120 -8 -184c0 -59 0 -151 11 -211c18 -96 77 -121 116 -121c45 0 102 30 117 125c11 64 11 132 11 207Z"></path>
<path stroke-width="10" id="E1-LATINMODERNMAIN-29" d="M288 208c0 -171 -105 -371 -215 -454c-2 -1 -4 -2 -6 -2c-5 0 -10 5 -10 10c0 3 2 6 4 8c104 78 173 278 173 438v84c0 160 -69 360 -173 438c-2 2 -4 5 -4 8c0 5 5 10 10 10c2 0 4 -1 6 -2c110 -83 215 -283 215 -454v-84Z"></path>
<path stroke-width="10" id="E1-LATINMODERNNORMAL-1D436" d="M760 695l-63 -255c-5 -18 -5 -20 -18 -20c-4 0 -15 0 -15 10s3 11 3 51c0 116 -59 193 -161 193c-89 0 -183 -50 -244 -121c-100 -117 -121 -279 -121 -336c0 -156 106 -208 196 -208c52 0 115 17 184 73c69 58 92 129 101 158c2 8 7 10 13 10c0 0 12 0 12 -10 c0 -3 -17 -94 -110 -176c-53 -46 -129 -86 -216 -86c-153 0 -271 109 -271 274c0 232 225 453 448 453c111 0 157 -75 166 -89l70 77c11 11 12 12 15 12c9 0 11 -7 11 -10Z"></path>
<path stroke-width="10" id="E1-LATINMODERNMAIN-2E" d="M192 53c0 -29 -24 -53 -53 -53s-53 24 -53 53s24 53 53 53s53 -24 53 -53Z"></path>
<path stroke-width="10" id="E1-LATINMODERNMAIN-35" d="M449 201c0 -127 -102 -223 -218 -223c-112 0 -181 97 -181 183c0 46 35 53 49 53c33 0 50 -25 50 -49s-17 -49 -50 -49c-11 0 -14 1 -17 2c17 -59 74 -112 147 -112c46 0 83 26 107 65c24 42 24 102 24 137c0 50 -2 89 -18 126c-8 18 -33 64 -85 64 c-81 0 -118 -54 -129 -70c-4 -6 -6 -9 -13 -9c-14 0 -14 8 -14 26v296c0 16 0 24 10 24c0 0 4 0 12 -3c47 -21 93 -28 133 -28c67 0 116 20 136 29c5 3 8 3 8 3c7 0 10 -5 10 -11c0 -13 -70 -104 -193 -104c-32 0 -65 7 -85 13v-195c36 35 79 51 127 51 c108 0 190 -100 190 -219Z"></path>
<path stroke-width="10" id="E1-LATINMODERNMAIN-32" d="M449 174l-28 -174h-371c0 24 0 26 11 37l192 214c55 62 105 141 105 221c0 82 -43 163 -134 163c-58 0 -112 -37 -135 -102c3 1 5 1 13 1c35 0 53 -26 53 -52c0 -41 -35 -53 -52 -53c-3 0 -53 0 -53 56c0 89 74 181 187 181c122 0 212 -80 212 -194 c0 -100 -60 -154 -216 -292l-106 -103h180c22 0 88 0 95 8c10 15 17 59 22 89h25Z"></path>
<path stroke-width="10" id="E1-LATINMODERNMAIN-38" d="M457 168c0 -107 -95 -190 -208 -190c-105 0 -207 67 -207 173c0 99 86 155 144 184c-25 17 -62 42 -73 54c-42 47 -44 92 -44 110c0 93 81 167 181 167c91 0 180 -57 180 -149c0 -66 -49 -118 -121 -155c64 -40 80 -50 99 -71c38 -42 49 -87 49 -123zM386 517 c0 72 -64 124 -137 124c-71 0 -136 -42 -136 -103c0 -17 4 -51 50 -81l124 -80c60 35 99 83 99 140zM407 132c0 61 -47 91 -75 110l-123 78c-85 -47 -117 -111 -117 -169c0 -83 72 -145 158 -145c82 0 157 52 157 126Z"></path>
<path stroke-width="10" id="E1-LATINMODERNNORMAL-1D438" d="M763 653l-20 -173c-2 -19 -3 -25 -14 -25c-9 0 -12 7 -12 12s1 12 1 18c4 27 4 29 4 53c0 82 -30 111 -152 111h-141c-44 0 -45 -4 -54 -39l-60 -241h94c92 0 110 23 131 99c3 12 5 18 14 18c7 0 12 -5 12 -11l-57 -234c-4 -15 -7 -20 -15 -20c-9 0 -13 6 -13 11 c0 3 1 6 3 11c7 30 7 42 7 49c0 25 0 46 -85 46h-99l-68 -273c-5 -18 -5 -20 -5 -23c0 -8 3 -9 13 -10c6 -1 8 -1 22 -1h146c171 0 208 67 273 215c2 6 4 12 13 12c12 0 12 -11 12 -11s-3 -9 -5 -14l-92 -216c-7 -16 -8 -17 -31 -17h-519c-19 0 -28 0 -28 12 c0 19 11 19 28 19c79 0 81 8 91 47l132 529c5 18 5 20 5 24c0 18 -28 18 -65 18c-19 0 -28 0 -28 11c0 20 10 20 30 20h505c25 0 30 0 27 -27Z"></path>
</defs>
<g stroke="currentColor" fill="currentColor" stroke-width="0" transform="matrix(1 0 0 -1 0 0)">
<g transform="translate(167,0)">
<g transform="translate(-11,0)">
<g transform="translate(0,-21)">
 <use xlink:href="#E1-LATINMODERNNORMAL-1D446" x="0" y="0"></use>
 <use xlink:href="#E1-LATINMODERNMAIN-3D" x="927" y="0"></use>
 <use xlink:href="#E1-LATINMODERNMAIN-28" x="1988" y="0"></use>
 <use xlink:href="#E1-LATINMODERNMAIN-31" x="2382" y="0"></use>
 <use xlink:href="#E1-LATINMODERNMAIN-2C" x="2887" y="0"></use>
 <use xlink:href="#E1-LATINMODERNMAIN-30" x="3337" y="0"></use>
 <use xlink:href="#E1-LATINMODERNMAIN-29" x="3842" y="0"></use>
 <use xlink:href="#E1-LATINMODERNMAIN-2C" x="4568" y="0"></use>
<g transform="translate(5349,0)">
 <use xlink:href="#E1-LATINMODERNNORMAL-1D436" x="0" y="0"></use>
 <use transform="scale(0.707)" xlink:href="#E1-LATINMODERNMAIN-31" x="1018" y="-213"></use>
</g>
 <use xlink:href="#E1-LATINMODERNMAIN-3D" x="6804" y="0"></use>
 <use xlink:href="#E1-LATINMODERNMAIN-28" x="7865" y="0"></use>
 <use xlink:href="#E1-LATINMODERNMAIN-31" x="8259" y="0"></use>
 <use xlink:href="#E1-LATINMODERNMAIN-2C" x="8764" y="0"></use>
<g transform="translate(9214,0)">
 <use xlink:href="#E1-LATINMODERNMAIN-30"></use>
 <use xlink:href="#E1-LATINMODERNMAIN-2E" x="505" y="0"></use>
 <use xlink:href="#E1-LATINMODERNMAIN-35" x="788" y="0"></use>
 <use xlink:href="#E1-LATINMODERNMAIN-35" x="1293" y="0"></use>
 <use xlink:href="#E1-LATINMODERNMAIN-32" x="1798" y="0"></use>
 <use xlink:href="#E1-LATINMODERNMAIN-32" x="2303" y="0"></use>
 <use xlink:href="#E1-LATINMODERNMAIN-38" x="2808" y="0"></use>
</g>
 <use xlink:href="#E1-LATINMODERNMAIN-29" x="12527" y="0"></use>
 <use xlink:href="#E1-LATINMODERNMAIN-2C" x="13253" y="0"></use>
<g transform="translate(14034,0)">
 <use xlink:href="#E1-LATINMODERNNORMAL-1D436" x="0" y="0"></use>
 <use transform="scale(0.707)" xlink:href="#E1-LATINMODERNMAIN-32" x="1018" y="-213"></use>
</g>
 <use xlink:href="#E1-LATINMODERNMAIN-3D" x="15489" y="0"></use>
 <use xlink:href="#E1-LATINMODERNMAIN-28" x="16550" y="0"></use>
<g transform="translate(16944,0)">
 <use xlink:href="#E1-LATINMODERNMAIN-30"></use>
 <use xlink:href="#E1-LATINMODERNMAIN-2E" x="505" y="0"></use>
 <use xlink:href="#E1-LATINMODERNMAIN-35" x="788" y="0"></use>
 <use xlink:href="#E1-LATINMODERNMAIN-35" x="1293" y="0"></use>
 <use xlink:href="#E1-LATINMODERNMAIN-32" x="1798" y="0"></use>
 <use xlink:href="#E1-LATINMODERNMAIN-32" x="2303" y="0"></use>
 <use xlink:href="#E1-LATINMODERNMAIN-38" x="2808" y="0"></use>
</g>
 <use xlink:href="#E1-LATINMODERNMAIN-2C" x="20257" y="0"></use>
 <use xlink:href="#E1-LATINMODERNMAIN-31" x="20707" y="0"></use>
 <use xlink:href="#E1-LATINMODERNMAIN-29" x="21212" y="0"></use>
 <use xlink:href="#E1-LATINMODERNMAIN-2C" x="21938" y="0"></use>
 <use xlink:href="#E1-LATINMODERNNORMAL-1D438" x="22719" y="0"></use>
 <use xlink:href="#E1-LATINMODERNMAIN-3D" x="23765" y="0"></use>
 <use xlink:href="#E1-LATINMODERNMAIN-28" x="24826" y="0"></use>
 <use xlink:href="#E1-LATINMODERNMAIN-30" x="25220" y="0"></use>
 <use xlink:href="#E1-LATINMODERNMAIN-2C" x="25725" y="0"></use>
 <use xlink:href="#E1-LATINMODERNMAIN-31" x="26175" y="0"></use>
 <use xlink:href="#E1-LATINMODERNMAIN-29" x="26680" y="0"></use>
</g>
</g>
</g>
</g>
</svg>