<svg xmlns="http://www.w3.org/2000/svg" xmlns:xlink="http://www.w3.org/1999/xlink" width="313pt" height="173pt" viewBox="0 0 313 173"><defs><symbol overflow="visible" id="a"><path d="M5.875-8.86l-.219-.187c-.75.375-1.078.438-2.062.531l-.094.5h.75c.281 0 .25-.046.25.157 0 .109 0 .203-.016.296L4.188-5.89a3.109 3.109 0 0 0-.875-.14c-.829 0-2.063.906-2.61 1.937-.375.703-.64 1.938-.64 2.938C.063-.375.374.125.734.125c.313 0 .86-.234 1.266-.563.64-.515 1.031-.984 1.844-2.187l-.25-.094-.266 1.078c-.14.532-.203.907-.203 1.22 0 .25.25.546.453.546.219 0 .594-.203 1-.5l1.047-.766-.266-.468-.656.468c-.172.125-.25.172-.36.172-.093 0-.046.031-.046-.14 0-.094.031-.204.11-.547l1.515-7.157zM4.031-5.03l-.14.703A5.233 5.233 0 0 1 2.375-1.61c-.422.39-.781.64-1.016.64-.187 0-.171-.031-.171-.328 0-1.516.515-3.281 1.109-3.734.156-.125.281-.14.61-.14.53 0 .765.03 1.109.218zm0 0"/></symbol><symbol overflow="visible" id="c"><path d="M10.14-3.219a12.137 12.137 0 0 1-2.093-1.844c-.188.047-.297.047-.438.047-.125 0-.25 0-.671-.093.546.812.937 1.28 1.375 1.734l.109-.234H.782c.062.25.062.375.062.484 0 .125 0 .25-.063.5h7.64l-.108-.234c-.438.437-.829.921-1.376 1.718.422-.078.547-.093.672-.093.141 0 .25.015.438.046.656-.718 1.344-1.312 2.219-1.937zm0 0"/></symbol><symbol overflow="visible" id="g"><path d="M4.203-7.828a.735.735 0 0 1-.187-.14c-.063-.063-.11-.126-.22-.329-1.593 1.61-2.5 3.266-2.5 4.781v.797c0 1.516.907 3.172 2.5 4.781.11-.203.157-.265.22-.328.062-.062.125-.109.312-.203C2.875.063 2.281-1.344 2.281-2.719v-.797c0-1.39.594-2.78 2.047-4.25zm0 0"/></symbol><symbol overflow="visible" id="h"><path d="M8.266-4.078a1.419 1.419 0 0 1-.047-.36c0-.109.015-.234.062-.484h-7.5c.063.25.063.375.063.484 0 .125 0 .235-.063.5h7.5zm0 2.625a1.332 1.332 0 0 1-.047-.36c0-.109.015-.234.062-.484h-7.5c.063.25.063.375.063.485 0 .125 0 .25-.063.5h7.5zm0 0"/></symbol><symbol overflow="visible" id="i"><path d="M5.688-4.5c0-2.625-.907-4-2.547-4C1.297-8.5.203-6.89.203-4c0 1.39.281 2.703.703 3.281.422.594 1.203.953 1.938.953 1.812 0 2.844-1.687 2.844-4.734zm-1.282.594C4.406-1.36 4.094-.437 3-.437c-1.156 0-1.516-1.079-1.516-4 0-2.516.313-3.375 1.438-3.375 1.172 0 1.484 1.03 1.484 3.906zm0 0"/></symbol><symbol overflow="visible" id="l"><path d="M5.125-.094v-.484l-.75-.047c-.656-.031-.64-.031-.64-.656v-7.172l-.313-.125c-.875.469-1.61.781-2.86 1.219l.125.718h.235l1.547-.687.031-.016c.063 0-.047-.015-.047.266v5.797c0 .625.016.625-.64.656L1-.578v.625L3.125 0l2 .047zm0 0"/></symbol><symbol overflow="visible" id="m"><path d="M3.766-2.719v-.797c0-1.515-.907-3.171-2.516-4.78-.11.202-.156.265-.203.327-.063.063-.125.11-.313.203 1.438 1.47 2.032 2.86 2.032 4.25v.797c0 1.375-.594 2.781-2.032 4.25.188.094.25.14.313.203.047.063.094.125.203.329C2.86.452 3.766-1.204 3.766-2.72zm0 0"/></symbol><symbol overflow="visible" id="n"><path d="M8.266-2.766a1.332 1.332 0 0 1-.047-.359c0-.11.015-.234.062-.484h-3.25v-3.266c-.25.063-.375.078-.484.078-.125 0-.25-.016-.5-.078v3.266H.78c.063.25.063.375.063.484 0 .125 0 .25-.063.5h3.266V.641c.25-.063.375-.079.5-.079.11 0 .234.016.484.079v-3.266h3.25zm0 0"/></symbol><symbol overflow="visible" id="x"><path d="M7.766.125a12.446 12.446 0 0 1-.172-2.781 2.191 2.191 0 0 1-.344-.266c-.094-.094-.156-.187-.234-.297l-.235.094a9.267 9.267 0 0 0-.187 1.86l.234-.094-5.39-5.391c-.141.219-.235.313-.313.39-.078.079-.188.157-.39.313l5.39 5.375.11-.219c-.626 0-1.25.063-1.86.172l-.11.235c.11.062.22.156.298.25.093.078.171.172.28.328a12.82 12.82 0 0 1 2.954.203zm0 0"/></symbol><symbol overflow="visible" id="b"><path d="M4.703-2.125c0-.422-.234-.89-.578-1.11a2.69 2.69 0 0 0-.719-.296c.531-.36.875-.875.875-1.39 0-.798-.875-1.454-1.937-1.454-.656 0-1.203.203-1.703.656L.312-4.406h.594l.219-.64c.11-.298.563-.47 1.078-.47.61 0 .969.344.969.907 0 .656-.406 1.078-1.094 1.078-.078 0-.344.203-.344.203l-.265-.094-.125.531.203.141c.39-.172.578-.203.844-.203.796 0 1.093.328 1.093 1.14 0 .907-.421 1.36-1.328 1.36-.437 0-.719-.094-1.015-.344C.906-1 .828-1.094.578-1.75l-.531.188c.234.609.312.937.375 1.468C1.078.11 1.5.172 1.875.172c.766 0 1.75-.422 2.281-1.016.328-.375.547-.86.547-1.281zm0 0"/></symbol><symbol overflow="visible" id="d"><path d="M4.75-.11c-.016-.187-.016-.265-.016-.39s0-.203.032-.547l-3.141.094 1.5-1.469c.938-.922 1.281-1.5 1.281-2.172 0-1.015-.906-1.781-2.14-1.781-.688 0-1.282.219-1.782.703l-.187 1.39h.547l.172-.53c.156-.516.359-.61 1-.61.843 0 1.203.344 1.203 1.094 0 .672-.36 1.234-1.453 2.297L.078-.391v.422L2.406 0l2.36.031zm0 0"/></symbol><symbol overflow="visible" id="e"><path d="M4.281-.11V-.5l-.656-.031c-.531-.031-.484.015-.484-.453v-5.344l-.282-.094c-.625.313-1.312.578-2.375.906l.125.594h.22l1.25-.516h.03c.047 0-.078-.062-.078.157v4.297c0 .468.047.421-.469.453L.86-.5v.531L2.61 0l1.672.031zm0 0"/></symbol><symbol overflow="visible" id="f"><path d="M4.734-3.375c0-1.938-.78-3-2.109-3C1.141-6.375.219-5.141.219-3c0 1.031.234 2.031.578 2.453.344.438 1 .719 1.594.719 1.453 0 2.343-1.281 2.343-3.547zm-1.125.438c0 1.89-.203 2.53-1.093 2.53-.938 0-1.188-.75-1.188-2.921 0-1.86.203-2.469 1.125-2.469.938 0 1.156.734 1.156 2.86zm0 0"/></symbol><symbol overflow="visible" id="o"><path d="M5.016-.828l-.172-.39c-.532.39-.657.437-.813.437-.14 0-.156 0-.234-.156-.047-.079-.14-.454-.172-.72a6.05 6.05 0 0 0-.047-.374c.266-.297.563-.688.719-.89.14-.173.562-.813.64-1-.093-.188-.093-.157-.187-.392-.031-.015-.203-.078-.344-.14-.328.906-.406 1.062-.797 1.578l-.328.438.266.093-.188-1.625c-.078-.406-.484-.562-.687-.562-.219 0-.656.187-1 .468a3.047 3.047 0 0 0-.625.704c-.453.78-.86 1.937-.89 2.64C.14-.422.421.094.64.094c.375 0 .796-.203 1.109-.406.422-.329.875-.72.953-.797.031.593.453 1.203.828 1.203.219 0 .625-.188.953-.438l.563-.437zm-2.329-.985a6.907 6.907 0 0 1-.828.75c-.312.235-.468.282-.64.282-.125 0-.016 0 0-.235.015-.562.218-1.515.578-2.25.14-.296.234-.421.453-.421.281 0 .219.03.25.421l.156 1.5zm0 0"/></symbol><symbol overflow="visible" id="q"><path d="M4.953-.75l-1.61-1.594 1.72-1.719a2.048 2.048 0 0 1-.329-.25c-.062-.062-.109-.125-.265-.328L2.766-2.92l-1.72-1.72c-.124.204-.187.266-.25.329-.062.062-.124.125-.312.25l1.72 1.718L.483-.625c.188.11.25.172.313.234.062.063.125.141.25.344l1.719-1.719L4.469-.062c.156-.188.203-.266.265-.329.063-.062.141-.125.329-.234zm0 0"/></symbol><symbol overflow="visible" id="r"><path d="M1.922-.672c0-.312-.36-.656-.688-.656-.312 0-.687.344-.687.656 0 .328.375.672.687.672.329 0 .688-.344.688-.672zm2.562 0c0-.312-.359-.656-.671-.656-.329 0-.688.344-.688.656 0 .328.36.672.688.672.312 0 .671-.344.671-.672zm2.579 0c0-.312-.36-.656-.688-.656-.313 0-.688.344-.688.656 0 .328.375.672.688.672.328 0 .688-.344.688-.672zm0 0"/></symbol><symbol overflow="visible" id="s"><path d="M3.156-5.86c-.062-.03-.094-.062-.14-.109-.047-.047-.079-.093-.188-.281C1.594-5.016.906-3.766.906-2.64v.578c0 1.124.688 2.39 1.922 3.624.11-.203.14-.25.188-.28.046-.048.078-.079.265-.173C2.171-.016 1.75-1.03 1.75-2.062v-.579c0-1.03.422-2.03 1.531-3.156zm0 0"/></symbol><symbol overflow="visible" id="t"><path d="M6.172-2.078c-.016-.094-.031-.188-.031-.266 0-.094.015-.187.062-.406H.516c.046.219.062.313.062.406 0 .078-.015.172-.062.39h5.687zm0 0"/></symbol><symbol overflow="visible" id="u"><path d="M2.844-2.063v-.578c0-1.125-.688-2.375-1.938-3.609-.094.188-.125.234-.172.281-.046.047-.093.078-.265.172C1.579-4.672 2-3.672 2-2.64v.579C2-1.032 1.578-.017.469 1.108c.172.094.219.125.265.172.047.032.079.078.172.282 1.25-1.235 1.938-2.5 1.938-3.625zm0 0"/></symbol><symbol overflow="visible" id="j"><path d="M6.281-2.969a2.937 2.937 0 0 0-2.953-2.937c-1.734 0-3.094 1.39-3.094 3.172 0 1.687 1.22 2.968 2.75 2.968 1.844 0 3.297-1.421 3.297-3.203zm-1.39.438c0 1.375-.47 2.078-1.438 2.078-1.172 0-1.828-1-1.828-2.688 0-1.437.438-2.078 1.5-2.078 1.094 0 1.766 1.063 1.766 2.688zm0 0"/></symbol><symbol overflow="visible" id="k"><path d="M4.563-5.719c-.125-.093-.438-.187-.657-.187-.36 0-.844.234-1.094.547l-.671.78.234.11V-5.78l-.234-.125a7.46 7.46 0 0 1-2.016.515v.61h.594c.469 0 .375-.063.375.734v2.688c0 .75.11.671-.297.703L.109-.61v.656A31.702 31.702 0 0 1 1.72 0c.578 0 1.14.016 1.843.047V-.61l-.75-.047c-.546-.031-.437.078-.437-.703v-2.063c0-.719.344-1.172.938-1.172.359 0 .5.14.718.547h.453l.125-1.64zm0 0"/></symbol><symbol overflow="visible" id="p"><path d="M3.86-1.625c0-.313-.22-.703-.485-.875-.203-.11-.484-.203-.875-.266l.11.266c.624-.422.906-.828.906-1.203 0-.594-.735-1.14-1.594-1.14-.516 0-.984.171-1.39.515L.25-3.281h.563L1-3.797c.094-.219.406-.297.813-.297.5 0 .734.203.734.61 0 .5-.281.75-.828.75-.063 0-.25.25-.25.25l-.282-.11-.109.406.203.157c.328-.14.469-.172.672-.172.656 0 .844.203.844.797 0 .672-.297.953-1 .953-.36 0-.563-.047-.797-.234C.812-.829.766-.875.547-1.422l-.5.172c.187.5.25.734.312 1.172.563.156.907.203 1.188.203.625 0 1.437-.328 1.86-.781.265-.266.452-.656.452-.969zm0 0"/></symbol><symbol overflow="visible" id="v"><path d="M3.906-.125c-.031-.14-.031-.203-.031-.297 0-.094 0-.156.047-.469l-2.844.079.11.265 1.39-1.281c.75-.672 1.031-1.14 1.031-1.625 0-.766-.765-1.39-1.734-1.39-.563 0-1.047.187-1.469.546L.234-3.172h.532l.156-.453c.125-.39.234-.406.75-.406.656 0 .906.203.906.765 0 .5-.265.875-1.125 1.657L.078-.375v.406L1.968 0l1.954.031zm0 0"/></symbol><symbol overflow="visible" id="w"><path d="M3.516-.125v-.36L2.953-.5c-.422-.031-.344.063-.344-.281v-4l-.265-.094c-.5.219-1.047.422-1.938.688l.094.53h.219l1-.374h.031c.047 0-.125-.094-.125.062V-.78c0 .344.094.25-.328.281l-.594.016V.03L2.141 0l1.375.031zm0 0"/></symbol></defs><use xlink:href="#a" x=".096" y="11.009"/><use xlink:href="#b" x="6.205" y="6.777"/><use xlink:href="#b" x="6.074" y="14.967"/><use xlink:href="#c" x="42.147" y="11.009"/><use xlink:href="#a" x="83.584" y="11.009"/><use xlink:href="#d" x="89.695" y="6.777"/><use xlink:href="#b" x="89.564" y="14.816"/><use xlink:href="#c" x="125.637" y="11.009"/><use xlink:href="#a" x="167.074" y="11.009"/><use xlink:href="#e" x="173.186" y="6.777"/><use xlink:href="#b" x="173.054" y="14.816"/><use xlink:href="#c" x="209.127" y="11.009"/><use xlink:href="#a" x="250.564" y="11.009"/><use xlink:href="#f" x="256.676" y="6.777"/><use xlink:href="#b" x="256.545" y="14.967"/><use xlink:href="#g" x="262.177" y="11.009"/><use xlink:href="#h" x="267.246" y="11.009"/><use xlink:href="#i" x="279.644" y="11.009"/><use xlink:href="#j" x="288.619" y="11.009"/><use xlink:href="#k" x="295.147" y="11.009"/><use xlink:href="#l" x="302.857" y="11.009"/><use xlink:href="#m" x="308.835" y="11.009"/><use xlink:href="#n" x="21.668" y="30.037"/><use xlink:href="#o" x="30.754" y="23.011"/><use xlink:href="#p" x="36.11" y="19.877"/><use xlink:href="#p" x="36.11" y="25.96"/><use xlink:href="#q" x="40.722" y="23.011"/><use xlink:href="#r" x="46.273" y="23.011"/><use xlink:href="#s" x="30.754" y="35.592"/><use xlink:href="#e" x="34.508" y="35.592"/><use xlink:href="#t" x="39.51" y="35.592"/><use xlink:href="#o" x="46.239" y="35.592"/><use xlink:href="#p" x="51.595" y="32.539"/><use xlink:href="#p" x="51.595" y="38.622"/><use xlink:href="#u" x="56.207" y="35.592"/><use xlink:href="#q" x="59.961" y="35.592"/><use xlink:href="#r" x="65.512" y="35.592"/><use xlink:href="#n" x="105.159" y="30.037"/><use xlink:href="#o" x="114.244" y="23.123"/><use xlink:href="#v" x="119.601" y="19.989"/><use xlink:href="#p" x="119.601" y="25.96"/><use xlink:href="#q" x="124.212" y="23.123"/><use xlink:href="#r" x="129.763" y="23.123"/><use xlink:href="#s" x="114.244" y="35.48"/><use xlink:href="#e" x="117.998" y="35.48"/><use xlink:href="#t" x="123" y="35.48"/><use xlink:href="#o" x="129.729" y="35.48"/><use xlink:href="#v" x="135.086" y="32.539"/><use xlink:href="#p" x="135.086" y="38.51"/><use xlink:href="#u" x="139.697" y="35.48"/><use xlink:href="#q" x="143.451" y="35.48"/><use xlink:href="#r" x="149.002" y="35.48"/><use xlink:href="#n" x="188.649" y="30.037"/><use xlink:href="#o" x="197.735" y="23.123"/><use xlink:href="#w" x="203.091" y="19.989"/><use xlink:href="#p" x="203.091" y="25.96"/><use xlink:href="#q" x="207.703" y="23.123"/><use xlink:href="#r" x="213.254" y="23.123"/><use xlink:href="#s" x="197.735" y="35.513"/><use xlink:href="#e" x="201.489" y="35.513"/><use xlink:href="#t" x="206.491" y="35.513"/><use xlink:href="#o" x="213.22" y="35.513"/><use xlink:href="#w" x="218.576" y="32.572"/><use xlink:href="#p" x="218.576" y="38.543"/><use xlink:href="#u" x="223.187" y="35.513"/><use xlink:href="#q" x="226.941" y="35.513"/><use xlink:href="#r" x="232.492" y="35.513"/><use xlink:href="#x" x="43.348" y="48.865"/><use xlink:href="#x" x="126.838" y="48.865"/><use xlink:href="#x" x="210.329" y="48.865"/><use xlink:href="#a" x="83.586" y="63.576"/><use xlink:href="#d" x="89.696" y="59.344"/><use xlink:href="#d" x="89.564" y="67.383"/><use xlink:href="#c" x="125.637" y="63.576"/><use xlink:href="#a" x="167.074" y="63.576"/><use xlink:href="#e" x="173.186" y="59.344"/><use xlink:href="#d" x="173.054" y="67.383"/><use xlink:href="#c" x="209.127" y="63.576"/><use xlink:href="#a" x="250.564" y="63.576"/><use xlink:href="#f" x="256.676" y="59.344"/><use xlink:href="#d" x="256.545" y="67.534"/><use xlink:href="#g" x="262.177" y="63.576"/><use xlink:href="#h" x="267.246" y="63.576"/><use xlink:href="#i" x="279.644" y="63.576"/><use xlink:href="#j" x="288.619" y="63.576"/><use xlink:href="#k" x="295.147" y="63.576"/><use xlink:href="#l" x="302.857" y="63.576"/><use xlink:href="#m" x="308.835" y="63.576"/><use xlink:href="#n" x="105.159" y="82.413"/><use xlink:href="#o" x="114.244" y="75.611"/><use xlink:href="#v" x="119.601" y="72.477"/><use xlink:href="#v" x="119.601" y="78.448"/><use xlink:href="#q" x="124.212" y="75.611"/><use xlink:href="#r" x="129.763" y="75.611"/><use xlink:href="#s" x="114.244" y="87.856"/><use xlink:href="#e" x="117.998" y="87.856"/><use xlink:href="#t" x="123" y="87.856"/><use xlink:href="#o" x="129.729" y="87.856"/><use xlink:href="#v" x="135.086" y="84.915"/><use xlink:href="#v" x="135.086" y="90.886"/><use xlink:href="#u" x="139.697" y="87.856"/><use xlink:href="#q" x="143.451" y="87.856"/><use xlink:href="#r" x="149.002" y="87.856"/><use xlink:href="#n" x="188.649" y="82.413"/><use xlink:href="#o" x="197.735" y="75.611"/><use xlink:href="#w" x="203.091" y="72.477"/><use xlink:href="#v" x="203.091" y="78.448"/><use xlink:href="#q" x="207.703" y="75.611"/><use xlink:href="#r" x="213.254" y="75.611"/><use xlink:href="#s" x="197.735" y="87.889"/><use xlink:href="#e" x="201.489" y="87.889"/><use xlink:href="#t" x="206.491" y="87.889"/><use xlink:href="#o" x="213.22" y="87.889"/><g><use xlink:href="#w" x="218.576" y="84.948"/></g><g><use xlink:href="#v" x="218.576" y="90.919"/></g><g><use xlink:href="#u" x="223.187" y="87.889"/><use xlink:href="#q" x="226.941" y="87.889"/><use xlink:href="#r" x="232.492" y="87.889"/></g><g><use xlink:href="#x" x="126.838" y="101.051"/></g><g><use xlink:href="#x" x="210.329" y="101.051"/></g><g><use xlink:href="#a" x="167.077" y="115.761"/></g><g><use xlink:href="#e" x="173.186" y="111.529"/></g><g><use xlink:href="#e" x="173.054" y="119.612"/></g><g><use xlink:href="#c" x="209.127" y="115.761"/></g><g><use xlink:href="#a" x="250.564" y="115.761"/></g><g><use xlink:href="#f" x="256.676" y="111.529"/></g><g><use xlink:href="#e" x="256.545" y="119.763"/></g><g><use xlink:href="#g" x="262.177" y="115.761"/><use xlink:href="#h" x="267.246" y="115.761"/></g><g><use xlink:href="#i" x="279.644" y="115.761"/></g><g><use xlink:href="#j" x="288.619" y="115.761"/><use xlink:href="#k" x="295.147" y="115.761"/></g><g><use xlink:href="#l" x="302.857" y="115.761"/><use xlink:href="#m" x="308.835" y="115.761"/></g><g><use xlink:href="#n" x="188.649" y="134.631"/></g><g><use xlink:href="#o" x="197.735" y="127.796"/></g><g><use xlink:href="#w" x="203.091" y="124.662"/></g><g><use xlink:href="#w" x="203.091" y="130.666"/></g><g><use xlink:href="#q" x="207.703" y="127.796"/><use xlink:href="#r" x="213.254" y="127.796"/></g><g><use xlink:href="#s" x="197.735" y="140.107"/><use xlink:href="#e" x="201.489" y="140.107"/><use xlink:href="#t" x="206.491" y="140.107"/><use xlink:href="#o" x="213.22" y="140.107"/></g><g><use xlink:href="#w" x="218.576" y="137.166"/></g><g><use xlink:href="#w" x="218.576" y="143.17"/></g><g><use xlink:href="#u" x="223.187" y="140.107"/><use xlink:href="#q" x="226.941" y="140.107"/><use xlink:href="#r" x="232.492" y="140.107"/></g><g><use xlink:href="#x" x="210.329" y="153.301"/></g><g><use xlink:href="#a" x="262.17" y="167.967"/></g><g><use xlink:href="#f" x="268.279" y="163.735"/></g><g><use xlink:href="#f" x="268.147" y="171.925"/></g><g><use xlink:href="#g" x="273.779" y="167.967"/><use xlink:href="#h" x="278.848" y="167.967"/></g><g><use xlink:href="#i" x="291.246" y="167.967"/><use xlink:href="#m" x="297.223" y="167.967"/></g></svg>