<svg xmlns:xlink="http://www.w3.org/1999/xlink" width="64.167ex" height="40.667ex" style="vertical-align:-19.667ex;margin-bottom:1px;margin-top:1px" viewBox="0 -8986.9 27628.9 17473.8" xmlns="http://www.w3.org/2000/svg"><defs><path stroke-width="10" id="a" d="M516 683L372 105c-4-17-6-24-6-48 0-20 3-46 30-46 41 0 59 59 76 124 3 14 4 18 14 18 3 0 12 0 12-10 0 0-13-63-30-99-16-32-39-55-74-55-48 0-83 33-91 75-60-71-110-75-130-75C95-11 40 55 40 149c0 146 124 293 241 293 45 0 74-27 92-64l60 237 3 20c0 10-2 17-50 17-15 0-24 0-24 12 0 13 6 18 14 19 17 2 112 11 127 11 13 0 13-11 13-11zM361 332c0 6-14 88-79 88-40 0-85-37-116-96-23-46-55-169-55-219 0-39 14-94 64-94 28 0 69 16 113 71 15 17 15 19 20 37l50 196c1 5 3 11 3 17z"/><path stroke-width="10" id="b" d="M457 171c0-102-91-193-213-193C135-22 42 44 42 135c0 44 32 58 56 58 29 0 56-20 56-56 0-38-31-60-66-55C123 23 198 6 241 6c44 0 113 29 113 165 0 98-37 166-119 166h-44c-17 0-24 0-24 11 0 10 7 11 15 12 7 0 31 2 39 3 25 1 59 4 89 52 26 44 28 102 28 114 0 90-55 112-96 112-36 0-102-13-133-62 15 0 62 0 62-50 0-29-20-51-51-51-29 0-51 19-51 52 0 76 76 136 177 136 96 0 184-56 184-138 0-79-58-149-140-176 104-21 167-99 167-181z"/><path stroke-width="10" id="c" d="M943 250c0-6-4-11-9-13-57-19-101-59-137-104-28-36-49-80-58-127-2-9-10-16-20-16-11 0-20 9-20 20 0 1 1 3 1 4 10 53 33 102 66 144 22 28 48 52 78 72H78c-11 0-20 9-20 20s9 20 20 20h766c-30 20-56 44-78 72-33 42-56 91-66 144 0 1-1 3-1 4 0 11 9 20 20 20 10 0 18-7 20-16 9-47 30-91 58-127 36-45 80-85 137-104 5-2 9-7 9-13z"/><path stroke-width="10" id="m" d="M449 174L421 0H50c0 24 0 26 11 37l192 214c55 62 105 141 105 221 0 82-43 163-134 163-58 0-112-37-135-102 3 1 5 1 13 1 35 0 53-26 53-52 0-41-35-53-52-53-3 0-53 0-53 56 0 89 74 181 187 181 122 0 212-80 212-194 0-100-60-154-216-292L127 77h180c22 0 88 0 95 8 10 15 17 59 22 89h25z"/><path stroke-width="10" id="i" d="M419 0c-35 3-122 3-162 3S130 3 95 0v31h32c90 0 93 12 93 48v518c-52-26-111-26-131-26v31c32 0 120 0 182 64 23 0 23-2 23-26V79c0-37 3-48 93-48h32V0z"/><path stroke-width="10" id="n" d="M460 320c0-79-5-157-37-226C379-1 303-22 249-22 200-22 127-2 84 79c-41 76-45 166-45 241 0 80 5 158 37 227 41 93 114 119 174 119 42 0 124-16 170-112 35-74 40-154 40-234zm-83 12c0 63 0 139-10 195-19 99-85 117-118 117-25 0-100-9-119-128-8-54-8-120-8-184 0-59 0-151 11-211C151 25 210 0 249 0c45 0 102 30 117 125 11 64 11 132 11 207z"/><path stroke-width="10" id="h" d="M332-238c0-5-5-10-10-10-2 0-4 1-6 2-110 83-215 283-215 454v84c0 171 105 371 215 454 2 1 4 2 6 2 5 0 10-5 10-10 0-3-2-6-4-8-104-78-173-278-173-438v-84c0-160 69-360 173-438 2-2 4-5 4-8z"/><path stroke-width="10" id="o" d="M722 347c0-11-9-20-20-20H76c-11 0-20 9-20 20s9 20 20 20h626c11 0 20-9 20-20zm0-194c0-11-9-20-20-20H76c-11 0-20 9-20 20s9 20 20 20h626c11 0 20-9 20-20z"/><path stroke-width="10" id="p" d="M471 214C471 87 370-11 249-11 132-11 28 85 28 214c0 125 97 234 222 234 121 0 221-106 221-234zm-83 8c0 38 0 96-26 139s-69 65-113 65c-40 0-87-21-114-67-24-44-24-98-24-137 0-36 0-97 25-141 27-46 71-67 114-67 50 0 94 29 116 74 22 44 22 98 22 134z"/><path stroke-width="10" id="q" d="M364 381c0-32-25-44-43-44-22 0-43 15-43 43 0 26 20 38 23 39-2 1-4 1-11 1-76 0-118-89-118-188V78c0-36 2-47 76-47h21V0c-40 3-87 3-127 3L28 0v31c67 0 78 0 78 45v268c0 49-8 56-78 56v31l139 11V332c14 43 50 110 123 110 43 0 74-29 74-61z"/><path stroke-width="10" id="k" d="M288 208c0-171-105-371-215-454-2-1-4-2-6-2-5 0-10 5-10 10 0 3 2 6 4 8 104 78 173 278 173 438v84c0 160-69 360-173 438-2 2-4 5-4 8 0 5 5 10 10 10 2 0 4-1 6-2 110-83 215-283 215-454v-84z"/><path stroke-width="10" id="d" d="M722 250c0-11-9-20-20-20H409V-63c0-11-9-20-20-20s-20 9-20 20v293H76c-11 0-20 9-20 20s9 20 20 20h293v293c0 11 9 20 20 20s20-9 20-20V270h293c11 0 20-9 20-20z"/><path stroke-width="10" id="e" d="M637 60c4-16-13-71-66-71-45 0-86 31-112 84-61-61-127-84-190-84C167-11 88 65 65 158c-36 141 61 284 198 284 74 0 179-49 218-206l16-62c32 59 46 135 48 198 1 18 0 21 10 21 11 0 14-10 14-10s9-117-56-235c-7-12-6-14-1-35 6-24 25-102 56-102 0 0 38 0 44 49 1 7 4 10 11 10 6 0 12-3 14-10zM448 99c-6 17-20 75-30 112-19 78-52 209-151 209-35 0-84-19-113-92-19-51-18-159-6-208 16-64 57-109 117-109 40 0 115 11 183 88z"/><path stroke-width="10" id="f" d="M624 15c-7-8-20-8-28 0L389 222 182 15c-8-8-21-8-28 0-8 7-8 20 0 28l207 207-207 207c-8 8-8 21 0 28 7 8 20 8 28 0l207-207 207 207c8 8 21 8 28 0 8-7 8-20 0-28L417 250 624 43c8-8 8-21 0-28z"/><path stroke-width="10" id="g" d="M193 53c0-29-24-53-53-53S87 24 87 53s24 53 53 53 53-24 53-53zm279 0c0-29-24-53-53-53s-53 24-53 53 24 53 53 53 53-24 53-53zm279 0c0-29-24-53-53-53s-53 24-53 53 24 53 53 53 53-24 53-53z"/><path stroke-width="10" id="j" d="M722 250c0-11-9-20-20-20H76c-11 0-20 9-20 20s9 20 20 20h626c11 0 20-9 20-20z"/><path stroke-width="10" id="l" d="M959 146c0-5-1-8-3-12-27-40-43-85-49-131-7-57-4-116 23-170 1-2 1-4 1-6 0-7-6-13-13-13-2 0-4 0-6 1-54 27-113 30-170 23-46-6-91-22-131-49-4-2-7-3-12-3-11 0-20 9-20 20 0 7 4 13 9 17 46 30 97 48 149 55 35 4 71 3 106-4L48 669c-4 3-6 8-6 14 0 11 9 20 20 20 6 0 11-2 14-6L871-98c-7 35-8 71-4 106 7 52 25 103 55 149 4 5 10 9 17 9 11 0 20-9 20-20z"/></defs><g stroke="currentColor" fill="currentColor" stroke-width="0"><g transform="matrix(1 0 0 -1 156 -8127)"><use xlink:href="#a"/><use transform="scale(.707)" xlink:href="#b" x="742" y="519"/><use transform="scale(.707)" xlink:href="#b" x="742" y="-444"/></g><g transform="matrix(1 0 0 -1 2138 0)"><use xlink:href="#c" x="1656" y="8127"/><g transform="translate(0 6107)"><use xlink:href="#d"/><g transform="translate(783 634)"><use transform="scale(.707)" xlink:href="#e"/><use transform="scale(.574)" xlink:href="#b" x="795" y="456"/><use transform="scale(.574)" xlink:href="#b" x="795" y="-474"/><use transform="scale(.707)" xlink:href="#f" x="1155"/><use transform="scale(.707)" xlink:href="#g" x="1938"/></g><g transform="translate(783 -486)"><use transform="scale(.707)" xlink:href="#h"/><use transform="scale(.707)" xlink:href="#i" x="394"/><use transform="scale(.707)" xlink:href="#j" x="899"/><g transform="translate(1189)"><use transform="scale(.707)" xlink:href="#e"/><use transform="scale(.574)" xlink:href="#b" x="795" y="456"/><use transform="scale(.574)" xlink:href="#b" x="795" y="-474"/></g><use transform="scale(.707)" xlink:href="#k" x="2837"/><use transform="scale(.707)" xlink:href="#f" x="3231"/><use transform="scale(.707)" xlink:href="#g" x="4014"/></g></g><use xlink:href="#l" x="1656" y="4131"/></g><g transform="matrix(1 0 0 -1 7456 -8127)"><use xlink:href="#a"/><use transform="scale(.707)" xlink:href="#m" x="742" y="497"/><use transform="scale(.707)" xlink:href="#b" x="742" y="-444"/></g><g transform="matrix(1 0 0 -1 7456 -2662)"><use xlink:href="#a"/><use transform="scale(.707)" xlink:href="#m" x="742" y="497"/><use transform="scale(.707)" xlink:href="#m" x="742" y="-444"/></g><g transform="matrix(1 0 0 -1 9438 0)"><use xlink:href="#c" x="1656" y="8127"/><g transform="translate(0 6107)"><use xlink:href="#d"/><g transform="translate(783 634)"><use transform="scale(.707)" xlink:href="#e"/><use transform="scale(.574)" xlink:href="#m" x="795" y="434"/><use transform="scale(.574)" xlink:href="#b" x="795" y="-474"/><use transform="scale(.707)" xlink:href="#f" x="1155"/><use transform="scale(.707)" xlink:href="#g" x="1938"/></g><g transform="translate(783 -473)"><use transform="scale(.707)" xlink:href="#h"/><use transform="scale(.707)" xlink:href="#i" x="394"/><use transform="scale(.707)" xlink:href="#j" x="899"/><g transform="translate(1189)"><use transform="scale(.707)" xlink:href="#e"/><use transform="scale(.574)" xlink:href="#m" x="795" y="434"/><use transform="scale(.574)" xlink:href="#b" x="795" y="-474"/></g><use transform="scale(.707)" xlink:href="#k" x="2837"/><use transform="scale(.707)" xlink:href="#f" x="3231"/><use transform="scale(.707)" xlink:href="#g" x="4014"/></g></g><use xlink:href="#l" x="1656" y="4131"/><use xlink:href="#c" x="1656" y="2662"/><g transform="translate(0 682)"><use xlink:href="#d"/><g transform="translate(783 621)"><use transform="scale(.707)" xlink:href="#e"/><use transform="scale(.574)" xlink:href="#m" x="795" y="434"/><use transform="scale(.574)" xlink:href="#m" x="795" y="-474"/><use transform="scale(.707)" xlink:href="#f" x="1155"/><use transform="scale(.707)" xlink:href="#g" x="1938"/></g><g transform="translate(783 -473)"><use transform="scale(.707)" xlink:href="#h"/><use transform="scale(.707)" xlink:href="#i" x="394"/><use transform="scale(.707)" xlink:href="#j" x="899"/><g transform="translate(1189)"><use transform="scale(.707)" xlink:href="#e"/><use transform="scale(.574)" xlink:href="#m" x="795" y="434"/><use transform="scale(.574)" xlink:href="#m" x="795" y="-474"/></g><use transform="scale(.707)" xlink:href="#k" x="2837"/><use transform="scale(.707)" xlink:href="#f" x="3231"/><use transform="scale(.707)" xlink:href="#g" x="4014"/></g></g><use xlink:href="#l" x="1656" y="-1269"/></g><g transform="matrix(1 0 0 -1 14755 -8127)"><use xlink:href="#a"/><use transform="scale(.707)" xlink:href="#i" x="742" y="497"/><use transform="scale(.707)" xlink:href="#b" x="742" y="-444"/></g><g transform="matrix(1 0 0 -1 14755 -2662)"><use xlink:href="#a"/><use transform="scale(.707)" xlink:href="#i" x="742" y="497"/><use transform="scale(.707)" xlink:href="#m" x="742" y="-444"/></g><g transform="matrix(1 0 0 -1 14755 2738)"><use xlink:href="#a"/><use transform="scale(.707)" xlink:href="#i" x="742" y="497"/><use transform="scale(.707)" xlink:href="#i" x="742" y="-444"/></g><g transform="matrix(1 0 0 -1 16737 0)"><use xlink:href="#c" x="1656" y="8127"/><g transform="translate(0 6107)"><use xlink:href="#d"/><g transform="translate(783 634)"><use transform="scale(.707)" xlink:href="#e"/><use transform="scale(.574)" xlink:href="#i" x="795" y="434"/><use transform="scale(.574)" xlink:href="#b" x="795" y="-474"/><use transform="scale(.707)" xlink:href="#f" x="1155"/><use transform="scale(.707)" xlink:href="#g" x="1938"/></g><g transform="translate(783 -473)"><use transform="scale(.707)" xlink:href="#h"/><use transform="scale(.707)" xlink:href="#i" x="394"/><use transform="scale(.707)" xlink:href="#j" x="899"/><g transform="translate(1189)"><use transform="scale(.707)" xlink:href="#e"/><use transform="scale(.574)" xlink:href="#i" x="795" y="434"/><use transform="scale(.574)" xlink:href="#b" x="795" y="-474"/></g><use transform="scale(.707)" xlink:href="#k" x="2837"/><use transform="scale(.707)" xlink:href="#f" x="3231"/><use transform="scale(.707)" xlink:href="#g" x="4014"/></g></g><use xlink:href="#l" x="1656" y="4131"/><use xlink:href="#c" x="1656" y="2662"/><g transform="translate(0 682)"><use xlink:href="#d"/><g transform="translate(783 621)"><use transform="scale(.707)" xlink:href="#e"/><use transform="scale(.574)" xlink:href="#i" x="795" y="434"/><use transform="scale(.574)" xlink:href="#m" x="795" y="-474"/><use transform="scale(.707)" xlink:href="#f" x="1155"/><use transform="scale(.707)" xlink:href="#g" x="1938"/></g><g transform="translate(783 -473)"><use transform="scale(.707)" xlink:href="#h"/><use transform="scale(.707)" xlink:href="#i" x="394"/><use transform="scale(.707)" xlink:href="#j" x="899"/><g transform="translate(1189)"><use transform="scale(.707)" xlink:href="#e"/><use transform="scale(.574)" xlink:href="#i" x="795" y="434"/><use transform="scale(.574)" xlink:href="#m" x="795" y="-474"/></g><use transform="scale(.707)" xlink:href="#k" x="2837"/><use transform="scale(.707)" xlink:href="#f" x="3231"/><use transform="scale(.707)" xlink:href="#g" x="4014"/></g></g><use xlink:href="#l" x="1656" y="-1269"/><use xlink:href="#c" x="1656" y="-2738"/><g transform="translate(0 -4718)"><use xlink:href="#d"/><g transform="translate(783 621)"><use transform="scale(.707)" xlink:href="#e"/><use transform="scale(.574)" xlink:href="#i" x="795" y="434"/><use transform="scale(.574)" xlink:href="#i" x="795" y="-474"/><use transform="scale(.707)" xlink:href="#f" x="1155"/><use transform="scale(.707)" xlink:href="#g" x="1938"/></g><g transform="translate(783 -473)"><use transform="scale(.707)" xlink:href="#h"/><use transform="scale(.707)" xlink:href="#i" x="394"/><use transform="scale(.707)" xlink:href="#j" x="899"/><g transform="translate(1189)"><use transform="scale(.707)" xlink:href="#e"/><use transform="scale(.574)" xlink:href="#i" x="795" y="434"/><use transform="scale(.574)" xlink:href="#i" x="795" y="-474"/></g><use transform="scale(.707)" xlink:href="#k" x="2837"/><use transform="scale(.707)" xlink:href="#f" x="3231"/><use transform="scale(.707)" xlink:href="#g" x="4014"/></g></g><use xlink:href="#l" x="1656" y="-6668"/></g><g><g transform="matrix(1 0 0 -1 22055 -8127)"><use xlink:href="#a"/><use transform="scale(.707)" xlink:href="#n" x="742" y="519"/><use transform="scale(.707)" xlink:href="#b" x="742" y="-444"/><use xlink:href="#h" x="982"/><use xlink:href="#o" x="1376"/><use xlink:href="#n" x="2436"/><g transform="translate(2941)"><use xlink:href="#p" x="332"/><use xlink:href="#q" x="837"/></g><use xlink:href="#i" x="4507"/><use xlink:href="#k" x="5012"/></g><g transform="matrix(1 0 0 -1 22055 -2662)"><use xlink:href="#a"/><use transform="scale(.707)" xlink:href="#n" x="742" y="519"/><use transform="scale(.707)" xlink:href="#m" x="742" y="-444"/><use xlink:href="#h" x="982"/><use xlink:href="#o" x="1376"/><use xlink:href="#n" x="2436"/><g transform="translate(2941)"><use xlink:href="#p" x="332"/><use xlink:href="#q" x="837"/></g><use xlink:href="#i" x="4507"/><use xlink:href="#k" x="5012"/></g><g transform="matrix(1 0 0 -1 22055 2738)"><use xlink:href="#a"/><use transform="scale(.707)" xlink:href="#n" x="742" y="519"/><use transform="scale(.707)" xlink:href="#i" x="742" y="-444"/><use xlink:href="#h" x="982"/><use xlink:href="#o" x="1376"/><use xlink:href="#n" x="2436"/><g transform="translate(2941)"><use xlink:href="#p" x="332"/><use xlink:href="#q" x="837"/></g><use xlink:href="#i" x="4507"/><use xlink:href="#k" x="5012"/></g><g transform="matrix(1 0 0 -1 23090 8137)"><use xlink:href="#a"/><use transform="scale(.707)" xlink:href="#n" x="742" y="519"/><use transform="scale(.707)" xlink:href="#n" x="742" y="-444"/><use xlink:href="#h" x="982"/><use xlink:href="#o" x="1376"/><use xlink:href="#n" x="2436"/><use xlink:href="#k" x="2941"/></g></g></g></svg>