<svg xmlns:xlink="http://www.w3.org/1999/xlink" width="100ex" height="6.167ex" style="vertical-align:-4.167ex;margin-bottom:1px;margin-top:1px" viewBox="0 -904.8 43055.4 2659.2" xmlns="http://www.w3.org/2000/svg"><defs><path stroke-width="10" id="a" d="M468 372c0-52-57-383-225-383-46 0-134 16-134 124 0 43 13 89 57 205 7 18 17 45 17 70 0 32-17 32-25 32-29 0-72-23-101-124-5-16-6-18-16-18 0 0-12 0-12 10 0 9 38 154 132 154 50 0 82-37 82-82 0-19-5-33-12-50-31-83-58-156-58-212 0-52 23-87 74-87 117 0 178 229 178 271 0 36-13 62-34 82-11 11-16 17-16 30 0 22 24 48 49 48 18 0 44-16 44-70z"/><path stroke-width="10" id="b" d="M430 107c0-12-84-118-227-118-98 0-157 79-157 181 0 175 151 272 262 272 69 0 107-41 107-85 0-14-5-73-75-103-50-21-124-23-153-23h-53c-15-61-16-92-16-104 0-32 9-116 87-116 12 0 121 0 200 99 6 8 8 10 13 10 6 0 12-7 12-13zm-48 250c0 34-27 63-74 63-26 0-129-15-168-167h41c41 0 201 0 201 104z"/><path stroke-width="10" id="c" d="M436 377c0-36-28-59-55-59s-38 19-38 35c0 26 22 50 52 55 0 0-16 12-42 12-43 0-72-26-80-33-24-22-52-69-56-82l-32-130c-4-18-38-154-40-158-7-20-25-28-37-28-15 0-29 9-29 27 0 5 6 28 9 43l58 231c13 52 16 63 16 84 0 38-14 46-31 46-36 0-56-48-73-119-6-22-7-23-17-23 0 0-12 0-12 10 0 3 13 63 31 97 9 18 28 57 74 57 47 0 83-32 91-77 19 28 63 77 128 77 51 0 83-30 83-65z"/><path stroke-width="10" id="d" d="M490 404c0-7 0-9-4-23L390-1c-28-113-131-204-234-204-62 0-106 37-106 87 0 49 33 65 56 65 10 0 37-4 37-35 0-19-10-32-20-41-14-12-27-12-43-12 17-39 62-42 76-42 46 0 84 29 110 63 40 53 52 102 65 154-28-28-62-45-101-45-59 0-122 30-122 119 0 47 18 104 58 210 7 19 17 45 17 70 0 32-17 32-25 32-34 0-74-30-101-124-5-16-6-18-16-18 0 0-12 0-12 10 0 9 37 154 132 154 50 0 82-37 82-82 0-20-4-31-20-72-34-88-51-150-51-196 0-37 11-81 62-81 66 0 109 70 113 85l45 180 20 80c4 18 12 49 14 54 9 15 25 21 35 21 15 0 29-9 29-27z"/><path stroke-width="10" id="e" d="M546 143c0-8-37-154-131-154-47 0-82 35-82 82 0 20 5 32 13 55 24 61 62 170 62 224 0 36-11 70-54 70s-74-19-96-35c-34-27-65-83-68-92-1-6-9-39-11-45-5-23-11-45-17-67l-22-90-19-76c-5-14-21-26-37-26-9 0-29 5-29 28 0 6 0 8 4 22l145 576 3 20c0 10-2 17-50 17-15 0-24 0-24 12 0 18 11 19 19 20 26 2 99 10 122 10 13 0 13-11 13-11l-78-318c37 46 85 77 148 77 75 0 115-42 115-107 0-58-45-177-61-220-9-22-18-46-18-71 0-23 7-33 24-33 55 0 87 71 102 124 5 15 5 18 15 18 3 0 12 0 12-10z"/><path stroke-width="10" id="f" d="M498 143s-13-63-30-99c-16-32-39-55-74-55-48 0-83 33-91 75-60-71-110-75-130-75C95-11 40 55 40 149c0 146 124 293 241 293 45 0 74-27 92-64 3 22 18 44 42 44 17 0 29-10 29-27 0-4 0-6-7-34l-36-140-22-90c-11-44-13-52-13-74 0-20 3-46 30-46 41 0 59 59 76 124 3 14 4 18 14 18 3 0 12 0 12-10zM361 332c0 6-14 88-79 88-40 0-85-37-116-96-23-46-55-169-55-219 0-39 14-94 64-94 28 0 69 16 113 71 15 17 15 19 20 37l50 196c1 5 3 11 3 17z"/><path stroke-width="10" id="g" d="M516 683L372 105c-4-17-6-24-6-48 0-20 3-46 30-46 41 0 59 59 76 124 3 14 4 18 14 18 3 0 12 0 12-10 0 0-13-63-30-99-16-32-39-55-74-55-48 0-83 33-91 75-60-71-110-75-130-75C95-11 40 55 40 149c0 146 124 293 241 293 45 0 74-27 92-64l60 237 3 20c0 10-2 17-50 17-15 0-24 0-24 12 0 13 6 18 14 19 17 2 112 11 127 11 13 0 13-11 13-11zM361 332c0 6-14 88-79 88-40 0-85-37-116-96-23-46-55-169-55-219 0-39 14-94 64-94 28 0 69 16 113 71 15 17 15 19 20 37l50 196c1 5 3 11 3 17z"/><path stroke-width="10" id="h" d="M192 378c0-29-24-53-53-53s-53 24-53 53 24 53 53 53 53-24 53-53zm0-325c0-29-24-53-53-53S86 24 86 53s24 53 53 53 53-24 53-53z"/><path stroke-width="10" id="i" d="M420 356c0-39-24-56-46-56s-31 15-31 29c0 22 20 44 48 45-15 39-65 46-90 46-88 0-112-61-112-90 0-45 40-52 76-60 44-9 73-14 100-42 12-12 31-37 31-73 0-45-39-166-201-166-86 0-143 40-143 97 0 45 30 66 56 66 21 0 37-12 37-35 0-28-25-58-63-53 23-53 100-53 114-53 120 0 143 84 143 110 0 55-52 66-104 76-29 6-103 21-103 99 0 44 37 146 169 146 76 0 119-41 119-86z"/><path stroke-width="10" id="j" d="M469 273c0-146-135-284-268-284-93 0-160 70-160 169 0 142 134 284 268 284 90 0 160-65 160-169zm-73 39c0 60-30 108-88 108-28 0-85-15-135-92-32-51-58-159-58-208 0-78 44-109 87-109 46 0 101 34 136 92 38 65 58 170 58 209z"/><path stroke-width="10" id="k" d="M258 683L114 105c-5-19-6-24-6-48 0-14 0-46 30-46 40 0 59 59 76 124 3 14 4 18 14 18 3 0 12 0 12-10 0 0-12-60-30-98-17-36-42-56-75-56-47 0-91 35-91 92 0 16 2 23 5 34l126 500 3 20c0 8-1 17-49 17-15 0-25 0-25 11 0 19 11 20 19 21 26 2 99 10 122 10 13 0 13-11 13-11z"/><path stroke-width="10" id="l" d="M330 420c0-20-10-20-30-20h-94l-74-295c-4-17-6-24-6-48 0-33 10-46 31-46 34 0 87 24 130 128 5 11 6 14 15 14 4 0 12 0 12-10 0-8-57-154-159-154-54 0-92 38-92 92 0 18 4 35 76 319H51c-20 0-28 0-28 12 0 19 10 19 30 19h94l39 159c9 35 37 36 40 36 17 0 29-10 29-27 0-6-5-26-41-168h88c18 0 28 0 28-11z"/><path stroke-width="10" id="m" d="M457 171c0-102-91-193-213-193C135-22 42 44 42 135c0 44 32 58 56 58 29 0 56-20 56-56 0-38-31-60-66-55C123 23 198 6 241 6c44 0 113 29 113 165 0 98-37 166-119 166h-44c-17 0-24 0-24 11 0 10 7 11 15 12 7 0 31 2 39 3 25 1 59 4 89 52 26 44 28 102 28 114 0 90-55 112-96 112-36 0-102-13-133-62 15 0 62 0 62-50 0-29-20-51-51-51-29 0-51 19-51 52 0 76 76 136 177 136 96 0 184-56 184-138 0-79-58-149-140-176 104-21 167-99 167-181z"/><path stroke-width="10" id="n" d="M722 250c0-11-9-20-20-20H409V-63c0-11-9-20-20-20s-20 9-20 20v293H76c-11 0-20 9-20 20s9 20 20 20h293v293c0 11 9 20 20 20s20-9 20-20V270h293c11 0 20-9 20-20z"/><path stroke-width="10" id="o" d="M415 282c0-144-123-293-241-293-74 0-127 62-127 157 0 35 4 51 16 101l82 326c5 21 14 55 14 62 0 10-2 17-50 17-15 0-24 0-24 12 0 18 11 19 19 20 26 2 99 10 122 10 13 0 13-11 13-11l-74-301c30 31 71 60 117 60 80 0 133-69 133-160zm-72 44c0 64-27 94-63 94-26 0-71-15-120-80-9-11-9-13-15-35l-22-92c-16-63-16-82-16-101 0-74 33-101 67-101 39 0 85 36 118 103 18 38 51 153 51 212z"/><path stroke-width="10" id="p" d="M449 174L421 0H50c0 24 0 26 11 37l192 214c55 62 105 141 105 221 0 82-43 163-134 163-58 0-112-37-135-102 3 1 5 1 13 1 35 0 53-26 53-52 0-41-35-53-52-53-3 0-53 0-53 56 0 89 74 181 187 181 122 0 212-80 212-194 0-100-60-154-216-292L127 77h180c22 0 88 0 95 8 10 15 17 59 22 89h25z"/><path stroke-width="10" id="q" d="M430 107c0-12-84-118-227-118C99-11 41 68 41 158c0 141 133 284 268 284 71 0 118-37 118-86 0-40-27-64-56-64-19 0-37 11-37 35 0 7 2 24 18 39 14 14 28 14 44 14-14 27-52 40-86 40-55 0-110-43-141-100-34-62-54-159-54-200 0-60 27-109 90-109 12 0 121 0 200 99 6 8 8 10 13 10 6 0 12-7 12-13z"/><path stroke-width="10" id="r" d="M722 347c0-11-9-20-20-20H76c-11 0-20 9-20 20s9 20 20 20h626c11 0 20-9 20-20zm0-194c0-11-9-20-20-20H76c-11 0-20 9-20 20s9 20 20 20h626c11 0 20-9 20-20z"/><path stroke-width="10" id="s" d="M460 320c0-79-5-157-37-226C379-1 303-22 249-22 200-22 127-2 84 79c-41 76-45 166-45 241 0 80 5 158 37 227 41 93 114 119 174 119 42 0 124-16 170-112 35-74 40-154 40-234zm-83 12c0 63 0 139-10 195-19 99-85 117-118 117-25 0-100-9-119-128-8-54-8-120-8-184 0-59 0-151 11-211C151 25 210 0 249 0c45 0 102 30 117 125 11 64 11 132 11 207z"/><path stroke-width="10" id="t" d="M284 625c0-30-30-53-53-53-24 0-38 17-38 36 0 27 27 53 54 53 23 0 37-16 37-36zm9-482c0-9-37-154-131-154-48 0-82 35-82 82 0 21 13 54 23 80 16 43 61 159 69 185 4 10 11 31 11 52 0 32-17 32-25 32-34 0-74-30-101-124-5-16-6-18-16-18 0 0-12 0-12 10 0 9 38 154 132 154 50 0 82-37 82-82 0-19-5-33-13-53-10-27-10-29-22-58l-39-105c-23-61-29-75-29-100 0-23 7-33 24-33 51 0 84 61 102 124 5 15 5 18 15 18 3 0 12 0 12-10z"/><path stroke-width="10" id="u" d="M490 282c0-147-125-293-241-293-51 0-79 35-92 64-7-25-49-188-49-200 0-9 0-16 50-16 14 0 24 0 24-11 0-20-13-20-18-20-32 0-66 3-99 3-28 0-57-3-84-3-8 0-13 4-13 12 0 19 11 19 23 19 44 0 46 7 54 41l112 445c4 17 7 28 7 51 0 38-14 46-31 46-36 0-56-48-73-119-6-22-7-23-17-23 0 0-12 0-12 10 0 3 13 63 31 97 9 18 28 57 74 57 37 0 80-21 90-75 33 39 81 75 131 75 76 0 133-66 133-160zm-72 44c0 59-24 94-64 94-17 0-46-7-81-38-18-15-45-43-52-70l-49-196c-3-12-3-16-3-16 0-6 13-89 79-89 37 0 85 33 119 103 18 38 51 153 51 212z"/><path stroke-width="10" id="v" d="M452 431L314-125c-2-9-4-15-4-22 0-9 0-16 48-16 16 0 26 0 26-11 0-20-13-20-18-20-33 0-69 3-103 3-33 0-68-3-100-3-13 0-13 11-13 11 0 20 10 20 23 20 56 1 64 5 72 33l45 179c-36-36-75-60-118-60C99-11 40 51 40 149c0 145 123 293 241 293 32 0 71-16 93-70 17 29 57 69 68 69 7 0 10-6 10-10zm-92-99c0 7-14 88-79 88-41 0-93-42-124-116-17-42-46-151-46-199 0-17 4-94 64-94 56 0 112 64 127 92 3 4 58 223 58 229z"/></defs><g stroke="currentColor" fill="currentColor" stroke-width="0"><g transform="matrix(1 0 0 -1 12757 0)"><use xlink:href="#a"/><use xlink:href="#b" x="490"/><use xlink:href="#c" x="961"/><use xlink:href="#d" x="1417"/><use xlink:href="#e" x="2244"/><use xlink:href="#f" x="2825"/><use xlink:href="#c" x="3359"/><use xlink:href="#g" x="3815"/><use xlink:href="#h" x="4617"/><use xlink:href="#i" x="5510"/><use xlink:href="#j" x="5984"/><use xlink:href="#k" x="6474"/><use xlink:href="#a" x="6777"/><use xlink:href="#b" x="7267"/><use xlink:href="#f" x="8070"/><g transform="translate(8604)"><use xlink:href="#l"/><use transform="scale(.707)" xlink:href="#m" x="517" y="583"/></g><use xlink:href="#n" x="9649"/><use xlink:href="#o" x="10655"/><g transform="translate(11089)"><use xlink:href="#l"/><use transform="scale(.707)" xlink:href="#p" x="517" y="583"/></g><use xlink:href="#n" x="12134"/><use xlink:href="#q" x="13139"/><use xlink:href="#l" x="13577"/><use xlink:href="#n" x="14165"/><use xlink:href="#g" x="15171"/><use xlink:href="#r" x="15973"/><use xlink:href="#s" x="17034"/></g><g transform="matrix(1 0 0 -1 15058 1537)"><use xlink:href="#b"/><use xlink:href="#f" x="471"/><use xlink:href="#i" x="1005"/><use xlink:href="#t" x="1479"/><use xlink:href="#b" x="1829"/><use xlink:href="#c" x="2300"/><use xlink:href="#h" x="3033"/><use xlink:href="#i" x="3926"/><use xlink:href="#j" x="4400"/><use xlink:href="#k" x="4890"/><use xlink:href="#a" x="5193"/><use xlink:href="#b" x="5683"/><g transform="translate(6486)"><use xlink:href="#l"/><use transform="scale(.707)" xlink:href="#m" x="517" y="583"/></g><use xlink:href="#n" x="7531"/><use xlink:href="#u" x="8537"/><use xlink:href="#l" x="9045"/><use xlink:href="#n" x="9633"/><use xlink:href="#v" x="10638"/><use xlink:href="#r" x="11373"/><use xlink:href="#s" x="12434"/></g></g></svg>