<svg xmlns="http://www.w3.org/2000/svg" xmlns:xlink="http://www.w3.org/1999/xlink" width="348" height="50pt" viewBox="0 0 261 50"><defs><symbol overflow="visible" id="a"><path d="M5.125-.094v-.484l-.75-.047c-.656-.031-.64-.031-.64-.656v-7.172l-.313-.125c-.875.469-1.61.781-2.86 1.219l.125.718h.235l1.547-.687.031-.016c.063 0-.047-.015-.047.266v5.797c0 .625.016.625-.64.656L1-.578v.625L3.125 0l2 .047zm0 0"/></symbol><symbol overflow="visible" id="c"><path d="M8.266-4.078a1.419 1.419 0 0 1-.047-.36c0-.109.015-.234.062-.484h-7.5c.063.25.063.375.063.484 0 .125 0 .235-.063.5h7.5zm0 2.625a1.332 1.332 0 0 1-.047-.36c0-.109.015-.234.062-.484h-7.5c.063.25.063.375.063.485 0 .125 0 .25-.063.5h7.5zm0 0"/></symbol><symbol overflow="visible" id="d"><path d="M4.203-7.828a.735.735 0 0 1-.187-.14c-.063-.063-.11-.126-.22-.329-1.593 1.61-2.5 3.266-2.5 4.781v.797c0 1.516.907 3.172 2.5 4.781.11-.203.157-.265.22-.328.062-.062.125-.109.312-.203C2.875.063 2.281-1.344 2.281-2.719v-.797c0-1.39.594-2.78 2.047-4.25zm0 0"/></symbol><symbol overflow="visible" id="e"><path d="M8.266-2.766a1.332 1.332 0 0 1-.047-.359c0-.11.015-.234.062-.484h-7.5c.063.25.063.375.063.484 0 .125 0 .25-.063.5h7.5zm0 0"/></symbol><symbol overflow="visible" id="f"><path d="M3.703-5.516c-.453.047-.86.063-1.156.063.172-.984.297-1.578.531-2.25l-.25-.328a7.16 7.16 0 0 1-1.094.531l-.296 2.031c-.391.203-.704.328-1.063.407l-.047.406h1l-.64 3.25C.625-1.11.53-.813.53-.5c0 .297.266.61.5.61.422 0 .922-.282 1.86-1.032.218-.172.14-.125.437-.36l-.25-.437-.672.469c-.36.25-.484.313-.625.313-.093 0-.031.046-.031-.11 0-.297.156-1.234.516-3l.14-.61h1.266l.203-.89zm0 0"/></symbol><symbol overflow="visible" id="g"><path d="M3.766-2.719v-.797c0-1.515-.907-3.171-2.516-4.78-.11.202-.156.265-.203.327-.063.063-.125.11-.313.203 1.438 1.47 2.032 2.86 2.032 4.25v.797c0 1.375-.594 2.781-2.032 4.25.188.094.25.14.313.203.047.063.094.125.203.329C2.86.452 3.766-1.204 3.766-2.72zm0 0"/></symbol><symbol overflow="visible" id="h"><path d="M8.266-2.766a1.332 1.332 0 0 1-.047-.359c0-.11.015-.234.062-.484h-3.25v-3.266c-.25.063-.375.078-.484.078-.125 0-.25-.016-.5-.078v3.266H.78c.063.25.063.375.063.484 0 .125 0 .25-.063.5h3.266V.641c.25-.063.375-.079.5-.079.11 0 .234.016.484.079v-3.266h3.25zm0 0"/></symbol><symbol overflow="visible" id="i"><path d="M5.719-.094c-.016-.25-.016-.375-.016-.547 0-.14 0-.265.031-.671l-4.28.125.093.234 2.187-2.313C4.891-4.5 5.281-5.25 5.281-6.14 5.281-7.516 4.22-8.5 2.703-8.5c-.86 0-1.562.281-2.172.906L.312-5.766h.594l.188-.687c.203-.688.5-.86 1.297-.86 1.03 0 1.546.516 1.546 1.532 0 .89-.468 1.687-1.828 3.11L.047-.454v.5L2.859 0l2.875.047zm0 0"/></symbol><symbol overflow="visible" id="k"><path d="M2.516-3.125c0-.422-.407-.844-.844-.844-.422 0-.86.422-.86.844 0 .438.438.86.86.86.437 0 .844-.422.844-.86zm0 0"/></symbol><symbol overflow="visible" id="l"><path d="M5.656-2.813c0-.562-.281-1.171-.703-1.468-.297-.219-.672-.344-.953-.407.734-.562 1.125-1.203 1.125-1.906 0-1.062-1.016-1.906-2.344-1.906-.812 0-1.453.266-2.047.86L.328-5.954h.64l.266-.797c.125-.406.75-.688 1.375-.688.766 0 1.266.5 1.266 1.25 0 .907-.563 1.532-1.406 1.532-.11 0-.469.187-.469.187l-.25-.093-.14.671.202.188C2.297-3.938 2.516-4 2.845-4c1 0 1.422.516 1.422 1.594 0 1.219-.579 1.89-1.704 1.89-.546 0-.937-.14-1.296-.468C.984-1.25.859-1.438.578-2.25l-.562.219C.28-1.234.375-.797.469-.11c.765.25 1.281.343 1.734.343.953 0 2.14-.562 2.813-1.375.406-.484.64-1.109.64-1.671zm0 0"/></symbol><symbol overflow="visible" id="b"><path d="M7.547-7.156v.25c0 1.367.281 2.601.844 3.703.625 1.219 1.613 2.273 2.968 3.156a2.214 2.214 0 0 0-.609.688C9.562-.273 8.687-1.375 8.125-2.656c-.305-.676-.531-1.461-.688-2.36C7.29-3.859 6.973-2.852 6.484-2 5.785-.79 4.711.156 3.266.844l-.172-.25C4.332-.133 5.27-1.117 5.906-2.36c.625-1.22.938-2.688.938-4.407v-.39H5.609c-.468 1.023-1.015 1.851-1.64 2.484l-.219-.187c.938-1.383 1.578-3.032 1.922-4.938.781.137 1.172.293 1.172.469 0 .105-.184.21-.547.312a12.176 12.176 0 0 1-.547 1.563h4.156l.469-.656c.54.523.813.836.813.937 0 .063-.043.117-.126.156l-.328.141c-.46.855-.968 1.625-1.53 2.313l-.282-.172c.394-.664.742-1.473 1.047-2.422zM.937-8.984c1.157.523 1.735 1.07 1.735 1.64 0 .324-.152.485-.453.485-.188 0-.313-.133-.375-.407-.125-.52-.48-1.02-1.063-1.5zm3.25 1.312l-1.796 4.39a2.11 2.11 0 0 0-.172.813c0 .106.031.32.094.64.082.47.124.915.124 1.329 0 .52-.18.781-.53.781-.274 0-.407-.14-.407-.422 0-.02.008-.097.031-.234a8.12 8.12 0 0 0 .063-.469c.05-.32.078-.613.078-.875 0-.5-.125-.836-.375-1.015-.125-.102-.36-.188-.703-.25v-.297c.187.023.344.031.469.031.289 0 .539-.16.75-.484.613-.946 1.3-2.317 2.062-4.11zm0 0"/></symbol><symbol overflow="visible" id="j"><path d="M4.75-.11c-.016-.187-.016-.265-.016-.39s0-.203.032-.547l-3.141.094 1.5-1.469c.938-.922 1.281-1.5 1.281-2.172 0-1.015-.906-1.781-2.14-1.781-.688 0-1.282.219-1.782.703l-.187 1.39h.547l.172-.53c.156-.516.359-.61 1-.61.843 0 1.203.344 1.203 1.094 0 .672-.36 1.234-1.453 2.297L.078-.391v.422L2.406 0l2.36.031zm0 0"/></symbol><symbol overflow="visible" id="m"><path d="M4.703-2.125c0-.422-.234-.89-.578-1.11a2.69 2.69 0 0 0-.719-.296c.531-.36.875-.875.875-1.39 0-.798-.875-1.454-1.937-1.454-.656 0-1.203.203-1.703.656L.312-4.406h.594l.219-.64c.11-.298.563-.47 1.078-.47.61 0 .969.344.969.907 0 .656-.406 1.078-1.094 1.078-.078 0-.344.203-.344.203l-.265-.094-.125.531.203.141c.39-.172.578-.203.844-.203.796 0 1.093.328 1.093 1.14 0 .907-.421 1.36-1.328 1.36-.437 0-.719-.094-1.015-.344C.906-1 .828-1.094.578-1.75l-.531.188c.234.609.312.937.375 1.468C1.078.11 1.5.172 1.875.172c.766 0 1.75-.422 2.281-1.016.328-.375.547-.86.547-1.281zm0 0"/></symbol></defs><use xlink:href="#a" x=".376" y="9.745"/><use xlink:href="#b" x="6.353" y="9.745"/><use xlink:href="#c" x="21.629" y="9.745"/><use xlink:href="#d" x="34.027" y="9.745"/><use xlink:href="#a" x="39.096" y="9.745"/><use xlink:href="#e" x="47.739" y="9.745"/><use xlink:href="#f" x="59.479" y="9.745"/><use xlink:href="#g" x="63.52" y="9.745"/><use xlink:href="#h" x="71.243" y="9.745"/><use xlink:href="#f" x="82.983" y="9.745"/><use xlink:href="#i" x=".376" y="28.396"/><use xlink:href="#b" x="6.353" y="28.396"/><use xlink:href="#c" x="21.629" y="28.396"/><use xlink:href="#d" x="34.027" y="28.396"/><use xlink:href="#a" x="39.096" y="28.396"/><use xlink:href="#e" x="47.739" y="28.396"/><use xlink:href="#f" x="59.479" y="28.396"/><use xlink:href="#g" x="63.52" y="28.396"/><use xlink:href="#j" x="68.592" y="24.163"/><use xlink:href="#h" x="76.749" y="28.396"/><use xlink:href="#i" x="88.489" y="28.396"/><use xlink:href="#k" x="97.121" y="28.396"/><use xlink:href="#d" x="103.122" y="28.396"/><use xlink:href="#a" x="108.191" y="28.396"/><use xlink:href="#e" x="116.823" y="28.396"/><use xlink:href="#f" x="128.575" y="28.396"/><use xlink:href="#g" x="132.616" y="28.396"/><use xlink:href="#k" x="140.339" y="28.396"/><use xlink:href="#f" x="146.34" y="28.396"/><use xlink:href="#h" x="153.035" y="28.396"/><use xlink:href="#f" x="164.787" y="28.396"/><use xlink:href="#j" x="168.828" y="24.163"/><use xlink:href="#l" x=".376" y="47.047"/><use xlink:href="#b" x="6.353" y="47.047"/><use xlink:href="#c" x="21.629" y="47.047"/><use xlink:href="#d" x="34.027" y="47.047"/><use xlink:href="#a" x="39.096" y="47.047"/><use xlink:href="#e" x="47.739" y="47.047"/><use xlink:href="#f" x="59.479" y="47.047"/><use xlink:href="#g" x="63.52" y="47.047"/><use xlink:href="#m" x="68.592" y="42.814"/><use xlink:href="#h" x="76.749" y="47.047"/><use xlink:href="#l" x="88.489" y="47.047"/><use xlink:href="#k" x="97.121" y="47.047"/><use xlink:href="#d" x="103.122" y="47.047"/><use xlink:href="#a" x="108.191" y="47.047"/><use xlink:href="#e" x="116.823" y="47.047"/><use xlink:href="#f" x="128.575" y="47.047"/><use xlink:href="#g" x="132.616" y="47.047"/><use xlink:href="#j" x="137.686" y="42.814"/><use xlink:href="#k" x="145.843" y="47.047"/><use xlink:href="#f" x="151.845" y="47.047"/><use xlink:href="#h" x="158.539" y="47.047"/><use xlink:href="#l" x="170.279" y="47.047"/><use xlink:href="#k" x="178.911" y="47.047"/><use xlink:href="#d" x="184.925" y="47.047"/><use xlink:href="#a" x="189.994" y="47.047"/><use xlink:href="#e" x="198.625" y="47.047"/><use xlink:href="#f" x="210.365" y="47.047"/><use xlink:href="#g" x="214.406" y="47.047"/><g><use xlink:href="#k" x="222.129" y="47.047"/></g><g><use xlink:href="#f" x="228.143" y="47.047"/></g><g><use xlink:href="#j" x="232.183" y="42.814"/></g><g><use xlink:href="#h" x="240.34" y="47.047"/></g><g><use xlink:href="#f" x="252.08" y="47.047"/></g><g><use xlink:href="#m" x="256.124" y="42.814"/></g></svg>