<svg xmlns="http://www.w3.org/2000/svg" xmlns:xlink="http://www.w3.org/1999/xlink" width="101pt" height="52pt" viewBox="0 0 101 52"><defs><symbol overflow="visible" id="a"><path d="M3.5 0H1.031l.063-.281a1.91 1.91 0 0 0 .343-.094.537.537 0 0 0 .188-.188c.063-.082.117-.21.172-.39.062-.176.129-.442.203-.797l1.266-5.734h-.75c-.243 0-.434.039-.579.109a1.322 1.322 0 0 0-.437.39c-.148.188-.324.508-.531.954H.406L.844-8h6.125l-.453 2.063h-.563a8.74 8.74 0 0 0-.031-.844c-.024-.196-.063-.344-.125-.438-.055-.101-.121-.172-.203-.203-.074-.039-.211-.062-.407-.062h-.875l-1.265 5.78c-.043.15-.07.266-.078.36a6.315 6.315 0 0 0-.031.297c-.012.094-.016.18-.016.25a.76.76 0 0 0 .047.297c.039.063.097.11.172.14a1.8 1.8 0 0 0 .421.079zm0 0"/></symbol><symbol overflow="visible" id="c"><path d="M.875-4.25v-.781h7.219v.781zm0 2.422v-.781h7.219v.78zm7.469-1.594zm0 0"/></symbol><symbol overflow="visible" id="d"><path d="M4.797 22.219H1.344v-51.297h3.453v.672H2.625v49.953h2.172zm0 0"/></symbol><symbol overflow="visible" id="e"><path d="M4.078-1.531c0 .23.008.402.031.515a.68.68 0 0 0 .141.282.572.572 0 0 0 .266.171c.125.043.273.075.453.094.187.024.43.04.734.047V0H1.375v-.422A8.17 8.17 0 0 0 2.297-.5c.187-.04.328-.094.422-.156a.516.516 0 0 0 .219-.281c.05-.125.078-.32.078-.594v-4.75c0-.157-.032-.27-.094-.344a.282.282 0 0 0-.235-.11c-.124 0-.304.07-.53.204-.231.125-.516.304-.86.531l-.25-.453 2.734-1.64h.328a27.34 27.34 0 0 0-.03 1.562zm0 0"/></symbol><symbol overflow="visible" id="f"><path d="M3.266.094c-.844 0-1.477-.332-1.891-1C.957-1.57.75-2.578.75-3.922c0-.719.063-1.336.188-1.86.132-.53.316-.96.546-1.296.227-.344.5-.598.813-.766.32-.164.676-.25 1.062-.25.852 0 1.489.336 1.907 1 .414.657.625 1.653.625 2.985 0 1.386-.227 2.433-.672 3.14C4.769-.258 4.117.094 3.266.094zM1.906-4.11c0 1.28.114 2.218.344 2.812.238.594.61.89 1.11.89.468 0 .816-.28 1.046-.843.227-.563.344-1.426.344-2.594 0-.906-.063-1.633-.188-2.187-.117-.563-.277-.961-.484-1.203-.21-.239-.46-.36-.75-.36-.273 0-.5.086-.687.25-.18.157-.325.387-.438.688a4.958 4.958 0 0 0-.234 1.093c-.043.43-.063.915-.063 1.454zm0 0"/></symbol><symbol overflow="visible" id="m"><path d="M.266 21.547h2.171v-49.953H.267v-.672h3.453v51.297H.266zm0 0"/></symbol><symbol overflow="visible" id="b"><path d="M2.297-.266c.094-.02.164-.039.219-.062a.865.865 0 0 0 .156-.063.53.53 0 0 0 .094-.093.38.38 0 0 0 .046-.125c.008-.051.016-.114.016-.188v-.875H.36v-.344c.438-.601.868-1.203 1.297-1.796.426-.602.86-1.208 1.297-1.813h.703v3.5h.078c.125 0 .223-.004.297-.016a.36.36 0 0 0 .172-.062.452.452 0 0 0 .125-.156c.031-.07.063-.16.094-.266h.375c-.012.156-.024.32-.031.484-.012.157-.024.313-.032.47H3.656v.984a.502.502 0 0 0 .063.218c.039.055.097.094.172.125.07.024.175.047.312.078V0H2.297zM1.14-2.125h1.687v-.89-.36a8.04 8.04 0 0 0 .016-.438c.008-.156.015-.3.015-.437.008-.133.016-.25.016-.344h-.047l-.844 1.219c-.28.398-.562.793-.843 1.188zm0 0"/></symbol><symbol overflow="visible" id="g"><path d="M3.219-1.156v.234c.008.063.02.121.031.172a.252.252 0 0 0 .047.11c.02.03.047.058.078.078.04.042.086.074.14.093.063.012.133.028.22.047.093.012.203.024.328.031.132 0 .289.008.468.016V0H1.047v-.375c.176-.008.32-.016.437-.016.125-.007.227-.02.313-.03L2-.47a.53.53 0 0 0 .125-.062 1.36 1.36 0 0 0 .11-.094.237.237 0 0 0 .062-.11c.02-.05.035-.109.047-.171a2.25 2.25 0 0 0 .015-.25v-3.157c0-.113-.023-.19-.062-.234a.233.233 0 0 0-.188-.078c-.093 0-.23.047-.406.14-.18.094-.406.235-.687.423-.043-.07-.079-.141-.11-.204-.031-.07-.07-.14-.11-.203.364-.195.724-.394 1.079-.593l1.094-.594h.265a5.867 5.867 0 0 0-.015.437v.719zm0 0"/></symbol><symbol overflow="visible" id="h"><path d="M.75-2.234v-.672h5.063v.672zm0 0"/></symbol><symbol overflow="visible" id="i"><path d="M4.406.063l-.062-3.829v-.406c.008-.113.02-.21.031-.297h-.047L2 .063h-.719c-.054-.77-.105-1.54-.156-2.313a97.04 97.04 0 0 0-.156-2.328c0-.145-.016-.27-.047-.375a.615.615 0 0 0-.11-.25.404.404 0 0 0-.171-.14.572.572 0 0 0-.235-.079l.063-.281H2.39l-.063.281a.9.9 0 0 0-.25.063.304.304 0 0 0-.156.125.74.74 0 0 0-.078.218 3.069 3.069 0 0 0-.016.36v.172c.008.054.016.105.016.156 0 .21.004.406.015.594.008.187.02.382.032.578.007.187.015.386.015.594.008.21.016.437.016.687v.859h.047l2.406-4.687h.703c.008.324.02.652.031.984.008.324.016.653.016.985.008.324.016.64.016.953v.906c0 .125-.008.262-.016.406 0 .149-.008.293-.016.438h.047L6.75-3.906c.063-.114.125-.223.188-.328a2.18 2.18 0 0 0 .25-.563.796.796 0 0 0 .046-.25c0-.226-.156-.351-.468-.375l.062-.281H8.75l-.063.281a.454.454 0 0 0-.218.063.834.834 0 0 0-.203.156 1.5 1.5 0 0 0-.235.266c-.074.117-.156.257-.25.421L5.141.063zm0 0"/></symbol><symbol overflow="visible" id="j"><path d="M.625-3.219v-.687c.531-.219 1.02-.328 1.469-.328.226 0 .441.03.64.093.196.063.352.164.47.297a.735.735 0 0 1 .187.516c0 .18-.043.336-.125.469-.086.136-.2.25-.344.343a3.12 3.12 0 0 1-.531.282v.046c.32.055.582.172.78.36a.907.907 0 0 1 .298.672c0 .242-.063.453-.188.64-.117.18-.297.32-.547.422-.242.102-.539.157-.89.157-.23 0-.453-.024-.672-.063a3.739 3.739 0 0 1-.594-.156v-.735h.453c.063.22.16.375.297.47.133.093.313.14.531.14.29 0 .508-.063.657-.188.144-.133.218-.336.218-.61 0-.28-.101-.491-.296-.64-.2-.144-.493-.218-.876-.218h-.296v-.344c.312-.008.57-.055.78-.14.208-.095.36-.204.454-.329a.792.792 0 0 0 .14-.469c0-.207-.062-.367-.187-.484-.117-.113-.293-.172-.531-.172-.2 0-.371.059-.516.172a.91.91 0 0 0-.328.484zm0 0"/></symbol><symbol overflow="visible" id="k"><path d="M2.031-.031l-.187-1.14a19.484 19.484 0 0 0-.313-1.407c-.062-.227-.125-.375-.187-.438a.225.225 0 0 0-.157-.062.358.358 0 0 0-.156.031.717.717 0 0 0-.156.125 2 2 0 0 0-.219.297L.36-2.797c.145-.207.274-.367.391-.484.125-.114.238-.192.344-.235a.991.991 0 0 1 .406-.078c.125 0 .223.016.297.047.07.031.133.086.187.156a.746.746 0 0 1 .157.266c.05.105.097.266.14.484.051.211.102.5.156.875.063.368.114.727.157 1.079.351-.438.633-.875.844-1.313.207-.438.312-.766.312-.984 0-.176-.121-.27-.36-.282l.047-.25H4.47l.14.204c-.136.312-.257.574-.359.78a15.35 15.35 0 0 1-.64 1.126c-.243.386-.493.746-.75 1.078A16.3 16.3 0 0 1 1.983.688c-.218.238-.406.41-.562.515A1.68 1.68 0 0 1 1 1.422c-.125.039-.262.062-.406.062a.98.98 0 0 1-.219-.03.86.86 0 0 1-.234-.063L.328.609h.344v.016c0 .164.078.25.234.25.133 0 .29-.078.469-.234.188-.149.406-.371.656-.672zm0 0"/></symbol><symbol overflow="visible" id="l"><path d="M1.938-1.703l-.11-.484a5.164 5.164 0 0 0-.11-.454.834.834 0 0 0-.109-.28.294.294 0 0 0-.109-.126.237.237 0 0 0-.125-.031.345.345 0 0 0-.234.094 1.663 1.663 0 0 0-.266.359l-.297-.172c.145-.219.27-.379.375-.484a.948.948 0 0 1 .297-.235.88.88 0 0 1 .39-.078c.157 0 .286.047.391.14.102.087.18.235.235.454.062.21.113.434.156.672h.047l.344-.422c.144-.188.269-.332.374-.438a1.83 1.83 0 0 1 .266-.25.766.766 0 0 1 .235-.124c.082-.02.175-.032.28-.032.134 0 .255.024.36.063l-.187.719h-.329c-.011-.102-.046-.157-.109-.157a.468.468 0 0 0-.297.156 3.82 3.82 0 0 0-.312.313c-.125.137-.309.344-.547.625.05.262.101.512.156.75.063.242.11.402.14.484a.356.356 0 0 0 .11.157c.04.03.098.046.172.046.05 0 .098-.007.14-.03a.713.713 0 0 0 .157-.141c.05-.063.117-.16.203-.297l.281.172c-.148.23-.273.402-.375.515a.85.85 0 0 1-.312.235.941.941 0 0 1-.36.062.545.545 0 0 1-.265-.062.476.476 0 0 1-.188-.141 1.165 1.165 0 0 1-.14-.234 5.663 5.663 0 0 1-.125-.47 7.525 7.525 0 0 1-.079-.452h-.046c-.25.343-.45.601-.594.765a6.124 6.124 0 0 1-.36.36.782.782 0 0 1-.28.172.81.81 0 0 1-.313.062A.875.875 0 0 1 .109 0l.188-.703h.328c0 .105.035.156.11.156.05 0 .109-.02.171-.062.07-.04.188-.145.344-.313.156-.164.383-.426.688-.781zm0 0"/></symbol></defs><use xlink:href="#a" x=".507" y="29.205"/><use xlink:href="#b" x="5.989" y="31.645"/><use xlink:href="#c" x="14.84" y="29.205"/><use xlink:href="#d" x="27.082" y="29.205"/><use xlink:href="#e" x="44.4" y="9.745"/><use xlink:href="#f" x="73.248" y="9.745"/><use xlink:href="#f" x="89.842" y="9.745"/><use xlink:href="#g" x="33.325" y="19.586"/><use xlink:href="#h" x="38.36" y="19.586"/><use xlink:href="#i" x="44.692" y="19.586"/><use xlink:href="#j" x="51.853" y="21.361"/><use xlink:href="#k" x="56.638" y="22.554"/><path d="M33.324 25.031h28.77" fill="none" stroke-width=".776" stroke="#000" stroke-miterlimit="10"/><use xlink:href="#i" x="39.2" y="34.459"/><use xlink:href="#j" x="46.368" y="36.234"/><use xlink:href="#l" x="51.153" y="37.427"/><use xlink:href="#e" x="73.253" y="28.446"/><use xlink:href="#f" x="89.835" y="28.446"/><use xlink:href="#f" x="44.4" y="47.613"/><use xlink:href="#f" x="73.248" y="47.613"/><g><use xlink:href="#e" x="89.842" y="47.613"/></g><g><use xlink:href="#m" x="96.455" y="29.205"/></g></svg>