<svg xmlns="http://www.w3.org/2000/svg" xmlns:xlink="http://www.w3.org/1999/xlink" width="409pt" height="76" viewBox="0 0 409 57"><defs><symbol overflow="visible" id="a"><path d="M2.188-.64c0-.344-.329-.688-.704-.688-.359 0-.687.344-.687.687 0 .36.328.704.672.704.39 0 .718-.329.718-.704zm0 0"/></symbol><symbol overflow="visible" id="b"><path d="M8.125-3.938c-.016-.124-.031-.25-.031-.359 0-.125.015-.25.031-.36H.953c.031.11.031.235.031.36 0 .11 0 .234-.03.36zm0 2.626c-.016-.125-.031-.235-.031-.36s.015-.234.031-.36H.953a1.4 1.4 0 0 1 .031.36c0 .125 0 .234-.03.36zm0 0"/></symbol><symbol overflow="visible" id="j"><path d="M3.703-5.266c-.453.047-.86.079-1.312.079.187-1.125.328-1.704.53-2.36l-.124-.172c-.235.14-.563.282-.938.422l-.296 2.031c-.516.25-.829.391-1.047.454l-.032.156H1.5L.828-1.281c-.062.297-.156.593-.156.906 0 .297.125.484.36.484.421 0 .827-.234 1.765-1 .219-.156.14-.109.375-.296l-.125-.22-.531.376c-.36.25-.594.36-.735.36-.093 0-.156-.095-.156-.235 0-.313.14-1.25.516-3.016l.156-.734h1.281zm0 0"/></symbol><symbol overflow="visible" id="k"><path d="M4.11-7.61a.735.735 0 0 1-.188-.14c-.063-.063-.11-.11-.14-.188-1.47 1.47-2.345 3.032-2.345 4.563v.781c0 1.516.875 3.078 2.344 4.547a.735.735 0 0 1 .14-.187.735.735 0 0 1 .188-.141C2.781.281 2.156-1.203 2.156-2.594v-.781c0-1.39.625-2.89 1.953-4.234zm0 0"/></symbol><symbol overflow="visible" id="l"><path d="M5 .031v-.36l-.625-.03c-.656-.032-.781-.172-.781-.782v-7.093l-.156-.063c-.782.406-1.626.766-2.72 1.156l.079.5h.125l1.547-.687.031-.016c.063 0 .094.11.094.407v5.796c0 .61-.125.75-.781.782l-.672.03v.36L3.125 0zm0 0"/></symbol><symbol overflow="visible" id="m"><path d="M8.125-2.625c-.016-.125-.031-.25-.031-.36 0-.124.015-.25.031-.359H.953c.031.11.031.235.031.36 0 .109 0 .234-.03.359zm0 0"/></symbol><symbol overflow="visible" id="n"><path d="M3.64-2.594v-.781c0-1.531-.874-3.094-2.343-4.563-.047.079-.094.125-.156.188a.427.427 0 0 1-.188.14c1.328 1.344 1.969 2.844 1.969 4.235v.781c0 1.39-.64 2.875-1.969 4.219.078.031.14.078.188.14.062.063.109.126.156.188C2.766.484 3.64-1.078 3.64-2.594zm0 0"/></symbol><symbol overflow="visible" id="o"><path d="M6.14-1.016l-.109-.218-.312.203c-.36.234-.61.36-.735.36-.078 0-.156-.11-.156-.235 0-.063.016-.188.031-.235l.782-3.312a4.47 4.47 0 0 0 .125-.875c0-.281-.125-.438-.36-.438-.5 0-1.328.454-2.031 1.11-.453.422-.797.828-1.422 1.703l.469-1.922c.047-.219.062-.36.062-.484 0-.266-.093-.407-.265-.407-.266 0-.719.266-1.594.891l-.344.234.094.235.375-.25c.438-.282.484-.297.563-.297.14 0 .218.125.218.297 0 .61-.484 2.922-.984 4.625l.094.14c.296-.078.562-.156.828-.203.234-1.515.484-2.281 1.031-3.11.656-1 1.547-1.75 2.078-1.75.125 0 .203.11.203.298 0 .203-.031.453-.125.843L4.031-1.28c-.11.437-.156.718-.156.906 0 .297.125.484.36.484.312 0 .734-.25 1.906-1.125zm0 0"/></symbol><symbol overflow="visible" id="p"><path d="M5.313-11.078c-.079-.031-.141-.094-.204-.14-.046-.063-.093-.126-.14-.204-2.11 2.125-3.407 4.672-3.407 7.406v2.063c0 2.734 1.297 5.281 3.407 7.39.047-.078.093-.125.14-.187a.595.595 0 0 1 .204-.14C3.327 3.124 2.405.61 2.405-1.954v-2.063c0-2.578.922-5.078 2.906-7.062zm0 0"/></symbol><symbol overflow="visible" id="q"><path d="M4.781-1.953v-2.063c0-2.734-1.297-5.28-3.406-7.406a.595.595 0 0 1-.14.203c-.063.047-.126.11-.188.14 1.984 1.985 2.89 4.485 2.89 7.063v2.063c0 2.562-.906 5.078-2.89 7.062a.735.735 0 0 1 .187.141c.063.063.11.11.141.188C3.485 3.328 4.781.78 4.781-1.954zm0 0"/></symbol><symbol overflow="visible" id="c"><path d="M5.047-.75l-.11-.156-.234.14c-.297.172-.5.266-.594.266-.062 0-.125-.078-.125-.172 0-.047 0-.14.016-.172l.64-2.453c.063-.25.094-.5.094-.64 0-.204-.093-.329-.28-.329-.407 0-1.079.344-1.657.829-.36.312-.625.609-1.125 1.25l.36-1.422c.046-.157.062-.266.062-.36 0-.187-.078-.297-.219-.297-.203 0-.578.204-1.281.657l-.281.171.078.188.312-.188c.344-.218.375-.218.453-.218.094 0 .172.078.172.219 0 .453-.406 2.156-.797 3.421l.063.094c.25-.062.469-.11.687-.156.172-1.11.39-1.688.828-2.297.532-.734 1.235-1.281 1.672-1.281.094 0 .156.078.156.203 0 .156-.015.344-.093.625L3.328-.953c-.078.328-.125.531-.125.672 0 .234.11.36.297.36.25 0 .594-.188 1.547-.829zm0 0"/></symbol><symbol overflow="visible" id="d"><path d="M1.984-.469c0-.265-.265-.515-.562-.515-.297 0-.563.25-.563.515 0 .266.266.516.547.516.313 0 .578-.234.578-.516zm-.03-5.453v-.219h-.329l-.719.344.328 3.625.016.36.094.046.265-.203v-.218l.282-2.891c.046-.36.062-.64.062-.844zm0 0"/></symbol><symbol overflow="visible" id="e"><path d="M3.047-5.625a.34.34 0 0 1-.14-.11c-.048-.046-.079-.077-.11-.14C1.703-4.781 1.062-3.625 1.062-2.5v.578c0 1.125.641 2.281 1.735 3.375.031-.062.062-.094.11-.14a.34.34 0 0 1 .14-.11C2.062.22 1.594-.89 1.594-1.922V-2.5c0-1.031.468-2.14 1.453-3.125zm0 0"/></symbol><symbol overflow="visible" id="f"><path d="M4.406-4.188a1.836 1.836 0 0 0-.453-.078c-.64 0-1.437.688-2.64 2.235l1.03-4.36-.109-.093c-.515.234-.859.312-1.546.375l-.047.187h.468c.235 0 .329.063.329.203 0 .078 0 .157-.016.219L.953-3.125C.828-2.469.656-1.859.172-.015L.25.077l.656-.156.219-1.094c.078-.422.313-.812.64-1.125.673 1.781.97 2.375 1.22 2.375.124 0 .343-.11.78-.39l.438-.282-.078-.172-.406.22c-.14.062-.203.093-.281.093-.11 0-.172-.063-.25-.203-.344-.578-.547-1.047-.938-2.14l.14-.126c.594-.531 1.032-.75 1.516-.75a2.1 2.1 0 0 1 .344.047zm0 0"/></symbol><symbol overflow="visible" id="g"><path d="M6.016-1.953a1.368 1.368 0 0 1-.032-.25c0-.094.016-.188.032-.266H.703c.016.078.031.172.031.266 0 .078-.015.172-.03.25zm0 0"/></symbol><symbol overflow="visible" id="h"><path d="M4.125.031v-.265l-.516-.032c-.515-.03-.625-.125-.625-.578v-5.25L2.86-6.14c-.625.297-1.312.563-2.203.86l.078.375h.094l1.25-.516.031-.016c.047 0 .079.094.079.297v4.297c0 .453-.11.547-.626.578l-.546.032V.03L2.594 0zm0 0"/></symbol><symbol overflow="visible" id="i"><path d="M2.688-1.922V-2.5c0-1.125-.641-2.281-1.735-3.375-.031.063-.062.094-.11.14a.34.34 0 0 1-.14.11c.985.984 1.453 2.094 1.453 3.125v.578c0 1.031-.469 2.14-1.453 3.125a.34.34 0 0 1 .14.11.487.487 0 0 1 .11.14C2.047.36 2.688-.797 2.688-1.922zm0 0"/></symbol></defs><use xlink:href="#a" x="-.486" y="12.977"/><use xlink:href="#a" x="2.503" y="12.977"/><use xlink:href="#a" x="5.492" y="12.977"/><use xlink:href="#b" x="11.792" y="12.977"/><use xlink:href="#c" x="48.22" y="7.37"/><use xlink:href="#d" x="53.758" y="7.37"/><path d="M25.402 9.988h54.032" fill="none" stroke-width=".717" stroke="#000" stroke-miterlimit="10"/><use xlink:href="#e" x="25.404" y="17.893"/><use xlink:href="#f" x="29.155" y="17.893"/><use xlink:href="#g" x="33.817" y="17.893"/><use xlink:href="#h" x="40.541" y="17.893"/><use xlink:href="#i" x="45.539" y="17.893"/><use xlink:href="#d" x="49.29" y="17.893"/><use xlink:href="#e" x="52.148" y="17.893"/><use xlink:href="#c" x="55.899" y="17.893"/><use xlink:href="#g" x="61.437" y="17.893"/><use xlink:href="#f" x="68.161" y="17.893"/><use xlink:href="#i" x="72.823" y="17.893"/><use xlink:href="#d" x="76.574" y="17.893"/><use xlink:href="#j" x="80.627" y="12.977"/><use xlink:href="#f" x="84.668" y="8.745"/><use xlink:href="#g" x="89.33" y="8.745"/><use xlink:href="#h" x="96.054" y="8.745"/><use xlink:href="#k" x="101.551" y="12.977"/><use xlink:href="#l" x="106.62" y="12.977"/><use xlink:href="#m" x="115.252" y="12.977"/><use xlink:href="#j" x="126.992" y="12.977"/><use xlink:href="#n" x="131.033" y="12.977"/><use xlink:href="#c" x="136.107" y="8.745"/><use xlink:href="#g" x="141.645" y="8.745"/><use xlink:href="#f" x="148.369" y="8.745"/><use xlink:href="#m" x="156.186" y="12.977"/><use xlink:href="#e" x="170.115" y="7.117"/><use xlink:href="#c" x="173.866" y="7.117"/><use xlink:href="#g" x="179.404" y="7.117"/><use xlink:href="#f" x="186.128" y="7.117"/><use xlink:href="#i" x="190.79" y="7.117"/><use xlink:href="#c" x="194.541" y="7.117"/><use xlink:href="#d" x="200.079" y="7.117"/><path d="M169.125 9.988h34.805" fill="none" stroke-width=".717" stroke="#000" stroke-miterlimit="10"/><use xlink:href="#f" x="169.124" y="17.893"/><use xlink:href="#d" x="173.786" y="17.893"/><use xlink:href="#e" x="176.644" y="17.893"/><use xlink:href="#c" x="180.395" y="17.893"/><use xlink:href="#g" x="185.933" y="17.893"/><use xlink:href="#f" x="192.656" y="17.893"/><use xlink:href="#i" x="197.319" y="17.893"/><use xlink:href="#d" x="201.07" y="17.893"/><use xlink:href="#j" x="205.123" y="12.977"/><use xlink:href="#f" x="209.164" y="8.745"/><use xlink:href="#k" x="214.325" y="12.977"/><use xlink:href="#l" x="219.394" y="12.977"/><use xlink:href="#m" x="228.026" y="12.977"/><use xlink:href="#j" x="239.766" y="12.977"/><use xlink:href="#n" x="243.807" y="12.977"/><use xlink:href="#c" x="248.881" y="8.745"/><use xlink:href="#g" x="254.419" y="8.745"/><use xlink:href="#h" x="261.143" y="8.745"/><use xlink:href="#g" x="266.141" y="8.745"/><use xlink:href="#f" x="272.865" y="8.745"/><use xlink:href="#a" x="-.486" y="31.689"/><use xlink:href="#a" x="2.503" y="31.689"/><use xlink:href="#a" x="5.492" y="31.689"/><use xlink:href="#b" x="11.792" y="31.689"/><use xlink:href="#o" x="24.201" y="31.689"/><use xlink:href="#p" x="32.845" y="31.689"/><use xlink:href="#e" x="53.596" y="25.829"/><use xlink:href="#c" x="57.347" y="25.829"/><use xlink:href="#g" x="62.885" y="25.829"/><use xlink:href="#h" x="69.609" y="25.829"/><use xlink:href="#i" x="74.607" y="25.829"/><use xlink:href="#d" x="78.358" y="25.829"/><path d="M40.39 28.7h54.032" fill="none" stroke-width=".717" stroke="#000" stroke-miterlimit="10"/><use xlink:href="#e" x="40.392" y="36.605"/><use xlink:href="#f" x="44.143" y="36.605"/><use xlink:href="#g" x="48.805" y="36.605"/><use xlink:href="#h" x="55.529" y="36.605"/><use xlink:href="#i" x="60.527" y="36.605"/><use xlink:href="#d" x="64.278" y="36.605"/><use xlink:href="#e" x="67.136" y="36.605"/><use xlink:href="#c" x="70.887" y="36.605"/><use xlink:href="#g" x="76.425" y="36.605"/><use xlink:href="#f" x="83.149" y="36.605"/><use xlink:href="#i" x="87.811" y="36.605"/><use xlink:href="#d" x="91.562" y="36.605"/><use xlink:href="#j" x="95.615" y="31.689"/><use xlink:href="#f" x="99.656" y="27.457"/><use xlink:href="#g" x="104.318" y="27.457"/><use xlink:href="#h" x="111.042" y="27.457"/><use xlink:href="#k" x="116.539" y="31.689"/><use xlink:href="#l" x="121.608" y="31.689"/><use xlink:href="#m" x="130.24" y="31.689"/><use xlink:href="#j" x="141.98" y="31.689"/><g><use xlink:href="#n" x="146.021" y="31.689"/></g><g><use xlink:href="#c" x="151.095" y="27.457"/><use xlink:href="#g" x="156.633" y="27.457"/><use xlink:href="#f" x="163.357" y="27.457"/></g><g><use xlink:href="#m" x="171.174" y="31.689"/></g><g><use xlink:href="#e" x="184.112" y="25.829"/><use xlink:href="#c" x="187.863" y="25.829"/><use xlink:href="#g" x="193.401" y="25.829"/><use xlink:href="#f" x="200.125" y="25.829"/></g><g><use xlink:href="#i" x="204.787" y="25.829"/><use xlink:href="#e" x="208.538" y="25.829"/><use xlink:href="#c" x="212.289" y="25.829"/><use xlink:href="#g" x="217.827" y="25.829"/><use xlink:href="#h" x="224.551" y="25.829"/><use xlink:href="#i" x="229.549" y="25.829"/><use xlink:href="#d" x="233.3" y="25.829"/></g><path d="M184.113 28.7h52.043" fill="none" stroke-width=".717" stroke="#000" stroke-miterlimit="10"/><g><use xlink:href="#f" x="192.734" y="36.605"/></g><g><use xlink:href="#d" x="197.387" y="36.605"/><use xlink:href="#e" x="200.245" y="36.605"/><use xlink:href="#c" x="203.996" y="36.605"/><use xlink:href="#g" x="209.534" y="36.605"/><use xlink:href="#f" x="216.258" y="36.605"/></g><g><use xlink:href="#i" x="220.92" y="36.605"/><use xlink:href="#d" x="224.671" y="36.605"/></g><g><use xlink:href="#j" x="237.354" y="31.689"/></g><g><use xlink:href="#f" x="241.395" y="27.457"/></g><g><use xlink:href="#k" x="246.555" y="31.689"/><use xlink:href="#l" x="251.624" y="31.689"/></g><g><use xlink:href="#m" x="260.256" y="31.689"/></g><g><use xlink:href="#j" x="271.996" y="31.689"/></g><g><use xlink:href="#n" x="276.037" y="31.689"/></g><g><use xlink:href="#c" x="281.111" y="27.457"/><use xlink:href="#g" x="286.649" y="27.457"/><use xlink:href="#h" x="293.373" y="27.457"/><use xlink:href="#g" x="298.371" y="27.457"/><use xlink:href="#f" x="305.095" y="27.457"/></g><g><use xlink:href="#q" x="310.255" y="31.689"/></g><g><use xlink:href="#a" x="-.486" y="50.056"/><use xlink:href="#a" x="2.503" y="50.056"/><use xlink:href="#a" x="5.492" y="50.056"/></g><g><use xlink:href="#b" x="11.792" y="50.056"/></g><g><use xlink:href="#o" x="24.201" y="50.056"/></g><g><use xlink:href="#p" x="32.845" y="50.056"/></g><g><use xlink:href="#e" x="72.82" y="44.196"/><use xlink:href="#c" x="76.571" y="44.196"/><use xlink:href="#g" x="82.109" y="44.196"/><use xlink:href="#h" x="88.833" y="44.196"/><use xlink:href="#i" x="93.831" y="44.196"/><use xlink:href="#d" x="97.582" y="44.196"/></g><path d="M40.39 47.066h92.477" fill="none" stroke-width=".717" stroke="#000" stroke-miterlimit="10"/><g><use xlink:href="#e" x="40.392" y="54.972"/><use xlink:href="#f" x="44.143" y="54.972"/></g><g><use xlink:href="#g" x="48.805" y="54.972"/><use xlink:href="#h" x="55.529" y="54.972"/><use xlink:href="#i" x="60.527" y="54.972"/><use xlink:href="#d" x="64.278" y="54.972"/><use xlink:href="#e" x="67.136" y="54.972"/><use xlink:href="#e" x="70.887" y="54.972"/><use xlink:href="#c" x="74.638" y="54.972"/><use xlink:href="#g" x="80.176" y="54.972"/><use xlink:href="#h" x="86.9" y="54.972"/><use xlink:href="#i" x="91.898" y="54.972"/><use xlink:href="#g" x="95.649" y="54.972"/><use xlink:href="#e" x="102.373" y="54.972"/><use xlink:href="#f" x="106.124" y="54.972"/></g><g><use xlink:href="#g" x="110.786" y="54.972"/><use xlink:href="#h" x="117.51" y="54.972"/><use xlink:href="#i" x="122.508" y="54.972"/><use xlink:href="#i" x="126.259" y="54.972"/><use xlink:href="#d" x="130.01" y="54.972"/></g><g><use xlink:href="#j" x="134.064" y="50.056"/></g><g><use xlink:href="#e" x="138.104" y="45.823"/><use xlink:href="#f" x="141.855" y="45.823"/></g><g><use xlink:href="#g" x="146.517" y="45.823"/><use xlink:href="#h" x="153.241" y="45.823"/><use xlink:href="#i" x="158.239" y="45.823"/></g><g><use xlink:href="#k" x="162.489" y="50.056"/><use xlink:href="#l" x="167.558" y="50.056"/></g><g><use xlink:href="#m" x="176.19" y="50.056"/></g><g><use xlink:href="#j" x="187.93" y="50.056"/></g><g><use xlink:href="#n" x="191.971" y="50.056"/></g><g><use xlink:href="#e" x="197.045" y="45.823"/><use xlink:href="#c" x="200.796" y="45.823"/><use xlink:href="#g" x="206.334" y="45.823"/><use xlink:href="#h" x="213.058" y="45.823"/><use xlink:href="#i" x="218.056" y="45.823"/><use xlink:href="#g" x="221.807" y="45.823"/><use xlink:href="#e" x="228.531" y="45.823"/><use xlink:href="#f" x="232.282" y="45.823"/></g><g><use xlink:href="#g" x="236.944" y="45.823"/><use xlink:href="#h" x="243.668" y="45.823"/><use xlink:href="#i" x="248.666" y="45.823"/></g><g><use xlink:href="#m" x="255.573" y="50.056"/></g><g><use xlink:href="#e" x="281.715" y="44.196"/><use xlink:href="#c" x="285.466" y="44.196"/><use xlink:href="#g" x="291.004" y="44.196"/><use xlink:href="#h" x="297.728" y="44.196"/><use xlink:href="#i" x="302.726" y="44.196"/><use xlink:href="#d" x="306.477" y="44.196"/></g><path d="M268.512 47.066h54.027" fill="none" stroke-width=".717" stroke="#000" stroke-miterlimit="10"/><g><use xlink:href="#f" x="268.511" y="54.972"/></g><g><use xlink:href="#d" x="273.173" y="54.972"/><use xlink:href="#e" x="276.031" y="54.972"/><use xlink:href="#e" x="279.782" y="54.972"/><use xlink:href="#c" x="283.533" y="54.972"/><use xlink:href="#g" x="289.071" y="54.972"/><use xlink:href="#h" x="295.795" y="54.972"/><use xlink:href="#i" x="300.793" y="54.972"/><use xlink:href="#g" x="304.544" y="54.972"/><use xlink:href="#f" x="311.268" y="54.972"/></g><g><use xlink:href="#i" x="315.93" y="54.972"/><use xlink:href="#d" x="319.681" y="54.972"/></g><g><use xlink:href="#j" x="323.734" y="50.056"/></g><g><use xlink:href="#f" x="327.775" y="45.823"/></g><g><use xlink:href="#k" x="332.935" y="50.056"/><use xlink:href="#l" x="338.004" y="50.056"/></g><g><use xlink:href="#m" x="346.636" y="50.056"/></g><g><use xlink:href="#j" x="358.376" y="50.056"/></g><g><use xlink:href="#n" x="362.417" y="50.056"/></g><g><use xlink:href="#e" x="367.492" y="45.823"/><use xlink:href="#c" x="371.243" y="45.823"/><use xlink:href="#g" x="376.781" y="45.823"/><use xlink:href="#h" x="383.505" y="45.823"/><use xlink:href="#i" x="388.503" y="45.823"/><use xlink:href="#g" x="392.254" y="45.823"/><use xlink:href="#f" x="398.978" y="45.823"/></g><g><use xlink:href="#q" x="404.138" y="50.055"/></g></svg>