<svg xmlns="http://www.w3.org/2000/svg" xmlns:xlink="http://www.w3.org/1999/xlink" width="460" height="40" viewBox="0 0 345 30"><defs><symbol overflow="visible" id="a"><path d="M5.89 11.063C4.517 10.687 3.97 9.437 3.97 7.719V.579c0-1.923-.64-3.095-1.656-3.563 1.015-.47 1.656-1.641 1.656-3.563v-7.156c0-1.719.547-2.953 1.922-3.328-.032-.063-.063-.14-.094-.219-.031-.078-.031-.172-.031-.234-1.672.437-2.75 1.687-2.75 3.78v7.157c0 2.063-.5 3.313-1.875 3.313a.648.648 0 0 1 0 .484c1.375 0 1.875 1.25 1.875 3.328v7.14c0 2.11 1.078 3.345 2.75 3.798 0-.079 0-.157.03-.25.032-.063.063-.157.095-.204zm0 0"/></symbol><symbol overflow="visible" id="b"><path d="M5.781-5.64c-.14-.079-.25-.126-.36-.126-.468 0-.952.438-1.687 1.532l-.453.656-.062-.563c-.14-1.187-.469-1.625-1.172-1.625-.313 0-.578.094-.688.25l-.687 1 .203.11c.36-.407.594-.563.828-.563.39 0 .656.485.86 1.657l.124.75-.468.734C1.703-1.031 1.297-.641.953-.641.781-.64.641-.687.625-.75l-.14-.344-.235.047c0 .234-.016.39-.094.766-.031.156-.031.187-.047.265.172.094.375.141.516.141.39 0 .86-.344 1.234-.906l.907-1.39.125.827C3.062-.328 3.328.125 3.75.125c.266 0 .656-.203 1.031-.547l.578-.516-.093-.234c-.438.36-.735.531-.922.531C4.156-.64 4-.75 3.89-.984a4.761 4.761 0 0 1-.313-1.032l-.203-1.203.422-.578c.547-.781.875-1.062 1.25-1.062.187 0 .328.109.39.28l.172-.046zm0 0"/></symbol><symbol overflow="visible" id="c"><path d="M8.125-3.938c-.016-.124-.031-.25-.031-.359 0-.125.015-.25.031-.36H.953c.031.11.031.235.031.36 0 .11 0 .234-.03.36zm0 2.626c-.016-.125-.031-.235-.031-.36s.015-.234.031-.36H.953a1.4 1.4 0 0 1 .031.36c0 .125 0 .234-.03.36zm0 0"/></symbol><symbol overflow="visible" id="d"><path d="M5.563-4.375c0-2.625-.782-3.86-2.422-3.86-1.844 0-2.797 1.47-2.797 4.36 0 1.406.25 2.61.672 3.188.421.593 1.093.921 1.828.921 1.812 0 2.719-1.546 2.719-4.609zm-1.016.594c0 2.547-.453 3.61-1.547 3.61-1.156 0-1.656-1.22-1.656-4.126 0-2.531.453-3.516 1.578-3.516 1.172 0 1.625 1.172 1.625 4.032zm0 0"/></symbol><symbol overflow="visible" id="e"><path d="M2.39-2.984c0-.438-.28-.72-.718-.72-.422 0-.719.282-.719.72 0 .421.297.718.719.718.437 0 .719-.296.719-.718zm0 0"/></symbol><symbol overflow="visible" id="f"><path d="M4.11-7.61a.735.735 0 0 1-.188-.14c-.063-.063-.11-.11-.14-.188-1.47 1.47-2.345 3.032-2.345 4.563v.781c0 1.516.875 3.078 2.344 4.547a.735.735 0 0 1 .14-.187.735.735 0 0 1 .188-.141C2.781.281 2.156-1.203 2.156-2.594v-.781c0-1.39.625-2.89 1.953-4.234zm0 0"/></symbol><symbol overflow="visible" id="g"><path d="M5 .031v-.36l-.625-.03c-.656-.032-.781-.172-.781-.782v-7.093l-.156-.063c-.782.406-1.626.766-2.72 1.156l.079.5h.125l1.547-.687.031-.016c.063 0 .094.11.094.407v5.796c0 .61-.125.75-.781.782l-.672.03v.36L3.125 0zm0 0"/></symbol><symbol overflow="visible" id="h"><path d="M8.125-2.625c-.016-.125-.031-.25-.031-.36 0-.124.015-.25.031-.359H.953c.031.11.031.235.031.36 0 .109 0 .234-.03.359zm0 0"/></symbol><symbol overflow="visible" id="i"><path d="M3.703-5.266c-.453.047-.86.079-1.312.079.187-1.125.328-1.704.53-2.36l-.124-.172c-.235.14-.563.282-.938.422l-.296 2.031c-.516.25-.829.391-1.047.454l-.032.156H1.5L.828-1.281c-.062.297-.156.593-.156.906 0 .297.125.484.36.484.421 0 .827-.234 1.765-1 .219-.156.14-.109.375-.296l-.125-.22-.531.376c-.36.25-.594.36-.735.36-.093 0-.156-.095-.156-.235 0-.313.14-1.25.516-3.016l.156-.734h1.281zm0 0"/></symbol><symbol overflow="visible" id="j"><path d="M3.64-2.594v-.781c0-1.531-.874-3.094-2.343-4.563-.047.079-.094.125-.156.188a.427.427 0 0 1-.188.14c1.328 1.344 1.969 2.844 1.969 4.235v.781c0 1.39-.64 2.875-1.969 4.219.078.031.14.078.188.14.062.063.109.126.156.188C2.766.484 3.64-1.078 3.64-2.594zm0 0"/></symbol><symbol overflow="visible" id="l"><path d="M5.547-2.469c0-.953-.438-1.469-1.813-2.078 1.094-.75 1.485-1.25 1.485-1.969 0-1.03-.86-1.718-2.125-1.718-1.422 0-2.453.906-2.453 2.156 0 .812.312 1.266 1.375 1.953-.5.234-.704.36-.97.61-.452.453-.687 1-.687 1.609 0 1.234.985 2.14 2.344 2.14 1.547 0 2.844-1.218 2.844-2.703zm-.938.516c0 1-.765 1.781-1.734 1.781C1.859-.172 1.203-.89 1.203-2c0-.875.344-1.422 1.234-1.953l.954.422c.75.344 1.218.922 1.218 1.578zm-.203-4.438c0 .688-.312 1.157-1.078 1.657l-.656-.329c-.766-.359-1.14-.843-1.14-1.437 0-.797.577-1.328 1.421-1.328.875 0 1.453.578 1.453 1.437zm0 0"/></symbol><symbol overflow="visible" id="m"><path d="M5.484-3.031c0-1.344-.968-2.297-2.328-2.297-.578 0-1 .156-1.75.594l.11-2.5 3.64.062.063-.062c-.016-.22-.016-.282-.016-.47 0-.187 0-.25.016-.468l-.063-.062s-1.265.062-2.078.062C2.266-8.172 1-8.234 1-8.234l-.063.062.032 1.64c0 1.048-.031 2.157-.078 2.688l.25.063c.562-.563.875-.719 1.468-.719 1.141 0 1.86.813 1.86 2.094 0 1.328-.766 2.11-2.063 2.11-.656 0-1.25-.22-1.422-.532l-.546-.985-.282.172C.437-.953.578-.578.734-.047c.344.172.813.281 1.329.281.812 0 1.656-.343 2.312-.921.734-.641 1.11-1.454 1.11-2.344zm0 0"/></symbol><symbol overflow="visible" id="n"><path d="M5.516-2.672c0-.578-.235-1.078-.657-1.375-.312-.219-.578-.312-1.171-.422C4.64-5.219 5-5.766 5-6.469c0-1.062-.89-1.765-2.219-1.765-.812 0-1.344.218-1.922.796L.516-5.952H.89l.203-.672c.14-.406.89-.813 1.515-.813.766 0 1.407.641 1.407 1.391 0 .89-.704 1.64-1.547 1.64-.11 0-.563-.03-.563-.03l-.156.64.094.063c.453-.204.672-.266 1-.266 1 0 1.562.64 1.562 1.734 0 1.22-.718 2.016-1.843 2.016a2.035 2.035 0 0 1-1.391-.516C.89-1.03.734-1.296.5-1.953l-.328.125c.266.734.36 1.156.422 1.75.64.219 1.156.312 1.61.312.952 0 2.046-.53 2.702-1.328.407-.5.61-1.015.61-1.578zm0 0"/></symbol><symbol overflow="visible" id="p"><path d="M8.125-2.625c-.016-.125-.031-.25-.031-.36 0-.124.015-.25.031-.359H4.906v-3.234c-.125.031-.25.047-.36.047-.124 0-.25-.016-.359-.047v3.234H.954c.031.11.031.235.031.36 0 .109 0 .234-.03.359h3.234V.594c.109-.016.234-.031.359-.031.11 0 .234.015.36.03v-3.218zm0 0"/></symbol><symbol overflow="visible" id="q"><path d="M5.86-5.656l-.141-.11c-.344.141-.61.204-.875.235l-.422 1.578c-.14.562-.563 1.437-.953 2.015-.422.61-1 1.141-1.266 1.141-.265 0-.25-.578-.234-.734l.187-2.313c.016-.375.047-.828.047-1.172 0-.53-.094-.75-.297-.75-.156 0-.312.094-.89.485L.03-4.61l.14.203.595-.344c.062-.063.218-.156.296-.156.313 0 .266.61.25.812L1.11-1.187l-.015.468c0 .5.218.844.515.844.454 0 1.454-1.016 2.344-2.36L3.375-.187c-.61 2.11-1.219 2.985-2.047 2.985a.737.737 0 0 1-.75-.735c0-.062.016-.156.031-.265L.484 1.75l-.562.406c-.016.078-.016.156-.016.203 0 .516.438.938.985.938 1.265 0 2.578-1.485 3.28-3.688zm0 0"/></symbol><symbol overflow="visible" id="r"><path d="M5.64.031v-.36l-.577-.03c-.579-.032-.72-.188-.72-.907v-.89c.72 0 .97 0 1.298.047v-.86s-.579.047-.97.047h-.327v-1.672c0-2.125.031-3.156.093-3.64l-.14-.063-.89.328L.03-2.437l.125.28h3.188v.891c0 .72-.125.891-.719.907l-.734.03v.36L3.812 0zM3.345-2.922H.78L3.344-7.14zm0 0"/></symbol><symbol overflow="visible" id="s"><path d="M5.594.031c-.032-.25-.032-.36-.032-.531 0-.156 0-.281.032-.547l-4.14.125L3.64-3.234c1.156-1.22 1.515-1.875 1.515-2.782 0-1.375-.937-2.218-2.453-2.218-.86 0-1.453.234-2.031.828l-.203 1.64h.344l.156-.562c.187-.688.625-.984 1.422-.984 1.03 0 1.687.64 1.687 1.656 0 .906-.5 1.781-1.86 3.218L.189-.28V.03L2.858 0zm0 0"/></symbol><symbol overflow="visible" id="k"><path d="M4.547-1.984c0-.422-.203-.797-.547-1.016-.234-.156-.469-.234-.938-.313.766-.546 1.063-.953 1.063-1.468 0-.797-.719-1.313-1.797-1.313-.64 0-1.078.172-1.547.594L.5-4.406h.313l.156-.5c.11-.297.719-.594 1.219-.594.624 0 1.14.469 1.14 1.031 0 .657-.562 1.219-1.25 1.219-.078 0-.453-.031-.453-.031l-.125.469.078.046c.36-.14.547-.187.797-.187.813 0 1.266.469 1.266 1.265 0 .907-.579 1.5-1.485 1.5-.437 0-.828-.124-1.125-.374C.813-.766.671-.97.5-1.438l-.266.078C.437-.813.516-.5.563-.047c.515.156.937.219 1.296.219.782 0 1.657-.39 2.188-.984.328-.36.5-.75.5-1.172zm0 0"/></symbol><symbol overflow="visible" id="o"><path d="M4.594.031c-.016-.187-.016-.281-.016-.406 0-.11 0-.203.016-.39l-3.328.078 1.75-1.704c.937-.906 1.234-1.39 1.234-2.062 0-1.016-.75-1.64-1.984-1.64-.688 0-1.172.171-1.641.624L.469-4.266H.75l.11-.406c.171-.516.515-.734 1.156-.734.828 0 1.359.468 1.359 1.218 0 .672-.406 1.329-1.484 2.391L.234-.203V.03L2.391 0zm0 0"/></symbol></defs><use xlink:href="#a" x="-1.085" y="18.283"/><use xlink:href="#b" x="5.992" y="10.961"/><use xlink:href="#c" x="15.425" y="10.961"/><use xlink:href="#d" x="27.841" y="10.961" fill="#00f"/><use xlink:href="#e" x="36.476" y="10.961"/><use xlink:href="#f" x="42.478" y="10.961"/><use xlink:href="#g" x="47.547" y="10.961"/><use xlink:href="#h" x="56.178" y="10.961"/><use xlink:href="#i" x="67.918" y="10.961"/><use xlink:href="#j" x="71.959" y="10.961"/><use xlink:href="#k" x="77.037" y="6.728"/><use xlink:href="#h" x="85.522" y="10.961" fill="#00f"/><g fill="#00f"><use xlink:href="#l" x="97.597" y="10.961"/><use xlink:href="#m" x="103.574" y="10.961"/></g><use xlink:href="#e" x="112.209" y="10.961"/><use xlink:href="#n" x="118.211" y="10.961"/><use xlink:href="#e" x="126.842" y="10.961"/><use xlink:href="#f" x="132.844" y="10.961"/><use xlink:href="#g" x="137.913" y="10.961"/><use xlink:href="#h" x="146.544" y="10.961"/><use xlink:href="#i" x="158.296" y="10.961"/><use xlink:href="#j" x="162.337" y="10.961"/><use xlink:href="#o" x="167.409" y="6.728"/><use xlink:href="#e" x="175.562" y="10.961"/><use xlink:href="#i" x="181.564" y="10.961"/><use xlink:href="#p" x="188.596" y="10.961" fill="#00f"/><g fill="#00f"><use xlink:href="#g" x="200.671" y="10.961"/><use xlink:href="#d" x="206.648" y="10.961"/><use xlink:href="#d" x="212.626" y="10.961"/></g><use xlink:href="#e" x="221.261" y="10.961"/><use xlink:href="#n" x="227.263" y="10.961"/><use xlink:href="#e" x="235.894" y="10.961"/><use xlink:href="#f" x="241.896" y="10.961"/><use xlink:href="#g" x="246.965" y="10.961"/><use xlink:href="#h" x="255.596" y="10.961"/><use xlink:href="#i" x="267.348" y="10.961"/><use xlink:href="#j" x="271.389" y="10.961"/><use xlink:href="#e" x="279.112" y="10.961"/><use xlink:href="#i" x="285.114" y="10.961"/><use xlink:href="#o" x="289.162" y="6.728"/><use xlink:href="#p" x="297.648" y="10.961" fill="#00f"/><g fill="#00f"><use xlink:href="#g" x="309.711" y="10.961"/><use xlink:href="#d" x="315.688" y="10.961"/><use xlink:href="#d" x="321.666" y="10.961"/></g><use xlink:href="#e" x="330.312" y="10.961"/><use xlink:href="#i" x="336.314" y="10.961"/><use xlink:href="#k" x="340.358" y="6.728"/><use xlink:href="#q" x="5.956" y="25.622"/><use xlink:href="#c" x="15.46" y="25.622"/><use xlink:href="#d" x="27.877" y="25.622" fill="#00f"/><use xlink:href="#e" x="36.512" y="25.622"/><use xlink:href="#f" x="42.514" y="25.622"/><use xlink:href="#g" x="47.583" y="25.622"/><use xlink:href="#h" x="56.214" y="25.622"/><use xlink:href="#i" x="67.954" y="25.622"/><use xlink:href="#j" x="71.995" y="25.622"/><use xlink:href="#k" x="77.072" y="21.39"/><use xlink:href="#p" x="85.558" y="25.622" fill="#00f"/><g fill="#00f"><use xlink:href="#r" x="97.621" y="25.622"/><use xlink:href="#d" x="103.598" y="25.622"/></g><use xlink:href="#e" x="112.245" y="25.622"/><use xlink:href="#n" x="118.247" y="25.622"/><use xlink:href="#e" x="126.878" y="25.622"/><use xlink:href="#f" x="132.88" y="25.622"/><use xlink:href="#g" x="137.949" y="25.622"/><use xlink:href="#h" x="146.58" y="25.622"/><use xlink:href="#i" x="158.332" y="25.622"/><use xlink:href="#j" x="162.373" y="25.622"/><use xlink:href="#o" x="167.444" y="21.39"/><use xlink:href="#e" x="175.598" y="25.622"/><use xlink:href="#i" x="181.6" y="25.622"/><use xlink:href="#p" x="188.632" y="25.622" fill="#00f"/><g fill="#00f"><use xlink:href="#g" x="200.695" y="25.622"/><use xlink:href="#d" x="206.672" y="25.622"/><use xlink:href="#d" x="212.65" y="25.622"/></g><use xlink:href="#e" x="221.296" y="25.622"/><use xlink:href="#n" x="227.298" y="25.622"/><use xlink:href="#e" x="235.929" y="25.622"/><use xlink:href="#f" x="241.931" y="25.622"/><use xlink:href="#g" x="247" y="25.622"/><use xlink:href="#h" x="255.643" y="25.622"/><use xlink:href="#i" x="267.383" y="25.622"/><use xlink:href="#j" x="271.424" y="25.622"/><use xlink:href="#e" x="279.147" y="25.622"/><use xlink:href="#i" x="285.149" y="25.622"/><g><use xlink:href="#o" x="289.198" y="21.39"/></g><g fill="#00f"><use xlink:href="#h" x="297.684" y="25.622"/></g><g fill="#00f"><use xlink:href="#g" x="309.747" y="25.622"/><use xlink:href="#s" x="315.724" y="25.622"/><use xlink:href="#d" x="321.702" y="25.622"/></g><g><use xlink:href="#e" x="330.348" y="25.622"/></g><g><use xlink:href="#i" x="336.35" y="25.622"/></g><g><use xlink:href="#k" x="340.393" y="21.39"/></g></svg>