<svg xmlns:xlink="http://www.w3.org/1999/xlink" width="40.5ex" height="10ex" style="vertical-align: -4.5ex; margin-left: 0ex; margin-right: 0ex; margin-bottom: 1px; margin-top: 1px;" viewBox="0 -2413.3 17444 4326.7" xmlns="http://www.w3.org/2000/svg">
<defs>
<path stroke-width="10" id="E1-LATINMODERNMAIN-3C6" d="M590 304c40 -158 -75 -315 -241 -315c-17 0 -25 1 -34 2c9 -142 12 -175 11 -183c-4 -23 -26 -26 -31 -26c-10 0 -30 6 -36 28c-1 5 0 7 0 20l12 168c-114 25 -198 98 -221 192c-24 96 16 241 44 241c10 0 14 -6 15 -10c0 0 1 -4 -5 -13c-43 -69 -38 -179 -31 -207 c18 -72 88 -128 201 -148c11 195 23 389 168 389c75 0 129 -60 148 -138zM568 282c-12 48 -53 102 -122 102c-89 0 -143 -96 -142 -224l7 -108c1 -3 2 -4 14 -4c8 -1 10 -1 18 -1c154 0 253 122 225 235Z"></path>
<path stroke-width="10" id="E1-LATINMODERNMAIN-3D" d="M722 347c0 -11 -9 -20 -20 -20h-626c-11 0 -20 9 -20 20s9 20 20 20h626c11 0 20 -9 20 -20zM722 153c0 -11 -9 -20 -20 -20h-626c-11 0 -20 9 -20 20s9 20 20 20h626c11 0 20 -9 20 -20Z"></path>
<path stroke-width="10" id="E1-LATINMODERNMAIN-34" d="M471 165h-100v-87c0 -36 2 -47 76 -47h21v-31c-41 3 -94 3 -136 3s-94 0 -135 -3v31h21c74 0 76 11 76 47v87h-266v31l307 469c8 12 11 12 20 12c16 0 16 -6 16 -26v-455h100v-31zM300 196v373l-244 -373h244Z"></path>
<path stroke-width="10" id="E1-LATINMODERNMAIN-22C5" d="M192 250c0 -29 -24 -53 -53 -53s-53 24 -53 53s24 53 53 53s53 -24 53 -53Z"></path>
<path stroke-width="10" id="E1-LATINMODERNNORMAL-1D44E" d="M498 143c0 0 -13 -63 -30 -99c-16 -32 -39 -55 -74 -55c-48 0 -83 33 -91 75c-60 -71 -110 -75 -130 -75c-78 0 -133 66 -133 160c0 146 124 293 241 293c45 0 74 -27 92 -64c3 22 18 44 42 44c17 0 29 -10 29 -27c0 -4 0 -6 -7 -34l-36 -140l-22 -90 c-11 -44 -13 -52 -13 -74c0 -20 3 -46 30 -46c41 0 59 59 76 124c3 14 4 18 14 18c3 0 12 0 12 -10zM361 332c0 6 -14 88 -79 88c-40 0 -85 -37 -116 -96c-23 -46 -55 -169 -55 -219c0 -39 14 -94 64 -94c28 0 69 16 113 71c15 17 15 19 20 37l50 196c1 5 3 11 3 17Z"></path>
<path stroke-width="10" id="E1-LATINMODERNNORMAL-1D45F" d="M436 377c0 -36 -28 -59 -55 -59s-38 19 -38 35c0 26 22 50 52 55c0 0 -16 12 -42 12c-43 0 -72 -26 -80 -33c-24 -22 -52 -69 -56 -82l-32 -130c-4 -18 -38 -154 -40 -158c-7 -20 -25 -28 -37 -28c-15 0 -29 9 -29 27c0 5 6 28 9 43l58 231c13 52 16 63 16 84 c0 38 -14 46 -31 46c-36 0 -56 -48 -73 -119c-6 -22 -7 -23 -17 -23c0 0 -12 0 -12 10c0 3 13 63 31 97c9 18 28 57 74 57c47 0 83 -32 91 -77c19 28 63 77 128 77c51 0 83 -30 83 -65Z"></path>
<path stroke-width="10" id="E1-LATINMODERNNORMAL-1D450" d="M430 107c0 -12 -84 -118 -227 -118c-104 0 -162 79 -162 169c0 141 133 284 268 284c71 0 118 -37 118 -86c0 -40 -27 -64 -56 -64c-19 0 -37 11 -37 35c0 7 2 24 18 39c14 14 28 14 44 14c-14 27 -52 40 -86 40c-55 0 -110 -43 -141 -100c-34 -62 -54 -159 -54 -200 c0 -60 27 -109 90 -109c12 0 121 0 200 99c6 8 8 10 13 10c6 0 12 -7 12 -13Z"></path>
<path stroke-width="10" id="E1-LATINMODERNNORMAL-1D45C" d="M469 273c0 -146 -135 -284 -268 -284c-93 0 -160 70 -160 169c0 142 134 284 268 284c90 0 160 -65 160 -169zM396 312c0 60 -30 108 -88 108c-28 0 -85 -15 -135 -92c-32 -51 -58 -159 -58 -208c0 -78 44 -109 87 -109c46 0 101 34 136 92c38 65 58 170 58 209Z"></path>
<path stroke-width="10" id="E1-LATINMODERNNORMAL-1D460" d="M420 356c0 -39 -24 -56 -46 -56s-31 15 -31 29c0 22 20 44 48 45c-15 39 -65 46 -90 46c-88 0 -112 -61 -112 -90c0 -45 40 -52 76 -60c44 -9 73 -14 100 -42c12 -12 31 -37 31 -73c0 -45 -39 -166 -201 -166c-86 0 -143 40 -143 97c0 45 30 66 56 66c21 0 37 -12 37 -35 c0 -28 -25 -58 -63 -53c23 -53 100 -53 114 -53c120 0 143 84 143 110c0 55 -52 66 -104 76c-29 6 -103 21 -103 99c0 44 37 146 169 146c76 0 119 -41 119 -86Z"></path>
<path stroke-width="10" id="E1-LATINMODERNMAIN-28" d="M332 -238c0 -5 -5 -10 -10 -10c-2 0 -4 1 -6 2c-110 83 -215 283 -215 454v84c0 171 105 371 215 454c2 1 4 2 6 2c5 0 10 -5 10 -10c0 -3 -2 -6 -4 -8c-104 -78 -173 -278 -173 -438v-84c0 -160 69 -360 173 -438c2 -2 4 -5 4 -8Z"></path>
<path stroke-width="10" id="E1-LATINMODERNMAIN-32" d="M449 174l-28 -174h-371c0 24 0 26 11 37l192 214c55 62 105 141 105 221c0 82 -43 163 -134 163c-58 0 -112 -37 -135 -102c3 1 5 1 13 1c35 0 53 -26 53 -52c0 -41 -35 -53 -52 -53c-3 0 -53 0 -53 56c0 89 74 181 187 181c122 0 212 -80 212 -194 c0 -100 -60 -154 -216 -292l-106 -103h180c22 0 88 0 95 8c10 15 17 59 22 89h25Z"></path>
<path stroke-width="10" id="E1-LATINMODERNMAIN-2B" d="M722 250c0 -11 -9 -20 -20 -20h-293v-293c0 -11 -9 -20 -20 -20s-20 9 -20 20v293h-293c-11 0 -20 9 -20 20s9 20 20 20h293v293c0 11 9 20 20 20s20 -9 20 -20v-293h293c11 0 20 -9 20 -20Z"></path>
<path stroke-width="10" id="E1-LATINMODERNMAIN-3B5" d="M420 81c4 -15 -31 -103 -163 -103c-106 0 -178 61 -194 126c-11 46 7 102 57 135c-4 3 -47 28 -57 71c-19 76 72 143 187 143c68 0 138 -38 143 -57c4 -14 -7 -27 -20 -27c-7 0 -10 2 -23 10c-47 28 -83 28 -99 28c-90 0 -179 -36 -163 -97c6 -27 28 -46 54 -58 c33 17 67 19 88 19c38 0 74 -3 80 -27c8 -31 -47 -31 -73 -31c-24 0 -53 0 -90 14c-53 -30 -68 -83 -59 -117c17 -71 106 -86 167 -86c120 0 135 37 143 60c1 3 3 7 8 7c6 0 12 -4 14 -10zM284 243c-19 5 -23 6 -48 6c-17 0 -38 -1 -59 -9c20 -5 32 -5 54 -5c38 0 40 1 53 8 Z"></path>
<path stroke-width="10" id="E1-LATINMODERNMAIN-2212" d="M722 250c0 -11 -9 -20 -20 -20h-626c-11 0 -20 9 -20 20s9 20 20 20h626c11 0 20 -9 20 -20Z"></path>
<path stroke-width="10" id="E1-LATINMODERNMAIN-29" d="M288 208c0 -171 -105 -371 -215 -454c-2 -1 -4 -2 -6 -2c-5 0 -10 5 -10 10c0 3 2 6 4 8c104 78 173 278 173 438v84c0 160 -69 360 -173 438c-2 2 -4 5 -4 8c0 5 5 10 10 10c2 0 4 -1 6 -2c110 -83 215 -283 215 -454v-84Z"></path>
<path stroke-width="10" id="E1-LATINMODERNSIZE1-221A" d="M1020 830c0 -3 0 -5 -7 -18l-547 -1142c-10 -19 -11 -20 -42 -20l-228 531l-71 -54l-15 16l139 107l213 -496l516 1076c5 11 9 20 22 20c12 0 20 -9 20 -20Z"></path>
<path stroke-width="10" id="E1-LATINMODERNSIZE2-221A" d="M1020 1130c0 0 0 -5 -5 -20l-549 -1736c-8 -24 -9 -24 -42 -24l-230 802l-68 -80l-16 15l139 163l215 -750l513 1624c4 13 8 26 23 26c12 0 20 -9 20 -20Z"></path>
<path stroke-width="10" id="E1-LATINMODERNMAIN-221A" d="M853 20c0 -5 -1 -6 -6 -17l-456 -944c-7 -15 -9 -19 -25 -19c-11 0 -13 1 -19 15l-198 435l-52 -39c-9 -8 -11 -8 -14 -8c-6 0 -10 4 -10 11c0 4 1 5 12 14l99 75c9 8 11 8 14 8c7 0 9 -6 13 -14l178 -392l423 876c6 12 9 19 21 19s20 -9 20 -20Z"></path>
<path stroke-width="10" id="E1-LATINMODERNSYMBOLS-239B" d="M823 1474c0 -7 -3 -13 -9 -17c-255 -192 -435 -739 -435 -1207v-250h-102v250c0 490 245 1039 513 1241c3 2 7 4 12 4c11 0 21 -10 21 -21Z"></path>
<path stroke-width="10" id="E1-LATINMODERNSYMBOLS-239D" d="M823 21c0 -12 -10 -21 -21 -21c-5 0 -9 2 -12 4c-268 201 -513 751 -513 1241v250h102v-250c0 -469 180 -1015 435 -1208c6 -3 9 -9 9 -16Z"></path>
<path stroke-width="10" id="E1-LATINMODERNSYMBOLS-239C" d="M379 0h-102v498h102v-498Z"></path>
<path stroke-width="10" id="E1-LATINMODERNSYMBOLS-239E" d="M598 0h-102v250c0 468 -180 1015 -435 1207c-6 4 -9 10 -9 17c0 11 10 21 21 21c5 0 9 -2 12 -4c268 -202 513 -751 513 -1241v-250Z"></path>
<path stroke-width="10" id="E1-LATINMODERNSYMBOLS-23A0" d="M598 1245c0 -490 -245 -1040 -513 -1241c-3 -2 -7 -4 -12 -4c-11 0 -21 9 -21 21c0 7 3 13 9 16c255 193 435 739 435 1208v250h102v-250Z"></path>
<path stroke-width="10" id="E1-LATINMODERNSYMBOLS-239F" d="M598 498v-498h-102v498h102Z"></path>
</defs>
<g stroke="currentColor" fill="currentColor" stroke-width="0" transform="matrix(1 0 0 -1 0 0)">
 <use xlink:href="#E1-LATINMODERNMAIN-3C6" x="0" y="0"></use>
 <use xlink:href="#E1-LATINMODERNMAIN-3D" x="923" y="0"></use>
 <use xlink:href="#E1-LATINMODERNMAIN-34" x="1984" y="0"></use>
 <use xlink:href="#E1-LATINMODERNMAIN-22C5" x="2711" y="0"></use>
 <use xlink:href="#E1-LATINMODERNNORMAL-1D44E" x="3217" y="0"></use>
 <use xlink:href="#E1-LATINMODERNNORMAL-1D45F" x="3751" y="0"></use>
 <use xlink:href="#E1-LATINMODERNNORMAL-1D450" x="4207" y="0"></use>
 <use xlink:href="#E1-LATINMODERNNORMAL-1D450" x="4645" y="0"></use>
 <use xlink:href="#E1-LATINMODERNNORMAL-1D45C" x="5083" y="0"></use>
 <use xlink:href="#E1-LATINMODERNNORMAL-1D460" x="5573" y="0"></use>
<g transform="translate(6213,0)">
<g transform="translate(0,2399)">
 <use xlink:href="#E1-LATINMODERNSYMBOLS-239B" x="0" y="-1505"></use>
<g transform="translate(0,-2807.370386100386) scale(1,2.6424613899613902)">
 <use xlink:href="#E1-LATINMODERNSYMBOLS-239C"></use>
</g>
 <use xlink:href="#E1-LATINMODERNSYMBOLS-239D" x="0" y="-4289"></use>
</g>
<g transform="translate(880,0)">
<g transform="translate(120,0)">
<rect stroke="none" width="9230" height="60" x="0" y="220"></rect>
<g transform="translate(60,1137)">
 <use xlink:href="#E1-LATINMODERNSIZE2-221A" x="0" y="42"></use>
<rect stroke="none" width="8105" height="60" x="1005" y="1142"></rect>
<g transform="translate(1005,0)">
 <use xlink:href="#E1-LATINMODERNMAIN-32" x="0" y="0"></use>
 <use xlink:href="#E1-LATINMODERNMAIN-2B" x="727" y="0"></use>
 <use xlink:href="#E1-LATINMODERNMAIN-3B5" x="1732" y="0"></use>
 <use xlink:href="#E1-LATINMODERNMAIN-2212" x="2494" y="0"></use>
<g transform="translate(3499,0)">
 <use xlink:href="#E1-LATINMODERNSIZE1-221A" x="0" y="6"></use>
<rect stroke="none" width="3600" height="60" x="1005" y="806"></rect>
<g transform="translate(1005,0)">
 <use xlink:href="#E1-LATINMODERNMAIN-3B5" x="0" y="0"></use>
 <use xlink:href="#E1-LATINMODERNMAIN-28" x="540" y="0"></use>
 <use xlink:href="#E1-LATINMODERNMAIN-32" x="934" y="0"></use>
 <use xlink:href="#E1-LATINMODERNMAIN-2B" x="1661" y="0"></use>
 <use xlink:href="#E1-LATINMODERNMAIN-3B5" x="2666" y="0"></use>
 <use xlink:href="#E1-LATINMODERNMAIN-29" x="3206" y="0"></use>
</g>
</g>
</g>
</g>
<g transform="translate(3943,-929)">
 <use xlink:href="#E1-LATINMODERNMAIN-221A" x="0" y="799"></use>
<rect stroke="none" width="505" height="60" x="838" y="789"></rect>
 <use xlink:href="#E1-LATINMODERNMAIN-32" x="838" y="0"></use>
</g>
</g>
</g>
<g transform="translate(10350,2399)">
 <use xlink:href="#E1-LATINMODERNSYMBOLS-239E" x="0" y="-1505"></use>
<g transform="translate(0,-2807.370386100386) scale(1,2.6424613899613902)">
 <use xlink:href="#E1-LATINMODERNSYMBOLS-239F"></use>
</g>
 <use xlink:href="#E1-LATINMODERNSYMBOLS-23A0" x="0" y="-4289"></use>
</g>
</g>
</g>
</svg>