<!--
\left \{ \begin{array}{l}
x = {\color{blue}85} \cdot 3 \cdot (1-t)^2 \cdot t {\color{blue}\ +\ 13} \cdot 3 \cdot (1-t) \cdot t^2 {\color{blue}\ -\ 156} \cdot t^3 \\
y = {\color{blue}40} \cdot 3 \cdot (1-t)^2 \cdot t {\color{blue}\ -\ 141} \cdot 3 \cdot (1-t) \cdot t^2
\end{array} \right.
-->
<svg xmlns:xlink="http://www.w3.org/1999/xlink" width="57.333ex" height="6.167ex" style="vertical-align: -2.5ex; margin-left: 0ex; margin-right: 0ex; margin-bottom: 1px; margin-top: 1px;" viewBox="0 -1562.8 24656.3 2625.7" xmlns="http://www.w3.org/2000/svg">
<defs>
<path stroke-width="10" id="E1-LATINMODERNMAIN-7B" d="M425 -238c0 -7 -5 -12 -12 -12c-105 0 -196 52 -196 125v250c0 58 -55 113 -130 113c-7 0 -12 5 -12 12s5 12 12 12c75 0 130 55 130 113v250c0 73 91 125 196 125c7 0 12 -5 12 -12s-5 -12 -12 -12c-75 0 -130 -49 -130 -101v-250c0 -58 -48 -104 -115 -125 c67 -21 115 -67 115 -125v-250c0 -52 55 -101 130 -101c7 0 12 -5 12 -12Z"></path>
<path stroke-width="10" id="E1-LATINMODERNNORMAL-1D465" d="M527 376c0 -40 -32 -58 -54 -58c-27 0 -38 19 -38 35c0 24 20 49 48 54c-21 13 -45 13 -50 13c-70 0 -93 -92 -99 -118l-34 -137c-11 -44 -17 -66 -17 -88c0 -34 16 -66 55 -66c32 0 100 24 133 131c2 7 4 11 13 11c3 0 12 0 12 -10c0 -25 -57 -154 -160 -154 c-60 0 -96 39 -108 76c-3 -6 -39 -76 -105 -76c-44 0 -94 20 -94 66c0 32 25 58 55 58c15 0 37 -8 37 -35c0 -28 -22 -49 -47 -54c21 -13 44 -13 50 -13c44 0 79 42 95 104c37 140 54 207 54 238c0 58 -35 67 -54 67c-34 0 -100 -25 -134 -131c-2 -9 -5 -11 -13 -11 c0 0 -12 0 -12 10c0 25 57 154 161 154c29 0 83 -10 108 -76c12 23 47 76 105 76c34 0 93 -14 93 -66Z"></path>
<path stroke-width="10" id="E1-LATINMODERNMAIN-3D" d="M722 347c0 -11 -9 -20 -20 -20h-626c-11 0 -20 9 -20 20s9 20 20 20h626c11 0 20 -9 20 -20zM722 153c0 -11 -9 -20 -20 -20h-626c-11 0 -20 9 -20 20s9 20 20 20h626c11 0 20 -9 20 -20Z"></path>
<path stroke-width="10" id="E1-LATINMODERNMAIN-38" d="M457 168c0 -107 -95 -190 -208 -190c-105 0 -207 67 -207 173c0 99 86 155 144 184c-25 17 -62 42 -73 54c-42 47 -44 92 -44 110c0 93 81 167 181 167c91 0 180 -57 180 -149c0 -66 -49 -118 -121 -155c64 -40 80 -50 99 -71c38 -42 49 -87 49 -123zM386 517 c0 72 -64 124 -137 124c-71 0 -136 -42 -136 -103c0 -17 4 -51 50 -81l124 -80c60 35 99 83 99 140zM407 132c0 61 -47 91 -75 110l-123 78c-85 -47 -117 -111 -117 -169c0 -83 72 -145 158 -145c82 0 157 52 157 126Z"></path>
<path stroke-width="10" id="E1-LATINMODERNMAIN-35" d="M449 201c0 -127 -102 -223 -218 -223c-112 0 -181 97 -181 183c0 46 35 53 49 53c33 0 50 -25 50 -49s-17 -49 -50 -49c-11 0 -14 1 -17 2c17 -59 74 -112 147 -112c46 0 83 26 107 65c24 42 24 102 24 137c0 50 -2 89 -18 126c-8 18 -33 64 -85 64 c-81 0 -118 -54 -129 -70c-4 -6 -6 -9 -13 -9c-14 0 -14 8 -14 26v296c0 16 0 24 10 24c0 0 4 0 12 -3c47 -21 93 -28 133 -28c67 0 116 20 136 29c5 3 8 3 8 3c7 0 10 -5 10 -11c0 -13 -70 -104 -193 -104c-32 0 -65 7 -85 13v-195c36 35 79 51 127 51 c108 0 190 -100 190 -219Z"></path>
<path stroke-width="10" id="E1-LATINMODERNMAIN-22C5" d="M192 250c0 -29 -24 -53 -53 -53s-53 24 -53 53s24 53 53 53s53 -24 53 -53Z"></path>
<path stroke-width="10" id="E1-LATINMODERNMAIN-33" d="M457 171c0 -102 -91 -193 -213 -193c-109 0 -202 66 -202 157c0 44 32 58 56 58c29 0 56 -20 56 -56c0 -38 -31 -60 -66 -55c35 -59 110 -76 153 -76c44 0 113 29 113 165c0 98 -37 166 -119 166h-44c-17 0 -24 0 -24 11c0 10 7 11 15 12c7 0 31 2 39 3c25 1 59 4 89 52 c26 44 28 102 28 114c0 90 -55 112 -96 112c-36 0 -102 -13 -133 -62c15 0 62 0 62 -50c0 -29 -20 -51 -51 -51c-29 0 -51 19 -51 52c0 76 76 136 177 136c96 0 184 -56 184 -138c0 -79 -58 -149 -140 -176c104 -21 167 -99 167 -181Z"></path>
<path stroke-width="10" id="E1-LATINMODERNMAIN-28" d="M332 -238c0 -5 -5 -10 -10 -10c-2 0 -4 1 -6 2c-110 83 -215 283 -215 454v84c0 171 105 371 215 454c2 1 4 2 6 2c5 0 10 -5 10 -10c0 -3 -2 -6 -4 -8c-104 -78 -173 -278 -173 -438v-84c0 -160 69 -360 173 -438c2 -2 4 -5 4 -8Z"></path>
<path stroke-width="10" id="E1-LATINMODERNMAIN-31" d="M419 0c-35 3 -122 3 -162 3s-127 0 -162 -3v31h32c90 0 93 12 93 48v518c-52 -26 -111 -26 -131 -26v31c32 0 120 0 182 64c23 0 23 -2 23 -26v-561c0 -37 3 -48 93 -48h32v-31Z"></path>
<path stroke-width="10" id="E1-LATINMODERNMAIN-2212" d="M722 250c0 -11 -9 -20 -20 -20h-626c-11 0 -20 9 -20 20s9 20 20 20h626c11 0 20 -9 20 -20Z"></path>
<path stroke-width="10" id="E1-LATINMODERNNORMAL-1D461" d="M330 420c0 -20 -10 -20 -30 -20h-94l-74 -295c-4 -17 -6 -24 -6 -48c0 -33 10 -46 31 -46c34 0 87 24 130 128c5 11 6 14 15 14c4 0 12 0 12 -10c0 -8 -57 -154 -159 -154c-54 0 -92 38 -92 92c0 18 4 35 76 319h-88c-20 0 -28 0 -28 12c0 19 10 19 30 19h94l39 159 c9 35 37 36 40 36c17 0 29 -10 29 -27c0 -6 -5 -26 -41 -168h88c18 0 28 0 28 -11Z"></path>
<path stroke-width="10" id="E1-LATINMODERNMAIN-29" d="M288 208c0 -171 -105 -371 -215 -454c-2 -1 -4 -2 -6 -2c-5 0 -10 5 -10 10c0 3 2 6 4 8c104 78 173 278 173 438v84c0 160 -69 360 -173 438c-2 2 -4 5 -4 8c0 5 5 10 10 10c2 0 4 -1 6 -2c110 -83 215 -283 215 -454v-84Z"></path>
<path stroke-width="10" id="E1-LATINMODERNMAIN-32" d="M449 174l-28 -174h-371c0 24 0 26 11 37l192 214c55 62 105 141 105 221c0 82 -43 163 -134 163c-58 0 -112 -37 -135 -102c3 1 5 1 13 1c35 0 53 -26 53 -52c0 -41 -35 -53 -52 -53c-3 0 -53 0 -53 56c0 89 74 181 187 181c122 0 212 -80 212 -194 c0 -100 -60 -154 -216 -292l-106 -103h180c22 0 88 0 95 8c10 15 17 59 22 89h25Z"></path>
<path stroke-width="10" id="E1-LATINMODERNMAIN-2B" d="M722 250c0 -11 -9 -20 -20 -20h-293v-293c0 -11 -9 -20 -20 -20s-20 9 -20 20v293h-293c-11 0 -20 9 -20 20s9 20 20 20h293v293c0 11 9 20 20 20s20 -9 20 -20v-293h293c11 0 20 -9 20 -20Z"></path>
<path stroke-width="10" id="E1-LATINMODERNMAIN-36" d="M457 204c0 -132 -95 -226 -206 -226c-93 0 -209 71 -209 338c0 221 135 350 263 350c83 0 127 -48 127 -108c0 -39 -30 -48 -46 -48c-22 0 -46 15 -46 46c0 45 40 45 55 45c-22 34 -64 40 -88 40c-51 0 -175 -36 -175 -289v-24c20 48 57 99 125 99 c111 0 200 -96 200 -223zM367 205c0 49 0 100 -18 137c-31 62 -77 62 -93 62c-90 0 -122 -100 -122 -178c0 -18 0 -98 18 -145c6 -15 36 -75 99 -75c23 0 69 5 99 65c17 36 17 86 17 134Z"></path>
<path stroke-width="10" id="E1-LATINMODERNNORMAL-1D466" d="M490 404c0 -7 0 -9 -4 -23l-96 -382c-28 -113 -131 -204 -234 -204c-62 0 -106 37 -106 87c0 49 33 65 56 65c10 0 37 -4 37 -35c0 -19 -10 -32 -20 -41c-14 -12 -27 -12 -43 -12c17 -39 62 -42 76 -42c46 0 84 29 110 63c40 53 52 102 65 154c-28 -28 -62 -45 -101 -45 c-59 0 -122 30 -122 119c0 47 18 104 58 210c7 19 17 45 17 70c0 32 -17 32 -25 32c-34 0 -74 -30 -101 -124c-5 -16 -6 -18 -16 -18c0 0 -12 0 -12 10c0 9 37 154 132 154c50 0 82 -37 82 -82c0 -20 -4 -31 -20 -72c-34 -88 -51 -150 -51 -196c0 -37 11 -81 62 -81 c66 0 109 70 113 85l45 180l20 80c4 18 12 49 14 54c9 15 25 21 35 21c15 0 29 -9 29 -27Z"></path>
<path stroke-width="10" id="E1-LATINMODERNMAIN-34" d="M471 165h-100v-87c0 -36 2 -47 76 -47h21v-31c-41 3 -94 3 -136 3s-94 0 -135 -3v31h21c74 0 76 11 76 47v87h-266v31l307 469c8 12 11 12 20 12c16 0 16 -6 16 -26v-455h100v-31zM300 196v373l-244 -373h244Z"></path>
<path stroke-width="10" id="E1-LATINMODERNMAIN-30" d="M460 320c0 -79 -5 -157 -37 -226c-44 -95 -120 -116 -174 -116c-49 0 -122 20 -165 101c-41 76 -45 166 -45 241c0 80 5 158 37 227c41 93 114 119 174 119c42 0 124 -16 170 -112c35 -74 40 -154 40 -234zM377 332c0 63 0 139 -10 195c-19 99 -85 117 -118 117 c-25 0 -100 -9 -119 -128c-8 -54 -8 -120 -8 -184c0 -59 0 -151 11 -211c18 -96 77 -121 116 -121c45 0 102 30 117 125c11 64 11 132 11 207Z"></path>
<path stroke-width="10" id="E1-LATINMODERNSIZE6-7B" d="M648 -928c0 -12 -10 -22 -22 -22c-2 0 -4 0 -6 1c-155 48 -292 176 -292 299v600c0 110 -87 241 -210 279c-9 3 -16 11 -16 21s7 18 16 21c123 38 210 169 210 279v600c0 123 137 251 292 299c2 1 4 1 6 1c12 0 22 -10 22 -22c0 -10 -7 -18 -16 -21 c-122 -38 -210 -159 -210 -257v-600c0 -120 -107 -240 -237 -300c130 -60 237 -180 237 -300v-600c0 -98 88 -219 210 -257c9 -3 16 -11 16 -21Z"></path>
</defs>
<g stroke="currentColor" fill="currentColor" stroke-width="0" transform="matrix(1 0 0 -1 0 0)">
 <use xlink:href="#E1-LATINMODERNSIZE6-7B"></use>
<g transform="translate(922,0)">
<g transform="translate(-11,0)">
<g transform="translate(0,708)">
 <use xlink:href="#E1-LATINMODERNNORMAL-1D465" x="0" y="0"></use>
 <use xlink:href="#E1-LATINMODERNMAIN-3D" x="854" y="0"></use>
<g transform="translate(1915,0)">
<g fill="blue" stroke="blue">
<g fill="blue" stroke="blue">
<g fill="blue" stroke="blue">
 <use xlink:href="#E1-LATINMODERNMAIN-38"></use>
 <use xlink:href="#E1-LATINMODERNMAIN-35" x="505" y="0"></use>
</g>
</g>
</g>
</g>
 <use xlink:href="#E1-LATINMODERNMAIN-22C5" x="3147" y="0"></use>
 <use xlink:href="#E1-LATINMODERNMAIN-33" x="3653" y="0"></use>
 <use xlink:href="#E1-LATINMODERNMAIN-22C5" x="4380" y="0"></use>
 <use xlink:href="#E1-LATINMODERNMAIN-28" x="4885" y="0"></use>
 <use xlink:href="#E1-LATINMODERNMAIN-31" x="5279" y="0"></use>
 <use xlink:href="#E1-LATINMODERNMAIN-2212" x="6006" y="0"></use>
 <use xlink:href="#E1-LATINMODERNNORMAL-1D461" x="7011" y="0"></use>
<g transform="translate(7377,0)">
 <use xlink:href="#E1-LATINMODERNMAIN-29" x="0" y="0"></use>
 <use transform="scale(0.707)" xlink:href="#E1-LATINMODERNMAIN-32" x="557" y="513"></use>
</g>
 <use xlink:href="#E1-LATINMODERNMAIN-22C5" x="8451" y="0"></use>
 <use xlink:href="#E1-LATINMODERNNORMAL-1D461" x="8956" y="0"></use>
<g transform="translate(9322,0)">
<g fill="blue" stroke="blue">
<g fill="blue" stroke="blue">
<g fill="blue" stroke="blue"></g>
<g fill="blue" stroke="blue" transform="translate(554,0)">
 <use xlink:href="#E1-LATINMODERNMAIN-2B"></use>
</g>
<g fill="blue" stroke="blue"></g>
<g fill="blue" stroke="blue" transform="translate(1891,0)">
 <use xlink:href="#E1-LATINMODERNMAIN-31"></use>
 <use xlink:href="#E1-LATINMODERNMAIN-33" x="505" y="0"></use>
</g>
</g>
</g>
</g>
 <use xlink:href="#E1-LATINMODERNMAIN-22C5" x="12446" y="0"></use>
 <use xlink:href="#E1-LATINMODERNMAIN-33" x="12951" y="0"></use>
 <use xlink:href="#E1-LATINMODERNMAIN-22C5" x="13678" y="0"></use>
 <use xlink:href="#E1-LATINMODERNMAIN-28" x="14183" y="0"></use>
 <use xlink:href="#E1-LATINMODERNMAIN-31" x="14577" y="0"></use>
 <use xlink:href="#E1-LATINMODERNMAIN-2212" x="15304" y="0"></use>
 <use xlink:href="#E1-LATINMODERNNORMAL-1D461" x="16310" y="0"></use>
 <use xlink:href="#E1-LATINMODERNMAIN-29" x="16676" y="0"></use>
 <use xlink:href="#E1-LATINMODERNMAIN-22C5" x="17292" y="0"></use>
<g transform="translate(17797,0)">
 <use xlink:href="#E1-LATINMODERNNORMAL-1D461" x="0" y="0"></use>
 <use transform="scale(0.707)" xlink:href="#E1-LATINMODERNMAIN-32" x="517" y="513"></use>
</g>
<g transform="translate(18620,0)">
<g fill="blue" stroke="blue">
<g fill="blue" stroke="blue">
<g fill="blue" stroke="blue"></g>
<g fill="blue" stroke="blue" transform="translate(554,0)">
 <use xlink:href="#E1-LATINMODERNMAIN-2212"></use>
</g>
<g fill="blue" stroke="blue"></g>
<g fill="blue" stroke="blue" transform="translate(1891,0)">
 <use xlink:href="#E1-LATINMODERNMAIN-31"></use>
 <use xlink:href="#E1-LATINMODERNMAIN-35" x="505" y="0"></use>
 <use xlink:href="#E1-LATINMODERNMAIN-36" x="1010" y="0"></use>
</g>
</g>
</g>
</g>
 <use xlink:href="#E1-LATINMODERNMAIN-22C5" x="22249" y="0"></use>
<g transform="translate(22754,0)">
 <use xlink:href="#E1-LATINMODERNNORMAL-1D461" x="0" y="0"></use>
 <use transform="scale(0.707)" xlink:href="#E1-LATINMODERNMAIN-33" x="517" y="513"></use>
</g>
</g>
<g transform="translate(0,-791)">
 <use xlink:href="#E1-LATINMODERNNORMAL-1D466" x="0" y="0"></use>
 <use xlink:href="#E1-LATINMODERNMAIN-3D" x="772" y="0"></use>
<g transform="translate(1833,0)">
<g fill="blue" stroke="blue">
<g fill="blue" stroke="blue">
<g fill="blue" stroke="blue">
 <use xlink:href="#E1-LATINMODERNMAIN-34"></use>
 <use xlink:href="#E1-LATINMODERNMAIN-30" x="505" y="0"></use>
</g>
</g>
</g>
</g>
 <use xlink:href="#E1-LATINMODERNMAIN-22C5" x="3065" y="0"></use>
 <use xlink:href="#E1-LATINMODERNMAIN-33" x="3571" y="0"></use>
 <use xlink:href="#E1-LATINMODERNMAIN-22C5" x="4298" y="0"></use>
 <use xlink:href="#E1-LATINMODERNMAIN-28" x="4803" y="0"></use>
 <use xlink:href="#E1-LATINMODERNMAIN-31" x="5197" y="0"></use>
 <use xlink:href="#E1-LATINMODERNMAIN-2212" x="5924" y="0"></use>
 <use xlink:href="#E1-LATINMODERNNORMAL-1D461" x="6929" y="0"></use>
<g transform="translate(7295,0)">
 <use xlink:href="#E1-LATINMODERNMAIN-29" x="0" y="0"></use>
 <use transform="scale(0.707)" xlink:href="#E1-LATINMODERNMAIN-32" x="557" y="513"></use>
</g>
 <use xlink:href="#E1-LATINMODERNMAIN-22C5" x="8369" y="0"></use>
 <use xlink:href="#E1-LATINMODERNNORMAL-1D461" x="8874" y="0"></use>
<g transform="translate(9240,0)">
<g fill="blue" stroke="blue">
<g fill="blue" stroke="blue">
<g fill="blue" stroke="blue"></g>
<g fill="blue" stroke="blue" transform="translate(554,0)">
 <use xlink:href="#E1-LATINMODERNMAIN-2212"></use>
</g>
<g fill="blue" stroke="blue"></g>
<g fill="blue" stroke="blue" transform="translate(1891,0)">
 <use xlink:href="#E1-LATINMODERNMAIN-31"></use>
 <use xlink:href="#E1-LATINMODERNMAIN-34" x="505" y="0"></use>
 <use xlink:href="#E1-LATINMODERNMAIN-31" x="1010" y="0"></use>
</g>
</g>
</g>
</g>
 <use xlink:href="#E1-LATINMODERNMAIN-22C5" x="12869" y="0"></use>
 <use xlink:href="#E1-LATINMODERNMAIN-33" x="13374" y="0"></use>
 <use xlink:href="#E1-LATINMODERNMAIN-22C5" x="14101" y="0"></use>
 <use xlink:href="#E1-LATINMODERNMAIN-28" x="14606" y="0"></use>
 <use xlink:href="#E1-LATINMODERNMAIN-31" x="15000" y="0"></use>
 <use xlink:href="#E1-LATINMODERNMAIN-2212" x="15727" y="0"></use>
 <use xlink:href="#E1-LATINMODERNNORMAL-1D461" x="16733" y="0"></use>
 <use xlink:href="#E1-LATINMODERNMAIN-29" x="17099" y="0"></use>
 <use xlink:href="#E1-LATINMODERNMAIN-22C5" x="17715" y="0"></use>
<g transform="translate(18220,0)">
 <use xlink:href="#E1-LATINMODERNNORMAL-1D461" x="0" y="0"></use>
 <use transform="scale(0.707)" xlink:href="#E1-LATINMODERNMAIN-32" x="517" y="513"></use>
</g>
</g>
</g>
</g>
</g>
</svg>