<svg xmlns="http://www.w3.org/2000/svg" xmlns:xlink="http://www.w3.org/1999/xlink" width="124" height="34pt" viewBox="0 0 93 34"><defs><symbol overflow="visible" id="a"><path d="M3.703-5.266c-.453.047-.86.079-1.312.079.187-1.125.328-1.704.53-2.36l-.124-.172c-.235.14-.563.282-.938.422l-.296 2.031c-.516.25-.829.391-1.047.454l-.032.156H1.5L.828-1.281c-.062.297-.156.593-.156.906 0 .297.125.484.36.484.421 0 .827-.234 1.765-1 .219-.156.14-.109.375-.296l-.125-.22-.531.376c-.36.25-.594.36-.735.36-.093 0-.156-.095-.156-.235 0-.313.14-1.25.516-3.016l.156-.734h1.281zm0 0"/></symbol><symbol overflow="visible" id="e"><path d="M8.125-3.938c-.016-.124-.031-.25-.031-.359 0-.125.015-.25.031-.36H.953c.031.11.031.235.031.36 0 .11 0 .234-.03.36zm0 2.626c-.016-.125-.031-.235-.031-.36s.015-.234.031-.36H.953a1.4 1.4 0 0 1 .031.36c0 .125 0 .234-.03.36zm0 0"/></symbol><symbol overflow="visible" id="f"><path d="M8.125-2.625c-.016-.125-.031-.25-.031-.36 0-.124.015-.25.031-.359H.953c.031.11.031.235.031.36 0 .109 0 .234-.03.359zm0 0"/></symbol><symbol overflow="visible" id="g"><path d="M4.938-8.61c-.204-.093-.547-.156-.844-.156-.125 0-.313.047-.407.094-.296.125-1.265.86-1.546 1.14-.266.266-.407.626-.532 1.298l-.187.953a9.785 9.785 0 0 1-1.031.437l-.063.266h.969l-.11.672C.829-1.578.391.64.125 1.469c-.219.703-.563 1.078-1 1.078-.266 0-.422-.078-.625-.344l-.156.047c-.047.266-.219.844-.282.953a.93.93 0 0 0 .422.094c.485 0 1.141-.375 1.594-.938.735-.859.985-1.671 1.875-5.89.063-.297.156-.656.219-1.047h1.25c.047-.234.125-.5.203-.672l-.047-.078-.094.016c-.28.093-.406.093-1 .093h-.187l.25-1.343c.187-1.032.531-1.485 1.078-1.485.36 0 .672.188.86.469l.124-.047zm0 0"/></symbol><symbol overflow="visible" id="i"><path d="M4.11-7.61a.735.735 0 0 1-.188-.14c-.063-.063-.11-.11-.14-.188-1.47 1.47-2.345 3.032-2.345 4.563v.781c0 1.516.875 3.078 2.344 4.547a.735.735 0 0 1 .14-.187.735.735 0 0 1 .188-.141C2.781.281 2.156-1.203 2.156-2.594v-.781c0-1.39.625-2.89 1.953-4.234zm0 0"/></symbol><symbol overflow="visible" id="j"><path d="M3.64-2.594v-.781c0-1.531-.874-3.094-2.343-4.563-.047.079-.094.125-.156.188a.427.427 0 0 1-.188.14c1.328 1.344 1.969 2.844 1.969 4.235v.781c0 1.39-.64 2.875-1.969 4.219.078.031.14.078.188.14.062.063.109.126.156.188C2.766.484 3.64-1.078 3.64-2.594zm0 0"/></symbol><symbol overflow="visible" id="b"><path d="M5.047-.75l-.11-.156-.234.14c-.297.172-.5.266-.594.266-.062 0-.125-.078-.125-.172 0-.047 0-.14.016-.172l.64-2.453c.063-.25.094-.5.094-.64 0-.204-.093-.329-.28-.329-.407 0-1.079.344-1.657.829-.36.312-.625.609-1.125 1.25l.36-1.422c.046-.157.062-.266.062-.36 0-.187-.078-.297-.219-.297-.203 0-.578.204-1.281.657l-.281.171.078.188.312-.188c.344-.218.375-.218.453-.218.094 0 .172.078.172.219 0 .453-.406 2.156-.797 3.421l.063.094c.25-.062.469-.11.687-.156.172-1.11.39-1.688.828-2.297.532-.734 1.235-1.281 1.672-1.281.094 0 .156.078.156.203 0 .156-.015.344-.093.625L3.328-.953c-.078.328-.125.531-.125.672 0 .234.11.36.297.36.25 0 .594-.188 1.547-.829zm0 0"/></symbol><symbol overflow="visible" id="c"><path d="M6.016-1.953a1.368 1.368 0 0 1-.032-.25c0-.094.016-.188.032-.266H3.625v-2.39c-.094.015-.172.015-.266.015-.093 0-.171 0-.265-.015v2.39H.704c.015.078.03.172.03.266 0 .078-.015.172-.03.25h2.39v2.39c.094-.015.172-.015.265-.015.094 0 .172 0 .266.016v-2.391zm0 0"/></symbol><symbol overflow="visible" id="d"><path d="M4.125.031v-.265l-.516-.032c-.515-.03-.625-.125-.625-.578v-5.25L2.86-6.14c-.625.297-1.312.563-2.203.86l.078.375h.094l1.25-.516.031-.016c.047 0 .079.094.079.297v4.297c0 .453-.11.547-.626.578l-.546.032V.03L2.594 0zm0 0"/></symbol><symbol overflow="visible" id="h"><path d="M4.813-4.188l-.11-.078c-.281.094-.5.157-.719.172l-.328 1.172c-.125.406-.453 1.063-.765 1.485-.344.453-.813.843-1.032.843-.203 0-.187-.422-.171-.531l.14-1.719c.016-.281.031-.61.031-.86 0-.405-.062-.562-.234-.562-.125 0-.25.063-.719.36l-.797.5.11.156.484-.266a.458.458 0 0 1 .25-.109c.235 0 .203.453.203.594L.984-.891.97-.53c0 .375.187.625.422.625.359 0 1.171-.75 1.89-1.75L2.797-.141c-.485 1.563-.969 2.204-1.64 2.204-.329 0-.595-.235-.595-.547 0-.032 0-.11.016-.188l-.094-.031-.468.297v.156c0 .375.359.688.796.688 1.016 0 2.079-1.094 2.641-2.735zm0 0"/></symbol><symbol overflow="visible" id="k"><path d="M2.5-4.438l-.156-.14-.906.328-.86 3.219.172.125.36-.188zm0 0"/></symbol></defs><use xlink:href="#a" x=".343" y="19.872"/><use xlink:href="#b" x="4.324" y="22.646"/><use xlink:href="#c" x="9.862" y="22.646"/><use xlink:href="#d" x="16.586" y="22.646"/><use xlink:href="#e" x="25.404" y="19.872"/><use xlink:href="#a" x="37.802" y="19.872"/><use xlink:href="#b" x="41.792" y="22.646"/><use xlink:href="#f" x="50.485" y="19.872"/><use xlink:href="#g" x="63.424" y="9.396"/><use xlink:href="#h" x="66.747" y="12.17"/><use xlink:href="#i" x="72.306" y="9.396"/><use xlink:href="#a" x="77.375" y="9.396"/><use xlink:href="#b" x="81.356" y="12.17"/><use xlink:href="#j" x="87.392" y="9.396"/><path d="M63.426 16.883H92.46" fill="none" stroke-width=".717" stroke="#000" stroke-miterlimit="10"/><use xlink:href="#g" x="63.424" y="27.917"/><use xlink:href="#k" x="68.696" y="24.378"/><use xlink:href="#h" x="66.747" y="30.691"/><g><use xlink:href="#i" x="72.306" y="27.917"/><use xlink:href="#a" x="77.375" y="27.917"/></g><g><use xlink:href="#b" x="81.356" y="30.691"/></g><g><use xlink:href="#j" x="87.392" y="27.917"/></g></svg>