<svg xmlns:xlink="http://www.w3.org/1999/xlink" width="32.167ex" height="11.5ex" style="vertical-align: -5.167ex; margin-left: 0ex; margin-right: 0ex; margin-bottom: 1px; margin-top: 1px;" viewBox="0 -2723.4 13844.9 4946.9" xmlns="http://www.w3.org/2000/svg">
<defs>
<path stroke-width="10" id="E1-LATINMODERNNORMAL-1D459" d="M258 683l-144 -578c-5 -19 -6 -24 -6 -48c0 -14 0 -46 30 -46c40 0 59 59 76 124c3 14 4 18 14 18c3 0 12 0 12 -10c0 0 -12 -60 -30 -98c-17 -36 -42 -56 -75 -56c-47 0 -91 35 -91 92c0 16 2 23 5 34l126 500l3 20c0 8 -1 17 -49 17c-15 0 -25 0 -25 11 c0 19 11 20 19 21c26 2 99 10 122 10c13 0 13 -11 13 -11Z"></path>
<path stroke-width="10" id="E1-LATINMODERNNORMAL-1D456" d="M284 625c0 -30 -30 -53 -53 -53c-24 0 -38 17 -38 36c0 27 27 53 54 53c23 0 37 -16 37 -36zM293 143c0 -9 -37 -154 -131 -154c-48 0 -82 35 -82 82c0 21 13 54 23 80c16 43 61 159 69 185c4 10 11 31 11 52c0 32 -17 32 -25 32c-34 0 -74 -30 -101 -124 c-5 -16 -6 -18 -16 -18c0 0 -12 0 -12 10c0 9 38 154 132 154c50 0 82 -37 82 -82c0 -19 -5 -33 -13 -53c-10 -27 -10 -29 -22 -58l-39 -105c-23 -61 -29 -75 -29 -100c0 -23 7 -33 24 -33c51 0 84 61 102 124c5 15 5 18 15 18c3 0 12 0 12 -10Z"></path>
<path stroke-width="10" id="E1-LATINMODERNNORMAL-1D45B" d="M571 143c0 -8 -37 -154 -131 -154c-47 0 -82 35 -82 82c0 11 1 23 10 46c16 43 65 171 65 233c0 33 -9 70 -54 70c-95 0 -148 -91 -163 -122l-13 -50c-5 -23 -11 -45 -17 -67l-22 -90c-6 -25 -18 -72 -19 -74c-7 -20 -25 -28 -37 -28c-15 0 -29 9 -29 27c0 5 6 28 9 43 l58 231c13 52 16 63 16 84c0 33 -11 46 -31 46c-36 0 -56 -48 -73 -119c-6 -22 -7 -23 -17 -23c0 0 -12 0 -12 10c0 4 14 63 30 97c10 18 29 57 75 57s87 -31 92 -87c17 23 66 87 156 87c72 0 115 -40 115 -107c0 -57 -42 -167 -61 -220c-9 -22 -18 -46 -18 -71 c0 -23 7 -33 24 -33c49 0 82 56 102 124c5 15 5 18 15 18c3 0 12 0 12 -10Z"></path>
<path stroke-width="10" id="E1-LATINMODERNNORMAL-1D452" d="M430 107c0 -12 -84 -118 -227 -118c-98 0 -157 79 -157 181c0 175 151 272 262 272c69 0 107 -41 107 -85c0 -14 -5 -73 -75 -103c-50 -21 -124 -23 -153 -23h-53c-15 -61 -16 -92 -16 -104c0 -32 9 -116 87 -116c12 0 121 0 200 99c6 8 8 10 13 10c6 0 12 -7 12 -13z M382 357c0 34 -27 63 -74 63c-26 0 -129 -15 -168 -167h41c41 0 201 0 201 104Z"></path>
<path stroke-width="10" id="E1-LATINMODERNNORMAL-1D44E" d="M498 143c0 0 -13 -63 -30 -99c-16 -32 -39 -55 -74 -55c-48 0 -83 33 -91 75c-60 -71 -110 -75 -130 -75c-78 0 -133 66 -133 160c0 146 124 293 241 293c45 0 74 -27 92 -64c3 22 18 44 42 44c17 0 29 -10 29 -27c0 -4 0 -6 -7 -34l-36 -140l-22 -90 c-11 -44 -13 -52 -13 -74c0 -20 3 -46 30 -46c41 0 59 59 76 124c3 14 4 18 14 18c3 0 12 0 12 -10zM361 332c0 6 -14 88 -79 88c-40 0 -85 -37 -116 -96c-23 -46 -55 -169 -55 -219c0 -39 14 -94 64 -94c28 0 69 16 113 71c15 17 15 19 20 37l50 196c1 5 3 11 3 17Z"></path>
<path stroke-width="10" id="E1-LATINMODERNNORMAL-1D45F" d="M436 377c0 -36 -28 -59 -55 -59s-38 19 -38 35c0 26 22 50 52 55c0 0 -16 12 -42 12c-43 0 -72 -26 -80 -33c-24 -22 -52 -69 -56 -82l-32 -130c-4 -18 -38 -154 -40 -158c-7 -20 -25 -28 -37 -28c-15 0 -29 9 -29 27c0 5 6 28 9 43l58 231c13 52 16 63 16 84 c0 38 -14 46 -31 46c-36 0 -56 -48 -73 -119c-6 -22 -7 -23 -17 -23c0 0 -12 0 -12 10c0 3 13 63 31 97c9 18 28 57 74 57c47 0 83 -32 91 -77c19 28 63 77 128 77c51 0 83 -30 83 -65Z"></path>
<path stroke-width="10" id="E1-LATINMODERNMAIN-3D" d="M722 347c0 -11 -9 -20 -20 -20h-626c-11 0 -20 9 -20 20s9 20 20 20h626c11 0 20 -9 20 -20zM722 153c0 -11 -9 -20 -20 -20h-626c-11 0 -20 9 -20 20s9 20 20 20h626c11 0 20 -9 20 -20Z"></path>
<path stroke-width="10" id="E1-LATINMODERNMAIN-31" d="M419 0c-35 3 -122 3 -162 3s-127 0 -162 -3v31h32c90 0 93 12 93 48v518c-52 -26 -111 -26 -131 -26v31c32 0 120 0 182 64c23 0 23 -2 23 -26v-561c0 -37 3 -48 93 -48h32v-31Z"></path>
<path stroke-width="10" id="E1-LATINMODERNMAIN-2B" d="M722 250c0 -11 -9 -20 -20 -20h-293v-293c0 -11 -9 -20 -20 -20s-20 9 -20 20v293h-293c-11 0 -20 9 -20 20s9 20 20 20h293v293c0 11 9 20 20 20s20 -9 20 -20v-293h293c11 0 20 -9 20 -20Z"></path>
<path stroke-width="10" id="E1-LATINMODERNNORMAL-1D460" d="M420 356c0 -39 -24 -56 -46 -56s-31 15 -31 29c0 22 20 44 48 45c-15 39 -65 46 -90 46c-88 0 -112 -61 -112 -90c0 -45 40 -52 76 -60c44 -9 73 -14 100 -42c12 -12 31 -37 31 -73c0 -45 -39 -166 -201 -166c-86 0 -143 40 -143 97c0 45 30 66 56 66c21 0 37 -12 37 -35 c0 -28 -25 -58 -63 -53c23 -53 100 -53 114 -53c120 0 143 84 143 110c0 55 -52 66 -104 76c-29 6 -103 21 -103 99c0 44 37 146 169 146c76 0 119 -41 119 -86Z"></path>
<path stroke-width="10" id="E1-LATINMODERNNORMAL-1D45E" d="M452 431l-138 -556c-2 -9 -4 -15 -4 -22c0 -9 0 -16 48 -16c16 0 26 0 26 -11c0 -20 -13 -20 -18 -20c-33 0 -69 3 -103 3c-33 0 -68 -3 -100 -3c-13 0 -13 11 -13 11c0 20 10 20 23 20c56 1 64 5 72 33l45 179c-36 -36 -75 -60 -118 -60c-73 0 -132 62 -132 160 c0 145 123 293 241 293c32 0 71 -16 93 -70c17 29 57 69 68 69c7 0 10 -6 10 -10zM360 332c0 7 -14 88 -79 88c-41 0 -93 -42 -124 -116c-17 -42 -46 -151 -46 -199c0 -17 4 -94 64 -94c56 0 112 64 127 92c3 4 58 223 58 229Z"></path>
<path stroke-width="10" id="E1-LATINMODERNNORMAL-1D462" d="M543 143c0 0 -13 -63 -30 -99c-16 -32 -39 -55 -74 -55c-43 0 -78 26 -89 67c-17 -22 -53 -67 -119 -67c-54 0 -123 25 -123 120c0 49 21 111 58 210c6 15 17 44 17 68c0 32 -16 33 -25 33c-38 0 -76 -37 -101 -124c-5 -16 -6 -18 -16 -18c0 0 -12 0 -12 10 c0 9 37 154 132 154c50 0 82 -37 82 -82c0 -19 -5 -33 -17 -63c-26 -69 -54 -148 -54 -204c0 -37 10 -82 62 -82c73 0 113 80 114 84l75 301c8 34 34 35 39 35c15 0 29 -9 29 -27c0 -6 -10 -44 -15 -67c-4 -15 -14 -53 -17 -68l-28 -108c-8 -35 -20 -82 -20 -104 c0 -33 10 -46 31 -46c42 0 61 68 75 124c3 14 4 18 14 18c3 0 12 0 12 -10Z"></path>
<path stroke-width="10" id="E1-LATINMODERNMAIN-32" d="M449 174l-28 -174h-371c0 24 0 26 11 37l192 214c55 62 105 141 105 221c0 82 -43 163 -134 163c-58 0 -112 -37 -135 -102c3 1 5 1 13 1c35 0 53 -26 53 -52c0 -41 -35 -53 -52 -53c-3 0 -53 0 -53 56c0 89 74 181 187 181c122 0 212 -80 212 -194 c0 -100 -60 -154 -216 -292l-106 -103h180c22 0 88 0 95 8c10 15 17 59 22 89h25Z"></path>
<path stroke-width="10" id="E1-LATINMODERNNORMAL-1D450" d="M430 107c0 -12 -84 -118 -227 -118c-104 0 -162 79 -162 169c0 141 133 284 268 284c71 0 118 -37 118 -86c0 -40 -27 -64 -56 -64c-19 0 -37 11 -37 35c0 7 2 24 18 39c14 14 28 14 44 14c-14 27 -52 40 -86 40c-55 0 -110 -43 -141 -100c-34 -62 -54 -159 -54 -200 c0 -60 27 -109 90 -109c12 0 121 0 200 99c6 8 8 10 13 10c6 0 12 -7 12 -13Z"></path>
<path stroke-width="10" id="E1-LATINMODERNNORMAL-1D44F" d="M415 282c0 -144 -123 -293 -241 -293c-74 0 -127 62 -127 157c0 35 4 51 16 101l82 326c5 21 14 55 14 62c0 10 -2 17 -50 17c-15 0 -24 0 -24 12c0 18 11 19 19 20c26 2 99 10 122 10c13 0 13 -11 13 -11l-74 -301c30 31 71 60 117 60c80 0 133 -69 133 -160zM343 326 c0 64 -27 94 -63 94c-26 0 -71 -15 -120 -80c-9 -11 -9 -13 -15 -35l-22 -92c-16 -63 -16 -82 -16 -101c0 -74 33 -101 67 -101c39 0 85 36 118 103c18 38 51 153 51 212Z"></path>
<path stroke-width="10" id="E1-LATINMODERNMAIN-33" d="M457 171c0 -102 -91 -193 -213 -193c-109 0 -202 66 -202 157c0 44 32 58 56 58c29 0 56 -20 56 -56c0 -38 -31 -60 -66 -55c35 -59 110 -76 153 -76c44 0 113 29 113 165c0 98 -37 166 -119 166h-44c-17 0 -24 0 -24 11c0 10 7 11 15 12c7 0 31 2 39 3c25 1 59 4 89 52 c26 44 28 102 28 114c0 90 -55 112 -96 112c-36 0 -102 -13 -133 -62c15 0 62 0 62 -50c0 -29 -20 -51 -51 -51c-29 0 -51 19 -51 52c0 76 76 136 177 136c96 0 184 -56 184 -138c0 -79 -58 -149 -140 -176c104 -21 167 -99 167 -181Z"></path>
<path stroke-width="10" id="E1-LATINMODERNNORMAL-210E" d="M546 143c0 -8 -37 -154 -131 -154c-47 0 -82 35 -82 82c0 20 5 32 13 55c24 61 62 170 62 224c0 36 -11 70 -54 70s-74 -19 -96 -35c-34 -27 -65 -83 -68 -92c-1 -6 -9 -39 -11 -45c-5 -23 -11 -45 -17 -67l-22 -90l-19 -76c-5 -14 -21 -26 -37 -26c-9 0 -29 5 -29 28 c0 6 0 8 4 22l145 576l3 20c0 10 -2 17 -50 17c-15 0 -24 0 -24 12c0 18 11 19 19 20c26 2 99 10 122 10c13 0 13 -11 13 -11l-78 -318c37 46 85 77 148 77c75 0 115 -42 115 -107c0 -58 -45 -177 -61 -220c-9 -22 -18 -46 -18 -71c0 -23 7 -33 24 -33c55 0 87 71 102 124 c5 15 5 18 15 18c3 0 12 0 12 -10Z"></path>
<path stroke-width="10" id="E1-LATINMODERNNORMAL-1D466" d="M490 404c0 -7 0 -9 -4 -23l-96 -382c-28 -113 -131 -204 -234 -204c-62 0 -106 37 -106 87c0 49 33 65 56 65c10 0 37 -4 37 -35c0 -19 -10 -32 -20 -41c-14 -12 -27 -12 -43 -12c17 -39 62 -42 76 -42c46 0 84 29 110 63c40 53 52 102 65 154c-28 -28 -62 -45 -101 -45 c-59 0 -122 30 -122 119c0 47 18 104 58 210c7 19 17 45 17 70c0 32 -17 32 -25 32c-34 0 -74 -30 -101 -124c-5 -16 -6 -18 -16 -18c0 0 -12 0 -12 10c0 9 37 154 132 154c50 0 82 -37 82 -82c0 -20 -4 -31 -20 -72c-34 -88 -51 -150 -51 -196c0 -37 11 -81 62 -81 c66 0 109 70 113 85l45 180l20 80c4 18 12 49 14 54c9 15 25 21 35 21c15 0 29 -9 29 -27Z"></path>
<path stroke-width="10" id="E1-LATINMODERNNORMAL-1D45D" d="M490 282c0 -147 -125 -293 -241 -293c-51 0 -79 35 -92 64c-7 -25 -49 -188 -49 -200c0 -9 0 -16 50 -16c14 0 24 0 24 -11c0 -20 -13 -20 -18 -20c-32 0 -66 3 -99 3c-28 0 -57 -3 -84 -3c-8 0 -13 4 -13 12c0 19 11 19 23 19c44 0 46 7 54 41l112 445c4 17 7 28 7 51 c0 38 -14 46 -31 46c-36 0 -56 -48 -73 -119c-6 -22 -7 -23 -17 -23c0 0 -12 0 -12 10c0 3 13 63 31 97c9 18 28 57 74 57c37 0 80 -21 90 -75c33 39 81 75 131 75c76 0 133 -66 133 -160zM418 326c0 59 -24 94 -64 94c-17 0 -46 -7 -81 -38c-18 -15 -45 -43 -52 -70 l-49 -196c-3 -12 -3 -16 -3 -16c0 -6 13 -89 79 -89c37 0 85 33 119 103c18 38 51 153 51 212Z"></path>
<path stroke-width="10" id="E1-LATINMODERNMAIN-34" d="M471 165h-100v-87c0 -36 2 -47 76 -47h21v-31c-41 3 -94 3 -136 3s-94 0 -135 -3v31h21c74 0 76 11 76 47v87h-266v31l307 469c8 12 11 12 20 12c16 0 16 -6 16 -26v-455h100v-31zM300 196v373l-244 -373h244Z"></path>
<path stroke-width="10" id="E1-LATINMODERNMAIN-36" d="M457 204c0 -132 -95 -226 -206 -226c-93 0 -209 71 -209 338c0 221 135 350 263 350c83 0 127 -48 127 -108c0 -39 -30 -48 -46 -48c-22 0 -46 15 -46 46c0 45 40 45 55 45c-22 34 -64 40 -88 40c-51 0 -175 -36 -175 -289v-24c20 48 57 99 125 99 c111 0 200 -96 200 -223zM367 205c0 49 0 100 -18 137c-31 62 -77 62 -93 62c-90 0 -122 -100 -122 -178c0 -18 0 -98 18 -145c6 -15 36 -75 99 -75c23 0 69 5 99 65c17 36 17 86 17 134Z"></path>
</defs>
<g stroke="currentColor" fill="currentColor" stroke-width="0" transform="matrix(1 0 0 -1 0 0)">
<g transform="translate(167,0)">
<g transform="translate(-11,0)">
<g transform="translate(2029,1909)">
 <use xlink:href="#E1-LATINMODERNNORMAL-1D459" x="0" y="0"></use>
 <use xlink:href="#E1-LATINMODERNNORMAL-1D456" x="303" y="0"></use>
 <use xlink:href="#E1-LATINMODERNNORMAL-1D45B" x="653" y="0"></use>
 <use xlink:href="#E1-LATINMODERNNORMAL-1D452" x="1258" y="0"></use>
 <use xlink:href="#E1-LATINMODERNNORMAL-1D44E" x="1729" y="0"></use>
 <use xlink:href="#E1-LATINMODERNNORMAL-1D45F" x="2263" y="0"></use>
</g>
<g transform="translate(1779,609)">
 <use xlink:href="#E1-LATINMODERNNORMAL-1D460" x="0" y="0"></use>
 <use xlink:href="#E1-LATINMODERNNORMAL-1D45E" x="474" y="0"></use>
 <use xlink:href="#E1-LATINMODERNNORMAL-1D462" x="931" y="0"></use>
 <use xlink:href="#E1-LATINMODERNNORMAL-1D44E" x="1508" y="0"></use>
 <use xlink:href="#E1-LATINMODERNNORMAL-1D45F" x="2042" y="0"></use>
 <use xlink:href="#E1-LATINMODERNNORMAL-1D452" x="2498" y="0"></use>
</g>
<g transform="translate(2511,-695)">
 <use xlink:href="#E1-LATINMODERNNORMAL-1D450" x="0" y="0"></use>
 <use xlink:href="#E1-LATINMODERNNORMAL-1D462" x="438" y="0"></use>
 <use xlink:href="#E1-LATINMODERNNORMAL-1D44F" x="1015" y="0"></use>
 <use xlink:href="#E1-LATINMODERNNORMAL-1D456" x="1449" y="0"></use>
 <use xlink:href="#E1-LATINMODERNNORMAL-1D450" x="1799" y="0"></use>
</g>
<g transform="translate(0,-1995)">
 <use xlink:href="#E1-LATINMODERNNORMAL-210E" x="0" y="0"></use>
 <use xlink:href="#E1-LATINMODERNNORMAL-1D466" x="581" y="0"></use>
 <use xlink:href="#E1-LATINMODERNNORMAL-1D45D" x="1076" y="0"></use>
 <use xlink:href="#E1-LATINMODERNNORMAL-1D452" x="1584" y="0"></use>
 <use xlink:href="#E1-LATINMODERNNORMAL-1D45F" x="2055" y="0"></use>
 <use xlink:href="#E1-LATINMODERNNORMAL-1D450" x="2511" y="0"></use>
 <use xlink:href="#E1-LATINMODERNNORMAL-1D462" x="2949" y="0"></use>
 <use xlink:href="#E1-LATINMODERNNORMAL-1D44F" x="3526" y="0"></use>
 <use xlink:href="#E1-LATINMODERNNORMAL-1D456" x="3960" y="0"></use>
 <use xlink:href="#E1-LATINMODERNNORMAL-1D450" x="4310" y="0"></use>
</g>
</g>
<g transform="translate(4737,0)">
<g transform="translate(0,1909)">
 <use xlink:href="#E1-LATINMODERNMAIN-3D" x="277" y="0"></use>
 <use xlink:href="#E1-LATINMODERNMAIN-31" x="3838" y="0"></use>
 <use xlink:href="#E1-LATINMODERNMAIN-2B" x="4565" y="0"></use>
 <use xlink:href="#E1-LATINMODERNMAIN-31" x="5571" y="0"></use>
</g>
<g transform="translate(0,609)">
 <use xlink:href="#E1-LATINMODERNMAIN-3D" x="277" y="0"></use>
 <use xlink:href="#E1-LATINMODERNMAIN-31" x="3038" y="0"></use>
 <use xlink:href="#E1-LATINMODERNMAIN-2B" x="3765" y="0"></use>
 <use xlink:href="#E1-LATINMODERNMAIN-32" x="4771" y="0"></use>
 <use xlink:href="#E1-LATINMODERNMAIN-2B" x="5498" y="0"></use>
 <use xlink:href="#E1-LATINMODERNMAIN-31" x="6503" y="0"></use>
</g>
<g transform="translate(0,-695)">
 <use xlink:href="#E1-LATINMODERNMAIN-3D" x="277" y="0"></use>
 <use xlink:href="#E1-LATINMODERNMAIN-31" x="2188" y="0"></use>
 <use xlink:href="#E1-LATINMODERNMAIN-2B" x="2915" y="0"></use>
 <use xlink:href="#E1-LATINMODERNMAIN-33" x="3921" y="0"></use>
 <use xlink:href="#E1-LATINMODERNMAIN-2B" x="4648" y="0"></use>
 <use xlink:href="#E1-LATINMODERNMAIN-33" x="5653" y="0"></use>
 <use xlink:href="#E1-LATINMODERNMAIN-2B" x="6380" y="0"></use>
 <use xlink:href="#E1-LATINMODERNMAIN-31" x="7385" y="0"></use>
</g>
<g transform="translate(0,-1995)">
 <use xlink:href="#E1-LATINMODERNMAIN-3D" x="277" y="0"></use>
 <use xlink:href="#E1-LATINMODERNMAIN-31" x="1338" y="0"></use>
 <use xlink:href="#E1-LATINMODERNMAIN-2B" x="2065" y="0"></use>
 <use xlink:href="#E1-LATINMODERNMAIN-34" x="3071" y="0"></use>
 <use xlink:href="#E1-LATINMODERNMAIN-2B" x="3798" y="0"></use>
 <use xlink:href="#E1-LATINMODERNMAIN-36" x="4803" y="0"></use>
 <use xlink:href="#E1-LATINMODERNMAIN-2B" x="5530" y="0"></use>
 <use xlink:href="#E1-LATINMODERNMAIN-34" x="6535" y="0"></use>
 <use xlink:href="#E1-LATINMODERNMAIN-2B" x="7263" y="0"></use>
 <use xlink:href="#E1-LATINMODERNMAIN-31" x="8268" y="0"></use>
</g>
</g>
</g>
</g>
</svg>