<svg xmlns="http://www.w3.org/2000/svg" xmlns:xlink="http://www.w3.org/1999/xlink" width="104pt" height="104" viewBox="0 0 104 78"><defs><symbol overflow="visible" id="a"><path d="M2.016-6.734c.05-.196.086-.36.109-.485.02-.125.031-.238.031-.343a.414.414 0 0 0-.078-.266.322.322 0 0 0-.187-.125c-.075-.031-.215-.05-.422-.063l.078-.312 1.469-.047h.343L1.922-1.891c-.086.387-.125.672-.125.86 0 .156.023.273.078.343.05.075.129.11.234.11a.68.68 0 0 0 .375-.14c.133-.102.32-.286.563-.548l.328.329C3-.54 2.691-.27 2.453-.125a1.553 1.553 0 0 1-.812.219.756.756 0 0 1-.61-.281C.883-.376.813-.61.813-.891c0-.27.05-.648.156-1.14zm0 0"/></symbol><symbol overflow="visible" id="b"><path d="M2.063-2.969c0 1.367.218 2.492.656 3.375.445.895 1.117 1.492 2.015 1.797l-.14.453C3.457 2.352 2.582 1.703 1.969.703c-.606-.988-.907-2.191-.907-3.61 0-1.405.301-2.609.907-3.609.613-1 1.488-1.648 2.625-1.953l.172.453c-.918.305-1.602.891-2.047 1.766-.438.867-.656 1.96-.656 3.281zm0 0"/></symbol><symbol overflow="visible" id="c"><path d="M2.797-2.656a65.21 65.21 0 0 0-.188-.875c-.062-.29-.125-.555-.187-.797-.063-.25-.121-.41-.172-.484-.043-.083-.09-.133-.14-.157a.289.289 0 0 0-.172-.047.477.477 0 0 0-.235.063.787.787 0 0 0-.219.187 4.023 4.023 0 0 0-.296.422l-.391-.25c.25-.375.488-.648.719-.828.226-.187.492-.281.796-.281.126 0 .227.016.313.047a.604.604 0 0 1 .25.125c.07.054.133.125.188.218.05.086.101.204.156.36.05.156.097.351.14.578.051.23.094.469.125.719h.063c.375-.531.656-.914.844-1.156.195-.25.363-.43.5-.547.132-.125.257-.207.375-.25.125-.051.289-.079.5-.079.175 0 .328.024.453.063l-.235 1.063h-.421c-.024-.165-.09-.25-.204-.25a.26.26 0 0 0-.109.03.64.64 0 0 0-.156.079 1.516 1.516 0 0 0-.25.219 10.63 10.63 0 0 0-.36.421c-.136.157-.277.329-.421.516l-.391.5c.07.375.14.7.203.969l.156.687c.051.18.094.32.125.422.04.106.082.184.125.235a.32.32 0 0 0 .125.109.474.474 0 0 0 .469-.078c.102-.082.25-.27.438-.563l.375.25c-.274.407-.516.696-.735.86-.219.164-.484.25-.797.25A.864.864 0 0 1 3.734 0a.958.958 0 0 1-.312-.281c-.086-.133-.156-.344-.219-.625-.125-.5-.2-.883-.219-1.156h-.062c-.418.585-.73 1.007-.938 1.265-.199.25-.367.438-.5.563-.125.117-.25.199-.375.25C.992.066.832.094.625.094.445.094.297.066.172.016l.234-1.063h.422c.02.168.086.25.203.25.051 0 .11-.015.172-.047a1.1 1.1 0 0 0 .25-.203c.113-.113.27-.289.469-.531.207-.238.5-.598.875-1.078zm0 0"/></symbol><symbol overflow="visible" id="d"><path d="M2.906-2.969c0-1.32-.219-2.414-.656-3.281A3.389 3.389 0 0 0 .219-8.016l.156-.453c1.145.305 2.02.953 2.625 1.953.613 1 .922 2.204.922 3.61 0 1.418-.309 2.62-.922 3.61-.605 1-1.48 1.648-2.625 1.952l-.14-.453C1.14 1.898 1.812 1.301 2.25.406c.438-.883.656-2.008.656-3.375zm0 0"/></symbol><symbol overflow="visible" id="e"><path d="M.875-4.25v-.781h7.219v.781zm0 2.422v-.781h7.219v.78zm7.469-1.594zm0 0"/></symbol><symbol overflow="visible" id="f"><path d="M5.031-5.313l.547-.39.375.094-.86 3.718c-.093.368-.14.653-.14.86 0 .156.024.273.078.343.051.075.133.11.25.11a.61.61 0 0 0 .36-.14c.132-.102.328-.286.578-.548l.328.329c-.356.375-.656.64-.906.796a1.44 1.44 0 0 1-.797.235.748.748 0 0 1-.578-.235c-.149-.164-.22-.379-.22-.64 0-.219.04-.446.126-.688L4.109-1.5c-.375.555-.734.96-1.078 1.219-.336.25-.687.375-1.062.375-.43 0-.762-.16-1-.485-.242-.332-.36-.789-.36-1.375C.61-2.43.74-3.07 1-3.687c.27-.626.633-1.114 1.094-1.47a2.47 2.47 0 0 1 1.547-.546c.25 0 .484.031.703.094.226.054.457.152.687.296zm-.515 1.75a3.32 3.32 0 0 0 .078-.421c.008-.114.015-.239.015-.375 0-.301-.07-.52-.203-.657-.125-.144-.343-.218-.656-.218-.398 0-.758.164-1.078.484-.324.324-.574.762-.75 1.313a5.146 5.146 0 0 0-.266 1.624c0 .407.051.711.157.907.113.199.3.297.562.297.258 0 .516-.11.766-.329.25-.218.504-.535.765-.953.258-.414.446-.89.563-1.421zm0 0"/></symbol><symbol overflow="visible" id="g"><path d="M4.906-3.047V.328h-.843v-3.375H.874v-.781h3.188v-3.375h.843v3.375h3.188v.781zm0 0"/></symbol><symbol overflow="visible" id="h"><path d="M1.453-.281L.922.094.547 0l1.515-6.703c.083-.395.126-.68.126-.86 0-.164-.055-.28-.157-.343-.094-.07-.273-.11-.531-.11l.078-.312 1.484-.047h.344L2.375-4.281l.063.031c.382-.508.742-.879 1.078-1.11.332-.226.66-.343.984-.343.426 0 .758.168 1 .5.238.324.36.777.36 1.36 0 .648-.133 1.28-.391 1.905-.262.625-.625 1.122-1.094 1.485a2.39 2.39 0 0 1-1.531.547c-.524 0-.985-.125-1.39-.375zm.516-1.766a3.68 3.68 0 0 0-.094.797c0 .313.066.54.203.672.133.137.36.203.672.203.164 0 .316-.023.453-.078.145-.05.29-.133.438-.25.156-.125.3-.285.437-.485a4.08 4.08 0 0 0 .375-.718c.113-.29.203-.602.266-.938.062-.332.093-.648.093-.953 0-.406-.058-.707-.171-.906-.118-.207-.305-.313-.563-.313a.934.934 0 0 0-.547.188c-.18.117-.383.312-.61.594a4.772 4.772 0 0 0-.546.843 5.612 5.612 0 0 0-.36 1.11zm0 0"/></symbol><symbol overflow="visible" id="i"><path d="M3.266.094c-.844 0-1.477-.332-1.891-1C.957-1.57.75-2.578.75-3.922c0-.719.063-1.336.188-1.86.132-.53.316-.96.546-1.296.227-.344.5-.598.813-.766.32-.164.676-.25 1.062-.25.852 0 1.489.336 1.907 1 .414.657.625 1.653.625 2.985 0 1.386-.227 2.433-.672 3.14C4.769-.258 4.117.094 3.266.094zM1.906-4.11c0 1.28.114 2.218.344 2.812.238.594.61.89 1.11.89.468 0 .816-.28 1.046-.843.227-.563.344-1.426.344-2.594 0-.906-.063-1.633-.188-2.187-.117-.563-.277-.961-.484-1.203-.21-.239-.46-.36-.75-.36-.273 0-.5.086-.687.25-.18.157-.325.387-.438.688a4.958 4.958 0 0 0-.234 1.093c-.043.43-.063.915-.063 1.454zm0 0"/></symbol><symbol overflow="visible" id="j"><path d="M1.813-1.36c.05.274.078.544.078.813 0 .274-.047.524-.141.75a2.24 2.24 0 0 1-.453.672c-.2.227-.48.477-.844.75l-.312-.36C.336 1.079.477.907.562.75A1.6 1.6 0 0 0 .766.234a3.58 3.58 0 0 0 .062-.718c0-.29-.015-.582-.047-.875zm0 0"/></symbol><symbol overflow="visible" id="k"><path d="M.875-3.047v-.781h7.219v.781zm0 0"/></symbol></defs><use xlink:href="#a" x="-.305" y="8.745"/><use xlink:href="#b" x="3.843" y="8.745"/><use xlink:href="#c" x="8.805" y="8.745"/><use xlink:href="#d" x="15.536" y="8.745"/><use xlink:href="#e" x="23.809" y="8.745"/><use xlink:href="#f" x="36.063" y="8.745"/><use xlink:href="#c" x="43.009" y="8.745"/><use xlink:href="#g" x="52.394" y="8.745"/><use xlink:href="#h" x="63.978" y="8.745"/><use xlink:href="#e" x="74.009" y="8.745"/><use xlink:href="#i" x="86.263" y="8.745"/><use xlink:href="#j" x="92.886" y="8.745"/><use xlink:href="#f" x="36.073" y="26.179"/><use xlink:href="#c" x="43.019" y="26.179"/><use xlink:href="#g" x="52.392" y="26.179"/><use xlink:href="#h" x="63.988" y="26.179"/><use xlink:href="#e" x="74.007" y="26.179"/><use xlink:href="#i" x="86.261" y="26.179"/><use xlink:href="#j" x="92.884" y="26.179"/><use xlink:href="#f" x="57.025" y="43.614"/><use xlink:href="#c" x="63.971" y="43.614"/><use xlink:href="#e" x="74.013" y="43.614"/><use xlink:href="#k" x="86.267" y="43.614"/><use xlink:href="#h" x="95.198" y="43.614"/><use xlink:href="#c" x="63.977" y="69.328"/><g><use xlink:href="#e" x="74.019" y="69.328"/></g><g><use xlink:href="#k" x="87.471" y="60.28"/><use xlink:href="#h" x="96.402" y="60.28"/></g><path d="M87.473 65.914h15.636" fill="none" stroke-width=".776" stroke="#000" stroke-miterlimit="10"/><g><use xlink:href="#f" x="91.814" y="77.326"/></g></svg>