<svg xmlns="http://www.w3.org/2000/svg" xmlns:xlink="http://www.w3.org/1999/xlink" width="252" height="26pt" viewBox="0 0 189 26"><defs><symbol overflow="visible" id="a"><path d="M7.594-8.531L4.219-8.5l-3.5-.047-.235 2.235h.594l.219-.844c.047-.266.11-.36.172-.453.078-.079.437-.11.875-.11h1.172l-1 6.094c-.188 1.094-.079 1-.563 1.031l-.719.031-.093.61L3 0l1.703.047.063-.61-.844-.03c-.313-.016-.297.015-.297-.235 0-.11 0-.156.047-.422l1.094-6.469h.765c.938 0 1.219-.078 1.266.063.031.11.047.328.047.453l-.063.89h.594l.375-2.234zm0 0"/></symbol><symbol overflow="visible" id="b"><path d="M8.266-4.078a1.419 1.419 0 0 1-.047-.36c0-.109.015-.234.062-.484h-7.5c.063.25.063.375.063.484 0 .125 0 .235-.063.5h7.5zm0 2.625a1.332 1.332 0 0 1-.047-.36c0-.109.015-.234.062-.484h-7.5c.063.25.063.375.063.485 0 .125 0 .25-.063.5h7.5zm0 0"/></symbol><symbol overflow="visible" id="c"><path d="M5.125-.094v-.484l-.75-.047c-.656-.031-.64-.031-.64-.656v-7.172l-.313-.125c-.875.469-1.61.781-2.86 1.219l.125.718h.235l1.547-.687.031-.016c.063 0-.047-.015-.047.266v5.797c0 .625.016.625-.64.656L1-.578v.625L3.125 0l2 .047zm0 0"/></symbol><symbol overflow="visible" id="d"><path d="M5.766-.094v-.484l-.704-.047c-.578-.031-.578-.063-.578-.781v-.75c.579 0 .829 0 1.282.062v-1L5.734-3s-.671-.188-1.062-.188h-.188v-1.53c0-2.126.016-3.157.094-3.72l-.281-.124-.984.343-3.438 5.64.203.423h3.125v.75c0 .718.016.765-.578.781l-.875.047v.625L3.813 0l1.953.047zM3.344-3.188H1l2.438-3.984-.235-.094v4.079zm0 0"/></symbol><symbol overflow="visible" id="e"><path d="M6.14-8.266c-.546-.28-1.093-.437-1.671-.437-.89 0-1.89.406-2.532 1.047-.5.5-.796 1.187-.796 1.89 0 1.016.609 1.72 1.609 1.954l1.14.28c.657.157.813.423.813 1.11C4.703-1.266 4-.625 2.766-.625c-.641 0-1-.11-1.485-.453v-1.234H.656A18.215 18.215 0 0 1 .344-.297C.984.031 1.719.22 2.359.22c1.844 0 3.563-1.516 3.563-3.14 0-.954-.64-1.579-1.844-1.845l-.781-.171C2.516-5.11 2.28-5.423 2.28-6.204c0-1.047.672-1.656 1.766-1.656.594 0 .875.109 1.203.453v.984h.625c.047-.781.14-1.234.328-1.797zm0 0"/></symbol><symbol overflow="visible" id="f"><path d="M8.266-2.766a1.332 1.332 0 0 1-.047-.359c0-.11.015-.234.062-.484h-3.25v-3.266c-.25.063-.375.078-.484.078-.125 0-.25-.016-.5-.078v3.266H.78c.063.25.063.375.063.484 0 .125 0 .25-.063.5h3.266V.641c.25-.063.375-.079.5-.079.11 0 .234.016.484.079v-3.266h3.25zm0 0"/></symbol><symbol overflow="visible" id="g"><path d="M5.719-.094c-.016-.25-.016-.375-.016-.547 0-.14 0-.265.031-.671l-4.28.125.093.234 2.187-2.313C4.891-4.5 5.281-5.25 5.281-6.14 5.281-7.516 4.22-8.5 2.703-8.5c-.86 0-1.562.281-2.172.906L.312-5.766h.594l.188-.687c.203-.688.5-.86 1.297-.86 1.03 0 1.546.516 1.546 1.532 0 .89-.468 1.687-1.828 3.11L.047-.454v.5L2.859 0l2.875.047zm0 0"/></symbol><symbol overflow="visible" id="h"><path d="M7.781-8.219c-.922-.344-1.593-.484-2.328-.484-.984 0-2.078.344-2.906.89C1.14-6.859.39-5.358.39-3.53c0 2.328 1.421 3.75 3.703 3.75C5.25.219 6.187-.094 7.28-.844l.157-.578-.266-.187c-1.234.765-1.75.921-2.672.921-1.89 0-2.781-1.015-2.781-3.14 0-1.328.375-2.406 1.11-3.156.546-.563 1.218-.829 2.171-.829.86 0 1.36.141 2 .547v1.063h.578c.078-.813.172-1.328.36-1.953zm0 0"/></symbol><symbol overflow="visible" id="i"><path d="M6.813-8.5a14.129 14.129 0 0 0-.829-.031L3.172-8.5l-2.047-.047-.063.61.797.03c.297 0 .282-.03.282.173 0 .187-.032.53-.11.921L.984-.78c-.03.203-.046.156-.687.25l-.11.578L2.204 0l2.688.031C5.92.031 5.67.016 6.266 0l.062-.563c.063-.5.156-1 .266-1.625h-.578l-.235.844c-.11.422-.062.438-.312.5-.235.063-1.078.11-1.797.11-.5 0-.813 0-1.438-.063 0-.031 0-.156.032-.297L2.75-4h1.297c1.5 0 1.203.047 1.64.063l.282-.688-.11-.219-2.687.094H2.89l.484-2.719c.031-.187.016-.187.047-.25.594-.031.297-.031 1.484-.047.766 0 1.125-.03 1.125.157l.11 1.187h.546c.047-.89.125-1.484.297-2.062zm0 0"/></symbol><symbol overflow="visible" id="j"><path d="M4.203-7.828a.735.735 0 0 1-.187-.14c-.063-.063-.11-.126-.22-.329-1.593 1.61-2.5 3.266-2.5 4.781v.797c0 1.516.907 3.172 2.5 4.781.11-.203.157-.265.22-.328.062-.062.125-.109.312-.203C2.875.063 2.281-1.344 2.281-2.719v-.797c0-1.39.594-2.78 2.047-4.25zm0 0"/></symbol><symbol overflow="visible" id="k"><path d="M3.766-2.719v-.797c0-1.515-.907-3.171-2.516-4.78-.11.202-.156.265-.203.327-.063.063-.125.11-.313.203 1.438 1.47 2.032 2.86 2.032 4.25v.797c0 1.375-.594 2.781-2.032 4.25.188.094.25.14.313.203.047.063.094.125.203.329C2.86.452 3.766-1.204 3.766-2.72zm0 0"/></symbol></defs><use xlink:href="#a" x="-.354" y="17.537"/><use xlink:href="#b" x="10.884" y="17.537"/><use xlink:href="#c" x="24.496" y="8.929"/><path d="M24.496 14.547h5.977" fill="none" stroke-width=".717" stroke="#000" stroke-miterlimit="10"/><use xlink:href="#d" x="24.496" y="25.499"/><use xlink:href="#e" x="31.669" y="17.537"/><use xlink:href="#f" x="40.97" y="17.537"/><use xlink:href="#g" x="53.911" y="8.929"/><path d="M53.91 14.547h5.977" fill="none" stroke-width=".717" stroke="#000" stroke-miterlimit="10"/><use xlink:href="#d" x="53.911" y="25.499"/><use xlink:href="#h" x="61.084" y="17.537"/><use xlink:href="#f" x="71.856" y="17.537"/><use xlink:href="#c" x="84.796" y="8.929"/><path d="M84.797 14.547h5.976" fill="none" stroke-width=".717" stroke="#000" stroke-miterlimit="10"/><use xlink:href="#d" x="84.796" y="25.499"/><use xlink:href="#i" x="91.969" y="17.537"/><use xlink:href="#b" x="102.585" y="17.537"/><use xlink:href="#c" x="116.197" y="8.929"/><path d="M116.195 14.547h5.98" fill="none" stroke-width=".717" stroke="#000" stroke-miterlimit="10"/><use xlink:href="#d" x="116.197" y="25.499"/><use xlink:href="#j" x="123.37" y="17.537"/><use xlink:href="#e" x="128.439" y="17.537"/><use xlink:href="#f" x="137.74" y="17.537"/><use xlink:href="#g" x="149.48" y="17.537"/><use xlink:href="#h" x="155.458" y="17.537"/><g><use xlink:href="#f" x="166.229" y="17.537"/></g><g><use xlink:href="#i" x="177.969" y="17.537"/><use xlink:href="#k" x="185.274" y="17.537"/></g></svg>