<svg xmlns="http://www.w3.org/2000/svg" xmlns:xlink="http://www.w3.org/1999/xlink" width="252" height="26pt" viewBox="0 0 189 26"><defs><symbol overflow="visible" id="a"><path d="M7.594-8.266l-3.375.032-3.375-.032L.64-6.312h.343l.172-.72c.063-.265.14-.452.219-.53.078-.094.531-.157.969-.157h1.344L2.655-1.5C2.47-.406 2.437-.36 1.953-.328l-.61.031-.046.328L3 0l1.594.031.031-.328-.703-.031c-.313-.016-.438-.11-.438-.36 0-.125 0-.171.047-.421l1.125-6.61h.875c.938 0 1.36.063 1.407.203a1.3 1.3 0 0 1 .046.438l-.046.766h.328zm0 0"/></symbol><symbol overflow="visible" id="b"><path d="M8.125-3.938c-.016-.124-.031-.25-.031-.359 0-.125.015-.25.031-.36H.953c.031.11.031.235.031.36 0 .11 0 .234-.03.36zm0 2.626c-.016-.125-.031-.235-.031-.36s.015-.234.031-.36H.953a1.4 1.4 0 0 1 .031.36c0 .125 0 .234-.03.36zm0 0"/></symbol><symbol overflow="visible" id="c"><path d="M5 .031v-.36l-.625-.03c-.656-.032-.781-.172-.781-.782v-7.093l-.156-.063c-.782.406-1.626.766-2.72 1.156l.079.5h.125l1.547-.687.031-.016c.063 0 .094.11.094.407v5.796c0 .61-.125.75-.781.782l-.672.03v.36L3.125 0zm0 0"/></symbol><symbol overflow="visible" id="d"><path d="M5.64.031v-.36l-.577-.03c-.579-.032-.72-.188-.72-.907v-.89c.72 0 .97 0 1.298.047v-.86s-.579.047-.97.047h-.327v-1.672c0-2.125.031-3.156.093-3.64l-.14-.063-.89.328L.03-2.437l.125.28h3.188v.891c0 .72-.125.891-.719.907l-.734.03v.36L3.812 0zM3.345-2.922H.78L3.344-7.14zm0 0"/></symbol><symbol overflow="visible" id="e"><path d="M6.047-8.031c-.547-.281-1-.406-1.578-.406-.89 0-1.782.374-2.422 1-.5.5-.75 1.109-.75 1.812 0 1.016.453 1.578 1.453 1.813l1.14.28c.657.157.97.563.97 1.25C4.86-1.14 4-.358 2.765-.358 2.125-.36 1.672-.5 1.14-.875v-1.188H.78C.72-1.405.641-.859.5-.234a4.132 4.132 0 0 0 1.86.453c1.843 0 3.437-1.39 3.437-3.016 0-.937-.516-1.453-1.719-1.703l-.781-.172c-.781-.172-1.14-.61-1.14-1.406 0-1.031.796-1.781 1.89-1.781.594 0 .984.156 1.344.53v.907h.359c.047-.64.125-1.094.297-1.61zm0 0"/></symbol><symbol overflow="visible" id="f"><path d="M8.125-2.625c-.016-.125-.031-.25-.031-.36 0-.124.015-.25.031-.359H4.906v-3.234c-.125.031-.25.047-.36.047-.124 0-.25-.016-.359-.047v3.234H.954c.031.11.031.235.031.36 0 .109 0 .234-.03.359h3.234V.594c.109-.016.234-.031.359-.031.11 0 .234.015.36.03v-3.218zm0 0"/></symbol><symbol overflow="visible" id="g"><path d="M5.594.031c-.032-.25-.032-.36-.032-.531 0-.156 0-.281.032-.547l-4.14.125L3.64-3.234c1.156-1.22 1.515-1.875 1.515-2.782 0-1.375-.937-2.218-2.453-2.218-.86 0-1.453.234-2.031.828l-.203 1.64h.344l.156-.562c.187-.688.625-.984 1.422-.984 1.03 0 1.687.64 1.687 1.656 0 .906-.5 1.781-1.86 3.218L.189-.28V.03L2.858 0zm0 0"/></symbol><symbol overflow="visible" id="h"><path d="M7.781-7.953c-.922-.344-1.593-.484-2.328-.484a5 5 0 0 0-2.797.859C1.25-6.641.531-5.218.531-3.391.531-1.078 1.812.22 4.094.22c1.156 0 1.984-.281 3.078-1.016l.125-.437-.125-.079c-1.125.688-1.75.891-2.672.891-1.89 0-2.906-1.14-2.906-3.265 0-1.344.406-2.516 1.125-3.25.562-.579 1.328-.875 2.281-.875.86 0 1.469.171 2.14.609v1h.313c.063-.688.156-1.203.328-1.75zm0 0"/></symbol><symbol overflow="visible" id="i"><path d="M6.813-8.234c-.266-.032-.547-.032-.829-.032l-2.812.032-1.922-.032-.031.329.64.03c.297 0 .422.095.422.298 0 .187-.031.546-.11.921L1.142-.655c-.047.219-.204.297-.72.375L.36.03 2.203 0l2.688.031C5.92.031 5.67.016 6.14 0l.046-.438c.063-.5.157-1 .25-1.484h-.312l-.203.719c-.094.422-.203.562-.453.625-.235.047-1.078.11-1.797.11-.5 0-.813-.016-1.563-.079 0-.14 0-.281.016-.422L2.641-4h1.406c1.5 0 1.203.047 1.578.063l.219-.547-.047-.079-2.625.063h-.438l.5-2.844c.047-.187.063-.281.11-.375.672-.031.375-.031 1.562-.047.766 0 1.266.11 1.282.282l.093 1.062h.282c.03-.766.125-1.36.25-1.812zm0 0"/></symbol><symbol overflow="visible" id="j"><path d="M4.11-7.61a.735.735 0 0 1-.188-.14c-.063-.063-.11-.11-.14-.188-1.47 1.47-2.345 3.032-2.345 4.563v.781c0 1.516.875 3.078 2.344 4.547a.735.735 0 0 1 .14-.187.735.735 0 0 1 .188-.141C2.781.281 2.156-1.203 2.156-2.594v-.781c0-1.39.625-2.89 1.953-4.234zm0 0"/></symbol><symbol overflow="visible" id="k"><path d="M3.64-2.594v-.781c0-1.531-.874-3.094-2.343-4.563-.047.079-.094.125-.156.188a.427.427 0 0 1-.188.14c1.328 1.344 1.969 2.844 1.969 4.235v.781c0 1.39-.64 2.875-1.969 4.219.078.031.14.078.188.14.062.063.109.126.156.188C2.766.484 3.64-1.078 3.64-2.594zm0 0"/></symbol></defs><use xlink:href="#a" x="-.355" y="17.538"/><use xlink:href="#b" x="10.883" y="17.538"/><use xlink:href="#c" x="24.495" y="8.929"/><path d="M24.496 14.55h5.977" fill="none" stroke-width=".717" stroke="#000" stroke-miterlimit="10"/><use xlink:href="#d" x="24.495" y="25.501"/><use xlink:href="#e" x="31.668" y="17.538"/><use xlink:href="#f" x="40.969" y="17.538"/><use xlink:href="#g" x="53.91" y="8.929"/><path d="M53.91 14.55h5.977" fill="none" stroke-width=".717" stroke="#000" stroke-miterlimit="10"/><use xlink:href="#d" x="53.91" y="25.501"/><use xlink:href="#h" x="61.083" y="17.538"/><use xlink:href="#f" x="71.855" y="17.538"/><use xlink:href="#c" x="84.796" y="8.929"/><path d="M84.797 14.55h5.976" fill="none" stroke-width=".717" stroke="#000" stroke-miterlimit="10"/><use xlink:href="#d" x="84.796" y="25.501"/><use xlink:href="#i" x="91.969" y="17.538"/><use xlink:href="#b" x="102.585" y="17.538"/><use xlink:href="#c" x="116.198" y="8.929"/><path d="M116.2 14.55h5.976" fill="none" stroke-width=".717" stroke="#000" stroke-miterlimit="10"/><use xlink:href="#d" x="116.198" y="25.501"/><use xlink:href="#j" x="123.371" y="17.538"/><use xlink:href="#e" x="128.44" y="17.538"/><use xlink:href="#f" x="137.741" y="17.538"/><use xlink:href="#g" x="149.481" y="17.538"/><use xlink:href="#h" x="155.459" y="17.538"/><g><use xlink:href="#f" x="166.23" y="17.538"/></g><g><use xlink:href="#i" x="177.97" y="17.538"/><use xlink:href="#k" x="185.275" y="17.538"/></g></svg>