<svg xmlns:xlink="http://www.w3.org/1999/xlink" width="34.833ex" height="12.5ex" style="vertical-align:-5.667ex;margin-bottom:1px;margin-top:1px" viewBox="0 -2945.7 14968.7 5391.5" xmlns="http://www.w3.org/2000/svg"><defs><path stroke-width="10" id="a" d="M192 53c0-29-24-53-53-53S86 24 86 53s24 53 53 53 53-24 53-53z"/><path stroke-width="10" id="b" d="M722 347c0-11-9-20-20-20H76c-11 0-20 9-20 20s9 20 20 20h626c11 0 20-9 20-20zm0-194c0-11-9-20-20-20H76c-11 0-20 9-20 20s9 20 20 20h626c11 0 20-9 20-20z"/><path stroke-width="10" id="d" d="M722 250c0-11-9-20-20-20H76c-11 0-20 9-20 20s9 20 20 20h626c11 0 20-9 20-20z"/><path stroke-width="10" id="e" d="M419 0c-35 3-122 3-162 3S130 3 95 0v31h32c90 0 93 12 93 48v518c-52-26-111-26-131-26v31c32 0 120 0 182 64 23 0 23-2 23-26V79c0-37 3-48 93-48h32V0z"/><path stroke-width="10" id="f" d="M192 250c0-29-24-53-53-53s-53 24-53 53 24 53 53 53 53-24 53-53z"/><path stroke-width="10" id="g" d="M330 420c0-20-10-20-30-20h-94l-74-295c-4-17-6-24-6-48 0-33 10-46 31-46 34 0 87 24 130 128 5 11 6 14 15 14 4 0 12 0 12-10 0-8-57-154-159-154-54 0-92 38-92 92 0 18 4 35 76 319H51c-20 0-28 0-28 12 0 19 10 19 30 19h94l39 159c9 35 37 36 40 36 17 0 29-10 29-27 0-6-5-26-41-168h88c18 0 28 0 28-11z"/><path stroke-width="10" id="h" d="M457 171c0-102-91-193-213-193C135-22 42 44 42 135c0 44 32 58 56 58 29 0 56-20 56-56 0-38-31-60-66-55C123 23 198 6 241 6c44 0 113 29 113 165 0 98-37 166-119 166h-44c-17 0-24 0-24 11 0 10 7 11 15 12 7 0 31 2 39 3 25 1 59 4 89 52 26 44 28 102 28 114 0 90-55 112-96 112-36 0-102-13-133-62 15 0 62 0 62-50 0-29-20-51-51-51-29 0-51 19-51 52 0 76 76 136 177 136 96 0 184-56 184-138 0-79-58-149-140-176 104-21 167-99 167-181z"/><path stroke-width="10" id="c" d="M722 250c0-11-9-20-20-20H409V-63c0-11-9-20-20-20s-20 9-20 20v293H76c-11 0-20 9-20 20s9 20 20 20h293v293c0 11 9 20 20 20s20-9 20-20V270h293c11 0 20-9 20-20z"/><path stroke-width="10" id="i" d="M449 174L421 0H50c0 24 0 26 11 37l192 214c55 62 105 141 105 221 0 82-43 163-134 163-58 0-112-37-135-102 3 1 5 1 13 1 35 0 53-26 53-52 0-41-35-53-52-53-3 0-53 0-53 56 0 89 74 181 187 181 122 0 212-80 212-194 0-100-60-154-216-292L127 77h180c22 0 88 0 95 8 10 15 17 59 22 89h25z"/><path stroke-width="10" id="j" d="M457 204c0-132-95-226-206-226-93 0-209 71-209 338 0 221 135 350 263 350 83 0 127-48 127-108 0-39-30-48-46-48-22 0-46 15-46 46 0 45 40 45 55 45-22 34-64 40-88 40-51 0-175-36-175-289v-24c20 48 57 99 125 99 111 0 200-96 200-223zm-90 1c0 49 0 100-18 137-31 62-77 62-93 62-90 0-122-100-122-178 0-18 0-98 18-145 6-15 36-75 99-75 23 0 69 5 99 65 17 36 17 86 17 134z"/><path stroke-width="10" id="k" d="M460 320c0-79-5-157-37-226C379-1 303-22 249-22 200-22 127-2 84 79c-41 76-45 166-45 241 0 80 5 158 37 227 41 93 114 119 174 119 42 0 124-16 170-112 35-74 40-154 40-234zm-83 12c0 63 0 139-10 195-19 99-85 117-118 117-25 0-100-9-119-128-8-54-8-120-8-184 0-59 0-151 11-211C151 25 210 0 249 0c45 0 102 30 117 125 11 64 11 132 11 207z"/></defs><g stroke="currentColor" fill="currentColor" stroke-width="0"><g transform="matrix(1 0 0 -1 156 -2090)"><use xlink:href="#a"/><use xlink:href="#a" x="449"/><use xlink:href="#a" x="899"/></g><g transform="matrix(1 0 0 -1 2338 0)"><use xlink:href="#b" y="2090"/><use xlink:href="#c" y="650"/><use xlink:href="#c" y="-791"/><use xlink:href="#c" y="-2232"/></g><g transform="matrix(1 0 0 -1 4121 -2090)"><use xlink:href="#d"/><use xlink:href="#e" x="783"/><use xlink:href="#f" x="1510"/><g transform="translate(2015)"><use xlink:href="#g"/><use transform="scale(.707)" xlink:href="#h" x="517" y="513"/></g><use xlink:href="#c" x="3060"/><use xlink:href="#h" x="4065"/><use xlink:href="#f" x="4793"/><g transform="translate(5298)"><use xlink:href="#g"/><use transform="scale(.707)" xlink:href="#i" x="517" y="513"/></g><use xlink:href="#d" x="6343"/><use xlink:href="#h" x="7348"/><use xlink:href="#f" x="8076"/><use xlink:href="#g" x="8581"/><use xlink:href="#c" x="9169"/><use xlink:href="#e" x="10174"/></g><g transform="matrix(1 0 0 -1 4121 -650)"><use xlink:href="#c"/><use xlink:href="#h" x="783"/><use xlink:href="#f" x="1510"/><g transform="translate(2015)"><use xlink:href="#g"/><use transform="scale(.707)" xlink:href="#h" x="517" y="513"/></g><use xlink:href="#d" x="3060"/><use xlink:href="#j" x="4065"/><use xlink:href="#f" x="4793"/><g transform="translate(5298)"><use xlink:href="#g"/><use transform="scale(.707)" xlink:href="#i" x="517" y="513"/></g><use xlink:href="#c" x="6343"/><use xlink:href="#h" x="7348"/><use xlink:href="#f" x="8076"/><use xlink:href="#g" x="8581"/><use xlink:href="#c" x="9169"/><use xlink:href="#k" x="10174"/></g><g transform="matrix(1 0 0 -1 4121 791)"><use xlink:href="#d"/><use xlink:href="#h" x="783"/><use xlink:href="#f" x="1510"/><g transform="translate(2015)"><use xlink:href="#g"/><use transform="scale(.707)" xlink:href="#h" x="517" y="513"/></g><use xlink:href="#c" x="3060"/><use xlink:href="#h" x="4065"/><use xlink:href="#f" x="4793"/><g transform="translate(5298)"><use xlink:href="#g"/><use transform="scale(.707)" xlink:href="#i" x="517" y="513"/></g><use xlink:href="#c" x="6343"/><use xlink:href="#k" x="7348"/><use xlink:href="#f" x="8076"/><use xlink:href="#g" x="8581"/><use xlink:href="#c" x="9169"/><use xlink:href="#k" x="10174"/></g><g transform="matrix(1 0 0 -1 4121 2232)"><use xlink:href="#c"/><use xlink:href="#e" x="783"/><use xlink:href="#f" x="1510"/><g transform="translate(2015)"><use xlink:href="#g"/><use transform="scale(.707)" xlink:href="#h" x="517" y="513"/></g><use xlink:href="#c" x="3060"/><use xlink:href="#k" x="4065"/><use xlink:href="#f" x="4793"/><g transform="translate(5298)"><use xlink:href="#g"/><use transform="scale(.707)" xlink:href="#i" x="517" y="513"/></g><use xlink:href="#c" x="6343"/><use xlink:href="#k" x="7348"/><use xlink:href="#f" x="8076"/><use xlink:href="#g" x="8581"/><use xlink:href="#c" x="9169"/><use xlink:href="#k" x="10174"/></g></g></svg>