<svg xmlns="http://www.w3.org/2000/svg" xmlns:xlink="http://www.w3.org/1999/xlink" width="103pt" height="53pt" viewBox="0 0 103 53"><defs><symbol overflow="visible" id="a"><path d="M7.594-8.531L4.219-8.5l-3.5-.047-.235 2.235h.594l.219-.844c.047-.266.11-.36.172-.453.078-.079.437-.11.875-.11h1.172l-1 6.094c-.188 1.094-.079 1-.563 1.031l-.719.031-.093.61L3 0l1.703.047.063-.61-.844-.03c-.313-.016-.297.015-.297-.235 0-.11 0-.156.047-.422l1.094-6.469h.765c.938 0 1.219-.078 1.266.063.031.11.047.328.047.453l-.063.89h.594l.375-2.234zm0 0"/></symbol><symbol overflow="visible" id="c"><path d="M8.266-4.078a1.419 1.419 0 0 1-.047-.36c0-.109.015-.234.062-.484h-7.5c.063.25.063.375.063.484 0 .125 0 .235-.063.5h7.5zm0 2.625a1.332 1.332 0 0 1-.047-.36c0-.109.015-.234.062-.484h-7.5c.063.25.063.375.063.485 0 .125 0 .25-.063.5h7.5zm0 0"/></symbol><symbol overflow="visible" id="d"><path d="M5.078-14.781H1.562V0h1.235v-14.031h2.469c-.079-.203-.094-.281-.094-.375 0-.078.016-.172.094-.375zm0 0"/></symbol><symbol overflow="visible" id="e"><path d="M2.672-9.938h-1.11V0h1.235v-9.938zm0 0"/></symbol><symbol overflow="visible" id="f"><path d="M5.219-.125a.648.648 0 0 1-.047-.25c0-.078.016-.156.094-.36h-2.47V-14.78H1.564V0h3.703zm0 0"/></symbol><symbol overflow="visible" id="k"><path d="M5.688-4.5c0-2.625-.907-4-2.547-4C1.297-8.5.203-6.89.203-4c0 1.39.281 2.703.703 3.281.422.594 1.203.953 1.938.953 1.812 0 2.844-1.687 2.844-4.734zm-1.282.594C4.406-1.36 4.094-.437 3-.437c-1.156 0-1.516-1.079-1.516-4 0-2.516.313-3.375 1.438-3.375 1.172 0 1.484 1.03 1.484 3.906zm0 0"/></symbol><symbol overflow="visible" id="n"><path d="M5.125-.094v-.484l-.75-.047c-.656-.031-.64-.031-.64-.656v-7.172l-.313-.125c-.875.469-1.61.781-2.86 1.219l.125.718h.235l1.547-.687.031-.016c.063 0-.047-.015-.047.266v5.797c0 .625.016.625-.64.656L1-.578v.625L3.125 0l2 .047zm0 0"/></symbol><symbol overflow="visible" id="o"><path d="M4.656-.125v-14.656H.953c.078.203.094.297.094.375 0 .094-.016.172-.094.375h2.469V0h1.234zm0 0"/></symbol><symbol overflow="visible" id="p"><path d="M4.656-.125v-9.813H3.422V0h1.234zm0 0"/></symbol><symbol overflow="visible" id="q"><path d="M4.656-.125v-14.656H3.422V-.734H.953c.078.203.094.28.094.359 0 .094-.016.172-.094.375h3.703zm0 0"/></symbol><symbol overflow="visible" id="b"><path d="M4.703-2.125c0-.422-.234-.89-.578-1.11a2.69 2.69 0 0 0-.719-.296c.531-.36.875-.875.875-1.39 0-.798-.875-1.454-1.937-1.454-.656 0-1.203.203-1.703.656L.312-4.406h.594l.219-.64c.11-.298.563-.47 1.078-.47.61 0 .969.344.969.907 0 .656-.406 1.078-1.094 1.078-.078 0-.344.203-.344.203l-.265-.094-.125.531.203.141c.39-.172.578-.203.844-.203.796 0 1.093.328 1.093 1.14 0 .907-.421 1.36-1.328 1.36-.437 0-.719-.094-1.015-.344C.906-1 .828-1.094.578-1.75l-.531.188c.234.609.312.937.375 1.468C1.078.11 1.5.172 1.875.172c.766 0 1.75-.422 2.281-1.016.328-.375.547-.86.547-1.281zm0 0"/></symbol><symbol overflow="visible" id="g"><path d="M4.281-.11V-.5l-.656-.031c-.531-.031-.484.015-.484-.453v-5.344l-.282-.094c-.625.313-1.312.578-2.375.906l.125.594h.22l1.25-.516h.03c.047 0-.078-.062-.078.157v4.297c0 .468.047.421-.469.453L.86-.5v.531L2.61 0l1.672.031zm0 0"/></symbol><symbol overflow="visible" id="h"><path d="M7.516-6.016v-.39c-.454.031-.766.031-1.079.031l-1.359-.031v.515l.422.032c.36.015.39-.016.39.14 0 .11 0 .11-.109.282L2.97-1.079l.265.094-.687-4.672c-.047-.282-.016-.203.25-.203l.562-.016v-.531l-1.343.031-1.36-.031v.515l.39.032c.438.03.376-.047.423.28L2.344.079h.687l3.672-5.531c.25-.344.219-.39.484-.406l.329-.032zm0 0"/></symbol><symbol overflow="visible" id="i"><path d="M3.86-1.625c0-.313-.22-.703-.485-.875-.203-.11-.484-.203-.875-.266l.11.266c.624-.422.906-.828.906-1.203 0-.594-.735-1.14-1.594-1.14-.516 0-.984.171-1.39.515L.25-3.281h.563L1-3.797c.094-.219.406-.297.813-.297.5 0 .734.203.734.61 0 .5-.281.75-.828.75-.063 0-.25.25-.25.25l-.282-.11-.109.406.203.157c.328-.14.469-.172.672-.172.656 0 .844.203.844.797 0 .672-.297.953-1 .953-.36 0-.563-.047-.797-.234C.812-.829.766-.875.547-1.422l-.5.172c.187.5.25.734.312 1.172.563.156.907.203 1.188.203.625 0 1.437-.328 1.86-.781.265-.266.452-.656.452-.969zm0 0"/></symbol><symbol overflow="visible" id="j"><path d="M3.969-3.375c-.094-.047-.266-.11-.344-.11-.313 0-.734.282-1.203.891l-.297.36.297.109-.047-.313c-.094-.64-.469-1.046-.922-1.046-.203 0-.5.109-.562.187l-.563.703.39.203c.329-.296.36-.343.5-.343.266 0 .25.109.391.765l.079.375-.25.328c-.329.438-.485.594-.688.594-.125 0-.047.14-.047.11l-.172-.36-.406.047c0 .281-.016.36-.063.578-.015.078-.015.094-.046.219.296.125.421.156.515.156.25 0 .672-.25.906-.547l.375-.484.016.062c.11.563.438.97.719.97.172 0 .531-.157.781-.36l.453-.344-.203-.406c-.453.328-.531.375-.656.375-.11 0-.094-.016-.172-.156-.078-.125-.11-.25-.14-.438l-.141-.625.219-.266c.359-.421.453-.53.687-.53.125 0 .047-.095.156.171l.344-.078.156-.75zm0 0"/></symbol><symbol overflow="visible" id="l"><path d="M3.906-.125c-.031-.14-.031-.203-.031-.297 0-.094 0-.156.047-.469l-2.844.079.11.265 1.39-1.281c.75-.672 1.031-1.14 1.031-1.625 0-.766-.765-1.39-1.734-1.39-.563 0-1.047.187-1.469.546L.234-3.172h.532l.156-.453c.125-.39.234-.406.75-.406.656 0 .906.203.906.765 0 .5-.265.875-1.125 1.657L.078-.375v.406L1.968 0l1.954.031zm0 0"/></symbol><symbol overflow="visible" id="m"><path d="M4.016-3.375L3.844-3.5a2.55 2.55 0 0 1-.719.156l-.313 1.016c-.093.312-.312.672-.562 1-.281.328-.531.578-.703.578-.172 0 .016-.156.016-.25l.125-1.266c.015-.203.015-.453.015-.64 0-.297-.203-.578-.344-.578-.093 0-.312.093-.687.312l-.735.438.235.359.562-.297c.047-.015.032-.031.079-.031.203 0 0 .187 0 .297L.671-.812v.265c-.016.281.312.625.5.625.281 0 1.047-.61 1.625-1.36L2.5-1.374 2.125-.25C1.735.906 1.531 1.234.985 1.234c-.266 0-.313-.03-.313-.25 0-.03 0-.093.031-.234L.422.64l-.5.313c-.016.125-.016.172-.016.203 0 .282.453.657.797.657.813 0 1.828-.97 2.281-2.188l1.094-2.953zm0 0"/></symbol></defs><use xlink:href="#a" x="-.205" y="30.992"/><use xlink:href="#b" x="7.099" y="33.766"/><use xlink:href="#c" x="15.921" y="30.992"/><use xlink:href="#d" x="28.328" y="17.637"/><use xlink:href="#e" x="28.328" y="25.844"/><use xlink:href="#e" x="28.328" y="32.845"/><use xlink:href="#e" x="28.328" y="39.846"/><use xlink:href="#f" x="28.328" y="52.883"/><use xlink:href="#g" x="41.434" y="6.777"/><path d="M35.754 9.395h16.363" fill="none" stroke-width=".717" stroke="#000" stroke-miterlimit="10"/><use xlink:href="#h" x="35.752" y="16.943"/><use xlink:href="#i" x="42.896" y="18.997"/><use xlink:href="#j" x="47.508" y="19.892"/><use xlink:href="#k" x="69.668" y="12.384"/><use xlink:href="#k" x="91.988" y="12.384"/><use xlink:href="#k" x="40.947" y="31.716"/><use xlink:href="#g" x="70.156" y="26.109"/><path d="M64.473 28.727H80.84" fill="none" stroke-width=".717" stroke="#000" stroke-miterlimit="10"/><use xlink:href="#h" x="64.473" y="36.274"/><use xlink:href="#l" x="71.618" y="38.328"/><use xlink:href="#m" x="76.229" y="39.112"/><use xlink:href="#k" x="91.999" y="31.716"/><use xlink:href="#k" x="40.947" y="51.04"/><use xlink:href="#k" x="69.663" y="51.04"/><use xlink:href="#n" x="91.996" y="51.04"/><use xlink:href="#o" x="97.977" y="17.637"/><use xlink:href="#p" x="97.977" y="25.844"/><use xlink:href="#p" x="97.977" y="32.845"/><use xlink:href="#p" x="97.977" y="39.846"/><use xlink:href="#q" x="97.977" y="52.883"/></svg>