<svg xmlns="http://www.w3.org/2000/svg" xmlns:xlink="http://www.w3.org/1999/xlink" width="560" height="32pt" viewBox="0 0 420 32"><defs><symbol overflow="visible" id="a"><path d="M9.61-8.531c-.438.015-.876.031-1.313.031-.422 0-.844-.016-1.375-.047l-.11.61.735.03c.312 0 .281-.046.281.157 0 .078-.031.39-.062.547L6.812-1.36l.235-.094L2.89-8.547c-.375.031-.704.047-1.032.047-.312 0-.64-.016-1.078-.047l-.11.61.579.03c.203 0 .36.048.5.157.172.14.313.281.313.375 0 .078-.032.281-.047.36L.953-1.345c-.14.735-.062.703-.5.75l-.484.047-.11.594L1.344 0c.453 0 .89.016 1.422.047l.109-.594-.656-.047c-.469-.047-.453 0-.453-.39 0-.11.015-.235.046-.36l.954-5.547-.25.094L6.594.125h.781l1.14-6.734c.235-1.344.157-1.282.594-1.297l.547-.032.11-.609zm0 0"/></symbol><symbol overflow="visible" id="e"><path d="M4.203-7.828a.735.735 0 0 1-.187-.14c-.063-.063-.11-.126-.22-.329-1.593 1.61-2.5 3.266-2.5 4.781v.797c0 1.516.907 3.172 2.5 4.781.11-.203.157-.265.22-.328.062-.062.125-.109.312-.203C2.875.063 2.281-1.344 2.281-2.719v-.797c0-1.39.594-2.78 2.047-4.25zm0 0"/></symbol><symbol overflow="visible" id="f"><path d="M3.703-5.516c-.453.047-.86.063-1.156.063.172-.984.297-1.578.531-2.25l-.25-.328a7.16 7.16 0 0 1-1.094.531l-.296 2.031c-.391.203-.704.328-1.063.407l-.047.406h1l-.64 3.25C.625-1.11.53-.813.53-.5c0 .297.266.61.5.61.422 0 .922-.282 1.86-1.032.218-.172.14-.125.437-.36l-.25-.437-.672.469c-.36.25-.484.313-.625.313-.093 0-.031.046-.031-.11 0-.297.156-1.234.516-3l.14-.61h1.266l.203-.89zm0 0"/></symbol><symbol overflow="visible" id="g"><path d="M3.766-2.719v-.797c0-1.515-.907-3.171-2.516-4.78-.11.202-.156.265-.203.327-.063.063-.125.11-.313.203 1.438 1.47 2.032 2.86 2.032 4.25v.797c0 1.375-.594 2.781-2.032 4.25.188.094.25.14.313.203.047.063.094.125.203.329C2.86.452 3.766-1.204 3.766-2.72zm0 0"/></symbol><symbol overflow="visible" id="h"><path d="M8.266-4.078a1.419 1.419 0 0 1-.047-.36c0-.109.015-.234.062-.484h-7.5c.063.25.063.375.063.484 0 .125 0 .235-.063.5h7.5zm0 2.625a1.332 1.332 0 0 1-.047-.36c0-.109.015-.234.062-.484h-7.5c.063.25.063.375.063.485 0 .125 0 .25-.063.5h7.5zm0 0"/></symbol><symbol overflow="visible" id="i"><path d="M7.063-17.313c-.063-.046-.125-.093-.188-.156-.063-.047-.11-.11-.219-.312C3.47-14.594 1.563-10.328 1.563-5.5v4.766c0 4.828 1.906 9.093 5.093 12.28.11-.202.157-.265.219-.327.063-.047.125-.11.313-.203C4.14 7.953 2.796 3.89 2.796-.734V-5.5c0-4.64 1.344-8.688 4.39-11.766zm0 0"/></symbol><symbol overflow="visible" id="j"><path d="M8.266-2.766a1.332 1.332 0 0 1-.047-.359c0-.11.015-.234.062-.484h-7.5c.063.25.063.375.063.484 0 .125 0 .25-.063.5h7.5zm0 0"/></symbol><symbol overflow="visible" id="k"><path d="M5.36-5.922a2.204 2.204 0 0 0-.563-.11c-.797 0-1.89.97-3.39 3.063l.25.094 1.28-5.938-.265-.234c-.75.375-1.063.438-2.047.531l-.094.5h.735c.28 0 .265-.046.265.157 0 .109-.015.203-.031.296L.937-4.358c-.156.89-.359 1.718-1 4.25l.204.234.968-.25.297-1.578c.11-.578.36-1.016.61-1.281C2.766-.844 3.28.109 3.578.109c.156 0 .547-.187 1.078-.562l.61-.438-.204-.453-.671.375c-.172.094-.141.078-.25.078-.11 0-.094-.03-.204-.234-.421-.766-.656-1.313-1.109-2.734l.125-.125c.735-.72 1.188-.985 1.781-.985.094 0 .22.016.516.094l.266-1zm0 0"/></symbol><symbol overflow="visible" id="l"><path d="M6.234-1.25l-.171-.297-.454.297c-.343.219-.5.313-.625.313-.078 0-.03.03-.03-.11 0-.047.015-.187.03-.234l.782-3.297c.093-.344.14-.688.14-.89 0-.266-.265-.563-.5-.563-.5 0-1.437.5-2.14 1.156-.454.422-.797.828-1.407 1.703l.235.094.453-1.938c.047-.203.078-.343.078-.484 0-.25-.234-.531-.406-.531-.266 0-.828.312-1.703.922l-.391.296.172.485.547-.36c.437-.28.39-.265.469-.265.14 0 .078 0 .078.172 0 .61-.5 2.922-.985 4.656l.172.25c.36-.094.625-.172 1.016-.234.234-1.625.468-2.313 1-3.125.656-1.016 1.453-1.72 1.984-1.72.125 0 .063-.015.063.157 0 .219-.032.469-.141.86l-.61 2.53c-.109.438-.156.72-.156.907 0 .297.266.61.5.61.313 0 .829-.282 2.079-1.22zm0 0"/></symbol><symbol overflow="visible" id="m"><path d="M5.047-4.094c0-1.125-.734-1.937-1.719-1.937-.515 0-1.187.25-1.719.625-.968.703-1.546 2-1.546 3.453C.063-.687.734.125 1.734.125c.657 0 1.47-.344 2-.844.75-.703 1.313-2.156 1.313-3.375zm-1.188.203C3.86-2.75 3.531-1.578 3-.937c-.219.25-.422.359-.781.359-.703 0-.969-.406-.969-1.36 0-1.343.422-2.718 1.016-3.203.156-.125.328-.171.609-.171.734 0 .984.406.984 1.421zm0 0"/></symbol><symbol overflow="visible" id="s"><path d="M6.531-.734V-5.5c0-4.828-1.875-9.094-5.078-12.281-.11.203-.156.265-.219.312-.062.063-.125.11-.312.203 3.062 3.078 4.39 7.125 4.39 11.766v4.766c0 4.625-1.328 8.687-4.39 11.75.187.093.25.156.312.203.063.062.11.125.22.328C4.655 8.359 6.53 4.094 6.53-.734zm0 0"/></symbol><symbol overflow="visible" id="t"><path d="M2.516-3.125c0-.422-.407-.844-.844-.844-.422 0-.86.422-.86.844 0 .438.438.86.86.86.437 0 .844-.422.844-.86zm0 0"/></symbol><symbol overflow="visible" id="u"><path d="M8.266-2.766a1.332 1.332 0 0 1-.047-.359c0-.11.015-.234.062-.484h-3.25v-3.266c-.25.063-.375.078-.484.078-.125 0-.25-.016-.5-.078v3.266H.78c.063.25.063.375.063.484 0 .125 0 .25-.063.5h3.266V.641c.25-.063.375-.079.5-.079.11 0 .234.016.484.079v-3.266h3.25zm0 0"/></symbol><symbol overflow="visible" id="b"><path d="M2.531-.984l-.172-.25L1.953-1c-.281.188-.375.234-.469.234-.078 0 .016.063.016-.046 0-.079.016-.157.063-.344l.75-2.703a.983.983 0 0 0 .062-.313c0-.156-.234-.36-.39-.36-.22 0-.688.204-1.407.688l-.344.219.172.438.5-.297c.266-.172.266-.172.36-.172.093 0 0-.047 0 .062 0 .063-.047.25-.079.39l-.64 2.126c-.094.281-.125.5-.125.672 0 .219.266.484.453.484.25 0 .703-.234 1.734-.922zm.281-4.72c0-.218-.296-.5-.5-.5-.296 0-.734.423-.734.735 0 .219.313.485.563.485.296 0 .671-.391.671-.72zm0 0"/></symbol><symbol overflow="visible" id="c"><path d="M2.297-1.203l-.203-.172-1.125.328C.89-.28.688.187.047 1.172l.297.219.531-.235C1.672.234 2.078-.422 2.359-1.14zm0 0"/></symbol><symbol overflow="visible" id="d"><path d="M4.422-4.453a1.395 1.395 0 0 0-.469-.078c-.625 0-1.547.718-2.75 2.265l.266.094L2.5-6.578l-.234-.203c-.532.25-.891.328-1.704.406l-.109.438h.656c.235 0 .172-.063.172.078 0 .078 0 .156-.015.218l-.47 2.375C.673-2.609.5-2 0-.094l.188.188.843-.188.25-1.203c.078-.437.266-.734.422-.875C2.281-.656 2.75.078 2.984.078c.125 0 .47-.156.891-.422l.5-.328-.172-.406-.594.297c-.14.078-.093.062-.171.062-.094 0-.047-.031-.141-.172-.344-.578-.5-.953-.875-2l.078-.062c.594-.547.922-.735 1.422-.735.062 0 .172.016.453.079l.219-.797zm0 0"/></symbol><symbol overflow="visible" id="n"><path d="M3.156-5.86c-.062-.03-.094-.062-.14-.109-.047-.047-.079-.093-.188-.281C1.594-5.016.906-3.766.906-2.64v.578c0 1.124.688 2.39 1.922 3.624.11-.203.14-.25.188-.28.046-.048.078-.079.265-.173C2.171-.016 1.75-1.03 1.75-2.062v-.579c0-1.03.422-2.03 1.531-3.156zm0 0"/></symbol><symbol overflow="visible" id="o"><path d="M6.172-2.078c-.016-.094-.031-.188-.031-.266 0-.094.015-.187.062-.406H3.781v-2.422c-.234.047-.328.063-.422.063-.078 0-.171-.016-.421-.063v2.422H.515c.046.219.062.313.062.406 0 .078-.015.172-.062.39h2.421V.485c.25-.062.344-.062.422-.062.094 0 .188 0 .422.062v-2.437h2.422zm0 0"/></symbol><symbol overflow="visible" id="p"><path d="M6.172-2.078c-.016-.094-.031-.188-.031-.266 0-.094.015-.187.062-.406H.516c.046.219.062.313.062.406 0 .078-.015.172-.062.39h5.687zm0 0"/></symbol><symbol overflow="visible" id="q"><path d="M4.281-.11V-.5l-.656-.031c-.531-.031-.484.015-.484-.453v-5.344l-.282-.094c-.625.313-1.312.578-2.375.906l.125.594h.22l1.25-.516h.03c.047 0-.078-.062-.078.157v4.297c0 .468.047.421-.469.453L.86-.5v.531L2.61 0l1.672.031zm0 0"/></symbol><symbol overflow="visible" id="r"><path d="M2.844-2.063v-.578c0-1.125-.688-2.375-1.938-3.609-.094.188-.125.234-.172.281-.046.047-.093.078-.265.172C1.579-4.672 2-3.672 2-2.64v.579C2-1.032 1.578-.017.469 1.108c.172.094.219.125.265.172.047.032.079.078.172.282 1.25-1.235 1.938-2.5 1.938-3.625zm0 0"/></symbol></defs><use xlink:href="#a" x=".985" y="18.882"/><use xlink:href="#b" x="10.286" y="21.655"/><use xlink:href="#c" x="13.19" y="21.655"/><use xlink:href="#d" x="15.775" y="21.655"/><use xlink:href="#e" x="20.94" y="18.882"/><use xlink:href="#f" x="26.009" y="18.882"/><use xlink:href="#g" x="30.038" y="18.882"/><use xlink:href="#h" x="38.43" y="18.882"/><use xlink:href="#i" x="50.84" y="18.882"/><use xlink:href="#f" x="85.976" y="10.274"/><use xlink:href="#j" x="92.671" y="10.274"/><use xlink:href="#k" x="104.411" y="10.274"/><use xlink:href="#l" x="110.114" y="10.274"/><use xlink:href="#m" x="116.761" y="10.274"/><use xlink:href="#f" x="122.069" y="10.274"/><use xlink:href="#b" x="126.055" y="13.047"/><path d="M60.16 15.895h95.113" fill="none" stroke-width=".717" stroke="#000" stroke-miterlimit="10"/><use xlink:href="#k" x="60.159" y="26.927"/><use xlink:href="#l" x="65.862" y="26.927"/><use xlink:href="#m" x="72.509" y="26.927"/><use xlink:href="#f" x="77.817" y="26.927"/><use xlink:href="#n" x="81.798" y="29.701"/><use xlink:href="#b" x="85.552" y="29.701"/><use xlink:href="#o" x="88.456" y="29.701"/><use xlink:href="#d" x="95.184" y="29.701"/><use xlink:href="#p" x="99.85" y="29.701"/><use xlink:href="#q" x="106.579" y="29.701"/><use xlink:href="#r" x="111.581" y="29.701"/><use xlink:href="#j" x="118.49" y="26.927"/><use xlink:href="#k" x="130.23" y="26.927"/><use xlink:href="#l" x="135.933" y="26.927"/><use xlink:href="#m" x="142.58" y="26.927"/><use xlink:href="#f" x="147.888" y="26.927"/><use xlink:href="#b" x="151.871" y="29.701"/><use xlink:href="#s" x="156.469" y="18.882"/><use xlink:href="#t" x="167.241" y="18.882"/><use xlink:href="#a" x="173.242" y="18.882"/><use xlink:href="#b" x="182.549" y="21.655"/><use xlink:href="#c" x="185.444" y="21.655"/><use xlink:href="#d" x="188.029" y="21.655"/><use xlink:href="#p" x="192.695" y="21.655"/><use xlink:href="#q" x="199.424" y="21.655"/><use xlink:href="#e" x="204.933" y="18.882"/><use xlink:href="#f" x="210.002" y="18.882"/><use xlink:href="#g" x="214.031" y="18.882"/><use xlink:href="#u" x="221.766" y="18.882"/><use xlink:href="#i" x="233.506" y="18.882"/><use xlink:href="#k" x="262.943" y="9.396"/><use xlink:href="#l" x="268.646" y="9.396"/><use xlink:href="#m" x="275.293" y="9.396"/><use xlink:href="#f" x="280.601" y="9.396"/><use xlink:href="#n" x="284.582" y="12.169"/><use xlink:href="#b" x="288.336" y="12.169"/><use xlink:href="#o" x="291.24" y="12.169"/><use xlink:href="#d" x="297.968" y="12.169"/><use xlink:href="#r" x="302.634" y="12.169"/><use xlink:href="#j" x="309.543" y="9.396"/><use xlink:href="#f" x="321.283" y="9.396"/><path d="M242.824 15.895h102.621" fill="none" stroke-width=".717" stroke="#000" stroke-miterlimit="10"/><g><use xlink:href="#k" x="242.824" y="26.927"/></g><g><use xlink:href="#l" x="248.515" y="26.927"/><use xlink:href="#m" x="255.162" y="26.927"/><use xlink:href="#f" x="260.47" y="26.927"/></g><g><use xlink:href="#n" x="264.463" y="29.701"/><use xlink:href="#b" x="268.217" y="29.701"/></g><g><use xlink:href="#o" x="271.112" y="29.701"/><use xlink:href="#d" x="277.841" y="29.701"/></g><g><use xlink:href="#r" x="282.506" y="29.701"/></g><g><use xlink:href="#j" x="289.424" y="26.927"/></g><g><use xlink:href="#k" x="301.164" y="26.927"/></g><g><use xlink:href="#l" x="306.867" y="26.927"/><use xlink:href="#m" x="313.514" y="26.927"/><use xlink:href="#f" x="318.822" y="26.927"/></g><g><use xlink:href="#n" x="322.805" y="29.701"/><use xlink:href="#b" x="326.559" y="29.701"/></g><g><use xlink:href="#o" x="329.463" y="29.701"/><use xlink:href="#q" x="336.191" y="29.701"/><use xlink:href="#r" x="341.194" y="29.701"/></g><g><use xlink:href="#s" x="346.641" y="18.882"/></g><g><use xlink:href="#t" x="357.413" y="18.882"/></g><g><use xlink:href="#a" x="363.414" y="18.882"/></g><g><use xlink:href="#b" x="372.721" y="21.655"/></g><g><use xlink:href="#o" x="375.625" y="21.655"/><use xlink:href="#q" x="382.354" y="21.655"/><use xlink:href="#c" x="387.356" y="21.655"/><use xlink:href="#d" x="389.941" y="21.655"/></g><g><use xlink:href="#p" x="394.607" y="21.655"/><use xlink:href="#q" x="401.336" y="21.655"/></g><g><use xlink:href="#e" x="406.836" y="18.882"/><use xlink:href="#f" x="411.905" y="18.882"/></g><g><use xlink:href="#g" x="415.934" y="18.882"/></g></svg>