<svg xmlns="http://www.w3.org/2000/svg" xmlns:xlink="http://www.w3.org/1999/xlink" width="382pt" height="55pt" viewBox="0 0 382 55"><defs><symbol overflow="visible" id="a"><path d="M4.984-1.14l-.156-.485c-.25.203-.266.219-.328.266-.375.312-.453.39-.625.39-.125 0-.047.031-.047-.156 0-.047 0-.078.016-.125l1.11-4.578-.25-.203-.438.218c-.438-.156-.672-.218-.985-.218-.344 0-.578.062-.906.218-.75.375-1.234.766-1.531 1.36l-.047.094C.28-3.297-.093-1.875-.093-.922c0 .516.327 1.047.546 1.047.25 0 .797-.281 1.234-.656.516-.453.985-1.016 1.641-1.938l-.234-.094-.344 1.516a2.715 2.715 0 0 0-.078.61c0 .265.25.562.437.562.266 0 .86-.36 1.891-1.219zM3.672-5.079c-.266 1.281-.453 1.797-.844 2.406C2.156-1.656 1.516-.969 1.125-.969c-.14 0-.078-.015-.078-.344 0-.765.297-2.093.719-3.093.296-.688.453-.766 1.03-.766.282 0 .5.047.86.172zm0 0"/></symbol><symbol overflow="visible" id="b"><path d="M8.266-4.078a1.419 1.419 0 0 1-.047-.36c0-.109.015-.234.062-.484h-7.5c.063.25.063.375.063.484 0 .125 0 .235-.063.5h7.5zm0 2.625a1.332 1.332 0 0 1-.047-.36c0-.109.015-.234.062-.484h-7.5c.063.25.063.375.063.485 0 .125 0 .25-.063.5h7.5zm0 0"/></symbol><symbol overflow="visible" id="c"><path d="M5.875-5.875c-.14-.078-.344-.156-.453-.156-.469 0-1.063.468-1.797 1.578l-.453.656.25.094-.078-.578c-.14-1.188-.594-1.75-1.297-1.75-.313 0-.688.14-.797.297L.484-4.61l.407.25c.437-.485.578-.61.812-.61.39 0 .516.36.719 1.532l.125.718-.438.656C1.594-1.25 1.297-.905.953-.905c-.172 0-.172.078-.203.015l-.188-.468-.453.062c0 .36-.03.516-.093.89-.032.141-.047.173-.063.329.219.125.531.203.672.203.39 0 .953-.375 1.328-.938l.906-1.406-.234-.094.125.829c.172 1.015.578 1.609 1 1.609.266 0 .75-.234 1.125-.578l.64-.578-.218-.469c-.578.453-.766.61-.953.61-.188 0-.25-.094-.453-.5.015.046-.11-.407-.172-.75L3.5-3.313l.39-.532c.563-.765.782-1.015 1.157-1.015.187 0 .187-.032.312.312l.36-.11.203-1.171zm0 0"/></symbol><symbol overflow="visible" id="e"><path d="M2.516-3.125c0-.422-.407-.844-.844-.844-.422 0-.86.422-.86.844 0 .438.438.86.86.86.437 0 .844-.422.844-.86zm0 0"/></symbol><symbol overflow="visible" id="f"><path d="M5.953-5.875l-.203-.156c-.375.14-.64.203-1.016.234l-.453 1.703c-.14.563-.531 1.344-.922 1.938-.421.61-.89 1.094-1.156 1.094-.265 0-.11-.438-.094-.594l.172-2.328c.031-.36.047-.829.047-1.157 0-.53-.219-.89-.422-.89-.156 0-.422.125-1 .515L-.14-4.78l.266.437.734-.453c.063-.047.125-.11.204-.11.312 0 .125.485.109.673L.969-1.328l-.016.484c-.015.5.36.969.656.969.454 0 1.547-1.047 2.438-2.39l-.234-.094-.579 2.03c-.609 2.126-1.078 2.86-1.906 2.86-.422 0-.61-.187-.61-.61 0-.062.016-.155.032-.343l-.297-.11-.672.485c-.015.156-.015.219-.015.281 0 .516.578 1.063 1.125 1.063 1.265 0 2.703-1.61 3.406-3.828L6-5.828zm0 0"/></symbol><symbol overflow="visible" id="h"><path d="M5.313-4.625c0-.453-.157-1.016-.297-1.203-.079-.094-.329-.203-.516-.203-.281 0-.75.14-1.078.312-.61.313-1 .672-1.75 1.625L1.906-4l1.047-4.813-.265-.234c-.75.375-1.079.438-2.047.531l-.11.5h.75c.282 0 .266-.046.266.157 0 .093-.016.218-.031.296L.312-.984C.297-.938.297-.891.297-.86c0 .468.719.984 1.375.984.437 0 1.156-.25 1.656-.625 1.156-.813 1.985-2.547 1.985-4.125zm-1.141.281c0 .766-.25 1.797-.61 2.578-.39.829-.734 1.079-1.374 1.079-.547 0-.72-.157-.72-.657 0-.297.048-.625.157-1.078.234-.953.484-1.422.953-1.922.39-.406.922-.718 1.266-.718.312 0 .328.14.328.718zm0 0"/></symbol><symbol overflow="visible" id="j"><path d="M4.75-5.703c-.297-.188-.797-.328-1.25-.328-.531 0-1.484.468-2.172 1.062C.641-4.375.156-3.03.156-1.75.156-.61.796.125 1.75.125c.656 0 1.328-.266 1.984-.813l.657-.53-.204-.485-.343.219c-.86.578-1.203.75-1.625.75-.672 0-.875-.36-.875-1.297 0-1.266.36-2.406.937-2.875.25-.203.453-.266.844-.266.531 0 .813.094.813.375v.86h.546c.11-.922.188-1.36.329-1.735zm0 0"/></symbol><symbol overflow="visible" id="k"><path d="M5.875-8.86l-.219-.187c-.75.375-1.078.438-2.062.531l-.094.5h.75c.281 0 .25-.046.25.157 0 .109 0 .203-.016.296L4.188-5.89a3.109 3.109 0 0 0-.875-.14c-.829 0-2.063.906-2.61 1.937-.375.703-.64 1.938-.64 2.938C.063-.375.374.125.734.125c.313 0 .86-.234 1.266-.563.64-.515 1.031-.984 1.844-2.187l-.25-.094-.266 1.078c-.14.532-.203.907-.203 1.22 0 .25.25.546.453.546.219 0 .594-.203 1-.5l1.047-.766-.266-.468-.656.468c-.172.125-.25.172-.36.172-.093 0-.046.031-.046-.14 0-.094.031-.204.11-.547l1.515-7.157zM4.031-5.03l-.14.703A5.233 5.233 0 0 1 2.375-1.61c-.422.39-.781.64-1.016.64-.187 0-.171-.031-.171-.328 0-1.516.515-3.281 1.109-3.734.156-.125.281-.14.61-.14.53 0 .765.03 1.109.218zm0 0"/></symbol><symbol overflow="visible" id="l"><path d="M4.156-.125v-3.578c0-2.11-1.203-3.485-3.062-3.969.047.25.031.328 0 .422-.016.063 0 .047-.188.281 1.61.438 2.016 1.547 2.016 3.266V0h1.234zm0 0"/></symbol><symbol overflow="visible" id="m"><path d="M4.031-7.39h-1.11V0h1.235v-7.39zm0 0"/></symbol><symbol overflow="visible" id="n"><path d="M6.031-7.031a.57.57 0 0 1-.047-.235c0-.078.016-.171.094-.375-1.547 0-1.922-1.125-1.922-3.187v-3.703H2.922v3.703c0 1.922.781 3.219 1.797 3.687v-.265c-1.016.468-1.797 1.781-1.797 3.703V0h1.234v-3.703c0-2.063.375-3.188 1.922-3.188zm0 0"/></symbol><symbol overflow="visible" id="o"><path d="M4.156-3.922v-3.703H2.922v3.703c0 1.719-.406 2.828-1.985 3.235.157.25.141.234.157.312.031.078.047.156 0 .422 1.86-.5 3.062-1.875 3.062-3.969zm0 0"/></symbol><symbol overflow="visible" id="p"><path d="M7.781-8.219c-.922-.344-1.593-.484-2.328-.484-.984 0-2.078.344-2.906.89C1.14-6.859.39-5.358.39-3.53c0 2.328 1.421 3.75 3.703 3.75C5.25.219 6.187-.094 7.28-.844l.157-.578-.266-.187c-1.234.765-1.75.921-2.672.921-1.89 0-2.781-1.015-2.781-3.14 0-1.328.375-2.406 1.11-3.156.546-.563 1.218-.829 2.171-.829.86 0 1.36.141 2 .547v1.063h.578c.078-.813.172-1.328.36-1.953zm0 0"/></symbol><symbol overflow="visible" id="q"><path d="M4.203-7.828a.735.735 0 0 1-.187-.14c-.063-.063-.11-.126-.22-.329-1.593 1.61-2.5 3.266-2.5 4.781v.797c0 1.516.907 3.172 2.5 4.781.11-.203.157-.265.22-.328.062-.062.125-.109.312-.203C2.875.063 2.281-1.344 2.281-2.719v-.797c0-1.39.594-2.78 2.047-4.25zm0 0"/></symbol><symbol overflow="visible" id="r"><path d="M3.703-5.516c-.453.047-.86.063-1.156.063.172-.984.297-1.578.531-2.25l-.25-.328a7.16 7.16 0 0 1-1.094.531l-.296 2.031c-.391.203-.704.328-1.063.407l-.047.406h1l-.64 3.25C.625-1.11.53-.813.53-.5c0 .297.266.61.5.61.422 0 .922-.282 1.86-1.032.218-.172.14-.125.437-.36l-.25-.437-.672.469c-.36.25-.484.313-.625.313-.093 0-.031.046-.031-.11 0-.297.156-1.234.516-3l.14-.61h1.266l.203-.89zm0 0"/></symbol><symbol overflow="visible" id="s"><path d="M3.766-2.719v-.797c0-1.515-.907-3.171-2.516-4.78-.11.202-.156.265-.203.327-.063.063-.125.11-.313.203 1.438 1.47 2.032 2.86 2.032 4.25v.797c0 1.375-.594 2.781-2.032 4.25.188.094.25.14.313.203.047.063.094.125.203.329C2.86.452 3.766-1.204 3.766-2.72zm0 0"/></symbol><symbol overflow="visible" id="t"><path d="M5.125-.094v-.484l-.75-.047c-.656-.031-.64-.031-.64-.656v-7.172l-.313-.125c-.875.469-1.61.781-2.86 1.219l.125.718h.235l1.547-.687.031-.016c.063 0-.047-.015-.047.266v5.797c0 .625.016.625-.64.656L1-.578v.625L3.125 0l2 .047zm0 0"/></symbol><symbol overflow="visible" id="u"><path d="M5.672-2.594c0-.953-.563-1.61-1.672-2.11.922-.624 1.344-1.218 1.344-1.937 0-1.03-.985-1.859-2.25-1.859-1.422 0-2.61 1.047-2.61 2.297 0 .812.36 1.36 1.25 1.937-.218.11-.53.266-.796.532a2.443 2.443 0 0 0-.72 1.703C.219-.797 1.345.234 2.704.234c1.547 0 2.969-1.343 2.969-2.828zm-1.219.5c0 1-.61 1.656-1.578 1.656-1.016 0-1.531-.578-1.531-1.687 0-.875.312-1.328 1.11-1.813l.937.407c.75.344 1.062.797 1.062 1.437zM4.25-6.516c0 .688-.25 1.047-.953 1.5l-.625-.296c-.766-.375-1.016-.72-1.016-1.329 0-.78.453-1.187 1.297-1.187.875 0 1.297.437 1.297 1.312zm0 0"/></symbol><symbol overflow="visible" id="v"><path d="M4.953-9.938a.595.595 0 0 1-.203-.14c-.047-.063-.094-.125-.203-.328-2.016 2-3.172 4.265-3.172 6.515v1.532c0 2.265 1.156 4.515 3.172 6.515.11-.203.156-.265.203-.312.063-.063.125-.11.313-.203-1.844-1.875-2.625-3.907-2.625-6v-1.532c0-2.078.78-4.125 2.624-5.984zm0 0"/></symbol><symbol overflow="visible" id="w"><path d="M8.266-2.766a1.332 1.332 0 0 1-.047-.359c0-.11.015-.234.062-.484h-7.5c.063.25.063.375.063.484 0 .125 0 .25-.063.5h7.5zm0 0"/></symbol><symbol overflow="visible" id="x"><path d="M5.656-2.813c0-.562-.281-1.171-.703-1.468-.297-.219-.672-.344-.953-.407.734-.562 1.125-1.203 1.125-1.906 0-1.062-1.016-1.906-2.344-1.906-.812 0-1.453.266-2.047.86L.328-5.954h.64l.266-.797c.125-.406.75-.688 1.375-.688.766 0 1.266.5 1.266 1.25 0 .907-.563 1.532-1.406 1.532-.11 0-.469.187-.469.187l-.25-.093-.14.671.202.188C2.297-3.938 2.516-4 2.845-4c1 0 1.422.516 1.422 1.594 0 1.219-.579 1.89-1.704 1.89-.546 0-.937-.14-1.296-.468C.984-1.25.859-1.438.578-2.25l-.562.219C.28-1.234.375-.797.469-.11c.765.25 1.281.343 1.734.343.953 0 2.14-.562 2.813-1.375.406-.484.64-1.109.64-1.671zm0 0"/></symbol><symbol overflow="visible" id="y"><path d="M8.266-2.766a1.332 1.332 0 0 1-.047-.359c0-.11.015-.234.062-.484h-3.25v-3.266c-.25.063-.375.078-.484.078-.125 0-.25-.016-.5-.078v3.266H.78c.063.25.063.375.063.484 0 .125 0 .25-.063.5h3.266V.641c.25-.063.375-.079.5-.079.11 0 .234.016.484.079v-3.266h3.25zm0 0"/></symbol><symbol overflow="visible" id="z"><path d="M5.719-.094c-.016-.25-.016-.375-.016-.547 0-.14 0-.265.031-.671l-4.28.125.093.234 2.187-2.313C4.891-4.5 5.281-5.25 5.281-6.14 5.281-7.516 4.22-8.5 2.703-8.5c-.86 0-1.562.281-2.172.906L.312-5.766h.594l.188-.687c.203-.688.5-.86 1.297-.86 1.03 0 1.546.516 1.546 1.532 0 .89-.468 1.687-1.828 3.11L.047-.454v.5L2.859 0l2.875.047zm0 0"/></symbol><symbol overflow="visible" id="A"><path d="M4.484-2.36v-1.53c0-2.25-1.156-4.516-3.171-6.516-.11.203-.157.265-.22.328-.046.062-.109.11-.312.203 1.86 1.86 2.64 3.906 2.64 5.984v1.532c0 2.093-.78 4.125-2.64 6 .203.093.266.14.313.203.062.047.11.11.218.312 2.016-2 3.172-4.25 3.172-6.515zm0 0"/></symbol><symbol overflow="visible" id="d"><path d="M4.703-2.125c0-.422-.234-.89-.578-1.11a2.69 2.69 0 0 0-.719-.296c.531-.36.875-.875.875-1.39 0-.798-.875-1.454-1.937-1.454-.656 0-1.203.203-1.703.656L.312-4.406h.594l.219-.64c.11-.298.563-.47 1.078-.47.61 0 .969.344.969.907 0 .656-.406 1.078-1.094 1.078-.078 0-.344.203-.344.203l-.265-.094-.125.531.203.141c.39-.172.578-.203.844-.203.796 0 1.093.328 1.093 1.14 0 .907-.421 1.36-1.328 1.36-.437 0-.719-.094-1.015-.344C.906-1 .828-1.094.578-1.75l-.531.188c.234.609.312.937.375 1.468C1.078.11 1.5.172 1.875.172c.766 0 1.75-.422 2.281-1.016.328-.375.547-.86.547-1.281zm0 0"/></symbol><symbol overflow="visible" id="g"><path d="M4.75-.11c-.016-.187-.016-.265-.016-.39s0-.203.032-.547l-3.141.094 1.5-1.469c.938-.922 1.281-1.5 1.281-2.172 0-1.015-.906-1.781-2.14-1.781-.688 0-1.282.219-1.782.703l-.187 1.39h.547l.172-.53c.156-.516.359-.61 1-.61.843 0 1.203.344 1.203 1.094 0 .672-.36 1.234-1.453 2.297L.078-.391v.422L2.406 0l2.36.031zm0 0"/></symbol><symbol overflow="visible" id="i"><path d="M4.797-.11V-.5l-.61-.031c-.468-.031-.437-.016-.437-.547v-.531c.422 0 .625.015 1.047.062v-.781l-.047.094s-.578-.204-.89-.204h-.11V-3.53c0-1.578.031-2.344.078-2.781l-.281-.11-.813.281-2.796 4.188.187.344h2.5v.53c0 .532.063.532-.406.548L1.453-.5v.531L3.172 0l1.625.031zm-2-2.328H.969l1.922-2.89-.266-.094v2.984zm0 0"/></symbol></defs><use xlink:href="#a" x=".958" y="7.745"/><use xlink:href="#b" x="9.578" y="7.745"/><use xlink:href="#c" x="21.987" y="7.745"/><use xlink:href="#d" x="27.971" y="10.518"/><use xlink:href="#e" x="36.128" y="7.745"/><use xlink:href="#f" x="42.13" y="7.745"/><use xlink:href="#g" x="48.11" y="10.518"/><use xlink:href="#h" x=".844" y="22.19"/><use xlink:href="#b" x="9.691" y="22.19"/><use xlink:href="#c" x="22.1" y="22.19"/><use xlink:href="#i" x="28.085" y="24.964"/><use xlink:href="#e" x="36.242" y="22.19"/><use xlink:href="#f" x="42.244" y="22.19"/><use xlink:href="#g" x="48.223" y="24.964"/><use xlink:href="#j" x="1.119" y="36.636"/><use xlink:href="#b" x="9.416" y="36.636"/><use xlink:href="#c" x="21.825" y="36.636"/><use xlink:href="#g" x="27.81" y="39.41"/><use xlink:href="#e" x="35.967" y="36.636"/><use xlink:href="#f" x="41.969" y="36.636"/><use xlink:href="#d" x="47.948" y="39.41"/><use xlink:href="#k" x=".557" y="51.082"/><use xlink:href="#b" x="9.978" y="51.082"/><use xlink:href="#c" x="22.387" y="51.082"/><use xlink:href="#i" x="28.372" y="53.856"/><use xlink:href="#e" x="36.529" y="51.082"/><use xlink:href="#f" x="42.531" y="51.082"/><use xlink:href="#d" x="48.51" y="53.856"/><use xlink:href="#l" x="54.011" y="7.488"/><use xlink:href="#m" x="54.011" y="13.944"/><use xlink:href="#m" x="54.011" y="20.056"/><use xlink:href="#n" x="54.011" y="33.661"/><use xlink:href="#m" x="54.011" y="40.118"/><use xlink:href="#m" x="54.011" y="46.229"/><use xlink:href="#o" x="54.011" y="52.925"/><use xlink:href="#p" x="66.034" y="29.513"/><use xlink:href="#q" x="74.14" y="29.513"/><use xlink:href="#r" x="79.209" y="29.513"/><use xlink:href="#s" x="83.249" y="29.513"/><use xlink:href="#b" x="91.642" y="29.513"/><use xlink:href="#t" x="104.052" y="29.513"/><use xlink:href="#u" x="110.029" y="29.513"/><use xlink:href="#e" x="118.661" y="29.513"/><use xlink:href="#v" x="124.662" y="29.513"/><use xlink:href="#q" x="130.532" y="29.513"/><use xlink:href="#w" x="135.601" y="29.513"/><use xlink:href="#x" x="144.687" y="29.513"/><use xlink:href="#a" x="150.665" y="29.513"/><use xlink:href="#y" x="158.639" y="29.513"/><use xlink:href="#z" x="170.379" y="29.513"/><use xlink:href="#h" x="176.357" y="29.513"/><use xlink:href="#y" x="184.546" y="29.513"/><use xlink:href="#x" x="196.286" y="29.513"/><use xlink:href="#j" x="202.264" y="29.513"/><use xlink:href="#w" x="209.915" y="29.513"/><use xlink:href="#k" x="221.655" y="29.513"/><use xlink:href="#s" x="227.764" y="29.513"/><use xlink:href="#r" x="232.833" y="29.513"/><use xlink:href="#g" x="236.877" y="25.281"/><use xlink:href="#y" x="245.034" y="29.513"/><use xlink:href="#q" x="256.774" y="29.513"/><use xlink:href="#x" x="261.843" y="29.513"/><use xlink:href="#a" x="267.821" y="29.513"/><g><use xlink:href="#w" x="275.783" y="29.513"/></g><g><use xlink:href="#h" x="287.523" y="29.513"/></g><g><use xlink:href="#w" x="295.712" y="29.513"/></g><g><use xlink:href="#x" x="307.464" y="29.513"/><use xlink:href="#j" x="313.442" y="29.513"/></g><g><use xlink:href="#s" x="318.427" y="29.513"/><use xlink:href="#r" x="323.496" y="29.513"/></g><g><use xlink:href="#y" x="330.191" y="29.513"/></g><g><use xlink:href="#q" x="341.931" y="29.513"/><use xlink:href="#j" x="347" y="29.513"/></g><g><use xlink:href="#w" x="354.639" y="29.513"/></g><g><use xlink:href="#a" x="366.391" y="29.513"/><use xlink:href="#s" x="371.699" y="29.513"/><use xlink:href="#A" x="376.768" y="29.513"/></g></svg>