<svg xmlns:xlink="http://www.w3.org/1999/xlink" width="90ex" height="10.167ex" style="vertical-align: -6.167ex; margin-left: 0ex; margin-right: 0ex; margin-bottom: 1px; margin-top: 1px;" viewBox="0 -1771.7 38778 4407.7" xmlns="http://www.w3.org/2000/svg">
<defs>
<path stroke-width="10" id="E2-MJMATHI-42" d="M231 637Q204 637 199 638T194 649Q194 676 205 682Q206 683 335 683Q594 683 608 681Q671 671 713 636T756 544Q756 480 698 429T565 360L555 357Q619 348 660 311T702 219Q702 146 630 78T453 1Q446 0 242 0Q42 0 39 2Q35 5 35 10Q35 17 37 24Q42 43 47 45Q51 46 62 46H68Q95 46 128 49Q142 52 147 61Q150 65 219 339T288 628Q288 635 231 637ZM649 544Q649 574 634 600T585 634Q578 636 493 637Q473 637 451 637T416 636H403Q388 635 384 626Q382 622 352 506Q352 503 351 500L320 374H401Q482 374 494 376Q554 386 601 434T649 544ZM595 229Q595 273 572 302T512 336Q506 337 429 337Q311 337 310 336Q310 334 293 263T258 122L240 52Q240 48 252 48T333 46Q422 46 429 47Q491 54 543 105T595 229Z"></path>
<path stroke-width="10" id="E2-MJMATHI-65" d="M39 168Q39 225 58 272T107 350T174 402T244 433T307 442H310Q355 442 388 420T421 355Q421 265 310 237Q261 224 176 223Q139 223 138 221Q138 219 132 186T125 128Q125 81 146 54T209 26T302 45T394 111Q403 121 406 121Q410 121 419 112T429 98T420 82T390 55T344 24T281 -1T205 -11Q126 -11 83 42T39 168ZM373 353Q367 405 305 405Q272 405 244 391T199 357T170 316T154 280T149 261Q149 260 169 260Q282 260 327 284T373 353Z"></path>
<path stroke-width="10" id="E2-MJMAIN-B4" d="M349 699Q367 699 380 686T393 656Q393 651 392 647T387 637T380 627T367 616T351 602T330 585T303 563L232 505L217 519Q203 533 204 533Q204 534 229 567T282 636T313 678L316 681Q318 684 321 686T328 692T337 697T349 699Z"></path>
<path stroke-width="10" id="E2-MJMATHI-7A" d="M347 338Q337 338 294 349T231 360Q211 360 197 356T174 346T162 335T155 324L153 320Q150 317 138 317Q117 317 117 325Q117 330 120 339Q133 378 163 406T229 440Q241 442 246 442Q271 442 291 425T329 392T367 375Q389 375 411 408T434 441Q435 442 449 442H462Q468 436 468 434Q468 430 463 420T449 399T432 377T418 358L411 349Q368 298 275 214T160 106L148 94L163 93Q185 93 227 82T290 71Q328 71 360 90T402 140Q406 149 409 151T424 153Q443 153 443 143Q443 138 442 134Q425 72 376 31T278 -11Q252 -11 232 6T193 40T155 57Q111 57 76 -3Q70 -11 59 -11H54H41Q35 -5 35 -2Q35 13 93 84Q132 129 225 214T340 322Q352 338 347 338Z"></path>
<path stroke-width="10" id="E2-MJMATHI-69" d="M184 600Q184 624 203 642T247 661Q265 661 277 649T290 619Q290 596 270 577T226 557Q211 557 198 567T184 600ZM21 287Q21 295 30 318T54 369T98 420T158 442Q197 442 223 419T250 357Q250 340 236 301T196 196T154 83Q149 61 149 51Q149 26 166 26Q175 26 185 29T208 43T235 78T260 137Q263 149 265 151T282 153Q302 153 302 143Q302 135 293 112T268 61T223 11T161 -11Q129 -11 102 10T74 74Q74 91 79 106T122 220Q160 321 166 341T173 380Q173 404 156 404H154Q124 404 99 371T61 287Q60 286 59 284T58 281T56 279T53 278T49 278T41 278H27Q21 284 21 287Z"></path>
<path stroke-width="10" id="E2-MJMATHI-72" d="M21 287Q22 290 23 295T28 317T38 348T53 381T73 411T99 433T132 442Q161 442 183 430T214 408T225 388Q227 382 228 382T236 389Q284 441 347 441H350Q398 441 422 400Q430 381 430 363Q430 333 417 315T391 292T366 288Q346 288 334 299T322 328Q322 376 378 392Q356 405 342 405Q286 405 239 331Q229 315 224 298T190 165Q156 25 151 16Q138 -11 108 -11Q95 -11 87 -5T76 7T74 17Q74 30 114 189T154 366Q154 405 128 405Q107 405 92 377T68 316T57 280Q55 278 41 278H27Q21 284 21 287Z"></path>
<path stroke-width="10" id="E2-MJMAIN-28" d="M94 250Q94 319 104 381T127 488T164 576T202 643T244 695T277 729T302 750H315H319Q333 750 333 741Q333 738 316 720T275 667T226 581T184 443T167 250T184 58T225 -81T274 -167T316 -220T333 -241Q333 -250 318 -250H315H302L274 -226Q180 -141 137 -14T94 250Z"></path>
<path stroke-width="10" id="E2-MJMATHI-6B" d="M121 647Q121 657 125 670T137 683Q138 683 209 688T282 694Q294 694 294 686Q294 679 244 477Q194 279 194 272Q213 282 223 291Q247 309 292 354T362 415Q402 442 438 442Q468 442 485 423T503 369Q503 344 496 327T477 302T456 291T438 288Q418 288 406 299T394 328Q394 353 410 369T442 390L458 393Q446 405 434 405H430Q398 402 367 380T294 316T228 255Q230 254 243 252T267 246T293 238T320 224T342 206T359 180T365 147Q365 130 360 106T354 66Q354 26 381 26Q429 26 459 145Q461 153 479 153H483Q499 153 499 144Q499 139 496 130Q455 -11 378 -11Q333 -11 305 15T277 90Q277 108 280 121T283 145Q283 167 269 183T234 206T200 217T182 220H180Q168 178 159 139T145 81T136 44T129 20T122 7T111 -2Q98 -11 83 -11Q66 -11 57 -1T48 16Q48 26 85 176T158 471L195 616Q196 629 188 632T149 637H144Q134 637 131 637T124 640T121 647Z"></path>
<path stroke-width="10" id="E2-MJMAIN-2C" d="M78 35T78 60T94 103T137 121Q165 121 187 96T210 8Q210 -27 201 -60T180 -117T154 -158T130 -185T117 -194Q113 -194 104 -185T95 -172Q95 -168 106 -156T131 -126T157 -76T173 -3V9L172 8Q170 7 167 6T161 3T152 1T140 0Q113 0 96 17Z"></path>
<path stroke-width="10" id="E2-MJMATHI-74" d="M26 385Q19 392 19 395Q19 399 22 411T27 425Q29 430 36 430T87 431H140L159 511Q162 522 166 540T173 566T179 586T187 603T197 615T211 624T229 626Q247 625 254 615T261 596Q261 589 252 549T232 470L222 433Q222 431 272 431H323Q330 424 330 420Q330 398 317 385H210L174 240Q135 80 135 68Q135 26 162 26Q197 26 230 60T283 144Q285 150 288 151T303 153H307Q322 153 322 145Q322 142 319 133Q314 117 301 95T267 48T216 6T155 -11Q125 -11 98 4T59 56Q57 64 57 83V101L92 241Q127 382 128 383Q128 385 77 385H26Z"></path>
<path stroke-width="10" id="E2-MJMAIN-29" d="M60 749L64 750Q69 750 74 750H86L114 726Q208 641 251 514T294 250Q294 182 284 119T261 12T224 -76T186 -143T145 -194T113 -227T90 -246Q87 -249 86 -250H74Q66 -250 63 -250T58 -247T55 -238Q56 -237 66 -225Q221 -64 221 250T66 725Q56 737 55 738Q55 746 60 749Z"></path>
<path stroke-width="10" id="E2-MJMAIN-3D" d="M56 347Q56 360 70 367H707Q722 359 722 347Q722 336 708 328L390 327H72Q56 332 56 347ZM56 153Q56 168 72 173H708Q722 163 722 153Q722 140 707 133H70Q56 140 56 153Z"></path>
<path stroke-width="10" id="E2-MJSZ2-2211" d="M60 948Q63 950 665 950H1267L1325 815Q1384 677 1388 669H1348L1341 683Q1320 724 1285 761Q1235 809 1174 838T1033 881T882 898T699 902H574H543H251L259 891Q722 258 724 252Q725 250 724 246Q721 243 460 -56L196 -356Q196 -357 407 -357Q459 -357 548 -357T676 -358Q812 -358 896 -353T1063 -332T1204 -283T1307 -196Q1328 -170 1348 -124H1388Q1388 -125 1381 -145T1356 -210T1325 -294L1267 -449L666 -450Q64 -450 61 -448Q55 -446 55 -439Q55 -437 57 -433L590 177Q590 178 557 222T452 366T322 544L56 909L55 924Q55 945 60 948Z"></path>
<path stroke-width="10" id="E2-MJMAIN-30" d="M96 585Q152 666 249 666Q297 666 345 640T423 548Q460 465 460 320Q460 165 417 83Q397 41 362 16T301 -15T250 -22Q224 -22 198 -16T137 16T82 83Q39 165 39 320Q39 494 96 585ZM321 597Q291 629 250 629Q208 629 178 597Q153 571 145 525T137 333Q137 175 145 125T181 46Q209 16 250 16Q290 16 318 46Q347 76 354 130T362 333Q362 478 354 524T321 597Z"></path>
<path stroke-width="10" id="E2-MJSZ3-28" d="M701 -940Q701 -943 695 -949H664Q662 -947 636 -922T591 -879T537 -818T475 -737T412 -636T350 -511T295 -362T250 -186T221 17T209 251Q209 962 573 1361Q596 1386 616 1405T649 1437T664 1450H695Q701 1444 701 1441Q701 1436 681 1415T629 1356T557 1261T476 1118T400 927T340 675T308 359Q306 321 306 250Q306 -139 400 -430T690 -924Q701 -936 701 -940Z"></path>
<path stroke-width="10" id="E2-MJSZ3-29" d="M34 1438Q34 1446 37 1448T50 1450H56H71Q73 1448 99 1423T144 1380T198 1319T260 1238T323 1137T385 1013T440 864T485 688T514 485T526 251Q526 134 519 53Q472 -519 162 -860Q139 -885 119 -904T86 -936T71 -949H56Q43 -949 39 -947T34 -937Q88 -883 140 -813Q428 -430 428 251Q428 453 402 628T338 922T245 1146T145 1309T46 1425Q44 1427 42 1429T39 1433T36 1436L34 1438Z"></path>
<path stroke-width="10" id="E2-MJSZ4-E152" d="M-24 327L-18 333H-1Q11 333 15 333T22 329T27 322T35 308T54 284Q115 203 225 162T441 120Q454 120 457 117T460 95V60V28Q460 8 457 4T442 0Q355 0 260 36Q75 118 -16 278L-24 292V327Z"></path>
<path stroke-width="10" id="E2-MJSZ4-E153" d="M-10 60V95Q-10 113 -7 116T9 120Q151 120 250 171T396 284Q404 293 412 305T424 324T431 331Q433 333 451 333H468L474 327V292L466 278Q375 118 190 36Q95 0 8 0Q-5 0 -7 3T-10 24V60Z"></path>
<path stroke-width="10" id="E2-MJSZ4-E151" d="M-10 60Q-10 104 -10 111T-5 118Q-1 120 10 120Q96 120 190 84Q375 2 466 -158L474 -172V-207L468 -213H451H447Q437 -213 434 -213T428 -209T423 -202T414 -187T396 -163Q331 -82 224 -41T9 0Q-4 0 -7 3T-10 25V60Z"></path>
<path stroke-width="10" id="E2-MJSZ4-E150" d="M-18 -213L-24 -207V-172L-16 -158Q75 2 260 84Q334 113 415 119Q418 119 427 119T440 120Q454 120 457 117T460 98V60V25Q460 7 457 4T441 0Q308 0 193 -55T25 -205Q21 -211 18 -212T-1 -213H-18Z"></path>
<path stroke-width="10" id="E2-MJSZ4-E154" d="M-10 0V120H410V0H-10Z"></path>
<path stroke-width="10" id="E2-MJMATHI-62" d="M73 647Q73 657 77 670T89 683Q90 683 161 688T234 694Q246 694 246 685T212 542Q204 508 195 472T180 418L176 399Q176 396 182 402Q231 442 283 442Q345 442 383 396T422 280Q422 169 343 79T173 -11Q123 -11 82 27T40 150V159Q40 180 48 217T97 414Q147 611 147 623T109 637Q104 637 101 637H96Q86 637 83 637T76 640T73 647ZM336 325V331Q336 405 275 405Q258 405 240 397T207 376T181 352T163 330L157 322L136 236Q114 150 114 114Q114 66 138 42Q154 26 178 26Q211 26 245 58Q270 81 285 114T318 219Q336 291 336 325Z"></path>
<path stroke-width="10" id="E2-MJMATHI-6E" d="M21 287Q22 293 24 303T36 341T56 388T89 425T135 442Q171 442 195 424T225 390T231 369Q231 367 232 367L243 378Q304 442 382 442Q436 442 469 415T503 336T465 179T427 52Q427 26 444 26Q450 26 453 27Q482 32 505 65T540 145Q542 153 560 153Q580 153 580 145Q580 144 576 130Q568 101 554 73T508 17T439 -10Q392 -10 371 17T350 73Q350 92 386 193T423 345Q423 404 379 404H374Q288 404 229 303L222 291L189 157Q156 26 151 16Q138 -11 108 -11Q95 -11 87 -5T76 7T74 17Q74 30 112 180T152 343Q153 348 153 366Q153 405 129 405Q91 405 66 305Q60 285 60 284Q58 278 41 278H27Q21 284 21 287Z"></path>
<path stroke-width="10" id="E2-MJMATHI-6F" d="M201 -11Q126 -11 80 38T34 156Q34 221 64 279T146 380Q222 441 301 441Q333 441 341 440Q354 437 367 433T402 417T438 387T464 338T476 268Q476 161 390 75T201 -11ZM121 120Q121 70 147 48T206 26Q250 26 289 58T351 142Q360 163 374 216T388 308Q388 352 370 375Q346 405 306 405Q243 405 195 347Q158 303 140 230T121 120Z"></path>
<path stroke-width="10" id="E2-MJMATHI-6D" d="M21 287Q22 293 24 303T36 341T56 388T88 425T132 442T175 435T205 417T221 395T229 376L231 369Q231 367 232 367L243 378Q303 442 384 442Q401 442 415 440T441 433T460 423T475 411T485 398T493 385T497 373T500 364T502 357L510 367Q573 442 659 442Q713 442 746 415T780 336Q780 285 742 178T704 50Q705 36 709 31T724 26Q752 26 776 56T815 138Q818 149 821 151T837 153Q857 153 857 145Q857 144 853 130Q845 101 831 73T785 17T716 -10Q669 -10 648 17T627 73Q627 92 663 193T700 345Q700 404 656 404H651Q565 404 506 303L499 291L466 157Q433 26 428 16Q415 -11 385 -11Q372 -11 364 -4T353 8T350 18Q350 29 384 161L420 307Q423 322 423 345Q423 404 379 404H374Q288 404 229 303L222 291L189 157Q156 26 151 16Q138 -11 108 -11Q95 -11 87 -5T76 7T74 17Q74 30 112 181Q151 335 151 342Q154 357 154 369Q154 405 129 405Q107 405 92 377T69 316T57 280Q55 278 41 278H27Q21 284 21 287Z"></path>
<path stroke-width="10" id="E2-MJMATHI-61" d="M33 157Q33 258 109 349T280 441Q331 441 370 392Q386 422 416 422Q429 422 439 414T449 394Q449 381 412 234T374 68Q374 43 381 35T402 26Q411 27 422 35Q443 55 463 131Q469 151 473 152Q475 153 483 153H487Q506 153 506 144Q506 138 501 117T481 63T449 13Q436 0 417 -8Q409 -10 393 -10Q359 -10 336 5T306 36L300 51Q299 52 296 50Q294 48 292 46Q233 -10 172 -10Q117 -10 75 30T33 157ZM351 328Q351 334 346 350T323 385T277 405Q242 405 210 374T160 293Q131 214 119 129Q119 126 119 118T118 106Q118 61 136 44T179 26Q217 26 254 59T298 110Q300 114 325 217T351 328Z"></path>
<path stroke-width="10" id="E2-MJMATHI-6C" d="M117 59Q117 26 142 26Q179 26 205 131Q211 151 215 152Q217 153 225 153H229Q238 153 241 153T246 151T248 144Q247 138 245 128T234 90T214 43T183 6T137 -11Q101 -11 70 11T38 85Q38 97 39 102L104 360Q167 615 167 623Q167 626 166 628T162 632T157 634T149 635T141 636T132 637T122 637Q112 637 109 637T101 638T95 641T94 647Q94 649 96 661Q101 680 107 682T179 688Q194 689 213 690T243 693T254 694Q266 694 266 686Q266 675 193 386T118 83Q118 81 118 75T117 65V59Z"></path>
<path stroke-width="10" id="E2-MJMAIN-22C5" d="M78 250Q78 274 95 292T138 310Q162 310 180 294T199 251Q199 226 182 208T139 190T96 207T78 250Z"></path>
<path stroke-width="10" id="E2-MJMAIN-31" d="M213 578L200 573Q186 568 160 563T102 556H83V602H102Q149 604 189 617T245 641T273 663Q275 666 285 666Q294 666 302 660V361L303 61Q310 54 315 52T339 48T401 46H427V0H416Q395 3 257 3Q121 3 100 0H88V46H114Q136 46 152 46T177 47T193 50T201 52T207 57T213 61V578Z"></path>
<path stroke-width="10" id="E2-MJMAIN-2212" d="M84 237T84 250T98 270H679Q694 262 694 250T679 230H98Q84 237 84 250Z"></path>
<path stroke-width="10" id="E2-MJMATHI-70" d="M23 287Q24 290 25 295T30 317T40 348T55 381T75 411T101 433T134 442Q209 442 230 378L240 387Q302 442 358 442Q423 442 460 395T497 281Q497 173 421 82T249 -10Q227 -10 210 -4Q199 1 187 11T168 28L161 36Q160 35 139 -51T118 -138Q118 -144 126 -145T163 -148H188Q194 -155 194 -157T191 -175Q188 -187 185 -190T172 -194Q170 -194 161 -194T127 -193T65 -192Q-5 -192 -24 -194H-32Q-39 -187 -39 -183Q-37 -156 -26 -148H-6Q28 -147 33 -136Q36 -130 94 103T155 350Q156 355 156 364Q156 405 131 405Q109 405 94 377T71 316T59 280Q57 278 43 278H29Q23 284 23 287ZM178 102Q200 26 252 26Q282 26 310 49T356 107Q374 141 392 215T411 325V331Q411 405 350 405Q339 405 328 402T306 393T286 380T269 365T254 350T243 336T235 326L232 322Q232 321 229 308T218 264T204 212Q178 106 178 102Z"></path>
<path stroke-width="10" id="E2-MJMATHI-79" d="M21 287Q21 301 36 335T84 406T158 442Q199 442 224 419T250 355Q248 336 247 334Q247 331 231 288T198 191T182 105Q182 62 196 45T238 27Q261 27 281 38T312 61T339 94Q339 95 344 114T358 173T377 247Q415 397 419 404Q432 431 462 431Q475 431 483 424T494 412T496 403Q496 390 447 193T391 -23Q363 -106 294 -155T156 -205Q111 -205 77 -183T43 -117Q43 -95 50 -80T69 -58T89 -48T106 -45Q150 -45 150 -87Q150 -107 138 -122T115 -142T102 -147L99 -148Q101 -153 118 -160T152 -167H160Q177 -167 186 -165Q219 -156 247 -127T290 -65T313 -9T321 21L315 17Q309 13 296 6T270 -6Q250 -11 231 -11Q185 -11 150 11T104 82Q103 89 103 113Q103 170 138 262T173 379Q173 380 173 381Q173 390 173 393T169 400T158 404H154Q131 404 112 385T82 344T65 302T57 280Q55 278 41 278H27Q21 284 21 287Z"></path>
<path stroke-width="10" id="E2-MJMATHI-77" d="M580 385Q580 406 599 424T641 443Q659 443 674 425T690 368Q690 339 671 253Q656 197 644 161T609 80T554 12T482 -11Q438 -11 404 5T355 48Q354 47 352 44Q311 -11 252 -11Q226 -11 202 -5T155 14T118 53T104 116Q104 170 138 262T173 379Q173 380 173 381Q173 390 173 393T169 400T158 404H154Q131 404 112 385T82 344T65 302T57 280Q55 278 41 278H27Q21 284 21 287Q21 293 29 315T52 366T96 418T161 441Q204 441 227 416T250 358Q250 340 217 250T184 111Q184 65 205 46T258 26Q301 26 334 87L339 96V119Q339 122 339 128T340 136T341 143T342 152T345 165T348 182T354 206T362 238T373 281Q402 395 406 404Q419 431 449 431Q468 431 475 421T483 402Q483 389 454 274T422 142Q420 131 420 107V100Q420 85 423 71T442 42T487 26Q558 26 600 148Q609 171 620 213T632 273Q632 306 619 325T593 357T580 385Z"></path>
<path stroke-width="10" id="E2-MJMAIN-2B" d="M56 237T56 250T70 270H369V420L370 570Q380 583 389 583Q402 583 409 568V270H707Q722 262 722 250T707 230H409V-68Q401 -82 391 -82H389H387Q375 -82 369 -68V230H70Q56 237 56 250Z"></path>
<path stroke-width="10" id="E2-MJMATHI-67" d="M311 43Q296 30 267 15T206 0Q143 0 105 45T66 160Q66 265 143 353T314 442Q361 442 401 394L404 398Q406 401 409 404T418 412T431 419T447 422Q461 422 470 413T480 394Q480 379 423 152T363 -80Q345 -134 286 -169T151 -205Q10 -205 10 -137Q10 -111 28 -91T74 -71Q89 -71 102 -80T116 -111Q116 -121 114 -130T107 -144T99 -154T92 -162L90 -164H91Q101 -167 151 -167Q189 -167 211 -155Q234 -144 254 -122T282 -75Q288 -56 298 -13Q311 35 311 43ZM384 328L380 339Q377 350 375 354T369 368T359 382T346 393T328 402T306 405Q262 405 221 352Q191 313 171 233T151 117Q151 38 213 38Q269 38 323 108L331 118L384 328Z"></path>
<path stroke-width="10" id="E2-MJMATHI-68" d="M137 683Q138 683 209 688T282 694Q294 694 294 685Q294 674 258 534Q220 386 220 383Q220 381 227 388Q288 442 357 442Q411 442 444 415T478 336Q478 285 440 178T402 50Q403 36 407 31T422 26Q450 26 474 56T513 138Q516 149 519 151T535 153Q555 153 555 145Q555 144 551 130Q535 71 500 33Q466 -10 419 -10H414Q367 -10 346 17T325 74Q325 90 361 192T398 345Q398 404 354 404H349Q266 404 205 306L198 293L164 158Q132 28 127 16Q114 -11 83 -11Q69 -11 59 -2T48 16Q48 30 121 320L195 616Q195 629 188 632T149 637H128Q122 643 122 645T124 664Q129 683 137 683Z"></path>
<path stroke-width="10" id="E2-MJMATHI-73" d="M131 289Q131 321 147 354T203 415T300 442Q362 442 390 415T419 355Q419 323 402 308T364 292Q351 292 340 300T328 326Q328 342 337 354T354 372T367 378Q368 378 368 379Q368 382 361 388T336 399T297 405Q249 405 227 379T204 326Q204 301 223 291T278 274T330 259Q396 230 396 163Q396 135 385 107T352 51T289 7T195 -10Q118 -10 86 19T53 87Q53 126 74 143T118 160Q133 160 146 151T160 120Q160 94 142 76T111 58Q109 57 108 57T107 55Q108 52 115 47T146 34T201 27Q237 27 263 38T301 66T318 97T323 122Q323 150 302 164T254 181T195 196T148 231Q131 256 131 289Z"></path>
</defs>
<g stroke="currentColor" fill="currentColor" stroke-width="0" transform="matrix(1 0 0 -1 0 0)">
 <use xlink:href="#E2-MJMATHI-42" x="0" y="0"></use>
<g transform="translate(764,0)">
 <use xlink:href="#E2-MJMATHI-65" x="17" y="0"></use>
 <use xlink:href="#E2-MJMAIN-B4" x="55" y="65"></use>
</g>
 <use xlink:href="#E2-MJMATHI-7A" x="1324" y="0"></use>
 <use xlink:href="#E2-MJMATHI-69" x="1797" y="0"></use>
 <use xlink:href="#E2-MJMATHI-65" x="2147" y="0"></use>
 <use xlink:href="#E2-MJMATHI-72" x="2618" y="0"></use>
 <use xlink:href="#E2-MJMAIN-28" x="3074" y="0"></use>
 <use xlink:href="#E2-MJMATHI-6B" x="3468" y="0"></use>
 <use xlink:href="#E2-MJMAIN-2C" x="3994" y="0"></use>
 <use xlink:href="#E2-MJMATHI-74" x="4444" y="0"></use>
 <use xlink:href="#E2-MJMAIN-29" x="4810" y="0"></use>
 <use xlink:href="#E2-MJMAIN-3D" x="5482" y="0"></use>
<g transform="translate(6542,0)">
 <use xlink:href="#E2-MJSZ2-2211" x="0" y="0"></use>
<g transform="translate(145,-1105)">
 <use transform="scale(0.707)" xlink:href="#E2-MJMATHI-69" x="0" y="0"></use>
 <use transform="scale(0.707)" xlink:href="#E2-MJMAIN-3D" x="350" y="0"></use>
 <use transform="scale(0.707)" xlink:href="#E2-MJMAIN-30" x="1133" y="0"></use>
</g>
 <use transform="scale(0.707)" xlink:href="#E2-MJMATHI-6B" x="761" y="1640"></use>
</g>
<g transform="translate(8158,0)">
<g transform="translate(1286,0)">
 <use xlink:href="#E2-MJSZ3-28" x="0" y="-1"></use>
<g transform="translate(741,0)">
 <use xlink:href="#E2-MJMATHI-6B" x="0" y="676"></use>
 <use xlink:href="#E2-MJMATHI-69" x="88" y="-686"></use>
</g>
 <use xlink:href="#E2-MJSZ3-29" x="1267" y="-1"></use>
<g transform="translate(12,-1483)">
 <use xlink:href="#E2-MJSZ4-E152" x="19" y="0"></use>
<g transform="translate(484.7738095238095,0) scale(0.15476190476190477,1)">
 <use xlink:href="#E2-MJSZ4-E154"></use>
</g>
<g transform="translate(549,0)">
 <use xlink:href="#E2-MJSZ4-E151"></use>
 <use xlink:href="#E2-MJSZ4-E150" x="455" y="0"></use>
</g>
<g transform="translate(1459.7738095238096,0) scale(0.15476190476190477,1)">
 <use xlink:href="#E2-MJSZ4-E154"></use>
</g>
 <use xlink:href="#E2-MJSZ4-E153" x="1529" y="0"></use>
</g>
</g>
<g transform="translate(0,-2371)">
 <use transform="scale(0.707)" xlink:href="#E2-MJMATHI-62" x="0" y="0"></use>
 <use transform="scale(0.707)" xlink:href="#E2-MJMATHI-69" x="434" y="0"></use>
 <use transform="scale(0.707)" xlink:href="#E2-MJMATHI-6E" x="784" y="0"></use>
 <use transform="scale(0.707)" xlink:href="#E2-MJMATHI-6F" x="1389" y="0"></use>
 <use transform="scale(0.707)" xlink:href="#E2-MJMATHI-6D" x="1879" y="0"></use>
 <use transform="scale(0.707)" xlink:href="#E2-MJMATHI-69" x="2762" y="0"></use>
 <use transform="scale(0.707)" xlink:href="#E2-MJMATHI-61" x="3112" y="0"></use>
 <use transform="scale(0.707)" xlink:href="#E2-MJMATHI-6C" x="3646" y="0"></use>
 <use transform="scale(0.707)" xlink:href="#E2-MJMATHI-74" x="4302" y="0"></use>
 <use transform="scale(0.707)" xlink:href="#E2-MJMATHI-65" x="4668" y="0"></use>
 <use transform="scale(0.707)" xlink:href="#E2-MJMATHI-72" x="5139" y="0"></use>
 <use transform="scale(0.707)" xlink:href="#E2-MJMATHI-6D" x="5595" y="0"></use>
</g>
</g>
 <use xlink:href="#E2-MJMAIN-22C5" x="12961" y="0"></use>
<g transform="translate(13716,0)">
 <use xlink:href="#E2-MJMAIN-28" x="0" y="0"></use>
 <use xlink:href="#E2-MJMAIN-31" x="394" y="0"></use>
 <use xlink:href="#E2-MJMAIN-2212" x="1121" y="0"></use>
 <use xlink:href="#E2-MJMATHI-74" x="2126" y="0"></use>
<g transform="translate(2492,0)">
 <use xlink:href="#E2-MJMAIN-29" x="0" y="0"></use>
<g transform="translate(394,412)">
 <use transform="scale(0.707)" xlink:href="#E2-MJMATHI-6B" x="0" y="0"></use>
 <use transform="scale(0.707)" xlink:href="#E2-MJMAIN-2212" x="526" y="0"></use>
 <use transform="scale(0.707)" xlink:href="#E2-MJMATHI-69" x="1309" y="0"></use>
</g>
</g>
 <use xlink:href="#E2-MJMAIN-22C5" x="4381" y="0"></use>
<g transform="translate(4886,0)">
 <use xlink:href="#E2-MJMATHI-74" x="0" y="0"></use>
 <use transform="scale(0.707)" xlink:href="#E2-MJMATHI-69" x="517" y="583"></use>
</g>
<g transform="translate(12,-783)">
 <use xlink:href="#E2-MJSZ4-E152" x="19" y="0"></use>
<g transform="translate(506.15753816840873,0) scale(4.4315076336817425,1)">
 <use xlink:href="#E2-MJSZ4-E154"></use>
</g>
<g transform="translate(2345,0)">
 <use xlink:href="#E2-MJSZ4-E151"></use>
 <use xlink:href="#E2-MJSZ4-E150" x="455" y="0"></use>
</g>
<g transform="translate(3277.3907443147405,0) scale(4.4315076336817425,1)">
 <use xlink:href="#E2-MJSZ4-E154"></use>
</g>
 <use xlink:href="#E2-MJSZ4-E153" x="5121" y="0"></use>
</g>
<g transform="translate(149,-1672)">
 <use transform="scale(0.707)" xlink:href="#E2-MJMATHI-70" x="0" y="0"></use>
 <use transform="scale(0.707)" xlink:href="#E2-MJMATHI-6F" x="507" y="0"></use>
 <use transform="scale(0.707)" xlink:href="#E2-MJMATHI-6C" x="998" y="0"></use>
 <use transform="scale(0.707)" xlink:href="#E2-MJMATHI-79" x="1301" y="0"></use>
 <use transform="scale(0.707)" xlink:href="#E2-MJMATHI-6E" x="1803" y="0"></use>
 <use transform="scale(0.707)" xlink:href="#E2-MJMATHI-6F" x="2408" y="0"></use>
 <use transform="scale(0.707)" xlink:href="#E2-MJMATHI-6D" x="2897" y="0"></use>
 <use transform="scale(0.707)" xlink:href="#E2-MJMATHI-69" x="3780" y="0"></use>
 <use transform="scale(0.707)" xlink:href="#E2-MJMATHI-61" x="4130" y="0"></use>
 <use transform="scale(0.707)" xlink:href="#E2-MJMATHI-6C" x="4665" y="0"></use>
 <use transform="scale(0.707)" xlink:href="#E2-MJMATHI-74" x="5321" y="0"></use>
 <use transform="scale(0.707)" xlink:href="#E2-MJMATHI-65" x="5687" y="0"></use>
 <use transform="scale(0.707)" xlink:href="#E2-MJMATHI-72" x="6158" y="0"></use>
 <use transform="scale(0.707)" xlink:href="#E2-MJMATHI-6D" x="6614" y="0"></use>
</g>
</g>
 <use xlink:href="#E2-MJMAIN-22C5" x="19789" y="0"></use>
<g transform="translate(20544,0)">
 <use xlink:href="#E2-MJSZ3-28"></use>
<g transform="translate(741,0)">
<g transform="translate(120,0)">
<rect stroke="none" width="9091" height="60" x="0" y="220"></rect>
<g transform="translate(60,779)">
 <use xlink:href="#E2-MJMAIN-28" x="0" y="0"></use>
 <use xlink:href="#E2-MJMATHI-6B" x="394" y="0"></use>
 <use xlink:href="#E2-MJMAIN-2212" x="1142" y="0"></use>
 <use xlink:href="#E2-MJMATHI-69" x="2147" y="0"></use>
 <use xlink:href="#E2-MJMAIN-29" x="2497" y="0"></use>
 <use xlink:href="#E2-MJMAIN-22C5" x="3113" y="0"></use>
<g transform="translate(3618,0)">
 <use xlink:href="#E2-MJMATHI-77" x="0" y="0"></use>
 <use transform="scale(0.707)" xlink:href="#E2-MJMATHI-69" x="1019" y="-213"></use>
</g>
 <use xlink:href="#E2-MJMAIN-2B" x="4909" y="0"></use>
 <use xlink:href="#E2-MJMATHI-69" x="5914" y="0"></use>
 <use xlink:href="#E2-MJMAIN-22C5" x="6487" y="0"></use>
<g transform="translate(6992,0)">
 <use xlink:href="#E2-MJMATHI-77" x="0" y="0"></use>
<g transform="translate(721,-150)">
 <use transform="scale(0.707)" xlink:href="#E2-MJMATHI-69" x="0" y="0"></use>
 <use transform="scale(0.707)" xlink:href="#E2-MJMAIN-2212" x="350" y="0"></use>
 <use transform="scale(0.707)" xlink:href="#E2-MJMAIN-31" x="1133" y="0"></use>
</g>
</g>
</g>
 <use xlink:href="#E2-MJMATHI-6B" x="4282" y="-724"></use>
</g>
</g>
 <use xlink:href="#E2-MJSZ3-29" x="10072" y="-1"></use>
<g transform="translate(12,-1483)">
 <use xlink:href="#E2-MJSZ4-E152" x="19" y="0"></use>
<g transform="translate(537.1875360641467,0) scale(10.637507212829327,1)">
 <use xlink:href="#E2-MJSZ4-E154"></use>
</g>
<g transform="translate(4951,0)">
 <use xlink:href="#E2-MJSZ4-E151"></use>
 <use xlink:href="#E2-MJSZ4-E150" x="455" y="0"></use>
</g>
<g transform="translate(5914.940565452464,0) scale(10.637507212829327,1)">
 <use xlink:href="#E2-MJSZ4-E154"></use>
</g>
 <use xlink:href="#E2-MJSZ4-E153" x="10334" y="0"></use>
</g>
<g transform="translate(3427,-2370)">
 <use transform="scale(0.707)" xlink:href="#E2-MJMATHI-6E" x="0" y="0"></use>
 <use transform="scale(0.707)" xlink:href="#E2-MJMATHI-65" x="605" y="0"></use>
 <use transform="scale(0.707)" xlink:href="#E2-MJMATHI-77" x="1076" y="0"></use>
 <use transform="scale(0.707)" xlink:href="#E2-MJMATHI-77" x="2150" y="0"></use>
 <use transform="scale(0.707)" xlink:href="#E2-MJMATHI-65" x="2871" y="0"></use>
 <use transform="scale(0.707)" xlink:href="#E2-MJMATHI-69" x="3342" y="0"></use>
 <use transform="scale(0.707)" xlink:href="#E2-MJMATHI-67" x="3692" y="0"></use>
 <use transform="scale(0.707)" xlink:href="#E2-MJMATHI-68" x="4177" y="0"></use>
 <use transform="scale(0.707)" xlink:href="#E2-MJMATHI-74" x="4758" y="0"></use>
 <use transform="scale(0.707)" xlink:href="#E2-MJMATHI-73" x="5124" y="0"></use>
</g>
</g>
 <use xlink:href="#E2-MJMAIN-2C" x="31608" y="0"></use>
 <use xlink:href="#E2-MJMATHI-77" x="32308" y="0"></use>
 <use xlink:href="#E2-MJMATHI-69" x="33029" y="0"></use>
 <use xlink:href="#E2-MJMATHI-74" x="33379" y="0"></use>
 <use xlink:href="#E2-MJMATHI-68" x="33745" y="0"></use>
 <use xlink:href="#E2-MJMATHI-6B" x="34576" y="0"></use>
 <use xlink:href="#E2-MJMAIN-3D" x="35379" y="0"></use>
 <use xlink:href="#E2-MJMATHI-6E" x="36440" y="0"></use>
 <use xlink:href="#E2-MJMAIN-2B" x="37267" y="0"></use>
 <use xlink:href="#E2-MJMAIN-31" x="38273" y="0"></use>
</g>
</svg>