<svg xmlns="http://www.w3.org/2000/svg" xmlns:xlink="http://www.w3.org/1999/xlink" width="296pt" height="55pt" viewBox="0 0 296 55"><defs><symbol overflow="visible" id="a"><path d="M8.266-4.078a1.419 1.419 0 0 1-.047-.36c0-.109.015-.234.062-.484h-7.5c.063.25.063.375.063.484 0 .125 0 .235-.063.5h7.5zm0 2.625a1.332 1.332 0 0 1-.047-.36c0-.109.015-.234.062-.484h-7.5c.063.25.063.375.063.485 0 .125 0 .25-.063.5h7.5zm0 0"/></symbol><symbol overflow="visible" id="b"><path d="M4.406-9.766c-.015-.078-.031-.156-.031-.234 0-.094.016-.172.078-.375H1.375V4.141h3.078c-.062-.204-.078-.297-.078-.375 0-.079.016-.172.078-.375H2.437V-9.641h2.016zm0 0"/></symbol><symbol overflow="visible" id="c"><path d="M5.125-.094v-.484l-.75-.047c-.656-.031-.64-.031-.64-.656v-7.172l-.313-.125c-.875.469-1.61.781-2.86 1.219l.125.718h.235l1.547-.687.031-.016c.063 0-.047-.015-.047.266v5.797c0 .625.016.625-.64.656L1-.578v.625L3.125 0l2 .047zm0 0"/></symbol><symbol overflow="visible" id="d"><path d="M3.703-5.516c-.453.047-.86.063-1.156.063.172-.984.297-1.578.531-2.25l-.25-.328a7.16 7.16 0 0 1-1.094.531l-.296 2.031c-.391.203-.704.328-1.063.407l-.047.406h1l-.64 3.25C.625-1.11.53-.813.53-.5c0 .297.266.61.5.61.422 0 .922-.282 1.86-1.032.218-.172.14-.125.437-.36l-.25-.437-.672.469c-.36.25-.484.313-.625.313-.093 0-.031.046-.031-.11 0-.297.156-1.234.516-3l.14-.61h1.266l.203-.89zm0 0"/></symbol><symbol overflow="visible" id="g"><path d="M3.906 4v-14.375H.828c.063.203.078.281.078.375 0 .078-.015.156-.078.36h2.016V3.39H.828c.063.204.078.297.078.376 0 .078-.015.171-.078.375h3.078zm0 0"/></symbol><symbol overflow="visible" id="h"><path d="M2.516-3.125c0-.422-.407-.844-.844-.844-.422 0-.86.422-.86.844 0 .438.438.86.86.86.437 0 .844-.422.844-.86zm0 0"/></symbol><symbol overflow="visible" id="i"><path d="M5.719-.094c-.016-.25-.016-.375-.016-.547 0-.14 0-.265.031-.671l-4.28.125.093.234 2.187-2.313C4.891-4.5 5.281-5.25 5.281-6.14 5.281-7.516 4.22-8.5 2.703-8.5c-.86 0-1.562.281-2.172.906L.312-5.766h.594l.188-.687c.203-.688.5-.86 1.297-.86 1.03 0 1.546.516 1.546 1.532 0 .89-.468 1.687-1.828 3.11L.047-.454v.5L2.859 0l2.875.047zm0 0"/></symbol><symbol overflow="visible" id="j"><path d="M5.078-14.781H1.562V0h1.235v-14.031h2.469c-.079-.203-.094-.281-.094-.375 0-.078.016-.172.094-.375zm0 0"/></symbol><symbol overflow="visible" id="k"><path d="M2.672-9.938h-1.11V0h1.235v-9.938zm0 0"/></symbol><symbol overflow="visible" id="l"><path d="M5.219-.125a.648.648 0 0 1-.047-.25c0-.078.016-.156.094-.36h-2.47V-14.78H1.564V0h3.703zm0 0"/></symbol><symbol overflow="visible" id="m"><path d="M5.688-4.5c0-2.625-.907-4-2.547-4C1.297-8.5.203-6.89.203-4c0 1.39.281 2.703.703 3.281.422.594 1.203.953 1.938.953 1.812 0 2.844-1.687 2.844-4.734zm-1.282.594C4.406-1.36 4.094-.437 3-.437c-1.156 0-1.516-1.079-1.516-4 0-2.516.313-3.375 1.438-3.375 1.172 0 1.484 1.03 1.484 3.906zm0 0"/></symbol><symbol overflow="visible" id="n"><path d="M8.266-2.766a1.332 1.332 0 0 1-.047-.359c0-.11.015-.234.062-.484h-7.5c.063.25.063.375.063.484 0 .125 0 .25-.063.5h7.5zm0 0"/></symbol><symbol overflow="visible" id="o"><path d="M7.203-5.969l-.125-.218c-.39.14-.937.265-1.328.265-.14 0-.438.016-.734.016-.672 0-2.047-.11-2.563-.11-.906 0-1.39.532-1.812 1.625l.343.188.204-.14c.312-.813.671-.72 1.343-.72.297 0 .75.032 1.016.047-.172.563-.985 2.813-1.031 3.61-.047 1.25.546 1.531.921 1.531.61 0 1.047-.188 1.876-.86l-.172-.484-.454.313.204.187s-.422.031-.625.031c-.563 0-.579-.218-.547-.968.015-.297.047-.61.125-.969l.625-2.328h.687c.266 0 .563 0 .828-.047.22 0 .485-.11.766-.219.156-.25.203-.281.5-.656zm0 0"/></symbol><symbol overflow="visible" id="p"><path d="M5.719-2.75c0-1.375-.953-2.406-2.219-2.406-.703 0-1.25.328-1.766.75.22-1.844 1.094-2.89 3.375-3.563v-.265L4.531-8.5c-1.156.39-1.75.656-2.36 1.188C.939-6.282.235-4.72.235-3.079.234-1.11 1.344.234 2.875.234c1.563 0 2.844-1.359 2.844-2.984zm-1.297.422c0 1.234-.469 1.906-1.39 1.906-1.016 0-1.423-.734-1.423-2.344 0-.406 0-.546.141-.75.266-.406.719-.656 1.297-.656.906 0 1.375.656 1.375 1.844zm0 0"/></symbol><symbol overflow="visible" id="q"><path d="M4.203-7.828a.735.735 0 0 1-.187-.14c-.063-.063-.11-.126-.22-.329-1.593 1.61-2.5 3.266-2.5 4.781v.797c0 1.516.907 3.172 2.5 4.781.11-.203.157-.265.22-.328.062-.062.125-.109.312-.203C2.875.063 2.281-1.344 2.281-2.719v-.797c0-1.39.594-2.78 2.047-4.25zm0 0"/></symbol><symbol overflow="visible" id="r"><path d="M5.656-2.813c0-.562-.281-1.171-.703-1.468-.297-.219-.672-.344-.953-.407.734-.562 1.125-1.203 1.125-1.906 0-1.062-1.016-1.906-2.344-1.906-.812 0-1.453.266-2.047.86L.328-5.954h.64l.266-.797c.125-.406.75-.688 1.375-.688.766 0 1.266.5 1.266 1.25 0 .907-.563 1.532-1.406 1.532-.11 0-.469.187-.469.187l-.25-.093-.14.671.202.188C2.297-3.938 2.516-4 2.845-4c1 0 1.422.516 1.422 1.594 0 1.219-.579 1.89-1.704 1.89-.546 0-.937-.14-1.296-.468C.984-1.25.859-1.438.578-2.25l-.562.219C.28-1.234.375-.797.469-.11c.765.25 1.281.343 1.734.343.953 0 2.14-.562 2.813-1.375.406-.484.64-1.109.64-1.671zm0 0"/></symbol><symbol overflow="visible" id="s"><path d="M3.766-2.719v-.797c0-1.515-.907-3.171-2.516-4.78-.11.202-.156.265-.203.327-.063.063-.125.11-.313.203 1.438 1.47 2.032 2.86 2.032 4.25v.797c0 1.375-.594 2.781-2.032 4.25.188.094.25.14.313.203.047.063.094.125.203.329C2.86.452 3.766-1.204 3.766-2.72zm0 0"/></symbol><symbol overflow="visible" id="t"><path d="M5.766-.094v-.484l-.704-.047c-.578-.031-.578-.063-.578-.781v-.75c.579 0 .829 0 1.282.062v-1L5.734-3s-.671-.188-1.062-.188h-.188v-1.53c0-2.126.016-3.157.094-3.72l-.281-.124-.984.343-3.438 5.64.203.423h3.125v.75c0 .718.016.765-.578.781l-.875.047v.625L3.813 0l1.953.047zM3.344-3.188H1l2.438-3.984-.235-.094v4.079zm0 0"/></symbol><symbol overflow="visible" id="u"><path d="M4.656-.125v-14.656H.953c.078.203.094.297.094.375 0 .094-.016.172-.094.375h2.469V0h1.234zm0 0"/></symbol><symbol overflow="visible" id="v"><path d="M4.656-.125v-9.813H3.422V0h1.234zm0 0"/></symbol><symbol overflow="visible" id="w"><path d="M4.656-.125v-14.656H3.422V-.734H.953c.078.203.094.28.094.359 0 .094-.016.172-.094.375h3.703zm0 0"/></symbol><symbol overflow="visible" id="x"><path d="M7.234-6.594c0-1.218-1.265-1.937-2.312-1.937-.547 0-1.094.031-1.64.031l-2.126-.047-.062.61.812.03c.297 0 .282-.03.282.188 0 .172-.047.532-.11.907l-.89 5.187C1-.531 1.125-.641.64-.594l-.61.031-.093.61L1.688 0l1.78.047.063-.61-.922-.03c-.312-.016-.296.015-.296-.235 0-.11 0-.188.046-.422l.97-5.813-.032.094s.078-.343.14-.578c.016-.062.047-.172.063-.203.328-.063.516-.094.75-.094 1.219 0 1.656.39 1.656 1.516 0 1.281-.718 2.203-1.765 2.203-.266 0-.5-.063-1.11-.281l.047.625c.578.281.813.344 1.172.344 1.531 0 2.984-1.532 2.984-3.157zm0 0"/></symbol><symbol overflow="visible" id="e"><path d="M4.75-.11c-.016-.187-.016-.265-.016-.39s0-.203.032-.547l-3.141.094 1.5-1.469c.938-.922 1.281-1.5 1.281-2.172 0-1.015-.906-1.781-2.14-1.781-.688 0-1.282.219-1.782.703l-.187 1.39h.547l.172-.53c.156-.516.359-.61 1-.61.843 0 1.203.344 1.203 1.094 0 .672-.36 1.234-1.453 2.297L.078-.391v.422L2.406 0l2.36.031zm0 0"/></symbol><symbol overflow="visible" id="f"><path d="M4.703-2.125c0-.422-.234-.89-.578-1.11a2.69 2.69 0 0 0-.719-.296c.531-.36.875-.875.875-1.39 0-.798-.875-1.454-1.937-1.454-.656 0-1.203.203-1.703.656L.312-4.406h.594l.219-.64c.11-.298.563-.47 1.078-.47.61 0 .969.344.969.907 0 .656-.406 1.078-1.094 1.078-.078 0-.344.203-.344.203l-.265-.094-.125.531.203.141c.39-.172.578-.203.844-.203.796 0 1.093.328 1.093 1.14 0 .907-.421 1.36-1.328 1.36-.437 0-.719-.094-1.015-.344C.906-1 .828-1.094.578-1.75l-.531.188c.234.609.312.937.375 1.468C1.078.11 1.5.172 1.875.172c.766 0 1.75-.422 2.281-1.016.328-.375.547-.86.547-1.281zm0 0"/></symbol><symbol overflow="visible" id="y"><path d="M4.281-.11V-.5l-.656-.031c-.531-.031-.484.015-.484-.453v-5.344l-.282-.094c-.625.313-1.312.578-2.375.906l.125.594h.22l1.25-.516h.03c.047 0-.078-.062-.078.157v4.297c0 .468.047.421-.469.453L.86-.5v.531L2.61 0l1.672.031zm0 0"/></symbol><symbol overflow="visible" id="z"><path d="M4.797-.11V-.5l-.61-.031c-.468-.031-.437-.016-.437-.547v-.531c.422 0 .625.015 1.047.062v-.781l-.047.094s-.578-.204-.89-.204h-.11V-3.53c0-1.578.031-2.344.078-2.781l-.281-.11-.813.281-2.796 4.188.187.344h2.5v.53c0 .532.063.532-.406.548L1.453-.5v.531L3.172 0l1.625.031zm-2-2.328H.969l1.922-2.89-.266-.094v2.984zm0 0"/></symbol></defs><use xlink:href="#a" x="-.909" y="30.513"/><use xlink:href="#b" x="11.489" y="30.513"/><use xlink:href="#c" x="16.794" y="30.523"/><use xlink:href="#d" x="32.73" y="30.523"/><use xlink:href="#d" x="46.73" y="30.523"/><use xlink:href="#e" x="50.778" y="26.291"/><use xlink:href="#d" x="66.241" y="30.523"/><use xlink:href="#f" x="70.282" y="26.291"/><use xlink:href="#g" x="75.783" y="30.513"/><use xlink:href="#h" x="83.733" y="30.513"/><use xlink:href="#c" x="90.935" y="21.905"/><path d="M90.934 27.523h5.98" fill="none" stroke-width=".717" stroke="#000" stroke-miterlimit="10"/><use xlink:href="#i" x="90.935" y="38.475"/><use xlink:href="#h" x="100.765" y="30.513"/><use xlink:href="#j" x="106.769" y="15.637"/><use xlink:href="#k" x="106.769" y="24.338"/><use xlink:href="#k" x="106.769" y="32.366"/><use xlink:href="#k" x="106.769" y="40.394"/><use xlink:href="#l" x="106.769" y="53.925"/><use xlink:href="#m" x="118.27" y="8.745"/><use xlink:href="#i" x="150.394" y="8.745"/><use xlink:href="#m" x="200.777" y="8.745"/><use xlink:href="#m" x="245.508" y="8.745"/><use xlink:href="#n" x="112.998" y="23.19"/><use xlink:href="#o" x="122.084" y="23.19"/><use xlink:href="#m" x="150.394" y="23.19"/><use xlink:href="#o" x="200.047" y="23.19"/><use xlink:href="#m" x="245.508" y="23.19"/><use xlink:href="#i" x="114.552" y="37.636"/><use xlink:href="#o" x="120.53" y="37.636"/><use xlink:href="#o" x="139.479" y="37.636"/><use xlink:href="#n" x="149.569" y="37.636"/><use xlink:href="#p" x="161.309" y="37.636"/><use xlink:href="#n" x="177.257" y="37.636"/><use xlink:href="#i" x="186.343" y="37.636"/><use xlink:href="#q" x="192.321" y="37.636"/><use xlink:href="#o" x="197.39" y="37.636"/><use xlink:href="#n" x="207.48" y="37.636"/><use xlink:href="#r" x="219.22" y="37.636"/><use xlink:href="#s" x="225.197" y="37.636"/><use xlink:href="#n" x="240.225" y="37.636"/><use xlink:href="#o" x="249.311" y="37.636"/><use xlink:href="#n" x="112.998" y="52.082"/><use xlink:href="#o" x="122.084" y="52.082"/><use xlink:href="#t" x="139.479" y="52.082"/><use xlink:href="#n" x="148.11" y="52.082"/><use xlink:href="#o" x="159.85" y="52.082"/><use xlink:href="#o" x="189.858" y="52.082"/><use xlink:href="#n" x="199.948" y="52.082"/><use xlink:href="#t" x="211.688" y="52.082"/><use xlink:href="#o" x="244.768" y="52.082"/><use xlink:href="#u" x="256.757" y="15.637"/><use xlink:href="#v" x="256.757" y="24.338"/><use xlink:href="#v" x="256.757" y="32.366"/><use xlink:href="#v" x="256.757" y="40.394"/><use xlink:href="#w" x="256.757" y="53.925"/><use xlink:href="#h" x="265.643" y="30.513"/><use xlink:href="#j" x="271.647" y="15.637"/><use xlink:href="#k" x="271.647" y="24.338"/><use xlink:href="#k" x="271.647" y="32.366"/><use xlink:href="#k" x="271.647" y="40.394"/><use xlink:href="#l" x="271.647" y="53.925"/><use xlink:href="#x" x="277.876" y="8.745"/><use xlink:href="#y" x="285.18" y="11.518"/><use xlink:href="#x" x="277.876" y="23.19"/><use xlink:href="#e" x="285.18" y="25.964"/><use xlink:href="#x" x="277.876" y="37.636"/><g><use xlink:href="#f" x="285.18" y="40.41"/></g><g><use xlink:href="#x" x="277.876" y="52.082"/></g><g><use xlink:href="#z" x="285.18" y="54.856"/></g><g><use xlink:href="#u" x="290.681" y="15.637"/></g><g><use xlink:href="#v" x="290.681" y="24.338"/></g><g><use xlink:href="#v" x="290.681" y="32.366"/></g><g><use xlink:href="#v" x="290.681" y="40.394"/></g><g><use xlink:href="#w" x="290.681" y="53.925"/></g></svg>