<svg xmlns="http://www.w3.org/2000/svg" xmlns:xlink="http://www.w3.org/1999/xlink" width="313pt" height="80" viewBox="0 0 313 60"><defs><symbol overflow="visible" id="a"><path d="M3.5 0v-4.688c0-3.25.344-5.69 1.031-7.328.696-1.644 1.852-2.609 3.469-2.89v.547c-1.148.273-1.98 1.18-2.5 2.718-.523 1.543-.781 3.922-.781 7.141V0zm0 0"/></symbol><symbol overflow="visible" id="b"><path d="M2.219-13.656c.55.23 1.086.84 1.61 1.828.53.98.827 2.61.89 4.89V0H3.5v-7.969c0-1.758-.219-3.086-.656-3.984-.438-.906-1.059-1.375-1.86-1.406v-.704c.782-.03 1.395-.492 1.844-1.39.445-.906.672-2.254.672-4.047v-7.969h1.219v6.953c0 2.18-.282 3.782-.844 4.813-.555 1.031-1.105 1.664-1.656 1.89zm0 0"/></symbol><symbol overflow="visible" id="c"><path d="M4.719-14.938v4.5c0 3.22.258 5.602.781 7.141C6.02-1.754 6.852-.847 8-.578v.562c-1.617-.28-2.773-1.242-3.469-2.89C3.844-4.551 3.5-6.992 3.5-10.234v-4.704zm0 0"/></symbol><symbol overflow="visible" id="d"><path d="M3.5 0H1.031l.063-.281a1.91 1.91 0 0 0 .343-.094.537.537 0 0 0 .188-.188c.063-.082.117-.21.172-.39.062-.176.129-.442.203-.797l1.266-5.734h-.75c-.243 0-.434.039-.579.109a1.322 1.322 0 0 0-.437.39c-.148.188-.324.508-.531.954H.406L.844-8h6.125l-.453 2.063h-.563a8.74 8.74 0 0 0-.031-.844c-.024-.196-.063-.344-.125-.438-.055-.101-.121-.172-.203-.203-.074-.039-.211-.062-.407-.062h-.875l-1.265 5.78c-.043.15-.07.266-.078.36a6.315 6.315 0 0 0-.031.297c-.012.094-.016.18-.016.25a.76.76 0 0 0 .047.297c.039.063.097.11.172.14a1.8 1.8 0 0 0 .421.079zm0 0"/></symbol><symbol overflow="visible" id="f"><path d="M.875-4.25v-.781h7.219v.781zm0 2.422v-.781h7.219v.78zm7.469-1.594zm0 0"/></symbol><symbol overflow="visible" id="g"><path d="M4.078-1.531c0 .23.008.402.031.515a.68.68 0 0 0 .141.282.572.572 0 0 0 .266.171c.125.043.273.075.453.094.187.024.43.04.734.047V0H1.375v-.422A8.17 8.17 0 0 0 2.297-.5c.187-.04.328-.094.422-.156a.516.516 0 0 0 .219-.281c.05-.125.078-.32.078-.594v-4.75c0-.157-.032-.27-.094-.344a.282.282 0 0 0-.235-.11c-.124 0-.304.07-.53.204-.231.125-.516.304-.86.531l-.25-.453 2.734-1.64h.328a27.34 27.34 0 0 0-.03 1.562zm0 0"/></symbol><symbol overflow="visible" id="h"><path d="M3.031-.281c.239-.063.399-.13.485-.203a.59.59 0 0 0 .156-.329c.02-.144.031-.363.031-.656v-.953H.453v-.437l3.422-5.188h.844V-3h.125c.226 0 .39-.016.484-.047a.462.462 0 0 0 .234-.172c.07-.082.133-.222.188-.422h.438l-.063 1.22H4.719v.952c0 .262.004.453.015.578a.83.83 0 0 0 .094.297.54.54 0 0 0 .188.172c.082.043.21.09.39.14V0H3.031zM1.421-3h2.282v-1.453c0-.363.004-.774.016-1.234.02-.458.035-.801.047-1.032h-.063l-2.281 3.64zm0 0"/></symbol><symbol overflow="visible" id="i"><path d="M2.063-2.969c0 1.367.218 2.492.656 3.375.445.895 1.117 1.492 2.015 1.797l-.14.453C3.457 2.352 2.582 1.703 1.969.703c-.606-.988-.907-2.191-.907-3.61 0-1.405.301-2.609.907-3.609.613-1 1.488-1.648 2.625-1.953l.172.453c-.918.305-1.602.891-2.047 1.766-.438.867-.656 1.96-.656 3.281zm0 0"/></symbol><symbol overflow="visible" id="j"><path d="M.938-6.344v-1.11a6.877 6.877 0 0 1 1.265-.484 4.574 4.574 0 0 1 1.14-.156c.446 0 .833.07 1.157.203.332.137.586.336.766.594.175.25.265.559.265.922 0 .324-.07.617-.203.875a1.86 1.86 0 0 1-.562.656 4.907 4.907 0 0 1-.922.547v.047c.238.055.469.133.687.234.219.094.41.227.578.391.176.168.317.367.422.594.102.23.157.492.157.781 0 .45-.102.852-.297 1.203-.2.356-.5.637-.907.844-.406.2-.902.297-1.484.297-.336 0-.7-.04-1.094-.11A6.822 6.822 0 0 1 .844-.328v-1.234h.703c.133.406.312.703.531.89.227.18.535.266.922.266.508 0 .895-.133 1.156-.406.258-.282.39-.692.39-1.235 0-.57-.171-1.008-.515-1.312-.343-.301-.851-.454-1.515-.454H2v-.515c.52-.031.96-.129 1.328-.297.363-.176.629-.398.797-.672.176-.27.266-.57.266-.906 0-.426-.118-.754-.344-.984-.23-.239-.563-.36-1-.36-.375 0-.68.102-.906.297-.23.2-.399.5-.5.906zm0 0"/></symbol><symbol overflow="visible" id="k"><path d="M4.906-3.047V.328h-.843v-3.375H.874v-.781h3.188v-3.375h.843v3.375h3.188v.781zm0 0"/></symbol><symbol overflow="visible" id="l"><path d="M4.406-4.203c0-.29-.023-.504-.062-.64a.542.542 0 0 0-.203-.298.705.705 0 0 0-.391-.093c-.398 0-.75.156-1.063.468-.312.313-.57.762-.765 1.344a5.036 5.036 0 0 0-.297 1.656c0 .399.078.696.234.891.157.188.391.281.704.281.351 0 .66-.066.921-.203.258-.133.532-.348.813-.64l.36.359c-.368.406-.735.703-1.11.89a2.658 2.658 0 0 1-1.203.282c-.563 0-.996-.164-1.297-.5-.293-.332-.438-.82-.438-1.469 0-.414.079-.875.235-1.375.156-.5.383-.938.687-1.313a2.91 2.91 0 0 1 1.047-.859 3.05 3.05 0 0 1 1.297-.281c.52 0 1 .062 1.438.187L5.03-4.203zm0 0"/></symbol><symbol overflow="visible" id="m"><path d="M2.563.094c-.618 0-1.09-.164-1.422-.5-.336-.344-.5-.832-.5-1.469 0-.313.046-.672.14-1.078a4.079 4.079 0 0 1 .61-1.453c.289-.414.644-.735 1.062-.953a2.827 2.827 0 0 1 1.375-.344c.625 0 1.098.172 1.422.516.332.343.5.835.5 1.468 0 .461-.078.95-.234 1.469-.157.512-.375.945-.657 1.297a2.675 2.675 0 0 1-.984.781 3.138 3.138 0 0 1-1.313.266zm-.891-1.719c0 .43.086.746.266.953.175.211.445.313.812.313.375 0 .707-.172 1-.516.3-.344.535-.82.703-1.438.176-.624.266-1.171.266-1.64 0-.426-.086-.742-.25-.953-.157-.219-.414-.328-.766-.328-.406 0-.762.171-1.062.515-.305.344-.543.836-.72 1.469-.167.625-.25 1.168-.25 1.625zm0 0"/></symbol><symbol overflow="visible" id="n"><path d="M4.422-4.172c-.043-.351-.156-.617-.344-.797-.187-.176-.48-.265-.875-.265-.312 0-.57.078-.765.234a.776.776 0 0 0-.282.625.85.85 0 0 0 .078.375c.051.105.149.227.297.36.145.124.375.28.688.468a4.5 4.5 0 0 1 .594.406c.144.125.257.25.343.375a.943.943 0 0 1 .188.375c.039.137.062.297.062.485 0 .343-.093.64-.281.89-.18.25-.43.438-.75.563a3.153 3.153 0 0 1-1.078.172c-.324 0-.64-.028-.953-.078A6.29 6.29 0 0 1 .297-.22L.578-1.5h.453c.02.375.125.664.313.86.195.187.508.28.937.28.375 0 .664-.081.875-.25.207-.163.313-.398.313-.703 0-.175-.031-.328-.094-.453a1.186 1.186 0 0 0-.297-.375 4.756 4.756 0 0 0-.625-.437 6.084 6.084 0 0 1-.719-.5 1.413 1.413 0 0 1-.375-.485 1.337 1.337 0 0 1-.125-.593c0-.313.082-.582.25-.813.164-.238.399-.422.704-.547a2.887 2.887 0 0 1 1.078-.187c.363 0 .695.027 1 .078.3.043.597.117.89.219l-.265 1.234zm0 0"/></symbol><symbol overflow="visible" id="o"><path d="M3.438-5.313a5.101 5.101 0 0 0-1.376 1.47c-.335.562-.5 1.116-.5 1.655 0 .512.11.915.329 1.204.226.293.57.484 1.03.578l.595-2.688c.207-.894.523-1.55.953-1.969.426-.425.914-.64 1.468-.64.532 0 .93.152 1.204.453.27.293.406.742.406 1.344 0 .742-.156 1.418-.469 2.031A3.598 3.598 0 0 1 5.75-.437c-.574.343-1.242.519-2 .53l-.563 2.438h-.906L2.828.078c-.73-.082-1.293-.32-1.687-.719-.387-.406-.579-.937-.579-1.593 0-1.29.86-2.454 2.579-3.485zm.406 4.954a2.232 2.232 0 0 0 1.422-.547c.406-.352.718-.82.937-1.406a5.249 5.249 0 0 0 .328-1.829c0-.343-.062-.609-.187-.796-.117-.196-.282-.297-.5-.297-.313 0-.586.18-.813.53-.23.356-.43.919-.593 1.688zm0 0"/></symbol><symbol overflow="visible" id="p"><path d="M2.906-2.969c0-1.32-.219-2.414-.656-3.281A3.389 3.389 0 0 0 .219-8.016l.156-.453c1.145.305 2.02.953 2.625 1.953.613 1 .922 2.204.922 3.61 0 1.418-.309 2.62-.922 3.61-.605 1-1.48 1.648-2.625 1.952l-.14-.453C1.14 1.898 1.812 1.301 2.25.406c.438-.883.656-2.008.656-3.375zm0 0"/></symbol><symbol overflow="visible" id="r"><path d="M6.219-18.734l.281.437c-1.387 1.418-2.453 3.438-3.203 6.063-.75 2.625-1.125 5.554-1.125 8.78 0 3.169.375 6.083 1.125 8.75.75 2.677 1.816 4.724 3.203 6.141l-.281.422C4.613 10.492 3.336 8.426 2.39 5.656 1.453 2.895.984-.14.984-3.454c0-3.35.47-6.394 1.407-9.124.945-2.727 2.222-4.781 3.828-6.156zm0 0"/></symbol><symbol overflow="visible" id="s"><path d="M4.11-.938c.195 0 .35-.007.468-.03a.85.85 0 0 0 .281-.126.55.55 0 0 0 .172-.203c.04-.094.094-.234.157-.422h.484L5.578 0H.75v-.281c.176-.406.406-.82.688-1.25.28-.438.687-.946 1.218-1.532.446-.5.77-.878.969-1.14.219-.281.379-.52.484-.719.114-.207.192-.398.235-.578.05-.188.078-.367.078-.547 0-.3-.047-.562-.14-.781a1.13 1.13 0 0 0-.438-.531c-.188-.125-.43-.188-.719-.188-.742 0-1.234.406-1.484 1.219H.937v-1.125c.47-.227.907-.39 1.313-.484.414-.102.79-.157 1.125-.157.719 0 1.266.164 1.64.485.376.312.563.773.563 1.375 0 .21-.023.402-.062.578-.043.18-.11.351-.204.515a3.255 3.255 0 0 1-.359.547c-.148.2-.308.399-.484.594-.18.2-.485.531-.922 1-.75.793-1.297 1.48-1.64 2.063zm0 0"/></symbol><symbol overflow="visible" id="t"><path d="M.875-3.047v-.781h7.219v.781zm0 0"/></symbol><symbol overflow="visible" id="u"><path d="M3.313-7.906l-.266 1.14H2l.281-1.14zM1.421-3.953c.094-.383.14-.676.14-.875 0-.176-.042-.297-.125-.36-.085-.062-.25-.097-.5-.109L1-5.609l1.438-.047h.343l-.844 3.765c-.085.387-.125.672-.125.86 0 .156.02.273.063.343.05.075.133.11.25.11a.68.68 0 0 0 .375-.14c.133-.102.32-.286.563-.548l.328.329c-.387.398-.7.667-.938.812a1.47 1.47 0 0 1-.797.219.756.756 0 0 1-.61-.281C.899-.376.829-.61.829-.891c0-.3.05-.68.156-1.14zm0 0"/></symbol><symbol overflow="visible" id="v"><path d="M1.594-3.719c.093-.375.14-.66.14-.86 0-.155-.027-.269-.078-.343-.054-.07-.136-.11-.25-.11-.117 0-.242.055-.375.157-.136.094-.324.273-.562.531L.14-4.672c.363-.375.66-.64.89-.797.239-.156.508-.234.813-.234.25 0 .441.086.578.25.144.156.219.367.219.625 0 .21-.047.445-.141.703l.078.016c.375-.54.735-.942 1.078-1.204.352-.257.711-.39 1.078-.39.364 0 .641.11.829.328.195.21.296.496.296.86 0 .25-.054.6-.156 1.046l-.39 1.547c-.106.418-.157.715-.157.89 0 .157.024.274.078.345.051.074.13.109.235.109.125 0 .25-.047.375-.14.133-.102.32-.286.562-.548l.344.329c-.344.355-.64.617-.89.78-.25.165-.532.25-.844.25a.795.795 0 0 1-.625-.265c-.149-.187-.22-.422-.22-.703 0-.25.063-.625.188-1.125l.266-1c.094-.375.156-.645.188-.813.03-.175.046-.32.046-.437 0-.27-.046-.46-.14-.578-.094-.125-.242-.188-.438-.188-.168 0-.343.07-.531.204-.188.125-.39.324-.61.593-.21.262-.382.516-.515.766-.125.25-.23.558-.313.922L1.766 0H.75zm0 0"/></symbol><symbol overflow="visible" id="w"><path d="M.656-18.734c1.614 1.375 2.89 3.43 3.828 6.156.946 2.73 1.422 5.773 1.422 9.125 0 3.312-.476 6.348-1.422 9.11-.937 2.769-2.214 4.835-3.828 6.202l-.265-.421c1.382-1.418 2.453-3.465 3.203-6.141.75-2.668 1.125-5.582 1.125-8.75 0-3.227-.383-6.156-1.14-8.781-.75-2.625-1.813-4.645-3.188-6.063zm0 0"/></symbol><symbol overflow="visible" id="x"><path d="M1-3.438c0-3 .414-5.5 1.25-7.5.844-2.007 1.828-3.457 2.953-4.343l.344.39c-.992.918-1.809 2.34-2.453 4.266-.637 1.93-.953 4.328-.953 7.203 0 2.867.316 5.258.953 7.188.644 1.925 1.46 3.347 2.453 4.265l-.344.39c-1.125-.874-2.11-2.32-2.953-4.327C1.414 2.082 1-.426 1-3.438zm0 0"/></symbol><symbol overflow="visible" id="y"><path d="M4.078-1.11c-.344.407-.672.712-.984.907a1.8 1.8 0 0 1-.985.297C1.285.094.875-.316.875-1.141c0-.257.035-.535.11-.828l.687-3.047H.688l.093-.406c.227 0 .399-.016.516-.047a.839.839 0 0 0 .297-.125.671.671 0 0 0 .218-.234c.07-.102.141-.234.204-.39.062-.157.156-.43.28-.829h.798L2.78-5.609h1.781l-.125.593h-1.78l-.532 2.282c-.105.437-.172.757-.203.953a3.79 3.79 0 0 0-.031.468c0 .481.203.72.609.72.164 0 .344-.063.531-.188.196-.133.43-.36.703-.672zm0 0"/></symbol><symbol overflow="visible" id="z"><path d="M5.031-5.313l.547-.39.375.094-.86 3.718c-.093.368-.14.653-.14.86 0 .156.024.273.078.343.051.075.133.11.25.11a.61.61 0 0 0 .36-.14c.132-.102.328-.286.578-.548l.328.329c-.356.375-.656.64-.906.796a1.44 1.44 0 0 1-.797.235.748.748 0 0 1-.578-.235c-.149-.164-.22-.379-.22-.64 0-.219.04-.446.126-.688L4.109-1.5c-.375.555-.734.96-1.078 1.219-.336.25-.687.375-1.062.375-.43 0-.762-.16-1-.485-.242-.332-.36-.789-.36-1.375C.61-2.43.74-3.07 1-3.687c.27-.626.633-1.114 1.094-1.47a2.47 2.47 0 0 1 1.547-.546c.25 0 .484.031.703.094.226.054.457.152.687.296zm-.515 1.75a3.32 3.32 0 0 0 .078-.421c.008-.114.015-.239.015-.375 0-.301-.07-.52-.203-.657-.125-.144-.343-.218-.656-.218-.398 0-.758.164-1.078.484-.324.324-.574.762-.75 1.313a5.146 5.146 0 0 0-.266 1.624c0 .407.051.711.157.907.113.199.3.297.562.297.258 0 .516-.11.766-.329.25-.218.504-.535.765-.953.258-.414.446-.89.563-1.421zm0 0"/></symbol><symbol overflow="visible" id="A"><path d="M4.938-3.438c0 3.012-.422 5.52-1.266 7.532-.836 2.008-1.82 3.453-2.953 4.328l-.344-.39c.988-.919 1.805-2.34 2.453-4.266.645-1.93.969-4.32.969-7.188 0-2.875-.324-5.273-.969-7.203-.648-1.926-1.465-3.348-2.453-4.266l.344-.39c1.133.886 2.117 2.336 2.953 4.344.844 2 1.265 4.5 1.265 7.5zm0 0"/></symbol><symbol overflow="visible" id="e"><path d="M2.328-2.125a57.17 57.17 0 0 1-.14-.625c-.043-.188-.079-.344-.11-.469a1.783 1.783 0 0 0-.11-.328.829.829 0 0 0-.093-.187.324.324 0 0 0-.11-.11.337.337 0 0 0-.14-.031.4.4 0 0 0-.14.031.29.29 0 0 0-.126.078c-.043.043-.093.102-.156.172-.055.074-.11.168-.172.281L.688-3.53C.8-3.707.905-3.86 1-3.984c.102-.125.203-.223.297-.297a.945.945 0 0 1 .297-.157c.101-.03.222-.046.36-.046.155 0 .284.039.39.109a.68.68 0 0 1 .25.297c.07.137.129.305.172.5.039.2.086.43.14.687h.063l.453-.609c.125-.164.238-.305.344-.422.101-.125.191-.223.265-.297a.939.939 0 0 1 .235-.156.87.87 0 0 1 .234-.078c.082-.02.176-.031.281-.031.145 0 .282.027.407.078l-.22.86h-.374c-.012-.126-.059-.188-.14-.188a.613.613 0 0 0-.11.015.553.553 0 0 0-.125.078 1.163 1.163 0 0 0-.188.141 2.996 2.996 0 0 0-.25.25c-.094.105-.203.23-.328.375-.117.148-.25.32-.406.516.082.406.148.73.203.968.063.243.117.43.172.563.05.125.101.21.156.25.05.043.113.062.188.062.05 0 .097-.004.14-.015a.263.263 0 0 0 .125-.078c.04-.04.086-.098.14-.172.063-.07.13-.172.204-.297l.344.219c-.137.187-.258.343-.36.468a1.481 1.481 0 0 1-.28.297.893.893 0 0 1-.298.125 1.039 1.039 0 0 1-.328.047.973.973 0 0 1-.312-.047.459.459 0 0 1-.22-.172.87.87 0 0 1-.124-.203 1.8 1.8 0 0 1-.11-.265 9.15 9.15 0 0 1-.093-.297c-.024-.102-.043-.203-.063-.297-.011-.094-.023-.172-.031-.234l-.031-.172h-.047c-.18.242-.336.449-.469.625-.125.168-.242.312-.344.437-.105.125-.199.23-.28.313a1.393 1.393 0 0 1-.25.203.904.904 0 0 1-.266.078C.727.067.633.078.53.078A.942.942 0 0 1 .141 0l.203-.86h.375c.008.137.054.204.14.204.04-.008.07-.016.094-.016a.36.36 0 0 0 .11-.062c.039-.032.093-.07.156-.125.062-.063.14-.145.234-.25.102-.114.223-.25.36-.407.144-.164.316-.367.515-.609zm0 0"/></symbol><symbol overflow="visible" id="q"><path d="M2.422-.031a85.238 85.238 0 0 1-.266-1.438c-.074-.406-.14-.75-.203-1.031a8.579 8.579 0 0 0-.156-.703 2.408 2.408 0 0 0-.156-.406c-.043-.102-.09-.172-.141-.204a.21.21 0 0 0-.14-.062c-.055 0-.106.008-.157.016a.429.429 0 0 0-.14.078 1.45 1.45 0 0 0-.141.172 6.962 6.962 0 0 0-.203.296L.375-3.53c.133-.188.254-.336.36-.453a1.57 1.57 0 0 1 .312-.297c.101-.07.207-.125.312-.157.114-.03.235-.046.36-.046.101 0 .191.011.265.03a.607.607 0 0 1 .22.11.553.553 0 0 1 .155.172c.051.074.102.168.157.281.02.063.046.157.078.282.031.117.062.25.094.406a39.518 39.518 0 0 1 .188 1.125l.093.64c.031.22.054.434.078.641a7.36 7.36 0 0 0 .594-.875c.175-.289.328-.566.453-.828.125-.27.218-.508.281-.719.063-.219.094-.39.094-.515 0-.133-.04-.227-.11-.282-.062-.05-.171-.082-.328-.093l.047-.282h1.25l.156.25c-.293.73-.636 1.434-1.03 2.11A16.894 16.894 0 0 1 3.14-.094c-.22.258-.418.477-.594.656a8.174 8.174 0 0 1-.469.485 3.055 3.055 0 0 1-.39.328c-.125.082-.25.148-.375.203-.118.05-.231.086-.344.11a5 5 0 0 1-.36.046c-.074 0-.156-.011-.25-.03a1.793 1.793 0 0 1-.25-.048L.33.688h.405v.03c0 .196.079.298.235.298.219 0 .437-.086.656-.25.219-.168.484-.434.797-.797zm0 0"/></symbol></defs><use xlink:href="#a" x="-.716" y="17.98"/><use xlink:href="#b" x="-.716" y="43.602"/><use xlink:href="#c" x="-.716" y="56.739"/><use xlink:href="#d" x="7.816" y="17.742"/><use xlink:href="#e" x="13.298" y="20.182"/><use xlink:href="#f" x="22.488" y="17.742"/><use xlink:href="#g" x="35.936" y="8.694"/><path d="M35.938 14.328h6.617" fill="none" stroke-width=".776" stroke="#000" stroke-miterlimit="10"/><use xlink:href="#h" x="35.936" y="25.74"/><use xlink:href="#i" x="43.751" y="17.742"/><use xlink:href="#j" x="48.712" y="17.742"/><use xlink:href="#k" x="57.99" y="17.742"/><use xlink:href="#l" x="69.574" y="17.742"/><use xlink:href="#m" x="75.456" y="17.742"/><use xlink:href="#n" x="82.091" y="17.742"/><use xlink:href="#i" x="87.854" y="17.742"/><use xlink:href="#o" x="92.815" y="17.742"/><use xlink:href="#p" x="101.172" y="17.742"/><use xlink:href="#p" x="106.133" y="17.742"/><use xlink:href="#d" x="7.468" y="47.385"/><use xlink:href="#q" x="12.949" y="49.825"/><use xlink:href="#f" x="22.488" y="47.385"/><use xlink:href="#g" x="35.936" y="38.337"/><path d="M35.938 43.969h6.617" fill="none" stroke-width=".776" stroke="#000" stroke-miterlimit="10"/><use xlink:href="#h" x="35.936" y="55.383"/><use xlink:href="#r" x="45.744" y="47.391"/><use xlink:href="#s" x="53.798" y="38.337"/><use xlink:href="#t" x="63.075" y="38.337"/><use xlink:href="#s" x="74.66" y="38.337"/><use xlink:href="#l" x="81.283" y="38.337"/><use xlink:href="#m" x="87.165" y="38.337"/><use xlink:href="#n" x="93.8" y="38.337"/><use xlink:href="#i" x="99.563" y="38.337"/><use xlink:href="#o" x="104.524" y="38.337"/><use xlink:href="#p" x="112.881" y="38.337"/><path d="M53.8 43.969h64.036" fill="none" stroke-width=".776" stroke="#000" stroke-miterlimit="10"/><use xlink:href="#n" x="68.18" y="55.383"/><use xlink:href="#u" x="73.942" y="55.383"/><use xlink:href="#v" x="78.115" y="55.383"/><use xlink:href="#i" x="85.18" y="55.383"/><use xlink:href="#o" x="90.142" y="55.383"/><use xlink:href="#p" x="98.486" y="55.383"/><use xlink:href="#k" x="121.689" y="47.385"/><use xlink:href="#n" x="133.274" y="47.385"/><use xlink:href="#u" x="139.036" y="47.385"/><use xlink:href="#v" x="143.208" y="47.385"/><use xlink:href="#i" x="150.274" y="47.385"/><use xlink:href="#o" x="155.235" y="47.385"/><use xlink:href="#p" x="163.592" y="47.385"/><use xlink:href="#w" x="168.553" y="47.391"/><use xlink:href="#f" x="178.733" y="47.385"/><use xlink:href="#g" x="192.181" y="38.337"/><path d="M192.18 43.969h6.62" fill="none" stroke-width=".776" stroke="#000" stroke-miterlimit="10"/><use xlink:href="#h" x="192.181" y="55.383"/><use xlink:href="#x" x="201.989" y="47.385"/><use xlink:href="#s" x="207.895" y="47.385"/><use xlink:href="#y" x="214.518" y="47.385"/><use xlink:href="#z" x="219.527" y="47.385"/><use xlink:href="#v" x="226.473" y="47.385"/><use xlink:href="#x" x="235.535" y="47.385"/><use xlink:href="#o" x="242.636" y="38.337"/><path d="M242.637 43.969h8.351" fill="none" stroke-width=".776" stroke="#000" stroke-miterlimit="10"/><g><use xlink:href="#s" x="243.503" y="55.383"/></g><g><use xlink:href="#A" x="252.185" y="47.385"/></g><g><use xlink:href="#k" x="260.745" y="47.385"/></g><g><use xlink:href="#n" x="272.33" y="47.385"/></g><g><use xlink:href="#u" x="278.092" y="47.385"/></g><g><use xlink:href="#v" x="282.264" y="47.385"/></g><g><use xlink:href="#i" x="289.33" y="47.385"/><use xlink:href="#o" x="294.291" y="47.385"/></g><g><use xlink:href="#p" x="302.648" y="47.385"/><use xlink:href="#A" x="307.609" y="47.385"/></g></svg>