<svg xmlns="http://www.w3.org/2000/svg" xmlns:xlink="http://www.w3.org/1999/xlink" width="168" height="20pt" viewBox="0 0 126 20"><defs><symbol overflow="visible" id="a"><path d="M7.781-7.953c-.922-.344-1.593-.484-2.328-.484a5 5 0 0 0-2.797.859C1.25-6.641.531-5.218.531-3.391.531-1.078 1.812.22 4.094.22c1.156 0 1.984-.281 3.078-1.016l.125-.437-.125-.079c-1.125.688-1.75.891-2.672.891-1.89 0-2.906-1.14-2.906-3.265 0-1.344.406-2.516 1.125-3.25.562-.579 1.328-.875 2.281-.875.86 0 1.469.171 2.14.609v1h.313c.063-.688.156-1.203.328-1.75zm0 0"/></symbol><symbol overflow="visible" id="b"><path d="M8.125-3.938c-.016-.124-.031-.25-.031-.359 0-.125.015-.25.031-.36H.953c.031.11.031.235.031.36 0 .11 0 .234-.03.36zm0 2.626c-.016-.125-.031-.235-.031-.36s.015-.234.031-.36H.953a1.4 1.4 0 0 1 .031.36c0 .125 0 .234-.03.36zm0 0"/></symbol><symbol overflow="visible" id="c"><path d="M11.234-8.266c-.328.016-.671.032-1 .032-.343 0-.671-.016-1-.032-.218.438 0 .11-1.015 1.86L5.28-1.36 3.484-8.266c-.328.016-.656.032-1 .032-.328 0-.671-.016-.984-.032l-.047.329.313.03c.625.048.843.157.843.47a.627.627 0 0 1-.046.234L.843-1.11c-.187.625-.374.78-1.03.828L-.234.03 1.109 0C1.547 0 2 .016 2.422.031l.047-.328-.453-.031c-.391-.047-.594-.156-.594-.328 0-.125.031-.281.078-.485l1.484-5.546L4.766.218h.28l.673-1.25 2.86-4.938.624-1.047-.437 6.22c-.032.327-.188.405-.813.468l-.36.031-.046.328L9.157 0l1.593.031.031-.328-.437-.031C9.906-.375 9.688-.5 9.688-.75l.015-.438.5-6.359c0-.219.203-.344.547-.36l.453-.03zm0 0"/></symbol><symbol overflow="visible" id="f"><path d="M4.86-9.703c-.079-.031-.141-.094-.204-.14-.047-.063-.11-.126-.14-.204-1.875 1.875-3 4.031-3 6.297v1.531c0 2.25 1.125 4.422 3 6.281.03-.062.093-.125.14-.187a.595.595 0 0 1 .203-.14C3.125 2 2.313-.126 2.313-2.22V-3.75c0-2.094.812-4.219 2.546-5.953zm0 0"/></symbol><symbol overflow="visible" id="g"><path d="M8.89-8.203H.954l.14 2.422.532-.063-.016-.39c-.046-.579.86-1.438 1.625-1.438h.485c.078.422.125 1.094.125 1.516v4.781c0 .688-.031.797-.36.813l-.562.03V0h3.875v-.531l-.563-.031c-.312-.016-.359-.125-.359-.813v-4.781c0-.438.047-1.094.125-1.516h.484c.766 0 1.797.844 1.766 1.422l-.031.406.531.063zm-.515.5l-.031.578a5.586 5.586 0 0 0-.625-.578zm-6.313 0a3.024 3.024 0 0 0-.562.531l-.031-.531zm3.407.031c-.078.531-.125 1.11-.125 1.516v4.781c0 .39.015.656.062.844H4.313c.046-.188.062-.453.062-.844v-4.781c0-.39-.047-.985-.125-1.516zm0 0"/></symbol><symbol overflow="visible" id="i"><path d="M4.344-2.219V-3.75c0-2.266-1.11-4.422-3-6.297a.595.595 0 0 1-.14.203c-.063.047-.11.11-.188.14C2.75-7.968 3.562-5.843 3.562-3.75v1.531C3.563-.125 2.75 2 1.017 3.734a.539.539 0 0 1 .187.141c.063.063.11.125.14.188 1.891-1.86 3-4.032 3-6.282zm0 0"/></symbol><symbol overflow="visible" id="j"><path d="M7.094-6.469c0-1.203-1.125-1.797-2.172-1.797-.547 0-1.094.032-1.64.032l-1.985-.032-.047.329.656.03c.297 0 .422.095.422.313 0 .172-.047.547-.11.907L1.345-1.5C1.14-.406 1.125-.375.64-.328l-.485.031L.11.031 1.688 0l1.656.031.031-.328-.766-.031c-.312-.016-.437-.11-.437-.36 0-.109.015-.203.047-.421l.984-5.829s.047-.25.11-.468c.015-.063.046-.188.078-.344.437-.063.625-.094.859-.094 1.219 0 1.797.532 1.797 1.64 0 1.298-.86 2.345-1.906 2.345-.266 0-.5-.063-.954-.235l.032.375c.437.219.672.281 1.031.281 1.531 0 2.844-1.406 2.844-3.03zm0 0"/></symbol><symbol overflow="visible" id="d"><path d="M6.016-1.953a1.368 1.368 0 0 1-.032-.25c0-.094.016-.188.032-.266H.703c.016.078.031.172.031.266 0 .078-.015.172-.03.25zm0 0"/></symbol><symbol overflow="visible" id="e"><path d="M4.125.031v-.265l-.516-.032c-.515-.03-.625-.125-.625-.578v-5.25L2.86-6.14c-.625.297-1.312.563-2.203.86l.078.375h.094l1.25-.516.031-.016c.047 0 .079.094.079.297v4.297c0 .453-.11.547-.626.578l-.546.032V.03L2.594 0zm0 0"/></symbol><symbol overflow="visible" id="h"><path d="M6.203-6.125L3.5-6.094.766-6.125.594-4.672h.281l.156-.531a.943.943 0 0 1 .157-.39c.062-.063.437-.126.796-.126h1.079l-.829 4.61c-.14.812-.187.843-.562.859l-.5.031-.031.25L2.516 0l1.28.031.032-.25L3.25-.25c-.25 0-.344-.078-.344-.266 0-.078 0-.125.031-.312l.907-4.89h.703c.766 0 1.11.046 1.125.155a.762.762 0 0 1 .047.329l-.047.562h.281zm0 0"/></symbol></defs><use xlink:href="#a" x="-.243" y="15.082"/><use xlink:href="#b" x="11.186" y="15.082"/><use xlink:href="#c" x="23.596" y="15.082"/><use xlink:href="#d" x="35.175" y="10.849"/><use xlink:href="#e" x="41.899" y="10.849"/><use xlink:href="#f" x="49.388" y="15.082"/><use xlink:href="#g" x="55.258" y="15.082"/><use xlink:href="#h" x="65.109" y="10.849"/><use xlink:href="#g" x="72.066" y="15.082"/><use xlink:href="#i" x="81.917" y="15.082"/><use xlink:href="#d" x="87.787" y="6.78"/><use xlink:href="#e" x="94.511" y="6.78"/><g><use xlink:href="#g" x="102" y="15.082"/></g><g><use xlink:href="#h" x="111.851" y="10.849"/></g><g><use xlink:href="#j" x="118.807" y="15.082"/></g></svg>