<svg xmlns="http://www.w3.org/2000/svg" xmlns:xlink="http://www.w3.org/1999/xlink" width="332" height="44pt" viewBox="0 0 249 44"><defs><symbol overflow="visible" id="a"><path d="M2.016-6.734c.05-.196.086-.36.109-.485.02-.125.031-.238.031-.343a.414.414 0 0 0-.078-.266.322.322 0 0 0-.187-.125c-.075-.031-.215-.05-.422-.063l.078-.312 1.469-.047h.343L1.922-1.891c-.086.387-.125.672-.125.86 0 .156.023.273.078.343.05.075.129.11.234.11a.68.68 0 0 0 .375-.14c.133-.102.32-.286.563-.548l.328.329C3-.54 2.691-.27 2.453-.125a1.553 1.553 0 0 1-.812.219.756.756 0 0 1-.61-.281C.883-.376.813-.61.813-.891c0-.27.05-.648.156-1.14zm0 0"/></symbol><symbol overflow="visible" id="b"><path d="M3.313-7.906l-.266 1.14H2l.281-1.14zM1.421-3.953c.094-.383.14-.676.14-.875 0-.176-.042-.297-.125-.36-.085-.062-.25-.097-.5-.109L1-5.609l1.438-.047h.343l-.844 3.765c-.085.387-.125.672-.125.86 0 .156.02.273.063.343.05.075.133.11.25.11a.68.68 0 0 0 .375-.14c.133-.102.32-.286.563-.548l.328.329c-.387.398-.7.667-.938.812a1.47 1.47 0 0 1-.797.219.756.756 0 0 1-.61-.281C.899-.376.829-.61.829-.891c0-.3.05-.68.156-1.14zm0 0"/></symbol><symbol overflow="visible" id="c"><path d="M1.594-3.719c.093-.375.14-.66.14-.86 0-.155-.027-.269-.078-.343-.054-.07-.136-.11-.25-.11-.117 0-.242.055-.375.157-.136.094-.324.273-.562.531L.14-4.672c.363-.375.66-.64.89-.797.239-.156.508-.234.813-.234.25 0 .441.086.578.25.144.156.219.367.219.625 0 .21-.047.445-.141.703l.078.016c.375-.54.735-.942 1.078-1.204.352-.257.711-.39 1.078-.39.364 0 .641.11.829.328.195.21.296.496.296.86 0 .25-.054.6-.156 1.046l-.39 1.547c-.106.418-.157.715-.157.89 0 .157.024.274.078.345.051.074.13.109.235.109.125 0 .25-.047.375-.14.133-.102.32-.286.562-.548l.344.329c-.344.355-.64.617-.89.78-.25.165-.532.25-.844.25a.795.795 0 0 1-.625-.265c-.149-.187-.22-.422-.22-.703 0-.25.063-.625.188-1.125l.266-1c.094-.375.156-.645.188-.813.03-.175.046-.32.046-.437 0-.27-.046-.46-.14-.578-.094-.125-.242-.188-.438-.188-.168 0-.343.07-.531.204-.188.125-.39.324-.61.593-.21.262-.382.516-.515.766-.125.25-.23.558-.313.922L1.766 0H.75zm0 0"/></symbol><symbol overflow="visible" id="d"><path d="M4.906-1.172a4.522 4.522 0 0 1-1.156.953c-.387.211-.84.313-1.36.313-.562 0-1-.172-1.312-.516C.766-.766.61-1.25.61-1.875c0-.414.07-.863.22-1.344.155-.476.382-.906.687-1.281.312-.383.68-.68 1.109-.89a3.07 3.07 0 0 1 1.36-.313c.468 0 .816.101 1.046.297.239.187.36.484.36.89 0 .668-.313 1.168-.938 1.5-.617.325-1.539.485-2.766.485a4.372 4.372 0 0 0-.062.765c0 .407.078.704.234.891.157.188.414.281.782.281.363 0 .691-.078.984-.234.29-.156.598-.395.922-.719zm-3.125-1.86a6.27 6.27 0 0 0 1.422-.14c.395-.094.695-.242.906-.453.22-.207.329-.492.329-.86 0-.226-.06-.41-.172-.546-.118-.133-.282-.203-.5-.203-.399 0-.778.199-1.141.593-.367.399-.648.934-.844 1.61zm0 0"/></symbol><symbol overflow="visible" id="e"><path d="M5.031-5.313l.547-.39.375.094-.86 3.718c-.093.368-.14.653-.14.86 0 .156.024.273.078.343.051.075.133.11.25.11a.61.61 0 0 0 .36-.14c.132-.102.328-.286.578-.548l.328.329c-.356.375-.656.64-.906.796a1.44 1.44 0 0 1-.797.235.748.748 0 0 1-.578-.235c-.149-.164-.22-.379-.22-.64 0-.219.04-.446.126-.688L4.109-1.5c-.375.555-.734.96-1.078 1.219-.336.25-.687.375-1.062.375-.43 0-.762-.16-1-.485-.242-.332-.36-.789-.36-1.375C.61-2.43.74-3.07 1-3.687c.27-.626.633-1.114 1.094-1.47a2.47 2.47 0 0 1 1.547-.546c.25 0 .484.031.703.094.226.054.457.152.687.296zm-.515 1.75a3.32 3.32 0 0 0 .078-.421c.008-.114.015-.239.015-.375 0-.301-.07-.52-.203-.657-.125-.144-.343-.218-.656-.218-.398 0-.758.164-1.078.484-.324.324-.574.762-.75 1.313a5.146 5.146 0 0 0-.266 1.624c0 .407.051.711.157.907.113.199.3.297.562.297.258 0 .516-.11.766-.329.25-.218.504-.535.765-.953.258-.414.446-.89.563-1.421zm0 0"/></symbol><symbol overflow="visible" id="f"><path d="M2.61-4.188c.374-.519.738-.898 1.093-1.14.352-.25.711-.375 1.078-.375.282 0 .52.027.719.078l-.281 1.313h-.61a1.438 1.438 0 0 0-.093-.375c-.043-.094-.094-.157-.157-.188a.41.41 0 0 0-.218-.063c-.149 0-.305.063-.47.188-.167.117-.355.305-.562.563-.199.261-.359.511-.484.75-.125.23-.23.53-.313.906L1.766 0H.75l.844-3.719c.05-.226.082-.406.093-.531.02-.133.032-.242.032-.328 0-.156-.028-.27-.078-.344-.043-.07-.121-.11-.235-.11a.659.659 0 0 0-.39.157 4.824 4.824 0 0 0-.547.531L.14-4.672c.351-.375.648-.64.89-.797.25-.156.52-.234.813-.234.238 0 .43.086.578.25.144.156.219.367.219.625 0 .2-.04.402-.11.61zm0 0"/></symbol><symbol overflow="visible" id="g"><path d="M.875-4.25v-.781h7.219v.781zm0 2.422v-.781h7.219v.78zm7.469-1.594zm0 0"/></symbol><symbol overflow="visible" id="h"><path d="M4.906-3.047V.328h-.843v-3.375H.874v-.781h3.188v-3.375h.843v3.375h3.188v.781zm0 0"/></symbol><symbol overflow="visible" id="i"><path d="M1.453-.281L.922.094.547 0l1.515-6.703c.083-.395.126-.68.126-.86 0-.164-.055-.28-.157-.343-.094-.07-.273-.11-.531-.11l.078-.312 1.484-.047h.344L2.375-4.281l.063.031c.382-.508.742-.879 1.078-1.11.332-.226.66-.343.984-.343.426 0 .758.168 1 .5.238.324.36.777.36 1.36 0 .648-.133 1.28-.391 1.905-.262.625-.625 1.122-1.094 1.485a2.39 2.39 0 0 1-1.531.547c-.524 0-.985-.125-1.39-.375zm.516-1.766a3.68 3.68 0 0 0-.094.797c0 .313.066.54.203.672.133.137.36.203.672.203.164 0 .316-.023.453-.078.145-.05.29-.133.438-.25.156-.125.3-.285.437-.485a4.08 4.08 0 0 0 .375-.718c.113-.29.203-.602.266-.938.062-.332.093-.648.093-.953 0-.406-.058-.707-.171-.906-.118-.207-.305-.313-.563-.313a.934.934 0 0 0-.547.188c-.18.117-.383.312-.61.594a4.772 4.772 0 0 0-.546.843 5.612 5.612 0 0 0-.36 1.11zm0 0"/></symbol><symbol overflow="visible" id="j"><path d="M4.422-4.172c-.043-.351-.156-.617-.344-.797-.187-.176-.48-.265-.875-.265-.312 0-.57.078-.765.234a.776.776 0 0 0-.282.625.85.85 0 0 0 .078.375c.051.105.149.227.297.36.145.124.375.28.688.468a4.5 4.5 0 0 1 .594.406c.144.125.257.25.343.375a.943.943 0 0 1 .188.375c.039.137.062.297.062.485 0 .343-.093.64-.281.89-.18.25-.43.438-.75.563a3.153 3.153 0 0 1-1.078.172c-.324 0-.64-.028-.953-.078A6.29 6.29 0 0 1 .297-.22L.578-1.5h.453c.02.375.125.664.313.86.195.187.508.28.937.28.375 0 .664-.081.875-.25.207-.163.313-.398.313-.703 0-.175-.031-.328-.094-.453a1.186 1.186 0 0 0-.297-.375 4.756 4.756 0 0 0-.625-.437 6.084 6.084 0 0 1-.719-.5 1.413 1.413 0 0 1-.375-.485 1.337 1.337 0 0 1-.125-.593c0-.313.082-.582.25-.813.164-.238.399-.422.704-.547a2.887 2.887 0 0 1 1.078-.187c.363 0 .695.027 1 .078.3.043.597.117.89.219l-.265 1.234zm0 0"/></symbol><symbol overflow="visible" id="k"><path d="M4.016-1.36c-.336.47-.68.829-1.032 1.079-.343.25-.683.375-1.015.375-.43 0-.762-.16-1-.485-.242-.332-.36-.789-.36-1.375C.61-2.43.74-3.07 1-3.687c.27-.626.633-1.114 1.094-1.47a2.47 2.47 0 0 1 1.547-.546c.238 0 .468.031.687.094.219.054.445.152.688.296l.53-.39.376.094-1.5 6.671a3.4 3.4 0 0 0-.094.657c0 .176.04.3.125.375.094.07.266.117.516.14l-.047.282H3.094l1.015-3.844zM4.5-3.561c.05-.282.078-.547.078-.797 0-.313-.062-.536-.187-.672-.125-.133-.34-.203-.641-.203-.406 0-.766.164-1.078.484-.313.324-.563.762-.75 1.313a5.146 5.146 0 0 0-.266 1.624c0 .407.051.711.157.907.113.199.3.297.562.297.125 0 .25-.024.375-.079.125-.05.254-.132.39-.25.133-.113.266-.253.391-.421.133-.176.254-.348.36-.516.113-.164.218-.363.312-.594.094-.238.172-.52.234-.844zm0 0"/></symbol><symbol overflow="visible" id="l"><path d="M5.281-1.89c-.086.374-.125.663-.125.859 0 .156.024.273.078.343.051.075.13.11.235.11.125 0 .25-.047.375-.14.133-.102.32-.286.562-.548l.344.329c-.355.375-.656.64-.906.796-.25.157-.516.235-.797.235-.25 0-.45-.078-.594-.235-.137-.164-.203-.379-.203-.64 0-.219.047-.453.14-.703L4.314-1.5c-.387.543-.75.945-1.094 1.203-.344.262-.7.39-1.063.39-.367 0-.648-.1-.844-.312-.199-.218-.296-.508-.296-.875 0-.25.054-.597.171-1.047l.391-1.546c.102-.415.156-.711.156-.891 0-.156-.027-.27-.078-.344-.054-.07-.136-.11-.25-.11-.117 0-.242.055-.375.157-.136.094-.324.273-.562.531L.14-4.672c.332-.332.582-.562.75-.687.164-.125.328-.211.484-.266a1.66 1.66 0 0 1 .516-.078.76.76 0 0 1 .593.25c.145.168.22.398.22.687 0 .305-.063.688-.188 1.157l-.25 1c-.075.261-.125.464-.157.609-.023.148-.043.273-.062.375a2.427 2.427 0 0 0-.016.266c0 .273.04.468.125.593.094.118.242.172.453.172.164 0 .344-.062.532-.187.187-.133.382-.332.593-.594.22-.27.391-.531.516-.781a3.82 3.82 0 0 0 .328-.922l.547-2.531h1.016zm0 0"/></symbol><symbol overflow="visible" id="m"><path d="M1.688-4.14c.207 0 .375.07.5.202.124.126.187.297.187.516 0 .211-.063.383-.188.516a.678.678 0 0 1-.5.187c-.199 0-.359-.062-.484-.187a.722.722 0 0 1-.187-.516c0-.219.062-.39.187-.515a.636.636 0 0 1 .484-.204zm0 0"/></symbol><symbol overflow="visible" id="n"><path d="M4.406-4.203c0-.29-.023-.504-.062-.64a.542.542 0 0 0-.203-.298.705.705 0 0 0-.391-.093c-.398 0-.75.156-1.063.468-.312.313-.57.762-.765 1.344a5.036 5.036 0 0 0-.297 1.656c0 .399.078.696.234.891.157.188.391.281.704.281.351 0 .66-.066.921-.203.258-.133.532-.348.813-.64l.36.359c-.368.406-.735.703-1.11.89a2.658 2.658 0 0 1-1.203.282c-.563 0-.996-.164-1.297-.5-.293-.332-.438-.82-.438-1.469 0-.414.079-.875.235-1.375.156-.5.383-.938.687-1.313a2.91 2.91 0 0 1 1.047-.859 3.05 3.05 0 0 1 1.297-.281c.52 0 1 .062 1.438.187L5.03-4.203zm0 0"/></symbol></defs><use xlink:href="#a" x="5.048" y="8.745"/><use xlink:href="#b" x="9.196" y="8.745"/><use xlink:href="#c" x="13.369" y="8.745"/><use xlink:href="#d" x="20.434" y="8.745"/><use xlink:href="#e" x="26.627" y="8.745"/><use xlink:href="#f" x="33.573" y="8.745"/><use xlink:href="#g" x="42.85" y="8.745"/><use xlink:href="#e" x="55.103" y="8.745" fill="#00f"/><use xlink:href="#h" x="64.712" y="8.745"/><use xlink:href="#i" x="76.3" y="8.745" fill="red"/><use xlink:href="#j" x=".704" y="26.179"/><use xlink:href="#k" x="6.466" y="26.179"/><use xlink:href="#l" x="13.269" y="26.179"/><use xlink:href="#e" x="20.442" y="26.179"/><use xlink:href="#f" x="27.388" y="26.179"/><use xlink:href="#d" x="33.342" y="26.179"/><use xlink:href="#g" x="42.858" y="26.179"/><use xlink:href="#e" x="55.103" y="26.179" fill="#00f"/><use xlink:href="#m" x="64.712" y="26.179"/><use xlink:href="#e" x="70.743" y="26.179" fill="#00f"/><use xlink:href="#h" x="80.352" y="26.179"/><use xlink:href="#e" x="91.94" y="26.179" fill="#00f"/><use xlink:href="#m" x="101.549" y="26.179"/><use xlink:href="#i" x="107.58" y="26.179" fill="red"/><use xlink:href="#h" x="116.944" y="26.179"/><use xlink:href="#i" x="128.532" y="26.179" fill="red"/><use xlink:href="#m" x="137.896" y="26.179"/><use xlink:href="#i" x="143.927" y="26.179" fill="red"/><use xlink:href="#n" x="9.735" y="43.614"/><use xlink:href="#l" x="15.605" y="43.614"/><use xlink:href="#i" x="22.778" y="43.614"/><use xlink:href="#b" x="29.485" y="43.614"/><use xlink:href="#n" x="33.645" y="43.614"/><use xlink:href="#g" x="42.851" y="43.614"/><use xlink:href="#e" x="55.103" y="43.614" fill="#00f"/><use xlink:href="#m" x="64.712" y="43.614"/><use xlink:href="#e" x="70.743" y="43.614" fill="#00f"/><use xlink:href="#m" x="80.352" y="43.614"/><use xlink:href="#e" x="86.383" y="43.614" fill="#00f"/><use xlink:href="#h" x="95.992" y="43.614"/><use xlink:href="#e" x="107.58" y="43.614" fill="#00f"/><use xlink:href="#m" x="117.189" y="43.614"/><use xlink:href="#e" x="123.22" y="43.614" fill="#00f"/><use xlink:href="#m" x="132.829" y="43.614"/><use xlink:href="#i" x="138.86" y="43.614" fill="red"/><use xlink:href="#h" x="148.224" y="43.614"/><use xlink:href="#e" x="159.812" y="43.614" fill="#00f"/><use xlink:href="#m" x="169.421" y="43.614"/><use xlink:href="#i" x="175.452" y="43.614" fill="red"/><use xlink:href="#m" x="184.816" y="43.614"/><use xlink:href="#i" x="190.847" y="43.614" fill="red"/><use xlink:href="#h" x="200.211" y="43.614"/><use xlink:href="#i" x="211.799" y="43.614" fill="red"/><use xlink:href="#m" x="221.163" y="43.614"/><use xlink:href="#i" x="227.193" y="43.614" fill="red"/><use xlink:href="#m" x="236.557" y="43.614"/><use xlink:href="#i" x="242.588" y="43.614" fill="red"/></svg>