<svg xmlns="http://www.w3.org/2000/svg" xmlns:xlink="http://www.w3.org/1999/xlink" width="252" height="56" viewBox="0 0 189 42"><defs><symbol overflow="visible" id="a"><path d="M5.984-7.14c-.03-.063-.03-.048-.062-.11-.016-.094-.016-.172-.016-.406-1.812.468-3.031 1.843-3.031 3.953V0h1.219v-3.703c0-1.719.422-2.828 1.984-3.25zm0 0"/></symbol><symbol overflow="visible" id="b"><path d="M4.094-.125v-7.266H2.875V0h1.219zm0 0"/></symbol><symbol overflow="visible" id="c"><path d="M4.094-.125v-3.578c0-1.922-.766-3.235-1.782-3.703v.265c1.016-.468 1.782-1.765 1.782-3.687v-3.703H2.875v3.703c0 2.062-.36 3.187-1.922 3.187.078.204.094.297.094.375 0 .079-.016.172-.094.375 1.563 0 1.922 1.125 1.922 3.188V0h1.219zm0 0"/></symbol><symbol overflow="visible" id="d"><path d="M5.89-.734c-1.374-.36-1.796-1.47-1.796-3.188v-3.703H2.875v3.703c0 2.094 1.219 3.469 3.031 3.969 0-.266 0-.344.016-.422.031-.078.031-.063.156-.313zm0 0"/></symbol><symbol overflow="visible" id="e"><path d="M7.781-8.219c-.922-.344-1.593-.484-2.328-.484-.984 0-2.078.344-2.906.89C1.14-6.859.39-5.358.39-3.53c0 2.328 1.421 3.75 3.703 3.75C5.25.219 6.187-.094 7.28-.844l.157-.578-.266-.187c-1.234.765-1.75.921-2.672.921-1.89 0-2.781-1.015-2.781-3.14 0-1.328.375-2.406 1.11-3.156.546-.563 1.218-.829 2.171-.829.86 0 1.36.141 2 .547v1.063h.578c.078-.813.172-1.328.36-1.953zm0 0"/></symbol><symbol overflow="visible" id="h"><path d="M8.266-4.078a1.419 1.419 0 0 1-.047-.36c0-.109.015-.234.062-.484h-7.5c.063.25.063.375.063.484 0 .125 0 .235-.063.5h7.5zm0 2.625a1.332 1.332 0 0 1-.047-.36c0-.109.015-.234.062-.484h-7.5c.063.25.063.375.063.485 0 .125 0 .25-.063.5h7.5zm0 0"/></symbol><symbol overflow="visible" id="i"><path d="M5.125-.094v-.484l-.75-.047c-.656-.031-.64-.031-.64-.656v-7.172l-.313-.125c-.875.469-1.61.781-2.86 1.219l.125.718h.235l1.547-.687.031-.016c.063 0-.047-.015-.047.266v5.797c0 .625.016.625-.64.656L1-.578v.625L3.125 0l2 .047zm0 0"/></symbol><symbol overflow="visible" id="A"><path d="M3.703-5.516c-.453.047-.86.063-1.156.063.172-.984.297-1.578.531-2.25l-.25-.328a7.16 7.16 0 0 1-1.094.531l-.296 2.031c-.391.203-.704.328-1.063.407l-.047.406h1l-.64 3.25C.625-1.11.53-.813.53-.5c0 .297.266.61.5.61.422 0 .922-.282 1.86-1.032.218-.172.14-.125.437-.36l-.25-.437-.672.469c-.36.25-.484.313-.625.313-.093 0-.031.046-.031-.11 0-.297.156-1.234.516-3l.14-.61h1.266l.203-.89zm0 0"/></symbol><symbol overflow="visible" id="B"><path d="M4.984-1.14l-.156-.485c-.25.203-.266.219-.328.266-.375.312-.453.39-.625.39-.125 0-.047.031-.047-.156 0-.047 0-.078.016-.125l1.11-4.578-.25-.203-.438.218c-.438-.156-.672-.218-.985-.218-.344 0-.578.062-.906.218-.75.375-1.234.766-1.531 1.36l-.047.094C.28-3.297-.093-1.875-.093-.922c0 .516.327 1.047.546 1.047.25 0 .797-.281 1.234-.656.516-.453.985-1.016 1.641-1.938l-.234-.094-.344 1.516a2.715 2.715 0 0 0-.078.61c0 .265.25.562.437.562.266 0 .86-.36 1.891-1.219zM3.672-5.079c-.266 1.281-.453 1.797-.844 2.406C2.156-1.656 1.516-.969 1.125-.969c-.14 0-.078-.015-.078-.344 0-.765.297-2.093.719-3.093.296-.688.453-.766 1.03-.766.282 0 .5.047.86.172zm0 0"/></symbol><symbol overflow="visible" id="C"><path d="M6.234-1.25l-.171-.297-.454.297c-.343.219-.5.313-.625.313-.078 0-.03.03-.03-.11 0-.047.015-.187.03-.234l.782-3.297c.093-.344.14-.688.14-.89 0-.266-.265-.563-.5-.563-.5 0-1.437.5-2.14 1.156-.454.422-.797.828-1.407 1.703l.235.094.453-1.938c.047-.203.078-.343.078-.484 0-.25-.234-.531-.406-.531-.266 0-.828.312-1.703.922l-.391.296.172.485.547-.36c.437-.28.39-.265.469-.265.14 0 .078 0 .078.172 0 .61-.5 2.922-.985 4.656l.172.25c.36-.094.625-.172 1.016-.234.234-1.625.468-2.313 1-3.125.656-1.016 1.453-1.72 1.984-1.72.125 0 .063-.015.063.157 0 .219-.032.469-.141.86l-.61 2.53c-.109.438-.156.72-.156.907 0 .297.266.61.5.61.313 0 .829-.282 2.079-1.22zm0 0"/></symbol><symbol overflow="visible" id="D"><path d="M5.406-11.313a.427.427 0 0 1-.187-.14c-.063-.063-.11-.125-.219-.328-2.25 2.25-3.578 4.89-3.578 7.64v2.047C1.422.641 2.75 3.281 5 5.531c.11-.203.156-.265.219-.312.047-.063.11-.11.297-.203C3.422 2.89 2.53.484 2.53-2.094V-4.14c0-2.578.89-4.984 2.985-7.109zm0 0"/></symbol><symbol overflow="visible" id="F"><path d="M4.906-2.094V-4.14c0-2.75-1.328-5.39-3.562-7.64-.11.203-.157.265-.219.328-.063.062-.125.11-.313.203 2.11 2.125 2.985 4.531 2.985 7.11v2.046c0 2.578-.875 4.985-2.985 7.11.188.093.25.14.313.203.063.047.11.11.219.312 2.234-2.25 3.562-4.89 3.562-7.625zm0 0"/></symbol><symbol overflow="visible" id="f"><path d="M4.281-.11V-.5l-.656-.031c-.531-.031-.484.015-.484-.453v-5.344l-.282-.094c-.625.313-1.312.578-2.375.906l.125.594h.22l1.25-.516h.03c.047 0-.078-.062-.078.157v4.297c0 .468.047.421-.469.453L.86-.5v.531L2.61 0l1.672.031zm0 0"/></symbol><symbol overflow="visible" id="g"><path d="M4.875-4.406c-.125-.063-.313-.125-.406-.125-.39 0-.875.343-1.485 1.172l-.359.484.266.094-.063-.422c-.11-.875-.515-1.328-1.094-1.328-.25 0-.578.093-.656.218l-.656.875.406.22c.36-.376.453-.47.64-.47.313 0 .36.235.532 1.094l.094.531-.328.485C1.344-1 1.14-.75.859-.75c-.14 0-.093.11-.109.063l-.172-.407-.437.063c0 .297-.032.406-.094.687-.016.11-.016.14-.031.266.187.11.468.172.578.172.312 0 .797-.281 1.094-.703l.734-1.032-.266-.109.11.61c.14.765.5 1.234.859 1.234.203 0 .625-.188.938-.438l.53-.437-.202-.438c-.516.39-.641.485-.797.485-.14 0-.172-.047-.266-.235a2.77 2.77 0 0 1-.187-.656l-.188-.86.313-.374c.453-.563.593-.735.89-.735.157 0 .11-.062.235.235l.359-.11.172-.906zm0 0"/></symbol><symbol overflow="visible" id="j"><path d="M4.922-4.422l-.172-.125c-.313.11-.547.156-.875.188L3.5-3.063c-.11.407-.406.97-.734 1.391-.329.453-.688.813-.891.813-.219 0-.047-.297-.047-.407l.14-1.718c.032-.282.048-.61.048-.86 0-.406-.22-.687-.391-.687-.125 0-.36.093-.828.39l-.89.547.265.39.64-.358c.047-.032.063-.063.141-.063.25 0 .047.313.047.453L.828-1.016l-.015.344c0 .375.343.766.578.766.359 0 1.28-.781 2-1.782l-.266-.109L2.656-.28c-.5 1.578-.828 2.094-1.5 2.094-.328 0-.453-.11-.453-.422 0-.047.016-.11.047-.266l-.297-.11-.594.376c-.015.14-.015.187-.015.234 0 .375.531.813.969.813 1.015 0 2.218-1.22 2.796-2.86l1.375-3.953zm0 0"/></symbol><symbol overflow="visible" id="k"><path d="M4.86-6.625l-.188-.156c-.531.25-.89.328-1.719.406l-.078.438h.64c.235 0 .172-.063.172.078 0 .078-.015.156-.015.218l-.25 1.188a3.598 3.598 0 0 0-.656-.078c-.672 0-1.688.672-2.141 1.437C.328-2.578.094-1.64.094-.89c0 .579.312.985.578.985.265 0 .734-.188 1.062-.422.516-.39.829-.734 1.485-1.625l-.266-.11-.219.813c-.109.39-.156.672-.156.906 0 .188.235.438.406.438.172 0 .5-.157.829-.375l.859-.594-.234-.406-.579.375c-.14.094-.187.125-.265.125-.078 0 .015.047.015-.078 0-.079.016-.157.079-.407l1.218-5.312zm-1.563 2.86l-.11.515a3.695 3.695 0 0 1-1.203 1.984c-.343.297-.609.485-.796.485-.157 0-.094 0-.094-.219 0-1.125.406-2.406.875-2.734.125-.094.203-.11.468-.11.422 0 .704.063.844.14zm0 0"/></symbol><symbol overflow="visible" id="l"><path d="M3.422-4.297c-.375-.172-.656-.234-.969-.234-.5 0-1.203.281-1.672.718-.25.235-.406.563-.406.876 0 .5.469.921 1.11 1.03l.609.11c.422.063.406.094.406.438 0 .593-.281.843-.969.843-.343 0-.515-.062-.75-.25v-.812H.25C.172-1 .125-.688 0-.218c.547.25.875.312 1.203.312.484 0 1.031-.188 1.531-.547.485-.36.735-.781.735-1.219 0-.484-.453-.875-1.172-1l-.422-.062c-.578-.094-.61-.125-.61-.485 0-.469.266-.703.829-.703.39 0 .656.125.765.297v.594h.5c.063-.438.11-.688.22-1.188zm0 0"/></symbol><symbol overflow="visible" id="m"><path d="M2.531-.984l-.172-.25L1.953-1c-.281.188-.375.234-.469.234-.078 0 .016.063.016-.046 0-.079.016-.157.063-.344l.75-2.703a.983.983 0 0 0 .062-.313c0-.156-.234-.36-.39-.36-.22 0-.688.204-1.407.688l-.344.219.172.438.5-.297c.266-.172.266-.172.36-.172.093 0 0-.047 0 .062 0 .063-.047.25-.079.39l-.64 2.126c-.094.281-.125.5-.125.672 0 .219.266.484.453.484.25 0 .703-.234 1.734-.922zm.281-4.72c0-.218-.296-.5-.5-.5-.296 0-.734.423-.734.735 0 .219.313.485.563.485.296 0 .671-.391.671-.72zm0 0"/></symbol><symbol overflow="visible" id="n"><path d="M5.156-.984L5-1.234 4.594-1c-.282.172-.39.234-.469.234-.078 0 .016.063.016-.046 0-.032-.032-.032.015-.157l.64-2.453c.063-.265.11-.515.11-.656 0-.203-.265-.453-.453-.453-.406 0-1.187.375-1.766.86-.359.312-.624.608-1.124 1.25l.265.093.36-1.422c.046-.156.062-.266.062-.36 0-.187-.234-.421-.375-.421-.203 0-.703.218-1.39.687l-.344.219.172.438.5-.297c.343-.204.265-.188.343-.188.11 0 .016-.047.016.094 0 .453-.406 2.156-.813 3.453l.172.219c.313-.078.531-.125.875-.188.203-1.218.375-1.703.813-2.312.531-.75 1.125-1.266 1.562-1.266.11 0 .016-.047.016.078 0 .172-.031.344-.11.64l-.5 1.876c-.093.328-.124.531-.124.672 0 .219.265.484.453.484.234 0 .687-.219 1.718-.922zm0 0"/></symbol><symbol overflow="visible" id="o"><path d="M4.047-8.438a.561.561 0 0 1-.156-.109c-.032-.047-.079-.094-.172-.281C2-7.125 1-5.141 1-3.11v1.53c0 2.016 1 4 2.719 5.72.094-.204.14-.25.172-.282.046-.046.093-.078.265-.171C2.563 2.077 1.938.312 1.938-1.579V-3.11c0-1.907.625-3.672 2.218-5.266zm0 0"/></symbol><symbol overflow="visible" id="r"><path d="M3.688-1.578V-3.11c0-2.032-1-4.016-2.72-5.72-.093.188-.124.235-.171.282-.047.047-.094.078-.266.172 1.594 1.594 2.235 3.36 2.235 5.266v1.53c0 1.891-.641 3.657-2.235 5.266.172.094.219.126.266.172.047.032.078.079.172.282C2.688 2.42 3.688.437 3.688-1.58zm0 0"/></symbol><symbol overflow="visible" id="s"><path d="M6.766-8.64v-.657H5.25L3.406 2.5h.313L2.53-1.984H.906v.796h.625L3 4.36c.25-.03.36-.046.484-.046.11 0 .235.015.47.062L5.968-8.5h.797zm0 0"/></symbol><symbol overflow="visible" id="t"><path d="M-.406-6.11A6.814 6.814 0 0 1-1.5-7.233c-.172.046-.266.046-.375.046-.094 0-.203 0-.656-.093.5.593.765.89 1.047 1.156l.125-.234h-2.766a.962.962 0 0 1 .063.343c0 .079 0 .141-.063.344h2.766l-.125-.234c-.282.265-.547.562-1.047 1.156.453-.094.562-.094.656-.094.11 0 .203 0 .375.047.344-.453.703-.797 1.219-1.219zm0 0"/></symbol><symbol overflow="visible" id="u"><path d="M4.844-3.531c0-.516-.39-1-.75-1-.125 0-.36.062-.438.14l-.547.485.235.375c.25-.14.234-.125.312-.125.266 0 .266.062.266.422 0 1.312-.781 2.625-1.625 2.625-.485 0-.625-.235-.625-.813 0-.937.328-1.64 1.344-2.797l-.204-.343c-.265.109-.39.125-.656.125-.39 0-.797-.032-1.187-.047-.125-.016-.203.015-.422.093-.14.235-.297.657-.453 1.266h.5l.219-.5c.078-.156.125-.11.343-.11.188 0 .36.016.532.016.203 0 .359-.015.609-.031l-.11-.234C1.11-2.922.673-2.094.673-1.204c0 .688.594 1.298 1.219 1.298.406 0 .875-.188 1.312-.547.453-.39.969-1.078 1.266-1.688.203-.453.375-1.046.375-1.39zm0 0"/></symbol><symbol overflow="visible" id="w"><path d="M6.172-2.078c-.016-.094-.031-.188-.031-.266 0-.094.015-.187.062-.406H3.781v-2.422c-.234.047-.328.063-.422.063-.078 0-.171-.016-.421-.063v2.422H.515c.046.219.062.313.062.406 0 .078-.015.172-.062.39h2.421V.485c.25-.062.344-.062.422-.062.094 0 .188 0 .422.062v-2.437h2.422zm0 0"/></symbol><symbol overflow="visible" id="y"><path d="M4.797-.11V-.5l-.61-.031c-.468-.031-.437-.016-.437-.547v-.531c.422 0 .625.015 1.047.062v-.781l-.047.094s-.578-.204-.89-.204h-.11V-3.53c0-1.578.031-2.344.078-2.781l-.281-.11-.813.281-2.796 4.188.187.344h2.5v.53c0 .532.063.532-.406.548L1.453-.5v.531L3.172 0l1.625.031zm-2-2.328H.969l1.922-2.89-.266-.094v2.984zm0 0"/></symbol><symbol overflow="visible" id="z"><path d="M4.703-2.125c0-.422-.234-.89-.578-1.11a2.69 2.69 0 0 0-.719-.296c.531-.36.875-.875.875-1.39 0-.798-.875-1.454-1.937-1.454-.656 0-1.203.203-1.703.656L.312-4.406h.594l.219-.64c.11-.298.563-.47 1.078-.47.61 0 .969.344.969.907 0 .656-.406 1.078-1.094 1.078-.078 0-.344.203-.344.203l-.265-.094-.125.531.203.141c.39-.172.578-.203.844-.203.796 0 1.093.328 1.093 1.14 0 .907-.421 1.36-1.328 1.36-.437 0-.719-.094-1.015-.344C.906-1 .828-1.094.578-1.75l-.531.188c.234.609.312.937.375 1.468C1.078.11 1.5.172 1.875.172c.766 0 1.75-.422 2.281-1.016.328-.375.547-.86.547-1.281zm0 0"/></symbol><symbol overflow="visible" id="E"><path d="M6.125-3.063a1.253 1.253 0 0 0-.094-.562c-.125-.266-.656-.906-.922-.906-.218 0-.468.062-1.046.328-.125.062-.594.39-.844.64-.094.094-.219.36-.266.5L2.375-.53c-.64-.047-.938-.297-.906-.938.047-1 .625-1.937 1.39-2.312.11-.063.282-.094.532-.125.156-.11.14-.11.234-.266-.016-.125-.203-.266-.234-.266-.204 0-.594.172-.907.297-1.171.516-2 1.547-2.062 2.657C.375-.531 1.109.094 2.25.094c.047 0 .11 0-.031.031l-.5 1.813-.094.359.188.172c.25-.078.437-.125.875-.188l.515-2.297a5.639 5.639 0 0 0 1.297-.5c.875-.53 1.594-1.64 1.625-2.546zm-1.047.141c-.062.86-.594 1.688-1.281 2.156-.203.141-.36.204-.469.204l.203-.875c.156-.704.422-2.047.656-2.22.125-.14.282-.187.61-.187.266 0 .312.453.281.922zm0 0"/></symbol><symbol overflow="visible" id="p"><path d="M5-2.328c0-.156-.047-.297-.094-.422-.093-.203-.562-.734-.781-.734-.172 0-.36.046-.547.125-.281.156-.781.437-.984.625-.078.062-.188.312-.219.406L1.922-.5c-.484-.047-.672-.172-.656-.64.046-.735.468-1.391 1.062-1.673.094-.03.235-.062.453-.093.125-.094.125-.094.235-.219-.032-.125-.22-.281-.25-.281-.172 0-.47.125-.72.219C1.11-2.797.392-1.97.36-1.158.313-.452.953.079 1.844.079c.062 0 .11 0-.078.016L1.39 1.375l-.094.313.203.14c.203-.062.36-.094.734-.14l.407-1.704a4.531 4.531 0 0 0 1.03-.39C4.376-.796 4.954-1.656 5-2.328zm-.938.11c-.03.64-.437 1.218-1 1.562a1.152 1.152 0 0 1-.28.125l.14-.594c.125-.516.312-1.484.5-1.61.11-.093.203-.109.453-.109.219 0 .203.266.188.625zm0 0"/></symbol><symbol overflow="visible" id="q"><path d="M3.906-.125c-.031-.14-.031-.203-.031-.297 0-.094 0-.156.047-.469l-2.844.079.11.265 1.39-1.281c.75-.672 1.031-1.14 1.031-1.625 0-.766-.765-1.39-1.734-1.39-.563 0-1.047.187-1.469.546L.234-3.172h.532l.156-.453c.125-.39.234-.406.75-.406.656 0 .906.203.906.765 0 .5-.265.875-1.125 1.657L.078-.375v.406L1.968 0l1.954.031zm0 0"/></symbol><symbol overflow="visible" id="v"><path d="M3.969-3.375c-.094-.047-.266-.11-.344-.11-.313 0-.734.282-1.203.891l-.297.36.297.109-.047-.313c-.094-.64-.469-1.046-.922-1.046-.203 0-.5.109-.562.187l-.563.703.39.203c.329-.296.36-.343.5-.343.266 0 .25.109.391.765l.079.375-.25.328c-.329.438-.485.594-.688.594-.125 0-.047.14-.047.11l-.172-.36-.406.047c0 .281-.016.36-.063.578-.015.078-.015.094-.046.219.296.125.421.156.515.156.25 0 .672-.25.906-.547l.375-.484.016.062c.11.563.438.97.719.97.172 0 .531-.157.781-.36l.453-.344-.203-.406c-.453.328-.531.375-.656.375-.11 0-.094-.016-.172-.156-.078-.125-.11-.25-.14-.438l-.141-.625.219-.266c.359-.421.453-.53.687-.53.125 0 .047-.095.156.171l.344-.078.156-.75zm0 0"/></symbol><symbol overflow="visible" id="x"><path d="M4.016-3.375L3.844-3.5a2.55 2.55 0 0 1-.719.156l-.313 1.016c-.093.312-.312.672-.562 1-.281.328-.531.578-.703.578-.172 0 .016-.156.016-.25l.125-1.266c.015-.203.015-.453.015-.64 0-.297-.203-.578-.344-.578-.093 0-.312.093-.687.312l-.735.438.235.359.562-.297c.047-.015.032-.031.079-.031.203 0 0 .187 0 .297L.671-.812v.265c-.016.281.312.625.5.625.281 0 1.047-.61 1.625-1.36L2.5-1.374 2.125-.25C1.735.906 1.531 1.234.985 1.234c-.266 0-.313-.03-.313-.25 0-.03 0-.093.031-.234L.422.64l-.5.313c-.016.125-.016.172-.016.203 0 .282.453.657.797.657.813 0 1.828-.97 2.281-2.188l1.094-2.953zm0 0"/></symbol></defs><use xlink:href="#a" x="-.575" y="8.138"/><use xlink:href="#b" x="-.575" y="14.161"/><use xlink:href="#c" x="-.575" y="27.333"/><use xlink:href="#b" x="-.575" y="33.356"/><use xlink:href="#d" x="-.575" y="39.618"/><use xlink:href="#e" x="11.448" y="8.745"/><use xlink:href="#f" x="19.422" y="11.518"/><use xlink:href="#g" x="24.424" y="11.518"/><use xlink:href="#h" x="33.245" y="8.745"/><use xlink:href="#i" x="45.643" y="8.745"/><use xlink:href="#e" x="11.448" y="31.116"/><use xlink:href="#f" x="19.422" y="33.889"/><use xlink:href="#j" x="24.424" y="33.889"/><use xlink:href="#h" x="33.307" y="31.116"/><use xlink:href="#k" x="59.08" y="25.508"/><path d="M46.91 28.129h29.344" fill="none" stroke-width=".717" stroke="#000" stroke-miterlimit="10"/><use xlink:href="#l" x="46.909" y="37.73"/><use xlink:href="#m" x="50.84" y="37.73"/><use xlink:href="#n" x="53.744" y="37.73"/><use xlink:href="#o" x="59.286" y="37.73"/><use xlink:href="#p" x="65.183" y="32.645"/><path d="M65.184 35.516h5.171" fill="none" stroke-width=".531" stroke="#000" stroke-miterlimit="10"/><use xlink:href="#q" x="65.713" y="41.107"/><use xlink:href="#r" x="71.552" y="37.73"/><use xlink:href="#h" x="80.769" y="31.116"/><use xlink:href="#s" x="94.372" y="22.64"/><path d="M100.719 13.875h25.957" fill="none" stroke-width=".531" stroke="#000" stroke-miterlimit="10"/><use xlink:href="#t" x="105.368" y="22.733"/><use xlink:href="#u" x="100.72" y="22.733"/><use xlink:href="#q" x="105.722" y="20.112"/><use xlink:href="#v" x="105.722" y="24.787"/><use xlink:href="#w" x="110.333" y="22.733"/><use xlink:href="#t" x="121.71" y="22.733"/><use xlink:href="#u" x="117.071" y="22.733"/><use xlink:href="#q" x="122.064" y="20.112"/><use xlink:href="#x" x="122.064" y="24.787"/><path d="M94.371 28.129h32.305" fill="none" stroke-width=".717" stroke="#000" stroke-miterlimit="10"/><use xlink:href="#l" x="95.852" y="37.73"/><use xlink:href="#m" x="99.783" y="37.73"/><use xlink:href="#n" x="102.687" y="37.73"/><use xlink:href="#o" x="108.229" y="37.73"/><use xlink:href="#p" x="114.126" y="32.645"/><path d="M114.125 35.516h5.176" fill="none" stroke-width=".531" stroke="#000" stroke-miterlimit="10"/><use xlink:href="#q" x="114.656" y="41.107"/><use xlink:href="#r" x="120.494" y="37.73"/><use xlink:href="#h" x="131.192" y="31.116"/><use xlink:href="#y" x="144.795" y="25.508"/><path d="M144.797 28.129h5" fill="none" stroke-width=".717" stroke="#000" stroke-miterlimit="10"/><use xlink:href="#z" x="144.795" y="35.648"/><use xlink:href="#A" x="150.992" y="31.116"/><g><use xlink:href="#B" x="155.033" y="31.116"/><use xlink:href="#C" x="160.341" y="31.116"/></g><g><use xlink:href="#D" x="168.973" y="31.116"/></g><g><use xlink:href="#E" x="176.525" y="24.262"/></g><path d="M176.523 28.129h6.332" fill="none" stroke-width=".717" stroke="#000" stroke-miterlimit="10"/><g><use xlink:href="#y" x="177.189" y="35.692"/></g><g><use xlink:href="#F" x="184.05" y="31.115"/></g></svg>