<svg xmlns:xlink="http://www.w3.org/1999/xlink" width="63.833ex" height="5.5ex" style="vertical-align: -1.667ex; margin-left: 0ex; margin-right: 0ex; margin-bottom: 1px; margin-top: 1px;" viewBox="0 -1639.6 27459.3 2369.9" xmlns="http://www.w3.org/2000/svg">
<defs>
<path stroke-width="10" id="E1-LATINMODERNNORMAL-1D43A" d="M760 695l-63 -255c-5 -18 -5 -20 -18 -20c-4 0 -15 0 -15 10s3 11 3 51c0 116 -59 193 -161 193c-99 0 -196 -61 -250 -129c-105 -130 -115 -295 -115 -326c0 -153 105 -210 201 -210c35 0 165 11 193 121c10 37 21 82 21 91c0 13 -5 16 -31 19c-23 2 -53 2 -53 2 c-22 0 -30 0 -30 11c0 20 12 20 21 20l140 -3c23 0 82 3 105 3c8 0 13 -4 13 -11c0 -19 -11 -20 -16 -20c-57 -1 -58 -3 -69 -48c-4 -17 -9 -34 -13 -51l-19 -77c-5 -21 -15 -59 -17 -61c0 0 -2 -4 -7 -4c-10 0 -36 37 -45 62c-18 -20 -37 -41 -87 -61 c-36 -15 -81 -24 -125 -24c-162 0 -273 115 -273 274c0 232 225 453 448 453c111 0 157 -75 166 -89l70 77c11 11 12 12 15 12c9 0 11 -7 11 -10Z"></path>
<path stroke-width="10" id="E1-LATINMODERNNORMAL-1D456" d="M284 625c0 -30 -30 -53 -53 -53c-24 0 -38 17 -38 36c0 27 27 53 54 53c23 0 37 -16 37 -36zM293 143c0 -9 -37 -154 -131 -154c-48 0 -82 35 -82 82c0 21 13 54 23 80c16 43 61 159 69 185c4 10 11 31 11 52c0 32 -17 32 -25 32c-34 0 -74 -30 -101 -124 c-5 -16 -6 -18 -16 -18c0 0 -12 0 -12 10c0 9 38 154 132 154c50 0 82 -37 82 -82c0 -19 -5 -33 -13 -53c-10 -27 -10 -29 -22 -58l-39 -105c-23 -61 -29 -75 -29 -100c0 -23 7 -33 24 -33c51 0 84 61 102 124c5 15 5 18 15 18c3 0 12 0 12 -10Z"></path>
<path stroke-width="10" id="E1-LATINMODERNNORMAL-1D463" d="M468 372c0 -52 -57 -383 -225 -383c-46 0 -134 16 -134 124c0 43 13 89 57 205c7 18 17 45 17 70c0 32 -17 32 -25 32c-29 0 -72 -23 -101 -124c-5 -16 -6 -18 -16 -18c0 0 -12 0 -12 10c0 9 38 154 132 154c50 0 82 -37 82 -82c0 -19 -5 -33 -12 -50 c-31 -83 -58 -156 -58 -212c0 -52 23 -87 74 -87c117 0 178 229 178 271c0 36 -13 62 -34 82c-11 11 -16 17 -16 30c0 22 24 48 49 48c18 0 44 -16 44 -70Z"></path>
<path stroke-width="10" id="E1-LATINMODERNNORMAL-1D452" d="M430 107c0 -12 -84 -118 -227 -118c-98 0 -157 79 -157 181c0 175 151 272 262 272c69 0 107 -41 107 -85c0 -14 -5 -73 -75 -103c-50 -21 -124 -23 -153 -23h-53c-15 -61 -16 -92 -16 -104c0 -32 9 -116 87 -116c12 0 121 0 200 99c6 8 8 10 13 10c6 0 12 -7 12 -13z M382 357c0 34 -27 63 -74 63c-26 0 -129 -15 -168 -167h41c41 0 201 0 201 104Z"></path>
<path stroke-width="10" id="E1-LATINMODERNNORMAL-1D45B" d="M571 143c0 -8 -37 -154 -131 -154c-47 0 -82 35 -82 82c0 11 1 23 10 46c16 43 65 171 65 233c0 33 -9 70 -54 70c-95 0 -148 -91 -163 -122l-13 -50c-5 -23 -11 -45 -17 -67l-22 -90c-6 -25 -18 -72 -19 -74c-7 -20 -25 -28 -37 -28c-15 0 -29 9 -29 27c0 5 6 28 9 43 l58 231c13 52 16 63 16 84c0 33 -11 46 -31 46c-36 0 -56 -48 -73 -119c-6 -22 -7 -23 -17 -23c0 0 -12 0 -12 10c0 4 14 63 30 97c10 18 29 57 75 57s87 -31 92 -87c17 23 66 87 156 87c72 0 115 -40 115 -107c0 -57 -42 -167 -61 -220c-9 -22 -18 -46 -18 -71 c0 -23 7 -33 24 -33c49 0 82 56 102 124c5 15 5 18 15 18c3 0 12 0 12 -10Z"></path>
<path stroke-width="10" id="E1-LATINMODERNNORMAL-1D453" d="M552 636c0 -38 -29 -60 -55 -60c-19 0 -37 12 -37 35c0 15 10 50 54 54c-19 18 -45 18 -49 18c-21 0 -38 -15 -47 -34c-6 -12 -20 -83 -24 -104c-11 -58 -10 -56 -21 -114h83c17 0 27 0 27 -11c0 -20 -10 -20 -30 -20h-86l-60 -317c-1 -7 -24 -128 -56 -191 c-18 -38 -58 -97 -113 -97c-41 0 -85 24 -85 69c0 38 29 60 55 60c19 0 37 -12 37 -35c0 -15 -9 -51 -55 -54c19 -18 44 -18 48 -18c52 0 69 91 87 188l75 395h-66c-19 0 -28 0 -28 12c0 19 11 19 30 19h69c24 126 27 136 33 157c30 99 93 117 127 117c41 0 87 -23 87 -69Z"></path>
<path stroke-width="10" id="E1-LATINMODERNMAIN-28" d="M332 -238c0 -5 -5 -10 -10 -10c-2 0 -4 1 -6 2c-110 83 -215 283 -215 454v84c0 171 105 371 215 454c2 1 4 2 6 2c5 0 10 -5 10 -10c0 -3 -2 -6 -4 -8c-104 -78 -173 -278 -173 -438v-84c0 -160 69 -360 173 -438c2 -2 4 -5 4 -8Z"></path>
<path stroke-width="10" id="E1-LATINMODERNNORMAL-1D461" d="M330 420c0 -20 -10 -20 -30 -20h-94l-74 -295c-4 -17 -6 -24 -6 -48c0 -33 10 -46 31 -46c34 0 87 24 130 128c5 11 6 14 15 14c4 0 12 0 12 -10c0 -8 -57 -154 -159 -154c-54 0 -92 38 -92 92c0 18 4 35 76 319h-88c-20 0 -28 0 -28 12c0 19 10 19 30 19h94l39 159 c9 35 37 36 40 36c17 0 29 -10 29 -27c0 -6 -5 -26 -41 -168h88c18 0 28 0 28 -11Z"></path>
<path stroke-width="10" id="E1-LATINMODERNMAIN-29" d="M288 208c0 -171 -105 -371 -215 -454c-2 -1 -4 -2 -6 -2c-5 0 -10 5 -10 10c0 3 2 6 4 8c104 78 173 278 173 438v84c0 160 -69 360 -173 438c-2 2 -4 5 -4 8c0 5 5 10 10 10c2 0 4 -1 6 -2c110 -83 215 -283 215 -454v-84Z"></path>
<path stroke-width="10" id="E1-LATINMODERNMAIN-3D" d="M722 347c0 -11 -9 -20 -20 -20h-626c-11 0 -20 9 -20 20s9 20 20 20h626c11 0 20 -9 20 -20zM722 153c0 -11 -9 -20 -20 -20h-626c-11 0 -20 9 -20 20s9 20 20 20h626c11 0 20 -9 20 -20Z"></path>
<path stroke-width="10" id="E1-LATINMODERNNORMAL-1D44E" d="M498 143c0 0 -13 -63 -30 -99c-16 -32 -39 -55 -74 -55c-48 0 -83 33 -91 75c-60 -71 -110 -75 -130 -75c-78 0 -133 66 -133 160c0 146 124 293 241 293c45 0 74 -27 92 -64c3 22 18 44 42 44c17 0 29 -10 29 -27c0 -4 0 -6 -7 -34l-36 -140l-22 -90 c-11 -44 -13 -52 -13 -74c0 -20 3 -46 30 -46c41 0 59 59 76 124c3 14 4 18 14 18c3 0 12 0 12 -10zM361 332c0 6 -14 88 -79 88c-40 0 -85 -37 -116 -96c-23 -46 -55 -169 -55 -219c0 -39 14 -94 64 -94c28 0 69 16 113 71c15 17 15 19 20 37l50 196c1 5 3 11 3 17Z"></path>
<path stroke-width="10" id="E1-LATINMODERNMAIN-32" d="M449 174l-28 -174h-371c0 24 0 26 11 37l192 214c55 62 105 141 105 221c0 82 -43 163 -134 163c-58 0 -112 -37 -135 -102c3 1 5 1 13 1c35 0 53 -26 53 -52c0 -41 -35 -53 -52 -53c-3 0 -53 0 -53 56c0 89 74 181 187 181c122 0 212 -80 212 -194 c0 -100 -60 -154 -216 -292l-106 -103h180c22 0 88 0 95 8c10 15 17 59 22 89h25Z"></path>
<path stroke-width="10" id="E1-LATINMODERNMAIN-2B" d="M722 250c0 -11 -9 -20 -20 -20h-293v-293c0 -11 -9 -20 -20 -20s-20 9 -20 20v293h-293c-11 0 -20 9 -20 20s9 20 20 20h293v293c0 11 9 20 20 20s20 -9 20 -20v-293h293c11 0 20 -9 20 -20Z"></path>
<path stroke-width="10" id="E1-LATINMODERNNORMAL-1D44F" d="M415 282c0 -144 -123 -293 -241 -293c-74 0 -127 62 -127 157c0 35 4 51 16 101l82 326c5 21 14 55 14 62c0 10 -2 17 -50 17c-15 0 -24 0 -24 12c0 18 11 19 19 20c26 2 99 10 122 10c13 0 13 -11 13 -11l-74 -301c30 31 71 60 117 60c80 0 133 -69 133 -160zM343 326 c0 64 -27 94 -63 94c-26 0 -71 -15 -120 -80c-9 -11 -9 -13 -15 -35l-22 -92c-16 -63 -16 -82 -16 -101c0 -74 33 -101 67 -101c39 0 85 36 118 103c18 38 51 153 51 212Z"></path>
<path stroke-width="10" id="E1-LATINMODERNNORMAL-1D450" d="M430 107c0 -12 -84 -118 -227 -118c-104 0 -162 79 -162 169c0 141 133 284 268 284c71 0 118 -37 118 -86c0 -40 -27 -64 -56 -64c-19 0 -37 11 -37 35c0 7 2 24 18 39c14 14 28 14 44 14c-14 27 -52 40 -86 40c-55 0 -110 -43 -141 -100c-34 -62 -54 -159 -54 -200 c0 -60 27 -109 90 -109c12 0 121 0 200 99c6 8 8 10 13 10c6 0 12 -7 12 -13Z"></path>
<path stroke-width="10" id="E1-LATINMODERNMAIN-2C" d="M203 1c0 -117 -80 -194 -91 -194c-5 0 -10 4 -10 11c0 3 0 5 11 16c33 33 68 93 68 167c0 14 -2 15 -2 15s-2 -1 -5 -3c-10 -9 -23 -13 -35 -13c-33 0 -53 26 -53 53c0 28 20 53 53 53c39 0 64 -39 64 -105Z"></path>
<path stroke-width="10" id="E1-LATINMODERNMAIN-30" d="M460 320c0 -79 -5 -157 -37 -226c-44 -95 -120 -116 -174 -116c-49 0 -122 20 -165 101c-41 76 -45 166 -45 241c0 80 5 158 37 227c41 93 114 119 174 119c42 0 124 -16 170 -112c35 -74 40 -154 40 -234zM377 332c0 63 0 139 -10 195c-19 99 -85 117 -118 117 c-25 0 -100 -9 -119 -128c-8 -54 -8 -120 -8 -184c0 -59 0 -151 11 -211c18 -96 77 -121 116 -121c45 0 102 30 117 125c11 64 11 132 11 207Z"></path>
<path stroke-width="10" id="E1-LATINMODERNNORMAL-1D464" d="M691 372c0 -48 -32 -182 -66 -260c-26 -60 -70 -123 -145 -123c-30 0 -99 6 -125 70c-40 -70 -87 -70 -104 -70c-75 0 -142 35 -142 126c0 38 12 84 56 202c7 17 18 45 18 70c0 32 -16 33 -25 33c-35 0 -74 -31 -101 -124c-5 -16 -6 -18 -16 -18c0 0 -12 0 -12 10 c0 9 37 154 132 154c49 0 82 -37 82 -82c0 -20 -6 -34 -17 -64c-47 -123 -52 -162 -52 -194c0 -17 0 -91 80 -91c39 0 69 31 92 84c-1 5 -1 7 -1 18c0 18 2 36 9 66c7 26 54 217 57 224c7 20 25 28 37 28c15 0 29 -9 29 -27c0 -6 -10 -43 -15 -65l-42 -168 c-4 -14 -11 -45 -11 -73c0 -57 27 -87 74 -87c49 0 84 35 110 88c26 51 55 149 55 183c0 48 -25 74 -36 85c-9 8 -15 14 -15 27c0 22 25 48 50 48c17 0 44 -15 44 -70Z"></path>
<path stroke-width="10" id="E1-LATINMODERNNORMAL-210E" d="M546 143c0 -8 -37 -154 -131 -154c-47 0 -82 35 -82 82c0 20 5 32 13 55c24 61 62 170 62 224c0 36 -11 70 -54 70s-74 -19 -96 -35c-34 -27 -65 -83 -68 -92c-1 -6 -9 -39 -11 -45c-5 -23 -11 -45 -17 -67l-22 -90l-19 -76c-5 -14 -21 -26 -37 -26c-9 0 -29 5 -29 28 c0 6 0 8 4 22l145 576l3 20c0 10 -2 17 -50 17c-15 0 -24 0 -24 12c0 18 11 19 19 20c26 2 99 10 122 10c13 0 13 -11 13 -11l-78 -318c37 46 85 77 148 77c75 0 115 -42 115 -107c0 -58 -45 -177 -61 -220c-9 -22 -18 -46 -18 -71c0 -23 7 -33 24 -33c55 0 87 71 102 124 c5 15 5 18 15 18c3 0 12 0 12 -10Z"></path>
<path stroke-width="10" id="E1-LATINMODERNMAIN-2212" d="M722 250c0 -11 -9 -20 -20 -20h-626c-11 0 -20 9 -20 20s9 20 20 20h626c11 0 20 -9 20 -20Z"></path>
<path stroke-width="10" id="E1-LATINMODERNMAIN-B1" d="M722 -64c0 -11 -9 -20 -20 -20h-626c-11 0 -20 9 -20 20s9 20 20 20h293v274h-293c-11 0 -20 9 -20 20s9 20 20 20h293v293c0 11 9 20 20 20s20 -9 20 -20v-293h293c11 0 20 -9 20 -20s-9 -20 -20 -20h-293v-274h293c11 0 20 -9 20 -20Z"></path>
<path stroke-width="10" id="E1-LATINMODERNMAIN-34" d="M471 165h-100v-87c0 -36 2 -47 76 -47h21v-31c-41 3 -94 3 -136 3s-94 0 -135 -3v31h21c74 0 76 11 76 47v87h-266v31l307 469c8 12 11 12 20 12c16 0 16 -6 16 -26v-455h100v-31zM300 196v373l-244 -373h244Z"></path>
<path stroke-width="10" id="E1-LATINMODERNMAIN-221A" d="M853 20c0 -5 -1 -6 -6 -17l-456 -944c-7 -15 -9 -19 -25 -19c-11 0 -13 1 -19 15l-198 435l-52 -39c-9 -8 -11 -8 -14 -8c-6 0 -10 4 -10 11c0 4 1 5 12 14l99 75c9 8 11 8 14 8c7 0 9 -6 13 -14l178 -392l423 876c6 12 9 19 21 19s20 -9 20 -20Z"></path>
</defs>
<g stroke="currentColor" fill="currentColor" stroke-width="0" transform="matrix(1 0 0 -1 0 0)">
 <use xlink:href="#E1-LATINMODERNNORMAL-1D43A" x="0" y="0"></use>
 <use xlink:href="#E1-LATINMODERNNORMAL-1D456" x="791" y="0"></use>
 <use xlink:href="#E1-LATINMODERNNORMAL-1D463" x="1141" y="0"></use>
 <use xlink:href="#E1-LATINMODERNNORMAL-1D452" x="1631" y="0"></use>
 <use xlink:href="#E1-LATINMODERNNORMAL-1D45B" x="2102" y="0"></use>
 <use xlink:href="#E1-LATINMODERNNORMAL-1D453" x="3039" y="0"></use>
 <use xlink:href="#E1-LATINMODERNMAIN-28" x="3596" y="0"></use>
 <use xlink:href="#E1-LATINMODERNNORMAL-1D461" x="3990" y="0"></use>
 <use xlink:href="#E1-LATINMODERNMAIN-29" x="4356" y="0"></use>
 <use xlink:href="#E1-LATINMODERNMAIN-3D" x="5027" y="0"></use>
 <use xlink:href="#E1-LATINMODERNNORMAL-1D44E" x="6088" y="0"></use>
<g transform="translate(6622,0)">
 <use xlink:href="#E1-LATINMODERNNORMAL-1D461" x="0" y="0"></use>
 <use transform="scale(0.707)" xlink:href="#E1-LATINMODERNMAIN-32" x="517" y="583"></use>
</g>
 <use xlink:href="#E1-LATINMODERNMAIN-2B" x="7667" y="0"></use>
 <use xlink:href="#E1-LATINMODERNNORMAL-1D44F" x="8673" y="0"></use>
 <use xlink:href="#E1-LATINMODERNNORMAL-1D461" x="9107" y="0"></use>
 <use xlink:href="#E1-LATINMODERNMAIN-2B" x="9695" y="0"></use>
 <use xlink:href="#E1-LATINMODERNNORMAL-1D450" x="10700" y="0"></use>
 <use xlink:href="#E1-LATINMODERNMAIN-2C" x="11138" y="0"></use>
 <use xlink:href="#E1-LATINMODERNNORMAL-1D453" x="11920" y="0"></use>
 <use xlink:href="#E1-LATINMODERNMAIN-28" x="12477" y="0"></use>
 <use xlink:href="#E1-LATINMODERNNORMAL-1D461" x="12871" y="0"></use>
 <use xlink:href="#E1-LATINMODERNMAIN-29" x="13237" y="0"></use>
 <use xlink:href="#E1-LATINMODERNMAIN-3D" x="13908" y="0"></use>
 <use xlink:href="#E1-LATINMODERNMAIN-30" x="14969" y="0"></use>
 <use xlink:href="#E1-LATINMODERNNORMAL-1D464" x="15806" y="0"></use>
 <use xlink:href="#E1-LATINMODERNNORMAL-210E" x="16527" y="0"></use>
 <use xlink:href="#E1-LATINMODERNNORMAL-1D452" x="17108" y="0"></use>
 <use xlink:href="#E1-LATINMODERNNORMAL-1D45B" x="17579" y="0"></use>
 <use xlink:href="#E1-LATINMODERNNORMAL-1D461" x="18516" y="0"></use>
 <use xlink:href="#E1-LATINMODERNMAIN-3D" x="19160" y="0"></use>
<g transform="translate(19943,0)">
<g transform="translate(397,0)">
<rect stroke="none" width="6997" height="60" x="0" y="220"></rect>
<g transform="translate(60,676)">
 <use xlink:href="#E1-LATINMODERNMAIN-2212" x="0" y="0"></use>
 <use xlink:href="#E1-LATINMODERNNORMAL-1D44F" x="783" y="0"></use>
 <use xlink:href="#E1-LATINMODERNMAIN-B1" x="1439" y="0"></use>
<g transform="translate(2444,0)">
 <use xlink:href="#E1-LATINMODERNMAIN-221A" x="0" y="839"></use>
<rect stroke="none" width="3595" height="60" x="838" y="829"></rect>
<g transform="translate(838,0)">
 <use xlink:href="#E1-LATINMODERNNORMAL-1D44F" x="0" y="0"></use>
 <use transform="scale(0.707)" xlink:href="#E1-LATINMODERNMAIN-32" x="613" y="408"></use>
 <use xlink:href="#E1-LATINMODERNMAIN-2212" x="1113" y="0"></use>
 <use xlink:href="#E1-LATINMODERNMAIN-34" x="2118" y="0"></use>
 <use xlink:href="#E1-LATINMODERNNORMAL-1D44E" x="2623" y="0"></use>
 <use xlink:href="#E1-LATINMODERNNORMAL-1D450" x="3157" y="0"></use>
</g>
</g>
</g>
<g transform="translate(2979,-696)">
 <use xlink:href="#E1-LATINMODERNMAIN-32" x="0" y="0"></use>
 <use xlink:href="#E1-LATINMODERNNORMAL-1D44E" x="505" y="0"></use>
</g>
</g>
</g>
</g>
</svg>