<svg xmlns:xlink="http://www.w3.org/1999/xlink" width="25.833ex" height="5.833ex" style="vertical-align:-2.333ex;margin-bottom:1px;margin-top:1px" viewBox="0 -1521.9 11124.1 2543.9" xmlns="http://www.w3.org/2000/svg"><defs><path stroke-width="10" id="a" d="M760 695l-63-255c-5-18-5-20-18-20-4 0-15 0-15 10s3 11 3 51c0 116-59 193-161 193-89 0-183-50-244-121-100-117-121-279-121-336C141 61 247 9 337 9c52 0 115 17 184 73 69 58 92 129 101 158 2 8 7 10 13 10 0 0 12 0 12-10 0-3-17-94-110-176-53-46-129-86-216-86C168-22 50 87 50 252c0 232 225 453 448 453 111 0 157-75 166-89l70 77c11 11 12 12 15 12 9 0 11-7 11-10z"/><path stroke-width="10" id="b" d="M449 174L421 0H50c0 24 0 26 11 37l192 214c55 62 105 141 105 221 0 82-43 163-134 163-58 0-112-37-135-102 3 1 5 1 13 1 35 0 53-26 53-52 0-41-35-53-52-53-3 0-53 0-53 56 0 89 74 181 187 181 122 0 212-80 212-194 0-100-60-154-216-292L127 77h180c22 0 88 0 95 8 10 15 17 59 22 89h25z"/><path stroke-width="10" id="c" d="M722 347c0-11-9-20-20-20H76c-11 0-20 9-20 20s9 20 20 20h626c11 0 20-9 20-20zm0-194c0-11-9-20-20-20H76c-11 0-20 9-20 20s9 20 20 20h626c11 0 20-9 20-20z"/><path stroke-width="10" id="d" d="M763 653l-20-173c-2-19-3-25-14-25-9 0-12 7-12 12s1 12 1 18c4 27 4 29 4 53 0 82-30 111-152 111H429c-44 0-45-4-54-39l-60-241h94c92 0 110 23 131 99 3 12 5 18 14 18 7 0 12-5 12-11l-57-234c-4-15-7-20-15-20-9 0-13 6-13 11 0 3 1 6 3 11 7 30 7 42 7 49 0 25 0 46-85 46h-99L239 65c-5-18-5-20-5-23 0-8 3-9 13-10 6-1 8-1 22-1h146c171 0 208 67 273 215 2 6 4 12 13 12 12 0 12-11 12-11s-3-9-5-14L616 17c-7-16-8-17-31-17H66C47 0 38 0 38 12c0 19 11 19 28 19 79 0 81 8 91 47l132 529c5 18 5 20 5 24 0 18-28 18-65 18-19 0-28 0-28 11 0 20 10 20 30 20h505c25 0 30 0 27-27z"/><path stroke-width="10" id="e" d="M722 250c0-11-9-20-20-20H409V-63c0-11-9-20-20-20s-20 9-20 20v293H76c-11 0-20 9-20 20s9 20 20 20h293v293c0 11 9 20 20 20s20-9 20-20V270h293c11 0 20-9 20-20z"/><path stroke-width="10" id="f" d="M415 282c0-144-123-293-241-293-74 0-127 62-127 157 0 35 4 51 16 101l82 326c5 21 14 55 14 62 0 10-2 17-50 17-15 0-24 0-24 12 0 18 11 19 19 20 26 2 99 10 122 10 13 0 13-11 13-11l-74-301c30 31 71 60 117 60 80 0 133-69 133-160zm-72 44c0 64-27 94-63 94-26 0-71-15-120-80-9-11-9-13-15-35l-22-92c-16-63-16-82-16-101 0-74 33-101 67-101 39 0 85 36 118 103 18 38 51 153 51 212z"/><path stroke-width="10" id="g" d="M192 250c0-29-24-53-53-53s-53 24-53 53 24 53 53 53 53-24 53-53z"/><path stroke-width="10" id="m" d="M332-238c0-5-5-10-10-10-2 0-4 1-6 2-110 83-215 283-215 454v84c0 171 105 371 215 454 2 1 4 2 6 2 5 0 10-5 10-10 0-3-2-6-4-8-104-78-173-278-173-438v-84c0-160 69-360 173-438 2-2 4-5 4-8z"/><path stroke-width="10" id="i" d="M722 250c0-11-9-20-20-20H76c-11 0-20 9-20 20s9 20 20 20h626c11 0 20-9 20-20z"/><path stroke-width="10" id="j" d="M420 356c0-39-24-56-46-56s-31 15-31 29c0 22 20 44 48 45-15 39-65 46-90 46-88 0-112-61-112-90 0-45 40-52 76-60 44-9 73-14 100-42 12-12 31-37 31-73 0-45-39-166-201-166-86 0-143 40-143 97 0 45 30 66 56 66 21 0 37-12 37-35 0-28-25-58-63-53 23-53 100-53 114-53 120 0 143 84 143 110 0 55-52 66-104 76-29 6-103 21-103 99 0 44 37 146 169 146 76 0 119-41 119-86z"/><path stroke-width="10" id="k" d="M284 625c0-30-30-53-53-53-24 0-38 17-38 36 0 27 27 53 54 53 23 0 37-16 37-36zm9-482c0-9-37-154-131-154-48 0-82 35-82 82 0 21 13 54 23 80 16 43 61 159 69 185 4 10 11 31 11 52 0 32-17 32-25 32-34 0-74-30-101-124-5-16-6-18-16-18 0 0-12 0-12 10 0 9 38 154 132 154 50 0 82-37 82-82 0-19-5-33-13-53-10-27-10-29-22-58l-39-105c-23-61-29-75-29-100 0-23 7-33 24-33 51 0 84 61 102 124 5 15 5 18 15 18 3 0 12 0 12-10z"/><path stroke-width="10" id="l" d="M571 143c0-8-37-154-131-154-47 0-82 35-82 82 0 11 1 23 10 46 16 43 65 171 65 233 0 33-9 70-54 70-95 0-148-91-163-122l-13-50c-5-23-11-45-17-67l-22-90c-6-25-18-72-19-74-7-20-25-28-37-28-15 0-29 9-29 27 0 5 6 28 9 43l58 231c13 52 16 63 16 84 0 33-11 46-31 46-36 0-56-48-73-119-6-22-7-23-17-23 0 0-12 0-12 10 0 4 14 63 30 97 10 18 29 57 75 57s87-31 92-87c17 23 66 87 156 87 72 0 115-40 115-107 0-57-42-167-61-220-9-22-18-46-18-71 0-23 7-33 24-33 49 0 82 56 102 124 5 15 5 18 15 18 3 0 12 0 12-10z"/><path stroke-width="10" id="n" d="M590 304c40-158-75-315-241-315-17 0-25 1-34 2 9-142 12-175 11-183-4-23-26-26-31-26-10 0-30 6-36 28-1 5 0 7 0 20L271-2C157 23 73 96 50 190c-24 96 16 241 44 241 10 0 14-6 15-10 0 0 1-4-5-13-43-69-38-179-31-207 18-72 88-128 201-148 11 195 23 389 168 389 75 0 129-60 148-138zm-22-22c-12 48-53 102-122 102-89 0-143-96-142-224l7-108c1-3 2-4 14-4 8-1 10-1 18-1 154 0 253 122 225 235z"/><path stroke-width="10" id="o" d="M288 208c0-171-105-371-215-454-2-1-4-2-6-2-5 0-10 5-10 10 0 3 2 6 4 8 104 78 173 278 173 438v84c0 160-69 360-173 438-2 2-4 5-4 8 0 5 5 10 10 10 2 0 4-1 6-2 110-83 215-283 215-454v-84z"/><path stroke-width="10" id="p" d="M430 107c0-12-84-118-227-118C99-11 41 68 41 158c0 141 133 284 268 284 71 0 118-37 118-86 0-40-27-64-56-64-19 0-37 11-37 35 0 7 2 24 18 39 14 14 28 14 44 14-14 27-52 40-86 40-55 0-110-43-141-100-34-62-54-159-54-200 0-60 27-109 90-109 12 0 121 0 200 99 6 8 8 10 13 10 6 0 12-7 12-13z"/><path stroke-width="10" id="q" d="M469 273c0-146-135-284-268-284-93 0-160 70-160 169 0 142 134 284 268 284 90 0 160-65 160-169zm-73 39c0 60-30 108-88 108-28 0-85-15-135-92-32-51-58-159-58-208 0-78 44-109 87-109 46 0 101 34 136 92 38 65 58 170 58 209z"/><path stroke-width="10" id="h" d="M682-928c0-10-8-18-18-18-4 0-8 2-11 4C431-775 226-329 226 64v372c0 393 205 839 427 1006 3 2 7 4 11 4 10 0 18-8 18-18 0-6-3-11-7-14-213-160-361-603-361-978V64c0-375 148-818 361-978 4-3 7-8 7-14z"/><path stroke-width="10" id="r" d="M510 64c0-393-205-839-427-1006-3-2-7-4-11-4-10 0-18 8-18 18 0 6 3 11 7 14C274-754 422-311 422 64v372c0 375-148 818-361 978-4 3-7 8-7 14 0 10 8 18 18 18 4 0 8-2 11-4 222-167 427-613 427-1006V64z"/></defs><g stroke="currentColor" fill="currentColor" stroke-width="0" transform="scale(1 -1)"><use xlink:href="#a"/><use transform="scale(.707)" xlink:href="#b" x="1018" y="-213"/><use xlink:href="#c" x="1454"/><use xlink:href="#d" x="2515"/><use xlink:href="#e" x="3505"/><use xlink:href="#f" x="4511"/><use xlink:href="#g" x="5167"/><g transform="translate(5672)"><use xlink:href="#h"/><g transform="translate(897 708)"><use xlink:href="#i"/><use xlink:href="#j" x="783"/><use xlink:href="#k" x="1257"/><use xlink:href="#l" x="1607"/><use xlink:href="#m" x="2212"/><use xlink:href="#n" x="2606"/><use xlink:href="#o" x="3252"/></g><g transform="translate(1302 -750)"><use xlink:href="#p"/><use xlink:href="#q" x="438"/><use xlink:href="#j" x="928"/><use xlink:href="#m" x="1402"/><use xlink:href="#n" x="1796"/><use xlink:href="#o" x="2442"/></g><use xlink:href="#r" x="4710"/></g></g></svg>