<svg xmlns="http://www.w3.org/2000/svg" xmlns:xlink="http://www.w3.org/1999/xlink" width="352" height="41pt" viewBox="0 0 264 41"><defs><symbol overflow="visible" id="a"><path d="M6.625-2.844c0-.515-.203-1-.531-1.265-.313-.25-.766-.391-1.594-.516v.266c.688-.25 1.063-.438 1.453-.75.531-.485.86-1.125.86-1.735 0-.984-1.094-1.687-2.016-1.687-.594 0-1.203.031-1.797.031-.61 0-1.203-.016-1.938-.047l-.078.61.813.03c.281 0 .266-.03.266.188 0 .172-.047.547-.11.907L.922-.782C.89-.577.875-.624.25-.531L.125.048C.672.016 1.047 0 1.406 0c.64 0 1.266.031 1.922.031.563 0 1.219-.156 1.781-.5.954-.562 1.516-1.469 1.516-2.375zm-1.328.188c0 1.234-.734 1.984-1.922 1.984-.25 0-.594-.015-.984-.047-.079-.015-.22-.015-.25-.031l.562-3.313h.906c1.235 0 1.688.375 1.688 1.407zm.219-3.985c0 1.266-.75 1.891-2.235 1.891h-.453l.531-3.016c.22 0 .532-.062.844-.062.969 0 1.313.297 1.313 1.187zm0 0"/></symbol><symbol overflow="visible" id="b"><path d="M4.14-1.234l-.171-.422-.438.312c-.64.453-1.11.657-1.531.657-.578 0-.781-.313-.781-1.047 0-.313.031-.61.078-.844l.86-.219c.202-.047.515-.172.827-.297C4-3.547 4.61-4.219 4.61-4.954c0-.562-.53-1.077-1.14-1.077-.781 0-2.188.843-2.672 1.61C.437-3.845.03-2.313.03-1.47.031-.547.703.125 1.563.125 2.25.125 3-.235 4.171-1.188zm-.702-3.532c0 .516-.266.954-.891 1.25a5.596 5.596 0 0 1-1.125.375l.062-.265c.188-.797.391-1.219.72-1.516.218-.219.515-.344.812-.344.343 0 .421.11.421.5zm1.265-3.359c0-.188-.36-.5-.594-.5-.109 0-.359.11-.5.25L1.781-6.578l.11.234h.421l2.016-1.25c.25-.156.375-.36.375-.531zm0 0"/></symbol><symbol overflow="visible" id="c"><path d="M4.813-1.953h-.36l-.312.844c-.094.218-.079.171-.329.171-.265 0-.53-.078-.796-.14-.391-.078-.797-.14-1.032-.14-.375 0-.703.077-1.14.25l.094.234 4.078-4.61.093-.484-.25-.25-.375.36c-.125.124-.14.14-.296.14-.407 0-1.032-.094-1.61-.25-.312-.094-.625-.203-.953-.203-.203 0-.438.047-.844.156L.328-4.187h.516l.36-.704c.124-.03.234-.046.39-.046s.297.015.531.062c.406.078.719.125.969.125.437 0 .812-.11 1.203-.313l-.203-.203L-.172-.422l.203.594c.5-.406.735-.484 1.157-.484.296 0 .625.046 1.25.203.718.171 1.093.234 1.406.234.156 0 .25-.016.719-.14.14-.844.25-1.25.406-1.938zm0 0"/></symbol><symbol overflow="visible" id="d"><path d="M2.969-1.25l-.172-.297-.453.297c-.36.234-.5.313-.625.313-.078 0-.016.03-.016-.11 0-.11 0-.203.078-.469l.922-3.64c.047-.203.063-.313.063-.422 0-.203-.22-.453-.422-.453-.266 0-.797.281-1.703.922l-.407.296.188.485.547-.36c.344-.218.375-.234.484-.234.11 0 .047-.031.047.11 0 .109-.047.359-.094.53L.625-1.405c-.11.375-.156.672-.156.922 0 .28.265.593.5.593.312 0 .844-.296 2.078-1.218zm.344-6.406c0-.282-.313-.61-.563-.61-.36 0-.844.516-.844.922 0 .297.328.625.625.625.375 0 .781-.484.781-.937zm0 0"/></symbol><symbol overflow="visible" id="e"><path d="M4.14-1.234l-.171-.422-.438.312c-.64.453-1.11.657-1.531.657-.578 0-.781-.313-.781-1.047 0-.313.031-.61.078-.844l.86-.219c.202-.047.515-.172.827-.297C4-3.547 4.61-4.219 4.61-4.954c0-.562-.53-1.077-1.14-1.077-.781 0-2.188.843-2.672 1.61C.437-3.845.03-2.313.03-1.47.031-.547.703.125 1.563.125 2.25.125 3-.235 4.171-1.188zm-.702-3.532c0 .516-.266.954-.891 1.25a5.596 5.596 0 0 1-1.125.375l.062-.265c.188-.797.391-1.219.72-1.516.218-.219.515-.344.812-.344.343 0 .421.11.421.5zm0 0"/></symbol><symbol overflow="visible" id="f"><path d="M4.531-4.5c.032-.453.094-.828.203-1.39-.28-.126-.328-.141-.39-.141-.36 0-.844.328-1.266.937-.406.594-.86 1.25-1.172 1.907h.282L2.5-4.704c.063-.25.14-.531.14-.813 0-.234-.218-.515-.406-.515-.25 0-.812.297-1.703.922l-.39.296.187.485.547-.36c.328-.218.375-.234.469-.234.125 0 .062-.031.062.125 0 .703-.515 3.156-1.015 4.75l.25.172c.296-.094.562-.156.953-.203l.328-1.563c.219-.984.453-1.53.984-2.203.406-.531.625-.75.89-.75.188 0 .204.032.36.235h.36zm0 0"/></symbol><symbol overflow="visible" id="g"><path d="M4.203-7.828a.735.735 0 0 1-.187-.14c-.063-.063-.11-.126-.22-.329-1.593 1.61-2.5 3.266-2.5 4.781v.797c0 1.516.907 3.172 2.5 4.781.11-.203.157-.265.22-.328.062-.062.125-.109.312-.203C2.875.063 2.281-1.344 2.281-2.719v-.797c0-1.39.594-2.78 2.047-4.25zm0 0"/></symbol><symbol overflow="visible" id="h"><path d="M6.234-1.25l-.171-.297-.454.297c-.343.219-.5.313-.625.313-.078 0-.03.03-.03-.11 0-.047.015-.187.03-.234l.782-3.297c.093-.344.14-.688.14-.89 0-.266-.265-.563-.5-.563-.5 0-1.437.5-2.14 1.156-.454.422-.797.828-1.407 1.703l.235.094.453-1.938c.047-.203.078-.343.078-.484 0-.25-.234-.531-.406-.531-.266 0-.828.312-1.703.922l-.391.296.172.485.547-.36c.437-.28.39-.265.469-.265.14 0 .078 0 .078.172 0 .61-.5 2.922-.985 4.656l.172.25c.36-.094.625-.172 1.016-.234.234-1.625.468-2.313 1-3.125.656-1.016 1.453-1.72 1.984-1.72.125 0 .063-.015.063.157 0 .219-.032.469-.141.86l-.61 2.53c-.109.438-.156.72-.156.907 0 .297.266.61.5.61.313 0 .829-.282 2.079-1.22zm0 0"/></symbol><symbol overflow="visible" id="i"><path d="M2.703-1.531L2.47-1.75c-.36.125-.563.203-1.328.406C1.047-.328.78.344.016 1.625l.312.25.61-.281C1.905.328 2.405-.516 2.75-1.47zm0 0"/></symbol><symbol overflow="visible" id="j"><path d="M3.703-5.516c-.453.047-.86.063-1.156.063.172-.984.297-1.578.531-2.25l-.25-.328a7.16 7.16 0 0 1-1.094.531l-.296 2.031c-.391.203-.704.328-1.063.407l-.047.406h1l-.64 3.25C.625-1.11.53-.813.53-.5c0 .297.266.61.5.61.422 0 .922-.282 1.86-1.032.218-.172.14-.125.437-.36l-.25-.437-.672.469c-.36.25-.484.313-.625.313-.093 0-.031.046-.031-.11 0-.297.156-1.234.516-3l.14-.61h1.266l.203-.89zm0 0"/></symbol><symbol overflow="visible" id="k"><path d="M3.766-2.719v-.797c0-1.515-.907-3.171-2.516-4.78-.11.202-.156.265-.203.327-.063.063-.125.11-.313.203 1.438 1.47 2.032 2.86 2.032 4.25v.797c0 1.375-.594 2.781-2.032 4.25.188.094.25.14.313.203.047.063.094.125.203.329C2.86.452 3.766-1.204 3.766-2.72zm0 0"/></symbol><symbol overflow="visible" id="l"><path d="M8.266-4.078a1.419 1.419 0 0 1-.047-.36c0-.109.015-.234.062-.484h-7.5c.063.25.063.375.063.484 0 .125 0 .235-.063.5h7.5zm0 2.625a1.332 1.332 0 0 1-.047-.36c0-.109.015-.234.062-.484h-7.5c.063.25.063.375.063.485 0 .125 0 .25-.063.5h7.5zm0 0"/></symbol><symbol overflow="visible" id="n"><path d="M13.938 2.344h-.61l-.094.937c-.093.922-.156.86-3.625.86H2.531l5.11-7.672-4.72-7.453h5.767c3.343 0 3.578-.032 3.624.53l.094 1.126h.75a16.115 16.115 0 0 1-.062-1.281c0-.36.015-.61.062-1.266l-8.984.047-3.281-.047-.079.563 5.313 8.39L.812 5.063v.578l7.344-.063 5.828.063c0-1.344.016-2.407.094-3.297zm0 0"/></symbol><symbol overflow="visible" id="r"><path d="M7.063-17.313c-.063-.046-.125-.093-.188-.156-.063-.047-.11-.11-.219-.312C3.47-14.594 1.563-10.328 1.563-5.5v4.766c0 4.828 1.906 9.093 5.093 12.28.11-.202.157-.265.219-.327.063-.047.125-.11.313-.203C4.14 7.953 2.796 3.89 2.796-.734V-5.5c0-4.64 1.344-8.688 4.39-11.766zm0 0"/></symbol><symbol overflow="visible" id="s"><path d="M2.969-1.25l-.172-.297-.453.297c-.36.234-.5.313-.625.313-.078 0-.016.03-.016-.11 0-.11 0-.203.078-.469l.922-3.64c.047-.203.063-.313.063-.422 0-.203-.22-.453-.422-.453-.266 0-.797.281-1.703.922l-.407.296.188.485.547-.36c.344-.218.375-.234.484-.234.11 0 .047-.031.047.11 0 .109-.047.359-.094.53L.625-1.405c-.11.375-.156.672-.156.922 0 .28.265.593.5.593.312 0 .844-.296 2.078-1.218zm.344-6.406c0-.282-.313-.61-.563-.61-.36 0-.844.516-.844.922 0 .297.328.625.625.625.375 0 .781-.484.781-.937zm0 0"/></symbol><symbol overflow="visible" id="t"><path d="M6.531-.734V-5.5c0-4.828-1.875-9.094-5.078-12.281-.11.203-.156.265-.219.312-.062.063-.125.11-.312.203 3.062 3.078 4.39 7.125 4.39 11.766v4.766c0 4.625-1.328 8.687-4.39 11.75.187.093.25.156.312.203.063.062.11.125.22.328C4.655 8.359 6.53 4.094 6.53-.734zm0 0"/></symbol><symbol overflow="visible" id="u"><path d="M18.39 1.328c-.093-.016-.171-.031-.25-.047-.078-.031-.062-.031-.265-.203-.36.922-1.11 1.063-2.453 1.063h-3.5c-1.422 0-2.438.375-2.735.75-.312-.375-1.312-.75-2.734-.75H2.97C1.609 2.14.844 2 .516 1.094.28 1.25.312 1.25.234 1.28c-.078.016-.156.032-.406.063.344.968 1.484 1.687 3.14 1.687h3.485c1.578 0 2.36.063 2.36.938.218-.078.296-.078.374-.078.094 0 .157 0 .376.078 0-.875.78-.938 2.359-.938h3.5c1.64 0 2.765-.719 3.125-1.687zm0 0"/></symbol><symbol overflow="visible" id="D"><path d="M2.516-3.125c0-.422-.407-.844-.844-.844-.422 0-.86.422-.86.844 0 .438.438.86.86.86.437 0 .844-.422.844-.86zm0 0"/></symbol><symbol overflow="visible" id="E"><path d="M5.125-.094v-.484l-.75-.047c-.656-.031-.64-.031-.64-.656v-7.172l-.313-.125c-.875.469-1.61.781-2.86 1.219l.125.718h.235l1.547-.687.031-.016c.063 0-.047-.015-.047.266v5.797c0 .625.016.625-.64.656L1-.578v.625L3.125 0l2 .047zm0 0"/></symbol><symbol overflow="visible" id="F"><path d="M8.266-2.766a1.332 1.332 0 0 1-.047-.359c0-.11.015-.234.062-.484h-7.5c.063.25.063.375.063.484 0 .125 0 .25-.063.5h7.5zm0 0"/></symbol><symbol overflow="visible" id="H"><path d="M10.563 2.11h-5.11C2.531 2.11.875 2.062.516 1.046c-.235.156-.204.172-.282.203-.078.016-.156.031-.406.063.36 1.015 2.36 1.921 5.625 1.921h5.25V2.11zm0 0"/></symbol><symbol overflow="visible" id="I"><path d="M10.578 3.094v-.985H-.14v1.125h10.72zm0 0"/></symbol><symbol overflow="visible" id="J"><path d="M21.281 3.094v-.985h-5.484c-2.86 0-4.735.563-5.235 1.125-.5-.562-2.343-1.125-5.203-1.125h-5.5v1.125h5.5c3.188 0 4.844-.062 4.844.938.203-.078.297-.078.375-.078.078 0 .156 0 .375.078 0-1 1.656-.938 4.844-.938h5.484zm0 0"/></symbol><symbol overflow="visible" id="K"><path d="M10.578 1.297c-.078-.016-.172-.031-.234-.047-.094-.031-.063-.047-.281-.203-.376 1.016-2.032 1.062-4.938 1.062H-.141v1.125h5.266c3.25 0 5.25-.906 5.625-1.921zm0 0"/></symbol><symbol overflow="visible" id="N"><path d="M8.484-4.719c0-.687-.437-1.312-.875-1.312-.156 0-.406.093-.5.187l-.671.625.265.453c.25-.171.266-.171.375-.171.328 0 .375.14.375.625 0 1.734-1.016 3.578-2.031 3.578-.36 0-.469-.344-.469-1 0-.563.11-1.344.25-1.86l.625-2.234-.187-.219-1.032.313-.375 1.89c-.14.735-.28 1.125-.625 1.766-.484.89-.828 1.344-1.187 1.344-.406 0-.563-.329-.563-1.016 0-1.422.454-2.5 1.704-3.906l-.235-.407c-.281.141-.437.188-.765.188-.5 0-.985-.047-1.47-.094-.155 0-.25.032-.5.125-.155.328-.327.844-.515 1.64h.5l.266-.64c.094-.203.203-.203.484-.203.219 0 .438.031.672.031.25 0 .406-.015.422-.015.062-.11-.063.015-.188.172C1.156-3.61.72-2.656.72-1.641c0 .985.562 1.766 1.187 1.766.766 0 1.485-.688 2.375-2.39l-.234-.094c-.11.515-.156.812-.156 1.093 0 .75.5 1.391 1.03 1.391.97 0 2.36-1.328 3.095-2.969.265-.594.468-1.406.468-1.875zm0 0"/></symbol><symbol overflow="visible" id="O"><path d="M6.453 1.516a.614.614 0 0 1-.234.015c-.094-.015-.078.016-.375-.125-.047.657-.172.75-.625.75h-1c-.453 0-.89.203-.985.36-.109-.157-.546-.36-1-.36h-1c-.453 0-.593-.094-.64-.75-.297.14-.266.11-.36.125-.078.016-.156 0-.39-.031.078.922.64 1.484 1.39 1.484h1c.438 0 .579.094.625.735.204-.078.282-.078.375-.078.079 0 .141 0 .344.062.063-.625.203-.719.64-.719h1c.75 0 1.298-.562 1.376-1.484zm0 0"/></symbol><symbol overflow="visible" id="m"><path d="M5.156-.984L5-1.234 4.594-1c-.282.172-.39.234-.469.234-.078 0 .016.063.016-.046 0-.032-.032-.032.015-.157l.64-2.453c.063-.265.11-.515.11-.656 0-.203-.265-.453-.453-.453-.406 0-1.187.375-1.766.86-.359.312-.624.608-1.124 1.25l.265.093.36-1.422c.046-.156.062-.266.062-.36 0-.187-.234-.421-.375-.421-.203 0-.703.218-1.39.687l-.344.219.172.438.5-.297c.343-.204.265-.188.343-.188.11 0 .016-.047.016.094 0 .453-.406 2.156-.813 3.453l.172.219c.313-.078.531-.125.875-.188.203-1.218.375-1.703.813-2.312.531-.75 1.125-1.266 1.562-1.266.11 0 .016-.047.016.078 0 .172-.031.344-.11.64l-.5 1.876c-.093.328-.124.531-.124.672 0 .219.265.484.453.484.234 0 .687-.219 1.718-.922zm0 0"/></symbol><symbol overflow="visible" id="o"><path d="M2.531-.984l-.172-.25L1.953-1c-.281.188-.375.234-.469.234-.078 0 .016.063.016-.046 0-.079.016-.157.063-.344l.75-2.703a.983.983 0 0 0 .062-.313c0-.156-.234-.36-.39-.36-.22 0-.688.204-1.407.688l-.344.219.172.438.5-.297c.266-.172.266-.172.36-.172.093 0 0-.047 0 .062 0 .063-.047.25-.079.39l-.64 2.126c-.094.281-.125.5-.125.672 0 .219.266.484.453.484.25 0 .703-.234 1.734-.922zm.281-4.72c0-.218-.296-.5-.5-.5-.296 0-.734.423-.734.735 0 .219.313.485.563.485.296 0 .671-.391.671-.72zm0 0"/></symbol><symbol overflow="visible" id="p"><path d="M6.172-3.063a1.376 1.376 0 0 1-.031-.265c0-.078.015-.172.062-.39H.516c.046.218.062.312.062.39 0 .094-.015.187-.062.406h5.687zm0 1.954c-.016-.094-.031-.172-.031-.266 0-.094.015-.172.062-.39H.516c.046.218.062.296.062.39 0 .094-.015.172-.062.406h5.687zm0 0"/></symbol><symbol overflow="visible" id="q"><path d="M4.734-3.375c0-1.938-.78-3-2.109-3C1.141-6.375.219-5.141.219-3c0 1.031.234 2.031.578 2.453.344.438 1 .719 1.594.719 1.453 0 2.343-1.281 2.343-3.547zm-1.125.438c0 1.89-.203 2.53-1.093 2.53-.938 0-1.188-.75-1.188-2.921 0-1.86.203-2.469 1.125-2.469.938 0 1.156.734 1.156 2.86zm0 0"/></symbol><symbol overflow="visible" id="v"><path d="M4.422-3.469c0-.328-.14-.781-.25-.906-.063-.078-.297-.156-.438-.156-.234 0-.53.062-.796.187-.5.235-.922.547-1.532 1.25L1.672-3l.844-3.578-.235-.203c-.547.25-.89.328-1.703.406l-.11.438h.657c.234 0 .172-.063.172.078 0 .062-.016.156-.016.218L.297-.766C.28-.734.28-.703.28-.672c0 .344.625.766 1.156.766.36 0 .97-.203 1.375-.469.922-.61 1.61-1.922 1.61-3.094zm-1.016.219c0 .563-.14 1.234-.437 1.813-.313.609-.594.859-1.11.859-.453 0-.546-.078-.546-.453 0-.219.046-.469.125-.797.187-.703.375-1.031.765-1.406.328-.297.719-.516 1-.516.25 0 .203.063.203.5zm0 0"/></symbol><symbol overflow="visible" id="w"><path d="M4.203-3.063c0-.828-.625-1.468-1.437-1.468-.407 0-.97.187-1.407.468-.78.516-1.265 1.5-1.265 2.579 0 .937.594 1.578 1.39 1.578.532 0 1.22-.266 1.657-.64.593-.516 1.062-1.626 1.062-2.516zm-1.047.141c0 .844-.25 1.688-.672 2.156-.171.188-.312.266-.609.266-.563 0-.734-.266-.734-.969 0-1 .328-2 .796-2.343.125-.11.25-.126.485-.126.578 0 .734.266.734 1.016zm0 0"/></symbol><symbol overflow="visible" id="x"><path d="M7.344-.984l-.157-.25L6.766-1c-.266.172-.375.234-.47.234-.062 0 .032.063.032-.046 0-.079.016-.157.063-.344l.718-2.64c.047-.142.079-.282.079-.36 0-.157-.25-.375-.407-.375-.281 0-.765.187-1.343.578-.625.39-.954.703-1.422 1.312l.265.094.282-1.203c.046-.188.078-.313.078-.375 0-.172-.25-.406-.407-.406-.296 0-.843.218-1.375.593-.437.313-.625.485-1.25 1.266l.266.11.313-1.188c.046-.14.062-.266.062-.375 0-.172-.234-.406-.375-.406-.203 0-.688.218-1.39.687l-.344.219.172.438.5-.297c.343-.204.265-.188.343-.188.11 0 .016-.047.016.094 0 .453-.406 2.156-.797 3.422l.063.265.906-.187.234-1.016c.234-.984.453-1.406.984-1.937.407-.406.735-.64 1-.64.063 0-.046-.063-.046.062 0 .312-.22 1.312-.61 2.859l-.156.61.125.234.875-.172.234-1.063c.141-.718.422-1.28.86-1.718.531-.532.906-.813 1.218-.813.063 0-.03-.047-.03.094 0 .219-.016.328-.25 1.11l-.407 1.39c-.094.25-.14.469-.14.672 0 .219.265.484.452.484.25 0 .704-.219 1.735-.922zm0 0"/></symbol><symbol overflow="visible" id="y"><path d="M4.156-.89L4-1.298c-.25.188-.25.188-.297.219-.312.25-.344.297-.484.297-.094 0 0 .062 0-.094 0-.031 0-.063.015-.078l.891-3.406-.234-.188-.36.172C3.187-4.5 3-4.531 2.734-4.531c-.265 0-.468.047-.718.156-.61.266-1.047.578-1.282 1.016C.313-2.58-.03-1.422-.03-.72c0 .375.312.813.484.813.203 0 .672-.219 1.031-.5.407-.328.797-.75 1.329-1.438l-.266-.093-.281 1.125a1.58 1.58 0 0 0-.063.453c0 .203.25.453.39.453.22 0 .735-.281 1.595-.938zm-1.14-2.907c-.22.938-.36 1.313-.672 1.766C1.813-1.297 1.313-.781 1-.781c-.125 0-.031.015-.031-.235 0-.562.25-1.546.594-2.28.234-.517.312-.548.78-.548.22 0 .407.047.657.125zm0 0"/></symbol><symbol overflow="visible" id="z"><path d="M2.625-6.625l-.188-.156c-.546.25-.89.328-1.718.406l-.094.438h.656c.219 0 .157-.063.157.062 0 .11-.032.313-.047.422L.453-1.297c-.125.453-.172.703-.172.89 0 .22.266.485.438.485.25 0 .719-.234 1.734-.922l-.234-.39L1.813-1c-.297.188-.375.234-.47.234-.077 0 .016.063.016-.046 0-.11.032-.22.063-.329l1.25-5.437zm0 0"/></symbol><symbol overflow="visible" id="A"><path d="M3.078-4.156c-.36.031-.687.047-.875.047.125-.704.219-1.141.406-1.641l-.218-.281c-.36.187-.5.25-.938.406L1.22-4.109a5.102 5.102 0 0 1-.86.312l-.046.344h.796L.594-1.078C.547-.86.469-.641.469-.406c0 .219.265.484.453.484.344 0 .765-.219 1.531-.765.172-.125.11-.094.375-.282l-.234-.39L2-1c-.297.188-.36.234-.469.234-.078 0 .016.063.016-.046 0-.22.125-.922.422-2.22l.093-.421h1.032l.172-.735zm0 0"/></symbol><symbol overflow="visible" id="B"><path d="M3.86-3.719c0-.406-.47-.812-.97-.812-.624 0-1.796.625-2.187 1.187C.422-2.906.078-1.75.078-1.125.078-.437.656.094 1.36.094c.547 0 1.188-.281 2.141-1l-.172-.406-.422.25c-.5.343-.86.484-1.203.484-.469 0-.594-.203-.594-.735 0-.234.032-.453.063-.609l.656-.156c.172-.031.422-.125.672-.219.828-.328 1.36-.86 1.36-1.422zm-1.032.14c0 .392-.172.688-.687.907-.266.11-.61.219-.86.266l.047-.156c.156-.594.297-.876.563-1.094a.954.954 0 0 1 .64-.235c.266 0 .297.032.297.313zm0 0"/></symbol><symbol overflow="visible" id="C"><path d="M3.797-4.484c-.11-.047-.14-.047-.188-.047-.312 0-.718.25-1.062.687-.328.438-.672.86-.922 1.344l.266.094.265-1.11c.047-.203.11-.406.11-.609 0-.172-.235-.406-.375-.406-.204 0-.672.218-1.391.687l-.344.219.172.438.5-.297c.266-.157.266-.172.344-.172.11 0 .016-.047.016.062 0 .516-.422 2.344-.829 3.531l.25.157c.235-.078.454-.11.797-.172l.282-1.172c.171-.734.343-1.11.78-1.61.329-.39.485-.546.688-.546.14 0 .125.015.266.172h.36c.03-.47.093-.75.171-1.172zm0 0"/></symbol><symbol overflow="visible" id="G"><path d="M6.172-2.078c-.016-.094-.031-.188-.031-.266 0-.094.015-.187.062-.406H.516c.046.219.062.313.062.406 0 .078-.015.172-.062.39h5.687zm0 0"/></symbol><symbol overflow="visible" id="L"><path d="M4.734-3.422c0-.594-.375-1.11-.718-1.11-.407 0-1.032.266-1.547.673-.375.328-.578.546-.922 1.062l.266.11.218-1.063c.031-.14.047-.281.047-.39 0-.173-.219-.391-.36-.391-.202 0-.687.218-1.405.687l-.329.219.157.438.5-.297c.28-.157.28-.172.375-.172.078 0 0-.047 0 .078 0 .062-.016.25-.047.328L.406-.203l-.469 2.14-.093.375.203.157c.25-.078.437-.125.89-.188L1.313.016 1.282 0c.25.078.405.094.515.094.531 0 1.75-.672 2.156-1.235.406-.546.781-1.609.781-2.28zm-1.015.14c0 .72-.328 1.673-.844 2.345-.203.25-.39.359-.781.359-.297 0-.438-.031-.64-.14l.171-.876c.203-1.14 1.094-2.156 1.89-2.156.25 0 .204.063.204.469zm0 0"/></symbol><symbol overflow="visible" id="M"><path d="M4.922-4.422l-.172-.125c-.313.11-.547.156-.875.188L3.5-3.063c-.11.407-.406.97-.734 1.391-.329.453-.688.813-.891.813-.219 0-.047-.297-.047-.407l.14-1.718c.032-.282.048-.61.048-.86 0-.406-.22-.687-.391-.687-.125 0-.36.093-.828.39l-.89.547.265.39.64-.358c.047-.032.063-.063.141-.063.25 0 .047.313.047.453L.828-1.016l-.015.344c0 .375.343.766.578.766.359 0 1.28-.781 2-1.782l-.266-.109L2.656-.28c-.5 1.578-.828 2.094-1.5 2.094-.328 0-.453-.11-.453-.422 0-.047.016-.11.047-.266l-.297-.11-.594.376c-.015.14-.015.187-.015.234 0 .375.531.813.969.813 1.015 0 2.218-1.22 2.796-2.86l1.375-3.953zm0 0"/></symbol><symbol overflow="visible" id="P"><path d="M6.984-3.531c0-.516-.39-1-.75-1-.125 0-.359.062-.437.14l-.547.485.25.375c.234-.14.219-.125.297-.125.266 0 .266.062.266.422 0 1.28-.782 2.625-1.594 2.625-.282 0-.344-.22-.344-.704 0-.421.094-1.015.203-1.39l.516-1.672-.188-.172-.875.234L3.47-2.89c-.125.547-.203.813-.485 1.282-.39.671-.64 1-.937 1-.344 0-.406-.22-.406-.735 0-1.047.359-1.812 1.375-2.875l-.204-.343c-.265.109-.39.125-.656.125-.39 0-.797-.032-1.187-.047-.125-.016-.203.015-.422.093-.14.235-.297.657-.453 1.266h.5l.219-.5c.078-.156.125-.11.343-.11.188 0 .36.016.547.016.203 0 .328-.015.266 0 .11-.156 0-.062-.094.047C1-2.734.625-2 .625-1.25c0 .734.5 1.344 1 1.344.625 0 1.234-.516 1.953-1.782l-.281-.109c-.078.39-.11.625-.11.828 0 .547.438 1.063.876 1.063.78 0 1.953-1.032 2.546-2.235.22-.453.375-1.046.375-1.39zm0 0"/></symbol><symbol overflow="visible" id="Q"><path d="M5-4.016l-.063-.109a3.64 3.64 0 0 1-.984.11c-.11-.204-.328-.313-.562-.407a2.296 2.296 0 0 0-.641-.11c-.406 0-1 .204-1.422.485a1.983 1.983 0 0 0-.875 1.625c0 .672.594 1.219 1.344 1.219.078 0 .187 0 .297-.016l-.125-.218-.39.328c-.157.14-.298.39-.298.515 0 .094.094.281.063.25-.438.125-.86.297-1.219.578-.328.25-.547.688-.547 1.047 0 .625.828 1.157 1.89 1.157 1.235 0 2.485-.766 2.485-1.5 0-.313-.25-.735-.672-1.047l-.578-.438c-.328-.234-.406-.297-.406-.469 0-.078.015-.078.156-.25.031-.03.031-.03.031-.046.86-.188 1.704-1.063 1.704-1.844 0-.094 0-.172-.032-.328l.094.14h.078c.156 0 .266-.015.61-.047l.109-.53zm-2 5.25c0 .454-.516.704-1.313.704-.78 0-1.187-.25-1.187-.782C.5.813.625.61.938.36c.25-.187.359-.234.812-.343l.672.468c.437.313.578.454.578.75zm.188-4.39c0 .922-.313 1.406-.985 1.406-.594 0-.75-.234-.75-.938 0-.843.344-1.28 1.047-1.28.563 0 .688.187.688.812zm0 0"/></symbol><symbol overflow="visible" id="R"><path d="M4.734-.984l-.156-.25L4.172-1c-.281.172-.375.234-.469.234-.078 0 .016.063.016-.046 0-.079.015-.157.078-.344l.61-2.266c.062-.234.109-.515.109-.656 0-.203-.25-.453-.438-.453-.328 0-1.016.328-1.64.797-.329.25-.485.421-.938.937l-.203.219.266.094.968-4.094-.25-.203c-.531.25-.875.328-1.703.406l-.094.438h.657c.218 0 .156-.063.156.078 0 .078 0 .156-.016.218L.875-3.578C.609-2.234.235-.703.015-.125l.172.219.86-.188c.172-1.125.297-1.562.578-2.031.422-.719 1.328-1.547 1.719-1.547.14 0 .062-.047.062.063 0 .156-.062.5-.14.796l-.5 1.735c-.079.312-.125.516-.125.672 0 .219.265.484.453.484.25 0 .703-.219 1.719-.922zm0 0"/></symbol></defs><use xlink:href="#a" x=".01" y="17.457"/><use xlink:href="#b" x="7.315" y="17.457"/><use xlink:href="#c" x="11.965" y="17.457"/><use xlink:href="#d" x="17.273" y="17.457"/><use xlink:href="#e" x="20.597" y="17.457"/><use xlink:href="#f" x="25.247" y="17.457"/><use xlink:href="#g" x="29.897" y="17.457"/><use xlink:href="#h" x="34.966" y="17.457"/><use xlink:href="#i" x="41.613" y="17.457"/><use xlink:href="#j" x="46.586" y="17.457"/><use xlink:href="#k" x="50.627" y="17.457"/><use xlink:href="#l" x="59.02" y="17.457"/><use xlink:href="#m" x="76.109" y="4.334"/><use xlink:href="#n" x="71.432" y="17.457"/><use xlink:href="#o" x="71.563" y="30.623"/><use xlink:href="#p" x="74.467" y="30.623"/><use xlink:href="#q" x="81.196" y="30.623"/><use xlink:href="#r" x="105.037" y="17.457"/><use xlink:href="#h" x="113.154" y="8.849"/><use xlink:href="#s" x="114.72" y="25.42"/><use xlink:href="#t" x="120.997" y="17.457"/><use xlink:href="#u" x="107.882" y="28.91"/><use xlink:href="#v" x="88.321" y="40.756"/><use xlink:href="#o" x="92.969" y="40.756"/><use xlink:href="#m" x="95.873" y="40.756"/><use xlink:href="#w" x="101.415" y="40.756"/><use xlink:href="#x" x="105.877" y="40.756"/><use xlink:href="#o" x="113.562" y="40.756"/><use xlink:href="#y" x="116.466" y="40.756"/><use xlink:href="#z" x="120.928" y="40.756"/><use xlink:href="#A" x="126.772" y="40.756"/><use xlink:href="#B" x="130.163" y="40.756"/><use xlink:href="#C" x="134.094" y="40.756"/><use xlink:href="#x" x="138.14" y="40.756"/><use xlink:href="#D" x="148.486" y="17.457"/><use xlink:href="#g" x="157.978" y="17.457"/><use xlink:href="#E" x="163.047" y="17.457"/><use xlink:href="#F" x="171.679" y="17.457"/><use xlink:href="#j" x="183.431" y="17.457"/><use xlink:href="#k" x="187.472" y="17.457"/><use xlink:href="#m" x="192.541" y="13.918"/><use xlink:href="#G" x="198.083" y="13.918"/><use xlink:href="#o" x="204.812" y="13.918"/><use xlink:href="#D" x="210.871" y="17.457"/><use xlink:href="#j" x="216.873" y="17.457"/><use xlink:href="#o" x="220.916" y="13.918"/><use xlink:href="#H" x="157.985" y="19.418"/><g><use xlink:href="#I" x="166.282" y="19.418"/></g><g><use xlink:href="#I" x="172.403" y="19.418"/></g><g><use xlink:href="#J" x="180.58" y="19.418"/></g><g><use xlink:href="#I" x="199.458" y="19.418"/></g><g><use xlink:href="#I" x="205.567" y="19.418"/></g><g><use xlink:href="#K" x="213.744" y="19.418"/></g><g><use xlink:href="#L" x="157.479" y="31.467"/><use xlink:href="#w" x="162.481" y="31.467"/><use xlink:href="#z" x="166.943" y="31.467"/><use xlink:href="#M" x="169.803" y="31.467"/></g><g><use xlink:href="#m" x="174.867" y="31.467"/><use xlink:href="#w" x="180.41" y="31.467"/><use xlink:href="#x" x="184.872" y="31.467"/><use xlink:href="#o" x="192.557" y="31.467"/></g><g><use xlink:href="#y" x="195.461" y="31.467"/><use xlink:href="#z" x="199.923" y="31.467"/></g><g><use xlink:href="#A" x="205.766" y="31.467"/><use xlink:href="#B" x="209.157" y="31.467"/><use xlink:href="#C" x="213.088" y="31.467"/></g><g><use xlink:href="#x" x="217.134" y="31.467"/></g><g><use xlink:href="#D" x="227.481" y="17.457"/></g><g><use xlink:href="#N" x="244.206" y="17.457"/></g><g><use xlink:href="#o" x="252.847" y="20.231"/></g><g><use xlink:href="#O" x="247.004" y="20.311"/></g><g><use xlink:href="#P" x="236.474" y="31.905"/><use xlink:href="#B" x="243.619" y="31.905"/><use xlink:href="#o" x="247.55" y="31.905"/></g><g><use xlink:href="#Q" x="250.445" y="31.905"/></g><g><use xlink:href="#R" x="255.589" y="31.905"/><use xlink:href="#A" x="260.591" y="31.905"/></g></svg>