<svg xmlns="http://www.w3.org/2000/svg" xmlns:xlink="http://www.w3.org/1999/xlink" width="227pt" height="31pt" viewBox="0 0 227 31"><defs><symbol overflow="visible" id="a"><path d="M8.031-8h1.844l-.063.281a.997.997 0 0 0-.312.11.849.849 0 0 0-.188.187 1.276 1.276 0 0 0-.156.36 9.535 9.535 0 0 0-.203.812l-1 4.547a6.64 6.64 0 0 0-.11.547 4.215 4.215 0 0 0-.015.36c0 .179.04.304.125.374.094.074.242.121.453.14L8.344 0H6l.063-.281a.872.872 0 0 0 .328-.125.49.49 0 0 0 .187-.219 1.95 1.95 0 0 0 .14-.344c.052-.133.118-.394.204-.781l.781-3.531c.102-.489.227-.973.375-1.453H8c-.125.23-.402.699-.828 1.406L4.5-.938h-.625l-.5-3.765c-.063-.531-.14-1.242-.234-2.14h-.11c-.136.874-.289 1.687-.453 2.437l-.594 2.703a4.09 4.09 0 0 0-.125.906c0 .18.04.305.125.375.094.074.243.121.454.14L2.374 0H.328l.063-.281a.872.872 0 0 0 .328-.125.7.7 0 0 0 .187-.219 1.95 1.95 0 0 0 .14-.344c.04-.133.11-.394.204-.781l.984-4.516c.04-.164.07-.32.094-.468.031-.157.047-.313.047-.47 0-.187-.047-.312-.14-.374-.094-.07-.243-.117-.438-.14L1.859-8h2.094l.672 5.688zm0 0"/></symbol><symbol overflow="visible" id="b"><path d="M3.313-7.906l-.266 1.14H2l.281-1.14zM1.421-3.953c.094-.383.14-.676.14-.875 0-.176-.042-.297-.125-.36-.085-.062-.25-.097-.5-.109L1-5.609l1.438-.047h.343l-.844 3.765c-.085.387-.125.672-.125.86 0 .156.02.273.063.343.05.075.133.11.25.11a.68.68 0 0 0 .375-.14c.133-.102.32-.286.563-.548l.328.329c-.387.398-.7.667-.938.812a1.47 1.47 0 0 1-.797.219.756.756 0 0 1-.61-.281C.899-.376.829-.61.829-.891c0-.3.05-.68.156-1.14zm0 0"/></symbol><symbol overflow="visible" id="c"><path d="M2.61-4.188c.374-.519.738-.898 1.093-1.14.352-.25.711-.375 1.078-.375.282 0 .52.027.719.078l-.281 1.313h-.61a1.438 1.438 0 0 0-.093-.375c-.043-.094-.094-.157-.157-.188a.41.41 0 0 0-.218-.063c-.149 0-.305.063-.47.188-.167.117-.355.305-.562.563-.199.261-.359.511-.484.75-.125.23-.23.53-.313.906L1.766 0H.75l.844-3.719c.05-.226.082-.406.093-.531.02-.133.032-.242.032-.328 0-.156-.028-.27-.078-.344-.043-.07-.121-.11-.235-.11a.659.659 0 0 0-.39.157 4.824 4.824 0 0 0-.547.531L.14-4.672c.351-.375.648-.64.89-.797.25-.156.52-.234.813-.234.238 0 .43.086.578.25.144.156.219.367.219.625 0 .2-.04.402-.11.61zm0 0"/></symbol><symbol overflow="visible" id="d"><path d="M2.563.094c-.618 0-1.09-.164-1.422-.5-.336-.344-.5-.832-.5-1.469 0-.313.046-.672.14-1.078a4.079 4.079 0 0 1 .61-1.453c.289-.414.644-.735 1.062-.953a2.827 2.827 0 0 1 1.375-.344c.625 0 1.098.172 1.422.516.332.343.5.835.5 1.468 0 .461-.078.95-.234 1.469-.157.512-.375.945-.657 1.297a2.675 2.675 0 0 1-.984.781 3.138 3.138 0 0 1-1.313.266zm-.891-1.719c0 .43.086.746.266.953.175.211.445.313.812.313.375 0 .707-.172 1-.516.3-.344.535-.82.703-1.438.176-.624.266-1.171.266-1.64 0-.426-.086-.742-.25-.953-.157-.219-.414-.328-.766-.328-.406 0-.762.171-1.062.515-.305.344-.543.836-.72 1.469-.167.625-.25 1.168-.25 1.625zm0 0"/></symbol><symbol overflow="visible" id="e"><path d="M4.906-1.172a4.522 4.522 0 0 1-1.156.953c-.387.211-.84.313-1.36.313-.562 0-1-.172-1.312-.516C.766-.766.61-1.25.61-1.875c0-.414.07-.863.22-1.344.155-.476.382-.906.687-1.281.312-.383.68-.68 1.109-.89a3.07 3.07 0 0 1 1.36-.313c.468 0 .816.101 1.046.297.239.187.36.484.36.89 0 .668-.313 1.168-.938 1.5-.617.325-1.539.485-2.766.485a4.372 4.372 0 0 0-.062.765c0 .407.078.704.234.891.157.188.414.281.782.281.363 0 .691-.078.984-.234.29-.156.598-.395.922-.719zm-3.125-1.86a6.27 6.27 0 0 0 1.422-.14c.395-.094.695-.242.906-.453.22-.207.329-.492.329-.86 0-.226-.06-.41-.172-.546-.118-.133-.282-.203-.5-.203-.399 0-.778.199-1.141.593-.367.399-.648.934-.844 1.61zm0 0"/></symbol><symbol overflow="visible" id="f"><path d="M4.11-1.5c-.376.555-.735.96-1.079 1.219-.336.25-.687.375-1.062.375-.43 0-.762-.16-1-.485-.242-.332-.36-.789-.36-1.375C.61-2.43.74-3.07 1-3.687c.27-.626.633-1.114 1.094-1.47a2.47 2.47 0 0 1 1.547-.546c.238 0 .457.027.656.078.195.043.406.125.625.25l.297-1.36c.031-.124.054-.265.078-.421a2.09 2.09 0 0 0 .047-.407.414.414 0 0 0-.078-.265.322.322 0 0 0-.188-.125c-.074-.031-.215-.05-.422-.063l.078-.312 1.47-.047h.343L5.094-1.891c-.094.387-.14.672-.14.86 0 .156.023.273.077.343.051.075.133.11.25.11a.61.61 0 0 0 .36-.14c.132-.102.328-.286.578-.548l.328.329c-.367.375-.672.64-.922.796-.242.157-.5.235-.781.235a.748.748 0 0 1-.578-.235c-.149-.164-.22-.379-.22-.64 0-.219.04-.446.126-.688zm.39-2.063c.05-.28.078-.546.078-.796 0-.313-.062-.536-.187-.672-.125-.133-.34-.203-.641-.203-.406 0-.766.164-1.078.484-.313.324-.563.762-.75 1.313a5.146 5.146 0 0 0-.266 1.624c0 .407.051.711.157.907.113.199.3.297.562.297.125 0 .25-.024.375-.079.125-.05.254-.132.39-.25.133-.113.266-.253.391-.421.133-.176.254-.348.36-.516.113-.164.218-.363.312-.594.094-.238.172-.52.234-.844zm0 0"/></symbol><symbol overflow="visible" id="g"><path d="M.875-4.25v-.781h7.219v.781zm0 2.422v-.781h7.219v.78zm7.469-1.594zm0 0"/></symbol><symbol overflow="visible" id="h"><path d="M4.344 11.156v.563H1.328v-30.297h3.016v.562H2.469v29.172zm0 0"/></symbol><symbol overflow="visible" id="i"><path d="M5.328-4.094c.363.149.645.356.844.625.195.262.297.563.297.906 0 .524-.121.965-.36 1.329-.242.367-.601.664-1.078.89-.48.23-1.18.344-2.093.344H.328l.078-.281a.872.872 0 0 0 .328-.125.7.7 0 0 0 .188-.219 1.95 1.95 0 0 0 .14-.344c.04-.133.102-.394.188-.781l1-4.516c.082-.382.125-.691.125-.921 0-.188-.047-.317-.14-.391-.087-.07-.227-.117-.422-.14L1.875-8h2.89c.594 0 1.063.063 1.407.188.351.125.613.308.781.546.164.23.25.528.25.891 0 .512-.156.96-.469 1.344-.312.375-.777.668-1.39.875zm-1.61-.312c.458 0 .821-.035 1.095-.11.269-.082.507-.218.718-.406a1.72 1.72 0 0 0 .453-.625c.094-.226.141-.492.141-.797 0-.164-.031-.32-.094-.468a.822.822 0 0 0-.297-.375 1.444 1.444 0 0 0-.5-.22 2.783 2.783 0 0 0-.734-.077c-.344 0-.664.007-.953.015L2.89-4.406zM2.048-.546c.226.023.52.03.875.03.594 0 1.035-.066 1.328-.203.3-.133.555-.375.766-.719.218-.343.328-.765.328-1.265 0-.395-.133-.692-.39-.89-.25-.196-.638-.298-1.157-.298H2.766zm0 0"/></symbol><symbol overflow="visible" id="k"><path d="M4.906-3.047V.328h-.843v-3.375H.874v-.781h3.188v-3.375h.843v3.375h3.188v.781zm0 0"/></symbol><symbol overflow="visible" id="l"><path d="M2.063-2.969c0 1.367.218 2.492.656 3.375.445.895 1.117 1.492 2.015 1.797l-.14.453C3.457 2.352 2.582 1.703 1.969.703c-.606-.988-.907-2.191-.907-3.61 0-1.405.301-2.609.907-3.609.613-1 1.488-1.648 2.625-1.953l.172.453c-.918.305-1.602.891-2.047 1.766-.438.867-.656 1.96-.656 3.281zm0 0"/></symbol><symbol overflow="visible" id="m"><path d="M.875-3.047v-.781h7.219v.781zm0 0"/></symbol><symbol overflow="visible" id="n"><path d="M4.438 0L4.5-.281c.238-.02.41-.11.516-.266.113-.164.171-.453.171-.86 0-.144-.007-.312-.015-.5l-.031-.75H2.562l-.328.579a4.718 4.718 0 0 0-.343.703 1.612 1.612 0 0 0-.094.5c0 .336.195.531.594.594L2.328 0H-.078l.062-.281a.803.803 0 0 0 .344-.14c.113-.083.227-.204.344-.36.125-.164.297-.438.515-.813l3.75-6.5h.891l.422 6.531c.02.313.05.56.094.735.05.168.117.293.203.375a.77.77 0 0 0 .39.172L6.875 0zM2.813-3.172h2.296l-.093-1.875a38.468 38.468 0 0 1-.032-.969 28.865 28.865 0 0 1-.015-.843h-.063zm0 0"/></symbol><symbol overflow="visible" id="o"><path d="M2.906-2.969c0-1.32-.219-2.414-.656-3.281A3.389 3.389 0 0 0 .219-8.016l.156-.453c1.145.305 2.02.953 2.625 1.953.613 1 .922 2.204.922 3.61 0 1.418-.309 2.62-.922 3.61-.605 1-1.48 1.648-2.625 1.952l-.14-.453C1.14 1.898 1.812 1.301 2.25.406c.438-.883.656-2.008.656-3.375zm0 0"/></symbol><symbol overflow="visible" id="q"><path d="M.266 11.719v-.563H2.14v-29.172H.266v-.562H3.28v30.297zm0 0"/></symbol><symbol overflow="visible" id="r"><path d="M4.11-.938c.195 0 .35-.007.468-.03a.85.85 0 0 0 .281-.126.55.55 0 0 0 .172-.203c.04-.094.094-.234.157-.422h.484L5.578 0H.75v-.281c.176-.406.406-.82.688-1.25.28-.438.687-.946 1.218-1.532.446-.5.77-.878.969-1.14.219-.281.379-.52.484-.719.114-.207.192-.398.235-.578.05-.188.078-.367.078-.547 0-.3-.047-.562-.14-.781a1.13 1.13 0 0 0-.438-.531c-.188-.125-.43-.188-.719-.188-.742 0-1.234.406-1.484 1.219H.937v-1.125c.47-.227.907-.39 1.313-.484.414-.102.79-.157 1.125-.157.719 0 1.266.164 1.64.485.376.312.563.773.563 1.375 0 .21-.023.402-.062.578-.043.18-.11.351-.204.515a3.255 3.255 0 0 1-.359.547c-.148.2-.308.399-.484.594-.18.2-.485.531-.922 1-.75.793-1.297 1.48-1.64 2.063zm0 0"/></symbol><symbol overflow="visible" id="j"><path d="M2.328-2.125a57.17 57.17 0 0 1-.14-.625c-.043-.188-.079-.344-.11-.469a1.783 1.783 0 0 0-.11-.328.829.829 0 0 0-.093-.187.324.324 0 0 0-.11-.11.337.337 0 0 0-.14-.031.4.4 0 0 0-.14.031.29.29 0 0 0-.126.078c-.043.043-.093.102-.156.172-.055.074-.11.168-.172.281L.688-3.53C.8-3.707.905-3.86 1-3.984c.102-.125.203-.223.297-.297a.945.945 0 0 1 .297-.157c.101-.03.222-.046.36-.046.155 0 .284.039.39.109a.68.68 0 0 1 .25.297c.07.137.129.305.172.5.039.2.086.43.14.687h.063l.453-.609c.125-.164.238-.305.344-.422.101-.125.191-.223.265-.297a.939.939 0 0 1 .235-.156.87.87 0 0 1 .234-.078c.082-.02.176-.031.281-.031.145 0 .282.027.407.078l-.22.86h-.374c-.012-.126-.059-.188-.14-.188a.613.613 0 0 0-.11.015.553.553 0 0 0-.125.078 1.163 1.163 0 0 0-.188.141 2.996 2.996 0 0 0-.25.25c-.094.105-.203.23-.328.375-.117.148-.25.32-.406.516.082.406.148.73.203.968.063.243.117.43.172.563.05.125.101.21.156.25.05.043.113.062.188.062.05 0 .097-.004.14-.015a.263.263 0 0 0 .125-.078c.04-.04.086-.098.14-.172.063-.07.13-.172.204-.297l.344.219c-.137.187-.258.343-.36.468a1.481 1.481 0 0 1-.28.297.893.893 0 0 1-.298.125 1.039 1.039 0 0 1-.328.047.973.973 0 0 1-.312-.047.459.459 0 0 1-.22-.172.87.87 0 0 1-.124-.203 1.8 1.8 0 0 1-.11-.265 9.15 9.15 0 0 1-.093-.297c-.024-.102-.043-.203-.063-.297-.011-.094-.023-.172-.031-.234l-.031-.172h-.047c-.18.242-.336.449-.469.625-.125.168-.242.312-.344.437-.105.125-.199.23-.28.313a1.393 1.393 0 0 1-.25.203.904.904 0 0 1-.266.078C.727.067.633.078.53.078A.942.942 0 0 1 .141 0l.203-.86h.375c.008.137.054.204.14.204.04-.008.07-.016.094-.016a.36.36 0 0 0 .11-.062c.039-.032.093-.07.156-.125.062-.063.14-.145.234-.25.102-.114.223-.25.36-.407.144-.164.316-.367.515-.609zm0 0"/></symbol><symbol overflow="visible" id="p"><path d="M2.422-.031a85.238 85.238 0 0 1-.266-1.438c-.074-.406-.14-.75-.203-1.031a8.579 8.579 0 0 0-.156-.703 2.408 2.408 0 0 0-.156-.406c-.043-.102-.09-.172-.141-.204a.21.21 0 0 0-.14-.062c-.055 0-.106.008-.157.016a.429.429 0 0 0-.14.078 1.45 1.45 0 0 0-.141.172 6.962 6.962 0 0 0-.203.296L.375-3.53c.133-.188.254-.336.36-.453a1.57 1.57 0 0 1 .312-.297c.101-.07.207-.125.312-.157.114-.03.235-.046.36-.046.101 0 .191.011.265.03a.607.607 0 0 1 .22.11.553.553 0 0 1 .155.172c.051.074.102.168.157.281.02.063.046.157.078.282.031.117.062.25.094.406a39.518 39.518 0 0 1 .188 1.125l.093.64c.031.22.054.434.078.641a7.36 7.36 0 0 0 .594-.875c.175-.289.328-.566.453-.828.125-.27.218-.508.281-.719.063-.219.094-.39.094-.515 0-.133-.04-.227-.11-.282-.062-.05-.171-.082-.328-.093l.047-.282h1.25l.156.25c-.293.73-.636 1.434-1.03 2.11A16.894 16.894 0 0 1 3.14-.094c-.22.258-.418.477-.594.656a8.174 8.174 0 0 1-.469.485 3.055 3.055 0 0 1-.39.328c-.125.082-.25.148-.375.203-.118.05-.231.086-.344.11a5 5 0 0 1-.36.046c-.074 0-.156-.011-.25-.03a1.793 1.793 0 0 1-.25-.048L.33.688h.405v.03c0 .196.079.298.235.298.219 0 .437-.086.656-.25.219-.168.484-.434.797-.797zm0 0"/></symbol></defs><use xlink:href="#a" x="-.004" y="19.134"/><use xlink:href="#b" x="10.457" y="19.134"/><use xlink:href="#c" x="14.629" y="19.134"/><use xlink:href="#c" x="20.583" y="19.134"/><use xlink:href="#d" x="26.537" y="19.134"/><use xlink:href="#c" x="33.172" y="19.134"/><use xlink:href="#e" x="39.125" y="19.134"/><use xlink:href="#f" x="45.318" y="19.134"/><use xlink:href="#g" x="55.946" y="19.134"/><use xlink:href="#h" x="68.182" y="19.137"/><use xlink:href="#i" x="73.293" y="11.386"/><use xlink:href="#j" x="80.088" y="13.826"/><use xlink:href="#k" x="88.614" y="11.386"/><use xlink:href="#l" x="100.199" y="11.386"/><use xlink:href="#i" x="105.16" y="11.386"/><use xlink:href="#j" x="111.959" y="13.826"/><use xlink:href="#m" x="120.486" y="11.386"/><use xlink:href="#n" x="132.071" y="11.386"/><use xlink:href="#j" x="139.645" y="13.826"/><use xlink:href="#o" x="145.515" y="11.386"/><use xlink:href="#i" x="72.771" y="25.831"/><use xlink:href="#p" x="79.565" y="28.272"/><use xlink:href="#k" x="88.44" y="25.831"/><use xlink:href="#l" x="100.025" y="25.831"/><use xlink:href="#i" x="104.986" y="25.831"/><use xlink:href="#p" x="111.785" y="28.272"/><use xlink:href="#m" x="120.66" y="25.831"/><use xlink:href="#n" x="132.245" y="25.831"/><use xlink:href="#p" x="139.819" y="28.272"/><use xlink:href="#o" x="146.037" y="25.831"/><use xlink:href="#q" x="150.999" y="19.137"/><use xlink:href="#g" x="158.908" y="19.134"/><use xlink:href="#h" x="171.161" y="19.137"/><use xlink:href="#r" x="176.097" y="11.386"/><use xlink:href="#i" x="182.72" y="11.386"/><use xlink:href="#j" x="189.512" y="13.826"/><use xlink:href="#m" x="198.038" y="11.386"/><use xlink:href="#n" x="209.623" y="11.386"/><use xlink:href="#j" x="217.198" y="13.826"/><use xlink:href="#r" x="175.749" y="25.831"/><use xlink:href="#i" x="182.372" y="25.831"/><use xlink:href="#p" x="189.164" y="28.272"/><g><use xlink:href="#m" x="198.038" y="25.831"/></g><g><use xlink:href="#n" x="209.623" y="25.831"/></g><g><use xlink:href="#p" x="217.198" y="28.272"/></g><g><use xlink:href="#q" x="223.416" y="19.137"/></g></svg>