<svg xmlns:xlink="http://www.w3.org/1999/xlink" width="63.333ex" height="2.833ex" style="vertical-align: -0.833ex; margin-left: 0ex; margin-right: 0ex; margin-bottom: 0ex; margin-top: 1px;" viewBox="0 -874.1 27287.9 1248.3" xmlns="http://www.w3.org/2000/svg">
<defs>
<path stroke-width="10" id="E1-MJMAIN-2E" d="M78 60Q78 84 95 102T138 120Q162 120 180 104T199 61Q199 36 182 18T139 0T96 17T78 60Z"></path>
<path stroke-width="10" id="E1-MJMAIN-3D" d="M56 347Q56 360 70 367H707Q722 359 722 347Q722 336 708 328L390 327H72Q56 332 56 347ZM56 153Q56 168 72 173H708Q722 163 722 153Q722 140 707 133H70Q56 140 56 153Z"></path>
<path stroke-width="10" id="E1-MJMAIN-28" d="M94 250Q94 319 104 381T127 488T164 576T202 643T244 695T277 729T302 750H315H319Q333 750 333 741Q333 738 316 720T275 667T226 581T184 443T167 250T184 58T225 -81T274 -167T316 -220T333 -241Q333 -250 318 -250H315H302L274 -226Q180 -141 137 -14T94 250Z"></path>
<path stroke-width="10" id="E1-MJSZ1-28" d="M152 251Q152 646 388 850H416Q422 844 422 841Q422 837 403 816T357 753T302 649T255 482T236 250Q236 124 255 19T301 -147T356 -251T403 -315T422 -340Q422 -343 416 -349H388Q359 -325 332 -296T271 -213T212 -97T170 56T152 251Z"></path>
<path stroke-width="10" id="E1-MJMATHI-6E" d="M21 287Q22 293 24 303T36 341T56 388T89 425T135 442Q171 442 195 424T225 390T231 369Q231 367 232 367L243 378Q304 442 382 442Q436 442 469 415T503 336T465 179T427 52Q427 26 444 26Q450 26 453 27Q482 32 505 65T540 145Q542 153 560 153Q580 153 580 145Q580 144 576 130Q568 101 554 73T508 17T439 -10Q392 -10 371 17T350 73Q350 92 386 193T423 345Q423 404 379 404H374Q288 404 229 303L222 291L189 157Q156 26 151 16Q138 -11 108 -11Q95 -11 87 -5T76 7T74 17Q74 30 112 180T152 343Q153 348 153 366Q153 405 129 405Q91 405 66 305Q60 285 60 284Q58 278 41 278H27Q21 284 21 287Z"></path>
<path stroke-width="10" id="E1-MJMATHI-6B" d="M121 647Q121 657 125 670T137 683Q138 683 209 688T282 694Q294 694 294 686Q294 679 244 477Q194 279 194 272Q213 282 223 291Q247 309 292 354T362 415Q402 442 438 442Q468 442 485 423T503 369Q503 344 496 327T477 302T456 291T438 288Q418 288 406 299T394 328Q394 353 410 369T442 390L458 393Q446 405 434 405H430Q398 402 367 380T294 316T228 255Q230 254 243 252T267 246T293 238T320 224T342 206T359 180T365 147Q365 130 360 106T354 66Q354 26 381 26Q429 26 459 145Q461 153 479 153H483Q499 153 499 144Q499 139 496 130Q455 -11 378 -11Q333 -11 305 15T277 90Q277 108 280 121T283 145Q283 167 269 183T234 206T200 217T182 220H180Q168 178 159 139T145 81T136 44T129 20T122 7T111 -2Q98 -11 83 -11Q66 -11 57 -1T48 16Q48 26 85 176T158 471L195 616Q196 629 188 632T149 637H144Q134 637 131 637T124 640T121 647Z"></path>
<path stroke-width="10" id="E1-MJMAIN-29" d="M60 749L64 750Q69 750 74 750H86L114 726Q208 641 251 514T294 250Q294 182 284 119T261 12T224 -76T186 -143T145 -194T113 -227T90 -246Q87 -249 86 -250H74Q66 -250 63 -250T58 -247T55 -238Q56 -237 66 -225Q221 -64 221 250T66 725Q56 737 55 738Q55 746 60 749Z"></path>
<path stroke-width="10" id="E1-MJSZ1-29" d="M305 251Q305 -145 69 -349H56Q43 -349 39 -347T35 -338Q37 -333 60 -307T108 -239T160 -136T204 27T221 250T204 473T160 636T108 740T60 807T35 839Q35 850 50 850H56H69Q197 743 256 566Q305 425 305 251Z"></path>
<path stroke-width="10" id="E1-MJMAIN-22C5" d="M78 250Q78 274 95 292T138 310Q162 310 180 294T199 251Q199 226 182 208T139 190T96 207T78 250Z"></path>
<path stroke-width="10" id="E1-MJMATHI-74" d="M26 385Q19 392 19 395Q19 399 22 411T27 425Q29 430 36 430T87 431H140L159 511Q162 522 166 540T173 566T179 586T187 603T197 615T211 624T229 626Q247 625 254 615T261 596Q261 589 252 549T232 470L222 433Q222 431 272 431H323Q330 424 330 420Q330 398 317 385H210L174 240Q135 80 135 68Q135 26 162 26Q197 26 230 60T283 144Q285 150 288 151T303 153H307Q322 153 322 145Q322 142 319 133Q314 117 301 95T267 48T216 6T155 -11Q125 -11 98 4T59 56Q57 64 57 83V101L92 241Q127 382 128 383Q128 385 77 385H26Z"></path>
<path stroke-width="10" id="E1-MJMAIN-2212" d="M84 237T84 250T98 270H679Q694 262 694 250T679 230H98Q84 237 84 250Z"></path>
<path stroke-width="10" id="E1-MJMAIN-31" d="M213 578L200 573Q186 568 160 563T102 556H83V602H102Q149 604 189 617T245 641T273 663Q275 666 285 666Q294 666 302 660V361L303 61Q310 54 315 52T339 48T401 46H427V0H416Q395 3 257 3Q121 3 100 0H88V46H114Q136 46 152 46T177 47T193 50T201 52T207 57T213 61V578Z"></path>
<path stroke-width="10" id="E1-MJMAIN-2B" d="M56 237T56 250T70 270H369V420L370 570Q380 583 389 583Q402 583 409 568V270H707Q722 262 722 250T707 230H409V-68Q401 -82 391 -82H389H387Q375 -82 369 -68V230H70Q56 237 56 250Z"></path>
</defs>
<g stroke="currentColor" fill="currentColor" stroke-width="0" transform="matrix(1 0 0 -1 0 0)">
<g transform="translate(167,0)">
<g transform="translate(-11,0)">
 <use xlink:href="#E1-MJMAIN-2E" x="0" y="0"></use>
 <use xlink:href="#E1-MJMAIN-2E" x="449" y="0"></use>
 <use xlink:href="#E1-MJMAIN-2E" x="899" y="0"></use>
</g>
<g transform="translate(2171,0)">
 <use xlink:href="#E1-MJMAIN-3D" x="0" y="0"></use>
<g transform="translate(1060,0)">
 <use xlink:href="#E1-MJSZ1-28" x="0" y="-1"></use>
<g transform="translate(463,0)">
 <use transform="scale(0.707)" xlink:href="#E1-MJMATHI-6E" x="0" y="627"></use>
 <use transform="scale(0.707)" xlink:href="#E1-MJMATHI-6B" x="39" y="-488"></use>
</g>
 <use xlink:href="#E1-MJSZ1-29" x="890" y="-1"></use>
</g>
<g transform="translate(2581,0)">
 <use xlink:href="#E1-MJSZ1-28"></use>
 <use xlink:href="#E1-MJMATHI-6B" x="463" y="0"></use>
 <use xlink:href="#E1-MJMAIN-22C5" x="1211" y="0"></use>
<g transform="translate(1716,0)">
 <use xlink:href="#E1-MJMATHI-74" x="0" y="0"></use>
<g transform="translate(366,362)">
 <use transform="scale(0.707)" xlink:href="#E1-MJMATHI-6B" x="0" y="0"></use>
 <use transform="scale(0.707)" xlink:href="#E1-MJMAIN-2212" x="526" y="0"></use>
 <use transform="scale(0.707)" xlink:href="#E1-MJMAIN-31" x="1309" y="0"></use>
</g>
</g>
 <use xlink:href="#E1-MJMAIN-28" x="3465" y="0"></use>
 <use xlink:href="#E1-MJMAIN-31" x="3859" y="0"></use>
 <use xlink:href="#E1-MJMAIN-2212" x="4586" y="0"></use>
 <use xlink:href="#E1-MJMATHI-74" x="5591" y="0"></use>
<g transform="translate(5957,0)">
 <use xlink:href="#E1-MJMAIN-29" x="0" y="0"></use>
<g transform="translate(394,362)">
 <use transform="scale(0.707)" xlink:href="#E1-MJMATHI-6E" x="0" y="0"></use>
 <use transform="scale(0.707)" xlink:href="#E1-MJMAIN-2212" x="605" y="0"></use>
 <use transform="scale(0.707)" xlink:href="#E1-MJMATHI-6B" x="1388" y="0"></use>
</g>
</g>
 <use xlink:href="#E1-MJMAIN-2B" x="8027" y="0"></use>
<g transform="translate(9032,0)">
 <use xlink:href="#E1-MJMATHI-74" x="0" y="0"></use>
 <use transform="scale(0.707)" xlink:href="#E1-MJMATHI-6B" x="517" y="513"></use>
</g>
 <use xlink:href="#E1-MJMAIN-22C5" x="10092" y="0"></use>
 <use xlink:href="#E1-MJMAIN-28" x="10597" y="0"></use>
 <use xlink:href="#E1-MJMAIN-31" x="10991" y="0"></use>
 <use xlink:href="#E1-MJMAIN-2212" x="11719" y="0"></use>
 <use xlink:href="#E1-MJMATHI-74" x="12724" y="0"></use>
<g transform="translate(13090,0)">
 <use xlink:href="#E1-MJMAIN-29" x="0" y="0"></use>
<g transform="translate(394,362)">
 <use transform="scale(0.707)" xlink:href="#E1-MJMATHI-6E" x="0" y="0"></use>
 <use transform="scale(0.707)" xlink:href="#E1-MJMAIN-2212" x="605" y="0"></use>
 <use transform="scale(0.707)" xlink:href="#E1-MJMATHI-6B" x="1388" y="0"></use>
 <use transform="scale(0.707)" xlink:href="#E1-MJMAIN-2212" x="1914" y="0"></use>
 <use transform="scale(0.707)" xlink:href="#E1-MJMAIN-31" x="2697" y="0"></use>
</g>
</g>
 <use xlink:href="#E1-MJMAIN-22C5" x="16070" y="0"></use>
 <use xlink:href="#E1-MJMAIN-28" x="16575" y="0"></use>
 <use xlink:href="#E1-MJMATHI-6E" x="16969" y="0"></use>
 <use xlink:href="#E1-MJMAIN-2212" x="17797" y="0"></use>
 <use xlink:href="#E1-MJMATHI-6B" x="18802" y="0"></use>
 <use xlink:href="#E1-MJMAIN-29" x="19328" y="0"></use>
 <use xlink:href="#E1-MJMAIN-22C5" x="19944" y="0"></use>
 <use xlink:href="#E1-MJMAIN-2212" x="20449" y="0"></use>
 <use xlink:href="#E1-MJMAIN-31" x="21232" y="0"></use>
 <use xlink:href="#E1-MJSZ1-29" x="21737" y="-1"></use>
</g>
</g>
</g>
</g>
</svg>