<svg xmlns:xlink="http://www.w3.org/1999/xlink" width="61.5ex" height="21.167ex" style="vertical-align:-10ex;margin-bottom:1px;margin-top:1px" viewBox="0 -4822.8 26480 9145.7" xmlns="http://www.w3.org/2000/svg"><defs><path stroke-width="10" id="a" d="M516 683L372 105c-4-17-6-24-6-48 0-20 3-46 30-46 41 0 59 59 76 124 3 14 4 18 14 18 3 0 12 0 12-10 0 0-13-63-30-99-16-32-39-55-74-55-48 0-83 33-91 75-60-71-110-75-130-75C95-11 40 55 40 149c0 146 124 293 241 293 45 0 74-27 92-64l60 237 3 20c0 10-2 17-50 17-15 0-24 0-24 12 0 13 6 18 14 19 17 2 112 11 127 11 13 0 13-11 13-11zM361 332c0 6-14 88-79 88-40 0-85-37-116-96-23-46-55-169-55-219 0-39 14-94 64-94 28 0 69 16 113 71 15 17 15 19 20 37l50 196c1 5 3 11 3 17z"/><path stroke-width="10" id="b" d="M527 376c0-40-32-58-54-58-27 0-38 19-38 35 0 24 20 49 48 54-21 13-45 13-50 13-70 0-93-92-99-118l-34-137c-11-44-17-66-17-88 0-34 16-66 55-66 32 0 100 24 133 131 2 7 4 11 13 11 3 0 12 0 12-10 0-25-57-154-160-154-60 0-96 39-108 76-3-6-39-76-105-76-44 0-94 20-94 66 0 32 25 58 55 58 15 0 37-8 37-35 0-28-22-49-47-54 21-13 44-13 50-13 44 0 79 42 95 104 37 140 54 207 54 238 0 58-35 67-54 67-34 0-100-25-134-131-2-9-5-11-13-11 0 0-12 0-12 10 0 25 57 154 161 154 29 0 83-10 108-76 12 23 47 76 105 76 34 0 93-14 93-66z"/><path stroke-width="10" id="c" d="M332-238c0-5-5-10-10-10-2 0-4 1-6 2-110 83-215 283-215 454v84c0 171 105 371 215 454 2 1 4 2 6 2 5 0 10-5 10-10 0-3-2-6-4-8-104-78-173-278-173-438v-84c0-160 69-360 173-438 2-2 4-5 4-8z"/><path stroke-width="10" id="d" d="M590 304c40-158-75-315-241-315-17 0-25 1-34 2 9-142 12-175 11-183-4-23-26-26-31-26-10 0-30 6-36 28-1 5 0 7 0 20L271-2C157 23 73 96 50 190c-24 96 16 241 44 241 10 0 14-6 15-10 0 0 1-4-5-13-43-69-38-179-31-207 18-72 88-128 201-148 11 195 23 389 168 389 75 0 129-60 148-138zm-22-22c-12 48-53 102-122 102-89 0-143-96-142-224l7-108c1-3 2-4 14-4 8-1 10-1 18-1 154 0 253 122 225 235z"/><path stroke-width="10" id="e" d="M288 208c0-171-105-371-215-454-2-1-4-2-6-2-5 0-10 5-10 10 0 3 2 6 4 8 104 78 173 278 173 438v84c0 160-69 360-173 438-2 2-4 5-4 8 0 5 5 10 10 10 2 0 4-1 6-2 110-83 215-283 215-454v-84z"/><path stroke-width="10" id="g" d="M722 347c0-11-9-20-20-20H76c-11 0-20 9-20 20s9 20 20 20h626c11 0 20-9 20-20zm0-194c0-11-9-20-20-20H76c-11 0-20 9-20 20s9 20 20 20h626c11 0 20-9 20-20z"/><path stroke-width="10" id="h" d="M704 666c0-3-1-13-2-17l-27-174c-2-15-4-23-15-23-9 0-12 7-12 13 0 3 2 15 3 19 4 26 8 65 8 80 0 78-45 82-146 82-21 0-54 0-63-2-12-3-16-9-23-37L294 76c-4-15-4-21-4-21 0-16 8-19 37-22 26-2 39-2 64-2 26 0 34 0 34-11 0-20-12-20-22-20-28 0-58 2-87 2l-83 1-85-1c-27 0-55-2-82-2-6 0-17 0-17 12 0 19 6 19 42 19 107 0 110 11 119 48l134 534c1 3 4 15 4 21 0 8 0 12-28 12h-39c-148 0-174-18-228-173-6-16-7-21-17-21-7 0-12 5-12 11 0 0 5 16 6 18l60 176c7 19 8 20 32 20h555c17 0 27 0 27-11z"/><path stroke-width="10" id="i" d="M722 250c0-11-9-20-20-20H76c-11 0-20 9-20 20s9 20 20 20h626c11 0 20-9 20-20z"/><path stroke-width="10" id="j" d="M754 532c0-112-139-216-281-216H303L241 66c-1-6-3-11-3-17 0-18 28-18 65-18 19 0 28 0 28-11 0-20-13-20-20-20-21 0-43 2-65 2l-64 1L55 0c-3 0-15 0-15 12 0 19 11 19 28 19 79 0 81 8 91 47l134 537c3 12 4 15 4 19 0 11-6 14-22 16-12 1-30 2-43 2-20 0-29 0-29 12 0 19 11 19 30 19h324c131 0 197-74 197-151zm-93 24c0 69-53 96-136 96h-96c-43 0-45-3-54-38l-68-272h141c44 0 104 8 154 53 39 36 59 122 59 161z"/><path stroke-width="10" id="k" d="M419 0c-35 3-122 3-162 3S130 3 95 0v31h32c90 0 93 12 93 48v518c-52-26-111-26-131-26v31c32 0 120 0 182 64 23 0 23-2 23-26V79c0-37 3-48 93-48h32V0z"/><path stroke-width="10" id="l" d="M471 165H371V78c0-36 2-47 76-47h21V0c-41 3-94 3-136 3s-94 0-135-3v31h21c74 0 76 11 76 47v87H28v31l307 469c8 12 11 12 20 12 16 0 16-6 16-26V196h100v-31zm-171 31v373L56 196h244z"/><path stroke-width="10" id="m" d="M457 171c0-102-91-193-213-193C135-22 42 44 42 135c0 44 32 58 56 58 29 0 56-20 56-56 0-38-31-60-66-55C123 23 198 6 241 6c44 0 113 29 113 165 0 98-37 166-119 166h-44c-17 0-24 0-24 11 0 10 7 11 15 12 7 0 31 2 39 3 25 1 59 4 89 52 26 44 28 102 28 114 0 90-55 112-96 112-36 0-102-13-133-62 15 0 62 0 62-50 0-29-20-51-51-51-29 0-51 19-51 52 0 76 76 136 177 136 96 0 184-56 184-138 0-79-58-149-140-176 104-21 167-99 167-181z"/><path stroke-width="10" id="n" d="M722 250c0-11-9-20-20-20H409V-63c0-11-9-20-20-20s-20 9-20 20v293H76c-11 0-20 9-20 20s9 20 20 20h293v293c0 11 9 20 20 20s20-9 20-20V270h293c11 0 20-9 20-20z"/><path stroke-width="10" id="o" d="M430 107c0-12-84-118-227-118C99-11 41 68 41 158c0 141 133 284 268 284 71 0 118-37 118-86 0-40-27-64-56-64-19 0-37 11-37 35 0 7 2 24 18 39 14 14 28 14 44 14-14 27-52 40-86 40-55 0-110-43-141-100-34-62-54-159-54-200 0-60 27-109 90-109 12 0 121 0 200 99 6 8 8 10 13 10 6 0 12-7 12-13z"/><path stroke-width="10" id="p" d="M469 273c0-146-135-284-268-284-93 0-160 70-160 169 0 142 134 284 268 284 90 0 160-65 160-169zm-73 39c0 60-30 108-88 108-28 0-85-15-135-92-32-51-58-159-58-208 0-78 44-109 87-109 46 0 101 34 136 92 38 65 58 170 58 209z"/><path stroke-width="10" id="q" d="M420 356c0-39-24-56-46-56s-31 15-31 29c0 22 20 44 48 45-15 39-65 46-90 46-88 0-112-61-112-90 0-45 40-52 76-60 44-9 73-14 100-42 12-12 31-37 31-73 0-45-39-166-201-166-86 0-143 40-143 97 0 45 30 66 56 66 21 0 37-12 37-35 0-28-25-58-63-53 23-53 100-53 114-53 120 0 143 84 143 110 0 55-52 66-104 76-29 6-103 21-103 99 0 44 37 146 169 146 76 0 119-41 119-86z"/><path stroke-width="10" id="r" d="M449 174L421 0H50c0 24 0 26 11 37l192 214c55 62 105 141 105 221 0 82-43 163-134 163-58 0-112-37-135-102 3 1 5 1 13 1 35 0 53-26 53-52 0-41-35-53-52-53-3 0-53 0-53 56 0 89 74 181 187 181 122 0 212-80 212-194 0-100-60-154-216-292L127 77h180c22 0 88 0 95 8 10 15 17 59 22 89h25z"/><path stroke-width="10" id="s" d="M284 625c0-30-30-53-53-53-24 0-38 17-38 36 0 27 27 53 54 53 23 0 37-16 37-36zm9-482c0-9-37-154-131-154-48 0-82 35-82 82 0 21 13 54 23 80 16 43 61 159 69 185 4 10 11 31 11 52 0 32-17 32-25 32-34 0-74-30-101-124-5-16-6-18-16-18 0 0-12 0-12 10 0 9 38 154 132 154 50 0 82-37 82-82 0-19-5-33-13-53-10-27-10-29-22-58l-39-105c-23-61-29-75-29-100 0-23 7-33 24-33 51 0 84 61 102 124 5 15 5 18 15 18 3 0 12 0 12-10z"/><path stroke-width="10" id="t" d="M571 143c0-8-37-154-131-154-47 0-82 35-82 82 0 11 1 23 10 46 16 43 65 171 65 233 0 33-9 70-54 70-95 0-148-91-163-122l-13-50c-5-23-11-45-17-67l-22-90c-6-25-18-72-19-74-7-20-25-28-37-28-15 0-29 9-29 27 0 5 6 28 9 43l58 231c13 52 16 63 16 84 0 33-11 46-31 46-36 0-56-48-73-119-6-22-7-23-17-23 0 0-12 0-12 10 0 4 14 63 30 97 10 18 29 57 75 57s87-31 92-87c17 23 66 87 156 87 72 0 115-40 115-107 0-57-42-167-61-220-9-22-18-46-18-71 0-23 7-33 24-33 49 0 82 56 102 124 5 15 5 18 15 18 3 0 12 0 12-10z"/><path stroke-width="10" id="u" d="M539-632c0-8-6-14-14-14-3 0-6 1-9 2-175 132-337 475-337 776v236c0 301 162 644 337 776 3 1 6 2 9 2 8 0 14-6 14-14 0-5-2-9-5-12-167-125-283-466-283-752V132c0-286 116-627 283-752 3-3 5-7 5-12z"/><path stroke-width="10" id="v" d="M418 132c0-301-162-644-337-776-3-1-6-2-9-2-8 0-14 6-14 14 0 5 2 9 5 12 167 125 283 466 283 752v236c0 286-116 627-283 752-3 3-5 7-5 12 0 8 6 14 14 14 3 0 6-1 9-2 175-132 337-475 337-776V132z"/><path stroke-width="10" id="w" d="M203 1c0-117-80-194-91-194-5 0-10 4-10 11 0 3 0 5 11 16 33 33 68 93 68 167 0 14-2 15-2 15s-2-1-5-3c-10-9-23-13-35-13-33 0-53 26-53 53 0 28 20 53 53 53 39 0 64-39 64-105z"/><path stroke-width="10" id="f" d="M490 404c0-7 0-9-4-23L390-1c-28-113-131-204-234-204-62 0-106 37-106 87 0 49 33 65 56 65 10 0 37-4 37-35 0-19-10-32-20-41-14-12-27-12-43-12 17-39 62-42 76-42 46 0 84 29 110 63 40 53 52 102 65 154-28-28-62-45-101-45-59 0-122 30-122 119 0 47 18 104 58 210 7 19 17 45 17 70 0 32-17 32-25 32-34 0-74-30-101-124-5-16-6-18-16-18 0 0-12 0-12 10 0 9 37 154 132 154 50 0 82-37 82-82 0-20-4-31-20-72-34-88-51-150-51-196 0-37 11-81 62-81 66 0 109 70 113 85l45 180 20 80c4 18 12 49 14 54 9 15 25 21 35 21 15 0 29-9 29-27z"/><path stroke-width="10" id="x" d="M330 420c0-20-10-20-30-20h-94l-74-295c-4-17-6-24-6-48 0-33 10-46 31-46 34 0 87 24 130 128 5 11 6 14 15 14 4 0 12 0 12-10 0-8-57-154-159-154-54 0-92 38-92 92 0 18 4 35 76 319H51c-20 0-28 0-28 12 0 19 10 19 30 19h94l39 159c9 35 37 36 40 36 17 0 29-10 29-27 0-6-5-26-41-168h88c18 0 28 0 28-11z"/><path stroke-width="10" id="y" d="M498 143s-13-63-30-99c-16-32-39-55-74-55-48 0-83 33-91 75-60-71-110-75-130-75C95-11 40 55 40 149c0 146 124 293 241 293 45 0 74-27 92-64 3 22 18 44 42 44 17 0 29-10 29-27 0-4 0-6-7-34l-36-140-22-90c-11-44-13-52-13-74 0-20 3-46 30-46 41 0 59 59 76 124 3 14 4 18 14 18 3 0 12 0 12-10zM361 332c0 6-14 88-79 88-40 0-85-37-116-96-23-46-55-169-55-219 0-39 14-94 64-94 28 0 69 16 113 71 15 17 15 19 20 37l50 196c1 5 3 11 3 17z"/><path stroke-width="10" id="z" d="M576 147c0-8-4-15-11-18-53-27-100-64-139-108-47-54-88-116-107-188-2-5-7-9-13-9s-11 4-13 9C274-95 233-33 186 21c-39 44-86 81-139 108-7 3-11 10-11 18 0 11 9 20 20 20 3 0 6-1 9-2 46-24 88-54 124-89v607c0 11 9 20 20 20s20-9 20-20V32c32-40 58-84 77-132 19 48 45 92 77 132v651c0 11 9 20 20 20s20-9 20-20V76c36 35 78 65 124 89 3 1 6 2 9 2 11 0 20-9 20-20z"/><path stroke-width="10" id="A" d="M1020 1130s0-5-5-20L466-626c-8-24-9-24-42-24L194 152l-68-80-16 15 139 163 215-750 513 1624c4 13 8 26 23 26 12 0 20-9 20-20z"/><path stroke-width="10" id="B" d="M192 53c0-29-24-53-53-53S86 24 86 53s24 53 53 53 53-24 53-53z"/><path stroke-width="10" id="C" d="M1020 1730L466-1224c-5-26-11-26-42-26L193 93 125-39s-14 12-14 16c0 0 1 3 6 13l132 260 216-1255h1l512 2725c3 17 6 30 22 30 12 0 20-9 20-20z"/></defs><g stroke="currentColor" fill="currentColor" stroke-width="0"><g transform="matrix(1 0 0 -1 156 -3456)"><use xlink:href="#a"/><use transform="scale(.707)" xlink:href="#b" x="742" y="-213"/><use xlink:href="#c" x="1033"/><use xlink:href="#d" x="1427"/><use xlink:href="#e" x="2073"/></g><g transform="matrix(1 0 0 -1 213 -1087)"><use xlink:href="#a"/><use transform="scale(.707)" xlink:href="#f" x="742" y="-213"/><use xlink:href="#c" x="975"/><use xlink:href="#d" x="1369"/><use xlink:href="#e" x="2015"/></g><g transform="matrix(1 0 0 -1 664 2765)"><use xlink:href="#a"/><use xlink:href="#c" x="525"/><use xlink:href="#d" x="919"/><use xlink:href="#e" x="1565"/></g><g transform="matrix(1 0 0 -1 2623 -3456)"><use xlink:href="#g" x="277"/><g transform="translate(1338)"><use xlink:href="#h"/><use transform="scale(.707)" xlink:href="#b" x="832" y="-213"/></g><use xlink:href="#i" x="2657"/><g transform="translate(3663)"><use xlink:href="#j"/><use transform="scale(.707)" xlink:href="#b" x="914" y="-213"/></g><use xlink:href="#g" x="5095"/><g transform="translate(6275)"><path d="M0 220h625v60H0z" stroke="none"/><use xlink:href="#k" x="60" y="676"/><use xlink:href="#l" x="60" y="-707"/></g><use xlink:href="#c" x="7021"/><use xlink:href="#m" x="7415"/><use xlink:href="#n" x="8142"/><use xlink:href="#o" x="9148"/><use xlink:href="#p" x="9586"/><use xlink:href="#q" x="10076"/><use xlink:href="#c" x="10550"/><use xlink:href="#d" x="10944"/><use xlink:href="#e" x="11590"/><use xlink:href="#e" x="11984"/><use xlink:href="#i" x="12600"/><use xlink:href="#o" x="13605"/><use xlink:href="#p" x="14043"/><use xlink:href="#q" x="14533"/><use xlink:href="#c" x="15007"/><g transform="translate(15521)"><path d="M0 220h766v60H0z" stroke="none"/><use xlink:href="#d" x="60" y="747"/><use xlink:href="#r" x="130" y="-696"/></g><use xlink:href="#e" x="16407"/><use xlink:href="#g" x="17079"/><use xlink:href="#r" x="18140"/><use xlink:href="#q" x="18645"/><use xlink:href="#s" x="19119"/><g transform="translate(19469)"><use xlink:href="#t"/><use transform="scale(.707)" xlink:href="#l" x="855" y="583"/></g><g transform="translate(20697)"><use xlink:href="#u"/><g transform="translate(722)"><path d="M0 220h766v60H0z" stroke="none"/><use xlink:href="#d" x="60" y="747"/><use xlink:href="#l" x="130" y="-707"/></g><use xlink:href="#v" x="1608"/></g><use xlink:href="#w" x="23406"/></g><g transform="matrix(1 0 0 -1 2623 -1087)"><use xlink:href="#g" x="277"/><g transform="translate(1338)"><use xlink:href="#h"/><use transform="scale(.707)" xlink:href="#f" x="832" y="-213"/></g><use xlink:href="#i" x="2599"/><g transform="translate(3605)"><use xlink:href="#j"/><use transform="scale(.707)" xlink:href="#f" x="914" y="-213"/></g><use xlink:href="#g" x="4979"/><g transform="translate(6159)"><path d="M0 220h625v60H0z" stroke="none"/><use xlink:href="#k" x="60" y="676"/><use xlink:href="#l" x="60" y="-707"/></g><g transform="translate(6905)"><use xlink:href="#u"/><use xlink:href="#r" x="602"/><use xlink:href="#x" x="1107"/><use xlink:href="#y" x="1473"/><use xlink:href="#t" x="2007"/><g transform="translate(2778)"><use xlink:href="#u"/><g transform="translate(722)"><path d="M0 220h766v60H0z" stroke="none"/><use xlink:href="#d" x="60" y="747"/><use xlink:href="#r" x="130" y="-696"/></g><use xlink:href="#v" x="1608"/></g><use xlink:href="#n" x="5210"/><use xlink:href="#q" x="6216"/><use xlink:href="#s" x="6690"/><use xlink:href="#t" x="7040"/><use xlink:href="#c" x="7645"/><use xlink:href="#d" x="8039"/><use xlink:href="#e" x="8685"/><use xlink:href="#v" x="9079"/></g><use xlink:href="#i" x="16808"/><use xlink:href="#q" x="17814"/><use xlink:href="#s" x="18288"/><use xlink:href="#t" x="18638"/><use xlink:href="#c" x="19243"/><g transform="translate(19757)"><path d="M0 220h766v60H0z" stroke="none"/><use xlink:href="#d" x="60" y="747"/><use xlink:href="#r" x="130" y="-696"/></g><use xlink:href="#e" x="20643"/><use xlink:href="#w" x="21369"/></g><use xlink:href="#z" x="277" transform="matrix(1 0 0 -1 2623 729)"/><g transform="matrix(1 0 0 -1 2623 2765)"><use xlink:href="#g" x="277"/><g transform="translate(1338)"><use xlink:href="#A" y="-13"/><path d="M1005 1087h3242v60H1005z" stroke="none"/><g transform="translate(1005)"><use xlink:href="#a"/><use transform="scale(.707)" xlink:href="#r" x="742" y="497"/><use transform="scale(.707)" xlink:href="#b" x="742" y="-220"/><use xlink:href="#n" x="1255"/><g transform="translate(2260)"><use xlink:href="#a"/><use transform="scale(.707)" xlink:href="#r" x="742" y="497"/><use transform="scale(.707)" xlink:href="#f" x="742" y="-220"/></g></g></g><use xlink:href="#g" x="5863"/><use xlink:href="#B" x="7256"/><use xlink:href="#B" x="7706"/><use xlink:href="#B" x="8155"/><use xlink:href="#g" x="9215"/><use xlink:href="#r" x="10276"/><use xlink:href="#q" x="10781"/><use xlink:href="#s" x="11255"/><g transform="translate(11605)"><use xlink:href="#t"/><use transform="scale(.707)" xlink:href="#l" x="855" y="583"/></g><use xlink:href="#c" x="12667"/><g transform="translate(13181)"><path d="M0 220h766v60H0z" stroke="none"/><use xlink:href="#d" x="60" y="747"/><use xlink:href="#r" x="130" y="-696"/></g><use xlink:href="#e" x="14067"/><g transform="translate(14461)"><use xlink:href="#C" y="-285"/><path d="M1005 1415h3823v60H1005z" stroke="none"/><g transform="translate(1125)"><path d="M0 220h3583v60H0z" stroke="none"/><use xlink:href="#k" x="1539" y="676"/><g transform="translate(60 -945)"><use xlink:href="#o"/><use xlink:href="#p" x="438"/><g transform="translate(928)"><use xlink:href="#q"/><use transform="scale(.707)" xlink:href="#r" x="670" y="408"/></g><use xlink:href="#c" x="1859"/><g transform="translate(2373)"><path d="M0 220h576v60H0z" stroke="none"/><use transform="scale(.707)" xlink:href="#d" x="84" y="856"/><use transform="scale(.707)" xlink:href="#r" x="155" y="-598"/></g><use xlink:href="#e" x="3069"/></g></g></g></g></g></svg>