<svg xmlns="http://www.w3.org/2000/svg" xmlns:xlink="http://www.w3.org/1999/xlink" width="164pt" height="40" viewBox="0 0 164 30"><defs><symbol overflow="visible" id="a"><path d="M5.89 11.063C4.517 10.687 3.97 9.437 3.97 7.719V.579c0-1.923-.64-3.095-1.656-3.563 1.015-.47 1.656-1.641 1.656-3.563v-7.156c0-1.719.547-2.953 1.922-3.328-.032-.063-.063-.14-.094-.219-.031-.078-.031-.172-.031-.234-1.672.437-2.75 1.687-2.75 3.78v7.157c0 2.063-.5 3.313-1.875 3.313a.648.648 0 0 1 0 .484c1.375 0 1.875 1.25 1.875 3.328v7.14c0 2.11 1.078 3.345 2.75 3.798 0-.079 0-.157.03-.25.032-.063.063-.157.095-.204zm0 0"/></symbol><symbol overflow="visible" id="b"><path d="M7.781-7.953c-.922-.344-1.593-.484-2.328-.484a5 5 0 0 0-2.797.859C1.25-6.641.531-5.218.531-3.391.531-1.078 1.812.22 4.094.22c1.156 0 1.984-.281 3.078-1.016l.125-.437-.125-.079c-1.125.688-1.75.891-2.672.891-1.89 0-2.906-1.14-2.906-3.265 0-1.344.406-2.516 1.125-3.25.562-.579 1.328-.875 2.281-.875.86 0 1.469.171 2.14.609v1h.313c.063-.688.156-1.203.328-1.75zm0 0"/></symbol><symbol overflow="visible" id="d"><path d="M8.125-3.938c-.016-.124-.031-.25-.031-.359 0-.125.015-.25.031-.36H.953c.031.11.031.235.031.36 0 .11 0 .234-.03.36zm0 2.626c-.016-.125-.031-.235-.031-.36s.015-.234.031-.36H.953a1.4 1.4 0 0 1 .031.36c0 .125 0 .234-.03.36zm0 0"/></symbol><symbol overflow="visible" id="e"><path d="M5 .031v-.36l-.625-.03c-.656-.032-.781-.172-.781-.782v-7.093l-.156-.063c-.782.406-1.626.766-2.72 1.156l.079.5h.125l1.547-.687.031-.016c.063 0 .094.11.094.407v5.796c0 .61-.125.75-.781.782l-.672.03v.36L3.125 0zm0 0"/></symbol><symbol overflow="visible" id="f"><path d="M4.656-5.469c-.312-.203-.703-.297-1.156-.297-.531 0-1.39.422-2.063 1.016C.75-4.14.298-2.906.298-1.625c0 1.14.5 1.75 1.453 1.75.656 0 1.219-.234 1.89-.766l.594-.5-.093-.234-.188.125c-.86.563-1.312.766-1.734.766-.672 0-1.016-.47-1.016-1.422 0-1.266.406-2.5.984-2.953.25-.22.547-.313.938-.313.531 0 .969.219.969.516v.718h.265c.094-.78.188-1.218.297-1.53zm0 0"/></symbol><symbol overflow="visible" id="g"><path d="M4.906-3.953c0-1.125-.593-1.813-1.578-1.813-.515 0-1.078.204-1.625.594-.969.688-1.5 1.89-1.5 3.36C.203-.548.734.125 1.734.125c.657 0 1.375-.297 1.907-.813.75-.703 1.265-2.062 1.265-3.265zM4-3.766c0 1.141-.36 2.422-.89 3.047-.22.25-.532.39-.891.39-.703 0-1.11-.53-1.11-1.484 0-1.343.47-2.812 1.047-3.296.156-.125.438-.204.719-.204.734 0 1.125.547 1.125 1.547zm0 0"/></symbol><symbol overflow="visible" id="h"><path d="M4.125-5.438c-.469-.234-.797-.328-1.203-.328-.61 0-1.344.344-1.922.938-.313.328-.438.625-.438 1.047 0 .672.375 1.062 1.157 1.219l.75.14c.531.094.719.297.719.766 0 .797-.547 1.312-1.391 1.312-.438 0-.797-.14-1.125-.422v-1H.375C.312-1.156.235-.734.109-.187.563.03.97.124 1.391.124c.578 0 1.125-.203 1.734-.688.61-.484.875-.921.875-1.515 0-.64-.375-1-1.281-1.156l-.5-.094c-.719-.14-.953-.344-.953-.828 0-.64.53-1.125 1.218-1.125.485 0 .954.218 1.141.531v.656h.266c.046-.406.109-.734.234-1.343zm0 0"/></symbol><symbol overflow="visible" id="i"><path d="M4.11-7.61a.735.735 0 0 1-.188-.14c-.063-.063-.11-.11-.14-.188-1.47 1.47-2.345 3.032-2.345 4.563v.781c0 1.516.875 3.078 2.344 4.547a.735.735 0 0 1 .14-.187.735.735 0 0 1 .188-.141C2.781.281 2.156-1.203 2.156-2.594v-.781c0-1.39.625-2.89 1.953-4.234zm0 0"/></symbol><symbol overflow="visible" id="j"><path d="M7.297-3.953c0-.297-.047-.547-.14-.766-.141-.36-.626-1.047-.938-1.047-.282 0-.594.094-.86.235-.453.265-1.03.703-1.343 1.031-.125.14-.22.36-.266.563L2.969-.329c-.938-.11-1.485-.61-1.453-1.484.062-1.329.953-2.797 1.906-3.297a2.5 2.5 0 0 1 .594-.157c.125-.109.109-.109.187-.218-.031-.141-.078-.141-.11-.141-.265 0-.75.219-1.124.406C1.516-4.53.688-3.312.609-1.812.547-.532 1.281.125 2.672.125h.219l-.672 2.656-.11.453.079.063c.25-.078.484-.14.874-.203L3.688.016c.578-.141 1.156-.36 1.624-.672 1.11-.703 1.922-2.063 1.985-3.297zm-.922.187c-.063 1.157-.781 2.422-1.64 3.047a2.33 2.33 0 0 1-.97.375l.329-1.422c.172-.953.562-2.89.843-3.125.157-.171.5-.28.891-.28.328 0 .578.765.547 1.405zm0 0"/></symbol><symbol overflow="visible" id="k"><path d="M3.64-2.594v-.781c0-1.531-.874-3.094-2.343-4.563-.047.079-.094.125-.156.188a.427.427 0 0 1-.188.14c1.328 1.344 1.969 2.844 1.969 4.235v.781c0 1.39-.64 2.875-1.969 4.219.078.031.14.078.188.14.062.063.109.126.156.188C2.766.484 3.64-1.078 3.64-2.594zm0 0"/></symbol><symbol overflow="visible" id="l"><path d="M8.125-2.625c-.016-.125-.031-.25-.031-.36 0-.124.015-.25.031-.359H4.906v-3.234c-.125.031-.25.047-.36.047-.124 0-.25-.016-.359-.047v3.234H.954c.031.11.031.235.031.36 0 .109 0 .234-.03.359h3.234V.594c.109-.016.234-.031.359-.031.11 0 .234.015.36.03v-3.218zm0 0"/></symbol><symbol overflow="visible" id="m"><path d="M5.172-4.5c0-.453-.11-.922-.25-1.094-.078-.11-.234-.172-.422-.172-.281 0-.64.094-.969.266-.61.328-1.015.688-1.75 1.625l1.032-4.75-.141-.14c-.625.312-1.063.421-1.922.5l-.047.25h.578c.282 0 .407.093.407.296 0 .078-.016.219-.032.282L.453-.845c-.016.031-.016.078-.016.11 0 .468.579.859 1.235.859.437 0 1.047-.219 1.562-.594C4.391-1.28 5.172-2.922 5.172-4.5zm-.86.297c0 .766-.25 1.781-.609 2.562-.39.829-.875 1.204-1.515 1.204-.547 0-.844-.266-.844-.766 0-.297.047-.64.156-1.078.219-.953.516-1.531.984-2.031.391-.407 1.016-.75 1.36-.75.312 0 .469.265.469.859zm0 0"/></symbol><symbol overflow="visible" id="n"><path d="M2.39-2.984c0-.438-.28-.72-.718-.72-.422 0-.719.282-.719.72 0 .421.297.718.719.718.437 0 .719-.296.719-.718zm0 0"/></symbol><symbol overflow="visible" id="o"><path d="M8.125-2.625c-.016-.125-.031-.25-.031-.36 0-.124.015-.25.031-.359H.953c.031.11.031.235.031.36 0 .109 0 .234-.03.359zm0 0"/></symbol><symbol overflow="visible" id="p"><path d="M2.875-1.016l-.11-.218-.312.203c-.36.25-.61.36-.734.36-.078 0-.157-.11-.157-.235 0-.125.016-.219.094-.485l.907-3.625c.062-.203.078-.328.078-.437 0-.203-.094-.313-.297-.313-.266 0-.688.25-1.61.891l-.328.234.078.235.391-.25c.344-.219.469-.266.578-.266.11 0 .203.11.203.25 0 .094-.047.344-.11.531l-.78 2.86c-.11.39-.157.687-.157.922 0 .28.125.468.36.468.312 0 .75-.265 1.906-1.125zm.297-6.5c0-.296-.172-.5-.422-.5-.36 0-.688.407-.688.813 0 .297.172.484.47.484.374 0 .64-.343.64-.797zm0 0"/></symbol><symbol overflow="visible" id="q"><path d="M6.14-1.016l-.109-.218-.312.203c-.36.234-.61.36-.735.36-.078 0-.156-.11-.156-.235 0-.063.016-.188.031-.235l.782-3.312a4.47 4.47 0 0 0 .125-.875c0-.281-.125-.438-.36-.438-.5 0-1.328.454-2.031 1.11-.453.422-.797.828-1.422 1.703l.469-1.922c.047-.219.062-.36.062-.484 0-.266-.093-.407-.265-.407-.266 0-.719.266-1.594.891l-.344.234.094.235.375-.25c.438-.282.484-.297.563-.297.14 0 .218.125.218.297 0 .61-.484 2.922-.984 4.625l.094.14c.296-.078.562-.156.828-.203.234-1.515.484-2.281 1.031-3.11.656-1 1.547-1.75 2.078-1.75.125 0 .203.11.203.298 0 .203-.031.453-.125.843L4.031-1.28c-.11.437-.156.718-.156.906 0 .297.125.484.36.484.312 0 .734-.25 1.906-1.125zm0 0"/></symbol><symbol overflow="visible" id="s"><path d="M4.86-1.016l-.094-.25c-.079.079-.094.079-.157.125-.375.329-.562.438-.734.438-.125 0-.188-.094-.188-.281 0-.063 0-.094.016-.125l1.11-4.532-.125-.109-.391.219c-.469-.188-.703-.235-1.016-.235-.344 0-.578.063-.906.22-.75.374-1.125.734-1.438 1.312C.422-3.172.047-1.75.047-.781c0 .5.187.906.406.906.25 0 .688-.25 1.14-.625.516-.438.985-1 1.641-1.938L2.891-.921a2.882 2.882 0 0 0-.063.61c0 .28.094.437.281.437.266 0 .766-.328 1.75-1.14zM3.811-4.953c-.265 1.281-.484 1.906-.89 2.516-.656 1-1.406 1.734-1.797 1.734-.14 0-.219-.156-.219-.485 0-.765.313-2.093.735-3.078.28-.687.578-.906 1.156-.906.281 0 .5.047 1.015.219zm0 0"/></symbol><symbol overflow="visible" id="c"><path d="M4.766-4.172a.703.703 0 0 0-.297-.094c-.39 0-.766.329-1.375 1.141l-.36.484-.062-.421c-.11-.876-.36-1.204-.938-1.204-.25 0-.453.079-.546.188l-.563.734.172.094c.281-.313.484-.422.656-.422.328 0 .531.36.703 1.219l.094.547-.375.547c-.422.593-.75.875-1.016.875-.14 0-.25-.032-.265-.079l-.11-.25-.187.032c0 .187-.016.297-.078.578-.032.11-.032.125-.047.187a.94.94 0 0 0 .422.11c.312 0 .687-.25.984-.672l.734-1.031.11.609c.14.75.344 1.094.687 1.094.22 0 .532-.14.829-.406l.468-.391-.078-.156c-.344.265-.594.39-.734.39-.156 0-.281-.094-.375-.265-.094-.172-.188-.5-.235-.75l-.187-.891.344-.438c.453-.578.718-.78 1.015-.78.157 0 .266.077.313.202l.14-.03zm0 0"/></symbol><symbol overflow="visible" id="r"><path d="M4.813-4.188l-.11-.078c-.281.094-.5.157-.719.172l-.328 1.172c-.125.406-.453 1.063-.765 1.485-.344.453-.813.843-1.032.843-.203 0-.187-.422-.171-.531l.14-1.719c.016-.281.031-.61.031-.86 0-.405-.062-.562-.234-.562-.125 0-.25.063-.719.36l-.797.5.11.156.484-.266a.458.458 0 0 1 .25-.109c.235 0 .203.453.203.594L.984-.891.97-.53c0 .375.187.625.422.625.359 0 1.171-.75 1.89-1.75L2.797-.141c-.485 1.563-.969 2.204-1.64 2.204-.329 0-.595-.235-.595-.547 0-.032 0-.11.016-.188l-.094-.031-.468.297v.156c0 .375.359.688.796.688 1.016 0 2.079-1.094 2.641-2.735zm0 0"/></symbol></defs><use xlink:href="#a" x="-1.037" y="17.508"/><use xlink:href="#b" x="10.986" y="9.745"/><use xlink:href="#c" x="18.96" y="12.518"/><use xlink:href="#d" x="27.778" y="9.745"/><use xlink:href="#e" x="40.176" y="9.745"/><use xlink:href="#d" x="49.477" y="9.745"/><use xlink:href="#f" x="61.886" y="9.745"/><use xlink:href="#g" x="66.872" y="9.745"/><use xlink:href="#h" x="72.18" y="9.745"/><use xlink:href="#i" x="76.83" y="9.745"/><use xlink:href="#j" x="81.899" y="9.745"/><use xlink:href="#k" x="89.527" y="9.745"/><use xlink:href="#l" x="97.25" y="9.745"/><use xlink:href="#m" x="108.99" y="9.745"/><use xlink:href="#n" x="117.191" y="9.745"/><use xlink:href="#o" x="123.192" y="9.745"/><use xlink:href="#h" x="132.278" y="9.745"/><use xlink:href="#p" x="136.929" y="9.745"/><use xlink:href="#q" x="140.444" y="9.745"/><use xlink:href="#i" x="147.091" y="9.745"/><use xlink:href="#j" x="152.16" y="9.745"/><use xlink:href="#k" x="159.787" y="9.745"/><use xlink:href="#b" x="10.986" y="24.19"/><use xlink:href="#r" x="18.96" y="26.964"/><use xlink:href="#d" x="27.84" y="24.19"/><g><use xlink:href="#s" x="40.238" y="24.19"/></g><g><use xlink:href="#d" x="48.869" y="24.19"/></g><g><use xlink:href="#h" x="61.279" y="24.19"/><use xlink:href="#p" x="65.929" y="24.19"/></g><g><use xlink:href="#q" x="69.444" y="24.19"/><use xlink:href="#i" x="76.091" y="24.19"/><use xlink:href="#j" x="81.16" y="24.19"/><use xlink:href="#k" x="88.788" y="24.19"/></g><g><use xlink:href="#l" x="96.511" y="24.19"/></g><g><use xlink:href="#m" x="108.251" y="24.19"/></g><g><use xlink:href="#n" x="116.452" y="24.19"/></g><g><use xlink:href="#f" x="122.453" y="24.19"/></g><g><use xlink:href="#g" x="127.439" y="24.19"/><use xlink:href="#h" x="132.747" y="24.19"/><use xlink:href="#i" x="137.397" y="24.19"/><use xlink:href="#j" x="142.466" y="24.19"/><use xlink:href="#k" x="150.094" y="24.19"/></g></svg>