<svg xmlns="http://www.w3.org/2000/svg" xmlns:xlink="http://www.w3.org/1999/xlink" width="228" height="31pt" viewBox="0 0 171 31"><defs><symbol overflow="visible" id="a"><path d="M.594-3.703c.55-.02.976-.27 1.281-.75.313-.488.469-1.211.469-2.172 0-.426-.09-1.242-.266-2.453-.168-1.219-.25-2.219-.25-3 0-1.988.328-3.535.984-4.64.657-1.102 1.586-1.735 2.797-1.891v.515a2.531 2.531 0 0 0-1.109.5c-.324.25-.602.606-.828 1.063-.23.449-.406 1-.531 1.656-.125.648-.188 1.398-.188 2.25 0 .637.078 1.602.235 2.89.156 1.294.234 2.137.234 2.532 0 1.043-.188 1.887-.563 2.531-.367.637-.73 1.027-1.093 1.172v.14c.363.15.726.54 1.093 1.172.375.637.563 1.477.563 2.516 0 .238-.078 1.11-.235 2.61-.156 1.507-.234 2.44-.234 2.796 0 .864.055 1.618.172 2.266.113.656.29 1.21.531 1.672.239.457.52.816.844 1.078.32.258.691.422 1.11.484v.516c-1.18-.086-2.106-.68-2.782-1.781-.668-1.106-1-2.59-1-4.453 0-.7.082-1.746.25-3.141.176-1.398.266-2.273.266-2.625 0-.926-.153-1.633-.453-2.125-.305-.5-.735-.758-1.297-.781zm0 0"/></symbol><symbol overflow="visible" id="b"><path d="M6.984-7.797l-.343 1.594h-.563c-.031-.477-.14-.82-.328-1.031-.18-.22-.46-.329-.844-.329-.543 0-1.047.274-1.515.813-.461.531-.825 1.242-1.094 2.125-.274.887-.406 1.71-.406 2.469 0 .594.101 1.031.312 1.312.219.281.547.422.985.422.289 0 .546-.039.765-.125.219-.094.422-.242.61-.453.195-.207.39-.5.578-.875h.562l-.36 1.656c-.73.211-1.495.313-2.296.313-.742 0-1.305-.207-1.688-.625C.984-.957.797-1.578.797-2.391c0-.57.098-1.234.297-1.984.207-.75.5-1.406.875-1.969.375-.57.816-1.004 1.328-1.297.508-.3 1.07-.453 1.687-.453.352 0 .68.024.985.063.3.043.64.12 1.015.234zm0 0"/></symbol><symbol overflow="visible" id="d"><path d="M.875-4.25v-.781h7.219v.781zm0 2.422v-.781h7.219v.78zm7.469-1.594zm0 0"/></symbol><symbol overflow="visible" id="e"><path d="M4.078-1.531c0 .23.008.402.031.515a.68.68 0 0 0 .141.282.572.572 0 0 0 .266.171c.125.043.273.075.453.094.187.024.43.04.734.047V0H1.375v-.422A8.17 8.17 0 0 0 2.297-.5c.187-.04.328-.094.422-.156a.516.516 0 0 0 .219-.281c.05-.125.078-.32.078-.594v-4.75c0-.157-.032-.27-.094-.344a.282.282 0 0 0-.235-.11c-.124 0-.304.07-.53.204-.231.125-.516.304-.86.531l-.25-.453 2.734-1.64h.328a27.34 27.34 0 0 0-.03 1.562zm0 0"/></symbol><symbol overflow="visible" id="f"><path d="M4.406-4.203c0-.29-.023-.504-.062-.64a.542.542 0 0 0-.203-.298.705.705 0 0 0-.391-.093c-.398 0-.75.156-1.063.468-.312.313-.57.762-.765 1.344a5.036 5.036 0 0 0-.297 1.656c0 .399.078.696.234.891.157.188.391.281.704.281.351 0 .66-.066.921-.203.258-.133.532-.348.813-.64l.36.359c-.368.406-.735.703-1.11.89a2.658 2.658 0 0 1-1.203.282c-.563 0-.996-.164-1.297-.5-.293-.332-.438-.82-.438-1.469 0-.414.079-.875.235-1.375.156-.5.383-.938.687-1.313a2.91 2.91 0 0 1 1.047-.859 3.05 3.05 0 0 1 1.297-.281c.52 0 1 .062 1.438.187L5.03-4.203zm0 0"/></symbol><symbol overflow="visible" id="g"><path d="M2.563.094c-.618 0-1.09-.164-1.422-.5-.336-.344-.5-.832-.5-1.469 0-.313.046-.672.14-1.078a4.079 4.079 0 0 1 .61-1.453c.289-.414.644-.735 1.062-.953a2.827 2.827 0 0 1 1.375-.344c.625 0 1.098.172 1.422.516.332.343.5.835.5 1.468 0 .461-.078.95-.234 1.469-.157.512-.375.945-.657 1.297a2.675 2.675 0 0 1-.984.781 3.138 3.138 0 0 1-1.313.266zm-.891-1.719c0 .43.086.746.266.953.175.211.445.313.812.313.375 0 .707-.172 1-.516.3-.344.535-.82.703-1.438.176-.624.266-1.171.266-1.64 0-.426-.086-.742-.25-.953-.157-.219-.414-.328-.766-.328-.406 0-.762.171-1.062.515-.305.344-.543.836-.72 1.469-.167.625-.25 1.168-.25 1.625zm0 0"/></symbol><symbol overflow="visible" id="h"><path d="M4.422-4.172c-.043-.351-.156-.617-.344-.797-.187-.176-.48-.265-.875-.265-.312 0-.57.078-.765.234a.776.776 0 0 0-.282.625.85.85 0 0 0 .078.375c.051.105.149.227.297.36.145.124.375.28.688.468a4.5 4.5 0 0 1 .594.406c.144.125.257.25.343.375a.943.943 0 0 1 .188.375c.039.137.062.297.062.485 0 .343-.093.64-.281.89-.18.25-.43.438-.75.563a3.153 3.153 0 0 1-1.078.172c-.324 0-.64-.028-.953-.078A6.29 6.29 0 0 1 .297-.22L.578-1.5h.453c.02.375.125.664.313.86.195.187.508.28.937.28.375 0 .664-.081.875-.25.207-.163.313-.398.313-.703 0-.175-.031-.328-.094-.453a1.186 1.186 0 0 0-.297-.375 4.756 4.756 0 0 0-.625-.437 6.084 6.084 0 0 1-.719-.5 1.413 1.413 0 0 1-.375-.485 1.337 1.337 0 0 1-.125-.593c0-.313.082-.582.25-.813.164-.238.399-.422.704-.547a2.887 2.887 0 0 1 1.078-.187c.363 0 .695.027 1 .078.3.043.597.117.89.219l-.265 1.234zm0 0"/></symbol><symbol overflow="visible" id="i"><path d="M2.063-2.969c0 1.367.218 2.492.656 3.375.445.895 1.117 1.492 2.015 1.797l-.14.453C3.457 2.352 2.582 1.703 1.969.703c-.606-.988-.907-2.191-.907-3.61 0-1.405.301-2.609.907-3.609.613-1 1.488-1.648 2.625-1.953l.172.453c-.918.305-1.602.891-2.047 1.766-.438.867-.656 1.96-.656 3.281zm0 0"/></symbol><symbol overflow="visible" id="j"><path d="M3.438-5.313a5.101 5.101 0 0 0-1.376 1.47c-.335.562-.5 1.116-.5 1.655 0 .512.11.915.329 1.204.226.293.57.484 1.03.578l.595-2.688c.207-.894.523-1.55.953-1.969.426-.425.914-.64 1.468-.64.532 0 .93.152 1.204.453.27.293.406.742.406 1.344 0 .742-.156 1.418-.469 2.031A3.598 3.598 0 0 1 5.75-.437c-.574.343-1.242.519-2 .53l-.563 2.438h-.906L2.828.078c-.73-.082-1.293-.32-1.687-.719-.387-.406-.579-.937-.579-1.593 0-1.29.86-2.454 2.579-3.485zm.406 4.954a2.232 2.232 0 0 0 1.422-.547c.406-.352.718-.82.937-1.406a5.249 5.249 0 0 0 .328-1.829c0-.343-.062-.609-.187-.796-.117-.196-.282-.297-.5-.297-.313 0-.586.18-.813.53-.23.356-.43.919-.593 1.688zm0 0"/></symbol><symbol overflow="visible" id="k"><path d="M2.906-2.969c0-1.32-.219-2.414-.656-3.281A3.389 3.389 0 0 0 .219-8.016l.156-.453c1.145.305 2.02.953 2.625 1.953.613 1 .922 2.204.922 3.61 0 1.418-.309 2.62-.922 3.61-.605 1-1.48 1.648-2.625 1.952l-.14-.453C1.14 1.898 1.812 1.301 2.25.406c.438-.883.656-2.008.656-3.375zm0 0"/></symbol><symbol overflow="visible" id="l"><path d="M4.906-3.047V.328h-.843v-3.375H.874v-.781h3.188v-3.375h.843v3.375h3.188v.781zm0 0"/></symbol><symbol overflow="visible" id="m"><path d="M1.453-.281L.922.094.547 0l1.515-6.703c.083-.395.126-.68.126-.86 0-.164-.055-.28-.157-.343-.094-.07-.273-.11-.531-.11l.078-.312 1.484-.047h.344L2.375-4.281l.063.031c.382-.508.742-.879 1.078-1.11.332-.226.66-.343.984-.343.426 0 .758.168 1 .5.238.324.36.777.36 1.36 0 .648-.133 1.28-.391 1.905-.262.625-.625 1.122-1.094 1.485a2.39 2.39 0 0 1-1.531.547c-.524 0-.985-.125-1.39-.375zm.516-1.766a3.68 3.68 0 0 0-.094.797c0 .313.066.54.203.672.133.137.36.203.672.203.164 0 .316-.023.453-.078.145-.05.29-.133.438-.25.156-.125.3-.285.437-.485a4.08 4.08 0 0 0 .375-.718c.113-.29.203-.602.266-.938.062-.332.093-.648.093-.953 0-.406-.058-.707-.171-.906-.118-.207-.305-.313-.563-.313a.934.934 0 0 0-.547.188c-.18.117-.383.312-.61.594a4.772 4.772 0 0 0-.546.843 5.612 5.612 0 0 0-.36 1.11zm0 0"/></symbol><symbol overflow="visible" id="n"><path d="M1.688-4.14c.207 0 .375.07.5.202.124.126.187.297.187.516 0 .211-.063.383-.188.516a.678.678 0 0 1-.5.187c-.199 0-.359-.062-.484-.187a.722.722 0 0 1-.187-.516c0-.219.062-.39.187-.515a.636.636 0 0 1 .484-.204zm0 0"/></symbol><symbol overflow="visible" id="o"><path d="M.875-3.047v-.781h7.219v.781zm0 0"/></symbol><symbol overflow="visible" id="p"><path d="M3.313-7.906l-.266 1.14H2l.281-1.14zM1.421-3.953c.094-.383.14-.676.14-.875 0-.176-.042-.297-.125-.36-.085-.062-.25-.097-.5-.109L1-5.609l1.438-.047h.343l-.844 3.765c-.085.387-.125.672-.125.86 0 .156.02.273.063.343.05.075.133.11.25.11a.68.68 0 0 0 .375-.14c.133-.102.32-.286.563-.548l.328.329c-.387.398-.7.667-.938.812a1.47 1.47 0 0 1-.797.219.756.756 0 0 1-.61-.281C.899-.376.829-.61.829-.891c0-.3.05-.68.156-1.14zm0 0"/></symbol><symbol overflow="visible" id="q"><path d="M1.594-3.719c.093-.375.14-.66.14-.86 0-.155-.027-.269-.078-.343-.054-.07-.136-.11-.25-.11-.117 0-.242.055-.375.157-.136.094-.324.273-.562.531L.14-4.672c.363-.375.66-.64.89-.797.239-.156.508-.234.813-.234.25 0 .441.086.578.25.144.156.219.367.219.625 0 .21-.047.445-.141.703l.078.016c.375-.54.735-.942 1.078-1.204.352-.257.711-.39 1.078-.39.364 0 .641.11.829.328.195.21.296.496.296.86 0 .25-.054.6-.156 1.046l-.39 1.547c-.106.418-.157.715-.157.89 0 .157.024.274.078.345.051.074.13.109.235.109.125 0 .25-.047.375-.14.133-.102.32-.286.562-.548l.344.329c-.344.355-.64.617-.89.78-.25.165-.532.25-.844.25a.795.795 0 0 1-.625-.265c-.149-.187-.22-.422-.22-.703 0-.25.063-.625.188-1.125l.266-1c.094-.375.156-.645.188-.813.03-.175.046-.32.046-.437 0-.27-.046-.46-.14-.578-.094-.125-.242-.188-.438-.188-.168 0-.343.07-.531.204-.188.125-.39.324-.61.593-.21.262-.382.516-.515.766-.125.25-.23.558-.313.922L1.766 0H.75zm0 0"/></symbol><symbol overflow="visible" id="s"><path d="M5.031-5.313l.547-.39.375.094-.86 3.718c-.093.368-.14.653-.14.86 0 .156.024.273.078.343.051.075.133.11.25.11a.61.61 0 0 0 .36-.14c.132-.102.328-.286.578-.548l.328.329c-.356.375-.656.64-.906.796a1.44 1.44 0 0 1-.797.235.748.748 0 0 1-.578-.235c-.149-.164-.22-.379-.22-.64 0-.219.04-.446.126-.688L4.109-1.5c-.375.555-.734.96-1.078 1.219-.336.25-.687.375-1.062.375-.43 0-.762-.16-1-.485-.242-.332-.36-.789-.36-1.375C.61-2.43.74-3.07 1-3.687c.27-.626.633-1.114 1.094-1.47a2.47 2.47 0 0 1 1.547-.546c.25 0 .484.031.703.094.226.054.457.152.687.296zm-.515 1.75a3.32 3.32 0 0 0 .078-.421c.008-.114.015-.239.015-.375 0-.301-.07-.52-.203-.657-.125-.144-.343-.218-.656-.218-.398 0-.758.164-1.078.484-.324.324-.574.762-.75 1.313a5.146 5.146 0 0 0-.266 1.624c0 .407.051.711.157.907.113.199.3.297.562.297.258 0 .516-.11.766-.329.25-.218.504-.535.765-.953.258-.414.446-.89.563-1.421zm0 0"/></symbol><symbol overflow="visible" id="c"><path d="M2.328-2.125a57.17 57.17 0 0 1-.14-.625c-.043-.188-.079-.344-.11-.469a1.783 1.783 0 0 0-.11-.328.829.829 0 0 0-.093-.187.324.324 0 0 0-.11-.11.337.337 0 0 0-.14-.031.4.4 0 0 0-.14.031.29.29 0 0 0-.126.078c-.043.043-.093.102-.156.172-.055.074-.11.168-.172.281L.688-3.53C.8-3.707.905-3.86 1-3.984c.102-.125.203-.223.297-.297a.945.945 0 0 1 .297-.157c.101-.03.222-.046.36-.046.155 0 .284.039.39.109a.68.68 0 0 1 .25.297c.07.137.129.305.172.5.039.2.086.43.14.687h.063l.453-.609c.125-.164.238-.305.344-.422.101-.125.191-.223.265-.297a.939.939 0 0 1 .235-.156.87.87 0 0 1 .234-.078c.082-.02.176-.031.281-.031.145 0 .282.027.407.078l-.22.86h-.374c-.012-.126-.059-.188-.14-.188a.613.613 0 0 0-.11.015.553.553 0 0 0-.125.078 1.163 1.163 0 0 0-.188.141 2.996 2.996 0 0 0-.25.25c-.094.105-.203.23-.328.375-.117.148-.25.32-.406.516.082.406.148.73.203.968.063.243.117.43.172.563.05.125.101.21.156.25.05.043.113.062.188.062.05 0 .097-.004.14-.015a.263.263 0 0 0 .125-.078c.04-.04.086-.098.14-.172.063-.07.13-.172.204-.297l.344.219c-.137.187-.258.343-.36.468a1.481 1.481 0 0 1-.28.297.893.893 0 0 1-.298.125 1.039 1.039 0 0 1-.328.047.973.973 0 0 1-.312-.047.459.459 0 0 1-.22-.172.87.87 0 0 1-.124-.203 1.8 1.8 0 0 1-.11-.265 9.15 9.15 0 0 1-.093-.297c-.024-.102-.043-.203-.063-.297-.011-.094-.023-.172-.031-.234l-.031-.172h-.047c-.18.242-.336.449-.469.625-.125.168-.242.312-.344.437-.105.125-.199.23-.28.313a1.393 1.393 0 0 1-.25.203.904.904 0 0 1-.266.078C.727.067.633.078.53.078A.942.942 0 0 1 .141 0l.203-.86h.375c.008.137.054.204.14.204.04-.008.07-.016.094-.016a.36.36 0 0 0 .11-.062c.039-.032.093-.07.156-.125.062-.063.14-.145.234-.25.102-.114.223-.25.36-.407.144-.164.316-.367.515-.609zm0 0"/></symbol><symbol overflow="visible" id="r"><path d="M2.422-.031a85.238 85.238 0 0 1-.266-1.438c-.074-.406-.14-.75-.203-1.031a8.579 8.579 0 0 0-.156-.703 2.408 2.408 0 0 0-.156-.406c-.043-.102-.09-.172-.141-.204a.21.21 0 0 0-.14-.062c-.055 0-.106.008-.157.016a.429.429 0 0 0-.14.078 1.45 1.45 0 0 0-.141.172 6.962 6.962 0 0 0-.203.296L.375-3.53c.133-.188.254-.336.36-.453a1.57 1.57 0 0 1 .312-.297c.101-.07.207-.125.312-.157.114-.03.235-.046.36-.046.101 0 .191.011.265.03a.607.607 0 0 1 .22.11.553.553 0 0 1 .155.172c.051.074.102.168.157.281.02.063.046.157.078.282.031.117.062.25.094.406a39.518 39.518 0 0 1 .188 1.125l.093.64c.031.22.054.434.078.641a7.36 7.36 0 0 0 .594-.875c.175-.289.328-.566.453-.828.125-.27.218-.508.281-.719.063-.219.094-.39.094-.515 0-.133-.04-.227-.11-.282-.062-.05-.171-.082-.328-.093l.047-.282h1.25l.156.25c-.293.73-.636 1.434-1.03 2.11A16.894 16.894 0 0 1 3.14-.094c-.22.258-.418.477-.594.656a8.174 8.174 0 0 1-.469.485 3.055 3.055 0 0 1-.39.328c-.125.082-.25.148-.375.203-.118.05-.231.086-.344.11a5 5 0 0 1-.36.046c-.074 0-.156-.011-.25-.03a1.793 1.793 0 0 1-.25-.048L.33.688h.405v.03c0 .196.079.298.235.298.219 0 .437-.086.656-.25.219-.168.484-.434.797-.797zm0 0"/></symbol></defs><use xlink:href="#a" x=".209" y="19.172"/><use xlink:href="#b" x="11.144" y="11.424"/><use xlink:href="#c" x="17.577" y="13.864"/><use xlink:href="#d" x="26.768" y="11.424"/><use xlink:href="#e" x="39.01" y="11.424"/><use xlink:href="#d" x="48.957" y="11.424"/><use xlink:href="#f" x="61.211" y="11.424"/><use xlink:href="#g" x="67.093" y="11.424"/><use xlink:href="#h" x="73.728" y="11.424"/><use xlink:href="#i" x="79.49" y="11.424"/><use xlink:href="#j" x="84.452" y="11.424"/><use xlink:href="#k" x="92.809" y="11.424"/><use xlink:href="#l" x="100.424" y="11.424"/><use xlink:href="#m" x="112.009" y="11.424"/><use xlink:href="#n" x="121.369" y="11.424"/><use xlink:href="#o" x="127.395" y="11.424"/><use xlink:href="#h" x="136.325" y="11.424"/><use xlink:href="#p" x="142.1" y="11.424"/><use xlink:href="#q" x="146.272" y="11.424"/><use xlink:href="#i" x="153.338" y="11.424"/><use xlink:href="#j" x="158.299" y="11.424"/><use xlink:href="#k" x="166.644" y="11.424"/><use xlink:href="#b" x="11.144" y="25.869"/><use xlink:href="#r" x="17.577" y="28.31"/><use xlink:href="#d" x="27.116" y="25.869"/><use xlink:href="#s" x="39.358" y="25.869"/><use xlink:href="#d" x="49.64" y="25.869"/><use xlink:href="#h" x="61.882" y="25.869"/><use xlink:href="#p" x="67.656" y="25.869"/><use xlink:href="#q" x="71.828" y="25.869"/><use xlink:href="#i" x="78.894" y="25.869"/><use xlink:href="#j" x="83.855" y="25.869"/><use xlink:href="#k" x="92.2" y="25.869"/><use xlink:href="#l" x="99.816" y="25.869"/><use xlink:href="#m" x="111.412" y="25.869"/><use xlink:href="#n" x="120.773" y="25.869"/><use xlink:href="#f" x="126.798" y="25.869"/><g><use xlink:href="#g" x="132.68" y="25.869"/></g><g><use xlink:href="#h" x="139.316" y="25.869"/></g><g><use xlink:href="#i" x="145.078" y="25.869"/><use xlink:href="#j" x="150.039" y="25.869"/></g><g><use xlink:href="#k" x="158.396" y="25.869"/></g></svg>