<svg xmlns="http://www.w3.org/2000/svg" xmlns:xlink="http://www.w3.org/1999/xlink" width="161pt" height="16" viewBox="0 0 161 12"><defs><symbol overflow="visible" id="a"><path d="M8.938-1.25l-.172-.297-.454.297c-.359.219-.5.313-.624.313-.079 0-.032.03-.032-.11 0-.11.032-.219.094-.469l.89-3.546c.047-.204.079-.407.079-.5 0-.204-.25-.47-.438-.47-.344 0-.906.266-1.64.766-.75.547-1.172.97-1.75 1.782l.234.109.36-1.64c.046-.25.077-.423.077-.5 0-.235-.25-.516-.437-.516-.36 0-1.016.312-1.672.812-.531.407-.765.657-1.547 1.703l.25.094.39-1.594c.048-.187.079-.359.079-.5 0-.234-.25-.515-.406-.515-.266 0-.813.297-1.703.922l-.391.296.172.485.547-.36c.437-.28.39-.265.469-.265.14 0 .078 0 .078.172 0 .61-.5 2.922-.985 4.625l.078.281L1.5-.094l.297-1.328c.281-1.328.562-1.937 1.234-2.656.5-.547.938-.875 1.266-.875.094 0 0-.031 0 .125 0 .422-.25 1.781-.766 3.875l-.187.797.14.281 1-.219.266-1.39c.203-.97.563-1.766 1.094-2.36C6.5-4.563 7-4.954 7.39-4.954c.093 0 .015-.015.015.173 0 .281-.015.453-.312 1.5l-.5 1.875c-.11.328-.157.64-.157.906 0 .297.266.61.5.61.313 0 .829-.282 2.079-1.22zm0 0"/></symbol><symbol overflow="visible" id="b"><path d="M8.266-4.078a1.419 1.419 0 0 1-.047-.36c0-.109.015-.234.062-.484h-7.5c.063.25.063.375.063.484 0 .125 0 .235-.063.5h7.5zm0 2.625a1.332 1.332 0 0 1-.047-.36c0-.109.015-.234.062-.484h-7.5c.063.25.063.375.063.485 0 .125 0 .25-.063.5h7.5zm0 0"/></symbol><symbol overflow="visible" id="c"><path d="M4.984-1.14l-.156-.485c-.25.203-.266.219-.328.266-.375.312-.453.39-.625.39-.125 0-.047.031-.047-.156 0-.047 0-.078.016-.125l1.11-4.578-.25-.203-.438.218c-.438-.156-.672-.218-.985-.218-.344 0-.578.062-.906.218-.75.375-1.234.766-1.531 1.36l-.047.094C.28-3.297-.093-1.875-.093-.922c0 .516.327 1.047.546 1.047.25 0 .797-.281 1.234-.656.516-.453.985-1.016 1.641-1.938l-.234-.094-.344 1.516a2.715 2.715 0 0 0-.078.61c0 .265.25.562.437.562.266 0 .86-.36 1.891-1.219zM3.672-5.079c-.266 1.281-.453 1.797-.844 2.406C2.156-1.656 1.516-.969 1.125-.969c-.14 0-.078-.015-.078-.344 0-.765.297-2.093.719-3.093.296-.688.453-.766 1.03-.766.282 0 .5.047.86.172zm0 0"/></symbol><symbol overflow="visible" id="d"><path d="M2.516-3.125c0-.422-.407-.844-.844-.844-.422 0-.86.422-.86.844 0 .438.438.86.86.86.437 0 .844-.422.844-.86zm0 0"/></symbol><symbol overflow="visible" id="e"><path d="M5.828-4.719c0-.687-.437-1.312-.875-1.312-.14 0-.406.093-.5.187l-.656.625.25.453c.25-.171.266-.171.375-.171.328 0 .375.14.375.625 0 1.765-1.016 3.578-2.078 3.578-.578 0-.813-.36-.813-1.141 0-1.25.422-2.25 1.657-3.781l-.235-.407c-.281.141-.437.188-.765.188-.5 0-.985-.047-1.47-.094-.155 0-.25.032-.5.125-.155.328-.327.844-.515 1.64h.5l.266-.64c.094-.203.203-.203.484-.203.219 0 .438.031.656.031.25 0 .438-.015.75-.046l-.109-.235C1.297-3.859.765-2.766.765-1.578c0 .922.688 1.703 1.454 1.703.5 0 1.062-.25 1.61-.734C4.39-1.125 5-2.016 5.358-2.844c.266-.594.47-1.406.47-1.875zm0 0"/></symbol><symbol overflow="visible" id="f"><path d="M3.094-8.86l-.219-.187c-.75.375-1.063.438-2.047.531l-.094.5h.735c.281 0 .265-.046.265.141 0 .156-.046.422-.078.578L.516-1.703C.344-1.093.28-.75.28-.484c0 .28.281.593.5.593.313 0 .86-.296 2.094-1.218l-.25-.438-.469.297c-.344.234-.5.313-.61.313-.093 0-.03.03-.03-.11s.03-.297.078-.437L3.14-8.813zm0 0"/></symbol><symbol overflow="visible" id="g"><path d="M6.219-1.25l-.188-.297-.453.297c-.297.188-.469.281-.625.281-.094 0-.016.047-.016-.078 0-.14.032-.328.079-.469L6.03-5.828l-.187-.219-.985.25-.14.719c-.172.906-.422 1.61-.782 2.156-.703 1.11-1.546 1.953-2.03 1.953-.11 0-.032.031-.032-.172 0-.187.031-.312.078-.625l.688-3.25c.03-.187.062-.343.062-.5 0-.234-.234-.515-.39-.515-.25 0-.813.281-1.704.922l-.39.296.172.485.546-.36c.36-.218.375-.234.485-.234.125 0 .062-.031.062.11a.792.792 0 0 1-.03.203l-.75 3.562c-.016.11-.048.375-.048.563 0 .265.328.609.563.609.75 0 2.297-1.375 3.297-3.016l-.235-.093-.437 1.687c-.094.313-.14.61-.14.797 0 .297.28.625.5.625.312 0 .859-.313 2.077-1.234zm0 0"/></symbol><symbol overflow="visible" id="h"><path d="M4.61-4.953c0-.563-.532-1.078-1.141-1.078-.781 0-2.188.843-2.672 1.61C.437-3.845.03-2.313.03-1.47.031-.547.703.125 1.563.125 2.25.125 3-.235 4.171-1.188l-.203-.468-.438.312c-.64.453-1.11.657-1.531.657-.578 0-.781-.313-.781-1.047 0-.313.031-.61.078-.844l.86-.219c.202-.047.515-.172.827-.297C4-3.547 4.61-4.219 4.61-4.954zm-1.173.187c0 .516-.265.954-.89 1.25a5.596 5.596 0 0 1-1.125.375l.062-.265c.188-.797.391-1.219.72-1.516.218-.219.515-.344.812-.344.343 0 .421.11.421.5zm0 0"/></symbol><symbol overflow="visible" id="j"><path d="M8.266-2.766a1.332 1.332 0 0 1-.047-.359c0-.11.015-.234.062-.484h-3.25v-3.266c-.25.063-.375.078-.484.078-.125 0-.25-.016-.5-.078v3.266H.78c.063.25.063.375.063.484 0 .125 0 .25-.063.5h3.266V.641c.25-.063.375-.079.5-.079.11 0 .234.016.484.079v-3.266h3.25zm0 0"/></symbol><symbol overflow="visible" id="k"><path d="M4.203-7.828a.735.735 0 0 1-.187-.14c-.063-.063-.11-.126-.22-.329-1.593 1.61-2.5 3.266-2.5 4.781v.797c0 1.516.907 3.172 2.5 4.781.11-.203.157-.265.22-.328.062-.062.125-.109.312-.203C2.875.063 2.281-1.344 2.281-2.719v-.797c0-1.39.594-2.78 2.047-4.25zm0 0"/></symbol><symbol overflow="visible" id="l"><path d="M5.125-.094v-.484l-.75-.047c-.656-.031-.64-.031-.64-.656v-7.172l-.313-.125c-.875.469-1.61.781-2.86 1.219l.125.718h.235l1.547-.687.031-.016c.063 0-.047-.015-.047.266v5.797c0 .625.016.625-.64.656L1-.578v.625L3.125 0l2 .047zm0 0"/></symbol><symbol overflow="visible" id="m"><path d="M8.266-2.766a1.332 1.332 0 0 1-.047-.359c0-.11.015-.234.062-.484h-7.5c.063.25.063.375.063.484 0 .125 0 .25-.063.5h7.5zm0 0"/></symbol><symbol overflow="visible" id="n"><path d="M3.766-2.719v-.797c0-1.515-.907-3.171-2.516-4.78-.11.202-.156.265-.203.327-.063.063-.125.11-.313.203 1.438 1.47 2.032 2.86 2.032 4.25v.797c0 1.375-.594 2.781-2.032 4.25.188.094.25.14.313.203.047.063.094.125.203.329C2.86.452 3.766-1.204 3.766-2.72zm0 0"/></symbol><symbol overflow="visible" id="i"><path d="M4.281-.11V-.5l-.656-.031c-.531-.031-.484.015-.484-.453v-5.344l-.282-.094c-.625.313-1.312.578-2.375.906l.125.594h.22l1.25-.516h.03c.047 0-.078-.062-.078.157v4.297c0 .468.047.421-.469.453L.86-.5v.531L2.61 0l1.672.031zm0 0"/></symbol><symbol overflow="visible" id="o"><path d="M4.75-.11c-.016-.187-.016-.265-.016-.39s0-.203.032-.547l-3.141.094 1.5-1.469c.938-.922 1.281-1.5 1.281-2.172 0-1.015-.906-1.781-2.14-1.781-.688 0-1.282.219-1.782.703l-.187 1.39h.547l.172-.53c.156-.516.359-.61 1-.61.843 0 1.203.344 1.203 1.094 0 .672-.36 1.234-1.453 2.297L.078-.391v.422L2.406 0l2.36.031zm0 0"/></symbol></defs><use xlink:href="#a" x=".592" y="9.082"/><use xlink:href="#b" x="13.205" y="9.082"/><use xlink:href="#c" x="25.614" y="9.082"/><use xlink:href="#d" x="33.576" y="9.082"/><use xlink:href="#e" x="39.59" y="9.082"/><use xlink:href="#c" x="45.627" y="9.082"/><use xlink:href="#f" x="50.935" y="9.082"/><use xlink:href="#g" x="54.259" y="9.082"/><use xlink:href="#h" x="60.906" y="9.082"/><use xlink:href="#i" x="65.557" y="11.856"/><use xlink:href="#j" x="73.714" y="9.082"/><use xlink:href="#k" x="85.454" y="9.082"/><use xlink:href="#l" x="90.523" y="9.082"/><use xlink:href="#m" x="99.155" y="9.082"/><use xlink:href="#c" x="110.895" y="9.082"/><use xlink:href="#n" x="116.203" y="9.082"/><g><use xlink:href="#d" x="123.926" y="9.082"/></g><g><use xlink:href="#e" x="129.939" y="9.082"/></g><g><use xlink:href="#c" x="135.977" y="9.082"/><use xlink:href="#f" x="141.285" y="9.082"/><use xlink:href="#g" x="144.608" y="9.082"/><use xlink:href="#h" x="151.255" y="9.082"/></g><g><use xlink:href="#o" x="155.907" y="11.856"/></g></svg>