<svg xmlns="http://www.w3.org/2000/svg" xmlns:xlink="http://www.w3.org/1999/xlink" width="173pt" height="29pt" viewBox="0 0 173 29"><defs><symbol overflow="visible" id="a"><path d="M5.953-5.875l-.203-.156c-.375.14-.64.203-1.016.234l-.453 1.703c-.14.563-.531 1.344-.922 1.938-.421.61-.89 1.094-1.156 1.094-.265 0-.11-.438-.094-.594l.172-2.328c.031-.36.047-.829.047-1.157 0-.53-.219-.89-.422-.89-.156 0-.422.125-1 .515L-.14-4.78l.266.437.734-.453c.063-.047.125-.11.204-.11.312 0 .125.485.109.673L.969-1.328l-.016.484c-.015.5.36.969.656.969.454 0 1.547-1.047 2.438-2.39l-.234-.094-.579 2.03c-.609 2.126-1.078 2.86-1.906 2.86-.422 0-.61-.187-.61-.61 0-.062.016-.155.032-.343l-.297-.11-.672.485c-.015.156-.015.219-.015.281 0 .516.578 1.063 1.125 1.063 1.265 0 2.703-1.61 3.406-3.828L6-5.828zm0 0"/></symbol><symbol overflow="visible" id="b"><path d="M8.266-4.078a1.419 1.419 0 0 1-.047-.36c0-.109.015-.234.062-.484h-7.5c.063.25.063.375.063.484 0 .125 0 .235-.063.5h7.5zm0 2.625a1.332 1.332 0 0 1-.047-.36c0-.109.015-.234.062-.484h-7.5c.063.25.063.375.063.485 0 .125 0 .25-.063.5h7.5zm0 0"/></symbol><symbol overflow="visible" id="c"><path d="M8.89-9.453v-.844H7.329L4.5 1.875h.266L3.328-2.359H1.297v.968h.86l1.75 5.125c.265-.046.421-.062.593-.062.156 0 .313.015.578.062L8.11-9.328h.782zm0 0"/></symbol><symbol overflow="visible" id="d"><path d="M5.656-2.813c0-.562-.281-1.171-.703-1.468-.297-.219-.672-.344-.953-.407.734-.562 1.125-1.203 1.125-1.906 0-1.062-1.016-1.906-2.344-1.906-.812 0-1.453.266-2.047.86L.328-5.954h.64l.266-.797c.125-.406.75-.688 1.375-.688.766 0 1.266.5 1.266 1.25 0 .907-.563 1.532-1.406 1.532-.11 0-.469.187-.469.187l-.25-.093-.14.671.202.188C2.297-3.938 2.516-4 2.845-4c1 0 1.422.516 1.422 1.594 0 1.219-.579 1.89-1.704 1.89-.546 0-.937-.14-1.296-.468C.984-1.25.859-1.438.578-2.25l-.562.219C.28-1.234.375-.797.469-.11c.765.25 1.281.343 1.734.343.953 0 2.14-.562 2.813-1.375.406-.484.64-1.109.64-1.671zm0 0"/></symbol><symbol overflow="visible" id="e"><path d="M4.203-7.828a.735.735 0 0 1-.187-.14c-.063-.063-.11-.126-.22-.329-1.593 1.61-2.5 3.266-2.5 4.781v.797c0 1.516.907 3.172 2.5 4.781.11-.203.157-.265.22-.328.062-.062.125-.109.312-.203C2.875.063 2.281-1.344 2.281-2.719v-.797c0-1.39.594-2.78 2.047-4.25zm0 0"/></symbol><symbol overflow="visible" id="f"><path d="M5.766-.094v-.484l-.704-.047c-.578-.031-.578-.063-.578-.781v-.75c.579 0 .829 0 1.282.062v-1L5.734-3s-.671-.188-1.062-.188h-.188v-1.53c0-2.126.016-3.157.094-3.72l-.281-.124-.984.343-3.438 5.64.203.423h3.125v.75c0 .718.016.765-.578.781l-.875.047v.625L3.813 0l1.953.047zM3.344-3.188H1l2.438-3.984-.235-.094v4.079zm0 0"/></symbol><symbol overflow="visible" id="g"><path d="M5.875-5.875c-.14-.078-.344-.156-.453-.156-.469 0-1.063.468-1.797 1.578l-.453.656.25.094-.078-.578c-.14-1.188-.594-1.75-1.297-1.75-.313 0-.688.14-.797.297L.484-4.61l.407.25c.437-.485.578-.61.812-.61.39 0 .516.36.719 1.532l.125.718-.438.656C1.594-1.25 1.297-.905.953-.905c-.172 0-.172.078-.203.015l-.188-.468-.453.062c0 .36-.03.516-.093.89-.032.141-.047.173-.063.329.219.125.531.203.672.203.39 0 .953-.375 1.328-.938l.906-1.406-.234-.094.125.829c.172 1.015.578 1.609 1 1.609.266 0 .75-.234 1.125-.578l.64-.578-.218-.469c-.578.453-.766.61-.953.61-.188 0-.25-.094-.453-.5.015.046-.11-.407-.172-.75L3.5-3.313l.39-.532c.563-.765.782-1.015 1.157-1.015.187 0 .187-.032.312.312l.36-.11.203-1.171zm0 0"/></symbol><symbol overflow="visible" id="h"><path d="M8.266-2.766a1.332 1.332 0 0 1-.047-.359c0-.11.015-.234.062-.484h-7.5c.063.25.063.375.063.484 0 .125 0 .25-.063.5h7.5zm0 0"/></symbol><symbol overflow="visible" id="j"><path d="M3.766-2.719v-.797c0-1.515-.907-3.171-2.516-4.78-.11.202-.156.265-.203.327-.063.063-.125.11-.313.203 1.438 1.47 2.032 2.86 2.032 4.25v.797c0 1.375-.594 2.781-2.032 4.25.188.094.25.14.313.203.047.063.094.125.203.329C2.86.452 3.766-1.204 3.766-2.72zm0 0"/></symbol><symbol overflow="visible" id="k"><path d="M5.719-.094c-.016-.25-.016-.375-.016-.547 0-.14 0-.265.031-.671l-4.28.125.093.234 2.187-2.313C4.891-4.5 5.281-5.25 5.281-6.14 5.281-7.516 4.22-8.5 2.703-8.5c-.86 0-1.562.281-2.172.906L.312-5.766h.594l.188-.687c.203-.688.5-.86 1.297-.86 1.03 0 1.546.516 1.546 1.532 0 .89-.468 1.687-1.828 3.11L.047-.454v.5L2.859 0l2.875.047zm0 0"/></symbol><symbol overflow="visible" id="l"><path d="M2.703-1.531L2.47-1.75c-.36.125-.563.203-1.328.406C1.047-.328.78.344.016 1.625l.312.25.61-.281C1.905.328 2.405-.516 2.75-1.47zm0 0"/></symbol><symbol overflow="visible" id="m"><path d="M4 1.297C3.203 1.094 2.937.719 2.937.078v-1.61c0-.78-.312-1.405-.64-1.593.328-.172.64-.797.64-1.578v-1.61c0-.64.266-1.015 1.266-1.28-.14-.235-.14-.22-.156-.298-.031-.078-.031-.171-.031-.406-1.266.344-2.063 1.078-2.063 1.985v1.609c0 .828-.203 1.219-1.187 1.219.078.203.078.28.078.359 0 .094 0 .172-.078.375.984 0 1.187.39 1.187 1.219v1.61c0 .905.797 1.64 2.063 1.984 0-.25 0-.329.03-.407.016-.078.016-.062.157-.312zm0 0"/></symbol><symbol overflow="visible" id="n"><path d="M5.688-4.5c0-2.625-.907-4-2.547-4C1.297-8.5.203-6.89.203-4c0 1.39.281 2.703.703 3.281.422.594 1.203.953 1.938.953 1.812 0 2.844-1.687 2.844-4.734zm-1.282.594C4.406-1.36 4.094-.437 3-.437c-1.156 0-1.516-1.079-1.516-4 0-2.516.313-3.375 1.438-3.375 1.172 0 1.484 1.03 1.484 3.906zm0 0"/></symbol><symbol overflow="visible" id="o"><path d="M8.328-.813a3.29 3.29 0 0 1-.031-.39c0-.14.015-.266.047-.469l-6.39-2.656v.266l6.39-2.657a2.946 2.946 0 0 1-.047-.468c0-.125.015-.266.062-.61L.797-4.625c.047.188.047.313.047.422 0 .125 0 .25-.047.437L8.359-.594zm0 2.032c-.015-.125-.031-.235-.031-.36s.015-.25.062-.484H.781c.063.234.063.36.063.484 0 .125 0 .235-.063.485H8.36zm0 0"/></symbol><symbol overflow="visible" id="p"><path d="M5.125-.094v-.484l-.75-.047c-.656-.031-.64-.031-.64-.656v-7.172l-.313-.125c-.875.469-1.61.781-2.86 1.219l.125.718h.235l1.547-.687.031-.016c.063 0-.047-.015-.047.266v5.797c0 .625.016.625-.64.656L1-.578v.625L3.125 0l2 .047zm0 0"/></symbol><symbol overflow="visible" id="q"><path d="M4.14-2.875a.648.648 0 0 1-.046-.25c0-.078.015-.156.093-.36C3.22-3.484 3-3.874 3-4.702v-1.61c0-.906-.781-1.64-2.094-2 .031.25.031.344 0 .422-.015.079-.015.063-.187.282 1.031.28 1.297.656 1.297 1.296v1.61c0 .781.312 1.406.656 1.578-.344.188-.656.813-.656 1.594v1.61c0 .64-.266 1.015-1.297 1.28.172.235.172.22.187.297.031.078.031.157 0 .407C2.22 1.719 3 .984 3 .077v-1.61c0-.827.219-1.218 1.188-1.218zm0 0"/></symbol><symbol overflow="visible" id="i"><path d="M4.75-.11c-.016-.187-.016-.265-.016-.39s0-.203.032-.547l-3.141.094 1.5-1.469c.938-.922 1.281-1.5 1.281-2.172 0-1.015-.906-1.781-2.14-1.781-.688 0-1.282.219-1.782.703l-.187 1.39h.547l.172-.53c.156-.516.359-.61 1-.61.843 0 1.203.344 1.203 1.094 0 .672-.36 1.234-1.453 2.297L.078-.391v.422L2.406 0l2.36.031zm0 0"/></symbol></defs><use xlink:href="#a" x=".975" y="20.748"/><use xlink:href="#b" x="10.479" y="20.748"/><use xlink:href="#c" x="24.091" y="10.392"/><path d="M32.496.707H86.73" fill="none" stroke-width=".717" stroke="#000" stroke-miterlimit="10"/><use xlink:href="#d" x="32.495" y="12.141"/><use xlink:href="#e" x="38.473" y="12.141"/><use xlink:href="#f" x="43.542" y="12.141"/><use xlink:href="#g" x="49.519" y="12.141"/><use xlink:href="#h" x="58.294" y="12.141"/><use xlink:href="#g" x="70.034" y="12.141"/><use xlink:href="#i" x="76.161" y="8.602"/><use xlink:href="#j" x="81.661" y="12.141"/><use xlink:href="#h" x="89.384" y="12.141"/><use xlink:href="#g" x="101.124" y="12.141"/><path d="M24.09 17.762h83.16" fill="none" stroke-width=".717" stroke="#000" stroke-miterlimit="10"/><use xlink:href="#k" x="62.682" y="28.711"/><use xlink:href="#l" x="108.446" y="20.748"/><use xlink:href="#m" x="113.419" y="20.748"/><use xlink:href="#n" x="118.381" y="20.748"/><g><use xlink:href="#o" x="127.682" y="20.748"/></g><g><use xlink:href="#g" x="140.163" y="20.748"/></g><g><use xlink:href="#o" x="149.608" y="20.748"/></g><g><use xlink:href="#p" x="162.077" y="20.748"/><use xlink:href="#q" x="168.055" y="20.748"/></g></svg>