<svg xmlns="http://www.w3.org/2000/svg" xmlns:xlink="http://www.w3.org/1999/xlink" width="188" height="36" viewBox="0 0 141 27"><defs><symbol overflow="visible" id="a"><path d="M2.797-2.656a65.21 65.21 0 0 0-.188-.875c-.062-.29-.125-.555-.187-.797-.063-.25-.121-.41-.172-.484-.043-.083-.09-.133-.14-.157a.289.289 0 0 0-.172-.047.477.477 0 0 0-.235.063.787.787 0 0 0-.219.187 4.023 4.023 0 0 0-.296.422l-.391-.25c.25-.375.488-.648.719-.828.226-.187.492-.281.796-.281.126 0 .227.016.313.047a.604.604 0 0 1 .25.125c.07.054.133.125.188.218.05.086.101.204.156.36.05.156.097.351.14.578.051.23.094.469.125.719h.063c.375-.531.656-.914.844-1.156.195-.25.363-.43.5-.547.132-.125.257-.207.375-.25.125-.051.289-.079.5-.079.175 0 .328.024.453.063l-.235 1.063h-.421c-.024-.165-.09-.25-.204-.25a.26.26 0 0 0-.109.03.64.64 0 0 0-.156.079 1.516 1.516 0 0 0-.25.219 10.63 10.63 0 0 0-.36.421c-.136.157-.277.329-.421.516l-.391.5c.07.375.14.7.203.969l.156.687c.051.18.094.32.125.422.04.106.082.184.125.235a.32.32 0 0 0 .125.109.474.474 0 0 0 .469-.078c.102-.082.25-.27.438-.563l.375.25c-.274.407-.516.696-.735.86-.219.164-.484.25-.797.25A.864.864 0 0 1 3.734 0a.958.958 0 0 1-.312-.281c-.086-.133-.156-.344-.219-.625-.125-.5-.2-.883-.219-1.156h-.062c-.418.585-.73 1.007-.938 1.265-.199.25-.367.438-.5.563-.125.117-.25.199-.375.25C.992.066.832.094.625.094.445.094.297.066.172.016l.234-1.063h.422c.02.168.086.25.203.25.051 0 .11-.015.172-.047a1.1 1.1 0 0 0 .25-.203c.113-.113.27-.289.469-.531.207-.238.5-.598.875-1.078zm0 0"/></symbol><symbol overflow="visible" id="c"><path d="M.875-4.25v-.781h7.219v.781zm0 2.422v-.781h7.219v.78zm7.469-1.594zm0 0"/></symbol><symbol overflow="visible" id="d"><path d="M1.688-4.14c.207 0 .375.07.5.202.124.126.187.297.187.516 0 .211-.063.383-.188.516a.678.678 0 0 1-.5.187c-.199 0-.359-.062-.484-.187a.722.722 0 0 1-.187-.516c0-.219.062-.39.187-.515a.636.636 0 0 1 .484-.204zm0 0"/></symbol><symbol overflow="visible" id="e"><path d="M4.938-5.469v1.219h-.75a1.834 1.834 0 0 0-.25-.594.751.751 0 0 0-.344-.297 1.044 1.044 0 0 0-.469-.093c-.273 0-.516.09-.734.265-.211.168-.375.434-.5.797-.118.356-.172.793-.172 1.313 0 .336.02.64.062.921.051.274.13.508.235.704.113.199.265.355.453.468.187.106.422.157.703.157.27 0 .52-.051.75-.157.226-.113.469-.3.719-.562l.343.39c-.199.22-.375.387-.53.5a2.811 2.811 0 0 1-.5.297c-.169.086-.34.141-.517.172-.167.04-.351.063-.546.063-.743 0-1.309-.242-1.704-.735C.801-1.129.61-1.836.61-2.766c0-.582.11-1.093.329-1.53.218-.446.523-.79.921-1.032.395-.25.852-.375 1.375-.375.313 0 .602.023.875.062.282.032.555.09.829.172zm0 0"/></symbol><symbol overflow="visible" id="f"><path d="M3.125.094c-.813 0-1.438-.239-1.875-.719C.82-1.102.61-1.813.61-2.75c0-.645.113-1.188.343-1.625.227-.445.535-.781.922-1a2.728 2.728 0 0 1 1.344-.328c.832 0 1.46.246 1.89.734.426.48.641 1.18.641 2.094 0 .648-.11 1.195-.328 1.64-.211.45-.512.782-.906 1-.399.22-.86.329-1.391.329zM1.719-2.875c0 .805.125 1.422.375 1.86.258.43.629.64 1.11.64.257 0 .483-.063.671-.188.188-.125.336-.289.453-.5.113-.218.192-.468.234-.75.051-.289.079-.585.079-.89 0-.57-.063-1.047-.188-1.422-.125-.383-.297-.664-.516-.844a1.166 1.166 0 0 0-.75-.265c-.468 0-.835.203-1.093.609-.25.406-.375.992-.375 1.75zm0 0"/></symbol><symbol overflow="visible" id="g"><path d="M4.5-4.313h-.563a2.074 2.074 0 0 0-.312-.562.957.957 0 0 0-.406-.281 1.638 1.638 0 0 0-.531-.078c-.313 0-.563.074-.75.218a.716.716 0 0 0-.282.594c0 .18.035.328.11.453.07.117.187.227.343.328.157.094.43.23.829.407.406.168.71.324.921.468.22.149.391.32.516.516.125.188.188.414.188.672 0 .312-.055.574-.157.781-.105.211-.258.383-.453.516A1.68 1.68 0 0 1 3.266 0a3.69 3.69 0 0 1-.86.094c-.324 0-.64-.028-.953-.078a5.645 5.645 0 0 1-.906-.188V-1.39h.578c.102.356.258.618.469.782.207.156.492.234.86.234.132 0 .269-.008.405-.031.133-.031.254-.078.36-.14a.793.793 0 0 0 .25-.282.997.997 0 0 0 .094-.453.874.874 0 0 0-.126-.485 1.09 1.09 0 0 0-.359-.343c-.156-.102-.445-.243-.86-.422a5.693 5.693 0 0 1-.859-.422 1.844 1.844 0 0 1-.5-.5 1.25 1.25 0 0 1-.187-.688c0-.32.086-.597.265-.828.176-.238.426-.422.75-.547a3.278 3.278 0 0 1 1.157-.187c.258 0 .508.016.75.047.238.023.539.07.906.14zm0 0"/></symbol><symbol overflow="visible" id="h"><path d="M2.063-2.969c0 1.367.218 2.492.656 3.375.445.895 1.117 1.492 2.015 1.797l-.14.453C3.457 2.352 2.582 1.703 1.969.703c-.606-.988-.907-2.191-.907-3.61 0-1.405.301-2.609.907-3.609.613-1 1.488-1.648 2.625-1.953l.172.453c-.918.305-1.602.891-2.047 1.766-.438.867-.656 1.96-.656 3.281zm0 0"/></symbol><symbol overflow="visible" id="i"><path d="M3.922.078l-.547 2.438h-.922L2.984.078c-.773-.055-1.367-.281-1.78-.687C.784-1.016.577-1.563.577-2.25c0-.594.149-1.148.453-1.672a3.595 3.595 0 0 1 1.282-1.281c.55-.32 1.207-.488 1.968-.5l.547-2.516h.922l-.547 2.516C5.984-5.641 6.582-5.406 7-5c.414.398.625.938.625 1.625 0 .523-.094.996-.281 1.422-.188.418-.461.789-.813 1.11a3.777 3.777 0 0 1-1.14.702c-.407.145-.899.22-1.47.22zm1.172-5.312L4.03-.391a2.42 2.42 0 0 0 1.282-.421c.394-.27.703-.63.921-1.079.227-.457.344-.953.344-1.484 0-.313-.058-.602-.172-.875a1.579 1.579 0 0 0-.5-.672c-.23-.176-.5-.281-.812-.312zm-.922.015c-.7.032-1.305.328-1.813.89-.5.563-.75 1.259-.75 2.079 0 .512.133.938.407 1.281.27.344.629.54 1.078.578zm0 0"/></symbol><symbol overflow="visible" id="j"><path d="M2.906-2.969c0-1.32-.219-2.414-.656-3.281A3.389 3.389 0 0 0 .219-8.016l.156-.453c1.145.305 2.02.953 2.625 1.953.613 1 .922 2.204.922 3.61 0 1.418-.309 2.62-.922 3.61-.605 1-1.48 1.648-2.625 1.952l-.14-.453C1.14 1.898 1.812 1.301 2.25.406c.438-.883.656-2.008.656-3.375zm0 0"/></symbol><symbol overflow="visible" id="k"><path d="M.875-3.047v-.781h7.219v.781zm0 0"/></symbol><symbol overflow="visible" id="l"><path d="M2.86.016a55.642 55.642 0 0 0-.454-2.485A59.384 59.384 0 0 0 2-4.375c-.086-.3-.172-.492-.266-.578a.34.34 0 0 0-.203-.063.54.54 0 0 0-.36.157c-.105.093-.234.265-.39.515l-.39-.25c.27-.406.52-.691.75-.86.238-.163.504-.25.796-.25.157 0 .29.028.407.079.082.031.16.086.234.156a.699.699 0 0 1 .203.297c.063.125.114.274.156.438.051.156.102.386.157.687.094.5.18 1.031.265 1.594.094.555.172 1.07.235 1.547.375-.551.691-1.086.953-1.61.27-.52.46-.972.578-1.359.113-.383.172-.703.172-.953 0-.176-.043-.297-.125-.36-.074-.07-.203-.113-.39-.125l.062-.296h1.531l.172.296a20.29 20.29 0 0 1-1.219 2.61C4.828-1.797 4.254-.895 3.61 0c-.617.863-1.125 1.484-1.53 1.86-.294.257-.571.445-.829.562-.21.094-.434.14-.672.14-.086 0-.183-.011-.297-.03a1.012 1.012 0 0 1-.234-.048l.25-1.14H.75c0 .25.086.375.266.375.226 0 .488-.14.78-.422.302-.281.657-.711 1.063-1.281zm0 0"/></symbol><symbol overflow="visible" id="m"><path d="M2.25-7.906v1.14H1.172v-1.14zM.562-.281a2.61 2.61 0 0 0 .329-.125.63.63 0 0 0 .266-.438c.03-.125.046-.328.046-.61V-4c0-.25-.008-.445-.016-.594a.94.94 0 0 0-.093-.375.396.396 0 0 0-.203-.203 1.392 1.392 0 0 0-.407-.125v-.312l1.375-.047h.344v4.187c0 .336.016.57.047.703a.543.543 0 0 0 .172.313c.094.062.238.121.437.172V0H.563zm0 0"/></symbol><symbol overflow="visible" id="n"><path d="M6.281 0H3.97v-.281a2.61 2.61 0 0 0 .328-.125.63.63 0 0 0 .266-.438 2.8 2.8 0 0 0 .046-.593v-1.547c0-.27-.011-.516-.03-.735a2.531 2.531 0 0 0-.079-.547.943.943 0 0 0-.125-.328.853.853 0 0 0-.188-.203A.985.985 0 0 0 3.563-5c-.156 0-.304.031-.437.094-.137.062-.29.172-.453.328a1.95 1.95 0 0 0-.36.437.997.997 0 0 0-.109.485v2.187c0 .336.016.57.047.703a.543.543 0 0 0 .172.313c.094.062.238.121.437.172V0H.563v-.281A2.61 2.61 0 0 0 .89-.406a.63.63 0 0 0 .266-.438c.03-.125.046-.328.046-.61V-4c0-.25-.008-.445-.016-.594a.94.94 0 0 0-.093-.375.396.396 0 0 0-.203-.203 1.392 1.392 0 0 0-.407-.125v-.312l1.375-.047h.36l-.063.953.078.031c.29-.289.524-.5.704-.625.175-.125.351-.223.53-.297.188-.07.38-.11.579-.11.207 0 .394.028.562.079.164.055.313.133.438.234a.95.95 0 0 1 .312.375c.082.149.145.329.188.547.039.211.062.477.062.797v2.203c0 .274.004.469.016.594.02.117.05.21.094.281.039.063.097.121.172.172.07.043.203.09.39.14zm0 0"/></symbol><symbol overflow="visible" id="o"><path d="M4.906-3.047V.328h-.843v-3.375H.874v-.781h3.188v-3.375h.843v3.375h3.188v.781zm0 0"/></symbol><symbol overflow="visible" id="b"><path d="M2.625-4.656v.343L1.172-.796.656-.953 1.5-4.656zm0 0"/></symbol></defs><use xlink:href="#a" x=".869" y="9.745"/><use xlink:href="#b" x="7.886" y="5.366"/><use xlink:href="#c" x="14.805" y="9.745"/><use xlink:href="#a" x="27.047" y="9.745"/><use xlink:href="#d" x="36.432" y="9.745"/><use xlink:href="#e" x="42.457" y="9.745"/><use xlink:href="#f" x="47.73" y="9.745"/><use xlink:href="#g" x="54.078" y="9.745"/><use xlink:href="#h" x="59.219" y="9.745"/><use xlink:href="#i" x="64.18" y="9.745"/><use xlink:href="#j" x="72.596" y="9.745"/><use xlink:href="#k" x="80.224" y="9.745"/><use xlink:href="#l" x="91.808" y="9.745"/><use xlink:href="#d" x="101.361" y="9.745"/><use xlink:href="#g" x="107.386" y="9.745"/><use xlink:href="#m" x="112.527" y="9.745"/><use xlink:href="#n" x="115.85" y="9.745"/><use xlink:href="#h" x="122.521" y="9.745"/><use xlink:href="#i" x="127.483" y="9.745"/><use xlink:href="#j" x="135.911" y="9.745"/><use xlink:href="#l" x=".869" y="24.19"/><use xlink:href="#b" x="8.142" y="19.812"/><use xlink:href="#c" x="15.061" y="24.19"/><use xlink:href="#a" x="27.303" y="24.19"/><g><use xlink:href="#d" x="36.688" y="24.19"/></g><g><use xlink:href="#g" x="42.713" y="24.19"/><use xlink:href="#m" x="47.854" y="24.19"/><use xlink:href="#n" x="51.178" y="24.19"/><use xlink:href="#h" x="57.849" y="24.19"/><use xlink:href="#i" x="62.81" y="24.19"/></g><g><use xlink:href="#j" x="71.238" y="24.19"/></g><g><use xlink:href="#o" x="78.854" y="24.19"/></g><g><use xlink:href="#l" x="90.439" y="24.19"/></g><g><use xlink:href="#d" x="99.991" y="24.19"/></g><g><use xlink:href="#e" x="106.028" y="24.19"/><use xlink:href="#f" x="111.3" y="24.19"/><use xlink:href="#g" x="117.649" y="24.19"/><use xlink:href="#h" x="122.789" y="24.19"/><use xlink:href="#i" x="127.751" y="24.19"/></g><g><use xlink:href="#j" x="136.167" y="24.19"/></g></svg>