<svg xmlns:xlink="http://www.w3.org/1999/xlink" width="135.167ex" height="12.333ex" style="vertical-align:-5.667ex;margin-bottom:1px;margin-top:1px" viewBox="0 -2904.8 58161.5 5309.7" xmlns="http://www.w3.org/2000/svg"><defs><path stroke-width="10" id="a" d="M756 545c0-95-105-169-209-188 97-11 155-69 155-141C702 118 584 0 426 0H69C51 0 42 0 42 11c0 20 10 20 27 20 79 0 81 8 91 47l134 537c3 12 4 15 4 19 0 13-9 14-27 16-17 2-38 2-38 2-19 0-28 0-28 11 0 20 10 20 29 20h336c120 0 186-64 186-138zm-91 4c0 44-21 103-109 103H427c-43 0-45-3-54-38l-62-248h146c122 0 208 95 208 183zm-56-322c0 43-19 117-115 117H305L236 65c-5-18-5-20-5-23 0-8 3-9 13-10 6-1 8-1 22-1h136c118 0 207 97 207 196z"/><path stroke-width="10" id="b" d="M332-238c0-5-5-10-10-10-2 0-4 1-6 2-110 83-215 283-215 454v84c0 171 105 371 215 454 2 1 4 2 6 2 5 0 10-5 10-10 0-3-2-6-4-8-104-78-173-278-173-438v-84c0-160 69-360 173-438 2-2 4-5 4-8z"/><path stroke-width="10" id="c" d="M330 420c0-20-10-20-30-20h-94l-74-295c-4-17-6-24-6-48 0-33 10-46 31-46 34 0 87 24 130 128 5 11 6 14 15 14 4 0 12 0 12-10 0-8-57-154-159-154-54 0-92 38-92 92 0 18 4 35 76 319H51c-20 0-28 0-28 12 0 19 10 19 30 19h94l39 159c9 35 37 36 40 36 17 0 29-10 29-27 0-6-5-26-41-168h88c18 0 28 0 28-11z"/><path stroke-width="10" id="d" d="M288 208c0-171-105-371-215-454-2-1-4-2-6-2-5 0-10 5-10 10 0 3 2 6 4 8 104 78 173 278 173 438v84c0 160-69 360-173 438-2 2-4 5-4 8 0 5 5 10 10 10 2 0 4-1 6-2 110-83 215-283 215-454v-84z"/><path stroke-width="10" id="e" d="M722 347c0-11-9-20-20-20H76c-11 0-20 9-20 20s9 20 20 20h626c11 0 20-9 20-20zm0-194c0-11-9-20-20-20H76c-11 0-20 9-20 20s9 20 20 20h626c11 0 20-9 20-20z"/><path stroke-width="10" id="f" d="M256-230c0-11-9-20-20-20H114V750h122c11 0 20-9 20-20s-9-20-20-20h-82v-920h82c11 0 20-9 20-20z"/><path stroke-width="10" id="g" d="M419 0c-35 3-122 3-162 3S130 3 95 0v31h32c90 0 93 12 93 48v518c-52-26-111-26-131-26v31c32 0 120 0 182 64 23 0 23-2 23-26V79c0-37 3-48 93-48h32V0z"/><path stroke-width="10" id="h" d="M467 432c0-4-22-52-117-145-36-36-98-90-98-90-36-31-65-56-119-114 9 3 27 3 27 3 21 0 36-4 70-17 21-7 39-13 59-13 33 0 97 19 120 84 3 7 5 13 14 13 8 0 12-5 12-10 0-27-58-154-157-154-29 0-47 16-64 37-25 29-35 38-58 38-32 0-62-27-85-62-6-11-8-13-16-13 0 0-12 0-12 10 0 7 35 64 103 131l90 84c19 16 103 88 139 131-26 0-37 0-77 15-23 8-42 15-63 15-8 0-66-1-85-47-2-6-4-11-13-11s-12 6-12 11c0 21 46 114 121 114 33 0 50-20 69-43 15-17 27-32 51-32s45 16 75 64c5 9 8 11 15 11 0 0 11 0 11-10z"/><path stroke-width="10" id="i" d="M192 250c0-29-24-53-53-53s-53 24-53 53 24 53 53 53 53-24 53-53z"/><path stroke-width="10" id="j" d="M449 174L421 0H50c0 24 0 26 11 37l192 214c55 62 105 141 105 221 0 82-43 163-134 163-58 0-112-37-135-102 3 1 5 1 13 1 35 0 53-26 53-52 0-41-35-53-52-53-3 0-53 0-53 56 0 89 74 181 187 181 122 0 212-80 212-194 0-100-60-154-216-292L127 77h180c22 0 88 0 95 8 10 15 17 59 22 89h25z"/><path stroke-width="10" id="k" d="M457 171c0-102-91-193-213-193C135-22 42 44 42 135c0 44 32 58 56 58 29 0 56-20 56-56 0-38-31-60-66-55C123 23 198 6 241 6c44 0 113 29 113 165 0 98-37 166-119 166h-44c-17 0-24 0-24 11 0 10 7 11 15 12 7 0 31 2 39 3 25 1 59 4 89 52 26 44 28 102 28 114 0 90-55 112-96 112-36 0-102-13-133-62 15 0 62 0 62-50 0-29-20-51-51-51-29 0-51 19-51 52 0 76 76 136 177 136 96 0 184-56 184-138 0-79-58-149-140-176 104-21 167-99 167-181z"/><path stroke-width="10" id="l" d="M164-250H42c-11 0-20 9-20 20s9 20 20 20h82v920H42c-11 0-20 9-20 20s9 20 20 20h122V-250z"/><path stroke-width="10" id="q" d="M460 320c0-79-5-157-37-226C379-1 303-22 249-22 200-22 127-2 84 79c-41 76-45 166-45 241 0 80 5 158 37 227 41 93 114 119 174 119 42 0 124-16 170-112 35-74 40-154 40-234zm-83 12c0 63 0 139-10 195-19 99-85 117-118 117-25 0-100-9-119-128-8-54-8-120-8-184 0-59 0-151 11-211C151 25 210 0 249 0c45 0 102 30 117 125 11 64 11 132 11 207z"/><path stroke-width="10" id="p" d="M722 250c0-11-9-20-20-20H76c-11 0-20 9-20 20s9 20 20 20h626c11 0 20-9 20-20z"/><path stroke-width="10" id="r" d="M457 204c0-132-95-226-206-226-93 0-209 71-209 338 0 221 135 350 263 350 83 0 127-48 127-108 0-39-30-48-46-48-22 0-46 15-46 46 0 45 40 45 55 45-22 34-64 40-88 40-51 0-175-36-175-289v-24c20 48 57 99 125 99 111 0 200-96 200-223zm-90 1c0 49 0 100-18 137-31 62-77 62-93 62-90 0-122-100-122-178 0-18 0-98 18-145 6-15 36-75 99-75 23 0 69 5 99 65 17 36 17 86 17 134z"/><path stroke-width="10" id="m" d="M647 1470c0-17-13-30-30-30H381V0h-60v1500h296c17 0 30-13 30-30z"/><path stroke-width="10" id="o" d="M647 30c0-17-13-30-30-30H321v1500h60V60h236c17 0 30-13 30-30z"/><path stroke-width="10" id="n" d="M381 0h-60v1000h60V0z"/><path stroke-width="10" id="s" d="M346 0h-60v1440H50c-17 0-30 13-30 30s13 30 30 30h296V0z"/><path stroke-width="10" id="u" d="M346 0H50C33 0 20 13 20 30s13 30 30 30h236v1440h60V0z"/><path stroke-width="10" id="t" d="M346 1000V0h-60v1000h60z"/><path stroke-width="10" id="v" d="M754 532c0-112-139-216-281-216H303L241 66c-1-6-3-11-3-17 0-18 28-18 65-18 19 0 28 0 28-11 0-20-13-20-20-20-21 0-43 2-65 2l-64 1L55 0c-3 0-15 0-15 12 0 19 11 19 28 19 79 0 81 8 91 47l134 537c3 12 4 15 4 19 0 11-6 14-22 16-12 1-30 2-43 2-20 0-29 0-29 12 0 19 11 19 30 19h324c131 0 197-74 197-151zm-93 24c0 69-53 96-136 96h-96c-43 0-45-3-54-38l-68-272h141c44 0 104 8 154 53 39 36 59 122 59 161z"/><path stroke-width="10" id="w" d="M471 165H371V78c0-36 2-47 76-47h21V0c-41 3-94 3-136 3s-94 0-135-3v31h21c74 0 76 11 76 47v87H28v31l307 469c8 12 11 12 20 12 16 0 16-6 16-26V196h100v-31zm-171 31v373L56 196h244z"/></defs><g stroke="currentColor" fill="currentColor" stroke-width="0" transform="scale(1 -1)"><use xlink:href="#a"/><use xlink:href="#b" x="764"/><use xlink:href="#c" x="1158"/><use xlink:href="#d" x="1524"/><use xlink:href="#e" x="2195"/><g transform="translate(3256)"><use xlink:href="#f"/><g transform="translate(450)"><use xlink:href="#g" x="-11" y="-42"/><g transform="translate(1494 -42)"><use xlink:href="#b"/><use xlink:href="#h" x="394"/><use xlink:href="#i" x="1088"/><use xlink:href="#c" x="1593"/><use xlink:href="#d" x="1959"/></g><g transform="translate(4847 -42)"><use xlink:href="#b"/><use xlink:href="#h" x="394"/><use xlink:href="#i" x="1088"/><use xlink:href="#c" x="1593"/><g transform="translate(1959)"><use xlink:href="#d"/><use transform="scale(.707)" xlink:href="#j" x="557" y="513"/></g></g><g transform="translate(8658 -42)"><use xlink:href="#b"/><use xlink:href="#h" x="394"/><use xlink:href="#i" x="1088"/><use xlink:href="#c" x="1593"/><g transform="translate(1959)"><use xlink:href="#d"/><use transform="scale(.707)" xlink:href="#k" x="557" y="513"/></g></g></g><use xlink:href="#l" x="12086"/></g><use xlink:href="#i" x="15847"/><g transform="translate(16353 2850)"><use xlink:href="#m" y="-1510"/><use xlink:href="#n" transform="matrix(1 0 0 2.21569 0 -3707.843)"/><use xlink:href="#o" y="-5190"/></g><g transform="translate(17181)"><use xlink:href="#g" x="391" y="2050"/><g transform="translate(0 650)"><use xlink:href="#p"/><use xlink:href="#k" x="783"/></g><use xlink:href="#k" x="391" y="-750"/><g transform="translate(0 -2150)"><use xlink:href="#p"/><use xlink:href="#g" x="783"/></g></g><g transform="translate(19469)"><use xlink:href="#q" x="391" y="2050"/><use xlink:href="#k" x="391" y="650"/><g transform="translate(0 -750)"><use xlink:href="#p"/><use xlink:href="#r" x="783"/></g><use xlink:href="#k" x="391" y="-2150"/></g><g transform="translate(21757)"><use xlink:href="#q" x="391" y="2050"/><use xlink:href="#q" x="391" y="650"/><use xlink:href="#k" x="391" y="-750"/><g transform="translate(0 -2150)"><use xlink:href="#p"/><use xlink:href="#k" x="783"/></g></g><g transform="translate(24045)"><use xlink:href="#q" y="2050"/><use xlink:href="#q" y="650"/><use xlink:href="#q" y="-750"/><use xlink:href="#g" y="-2150"/></g><g transform="translate(24717 2850)"><use xlink:href="#s" y="-1510"/><use xlink:href="#t" transform="matrix(1 0 0 2.21569 0 -3707.843)"/><use xlink:href="#u" y="-5190"/></g><use xlink:href="#i" x="25611"/><g transform="translate(26117 2850)"><use xlink:href="#m" y="-1510"/><use xlink:href="#n" transform="matrix(1 0 0 2.21569 0 -3707.843)"/><use xlink:href="#o" y="-5190"/></g><g transform="translate(26945 2050)"><use xlink:href="#v"/><use transform="scale(.707)" xlink:href="#g" x="914" y="-213"/></g><g transform="translate(26945 650)"><use xlink:href="#v"/><use transform="scale(.707)" xlink:href="#j" x="914" y="-213"/></g><g transform="translate(26945 -750)"><use xlink:href="#v"/><use transform="scale(.707)" xlink:href="#k" x="914" y="-213"/></g><g transform="translate(26945 -2150)"><use xlink:href="#v"/><use transform="scale(.707)" xlink:href="#w" x="914" y="-213"/></g><g transform="translate(28216 2850)"><use xlink:href="#s" y="-1510"/><use xlink:href="#t" transform="matrix(1 0 0 2.21569 0 -3707.843)"/><use xlink:href="#u" y="-5190"/></g><use xlink:href="#e" x="29166"/><g transform="translate(30227)"><use xlink:href="#f"/><g transform="translate(450)"><use xlink:href="#g" x="-11" y="-71"/><use xlink:href="#c" x="1494" y="-71"/><g transform="translate(2860 -71)"><use xlink:href="#c"/><use transform="scale(.707)" xlink:href="#j" x="517" y="513"/></g><g transform="translate(4683 -71)"><use xlink:href="#c"/><use transform="scale(.707)" xlink:href="#k" x="517" y="513"/></g></g><use xlink:href="#l" x="6123"/></g><use xlink:href="#i" x="36856"/><g><g transform="translate(37361 2890)"><use xlink:href="#m" y="-1510"/><use xlink:href="#n" transform="matrix(1 0 0 2.29587 0 -3788.834)"/><use xlink:href="#o" y="-5272"/></g><g transform="translate(38189)"><use xlink:href="#g" y="2090"/><use xlink:href="#q" y="690"/><use xlink:href="#q" y="-750"/><use xlink:href="#q" y="-2191"/></g><g transform="translate(39694)"><use xlink:href="#q" y="2090"/><use xlink:href="#h" x="16" y="690"/><use xlink:href="#q" y="-750"/><use xlink:href="#q" y="-2191"/></g><g transform="translate(41199)"><use xlink:href="#q" x="212" y="2090"/><use xlink:href="#q" x="212" y="690"/><g transform="translate(0 -750)"><use xlink:href="#h"/><use transform="scale(.707)" xlink:href="#j" x="668" y="513"/></g><use xlink:href="#q" x="212" y="-2191"/></g><g transform="translate(43129)"><use xlink:href="#q" x="212" y="2090"/><use xlink:href="#q" x="212" y="690"/><use xlink:href="#q" x="212" y="-750"/><g transform="translate(0 -2191)"><use xlink:href="#h"/><use transform="scale(.707)" xlink:href="#k" x="668" y="513"/></g></g><g transform="translate(44226 2890)"><use xlink:href="#s" y="-1510"/><use xlink:href="#t" transform="matrix(1 0 0 2.29587 0 -3788.834)"/><use xlink:href="#u" y="-5272"/></g></g><use xlink:href="#i" x="45120"/><g><g transform="translate(45625 2850)"><use xlink:href="#m" y="-1510"/><use xlink:href="#n" transform="matrix(1 0 0 2.21569 0 -3707.843)"/><use xlink:href="#o" y="-5190"/></g><g transform="translate(46453)"><use xlink:href="#g" x="391" y="2050"/><g transform="translate(0 650)"><use xlink:href="#p"/><use xlink:href="#k" x="783"/></g><use xlink:href="#k" x="391" y="-750"/><g transform="translate(0 -2150)"><use xlink:href="#p"/><use xlink:href="#g" x="783"/></g></g><g transform="translate(48741)"><use xlink:href="#q" x="391" y="2050"/><use xlink:href="#k" x="391" y="650"/><g transform="translate(0 -750)"><use xlink:href="#p"/><use xlink:href="#r" x="783"/></g><use xlink:href="#k" x="391" y="-2150"/></g><g transform="translate(51029)"><use xlink:href="#q" x="391" y="2050"/><use xlink:href="#q" x="391" y="650"/><use xlink:href="#k" x="391" y="-750"/><g transform="translate(0 -2150)"><use xlink:href="#p"/><use xlink:href="#k" x="783"/></g></g><g transform="translate(53317)"><use xlink:href="#q" y="2050"/><use xlink:href="#q" y="650"/><use xlink:href="#q" y="-750"/><use xlink:href="#g" y="-2150"/></g><g transform="translate(53989 2850)"><use xlink:href="#s" y="-1510"/><use xlink:href="#t" transform="matrix(1 0 0 2.21569 0 -3707.843)"/><use xlink:href="#u" y="-5190"/></g></g><use xlink:href="#i" x="54884"/><g><g transform="translate(55389 2850)"><use xlink:href="#m" y="-1510"/><use xlink:href="#n" transform="matrix(1 0 0 2.21569 0 -3707.843)"/><use xlink:href="#o" y="-5190"/></g><g transform="translate(56217 2050)"><use xlink:href="#v"/><use transform="scale(.707)" xlink:href="#g" x="914" y="-213"/></g><g transform="translate(56217 650)"><use xlink:href="#v"/><use transform="scale(.707)" xlink:href="#j" x="914" y="-213"/></g><g transform="translate(56217 -750)"><use xlink:href="#v"/><use transform="scale(.707)" xlink:href="#k" x="914" y="-213"/></g><g transform="translate(56217 -2150)"><use xlink:href="#v"/><use transform="scale(.707)" xlink:href="#w" x="914" y="-213"/></g><g transform="translate(57488 2850)"><use xlink:href="#s" y="-1510"/><use xlink:href="#t" transform="matrix(1 0 0 2.21569 0 -3707.843)"/><use xlink:href="#u" y="-5190"/></g></g></g></svg>