<svg xmlns="http://www.w3.org/2000/svg" xmlns:xlink="http://www.w3.org/1999/xlink" width="343pt" height="193pt" viewBox="0 0 343 193"><defs><symbol overflow="visible" id="a"><path d="M6.625-2.844c0-.515-.203-1-.531-1.265-.313-.25-.766-.391-1.594-.516v.266c.688-.25 1.063-.438 1.453-.75.531-.485.86-1.125.86-1.735 0-.984-1.094-1.687-2.016-1.687-.594 0-1.203.031-1.797.031-.61 0-1.203-.016-1.938-.047l-.078.61.813.03c.281 0 .266-.03.266.188 0 .172-.047.547-.11.907L.922-.782C.89-.577.875-.624.25-.531L.125.048C.672.016 1.047 0 1.406 0c.64 0 1.266.031 1.922.031.563 0 1.219-.156 1.781-.5.954-.562 1.516-1.469 1.516-2.375zm-1.328.188c0 1.234-.734 1.984-1.922 1.984-.25 0-.594-.015-.984-.047-.079-.015-.22-.015-.25-.031l.562-3.313h.906c1.235 0 1.688.375 1.688 1.407zm.219-3.985c0 1.266-.75 1.891-2.235 1.891h-.453l.531-3.016c.22 0 .532-.062.844-.062.969 0 1.313.297 1.313 1.187zm0 0"/></symbol><symbol overflow="visible" id="b"><path d="M4.14-1.234l-.171-.422-.438.312c-.64.453-1.11.657-1.531.657-.578 0-.781-.313-.781-1.047 0-.313.031-.61.078-.844l.86-.219c.202-.047.515-.172.827-.297C4-3.547 4.61-4.219 4.61-4.954c0-.562-.53-1.077-1.14-1.077-.781 0-2.188.843-2.672 1.61C.437-3.845.03-2.313.03-1.47.031-.547.703.125 1.563.125 2.25.125 3-.235 4.171-1.188zm-.702-3.532c0 .516-.266.954-.891 1.25a5.596 5.596 0 0 1-1.125.375l.062-.265c.188-.797.391-1.219.72-1.516.218-.219.515-.344.812-.344.343 0 .421.11.421.5zm1.265-3.359c0-.188-.36-.5-.594-.5-.109 0-.359.11-.5.25L1.781-6.578l.11.234h.421l2.016-1.25c.25-.156.375-.36.375-.531zm0 0"/></symbol><symbol overflow="visible" id="c"><path d="M4.813-1.953h-.36l-.312.844c-.094.218-.079.171-.329.171-.265 0-.53-.078-.796-.14-.391-.078-.797-.14-1.032-.14-.375 0-.703.077-1.14.25l.094.234 4.078-4.61.093-.484-.25-.25-.375.36c-.125.124-.14.14-.296.14-.407 0-1.032-.094-1.61-.25-.312-.094-.625-.203-.953-.203-.203 0-.438.047-.844.156L.328-4.187h.516l.36-.704c.124-.03.234-.046.39-.046s.297.015.531.062c.406.078.719.125.969.125.437 0 .812-.11 1.203-.313l-.203-.203L-.172-.422l.203.594c.5-.406.735-.484 1.157-.484.296 0 .625.046 1.25.203.718.171 1.093.234 1.406.234.156 0 .25-.016.719-.14.14-.844.25-1.25.406-1.938zm0 0"/></symbol><symbol overflow="visible" id="d"><path d="M2.969-1.25l-.172-.297-.453.297c-.36.234-.5.313-.625.313-.078 0-.016.03-.016-.11 0-.11 0-.203.078-.469l.922-3.64c.047-.203.063-.313.063-.422 0-.203-.22-.453-.422-.453-.266 0-.797.281-1.703.922l-.407.296.188.485.547-.36c.344-.218.375-.234.484-.234.11 0 .047-.031.047.11 0 .109-.047.359-.094.53L.625-1.405c-.11.375-.156.672-.156.922 0 .28.265.593.5.593.312 0 .844-.296 2.078-1.218zm.344-6.406c0-.282-.313-.61-.563-.61-.36 0-.844.516-.844.922 0 .297.328.625.625.625.375 0 .781-.484.781-.937zm0 0"/></symbol><symbol overflow="visible" id="e"><path d="M4.14-1.234l-.171-.422-.438.312c-.64.453-1.11.657-1.531.657-.578 0-.781-.313-.781-1.047 0-.313.031-.61.078-.844l.86-.219c.202-.047.515-.172.827-.297C4-3.547 4.61-4.219 4.61-4.954c0-.562-.53-1.077-1.14-1.077-.781 0-2.188.843-2.672 1.61C.437-3.845.03-2.313.03-1.47.031-.547.703.125 1.563.125 2.25.125 3-.235 4.171-1.188zm-.702-3.532c0 .516-.266.954-.891 1.25a5.596 5.596 0 0 1-1.125.375l.062-.265c.188-.797.391-1.219.72-1.516.218-.219.515-.344.812-.344.343 0 .421.11.421.5zm0 0"/></symbol><symbol overflow="visible" id="f"><path d="M4.531-4.5c.032-.453.094-.828.203-1.39-.28-.126-.328-.141-.39-.141-.36 0-.844.328-1.266.937-.406.594-.86 1.25-1.172 1.907h.282L2.5-4.704c.063-.25.14-.531.14-.813 0-.234-.218-.515-.406-.515-.25 0-.812.297-1.703.922l-.39.296.187.485.547-.36c.328-.218.375-.234.469-.234.125 0 .062-.031.062.125 0 .703-.515 3.156-1.015 4.75l.25.172c.296-.094.562-.156.953-.203l.328-1.563c.219-.984.453-1.53.984-2.203.406-.531.625-.75.89-.75.188 0 .204.032.36.235h.36zm0 0"/></symbol><symbol overflow="visible" id="B"><path d="M8.484-4.719c0-.687-.437-1.312-.875-1.312-.156 0-.406.093-.5.187l-.671.625.265.453c.25-.171.266-.171.375-.171.328 0 .375.14.375.625 0 1.734-1.016 3.578-2.031 3.578-.36 0-.469-.344-.469-1 0-.563.11-1.344.25-1.86l.625-2.234-.172-.219-1.062.328-.36 1.875c-.14.735-.28 1.125-.625 1.766-.484.89-.828 1.344-1.187 1.344-.406 0-.563-.329-.563-1.016 0-1.422.454-2.5 1.704-3.906l-.22-.407c-.296.141-.452.188-.78.188-.5 0-.985-.047-1.47-.094-.155 0-.25.032-.5.125-.155.328-.327.844-.515 1.64h.516l.25-.64c.094-.203.203-.203.484-.203.219 0 .438.031.672.031.25 0 .406-.015.422-.015.062-.11-.063.015-.188.172C1.156-3.61.72-2.656.72-1.641c0 .985.562 1.766 1.187 1.766.766 0 1.485-.688 2.375-2.39l-.234-.094c-.11.515-.156.812-.156 1.093 0 .75.5 1.391 1.03 1.391.97 0 2.36-1.328 3.095-2.969.265-.594.468-1.406.468-1.875zm0 0"/></symbol><symbol overflow="visible" id="C"><path d="M5.719-1.25l-.172-.297-.453.297c-.344.219-.5.313-.625.313-.078 0-.016.03-.016-.11 0-.11 0-.203.078-.469l.766-3.062c.062-.313.125-.688.125-.89 0-.25-.266-.563-.469-.563-.406 0-1.25.437-2 1.078-.422.344-.61.562-1.172 1.266l-.234.296.234.094L2.97-8.812l-.266-.235c-.75.375-1.078.438-2.062.531l-.11.5h.766c.281 0 .25-.046.25.157 0 .109 0 .203-.016.296l-.5 2.797C.703-2.969.234-.906-.03-.125l.156.25 1.016-.234c.203-1.485.375-2.11.718-2.75.532-.97 1.672-2.094 2.188-2.094.156 0 .11-.016.11.14 0 .204-.063.672-.173 1.063l-.609 2.344c-.11.422-.156.687-.156.922 0 .28.265.593.5.593.312 0 .828-.28 2.078-1.218zm0 0"/></symbol><symbol overflow="visible" id="g"><path d="M4.203-7.828a.735.735 0 0 1-.187-.14c-.063-.063-.11-.126-.22-.329-1.593 1.61-2.5 3.266-2.5 4.781v.797c0 1.516.907 3.172 2.5 4.781.11-.203.157-.265.22-.328.062-.062.125-.109.312-.203C2.875.063 2.281-1.344 2.281-2.719v-.797c0-1.39.594-2.78 2.047-4.25zm0 0"/></symbol><symbol overflow="visible" id="h"><path d="M6.234-1.25l-.171-.297-.454.297c-.343.219-.5.313-.625.313-.078 0-.03.03-.03-.11 0-.047.015-.187.03-.234l.782-3.297c.093-.344.14-.688.14-.89 0-.266-.265-.563-.5-.563-.5 0-1.437.5-2.14 1.156-.454.422-.797.828-1.407 1.703l.235.094.453-1.938c.047-.203.078-.343.078-.484 0-.25-.234-.531-.406-.531-.266 0-.828.312-1.703.922l-.391.296.172.485.547-.36c.437-.28.39-.265.469-.265.14 0 .078 0 .078.172 0 .61-.5 2.922-.985 4.656l.172.25c.36-.094.625-.172 1.016-.234.234-1.625.468-2.313 1-3.125.656-1.016 1.453-1.72 1.984-1.72.125 0 .063-.015.063.157 0 .219-.032.469-.141.86l-.61 2.53c-.109.438-.156.72-.156.907 0 .297.266.61.5.61.313 0 .829-.282 2.079-1.22zm0 0"/></symbol><symbol overflow="visible" id="i"><path d="M2.703-1.531L2.47-1.75c-.36.125-.563.203-1.328.406C1.047-.328.78.344.016 1.625l.312.25.61-.281C1.905.328 2.405-.516 2.75-1.47zm0 0"/></symbol><symbol overflow="visible" id="j"><path d="M3.703-5.516c-.453.047-.86.063-1.156.063.172-.984.297-1.578.531-2.25l-.25-.328a7.16 7.16 0 0 1-1.094.531l-.296 2.031c-.391.203-.704.328-1.063.407l-.047.406h1l-.64 3.25C.625-1.11.53-.813.53-.5c0 .297.266.61.5.61.422 0 .922-.282 1.86-1.032.218-.172.14-.125.437-.36l-.25-.437-.672.469c-.36.25-.484.313-.625.313-.093 0-.031.046-.031-.11 0-.297.156-1.234.516-3l.14-.61h1.266l.203-.89zm0 0"/></symbol><symbol overflow="visible" id="k"><path d="M3.766-2.719v-.797c0-1.515-.907-3.171-2.516-4.78-.11.202-.156.265-.203.327-.063.063-.125.11-.313.203 1.438 1.47 2.032 2.86 2.032 4.25v.797c0 1.375-.594 2.781-2.032 4.25.188.094.25.14.313.203.047.063.094.125.203.329C2.86.452 3.766-1.204 3.766-2.72zm0 0"/></symbol><symbol overflow="visible" id="l"><path d="M8.266-4.078a1.419 1.419 0 0 1-.047-.36c0-.109.015-.234.062-.484h-7.5c.063.25.063.375.063.484 0 .125 0 .235-.063.5h7.5zm0 2.625a1.332 1.332 0 0 1-.047-.36c0-.109.015-.234.062-.484h-7.5c.063.25.063.375.063.485 0 .125 0 .25-.063.5h7.5zm0 0"/></symbol><symbol overflow="visible" id="p"><path d="M13.938 2.344h-.61l-.094.937c-.093.922-.156.86-3.625.86H2.531l5.11-7.672-4.72-7.453h5.767c3.343 0 3.578-.032 3.624.53l.094 1.126h.75a16.115 16.115 0 0 1-.062-1.281c0-.36.015-.61.062-1.266l-8.984.047-3.281-.047-.079.563 5.313 8.39L.812 5.063v.578l7.344-.063 5.828.063c0-1.344.016-2.407.094-3.297zm0 0"/></symbol><symbol overflow="visible" id="t"><path d="M5.688-4.563c0-.796-.407-1.468-.829-1.468-.515 0-1.234.36-1.875.922-.468.421-.718.718-1.156 1.421l.234.11.297-1.438c.032-.203.063-.375.063-.515 0-.235-.235-.5-.406-.5-.25 0-.813.297-1.688.922l-.406.296.187.485.547-.36c.328-.218.375-.234.485-.234.109 0 .046-.031.046.14 0 .095-.015.329-.046.454L.453-.234l-.578 2.89-.11.485.204.171a5.507 5.507 0 0 1 1.015-.234l.5-3.062V0c.313.11.485.125.625.125.657 0 2.141-.906 2.641-1.656.5-.735.938-2.14.938-3.032zm-1.141.172c0 .97-.438 2.297-1.063 3.204-.25.343-.515.5-1.015.5-.36 0-.563-.047-.828-.204l.203-1.218C2.109-3.641 3.25-5.063 4.25-5.063c.297 0 .297.125.297.672zm0 0"/></symbol><symbol overflow="visible" id="u"><path d="M5.125-.094v-.484l-.75-.047c-.656-.031-.64-.031-.64-.656v-7.172l-.313-.125c-.875.469-1.61.781-2.86 1.219l.125.718h.235l1.547-.687.031-.016c.063 0-.047-.015-.047.266v5.797c0 .625.016.625-.64.656L1-.578v.625L3.125 0l2 .047zm0 0"/></symbol><symbol overflow="visible" id="v"><path d="M8.266-2.766a1.332 1.332 0 0 1-.047-.359c0-.11.015-.234.062-.484h-7.5c.063.25.063.375.063.484 0 .125 0 .25-.063.5h7.5zm0 0"/></symbol><symbol overflow="visible" id="w"><path d="M6.813-6.844c0-.984-1.094-1.687-2.016-1.687-.594 0-1.203.031-1.797.031l-1.938-.047-.062.61.797.03c.281 0 .266-.03.266.188 0 .172-.047.547-.11.907L.922-.782C.89-.577.875-.624.25-.531L.14.048A21.28 21.28 0 0 1 1.407 0c.64 0 1.266.031 1.922.031.563 0 1.219-.156 1.781-.5.954-.562 1.516-1.469 1.516-2.375 0-.515-.203-1-.531-1.265-.313-.25-.766-.391-1.594-.516v.266c.688-.25 1.063-.438 1.453-.75.531-.485.86-1.125.86-1.735zM5.296-2.656c0 1.234-.734 1.984-1.922 1.984-.25 0-.594-.015-.984-.047-.079-.015-.22-.015-.25-.031l.562-3.313h.906c1.235 0 1.688.375 1.688 1.407zm.219-3.985c0 1.266-.75 1.891-2.235 1.891h-.453l.531-3.016c.22 0 .532-.062.844-.062.969 0 1.313.297 1.313 1.187zm0 0"/></symbol><symbol overflow="visible" id="x"><path d="M8.266-2.766a1.332 1.332 0 0 1-.047-.359c0-.11.015-.234.062-.484h-3.25v-3.266c-.25.063-.375.078-.484.078-.125 0-.25-.016-.5-.078v3.266H.78c.063.25.063.375.063.484 0 .125 0 .25-.063.5h3.266V.641c.25-.063.375-.079.5-.079.11 0 .234.016.484.079v-3.266h3.25zm0 0"/></symbol><symbol overflow="visible" id="y"><path d="M5.36-5.922a2.204 2.204 0 0 0-.563-.11c-.797 0-1.89.97-3.39 3.063l.25.094 1.28-5.938-.265-.234c-.75.375-1.063.438-2.047.531l-.094.5h.735c.28 0 .265-.046.265.157 0 .109-.015.203-.031.296L.937-4.358c-.156.89-.359 1.718-1 4.25l.204.234.968-.25.297-1.578c.11-.578.36-1.016.61-1.281C2.766-.844 3.28.109 3.578.109c.156 0 .547-.187 1.078-.562l.61-.438-.204-.453-.671.375c-.172.094-.141.078-.25.078-.11 0-.094-.03-.204-.234-.421-.766-.656-1.313-1.109-2.734l.125-.125c.735-.72 1.188-.985 1.781-.985.094 0 .22.016.516.094l.266-1zm0 0"/></symbol><symbol overflow="visible" id="z"><path d="M2.969-1.25l-.172-.297-.453.297c-.36.234-.5.313-.625.313-.078 0-.016.03-.016-.11 0-.11 0-.203.078-.469l.922-3.64c.047-.203.063-.313.063-.422 0-.203-.22-.453-.422-.453-.266 0-.797.281-1.703.922l-.407.296.188.485.547-.36c.344-.218.375-.234.484-.234.11 0 .047-.031.047.11 0 .109-.047.359-.094.53L.625-1.405c-.11.375-.156.672-.156.922 0 .28.265.593.5.593.312 0 .844-.296 2.078-1.218zm.344-6.406c0-.282-.313-.61-.563-.61-.36 0-.844.516-.844.922 0 .297.328.625.625.625.375 0 .781-.484.781-.937zm0 0"/></symbol><symbol overflow="visible" id="E"><path d="M7.063-17.313c-.063-.046-.125-.093-.188-.156-.063-.047-.11-.11-.219-.312C3.47-14.594 1.563-10.328 1.563-5.5v4.766c0 4.828 1.906 9.093 5.093 12.28.11-.202.157-.265.219-.327.063-.047.125-.11.313-.203C4.14 7.953 2.796 3.89 2.796-.734V-5.5c0-4.64 1.344-8.688 4.39-11.766zm0 0"/></symbol><symbol overflow="visible" id="F"><path d="M6.531-.734V-5.5c0-4.828-1.875-9.094-5.078-12.281-.11.203-.156.265-.219.312-.062.063-.125.11-.312.203 3.062 3.078 4.39 7.125 4.39 11.766v4.766c0 4.625-1.328 8.687-4.39 11.75.187.093.25.156.312.203.063.062.11.125.22.328C4.655 8.359 6.53 4.094 6.53-.734zm0 0"/></symbol><symbol overflow="visible" id="G"><path d="M4.563-8.781l-.188-.14c-.063-.063-.11-.126-.219-.329-1.781 1.781-2.812 3.719-2.812 5.563v1.124c0 1.86 1.031 3.797 2.812 5.579.11-.204.157-.266.219-.329.063-.062.125-.109.313-.203C3.046.844 2.374-.844 2.374-2.562v-1.126c0-1.703.672-3.39 2.313-5.03zm0 0"/></symbol><symbol overflow="visible" id="H"><path d="M4.125-5.703c-.469-.219-.797-.328-1.203-.328-.61 0-1.453.39-2.031.968a1.63 1.63 0 0 0-.47 1.157c0 .672.516 1.187 1.298 1.344l.75.14c.531.094.578.156.578.64 0 .798-.406 1.173-1.25 1.173-.438 0-.703-.094-1-.344v-1.078H.234C.172-1.297.094-.875-.046-.25.453 0 .968.125 1.39.125c.578 0 1.234-.25 1.843-.719.61-.484.891-1.015.891-1.625 0-.64-.5-1.11-1.406-1.281l-.5-.094c-.719-.14-.813-.203-.813-.703 0-.625.39-.984 1.078-.984.485 0 .844.172 1 .422v.765h.532c.062-.547.109-.86.25-1.531zm0 0"/></symbol><symbol overflow="visible" id="I"><path d="M4.094-2.563v-1.124c0-1.844-1.016-3.782-2.813-5.563-.11.203-.156.266-.218.328-.063.047-.125.094-.313.203 1.64 1.64 2.313 3.328 2.313 5.031v1.126C3.063-.845 2.39.844.75 2.484c.188.094.25.141.313.204.062.062.109.124.218.328 1.797-1.782 2.813-3.72 2.813-5.579zm0 0"/></symbol><symbol overflow="visible" id="m"><path d="M5.156-.984L5-1.234 4.594-1c-.282.172-.39.234-.469.234-.078 0 .016.063.016-.046 0-.032-.032-.032.015-.157l.64-2.453c.063-.265.11-.515.11-.656 0-.203-.265-.453-.453-.453-.406 0-1.187.375-1.766.86-.359.312-.624.608-1.124 1.25l.265.093.36-1.422c.046-.156.062-.266.062-.36 0-.187-.234-.421-.375-.421-.203 0-.703.218-1.39.687l-.344.219.172.438.5-.297c.343-.204.265-.188.343-.188.11 0 .016-.047.016.094 0 .453-.406 2.156-.813 3.453l.172.219c.313-.078.531-.125.875-.188.203-1.218.375-1.703.813-2.312.531-.75 1.125-1.266 1.562-1.266.11 0 .016-.047.016.078 0 .172-.031.344-.11.64l-.5 1.876c-.093.328-.124.531-.124.672 0 .219.265.484.453.484.234 0 .687-.219 1.718-.922zm0 0"/></symbol><symbol overflow="visible" id="n"><path d="M6.172-2.078c-.016-.094-.031-.188-.031-.266 0-.094.015-.187.062-.406H3.781v-2.422c-.234.047-.328.063-.422.063-.078 0-.171-.016-.421-.063v2.422H.515c.046.219.062.313.062.406 0 .078-.015.172-.062.39h2.421V.485c.25-.062.344-.062.422-.062.094 0 .188 0 .422.062v-2.437h2.422zm0 0"/></symbol><symbol overflow="visible" id="o"><path d="M4.281-.11V-.5l-.656-.031c-.531-.031-.484.015-.484-.453v-5.344l-.282-.094c-.625.313-1.312.578-2.375.906l.125.594h.22l1.25-.516h.03c.047 0-.078-.062-.078.157v4.297c0 .468.047.421-.469.453L.86-.5v.531L2.61 0l1.672.031zm0 0"/></symbol><symbol overflow="visible" id="q"><path d="M2.531-.984l-.172-.25L1.953-1c-.281.188-.375.234-.469.234-.078 0 .016.063.016-.046 0-.079.016-.157.063-.344l.75-2.703a.983.983 0 0 0 .062-.313c0-.156-.234-.36-.39-.36-.22 0-.688.204-1.407.688l-.344.219.172.438.5-.297c.266-.172.266-.172.36-.172.093 0 0-.047 0 .062 0 .063-.047.25-.079.39l-.64 2.126c-.094.281-.125.5-.125.672 0 .219.266.484.453.484.25 0 .703-.234 1.734-.922zm.281-4.72c0-.218-.296-.5-.5-.5-.296 0-.734.423-.734.735 0 .219.313.485.563.485.296 0 .671-.391.671-.72zm0 0"/></symbol><symbol overflow="visible" id="r"><path d="M6.172-3.063a1.376 1.376 0 0 1-.031-.265c0-.078.015-.172.062-.39H.516c.046.218.062.312.062.39 0 .094-.015.187-.062.406h5.687zm0 1.954c-.016-.094-.031-.172-.031-.266 0-.094.015-.172.062-.39H.516c.046.218.062.296.062.39 0 .094-.015.172-.062.406h5.687zm0 0"/></symbol><symbol overflow="visible" id="s"><path d="M4.734-3.375c0-1.938-.78-3-2.109-3C1.141-6.375.219-5.141.219-3c0 1.031.234 2.031.578 2.453.344.438 1 .719 1.594.719 1.453 0 2.343-1.281 2.343-3.547zm-1.125.438c0 1.89-.203 2.53-1.093 2.53-.938 0-1.188-.75-1.188-2.921 0-1.86.203-2.469 1.125-2.469.938 0 1.156.734 1.156 2.86zm0 0"/></symbol><symbol overflow="visible" id="A"><path d="M4.422-4.453a1.395 1.395 0 0 0-.469-.078c-.625 0-1.547.718-2.75 2.265l.266.094L2.5-6.578l-.234-.203c-.532.25-.891.328-1.704.406l-.109.438h.656c.235 0 .172-.063.172.078 0 .078 0 .156-.015.218l-.47 2.375C.673-2.609.5-2 0-.094l.188.188.843-.188.25-1.203c.078-.437.266-.734.422-.875C2.281-.656 2.75.078 2.984.078c.125 0 .47-.156.891-.422l.5-.328-.172-.406-.594.297c-.14.078-.093.062-.171.062-.094 0-.047-.031-.141-.172-.344-.578-.5-.953-.875-2l.078-.062c.594-.547.922-.735 1.422-.735.062 0 .172.016.453.079l.219-.797zm0 0"/></symbol><symbol overflow="visible" id="D"><path d="M6.172-2.078c-.016-.094-.031-.188-.031-.266 0-.094.015-.187.062-.406H.516c.046.219.062.313.062.406 0 .078-.015.172-.062.39h5.687zm0 0"/></symbol></defs><use xlink:href="#a" x=".323" y="19.697"/><use xlink:href="#b" x="7.628" y="19.697"/><use xlink:href="#c" x="12.278" y="19.697"/><use xlink:href="#d" x="17.586" y="19.697"/><use xlink:href="#e" x="20.91" y="19.697"/><use xlink:href="#f" x="25.56" y="19.697"/><use xlink:href="#g" x="30.211" y="19.697"/><use xlink:href="#h" x="35.28" y="19.697"/><use xlink:href="#i" x="41.927" y="19.697"/><use xlink:href="#j" x="46.9" y="19.697"/><use xlink:href="#k" x="50.941" y="19.697"/><use xlink:href="#l" x="59.334" y="19.697"/><use xlink:href="#m" x="71.746" y="6.211"/><use xlink:href="#n" x="77.288" y="6.211"/><use xlink:href="#o" x="84.017" y="6.211"/><use xlink:href="#p" x="72.934" y="19.697"/><use xlink:href="#q" x="73.065" y="32.863"/><use xlink:href="#r" x="75.969" y="32.863"/><use xlink:href="#s" x="82.698" y="32.863"/><use xlink:href="#t" x="91.012" y="19.697"/><use xlink:href="#q" x="96.989" y="22.471"/><use xlink:href="#g" x="100.391" y="19.697"/><use xlink:href="#u" x="105.46" y="19.697"/><use xlink:href="#v" x="114.092" y="19.697"/><use xlink:href="#j" x="125.832" y="19.697"/><use xlink:href="#k" x="129.873" y="19.697"/><use xlink:href="#w" x="134.942" y="19.697"/><use xlink:href="#m" x="142.252" y="15.465"/><use xlink:href="#q" x="142.252" y="23.389"/><use xlink:href="#g" x="148.292" y="19.697"/><use xlink:href="#j" x="153.361" y="19.697"/><use xlink:href="#k" x="157.402" y="19.697"/><use xlink:href="#x" x="165.125" y="19.697"/><use xlink:href="#m" x="176.87" y="6.211"/><use xlink:href="#n" x="182.412" y="6.211"/><use xlink:href="#o" x="189.141" y="6.211"/><use xlink:href="#p" x="178.059" y="19.697"/><use xlink:href="#q" x="178.189" y="32.863"/><use xlink:href="#r" x="181.093" y="32.863"/><use xlink:href="#s" x="187.822" y="32.863"/><use xlink:href="#t" x="196.136" y="19.697"/><use xlink:href="#q" x="202.114" y="22.471"/><use xlink:href="#j" x="205.516" y="19.697"/><use xlink:href="#w" x="209.545" y="19.697"/><use xlink:href="#m" x="216.861" y="15.465"/><use xlink:href="#q" x="216.861" y="23.389"/><use xlink:href="#g" x="222.902" y="19.697"/><use xlink:href="#j" x="227.971" y="19.697"/><use xlink:href="#k" x="232" y="19.697"/><use xlink:href="#l" x="59.339" y="59.524"/><use xlink:href="#m" x="71.746" y="46.038"/><use xlink:href="#n" x="77.288" y="46.038"/><use xlink:href="#o" x="84.017" y="46.038"/><use xlink:href="#p" x="72.934" y="59.524"/><use xlink:href="#q" x="73.065" y="72.69"/><use xlink:href="#r" x="75.969" y="72.69"/><use xlink:href="#s" x="82.698" y="72.69"/><use xlink:href="#t" x="91.012" y="59.524"/><use xlink:href="#q" x="96.989" y="62.298"/><use xlink:href="#y" x="101.587" y="50.916"/><use xlink:href="#v" x="109.944" y="50.916"/><use xlink:href="#z" x="121.684" y="50.916"/><path d="M101.586 56.535h23.617" fill="none" stroke-width=".717" stroke="#000" stroke-miterlimit="10"/><use xlink:href="#y" x="110.544" y="67.57"/><use xlink:href="#w" x="126.399" y="59.524"/><use xlink:href="#A" x="133.704" y="55.292"/><use xlink:href="#q" x="133.704" y="63.216"/><use xlink:href="#g" x="138.868" y="59.524"/><use xlink:href="#j" x="143.937" y="59.524"/><use xlink:href="#k" x="147.966" y="59.524"/><use xlink:href="#x" x="155.701" y="59.524"/><use xlink:href="#m" x="167.446" y="46.038"/><use xlink:href="#n" x="172.988" y="46.038"/><use xlink:href="#o" x="179.717" y="46.038"/><use xlink:href="#p" x="168.634" y="59.524"/><use xlink:href="#q" x="168.765" y="72.69"/><use xlink:href="#r" x="171.669" y="72.69"/><use xlink:href="#s" x="178.398" y="72.69"/><use xlink:href="#t" x="186.712" y="59.524"/><use xlink:href="#q" x="192.689" y="62.298"/><use xlink:href="#z" x="197.287" y="50.916"/><use xlink:href="#x" x="203.456" y="50.916"/><use xlink:href="#u" x="215.196" y="50.916"/><path d="M197.285 56.535h23.895" fill="none" stroke-width=".717" stroke="#000" stroke-miterlimit="10"/><use xlink:href="#y" x="206.381" y="67.57"/><use xlink:href="#w" x="222.374" y="59.524"/><use xlink:href="#A" x="229.679" y="55.292"/><use xlink:href="#q" x="229.679" y="63.429"/><use xlink:href="#n" x="232.574" y="63.429"/><use xlink:href="#o" x="239.303" y="63.429"/><use xlink:href="#g" x="244.812" y="59.524"/><use xlink:href="#j" x="249.881" y="59.524"/><use xlink:href="#k" x="253.91" y="59.524"/><use xlink:href="#i" x="258.979" y="59.524"/><use xlink:href="#B" x="263.972" y="59.524"/><use xlink:href="#C" x="272.604" y="59.524"/><use xlink:href="#e" x="278.581" y="59.524"/><use xlink:href="#f" x="283.232" y="59.524"/><use xlink:href="#e" x="287.584" y="59.524"/><use xlink:href="#y" x="295.223" y="59.524"/><use xlink:href="#l" x="304.237" y="59.524"/><use xlink:href="#h" x="316.647" y="59.524"/><use xlink:href="#x" x="325.948" y="59.524"/><use xlink:href="#u" x="337.688" y="59.524"/><use xlink:href="#l" x="59.339" y="99.351"/><use xlink:href="#m" x="71.746" y="85.865"/><use xlink:href="#n" x="77.288" y="85.865"/><use xlink:href="#o" x="84.017" y="85.865"/><use xlink:href="#p" x="72.934" y="99.351"/><use xlink:href="#q" x="73.065" y="112.516"/><use xlink:href="#r" x="75.969" y="112.516"/><use xlink:href="#s" x="82.698" y="112.516"/><use xlink:href="#t" x="91.012" y="99.351"/><use xlink:href="#q" x="96.989" y="102.125"/><use xlink:href="#y" x="101.587" y="90.743"/><use xlink:href="#v" x="109.944" y="90.743"/><use xlink:href="#z" x="121.684" y="90.743"/><path d="M101.586 96.363h23.617" fill="none" stroke-width=".717" stroke="#000" stroke-miterlimit="10"/><use xlink:href="#y" x="110.544" y="107.397"/><use xlink:href="#w" x="126.399" y="99.351"/><use xlink:href="#A" x="133.704" y="95.119"/><use xlink:href="#q" x="133.704" y="103.043"/><use xlink:href="#g" x="138.868" y="99.351"/><use xlink:href="#j" x="143.937" y="99.351"/><use xlink:href="#k" x="147.966" y="99.351"/><use xlink:href="#x" x="155.701" y="99.351"/><use xlink:href="#m" x="167.446" y="85.865"/><use xlink:href="#n" x="172.988" y="85.865"/><use xlink:href="#o" x="179.717" y="85.865"/><use xlink:href="#p" x="168.634" y="99.351"/><use xlink:href="#q" x="168.765" y="112.516"/><use xlink:href="#r" x="171.669" y="112.516"/><use xlink:href="#s" x="178.398" y="112.516"/><use xlink:href="#t" x="186.712" y="99.351"/><use xlink:href="#q" x="192.689" y="102.125"/><use xlink:href="#D" x="195.593" y="102.125"/><use xlink:href="#o" x="202.322" y="102.125"/><use xlink:href="#z" x="210.112" y="90.743"/><path d="M209.02 96.363h5.699" fill="none" stroke-width=".717" stroke="#000" stroke-miterlimit="10"/><use xlink:href="#y" x="209.018" y="107.397"/><use xlink:href="#w" x="215.916" y="99.351"/><use xlink:href="#A" x="223.22" y="95.119"/><use xlink:href="#q" x="223.22" y="103.043"/><use xlink:href="#g" x="228.384" y="99.351"/><use xlink:href="#j" x="233.453" y="99.351"/><use xlink:href="#k" x="237.494" y="99.351"/><use xlink:href="#l" x="59.339" y="139.178"/><use xlink:href="#m" x="71.746" y="125.692"/><use xlink:href="#n" x="77.288" y="125.692"/><use xlink:href="#o" x="84.017" y="125.692"/><use xlink:href="#p" x="72.934" y="139.178"/><use xlink:href="#q" x="73.065" y="152.343"/><use xlink:href="#r" x="75.969" y="152.343"/><use xlink:href="#s" x="82.698" y="152.343"/><use xlink:href="#E" x="91.012" y="139.178"/><use xlink:href="#t" x="99.13" y="139.178"/><use xlink:href="#q" x="105.107" y="141.951"/><use xlink:href="#y" x="109.704" y="130.57"/><use xlink:href="#v" x="118.061" y="130.57"/><g><use xlink:href="#z" x="129.801" y="130.57"/></g><path d="M109.703 136.188h23.617" fill="none" stroke-width=".717" stroke="#000" stroke-miterlimit="10"/><g><use xlink:href="#y" x="118.661" y="147.224"/></g><g><use xlink:href="#x" x="137.173" y="139.178"/></g><g><use xlink:href="#t" x="148.913" y="139.178"/></g><g><use xlink:href="#q" x="154.894" y="141.951"/></g><g><use xlink:href="#D" x="157.789" y="141.951"/><use xlink:href="#o" x="164.518" y="141.951"/></g><g><use xlink:href="#z" x="172.316" y="130.57"/></g><path d="M171.223 136.188h5.703" fill="none" stroke-width=".717" stroke="#000" stroke-miterlimit="10"/><g><use xlink:href="#y" x="171.222" y="147.224"/></g><g><use xlink:href="#F" x="178.12" y="139.178"/></g><g><use xlink:href="#w" x="188.222" y="139.178"/></g><g><use xlink:href="#A" x="195.535" y="134.946"/></g><g><use xlink:href="#q" x="195.535" y="142.87"/></g><g><use xlink:href="#g" x="200.699" y="139.178"/><use xlink:href="#j" x="205.768" y="139.178"/></g><g><use xlink:href="#k" x="209.797" y="139.178"/></g><g><use xlink:href="#l" x="59.339" y="179.005"/></g><g><use xlink:href="#m" x="71.746" y="165.519"/><use xlink:href="#n" x="77.288" y="165.519"/><use xlink:href="#o" x="84.017" y="165.519"/></g><g><use xlink:href="#p" x="72.934" y="179.005"/></g><g><use xlink:href="#q" x="73.065" y="192.17"/></g><g><use xlink:href="#r" x="75.969" y="192.17"/><use xlink:href="#s" x="82.698" y="192.17"/></g><g><use xlink:href="#G" x="91.012" y="179.005"/><use xlink:href="#t" x="96.464" y="179.005"/></g><g><use xlink:href="#q" x="102.441" y="181.778"/></g><g><use xlink:href="#g" x="105.843" y="179.005"/><use xlink:href="#u" x="110.912" y="179.005"/></g><g><use xlink:href="#v" x="119.544" y="179.005"/></g><g><use xlink:href="#H" x="131.284" y="179.005"/><use xlink:href="#k" x="135.934" y="179.005"/></g><g><use xlink:href="#x" x="143.657" y="179.005"/></g><g><use xlink:href="#t" x="155.397" y="179.005"/></g><g><use xlink:href="#q" x="161.385" y="181.778"/></g><g><use xlink:href="#D" x="164.289" y="181.778"/><use xlink:href="#o" x="171.018" y="181.778"/></g><g><use xlink:href="#H" x="176.518" y="179.005"/><use xlink:href="#I" x="181.169" y="179.005"/></g><g><use xlink:href="#w" x="188.605" y="179.005"/></g><g><use xlink:href="#A" x="195.918" y="174.773"/></g><g><use xlink:href="#q" x="195.918" y="182.697"/></g><g><use xlink:href="#g" x="201.081" y="179.005"/><use xlink:href="#j" x="206.15" y="179.005"/></g><g><use xlink:href="#k" x="210.191" y="179.005"/><use xlink:href="#i" x="215.26" y="179.005"/></g><g><use xlink:href="#B" x="220.242" y="179.005"/><use xlink:href="#C" x="228.874" y="179.005"/><use xlink:href="#e" x="234.851" y="179.005"/><use xlink:href="#f" x="239.502" y="179.005"/></g><g><use xlink:href="#e" x="243.854" y="179.005"/></g><g><use xlink:href="#H" x="251.492" y="179.005"/></g><g><use xlink:href="#l" x="259.454" y="179.005"/></g><g><use xlink:href="#z" x="274.16" y="170.397"/></g><path d="M273.066 176.016h5.704" fill="none" stroke-width=".717" stroke="#000" stroke-miterlimit="10"/><g><use xlink:href="#y" x="273.066" y="187.051"/></g></svg>