<svg xmlns="http://www.w3.org/2000/svg" xmlns:xlink="http://www.w3.org/1999/xlink" width="156" height="56pt" viewBox="0 0 117 56"><defs><symbol overflow="visible" id="a"><path d="M5.984-7.14c-.03-.063-.03-.048-.062-.11-.016-.094-.016-.172-.016-.406-1.812.468-3.031 1.843-3.031 3.953V0h1.219v-3.703c0-1.719.422-2.828 1.984-3.25zm0 0"/></symbol><symbol overflow="visible" id="b"><path d="M4.094-.125v-7.266H2.875V0h1.219zm0 0"/></symbol><symbol overflow="visible" id="c"><path d="M4.094-.125v-3.578c0-1.922-.766-3.235-1.782-3.703v.265c1.016-.468 1.782-1.765 1.782-3.687v-3.703H2.875v3.703c0 2.062-.36 3.187-1.922 3.187.078.204.094.297.094.375 0 .079-.016.172-.094.375 1.563 0 1.922 1.125 1.922 3.188V0h1.219zm0 0"/></symbol><symbol overflow="visible" id="d"><path d="M5.89-.734c-1.374-.36-1.796-1.47-1.796-3.188v-3.703H2.875v3.703c0 2.094 1.219 3.469 3.031 3.969 0-.266 0-.344.016-.422.031-.078.031-.063.156-.313zm0 0"/></symbol><symbol overflow="visible" id="e"><path d="M7.781-8.219c-.922-.344-1.593-.484-2.328-.484-.984 0-2.078.344-2.906.89C1.14-6.859.39-5.358.39-3.53c0 2.328 1.421 3.75 3.703 3.75C5.25.219 6.187-.094 7.28-.844l.157-.578-.266-.187c-1.234.765-1.75.921-2.672.921-1.89 0-2.781-1.015-2.781-3.14 0-1.328.375-2.406 1.11-3.156.546-.563 1.218-.829 2.171-.829.86 0 1.36.141 2 .547v1.063h.578c.078-.813.172-1.328.36-1.953zm0 0"/></symbol><symbol overflow="visible" id="f"><path d="M5.125-.094v-.484l-.75-.047c-.656-.031-.64-.031-.64-.656v-7.172l-.313-.125c-.875.469-1.61.781-2.86 1.219l.125.718h.235l1.547-.687.031-.016c.063 0-.047-.015-.047.266v5.797c0 .625.016.625-.64.656L1-.578v.625L3.125 0l2 .047zm0 0"/></symbol><symbol overflow="visible" id="h"><path d="M8.266-4.078a1.419 1.419 0 0 1-.047-.36c0-.109.015-.234.062-.484h-7.5c.063.25.063.375.063.484 0 .125 0 .235-.063.5h7.5zm0 2.625a1.332 1.332 0 0 1-.047-.36c0-.109.015-.234.062-.484h-7.5c.063.25.063.375.063.485 0 .125 0 .25-.063.5h7.5zm0 0"/></symbol><symbol overflow="visible" id="i"><path d="M5.828-4.719c0-.687-.437-1.312-.875-1.312-.14 0-.406.093-.5.187l-.656.625.25.453c.25-.171.266-.171.375-.171.328 0 .375.14.375.625 0 1.765-1.016 3.578-2.078 3.578-.578 0-.813-.36-.813-1.141 0-1.25.422-2.25 1.657-3.781l-.235-.407c-.281.141-.437.188-.765.188-.5 0-.985-.047-1.47-.094-.155 0-.25.032-.5.125-.155.328-.327.844-.515 1.64h.5l.266-.64c.094-.203.203-.203.484-.203.219 0 .438.031.656.031.25 0 .438-.015.75-.046l-.109-.235C1.297-3.859.765-2.766.765-1.578c0 .922.688 1.703 1.454 1.703.5 0 1.062-.25 1.61-.734C4.39-1.125 5-2.016 5.358-2.844c.266-.594.47-1.406.47-1.875zm0 0"/></symbol><symbol overflow="visible" id="j"><path d="M8.266-2.766a1.332 1.332 0 0 1-.047-.359c0-.11.015-.234.062-.484h-3.25v-3.266c-.25.063-.375.078-.484.078-.125 0-.25-.016-.5-.078v3.266H.78c.063.25.063.375.063.484 0 .125 0 .25-.063.5h3.266V.641c.25-.063.375-.079.5-.079.11 0 .234.016.484.079v-3.266h3.25zm0 0"/></symbol><symbol overflow="visible" id="k"><path d="M8.266-2.766a1.332 1.332 0 0 1-.047-.359c0-.11.015-.234.062-.484h-7.5c.063.25.063.375.063.484 0 .125 0 .25-.063.5h7.5zm0 0"/></symbol><symbol overflow="visible" id="l"><path d="M4.125-5.703c-.469-.219-.797-.328-1.203-.328-.61 0-1.453.39-2.031.968a1.63 1.63 0 0 0-.47 1.157c0 .672.516 1.187 1.298 1.344l.75.14c.531.094.578.156.578.64 0 .798-.406 1.173-1.25 1.173-.438 0-.703-.094-1-.344v-1.078H.234C.172-1.297.094-.875-.046-.25.453 0 .968.125 1.39.125c.578 0 1.234-.25 1.843-.719.61-.484.891-1.015.891-1.625 0-.64-.5-1.11-1.406-1.281l-.5-.094c-.719-.14-.813-.203-.813-.703 0-.625.39-.984 1.078-.984.485 0 .844.172 1 .422v.765h.532c.062-.547.109-.86.25-1.531zm0 0"/></symbol><symbol overflow="visible" id="m"><path d="M3.703-5.516c-.453.047-.86.063-1.156.063.172-.984.297-1.578.531-2.25l-.25-.328a7.16 7.16 0 0 1-1.094.531l-.296 2.031c-.391.203-.704.328-1.063.407l-.047.406h1l-.64 3.25C.625-1.11.53-.813.53-.5c0 .297.266.61.5.61.422 0 .922-.282 1.86-1.032.218-.172.14-.125.437-.36l-.25-.437-.672.469c-.36.25-.484.313-.625.313-.093 0-.031.046-.031-.11 0-.297.156-1.234.516-3l.14-.61h1.266l.203-.89zm0 0"/></symbol><symbol overflow="visible" id="n"><path d="M4.984-1.14l-.156-.485c-.25.203-.266.219-.328.266-.375.312-.453.39-.625.39-.125 0-.047.031-.047-.156 0-.047 0-.078.016-.125l1.11-4.578-.25-.203-.438.218c-.438-.156-.672-.218-.985-.218-.344 0-.578.062-.906.218-.75.375-1.234.766-1.531 1.36l-.047.094C.28-3.297-.093-1.875-.093-.922c0 .516.327 1.047.546 1.047.25 0 .797-.281 1.234-.656.516-.453.985-1.016 1.641-1.938l-.234-.094-.344 1.516a2.715 2.715 0 0 0-.078.61c0 .265.25.562.437.562.266 0 .86-.36 1.891-1.219zM3.672-5.079c-.266 1.281-.453 1.797-.844 2.406C2.156-1.656 1.516-.969 1.125-.969c-.14 0-.078-.015-.078-.344 0-.765.297-2.093.719-3.093.296-.688.453-.766 1.03-.766.282 0 .5.047.86.172zm0 0"/></symbol><symbol overflow="visible" id="o"><path d="M4.594-5.953c-.14-.063-.188-.078-.25-.078-.36 0-.844.328-1.266.937-.406.594-.86 1.25-1.172 1.907h.282L2.5-4.704c.063-.25.14-.531.14-.813 0-.234-.218-.515-.406-.515-.25 0-.812.297-1.703.922l-.39.296.187.485.547-.36c.328-.218.375-.234.469-.234.125 0 .062-.031.062.125 0 .703-.515 3.156-1 4.75l.235.172c.296-.094.562-.156.953-.203l.328-1.563c.219-.984.453-1.53.984-2.203.406-.531.625-.75.89-.75.188 0 .204.032.36.235h.36c.046-.594.109-.97.218-1.532zm0 0"/></symbol><symbol overflow="visible" id="p"><path d="M5.719-.094c-.016-.25-.016-.375-.016-.547 0-.14 0-.265.031-.671l-4.28.125.093.234 2.187-2.313C4.891-4.5 5.281-5.25 5.281-6.14 5.281-7.516 4.22-8.5 2.703-8.5c-.86 0-1.562.281-2.172.906L.312-5.766h.594l.188-.687c.203-.688.5-.86 1.297-.86 1.03 0 1.546.516 1.546 1.532 0 .89-.468 1.687-1.828 3.11L.047-.454v.5L2.859 0l2.875.047zm0 0"/></symbol><symbol overflow="visible" id="q"><path d="M4.61-4.953c0-.563-.532-1.078-1.141-1.078-.781 0-2.188.843-2.672 1.61C.437-3.845.03-2.313.03-1.47.031-.547.703.125 1.563.125 2.25.125 3-.235 4.171-1.188l-.203-.468-.438.312c-.64.453-1.11.657-1.531.657-.578 0-.781-.313-.781-1.047 0-.313.031-.61.078-.844l.86-.219c.202-.047.515-.172.827-.297C4-3.547 4.61-4.219 4.61-4.954zm-1.173.187c0 .516-.265.954-.89 1.25a5.596 5.596 0 0 1-1.125.375l.062-.265c.188-.797.391-1.219.72-1.516.218-.219.515-.344.812-.344.343 0 .421.11.421.5zm0 0"/></symbol><symbol overflow="visible" id="r"><path d="M6.234-1.25l-.171-.297-.454.297c-.343.219-.5.313-.625.313-.078 0-.03.03-.03-.11 0-.047.015-.187.03-.234l.782-3.297c.093-.344.14-.688.14-.89 0-.266-.265-.563-.5-.563-.5 0-1.437.5-2.14 1.156-.454.422-.797.828-1.407 1.703l.235.094.453-1.938c.047-.203.078-.343.078-.484 0-.25-.234-.531-.406-.531-.266 0-.828.312-1.703.922l-.391.296.172.485.547-.36c.437-.28.39-.265.469-.265.14 0 .078 0 .078.172 0 .61-.5 2.922-.985 4.656l.172.25c.36-.094.625-.172 1.016-.234.234-1.625.468-2.313 1-3.125.656-1.016 1.453-1.72 1.984-1.72.125 0 .063-.015.063.157 0 .219-.032.469-.141.86l-.61 2.53c-.109.438-.156.72-.156.907 0 .297.266.61.5.61.313 0 .829-.282 2.079-1.22zm0 0"/></symbol><symbol overflow="visible" id="s"><path d="M5.875-8.86l-.219-.187c-.75.375-1.078.438-2.062.531l-.094.5h.75c.281 0 .25-.046.25.157 0 .109 0 .203-.016.296L4.188-5.89a3.109 3.109 0 0 0-.875-.14c-.829 0-2.063.906-2.61 1.937-.375.703-.64 1.938-.64 2.938C.063-.375.374.125.734.125c.313 0 .86-.234 1.266-.563.64-.515 1.031-.984 1.844-2.187l-.25-.094-.266 1.078c-.14.532-.203.907-.203 1.22 0 .25.25.546.453.546.219 0 .594-.203 1-.5l1.047-.766-.266-.468-.656.468c-.172.125-.25.172-.36.172-.093 0-.046.031-.046-.14 0-.094.031-.204.11-.547l1.515-7.157zM4.031-5.03l-.14.703A5.233 5.233 0 0 1 2.375-1.61c-.422.39-.781.64-1.016.64-.187 0-.171-.031-.171-.328 0-1.516.515-3.281 1.109-3.734.156-.125.281-.14.61-.14.53 0 .765.03 1.109.218zm0 0"/></symbol><symbol overflow="visible" id="g"><path d="M2.61-4.672l-.22-.203-1.093.39-.89 3.376.312.234.5-.266 1.453-3.468zm0 0"/></symbol></defs><use xlink:href="#a" x="-.908" y="10.488"/><use xlink:href="#b" x="-.908" y="16.533"/><use xlink:href="#b" x="-.908" y="21.776"/><use xlink:href="#c" x="-.908" y="34.97"/><use xlink:href="#b" x="-.908" y="41.015"/><use xlink:href="#b" x="-.908" y="46.258"/><use xlink:href="#d" x="-.908" y="52.542"/><use xlink:href="#e" x="6.134" y="17.537"/><use xlink:href="#f" x="14.24" y="17.537"/><use xlink:href="#g" x="20.229" y="13.305"/><use xlink:href="#h" x="27.12" y="17.537"/><use xlink:href="#i" x="39.518" y="17.537"/><use xlink:href="#f" x="45.555" y="17.537"/><use xlink:href="#j" x="54.199" y="17.537"/><use xlink:href="#i" x="67.137" y="8.929"/><use xlink:href="#f" x="73.162" y="8.929"/><use xlink:href="#k" x="81.806" y="8.929"/><use xlink:href="#l" x="93.546" y="8.929"/><use xlink:href="#m" x="98.197" y="8.929"/><use xlink:href="#n" x="102.237" y="8.929"/><use xlink:href="#o" x="107.546" y="8.929"/><use xlink:href="#m" x="112.471" y="8.929"/><path d="M67.137 14.547h49.379" fill="none" stroke-width=".717" stroke="#000" stroke-miterlimit="10"/><use xlink:href="#m" x="89.806" y="25.499"/><use xlink:href="#e" x="6.134" y="46.963"/><use xlink:href="#p" x="14.24" y="46.963"/><use xlink:href="#g" x="20.229" y="42.731"/><use xlink:href="#h" x="27.12" y="46.963"/><use xlink:href="#i" x="39.518" y="46.963"/><use xlink:href="#p" x="45.555" y="46.963"/><use xlink:href="#j" x="54.199" y="46.963"/><use xlink:href="#i" x="67.137" y="38.355"/><use xlink:href="#p" x="73.162" y="38.355"/><use xlink:href="#k" x="81.806" y="38.355"/><use xlink:href="#q" x="93.546" y="38.355"/><use xlink:href="#r" x="98.352" y="38.355"/><use xlink:href="#s" x="104.999" y="38.355"/><path d="M67.137 43.973h43.976" fill="none" stroke-width=".717" stroke="#000" stroke-miterlimit="10"/><g><use xlink:href="#f" x="76.916" y="54.925"/></g><g><use xlink:href="#k" x="85.548" y="54.925"/></g><g><use xlink:href="#m" x="97.288" y="54.925"/></g></svg>