<svg xmlns="http://www.w3.org/2000/svg" xmlns:xlink="http://www.w3.org/1999/xlink" width="844" height="58pt" viewBox="0 0 633 58"><defs><symbol overflow="visible" id="a"><path d="M5.078-14.781H1.562V0h1.235v-14.031h2.469c-.079-.203-.094-.281-.094-.375 0-.078.016-.172.094-.375zm0 0"/></symbol><symbol overflow="visible" id="b"><path d="M2.672-9.938h-1.11V0h1.235v-9.938zm0 0"/></symbol><symbol overflow="visible" id="c"><path d="M5.219-.125a.648.648 0 0 1-.047-.25c0-.078.016-.156.094-.36h-2.47V-14.78H1.564V0h3.703zm0 0"/></symbol><symbol overflow="visible" id="d"><path d="M8.266-2.766a1.332 1.332 0 0 1-.047-.359c0-.11.015-.234.062-.484h-7.5c.063.25.063.375.063.484 0 .125 0 .25-.063.5h7.5zm0 0"/></symbol><symbol overflow="visible" id="e"><path d="M4.203-7.828a.735.735 0 0 1-.187-.14c-.063-.063-.11-.126-.22-.329-1.593 1.61-2.5 3.266-2.5 4.781v.797c0 1.516.907 3.172 2.5 4.781.11-.203.157-.265.22-.328.062-.062.125-.109.312-.203C2.875.063 2.281-1.344 2.281-2.719v-.797c0-1.39.594-2.78 2.047-4.25zm0 0"/></symbol><symbol overflow="visible" id="f"><path d="M5.063-5.875l-.204-.203-.375.36c-.125.124-.14.14-.296.14-.407 0-1.032-.094-1.61-.25-.312-.094-.625-.203-.953-.203-.203 0-.438.047-.844.156L.328-4.187h.516l.36-.704c.124-.03.234-.046.39-.046s.297.015.531.062c.406.078.719.125.969.125.437 0 .812-.11 1.203-.313l-.203-.203L-.172-.422l.203.594c.5-.406.735-.484 1.157-.484.296 0 .625.046 1.25.203.718.171 1.093.234 1.406.234.156 0 .25-.016.703-.14.156-.844.266-1.25.422-1.938h-.516l-.312.844c-.094.218-.079.171-.329.171-.265 0-.53-.078-.796-.14-.391-.078-.797-.14-1.032-.14-.375 0-.703.077-1.14.25l.094.234 4.078-4.61.093-.484zm0 0"/></symbol><symbol overflow="visible" id="g"><path d="M5.125-.094v-.484l-.75-.047c-.656-.031-.64-.031-.64-.656v-7.172l-.313-.125c-.875.469-1.61.781-2.86 1.219l.125.718h.235l1.547-.687.031-.016c.063 0-.047-.015-.047.266v5.797c0 .625.016.625-.64.656L1-.578v.625L3.125 0l2 .047zm0 0"/></symbol><symbol overflow="visible" id="h"><path d="M3.766-2.719v-.797c0-1.515-.907-3.171-2.516-4.78-.11.202-.156.265-.203.327-.063.063-.125.11-.313.203 1.438 1.47 2.032 2.86 2.032 4.25v.797c0 1.375-.594 2.781-2.032 4.25.188.094.25.14.313.203.047.063.094.125.203.329C2.86.452 3.766-1.204 3.766-2.72zm0 0"/></symbol><symbol overflow="visible" id="j"><path d="M5.656-2.813c0-.562-.281-1.171-.703-1.468-.297-.219-.672-.344-.953-.407.734-.562 1.125-1.203 1.125-1.906 0-1.062-1.016-1.906-2.344-1.906-.812 0-1.453.266-2.047.86L.328-5.954h.64l.266-.797c.125-.406.75-.688 1.375-.688.766 0 1.266.5 1.266 1.25 0 .907-.563 1.532-1.406 1.532-.11 0-.469.187-.469.187l-.25-.093-.14.671.202.188C2.297-3.938 2.516-4 2.845-4c1 0 1.422.516 1.422 1.594 0 1.219-.579 1.89-1.704 1.89-.546 0-.937-.14-1.296-.468C.984-1.25.859-1.438.578-2.25l-.562.219C.28-1.234.375-.797.469-.11c.765.25 1.281.343 1.734.343.953 0 2.14-.562 2.813-1.375.406-.484.64-1.109.64-1.671zm0 0"/></symbol><symbol overflow="visible" id="k"><path d="M2.516-3.125c0-.422-.407-.844-.844-.844-.422 0-.86.422-.86.844 0 .438.438.86.86.86.437 0 .844-.422.844-.86zm0 0"/></symbol><symbol overflow="visible" id="m"><path d="M5.688-4.5c0-2.625-.907-4-2.547-4C1.297-8.5.203-6.89.203-4c0 1.39.281 2.703.703 3.281.422.594 1.203.953 1.938.953 1.812 0 2.844-1.687 2.844-4.734zm-1.282.594C4.406-1.36 4.094-.437 3-.437c-1.156 0-1.516-1.079-1.516-4 0-2.516.313-3.375 1.438-3.375 1.172 0 1.484 1.03 1.484 3.906zm0 0"/></symbol><symbol overflow="visible" id="n"><path d="M5.719-.094c-.016-.25-.016-.375-.016-.547 0-.14 0-.265.031-.671l-4.28.125.093.234 2.187-2.313C4.891-4.5 5.281-5.25 5.281-6.14 5.281-7.516 4.22-8.5 2.703-8.5c-.86 0-1.562.281-2.172.906L.312-5.766h.594l.188-.687c.203-.688.5-.86 1.297-.86 1.03 0 1.546.516 1.546 1.532 0 .89-.468 1.687-1.828 3.11L.047-.454v.5L2.859 0l2.875.047zm0 0"/></symbol><symbol overflow="visible" id="o"><path d="M4.656-.125v-14.656H.953c.078.203.094.297.094.375 0 .094-.016.172-.094.375h2.469V0h1.234zm0 0"/></symbol><symbol overflow="visible" id="p"><path d="M4.656-.125v-9.813H3.422V0h1.234zm0 0"/></symbol><symbol overflow="visible" id="q"><path d="M4.656-.125v-14.656H3.422V-.734H.953c.078.203.094.28.094.359 0 .094-.016.172-.094.375h3.703zm0 0"/></symbol><symbol overflow="visible" id="r"><path d="M7.234-6.594c0-1.218-1.265-1.937-2.312-1.937-.547 0-1.094.031-1.64.031l-2.126-.047-.062.61.812.03c.297 0 .282-.03.282.188 0 .172-.047.532-.11.907l-.89 5.187C1-.531 1.125-.641.64-.594l-.61.031-.093.61L1.688 0l1.78.047.063-.61-.922-.03c-.312-.016-.296.015-.296-.235 0-.11 0-.188.046-.422l.97-5.813-.032.094s.078-.343.14-.578c.016-.062.047-.172.063-.203.328-.063.516-.094.75-.094 1.219 0 1.656.39 1.656 1.516 0 1.281-.718 2.203-1.765 2.203-.266 0-.5-.063-1.11-.281l.047.625c.578.281.813.344 1.172.344 1.531 0 2.984-1.532 2.984-3.157zm0 0"/></symbol><symbol overflow="visible" id="u"><path d="M8.266-4.078a1.419 1.419 0 0 1-.047-.36c0-.109.015-.234.062-.484h-7.5c.063.25.063.375.063.484 0 .125 0 .235-.063.5h7.5zm0 2.625a1.332 1.332 0 0 1-.047-.36c0-.109.015-.234.062-.484h-7.5c.063.25.063.375.063.485 0 .125 0 .25-.063.5h7.5zm0 0"/></symbol><symbol overflow="visible" id="v"><path d="M8.266-2.766a1.332 1.332 0 0 1-.047-.359c0-.11.015-.234.062-.484h-3.25v-3.266c-.25.063-.375.078-.484.078-.125 0-.25-.016-.5-.078v3.266H.78c.063.25.063.375.063.484 0 .125 0 .25-.063.5h3.266V.641c.25-.063.375-.079.5-.079.11 0 .234.016.484.079v-3.266h3.25zm0 0"/></symbol><symbol overflow="visible" id="i"><path d="M4.703-2.125c0-.422-.234-.89-.578-1.11a2.69 2.69 0 0 0-.719-.296c.531-.36.875-.875.875-1.39 0-.798-.875-1.454-1.937-1.454-.656 0-1.203.203-1.703.656L.312-4.406h.594l.219-.64c.11-.298.563-.47 1.078-.47.61 0 .969.344.969.907 0 .656-.406 1.078-1.094 1.078-.078 0-.344.203-.344.203l-.265-.094-.125.531.203.141c.39-.172.578-.203.844-.203.796 0 1.093.328 1.093 1.14 0 .907-.421 1.36-1.328 1.36-.437 0-.719-.094-1.015-.344C.906-1 .828-1.094.578-1.75l-.531.188c.234.609.312.937.375 1.468C1.078.11 1.5.172 1.875.172c.766 0 1.75-.422 2.281-1.016.328-.375.547-.86.547-1.281zm0 0"/></symbol><symbol overflow="visible" id="l"><path d="M4.75-.11c-.016-.187-.016-.265-.016-.39s0-.203.032-.547l-3.141.094 1.5-1.469c.938-.922 1.281-1.5 1.281-2.172 0-1.015-.906-1.781-2.14-1.781-.688 0-1.282.219-1.782.703l-.187 1.39h.547l.172-.53c.156-.516.359-.61 1-.61.843 0 1.203.344 1.203 1.094 0 .672-.36 1.234-1.453 2.297L.078-.391v.422L2.406 0l2.36.031zm0 0"/></symbol><symbol overflow="visible" id="s"><path d="M4.281-.11V-.5l-.656-.031c-.531-.031-.484.015-.484-.453v-5.344l-.282-.094c-.625.313-1.312.578-2.375.906l.125.594h.22l1.25-.516h.03c.047 0-.078-.062-.078.157v4.297c0 .468.047.421-.469.453L.86-.5v.531L2.61 0l1.672.031zm0 0"/></symbol><symbol overflow="visible" id="t"><path d="M4.797-.11V-.5l-.61-.031c-.468-.031-.437-.016-.437-.547v-.531c.422 0 .625.015 1.047.062v-.781l-.047.094s-.578-.204-.89-.204h-.11V-3.53c0-1.578.031-2.344.078-2.781l-.281-.11-.813.281-2.796 4.188.187.344h2.5v.53c0 .532.063.532-.406.548L1.453-.5v.531L3.172 0l1.625.031zm-2-2.328H.969l1.922-2.89-.266-.094v2.984zm0 0"/></symbol></defs><use xlink:href="#a" x="-1.399" y="17.592"/><use xlink:href="#b" x="-1.399" y="26.365"/><use xlink:href="#b" x="-1.399" y="34.541"/><use xlink:href="#b" x="-1.399" y="42.718"/><use xlink:href="#c" x="-1.399" y="56.321"/><use xlink:href="#d" x="4.83" y="10.92"/><use xlink:href="#e" x="13.916" y="10.92"/><use xlink:href="#f" x="18.985" y="10.92"/><use xlink:href="#d" x="26.947" y="10.92"/><use xlink:href="#g" x="38.687" y="10.92"/><use xlink:href="#h" x="44.665" y="10.92"/><use xlink:href="#i" x="49.739" y="6.688"/><use xlink:href="#j" x="65.202" y="10.92"/><use xlink:href="#k" x="73.834" y="10.92"/><use xlink:href="#e" x="79.835" y="10.92"/><use xlink:href="#f" x="84.904" y="10.92"/><use xlink:href="#d" x="92.866" y="10.92"/><use xlink:href="#g" x="104.606" y="10.92"/><use xlink:href="#h" x="110.584" y="10.92"/><use xlink:href="#l" x="115.663" y="6.688"/><use xlink:href="#k" x="123.821" y="10.92"/><use xlink:href="#f" x="129.823" y="10.92"/><use xlink:href="#d" x="145.089" y="10.92"/><use xlink:href="#j" x="154.175" y="10.92"/><use xlink:href="#k" x="162.807" y="10.92"/><use xlink:href="#e" x="168.808" y="10.92"/><use xlink:href="#f" x="173.877" y="10.92"/><use xlink:href="#d" x="181.852" y="10.92"/><use xlink:href="#g" x="193.592" y="10.92"/><use xlink:href="#h" x="199.569" y="10.92"/><use xlink:href="#i" x="204.643" y="6.688"/><use xlink:href="#k" x="212.8" y="10.92"/><use xlink:href="#f" x="218.802" y="10.92"/><use xlink:href="#l" x="224.112" y="6.688"/><use xlink:href="#f" x="239.575" y="10.92"/><use xlink:href="#i" x="244.883" y="6.688"/><use xlink:href="#m" x="27.046" y="25.586"/><use xlink:href="#e" x="79.506" y="25.586"/><use xlink:href="#f" x="84.575" y="25.586"/><use xlink:href="#d" x="92.537" y="25.586"/><use xlink:href="#g" x="104.277" y="25.586"/><use xlink:href="#h" x="110.255" y="25.586"/><use xlink:href="#l" x="115.329" y="21.354"/><use xlink:href="#d" x="150.596" y="25.586"/><use xlink:href="#n" x="159.682" y="25.586"/><use xlink:href="#k" x="168.314" y="25.586"/><use xlink:href="#e" x="174.315" y="25.586"/><use xlink:href="#f" x="179.384" y="25.586"/><use xlink:href="#d" x="187.346" y="25.586"/><use xlink:href="#g" x="199.086" y="25.586"/><use xlink:href="#h" x="205.064" y="25.586"/><use xlink:href="#k" x="212.799" y="25.586"/><use xlink:href="#f" x="218.8" y="25.586"/><use xlink:href="#f" x="239.567" y="25.586"/><use xlink:href="#l" x="244.883" y="21.354"/><use xlink:href="#m" x="27.046" y="40.032"/><use xlink:href="#m" x="97.179" y="40.032"/><use xlink:href="#d" x="164.9" y="40.032"/><use xlink:href="#e" x="173.986" y="40.032"/><use xlink:href="#f" x="179.055" y="40.032"/><use xlink:href="#d" x="187.017" y="40.032"/><use xlink:href="#g" x="198.757" y="40.032"/><use xlink:href="#h" x="204.735" y="40.032"/><use xlink:href="#f" x="242.322" y="40.032"/><use xlink:href="#m" x="27.046" y="54.478"/><use xlink:href="#m" x="97.179" y="54.478"/><use xlink:href="#m" x="184.365" y="54.478"/><use xlink:href="#g" x="241.991" y="54.478"/><use xlink:href="#o" x="250.384" y="17.592"/><use xlink:href="#p" x="250.384" y="26.365"/><use xlink:href="#p" x="250.384" y="34.541"/><use xlink:href="#p" x="250.384" y="42.718"/><use xlink:href="#q" x="250.384" y="56.321"/><use xlink:href="#k" x="256.612" y="32.688"/><use xlink:href="#a" x="259.96" y="17.812"/><use xlink:href="#b" x="259.96" y="26.514"/><use xlink:href="#b" x="259.96" y="34.541"/><use xlink:href="#b" x="259.96" y="42.569"/><use xlink:href="#c" x="259.96" y="56.1"/><use xlink:href="#r" x="266.188" y="10.92"/><use xlink:href="#s" x="273.493" y="13.694"/><use xlink:href="#r" x="266.188" y="25.366"/><use xlink:href="#l" x="273.493" y="28.139"/><use xlink:href="#r" x="266.188" y="39.812"/><use xlink:href="#i" x="273.493" y="42.585"/><use xlink:href="#r" x="266.188" y="54.257"/><use xlink:href="#t" x="273.493" y="57.031"/><use xlink:href="#o" x="278.993" y="17.812"/><use xlink:href="#p" x="278.993" y="26.513"/><use xlink:href="#p" x="278.993" y="34.541"/><use xlink:href="#p" x="278.993" y="42.569"/><use xlink:href="#q" x="278.993" y="56.1"/><use xlink:href="#u" x="288.543" y="32.688"/><use xlink:href="#a" x="300.95" y="17.592"/><use xlink:href="#b" x="300.95" y="26.365"/><use xlink:href="#b" x="300.95" y="34.541"/><use xlink:href="#b" x="300.95" y="42.718"/><use xlink:href="#c" x="300.95" y="56.321"/><use xlink:href="#f" x="307.178" y="10.92"/><use xlink:href="#i" x="312.486" y="6.688"/><use xlink:href="#k" x="320.644" y="10.92"/><use xlink:href="#r" x="326.646" y="10.92"/><use xlink:href="#t" x="333.952" y="13.694"/><use xlink:href="#d" x="342.109" y="10.92"/><use xlink:href="#j" x="353.849" y="10.92"/><use xlink:href="#k" x="362.481" y="10.92"/><use xlink:href="#f" x="368.482" y="10.92"/><use xlink:href="#l" x="373.799" y="6.688"/><use xlink:href="#k" x="381.956" y="10.92"/><use xlink:href="#e" x="387.958" y="10.92"/><use xlink:href="#f" x="393.027" y="10.92"/><use xlink:href="#d" x="400.989" y="10.92"/><use xlink:href="#g" x="412.729" y="10.92"/><use xlink:href="#h" x="418.706" y="10.92"/><use xlink:href="#k" x="426.429" y="10.92"/><use xlink:href="#r" x="432.443" y="10.92"/><use xlink:href="#i" x="439.748" y="13.694"/><use xlink:href="#v" x="447.905" y="10.92"/><use xlink:href="#j" x="459.645" y="10.92"/><use xlink:href="#k" x="468.277" y="10.92"/><use xlink:href="#f" x="474.278" y="10.92"/><use xlink:href="#k" x="482.24" y="10.92"/><use xlink:href="#e" x="488.254" y="10.92"/><use xlink:href="#f" x="493.323" y="10.92"/><use xlink:href="#d" x="501.285" y="10.92"/><use xlink:href="#g" x="513.025" y="10.92"/><use xlink:href="#h" x="519.003" y="10.92"/><use xlink:href="#l" x="524.079" y="6.688"/><use xlink:href="#k" x="532.236" y="10.92"/><use xlink:href="#r" x="538.238" y="10.92"/><use xlink:href="#l" x="545.544" y="13.694"/><use xlink:href="#d" x="553.702" y="10.92"/><use xlink:href="#e" x="565.442" y="10.92"/><use xlink:href="#f" x="570.511" y="10.92"/><use xlink:href="#d" x="578.473" y="10.92"/><use xlink:href="#g" x="590.213" y="10.92"/><use xlink:href="#h" x="596.191" y="10.92"/><use xlink:href="#i" x="601.267" y="6.688"/><use xlink:href="#k" x="609.424" y="10.92"/><use xlink:href="#r" x="615.426" y="10.92"/><use xlink:href="#s" x="622.733" y="13.694"/><use xlink:href="#f" x="362.827" y="25.586"/><use xlink:href="#l" x="368.135" y="21.354"/><use xlink:href="#k" x="376.292" y="25.586"/><use xlink:href="#r" x="382.294" y="25.586"/><use xlink:href="#t" x="389.6" y="28.36"/><use xlink:href="#d" x="397.758" y="25.586"/><use xlink:href="#n" x="409.498" y="25.586"/><use xlink:href="#k" x="418.13" y="25.586"/><use xlink:href="#f" x="424.131" y="25.586"/><use xlink:href="#k" x="432.093" y="25.586"/><use xlink:href="#e" x="438.107" y="25.586"/><use xlink:href="#f" x="443.176" y="25.586"/><use xlink:href="#d" x="451.138" y="25.586"/><use xlink:href="#g" x="462.878" y="25.586"/><use xlink:href="#h" x="468.856" y="25.586"/><use xlink:href="#k" x="476.579" y="25.586"/><use xlink:href="#r" x="482.58" y="25.586"/><use xlink:href="#i" x="489.896" y="28.36"/><use xlink:href="#v" x="498.053" y="25.586"/><use xlink:href="#e" x="509.793" y="25.586"/><use xlink:href="#f" x="514.862" y="25.586"/><g><use xlink:href="#d" x="522.824" y="25.586"/></g><g><use xlink:href="#g" x="534.564" y="25.586"/><use xlink:href="#h" x="540.542" y="25.586"/></g><g><use xlink:href="#l" x="545.619" y="21.354"/></g><g><use xlink:href="#k" x="553.776" y="25.586"/></g><g><use xlink:href="#r" x="559.778" y="25.586"/></g><g><use xlink:href="#l" x="567.085" y="28.36"/></g><g><use xlink:href="#f" x="418.475" y="40.032"/></g><g><use xlink:href="#k" x="426.437" y="40.032"/></g><g><use xlink:href="#r" x="432.439" y="40.032"/></g><g><use xlink:href="#t" x="439.748" y="42.805"/></g><g><use xlink:href="#d" x="447.905" y="40.032"/></g><g><use xlink:href="#e" x="459.645" y="40.032"/><use xlink:href="#f" x="464.714" y="40.032"/></g><g><use xlink:href="#d" x="472.676" y="40.032"/></g><g><use xlink:href="#g" x="484.416" y="40.032"/><use xlink:href="#h" x="490.394" y="40.032"/></g><g><use xlink:href="#k" x="498.117" y="40.032"/></g><g><use xlink:href="#r" x="504.13" y="40.032"/></g><g><use xlink:href="#i" x="511.437" y="42.805"/></g><g><use xlink:href="#r" x="461.303" y="54.478"/></g><g><use xlink:href="#t" x="468.608" y="57.251"/></g><g><use xlink:href="#o" x="628.233" y="17.592"/></g><g><use xlink:href="#p" x="628.233" y="26.365"/></g><g><use xlink:href="#p" x="628.233" y="34.541"/></g><g><use xlink:href="#p" x="628.233" y="42.718"/></g><g><use xlink:href="#q" x="628.233" y="56.321"/></g></svg>