<svg xmlns:xlink="http://www.w3.org/1999/xlink" width="131.167ex" height="12.667ex" style="vertical-align:-5.833ex;margin-bottom:1px;margin-top:1px" viewBox="0 -2991.8 56489.8 5483.7" xmlns="http://www.w3.org/2000/svg"><defs><path stroke-width="10" id="d" d="M722 250c0-11-9-20-20-20H76c-11 0-20 9-20 20s9 20 20 20h626c11 0 20-9 20-20z"/><path stroke-width="10" id="e" d="M332-238c0-5-5-10-10-10-2 0-4 1-6 2-110 83-215 283-215 454v84c0 171 105 371 215 454 2 1 4 2 6 2 5 0 10-5 10-10 0-3-2-6-4-8-104-78-173-278-173-438v-84c0-160 69-360 173-438 2-2 4-5 4-8z"/><path stroke-width="10" id="f" d="M467 432c0-4-22-52-117-145-36-36-98-90-98-90-36-31-65-56-119-114 9 3 27 3 27 3 21 0 36-4 70-17 21-7 39-13 59-13 33 0 97 19 120 84 3 7 5 13 14 13 8 0 12-5 12-10 0-27-58-154-157-154-29 0-47 16-64 37-25 29-35 38-58 38-32 0-62-27-85-62-6-11-8-13-16-13 0 0-12 0-12 10 0 7 35 64 103 131l90 84c19 16 103 88 139 131-26 0-37 0-77 15-23 8-42 15-63 15-8 0-66-1-85-47-2-6-4-11-13-11s-12 6-12 11c0 21 46 114 121 114 33 0 50-20 69-43 15-17 27-32 51-32s45 16 75 64c5 9 8 11 15 11 0 0 11 0 11-10z"/><path stroke-width="10" id="g" d="M419 0c-35 3-122 3-162 3S130 3 95 0v31h32c90 0 93 12 93 48v518c-52-26-111-26-131-26v31c32 0 120 0 182 64 23 0 23-2 23-26V79c0-37 3-48 93-48h32V0z"/><path stroke-width="10" id="h" d="M288 208c0-171-105-371-215-454-2-1-4-2-6-2-5 0-10 5-10 10 0 3 2 6 4 8 104 78 173 278 173 438v84c0 160-69 360-173 438-2 2-4 5-4 8 0 5 5 10 10 10 2 0 4-1 6-2 110-83 215-283 215-454v-84z"/><path stroke-width="10" id="i" d="M457 171c0-102-91-193-213-193C135-22 42 44 42 135c0 44 32 58 56 58 29 0 56-20 56-56 0-38-31-60-66-55C123 23 198 6 241 6c44 0 113 29 113 165 0 98-37 166-119 166h-44c-17 0-24 0-24 11 0 10 7 11 15 12 7 0 31 2 39 3 25 1 59 4 89 52 26 44 28 102 28 114 0 90-55 112-96 112-36 0-102-13-133-62 15 0 62 0 62-50 0-29-20-51-51-51-29 0-51 19-51 52 0 76 76 136 177 136 96 0 184-56 184-138 0-79-58-149-140-176 104-21 167-99 167-181z"/><path stroke-width="10" id="k" d="M192 250c0-29-24-53-53-53s-53 24-53 53 24 53 53 53 53-24 53-53z"/><path stroke-width="10" id="l" d="M449 174L421 0H50c0 24 0 26 11 37l192 214c55 62 105 141 105 221 0 82-43 163-134 163-58 0-112-37-135-102 3 1 5 1 13 1 35 0 53-26 53-52 0-41-35-53-52-53-3 0-53 0-53 56 0 89 74 181 187 181 122 0 212-80 212-194 0-100-60-154-216-292L127 77h180c22 0 88 0 95 8 10 15 17 59 22 89h25z"/><path stroke-width="10" id="j" d="M460 320c0-79-5-157-37-226C379-1 303-22 249-22 200-22 127-2 84 79c-41 76-45 166-45 241 0 80 5 158 37 227 41 93 114 119 174 119 42 0 124-16 170-112 35-74 40-154 40-234zm-83 12c0 63 0 139-10 195-19 99-85 117-118 117-25 0-100-9-119-128-8-54-8-120-8-184 0-59 0-151 11-211C151 25 210 0 249 0c45 0 102 30 117 125 11 64 11 132 11 207z"/><path stroke-width="10" id="a" d="M647 1470c0-17-13-30-30-30H381V0h-60v1500h296c17 0 30-13 30-30z"/><path stroke-width="10" id="c" d="M647 30c0-17-13-30-30-30H321v1500h60V60h236c17 0 30-13 30-30z"/><path stroke-width="10" id="b" d="M381 0h-60v1000h60V0z"/><path stroke-width="10" id="m" d="M346 0h-60v1440H50c-17 0-30 13-30 30s13 30 30 30h296V0z"/><path stroke-width="10" id="o" d="M346 0H50C33 0 20 13 20 30s13 30 30 30h236v1440h60V0z"/><path stroke-width="10" id="n" d="M346 1000V0h-60v1000h60z"/><path stroke-width="10" id="p" d="M754 532c0-112-139-216-281-216H303L241 66c-1-6-3-11-3-17 0-18 28-18 65-18 19 0 28 0 28-11 0-20-13-20-20-20-21 0-43 2-65 2l-64 1L55 0c-3 0-15 0-15 12 0 19 11 19 28 19 79 0 81 8 91 47l134 537c3 12 4 15 4 19 0 11-6 14-22 16-12 1-30 2-43 2-20 0-29 0-29 12 0 19 11 19 30 19h324c131 0 197-74 197-151zm-93 24c0 69-53 96-136 96h-96c-43 0-45-3-54-38l-68-272h141c44 0 104 8 154 53 39 36 59 122 59 161z"/><path stroke-width="10" id="q" d="M471 165H371V78c0-36 2-47 76-47h21V0c-41 3-94 3-136 3s-94 0-135-3v31h21c74 0 76 11 76 47v87H28v31l307 469c8 12 11 12 20 12 16 0 16-6 16-26V196h100v-31zm-171 31v373L56 196h244z"/><path stroke-width="10" id="r" d="M722 347c0-11-9-20-20-20H76c-11 0-20 9-20 20s9 20 20 20h626c11 0 20-9 20-20zm0-194c0-11-9-20-20-20H76c-11 0-20 9-20 20s9 20 20 20h626c11 0 20-9 20-20z"/><path stroke-width="10" id="s" d="M722 250c0-11-9-20-20-20H409V-63c0-11-9-20-20-20s-20 9-20 20v293H76c-11 0-20 9-20 20s9 20 20 20h293v293c0 11 9 20 20 20s20-9 20-20V270h293c11 0 20-9 20-20z"/></defs><g stroke="currentColor" fill="currentColor" stroke-width="0" transform="scale(1 -1)"><g transform="translate(0 2977)"><use xlink:href="#a" y="-1510"/><use xlink:href="#b" transform="matrix(1 0 0 2.46646 0 -3961.128)"/><use xlink:href="#c" y="-5446"/></g><g transform="translate(828)"><g transform="translate(0 2137)"><use xlink:href="#d"/><use xlink:href="#e" x="783"/><use xlink:href="#f" x="1177"/><use xlink:href="#d" x="1871"/><use xlink:href="#g" x="2876"/><g transform="translate(3381)"><use xlink:href="#h"/><use transform="scale(.707)" xlink:href="#i" x="557" y="513"/></g></g><use xlink:href="#j" x="1863" y="638"/><use xlink:href="#j" x="1863" y="-820"/><use xlink:href="#j" x="1863" y="-2278"/></g><g transform="translate(6061)"><g transform="translate(0 2137)"><use xlink:href="#i"/><use xlink:href="#k" x="727"/><use xlink:href="#e" x="1232"/><use xlink:href="#f" x="1626"/><use xlink:href="#d" x="2320"/><use xlink:href="#g" x="3325"/><g transform="translate(3830)"><use xlink:href="#h"/><use transform="scale(.707)" xlink:href="#l" x="557" y="513"/></g><use xlink:href="#k" x="4904"/><use xlink:href="#f" x="5409"/></g><g transform="translate(1215 638)"><use xlink:href="#e"/><use xlink:href="#f" x="394"/><use xlink:href="#d" x="1088"/><use xlink:href="#g" x="2093"/><g transform="translate(2598)"><use xlink:href="#h"/><use transform="scale(.707)" xlink:href="#l" x="557" y="513"/></g></g><use xlink:href="#j" x="2688" y="-820"/><use xlink:href="#j" x="2688" y="-2278"/></g><g transform="translate(12942)"><g transform="translate(0 2137)"><use xlink:href="#d"/><use xlink:href="#i" x="783"/><use xlink:href="#k" x="1510"/><use xlink:href="#e" x="2015"/><use xlink:href="#f" x="2409"/><use xlink:href="#d" x="3103"/><use xlink:href="#g" x="4108"/><g transform="translate(4613)"><use xlink:href="#h"/><use transform="scale(.707)" xlink:href="#i" x="557" y="513"/></g><use xlink:href="#k" x="5687"/><g transform="translate(6192)"><use xlink:href="#f"/><use transform="scale(.707)" xlink:href="#l" x="668" y="513"/></g></g><g transform="translate(457 638)"><use xlink:href="#d"/><use xlink:href="#l" x="783"/><use xlink:href="#k" x="1510"/><use xlink:href="#e" x="2015"/><use xlink:href="#f" x="2409"/><use xlink:href="#d" x="3103"/><use xlink:href="#g" x="4108"/><use xlink:href="#h" x="4613"/><use xlink:href="#k" x="5230"/><use xlink:href="#f" x="5735"/></g><g transform="translate(1673 -820)"><use xlink:href="#d"/><use xlink:href="#e" x="783"/><use xlink:href="#f" x="1177"/><use xlink:href="#d" x="1871"/><use xlink:href="#g" x="2876"/><use xlink:href="#h" x="3381"/></g><use xlink:href="#j" x="3308" y="-2278"/></g><g transform="translate(21064)"><g transform="translate(0 2137)"><use xlink:href="#f"/><use transform="scale(.707)" xlink:href="#i" x="668" y="513"/></g><g transform="translate(0 638)"><use xlink:href="#f"/><use transform="scale(.707)" xlink:href="#l" x="668" y="513"/></g><use xlink:href="#f" x="228" y="-820"/><use xlink:href="#g" x="212" y="-2278"/></g><g transform="translate(22161 2977)"><use xlink:href="#m" y="-1510"/><use xlink:href="#n" transform="matrix(1 0 0 2.46646 0 -3961.128)"/><use xlink:href="#o" y="-5446"/></g><use xlink:href="#k" x="23055"/><g><g transform="translate(23560 2850)"><use xlink:href="#a" y="-1510"/><use xlink:href="#b" transform="matrix(1 0 0 2.21569 0 -3707.843)"/><use xlink:href="#c" y="-5190"/></g><g transform="translate(24388 2050)"><use xlink:href="#p"/><use transform="scale(.707)" xlink:href="#g" x="914" y="-213"/></g><g transform="translate(24388 650)"><use xlink:href="#p"/><use transform="scale(.707)" xlink:href="#l" x="914" y="-213"/></g><g transform="translate(24388 -750)"><use xlink:href="#p"/><use transform="scale(.707)" xlink:href="#i" x="914" y="-213"/></g><g transform="translate(24388 -2150)"><use xlink:href="#p"/><use transform="scale(.707)" xlink:href="#q" x="914" y="-213"/></g><g transform="translate(25659 2850)"><use xlink:href="#m" y="-1510"/><use xlink:href="#n" transform="matrix(1 0 0 2.21569 0 -3707.843)"/><use xlink:href="#o" y="-5190"/></g></g><use xlink:href="#r" x="26610"/><g><g transform="translate(27671 2977)"><use xlink:href="#a" y="-1510"/><use xlink:href="#b" transform="matrix(1 0 0 2.46646 0 -3961.128)"/><use xlink:href="#c" y="-5446"/></g><g transform="translate(28499 2137)"><use xlink:href="#f"/><use transform="scale(.707)" xlink:href="#i" x="668" y="513"/><use xlink:href="#k" x="1151"/><g transform="translate(1657)"><use xlink:href="#p"/><use transform="scale(.707)" xlink:href="#q" x="914" y="-213"/></g><use xlink:href="#d" x="2983"/><use xlink:href="#i" x="3988"/><use xlink:href="#k" x="4715"/><g transform="translate(5221)"><use xlink:href="#f"/><use transform="scale(.707)" xlink:href="#l" x="668" y="513"/></g><use xlink:href="#k" x="6373"/><use xlink:href="#e" x="6878"/><use xlink:href="#f" x="7272"/><use xlink:href="#d" x="7966"/><use xlink:href="#g" x="8971"/><use xlink:href="#h" x="9476"/><use xlink:href="#k" x="10093"/><g transform="translate(10598)"><use xlink:href="#p"/><use transform="scale(.707)" xlink:href="#i" x="914" y="-213"/></g><use xlink:href="#s" x="11924"/><use xlink:href="#i" x="12929"/><use xlink:href="#k" x="13656"/><use xlink:href="#f" x="14162"/><use xlink:href="#k" x="14856"/><use xlink:href="#e" x="15361"/><use xlink:href="#f" x="15755"/><use xlink:href="#d" x="16449"/><use xlink:href="#g" x="17455"/><g transform="translate(17960)"><use xlink:href="#h"/><use transform="scale(.707)" xlink:href="#l" x="557" y="513"/></g><use xlink:href="#k" x="19033"/><g transform="translate(19538)"><use xlink:href="#p"/><use transform="scale(.707)" xlink:href="#l" x="914" y="-213"/></g><use xlink:href="#d" x="20864"/><use xlink:href="#e" x="21870"/><use xlink:href="#f" x="22264"/><use xlink:href="#d" x="22958"/><use xlink:href="#g" x="23963"/><g transform="translate(24468)"><use xlink:href="#h"/><use transform="scale(.707)" xlink:href="#i" x="557" y="513"/></g><use xlink:href="#k" x="25541"/><g transform="translate(26047)"><use xlink:href="#p"/><use transform="scale(.707)" xlink:href="#g" x="914" y="-213"/></g></g><g transform="translate(33198 638)"><use xlink:href="#f"/><use transform="scale(.707)" xlink:href="#l" x="668" y="513"/><use xlink:href="#k" x="1151"/><g transform="translate(1657)"><use xlink:href="#p"/><use transform="scale(.707)" xlink:href="#q" x="914" y="-213"/></g><use xlink:href="#d" x="2983"/><use xlink:href="#l" x="3988"/><use xlink:href="#k" x="4715"/><use xlink:href="#f" x="5221"/><use xlink:href="#k" x="5915"/><use xlink:href="#e" x="6420"/><use xlink:href="#f" x="6814"/><use xlink:href="#d" x="7508"/><use xlink:href="#g" x="8514"/><use xlink:href="#h" x="9019"/><use xlink:href="#k" x="9635"/><g transform="translate(10140)"><use xlink:href="#p"/><use transform="scale(.707)" xlink:href="#i" x="914" y="-213"/></g><use xlink:href="#s" x="11466"/><use xlink:href="#e" x="12472"/><use xlink:href="#f" x="12866"/><use xlink:href="#d" x="13560"/><use xlink:href="#g" x="14565"/><g transform="translate(15070)"><use xlink:href="#h"/><use transform="scale(.707)" xlink:href="#l" x="557" y="513"/></g><use xlink:href="#k" x="16143"/><g transform="translate(16649)"><use xlink:href="#p"/><use transform="scale(.707)" xlink:href="#l" x="914" y="-213"/></g></g><g transform="translate(37897 -820)"><use xlink:href="#f"/><use xlink:href="#k" x="694"/><g transform="translate(1199)"><use xlink:href="#p"/><use transform="scale(.707)" xlink:href="#q" x="914" y="-213"/></g><use xlink:href="#d" x="2525"/><use xlink:href="#e" x="3530"/><use xlink:href="#f" x="3924"/><use xlink:href="#d" x="4619"/><use xlink:href="#g" x="5624"/><use xlink:href="#h" x="6129"/><use xlink:href="#k" x="6745"/><g transform="translate(7250)"><use xlink:href="#p"/><use transform="scale(.707)" xlink:href="#i" x="914" y="-213"/></g></g><g transform="translate(41522 -2278)"><use xlink:href="#p"/><use transform="scale(.707)" xlink:href="#q" x="914" y="-213"/></g><g transform="translate(55817 2977)"><use xlink:href="#m" y="-1510"/><use xlink:href="#n" transform="matrix(1 0 0 2.46646 0 -3961.128)"/><use xlink:href="#o" y="-5446"/></g></g></g></svg>