<svg xmlns="http://www.w3.org/2000/svg" xmlns:xlink="http://www.w3.org/1999/xlink" width="238pt" height="43pt" viewBox="0 0 238 43"><defs><symbol overflow="visible" id="a"><path d="M6.625-2.844c0-.515-.203-1-.531-1.265-.313-.25-.766-.391-1.594-.516v.266c.688-.25 1.063-.438 1.453-.75.531-.485.86-1.125.86-1.735 0-.984-1.094-1.687-2.016-1.687-.594 0-1.203.031-1.797.031-.61 0-1.203-.016-1.938-.047l-.078.61.813.03c.281 0 .266-.03.266.188 0 .172-.047.547-.11.907L.922-.782C.89-.577.875-.624.25-.531L.125.048C.672.016 1.047 0 1.406 0c.64 0 1.266.031 1.922.031.563 0 1.219-.156 1.781-.5.954-.562 1.516-1.469 1.516-2.375zm-1.328.188c0 1.234-.734 1.984-1.922 1.984-.25 0-.594-.015-.984-.047-.079-.015-.22-.015-.25-.031l.562-3.313h.906c1.235 0 1.688.375 1.688 1.407zm.219-3.985c0 1.266-.75 1.891-2.235 1.891h-.453l.531-3.016c.22 0 .532-.062.844-.062.969 0 1.313.297 1.313 1.187zm0 0"/></symbol><symbol overflow="visible" id="b"><path d="M4.14-1.234l-.171-.422-.438.312c-.64.453-1.11.657-1.531.657-.578 0-.781-.313-.781-1.047 0-.313.031-.61.078-.844l.86-.219c.202-.047.515-.172.827-.297C4-3.547 4.61-4.219 4.61-4.954c0-.562-.53-1.077-1.14-1.077-.781 0-2.188.843-2.672 1.61C.437-3.845.03-2.313.03-1.47.031-.547.703.125 1.563.125 2.25.125 3-.235 4.171-1.188zm-.702-3.532c0 .516-.266.954-.891 1.25a5.596 5.596 0 0 1-1.125.375l.062-.265c.188-.797.391-1.219.72-1.516.218-.219.515-.344.812-.344.343 0 .421.11.421.5zm1.265-3.359c0-.188-.36-.5-.594-.5-.109 0-.359.11-.5.25L1.781-6.578l.11.234h.421l2.016-1.25c.25-.156.375-.36.375-.531zm0 0"/></symbol><symbol overflow="visible" id="c"><path d="M4.813-1.953h-.36l-.312.844c-.094.218-.079.171-.329.171-.265 0-.53-.078-.796-.14-.391-.078-.797-.14-1.032-.14-.375 0-.703.077-1.14.25l.094.234 4.078-4.61.093-.484-.25-.25-.375.36c-.125.124-.14.14-.296.14-.407 0-1.032-.094-1.61-.25-.312-.094-.625-.203-.953-.203-.203 0-.438.047-.844.156L.328-4.187h.516l.36-.704c.124-.03.234-.046.39-.046s.297.015.531.062c.406.078.719.125.969.125.437 0 .812-.11 1.203-.313l-.203-.203L-.172-.422l.203.594c.5-.406.735-.484 1.157-.484.296 0 .625.046 1.25.203.718.171 1.093.234 1.406.234.156 0 .25-.016.719-.14.14-.844.25-1.25.406-1.938zm0 0"/></symbol><symbol overflow="visible" id="d"><path d="M2.969-1.25l-.172-.297-.453.297c-.36.234-.5.313-.625.313-.078 0-.016.03-.016-.11 0-.11 0-.203.078-.469l.922-3.64c.047-.203.063-.313.063-.422 0-.203-.22-.453-.422-.453-.266 0-.797.281-1.703.922l-.407.296.188.485.547-.36c.344-.218.375-.234.484-.234.11 0 .047-.031.047.11 0 .109-.047.359-.094.53L.625-1.405c-.11.375-.156.672-.156.922 0 .28.265.593.5.593.312 0 .844-.296 2.078-1.218zm.344-6.406c0-.282-.313-.61-.563-.61-.36 0-.844.516-.844.922 0 .297.328.625.625.625.375 0 .781-.484.781-.937zm0 0"/></symbol><symbol overflow="visible" id="e"><path d="M4.14-1.234l-.171-.422-.438.312c-.64.453-1.11.657-1.531.657-.578 0-.781-.313-.781-1.047 0-.313.031-.61.078-.844l.86-.219c.202-.047.515-.172.827-.297C4-3.547 4.61-4.219 4.61-4.954c0-.562-.53-1.077-1.14-1.077-.781 0-2.188.843-2.672 1.61C.437-3.845.03-2.313.03-1.47.031-.547.703.125 1.563.125 2.25.125 3-.235 4.171-1.188zm-.702-3.532c0 .516-.266.954-.891 1.25a5.596 5.596 0 0 1-1.125.375l.062-.265c.188-.797.391-1.219.72-1.516.218-.219.515-.344.812-.344.343 0 .421.11.421.5zm0 0"/></symbol><symbol overflow="visible" id="f"><path d="M4.531-4.5c.032-.453.094-.828.203-1.39-.28-.126-.328-.141-.39-.141-.36 0-.844.328-1.266.937-.406.594-.86 1.25-1.172 1.907h.282L2.5-4.704c.063-.25.14-.531.14-.813 0-.234-.218-.515-.406-.515-.25 0-.812.297-1.703.922l-.39.296.187.485.547-.36c.328-.218.375-.234.469-.234.125 0 .062-.031.062.125 0 .703-.515 3.156-1.015 4.75l.25.172c.296-.094.562-.156.953-.203l.328-1.563c.219-.984.453-1.53.984-2.203.406-.531.625-.75.89-.75.188 0 .204.032.36.235h.36zm0 0"/></symbol><symbol overflow="visible" id="g"><path d="M4.203-7.828a.735.735 0 0 1-.187-.14c-.063-.063-.11-.126-.22-.329-1.593 1.61-2.5 3.266-2.5 4.781v.797c0 1.516.907 3.172 2.5 4.781.11-.203.157-.265.22-.328.062-.062.125-.109.312-.203C2.875.063 2.281-1.344 2.281-2.719v-.797c0-1.39.594-2.78 2.047-4.25zm0 0"/></symbol><symbol overflow="visible" id="h"><path d="M6.234-1.25l-.171-.297-.454.297c-.343.219-.5.313-.625.313-.078 0-.03.03-.03-.11 0-.047.015-.187.03-.234l.782-3.297c.093-.344.14-.688.14-.89 0-.266-.265-.563-.5-.563-.5 0-1.437.5-2.14 1.156-.454.422-.797.828-1.407 1.703l.235.094.453-1.938c.047-.203.078-.343.078-.484 0-.25-.234-.531-.406-.531-.266 0-.828.312-1.703.922l-.391.296.172.485.547-.36c.437-.28.39-.265.469-.265.14 0 .078 0 .078.172 0 .61-.5 2.922-.985 4.656l.172.25c.36-.094.625-.172 1.016-.234.234-1.625.468-2.313 1-3.125.656-1.016 1.453-1.72 1.984-1.72.125 0 .063-.015.063.157 0 .219-.032.469-.141.86l-.61 2.53c-.109.438-.156.72-.156.907 0 .297.266.61.5.61.313 0 .829-.282 2.079-1.22zm0 0"/></symbol><symbol overflow="visible" id="i"><path d="M2.703-1.531L2.47-1.75c-.36.125-.563.203-1.328.406C1.047-.328.78.344.016 1.625l.312.25.61-.281C1.905.328 2.405-.516 2.75-1.47zm0 0"/></symbol><symbol overflow="visible" id="j"><path d="M3.703-5.516c-.453.047-.86.063-1.156.063.172-.984.297-1.578.531-2.25l-.25-.328a7.16 7.16 0 0 1-1.094.531l-.296 2.031c-.391.203-.704.328-1.063.407l-.047.406h1l-.64 3.25C.625-1.11.53-.813.53-.5c0 .297.266.61.5.61.422 0 .922-.282 1.86-1.032.218-.172.14-.125.437-.36l-.25-.437-.672.469c-.36.25-.484.313-.625.313-.093 0-.031.046-.031-.11 0-.297.156-1.234.516-3l.14-.61h1.266l.203-.89zm0 0"/></symbol><symbol overflow="visible" id="k"><path d="M3.766-2.719v-.797c0-1.515-.907-3.171-2.516-4.78-.11.202-.156.265-.203.327-.063.063-.125.11-.313.203 1.438 1.47 2.032 2.86 2.032 4.25v.797c0 1.375-.594 2.781-2.032 4.25.188.094.25.14.313.203.047.063.094.125.203.329C2.86.452 3.766-1.204 3.766-2.72zm0 0"/></symbol><symbol overflow="visible" id="l"><path d="M8.266-4.078a1.419 1.419 0 0 1-.047-.36c0-.109.015-.234.062-.484h-7.5c.063.25.063.375.063.484 0 .125 0 .235-.063.5h7.5zm0 2.625a1.332 1.332 0 0 1-.047-.36c0-.109.015-.234.062-.484h-7.5c.063.25.063.375.063.485 0 .125 0 .25-.063.5h7.5zm0 0"/></symbol><symbol overflow="visible" id="n"><path d="M13.938 2.344h-.61l-.094.937c-.093.922-.156.86-3.625.86H2.531l5.11-7.672-4.72-7.453h5.767c3.343 0 3.578-.032 3.624.53l.094 1.126h.75a16.115 16.115 0 0 1-.062-1.281c0-.36.015-.61.062-1.266l-8.984.047-3.281-.047-.079.563 5.313 8.39L.812 5.063v.578l7.344-.063 5.828.063c0-1.344.016-2.407.094-3.297zm0 0"/></symbol><symbol overflow="visible" id="r"><path d="M7.063-17.313c-.063-.046-.125-.093-.188-.156-.063-.047-.11-.11-.219-.312C3.47-14.594 1.563-10.328 1.563-5.5v4.766c0 4.828 1.906 9.093 5.093 12.28.11-.202.157-.265.219-.327.063-.047.125-.11.313-.203C4.14 7.953 2.796 3.89 2.796-.734V-5.5c0-4.64 1.344-8.688 4.39-11.766zm0 0"/></symbol><symbol overflow="visible" id="s"><path d="M2.969-1.25l-.172-.297-.453.297c-.36.234-.5.313-.625.313-.078 0-.016.03-.016-.11 0-.11 0-.203.078-.469l.922-3.64c.047-.203.063-.313.063-.422 0-.203-.22-.453-.422-.453-.266 0-.797.281-1.703.922l-.407.296.188.485.547-.36c.344-.218.375-.234.484-.234.11 0 .047-.031.047.11 0 .109-.047.359-.094.53L.625-1.405c-.11.375-.156.672-.156.922 0 .28.265.593.5.593.312 0 .844-.296 2.078-1.218zm.344-6.406c0-.282-.313-.61-.563-.61-.36 0-.844.516-.844.922 0 .297.328.625.625.625.375 0 .781-.484.781-.937zm0 0"/></symbol><symbol overflow="visible" id="t"><path d="M6.531-.734V-5.5c0-4.828-1.875-9.094-5.078-12.281-.11.203-.156.265-.219.312-.062.063-.125.11-.312.203 3.062 3.078 4.39 7.125 4.39 11.766v4.766c0 4.625-1.328 8.687-4.39 11.75.187.093.25.156.312.203.063.062.11.125.22.328C4.655 8.359 6.53 4.094 6.53-.734zm0 0"/></symbol><symbol overflow="visible" id="u"><path d="M18.39 1.328c-.093-.016-.171-.031-.25-.047-.078-.031-.062-.031-.265-.203-.36.922-1.11 1.063-2.453 1.063h-3.5c-1.422 0-2.438.375-2.735.75-.312-.375-1.312-.75-2.734-.75H2.97C1.609 2.14.844 2 .516 1.094.28 1.25.312 1.25.234 1.28c-.078.016-.156.032-.406.063.344.968 1.484 1.687 3.14 1.687h3.485c1.578 0 2.36.063 2.36.938.218-.078.296-.078.374-.078.094 0 .157 0 .376.078 0-.875.78-.938 2.359-.938h3.5c1.64 0 2.765-.719 3.125-1.687zm0 0"/></symbol><symbol overflow="visible" id="C"><path d="M2.516-3.125c0-.422-.407-.844-.844-.844-.422 0-.86.422-.86.844 0 .438.438.86.86.86.437 0 .844-.422.844-.86zm0 0"/></symbol><symbol overflow="visible" id="D"><path d="M5.125-.094v-.484l-.75-.047c-.656-.031-.64-.031-.64-.656v-7.172l-.313-.125c-.875.469-1.61.781-2.86 1.219l.125.718h.235l1.547-.687.031-.016c.063 0-.047-.015-.047.266v5.797c0 .625.016.625-.64.656L1-.578v.625L3.125 0l2 .047zm0 0"/></symbol><symbol overflow="visible" id="E"><path d="M8.266-2.766a1.332 1.332 0 0 1-.047-.359c0-.11.015-.234.062-.484h-7.5c.063.25.063.375.063.484 0 .125 0 .25-.063.5h7.5zm0 0"/></symbol><symbol overflow="visible" id="G"><path d="M10.563 2.11h-5.11C2.531 2.11.875 2.062.516 1.046c-.235.156-.204.172-.282.203-.078.016-.156.031-.406.063.36 1.015 2.36 1.921 5.625 1.921h5.25V2.11zm0 0"/></symbol><symbol overflow="visible" id="H"><path d="M10.578 3.094v-.985H-.14v1.125h10.72zm0 0"/></symbol><symbol overflow="visible" id="I"><path d="M21.281 3.094v-.985h-5.484c-2.86 0-4.735.563-5.235 1.125-.5-.562-2.343-1.125-5.203-1.125h-5.5v1.125h5.5c3.188 0 4.844-.062 4.844.938.203-.078.297-.078.375-.078.078 0 .156 0 .375.078 0-1 1.656-.938 4.844-.938h5.484zm0 0"/></symbol><symbol overflow="visible" id="J"><path d="M10.578 1.297c-.078-.016-.172-.031-.234-.047-.094-.031-.063-.047-.281-.203-.376 1.016-2.032 1.062-4.938 1.062H-.141v1.125h5.266c3.25 0 5.25-.906 5.625-1.921zm0 0"/></symbol><symbol overflow="visible" id="m"><path d="M5.156-.984L5-1.234 4.594-1c-.282.172-.39.234-.469.234-.078 0 .016.063.016-.046 0-.032-.032-.032.015-.157l.64-2.453c.063-.265.11-.515.11-.656 0-.203-.265-.453-.453-.453-.406 0-1.187.375-1.766.86-.359.312-.624.608-1.124 1.25l.265.093.36-1.422c.046-.156.062-.266.062-.36 0-.187-.234-.421-.375-.421-.203 0-.703.218-1.39.687l-.344.219.172.438.5-.297c.343-.204.265-.188.343-.188.11 0 .016-.047.016.094 0 .453-.406 2.156-.813 3.453l.172.219c.313-.078.531-.125.875-.188.203-1.218.375-1.703.813-2.312.531-.75 1.125-1.266 1.562-1.266.11 0 .016-.047.016.078 0 .172-.031.344-.11.64l-.5 1.876c-.093.328-.124.531-.124.672 0 .219.265.484.453.484.234 0 .687-.219 1.718-.922zm0 0"/></symbol><symbol overflow="visible" id="o"><path d="M2.531-.984l-.172-.25L1.953-1c-.281.188-.375.234-.469.234-.078 0 .016.063.016-.046 0-.079.016-.157.063-.344l.75-2.703a.983.983 0 0 0 .062-.313c0-.156-.234-.36-.39-.36-.22 0-.688.204-1.407.688l-.344.219.172.438.5-.297c.266-.172.266-.172.36-.172.093 0 0-.047 0 .062 0 .063-.047.25-.079.39l-.64 2.126c-.094.281-.125.5-.125.672 0 .219.266.484.453.484.25 0 .703-.234 1.734-.922zm.281-4.72c0-.218-.296-.5-.5-.5-.296 0-.734.423-.734.735 0 .219.313.485.563.485.296 0 .671-.391.671-.72zm0 0"/></symbol><symbol overflow="visible" id="p"><path d="M6.172-3.063a1.376 1.376 0 0 1-.031-.265c0-.078.015-.172.062-.39H.516c.046.218.062.312.062.39 0 .094-.015.187-.062.406h5.687zm0 1.954c-.016-.094-.031-.172-.031-.266 0-.094.015-.172.062-.39H.516c.046.218.062.296.062.39 0 .094-.015.172-.062.406h5.687zm0 0"/></symbol><symbol overflow="visible" id="q"><path d="M4.734-3.375c0-1.938-.78-3-2.109-3C1.141-6.375.219-5.141.219-3c0 1.031.234 2.031.578 2.453.344.438 1 .719 1.594.719 1.453 0 2.343-1.281 2.343-3.547zm-1.125.438c0 1.89-.203 2.53-1.093 2.53-.938 0-1.188-.75-1.188-2.921 0-1.86.203-2.469 1.125-2.469.938 0 1.156.734 1.156 2.86zm0 0"/></symbol><symbol overflow="visible" id="F"><path d="M6.172-2.078c-.016-.094-.031-.188-.031-.266 0-.094.015-.187.062-.406H.516c.046.219.062.313.062.406 0 .078-.015.172-.062.39h5.687zm0 0"/></symbol><symbol overflow="visible" id="v"><path d="M6.234-5.656l.5-.61c.22.188.446.418.688.688l-.11.172H1.454l-.094-.25zm.891 4.672l.547-.657c.238.22.46.461.672.72l-.11.187H.72l-.11-.25zm0 0"/></symbol><symbol overflow="visible" id="w"><path d="M4.625-5.484h.656c.094-.332.16-.711.203-1.141H3.422l-.094-.234h4.125l.469-.579c.207.168.398.344.578.532l.078.11-.078.171H6.203c-.2.398-.414.777-.64 1.14h1.64l.36-.421c.363.281.546.465.546.547 0 .043-.027.078-.078.109l-.219.14v4.126h-.515v-.344H4.578v.39h-.531V-5.75c.207.074.398.164.578.266zm2.672 1.453H4.578v1.093h2.719zm0-.235v-.984H4.578v.984zm0 2.72V-2.72H4.578v1.172zM2.234-5.829v3.797A39.1 39.1 0 0 0 3.563-2.5l.046.219c-.949.5-1.808.89-2.578 1.172C1-.86.941-.734.86-.734c-.125 0-.273-.274-.437-.829.469-.093.898-.195 1.297-.312v-3.953H.516l-.079-.219h2.157L3-6.609c.188.168.379.37.578.609l-.11.172zM6.281-1C7.832-.676 8.61-.281 8.61.188c0 .218-.093.328-.28.328A.376.376 0 0 1 8.061.39C7.646-.066 7.02-.47 6.188-.813zM2.531.422C3.47.109 4.254-.36 4.891-.984c.445.218.671.386.671.5 0 .062-.07.093-.203.093-.023 0-.09-.004-.203-.015C4.438.063 3.613.406 2.688.625zm0 0"/></symbol><symbol overflow="visible" id="x"><path d="M4.469-3.031l.031-.031c.758-.633 1.582-1.493 2.469-2.579.457.262.687.454.687.579 0 .062-.074.093-.218.093-.043 0-.125-.008-.25-.031A15.98 15.98 0 0 1 4.89-3.047c.914-.05 1.64-.094 2.171-.125l.422-.015A5.642 5.642 0 0 0 6.61-4l.125-.156c.657.304 1.145.636 1.47 1 .237.261.358.496.358.703 0 .2-.093.297-.28.297-.118 0-.227-.102-.329-.313a4.188 4.188 0 0 0-.297-.5l-.093.031c-.649.094-1.243.165-1.782.204V.64H5.25v-3.329c-.387.043-1.117.106-2.188.188-.062.2-.124.297-.187.297-.105 0-.203-.258-.297-.781.469-.008 1.098-.024 1.89-.047zm-.172-1.766a9.257 9.257 0 0 0 1.031-1.5c-.656.117-1.508.242-2.547.375l-.125-.219c1.969-.3 3.492-.671 4.578-1.109.446.25.672.422.672.516 0 .054-.062.078-.187.078a2.18 2.18 0 0 1-.36-.047 30.75 30.75 0 0 1-1.859.375c.406.18.61.324.61.437 0 .075-.087.11-.25.11h-.157c-.387.43-.789.804-1.203 1.125.313.25.469.476.469.672 0 .21-.094.312-.282.312-.105 0-.21-.094-.312-.281-.23-.426-.664-.832-1.297-1.219l.094-.187c.445.18.82.367 1.125.562zm-2.39 0c.331.063.5.14.5.234 0 .075-.122.153-.36.235V.64H1.53V-4A12.508 12.508 0 0 1 .47-2.281l-.203-.125c.914-1.489 1.578-3.16 1.984-5.016.54.137.813.262.813.375 0 .094-.137.164-.407.203-.25.824-.5 1.508-.75 2.047zm4.5 2.719c.718.344 1.288.765 1.718 1.265.164.18.25.368.25.563 0 .242-.102.36-.297.36-.125 0-.234-.11-.328-.329-.23-.55-.719-1.113-1.469-1.687zm-4 2.219c.624-.582 1.14-1.317 1.546-2.204.488.22.735.391.735.516 0 .086-.133.125-.391.125A5.877 5.877 0 0 1 2.547.312zm0 0"/></symbol><symbol overflow="visible" id="y"><path d="M2.39-5.547v-1.875c.54.024.813.09.813.203 0 .074-.11.14-.328.203v1.47h1.047l.375-.5c.187.198.332.382.437.546l-.093.188H2.875v.328c.969.21 1.453.48 1.453.812 0 .2-.086.297-.25.297-.094 0-.187-.05-.281-.156-.242-.301-.547-.54-.922-.719v1.313h-.484v-1.36c-.5.524-1.118.965-1.844 1.328l-.125-.187c.75-.457 1.348-1.008 1.797-1.656H.547l-.063-.235zm-.874 4.281a3.337 3.337 0 0 1-.141.25c-.074.106-.125.18-.156.22L.797-.985c.289-.457.55-.926.781-1.407H.453l-.078-.234h1.297c.101-.219.219-.492.344-.828.457.156.687.281.687.375 0 .055-.121.094-.36.125l-.124.328H3.89l.343-.422c.22.18.395.344.532.5l-.094.156H3.89c0 .012-.008.028-.016.047a.595.595 0 0 0-.016.125c-.125.5-.32.946-.578 1.328.531.262.797.5.797.72 0 .175-.086.265-.25.265-.074 0-.152-.04-.234-.11a5.401 5.401 0 0 0-.563-.468C2.52.078 1.711.446.61.625L.5.422C1.445.203 2.148-.188 2.61-.75a6.79 6.79 0 0 0-1.094-.516zm.109-.187c.375.074.785.2 1.234.375.22-.383.38-.82.485-1.313H2.109a8.233 8.233 0 0 1-.484.938zm5.094-.25c.508.668 1.176 1.234 2 1.703a2.393 2.393 0 0 0-.422.516C7.492-.047 6.879-.641 6.453-1.266 5.816-.398 4.957.234 3.875.641L3.75.437c1.04-.53 1.848-1.253 2.422-2.171-.43-.727-.746-1.692-.953-2.891-.242.5-.532.965-.875 1.39l-.188-.14c.614-1.008 1.051-2.36 1.313-4.047.55.117.828.23.828.344 0 .074-.121.137-.36.187-.117.532-.234.98-.359 1.344h2.11l.406-.562c.226.21.426.418.594.625l-.094.171h-.922l-.016.11c-.117 1.406-.43 2.574-.937 3.5zm-.297-.453c.375-.895.601-1.914.687-3.063v-.093H5.484a.472.472 0 0 1-.03.093c-.024.063-.04.11-.048.14.219 1.2.555 2.173 1.016 2.923zm-5.563-5c.633.375.954.742.954 1.093 0 .22-.102.329-.297.329-.137 0-.227-.098-.266-.297-.063-.32-.246-.64-.547-.953zM3.25-5.813c.281-.414.508-.878.688-1.39.445.2.671.351.671.453 0 .086-.117.125-.343.125-.188.262-.47.57-.844.922zm0 0"/></symbol><symbol overflow="visible" id="z"><path d="M1.813-2.422h1.906l.344-.422c.363.293.546.48.546.563 0 .043-.03.078-.093.11l-.22.14V.422h-.5v-.594H1.735v.719h-.5v-3.281c.164.074.36.18.579.312zm-.079.219v1.812h2.063v-1.812zM2.5-6.016v-1.421c.57.023.86.105.86.25 0 .074-.118.152-.344.234v.937h1.062l.406-.562c.22.21.407.406.563.594l-.11.187H.688L.61-6.016zm.531 2.454c.27-.563.492-1.282.672-2.157.54.188.813.336.813.438 0 .086-.121.136-.36.156-.18.46-.46.98-.843 1.563h.89l.422-.594c.188.187.375.402.563.64l-.094.172H.562l-.078-.219zm3.922-.688c1 .68 1.5 1.48 1.5 2.406 0 .856-.34 1.305-1.015 1.344a.348.348 0 0 0-.188-.313c-.125-.07-.422-.148-.89-.234v-.234c.406.054.738.078 1 .078.226 0 .378-.067.452-.203.063-.133.094-.344.094-.625 0-.77-.422-1.489-1.265-2.156.312-.645.601-1.399.875-2.266h-1.47v7.11h-.53v-7.641c.27.117.484.214.64.296H7.47l.312-.406c.383.356.578.578.578.672 0 .043-.027.074-.078.094l-.265.094c-.336.78-.688 1.445-1.063 1.984zM1.36-5.61c.657.5.985.997.985 1.485 0 .262-.11.39-.328.39-.149 0-.227-.097-.235-.296a2.926 2.926 0 0 0-.578-1.453zm0 0"/></symbol><symbol overflow="visible" id="A"><path d="M3.484-3.64H2.063l-.079-.235h4.141l.344-.406C6.82-4 7-3.816 7-3.734c0 .043-.031.09-.094.14l-.187.14C6.707-1.68 6.562-.534 6.28-.015c-.199.364-.547.547-1.047.547 0-.18-.117-.312-.343-.406-.18-.074-.496-.145-.954-.219v-.234a10.58 10.58 0 0 0 1.422.125c.313 0 .508-.192.594-.578.156-.614.238-1.567.25-2.86h-2.14c-.094 1.086-.352 1.95-.766 2.594C2.836-.328 2.109.234 1.109.641L.984.437C2.035-.125 2.75-.895 3.125-1.874a6.89 6.89 0 0 0 .36-1.766zm1.922-3.563c.832 1.46 1.844 2.543 3.032 3.25-.18.125-.336.308-.47.547a8.993 8.993 0 0 1-2.14-2.422c-.21-.352-.422-.77-.64-1.25zM.61-3.172C1.848-4.203 2.75-5.547 3.313-7.203c.539.187.812.344.812.469 0 .074-.125.136-.375.187-.46.95-.95 1.703-1.469 2.266C1.883-3.832 1.375-3.406.75-3zm0 0"/></symbol><symbol overflow="visible" id="B"><path d="M4.234-5.984c.196.304.297.562.297.78 0 .345-.086.81-.25 1.391a8.461 8.461 0 0 1-.656 1.641c-.25.5-.496.856-.734 1.063-.22.21-.465.312-.735.312-.199 0-.414-.125-.64-.375-.168-.156-.305-.406-.407-.75-.093-.32-.14-.66-.14-1.016 0-.457.101-.906.312-1.343.188-.395.446-.742.782-1.047.718-.656 1.601-.984 2.656-.984.8 0 1.488.195 2.062.578.82.586 1.235 1.386 1.235 2.406 0 .98-.356 1.73-1.063 2.25-.648.492-1.512.805-2.594.937l-.062-.25c1.008-.195 1.797-.586 2.36-1.171a2.546 2.546 0 0 0 .734-1.829c0-.812-.29-1.472-.86-1.984C6.071-5.789 5.461-6 4.703-6c-.168 0-.324.008-.469.016zm-.28.062c-.606.156-1.102.402-1.485.734a3.094 3.094 0 0 0-.781 1.063c-.18.387-.266.777-.266 1.172 0 .492.113.898.344 1.219.132.21.27.312.406.312.133 0 .285-.078.453-.234.332-.364.64-.907.922-1.625.363-.895.547-1.563.547-2 0-.282-.047-.492-.14-.64zm0 0"/></symbol><symbol overflow="visible" id="K"><path d="M4.094-6.422h1.812l.36-.406c.382.324.578.539.578.64 0 .043-.028.07-.078.079L6.453-6c-.867 1.117-1.867 1.965-3 2.547-.742.375-1.64.7-2.703.969l-.11-.204c1.438-.468 2.563-1 3.376-1.593a.406.406 0 0 1-.079.015c-.124 0-.218-.082-.28-.25-.095-.28-.329-.554-.704-.828-.605.469-1.324.875-2.156 1.219l-.11-.172c1.5-.781 2.649-1.812 3.454-3.094.5.168.75.305.75.407 0 .074-.149.117-.438.125-.074.093-.195.242-.36.437zm-.203.234c-.22.231-.47.465-.75.704.726.273 1.093.574 1.093.906a.3.3 0 0 1-.078.187 8.044 8.044 0 0 0 1.766-1.796zm1.5 2.782h1.921l.344-.406c.375.355.563.578.563.671 0 .043-.028.07-.078.079l-.282.109C6.867-1.648 5.723-.723 4.422-.172 3.547.191 2.488.457 1.25.625L1.125.406C2.77.094 4.082-.367 5.063-.984H5.03c-.105 0-.183-.051-.234-.157-.156-.394-.438-.754-.844-1.078-.648.418-1.355.766-2.125 1.047l-.125-.203c1.625-.707 2.93-1.742 3.922-3.11.469.15.703.274.703.376 0 .086-.14.132-.422.14-.093.125-.25.297-.468.516zm-.22.234a8.479 8.479 0 0 1-.984.797c.77.387 1.157.746 1.157 1.078a.281.281 0 0 1-.063.172 8.702 8.702 0 0 0 2.047-2.047zm0 0"/></symbol><symbol overflow="visible" id="L"><path d="M5.563-5.078c.195 1.46.617 2.664 1.265 3.61.383.562.656.843.813.843.144 0 .285-.566.421-1.703l.235.125a13.138 13.138 0 0 0-.094 1.312c0 .512.113.805.344.875-.063.27-.211.407-.438.407-.293 0-.683-.274-1.171-.813C5.925-1.555 5.28-3.098 5-5.047H.781l-.094-.219h4.297a2.96 2.96 0 0 1-.03-.265 9.617 9.617 0 0 1-.063-1.203v-.61c.593.043.89.121.89.235 0 .074-.117.164-.343.265v.188c0 .437.03.886.093 1.343h1.844l.438-.625c.175.18.347.368.515.563l.063.094-.094.203zM3.25-3.125V-1c.727-.145 1.39-.3 1.984-.469l.047.235c-1.261.46-2.511.84-3.75 1.14-.054.239-.117.36-.187.36-.125 0-.266-.29-.422-.875.601-.082 1.207-.18 1.812-.297v-2.219H1.141l-.094-.219h2.86l.468-.64c.219.21.422.433.61.671l-.11.188zm2.938-4.078c.8.324 1.203.687 1.203 1.094 0 .23-.11.343-.329.343-.156 0-.261-.097-.312-.296-.086-.352-.309-.68-.672-.985zm0 0"/></symbol></defs><use xlink:href="#a" x=".439" y="17.457"/><use xlink:href="#b" x="7.744" y="17.457"/><use xlink:href="#c" x="12.394" y="17.457"/><use xlink:href="#d" x="17.702" y="17.457"/><use xlink:href="#e" x="21.026" y="17.457"/><use xlink:href="#f" x="25.676" y="17.457"/><use xlink:href="#g" x="30.327" y="17.457"/><use xlink:href="#h" x="35.396" y="17.457"/><use xlink:href="#i" x="42.043" y="17.457"/><use xlink:href="#j" x="47.016" y="17.457"/><use xlink:href="#k" x="51.057" y="17.457"/><use xlink:href="#l" x="59.45" y="17.457"/><use xlink:href="#m" x="76.539" y="4.334"/><use xlink:href="#n" x="71.862" y="17.457"/><use xlink:href="#o" x="71.993" y="30.623"/><use xlink:href="#p" x="74.888" y="30.623"/><use xlink:href="#q" x="81.617" y="30.623"/><use xlink:href="#r" x="112.126" y="17.457"/><use xlink:href="#h" x="120.243" y="8.849"/><use xlink:href="#s" x="121.809" y="25.42"/><use xlink:href="#t" x="128.086" y="17.457"/><use xlink:href="#u" x="114.971" y="28.91"/><use xlink:href="#v" x="88.751" y="41.581"/><use xlink:href="#w" x="97.605" y="41.581"/><use xlink:href="#x" x="106.458" y="41.581"/><use xlink:href="#y" x="115.311" y="41.581"/><use xlink:href="#z" x="124.165" y="41.581"/><use xlink:href="#A" x="133.018" y="41.581"/><use xlink:href="#B" x="141.872" y="41.581"/><use xlink:href="#w" x="150.726" y="41.581"/><use xlink:href="#C" x="162.235" y="17.457"/><use xlink:href="#g" x="171.225" y="17.457"/><use xlink:href="#D" x="176.294" y="17.457"/><g><use xlink:href="#E" x="184.926" y="17.457"/></g><g><use xlink:href="#j" x="196.666" y="17.457"/></g><g><use xlink:href="#k" x="200.707" y="17.457"/></g><g><use xlink:href="#m" x="205.784" y="13.918"/><use xlink:href="#F" x="211.326" y="13.918"/><use xlink:href="#o" x="218.055" y="13.918"/></g><g><use xlink:href="#C" x="224.114" y="17.457"/></g><g><use xlink:href="#j" x="230.116" y="17.457"/></g><g><use xlink:href="#o" x="234.159" y="13.918"/></g><g><use xlink:href="#G" x="171.228" y="19.418"/></g><g><use xlink:href="#H" x="179.525" y="19.418"/></g><g><use xlink:href="#H" x="185.646" y="19.418"/></g><g><use xlink:href="#I" x="193.823" y="19.418"/></g><g><use xlink:href="#H" x="212.701" y="19.418"/></g><g><use xlink:href="#H" x="218.81" y="19.418"/></g><g><use xlink:href="#J" x="226.987" y="19.418"/></g><g><use xlink:href="#K" x="173.407" y="32.292"/><use xlink:href="#w" x="182.261" y="32.292"/><use xlink:href="#L" x="191.114" y="32.292"/><use xlink:href="#z" x="199.968" y="32.292"/><use xlink:href="#A" x="208.821" y="32.292"/><use xlink:href="#B" x="217.674" y="32.292"/><use xlink:href="#w" x="226.528" y="32.292"/></g></svg>