<svg xmlns:xlink="http://www.w3.org/1999/xlink" width="69.167ex" height="2.667ex" style="vertical-align:-.667ex;margin-bottom:1px;margin-top:1px" viewBox="0 -904.8 29770.5 1176.8" xmlns="http://www.w3.org/2000/svg"><defs><path stroke-width="10" id="a" d="M756 545c0-95-105-169-209-188 97-11 155-69 155-141C702 118 584 0 426 0H69C51 0 42 0 42 11c0 20 10 20 27 20 79 0 81 8 91 47l134 537c3 12 4 15 4 19 0 13-9 14-27 16-17 2-38 2-38 2-19 0-28 0-28 11 0 20 10 20 29 20h336c120 0 186-64 186-138zm-91 4c0 44-21 103-109 103H427c-43 0-45-3-54-38l-62-248h146c122 0 208 95 208 183zm-56-322c0 43-19 117-115 117H305L236 65c-5-18-5-20-5-23 0-8 3-9 13-10 6-1 8-1 22-1h136c118 0 207 97 207 196z"/><path stroke-width="10" id="b" d="M332-238c0-5-5-10-10-10-2 0-4 1-6 2-110 83-215 283-215 454v84c0 171 105 371 215 454 2 1 4 2 6 2 5 0 10-5 10-10 0-3-2-6-4-8-104-78-173-278-173-438v-84c0-160 69-360 173-438 2-2 4-5 4-8z"/><path stroke-width="10" id="c" d="M330 420c0-20-10-20-30-20h-94l-74-295c-4-17-6-24-6-48 0-33 10-46 31-46 34 0 87 24 130 128 5 11 6 14 15 14 4 0 12 0 12-10 0-8-57-154-159-154-54 0-92 38-92 92 0 18 4 35 76 319H51c-20 0-28 0-28 12 0 19 10 19 30 19h94l39 159c9 35 37 36 40 36 17 0 29-10 29-27 0-6-5-26-41-168h88c18 0 28 0 28-11z"/><path stroke-width="10" id="d" d="M288 208c0-171-105-371-215-454-2-1-4-2-6-2-5 0-10 5-10 10 0 3 2 6 4 8 104 78 173 278 173 438v84c0 160-69 360-173 438-2 2-4 5-4 8 0 5 5 10 10 10 2 0 4-1 6-2 110-83 215-283 215-454v-84z"/><path stroke-width="10" id="e" d="M722 347c0-11-9-20-20-20H76c-11 0-20 9-20 20s9 20 20 20h626c11 0 20-9 20-20zm0-194c0-11-9-20-20-20H76c-11 0-20 9-20 20s9 20 20 20h626c11 0 20-9 20-20z"/><path stroke-width="10" id="f" d="M754 532c0-112-139-216-281-216H303L241 66c-1-6-3-11-3-17 0-18 28-18 65-18 19 0 28 0 28-11 0-20-13-20-20-20-21 0-43 2-65 2l-64 1L55 0c-3 0-15 0-15 12 0 19 11 19 28 19 79 0 81 8 91 47l134 537c3 12 4 15 4 19 0 11-6 14-22 16-12 1-30 2-43 2-20 0-29 0-29 12 0 19 11 19 30 19h324c131 0 197-74 197-151zm-93 24c0 69-53 96-136 96h-96c-43 0-45-3-54-38l-68-272h141c44 0 104 8 154 53 39 36 59 122 59 161z"/><path stroke-width="10" id="g" d="M419 0c-35 3-122 3-162 3S130 3 95 0v31h32c90 0 93 12 93 48v518c-52-26-111-26-131-26v31c32 0 120 0 182 64 23 0 23-2 23-26V79c0-37 3-48 93-48h32V0z"/><path stroke-width="10" id="h" d="M192 250c0-29-24-53-53-53s-53 24-53 53 24 53 53 53 53-24 53-53z"/><path stroke-width="10" id="i" d="M722 250c0-11-9-20-20-20H76c-11 0-20 9-20 20s9 20 20 20h626c11 0 20-9 20-20z"/><path stroke-width="10" id="j" d="M457 171c0-102-91-193-213-193C135-22 42 44 42 135c0 44 32 58 56 58 29 0 56-20 56-56 0-38-31-60-66-55C123 23 198 6 241 6c44 0 113 29 113 165 0 98-37 166-119 166h-44c-17 0-24 0-24 11 0 10 7 11 15 12 7 0 31 2 39 3 25 1 59 4 89 52 26 44 28 102 28 114 0 90-55 112-96 112-36 0-102-13-133-62 15 0 62 0 62-50 0-29-20-51-51-51-29 0-51 19-51 52 0 76 76 136 177 136 96 0 184-56 184-138 0-79-58-149-140-176 104-21 167-99 167-181z"/><path stroke-width="10" id="k" d="M722 250c0-11-9-20-20-20H409V-63c0-11-9-20-20-20s-20 9-20 20v293H76c-11 0-20 9-20 20s9 20 20 20h293v293c0 11 9 20 20 20s20-9 20-20V270h293c11 0 20-9 20-20z"/><path stroke-width="10" id="l" d="M449 174L421 0H50c0 24 0 26 11 37l192 214c55 62 105 141 105 221 0 82-43 163-134 163-58 0-112-37-135-102 3 1 5 1 13 1 35 0 53-26 53-52 0-41-35-53-52-53-3 0-53 0-53 56 0 89 74 181 187 181 122 0 212-80 212-194 0-100-60-154-216-292L127 77h180c22 0 88 0 95 8 10 15 17 59 22 89h25z"/><path stroke-width="10" id="m" d="M471 165H371V78c0-36 2-47 76-47h21V0c-41 3-94 3-136 3s-94 0-135-3v31h21c74 0 76 11 76 47v87H28v31l307 469c8 12 11 12 20 12 16 0 16-6 16-26V196h100v-31zm-171 31v373L56 196h244z"/></defs><g stroke="currentColor" fill="currentColor" stroke-width="0" transform="scale(1 -1)"><use xlink:href="#a"/><use xlink:href="#b" x="764"/><use xlink:href="#c" x="1158"/><use xlink:href="#d" x="1524"/><use xlink:href="#e" x="2195"/><g transform="translate(3256)"><use xlink:href="#f"/><use transform="scale(.707)" xlink:href="#g" x="914" y="-213"/></g><use xlink:href="#h" x="4582"/><use xlink:href="#b" x="5088"/><use xlink:href="#g" x="5482"/><use xlink:href="#i" x="6209"/><use xlink:href="#c" x="7214"/><g transform="translate(7580)"><use xlink:href="#d"/><use transform="scale(.707)" xlink:href="#j" x="557" y="583"/></g><use xlink:href="#k" x="8653"/><g transform="translate(9659)"><use xlink:href="#f"/><use transform="scale(.707)" xlink:href="#l" x="914" y="-213"/></g><use xlink:href="#h" x="10985"/><use xlink:href="#j" x="11490"/><use xlink:href="#h" x="12217"/><use xlink:href="#b" x="12723"/><use xlink:href="#g" x="13117"/><use xlink:href="#i" x="13844"/><use xlink:href="#c" x="14849"/><g transform="translate(15215)"><use xlink:href="#d"/><use transform="scale(.707)" xlink:href="#l" x="557" y="583"/></g><use xlink:href="#h" x="16288"/><use xlink:href="#c" x="16794"/><use xlink:href="#k" x="17382"/><g transform="translate(18387)"><use xlink:href="#f"/><use transform="scale(.707)" xlink:href="#j" x="914" y="-213"/></g><use xlink:href="#h" x="19713"/><use xlink:href="#j" x="20219"/><use xlink:href="#h" x="20946"/><use xlink:href="#b" x="21451"/><use xlink:href="#g" x="21845"/><use xlink:href="#i" x="22572"/><use xlink:href="#c" x="23577"/><use xlink:href="#d" x="23943"/><use xlink:href="#h" x="24560"/><g transform="translate(25065)"><use xlink:href="#c"/><use transform="scale(.707)" xlink:href="#l" x="517" y="583"/></g><use xlink:href="#k" x="26110"/><g transform="translate(27115)"><use xlink:href="#f"/><use transform="scale(.707)" xlink:href="#m" x="914" y="-213"/></g><use xlink:href="#h" x="28442"/><g transform="translate(28947)"><use xlink:href="#c"/><use transform="scale(.707)" xlink:href="#j" x="517" y="583"/></g></g></svg>