<svg xmlns="http://www.w3.org/2000/svg" xmlns:xlink="http://www.w3.org/1999/xlink" width="403pt" height="40" viewBox="0 0 403 30"><defs><symbol overflow="visible" id="a"><path d="M5.89 10.797c-1.374-.375-1.796-1.485-1.796-3.203V.437c0-1.921-.766-3.218-1.782-3.687v.266c1.016-.47 1.782-1.766 1.782-3.704v-7.14c0-1.719.422-2.828 1.984-3.25-.125-.235-.125-.235-.156-.297-.016-.094-.016-.172-.016-.406-1.812.468-3.031 1.843-3.031 3.953v7.14c0 2.079-.36 3.204-1.922 3.204.078.203.094.28.094.359 0 .094-.016.172-.094.375 1.563 0 1.922 1.125 1.922 3.188v7.156c0 2.093 1.219 3.468 3.031 3.968 0-.25 0-.343.016-.421.031-.079.031-.063.156-.297zm0 0"/></symbol><symbol overflow="visible" id="b"><path d="M5.875-5.875c-.14-.078-.344-.156-.453-.156-.469 0-1.063.468-1.797 1.578l-.453.656.25.094-.078-.578c-.14-1.188-.594-1.75-1.297-1.75-.313 0-.688.14-.797.297L.484-4.61l.407.25c.437-.485.578-.61.812-.61.39 0 .516.36.719 1.532l.125.718-.438.656C1.594-1.25 1.297-.905.953-.905c-.172 0-.172.078-.203.015l-.188-.468-.453.062c0 .36-.03.516-.093.89-.032.141-.047.173-.063.329.219.125.531.203.672.203.39 0 .953-.375 1.328-.938l.906-1.406-.234-.094.125.829c.172 1.015.578 1.609 1 1.609.266 0 .75-.234 1.125-.578l.64-.578-.218-.469c-.578.453-.766.61-.953.61-.188 0-.25-.094-.453-.5.015.046-.11-.407-.172-.75L3.5-3.313l.39-.532c.563-.765.782-1.015 1.157-1.015.187 0 .187-.032.312.312l.36-.11.203-1.171zm0 0"/></symbol><symbol overflow="visible" id="c"><path d="M8.266-4.078a1.419 1.419 0 0 1-.047-.36c0-.109.015-.234.062-.484h-7.5c.063.25.063.375.063.484 0 .125 0 .235-.063.5h7.5zm0 2.625a1.332 1.332 0 0 1-.047-.36c0-.109.015-.234.062-.484h-7.5c.063.25.063.375.063.485 0 .125 0 .25-.063.5h7.5zm0 0"/></symbol><symbol overflow="visible" id="d"><path d="M5.125-.094v-.484l-.75-.047c-.656-.031-.64-.031-.64-.656v-7.172l-.313-.125c-.875.469-1.61.781-2.86 1.219l.125.718h.235l1.547-.687.031-.016c.063 0-.047-.015-.047.266v5.797c0 .625.016.625-.64.656L1-.578v.625L3.125 0l2 .047zm0 0"/></symbol><symbol overflow="visible" id="e"><path d="M2.313-.766c0-.359-.454-.828-.829-.828-.359 0-.828.469-.828.828 0 .36.469.829.813.829.39 0 .843-.454.843-.829zm0 0"/></symbol><symbol overflow="visible" id="f"><path d="M5.688-4.5c0-2.625-.907-4-2.547-4C1.297-8.5.203-6.89.203-4c0 1.39.281 2.703.703 3.281.422.594 1.203.953 1.938.953 1.812 0 2.844-1.687 2.844-4.734zm-1.282.594C4.406-1.36 4.094-.437 3-.437c-1.156 0-1.516-1.079-1.516-4 0-2.516.313-3.375 1.438-3.375 1.172 0 1.484 1.03 1.484 3.906zm0 0"/></symbol><symbol overflow="visible" id="g"><path d="M2.516-3.125c0-.422-.407-.844-.844-.844-.422 0-.86.422-.86.844 0 .438.438.86.86.86.437 0 .844-.422.844-.86zm0 0"/></symbol><symbol overflow="visible" id="h"><path d="M5.719-.094c-.016-.25-.016-.375-.016-.547 0-.14 0-.265.031-.671l-4.28.125.093.234 2.187-2.313C4.891-4.5 5.281-5.25 5.281-6.14 5.281-7.516 4.22-8.5 2.703-8.5c-.86 0-1.562.281-2.172.906L.312-5.766h.594l.188-.687c.203-.688.5-.86 1.297-.86 1.03 0 1.546.516 1.546 1.532 0 .89-.468 1.687-1.828 3.11L.047-.454v.5L2.859 0l2.875.047zm0 0"/></symbol><symbol overflow="visible" id="i"><path d="M4.203-7.828a.735.735 0 0 1-.187-.14c-.063-.063-.11-.126-.22-.329-1.593 1.61-2.5 3.266-2.5 4.781v.797c0 1.516.907 3.172 2.5 4.781.11-.203.157-.265.22-.328.062-.062.125-.109.312-.203C2.875.063 2.281-1.344 2.281-2.719v-.797c0-1.39.594-2.78 2.047-4.25zm0 0"/></symbol><symbol overflow="visible" id="j"><path d="M8.266-2.766a1.332 1.332 0 0 1-.047-.359c0-.11.015-.234.062-.484h-7.5c.063.25.063.375.063.484 0 .125 0 .25-.063.5h7.5zm0 0"/></symbol><symbol overflow="visible" id="k"><path d="M3.703-5.516c-.453.047-.86.063-1.156.063.172-.984.297-1.578.531-2.25l-.25-.328a7.16 7.16 0 0 1-1.094.531l-.296 2.031c-.391.203-.704.328-1.063.407l-.047.406h1l-.64 3.25C.625-1.11.53-.813.53-.5c0 .297.266.61.5.61.422 0 .922-.282 1.86-1.032.218-.172.14-.125.437-.36l-.25-.437-.672.469c-.36.25-.484.313-.625.313-.093 0-.031.046-.031-.11 0-.297.156-1.234.516-3l.14-.61h1.266l.203-.89zm0 0"/></symbol><symbol overflow="visible" id="l"><path d="M3.766-2.719v-.797c0-1.515-.907-3.171-2.516-4.78-.11.202-.156.265-.203.327-.063.063-.125.11-.313.203 1.438 1.47 2.032 2.86 2.032 4.25v.797c0 1.375-.594 2.781-2.032 4.25.188.094.25.14.313.203.047.063.094.125.203.329C2.86.452 3.766-1.204 3.766-2.72zm0 0"/></symbol><symbol overflow="visible" id="n"><path d="M8.266-2.766a1.332 1.332 0 0 1-.047-.359c0-.11.015-.234.062-.484h-3.25v-3.266c-.25.063-.375.078-.484.078-.125 0-.25-.016-.5-.078v3.266H.78c.063.25.063.375.063.484 0 .125 0 .25-.063.5h3.266V.641c.25-.063.375-.079.5-.079.11 0 .234.016.484.079v-3.266h3.25zm0 0"/></symbol><symbol overflow="visible" id="o"><path d="M5.656-2.813c0-.562-.281-1.171-.703-1.468-.297-.219-.672-.344-.953-.407.734-.562 1.125-1.203 1.125-1.906 0-1.062-1.016-1.906-2.344-1.906-.812 0-1.453.266-2.047.86L.328-5.954h.64l.266-.797c.125-.406.75-.688 1.375-.688.766 0 1.266.5 1.266 1.25 0 .907-.563 1.532-1.406 1.532-.11 0-.469.187-.469.187l-.25-.093-.14.671.202.188C2.297-3.938 2.516-4 2.845-4c1 0 1.422.516 1.422 1.594 0 1.219-.579 1.89-1.704 1.89-.546 0-.937-.14-1.296-.468C.984-1.25.859-1.438.578-2.25l-.562.219C.28-1.234.375-.797.469-.11c.765.25 1.281.343 1.734.343.953 0 2.14-.562 2.813-1.375.406-.484.64-1.109.64-1.671zm0 0"/></symbol><symbol overflow="visible" id="p"><path d="M5.625-3.156c0-1.344-1.11-2.438-2.469-2.438-.578 0-1.11.188-1.61.485l.095-2.11 3.578.063.14-.157c-.03-.265-.03-.343-.03-.515 0-.188 0-.266.03-.531l-.093-.11v.203s-1.375-.171-2.188-.171c-.812 0-1.984.171-1.984.171L.89-8.469l-.094.11.031 1.687C.828-5.625.781-4.5.75-3.89l.422.141c.625-.625.844-.75 1.437-.75 1.141 0 1.72.672 1.72 1.969 0 1.328-.626 1.969-1.923 1.969-.656 0-1.156-.172-1.312-.485l-.61-1.062-.5.28c.297.735.454 1.126.641 1.735.344.188.922.328 1.438.328.812 0 1.75-.375 2.406-.953.734-.64 1.156-1.547 1.156-2.437zm0 0"/></symbol><symbol overflow="visible" id="r"><path d="M5.953-5.875l-.203-.156c-.375.14-.64.203-1.016.234l-.453 1.703c-.14.563-.531 1.344-.922 1.938-.421.61-.89 1.094-1.156 1.094-.265 0-.11-.438-.094-.594l.172-2.328c.031-.36.047-.829.047-1.157 0-.53-.219-.89-.422-.89-.156 0-.422.125-1 .515L-.14-4.78l.266.437.734-.453c.063-.047.125-.11.204-.11.312 0 .125.485.109.673L.969-1.328l-.016.484c-.015.5.36.969.656.969.454 0 1.547-1.047 2.438-2.39l-.234-.094-.579 2.03c-.609 2.126-1.078 2.86-1.906 2.86-.422 0-.61-.187-.61-.61 0-.062.016-.155.032-.343l-.297-.11-.672.485c-.015.156-.015.219-.015.281 0 .516.578 1.063 1.125 1.063 1.265 0 2.703-1.61 3.406-3.828L6-5.828zm0 0"/></symbol><symbol overflow="visible" id="s"><path d="M5.719-2.75c0-1.375-.953-2.406-2.219-2.406-.703 0-1.25.328-1.766.75.22-1.844 1.094-2.89 3.375-3.563v-.265L4.531-8.5c-1.156.39-1.75.656-2.36 1.188C.939-6.282.235-4.72.235-3.079.234-1.11 1.344.234 2.875.234c1.563 0 2.844-1.359 2.844-2.984zm-1.297.422c0 1.234-.469 1.906-1.39 1.906-1.016 0-1.423-.734-1.423-2.344 0-.406 0-.546.141-.75.266-.406.719-.656 1.297-.656.906 0 1.375.656 1.375 1.844zm0 0"/></symbol><symbol overflow="visible" id="t"><path d="M5.766-.094v-.484l-.704-.047c-.578-.031-.578-.063-.578-.781v-.75c.579 0 .829 0 1.282.062v-1L5.734-3s-.671-.188-1.062-.188h-.188v-1.53c0-2.126.016-3.157.094-3.72l-.281-.124-.984.343-3.438 5.64.203.423h3.125v.75c0 .718.016.765-.578.781l-.875.047v.625L3.813 0l1.953.047zM3.344-3.188H1l2.438-3.984-.235-.094v4.079zm0 0"/></symbol><symbol overflow="visible" id="m"><path d="M4.703-2.11c0-.421-.25-.89-.594-1.124a2.225 2.225 0 0 0-.703-.282c.531-.375.86-.875.86-1.406 0-.781-.86-1.437-1.938-1.437-.64 0-1.203.203-1.687.656L.312-4.406h.594l.219-.625c.11-.297.563-.469 1.063-.469.624 0 .984.328.984.89 0 .673-.406 1.094-1.094 1.094-.078 0-.36.204-.36.204l-.265-.094-.125.515.203.157c.407-.172.594-.22.844-.22.813 0 1.11.329 1.11 1.142 0 .906-.422 1.359-1.329 1.359-.437 0-.719-.094-1.015-.344C.906-.984.828-1.094.578-1.75l-.531.188c.234.609.312.937.375 1.468C1.078.11 1.5.172 1.859.172c.782 0 1.766-.422 2.297-1.016.328-.375.547-.86.547-1.265zm0 0"/></symbol><symbol overflow="visible" id="q"><path d="M4.75-.11c-.016-.187-.016-.265-.016-.39s0-.203.032-.547l-3.141.094 1.5-1.469c.938-.906 1.266-1.5 1.266-2.156 0-1.016-.891-1.781-2.125-1.781-.688 0-1.282.218-1.782.687L.297-4.266h.547l.172-.546c.156-.516.359-.594 1-.594.828 0 1.203.343 1.203 1.093 0 .657-.36 1.22-1.453 2.282L.078-.391v.422L2.391 0l2.375.031zm0 0"/></symbol></defs><use xlink:href="#a" x="-.673" y="18.283"/><use xlink:href="#b" x="6.405" y="10.961"/><use xlink:href="#c" x="15.838" y="10.961"/><use xlink:href="#d" x="28.247" y="10.961"/><use xlink:href="#e" x="34.225" y="10.961"/><use xlink:href="#f" x="37.214" y="10.961"/><use xlink:href="#g" x="45.845" y="10.961"/><g fill="#00f"><use xlink:href="#d" x="51.859" y="10.961"/><use xlink:href="#h" x="57.837" y="10.961"/><use xlink:href="#f" x="63.814" y="10.961"/></g><use xlink:href="#g" x="72.449" y="10.961"/><use xlink:href="#i" x="78.451" y="10.961"/><use xlink:href="#d" x="83.52" y="10.961"/><use xlink:href="#j" x="92.151" y="10.961"/><use xlink:href="#k" x="103.891" y="10.961"/><use xlink:href="#l" x="107.932" y="10.961"/><use xlink:href="#m" x="113.01" y="6.728"/><use xlink:href="#n" x="121.163" y="10.961"/><g fill="#00f"><use xlink:href="#o" x="132.906" y="10.961"/><use xlink:href="#p" x="138.884" y="10.961"/></g><use xlink:href="#g" x="147.518" y="10.961"/><use xlink:href="#o" x="153.52" y="10.961"/><use xlink:href="#g" x="162.151" y="10.961"/><use xlink:href="#i" x="168.153" y="10.961"/><use xlink:href="#d" x="173.222" y="10.961"/><use xlink:href="#j" x="181.865" y="10.961"/><use xlink:href="#k" x="193.605" y="10.961"/><use xlink:href="#l" x="197.646" y="10.961"/><use xlink:href="#q" x="202.718" y="6.728"/><use xlink:href="#g" x="210.871" y="10.961"/><use xlink:href="#k" x="216.873" y="10.961"/><use xlink:href="#n" x="223.567" y="10.961"/><g fill="#00f"><use xlink:href="#h" x="235.317" y="10.961"/><use xlink:href="#h" x="241.295" y="10.961"/><use xlink:href="#f" x="247.272" y="10.961"/></g><use xlink:href="#g" x="255.906" y="10.961"/><use xlink:href="#o" x="261.908" y="10.961"/><use xlink:href="#g" x="270.539" y="10.961"/><use xlink:href="#i" x="276.541" y="10.961"/><use xlink:href="#d" x="281.61" y="10.961"/><use xlink:href="#j" x="290.253" y="10.961"/><use xlink:href="#k" x="301.993" y="10.961"/><use xlink:href="#l" x="306.034" y="10.961"/><use xlink:href="#g" x="313.757" y="10.961"/><use xlink:href="#k" x="319.759" y="10.961"/><use xlink:href="#q" x="323.808" y="6.728"/><use xlink:href="#n" x="331.962" y="10.961"/><use xlink:href="#d" x="343.702" y="10.961"/><use xlink:href="#e" x="349.68" y="10.961"/><use xlink:href="#f" x="352.668" y="10.961"/><use xlink:href="#g" x="361.3" y="10.961"/><g fill="#00f"><use xlink:href="#h" x="367.31" y="10.961"/><use xlink:href="#h" x="373.288" y="10.961"/><use xlink:href="#f" x="379.265" y="10.961"/></g><use xlink:href="#g" x="387.9" y="10.961"/><use xlink:href="#k" x="393.902" y="10.961"/><use xlink:href="#m" x="397.945" y="6.728"/><use xlink:href="#r" x="6.369" y="25.622"/><use xlink:href="#c" x="15.873" y="25.622"/><use xlink:href="#d" x="28.283" y="25.622"/><use xlink:href="#e" x="34.26" y="25.622"/><use xlink:href="#f" x="37.249" y="25.622"/><use xlink:href="#g" x="45.881" y="25.622"/><g fill="#00f"><use xlink:href="#d" x="51.895" y="25.622"/><use xlink:href="#s" x="57.873" y="25.622"/><use xlink:href="#f" x="63.85" y="25.622"/></g><use xlink:href="#g" x="72.485" y="25.622"/><use xlink:href="#i" x="78.487" y="25.622"/><use xlink:href="#d" x="83.556" y="25.622"/><use xlink:href="#j" x="92.187" y="25.622"/><use xlink:href="#k" x="103.927" y="25.622"/><use xlink:href="#l" x="107.968" y="25.622"/><use xlink:href="#m" x="113.046" y="21.39"/><use xlink:href="#n" x="121.199" y="25.622"/><g fill="#00f"><use xlink:href="#h" x="132.942" y="25.622"/><use xlink:href="#f" x="138.92" y="25.622"/><use xlink:href="#f" x="144.897" y="25.622"/></g><use xlink:href="#g" x="153.532" y="25.622"/><use xlink:href="#o" x="159.534" y="25.622"/><use xlink:href="#g" x="168.165" y="25.622"/><use xlink:href="#i" x="174.167" y="25.622"/><use xlink:href="#d" x="179.236" y="25.622"/><use xlink:href="#j" x="187.867" y="25.622"/><use xlink:href="#k" x="199.619" y="25.622"/><use xlink:href="#l" x="203.66" y="25.622"/><use xlink:href="#q" x="208.731" y="21.39"/><use xlink:href="#g" x="216.885" y="25.622"/><use xlink:href="#k" x="222.887" y="25.622"/><use xlink:href="#n" x="229.581" y="25.622"/><g fill="#00f"><use xlink:href="#h" x="241.33" y="25.622"/><use xlink:href="#s" x="247.308" y="25.622"/><use xlink:href="#f" x="253.285" y="25.622"/></g><use xlink:href="#g" x="261.92" y="25.622"/><use xlink:href="#o" x="267.922" y="25.622"/><use xlink:href="#g" x="276.553" y="25.622"/><use xlink:href="#i" x="282.555" y="25.622"/><use xlink:href="#d" x="287.624" y="25.622"/><use xlink:href="#j" x="296.255" y="25.622"/><g><use xlink:href="#k" x="308.007" y="25.622"/></g><g><use xlink:href="#l" x="312.048" y="25.622"/></g><g><use xlink:href="#g" x="319.771" y="25.622"/></g><g><use xlink:href="#k" x="325.773" y="25.622"/></g><g><use xlink:href="#q" x="329.822" y="21.39"/></g><g><use xlink:href="#n" x="337.975" y="25.622"/></g><g><use xlink:href="#d" x="349.715" y="25.622"/><use xlink:href="#e" x="355.693" y="25.622"/><use xlink:href="#f" x="358.681" y="25.622"/></g><g><use xlink:href="#g" x="367.313" y="25.622"/></g><g fill="#00f"><use xlink:href="#t" x="373.323" y="25.622"/><use xlink:href="#f" x="379.301" y="25.622"/></g><g><use xlink:href="#g" x="387.936" y="25.622"/></g><g><use xlink:href="#k" x="393.938" y="25.622"/></g><g><use xlink:href="#m" x="397.981" y="21.39"/></g></svg>