<svg xmlns="http://www.w3.org/2000/svg" xmlns:xlink="http://www.w3.org/1999/xlink" width="216" height="36" viewBox="0 0 162 27"><defs><symbol overflow="visible" id="a"><path d="M8.219-.094v-.453L7.78-.594c-.562-.062-.468.047-.531-.5L6.187-8.687h-.734l-4.5 7.124C.531-.89.422-.734.016-.64l-.391.079v.609L1.109 0c.438 0 .86.016 1.407.047v-.61l-.75-.03c-.204-.016-.235.015-.235-.095 0-.093.032-.156.282-.562L3-3.313h2.75l.297 2.266c.016.11.031.203.031.266 0 .187-.047.156-.375.187l-.672.031v.61L6.641 0l1.578.047zM5.813-4H3.469l2-3.219-.25-.093L5.656-4zm0 0"/></symbol><symbol overflow="visible" id="c"><path d="M8.266-4.078a1.419 1.419 0 0 1-.047-.36c0-.109.015-.234.062-.484h-7.5c.063.25.063.375.063.484 0 .125 0 .235-.063.5h7.5zm0 2.625a1.332 1.332 0 0 1-.047-.36c0-.109.015-.234.062-.484h-7.5c.063.25.063.375.063.485 0 .125 0 .25-.063.5h7.5zm0 0"/></symbol><symbol overflow="visible" id="d"><path d="M6.813-6.844c0-.984-1.094-1.687-2.016-1.687-.594 0-1.203.031-1.797.031l-1.938-.047-.062.61.797.03c.281 0 .266-.03.266.188 0 .172-.047.547-.11.907L.922-.782C.89-.577.875-.624.25-.531L.14.048A21.28 21.28 0 0 1 1.407 0c.64 0 1.266.031 1.922.031.563 0 1.219-.156 1.781-.5.954-.562 1.516-1.469 1.516-2.375 0-.515-.203-1-.531-1.265-.313-.25-.766-.391-1.594-.516v.266c.688-.25 1.063-.438 1.453-.75.531-.485.86-1.125.86-1.735zM5.296-2.656c0 1.234-.734 1.984-1.922 1.984-.25 0-.594-.015-.984-.047-.079-.015-.22-.015-.25-.031l.562-3.313h.906c1.235 0 1.688.375 1.688 1.407zm.219-3.985c0 1.266-.75 1.891-2.235 1.891h-.453l.531-3.016c.22 0 .532-.062.844-.062.969 0 1.313.297 1.313 1.187zm0 0"/></symbol><symbol overflow="visible" id="e"><path d="M8.266-2.766a1.332 1.332 0 0 1-.047-.359c0-.11.015-.234.062-.484h-7.5c.063.25.063.375.063.484 0 .125 0 .25-.063.5h7.5zm0 0"/></symbol><symbol overflow="visible" id="f"><path d="M7.781-8.219c-.922-.344-1.593-.484-2.328-.484-.984 0-2.078.344-2.906.89C1.14-6.859.39-5.358.39-3.53c0 2.328 1.421 3.75 3.703 3.75C5.25.219 6.187-.094 7.28-.844l.157-.578-.266-.187c-1.234.765-1.75.921-2.672.921-1.89 0-2.781-1.015-2.781-3.14 0-1.328.375-2.406 1.11-3.156.546-.563 1.218-.829 2.171-.829.86 0 1.36.141 2 .547v1.063h.578c.078-.813.172-1.328.36-1.953zm0 0"/></symbol><symbol overflow="visible" id="g"><path d="M4.594-5.953c-.14-.063-.188-.078-.25-.078-.36 0-.844.328-1.266.937-.406.594-.86 1.25-1.172 1.907h.282L2.5-4.704c.063-.25.14-.531.14-.813 0-.234-.218-.515-.406-.515-.25 0-.812.297-1.703.922l-.39.296.187.485.547-.36c.328-.218.375-.234.469-.234.125 0 .062-.031.062.125 0 .703-.515 3.156-1 4.75l.235.172c.296-.094.562-.156.953-.203l.328-1.563c.219-.984.453-1.53.984-2.203.406-.531.625-.75.89-.75.188 0 .204.032.36.235h.36c.046-.594.109-.97.218-1.532zm0 0"/></symbol><symbol overflow="visible" id="h"><path d="M4.984-1.14l-.156-.485c-.25.203-.266.219-.328.266-.375.312-.453.39-.625.39-.125 0-.047.031-.047-.156 0-.047 0-.078.016-.125l1.11-4.578-.25-.203-.438.218c-.438-.156-.672-.218-.985-.218-.344 0-.578.062-.906.218-.75.375-1.234.766-1.531 1.36l-.047.094C.28-3.297-.093-1.875-.093-.922c0 .516.327 1.047.546 1.047.25 0 .797-.281 1.234-.656.516-.453.985-1.016 1.641-1.938l-.234-.094-.344 1.516a2.715 2.715 0 0 0-.078.61c0 .265.25.562.437.562.266 0 .86-.36 1.891-1.219zM3.672-5.079c-.266 1.281-.453 1.797-.844 2.406C2.156-1.656 1.516-.969 1.125-.969c-.14 0-.078-.015-.078-.344 0-.765.297-2.093.719-3.093.296-.688.453-.766 1.03-.766.282 0 .5.047.86.172zm0 0"/></symbol><symbol overflow="visible" id="i"><path d="M3.703-5.516c-.453.047-.86.063-1.156.063.172-.984.297-1.578.531-2.25l-.25-.328a7.16 7.16 0 0 1-1.094.531l-.296 2.031c-.391.203-.704.328-1.063.407l-.047.406h1l-.64 3.25C.625-1.11.53-.813.53-.5c0 .297.266.61.5.61.422 0 .922-.282 1.86-1.032.218-.172.14-.125.437-.36l-.25-.437-.672.469c-.36.25-.484.313-.625.313-.093 0-.031.046-.031-.11 0-.297.156-1.234.516-3l.14-.61h1.266l.203-.89zm0 0"/></symbol><symbol overflow="visible" id="j"><path d="M2.969-1.25l-.172-.297-.453.297c-.36.234-.5.313-.625.313-.078 0-.016.03-.016-.11 0-.11 0-.203.078-.469l.922-3.64c.047-.203.063-.313.063-.422 0-.203-.22-.453-.422-.453-.266 0-.797.281-1.703.922l-.407.296.188.485.547-.36c.344-.218.375-.234.484-.234.11 0 .047-.031.047.11 0 .109-.047.359-.094.53L.625-1.405c-.11.375-.156.672-.156.922 0 .28.265.593.5.593.312 0 .844-.296 2.078-1.218zm.344-6.406c0-.282-.313-.61-.563-.61-.36 0-.844.516-.844.922 0 .297.328.625.625.625.375 0 .781-.484.781-.937zm0 0"/></symbol><symbol overflow="visible" id="k"><path d="M5.047-4.094c0-1.125-.734-1.937-1.719-1.937-.515 0-1.187.25-1.719.625-.968.703-1.546 2-1.546 3.453C.063-.687.734.125 1.734.125c.657 0 1.47-.344 2-.844.75-.703 1.313-2.156 1.313-3.375zm-1.188.203C3.86-2.75 3.531-1.578 3-.937c-.219.25-.422.359-.781.359-.703 0-.969-.406-.969-1.36 0-1.343.422-2.718 1.016-3.203.156-.125.328-.171.609-.171.734 0 .984.406.984 1.421zm0 0"/></symbol><symbol overflow="visible" id="l"><path d="M8.266-2.766a1.332 1.332 0 0 1-.047-.359c0-.11.015-.234.062-.484h-3.25v-3.266c-.25.063-.375.078-.484.078-.125 0-.25-.016-.5-.078v3.266H.78c.063.25.063.375.063.484 0 .125 0 .25-.063.5h3.266V.641c.25-.063.375-.079.5-.079.11 0 .234.016.484.079v-3.266h3.25zm0 0"/></symbol><symbol overflow="visible" id="b"><path d="M2.61-4.672l-.22-.203-1.093.39-.89 3.376.312.234.5-.266 1.453-3.468zm0 0"/></symbol></defs><use xlink:href="#a" x=".899" y="18.059"/><use xlink:href="#b" x="9.531" y="13.826"/><use xlink:href="#c" x="16.422" y="18.059"/><use xlink:href="#d" x="28.82" y="18.059"/><use xlink:href="#b" x="36.134" y="13.826"/><use xlink:href="#e" x="42.361" y="18.059"/><use xlink:href="#f" x="55.299" y="9.451"/><use xlink:href="#e" x="66.071" y="9.451"/><use xlink:href="#d" x="77.811" y="9.451"/><use xlink:href="#b" x="85.12" y="5.219"/><path d="M55.3 15.07h33.391" fill="none" stroke-width=".717" stroke="#000" stroke-miterlimit="10"/><use xlink:href="#g" x="60.446" y="26.021"/><use xlink:href="#h" x="65.36" y="26.021"/><use xlink:href="#i" x="70.68" y="26.021"/><use xlink:href="#j" x="74.721" y="26.021"/><use xlink:href="#k" x="78.235" y="26.021"/><use xlink:href="#c" x="93.207" y="18.059"/><use xlink:href="#d" x="105.605" y="18.059"/><use xlink:href="#b" x="112.918" y="13.826"/><use xlink:href="#l" x="119.145" y="18.059"/><use xlink:href="#d" x="132.084" y="9.451"/><use xlink:href="#e" x="142.043" y="9.451"/><use xlink:href="#f" x="153.783" y="9.451"/><path d="M132.086 15.07h29.82" fill="none" stroke-width=".717" stroke="#000" stroke-miterlimit="10"/><use xlink:href="#g" x="135.446" y="26.021"/><use xlink:href="#h" x="140.36" y="26.021"/><use xlink:href="#i" x="145.668" y="26.021"/><use xlink:href="#j" x="149.709" y="26.021"/><g><use xlink:href="#k" x="153.223" y="26.021"/></g></svg>