<svg xmlns="http://www.w3.org/2000/svg" xmlns:xlink="http://www.w3.org/1999/xlink" width="58pt" height="40" viewBox="0 0 58 30"><defs><symbol overflow="visible" id="a"><path d="M5.89 10.797c-1.374-.375-1.796-1.485-1.796-3.203V.437c0-1.921-.766-3.218-1.782-3.687v.266c1.016-.47 1.782-1.766 1.782-3.704v-7.14c0-1.719.422-2.828 1.984-3.25-.125-.235-.125-.235-.156-.297-.016-.094-.016-.172-.016-.406-1.812.468-3.031 1.843-3.031 3.953v7.14c0 2.079-.36 3.204-1.922 3.204.078.203.094.28.094.359 0 .094-.016.172-.094.375 1.563 0 1.922 1.125 1.922 3.188v7.156c0 2.093 1.219 3.468 3.031 3.968 0-.25 0-.343.016-.421.031-.079.031-.063.156-.297zm0 0"/></symbol><symbol overflow="visible" id="b"><path d="M5.875-5.875c-.14-.078-.344-.156-.453-.156-.469 0-1.063.468-1.797 1.578l-.453.656.25.094-.078-.578c-.14-1.188-.594-1.75-1.297-1.75-.313 0-.688.14-.797.297L.484-4.61l.407.25c.437-.485.578-.61.812-.61.39 0 .516.36.719 1.532l.125.718-.438.656C1.594-1.25 1.297-.905.953-.905c-.172 0-.172.078-.203.015l-.188-.468-.453.062c0 .36-.03.516-.093.89-.032.141-.047.173-.063.329.219.125.531.203.672.203.39 0 .953-.375 1.328-.938l.906-1.406-.234-.094.125.829c.172 1.015.578 1.609 1 1.609.266 0 .75-.234 1.125-.578l.64-.578-.218-.469c-.578.453-.766.61-.953.61-.188 0-.25-.094-.453-.5.015.046-.11-.407-.172-.75L3.5-3.313l.39-.532c.563-.765.782-1.015 1.157-1.015.187 0 .187-.032.312.312l.36-.11.203-1.171zm0 0"/></symbol><symbol overflow="visible" id="c"><path d="M8.266-4.078a1.419 1.419 0 0 1-.047-.36c0-.109.015-.234.062-.484h-7.5c.063.25.063.375.063.484 0 .125 0 .235-.063.5h7.5zm0 2.625a1.332 1.332 0 0 1-.047-.36c0-.109.015-.234.062-.484h-7.5c.063.25.063.375.063.485 0 .125 0 .25-.063.5h7.5zm0 0"/></symbol><symbol overflow="visible" id="d"><path d="M5.031-.781l-.172-.25c-.593.312-.859.39-1.296.39C2.234-.64 1.5-1.547 1.5-3.125c0-1.281.453-1.86 1.531-1.86.531 0 1 .204 1.172.454l.094.812h.61c0-.687.046-1.172.171-1.656-.531-.328-1.031-.5-1.531-.5-.578 0-1.344.266-2.063.719C.641-4.625.172-3.688.172-2.641A2.858 2.858 0 0 0 3.047.234c.625 0 1.61-.265 1.734-.437l.313-.484zm0 0"/></symbol><symbol overflow="visible" id="e"><path d="M6.281-2.969c0-1.61-1.312-2.906-2.953-2.906C1.594-5.875.234-4.5.234-2.719c0 1.672 1.22 2.953 2.75 2.953 1.844 0 3.297-1.406 3.297-3.203zm-1.39.453c0 1.375-.47 2.094-1.438 2.094-1.172 0-1.828-1.016-1.828-2.703 0-1.438.438-2.094 1.5-2.094 1.094 0 1.766 1.078 1.766 2.703zm0 0"/></symbol><symbol overflow="visible" id="f"><path d="M4.813-1.906c0-.36-.141-.735-.375-.969-.313-.313-.797-.484-1.86-.688-.969-.187-1.172-.296-1.172-.843 0-.61.297-.813 1.016-.813.812 0 1.265.297 1.265.86v.406h.61c.016-.828.031-1.11.078-1.563-.781-.265-1.203-.359-1.703-.359C1.297-5.875.297-5.078.297-4c0 .563.406 1.11.953 1.36.328.14.969.328 1.781.515.531.11.61.234.61.688 0 .656-.454.968-1.297.968-.875 0-1.36-.281-1.36-.875v-.625h-.64c0 .953-.031 1.313-.14 1.875.78.25 1.25.328 1.796.328 1.563 0 2.813-.968 2.813-2.14zm0 0"/></symbol><symbol overflow="visible" id="g"><path d="M4.203-7.828a.735.735 0 0 1-.187-.14c-.063-.063-.11-.126-.22-.329-1.593 1.61-2.5 3.266-2.5 4.781v.797c0 1.516.907 3.172 2.5 4.781.11-.203.157-.265.22-.328.062-.062.125-.109.312-.203C2.875.063 2.281-1.344 2.281-2.719v-.797c0-1.39.594-2.78 2.047-4.25zm0 0"/></symbol><symbol overflow="visible" id="h"><path d="M3.703-5.516c-.453.047-.86.063-1.156.063.172-.984.297-1.578.531-2.25l-.25-.328a7.16 7.16 0 0 1-1.094.531l-.296 2.031c-.391.203-.704.328-1.063.407l-.047.406h1l-.64 3.25C.625-1.11.53-.813.53-.5c0 .297.266.61.5.61.422 0 .922-.282 1.86-1.032.218-.172.14-.125.437-.36l-.25-.437-.672.469c-.36.25-.484.313-.625.313-.093 0-.031.046-.031-.11 0-.297.156-1.234.516-3l.14-.61h1.266l.203-.89zm0 0"/></symbol><symbol overflow="visible" id="i"><path d="M3.766-2.719v-.797c0-1.515-.907-3.171-2.516-4.78-.11.202-.156.265-.203.327-.063.063-.125.11-.313.203 1.438 1.47 2.032 2.86 2.032 4.25v.797c0 1.375-.594 2.781-2.032 4.25.188.094.25.14.313.203.047.063.094.125.203.329C2.86.452 3.766-1.204 3.766-2.72zm0 0"/></symbol><symbol overflow="visible" id="j"><path d="M5.953-5.875l-.203-.156c-.375.14-.64.203-1.016.234l-.453 1.703c-.14.563-.531 1.344-.922 1.938-.421.61-.89 1.094-1.156 1.094-.265 0-.11-.438-.094-.594l.172-2.328c.031-.36.047-.829.047-1.157 0-.53-.219-.89-.422-.89-.156 0-.422.125-1 .515L-.14-4.78l.266.437.734-.453c.063-.047.125-.11.204-.11.312 0 .125.485.109.673L.969-1.328l-.016.484c-.015.5.36.969.656.969.454 0 1.547-1.047 2.438-2.39l-.234-.094-.579 2.03c-.609 2.126-1.078 2.86-1.906 2.86-.422 0-.61-.187-.61-.61 0-.062.016-.155.032-.343l-.297-.11-.672.485c-.015.156-.015.219-.015.281 0 .516.578 1.063 1.125 1.063 1.265 0 2.703-1.61 3.406-3.828L6-5.828zm0 0"/></symbol><symbol overflow="visible" id="k"><path d="M3.375-.094v-.484l-.688-.047c-.406-.016-.312.031-.312-.719v-4.422l-.234-.109a7.46 7.46 0 0 1-2.016.516v.578h.594c.469 0 .375-.047.375.734v2.703c0 .75.11.703-.297.719l-.688.047v.625L1.75 0l1.625.047zm-.906-7.11c0-.343-.36-.734-.719-.734-.36 0-.75.375-.75.735s.39.719.75.719.719-.36.719-.72zm0 0"/></symbol><symbol overflow="visible" id="l"><path d="M6.969-.094v-.484l-.625-.047c-.407-.016-.313.047-.313-.719v-2.312c0-1.406-.781-2.219-2.125-2.219-.437 0-.797.125-1.047.344l-.671.578v-.813l-.235-.109a7.46 7.46 0 0 1-2.016.516v.578h.594c.469 0 .375-.047.375.734v2.703c0 .75.11.703-.297.719l-.687.047v.625L1.547 0l1.625.047v-.625L2.5-.625c-.406-.016-.313.031-.313-.719V-3.89c0-.53.657-.984 1.391-.984.797 0 1.172.469 1.172 1.39V.048A16.1 16.1 0 0 1 5.844 0c.343 0 .656.016 1.125.047zm0 0"/></symbol></defs><use xlink:href="#a" x="-.585" y="18.123"/><use xlink:href="#b" x="6.457" y="10.8"/><use xlink:href="#c" x="15.89" y="10.8"/><use xlink:href="#d" x="28.299" y="10.8"/><use xlink:href="#e" x="33.607" y="10.8"/><use xlink:href="#f" x="40.135" y="10.8"/><use xlink:href="#g" x="45.204" y="10.8"/><use xlink:href="#h" x="50.273" y="10.8"/><use xlink:href="#i" x="54.314" y="10.8"/><use xlink:href="#j" x="6.965" y="25.246"/><use xlink:href="#c" x="16.469" y="25.246"/><g><use xlink:href="#f" x="28.879" y="25.246"/><use xlink:href="#k" x="33.948" y="25.246"/></g><g><use xlink:href="#l" x="37.522" y="25.246"/></g><g><use xlink:href="#g" x="44.696" y="25.246"/><use xlink:href="#h" x="49.765" y="25.246"/></g><g><use xlink:href="#i" x="53.805" y="25.246"/></g></svg>