<svg xmlns:xlink="http://www.w3.org/1999/xlink" width="129.333ex" height="12.667ex" style="vertical-align: -5.667ex; margin-left: 0ex; margin-right: 0ex; margin-bottom: 1px; margin-top: 1px;" viewBox="0 -3068.9 55658.5 5461.9" xmlns="http://www.w3.org/2000/svg">
<defs>
<path stroke-width="10" id="E1-LATINMODERNMAIN-5B" d="M256 -230c0 -11 -9 -20 -20 -20h-122v1000h122c11 0 20 -9 20 -20s-9 -20 -20 -20h-82v-920h82c11 0 20 -9 20 -20Z"></path>
<path stroke-width="10" id="E1-LATINMODERNMAIN-31" d="M419 0c-35 3 -122 3 -162 3s-127 0 -162 -3v31h32c90 0 93 12 93 48v518c-52 -26 -111 -26 -131 -26v31c32 0 120 0 182 64c23 0 23 -2 23 -26v-561c0 -37 3 -48 93 -48h32v-31Z"></path>
<path stroke-width="10" id="E1-LATINMODERNMAIN-30" d="M460 320c0 -79 -5 -157 -37 -226c-44 -95 -120 -116 -174 -116c-49 0 -122 20 -165 101c-41 76 -45 166 -45 241c0 80 5 158 37 227c41 93 114 119 174 119c42 0 124 -16 170 -112c35 -74 40 -154 40 -234zM377 332c0 63 0 139 -10 195c-19 99 -85 117 -118 117 c-25 0 -100 -9 -119 -128c-8 -54 -8 -120 -8 -184c0 -59 0 -151 11 -211c18 -96 77 -121 116 -121c45 0 102 30 117 125c11 64 11 132 11 207Z"></path>
<path stroke-width="10" id="E1-LATINMODERNMAIN-2212" d="M722 250c0 -11 -9 -20 -20 -20h-626c-11 0 -20 9 -20 20s9 20 20 20h626c11 0 20 -9 20 -20Z"></path>
<path stroke-width="10" id="E1-LATINMODERNMAIN-33" d="M457 171c0 -102 -91 -193 -213 -193c-109 0 -202 66 -202 157c0 44 32 58 56 58c29 0 56 -20 56 -56c0 -38 -31 -60 -66 -55c35 -59 110 -76 153 -76c44 0 113 29 113 165c0 98 -37 166 -119 166h-44c-17 0 -24 0 -24 11c0 10 7 11 15 12c7 0 31 2 39 3c25 1 59 4 89 52 c26 44 28 102 28 114c0 90 -55 112 -96 112c-36 0 -102 -13 -133 -62c15 0 62 0 62 -50c0 -29 -20 -51 -51 -51c-29 0 -51 19 -51 52c0 76 76 136 177 136c96 0 184 -56 184 -138c0 -79 -58 -149 -140 -176c104 -21 167 -99 167 -181Z"></path>
<path stroke-width="10" id="E1-LATINMODERNMAIN-36" d="M457 204c0 -132 -95 -226 -206 -226c-93 0 -209 71 -209 338c0 221 135 350 263 350c83 0 127 -48 127 -108c0 -39 -30 -48 -46 -48c-22 0 -46 15 -46 46c0 45 40 45 55 45c-22 34 -64 40 -88 40c-51 0 -175 -36 -175 -289v-24c20 48 57 99 125 99 c111 0 200 -96 200 -223zM367 205c0 49 0 100 -18 137c-31 62 -77 62 -93 62c-90 0 -122 -100 -122 -178c0 -18 0 -98 18 -145c6 -15 36 -75 99 -75c23 0 69 5 99 65c17 36 17 86 17 134Z"></path>
<path stroke-width="10" id="E1-LATINMODERNMAIN-5D" d="M164 -250h-122c-11 0 -20 9 -20 20s9 20 20 20h82v920h-82c-11 0 -20 9 -20 20s9 20 20 20h122v-1000Z"></path>
<path stroke-width="10" id="E1-LATINMODERNSYMBOLS-23A1" d="M647 1470c0 -17 -13 -30 -30 -30h-236v-1440h-60v1500h296c17 0 30 -13 30 -30Z"></path>
<path stroke-width="10" id="E1-LATINMODERNSYMBOLS-23A3" d="M647 30c0 -17 -13 -30 -30 -30h-296v1500h60v-1440h236c17 0 30 -13 30 -30Z"></path>
<path stroke-width="10" id="E1-LATINMODERNSYMBOLS-23A2" d="M381 0h-60v1000h60v-1000Z"></path>
<path stroke-width="10" id="E1-LATINMODERNSYMBOLS-23A4" d="M346 0h-60v1440h-236c-17 0 -30 13 -30 30s13 30 30 30h296v-1500Z"></path>
<path stroke-width="10" id="E1-LATINMODERNSYMBOLS-23A6" d="M346 0h-296c-17 0 -30 13 -30 30s13 30 30 30h236v1440h60v-1500Z"></path>
<path stroke-width="10" id="E1-LATINMODERNSYMBOLS-23A5" d="M346 1000v-1000h-60v1000h60Z"></path>
<path stroke-width="10" id="E1-LATINMODERNMAIN-22C5" d="M192 250c0 -29 -24 -53 -53 -53s-53 24 -53 53s24 53 53 53s53 -24 53 -53Z"></path>
<path stroke-width="10" id="E1-LATINMODERNMAIN-32" d="M449 174l-28 -174h-371c0 24 0 26 11 37l192 214c55 62 105 141 105 221c0 82 -43 163 -134 163c-58 0 -112 -37 -135 -102c3 1 5 1 13 1c35 0 53 -26 53 -52c0 -41 -35 -53 -52 -53c-3 0 -53 0 -53 56c0 89 74 181 187 181c122 0 212 -80 212 -194 c0 -100 -60 -154 -216 -292l-106 -103h180c22 0 88 0 95 8c10 15 17 59 22 89h25Z"></path>
<path stroke-width="10" id="E1-LATINMODERNMAIN-3C4" d="M459 407c9 -34 -27 -34 -40 -34h-168l18 -342c1 -15 3 -43 -30 -43c-22 0 -33 16 -36 27c-1 4 0 25 1 37l18 321h-83c-21 0 -78 0 -108 -77c-4 -8 -5 -12 -13 -12c-12 0 -14 10 -14 10c-2 6 14 54 38 90c32 47 71 47 91 47h280c19 0 40 0 46 -24Z"></path>
<path stroke-width="10" id="E1-LATINMODERNMAIN-28" d="M332 -238c0 -5 -5 -10 -10 -10c-2 0 -4 1 -6 2c-110 83 -215 283 -215 454v84c0 171 105 371 215 454c2 1 4 2 6 2c5 0 10 -5 10 -10c0 -3 -2 -6 -4 -8c-104 -78 -173 -278 -173 -438v-84c0 -160 69 -360 173 -438c2 -2 4 -5 4 -8Z"></path>
<path stroke-width="10" id="E1-LATINMODERNMAIN-29" d="M288 208c0 -171 -105 -371 -215 -454c-2 -1 -4 -2 -6 -2c-5 0 -10 5 -10 10c0 3 2 6 4 8c104 78 173 278 173 438v84c0 160 -69 360 -173 438c-2 2 -4 5 -4 8c0 5 5 10 10 10c2 0 4 -1 6 -2c110 -83 215 -283 215 -454v-84Z"></path>
<path stroke-width="10" id="E1-LATINMODERNMAIN-34" d="M471 165h-100v-87c0 -36 2 -47 76 -47h21v-31c-41 3 -94 3 -136 3s-94 0 -135 -3v31h21c74 0 76 11 76 47v87h-266v31l307 469c8 12 11 12 20 12c16 0 16 -6 16 -26v-455h100v-31zM300 196v373l-244 -373h244Z"></path>
<path stroke-width="10" id="E1-LATINMODERNMAIN-3D" d="M722 347c0 -11 -9 -20 -20 -20h-626c-11 0 -20 9 -20 20s9 20 20 20h626c11 0 20 -9 20 -20zM722 153c0 -11 -9 -20 -20 -20h-626c-11 0 -20 9 -20 20s9 20 20 20h626c11 0 20 -9 20 -20Z"></path>
<path stroke-width="10" id="E1-LATINMODERNNORMAL-1D434" d="M721 20c0 -20 -12 -20 -18 -20c-25 0 -88 3 -113 3c-41 0 -84 -3 -125 -3c0 0 -14 0 -14 11c0 20 10 20 24 20c20 0 72 3 72 33c0 10 -14 146 -16 167h-251c-68 -116 -69 -116 -76 -128c-8 -14 -14 -25 -14 -37c0 -25 24 -33 47 -35c7 0 16 -1 16 -12 c0 -19 -13 -19 -19 -19c-32 0 -67 3 -100 3c-28 0 -59 -3 -86 -3c-8 0 -13 5 -13 11c0 19 9 19 21 20c44 3 83 17 123 84l348 584c6 10 10 17 26 17c17 0 17 -4 19 -24l61 -625c3 -29 3 -36 65 -36c13 0 23 0 23 -11zM528 262l-32 330l-197 -330h229Z"></path>
<path stroke-width="10" id="E1-LATINMODERNNORMAL-1D43C" d="M497 671c0 -19 -8 -19 -32 -19c-79 0 -82 -10 -91 -46l-134 -533c-2 -7 -4 -15 -4 -23c0 -11 4 -15 25 -17c20 -2 25 -2 43 -2c22 0 30 0 30 -12c0 -19 -12 -19 -20 -19l-134 3l-131 -3c-3 0 -15 0 -15 11c0 20 9 20 32 20c79 0 82 10 91 47l135 539c2 9 2 11 2 16 c0 19 -27 19 -69 19c-19 0 -28 0 -28 11c0 20 13 20 20 20l133 -3l132 3c4 0 15 0 15 -12Z"></path>
</defs>
<g stroke="currentColor" fill="currentColor" stroke-width="0" transform="matrix(1 0 0 -1 0 0)">
<g transform="translate(0,2850)">
 <use xlink:href="#E1-LATINMODERNSYMBOLS-23A1" x="0" y="-1510"></use>
<g transform="translate(0,-3707.843137254902) scale(1,2.215686274509804)">
 <use xlink:href="#E1-LATINMODERNSYMBOLS-23A2"></use>
</g>
 <use xlink:href="#E1-LATINMODERNSYMBOLS-23A3" x="0" y="-5190"></use>
</g>
<g transform="translate(839,0)">
<g transform="translate(-11,0)">
 <use xlink:href="#E1-LATINMODERNMAIN-31" x="391" y="2050"></use>
<g transform="translate(0,650)">
 <use xlink:href="#E1-LATINMODERNMAIN-2212" x="0" y="0"></use>
 <use xlink:href="#E1-LATINMODERNMAIN-33" x="783" y="0"></use>
</g>
 <use xlink:href="#E1-LATINMODERNMAIN-33" x="391" y="-750"></use>
<g transform="translate(0,-2150)">
 <use xlink:href="#E1-LATINMODERNMAIN-2212" x="0" y="0"></use>
 <use xlink:href="#E1-LATINMODERNMAIN-31" x="783" y="0"></use>
</g>
</g>
<g transform="translate(2277,0)">
 <use xlink:href="#E1-LATINMODERNMAIN-30" x="391" y="2050"></use>
 <use xlink:href="#E1-LATINMODERNMAIN-33" x="391" y="650"></use>
<g transform="translate(0,-750)">
 <use xlink:href="#E1-LATINMODERNMAIN-2212" x="0" y="0"></use>
 <use xlink:href="#E1-LATINMODERNMAIN-36" x="783" y="0"></use>
</g>
 <use xlink:href="#E1-LATINMODERNMAIN-33" x="391" y="-2150"></use>
</g>
<g transform="translate(4565,0)">
 <use xlink:href="#E1-LATINMODERNMAIN-30" x="391" y="2050"></use>
 <use xlink:href="#E1-LATINMODERNMAIN-30" x="391" y="650"></use>
 <use xlink:href="#E1-LATINMODERNMAIN-33" x="391" y="-750"></use>
<g transform="translate(0,-2150)">
 <use xlink:href="#E1-LATINMODERNMAIN-2212" x="0" y="0"></use>
 <use xlink:href="#E1-LATINMODERNMAIN-33" x="783" y="0"></use>
</g>
</g>
<g transform="translate(6853,0)">
 <use xlink:href="#E1-LATINMODERNMAIN-30" x="0" y="2050"></use>
 <use xlink:href="#E1-LATINMODERNMAIN-30" x="0" y="650"></use>
 <use xlink:href="#E1-LATINMODERNMAIN-30" x="0" y="-750"></use>
 <use xlink:href="#E1-LATINMODERNMAIN-31" x="0" y="-2150"></use>
</g>
</g>
<g transform="translate(8364,2850)">
 <use xlink:href="#E1-LATINMODERNSYMBOLS-23A4" x="0" y="-1510"></use>
<g transform="translate(0,-3707.843137254902) scale(1,2.215686274509804)">
 <use xlink:href="#E1-LATINMODERNSYMBOLS-23A5"></use>
</g>
 <use xlink:href="#E1-LATINMODERNSYMBOLS-23A6" x="0" y="-5190"></use>
</g>
<g transform="translate(9036,2576)">
 <use transform="scale(0.707)" xlink:href="#E1-LATINMODERNMAIN-2212" x="0" y="0"></use>
 <use transform="scale(0.707)" xlink:href="#E1-LATINMODERNMAIN-31" x="783" y="0"></use>
</g>
 <use xlink:href="#E1-LATINMODERNMAIN-22C5" x="10269" y="0"></use>
<g transform="translate(10552,0)">
<g transform="translate(342,0)">
<rect stroke="none" width="625" height="60" x="0" y="220"></rect>
 <use xlink:href="#E1-LATINMODERNMAIN-31" x="60" y="676"></use>
 <use xlink:href="#E1-LATINMODERNMAIN-32" x="60" y="-696"></use>
</g>
</g>
 <use xlink:href="#E1-LATINMODERNMAIN-22C5" x="11861" y="0"></use>
<g transform="translate(12367,0)">
<g transform="translate(0,2879)">
 <use xlink:href="#E1-LATINMODERNSYMBOLS-23A1" x="0" y="-1510"></use>
<g transform="translate(0,-3765.2745098039213) scale(1,2.272549019607843)">
 <use xlink:href="#E1-LATINMODERNSYMBOLS-23A2"></use>
</g>
 <use xlink:href="#E1-LATINMODERNSYMBOLS-23A3" x="0" y="-5248"></use>
</g>
<g transform="translate(839,0)">
<g transform="translate(-11,0)">
 <use xlink:href="#E1-LATINMODERNMAIN-30" x="406" y="2079"></use>
<g transform="translate(0,679)">
 <use xlink:href="#E1-LATINMODERNMAIN-2212" x="0" y="0"></use>
 <use xlink:href="#E1-LATINMODERNMAIN-3C4" x="783" y="0"></use>
</g>
<g transform="translate(139,-721)">
 <use xlink:href="#E1-LATINMODERNMAIN-32" x="0" y="0"></use>
 <use xlink:href="#E1-LATINMODERNMAIN-3C4" x="505" y="0"></use>
</g>
<g transform="translate(0,-2179)">
 <use xlink:href="#E1-LATINMODERNMAIN-2212" x="0" y="0"></use>
 <use xlink:href="#E1-LATINMODERNMAIN-3C4" x="783" y="0"></use>
</g>
</g>
<g transform="translate(2307,0)">
 <use xlink:href="#E1-LATINMODERNMAIN-32" x="881" y="2079"></use>
 <use xlink:href="#E1-LATINMODERNMAIN-30" x="881" y="679"></use>
<g transform="translate(0,-721)">
 <use xlink:href="#E1-LATINMODERNMAIN-3C4" x="0" y="0"></use>
 <use xlink:href="#E1-LATINMODERNMAIN-2212" x="757" y="0"></use>
 <use xlink:href="#E1-LATINMODERNMAIN-36" x="1762" y="0"></use>
</g>
<g transform="translate(0,-2179)">
 <use xlink:href="#E1-LATINMODERNMAIN-34" x="0" y="0"></use>
 <use xlink:href="#E1-LATINMODERNMAIN-2212" x="727" y="0"></use>
 <use xlink:href="#E1-LATINMODERNMAIN-3C4" x="1732" y="0"></use>
</g>
</g>
<g transform="translate(5574,0)">
 <use xlink:href="#E1-LATINMODERNMAIN-30" x="1919" y="2079"></use>
 <use xlink:href="#E1-LATINMODERNMAIN-3C4" x="1904" y="679"></use>
<g transform="translate(0,-721)">
 <use xlink:href="#E1-LATINMODERNMAIN-2212" x="0" y="0"></use>
 <use xlink:href="#E1-LATINMODERNMAIN-32" x="783" y="0"></use>
 <use xlink:href="#E1-LATINMODERNMAIN-28" x="1288" y="0"></use>
 <use xlink:href="#E1-LATINMODERNMAIN-3C4" x="1682" y="0"></use>
 <use xlink:href="#E1-LATINMODERNMAIN-2212" x="2439" y="0"></use>
 <use xlink:href="#E1-LATINMODERNMAIN-33" x="3444" y="0"></use>
 <use xlink:href="#E1-LATINMODERNMAIN-29" x="3949" y="0"></use>
</g>
<g transform="translate(1038,-2179)">
 <use xlink:href="#E1-LATINMODERNMAIN-3C4" x="0" y="0"></use>
 <use xlink:href="#E1-LATINMODERNMAIN-2212" x="757" y="0"></use>
 <use xlink:href="#E1-LATINMODERNMAIN-34" x="1762" y="0"></use>
</g>
</g>
<g transform="translate(10918,0)">
 <use xlink:href="#E1-LATINMODERNMAIN-30" x="406" y="2079"></use>
 <use xlink:href="#E1-LATINMODERNMAIN-30" x="406" y="679"></use>
<g transform="translate(0,-721)">
 <use xlink:href="#E1-LATINMODERNMAIN-2212" x="0" y="0"></use>
 <use xlink:href="#E1-LATINMODERNMAIN-3C4" x="783" y="0"></use>
</g>
 <use xlink:href="#E1-LATINMODERNMAIN-3C4" x="391" y="-2179"></use>
</g>
</g>
<g transform="translate(13242,2879)">
 <use xlink:href="#E1-LATINMODERNSYMBOLS-23A4" x="0" y="-1510"></use>
<g transform="translate(0,-3765.2745098039213) scale(1,2.272549019607843)">
 <use xlink:href="#E1-LATINMODERNSYMBOLS-23A5"></use>
</g>
 <use xlink:href="#E1-LATINMODERNSYMBOLS-23A6" x="0" y="-5248"></use>
</g>
</g>
 <use xlink:href="#E1-LATINMODERNMAIN-3D" x="26559" y="0"></use>
<g transform="translate(27620,0)">
<g transform="translate(0,2850)">
 <use xlink:href="#E1-LATINMODERNSYMBOLS-23A1" x="0" y="-1510"></use>
<g transform="translate(0,-3707.843137254902) scale(1,2.215686274509804)">
 <use xlink:href="#E1-LATINMODERNSYMBOLS-23A2"></use>
</g>
 <use xlink:href="#E1-LATINMODERNSYMBOLS-23A3" x="0" y="-5190"></use>
</g>
<g transform="translate(839,0)">
<g transform="translate(-11,0)">
 <use xlink:href="#E1-LATINMODERNMAIN-31" x="391" y="2050"></use>
<g transform="translate(0,650)">
 <use xlink:href="#E1-LATINMODERNMAIN-2212" x="0" y="0"></use>
 <use xlink:href="#E1-LATINMODERNMAIN-33" x="783" y="0"></use>
</g>
 <use xlink:href="#E1-LATINMODERNMAIN-33" x="391" y="-750"></use>
<g transform="translate(0,-2150)">
 <use xlink:href="#E1-LATINMODERNMAIN-2212" x="0" y="0"></use>
 <use xlink:href="#E1-LATINMODERNMAIN-31" x="783" y="0"></use>
</g>
</g>
<g transform="translate(2277,0)">
 <use xlink:href="#E1-LATINMODERNMAIN-30" x="391" y="2050"></use>
 <use xlink:href="#E1-LATINMODERNMAIN-33" x="391" y="650"></use>
<g transform="translate(0,-750)">
 <use xlink:href="#E1-LATINMODERNMAIN-2212" x="0" y="0"></use>
 <use xlink:href="#E1-LATINMODERNMAIN-36" x="783" y="0"></use>
</g>
 <use xlink:href="#E1-LATINMODERNMAIN-33" x="391" y="-2150"></use>
</g>
<g transform="translate(4565,0)">
 <use xlink:href="#E1-LATINMODERNMAIN-30" x="391" y="2050"></use>
 <use xlink:href="#E1-LATINMODERNMAIN-30" x="391" y="650"></use>
 <use xlink:href="#E1-LATINMODERNMAIN-33" x="391" y="-750"></use>
<g transform="translate(0,-2150)">
 <use xlink:href="#E1-LATINMODERNMAIN-2212" x="0" y="0"></use>
 <use xlink:href="#E1-LATINMODERNMAIN-33" x="783" y="0"></use>
</g>
</g>
<g transform="translate(6853,0)">
 <use xlink:href="#E1-LATINMODERNMAIN-30" x="0" y="2050"></use>
 <use xlink:href="#E1-LATINMODERNMAIN-30" x="0" y="650"></use>
 <use xlink:href="#E1-LATINMODERNMAIN-30" x="0" y="-750"></use>
 <use xlink:href="#E1-LATINMODERNMAIN-31" x="0" y="-2150"></use>
</g>
</g>
<g transform="translate(8364,2850)">
 <use xlink:href="#E1-LATINMODERNSYMBOLS-23A4" x="0" y="-1510"></use>
<g transform="translate(0,-3707.843137254902) scale(1,2.215686274509804)">
 <use xlink:href="#E1-LATINMODERNSYMBOLS-23A5"></use>
</g>
 <use xlink:href="#E1-LATINMODERNSYMBOLS-23A6" x="0" y="-5190"></use>
</g>
<g transform="translate(9036,2576)">
 <use transform="scale(0.707)" xlink:href="#E1-LATINMODERNMAIN-2212" x="0" y="0"></use>
 <use transform="scale(0.707)" xlink:href="#E1-LATINMODERNMAIN-31" x="783" y="0"></use>
</g>
</g>
 <use xlink:href="#E1-LATINMODERNMAIN-22C5" x="37889" y="0"></use>
<g transform="translate(38394,0)">
<g transform="translate(0,2850)">
 <use xlink:href="#E1-LATINMODERNSYMBOLS-23A1" x="0" y="-1510"></use>
<g transform="translate(0,-3707.843137254902) scale(1,2.215686274509804)">
 <use xlink:href="#E1-LATINMODERNSYMBOLS-23A2"></use>
</g>
 <use xlink:href="#E1-LATINMODERNSYMBOLS-23A3" x="0" y="-5190"></use>
</g>
<g transform="translate(839,0)">
<g transform="translate(-11,0)">
 <use xlink:href="#E1-LATINMODERNMAIN-31" x="391" y="2050"></use>
<g transform="translate(0,650)">
 <use xlink:href="#E1-LATINMODERNMAIN-2212" x="0" y="0"></use>
 <use xlink:href="#E1-LATINMODERNMAIN-33" x="783" y="0"></use>
</g>
 <use xlink:href="#E1-LATINMODERNMAIN-33" x="391" y="-750"></use>
<g transform="translate(0,-2150)">
 <use xlink:href="#E1-LATINMODERNMAIN-2212" x="0" y="0"></use>
 <use xlink:href="#E1-LATINMODERNMAIN-31" x="783" y="0"></use>
</g>
</g>
<g transform="translate(2277,0)">
 <use xlink:href="#E1-LATINMODERNMAIN-30" x="391" y="2050"></use>
 <use xlink:href="#E1-LATINMODERNMAIN-33" x="391" y="650"></use>
<g transform="translate(0,-750)">
 <use xlink:href="#E1-LATINMODERNMAIN-2212" x="0" y="0"></use>
 <use xlink:href="#E1-LATINMODERNMAIN-36" x="783" y="0"></use>
</g>
 <use xlink:href="#E1-LATINMODERNMAIN-33" x="391" y="-2150"></use>
</g>
<g transform="translate(4565,0)">
 <use xlink:href="#E1-LATINMODERNMAIN-30" x="391" y="2050"></use>
 <use xlink:href="#E1-LATINMODERNMAIN-30" x="391" y="650"></use>
 <use xlink:href="#E1-LATINMODERNMAIN-33" x="391" y="-750"></use>
<g transform="translate(0,-2150)">
 <use xlink:href="#E1-LATINMODERNMAIN-2212" x="0" y="0"></use>
 <use xlink:href="#E1-LATINMODERNMAIN-33" x="783" y="0"></use>
</g>
</g>
<g transform="translate(6853,0)">
 <use xlink:href="#E1-LATINMODERNMAIN-30" x="0" y="2050"></use>
 <use xlink:href="#E1-LATINMODERNMAIN-30" x="0" y="650"></use>
 <use xlink:href="#E1-LATINMODERNMAIN-30" x="0" y="-750"></use>
 <use xlink:href="#E1-LATINMODERNMAIN-31" x="0" y="-2150"></use>
</g>
</g>
<g transform="translate(8364,2850)">
 <use xlink:href="#E1-LATINMODERNSYMBOLS-23A4" x="0" y="-1510"></use>
<g transform="translate(0,-3707.843137254902) scale(1,2.215686274509804)">
 <use xlink:href="#E1-LATINMODERNSYMBOLS-23A5"></use>
</g>
 <use xlink:href="#E1-LATINMODERNSYMBOLS-23A6" x="0" y="-5190"></use>
</g>
</g>
 <use xlink:href="#E1-LATINMODERNMAIN-22C5" x="47653" y="0"></use>
 <use xlink:href="#E1-LATINMODERNNORMAL-1D434" x="48158" y="0"></use>
 <use xlink:href="#E1-LATINMODERNMAIN-3D" x="49523" y="0"></use>
 <use xlink:href="#E1-LATINMODERNNORMAL-1D43C" x="50916" y="0"></use>
 <use xlink:href="#E1-LATINMODERNMAIN-22C5" x="51640" y="0"></use>
 <use xlink:href="#E1-LATINMODERNNORMAL-1D434" x="52145" y="0"></use>
 <use xlink:href="#E1-LATINMODERNMAIN-3D" x="53510" y="0"></use>
 <use xlink:href="#E1-LATINMODERNNORMAL-1D434" x="54903" y="0"></use>
</g>
</svg>