<svg xmlns="http://www.w3.org/2000/svg" xmlns:xlink="http://www.w3.org/1999/xlink" width="344" height="20pt" viewBox="0 0 258 20"><defs><symbol overflow="visible" id="a"><path d="M2.188-.64c0-.344-.329-.688-.704-.688-.359 0-.687.344-.687.687 0 .36.328.704.672.704.39 0 .718-.329.718-.704zm0 0"/></symbol><symbol overflow="visible" id="b"><path d="M8.125-3.938c-.016-.124-.031-.25-.031-.359 0-.125.015-.25.031-.36H.953c.031.11.031.235.031.36 0 .11 0 .234-.03.36zm0 2.626c-.016-.125-.031-.235-.031-.36s.015-.234.031-.36H.953a1.4 1.4 0 0 1 .031.36c0 .125 0 .234-.03.36zm0 0"/></symbol><symbol overflow="visible" id="i"><path d="M3.703-5.266c-.453.047-.86.079-1.312.079.187-1.125.328-1.704.53-2.36l-.124-.172c-.235.14-.563.282-.938.422l-.296 2.031c-.516.25-.829.391-1.047.454l-.032.156H1.5L.828-1.281c-.062.297-.156.593-.156.906 0 .297.125.484.36.484.421 0 .827-.234 1.765-1 .219-.156.14-.109.375-.296l-.125-.22-.531.376c-.36.25-.594.36-.735.36-.093 0-.156-.095-.156-.235 0-.313.14-1.25.516-3.016l.156-.734h1.281zm0 0"/></symbol><symbol overflow="visible" id="k"><path d="M4.11-7.61a.735.735 0 0 1-.188-.14c-.063-.063-.11-.11-.14-.188-1.47 1.47-2.345 3.032-2.345 4.563v.781c0 1.516.875 3.078 2.344 4.547a.735.735 0 0 1 .14-.187.735.735 0 0 1 .188-.141C2.781.281 2.156-1.203 2.156-2.594v-.781c0-1.39.625-2.89 1.953-4.234zm0 0"/></symbol><symbol overflow="visible" id="l"><path d="M5 .031v-.36l-.625-.03c-.656-.032-.781-.172-.781-.782v-7.093l-.156-.063c-.782.406-1.626.766-2.72 1.156l.079.5h.125l1.547-.687.031-.016c.063 0 .094.11.094.407v5.796c0 .61-.125.75-.781.782l-.672.03v.36L3.125 0zm0 0"/></symbol><symbol overflow="visible" id="m"><path d="M8.125-2.625c-.016-.125-.031-.25-.031-.36 0-.124.015-.25.031-.359H.953c.031.11.031.235.031.36 0 .109 0 .234-.03.359zm0 0"/></symbol><symbol overflow="visible" id="n"><path d="M3.64-2.594v-.781c0-1.531-.874-3.094-2.343-4.563-.047.079-.094.125-.156.188a.427.427 0 0 1-.188.14c1.328 1.344 1.969 2.844 1.969 4.235v.781c0 1.39-.64 2.875-1.969 4.219.078.031.14.078.188.14.062.063.109.126.156.188C2.766.484 3.64-1.078 3.64-2.594zm0 0"/></symbol><symbol overflow="visible" id="c"><path d="M4.406-4.188a1.836 1.836 0 0 0-.453-.078c-.64 0-1.437.688-2.64 2.235l1.03-4.36-.109-.093c-.515.234-.859.312-1.546.375l-.047.187h.468c.235 0 .329.063.329.203 0 .078 0 .157-.016.219L.953-3.125C.828-2.469.656-1.859.172-.015L.25.077l.656-.156.219-1.094c.078-.422.313-.812.64-1.125.673 1.781.97 2.375 1.22 2.375.124 0 .343-.11.78-.39l.438-.282-.078-.172-.406.22c-.14.062-.203.093-.281.093-.11 0-.172-.063-.25-.203-.344-.578-.547-1.047-.938-2.14l.14-.126c.594-.531 1.032-.75 1.516-.75a2.1 2.1 0 0 1 .344.047zm0 0"/></symbol><symbol overflow="visible" id="d"><path d="M5.047-.75l-.11-.156-.234.14c-.297.172-.5.266-.594.266-.062 0-.125-.078-.125-.172 0-.047 0-.14.016-.172l.64-2.453c.063-.25.094-.5.094-.64 0-.204-.093-.329-.28-.329-.407 0-1.079.344-1.657.829-.36.312-.625.609-1.125 1.25l.36-1.422c.046-.157.062-.266.062-.36 0-.187-.078-.297-.219-.297-.203 0-.578.204-1.281.657l-.281.171.078.188.312-.188c.344-.218.375-.218.453-.218.094 0 .172.078.172.219 0 .453-.406 2.156-.797 3.421l.063.094c.25-.062.469-.11.687-.156.172-1.11.39-1.688.828-2.297.532-.734 1.235-1.281 1.672-1.281.094 0 .156.078.156.203 0 .156-.015.344-.093.625L3.328-.953c-.078.328-.125.531-.125.672 0 .234.11.36.297.36.25 0 .594-.188 1.547-.829zm0 0"/></symbol><symbol overflow="visible" id="e"><path d="M1.984-.469c0-.265-.265-.515-.562-.515-.297 0-.563.25-.563.515 0 .266.266.516.547.516.313 0 .578-.234.578-.516zm-.03-5.453v-.219h-.329l-.719.344.328 3.625.016.36.094.046.265-.203v-.218l.282-2.891c.046-.36.062-.64.062-.844zm0 0"/></symbol><symbol overflow="visible" id="f"><path d="M3.047-5.625a.34.34 0 0 1-.14-.11c-.048-.046-.079-.077-.11-.14C1.703-4.781 1.062-3.625 1.062-2.5v.578c0 1.125.641 2.281 1.735 3.375.031-.062.062-.094.11-.14a.34.34 0 0 1 .14-.11C2.062.22 1.594-.89 1.594-1.922V-2.5c0-1.031.468-2.14 1.453-3.125zm0 0"/></symbol><symbol overflow="visible" id="g"><path d="M6.016-1.953a1.368 1.368 0 0 1-.032-.25c0-.094.016-.188.032-.266H.703c.016.078.031.172.031.266 0 .078-.015.172-.03.25zm0 0"/></symbol><symbol overflow="visible" id="h"><path d="M2.688-1.922V-2.5c0-1.125-.641-2.281-1.735-3.375-.031.063-.062.094-.11.14a.34.34 0 0 1-.14.11c.985.984 1.453 2.094 1.453 3.125v.578c0 1.031-.469 2.14-1.453 3.125a.34.34 0 0 1 .14.11.487.487 0 0 1 .11.14C2.047.36 2.688-.797 2.688-1.922zm0 0"/></symbol><symbol overflow="visible" id="j"><path d="M4.125.031v-.265l-.516-.032c-.515-.03-.625-.125-.625-.578v-5.25L2.86-6.14c-.625.297-1.312.563-2.203.86l.078.375h.094l1.25-.516.031-.016c.047 0 .079.094.079.297v4.297c0 .453-.11.547-.626.578l-.546.032V.03L2.594 0zm0 0"/></symbol></defs><use xlink:href="#a" x="-.643" y="13.082"/><use xlink:href="#a" x="2.346" y="13.082"/><use xlink:href="#a" x="5.335" y="13.082"/><use xlink:href="#b" x="11.635" y="13.082"/><use xlink:href="#c" x="36.12" y="7.474"/><use xlink:href="#d" x="40.773" y="7.474"/><use xlink:href="#e" x="46.312" y="7.474"/><path d="M25.246 10.094h34.805" fill="none" stroke-width=".717" stroke="#000" stroke-miterlimit="10"/><use xlink:href="#c" x="25.247" y="17.998"/><use xlink:href="#e" x="29.9" y="17.998"/><use xlink:href="#f" x="32.758" y="17.998"/><use xlink:href="#d" x="36.509" y="17.998"/><use xlink:href="#g" x="42.047" y="17.998"/><use xlink:href="#c" x="48.771" y="17.998"/><use xlink:href="#h" x="53.433" y="17.998"/><use xlink:href="#e" x="57.184" y="17.998"/><use xlink:href="#i" x="61.246" y="13.082"/><use xlink:href="#c" x="65.287" y="8.849"/><use xlink:href="#g" x="69.94" y="8.849"/><use xlink:href="#j" x="76.664" y="8.849"/><use xlink:href="#k" x="82.169" y="13.082"/><use xlink:href="#l" x="87.238" y="13.082"/><use xlink:href="#m" x="95.87" y="13.082"/><use xlink:href="#i" x="107.61" y="13.082"/><use xlink:href="#n" x="111.651" y="13.082"/><use xlink:href="#d" x="116.725" y="8.849"/><use xlink:href="#g" x="122.263" y="8.849"/><use xlink:href="#c" x="128.987" y="8.849"/><use xlink:href="#m" x="136.804" y="13.082"/><use xlink:href="#f" x="150.734" y="7.222"/><use xlink:href="#d" x="154.485" y="7.222"/><use xlink:href="#g" x="160.023" y="7.222"/><use xlink:href="#c" x="166.747" y="7.222"/><g><use xlink:href="#h" x="171.4" y="7.222"/><use xlink:href="#d" x="175.151" y="7.222"/><use xlink:href="#e" x="180.689" y="7.222"/></g><path d="M149.742 10.094h34.805" fill="none" stroke-width=".717" stroke="#000" stroke-miterlimit="10"/><g><use xlink:href="#c" x="149.743" y="17.998"/></g><g><use xlink:href="#e" x="154.396" y="17.998"/><use xlink:href="#f" x="157.254" y="17.998"/><use xlink:href="#d" x="161.005" y="17.998"/><use xlink:href="#g" x="166.543" y="17.998"/><use xlink:href="#c" x="173.267" y="17.998"/></g><g><use xlink:href="#h" x="177.929" y="17.998"/><use xlink:href="#e" x="181.68" y="17.998"/></g><g><use xlink:href="#i" x="185.742" y="13.082"/></g><g><use xlink:href="#c" x="189.783" y="8.849"/></g><g><use xlink:href="#k" x="194.943" y="13.082"/><use xlink:href="#l" x="200.012" y="13.082"/></g><g><use xlink:href="#m" x="208.644" y="13.082"/></g><g><use xlink:href="#i" x="220.384" y="13.082"/></g><g><use xlink:href="#n" x="224.425" y="13.082"/></g><g><use xlink:href="#d" x="229.499" y="8.849"/><use xlink:href="#g" x="235.037" y="8.849"/><use xlink:href="#j" x="241.761" y="8.849"/><use xlink:href="#g" x="246.759" y="8.849"/><use xlink:href="#c" x="253.483" y="8.849"/></g></svg>