<svg xmlns:xlink="http://www.w3.org/1999/xlink" width="21.333ex" height="11.333ex" style="vertical-align: -5.167ex; margin-left: 0ex; margin-right: 0ex; margin-bottom: 1px; margin-top: 1px;" viewBox="0 -2701 9203.3 4902" xmlns="http://www.w3.org/2000/svg">
<defs>
<path stroke-width="10" id="E1-LATINMODERNNORMAL-1D436" d="M760 695l-63 -255c-5 -18 -5 -20 -18 -20c-4 0 -15 0 -15 10s3 11 3 51c0 116 -59 193 -161 193c-89 0 -183 -50 -244 -121c-100 -117 -121 -279 -121 -336c0 -156 106 -208 196 -208c52 0 115 17 184 73c69 58 92 129 101 158c2 8 7 10 13 10c0 0 12 0 12 -10 c0 -3 -17 -94 -110 -176c-53 -46 -129 -86 -216 -86c-153 0 -271 109 -271 274c0 232 225 453 448 453c111 0 157 -75 166 -89l70 77c11 11 12 12 15 12c9 0 11 -7 11 -10Z"></path>
<path stroke-width="10" id="E1-LATINMODERNMAIN-31" d="M419 0c-35 3 -122 3 -162 3s-127 0 -162 -3v31h32c90 0 93 12 93 48v518c-52 -26 -111 -26 -131 -26v31c32 0 120 0 182 64c23 0 23 -2 23 -26v-561c0 -37 3 -48 93 -48h32v-31Z"></path>
<path stroke-width="10" id="E1-LATINMODERNMAIN-2032" d="M251 710c0 -7 -2 -14 -6 -19l-158 -261h-27l120 297c4 11 18 21 33 21c21 0 38 -17 38 -38Z"></path>
<path stroke-width="10" id="E1-LATINMODERNMAIN-3D" d="M722 347c0 -11 -9 -20 -20 -20h-626c-11 0 -20 9 -20 20s9 20 20 20h626c11 0 20 -9 20 -20zM722 153c0 -11 -9 -20 -20 -20h-626c-11 0 -20 9 -20 20s9 20 20 20h626c11 0 20 -9 20 -20Z"></path>
<path stroke-width="10" id="E1-LATINMODERNNORMAL-1D434" d="M721 20c0 -20 -12 -20 -18 -20c-25 0 -88 3 -113 3c-41 0 -84 -3 -125 -3c0 0 -14 0 -14 11c0 20 10 20 24 20c20 0 72 3 72 33c0 10 -14 146 -16 167h-251c-68 -116 -69 -116 -76 -128c-8 -14 -14 -25 -14 -37c0 -25 24 -33 47 -35c7 0 16 -1 16 -12 c0 -19 -13 -19 -19 -19c-32 0 -67 3 -100 3c-28 0 -59 -3 -86 -3c-8 0 -13 5 -13 11c0 19 9 19 21 20c44 3 83 17 123 84l348 584c6 10 10 17 26 17c17 0 17 -4 19 -24l61 -625c3 -29 3 -36 65 -36c13 0 23 0 23 -11zM528 262l-32 330l-197 -330h229Z"></path>
<path stroke-width="10" id="E1-LATINMODERNMAIN-2B" d="M722 250c0 -11 -9 -20 -20 -20h-293v-293c0 -11 -9 -20 -20 -20s-20 9 -20 20v293h-293c-11 0 -20 9 -20 20s9 20 20 20h293v293c0 11 9 20 20 20s20 -9 20 -20v-293h293c11 0 20 -9 20 -20Z"></path>
<path stroke-width="10" id="E1-LATINMODERNNORMAL-1D452" d="M430 107c0 -12 -84 -118 -227 -118c-98 0 -157 79 -157 181c0 175 151 272 262 272c69 0 107 -41 107 -85c0 -14 -5 -73 -75 -103c-50 -21 -124 -23 -153 -23h-53c-15 -61 -16 -92 -16 -104c0 -32 9 -116 87 -116c12 0 121 0 200 99c6 8 8 10 13 10c6 0 12 -7 12 -13z M382 357c0 34 -27 63 -74 63c-26 0 -129 -15 -168 -167h41c41 0 201 0 201 104Z"></path>
<path stroke-width="10" id="E1-LATINMODERNMAIN-2212" d="M722 250c0 -11 -9 -20 -20 -20h-626c-11 0 -20 9 -20 20s9 20 20 20h626c11 0 20 -9 20 -20Z"></path>
<path stroke-width="10" id="E1-LATINMODERNNORMAL-1D461" d="M330 420c0 -20 -10 -20 -30 -20h-94l-74 -295c-4 -17 -6 -24 -6 -48c0 -33 10 -46 31 -46c34 0 87 24 130 128c5 11 6 14 15 14c4 0 12 0 12 -10c0 -8 -57 -154 -159 -154c-54 0 -92 38 -92 92c0 18 4 35 76 319h-88c-20 0 -28 0 -28 12c0 19 10 19 30 19h94l39 159 c9 35 37 36 40 36c17 0 29 -10 29 -27c0 -6 -5 -26 -41 -168h88c18 0 28 0 28 -11Z"></path>
<path stroke-width="10" id="E1-LATINMODERNMAIN-32" d="M449 174l-28 -174h-371c0 24 0 26 11 37l192 214c55 62 105 141 105 221c0 82 -43 163 -134 163c-58 0 -112 -37 -135 -102c3 1 5 1 13 1c35 0 53 -26 53 -52c0 -41 -35 -53 -52 -53c-3 0 -53 0 -53 56c0 89 74 181 187 181c122 0 212 -80 212 -194 c0 -100 -60 -154 -216 -292l-106 -103h180c22 0 88 0 95 8c10 15 17 59 22 89h25Z"></path>
</defs>
<g stroke="currentColor" fill="currentColor" stroke-width="0" transform="matrix(1 0 0 -1 0 0)">
<g transform="translate(167,0)">
<g transform="translate(-11,0)">
<g transform="translate(0,1111)">
 <use xlink:href="#E1-LATINMODERNNORMAL-1D436" x="0" y="0"></use>
<g transform="translate(765,0)">
 <use xlink:href="#E1-LATINMODERNMAIN-31" x="0" y="0"></use>
 <use transform="scale(0.707)" xlink:href="#E1-LATINMODERNMAIN-2032" x="714" y="583"></use>
</g>
</g>
<g transform="translate(0,-1471)">
 <use xlink:href="#E1-LATINMODERNNORMAL-1D436" x="0" y="0"></use>
<g transform="translate(765,0)">
 <use xlink:href="#E1-LATINMODERNMAIN-32" x="0" y="0"></use>
 <use transform="scale(0.707)" xlink:href="#E1-LATINMODERNMAIN-2032" x="714" y="583"></use>
</g>
</g>
</g>
<g transform="translate(1582,0)">
<g transform="translate(0,1111)">
 <use xlink:href="#E1-LATINMODERNMAIN-3D" x="277" y="0"></use>
<g transform="translate(1338,0)">
 <use xlink:href="#E1-LATINMODERNNORMAL-1D434" x="0" y="0"></use>
 <use transform="scale(0.707)" xlink:href="#E1-LATINMODERNMAIN-2032" x="1067" y="583"></use>
</g>
 <use xlink:href="#E1-LATINMODERNMAIN-2B" x="2639" y="0"></use>
<g transform="translate(3422,0)">
<g transform="translate(342,0)">
<rect stroke="none" width="3401" height="60" x="0" y="220"></rect>
<g transform="translate(60,676)">
 <use xlink:href="#E1-LATINMODERNNORMAL-1D452" x="0" y="0"></use>
 <use xlink:href="#E1-LATINMODERNMAIN-31" x="471" y="0"></use>
 <use xlink:href="#E1-LATINMODERNMAIN-2212" x="1198" y="0"></use>
<g transform="translate(2203,0)">
 <use xlink:href="#E1-LATINMODERNNORMAL-1D434" x="0" y="0"></use>
 <use transform="scale(0.707)" xlink:href="#E1-LATINMODERNMAIN-2032" x="1067" y="513"></use>
</g>
</g>
 <use xlink:href="#E1-LATINMODERNNORMAL-1D461" x="1517" y="-686"></use>
</g>
</g>
</g>
<g transform="translate(0,-1471)">
 <use xlink:href="#E1-LATINMODERNMAIN-3D" x="277" y="0"></use>
<g transform="translate(1338,0)">
 <use xlink:href="#E1-LATINMODERNNORMAL-1D434" x="0" y="0"></use>
 <use transform="scale(0.707)" xlink:href="#E1-LATINMODERNMAIN-2032" x="1067" y="583"></use>
</g>
 <use xlink:href="#E1-LATINMODERNMAIN-2B" x="2639" y="0"></use>
<g transform="translate(3422,0)">
<g transform="translate(342,0)">
<rect stroke="none" width="3401" height="60" x="0" y="220"></rect>
<g transform="translate(60,676)">
 <use xlink:href="#E1-LATINMODERNNORMAL-1D452" x="0" y="0"></use>
 <use xlink:href="#E1-LATINMODERNMAIN-32" x="471" y="0"></use>
 <use xlink:href="#E1-LATINMODERNMAIN-2212" x="1198" y="0"></use>
<g transform="translate(2203,0)">
 <use xlink:href="#E1-LATINMODERNNORMAL-1D434" x="0" y="0"></use>
 <use transform="scale(0.707)" xlink:href="#E1-LATINMODERNMAIN-2032" x="1067" y="513"></use>
</g>
</g>
<g transform="translate(651,-696)">
 <use xlink:href="#E1-LATINMODERNMAIN-31" x="0" y="0"></use>
 <use xlink:href="#E1-LATINMODERNMAIN-2212" x="727" y="0"></use>
 <use xlink:href="#E1-LATINMODERNNORMAL-1D461" x="1732" y="0"></use>
</g>
</g>
</g>
</g>
</g>
</g>
</g>
</svg>