<svg xmlns="http://www.w3.org/2000/svg" xmlns:xlink="http://www.w3.org/1999/xlink" width="148pt" height="16" viewBox="0 0 148 12"><defs><symbol overflow="visible" id="a"><path d="M7.781-8.219c-.922-.344-1.593-.484-2.328-.484-.984 0-2.078.344-2.906.89C1.14-6.859.39-5.358.39-3.53c0 2.328 1.421 3.75 3.703 3.75C5.25.219 6.187-.094 7.28-.844l.157-.578-.266-.187c-1.234.765-1.75.921-2.672.921-1.89 0-2.781-1.015-2.781-3.14 0-1.328.375-2.406 1.11-3.156.546-.563 1.218-.829 2.171-.829.86 0 1.36.141 2 .547v1.063h.578c.078-.813.172-1.328.36-1.953zm0 0"/></symbol><symbol overflow="visible" id="b"><path d="M8.266-4.078a1.419 1.419 0 0 1-.047-.36c0-.109.015-.234.062-.484h-7.5c.063.25.063.375.063.484 0 .125 0 .235-.063.5h7.5zm0 2.625a1.332 1.332 0 0 1-.047-.36c0-.109.015-.234.062-.484h-7.5c.063.25.063.375.063.485 0 .125 0 .25-.063.5h7.5zm0 0"/></symbol><symbol overflow="visible" id="c"><path d="M6.219-1.25l-.188-.297-.453.297c-.297.188-.469.281-.625.281-.094 0-.016.047-.016-.078 0-.14.032-.328.079-.469L6.03-5.828l-.187-.219-.985.25-.14.719c-.172.906-.422 1.61-.782 2.156-.703 1.11-1.546 1.953-2.03 1.953-.11 0-.032.031-.032-.172 0-.187.031-.312.078-.625l.688-3.25c.03-.187.062-.343.062-.5 0-.234-.234-.515-.39-.515-.25 0-.813.281-1.704.922l-.39.296.172.485.546-.36c.36-.218.375-.234.485-.234.125 0 .062-.031.062.11a.792.792 0 0 1-.03.203l-.75 3.562c-.016.11-.048.375-.048.563 0 .265.328.609.563.609.75 0 2.297-1.375 3.297-3.016l-.235-.093-.437 1.687c-.094.313-.14.61-.14.797 0 .297.28.625.5.625.312 0 .859-.313 2.077-1.234zm0 0"/></symbol><symbol overflow="visible" id="d"><path d="M2.516-3.125c0-.422-.407-.844-.844-.844-.422 0-.86.422-.86.844 0 .438.438.86.86.86.437 0 .844-.422.844-.86zm0 0"/></symbol><symbol overflow="visible" id="e"><path d="M7.234-6.594c0-1.218-1.265-1.937-2.312-1.937-.547 0-1.094.031-1.64.031l-2.126-.047-.062.61.812.03c.297 0 .282-.03.282.188 0 .172-.047.532-.11.907l-.89 5.187C1-.531 1.125-.641.64-.594l-.61.031-.093.61L1.688 0l1.78.047.063-.61-.922-.03c-.312-.016-.296.015-.296-.235 0-.11 0-.188.046-.422l.97-5.813-.032.094s.078-.343.14-.578c.016-.062.047-.172.063-.203.328-.063.516-.094.75-.094 1.219 0 1.656.39 1.656 1.516 0 1.281-.718 2.203-1.765 2.203-.266 0-.5-.063-1.11-.281l.047.625c.578.281.813.344 1.172.344 1.531 0 2.984-1.532 2.984-3.157zm0 0"/></symbol><symbol overflow="visible" id="j"><path d="M8.266-2.766a1.332 1.332 0 0 1-.047-.359c0-.11.015-.234.062-.484h-3.25v-3.266c-.25.063-.375.078-.484.078-.125 0-.25-.016-.5-.078v3.266H.78c.063.25.063.375.063.484 0 .125 0 .25-.063.5h3.266V.641c.25-.063.375-.079.5-.079.11 0 .234.016.484.079v-3.266h3.25zm0 0"/></symbol><symbol overflow="visible" id="k"><path d="M4.203-7.828a.735.735 0 0 1-.187-.14c-.063-.063-.11-.126-.22-.329-1.593 1.61-2.5 3.266-2.5 4.781v.797c0 1.516.907 3.172 2.5 4.781.11-.203.157-.265.22-.328.062-.062.125-.109.312-.203C2.875.063 2.281-1.344 2.281-2.719v-.797c0-1.39.594-2.78 2.047-4.25zm0 0"/></symbol><symbol overflow="visible" id="l"><path d="M5.125-.094v-.484l-.75-.047c-.656-.031-.64-.031-.64-.656v-7.172l-.313-.125c-.875.469-1.61.781-2.86 1.219l.125.718h.235l1.547-.687.031-.016c.063 0-.047-.015-.047.266v5.797c0 .625.016.625-.64.656L1-.578v.625L3.125 0l2 .047zm0 0"/></symbol><symbol overflow="visible" id="m"><path d="M8.266-2.766a1.332 1.332 0 0 1-.047-.359c0-.11.015-.234.062-.484h-7.5c.063.25.063.375.063.484 0 .125 0 .25-.063.5h7.5zm0 0"/></symbol><symbol overflow="visible" id="n"><path d="M3.766-2.719v-.797c0-1.515-.907-3.171-2.516-4.78-.11.202-.156.265-.203.327-.063.063-.125.11-.313.203 1.438 1.47 2.032 2.86 2.032 4.25v.797c0 1.375-.594 2.781-2.032 4.25.188.094.25.14.313.203.047.063.094.125.203.329C2.86.452 3.766-1.204 3.766-2.72zm0 0"/></symbol><symbol overflow="visible" id="f"><path d="M3.422-4.297c-.375-.172-.656-.234-.969-.234-.5 0-1.203.281-1.672.718-.25.235-.406.563-.406.876 0 .5.469.921 1.11 1.03l.609.11c.422.063.406.094.406.438 0 .593-.281.843-.969.843-.343 0-.515-.062-.75-.25v-.812H.25C.172-1 .125-.688 0-.218c.547.25.875.312 1.203.312.484 0 1.031-.188 1.531-.547.485-.36.735-.781.735-1.219 0-.484-.453-.875-1.172-1l-.422-.062c-.578-.094-.61-.125-.61-.485 0-.469.266-.703.829-.703.39 0 .656.125.765.297v.594h.5c.063-.438.11-.688.22-1.188zm0 0"/></symbol><symbol overflow="visible" id="g"><path d="M3.078-4.156c-.36.031-.687.047-.875.047.125-.704.219-1.141.406-1.641l-.218-.281c-.36.187-.5.25-.938.406L1.22-4.109a5.102 5.102 0 0 1-.86.312l-.046.344h.796L.594-1.078C.547-.86.469-.641.469-.406c0 .219.265.484.453.484.344 0 .765-.219 1.531-.765.172-.125.11-.094.375-.282l-.234-.39L2-1c-.297.188-.36.234-.469.234-.078 0 .016.063.016-.046 0-.22.125-.922.422-2.22l.093-.421h1.032l.172-.735zm0 0"/></symbol><symbol overflow="visible" id="h"><path d="M4.156-.89L4-1.298c-.25.188-.25.188-.297.219-.312.25-.344.297-.484.297-.094 0 0 .062 0-.094 0-.031 0-.063.015-.078l.891-3.406-.234-.188-.36.172C3.187-4.5 3-4.531 2.734-4.531c-.265 0-.468.047-.718.156-.61.266-1.047.578-1.282 1.016C.313-2.58-.03-1.422-.03-.72c0 .375.312.813.484.813.203 0 .672-.219 1.031-.5.407-.328.797-.75 1.329-1.438l-.266-.093-.281 1.125a1.58 1.58 0 0 0-.063.453c0 .203.25.453.39.453.22 0 .735-.281 1.595-.938zm-1.14-2.907c-.22.938-.36 1.313-.672 1.766C1.813-1.297 1.313-.781 1-.781c-.125 0-.031.015-.031-.235 0-.562.25-1.546.594-2.28.234-.517.312-.548.78-.548.22 0 .407.047.657.125zm0 0"/></symbol><symbol overflow="visible" id="i"><path d="M3.797-4.484c-.11-.047-.14-.047-.188-.047-.312 0-.718.25-1.062.687-.328.438-.672.86-.922 1.344l.266.094.265-1.11c.047-.203.11-.406.11-.609 0-.172-.235-.406-.375-.406-.204 0-.672.218-1.391.687l-.344.219.172.438.5-.297c.266-.157.266-.172.344-.172.11 0 .016-.047.016.062 0 .516-.422 2.344-.829 3.531l.25.157c.235-.078.454-.11.797-.172l.282-1.172c.171-.734.343-1.11.78-1.61.329-.39.485-.546.688-.546.14 0 .125.015.266.172h.36c.03-.47.093-.75.171-1.172zm0 0"/></symbol><symbol overflow="visible" id="o"><path d="M3.86-3.719c0-.406-.47-.812-.97-.812-.624 0-1.796.625-2.187 1.187C.422-2.906.078-1.75.078-1.125.078-.437.656.094 1.36.094c.547 0 1.188-.281 2.141-1l-.172-.406-.422.25c-.5.343-.86.484-1.203.484-.469 0-.594-.203-.594-.735 0-.234.032-.453.063-.609l.656-.156c.172-.031.422-.125.672-.219.828-.328 1.36-.86 1.36-1.422zm-1.032.14c0 .392-.172.688-.687.907-.266.11-.61.219-.86.266l.047-.156c.156-.594.297-.876.563-1.094a.954.954 0 0 1 .64-.235c.266 0 .297.032.297.313zm0 0"/></symbol><symbol overflow="visible" id="p"><path d="M5.156-.984L5-1.234 4.594-1c-.282.172-.39.234-.469.234-.078 0 .016.063.016-.046 0-.032-.032-.032.015-.157l.64-2.453c.063-.265.11-.515.11-.656 0-.203-.265-.453-.453-.453-.406 0-1.187.375-1.766.86-.359.312-.624.608-1.124 1.25l.265.093.36-1.422c.046-.156.062-.266.062-.36 0-.187-.234-.421-.375-.421-.203 0-.703.218-1.39.687l-.344.219.172.438.5-.297c.343-.204.265-.188.343-.188.11 0 .016-.047.016.094 0 .453-.406 2.156-.813 3.453l.172.219c.313-.078.531-.125.875-.188.203-1.218.375-1.703.813-2.312.531-.75 1.125-1.266 1.562-1.266.11 0 .016-.047.016.078 0 .172-.031.344-.11.64l-.5 1.876c-.093.328-.124.531-.124.672 0 .219.265.484.453.484.234 0 .687-.219 1.718-.922zm0 0"/></symbol><symbol overflow="visible" id="q"><path d="M4.86-6.625l-.188-.156c-.531.25-.89.328-1.719.406l-.078.438h.64c.235 0 .172-.063.172.078 0 .078-.015.156-.015.218l-.25 1.188a3.598 3.598 0 0 0-.656-.078c-.672 0-1.688.672-2.141 1.437C.328-2.578.094-1.64.094-.89c0 .579.312.985.578.985.265 0 .734-.188 1.062-.422.516-.39.829-.734 1.485-1.625l-.266-.11-.219.813c-.109.39-.156.672-.156.906 0 .188.235.438.406.438.172 0 .5-.157.829-.375l.859-.594-.234-.406-.579.375c-.14.094-.187.125-.265.125-.078 0 .015.047.015-.078 0-.079.016-.157.079-.407l1.218-5.312zm-1.563 2.86l-.11.515a3.695 3.695 0 0 1-1.203 1.984c-.343.297-.609.485-.796.485-.157 0-.094 0-.094-.219 0-1.125.406-2.406.875-2.734.125-.094.203-.11.468-.11.422 0 .704.063.844.14zm0 0"/></symbol></defs><use xlink:href="#a" x="-.339" y="9.082"/><use xlink:href="#b" x="11.09" y="9.082"/><use xlink:href="#c" x="23.5" y="9.082"/><use xlink:href="#d" x="32.801" y="9.082"/><use xlink:href="#e" x="38.814" y="9.082"/><use xlink:href="#f" x="46.119" y="11.856"/><use xlink:href="#g" x="50.05" y="11.856"/><use xlink:href="#h" x="53.441" y="11.856"/><use xlink:href="#i" x="57.903" y="11.856"/><use xlink:href="#g" x="61.949" y="11.856"/><use xlink:href="#j" x="68.495" y="9.082"/><use xlink:href="#k" x="80.235" y="9.082"/><use xlink:href="#l" x="85.304" y="9.082"/><use xlink:href="#m" x="93.936" y="9.082"/><g><use xlink:href="#c" x="105.676" y="9.082"/><use xlink:href="#n" x="112.323" y="9.082"/></g><g><use xlink:href="#d" x="120.046" y="9.082"/></g><g><use xlink:href="#e" x="126.059" y="9.082"/></g><g><use xlink:href="#o" x="133.365" y="11.856"/><use xlink:href="#p" x="137.296" y="11.856"/><use xlink:href="#q" x="142.838" y="11.856"/></g></svg>