<svg xmlns="http://www.w3.org/2000/svg" xmlns:xlink="http://www.w3.org/1999/xlink" width="200" height="16" viewBox="0 0 150 12"><defs><symbol overflow="visible" id="a"><path d="M6.984-7.797l-.343 1.594h-.563c-.031-.477-.14-.82-.328-1.031-.18-.22-.46-.329-.844-.329-.543 0-1.047.274-1.515.813-.461.531-.825 1.242-1.094 2.125-.274.887-.406 1.71-.406 2.469 0 .594.101 1.031.312 1.312.219.281.547.422.985.422.289 0 .546-.039.765-.125.219-.094.422-.242.61-.453.195-.207.39-.5.578-.875h.562l-.36 1.656c-.73.211-1.495.313-2.296.313-.742 0-1.305-.207-1.688-.625C.984-.957.797-1.578.797-2.391c0-.57.098-1.234.297-1.984.207-.75.5-1.406.875-1.969.375-.57.816-1.004 1.328-1.297.508-.3 1.07-.453 1.687-.453.352 0 .68.024.985.063.3.043.64.12 1.015.234zm0 0"/></symbol><symbol overflow="visible" id="b"><path d="M.875-4.25v-.781h7.219v.781zm0 2.422v-.781h7.219v.78zm7.469-1.594zm0 0"/></symbol><symbol overflow="visible" id="c"><path d="M5.281-1.89c-.086.374-.125.663-.125.859 0 .156.024.273.078.343.051.075.13.11.235.11.125 0 .25-.047.375-.14.133-.102.32-.286.562-.548l.344.329c-.355.375-.656.64-.906.796-.25.157-.516.235-.797.235-.25 0-.45-.078-.594-.235-.137-.164-.203-.379-.203-.64 0-.219.047-.453.14-.703L4.314-1.5c-.387.543-.75.945-1.094 1.203-.344.262-.7.39-1.063.39-.367 0-.648-.1-.844-.312-.199-.218-.296-.508-.296-.875 0-.25.054-.597.171-1.047l.391-1.546c.102-.415.156-.711.156-.891 0-.156-.027-.27-.078-.344-.054-.07-.136-.11-.25-.11-.117 0-.242.055-.375.157-.136.094-.324.273-.562.531L.14-4.672c.332-.332.582-.562.75-.687.164-.125.328-.211.484-.266a1.66 1.66 0 0 1 .516-.078.76.76 0 0 1 .593.25c.145.168.22.398.22.687 0 .305-.063.688-.188 1.157l-.25 1c-.075.261-.125.464-.157.609-.023.148-.043.273-.062.375a2.427 2.427 0 0 0-.016.266c0 .273.04.468.125.593.094.118.242.172.453.172.164 0 .344-.062.532-.187.187-.133.382-.332.593-.594.22-.27.391-.531.516-.781a3.82 3.82 0 0 0 .328-.922l.547-2.531h1.016zm0 0"/></symbol><symbol overflow="visible" id="d"><path d="M1.688-4.14c.207 0 .375.07.5.202.124.126.187.297.187.516 0 .211-.063.383-.188.516a.678.678 0 0 1-.5.187c-.199 0-.359-.062-.484-.187a.722.722 0 0 1-.187-.516c0-.219.062-.39.187-.515a.636.636 0 0 1 .484-.204zm0 0"/></symbol><symbol overflow="visible" id="e"><path d="M4.453-8a5 5 0 0 1 1.14.11c.302.074.548.187.735.343.195.149.344.336.438.563.101.23.156.496.156.796 0 .594-.14 1.106-.422 1.532-.281.43-.664.746-1.14.953-.47.2-1.04.297-1.704.297-.398 0-.726-.004-.984-.016l-.375 1.719a2.22 2.22 0 0 0-.078.375c-.012.086-.024.18-.031.281-.012.094-.016.18-.016.25a.76.76 0 0 0 .047.297c.039.063.097.11.172.14a1.8 1.8 0 0 0 .421.079L2.75 0H.328l.078-.281a.872.872 0 0 0 .328-.125.7.7 0 0 0 .188-.219 1.95 1.95 0 0 0 .14-.344c.04-.133.102-.394.188-.781l1-4.516c.082-.382.125-.691.125-.921 0-.188-.047-.317-.14-.391-.087-.07-.227-.117-.422-.14L1.875-8zM3.375-3.922c.469 0 .848-.047 1.14-.14.29-.094.532-.243.72-.454.187-.207.327-.453.421-.734.102-.281.157-.586.157-.922 0-.445-.118-.773-.344-.984-.23-.219-.61-.328-1.14-.328-.243 0-.497.007-.766.015l-.797 3.547zm0 0"/></symbol><symbol overflow="visible" id="j"><path d="M4.906-3.047V.328h-.843v-3.375H.874v-.781h3.188v-3.375h.843v3.375h3.188v.781zm0 0"/></symbol><symbol overflow="visible" id="k"><path d="M2.063-2.969c0 1.367.218 2.492.656 3.375.445.895 1.117 1.492 2.015 1.797l-.14.453C3.457 2.352 2.582 1.703 1.969.703c-.606-.988-.907-2.191-.907-3.61 0-1.405.301-2.609.907-3.609.613-1 1.488-1.648 2.625-1.953l.172.453c-.918.305-1.602.891-2.047 1.766-.438.867-.656 1.96-.656 3.281zm0 0"/></symbol><symbol overflow="visible" id="l"><path d="M4.078-1.531c0 .23.008.402.031.515a.68.68 0 0 0 .141.282.572.572 0 0 0 .266.171c.125.043.273.075.453.094.187.024.43.04.734.047V0H1.375v-.422A8.17 8.17 0 0 0 2.297-.5c.187-.04.328-.094.422-.156a.516.516 0 0 0 .219-.281c.05-.125.078-.32.078-.594v-4.75c0-.157-.032-.27-.094-.344a.282.282 0 0 0-.235-.11c-.124 0-.304.07-.53.204-.231.125-.516.304-.86.531l-.25-.453 2.734-1.64h.328a27.34 27.34 0 0 0-.03 1.562zm0 0"/></symbol><symbol overflow="visible" id="m"><path d="M.875-3.047v-.781h7.219v.781zm0 0"/></symbol><symbol overflow="visible" id="n"><path d="M2.906-2.969c0-1.32-.219-2.414-.656-3.281A3.389 3.389 0 0 0 .219-8.016l.156-.453c1.145.305 2.02.953 2.625 1.953.613 1 .922 2.204.922 3.61 0 1.418-.309 2.62-.922 3.61-.605 1-1.48 1.648-2.625 1.952l-.14-.453C1.14 1.898 1.812 1.301 2.25.406c.438-.883.656-2.008.656-3.375zm0 0"/></symbol><symbol overflow="visible" id="f"><path d="M3.484-3.281c-.03-.27-.12-.469-.265-.594-.137-.125-.356-.188-.656-.188a1.11 1.11 0 0 0-.329.047.69.69 0 0 0-.265.141.539.539 0 0 0-.172.203.485.485 0 0 0-.063.25c0 .094.008.18.032.25.02.063.062.133.125.203.062.063.144.133.25.203.113.075.257.157.437.25.188.106.344.204.469.297.125.094.223.196.297.297.07.094.117.2.14.313.032.105.047.226.047.359 0 .21-.043.398-.125.563a1.223 1.223 0 0 1-.36.406 1.578 1.578 0 0 1-.53.265c-.211.063-.434.094-.672.094a5.31 5.31 0 0 1-.797-.062 4.972 4.972 0 0 1-.828-.172l.218-1h.391c.008.273.094.476.25.61.156.136.399.202.734.202.29 0 .52-.062.688-.187a.63.63 0 0 0 .25-.531.972.972 0 0 0-.031-.25.493.493 0 0 0-.125-.22.878.878 0 0 0-.235-.202 6.991 6.991 0 0 0-.406-.25 4.159 4.159 0 0 1-.453-.297 2.049 2.049 0 0 1-.313-.281 1.087 1.087 0 0 1-.171-.297 1.28 1.28 0 0 1 .062-.86c.082-.156.192-.289.328-.406a1.61 1.61 0 0 1 .516-.266c.207-.062.437-.093.687-.093.282 0 .54.023.782.062.238.031.472.078.703.14l-.219 1zm0 0"/></symbol><symbol overflow="visible" id="g"><path d="M3.39-.844c-.148.168-.288.309-.421.422a3.237 3.237 0 0 1-.406.297c-.126.074-.25.125-.376.156a1.62 1.62 0 0 1-.39.047c-.344 0-.606-.078-.781-.234-.168-.164-.25-.41-.25-.735 0-.113.004-.234.015-.359.02-.133.047-.258.078-.375l.516-2.281h-.75l.094-.344c.164 0 .297-.016.39-.047a.752.752 0 0 0 .266-.14c.04-.04.082-.086.125-.141a2.56 2.56 0 0 0 .125-.219c.04-.094.082-.195.125-.312l.14-.407h.688l-.25 1.125h1.485l-.094.485H2.234l-.453 1.844c-.031.124-.058.234-.078.328-.023.093-.039.183-.047.265-.011.086-.023.157-.031.219v.172c0 .18.035.32.11.422.07.094.19.14.359.14.144 0 .297-.05.453-.156.156-.101.336-.265.547-.484zm0 0"/></symbol><symbol overflow="visible" id="h"><path d="M3.36-1.094c-.15.211-.294.387-.438.532a3.204 3.204 0 0 1-.406.375 1.397 1.397 0 0 1-.422.203c-.137.039-.281.062-.438.062-.343 0-.617-.125-.812-.375C.656-.547.563-.91.563-1.39a3.93 3.93 0 0 1 .344-1.563c.113-.226.241-.437.39-.624a3.07 3.07 0 0 1 .5-.485 2.53 2.53 0 0 1 .578-.312c.207-.07.422-.11.64-.11.227 0 .43.028.61.079.176.054.344.125.5.218l.422-.296.36.093-.673 2.875a2.555 2.555 0 0 0-.093.688c0 .117.02.2.062.25.04.043.11.062.203.062.051 0 .098-.007.14-.03a.85.85 0 0 0 .173-.095c.062-.039.129-.093.203-.156.07-.07.148-.16.234-.265.051.054.102.105.157.156.05.054.097.101.14.14-.148.149-.281.278-.406.391-.117.105-.23.195-.344.266-.117.062-.23.109-.344.14a1.149 1.149 0 0 1-.328.047.653.653 0 0 1-.5-.203c-.117-.133-.172-.32-.172-.563 0-.132.02-.257.063-.375zm.296-1.39c.04-.188.07-.352.094-.5.02-.145.031-.282.031-.407 0-.238-.058-.406-.172-.5-.105-.101-.277-.156-.515-.156-.168 0-.328.04-.485.11-.148.074-.28.18-.406.312a2.282 2.282 0 0 0-.328.469c-.094.168-.18.351-.25.547a3.56 3.56 0 0 0-.14.593c-.032.2-.048.391-.048.579 0 .312.04.546.125.703.094.156.239.234.438.234a.944.944 0 0 0 .297-.047 1.21 1.21 0 0 0 .281-.172c.258-.207.477-.453.656-.734.188-.29.329-.633.422-1.031zm0 0"/></symbol><symbol overflow="visible" id="i"><path d="M1.39-2.86c.04-.175.067-.316.079-.421a1.75 1.75 0 0 0 .031-.281c0-.22-.086-.329-.25-.329a.573.573 0 0 0-.172.032.732.732 0 0 0-.172.109 2.231 2.231 0 0 0-.187.172 3.823 3.823 0 0 0-.235.219l-.296-.282c.144-.144.273-.27.39-.375.125-.113.238-.203.344-.265.113-.07.223-.125.328-.157a1.28 1.28 0 0 1 .344-.046c.218 0 .383.074.5.218.125.137.187.32.187.547 0 .137-.023.258-.062.36l.062.03c.29-.394.578-.687.86-.874a1.55 1.55 0 0 1 .875-.281c.101 0 .203.007.296.015.102.012.204.028.297.047l-.234 1.063h-.5c-.023-.176-.063-.301-.125-.375a.28.28 0 0 0-.25-.125.554.554 0 0 0-.234.062c-.086.043-.18.106-.282.188a4.249 4.249 0 0 0-.296.296 3.789 3.789 0 0 0-.266.376 3.152 3.152 0 0 0-.235.406c-.062.148-.109.297-.14.453L1.594 0h-.86zm0 0"/></symbol><symbol overflow="visible" id="o"><path d="M4.094-.938a4.08 4.08 0 0 1-1.016.766c-.336.168-.7.25-1.094.25-.23 0-.433-.031-.609-.094a1.306 1.306 0 0 1-.453-.296 1.383 1.383 0 0 1-.266-.485 2.147 2.147 0 0 1-.094-.656c0-.164.016-.336.047-.516.032-.176.07-.351.125-.531.063-.188.141-.363.235-.531.094-.176.203-.336.328-.485.238-.3.531-.535.875-.703a2.524 2.524 0 0 1 1.14-.265c.376 0 .66.086.86.25.195.156.297.386.297.687 0 1.063-1.008 1.594-3.016 1.594a3.35 3.35 0 0 0-.031.25 2.433 2.433 0 0 0-.016.297c0 .312.063.543.188.687.133.149.336.219.61.219.144 0 .28-.008.405-.031.133-.031.266-.078.391-.14.125-.071.25-.157.375-.25.125-.102.254-.227.39-.376zM1.547-2.375c.363 0 .68-.023.953-.078.27-.063.488-.14.656-.235.176-.101.301-.218.375-.343a.825.825 0 0 0 .125-.438c0-.187-.047-.328-.14-.422-.086-.101-.215-.156-.391-.156-.156 0-.313.043-.469.125a1.644 1.644 0 0 0-.453.328 2.668 2.668 0 0 0-.375.531c-.117.2-.21.43-.281.688zm0 0"/></symbol><symbol overflow="visible" id="p"><path d="M2.266-3.328c.289-.383.57-.672.843-.86.282-.195.567-.296.86-.296.312 0 .547.086.703.25.156.168.234.402.234.703 0 .094-.015.226-.047.39a9.338 9.338 0 0 1-.093.516c-.043.188-.09.387-.141.594a26 26 0 0 1-.125.547l-.11.437a1.343 1.343 0 0 0-.03.219c0 .117.019.2.062.25.039.043.101.062.187.062a.42.42 0 0 0 .172-.03c.051-.02.102-.052.157-.095.062-.039.128-.093.203-.156.07-.07.148-.16.234-.265l.313.296a5.473 5.473 0 0 1-.407.375c-.117.106-.23.196-.343.266a1.272 1.272 0 0 1-.688.203.763.763 0 0 1-.297-.062.61.61 0 0 1-.234-.172.903.903 0 0 1-.156-.25 1.039 1.039 0 0 1-.047-.328c0-.114.007-.25.03-.407.032-.156.071-.328.126-.515.05-.188.098-.367.14-.547.051-.176.094-.336.126-.485.03-.144.054-.273.078-.39.02-.113.03-.211.03-.297 0-.176-.038-.305-.109-.39-.062-.083-.171-.126-.328-.126a.844.844 0 0 0-.296.063 1.425 1.425 0 0 0-.297.187 2.132 2.132 0 0 0-.297.297 2.969 2.969 0 0 0-.485.735c-.062.136-.109.273-.14.406L1.594 0h-.86l.657-2.86c.039-.156.066-.288.078-.406.02-.125.031-.222.031-.296 0-.22-.086-.329-.25-.329a.573.573 0 0 0-.172.032.732.732 0 0 0-.172.109 2.231 2.231 0 0 0-.187.172 3.823 3.823 0 0 0-.235.219l-.296-.282c.144-.144.273-.27.39-.375.125-.113.238-.203.344-.265.113-.07.223-.125.328-.157a1.28 1.28 0 0 1 .344-.046c.218 0 .383.074.5.218.125.137.187.32.187.547 0 .063-.008.125-.015.188a.706.706 0 0 1-.063.187zm0 0"/></symbol><symbol overflow="visible" id="q"><path d="M4.234-1.516a2.956 2.956 0 0 0-.093.688c0 .117.02.2.062.25.04.043.11.062.203.062.051 0 .098-.007.14-.03a.85.85 0 0 0 .173-.095c.062-.039.129-.093.203-.156.07-.07.148-.16.234-.265.051.054.102.105.157.156.05.054.097.101.14.14-.148.149-.281.278-.406.391-.117.105-.23.195-.344.266-.117.062-.23.109-.344.14a1.149 1.149 0 0 1-.328.047.653.653 0 0 1-.5-.203c-.117-.133-.172-.32-.172-.563 0-.132.02-.257.063-.375l-.063-.03c-.148.21-.293.386-.437.53a3.204 3.204 0 0 1-.406.375 1.397 1.397 0 0 1-.422.204c-.137.039-.281.062-.438.062-.343 0-.617-.125-.812-.375C.656-.547.563-.91.563-1.39a3.93 3.93 0 0 1 .344-1.563c.113-.226.241-.437.39-.624a3.07 3.07 0 0 1 .5-.485 2.53 2.53 0 0 1 .578-.312c.207-.07.422-.11.64-.11.196 0 .376.024.532.063.164.031.32.106.469.219a6.15 6.15 0 0 0 .109-.469c.031-.133.055-.254.078-.36a1.75 1.75 0 0 0 .031-.28.37.37 0 0 0-.03-.157.166.166 0 0 0-.079-.093.405.405 0 0 0-.172-.063 2.627 2.627 0 0 0-.281-.016l.047-.312L5.03-6h.219zm-.593-.968a9.77 9.77 0 0 0 .078-.47 2.39 2.39 0 0 0 .047-.437c0-.238-.055-.406-.157-.5-.105-.101-.277-.156-.515-.156-.168 0-.328.04-.485.11-.148.074-.28.18-.406.312a2.462 2.462 0 0 0-.328.453c-.094.168-.18.352-.25.547a3.839 3.839 0 0 0-.188 1.188c0 .312.04.546.125.703.094.156.239.234.438.234a.955.955 0 0 0 .453-.14 1.86 1.86 0 0 0 .469-.391c.156-.164.297-.375.422-.625.133-.25.234-.524.297-.828zm0 0"/></symbol></defs><use xlink:href="#a" x="-.384" y="9.082"/><use xlink:href="#b" x="10.591" y="9.082"/><use xlink:href="#c" x="22.845" y="9.082"/><use xlink:href="#d" x="32.672" y="9.082"/><use xlink:href="#e" x="38.698" y="9.082"/><use xlink:href="#f" x="43.777" y="11.522"/><use xlink:href="#g" x="48.16" y="11.522"/><use xlink:href="#h" x="52.222" y="11.522"/><use xlink:href="#i" x="57.866" y="11.522"/><use xlink:href="#g" x="62.745" y="11.522"/><use xlink:href="#j" x="69.969" y="9.082"/><use xlink:href="#k" x="81.554" y="9.082"/><use xlink:href="#l" x="86.515" y="9.082"/><use xlink:href="#m" x="95.792" y="9.082"/><use xlink:href="#c" x="107.377" y="9.082"/><use xlink:href="#n" x="114.55" y="9.082"/><use xlink:href="#d" x="122.165" y="9.082"/><use xlink:href="#e" x="128.191" y="9.082"/><use xlink:href="#o" x="133.274" y="11.522"/><use xlink:href="#p" x="138.249" y="11.522"/><g><use xlink:href="#q" x="144.041" y="11.522"/></g></svg>