<svg xmlns="http://www.w3.org/2000/svg" xmlns:xlink="http://www.w3.org/1999/xlink" width="836" height="46pt" viewBox="0 0 627 46"><defs><symbol overflow="visible" id="a"><path d="M8.094-2.766c0-.921-.89-1.64-1.813-1.765v.265c1.266-.25 2.5-1.359 2.5-2.421 0-.829-.828-1.735-2.14-1.735H3.094c-.219 0-.516.125-.516.36 0 .109.281.25.5.25.297 0 .453-.141.453.062 0 .063 0 .094-.031.172L1.86-.984c-.11.406.015.375-.72.375-.202 0-.5.125-.5.359 0 .125.282.25.47.25h3.796c1.625 0 3.188-1.5 3.188-2.766zm-.64-3.968c0 1.03-.766 2.109-2.126 2.109H3.984L4.688-7.5c.109-.453.015-.313.406-.313h1.39c.954 0 .97.563.97 1.079zm-.72 3.828c0 1.25-.828 2.297-2.093 2.297H3.17c-.343 0-.187.125-.187-.016 0-.047 0-.063.047-.234l.813-3.266h1.89c.938 0 1 .61 1 1.219zm0 0"/></symbol><symbol overflow="visible" id="b"><path d="M5.64-1.39c0-.079-.28-.313-.343-.313a.51.51 0 00-.281.156c-.625.86-1.391 1.172-2 1.172-.797 0-.72-.813-.72-1.203 0-.531.079-.86.173-1.188h.281c.422 0 2.844-.14 2.844-1.64 0-.547-.625-1.125-1.328-1.125-1.235 0-3.094 1.343-3.094 3.453C1.172-.875 1.984.125 3 .125c1.484 0 2.64-1.344 2.64-1.516zm-.827-3.032c0 1.281-1.782 1.14-2.172 1.14h-.032c.438-1.765 1.438-1.75 1.641-1.75.484 0 .563.204.563.61zm1.421-3.703c0-.188-.328-.453-.515-.453-.157 0-.203.39-.203.39l-.25-.187-1.72 1.75c-.108.094-.171.219-.171.25 0 .094.313.313.36.313.062 0 .25-.063.28-.11l1.907-1.5c.094-.062.312-.281.312-.453zm0 0"/></symbol><symbol overflow="visible" id="c"><path d="M5.234-1.813c0-.093-.25-.25-.343-.25-.141 0-.344.172-.375.282-.282.812-.782.922-1.11.922-.203 0-.375-.079-.703-.235l.125.047c-.39-.203-.656-.234-.797-.234-.031 0-.172 0 .172-.11.156-.187.672-.718 1.203-1.203 1.14-1.015 2.219-2.5 2.219-2.719 0-.093-.266-.218-.328-.218a.364.364 0 00-.344.203c-.328.562-.375.687-.61.687-.202 0-.202-.046-.405-.343-.204-.282-.485-.547-.86-.547-.86 0-1.547 1.234-1.547 1.468 0 .11.297.235.344.235.14 0 .328-.156.375-.266.125-.36.36-.453.703-.453.235 0 .438.094.313.047.625.328.875.36.78.36a5.6 5.6 0 01-.405.452L1.953-2C1.141-1.187.531-.203.531-.11c0 .094.313.235.36.235.125 0 .25-.047.328-.203.187-.281.39-.703.797-.703.109 0 .14-.031.406.344.203.312.5.562.86.562 1.124 0 1.952-1.656 1.952-1.938zm0 0"/></symbol><symbol overflow="visible" id="d"><path d="M4.047-1.844c0-.11-.297-.234-.344-.234-.14 0-.344.172-.39.344-.11.406-.235 1.359-.907 1.359-.14 0-.094.063-.094-.219 0-.312.157-.75.376-1.328l.703-1.937c.109-.297.14-.391.14-.61 0-.61-.578-1.062-1.047-1.062-1.093 0-1.687 1.89-1.687 1.953 0 .11.297.25.36.25.14 0 .343-.172.39-.344.094-.375.219-1.36.922-1.36.25 0 .062.095.062.22 0 .312-.062.515-.156.734l-.953 2.594c-.094.265-.094.421-.094.53 0 .688.656 1.079 1.047 1.079 1.11 0 1.672-1.922 1.672-1.969zm.312-5.578c0-.328-.421-.61-.656-.61-.36 0-.89.47-.89.813 0 .328.437.61.671.61.36 0 .875-.454.875-.813zm0 0"/></symbol><symbol overflow="visible" id="e"><path d="M5.64-1.39c0-.079-.28-.313-.343-.313a.51.51 0 00-.281.156c-.625.86-1.391 1.172-2 1.172-.797 0-.72-.813-.72-1.203 0-.531.079-.86.173-1.188h.281c.422 0 2.844-.14 2.844-1.64 0-.547-.625-1.125-1.328-1.125-1.235 0-3.094 1.343-3.094 3.453C1.172-.875 1.984.125 3 .125c1.484 0 2.64-1.344 2.64-1.516zm-.827-3.032c0 1.281-1.782 1.14-2.172 1.14h-.032c.438-1.765 1.438-1.75 1.641-1.75.484 0 .563.204.563.61zm0 0"/></symbol><symbol overflow="visible" id="f"><path d="M5.922-4.703c0-.61-.984-.828-1.313-.828-.562 0-1.14.297-1.578.922l.297.093c-.094-.703-.797-1.015-1.11-1.015-.28 0-.78.25-1.14 1-.062.11.031 1.047.031 1.047l-.312-.094c0 .094.25.25.36.25.14 0 .327-.156.39-.422.187-.703.234-1.281.64-1.281.313 0 .126.218.126.36 0 .218-.047.484-.094.655L1.344-.53c-.047.172-.047.187-.047.234 0 .14.281.422.5.422.266 0 .562-.36.625-.563l.765-3.109c.047-.14.391-1.484 1.407-1.484.062 0 .265-.032.297-.016.171-.031-.235.281-.235.578 0 .25.375.469.563.469.203 0 .703-.281.703-.703zm0 0"/></symbol><symbol overflow="visible" id="g"><path d="M4.156 2.719c0-.047-.078-.172-.11-.203-1.234-.922-2-3.22-2-5.141v-1c0-1.906.767-4.203 2-5.14a.457.457 0 00.11-.188c0-.063-.25-.25-.312-.25a1.01 1.01 0 00-.203.062C2.312-8.156 1-5.67 1-3.625v1C1-.578 2.313 1.906 3.64 2.906c.016.016.188.063.204.063.062 0 .312-.203.312-.25zm0 0"/></symbol><symbol overflow="visible" id="h"><path d="M6.266-4.656c0-.36-.47-.89-1-.89-.344 0-1.032.124-1.891 1.093-.406.453-.734.89-.938.969l1.188-4.813-.063.094s-.124-.36-.28-.36c-.282 0-1.157.094-1.47.126-.093.015-.421.156-.421.374 0 .141.312.266.484.266.578 0 .39-.047.39.078l-.03.235L.5-.594c-.047.156-.047.188-.047.266 0 .266.438.453.547.453.156 0 .469-.14.547-.281.062-.11.656-2.406.687-2.563.25.016 1.032.078 1.032.86 0 .093 0 .14-.032.25-.03.156-.062.296-.062.421 0 .704.687 1.313 1.312 1.313.36 0 .813-.219 1.079-.656.296-.531.421-1.219.421-1.219l.063-.094c0-.11-.297-.25-.328-.25-.125 0-.344.188-.375.344C5.109-.875 5.03-.39 4.5-.39c-.219 0-.188 0-.188-.438 0-.203.047-.469.094-.672.047-.203.047-.25.047-.36 0-.78-.937-1.265-1.531-1.343.078-.031.453-.422.734-.703.578-.64 1-1.11 1.578-1.11.079 0-.062-.046.016 0 .234.032.11 0 .203.063.016.016.016.031-.172-.156-.218.015-.531.609-.531.765 0 .188.344.547.672.547.297 0 .844-.406.844-.86zm0 0"/></symbol><symbol overflow="visible" id="i"><path d="M2.625-.14c0-.797-.5-1.391-.969-1.391-.39 0-.828.437-.828.765 0 .329.438.766.828.766.157 0 .438-.078.563-.188l.047-.046s-.313-.078-.313.093c0 .875-.344 1.5-.75 1.891-.125.14-.187.266-.187.297 0 .078.265.265.328.265.125 0 1.281-1.062 1.281-2.453zm0 0"/></symbol><symbol overflow="visible" id="j"><path d="M4.14-5.156c0-.125-.312-.266-.53-.266H2.78c.39-1.562.453-1.797.453-1.875 0-.203-.328-.453-.53-.453-.032 0-.579.14-.688.563l-.422 1.765H.64c-.25 0-.563.14-.563.36 0 .156.297.28.531.28h.813C.594-1.515.547-1.311.547-1.093c0 .64.656 1.219 1.312 1.219 1.22 0 2.079-1.875 2.079-1.969 0-.11-.282-.25-.329-.25-.109 0-.328.172-.375.297C2.72-.547 2.281-.39 1.875-.39c-.25 0-.172-.03-.172-.421 0-.282.016-.375.063-.579l.859-3.39h.953c.25 0 .563-.125.563-.375zm0 0"/></symbol><symbol overflow="visible" id="k"><path d="M3.64-2.625v-1c0-2.047-1.328-4.531-2.64-5.516a.774.774 0 00-.203-.062c-.063 0-.313.187-.313.25 0 .031.079.172.094.187 1.25.938 2.016 3.235 2.016 5.141v1c0 1.922-.766 4.219-2.016 5.14-.015.032-.094.157-.094.204 0 .047.25.25.313.25A.774.774 0 001 2.906c1.313-1 2.64-3.484 2.64-5.531zm0 0"/></symbol><symbol overflow="visible" id="l"><path d="M8.828-4.281c0-.125-.312-.375-.437-.375H.906c-.125 0-.437.25-.437.375 0 .14.312.375.437.375h7.485c.125 0 .437-.235.437-.375zm0 2.328c0-.14-.312-.375-.437-.375H.906c-.125 0-.437.234-.437.375 0 .125.312.36.437.36h7.485c.125 0 .437-.235.437-.36zm0 0"/></symbol><symbol overflow="visible" id="n"><path d="M16.578 1.297h-.453c-.516 1.375-1.578 2.047-2.953 2.406-.25.063-1.422.375-3.719.375H2.578l5.89-6.906c.079-.094.157-.235.157-.297l-.047.094s0-.25-.094-.36l-5.406-7.39h6.25c1.61 0 2.703.172 2.797.187.656.094 1.547.266 2.5.86.297.203 1.047.64 1.516 1.734h.687l-1.562-3.625H1c-.266 0-.422.047-.547.297.016-.047.016.187.016.328L6.78-2.36.656 4.813c-.125.141.156.407.156.407l-.328-.11c0 .141.297.266.516.266h14.281l1.531-4.078zm0 0"/></symbol><symbol overflow="visible" id="r"><path d="M8.344 10.969a.486.486 0 00-.14-.266C5.655 8.781 3.936 3.578 3.936-.89v-4.453c0-4.484 1.72-9.687 4.266-11.593a.486.486 0 00.14-.266c0-.11-.28-.344-.405-.344-.047 0-.235.063-.282.078-2.64 2-5.156 7.422-5.156 12.125V-.89c0 4.688 2.516 10.125 5.156 12.11a.993.993 0 00.282.094c.125 0 .406-.235.406-.344zm0 0"/></symbol><symbol overflow="visible" id="s"><path d="M3.578-7.61c0-.234-.344-.546-.625-.546-.328 0-.844.437-.844.75 0 .234.36.562.657.562.265 0 .812-.406.812-.765zm.11 5.766c0-.11-.297-.25-.329-.25-.125 0-.328.172-.39.344-.203.766-.406 1.36-1.016 1.36-.203 0-.094.015-.094-.266 0-.297.079-.469.36-1.203l.453-1.25c.156-.344.156-.375.265-.688.094-.25.157-.406.157-.64 0-.532-.578-1.11-1.172-1.11C.797-5.547.14-3.687.14-3.578c0 .125.484.219.484.219l-.14.03c.124 0 .328-.155.39-.343.313-1.125.61-1.344 1.016-1.344.093 0 .093-.14.093.25 0 .25-.078.5-.125.625-.109.297-.64 1.688-.828 2.204-.125.312-.281.703-.281.953 0 .562.61 1.109 1.188 1.109 1.125 0 1.75-1.86 1.75-1.969zm0 0"/></symbol><symbol overflow="visible" id="t"><path d="M6.281-.89v-4.454c0-4.703-2.5-10.125-5.156-12.125a1.32 1.32 0 00-.266-.078c-.125 0-.421.235-.421.344 0 .078.093.234.14.265 2.547 1.907 4.266 7.11 4.266 11.594V-.89c0 4.47-1.719 9.672-4.266 11.594a.486.486 0 00-.14.266c0 .11.296.344.421.344a.77.77 0 00.266-.094C3.781 9.234 6.281 3.797 6.281-.891zm0 0"/></symbol><symbol overflow="visible" id="u"><path d="M24.047.86c0-.047-.235-.22-.281-.22a.5.5 0 00-.297.188c-.344.953-1.735 1.328-3.235 1.328h-4.78c-1.782 0-3.36.969-3.735 1.86h.406c-.375-.891-1.938-1.86-3.719-1.86H3.625c-1.5 0-2.906-.375-3.25-1.328A.476.476 0 00.094.641c-.047 0-.297.171-.297.218v.032c.39 1.062 2.14 2.296 3.828 2.296h4.781c1.828 0 3.219.36 3.219 1.297 0 .063.25.22.297.22.062 0 .297-.157.297-.22 0-.937 1.406-1.296 3.234-1.296h4.781c1.688 0 3.422-1.235 3.813-2.297zm0 0"/></symbol><symbol overflow="visible" id="C"><path d="M2.484-3.125c0-.344-.468-.766-.828-.766-.343 0-.828.422-.828.766 0 .36.485.766.828.766.36 0 .828-.407.828-.766zm0 0"/></symbol><symbol overflow="visible" id="D"><path d="M5.203-.125v-.516h-.578c-1.078 0-.922 0-.922-.437v-6.703c0-.282-.187-.438-.578-.438-.766.797-1.672.766-2.266.766v.625c.438 0 1.282-.031 1.563-.172v5.922c0 .437.172.437-.906.437H.937v.672C1.547-.03 2.595-.03 3.079-.03c.469 0 1.516 0 2.125.062zm0 0"/></symbol><symbol overflow="visible" id="E"><path d="M8.828-3.125c0-.125-.312-.36-.437-.36H.906c-.125 0-.437.235-.437.36 0 .14.312.375.437.375h7.485c.125 0 .437-.234.437-.375zm0 0"/></symbol><symbol overflow="visible" id="G"><path d="M12.172 3.375V2.031H6.094C3.359 2.031.875 1.766.484.72.47.656.234.484.156.484c-.078 0-.36.204-.36.282 0 .015.063.14.032.125.406 1.093 3.235 2.625 6.266 2.625h6.078zm0 0"/></symbol><symbol overflow="visible" id="H"><path d="M12.078 3.375V2.031H-.203v1.485h12.281zm0 0"/></symbol><symbol overflow="visible" id="I"><path d="M23.938 2.031h-6.032c-2.984 0-5.468 1.094-5.937 1.906C11.484 3.125 9 2.032 6.03 2.032H-.203v1.485H6.03c3.094 0 5.578.218 5.578 1.25 0 .093.266.296.36.296.078 0 .344-.203.344-.296 0-1.032 2.484-1.25 5.593-1.25h6.235V2.03zm0 0"/></symbol><symbol overflow="visible" id="J"><path d="M12.156.766c0-.079-.265-.282-.344-.282-.078 0-.328.172-.343.235-.39 1.047-2.86 1.312-5.594 1.312H-.203v1.485h6.078c3.031 0 5.844-1.532 6.25-2.625-.031.015.031-.11.031-.125zm0 0"/></symbol><symbol overflow="visible" id="M"><path d="M8.453-4.578c0-.656-.515-.969-.719-.969-.296 0-.796.438-.796.703 0 .157.125.328.234.422.125.125.375.344.375.922 0 .406-.297 1.484-.61 2.094l-.046.093c-.313.625-.532.922-1.125.922-.547 0-.688-.234-.688-.906 0-.344.078-.719.14-.875l.5-2.015c.048-.266.173-.704.173-.766 0-.219-.36-.469-.532-.469-.14 0-.562.234-.656.469-.031.094-.594 2.375-.672 2.687-.093.36-.11.563-.11.782 0 .14 0 .156.017.218-.282.625-.438.875-.907.875-.953 0-.765-.75-.765-.953 0-.39.062-.86.625-2.328.14-.36.203-.531.203-.765 0-.532-.578-1.11-1.172-1.11C.782-5.547.14-3.687.14-3.578c0 .125.484.219.484.219l-.14.03c.124 0 .328-.155.39-.343.313-1.11.594-1.344 1.016-1.344.109 0 .093-.125.093.266 0 .297-.125.625-.218.828-.516 1.406-.672 1.969-.672 2.422C1.094-.422 2.109.125 3 .125c.203 0 .89-.031 1.203-.563.14.36 1.172.563 1.531.563.907 0 1.61-.875 1.922-1.594.407-.937.797-2.531.797-3.11zm0 0"/></symbol><symbol overflow="visible" id="N"><path d="M8.828-3.125c0-.125-.312-.36-.437-.36H5.078v-3.374c0-.141-.297-.375-.422-.375-.14 0-.453.234-.453.375v3.375H.906c-.125 0-.437.234-.437.359 0 .14.312.375.437.375h3.297V.625c0 .125.313.36.453.36.125 0 .422-.235.422-.36V-2.75h3.313c.125 0 .437-.234.437-.375zm0 0"/></symbol><symbol overflow="visible" id="X"><path d="M7.016-1.844c0-.11-.297-.25-.329-.25-.125 0-.328.172-.39.344-.234.813-.422 1.36-1.016 1.36-.203 0-.093.015-.093-.266 0-.297.109-.594.218-.844.219-.64.719-1.953.719-2.64 0-.798-.703-1.407-1.563-1.407-1.078 0-1.796.797-2 1.078l.329.094c-.063-.672-.735-1.172-1.282-1.172-.562 0-.921.5-1.14.89C.313-4.327.14-3.624.14-3.577c0 .125.484.219.484.219l-.14.03c.124 0 .328-.14.406-.405.203-.844.25-1.282.671-1.282.25 0 .172.016.172.407 0 .265-.03.39-.187 1.015L.844-.844c-.031.188-.11.469-.11.516 0 .219.375.453.563.453.14 0 .547-.219.656-.547-.078.156.125-.5.203-.797l.266-1.078c.062-.265.14-.531.203-.797l.14-.594c.188-.374.626-1.328 1.766-1.328.532 0 .438.313.438.704 0 .734-.578 2.265-.766 2.78-.11.282-.125.423-.125.548 0 .562.625 1.109 1.188 1.109 1.125 0 1.75-1.875 1.75-1.969zm0 0"/></symbol><symbol overflow="visible" id="aa"><path d="M5.688-3.953c0-.953-.063-1.922-.47-2.797-.562-1.156-1.734-1.469-2.234-1.469-.718 0-1.796.438-2.28 1.547-.376.828-.438 1.766-.438 2.719 0 .89.109 2.062.593 2.969.516.968 1.532 1.25 2.11 1.25.656 0 1.75-.391 2.281-1.516.375-.828.438-1.766.438-2.703zm-1.391-.14c0 .89 0 1.702-.125 2.468C4-.485 3.516-.265 2.969-.265 2.516-.266 2-.438 1.78-1.579c-.125-.719-.125-1.813-.125-2.516 0-.765 0-1.562.094-2.203.219-1.422.922-1.406 1.219-1.406.406 0 .984.094 1.219 1.266.109.671.109 1.578.109 2.343zm0 0"/></symbol><symbol overflow="visible" id="m"><path d="M4.953-3.266c0-.28-.406-.75-.844-.75-.484 0-1.062.391-1.5.797-.343.328-.468.531-.546.578l.765-3.109c-.062.125-.031.016-.031.016l.062-.125c0-.032-.234-.266-.343-.266-.157 0-.86.063-1.063.078-.078.016-.39.172-.39.36 0 .109.312.265.421.265.407 0 .188-.094.188-.031 0 .062-.016.11-.031.187L.453-.53c-.031.156.313.312.313.312L.422-.344c0 .125.312.422.484.422.235 0 .547-.328.594-.531-.047.11.39-1.484.375-1.422.422.047.703.078.703.516 0 .03 0 .078-.031.156-.031.125-.031.172-.031.266 0 .593.703 1.015 1.109 1.015.813 0 1.203-1.312 1.203-1.312l.063-.125c0-.11-.313-.266-.344-.266-.11 0-.328.203-.375.36-.11.359-.125.796-.531.796-.22 0-.079-.047-.079-.281 0-.14 0-.156.047-.375a.784.784 0 00.047-.25c0-.75-1.219-1.031-1.578-1.047l.156.266c.235-.14.547-.422.688-.547.422-.406.703-.75 1.172-.75.11 0 .062-.016-.047-.156-.031 0-.313.437-.313.562 0 .188.344.469.532.469.234 0 .687-.344.687-.688zm0 0"/></symbol><symbol overflow="visible" id="o"><path d="M2.922-5.39c0-.141-.313-.485-.547-.485-.219 0-.672.375-.672.625 0 .14.313.469.547.469.234 0 .672-.39.672-.61zm.219 4.03c0-.109-.313-.265-.344-.265-.11 0-.328.203-.375.297-.188.672-.344.86-.672.86-.172 0 0 .046 0-.141 0-.188.063-.344.14-.532l.266-.671.406-1.063a.794.794 0 00.047-.266c0-.39-.546-.875-1-.875-.828 0-1.421 1.297-1.421 1.438 0 .11.328.281.343.281.125 0 .344-.203.36-.297.218-.719.375-.86.687-.86.14 0 0-.093 0 .126 0 .203-.047.328-.25.844L.797-1.141c-.031.11-.078.22-.078.36 0 .39.547.86 1 .86.843 0 1.422-1.313 1.422-1.438zm0 0"/></symbol><symbol overflow="visible" id="p"><path d="M6.25-3.063c0-.093-.281-.328-.375-.328H.641c-.094 0-.375.235-.375.329 0 .093.28.328.375.328h5.234c.094 0 .375-.235.375-.329zm0 1.626c0-.094-.281-.329-.375-.329H.641c-.094 0-.375.235-.375.329 0 .093.28.328.375.328h5.234c.094 0 .375-.235.375-.329zm0 0"/></symbol><symbol overflow="visible" id="q"><path d="M4.531-2.828c0-.922-.172-1.688-.562-2.281-.266-.391-.922-.766-1.594-.766C.437-5.875.219-3.437.219-2.828c0 .594.218 3 2.156 3 1.953 0 2.156-2.406 2.156-3zm-1.187-.11c0 .626 0 1.235-.11 1.766-.156.766-.515.781-.859.781-.375 0-.688-.062-.844-.75-.125-.5-.125-1.171-.125-1.796 0-.61 0-1.25.125-1.704.172-.671.5-.687.844-.687.453 0 .688.125.828.61.14.452.14 1.046.14 1.78zm0 0"/></symbol><symbol overflow="visible" id="F"><path d="M6.25-2.25c0-.094-.281-.328-.375-.328H.641c-.094 0-.375.234-.375.328s.28.328.375.328h5.234c.094 0 .375-.234.375-.328zm0 0"/></symbol><symbol overflow="visible" id="O"><path d="M4.172-.156v-.469H3.64c-.829 0-.625.063-.625-.219v-4.64c0-.235-.235-.391-.563-.391-.578.578-1.203.531-1.75.531v.625c.406 0 1.11-.047 1.219-.11v3.985c0 .281.203.219-.625.219H.766v.64L2.469-.03l1.703.047zm0 0"/></symbol><symbol overflow="visible" id="v"><path d="M5.531-5.031L6-5.578c.188.168.383.375.594.625l-.094.14H1.297l-.078-.218zm.813 4.156l.468-.578c.22.187.422.402.61.64l-.094.157H.641L.547-.875zm0 0"/></symbol><symbol overflow="visible" id="w"><path d="M4.125-4.875h.578c.07-.29.129-.629.172-1.016H3.047l-.094-.203h3.672l.422-.515c.187.148.351.304.5.468l.078.094-.078.156H5.516c-.18.356-.371.696-.579 1.016h1.47l.312-.375c.32.25.484.414.484.484 0 .032-.023.063-.062.094l-.188.125v3.672h-.469v-.297H4.063v.344h-.47v-4.297c.188.074.364.156.532.25zm2.36 1.281H4.061v.969h2.422zm0-.187v-.89H4.061v.89zm0 2.406v-1.047H4.061v1.047zM2-5.172v3.36c.406-.133.797-.27 1.172-.407l.047.188C2.375-1.582 1.602-1.238.906-1c-.023.23-.07.344-.14.344-.106 0-.235-.242-.391-.735.414-.082.8-.175 1.156-.28v-3.5H.47L.39-5.376h1.921l.36-.5c.164.148.332.324.5.531l-.078.172zM5.578-.89c1.383.293 2.078.649 2.078 1.063 0 .187-.086.281-.25.281a.33.33 0 01-.234-.11C6.797-.062 6.238-.421 5.5-.733zM2.25.375C3.082.094 3.781-.32 4.344-.875c.406.2.61.344.61.438 0 .054-.063.078-.188.078-.024 0-.079-.004-.172-.016A6.695 6.695 0 012.39.547zm0 0"/></symbol><symbol overflow="visible" id="x"><path d="M3.969-2.703L4-2.72c.676-.562 1.406-1.328 2.188-2.297.414.23.625.403.625.516 0 .055-.07.078-.204.078-.043 0-.117-.004-.218-.016a15.52 15.52 0 01-2.047 1.735c.82-.05 1.468-.086 1.937-.11l.375-.03a4.726 4.726 0 00-.781-.704L6-3.703c.57.281 1.004.578 1.297.89.207.243.312.45.312.626 0 .187-.086.28-.25.28-.105 0-.199-.093-.28-.28a2.754 2.754 0 00-.266-.454l-.079.016c-.586.094-1.117.156-1.593.188V.578h-.47V-2.39c-.343.032-.991.09-1.937.172-.062.18-.12.266-.171.266-.094 0-.188-.234-.282-.703.414 0 .977-.016 1.688-.047zm-.156-1.563c.394-.476.703-.921.921-1.328-.574.094-1.328.203-2.265.328l-.094-.187c1.738-.27 3.094-.598 4.063-.984.394.218.593.37.593.453 0 .054-.054.078-.156.078a1.7 1.7 0 01-.328-.047c-.563.125-1.117.234-1.656.328.363.156.546.29.546.39 0 .063-.074.094-.218.094h-.14A7.326 7.326 0 014-4.14c.281.22.422.422.422.61 0 .18-.086.265-.25.265-.094 0-.188-.082-.281-.25-.2-.375-.586-.738-1.157-1.093l.094-.157c.395.157.723.325.985.5zm-2.11 0c.29.055.438.121.438.204 0 .074-.11.148-.329.218V.578H1.36v-4.125C1.086-3.023.77-2.52.406-2.03l-.156-.11C1.05-3.46 1.633-4.945 2-6.594c.477.117.719.227.719.328 0 .086-.121.149-.36.188-.218.73-.437 1.336-.656 1.812zm4 2.422c.633.305 1.14.672 1.516 1.11.156.168.234.34.234.515 0 .211-.09.313-.266.313-.117 0-.214-.098-.296-.297-.211-.488-.641-.988-1.297-1.5zM2.141.125c.562-.52 1.02-1.176 1.375-1.969.437.2.656.356.656.469 0 .074-.121.11-.36.11A5.214 5.214 0 012.266.28zm0 0"/></symbol><symbol overflow="visible" id="y"><path d="M2.125-4.938v-1.671c.477.03.719.093.719.187 0 .063-.094.121-.281.172v1.313H3.5l.328-.438c.164.18.297.34.39.484l-.093.157H2.562v.296c.852.188 1.282.434 1.282.735 0 .168-.074.25-.219.25-.086 0-.168-.047-.25-.14a2.297 2.297 0 00-.813-.626v1.157h-.437v-1.204a5.543 5.543 0 01-1.64 1.188l-.11-.172c.664-.406 1.203-.898 1.61-1.484h-1.5l-.063-.204zm-.766 3.813a4.277 4.277 0 01-.14.219 2.279 2.279 0 00-.125.203l-.39-.172c.269-.414.503-.832.702-1.25h-1l-.078-.203h1.156c.094-.195.192-.445.297-.75.414.137.625.246.625.328 0 .063-.105.105-.312.125l-.125.297h1.5l.297-.39c.195.167.351.32.468.452l-.078.141h-.703v.031a.693.693 0 01-.031.11c-.106.449-.274.851-.5 1.203.469.23.703.437.703.625 0 .156-.074.234-.219.234a.281.281 0 01-.203-.094 8.941 8.941 0 00-.515-.421c-.45.5-1.165.832-2.141 1L.437.374C1.281.187 1.91-.16 2.329-.672a8.604 8.604 0 00-.969-.453zm.094-.172c.332.074.692.184 1.078.328.196-.332.348-.719.453-1.156H1.875a7.536 7.536 0 01-.422.828zm4.531-.219C6.43-.922 7.02-.414 7.75 0c-.148.133-.273.29-.375.469-.71-.508-1.258-1.04-1.64-1.594C5.171-.352 4.41.207 3.452.563L3.328.39c.938-.47 1.656-1.11 2.156-1.922-.375-.657-.656-1.52-.843-2.594-.211.45-.47.867-.782 1.25L3.688-3c.55-.895.94-2.098 1.171-3.61.5.106.75.212.75.313 0 .074-.109.133-.328.172a10.68 10.68 0 01-.328 1.188h1.875l.36-.5c.207.187.382.375.53.562l-.077.14h-.829v.11c-.105 1.25-.382 2.29-.828 3.11zm-.28-.406c.331-.789.534-1.695.609-2.719l.015-.093H4.875a.236.236 0 01-.031.093l-.047.125c.207 1.075.508 1.938.906 2.594zM.765-6.359c.57.324.859.648.859.968 0 .2-.094.297-.281.297-.117 0-.196-.093-.235-.281-.054-.27-.214-.55-.484-.844zM2.89-5.156c.25-.375.453-.79.609-1.25.395.18.594.312.594.406 0 .074-.106.11-.313.11-.156.23-.402.507-.734.827zm0 0"/></symbol><symbol overflow="visible" id="z"><path d="M1.61-2.156h1.702l.297-.375c.332.261.5.43.5.5 0 .031-.03.062-.093.094l-.188.125V.374h-.453v-.531H1.547v.64h-.453v-2.921c.156.074.328.167.515.28zm-.063.203V-.36h1.828v-1.594zm.672-3.406v-1.25c.508.023.765.093.765.218 0 .063-.105.133-.312.204v.828h.953l.36-.485c.195.18.367.352.515.516l-.11.172H.626L.547-5.36zm.484 2.187c.238-.488.438-1.125.594-1.906.476.156.719.289.719.39 0 .063-.106.11-.313.141a9.445 9.445 0 01-.75 1.375h.781l.375-.531c.176.168.344.36.5.578l-.078.156H.5l-.078-.203zm3.485-.61c.882.606 1.328 1.321 1.328 2.141 0 .762-.305 1.164-.907 1.204a.352.352 0 00-.156-.297c-.117-.051-.383-.114-.797-.188v-.219c.352.055.649.079.89.079.196 0 .329-.063.391-.188.063-.125.094-.313.094-.563 0-.675-.375-1.316-1.125-1.921.282-.563.54-1.235.782-2.016H5.375V.578h-.469v-6.797c.239.106.426.196.563.266H6.64l.28-.36c.333.313.5.512.5.594 0 .043-.023.074-.062.094l-.234.094a11.556 11.556 0 01-.938 1.75zM1.218-5c.583.46.876.902.876 1.328 0 .242-.106.36-.313.36-.117 0-.183-.086-.203-.266a2.574 2.574 0 00-.5-1.297zm0 0"/></symbol><symbol overflow="visible" id="A"><path d="M3.11-3.234H1.827l-.062-.204h3.687l.297-.359c.313.25.469.406.469.469 0 .043-.028.086-.078.125l-.157.125c-.011 1.586-.148 2.605-.406 3.062-.168.32-.476.485-.922.485 0-.156-.105-.278-.312-.36-.157-.062-.438-.125-.844-.187v-.219c.54.074.96.11 1.266.11.27 0 .445-.165.53-.5.134-.551.208-1.399.22-2.547H3.609c-.086.968-.312 1.742-.687 2.312C2.516-.285 1.875.207 1 .563L.875.39c.938-.508 1.57-1.196 1.906-2.063.164-.457.274-.976.328-1.562zm1.703-3.172C5.55-5.113 6.444-4.148 7.5-3.516a1.274 1.274 0 00-.406.485 7.398 7.398 0 01-1.907-2.156C5-5.5 4.806-5.867 4.61-6.298zM.53-2.828c1.102-.914 1.906-2.11 2.406-3.578.489.168.735.304.735.406 0 .074-.117.137-.344.188-.398.835-.828 1.507-1.297 2.015a7.282 7.282 0 01-1.36 1.125zm0 0"/></symbol><symbol overflow="visible" id="B"><path d="M3.766-5.313c.175.262.265.493.265.688 0 .305-.074.715-.218 1.234a8.518 8.518 0 01-.594 1.454c-.219.449-.434.765-.64.953a.971.971 0 01-.673.265c-.168 0-.355-.11-.562-.328-.149-.133-.262-.351-.344-.656a2.931 2.931 0 01-.14-.906c0-.414.093-.817.28-1.204a3.06 3.06 0 01.688-.921c.645-.582 1.43-.875 2.36-.875.718 0 1.332.171 1.843.515.727.512 1.094 1.219 1.094 2.125 0 .875-.32 1.547-.953 2.016-.574.437-1.34.715-2.297.828l-.047-.234c.895-.164 1.586-.508 2.078-1.032.438-.457.657-1 .657-1.625 0-.718-.258-1.304-.766-1.765-.406-.375-.95-.563-1.625-.563-.137 0-.274.012-.406.032zm-.25.047c-.532.137-.97.356-1.313.657-.293.25-.527.562-.703.937a2.516 2.516 0 00-.234 1.047c0 .43.097.793.296 1.094.125.18.25.265.375.265.114 0 .243-.07.391-.218.3-.313.578-.79.828-1.438.32-.789.485-1.383.485-1.781 0-.25-.043-.438-.125-.563zm0 0"/></symbol><symbol overflow="visible" id="K"><path d="M3.64-5.703h1.61l.328-.375c.344.293.516.484.516.578 0 .031-.028.059-.078.078l-.266.078c-.781 1-1.672 1.762-2.672 2.282-.668.335-1.469.617-2.406.843l-.11-.172c1.282-.414 2.282-.882 3-1.406a.223.223 0 01-.062.016c-.105 0-.188-.078-.25-.235-.086-.25-.293-.492-.625-.734-.531.418-1.168.777-1.906 1.078l-.11-.156c1.332-.695 2.36-1.613 3.079-2.75.437.156.656.277.656.36 0 .073-.133.116-.39.124a3.459 3.459 0 01-.313.39zm-.187.203c-.187.2-.406.406-.656.625.644.242.969.508.969.797a.281.281 0 01-.063.172A7.577 7.577 0 005.266-5.5zm1.344 2.469H6.5l.313-.36c.332.313.5.512.5.594 0 .031-.028.059-.079.078L7-2.625C6.113-1.469 5.086-.645 3.922-.156c-.774.32-1.711.554-2.813.703L1 .359C2.457.08 3.625-.332 4.5-.875h-.031c-.094 0-.164-.047-.203-.14-.149-.352-.399-.676-.75-.97a9.174 9.174 0 01-1.891.938l-.11-.172C2.962-1.852 4.126-2.78 5-4c.414.137.625.25.625.344 0 .074-.125.117-.375.125-.086.105-.219.261-.406.469zm-.203.203a6.688 6.688 0 01-.875.719c.687.336 1.031.652 1.031.953A.248.248 0 014.703-1a7.748 7.748 0 001.813-1.828zm0 0"/></symbol><symbol overflow="visible" id="L"><path d="M4.938-4.516c.187 1.305.566 2.371 1.14 3.204.332.5.567.75.703.75.133 0 .266-.5.39-1.5l.204.093c-.055.524-.078.918-.078 1.188 0 .437.098.695.297.765-.055.25-.18.375-.375.375-.274 0-.625-.246-1.063-.734-.886-1.008-1.453-2.379-1.703-4.11H.703l-.078-.202h3.797a1.195 1.195 0 01-.016-.22 10.96 10.96 0 01-.047-1.077v-.547c.52.043.782.117.782.218 0 .063-.102.137-.297.22v.171c0 .399.023.797.078 1.203h1.64l.375-.562c.165.156.32.324.47.5l.062.078-.094.187zM2.89-2.78v1.89a26.411 26.411 0 001.765-.421l.032.218a29.263 29.263 0 01-3.329 1c-.043.219-.093.328-.156.328-.117 0-.242-.257-.375-.78.531-.071 1.063-.157 1.594-.25v-1.985H1.016l-.079-.203h2.547l.407-.547c.195.18.375.37.53.578l-.093.172zM5.5-6.406c.707.281 1.063.61 1.063.984 0 .2-.094.297-.282.297-.148 0-.242-.086-.281-.266-.074-.312-.273-.601-.594-.875zm0 0"/></symbol><symbol overflow="visible" id="P"><path d="M4.922-3.531v.125c-.012.844-.094 1.562-.25 2.156C4.484-.55 4.14.05 3.64.563L3.469.421a5.057 5.057 0 00.86-2.11c.081-.55.124-1.19.124-1.921v-2.282c.219.075.395.149.531.22.625-.188 1.157-.454 1.594-.798.363.23.547.39.547.485 0 .054-.047.078-.14.078a.843.843 0 01-.235-.032c-.523.2-1.133.36-1.828.485v1.719h1.812l.375-.516c.196.168.364.352.5.547l-.078.172H6.453V.484h-.469V-3.53zM2.078-1.578A6.228 6.228 0 01.438.094L.296-.078c.789-.656 1.363-1.395 1.719-2.219H.578L.5-2.5h1.578v-.938c.5.024.75.079.75.172 0 .055-.101.118-.297.188v.578h.797l.344-.453c.176.187.32.36.437.515l-.093.141H2.53v.313c.883.336 1.328.683 1.328 1.046 0 .188-.078.282-.234.282-.086 0-.168-.067-.25-.203-.2-.332-.48-.625-.844-.875V.578h-.453zM2.5-3.781a8.24 8.24 0 00.484-1.453c.446.168.672.296.672.39 0 .063-.11.102-.328.11-.125.25-.32.57-.578.953h.766l.328-.469c.156.168.289.336.406.5l-.094.156H.484L.406-3.78zM2.078-5.5v-1.11c.5.032.75.102.75.204 0 .074-.105.148-.312.218v.688h.812l.328-.484c.156.156.285.308.39.453l.048.078-.094.14H.687L.595-5.5zm-.969.297c.563.336.844.68.844 1.031 0 .2-.094.297-.281.297-.137 0-.211-.094-.219-.281-.023-.301-.172-.61-.453-.922zm0 0"/></symbol><symbol overflow="visible" id="Q"><path d="M6.844-2.656c-.25.812-.59 1.437-1.016 1.875a2.812 2.812 0 01-2.062.86c-.618 0-1.055-.157-1.313-.47-.25-.3-.375-.77-.375-1.406 0-.789.031-1.664.094-2.625.02-.32.031-.61.031-.86 0-.226-.027-.394-.078-.5-.055-.093-.164-.175-.328-.25l.078-.187c.27.032.508.125.719.282.164.125.25.246.25.359 0 .031-.016.137-.047.312a3.869 3.869 0 00-.094.5 26.86 26.86 0 00-.187 2.907c0 .617.101 1.023.312 1.218.176.18.504.266.985.266.601 0 1.16-.227 1.671-.688.47-.414.848-.984 1.141-1.703zm0 0"/></symbol><symbol overflow="visible" id="R"><path d="M3.734-2.64c-.293.687-.46 1.093-.5 1.218-.117.305-.171.516-.171.64l.078.407c0 .137-.07.203-.204.203-.093 0-.218-.047-.374-.14a1.819 1.819 0 01-.376-.297c-.324-.32-.558-.79-.703-1.407-.105-.468-.164-1.171-.171-2.109 0-.3-.028-.54-.079-.719a.878.878 0 00-.406-.531l.14-.188c.595.274.891.57.891.891a.71.71 0 01-.03.156c-.024.063-.04.118-.048.157-.031.449-.047.84-.047 1.171 0 .75.176 1.415.532 1.985.062.094.132.14.218.14.063 0 .125-.05.188-.156.187-.27.469-.781.844-1.531zm1.532-2.157c.394.2.71.414.953.64.187.18.367.407.547.688.28.438.421.856.421 1.25 0 .313-.101.469-.296.469-.118 0-.196-.125-.235-.375-.218-1.102-.73-1.926-1.531-2.469zm0 0"/></symbol><symbol overflow="visible" id="S"><path d="M1.953-4.047h1.75v-.734H.593l-.077-.203h3.187v-.766l-.562.047c-.649.055-1.329.094-2.047.125L1-5.781c1.8-.125 3.422-.348 4.86-.672.35.2.53.34.53.422 0 .054-.058.078-.171.078-.086 0-.184-.008-.297-.031-.73.093-1.313.164-1.75.203v.797h2.375l.406-.5c.164.148.348.328.547.546l-.078.157h-3.25v.734H6l.297-.344c.32.243.484.403.484.485 0 .031-.027.07-.078.11l-.187.14v2.14h-.454v-.296h-1.89v.828h1.875l.406-.438c.188.149.367.309.547.484l-.11.157H4.173v.875h2.406l.438-.516c.132.117.332.305.593.563L7.5.297h-7L.422.094h3.281v-.875H1.078L.984-.984h2.72v-.829H1.89v.407h-.454v-2.89c.196.085.368.167.516.25zm-.062.203v.781h1.812v-.78zm4.171 1.828v-.843h-1.89v.843zm0-1.046v-.782h-1.89v.781zm-2.359.203H1.891v.843h1.812zm0 0"/></symbol><symbol overflow="visible" id="T"><path d="M3.422-2.922c-.492.875-.875 1.477-1.156 1.797-.282.324-.559.484-.829.484-.23 0-.406-.082-.53-.25a.85.85 0 01-.157-.515c0-.32.086-.617.266-.89a1.78 1.78 0 01.64-.61c.414-.239.907-.36 1.469-.36.281-.57.578-1.328.89-2.265-.199.054-.48.125-.843.218a23.55 23.55 0 01-.625.157.633.633 0 01-.203.047c-.281 0-.453-.25-.516-.75l.219-.047c.094.23.234.343.422.343.258 0 .664-.066 1.219-.203.175-.03.3-.066.374-.109.07-.05.13-.078.172-.078.063 0 .145.055.25.156.133.117.204.227.204.328 0 .055-.028.102-.079.14-.086.044-.164.138-.234.282-.43.95-.7 1.555-.813 1.813.708.105 1.442.34 2.204.703.082-.364.125-.692.125-.985 0-.156-.032-.27-.094-.343a.593.593 0 00-.313-.188l.063-.219c.238.012.453.07.64.172.125.074.188.215.188.422 0 .406-.063.856-.188 1.344.47.262.836.496 1.11.703.164.137.25.281.25.438 0 .18-.086.265-.25.265-.063 0-.172-.07-.328-.219a7.914 7.914 0 00-.938-.718C5.625-.805 4.848-.094 3.703.28L3.61.062c1.008-.437 1.688-1.148 2.032-2.14a5.915 5.915 0 00-2.22-.844zm-.438-.031c-.46 0-.84.094-1.14.281-.469.313-.703.711-.703 1.188 0 .293.117.437.359.437.32 0 .816-.633 1.484-1.906zm0 0"/></symbol><symbol overflow="visible" id="U"><path d="M4.172-6.828c.3-.863.453-1.484.453-1.86 0-.238-.195-.445-.578-.624l.14-.297c.915.168 1.375.406 1.375.718 0 .118-.039.23-.109.344-.086.117-.183.34-.297.672-.136.387-.246.695-.328.922.52-.102.91-.25 1.172-.438.195-.101.36-.156.484-.156.22 0 .38.047.485.14.062.055.093.15.093.282 0 .137-.195.262-.578.375-.367.117-.984.258-1.859.422a158.991 158.991 0 01-2.14 5.64c-.15.375-.29.563-.422.563A.342.342 0 011.78-.25a.558.558 0 01-.14-.39c0-.126.101-.38.312-.766.676-1.395 1.348-3 2.016-4.813-.492.074-.934.11-1.328.11a1.47 1.47 0 01-.813-.25 1.64 1.64 0 01-.594-.657l.266-.218c.313.375.695.562 1.156.562.489 0 .992-.05 1.516-.156zm3.047 2.75c.312-.3.664-.629 1.062-.984-.648.011-1.383.125-2.203.343l-.094-.343c1.032-.426 1.993-.641 2.891-.641.79 0 1.188.148 1.188.437 0 .18-.149.266-.438.266-.398 0-.688.055-.875.156-.281.18-.715.516-1.297 1.016zm-1.5 1.89c.176.512.472.883.89 1.11.383.21.907.312 1.563.312.457 0 .894-.035 1.312-.109.352-.063.536-.094.547-.094.207 0 .352.031.438.094a.534.534 0 01.172.406c0 .149-.141.25-.422.313-.281.054-.766.078-1.453.078-1.188 0-2.04-.188-2.547-.563-.407-.289-.68-.757-.813-1.406zm0 0"/></symbol><symbol overflow="visible" id="V"><path d="M8.563-8.86c.507.18.914.403 1.218.672.25.243.375.477.375.704 0 .28-.12.421-.36.421-.167 0-.296-.125-.39-.375-.187-.445-.531-.835-1.031-1.171zm1.093-.828c.508.157.922.376 1.235.657.27.242.406.469.406.687 0 .281-.117.422-.344.422-.156 0-.297-.133-.422-.406-.18-.383-.527-.758-1.047-1.125zM4.172-6.703c.3-.863.453-1.488.453-1.875 0-.227-.195-.43-.578-.61l.14-.296c.915.168 1.375.406 1.375.718 0 .106-.039.22-.109.344-.086.117-.183.34-.297.672-.136.387-.246.695-.328.922.52-.102.91-.25 1.172-.438.195-.113.36-.171.484-.171.22 0 .38.054.485.156.062.054.093.14.093.265 0 .137-.195.266-.578.391-.367.117-.984.258-1.859.422a204.476 204.476 0 01-2.14 5.625c-.15.387-.29.578-.422.578a.334.334 0 01-.282-.14.526.526 0 01-.14-.391c0-.114.101-.364.312-.75.676-1.395 1.348-3 2.016-4.813-.492.074-.934.11-1.328.11a1.47 1.47 0 01-.813-.25 1.611 1.611 0 01-.594-.672l.266-.219c.313.387.695.578 1.156.578.477 0 .985-.05 1.516-.156zm3.047 2.75c.312-.3.664-.633 1.062-1-.648.023-1.383.14-2.203.36l-.094-.345c1.032-.425 1.993-.64 2.891-.64.79 0 1.188.148 1.188.437 0 .18-.149.266-.438.266-.398 0-.688.055-.875.156-.273.18-.703.516-1.297 1.016zm-1.5 1.89c.176.512.472.876.89 1.094.383.211.907.313 1.563.313.457 0 .894-.031 1.312-.094.352-.063.536-.094.547-.094.207 0 .352.031.438.094a.534.534 0 01.172.406c0 .149-.141.246-.422.297-.281.063-.766.094-1.453.094-1.188 0-2.04-.188-2.547-.563-.407-.3-.68-.773-.813-1.421zm0 0"/></symbol><symbol overflow="visible" id="W"><path d="M10.266-3.984c-.375 1.23-.883 2.168-1.516 2.812C7.883-.305 6.852.125 5.656.125c-.93 0-1.59-.238-1.984-.719-.367-.445-.547-1.148-.547-2.11 0-1.175.04-2.483.125-3.921a20.6 20.6 0 00.047-1.297c0-.344-.04-.586-.11-.734-.085-.156-.246-.285-.484-.39l.11-.282c.406.043.765.183 1.078.422.25.199.375.375.375.531 0 .055-.028.21-.079.469a9.445 9.445 0 00-.125.765C3.864-5.453 3.767-4 3.767-2.78c0 .93.156 1.539.468 1.828.27.262.758.39 1.47.39.913 0 1.753-.335 2.515-1.015.707-.625 1.273-1.477 1.703-2.563zm0 0"/></symbol><symbol overflow="visible" id="Y"><path d="M1.984-2.047c.282 0 .54.074.782.219.488.293.734.719.734 1.281 0 .387-.14.727-.422 1.031A1.457 1.457 0 012 .954c-.242 0-.46-.056-.656-.157C.78.516.5.067.5-.547c0-.539.234-.96.703-1.265.25-.157.508-.235.781-.235zM2-1.625c-.305 0-.57.117-.797.344-.187.199-.281.445-.281.734 0 .2.05.39.156.578.219.332.524.5.922.5.258 0 .488-.09.688-.265.257-.22.39-.489.39-.813 0-.363-.156-.656-.469-.875A1.037 1.037 0 002-1.625zm0 0"/></symbol><symbol overflow="visible" id="Z"><path d="M5.719-7.172c-.024-.988-.055-1.531-.094-1.625-.094-.176-.297-.285-.61-.328l.048-.344c.468 0 .843.07 1.125.203.226.106.343.22.343.344 0 .055-.031.262-.093.625-.043.211-.063.559-.063 1.047.625-.082 1.082-.16 1.375-.234.281-.063.484-.125.61-.188.144-.07.343-.11.593-.11.406 0 .61.106.61.313 0 .168-.11.29-.329.36-.355.117-1.312.25-2.875.406 0 .687.004 1.258.016 1.703.895-.125 1.516-.254 1.86-.39.156-.063.328-.094.515-.094.383 0 .578.105.578.312 0 .18-.086.293-.25.344-.437.117-1.328.246-2.672.39 0 .125.008.485.032 1.079.007.43.019.78.03 1.062.907.219 1.88.64 2.923 1.266.3.187.453.383.453.578 0 .305-.11.453-.328.453-.106 0-.23-.055-.375-.172C8.223-.89 7.348-1.379 6.516-1.64v.297c0 .637-.164 1.074-.485 1.313-.293.226-.781.344-1.468.344-.637 0-1.168-.149-1.594-.438-.387-.25-.578-.55-.578-.906 0-.489.234-.86.703-1.11.383-.187.875-.28 1.469-.28.363 0 .796.015 1.296.046 0-.219-.023-.879-.062-1.984a20.4 20.4 0 01-1.531.093c-.688 0-1.243-.257-1.657-.78l.235-.235c.226.218.484.355.765.406.164.043.43.063.797.063.188 0 .645-.032 1.375-.094l-.047-1.719c-.793.063-1.367.094-1.718.094-.825 0-1.438-.254-1.844-.766l.234-.25c.438.324 1.04.484 1.813.484.406 0 .906-.035 1.5-.109zm.156 5.422a7.116 7.116 0 00-1.563-.188c-.437 0-.796.09-1.078.266-.25.156-.375.356-.375.594 0 .242.16.437.485.594.281.136.625.203 1.031.203.57 0 .984-.102 1.234-.313.176-.176.266-.562.266-1.156zm0 0"/></symbol><symbol overflow="visible" id="ab"><path d="M5.64-7.969c.27.399.407.742.407 1.032 0 .46-.11 1.074-.328 1.843-.23.782-.528 1.512-.89 2.188-.337.668-.657 1.14-.97 1.422-.304.28-.636.421-1 .421-.25 0-.53-.164-.843-.5-.22-.207-.399-.539-.532-1a4.803 4.803 0 01-.187-1.359c0-.613.14-1.21.422-1.797.25-.52.593-.984 1.031-1.39.957-.875 2.133-1.313 3.531-1.313 1.082 0 2.004.262 2.766.781 1.094.774 1.64 1.836 1.64 3.188 0 1.312-.476 2.32-1.421 3.016-.868.656-2.016 1.074-3.454 1.25l-.078-.344c1.352-.25 2.395-.766 3.125-1.547.657-.688.985-1.5.985-2.438 0-1.082-.383-1.96-1.14-2.64-.618-.57-1.43-.86-2.438-.86-.22 0-.43.016-.625.047zm-.374.078c-.793.211-1.45.54-1.97.985-.437.367-.788.836-1.046 1.406a3.763 3.763 0 00-.344 1.563c0 .648.145 1.195.438 1.64.187.274.375.406.562.406.176 0 .375-.109.594-.328.438-.476.848-1.195 1.234-2.156.477-1.195.72-2.086.72-2.672 0-.375-.063-.656-.188-.844zm0 0"/></symbol><symbol overflow="visible" id="ac"><path d="M4.922-4.86c-.336-.726-.59-1.757-.766-3.093-.054-.383-.117-.613-.187-.688-.125-.101-.34-.16-.64-.171v-.376a6.98 6.98 0 01.733-.03c.602 0 .907.187.907.562l-.063.828c0 .918.176 1.808.532 2.672l2.437-1.39c.188-.095.281-.177.281-.25 0-.114-.14-.274-.422-.485l.25-.25c.79.406 1.188.781 1.188 1.125 0 .117-.078.218-.235.312-.062.032-.246.11-.546.235-1.899.78-3.274 1.492-4.125 2.125-.793.593-1.188 1.168-1.188 1.718 0 .43.235.735.703.922.457.18 1.18.266 2.172.266a12.7 12.7 0 002.484-.25c.063-.008.172-.035.329-.078a.915.915 0 01.187-.032c.219 0 .39.043.516.125a.441.441 0 01.203.375c0 .211-.168.34-.5.391-.875.117-1.805.172-2.781.172-1.493 0-2.528-.172-3.11-.516-.48-.289-.719-.742-.719-1.359 0-.969.786-1.922 2.36-2.86zm0 0"/></symbol><symbol overflow="visible" id="ad"><path d="M3.219-1.86c0 .45.312.798.937 1.048.52.21 1.188.312 2 .312.446 0 .93-.047 1.453-.14a2.37 2.37 0 01.313-.032c.207 0 .348.027.422.078a.435.435 0 01.203.39c0 .18-.184.302-.547.376-.313.05-.84.078-1.578.078C5.14.25 4.164.031 3.5-.406c-.555-.344-.828-.79-.828-1.344 0-.613.348-1.063 1.047-1.344.476-.195 1.062-.297 1.75-.297.945 0 1.789.075 2.531.22a16.276 16.276 0 01-.578-.97c-.262-.457-.43-.757-.5-.906-1.012.262-1.824.39-2.438.39-.968 0-1.734-.32-2.296-.968l.234-.25c.488.469 1.144.703 1.969.703.656 0 1.41-.125 2.265-.375a50.67 50.67 0 01-.718-1.469c-.7.157-1.305.235-1.813.235-.688 0-1.227-.192-1.61-.578l.204-.266c.394.242.812.36 1.25.36.52 0 1.101-.079 1.75-.235l-.453-.984c-.2-.457-.493-.688-.875-.688-.032 0-.118.012-.25.031L4.094-9.5c.445-.07.8-.11 1.062-.11.301 0 .5.153.594.454.156.554.316 1.043.484 1.469.79-.313 1.297-.547 1.516-.704a.812.812 0 01.516-.171c.312 0 .468.09.468.265 0 .137-.226.297-.671.485-.282.125-.82.328-1.61.609.258.594.5 1.094.719 1.5.976-.352 1.601-.656 1.875-.906a.747.747 0 01.469-.172c.382 0 .578.09.578.265 0 .325-.887.762-2.656 1.313.226.406.566.945 1.015 1.61.219.323.328.585.328.78 0 .407-.09.61-.265.61-.094 0-.22-.055-.375-.172-.25-.176-.688-.32-1.313-.438a8.836 8.836 0 00-1.562-.14c-.637 0-1.153.121-1.547.36-.336.198-.5.445-.5.734zm0 0"/></symbol></defs><use xlink:href="#a" x="-.399" y="19.662"/><use xlink:href="#b" x="7.826" y="19.662"/><use xlink:href="#c" x="13.206" y="19.662"/><use xlink:href="#d" x="17.988" y="19.662"/><use xlink:href="#e" x="21.575" y="19.662"/><use xlink:href="#f" x="26.954" y="19.662"/><use xlink:href="#g" x="31.892" y="19.662"/><use xlink:href="#h" x="36.543" y="19.662"/><use xlink:href="#i" x="42.951" y="19.662"/><use xlink:href="#j" x="48.259" y="19.662"/><use xlink:href="#k" x="52.574" y="19.662"/><use xlink:href="#l" x="60.549" y="19.662"/><use xlink:href="#m" x="79.269" y="5.83"/><use xlink:href="#n" x="73.177" y="19.662"/><use xlink:href="#o" x="74.482" y="32.595"/><use xlink:href="#p" x="77.863" y="32.595"/><use xlink:href="#q" x="84.374" y="32.595"/><use xlink:href="#r" x="113.904" y="19.662"/><use xlink:href="#h" x="122.703" y="11.568"/><use xlink:href="#s" x="123.845" y="27.864"/><use xlink:href="#t" x="129.111" y="19.662"/><use xlink:href="#u" x="113.976" y="30.971"/><use xlink:href="#v" x="92.433" y="44.592"/><use xlink:href="#w" x="100.802" y="44.592"/><use xlink:href="#x" x="109.17" y="44.592"/><use xlink:href="#y" x="117.539" y="44.592"/><use xlink:href="#z" x="125.907" y="44.592"/><use xlink:href="#A" x="134.276" y="44.592"/><use xlink:href="#B" x="142.645" y="44.592"/><use xlink:href="#w" x="151.013" y="44.592"/><use xlink:href="#C" x="159.382" y="19.662"/><use xlink:href="#g" x="165.3" y="19.662"/><use xlink:href="#D" x="169.95" y="19.662"/><use xlink:href="#E" x="178.582" y="19.662"/><use xlink:href="#j" x="190.537" y="19.662"/><use xlink:href="#k" x="194.853" y="19.662"/><use xlink:href="#m" x="199.513" y="16.207"/><use xlink:href="#F" x="204.593" y="16.207"/><use xlink:href="#o" x="211.104" y="16.207"/><use xlink:href="#C" x="217.64" y="19.662"/><use xlink:href="#j" x="223.618" y="19.662"/><use xlink:href="#o" x="227.936" y="16.207"/><use xlink:href="#G" x="165.304" y="22.627"/><use xlink:href="#H" x="176.004" y="22.627"/><use xlink:href="#I" x="186.596" y="22.627"/><use xlink:href="#H" x="209.263" y="22.627"/><use xlink:href="#J" x="219.856" y="22.627"/><use xlink:href="#K" x="169.269" y="36.594"/><use xlink:href="#w" x="177.638" y="36.594"/><use xlink:href="#L" x="186.006" y="36.594"/><use xlink:href="#z" x="194.375" y="36.594"/><use xlink:href="#A" x="202.743" y="36.594"/><use xlink:href="#B" x="211.112" y="36.594"/><use xlink:href="#w" x="219.481" y="36.594"/><use xlink:href="#C" x="234.413" y="19.662"/><use xlink:href="#r" x="242.327" y="19.662"/><use xlink:href="#g" x="252.322" y="11.568"/><use xlink:href="#h" x="256.973" y="11.568"/><use xlink:href="#E" x="266.035" y="11.568"/><use xlink:href="#s" x="277.99" y="11.568"/><use xlink:href="#k" x="282.114" y="11.568"/><use xlink:href="#C" x="289.419" y="11.568"/><use xlink:href="#M" x="295.409" y="11.568"/><use xlink:href="#o" x="303.968" y="14.521"/><use xlink:href="#N" x="310.504" y="11.568"/><use xlink:href="#s" x="322.459" y="11.568"/><use xlink:href="#C" x="329.238" y="11.568"/><use xlink:href="#M" x="335.215" y="11.568"/><use xlink:href="#o" x="343.784" y="14.521"/><use xlink:href="#F" x="347.165" y="14.521"/><use xlink:href="#O" x="353.676" y="14.521"/><path d="M252.32 16.672h106.618" fill="none" stroke-width=".478" stroke="#000" stroke-miterlimit="10"/><g><use xlink:href="#h" x="302.425" y="27.864"/></g><g><use xlink:href="#t" x="360.132" y="19.662"/></g><g><use xlink:href="#G" x="240.335" y="30.971"/></g><g><use xlink:href="#H" x="251.346" y="30.971"/></g><g><use xlink:href="#H" x="261.484" y="30.971"/></g><g><use xlink:href="#H" x="271.622" y="30.971"/></g><g><use xlink:href="#H" x="281.76" y="30.971"/></g><g><use xlink:href="#I" x="292.675" y="30.971"/></g><g><use xlink:href="#H" x="315.641" y="30.971"/></g><g><use xlink:href="#H" x="325.779" y="30.971"/></g><g><use xlink:href="#H" x="335.917" y="30.971"/></g><g><use xlink:href="#H" x="346.067" y="30.971"/></g><g><use xlink:href="#J" x="356.97" y="30.971"/></g><g><use xlink:href="#P" x="283.711" y="44.93"/><use xlink:href="#Q" x="292.08" y="44.93"/><use xlink:href="#R" x="300.448" y="44.93"/><use xlink:href="#S" x="308.817" y="44.93"/><use xlink:href="#T" x="317.185" y="44.93"/></g><g><use xlink:href="#U" x="392.841" y="19.662"/><use xlink:href="#V" x="404.796" y="19.662"/><use xlink:href="#W" x="416.751" y="19.662"/></g><g><use xlink:href="#h" x="431.305" y="19.662"/></g><g><use xlink:href="#l" x="441.025" y="19.662"/></g><g><use xlink:href="#X" x="453.649" y="19.662"/><use xlink:href="#N" x="460.822" y="19.662"/><use xlink:href="#D" x="470.124" y="19.662"/></g><g><use xlink:href="#Y" x="476.108" y="19.662"/><use xlink:href="#Z" x="488.063" y="19.662"/><use xlink:href="#U" x="500.018" y="19.662"/></g><g><use xlink:href="#s" x="514.572" y="19.662"/></g><g><use xlink:href="#l" x="522.008" y="19.662"/></g><g><use xlink:href="#aa" x="534.633" y="19.662"/></g><g><use xlink:href="#ab" x="543.216" y="19.662"/><use xlink:href="#ac" x="555.171" y="19.662"/><use xlink:href="#ad" x="567.126" y="19.662"/></g><g><use xlink:href="#M" x="581.679" y="19.662"/></g><g><use xlink:href="#o" x="590.239" y="22.615"/><use xlink:href="#F" x="593.62" y="22.615"/><use xlink:href="#O" x="600.131" y="22.615"/></g><g><use xlink:href="#l" x="608.712" y="19.662"/></g><g><use xlink:href="#aa" x="621.325" y="19.662"/></g></svg>