<svg xmlns:xlink="http://www.w3.org/1999/xlink" width="22.5ex" height="11ex" style="vertical-align: -5ex; margin-left: 0ex; margin-right: 0ex; margin-bottom: 1px; margin-top: 1px;" viewBox="0 -2607.8 9719.5 4715.7" xmlns="http://www.w3.org/2000/svg">
<defs>
<path stroke-width="10" id="E1-LATINMODERNNORMAL-1D447" d="M704 666c0 -3 -1 -13 -2 -17l-27 -174c-2 -15 -4 -23 -15 -23c-9 0 -12 7 -12 13c0 3 2 15 3 19c4 26 8 65 8 80c0 78 -45 82 -146 82c-21 0 -54 0 -63 -2c-12 -3 -16 -9 -23 -37l-133 -531c-4 -15 -4 -21 -4 -21c0 -16 8 -19 37 -22c26 -2 39 -2 64 -2c26 0 34 0 34 -11 c0 -20 -12 -20 -22 -20c-28 0 -58 2 -87 2l-83 1l-85 -1c-27 0 -55 -2 -82 -2c-6 0 -17 0 -17 12c0 19 6 19 42 19c107 0 110 11 119 48l134 534c1 3 4 15 4 21c0 8 0 12 -28 12h-39c-148 0 -174 -18 -228 -173c-6 -16 -7 -21 -17 -21c-7 0 -12 5 -12 11c0 0 5 16 6 18 l60 176c7 19 8 20 32 20h555c17 0 27 0 27 -11Z"></path>
<path stroke-width="10" id="E1-LATINMODERNMAIN-34" d="M471 165h-100v-87c0 -36 2 -47 76 -47h21v-31c-41 3 -94 3 -136 3s-94 0 -135 -3v31h21c74 0 76 11 76 47v87h-266v31l307 469c8 12 11 12 20 12c16 0 16 -6 16 -26v-455h100v-31zM300 196v373l-244 -373h244Z"></path>
<path stroke-width="10" id="E1-LATINMODERNMAIN-3D" d="M722 347c0 -11 -9 -20 -20 -20h-626c-11 0 -20 9 -20 20s9 20 20 20h626c11 0 20 -9 20 -20zM722 153c0 -11 -9 -20 -20 -20h-626c-11 0 -20 9 -20 20s9 20 20 20h626c11 0 20 -9 20 -20Z"></path>
<path stroke-width="10" id="E1-LATINMODERNMAIN-5B" d="M256 -230c0 -11 -9 -20 -20 -20h-122v1000h122c11 0 20 -9 20 -20s-9 -20 -20 -20h-82v-920h82c11 0 20 -9 20 -20Z"></path>
<path stroke-width="10" id="E1-LATINMODERNMAIN-31" d="M419 0c-35 3 -122 3 -162 3s-127 0 -162 -3v31h32c90 0 93 12 93 48v518c-52 -26 -111 -26 -131 -26v31c32 0 120 0 182 64c23 0 23 -2 23 -26v-561c0 -37 3 -48 93 -48h32v-31Z"></path>
<path stroke-width="10" id="E1-LATINMODERNMAIN-30" d="M460 320c0 -79 -5 -157 -37 -226c-44 -95 -120 -116 -174 -116c-49 0 -122 20 -165 101c-41 76 -45 166 -45 241c0 80 5 158 37 227c41 93 114 119 174 119c42 0 124 -16 170 -112c35 -74 40 -154 40 -234zM377 332c0 63 0 139 -10 195c-19 99 -85 117 -118 117 c-25 0 -100 -9 -119 -128c-8 -54 -8 -120 -8 -184c0 -59 0 -151 11 -211c18 -96 77 -121 116 -121c45 0 102 30 117 125c11 64 11 132 11 207Z"></path>
<path stroke-width="10" id="E1-LATINMODERNMAIN-2212" d="M722 250c0 -11 -9 -20 -20 -20h-626c-11 0 -20 9 -20 20s9 20 20 20h626c11 0 20 -9 20 -20Z"></path>
<path stroke-width="10" id="E1-LATINMODERNNORMAL-1D44A" d="M1048 672c0 -19 -10 -19 -19 -20c-63 -5 -87 -41 -112 -85l-328 -570c-5 -9 -11 -19 -24 -19c-12 0 -14 5 -16 26l-37 505l-294 -510c-9 -15 -12 -21 -24 -21c-14 0 -15 8 -16 26l-45 611c-2 28 -3 37 -53 37c-16 0 -25 0 -25 12c0 19 13 19 18 19c34 0 70 -3 105 -3 c41 0 83 3 123 3c0 0 14 0 14 -11c0 -20 -11 -20 -21 -20c-76 -1 -76 -24 -76 -36l38 -507l253 441l-6 77c-2 19 -9 25 -53 25c-14 0 -24 0 -24 11c0 20 13 20 19 20c23 0 82 -3 105 -3c40 0 82 3 122 3c4 0 15 -1 15 -11c0 -20 -10 -20 -27 -20c-73 -1 -71 -27 -70 -47 l37 -496l270 471c8 14 13 22 13 33c0 30 -35 38 -59 39c-6 0 -15 1 -15 12c0 19 13 19 19 19c33 0 70 -3 104 -3c25 0 53 3 77 3c8 0 12 -7 12 -11Z"></path>
<path stroke-width="10" id="E1-LATINMODERNMAIN-33" d="M457 171c0 -102 -91 -193 -213 -193c-109 0 -202 66 -202 157c0 44 32 58 56 58c29 0 56 -20 56 -56c0 -38 -31 -60 -66 -55c35 -59 110 -76 153 -76c44 0 113 29 113 165c0 98 -37 166 -119 166h-44c-17 0 -24 0 -24 11c0 10 7 11 15 12c7 0 31 2 39 3c25 1 59 4 89 52 c26 44 28 102 28 114c0 90 -55 112 -96 112c-36 0 -102 -13 -133 -62c15 0 62 0 62 -50c0 -29 -20 -51 -51 -51c-29 0 -51 19 -51 52c0 76 76 136 177 136c96 0 184 -56 184 -138c0 -79 -58 -149 -140 -176c104 -21 167 -99 167 -181Z"></path>
<path stroke-width="10" id="E1-LATINMODERNNORMAL-1D466" d="M490 404c0 -7 0 -9 -4 -23l-96 -382c-28 -113 -131 -204 -234 -204c-62 0 -106 37 -106 87c0 49 33 65 56 65c10 0 37 -4 37 -35c0 -19 -10 -32 -20 -41c-14 -12 -27 -12 -43 -12c17 -39 62 -42 76 -42c46 0 84 29 110 63c40 53 52 102 65 154c-28 -28 -62 -45 -101 -45 c-59 0 -122 30 -122 119c0 47 18 104 58 210c7 19 17 45 17 70c0 32 -17 32 -25 32c-34 0 -74 -30 -101 -124c-5 -16 -6 -18 -16 -18c0 0 -12 0 -12 10c0 9 37 154 132 154c50 0 82 -37 82 -82c0 -20 -4 -31 -20 -72c-34 -88 -51 -150 -51 -196c0 -37 11 -81 62 -81 c66 0 109 70 113 85l45 180l20 80c4 18 12 49 14 54c9 15 25 21 35 21c15 0 29 -9 29 -27Z"></path>
<path stroke-width="10" id="E1-LATINMODERNNORMAL-1D465" d="M527 376c0 -40 -32 -58 -54 -58c-27 0 -38 19 -38 35c0 24 20 49 48 54c-21 13 -45 13 -50 13c-70 0 -93 -92 -99 -118l-34 -137c-11 -44 -17 -66 -17 -88c0 -34 16 -66 55 -66c32 0 100 24 133 131c2 7 4 11 13 11c3 0 12 0 12 -10c0 -25 -57 -154 -160 -154 c-60 0 -96 39 -108 76c-3 -6 -39 -76 -105 -76c-44 0 -94 20 -94 66c0 32 25 58 55 58c15 0 37 -8 37 -35c0 -28 -22 -49 -47 -54c21 -13 44 -13 50 -13c44 0 79 42 95 104c37 140 54 207 54 238c0 58 -35 67 -54 67c-34 0 -100 -25 -134 -131c-2 -9 -5 -11 -13 -11 c0 0 -12 0 -12 10c0 25 57 154 161 154c29 0 83 -10 108 -76c12 23 47 76 105 76c34 0 93 -14 93 -66Z"></path>
<path stroke-width="10" id="E1-LATINMODERNMAIN-5D" d="M164 -250h-122c-11 0 -20 9 -20 20s9 20 20 20h82v920h-82c-11 0 -20 9 -20 20s9 20 20 20h122v-1000Z"></path>
<path stroke-width="10" id="E1-LATINMODERNSYMBOLS-23A1" d="M647 1470c0 -17 -13 -30 -30 -30h-236v-1440h-60v1500h296c17 0 30 -13 30 -30Z"></path>
<path stroke-width="10" id="E1-LATINMODERNSYMBOLS-23A3" d="M647 30c0 -17 -13 -30 -30 -30h-296v1500h60v-1440h236c17 0 30 -13 30 -30Z"></path>
<path stroke-width="10" id="E1-LATINMODERNSYMBOLS-23A2" d="M381 0h-60v1000h60v-1000Z"></path>
<path stroke-width="10" id="E1-LATINMODERNSYMBOLS-23A4" d="M346 0h-60v1440h-236c-17 0 -30 13 -30 30s13 30 30 30h296v-1500Z"></path>
<path stroke-width="10" id="E1-LATINMODERNSYMBOLS-23A6" d="M346 0h-296c-17 0 -30 13 -30 30s13 30 30 30h236v1440h60v-1500Z"></path>
<path stroke-width="10" id="E1-LATINMODERNSYMBOLS-23A5" d="M346 1000v-1000h-60v1000h60Z"></path>
</defs>
<g stroke="currentColor" fill="currentColor" stroke-width="0" transform="matrix(1 0 0 -1 0 0)">
 <use xlink:href="#E1-LATINMODERNNORMAL-1D447" x="0" y="0"></use>
 <use transform="scale(0.707)" xlink:href="#E1-LATINMODERNMAIN-34" x="832" y="-213"></use>
 <use xlink:href="#E1-LATINMODERNMAIN-3D" x="1323" y="0"></use>
<g transform="translate(2384,0)">
<g transform="translate(0,2593)">
 <use xlink:href="#E1-LATINMODERNSYMBOLS-23A1" x="0" y="-1510"></use>
<g transform="translate(0,-3200.668813034843) scale(1,1.71353347825232)">
 <use xlink:href="#E1-LATINMODERNSYMBOLS-23A2"></use>
</g>
 <use xlink:href="#E1-LATINMODERNSYMBOLS-23A3" x="0" y="-4678"></use>
</g>
<g transform="translate(839,0)">
<g transform="translate(-11,0)">
 <use xlink:href="#E1-LATINMODERNMAIN-31" x="1076" y="1793"></use>
<g transform="translate(0,-56)">
<g transform="translate(120,0)">
<rect stroke="none" width="2417" height="60" x="0" y="220"></rect>
<g transform="translate(60,759)">
 <use transform="scale(0.707)" xlink:href="#E1-LATINMODERNMAIN-31" x="0" y="0"></use>
 <use transform="scale(0.707)" xlink:href="#E1-LATINMODERNMAIN-2212" x="505" y="0"></use>
<g transform="translate(910,0)">
 <use transform="scale(0.707)" xlink:href="#E1-LATINMODERNNORMAL-1D44A" x="0" y="0"></use>
 <use transform="scale(0.574)" xlink:href="#E1-LATINMODERNMAIN-33" x="1168" y="-252"></use>
 <use transform="scale(0.574)" xlink:href="#E1-LATINMODERNNORMAL-1D466" x="1797" y="-334"></use>
</g>
</g>
<g transform="translate(491,-435)">
 <use transform="scale(0.707)" xlink:href="#E1-LATINMODERNNORMAL-1D44A" x="0" y="0"></use>
 <use transform="scale(0.574)" xlink:href="#E1-LATINMODERNMAIN-33" x="1168" y="-252"></use>
 <use transform="scale(0.574)" xlink:href="#E1-LATINMODERNNORMAL-1D465" x="1797" y="-334"></use>
</g>
</g>
</g>
 <use xlink:href="#E1-LATINMODERNMAIN-30" x="1076" y="-1894"></use>
</g>
<g transform="translate(3646,0)">
 <use xlink:href="#E1-LATINMODERNMAIN-30" x="0" y="1793"></use>
 <use xlink:href="#E1-LATINMODERNMAIN-31" x="0" y="-56"></use>
 <use xlink:href="#E1-LATINMODERNMAIN-30" x="0" y="-1894"></use>
</g>
<g transform="translate(5151,0)">
 <use xlink:href="#E1-LATINMODERNMAIN-30" x="0" y="1793"></use>
 <use xlink:href="#E1-LATINMODERNMAIN-30" x="0" y="-56"></use>
 <use xlink:href="#E1-LATINMODERNMAIN-31" x="0" y="-1894"></use>
</g>
</g>
<g transform="translate(6662,2593)">
 <use xlink:href="#E1-LATINMODERNSYMBOLS-23A4" x="0" y="-1510"></use>
<g transform="translate(0,-3200.668813034843) scale(1,1.71353347825232)">
 <use xlink:href="#E1-LATINMODERNSYMBOLS-23A5"></use>
</g>
 <use xlink:href="#E1-LATINMODERNSYMBOLS-23A6" x="0" y="-4678"></use>
</g>
</g>
</g>
</svg>