<svg xmlns:xlink="http://www.w3.org/1999/xlink" width="27.667ex" height="5.833ex" style="vertical-align:-2.167ex;margin-bottom:1px;margin-top:1px" viewBox="0 -1609.7 11881 2544.9" xmlns="http://www.w3.org/2000/svg"><defs><path stroke-width="10" id="a" d="M159-230c0-11-9-20-20-20s-20 9-20 20v960c0 11 9 20 20 20s20-9 20-20v-960z"/><path stroke-width="10" id="b" d="M552 636c0-38-29-60-55-60-19 0-37 12-37 35 0 15 10 50 54 54-19 18-45 18-49 18-21 0-38-15-47-34-6-12-20-83-24-104-11-58-10-56-21-114h83c17 0 27 0 27-11 0-20-10-20-30-20h-86L307 83c-1-7-24-128-56-191-18-38-58-97-113-97-41 0-85 24-85 69 0 38 29 60 55 60 19 0 37-12 37-35 0-15-9-51-55-54 19-18 44-18 48-18 52 0 69 91 87 188l75 395h-66c-19 0-28 0-28 12 0 19 11 19 30 19h69c24 126 27 136 33 157 30 99 93 117 127 117 41 0 87-23 87-69z"/><path stroke-width="10" id="c" d="M332-238c0-5-5-10-10-10-2 0-4 1-6 2-110 83-215 283-215 454v84c0 171 105 371 215 454 2 1 4 2 6 2 5 0 10-5 10-10 0-3-2-6-4-8-104-78-173-278-173-438v-84c0-160 69-360 173-438 2-2 4-5 4-8z"/><path stroke-width="10" id="d" d="M527 376c0-40-32-58-54-58-27 0-38 19-38 35 0 24 20 49 48 54-21 13-45 13-50 13-70 0-93-92-99-118l-34-137c-11-44-17-66-17-88 0-34 16-66 55-66 32 0 100 24 133 131 2 7 4 11 13 11 3 0 12 0 12-10 0-25-57-154-160-154-60 0-96 39-108 76-3-6-39-76-105-76-44 0-94 20-94 66 0 32 25 58 55 58 15 0 37-8 37-35 0-28-22-49-47-54 21-13 44-13 50-13 44 0 79 42 95 104 37 140 54 207 54 238 0 58-35 67-54 67-34 0-100-25-134-131-2-9-5-11-13-11 0 0-12 0-12 10 0 25 57 154 161 154 29 0 83-10 108-76 12 23 47 76 105 76 34 0 93-14 93-66z"/><path stroke-width="10" id="e" d="M203 1c0-117-80-194-91-194-5 0-10 4-10 11 0 3 0 5 11 16 33 33 68 93 68 167 0 14-2 15-2 15s-2-1-5-3c-10-9-23-13-35-13-33 0-53 26-53 53 0 28 20 53 53 53 39 0 64-39 64-105z"/><path stroke-width="10" id="f" d="M490 404c0-7 0-9-4-23L390-1c-28-113-131-204-234-204-62 0-106 37-106 87 0 49 33 65 56 65 10 0 37-4 37-35 0-19-10-32-20-41-14-12-27-12-43-12 17-39 62-42 76-42 46 0 84 29 110 63 40 53 52 102 65 154-28-28-62-45-101-45-59 0-122 30-122 119 0 47 18 104 58 210 7 19 17 45 17 70 0 32-17 32-25 32-34 0-74-30-101-124-5-16-6-18-16-18 0 0-12 0-12 10 0 9 37 154 132 154 50 0 82-37 82-82 0-20-4-31-20-72-34-88-51-150-51-196 0-37 11-81 62-81 66 0 109 70 113 85l45 180 20 80c4 18 12 49 14 54 9 15 25 21 35 21 15 0 29-9 29-27z"/><path stroke-width="10" id="g" d="M288 208c0-171-105-371-215-454-2-1-4-2-6-2-5 0-10 5-10 10 0 3 2 6 4 8 104 78 173 278 173 438v84c0 160-69 360-173 438-2 2-4 5-4 8 0 5 5 10 10 10 2 0 4-1 6-2 110-83 215-283 215-454v-84z"/><path stroke-width="10" id="h" d="M722 347c0-11-9-20-20-20H76c-11 0-20 9-20 20s9 20 20 20h626c11 0 20-9 20-20zm0-194c0-11-9-20-20-20H76c-11 0-20 9-20 20s9 20 20 20h626c11 0 20-9 20-20z"/><path stroke-width="10" id="i" d="M943 1268c0-35-25-50-49-50-23 0-48 16-48 49 0 25 17 47 50 49-4 4-29 23-60 23-39 0-73-129-85-178-34-129-71-329-108-542-54-321-119-640-196-956-71-290-128-524-280-524-61 0-111 42-111 93 0 35 25 50 49 50 23 0 48-16 48-49 0-25-17-47-49-49 0 0 25-23 61-23 81 0 127 188 145 261 33 139 62 306 88 459 110 654 246 1156 249 1167 55 204 111 313 187 313 55 0 109-39 109-93z"/><path stroke-width="10" id="j" d="M415 282c0-144-123-293-241-293-74 0-127 62-127 157 0 35 4 51 16 101l82 326c5 21 14 55 14 62 0 10-2 17-50 17-15 0-24 0-24 12 0 18 11 19 19 20 26 2 99 10 122 10 13 0 13-11 13-11l-74-301c30 31 71 60 117 60 80 0 133-69 133-160zm-72 44c0 64-27 94-63 94-26 0-71-15-120-80-9-11-9-13-15-35l-22-92c-16-63-16-82-16-101 0-74 33-101 67-101 39 0 85 36 118 103 18 38 51 153 51 212z"/><path stroke-width="10" id="k" d="M498 143s-13-63-30-99c-16-32-39-55-74-55-48 0-83 33-91 75-60-71-110-75-130-75C95-11 40 55 40 149c0 146 124 293 241 293 45 0 74-27 92-64 3 22 18 44 42 44 17 0 29-10 29-27 0-4 0-6-7-34l-36-140-22-90c-11-44-13-52-13-74 0-20 3-46 30-46 41 0 59 59 76 124 3 14 4 18 14 18 3 0 12 0 12-10zM361 332c0 6-14 88-79 88-40 0-85-37-116-96-23-46-55-169-55-219 0-39 14-94 64-94 28 0 69 16 113 71 15 17 15 19 20 37l50 196c1 5 3 11 3 17z"/><path stroke-width="10" id="m" d="M251 710c0-7-2-14-6-19L87 430H60l120 297c4 11 18 21 33 21 21 0 38-17 38-38z"/><path stroke-width="10" id="n" d="M449 174L421 0H50c0 24 0 26 11 37l192 214c55 62 105 141 105 221 0 82-43 163-134 163-58 0-112-37-135-102 3 1 5 1 13 1 35 0 53-26 53-52 0-41-35-53-52-53-3 0-53 0-53 56 0 89 74 181 187 181 122 0 212-80 212-194 0-100-60-154-216-292L127 77h180c22 0 88 0 95 8 10 15 17 59 22 89h25z"/><path stroke-width="10" id="o" d="M722 250c0-11-9-20-20-20H409V-63c0-11-9-20-20-20s-20 9-20 20v293H76c-11 0-20 9-20 20s9 20 20 20h293v293c0 11 9 20 20 20s20-9 20-20V270h293c11 0 20-9 20-20z"/><path stroke-width="10" id="l" d="M1020 1130s0-5-5-20L466-626c-8-24-9-24-42-24L194 152l-68-80-16 15 139 163 215-750 513 1624c4 13 8 26 23 26 12 0 20-9 20-20z"/></defs><g stroke="currentColor" fill="currentColor" stroke-width="0" transform="scale(1 -1)"><use xlink:href="#a"/><use xlink:href="#a" x="283"/><use xlink:href="#b" x="566"/><use xlink:href="#c" x="1123"/><use xlink:href="#d" x="1517"/><use xlink:href="#e" x="2094"/><use xlink:href="#f" x="2543"/><use xlink:href="#g" x="3038"/><use xlink:href="#a" x="3432"/><use xlink:href="#a" x="3882"/><use xlink:href="#h" x="4443"/><g transform="translate(5503)"><use xlink:href="#i"/><use transform="scale(.707)" xlink:href="#j" x="1497" y="1552"/><use transform="scale(.707)" xlink:href="#k" x="818" y="-1282"/></g><g transform="translate(7136)"><use xlink:href="#l" y="16"/><path stroke="none" d="M1005 1116h3739v60H1005z"/><g transform="translate(1005)"><use xlink:href="#b"/><g transform="matrix(.707 0 0 .707 575 351)"><use xlink:href="#m"/><use xlink:href="#n" x="316"/></g><use transform="scale(.707)" xlink:href="#d" x="700" y="-220"/><use xlink:href="#o" x="1478"/><g transform="translate(2483)"><use xlink:href="#b"/><g transform="matrix(.707 0 0 .707 575 351)"><use xlink:href="#m"/><use xlink:href="#n" x="316"/></g><use transform="scale(.707)" xlink:href="#f" x="700" y="-220"/></g></g></g></g></svg>