<svg xmlns="http://www.w3.org/2000/svg" xmlns:xlink="http://www.w3.org/1999/xlink" width="121pt" height="72" viewBox="0 0 121 54"><defs><symbol overflow="visible" id="a"><path d="M4.078-1.531c0 .23.008.402.031.515a.68.68 0 0 0 .141.282.572.572 0 0 0 .266.171c.125.043.273.075.453.094.187.024.43.04.734.047V0H1.375v-.422A8.17 8.17 0 0 0 2.297-.5c.187-.04.328-.094.422-.156a.516.516 0 0 0 .219-.281c.05-.125.078-.32.078-.594v-4.75c0-.157-.032-.27-.094-.344a.282.282 0 0 0-.235-.11c-.124 0-.304.07-.53.204-.231.125-.516.304-.86.531l-.25-.453 2.734-1.64h.328a27.34 27.34 0 0 0-.03 1.562zm0 0"/></symbol><symbol overflow="visible" id="b"><path d="M5.344-7.766v.282c-.606 0-1.14.132-1.61.39-.46.262-.843.64-1.156 1.14-.305.5-.515 1.095-.64 1.782L2-4.156c.32-.227.64-.395.953-.5A3.13 3.13 0 0 1 4-4.828c.438 0 .813.101 1.125.297.313.187.547.46.703.812.156.344.234.75.234 1.219 0 .512-.101.96-.296 1.344-.2.386-.5.695-.907.922-.406.218-.906.328-1.5.328-.867 0-1.515-.266-1.953-.797-.43-.531-.64-1.313-.64-2.344 0-.695.109-1.348.328-1.953a4.842 4.842 0 0 1 .922-1.578 4.573 4.573 0 0 1 1.406-1.078 4.316 4.316 0 0 1 1.672-.438zm-1.75 3.547c-.188 0-.375.024-.563.063a2.13 2.13 0 0 0-.5.187 2.609 2.609 0 0 0-.453.313.756.756 0 0 0-.11.14 1.3 1.3 0 0 0-.077.282 5.658 5.658 0 0 0-.016.53c0 .75.125 1.325.375 1.72.25.386.629.578 1.14.578.29 0 .536-.047.735-.14.207-.102.367-.243.484-.423.125-.187.211-.398.266-.64.05-.239.078-.5.078-.782 0-.57-.121-1.02-.36-1.343-.23-.32-.562-.485-1-.485zm0 0"/></symbol><symbol overflow="visible" id="c"><path d="M1.688-4.14c.207 0 .375.07.5.202.124.126.187.297.187.516 0 .211-.063.383-.188.516a.678.678 0 0 1-.5.187c-.199 0-.359-.062-.484-.187a.722.722 0 0 1-.187-.516c0-.219.062-.39.187-.515a.636.636 0 0 1 .484-.204zm0 0"/></symbol><symbol overflow="visible" id="d"><path d="M.453 0v-14.516h3.531v.532H1.688V0zm0 0"/></symbol><symbol overflow="visible" id="e"><path d="M.453 0v-14.656h1.234V0zm0 0"/></symbol><symbol overflow="visible" id="f"><path d="M1.688-14.516V-.53h2.296V0H.454v-14.516zm0 0"/></symbol><symbol overflow="visible" id="g"><path d="M3.266.094c-.844 0-1.477-.332-1.891-1C.957-1.57.75-2.578.75-3.922c0-.719.063-1.336.188-1.86.132-.53.316-.96.546-1.296.227-.344.5-.598.813-.766.32-.164.676-.25 1.062-.25.852 0 1.489.336 1.907 1 .414.657.625 1.653.625 2.985 0 1.386-.227 2.433-.672 3.14C4.769-.258 4.117.094 3.266.094zM1.906-4.11c0 1.28.114 2.218.344 2.812.238.594.61.89 1.11.89.468 0 .816-.28 1.046-.843.227-.563.344-1.426.344-2.594 0-.906-.063-1.633-.188-2.187-.117-.563-.277-.961-.484-1.203-.21-.239-.46-.36-.75-.36-.273 0-.5.086-.687.25-.18.157-.325.387-.438.688a4.958 4.958 0 0 0-.234 1.093c-.043.43-.063.915-.063 1.454zm0 0"/></symbol><symbol overflow="visible" id="h"><path d="M.875-3.047v-.781h7.219v.781zm0 0"/></symbol><symbol overflow="visible" id="i"><path d="M1.875-2.406c.063-.281.156-.649.281-1.11.125-.468.25-.89.375-1.265L2.5-4.828H2c-.262 0-.465.023-.61.062a1.336 1.336 0 0 0-.406.22 2.23 2.23 0 0 0-.406.421l-.375-.313c.207-.257.39-.46.547-.609.164-.156.32-.27.469-.344.144-.07.3-.125.468-.156.165-.039.383-.062.657-.062h3.078l-.188.78H3.406L2.75-1.89c-.094.387-.14.672-.14.86 0 .156.023.273.078.343.05.075.132.11.25.11.124 0 .265-.05.421-.156.157-.114.332-.29.532-.532l.343.313c-.336.375-.636.648-.906.812a1.539 1.539 0 0 1-.797.235c-.281 0-.508-.09-.672-.266-.156-.187-.234-.426-.234-.719 0-.27.055-.648.172-1.14zm0 0"/></symbol><symbol overflow="visible" id="j"><path d="M2.516 0v-13.984H.219v-.532H3.75V0zm0 0"/></symbol><symbol overflow="visible" id="k"><path d="M3.75-14.656V0H2.516v-14.656zm0 0"/></symbol><symbol overflow="visible" id="l"><path d="M3.75-14.516V0H.219v-.531h2.297v-13.985zm0 0"/></symbol><symbol overflow="visible" id="m"><path d="M.875-4.25v-.781h7.219v.781zm0 2.422v-.781h7.219v.78zm7.469-1.594zm0 0"/></symbol><symbol overflow="visible" id="n"><path d="M4.438 0L4.5-.281c.238-.02.41-.11.516-.266.113-.164.171-.453.171-.86 0-.144-.007-.312-.015-.5l-.031-.75H2.562l-.328.579a4.718 4.718 0 0 0-.343.703 1.612 1.612 0 0 0-.094.5c0 .336.195.531.594.594L2.328 0H-.078l.062-.281a.803.803 0 0 0 .344-.14c.113-.083.227-.204.344-.36.125-.164.297-.438.515-.813l3.75-6.5h.891l.422 6.531c.02.313.05.56.094.735.05.168.117.293.203.375a.77.77 0 0 0 .39.172L6.875 0zM2.813-3.172h2.296l-.093-1.875a38.468 38.468 0 0 1-.032-.969 28.865 28.865 0 0 1-.015-.843h-.063zm0 0"/></symbol></defs><use xlink:href="#a" x=".297" y="21.891"/><path d="M.297 27.523h6.621" fill="none" stroke-width=".776" stroke="#000" stroke-miterlimit="10"/><use xlink:href="#b" x=".297" y="38.937"/><use xlink:href="#c" x="10.769" y="30.939"/><use xlink:href="#d" x="16.8" y="15.583"/><use xlink:href="#e" x="16.8" y="28.427"/><use xlink:href="#e" x="16.8" y="41.215"/><use xlink:href="#f" x="16.8" y="53.925"/><use xlink:href="#g" x="25.01" y="8.745"/><use xlink:href="#b" x="45.621" y="8.745"/><use xlink:href="#g" x="62.203" y="8.745"/><use xlink:href="#g" x="82.813" y="8.745"/><use xlink:href="#h" x="20.985" y="23.19"/><use xlink:href="#i" x="29.916" y="23.19"/><use xlink:href="#b" x="45.601" y="23.19"/><use xlink:href="#i" x="62.637" y="23.19"/><use xlink:href="#g" x="82.793" y="23.19"/><use xlink:href="#g" x="25.01" y="37.636"/><use xlink:href="#i" x="46.051" y="37.636"/><use xlink:href="#g" x="62.191" y="37.636"/><use xlink:href="#h" x="78.773" y="37.636"/><use xlink:href="#i" x="87.703" y="37.636"/><use xlink:href="#g" x="25.01" y="52.082"/><use xlink:href="#g" x="45.621" y="52.082"/><use xlink:href="#b" x="62.203" y="52.082"/><use xlink:href="#g" x="82.813" y="52.082"/><use xlink:href="#j" x="93.452" y="15.583"/><use xlink:href="#k" x="93.452" y="28.427"/><use xlink:href="#k" x="93.452" y="41.215"/><use xlink:href="#l" x="93.452" y="53.925"/><g><use xlink:href="#m" x="100.958" y="30.939"/></g><g><use xlink:href="#n" x="113.2" y="30.939"/></g></svg>