<svg xmlns="http://www.w3.org/2000/svg" xmlns:xlink="http://www.w3.org/1999/xlink" width="131pt" height="72" viewBox="0 0 131 54"><defs><symbol overflow="visible" id="a"><path d="M5 .031v-.36l-.625-.03c-.656-.032-.781-.172-.781-.782v-7.093l-.156-.063c-.782.406-1.626.766-2.72 1.156l.079.5h.125l1.547-.687.031-.016c.063 0 .094.11.094.407v5.796c0 .61-.125.75-.781.782l-.672.03v.36L3.125 0zm0 0"/></symbol><symbol overflow="visible" id="b"><path d="M5.594-2.625C5.594-4 4.766-4.891 3.5-4.891c-.703 0-1.14.282-1.938.938.25-2.172 1.266-3.344 3.407-3.985v-.093l-.438-.203c-1.156.375-1.64.625-2.25 1.14C1.047-6.047.375-4.594.375-2.954c0 1.97.969 3.188 2.5 3.188 1.563 0 2.719-1.218 2.719-2.859zm-1.032.422c0 1.25-.609 2.047-1.53 2.047-1.016 0-1.563-.875-1.563-2.469 0-.422.047-.656.187-.86.25-.406.813-.687 1.39-.687.907 0 1.517.797 1.517 1.969zm0 0"/></symbol><symbol overflow="visible" id="c"><path d="M2.39-2.984c0-.438-.28-.72-.718-.72-.422 0-.719.282-.719.72 0 .421.297.718.719.718.437 0 .719-.296.719-.718zm0 0"/></symbol><symbol overflow="visible" id="d"><path d="M5.078-14.516H1.703V0h.969v-14.031h2.406c-.016-.078-.031-.156-.031-.235 0-.093.016-.171.031-.25zm0 0"/></symbol><symbol overflow="visible" id="e"><path d="M2.672-9.688h-.969V0h.969zm0 0"/></symbol><symbol overflow="visible" id="f"><path d="M5.078 0c-.016-.078-.031-.156-.031-.234 0-.094.016-.172.031-.25H2.672v-14.032h-.969V0zm0 0"/></symbol><symbol overflow="visible" id="g"><path d="M5.563-4.375c0-2.625-.782-3.86-2.422-3.86-1.844 0-2.797 1.47-2.797 4.36 0 1.406.25 2.61.672 3.188.421.593 1.093.921 1.828.921 1.812 0 2.719-1.546 2.719-4.609zm-1.016.594c0 2.547-.453 3.61-1.547 3.61-1.156 0-1.656-1.22-1.656-4.126 0-2.531.453-3.516 1.578-3.516 1.172 0 1.625 1.172 1.625 4.032zm0 0"/></symbol><symbol overflow="visible" id="h"><path d="M8.125-2.625c-.016-.125-.031-.25-.031-.36 0-.124.015-.25.031-.359H.953c.031.11.031.235.031.36 0 .109 0 .234-.03.359zm0 0"/></symbol><symbol overflow="visible" id="i"><path d="M7.094-5.75l-.078-.14c-.329.109-.875.218-1.266.218-.14.016-.438.031-.734.031-.672 0-2.047-.109-2.563-.109-.906 0-1.25.39-1.64 1.438l.171.093.11-.078c.281-.719.765-.766 1.437-.766.297 0 .75.032 1.203.047-.218.688-1.03 2.954-1.062 3.735-.063 1.25.39 1.406.765 1.406.61 0 .954-.156 1.72-.781l-.079-.235-.281.204s-.328.25-.531.25c-.563 0-.72-.344-.688-1.079.016-.296.063-.625.14-.968l.657-2.485.781.016c.266 0 .563 0 .828-.047.22 0 .485-.11.688-.188.14-.25.187-.28.422-.562zm0 0"/></symbol><symbol overflow="visible" id="j"><path d="M4.516 0v-14.516H1.14a.648.648 0 0 1 0 .485h2.421V0zm0 0"/></symbol><symbol overflow="visible" id="k"><path d="M4.516 0v-9.688h-.954V0zm0 0"/></symbol><symbol overflow="visible" id="l"><path d="M4.516 0v-14.516h-.954V-.484H1.142a.648.648 0 0 1 0 .484zm0 0"/></symbol><symbol overflow="visible" id="m"><path d="M8.125-3.938c-.016-.124-.031-.25-.031-.359 0-.125.015-.25.031-.36H.953c.031.11.031.235.031.36 0 .11 0 .234-.03.36zm0 2.626c-.016-.125-.031-.235-.031-.36s.015-.234.031-.36H.953a1.4 1.4 0 0 1 .031.36c0 .125 0 .234-.03.36zm0 0"/></symbol><symbol overflow="visible" id="n"><path d="M8.094.031v-.328L7.78-.328c-.562-.063-.593-.094-.672-.625L6.08-8.422h-.563L1.062-1.344c-.421.672-.64.86-1.046.969l-.25.047v.36L1.109 0c.438 0 .86.016 1.282.031v-.328l-.625-.031c-.204-.016-.36-.125-.36-.234 0-.094.063-.25.297-.657l1.219-2.093h2.953l.313 2.39c.015.11.03.203.03.266 0 .187-.187.297-.515.328l-.531.031v.328L6.64 0zM5.813-3.734H3.233L5.36-7.188zm0 0"/></symbol></defs><use xlink:href="#a" x=".37" y="21.905"/><path d="M.371 27.523h5.977" fill="none" stroke-width=".717" stroke="#000" stroke-miterlimit="10"/><use xlink:href="#b" x=".37" y="38.476"/><use xlink:href="#c" x="10.2" y="30.513"/><use xlink:href="#d" x="16.204" y="15.637"/><use xlink:href="#e" x="16.204" y="24.338"/><use xlink:href="#e" x="16.204" y="32.366"/><use xlink:href="#e" x="16.204" y="40.394"/><use xlink:href="#f" x="16.204" y="53.925"/><use xlink:href="#g" x="27.705" y="8.745"/><use xlink:href="#b" x="49.643" y="8.745"/><use xlink:href="#g" x="67.038" y="8.745"/><use xlink:href="#g" x="88.987" y="8.745"/><use xlink:href="#h" x="22.433" y="23.19"/><use xlink:href="#i" x="31.519" y="23.19"/><use xlink:href="#b" x="49.643" y="23.19"/><use xlink:href="#i" x="66.309" y="23.19"/><use xlink:href="#g" x="88.976" y="23.19"/><use xlink:href="#g" x="27.705" y="37.636"/><use xlink:href="#i" x="48.914" y="37.636"/><use xlink:href="#g" x="67.038" y="37.636"/><use xlink:href="#h" x="83.715" y="37.636"/><use xlink:href="#i" x="92.801" y="37.636"/><use xlink:href="#g" x="27.705" y="52.082"/><use xlink:href="#g" x="49.643" y="52.082"/><use xlink:href="#b" x="67.038" y="52.082"/><use xlink:href="#g" x="88.987" y="52.082"/><use xlink:href="#j" x="100.237" y="15.637"/><use xlink:href="#k" x="100.237" y="24.338"/><use xlink:href="#k" x="100.237" y="32.366"/><use xlink:href="#k" x="100.237" y="40.394"/><use xlink:href="#l" x="100.237" y="53.925"/><g><use xlink:href="#m" x="109.787" y="30.513"/></g><g><use xlink:href="#n" x="122.185" y="30.513"/></g></svg>