<svg xmlns="http://www.w3.org/2000/svg" xmlns:xlink="http://www.w3.org/1999/xlink" width="146pt" height="31pt" viewBox="0 0 146 31"><defs><symbol overflow="visible" id="a"><path d="M6.813-8.5a14.129 14.129 0 0 0-.829-.031L3.172-8.5l-2.047-.047-.063.61.797.03c.297 0 .282-.03.282.173 0 .187-.032.53-.11.921L.984-.78c-.03.203-.046.156-.687.25l-.11.578L2.204 0l2.688.031C5.92.031 5.67.016 6.266 0l.062-.563c.063-.5.156-1 .266-1.625h-.578l-.235.844c-.11.422-.062.438-.312.5-.235.063-1.078.11-1.797.11-.5 0-.813 0-1.438-.063 0-.031 0-.156.032-.297L2.75-4h1.297c1.5 0 1.203.047 1.64.063l.282-.688-.11-.219-2.687.094H2.89l.484-2.719c.031-.187.016-.187.047-.25.594-.031.297-.031 1.484-.047.766 0 1.125-.03 1.125.157l.11 1.187h.546c.047-.89.125-1.484.297-2.062zm0 0"/></symbol><symbol overflow="visible" id="b"><path d="M4.203-7.828a.735.735 0 0 1-.187-.14c-.063-.063-.11-.126-.22-.329-1.593 1.61-2.5 3.266-2.5 4.781v.797c0 1.516.907 3.172 2.5 4.781.11-.203.157-.265.22-.328.062-.062.125-.109.312-.203C2.875.063 2.281-1.344 2.281-2.719v-.797c0-1.39.594-2.78 2.047-4.25zm0 0"/></symbol><symbol overflow="visible" id="c"><path d="M7.781-8.219c-.922-.344-1.593-.484-2.328-.484-.984 0-2.078.344-2.906.89C1.14-6.859.39-5.358.39-3.53c0 2.328 1.421 3.75 3.703 3.75C5.25.219 6.187-.094 7.28-.844l.157-.578-.266-.187c-1.234.765-1.75.921-2.672.921-1.89 0-2.781-1.015-2.781-3.14 0-1.328.375-2.406 1.11-3.156.546-.563 1.218-.829 2.171-.829.86 0 1.36.141 2 .547v1.063h.578c.078-.813.172-1.328.36-1.953zm0 0"/></symbol><symbol overflow="visible" id="d"><path d="M3.766-2.719v-.797c0-1.515-.907-3.171-2.516-4.78-.11.202-.156.265-.203.327-.063.063-.125.11-.313.203 1.438 1.47 2.032 2.86 2.032 4.25v.797c0 1.375-.594 2.781-2.032 4.25.188.094.25.14.313.203.047.063.094.125.203.329C2.86.452 3.766-1.204 3.766-2.72zm0 0"/></symbol><symbol overflow="visible" id="e"><path d="M8.266-4.078a1.419 1.419 0 0 1-.047-.36c0-.109.015-.234.062-.484h-7.5c.063.25.063.375.063.484 0 .125 0 .235-.063.5h7.5zm0 2.625a1.332 1.332 0 0 1-.047-.36c0-.109.015-.234.062-.484h-7.5c.063.25.063.375.063.485 0 .125 0 .25-.063.5h7.5zm0 0"/></symbol><symbol overflow="visible" id="g"><path d="M13.938 2.344h-.61l-.094.937c-.093.922-.156.86-3.625.86H2.531l5.11-7.672-4.72-7.453h5.767c3.343 0 3.578-.032 3.624.53l.094 1.126h.75a16.115 16.115 0 0 1-.062-1.281c0-.36.015-.61.062-1.266l-8.984.047-3.281-.047-.079.563 5.313 8.39L.812 5.063v.578l7.344-.063 5.828.063c0-1.344.016-2.407.094-3.297zm0 0"/></symbol><symbol overflow="visible" id="k"><path d="M4.563-8.781l-.188-.14c-.063-.063-.11-.126-.219-.329-1.781 1.781-2.812 3.719-2.812 5.563v1.124c0 1.86 1.031 3.797 2.812 5.579.11-.204.157-.266.219-.329.063-.062.125-.109.313-.203C3.046.844 2.374-.844 2.374-2.562v-1.126c0-1.703.672-3.39 2.313-5.03zm0 0"/></symbol><symbol overflow="visible" id="l"><path d="M5.688-4.563c0-.796-.407-1.468-.829-1.468-.515 0-1.234.36-1.875.922-.468.421-.718.718-1.156 1.421l.234.11.297-1.438c.032-.203.063-.375.063-.515 0-.235-.235-.5-.406-.5-.25 0-.813.297-1.688.922l-.406.296.187.485.547-.36c.328-.218.375-.234.485-.234.109 0 .046-.031.046.14 0 .095-.015.329-.046.454L.453-.234l-.578 2.89-.11.485.204.171a5.507 5.507 0 0 1 1.015-.234l.5-3.062V0c.313.11.485.125.625.125.657 0 2.141-.906 2.641-1.656.5-.735.938-2.14.938-3.032zm-1.141.172c0 .97-.438 2.297-1.063 3.204-.25.343-.515.5-1.015.5-.36 0-.563-.047-.828-.204l.203-1.218C2.109-3.641 3.25-5.063 4.25-5.063c.297 0 .297.125.297.672zm0 0"/></symbol><symbol overflow="visible" id="m"><path d="M8.266-2.766a1.332 1.332 0 0 1-.047-.359c0-.11.015-.234.062-.484h-7.5c.063.25.063.375.063.484 0 .125 0 .25-.063.5h7.5zm0 0"/></symbol><symbol overflow="visible" id="t"><path d="M4.125-5.703c-.469-.219-.797-.328-1.203-.328-.61 0-1.453.39-2.031.968a1.63 1.63 0 0 0-.47 1.157c0 .672.516 1.187 1.298 1.344l.75.14c.531.094.578.156.578.64 0 .798-.406 1.173-1.25 1.173-.438 0-.703-.094-1-.344v-1.078H.234C.172-1.297.094-.875-.046-.25.453 0 .968.125 1.39.125c.578 0 1.234-.25 1.843-.719.61-.484.891-1.015.891-1.625 0-.64-.5-1.11-1.406-1.281l-.5-.094c-.719-.14-.813-.203-.813-.703 0-.625.39-.984 1.078-.984.485 0 .844.172 1 .422v.765h.532c.062-.547.109-.86.25-1.531zm0 0"/></symbol><symbol overflow="visible" id="u"><path d="M4.094-2.563v-1.124c0-1.844-1.016-3.782-2.813-5.563-.11.203-.156.266-.218.328-.063.047-.125.094-.313.203 1.64 1.64 2.313 3.328 2.313 5.031v1.126C3.063-.845 2.39.844.75 2.484c.188.094.25.141.313.204.062.062.109.124.218.328 1.797-1.782 2.813-3.72 2.813-5.579zm0 0"/></symbol><symbol overflow="visible" id="f"><path d="M5.156-.984L5-1.234 4.594-1c-.282.172-.39.234-.469.234-.078 0 .016.063.016-.046 0-.032-.032-.032.015-.157l.64-2.453c.063-.265.11-.515.11-.656 0-.203-.265-.453-.453-.453-.406 0-1.187.375-1.766.86-.359.312-.624.608-1.124 1.25l.265.093.36-1.422c.046-.156.062-.266.062-.36 0-.187-.234-.421-.375-.421-.203 0-.703.218-1.39.687l-.344.219.172.438.5-.297c.343-.204.265-.188.343-.188.11 0 .016-.047.016.094 0 .453-.406 2.156-.813 3.453l.172.219c.313-.078.531-.125.875-.188.203-1.218.375-1.703.813-2.312.531-.75 1.125-1.266 1.562-1.266.11 0 .016-.047.016.078 0 .172-.031.344-.11.64l-.5 1.876c-.093.328-.124.531-.124.672 0 .219.265.484.453.484.234 0 .687-.219 1.718-.922zm0 0"/></symbol><symbol overflow="visible" id="h"><path d="M2.531-.984l-.172-.25L1.953-1c-.281.188-.375.234-.469.234-.078 0 .016.063.016-.046 0-.079.016-.157.063-.344l.75-2.703a.983.983 0 0 0 .062-.313c0-.156-.234-.36-.39-.36-.22 0-.688.204-1.407.688l-.344.219.172.438.5-.297c.266-.172.266-.172.36-.172.093 0 0-.047 0 .062 0 .063-.047.25-.079.39l-.64 2.126c-.094.281-.125.5-.125.672 0 .219.266.484.453.484.25 0 .703-.234 1.734-.922zm.281-4.72c0-.218-.296-.5-.5-.5-.296 0-.734.423-.734.735 0 .219.313.485.563.485.296 0 .671-.391.671-.72zm0 0"/></symbol><symbol overflow="visible" id="i"><path d="M6.172-3.063a1.376 1.376 0 0 1-.031-.265c0-.078.015-.172.062-.39H.516c.046.218.062.312.062.39 0 .094-.015.187-.062.406h5.687zm0 1.954c-.016-.094-.031-.172-.031-.266 0-.094.015-.172.062-.39H.516c.046.218.062.296.062.39 0 .094-.015.172-.062.406h5.687zm0 0"/></symbol><symbol overflow="visible" id="j"><path d="M4.281-.11V-.5l-.656-.031c-.531-.031-.484.015-.484-.453v-5.344l-.282-.094c-.625.313-1.312.578-2.375.906l.125.594h.22l1.25-.516h.03c.047 0-.078-.062-.078.157v4.297c0 .468.047.421-.469.453L.86-.5v.531L2.61 0l1.672.031zm0 0"/></symbol><symbol overflow="visible" id="v"><path d="M4.75-.11c-.016-.187-.016-.265-.016-.39s0-.203.032-.547l-3.141.094 1.5-1.469c.938-.922 1.281-1.5 1.281-2.172 0-1.015-.906-1.781-2.14-1.781-.688 0-1.282.219-1.782.703l-.187 1.39h.547l.172-.53c.156-.516.359-.61 1-.61.843 0 1.203.344 1.203 1.094 0 .672-.36 1.234-1.453 2.297L.078-.391v.422L2.406 0l2.36.031zm0 0"/></symbol><symbol overflow="visible" id="n"><path d="M6.625-2.844c0-.515-.203-1-.531-1.265-.313-.25-.766-.391-1.594-.516v.266c.688-.25 1.063-.438 1.453-.75.531-.485.86-1.125.86-1.735 0-.984-1.094-1.687-2.016-1.687-.594 0-1.203.031-1.797.031-.61 0-1.203-.016-1.938-.047l-.078.61.813.03c.281 0 .266-.03.266.188 0 .172-.047.547-.11.907L.922-.782C.89-.577.875-.624.25-.531L.125.048C.672.016 1.047 0 1.406 0c.64 0 1.266.031 1.922.031.563 0 1.219-.156 1.781-.5.954-.562 1.516-1.469 1.516-2.375zm-1.328.188c0 1.234-.734 1.984-1.922 1.984-.25 0-.594-.015-.984-.047-.079-.015-.22-.015-.25-.031l.562-3.313h.906c1.235 0 1.688.375 1.688 1.407zm.219-3.985c0 1.266-.75 1.891-2.235 1.891h-.453l.531-3.016c.22 0 .532-.062.844-.062.969 0 1.313.297 1.313 1.187zm0 0"/></symbol><symbol overflow="visible" id="o"><path d="M4.14-1.234l-.171-.422-.438.312c-.64.453-1.11.657-1.531.657-.578 0-.781-.313-.781-1.047 0-.313.031-.61.078-.844l.86-.219c.202-.047.515-.172.827-.297C4-3.547 4.61-4.219 4.61-4.954c0-.562-.53-1.077-1.14-1.077-.781 0-2.188.843-2.672 1.61C.437-3.845.03-2.313.03-1.47.031-.547.703.125 1.563.125 2.25.125 3-.235 4.171-1.188zm-.702-3.532c0 .516-.266.954-.891 1.25a5.596 5.596 0 0 1-1.125.375l.062-.265c.188-.797.391-1.219.72-1.516.218-.219.515-.344.812-.344.343 0 .421.11.421.5zm1.265-3.359c0-.188-.36-.5-.594-.5-.109 0-.359.11-.5.25L1.781-6.578l.11.234h.421l2.016-1.25c.25-.156.375-.36.375-.531zm0 0"/></symbol><symbol overflow="visible" id="p"><path d="M4.813-1.953h-.36l-.312.844c-.094.218-.079.171-.329.171-.265 0-.53-.078-.796-.14-.391-.078-.797-.14-1.032-.14-.375 0-.703.077-1.14.25l.094.234 4.078-4.61.093-.484-.25-.25-.375.36c-.125.124-.14.14-.296.14-.407 0-1.032-.094-1.61-.25-.312-.094-.625-.203-.953-.203-.203 0-.438.047-.844.156L.328-4.187h.516l.36-.704c.124-.03.234-.046.39-.046s.297.015.531.062c.406.078.719.125.969.125.437 0 .812-.11 1.203-.313l-.203-.203L-.172-.422l.203.594c.5-.406.735-.484 1.157-.484.296 0 .625.046 1.25.203.718.171 1.093.234 1.406.234.156 0 .25-.016.719-.14.14-.844.25-1.25.406-1.938zm0 0"/></symbol><symbol overflow="visible" id="q"><path d="M2.969-1.25l-.172-.297-.453.297c-.36.234-.5.313-.625.313-.078 0-.016.03-.016-.11 0-.11 0-.203.078-.469l.922-3.64c.047-.203.063-.313.063-.422 0-.203-.22-.453-.422-.453-.266 0-.797.281-1.703.922l-.407.296.188.485.547-.36c.344-.218.375-.234.484-.234.11 0 .047-.031.047.11 0 .109-.047.359-.094.53L.625-1.405c-.11.375-.156.672-.156.922 0 .28.265.593.5.593.312 0 .844-.296 2.078-1.218zm.344-6.406c0-.282-.313-.61-.563-.61-.36 0-.844.516-.844.922 0 .297.328.625.625.625.375 0 .781-.484.781-.937zm0 0"/></symbol><symbol overflow="visible" id="r"><path d="M4.14-1.234l-.171-.422-.438.312c-.64.453-1.11.657-1.531.657-.578 0-.781-.313-.781-1.047 0-.313.031-.61.078-.844l.86-.219c.202-.047.515-.172.827-.297C4-3.547 4.61-4.219 4.61-4.954c0-.562-.53-1.077-1.14-1.077-.781 0-2.188.843-2.672 1.61C.437-3.845.03-2.313.03-1.47.031-.547.703.125 1.563.125 2.25.125 3-.235 4.171-1.188zm-.702-3.532c0 .516-.266.954-.891 1.25a5.596 5.596 0 0 1-1.125.375l.062-.265c.188-.797.391-1.219.72-1.516.218-.219.515-.344.812-.344.343 0 .421.11.421.5zm0 0"/></symbol><symbol overflow="visible" id="s"><path d="M4.531-4.5c.032-.453.094-.828.203-1.39-.28-.126-.328-.141-.39-.141-.36 0-.844.328-1.266.937-.406.594-.86 1.25-1.172 1.907h.282L2.5-4.704c.063-.25.14-.531.14-.813 0-.234-.218-.515-.406-.515-.25 0-.812.297-1.703.922l-.39.296.187.485.547-.36c.328-.218.375-.234.469-.234.125 0 .062-.031.062.125 0 .703-.515 3.156-1.015 4.75l.25.172c.296-.094.562-.156.953-.203l.328-1.563c.219-.984.453-1.53.984-2.203.406-.531.625-.75.89-.75.188 0 .204.032.36.235h.36zm0 0"/></symbol></defs><use xlink:href="#a" x="-.219" y="17.457"/><use xlink:href="#b" x="7.086" y="17.457"/><use xlink:href="#c" x="12.155" y="17.457"/><use xlink:href="#d" x="20.272" y="17.457"/><use xlink:href="#e" x="28.653" y="17.457"/><use xlink:href="#f" x="45.746" y="4.334"/><use xlink:href="#g" x="41.069" y="17.457"/><use xlink:href="#h" x="41.2" y="30.667"/><use xlink:href="#i" x="44.095" y="30.667"/><use xlink:href="#j" x="50.824" y="30.667"/><use xlink:href="#k" x="57.958" y="17.457"/><use xlink:href="#l" x="63.41" y="17.457"/><use xlink:href="#h" x="69.387" y="20.231"/><use xlink:href="#m" x="75.446" y="17.457"/><use xlink:href="#n" x="87.188" y="17.457"/><use xlink:href="#o" x="94.493" y="17.457"/><use xlink:href="#p" x="99.143" y="17.457"/><use xlink:href="#q" x="104.451" y="17.457"/><use xlink:href="#r" x="107.775" y="17.457"/><use xlink:href="#s" x="112.425" y="17.457"/><g><use xlink:href="#b" x="117.076" y="17.457"/><use xlink:href="#t" x="122.145" y="17.457"/></g><g><use xlink:href="#h" x="126.796" y="20.231"/></g><g><use xlink:href="#d" x="130.198" y="17.457"/><use xlink:href="#u" x="135.267" y="17.457"/></g><g><use xlink:href="#v" x="140.718" y="10.617"/></g></svg>