<svg xmlns="http://www.w3.org/2000/svg" xmlns:xlink="http://www.w3.org/1999/xlink" width="265pt" height="55pt" viewBox="0 0 265 55"><defs><symbol overflow="visible" id="a"><path d="M.313.031C.671.016 1.046 0 1.405 0c.64 0 1.266.031 1.922.031.563 0 1.125-.125 1.688-.469.953-.546 1.468-1.375 1.468-2.28 0-.516-.156-.907-.484-1.173-.313-.25-.672-.359-1.5-.468.688-.25.969-.391 1.36-.72.53-.484.827-1.03.827-1.64 0-.984-.968-1.547-1.89-1.547-.594 0-1.203.032-1.797.032-.61 0-1.203-.016-1.813-.032l-.03.329.64.03c.281 0 .422.095.422.313 0 .172-.063.547-.11.907L1.063-.657c-.032.22-.188.298-.688.376zm1.671-.515l.61-3.579h1.015c1.235 0 1.829.5 1.829 1.547 0 1.22-.875 2.11-2.063 2.11-.25 0-.594-.016-.984-.047a2.223 2.223 0 0 0-.407-.031zM2.672-4.5l.578-3.266c.328 0 .64-.062.953-.062.969 0 1.453.422 1.453 1.328 0 1.25-.89 2-2.375 2zm0 0"/></symbol><symbol overflow="visible" id="b"><path d="M.172-1.344c0 .922.531 1.469 1.39 1.469.688 0 1.344-.328 2.454-1.219l-.094-.234-.281.203C3-.672 2.42-.437 2-.437c-.578 0-.906-.438-.906-1.172 0-.297.015-.61.093-.954l.97-.234c.202-.047.515-.172.827-.297C4-3.547 4.47-4.094 4.47-4.828c0-.563-.39-.938-1-.938-.781 0-2.078.813-2.563 1.563-.36.594-.734 2.031-.734 2.86zM1.25-2.828l.094-.453c.203-.797.437-1.313.765-1.61.22-.218.61-.375.907-.375.343 0 .562.25.562.625 0 .532-.406 1.094-1.031 1.391-.328.156-.766.297-1.297.422zm.64-3.516h.407l1.937-1.203c.25-.156.329-.266.329-.453 0-.188-.22-.36-.454-.36-.109 0-.25.063-.39.204zm0 0"/></symbol><symbol overflow="visible" id="c"><path d="M-.016-.25l.11.328c.344-.281.672-.39 1.093-.39.297 0 .625.046 1.25.203.72.171 1.094.234 1.407.234.156 0 .25-.016.61-.11.124-.75.218-1.156.359-1.718h-.266l-.266.719c-.078.218-.218.296-.468.296-.266 0-.532-.062-.797-.125-.391-.078-.797-.14-1.032-.14-.375 0-.703.062-1.14.25l4.062-4.563.063-.39-.11-.11-.265.282a.533.533 0 0 1-.407.171c-.406 0-1.03-.109-1.609-.25-.312-.093-.625-.203-.953-.203-.203 0-.438.047-.734.125L.516-4.187h.25l.359-.688c.203-.047.313-.063.469-.063.156 0 .297.016.531.063.406.078.719.125.969.125.437 0 .719-.078 1.11-.281zm0 0"/></symbol><symbol overflow="visible" id="d"><path d="M.406-4.64l.078.234.391-.25c.344-.219.469-.266.578-.266.11 0 .203.11.203.25 0 .094-.047.344-.11.531l-.78 2.86c-.11.39-.157.687-.157.922 0 .28.125.468.36.468.312 0 .75-.265 1.906-1.125l-.11-.218-.312.203c-.36.25-.61.36-.734.36-.078 0-.157-.11-.157-.235 0-.125.016-.219.094-.485l.907-3.625c.062-.203.078-.328.078-.437 0-.203-.094-.313-.297-.313-.266 0-.688.25-1.61.891zm1.656-2.563c0 .297.172.484.47.484.374 0 .64-.343.64-.797 0-.296-.172-.5-.422-.5-.36 0-.688.407-.688.813zm0 0"/></symbol><symbol overflow="visible" id="e"><path d="M.172-1.344c0 .922.531 1.469 1.39 1.469.688 0 1.344-.328 2.454-1.219l-.094-.234-.281.203C3-.672 2.42-.437 2-.437c-.578 0-.906-.438-.906-1.172 0-.297.015-.61.093-.954l.97-.234c.202-.047.515-.172.827-.297C4-3.547 4.47-4.094 4.47-4.828c0-.563-.39-.938-1-.938-.781 0-2.078.813-2.563 1.563-.36.594-.734 2.031-.734 2.86zM1.25-2.828l.094-.453c.203-.797.437-1.313.765-1.61.22-.218.61-.375.907-.375.343 0 .562.25.562.625 0 .532-.406 1.094-1.031 1.391-.328.156-.766.297-1.297.422zm0 0"/></symbol><symbol overflow="visible" id="f"><path d="M.313-4.64l.078.234.39-.25c.328-.203.469-.266.563-.266.125 0 .203.11.203.266 0 .687-.5 3.156-.984 4.687L.688.11c.25-.078.515-.14.796-.187L1.797-1.5c.219-1 .484-1.625 1.016-2.313.406-.53.718-.78.984-.78.187 0 .297.062.437.234h.172c.032-.454.094-.844.188-1.329-.14-.062-.188-.078-.25-.078-.36 0-.735.297-1.172.907-.406.578-.813 1.156-1.11 1.796l.297-1.5c.063-.265.157-.546.157-.812 0-.25-.094-.39-.282-.39-.25 0-.703.25-1.593.89zm0 0"/></symbol><symbol overflow="visible" id="g"><path d="M4.11-7.61a.735.735 0 0 1-.188-.14c-.063-.063-.11-.11-.14-.188-1.47 1.47-2.345 3.032-2.345 4.563v.781c0 1.516.875 3.078 2.344 4.547a.735.735 0 0 1 .14-.187.735.735 0 0 1 .188-.141C2.781.281 2.156-1.203 2.156-2.594v-.781c0-1.39.625-2.89 1.953-4.234zm0 0"/></symbol><symbol overflow="visible" id="h"><path d="M3.703-5.266c-.453.047-.86.079-1.312.079.187-1.125.328-1.704.53-2.36l-.124-.172c-.235.14-.563.282-.938.422l-.296 2.031c-.516.25-.829.391-1.047.454l-.032.156H1.5L.828-1.281c-.062.297-.156.593-.156.906 0 .297.125.484.36.484.421 0 .827-.234 1.765-1 .219-.156.14-.109.375-.296l-.125-.22-.531.376c-.36.25-.594.36-.735.36-.093 0-.156-.095-.156-.235 0-.313.14-1.25.516-3.016l.156-.734h1.281zm0 0"/></symbol><symbol overflow="visible" id="i"><path d="M3.64-2.594v-.781c0-1.531-.874-3.094-2.343-4.563-.047.079-.094.125-.156.188a.427.427 0 0 1-.188.14c1.328 1.344 1.969 2.844 1.969 4.235v.781c0 1.39-.64 2.875-1.969 4.219.078.031.14.078.188.14.062.063.109.126.156.188C2.766.484 3.64-1.078 3.64-2.594zm0 0"/></symbol><symbol overflow="visible" id="j"><path d="M8.125-3.938c-.016-.124-.031-.25-.031-.359 0-.125.015-.25.031-.36H.953c.031.11.031.235.031.36 0 .11 0 .234-.03.36zm0 2.626c-.016-.125-.031-.235-.031-.36s.015-.234.031-.36H.953a1.4 1.4 0 0 1 .031.36c0 .125 0 .234-.03.36zm0 0"/></symbol><symbol overflow="visible" id="k"><path d="M4.281-9.64c-.031-.063-.031-.157-.031-.235 0-.078 0-.172.031-.234H1.516V4.14H4.28c-.031-.079-.031-.157-.031-.25 0-.079 0-.157.031-.235H2.313V-9.64zm0 0"/></symbol><symbol overflow="visible" id="l"><path d="M5 .031v-.36l-.625-.03c-.656-.032-.781-.172-.781-.782v-7.093l-.156-.063c-.782.406-1.626.766-2.72 1.156l.079.5h.125l1.547-.687.031-.016c.063 0 .094.11.094.407v5.796c0 .61-.125.75-.781.782l-.672.03v.36L3.125 0zm0 0"/></symbol><symbol overflow="visible" id="o"><path d="M3.781 4.14v-14.25H1.016a.57.57 0 0 1 .03.235c0 .078 0 .172-.03.234h1.968V3.656H1.016a.607.607 0 0 1 .03.235c0 .093 0 .171-.03.25zm0 0"/></symbol><symbol overflow="visible" id="p"><path d="M2.39-2.984c0-.438-.28-.72-.718-.72-.422 0-.719.282-.719.72 0 .421.297.718.719.718.437 0 .719-.296.719-.718zm0 0"/></symbol><symbol overflow="visible" id="q"><path d="M5.078-14.516H1.703V0h.969v-14.031h2.406c-.016-.078-.031-.156-.031-.235 0-.093.016-.171.031-.25zm0 0"/></symbol><symbol overflow="visible" id="r"><path d="M2.672-9.688h-.969V0h.969zm0 0"/></symbol><symbol overflow="visible" id="s"><path d="M5.078 0c-.016-.078-.031-.156-.031-.234 0-.094.016-.172.031-.25H2.672v-14.032h-.969V0zm0 0"/></symbol><symbol overflow="visible" id="t"><path d="M5.563-4.375c0-2.625-.782-3.86-2.422-3.86-1.844 0-2.797 1.47-2.797 4.36 0 1.406.25 2.61.672 3.188.421.593 1.093.921 1.828.921 1.812 0 2.719-1.546 2.719-4.609zm-1.016.594c0 2.547-.453 3.61-1.547 3.61-1.156 0-1.656-1.22-1.656-4.126 0-2.531.453-3.516 1.578-3.516 1.172 0 1.625 1.172 1.625 4.032zm0 0"/></symbol><symbol overflow="visible" id="u"><path d="M8.125-2.625c-.016-.125-.031-.25-.031-.36 0-.124.015-.25.031-.359H.953c.031.11.031.235.031.36 0 .109 0 .234-.03.359zm0 0"/></symbol><symbol overflow="visible" id="v"><path d="M5.516-2.672c0-.578-.235-1.078-.657-1.375-.312-.219-.578-.312-1.171-.422C4.64-5.219 5-5.766 5-6.469c0-1.062-.89-1.765-2.219-1.765-.812 0-1.344.218-1.922.796L.516-5.952H.89l.203-.672c.14-.406.89-.813 1.515-.813.766 0 1.407.641 1.407 1.391 0 .89-.704 1.64-1.547 1.64-.11 0-.563-.03-.563-.03l-.156.64.094.063c.453-.204.672-.266 1-.266 1 0 1.562.64 1.562 1.734 0 1.22-.718 2.016-1.843 2.016a2.035 2.035 0 0 1-1.391-.516C.89-1.03.734-1.296.5-1.953l-.328.125c.266.734.36 1.156.422 1.75.64.219 1.156.312 1.61.312.952 0 2.046-.53 2.702-1.328.407-.5.61-1.015.61-1.578zm0 0"/></symbol><symbol overflow="visible" id="w"><path d="M5.594-2.625C5.594-4 4.766-4.891 3.5-4.891c-.703 0-1.14.282-1.938.938.25-2.172 1.266-3.344 3.407-3.985v-.093l-.438-.203c-1.156.375-1.64.625-2.25 1.14C1.047-6.047.375-4.594.375-2.954c0 1.97.969 3.188 2.5 3.188 1.563 0 2.719-1.218 2.719-2.859zm-1.032.422c0 1.25-.609 2.047-1.53 2.047-1.016 0-1.563-.875-1.563-2.469 0-.422.047-.656.187-.86.25-.406.813-.687 1.39-.687.907 0 1.517.797 1.517 1.969zm0 0"/></symbol><symbol overflow="visible" id="x"><path d="M4.516 0v-14.516H1.14a.648.648 0 0 1 0 .485h2.421V0zm0 0"/></symbol><symbol overflow="visible" id="y"><path d="M4.516 0v-9.688h-.954V0zm0 0"/></symbol><symbol overflow="visible" id="z"><path d="M4.516 0v-14.516h-.954V-.484H1.142a.648.648 0 0 1 0 .484zm0 0"/></symbol><symbol overflow="visible" id="A"><path d="M7.094-6.469c0-1.203-1.125-1.797-2.172-1.797-.547 0-1.094.032-1.64.032l-1.985-.032-.047.329.656.03c.297 0 .422.095.422.313 0 .172-.047.547-.11.907L1.345-1.5C1.14-.406 1.125-.375.64-.328l-.485.031L.11.031 1.688 0l1.656.031.031-.328-.766-.031c-.312-.016-.437-.11-.437-.36 0-.109.015-.203.047-.421l.984-5.829s.047-.25.11-.468c.015-.063.046-.188.078-.344.437-.063.625-.094.859-.094 1.219 0 1.797.532 1.797 1.64 0 1.298-.86 2.345-1.906 2.345-.266 0-.5-.063-.954-.235l.032.375c.437.219.672.281 1.031.281 1.531 0 2.844-1.406 2.844-3.03zm0 0"/></symbol><symbol overflow="visible" id="m"><path d="M4.594.031c-.016-.187-.016-.281-.016-.406 0-.11 0-.203.016-.39l-3.328.078 1.75-1.704c.937-.906 1.234-1.39 1.234-2.062 0-1.016-.75-1.64-1.984-1.64-.688 0-1.172.171-1.641.624L.469-4.266H.75l.11-.406c.171-.516.515-.734 1.156-.734.828 0 1.359.468 1.359 1.218 0 .672-.406 1.329-1.484 2.391L.234-.203V.03L2.391 0zm0 0"/></symbol><symbol overflow="visible" id="n"><path d="M4.547-1.984c0-.422-.203-.797-.547-1.016-.234-.156-.469-.234-.938-.313.766-.546 1.063-.953 1.063-1.468 0-.797-.719-1.313-1.797-1.313-.64 0-1.078.172-1.547.594L.5-4.406h.313l.156-.5c.11-.297.719-.594 1.219-.594.624 0 1.14.469 1.14 1.031 0 .657-.562 1.219-1.25 1.219-.078 0-.453-.031-.453-.031l-.125.469.078.046c.36-.14.547-.187.797-.187.813 0 1.266.469 1.266 1.265 0 .907-.579 1.5-1.485 1.5-.437 0-.828-.124-1.125-.374C.813-.766.671-.97.5-1.438l-.266.078C.437-.813.516-.5.563-.047c.515.156.937.219 1.296.219.782 0 1.657-.39 2.188-.984.328-.36.5-.75.5-1.172zm0 0"/></symbol><symbol overflow="visible" id="B"><path d="M4.125.031v-.265l-.516-.032c-.515-.03-.625-.125-.625-.578v-5.25L2.86-6.14c-.625.297-1.312.563-2.203.86l.078.375h.094l1.25-.516.031-.016c.047 0 .079.094.079.297v4.297c0 .453-.11.547-.626.578l-.546.032V.03L2.594 0zm0 0"/></symbol><symbol overflow="visible" id="C"><path d="M4.64.031v-.265l-.468-.032c-.469-.03-.578-.14-.578-.671v-.657c.578 0 .781 0 1.047.032v-.625s-.47.015-.782.015h-.265V-3.39c0-1.578.015-2.343.062-2.703l-.11-.047-.702.235-2.735 4.11.11.202H2.78v.657c0 .53-.11.656-.578.671l-.594.032V.03L3.172 0zM2.782-2.172H.72l2.062-3.11zm0 0"/></symbol></defs><use xlink:href="#a" x=".268" y="30.513"/><use xlink:href="#b" x="7.573" y="30.513"/><use xlink:href="#c" x="12.223" y="30.513"/><use xlink:href="#d" x="17.531" y="30.513"/><use xlink:href="#e" x="20.855" y="30.513"/><use xlink:href="#f" x="25.505" y="30.513"/><use xlink:href="#g" x="30.156" y="30.513"/><use xlink:href="#h" x="35.225" y="30.513"/><use xlink:href="#i" x="39.266" y="30.513"/><use xlink:href="#j" x="47.646" y="30.513"/><use xlink:href="#k" x="60.056" y="30.513"/><use xlink:href="#l" x="65.36" y="30.521"/><use xlink:href="#h" x="81.296" y="30.521"/><use xlink:href="#h" x="95.296" y="30.521"/><use xlink:href="#m" x="99.344" y="26.289"/><use xlink:href="#h" x="114.803" y="30.521"/><use xlink:href="#n" x="118.844" y="26.289"/><use xlink:href="#o" x="124.341" y="30.513"/><use xlink:href="#p" x="132.291" y="30.513"/><use xlink:href="#q" x="138.298" y="15.637"/><use xlink:href="#r" x="138.298" y="24.338"/><use xlink:href="#r" x="138.298" y="32.366"/><use xlink:href="#r" x="138.298" y="40.394"/><use xlink:href="#s" x="138.298" y="53.925"/><use xlink:href="#l" x="149.07" y="8.745"/><use xlink:href="#t" x="174.092" y="8.745"/><use xlink:href="#t" x="199.114" y="8.745"/><use xlink:href="#t" x="219.606" y="8.745"/><use xlink:href="#u" x="144.527" y="23.19"/><use xlink:href="#v" x="153.613" y="23.19"/><use xlink:href="#v" x="174.092" y="23.19"/><use xlink:href="#t" x="199.114" y="23.19"/><use xlink:href="#t" x="219.606" y="23.19"/><use xlink:href="#v" x="149.07" y="37.636"/><use xlink:href="#u" x="169.549" y="37.636"/><use xlink:href="#w" x="178.635" y="37.636"/><use xlink:href="#v" x="199.114" y="37.636"/><use xlink:href="#t" x="219.606" y="37.636"/><use xlink:href="#u" x="144.527" y="52.082"/><use xlink:href="#l" x="153.613" y="52.082"/><use xlink:href="#v" x="174.092" y="52.082"/><use xlink:href="#u" x="194.571" y="52.082"/><use xlink:href="#v" x="203.657" y="52.082"/><use xlink:href="#l" x="219.606" y="52.082"/><use xlink:href="#x" x="225.583" y="15.637"/><use xlink:href="#y" x="225.583" y="24.338"/><use xlink:href="#y" x="225.583" y="32.366"/><use xlink:href="#y" x="225.583" y="40.394"/><use xlink:href="#z" x="225.583" y="53.925"/><use xlink:href="#p" x="234.469" y="30.513"/><use xlink:href="#q" x="240.473" y="15.637"/><use xlink:href="#r" x="240.473" y="24.338"/><use xlink:href="#r" x="240.473" y="32.366"/><use xlink:href="#r" x="240.473" y="40.394"/><use xlink:href="#s" x="240.473" y="53.925"/><use xlink:href="#A" x="246.702" y="8.745"/><use xlink:href="#B" x="254.006" y="11.518"/><use xlink:href="#A" x="246.702" y="23.19"/><g><use xlink:href="#m" x="254.006" y="25.964"/></g><g><use xlink:href="#A" x="246.702" y="37.636"/></g><g><use xlink:href="#n" x="254.006" y="40.41"/></g><g><use xlink:href="#A" x="246.702" y="52.082"/></g><g><use xlink:href="#C" x="254.006" y="54.856"/></g><g><use xlink:href="#x" x="259.503" y="15.637"/></g><g><use xlink:href="#y" x="259.503" y="24.338"/></g><g><use xlink:href="#y" x="259.503" y="32.366"/></g><g><use xlink:href="#y" x="259.503" y="40.394"/></g><g><use xlink:href="#z" x="259.503" y="53.925"/></g></svg>