<svg xmlns:xlink="http://www.w3.org/1999/xlink" width="63.667ex" height="2.5ex" style="vertical-align:-.667ex;margin-bottom:1px;margin-top:1px" viewBox="0 -792.9 27397.6 1085.9" xmlns="http://www.w3.org/2000/svg"><defs><path stroke-width="10" id="a" d="M645 695l-54-219c-4-17-5-20-15-20-12 0-12 10-12 10 0 6 4 24 4 56 0 112-61 155-144 155-95 0-175-85-175-166 0-53 34-82 61-91l67-18c89-23 104-27 127-50 15-14 49-48 49-117 0-124-118-257-254-257-58 0-126 14-169 72L81-7C69-21 68-22 63-22c-6 0-11 4-11 10 0 3 56 231 60 235 3 3 5 4 10 4s12-1 12-11c0 0-1-3-2-7-1-6-6-30-6-54C126 31 237 9 301 9c98 0 180 94 180 184 0 82-55 97-92 106l-107 28c-51 15-104 61-104 142 0 121 120 236 247 236 65 0 117-25 143-72l48 57c12 14 13 15 18 15 9 0 11-7 11-10z"/><path stroke-width="10" id="b" d="M722 347c0-11-9-20-20-20H76c-11 0-20 9-20 20s9 20 20 20h626c11 0 20-9 20-20zm0-194c0-11-9-20-20-20H76c-11 0-20 9-20 20s9 20 20 20h626c11 0 20-9 20-20z"/><path stroke-width="10" id="c" d="M332-238c0-5-5-10-10-10-2 0-4 1-6 2-110 83-215 283-215 454v84c0 171 105 371 215 454 2 1 4 2 6 2 5 0 10-5 10-10 0-3-2-6-4-8-104-78-173-278-173-438v-84c0-160 69-360 173-438 2-2 4-5 4-8z"/><path stroke-width="10" id="d" d="M419 0c-35 3-122 3-162 3S130 3 95 0v31h32c90 0 93 12 93 48v518c-52-26-111-26-131-26v31c32 0 120 0 182 64 23 0 23-2 23-26V79c0-37 3-48 93-48h32V0z"/><path stroke-width="10" id="e" d="M203 1c0-117-80-194-91-194-5 0-10 4-10 11 0 3 0 5 11 16 33 33 68 93 68 167 0 14-2 15-2 15s-2-1-5-3c-10-9-23-13-35-13-33 0-53 26-53 53 0 28 20 53 53 53 39 0 64-39 64-105z"/><path stroke-width="10" id="f" d="M460 320c0-79-5-157-37-226C379-1 303-22 249-22 200-22 127-2 84 79c-41 76-45 166-45 241 0 80 5 158 37 227 41 93 114 119 174 119 42 0 124-16 170-112 35-74 40-154 40-234zm-83 12c0 63 0 139-10 195-19 99-85 117-118 117-25 0-100-9-119-128-8-54-8-120-8-184 0-59 0-151 11-211C151 25 210 0 249 0c45 0 102 30 117 125 11 64 11 132 11 207z"/><path stroke-width="10" id="g" d="M288 208c0-171-105-371-215-454-2-1-4-2-6-2-5 0-10 5-10 10 0 3 2 6 4 8 104 78 173 278 173 438v84c0 160-69 360-173 438-2 2-4 5-4 8 0 5 5 10 10 10 2 0 4-1 6-2 110-83 215-283 215-454v-84z"/><path stroke-width="10" id="h" d="M760 695l-63-255c-5-18-5-20-18-20-4 0-15 0-15 10s3 11 3 51c0 116-59 193-161 193-89 0-183-50-244-121-100-117-121-279-121-336C141 61 247 9 337 9c52 0 115 17 184 73 69 58 92 129 101 158 2 8 7 10 13 10 0 0 12 0 12-10 0-3-17-94-110-176-53-46-129-86-216-86C168-22 50 87 50 252c0 232 225 453 448 453 111 0 157-75 166-89l70 77c11 11 12 12 15 12 9 0 11-7 11-10z"/><path stroke-width="10" id="i" d="M192 53c0-29-24-53-53-53S86 24 86 53s24 53 53 53 53-24 53-53z"/><path stroke-width="10" id="j" d="M449 201C449 74 347-22 231-22 119-22 50 75 50 161c0 46 35 53 49 53 33 0 50-25 50-49s-17-49-50-49c-11 0-14 1-17 2C99 59 156 6 229 6c46 0 83 26 107 65 24 42 24 102 24 137 0 50-2 89-18 126-8 18-33 64-85 64-81 0-118-54-129-70-4-6-6-9-13-9-14 0-14 8-14 26v296c0 16 0 24 10 24 0 0 4 0 12-3 47-21 93-28 133-28 67 0 116 20 136 29 5 3 8 3 8 3 7 0 10-5 10-11 0-13-70-104-193-104-32 0-65 7-85 13V369c36 35 79 51 127 51 108 0 190-100 190-219z"/><path stroke-width="10" id="k" d="M449 174L421 0H50c0 24 0 26 11 37l192 214c55 62 105 141 105 221 0 82-43 163-134 163-58 0-112-37-135-102 3 1 5 1 13 1 35 0 53-26 53-52 0-41-35-53-52-53-3 0-53 0-53 56 0 89 74 181 187 181 122 0 212-80 212-194 0-100-60-154-216-292L127 77h180c22 0 88 0 95 8 10 15 17 59 22 89h25z"/><path stroke-width="10" id="l" d="M457 168c0-107-95-190-208-190C144-22 42 45 42 151c0 99 86 155 144 184-25 17-62 42-73 54-42 47-44 92-44 110 0 93 81 167 181 167 91 0 180-57 180-149 0-66-49-118-121-155 64-40 80-50 99-71 38-42 49-87 49-123zm-71 349c0 72-64 124-137 124-71 0-136-42-136-103 0-17 4-51 50-81l124-80c60 35 99 83 99 140zm21-385c0 61-47 91-75 110l-123 78C124 273 92 209 92 151 92 68 164 6 250 6c82 0 157 52 157 126z"/><path stroke-width="10" id="m" d="M763 653l-20-173c-2-19-3-25-14-25-9 0-12 7-12 12s1 12 1 18c4 27 4 29 4 53 0 82-30 111-152 111H429c-44 0-45-4-54-39l-60-241h94c92 0 110 23 131 99 3 12 5 18 14 18 7 0 12-5 12-11l-57-234c-4-15-7-20-15-20-9 0-13 6-13 11 0 3 1 6 3 11 7 30 7 42 7 49 0 25 0 46-85 46h-99L239 65c-5-18-5-20-5-23 0-8 3-9 13-10 6-1 8-1 22-1h146c171 0 208 67 273 215 2 6 4 12 13 12 12 0 12-11 12-11s-3-9-5-14L616 17c-7-16-8-17-31-17H66C47 0 38 0 38 12c0 19 11 19 28 19 79 0 81 8 91 47l132 529c5 18 5 20 5 24 0 18-28 18-65 18-19 0-28 0-28 11 0 20 10 20 30 20h505c25 0 30 0 27-27z"/></defs><g transform="matrix(1 0 0 -1 156 21)" stroke="currentColor" fill="currentColor" stroke-width="0"><use xlink:href="#a"/><use xlink:href="#b" x="927"/><use xlink:href="#c" x="1988"/><use xlink:href="#d" x="2382"/><use xlink:href="#e" x="2887"/><use xlink:href="#f" x="3337"/><use xlink:href="#g" x="3842"/><use xlink:href="#e" x="4568"/><g transform="translate(5349)"><use xlink:href="#h"/><use transform="scale(.707)" xlink:href="#d" x="1018" y="-213"/></g><use xlink:href="#b" x="6804"/><use xlink:href="#c" x="7865"/><use xlink:href="#d" x="8259"/><use xlink:href="#e" x="8764"/><g transform="translate(9214)"><use xlink:href="#f"/><use xlink:href="#i" x="505"/><use xlink:href="#j" x="788"/><use xlink:href="#j" x="1293"/><use xlink:href="#k" x="1798"/><use xlink:href="#k" x="2303"/><use xlink:href="#l" x="2808"/></g><use xlink:href="#g" x="12527"/><use xlink:href="#e" x="13253"/><g transform="translate(14034)"><use xlink:href="#h"/><use transform="scale(.707)" xlink:href="#k" x="1018" y="-213"/></g><use xlink:href="#b" x="15489"/><use xlink:href="#c" x="16550"/><g transform="translate(16944)"><use xlink:href="#f"/><use xlink:href="#i" x="505"/><use xlink:href="#j" x="788"/><use xlink:href="#j" x="1293"/><use xlink:href="#k" x="1798"/><use xlink:href="#k" x="2303"/><use xlink:href="#l" x="2808"/></g><use xlink:href="#e" x="20257"/><use xlink:href="#d" x="20707"/><use xlink:href="#g" x="21212"/><use xlink:href="#e" x="21938"/><use xlink:href="#m" x="22719"/><use xlink:href="#b" x="23765"/><use xlink:href="#c" x="24826"/><use xlink:href="#f" x="25220"/><use xlink:href="#e" x="25725"/><use xlink:href="#d" x="26175"/><use xlink:href="#g" x="26680"/></g></svg>