<svg xmlns="http://www.w3.org/2000/svg" xmlns:xlink="http://www.w3.org/1999/xlink" width="311pt" height="16" viewBox="0 0 311 12"><defs><symbol overflow="visible" id="a"><path d="M1-1.828c0 .48.11.84.328 1.078.227.23.57.344 1.031.344.532 0 .946-.145 1.25-.438.301-.289.454-.691.454-1.203 0-.238-.043-.445-.125-.625a1.89 1.89 0 0 0-.376-.531 5.604 5.604 0 0 0-.734-.578 4.796 4.796 0 0 1-.734-.563 2.552 2.552 0 0 1-.453-.64 1.912 1.912 0 0 1-.157-.782c0-.468.11-.875.329-1.218.218-.352.53-.625.937-.813a3.21 3.21 0 0 1 1.406-.297c.364 0 .696.028 1 .078.313.043.649.125 1.016.25l-.328 1.5H5.28c-.011-.332-.062-.593-.156-.78a.839.839 0 0 0-.36-.407c-.156-.082-.37-.125-.64-.125-.324 0-.61.07-.86.203-.242.137-.43.32-.562.547a1.485 1.485 0 0 0-.187.75c0 .305.078.562.234.781.156.219.453.48.89.781.376.262.66.496.86.704.207.21.36.433.453.671.094.23.14.5.14.813 0 .48-.116.906-.343 1.281-.23.367-.555.649-.969.844-.406.2-.875.297-1.406.297A7.87 7.87 0 0 1 1.203 0a6.97 6.97 0 0 1-1.11-.219l.345-1.61zm0 0"/></symbol><symbol overflow="visible" id="b"><path d="M.875-4.25v-.781h7.219v.781zm0 2.422v-.781h7.219v.78zm7.469-1.594zm0 0"/></symbol><symbol overflow="visible" id="c"><path d="M2.063-2.969c0 1.367.218 2.492.656 3.375.445.895 1.117 1.492 2.015 1.797l-.14.453C3.457 2.352 2.582 1.703 1.969.703c-.606-.988-.907-2.191-.907-3.61 0-1.405.301-2.609.907-3.609.613-1 1.488-1.648 2.625-1.953l.172.453c-.918.305-1.602.891-2.047 1.766-.438.867-.656 1.96-.656 3.281zm0 0"/></symbol><symbol overflow="visible" id="d"><path d="M4.078-1.531c0 .23.008.402.031.515a.68.68 0 0 0 .141.282.572.572 0 0 0 .266.171c.125.043.273.075.453.094.187.024.43.04.734.047V0H1.375v-.422A8.17 8.17 0 0 0 2.297-.5c.187-.04.328-.094.422-.156a.516.516 0 0 0 .219-.281c.05-.125.078-.32.078-.594v-4.75c0-.157-.032-.27-.094-.344a.282.282 0 0 0-.235-.11c-.124 0-.304.07-.53.204-.231.125-.516.304-.86.531l-.25-.453 2.734-1.64h.328a27.34 27.34 0 0 0-.03 1.562zm0 0"/></symbol><symbol overflow="visible" id="e"><path d="M1.813-1.36c.05.274.078.544.078.813 0 .274-.047.524-.141.75a2.24 2.24 0 0 1-.453.672c-.2.227-.48.477-.844.75l-.312-.36C.336 1.079.477.907.562.75A1.6 1.6 0 0 0 .766.234a3.58 3.58 0 0 0 .062-.718c0-.29-.015-.582-.047-.875zm0 0"/></symbol><symbol overflow="visible" id="f"><path d="M3.266.094c-.844 0-1.477-.332-1.891-1C.957-1.57.75-2.578.75-3.922c0-.719.063-1.336.188-1.86.132-.53.316-.96.546-1.296.227-.344.5-.598.813-.766.32-.164.676-.25 1.062-.25.852 0 1.489.336 1.907 1 .414.657.625 1.653.625 2.985 0 1.386-.227 2.433-.672 3.14C4.769-.258 4.117.094 3.266.094zM1.906-4.11c0 1.28.114 2.218.344 2.812.238.594.61.89 1.11.89.468 0 .816-.28 1.046-.843.227-.563.344-1.426.344-2.594 0-.906-.063-1.633-.188-2.187-.117-.563-.277-.961-.484-1.203-.21-.239-.46-.36-.75-.36-.273 0-.5.086-.687.25-.18.157-.325.387-.438.688a4.958 4.958 0 0 0-.234 1.093c-.043.43-.063.915-.063 1.454zm0 0"/></symbol><symbol overflow="visible" id="g"><path d="M2.906-2.969c0-1.32-.219-2.414-.656-3.281A3.389 3.389 0 0 0 .219-8.016l.156-.453c1.145.305 2.02.953 2.625 1.953.613 1 .922 2.204.922 3.61 0 1.418-.309 2.62-.922 3.61-.605 1-1.48 1.648-2.625 1.952l-.14-.453C1.14 1.898 1.812 1.301 2.25.406c.438-.883.656-2.008.656-3.375zm0 0"/></symbol><symbol overflow="visible" id="h"><path d="M6.984-7.797l-.343 1.594h-.563c-.031-.477-.14-.82-.328-1.031-.18-.22-.46-.329-.844-.329-.543 0-1.047.274-1.515.813-.461.531-.825 1.242-1.094 2.125-.274.887-.406 1.71-.406 2.469 0 .594.101 1.031.312 1.312.219.281.547.422.985.422.289 0 .546-.039.765-.125.219-.094.422-.242.61-.453.195-.207.39-.5.578-.875h.562l-.36 1.656c-.73.211-1.495.313-2.296.313-.742 0-1.305-.207-1.688-.625C.984-.957.797-1.578.797-2.391c0-.57.098-1.234.297-1.984.207-.75.5-1.406.875-1.969.375-.57.816-1.004 1.328-1.297.508-.3 1.07-.453 1.687-.453.352 0 .68.024.985.063.3.043.64.12 1.015.234zm0 0"/></symbol><symbol overflow="visible" id="j"><path d="M1.828-1.36V0H.641v-1.36zm0 0"/></symbol><symbol overflow="visible" id="k"><path d="M.875-.328v-1.234h.719c.113.398.285.687.515.875.239.187.547.28.922.28.52 0 .91-.156 1.172-.468.27-.313.406-.781.406-1.406 0-.406-.074-.742-.218-1.016a1.32 1.32 0 0 0-.563-.594A1.772 1.772 0 0 0 3-4.078c-.262 0-.492.023-.688.062a5.56 5.56 0 0 0-.609.141l-.469-.266V-8h3.22a.81.81 0 0 0 .28-.031c.063-.02.11-.051.141-.094.04-.05.086-.14.14-.266h.454l-.094 1.36h-3.36v2.578c.196-.082.415-.145.657-.188.238-.05.476-.078.719-.078.457 0 .863.102 1.218.297.364.188.645.461.844.813.195.343.297.746.297 1.203 0 .523-.11.969-.328 1.344-.219.375-.54.664-.953.859-.418.2-.907.297-1.469.297-.68 0-1.387-.14-2.125-.422zm0 0"/></symbol><symbol overflow="visible" id="l"><path d="M4.11-.938c.195 0 .35-.007.468-.03a.85.85 0 0 0 .281-.126.55.55 0 0 0 .172-.203c.04-.094.094-.234.157-.422h.484L5.578 0H.75v-.281c.176-.406.406-.82.688-1.25.28-.438.687-.946 1.218-1.532.446-.5.77-.878.969-1.14.219-.281.379-.52.484-.719.114-.207.192-.398.235-.578.05-.188.078-.367.078-.547 0-.3-.047-.562-.14-.781a1.13 1.13 0 0 0-.438-.531c-.188-.125-.43-.188-.719-.188-.742 0-1.234.406-1.484 1.219H.937v-1.125c.47-.227.907-.39 1.313-.484.414-.102.79-.157 1.125-.157.719 0 1.266.164 1.64.485.376.312.563.773.563 1.375 0 .21-.023.402-.062.578-.043.18-.11.351-.204.515a3.255 3.255 0 0 1-.359.547c-.148.2-.308.399-.484.594-.18.2-.485.531-.922 1-.75.793-1.297 1.48-1.64 2.063zm0 0"/></symbol><symbol overflow="visible" id="m"><path d="M4.64-4.219l.016.063c.438.18.77.433 1 .765.227.325.344.72.344 1.188 0 .46-.11.867-.328 1.219-.219.343-.54.609-.953.796C4.3 0 3.816.094 3.266.094c-.524 0-.98-.086-1.375-.25a2.055 2.055 0 0 1-.922-.766C.758-1.266.656-1.66.656-2.109c0-.344.055-.641.172-.891.113-.25.266-.453.453-.61.196-.163.438-.316.719-.453v-.062C1.156-4.488.734-5.113.734-6c0-.406.11-.766.329-1.078.218-.313.53-.555.937-.734a3.257 3.257 0 0 1 1.36-.282c.562 0 1.035.078 1.421.235.383.156.672.386.86.687.195.305.296.664.296 1.078 0 .43-.109.797-.328 1.11-.21.312-.53.57-.968.765zM1.829-6.047c0 .23.024.45.078.656.063.2.149.371.266.516.125.148.281.266.469.36.195.085.437.124.718.124.32 0 .594-.062.813-.187.226-.125.394-.305.5-.547.101-.25.156-.535.156-.86 0-.35-.062-.648-.187-.89a1.202 1.202 0 0 0-.532-.547 1.608 1.608 0 0 0-.75-.172c-.5 0-.882.137-1.14.407-.262.261-.39.64-.39 1.14zm-.062 3.844c0 .25.03.484.093.703.063.219.157.414.282.578.125.156.285.281.484.375.195.094.441.14.734.14.313 0 .582-.062.813-.187.226-.133.398-.332.516-.594.125-.257.187-.562.187-.906 0-.375-.07-.695-.203-.969a1.424 1.424 0 0 0-.547-.624 1.47 1.47 0 0 0-.797-.22c-.293 0-.539.048-.734.141-.2.086-.36.204-.485.36s-.214.34-.265.547c-.055.199-.078.418-.078.656zm0 0"/></symbol><symbol overflow="visible" id="o"><path d="M7.266-8l-.407 1.797h-.562a5.183 5.183 0 0 0-.094-.75c-.043-.176-.094-.297-.156-.36a.46.46 0 0 0-.219-.14 1.668 1.668 0 0 0-.36-.031H3.564L2.89-4.406h1.125c.28 0 .492-.067.64-.203.145-.133.29-.348.438-.641h.531L5.094-3h-.5c0-.313-.024-.523-.063-.64-.031-.114-.09-.18-.172-.204-.074-.031-.21-.047-.406-.047H2.781l-.75 3.375h1.735c.226 0 .41-.02.546-.062.133-.05.258-.129.375-.235.125-.101.243-.25.36-.437.125-.195.27-.457.437-.781h.563L5.53 0H.328l.078-.281a.872.872 0 0 0 .328-.125.7.7 0 0 0 .188-.219 1.95 1.95 0 0 0 .14-.344c.04-.133.102-.394.188-.781l1-4.516c.082-.382.125-.695.125-.937 0-.188-.047-.313-.14-.375-.087-.07-.227-.117-.422-.14L1.875-8zm0 0"/></symbol><symbol overflow="visible" id="i"><path d="M3.219-1.156v.234c.008.063.02.121.031.172a.252.252 0 0 0 .047.11c.02.03.047.058.078.078.04.042.086.074.14.093.063.012.133.028.22.047.093.012.203.024.328.031.132 0 .289.008.468.016V0H1.047v-.375c.176-.008.32-.016.437-.016.125-.007.227-.02.313-.03L2-.47a.53.53 0 0 0 .125-.062 1.36 1.36 0 0 0 .11-.094.237.237 0 0 0 .062-.11c.02-.05.035-.109.047-.171a2.25 2.25 0 0 0 .015-.25v-3.157c0-.113-.023-.19-.062-.234a.233.233 0 0 0-.188-.078c-.093 0-.23.047-.406.14-.18.094-.406.235-.687.423-.043-.07-.079-.141-.11-.204-.031-.07-.07-.14-.11-.203.364-.195.724-.394 1.079-.593l1.094-.594h.265a5.867 5.867 0 0 0-.015.437v.719zm0 0"/></symbol><symbol overflow="visible" id="n"><path d="M3.188-.719c.132 0 .242-.004.328-.015a.498.498 0 0 0 .203-.063.386.386 0 0 0 .14-.156c.04-.07.086-.172.141-.297h.406c-.023.21-.039.418-.047.625-.011.21-.027.418-.046.625H.592v-.234C.665-.391.75-.54.844-.688c.095-.156.196-.312.313-.468.125-.164.258-.332.407-.5.144-.164.312-.344.5-.532.269-.269.488-.5.656-.687.176-.195.312-.375.406-.531.102-.156.172-.297.203-.422a1.408 1.408 0 0 0 0-.828.835.835 0 0 0-.187-.313.624.624 0 0 0-.297-.203 1.005 1.005 0 0 0-.406-.078c-.282 0-.516.074-.704.219-.18.148-.32.36-.421.64H.734v-.859a5.539 5.539 0 0 1 1.032-.328c.32-.07.609-.11.859-.11.3 0 .563.04.781.11.219.062.39.152.516.266.133.117.234.257.297.421.062.168.093.344.093.532 0 .117-.011.226-.03.328-.012.093-.04.187-.079.281a2.749 2.749 0 0 1-.156.297 2.42 2.42 0 0 1-.234.297 3.877 3.877 0 0 1-.297.328c-.118.125-.246.262-.391.406l-.438.438a16.056 16.056 0 0 0-.828.89 2.679 2.679 0 0 0-.296.375zm0 0"/></symbol></defs><use xlink:href="#a" x=".314" y="8.556"/><use xlink:href="#b" x="10.189" y="8.556"/><use xlink:href="#c" x="22.443" y="8.556"/><use xlink:href="#d" x="27.404" y="8.556"/><use xlink:href="#e" x="34.028" y="8.556"/><use xlink:href="#f" x="38.463" y="8.556"/><use xlink:href="#g" x="45.086" y="8.556"/><use xlink:href="#e" x="52.678" y="8.556"/><use xlink:href="#h" x="59.755" y="8.556"/><use xlink:href="#i" x="66.198" y="10.996"/><use xlink:href="#b" x="75.049" y="8.556"/><use xlink:href="#c" x="87.291" y="8.556"/><use xlink:href="#d" x="92.253" y="8.556"/><use xlink:href="#e" x="98.876" y="8.556"/><use xlink:href="#f" x="103.323" y="8.556"/><use xlink:href="#j" x="109.946" y="8.556"/><use xlink:href="#k" x="112.397" y="8.556"/><use xlink:href="#k" x="119.02" y="8.556"/><use xlink:href="#l" x="125.643" y="8.556"/><use xlink:href="#l" x="132.267" y="8.556"/><use xlink:href="#m" x="138.89" y="8.556"/><use xlink:href="#g" x="145.513" y="8.556"/><g><use xlink:href="#e" x="153.105" y="8.556"/></g><g><use xlink:href="#h" x="160.182" y="8.556"/></g><g><use xlink:href="#n" x="166.602" y="10.996"/></g><g><use xlink:href="#b" x="175.453" y="8.556"/></g><g><use xlink:href="#c" x="187.695" y="8.556"/><use xlink:href="#f" x="192.657" y="8.556"/><use xlink:href="#j" x="199.28" y="8.556"/><use xlink:href="#k" x="201.731" y="8.556"/><use xlink:href="#k" x="208.354" y="8.556"/><use xlink:href="#l" x="214.977" y="8.556"/><use xlink:href="#l" x="221.6" y="8.556"/><use xlink:href="#m" x="228.223" y="8.556"/><use xlink:href="#e" x="234.846" y="8.556"/></g><g><use xlink:href="#d" x="239.294" y="8.556"/><use xlink:href="#g" x="245.917" y="8.556"/></g><g><use xlink:href="#e" x="253.509" y="8.556"/></g><g><use xlink:href="#o" x="260.586" y="8.556"/></g><g><use xlink:href="#b" x="271.848" y="8.556"/></g><g><use xlink:href="#c" x="284.102" y="8.556"/><use xlink:href="#f" x="289.063" y="8.556"/><use xlink:href="#e" x="295.686" y="8.556"/></g><g><use xlink:href="#d" x="300.122" y="8.556"/><use xlink:href="#g" x="306.745" y="8.556"/></g></svg>