<svg xmlns="http://www.w3.org/2000/svg" xmlns:xlink="http://www.w3.org/1999/xlink" width="185pt" height="41pt" viewBox="0 0 185 41"><defs><symbol overflow="visible" id="a"><path d="M8.266-4.078a1.419 1.419 0 0 1-.047-.36c0-.109.015-.234.062-.484h-7.5c.063.25.063.375.063.484 0 .125 0 .235-.063.5h7.5zm0 2.625a1.332 1.332 0 0 1-.047-.36c0-.109.015-.234.062-.484h-7.5c.063.25.063.375.063.485 0 .125 0 .25-.063.5h7.5zm0 0"/></symbol><symbol overflow="visible" id="b"><path d="M4.406-9.766c-.015-.078-.031-.156-.031-.234 0-.094.016-.172.078-.375H1.375V4.141h3.078c-.062-.204-.078-.297-.078-.375 0-.079.016-.172.078-.375H2.437V-9.641h2.016zm0 0"/></symbol><symbol overflow="visible" id="c"><path d="M5.125-.094v-.484l-.75-.047c-.656-.031-.64-.031-.64-.656v-7.172l-.313-.125c-.875.469-1.61.781-2.86 1.219l.125.718h.235l1.547-.687.031-.016c.063 0-.047-.015-.047.266v5.797c0 .625.016.625-.64.656L1-.578v.625L3.125 0l2 .047zm0 0"/></symbol><symbol overflow="visible" id="d"><path d="M3.703-5.516c-.453.047-.86.063-1.156.063.172-.984.297-1.578.531-2.25l-.25-.328a7.16 7.16 0 0 1-1.094.531l-.296 2.031c-.391.203-.704.328-1.063.407l-.047.406h1l-.64 3.25C.625-1.11.53-.813.53-.5c0 .297.266.61.5.61.422 0 .922-.282 1.86-1.032.218-.172.14-.125.437-.36l-.25-.437-.672.469c-.36.25-.484.313-.625.313-.093 0-.031.046-.031-.11 0-.297.156-1.234.516-3l.14-.61h1.266l.203-.89zm0 0"/></symbol><symbol overflow="visible" id="f"><path d="M3.906 4v-14.375H.828c.063.203.078.281.078.375 0 .078-.015.156-.078.36h2.016V3.39H.828c.063.204.078.297.078.376 0 .078-.015.171-.078.375h3.078zm0 0"/></symbol><symbol overflow="visible" id="g"><path d="M2.516-3.125c0-.422-.407-.844-.844-.844-.422 0-.86.422-.86.844 0 .438.438.86.86.86.437 0 .844-.422.844-.86zm0 0"/></symbol><symbol overflow="visible" id="h"><path d="M7.75-8.156v-.39L5.672-8.5l-2.828-.031-1.547.015c0 .672-.047 1.141-.156 2.141h.578c.062-.39.14-.688.281-1.156l.031-.125c.578-.094 1.031-.14 2.063-.14h1.86L.093-.407v.453L3.125 0l3.969.047c.031-.625.125-1.313.312-2.266h-.562l-.14.39c-.313.985-.266.766-.329.954-.453.094-.906.14-1.422.14H1.86L7.75-8.108zm0 0"/></symbol><symbol overflow="visible" id="i"><path d="M11.234-8.531c-.328.015-.671.031-1 .031-.343 0-.671-.016-1.078-.047-.25.485-.031.172-1.047 1.906L5.172-1.594l.25.094-1.844-7.047c-.422.031-.75.047-1.094.047-.328 0-.671-.016-1.125-.047l-.062.61.469.03c.625.048.703.032.703.345a.693.693 0 0 1-.047.234L.687-1.25C.516-.625.47-.594-.327-.531l-.047.578L1.109 0C1.547 0 2 .016 2.547.047l.062-.594-.593-.047c-.391-.047-.47-.015-.47-.187 0-.125.032-.281.095-.5l1.484-5.547h-.281L4.656.219h.453l.72-1.282 2.843-4.953.625-1.03-.235-.095-.437 6.204c-.031.343-.047.28-.672.343l-.5.047-.047.594L9.156 0l1.703.047.063-.594-.578-.047C9.906-.64 9.813-.64 9.828-.89l.016-.437.484-6.344c.016-.234.078-.219.422-.234l.563-.032.062-.609zm0 0"/></symbol><symbol overflow="visible" id="j"><path d="M10.563 2.11h-5.11C2.531 2.11.875 2.062.516 1.046c-.235.156-.204.172-.282.203-.078.016-.156.031-.406.063.36 1.015 2.36 1.921 5.625 1.921h5.25V2.11zm0 0"/></symbol><symbol overflow="visible" id="k"><path d="M10.578 3.094v-.985H-.14v1.125h10.72zm0 0"/></symbol><symbol overflow="visible" id="l"><path d="M21.281 3.094v-.985h-5.484c-2.86 0-4.735.563-5.235 1.125-.5-.562-2.343-1.125-5.203-1.125h-5.5v1.125h5.5c3.188 0 4.844-.062 4.844.938.203-.078.297-.078.375-.078.078 0 .156 0 .375.078 0-1 1.656-.938 4.844-.938h5.484zm0 0"/></symbol><symbol overflow="visible" id="m"><path d="M10.578 1.297c-.078-.016-.172-.031-.234-.047-.094-.031-.063-.047-.281-.203-.376 1.016-2.032 1.062-4.938 1.062H-.141v1.125h5.266c3.25 0 5.25-.906 5.625-1.921zm0 0"/></symbol><symbol overflow="visible" id="x"><path d="M5.078-14.781H1.562V0h1.235v-14.031h2.469c-.079-.203-.094-.281-.094-.375 0-.078.016-.172.094-.375zm0 0"/></symbol><symbol overflow="visible" id="y"><path d="M2.672-9.938h-1.11V0h1.235v-9.938zm0 0"/></symbol><symbol overflow="visible" id="z"><path d="M5.219-.125a.648.648 0 0 1-.047-.25c0-.078.016-.156.094-.36h-2.47V-14.78H1.564V0h3.703zm0 0"/></symbol><symbol overflow="visible" id="A"><path d="M7.234-6.594c0-1.218-1.265-1.937-2.312-1.937-.547 0-1.094.031-1.64.031l-2.126-.047-.062.61.812.03c.297 0 .282-.03.282.188 0 .172-.047.532-.11.907l-.89 5.187C1-.531 1.125-.641.64-.594l-.61.031-.093.61L1.688 0l1.78.047.063-.61-.922-.03c-.312-.016-.296.015-.296-.235 0-.11 0-.188.046-.422l.97-5.813-.032.094s.078-.343.14-.578c.016-.062.047-.172.063-.203.328-.063.516-.094.75-.094 1.219 0 1.656.39 1.656 1.516 0 1.281-.718 2.203-1.765 2.203-.266 0-.5-.063-1.11-.281l.047.625c.578.281.813.344 1.172.344 1.531 0 2.984-1.532 2.984-3.157zm0 0"/></symbol><symbol overflow="visible" id="D"><path d="M4.656-.125v-14.656H.953c.078.203.094.297.094.375 0 .094-.016.172-.094.375h2.469V0h1.234zm0 0"/></symbol><symbol overflow="visible" id="E"><path d="M4.656-.125v-9.813H3.422V0h1.234zm0 0"/></symbol><symbol overflow="visible" id="F"><path d="M4.656-.125v-14.656H3.422V-.734H.953c.078.203.094.28.094.359 0 .094-.016.172-.094.375h3.703zm0 0"/></symbol><symbol overflow="visible" id="e"><path d="M4.75-.11c-.016-.187-.016-.265-.016-.39s0-.203.032-.547l-3.141.094 1.5-1.469c.938-.922 1.281-1.5 1.281-2.172 0-1.015-.906-1.781-2.14-1.781-.688 0-1.282.219-1.782.703l-.187 1.39h.547l.172-.53c.156-.516.359-.61 1-.61.843 0 1.203.344 1.203 1.094 0 .672-.36 1.234-1.453 2.297L.078-.391v.422L2.406 0l2.36.031zm0 0"/></symbol><symbol overflow="visible" id="n"><path d="M6.984-3.531c0-.516-.39-1-.75-1-.125 0-.359.062-.437.14l-.547.485.25.375c.234-.14.219-.125.297-.125.266 0 .266.062.266.422 0 1.28-.782 2.625-1.594 2.625-.282 0-.344-.22-.344-.704 0-.421.094-1.015.203-1.39l.516-1.672-.188-.172-.875.234L3.47-2.89c-.125.547-.203.813-.485 1.282-.39.671-.64 1-.937 1-.344 0-.406-.22-.406-.735 0-1.047.359-1.812 1.375-2.875l-.204-.343c-.265.109-.39.125-.656.125-.39 0-.797-.032-1.187-.047-.125-.016-.203.015-.422.093-.14.235-.297.657-.453 1.266h.5l.219-.5c.078-.156.125-.11.343-.11.188 0 .36.016.547.016.203 0 .328-.015.266 0 .11-.156 0-.062-.094.047C1-2.734.625-2 .625-1.25c0 .734.5 1.344 1 1.344.625 0 1.234-.516 1.953-1.782l-.281-.109c-.078.39-.11.625-.11.828 0 .547.438 1.063.876 1.063.78 0 1.953-1.032 2.546-2.235.22-.453.375-1.046.375-1.39zm0 0"/></symbol><symbol overflow="visible" id="o"><path d="M3.86-3.719c0-.406-.47-.812-.97-.812-.624 0-1.796.625-2.187 1.187C.422-2.906.078-1.75.078-1.125.078-.437.656.094 1.36.094c.547 0 1.188-.281 2.141-1l-.172-.406-.422.25c-.5.343-.86.484-1.203.484-.469 0-.594-.203-.594-.735 0-.234.032-.453.063-.609l.656-.156c.172-.031.422-.125.672-.219.828-.328 1.36-.86 1.36-1.422zm-1.032.14c0 .392-.172.688-.687.907-.266.11-.61.219-.86.266l.047-.156c.156-.594.297-.876.563-1.094a.954.954 0 0 1 .64-.235c.266 0 .297.032.297.313zm0 0"/></symbol><symbol overflow="visible" id="p"><path d="M3.078-4.156c-.36.031-.687.047-.875.047.125-.704.219-1.141.406-1.641l-.218-.281c-.36.187-.5.25-.938.406L1.22-4.109a5.102 5.102 0 0 1-.86.312l-.046.344h.796L.594-1.078C.547-.86.469-.641.469-.406c0 .219.265.484.453.484.344 0 .765-.219 1.531-.765.172-.125.11-.094.375-.282l-.234-.39L2-1c-.297.188-.36.234-.469.234-.078 0 .016.063.016-.046 0-.22.125-.922.422-2.22l.093-.421h1.032l.172-.735zm0 0"/></symbol><symbol overflow="visible" id="q"><path d="M5.14-.984l-.156-.25L4.578-1c-.25.156-.375.219-.484.219-.078 0 .031.062.031-.031a.89.89 0 0 1 .063-.344L5-4.344l-.156-.203-.86.188-.125.562c-.14.672-.328 1.172-.609 1.578C2.672-1.406 2.016-.78 1.625-.78c-.094 0 .016.047.016-.11 0-.125.03-.218.078-.453l.547-2.406c.03-.14.046-.266.046-.375 0-.172-.218-.406-.359-.406-.203 0-.672.203-1.406.687l-.328.219.172.438.484-.297c.281-.172.281-.172.36-.172.109 0 0-.047 0 .047 0 .046 0 .125-.016.156l-.61 2.64a3.115 3.115 0 0 0-.03.422c0 .204.296.485.5.485.609 0 1.874-1.032 2.687-2.25L3.5-2.25 3.14-1c-.062.234-.109.453-.109.594 0 .219.266.5.453.5.25 0 .72-.25 1.735-.938zm0 0"/></symbol><symbol overflow="visible" id="r"><path d="M3.797-4.484c-.11-.047-.14-.047-.188-.047-.312 0-.718.25-1.062.687-.328.438-.672.86-.922 1.344l.266.094.265-1.11c.047-.203.11-.406.11-.609 0-.172-.235-.406-.375-.406-.204 0-.672.218-1.391.687l-.344.219.172.438.5-.297c.266-.157.266-.172.344-.172.11 0 .016-.047.016.062 0 .516-.422 2.344-.829 3.531l.25.157c.235-.078.454-.11.797-.172l.282-1.172c.171-.734.343-1.11.78-1.61.329-.39.485-.546.688-.546.14 0 .125.015.266.172h.36c.03-.47.093-.75.171-1.172zm0 0"/></symbol><symbol overflow="visible" id="s"><path d="M5.156-.984L5-1.234 4.594-1c-.282.172-.39.234-.469.234-.078 0 .016.063.016-.046 0-.032-.032-.032.015-.157l.64-2.453c.063-.265.11-.515.11-.656 0-.203-.265-.453-.453-.453-.406 0-1.187.375-1.766.86-.359.312-.624.608-1.124 1.25l.265.093.36-1.422c.046-.156.062-.266.062-.36 0-.187-.234-.421-.375-.421-.203 0-.703.218-1.39.687l-.344.219.172.438.5-.297c.343-.204.265-.188.343-.188.11 0 .016-.047.016.094 0 .453-.406 2.156-.813 3.453l.172.219c.313-.078.531-.125.875-.188.203-1.218.375-1.703.813-2.312.531-.75 1.125-1.266 1.562-1.266.11 0 .016-.047.016.078 0 .172-.031.344-.11.64l-.5 1.876c-.093.328-.124.531-.124.672 0 .219.265.484.453.484.234 0 .687-.219 1.718-.922zm0 0"/></symbol><symbol overflow="visible" id="t"><path d="M4.734-.984l-.156-.25L4.172-1c-.281.172-.375.234-.469.234-.078 0 .016.063.016-.046 0-.079.015-.157.078-.344l.61-2.266c.062-.234.109-.515.109-.656 0-.203-.25-.453-.438-.453-.328 0-1.016.328-1.64.797-.329.25-.485.421-.938.937l-.203.219.266.094.968-4.094-.25-.203c-.531.25-.875.328-1.703.406l-.094.438h.657c.218 0 .156-.063.156.078 0 .078 0 .156-.016.218L.875-3.578C.609-2.234.235-.703.015-.125l.172.219.86-.188c.172-1.125.297-1.562.578-2.031.422-.719 1.328-1.547 1.719-1.547.14 0 .062-.047.062.063 0 .156-.062.5-.14.796l-.5 1.735c-.079.312-.125.516-.125.672 0 .219.265.484.453.484.25 0 .703-.219 1.719-.922zm0 0"/></symbol><symbol overflow="visible" id="u"><path d="M2.531-.984l-.172-.25L1.953-1c-.281.188-.375.234-.469.234-.078 0 .016.063.016-.046 0-.079.016-.157.063-.344l.75-2.703a.983.983 0 0 0 .062-.313c0-.156-.234-.36-.39-.36-.22 0-.688.204-1.407.688l-.344.219.172.438.5-.297c.266-.172.266-.172.36-.172.093 0 0-.047 0 .062 0 .063-.047.25-.079.39l-.64 2.126c-.094.281-.125.5-.125.672 0 .219.266.484.453.484.25 0 .703-.234 1.734-.922zm.281-4.72c0-.218-.296-.5-.5-.5-.296 0-.734.423-.734.735 0 .219.313.485.563.485.296 0 .671-.391.671-.72zm0 0"/></symbol><symbol overflow="visible" id="v"><path d="M3.422-4.297c-.375-.172-.656-.234-.969-.234-.5 0-1.203.281-1.672.718-.25.235-.406.563-.406.876 0 .5.469.921 1.11 1.03l.609.11c.422.063.406.094.406.438 0 .593-.281.843-.969.843-.343 0-.515-.062-.75-.25v-.812H.25C.172-1 .125-.688 0-.218c.547.25.875.312 1.203.312.484 0 1.031-.188 1.531-.547.485-.36.735-.781.735-1.219 0-.484-.453-.875-1.172-1l-.422-.062c-.578-.094-.61-.125-.61-.485 0-.469.266-.703.829-.703.39 0 .656.125.765.297v.594h.5c.063-.438.11-.688.22-1.188zm0 0"/></symbol><symbol overflow="visible" id="w"><path d="M2-.61c0-.265-.422-.64-.719-.64-.281 0-.703.375-.703.64 0 .266.422.657.703.657C1.578.047 2-.328 2-.61zm0 0"/></symbol><symbol overflow="visible" id="B"><path d="M4.281-.11V-.5l-.656-.031c-.531-.031-.484.015-.484-.453v-5.344l-.282-.094c-.625.313-1.312.578-2.375.906l.125.594h.22l1.25-.516h.03c.047 0-.078-.062-.078.157v4.297c0 .468.047.421-.469.453L.86-.5v.531L2.61 0l1.672.031zm0 0"/></symbol><symbol overflow="visible" id="C"><path d="M4.703-2.125c0-.422-.234-.89-.578-1.11a2.69 2.69 0 0 0-.719-.296c.531-.36.875-.875.875-1.39 0-.798-.875-1.454-1.937-1.454-.656 0-1.203.203-1.703.656L.312-4.406h.594l.219-.64c.11-.298.563-.47 1.078-.47.61 0 .969.344.969.907 0 .656-.406 1.078-1.094 1.078-.078 0-.344.203-.344.203l-.265-.094-.125.531.203.141c.39-.172.578-.203.844-.203.796 0 1.093.328 1.093 1.14 0 .907-.421 1.36-1.328 1.36-.437 0-.719-.094-1.015-.344C.906-1 .828-1.094.578-1.75l-.531.188c.234.609.312.937.375 1.468C1.078.11 1.5.172 1.875.172c.766 0 1.75-.422 2.281-1.016.328-.375.547-.86.547-1.281zm0 0"/></symbol></defs><use xlink:href="#a" x="-.537" y="23.29"/><use xlink:href="#b" x="11.861" y="23.29"/><use xlink:href="#c" x="17.166" y="23.3"/><use xlink:href="#d" x="33.102" y="23.3"/><use xlink:href="#d" x="47.102" y="23.3"/><use xlink:href="#e" x="51.151" y="19.068"/><use xlink:href="#f" x="56.651" y="23.29"/><use xlink:href="#g" x="64.601" y="23.29"/><use xlink:href="#h" x="97.502" y="23.29"/><use xlink:href="#g" x="108.13" y="23.29"/><use xlink:href="#i" x="114.132" y="23.29"/><use xlink:href="#j" x="70.608" y="23.505"/><use xlink:href="#k" x="79.192" y="23.505"/><use xlink:href="#k" x="85.887" y="23.505"/><use xlink:href="#k" x="92.582" y="23.505"/><use xlink:href="#l" x="101.034" y="23.505"/><use xlink:href="#k" x="120.186" y="23.505"/><use xlink:href="#k" x="126.893" y="23.505"/><use xlink:href="#k" x="133.588" y="23.505"/><use xlink:href="#m" x="142.04" y="23.505"/><use xlink:href="#n" x="82.332" y="35.554"/><use xlink:href="#o" x="89.477" y="35.554"/><use xlink:href="#p" x="96.391" y="35.554"/><use xlink:href="#q" x="99.782" y="35.554"/><use xlink:href="#r" x="105.325" y="35.554"/><use xlink:href="#s" x="109.371" y="35.554"/><use xlink:href="#p" x="117.905" y="35.554"/><use xlink:href="#t" x="121.296" y="35.554"/><use xlink:href="#u" x="126.298" y="35.554"/><use xlink:href="#v" x="129.202" y="35.554"/><use xlink:href="#w" x="133.133" y="35.554"/><use xlink:href="#w" x="135.719" y="35.554"/><use xlink:href="#w" x="138.304" y="35.554"/><use xlink:href="#g" x="155.271" y="23.29"/><use xlink:href="#x" x="161.275" y="15.297"/><use xlink:href="#y" x="161.275" y="22.592"/><use xlink:href="#y" x="161.275" y="27.694"/><use xlink:href="#z" x="161.275" y="39.819"/><use xlink:href="#A" x="167.503" y="8.745"/><use xlink:href="#B" x="174.808" y="11.518"/><g><use xlink:href="#A" x="167.503" y="23.19"/></g><g><use xlink:href="#e" x="174.808" y="25.964"/></g><g><use xlink:href="#A" x="167.503" y="37.636"/></g><g><use xlink:href="#C" x="174.808" y="40.41"/></g><g><use xlink:href="#D" x="180.308" y="15.297"/></g><g><use xlink:href="#E" x="180.308" y="22.592"/></g><g><use xlink:href="#E" x="180.308" y="27.694"/></g><g><use xlink:href="#F" x="180.308" y="39.819"/></g></svg>