<svg xmlns="http://www.w3.org/2000/svg" xmlns:xlink="http://www.w3.org/1999/xlink" width="47pt" height="55pt" viewBox="0 0 47 55"><defs><symbol overflow="visible" id="a"><path d="M7.094-6.469c0-1.203-1.125-1.797-2.172-1.797-.547 0-1.094.032-1.64.032l-1.985-.032-.047.329.656.03c.297 0 .422.095.422.313 0 .172-.047.547-.11.907L1.345-1.5C1.14-.406 1.125-.375.64-.328l-.485.031L.11.031 1.688 0l1.656.031.031-.328-.766-.031c-.312-.016-.437-.11-.437-.36 0-.109.015-.203.047-.421l.984-5.829s.047-.25.11-.468c.015-.063.046-.188.078-.344.437-.063.625-.094.859-.094 1.219 0 1.797.532 1.797 1.64 0 1.298-.86 2.345-1.906 2.345-.266 0-.5-.063-.954-.235l.032.375c.437.219.672.281 1.031.281 1.531 0 2.844-1.406 2.844-3.03zm0 0"/></symbol><symbol overflow="visible" id="b"><path d="M8.125-3.938c-.016-.124-.031-.25-.031-.359 0-.125.015-.25.031-.36H.953c.031.11.031.235.031.36 0 .11 0 .234-.03.36zm0 2.626c-.016-.125-.031-.235-.031-.36s.015-.234.031-.36H.953a1.4 1.4 0 0 1 .031.36c0 .125 0 .234-.03.36zm0 0"/></symbol><symbol overflow="visible" id="c"><path d="M5.078-14.516H1.703V0h.969v-14.031h2.406c-.016-.078-.031-.156-.031-.235 0-.093.016-.171.031-.25zm0 0"/></symbol><symbol overflow="visible" id="d"><path d="M2.672-9.688h-.969V0h.969zm0 0"/></symbol><symbol overflow="visible" id="e"><path d="M5.078 0c-.016-.078-.031-.156-.031-.234 0-.094.016-.172.031-.25H2.672v-14.032h-.969V0zm0 0"/></symbol><symbol overflow="visible" id="f"><path d="M5.563-4.438c0-.796-.282-1.328-.704-1.328-.515 0-1.125.329-1.765.875-.469.438-.735.735-1.156 1.438l.28-1.422c.048-.203.063-.39.063-.531 0-.219-.094-.36-.265-.36-.25 0-.704.25-1.579.891l-.343.234.078.235.39-.25c.329-.203.47-.266.579-.266.109 0 .203.11.203.266 0 .11-.032.343-.047.453L.594-.093.016 2.78l-.094.453.078.063c.25-.078.484-.14.875-.203l.5-3.125.11.031c.312.11.484.125.624.125.657 0 2.032-.86 2.547-1.625.5-.719.907-2.031.907-2.938zm-.86.188c0 .969-.484 2.39-1.125 3.297-.234.344-.61.515-1.11.515-.359 0-.655-.078-.968-.265l.203-1.266C1.97-3.5 3.25-5.062 4.25-5.062c.297 0 .453.25.453.812zm0 0"/></symbol><symbol overflow="visible" id="i"><path d="M2.188-.64c0-.344-.329-.688-.704-.688-.359 0-.687.344-.687.687 0 .36.328.704.672.704.39 0 .718-.329.718-.704zm0 0"/></symbol><symbol overflow="visible" id="k"><path d="M4.516 0v-14.516H1.14a.648.648 0 0 1 0 .485h2.421V0zm0 0"/></symbol><symbol overflow="visible" id="l"><path d="M4.516 0v-9.688h-.954V0zm0 0"/></symbol><symbol overflow="visible" id="m"><path d="M4.516 0v-14.516h-.954V-.484H1.142a.648.648 0 0 1 0 .484zm0 0"/></symbol><symbol overflow="visible" id="g"><path d="M4.125.031v-.265l-.516-.032c-.515-.03-.625-.125-.625-.578v-5.25L2.86-6.14c-.625.297-1.312.563-2.203.86l.078.375h.094l1.25-.516.031-.016c.047 0 .079.094.079.297v4.297c0 .453-.11.547-.626.578l-.546.032V.03L2.594 0zm0 0"/></symbol><symbol overflow="visible" id="h"><path d="M4.594.031c-.016-.187-.016-.281-.016-.406 0-.11 0-.203.016-.39l-3.328.078 1.75-1.704c.937-.906 1.234-1.39 1.234-2.062 0-1.016-.75-1.64-1.984-1.64-.688 0-1.172.171-1.641.624L.469-4.266H.75l.11-.406c.171-.516.515-.734 1.156-.734.828 0 1.359.468 1.359 1.218 0 .672-.406 1.329-1.484 2.391L.234-.203V.03L2.391 0zm0 0"/></symbol><symbol overflow="visible" id="j"><path d="M5.047-.75l-.11-.156-.234.14c-.297.172-.5.266-.594.266-.062 0-.125-.078-.125-.172 0-.047 0-.14.016-.172l.64-2.453c.063-.25.094-.5.094-.64 0-.204-.093-.329-.28-.329-.407 0-1.079.344-1.657.829-.36.312-.625.609-1.125 1.25l.36-1.422c.046-.157.062-.266.062-.36 0-.187-.078-.297-.219-.297-.203 0-.578.204-1.281.657l-.281.171.078.188.312-.188c.344-.218.375-.218.453-.218.094 0 .172.078.172.219 0 .453-.406 2.156-.797 3.421l.063.094c.25-.062.469-.11.687-.156.172-1.11.39-1.688.828-2.297.532-.734 1.235-1.281 1.672-1.281.094 0 .156.078.156.203 0 .156-.015.344-.093.625L3.328-.953c-.078.328-.125.531-.125.672 0 .234.11.36.297.36.25 0 .594-.188 1.547-.829zm0 0"/></symbol></defs><use xlink:href="#a" x=".182" y="29.513"/><use xlink:href="#b" x="10.93" y="29.513"/><use xlink:href="#c" x="23.347" y="14.637"/><use xlink:href="#d" x="23.347" y="23.338"/><use xlink:href="#d" x="23.347" y="31.366"/><use xlink:href="#d" x="23.347" y="39.394"/><use xlink:href="#e" x="23.347" y="52.925"/><use xlink:href="#f" x="29.845" y="7.745"/><use xlink:href="#g" x="35.823" y="10.518"/><use xlink:href="#f" x="29.845" y="22.19"/><use xlink:href="#h" x="35.823" y="24.964"/><use xlink:href="#i" x="31.099" y="36.636"/><use xlink:href="#i" x="34.088" y="36.636"/><use xlink:href="#i" x="37.077" y="36.636"/><use xlink:href="#f" x="29.575" y="51.082"/><use xlink:href="#j" x="35.553" y="53.856"/><use xlink:href="#k" x="41.589" y="14.637"/><use xlink:href="#l" x="41.589" y="23.338"/><use xlink:href="#l" x="41.589" y="31.366"/><g><use xlink:href="#l" x="41.589" y="39.394"/></g><g><use xlink:href="#m" x="41.589" y="52.925"/></g></svg>