<svg xmlns="http://www.w3.org/2000/svg" xmlns:xlink="http://www.w3.org/1999/xlink" width="269pt" height="60" viewBox="0 0 269 45"><defs><symbol overflow="visible" id="a"><path d="M4.594-5.953c-.14-.063-.188-.078-.25-.078-.36 0-.844.328-1.266.937-.406.594-.86 1.25-1.172 1.907h.282L2.5-4.704c.063-.25.14-.531.14-.813 0-.234-.218-.515-.406-.515-.25 0-.812.297-1.703.922l-.39.296.187.485.547-.36c.328-.218.375-.234.469-.234.125 0 .062-.031.062.125 0 .703-.515 3.156-1 4.75l.235.172c.296-.094.562-.156.953-.203l.328-1.563c.219-.984.453-1.53.984-2.203.406-.531.625-.75.89-.75.188 0 .204.032.36.235h.36c.046-.594.109-.97.218-1.532zm0 0"/></symbol><symbol overflow="visible" id="b"><path d="M8.266-4.078a1.419 1.419 0 0 1-.047-.36c0-.109.015-.234.062-.484h-7.5c.063.25.063.375.063.484 0 .125 0 .235-.063.5h7.5zm0 2.625a1.332 1.332 0 0 1-.047-.36c0-.109.015-.234.062-.484h-7.5c.063.25.063.375.063.485 0 .125 0 .25-.063.5h7.5zm0 0"/></symbol><symbol overflow="visible" id="l"><path d="M4.563-8.781l-.188-.14c-.063-.063-.11-.126-.219-.329-1.781 1.781-2.812 3.719-2.812 5.563v1.124c0 1.86 1.031 3.797 2.812 5.579.11-.204.157-.266.219-.329.063-.062.125-.109.313-.203C3.046.844 2.374-.844 2.374-2.562v-1.126c0-1.703.672-3.39 2.313-5.03zm0 0"/></symbol><symbol overflow="visible" id="m"><path d="M3.703-5.516c-.453.047-.86.063-1.156.063.172-.984.297-1.578.531-2.25l-.25-.328a7.16 7.16 0 0 1-1.094.531l-.296 2.031c-.391.203-.704.328-1.063.407l-.047.406h1l-.64 3.25C.625-1.11.53-.813.53-.5c0 .297.266.61.5.61.422 0 .922-.282 1.86-1.032.218-.172.14-.125.437-.36l-.25-.437-.672.469c-.36.25-.484.313-.625.313-.093 0-.031.046-.031-.11 0-.297.156-1.234.516-3l.14-.61h1.266l.203-.89zm0 0"/></symbol><symbol overflow="visible" id="o"><path d="M6.64-.938L4.454-3.124 6.75-5.422c-.219-.14-.313-.219-.406-.297-.078-.093-.157-.187-.313-.39L3.734-3.813 1.438-6.124c-.141.219-.235.313-.313.406a2.97 2.97 0 0 1-.39.297L3.03-3.125.734-.812c.204.125.313.218.391.296.078.079.172.188.313.391l2.296-2.297L6.031-.125c.157-.203.235-.313.313-.39.093-.079.187-.172.406-.297zm0 0"/></symbol><symbol overflow="visible" id="p"><path d="M4.094-2.563v-1.124c0-1.844-1.016-3.782-2.813-5.563-.11.203-.156.266-.218.328-.063.047-.125.094-.313.203 1.64 1.64 2.313 3.328 2.313 5.031v1.126C3.063-.845 2.39.844.75 2.484c.188.094.25.141.313.204.062.062.109.124.218.328 1.797-1.782 2.813-3.72 2.813-5.579zm0 0"/></symbol><symbol overflow="visible" id="q"><path d="M7.063-14.328l-.188-.14c-.063-.063-.11-.126-.219-.329C3.47-11.609 1.563-7.344 1.563-2.516V0h1.234v-2.516c0-4.625 1.344-8.687 4.39-11.75zm0 0"/></symbol><symbol overflow="visible" id="r"><path d="M2.797-.125V-5H1.562v5h1.235zm0 0"/></symbol><symbol overflow="visible" id="s"><path d="M7.063-.563C4.14-3.5 2.796-7.546 2.796-12.187v-2.516H1.562v2.515c0 4.829 1.907 9.094 5.094 12.282.11-.203.157-.266.219-.328.063-.047.125-.094.313-.203zm0 0"/></symbol><symbol overflow="visible" id="t"><path d="M5.078-14.781H1.562V0h1.235v-14.031h2.469c-.079-.203-.094-.281-.094-.375 0-.078.016-.172.094-.375zm0 0"/></symbol><symbol overflow="visible" id="u"><path d="M2.672-9.938h-1.11V0h1.235v-9.938zm0 0"/></symbol><symbol overflow="visible" id="v"><path d="M5.219-.125a.648.648 0 0 1-.047-.25c0-.078.016-.156.094-.36h-2.47V-14.78H1.564V0h3.703zm0 0"/></symbol><symbol overflow="visible" id="x"><path d="M2.516-3.125c0-.422-.407-.844-.844-.844-.422 0-.86.422-.86.844 0 .438.438.86.86.86.437 0 .844-.422.844-.86zm0 0"/></symbol><symbol overflow="visible" id="z"><path d="M8.266-2.766a1.332 1.332 0 0 1-.047-.359c0-.11.015-.234.062-.484h-7.5c.063.25.063.375.063.484 0 .125 0 .25-.063.5h7.5zm0 0"/></symbol><symbol overflow="visible" id="B"><path d="M4.656-.125v-14.656H.953c.078.203.094.297.094.375 0 .094-.016.172-.094.375h2.469V0h1.234zm0 0"/></symbol><symbol overflow="visible" id="C"><path d="M4.656-.125v-9.813H3.422V0h1.234zm0 0"/></symbol><symbol overflow="visible" id="D"><path d="M4.656-.125v-14.656H3.422V-.734H.953c.078.203.094.28.094.359 0 .094-.016.172-.094.375h3.703zm0 0"/></symbol><symbol overflow="visible" id="E"><path d="M6.531-.125v-2.39c0-4.829-1.875-9.094-5.078-12.282-.11.203-.156.266-.219.328-.062.047-.125.094-.312.203 3.062 3.063 4.39 7.125 4.39 11.75V0h1.22zm0 0"/></symbol><symbol overflow="visible" id="F"><path d="M6.531-.125V-5H5.313v5H6.53zm0 0"/></symbol><symbol overflow="visible" id="G"><path d="M6.531-12.188v-2.515H5.313v2.515C5.313-7.546 3.984-3.5.921-.438c.187.11.25.157.312.204.063.062.11.125.22.328C4.655-3.094 6.53-7.36 6.53-12.187zm0 0"/></symbol><symbol overflow="visible" id="c"><path d="M6.234-1.25l-.171-.297-.454.297c-.343.219-.5.313-.625.313-.078 0-.03.03-.03-.11 0-.047.015-.187.03-.234l.782-3.297c.093-.344.14-.688.14-.89 0-.266-.265-.563-.5-.563-.5 0-1.437.5-2.14 1.156-.454.422-.797.828-1.407 1.703l.235.094.453-1.938c.047-.203.078-.343.078-.484 0-.25-.234-.531-.406-.531-.266 0-.828.312-1.703.922l-.391.296.172.485.547-.36c.437-.28.39-.265.469-.265.14 0 .078 0 .078.172 0 .61-.5 2.922-1 4.656l.171.25c.375-.094.641-.172 1.032-.234.234-1.625.468-2.313 1-3.125.656-1.016 1.453-1.72 1.984-1.72.125 0 .063-.015.063.157 0 .219-.032.469-.141.86l-.61 2.53c-.109.438-.156.72-.156.907 0 .297.266.61.5.61.313 0 .829-.282 2.079-1.22zm0 0"/></symbol><symbol overflow="visible" id="d"><path d="M5.047-4.094c0-1.125-.734-1.937-1.719-1.937-.515 0-1.187.25-1.719.625-.968.703-1.546 2-1.546 3.453C.063-.687.734.125 1.734.125c.657 0 1.47-.344 2-.844.75-.703 1.313-2.156 1.313-3.375zm-1.188.203C3.86-2.75 3.531-1.578 3-.937c-.219.25-.422.359-.781.359-.703 0-.969-.406-.969-1.36 0-1.343.422-2.718 1.016-3.203.156-.125.328-.171.609-.171.734 0 .984.406.984 1.421zm0 0"/></symbol><symbol overflow="visible" id="e"><path d="M4.531-4.5c.032-.453.094-.828.203-1.39-.28-.126-.328-.141-.39-.141-.36 0-.844.328-1.266.937-.406.594-.86 1.25-1.172 1.907h.282L2.5-4.704c.063-.25.14-.531.14-.813 0-.234-.218-.515-.406-.515-.25 0-.812.297-1.703.922l-.39.296.187.485.547-.36c.328-.218.375-.234.469-.234.125 0 .062-.031.062.125 0 .703-.515 3.156-1.015 4.75l.25.172c.296-.094.562-.156.953-.203l.328-1.563c.219-.984.453-1.53.984-2.203.406-.531.625-.75.89-.75.188 0 .204.032.36.235h.36zm0 0"/></symbol><symbol overflow="visible" id="f"><path d="M8.938-1.25l-.172-.297-.454.297c-.359.219-.5.313-.624.313-.079 0-.032.03-.032-.11 0-.11.032-.219.094-.469l.89-3.546c.047-.204.079-.407.079-.5 0-.204-.25-.47-.438-.47-.344 0-.906.266-1.64.766-.75.547-1.172.97-1.75 1.782l.234.109.36-1.64c.046-.25.077-.423.077-.5 0-.235-.25-.516-.437-.516-.36 0-1.016.312-1.672.812-.531.407-.765.657-1.547 1.703l.25.094.39-1.594c.048-.187.079-.359.079-.5 0-.234-.25-.515-.406-.515-.266 0-.813.297-1.703.922l-.391.296.172.485.547-.36c.437-.28.39-.265.469-.265.14 0 .078 0 .078.172 0 .61-.5 2.922-.985 4.625l.078.281L1.5-.094l.297-1.328c.281-1.328.562-1.937 1.234-2.656.5-.547.938-.875 1.266-.875.094 0 0-.031 0 .125 0 .422-.25 1.781-.766 3.875l-.187.797.125.281L4.5-.094l.25-1.39c.203-.97.563-1.766 1.094-2.36C6.5-4.563 7-4.954 7.39-4.954c.093 0 .015-.015.015.173 0 .281-.015.453-.312 1.5l-.5 1.875c-.11.328-.157.64-.157.906 0 .297.266.61.5.61.313 0 .829-.282 2.079-1.22zm0 0"/></symbol><symbol overflow="visible" id="g"><path d="M4.984-1.14l-.156-.5c-.25.218-.266.234-.328.28-.375.313-.453.391-.625.391-.125 0-.047.031-.047-.156 0-.047 0-.078.016-.125l1.11-4.578-.25-.219-.438.234c-.438-.156-.672-.218-.985-.218-.344 0-.578.062-.906.218-.75.375-1.234.766-1.531 1.36l-.047.094C.28-3.297-.093-1.875-.093-.922c0 .516.327 1.047.546 1.047.25 0 .797-.281 1.234-.656.516-.453.985-1.016 1.641-1.938l-.234-.094-.344 1.516a2.715 2.715 0 0 0-.078.61c0 .265.25.562.437.562.266 0 .86-.36 1.907-1.219zM3.672-5.079c-.266 1.281-.453 1.797-.844 2.406C2.156-1.656 1.516-.969 1.125-.969c-.14 0-.078-.015-.078-.344 0-.765.297-2.093.719-3.093.296-.688.453-.766 1.03-.766.282 0 .5.047.845.172zm0 0"/></symbol><symbol overflow="visible" id="h"><path d="M2.797-1.25l-.172-.297-.469.297c-.344.234-.5.313-.61.313-.093 0-.03.03-.03-.11s.03-.297.078-.437L3.14-8.813l-.266-.234c-.75.375-1.063.438-2.047.531l-.11.5h.75c.282 0 .266-.046.266.141 0 .156-.046.422-.078.578L.516-1.703C.344-1.093.28-.75.28-.484c0 .28.281.593.5.593.313 0 .86-.296 2.094-1.218zm0 0"/></symbol><symbol overflow="visible" id="i"><path d="M2.969-1.25l-.172-.297-.453.297c-.36.234-.5.313-.625.313-.078 0-.016.03-.016-.11 0-.11 0-.203.078-.469l.922-3.64c.047-.203.063-.313.063-.422 0-.203-.22-.453-.422-.453-.266 0-.797.281-1.703.922l-.407.296.188.485.547-.36c.344-.218.375-.234.484-.234.11 0 .047-.031.047.11 0 .109-.047.359-.094.53L.625-1.405c-.11.375-.156.672-.156.922 0 .28.265.593.5.593.312 0 .844-.296 2.078-1.218zm.344-6.406c0-.282-.313-.61-.563-.61-.36 0-.844.516-.844.922 0 .297.328.625.625.625.375 0 .781-.484.781-.937zm0 0"/></symbol><symbol overflow="visible" id="j"><path d="M4.813-1.953h-.36l-.312.844c-.094.218-.079.171-.329.171-.265 0-.53-.078-.796-.14-.391-.078-.797-.14-1.032-.14-.375 0-.703.077-1.14.25l.094.234 4.078-4.61.093-.484-.25-.25-.375.36c-.125.124-.14.14-.296.14-.407 0-1.032-.094-1.61-.25-.312-.094-.625-.203-.953-.203-.203 0-.438.047-.844.156L.328-4.187h.516l.36-.704c.124-.03.234-.046.39-.046s.297.015.531.062c.406.078.719.125.969.125.437 0 .812-.11 1.203-.313l-.203-.203L-.172-.422l.203.594c.5-.406.735-.484 1.157-.484.296 0 .625.046 1.25.203.718.171 1.093.234 1.406.234.156 0 .25-.016.719-.14.14-.844.25-1.25.406-1.938zm0 0"/></symbol><symbol overflow="visible" id="k"><path d="M4.14-1.234l-.171-.422-.438.312c-.64.453-1.11.657-1.531.657-.578 0-.781-.313-.781-1.047 0-.313.031-.61.078-.844l.86-.219c.202-.047.515-.172.827-.297C4-3.547 4.61-4.219 4.61-4.954c0-.562-.53-1.077-1.14-1.077-.781 0-2.188.843-2.672 1.61C.437-3.845.03-2.313.03-1.47.031-.547.703.125 1.563.125 2.25.125 3-.235 4.171-1.188zm-.702-3.532c0 .516-.266.954-.891 1.25a5.596 5.596 0 0 1-1.125.375l.062-.265c.188-.797.391-1.219.72-1.516.218-.219.515-.344.812-.344.343 0 .421.11.421.5zm0 0"/></symbol><symbol overflow="visible" id="n"><path d="M2.61-4.672l-.22-.203-1.093.39-.89 3.376.312.234.5-.266 1.453-3.468zm0 0"/></symbol><symbol overflow="visible" id="w"><path d="M4.922-4.422l-.172-.125c-.313.11-.547.156-.875.188L3.5-3.063c-.11.407-.406.97-.734 1.391-.329.453-.688.813-.891.813-.219 0-.047-.297-.047-.407l.14-1.718c.032-.282.048-.61.048-.86 0-.406-.22-.687-.391-.687-.125 0-.36.093-.828.39l-.89.547.265.39.64-.358c.047-.032.063-.063.141-.063.25 0 .047.313.047.453L.828-1.016l-.015.344c0 .375.343.766.578.766.359 0 1.28-.781 2-1.782l-.266-.109L2.656-.28c-.5 1.578-.828 2.094-1.5 2.094-.328 0-.453-.11-.453-.422 0-.047.016-.11.047-.266l-.297-.11-.594.376c-.015.14-.015.187-.015.234 0 .375.531.813.969.813 1.015 0 2.218-1.22 2.796-2.86l1.375-3.953zm0 0"/></symbol><symbol overflow="visible" id="y"><path d="M4.203-4.422l-.187-.172-.329.297c-.093.094-.078.094-.218.094-.328 0-.828-.078-1.297-.188-.25-.062-.5-.14-.766-.14-.172 0-.36.015-.718.11L.313-3.095H.78l.297-.531c.078-.031.172-.031.297-.031s.234 0 .438.047c.328.062.578.078.78.078.345 0 .579-.047.891-.203l-.109-.22L-.094-.358l.188.515c.453-.344.61-.39.953-.39.234 0 .516.047 1.016.156.578.125.874.172 1.14.172.11 0 .203-.016.61-.11.124-.656.203-.953.343-1.515h-.5l-.265.672c-.063.156-.016.093-.22.093-.218 0-.437-.062-.64-.109a5.079 5.079 0 0 0-.844-.094c-.312 0-.562.047-.921.188l.109.219 3.313-3.422.078-.391zm0 0"/></symbol><symbol overflow="visible" id="A"><path d="M4.875-4.406c-.125-.063-.313-.125-.406-.125-.39 0-.875.343-1.485 1.172l-.359.484.266.094-.063-.422c-.11-.875-.515-1.328-1.094-1.328-.25 0-.578.093-.656.218l-.656.875.406.22c.36-.376.453-.47.64-.47.313 0 .36.235.532 1.094l.094.531-.328.485C1.344-1 1.14-.75.859-.75c-.14 0-.093.11-.109.063l-.172-.407-.437.063c0 .297-.032.406-.094.687-.016.11-.016.14-.031.266.187.11.468.172.578.172.312 0 .797-.281 1.094-.703l.734-1.032-.266-.109.11.61c.14.765.5 1.234.859 1.234.203 0 .625-.188.938-.438l.53-.437-.202-.438c-.516.39-.641.485-.797.485-.14 0-.172-.047-.266-.235a2.77 2.77 0 0 1-.187-.656l-.188-.86.313-.374c.453-.563.593-.735.89-.735.157 0 .11-.062.235.235l.359-.11.172-.906zm0 0"/></symbol></defs><use xlink:href="#a" x=".082" y="25.173"/><use xlink:href="#b" x="8.319" y="25.173"/><use xlink:href="#c" x="20.736" y="25.173"/><use xlink:href="#d" x="27.383" y="25.173"/><use xlink:href="#e" x="32.691" y="25.173"/><use xlink:href="#f" x="37.342" y="25.173"/><use xlink:href="#g" x="46.643" y="25.173"/><use xlink:href="#h" x="51.951" y="25.173"/><use xlink:href="#i" x="55.275" y="25.173"/><use xlink:href="#j" x="58.598" y="25.173"/><use xlink:href="#k" x="63.906" y="25.173"/><use xlink:href="#l" x="70.549" y="25.173"/><use xlink:href="#m" x="76.001" y="25.173"/><use xlink:href="#n" x="80.041" y="20.941"/><use xlink:href="#o" x="86.268" y="25.173"/><use xlink:href="#m" x="96.418" y="25.173"/><use xlink:href="#p" x="100.459" y="25.173"/><use xlink:href="#b" x="109.234" y="25.173"/><use xlink:href="#c" x="121.641" y="25.173"/><use xlink:href="#d" x="128.288" y="25.173"/><use xlink:href="#e" x="133.596" y="25.173"/><use xlink:href="#f" x="138.247" y="25.173"/><use xlink:href="#g" x="147.548" y="25.173"/><use xlink:href="#h" x="152.856" y="25.173"/><use xlink:href="#i" x="156.18" y="25.173"/><use xlink:href="#j" x="159.503" y="25.173"/><use xlink:href="#k" x="164.811" y="25.173"/><use xlink:href="#q" x="171.454" y="16.307"/><use xlink:href="#r" x="171.454" y="20.523"/><use xlink:href="#r" x="171.454" y="24.552"/><use xlink:href="#r" x="171.454" y="28.58"/><use xlink:href="#s" x="171.454" y="42.504"/><use xlink:href="#t" x="179.572" y="16.379"/><use xlink:href="#u" x="179.572" y="24.067"/><use xlink:href="#u" x="179.572" y="29.986"/><use xlink:href="#v" x="179.572" y="42.504"/><use xlink:href="#m" x="186.341" y="9.745"/><use xlink:href="#n" x="190.381" y="5.512"/><use xlink:href="#w" x="190.322" y="12.518"/><use xlink:href="#x" x="198.541" y="9.745"/><use xlink:href="#m" x="204.543" y="9.745"/><use xlink:href="#y" x="208.526" y="12.518"/><use xlink:href="#z" x="216.143" y="9.745"/><use xlink:href="#m" x="227.883" y="9.745"/><use xlink:href="#n" x="231.926" y="5.512"/><use xlink:href="#y" x="231.867" y="12.518"/><use xlink:href="#x" x="239.484" y="9.745"/><use xlink:href="#m" x="245.486" y="9.745"/><use xlink:href="#w" x="249.469" y="12.518"/><use xlink:href="#m" x="186.403" y="25.074"/><use xlink:href="#n" x="190.443" y="20.842"/><use xlink:href="#y" x="190.384" y="27.847"/><use xlink:href="#x" x="198.001" y="25.074"/><use xlink:href="#m" x="204.003" y="25.074"/><use xlink:href="#A" x="207.986" y="27.847"/><use xlink:href="#z" x="216.143" y="25.074"/><use xlink:href="#m" x="227.883" y="25.074"/><use xlink:href="#n" x="231.926" y="20.842"/><use xlink:href="#A" x="231.867" y="27.847"/><use xlink:href="#x" x="240.024" y="25.074"/><use xlink:href="#m" x="246.026" y="25.074"/><use xlink:href="#y" x="250.009" y="27.847"/><use xlink:href="#m" x="185.801" y="39.52"/><use xlink:href="#n" x="189.841" y="35.287"/><use xlink:href="#A" x="189.782" y="42.293"/><use xlink:href="#x" x="197.939" y="39.52"/><use xlink:href="#m" x="203.941" y="39.52"/><g><use xlink:href="#w" x="207.924" y="42.293"/></g><g><use xlink:href="#z" x="216.143" y="39.52"/></g><g><use xlink:href="#m" x="227.883" y="39.52"/></g><g><use xlink:href="#n" x="231.926" y="35.287"/></g><g><use xlink:href="#w" x="231.867" y="42.293"/></g><g><use xlink:href="#x" x="240.086" y="39.52"/></g><g><use xlink:href="#m" x="246.088" y="39.52"/></g><g><use xlink:href="#A" x="250.071" y="42.293"/></g><g><use xlink:href="#B" x="255.571" y="16.379"/></g><g><use xlink:href="#C" x="255.571" y="24.067"/></g><g><use xlink:href="#C" x="255.571" y="29.986"/></g><g><use xlink:href="#D" x="255.571" y="42.504"/></g><g><use xlink:href="#E" x="261.8" y="16.307"/></g><g><use xlink:href="#F" x="261.8" y="20.523"/></g><g><use xlink:href="#F" x="261.8" y="24.552"/></g><g><use xlink:href="#F" x="261.8" y="28.58"/></g><g><use xlink:href="#G" x="261.8" y="42.504"/></g></svg>