<svg xmlns="http://www.w3.org/2000/svg" xmlns:xlink="http://www.w3.org/1999/xlink" width="177px" height="40" viewBox="0 0 133 30"><svg overflow="visible" x=".055" y="17.562"><path d="M5.875-8.86l-.219-.187c-.75.375-1.078.438-2.062.531l-.094.5h.75c.281 0 .25-.046.25.157 0 .109 0 .203-.016.296L4.188-5.89a3.109 3.109 0 00-.875-.14c-.829 0-2.063.906-2.61 1.937-.375.703-.64 1.938-.64 2.938C.063-.375.374.125.734.125c.313 0 .86-.234 1.266-.563.64-.515 1.031-.984 1.844-2.187l-.25-.094-.266 1.078c-.14.532-.203.907-.203 1.22 0 .25.25.546.453.546.219 0 .594-.203 1-.5l1.047-.766-.266-.468-.656.468c-.172.125-.25.172-.36.172-.093 0-.046.031-.046-.14 0-.094.031-.204.11-.547l1.515-7.157zM4.031-5.03l-.14.703A5.233 5.233 0 012.375-1.61c-.422.39-.781.64-1.016.64-.187 0-.171-.031-.171-.328 0-1.516.515-3.281 1.109-3.734.156-.125.281-.14.61-.14.53 0 .765.03 1.109.218zm0 0"/></svg><svg overflow="visible" x="9.476" y="17.562"><path d="M8.266-4.078a1.419 1.419 0 01-.047-.36c0-.109.015-.234.062-.484h-7.5c.063.25.063.375.063.484 0 .125 0 .235-.063.5h7.5zm0 2.625a1.332 1.332 0 01-.047-.36c0-.109.015-.234.062-.484h-7.5c.063.25.063.375.063.485 0 .125 0 .25-.063.5h7.5zm0 0"/></svg><svg overflow="visible" x="21.885" y="17.562"><path d="M5.89 10.797c-1.374-.375-1.796-1.485-1.796-3.203V.437c0-1.921-.766-3.218-1.782-3.687v.266c1.016-.47 1.782-1.766 1.782-3.704v-7.14c0-1.719.422-2.828 1.984-3.25-.125-.235-.125-.235-.156-.297-.016-.094-.016-.172-.016-.406-1.812.468-3.031 1.843-3.031 3.953v7.14c0 2.079-.36 3.204-1.922 3.204.078.203.094.28.094.359 0 .094-.016.172-.094.375 1.563 0 1.922 1.125 1.922 3.188v7.156c0 2.093 1.219 3.468 3.031 3.968 0-.25 0-.343.016-.421.031-.079.031-.063.156-.297zm0 0"/></svg><svg overflow="visible" x="38.02" y="8.745"><path d="M5.875-8.86l-.219-.187c-.75.375-1.078.438-2.062.531l-.094.5h.75c.281 0 .25-.046.25.157 0 .109 0 .203-.016.296L4.188-5.89a3.109 3.109 0 00-.875-.14c-.829 0-2.063.906-2.61 1.937-.375.703-.64 1.938-.64 2.938C.063-.375.374.125.734.125c.313 0 .86-.234 1.266-.563.64-.515 1.031-.984 1.844-2.187l-.25-.094-.266 1.078c-.14.532-.203.907-.203 1.22 0 .25.25.546.453.546.219 0 .594-.203 1-.5l1.047-.766-.266-.468-.656.468c-.172.125-.25.172-.36.172-.093 0-.046.031-.046-.14 0-.094.031-.204.11-.547l1.515-7.157zM4.031-5.03l-.14.703A5.233 5.233 0 012.375-1.61c-.422.39-.781.64-1.016.64-.187 0-.171-.031-.171-.328 0-1.516.515-3.281 1.109-3.734.156-.125.281-.14.61-.14.53 0 .765.03 1.109.218zm0 0"/></svg><svg overflow="visible" x="47.118" y="8.745"><path d="M.234-4.766l.157.47.593-.391c.36-.22.36-.235.47-.235.109 0 .015-.031.015.11 0 .109-.047.359-.094.53L.578-1.405c-.094.375-.14.672-.14.922 0 .28.296.593.53.593.313 0 .876-.296 2.11-1.218l-.265-.47-.5.329c-.36.234-.47.313-.594.313-.078 0 .015.03.015-.11 0-.11.016-.203.079-.469l.921-3.64c.047-.203.079-.313.079-.422 0-.203-.266-.453-.47-.453-.265 0-.827.281-1.734.922l-.39.296zm1.641-2.578c0 .297.36.625.656.625.375 0 .813-.484.813-.937 0-.282-.344-.61-.594-.61-.36 0-.875.516-.875.922zm0 0"/></svg><svg overflow="visible" x="50.442" y="8.745"><path d="M-2.063 3.172c.11.062.407.125.547.125.485 0 1.25-.406 1.72-.969.734-.86 1.03-1.781 1.905-5.984.063-.297.157-.656.204-.922h1.234c.094-.36.172-.64.25-.797l-.156-.25-.157.063c-.28.078-.406.078-1 .078l.235-1.204c.187-1.03.36-1.359.906-1.359.36 0 .547.14.781.5l.344-.125.297-.89.062-.22a2.246 2.246 0 00-1.015-.25 2 2 0 00-.547.126l.14-.031c-.296.124-1.406.89-1.671 1.187-.266.25-.47.703-.594 1.39l-.172.891c-.313.157-.563.25-1.016.407l-.109.484h.969l-.078.531C.64-1.703.219.516-.047 1.343c-.234.704-.39.938-.828.938-.266 0-.297-.047-.547-.375l-.406.11c-.063.375-.188.859-.313 1.109zm0 0"/></svg><svg overflow="visible" x="56.754" y="8.745"><path d="M5.688-4.5c0-2.625-.907-4-2.547-4C1.297-8.5.203-6.89.203-4c0 1.39.281 2.703.703 3.281.422.594 1.203.953 1.938.953 1.812 0 2.844-1.687 2.844-4.734zm-1.282.594C4.406-1.36 4.094-.437 3-.437c-1.156 0-1.516-1.079-1.516-4 0-2.516.313-3.375 1.438-3.375 1.172 0 1.484 1.03 1.484 3.906zm0 0"/></svg><svg overflow="visible" x="66.043" y="8.745"><path d="M8.328-.813a3.29 3.29 0 01-.031-.39c0-.14.015-.266.047-.469l-6.39-2.656v.266l6.39-2.657a2.946 2.946 0 01-.047-.468c0-.125.015-.266.062-.61L.797-4.625c.047.188.047.313.047.422 0 .125 0 .25-.047.437L8.359-.594zm0 2.032c-.015-.125-.031-.235-.031-.36s.015-.25.062-.484H.781c.063.234.063.36.063.484 0 .125 0 .235-.063.485H8.36zm0 0"/></svg><svg overflow="visible" x="78.524" y="8.745"><path d="M7.36-3.922c.046-1.14-.907-2-2.25-2.062C5.03-6 4.952-6 5.061-6.031c.141-.61.25-1.094.47-1.64L5.296-8a5.123 5.123 0 01-1.094.453l-.281 1.64c-.25.063-.61.188-.985.345C1.516-4.938.563-3.625.517-2.11.469-.83 1.344.03 2.719.094c.078 0 .156.015.047.031l-.594 2.5-.125.484.187.188c.297-.094.532-.14 1.032-.172l.578-3.11a5.939 5.939 0 001.594-.609c1.078-.656 1.89-2.094 1.921-3.328zm-1.173.125c-.046 1.172-.703 2.328-1.53 2.906-.266.172-.485.25-.688.266l.047-.188.25-1.265.546-2.688.094-.484c.89.11 1.297.547 1.282 1.453zM3.829-5.422L2.906-.64c-.953-.156-1.25-.546-1.219-1.421.032-1.344.782-2.641 1.704-3.094l.093-.032c.157-.078.25-.078.313-.078zm0 0"/></svg><svg overflow="visible" x="89.463" y="8.745"><path d="M8.328-.813a3.29 3.29 0 01-.031-.39c0-.14.015-.266.047-.469l-6.39-2.656v.266l6.39-2.657a2.946 2.946 0 01-.047-.468c0-.125.015-.266.062-.61L.797-4.625c.047.188.047.313.047.422 0 .125 0 .25-.047.437L8.359-.594zm0 2.032c-.015-.125-.031-.235-.031-.36s.015-.25.062-.484H.781c.063.234.063.36.063.484 0 .125 0 .235-.063.485H8.36zm0 0"/></svg><svg overflow="visible" x="101.945" y="8.745"><path d="M8.516-5.969l-.11-.218c-.39.14-.922.265-1.312.265-.157 0-.453.016-.766.016l-3.766-.11c-.89 0-1.374.532-1.734 1.625l.313.188.218-.14c.297-.813.641-.72 1.313-.72.156 0 .36.016.422.016C2.109-2.453 1.688-1.719.64-.078l.234.234 1-.36A44.196 44.196 0 003.75-5.015l1.969.063c-.188.61-.907 2.781-.907 3.547-.015 1.25.594 1.531.954 1.531.625 0 1.046-.188 1.89-.86l-.203-.468L7-.906l.203.187c.031-.015-.406.031-.61.031-.562 0-.609-.218-.593-.968 0-.297.031-.61.094-.969l.515-2.328c.188 0 .454 0 .735-.047.203 0 .468-.11.734-.219.172-.25.219-.281.5-.656zm0 0"/></svg><svg overflow="visible" x="28.934" y="26.179"><path d="M8.266-2.766a1.332 1.332 0 01-.047-.359c0-.11.015-.234.062-.484h-7.5c.063.25.063.375.063.484 0 .125 0 .25-.063.5h7.5zm0 0"/></svg><svg overflow="visible" x="38.02" y="26.179"><path d="M5.875-8.86l-.219-.187c-.75.375-1.078.438-2.062.531l-.094.5h.75c.281 0 .25-.046.25.157 0 .109 0 .203-.016.296L4.188-5.89a3.109 3.109 0 00-.875-.14c-.829 0-2.063.906-2.61 1.937-.375.703-.64 1.938-.64 2.938C.063-.375.374.125.734.125c.313 0 .86-.234 1.266-.563.64-.515 1.031-.984 1.844-2.187l-.25-.094-.266 1.078c-.14.532-.203.907-.203 1.22 0 .25.25.546.453.546.219 0 .594-.203 1-.5l1.047-.766-.266-.468-.656.468c-.172.125-.25.172-.36.172-.093 0-.046.031-.046-.14 0-.094.031-.204.11-.547l1.515-7.157zM4.031-5.03l-.14.703A5.233 5.233 0 012.375-1.61c-.422.39-.781.64-1.016.64-.187 0-.171-.031-.171-.328 0-1.516.515-3.281 1.109-3.734.156-.125.281-.14.61-.14.53 0 .765.03 1.109.218zm0 0"/></svg><svg overflow="visible" x="47.118" y="26.179"><path d="M.234-4.766l.157.47.593-.391c.36-.22.36-.235.47-.235.109 0 .015-.031.015.11 0 .109-.047.359-.094.53L.578-1.405c-.094.375-.14.672-.14.922 0 .28.296.593.53.593.313 0 .876-.296 2.11-1.218l-.265-.47-.5.329c-.36.234-.47.313-.594.313-.078 0 .015.03.015-.11 0-.11.016-.203.079-.469l.921-3.64c.047-.203.079-.313.079-.422 0-.203-.266-.453-.47-.453-.265 0-.827.281-1.734.922l-.39.296zm1.641-2.578c0 .297.36.625.656.625.375 0 .813-.484.813-.937 0-.282-.344-.61-.594-.61-.36 0-.875.516-.875.922zm0 0"/></svg><svg overflow="visible" x="50.442" y="26.179"><path d="M-2.063 3.172c.11.062.407.125.547.125.485 0 1.25-.406 1.72-.969.734-.86 1.03-1.781 1.905-5.984.063-.297.157-.656.204-.922h1.234c.094-.36.172-.64.25-.797l-.156-.25-.157.063c-.28.078-.406.078-1 .078l.235-1.204c.187-1.03.36-1.359.906-1.359.36 0 .547.14.781.5l.344-.125.297-.89.062-.22a2.246 2.246 0 00-1.015-.25 2 2 0 00-.547.126l.14-.031c-.296.124-1.406.89-1.671 1.187-.266.25-.47.703-.594 1.39l-.172.891c-.313.157-.563.25-1.016.407l-.109.484h.969l-.078.531C.64-1.703.219.516-.047 1.343c-.234.704-.39.938-.828.938-.266 0-.297-.047-.547-.375l-.406.11c-.063.375-.188.859-.313 1.109zm0 0"/></svg><svg overflow="visible" x="56.754" y="26.179"><path d="M7.36-3.922c.046-1.14-.907-2-2.25-2.062C5.03-6 4.952-6 5.061-6.031c.141-.61.25-1.094.47-1.64L5.296-8a5.123 5.123 0 01-1.094.453l-.281 1.64c-.25.063-.61.188-.985.345C1.516-4.938.563-3.625.517-2.11.469-.83 1.344.03 2.719.094c.078 0 .156.015.047.031l-.594 2.5-.125.484.187.188c.297-.094.532-.14 1.032-.172l.578-3.11a5.939 5.939 0 001.594-.609c1.078-.656 1.89-2.094 1.921-3.328zm-1.173.125c-.046 1.172-.703 2.328-1.53 2.906-.266.172-.485.25-.688.266l.047-.188.25-1.265.546-2.688.094-.484c.89.11 1.297.547 1.282 1.453zM3.829-5.422L2.906-.64c-.953-.156-1.25-.546-1.219-1.421.032-1.344.782-2.641 1.704-3.094l.093-.032c.157-.078.25-.078.313-.078zm0 0"/></svg><svg overflow="visible" x="67.681" y="26.179"><path d="M8.344.625c-.031-.14-.031-.266-.031-.39 0-.141 0-.266.046-.47L1.891-3.25v.266L8.359-6c-.046-.203-.046-.328-.046-.469 0-.125 0-.265.062-.61L.797-3.546c.047.188.047.313.047.422 0 .125 0 .25-.047.438L8.375.842zm0 0"/></svg><svg overflow="visible" x="80.174" y="26.179"><path d="M5.688-4.5c0-2.625-.907-4-2.547-4C1.297-8.5.203-6.89.203-4c0 1.39.281 2.703.703 3.281.422.594 1.203.953 1.938.953 1.812 0 2.844-1.687 2.844-4.734zm-1.282.594C4.406-1.36 4.094-.437 3-.437c-1.156 0-1.516-1.079-1.516-4 0-2.516.313-3.375 1.438-3.375 1.172 0 1.484 1.03 1.484 3.906zm0 0"/></svg><svg overflow="visible" x="88.806" y="26.179"><path d="M8.125-6.844a1.669 1.669 0 01-.39.047c-.126 0-.266-.016-.47-.047L4.407-.422h.266l-2.86-6.422a2.946 2.946 0 01-.468.047c-.125 0-.25-.016-.61-.094L4.11.688C4.297.64 4.422.64 4.547.64c.11 0 .234 0 .406.046l3.39-7.578zm0 0"/></svg><g><svg overflow="visible" x="100.558" y="26.179"><path d="M7.36-3.922c.046-1.14-.907-2-2.25-2.062C5.03-6 4.952-6 5.061-6.031c.141-.61.25-1.094.47-1.64L5.296-8a5.123 5.123 0 01-1.094.453l-.281 1.64c-.25.063-.61.188-.985.345C1.516-4.938.563-3.625.517-2.11.469-.83 1.344.03 2.719.094c.078 0 .156.015.047.031l-.594 2.5-.125.484.187.188c.297-.094.532-.14 1.032-.172l.578-3.11a5.939 5.939 0 001.594-.609c1.078-.656 1.89-2.094 1.921-3.328zm-1.173.125c-.046 1.172-.703 2.328-1.53 2.906-.266.172-.485.25-.688.266l.047-.188.25-1.265.546-2.688.094-.484c.89.11 1.297.547 1.282 1.453zM3.829-5.422L2.906-.64c-.953-.156-1.25-.546-1.219-1.421.032-1.344.782-2.641 1.704-3.094l.093-.032c.157-.078.25-.078.313-.078zm0 0"/></svg></g><g><svg overflow="visible" x="111.485" y="26.179"><path d="M8.344-2.766c-.031-.109-.031-.234-.031-.359 0-.11 0-.234.046-.422L.781-7.078c.063.344.063.484.063.61 0 .14 0 .265-.047.468L7.28-2.984v-.266L.797-.234c.047.203.047.328.047.468 0 .125 0 .25-.063.61L8.36-2.687zm0 0"/></svg></g><g><svg overflow="visible" x="123.978" y="26.179"><path d="M8.516-5.969l-.11-.218c-.39.14-.922.265-1.312.265-.157 0-.453.016-.766.016l-3.766-.11c-.89 0-1.374.532-1.734 1.625l.313.188.218-.14c.297-.813.641-.72 1.313-.72.156 0 .36.016.422.016C2.109-2.453 1.688-1.719.64-.078l.234.234 1-.36A44.196 44.196 0 003.75-5.015l1.969.063c-.188.61-.907 2.781-.907 3.547-.015 1.25.594 1.531.954 1.531.625 0 1.046-.188 1.89-.86l-.203-.468L7-.906l.203.187c.031-.015-.406.031-.61.031-.562 0-.609-.218-.593-.968 0-.297.031-.61.094-.969l.515-2.328c.188 0 .454 0 .735-.047.203 0 .468-.11.734-.219.172-.25.219-.281.5-.656zm0 0"/></svg></g></svg>