<svg xmlns="http://www.w3.org/2000/svg" xmlns:xlink="http://www.w3.org/1999/xlink" width="147px" height="49px" viewBox="0 0 110 37"><svg overflow="visible" x="-1.046" y="21.554"><path d="M9.219 14.5c0-.125-.281-.39-.39-.422-1.657-.61-2.642-2.281-2.642-3.75V1.36c0-1.75-1.484-3.671-3.03-4.484 1.546-.797 3.03-2.719 3.03-4.484v-8.954c0-1.468.985-3.14 2.641-3.75.11-.046.39-.296.39-.421 0-.172-.343-.453-.5-.453-.046 0-.077.015-.109.03-2.015.735-4.03 2.782-4.03 4.595v8.953c0 1.64-.954 3.468-2.626 4.078-.11.031-.406.281-.406.406 0 .14.297.39.406.422 1.672.61 2.625 2.422 2.625 4.062v8.97c0 1.796 2.016 3.858 4.031 4.593.032 0 .063.015.11.015.156 0 .5-.265.5-.437zm0 0"/></svg><svg overflow="visible" x="9.737" y="12.737"><path d="M5.328-1.406c0-.078-.266-.297-.328-.297-.063 0-.234.062-.297.156C3.75-.359 2.593-.39 2.453-.39c-.937 0-.844-.875-.844-1.265 0-.14 0-.5.141-1.11h.484c.344 0 1.235-.015 1.829-.265.843-.36 1.093-1.203 1.093-1.375 0-.516-.656-1.14-1.468-1.14-1.329 0-3.344 1.296-3.344 3.39C.344-.937 1.25.125 2.422.125c1.719 0 2.906-1.39 2.906-1.531zm-.969-3c0 1.25-1.703 1.125-2.203 1.125h-.25c.422-1.688 1.469-1.735 1.782-1.735.562 0 .671.204.671.61zm0 0"/></svg><svg overflow="visible" x="15.309" y="15.69"><path d="M4.172-.156v-.469H3.64c-.829 0-.625.063-.625-.219v-4.64c0-.235-.235-.391-.563-.391-.578.578-1.203.531-1.75.531v.625c.406 0 1.11-.047 1.219-.11v3.985c0 .281.203.219-.625.219H.766v.64L2.469-.03l1.703.047zm0 0"/></svg><svg overflow="visible" x="23.89" y="12.737"><path d="M8.828-4.281c0-.125-.312-.375-.437-.375H.906c-.125 0-.437.25-.437.375 0 .14.312.375.437.375h7.485c.125 0 .437-.235.437-.375zm0 2.328c0-.14-.312-.375-.437-.375H.906c-.125 0-.437.234-.437.375 0 .125.312.36.437.36h7.485c.125 0 .437-.235.437-.36zm0 0"/></svg><svg overflow="visible" x="36.503" y="12.737"><path d="M9.234-6.64c0-.891-.984-1.782-2.421-1.782H2.796c-.235 0-.547.125-.547.36 0 .14.313.265.531.265l.14-.031s.11.031.313.062c.22.016.125-.093.125.063 0 .047-.015.078-.046.219l-1.61 6.421c-.11.47.063.422-.875.422-.203 0-.531.141-.531.375 0 .141.312.266.531.266h4.266c1.89 0 3.484-1.547 3.484-2.719 0-.86-.875-1.687-2.047-1.812v.265c1.25-.234 2.703-1.25 2.703-2.375zM7.75-6.689c0 1.047-.828 2.047-2.281 2.047H3.937l.72-2.828c.093-.422-.063-.328.452-.328h1.532c1.062 0 1.109.578 1.109 1.11zm-.672 3.844c0 1.188-.86 2.203-2.266 2.203h-1.89c-.125-.015.031.11.031 0 0-.03 0-.046.063-.265l.78-3.203h2.11c1.14 0 1.172.75 1.172 1.265zm0 0"/></svg><svg overflow="visible" x="48.542" y="12.737"><path d="M8.828-3.125c0-.125-.312-.36-.437-.36H5.078v-3.374c0-.141-.297-.375-.422-.375-.14 0-.453.234-.453.375v3.375H.906c-.125 0-.437.234-.437.359 0 .14.312.375.437.375h3.297V.625c0 .125.313.36.453.36.125 0 .422-.235.422-.36V-2.75h3.313c.125 0 .437-.234.437-.375zm0 0"/></svg><svg overflow="visible" x="60.497" y="12.737"><path d="M4.14-5.156c0-.125-.312-.266-.53-.266H2.78c.39-1.562.453-1.797.453-1.875 0-.203-.328-.453-.53-.453-.032 0-.579.14-.688.563l-.422 1.765H.64c-.25 0-.563.14-.563.36 0 .156.297.28.531.28h.813C.594-1.515.547-1.311.547-1.093c0 .64.656 1.219 1.312 1.219 1.22 0 2.079-1.875 2.079-1.969 0-.11-.282-.25-.329-.25-.109 0-.328.172-.375.297C2.72-.547 2.281-.39 1.875-.39c-.25 0-.172-.03-.172-.421 0-.282.016-.375.063-.579l.859-3.39h.953c.25 0 .563-.125.563-.375zm0 0"/></svg><svg overflow="visible" x="67.467" y="12.737"><path d="M2.484-3.125c0-.344-.468-.766-.828-.766-.343 0-.828.422-.828.766 0 .36.485.766.828.766.36 0 .828-.407.828-.766zm0 0"/></svg><svg overflow="visible" x="73.444" y="12.737"><path d="M6.297-8.203s-.125-.36-.281-.36c-.188 0-1.313.11-1.516.141-.094 0-.375.203-.375.36 0 .14.313.265.484.265.579 0 .407-.047.407.078l-.047.235-.719 2.828h.406c-.218-.438-.765-.89-1.297-.89-1.406 0-3.078 1.89-3.078 3.64 0 1.125.86 2.031 1.781 2.031.25 0 .97-.078 1.422-.61.032.094.657.61 1.22.61.421 0 .827-.297 1.015-.688l.062-.093c.203-.438.297-1.094.297-1.094l.063-.094c0-.11-.297-.25-.329-.25-.125 0-.343.188-.375.344-.203.781-.218 1.36-.703 1.36-.328 0-.171-.188-.171-.422 0-.282.03-.375.078-.579l1.718-6.906zm-2.188 4.11c0 .062-.015.14-.03.202l-.595 2.344c-.062.203 0 .14-.187.344-.531.656-.875.812-1.203.812-.594 0-.578-.53-.578-1 0-.593.328-1.968.593-2.515.375-.703.782-1.11 1.266-1.11.766 0 .734.844.734.922zm0 0"/></svg><svg overflow="visible" x="9.737" y="30.172"><path d="M5.328-1.406c0-.078-.266-.297-.328-.297-.063 0-.234.062-.297.156C3.75-.359 2.593-.39 2.453-.39c-.937 0-.844-.875-.844-1.265 0-.14 0-.5.141-1.11h.484c.344 0 1.235-.015 1.829-.265.843-.36 1.093-1.203 1.093-1.375 0-.516-.656-1.14-1.468-1.14-1.329 0-3.344 1.296-3.344 3.39C.344-.937 1.25.125 2.422.125c1.719 0 2.906-1.39 2.906-1.531zm-.969-3c0 1.25-1.703 1.125-2.203 1.125h-.25c.422-1.688 1.469-1.735 1.782-1.735.562 0 .671.204.671.61zm0 0"/></svg><svg overflow="visible" x="15.309" y="33.125"><path d="M4.234-1.844H3.75c-.047.344-.063.735-.172.813-.062.047-.562 0-.687 0H1.812c.563-.5.86-.735 1.36-1.125.625-.5 1.265-1.14 1.265-1.938 0-1-1.093-1.781-2.171-1.781-1.032 0-1.954.89-1.954 1.656 0 .422.579.625.657.625.203 0 .656-.297.656-.61 0-.14-.266-.593-.422-.593.188-.437.547-.469.938-.469.843 0 1.062.5 1.062 1.172 0 .735-.453 1.203-.719 1.5l-2.03 2C.374-.516.311-.39.311 0h3.844l.313-1.844zm0 0"/></svg><svg overflow="visible" x="23.89" y="30.172"><path d="M8.828-4.281c0-.125-.312-.375-.437-.375H.906c-.125 0-.437.25-.437.375 0 .14.312.375.437.375h7.485c.125 0 .437-.235.437-.375zm0 2.328c0-.14-.312-.375-.437-.375H.906c-.125 0-.437.234-.437.375 0 .125.312.36.437.36h7.485c.125 0 .437-.235.437-.36zm0 0"/></svg><svg overflow="visible" x="36.503" y="30.172"><path d="M9.234-6.64c0-.891-.984-1.782-2.421-1.782H2.796c-.235 0-.547.125-.547.36 0 .14.313.265.531.265l.14-.031s.11.031.313.062c.22.016.125-.093.125.063 0 .047-.015.078-.046.219l-1.61 6.421c-.11.47.063.422-.875.422-.203 0-.531.141-.531.375 0 .141.312.266.531.266h4.266c1.89 0 3.484-1.547 3.484-2.719 0-.86-.875-1.687-2.047-1.812v.265c1.25-.234 2.703-1.25 2.703-2.375zM7.75-6.689c0 1.047-.828 2.047-2.281 2.047H3.937l.72-2.828c.093-.422-.063-.328.452-.328h1.532c1.062 0 1.109.578 1.109 1.11zm-.672 3.844c0 1.188-.86 2.203-2.266 2.203h-1.89c-.125-.015.031.11.031 0 0-.03 0-.046.063-.265l.78-3.203h2.11c1.14 0 1.172.75 1.172 1.265zm0 0"/></svg><svg overflow="visible" x="48.542" y="30.172"><path d="M8.828-3.125c0-.125-.312-.36-.437-.36H.906c-.125 0-.437.235-.437.36 0 .14.312.375.437.375h7.485c.125 0 .437-.234.437-.375zm0 0"/></svg><svg overflow="visible" x="60.497" y="30.172"><path d="M4.156 2.719c0-.047-.078-.172-.11-.203-1.234-.922-2-3.22-2-5.141v-1c0-1.906.767-4.203 2-5.14a.457.457 0 00.11-.188c0-.063-.25-.25-.312-.25a1.01 1.01 0 00-.203.062C2.312-8.156 1-5.67 1-3.625v1C1-.578 2.313 1.906 3.64 2.906c.016.016.188.063.204.063.062 0 .312-.203.312-.25zm0 0"/></svg><svg overflow="visible" x="65.147" y="30.172"><path d="M5.203-.125v-.516h-.578c-1.078 0-.922 0-.922-.437v-6.703c0-.282-.187-.438-.578-.438-.766.797-1.672.766-2.266.766v.625c.438 0 1.282-.031 1.563-.172v5.922c0 .437.172.437-.906.437H.937v.672C1.547-.03 2.595-.03 3.079-.03c.469 0 1.516 0 2.125.062zm0 0"/></svg><svg overflow="visible" x="73.779" y="30.172"><path d="M8.828-3.125c0-.125-.312-.36-.437-.36H.906c-.125 0-.437.235-.437.36 0 .14.312.375.437.375h7.485c.125 0 .437-.234.437-.375zm0 0"/></svg><svg overflow="visible" x="85.734" y="30.172"><path d="M4.14-5.156c0-.125-.312-.266-.53-.266H2.78c.39-1.562.453-1.797.453-1.875 0-.203-.328-.453-.53-.453-.032 0-.579.14-.688.563l-.422 1.765H.64c-.25 0-.563.14-.563.36 0 .156.297.28.531.28h.813C.594-1.515.547-1.311.547-1.093c0 .64.656 1.219 1.312 1.219 1.22 0 2.079-1.875 2.079-1.969 0-.11-.282-.25-.329-.25-.109 0-.328.172-.375.297C2.72-.547 2.281-.39 1.875-.39c-.25 0-.172-.03-.172-.421 0-.282.016-.375.063-.579l.859-3.39h.953c.25 0 .563-.125.563-.375zm0 0"/></svg><svg overflow="visible" x="90.05" y="30.172"><path d="M3.64-2.625v-1c0-2.047-1.328-4.531-2.64-5.516a.774.774 0 00-.203-.062c-.063 0-.313.187-.313.25 0 .031.079.172.094.187 1.25.938 2.016 3.235 2.016 5.141v1c0 1.922-.766 4.219-2.016 5.14-.015.032-.094.157-.094.204 0 .047.25.25.313.25A.774.774 0 001 2.906c1.313-1 2.64-3.484 2.64-5.531zm0 0"/></svg><g><svg overflow="visible" x="97.367" y="30.172"><path d="M2.484-3.125c0-.344-.468-.766-.828-.766-.343 0-.828.422-.828.766 0 .36.485.766.828.766.36 0 .828-.407.828-.766zm0 0"/></svg></g><g><svg overflow="visible" x="103.344" y="30.172"><path d="M6.297-8.203s-.125-.36-.281-.36c-.188 0-1.313.11-1.516.141-.094 0-.375.203-.375.36 0 .14.313.265.484.265.579 0 .407-.047.407.078l-.047.235-.719 2.828h.406c-.218-.438-.765-.89-1.297-.89-1.406 0-3.078 1.89-3.078 3.64 0 1.125.86 2.031 1.781 2.031.25 0 .97-.078 1.422-.61.032.094.657.61 1.22.61.421 0 .827-.297 1.015-.688l.062-.093c.203-.438.297-1.094.297-1.094l.063-.094c0-.11-.297-.25-.329-.25-.125 0-.343.188-.375.344-.203.781-.218 1.36-.703 1.36-.328 0-.171-.188-.171-.422 0-.282.03-.375.078-.579l1.718-6.906zm-2.188 4.11c0 .062-.015.14-.03.202l-.595 2.344c-.062.203 0 .14-.187.344-.531.656-.875.812-1.203.812-.594 0-.578-.53-.578-1 0-.593.328-1.968.593-2.515.375-.703.782-1.11 1.266-1.11.766 0 .734.844.734.922zm0 0"/></svg></g></svg>