<svg xmlns="http://www.w3.org/2000/svg" xmlns:xlink="http://www.w3.org/1999/xlink" width="249px" height="55px" viewBox="0 0 187 41"><svg overflow="visible" x="-.243" y="23.29"><path d="M8.828-4.281c0-.125-.312-.375-.437-.375H.906c-.125 0-.437.25-.437.375 0 .14.312.375.437.375h7.485c.125 0 .437-.235.437-.375zm0 2.328c0-.14-.312-.375-.437-.375H.906c-.125 0-.437.234-.437.375 0 .125.312.36.437.36h7.485c.125 0 .437-.235.437-.36zm0 0"/></svg><svg overflow="visible" x="12.37" y="23.29"><path d="M3.938 3.203c0-.14-.297-.375-.454-.375h-.859v-11.89h.86c.156 0 .453-.235.453-.376 0-.156-.297-.39-.454-.39H1.72V3.578h1.765c.157 0 .454-.234.454-.375zm0 0"/></svg><svg overflow="visible" x="16.445" y="23.19"><path d="M5.203-.125v-.516h-.578c-1.078 0-.922 0-.922-.437v-6.703c0-.282-.187-.438-.578-.438-.766.797-1.672.766-2.266.766v.625c.438 0 1.282-.031 1.563-.172v5.922c0 .437.172.437-.906.437H.937v.672C1.547-.03 2.595-.03 3.079-.03c.469 0 1.516 0 2.125.062zm0 0"/></svg><svg overflow="visible" x="32.381" y="23.19"><path d="M4.14-5.156c0-.125-.312-.266-.53-.266H2.78c.39-1.562.453-1.797.453-1.875 0-.203-.328-.453-.53-.453-.032 0-.579.14-.688.563l-.422 1.765H.64c-.25 0-.563.14-.563.36 0 .156.297.28.531.28h.813C.594-1.515.547-1.311.547-1.093c0 .64.656 1.219 1.312 1.219 1.22 0 2.079-1.875 2.079-1.969 0-.11-.282-.25-.329-.25-.109 0-.328.172-.375.297C2.72-.547 2.281-.39 1.875-.39c-.25 0-.172-.03-.172-.421 0-.282.016-.375.063-.579l.859-3.39h.953c.25 0 .563-.125.563-.375zm0 0"/></svg><svg overflow="visible" x="46.656" y="23.19"><path d="M4.14-5.156c0-.125-.312-.266-.53-.266H2.78c.39-1.562.453-1.797.453-1.875 0-.203-.328-.453-.53-.453-.032 0-.579.14-.688.563l-.422 1.765H.64c-.25 0-.563.14-.563.36 0 .156.297.28.531.28h.813C.594-1.515.547-1.311.547-1.093c0 .64.656 1.219 1.312 1.219 1.22 0 2.079-1.875 2.079-1.969 0-.11-.282-.25-.329-.25-.109 0-.328.172-.375.297C2.72-.547 2.281-.39 1.875-.39c-.25 0-.172-.03-.172-.421 0-.282.016-.375.063-.579l.859-3.39h.953c.25 0 .563-.125.563-.375zm0 0"/></svg><svg overflow="visible" x="50.979" y="18.85"><path d="M4.234-1.844H3.75c-.047.344-.063.735-.172.813-.062.047-.562 0-.687 0H1.812c.563-.5.86-.735 1.36-1.125.625-.5 1.265-1.14 1.265-1.938 0-1-1.093-1.781-2.171-1.781-1.032 0-1.954.89-1.954 1.656 0 .422.579.625.657.625.203 0 .656-.297.656-.61 0-.14-.266-.593-.422-.593.188-.437.547-.469.938-.469.843 0 1.062.5 1.062 1.172 0 .735-.453 1.203-.719 1.5l-2.03 2C.374-.516.311-.39.311 0h3.844l.313-1.844zm0 0"/></svg><svg overflow="visible" x="56.239" y="23.29"><path d="M2.14-9.828H.579c-.14 0-.453.234-.453.39 0 .141.313.376.453.376h.86v11.89h-.86c-.14 0-.453.235-.453.375s.313.375.453.375h1.75V-9.828zm0 0"/></svg><svg overflow="visible" x="62.958" y="23.29"><path d="M2.484-3.125c0-.344-.468-.766-.828-.766-.343 0-.828.422-.828.766 0 .36.485.766.828.766.36 0 .828-.407.828-.766zm0 0"/></svg><svg overflow="visible" x="68.935" y="23.29"><path d="M12.672-8.156c0-.14-.313-.266-.516-.266h-1.578c-.312 0-.469.031-.61.266L5.61-1.344l.329.094-.922-6.766c-.047-.28-.266-.406-.563-.406h-1.64c-.235 0-.563.125-.563.36 0 .14.313.265.547.265.156 0 .375.016.515.031.188.016.063-.078.063.063 0 .047-.016.078-.047.219L1.813-1.406c-.125.484-.125.734-1.094.765-.063 0-.422.157-.422.36 0 .11.281.281.375.281.375 0 .797-.031 1.187-.031.407 0 .844.031 1.235.031.062 0 .406-.125.406-.375 0-.125-.328-.266-.406-.266-.672 0-.625-.109-.625-.39 0-.078.015-.14.047-.266l1.593-6.39h-.328l1.016 7.28c.016.141.234.407.375.407.14 0 .344-.172.39-.25l4.813-7.531h-.328L8.359-1.063c-.109.47.063.422-.875.422-.203 0-.546.141-.546.36 0 .156.359.281.39.281l1.484-.031c.485 0 1 .031 1.485.031.078 0 .422-.125.422-.375 0-.125-.297-.266-.516-.266-.453 0-.594.141-.594-.078 0-.047 0-.062.063-.281l1.594-6.375c.109-.438-.063-.422.828-.422.281 0 .578-.125.578-.36zm0 0"/></svg><svg overflow="visible" x="84.405" y="23.29"><path d="M2.484-3.125c0-.344-.468-.766-.828-.766-.343 0-.828.422-.828.766 0 .36.485.766.828.766.36 0 .828-.407.828-.766zm0 0"/></svg><svg overflow="visible" x="90.383" y="23.29"><path d="M12.672-8.156c0-.14-.313-.266-.516-.266h-1.578c-.312 0-.469.031-.61.266L5.61-1.344l.329.094-.922-6.766c-.047-.28-.266-.406-.563-.406h-1.64c-.235 0-.563.125-.563.36 0 .14.313.265.547.265.156 0 .375.016.515.031.188.016.063-.078.063.063 0 .047-.016.078-.047.219L1.813-1.406c-.125.484-.125.734-1.094.765-.063 0-.422.157-.422.36 0 .11.281.281.375.281.375 0 .797-.031 1.187-.031.407 0 .844.031 1.235.031.062 0 .406-.125.406-.375 0-.125-.328-.266-.406-.266-.672 0-.625-.109-.625-.39 0-.078.015-.14.047-.266l1.593-6.39h-.328l1.016 7.28c.016.141.234.407.375.407.14 0 .344-.172.39-.25l4.813-7.531h-.328L8.359-1.063c-.109.47.063.422-.875.422-.203 0-.546.141-.546.36 0 .156.359.281.39.281l1.484-.031c.485 0 1 .031 1.485.031.078 0 .422-.125.422-.375 0-.125-.297-.266-.516-.266-.453 0-.594.141-.594-.078 0-.047 0-.062.063-.281l1.594-6.375c.109-.438-.063-.422.828-.422.281 0 .578-.125.578-.36zm0 0"/></svg><svg overflow="visible" x="103.21" y="19.835"><path d="M6.25-2.25c0-.094-.281-.328-.375-.328H.641c-.094 0-.375.234-.375.328s.28.328.375.328h5.234c.094 0 .375-.234.375-.328zm0 0"/></svg><svg overflow="visible" x="109.721" y="19.835"><path d="M4.172-.156v-.469H3.64c-.829 0-.625.063-.625-.219v-4.64c0-.235-.235-.391-.563-.391-.578.578-1.203.531-1.75.531v.625c.406 0 1.11-.047 1.219-.11v3.985c0 .281.203.219-.625.219H.766v.64L2.469-.03l1.703.047zm0 0"/></svg><svg overflow="visible" x="117.638" y="23.29"><path d="M2.484-3.125c0-.344-.468-.766-.828-.766-.343 0-.828.422-.828.766 0 .36.485.766.828.766.36 0 .828-.407.828-.766zm0 0"/></svg><svg overflow="visible" x="123.616" y="23.29"><path d="M8.828-8.188c0-.109-.25-.234-.484-.234H3.297c-.281 0-.5.14-.578.36l-.656 2.156c-.016.062.296.265.296.265s-.125.172.016.172c.11 0 .266-.125.344-.25.453-1.422.89-2.078 2.75-2.078h1.593L.595-.547l.281.188s-.39.078-.39.125c0 .109.296.234.5.234h5.202c.297 0 .5-.14.563-.375l.86-2.64c0-.047.046-.126.046-.172 0-.063-.25-.266-.36-.266-.093 0-.312.172-.405.422C6.375-1.406 6-.671 3.969-.671H2.266L8.78-7.97c.031-.093.047-.14.047-.218zm0 0"/></svg><svg overflow="visible" x="135.248" y="23.29"><path d="M2.484-3.125c0-.344-.468-.766-.828-.766-.343 0-.828.422-.828.766 0 .36.485.766.828.766.36 0 .828-.407.828-.766zm0 0"/></svg><svg overflow="visible" x="141.226" y="23.29"><path d="M12.672-8.156c0-.14-.313-.266-.516-.266h-1.578c-.312 0-.469.031-.61.266L5.61-1.344l.329.094-.922-6.766c-.047-.28-.266-.406-.563-.406h-1.64c-.235 0-.563.125-.563.36 0 .14.313.265.547.265.156 0 .375.016.515.031.188.016.063-.078.063.063 0 .047-.016.078-.047.219L1.813-1.406c-.125.484-.125.734-1.094.765-.063 0-.422.157-.422.36 0 .11.281.281.375.281.375 0 .797-.031 1.187-.031.407 0 .844.031 1.235.031.062 0 .406-.125.406-.375 0-.125-.328-.266-.406-.266-.672 0-.625-.109-.625-.39 0-.078.015-.14.047-.266l1.593-6.39h-.328l1.016 7.28c.016.141.234.407.375.407.14 0 .344-.172.39-.25l4.813-7.531h-.328L8.359-1.063c-.109.47.063.422-.875.422-.203 0-.546.141-.546.36 0 .156.359.281.39.281l1.484-.031c.485 0 1 .031 1.485.031.078 0 .422-.125.422-.375 0-.125-.297-.266-.516-.266-.453 0-.594.141-.594-.078 0-.047 0-.062.063-.281l1.594-6.375c.109-.438-.063-.422.828-.422.281 0 .578-.125.578-.36zm0 0"/></svg><svg overflow="visible" x="68.941" y="23.29"><path d="M12.172 3.375V2.031H6.094C3.359 2.031.875 1.766.484.72.47.656.234.484.156.484c-.078 0-.36.204-.36.282 0 .015.063.14.032.125.406 1.093 3.235 2.625 6.266 2.625h6.078zm0 0"/></svg><svg overflow="visible" x="79.593" y="23.29"><path d="M12.078 3.375V2.031H-.203v1.485h12.281zm0 0"/></svg><svg overflow="visible" x="88.99" y="23.29"><path d="M12.078 3.375V2.031H-.203v1.485h12.281zm0 0"/></svg><svg overflow="visible" x="99.534" y="23.29"><path d="M23.938 2.031h-6.032c-2.984 0-5.468 1.094-5.937 1.906C11.484 3.125 9 2.032 6.03 2.032H-.203v1.485H6.03c3.094 0 5.578.218 5.578 1.25 0 .093.266.296.36.296.078 0 .344-.203.344-.296 0-1.032 2.484-1.25 5.593-1.25h6.235V2.03zm0 0"/></svg><svg overflow="visible" x="122.142" y="23.29"><path d="M12.078 3.375V2.031H-.203v1.485h12.281zm0 0"/></svg><svg overflow="visible" x="131.538" y="23.29"><path d="M12.078 3.375V2.031H-.203v1.485h12.281zm0 0"/></svg><svg overflow="visible" x="142.095" y="23.29"><path d="M12.156.766c0-.079-.265-.282-.344-.282-.078 0-.328.172-.343.235-.39 1.047-2.86 1.312-5.594 1.312H-.203v1.485h6.078c3.031 0 5.844-1.532 6.25-2.625-.031.015.031-.11.031-.125zm0 0"/></svg><svg overflow="visible" x="78.021" y="37.446"><path d="M1.969-5.11c-.043.169-.203.485-.485.954-.28.46-.586.84-.906 1.14-.055.055-.062.102-.031.141.031.043.078.043.14 0 .508-.414.97-.89 1.375-1.422.165-.25.305-.363.422-.344.04.024.067.016.079-.015.007-.032-.012-.07-.063-.125a5.218 5.218 0 00-.375-.36c-.086-.07-.137-.062-.156.032zm4.015.313c.664.555 1.11 1.152 1.329 1.797.019.105.054.156.109.156.062 0 .117-.062.172-.187.07-.164.097-.301.078-.406-.055-.415-.578-.907-1.578-1.47-.063-.03-.106-.03-.125 0-.032.032-.028.071.015.11zm-.718-.766h2.421c.063 0 .098-.023.11-.078.008-.082-.18-.289-.563-.625-.054-.05-.101-.05-.14 0l-.203.297c-.094.094-.18.149-.25.157H4.328a.574.574 0 00.172-.422c-.012-.207-.25-.473-.719-.797-.054-.051-.101-.063-.14-.032-.032.032-.032.07 0 .11.28.375.421.758.421 1.14H1.329c-.25 0-.48-.023-.687-.078-.032-.02-.059-.02-.079 0-.023.024-.011.047.032.079a.504.504 0 01.156.265c.008.043.035.059.078.047.176-.031.379-.05.61-.063h1.64v.5c0 .5-.023 1.11-.062 1.829 0 .117.035.152.109.109.25-.164.375-.273.375-.328a30.79 30.79 0 01-.031-1.61v-.5h1.406v.5c0 .5-.023 1.11-.063 1.829 0 .117.036.152.11.109.25-.164.375-.273.375-.328a30.79 30.79 0 01-.031-1.61zm-3.141 2.75a3.25 3.25 0 01-.688-.062c-.042-.02-.074-.023-.093-.016-.024.024-.012.055.031.094a.493.493 0 01.156.25c.008.055.04.07.094.047.164-.031.363-.047.594-.047h.36c0 .012.003.031.015.063.383.75.804 1.34 1.265 1.765C2.9-.102 1.813.29.594.47.5.477.46.523.484.609c0 .082.051.11.157.079C2.14.5 3.32.125 4.187-.438c.54.43 1.532.785 2.97 1.078.081.02.132.015.155-.016a.459.459 0 01.438-.36c.07 0 .11-.027.11-.078 0-.042-.016-.062-.048-.062-1.335 0-2.449-.254-3.343-.766.457-.363.941-.879 1.453-1.546.195-.239.351-.348.469-.329.039.012.07.008.093-.015.008-.02 0-.051-.03-.094-.25-.313-.407-.469-.47-.469-.023 0-.043.012-.062.031l-.219.22c-.023.023-.062.03-.125.03zm3.531.266c-.492.688-1.011 1.242-1.562 1.656A5.875 5.875 0 012.75-2.547zm0 0"/></svg><svg overflow="visible" x="86.39" y="37.446"><path d="M3.906-4.5H1.328c-.25 0-.48-.023-.687-.078-.032-.02-.059-.024-.079-.016-.023.024-.011.055.032.094a.493.493 0 01.156.25c.008.055.035.07.078.047.176-.031.379-.047.61-.047h2.437c-.242 1.836-.934 3.18-2.078 4.031-.356.25-.758.5-1.203.75C.53.551.516.586.547.641c.02.039.066.046.14.015C2 .031 2.926-.719 3.47-1.594c.426-.738.695-1.625.812-2.656h2.672a59.172 59.172 0 00-.125 2.203c-.043.793-.105 1.336-.187 1.625-.055.18-.125.309-.22.39-.085.102-.468.126-1.155.063-.063-.011-.102.008-.11.063-.011.05.024.082.11.093.351.051.57.114.656.188.07.063.125.156.156.281 0 .031.024.035.078.016.489-.211.79-.586.907-1.125.039-.313.128-1.492.265-3.547.008-.133.098-.227.266-.281.05-.02.062-.051.031-.094a9.239 9.239 0 00-.484-.438c-.055-.05-.094-.05-.125 0l-.188.266c-.023.024-.062.04-.125.047h-2.39c.019-.32.03-.648.03-.984v-.657c.02-.113.052-.21.095-.296a.291.291 0 01.187-.141c.031-.008.047-.035.047-.078 0-.02-.024-.04-.063-.063A5.075 5.075 0 004-7c-.043-.02-.074-.023-.094-.016-.023.024-.027.07-.015.141.039.293.062.54.062.734v.657c0 .336-.015.664-.047.984zM1.812-6.594c.395.418.645.867.75 1.344 0 .105.032.164.094.172.063 0 .13-.063.203-.188a.702.702 0 00.11-.39c-.024-.258-.36-.602-1.016-1.032-.062-.039-.11-.046-.14-.015-.024.031-.024.07 0 .11zM4.656-3.03c.446.46.727.945.844 1.453.008.105.047.164.11.172.062 0 .124-.063.187-.188A.776.776 0 005.907-2c-.024-.29-.391-.664-1.11-1.125-.074-.04-.121-.047-.14-.016-.024.032-.024.07 0 .11zm0 0"/></svg><svg overflow="visible" x="94.758" y="37.446"><path d="M4.406-6.89c.375.374.614.761.719 1.156.008.093.04.14.094.14.07 0 .133-.062.187-.187.07-.164.098-.301.078-.407-.03-.226-.351-.5-.953-.812-.062-.031-.105-.031-.125 0-.023.031-.023.07 0 .11zm.907 4.359c-.524.71-1.415 1.336-2.672 1.875-.086.031-.118.086-.094.156.02.063.07.086.156.063C4.047-.926 5-1.548 5.563-2.298c.632.637 1.07 1.219 1.312 1.75.02.074.055.11.11.11.038 0 .077-.024.109-.079.031-.05.062-.144.093-.28.032-.134 0-.286-.093-.454-.137-.258-.574-.71-1.313-1.36.383-.663.63-1.519.735-2.562h1.203c.07 0 .125-.016.156-.047.031-.062.016-.129-.047-.203a3.184 3.184 0 00-.36-.39c-.03-.04-.07-.04-.109 0l-.296.328c-.032.043-.063.062-.094.062H3.5a3.25 3.25 0 01-.688-.062c-.042-.02-.074-.024-.093-.016-.024.023-.012.055.031.094a.425.425 0 01.156.25c.008.043.04.058.094.047a4.48 4.48 0 01.594-.063h2.5c-.063.899-.242 1.649-.532 2.25a1.302 1.302 0 00-.062.094A18.79 18.79 0 003.578-4.11c-.062-.04-.11-.04-.14 0-.024.03-.016.07.015.109.727.5 1.348.992 1.86 1.469zM.968-6.375c.394.406.64.824.734 1.25.02.105.055.156.11.156.062 0 .125-.062.187-.187.082-.164.113-.301.094-.407-.024-.238-.356-.539-1-.906-.063-.039-.106-.047-.125-.015-.024.043-.024.078 0 .109zM4.219.188c-.938.03-1.664-.204-2.172-.704a.288.288 0 01-.078-.25V-2.89c0-.101.015-.18.047-.234.039-.063.109-.098.203-.11.05-.019.05-.05 0-.093a6.4 6.4 0 00-.5-.406c-.032-.032-.063-.024-.094.015l-.188.219a.178.178 0 01-.093.047H1c-.25 0-.48-.024-.688-.078-.03-.02-.058-.024-.078-.016-.023.024-.011.055.032.094a.493.493 0 01.156.25c.008.055.035.07.078.047.176-.031.379-.047.61-.047h.468v2.437c0 .094-.07.196-.203.297a4.292 4.292 0 01-1 .578C.32.117.305.15.328.203c.113.145.192.29.234.438 0 .03.016.046.047.046.02 0 .04-.023.063-.062C.742.508 1.098.133 1.734-.5c.051-.05.114-.031.188.063.445.593 1.086.945 1.922 1.062.133.02.281.031.437.031h2.203c.344-.023.66-.023.954 0 .062.008.097-.008.109-.047.05-.23.203-.37.453-.421.07-.024.102-.055.094-.094 0-.043-.016-.059-.047-.047a8.967 8.967 0 01-1.672.14zm0 0"/></svg><svg overflow="visible" x="103.127" y="37.446"><path d="M6.813-3.5H1.171c-.25 0-.48-.02-.688-.063-.043-.019-.074-.023-.093-.015-.024.023-.012.055.03.094a.59.59 0 01.173.25c0 .054.023.07.078.046.164-.03.363-.046.594-.046h6.578c.07-.008.113-.036.125-.079 0-.082-.196-.296-.578-.64-.055-.05-.094-.05-.125 0l-.22.312c-.085.094-.163.141-.234.141zm0 0"/></svg><svg overflow="visible" x="111.495" y="37.446"><path d="M2.031-2.234v-3.422h1.172a.263.263 0 00.156-.063c.032-.05.02-.113-.03-.187a7.93 7.93 0 00-.376-.407c-.031-.03-.07-.03-.11 0l-.296.344c-.031.043-.063.063-.094.063H1.078c-.262 0-.492-.024-.687-.078-.043-.02-.075-.02-.094 0-.024.023-.012.054.031.093.082.063.133.141.156.235.008.054.04.07.094.047.164-.032.363-.047.594-.047h.469v3.547c-.563.187-.977.312-1.235.375-.062.011-.101.027-.11.046 0 .012.036.043.11.094.114.094.207.211.281.344.032.043.055.063.079.063.02-.008.046-.04.078-.094.062-.102.203-.196.422-.282a25.98 25.98 0 002-.953c.082-.03.113-.078.093-.14-.023-.051-.07-.063-.14-.031-.367.136-.762.289-1.188.453zM6.016-.86c.55.261 1.07.726 1.562 1.39.05.102.098.149.14.14.04-.01.095-.058.157-.14a.508.508 0 00.047-.328c-.024-.125-.156-.281-.406-.469-.344-.25-.813-.492-1.407-.734-.086-.04-.132-.035-.14.016-.032.054-.016.093.047.125zM4.219-4.875H7v2.234c0 .586-.016 1.032-.047 1.344-.012.094-.008.149.016.156.031 0 .164-.066.406-.203a.192.192 0 00.078-.156c-.031-.54-.055-1-.062-1.375v-1.86c0-.05.02-.1.062-.156a.365.365 0 01.219-.093c.05-.008.055-.036.016-.079a5.771 5.771 0 00-.438-.343c-.043-.032-.078-.024-.11.015l-.202.204a.209.209 0 01-.157.062h-1.5c.207-.344.39-.727.547-1.156h1.984a.263.263 0 00.157-.063c.031-.05.02-.113-.032-.187a7.696 7.696 0 00-.359-.39c-.043-.04-.086-.04-.125 0l-.281.327c-.043.043-.078.063-.11.063H4.047c-.25 0-.48-.02-.688-.063-.043-.031-.074-.035-.093-.015-.012.023 0 .054.03.093a.425.425 0 01.157.25c.02.043.05.059.094.047a4.48 4.48 0 01.594-.062h1.234c-.094.523-.195.906-.297 1.156H4.11c-.218-.164-.328-.25-.328-.25-.023 0-.027.027-.015.078.03.25.05.465.062.64v1.798c-.023.586-.043 1.148-.062 1.687 0 .106.015.164.046.172.02 0 .051-.008.094-.031.207-.145.313-.254.313-.328v-1.5zm1.61 1.688c0-.344.003-.567.015-.672.008-.051.082-.11.218-.172.063-.02.094-.04.094-.063 0-.02-.027-.047-.078-.078l-.594-.234c-.043-.02-.074-.02-.093 0-.012.011-.012.058 0 .14.02.344.035.704.046 1.079v.046c0 .856-.105 1.508-.312 1.954-.18.386-.492.726-.938 1.015-.43.281-.98.484-1.656.61-.074.019-.11.066-.11.14.009.07.063.102.157.094 1.438-.25 2.367-.785 2.797-1.61.29-.539.441-1.273.453-2.203zm0 0"/></svg><svg overflow="visible" x="119.864" y="37.446"><path d="M6.703-4.578H1.984c.008-.32.016-.66.016-1.016v-.343a25.13 25.13 0 002.984-.235c1.22-.176 1.946-.223 2.188-.14.07.03.117.027.14-.016.008-.008.004-.031-.015-.063a5.516 5.516 0 01-.39-.546c-.024-.04-.06-.051-.11-.032-1.688.469-3.29.746-4.797.828a1.423 1.423 0 01-.344-.25c-.043-.039-.078-.054-.11-.046-.023.011-.026.039-.015.078.051.218.078.433.078.64v.5c0 2.149-.18 3.637-.53 4.469a6.94 6.94 0 01-.657.984C.367.274.363.328.406.391.437.44.488.437.562.375c.782-.738 1.227-1.738 1.344-3 .04-.488.067-1.05.078-1.688H7.75c.07-.007.113-.035.125-.078 0-.082-.195-.296-.578-.64-.055-.051-.094-.051-.125 0l-.25.343-.094.094a.476.476 0 01-.125.016zM6.297-.156c0 .281-.012.523-.031.734-.012.082 0 .129.03.14.02.009.15-.058.391-.202.051-.032.079-.086.079-.157A39.42 39.42 0 016.703-1v-1.344c0-.05.02-.101.063-.156a.365.365 0 01.218-.094c.051-.008.055-.035.016-.078a5.771 5.771 0 00-.438-.344c-.042-.03-.078-.03-.109 0l-.203.22a.209.209 0 01-.156.062H3.125A2.137 2.137 0 012.844-3c-.043-.031-.074-.047-.094-.047-.023.012-.027.047-.016.11.02.25.036.476.047.671v1.11A42.246 42.246 0 012.734.5c0 .102.02.16.063.172.031-.012.14-.09.328-.235.031-.03.047-.23.047-.593zm-3.125-1v-1.328h3.14v2.062h-3.14v-.734zm0 0"/></svg><svg overflow="visible" x="128.233" y="37.446"><path d="M1.453-3.547c-.105 0-.2.04-.281.11a.361.361 0 00-.094.265c0 .106.031.195.094.266a.41.41 0 00.281.125.32.32 0 00.25-.125.376.376 0 00.125-.266.35.35 0 00-.125-.265.325.325 0 00-.25-.11zm2.734 0a.365.365 0 00-.265.11c-.074.062-.11.152-.11.265a.35.35 0 00.11.266c.07.074.16.117.265.125.094 0 .18-.04.266-.125a.376.376 0 00.125-.266.35.35 0 00-.125-.265.379.379 0 00-.266-.11zm2.735 0a.365.365 0 00-.266.11c-.074.062-.11.152-.11.265a.35.35 0 00.11.266c.07.074.16.117.266.125.101 0 .191-.04.266-.125a.376.376 0 00.125-.266.35.35 0 00-.125-.265.379.379 0 00-.266-.11zm0 0"/></svg><svg overflow="visible" x="136.601" y="37.446"><path d="M1.453-3.547c-.105 0-.2.04-.281.11a.361.361 0 00-.094.265c0 .106.031.195.094.266a.41.41 0 00.281.125.32.32 0 00.25-.125.376.376 0 00.125-.266.35.35 0 00-.125-.265.325.325 0 00-.25-.11zm2.734 0a.365.365 0 00-.265.11c-.074.062-.11.152-.11.265a.35.35 0 00.11.266c.07.074.16.117.265.125.094 0 .18-.04.266-.125a.376.376 0 00.125-.266.35.35 0 00-.125-.265.379.379 0 00-.266-.11zm2.735 0a.365.365 0 00-.266.11c-.074.062-.11.152-.11.265a.35.35 0 00.11.266c.07.074.16.117.266.125.101 0 .191-.04.266-.125a.376.376 0 00.125-.266.35.35 0 00-.125-.265.379.379 0 00-.266-.11zm0 0"/></svg><svg overflow="visible" x="156.043" y="23.29"><path d="M2.484-3.125c0-.344-.468-.766-.828-.766-.343 0-.828.422-.828.766 0 .36.485.766.828.766.36 0 .828-.407.828-.766zm0 0"/></svg><svg overflow="visible" x="161.359" y="18.716"><path d="M7.922-17.703c0-.203-.344-.485-.547-.485H3.641V0H4.75v-17.219h2.625c.203 0 .547-.281.547-.484zm0 0"/></svg><svg overflow="visible" x="161.359" y="26.279"><path d="M4.75-.125v-12.094H3.64V0h1.11zm0 0"/></svg><svg overflow="visible" x="161.359" y="39.819"><path d="M7.922-.484c0-.204-.344-.5-.547-.5H4.75v-17.203H3.64V0h3.735c.203 0 .547-.281.547-.484zm0 0"/></svg><svg overflow="visible" x="169.333" y="8.745"><path d="M9.203-6.484c0-.922-.984-1.938-2.547-1.938H2.781c-.219 0-.562.125-.562.36 0 .14.312.265.547.265.156 0 .375.016.515.031.203.016.063-.078.063.063 0 .047-.016.078-.047.219L1.703-1.063c-.125.47.047.422-.89.422C.609-.64.28-.5.28-.28c0 .156.344.281.375.281l1.516-.031h.765c.266 0 .532.031.782.031.078 0 .422-.125.422-.375 0-.125-.297-.266-.516-.266-.453 0-.594.141-.594-.078 0-.062.031-.125.047-.203l.703-2.86h1.875c1.688 0 3.547-1.374 3.547-2.702zm-1.5-.297c0 .468-.187 1.406-.656 1.828-.594.547-1.172.61-1.688.61H3.891l.78-3.126c.11-.422-.062-.328.454-.328h1.156c.985 0 1.422.188 1.422 1.016zm0 0"/></svg><g><svg overflow="visible" x="177.009" y="11.698"><path d="M4.172-.156v-.469H3.64c-.829 0-.625.063-.625-.219v-4.64c0-.235-.235-.391-.563-.391-.578.578-1.203.531-1.75.531v.625c.406 0 1.11-.047 1.219-.11v3.985c0 .281.203.219-.625.219H.766v.64L2.469-.03l1.703.047zm0 0"/></svg></g><g><svg overflow="visible" x="169.333" y="23.19"><path d="M9.203-6.484c0-.922-.984-1.938-2.547-1.938H2.781c-.219 0-.562.125-.562.36 0 .14.312.265.547.265.156 0 .375.016.515.031.203.016.063-.078.063.063 0 .047-.016.078-.047.219L1.703-1.063c-.125.47.047.422-.89.422C.609-.64.28-.5.28-.28c0 .156.344.281.375.281l1.516-.031h.765c.266 0 .532.031.782.031.078 0 .422-.125.422-.375 0-.125-.297-.266-.516-.266-.453 0-.594.141-.594-.078 0-.062.031-.125.047-.203l.703-2.86h1.875c1.688 0 3.547-1.374 3.547-2.702zm-1.5-.297c0 .468-.187 1.406-.656 1.828-.594.547-1.172.61-1.688.61H3.891l.78-3.126c.11-.422-.062-.328.454-.328h1.156c.985 0 1.422.188 1.422 1.016zm0 0"/></svg></g><g><svg overflow="visible" x="177.009" y="26.144"><path d="M4.234-1.844H3.75c-.047.344-.063.735-.172.813-.062.047-.562 0-.687 0H1.812c.563-.5.86-.735 1.36-1.125.625-.5 1.265-1.14 1.265-1.938 0-1-1.093-1.781-2.171-1.781-1.032 0-1.954.89-1.954 1.656 0 .422.579.625.657.625.203 0 .656-.297.656-.61 0-.14-.266-.593-.422-.593.188-.437.547-.469.938-.469.843 0 1.062.5 1.062 1.172 0 .735-.453 1.203-.719 1.5l-2.03 2C.374-.516.311-.39.311 0h3.844l.313-1.844zm0 0"/></svg></g><g><svg overflow="visible" x="169.333" y="37.636"><path d="M9.203-6.484c0-.922-.984-1.938-2.547-1.938H2.781c-.219 0-.562.125-.562.36 0 .14.312.265.547.265.156 0 .375.016.515.031.203.016.063-.078.063.063 0 .047-.016.078-.047.219L1.703-1.063c-.125.47.047.422-.89.422C.609-.64.28-.5.28-.28c0 .156.344.281.375.281l1.516-.031h.765c.266 0 .532.031.782.031.078 0 .422-.125.422-.375 0-.125-.297-.266-.516-.266-.453 0-.594.141-.594-.078 0-.062.031-.125.047-.203l.703-2.86h1.875c1.688 0 3.547-1.374 3.547-2.702zm-1.5-.297c0 .468-.187 1.406-.656 1.828-.594.547-1.172.61-1.688.61H3.891l.78-3.126c.11-.422-.062-.328.454-.328h1.156c.985 0 1.422.188 1.422 1.016zm0 0"/></svg></g><g><svg overflow="visible" x="177.009" y="40.589"><path d="M4.516-1.61c0-.656-.75-1.468-1.672-1.656v.313c.89-.313 1.406-1.094 1.406-1.61 0-.656-.969-1.312-1.89-1.312-.938 0-1.86.61-1.86 1.281 0 .282.39.594.64.594.266 0 .641-.344.641-.578 0-.25-.375-.578-.297-.578.094-.11.532-.157.844-.157.375 0 .688.016.688.75 0 .344-.047.625-.266.891-.281.313-.36.281-.781.313-.203.015-.235.015-.266.015l.14.281s-.437-.109-.437-.015c0 .125.282.281.422.281h.453c.656 0 .922.297.922 1.188 0 1.046-.39 1.187-.89 1.187-.329 0-.922-.031-1.094-.266.078-.015.375-.453.375-.625 0-.265-.407-.625-.672-.625-.235 0-.672.297-.672.641C.25-.5 1.328.172 2.344.172 3.5.172 4.516-.766 4.516-1.61zm0 0"/></svg></g><g><svg overflow="visible" x="182.269" y="18.716"><path d="M4.328-.125v-18.063H.594c-.203 0-.563.282-.563.485s.36.484.563.484h2.625V0h1.11zm0 0"/></svg></g><g><svg overflow="visible" x="182.269" y="26.279"><path d="M4.14-12.219H3.22V0h1.11v-12.219zm0 0"/></svg></g><g><svg overflow="visible" x="182.269" y="39.819"><path d="M4.328-.125v-18.063h-1.11V-.983H.595c-.203 0-.563.296-.563.5 0 .203.36.484.563.484h3.734zm0 0"/></svg></g></svg>