<svg xmlns="http://www.w3.org/2000/svg" xmlns:xlink="http://www.w3.org/1999/xlink" width="649px" height="55px" viewBox="0 0 487 41"><svg overflow="visible" x="-.53" y="23.368"><path d="M9.031-5.344c0-1.922-1.453-3.343-3.234-3.343-2.578 0-5.422 2.843-5.422 5.624C.375-1.077 1.922.267 3.641.267c.296 0 .703-.047.968-.125-.046.546-.046.578-.046.734 0 .375.203 1.438 1.203 1.438C7.187 2.313 7.953 0 7.953-.126c0-.094-.281-.25-.328-.25-.094 0-.328.188-.344.25C7 .735 6.5.891 6.078.891c-.547 0-.531-.188-.64-1.032C7.093-.78 9.03-3.03 9.03-5.344zm-1.437-.375c0 1.188-.547 3.89-2.266 4.844C5.312-1.031 5-2.031 4.125-2.031c-.64 0-1.422.734-1.422 1.344 0 .25.406.484.406.484l-.14-.234c-.922-.36-1.14-1.172-1.14-2.235 0-.828.25-2.437 1.155-3.719C3.86-7.609 4.86-8.125 5.72-8.125c1.203 0 1.875.797 1.875 2.406zM4.656-.625c0 .188.188.063.063.11-.313.14-.672.218-1 .218-.172 0-.36.125-.36-.39 0-.47.266-.813.766-.813s.531.156.531.875zm0 0"/></svg><svg overflow="visible" x="12.238" y="23.368"><path d="M8.828-4.281c0-.125-.312-.375-.437-.375H.906c-.125 0-.437.25-.437.375 0 .14.312.375.437.375h7.485c.125 0 .437-.235.437-.375zm0 2.328c0-.14-.312-.375-.437-.375H.906c-.125 0-.437.234-.437.375 0 .125.312.36.437.36h7.485c.125 0 .437-.235.437-.36zm0 0"/></svg><svg overflow="visible" x="24.863" y="23.368"><path d="M12.672-8.156c0-.14-.313-.266-.516-.266h-1.578c-.312 0-.469.031-.61.266L5.61-1.344l.329.094-.922-6.766c-.047-.28-.266-.406-.563-.406h-1.64c-.235 0-.563.125-.563.36 0 .14.313.265.547.265.156 0 .375.016.515.031.188.016.063-.078.063.063 0 .047-.016.078-.047.219L1.813-1.406c-.125.484-.125.734-1.094.765-.063 0-.422.157-.422.36 0 .11.281.281.375.281.375 0 .797-.031 1.187-.031.407 0 .844.031 1.235.031.062 0 .406-.125.406-.375 0-.125-.328-.266-.406-.266-.672 0-.625-.109-.625-.39 0-.078.015-.14.047-.266l1.593-6.39h-.328l1.016 7.28c.016.141.234.407.375.407.14 0 .344-.172.39-.25l4.813-7.531h-.328L8.359-1.063c-.109.47.063.422-.875.422-.203 0-.546.141-.546.36 0 .156.359.281.39.281l1.484-.031c.485 0 1 .031 1.485.031.078 0 .422-.125.422-.375 0-.125-.297-.266-.516-.266-.453 0-.594.141-.594-.078 0-.047 0-.062.063-.281l1.594-6.375c.109-.438-.063-.422.828-.422.281 0 .578-.125.578-.36zm0 0"/></svg><svg overflow="visible" x="37.686" y="19.028"><path d="M6.25-2.25c0-.094-.281-.328-.375-.328H.641c-.094 0-.375.234-.375.328s.28.328.375.328h5.234c.094 0 .375-.234.375-.328zm0 0"/></svg><svg overflow="visible" x="44.197" y="19.028"><path d="M4.172-.156v-.469H3.64c-.829 0-.625.063-.625-.219v-4.64c0-.235-.235-.391-.563-.391-.578.578-1.203.531-1.75.531v.625c.406 0 1.11-.047 1.219-.11v3.985c0 .281.203.219-.625.219H.766v.64L2.469-.03l1.703.047zm0 0"/></svg><svg overflow="visible" x="52.113" y="23.368"><path d="M2.484-3.125c0-.344-.468-.766-.828-.766-.343 0-.828.422-.828.766 0 .36.485.766.828.766.36 0 .828-.407.828-.766zm0 0"/></svg><svg overflow="visible" x="58.091" y="23.368"><path d="M8.828-8.188c0-.109-.25-.234-.484-.234H3.297c-.281 0-.5.14-.578.36l-.656 2.156c-.016.062.296.265.296.265s-.125.172.016.172c.11 0 .266-.125.344-.25.453-1.422.89-2.078 2.75-2.078h1.593L.595-.547l.281.188s-.39.078-.39.125c0 .109.296.234.5.234h5.202c.297 0 .5-.14.563-.375l.86-2.64c0-.047.046-.126.046-.172 0-.063-.25-.266-.36-.266-.093 0-.312.172-.405.422C6.375-1.406 6-.671 3.969-.671H2.266L8.78-7.97c.031-.093.047-.14.047-.218zm0 0"/></svg><svg overflow="visible" x="69.723" y="23.368"><path d="M2.484-3.125c0-.344-.468-.766-.828-.766-.343 0-.828.422-.828.766 0 .36.485.766.828.766.36 0 .828-.407.828-.766zm0 0"/></svg><svg overflow="visible" x="75.701" y="23.368"><path d="M12.672-8.156c0-.14-.313-.266-.516-.266h-1.578c-.312 0-.469.031-.61.266L5.61-1.344l.329.094-.922-6.766c-.047-.28-.266-.406-.563-.406h-1.64c-.235 0-.563.125-.563.36 0 .14.313.265.547.265.156 0 .375.016.515.031.188.016.063-.078.063.063 0 .047-.016.078-.047.219L1.813-1.406c-.125.484-.125.734-1.094.765-.063 0-.422.157-.422.36 0 .11.281.281.375.281.375 0 .797-.031 1.187-.031.407 0 .844.031 1.235.031.062 0 .406-.125.406-.375 0-.125-.328-.266-.406-.266-.672 0-.625-.109-.625-.39 0-.078.015-.14.047-.266l1.593-6.39h-.328l1.016 7.28c.016.141.234.407.375.407.14 0 .344-.172.39-.25l4.813-7.531h-.328L8.359-1.063c-.109.47.063.422-.875.422-.203 0-.546.141-.546.36 0 .156.359.281.39.281l1.484-.031c.485 0 1 .031 1.485.031.078 0 .422-.125.422-.375 0-.125-.297-.266-.516-.266-.453 0-.594.141-.594-.078 0-.047 0-.062.063-.281l1.594-6.375c.109-.438-.063-.422.828-.422.281 0 .578-.125.578-.36zm0 0"/></svg><svg overflow="visible" x="91.84" y="23.368"><path d="M8.828-4.281c0-.125-.312-.375-.437-.375H.906c-.125 0-.437.25-.437.375 0 .14.312.375.437.375h7.485c.125 0 .437-.235.437-.375zm0 2.328c0-.14-.312-.375-.437-.375H.906c-.125 0-.437.234-.437.375 0 .125.312.36.437.36h7.485c.125 0 .437-.235.437-.36zm0 0"/></svg><svg overflow="visible" x="104.469" y="18.718"><path d="M7.922-17.703c0-.203-.344-.485-.547-.485H3.641V0H4.75v-17.219h2.625c.203 0 .547-.281.547-.484zm0 0"/></svg><svg overflow="visible" x="104.469" y="26.357"><path d="M4.75-.125v-12.094H3.64V0h1.11zm0 0"/></svg><svg overflow="visible" x="104.469" y="39.972"><path d="M7.922-.484c0-.204-.344-.5-.547-.5H4.75v-17.203H3.64V0h3.735c.203 0 .547-.281.547-.484zm0 0"/></svg><svg overflow="visible" x="112.443" y="8.745"><path d="M5.203-.125v-.516h-.578c-1.078 0-.922 0-.922-.437v-6.703c0-.282-.187-.438-.578-.438-.766.797-1.672.766-2.266.766v.625c.438 0 1.282-.031 1.563-.172v5.922c0 .437.172.437-.906.437H.937v.672C1.547-.03 2.595-.03 3.079-.03c.469 0 1.516 0 2.125.062zm0 0"/></svg><svg overflow="visible" x="128.965" y="8.745"><path d="M5.688-3.953c0-.953-.063-1.922-.47-2.797-.562-1.156-1.734-1.469-2.234-1.469-.718 0-1.796.438-2.28 1.547-.376.828-.438 1.766-.438 2.719 0 .89.109 2.062.593 2.969.516.968 1.532 1.25 2.11 1.25.656 0 1.75-.391 2.281-1.516.375-.828.438-1.766.438-2.703zm-1.391-.14c0 .89 0 1.702-.125 2.468C4-.485 3.516-.265 2.969-.265 2.516-.266 2-.438 1.78-1.579c-.125-.719-.125-1.813-.125-2.516 0-.765 0-1.562.094-2.203.219-1.422.922-1.406 1.219-1.406.406 0 .984.094 1.219 1.266.109.671.109 1.578.109 2.343zm0 0"/></svg><svg overflow="visible" x="145.487" y="8.745"><path d="M5.688-3.953c0-.953-.063-1.922-.47-2.797-.562-1.156-1.734-1.469-2.234-1.469-.718 0-1.796.438-2.28 1.547-.376.828-.438 1.766-.438 2.719 0 .89.109 2.062.593 2.969.516.968 1.532 1.25 2.11 1.25.656 0 1.75-.391 2.281-1.516.375-.828.438-1.766.438-2.703zm-1.391-.14c0 .89 0 1.702-.125 2.468C4-.485 3.516-.265 2.969-.265 2.516-.266 2-.438 1.78-1.579c-.125-.719-.125-1.813-.125-2.516 0-.765 0-1.562.094-2.203.219-1.422.922-1.406 1.219-1.406.406 0 .984.094 1.219 1.266.109.671.109 1.578.109 2.343zm0 0"/></svg><svg overflow="visible" x="112.443" y="23.346"><path d="M5.203-.125v-.516h-.578c-1.078 0-.922 0-.922-.437v-6.703c0-.282-.187-.438-.578-.438-.766.797-1.672.766-2.266.766v.625c.438 0 1.282-.031 1.563-.172v5.922c0 .437.172.437-.906.437H.937v.672C1.547-.03 2.595-.03 3.079-.03c.469 0 1.516 0 2.125.062zm0 0"/></svg><svg overflow="visible" x="129.579" y="18.635"><path d="M4.172-.156v-.469H3.64c-.829 0-.625.063-.625-.219v-4.64c0-.235-.235-.391-.563-.391-.578.578-1.203.531-1.75.531v.625c.406 0 1.11-.047 1.219-.11v3.985c0 .281.203.219-.625.219H.766v.64L2.469-.03l1.703.047zm0 0"/></svg><path d="M129.578 20.355h4.762" fill="none" stroke-width=".478" stroke="#000" stroke-miterlimit="10"/><svg overflow="visible" x="129.579" y="27.471"><path d="M4.234-1.844H3.75c-.047.344-.063.735-.172.813-.062.047-.562 0-.687 0H1.812c.563-.5.86-.735 1.36-1.125.625-.5 1.265-1.14 1.265-1.938 0-1-1.093-1.781-2.171-1.781-1.032 0-1.954.89-1.954 1.656 0 .422.579.625.657.625.203 0 .656-.297.656-.61 0-.14-.266-.593-.422-.593.188-.437.547-.469.938-.469.843 0 1.062.5 1.062 1.172 0 .735-.453 1.203-.719 1.5l-2.03 2C.374-.516.311-.39.311 0h3.844l.313-1.844zm0 0"/></svg><svg overflow="visible" x="145.499" y="23.346"><path d="M5.688-3.953c0-.953-.063-1.922-.47-2.797-.562-1.156-1.734-1.469-2.234-1.469-.718 0-1.796.438-2.28 1.547-.376.828-.438 1.766-.438 2.719 0 .89.109 2.062.593 2.969.516.968 1.532 1.25 2.11 1.25.656 0 1.75-.391 2.281-1.516.375-.828.438-1.766.438-2.703zm-1.391-.14c0 .89 0 1.702-.125 2.468C4-.485 3.516-.265 2.969-.265 2.516-.266 2-.438 1.78-1.579c-.125-.719-.125-1.813-.125-2.516 0-.765 0-1.562.094-2.203.219-1.422.922-1.406 1.219-1.406.406 0 .984.094 1.219 1.266.109.671.109 1.578.109 2.343zm0 0"/></svg><svg overflow="visible" x="112.443" y="37.792"><path d="M5.203-.125v-.516h-.578c-1.078 0-.922 0-.922-.437v-6.703c0-.282-.187-.438-.578-.438-.766.797-1.672.766-2.266.766v.625c.438 0 1.282-.031 1.563-.172v5.922c0 .437.172.437-.906.437H.937v.672C1.547-.03 2.595-.03 3.079-.03c.469 0 1.516 0 2.125.062zm0 0"/></svg><svg overflow="visible" x="128.965" y="37.792"><path d="M5.203-.125v-.516h-.578c-1.078 0-.922 0-.922-.437v-6.703c0-.282-.187-.438-.578-.438-.766.797-1.672.766-2.266.766v.625c.438 0 1.282-.031 1.563-.172v5.922c0 .437.172.437-.906.437H.937v.672C1.547-.03 2.595-.03 3.079-.03c.469 0 1.516 0 2.125.062zm0 0"/></svg><svg overflow="visible" x="145.487" y="37.792"><path d="M5.203-.125v-.516h-.578c-1.078 0-.922 0-.922-.437v-6.703c0-.282-.187-.438-.578-.438-.766.797-1.672.766-2.266.766v.625c.438 0 1.282-.031 1.563-.172v5.922c0 .437.172.437-.906.437H.937v.672C1.547-.03 2.595-.03 3.079-.03c.469 0 1.516 0 2.125.062zm0 0"/></svg><svg overflow="visible" x="151.476" y="18.718"><path d="M4.328-.125v-18.063H.594c-.203 0-.563.282-.563.485s.36.484.563.484h2.625V0h1.11zm0 0"/></svg><svg overflow="visible" x="151.476" y="26.357"><path d="M4.14-12.219H3.22V0h1.11v-12.219zm0 0"/></svg><svg overflow="visible" x="151.476" y="39.972"><path d="M4.328-.125v-18.063h-1.11V-.983H.595c-.203 0-.563.296-.563.5 0 .203.36.484.563.484h3.734zm0 0"/></svg><svg overflow="visible" x="162.107" y="23.368"><path d="M2.484-3.125c0-.344-.468-.766-.828-.766-.343 0-.828.422-.828.766 0 .36.485.766.828.766.36 0 .828-.407.828-.766zm0 0"/></svg><svg overflow="visible" x="168.088" y="18.794"><path d="M7.922-17.703c0-.203-.344-.485-.547-.485H3.641V0H4.75v-17.219h2.625c.203 0 .547-.281.547-.484zm0 0"/></svg><svg overflow="visible" x="168.088" y="26.357"><path d="M4.75-.125v-12.094H3.64V0h1.11zm0 0"/></svg><svg overflow="visible" x="168.088" y="39.897"><path d="M7.922-.484c0-.204-.344-.5-.547-.5H4.75v-17.203H3.64V0h3.735c.203 0 .547-.281.547-.484zm0 0"/></svg><svg overflow="visible" x="176.062" y="8.822"><path d="M5.203-.125v-.516h-.578c-1.078 0-.922 0-.922-.437v-6.703c0-.282-.187-.438-.578-.438-.766.797-1.672.766-2.266.766v.625c.438 0 1.282-.031 1.563-.172v5.922c0 .437.172.437-.906.437H.937v.672C1.547-.03 2.595-.03 3.079-.03c.469 0 1.516 0 2.125.062zm0 0"/></svg><svg overflow="visible" x="191.998" y="8.822"><path d="M5.688-3.953c0-.953-.063-1.922-.47-2.797-.562-1.156-1.734-1.469-2.234-1.469-.718 0-1.796.438-2.28 1.547-.376.828-.438 1.766-.438 2.719 0 .89.109 2.062.593 2.969.516.968 1.532 1.25 2.11 1.25.656 0 1.75-.391 2.281-1.516.375-.828.438-1.766.438-2.703zm-1.391-.14c0 .89 0 1.702-.125 2.468C4-.485 3.516-.265 2.969-.265 2.516-.266 2-.438 1.78-1.579c-.125-.719-.125-1.813-.125-2.516 0-.765 0-1.562.094-2.203.219-1.422.922-1.406 1.219-1.406.406 0 .984.094 1.219 1.266.109.671.109 1.578.109 2.343zm0 0"/></svg><svg overflow="visible" x="210.541" y="8.822"><path d="M5.688-3.953c0-.953-.063-1.922-.47-2.797-.562-1.156-1.734-1.469-2.234-1.469-.718 0-1.796.438-2.28 1.547-.376.828-.438 1.766-.438 2.719 0 .89.109 2.062.593 2.969.516.968 1.532 1.25 2.11 1.25.656 0 1.75-.391 2.281-1.516.375-.828.438-1.766.438-2.703zm-1.391-.14c0 .89 0 1.702-.125 2.468C4-.485 3.516-.265 2.969-.265 2.516-.266 2-.438 1.78-1.579c-.125-.719-.125-1.813-.125-2.516 0-.765 0-1.562.094-2.203.219-1.422.922-1.406 1.219-1.406.406 0 .984.094 1.219 1.266.109.671.109 1.578.109 2.343zm0 0"/></svg><svg overflow="visible" x="176.062" y="23.268"><path d="M5.688-3.953c0-.953-.063-1.922-.47-2.797-.562-1.156-1.734-1.469-2.234-1.469-.718 0-1.796.438-2.28 1.547-.376.828-.438 1.766-.438 2.719 0 .89.109 2.062.593 2.969.516.968 1.532 1.25 2.11 1.25.656 0 1.75-.391 2.281-1.516.375-.828.438-1.766.438-2.703zm-1.391-.14c0 .89 0 1.702-.125 2.468C4-.485 3.516-.265 2.969-.265 2.516-.266 2-.438 1.78-1.579c-.125-.719-.125-1.813-.125-2.516 0-.765 0-1.562.094-2.203.219-1.422.922-1.406 1.219-1.406.406 0 .984.094 1.219 1.266.109.671.109 1.578.109 2.343zm0 0"/></svg><svg overflow="visible" x="192.022" y="23.268"><path d="M5.766-5.297c0-.125-.188-.016-.188-.016l-.125-.234c-.094 0-.266.063-.328.172-.36.563-.469.719-.75.719s-.297-.14-.484-.344c-.22-.266-.563-.547-.954-.547-.89 0-1.64 1.25-1.64 1.5 0 .047.234.25.344.25.109 0 .312-.187.343-.25.235-.562.735-.437.829-.437.25 0 .468.078.75.187.484.172.609.172.578.172-.235.281-1.235 1.156-1.47 1.344l-1.062 1C.781-.984.313-.203.313-.125.313 0 .78.094.78.094L.656.125c.094 0 .25-.047.328-.188.266-.421.5-.703.875-.703.282 0 .25.079.563.422.203.25.547.469.906.469 1.172 0 2.063-1.64 2.063-1.969 0-.062-.235-.25-.329-.25-.109 0-.343.203-.375.281-.28.782-.843.875-1.234.875C3.22-.938 3-1 2.75-1.093c-.406-.156-.594-.203-.844-.203l.14.234s-.343-.234-.452-.187l.125.219c.64-.688 1-.985 1.422-1.36 0 0 .75-.64 1.171-1.078 1.141-1.11 1.454-1.781 1.454-1.828zm0 0"/></svg><svg overflow="visible" x="210.541" y="23.268"><path d="M5.688-3.953c0-.953-.063-1.922-.47-2.797-.562-1.156-1.734-1.469-2.234-1.469-.718 0-1.796.438-2.28 1.547-.376.828-.438 1.766-.438 2.719 0 .89.109 2.062.593 2.969.516.968 1.532 1.25 2.11 1.25.656 0 1.75-.391 2.281-1.516.375-.828.438-1.766.438-2.703zm-1.391-.14c0 .89 0 1.702-.125 2.468C4-.485 3.516-.265 2.969-.265 2.516-.266 2-.438 1.78-1.579c-.125-.719-.125-1.813-.125-2.516 0-.765 0-1.562.094-2.203.219-1.422.922-1.406 1.219-1.406.406 0 .984.094 1.219 1.266.109.671.109 1.578.109 2.343zm0 0"/></svg><svg overflow="visible" x="176.062" y="37.714"><path d="M5.688-3.953c0-.953-.063-1.922-.47-2.797-.562-1.156-1.734-1.469-2.234-1.469-.718 0-1.796.438-2.28 1.547-.376.828-.438 1.766-.438 2.719 0 .89.109 2.062.593 2.969.516.968 1.532 1.25 2.11 1.25.656 0 1.75-.391 2.281-1.516.375-.828.438-1.766.438-2.703zm-1.391-.14c0 .89 0 1.702-.125 2.468C4-.485 3.516-.265 2.969-.265 2.516-.266 2-.438 1.78-1.579c-.125-.719-.125-1.813-.125-2.516 0-.765 0-1.562.094-2.203.219-1.422.922-1.406 1.219-1.406.406 0 .984.094 1.219 1.266.109.671.109 1.578.109 2.343zm0 0"/></svg><svg overflow="visible" x="191.998" y="37.714"><path d="M5.688-3.953c0-.953-.063-1.922-.47-2.797-.562-1.156-1.734-1.469-2.234-1.469-.718 0-1.796.438-2.28 1.547-.376.828-.438 1.766-.438 2.719 0 .89.109 2.062.593 2.969.516.968 1.532 1.25 2.11 1.25.656 0 1.75-.391 2.281-1.516.375-.828.438-1.766.438-2.703zm-1.391-.14c0 .89 0 1.702-.125 2.468C4-.485 3.516-.265 2.969-.265 2.516-.266 2-.438 1.78-1.579c-.125-.719-.125-1.813-.125-2.516 0-.765 0-1.562.094-2.203.219-1.422.922-1.406 1.219-1.406.406 0 .984.094 1.219 1.266.109.671.109 1.578.109 2.343zm0 0"/></svg><svg overflow="visible" x="207.935" y="37.714"><path d="M5.766-5.297c0-.125-.188-.016-.188-.016l-.125-.234c-.094 0-.266.063-.328.172-.36.563-.469.719-.75.719s-.297-.14-.484-.344c-.22-.266-.563-.547-.954-.547-.89 0-1.64 1.25-1.64 1.5 0 .047.234.25.344.25.109 0 .312-.187.343-.25.235-.562.735-.437.829-.437.25 0 .468.078.75.187.484.172.609.172.578.172-.235.281-1.235 1.156-1.47 1.344l-1.062 1C.781-.984.313-.203.313-.125.313 0 .78.094.78.094L.656.125c.094 0 .25-.047.328-.188.266-.421.5-.703.875-.703.282 0 .25.079.563.422.203.25.547.469.906.469 1.172 0 2.063-1.64 2.063-1.969 0-.062-.235-.25-.329-.25-.109 0-.343.203-.375.281-.28.782-.843.875-1.234.875C3.22-.938 3-1 2.75-1.093c-.406-.156-.594-.203-.844-.203l.14.234s-.343-.234-.452-.187l.125.219c.64-.688 1-.985 1.422-1.36 0 0 .75-.64 1.171-1.078 1.141-1.11 1.454-1.781 1.454-1.828zm0 0"/></svg><svg overflow="visible" x="213.86" y="33.374"><path d="M4.234-1.844H3.75c-.047.344-.063.735-.172.813-.062.047-.562 0-.687 0H1.812c.563-.5.86-.735 1.36-1.125.625-.5 1.265-1.14 1.265-1.938 0-1-1.093-1.781-2.171-1.781-1.032 0-1.954.89-1.954 1.656 0 .422.579.625.657.625.203 0 .656-.297.656-.61 0-.14-.266-.593-.422-.593.188-.437.547-.469.938-.469.843 0 1.062.5 1.062 1.172 0 .735-.453 1.203-.719 1.5l-2.03 2C.374-.516.311-.39.311 0h3.844l.313-1.844zm0 0"/></svg><svg overflow="visible" x="219.12" y="18.794"><path d="M4.328-.125v-18.063H.594c-.203 0-.563.282-.563.485s.36.484.563.484h2.625V0h1.11zm0 0"/></svg><svg overflow="visible" x="219.12" y="26.357"><path d="M4.14-12.219H3.22V0h1.11v-12.219zm0 0"/></svg><svg overflow="visible" x="219.12" y="39.897"><path d="M4.328-.125v-18.063h-1.11V-.983H.595c-.203 0-.563.296-.563.5 0 .203.36.484.563.484h3.734zm0 0"/></svg><svg overflow="visible" x="229.751" y="23.368"><path d="M2.484-3.125c0-.344-.468-.766-.828-.766-.343 0-.828.422-.828.766 0 .36.485.766.828.766.36 0 .828-.407.828-.766zm0 0"/></svg><svg overflow="visible" x="235.732" y="18.794"><path d="M7.922-17.703c0-.203-.344-.485-.547-.485H3.641V0H4.75v-17.219h2.625c.203 0 .547-.281.547-.484zm0 0"/></svg><svg overflow="visible" x="235.732" y="26.357"><path d="M4.75-.125v-12.094H3.64V0h1.11zm0 0"/></svg><svg overflow="visible" x="235.732" y="39.897"><path d="M7.922-.484c0-.204-.344-.5-.547-.5H4.75v-17.203H3.64V0h3.735c.203 0 .547-.281.547-.484zm0 0"/></svg><svg overflow="visible" x="248.356" y="8.822"><path d="M5.203-.125v-.516h-.578c-1.078 0-.922 0-.922-.437v-6.703c0-.282-.187-.438-.578-.438-.766.797-1.672.766-2.266.766v.625c.438 0 1.282-.031 1.563-.172v5.922c0 .437.172.437-.906.437H.937v.672C1.547-.03 2.595-.03 3.079-.03c.469 0 1.516 0 2.125.062zm0 0"/></svg><svg overflow="visible" x="273.593" y="8.822"><path d="M5.688-3.953c0-.953-.063-1.922-.47-2.797-.562-1.156-1.734-1.469-2.234-1.469-.718 0-1.796.438-2.28 1.547-.376.828-.438 1.766-.438 2.719 0 .89.109 2.062.593 2.969.516.968 1.532 1.25 2.11 1.25.656 0 1.75-.391 2.281-1.516.375-.828.438-1.766.438-2.703zm-1.391-.14c0 .89 0 1.702-.125 2.468C4-.485 3.516-.265 2.969-.265 2.516-.266 2-.438 1.78-1.579c-.125-.719-.125-1.813-.125-2.516 0-.765 0-1.562.094-2.203.219-1.422.922-1.406 1.219-1.406.406 0 .984.094 1.219 1.266.109.671.109 1.578.109 2.343zm0 0"/></svg><svg overflow="visible" x="294.18" y="8.822"><path d="M5.688-3.953c0-.953-.063-1.922-.47-2.797-.562-1.156-1.734-1.469-2.234-1.469-.718 0-1.796.438-2.28 1.547-.376.828-.438 1.766-.438 2.719 0 .89.109 2.062.593 2.969.516.968 1.532 1.25 2.11 1.25.656 0 1.75-.391 2.281-1.516.375-.828.438-1.766.438-2.703zm-1.391-.14c0 .89 0 1.702-.125 2.468C4-.485 3.516-.265 2.969-.265 2.516-.266 2-.438 1.78-1.579c-.125-.719-.125-1.813-.125-2.516 0-.765 0-1.562.094-2.203.219-1.422.922-1.406 1.219-1.406.406 0 .984.094 1.219 1.266.109.671.109 1.578.109 2.343zm0 0"/></svg><svg overflow="visible" x="243.706" y="23.268"><path d="M8.828-3.125c0-.125-.312-.36-.437-.36H.906c-.125 0-.437.235-.437.36 0 .14.312.375.437.375h7.485c.125 0 .437-.234.437-.375zm0 0"/></svg><svg overflow="visible" x="253.007" y="23.268"><path d="M5.36-2.344h-.47c-.077.485-.109.922-.234 1.094-.078.11-.718.063-.984.063H1.89l1.03-1c1.86-1.657 2.642-2.391 2.642-3.579 0-1.375-1.266-2.453-2.735-2.453C1.484-8.219.391-7 .391-5.922c0 .656.796.797.843.797.204 0 .813-.281.813-.766 0-.312-.406-.75-.828-.75-.094 0-.125 0 .125-.093.187-.547.64-.86 1.328-.86 1.094 0 1.406.844 1.406 1.828 0 .954-.547 1.797-1.203 2.532L.578-.672C.453-.532.391-.422.391 0h4.812l.375-2.344zm0 0"/></svg><svg overflow="visible" x="273.594" y="23.268"><path d="M5.36-2.344h-.47c-.077.485-.109.922-.234 1.094-.078.11-.718.063-.984.063H1.89l1.03-1c1.86-1.657 2.642-2.391 2.642-3.579 0-1.375-1.266-2.453-2.735-2.453C1.484-8.219.391-7 .391-5.922c0 .656.796.797.843.797.204 0 .813-.281.813-.766 0-.312-.406-.75-.828-.75-.094 0-.125 0 .125-.093.187-.547.64-.86 1.328-.86 1.094 0 1.406.844 1.406 1.828 0 .954-.547 1.797-1.203 2.532L.578-.672C.453-.532.391-.422.391 0h4.812l.375-2.344zm0 0"/></svg><svg overflow="visible" x="294.181" y="23.268"><path d="M5.688-3.953c0-.953-.063-1.922-.47-2.797-.562-1.156-1.734-1.469-2.234-1.469-.718 0-1.796.438-2.28 1.547-.376.828-.438 1.766-.438 2.719 0 .89.109 2.062.593 2.969.516.968 1.532 1.25 2.11 1.25.656 0 1.75-.391 2.281-1.516.375-.828.438-1.766.438-2.703zm-1.391-.14c0 .89 0 1.702-.125 2.468C4-.485 3.516-.265 2.969-.265 2.516-.266 2-.438 1.78-1.579c-.125-.719-.125-1.813-.125-2.516 0-.765 0-1.562.094-2.203.219-1.422.922-1.406 1.219-1.406.406 0 .984.094 1.219 1.266.109.671.109 1.578.109 2.343zm0 0"/></svg><svg overflow="visible" x="248.356" y="37.714"><path d="M5.203-.125v-.516h-.578c-1.078 0-.922 0-.922-.437v-6.703c0-.282-.187-.438-.578-.438-.766.797-1.672.766-2.266.766v.625c.438 0 1.282-.031 1.563-.172v5.922c0 .437.172.437-.906.437H.937v.672C1.547-.03 2.595-.03 3.079-.03c.469 0 1.516 0 2.125.062zm0 0"/></svg><svg overflow="visible" x="268.943" y="37.714"><path d="M8.828-3.125c0-.125-.312-.36-.437-.36H.906c-.125 0-.437.235-.437.36 0 .14.312.375.437.375h7.485c.125 0 .437-.234.437-.375zm0 0"/></svg><svg overflow="visible" x="278.244" y="37.714"><path d="M5.36-2.344h-.47c-.077.485-.109.922-.234 1.094-.078.11-.718.063-.984.063H1.89l1.03-1c1.86-1.657 2.642-2.391 2.642-3.579 0-1.375-1.266-2.453-2.735-2.453C1.484-8.219.391-7 .391-5.922c0 .656.796.797.843.797.204 0 .813-.281.813-.766 0-.312-.406-.75-.828-.75-.094 0-.125 0 .125-.093.187-.547.64-.86 1.328-.86 1.094 0 1.406.844 1.406 1.828 0 .954-.547 1.797-1.203 2.532L.578-.672C.453-.532.391-.422.391 0h4.812l.375-2.344zm0 0"/></svg><svg overflow="visible" x="294.18" y="37.714"><path d="M5.203-.125v-.516h-.578c-1.078 0-.922 0-.922-.437v-6.703c0-.282-.187-.438-.578-.438-.766.797-1.672.766-2.266.766v.625c.438 0 1.282-.031 1.563-.172v5.922c0 .437.172.437-.906.437H.937v.672C1.547-.03 2.595-.03 3.079-.03c.469 0 1.516 0 2.125.062zm0 0"/></svg><svg overflow="visible" x="300.166" y="18.794"><path d="M4.328-.125v-18.063H.594c-.203 0-.563.282-.563.485s.36.484.563.484h2.625V0h1.11zm0 0"/></svg><svg overflow="visible" x="300.166" y="26.357"><path d="M4.14-12.219H3.22V0h1.11v-12.219zm0 0"/></svg><svg overflow="visible" x="300.166" y="39.897"><path d="M4.328-.125v-18.063h-1.11V-.983H.595c-.203 0-.563.296-.563.5 0 .203.36.484.563.484h3.734zm0 0"/></svg><svg overflow="visible" x="311.461" y="23.368"><path d="M8.828-4.281c0-.125-.312-.375-.437-.375H.906c-.125 0-.437.25-.437.375 0 .14.312.375.437.375h7.485c.125 0 .437-.235.437-.375zm0 2.328c0-.14-.312-.375-.437-.375H.906c-.125 0-.437.234-.437.375 0 .125.312.36.437.36h7.485c.125 0 .437-.235.437-.36zm0 0"/></svg><svg overflow="visible" x="324.084" y="18.794"><path d="M7.922-17.703c0-.203-.344-.485-.547-.485H3.641V0H4.75v-17.219h2.625c.203 0 .547-.281.547-.484zm0 0"/></svg><svg overflow="visible" x="324.084" y="26.357"><path d="M4.75-.125v-12.094H3.64V0h1.11zm0 0"/></svg><svg overflow="visible" x="324.084" y="39.897"><path d="M7.922-.484c0-.204-.344-.5-.547-.5H4.75v-17.203H3.64V0h3.735c.203 0 .547-.281.547-.484zm0 0"/></svg><svg overflow="visible" x="351.625" y="8.822"><path d="M5.203-.125v-.516h-.578c-1.078 0-.922 0-.922-.437v-6.703c0-.282-.187-.438-.578-.438-.766.797-1.672.766-2.266.766v.625c.438 0 1.282-.031 1.563-.172v5.922c0 .437.172.437-.906.437H.937v.672C1.547-.03 2.595-.03 3.079-.03c.469 0 1.516 0 2.125.062zm0 0"/></svg><svg overflow="visible" x="421.286" y="8.822"><path d="M5.688-3.953c0-.953-.063-1.922-.47-2.797-.562-1.156-1.734-1.469-2.234-1.469-.718 0-1.796.438-2.28 1.547-.376.828-.438 1.766-.438 2.719 0 .89.109 2.062.593 2.969.516.968 1.532 1.25 2.11 1.25.656 0 1.75-.391 2.281-1.516.375-.828.438-1.766.438-2.703zm-1.391-.14c0 .89 0 1.702-.125 2.468C4-.485 3.516-.265 2.969-.265 2.516-.266 2-.438 1.78-1.579c-.125-.719-.125-1.813-.125-2.516 0-.765 0-1.562.094-2.203.219-1.422.922-1.406 1.219-1.406.406 0 .984.094 1.219 1.266.109.671.109 1.578.109 2.343zm0 0"/></svg><svg overflow="visible" x="473.979" y="8.822"><path d="M5.688-3.953c0-.953-.063-1.922-.47-2.797-.562-1.156-1.734-1.469-2.234-1.469-.718 0-1.796.438-2.28 1.547-.376.828-.438 1.766-.438 2.719 0 .89.109 2.062.593 2.969.516.968 1.532 1.25 2.11 1.25.656 0 1.75-.391 2.281-1.516.375-.828.438-1.766.438-2.703zm-1.391-.14c0 .89 0 1.702-.125 2.468C4-.485 3.516-.265 2.969-.265 2.516-.266 2-.438 1.78-1.579c-.125-.719-.125-1.813-.125-2.516 0-.765 0-1.562.094-2.203.219-1.422.922-1.406 1.219-1.406.406 0 .984.094 1.219 1.266.109.671.109 1.578.109 2.343zm0 0"/></svg><svg overflow="visible" x="332.058" y="23.268"><path d="M8.828-3.125c0-.125-.312-.36-.437-.36H.906c-.125 0-.437.235-.437.36 0 .14.312.375.437.375h7.485c.125 0 .437-.234.437-.375zm0 0"/></svg><svg overflow="visible" x="341.359" y="23.268"><path d="M4.156 2.719c0-.047-.078-.172-.11-.203-1.234-.922-2-3.22-2-5.141v-1c0-1.906.767-4.203 2-5.14a.457.457 0 00.11-.188c0-.063-.25-.25-.312-.25a1.01 1.01 0 00-.203.062C2.312-8.156 1-5.67 1-3.625v1C1-.578 2.313 1.906 3.64 2.906c.016.016.188.063.204.063.062 0 .312-.203.312-.25zm0 0"/></svg><svg overflow="visible" x="346.01" y="23.268"><path d="M5.766-5.297c0-.125-.188-.016-.188-.016l-.125-.234c-.094 0-.266.063-.328.172-.36.563-.469.719-.75.719s-.297-.14-.484-.344c-.22-.266-.563-.547-.954-.547-.89 0-1.64 1.25-1.64 1.5 0 .047.234.25.344.25.109 0 .312-.187.343-.25.235-.562.735-.437.829-.437.25 0 .468.078.75.187.484.172.609.172.578.172-.235.281-1.235 1.156-1.47 1.344l-1.062 1C.781-.984.313-.203.313-.125.313 0 .78.094.78.094L.656.125c.094 0 .25-.047.328-.188.266-.421.5-.703.875-.703.282 0 .25.079.563.422.203.25.547.469.906.469 1.172 0 2.063-1.64 2.063-1.969 0-.062-.235-.25-.329-.25-.109 0-.343.203-.375.281-.28.782-.843.875-1.234.875C3.22-.938 3-1 2.75-1.093c-.406-.156-.594-.203-.844-.203l.14.234s-.343-.234-.452-.187l.125.219c.64-.688 1-.985 1.422-1.36 0 0 .75-.64 1.171-1.078 1.141-1.11 1.454-1.781 1.454-1.828zm0 0"/></svg><svg overflow="visible" x="354.582" y="23.268"><path d="M8.828-3.125c0-.125-.312-.36-.437-.36H.906c-.125 0-.437.235-.437.36 0 .14.312.375.437.375h7.485c.125 0 .437-.234.437-.375zm0 0"/></svg><svg overflow="visible" x="366.537" y="23.268"><path d="M5.203-.125v-.516h-.578c-1.078 0-.922 0-.922-.437v-6.703c0-.282-.187-.438-.578-.438-.766.797-1.672.766-2.266.766v.625c.438 0 1.282-.031 1.563-.172v5.922c0 .437.172.437-.906.437H.937v.672C1.547-.03 2.595-.03 3.079-.03c.469 0 1.516 0 2.125.062zm0 0"/></svg><svg overflow="visible" x="372.514" y="23.268"><path d="M3.64-2.625v-1c0-2.047-1.328-4.531-2.64-5.516a.774.774 0 00-.203-.062c-.063 0-.313.187-.313.25 0 .031.079.172.094.187 1.25.938 2.016 3.235 2.016 5.141v1c0 1.922-.766 4.219-2.016 5.14-.015.032-.094.157-.094.204 0 .047.25.25.313.25A.774.774 0 001 2.906c1.313-1 2.64-3.484 2.64-5.531zm0 0"/></svg><svg overflow="visible" x="421.316" y="23.268"><path d="M5.766-5.297c0-.125-.188-.016-.188-.016l-.125-.234c-.094 0-.266.063-.328.172-.36.563-.469.719-.75.719s-.297-.14-.484-.344c-.22-.266-.563-.547-.954-.547-.89 0-1.64 1.25-1.64 1.5 0 .047.234.25.344.25.109 0 .312-.187.343-.25.235-.562.735-.437.829-.437.25 0 .468.078.75.187.484.172.609.172.578.172-.235.281-1.235 1.156-1.47 1.344l-1.062 1C.781-.984.313-.203.313-.125.313 0 .78.094.78.094L.656.125c.094 0 .25-.047.328-.188.266-.421.5-.703.875-.703.282 0 .25.079.563.422.203.25.547.469.906.469 1.172 0 2.063-1.64 2.063-1.969 0-.062-.235-.25-.329-.25-.109 0-.343.203-.375.281-.28.782-.843.875-1.234.875C3.22-.938 3-1 2.75-1.093c-.406-.156-.594-.203-.844-.203l.14.234s-.343-.234-.452-.187l.125.219c.64-.688 1-.985 1.422-1.36 0 0 .75-.64 1.171-1.078 1.141-1.11 1.454-1.781 1.454-1.828zm0 0"/></svg><svg overflow="visible" x="473.979" y="23.268"><path d="M5.688-3.953c0-.953-.063-1.922-.47-2.797-.562-1.156-1.734-1.469-2.234-1.469-.718 0-1.796.438-2.28 1.547-.376.828-.438 1.766-.438 2.719 0 .89.109 2.062.593 2.969.516.968 1.532 1.25 2.11 1.25.656 0 1.75-.391 2.281-1.516.375-.828.438-1.766.438-2.703zm-1.391-.14c0 .89 0 1.702-.125 2.468C4-.485 3.516-.265 2.969-.265 2.516-.266 2-.438 1.78-1.579c-.125-.719-.125-1.813-.125-2.516 0-.765 0-1.562.094-2.203.219-1.422.922-1.406 1.219-1.406.406 0 .984.094 1.219 1.266.109.671.109 1.578.109 2.343zm0 0"/></svg><svg overflow="visible" x="334.078" y="37.714"><path d="M4.156 2.719c0-.047-.078-.172-.11-.203-1.234-.922-2-3.22-2-5.141v-1c0-1.906.767-4.203 2-5.14a.457.457 0 00.11-.188c0-.063-.25-.25-.312-.25a1.01 1.01 0 00-.203.062C2.312-8.156 1-5.67 1-3.625v1C1-.578 2.313 1.906 3.64 2.906c.016.016.188.063.204.063.062 0 .312-.203.312-.25zm0 0"/></svg><svg overflow="visible" x="338.729" y="37.714"><path d="M5.766-5.297c0-.125-.188-.016-.188-.016l-.125-.234c-.094 0-.266.063-.328.172-.36.563-.469.719-.75.719s-.297-.14-.484-.344c-.22-.266-.563-.547-.954-.547-.89 0-1.64 1.25-1.64 1.5 0 .047.234.25.344.25.109 0 .312-.187.343-.25.235-.562.735-.437.829-.437.25 0 .468.078.75.187.484.172.609.172.578.172-.235.281-1.235 1.156-1.47 1.344l-1.062 1C.781-.984.313-.203.313-.125.313 0 .78.094.78.094L.656.125c.094 0 .25-.047.328-.188.266-.421.5-.703.875-.703.282 0 .25.079.563.422.203.25.547.469.906.469 1.172 0 2.063-1.64 2.063-1.969 0-.062-.235-.25-.329-.25-.109 0-.343.203-.375.281-.28.782-.843.875-1.234.875C3.22-.938 3-1 2.75-1.093c-.406-.156-.594-.203-.844-.203l.14.234s-.343-.234-.452-.187l.125.219c.64-.688 1-.985 1.422-1.36 0 0 .75-.64 1.171-1.078 1.141-1.11 1.454-1.781 1.454-1.828zm0 0"/></svg><svg overflow="visible" x="347.3" y="37.714"><path d="M8.828-3.125c0-.125-.312-.36-.437-.36H.906c-.125 0-.437.235-.437.36 0 .14.312.375.437.375h7.485c.125 0 .437-.234.437-.375zm0 0"/></svg><svg overflow="visible" x="359.256" y="37.714"><path d="M5.203-.125v-.516h-.578c-1.078 0-.922 0-.922-.437v-6.703c0-.282-.187-.438-.578-.438-.766.797-1.672.766-2.266.766v.625c.438 0 1.282-.031 1.563-.172v5.922c0 .437.172.437-.906.437H.937v.672C1.547-.03 2.595-.03 3.079-.03c.469 0 1.516 0 2.125.062zm0 0"/></svg><svg overflow="visible" x="365.233" y="37.714"><path d="M3.64-2.625v-1c0-2.047-1.328-4.531-2.64-5.516a.774.774 0 00-.203-.062c-.063 0-.313.187-.313.25 0 .031.079.172.094.187 1.25.938 2.016 3.235 2.016 5.141v1c0 1.922-.766 4.219-2.016 5.14-.015.032-.094.157-.094.204 0 .047.25.25.313.25A.774.774 0 001 2.906c1.313-1 2.64-3.484 2.64-5.531zm0 0"/></svg><svg overflow="visible" x="369.89" y="33.374"><path d="M4.234-1.844H3.75c-.047.344-.063.735-.172.813-.062.047-.562 0-.687 0H1.812c.563-.5.86-.735 1.36-1.125.625-.5 1.265-1.14 1.265-1.938 0-1-1.093-1.781-2.171-1.781-1.032 0-1.954.89-1.954 1.656 0 .422.579.625.657.625.203 0 .656-.297.656-.61 0-.14-.266-.593-.422-.593.188-.437.547-.469.938-.469.843 0 1.062.5 1.062 1.172 0 .735-.453 1.203-.719 1.5l-2.03 2C.374-.516.311-.39.311 0h3.844l.313-1.844zm0 0"/></svg><svg overflow="visible" x="387.133" y="37.714"><path d="M8.828-3.125c0-.125-.312-.36-.437-.36H.906c-.125 0-.437.235-.437.36 0 .14.312.375.437.375h7.485c.125 0 .437-.234.437-.375zm0 0"/></svg><svg overflow="visible" x="396.434" y="37.714"><path d="M5.36-2.344h-.47c-.077.485-.109.922-.234 1.094-.078.11-.718.063-.984.063H1.89l1.03-1c1.86-1.657 2.642-2.391 2.642-3.579 0-1.375-1.266-2.453-2.735-2.453C1.484-8.219.391-7 .391-5.922c0 .656.796.797.843.797.204 0 .813-.281.813-.766 0-.312-.406-.75-.828-.75-.094 0-.125 0 .125-.093.187-.547.64-.86 1.328-.86 1.094 0 1.406.844 1.406 1.828 0 .954-.547 1.797-1.203 2.532L.578-.672C.453-.532.391-.422.391 0h4.812l.375-2.344zm0 0"/></svg><svg overflow="visible" x="405.066" y="37.714"><path d="M2.484-3.125c0-.344-.468-.766-.828-.766-.343 0-.828.422-.828.766 0 .36.485.766.828.766.36 0 .828-.407.828-.766zm0 0"/></svg><svg overflow="visible" x="411.043" y="37.714"><path d="M4.156 2.719c0-.047-.078-.172-.11-.203-1.234-.922-2-3.22-2-5.141v-1c0-1.906.767-4.203 2-5.14a.457.457 0 00.11-.188c0-.063-.25-.25-.312-.25a1.01 1.01 0 00-.203.062C2.312-8.156 1-5.67 1-3.625v1C1-.578 2.313 1.906 3.64 2.906c.016.016.188.063.204.063.062 0 .312-.203.312-.25zm0 0"/></svg><svg overflow="visible" x="415.694" y="37.714"><path d="M5.766-5.297c0-.125-.188-.016-.188-.016l-.125-.234c-.094 0-.266.063-.328.172-.36.563-.469.719-.75.719s-.297-.14-.484-.344c-.22-.266-.563-.547-.954-.547-.89 0-1.64 1.25-1.64 1.5 0 .047.234.25.344.25.109 0 .312-.187.343-.25.235-.562.735-.437.829-.437.25 0 .468.078.75.187.484.172.609.172.578.172-.235.281-1.235 1.156-1.47 1.344l-1.062 1C.781-.984.313-.203.313-.125.313 0 .78.094.78.094L.656.125c.094 0 .25-.047.328-.188.266-.421.5-.703.875-.703.282 0 .25.079.563.422.203.25.547.469.906.469 1.172 0 2.063-1.64 2.063-1.969 0-.062-.235-.25-.329-.25-.109 0-.343.203-.375.281-.28.782-.843.875-1.234.875C3.22-.938 3-1 2.75-1.093c-.406-.156-.594-.203-.844-.203l.14.234s-.343-.234-.452-.187l.125.219c.64-.688 1-.985 1.422-1.36 0 0 .75-.64 1.171-1.078 1.141-1.11 1.454-1.781 1.454-1.828zm0 0"/></svg><g><svg overflow="visible" x="424.266" y="37.714"><path d="M8.828-3.125c0-.125-.312-.36-.437-.36H.906c-.125 0-.437.235-.437.36 0 .14.312.375.437.375h7.485c.125 0 .437-.234.437-.375zm0 0"/></svg></g><g><svg overflow="visible" x="436.221" y="37.714"><path d="M5.203-.125v-.516h-.578c-1.078 0-.922 0-.922-.437v-6.703c0-.282-.187-.438-.578-.438-.766.797-1.672.766-2.266.766v.625c.438 0 1.282-.031 1.563-.172v5.922c0 .437.172.437-.906.437H.937v.672C1.547-.03 2.595-.03 3.079-.03c.469 0 1.516 0 2.125.062zm0 0"/></svg><svg overflow="visible" x="442.199" y="37.714"><path d="M3.64-2.625v-1c0-2.047-1.328-4.531-2.64-5.516a.774.774 0 00-.203-.062c-.063 0-.313.187-.313.25 0 .031.079.172.094.187 1.25.938 2.016 3.235 2.016 5.141v1c0 1.922-.766 4.219-2.016 5.14-.015.032-.094.157-.094.204 0 .047.25.25.313.25A.774.774 0 001 2.906c1.313-1 2.64-3.484 2.64-5.531zm0 0"/></svg></g><g><svg overflow="visible" x="449.515" y="37.714"><path d="M2.484-3.125c0-.344-.468-.766-.828-.766-.343 0-.828.422-.828.766 0 .36.485.766.828.766.36 0 .828-.407.828-.766zm0 0"/></svg></g><g><svg overflow="visible" x="455.493" y="37.714"><path d="M5.766-5.297c0-.125-.188-.016-.188-.016l-.125-.234c-.094 0-.266.063-.328.172-.36.563-.469.719-.75.719s-.297-.14-.484-.344c-.22-.266-.563-.547-.954-.547-.89 0-1.64 1.25-1.64 1.5 0 .047.234.25.344.25.109 0 .312-.187.343-.25.235-.562.735-.437.829-.437.25 0 .468.078.75.187.484.172.609.172.578.172-.235.281-1.235 1.156-1.47 1.344l-1.062 1C.781-.984.313-.203.313-.125.313 0 .78.094.78.094L.656.125c.094 0 .25-.047.328-.188.266-.421.5-.703.875-.703.282 0 .25.079.563.422.203.25.547.469.906.469 1.172 0 2.063-1.64 2.063-1.969 0-.062-.235-.25-.329-.25-.109 0-.343.203-.375.281-.28.782-.843.875-1.234.875C3.22-.938 3-1 2.75-1.093c-.406-.156-.594-.203-.844-.203l.14.234s-.343-.234-.452-.187l.125.219c.64-.688 1-.985 1.422-1.36 0 0 .75-.64 1.171-1.078 1.141-1.11 1.454-1.781 1.454-1.828zm0 0"/></svg></g><g><svg overflow="visible" x="471.369" y="37.714"><path d="M5.766-5.297c0-.125-.188-.016-.188-.016l-.125-.234c-.094 0-.266.063-.328.172-.36.563-.469.719-.75.719s-.297-.14-.484-.344c-.22-.266-.563-.547-.954-.547-.89 0-1.64 1.25-1.64 1.5 0 .047.234.25.344.25.109 0 .312-.187.343-.25.235-.562.735-.437.829-.437.25 0 .468.078.75.187.484.172.609.172.578.172-.235.281-1.235 1.156-1.47 1.344l-1.062 1C.781-.984.313-.203.313-.125.313 0 .78.094.78.094L.656.125c.094 0 .25-.047.328-.188.266-.421.5-.703.875-.703.282 0 .25.079.563.422.203.25.547.469.906.469 1.172 0 2.063-1.64 2.063-1.969 0-.062-.235-.25-.329-.25-.109 0-.343.203-.375.281-.28.782-.843.875-1.234.875C3.22-.938 3-1 2.75-1.093c-.406-.156-.594-.203-.844-.203l.14.234s-.343-.234-.452-.187l.125.219c.64-.688 1-.985 1.422-1.36 0 0 .75-.64 1.171-1.078 1.141-1.11 1.454-1.781 1.454-1.828zm0 0"/></svg></g><g><svg overflow="visible" x="477.297" y="33.374"><path d="M4.234-1.844H3.75c-.047.344-.063.735-.172.813-.062.047-.562 0-.687 0H1.812c.563-.5.86-.735 1.36-1.125.625-.5 1.265-1.14 1.265-1.938 0-1-1.093-1.781-2.171-1.781-1.032 0-1.954.89-1.954 1.656 0 .422.579.625.657.625.203 0 .656-.297.656-.61 0-.14-.266-.593-.422-.593.188-.437.547-.469.938-.469.843 0 1.062.5 1.062 1.172 0 .735-.453 1.203-.719 1.5l-2.03 2C.374-.516.311-.39.311 0h3.844l.313-1.844zm0 0"/></svg></g><g><svg overflow="visible" x="482.556" y="18.794"><path d="M4.328-.125v-18.063H.594c-.203 0-.563.282-.563.485s.36.484.563.484h2.625V0h1.11zm0 0"/></svg></g><g><svg overflow="visible" x="482.556" y="26.357"><path d="M4.14-12.219H3.22V0h1.11v-12.219zm0 0"/></svg></g><g><svg overflow="visible" x="482.556" y="39.897"><path d="M4.328-.125v-18.063h-1.11V-.983H.595c-.203 0-.563.296-.563.5 0 .203.36.484.563.484h3.734zm0 0"/></svg></g></svg>