<svg xmlns="http://www.w3.org/2000/svg" xmlns:xlink="http://www.w3.org/1999/xlink" width="252" height="55px" viewBox="0 0 189 41"><svg overflow="visible" x="-.526" y="23.29"><path d="M8.266-4.078a1.419 1.419 0 01-.047-.36c0-.109.015-.234.062-.484h-7.5c.063.25.063.375.063.484 0 .125 0 .235-.063.5h7.5zm0 2.625a1.332 1.332 0 01-.047-.36c0-.109.015-.234.062-.484h-7.5c.063.25.063.375.063.485 0 .125 0 .25-.063.5h7.5zm0 0"/></svg><svg overflow="visible" x="11.872" y="23.29"><path d="M4.406-9.766c-.015-.078-.031-.156-.031-.234 0-.094.016-.172.078-.375H1.375V4.141h3.078c-.062-.204-.078-.297-.078-.375 0-.079.016-.172.078-.375H2.437V-9.641h2.016zm0 0"/></svg><svg overflow="visible" x="17.178" y="23.298"><path d="M5.125-.094v-.484l-.75-.047c-.656-.031-.64-.031-.64-.656v-7.172l-.313-.125c-.875.469-1.61.781-2.86 1.219l.125.718h.235l1.547-.687.031-.016c.063 0-.047-.015-.047.266v5.797c0 .625.016.625-.64.656L1-.578v.625L3.125 0l2 .047zm0 0"/></svg><svg overflow="visible" x="33.114" y="23.298"><path d="M3.703-5.516c-.453.047-.86.063-1.156.063.172-.984.297-1.578.531-2.25l-.25-.328a7.16 7.16 0 01-1.094.531l-.296 2.031c-.391.203-.704.328-1.063.407l-.047.406h1l-.64 3.25C.625-1.11.53-.813.53-.5c0 .297.266.61.5.61.422 0 .922-.282 1.86-1.032.218-.172.14-.125.437-.36l-.25-.437-.672.469c-.36.25-.484.313-.625.313-.093 0-.031.046-.031-.11 0-.297.156-1.234.516-3l.14-.61h1.266l.203-.89zm0 0"/></svg><svg overflow="visible" x="47.114" y="23.298"><path d="M3.703-5.516c-.453.047-.86.063-1.156.063.172-.984.297-1.578.531-2.25l-.25-.328a7.16 7.16 0 01-1.094.531l-.296 2.031c-.391.203-.704.328-1.063.407l-.047.406h1l-.64 3.25C.625-1.11.53-.813.53-.5c0 .297.266.61.5.61.422 0 .922-.282 1.86-1.032.218-.172.14-.125.437-.36l-.25-.437-.672.469c-.36.25-.484.313-.625.313-.093 0-.031.046-.031-.11 0-.297.156-1.234.516-3l.14-.61h1.266l.203-.89zm0 0"/></svg><svg overflow="visible" x="51.162" y="19.066"><path d="M4.75-.11c-.016-.187-.016-.265-.016-.39s0-.203.032-.547l-3.141.094 1.5-1.469c.938-.906 1.266-1.5 1.266-2.156 0-1.016-.891-1.781-2.125-1.781-.688 0-1.282.218-1.782.687L.297-4.266h.547l.172-.546c.156-.516.359-.594 1-.594.828 0 1.203.343 1.203 1.093 0 .657-.36 1.22-1.453 2.282L.078-.391v.422L2.391 0l2.375.031zm0 0"/></svg><svg overflow="visible" x="56.659" y="23.29"><path d="M3.906 4v-14.375H.828c.063.203.078.281.078.375 0 .078-.015.156-.078.36h2.016V3.39H.828c.063.204.078.297.078.376 0 .078-.015.171-.078.375h3.078zm0 0"/></svg><svg overflow="visible" x="64.609" y="23.29"><path d="M2.516-3.125c0-.422-.407-.844-.844-.844-.422 0-.86.422-.86.844 0 .438.438.86.86.86.437 0 .844-.422.844-.86zm0 0"/></svg><svg overflow="visible" x="70.611" y="23.29"><path d="M11.234-8.531c-.328.015-.671.031-1 .031-.343 0-.671-.016-1.078-.047-.25.485-.031.172-1.047 1.906L5.172-1.594l.25.094-1.844-7.047c-.422.031-.75.047-1.094.047-.328 0-.671-.016-1.125-.047l-.062.61.469.03c.625.048.703.032.703.345a.693.693 0 01-.047.234L.687-1.25C.516-.625.47-.594-.327-.531l-.047.578L1.109 0C1.547 0 2 .016 2.547.047l.062-.594-.593-.047c-.391-.047-.47-.015-.47-.187 0-.125.032-.281.095-.5l1.484-5.547h-.281L4.656.219h.453l.72-1.282 2.843-4.953.625-1.03-.235-.095-.437 6.204c-.031.343-.047.28-.672.343l-.5.047-.047.594L9.156 0l1.703.047.063-.594-.578-.047C9.906-.64 9.813-.64 9.828-.89l.016-.437.484-6.344c.016-.234.078-.219.422-.234l.563-.032.062-.609zm0 0"/></svg><svg overflow="visible" x="99.781" y="23.29"><path d="M2.516-3.125c0-.422-.407-.844-.844-.844-.422 0-.86.422-.86.844 0 .438.438.86.86.86.437 0 .844-.422.844-.86zm0 0"/></svg><svg overflow="visible" x="120.727" y="23.29"><path d="M8.469.469H8.03c-.078.781-.203.937-.687.937-.203 0-.422-.062-.735-.172L3.797.078C3.484-.032 3.28-.078 3-.078c-.89 0-1.688.734-1.64 1.64l.25.094s-.25.016-.22.203l.548.297c0-1.156.156-1.453.78-1.453.36 0 .579.063 1.048.313l1.734.906c.719.375 1.031.484 1.516.484.89 0 1.453-.656 1.593-1.937zm.61-5.688c0-2.125-1.376-3.484-3.532-3.484-2.828 0-5.063 2.312-5.063 5.328C.484-1.125 1.75.219 3.86.219c1.016 0 1.97-.266 2.735-.75C8.109-1.47 9.078-3.328 9.078-5.22zm-1.329.203c0 1.5-.453 2.75-1.266 3.594-.578.594-1.25.875-2.187.875-1.719 0-2.484-.906-2.484-2.89 0-1.563.453-2.86 1.265-3.688.563-.578 1.188-.813 2.094-.813.578 0 1.062.11 1.453.344.781.453 1.125 1.266 1.125 2.578zm0 0"/></svg><svg overflow="visible" x="144.972" y="23.29"><path d="M2.516-3.125c0-.422-.407-.844-.844-.844-.422 0-.86.422-.86.844 0 .438.438.86.86.86.437 0 .844-.422.844-.86zm0 0"/></svg><svg overflow="visible" x="82.189" y="25.693"><path d="M10.563 2.11h-5.11C2.531 2.11.875 2.062.516 1.046c-.235.156-.204.172-.282.203-.078.016-.156.031-.406.063.36 1.015 2.36 1.921 5.625 1.921h5.25V2.11zm0 0"/></svg><svg overflow="visible" x="92.303" y="25.693"><path d="M10.578 3.094v-.985H-.14v1.125h10.72zm0 0"/></svg><svg overflow="visible" x="102.178" y="25.693"><path d="M10.578 3.094v-.985H-.14v1.125h10.72zm0 0"/></svg><svg overflow="visible" x="112.161" y="25.693"><path d="M21.281 3.094v-.985h-5.484c-2.86 0-4.735.563-5.235 1.125-.5-.562-2.343-1.125-5.203-1.125h-5.5v1.125h5.5c3.188 0 4.844-.062 4.844.938.203-.078.297-.078.375-.078.078 0 .156 0 .375.078 0-1 1.656-.938 4.844-.938h5.484zm0 0"/></svg><svg overflow="visible" x="132.843" y="25.693"><path d="M10.578 3.094v-.985H-.14v1.125h10.72zm0 0"/></svg><svg overflow="visible" x="142.718" y="25.693"><path d="M10.578 3.094v-.985H-.14v1.125h10.72zm0 0"/></svg><svg overflow="visible" x="152.701" y="25.693"><path d="M10.578 1.297c-.078-.016-.172-.031-.234-.047-.094-.031-.063-.047-.281-.203-.376 1.016-2.032 1.062-4.938 1.062H-.141v1.125h5.266c3.25 0 5.25-.906 5.625-1.921zm0 0"/></svg><svg overflow="visible" x="100.562" y="37.737"><path d="M.281-.5c0 .25.344.547.578.547.297 0 .72-.422.72-.75 0-.235-.36-.547-.579-.547-.297 0-.719.406-.719.75zm0 0"/></svg><svg overflow="visible" x="102.774" y="37.737"><path d="M.281-.5c0 .25.344.547.578.547.297 0 .72-.422.72-.75 0-.235-.36-.547-.579-.547-.297 0-.719.406-.719.75zm0 0"/></svg><svg overflow="visible" x="104.985" y="37.737"><path d="M.281-.5c0 .25.344.547.578.547.297 0 .72-.422.72-.75 0-.235-.36-.547-.579-.547-.297 0-.719.406-.719.75zm0 0"/></svg><svg overflow="visible" x="107.197" y="37.737"><path d="M.36-3.453h.53L.423-1.078C.375-.86.297-.641.297-.406c0 .219.297.484.469.484.296 0 .734-.203 1.437-.765.156-.125.11-.094.344-.282l-.235-.422-.593.407c-.266.171-.297.218-.407.218-.062 0 .079.063.079-.046 0-.22.109-.907.375-2.22l.093-.421h.938l.172-.735c-.563.063-.86.079-.985.079.11-.688.204-1.125.375-1.61l-.25-.328c-.359.203-.453.281-.921.453l-.22 1.532a4.276 4.276 0 01-.78.28l-.047.329zm0 0"/></svg><svg overflow="visible" x="109.966" y="37.737"><path d="M-.047-1.484c0 .937.594 1.578 1.328 1.578.485 0 1.157-.266 1.547-.64.547-.516 1-1.626 1-2.516 0-.829-.64-1.47-1.375-1.47-.375 0-.937.188-1.328.47-.719.515-1.172 1.5-1.172 2.578zm1.063.015c0-1 .28-1.984.718-2.343.11-.094.188-.11.391-.11.547 0 .64.266.64 1 0 .86-.218 1.688-.609 2.156C2-.578 1.906-.5 1.641-.5c-.516 0-.625-.266-.625-.969zm0 0"/></svg><svg overflow="visible" x="116.097" y="37.737"><path d="M-.516 1.281c0 .625.813 1.157 1.766 1.157 1.14 0 2.328-.766 2.328-1.5 0-.313-.234-.735-.61-1.047l-.53-.438c-.313-.234-.376-.297-.376-.469 0-.078 0-.078.141-.234.031-.047.031-.047.047-.063.734-.187 1.547-1.062 1.547-1.843 0-.078 0-.156-.016-.297l.031.11h.063c.156 0 .25-.016.625-.048l.094-.5-.125-.234c-.344.094-.516.11-.89.11-.11-.188-.329-.313-.548-.391a1.619 1.619 0 00-.594-.125c-.374 0-.953.203-1.343.5-.5.375-.797.984-.797 1.61 0 .671.594 1.218 1.266 1.218.078 0 .171 0-.172.031l-.063.063c-.14.14-.297.39-.297.515 0 .094.125.281.078.25C.75-.219.33-.047 0 .234c-.297.25-.516.688-.516 1.047zm.938-.125c0-.343.11-.562.39-.797.235-.187.297-.234.688-.343l.594.468c.406.313.531.454.531.75 0 .454-.422.688-1.156.688-.719 0-1.047-.234-1.047-.766zm.875-3.828c0-.844.266-1.297.906-1.297.516 0 .578.188.578.828 0 .907-.219 1.391-.844 1.391-.546 0-.64-.234-.64-.922zm0 0"/></svg><svg overflow="visible" x="120.308" y="37.737"><path d="M-.063-1.125A1.23 1.23 0 001.157.094c.5 0 1.124-.281 2.015-1l-.188-.453-.437.296c-.469.344-.75.485-1.063.485-.437 0-.5-.203-.5-.735 0-.234.032-.453.063-.609l.547-.14a3.93 3.93 0 00.61-.235c.765-.328 1.296-.86 1.296-1.406 0-.422-.484-.828-.938-.828-.578 0-1.671.625-2.03 1.203-.266.422-.595 1.578-.595 2.203zm1.172-1.11l.079-.328c.14-.578.265-.874.5-1.093.171-.156.312-.235.546-.235.25 0 .22.047.22.329 0 .39-.11.671-.563.89-.25.11-.579.219-.735.25zm0 0"/></svg><svg overflow="visible" x="123.749" y="37.737"><path d="M.36-3.453h.53L.423-1.078C.375-.86.297-.641.297-.406c0 .219.297.484.469.484.296 0 .734-.203 1.437-.765.156-.125.11-.094.344-.282l-.235-.422-.593.407c-.266.171-.297.218-.407.218-.062 0 .079.063.079-.046 0-.22.109-.907.375-2.22l.093-.421h.938l.172-.735c-.563.063-.86.079-.985.079.11-.688.204-1.125.375-1.61l-.25-.328c-.359.203-.453.281-.921.453l-.22 1.532a4.276 4.276 0 01-.78.28l-.047.329zm0 0"/></svg><svg overflow="visible" x="128.898" y="37.737"><path d="M.36-3.453h.53L.423-1.078C.375-.86.297-.641.297-.406c0 .219.297.484.469.484.296 0 .734-.203 1.437-.765.156-.125.11-.094.344-.282l-.235-.422-.593.407c-.266.171-.297.218-.407.218-.062 0 .079.063.079-.046 0-.22.109-.907.375-2.22l.093-.421h.938l.172-.735c-.563.063-.86.079-.985.079.11-.688.204-1.125.375-1.61l-.25-.328c-.359.203-.453.281-.921.453l-.22 1.532a4.276 4.276 0 01-.78.28l-.047.329zm0 0"/></svg><svg overflow="visible" x="131.632" y="37.737"><path d="M-.047-.047L.047.11l.89-.203c.157-1.125.25-1.562.5-2.031.391-.719 1.188-1.531 1.547-1.531.125 0 0-.063 0 .062 0 .156-.046.485-.125.781l-.453 1.735c-.078.312-.11.516-.11.687 0 .204.282.47.454.47.234 0 .688-.22 1.625-.923l-.234-.422-.438.282c-.25.156-.312.218-.39.218-.063 0 .062.063.062-.046 0-.079.016-.157.063-.344L4-3.422c.063-.234.11-.5.11-.656 0-.188-.282-.453-.454-.453-.297 0-.984.328-1.531.797-.313.265-.453.421-.875.937l-.172.219.328.11.875-4.079-.265-.25c-.641.313-.813.36-1.625.438l-.079.437h.641c.219 0 .11-.078.11.078 0 .063-.016.14-.016.203L.672-3.562C.437-2.234.078-.704-.11-.156zm0 0"/></svg><svg overflow="visible" x="136.055" y="37.737"><path d="M.11-3.563l.14.438.531-.344c.25-.172.203-.172.281-.172.094 0-.03-.062-.03.047 0 .078-.048.266-.079.39L.375-1.077c-.078.281-.125.5-.125.687 0 .204.297.47.469.47.234 0 .687-.235 1.61-.923l-.22-.422-.437.282c-.266.171-.313.218-.39.218-.063 0 .062.063.062-.046 0-.079.015-.157.062-.344l.688-2.688c.031-.156.047-.234.047-.328 0-.14-.25-.36-.407-.36-.203 0-.656.22-1.328.688l-.312.235zm1.218-1.906c0 .219.328.5.547.5.281 0 .656-.39.656-.734 0-.203-.312-.484-.5-.484-.265 0-.703.421-.703.718zm0 0"/></svg><svg overflow="visible" x="138.515" y="37.737"><path d="M-.063-.172c.344.156.782.266 1.094.266.422 0 .969-.188 1.422-.547.453-.36.688-.781.688-1.219 0-.484-.47-.86-1.125-.984l-.375-.078c-.532-.094-.516-.11-.516-.47 0-.468.203-.702.719-.702.36 0 .547.125.64.265v.61h.563c.062-.438.094-.672.203-1.156-.547-.266-.797-.344-1.078-.344-.469 0-1.14.297-1.578.734-.219.235-.375.547-.375.875 0 .485.469.906 1.062 1.016l.547.11c.39.077.344.093.344.437 0 .593-.219.843-.844.843-.312 0-.453-.062-.64-.234v-.828H.094c-.063.594-.11.89-.219 1.36zm0 0"/></svg><svg overflow="visible" x="141.956" y="37.737"><path d="M.484-.484c0 .265.344.562.579.562.296 0 .718-.422.718-.75 0-.234-.36-.562-.578-.562-.297 0-.719.421-.719.75zm.547-1.266l.203.094.422-.25 1.125-4.672-.25-.188-.984.297-.063.719-.312 2.547-.203 1.422zm0 0"/></svg><svg overflow="visible" x="165.267" y="15.297"><path d="M5.078-14.781H1.562V0h1.235v-14.031h2.469c-.079-.203-.094-.281-.094-.375 0-.078.016-.172.094-.375zm0 0"/></svg><svg overflow="visible" x="165.267" y="22.592"><path d="M2.672-9.938h-1.11V0h1.235v-9.938zm0 0"/></svg><svg overflow="visible" x="165.267" y="27.694"><path d="M2.672-9.938h-1.11V0h1.235v-9.938zm0 0"/></svg><svg overflow="visible" x="165.267" y="39.819"><path d="M5.219-.125a.648.648 0 01-.047-.25c0-.078.016-.156.094-.36h-2.47V-14.78H1.564V0h3.703zm0 0"/></svg><svg overflow="visible" x="171.496" y="8.745"><path d="M7.234-6.594c0-1.218-1.265-1.937-2.312-1.937-.547 0-1.094.031-1.64.031l-2.126-.047-.062.61.812.03c.297 0 .282-.03.282.188 0 .172-.047.532-.11.907l-.89 5.187C1-.531 1.125-.641.64-.594l-.61.031-.093.61L1.688 0l1.78.047.063-.61-.922-.03c-.312-.016-.296.015-.296-.235 0-.11 0-.188.046-.422l.97-5.813-.032.094s.078-.343.14-.578c.016-.062.047-.172.063-.203.328-.063.516-.094.75-.094 1.219 0 1.656.39 1.656 1.516 0 1.281-.718 2.203-1.765 2.203-.266 0-.5-.063-1.11-.281l.047.625c.578.281.813.344 1.172.344 1.531 0 2.984-1.532 2.984-3.157zm0 0"/></svg><svg overflow="visible" x="178.801" y="11.518"><path d="M4.266-.11V-.5l-.657-.031c-.515-.031-.468.015-.468-.453v-5.329l-.282-.093c-.625.297-1.312.562-2.375.906l.11.594h.234l1.25-.516.031-.016c.047 0-.078-.046-.078.172v4.282c0 .468.047.421-.469.453L.86-.5v.531L2.594 0l1.672.031zm0 0"/></svg><svg overflow="visible" x="171.496" y="23.19"><path d="M7.234-6.594c0-1.218-1.265-1.937-2.312-1.937-.547 0-1.094.031-1.64.031l-2.126-.047-.062.61.812.03c.297 0 .282-.03.282.188 0 .172-.047.532-.11.907l-.89 5.187C1-.531 1.125-.641.64-.594l-.61.031-.093.61L1.688 0l1.78.047.063-.61-.922-.03c-.312-.016-.296.015-.296-.235 0-.11 0-.188.046-.422l.97-5.813-.032.094s.078-.343.14-.578c.016-.062.047-.172.063-.203.328-.063.516-.094.75-.094 1.219 0 1.656.39 1.656 1.516 0 1.281-.718 2.203-1.765 2.203-.266 0-.5-.063-1.11-.281l.047.625c.578.281.813.344 1.172.344 1.531 0 2.984-1.532 2.984-3.157zm0 0"/></svg><g><svg overflow="visible" x="178.801" y="25.964"><path d="M4.75-.11c-.016-.187-.016-.265-.016-.39s0-.203.032-.547l-3.141.094 1.5-1.469c.938-.906 1.266-1.5 1.266-2.156 0-1.016-.891-1.781-2.125-1.781-.688 0-1.282.218-1.782.687L.297-4.266h.547l.172-.546c.156-.516.359-.594 1-.594.828 0 1.203.343 1.203 1.093 0 .657-.36 1.22-1.453 2.282L.078-.391v.422L2.391 0l2.375.031zm0 0"/></svg></g><g><svg overflow="visible" x="171.496" y="37.636"><path d="M7.234-6.594c0-1.218-1.265-1.937-2.312-1.937-.547 0-1.094.031-1.64.031l-2.126-.047-.062.61.812.03c.297 0 .282-.03.282.188 0 .172-.047.532-.11.907l-.89 5.187C1-.531 1.125-.641.64-.594l-.61.031-.093.61L1.688 0l1.78.047.063-.61-.922-.03c-.312-.016-.296.015-.296-.235 0-.11 0-.188.046-.422l.97-5.813-.032.094s.078-.343.14-.578c.016-.062.047-.172.063-.203.328-.063.516-.094.75-.094 1.219 0 1.656.39 1.656 1.516 0 1.281-.718 2.203-1.765 2.203-.266 0-.5-.063-1.11-.281l.047.625c.578.281.813.344 1.172.344 1.531 0 2.984-1.532 2.984-3.157zm0 0"/></svg></g><g><svg overflow="visible" x="178.801" y="40.41"><path d="M4.703-2.11c0-.421-.25-.89-.594-1.124a2.225 2.225 0 00-.703-.282c.531-.375.86-.875.86-1.406 0-.781-.86-1.437-1.938-1.437-.64 0-1.203.203-1.687.656L.312-4.406h.594l.219-.625c.11-.297.563-.469 1.063-.469.624 0 .984.328.984.89 0 .673-.406 1.094-1.094 1.094-.078 0-.36.204-.36.204l-.265-.094-.125.515.203.157c.407-.172.594-.22.844-.22.813 0 1.11.329 1.11 1.142 0 .906-.422 1.359-1.329 1.359-.437 0-.719-.094-1.015-.344C.906-.984.828-1.094.578-1.75l-.531.188c.234.609.312.937.375 1.468C1.078.11 1.5.172 1.859.172c.782 0 1.766-.422 2.297-1.016.328-.375.547-.86.547-1.265zm0 0"/></svg></g><g><svg overflow="visible" x="184.297" y="15.297"><path d="M4.656-.125v-14.656H.953c.078.203.094.297.094.375 0 .094-.016.172-.094.375h2.469V0h1.234zm0 0"/></svg></g><g><svg overflow="visible" x="184.297" y="22.592"><path d="M4.656-.125v-9.813H3.422V0h1.234zm0 0"/></svg></g><g><svg overflow="visible" x="184.297" y="27.694"><path d="M4.656-.125v-9.813H3.422V0h1.234zm0 0"/></svg></g><g><svg overflow="visible" x="184.297" y="39.819"><path d="M4.656-.125v-14.656H3.422V-.734H.953c.078.203.094.28.094.359 0 .094-.016.172-.094.375h3.703zm0 0"/></svg></g></svg>