<svg xmlns="http://www.w3.org/2000/svg" xmlns:xlink="http://www.w3.org/1999/xlink" width="252" height="55px" viewBox="0 0 189 41"><svg overflow="visible" x="-.526" y="23.29"><path d="M8.266-4.078a1.419 1.419 0 01-.047-.36c0-.109.015-.234.062-.484h-7.5c.063.25.063.375.063.484 0 .125 0 .235-.063.5h7.5zm0 2.625a1.332 1.332 0 01-.047-.36c0-.109.015-.234.062-.484h-7.5c.063.25.063.375.063.485 0 .125 0 .25-.063.5h7.5zm0 0"/></svg><svg overflow="visible" x="11.872" y="23.29"><path d="M4.406-9.766c-.015-.078-.031-.156-.031-.234 0-.094.016-.172.078-.375H1.375V4.141h3.078c-.062-.204-.078-.297-.078-.375 0-.079.016-.172.078-.375H2.437V-9.641h2.016zm0 0"/></svg><svg overflow="visible" x="17.178" y="23.298"><path d="M5.125-.094v-.484l-.75-.047c-.656-.031-.64-.031-.64-.656v-7.172l-.313-.125c-.875.469-1.61.781-2.86 1.219l.125.718h.235l1.547-.687.031-.016c.063 0-.047-.015-.047.266v5.797c0 .625.016.625-.64.656L1-.578v.625L3.125 0l2 .047zm0 0"/></svg><svg overflow="visible" x="33.114" y="23.298"><path d="M3.703-5.516c-.453.047-.86.063-1.156.063.172-.984.297-1.578.531-2.25l-.25-.328a7.16 7.16 0 01-1.094.531l-.296 2.031c-.391.203-.704.328-1.063.407l-.047.406h1l-.64 3.25C.625-1.11.53-.813.53-.5c0 .297.266.61.5.61.422 0 .922-.282 1.86-1.032.218-.172.14-.125.437-.36l-.25-.437-.672.469c-.36.25-.484.313-.625.313-.093 0-.031.046-.031-.11 0-.297.156-1.234.516-3l.14-.61h1.266l.203-.89zm0 0"/></svg><svg overflow="visible" x="47.114" y="23.298"><path d="M3.703-5.516c-.453.047-.86.063-1.156.063.172-.984.297-1.578.531-2.25l-.25-.328a7.16 7.16 0 01-1.094.531l-.296 2.031c-.391.203-.704.328-1.063.407l-.047.406h1l-.64 3.25C.625-1.11.53-.813.53-.5c0 .297.266.61.5.61.422 0 .922-.282 1.86-1.032.218-.172.14-.125.437-.36l-.25-.437-.672.469c-.36.25-.484.313-.625.313-.093 0-.031.046-.031-.11 0-.297.156-1.234.516-3l.14-.61h1.266l.203-.89zm0 0"/></svg><svg overflow="visible" x="51.162" y="19.066"><path d="M4.75-.11c-.016-.187-.016-.265-.016-.39s0-.203.032-.547l-3.141.094 1.5-1.469c.938-.906 1.266-1.5 1.266-2.156 0-1.016-.891-1.781-2.125-1.781-.688 0-1.282.218-1.782.687L.297-4.266h.547l.172-.546c.156-.516.359-.594 1-.594.828 0 1.203.343 1.203 1.093 0 .657-.36 1.22-1.453 2.282L.078-.391v.422L2.391 0l2.375.031zm0 0"/></svg><svg overflow="visible" x="56.659" y="23.29"><path d="M3.906 4v-14.375H.828c.063.203.078.281.078.375 0 .078-.015.156-.078.36h2.016V3.39H.828c.063.204.078.297.078.376 0 .078-.015.171-.078.375h3.078zm0 0"/></svg><svg overflow="visible" x="64.609" y="23.29"><path d="M2.516-3.125c0-.422-.407-.844-.844-.844-.422 0-.86.422-.86.844 0 .438.438.86.86.86.437 0 .844-.422.844-.86zm0 0"/></svg><svg overflow="visible" x="70.611" y="23.29"><path d="M11.234-8.531c-.328.015-.671.031-1 .031-.343 0-.671-.016-1.078-.047-.25.485-.031.172-1.047 1.906L5.172-1.594l.25.094-1.844-7.047c-.422.031-.75.047-1.094.047-.328 0-.671-.016-1.125-.047l-.062.61.469.03c.625.048.703.032.703.345a.693.693 0 01-.047.234L.687-1.25C.516-.625.47-.594-.327-.531l-.047.578L1.109 0C1.547 0 2 .016 2.547.047l.062-.594-.593-.047c-.391-.047-.47-.015-.47-.187 0-.125.032-.281.095-.5l1.484-5.547h-.281L4.656.219h.453l.72-1.282 2.843-4.953.625-1.03-.235-.095-.437 6.204c-.031.343-.047.28-.672.343l-.5.047-.047.594L9.156 0l1.703.047.063-.594-.578-.047C9.906-.64 9.813-.64 9.828-.89l.016-.437.484-6.344c.016-.234.078-.219.422-.234l.563-.032.062-.609zm0 0"/></svg><svg overflow="visible" x="99.781" y="23.29"><path d="M2.516-3.125c0-.422-.407-.844-.844-.844-.422 0-.86.422-.86.844 0 .438.438.86.86.86.437 0 .844-.422.844-.86zm0 0"/></svg><svg overflow="visible" x="120.727" y="23.29"><path d="M8.469.469H8.03c-.078.781-.203.937-.687.937-.203 0-.422-.062-.735-.172L3.797.078C3.484-.032 3.28-.078 3-.078c-.89 0-1.688.734-1.64 1.64l.25.094s-.25.016-.22.203l.548.297c0-1.156.156-1.453.78-1.453.36 0 .579.063 1.048.313l1.734.906c.719.375 1.031.484 1.516.484.89 0 1.453-.656 1.593-1.937zm.61-5.688c0-2.125-1.376-3.484-3.532-3.484-2.828 0-5.063 2.312-5.063 5.328C.484-1.125 1.75.219 3.86.219c1.016 0 1.97-.266 2.735-.75C8.109-1.47 9.078-3.328 9.078-5.22zm-1.329.203c0 1.5-.453 2.75-1.266 3.594-.578.594-1.25.875-2.187.875-1.719 0-2.484-.906-2.484-2.89 0-1.563.453-2.86 1.265-3.688.563-.578 1.188-.813 2.094-.813.578 0 1.062.11 1.453.344.781.453 1.125 1.266 1.125 2.578zm0 0"/></svg><svg overflow="visible" x="144.972" y="23.29"><path d="M2.516-3.125c0-.422-.407-.844-.844-.844-.422 0-.86.422-.86.844 0 .438.438.86.86.86.437 0 .844-.422.844-.86zm0 0"/></svg><svg overflow="visible" x="82.189" y="25.693"><path d="M10.563 2.11h-5.11C2.531 2.11.875 2.062.516 1.046c-.235.156-.204.172-.282.203-.078.016-.156.031-.406.063.36 1.015 2.36 1.921 5.625 1.921h5.25V2.11zm0 0"/></svg><svg overflow="visible" x="92.303" y="25.693"><path d="M10.578 3.094v-.985H-.14v1.125h10.72zm0 0"/></svg><svg overflow="visible" x="102.178" y="25.693"><path d="M10.578 3.094v-.985H-.14v1.125h10.72zm0 0"/></svg><svg overflow="visible" x="112.161" y="25.693"><path d="M21.281 3.094v-.985h-5.484c-2.86 0-4.735.563-5.235 1.125-.5-.562-2.343-1.125-5.203-1.125h-5.5v1.125h5.5c3.188 0 4.844-.062 4.844.938.203-.078.297-.078.375-.078.078 0 .156 0 .375.078 0-1 1.656-.938 4.844-.938h5.484zm0 0"/></svg><svg overflow="visible" x="132.843" y="25.693"><path d="M10.578 3.094v-.985H-.14v1.125h10.72zm0 0"/></svg><svg overflow="visible" x="142.718" y="25.693"><path d="M10.578 3.094v-.985H-.14v1.125h10.72zm0 0"/></svg><svg overflow="visible" x="152.701" y="25.693"><path d="M10.578 1.297c-.078-.016-.172-.031-.234-.047-.094-.031-.063-.047-.281-.203-.376 1.016-2.032 1.062-4.938 1.062H-.141v1.125h5.266c3.25 0 5.25-.906 5.625-1.921zm0 0"/></svg><svg overflow="visible" x="96.679" y="37.737"><path d="M2-.594c0-.265-.422-.656-.719-.656s-.703.39-.703.656c0 .25.406.64.703.64.297 0 .719-.374.719-.64zm0 0"/></svg><svg overflow="visible" x="99.262" y="37.737"><path d="M2-.594c0-.265-.422-.656-.719-.656s-.703.39-.703.656c0 .25.406.64.703.64.297 0 .719-.374.719-.64zm0 0"/></svg><svg overflow="visible" x="101.846" y="37.737"><path d="M2-.594c0-.265-.422-.656-.719-.656s-.703.39-.703.656c0 .25.406.64.703.64.297 0 .719-.374.719-.64zm0 0"/></svg><svg overflow="visible" x="104.429" y="37.737"><path d="M3.078-4.156c-.375.031-.703.047-.89.047.124-.688.234-1.125.421-1.625l-.234-.282c-.344.172-.484.25-.922.407L1.22-4.094a5.586 5.586 0 01-.86.297l-.046.344h.796L.594-1.078C.547-.86.469-.641.469-.406c0 .219.265.484.453.484.328 0 .765-.203 1.531-.765.172-.125.11-.094.375-.282l-.234-.39L2-.984c-.297.171-.36.218-.484.218-.063 0 .03.063.03-.046 0-.22.11-.907.423-2.22l.078-.421h1.047l.172-.719zm0 0"/></svg><svg overflow="visible" x="107.817" y="37.737"><path d="M4.203-3.063c0-.828-.64-1.468-1.437-1.468-.407 0-.985.187-1.407.468-.78.516-1.265 1.5-1.265 2.579 0 .937.594 1.578 1.39 1.578.532 0 1.22-.266 1.641-.64.61-.516 1.078-1.626 1.078-2.516zm-1.047.141c0 .86-.25 1.688-.687 2.156-.156.188-.297.266-.594.266-.563 0-.75-.266-.75-.969 0-1 .344-1.984.813-2.343.125-.094.25-.11.484-.11.578 0 .734.266.734 1zm0 0"/></svg><svg overflow="visible" x="115.257" y="37.737"><path d="M5-4l-.063-.11c-.343.079-.546.094-.984.094-.125-.187-.328-.312-.562-.39a1.952 1.952 0 00-.657-.125c-.39 0-.984.203-1.406.5-.547.375-.875.984-.875 1.61 0 .671.594 1.218 1.344 1.218.078 0 .187 0 .297-.016l-.125-.218-.39.328c-.157.14-.298.39-.298.515 0 .094.094.281.047.25C.906-.219.484-.047.125.234c-.328.25-.547.688-.547 1.047 0 .625.828 1.157 1.875 1.157 1.25 0 2.484-.766 2.484-1.5 0-.313-.234-.735-.656-1.047l-.578-.438c-.328-.234-.406-.297-.406-.469 0-.078.015-.078.156-.234.016-.047.031-.047.031-.063.86-.187 1.704-1.062 1.704-1.843 0-.078 0-.156-.047-.328l.109.14h.078c.156 0 .25-.015.594-.047l.125-.515zM3 1.234c0 .454-.516.688-1.313.688C.907 1.922.5 1.688.5 1.156.5.813.625.594.938.36c.25-.187.359-.234.812-.343l.672.468c.437.313.578.454.578.75zm.172-4.375c0 .907-.297 1.391-.969 1.391-.594 0-.75-.234-.75-.922 0-.844.344-1.297 1.047-1.297.563 0 .672.188.672.828zm0 0"/></svg><svg overflow="visible" x="120.397" y="37.737"><path d="M3.844-3.703c0-.422-.469-.828-.953-.828-.641 0-1.797.625-2.188 1.203C.422-2.906.078-1.75.078-1.125.078-.437.656.094 1.36.094c.547 0 1.172-.281 2.141-1l-.188-.406-.406.25c-.515.343-.86.484-1.203.484-.469 0-.594-.203-.594-.735 0-.234.016-.453.063-.609l.656-.14c.172-.047.422-.126.672-.235.813-.328 1.344-.86 1.344-1.406zm-1.016.14c0 .391-.187.672-.687.891-.266.11-.625.219-.86.266l.047-.156c.156-.579.297-.876.563-1.094a.914.914 0 01.625-.235c.28 0 .312.047.312.329zm0 0"/></svg><svg overflow="visible" x="124.325" y="37.737"><path d="M3.078-4.156c-.375.031-.703.047-.89.047.124-.688.234-1.125.421-1.625l-.234-.282c-.344.172-.484.25-.922.407L1.22-4.094a5.586 5.586 0 01-.86.297l-.046.344h.796L.594-1.078C.547-.86.469-.641.469-.406c0 .219.265.484.453.484.328 0 .765-.203 1.531-.765.172-.125.11-.094.375-.282l-.234-.39L2-.984c-.297.171-.36.218-.484.218-.063 0 .03.063.03-.046 0-.22.11-.907.423-2.22l.078-.421h1.047l.172-.719zm0 0"/></svg><svg overflow="visible" x="130.704" y="37.737"><path d="M3.078-4.156c-.375.031-.703.047-.89.047.124-.688.234-1.125.421-1.625l-.234-.282c-.344.172-.484.25-.922.407L1.22-4.094a5.586 5.586 0 01-.86.297l-.046.344h.796L.594-1.078C.547-.86.469-.641.469-.406c0 .219.265.484.453.484.328 0 .765-.203 1.531-.765.172-.125.11-.094.375-.282l-.234-.39L2-.984c-.297.171-.36.218-.484.218-.063 0 .03.063.03-.046 0-.22.11-.907.423-2.22l.078-.421h1.047l.172-.719zm0 0"/></svg><svg overflow="visible" x="134.092" y="37.737"><path d="M4.734-.984l-.156-.25-.406.25c-.281.156-.375.218-.469.218-.078 0 .016.063.016-.046 0-.079.015-.157.062-.344l.625-2.266c.047-.234.11-.5.11-.656 0-.188-.266-.453-.438-.453-.328 0-1.031.328-1.64.797-.329.265-.485.421-.938.937l-.203.219.266.11.953-4.095-.235-.203c-.531.25-.89.329-1.703.391l-.094.453h.641c.234 0 .172-.078.172.078 0 .063 0 .14-.016.203L.875-3.562C.609-2.234.235-.704.015-.126l.172.219.86-.188c.172-1.125.297-1.562.578-2.031.422-.719 1.313-1.531 1.719-1.531.125 0 .047-.063.047.062 0 .156-.047.485-.141.781l-.484 1.735c-.094.312-.125.516-.125.687 0 .204.265.47.453.47.234 0 .703-.22 1.719-.923zm0 0"/></svg><svg overflow="visible" x="139.091" y="37.737"><path d="M2.516-.984l-.157-.25-.406.25c-.297.171-.375.218-.469.218-.078 0 .016.063.016-.046 0-.079.016-.157.063-.344l.75-2.688c.046-.156.062-.234.062-.328 0-.14-.234-.36-.39-.36-.22 0-.688.22-1.407.688l-.344.235.172.421.5-.28c.266-.173.266-.173.344-.173.11 0 0-.062 0 .047 0 .078-.031.266-.063.39l-.64 2.126c-.094.281-.125.5-.125.687 0 .204.266.47.437.47.266 0 .72-.235 1.735-.923zm.28-4.72c0-.202-.28-.484-.483-.484-.297 0-.735.422-.735.72 0 .218.313.5.547.5.313 0 .672-.391.672-.735zm0 0"/></svg><svg overflow="visible" x="141.992" y="37.737"><path d="M3.406-4.297c-.36-.156-.64-.234-.953-.234-.5 0-1.203.297-1.672.734-.25.235-.406.547-.406.875 0 .485.469.906 1.11 1.016l.609.11c.422.077.406.093.406.437 0 .593-.281.843-.969.843-.343 0-.515-.062-.75-.25v-.812H.25C.172-.984.125-.688 0-.218c.547.25.86.312 1.203.312.484 0 1.031-.188 1.516-.547.484-.36.734-.781.734-1.219 0-.484-.453-.86-1.156-.984l-.422-.078c-.578-.094-.61-.11-.61-.47 0-.468.266-.702.829-.702.39 0 .64.125.75.297v.578h.515c.063-.438.094-.672.22-1.188zm0 0"/></svg><svg overflow="visible" x="145.92" y="37.737"><path d="M2.14-.594c0-.265-.421-.656-.718-.656s-.719.39-.719.656c0 .25.422.64.703.64.313 0 .735-.374.735-.64zm-.03-5.453v-.36h-.485L.75-6l.313 3.703.03.422.282.125.39-.297v-.281l.282-2.875c.047-.375.062-.656.062-.844zm0 0"/></svg><svg overflow="visible" x="165.267" y="15.297"><path d="M5.078-14.781H1.562V0h1.235v-14.031h2.469c-.079-.203-.094-.281-.094-.375 0-.078.016-.172.094-.375zm0 0"/></svg><svg overflow="visible" x="165.267" y="22.592"><path d="M2.672-9.938h-1.11V0h1.235v-9.938zm0 0"/></svg><svg overflow="visible" x="165.267" y="27.694"><path d="M2.672-9.938h-1.11V0h1.235v-9.938zm0 0"/></svg><svg overflow="visible" x="165.267" y="39.819"><path d="M5.219-.125a.648.648 0 01-.047-.25c0-.078.016-.156.094-.36h-2.47V-14.78H1.564V0h3.703zm0 0"/></svg><svg overflow="visible" x="171.496" y="8.745"><path d="M7.234-6.594c0-1.218-1.265-1.937-2.312-1.937-.547 0-1.094.031-1.64.031l-2.126-.047-.062.61.812.03c.297 0 .282-.03.282.188 0 .172-.047.532-.11.907l-.89 5.187C1-.531 1.125-.641.64-.594l-.61.031-.093.61L1.688 0l1.78.047.063-.61-.922-.03c-.312-.016-.296.015-.296-.235 0-.11 0-.188.046-.422l.97-5.813-.032.094s.078-.343.14-.578c.016-.062.047-.172.063-.203.328-.063.516-.094.75-.094 1.219 0 1.656.39 1.656 1.516 0 1.281-.718 2.203-1.765 2.203-.266 0-.5-.063-1.11-.281l.047.625c.578.281.813.344 1.172.344 1.531 0 2.984-1.532 2.984-3.157zm0 0"/></svg><svg overflow="visible" x="178.801" y="11.518"><path d="M4.266-.11V-.5l-.657-.031c-.515-.031-.468.015-.468-.453v-5.329l-.282-.093c-.625.297-1.312.562-2.375.906l.11.594h.234l1.25-.516.031-.016c.047 0-.078-.046-.078.172v4.282c0 .468.047.421-.469.453L.86-.5v.531L2.594 0l1.672.031zm0 0"/></svg><g><svg overflow="visible" x="171.496" y="23.19"><path d="M7.234-6.594c0-1.218-1.265-1.937-2.312-1.937-.547 0-1.094.031-1.64.031l-2.126-.047-.062.61.812.03c.297 0 .282-.03.282.188 0 .172-.047.532-.11.907l-.89 5.187C1-.531 1.125-.641.64-.594l-.61.031-.093.61L1.688 0l1.78.047.063-.61-.922-.03c-.312-.016-.296.015-.296-.235 0-.11 0-.188.046-.422l.97-5.813-.032.094s.078-.343.14-.578c.016-.062.047-.172.063-.203.328-.063.516-.094.75-.094 1.219 0 1.656.39 1.656 1.516 0 1.281-.718 2.203-1.765 2.203-.266 0-.5-.063-1.11-.281l.047.625c.578.281.813.344 1.172.344 1.531 0 2.984-1.532 2.984-3.157zm0 0"/></svg></g><g><svg overflow="visible" x="178.801" y="25.964"><path d="M4.75-.11c-.016-.187-.016-.265-.016-.39s0-.203.032-.547l-3.141.094 1.5-1.469c.938-.906 1.266-1.5 1.266-2.156 0-1.016-.891-1.781-2.125-1.781-.688 0-1.282.218-1.782.687L.297-4.266h.547l.172-.546c.156-.516.359-.594 1-.594.828 0 1.203.343 1.203 1.093 0 .657-.36 1.22-1.453 2.282L.078-.391v.422L2.391 0l2.375.031zm0 0"/></svg></g><g><svg overflow="visible" x="171.496" y="37.636"><path d="M7.234-6.594c0-1.218-1.265-1.937-2.312-1.937-.547 0-1.094.031-1.64.031l-2.126-.047-.062.61.812.03c.297 0 .282-.03.282.188 0 .172-.047.532-.11.907l-.89 5.187C1-.531 1.125-.641.64-.594l-.61.031-.093.61L1.688 0l1.78.047.063-.61-.922-.03c-.312-.016-.296.015-.296-.235 0-.11 0-.188.046-.422l.97-5.813-.032.094s.078-.343.14-.578c.016-.062.047-.172.063-.203.328-.063.516-.094.75-.094 1.219 0 1.656.39 1.656 1.516 0 1.281-.718 2.203-1.765 2.203-.266 0-.5-.063-1.11-.281l.047.625c.578.281.813.344 1.172.344 1.531 0 2.984-1.532 2.984-3.157zm0 0"/></svg></g><g><svg overflow="visible" x="178.801" y="40.41"><path d="M4.703-2.11c0-.421-.25-.89-.594-1.124a2.225 2.225 0 00-.703-.282c.531-.375.86-.875.86-1.406 0-.781-.86-1.437-1.938-1.437-.64 0-1.203.203-1.687.656L.312-4.406h.594l.219-.625c.11-.297.563-.469 1.063-.469.624 0 .984.328.984.89 0 .673-.406 1.094-1.094 1.094-.078 0-.36.204-.36.204l-.265-.094-.125.515.203.157c.407-.172.594-.22.844-.22.813 0 1.11.329 1.11 1.142 0 .906-.422 1.359-1.329 1.359-.437 0-.719-.094-1.015-.344C.906-.984.828-1.094.578-1.75l-.531.188c.234.609.312.937.375 1.468C1.078.11 1.5.172 1.859.172c.782 0 1.766-.422 2.297-1.016.328-.375.547-.86.547-1.265zm0 0"/></svg></g><g><svg overflow="visible" x="184.297" y="15.297"><path d="M4.656-.125v-14.656H.953c.078.203.094.297.094.375 0 .094-.016.172-.094.375h2.469V0h1.234zm0 0"/></svg></g><g><svg overflow="visible" x="184.297" y="22.592"><path d="M4.656-.125v-9.813H3.422V0h1.234zm0 0"/></svg></g><g><svg overflow="visible" x="184.297" y="27.694"><path d="M4.656-.125v-9.813H3.422V0h1.234zm0 0"/></svg></g><g><svg overflow="visible" x="184.297" y="39.819"><path d="M4.656-.125v-14.656H3.422V-.734H.953c.078.203.094.28.094.359 0 .094-.016.172-.094.375h3.703zm0 0"/></svg></g></svg>