<svg xmlns="http://www.w3.org/2000/svg" xmlns:xlink="http://www.w3.org/1999/xlink" width="809px" height="73px" viewBox="0 0 607 55"><svg overflow="visible" x="-.399" y="30.468"><path d="M9.234-6.64c0-.891-.984-1.782-2.421-1.782H2.796c-.235 0-.547.125-.547.36 0 .14.313.265.531.265l.14-.031s.11.031.313.062c.22.016.125-.093.125.063 0 .047-.015.078-.046.219l-1.61 6.421c-.11.47.063.422-.875.422-.203 0-.531.141-.531.375 0 .141.312.266.531.266h4.266c1.89 0 3.484-1.547 3.484-2.719 0-.86-.875-1.687-2.047-1.812v.265c1.25-.234 2.703-1.25 2.703-2.375zM7.75-6.689c0 1.047-.828 2.047-2.281 2.047H3.937l.72-2.828c.093-.422-.063-.328.452-.328h1.532c1.062 0 1.109.578 1.109 1.11zm-.672 3.844c0 1.188-.86 2.203-2.266 2.203h-1.89c-.125-.015.031.11.031 0 0-.03 0-.046.063-.265l.78-3.203h2.11c1.14 0 1.172.75 1.172 1.265zm0 0"/></svg><svg overflow="visible" x="8.974" y="30.468"><path d="M4.156 2.719c0-.047-.078-.172-.11-.203-1.234-.922-2-3.22-2-5.141v-1c0-1.906.767-4.203 2-5.14a.457.457 0 00.11-.188c0-.063-.25-.25-.312-.25a1.01 1.01 0 00-.203.062C2.312-8.156 1-5.67 1-3.625v1C1-.578 2.313 1.906 3.64 2.906c.016.016.188.063.204.063.062 0 .312-.203.312-.25zm0 0"/></svg><svg overflow="visible" x="13.624" y="30.468"><path d="M4.14-5.156c0-.125-.312-.266-.53-.266H2.78c.39-1.562.453-1.797.453-1.875 0-.203-.328-.453-.53-.453-.032 0-.579.14-.688.563l-.422 1.765H.64c-.25 0-.563.14-.563.36 0 .156.297.28.531.28h.813C.594-1.515.547-1.311.547-1.093c0 .64.656 1.219 1.312 1.219 1.22 0 2.079-1.875 2.079-1.969 0-.11-.282-.25-.329-.25-.109 0-.328.172-.375.297C2.72-.547 2.281-.39 1.875-.39c-.25 0-.172-.03-.172-.421 0-.282.016-.375.063-.579l.859-3.39h.953c.25 0 .563-.125.563-.375zm0 0"/></svg><svg overflow="visible" x="17.94" y="30.468"><path d="M3.64-2.625v-1c0-2.047-1.328-4.531-2.64-5.516a.774.774 0 00-.203-.062c-.063 0-.313.187-.313.25 0 .031.079.172.094.187 1.25.938 2.016 3.235 2.016 5.141v1c0 1.922-.766 4.219-2.016 5.14-.015.032-.094.157-.094.204 0 .047.25.25.313.25A.774.774 0 001 2.906c1.313-1 2.64-3.484 2.64-5.531zm0 0"/></svg><svg overflow="visible" x="25.902" y="30.468"><path d="M8.828-4.281c0-.125-.312-.375-.437-.375H.906c-.125 0-.437.25-.437.375 0 .14.312.375.437.375h7.485c.125 0 .437-.235.437-.375zm0 2.328c0-.14-.312-.375-.437-.375H.906c-.125 0-.437.234-.437.375 0 .125.312.36.437.36h7.485c.125 0 .437-.235.437-.36zm0 0"/></svg><svg overflow="visible" x="38.527" y="30.468"><path d="M3.938 3.203c0-.14-.297-.375-.454-.375h-.859v-11.89h.86c.156 0 .453-.235.453-.376 0-.156-.297-.39-.454-.39H1.72V3.578h1.765c.157 0 .454-.234.454-.375zm0 0"/></svg><svg overflow="visible" x="42.599" y="30.368"><path d="M5.203-.125v-.516h-.578c-1.078 0-.922 0-.922-.437v-6.703c0-.282-.187-.438-.578-.438-.766.797-1.672.766-2.266.766v.625c.438 0 1.282-.031 1.563-.172v5.922c0 .437.172.437-.906.437H.937v.672C1.547-.03 2.595-.03 3.079-.03c.469 0 1.516 0 2.125.062zm0 0"/></svg><svg overflow="visible" x="58.535" y="30.368"><path d="M4.156 2.719c0-.047-.078-.172-.11-.203-1.234-.922-2-3.22-2-5.141v-1c0-1.906.767-4.203 2-5.14a.457.457 0 00.11-.188c0-.063-.25-.25-.312-.25a1.01 1.01 0 00-.203.062C2.312-8.156 1-5.67 1-3.625v1C1-.578 2.313 1.906 3.64 2.906c.016.016.188.063.204.063.062 0 .312-.203.312-.25zm0 0"/></svg><svg overflow="visible" x="63.186" y="30.368"><path d="M5.766-5.297c0-.125-.188-.016-.188-.016l-.125-.234c-.094 0-.266.063-.328.172-.36.563-.469.719-.75.719s-.297-.14-.484-.344c-.22-.266-.563-.547-.954-.547-.89 0-1.64 1.25-1.64 1.5 0 .047.234.25.344.25.109 0 .312-.187.343-.25.235-.562.735-.437.829-.437.25 0 .468.078.75.187.484.172.609.172.578.172-.235.281-1.235 1.156-1.47 1.344l-1.062 1C.781-.984.313-.203.313-.125.313 0 .78.094.78.094L.656.125c.094 0 .25-.047.328-.188.266-.421.5-.703.875-.703.282 0 .25.079.563.422.203.25.547.469.906.469 1.172 0 2.063-1.64 2.063-1.969 0-.062-.235-.25-.329-.25-.109 0-.343.203-.375.281-.28.782-.843.875-1.234.875C3.22-.938 3-1 2.75-1.093c-.406-.156-.594-.203-.844-.203l.14.234s-.343-.234-.452-.187l.125.219c.64-.688 1-.985 1.422-1.36 0 0 .75-.64 1.171-1.078 1.141-1.11 1.454-1.781 1.454-1.828zm0 0"/></svg><svg overflow="visible" x="71.758" y="30.368"><path d="M2.484-3.125c0-.344-.468-.766-.828-.766-.343 0-.828.422-.828.766 0 .36.485.766.828.766.36 0 .828-.407.828-.766zm0 0"/></svg><svg overflow="visible" x="77.735" y="30.368"><path d="M4.14-5.156c0-.125-.312-.266-.53-.266H2.78c.39-1.562.453-1.797.453-1.875 0-.203-.328-.453-.53-.453-.032 0-.579.14-.688.563l-.422 1.765H.64c-.25 0-.563.14-.563.36 0 .156.297.28.531.28h.813C.594-1.515.547-1.311.547-1.093c0 .64.656 1.219 1.312 1.219 1.22 0 2.079-1.875 2.079-1.969 0-.11-.282-.25-.329-.25-.109 0-.328.172-.375.297C2.72-.547 2.281-.39 1.875-.39c-.25 0-.172-.03-.172-.421 0-.282.016-.375.063-.579l.859-3.39h.953c.25 0 .563-.125.563-.375zm0 0"/></svg><svg overflow="visible" x="82.051" y="30.368"><path d="M3.64-2.625v-1c0-2.047-1.328-4.531-2.64-5.516a.774.774 0 00-.203-.062c-.063 0-.313.187-.313.25 0 .031.079.172.094.187 1.25.938 2.016 3.235 2.016 5.141v1c0 1.922-.766 4.219-2.016 5.14-.015.032-.094.157-.094.204 0 .047.25.25.313.25A.774.774 0 001 2.906c1.313-1 2.64-3.484 2.64-5.531zm0 0"/></svg><svg overflow="visible" x="96.672" y="30.368"><path d="M4.156 2.719c0-.047-.078-.172-.11-.203-1.234-.922-2-3.22-2-5.141v-1c0-1.906.767-4.203 2-5.14a.457.457 0 00.11-.188c0-.063-.25-.25-.312-.25a1.01 1.01 0 00-.203.062C2.312-8.156 1-5.67 1-3.625v1C1-.578 2.313 1.906 3.64 2.906c.016.016.188.063.204.063.062 0 .312-.203.312-.25zm0 0"/></svg><svg overflow="visible" x="101.323" y="30.368"><path d="M5.766-5.297c0-.125-.188-.016-.188-.016l-.125-.234c-.094 0-.266.063-.328.172-.36.563-.469.719-.75.719s-.297-.14-.484-.344c-.22-.266-.563-.547-.954-.547-.89 0-1.64 1.25-1.64 1.5 0 .047.234.25.344.25.109 0 .312-.187.343-.25.235-.562.735-.437.829-.437.25 0 .468.078.75.187.484.172.609.172.578.172-.235.281-1.235 1.156-1.47 1.344l-1.062 1C.781-.984.313-.203.313-.125.313 0 .78.094.78.094L.656.125c.094 0 .25-.047.328-.188.266-.421.5-.703.875-.703.282 0 .25.079.563.422.203.25.547.469.906.469 1.172 0 2.063-1.64 2.063-1.969 0-.062-.235-.25-.329-.25-.109 0-.343.203-.375.281-.28.782-.843.875-1.234.875C3.22-.938 3-1 2.75-1.093c-.406-.156-.594-.203-.844-.203l.14.234s-.343-.234-.452-.187l.125.219c.64-.688 1-.985 1.422-1.36 0 0 .75-.64 1.171-1.078 1.141-1.11 1.454-1.781 1.454-1.828zm0 0"/></svg><svg overflow="visible" x="109.895" y="30.368"><path d="M2.484-3.125c0-.344-.468-.766-.828-.766-.343 0-.828.422-.828.766 0 .36.485.766.828.766.36 0 .828-.407.828-.766zm0 0"/></svg><svg overflow="visible" x="115.872" y="30.368"><path d="M4.14-5.156c0-.125-.312-.266-.53-.266H2.78c.39-1.562.453-1.797.453-1.875 0-.203-.328-.453-.53-.453-.032 0-.579.14-.688.563l-.422 1.765H.64c-.25 0-.563.14-.563.36 0 .156.297.28.531.28h.813C.594-1.515.547-1.311.547-1.093c0 .64.656 1.219 1.312 1.219 1.22 0 2.079-1.875 2.079-1.969 0-.11-.282-.25-.329-.25-.109 0-.328.172-.375.297C2.72-.547 2.281-.39 1.875-.39c-.25 0-.172-.03-.172-.421 0-.282.016-.375.063-.579l.859-3.39h.953c.25 0 .563-.125.563-.375zm0 0"/></svg><svg overflow="visible" x="120.188" y="30.368"><path d="M3.64-2.625v-1c0-2.047-1.328-4.531-2.64-5.516a.774.774 0 00-.203-.062c-.063 0-.313.187-.313.25 0 .031.079.172.094.187 1.25.938 2.016 3.235 2.016 5.141v1c0 1.922-.766 4.219-2.016 5.14-.015.032-.094.157-.094.204 0 .047.25.25.313.25A.774.774 0 001 2.906c1.313-1 2.64-3.484 2.64-5.531zm0 0"/></svg><svg overflow="visible" x="124.847" y="26.028"><path d="M4.234-1.844H3.75c-.047.344-.063.735-.172.813-.062.047-.562 0-.687 0H1.812c.563-.5.86-.735 1.36-1.125.625-.5 1.265-1.14 1.265-1.938 0-1-1.093-1.781-2.171-1.781-1.032 0-1.954.89-1.954 1.656 0 .422.579.625.657.625.203 0 .656-.297.656-.61 0-.14-.266-.593-.422-.593.188-.437.547-.469.938-.469.843 0 1.062.5 1.062 1.172 0 .735-.453 1.203-.719 1.5l-2.03 2C.374-.516.311-.39.311 0h3.844l.313-1.844zm0 0"/></svg><svg overflow="visible" x="140.069" y="30.368"><path d="M4.156 2.719c0-.047-.078-.172-.11-.203-1.234-.922-2-3.22-2-5.141v-1c0-1.906.767-4.203 2-5.14a.457.457 0 00.11-.188c0-.063-.25-.25-.312-.25a1.01 1.01 0 00-.203.062C2.312-8.156 1-5.67 1-3.625v1C1-.578 2.313 1.906 3.64 2.906c.016.016.188.063.204.063.062 0 .312-.203.312-.25zm0 0"/></svg><svg overflow="visible" x="144.72" y="30.368"><path d="M5.766-5.297c0-.125-.188-.016-.188-.016l-.125-.234c-.094 0-.266.063-.328.172-.36.563-.469.719-.75.719s-.297-.14-.484-.344c-.22-.266-.563-.547-.954-.547-.89 0-1.64 1.25-1.64 1.5 0 .047.234.25.344.25.109 0 .312-.187.343-.25.235-.562.735-.437.829-.437.25 0 .468.078.75.187.484.172.609.172.578.172-.235.281-1.235 1.156-1.47 1.344l-1.062 1C.781-.984.313-.203.313-.125.313 0 .78.094.78.094L.656.125c.094 0 .25-.047.328-.188.266-.421.5-.703.875-.703.282 0 .25.079.563.422.203.25.547.469.906.469 1.172 0 2.063-1.64 2.063-1.969 0-.062-.235-.25-.329-.25-.109 0-.343.203-.375.281-.28.782-.843.875-1.234.875C3.22-.938 3-1 2.75-1.093c-.406-.156-.594-.203-.844-.203l.14.234s-.343-.234-.452-.187l.125.219c.64-.688 1-.985 1.422-1.36 0 0 .75-.64 1.171-1.078 1.141-1.11 1.454-1.781 1.454-1.828zm0 0"/></svg><svg overflow="visible" x="153.291" y="30.368"><path d="M2.484-3.125c0-.344-.468-.766-.828-.766-.343 0-.828.422-.828.766 0 .36.485.766.828.766.36 0 .828-.407.828-.766zm0 0"/></svg><svg overflow="visible" x="159.269" y="30.368"><path d="M4.14-5.156c0-.125-.312-.266-.53-.266H2.78c.39-1.562.453-1.797.453-1.875 0-.203-.328-.453-.53-.453-.032 0-.579.14-.688.563l-.422 1.765H.64c-.25 0-.563.14-.563.36 0 .156.297.28.531.28h.813C.594-1.515.547-1.311.547-1.093c0 .64.656 1.219 1.312 1.219 1.22 0 2.079-1.875 2.079-1.969 0-.11-.282-.25-.329-.25-.109 0-.328.172-.375.297C2.72-.547 2.281-.39 1.875-.39c-.25 0-.172-.03-.172-.421 0-.282.016-.375.063-.579l.859-3.39h.953c.25 0 .563-.125.563-.375zm0 0"/></svg><svg overflow="visible" x="163.585" y="30.368"><path d="M3.64-2.625v-1c0-2.047-1.328-4.531-2.64-5.516a.774.774 0 00-.203-.062c-.063 0-.313.187-.313.25 0 .031.079.172.094.187 1.25.938 2.016 3.235 2.016 5.141v1c0 1.922-.766 4.219-2.016 5.14-.015.032-.094.157-.094.204 0 .047.25.25.313.25A.774.774 0 001 2.906c1.313-1 2.64-3.484 2.64-5.531zm0 0"/></svg><svg overflow="visible" x="168.241" y="26.028"><path d="M4.516-1.61c0-.656-.75-1.468-1.672-1.656v.313c.89-.313 1.406-1.094 1.406-1.61 0-.656-.969-1.312-1.89-1.312-.938 0-1.86.61-1.86 1.281 0 .282.39.594.64.594.266 0 .641-.344.641-.578 0-.25-.375-.578-.297-.578.094-.11.532-.157.844-.157.375 0 .688.016.688.75 0 .344-.047.625-.266.891-.281.313-.36.281-.781.313-.203.015-.235.015-.266.015l.14.281s-.437-.109-.437-.015c0 .125.282.281.422.281h.453c.656 0 .922.297.922 1.188 0 1.046-.39 1.187-.89 1.187-.329 0-.922-.031-1.094-.266.078-.015.375-.453.375-.625 0-.265-.407-.625-.672-.625-.235 0-.672.297-.672.641C.25-.5 1.328.172 2.344.172 3.5.172 4.516-.766 4.516-1.61zm0 0"/></svg><svg overflow="visible" x="173.501" y="30.468"><path d="M2.14-9.828H.579c-.14 0-.453.234-.453.39 0 .141.313.376.453.376h.86v11.89h-.86c-.14 0-.453.235-.453.375s.313.375.453.375h1.75V-9.828zm0 0"/></svg><svg overflow="visible" x="177.566" y="30.468"><path d="M2.484-3.125c0-.344-.468-.766-.828-.766-.343 0-.828.422-.828.766 0 .36.485.766.828.766.36 0 .828-.407.828-.766zm0 0"/></svg><svg overflow="visible" x="180.89" y="19.011"><path d="M7.922-17.703c0-.203-.344-.485-.547-.485H3.641V0H4.75v-17.219h2.625c.203 0 .547-.281.547-.484zm0 0"/></svg><svg overflow="visible" x="180.89" y="29.179"><path d="M4.75-.125v-12.094H3.64V0h1.11zm0 0"/></svg><svg overflow="visible" x="180.89" y="37.735"><path d="M4.75-.125v-12.094H3.64V0h1.11zm0 0"/></svg><svg overflow="visible" x="180.89" y="53.88"><path d="M7.922-.484c0-.204-.344-.5-.547-.5H4.75v-17.203H3.64V0h3.735c.203 0 .547-.281.547-.484zm0 0"/></svg><svg overflow="visible" x="193.514" y="8.7"><path d="M5.203-.125v-.516h-.578c-1.078 0-.922 0-.922-.437v-6.703c0-.282-.187-.438-.578-.438-.766.797-1.672.766-2.266.766v.625c.438 0 1.282-.031 1.563-.172v5.922c0 .437.172.437-.906.437H.937v.672C1.547-.03 2.595-.03 3.079-.03c.469 0 1.516 0 2.125.062zm0 0"/></svg><svg overflow="visible" x="218.751" y="8.7"><path d="M5.688-3.953c0-.953-.063-1.922-.47-2.797-.562-1.156-1.734-1.469-2.234-1.469-.718 0-1.796.438-2.28 1.547-.376.828-.438 1.766-.438 2.719 0 .89.109 2.062.593 2.969.516.968 1.532 1.25 2.11 1.25.656 0 1.75-.391 2.281-1.516.375-.828.438-1.766.438-2.703zm-1.391-.14c0 .89 0 1.702-.125 2.468C4-.485 3.516-.265 2.969-.265 2.516-.266 2-.438 1.78-1.579c-.125-.719-.125-1.813-.125-2.516 0-.765 0-1.562.094-2.203.219-1.422.922-1.406 1.219-1.406.406 0 .984.094 1.219 1.266.109.671.109 1.578.109 2.343zm0 0"/></svg><svg overflow="visible" x="243.989" y="8.7"><path d="M5.688-3.953c0-.953-.063-1.922-.47-2.797-.562-1.156-1.734-1.469-2.234-1.469-.718 0-1.796.438-2.28 1.547-.376.828-.438 1.766-.438 2.719 0 .89.109 2.062.593 2.969.516.968 1.532 1.25 2.11 1.25.656 0 1.75-.391 2.281-1.516.375-.828.438-1.766.438-2.703zm-1.391-.14c0 .89 0 1.702-.125 2.468C4-.485 3.516-.265 2.969-.265 2.516-.266 2-.438 1.78-1.579c-.125-.719-.125-1.813-.125-2.516 0-.765 0-1.562.094-2.203.219-1.422.922-1.406 1.219-1.406.406 0 .984.094 1.219 1.266.109.671.109 1.578.109 2.343zm0 0"/></svg><svg overflow="visible" x="264.588" y="8.7"><path d="M5.688-3.953c0-.953-.063-1.922-.47-2.797-.562-1.156-1.734-1.469-2.234-1.469-.718 0-1.796.438-2.28 1.547-.376.828-.438 1.766-.438 2.719 0 .89.109 2.062.593 2.969.516.968 1.532 1.25 2.11 1.25.656 0 1.75-.391 2.281-1.516.375-.828.438-1.766.438-2.703zm-1.391-.14c0 .89 0 1.702-.125 2.468C4-.485 3.516-.265 2.969-.265 2.516-.266 2-.438 1.78-1.579c-.125-.719-.125-1.813-.125-2.516 0-.765 0-1.562.094-2.203.219-1.422.922-1.406 1.219-1.406.406 0 .984.094 1.219 1.266.109.671.109 1.578.109 2.343zm0 0"/></svg><svg overflow="visible" x="188.864" y="23.145"><path d="M8.828-3.125c0-.125-.312-.36-.437-.36H.906c-.125 0-.437.235-.437.36 0 .14.312.375.437.375h7.485c.125 0 .437-.234.437-.375zm0 0"/></svg><svg overflow="visible" x="198.165" y="23.145"><path d="M5.656-2.172c0-.984-.953-2.047-2.187-2.297v.266c.984-.328 1.86-1.297 1.86-2.234 0-.985-1.235-1.782-2.391-1.782-1.204 0-2.313.844-2.313 1.75 0 .39.469.75.813.75.375 0 .796-.39.796-.734 0-.594-.75-.734-.656-.734.234-.36.89-.47 1.313-.47.484 0 .953.126.953 1.204 0 .14.031.734-.281 1.266-.36.578-.626.578-.922.578a4.76 4.76 0 01-.47.046c-.093.016-.374.157-.374.266 0 .14.281.266.484.266h.531c.985 0 1.22.687 1.22 1.86 0 1.624-.626 1.843-1.157 1.843-.516 0-1.266-.172-1.531-.61.125.016.687-.375.687-.828 0-.437-.515-.796-.86-.796-.28 0-.874.296-.874.812C.297-.656 1.609.266 2.922.266c1.453 0 2.734-1.22 2.734-2.438zm0 0"/></svg><svg overflow="visible" x="218.752" y="23.145"><path d="M5.656-2.172c0-.984-.953-2.047-2.187-2.297v.266c.984-.328 1.86-1.297 1.86-2.234 0-.985-1.235-1.782-2.391-1.782-1.204 0-2.313.844-2.313 1.75 0 .39.469.75.813.75.375 0 .796-.39.796-.734 0-.594-.75-.734-.656-.734.234-.36.89-.47 1.313-.47.484 0 .953.126.953 1.204 0 .14.031.734-.281 1.266-.36.578-.626.578-.922.578a4.76 4.76 0 01-.47.046c-.093.016-.374.157-.374.266 0 .14.281.266.484.266h.531c.985 0 1.22.687 1.22 1.86 0 1.624-.626 1.843-1.157 1.843-.516 0-1.266-.172-1.531-.61.125.016.687-.375.687-.828 0-.437-.515-.796-.86-.796-.28 0-.874.296-.874.812C.297-.656 1.609.266 2.922.266c1.453 0 2.734-1.22 2.734-2.438zm0 0"/></svg><svg overflow="visible" x="243.989" y="23.145"><path d="M5.688-3.953c0-.953-.063-1.922-.47-2.797-.562-1.156-1.734-1.469-2.234-1.469-.718 0-1.796.438-2.28 1.547-.376.828-.438 1.766-.438 2.719 0 .89.109 2.062.593 2.969.516.968 1.532 1.25 2.11 1.25.656 0 1.75-.391 2.281-1.516.375-.828.438-1.766.438-2.703zm-1.391-.14c0 .89 0 1.702-.125 2.468C4-.485 3.516-.265 2.969-.265 2.516-.266 2-.438 1.78-1.579c-.125-.719-.125-1.813-.125-2.516 0-.765 0-1.562.094-2.203.219-1.422.922-1.406 1.219-1.406.406 0 .984.094 1.219 1.266.109.671.109 1.578.109 2.343zm0 0"/></svg><svg overflow="visible" x="264.576" y="23.145"><path d="M5.688-3.953c0-.953-.063-1.922-.47-2.797-.562-1.156-1.734-1.469-2.234-1.469-.718 0-1.796.438-2.28 1.547-.376.828-.438 1.766-.438 2.719 0 .89.109 2.062.593 2.969.516.968 1.532 1.25 2.11 1.25.656 0 1.75-.391 2.281-1.516.375-.828.438-1.766.438-2.703zm-1.391-.14c0 .89 0 1.702-.125 2.468C4-.485 3.516-.265 2.969-.265 2.516-.266 2-.438 1.78-1.579c-.125-.719-.125-1.813-.125-2.516 0-.765 0-1.562.094-2.203.219-1.422.922-1.406 1.219-1.406.406 0 .984.094 1.219 1.266.109.671.109 1.578.109 2.343zm0 0"/></svg><svg overflow="visible" x="193.514" y="37.591"><path d="M5.656-2.172c0-.984-.953-2.047-2.187-2.297v.266c.984-.328 1.86-1.297 1.86-2.234 0-.985-1.235-1.782-2.391-1.782-1.204 0-2.313.844-2.313 1.75 0 .39.469.75.813.75.375 0 .796-.39.796-.734 0-.594-.75-.734-.656-.734.234-.36.89-.47 1.313-.47.484 0 .953.126.953 1.204 0 .14.031.734-.281 1.266-.36.578-.626.578-.922.578a4.76 4.76 0 01-.47.046c-.093.016-.374.157-.374.266 0 .14.281.266.484.266h.531c.985 0 1.22.687 1.22 1.86 0 1.624-.626 1.843-1.157 1.843-.516 0-1.266-.172-1.531-.61.125.016.687-.375.687-.828 0-.437-.515-.796-.86-.796-.28 0-.874.296-.874.812C.297-.656 1.609.266 2.922.266c1.453 0 2.734-1.22 2.734-2.438zm0 0"/></svg><svg overflow="visible" x="214.101" y="37.591"><path d="M8.828-3.125c0-.125-.312-.36-.437-.36H.906c-.125 0-.437.235-.437.36 0 .14.312.375.437.375h7.485c.125 0 .437-.234.437-.375zm0 0"/></svg><svg overflow="visible" x="223.402" y="37.591"><path d="M5.656-2.563c0-1.53-1.25-2.796-2.578-2.796-.812 0-1.469.734-1.703 1.312h.39v-.297c0-3.015 1.298-3.312 1.907-3.312.281 0 .64.031.75.203.125 0-.563.14-.563.672 0 .375.485.687.75.687.204 0 .75-.234.75-.703 0-.719-.718-1.422-1.718-1.422-1.532 0-3.344 1.672-3.344 4.313C.297-.72 1.89.266 3 .266c1.328 0 2.656-1.25 2.656-2.829zm-1.468-.015c0 .562 0 1.172-.204 1.594l.063-.094c-.36.719-.766.75-1.047.75-.75 0-.922-.594-.984-.766-.22-.562-.22-1.531-.22-1.734 0-.938.188-2 1.266-2 .188 0 .594-.031.97.703l-.063-.094c.219.438.219 1.047.219 1.64zm0 0"/></svg><svg overflow="visible" x="243.989" y="37.591"><path d="M5.656-2.172c0-.984-.953-2.047-2.187-2.297v.266c.984-.328 1.86-1.297 1.86-2.234 0-.985-1.235-1.782-2.391-1.782-1.204 0-2.313.844-2.313 1.75 0 .39.469.75.813.75.375 0 .796-.39.796-.734 0-.594-.75-.734-.656-.734.234-.36.89-.47 1.313-.47.484 0 .953.126.953 1.204 0 .14.031.734-.281 1.266-.36.578-.626.578-.922.578a4.76 4.76 0 01-.47.046c-.093.016-.374.157-.374.266 0 .14.281.266.484.266h.531c.985 0 1.22.687 1.22 1.86 0 1.624-.626 1.843-1.157 1.843-.516 0-1.266-.172-1.531-.61.125.016.687-.375.687-.828 0-.437-.515-.796-.86-.796-.28 0-.874.296-.874.812C.297-.656 1.609.266 2.922.266c1.453 0 2.734-1.22 2.734-2.438zm0 0"/></svg><svg overflow="visible" x="264.588" y="37.591"><path d="M5.688-3.953c0-.953-.063-1.922-.47-2.797-.562-1.156-1.734-1.469-2.234-1.469-.718 0-1.796.438-2.28 1.547-.376.828-.438 1.766-.438 2.719 0 .89.109 2.062.593 2.969.516.968 1.532 1.25 2.11 1.25.656 0 1.75-.391 2.281-1.516.375-.828.438-1.766.438-2.703zm-1.391-.14c0 .89 0 1.702-.125 2.468C4-.485 3.516-.265 2.969-.265 2.516-.266 2-.438 1.78-1.579c-.125-.719-.125-1.813-.125-2.516 0-.765 0-1.562.094-2.203.219-1.422.922-1.406 1.219-1.406.406 0 .984.094 1.219 1.266.109.671.109 1.578.109 2.343zm0 0"/></svg><svg overflow="visible" x="188.864" y="52.037"><path d="M8.828-3.125c0-.125-.312-.36-.437-.36H.906c-.125 0-.437.235-.437.36 0 .14.312.375.437.375h7.485c.125 0 .437-.234.437-.375zm0 0"/></svg><svg overflow="visible" x="198.165" y="52.037"><path d="M5.203-.125v-.516h-.578c-1.078 0-.922 0-.922-.437v-6.703c0-.282-.187-.438-.578-.438-.766.797-1.672.766-2.266.766v.625c.438 0 1.282-.031 1.563-.172v5.922c0 .437.172.437-.906.437H.937v.672C1.547-.03 2.595-.03 3.079-.03c.469 0 1.516 0 2.125.062zm0 0"/></svg><svg overflow="visible" x="218.752" y="52.037"><path d="M5.656-2.172c0-.984-.953-2.047-2.187-2.297v.266c.984-.328 1.86-1.297 1.86-2.234 0-.985-1.235-1.782-2.391-1.782-1.204 0-2.313.844-2.313 1.75 0 .39.469.75.813.75.375 0 .796-.39.796-.734 0-.594-.75-.734-.656-.734.234-.36.89-.47 1.313-.47.484 0 .953.126.953 1.204 0 .14.031.734-.281 1.266-.36.578-.626.578-.922.578a4.76 4.76 0 01-.47.046c-.093.016-.374.157-.374.266 0 .14.281.266.484.266h.531c.985 0 1.22.687 1.22 1.86 0 1.624-.626 1.843-1.157 1.843-.516 0-1.266-.172-1.531-.61.125.016.687-.375.687-.828 0-.437-.515-.796-.86-.796-.28 0-.874.296-.874.812C.297-.656 1.609.266 2.922.266c1.453 0 2.734-1.22 2.734-2.438zm0 0"/></svg><svg overflow="visible" x="239.339" y="52.037"><path d="M8.828-3.125c0-.125-.312-.36-.437-.36H.906c-.125 0-.437.235-.437.36 0 .14.312.375.437.375h7.485c.125 0 .437-.234.437-.375zm0 0"/></svg><svg overflow="visible" x="248.64" y="52.037"><path d="M5.656-2.172c0-.984-.953-2.047-2.187-2.297v.266c.984-.328 1.86-1.297 1.86-2.234 0-.985-1.235-1.782-2.391-1.782-1.204 0-2.313.844-2.313 1.75 0 .39.469.75.813.75.375 0 .796-.39.796-.734 0-.594-.75-.734-.656-.734.234-.36.89-.47 1.313-.47.484 0 .953.126.953 1.204 0 .14.031.734-.281 1.266-.36.578-.626.578-.922.578a4.76 4.76 0 01-.47.046c-.093.016-.374.157-.374.266 0 .14.281.266.484.266h.531c.985 0 1.22.687 1.22 1.86 0 1.624-.626 1.843-1.157 1.843-.516 0-1.266-.172-1.531-.61.125.016.687-.375.687-.828 0-.437-.515-.796-.86-.796-.28 0-.874.296-.874.812C.297-.656 1.609.266 2.922.266c1.453 0 2.734-1.22 2.734-2.438zm0 0"/></svg><svg overflow="visible" x="264.576" y="52.037"><path d="M5.203-.125v-.516h-.578c-1.078 0-.922 0-.922-.437v-6.703c0-.282-.187-.438-.578-.438-.766.797-1.672.766-2.266.766v.625c.438 0 1.282-.031 1.563-.172v5.922c0 .437.172.437-.906.437H.937v.672C1.547-.03 2.595-.03 3.079-.03c.469 0 1.516 0 2.125.062zm0 0"/></svg><svg overflow="visible" x="270.565" y="19.011"><path d="M4.328-.125v-18.063H.594c-.203 0-.563.282-.563.485s.36.484.563.484h2.625V0h1.11zm0 0"/></svg><svg overflow="visible" x="270.565" y="29.179"><path d="M4.14-12.219H3.22V0h1.11v-12.219zm0 0"/></svg><svg overflow="visible" x="270.565" y="37.735"><path d="M4.14-12.219H3.22V0h1.11v-12.219zm0 0"/></svg><svg overflow="visible" x="270.565" y="53.88"><path d="M4.328-.125v-18.063h-1.11V-.983H.595c-.203 0-.563.296-.563.5 0 .203.36.484.563.484h3.734zm0 0"/></svg><svg overflow="visible" x="278.539" y="30.468"><path d="M2.484-3.125c0-.344-.468-.766-.828-.766-.343 0-.828.422-.828.766 0 .36.485.766.828.766.36 0 .828-.407.828-.766zm0 0"/></svg><svg overflow="visible" x="281.863" y="19.011"><path d="M7.922-17.703c0-.203-.344-.485-.547-.485H3.641V0H4.75v-17.219h2.625c.203 0 .547-.281.547-.484zm0 0"/></svg><svg overflow="visible" x="281.863" y="29.179"><path d="M4.75-.125v-12.094H3.64V0h1.11zm0 0"/></svg><svg overflow="visible" x="281.863" y="37.735"><path d="M4.75-.125v-12.094H3.64V0h1.11zm0 0"/></svg><svg overflow="visible" x="281.863" y="53.88"><path d="M7.922-.484c0-.204-.344-.5-.547-.5H4.75v-17.203H3.64V0h3.735c.203 0 .547-.281.547-.484zm0 0"/></svg><svg overflow="visible" x="289.837" y="8.7"><path d="M9.203-6.484c0-.922-.984-1.938-2.547-1.938H2.781c-.219 0-.562.125-.562.36 0 .14.312.265.547.265.156 0 .375.016.515.031.203.016.063-.078.063.063 0 .047-.016.078-.047.219L1.703-1.063c-.125.47.047.422-.89.422C.609-.64.28-.5.28-.28c0 .156.344.281.375.281l1.516-.031h.765c.266 0 .532.031.782.031.078 0 .422-.125.422-.375 0-.125-.297-.266-.516-.266-.453 0-.594.141-.594-.078 0-.062.031-.125.047-.203l.703-2.86h1.875c1.688 0 3.547-1.374 3.547-2.702zm-1.5-.297c0 .468-.187 1.406-.656 1.828-.594.547-1.172.61-1.688.61H3.891l.78-3.126c.11-.422-.062-.328.454-.328h1.156c.985 0 1.422.188 1.422 1.016zm0 0"/></svg><svg overflow="visible" x="297.512" y="11.653"><path d="M4.172-.156v-.469H3.64c-.829 0-.625.063-.625-.219v-4.64c0-.235-.235-.391-.563-.391-.578.578-1.203.531-1.75.531v.625c.406 0 1.11-.047 1.219-.11v3.985c0 .281.203.219-.625.219H.766v.64L2.469-.03l1.703.047zm0 0"/></svg><svg overflow="visible" x="289.837" y="23.145"><path d="M9.203-6.484c0-.922-.984-1.938-2.547-1.938H2.781c-.219 0-.562.125-.562.36 0 .14.312.265.547.265.156 0 .375.016.515.031.203.016.063-.078.063.063 0 .047-.016.078-.047.219L1.703-1.063c-.125.47.047.422-.89.422C.609-.64.28-.5.28-.28c0 .156.344.281.375.281l1.516-.031h.765c.266 0 .532.031.782.031.078 0 .422-.125.422-.375 0-.125-.297-.266-.516-.266-.453 0-.594.141-.594-.078 0-.062.031-.125.047-.203l.703-2.86h1.875c1.688 0 3.547-1.374 3.547-2.702zm-1.5-.297c0 .468-.187 1.406-.656 1.828-.594.547-1.172.61-1.688.61H3.891l.78-3.126c.11-.422-.062-.328.454-.328h1.156c.985 0 1.422.188 1.422 1.016zm0 0"/></svg><svg overflow="visible" x="297.512" y="26.099"><path d="M4.234-1.844H3.75c-.047.344-.063.735-.172.813-.062.047-.562 0-.687 0H1.812c.563-.5.86-.735 1.36-1.125.625-.5 1.265-1.14 1.265-1.938 0-1-1.093-1.781-2.171-1.781-1.032 0-1.954.89-1.954 1.656 0 .422.579.625.657.625.203 0 .656-.297.656-.61 0-.14-.266-.593-.422-.593.188-.437.547-.469.938-.469.843 0 1.062.5 1.062 1.172 0 .735-.453 1.203-.719 1.5l-2.03 2C.374-.516.311-.39.311 0h3.844l.313-1.844zm0 0"/></svg><svg overflow="visible" x="289.837" y="37.591"><path d="M9.203-6.484c0-.922-.984-1.938-2.547-1.938H2.781c-.219 0-.562.125-.562.36 0 .14.312.265.547.265.156 0 .375.016.515.031.203.016.063-.078.063.063 0 .047-.016.078-.047.219L1.703-1.063c-.125.47.047.422-.89.422C.609-.64.28-.5.28-.28c0 .156.344.281.375.281l1.516-.031h.765c.266 0 .532.031.782.031.078 0 .422-.125.422-.375 0-.125-.297-.266-.516-.266-.453 0-.594.141-.594-.078 0-.062.031-.125.047-.203l.703-2.86h1.875c1.688 0 3.547-1.374 3.547-2.702zm-1.5-.297c0 .468-.187 1.406-.656 1.828-.594.547-1.172.61-1.688.61H3.891l.78-3.126c.11-.422-.062-.328.454-.328h1.156c.985 0 1.422.188 1.422 1.016zm0 0"/></svg><svg overflow="visible" x="297.512" y="40.545"><path d="M4.516-1.61c0-.656-.75-1.468-1.672-1.656v.313c.89-.313 1.406-1.094 1.406-1.61 0-.656-.969-1.312-1.89-1.312-.938 0-1.86.61-1.86 1.281 0 .282.39.594.64.594.266 0 .641-.344.641-.578 0-.25-.375-.578-.297-.578.094-.11.532-.157.844-.157.375 0 .688.016.688.75 0 .344-.047.625-.266.891-.281.313-.36.281-.781.313-.203.015-.235.015-.266.015l.14.281s-.437-.109-.437-.015c0 .125.282.281.422.281h.453c.656 0 .922.297.922 1.188 0 1.046-.39 1.187-.89 1.187-.329 0-.922-.031-1.094-.266.078-.015.375-.453.375-.625 0-.265-.407-.625-.672-.625-.235 0-.672.297-.672.641C.25-.5 1.328.172 2.344.172 3.5.172 4.516-.766 4.516-1.61zm0 0"/></svg><svg overflow="visible" x="289.837" y="52.037"><path d="M9.203-6.484c0-.922-.984-1.938-2.547-1.938H2.781c-.219 0-.562.125-.562.36 0 .14.312.265.547.265.156 0 .375.016.515.031.203.016.063-.078.063.063 0 .047-.016.078-.047.219L1.703-1.063c-.125.47.047.422-.89.422C.609-.64.28-.5.28-.28c0 .156.344.281.375.281l1.516-.031h.765c.266 0 .532.031.782.031.078 0 .422-.125.422-.375 0-.125-.297-.266-.516-.266-.453 0-.594.141-.594-.078 0-.062.031-.125.047-.203l.703-2.86h1.875c1.688 0 3.547-1.374 3.547-2.702zm-1.5-.297c0 .468-.187 1.406-.656 1.828-.594.547-1.172.61-1.688.61H3.891l.78-3.126c.11-.422-.062-.328.454-.328h1.156c.985 0 1.422.188 1.422 1.016zm0 0"/></svg><svg overflow="visible" x="297.512" y="54.99"><path d="M4.64-1.531V-2h-.937v-3.563c0-.187-.203-.406-.39-.406-.094 0-.282.063-.36.172L.125-1.844v.469h2.453v.531c0 .281.203.219-.469.219h-.437v.64L3.14-.03l1.468.047v-.641h-.437c-.672 0-.469.063-.469-.219v-.531h.938zM2.845-2H.969l2.015-2.781-.343-.125V-2zm0 0"/></svg><svg overflow="visible" x="302.772" y="19.011"><path d="M4.328-.125v-18.063H.594c-.203 0-.563.282-.563.485s.36.484.563.484h2.625V0h1.11zm0 0"/></svg><svg overflow="visible" x="302.772" y="29.179"><path d="M4.14-12.219H3.22V0h1.11v-12.219zm0 0"/></svg><svg overflow="visible" x="302.772" y="37.735"><path d="M4.14-12.219H3.22V0h1.11v-12.219zm0 0"/></svg><svg overflow="visible" x="302.772" y="53.88"><path d="M4.328-.125v-18.063h-1.11V-.983H.595c-.203 0-.563.296-.563.5 0 .203.36.484.563.484h3.734zm0 0"/></svg><svg overflow="visible" x="314.067" y="30.468"><path d="M8.828-4.281c0-.125-.312-.375-.437-.375H.906c-.125 0-.437.25-.437.375 0 .14.312.375.437.375h7.485c.125 0 .437-.235.437-.375zm0 2.328c0-.14-.312-.375-.437-.375H.906c-.125 0-.437.234-.437.375 0 .125.312.36.437.36h7.485c.125 0 .437-.235.437-.36zm0 0"/></svg><svg overflow="visible" x="326.68" y="30.468"><path d="M3.938 3.203c0-.14-.297-.375-.454-.375h-.859v-11.89h.86c.156 0 .453-.235.453-.376 0-.156-.297-.39-.454-.39H1.72V3.578h1.765c.157 0 .454-.234.454-.375zm0 0"/></svg><svg overflow="visible" x="330.755" y="30.368"><path d="M5.203-.125v-.516h-.578c-1.078 0-.922 0-.922-.437v-6.703c0-.282-.187-.438-.578-.438-.766.797-1.672.766-2.266.766v.625c.438 0 1.282-.031 1.563-.172v5.922c0 .437.172.437-.906.437H.937v.672C1.547-.03 2.595-.03 3.079-.03c.469 0 1.516 0 2.125.062zm0 0"/></svg><svg overflow="visible" x="346.691" y="30.368"><path d="M4.14-5.156c0-.125-.312-.266-.53-.266H2.78c.39-1.562.453-1.797.453-1.875 0-.203-.328-.453-.53-.453-.032 0-.579.14-.688.563l-.422 1.765H.64c-.25 0-.563.14-.563.36 0 .156.297.28.531.28h.813C.594-1.515.547-1.311.547-1.093c0 .64.656 1.219 1.312 1.219 1.22 0 2.079-1.875 2.079-1.969 0-.11-.282-.25-.329-.25-.109 0-.328.172-.375.297C2.72-.547 2.281-.39 1.875-.39c-.25 0-.172-.03-.172-.421 0-.282.016-.375.063-.579l.859-3.39h.953c.25 0 .563-.125.563-.375zm0 0"/></svg><svg overflow="visible" x="360.966" y="30.368"><path d="M4.14-5.156c0-.125-.312-.266-.53-.266H2.78c.39-1.562.453-1.797.453-1.875 0-.203-.328-.453-.53-.453-.032 0-.579.14-.688.563l-.422 1.765H.64c-.25 0-.563.14-.563.36 0 .156.297.28.531.28h.813C.594-1.515.547-1.311.547-1.093c0 .64.656 1.219 1.312 1.219 1.22 0 2.079-1.875 2.079-1.969 0-.11-.282-.25-.329-.25-.109 0-.328.172-.375.297C2.72-.547 2.281-.39 1.875-.39c-.25 0-.172-.03-.172-.421 0-.282.016-.375.063-.579l.859-3.39h.953c.25 0 .563-.125.563-.375zm0 0"/></svg><svg overflow="visible" x="365.289" y="26.028"><path d="M4.234-1.844H3.75c-.047.344-.063.735-.172.813-.062.047-.562 0-.687 0H1.812c.563-.5.86-.735 1.36-1.125.625-.5 1.265-1.14 1.265-1.938 0-1-1.093-1.781-2.171-1.781-1.032 0-1.954.89-1.954 1.656 0 .422.579.625.657.625.203 0 .656-.297.656-.61 0-.14-.266-.593-.422-.593.188-.437.547-.469.938-.469.843 0 1.062.5 1.062 1.172 0 .735-.453 1.203-.719 1.5l-2.03 2C.374-.516.311-.39.311 0h3.844l.313-1.844zm0 0"/></svg><svg overflow="visible" x="380.512" y="30.368"><path d="M4.14-5.156c0-.125-.312-.266-.53-.266H2.78c.39-1.562.453-1.797.453-1.875 0-.203-.328-.453-.53-.453-.032 0-.579.14-.688.563l-.422 1.765H.64c-.25 0-.563.14-.563.36 0 .156.297.28.531.28h.813C.594-1.515.547-1.311.547-1.093c0 .64.656 1.219 1.312 1.219 1.22 0 2.079-1.875 2.079-1.969 0-.11-.282-.25-.329-.25-.109 0-.328.172-.375.297C2.72-.547 2.281-.39 1.875-.39c-.25 0-.172-.03-.172-.421 0-.282.016-.375.063-.579l.859-3.39h.953c.25 0 .563-.125.563-.375zm0 0"/></svg><svg overflow="visible" x="384.827" y="26.028"><path d="M4.516-1.61c0-.656-.75-1.468-1.672-1.656v.313c.89-.313 1.406-1.094 1.406-1.61 0-.656-.969-1.312-1.89-1.312-.938 0-1.86.61-1.86 1.281 0 .282.39.594.64.594.266 0 .641-.344.641-.578 0-.25-.375-.578-.297-.578.094-.11.532-.157.844-.157.375 0 .688.016.688.75 0 .344-.047.625-.266.891-.281.313-.36.281-.781.313-.203.015-.235.015-.266.015l.14.281s-.437-.109-.437-.015c0 .125.282.281.422.281h.453c.656 0 .922.297.922 1.188 0 1.046-.39 1.187-.89 1.187-.329 0-.922-.031-1.094-.266.078-.015.375-.453.375-.625 0-.265-.407-.625-.672-.625-.235 0-.672.297-.672.641C.25-.5 1.328.172 2.344.172 3.5.172 4.516-.766 4.516-1.61zm0 0"/></svg><svg overflow="visible" x="390.087" y="30.468"><path d="M2.14-9.828H.579c-.14 0-.453.234-.453.39 0 .141.313.376.453.376h.86v11.89h-.86c-.14 0-.453.235-.453.375s.313.375.453.375h1.75V-9.828zm0 0"/></svg><svg overflow="visible" x="394.152" y="30.468"><path d="M2.484-3.125c0-.344-.468-.766-.828-.766-.343 0-.828.422-.828.766 0 .36.485.766.828.766.36 0 .828-.407.828-.766zm0 0"/></svg><svg overflow="visible" x="397.476" y="19.011"><path d="M7.922-17.703c0-.203-.344-.485-.547-.485H3.641V0H4.75v-17.219h2.625c.203 0 .547-.281.547-.484zm0 0"/></svg><svg overflow="visible" x="397.476" y="29.179"><path d="M4.75-.125v-12.094H3.64V0h1.11zm0 0"/></svg><svg overflow="visible" x="397.476" y="37.735"><path d="M4.75-.125v-12.094H3.64V0h1.11zm0 0"/></svg><svg overflow="visible" x="397.476" y="53.88"><path d="M7.922-.484c0-.204-.344-.5-.547-.5H4.75v-17.203H3.64V0h3.735c.203 0 .547-.281.547-.484zm0 0"/></svg><svg overflow="visible" x="405.45" y="8.7"><path d="M5.203-.125v-.516h-.578c-1.078 0-.922 0-.922-.437v-6.703c0-.282-.187-.438-.578-.438-.766.797-1.672.766-2.266.766v.625c.438 0 1.282-.031 1.563-.172v5.922c0 .437.172.437-.906.437H.937v.672C1.547-.03 2.595-.03 3.079-.03c.469 0 1.516 0 2.125.062zm0 0"/></svg><svg overflow="visible" x="421.386" y="8.7"><path d="M5.688-3.953c0-.953-.063-1.922-.47-2.797-.562-1.156-1.734-1.469-2.234-1.469-.718 0-1.796.438-2.28 1.547-.376.828-.438 1.766-.438 2.719 0 .89.109 2.062.593 2.969.516.968 1.532 1.25 2.11 1.25.656 0 1.75-.391 2.281-1.516.375-.828.438-1.766.438-2.703zm-1.391-.14c0 .89 0 1.702-.125 2.468C4-.485 3.516-.265 2.969-.265 2.516-.266 2-.438 1.78-1.579c-.125-.719-.125-1.813-.125-2.516 0-.765 0-1.562.094-2.203.219-1.422.922-1.406 1.219-1.406.406 0 .984.094 1.219 1.266.109.671.109 1.578.109 2.343zm0 0"/></svg><svg overflow="visible" x="439.929" y="8.7"><path d="M5.688-3.953c0-.953-.063-1.922-.47-2.797-.562-1.156-1.734-1.469-2.234-1.469-.718 0-1.796.438-2.28 1.547-.376.828-.438 1.766-.438 2.719 0 .89.109 2.062.593 2.969.516.968 1.532 1.25 2.11 1.25.656 0 1.75-.391 2.281-1.516.375-.828.438-1.766.438-2.703zm-1.391-.14c0 .89 0 1.702-.125 2.468C4-.485 3.516-.265 2.969-.265 2.516-.266 2-.438 1.78-1.579c-.125-.719-.125-1.813-.125-2.516 0-.765 0-1.562.094-2.203.219-1.422.922-1.406 1.219-1.406.406 0 .984.094 1.219 1.266.109.671.109 1.578.109 2.343zm0 0"/></svg><svg overflow="visible" x="461.066" y="8.7"><path d="M5.688-3.953c0-.953-.063-1.922-.47-2.797-.562-1.156-1.734-1.469-2.234-1.469-.718 0-1.796.438-2.28 1.547-.376.828-.438 1.766-.438 2.719 0 .89.109 2.062.593 2.969.516.968 1.532 1.25 2.11 1.25.656 0 1.75-.391 2.281-1.516.375-.828.438-1.766.438-2.703zm-1.391-.14c0 .89 0 1.702-.125 2.468C4-.485 3.516-.265 2.969-.265 2.516-.266 2-.438 1.78-1.579c-.125-.719-.125-1.813-.125-2.516 0-.765 0-1.562.094-2.203.219-1.422.922-1.406 1.219-1.406.406 0 .984.094 1.219 1.266.109.671.109 1.578.109 2.343zm0 0"/></svg><svg overflow="visible" x="405.45" y="23.145"><path d="M5.688-3.953c0-.953-.063-1.922-.47-2.797-.562-1.156-1.734-1.469-2.234-1.469-.718 0-1.796.438-2.28 1.547-.376.828-.438 1.766-.438 2.719 0 .89.109 2.062.593 2.969.516.968 1.532 1.25 2.11 1.25.656 0 1.75-.391 2.281-1.516.375-.828.438-1.766.438-2.703zm-1.391-.14c0 .89 0 1.702-.125 2.468C4-.485 3.516-.265 2.969-.265 2.516-.266 2-.438 1.78-1.579c-.125-.719-.125-1.813-.125-2.516 0-.765 0-1.562.094-2.203.219-1.422.922-1.406 1.219-1.406.406 0 .984.094 1.219 1.266.109.671.109 1.578.109 2.343zm0 0"/></svg><svg overflow="visible" x="421.41" y="23.145"><path d="M5.766-5.297c0-.125-.188-.016-.188-.016l-.125-.234c-.094 0-.266.063-.328.172-.36.563-.469.719-.75.719s-.297-.14-.484-.344c-.22-.266-.563-.547-.954-.547-.89 0-1.64 1.25-1.64 1.5 0 .047.234.25.344.25.109 0 .312-.187.343-.25.235-.562.735-.437.829-.437.25 0 .468.078.75.187.484.172.609.172.578.172-.235.281-1.235 1.156-1.47 1.344l-1.062 1C.781-.984.313-.203.313-.125.313 0 .78.094.78.094L.656.125c.094 0 .25-.047.328-.188.266-.421.5-.703.875-.703.282 0 .25.079.563.422.203.25.547.469.906.469 1.172 0 2.063-1.64 2.063-1.969 0-.062-.235-.25-.329-.25-.109 0-.343.203-.375.281-.28.782-.843.875-1.234.875C3.22-.938 3-1 2.75-1.093c-.406-.156-.594-.203-.844-.203l.14.234s-.343-.234-.452-.187l.125.219c.64-.688 1-.985 1.422-1.36 0 0 .75-.64 1.171-1.078 1.141-1.11 1.454-1.781 1.454-1.828zm0 0"/></svg><svg overflow="visible" x="439.929" y="23.145"><path d="M5.688-3.953c0-.953-.063-1.922-.47-2.797-.562-1.156-1.734-1.469-2.234-1.469-.718 0-1.796.438-2.28 1.547-.376.828-.438 1.766-.438 2.719 0 .89.109 2.062.593 2.969.516.968 1.532 1.25 2.11 1.25.656 0 1.75-.391 2.281-1.516.375-.828.438-1.766.438-2.703zm-1.391-.14c0 .89 0 1.702-.125 2.468C4-.485 3.516-.265 2.969-.265 2.516-.266 2-.438 1.78-1.579c-.125-.719-.125-1.813-.125-2.516 0-.765 0-1.562.094-2.203.219-1.422.922-1.406 1.219-1.406.406 0 .984.094 1.219 1.266.109.671.109 1.578.109 2.343zm0 0"/></svg><svg overflow="visible" x="461.066" y="23.145"><path d="M5.688-3.953c0-.953-.063-1.922-.47-2.797-.562-1.156-1.734-1.469-2.234-1.469-.718 0-1.796.438-2.28 1.547-.376.828-.438 1.766-.438 2.719 0 .89.109 2.062.593 2.969.516.968 1.532 1.25 2.11 1.25.656 0 1.75-.391 2.281-1.516.375-.828.438-1.766.438-2.703zm-1.391-.14c0 .89 0 1.702-.125 2.468C4-.485 3.516-.265 2.969-.265 2.516-.266 2-.438 1.78-1.579c-.125-.719-.125-1.813-.125-2.516 0-.765 0-1.562.094-2.203.219-1.422.922-1.406 1.219-1.406.406 0 .984.094 1.219 1.266.109.671.109 1.578.109 2.343zm0 0"/></svg><svg overflow="visible" x="405.45" y="37.591"><path d="M5.688-3.953c0-.953-.063-1.922-.47-2.797-.562-1.156-1.734-1.469-2.234-1.469-.718 0-1.796.438-2.28 1.547-.376.828-.438 1.766-.438 2.719 0 .89.109 2.062.593 2.969.516.968 1.532 1.25 2.11 1.25.656 0 1.75-.391 2.281-1.516.375-.828.438-1.766.438-2.703zm-1.391-.14c0 .89 0 1.702-.125 2.468C4-.485 3.516-.265 2.969-.265 2.516-.266 2-.438 1.78-1.579c-.125-.719-.125-1.813-.125-2.516 0-.765 0-1.562.094-2.203.219-1.422.922-1.406 1.219-1.406.406 0 .984.094 1.219 1.266.109.671.109 1.578.109 2.343zm0 0"/></svg><svg overflow="visible" x="421.386" y="37.591"><path d="M5.688-3.953c0-.953-.063-1.922-.47-2.797-.562-1.156-1.734-1.469-2.234-1.469-.718 0-1.796.438-2.28 1.547-.376.828-.438 1.766-.438 2.719 0 .89.109 2.062.593 2.969.516.968 1.532 1.25 2.11 1.25.656 0 1.75-.391 2.281-1.516.375-.828.438-1.766.438-2.703zm-1.391-.14c0 .89 0 1.702-.125 2.468C4-.485 3.516-.265 2.969-.265 2.516-.266 2-.438 1.78-1.579c-.125-.719-.125-1.813-.125-2.516 0-.765 0-1.562.094-2.203.219-1.422.922-1.406 1.219-1.406.406 0 .984.094 1.219 1.266.109.671.109 1.578.109 2.343zm0 0"/></svg><svg overflow="visible" x="437.323" y="37.591"><path d="M5.766-5.297c0-.125-.188-.016-.188-.016l-.125-.234c-.094 0-.266.063-.328.172-.36.563-.469.719-.75.719s-.297-.14-.484-.344c-.22-.266-.563-.547-.954-.547-.89 0-1.64 1.25-1.64 1.5 0 .047.234.25.344.25.109 0 .312-.187.343-.25.235-.562.735-.437.829-.437.25 0 .468.078.75.187.484.172.609.172.578.172-.235.281-1.235 1.156-1.47 1.344l-1.062 1C.781-.984.313-.203.313-.125.313 0 .78.094.78.094L.656.125c.094 0 .25-.047.328-.188.266-.421.5-.703.875-.703.282 0 .25.079.563.422.203.25.547.469.906.469 1.172 0 2.063-1.64 2.063-1.969 0-.062-.235-.25-.329-.25-.109 0-.343.203-.375.281-.28.782-.843.875-1.234.875C3.22-.938 3-1 2.75-1.093c-.406-.156-.594-.203-.844-.203l.14.234s-.343-.234-.452-.187l.125.219c.64-.688 1-.985 1.422-1.36 0 0 .75-.64 1.171-1.078 1.141-1.11 1.454-1.781 1.454-1.828zm0 0"/></svg><svg overflow="visible" x="443.248" y="33.251"><path d="M4.234-1.844H3.75c-.047.344-.063.735-.172.813-.062.047-.562 0-.687 0H1.812c.563-.5.86-.735 1.36-1.125.625-.5 1.265-1.14 1.265-1.938 0-1-1.093-1.781-2.171-1.781-1.032 0-1.954.89-1.954 1.656 0 .422.579.625.657.625.203 0 .656-.297.656-.61 0-.14-.266-.593-.422-.593.188-.437.547-.469.938-.469.843 0 1.062.5 1.062 1.172 0 .735-.453 1.203-.719 1.5l-2.03 2C.374-.516.311-.39.311 0h3.844l.313-1.844zm0 0"/></svg><svg overflow="visible" x="461.07" y="37.591"><path d="M5.688-3.953c0-.953-.063-1.922-.47-2.797-.562-1.156-1.734-1.469-2.234-1.469-.718 0-1.796.438-2.28 1.547-.376.828-.438 1.766-.438 2.719 0 .89.109 2.062.593 2.969.516.968 1.532 1.25 2.11 1.25.656 0 1.75-.391 2.281-1.516.375-.828.438-1.766.438-2.703zm-1.391-.14c0 .89 0 1.702-.125 2.468C4-.485 3.516-.265 2.969-.265 2.516-.266 2-.438 1.78-1.579c-.125-.719-.125-1.813-.125-2.516 0-.765 0-1.562.094-2.203.219-1.422.922-1.406 1.219-1.406.406 0 .984.094 1.219 1.266.109.671.109 1.578.109 2.343zm0 0"/></svg><svg overflow="visible" x="405.45" y="52.037"><path d="M5.688-3.953c0-.953-.063-1.922-.47-2.797-.562-1.156-1.734-1.469-2.234-1.469-.718 0-1.796.438-2.28 1.547-.376.828-.438 1.766-.438 2.719 0 .89.109 2.062.593 2.969.516.968 1.532 1.25 2.11 1.25.656 0 1.75-.391 2.281-1.516.375-.828.438-1.766.438-2.703zm-1.391-.14c0 .89 0 1.702-.125 2.468C4-.485 3.516-.265 2.969-.265 2.516-.266 2-.438 1.78-1.579c-.125-.719-.125-1.813-.125-2.516 0-.765 0-1.562.094-2.203.219-1.422.922-1.406 1.219-1.406.406 0 .984.094 1.219 1.266.109.671.109 1.578.109 2.343zm0 0"/></svg><svg overflow="visible" x="421.386" y="52.037"><path d="M5.688-3.953c0-.953-.063-1.922-.47-2.797-.562-1.156-1.734-1.469-2.234-1.469-.718 0-1.796.438-2.28 1.547-.376.828-.438 1.766-.438 2.719 0 .89.109 2.062.593 2.969.516.968 1.532 1.25 2.11 1.25.656 0 1.75-.391 2.281-1.516.375-.828.438-1.766.438-2.703zm-1.391-.14c0 .89 0 1.702-.125 2.468C4-.485 3.516-.265 2.969-.265 2.516-.266 2-.438 1.78-1.579c-.125-.719-.125-1.813-.125-2.516 0-.765 0-1.562.094-2.203.219-1.422.922-1.406 1.219-1.406.406 0 .984.094 1.219 1.266.109.671.109 1.578.109 2.343zm0 0"/></svg><svg overflow="visible" x="439.929" y="52.037"><path d="M5.688-3.953c0-.953-.063-1.922-.47-2.797-.562-1.156-1.734-1.469-2.234-1.469-.718 0-1.796.438-2.28 1.547-.376.828-.438 1.766-.438 2.719 0 .89.109 2.062.593 2.969.516.968 1.532 1.25 2.11 1.25.656 0 1.75-.391 2.281-1.516.375-.828.438-1.766.438-2.703zm-1.391-.14c0 .89 0 1.702-.125 2.468C4-.485 3.516-.265 2.969-.265 2.516-.266 2-.438 1.78-1.579c-.125-.719-.125-1.813-.125-2.516 0-.765 0-1.562.094-2.203.219-1.422.922-1.406 1.219-1.406.406 0 .984.094 1.219 1.266.109.671.109 1.578.109 2.343zm0 0"/></svg><svg overflow="visible" x="458.459" y="52.037"><path d="M5.766-5.297c0-.125-.188-.016-.188-.016l-.125-.234c-.094 0-.266.063-.328.172-.36.563-.469.719-.75.719s-.297-.14-.484-.344c-.22-.266-.563-.547-.954-.547-.89 0-1.64 1.25-1.64 1.5 0 .047.234.25.344.25.109 0 .312-.187.343-.25.235-.562.735-.437.829-.437.25 0 .468.078.75.187.484.172.609.172.578.172-.235.281-1.235 1.156-1.47 1.344l-1.062 1C.781-.984.313-.203.313-.125.313 0 .78.094.78.094L.656.125c.094 0 .25-.047.328-.188.266-.421.5-.703.875-.703.282 0 .25.079.563.422.203.25.547.469.906.469 1.172 0 2.063-1.64 2.063-1.969 0-.062-.235-.25-.329-.25-.109 0-.343.203-.375.281-.28.782-.843.875-1.234.875C3.22-.938 3-1 2.75-1.093c-.406-.156-.594-.203-.844-.203l.14.234s-.343-.234-.452-.187l.125.219c.64-.688 1-.985 1.422-1.36 0 0 .75-.64 1.171-1.078 1.141-1.11 1.454-1.781 1.454-1.828zm0 0"/></svg><svg overflow="visible" x="464.388" y="47.697"><path d="M4.516-1.61c0-.656-.75-1.468-1.672-1.656v.313c.89-.313 1.406-1.094 1.406-1.61 0-.656-.969-1.312-1.89-1.312-.938 0-1.86.61-1.86 1.281 0 .282.39.594.64.594.266 0 .641-.344.641-.578 0-.25-.375-.578-.297-.578.094-.11.532-.157.844-.157.375 0 .688.016.688.75 0 .344-.047.625-.266.891-.281.313-.36.281-.781.313-.203.015-.235.015-.266.015l.14.281s-.437-.109-.437-.015c0 .125.282.281.422.281h.453c.656 0 .922.297.922 1.188 0 1.046-.39 1.187-.89 1.187-.329 0-.922-.031-1.094-.266.078-.015.375-.453.375-.625 0-.265-.407-.625-.672-.625-.235 0-.672.297-.672.641C.25-.5 1.328.172 2.344.172 3.5.172 4.516-.766 4.516-1.61zm0 0"/></svg><svg overflow="visible" x="469.648" y="19.011"><path d="M4.328-.125v-18.063H.594c-.203 0-.563.282-.563.485s.36.484.563.484h2.625V0h1.11zm0 0"/></svg><svg overflow="visible" x="469.648" y="29.179"><path d="M4.14-12.219H3.22V0h1.11v-12.219zm0 0"/></svg><svg overflow="visible" x="469.648" y="37.735"><path d="M4.14-12.219H3.22V0h1.11v-12.219zm0 0"/></svg><svg overflow="visible" x="469.648" y="53.88"><path d="M4.328-.125v-18.063h-1.11V-.983H.595c-.203 0-.563.296-.563.5 0 .203.36.484.563.484h3.734zm0 0"/></svg><svg overflow="visible" x="477.622" y="30.468"><path d="M2.484-3.125c0-.344-.468-.766-.828-.766-.343 0-.828.422-.828.766 0 .36.485.766.828.766.36 0 .828-.407.828-.766zm0 0"/></svg><svg overflow="visible" x="480.946" y="19.011"><path d="M7.922-17.703c0-.203-.344-.485-.547-.485H3.641V0H4.75v-17.219h2.625c.203 0 .547-.281.547-.484zm0 0"/></svg><svg overflow="visible" x="480.946" y="29.179"><path d="M4.75-.125v-12.094H3.64V0h1.11zm0 0"/></svg><svg overflow="visible" x="480.946" y="37.735"><path d="M4.75-.125v-12.094H3.64V0h1.11zm0 0"/></svg><svg overflow="visible" x="480.946" y="53.88"><path d="M7.922-.484c0-.204-.344-.5-.547-.5H4.75v-17.203H3.64V0h3.735c.203 0 .547-.281.547-.484zm0 0"/></svg><svg overflow="visible" x="493.57" y="8.7"><path d="M5.203-.125v-.516h-.578c-1.078 0-.922 0-.922-.437v-6.703c0-.282-.187-.438-.578-.438-.766.797-1.672.766-2.266.766v.625c.438 0 1.282-.031 1.563-.172v5.922c0 .437.172.437-.906.437H.937v.672C1.547-.03 2.595-.03 3.079-.03c.469 0 1.516 0 2.125.062zm0 0"/></svg><svg overflow="visible" x="518.807" y="8.7"><path d="M5.688-3.953c0-.953-.063-1.922-.47-2.797-.562-1.156-1.734-1.469-2.234-1.469-.718 0-1.796.438-2.28 1.547-.376.828-.438 1.766-.438 2.719 0 .89.109 2.062.593 2.969.516.968 1.532 1.25 2.11 1.25.656 0 1.75-.391 2.281-1.516.375-.828.438-1.766.438-2.703zm-1.391-.14c0 .89 0 1.702-.125 2.468C4-.485 3.516-.265 2.969-.265 2.516-.266 2-.438 1.78-1.579c-.125-.719-.125-1.813-.125-2.516 0-.765 0-1.562.094-2.203.219-1.422.922-1.406 1.219-1.406.406 0 .984.094 1.219 1.266.109.671.109 1.578.109 2.343zm0 0"/></svg><svg overflow="visible" x="544.045" y="8.7"><path d="M5.688-3.953c0-.953-.063-1.922-.47-2.797-.562-1.156-1.734-1.469-2.234-1.469-.718 0-1.796.438-2.28 1.547-.376.828-.438 1.766-.438 2.719 0 .89.109 2.062.593 2.969.516.968 1.532 1.25 2.11 1.25.656 0 1.75-.391 2.281-1.516.375-.828.438-1.766.438-2.703zm-1.391-.14c0 .89 0 1.702-.125 2.468C4-.485 3.516-.265 2.969-.265 2.516-.266 2-.438 1.78-1.579c-.125-.719-.125-1.813-.125-2.516 0-.765 0-1.562.094-2.203.219-1.422.922-1.406 1.219-1.406.406 0 .984.094 1.219 1.266.109.671.109 1.578.109 2.343zm0 0"/></svg><svg overflow="visible" x="564.644" y="8.7"><path d="M5.688-3.953c0-.953-.063-1.922-.47-2.797-.562-1.156-1.734-1.469-2.234-1.469-.718 0-1.796.438-2.28 1.547-.376.828-.438 1.766-.438 2.719 0 .89.109 2.062.593 2.969.516.968 1.532 1.25 2.11 1.25.656 0 1.75-.391 2.281-1.516.375-.828.438-1.766.438-2.703zm-1.391-.14c0 .89 0 1.702-.125 2.468C4-.485 3.516-.265 2.969-.265 2.516-.266 2-.438 1.78-1.579c-.125-.719-.125-1.813-.125-2.516 0-.765 0-1.562.094-2.203.219-1.422.922-1.406 1.219-1.406.406 0 .984.094 1.219 1.266.109.671.109 1.578.109 2.343zm0 0"/></svg><svg overflow="visible" x="488.92" y="23.145"><path d="M8.828-3.125c0-.125-.312-.36-.437-.36H.906c-.125 0-.437.235-.437.36 0 .14.312.375.437.375h7.485c.125 0 .437-.234.437-.375zm0 0"/></svg><svg overflow="visible" x="498.221" y="23.145"><path d="M5.656-2.172c0-.984-.953-2.047-2.187-2.297v.266c.984-.328 1.86-1.297 1.86-2.234 0-.985-1.235-1.782-2.391-1.782-1.204 0-2.313.844-2.313 1.75 0 .39.469.75.813.75.375 0 .796-.39.796-.734 0-.594-.75-.734-.656-.734.234-.36.89-.47 1.313-.47.484 0 .953.126.953 1.204 0 .14.031.734-.281 1.266-.36.578-.626.578-.922.578a4.76 4.76 0 01-.47.046c-.093.016-.374.157-.374.266 0 .14.281.266.484.266h.531c.985 0 1.22.687 1.22 1.86 0 1.624-.626 1.843-1.157 1.843-.516 0-1.266-.172-1.531-.61.125.016.687-.375.687-.828 0-.437-.515-.796-.86-.796-.28 0-.874.296-.874.812C.297-.656 1.609.266 2.922.266c1.453 0 2.734-1.22 2.734-2.438zm0 0"/></svg><svg overflow="visible" x="518.808" y="23.145"><path d="M5.656-2.172c0-.984-.953-2.047-2.187-2.297v.266c.984-.328 1.86-1.297 1.86-2.234 0-.985-1.235-1.782-2.391-1.782-1.204 0-2.313.844-2.313 1.75 0 .39.469.75.813.75.375 0 .796-.39.796-.734 0-.594-.75-.734-.656-.734.234-.36.89-.47 1.313-.47.484 0 .953.126.953 1.204 0 .14.031.734-.281 1.266-.36.578-.626.578-.922.578a4.76 4.76 0 01-.47.046c-.093.016-.374.157-.374.266 0 .14.281.266.484.266h.531c.985 0 1.22.687 1.22 1.86 0 1.624-.626 1.843-1.157 1.843-.516 0-1.266-.172-1.531-.61.125.016.687-.375.687-.828 0-.437-.515-.796-.86-.796-.28 0-.874.296-.874.812C.297-.656 1.609.266 2.922.266c1.453 0 2.734-1.22 2.734-2.438zm0 0"/></svg><svg overflow="visible" x="544.045" y="23.145"><path d="M5.688-3.953c0-.953-.063-1.922-.47-2.797-.562-1.156-1.734-1.469-2.234-1.469-.718 0-1.796.438-2.28 1.547-.376.828-.438 1.766-.438 2.719 0 .89.109 2.062.593 2.969.516.968 1.532 1.25 2.11 1.25.656 0 1.75-.391 2.281-1.516.375-.828.438-1.766.438-2.703zm-1.391-.14c0 .89 0 1.702-.125 2.468C4-.485 3.516-.265 2.969-.265 2.516-.266 2-.438 1.78-1.579c-.125-.719-.125-1.813-.125-2.516 0-.765 0-1.562.094-2.203.219-1.422.922-1.406 1.219-1.406.406 0 .984.094 1.219 1.266.109.671.109 1.578.109 2.343zm0 0"/></svg><svg overflow="visible" x="564.632" y="23.145"><path d="M5.688-3.953c0-.953-.063-1.922-.47-2.797-.562-1.156-1.734-1.469-2.234-1.469-.718 0-1.796.438-2.28 1.547-.376.828-.438 1.766-.438 2.719 0 .89.109 2.062.593 2.969.516.968 1.532 1.25 2.11 1.25.656 0 1.75-.391 2.281-1.516.375-.828.438-1.766.438-2.703zm-1.391-.14c0 .89 0 1.702-.125 2.468C4-.485 3.516-.265 2.969-.265 2.516-.266 2-.438 1.78-1.579c-.125-.719-.125-1.813-.125-2.516 0-.765 0-1.562.094-2.203.219-1.422.922-1.406 1.219-1.406.406 0 .984.094 1.219 1.266.109.671.109 1.578.109 2.343zm0 0"/></svg><svg overflow="visible" x="493.57" y="37.591"><path d="M5.656-2.172c0-.984-.953-2.047-2.187-2.297v.266c.984-.328 1.86-1.297 1.86-2.234 0-.985-1.235-1.782-2.391-1.782-1.204 0-2.313.844-2.313 1.75 0 .39.469.75.813.75.375 0 .796-.39.796-.734 0-.594-.75-.734-.656-.734.234-.36.89-.47 1.313-.47.484 0 .953.126.953 1.204 0 .14.031.734-.281 1.266-.36.578-.626.578-.922.578a4.76 4.76 0 01-.47.046c-.093.016-.374.157-.374.266 0 .14.281.266.484.266h.531c.985 0 1.22.687 1.22 1.86 0 1.624-.626 1.843-1.157 1.843-.516 0-1.266-.172-1.531-.61.125.016.687-.375.687-.828 0-.437-.515-.796-.86-.796-.28 0-.874.296-.874.812C.297-.656 1.609.266 2.922.266c1.453 0 2.734-1.22 2.734-2.438zm0 0"/></svg><svg overflow="visible" x="514.157" y="37.591"><path d="M8.828-3.125c0-.125-.312-.36-.437-.36H.906c-.125 0-.437.235-.437.36 0 .14.312.375.437.375h7.485c.125 0 .437-.234.437-.375zm0 0"/></svg><svg overflow="visible" x="523.458" y="37.591"><path d="M5.656-2.563c0-1.53-1.25-2.796-2.578-2.796-.812 0-1.469.734-1.703 1.312h.39v-.297c0-3.015 1.298-3.312 1.907-3.312.281 0 .64.031.75.203.125 0-.563.14-.563.672 0 .375.485.687.75.687.204 0 .75-.234.75-.703 0-.719-.718-1.422-1.718-1.422-1.532 0-3.344 1.672-3.344 4.313C.297-.72 1.89.266 3 .266c1.328 0 2.656-1.25 2.656-2.829zm-1.468-.015c0 .562 0 1.172-.204 1.594l.063-.094c-.36.719-.766.75-1.047.75-.75 0-.922-.594-.984-.766-.22-.562-.22-1.531-.22-1.734 0-.938.188-2 1.266-2 .188 0 .594-.031.97.703l-.063-.094c.219.438.219 1.047.219 1.64zm0 0"/></svg><svg overflow="visible" x="544.045" y="37.591"><path d="M5.656-2.172c0-.984-.953-2.047-2.187-2.297v.266c.984-.328 1.86-1.297 1.86-2.234 0-.985-1.235-1.782-2.391-1.782-1.204 0-2.313.844-2.313 1.75 0 .39.469.75.813.75.375 0 .796-.39.796-.734 0-.594-.75-.734-.656-.734.234-.36.89-.47 1.313-.47.484 0 .953.126.953 1.204 0 .14.031.734-.281 1.266-.36.578-.626.578-.922.578a4.76 4.76 0 01-.47.046c-.093.016-.374.157-.374.266 0 .14.281.266.484.266h.531c.985 0 1.22.687 1.22 1.86 0 1.624-.626 1.843-1.157 1.843-.516 0-1.266-.172-1.531-.61.125.016.687-.375.687-.828 0-.437-.515-.796-.86-.796-.28 0-.874.296-.874.812C.297-.656 1.609.266 2.922.266c1.453 0 2.734-1.22 2.734-2.438zm0 0"/></svg><svg overflow="visible" x="564.644" y="37.591"><path d="M5.688-3.953c0-.953-.063-1.922-.47-2.797-.562-1.156-1.734-1.469-2.234-1.469-.718 0-1.796.438-2.28 1.547-.376.828-.438 1.766-.438 2.719 0 .89.109 2.062.593 2.969.516.968 1.532 1.25 2.11 1.25.656 0 1.75-.391 2.281-1.516.375-.828.438-1.766.438-2.703zm-1.391-.14c0 .89 0 1.702-.125 2.468C4-.485 3.516-.265 2.969-.265 2.516-.266 2-.438 1.78-1.579c-.125-.719-.125-1.813-.125-2.516 0-.765 0-1.562.094-2.203.219-1.422.922-1.406 1.219-1.406.406 0 .984.094 1.219 1.266.109.671.109 1.578.109 2.343zm0 0"/></svg><svg overflow="visible" x="488.92" y="52.037"><path d="M8.828-3.125c0-.125-.312-.36-.437-.36H.906c-.125 0-.437.235-.437.36 0 .14.312.375.437.375h7.485c.125 0 .437-.234.437-.375zm0 0"/></svg><svg overflow="visible" x="498.221" y="52.037"><path d="M5.203-.125v-.516h-.578c-1.078 0-.922 0-.922-.437v-6.703c0-.282-.187-.438-.578-.438-.766.797-1.672.766-2.266.766v.625c.438 0 1.282-.031 1.563-.172v5.922c0 .437.172.437-.906.437H.937v.672C1.547-.03 2.595-.03 3.079-.03c.469 0 1.516 0 2.125.062zm0 0"/></svg><svg overflow="visible" x="518.808" y="52.037"><path d="M5.656-2.172c0-.984-.953-2.047-2.187-2.297v.266c.984-.328 1.86-1.297 1.86-2.234 0-.985-1.235-1.782-2.391-1.782-1.204 0-2.313.844-2.313 1.75 0 .39.469.75.813.75.375 0 .796-.39.796-.734 0-.594-.75-.734-.656-.734.234-.36.89-.47 1.313-.47.484 0 .953.126.953 1.204 0 .14.031.734-.281 1.266-.36.578-.626.578-.922.578a4.76 4.76 0 01-.47.046c-.093.016-.374.157-.374.266 0 .14.281.266.484.266h.531c.985 0 1.22.687 1.22 1.86 0 1.624-.626 1.843-1.157 1.843-.516 0-1.266-.172-1.531-.61.125.016.687-.375.687-.828 0-.437-.515-.796-.86-.796-.28 0-.874.296-.874.812C.297-.656 1.609.266 2.922.266c1.453 0 2.734-1.22 2.734-2.438zm0 0"/></svg><svg overflow="visible" x="539.395" y="52.037"><path d="M8.828-3.125c0-.125-.312-.36-.437-.36H.906c-.125 0-.437.235-.437.36 0 .14.312.375.437.375h7.485c.125 0 .437-.234.437-.375zm0 0"/></svg><svg overflow="visible" x="548.696" y="52.037"><path d="M5.656-2.172c0-.984-.953-2.047-2.187-2.297v.266c.984-.328 1.86-1.297 1.86-2.234 0-.985-1.235-1.782-2.391-1.782-1.204 0-2.313.844-2.313 1.75 0 .39.469.75.813.75.375 0 .796-.39.796-.734 0-.594-.75-.734-.656-.734.234-.36.89-.47 1.313-.47.484 0 .953.126.953 1.204 0 .14.031.734-.281 1.266-.36.578-.626.578-.922.578a4.76 4.76 0 01-.47.046c-.093.016-.374.157-.374.266 0 .14.281.266.484.266h.531c.985 0 1.22.687 1.22 1.86 0 1.624-.626 1.843-1.157 1.843-.516 0-1.266-.172-1.531-.61.125.016.687-.375.687-.828 0-.437-.515-.796-.86-.796-.28 0-.874.296-.874.812C.297-.656 1.609.266 2.922.266c1.453 0 2.734-1.22 2.734-2.438zm0 0"/></svg><svg overflow="visible" x="564.632" y="52.037"><path d="M5.203-.125v-.516h-.578c-1.078 0-.922 0-.922-.437v-6.703c0-.282-.187-.438-.578-.438-.766.797-1.672.766-2.266.766v.625c.438 0 1.282-.031 1.563-.172v5.922c0 .437.172.437-.906.437H.937v.672C1.547-.03 2.595-.03 3.079-.03c.469 0 1.516 0 2.125.062zm0 0"/></svg><svg overflow="visible" x="570.621" y="19.011"><path d="M4.328-.125v-18.063H.594c-.203 0-.563.282-.563.485s.36.484.563.484h2.625V0h1.11zm0 0"/></svg><svg overflow="visible" x="570.621" y="29.179"><path d="M4.14-12.219H3.22V0h1.11v-12.219zm0 0"/></svg><svg overflow="visible" x="570.621" y="37.735"><path d="M4.14-12.219H3.22V0h1.11v-12.219zm0 0"/></svg><g><svg overflow="visible" x="570.621" y="53.88"><path d="M4.328-.125v-18.063h-1.11V-.983H.595c-.203 0-.563.296-.563.5 0 .203.36.484.563.484h3.734zm0 0"/></svg></g><g><svg overflow="visible" x="578.596" y="30.468"><path d="M2.484-3.125c0-.344-.468-.766-.828-.766-.343 0-.828.422-.828.766 0 .36.485.766.828.766.36 0 .828-.407.828-.766zm0 0"/></svg></g><g><svg overflow="visible" x="581.919" y="19.011"><path d="M7.922-17.703c0-.203-.344-.485-.547-.485H3.641V0H4.75v-17.219h2.625c.203 0 .547-.281.547-.484zm0 0"/></svg></g><g><svg overflow="visible" x="581.919" y="29.179"><path d="M4.75-.125v-12.094H3.64V0h1.11zm0 0"/></svg></g><g><svg overflow="visible" x="581.919" y="37.735"><path d="M4.75-.125v-12.094H3.64V0h1.11zm0 0"/></svg></g><g><svg overflow="visible" x="581.919" y="53.88"><path d="M7.922-.484c0-.204-.344-.5-.547-.5H4.75v-17.203H3.64V0h3.735c.203 0 .547-.281.547-.484zm0 0"/></svg></g><g><svg overflow="visible" x="589.893" y="8.7"><path d="M9.203-6.484c0-.922-.984-1.938-2.547-1.938H2.781c-.219 0-.562.125-.562.36 0 .14.312.265.547.265.156 0 .375.016.515.031.203.016.063-.078.063.063 0 .047-.016.078-.047.219L1.703-1.063c-.125.47.047.422-.89.422C.609-.64.28-.5.28-.28c0 .156.344.281.375.281l1.516-.031h.765c.266 0 .532.031.782.031.078 0 .422-.125.422-.375 0-.125-.297-.266-.516-.266-.453 0-.594.141-.594-.078 0-.062.031-.125.047-.203l.703-2.86h1.875c1.688 0 3.547-1.374 3.547-2.702zm-1.5-.297c0 .468-.187 1.406-.656 1.828-.594.547-1.172.61-1.688.61H3.891l.78-3.126c.11-.422-.062-.328.454-.328h1.156c.985 0 1.422.188 1.422 1.016zm0 0"/></svg></g><g><svg overflow="visible" x="597.568" y="11.653"><path d="M4.172-.156v-.469H3.64c-.829 0-.625.063-.625-.219v-4.64c0-.235-.235-.391-.563-.391-.578.578-1.203.531-1.75.531v.625c.406 0 1.11-.047 1.219-.11v3.985c0 .281.203.219-.625.219H.766v.64L2.469-.03l1.703.047zm0 0"/></svg></g><g><svg overflow="visible" x="589.893" y="23.145"><path d="M9.203-6.484c0-.922-.984-1.938-2.547-1.938H2.781c-.219 0-.562.125-.562.36 0 .14.312.265.547.265.156 0 .375.016.515.031.203.016.063-.078.063.063 0 .047-.016.078-.047.219L1.703-1.063c-.125.47.047.422-.89.422C.609-.64.28-.5.28-.28c0 .156.344.281.375.281l1.516-.031h.765c.266 0 .532.031.782.031.078 0 .422-.125.422-.375 0-.125-.297-.266-.516-.266-.453 0-.594.141-.594-.078 0-.062.031-.125.047-.203l.703-2.86h1.875c1.688 0 3.547-1.374 3.547-2.702zm-1.5-.297c0 .468-.187 1.406-.656 1.828-.594.547-1.172.61-1.688.61H3.891l.78-3.126c.11-.422-.062-.328.454-.328h1.156c.985 0 1.422.188 1.422 1.016zm0 0"/></svg></g><g><svg overflow="visible" x="597.568" y="26.099"><path d="M4.234-1.844H3.75c-.047.344-.063.735-.172.813-.062.047-.562 0-.687 0H1.812c.563-.5.86-.735 1.36-1.125.625-.5 1.265-1.14 1.265-1.938 0-1-1.093-1.781-2.171-1.781-1.032 0-1.954.89-1.954 1.656 0 .422.579.625.657.625.203 0 .656-.297.656-.61 0-.14-.266-.593-.422-.593.188-.437.547-.469.938-.469.843 0 1.062.5 1.062 1.172 0 .735-.453 1.203-.719 1.5l-2.03 2C.374-.516.311-.39.311 0h3.844l.313-1.844zm0 0"/></svg></g><g><svg overflow="visible" x="589.893" y="37.591"><path d="M9.203-6.484c0-.922-.984-1.938-2.547-1.938H2.781c-.219 0-.562.125-.562.36 0 .14.312.265.547.265.156 0 .375.016.515.031.203.016.063-.078.063.063 0 .047-.016.078-.047.219L1.703-1.063c-.125.47.047.422-.89.422C.609-.64.28-.5.28-.28c0 .156.344.281.375.281l1.516-.031h.765c.266 0 .532.031.782.031.078 0 .422-.125.422-.375 0-.125-.297-.266-.516-.266-.453 0-.594.141-.594-.078 0-.062.031-.125.047-.203l.703-2.86h1.875c1.688 0 3.547-1.374 3.547-2.702zm-1.5-.297c0 .468-.187 1.406-.656 1.828-.594.547-1.172.61-1.688.61H3.891l.78-3.126c.11-.422-.062-.328.454-.328h1.156c.985 0 1.422.188 1.422 1.016zm0 0"/></svg></g><g><svg overflow="visible" x="597.568" y="40.544"><path d="M4.516-1.61c0-.656-.75-1.468-1.672-1.656v.313c.89-.313 1.406-1.094 1.406-1.61 0-.656-.969-1.312-1.89-1.312-.938 0-1.86.61-1.86 1.281 0 .282.39.594.64.594.266 0 .641-.344.641-.578 0-.25-.375-.578-.297-.578.094-.11.532-.157.844-.157.375 0 .688.016.688.75 0 .344-.047.625-.266.891-.281.313-.36.281-.781.313-.203.015-.235.015-.266.015l.14.281s-.437-.109-.437-.015c0 .125.282.281.422.281h.453c.656 0 .922.297.922 1.188 0 1.046-.39 1.187-.89 1.187-.329 0-.922-.031-1.094-.266.078-.015.375-.453.375-.625 0-.265-.407-.625-.672-.625-.235 0-.672.297-.672.641C.25-.5 1.328.172 2.344.172 3.5.172 4.516-.766 4.516-1.61zm0 0"/></svg></g><g><svg overflow="visible" x="589.893" y="52.037"><path d="M9.203-6.484c0-.922-.984-1.938-2.547-1.938H2.781c-.219 0-.562.125-.562.36 0 .14.312.265.547.265.156 0 .375.016.515.031.203.016.063-.078.063.063 0 .047-.016.078-.047.219L1.703-1.063c-.125.47.047.422-.89.422C.609-.64.28-.5.28-.28c0 .156.344.281.375.281l1.516-.031h.765c.266 0 .532.031.782.031.078 0 .422-.125.422-.375 0-.125-.297-.266-.516-.266-.453 0-.594.141-.594-.078 0-.062.031-.125.047-.203l.703-2.86h1.875c1.688 0 3.547-1.374 3.547-2.702zm-1.5-.297c0 .468-.187 1.406-.656 1.828-.594.547-1.172.61-1.688.61H3.891l.78-3.126c.11-.422-.062-.328.454-.328h1.156c.985 0 1.422.188 1.422 1.016zm0 0"/></svg></g><g><svg overflow="visible" x="597.568" y="54.99"><path d="M4.64-1.531V-2h-.937v-3.563c0-.187-.203-.406-.39-.406-.094 0-.282.063-.36.172L.125-1.844v.469h2.453v.531c0 .281.203.219-.469.219h-.437v.64L3.14-.03l1.468.047v-.641h-.437c-.672 0-.469.063-.469-.219v-.531h.938zM2.845-2H.969l2.015-2.781-.343-.125V-2zm0 0"/></svg></g><g><svg overflow="visible" x="602.828" y="19.011"><path d="M4.328-.125v-18.063H.594c-.203 0-.563.282-.563.485s.36.484.563.484h2.625V0h1.11zm0 0"/></svg></g><g><svg overflow="visible" x="602.828" y="29.179"><path d="M4.14-12.219H3.22V0h1.11v-12.219zm0 0"/></svg></g><g><svg overflow="visible" x="602.828" y="37.735"><path d="M4.14-12.219H3.22V0h1.11v-12.219zm0 0"/></svg></g><g><svg overflow="visible" x="602.828" y="53.88"><path d="M4.328-.125v-18.063h-1.11V-.983H.595c-.203 0-.563.296-.563.5 0 .203.36.484.563.484h3.734zm0 0"/></svg></g></svg>