<svg xmlns="http://www.w3.org/2000/svg" xmlns:xlink="http://www.w3.org/1999/xlink" width="313px" height="55px" viewBox="0 0 235 41"><svg overflow="visible" x="-.676" y="23.398"><path d="M8.266-4.078a1.419 1.419 0 01-.047-.36c0-.109.015-.234.062-.484h-7.5c.063.25.063.375.063.484 0 .125 0 .235-.063.5h7.5zm0 2.625a1.332 1.332 0 01-.047-.36c0-.109.015-.234.062-.484h-7.5c.063.25.063.375.063.485 0 .125 0 .25-.063.5h7.5zm0 0"/></svg><svg overflow="visible" x="11.722" y="23.398"><path d="M4.406-9.766c-.015-.078-.031-.156-.031-.234 0-.094.016-.172.078-.375H1.375V4.141h3.078c-.062-.204-.078-.297-.078-.375 0-.079.016-.172.078-.375H2.437V-9.641h2.016zm0 0"/></svg><svg overflow="visible" x="17.027" y="23.406"><path d="M5.125-.094v-.484l-.75-.047c-.656-.031-.64-.031-.64-.656v-7.172l-.313-.125c-.875.469-1.61.781-2.86 1.219l.125.718h.235l1.547-.687.031-.016c.063 0-.047-.015-.047.266v5.797c0 .625.016.625-.64.656L1-.578v.625L3.125 0l2 .047zm0 0"/></svg><svg overflow="visible" x="32.963" y="23.406"><path d="M3.703-5.516c-.453.047-.86.063-1.156.063.172-.984.297-1.578.531-2.25l-.25-.328a7.16 7.16 0 01-1.094.531l-.296 2.031c-.391.203-.704.328-1.063.407l-.047.406h1l-.64 3.25C.625-1.11.53-.813.53-.5c0 .297.266.61.5.61.422 0 .922-.282 1.86-1.032.218-.172.14-.125.437-.36l-.25-.437-.672.469c-.36.25-.484.313-.625.313-.093 0-.031.046-.031-.11 0-.297.156-1.234.516-3l.14-.61h1.266l.203-.89zm0 0"/></svg><svg overflow="visible" x="46.963" y="23.406"><path d="M3.703-5.516c-.453.047-.86.063-1.156.063.172-.984.297-1.578.531-2.25l-.25-.328a7.16 7.16 0 01-1.094.531l-.296 2.031c-.391.203-.704.328-1.063.407l-.047.406h1l-.64 3.25C.625-1.11.53-.813.53-.5c0 .297.266.61.5.61.422 0 .922-.282 1.86-1.032.218-.172.14-.125.437-.36l-.25-.437-.672.469c-.36.25-.484.313-.625.313-.093 0-.031.046-.031-.11 0-.297.156-1.234.516-3l.14-.61h1.266l.203-.89zm0 0"/></svg><svg overflow="visible" x="51.011" y="19.174"><path d="M4.75-.11c-.016-.187-.016-.265-.016-.39s0-.203.032-.547l-3.141.094 1.5-1.469c.938-.906 1.266-1.5 1.266-2.156 0-1.016-.891-1.781-2.125-1.781-.688 0-1.282.218-1.782.687L.297-4.266h.547l.172-.546c.156-.516.359-.594 1-.594.828 0 1.203.343 1.203 1.093 0 .657-.36 1.22-1.453 2.282L.078-.391v.422L2.391 0l2.375.031zm0 0"/></svg><svg overflow="visible" x="56.508" y="23.398"><path d="M3.906 4v-14.375H.828c.063.203.078.281.078.375 0 .078-.015.156-.078.36h2.016V3.39H.828c.063.204.078.297.078.376 0 .078-.015.171-.078.375h3.078zm0 0"/></svg><svg overflow="visible" x="64.458" y="23.398"><path d="M2.516-3.125c0-.422-.407-.844-.844-.844-.422 0-.86.422-.86.844 0 .438.438.86.86.86.437 0 .844-.422.844-.86zm0 0"/></svg><svg overflow="visible" x="70.466" y="15.302"><path d="M5.078-14.781H1.562V0h1.235v-14.031h2.469c-.079-.203-.094-.281-.094-.375 0-.078.016-.172.094-.375zm0 0"/></svg><svg overflow="visible" x="70.466" y="22.647"><path d="M2.672-9.938h-1.11V0h1.235v-9.938zm0 0"/></svg><svg overflow="visible" x="70.466" y="27.855"><path d="M2.672-9.938h-1.11V0h1.235v-9.938zm0 0"/></svg><svg overflow="visible" x="70.466" y="40.03"><path d="M5.219-.125a.648.648 0 01-.047-.25c0-.078.016-.156.094-.36h-2.47V-14.78H1.564V0h3.703zm0 0"/></svg><svg overflow="visible" x="76.694" y="8.745"><path d="M5.125-.094v-.484l-.75-.047c-.656-.031-.64-.031-.64-.656v-7.172l-.313-.125c-.875.469-1.61.781-2.86 1.219l.125.718h.235l1.547-.687.031-.016c.063 0-.047-.015-.047.266v5.797c0 .625.016.625-.64.656L1-.578v.625L3.125 0l2 .047zm0 0"/></svg><svg overflow="visible" x="92.63" y="8.745"><path d="M5.688-4.5c0-2.625-.907-4-2.547-4C1.297-8.5.203-6.89.203-4c0 1.39.281 2.703.703 3.281.422.594 1.203.953 1.938.953 1.812 0 2.844-1.687 2.844-4.734zm-1.282.594C4.406-1.36 4.094-.437 3-.437c-1.156 0-1.516-1.079-1.516-4 0-2.516.313-3.375 1.438-3.375 1.172 0 1.484 1.03 1.484 3.906zm0 0"/></svg><svg overflow="visible" x="110.982" y="8.745"><path d="M5.688-4.5c0-2.625-.907-4-2.547-4C1.297-8.5.203-6.89.203-4c0 1.39.281 2.703.703 3.281.422.594 1.203.953 1.938.953 1.812 0 2.844-1.687 2.844-4.734zm-1.282.594C4.406-1.36 4.094-.437 3-.437c-1.156 0-1.516-1.079-1.516-4 0-2.516.313-3.375 1.438-3.375 1.172 0 1.484 1.03 1.484 3.906zm0 0"/></svg><svg overflow="visible" x="76.694" y="23.19"><path d="M5.688-4.5c0-2.625-.907-4-2.547-4C1.297-8.5.203-6.89.203-4c0 1.39.281 2.703.703 3.281.422.594 1.203.953 1.938.953 1.812 0 2.844-1.687 2.844-4.734zm-1.282.594C4.406-1.36 4.094-.437 3-.437c-1.156 0-1.516-1.079-1.516-4 0-2.516.313-3.375 1.438-3.375 1.172 0 1.484 1.03 1.484 3.906zm0 0"/></svg><svg overflow="visible" x="92.965" y="23.19"><path d="M5.063-5.875l-.204-.203-.375.36c-.125.124-.14.14-.296.14-.407 0-1.032-.094-1.61-.25-.312-.094-.625-.203-.953-.203-.203 0-.438.047-.844.156L.328-4.187h.516l.36-.704c.124-.03.234-.046.39-.046s.297.015.531.062c.406.078.719.125.969.125.437 0 .812-.11 1.203-.313l-.203-.203L-.172-.422l.203.594c.5-.406.735-.484 1.157-.484.296 0 .625.046 1.25.203.718.171 1.093.234 1.406.234.156 0 .25-.016.703-.14.156-.844.266-1.25.422-1.938h-.516l-.312.844c-.094.218-.079.171-.329.171-.265 0-.53-.078-.796-.14-.391-.078-.797-.14-1.032-.14-.375 0-.703.077-1.14.25l.094.234 4.078-4.61.093-.484zm0 0"/></svg><svg overflow="visible" x="110.982" y="23.19"><path d="M5.688-4.5c0-2.625-.907-4-2.547-4C1.297-8.5.203-6.89.203-4c0 1.39.281 2.703.703 3.281.422.594 1.203.953 1.938.953 1.812 0 2.844-1.687 2.844-4.734zm-1.282.594C4.406-1.36 4.094-.437 3-.437c-1.156 0-1.516-1.079-1.516-4 0-2.516.313-3.375 1.438-3.375 1.172 0 1.484 1.03 1.484 3.906zm0 0"/></svg><svg overflow="visible" x="76.694" y="37.852"><path d="M5.688-4.5c0-2.625-.907-4-2.547-4C1.297-8.5.203-6.89.203-4c0 1.39.281 2.703.703 3.281.422.594 1.203.953 1.938.953 1.812 0 2.844-1.687 2.844-4.734zm-1.282.594C4.406-1.36 4.094-.437 3-.437c-1.156 0-1.516-1.079-1.516-4 0-2.516.313-3.375 1.438-3.375 1.172 0 1.484 1.03 1.484 3.906zm0 0"/></svg><svg overflow="visible" x="92.63" y="37.852"><path d="M5.688-4.5c0-2.625-.907-4-2.547-4C1.297-8.5.203-6.89.203-4c0 1.39.281 2.703.703 3.281.422.594 1.203.953 1.938.953 1.812 0 2.844-1.687 2.844-4.734zm-1.282.594C4.406-1.36 4.094-.437 3-.437c-1.156 0-1.516-1.079-1.516-4 0-2.516.313-3.375 1.438-3.375 1.172 0 1.484 1.03 1.484 3.906zm0 0"/></svg><svg overflow="visible" x="108.567" y="37.852"><path d="M5.063-5.875l-.204-.203-.375.36c-.125.124-.14.14-.296.14-.407 0-1.032-.094-1.61-.25-.312-.094-.625-.203-.953-.203-.203 0-.438.047-.844.156L.328-4.187h.516l.36-.704c.124-.03.234-.046.39-.046s.297.015.531.062c.406.078.719.125.969.125.437 0 .812-.11 1.203-.313l-.203-.203L-.172-.422l.203.594c.5-.406.735-.484 1.157-.484.296 0 .625.046 1.25.203.718.171 1.093.234 1.406.234.156 0 .25-.016.703-.14.156-.844.266-1.25.422-1.938h-.516l-.312.844c-.094.218-.079.171-.329.171-.265 0-.53-.078-.796-.14-.391-.078-.797-.14-1.032-.14-.375 0-.703.077-1.14.25l.094.234 4.078-4.61.093-.484zm0 0"/></svg><svg overflow="visible" x="113.883" y="33.62"><path d="M4.75-.11c-.016-.187-.016-.265-.016-.39s0-.203.032-.547l-3.141.094 1.5-1.469c.938-.906 1.266-1.5 1.266-2.156 0-1.016-.891-1.781-2.125-1.781-.688 0-1.282.218-1.782.687L.297-4.266h.547l.172-.546c.156-.516.359-.594 1-.594.828 0 1.203.343 1.203 1.093 0 .657-.36 1.22-1.453 2.282L.078-.391v.422L2.391 0l2.375.031zm0 0"/></svg><svg overflow="visible" x="119.379" y="15.302"><path d="M4.656-.125v-14.656H.953c.078.203.094.297.094.375 0 .094-.016.172-.094.375h2.469V0h1.234zm0 0"/></svg><svg overflow="visible" x="119.379" y="22.647"><path d="M4.656-.125v-9.813H3.422V0h1.234zm0 0"/></svg><svg overflow="visible" x="119.379" y="27.855"><path d="M4.656-.125v-9.813H3.422V0h1.234zm0 0"/></svg><svg overflow="visible" x="119.379" y="40.03"><path d="M4.656-.125v-14.656H3.422V-.734H.953c.078.203.094.28.094.359 0 .094-.016.172-.094.375h3.703zm0 0"/></svg><svg overflow="visible" x="128.265" y="23.398"><path d="M2.516-3.125c0-.422-.407-.844-.844-.844-.422 0-.86.422-.86.844 0 .438.438.86.86.86.437 0 .844-.422.844-.86zm0 0"/></svg><svg overflow="visible" x="134.269" y="15.405"><path d="M5.078-14.781H1.562V0h1.235v-14.031h2.469c-.079-.203-.094-.281-.094-.375 0-.078.016-.172.094-.375zm0 0"/></svg><svg overflow="visible" x="134.269" y="22.7"><path d="M2.672-9.938h-1.11V0h1.235v-9.938zm0 0"/></svg><svg overflow="visible" x="134.269" y="27.802"><path d="M2.672-9.938h-1.11V0h1.235v-9.938zm0 0"/></svg><svg overflow="visible" x="134.269" y="39.927"><path d="M5.219-.125a.648.648 0 01-.047-.25c0-.078.016-.156.094-.36h-2.47V-14.78H1.564V0h3.703zm0 0"/></svg><svg overflow="visible" x="145.041" y="8.853"><path d="M5.125-.094v-.484l-.75-.047c-.656-.031-.64-.031-.64-.656v-7.172l-.313-.125c-.875.469-1.61.781-2.86 1.219l.125.718h.235l1.547-.687.031-.016c.063 0-.047-.015-.047.266v5.797c0 .625.016.625-.64.656L1-.578v.625L3.125 0l2 .047zm0 0"/></svg><svg overflow="visible" x="170.063" y="8.853"><path d="M5.688-4.5c0-2.625-.907-4-2.547-4C1.297-8.5.203-6.89.203-4c0 1.39.281 2.703.703 3.281.422.594 1.203.953 1.938.953 1.812 0 2.844-1.687 2.844-4.734zm-1.282.594C4.406-1.36 4.094-.437 3-.437c-1.156 0-1.516-1.079-1.516-4 0-2.516.313-3.375 1.438-3.375 1.172 0 1.484 1.03 1.484 3.906zm0 0"/></svg><svg overflow="visible" x="190.542" y="8.853"><path d="M5.688-4.5c0-2.625-.907-4-2.547-4C1.297-8.5.203-6.89.203-4c0 1.39.281 2.703.703 3.281.422.594 1.203.953 1.938.953 1.812 0 2.844-1.687 2.844-4.734zm-1.282.594C4.406-1.36 4.094-.437 3-.437c-1.156 0-1.516-1.079-1.516-4 0-2.516.313-3.375 1.438-3.375 1.172 0 1.484 1.03 1.484 3.906zm0 0"/></svg><svg overflow="visible" x="140.498" y="23.298"><path d="M8.266-2.766a1.332 1.332 0 01-.047-.359c0-.11.015-.234.062-.484h-7.5c.063.25.063.375.063.484 0 .125 0 .25-.063.5h7.5zm0 0"/></svg><svg overflow="visible" x="149.584" y="23.298"><path d="M5.719-.094c-.016-.25-.016-.375-.016-.547 0-.14 0-.265.031-.671l-4.28.125.093.234 2.187-2.313C4.891-4.5 5.281-5.25 5.281-6.14 5.281-7.516 4.22-8.5 2.703-8.5c-.86 0-1.562.281-2.172.906L.312-5.766h.594l.188-.687c.203-.688.5-.86 1.297-.86 1.03 0 1.546.516 1.546 1.532 0 .89-.468 1.687-1.828 3.11L.047-.454v.5L2.859 0l2.875.047zm0 0"/></svg><svg overflow="visible" x="170.063" y="23.298"><path d="M5.719-.094c-.016-.25-.016-.375-.016-.547 0-.14 0-.265.031-.671l-4.28.125.093.234 2.187-2.313C4.891-4.5 5.281-5.25 5.281-6.14 5.281-7.516 4.22-8.5 2.703-8.5c-.86 0-1.562.281-2.172.906L.312-5.766h.594l.188-.687c.203-.688.5-.86 1.297-.86 1.03 0 1.546.516 1.546 1.532 0 .89-.468 1.687-1.828 3.11L.047-.454v.5L2.859 0l2.875.047zm0 0"/></svg><svg overflow="visible" x="190.542" y="23.298"><path d="M5.688-4.5c0-2.625-.907-4-2.547-4C1.297-8.5.203-6.89.203-4c0 1.39.281 2.703.703 3.281.422.594 1.203.953 1.938.953 1.812 0 2.844-1.687 2.844-4.734zm-1.282.594C4.406-1.36 4.094-.437 3-.437c-1.156 0-1.516-1.079-1.516-4 0-2.516.313-3.375 1.438-3.375 1.172 0 1.484 1.03 1.484 3.906zm0 0"/></svg><svg overflow="visible" x="145.041" y="37.744"><path d="M5.125-.094v-.484l-.75-.047c-.656-.031-.64-.031-.64-.656v-7.172l-.313-.125c-.875.469-1.61.781-2.86 1.219l.125.718h.235l1.547-.687.031-.016c.063 0-.047-.015-.047.266v5.797c0 .625.016.625-.64.656L1-.578v.625L3.125 0l2 .047zm0 0"/></svg><svg overflow="visible" x="165.52" y="37.744"><path d="M8.266-2.766a1.332 1.332 0 01-.047-.359c0-.11.015-.234.062-.484h-7.5c.063.25.063.375.063.484 0 .125 0 .25-.063.5h7.5zm0 0"/></svg><svg overflow="visible" x="174.606" y="37.744"><path d="M5.719-.094c-.016-.25-.016-.375-.016-.547 0-.14 0-.265.031-.671l-4.28.125.093.234 2.187-2.313C4.891-4.5 5.281-5.25 5.281-6.14 5.281-7.516 4.22-8.5 2.703-8.5c-.86 0-1.562.281-2.172.906L.312-5.766h.594l.188-.687c.203-.688.5-.86 1.297-.86 1.03 0 1.546.516 1.546 1.532 0 .89-.468 1.687-1.828 3.11L.047-.454v.5L2.859 0l2.875.047zm0 0"/></svg><svg overflow="visible" x="190.542" y="37.744"><path d="M5.125-.094v-.484l-.75-.047c-.656-.031-.64-.031-.64-.656v-7.172l-.313-.125c-.875.469-1.61.781-2.86 1.219l.125.718h.235l1.547-.687.031-.016c.063 0-.047-.015-.047.266v5.797c0 .625.016.625-.64.656L1-.578v.625L3.125 0l2 .047zm0 0"/></svg><svg overflow="visible" x="196.528" y="15.405"><path d="M4.656-.125v-14.656H.953c.078.203.094.297.094.375 0 .094-.016.172-.094.375h2.469V0h1.234zm0 0"/></svg><svg overflow="visible" x="196.528" y="22.7"><path d="M4.656-.125v-9.813H3.422V0h1.234zm0 0"/></svg><svg overflow="visible" x="196.528" y="27.802"><path d="M4.656-.125v-9.813H3.422V0h1.234zm0 0"/></svg><svg overflow="visible" x="196.528" y="39.927"><path d="M4.656-.125v-14.656H3.422V-.734H.953c.078.203.094.28.094.359 0 .094-.016.172-.094.375h3.703zm0 0"/></svg><svg overflow="visible" x="205.414" y="23.398"><path d="M2.516-3.125c0-.422-.407-.844-.844-.844-.422 0-.86.422-.86.844 0 .438.438.86.86.86.437 0 .844-.422.844-.86zm0 0"/></svg><svg overflow="visible" x="211.418" y="15.405"><path d="M5.078-14.781H1.562V0h1.235v-14.031h2.469c-.079-.203-.094-.281-.094-.375 0-.078.016-.172.094-.375zm0 0"/></svg><svg overflow="visible" x="211.418" y="22.7"><path d="M2.672-9.938h-1.11V0h1.235v-9.938zm0 0"/></svg><svg overflow="visible" x="211.418" y="27.802"><path d="M2.672-9.938h-1.11V0h1.235v-9.938zm0 0"/></svg><svg overflow="visible" x="211.418" y="39.927"><path d="M5.219-.125a.648.648 0 01-.047-.25c0-.078.016-.156.094-.36h-2.47V-14.78H1.564V0h3.703zm0 0"/></svg><svg overflow="visible" x="217.647" y="8.852"><path d="M7.234-6.594c0-1.218-1.265-1.937-2.312-1.937-.547 0-1.094.031-1.64.031l-2.126-.047-.062.61.812.03c.297 0 .282-.03.282.188 0 .172-.047.532-.11.907l-.89 5.187C1-.531 1.125-.641.64-.594l-.61.031-.093.61L1.688 0l1.78.047.063-.61-.922-.03c-.312-.016-.296.015-.296-.235 0-.11 0-.188.046-.422l.97-5.813-.032.094s.078-.343.14-.578c.016-.062.047-.172.063-.203.328-.063.516-.094.75-.094 1.219 0 1.656.39 1.656 1.516 0 1.281-.718 2.203-1.765 2.203-.266 0-.5-.063-1.11-.281l.047.625c.578.281.813.344 1.172.344 1.531 0 2.984-1.532 2.984-3.157zm0 0"/></svg><svg overflow="visible" x="224.951" y="11.626"><path d="M4.266-.11V-.5l-.657-.031c-.515-.031-.468.015-.468-.453v-5.329l-.282-.093c-.625.297-1.312.562-2.375.906l.11.594h.234l1.25-.516.031-.016c.047 0-.078-.046-.078.172v4.282c0 .468.047.421-.469.453L.86-.5v.531L2.594 0l1.672.031zm0 0"/></svg><svg overflow="visible" x="217.647" y="23.298"><path d="M7.234-6.594c0-1.218-1.265-1.937-2.312-1.937-.547 0-1.094.031-1.64.031l-2.126-.047-.062.61.812.03c.297 0 .282-.03.282.188 0 .172-.047.532-.11.907l-.89 5.187C1-.531 1.125-.641.64-.594l-.61.031-.093.61L1.688 0l1.78.047.063-.61-.922-.03c-.312-.016-.296.015-.296-.235 0-.11 0-.188.046-.422l.97-5.813-.032.094s.078-.343.14-.578c.016-.062.047-.172.063-.203.328-.063.516-.094.75-.094 1.219 0 1.656.39 1.656 1.516 0 1.281-.718 2.203-1.765 2.203-.266 0-.5-.063-1.11-.281l.047.625c.578.281.813.344 1.172.344 1.531 0 2.984-1.532 2.984-3.157zm0 0"/></svg><svg overflow="visible" x="224.951" y="26.072"><path d="M4.75-.11c-.016-.187-.016-.265-.016-.39s0-.203.032-.547l-3.141.094 1.5-1.469c.938-.906 1.266-1.5 1.266-2.156 0-1.016-.891-1.781-2.125-1.781-.688 0-1.282.218-1.782.687L.297-4.266h.547l.172-.546c.156-.516.359-.594 1-.594.828 0 1.203.343 1.203 1.093 0 .657-.36 1.22-1.453 2.282L.078-.391v.422L2.391 0l2.375.031zm0 0"/></svg><svg overflow="visible" x="217.647" y="37.744"><path d="M7.234-6.594c0-1.218-1.265-1.937-2.312-1.937-.547 0-1.094.031-1.64.031l-2.126-.047-.062.61.812.03c.297 0 .282-.03.282.188 0 .172-.047.532-.11.907l-.89 5.187C1-.531 1.125-.641.64-.594l-.61.031-.093.61L1.688 0l1.78.047.063-.61-.922-.03c-.312-.016-.296.015-.296-.235 0-.11 0-.188.046-.422l.97-5.813-.032.094s.078-.343.14-.578c.016-.062.047-.172.063-.203.328-.063.516-.094.75-.094 1.219 0 1.656.39 1.656 1.516 0 1.281-.718 2.203-1.765 2.203-.266 0-.5-.063-1.11-.281l.047.625c.578.281.813.344 1.172.344 1.531 0 2.984-1.532 2.984-3.157zm0 0"/></svg><svg overflow="visible" x="224.951" y="40.518"><path d="M4.703-2.11c0-.421-.25-.89-.594-1.124a2.225 2.225 0 00-.703-.282c.531-.375.86-.875.86-1.406 0-.781-.86-1.437-1.938-1.437-.64 0-1.203.203-1.687.656L.312-4.406h.594l.219-.625c.11-.297.563-.469 1.063-.469.624 0 .984.328.984.89 0 .673-.406 1.094-1.094 1.094-.078 0-.36.204-.36.204l-.265-.094-.125.515.203.157c.407-.172.594-.22.844-.22.813 0 1.11.329 1.11 1.142 0 .906-.422 1.359-1.329 1.359-.437 0-.719-.094-1.015-.344C.906-.984.828-1.094.578-1.75l-.531.188c.234.609.312.937.375 1.468C1.078.11 1.5.172 1.859.172c.782 0 1.766-.422 2.297-1.016.328-.375.547-.86.547-1.265zm0 0"/></svg><svg overflow="visible" x="230.448" y="15.405"><path d="M4.656-.125v-14.656H.953c.078.203.094.297.094.375 0 .094-.016.172-.094.375h2.469V0h1.234zm0 0"/></svg><svg overflow="visible" x="230.448" y="22.7"><path d="M4.656-.125v-9.813H3.422V0h1.234zm0 0"/></svg><g><svg overflow="visible" x="230.448" y="27.802"><path d="M4.656-.125v-9.813H3.422V0h1.234zm0 0"/></svg></g><g><svg overflow="visible" x="230.448" y="39.927"><path d="M4.656-.125v-14.656H3.422V-.734H.953c.078.203.094.28.094.359 0 .094-.016.172-.094.375h3.703zm0 0"/></svg></g></svg>