<svg xmlns="http://www.w3.org/2000/svg" xmlns:xlink="http://www.w3.org/1999/xlink" width="308" height="53px" viewBox="0 0 231 40"><svg overflow="visible" x="-1.129" y="22.942"><path d="M9.219 14.5c0-.125-.281-.39-.39-.422-1.657-.61-2.642-2.281-2.642-3.75V1.36c0-1.75-1.484-3.671-3.03-4.484 1.546-.797 3.03-2.719 3.03-4.484v-8.954c0-1.468.985-3.14 2.641-3.75.11-.046.39-.296.39-.421 0-.172-.343-.453-.5-.453-.046 0-.077.015-.109.03-2.015.735-4.03 2.782-4.03 4.595v8.953c0 1.64-.954 3.468-2.626 4.078-.11.031-.406.281-.406.406 0 .14.297.39.406.422 1.672.61 2.625 2.422 2.625 4.062v8.97c0 1.796 2.016 3.858 4.031 4.593.032 0 .063.015.11.015.156 0 .5-.265.5-.437zm0 0"/></svg><svg overflow="visible" x="16.744" y="13.156"><path d="M-.844-7.484a13.34 13.34 0 00-2.312-1.594c-.922.5-1.656 1.015-2.39 1.672l.265.437a35.74 35.74 0 002.125-1.015c.515.28 1.344.671 2.11 1.015l.265-.437zm0 0"/></svg><svg overflow="visible" x="9.667" y="13.156"><path d="M6.484-4.625c0-.625-.89-.922-1.296-.922-.688 0-1.25.672-1.235.61-.125-.36-.969-.61-1.312-.61-1.235 0-2.125 1.672-2.125 1.969 0 .125.468.219.468.219l-.125.03c.094 0 .329-.155.344-.25.406-1.28 1.016-1.437 1.422-1.437.219 0 .438-.03.438.672 0 .36-.204 1.172-.641 2.844-.203.734-.406 1.11-.938 1.11-.078 0-.218.03-.218.03-.079.016.375-.374.375-.703 0-.328-.454-.546-.641-.546-.36 0-.86.437-.86.828 0 .547.797.906 1.329.906.797 0 1.36-.86 1.39-.938l-.343-.093c.156.437.78 1.031 1.5 1.031 1.234 0 2.109-1.672 2.109-1.969 0-.11-.297-.25-.344-.25-.11 0-.328.188-.36.266-.39 1.281-1 1.437-1.374 1.437-.469 0-.469-.25-.469-.656 0-.266.063-.531.203-1.062l.406-1.625c.063-.313.157-1.282.985-1.282a.604.604 0 00.187-.046c.079 0-.359.421-.359.718 0 .188.328.547.656.547.266 0 .828-.344.828-.828zm0 0"/></svg><svg overflow="visible" x="16.505" y="13.156"><path d="M4.156 2.719c0-.047-.078-.172-.11-.203-1.234-.922-2-3.22-2-5.141v-1c0-1.906.767-4.203 2-5.14a.457.457 0 00.11-.188c0-.063-.25-.25-.312-.25a1.01 1.01 0 00-.203.062C2.312-8.156 1-5.67 1-3.625v1C1-.578 2.313 1.906 3.64 2.906c.016.016.188.063.204.063.062 0 .312-.203.312-.25zm0 0"/></svg><svg overflow="visible" x="21.155" y="13.156"><path d="M4.14-5.156c0-.125-.312-.266-.53-.266H2.78c.39-1.562.453-1.797.453-1.875 0-.203-.328-.453-.53-.453-.032 0-.579.14-.688.563l-.422 1.765H.64c-.25 0-.563.14-.563.36 0 .156.297.28.531.28h.813C.594-1.515.547-1.311.547-1.093c0 .64.656 1.219 1.312 1.219 1.22 0 2.079-1.875 2.079-1.969 0-.11-.282-.25-.329-.25-.109 0-.328.172-.375.297C2.72-.547 2.281-.39 1.875-.39c-.25 0-.172-.03-.172-.421 0-.282.016-.375.063-.579l.859-3.39h.953c.25 0 .563-.125.563-.375zm0 0"/></svg><svg overflow="visible" x="25.471" y="13.156"><path d="M3.64-2.625v-1c0-2.047-1.328-4.531-2.64-5.516a.774.774 0 00-.203-.062c-.063 0-.313.187-.313.25 0 .031.079.172.094.187 1.25.938 2.016 3.235 2.016 5.141v1c0 1.922-.766 4.219-2.016 5.14-.015.032-.094.157-.094.204 0 .047.25.25.313.25A.774.774 0 001 2.906c1.313-1 2.64-3.484 2.64-5.531zm0 0"/></svg><svg overflow="visible" x="33.422" y="13.156"><path d="M8.828-4.281c0-.125-.312-.375-.437-.375H.906c-.125 0-.437.25-.437.375 0 .14.312.375.437.375h7.485c.125 0 .437-.235.437-.375zm0 2.328c0-.14-.312-.375-.437-.375H.906c-.125 0-.437.234-.437.375 0 .125.312.36.437.36h7.485c.125 0 .437-.235.437-.36zm0 0"/></svg><svg overflow="visible" x="46.046" y="13.156"><path d="M2.094 2.625V-8.859c0-.125-.297-.375-.438-.375-.125 0-.437.25-.437.375V2.625c0 .125.312.36.437.36.14 0 .438-.235.438-.36zm0 0"/></svg><svg overflow="visible" x="49.37" y="13.156"><path d="M2.094 2.625V-8.859c0-.125-.297-.375-.438-.375-.125 0-.437.25-.437.375V2.625c0 .125.312.36.437.36.14 0 .438-.235.438-.36zm0 0"/></svg><svg overflow="visible" x="52.693" y="13.156"><path d="M4.14-5.156c0-.125-.312-.266-.53-.266H2.78c.39-1.562.453-1.797.453-1.875 0-.203-.328-.453-.53-.453-.032 0-.579.14-.688.563l-.422 1.765H.64c-.25 0-.563.14-.563.36 0 .156.297.28.531.28h.813C.594-1.515.547-1.311.547-1.093c0 .64.656 1.219 1.312 1.219 1.22 0 2.079-1.875 2.079-1.969 0-.11-.282-.25-.329-.25-.109 0-.328.172-.375.297C2.72-.547 2.281-.39 1.875-.39c-.25 0-.172-.03-.172-.421 0-.282.016-.375.063-.579l.859-3.39h.953c.25 0 .563-.125.563-.375zm0 0"/></svg><svg overflow="visible" x="57.009" y="13.156"><path d="M6.14-1.844c0-.11-.296-.25-.327-.25-.125 0-.344.188-.375.344-.204.781-.22 1.36-.704 1.36-.328 0-.171-.188-.171-.422 0-.266.03-.36.156-.891l.265-1.063.438-1.687c.078-.328.078-.36.078-.406 0-.204-.344-.454-.547-.454-.281 0-.656.407-.703.657h.406c-.218-.438-.765-.89-1.297-.89-1.406 0-3.078 1.89-3.078 3.64 0 1.125.86 2.031 1.781 2.031.25 0 .97-.078 1.422-.61.032.094.657.61 1.22.61.421 0 .827-.297 1.015-.688l.062-.093c.203-.438.297-1.094.297-1.094zm-2.03-2.25c0 .063-.016.14-.032.203l-.594 2.344c-.062.203 0 .14-.187.344-.531.656-.875.812-1.203.812-.594 0-.578-.53-.578-1 0-.593.328-1.968.593-2.515.375-.703.782-1.11 1.266-1.11.766 0 .734.844.734.922zm0 0"/></svg><svg overflow="visible" x="63.333" y="13.156"><path d="M7.016-1.844c0-.11-.297-.25-.329-.25-.125 0-.328.172-.39.344-.234.813-.422 1.36-1.016 1.36-.203 0-.093.015-.093-.266 0-.297.109-.594.218-.844.219-.64.719-1.953.719-2.64 0-.798-.703-1.407-1.563-1.407-1.078 0-1.796.797-2 1.078l.329.094c-.063-.672-.735-1.172-1.282-1.172-.562 0-.921.5-1.14.89C.313-4.327.14-3.624.14-3.577c0 .125.484.219.484.219l-.14.03c.124 0 .328-.14.406-.405.203-.844.25-1.282.671-1.282.25 0 .172.016.172.407 0 .265-.03.39-.187 1.015L.844-.844c-.031.188-.11.469-.11.516 0 .219.375.453.563.453.14 0 .547-.219.656-.547-.078.156.125-.5.203-.797l.266-1.078c.062-.265.14-.531.203-.797l.14-.594c.188-.374.626-1.328 1.766-1.328.532 0 .438.313.438.704 0 .734-.578 2.265-.766 2.78-.11.282-.125.423-.125.548 0 .562.625 1.109 1.188 1.109 1.125 0 1.75-1.875 1.75-1.969zm0 0"/></svg><svg overflow="visible" x="70.507" y="13.156"><path d="M5.86-4.86c0-.202-.344-.452-.548-.452-.109 0-.64.218-.687.656h.39c-.202-.453-.812-.89-1.296-.89-1.36 0-3.047 1.812-3.047 3.53C.672-.844 1.609 0 2.469 0c.703 0 1.39-.594 1.375-.578L3.64-.781 3.266.766c-.047.109-.25 1.156-1.516 1.156a3.9 3.9 0 01-.969-.11v.25c.36-.109.688-.546.688-.75 0-.187-.328-.546-.64-.546-.266 0-.86.343-.86.828 0 .484.656.86 1.797.86 1.5 0 2.546-1.063 2.734-1.782l1.328-5.313c0-.062.031-.125.031-.218zm-1.376.735c0 .063-.03.125-.03.188l-.579 2.28c-.078.313-.297.516-.547.735-.25.219-.484.39-.828.39-.594 0-.594-.484-.594-.968 0-.563.297-1.875.61-2.5.328-.578.718-1.016 1.218-1.016.782 0 .75.829.75.891zm0 0"/></svg><svg overflow="visible" x="76.508" y="13.156"><path d="M5.328-1.406c0-.078-.266-.297-.328-.297-.063 0-.234.062-.297.156C3.75-.359 2.593-.39 2.453-.39c-.937 0-.844-.875-.844-1.265 0-.14 0-.5.141-1.11h.484c.344 0 1.235-.015 1.829-.265.843-.36 1.093-1.203 1.093-1.375 0-.516-.656-1.14-1.468-1.14-1.329 0-3.344 1.296-3.344 3.39C.344-.937 1.25.125 2.422.125c1.719 0 2.906-1.39 2.906-1.531zm-.969-3c0 1.25-1.703 1.125-2.203 1.125h-.25c.422-1.688 1.469-1.735 1.782-1.735.562 0 .671.204.671.61zm0 0"/></svg><svg overflow="visible" x="82.079" y="13.156"><path d="M7.016-1.844c0-.11-.297-.25-.329-.25-.125 0-.328.172-.39.344-.234.813-.422 1.36-1.016 1.36-.203 0-.093.015-.093-.266 0-.297.109-.594.218-.844.219-.64.719-1.953.719-2.64 0-.798-.703-1.407-1.563-1.407-1.078 0-1.796.797-2 1.078l.329.094c-.063-.672-.735-1.172-1.282-1.172-.562 0-.921.5-1.14.89C.313-4.327.14-3.624.14-3.577c0 .125.484.219.484.219l-.14.03c.124 0 .328-.14.406-.405.203-.844.25-1.282.671-1.282.25 0 .172.016.172.407 0 .265-.03.39-.187 1.015L.844-.844c-.031.188-.11.469-.11.516 0 .219.375.453.563.453.14 0 .547-.219.656-.547-.078.156.125-.5.203-.797l.266-1.078c.062-.265.14-.531.203-.797l.14-.594c.188-.374.626-1.328 1.766-1.328.532 0 .438.313.438.704 0 .734-.578 2.265-.766 2.78-.11.282-.125.423-.125.548 0 .562.625 1.109 1.188 1.109 1.125 0 1.75-1.875 1.75-1.969zm0 0"/></svg><svg overflow="visible" x="89.252" y="13.156"><path d="M4.14-5.156c0-.125-.312-.266-.53-.266H2.78c.39-1.562.453-1.797.453-1.875 0-.203-.328-.453-.53-.453-.032 0-.579.14-.688.563l-.422 1.765H.64c-.25 0-.563.14-.563.36 0 .156.297.28.531.28h.813C.594-1.515.547-1.311.547-1.093c0 .64.656 1.219 1.312 1.219 1.22 0 2.079-1.875 2.079-1.969 0-.11-.282-.25-.329-.25-.109 0-.328.172-.375.297C2.72-.547 2.281-.39 1.875-.39c-.25 0-.172-.03-.172-.421 0-.282.016-.375.063-.579l.859-3.39h.953c.25 0 .563-.125.563-.375zm0 0"/></svg><svg overflow="visible" x="93.575" y="16.11"><path d="M5.094-3.234c0-.47-.75-.782-1.078-.782-.422 0-.907.329-.922.344.031.078-.563-.344-1.031-.344C1.125-4.016.39-2.828.39-2.578c0 .11.328.281.343.281.11 0 .329-.203.375-.312.204-.657.532-.844.938-.844.265 0 .297-.016.297.39 0 .172-.11.579-.188.876l-.281 1.14c-.078.281-.156.578-.578.578-.031 0-.125.047-.078.078-.032.016.203-.453.203-.5 0-.187-.344-.468-.547-.468-.234 0-.688.359-.688.671 0 .422.688.766 1.094.766.39 0 .875-.281.907-.344.03.047.687.344 1.03.344.954 0 1.688-1.203 1.688-1.437 0-.11-.328-.266-.343-.266-.125 0-.344.203-.375.297-.172.578-.47.86-.938.86-.328 0-.297-.063-.297-.391 0-.22.203-.97.438-1.907.156-.64.328-.687.609-.687l.14-.047s-.015 0-.093-.047c.125-.031-.172.36-.172.5 0 .188.344.469.531.469.203 0 .688-.313.688-.656zm0 0"/></svg><svg overflow="visible" x="99.496" y="13.156"><path d="M4.156 2.719c0-.047-.078-.172-.11-.203-1.234-.922-2-3.22-2-5.141v-1c0-1.906.767-4.203 2-5.14a.457.457 0 00.11-.188c0-.063-.25-.25-.312-.25a1.01 1.01 0 00-.203.062C2.312-8.156 1-5.67 1-3.625v1C1-.578 2.313 1.906 3.64 2.906c.016.016.188.063.204.063.062 0 .312-.203.312-.25zm0 0"/></svg><svg overflow="visible" x="104.147" y="13.156"><path d="M4.14-5.156c0-.125-.312-.266-.53-.266H2.78c.39-1.562.453-1.797.453-1.875 0-.203-.328-.453-.53-.453-.032 0-.579.14-.688.563l-.422 1.765H.64c-.25 0-.563.14-.563.36 0 .156.297.28.531.28h.813C.594-1.515.547-1.311.547-1.093c0 .64.656 1.219 1.312 1.219 1.22 0 2.079-1.875 2.079-1.969 0-.11-.282-.25-.329-.25-.109 0-.328.172-.375.297C2.72-.547 2.281-.39 1.875-.39c-.25 0-.172-.03-.172-.421 0-.282.016-.375.063-.579l.859-3.39h.953c.25 0 .563-.125.563-.375zm0 0"/></svg><svg overflow="visible" x="108.462" y="13.156"><path d="M3.64-2.625v-1c0-2.047-1.328-4.531-2.64-5.516a.774.774 0 00-.203-.062c-.063 0-.313.187-.313.25 0 .031.079.172.094.187 1.25.938 2.016 3.235 2.016 5.141v1c0 1.922-.766 4.219-2.016 5.14-.015.032-.094.157-.094.204 0 .047.25.25.313.25A.774.774 0 001 2.906c1.313-1 2.64-3.484 2.64-5.531zm0 0"/></svg><svg overflow="visible" x="113.113" y="13.156"><path d="M2.094 2.625V-8.859c0-.125-.297-.375-.438-.375-.125 0-.437.25-.437.375V2.625c0 .125.312.36.437.36.14 0 .438-.235.438-.36zm0 0"/></svg><svg overflow="visible" x="116.437" y="13.156"><path d="M2.094 2.625V-8.859c0-.125-.297-.375-.438-.375-.125 0-.437.25-.437.375V2.625c0 .125.312.36.437.36.14 0 .438-.235.438-.36zm0 0"/></svg><svg overflow="visible" x="123.072" y="13.156"><path d="M8.828-4.281c0-.125-.312-.375-.437-.375H.906c-.125 0-.437.25-.437.375 0 .14.312.375.437.375h7.485c.125 0 .437-.235.437-.375zm0 2.328c0-.14-.312-.375-.437-.375H.906c-.125 0-.437.234-.437.375 0 .125.312.36.437.36h7.485c.125 0 .437-.235.437-.36zm0 0"/></svg><svg overflow="visible" x="138.936" y="7.46"><path d="M3.39-3.656c0-.11-.312-.266-.453-.266h-.562l.281-1.094c0-.03.031-.078.031-.109 0-.156-.328-.422-.5-.422-.218 0-.546.297-.609.516-.047.203.063-.188-.281 1.11H.625c-.172 0-.484.155-.484.343 0 .11.312.265.468.265h.532L.687-1.484c-.046.203-.125.5-.125.609 0 .5.641.953 1.11.953.937 0 1.672-1.328 1.672-1.437 0-.11-.328-.266-.344-.266-.11 0-.313.172-.39.313-.235.53-.454.843-.907.843-.172 0-.094.047-.094-.25 0-.078.047-.265.063-.344l.562-2.25h.688c.156 0 .469-.156.469-.343zm0 0"/></svg><svg overflow="visible" x="142.551" y="7.46"><path d="M4.984-1.36c0-.109-.312-.265-.343-.265-.11 0-.329.188-.391.422-.094.406-.047.734-.39.734-.22 0-.079-.031-.079-.25 0-.14.078-.453.125-.656l.188-.766c.078-.312.093-.359.172-.625.046-.218.14-.625.14-.656 0-.187-.36-.437-.484-.437-.14 0-.547.265-.594.5l.344-.11c-.172-.281-.594-.547-1-.547-1.078 0-2.375 1.344-2.375 2.547 0 .813.766 1.547 1.484 1.547.453 0 .985-.297 1.078-.39.063.156.75.39.97.39.296 0 .655-.219.796-.484.188-.328.36-.922.36-.953zm-1.78-1.53c0 .03-.017.093-.017.124l-.406 1.563c-.047.234-.172.297-.36.453-.077.063-.265.281-.624.281-.313 0-.39-.062-.39-.656 0-.438.171-1.25.359-1.578.39-.672.671-.75.906-.75.594 0 .531.469.531.562zm0 0"/></svg><svg overflow="visible" x="147.74" y="7.46"><path d="M5.719-1.36c0-.109-.313-.265-.344-.265-.11 0-.328.203-.36.297-.202.672-.343.86-.687.86-.172 0 0 .046 0-.141 0-.188.047-.297.188-.672.109-.266.453-1.14.453-1.61 0-.812-.86-1.125-1.297-1.125-.703 0-1.313.485-1.563.813l.36.11c-.063-.579-.766-.923-1.11-.923-.359 0-.703.313-.812.5-.188.313-.36.907-.36.938 0 .11.329.281.344.281.125 0 .344-.187.39-.422.141-.484.079-.734.407-.734.219 0 .078.015.078.25 0 .156-.078.469-.14.687l-.188.75L.812-.687c-.03.109-.078.312-.078.343 0 .188.36.422.485.422.156 0 .437-.14.468-.219.047-.078.188-.468.22-.64l.187-.75.14-.563c.094-.344.047-.297.282-.64.234-.329.484-.72 1.125-.72.484 0 .28.267.28.423 0 .5-.358 1.437-.5 1.781-.093.234-.124.313-.124.453 0 .438.578.875 1.015.875.829 0 1.407-1.312 1.407-1.437zm0 0"/></svg><svg overflow="visible" x="153.648" y="7.46"><path d="M4.703-3.422c0-.187-.36-.437-.5-.437-.187 0-.562.328-.594.484l.36-.11c-.156-.218-.578-.53-1.016-.53C1.906-4.016.61-2.736.61-1.532.61-.671 1.406 0 2.08 0c.39 0 .905-.234 1.202-.5l-.36-.11c-.14.532-.046.22-.187.75-.093.36-.093.47-.406.75-.375.313-.578.266-.781.266-.39 0-.5-.031-.656-.062v.328c.218-.11.484-.469.484-.578C1.375.64 1 .375.844.375c-.235 0-.688.344-.688.656 0 .516.922.672 1.39.672C2.86 1.703 3.642.875 3.75.406l.922-3.656c.031-.125-.047-.063-.047-.063zm-.86.64s-.343-.093-.374 0l-.375 1.516c-.031.125.015.032-.125.188-.281.36-.547.531-.86.531-.421 0-.421-.203-.421-.64 0-.375.156-1.188.375-1.563.359-.578.609-.703.89-.703.594 0 .547.469.547.547zm0 0"/></svg><svg overflow="visible" x="158.368" y="7.46"><path d="M4.36-1.016c0-.062-.298-.312-.36-.312a.676.676 0 00-.281.14c-.656.766-1.485.72-1.64.72-.5 0-.626-.173-.626-.86 0-.11 0-.281.063-.578h.359c.234 0 .89-.016 1.344-.172.625-.219.953-.781.953-1.031 0-.47-.672-.907-1.25-.907-1 0-2.563.938-2.563 2.36 0 .86.735 1.734 1.704 1.734 1.421 0 2.296-.984 2.296-1.094zm-.97-2.093c0 .812-1.203.64-1.562.64h-.156c.297-1.047 1.016-.984 1.25-.984.375 0 .469.015.469.344zm0 0"/></svg><svg overflow="visible" x="162.904" y="7.46"><path d="M5.719-1.36c0-.109-.313-.265-.344-.265-.11 0-.328.203-.36.297-.202.672-.343.86-.687.86-.172 0 0 .046 0-.141 0-.188.047-.297.188-.672.109-.266.453-1.14.453-1.61 0-.812-.86-1.125-1.297-1.125-.703 0-1.313.485-1.563.813l.36.11c-.063-.579-.766-.923-1.11-.923-.359 0-.703.313-.812.5-.188.313-.36.907-.36.938 0 .11.329.281.344.281.125 0 .344-.187.39-.422.141-.484.079-.734.407-.734.219 0 .078.015.078.25 0 .156-.078.469-.14.687l-.188.75L.812-.687c-.03.109-.078.312-.078.343 0 .188.36.422.485.422.156 0 .437-.14.468-.219.047-.078.188-.468.22-.64l.187-.75.14-.563c.094-.344.047-.297.282-.64.234-.329.484-.72 1.125-.72.484 0 .28.267.28.423 0 .5-.358 1.437-.5 1.781-.093.234-.124.313-.124.453 0 .438.578.875 1.015.875.829 0 1.407-1.312 1.407-1.437zm0 0"/></svg><svg overflow="visible" x="168.812" y="7.46"><path d="M3.39-3.656c0-.11-.312-.266-.453-.266h-.562l.281-1.094c0-.03.031-.078.031-.109 0-.156-.328-.422-.5-.422-.218 0-.546.297-.609.516-.047.203.063-.188-.281 1.11H.625c-.172 0-.484.155-.484.343 0 .11.312.265.468.265h.532L.687-1.484c-.046.203-.125.5-.125.609 0 .5.641.953 1.11.953.937 0 1.672-1.328 1.672-1.437 0-.11-.328-.266-.344-.266-.11 0-.313.172-.39.313-.235.53-.454.843-.907.843-.172 0-.094.047-.094-.25 0-.078.047-.265.063-.344l.562-2.25h.688c.156 0 .469-.156.469-.343zm0 0"/></svg><svg overflow="visible" x="172.427" y="9.528"><path d="M4.281-2.328c0-.36-.593-.672-.906-.672-.39 0-.797.297-.75.25-.078-.14-.594-.25-.813-.25-.75 0-1.375.875-1.375 1.11 0 .077.297.25.329.25.046 0 .296-.173.328-.25.172-.579.468-.548.703-.548.187 0 .219-.093.219.22 0 .14-.11.562-.313 1.359-.094.343-.172.359-.422.359-.047 0-.078.063.032.125-.125.047.078-.36.078-.39 0-.172-.329-.422-.47-.422-.14 0-.562.296-.562.578 0 .375.61.671.907.671.328 0 .734-.234.75-.25.093.157.625.25.796.25.766 0 1.376-.89 1.376-1.109 0-.078-.297-.25-.313-.25-.11 0-.328.203-.344.266C3.36-.5 3.11-.5 2.844-.5c-.188 0-.235.11-.235-.219 0-.078 0-.11.047-.312.11-.422.266-1.094.297-1.14.031-.079.094-.267.406-.267.016 0 .079-.062-.046-.14.124-.047.265.531.265.531l-.344-.125c0 .094.282.422.47.422.171 0 .577-.328.577-.578zm0 0"/></svg><svg overflow="visible" x="177.66" y="7.46"><path d="M2.984 1.828a.933.933 0 00-.093-.172C2.016 1 1.5-.562 1.5-1.906v-.703c0-1.329.516-2.891 1.39-3.547a.702.702 0 00.094-.188c0-.031-.25-.234-.28-.234a1.01 1.01 0 00-.204.062C1.578-5.828.64-4.03.64-2.609v.703c0 1.437.938 3.234 1.86 3.922.016.015.188.062.203.062.031 0 .281-.203.281-.25zm0 0"/></svg><svg overflow="visible" x="180.915" y="7.46"><path d="M3.39-3.656c0-.11-.312-.266-.453-.266h-.562l.281-1.094c0-.03.031-.078.031-.109 0-.156-.328-.422-.5-.422-.218 0-.546.297-.609.516-.047.203.063-.188-.281 1.11H.625c-.172 0-.484.155-.484.343 0 .11.312.265.468.265h.532L.687-1.484c-.046.203-.125.5-.125.609 0 .5.641.953 1.11.953.937 0 1.672-1.328 1.672-1.437 0-.11-.328-.266-.344-.266-.11 0-.313.172-.39.313-.235.53-.454.843-.907.843-.172 0-.094.047-.094-.25 0-.078.047-.265.063-.344l.562-2.25h.688c.156 0 .469-.156.469-.343zm0 0"/></svg><svg overflow="visible" x="184.531" y="7.46"><path d="M2.625-1.906v-.703c0-1.422-.953-3.22-1.875-3.907a.88.88 0 00-.188-.062c-.046 0-.296.203-.296.234 0 .032.078.172.093.188C1.234-5.5 1.75-3.938 1.75-2.61v.703C1.75-.563 1.234 1 .36 1.656a.933.933 0 00-.094.172c0 .047.25.25.296.25a.88.88 0 00.188-.062c.922-.688 1.875-2.485 1.875-3.922zm0 0"/></svg><path d="M136.898 10.168h52.926" fill="none" stroke-width=".478" stroke="#000" stroke-miterlimit="10"/><svg overflow="visible" x="136.9" y="17.281"><path d="M1.547 1.766v-8.032c0-.093-.297-.328-.375-.328-.094 0-.39.235-.39.328v8.032c0 .093.296.328.39.328.078 0 .375-.235.375-.328zm0 0"/></svg><svg overflow="visible" x="139.226" y="17.281"><path d="M1.547 1.766v-8.032c0-.093-.297-.328-.375-.328-.094 0-.39.235-.39.328v8.032c0 .093.296.328.39.328.078 0 .375-.235.375-.328zm0 0"/></svg><svg overflow="visible" x="141.553" y="17.281"><path d="M3.39-3.656c0-.11-.312-.266-.453-.266h-.562l.281-1.094c0-.03.031-.078.031-.109 0-.156-.328-.422-.5-.422-.218 0-.546.297-.609.516-.047.203.063-.188-.281 1.11H.625c-.172 0-.484.155-.484.343 0 .11.312.265.468.265h.532L.687-1.484c-.046.203-.125.5-.125.609 0 .5.641.953 1.11.953.937 0 1.672-1.328 1.672-1.437 0-.11-.328-.266-.344-.266-.11 0-.313.172-.39.313-.235.53-.454.843-.907.843-.172 0-.094.047-.094-.25 0-.078.047-.265.063-.344l.562-2.25h.688c.156 0 .469-.156.469-.343zm0 0"/></svg><svg overflow="visible" x="145.168" y="17.281"><path d="M4.984-1.36c0-.109-.312-.265-.343-.265-.11 0-.329.188-.391.422-.094.406-.047.734-.39.734-.22 0-.079-.031-.079-.25 0-.14.078-.453.125-.656l.188-.766c.078-.312.093-.359.172-.625.046-.218.14-.625.14-.656 0-.187-.36-.437-.484-.437-.14 0-.547.265-.594.5l.344-.11c-.172-.281-.594-.547-1-.547-1.078 0-2.375 1.344-2.375 2.547 0 .813.766 1.547 1.484 1.547.453 0 .985-.297 1.078-.39.063.156.75.39.97.39.296 0 .655-.219.796-.484.188-.328.36-.922.36-.953zm-1.78-1.53c0 .03-.017.093-.017.124l-.406 1.563c-.047.234-.172.297-.36.453-.077.063-.265.281-.624.281-.313 0-.39-.062-.39-.656 0-.438.171-1.25.359-1.578.39-.672.671-.75.906-.75.594 0 .531.469.531.562zm0 0"/></svg><svg overflow="visible" x="150.357" y="17.281"><path d="M5.719-1.36c0-.109-.313-.265-.344-.265-.11 0-.328.203-.36.297-.202.672-.343.86-.687.86-.172 0 0 .046 0-.141 0-.188.047-.297.188-.672.109-.266.453-1.14.453-1.61 0-.812-.86-1.125-1.297-1.125-.703 0-1.313.485-1.563.813l.36.11c-.063-.579-.766-.923-1.11-.923-.359 0-.703.313-.812.5-.188.313-.36.907-.36.938 0 .11.329.281.344.281.125 0 .344-.187.39-.422.141-.484.079-.734.407-.734.219 0 .078.015.078.25 0 .156-.078.469-.14.687l-.188.75L.812-.687c-.03.109-.078.312-.078.343 0 .188.36.422.485.422.156 0 .437-.14.468-.219.047-.078.188-.468.22-.64l.187-.75.14-.563c.094-.344.047-.297.282-.64.234-.329.484-.72 1.125-.72.484 0 .28.267.28.423 0 .5-.358 1.437-.5 1.781-.093.234-.124.313-.124.453 0 .438.578.875 1.015.875.829 0 1.407-1.312 1.407-1.437zm0 0"/></svg><svg overflow="visible" x="156.265" y="17.281"><path d="M4.703-3.422c0-.187-.36-.437-.5-.437-.187 0-.562.328-.594.484l.36-.11c-.156-.218-.578-.53-1.016-.53C1.906-4.016.61-2.736.61-1.532.61-.671 1.406 0 2.08 0c.39 0 .905-.234 1.202-.5l-.36-.11c-.14.532-.046.22-.187.75-.093.36-.093.47-.406.75-.375.313-.578.266-.781.266-.39 0-.5-.031-.656-.062v.328c.218-.11.484-.469.484-.578C1.375.64 1 .375.844.375c-.235 0-.688.344-.688.656 0 .516.922.672 1.39.672C2.86 1.703 3.642.875 3.75.406l.922-3.656c.031-.125-.047-.063-.047-.063zm-.86.64s-.343-.093-.374 0l-.375 1.516c-.031.125.015.032-.125.188-.281.36-.547.531-.86.531-.421 0-.421-.203-.421-.64 0-.375.156-1.188.375-1.563.359-.578.609-.703.89-.703.594 0 .547.469.547.547zm0 0"/></svg><svg overflow="visible" x="160.976" y="17.281"><path d="M4.36-1.016c0-.062-.298-.312-.36-.312a.676.676 0 00-.281.14c-.656.766-1.485.72-1.64.72-.5 0-.626-.173-.626-.86 0-.11 0-.281.063-.578h.359c.234 0 .89-.016 1.344-.172.625-.219.953-.781.953-1.031 0-.47-.672-.907-1.25-.907-1 0-2.563.938-2.563 2.36 0 .86.735 1.734 1.704 1.734 1.421 0 2.296-.984 2.296-1.094zm-.97-2.093c0 .812-1.203.64-1.562.64h-.156c.297-1.047 1.016-.984 1.25-.984.375 0 .469.015.469.344zm0 0"/></svg><svg overflow="visible" x="165.512" y="17.281"><path d="M5.719-1.36c0-.109-.313-.265-.344-.265-.11 0-.328.203-.36.297-.202.672-.343.86-.687.86-.172 0 0 .046 0-.141 0-.188.047-.297.188-.672.109-.266.453-1.14.453-1.61 0-.812-.86-1.125-1.297-1.125-.703 0-1.313.485-1.563.813l.36.11c-.063-.579-.766-.923-1.11-.923-.359 0-.703.313-.812.5-.188.313-.36.907-.36.938 0 .11.329.281.344.281.125 0 .344-.187.39-.422.141-.484.079-.734.407-.734.219 0 .078.015.078.25 0 .156-.078.469-.14.687l-.188.75L.812-.687c-.03.109-.078.312-.078.343 0 .188.36.422.485.422.156 0 .437-.14.468-.219.047-.078.188-.468.22-.64l.187-.75.14-.563c.094-.344.047-.297.282-.64.234-.329.484-.72 1.125-.72.484 0 .28.267.28.423 0 .5-.358 1.437-.5 1.781-.093.234-.124.313-.124.453 0 .438.578.875 1.015.875.829 0 1.407-1.312 1.407-1.437zm0 0"/></svg><svg overflow="visible" x="171.42" y="17.281"><path d="M3.39-3.656c0-.11-.312-.266-.453-.266h-.562l.281-1.094c0-.03.031-.078.031-.109 0-.156-.328-.422-.5-.422-.218 0-.546.297-.609.516-.047.203.063-.188-.281 1.11H.625c-.172 0-.484.155-.484.343 0 .11.312.265.468.265h.532L.687-1.484c-.046.203-.125.5-.125.609 0 .5.641.953 1.11.953.937 0 1.672-1.328 1.672-1.437 0-.11-.328-.266-.344-.266-.11 0-.313.172-.39.313-.235.53-.454.843-.907.843-.172 0-.094.047-.094-.25 0-.078.047-.265.063-.344l.562-2.25h.688c.156 0 .469-.156.469-.343zm0 0"/></svg><svg overflow="visible" x="175.036" y="17.281"><path d="M2.984 1.828a.933.933 0 00-.093-.172C2.016 1 1.5-.562 1.5-1.906v-.703c0-1.329.516-2.891 1.39-3.547a.702.702 0 00.094-.188c0-.031-.25-.234-.28-.234a1.01 1.01 0 00-.204.062C1.578-5.828.64-4.03.64-2.609v.703c0 1.437.938 3.234 1.86 3.922.016.015.188.062.203.062.031 0 .281-.203.281-.25zm0 0"/></svg><svg overflow="visible" x="178.291" y="17.281"><path d="M3.39-3.656c0-.11-.312-.266-.453-.266h-.562l.281-1.094c0-.03.031-.078.031-.109 0-.156-.328-.422-.5-.422-.218 0-.546.297-.609.516-.047.203.063-.188-.281 1.11H.625c-.172 0-.484.155-.484.343 0 .11.312.265.468.265h.532L.687-1.484c-.046.203-.125.5-.125.609 0 .5.641.953 1.11.953.937 0 1.672-1.328 1.672-1.437 0-.11-.328-.266-.344-.266-.11 0-.313.172-.39.313-.235.53-.454.843-.907.843-.172 0-.094.047-.094-.25 0-.078.047-.265.063-.344l.562-2.25h.688c.156 0 .469-.156.469-.343zm0 0"/></svg><svg overflow="visible" x="181.906" y="17.281"><path d="M2.625-1.906v-.703c0-1.422-.953-3.22-1.875-3.907a.88.88 0 00-.188-.062c-.046 0-.296.203-.296.234 0 .032.078.172.093.188C1.234-5.5 1.75-3.938 1.75-2.61v.703C1.75-.563 1.234 1 .36 1.656a.933.933 0 00-.094.172c0 .047.25.25.296.25a.88.88 0 00.188-.062c.922-.688 1.875-2.485 1.875-3.922zm0 0"/></svg><svg overflow="visible" x="185.162" y="17.281"><path d="M1.547 1.766v-8.032c0-.093-.297-.328-.375-.328-.094 0-.39.235-.39.328v8.032c0 .093.296.328.39.328.078 0 .375-.235.375-.328zm0 0"/></svg><svg overflow="visible" x="187.488" y="17.281"><path d="M1.547 1.766v-8.032c0-.093-.297-.328-.375-.328-.094 0-.39.235-.39.328v8.032c0 .093.296.328.39.328.078 0 .375-.235.375-.328zm0 0"/></svg><g><svg overflow="visible" x="194.339" y="13.156"><path d="M8.828-4.281c0-.125-.312-.375-.437-.375H.906c-.125 0-.437.25-.437.375 0 .14.312.375.437.375h7.485c.125 0 .437-.235.437-.375zm0 2.328c0-.14-.312-.375-.437-.375H.906c-.125 0-.437.234-.437.375 0 .125.312.36.437.36h7.485c.125 0 .437-.235.437-.36zm0 0"/></svg></g><g><svg overflow="visible" x="208.157" y="7.46"><path d="M7.219-4.688c0-.64-.86-1.343-1.938-1.343H2.234c-.171 0-.484.156-.484.343 0 .11.313.266.484.266l.141-.031s.016.031.172.047c.172.015-.016-.125-.016-.032l.344.11s-.344-.063-.375.062L1.375-.812c-.063.28.125.187-.516.187-.14 0-.468.172-.468.344C.39-.156.703 0 .859 0h3.235C5.5 0 6.797-1.125 6.797-1.953c0-.594-.766-1.266-1.64-1.36v.329c1-.188 2.062-.985 2.062-1.704zm-1.235-.015c0 .687-.562 1.297-1.671 1.297H3.171l.484-1.89c.063-.25-.14-.126.219-.126h1.266c.859 0 .843.406.843.719zm-.453 2.687c0 .829-.64 1.391-1.656 1.391H2.531c-.265 0-.062.156-.062.078l-.063.125s.063-.172.094-.297l.547-2.14H4.64c.796 0 .89.359.89.843zm0 0"/></svg></g><g><svg overflow="visible" x="215.379" y="4.422"><path d="M2.64-3.594c0-.203-.374-.562-.593-.562-.156 0-.5.281-.531.39L.219-.562h.656l1.64-2.704c.032-.062.126-.25.126-.328zm0 0"/></svg></g><g><svg overflow="visible" x="215.379" y="9.528"><path d="M4.281-2.328c0-.36-.593-.672-.906-.672-.39 0-.797.297-.75.25-.078-.14-.594-.25-.813-.25-.75 0-1.375.875-1.375 1.11 0 .077.297.25.329.25.046 0 .296-.173.328-.25.172-.579.468-.548.703-.548.187 0 .219-.093.219.22 0 .14-.11.562-.313 1.359-.094.343-.172.359-.422.359-.047 0-.078.063.032.125-.125.047.078-.36.078-.39 0-.172-.329-.422-.47-.422-.14 0-.562.296-.562.578 0 .375.61.671.907.671.328 0 .734-.234.75-.25.093.157.625.25.796.25.766 0 1.376-.89 1.376-1.109 0-.078-.297-.25-.313-.25-.11 0-.328.203-.344.266C3.36-.5 3.11-.5 2.844-.5c-.188 0-.235.11-.235-.219 0-.078 0-.11.047-.312.11-.422.266-1.094.297-1.14.031-.079.094-.267.406-.267.016 0 .079-.062-.046-.14.124-.047.265.531.265.531l-.344-.125c0 .094.282.422.47.422.171 0 .577-.328.577-.578zm0 0"/></svg></g><g><svg overflow="visible" x="220.612" y="7.46"><path d="M2.984 1.828a.933.933 0 00-.093-.172C2.016 1 1.5-.562 1.5-1.906v-.703c0-1.329.516-2.891 1.39-3.547a.702.702 0 00.094-.188c0-.031-.25-.234-.28-.234a1.01 1.01 0 00-.204.062C1.578-5.828.64-4.03.64-2.609v.703c0 1.437.938 3.234 1.86 3.922.016.015.188.062.203.062.031 0 .281-.203.281-.25zm0 0"/></svg><svg overflow="visible" x="223.867" y="7.46"><path d="M3.39-3.656c0-.11-.312-.266-.453-.266h-.562l.281-1.094c0-.03.031-.078.031-.109 0-.156-.328-.422-.5-.422-.218 0-.546.297-.609.516-.047.203.063-.188-.281 1.11H.625c-.172 0-.484.155-.484.343 0 .11.312.265.468.265h.532L.687-1.484c-.046.203-.125.5-.125.609 0 .5.641.953 1.11.953.937 0 1.672-1.328 1.672-1.437 0-.11-.328-.266-.344-.266-.11 0-.313.172-.39.313-.235.53-.454.843-.907.843-.172 0-.094.047-.094-.25 0-.078.047-.265.063-.344l.562-2.25h.688c.156 0 .469-.156.469-.343zm0 0"/></svg><svg overflow="visible" x="227.483" y="7.46"><path d="M2.625-1.906v-.703c0-1.422-.953-3.22-1.875-3.907a.88.88 0 00-.188-.062c-.046 0-.296.203-.296.234 0 .032.078.172.093.188C1.234-5.5 1.75-3.938 1.75-2.61v.703C1.75-.563 1.234 1 .36 1.656a.933.933 0 00-.094.172c0 .047.25.25.296.25a.88.88 0 00.188-.062c.922-.688 1.875-2.485 1.875-3.922zm0 0"/></svg></g><path d="M208.156 10.168h22.582" fill="none" stroke-width=".478" stroke="#000" stroke-miterlimit="10"/><g><svg overflow="visible" x="216.924" y="17.281"><path d="M5.031-5.86c0-.03-.25-.265-.343-.265-.172 0-.875.063-1.079.078-.062.016-.39.172-.39.36 0 .109.328.265.422.265.406 0 .187-.094.187-.031 0 .062-.015.11-.031.187l-.469 1.907.344-.11c-.172-.281-.594-.547-1-.547-1.078 0-2.375 1.344-2.375 2.547 0 .813.766 1.547 1.484 1.547.453 0 .985-.297 1.078-.39.063.156.75.39.97.39.296 0 .655-.219.796-.484.188-.328.36-.922.36-.953 0-.11-.313-.266-.344-.266-.11 0-.329.188-.391.422-.094.406-.047.734-.39.734-.22 0-.079-.031-.079-.25 0-.156.016-.234.047-.344L4.984-5.75c-.046.125-.03.016-.03.016zM3.203-2.89c0 .03-.015.093-.015.124L2.78-1.203c-.047.234-.172.297-.36.453-.077.063-.265.281-.624.281-.313 0-.39-.062-.39-.656 0-.438.171-1.25.359-1.578.39-.672.671-.75.906-.75.594 0 .531.469.531.562zm0 0"/></svg></g><g><svg overflow="visible" x="17.202" y="33.057"><path d="M-.844-7.484a13.34 13.34 0 00-2.312-1.594c-.922.5-1.656 1.015-2.39 1.672l.265.437a35.74 35.74 0 002.125-1.015c.515.28 1.344.671 2.11 1.015l.265-.437zm0 0"/></svg></g><g><svg overflow="visible" x="10.411" y="33.057"><path d="M6.047-4.953c0-.219-.36-.469-.531-.469-.125 0-.454.11-.641.406-.016.047-.11.407-.156.625l-.235.954-.546 2.156c-.047.187-.36.89-1.141.89-.61 0-.547-.39-.547-.843 0-.547.203-1.282.61-2.344.187-.485.234-.625.234-.86 0-.53-.578-1.109-1.172-1.109C.782-5.547.14-3.687.14-3.578c0 .125.484.219.484.219l-.14.03c.124 0 .328-.155.39-.343.313-1.125.61-1.344 1.016-1.344.093 0 .093-.14.093.25 0 .297-.125.61-.203.829-.484 1.265-.687 1.953-.687 2.515 0 1.063.953 1.547 1.656 1.547.469 0 1-.234 1.344-.563L3.75-.53c-.156.61-.234 1.11-.719 1.734-.312.406-.61.719-1.172.719-.156 0-.515.094-.656-.234-.062 0 .234-.032.406-.188.11-.094.297-.36.297-.578 0-.375-.515-.547-.64-.547-.282 0-.875.313-.875.906 0 .594.734 1.172 1.468 1.172 1.235 0 2.657-1.219 3-2.578L6-4.688c.047-.171.047-.187.047-.265zm0 0"/></svg></g><g><svg overflow="visible" x="16.592" y="33.057"><path d="M4.156 2.719c0-.047-.078-.172-.11-.203-1.234-.922-2-3.22-2-5.141v-1c0-1.906.767-4.203 2-5.14a.457.457 0 00.11-.188c0-.063-.25-.25-.312-.25a1.01 1.01 0 00-.203.062C2.312-8.156 1-5.67 1-3.625v1C1-.578 2.313 1.906 3.64 2.906c.016.016.188.063.204.063.062 0 .312-.203.312-.25zm0 0"/></svg><svg overflow="visible" x="21.243" y="33.057"><path d="M4.14-5.156c0-.125-.312-.266-.53-.266H2.78c.39-1.562.453-1.797.453-1.875 0-.203-.328-.453-.53-.453-.032 0-.579.14-.688.563l-.422 1.765H.64c-.25 0-.563.14-.563.36 0 .156.297.28.531.28h.813C.594-1.515.547-1.311.547-1.093c0 .64.656 1.219 1.312 1.219 1.22 0 2.079-1.875 2.079-1.969 0-.11-.282-.25-.329-.25-.109 0-.328.172-.375.297C2.72-.547 2.281-.39 1.875-.39c-.25 0-.172-.03-.172-.421 0-.282.016-.375.063-.579l.859-3.39h.953c.25 0 .563-.125.563-.375zm0 0"/></svg><svg overflow="visible" x="25.559" y="33.057"><path d="M3.64-2.625v-1c0-2.047-1.328-4.531-2.64-5.516a.774.774 0 00-.203-.062c-.063 0-.313.187-.313.25 0 .031.079.172.094.187 1.25.938 2.016 3.235 2.016 5.141v1c0 1.922-.766 4.219-2.016 5.14-.015.032-.094.157-.094.204 0 .047.25.25.313.25A.774.774 0 001 2.906c1.313-1 2.64-3.484 2.64-5.531zm0 0"/></svg></g><g><svg overflow="visible" x="33.533" y="33.057"><path d="M8.828-4.281c0-.125-.312-.375-.437-.375H.906c-.125 0-.437.25-.437.375 0 .14.312.375.437.375h7.485c.125 0 .437-.235.437-.375zm0 2.328c0-.14-.312-.375-.437-.375H.906c-.125 0-.437.234-.437.375 0 .125.312.36.437.36h7.485c.125 0 .437-.235.437-.36zm0 0"/></svg></g><g><svg overflow="visible" x="46.157" y="33.057"><path d="M2.094 2.625V-8.859c0-.125-.297-.375-.438-.375-.125 0-.437.25-.437.375V2.625c0 .125.312.36.437.36.14 0 .438-.235.438-.36zm0 0"/></svg><svg overflow="visible" x="49.481" y="33.057"><path d="M2.094 2.625V-8.859c0-.125-.297-.375-.438-.375-.125 0-.437.25-.437.375V2.625c0 .125.312.36.437.36.14 0 .438-.235.438-.36zm0 0"/></svg><svg overflow="visible" x="52.805" y="33.057"><path d="M4.14-5.156c0-.125-.312-.266-.53-.266H2.78c.39-1.562.453-1.797.453-1.875 0-.203-.328-.453-.53-.453-.032 0-.579.14-.688.563l-.422 1.765H.64c-.25 0-.563.14-.563.36 0 .156.297.28.531.28h.813C.594-1.515.547-1.311.547-1.093c0 .64.656 1.219 1.312 1.219 1.22 0 2.079-1.875 2.079-1.969 0-.11-.282-.25-.329-.25-.109 0-.328.172-.375.297C2.72-.547 2.281-.39 1.875-.39c-.25 0-.172-.03-.172-.421 0-.282.016-.375.063-.579l.859-3.39h.953c.25 0 .563-.125.563-.375zm0 0"/></svg><svg overflow="visible" x="57.12" y="33.057"><path d="M6.14-1.844c0-.11-.296-.25-.327-.25-.125 0-.344.188-.375.344-.204.781-.22 1.36-.704 1.36-.328 0-.171-.188-.171-.422 0-.266.03-.36.156-.891l.265-1.063.438-1.687c.078-.328.078-.36.078-.406 0-.204-.344-.454-.547-.454-.281 0-.656.407-.703.657h.406c-.218-.438-.765-.89-1.297-.89-1.406 0-3.078 1.89-3.078 3.64 0 1.125.86 2.031 1.781 2.031.25 0 .97-.078 1.422-.61.032.094.657.61 1.22.61.421 0 .827-.297 1.015-.688l.062-.093c.203-.438.297-1.094.297-1.094zm-2.03-2.25c0 .063-.016.14-.032.203l-.594 2.344c-.062.203 0 .14-.187.344-.531.656-.875.812-1.203.812-.594 0-.578-.53-.578-1 0-.593.328-1.968.593-2.515.375-.703.782-1.11 1.266-1.11.766 0 .734.844.734.922zm0 0"/></svg><svg overflow="visible" x="63.445" y="33.057"><path d="M7.016-1.844c0-.11-.297-.25-.329-.25-.125 0-.328.172-.39.344-.234.813-.422 1.36-1.016 1.36-.203 0-.093.015-.093-.266 0-.297.109-.594.218-.844.219-.64.719-1.953.719-2.64 0-.798-.703-1.407-1.563-1.407-1.078 0-1.796.797-2 1.078l.329.094c-.063-.672-.735-1.172-1.282-1.172-.562 0-.921.5-1.14.89C.313-4.327.14-3.624.14-3.577c0 .125.484.219.484.219l-.14.03c.124 0 .328-.14.406-.405.203-.844.25-1.282.671-1.282.25 0 .172.016.172.407 0 .265-.03.39-.187 1.015L.844-.844c-.031.188-.11.469-.11.516 0 .219.375.453.563.453.14 0 .547-.219.656-.547-.078.156.125-.5.203-.797l.266-1.078c.062-.265.14-.531.203-.797l.14-.594c.188-.374.626-1.328 1.766-1.328.532 0 .438.313.438.704 0 .734-.578 2.265-.766 2.78-.11.282-.125.423-.125.548 0 .562.625 1.109 1.188 1.109 1.125 0 1.75-1.875 1.75-1.969zm0 0"/></svg><svg overflow="visible" x="70.618" y="33.057"><path d="M5.86-4.86c0-.202-.344-.452-.548-.452-.109 0-.64.218-.687.656h.39c-.202-.453-.812-.89-1.296-.89-1.36 0-3.047 1.812-3.047 3.53C.672-.844 1.609 0 2.469 0c.703 0 1.39-.594 1.375-.578L3.64-.781 3.266.766c-.047.109-.25 1.156-1.516 1.156a3.9 3.9 0 01-.969-.11v.25c.36-.109.688-.546.688-.75 0-.187-.328-.546-.64-.546-.266 0-.86.343-.86.828 0 .484.656.86 1.797.86 1.5 0 2.546-1.063 2.734-1.782l1.328-5.313c0-.062.031-.125.031-.218zm-1.376.735c0 .063-.03.125-.03.188l-.579 2.28c-.078.313-.297.516-.547.735-.25.219-.484.39-.828.39-.594 0-.594-.484-.594-.968 0-.563.297-1.875.61-2.5.328-.578.718-1.016 1.218-1.016.782 0 .75.829.75.891zm0 0"/></svg></g><g><svg overflow="visible" x="76.619" y="33.057"><path d="M5.328-1.406c0-.078-.266-.297-.328-.297-.063 0-.234.062-.297.156C3.75-.359 2.593-.39 2.453-.39c-.937 0-.844-.875-.844-1.265 0-.14 0-.5.141-1.11h.484c.344 0 1.235-.015 1.829-.265.843-.36 1.093-1.203 1.093-1.375 0-.516-.656-1.14-1.468-1.14-1.329 0-3.344 1.296-3.344 3.39C.344-.937 1.25.125 2.422.125c1.719 0 2.906-1.39 2.906-1.531zm-.969-3c0 1.25-1.703 1.125-2.203 1.125h-.25c.422-1.688 1.469-1.735 1.782-1.735.562 0 .671.204.671.61zm0 0"/></svg><svg overflow="visible" x="82.19" y="33.057"><path d="M7.016-1.844c0-.11-.297-.25-.329-.25-.125 0-.328.172-.39.344-.234.813-.422 1.36-1.016 1.36-.203 0-.093.015-.093-.266 0-.297.109-.594.218-.844.219-.64.719-1.953.719-2.64 0-.798-.703-1.407-1.563-1.407-1.078 0-1.796.797-2 1.078l.329.094c-.063-.672-.735-1.172-1.282-1.172-.562 0-.921.5-1.14.89C.313-4.327.14-3.624.14-3.577c0 .125.484.219.484.219l-.14.03c.124 0 .328-.14.406-.405.203-.844.25-1.282.671-1.282.25 0 .172.016.172.407 0 .265-.03.39-.187 1.015L.844-.844c-.031.188-.11.469-.11.516 0 .219.375.453.563.453.14 0 .547-.219.656-.547-.078.156.125-.5.203-.797l.266-1.078c.062-.265.14-.531.203-.797l.14-.594c.188-.374.626-1.328 1.766-1.328.532 0 .438.313.438.704 0 .734-.578 2.265-.766 2.78-.11.282-.125.423-.125.548 0 .562.625 1.109 1.188 1.109 1.125 0 1.75-1.875 1.75-1.969zm0 0"/></svg><svg overflow="visible" x="89.364" y="33.057"><path d="M4.14-5.156c0-.125-.312-.266-.53-.266H2.78c.39-1.562.453-1.797.453-1.875 0-.203-.328-.453-.53-.453-.032 0-.579.14-.688.563l-.422 1.765H.64c-.25 0-.563.14-.563.36 0 .156.297.28.531.28h.813C.594-1.515.547-1.311.547-1.093c0 .64.656 1.219 1.312 1.219 1.22 0 2.079-1.875 2.079-1.969 0-.11-.282-.25-.329-.25-.109 0-.328.172-.375.297C2.72-.547 2.281-.39 1.875-.39c-.25 0-.172-.03-.172-.421 0-.282.016-.375.063-.579l.859-3.39h.953c.25 0 .563-.125.563-.375zm0 0"/></svg></g><g><svg overflow="visible" x="93.686" y="36.01"><path d="M4.906-3.5c0-.172-.343-.422-.5-.422-.078 0-.39.094-.484.25a3.37 3.37 0 00-.188.594l-.187.687-.328 1.36.344.11S3.046-.47 2.39-.47c-.563 0-.36-.39-.36-.531 0-.453.203-.984.453-1.625.094-.266.141-.375.141-.516 0-.406-.563-.875-1.016-.875-.843 0-1.421 1.297-1.421 1.438 0 .11.328.281.343.281.125 0 .344-.203.36-.297.218-.703.359-.86.703-.86.14 0 0-.077 0 .126s-.078.375-.125.484C1.079-1.813.984-1.5.984-1.14c0 .141.063.657.391.922.266.219.766.297.984.297.344 0 .782-.156 1.063-.406l-.36-.125c-.109.469-.14.703-.484 1.125-.234.25-.422.484-.86.484-.062 0-.312.047-.343.016.172-.031.313-.484.313-.484l.062-.11c0-.265-.453-.484-.531-.484C1 .094.516.422.516.813c0 .421.609.89 1.203.89.86 0 2.093-.812 2.343-1.86l.797-3.155c.047-.126.047-.141.047-.188zm0 0"/></svg></g><g><svg overflow="visible" x="99.105" y="33.057"><path d="M4.156 2.719c0-.047-.078-.172-.11-.203-1.234-.922-2-3.22-2-5.141v-1c0-1.906.767-4.203 2-5.14a.457.457 0 00.11-.188c0-.063-.25-.25-.312-.25a1.01 1.01 0 00-.203.062C2.312-8.156 1-5.67 1-3.625v1C1-.578 2.313 1.906 3.64 2.906c.016.016.188.063.204.063.062 0 .312-.203.312-.25zm0 0"/></svg><svg overflow="visible" x="103.756" y="33.057"><path d="M4.14-5.156c0-.125-.312-.266-.53-.266H2.78c.39-1.562.453-1.797.453-1.875 0-.203-.328-.453-.53-.453-.032 0-.579.14-.688.563l-.422 1.765H.64c-.25 0-.563.14-.563.36 0 .156.297.28.531.28h.813C.594-1.515.547-1.311.547-1.093c0 .64.656 1.219 1.312 1.219 1.22 0 2.079-1.875 2.079-1.969 0-.11-.282-.25-.329-.25-.109 0-.328.172-.375.297C2.72-.547 2.281-.39 1.875-.39c-.25 0-.172-.03-.172-.421 0-.282.016-.375.063-.579l.859-3.39h.953c.25 0 .563-.125.563-.375zm0 0"/></svg><svg overflow="visible" x="108.071" y="33.057"><path d="M3.64-2.625v-1c0-2.047-1.328-4.531-2.64-5.516a.774.774 0 00-.203-.062c-.063 0-.313.187-.313.25 0 .031.079.172.094.187 1.25.938 2.016 3.235 2.016 5.141v1c0 1.922-.766 4.219-2.016 5.14-.015.032-.094.157-.094.204 0 .047.25.25.313.25A.774.774 0 001 2.906c1.313-1 2.64-3.484 2.64-5.531zm0 0"/></svg><svg overflow="visible" x="112.722" y="33.057"><path d="M2.094 2.625V-8.859c0-.125-.297-.375-.438-.375-.125 0-.437.25-.437.375V2.625c0 .125.312.36.437.36.14 0 .438-.235.438-.36zm0 0"/></svg><svg overflow="visible" x="116.046" y="33.057"><path d="M2.094 2.625V-8.859c0-.125-.297-.375-.438-.375-.125 0-.437.25-.437.375V2.625c0 .125.312.36.437.36.14 0 .438-.235.438-.36zm0 0"/></svg></g><g><svg overflow="visible" x="122.681" y="33.057"><path d="M8.828-4.281c0-.125-.312-.375-.437-.375H.906c-.125 0-.437.25-.437.375 0 .14.312.375.437.375h7.485c.125 0 .437-.235.437-.375zm0 2.328c0-.14-.312-.375-.437-.375H.906c-.125 0-.437.234-.437.375 0 .125.312.36.437.36h7.485c.125 0 .437-.235.437-.36zm0 0"/></svg></g><g><svg overflow="visible" x="138.727" y="26.201"><path d="M3.39-3.656c0-.11-.312-.266-.453-.266h-.562l.281-1.094c0-.03.031-.078.031-.109 0-.156-.328-.422-.5-.422-.218 0-.546.297-.609.516-.047.203.063-.188-.281 1.11H.625c-.172 0-.484.155-.484.343 0 .11.312.265.468.265h.532L.687-1.484c-.046.203-.125.5-.125.609 0 .5.641.953 1.11.953.937 0 1.672-1.328 1.672-1.437 0-.11-.328-.266-.344-.266-.11 0-.313.172-.39.313-.235.53-.454.843-.907.843-.172 0-.094.047-.094-.25 0-.078.047-.265.063-.344l.562-2.25h.688c.156 0 .469-.156.469-.343zm0 0"/></svg><svg overflow="visible" x="142.342" y="26.201"><path d="M4.984-1.36c0-.109-.312-.265-.343-.265-.11 0-.329.188-.391.422-.094.406-.047.734-.39.734-.22 0-.079-.031-.079-.25 0-.14.078-.453.125-.656l.188-.766c.078-.312.093-.359.172-.625.046-.218.14-.625.14-.656 0-.187-.36-.437-.484-.437-.14 0-.547.265-.594.5l.344-.11c-.172-.281-.594-.547-1-.547-1.078 0-2.375 1.344-2.375 2.547 0 .813.766 1.547 1.484 1.547.453 0 .985-.297 1.078-.39.063.156.75.39.97.39.296 0 .655-.219.796-.484.188-.328.36-.922.36-.953zm-1.78-1.53c0 .03-.017.093-.017.124l-.406 1.563c-.047.234-.172.297-.36.453-.077.063-.265.281-.624.281-.313 0-.39-.062-.39-.656 0-.438.171-1.25.359-1.578.39-.672.671-.75.906-.75.594 0 .531.469.531.562zm0 0"/></svg><svg overflow="visible" x="147.531" y="26.201"><path d="M5.719-1.36c0-.109-.313-.265-.344-.265-.11 0-.328.203-.36.297-.202.672-.343.86-.687.86-.172 0 0 .046 0-.141 0-.188.047-.297.188-.672.109-.266.453-1.14.453-1.61 0-.812-.86-1.125-1.297-1.125-.703 0-1.313.485-1.563.813l.36.11c-.063-.579-.766-.923-1.11-.923-.359 0-.703.313-.812.5-.188.313-.36.907-.36.938 0 .11.329.281.344.281.125 0 .344-.187.39-.422.141-.484.079-.734.407-.734.219 0 .078.015.078.25 0 .156-.078.469-.14.687l-.188.75L.812-.687c-.03.109-.078.312-.078.343 0 .188.36.422.485.422.156 0 .437-.14.468-.219.047-.078.188-.468.22-.64l.187-.75.14-.563c.094-.344.047-.297.282-.64.234-.329.484-.72 1.125-.72.484 0 .28.267.28.423 0 .5-.358 1.437-.5 1.781-.093.234-.124.313-.124.453 0 .438.578.875 1.015.875.829 0 1.407-1.312 1.407-1.437zm0 0"/></svg><svg overflow="visible" x="153.439" y="26.201"><path d="M4.703-3.422c0-.187-.36-.437-.5-.437-.187 0-.562.328-.594.484l.36-.11c-.156-.218-.578-.53-1.016-.53C1.906-4.016.61-2.736.61-1.532.61-.671 1.406 0 2.08 0c.39 0 .905-.234 1.202-.5l-.36-.11c-.14.532-.046.22-.187.75-.093.36-.093.47-.406.75-.375.313-.578.266-.781.266-.39 0-.5-.031-.656-.062v.328c.218-.11.484-.469.484-.578C1.375.64 1 .375.844.375c-.235 0-.688.344-.688.656 0 .516.922.672 1.39.672C2.86 1.703 3.642.875 3.75.406l.922-3.656c.031-.125-.047-.063-.047-.063zm-.86.64s-.343-.093-.374 0l-.375 1.516c-.031.125.015.032-.125.188-.281.36-.547.531-.86.531-.421 0-.421-.203-.421-.64 0-.375.156-1.188.375-1.563.359-.578.609-.703.89-.703.594 0 .547.469.547.547zm0 0"/></svg></g><g><svg overflow="visible" x="158.159" y="26.201"><path d="M4.36-1.016c0-.062-.298-.312-.36-.312a.676.676 0 00-.281.14c-.656.766-1.485.72-1.64.72-.5 0-.626-.173-.626-.86 0-.11 0-.281.063-.578h.359c.234 0 .89-.016 1.344-.172.625-.219.953-.781.953-1.031 0-.47-.672-.907-1.25-.907-1 0-2.563.938-2.563 2.36 0 .86.735 1.734 1.704 1.734 1.421 0 2.296-.984 2.296-1.094zm-.97-2.093c0 .812-1.203.64-1.562.64h-.156c.297-1.047 1.016-.984 1.25-.984.375 0 .469.015.469.344zm0 0"/></svg><svg overflow="visible" x="162.695" y="26.201"><path d="M5.719-1.36c0-.109-.313-.265-.344-.265-.11 0-.328.203-.36.297-.202.672-.343.86-.687.86-.172 0 0 .046 0-.141 0-.188.047-.297.188-.672.109-.266.453-1.14.453-1.61 0-.812-.86-1.125-1.297-1.125-.703 0-1.313.485-1.563.813l.36.11c-.063-.579-.766-.923-1.11-.923-.359 0-.703.313-.812.5-.188.313-.36.907-.36.938 0 .11.329.281.344.281.125 0 .344-.187.39-.422.141-.484.079-.734.407-.734.219 0 .078.015.078.25 0 .156-.078.469-.14.687l-.188.75L.812-.687c-.03.109-.078.312-.078.343 0 .188.36.422.485.422.156 0 .437-.14.468-.219.047-.078.188-.468.22-.64l.187-.75.14-.563c.094-.344.047-.297.282-.64.234-.329.484-.72 1.125-.72.484 0 .28.267.28.423 0 .5-.358 1.437-.5 1.781-.093.234-.124.313-.124.453 0 .438.578.875 1.015.875.829 0 1.407-1.312 1.407-1.437zm0 0"/></svg><svg overflow="visible" x="168.603" y="26.201"><path d="M3.39-3.656c0-.11-.312-.266-.453-.266h-.562l.281-1.094c0-.03.031-.078.031-.109 0-.156-.328-.422-.5-.422-.218 0-.546.297-.609.516-.047.203.063-.188-.281 1.11H.625c-.172 0-.484.155-.484.343 0 .11.312.265.468.265h.532L.687-1.484c-.046.203-.125.5-.125.609 0 .5.641.953 1.11.953.937 0 1.672-1.328 1.672-1.437 0-.11-.328-.266-.344-.266-.11 0-.313.172-.39.313-.235.53-.454.843-.907.843-.172 0-.094.047-.094-.25 0-.078.047-.265.063-.344l.562-2.25h.688c.156 0 .469-.156.469-.343zm0 0"/></svg></g><g><svg overflow="visible" x="172.218" y="28.269"><path d="M4.188-2.547c0-.14-.313-.39-.422-.39-.235 0-.5.39-.532.546l-.312 1.25a1.057 1.057 0 00-.063.235c0 .031-.125.406-.64.406-.266 0-.281.047-.281-.328 0-.328.171-.766.343-1.203a.664.664 0 00.078-.266c0-.297-.484-.703-.843-.703C.875-3 .344-2.062.344-1.89c0 .077.297.25.328.25.094 0 .297-.204.328-.298.125-.406.219-.5.484-.5.11 0-.03-.124-.03.047 0 .11-.032.204-.079.313-.281.703-.344.922-.344 1.156 0 .672.766.985 1.172.985.328 0 .719-.22.875-.344l-.344-.125c-.078.328-.093.469-.375.765-.14.125-.265.313-.64.313-.11 0-.188.031-.094.125-.11.015.125-.39.125-.453 0-.172-.344-.422-.469-.422-.172 0-.578.312-.578.594 0 .296.516.718 1.016.718.687 0 1.687-.64 1.875-1.406l.562-2.234c.032-.094-.031-.016-.031-.016zm0 0"/></svg></g><g><svg overflow="visible" x="177.086" y="26.201"><path d="M2.984 1.828a.933.933 0 00-.093-.172C2.016 1 1.5-.562 1.5-1.906v-.703c0-1.329.516-2.891 1.39-3.547a.702.702 0 00.094-.188c0-.031-.25-.234-.28-.234a1.01 1.01 0 00-.204.062C1.578-5.828.64-4.03.64-2.609v.703c0 1.437.938 3.234 1.86 3.922.016.015.188.062.203.062.031 0 .281-.203.281-.25zm0 0"/></svg><svg overflow="visible" x="180.341" y="26.201"><path d="M3.39-3.656c0-.11-.312-.266-.453-.266h-.562l.281-1.094c0-.03.031-.078.031-.109 0-.156-.328-.422-.5-.422-.218 0-.546.297-.609.516-.047.203.063-.188-.281 1.11H.625c-.172 0-.484.155-.484.343 0 .11.312.265.468.265h.532L.687-1.484c-.046.203-.125.5-.125.609 0 .5.641.953 1.11.953.937 0 1.672-1.328 1.672-1.437 0-.11-.328-.266-.344-.266-.11 0-.313.172-.39.313-.235.53-.454.843-.907.843-.172 0-.094.047-.094-.25 0-.078.047-.265.063-.344l.562-2.25h.688c.156 0 .469-.156.469-.343zm0 0"/></svg><svg overflow="visible" x="183.957" y="26.201"><path d="M2.625-1.906v-.703c0-1.422-.953-3.22-1.875-3.907a.88.88 0 00-.188-.062c-.046 0-.296.203-.296.234 0 .032.078.172.093.188C1.234-5.5 1.75-3.938 1.75-2.61v.703C1.75-.563 1.234 1 .36 1.656a.933.933 0 00-.094.172c0 .047.25.25.296.25a.88.88 0 00.188-.062c.922-.688 1.875-2.485 1.875-3.922zm0 0"/></svg></g><path d="M136.508 30.066h52.922" fill="none" stroke-width=".478" stroke="#000" stroke-miterlimit="10"/><g><svg overflow="visible" x="136.508" y="37.182"><path d="M1.547 1.766v-8.032c0-.093-.297-.328-.375-.328-.094 0-.39.235-.39.328v8.032c0 .093.296.328.39.328.078 0 .375-.235.375-.328zm0 0"/></svg><svg overflow="visible" x="138.834" y="37.182"><path d="M1.547 1.766v-8.032c0-.093-.297-.328-.375-.328-.094 0-.39.235-.39.328v8.032c0 .093.296.328.39.328.078 0 .375-.235.375-.328zm0 0"/></svg><svg overflow="visible" x="141.161" y="37.182"><path d="M3.39-3.656c0-.11-.312-.266-.453-.266h-.562l.281-1.094c0-.03.031-.078.031-.109 0-.156-.328-.422-.5-.422-.218 0-.546.297-.609.516-.047.203.063-.188-.281 1.11H.625c-.172 0-.484.155-.484.343 0 .11.312.265.468.265h.532L.687-1.484c-.046.203-.125.5-.125.609 0 .5.641.953 1.11.953.937 0 1.672-1.328 1.672-1.437 0-.11-.328-.266-.344-.266-.11 0-.313.172-.39.313-.235.53-.454.843-.907.843-.172 0-.094.047-.094-.25 0-.078.047-.265.063-.344l.562-2.25h.688c.156 0 .469-.156.469-.343zm0 0"/></svg><svg overflow="visible" x="144.776" y="37.182"><path d="M4.984-1.36c0-.109-.312-.265-.343-.265-.11 0-.329.188-.391.422-.094.406-.047.734-.39.734-.22 0-.079-.031-.079-.25 0-.14.078-.453.125-.656l.188-.766c.078-.312.093-.359.172-.625.046-.218.14-.625.14-.656 0-.187-.36-.437-.484-.437-.14 0-.547.265-.594.5l.344-.11c-.172-.281-.594-.547-1-.547-1.078 0-2.375 1.344-2.375 2.547 0 .813.766 1.547 1.484 1.547.453 0 .985-.297 1.078-.39.063.156.75.39.97.39.296 0 .655-.219.796-.484.188-.328.36-.922.36-.953zm-1.78-1.53c0 .03-.017.093-.017.124l-.406 1.563c-.047.234-.172.297-.36.453-.077.063-.265.281-.624.281-.313 0-.39-.062-.39-.656 0-.438.171-1.25.359-1.578.39-.672.671-.75.906-.75.594 0 .531.469.531.562zm0 0"/></svg><svg overflow="visible" x="149.965" y="37.182"><path d="M5.719-1.36c0-.109-.313-.265-.344-.265-.11 0-.328.203-.36.297-.202.672-.343.86-.687.86-.172 0 0 .046 0-.141 0-.188.047-.297.188-.672.109-.266.453-1.14.453-1.61 0-.812-.86-1.125-1.297-1.125-.703 0-1.313.485-1.563.813l.36.11c-.063-.579-.766-.923-1.11-.923-.359 0-.703.313-.812.5-.188.313-.36.907-.36.938 0 .11.329.281.344.281.125 0 .344-.187.39-.422.141-.484.079-.734.407-.734.219 0 .078.015.078.25 0 .156-.078.469-.14.687l-.188.75L.812-.687c-.03.109-.078.312-.078.343 0 .188.36.422.485.422.156 0 .437-.14.468-.219.047-.078.188-.468.22-.64l.187-.75.14-.563c.094-.344.047-.297.282-.64.234-.329.484-.72 1.125-.72.484 0 .28.267.28.423 0 .5-.358 1.437-.5 1.781-.093.234-.124.313-.124.453 0 .438.578.875 1.015.875.829 0 1.407-1.312 1.407-1.437zm0 0"/></svg><svg overflow="visible" x="155.873" y="37.182"><path d="M4.703-3.422c0-.187-.36-.437-.5-.437-.187 0-.562.328-.594.484l.36-.11c-.156-.218-.578-.53-1.016-.53C1.906-4.016.61-2.736.61-1.532.61-.671 1.406 0 2.08 0c.39 0 .905-.234 1.202-.5l-.36-.11c-.14.532-.046.22-.187.75-.093.36-.093.47-.406.75-.375.313-.578.266-.781.266-.39 0-.5-.031-.656-.062v.328c.218-.11.484-.469.484-.578C1.375.64 1 .375.844.375c-.235 0-.688.344-.688.656 0 .516.922.672 1.39.672C2.86 1.703 3.642.875 3.75.406l.922-3.656c.031-.125-.047-.063-.047-.063zm-.86.64s-.343-.093-.374 0l-.375 1.516c-.031.125.015.032-.125.188-.281.36-.547.531-.86.531-.421 0-.421-.203-.421-.64 0-.375.156-1.188.375-1.563.359-.578.609-.703.89-.703.594 0 .547.469.547.547zm0 0"/></svg></g><g><svg overflow="visible" x="160.593" y="37.182"><path d="M4.36-1.016c0-.062-.298-.312-.36-.312a.676.676 0 00-.281.14c-.656.766-1.485.72-1.64.72-.5 0-.626-.173-.626-.86 0-.11 0-.281.063-.578h.359c.234 0 .89-.016 1.344-.172.625-.219.953-.781.953-1.031 0-.47-.672-.907-1.25-.907-1 0-2.563.938-2.563 2.36 0 .86.735 1.734 1.704 1.734 1.421 0 2.296-.984 2.296-1.094zm-.97-2.093c0 .812-1.203.64-1.562.64h-.156c.297-1.047 1.016-.984 1.25-.984.375 0 .469.015.469.344zm0 0"/></svg><svg overflow="visible" x="165.129" y="37.182"><path d="M5.719-1.36c0-.109-.313-.265-.344-.265-.11 0-.328.203-.36.297-.202.672-.343.86-.687.86-.172 0 0 .046 0-.141 0-.188.047-.297.188-.672.109-.266.453-1.14.453-1.61 0-.812-.86-1.125-1.297-1.125-.703 0-1.313.485-1.563.813l.36.11c-.063-.579-.766-.923-1.11-.923-.359 0-.703.313-.812.5-.188.313-.36.907-.36.938 0 .11.329.281.344.281.125 0 .344-.187.39-.422.141-.484.079-.734.407-.734.219 0 .078.015.078.25 0 .156-.078.469-.14.687l-.188.75L.812-.687c-.03.109-.078.312-.078.343 0 .188.36.422.485.422.156 0 .437-.14.468-.219.047-.078.188-.468.22-.64l.187-.75.14-.563c.094-.344.047-.297.282-.64.234-.329.484-.72 1.125-.72.484 0 .28.267.28.423 0 .5-.358 1.437-.5 1.781-.093.234-.124.313-.124.453 0 .438.578.875 1.015.875.829 0 1.407-1.312 1.407-1.437zm0 0"/></svg><svg overflow="visible" x="171.037" y="37.182"><path d="M3.39-3.656c0-.11-.312-.266-.453-.266h-.562l.281-1.094c0-.03.031-.078.031-.109 0-.156-.328-.422-.5-.422-.218 0-.546.297-.609.516-.047.203.063-.188-.281 1.11H.625c-.172 0-.484.155-.484.343 0 .11.312.265.468.265h.532L.687-1.484c-.046.203-.125.5-.125.609 0 .5.641.953 1.11.953.937 0 1.672-1.328 1.672-1.437 0-.11-.328-.266-.344-.266-.11 0-.313.172-.39.313-.235.53-.454.843-.907.843-.172 0-.094.047-.094-.25 0-.078.047-.265.063-.344l.562-2.25h.688c.156 0 .469-.156.469-.343zm0 0"/></svg><svg overflow="visible" x="174.652" y="37.182"><path d="M2.984 1.828a.933.933 0 00-.093-.172C2.016 1 1.5-.562 1.5-1.906v-.703c0-1.329.516-2.891 1.39-3.547a.702.702 0 00.094-.188c0-.031-.25-.234-.28-.234a1.01 1.01 0 00-.204.062C1.578-5.828.64-4.03.64-2.609v.703c0 1.437.938 3.234 1.86 3.922.016.015.188.062.203.062.031 0 .281-.203.281-.25zm0 0"/></svg><svg overflow="visible" x="177.907" y="37.182"><path d="M3.39-3.656c0-.11-.312-.266-.453-.266h-.562l.281-1.094c0-.03.031-.078.031-.109 0-.156-.328-.422-.5-.422-.218 0-.546.297-.609.516-.047.203.063-.188-.281 1.11H.625c-.172 0-.484.155-.484.343 0 .11.312.265.468.265h.532L.687-1.484c-.046.203-.125.5-.125.609 0 .5.641.953 1.11.953.937 0 1.672-1.328 1.672-1.437 0-.11-.328-.266-.344-.266-.11 0-.313.172-.39.313-.235.53-.454.843-.907.843-.172 0-.094.047-.094-.25 0-.078.047-.265.063-.344l.562-2.25h.688c.156 0 .469-.156.469-.343zm0 0"/></svg><svg overflow="visible" x="181.523" y="37.182"><path d="M2.625-1.906v-.703c0-1.422-.953-3.22-1.875-3.907a.88.88 0 00-.188-.062c-.046 0-.296.203-.296.234 0 .032.078.172.093.188C1.234-5.5 1.75-3.938 1.75-2.61v.703C1.75-.563 1.234 1 .36 1.656a.933.933 0 00-.094.172c0 .047.25.25.296.25a.88.88 0 00.188-.062c.922-.688 1.875-2.485 1.875-3.922zm0 0"/></svg><svg overflow="visible" x="184.778" y="37.182"><path d="M1.547 1.766v-8.032c0-.093-.297-.328-.375-.328-.094 0-.39.235-.39.328v8.032c0 .093.296.328.39.328.078 0 .375-.235.375-.328zm0 0"/></svg><svg overflow="visible" x="187.105" y="37.182"><path d="M1.547 1.766v-8.032c0-.093-.297-.328-.375-.328-.094 0-.39.235-.39.328v8.032c0 .093.296.328.39.328.078 0 .375-.235.375-.328zm0 0"/></svg></g><g><svg overflow="visible" x="193.948" y="33.057"><path d="M8.828-4.281c0-.125-.312-.375-.437-.375H.906c-.125 0-.437.25-.437.375 0 .14.312.375.437.375h7.485c.125 0 .437-.235.437-.375zm0 2.328c0-.14-.312-.375-.437-.375H.906c-.125 0-.437.234-.437.375 0 .125.312.36.437.36h7.485c.125 0 .437-.235.437-.36zm0 0"/></svg></g><g><svg overflow="visible" x="207.766" y="26.201"><path d="M7.219-4.688c0-.64-.86-1.343-1.938-1.343H2.234c-.171 0-.484.156-.484.343 0 .11.313.266.484.266l.141-.031s.016.031.172.047c.172.015-.016-.125-.016-.032l.344.11s-.344-.063-.375.062L1.375-.812c-.063.28.125.187-.516.187-.14 0-.468.172-.468.344C.39-.156.703 0 .859 0h3.235C5.5 0 6.797-1.125 6.797-1.953c0-.594-.766-1.266-1.64-1.36v.329c1-.188 2.062-.985 2.062-1.704zm-1.235-.015c0 .687-.562 1.297-1.671 1.297H3.171l.484-1.89c.063-.25-.14-.126.219-.126h1.266c.859 0 .843.406.843.719zm-.453 2.687c0 .829-.64 1.391-1.656 1.391H2.531c-.265 0-.062.156-.062.078l-.063.125s.063-.172.094-.297l.547-2.14H4.64c.796 0 .89.359.89.843zm0 0"/></svg></g><g><svg overflow="visible" x="214.988" y="23.163"><path d="M2.64-3.594c0-.203-.374-.562-.593-.562-.156 0-.5.281-.531.39L.219-.562h.656l1.64-2.704c.032-.062.126-.25.126-.328zm0 0"/></svg></g><g><svg overflow="visible" x="214.988" y="28.269"><path d="M4.188-2.547c0-.14-.313-.39-.422-.39-.235 0-.5.39-.532.546l-.312 1.25a1.057 1.057 0 00-.063.235c0 .031-.125.406-.64.406-.266 0-.281.047-.281-.328 0-.328.171-.766.343-1.203a.664.664 0 00.078-.266c0-.297-.484-.703-.843-.703C.875-3 .344-2.062.344-1.89c0 .077.297.25.328.25.094 0 .297-.204.328-.298.125-.406.219-.5.484-.5.11 0-.03-.124-.03.047 0 .11-.032.204-.079.313-.281.703-.344.922-.344 1.156 0 .672.766.985 1.172.985.328 0 .719-.22.875-.344l-.344-.125c-.078.328-.093.469-.375.765-.14.125-.265.313-.64.313-.11 0-.188.031-.094.125-.11.015.125-.39.125-.453 0-.172-.344-.422-.469-.422-.172 0-.578.312-.578.594 0 .296.516.718 1.016.718.687 0 1.687-.64 1.875-1.406l.562-2.234c.032-.094-.031-.016-.031-.016zm0 0"/></svg></g><g><svg overflow="visible" x="219.856" y="26.201"><path d="M2.984 1.828a.933.933 0 00-.093-.172C2.016 1 1.5-.562 1.5-1.906v-.703c0-1.329.516-2.891 1.39-3.547a.702.702 0 00.094-.188c0-.031-.25-.234-.28-.234a1.01 1.01 0 00-.204.062C1.578-5.828.64-4.03.64-2.609v.703c0 1.437.938 3.234 1.86 3.922.016.015.188.062.203.062.031 0 .281-.203.281-.25zm0 0"/></svg><svg overflow="visible" x="223.111" y="26.201"><path d="M3.39-3.656c0-.11-.312-.266-.453-.266h-.562l.281-1.094c0-.03.031-.078.031-.109 0-.156-.328-.422-.5-.422-.218 0-.546.297-.609.516-.047.203.063-.188-.281 1.11H.625c-.172 0-.484.155-.484.343 0 .11.312.265.468.265h.532L.687-1.484c-.046.203-.125.5-.125.609 0 .5.641.953 1.11.953.937 0 1.672-1.328 1.672-1.437 0-.11-.328-.266-.344-.266-.11 0-.313.172-.39.313-.235.53-.454.843-.907.843-.172 0-.094.047-.094-.25 0-.078.047-.265.063-.344l.562-2.25h.688c.156 0 .469-.156.469-.343zm0 0"/></svg><svg overflow="visible" x="226.727" y="26.201"><path d="M2.625-1.906v-.703c0-1.422-.953-3.22-1.875-3.907a.88.88 0 00-.188-.062c-.046 0-.296.203-.296.234 0 .032.078.172.093.188C1.234-5.5 1.75-3.938 1.75-2.61v.703C1.75-.563 1.234 1 .36 1.656a.933.933 0 00-.094.172c0 .047.25.25.296.25a.88.88 0 00.188-.062c.922-.688 1.875-2.485 1.875-3.922zm0 0"/></svg></g><path d="M207.766 30.066h22.214" fill="none" stroke-width=".478" stroke="#000" stroke-miterlimit="10"/><g><svg overflow="visible" x="216.35" y="37.182"><path d="M5.031-5.86c0-.03-.25-.265-.343-.265-.172 0-.875.063-1.079.078-.062.016-.39.172-.39.36 0 .109.328.265.422.265.406 0 .187-.094.187-.031 0 .062-.015.11-.031.187l-.469 1.907.344-.11c-.172-.281-.594-.547-1-.547-1.078 0-2.375 1.344-2.375 2.547 0 .813.766 1.547 1.484 1.547.453 0 .985-.297 1.078-.39.063.156.75.39.97.39.296 0 .655-.219.796-.484.188-.328.36-.922.36-.953 0-.11-.313-.266-.344-.266-.11 0-.329.188-.391.422-.094.406-.047.734-.39.734-.22 0-.079-.031-.079-.25 0-.156.016-.234.047-.344L4.984-5.75c-.046.125-.03.016-.03.016zM3.203-2.89c0 .03-.015.093-.015.124L2.78-1.203c-.047.234-.172.297-.36.453-.077.063-.265.281-.624.281-.313 0-.39-.062-.39-.656 0-.438.171-1.25.359-1.578.39-.672.671-.75.906-.75.594 0 .531.469.531.562zm0 0"/></svg></g></svg>