<svg xmlns="http://www.w3.org/2000/svg" xmlns:xlink="http://www.w3.org/1999/xlink" width="339px" height="60" viewBox="0 0 254 45"><svg overflow="visible" x="-.703" y="10.241"><path d="M5.984-7.14c-.03-.063-.03-.048-.062-.11-.016-.094-.016-.172-.016-.406-1.812.468-3.031 1.843-3.031 3.953V0h1.219v-3.703c0-1.719.422-2.828 1.984-3.25zm0 0"/></svg><svg overflow="visible" x="-.703" y="16.743"><path d="M4.094-.125v-7.266H2.875V0h1.219zm0 0"/></svg><svg overflow="visible" x="-.703" y="30.395"><path d="M4.094-.125v-3.578c0-1.922-.766-3.235-1.782-3.703v.265c1.016-.468 1.782-1.765 1.782-3.687v-3.703H2.875v3.703c0 2.062-.36 3.187-1.922 3.187.078.204.094.297.094.375 0 .079-.016.172-.094.375 1.563 0 1.922 1.125 1.922 3.188V0h1.219zm0 0"/></svg><svg overflow="visible" x="-.703" y="36.897"><path d="M4.094-.125v-7.266H2.875V0h1.219zm0 0"/></svg><svg overflow="visible" x="-.703" y="43.638"><path d="M5.89-.734c-1.374-.36-1.796-1.47-1.796-3.188v-3.703H2.875v3.703c0 2.094 1.219 3.469 3.031 3.969 0-.266 0-.344.016-.422.031-.078.031-.063.156-.313zm0 0"/></svg><svg overflow="visible" x="11.32" y="10.745"><path d="M6.234-1.25l-.171-.297-.454.297c-.343.219-.5.313-.625.313-.078 0-.03.03-.03-.11 0-.047.015-.187.03-.234l.782-3.297c.093-.344.14-.688.14-.89 0-.266-.265-.563-.5-.563-.5 0-1.437.5-2.14 1.156-.454.422-.797.828-1.407 1.703l.235.094.453-1.938c.047-.203.078-.343.078-.484 0-.25-.234-.531-.406-.531-.266 0-.828.312-1.703.922l-.391.296.172.485.547-.36c.437-.28.39-.265.469-.265.14 0 .078 0 .078.172 0 .61-.5 2.922-.985 4.656l.172.25c.36-.094.625-.172 1.016-.234.234-1.625.468-2.313 1-3.125.656-1.016 1.453-1.72 1.984-1.72.125 0 .063-.015.063.157 0 .219-.032.469-.141.86l-.61 2.53c-.109.438-.156.72-.156.907 0 .297.266.61.5.61.313 0 .829-.282 2.079-1.22zm0 0"/></svg><svg overflow="visible" x="17.967" y="10.745"><path d="M5.047-4.094c0-1.125-.734-1.937-1.719-1.937-.515 0-1.187.25-1.719.625-.968.703-1.546 2-1.546 3.453C.063-.687.734.125 1.734.125c.657 0 1.47-.344 2-.844.75-.703 1.313-2.156 1.313-3.375zm-1.188.203C3.86-2.75 3.531-1.578 3-.937c-.219.25-.422.359-.781.359-.703 0-.969-.406-.969-1.36 0-1.343.422-2.718 1.016-3.203.156-.125.328-.171.609-.171.734 0 .984.406.984 1.421zm0 0"/></svg><svg overflow="visible" x="23.275" y="10.745"><path d="M4.594-5.953c-.14-.063-.188-.078-.25-.078-.36 0-.844.328-1.266.937-.406.594-.86 1.25-1.172 1.907h.282L2.5-4.704c.063-.25.14-.531.14-.813 0-.234-.218-.515-.406-.515-.25 0-.812.297-1.703.922l-.39.296.187.485.547-.36c.328-.218.375-.234.469-.234.125 0 .062-.031.062.125 0 .703-.515 3.156-1 4.75l.235.172c.296-.094.562-.156.953-.203l.328-1.563c.219-.984.453-1.53.984-2.203.406-.531.625-.75.89-.75.188 0 .204.032.36.235h.36c.046-.594.109-.97.218-1.532zm0 0"/></svg><svg overflow="visible" x="28.201" y="10.745"><path d="M8.938-1.25l-.172-.297-.454.297c-.359.219-.5.313-.624.313-.079 0-.032.03-.032-.11 0-.11.032-.219.094-.469l.89-3.546c.047-.204.079-.407.079-.5 0-.204-.25-.47-.438-.47-.344 0-.906.266-1.64.766-.75.547-1.172.97-1.75 1.782l.234.109.36-1.64c.046-.25.077-.423.077-.5 0-.235-.25-.516-.437-.516-.36 0-1.016.312-1.672.812-.531.407-.765.657-1.547 1.703l.25.094.39-1.594c.048-.187.079-.359.079-.5 0-.234-.25-.515-.406-.515-.266 0-.813.297-1.703.922l-.391.296.172.485.547-.36c.437-.28.39-.265.469-.265.14 0 .078 0 .078.172 0 .61-.5 2.922-.985 4.625l.078.281L1.5-.094l.297-1.328c.281-1.328.562-1.937 1.234-2.656.5-.547.938-.875 1.266-.875.094 0 0-.031 0 .125 0 .422-.25 1.781-.766 3.875l-.187.797.14.281 1-.219.266-1.39c.203-.97.563-1.766 1.094-2.36C6.5-4.563 7-4.954 7.39-4.954c.093 0 .015-.015.015.173 0 .281-.015.453-.312 1.5l-.5 1.875c-.11.328-.157.64-.157.906 0 .297.266.61.5.61.313 0 .829-.282 2.079-1.22zm0 0"/></svg><svg overflow="visible" x="37.502" y="10.745"><path d="M4.984-1.14l-.156-.485c-.25.203-.266.219-.328.266-.375.312-.453.39-.625.39-.125 0-.047.031-.047-.156 0-.047 0-.078.016-.125l1.11-4.578-.25-.203-.438.218c-.438-.156-.672-.218-.985-.218-.344 0-.578.062-.906.218-.75.375-1.234.766-1.531 1.36l-.047.094C.28-3.297-.093-1.875-.093-.922c0 .516.327 1.047.546 1.047.25 0 .797-.281 1.234-.656.516-.453.985-1.016 1.641-1.938l-.234-.094-.344 1.516a2.715 2.715 0 00-.078.61c0 .265.25.562.437.562.266 0 .86-.36 1.891-1.219zM3.672-5.079c-.266 1.281-.453 1.797-.844 2.406C2.156-1.656 1.516-.969 1.125-.969c-.14 0-.078-.015-.078-.344 0-.765.297-2.093.719-3.093.296-.688.453-.766 1.03-.766.282 0 .5.047.86.172zm0 0"/></svg><svg overflow="visible" x="42.81" y="10.745"><path d="M3.094-8.86l-.219-.187c-.75.375-1.063.438-2.047.531l-.094.5h.735c.281 0 .265-.046.265.141 0 .156-.046.422-.078.578L.516-1.703C.344-1.093.28-.75.28-.484c0 .28.281.593.5.593.313 0 .86-.296 2.094-1.218l-.25-.438-.469.297c-.344.234-.5.313-.61.313-.093 0-.03.03-.03-.11s.03-.297.078-.437L3.14-8.813zm0 0"/></svg><svg overflow="visible" x="46.133" y="13.518"><path d="M4.86-4.406c-.126-.063-.313-.125-.391-.125-.39 0-.89.36-1.485 1.172l-.359.484.266.094-.063-.422c-.11-.875-.515-1.328-1.094-1.328-.25 0-.578.11-.671.218l-.641.875.406.22c.36-.376.453-.454.625-.454.328 0 .375.219.531 1.094l.11.515-.328.485c-.422.594-.641.828-.907.828-.14 0-.093.11-.109.063l-.172-.407-.453.063c0 .297-.016.406-.078.687-.016.11-.016.14-.031.266.187.11.468.172.578.172.312 0 .797-.281 1.094-.703l.734-1.032-.266-.109.11.625c.125.75.5 1.219.843 1.219.22 0 .625-.188.938-.438l.531-.437-.203-.438c-.516.39-.64.485-.781.485-.156 0-.172-.047-.266-.235-.094-.156-.156-.39-.203-.656l-.172-.844.297-.375c.453-.578.61-.75.906-.75.157 0 .11-.062.219.235l.36-.094.187-.922zm0 0"/></svg><svg overflow="visible" x="51.63" y="10.745"><path d="M4.203-7.828a.735.735 0 01-.187-.14c-.063-.063-.11-.126-.22-.329-1.593 1.61-2.5 3.266-2.5 4.781v.797c0 1.516.907 3.172 2.5 4.781.11-.203.157-.265.22-.328.062-.062.125-.109.312-.203C2.875.063 2.281-1.344 2.281-2.719v-.797c0-1.39.594-2.78 2.047-4.25zm0 0"/></svg><svg overflow="visible" x="56.699" y="10.745"><path d="M3.703-5.516c-.453.047-.86.063-1.156.063.172-.984.297-1.578.531-2.25l-.25-.328a7.16 7.16 0 01-1.094.531l-.296 2.031c-.391.203-.704.328-1.063.407l-.047.406h1l-.64 3.25C.625-1.11.53-.813.53-.5c0 .297.266.61.5.61.422 0 .922-.282 1.86-1.032.218-.172.14-.125.437-.36l-.25-.437-.672.469c-.36.25-.484.313-.625.313-.093 0-.031.046-.031-.11 0-.297.156-1.234.516-3l.14-.61h1.266l.203-.89zm0 0"/></svg><svg overflow="visible" x="60.74" y="10.745"><path d="M3.766-2.719v-.797c0-1.515-.907-3.171-2.516-4.78-.11.202-.156.265-.203.327-.063.063-.125.11-.313.203 1.438 1.47 2.032 2.86 2.032 4.25v.797c0 1.375-.594 2.781-2.032 4.25.188.094.25.14.313.203.047.063.094.125.203.329C2.86.452 3.766-1.204 3.766-2.72zm0 0"/></svg><svg overflow="visible" x="69.12" y="10.745"><path d="M8.266-4.078a1.419 1.419 0 01-.047-.36c0-.109.015-.234.062-.484h-7.5c.063.25.063.375.063.484 0 .125 0 .235-.063.5h7.5zm0 2.625a1.332 1.332 0 01-.047-.36c0-.109.015-.234.062-.484h-7.5c.063.25.063.375.063.485 0 .125 0 .25-.063.5h7.5zm0 0"/></svg><svg overflow="visible" x="88.129" y="10.745"><path d="M-.813-7.234a29.143 29.143 0 00-2.171-1.422c-.829.484-1.516.937-2.266 1.484l.313.547L-3-7.688l1.953 1.063.313-.547zm0 0"/></svg><svg overflow="visible" x="81.542" y="10.745"><path d="M5.875-5.875c-.14-.078-.344-.156-.453-.156-.469 0-1.063.468-1.797 1.578l-.453.656.25.094-.078-.578c-.14-1.188-.594-1.75-1.297-1.75-.313 0-.688.14-.797.297L.484-4.61l.407.25c.437-.485.578-.61.812-.61.39 0 .516.36.719 1.532l.125.718-.438.656C1.594-1.25 1.297-.905.953-.905c-.172 0-.172.078-.203.015l-.188-.468-.453.062c0 .36-.03.516-.093.89-.032.141-.047.173-.063.329.219.125.531.203.672.203.39 0 .953-.375 1.328-.938l.906-1.406-.234-.094.125.829c.172 1.015.578 1.609 1 1.609.266 0 .75-.234 1.125-.578l.64-.578-.218-.469c-.578.453-.766.61-.953.61-.188 0-.25-.094-.453-.5.015.046-.11-.407-.172-.75L3.5-3.313l.39-.532c.563-.765.782-1.015 1.157-1.015.187 0 .187-.032.312.312l.36-.11.203-1.171zm0 0"/></svg><svg overflow="visible" x="87.651" y="10.745"><path d="M4.203-7.828a.735.735 0 01-.187-.14c-.063-.063-.11-.126-.22-.329-1.593 1.61-2.5 3.266-2.5 4.781v.797c0 1.516.907 3.172 2.5 4.781.11-.203.157-.265.22-.328.062-.062.125-.109.312-.203C2.875.063 2.281-1.344 2.281-2.719v-.797c0-1.39.594-2.78 2.047-4.25zm0 0"/></svg><svg overflow="visible" x="92.72" y="10.745"><path d="M3.703-5.516c-.453.047-.86.063-1.156.063.172-.984.297-1.578.531-2.25l-.25-.328a7.16 7.16 0 01-1.094.531l-.296 2.031c-.391.203-.704.328-1.063.407l-.047.406h1l-.64 3.25C.625-1.11.53-.813.53-.5c0 .297.266.61.5.61.422 0 .922-.282 1.86-1.032.218-.172.14-.125.437-.36l-.25-.437-.672.469c-.36.25-.484.313-.625.313-.093 0-.031.046-.031-.11 0-.297.156-1.234.516-3l.14-.61h1.266l.203-.89zm0 0"/></svg><svg overflow="visible" x="96.761" y="10.745"><path d="M3.766-2.719v-.797c0-1.515-.907-3.171-2.516-4.78-.11.202-.156.265-.203.327-.063.063-.125.11-.313.203 1.438 1.47 2.032 2.86 2.032 4.25v.797c0 1.375-.594 2.781-2.032 4.25.188.094.25.14.313.203.047.063.094.125.203.329C2.86.452 3.766-1.204 3.766-2.72zm0 0"/></svg><svg overflow="visible" x="104.484" y="10.745"><path d="M2.516-3.125c0-.422-.407-.844-.844-.844-.422 0-.86.422-.86.844 0 .438.438.86.86.86.437 0 .844-.422.844-.86zm0 0"/></svg><svg overflow="visible" x="110.498" y="10.745"><path d="M.172-2.64A2.858 2.858 0 003.047.233c.625 0 1.61-.265 1.734-.437l.313-.484-.235-.344c-.593.312-.859.39-1.296.39C2.234-.64 1.5-1.547 1.5-3.125c0-1.281.453-1.86 1.531-1.86.531 0 1 .204 1.172.454l.094.812h.61c0-.687.046-1.172.171-1.656-.531-.328-1.031-.5-1.531-.5-.578 0-1.344.266-2.063.719C.641-4.625.172-3.688.172-2.641zm0 0"/></svg><svg overflow="visible" x="115.806" y="10.745"><path d="M.234-2.719c0 1.672 1.22 2.953 2.75 2.953 1.844 0 3.297-1.406 3.297-3.203 0-1.61-1.312-2.906-2.953-2.906C1.594-5.875.234-4.5.234-2.719zm1.391-.406c0-1.438.438-2.094 1.5-2.094 1.094 0 1.766 1.078 1.766 2.703 0 1.375-.47 2.094-1.438 2.094-1.172 0-1.828-1.016-1.828-2.703zm0 0"/></svg><svg overflow="visible" x="122.334" y="10.745"><path d="M.36-.047C.983.156 1.452.234 2 .234c1.563 0 2.813-.968 2.813-2.14 0-.36-.141-.735-.375-.969-.313-.313-.797-.484-1.86-.688-.969-.187-1.172-.296-1.172-.843 0-.61.297-.813 1.016-.813.812 0 1.265.297 1.265.86v.406h.61c.016-.828.031-1.11.078-1.563-.781-.265-1.203-.359-1.703-.359C1.297-5.875.297-5.078.297-4c0 .563.406 1.11.953 1.36.328.14.969.328 1.781.515.531.11.61.234.61.688 0 .656-.454.968-1.297.968-.875 0-1.36-.281-1.36-.875v-.625h-.64c0 .953-.031 1.313-.14 1.875zm0 0"/></svg><svg overflow="visible" x="130.591" y="5.137"><path d="M7-4.484l-.125-.172c-.328.11-.75.203-1.078.203-.11 0-.36.016-.594.016l-3.031-.079c-.735 0-1.156.422-1.469 1.25l.328.172.188-.14c.25-.61.484-.5 1.031-.5h.266C1.75-1.844 1.422-1.328.546-.094L.782.11l.86-.265C2-.86 2.656-2.296 3.14-3.72l1.5.063c-.125.406-.704 2.015-.72 2.578 0 .922.517 1.172.813 1.172.5 0 .875-.14 1.563-.672l-.188-.406-.406.25.219.187c.016-.015-.36-.031-.531-.031-.454 0-.422-.125-.422-.672.015-.234.015-.469.078-.719l.406-1.687c.11 0 .328-.016.547-.047.188 0 .39-.078.64-.172.126-.188.173-.203.423-.5zm0 0"/></svg><path d="M130.59 7.754h7.14" fill="none" stroke-width=".717" stroke="#000" stroke-miterlimit="10"/><svg overflow="visible" x="131.662" y="15.271"><path d="M4.75-.11c-.016-.187-.016-.265-.016-.39s0-.203.032-.547l-3.141.094 1.5-1.469c.938-.906 1.266-1.5 1.266-2.156 0-1.016-.891-1.781-2.125-1.781-.688 0-1.282.218-1.782.687L.297-4.266h.547l.172-.546c.156-.516.359-.594 1-.594.828 0 1.203.343 1.203 1.093 0 .657-.36 1.22-1.453 2.282L.078-.391v.422L2.391 0l2.375.031zm0 0"/></svg><svg overflow="visible" x="141.583" y="10.745"><path d="M8.266-2.766a1.332 1.332 0 01-.047-.359c0-.11.015-.234.062-.484h-7.5c.063.25.063.375.063.484 0 .125 0 .25-.063.5h7.5zm0 0"/></svg><svg overflow="visible" x="160.006" y="10.745"><path d="M-.813-7.234a29.143 29.143 0 00-2.171-1.422c-.829.484-1.516.937-2.266 1.484l.313.547L-3-7.688l1.953 1.063.313-.547zm0 0"/></svg><svg overflow="visible" x="153.335" y="10.745"><path d="M5.953-5.875l-.203-.156c-.375.14-.64.203-1.016.234l-.453 1.703c-.14.563-.531 1.344-.922 1.938-.421.61-.89 1.094-1.156 1.094-.265 0-.11-.438-.094-.594l.172-2.328c.031-.36.047-.829.047-1.157 0-.53-.219-.89-.422-.89-.156 0-.422.125-1 .515L-.14-4.78l.266.437.734-.453c.063-.047.125-.11.204-.11.312 0 .125.485.109.673L.969-1.328l-.016.484c-.015.5.36.969.656.969.454 0 1.547-1.047 2.438-2.39l-.234-.094-.579 2.03c-.609 2.126-1.078 2.86-1.906 2.86-.422 0-.61-.187-.61-.61 0-.062.016-.155.032-.343l-.297-.11-.672.485c-.015.156-.015.219-.015.281 0 .516.578 1.063 1.125 1.063 1.265 0 2.703-1.61 3.406-3.828L6-5.828zm0 0"/></svg><svg overflow="visible" x="159.516" y="10.745"><path d="M4.203-7.828a.735.735 0 01-.187-.14c-.063-.063-.11-.126-.22-.329-1.593 1.61-2.5 3.266-2.5 4.781v.797c0 1.516.907 3.172 2.5 4.781.11-.203.157-.265.22-.328.062-.062.125-.109.312-.203C2.875.063 2.281-1.344 2.281-2.719v-.797c0-1.39.594-2.78 2.047-4.25zm0 0"/></svg><svg overflow="visible" x="164.585" y="10.745"><path d="M3.703-5.516c-.453.047-.86.063-1.156.063.172-.984.297-1.578.531-2.25l-.25-.328a7.16 7.16 0 01-1.094.531l-.296 2.031c-.391.203-.704.328-1.063.407l-.047.406h1l-.64 3.25C.625-1.11.53-.813.53-.5c0 .297.266.61.5.61.422 0 .922-.282 1.86-1.032.218-.172.14-.125.437-.36l-.25-.437-.672.469c-.36.25-.484.313-.625.313-.093 0-.031.046-.031-.11 0-.297.156-1.234.516-3l.14-.61h1.266l.203-.89zm0 0"/></svg><svg overflow="visible" x="168.626" y="10.745"><path d="M3.766-2.719v-.797c0-1.515-.907-3.171-2.516-4.78-.11.202-.156.265-.203.327-.063.063-.125.11-.313.203 1.438 1.47 2.032 2.86 2.032 4.25v.797c0 1.375-.594 2.781-2.032 4.25.188.094.25.14.313.203.047.063.094.125.203.329C2.86.452 3.766-1.204 3.766-2.72zm0 0"/></svg><svg overflow="visible" x="176.349" y="10.745"><path d="M2.516-3.125c0-.422-.407-.844-.844-.844-.422 0-.86.422-.86.844 0 .438.438.86.86.86.437 0 .844-.422.844-.86zm0 0"/></svg><svg overflow="visible" x="182.359" y="10.745"><path d="M.36-.047C.983.156 1.452.234 2 .234c1.563 0 2.813-.968 2.813-2.14 0-.36-.141-.735-.375-.969-.313-.313-.797-.484-1.86-.688-.969-.187-1.172-.296-1.172-.843 0-.61.297-.813 1.016-.813.812 0 1.265.297 1.265.86v.406h.61c.016-.828.031-1.11.078-1.563-.781-.265-1.203-.359-1.703-.359C1.297-5.875.297-5.078.297-4c0 .563.406 1.11.953 1.36.328.14.969.328 1.781.515.531.11.61.234.61.688 0 .656-.454.968-1.297.968-.875 0-1.36-.281-1.36-.875v-.625h-.64c0 .953-.031 1.313-.14 1.875zm0 0"/></svg><svg overflow="visible" x="187.428" y="10.745"><path d="M.25.031C.75.016 1.25 0 1.75 0s.984.016 1.625.047v-.625l-.688-.047c-.406-.016-.312.031-.312-.719v-4.422l-.234-.109a7.46 7.46 0 01-2.016.516v.578h.594c.469 0 .375-.047.375.734v2.703c0 .75.11.703-.297.719l-.688.047v.625zM1-7.203c0 .36.39.719.75.719s.719-.36.719-.72c0-.343-.36-.734-.719-.734-.36 0-.75.375-.75.735zm0 0"/></svg><svg overflow="visible" x="190.859" y="10.745"><path d="M.078.031C.562.016 1.063 0 1.547 0c.5 0 1 .016 1.625.047v-.625L2.5-.625c-.406-.016-.313.031-.313-.719V-3.89c0-.53.657-.984 1.391-.984.797 0 1.172.469 1.172 1.39V.048A16.1 16.1 0 015.844 0c.343 0 .656.016 1.125.047v-.625l-.625-.047c-.407-.016-.313.047-.313-.719v-2.312c0-1.406-.781-2.219-2.125-2.219-.437 0-.797.125-1.047.344l-.671.578v-.813l-.235-.109a7.46 7.46 0 01-2.016.516v.578h.594c.469 0 .375-.047.375.734v2.703c0 .75.11.703-.297.719l-.687.047v.625zm0 0"/></svg><svg overflow="visible" x="201.005" y="5.137"><path d="M7-4.484l-.125-.172c-.328.11-.75.203-1.078.203-.11 0-.36.016-.594.016l-3.031-.079c-.735 0-1.156.422-1.469 1.25l.328.172.188-.14c.25-.61.484-.5 1.031-.5h.266C1.75-1.844 1.422-1.328.546-.094L.782.11l.86-.265C2-.86 2.656-2.296 3.14-3.72l1.5.063c-.125.406-.704 2.015-.72 2.578 0 .922.517 1.172.813 1.172.5 0 .875-.14 1.563-.672l-.188-.406-.406.25.219.187c.016-.015-.36-.031-.531-.031-.454 0-.422-.125-.422-.672.015-.234.015-.469.078-.719l.406-1.687c.11 0 .328-.016.547-.047.188 0 .39-.078.64-.172.126-.188.173-.203.423-.5zm0 0"/></svg><path d="M201.004 7.754h7.14" fill="none" stroke-width=".717" stroke="#000" stroke-miterlimit="10"/><svg overflow="visible" x="202.076" y="15.271"><path d="M4.75-.11c-.016-.187-.016-.265-.016-.39s0-.203.032-.547l-3.141.094 1.5-1.469c.938-.906 1.266-1.5 1.266-2.156 0-1.016-.891-1.781-2.125-1.781-.688 0-1.282.218-1.782.687L.297-4.266h.547l.172-.546c.156-.516.359-.594 1-.594.828 0 1.203.343 1.203 1.093 0 .657-.36 1.22-1.453 2.282L.078-.391v.422L2.391 0l2.375.031zm0 0"/></svg><svg overflow="visible" x="212.661" y="10.745"><path d="M8.266-4.078a1.419 1.419 0 01-.047-.36c0-.109.015-.234.062-.484h-7.5c.063.25.063.375.063.484 0 .125 0 .235-.063.5h7.5zm0 2.625a1.332 1.332 0 01-.047-.36c0-.109.015-.234.062-.484h-7.5c.063.25.063.375.063.485 0 .125 0 .25-.063.5h7.5zm0 0"/></svg><svg overflow="visible" x="225.059" y="10.745"><path d="M8.266-2.766a1.332 1.332 0 01-.047-.359c0-.11.015-.234.062-.484h-7.5c.063.25.063.375.063.484 0 .125 0 .25-.063.5h7.5zm0 0"/></svg><svg overflow="visible" x="240.827" y="10.745"><path d="M-.813-7.234a29.143 29.143 0 00-2.171-1.422c-.829.484-1.516.937-2.266 1.484l.313.547L-3-7.688l1.953 1.063.313-.547zm0 0"/></svg><svg overflow="visible" x="234.156" y="10.745"><path d="M5.953-5.875l-.203-.156c-.375.14-.64.203-1.016.234l-.453 1.703c-.14.563-.531 1.344-.922 1.938-.421.61-.89 1.094-1.156 1.094-.265 0-.11-.438-.094-.594l.172-2.328c.031-.36.047-.829.047-1.157 0-.53-.219-.89-.422-.89-.156 0-.422.125-1 .515L-.14-4.78l.266.437.734-.453c.063-.047.125-.11.204-.11.312 0 .125.485.109.673L.969-1.328l-.016.484c-.015.5.36.969.656.969.454 0 1.547-1.047 2.438-2.39l-.234-.094-.579 2.03c-.609 2.126-1.078 2.86-1.906 2.86-.422 0-.61-.187-.61-.61 0-.062.016-.155.032-.343l-.297-.11-.672.485c-.015.156-.015.219-.015.281 0 .516.578 1.063 1.125 1.063 1.265 0 2.703-1.61 3.406-3.828L6-5.828zm0 0"/></svg><svg overflow="visible" x="240.337" y="10.745"><path d="M4.203-7.828a.735.735 0 01-.187-.14c-.063-.063-.11-.126-.22-.329-1.593 1.61-2.5 3.266-2.5 4.781v.797c0 1.516.907 3.172 2.5 4.781.11-.203.157-.265.22-.328.062-.062.125-.109.312-.203C2.875.063 2.281-1.344 2.281-2.719v-.797c0-1.39.594-2.78 2.047-4.25zm0 0"/></svg><svg overflow="visible" x="245.406" y="10.745"><path d="M3.703-5.516c-.453.047-.86.063-1.156.063.172-.984.297-1.578.531-2.25l-.25-.328a7.16 7.16 0 01-1.094.531l-.296 2.031c-.391.203-.704.328-1.063.407l-.047.406h1l-.64 3.25C.625-1.11.53-.813.53-.5c0 .297.266.61.5.61.422 0 .922-.282 1.86-1.032.218-.172.14-.125.437-.36l-.25-.437-.672.469c-.36.25-.484.313-.625.313-.093 0-.031.046-.031-.11 0-.297.156-1.234.516-3l.14-.61h1.266l.203-.89zm0 0"/></svg><svg overflow="visible" x="249.447" y="10.745"><path d="M3.766-2.719v-.797c0-1.515-.907-3.171-2.516-4.78-.11.202-.156.265-.203.327-.063.063-.125.11-.313.203 1.438 1.47 2.032 2.86 2.032 4.25v.797c0 1.375-.594 2.781-2.032 4.25.188.094.25.14.313.203.047.063.094.125.203.329C2.86.452 3.766-1.204 3.766-2.72zm0 0"/></svg><svg overflow="visible" x="11.32" y="25.41"><path d="M6.234-1.25l-.171-.297-.454.297c-.343.219-.5.313-.625.313-.078 0-.03.03-.03-.11 0-.047.015-.187.03-.234l.782-3.297c.093-.344.14-.688.14-.89 0-.266-.265-.563-.5-.563-.5 0-1.437.5-2.14 1.156-.454.422-.797.828-1.407 1.703l.235.094.453-1.938c.047-.203.078-.343.078-.484 0-.25-.234-.531-.406-.531-.266 0-.828.312-1.703.922l-.391.296.172.485.547-.36c.437-.28.39-.265.469-.265.14 0 .078 0 .078.172 0 .61-.5 2.922-.985 4.656l.172.25c.36-.094.625-.172 1.016-.234.234-1.625.468-2.313 1-3.125.656-1.016 1.453-1.72 1.984-1.72.125 0 .063-.015.063.157 0 .219-.032.469-.141.86l-.61 2.53c-.109.438-.156.72-.156.907 0 .297.266.61.5.61.313 0 .829-.282 2.079-1.22zm0 0"/></svg><svg overflow="visible" x="17.967" y="25.41"><path d="M5.047-4.094c0-1.125-.734-1.937-1.719-1.937-.515 0-1.187.25-1.719.625-.968.703-1.546 2-1.546 3.453C.063-.687.734.125 1.734.125c.657 0 1.47-.344 2-.844.75-.703 1.313-2.156 1.313-3.375zm-1.188.203C3.86-2.75 3.531-1.578 3-.937c-.219.25-.422.359-.781.359-.703 0-.969-.406-.969-1.36 0-1.343.422-2.718 1.016-3.203.156-.125.328-.171.609-.171.734 0 .984.406.984 1.421zm0 0"/></svg><svg overflow="visible" x="23.275" y="25.41"><path d="M4.594-5.953c-.14-.063-.188-.078-.25-.078-.36 0-.844.328-1.266.937-.406.594-.86 1.25-1.172 1.907h.282L2.5-4.704c.063-.25.14-.531.14-.813 0-.234-.218-.515-.406-.515-.25 0-.812.297-1.703.922l-.39.296.187.485.547-.36c.328-.218.375-.234.469-.234.125 0 .062-.031.062.125 0 .703-.515 3.156-1 4.75l.235.172c.296-.094.562-.156.953-.203l.328-1.563c.219-.984.453-1.53.984-2.203.406-.531.625-.75.89-.75.188 0 .204.032.36.235h.36c.046-.594.109-.97.218-1.532zm0 0"/></svg><svg overflow="visible" x="28.201" y="25.41"><path d="M8.938-1.25l-.172-.297-.454.297c-.359.219-.5.313-.624.313-.079 0-.032.03-.032-.11 0-.11.032-.219.094-.469l.89-3.546c.047-.204.079-.407.079-.5 0-.204-.25-.47-.438-.47-.344 0-.906.266-1.64.766-.75.547-1.172.97-1.75 1.782l.234.109.36-1.64c.046-.25.077-.423.077-.5 0-.235-.25-.516-.437-.516-.36 0-1.016.312-1.672.812-.531.407-.765.657-1.547 1.703l.25.094.39-1.594c.048-.187.079-.359.079-.5 0-.234-.25-.515-.406-.515-.266 0-.813.297-1.703.922l-.391.296.172.485.547-.36c.437-.28.39-.265.469-.265.14 0 .078 0 .078.172 0 .61-.5 2.922-.985 4.625l.078.281L1.5-.094l.297-1.328c.281-1.328.562-1.937 1.234-2.656.5-.547.938-.875 1.266-.875.094 0 0-.031 0 .125 0 .422-.25 1.781-.766 3.875l-.187.797.14.281 1-.219.266-1.39c.203-.97.563-1.766 1.094-2.36C6.5-4.563 7-4.954 7.39-4.954c.093 0 .015-.015.015.173 0 .281-.015.453-.312 1.5l-.5 1.875c-.11.328-.157.64-.157.906 0 .297.266.61.5.61.313 0 .829-.282 2.079-1.22zm0 0"/></svg><svg overflow="visible" x="37.502" y="25.41"><path d="M4.984-1.14l-.156-.485c-.25.203-.266.219-.328.266-.375.312-.453.39-.625.39-.125 0-.047.031-.047-.156 0-.047 0-.078.016-.125l1.11-4.578-.25-.203-.438.218c-.438-.156-.672-.218-.985-.218-.344 0-.578.062-.906.218-.75.375-1.234.766-1.531 1.36l-.047.094C.28-3.297-.093-1.875-.093-.922c0 .516.327 1.047.546 1.047.25 0 .797-.281 1.234-.656.516-.453.985-1.016 1.641-1.938l-.234-.094-.344 1.516a2.715 2.715 0 00-.078.61c0 .265.25.562.437.562.266 0 .86-.36 1.891-1.219zM3.672-5.079c-.266 1.281-.453 1.797-.844 2.406C2.156-1.656 1.516-.969 1.125-.969c-.14 0-.078-.015-.078-.344 0-.765.297-2.093.719-3.093.296-.688.453-.766 1.03-.766.282 0 .5.047.86.172zm0 0"/></svg><svg overflow="visible" x="42.81" y="25.41"><path d="M3.094-8.86l-.219-.187c-.75.375-1.063.438-2.047.531l-.094.5h.735c.281 0 .265-.046.265.141 0 .156-.046.422-.078.578L.516-1.703C.344-1.093.28-.75.28-.484c0 .28.281.593.5.593.313 0 .86-.296 2.094-1.218l-.25-.438-.469.297c-.344.234-.5.313-.61.313-.093 0-.03.03-.03-.11s.03-.297.078-.437L3.14-8.813zm0 0"/></svg><svg overflow="visible" x="46.133" y="28.184"><path d="M4.922-4.406l-.188-.14a3.25 3.25 0 01-.875.202L3.5-3.062c-.125.421-.406.968-.734 1.406-.329.437-.688.797-.907.797-.203 0-.03-.297-.03-.407l.14-1.718c.015-.266.047-.61.047-.86 0-.39-.22-.687-.391-.687-.125 0-.375.093-.828.39l-.89.563.265.375.64-.36c.047-.03.063-.062.141-.062.235 0 .047.313.031.453L.828-1.016l-.015.36c0 .36.343.75.578.75.359 0 1.265-.781 2-1.782l-.266-.093-.484 1.5c-.485 1.578-.813 2.078-1.485 2.078-.328 0-.453-.094-.453-.406 0-.047.016-.11.047-.266l-.297-.11-.578.376c-.031.125-.031.187-.031.234 0 .375.531.813.969.813 1.015 0 2.218-1.22 2.78-2.86l1.391-3.937zm0 0"/></svg><svg overflow="visible" x="51.692" y="25.41"><path d="M4.203-7.828a.735.735 0 01-.187-.14c-.063-.063-.11-.126-.22-.329-1.593 1.61-2.5 3.266-2.5 4.781v.797c0 1.516.907 3.172 2.5 4.781.11-.203.157-.265.22-.328.062-.062.125-.109.312-.203C2.875.063 2.281-1.344 2.281-2.719v-.797c0-1.39.594-2.78 2.047-4.25zm0 0"/></svg><svg overflow="visible" x="56.761" y="25.41"><path d="M3.703-5.516c-.453.047-.86.063-1.156.063.172-.984.297-1.578.531-2.25l-.25-.328a7.16 7.16 0 01-1.094.531l-.296 2.031c-.391.203-.704.328-1.063.407l-.047.406h1l-.64 3.25C.625-1.11.53-.813.53-.5c0 .297.266.61.5.61.422 0 .922-.282 1.86-1.032.218-.172.14-.125.437-.36l-.25-.437-.672.469c-.36.25-.484.313-.625.313-.093 0-.031.046-.031-.11 0-.297.156-1.234.516-3l.14-.61h1.266l.203-.89zm0 0"/></svg><svg overflow="visible" x="60.79" y="25.41"><path d="M3.766-2.719v-.797c0-1.515-.907-3.171-2.516-4.78-.11.202-.156.265-.203.327-.063.063-.125.11-.313.203 1.438 1.47 2.032 2.86 2.032 4.25v.797c0 1.375-.594 2.781-2.032 4.25.188.094.25.14.313.203.047.063.094.125.203.329C2.86.452 3.766-1.204 3.766-2.72zm0 0"/></svg><svg overflow="visible" x="69.182" y="25.41"><path d="M8.266-4.078a1.419 1.419 0 01-.047-.36c0-.109.015-.234.062-.484h-7.5c.063.25.063.375.063.484 0 .125 0 .235-.063.5h7.5zm0 2.625a1.332 1.332 0 01-.047-.36c0-.109.015-.234.062-.484h-7.5c.063.25.063.375.063.485 0 .125 0 .25-.063.5h7.5zm0 0"/></svg><svg overflow="visible" x="88.191" y="25.41"><path d="M-.813-7.234a29.143 29.143 0 00-2.171-1.422c-.829.484-1.516.937-2.266 1.484l.313.547L-3-7.688l1.953 1.063.313-.547zm0 0"/></svg><svg overflow="visible" x="81.604" y="25.41"><path d="M5.875-5.875c-.14-.078-.344-.156-.453-.156-.469 0-1.063.468-1.797 1.578l-.453.656.25.094-.078-.578c-.14-1.188-.594-1.75-1.297-1.75-.313 0-.688.14-.797.297L.484-4.61l.407.25c.437-.485.578-.61.812-.61.39 0 .516.36.719 1.532l.125.718-.438.656C1.594-1.25 1.297-.905.953-.905c-.172 0-.172.078-.203.015l-.188-.468-.453.062c0 .36-.03.516-.093.89-.032.141-.047.173-.063.329.219.125.531.203.672.203.39 0 .953-.375 1.328-.938l.906-1.406-.234-.094.125.829c.172 1.015.578 1.609 1 1.609.266 0 .75-.234 1.125-.578l.64-.578-.218-.469c-.578.453-.766.61-.953.61-.188 0-.25-.094-.453-.5.015.046-.11-.407-.172-.75L3.5-3.313l.39-.532c.563-.765.782-1.015 1.157-1.015.187 0 .187-.032.312.312l.36-.11.203-1.171zm0 0"/></svg><svg overflow="visible" x="87.713" y="25.41"><path d="M4.203-7.828a.735.735 0 01-.187-.14c-.063-.063-.11-.126-.22-.329-1.593 1.61-2.5 3.266-2.5 4.781v.797c0 1.516.907 3.172 2.5 4.781.11-.203.157-.265.22-.328.062-.062.125-.109.312-.203C2.875.063 2.281-1.344 2.281-2.719v-.797c0-1.39.594-2.78 2.047-4.25zm0 0"/></svg><svg overflow="visible" x="92.782" y="25.41"><path d="M3.703-5.516c-.453.047-.86.063-1.156.063.172-.984.297-1.578.531-2.25l-.25-.328a7.16 7.16 0 01-1.094.531l-.296 2.031c-.391.203-.704.328-1.063.407l-.047.406h1l-.64 3.25C.625-1.11.53-.813.53-.5c0 .297.266.61.5.61.422 0 .922-.282 1.86-1.032.218-.172.14-.125.437-.36l-.25-.437-.672.469c-.36.25-.484.313-.625.313-.093 0-.031.046-.031-.11 0-.297.156-1.234.516-3l.14-.61h1.266l.203-.89zm0 0"/></svg><svg overflow="visible" x="96.823" y="25.41"><path d="M3.766-2.719v-.797c0-1.515-.907-3.171-2.516-4.78-.11.202-.156.265-.203.327-.063.063-.125.11-.313.203 1.438 1.47 2.032 2.86 2.032 4.25v.797c0 1.375-.594 2.781-2.032 4.25.188.094.25.14.313.203.047.063.094.125.203.329C2.86.452 3.766-1.204 3.766-2.72zm0 0"/></svg><svg overflow="visible" x="104.546" y="25.41"><path d="M2.516-3.125c0-.422-.407-.844-.844-.844-.422 0-.86.422-.86.844 0 .438.438.86.86.86.437 0 .844-.422.844-.86zm0 0"/></svg><svg overflow="visible" x="110.56" y="25.41"><path d="M.36-.047C.983.156 1.452.234 2 .234c1.563 0 2.813-.968 2.813-2.14 0-.36-.141-.735-.375-.969-.313-.313-.797-.484-1.86-.688-.969-.187-1.172-.296-1.172-.843 0-.61.297-.813 1.016-.813.812 0 1.265.297 1.265.86v.406h.61c.016-.828.031-1.11.078-1.563-.781-.265-1.203-.359-1.703-.359C1.297-5.875.297-5.078.297-4c0 .563.406 1.11.953 1.36.328.14.969.328 1.781.515.531.11.61.234.61.688 0 .656-.454.968-1.297.968-.875 0-1.36-.281-1.36-.875v-.625h-.64c0 .953-.031 1.313-.14 1.875zm0 0"/></svg><svg overflow="visible" x="115.629" y="25.41"><path d="M.25.031C.75.016 1.25 0 1.75 0s.984.016 1.625.047v-.625l-.688-.047c-.406-.016-.312.031-.312-.719v-4.422l-.234-.109a7.46 7.46 0 01-2.016.516v.578h.594c.469 0 .375-.047.375.734v2.703c0 .75.11.703-.297.719l-.688.047v.625zM1-7.203c0 .36.39.719.75.719s.719-.36.719-.72c0-.343-.36-.734-.719-.734-.36 0-.75.375-.75.735zm0 0"/></svg><svg overflow="visible" x="119.06" y="25.41"><path d="M.078.031C.562.016 1.063 0 1.547 0c.5 0 1 .016 1.625.047v-.625L2.5-.625c-.406-.016-.313.031-.313-.719V-3.89c0-.53.657-.984 1.391-.984.797 0 1.172.469 1.172 1.39V.048A16.1 16.1 0 015.844 0c.343 0 .656.016 1.125.047v-.625l-.625-.047c-.407-.016-.313.047-.313-.719v-2.312c0-1.406-.781-2.219-2.125-2.219-.437 0-.797.125-1.047.344l-.671.578v-.813l-.235-.109a7.46 7.46 0 01-2.016.516v.578h.594c.469 0 .375-.047.375.734v2.703c0 .75.11.703-.297.719l-.687.047v.625zm0 0"/></svg><svg overflow="visible" x="129.207" y="19.802"><path d="M7-4.484l-.125-.172c-.328.11-.75.203-1.078.203-.11 0-.36.016-.594.016l-3.031-.079c-.735 0-1.156.422-1.469 1.25l.328.172.188-.14c.25-.61.484-.5 1.031-.5h.266C1.75-1.844 1.422-1.328.546-.094L.782.11l.86-.265C2-.86 2.656-2.296 3.14-3.72l1.5.063c-.125.406-.704 2.015-.72 2.578 0 .922.517 1.172.813 1.172.5 0 .875-.14 1.563-.672l-.188-.406-.406.25.219.187c.016-.015-.36-.031-.531-.031-.454 0-.422-.125-.422-.672.015-.234.015-.469.078-.719l.406-1.687c.11 0 .328-.016.547-.047.188 0 .39-.078.64-.172.126-.188.173-.203.423-.5zm0 0"/></svg><path d="M129.207 22.422h7.14" fill="none" stroke-width=".717" stroke="#000" stroke-miterlimit="10"/><svg overflow="visible" x="130.277" y="29.936"><path d="M4.75-.11c-.016-.187-.016-.265-.016-.39s0-.203.032-.547l-3.141.094 1.5-1.469c.938-.906 1.266-1.5 1.266-2.156 0-1.016-.891-1.781-2.125-1.781-.688 0-1.282.218-1.782.687L.297-4.266h.547l.172-.546c.156-.516.359-.594 1-.594.828 0 1.203.343 1.203 1.093 0 .657-.36 1.22-1.453 2.282L.078-.391v.422L2.391 0l2.375.031zm0 0"/></svg><svg overflow="visible" x="140.199" y="25.41"><path d="M8.266-2.766a1.332 1.332 0 01-.047-.359c0-.11.015-.234.062-.484h-3.25v-3.266c-.25.063-.375.078-.484.078-.125 0-.25-.016-.5-.078v3.266H.78c.063.25.063.375.063.484 0 .125 0 .25-.063.5h3.266V.641c.25-.063.375-.079.5-.079.11 0 .234.016.484.079v-3.266h3.25zm0 0"/></svg><svg overflow="visible" x="158.622" y="25.41"><path d="M-.813-7.234a29.143 29.143 0 00-2.171-1.422c-.829.484-1.516.937-2.266 1.484l.313.547L-3-7.688l1.953 1.063.313-.547zm0 0"/></svg><svg overflow="visible" x="151.951" y="25.41"><path d="M5.953-5.875l-.203-.156c-.375.14-.64.203-1.016.234l-.453 1.703c-.14.563-.531 1.344-.922 1.938-.421.61-.89 1.094-1.156 1.094-.265 0-.11-.438-.094-.594l.172-2.328c.031-.36.047-.829.047-1.157 0-.53-.219-.89-.422-.89-.156 0-.422.125-1 .515L-.14-4.78l.266.437.734-.453c.063-.047.125-.11.204-.11.312 0 .125.485.109.673L.969-1.328l-.016.484c-.015.5.36.969.656.969.454 0 1.547-1.047 2.438-2.39l-.234-.094-.579 2.03c-.609 2.126-1.078 2.86-1.906 2.86-.422 0-.61-.187-.61-.61 0-.062.016-.155.032-.343l-.297-.11-.672.485c-.015.156-.015.219-.015.281 0 .516.578 1.063 1.125 1.063 1.265 0 2.703-1.61 3.406-3.828L6-5.828zm0 0"/></svg><svg overflow="visible" x="158.132" y="25.41"><path d="M4.203-7.828a.735.735 0 01-.187-.14c-.063-.063-.11-.126-.22-.329-1.593 1.61-2.5 3.266-2.5 4.781v.797c0 1.516.907 3.172 2.5 4.781.11-.203.157-.265.22-.328.062-.062.125-.109.312-.203C2.875.063 2.281-1.344 2.281-2.719v-.797c0-1.39.594-2.78 2.047-4.25zm0 0"/></svg><svg overflow="visible" x="163.201" y="25.41"><path d="M3.703-5.516c-.453.047-.86.063-1.156.063.172-.984.297-1.578.531-2.25l-.25-.328a7.16 7.16 0 01-1.094.531l-.296 2.031c-.391.203-.704.328-1.063.407l-.047.406h1l-.64 3.25C.625-1.11.53-.813.53-.5c0 .297.266.61.5.61.422 0 .922-.282 1.86-1.032.218-.172.14-.125.437-.36l-.25-.437-.672.469c-.36.25-.484.313-.625.313-.093 0-.031.046-.031-.11 0-.297.156-1.234.516-3l.14-.61h1.266l.203-.89zm0 0"/></svg><svg overflow="visible" x="167.242" y="25.41"><path d="M3.766-2.719v-.797c0-1.515-.907-3.171-2.516-4.78-.11.202-.156.265-.203.327-.063.063-.125.11-.313.203 1.438 1.47 2.032 2.86 2.032 4.25v.797c0 1.375-.594 2.781-2.032 4.25.188.094.25.14.313.203.047.063.094.125.203.329C2.86.452 3.766-1.204 3.766-2.72zm0 0"/></svg><svg overflow="visible" x="174.965" y="25.41"><path d="M2.516-3.125c0-.422-.407-.844-.844-.844-.422 0-.86.422-.86.844 0 .438.438.86.86.86.437 0 .844-.422.844-.86zm0 0"/></svg><svg overflow="visible" x="180.974" y="25.41"><path d="M.172-2.64A2.858 2.858 0 003.047.233c.625 0 1.61-.265 1.734-.437l.313-.484-.235-.344c-.593.312-.859.39-1.296.39C2.234-.64 1.5-1.547 1.5-3.125c0-1.281.453-1.86 1.531-1.86.531 0 1 .204 1.172.454l.094.812h.61c0-.687.046-1.172.171-1.656-.531-.328-1.031-.5-1.531-.5-.578 0-1.344.266-2.063.719C.641-4.625.172-3.688.172-2.641zm0 0"/></svg><svg overflow="visible" x="186.282" y="25.41"><path d="M.234-2.719c0 1.672 1.22 2.953 2.75 2.953 1.844 0 3.297-1.406 3.297-3.203 0-1.61-1.312-2.906-2.953-2.906C1.594-5.875.234-4.5.234-2.719zm1.391-.406c0-1.438.438-2.094 1.5-2.094 1.094 0 1.766 1.078 1.766 2.703 0 1.375-.47 2.094-1.438 2.094-1.172 0-1.828-1.016-1.828-2.703zm0 0"/></svg><svg overflow="visible" x="192.81" y="25.41"><path d="M.36-.047C.983.156 1.452.234 2 .234c1.563 0 2.813-.968 2.813-2.14 0-.36-.141-.735-.375-.969-.313-.313-.797-.484-1.86-.688-.969-.187-1.172-.296-1.172-.843 0-.61.297-.813 1.016-.813.812 0 1.265.297 1.265.86v.406h.61c.016-.828.031-1.11.078-1.563-.781-.265-1.203-.359-1.703-.359C1.297-5.875.297-5.078.297-4c0 .563.406 1.11.953 1.36.328.14.969.328 1.781.515.531.11.61.234.61.688 0 .656-.454.968-1.297.968-.875 0-1.36-.281-1.36-.875v-.625h-.64c0 .953-.031 1.313-.14 1.875zm0 0"/></svg><svg overflow="visible" x="201.067" y="19.802"><path d="M7-4.484l-.125-.172c-.328.11-.75.203-1.078.203-.11 0-.36.016-.594.016l-3.031-.079c-.735 0-1.156.422-1.469 1.25l.328.172.188-.14c.25-.61.484-.5 1.031-.5h.266C1.75-1.844 1.422-1.328.546-.094L.782.11l.86-.265C2-.86 2.656-2.296 3.14-3.72l1.5.063c-.125.406-.704 2.015-.72 2.578 0 .922.517 1.172.813 1.172.5 0 .875-.14 1.563-.672l-.188-.406-.406.25.219.187c.016-.015-.36-.031-.531-.031-.454 0-.422-.125-.422-.672.015-.234.015-.469.078-.719l.406-1.687c.11 0 .328-.016.547-.047.188 0 .39-.078.64-.172.126-.188.173-.203.423-.5zm0 0"/></svg><path d="M201.066 22.422h7.141" fill="none" stroke-width=".717" stroke="#000" stroke-miterlimit="10"/><svg overflow="visible" x="202.138" y="29.936"><path d="M4.75-.11c-.016-.187-.016-.265-.016-.39s0-.203.032-.547l-3.141.094 1.5-1.469c.938-.906 1.266-1.5 1.266-2.156 0-1.016-.891-1.781-2.125-1.781-.688 0-1.282.218-1.782.687L.297-4.266h.547l.172-.546c.156-.516.359-.594 1-.594.828 0 1.203.343 1.203 1.093 0 .657-.36 1.22-1.453 2.282L.078-.391v.422L2.391 0l2.375.031zm0 0"/></svg><svg overflow="visible" x="81.599" y="29.963"><path d="M10.563 2.11h-5.11C2.531 2.11.875 2.062.516 1.046c-.235.156-.204.172-.282.203-.078.016-.156.031-.406.063.36 1.015 2.36 1.921 5.625 1.921h5.25V2.11zm0 0"/></svg><svg overflow="visible" x="91.103" y="29.963"><path d="M10.578 3.094v-.985H-.14v1.125h10.72zm0 0"/></svg><svg overflow="visible" x="99.711" y="29.963"><path d="M10.578 3.094v-.985H-.14v1.125h10.72zm0 0"/></svg><g><svg overflow="visible" x="108.331" y="29.963"><path d="M10.578 3.094v-.985H-.14v1.125h10.72zm0 0"/></svg></g><g><svg overflow="visible" x="116.939" y="29.963"><path d="M10.578 3.094v-.985H-.14v1.125h10.72zm0 0"/></svg></g><g><svg overflow="visible" x="125.546" y="29.963"><path d="M10.578 3.094v-.985H-.14v1.125h10.72zm0 0"/></svg></g><g><svg overflow="visible" x="134.931" y="29.963"><path d="M21.281 3.094v-.985h-5.484c-2.86 0-4.735.563-5.235 1.125-.5-.562-2.343-1.125-5.203-1.125h-5.5v1.125h5.5c3.188 0 4.844-.062 4.844.938.203-.078.297-.078.375-.078.078 0 .156 0 .375.078 0-1 1.656-.938 4.844-.938h5.484zm0 0"/></svg></g><g><svg overflow="visible" x="155.004" y="29.963"><path d="M10.578 3.094v-.985H-.14v1.125h10.72zm0 0"/></svg></g><g><svg overflow="visible" x="163.612" y="29.963"><path d="M10.578 3.094v-.985H-.14v1.125h10.72zm0 0"/></svg></g><g><svg overflow="visible" x="172.231" y="29.963"><path d="M10.578 3.094v-.985H-.14v1.125h10.72zm0 0"/></svg></g><g><svg overflow="visible" x="180.839" y="29.963"><path d="M10.578 3.094v-.985H-.14v1.125h10.72zm0 0"/></svg></g><g><svg overflow="visible" x="189.447" y="29.963"><path d="M10.578 3.094v-.985H-.14v1.125h10.72zm0 0"/></svg></g><g><svg overflow="visible" x="198.832" y="29.963"><path d="M10.578 1.297c-.078-.016-.172-.031-.234-.047-.094-.031-.063-.047-.281-.203-.376 1.016-2.032 1.062-4.938 1.062H-.141v1.125h5.266c3.25 0 5.25-.906 5.625-1.921zm0 0"/></svg></g><g><svg overflow="visible" x="100.202" y="42.007"><path d="M4.25-4.453l-.156-.063-.313.188c-.39-.14-.672-.203-.953-.203-.265 0-.61.11-.875.265-.36.188-.781.5-.984.735-.39.406-.813 1.797-.813 2.703 0 .531.281.922.5.922.219 0 .516-.094.828-.297l.079-.047c.609-.438 1.234-1.047 1.609-1.64l-.266-.094-.734 3.671c-.047.204-.11.282-.313.485l.22.281c.374-.078.671-.14 1.046-.172.047-.594.11-1.094.188-1.531l.828-4.031a8.61 8.61 0 01.28-1.11zm-.938.734l-.203.828c-.109.454-.265.75-.64 1.157-.485.562-.969.953-1.235.953-.14 0-.062-.063-.062-.344 0-.86.36-2.078.766-2.531.109-.125.296-.172.593-.172.266 0 .469.047.766.172zm0 0"/></svg><svg overflow="visible" x="104.847" y="42.007"><path d="M5.125-.984l-.156-.25-.407.25c-.234.14-.359.203-.484.203-.062 0 .031.062.031-.031 0-.11.032-.235.063-.344l.812-3.188-.156-.203-.844.203-.125.547c-.156.672-.343 1.172-.609 1.578C2.672-1.406 2.016-.78 1.625-.78c-.094 0 .016.047.016-.11 0-.125.015-.218.078-.453l.547-2.39c.03-.141.046-.266.046-.391 0-.172-.218-.406-.359-.406-.203 0-.672.218-1.406.687l-.328.235.172.421.484-.28c.281-.173.281-.173.36-.173.093 0 0-.062 0 .047 0 .031 0 .11-.016.156L.609-.812a3.115 3.115 0 00-.03.421c0 .204.296.485.484.485.625 0 1.89-1.016 2.703-2.25L3.5-2.25 3.14-.984a1.84 1.84 0 00-.109.578c0 .219.266.5.453.5.25 0 .704-.25 1.72-.938zm0 0"/></svg><svg overflow="visible" x="110.385" y="42.007"><path d="M4.156-.89L4-1.298c-.25.188-.266.188-.297.234-.312.235-.344.282-.5.282-.094 0 .016.062.016-.078 0-.047 0-.063.015-.094l.891-3.39-.25-.204-.344.172c-.36-.125-.547-.156-.797-.156-.28 0-.468.047-.734.156-.61.281-1.031.578-1.266 1.016C.313-2.58-.03-1.422-.03-.72c0 .375.312.813.484.813.203 0 .672-.219 1.031-.5.407-.328.782-.75 1.313-1.438l-.266-.093-.265 1.125a1.58 1.58 0 00-.063.453c0 .203.25.453.39.453.22 0 .72-.281 1.579-.938zM3-3.798c-.203.953-.344 1.313-.672 1.766-.531.734-1.015 1.25-1.344 1.25-.109 0-.015.015-.015-.235 0-.562.25-1.546.594-2.28.218-.5.312-.532.78-.532.22 0 .407.031.641.11zm0 0"/></svg><svg overflow="visible" x="114.843" y="42.007"><path d="M3.797-4.469c-.11-.047-.156-.062-.203-.062-.297 0-.703.25-1.063.703-.328.437-.656.86-.906 1.328l.266.11.265-1.126c.031-.187.11-.39.11-.593 0-.188-.235-.422-.375-.422-.204 0-.672.218-1.391.687l-.344.235.172.421.5-.28c.266-.173.266-.173.344-.173.11 0 .016-.062.016.063 0 .515-.422 2.328-.829 3.515l.235.157c.25-.078.469-.11.812-.172l.282-1.172c.171-.734.343-1.11.765-1.61.328-.39.485-.53.703-.53.14 0 .125 0 .266.156h.36c.03-.47.077-.75.171-1.172zm0 0"/></svg></g><g><svg overflow="visible" x="118.878" y="42.007"><path d="M3.078-4.156c-.375.031-.703.047-.89.047.124-.688.234-1.125.421-1.625l-.234-.282c-.344.172-.484.25-.922.407L1.22-4.094a5.586 5.586 0 01-.86.297l-.046.344h.796L.594-1.078C.547-.86.469-.641.469-.406c0 .219.265.484.453.484.328 0 .765-.203 1.531-.765.172-.125.11-.094.375-.282l-.234-.39L2-.984c-.297.171-.36.218-.484.218-.063 0 .03.063.03-.046 0-.22.11-.907.423-2.22l.078-.421h1.047l.172-.719zm0 0"/></svg><svg overflow="visible" x="122.266" y="42.007"><path d="M3.844-3.703c0-.422-.469-.828-.953-.828-.641 0-1.797.625-2.188 1.203C.422-2.906.078-1.75.078-1.125.078-.437.656.094 1.36.094c.547 0 1.172-.281 2.141-1l-.188-.406-.406.25c-.515.343-.86.484-1.203.484-.469 0-.594-.203-.594-.735 0-.234.016-.453.063-.609l.656-.14c.172-.047.422-.126.672-.235.813-.328 1.344-.86 1.344-1.406zm-1.016.14c0 .391-.187.672-.687.891-.266.11-.625.219-.86.266l.047-.156c.156-.579.297-.876.563-1.094a.914.914 0 01.625-.235c.28 0 .312.047.312.329zm0 0"/></svg><svg overflow="visible" x="126.194" y="42.007"><path d="M3.797-4.469c-.11-.047-.156-.062-.203-.062-.297 0-.703.25-1.063.703-.328.437-.656.86-.906 1.328l.266.11.265-1.126c.031-.187.11-.39.11-.593 0-.188-.235-.422-.375-.422-.204 0-.672.218-1.391.687l-.344.235.172.421.5-.28c.266-.173.266-.173.344-.173.11 0 .016-.062.016.063 0 .515-.422 2.328-.829 3.515l.235.157c.25-.078.469-.11.812-.172l.282-1.172c.171-.734.343-1.11.765-1.61.328-.39.485-.53.703-.53.14 0 .125 0 .266.156h.36c.03-.47.077-.75.171-1.172zm0 0"/></svg></g><g><svg overflow="visible" x="133.227" y="42.007"><path d="M3.938-4.281c-.235-.14-.657-.25-1.032-.25-.437 0-1.219.343-1.781.797-.547.437-.953 1.453-.953 2.406C.172-.484.734.094 1.5.094c.531 0 1.094-.203 1.625-.61l.547-.406-.188-.437-.312.203c-.703.422-.953.531-1.281.531-.547 0-.672-.219-.672-.906 0-.938.281-1.766.734-2.11.203-.156.344-.187.64-.187.454 0 .641.031.641.25v.656h.5c.11-.703.172-1.031.266-1.312zm0 0"/></svg><svg overflow="visible" x="137.332" y="42.007"><path d="M2.516-.984l-.157-.25-.406.25c-.297.171-.375.218-.469.218-.078 0 .016.063.016-.046 0-.079.016-.157.063-.344l.75-2.688c.046-.156.062-.234.062-.328 0-.14-.234-.36-.39-.36-.22 0-.688.22-1.407.688l-.344.235.172.421.5-.28c.266-.173.266-.173.344-.173.11 0 0-.062 0 .047 0 .078-.031.266-.063.39l-.64 2.126c-.094.281-.125.5-.125.687 0 .204.266.47.437.47.266 0 .72-.235 1.735-.923zm.28-4.72c0-.202-.28-.484-.483-.484-.297 0-.735.422-.735.72 0 .218.313.5.547.5.313 0 .672-.391.672-.735zm0 0"/></svg></g><g><svg overflow="visible" x="140.234" y="42.007"><path d="M3.797-4.469c-.11-.047-.156-.062-.203-.062-.297 0-.703.25-1.063.703-.328.437-.656.86-.906 1.328l.266.11.265-1.126c.031-.187.11-.39.11-.593 0-.188-.235-.422-.375-.422-.204 0-.672.218-1.391.687l-.344.235.172.421.5-.28c.266-.173.266-.173.344-.173.11 0 .016-.062.016.063 0 .515-.422 2.328-.829 3.515l.235.157c.25-.078.469-.11.812-.172l.282-1.172c.171-.734.343-1.11.765-1.61.328-.39.485-.53.703-.53.14 0 .125 0 .266.156h.36c.03-.47.077-.75.171-1.172zm0 0"/></svg></g><g><svg overflow="visible" x="144.277" y="42.007"><path d="M3.938-4.281c-.235-.14-.657-.25-1.032-.25-.437 0-1.219.343-1.781.797-.547.437-.953 1.453-.953 2.406C.172-.484.734.094 1.5.094c.531 0 1.094-.203 1.625-.61l.547-.406-.188-.437-.312.203c-.703.422-.953.531-1.281.531-.547 0-.672-.219-.672-.906 0-.938.281-1.766.734-2.11.203-.156.344-.187.64-.187.454 0 .641.031.641.25v.656h.5c.11-.703.172-1.031.266-1.312zm0 0"/></svg><svg overflow="visible" x="148.382" y="42.007"><path d="M2.625-6.61l-.188-.156c-.546.25-.89.329-1.718.391l-.094.453h.656c.219 0 .157-.078.157.063 0 .109-.032.312-.047.421L.453-1.296C.328-.844.281-.594.281-.39c0 .204.266.47.438.47.25 0 .719-.235 1.734-.923l-.25-.39-.406.25c-.281.171-.36.218-.469.218-.062 0 .031.063.031-.046 0-.11.032-.22.063-.313l1.25-5.438zm0 0"/></svg><svg overflow="visible" x="151.239" y="42.007"><path d="M3.844-3.703c0-.422-.469-.828-.953-.828-.641 0-1.797.625-2.188 1.203C.422-2.906.078-1.75.078-1.125.078-.437.656.094 1.36.094c.547 0 1.172-.281 2.141-1l-.188-.406-.406.25c-.515.343-.86.484-1.203.484-.469 0-.594-.203-.594-.735 0-.234.016-.453.063-.609l.656-.14c.172-.047.422-.126.672-.235.813-.328 1.344-.86 1.344-1.406zm-1.016.14c0 .391-.187.672-.687.891-.266.11-.625.219-.86.266l.047-.156c.156-.579.297-.876.563-1.094a.914.914 0 01.625-.235c.28 0 .312.047.312.329zm0 0"/></svg></g><g><svg overflow="visible" x="158.157" y="42.007"><path d="M3.797-4.469c-.11-.047-.156-.062-.203-.062-.297 0-.703.25-1.063.703-.328.437-.656.86-.906 1.328l.266.11.265-1.126c.031-.187.11-.39.11-.593 0-.188-.235-.422-.375-.422-.204 0-.672.218-1.391.687l-.344.235.172.421.5-.28c.266-.173.266-.173.344-.173.11 0 .016-.062.016.063 0 .515-.422 2.328-.829 3.515l.235.157c.25-.078.469-.11.812-.172l.282-1.172c.171-.734.343-1.11.765-1.61.328-.39.485-.53.703-.53.14 0 .125 0 .266.156h.36c.03-.47.077-.75.171-1.172zm0 0"/></svg></g><g><svg overflow="visible" x="162.2" y="42.007"><path d="M4.203-3.063c0-.828-.64-1.468-1.437-1.468-.407 0-.985.187-1.407.468-.78.516-1.265 1.5-1.265 2.579 0 .937.594 1.578 1.39 1.578.532 0 1.22-.266 1.641-.64.61-.516 1.078-1.626 1.078-2.516zm-1.047.141c0 .86-.25 1.688-.687 2.156-.156.188-.297.266-.594.266-.563 0-.75-.266-.75-.969 0-1 .344-1.984.813-2.343.125-.094.25-.11.484-.11.578 0 .734.266.734 1zm0 0"/></svg><svg overflow="visible" x="166.659" y="42.007"><path d="M3.078-4.156c-.375.031-.703.047-.89.047.124-.688.234-1.125.421-1.625l-.234-.282c-.344.172-.484.25-.922.407L1.22-4.094a5.586 5.586 0 01-.86.297l-.046.344h.796L.594-1.078C.547-.86.469-.641.469-.406c0 .219.265.484.453.484.328 0 .765-.203 1.531-.765.172-.125.11-.094.375-.282l-.234-.39L2-.984c-.297.171-.36.218-.484.218-.063 0 .03.063.03-.046 0-.22.11-.907.423-2.22l.078-.421h1.047l.172-.719zm0 0"/></svg><svg overflow="visible" x="170.047" y="42.007"><path d="M4.156-.89L4-1.298c-.25.188-.266.188-.297.234-.312.235-.344.282-.5.282-.094 0 .016.062.016-.078 0-.047 0-.063.015-.094l.891-3.39-.25-.204-.344.172c-.36-.125-.547-.156-.797-.156-.28 0-.468.047-.734.156-.61.281-1.031.578-1.266 1.016C.313-2.58-.03-1.422-.03-.72c0 .375.312.813.484.813.203 0 .672-.219 1.031-.5.407-.328.782-.75 1.313-1.438l-.266-.093-.265 1.125a1.58 1.58 0 00-.063.453c0 .203.25.453.39.453.22 0 .72-.281 1.579-.938zM3-3.798c-.203.953-.344 1.313-.672 1.766-.531.734-1.015 1.25-1.344 1.25-.109 0-.015.015-.015-.235 0-.562.25-1.546.594-2.28.218-.5.312-.532.78-.532.22 0 .407.031.641.11zm0 0"/></svg><svg overflow="visible" x="174.506" y="42.007"><path d="M3.078-4.156c-.375.031-.703.047-.89.047.124-.688.234-1.125.421-1.625l-.234-.282c-.344.172-.484.25-.922.407L1.22-4.094a5.586 5.586 0 01-.86.297l-.046.344h.796L.594-1.078C.547-.86.469-.641.469-.406c0 .219.265.484.453.484.328 0 .765-.203 1.531-.765.172-.125.11-.094.375-.282l-.234-.39L2-.984c-.297.171-.36.218-.484.218-.063 0 .03.063.03-.046 0-.22.11-.907.423-2.22l.078-.421h1.047l.172-.719zm0 0"/></svg><svg overflow="visible" x="177.895" y="42.007"><path d="M2.516-.984l-.157-.25-.406.25c-.297.171-.375.218-.469.218-.078 0 .016.063.016-.046 0-.079.016-.157.063-.344l.75-2.688c.046-.156.062-.234.062-.328 0-.14-.234-.36-.39-.36-.22 0-.688.22-1.407.688l-.344.235.172.421.5-.28c.266-.173.266-.173.344-.173.11 0 0-.062 0 .047 0 .078-.031.266-.063.39l-.64 2.126c-.094.281-.125.5-.125.687 0 .204.266.47.437.47.266 0 .72-.235 1.735-.923zm.28-4.72c0-.202-.28-.484-.483-.484-.297 0-.735.422-.735.72 0 .218.313.5.547.5.313 0 .672-.391.672-.735zm0 0"/></svg></g><g><svg overflow="visible" x="180.796" y="42.007"><path d="M4.203-3.063c0-.828-.64-1.468-1.437-1.468-.407 0-.985.187-1.407.468-.78.516-1.265 1.5-1.265 2.579 0 .937.594 1.578 1.39 1.578.532 0 1.22-.266 1.641-.64.61-.516 1.078-1.626 1.078-2.516zm-1.047.141c0 .86-.25 1.688-.687 2.156-.156.188-.297.266-.594.266-.563 0-.75-.266-.75-.969 0-1 .344-1.984.813-2.343.125-.094.25-.11.484-.11.578 0 .734.266.734 1zm0 0"/></svg><svg overflow="visible" x="185.255" y="42.007"><path d="M5.14-.984l-.156-.25-.406.25c-.281.156-.375.218-.469.218-.062 0 .016.063.016-.046 0-.032-.031-.032.031-.157l.625-2.453c.078-.25.11-.5.11-.656 0-.203-.25-.453-.438-.453-.406 0-1.187.375-1.766.86-.359.312-.64.608-1.124 1.25l.265.108.36-1.421c.046-.172.062-.266.062-.375 0-.188-.234-.422-.375-.422-.203 0-.703.234-1.39.687l-.344.235.172.421.5-.28c.343-.22.265-.188.343-.188.094 0 .016-.047.016.078 0 .453-.406 2.156-.813 3.453l.172.219c.313-.078.531-.125.875-.188.203-1.218.375-1.703.797-2.312.531-.735 1.14-1.25 1.578-1.25.094 0 0-.063 0 .078 0 .156-.015.344-.11.625l-.5 1.875c-.077.328-.124.531-.124.672 0 .219.265.484.453.484.25 0 .703-.219 1.734-.922zm0 0"/></svg></g><g><svg overflow="visible" x="212.723" y="25.41"><path d="M8.266-4.078a1.419 1.419 0 01-.047-.36c0-.109.015-.234.062-.484h-7.5c.063.25.063.375.063.484 0 .125 0 .235-.063.5h7.5zm0 2.625a1.332 1.332 0 01-.047-.36c0-.109.015-.234.062-.484h-7.5c.063.25.063.375.063.485 0 .125 0 .25-.063.5h7.5zm0 0"/></svg></g><g><svg overflow="visible" x="231.72" y="25.41"><path d="M-.813-7.234a29.143 29.143 0 00-2.171-1.422c-.829.484-1.516.937-2.266 1.484l.313.547L-3-7.688l1.953 1.063.313-.547zm0 0"/></svg></g><g><svg overflow="visible" x="225.132" y="25.41"><path d="M5.875-5.875c-.14-.078-.344-.156-.453-.156-.469 0-1.063.468-1.797 1.578l-.453.656.25.094-.078-.578c-.14-1.188-.594-1.75-1.297-1.75-.313 0-.688.14-.797.297L.484-4.61l.407.25c.437-.485.578-.61.812-.61.39 0 .516.36.719 1.532l.125.718-.438.656C1.594-1.25 1.297-.905.953-.905c-.172 0-.172.078-.203.015l-.188-.468-.453.062c0 .36-.03.516-.093.89-.032.141-.047.173-.063.329.219.125.531.203.672.203.39 0 .953-.375 1.328-.938l.906-1.406-.234-.094.125.829c.172 1.015.578 1.609 1 1.609.266 0 .75-.234 1.125-.578l.64-.578-.218-.469c-.578.453-.766.61-.953.61-.188 0-.25-.094-.453-.5.015.046-.11-.407-.172-.75L3.5-3.313l.39-.532c.563-.765.782-1.015 1.157-1.015.187 0 .187-.032.312.312l.36-.11.203-1.171zm0 0"/></svg></g><g><svg overflow="visible" x="231.242" y="25.41"><path d="M4.203-7.828a.735.735 0 01-.187-.14c-.063-.063-.11-.126-.22-.329-1.593 1.61-2.5 3.266-2.5 4.781v.797c0 1.516.907 3.172 2.5 4.781.11-.203.157-.265.22-.328.062-.062.125-.109.312-.203C2.875.063 2.281-1.344 2.281-2.719v-.797c0-1.39.594-2.78 2.047-4.25zm0 0"/></svg><svg overflow="visible" x="236.311" y="25.41"><path d="M3.703-5.516c-.453.047-.86.063-1.156.063.172-.984.297-1.578.531-2.25l-.25-.328a7.16 7.16 0 01-1.094.531l-.296 2.031c-.391.203-.704.328-1.063.407l-.047.406h1l-.64 3.25C.625-1.11.53-.813.53-.5c0 .297.266.61.5.61.422 0 .922-.282 1.86-1.032.218-.172.14-.125.437-.36l-.25-.437-.672.469c-.36.25-.484.313-.625.313-.093 0-.031.046-.031-.11 0-.297.156-1.234.516-3l.14-.61h1.266l.203-.89zm0 0"/></svg></g><g><svg overflow="visible" x="240.351" y="25.41"><path d="M3.766-2.719v-.797c0-1.515-.907-3.171-2.516-4.78-.11.202-.156.265-.203.327-.063.063-.125.11-.313.203 1.438 1.47 2.032 2.86 2.032 4.25v.797c0 1.375-.594 2.781-2.032 4.25.188.094.25.14.313.203.047.063.094.125.203.329C2.86.452 3.766-1.204 3.766-2.72zm0 0"/></svg></g></svg>