<svg xmlns="http://www.w3.org/2000/svg" xmlns:xlink="http://www.w3.org/1999/xlink" width="279px" height="121px" viewBox="0 0 209 91"><svg overflow="visible" x="11.702" y="12.661"><path d="M5.875-8.86l-.219-.187c-.75.375-1.078.438-2.062.531l-.094.5h.75c.281 0 .25-.046.25.157 0 .109 0 .203-.016.296L4.188-5.89a3.109 3.109 0 00-.875-.14c-.829 0-2.063.906-2.61 1.937-.375.703-.64 1.938-.64 2.938C.063-.375.374.125.734.125c.313 0 .86-.234 1.266-.563.64-.515 1.031-.984 1.844-2.187l-.25-.094-.266 1.078c-.14.532-.203.907-.203 1.22 0 .25.25.546.453.546.219 0 .594-.203 1-.5l1.047-.766-.266-.468-.656.468c-.172.125-.25.172-.36.172-.093 0-.046.031-.046-.14 0-.094.031-.204.11-.547l1.515-7.157zM4.031-5.03l-.14.703A5.233 5.233 0 012.375-1.61c-.422.39-.781.64-1.016.64-.187 0-.171-.031-.171-.328 0-1.516.515-3.281 1.109-3.734.156-.125.281-.14.61-.14.53 0 .765.03 1.109.218zm0 0"/></svg><svg overflow="visible" x="21.123" y="12.661"><path d="M8.266-4.078a1.419 1.419 0 01-.047-.36c0-.109.015-.234.062-.484h-7.5c.063.25.063.375.063.484 0 .125 0 .235-.063.5h7.5zm0 2.625a1.332 1.332 0 01-.047-.36c0-.109.015-.234.062-.484h-7.5c.063.25.063.375.063.485 0 .125 0 .25-.063.5h7.5zm0 0"/></svg><svg overflow="visible" x="33.532" y="12.661"><path d="M1.688 2.625V-9.031c-.235.062-.344.078-.438.078-.094 0-.203-.016-.438-.078V2.78c.235-.062.344-.062.438-.062.094 0 .203 0 .438.062zm2.03 0V-9.031c-.234.062-.343.078-.437.078-.094 0-.203-.016-.437-.078V2.78c.234-.062.344-.062.437-.062.094 0 .203 0 .438.062zm0 0"/></svg><svg overflow="visible" x="38.075" y="12.661"><path d="M3.703-5.516c-.453.047-.86.063-1.156.063.172-.984.297-1.578.531-2.25l-.25-.328a7.16 7.16 0 01-1.094.531l-.296 2.031c-.391.203-.704.328-1.063.407l-.047.406h1l-.64 3.25C.625-1.11.53-.813.53-.5c0 .297.266.61.5.61.422 0 .922-.282 1.86-1.032.218-.172.14-.125.437-.36l-.25-.437-.672.469c-.36.25-.484.313-.625.313-.093 0-.031.046-.031-.11 0-.297.156-1.234.516-3l.14-.61h1.266l.203-.89zm0 0"/></svg><svg overflow="visible" x="42.116" y="12.661"><path d="M4.984-1.14l-.156-.485c-.25.203-.266.219-.328.266-.375.312-.453.39-.625.39-.125 0-.047.031-.047-.156 0-.047 0-.078.016-.125l1.11-4.578-.25-.203-.438.218c-.438-.156-.672-.218-.985-.218-.344 0-.578.062-.906.218-.75.375-1.234.766-1.531 1.36l-.047.094C.28-3.297-.093-1.875-.093-.922c0 .516.327 1.047.546 1.047.25 0 .797-.281 1.234-.656.516-.453.985-1.016 1.641-1.938l-.234-.094-.344 1.516a2.715 2.715 0 00-.078.61c0 .265.25.562.437.562.266 0 .86-.36 1.891-1.219zM3.672-5.079c-.266 1.281-.453 1.797-.844 2.406C2.156-1.656 1.516-.969 1.125-.969c-.14 0-.078-.015-.078-.344 0-.765.297-2.093.719-3.093.296-.688.453-.766 1.03-.766.282 0 .5.047.86.172zm0 0"/></svg><svg overflow="visible" x="47.424" y="12.661"><path d="M6.234-1.25l-.171-.297-.454.297c-.343.219-.5.313-.625.313-.078 0-.03.03-.03-.11 0-.047.015-.187.03-.234l.782-3.297c.093-.344.14-.688.14-.89 0-.266-.265-.563-.5-.563-.5 0-1.437.5-2.14 1.156-.454.422-.797.828-1.407 1.703l.235.094.453-1.938c.047-.203.078-.343.078-.484 0-.25-.234-.531-.406-.531-.266 0-.828.312-1.703.922l-.391.296.172.485.547-.36c.437-.28.39-.265.469-.265.14 0 .078 0 .078.172 0 .61-.5 2.922-.985 4.656l.172.25c.36-.094.625-.172 1.016-.234.234-1.625.468-2.313 1-3.125.656-1.016 1.453-1.72 1.984-1.72.125 0 .063-.015.063.157 0 .219-.032.469-.141.86l-.61 2.53c-.109.438-.156.72-.156.907 0 .297.266.61.5.61.313 0 .829-.282 2.079-1.22zm0 0"/></svg><svg overflow="visible" x="54.071" y="12.661"><path d="M6.047-5.328l-.078-.14c-.39.109-.625.14-1.219.14-.14-.281-.36-.422-.656-.547a2.495 2.495 0 00-.813-.156c-.484 0-1.187.265-1.719.672A2.62 2.62 0 00.516-3.234c0 .921.671 1.609 1.593 1.609.11 0 .235 0 .36-.016l-.11-.218-.484.453c-.188.172-.36.484-.36.656 0 .11.126.344.126.344C1-.187.53.03.078.39c-.406.343-.656.906-.656 1.375 0 .859.969 1.53 2.281 1.53 1.531 0 3.016-.983 3.016-1.983 0-.422-.282-.954-.797-1.375l-.719-.579c-.406-.328-.531-.453-.531-.687 0-.11.047-.125.219-.36.03-.046.046-.062.046-.062 1.11-.281 2.079-1.406 2.079-2.469 0-.11 0-.218-.032-.39l.032.093h.234c.203 0 .313-.015.703-.062l.125-.672zm-2.39 7.031c0 .625-.688 1-1.673 1C1 2.703.454 2.328.454 1.61c0-.468.187-.78.562-1.109C1.328.25 1.5.172 2.062 0l.86.656c.547.438.734.656.734 1.047zm.234-5.906c0 1.234-.438 1.937-1.266 1.937-.734 0-.984-.359-.984-1.312 0-1.125.468-1.781 1.343-1.781.704 0 .907.296.907 1.156zm0 0"/></svg><svg overflow="visible" x="60.36" y="12.661"><path d="M4.61-4.953c0-.563-.532-1.078-1.141-1.078-.781 0-2.188.843-2.672 1.61C.437-3.845.03-2.313.03-1.47.031-.547.703.125 1.563.125 2.25.125 3-.235 4.171-1.188l-.203-.468-.438.312c-.64.453-1.11.657-1.531.657-.578 0-.781-.313-.781-1.047 0-.313.031-.61.078-.844l.86-.219c.202-.047.515-.172.827-.297C4-3.547 4.61-4.219 4.61-4.954zm-1.173.187c0 .516-.265.954-.89 1.25a5.596 5.596 0 01-1.125.375l.062-.265c.188-.797.391-1.219.72-1.516.218-.219.515-.344.812-.344.343 0 .421.11.421.5zm0 0"/></svg><svg overflow="visible" x="65.166" y="12.661"><path d="M6.234-1.25l-.171-.297-.454.297c-.343.219-.5.313-.625.313-.078 0-.03.03-.03-.11 0-.047.015-.187.03-.234l.782-3.297c.093-.344.14-.688.14-.89 0-.266-.265-.563-.5-.563-.5 0-1.437.5-2.14 1.156-.454.422-.797.828-1.407 1.703l.235.094.453-1.938c.047-.203.078-.343.078-.484 0-.25-.234-.531-.406-.531-.266 0-.828.312-1.703.922l-.391.296.172.485.547-.36c.437-.28.39-.265.469-.265.14 0 .078 0 .078.172 0 .61-.5 2.922-.985 4.656l.172.25c.36-.094.625-.172 1.016-.234.234-1.625.468-2.313 1-3.125.656-1.016 1.453-1.72 1.984-1.72.125 0 .063-.015.063.157 0 .219-.032.469-.141.86l-.61 2.53c-.109.438-.156.72-.156.907 0 .297.266.61.5.61.313 0 .829-.282 2.079-1.22zm0 0"/></svg><svg overflow="visible" x="71.813" y="12.661"><path d="M3.703-5.516c-.453.047-.86.063-1.156.063.172-.984.297-1.578.531-2.25l-.25-.328a7.16 7.16 0 01-1.094.531l-.296 2.031c-.391.203-.704.328-1.063.407l-.047.406h1l-.64 3.25C.625-1.11.53-.813.53-.5c0 .297.266.61.5.61.422 0 .922-.282 1.86-1.032.218-.172.14-.125.437-.36l-.25-.437-.672.469c-.36.25-.484.313-.625.313-.093 0-.031.046-.031-.11 0-.297.156-1.234.516-3l.14-.61h1.266l.203-.89zm0 0"/></svg><svg overflow="visible" x="75.854" y="12.661"><path d="M4.203-7.828a.735.735 0 01-.187-.14c-.063-.063-.11-.126-.22-.329-1.593 1.61-2.5 3.266-2.5 4.781v.797c0 1.516.907 3.172 2.5 4.781.11-.203.157-.265.22-.328.062-.062.125-.109.312-.203C2.875.063 2.281-1.344 2.281-2.719v-.797c0-1.39.594-2.78 2.047-4.25zm0 0"/></svg><svg overflow="visible" x="80.923" y="12.661"><path d="M3.703-5.516c-.453.047-.86.063-1.156.063.172-.984.297-1.578.531-2.25l-.25-.328a7.16 7.16 0 01-1.094.531l-.296 2.031c-.391.203-.704.328-1.063.407l-.047.406h1l-.64 3.25C.625-1.11.53-.813.53-.5c0 .297.266.61.5.61.422 0 .922-.282 1.86-1.032.218-.172.14-.125.437-.36l-.25-.437-.672.469c-.36.25-.484.313-.625.313-.093 0-.031.046-.031-.11 0-.297.156-1.234.516-3l.14-.61h1.266l.203-.89zm0 0"/></svg><svg overflow="visible" x="84.963" y="12.661"><path d="M3.766-2.719v-.797c0-1.515-.907-3.171-2.516-4.78-.11.202-.156.265-.203.327-.063.063-.125.11-.313.203 1.438 1.47 2.032 2.86 2.032 4.25v.797c0 1.375-.594 2.781-2.032 4.25.188.094.25.14.313.203.047.063.094.125.203.329C2.86.452 3.766-1.204 3.766-2.72zm0 0"/></svg><svg overflow="visible" x="90.032" y="12.661"><path d="M1.688 2.625V-9.031c-.235.062-.344.078-.438.078-.094 0-.203-.016-.438-.078V2.78c.235-.062.344-.062.438-.062.094 0 .203 0 .438.062zm2.03 0V-9.031c-.234.062-.343.078-.437.078-.094 0-.203-.016-.437-.078V2.78c.234-.062.344-.062.437-.062.094 0 .203 0 .438.062zm0 0"/></svg><svg overflow="visible" x="97.899" y="12.661"><path d="M8.266-4.078a1.419 1.419 0 01-.047-.36c0-.109.015-.234.062-.484h-7.5c.063.25.063.375.063.484 0 .125 0 .235-.063.5h7.5zm0 2.625a1.332 1.332 0 01-.047-.36c0-.109.015-.234.062-.484h-7.5c.063.25.063.375.063.485 0 .125 0 .25-.063.5h7.5zm0 0"/></svg><svg overflow="visible" x="110.311" y="12.544"><path d="M9.063-11.61v-.843H7.14L4.67 3.422h.282l-1.594-6H1.297v.969h.828l1.969 7.484c.281-.047.437-.047.61-.047.155 0 .312 0 .577.047l2.703-17.344h1.079zm0 0"/></svg><path d="M118.883.707h79.414" fill="none" stroke-width=".717" stroke="#000" stroke-miterlimit="10"/><svg overflow="visible" x="118.883" y="12.661"><path d="M6.813-6.844c0-.984-1.094-1.687-2.016-1.687-.594 0-1.203.031-1.797.031l-1.938-.047-.062.61.797.03c.281 0 .266-.03.266.188 0 .172-.047.547-.11.907L.922-.782C.89-.577.875-.624.25-.531L.14.048A21.28 21.28 0 011.407 0c.64 0 1.266.031 1.922.031.563 0 1.219-.156 1.781-.5.954-.562 1.516-1.469 1.516-2.375 0-.515-.203-1-.531-1.265-.313-.25-.766-.391-1.594-.516v.266c.688-.25 1.063-.438 1.453-.75.531-.485.86-1.125.86-1.735zM5.296-2.656c0 1.234-.734 1.984-1.922 1.984-.25 0-.594-.015-.984-.047-.079-.015-.22-.015-.25-.031l.562-3.313h.906c1.235 0 1.688.375 1.688 1.407zm.219-3.985c0 1.266-.75 1.891-2.235 1.891h-.453l.531-3.016c.22 0 .532-.062.844-.062.969 0 1.313.297 1.313 1.187zm0 0"/></svg><svg overflow="visible" x="126.187" y="9.122"><path d="M2.594-4.672l-.203-.187-1.094.39-.89 3.36.312.234.5-.25 1.437-3.484zm0 0"/></svg><svg overflow="visible" x="126.187" y="15.435"><path d="M4.86-4.406c-.126-.063-.313-.125-.391-.125-.39 0-.89.36-1.485 1.172l-.359.484.266.094-.063-.422c-.11-.875-.515-1.328-1.094-1.328-.25 0-.578.11-.671.218l-.641.875.406.22c.36-.376.453-.454.625-.454.328 0 .375.219.531 1.094l.11.515-.328.485c-.422.594-.641.828-.907.828-.14 0-.093.11-.109.063l-.172-.407-.453.063c0 .297-.016.406-.078.687-.016.11-.016.14-.031.266.187.11.468.172.578.172.312 0 .797-.281 1.094-.703l.734-1.032-.266-.109.11.625c.125.75.5 1.219.843 1.219.22 0 .625-.188.938-.438l.531-.437-.203-.438c-.516.39-.64.485-.781.485-.156 0-.172-.047-.266-.235-.094-.156-.156-.39-.203-.656l-.172-.844.297-.375c.453-.578.61-.75.906-.75.157 0 .11-.062.219.235l.36-.094.187-.922zm0 0"/></svg><svg overflow="visible" x="131.684" y="12.661"><path d="M4.203-7.828a.735.735 0 01-.187-.14c-.063-.063-.11-.126-.22-.329-1.593 1.61-2.5 3.266-2.5 4.781v.797c0 1.516.907 3.172 2.5 4.781.11-.203.157-.265.22-.328.062-.062.125-.109.312-.203C2.875.063 2.281-1.344 2.281-2.719v-.797c0-1.39.594-2.78 2.047-4.25zm0 0"/></svg><svg overflow="visible" x="136.753" y="12.661"><path d="M3.703-5.516c-.453.047-.86.063-1.156.063.172-.984.297-1.578.531-2.25l-.25-.328a7.16 7.16 0 01-1.094.531l-.296 2.031c-.391.203-.704.328-1.063.407l-.047.406h1l-.64 3.25C.625-1.11.53-.813.53-.5c0 .297.266.61.5.61.422 0 .922-.282 1.86-1.032.218-.172.14-.125.437-.36l-.25-.437-.672.469c-.36.25-.484.313-.625.313-.093 0-.031.046-.031-.11 0-.297.156-1.234.516-3l.14-.61h1.266l.203-.89zm0 0"/></svg><svg overflow="visible" x="140.794" y="12.661"><path d="M3.766-2.719v-.797c0-1.515-.907-3.171-2.516-4.78-.11.202-.156.265-.203.327-.063.063-.125.11-.313.203 1.438 1.47 2.032 2.86 2.032 4.25v.797c0 1.375-.594 2.781-2.032 4.25.188.094.25.14.313.203.047.063.094.125.203.329C2.86.452 3.766-1.204 3.766-2.72zm0 0"/></svg><svg overflow="visible" x="145.863" y="9.122"><path d="M4.75-.11c-.016-.187-.016-.265-.016-.39s0-.203.032-.547l-3.141.094 1.5-1.469c.938-.906 1.266-1.5 1.266-2.156 0-1.016-.891-1.781-2.125-1.781-.688 0-1.282.218-1.782.687L.297-4.266h.547l.172-.546c.156-.516.359-.594 1-.594.828 0 1.203.343 1.203 1.093 0 .657-.36 1.22-1.453 2.282L.078-.391v.422L2.391 0l2.375.031zm0 0"/></svg><svg overflow="visible" x="154.016" y="12.661"><path d="M8.266-2.766a1.332 1.332 0 01-.047-.359c0-.11.015-.234.062-.484h-3.25v-3.266c-.25.063-.375.078-.484.078-.125 0-.25-.016-.5-.078v3.266H.78c.063.25.063.375.063.484 0 .125 0 .25-.063.5h3.266V.641c.25-.063.375-.079.5-.079.11 0 .234.016.484.079v-3.266h3.25zm0 0"/></svg><svg overflow="visible" x="165.756" y="12.661"><path d="M6.813-6.844c0-.984-1.094-1.687-2.016-1.687-.594 0-1.203.031-1.797.031l-1.938-.047-.062.61.797.03c.281 0 .266-.03.266.188 0 .172-.047.547-.11.907L.922-.782C.89-.577.875-.624.25-.531L.14.048A21.28 21.28 0 011.407 0c.64 0 1.266.031 1.922.031.563 0 1.219-.156 1.781-.5.954-.562 1.516-1.469 1.516-2.375 0-.515-.203-1-.531-1.265-.313-.25-.766-.391-1.594-.516v.266c.688-.25 1.063-.438 1.453-.75.531-.485.86-1.125.86-1.735zM5.296-2.656c0 1.234-.734 1.984-1.922 1.984-.25 0-.594-.015-.984-.047-.079-.015-.22-.015-.25-.031l.562-3.313h.906c1.235 0 1.688.375 1.688 1.407zm.219-3.985c0 1.266-.75 1.891-2.235 1.891h-.453l.531-3.016c.22 0 .532-.062.844-.062.969 0 1.313.297 1.313 1.187zm0 0"/></svg><svg overflow="visible" x="173.064" y="9.122"><path d="M2.594-4.672l-.203-.187-1.094.39-.89 3.36.312.234.5-.25 1.437-3.484zm0 0"/></svg><svg overflow="visible" x="173.064" y="15.435"><path d="M4.922-4.406l-.188-.14a3.25 3.25 0 01-.875.202L3.5-3.062c-.125.421-.406.968-.734 1.406-.329.437-.688.797-.907.797-.203 0-.03-.297-.03-.407l.14-1.718c.015-.266.047-.61.047-.86 0-.39-.22-.687-.391-.687-.125 0-.375.093-.828.39l-.89.563.265.375.64-.36c.047-.03.063-.062.141-.062.235 0 .047.313.031.453L.828-1.016l-.015.36c0 .36.343.75.578.75.359 0 1.265-.781 2-1.782l-.266-.093-.484 1.5c-.485 1.578-.813 2.078-1.485 2.078-.328 0-.453-.094-.453-.406 0-.047.016-.11.047-.266l-.297-.11-.578.376c-.031.125-.031.187-.031.234 0 .375.531.813.969.813 1.015 0 2.218-1.22 2.78-2.86l1.391-3.937zm0 0"/></svg><svg overflow="visible" x="178.622" y="12.661"><path d="M4.203-7.828a.735.735 0 01-.187-.14c-.063-.063-.11-.126-.22-.329-1.593 1.61-2.5 3.266-2.5 4.781v.797c0 1.516.907 3.172 2.5 4.781.11-.203.157-.265.22-.328.062-.062.125-.109.312-.203C2.875.063 2.281-1.344 2.281-2.719v-.797c0-1.39.594-2.78 2.047-4.25zm0 0"/></svg><svg overflow="visible" x="183.691" y="12.661"><path d="M3.703-5.516c-.453.047-.86.063-1.156.063.172-.984.297-1.578.531-2.25l-.25-.328a7.16 7.16 0 01-1.094.531l-.296 2.031c-.391.203-.704.328-1.063.407l-.047.406h1l-.64 3.25C.625-1.11.53-.813.53-.5c0 .297.266.61.5.61.422 0 .922-.282 1.86-1.032.218-.172.14-.125.437-.36l-.25-.437-.672.469c-.36.25-.484.313-.625.313-.093 0-.031.046-.031-.11 0-.297.156-1.234.516-3l.14-.61h1.266l.203-.89zm0 0"/></svg><svg overflow="visible" x="187.732" y="12.661"><path d="M3.766-2.719v-.797c0-1.515-.907-3.171-2.516-4.78-.11.202-.156.265-.203.327-.063.063-.125.11-.313.203 1.438 1.47 2.032 2.86 2.032 4.25v.797c0 1.375-.594 2.781-2.032 4.25.188.094.25.14.313.203.047.063.094.125.203.329C2.86.452 3.766-1.204 3.766-2.72zm0 0"/></svg><svg overflow="visible" x="192.801" y="9.122"><path d="M4.75-.11c-.016-.187-.016-.265-.016-.39s0-.203.032-.547l-3.141.094 1.5-1.469c.938-.906 1.266-1.5 1.266-2.156 0-1.016-.891-1.781-2.125-1.781-.688 0-1.282.218-1.782.687L.297-4.266h.547l.172-.546c.156-.516.359-.594 1-.594.828 0 1.203.343 1.203 1.093 0 .657-.36 1.22-1.453 2.282L.078-.391v.422L2.391 0l2.375.031zm0 0"/></svg><svg overflow="visible" x="6.945" y="46.065"><path d="M-.813-7.234a29.143 29.143 0 00-2.171-1.422c-.829.484-1.516.937-2.266 1.484l.313.547L-3-7.688l1.953 1.063.313-.547zm0 0"/></svg><svg overflow="visible" x=".358" y="46.065"><path d="M5.875-5.875c-.14-.078-.344-.156-.453-.156-.469 0-1.063.468-1.797 1.578l-.453.656.25.094-.078-.578c-.14-1.188-.594-1.75-1.297-1.75-.313 0-.688.14-.797.297L.484-4.61l.407.25c.437-.485.578-.61.812-.61.39 0 .516.36.719 1.532l.125.718-.438.656C1.594-1.25 1.297-.905.953-.905c-.172 0-.172.078-.203.015l-.188-.468-.453.062c0 .36-.03.516-.093.89-.032.141-.047.173-.063.329.219.125.531.203.672.203.39 0 .953-.375 1.328-.938l.906-1.406-.234-.094.125.829c.172 1.015.578 1.609 1 1.609.266 0 .75-.234 1.125-.578l.64-.578-.218-.469c-.578.453-.766.61-.953.61-.188 0-.25-.094-.453-.5.015.046-.11-.407-.172-.75L3.5-3.313l.39-.532c.563-.765.782-1.015 1.157-1.015.187 0 .187-.032.312.312l.36-.11.203-1.171zm0 0"/></svg><svg overflow="visible" x="6.467" y="46.065"><path d="M4.203-7.828a.735.735 0 01-.187-.14c-.063-.063-.11-.126-.22-.329-1.593 1.61-2.5 3.266-2.5 4.781v.797c0 1.516.907 3.172 2.5 4.781.11-.203.157-.265.22-.328.062-.062.125-.109.312-.203C2.875.063 2.281-1.344 2.281-2.719v-.797c0-1.39.594-2.78 2.047-4.25zm0 0"/></svg><svg overflow="visible" x="11.536" y="46.065"><path d="M3.703-5.516c-.453.047-.86.063-1.156.063.172-.984.297-1.578.531-2.25l-.25-.328a7.16 7.16 0 01-1.094.531l-.296 2.031c-.391.203-.704.328-1.063.407l-.047.406h1l-.64 3.25C.625-1.11.53-.813.53-.5c0 .297.266.61.5.61.422 0 .922-.282 1.86-1.032.218-.172.14-.125.437-.36l-.25-.437-.672.469c-.36.25-.484.313-.625.313-.093 0-.031.046-.031-.11 0-.297.156-1.234.516-3l.14-.61h1.266l.203-.89zm0 0"/></svg><svg overflow="visible" x="15.577" y="46.065"><path d="M3.766-2.719v-.797c0-1.515-.907-3.171-2.516-4.78-.11.202-.156.265-.203.327-.063.063-.125.11-.313.203 1.438 1.47 2.032 2.86 2.032 4.25v.797c0 1.375-.594 2.781-2.032 4.25.188.094.25.14.313.203.047.063.094.125.203.329C2.86.452 3.766-1.204 3.766-2.72zm0 0"/></svg><svg overflow="visible" x="23.957" y="46.065"><path d="M8.266-4.078a1.419 1.419 0 01-.047-.36c0-.109.015-.234.062-.484h-7.5c.063.25.063.375.063.484 0 .125 0 .235-.063.5h7.5zm0 2.625a1.332 1.332 0 01-.047-.36c0-.109.015-.234.062-.484h-7.5c.063.25.063.375.063.485 0 .125 0 .25-.063.5h7.5zm0 0"/></svg><svg overflow="visible" x="36.367" y="46.065"><path d="M1.688 2.625V-9.031c-.235.062-.344.078-.438.078-.094 0-.203-.016-.438-.078V2.78c.235-.062.344-.062.438-.062.094 0 .203 0 .438.062zm2.03 0V-9.031c-.234.062-.343.078-.437.078-.094 0-.203-.016-.437-.078V2.78c.234-.062.344-.062.437-.062.094 0 .203 0 .438.062zm0 0"/></svg><svg overflow="visible" x="40.91" y="46.065"><path d="M3.703-5.516c-.453.047-.86.063-1.156.063.172-.984.297-1.578.531-2.25l-.25-.328a7.16 7.16 0 01-1.094.531l-.296 2.031c-.391.203-.704.328-1.063.407l-.047.406h1l-.64 3.25C.625-1.11.53-.813.53-.5c0 .297.266.61.5.61.422 0 .922-.282 1.86-1.032.218-.172.14-.125.437-.36l-.25-.437-.672.469c-.36.25-.484.313-.625.313-.093 0-.031.046-.031-.11 0-.297.156-1.234.516-3l.14-.61h1.266l.203-.89zm0 0"/></svg><svg overflow="visible" x="44.951" y="46.065"><path d="M4.984-1.14l-.156-.485c-.25.203-.266.219-.328.266-.375.312-.453.39-.625.39-.125 0-.047.031-.047-.156 0-.047 0-.078.016-.125l1.11-4.578-.25-.203-.438.218c-.438-.156-.672-.218-.985-.218-.344 0-.578.062-.906.218-.75.375-1.234.766-1.531 1.36l-.047.094C.28-3.297-.093-1.875-.093-.922c0 .516.327 1.047.546 1.047.25 0 .797-.281 1.234-.656.516-.453.985-1.016 1.641-1.938l-.234-.094-.344 1.516a2.715 2.715 0 00-.078.61c0 .265.25.562.437.562.266 0 .86-.36 1.891-1.219zM3.672-5.079c-.266 1.281-.453 1.797-.844 2.406C2.156-1.656 1.516-.969 1.125-.969c-.14 0-.078-.015-.078-.344 0-.765.297-2.093.719-3.093.296-.688.453-.766 1.03-.766.282 0 .5.047.86.172zm0 0"/></svg><svg overflow="visible" x="50.259" y="46.065"><path d="M6.234-1.25l-.171-.297-.454.297c-.343.219-.5.313-.625.313-.078 0-.03.03-.03-.11 0-.047.015-.187.03-.234l.782-3.297c.093-.344.14-.688.14-.89 0-.266-.265-.563-.5-.563-.5 0-1.437.5-2.14 1.156-.454.422-.797.828-1.407 1.703l.235.094.453-1.938c.047-.203.078-.343.078-.484 0-.25-.234-.531-.406-.531-.266 0-.828.312-1.703.922l-.391.296.172.485.547-.36c.437-.28.39-.265.469-.265.14 0 .078 0 .078.172 0 .61-.5 2.922-.985 4.656l.172.25c.36-.094.625-.172 1.016-.234.234-1.625.468-2.313 1-3.125.656-1.016 1.453-1.72 1.984-1.72.125 0 .063-.015.063.157 0 .219-.032.469-.141.86l-.61 2.53c-.109.438-.156.72-.156.907 0 .297.266.61.5.61.313 0 .829-.282 2.079-1.22zm0 0"/></svg><svg overflow="visible" x="56.906" y="46.065"><path d="M6.047-5.328l-.078-.14c-.39.109-.625.14-1.219.14-.14-.281-.36-.422-.656-.547a2.495 2.495 0 00-.813-.156c-.484 0-1.187.265-1.719.672A2.62 2.62 0 00.516-3.234c0 .921.671 1.609 1.593 1.609.11 0 .235 0 .36-.016l-.11-.218-.484.453c-.188.172-.36.484-.36.656 0 .11.126.344.126.344C1-.187.53.03.078.39c-.406.343-.656.906-.656 1.375 0 .859.969 1.53 2.281 1.53 1.531 0 3.016-.983 3.016-1.983 0-.422-.282-.954-.797-1.375l-.719-.579c-.406-.328-.531-.453-.531-.687 0-.11.047-.125.219-.36.03-.046.046-.062.046-.062 1.11-.281 2.079-1.406 2.079-2.469 0-.11 0-.218-.032-.39l.032.093h.234c.203 0 .313-.015.703-.062l.125-.672zm-2.39 7.031c0 .625-.688 1-1.673 1C1 2.703.454 2.328.454 1.61c0-.468.187-.78.562-1.109C1.328.25 1.5.172 2.062 0l.86.656c.547.438.734.656.734 1.047zm.234-5.906c0 1.234-.438 1.937-1.266 1.937-.734 0-.984-.359-.984-1.312 0-1.125.468-1.781 1.343-1.781.704 0 .907.296.907 1.156zm0 0"/></svg><svg overflow="visible" x="63.194" y="46.065"><path d="M4.61-4.953c0-.563-.532-1.078-1.141-1.078-.781 0-2.188.843-2.672 1.61C.437-3.845.03-2.313.03-1.47.031-.547.703.125 1.563.125 2.25.125 3-.235 4.171-1.188l-.203-.468-.438.312c-.64.453-1.11.657-1.531.657-.578 0-.781-.313-.781-1.047 0-.313.031-.61.078-.844l.86-.219c.202-.047.515-.172.827-.297C4-3.547 4.61-4.219 4.61-4.954zm-1.173.187c0 .516-.265.954-.89 1.25a5.596 5.596 0 01-1.125.375l.062-.265c.188-.797.391-1.219.72-1.516.218-.219.515-.344.812-.344.343 0 .421.11.421.5zm0 0"/></svg><svg overflow="visible" x="68" y="46.065"><path d="M6.234-1.25l-.171-.297-.454.297c-.343.219-.5.313-.625.313-.078 0-.03.03-.03-.11 0-.047.015-.187.03-.234l.782-3.297c.093-.344.14-.688.14-.89 0-.266-.265-.563-.5-.563-.5 0-1.437.5-2.14 1.156-.454.422-.797.828-1.407 1.703l.235.094.453-1.938c.047-.203.078-.343.078-.484 0-.25-.234-.531-.406-.531-.266 0-.828.312-1.703.922l-.391.296.172.485.547-.36c.437-.28.39-.265.469-.265.14 0 .078 0 .078.172 0 .61-.5 2.922-.985 4.656l.172.25c.36-.094.625-.172 1.016-.234.234-1.625.468-2.313 1-3.125.656-1.016 1.453-1.72 1.984-1.72.125 0 .063-.015.063.157 0 .219-.032.469-.141.86l-.61 2.53c-.109.438-.156.72-.156.907 0 .297.266.61.5.61.313 0 .829-.282 2.079-1.22zm0 0"/></svg><svg overflow="visible" x="74.647" y="46.065"><path d="M3.703-5.516c-.453.047-.86.063-1.156.063.172-.984.297-1.578.531-2.25l-.25-.328a7.16 7.16 0 01-1.094.531l-.296 2.031c-.391.203-.704.328-1.063.407l-.047.406h1l-.64 3.25C.625-1.11.53-.813.53-.5c0 .297.266.61.5.61.422 0 .922-.282 1.86-1.032.218-.172.14-.125.437-.36l-.25-.437-.672.469c-.36.25-.484.313-.625.313-.093 0-.031.046-.031-.11 0-.297.156-1.234.516-3l.14-.61h1.266l.203-.89zm0 0"/></svg><svg overflow="visible" x="78.636" y="48.839"><path d="M4.86-4.406c-.126-.063-.313-.125-.391-.125-.39 0-.89.36-1.485 1.172l-.359.484.266.094-.063-.422c-.11-.875-.515-1.328-1.094-1.328-.25 0-.578.11-.671.218l-.641.875.406.22c.36-.376.453-.454.625-.454.328 0 .375.219.531 1.094l.11.515-.328.485c-.422.594-.641.828-.907.828-.14 0-.093.11-.109.063l-.172-.407-.453.063c0 .297-.016.406-.078.687-.016.11-.016.14-.031.266.187.11.468.172.578.172.312 0 .797-.281 1.094-.703l.734-1.032-.266-.109.11.625c.125.75.5 1.219.843 1.219.22 0 .625-.188.938-.438l.531-.437-.203-.438c-.516.39-.64.485-.781.485-.156 0-.172-.047-.266-.235-.094-.156-.156-.39-.203-.656l-.172-.844.297-.375c.453-.578.61-.75.906-.75.157 0 .11-.062.219.235l.36-.094.187-.922zm0 0"/></svg><svg overflow="visible" x="84.132" y="46.065"><path d="M4.203-7.828a.735.735 0 01-.187-.14c-.063-.063-.11-.126-.22-.329-1.593 1.61-2.5 3.266-2.5 4.781v.797c0 1.516.907 3.172 2.5 4.781.11-.203.157-.265.22-.328.062-.062.125-.109.312-.203C2.875.063 2.281-1.344 2.281-2.719v-.797c0-1.39.594-2.78 2.047-4.25zm0 0"/></svg><svg overflow="visible" x="89.201" y="46.065"><path d="M3.703-5.516c-.453.047-.86.063-1.156.063.172-.984.297-1.578.531-2.25l-.25-.328a7.16 7.16 0 01-1.094.531l-.296 2.031c-.391.203-.704.328-1.063.407l-.047.406h1l-.64 3.25C.625-1.11.53-.813.53-.5c0 .297.266.61.5.61.422 0 .922-.282 1.86-1.032.218-.172.14-.125.437-.36l-.25-.437-.672.469c-.36.25-.484.313-.625.313-.093 0-.031.046-.031-.11 0-.297.156-1.234.516-3l.14-.61h1.266l.203-.89zm0 0"/></svg><svg overflow="visible" x="93.242" y="46.065"><path d="M3.766-2.719v-.797c0-1.515-.907-3.171-2.516-4.78-.11.202-.156.265-.203.327-.063.063-.125.11-.313.203 1.438 1.47 2.032 2.86 2.032 4.25v.797c0 1.375-.594 2.781-2.032 4.25.188.094.25.14.313.203.047.063.094.125.203.329C2.86.452 3.766-1.204 3.766-2.72zm0 0"/></svg><svg overflow="visible" x="98.311" y="46.065"><path d="M1.688 2.625V-9.031c-.235.062-.344.078-.438.078-.094 0-.203-.016-.438-.078V2.78c.235-.062.344-.062.438-.062.094 0 .203 0 .438.062zm2.03 0V-9.031c-.234.062-.343.078-.437.078-.094 0-.203-.016-.437-.078V2.78c.234-.062.344-.062.437-.062.094 0 .203 0 .438.062zm0 0"/></svg><svg overflow="visible" x="106.165" y="46.065"><path d="M8.266-4.078a1.419 1.419 0 01-.047-.36c0-.109.015-.234.062-.484h-7.5c.063.25.063.375.063.484 0 .125 0 .235-.063.5h7.5zm0 2.625a1.332 1.332 0 01-.047-.36c0-.109.015-.234.062-.484h-7.5c.063.25.063.375.063.485 0 .125 0 .25-.063.5h7.5zm0 0"/></svg><svg overflow="visible" x="120.836" y="39.214"><path d="M3.078-4.156c-.375.031-.703.047-.89.047.124-.688.234-1.125.421-1.625l-.234-.282c-.344.172-.484.25-.922.407L1.22-4.094a5.586 5.586 0 01-.86.297l-.046.344h.796L.594-1.078C.547-.86.469-.641.469-.406c0 .219.265.484.453.484.328 0 .765-.203 1.531-.765.172-.125.11-.094.375-.282l-.234-.39L2-.984c-.297.171-.36.218-.484.218-.063 0 .03.063.03-.046 0-.22.11-.907.423-2.22l.078-.421h1.047l.172-.719zm0 0"/></svg><svg overflow="visible" x="124.224" y="39.214"><path d="M4.156-.89L4-1.298c-.25.188-.266.188-.297.234-.312.235-.344.282-.5.282-.094 0 .016.062.016-.078 0-.047 0-.063.015-.094l.891-3.39-.25-.204-.344.172c-.36-.125-.547-.156-.797-.156-.28 0-.468.047-.734.156-.61.281-1.031.578-1.266 1.016C.313-2.58-.03-1.422-.03-.72c0 .375.312.813.484.813.203 0 .672-.219 1.031-.5.407-.328.782-.75 1.313-1.438l-.266-.093-.265 1.125a1.58 1.58 0 00-.063.453c0 .203.25.453.39.453.22 0 .72-.281 1.579-.938zM3-3.798c-.203.953-.344 1.313-.672 1.766-.531.734-1.015 1.25-1.344 1.25-.109 0-.015.015-.015-.235 0-.562.25-1.546.594-2.28.218-.5.312-.532.78-.532.22 0 .407.031.641.11zm0 0"/></svg><svg overflow="visible" x="128.683" y="39.214"><path d="M5.14-.984l-.156-.25-.406.25c-.281.156-.375.218-.469.218-.062 0 .016.063.016-.046 0-.032-.031-.032.031-.157l.625-2.453c.078-.25.11-.5.11-.656 0-.203-.25-.453-.438-.453-.406 0-1.187.375-1.766.86-.359.312-.64.608-1.124 1.25l.265.108.36-1.421c.046-.172.062-.266.062-.375 0-.188-.234-.422-.375-.422-.203 0-.703.234-1.39.687l-.344.235.172.421.5-.28c.343-.22.265-.188.343-.188.094 0 .016-.047.016.078 0 .453-.406 2.156-.813 3.453l.172.219c.313-.078.531-.125.875-.188.203-1.218.375-1.703.797-2.312.531-.735 1.14-1.25 1.578-1.25.094 0 0-.063 0 .078 0 .156-.015.344-.11.625l-.5 1.875c-.077.328-.124.531-.124.672 0 .219.265.484.453.484.25 0 .703-.219 1.734-.922zm0 0"/></svg><svg overflow="visible" x="134.221" y="39.214"><path d="M5-4l-.063-.11c-.343.079-.546.094-.984.094-.125-.187-.328-.312-.562-.39a1.952 1.952 0 00-.657-.125c-.39 0-.984.203-1.406.5-.547.375-.875.984-.875 1.61 0 .671.594 1.218 1.344 1.218.078 0 .187 0 .297-.016l-.125-.218-.39.328c-.157.14-.298.39-.298.515 0 .094.094.281.047.25C.906-.219.484-.047.125.234c-.328.25-.547.688-.547 1.047 0 .625.828 1.157 1.875 1.157 1.25 0 2.484-.766 2.484-1.5 0-.313-.234-.735-.656-1.047l-.578-.438c-.328-.234-.406-.297-.406-.469 0-.078.015-.078.156-.234.016-.047.031-.047.031-.063.86-.187 1.704-1.062 1.704-1.843 0-.078 0-.156-.047-.328l.109.14h.078c.156 0 .25-.015.594-.047l.125-.515zM3 1.234c0 .454-.516.688-1.313.688C.907 1.922.5 1.688.5 1.156.5.813.625.594.938.36c.25-.187.359-.234.812-.343l.672.468c.437.313.578.454.578.75zm.172-4.375c0 .907-.297 1.391-.969 1.391-.594 0-.75-.234-.75-.922 0-.844.344-1.297 1.047-1.297.563 0 .672.188.672.828zm0 0"/></svg><svg overflow="visible" x="139.361" y="39.214"><path d="M3.844-3.703c0-.422-.469-.828-.953-.828-.641 0-1.797.625-2.188 1.203C.422-2.906.078-1.75.078-1.125.078-.437.656.094 1.36.094c.547 0 1.172-.281 2.141-1l-.188-.406-.406.25c-.515.343-.86.484-1.203.484-.469 0-.594-.203-.594-.735 0-.234.016-.453.063-.609l.656-.14c.172-.047.422-.126.672-.235.813-.328 1.344-.86 1.344-1.406zm-1.016.14c0 .391-.187.672-.687.891-.266.11-.625.219-.86.266l.047-.156c.156-.579.297-.876.563-1.094a.914.914 0 01.625-.235c.28 0 .312.047.312.329zm0 0"/></svg><svg overflow="visible" x="143.289" y="39.214"><path d="M5.14-.984l-.156-.25-.406.25c-.281.156-.375.218-.469.218-.062 0 .016.063.016-.046 0-.032-.031-.032.031-.157l.625-2.453c.078-.25.11-.5.11-.656 0-.203-.25-.453-.438-.453-.406 0-1.187.375-1.766.86-.359.312-.64.608-1.124 1.25l.265.108.36-1.421c.046-.172.062-.266.062-.375 0-.188-.234-.422-.375-.422-.203 0-.703.234-1.39.687l-.344.235.172.421.5-.28c.343-.22.265-.188.343-.188.094 0 .016-.047.016.078 0 .453-.406 2.156-.813 3.453l.172.219c.313-.078.531-.125.875-.188.203-1.218.375-1.703.797-2.312.531-.735 1.14-1.25 1.578-1.25.094 0 0-.063 0 .078 0 .156-.015.344-.11.625l-.5 1.875c-.077.328-.124.531-.124.672 0 .219.265.484.453.484.25 0 .703-.219 1.734-.922zm0 0"/></svg><svg overflow="visible" x="148.827" y="39.214"><path d="M3.078-4.156c-.375.031-.703.047-.89.047.124-.688.234-1.125.421-1.625l-.234-.282c-.344.172-.484.25-.922.407L1.22-4.094a5.586 5.586 0 01-.86.297l-.046.344h.796L.594-1.078C.547-.86.469-.641.469-.406c0 .219.265.484.453.484.328 0 .765-.203 1.531-.765.172-.125.11-.094.375-.282l-.234-.39L2-.984c-.297.171-.36.218-.484.218-.063 0 .03.063.03-.046 0-.22.11-.907.423-2.22l.078-.421h1.047l.172-.719zm0 0"/></svg><svg overflow="visible" x="152.216" y="41.267"><path d="M3.969-3.375c-.094-.047-.266-.11-.344-.11-.313 0-.734.282-1.203.891l-.297.36.297.109-.047-.313c-.094-.64-.469-1.046-.922-1.046-.203 0-.5.109-.562.187l-.563.703.39.203c.329-.296.36-.343.5-.343.266 0 .25.109.391.765l.079.375-.25.328c-.329.438-.485.594-.688.594-.125 0-.047.14-.047.11l-.172-.36-.406.047c0 .281-.016.36-.063.578-.015.078-.015.094-.046.219.296.125.421.156.515.156.25 0 .672-.25.906-.547l.375-.484.016.062c.11.563.438.97.719.97.172 0 .531-.157.781-.36l.453-.344-.203-.406c-.453.328-.531.375-.656.375-.11 0-.094-.016-.172-.156-.078-.125-.11-.25-.14-.438l-.141-.625.219-.266c.359-.421.453-.53.687-.53.125 0 .047-.095.156.171l.344-.078.156-.75zm0 0"/></svg><svg overflow="visible" x="156.823" y="39.214"><path d="M3.14-5.86c-.046-.015-.093-.062-.14-.093-.031-.047-.078-.094-.172-.297C1.594-5.016.906-3.766.906-2.64v.593c0 1.125.688 2.375 1.922 3.61.094-.204.14-.25.172-.282.047-.047.094-.093.266-.172C2.172-.016 1.75-1.03 1.75-2.047v-.594c0-1.015.422-2.03 1.516-3.156zm0 0"/></svg><svg overflow="visible" x="160.574" y="39.214"><path d="M3.078-4.156c-.375.031-.703.047-.89.047.124-.688.234-1.125.421-1.625l-.234-.282c-.344.172-.484.25-.922.407L1.22-4.094a5.586 5.586 0 01-.86.297l-.046.344h.796L.594-1.078C.547-.86.469-.641.469-.406c0 .219.265.484.453.484.328 0 .765-.203 1.531-.765.172-.125.11-.094.375-.282l-.234-.39L2-.984c-.297.171-.36.218-.484.218-.063 0 .03.063.03-.046 0-.22.11-.907.423-2.22l.078-.421h1.047l.172-.719zm0 0"/></svg><svg overflow="visible" x="163.962" y="39.214"><path d="M2.844-2.047v-.594c0-1.125-.688-2.375-1.938-3.609-.094.203-.125.25-.172.297-.046.031-.093.078-.265.156C1.579-4.672 2-3.657 2-2.64v.594C2-1.03 1.578-.016.469 1.11a.743.743 0 01.265.172c.047.032.079.078.172.282C2.156.327 2.844-.922 2.844-2.047zm0 0"/></svg><path d="M119.777 43.074h48.996" fill="none" stroke-width=".717" stroke="#000" stroke-miterlimit="10"/><svg overflow="visible" x="119.778" y="50.954"><path d="M1.297 1.906v-8.672c-.219.063-.297.079-.375.079-.063 0-.14-.016-.375-.079v8.844C.78 2.016.859 2 .922 2c.078 0 .156.016.375.078zm1.5 0v-8.672c-.219.063-.297.079-.36.079-.078 0-.156-.016-.39-.079v8.844c.234-.062.312-.078.39-.078.063 0 .141.016.36.078zm0 0"/></svg><svg overflow="visible" x="123.14" y="50.954"><path d="M3.078-4.156c-.375.031-.703.047-.89.047.124-.688.234-1.125.421-1.625l-.234-.282c-.344.172-.484.25-.922.407L1.22-4.094a5.586 5.586 0 01-.86.297l-.046.344h.796L.594-1.078C.547-.86.469-.641.469-.406c0 .219.265.484.453.484.328 0 .765-.203 1.531-.765.172-.125.11-.094.375-.282l-.234-.39L2-.984c-.297.171-.36.218-.484.218-.063 0 .03.063.03-.046 0-.22.11-.907.423-2.22l.078-.421h1.047l.172-.719zm0 0"/></svg><svg overflow="visible" x="126.528" y="50.954"><path d="M4.156-.89L4-1.298c-.25.188-.266.188-.297.234-.312.235-.344.282-.5.282-.094 0 .016.062.016-.078 0-.047 0-.063.015-.094l.891-3.39-.25-.204-.344.172c-.36-.125-.547-.156-.797-.156-.28 0-.468.047-.734.156-.61.281-1.031.578-1.266 1.016C.313-2.58-.03-1.422-.03-.72c0 .375.312.813.484.813.203 0 .672-.219 1.031-.5.407-.328.782-.75 1.313-1.438l-.266-.093-.265 1.125a1.58 1.58 0 00-.063.453c0 .203.25.453.39.453.22 0 .72-.281 1.579-.938zM3-3.798c-.203.953-.344 1.313-.672 1.766-.531.734-1.015 1.25-1.344 1.25-.109 0-.015.015-.015-.235 0-.562.25-1.546.594-2.28.218-.5.312-.532.78-.532.22 0 .407.031.641.11zm0 0"/></svg><svg overflow="visible" x="130.987" y="50.954"><path d="M5.14-.984l-.156-.25-.406.25c-.281.156-.375.218-.469.218-.062 0 .016.063.016-.046 0-.032-.031-.032.031-.157l.625-2.453c.078-.25.11-.5.11-.656 0-.203-.25-.453-.438-.453-.406 0-1.187.375-1.766.86-.359.312-.64.608-1.124 1.25l.265.108.36-1.421c.046-.172.062-.266.062-.375 0-.188-.234-.422-.375-.422-.203 0-.703.234-1.39.687l-.344.235.172.421.5-.28c.343-.22.265-.188.343-.188.094 0 .016-.047.016.078 0 .453-.406 2.156-.813 3.453l.172.219c.313-.078.531-.125.875-.188.203-1.218.375-1.703.797-2.312.531-.735 1.14-1.25 1.578-1.25.094 0 0-.063 0 .078 0 .156-.015.344-.11.625l-.5 1.875c-.077.328-.124.531-.124.672 0 .219.265.484.453.484.25 0 .703-.219 1.734-.922zm0 0"/></svg><svg overflow="visible" x="136.525" y="50.954"><path d="M5-4l-.063-.11c-.343.079-.546.094-.984.094-.125-.187-.328-.312-.562-.39a1.952 1.952 0 00-.657-.125c-.39 0-.984.203-1.406.5-.547.375-.875.984-.875 1.61 0 .671.594 1.218 1.344 1.218.078 0 .187 0 .297-.016l-.125-.218-.39.328c-.157.14-.298.39-.298.515 0 .094.094.281.047.25C.906-.219.484-.047.125.234c-.328.25-.547.688-.547 1.047 0 .625.828 1.157 1.875 1.157 1.25 0 2.484-.766 2.484-1.5 0-.313-.234-.735-.656-1.047l-.578-.438c-.328-.234-.406-.297-.406-.469 0-.078.015-.078.156-.234.016-.047.031-.047.031-.063.86-.187 1.704-1.062 1.704-1.843 0-.078 0-.156-.047-.328l.109.14h.078c.156 0 .25-.015.594-.047l.125-.515zM3 1.234c0 .454-.516.688-1.313.688C.907 1.922.5 1.688.5 1.156.5.813.625.594.938.36c.25-.187.359-.234.812-.343l.672.468c.437.313.578.454.578.75zm.172-4.375c0 .907-.297 1.391-.969 1.391-.594 0-.75-.234-.75-.922 0-.844.344-1.297 1.047-1.297.563 0 .672.188.672.828zm0 0"/></svg><svg overflow="visible" x="141.665" y="50.954"><path d="M3.844-3.703c0-.422-.469-.828-.953-.828-.641 0-1.797.625-2.188 1.203C.422-2.906.078-1.75.078-1.125.078-.437.656.094 1.36.094c.547 0 1.172-.281 2.141-1l-.188-.406-.406.25c-.515.343-.86.484-1.203.484-.469 0-.594-.203-.594-.735 0-.234.016-.453.063-.609l.656-.14c.172-.047.422-.126.672-.235.813-.328 1.344-.86 1.344-1.406zm-1.016.14c0 .391-.187.672-.687.891-.266.11-.625.219-.86.266l.047-.156c.156-.579.297-.876.563-1.094a.914.914 0 01.625-.235c.28 0 .312.047.312.329zm0 0"/></svg><svg overflow="visible" x="145.593" y="50.954"><path d="M5.14-.984l-.156-.25-.406.25c-.281.156-.375.218-.469.218-.062 0 .016.063.016-.046 0-.032-.031-.032.031-.157l.625-2.453c.078-.25.11-.5.11-.656 0-.203-.25-.453-.438-.453-.406 0-1.187.375-1.766.86-.359.312-.64.608-1.124 1.25l.265.108.36-1.421c.046-.172.062-.266.062-.375 0-.188-.234-.422-.375-.422-.203 0-.703.234-1.39.687l-.344.235.172.421.5-.28c.343-.22.265-.188.343-.188.094 0 .016-.047.016.078 0 .453-.406 2.156-.813 3.453l.172.219c.313-.078.531-.125.875-.188.203-1.218.375-1.703.797-2.312.531-.735 1.14-1.25 1.578-1.25.094 0 0-.063 0 .078 0 .156-.015.344-.11.625l-.5 1.875c-.077.328-.124.531-.124.672 0 .219.265.484.453.484.25 0 .703-.219 1.734-.922zm0 0"/></svg><svg overflow="visible" x="151.131" y="50.954"><path d="M3.078-4.156c-.375.031-.703.047-.89.047.124-.688.234-1.125.421-1.625l-.234-.282c-.344.172-.484.25-.922.407L1.22-4.094a5.586 5.586 0 01-.86.297l-.046.344h.796L.594-1.078C.547-.86.469-.641.469-.406c0 .219.265.484.453.484.328 0 .765-.203 1.531-.765.172-.125.11-.094.375-.282l-.234-.39L2-.984c-.297.171-.36.218-.484.218-.063 0 .03.063.03-.046 0-.22.11-.907.423-2.22l.078-.421h1.047l.172-.719zm0 0"/></svg><svg overflow="visible" x="154.519" y="50.954"><path d="M3.14-5.86c-.046-.015-.093-.062-.14-.093-.031-.047-.078-.094-.172-.297C1.594-5.016.906-3.766.906-2.64v.593c0 1.125.688 2.375 1.922 3.61.094-.204.14-.25.172-.282.047-.047.094-.093.266-.172C2.172-.016 1.75-1.03 1.75-2.047v-.594c0-1.015.422-2.03 1.516-3.156zm0 0"/></svg><svg overflow="visible" x="158.27" y="50.954"><path d="M3.078-4.156c-.375.031-.703.047-.89.047.124-.688.234-1.125.421-1.625l-.234-.282c-.344.172-.484.25-.922.407L1.22-4.094a5.586 5.586 0 01-.86.297l-.046.344h.796L.594-1.078C.547-.86.469-.641.469-.406c0 .219.265.484.453.484.328 0 .765-.203 1.531-.765.172-.125.11-.094.375-.282l-.234-.39L2-.984c-.297.171-.36.218-.484.218-.063 0 .03.063.03-.046 0-.22.11-.907.423-2.22l.078-.421h1.047l.172-.719zm0 0"/></svg><svg overflow="visible" x="161.659" y="50.954"><path d="M2.844-2.047v-.594c0-1.125-.688-2.375-1.938-3.609-.094.203-.125.25-.172.297-.046.031-.093.078-.265.156C1.579-4.672 2-3.657 2-2.64v.594C2-1.03 1.578-.016.469 1.11a.743.743 0 01.265.172c.047.032.079.078.172.282C2.156.327 2.844-.922 2.844-2.047zm0 0"/></svg><svg overflow="visible" x="165.41" y="50.954"><path d="M1.297 1.906v-8.672c-.219.063-.297.079-.375.079-.063 0-.14-.016-.375-.079v8.844C.78 2.016.859 2 .922 2c.078 0 .156.016.375.078zm1.5 0v-8.672c-.219.063-.297.079-.36.079-.078 0-.156-.016-.39-.079v8.844c.234-.062.312-.078.39-.078.063 0 .141.016.36.078zm0 0"/></svg><svg overflow="visible" x="173.289" y="46.065"><path d="M8.266-4.078a1.419 1.419 0 01-.047-.36c0-.109.015-.234.062-.484h-7.5c.063.25.063.375.063.484 0 .125 0 .235-.063.5h7.5zm0 2.625a1.332 1.332 0 01-.047-.36c0-.109.015-.234.062-.484h-7.5c.063.25.063.375.063.485 0 .125 0 .25-.063.5h7.5zm0 0"/></svg><svg overflow="visible" x="186.891" y="39.531"><path d="M5.625-5.11c0-.718-.922-1.28-1.672-1.28-.484 0-.969.03-1.437.03l-1.61-.03-.047.515.672.016c.235.015.188-.047.188.109 0 .125-.047.406-.094.672L.781-.625c-.015.172.016.094-.531.172l-.11.5C.626.016.923 0 1.22 0c.515 0 1.031.031 1.547.031a3.24 3.24 0 001.484-.39C5-.766 5.469-1.47 5.469-2.141c0-.375-.172-.765-.438-.968-.25-.188-.64-.297-1.312-.391v.266c.547-.172.89-.329 1.203-.563.422-.344.703-.86.703-1.312zM4.312-2c0 .906-.546 1.438-1.515 1.438-.172 0-.469-.016-.781-.032-.063-.015-.172-.031-.157-.031L2.313-3H3c.984 0 1.313.234 1.313 1zM4.5-4.938c0 .922-.563 1.344-1.766 1.344h-.312l.406-2.156c.14 0 .39-.047.656-.047.782 0 1.016.188 1.016.86zm0 0"/></svg><g><svg overflow="visible" x="192.96" y="36.399"><path d="M2.14-3.703l-.187-.172L1-3.562.266-.86l.296.187.516-.203 1.14-2.766zm0 0"/></svg></g><g><svg overflow="visible" x="192.96" y="41.583"><path d="M3.969-3.375c-.094-.047-.266-.11-.344-.11-.313 0-.734.282-1.203.891l-.297.36.297.109-.047-.313c-.094-.64-.469-1.046-.922-1.046-.203 0-.5.109-.562.187l-.563.703.39.203c.329-.296.36-.343.5-.343.266 0 .25.109.391.765l.079.375-.25.328c-.329.438-.485.594-.688.594-.125 0-.047.14-.047.11l-.172-.36-.406.047c0 .281-.016.36-.063.578-.015.078-.015.094-.046.219.296.125.421.156.515.156.25 0 .672-.25.906-.547l.375-.484.016.062c.11.563.438.97.719.97.172 0 .531-.157.781-.36l.453-.344-.203-.406c-.453.328-.531.375-.656.375-.11 0-.094-.016-.172-.156-.078-.125-.11-.25-.14-.438l-.141-.625.219-.266c.359-.421.453-.53.687-.53.125 0 .047-.095.156.171l.344-.078.156-.75zm0 0"/></svg></g><g><svg overflow="visible" x="197.568" y="39.531"><path d="M3.14-5.86c-.046-.015-.093-.062-.14-.093-.031-.047-.078-.094-.172-.297C1.594-5.016.906-3.766.906-2.64v.593c0 1.125.688 2.375 1.922 3.61.094-.204.14-.25.172-.282.047-.047.094-.093.266-.172C2.172-.016 1.75-1.03 1.75-2.047v-.594c0-1.015.422-2.03 1.516-3.156zm0 0"/></svg><svg overflow="visible" x="201.319" y="39.531"><path d="M3.078-4.156c-.375.031-.703.047-.89.047.124-.688.234-1.125.421-1.625l-.234-.282c-.344.172-.484.25-.922.407L1.22-4.094a5.586 5.586 0 01-.86.297l-.046.344h.796L.594-1.078C.547-.86.469-.641.469-.406c0 .219.265.484.453.484.328 0 .765-.203 1.531-.765.172-.125.11-.094.375-.282l-.234-.39L2-.984c-.297.171-.36.218-.484.218-.063 0 .03.063.03-.046 0-.22.11-.907.423-2.22l.078-.421h1.047l.172-.719zm0 0"/></svg><svg overflow="visible" x="204.707" y="39.531"><path d="M2.844-2.047v-.594c0-1.125-.688-2.375-1.938-3.609-.094.203-.125.25-.172.297-.046.031-.093.078-.265.156C1.579-4.672 2-3.657 2-2.64v.594C2-1.03 1.578-.016.469 1.11a.743.743 0 01.265.172c.047.032.079.078.172.282C2.156.327 2.844-.922 2.844-2.047zm0 0"/></svg></g><path d="M186.89 43.074h21.567" fill="none" stroke-width=".717" stroke="#000" stroke-miterlimit="10"/><g><svg overflow="visible" x="195.176" y="50.981"><path d="M4.844-6.61l-.188-.156c-.531.25-.875.329-1.703.391l-.094.453h.657c.218 0 .156-.078.156.078 0 .063 0 .14-.016.203l-.234 1.204a2.544 2.544 0 00-.656-.094c-.672 0-1.704.672-2.141 1.437C.328-2.578.094-1.64.094-.89c0 .579.297.985.578.985.265 0 .719-.188 1.047-.422.531-.39.843-.734 1.484-1.625l-.265-.094-.22.797c-.093.39-.14.672-.14.906 0 .188.235.438.406.438.157 0 .5-.157.829-.375l.859-.578-.234-.422-.594.375c-.125.094-.172.125-.25.125-.078 0 0 .047 0-.078 0-.063.031-.157.078-.407l1.234-5.296zM3.297-3.765l-.125.532C3-2.454 2.578-1.781 1.984-1.25c-.343.281-.609.469-.796.469-.157 0-.094 0-.094-.219 0-1.11.406-2.39.875-2.734.125-.094.203-.094.468-.094.422 0 .688.047.844.125zm0 0"/></svg></g><g><svg overflow="visible" x="6.819" y="82.802"><path d="M-.813-7.234a29.143 29.143 0 00-2.171-1.422c-.829.484-1.516.937-2.266 1.484l.313.547L-3-7.688l1.953 1.063.313-.547zm0 0"/></svg></g><g><svg overflow="visible" x=".136" y="82.802"><path d="M5.953-5.875l-.203-.156c-.375.14-.64.203-1.016.234l-.453 1.703c-.14.563-.531 1.344-.922 1.938-.421.61-.89 1.094-1.156 1.094-.265 0-.11-.438-.094-.594l.172-2.328c.031-.36.047-.829.047-1.157 0-.53-.219-.89-.422-.89-.156 0-.422.125-1 .515L-.14-4.78l.266.437.734-.453c.063-.047.125-.11.204-.11.312 0 .125.485.109.673L.969-1.328l-.016.484c-.015.5.36.969.656.969.454 0 1.547-1.047 2.438-2.39l-.234-.094-.579 2.03c-.609 2.126-1.078 2.86-1.906 2.86-.422 0-.61-.187-.61-.61 0-.062.016-.155.032-.343l-.297-.11-.672.485c-.015.156-.015.219-.015.281 0 .516.578 1.063 1.125 1.063 1.265 0 2.703-1.61 3.406-3.828L6-5.828zm0 0"/></svg></g><g><svg overflow="visible" x="6.317" y="82.802"><path d="M4.203-7.828a.735.735 0 01-.187-.14c-.063-.063-.11-.126-.22-.329-1.593 1.61-2.5 3.266-2.5 4.781v.797c0 1.516.907 3.172 2.5 4.781.11-.203.157-.265.22-.328.062-.062.125-.109.312-.203C2.875.063 2.281-1.344 2.281-2.719v-.797c0-1.39.594-2.78 2.047-4.25zm0 0"/></svg><svg overflow="visible" x="11.386" y="82.802"><path d="M3.703-5.516c-.453.047-.86.063-1.156.063.172-.984.297-1.578.531-2.25l-.25-.328a7.16 7.16 0 01-1.094.531l-.296 2.031c-.391.203-.704.328-1.063.407l-.047.406h1l-.64 3.25C.625-1.11.53-.813.53-.5c0 .297.266.61.5.61.422 0 .922-.282 1.86-1.032.218-.172.14-.125.437-.36l-.25-.437-.672.469c-.36.25-.484.313-.625.313-.093 0-.031.046-.031-.11 0-.297.156-1.234.516-3l.14-.61h1.266l.203-.89zm0 0"/></svg></g><g><svg overflow="visible" x="15.427" y="82.802"><path d="M3.766-2.719v-.797c0-1.515-.907-3.171-2.516-4.78-.11.202-.156.265-.203.327-.063.063-.125.11-.313.203 1.438 1.47 2.032 2.86 2.032 4.25v.797c0 1.375-.594 2.781-2.032 4.25.188.094.25.14.313.203.047.063.094.125.203.329C2.86.452 3.766-1.204 3.766-2.72zm0 0"/></svg></g><g><svg overflow="visible" x="23.819" y="82.802"><path d="M8.266-4.078a1.419 1.419 0 01-.047-.36c0-.109.015-.234.062-.484h-7.5c.063.25.063.375.063.484 0 .125 0 .235-.063.5h7.5zm0 2.625a1.332 1.332 0 01-.047-.36c0-.109.015-.234.062-.484h-7.5c.063.25.063.375.063.485 0 .125 0 .25-.063.5h7.5zm0 0"/></svg></g><g><svg overflow="visible" x="36.229" y="82.802"><path d="M1.75 5.14v-16.687c-.234.063-.344.078-.453.078-.11 0-.234-.015-.484-.078v16.86c.25-.063.375-.079.484-.079.11 0 .219.016.453.079zm2.11 0v-16.687c-.235.063-.36.078-.47.078-.109 0-.218-.015-.468-.078v16.86c.25-.063.36-.079.469-.079.109 0 .234.016.468.079zm0 0"/></svg><svg overflow="visible" x="40.915" y="82.802"><path d="M3.703-5.516c-.453.047-.86.063-1.156.063.172-.984.297-1.578.531-2.25l-.25-.328a7.16 7.16 0 01-1.094.531l-.296 2.031c-.391.203-.704.328-1.063.407l-.047.406h1l-.64 3.25C.625-1.11.53-.813.53-.5c0 .297.266.61.5.61.422 0 .922-.282 1.86-1.032.218-.172.14-.125.437-.36l-.25-.437-.672.469c-.36.25-.484.313-.625.313-.093 0-.031.046-.031-.11 0-.297.156-1.234.516-3l.14-.61h1.266l.203-.89zm0 0"/></svg></g><g><svg overflow="visible" x="44.956" y="82.802"><path d="M4.984-1.14l-.156-.485c-.25.203-.266.219-.328.266-.375.312-.453.39-.625.39-.125 0-.047.031-.047-.156 0-.047 0-.078.016-.125l1.11-4.578-.25-.203-.438.218c-.438-.156-.672-.218-.985-.218-.344 0-.578.062-.906.218-.75.375-1.234.766-1.531 1.36l-.047.094C.28-3.297-.093-1.875-.093-.922c0 .516.327 1.047.546 1.047.25 0 .797-.281 1.234-.656.516-.453.985-1.016 1.641-1.938l-.234-.094-.344 1.516a2.715 2.715 0 00-.078.61c0 .265.25.562.437.562.266 0 .86-.36 1.891-1.219zM3.672-5.079c-.266 1.281-.453 1.797-.844 2.406C2.156-1.656 1.516-.969 1.125-.969c-.14 0-.078-.015-.078-.344 0-.765.297-2.093.719-3.093.296-.688.453-.766 1.03-.766.282 0 .5.047.86.172zm0 0"/></svg><svg overflow="visible" x="50.264" y="82.802"><path d="M6.234-1.25l-.171-.297-.454.297c-.343.219-.5.313-.625.313-.078 0-.03.03-.03-.11 0-.047.015-.187.03-.234l.782-3.297c.093-.344.14-.688.14-.89 0-.266-.265-.563-.5-.563-.5 0-1.437.5-2.14 1.156-.454.422-.797.828-1.407 1.703l.235.094.453-1.938c.047-.203.078-.343.078-.484 0-.25-.234-.531-.406-.531-.266 0-.828.312-1.703.922l-.391.296.172.485.547-.36c.437-.28.39-.265.469-.265.14 0 .078 0 .078.172 0 .61-.5 2.922-.985 4.656l.172.25c.36-.094.625-.172 1.016-.234.234-1.625.468-2.313 1-3.125.656-1.016 1.453-1.72 1.984-1.72.125 0 .063-.015.063.157 0 .219-.032.469-.141.86l-.61 2.53c-.109.438-.156.72-.156.907 0 .297.266.61.5.61.313 0 .829-.282 2.079-1.22zm0 0"/></svg><svg overflow="visible" x="56.911" y="82.802"><path d="M6.047-5.328l-.078-.14c-.39.109-.625.14-1.219.14-.14-.281-.36-.422-.656-.547a2.495 2.495 0 00-.813-.156c-.484 0-1.187.265-1.719.672A2.62 2.62 0 00.516-3.234c0 .921.671 1.609 1.593 1.609.11 0 .235 0 .36-.016l-.11-.218-.484.453c-.188.172-.36.484-.36.656 0 .11.126.344.126.344C1-.187.53.03.078.39c-.406.343-.656.906-.656 1.375 0 .859.969 1.53 2.281 1.53 1.531 0 3.016-.983 3.016-1.983 0-.422-.282-.954-.797-1.375l-.719-.579c-.406-.328-.531-.453-.531-.687 0-.11.047-.125.219-.36.03-.046.046-.062.046-.062 1.11-.281 2.079-1.406 2.079-2.469 0-.11 0-.218-.032-.39l.032.093h.234c.203 0 .313-.015.703-.062l.125-.672zm-2.39 7.031c0 .625-.688 1-1.673 1C1 2.703.454 2.328.454 1.61c0-.468.187-.78.562-1.109C1.328.25 1.5.172 2.062 0l.86.656c.547.438.734.656.734 1.047zm.234-5.906c0 1.234-.438 1.937-1.266 1.937-.734 0-.984-.359-.984-1.312 0-1.125.468-1.781 1.343-1.781.704 0 .907.296.907 1.156zm0 0"/></svg></g><g><svg overflow="visible" x="63.2" y="82.802"><path d="M4.61-4.953c0-.563-.532-1.078-1.141-1.078-.781 0-2.188.843-2.672 1.61C.437-3.845.03-2.313.03-1.47.031-.547.703.125 1.563.125 2.25.125 3-.235 4.171-1.188l-.203-.468-.438.312c-.64.453-1.11.657-1.531.657-.578 0-.781-.313-.781-1.047 0-.313.031-.61.078-.844l.86-.219c.202-.047.515-.172.827-.297C4-3.547 4.61-4.219 4.61-4.954zm-1.173.187c0 .516-.265.954-.89 1.25a5.596 5.596 0 01-1.125.375l.062-.265c.188-.797.391-1.219.72-1.516.218-.219.515-.344.812-.344.343 0 .421.11.421.5zm0 0"/></svg></g><g><svg overflow="visible" x="68.006" y="82.802"><path d="M6.234-1.25l-.171-.297-.454.297c-.343.219-.5.313-.625.313-.078 0-.03.03-.03-.11 0-.047.015-.187.03-.234l.782-3.297c.093-.344.14-.688.14-.89 0-.266-.265-.563-.5-.563-.5 0-1.437.5-2.14 1.156-.454.422-.797.828-1.407 1.703l.235.094.453-1.938c.047-.203.078-.343.078-.484 0-.25-.234-.531-.406-.531-.266 0-.828.312-1.703.922l-.391.296.172.485.547-.36c.437-.28.39-.265.469-.265.14 0 .078 0 .078.172 0 .61-.5 2.922-.985 4.656l.172.25c.36-.094.625-.172 1.016-.234.234-1.625.468-2.313 1-3.125.656-1.016 1.453-1.72 1.984-1.72.125 0 .063-.015.063.157 0 .219-.032.469-.141.86l-.61 2.53c-.109.438-.156.72-.156.907 0 .297.266.61.5.61.313 0 .829-.282 2.079-1.22zm0 0"/></svg><svg overflow="visible" x="74.653" y="82.802"><path d="M3.703-5.516c-.453.047-.86.063-1.156.063.172-.984.297-1.578.531-2.25l-.25-.328a7.16 7.16 0 01-1.094.531l-.296 2.031c-.391.203-.704.328-1.063.407l-.047.406h1l-.64 3.25C.625-1.11.53-.813.53-.5c0 .297.266.61.5.61.422 0 .922-.282 1.86-1.032.218-.172.14-.125.437-.36l-.25-.437-.672.469c-.36.25-.484.313-.625.313-.093 0-.031.046-.031-.11 0-.297.156-1.234.516-3l.14-.61h1.266l.203-.89zm0 0"/></svg></g><g><svg overflow="visible" x="78.641" y="85.576"><path d="M4.922-4.406l-.188-.14a3.25 3.25 0 01-.875.202L3.5-3.062c-.125.421-.406.968-.734 1.406-.329.437-.688.797-.907.797-.203 0-.03-.297-.03-.407l.14-1.718c.015-.266.047-.61.047-.86 0-.39-.22-.687-.391-.687-.125 0-.375.093-.828.39l-.89.563.265.375.64-.36c.047-.03.063-.062.141-.062.235 0 .047.313.031.453L.828-1.016l-.015.36c0 .36.343.75.578.75.359 0 1.265-.781 2-1.782l-.266-.093-.484 1.5c-.485 1.578-.813 2.078-1.485 2.078-.328 0-.453-.094-.453-.406 0-.047.016-.11.047-.266l-.297-.11-.578.376c-.031.125-.031.187-.031.234 0 .375.531.813.969.813 1.015 0 2.218-1.22 2.78-2.86l1.391-3.937zm0 0"/></svg></g><g><svg overflow="visible" x="84.199" y="82.802"><path d="M4.203-7.828a.735.735 0 01-.187-.14c-.063-.063-.11-.126-.22-.329-1.593 1.61-2.5 3.266-2.5 4.781v.797c0 1.516.907 3.172 2.5 4.781.11-.203.157-.265.22-.328.062-.062.125-.109.312-.203C2.875.063 2.281-1.344 2.281-2.719v-.797c0-1.39.594-2.78 2.047-4.25zm0 0"/></svg><svg overflow="visible" x="89.268" y="82.802"><path d="M3.703-5.516c-.453.047-.86.063-1.156.063.172-.984.297-1.578.531-2.25l-.25-.328a7.16 7.16 0 01-1.094.531l-.296 2.031c-.391.203-.704.328-1.063.407l-.047.406h1l-.64 3.25C.625-1.11.53-.813.53-.5c0 .297.266.61.5.61.422 0 .922-.282 1.86-1.032.218-.172.14-.125.437-.36l-.25-.437-.672.469c-.36.25-.484.313-.625.313-.093 0-.031.046-.031-.11 0-.297.156-1.234.516-3l.14-.61h1.266l.203-.89zm0 0"/></svg></g><g><svg overflow="visible" x="93.309" y="82.802"><path d="M3.766-2.719v-.797c0-1.515-.907-3.171-2.516-4.78-.11.202-.156.265-.203.327-.063.063-.125.11-.313.203 1.438 1.47 2.032 2.86 2.032 4.25v.797c0 1.375-.594 2.781-2.032 4.25.188.094.25.14.313.203.047.063.094.125.203.329C2.86.452 3.766-1.204 3.766-2.72zm0 0"/></svg><svg overflow="visible" x="98.378" y="82.802"><path d="M1.75 5.14v-16.687c-.234.063-.344.078-.453.078-.11 0-.234-.015-.484-.078v16.86c.25-.063.375-.079.484-.079.11 0 .219.016.453.079zm2.11 0v-16.687c-.235.063-.36.078-.47.078-.109 0-.218-.015-.468-.078v16.86c.25-.063.36-.079.469-.079.109 0 .234.016.468.079zm0 0"/></svg></g><g><svg overflow="visible" x="106.376" y="82.802"><path d="M8.266-4.078a1.419 1.419 0 01-.047-.36c0-.109.015-.234.062-.484h-7.5c.063.25.063.375.063.484 0 .125 0 .235-.063.5h7.5zm0 2.625a1.332 1.332 0 01-.047-.36c0-.109.015-.234.062-.484h-7.5c.063.25.063.375.063.485 0 .125 0 .25-.063.5h7.5zm0 0"/></svg></g><g><svg overflow="visible" x="121.046" y="74.525"><path d="M3.078-4.156c-.375.031-.703.047-.89.047.124-.688.234-1.125.421-1.625l-.234-.282c-.344.172-.484.25-.922.407L1.22-4.094a5.586 5.586 0 01-.86.297l-.046.344h.796L.594-1.078C.547-.86.469-.641.469-.406c0 .219.265.484.453.484.328 0 .765-.203 1.531-.765.172-.125.11-.094.375-.282l-.234-.39L2-.984c-.297.171-.36.218-.484.218-.063 0 .03.063.03-.046 0-.22.11-.907.423-2.22l.078-.421h1.047l.172-.719zm0 0"/></svg><svg overflow="visible" x="124.434" y="74.525"><path d="M4.156-.89L4-1.298c-.25.188-.266.188-.297.234-.312.235-.344.282-.5.282-.094 0 .016.062.016-.078 0-.047 0-.063.015-.094l.891-3.39-.25-.204-.344.172c-.36-.125-.547-.156-.797-.156-.28 0-.468.047-.734.156-.61.281-1.031.578-1.266 1.016C.313-2.58-.03-1.422-.03-.72c0 .375.312.813.484.813.203 0 .672-.219 1.031-.5.407-.328.782-.75 1.313-1.438l-.266-.093-.265 1.125a1.58 1.58 0 00-.063.453c0 .203.25.453.39.453.22 0 .72-.281 1.579-.938zM3-3.798c-.203.953-.344 1.313-.672 1.766-.531.734-1.015 1.25-1.344 1.25-.109 0-.015.015-.015-.235 0-.562.25-1.546.594-2.28.218-.5.312-.532.78-.532.22 0 .407.031.641.11zm0 0"/></svg><svg overflow="visible" x="128.893" y="74.525"><path d="M5.14-.984l-.156-.25-.406.25c-.281.156-.375.218-.469.218-.062 0 .016.063.016-.046 0-.032-.031-.032.031-.157l.625-2.453c.078-.25.11-.5.11-.656 0-.203-.25-.453-.438-.453-.406 0-1.187.375-1.766.86-.359.312-.64.608-1.124 1.25l.265.108.36-1.421c.046-.172.062-.266.062-.375 0-.188-.234-.422-.375-.422-.203 0-.703.234-1.39.687l-.344.235.172.421.5-.28c.343-.22.265-.188.343-.188.094 0 .016-.047.016.078 0 .453-.406 2.156-.813 3.453l.172.219c.313-.078.531-.125.875-.188.203-1.218.375-1.703.797-2.312.531-.735 1.14-1.25 1.578-1.25.094 0 0-.063 0 .078 0 .156-.015.344-.11.625l-.5 1.875c-.077.328-.124.531-.124.672 0 .219.265.484.453.484.25 0 .703-.219 1.734-.922zm0 0"/></svg><svg overflow="visible" x="134.431" y="74.525"><path d="M5-4l-.063-.11c-.343.079-.546.094-.984.094-.125-.187-.328-.312-.562-.39a1.952 1.952 0 00-.657-.125c-.39 0-.984.203-1.406.5-.547.375-.875.984-.875 1.61 0 .671.594 1.218 1.344 1.218.078 0 .187 0 .297-.016l-.125-.218-.39.328c-.157.14-.298.39-.298.515 0 .094.094.281.047.25C.906-.219.484-.047.125.234c-.328.25-.547.688-.547 1.047 0 .625.828 1.157 1.875 1.157 1.25 0 2.484-.766 2.484-1.5 0-.313-.234-.735-.656-1.047l-.578-.438c-.328-.234-.406-.297-.406-.469 0-.078.015-.078.156-.234.016-.047.031-.047.031-.063.86-.187 1.704-1.062 1.704-1.843 0-.078 0-.156-.047-.328l.109.14h.078c.156 0 .25-.015.594-.047l.125-.515zM3 1.234c0 .454-.516.688-1.313.688C.907 1.922.5 1.688.5 1.156.5.813.625.594.938.36c.25-.187.359-.234.812-.343l.672.468c.437.313.578.454.578.75zm.172-4.375c0 .907-.297 1.391-.969 1.391-.594 0-.75-.234-.75-.922 0-.844.344-1.297 1.047-1.297.563 0 .672.188.672.828zm0 0"/></svg></g><g><svg overflow="visible" x="139.571" y="74.525"><path d="M3.844-3.703c0-.422-.469-.828-.953-.828-.641 0-1.797.625-2.188 1.203C.422-2.906.078-1.75.078-1.125.078-.437.656.094 1.36.094c.547 0 1.172-.281 2.141-1l-.188-.406-.406.25c-.515.343-.86.484-1.203.484-.469 0-.594-.203-.594-.735 0-.234.016-.453.063-.609l.656-.14c.172-.047.422-.126.672-.235.813-.328 1.344-.86 1.344-1.406zm-1.016.14c0 .391-.187.672-.687.891-.266.11-.625.219-.86.266l.047-.156c.156-.579.297-.876.563-1.094a.914.914 0 01.625-.235c.28 0 .312.047.312.329zm0 0"/></svg><svg overflow="visible" x="143.499" y="74.525"><path d="M5.14-.984l-.156-.25-.406.25c-.281.156-.375.218-.469.218-.062 0 .016.063.016-.046 0-.032-.031-.032.031-.157l.625-2.453c.078-.25.11-.5.11-.656 0-.203-.25-.453-.438-.453-.406 0-1.187.375-1.766.86-.359.312-.64.608-1.124 1.25l.265.108.36-1.421c.046-.172.062-.266.062-.375 0-.188-.234-.422-.375-.422-.203 0-.703.234-1.39.687l-.344.235.172.421.5-.28c.343-.22.265-.188.343-.188.094 0 .016-.047.016.078 0 .453-.406 2.156-.813 3.453l.172.219c.313-.078.531-.125.875-.188.203-1.218.375-1.703.797-2.312.531-.735 1.14-1.25 1.578-1.25.094 0 0-.063 0 .078 0 .156-.015.344-.11.625l-.5 1.875c-.077.328-.124.531-.124.672 0 .219.265.484.453.484.25 0 .703-.219 1.734-.922zm0 0"/></svg><svg overflow="visible" x="149.037" y="74.525"><path d="M3.078-4.156c-.375.031-.703.047-.89.047.124-.688.234-1.125.421-1.625l-.234-.282c-.344.172-.484.25-.922.407L1.22-4.094a5.586 5.586 0 01-.86.297l-.046.344h.796L.594-1.078C.547-.86.469-.641.469-.406c0 .219.265.484.453.484.328 0 .765-.203 1.531-.765.172-.125.11-.094.375-.282l-.234-.39L2-.984c-.297.171-.36.218-.484.218-.063 0 .03.063.03-.046 0-.22.11-.907.423-2.22l.078-.421h1.047l.172-.719zm0 0"/></svg></g><g><svg overflow="visible" x="152.426" y="76.578"><path d="M4.016-3.375L3.844-3.5a2.55 2.55 0 01-.719.156l-.313 1.016c-.093.312-.312.672-.562 1-.281.328-.531.578-.703.578-.172 0 .016-.156.016-.25l.125-1.266c.015-.203.015-.453.015-.64 0-.297-.203-.578-.344-.578-.093 0-.312.093-.687.312l-.735.438.235.359.562-.297c.047-.015.032-.031.079-.031.203 0 0 .187 0 .297L.671-.812v.265c-.016.281.312.625.5.625.281 0 1.047-.61 1.625-1.36L2.5-1.374 2.125-.25C1.735.906 1.531 1.234.985 1.234c-.266 0-.313-.03-.313-.25 0-.03 0-.093.031-.234L.422.64l-.5.313c-.016.125-.016.172-.016.203 0 .282.453.657.797.657.813 0 1.828-.97 2.281-2.188l1.094-2.953zm0 0"/></svg></g><g><svg overflow="visible" x="157.034" y="74.525"><path d="M3.14-5.86c-.046-.015-.093-.062-.14-.093-.031-.047-.078-.094-.172-.297C1.594-5.016.906-3.766.906-2.64v.593c0 1.125.688 2.375 1.922 3.61.094-.204.14-.25.172-.282.047-.047.094-.093.266-.172C2.172-.016 1.75-1.03 1.75-2.047v-.594c0-1.015.422-2.03 1.516-3.156zm0 0"/></svg><svg overflow="visible" x="160.785" y="74.525"><path d="M3.078-4.156c-.375.031-.703.047-.89.047.124-.688.234-1.125.421-1.625l-.234-.282c-.344.172-.484.25-.922.407L1.22-4.094a5.586 5.586 0 01-.86.297l-.046.344h.796L.594-1.078C.547-.86.469-.641.469-.406c0 .219.265.484.453.484.328 0 .765-.203 1.531-.765.172-.125.11-.094.375-.282l-.234-.39L2-.984c-.297.171-.36.218-.484.218-.063 0 .03.063.03-.046 0-.22.11-.907.423-2.22l.078-.421h1.047l.172-.719zm0 0"/></svg><svg overflow="visible" x="164.173" y="74.525"><path d="M2.844-2.047v-.594c0-1.125-.688-2.375-1.938-3.609-.094.203-.125.25-.172.297-.046.031-.093.078-.265.156C1.579-4.672 2-3.657 2-2.64v.594C2-1.03 1.578-.016.469 1.11a.743.743 0 01.265.172c.047.032.079.078.172.282C2.156.327 2.844-.922 2.844-2.047zm0 0"/></svg></g><path d="M119.988 79.813h48.992" fill="none" stroke-width=".717" stroke="#000" stroke-miterlimit="10"/><g><svg overflow="visible" x="119.988" y="87.691"><path d="M1.297 1.906v-8.672c-.219.063-.297.079-.375.079-.063 0-.14-.016-.375-.079v8.844C.78 2.016.859 2 .922 2c.078 0 .156.016.375.078zm1.5 0v-8.672c-.219.063-.297.079-.36.079-.078 0-.156-.016-.39-.079v8.844c.234-.062.312-.078.39-.078.063 0 .141.016.36.078zm0 0"/></svg><svg overflow="visible" x="123.35" y="87.691"><path d="M3.078-4.156c-.375.031-.703.047-.89.047.124-.688.234-1.125.421-1.625l-.234-.282c-.344.172-.484.25-.922.407L1.22-4.094a5.586 5.586 0 01-.86.297l-.046.344h.796L.594-1.078C.547-.86.469-.641.469-.406c0 .219.265.484.453.484.328 0 .765-.203 1.531-.765.172-.125.11-.094.375-.282l-.234-.39L2-.984c-.297.171-.36.218-.484.218-.063 0 .03.063.03-.046 0-.22.11-.907.423-2.22l.078-.421h1.047l.172-.719zm0 0"/></svg><svg overflow="visible" x="126.738" y="87.691"><path d="M4.156-.89L4-1.298c-.25.188-.266.188-.297.234-.312.235-.344.282-.5.282-.094 0 .016.062.016-.078 0-.047 0-.063.015-.094l.891-3.39-.25-.204-.344.172c-.36-.125-.547-.156-.797-.156-.28 0-.468.047-.734.156-.61.281-1.031.578-1.266 1.016C.313-2.58-.03-1.422-.03-.72c0 .375.312.813.484.813.203 0 .672-.219 1.031-.5.407-.328.782-.75 1.313-1.438l-.266-.093-.265 1.125a1.58 1.58 0 00-.063.453c0 .203.25.453.39.453.22 0 .72-.281 1.579-.938zM3-3.798c-.203.953-.344 1.313-.672 1.766-.531.734-1.015 1.25-1.344 1.25-.109 0-.015.015-.015-.235 0-.562.25-1.546.594-2.28.218-.5.312-.532.78-.532.22 0 .407.031.641.11zm0 0"/></svg><svg overflow="visible" x="131.197" y="87.691"><path d="M5.14-.984l-.156-.25-.406.25c-.281.156-.375.218-.469.218-.062 0 .016.063.016-.046 0-.032-.031-.032.031-.157l.625-2.453c.078-.25.11-.5.11-.656 0-.203-.25-.453-.438-.453-.406 0-1.187.375-1.766.86-.359.312-.64.608-1.124 1.25l.265.108.36-1.421c.046-.172.062-.266.062-.375 0-.188-.234-.422-.375-.422-.203 0-.703.234-1.39.687l-.344.235.172.421.5-.28c.343-.22.265-.188.343-.188.094 0 .016-.047.016.078 0 .453-.406 2.156-.813 3.453l.172.219c.313-.078.531-.125.875-.188.203-1.218.375-1.703.797-2.312.531-.735 1.14-1.25 1.578-1.25.094 0 0-.063 0 .078 0 .156-.015.344-.11.625l-.5 1.875c-.077.328-.124.531-.124.672 0 .219.265.484.453.484.25 0 .703-.219 1.734-.922zm0 0"/></svg><svg overflow="visible" x="136.735" y="87.691"><path d="M5-4l-.063-.11c-.343.079-.546.094-.984.094-.125-.187-.328-.312-.562-.39a1.952 1.952 0 00-.657-.125c-.39 0-.984.203-1.406.5-.547.375-.875.984-.875 1.61 0 .671.594 1.218 1.344 1.218.078 0 .187 0 .297-.016l-.125-.218-.39.328c-.157.14-.298.39-.298.515 0 .094.094.281.047.25C.906-.219.484-.047.125.234c-.328.25-.547.688-.547 1.047 0 .625.828 1.157 1.875 1.157 1.25 0 2.484-.766 2.484-1.5 0-.313-.234-.735-.656-1.047l-.578-.438c-.328-.234-.406-.297-.406-.469 0-.078.015-.078.156-.234.016-.047.031-.047.031-.063.86-.187 1.704-1.062 1.704-1.843 0-.078 0-.156-.047-.328l.109.14h.078c.156 0 .25-.015.594-.047l.125-.515zM3 1.234c0 .454-.516.688-1.313.688C.907 1.922.5 1.688.5 1.156.5.813.625.594.938.36c.25-.187.359-.234.812-.343l.672.468c.437.313.578.454.578.75zm.172-4.375c0 .907-.297 1.391-.969 1.391-.594 0-.75-.234-.75-.922 0-.844.344-1.297 1.047-1.297.563 0 .672.188.672.828zm0 0"/></svg></g><g><svg overflow="visible" x="141.875" y="87.691"><path d="M3.844-3.703c0-.422-.469-.828-.953-.828-.641 0-1.797.625-2.188 1.203C.422-2.906.078-1.75.078-1.125.078-.437.656.094 1.36.094c.547 0 1.172-.281 2.141-1l-.188-.406-.406.25c-.515.343-.86.484-1.203.484-.469 0-.594-.203-.594-.735 0-.234.016-.453.063-.609l.656-.14c.172-.047.422-.126.672-.235.813-.328 1.344-.86 1.344-1.406zm-1.016.14c0 .391-.187.672-.687.891-.266.11-.625.219-.86.266l.047-.156c.156-.579.297-.876.563-1.094a.914.914 0 01.625-.235c.28 0 .312.047.312.329zm0 0"/></svg><svg overflow="visible" x="145.803" y="87.691"><path d="M5.14-.984l-.156-.25-.406.25c-.281.156-.375.218-.469.218-.062 0 .016.063.016-.046 0-.032-.031-.032.031-.157l.625-2.453c.078-.25.11-.5.11-.656 0-.203-.25-.453-.438-.453-.406 0-1.187.375-1.766.86-.359.312-.64.608-1.124 1.25l.265.108.36-1.421c.046-.172.062-.266.062-.375 0-.188-.234-.422-.375-.422-.203 0-.703.234-1.39.687l-.344.235.172.421.5-.28c.343-.22.265-.188.343-.188.094 0 .016-.047.016.078 0 .453-.406 2.156-.813 3.453l.172.219c.313-.078.531-.125.875-.188.203-1.218.375-1.703.797-2.312.531-.735 1.14-1.25 1.578-1.25.094 0 0-.063 0 .078 0 .156-.015.344-.11.625l-.5 1.875c-.077.328-.124.531-.124.672 0 .219.265.484.453.484.25 0 .703-.219 1.734-.922zm0 0"/></svg><svg overflow="visible" x="151.341" y="87.691"><path d="M3.078-4.156c-.375.031-.703.047-.89.047.124-.688.234-1.125.421-1.625l-.234-.282c-.344.172-.484.25-.922.407L1.22-4.094a5.586 5.586 0 01-.86.297l-.046.344h.796L.594-1.078C.547-.86.469-.641.469-.406c0 .219.265.484.453.484.328 0 .765-.203 1.531-.765.172-.125.11-.094.375-.282l-.234-.39L2-.984c-.297.171-.36.218-.484.218-.063 0 .03.063.03-.046 0-.22.11-.907.423-2.22l.078-.421h1.047l.172-.719zm0 0"/></svg><svg overflow="visible" x="154.729" y="87.691"><path d="M3.14-5.86c-.046-.015-.093-.062-.14-.093-.031-.047-.078-.094-.172-.297C1.594-5.016.906-3.766.906-2.64v.593c0 1.125.688 2.375 1.922 3.61.094-.204.14-.25.172-.282.047-.047.094-.093.266-.172C2.172-.016 1.75-1.03 1.75-2.047v-.594c0-1.015.422-2.03 1.516-3.156zm0 0"/></svg><svg overflow="visible" x="158.48" y="87.691"><path d="M3.078-4.156c-.375.031-.703.047-.89.047.124-.688.234-1.125.421-1.625l-.234-.282c-.344.172-.484.25-.922.407L1.22-4.094a5.586 5.586 0 01-.86.297l-.046.344h.796L.594-1.078C.547-.86.469-.641.469-.406c0 .219.265.484.453.484.328 0 .765-.203 1.531-.765.172-.125.11-.094.375-.282l-.234-.39L2-.984c-.297.171-.36.218-.484.218-.063 0 .03.063.03-.046 0-.22.11-.907.423-2.22l.078-.421h1.047l.172-.719zm0 0"/></svg><svg overflow="visible" x="161.869" y="87.691"><path d="M2.844-2.047v-.594c0-1.125-.688-2.375-1.938-3.609-.094.203-.125.25-.172.297-.046.031-.093.078-.265.156C1.579-4.672 2-3.657 2-2.64v.594C2-1.03 1.578-.016.469 1.11a.743.743 0 01.265.172c.047.032.079.078.172.282C2.156.327 2.844-.922 2.844-2.047zm0 0"/></svg><svg overflow="visible" x="165.62" y="87.691"><path d="M1.297 1.906v-8.672c-.219.063-.297.079-.375.079-.063 0-.14-.016-.375-.079v8.844C.78 2.016.859 2 .922 2c.078 0 .156.016.375.078zm1.5 0v-8.672c-.219.063-.297.079-.36.079-.078 0-.156-.016-.39-.079v8.844c.234-.062.312-.078.39-.078.063 0 .141.016.36.078zm0 0"/></svg></g><g><svg overflow="visible" x="173.499" y="82.802"><path d="M8.266-4.078a1.419 1.419 0 01-.047-.36c0-.109.015-.234.062-.484h-7.5c.063.25.063.375.063.484 0 .125 0 .235-.063.5h7.5zm0 2.625a1.332 1.332 0 01-.047-.36c0-.109.015-.234.062-.484h-7.5c.063.25.063.375.063.485 0 .125 0 .25-.063.5h7.5zm0 0"/></svg></g><g><svg overflow="visible" x="187.102" y="74.525"><path d="M5.625-5.11c0-.718-.922-1.28-1.672-1.28-.484 0-.969.03-1.437.03l-1.61-.03-.047.515.672.016c.235.015.188-.047.188.109 0 .125-.047.406-.094.672L.781-.625c-.015.172.016.094-.531.172l-.11.5C.626.016.923 0 1.22 0c.515 0 1.031.031 1.547.031a3.24 3.24 0 001.484-.39C5-.766 5.469-1.47 5.469-2.141c0-.375-.172-.765-.438-.968-.25-.188-.64-.297-1.312-.391v.266c.547-.172.89-.329 1.203-.563.422-.344.703-.86.703-1.312zM4.312-2c0 .906-.546 1.438-1.515 1.438-.172 0-.469-.016-.781-.032-.063-.015-.172-.031-.157-.031L2.313-3H3c.984 0 1.313.234 1.313 1zM4.5-4.938c0 .922-.563 1.344-1.766 1.344h-.312l.406-2.156c.14 0 .39-.047.656-.047.782 0 1.016.188 1.016.86zm0 0"/></svg></g><g><svg overflow="visible" x="193.17" y="71.393"><path d="M2.14-3.703l-.187-.172L1-3.562.266-.86l.296.187.516-.203 1.14-2.766zm0 0"/></svg></g><g><svg overflow="visible" x="193.17" y="76.578"><path d="M4.016-3.375L3.844-3.5a2.55 2.55 0 01-.719.156l-.313 1.016c-.093.312-.312.672-.562 1-.281.328-.531.578-.703.578-.172 0 .016-.156.016-.25l.125-1.266c.015-.203.015-.453.015-.64 0-.297-.203-.578-.344-.578-.093 0-.312.093-.687.312l-.735.438.235.359.562-.297c.047-.015.032-.031.079-.031.203 0 0 .187 0 .297L.671-.812v.265c-.016.281.312.625.5.625.281 0 1.047-.61 1.625-1.36L2.5-1.374 2.125-.25C1.735.906 1.531 1.234.985 1.234c-.266 0-.313-.03-.313-.25 0-.03 0-.093.031-.234L.422.64l-.5.313c-.016.125-.016.172-.016.203 0 .282.453.657.797.657.813 0 1.828-.97 2.281-2.188l1.094-2.953zm0 0"/></svg></g><g><svg overflow="visible" x="197.778" y="74.525"><path d="M3.14-5.86c-.046-.015-.093-.062-.14-.093-.031-.047-.078-.094-.172-.297C1.594-5.016.906-3.766.906-2.64v.593c0 1.125.688 2.375 1.922 3.61.094-.204.14-.25.172-.282.047-.047.094-.093.266-.172C2.172-.016 1.75-1.03 1.75-2.047v-.594c0-1.015.422-2.03 1.516-3.156zm0 0"/></svg><svg overflow="visible" x="201.529" y="74.525"><path d="M3.078-4.156c-.375.031-.703.047-.89.047.124-.688.234-1.125.421-1.625l-.234-.282c-.344.172-.484.25-.922.407L1.22-4.094a5.586 5.586 0 01-.86.297l-.046.344h.796L.594-1.078C.547-.86.469-.641.469-.406c0 .219.265.484.453.484.328 0 .765-.203 1.531-.765.172-.125.11-.094.375-.282l-.234-.39L2-.984c-.297.171-.36.218-.484.218-.063 0 .03.063.03-.046 0-.22.11-.907.423-2.22l.078-.421h1.047l.172-.719zm0 0"/></svg><svg overflow="visible" x="204.917" y="74.525"><path d="M2.844-2.047v-.594c0-1.125-.688-2.375-1.938-3.609-.094.203-.125.25-.172.297-.046.031-.093.078-.265.156C1.579-4.672 2-3.657 2-2.64v.594C2-1.03 1.578-.016.469 1.11a.743.743 0 01.265.172c.047.032.079.078.172.282C2.156.327 2.844-.922 2.844-2.047zm0 0"/></svg></g><path d="M187.102 79.813h21.566" fill="none" stroke-width=".717" stroke="#000" stroke-miterlimit="10"/><g><svg overflow="visible" x="195.386" y="87.718"><path d="M4.844-6.61l-.188-.156c-.531.25-.875.329-1.703.391l-.094.453h.657c.218 0 .156-.078.156.078 0 .063 0 .14-.016.203l-.234 1.204a2.544 2.544 0 00-.656-.094c-.672 0-1.704.672-2.141 1.437C.328-2.578.094-1.64.094-.89c0 .579.297.985.578.985.265 0 .719-.188 1.047-.422.531-.39.843-.734 1.484-1.625l-.265-.094-.22.797c-.093.39-.14.672-.14.906 0 .188.235.438.406.438.157 0 .5-.157.829-.375l.859-.578-.234-.422-.594.375c-.125.094-.172.125-.25.125-.078 0 0 .047 0-.078 0-.063.031-.157.078-.407l1.234-5.296zM3.297-3.765l-.125.532C3-2.454 2.578-1.781 1.984-1.25c-.343.281-.609.469-.796.469-.157 0-.094 0-.094-.219 0-1.11.406-2.39.875-2.734.125-.094.203-.094.468-.094.422 0 .688.047.844.125zm0 0"/></svg></g></svg>