<svg xmlns="http://www.w3.org/2000/svg" xmlns:xlink="http://www.w3.org/1999/xlink" width="276" height="120" viewBox="0 0 207 90"><svg overflow="visible" x="7.503" y="13.584"><path d="M6.297-8.203s-.125-.36-.281-.36c-.188 0-1.313.11-1.516.141-.094 0-.375.203-.375.36 0 .14.313.265.484.265.579 0 .407-.047.407.078l-.047.235-.719 2.828h.406c-.218-.438-.765-.89-1.297-.89-1.406 0-3.078 1.89-3.078 3.64 0 1.125.86 2.031 1.781 2.031.25 0 .97-.078 1.422-.61.032.094.657.61 1.22.61.421 0 .827-.297 1.015-.688l.062-.093c.203-.438.297-1.094.297-1.094l.063-.094c0-.11-.297-.25-.329-.25-.125 0-.343.188-.375.344-.203.781-.218 1.36-.703 1.36-.328 0-.171-.188-.171-.422 0-.282.03-.375.078-.579l1.718-6.906zm-2.188 4.11c0 .062-.015.14-.03.202l-.595 2.344c-.062.203 0 .14-.187.344-.531.656-.875.812-1.203.812-.594 0-.578-.53-.578-1 0-.593.328-1.968.593-2.515.375-.703.782-1.11 1.266-1.11.766 0 .734.844.734.922zm0 0"/></svg><svg overflow="visible" x="17.318" y="13.584"><path d="M8.828-4.281c0-.125-.312-.375-.437-.375H.906c-.125 0-.437.25-.437.375 0 .14.312.375.437.375h7.485c.125 0 .437-.235.437-.375zm0 2.328c0-.14-.312-.375-.437-.375H.906c-.125 0-.437.234-.437.375 0 .125.312.36.437.36h7.485c.125 0 .437-.235.437-.36zm0 0"/></svg><svg overflow="visible" x="29.943" y="13.584"><path d="M2 2.625V-8.859c0-.125-.297-.375-.438-.375-.125 0-.437.25-.437.375V2.625c0 .125.313.36.438.36.14 0 .437-.235.437-.36zm1.625 0V-8.859c0-.125-.297-.375-.438-.375-.124 0-.437.25-.437.375V2.625c0 .125.313.36.438.36.14 0 .437-.235.437-.36zm0 0"/></svg><svg overflow="visible" x="34.708" y="13.584"><path d="M4.344-1.844c0-.11-.297-.234-.344-.234-.125 0-.328.156-.39.281-.141.375-.422 1.422-1.188 1.422-.188 0-.172.047-.172-.36 0-.171.047-.453.094-.624l.86-3.454h.843c.203 0 .5-.125.5-.343 0-.125-.25-.266-.453-.266h-.735l.438-1.766c-.047.094-.031-.03-.031-.03l.062-.095c0-.109-.265-.421-.5-.421-.297 0-.594.39-.64.578l-.422 1.734h-.86c-.218 0-.515.14-.515.36 0 .125.28.25.468.25h.75L1.281-1.5c-.062.25-.062.39-.062.438 0 .546.515 1.187 1.172 1.187 1.171 0 1.953-1.906 1.953-1.969zm0 0"/></svg><svg overflow="visible" x="38.593" y="13.584"><path d="M6.313-1.844c0-.11-.282-.234-.344-.234-.14 0-.344.14-.407.422-.25.984-.28 1.281-.609 1.281-.266 0-.14-.125-.14-.36 0-.171.046-.453.093-.624l.828-3.344c.032-.125-.015-.094-.015-.094l.047-.094c0-.125-.266-.421-.485-.421-.375 0-.343.703-.343.703l-.25-.204.171-.171c-.109-.282-.687-.547-1.015-.547-1.297 0-2.86 1.953-2.86 3.703 0 1.062.75 1.953 1.563 1.953.484 0 1.094-.36 1.312-.61.063.36.797.61 1.063.61.469 0 .89-.484 1.047-.828.203-.422.343-1.11.343-1.14zm-2.454.266c-.062.312-.593 1.203-1.296 1.203-.626 0-.47-.813-.47-.953 0-.594.376-2 .579-2.484.297-.735.656-1.22 1.172-1.22.719 0 .61.938.61 1.016l-.032.172zm0 0"/></svg><svg overflow="visible" x="44.571" y="13.584"><path d="M7.031-1.844c0-.11-.297-.234-.343-.234-.141 0-.344.172-.391.344-.11.406-.234 1.359-.906 1.359-.172 0-.094.047-.094-.234 0-.282.125-.657.219-.891.312-.875.718-1.984.718-2.688 0-.625-.453-1.343-1.375-1.343-.734 0-1.421.468-1.828 1l.313.093c-.031-.53-.578-1.093-1.125-1.093-.281 0-.781.25-1.14 1-.063.11.03 1.047.03 1.047l-.312-.094c0 .094.25.25.36.25.14 0 .327-.156.39-.422.187-.703.234-1.281.64-1.281.313 0 .126.218.126.36 0 .218-.047.484-.094.655L1.344-.53c-.047.172-.047.187-.047.234 0 .14.281.422.5.422.266 0 .562-.36.625-.563l.719-2.937c.078-.266.546-1.656 1.687-1.656.547 0 .36.468.36.672 0 .734-.532 2.171-.735 2.75-.11.312-.156.421-.156.671 0 .563.562 1.063 1.062 1.063 1.11 0 1.672-1.922 1.672-1.969zm0 0"/></svg><svg overflow="visible" x="51.146" y="13.584"><path d="M4.547.578l1.312-5.281c.032-.125-.03-.094-.03-.094l.062-.094c0-.125-.266-.421-.485-.421-.281 0-.625.39-.64.453h.296C5-5 4.516-5.531 3.97-5.531c-1.266 0-2.844 1.86-2.844 3.61C1.125-.829 1.906 0 2.703 0 3.328 0 4-.578 4.078-.672l-.312-.094L3.375.781c-.125.375-.39 1.172-1.36 1.172-.124 0-.53-.016-.515-.016-.063.016.219-.343.219-.515 0-.156-.282-.484-.563-.484-.234 0-.718.343-.718.718 0 .453.656.782 1.578.782 1.218 0 2.28-.907 2.53-1.86zm0-4.453L4-1.687c-.094.39-.625 1.203-1.281 1.203-.64 0-.485-.813-.485-.954 0-.578.36-1.921.547-2.375.297-.734.656-1.234 1.188-1.234.719 0 .625.906.625.984l.312.094s-.328-.015-.36.094zm0 0"/></svg><svg overflow="visible" x="56.526" y="13.584"><path d="M5.64-1.39c0-.079-.28-.313-.343-.313a.51.51 0 00-.281.156c-.625.86-1.391 1.172-2 1.172-.797 0-.72-.813-.72-1.203 0-.531.079-.86.173-1.188h.281c.422 0 2.844-.14 2.844-1.64 0-.547-.625-1.125-1.328-1.125-1.235 0-3.094 1.343-3.094 3.453C1.172-.875 1.984.125 3 .125c1.484 0 2.64-1.344 2.64-1.516zm-.827-3.032c0 1.281-1.782 1.14-2.172 1.14h-.032c.438-1.765 1.438-1.75 1.641-1.75.484 0 .563.204.563.61zm0 0"/></svg><svg overflow="visible" x="61.906" y="13.584"><path d="M7.031-1.844c0-.11-.297-.234-.343-.234-.141 0-.344.172-.391.344-.11.406-.234 1.359-.906 1.359-.172 0-.094.047-.094-.234 0-.282.125-.657.219-.891.312-.875.718-1.984.718-2.688 0-.625-.453-1.343-1.375-1.343-.734 0-1.421.468-1.828 1l.313.093c-.031-.53-.578-1.093-1.125-1.093-.281 0-.781.25-1.14 1-.063.11.03 1.047.03 1.047l-.312-.094c0 .094.25.25.36.25.14 0 .327-.156.39-.422.187-.703.234-1.281.64-1.281.313 0 .126.218.126.36 0 .218-.047.484-.094.655L1.344-.53c-.047.172-.047.187-.047.234 0 .14.281.422.5.422.266 0 .562-.36.625-.563l.719-2.937c.078-.266.546-1.656 1.687-1.656.547 0 .36.468.36.672 0 .734-.532 2.171-.735 2.75-.11.312-.156.421-.156.671 0 .563.562 1.063 1.062 1.063 1.11 0 1.672-1.922 1.672-1.969zm0 0"/></svg><svg overflow="visible" x="68.481" y="13.584"><path d="M4.344-1.844c0-.11-.297-.234-.344-.234-.125 0-.328.156-.39.281-.141.375-.422 1.422-1.188 1.422-.188 0-.172.047-.172-.36 0-.171.047-.453.094-.624l.86-3.454h.843c.203 0 .5-.125.5-.343 0-.125-.25-.266-.453-.266h-.735l.438-1.766c-.047.094-.031-.03-.031-.03l.062-.095c0-.109-.265-.421-.5-.421-.297 0-.594.39-.64.578l-.422 1.734h-.86c-.218 0-.515.14-.515.36 0 .125.28.25.468.25h.75L1.281-1.5c-.062.25-.062.39-.062.438 0 .546.515 1.187 1.172 1.187 1.171 0 1.953-1.906 1.953-1.969zm0 0"/></svg><svg overflow="visible" x="72.367" y="13.584"><path d="M4.156 2.719c0-.047-.078-.172-.11-.203-1.234-.922-2-3.22-2-5.141v-1c0-1.906.767-4.203 2-5.14a.457.457 0 00.11-.188c0-.063-.25-.25-.312-.25a1.01 1.01 0 00-.203.062C2.312-8.156 1-5.67 1-3.625v1C1-.578 2.313 1.906 3.64 2.906c.016.016.188.063.204.063.062 0 .312-.203.312-.25zm0 0"/></svg><svg overflow="visible" x="77.018" y="13.584"><path d="M4.14-5.156c0-.125-.312-.266-.53-.266H2.78c.39-1.562.453-1.797.453-1.875 0-.203-.328-.453-.53-.453-.032 0-.579.14-.688.563l-.422 1.765H.64c-.25 0-.563.14-.563.36 0 .156.297.28.531.28h.813C.594-1.515.547-1.311.547-1.093c0 .64.656 1.219 1.312 1.219 1.22 0 2.079-1.875 2.079-1.969 0-.11-.282-.25-.329-.25-.109 0-.328.172-.375.297C2.72-.547 2.281-.39 1.875-.39c-.25 0-.172-.03-.172-.421 0-.282.016-.375.063-.579l.859-3.39h.953c.25 0 .563-.125.563-.375zm0 0"/></svg><svg overflow="visible" x="81.333" y="13.584"><path d="M3.64-2.625v-1c0-2.047-1.328-4.531-2.64-5.516a.774.774 0 00-.203-.062c-.063 0-.313.187-.313.25 0 .031.079.172.094.187 1.25.938 2.016 3.235 2.016 5.141v1c0 1.922-.766 4.219-2.016 5.14-.015.032-.094.157-.094.204 0 .047.25.25.313.25A.774.774 0 001 2.906c1.313-1 2.64-3.484 2.64-5.531zm0 0"/></svg><svg overflow="visible" x="85.984" y="13.584"><path d="M2 2.625V-8.859c0-.125-.297-.375-.438-.375-.125 0-.437.25-.437.375V2.625c0 .125.313.36.438.36.14 0 .437-.235.437-.36zm1.625 0V-8.859c0-.125-.297-.375-.438-.375-.124 0-.437.25-.437.375V2.625c0 .125.313.36.438.36.14 0 .437-.235.437-.36zm0 0"/></svg><svg overflow="visible" x="94.054" y="13.584"><path d="M8.828-4.281c0-.125-.312-.375-.437-.375H.906c-.125 0-.437.25-.437.375 0 .14.312.375.437.375h7.485c.125 0 .437-.235.437-.375zm0 2.328c0-.14-.312-.375-.437-.375H.906c-.125 0-.437.234-.437.375 0 .125.312.36.437.36h7.485c.125 0 .437-.235.437-.36zm0 0"/></svg><svg overflow="visible" x="106.686" y="13.859"><path d="M12.39-13.64c0-.126-.296-.376-.437-.376-.172 0-.437.297-.484.454L5.344 5.843h.39L3.063-3.484 1.077-1.156l.438.406.703-.828 2.687 9.344c.563 0 .766-.125.86-.422l6.562-20.75c.063-.172 0-.14 0-.14zm0 0"/></svg><path d="M118.64.352h81.856" fill="none" stroke-width=".478" stroke="#000" stroke-miterlimit="10"/><svg overflow="visible" x="118.641" y="13.584"><path d="M9.234-6.64c0-.891-.984-1.782-2.421-1.782H2.796c-.235 0-.547.125-.547.36 0 .14.313.265.531.265l.14-.031s.11.031.313.062c.22.016.125-.093.125.063 0 .047-.015.078-.046.219l-1.61 6.421c-.11.47.063.422-.875.422-.203 0-.531.141-.531.375 0 .141.312.266.531.266h4.266c1.89 0 3.484-1.547 3.484-2.719 0-.86-.875-1.687-2.047-1.812v.265c1.25-.234 2.703-1.25 2.703-2.375zM7.75-6.689c0 1.047-.828 2.047-2.281 2.047H3.937l.72-2.828c.093-.422-.063-.328.452-.328h1.532c1.062 0 1.109.578 1.109 1.11zm-.672 3.844c0 1.188-.86 2.203-2.266 2.203h-1.89c-.125-.015.031.11.031 0 0-.03 0-.046.063-.265l.78-3.203h2.11c1.14 0 1.172.75 1.172 1.265zm0 0"/></svg><svg overflow="visible" x="128.014" y="10.129"><path d="M3.063-4.313c0-.25-.422-.609-.672-.609-.172 0-.563.281-.61.406l-1.5 3.72H1L2.922-3.97c.047-.062.14-.265.14-.344zm0 0"/></svg><svg overflow="visible" x="127.715" y="16.537"><path d="M5.094-3.234c0-.47-.75-.782-1.078-.782-.422 0-.907.329-.922.344.031.078-.563-.344-1.031-.344C1.125-4.016.39-2.828.39-2.578c0 .11.328.281.343.281.11 0 .329-.203.375-.312.204-.657.532-.844.938-.844.265 0 .297-.016.297.39 0 .172-.11.579-.188.876l-.281 1.14c-.078.281-.156.578-.578.578-.031 0-.125.047-.078.078-.032.016.203-.453.203-.5 0-.187-.344-.468-.547-.468-.234 0-.688.359-.688.671 0 .422.688.766 1.094.766.39 0 .875-.281.907-.344.03.047.687.344 1.03.344.954 0 1.688-1.203 1.688-1.437 0-.11-.328-.266-.343-.266-.125 0-.344.203-.375.297-.172.578-.47.86-.938.86-.328 0-.297-.063-.297-.391 0-.22.203-.97.438-1.907.156-.64.328-.687.609-.687l.14-.047s-.015 0-.093-.047c.125-.031-.172.36-.172.5 0 .188.344.469.531.469.203 0 .688-.313.688-.656zm0 0"/></svg><svg overflow="visible" x="133.636" y="13.584"><path d="M4.156 2.719c0-.047-.078-.172-.11-.203-1.234-.922-2-3.22-2-5.141v-1c0-1.906.767-4.203 2-5.14a.457.457 0 00.11-.188c0-.063-.25-.25-.312-.25a1.01 1.01 0 00-.203.062C2.312-8.156 1-5.67 1-3.625v1C1-.578 2.313 1.906 3.64 2.906c.016.016.188.063.204.063.062 0 .312-.203.312-.25zm0 0"/></svg><svg overflow="visible" x="138.287" y="13.584"><path d="M4.14-5.156c0-.125-.312-.266-.53-.266H2.78c.39-1.562.453-1.797.453-1.875 0-.203-.328-.453-.53-.453-.032 0-.579.14-.688.563l-.422 1.765H.64c-.25 0-.563.14-.563.36 0 .156.297.28.531.28h.813C.594-1.515.547-1.311.547-1.093c0 .64.656 1.219 1.312 1.219 1.22 0 2.079-1.875 2.079-1.969 0-.11-.282-.25-.329-.25-.109 0-.328.172-.375.297C2.72-.547 2.281-.39 1.875-.39c-.25 0-.172-.03-.172-.421 0-.282.016-.375.063-.579l.859-3.39h.953c.25 0 .563-.125.563-.375zm0 0"/></svg><svg overflow="visible" x="142.602" y="13.584"><path d="M3.64-2.625v-1c0-2.047-1.328-4.531-2.64-5.516a.774.774 0 00-.203-.062c-.063 0-.313.187-.313.25 0 .031.079.172.094.187 1.25.938 2.016 3.235 2.016 5.141v1c0 1.922-.766 4.219-2.016 5.14-.015.032-.094.157-.094.204 0 .047.25.25.313.25A.774.774 0 001 2.906c1.313-1 2.64-3.484 2.64-5.531zm0 0"/></svg><svg overflow="visible" x="147.253" y="10.129"><path d="M4.234-1.844H3.75c-.047.344-.063.735-.172.813-.062.047-.562 0-.687 0H1.812c.563-.5.86-.735 1.36-1.125.625-.5 1.265-1.14 1.265-1.938 0-1-1.093-1.781-2.171-1.781-1.032 0-1.954.89-1.954 1.656 0 .422.579.625.657.625.203 0 .656-.297.656-.61 0-.14-.266-.593-.422-.593.188-.437.547-.469.938-.469.843 0 1.062.5 1.062 1.172 0 .735-.453 1.203-.719 1.5l-2.03 2C.374-.516.311-.39.311 0h3.844l.313-1.844zm0 0"/></svg><svg overflow="visible" x="155.169" y="13.584"><path d="M8.828-3.125c0-.125-.312-.36-.437-.36H5.078v-3.374c0-.141-.297-.375-.422-.375-.14 0-.453.234-.453.375v3.375H.906c-.125 0-.437.234-.437.359 0 .14.312.375.437.375h3.297V.625c0 .125.313.36.453.36.125 0 .422-.235.422-.36V-2.75h3.313c.125 0 .437-.234.437-.375zm0 0"/></svg><svg overflow="visible" x="167.124" y="13.584"><path d="M9.234-6.64c0-.891-.984-1.782-2.421-1.782H2.796c-.235 0-.547.125-.547.36 0 .14.313.265.531.265l.14-.031s.11.031.313.062c.22.016.125-.093.125.063 0 .047-.015.078-.046.219l-1.61 6.421c-.11.47.063.422-.875.422-.203 0-.531.141-.531.375 0 .141.312.266.531.266h4.266c1.89 0 3.484-1.547 3.484-2.719 0-.86-.875-1.687-2.047-1.812v.265c1.25-.234 2.703-1.25 2.703-2.375zM7.75-6.689c0 1.047-.828 2.047-2.281 2.047H3.937l.72-2.828c.093-.422-.063-.328.452-.328h1.532c1.062 0 1.109.578 1.109 1.11zm-.672 3.844c0 1.188-.86 2.203-2.266 2.203h-1.89c-.125-.015.031.11.031 0 0-.03 0-.046.063-.265l.78-3.203h2.11c1.14 0 1.172.75 1.172 1.265zm0 0"/></svg><svg overflow="visible" x="176.5" y="10.129"><path d="M3.063-4.313c0-.25-.422-.609-.672-.609-.172 0-.563.281-.61.406l-1.5 3.72H1L2.922-3.97c.047-.062.14-.265.14-.344zm0 0"/></svg><svg overflow="visible" x="176.202" y="16.537"><path d="M4.906-3.5c0-.172-.343-.422-.5-.422-.078 0-.39.094-.484.25a3.37 3.37 0 00-.188.594l-.187.687-.328 1.36.344.11S3.046-.47 2.39-.47c-.563 0-.36-.39-.36-.531 0-.453.203-.984.453-1.625.094-.266.141-.375.141-.516 0-.406-.563-.875-1.016-.875-.843 0-1.421 1.297-1.421 1.438 0 .11.328.281.343.281.125 0 .344-.203.36-.297.218-.703.359-.86.703-.86.14 0 0-.077 0 .126s-.078.375-.125.484C1.079-1.813.984-1.5.984-1.14c0 .141.063.657.391.922.266.219.766.297.984.297.344 0 .782-.156 1.063-.406l-.36-.125c-.109.469-.14.703-.484 1.125-.234.25-.422.484-.86.484-.062 0-.312.047-.343.016.172-.031.313-.484.313-.484l.062-.11c0-.265-.453-.484-.531-.484C1 .094.516.422.516.813c0 .421.609.89 1.203.89.86 0 2.093-.812 2.343-1.86l.797-3.155c.047-.126.047-.141.047-.188zm0 0"/></svg><svg overflow="visible" x="181.62" y="13.584"><path d="M4.156 2.719c0-.047-.078-.172-.11-.203-1.234-.922-2-3.22-2-5.141v-1c0-1.906.767-4.203 2-5.14a.457.457 0 00.11-.188c0-.063-.25-.25-.312-.25a1.01 1.01 0 00-.203.062C2.312-8.156 1-5.67 1-3.625v1C1-.578 2.313 1.906 3.64 2.906c.016.016.188.063.204.063.062 0 .312-.203.312-.25zm0 0"/></svg><svg overflow="visible" x="186.271" y="13.584"><path d="M4.14-5.156c0-.125-.312-.266-.53-.266H2.78c.39-1.562.453-1.797.453-1.875 0-.203-.328-.453-.53-.453-.032 0-.579.14-.688.563l-.422 1.765H.64c-.25 0-.563.14-.563.36 0 .156.297.28.531.28h.813C.594-1.515.547-1.311.547-1.093c0 .64.656 1.219 1.312 1.219 1.22 0 2.079-1.875 2.079-1.969 0-.11-.282-.25-.329-.25-.109 0-.328.172-.375.297C2.72-.547 2.281-.39 1.875-.39c-.25 0-.172-.03-.172-.421 0-.282.016-.375.063-.579l.859-3.39h.953c.25 0 .563-.125.563-.375zm0 0"/></svg><svg overflow="visible" x="190.586" y="13.584"><path d="M3.64-2.625v-1c0-2.047-1.328-4.531-2.64-5.516a.774.774 0 00-.203-.062c-.063 0-.313.187-.313.25 0 .031.079.172.094.187 1.25.938 2.016 3.235 2.016 5.141v1c0 1.922-.766 4.219-2.016 5.14-.015.032-.094.157-.094.204 0 .047.25.25.313.25A.774.774 0 001 2.906c1.313-1 2.64-3.484 2.64-5.531zm0 0"/></svg><svg overflow="visible" x="195.237" y="10.129"><path d="M4.234-1.844H3.75c-.047.344-.063.735-.172.813-.062.047-.562 0-.687 0H1.812c.563-.5.86-.735 1.36-1.125.625-.5 1.265-1.14 1.265-1.938 0-1-1.093-1.781-2.171-1.781-1.032 0-1.954.89-1.954 1.656 0 .422.579.625.657.625.203 0 .656-.297.656-.61 0-.14-.266-.593-.422-.593.188-.437.547-.469.938-.469.843 0 1.062.5 1.062 1.172 0 .735-.453 1.203-.719 1.5l-2.03 2C.374-.516.311-.39.311 0h3.844l.313-1.844zm0 0"/></svg><svg overflow="visible" x="7.576" y="48.867"><path d="M-.844-7.484a13.34 13.34 0 00-2.312-1.594c-.922.5-1.656 1.015-2.39 1.672l.265.437a35.74 35.74 0 002.125-1.015c.515.28 1.344.671 2.11 1.015l.265-.437zm0 0"/></svg><svg overflow="visible" x=".487" y="48.867"><path d="M6.484-4.625c0-.625-.89-.922-1.296-.922-.688 0-1.25.672-1.235.61-.125-.36-.969-.61-1.312-.61-1.235 0-2.125 1.672-2.125 1.969 0 .125.468.219.468.219l-.125.03c.094 0 .329-.155.344-.25.406-1.28 1.016-1.437 1.422-1.437.219 0 .438-.03.438.672 0 .36-.204 1.172-.641 2.844-.203.734-.406 1.11-.938 1.11-.078 0-.218.03-.218.03-.079.016.375-.374.375-.703 0-.328-.454-.546-.641-.546-.36 0-.86.437-.86.828 0 .547.797.906 1.329.906.797 0 1.36-.86 1.39-.938l-.343-.093c.156.437.78 1.031 1.5 1.031 1.234 0 2.109-1.672 2.109-1.969 0-.11-.297-.25-.344-.25-.11 0-.328.188-.36.266-.39 1.281-1 1.437-1.374 1.437-.469 0-.469-.25-.469-.656 0-.266.063-.531.203-1.062l.406-1.625c.063-.313.157-1.282.985-1.282a.604.604 0 00.187-.046c.079 0-.359.421-.359.718 0 .188.328.547.656.547.266 0 .828-.344.828-.828zm0 0"/></svg><svg overflow="visible" x="7.325" y="48.867"><path d="M4.156 2.719c0-.047-.078-.172-.11-.203-1.234-.922-2-3.22-2-5.141v-1c0-1.906.767-4.203 2-5.14a.457.457 0 00.11-.188c0-.063-.25-.25-.312-.25a1.01 1.01 0 00-.203.062C2.312-8.156 1-5.67 1-3.625v1C1-.578 2.313 1.906 3.64 2.906c.016.016.188.063.204.063.062 0 .312-.203.312-.25zm0 0"/></svg><svg overflow="visible" x="11.976" y="48.867"><path d="M4.14-5.156c0-.125-.312-.266-.53-.266H2.78c.39-1.562.453-1.797.453-1.875 0-.203-.328-.453-.53-.453-.032 0-.579.14-.688.563l-.422 1.765H.64c-.25 0-.563.14-.563.36 0 .156.297.28.531.28h.813C.594-1.515.547-1.311.547-1.093c0 .64.656 1.219 1.312 1.219 1.22 0 2.079-1.875 2.079-1.969 0-.11-.282-.25-.329-.25-.109 0-.328.172-.375.297C2.72-.547 2.281-.39 1.875-.39c-.25 0-.172-.03-.172-.421 0-.282.016-.375.063-.579l.859-3.39h.953c.25 0 .563-.125.563-.375zm0 0"/></svg><svg overflow="visible" x="16.291" y="48.867"><path d="M3.64-2.625v-1c0-2.047-1.328-4.531-2.64-5.516a.774.774 0 00-.203-.062c-.063 0-.313.187-.313.25 0 .031.079.172.094.187 1.25.938 2.016 3.235 2.016 5.141v1c0 1.922-.766 4.219-2.016 5.14-.015.032-.094.157-.094.204 0 .047.25.25.313.25A.774.774 0 001 2.906c1.313-1 2.64-3.484 2.64-5.531zm0 0"/></svg><svg overflow="visible" x="24.254" y="48.867"><path d="M8.828-4.281c0-.125-.312-.375-.437-.375H.906c-.125 0-.437.25-.437.375 0 .14.312.375.437.375h7.485c.125 0 .437-.235.437-.375zm0 2.328c0-.14-.312-.375-.437-.375H.906c-.125 0-.437.234-.437.375 0 .125.312.36.437.36h7.485c.125 0 .437-.235.437-.36zm0 0"/></svg><svg overflow="visible" x="36.878" y="48.867"><path d="M1.39 3.797v-13.844c0-.14-.312-.39-.452-.39-.157 0-.47.25-.47.39V3.797c0 .14.313.406.47.406.14 0 .453-.266.453-.406zm2.36 0v-13.844c0-.14-.313-.39-.453-.39s-.469.25-.469.39V3.797c0 .14.328.406.469.406.14 0 .453-.266.453-.406zm0 0"/></svg><svg overflow="visible" x="41.117" y="48.867"><path d="M4.344-1.844c0-.11-.297-.234-.344-.234-.125 0-.328.156-.39.281-.141.375-.422 1.422-1.188 1.422-.188 0-.172.047-.172-.36 0-.171.047-.453.094-.624l.86-3.454h.843c.203 0 .5-.125.5-.343 0-.125-.25-.266-.453-.266h-.735l.438-1.766c-.047.094-.031-.03-.031-.03l.062-.095c0-.109-.265-.421-.5-.421-.297 0-.594.39-.64.578l-.422 1.734h-.86c-.218 0-.515.14-.515.36 0 .125.28.25.468.25h.75L1.281-1.5c-.062.25-.062.39-.062.438 0 .546.515 1.187 1.172 1.187 1.171 0 1.953-1.906 1.953-1.969zm0 0"/></svg><svg overflow="visible" x="45.002" y="48.867"><path d="M6.313-1.844c0-.11-.282-.234-.344-.234-.14 0-.344.14-.407.422-.25.984-.28 1.281-.609 1.281-.266 0-.14-.125-.14-.36 0-.171.046-.453.093-.624l.828-3.344c.032-.125-.015-.094-.015-.094l.047-.094c0-.125-.266-.421-.485-.421-.375 0-.343.703-.343.703l-.25-.204.171-.171c-.109-.282-.687-.547-1.015-.547-1.297 0-2.86 1.953-2.86 3.703 0 1.062.75 1.953 1.563 1.953.484 0 1.094-.36 1.312-.61.063.36.797.61 1.063.61.469 0 .89-.484 1.047-.828.203-.422.343-1.11.343-1.14zm-2.454.266c-.062.312-.593 1.203-1.296 1.203-.626 0-.47-.813-.47-.953 0-.594.376-2 .579-2.484.297-.735.656-1.22 1.172-1.22.719 0 .61.938.61 1.016l-.032.172zm0 0"/></svg><svg overflow="visible" x="50.98" y="48.867"><path d="M7.031-1.844c0-.11-.297-.234-.343-.234-.141 0-.344.172-.391.344-.11.406-.234 1.359-.906 1.359-.172 0-.094.047-.094-.234 0-.282.125-.657.219-.891.312-.875.718-1.984.718-2.688 0-.625-.453-1.343-1.375-1.343-.734 0-1.421.468-1.828 1l.313.093c-.031-.53-.578-1.093-1.125-1.093-.281 0-.781.25-1.14 1-.063.11.03 1.047.03 1.047l-.312-.094c0 .094.25.25.36.25.14 0 .327-.156.39-.422.187-.703.234-1.281.64-1.281.313 0 .126.218.126.36 0 .218-.047.484-.094.655L1.344-.53c-.047.172-.047.187-.047.234 0 .14.281.422.5.422.266 0 .562-.36.625-.563l.719-2.937c.078-.266.546-1.656 1.687-1.656.547 0 .36.468.36.672 0 .734-.532 2.171-.735 2.75-.11.312-.156.421-.156.671 0 .563.562 1.063 1.062 1.063 1.11 0 1.672-1.922 1.672-1.969zm0 0"/></svg><svg overflow="visible" x="57.555" y="48.867"><path d="M4.547.578l1.312-5.281c.032-.125-.03-.094-.03-.094l.062-.094c0-.125-.266-.421-.485-.421-.281 0-.625.39-.64.453h.296C5-5 4.516-5.531 3.97-5.531c-1.266 0-2.844 1.86-2.844 3.61C1.125-.829 1.906 0 2.703 0 3.328 0 4-.578 4.078-.672l-.312-.094L3.375.781c-.125.375-.39 1.172-1.36 1.172-.124 0-.53-.016-.515-.016-.063.016.219-.343.219-.515 0-.156-.282-.484-.563-.484-.234 0-.718.343-.718.718 0 .453.656.782 1.578.782 1.218 0 2.28-.907 2.53-1.86zm0-4.453L4-1.687c-.094.39-.625 1.203-1.281 1.203-.64 0-.485-.813-.485-.954 0-.578.36-1.921.547-2.375.297-.734.656-1.234 1.188-1.234.719 0 .625.906.625.984l.312.094s-.328-.015-.36.094zm0 0"/></svg><svg overflow="visible" x="62.935" y="48.867"><path d="M5.64-1.39c0-.079-.28-.313-.343-.313a.51.51 0 00-.281.156c-.625.86-1.391 1.172-2 1.172-.797 0-.72-.813-.72-1.203 0-.531.079-.86.173-1.188h.281c.422 0 2.844-.14 2.844-1.64 0-.547-.625-1.125-1.328-1.125-1.235 0-3.094 1.343-3.094 3.453C1.172-.875 1.984.125 3 .125c1.484 0 2.64-1.344 2.64-1.516zm-.827-3.032c0 1.281-1.782 1.14-2.172 1.14h-.032c.438-1.765 1.438-1.75 1.641-1.75.484 0 .563.204.563.61zm0 0"/></svg><svg overflow="visible" x="68.315" y="48.867"><path d="M7.031-1.844c0-.11-.297-.234-.343-.234-.141 0-.344.172-.391.344-.11.406-.234 1.359-.906 1.359-.172 0-.094.047-.094-.234 0-.282.125-.657.219-.891.312-.875.718-1.984.718-2.688 0-.625-.453-1.343-1.375-1.343-.734 0-1.421.468-1.828 1l.313.093c-.031-.53-.578-1.093-1.125-1.093-.281 0-.781.25-1.14 1-.063.11.03 1.047.03 1.047l-.312-.094c0 .094.25.25.36.25.14 0 .327-.156.39-.422.187-.703.234-1.281.64-1.281.313 0 .126.218.126.36 0 .218-.047.484-.094.655L1.344-.53c-.047.172-.047.187-.047.234 0 .14.281.422.5.422.266 0 .562-.36.625-.563l.719-2.937c.078-.266.546-1.656 1.687-1.656.547 0 .36.468.36.672 0 .734-.532 2.171-.735 2.75-.11.312-.156.421-.156.671 0 .563.562 1.063 1.062 1.063 1.11 0 1.672-1.922 1.672-1.969zm0 0"/></svg><svg overflow="visible" x="74.89" y="48.867"><path d="M4.344-1.844c0-.11-.297-.234-.344-.234-.125 0-.328.156-.39.281-.141.375-.422 1.422-1.188 1.422-.188 0-.172.047-.172-.36 0-.171.047-.453.094-.624l.86-3.454h.843c.203 0 .5-.125.5-.343 0-.125-.25-.266-.453-.266h-.735l.438-1.766c-.047.094-.031-.03-.031-.03l.062-.095c0-.109-.265-.421-.5-.421-.297 0-.594.39-.64.578l-.422 1.734h-.86c-.218 0-.515.14-.515.36 0 .125.28.25.468.25h.75L1.281-1.5c-.062.25-.062.39-.062.438 0 .546.515 1.187 1.172 1.187 1.171 0 1.953-1.906 1.953-1.969zm0 0"/></svg><svg overflow="visible" x="78.776" y="52.98"><path d="M5.094-3.234c0-.47-.75-.782-1.078-.782-.422 0-.907.329-.922.344.031.078-.563-.344-1.031-.344C1.125-4.016.39-2.828.39-2.578c0 .11.328.281.343.281.11 0 .329-.203.375-.312.204-.657.532-.844.938-.844.265 0 .297-.016.297.39 0 .172-.11.579-.188.876l-.281 1.14c-.078.281-.156.578-.578.578-.031 0-.125.047-.078.078-.032.016.203-.453.203-.5 0-.187-.344-.468-.547-.468-.234 0-.688.359-.688.671 0 .422.688.766 1.094.766.39 0 .875-.281.907-.344.03.047.687.344 1.03.344.954 0 1.688-1.203 1.688-1.437 0-.11-.328-.266-.343-.266-.125 0-.344.203-.375.297-.172.578-.47.86-.938.86-.328 0-.297-.063-.297-.391 0-.22.203-.97.438-1.907.156-.64.328-.687.609-.687l.14-.047s-.015 0-.093-.047c.125-.031-.172.36-.172.5 0 .188.344.469.531.469.203 0 .688-.313.688-.656zm0 0"/></svg><svg overflow="visible" x="84.697" y="48.867"><path d="M4.156 2.719c0-.047-.078-.172-.11-.203-1.234-.922-2-3.22-2-5.141v-1c0-1.906.767-4.203 2-5.14a.457.457 0 00.11-.188c0-.063-.25-.25-.312-.25a1.01 1.01 0 00-.203.062C2.312-8.156 1-5.67 1-3.625v1C1-.578 2.313 1.906 3.64 2.906c.016.016.188.063.204.063.062 0 .312-.203.312-.25zm0 0"/></svg><svg overflow="visible" x="89.348" y="48.867"><path d="M4.14-5.156c0-.125-.312-.266-.53-.266H2.78c.39-1.562.453-1.797.453-1.875 0-.203-.328-.453-.53-.453-.032 0-.579.14-.688.563l-.422 1.765H.64c-.25 0-.563.14-.563.36 0 .156.297.28.531.28h.813C.594-1.515.547-1.311.547-1.093c0 .64.656 1.219 1.312 1.219 1.22 0 2.079-1.875 2.079-1.969 0-.11-.282-.25-.329-.25-.109 0-.328.172-.375.297C2.72-.547 2.281-.39 1.875-.39c-.25 0-.172-.03-.172-.421 0-.282.016-.375.063-.579l.859-3.39h.953c.25 0 .563-.125.563-.375zm0 0"/></svg><svg overflow="visible" x="93.663" y="48.867"><path d="M3.64-2.625v-1c0-2.047-1.328-4.531-2.64-5.516a.774.774 0 00-.203-.062c-.063 0-.313.187-.313.25 0 .031.079.172.094.187 1.25.938 2.016 3.235 2.016 5.141v1c0 1.922-.766 4.219-2.016 5.14-.015.032-.094.157-.094.204 0 .047.25.25.313.25A.774.774 0 001 2.906c1.313-1 2.64-3.484 2.64-5.531zm0 0"/></svg><svg overflow="visible" x="98.314" y="48.867"><path d="M1.39 3.797v-13.844c0-.14-.312-.39-.452-.39-.157 0-.47.25-.47.39V3.797c0 .14.313.406.47.406.14 0 .453-.266.453-.406zm2.36 0v-13.844c0-.14-.313-.39-.453-.39s-.469.25-.469.39V3.797c0 .14.328.406.469.406.14 0 .453-.266.453-.406zm0 0"/></svg><svg overflow="visible" x="105.858" y="48.867"><path d="M8.828-4.281c0-.125-.312-.375-.437-.375H.906c-.125 0-.437.25-.437.375 0 .14.312.375.437.375h7.485c.125 0 .437-.235.437-.375zm0 2.328c0-.14-.312-.375-.437-.375H.906c-.125 0-.437.234-.437.375 0 .125.312.36.437.36h7.485c.125 0 .437-.235.437-.36zm0 0"/></svg><svg overflow="visible" x="120.4" y="42.336"><path d="M3.406-1.406c0-.094-.328-.282-.36-.282-.124 0-.343.22-.39.329-.36.843-.547.828-.812.828-.203 0-.032 0-.032-.188 0-.047 0-.14.016-.234l.594-2.375h.61c.14 0 .437-.203.437-.36 0-.109-.297-.312-.422-.312h-.453l.25-1.016c.031-.125.031-.14.031-.171 0-.204-.375-.438-.453-.438-.266 0-.531.453-.547.531L1.594-4H1c-.156 0-.469.203-.469.36 0 .109.328.312.453.312h.438L.89-1.188c-.047.172-.047.22-.047.313 0 .484.578.953.984.953.89 0 1.578-1.36 1.578-1.484zm0 0"/></svg><svg overflow="visible" x="123.388" y="42.336"><path d="M4.938-1.39c0-.11-.329-.298-.36-.298-.14 0-.36.22-.406.422-.156.641-.125.735-.36.735-.234 0-.03-.078-.03-.188 0-.047 0-.14.03-.234l.579-2.36c.015-.046.046-.14.046-.187 0-.125-.312-.422-.453-.422-.125 0-.515.266-.562.5l.36-.125c-.188-.297-.563-.531-.923-.531-.984 0-2.203 1.437-2.203 2.625 0 .812.688 1.531 1.313 1.531.5 0 1.047-.422.968-.344-.015-.109.47.344.86.344.312 0 .656-.234.797-.5.172-.328.281-.828.281-.828zm-2.047.077c-.063.297-.407.782-.891.782-.406 0-.328-.235-.328-.578 0-.391.187-1.25.39-1.625.344-.61.563-.72.797-.72.532 0 .422.517.422.595l-.031.125zm0 0"/></svg><svg overflow="visible" x="127.982" y="42.336"><path d="M5.469-1.39c0-.11-.313-.298-.36-.298-.14 0-.359.22-.39.36-.157.547-.219.797-.578.797-.157 0 .015.078.015-.078 0-.188.063-.375.125-.532.172-.453.516-1.359.516-1.843 0-.72-.703-1.094-1.156-1.094-.72 0-1.266.531-1.422.734l.36.125c-.063-.375-.563-.86-.985-.86-.282 0-.625.22-.797.516-.156.282-.344.922-.344.954 0 .109.328.312.375.312.14 0 .344-.219.39-.422.126-.5.079-.734.36-.734.234 0 .031.094.031.172 0 .11-.015.25-.046.36L.953-.47C.922-.39.922-.375.922-.344c0 .14.312.422.453.422.281 0 .531-.39.594-.703l.187-.719c.047-.187.047-.203.14-.547l.126-.546c.047-.141.25-.5.515-.735.25-.234.376-.281.672-.281.329 0 .22.031.22.36 0 .484-.36 1.437-.517 1.859-.046.14-.109.28-.109.437 0 .375.485.875.922.875.797 0 1.344-1.344 1.344-1.469zm0 0"/></svg><svg overflow="visible" x="133.028" y="42.336"><path d="M4.484-3.313c0-.046.032-.14.032-.187 0-.125-.313-.422-.454-.422-.171 0-.515.328-.562.485l.36-.126c-.094-.171-.47-.515-.907-.515C1.97-4.078.75-2.703.75-1.516.75-.672 1.469 0 2.078 0c.313 0 .766-.203 1.078-.484L2.812-.61l-.187.703c-.094.344-.078.422-.328.687-.344.36-.563.313-.719.313-.125 0-.344 0-.11.062C1.345 1.234 1.36 1 1.36 1l.063-.14c0-.172-.313-.47-.5-.47-.203 0-.625.36-.625.641 0 .438.75.672 1.266.672 1.062 0 1.859-.797 2-1.344zM3-1.375c-.078.297-.406.75-.906.75-.36 0-.313-.172-.313-.563 0-.359.219-1.25.39-1.64.267-.516.454-.625.782-.625.516 0 .406.469.406.578 0 .031 0 .047-.015.125zm0 0"/></svg><svg overflow="visible" x="137.162" y="42.336"><path d="M4.406-1.031c0-.063-.312-.375-.375-.375-.047 0-.203.078-.281.172-.453.546-.969.703-1.422.703-.578 0-.515-.39-.515-.766 0-.187.062-.547.078-.61h.328c.328 0 2.094-.202 2.094-1.25 0-.421-.563-.921-1.141-.921-.906 0-2.39.984-2.39 2.469 0 .765.655 1.687 1.53 1.687 1.22 0 2.094-.984 2.094-1.11zm-.875-2.125c0 .812-1.078.625-1.39.625h-.094c.234-.844.765-.922 1.125-.922.297 0 .36-.047.36.297zm0 0"/></svg><svg overflow="visible" x="141.296" y="42.336"><path d="M5.469-1.39c0-.11-.313-.298-.36-.298-.14 0-.359.22-.39.36-.157.547-.219.797-.578.797-.157 0 .015.078.015-.078 0-.188.063-.375.125-.532.172-.453.516-1.359.516-1.843 0-.72-.703-1.094-1.156-1.094-.72 0-1.266.531-1.422.734l.36.125c-.063-.375-.563-.86-.985-.86-.282 0-.625.22-.797.516-.156.282-.344.922-.344.954 0 .109.328.312.375.312.14 0 .344-.219.39-.422.126-.5.079-.734.36-.734.234 0 .031.094.031.172 0 .11-.015.25-.046.36L.953-.47C.922-.39.922-.375.922-.344c0 .14.312.422.453.422.281 0 .531-.39.594-.703l.187-.719c.047-.187.047-.203.14-.547l.126-.546c.047-.141.25-.5.515-.735.25-.234.376-.281.672-.281.329 0 .22.031.22.36 0 .484-.36 1.437-.517 1.859-.046.14-.109.28-.109.437 0 .375.485.875.922.875.797 0 1.344-1.344 1.344-1.469zm0 0"/></svg><svg overflow="visible" x="146.343" y="42.336"><path d="M3.406-1.406c0-.094-.328-.282-.36-.282-.124 0-.343.22-.39.329-.36.843-.547.828-.812.828-.203 0-.032 0-.032-.188 0-.047 0-.14.016-.234l.594-2.375h.61c.14 0 .437-.203.437-.36 0-.109-.297-.312-.422-.312h-.453l.25-1.016c.031-.125.031-.14.031-.171 0-.204-.375-.438-.453-.438-.266 0-.531.453-.547.531L1.594-4H1c-.156 0-.469.203-.469.36 0 .109.328.312.453.312h.438L.89-1.188c-.047.172-.047.22-.047.313 0 .484.578.953.984.953.89 0 1.578-1.36 1.578-1.484zm0 0"/></svg><svg overflow="visible" x="149.33" y="45.238"><path d="M4.281-2.328c0-.36-.593-.672-.906-.672-.39 0-.797.297-.75.25-.078-.14-.594-.25-.813-.25-.75 0-1.375.875-1.375 1.11 0 .077.297.25.329.25.046 0 .296-.173.328-.25.172-.579.468-.548.703-.548.187 0 .219-.093.219.22 0 .14-.11.562-.313 1.359-.094.343-.172.359-.422.359-.047 0-.078.063.032.125-.125.047.078-.36.078-.39 0-.172-.329-.422-.47-.422-.14 0-.562.296-.562.578 0 .375.61.671.907.671.328 0 .734-.234.75-.25.093.157.625.25.796.25.766 0 1.376-.89 1.376-1.109 0-.078-.297-.25-.313-.25-.11 0-.328.203-.344.266C3.36-.5 3.11-.5 2.844-.5c-.188 0-.235.11-.235-.219 0-.078 0-.11.047-.312.11-.422.266-1.094.297-1.14.031-.079.094-.267.406-.267.016 0 .079-.062-.046-.14.124-.047.265.531.265.531l-.344-.125c0 .094.282.422.47.422.171 0 .577-.328.577-.578zm0 0"/></svg><svg overflow="visible" x="154.563" y="42.336"><path d="M2.984 1.828a.933.933 0 00-.093-.172C2.016 1 1.5-.562 1.5-1.906v-.703c0-1.329.516-2.891 1.39-3.547a.702.702 0 00.094-.188c0-.031-.25-.234-.28-.234a1.01 1.01 0 00-.204.062C1.578-5.828.64-4.03.64-2.609v.703c0 1.437.938 3.234 1.86 3.922.016.015.188.062.203.062.031 0 .281-.203.281-.25zm0 0"/></svg><svg overflow="visible" x="157.818" y="42.336"><path d="M3.39-3.656c0-.11-.312-.266-.453-.266h-.562l.281-1.094c0-.03.031-.078.031-.109 0-.156-.328-.422-.5-.422-.218 0-.546.297-.609.516-.047.203.063-.188-.281 1.11H.625c-.172 0-.484.155-.484.343 0 .11.312.265.468.265h.532L.687-1.484c-.046.203-.125.5-.125.609 0 .5.641.953 1.11.953.937 0 1.672-1.328 1.672-1.437 0-.11-.328-.266-.344-.266-.11 0-.313.172-.39.313-.235.53-.454.843-.907.843-.172 0-.094.047-.094-.25 0-.078.047-.265.063-.344l.562-2.25h.688c.156 0 .469-.156.469-.343zm0 0"/></svg><svg overflow="visible" x="161.434" y="42.336"><path d="M2.625-1.906v-.703c0-1.422-.953-3.22-1.875-3.907a.88.88 0 00-.188-.062c-.046 0-.296.203-.296.234 0 .032.078.172.093.188C1.234-5.5 1.75-3.938 1.75-2.61v.703C1.75-.563 1.234 1 .36 1.656a.933.933 0 00-.094.172c0 .047.25.25.296.25a.88.88 0 00.188-.062c.922-.688 1.875-2.485 1.875-3.922zm0 0"/></svg><path d="M119.684 45.879h45.718" fill="none" stroke-width=".478" stroke="#000" stroke-miterlimit="10"/><g><svg overflow="visible" x="119.685" y="52.992"><path d="M1.469 1.766v-8.032c0-.093-.282-.328-.375-.328-.094 0-.375.235-.375.328v8.032c0 .093.281.328.375.328.093 0 .375-.235.375-.328zm1.14 0v-8.032c0-.093-.28-.328-.375-.328-.093 0-.375.235-.375.328v8.032c0 .093.282.328.375.328.094 0 .375-.235.375-.328zm0 0"/></svg></g><g><svg overflow="visible" x="123.016" y="52.992"><path d="M3.406-1.406c0-.094-.328-.282-.36-.282-.124 0-.343.22-.39.329-.36.843-.547.828-.812.828-.203 0-.032 0-.032-.188 0-.047 0-.14.016-.234l.594-2.375h.61c.14 0 .437-.203.437-.36 0-.109-.297-.312-.422-.312h-.453l.25-1.016c.031-.125.031-.14.031-.171 0-.204-.375-.438-.453-.438-.266 0-.531.453-.547.531L1.594-4H1c-.156 0-.469.203-.469.36 0 .109.328.312.453.312h.438L.89-1.188c-.047.172-.047.22-.047.313 0 .484.578.953.984.953.89 0 1.578-1.36 1.578-1.484zm0 0"/></svg><svg overflow="visible" x="126.004" y="52.992"><path d="M4.938-1.39c0-.11-.329-.298-.36-.298-.14 0-.36.22-.406.422-.156.641-.125.735-.36.735-.234 0-.03-.078-.03-.188 0-.047 0-.14.03-.234l.579-2.36c.015-.046.046-.14.046-.187 0-.125-.312-.422-.453-.422-.125 0-.515.266-.562.5l.36-.125c-.188-.297-.563-.531-.923-.531-.984 0-2.203 1.437-2.203 2.625 0 .812.688 1.531 1.313 1.531.5 0 1.047-.422.968-.344-.015-.109.47.344.86.344.312 0 .656-.234.797-.5.172-.328.281-.828.281-.828zm-2.047.077c-.063.297-.407.782-.891.782-.406 0-.328-.235-.328-.578 0-.391.187-1.25.39-1.625.344-.61.563-.72.797-.72.532 0 .422.517.422.595l-.031.125zm0 0"/></svg><svg overflow="visible" x="130.598" y="52.992"><path d="M5.469-1.39c0-.11-.313-.298-.36-.298-.14 0-.359.22-.39.36-.157.547-.219.797-.578.797-.157 0 .015.078.015-.078 0-.188.063-.375.125-.532.172-.453.516-1.359.516-1.843 0-.72-.703-1.094-1.156-1.094-.72 0-1.266.531-1.422.734l.36.125c-.063-.375-.563-.86-.985-.86-.282 0-.625.22-.797.516-.156.282-.344.922-.344.954 0 .109.328.312.375.312.14 0 .344-.219.39-.422.126-.5.079-.734.36-.734.234 0 .031.094.031.172 0 .11-.015.25-.046.36L.953-.47C.922-.39.922-.375.922-.344c0 .14.312.422.453.422.281 0 .531-.39.594-.703l.187-.719c.047-.187.047-.203.14-.547l.126-.546c.047-.141.25-.5.515-.735.25-.234.376-.281.672-.281.329 0 .22.031.22.36 0 .484-.36 1.437-.517 1.859-.046.14-.109.28-.109.437 0 .375.485.875.922.875.797 0 1.344-1.344 1.344-1.469zm0 0"/></svg><svg overflow="visible" x="135.644" y="52.992"><path d="M4.484-3.313c0-.046.032-.14.032-.187 0-.125-.313-.422-.454-.422-.171 0-.515.328-.562.485l.36-.126c-.094-.171-.47-.515-.907-.515C1.97-4.078.75-2.703.75-1.516.75-.672 1.469 0 2.078 0c.313 0 .766-.203 1.078-.484L2.812-.61l-.187.703c-.094.344-.078.422-.328.687-.344.36-.563.313-.719.313-.125 0-.344 0-.11.062C1.345 1.234 1.36 1 1.36 1l.063-.14c0-.172-.313-.47-.5-.47-.203 0-.625.36-.625.641 0 .438.75.672 1.266.672 1.062 0 1.859-.797 2-1.344zM3-1.375c-.078.297-.406.75-.906.75-.36 0-.313-.172-.313-.563 0-.359.219-1.25.39-1.64.267-.516.454-.625.782-.625.516 0 .406.469.406.578 0 .031 0 .047-.015.125zm0 0"/></svg><svg overflow="visible" x="139.778" y="52.992"><path d="M4.406-1.031c0-.063-.312-.375-.375-.375-.047 0-.203.078-.281.172-.453.546-.969.703-1.422.703-.578 0-.515-.39-.515-.766 0-.187.062-.547.078-.61h.328c.328 0 2.094-.202 2.094-1.25 0-.421-.563-.921-1.141-.921-.906 0-2.39.984-2.39 2.469 0 .765.655 1.687 1.53 1.687 1.22 0 2.094-.984 2.094-1.11zm-.875-2.125c0 .812-1.078.625-1.39.625h-.094c.234-.844.765-.922 1.125-.922.297 0 .36-.047.36.297zm0 0"/></svg><svg overflow="visible" x="143.912" y="52.992"><path d="M5.469-1.39c0-.11-.313-.298-.36-.298-.14 0-.359.22-.39.36-.157.547-.219.797-.578.797-.157 0 .015.078.015-.078 0-.188.063-.375.125-.532.172-.453.516-1.359.516-1.843 0-.72-.703-1.094-1.156-1.094-.72 0-1.266.531-1.422.734l.36.125c-.063-.375-.563-.86-.985-.86-.282 0-.625.22-.797.516-.156.282-.344.922-.344.954 0 .109.328.312.375.312.14 0 .344-.219.39-.422.126-.5.079-.734.36-.734.234 0 .031.094.031.172 0 .11-.015.25-.046.36L.953-.47C.922-.39.922-.375.922-.344c0 .14.312.422.453.422.281 0 .531-.39.594-.703l.187-.719c.047-.187.047-.203.14-.547l.126-.546c.047-.141.25-.5.515-.735.25-.234.376-.281.672-.281.329 0 .22.031.22.36 0 .484-.36 1.437-.517 1.859-.046.14-.109.28-.109.437 0 .375.485.875.922.875.797 0 1.344-1.344 1.344-1.469zm0 0"/></svg><svg overflow="visible" x="148.959" y="52.992"><path d="M3.406-1.406c0-.094-.328-.282-.36-.282-.124 0-.343.22-.39.329-.36.843-.547.828-.812.828-.203 0-.032 0-.032-.188 0-.047 0-.14.016-.234l.594-2.375h.61c.14 0 .437-.203.437-.36 0-.109-.297-.312-.422-.312h-.453l.25-1.016c.031-.125.031-.14.031-.171 0-.204-.375-.438-.453-.438-.266 0-.531.453-.547.531L1.594-4H1c-.156 0-.469.203-.469.36 0 .109.328.312.453.312h.438L.89-1.188c-.047.172-.047.22-.047.313 0 .484.578.953.984.953.89 0 1.578-1.36 1.578-1.484zm0 0"/></svg></g><g><svg overflow="visible" x="151.946" y="52.992"><path d="M2.984 1.828a.933.933 0 00-.093-.172C2.016 1 1.5-.562 1.5-1.906v-.703c0-1.329.516-2.891 1.39-3.547a.702.702 0 00.094-.188c0-.031-.25-.234-.28-.234a1.01 1.01 0 00-.204.062C1.578-5.828.64-4.03.64-2.609v.703c0 1.437.938 3.234 1.86 3.922.016.015.188.062.203.062.031 0 .281-.203.281-.25zm0 0"/></svg><svg overflow="visible" x="155.201" y="52.992"><path d="M3.39-3.656c0-.11-.312-.266-.453-.266h-.562l.281-1.094c0-.03.031-.078.031-.109 0-.156-.328-.422-.5-.422-.218 0-.546.297-.609.516-.047.203.063-.188-.281 1.11H.625c-.172 0-.484.155-.484.343 0 .11.312.265.468.265h.532L.687-1.484c-.046.203-.125.5-.125.609 0 .5.641.953 1.11.953.937 0 1.672-1.328 1.672-1.437 0-.11-.328-.266-.344-.266-.11 0-.313.172-.39.313-.235.53-.454.843-.907.843-.172 0-.094.047-.094-.25 0-.078.047-.265.063-.344l.562-2.25h.688c.156 0 .469-.156.469-.343zm0 0"/></svg><svg overflow="visible" x="158.817" y="52.992"><path d="M2.625-1.906v-.703c0-1.422-.953-3.22-1.875-3.907a.88.88 0 00-.188-.062c-.046 0-.296.203-.296.234 0 .032.078.172.093.188C1.234-5.5 1.75-3.938 1.75-2.61v.703C1.75-.563 1.234 1 .36 1.656a.933.933 0 00-.094.172c0 .047.25.25.296.25a.88.88 0 00.188-.062c.922-.688 1.875-2.485 1.875-3.922zm0 0"/></svg><svg overflow="visible" x="162.072" y="52.992"><path d="M1.469 1.766v-8.032c0-.093-.282-.328-.375-.328-.094 0-.375.235-.375.328v8.032c0 .093.281.328.375.328.093 0 .375-.235.375-.328zm1.14 0v-8.032c0-.093-.28-.328-.375-.328-.093 0-.375.235-.375.328v8.032c0 .093.282.328.375.328.094 0 .375-.235.375-.328zm0 0"/></svg></g><g><svg overflow="visible" x="169.92" y="48.867"><path d="M8.828-4.281c0-.125-.312-.375-.437-.375H.906c-.125 0-.437.25-.437.375 0 .14.312.375.437.375h7.485c.125 0 .437-.235.437-.375zm0 2.328c0-.14-.312-.375-.437-.375H.906c-.125 0-.437.234-.437.375 0 .125.312.36.437.36h7.485c.125 0 .437-.235.437-.36zm0 0"/></svg></g><g><svg overflow="visible" x="183.738" y="43.171"><path d="M7.219-4.688c0-.64-.86-1.343-1.938-1.343H2.234c-.171 0-.484.156-.484.343 0 .11.313.266.484.266l.141-.031s.016.031.172.047c.172.015-.016-.125-.016-.032l.344.11s-.344-.063-.375.062L1.375-.812c-.063.28.125.187-.516.187-.14 0-.468.172-.468.344C.39-.156.703 0 .859 0h3.235C5.5 0 6.797-1.125 6.797-1.953c0-.594-.766-1.266-1.64-1.36v.329c1-.188 2.062-.985 2.062-1.704zm-1.235-.015c0 .687-.562 1.297-1.671 1.297H3.171l.484-1.89c.063-.25-.14-.126.219-.126h1.266c.859 0 .843.406.843.719zm-.453 2.687c0 .829-.64 1.391-1.656 1.391H2.531c-.265 0-.062.156-.062.078l-.063.125s.063-.172.094-.297l.547-2.14H4.64c.796 0 .89.359.89.843zm0 0"/></svg></g><g><svg overflow="visible" x="190.96" y="40.133"><path d="M2.64-3.594c0-.203-.374-.562-.593-.562-.156 0-.5.281-.531.39L.219-.562h.656l1.64-2.704c.032-.062.126-.25.126-.328zm0 0"/></svg></g><g><svg overflow="visible" x="190.96" y="45.238"><path d="M4.281-2.328c0-.36-.593-.672-.906-.672-.39 0-.797.297-.75.25-.078-.14-.594-.25-.813-.25-.75 0-1.375.875-1.375 1.11 0 .077.297.25.329.25.046 0 .296-.173.328-.25.172-.579.468-.548.703-.548.187 0 .219-.093.219.22 0 .14-.11.562-.313 1.359-.094.343-.172.359-.422.359-.047 0-.078.063.032.125-.125.047.078-.36.078-.39 0-.172-.329-.422-.47-.422-.14 0-.562.296-.562.578 0 .375.61.671.907.671.328 0 .734-.234.75-.25.093.157.625.25.796.25.766 0 1.376-.89 1.376-1.109 0-.078-.297-.25-.313-.25-.11 0-.328.203-.344.266C3.36-.5 3.11-.5 2.844-.5c-.188 0-.235.11-.235-.219 0-.078 0-.11.047-.312.11-.422.266-1.094.297-1.14.031-.079.094-.267.406-.267.016 0 .079-.062-.046-.14.124-.047.265.531.265.531l-.344-.125c0 .094.282.422.47.422.171 0 .577-.328.577-.578zm0 0"/></svg></g><g><svg overflow="visible" x="196.192" y="43.171"><path d="M2.984 1.828a.933.933 0 00-.093-.172C2.016 1 1.5-.562 1.5-1.906v-.703c0-1.329.516-2.891 1.39-3.547a.702.702 0 00.094-.188c0-.031-.25-.234-.28-.234a1.01 1.01 0 00-.204.062C1.578-5.828.64-4.03.64-2.609v.703c0 1.437.938 3.234 1.86 3.922.016.015.188.062.203.062.031 0 .281-.203.281-.25zm0 0"/></svg><svg overflow="visible" x="199.447" y="43.171"><path d="M3.39-3.656c0-.11-.312-.266-.453-.266h-.562l.281-1.094c0-.03.031-.078.031-.109 0-.156-.328-.422-.5-.422-.218 0-.546.297-.609.516-.047.203.063-.188-.281 1.11H.625c-.172 0-.484.155-.484.343 0 .11.312.265.468.265h.532L.687-1.484c-.046.203-.125.5-.125.609 0 .5.641.953 1.11.953.937 0 1.672-1.328 1.672-1.437 0-.11-.328-.266-.344-.266-.11 0-.313.172-.39.313-.235.53-.454.843-.907.843-.172 0-.094.047-.094-.25 0-.078.047-.265.063-.344l.562-2.25h.688c.156 0 .469-.156.469-.343zm0 0"/></svg><svg overflow="visible" x="203.063" y="43.171"><path d="M2.625-1.906v-.703c0-1.422-.953-3.22-1.875-3.907a.88.88 0 00-.188-.062c-.046 0-.296.203-.296.234 0 .032.078.172.093.188C1.234-5.5 1.75-3.938 1.75-2.61v.703C1.75-.563 1.234 1 .36 1.656a.933.933 0 00-.094.172c0 .047.25.25.296.25a.88.88 0 00.188-.062c.922-.688 1.875-2.485 1.875-3.922zm0 0"/></svg></g><path d="M183.738 45.879h22.578" fill="none" stroke-width=".478" stroke="#000" stroke-miterlimit="10"/><g><svg overflow="visible" x="192.505" y="52.992"><path d="M5.031-5.86c0-.03-.25-.265-.343-.265-.172 0-.875.063-1.079.078-.062.016-.39.172-.39.36 0 .109.328.265.422.265.406 0 .187-.094.187-.031 0 .062-.015.11-.031.187l-.469 1.907.344-.11c-.172-.281-.594-.547-1-.547-1.078 0-2.375 1.344-2.375 2.547 0 .813.766 1.547 1.484 1.547.453 0 .985-.297 1.078-.39.063.156.75.39.97.39.296 0 .655-.219.796-.484.188-.328.36-.922.36-.953 0-.11-.313-.266-.344-.266-.11 0-.329.188-.391.422-.094.406-.047.734-.39.734-.22 0-.079-.031-.079-.25 0-.156.016-.234.047-.344L4.984-5.75c-.046.125-.03.016-.03.016zM3.203-2.89c0 .03-.015.093-.015.124L2.78-1.203c-.047.234-.172.297-.36.453-.077.063-.265.281-.624.281-.313 0-.39-.062-.39-.656 0-.438.171-1.25.359-1.578.39-.672.671-.75.906-.75.594 0 .531.469.531.562zm0 0"/></svg></g><g><svg overflow="visible" x="7.914" y="83.481"><path d="M-.844-7.484a13.34 13.34 0 00-2.312-1.594c-.922.5-1.656 1.015-2.39 1.672l.265.437a35.74 35.74 0 002.125-1.015c.515.28 1.344.671 2.11 1.015l.265-.437zm0 0"/></svg></g><g><svg overflow="visible" x="1.123" y="83.481"><path d="M6.047-4.953c0-.219-.36-.469-.531-.469-.125 0-.454.11-.641.406-.016.047-.11.407-.156.625l-.235.954-.546 2.156c-.047.187-.36.89-1.141.89-.61 0-.547-.39-.547-.843 0-.547.203-1.282.61-2.344.187-.485.234-.625.234-.86 0-.53-.578-1.109-1.172-1.109C.782-5.547.14-3.687.14-3.578c0 .125.484.219.484.219l-.14.03c.124 0 .328-.155.39-.343.313-1.125.61-1.344 1.016-1.344.093 0 .093-.14.093.25 0 .297-.125.61-.203.829-.484 1.265-.687 1.953-.687 2.515 0 1.063.953 1.547 1.656 1.547.469 0 1-.234 1.344-.563L3.75-.53c-.156.61-.234 1.11-.719 1.734-.312.406-.61.719-1.172.719-.156 0-.515.094-.656-.234-.062 0 .234-.032.406-.188.11-.094.297-.36.297-.578 0-.375-.515-.547-.64-.547-.282 0-.875.313-.875.906 0 .594.734 1.172 1.468 1.172 1.235 0 2.657-1.219 3-2.578L6-4.688c.047-.171.047-.187.047-.265zm0 0"/></svg></g><g><svg overflow="visible" x="7.304" y="83.481"><path d="M4.156 2.719c0-.047-.078-.172-.11-.203-1.234-.922-2-3.22-2-5.141v-1c0-1.906.767-4.203 2-5.14a.457.457 0 00.11-.188c0-.063-.25-.25-.312-.25a1.01 1.01 0 00-.203.062C2.312-8.156 1-5.67 1-3.625v1C1-.578 2.313 1.906 3.64 2.906c.016.016.188.063.204.063.062 0 .312-.203.312-.25zm0 0"/></svg><svg overflow="visible" x="11.955" y="83.481"><path d="M4.14-5.156c0-.125-.312-.266-.53-.266H2.78c.39-1.562.453-1.797.453-1.875 0-.203-.328-.453-.53-.453-.032 0-.579.14-.688.563l-.422 1.765H.64c-.25 0-.563.14-.563.36 0 .156.297.28.531.28h.813C.594-1.515.547-1.311.547-1.093c0 .64.656 1.219 1.312 1.219 1.22 0 2.079-1.875 2.079-1.969 0-.11-.282-.25-.329-.25-.109 0-.328.172-.375.297C2.72-.547 2.281-.39 1.875-.39c-.25 0-.172-.03-.172-.421 0-.282.016-.375.063-.579l.859-3.39h.953c.25 0 .563-.125.563-.375zm0 0"/></svg><svg overflow="visible" x="16.271" y="83.481"><path d="M3.64-2.625v-1c0-2.047-1.328-4.531-2.64-5.516a.774.774 0 00-.203-.062c-.063 0-.313.187-.313.25 0 .031.079.172.094.187 1.25.938 2.016 3.235 2.016 5.141v1c0 1.922-.766 4.219-2.016 5.14-.015.032-.094.157-.094.204 0 .047.25.25.313.25A.774.774 0 001 2.906c1.313-1 2.64-3.484 2.64-5.531zm0 0"/></svg></g><g><svg overflow="visible" x="24.245" y="83.481"><path d="M8.828-4.281c0-.125-.312-.375-.437-.375H.906c-.125 0-.437.25-.437.375 0 .14.312.375.437.375h7.485c.125 0 .437-.235.437-.375zm0 2.328c0-.14-.312-.375-.437-.375H.906c-.125 0-.437.234-.437.375 0 .125.312.36.437.36h7.485c.125 0 .437-.235.437-.36zm0 0"/></svg></g><g><svg overflow="visible" x="36.869" y="83.481"><path d="M1.453 5.219V-11.47c0-.156-.312-.406-.484-.406s-.485.25-.485.406V5.22c0 .172.313.422.485.422s.484-.25.484-.422zm2.438 0V-11.47c0-.156-.329-.406-.5-.406-.157 0-.485.25-.485.406V5.22c0 .172.328.422.485.422.171 0 .5-.25.5-.422zm0 0"/></svg></g><g><svg overflow="visible" x="41.228" y="83.481"><path d="M4.344-1.844c0-.11-.297-.234-.344-.234-.125 0-.328.156-.39.281-.141.375-.422 1.422-1.188 1.422-.188 0-.172.047-.172-.36 0-.171.047-.453.094-.624l.86-3.454h.843c.203 0 .5-.125.5-.343 0-.125-.25-.266-.453-.266h-.735l.438-1.766c-.047.094-.031-.03-.031-.03l.062-.095c0-.109-.265-.421-.5-.421-.297 0-.594.39-.64.578l-.422 1.734h-.86c-.218 0-.515.14-.515.36 0 .125.28.25.468.25h.75L1.281-1.5c-.062.25-.062.39-.062.438 0 .546.515 1.187 1.172 1.187 1.171 0 1.953-1.906 1.953-1.969zm0 0"/></svg><svg overflow="visible" x="45.113" y="83.481"><path d="M6.313-1.844c0-.11-.282-.234-.344-.234-.14 0-.344.14-.407.422-.25.984-.28 1.281-.609 1.281-.266 0-.14-.125-.14-.36 0-.171.046-.453.093-.624l.828-3.344c.032-.125-.015-.094-.015-.094l.047-.094c0-.125-.266-.421-.485-.421-.375 0-.343.703-.343.703l-.25-.204.171-.171c-.109-.282-.687-.547-1.015-.547-1.297 0-2.86 1.953-2.86 3.703 0 1.062.75 1.953 1.563 1.953.484 0 1.094-.36 1.312-.61.063.36.797.61 1.063.61.469 0 .89-.484 1.047-.828.203-.422.343-1.11.343-1.14zm-2.454.266c-.062.312-.593 1.203-1.296 1.203-.626 0-.47-.813-.47-.953 0-.594.376-2 .579-2.484.297-.735.656-1.22 1.172-1.22.719 0 .61.938.61 1.016l-.032.172zm0 0"/></svg><svg overflow="visible" x="51.091" y="83.481"><path d="M7.031-1.844c0-.11-.297-.234-.343-.234-.141 0-.344.172-.391.344-.11.406-.234 1.359-.906 1.359-.172 0-.094.047-.094-.234 0-.282.125-.657.219-.891.312-.875.718-1.984.718-2.688 0-.625-.453-1.343-1.375-1.343-.734 0-1.421.468-1.828 1l.313.093c-.031-.53-.578-1.093-1.125-1.093-.281 0-.781.25-1.14 1-.063.11.03 1.047.03 1.047l-.312-.094c0 .094.25.25.36.25.14 0 .327-.156.39-.422.187-.703.234-1.281.64-1.281.313 0 .126.218.126.36 0 .218-.047.484-.094.655L1.344-.53c-.047.172-.047.187-.047.234 0 .14.281.422.5.422.266 0 .562-.36.625-.563l.719-2.937c.078-.266.546-1.656 1.687-1.656.547 0 .36.468.36.672 0 .734-.532 2.171-.735 2.75-.11.312-.156.421-.156.671 0 .563.562 1.063 1.062 1.063 1.11 0 1.672-1.922 1.672-1.969zm0 0"/></svg><svg overflow="visible" x="57.666" y="83.481"><path d="M4.547.578l1.312-5.281c.032-.125-.03-.094-.03-.094l.062-.094c0-.125-.266-.421-.485-.421-.281 0-.625.39-.64.453h.296C5-5 4.516-5.531 3.97-5.531c-1.266 0-2.844 1.86-2.844 3.61C1.125-.829 1.906 0 2.703 0 3.328 0 4-.578 4.078-.672l-.312-.094L3.375.781c-.125.375-.39 1.172-1.36 1.172-.124 0-.53-.016-.515-.016-.063.016.219-.343.219-.515 0-.156-.282-.484-.563-.484-.234 0-.718.343-.718.718 0 .453.656.782 1.578.782 1.218 0 2.28-.907 2.53-1.86zm0-4.453L4-1.687c-.094.39-.625 1.203-1.281 1.203-.64 0-.485-.813-.485-.954 0-.578.36-1.921.547-2.375.297-.734.656-1.234 1.188-1.234.719 0 .625.906.625.984l.312.094s-.328-.015-.36.094zm0 0"/></svg><svg overflow="visible" x="63.046" y="83.481"><path d="M5.64-1.39c0-.079-.28-.313-.343-.313a.51.51 0 00-.281.156c-.625.86-1.391 1.172-2 1.172-.797 0-.72-.813-.72-1.203 0-.531.079-.86.173-1.188h.281c.422 0 2.844-.14 2.844-1.64 0-.547-.625-1.125-1.328-1.125-1.235 0-3.094 1.343-3.094 3.453C1.172-.875 1.984.125 3 .125c1.484 0 2.64-1.344 2.64-1.516zm-.827-3.032c0 1.281-1.782 1.14-2.172 1.14h-.032c.438-1.765 1.438-1.75 1.641-1.75.484 0 .563.204.563.61zm0 0"/></svg><svg overflow="visible" x="68.426" y="83.481"><path d="M7.031-1.844c0-.11-.297-.234-.343-.234-.141 0-.344.172-.391.344-.11.406-.234 1.359-.906 1.359-.172 0-.094.047-.094-.234 0-.282.125-.657.219-.891.312-.875.718-1.984.718-2.688 0-.625-.453-1.343-1.375-1.343-.734 0-1.421.468-1.828 1l.313.093c-.031-.53-.578-1.093-1.125-1.093-.281 0-.781.25-1.14 1-.063.11.03 1.047.03 1.047l-.312-.094c0 .094.25.25.36.25.14 0 .327-.156.39-.422.187-.703.234-1.281.64-1.281.313 0 .126.218.126.36 0 .218-.047.484-.094.655L1.344-.53c-.047.172-.047.187-.047.234 0 .14.281.422.5.422.266 0 .562-.36.625-.563l.719-2.937c.078-.266.546-1.656 1.687-1.656.547 0 .36.468.36.672 0 .734-.532 2.171-.735 2.75-.11.312-.156.421-.156.671 0 .563.562 1.063 1.062 1.063 1.11 0 1.672-1.922 1.672-1.969zm0 0"/></svg><svg overflow="visible" x="75.001" y="83.481"><path d="M4.344-1.844c0-.11-.297-.234-.344-.234-.125 0-.328.156-.39.281-.141.375-.422 1.422-1.188 1.422-.188 0-.172.047-.172-.36 0-.171.047-.453.094-.624l.86-3.454h.843c.203 0 .5-.125.5-.343 0-.125-.25-.266-.453-.266h-.735l.438-1.766c-.047.094-.031-.03-.031-.03l.062-.095c0-.109-.265-.421-.5-.421-.297 0-.594.39-.64.578l-.422 1.734h-.86c-.218 0-.515.14-.515.36 0 .125.28.25.468.25h.75L1.281-1.5c-.062.25-.062.39-.062.438 0 .546.515 1.187 1.172 1.187 1.171 0 1.953-1.906 1.953-1.969zm0 0"/></svg></g><g><svg overflow="visible" x="78.887" y="87.593"><path d="M4.906-3.5c0-.172-.343-.422-.5-.422-.078 0-.39.094-.484.25a3.37 3.37 0 00-.188.594l-.187.687-.328 1.36.344.11S3.046-.47 2.39-.47c-.563 0-.36-.39-.36-.531 0-.453.203-.984.453-1.625.094-.266.141-.375.141-.516 0-.406-.563-.875-1.016-.875-.843 0-1.421 1.297-1.421 1.438 0 .11.328.281.343.281.125 0 .344-.203.36-.297.218-.703.359-.86.703-.86.14 0 0-.077 0 .126s-.078.375-.125.484C1.079-1.813.984-1.5.984-1.14c0 .141.063.657.391.922.266.219.766.297.984.297.344 0 .782-.156 1.063-.406l-.36-.125c-.109.469-.14.703-.484 1.125-.234.25-.422.484-.86.484-.062 0-.312.047-.343.016.172-.031.313-.484.313-.484l.062-.11c0-.265-.453-.484-.531-.484C1 .094.516.422.516.813c0 .421.609.89 1.203.89.86 0 2.093-.812 2.343-1.86l.797-3.155c.047-.126.047-.141.047-.188zm0 0"/></svg></g><g><svg overflow="visible" x="84.306" y="83.481"><path d="M4.156 2.719c0-.047-.078-.172-.11-.203-1.234-.922-2-3.22-2-5.141v-1c0-1.906.767-4.203 2-5.14a.457.457 0 00.11-.188c0-.063-.25-.25-.312-.25a1.01 1.01 0 00-.203.062C2.312-8.156 1-5.67 1-3.625v1C1-.578 2.313 1.906 3.64 2.906c.016.016.188.063.204.063.062 0 .312-.203.312-.25zm0 0"/></svg><svg overflow="visible" x="88.957" y="83.481"><path d="M4.14-5.156c0-.125-.312-.266-.53-.266H2.78c.39-1.562.453-1.797.453-1.875 0-.203-.328-.453-.53-.453-.032 0-.579.14-.688.563l-.422 1.765H.64c-.25 0-.563.14-.563.36 0 .156.297.28.531.28h.813C.594-1.515.547-1.311.547-1.093c0 .64.656 1.219 1.312 1.219 1.22 0 2.079-1.875 2.079-1.969 0-.11-.282-.25-.329-.25-.109 0-.328.172-.375.297C2.72-.547 2.281-.39 1.875-.39c-.25 0-.172-.03-.172-.421 0-.282.016-.375.063-.579l.859-3.39h.953c.25 0 .563-.125.563-.375zm0 0"/></svg><svg overflow="visible" x="93.272" y="83.481"><path d="M3.64-2.625v-1c0-2.047-1.328-4.531-2.64-5.516a.774.774 0 00-.203-.062c-.063 0-.313.187-.313.25 0 .031.079.172.094.187 1.25.938 2.016 3.235 2.016 5.141v1c0 1.922-.766 4.219-2.016 5.14-.015.032-.094.157-.094.204 0 .047.25.25.313.25A.774.774 0 001 2.906c1.313-1 2.64-3.484 2.64-5.531zm0 0"/></svg><svg overflow="visible" x="97.923" y="83.481"><path d="M1.453 5.219V-11.47c0-.156-.312-.406-.484-.406s-.485.25-.485.406V5.22c0 .172.313.422.485.422s.484-.25.484-.422zm2.438 0V-11.47c0-.156-.329-.406-.5-.406-.157 0-.485.25-.485.406V5.22c0 .172.328.422.485.422.171 0 .5-.25.5-.422zm0 0"/></svg></g><g><svg overflow="visible" x="105.586" y="83.481"><path d="M8.828-4.281c0-.125-.312-.375-.437-.375H.906c-.125 0-.437.25-.437.375 0 .14.312.375.437.375h7.485c.125 0 .437-.235.437-.375zm0 2.328c0-.14-.312-.375-.437-.375H.906c-.125 0-.437.234-.437.375 0 .125.312.36.437.36h7.485c.125 0 .437-.235.437-.36zm0 0"/></svg></g><g><svg overflow="visible" x="120.31" y="75.79"><path d="M3.406-1.406c0-.094-.328-.282-.36-.282-.124 0-.343.22-.39.329-.36.843-.547.828-.812.828-.203 0-.032 0-.032-.188 0-.047 0-.14.016-.234l.594-2.375h.61c.14 0 .437-.203.437-.36 0-.109-.297-.312-.422-.312h-.453l.25-1.016c.031-.125.031-.14.031-.171 0-.204-.375-.438-.453-.438-.266 0-.531.453-.547.531L1.594-4H1c-.156 0-.469.203-.469.36 0 .109.328.312.453.312h.438L.89-1.188c-.047.172-.047.22-.047.313 0 .484.578.953.984.953.89 0 1.578-1.36 1.578-1.484zm0 0"/></svg><svg overflow="visible" x="123.298" y="75.79"><path d="M4.938-1.39c0-.11-.329-.298-.36-.298-.14 0-.36.22-.406.422-.156.641-.125.735-.36.735-.234 0-.03-.078-.03-.188 0-.047 0-.14.03-.234l.579-2.36c.015-.046.046-.14.046-.187 0-.125-.312-.422-.453-.422-.125 0-.515.266-.562.5l.36-.125c-.188-.297-.563-.531-.923-.531-.984 0-2.203 1.437-2.203 2.625 0 .812.688 1.531 1.313 1.531.5 0 1.047-.422.968-.344-.015-.109.47.344.86.344.312 0 .656-.234.797-.5.172-.328.281-.828.281-.828zm-2.047.077c-.063.297-.407.782-.891.782-.406 0-.328-.235-.328-.578 0-.391.187-1.25.39-1.625.344-.61.563-.72.797-.72.532 0 .422.517.422.595l-.031.125zm0 0"/></svg><svg overflow="visible" x="127.892" y="75.79"><path d="M5.469-1.39c0-.11-.313-.298-.36-.298-.14 0-.359.22-.39.36-.157.547-.219.797-.578.797-.157 0 .015.078.015-.078 0-.188.063-.375.125-.532.172-.453.516-1.359.516-1.843 0-.72-.703-1.094-1.156-1.094-.72 0-1.266.531-1.422.734l.36.125c-.063-.375-.563-.86-.985-.86-.282 0-.625.22-.797.516-.156.282-.344.922-.344.954 0 .109.328.312.375.312.14 0 .344-.219.39-.422.126-.5.079-.734.36-.734.234 0 .031.094.031.172 0 .11-.015.25-.046.36L.953-.47C.922-.39.922-.375.922-.344c0 .14.312.422.453.422.281 0 .531-.39.594-.703l.187-.719c.047-.187.047-.203.14-.547l.126-.546c.047-.141.25-.5.515-.735.25-.234.376-.281.672-.281.329 0 .22.031.22.36 0 .484-.36 1.437-.517 1.859-.046.14-.109.28-.109.437 0 .375.485.875.922.875.797 0 1.344-1.344 1.344-1.469zm0 0"/></svg><svg overflow="visible" x="132.938" y="75.79"><path d="M4.484-3.313c0-.046.032-.14.032-.187 0-.125-.313-.422-.454-.422-.171 0-.515.328-.562.485l.36-.126c-.094-.171-.47-.515-.907-.515C1.97-4.078.75-2.703.75-1.516.75-.672 1.469 0 2.078 0c.313 0 .766-.203 1.078-.484L2.812-.61l-.187.703c-.094.344-.078.422-.328.687-.344.36-.563.313-.719.313-.125 0-.344 0-.11.062C1.345 1.234 1.36 1 1.36 1l.063-.14c0-.172-.313-.47-.5-.47-.203 0-.625.36-.625.641 0 .438.75.672 1.266.672 1.062 0 1.859-.797 2-1.344zM3-1.375c-.078.297-.406.75-.906.75-.36 0-.313-.172-.313-.563 0-.359.219-1.25.39-1.64.267-.516.454-.625.782-.625.516 0 .406.469.406.578 0 .031 0 .047-.015.125zm0 0"/></svg><svg overflow="visible" x="137.072" y="75.79"><path d="M4.406-1.031c0-.063-.312-.375-.375-.375-.047 0-.203.078-.281.172-.453.546-.969.703-1.422.703-.578 0-.515-.39-.515-.766 0-.187.062-.547.078-.61h.328c.328 0 2.094-.202 2.094-1.25 0-.421-.563-.921-1.141-.921-.906 0-2.39.984-2.39 2.469 0 .765.655 1.687 1.53 1.687 1.22 0 2.094-.984 2.094-1.11zm-.875-2.125c0 .812-1.078.625-1.39.625h-.094c.234-.844.765-.922 1.125-.922.297 0 .36-.047.36.297zm0 0"/></svg><svg overflow="visible" x="141.206" y="75.79"><path d="M5.469-1.39c0-.11-.313-.298-.36-.298-.14 0-.359.22-.39.36-.157.547-.219.797-.578.797-.157 0 .015.078.015-.078 0-.188.063-.375.125-.532.172-.453.516-1.359.516-1.843 0-.72-.703-1.094-1.156-1.094-.72 0-1.266.531-1.422.734l.36.125c-.063-.375-.563-.86-.985-.86-.282 0-.625.22-.797.516-.156.282-.344.922-.344.954 0 .109.328.312.375.312.14 0 .344-.219.39-.422.126-.5.079-.734.36-.734.234 0 .031.094.031.172 0 .11-.015.25-.046.36L.953-.47C.922-.39.922-.375.922-.344c0 .14.312.422.453.422.281 0 .531-.39.594-.703l.187-.719c.047-.187.047-.203.14-.547l.126-.546c.047-.141.25-.5.515-.735.25-.234.376-.281.672-.281.329 0 .22.031.22.36 0 .484-.36 1.437-.517 1.859-.046.14-.109.28-.109.437 0 .375.485.875.922.875.797 0 1.344-1.344 1.344-1.469zm0 0"/></svg><svg overflow="visible" x="146.253" y="75.79"><path d="M3.406-1.406c0-.094-.328-.282-.36-.282-.124 0-.343.22-.39.329-.36.843-.547.828-.812.828-.203 0-.032 0-.032-.188 0-.047 0-.14.016-.234l.594-2.375h.61c.14 0 .437-.203.437-.36 0-.109-.297-.312-.422-.312h-.453l.25-1.016c.031-.125.031-.14.031-.171 0-.204-.375-.438-.453-.438-.266 0-.531.453-.547.531L1.594-4H1c-.156 0-.469.203-.469.36 0 .109.328.312.453.312h.438L.89-1.188c-.047.172-.047.22-.047.313 0 .484.578.953.984.953.89 0 1.578-1.36 1.578-1.484zm0 0"/></svg></g><g><svg overflow="visible" x="149.24" y="78.692"><path d="M4.188-2.547c0-.14-.313-.39-.422-.39-.235 0-.5.39-.532.546l-.312 1.25a1.057 1.057 0 00-.063.235c0 .031-.125.406-.64.406-.266 0-.281.047-.281-.328 0-.328.171-.766.343-1.203a.664.664 0 00.078-.266c0-.297-.484-.703-.843-.703C.875-3 .344-2.062.344-1.89c0 .077.297.25.328.25.094 0 .297-.204.328-.298.125-.406.219-.5.484-.5.11 0-.03-.124-.03.047 0 .11-.032.204-.079.313-.281.703-.344.922-.344 1.156 0 .672.766.985 1.172.985.328 0 .719-.22.875-.344l-.344-.125c-.078.328-.093.469-.375.765-.14.125-.265.313-.64.313-.11 0-.188.031-.094.125-.11.015.125-.39.125-.453 0-.172-.344-.422-.469-.422-.172 0-.578.312-.578.594 0 .296.516.718 1.016.718.687 0 1.687-.64 1.875-1.406l.562-2.234c.032-.094-.031-.016-.031-.016zm0 0"/></svg></g><g><svg overflow="visible" x="154.108" y="75.79"><path d="M2.984 1.828a.933.933 0 00-.093-.172C2.016 1 1.5-.562 1.5-1.906v-.703c0-1.329.516-2.891 1.39-3.547a.702.702 0 00.094-.188c0-.031-.25-.234-.28-.234a1.01 1.01 0 00-.204.062C1.578-5.828.64-4.03.64-2.609v.703c0 1.437.938 3.234 1.86 3.922.016.015.188.062.203.062.031 0 .281-.203.281-.25zm0 0"/></svg><svg overflow="visible" x="157.363" y="75.79"><path d="M3.39-3.656c0-.11-.312-.266-.453-.266h-.562l.281-1.094c0-.03.031-.078.031-.109 0-.156-.328-.422-.5-.422-.218 0-.546.297-.609.516-.047.203.063-.188-.281 1.11H.625c-.172 0-.484.155-.484.343 0 .11.312.265.468.265h.532L.687-1.484c-.046.203-.125.5-.125.609 0 .5.641.953 1.11.953.937 0 1.672-1.328 1.672-1.437 0-.11-.328-.266-.344-.266-.11 0-.313.172-.39.313-.235.53-.454.843-.907.843-.172 0-.094.047-.094-.25 0-.078.047-.265.063-.344l.562-2.25h.688c.156 0 .469-.156.469-.343zm0 0"/></svg><svg overflow="visible" x="160.979" y="75.79"><path d="M2.625-1.906v-.703c0-1.422-.953-3.22-1.875-3.907a.88.88 0 00-.188-.062c-.046 0-.296.203-.296.234 0 .032.078.172.093.188C1.234-5.5 1.75-3.938 1.75-2.61v.703C1.75-.563 1.234 1 .36 1.656a.933.933 0 00-.094.172c0 .047.25.25.296.25a.88.88 0 00.188-.062c.922-.688 1.875-2.485 1.875-3.922zm0 0"/></svg></g><path d="M119.414 80.492h45.719" fill="none" stroke-width=".478" stroke="#000" stroke-miterlimit="10"/><g><svg overflow="visible" x="119.413" y="87.605"><path d="M1.469 1.766v-8.032c0-.093-.282-.328-.375-.328-.094 0-.375.235-.375.328v8.032c0 .093.281.328.375.328.093 0 .375-.235.375-.328zm1.14 0v-8.032c0-.093-.28-.328-.375-.328-.093 0-.375.235-.375.328v8.032c0 .093.282.328.375.328.094 0 .375-.235.375-.328zm0 0"/></svg></g><g><svg overflow="visible" x="122.744" y="87.606"><path d="M3.406-1.406c0-.094-.328-.282-.36-.282-.124 0-.343.22-.39.329-.36.843-.547.828-.812.828-.203 0-.032 0-.032-.188 0-.047 0-.14.016-.234l.594-2.375h.61c.14 0 .437-.203.437-.36 0-.109-.297-.312-.422-.312h-.453l.25-1.016c.031-.125.031-.14.031-.171 0-.204-.375-.438-.453-.438-.266 0-.531.453-.547.531L1.594-4H1c-.156 0-.469.203-.469.36 0 .109.328.312.453.312h.438L.89-1.188c-.047.172-.047.22-.047.313 0 .484.578.953.984.953.89 0 1.578-1.36 1.578-1.484zm0 0"/></svg><svg overflow="visible" x="125.732" y="87.606"><path d="M4.938-1.39c0-.11-.329-.298-.36-.298-.14 0-.36.22-.406.422-.156.641-.125.735-.36.735-.234 0-.03-.078-.03-.188 0-.047 0-.14.03-.234l.579-2.36c.015-.046.046-.14.046-.187 0-.125-.312-.422-.453-.422-.125 0-.515.266-.562.5l.36-.125c-.188-.297-.563-.531-.923-.531-.984 0-2.203 1.437-2.203 2.625 0 .812.688 1.531 1.313 1.531.5 0 1.047-.422.968-.344-.015-.109.47.344.86.344.312 0 .656-.234.797-.5.172-.328.281-.828.281-.828zm-2.047.077c-.063.297-.407.782-.891.782-.406 0-.328-.235-.328-.578 0-.391.187-1.25.39-1.625.344-.61.563-.72.797-.72.532 0 .422.517.422.595l-.031.125zm0 0"/></svg><svg overflow="visible" x="130.326" y="87.606"><path d="M5.469-1.39c0-.11-.313-.298-.36-.298-.14 0-.359.22-.39.36-.157.547-.219.797-.578.797-.157 0 .015.078.015-.078 0-.188.063-.375.125-.532.172-.453.516-1.359.516-1.843 0-.72-.703-1.094-1.156-1.094-.72 0-1.266.531-1.422.734l.36.125c-.063-.375-.563-.86-.985-.86-.282 0-.625.22-.797.516-.156.282-.344.922-.344.954 0 .109.328.312.375.312.14 0 .344-.219.39-.422.126-.5.079-.734.36-.734.234 0 .031.094.031.172 0 .11-.015.25-.046.36L.953-.47C.922-.39.922-.375.922-.344c0 .14.312.422.453.422.281 0 .531-.39.594-.703l.187-.719c.047-.187.047-.203.14-.547l.126-.546c.047-.141.25-.5.515-.735.25-.234.376-.281.672-.281.329 0 .22.031.22.36 0 .484-.36 1.437-.517 1.859-.046.14-.109.28-.109.437 0 .375.485.875.922.875.797 0 1.344-1.344 1.344-1.469zm0 0"/></svg><svg overflow="visible" x="135.372" y="87.606"><path d="M4.484-3.313c0-.046.032-.14.032-.187 0-.125-.313-.422-.454-.422-.171 0-.515.328-.562.485l.36-.126c-.094-.171-.47-.515-.907-.515C1.97-4.078.75-2.703.75-1.516.75-.672 1.469 0 2.078 0c.313 0 .766-.203 1.078-.484L2.812-.61l-.187.703c-.094.344-.078.422-.328.687-.344.36-.563.313-.719.313-.125 0-.344 0-.11.062C1.345 1.234 1.36 1 1.36 1l.063-.14c0-.172-.313-.47-.5-.47-.203 0-.625.36-.625.641 0 .438.75.672 1.266.672 1.062 0 1.859-.797 2-1.344zM3-1.375c-.078.297-.406.75-.906.75-.36 0-.313-.172-.313-.563 0-.359.219-1.25.39-1.64.267-.516.454-.625.782-.625.516 0 .406.469.406.578 0 .031 0 .047-.015.125zm0 0"/></svg><svg overflow="visible" x="139.506" y="87.606"><path d="M4.406-1.031c0-.063-.312-.375-.375-.375-.047 0-.203.078-.281.172-.453.546-.969.703-1.422.703-.578 0-.515-.39-.515-.766 0-.187.062-.547.078-.61h.328c.328 0 2.094-.202 2.094-1.25 0-.421-.563-.921-1.141-.921-.906 0-2.39.984-2.39 2.469 0 .765.655 1.687 1.53 1.687 1.22 0 2.094-.984 2.094-1.11zm-.875-2.125c0 .812-1.078.625-1.39.625h-.094c.234-.844.765-.922 1.125-.922.297 0 .36-.047.36.297zm0 0"/></svg><svg overflow="visible" x="143.64" y="87.606"><path d="M5.469-1.39c0-.11-.313-.298-.36-.298-.14 0-.359.22-.39.36-.157.547-.219.797-.578.797-.157 0 .015.078.015-.078 0-.188.063-.375.125-.532.172-.453.516-1.359.516-1.843 0-.72-.703-1.094-1.156-1.094-.72 0-1.266.531-1.422.734l.36.125c-.063-.375-.563-.86-.985-.86-.282 0-.625.22-.797.516-.156.282-.344.922-.344.954 0 .109.328.312.375.312.14 0 .344-.219.39-.422.126-.5.079-.734.36-.734.234 0 .031.094.031.172 0 .11-.015.25-.046.36L.953-.47C.922-.39.922-.375.922-.344c0 .14.312.422.453.422.281 0 .531-.39.594-.703l.187-.719c.047-.187.047-.203.14-.547l.126-.546c.047-.141.25-.5.515-.735.25-.234.376-.281.672-.281.329 0 .22.031.22.36 0 .484-.36 1.437-.517 1.859-.046.14-.109.28-.109.437 0 .375.485.875.922.875.797 0 1.344-1.344 1.344-1.469zm0 0"/></svg><svg overflow="visible" x="148.687" y="87.606"><path d="M3.406-1.406c0-.094-.328-.282-.36-.282-.124 0-.343.22-.39.329-.36.843-.547.828-.812.828-.203 0-.032 0-.032-.188 0-.047 0-.14.016-.234l.594-2.375h.61c.14 0 .437-.203.437-.36 0-.109-.297-.312-.422-.312h-.453l.25-1.016c.031-.125.031-.14.031-.171 0-.204-.375-.438-.453-.438-.266 0-.531.453-.547.531L1.594-4H1c-.156 0-.469.203-.469.36 0 .109.328.312.453.312h.438L.89-1.188c-.047.172-.047.22-.047.313 0 .484.578.953.984.953.89 0 1.578-1.36 1.578-1.484zm0 0"/></svg></g><g><svg overflow="visible" x="151.674" y="87.606"><path d="M2.984 1.828a.933.933 0 00-.093-.172C2.016 1 1.5-.562 1.5-1.906v-.703c0-1.329.516-2.891 1.39-3.547a.702.702 0 00.094-.188c0-.031-.25-.234-.28-.234a1.01 1.01 0 00-.204.062C1.578-5.828.64-4.03.64-2.609v.703c0 1.437.938 3.234 1.86 3.922.016.015.188.062.203.062.031 0 .281-.203.281-.25zm0 0"/></svg><svg overflow="visible" x="154.929" y="87.606"><path d="M3.39-3.656c0-.11-.312-.266-.453-.266h-.562l.281-1.094c0-.03.031-.078.031-.109 0-.156-.328-.422-.5-.422-.218 0-.546.297-.609.516-.047.203.063-.188-.281 1.11H.625c-.172 0-.484.155-.484.343 0 .11.312.265.468.265h.532L.687-1.484c-.046.203-.125.5-.125.609 0 .5.641.953 1.11.953.937 0 1.672-1.328 1.672-1.437 0-.11-.328-.266-.344-.266-.11 0-.313.172-.39.313-.235.53-.454.843-.907.843-.172 0-.094.047-.094-.25 0-.078.047-.265.063-.344l.562-2.25h.688c.156 0 .469-.156.469-.343zm0 0"/></svg><svg overflow="visible" x="158.545" y="87.606"><path d="M2.625-1.906v-.703c0-1.422-.953-3.22-1.875-3.907a.88.88 0 00-.188-.062c-.046 0-.296.203-.296.234 0 .032.078.172.093.188C1.234-5.5 1.75-3.938 1.75-2.61v.703C1.75-.563 1.234 1 .36 1.656a.933.933 0 00-.094.172c0 .047.25.25.296.25a.88.88 0 00.188-.062c.922-.688 1.875-2.485 1.875-3.922zm0 0"/></svg><svg overflow="visible" x="161.8" y="87.606"><path d="M1.469 1.766v-8.032c0-.093-.282-.328-.375-.328-.094 0-.375.235-.375.328v8.032c0 .093.281.328.375.328.093 0 .375-.235.375-.328zm1.14 0v-8.032c0-.093-.28-.328-.375-.328-.093 0-.375.235-.375.328v8.032c0 .093.282.328.375.328.094 0 .375-.235.375-.328zm0 0"/></svg></g><g><svg overflow="visible" x="169.648" y="83.481"><path d="M8.828-4.281c0-.125-.312-.375-.437-.375H.906c-.125 0-.437.25-.437.375 0 .14.312.375.437.375h7.485c.125 0 .437-.235.437-.375zm0 2.328c0-.14-.312-.375-.437-.375H.906c-.125 0-.437.234-.437.375 0 .125.312.36.437.36h7.485c.125 0 .437-.235.437-.36zm0 0"/></svg></g><g><svg overflow="visible" x="183.466" y="76.625"><path d="M7.219-4.688c0-.64-.86-1.343-1.938-1.343H2.234c-.171 0-.484.156-.484.343 0 .11.313.266.484.266l.141-.031s.016.031.172.047c.172.015-.016-.125-.016-.032l.344.11s-.344-.063-.375.062L1.375-.812c-.063.28.125.187-.516.187-.14 0-.468.172-.468.344C.39-.156.703 0 .859 0h3.235C5.5 0 6.797-1.125 6.797-1.953c0-.594-.766-1.266-1.64-1.36v.329c1-.188 2.062-.985 2.062-1.704zm-1.235-.015c0 .687-.562 1.297-1.671 1.297H3.171l.484-1.89c.063-.25-.14-.126.219-.126h1.266c.859 0 .843.406.843.719zm-.453 2.687c0 .829-.64 1.391-1.656 1.391H2.531c-.265 0-.062.156-.062.078l-.063.125s.063-.172.094-.297l.547-2.14H4.64c.796 0 .89.359.89.843zm0 0"/></svg></g><g><svg overflow="visible" x="190.688" y="73.587"><path d="M2.64-3.594c0-.203-.374-.562-.593-.562-.156 0-.5.281-.531.39L.219-.562h.656l1.64-2.704c.032-.062.126-.25.126-.328zm0 0"/></svg></g><g><svg overflow="visible" x="190.688" y="78.692"><path d="M4.188-2.547c0-.14-.313-.39-.422-.39-.235 0-.5.39-.532.546l-.312 1.25a1.057 1.057 0 00-.063.235c0 .031-.125.406-.64.406-.266 0-.281.047-.281-.328 0-.328.171-.766.343-1.203a.664.664 0 00.078-.266c0-.297-.484-.703-.843-.703C.875-3 .344-2.062.344-1.89c0 .077.297.25.328.25.094 0 .297-.204.328-.298.125-.406.219-.5.484-.5.11 0-.03-.124-.03.047 0 .11-.032.204-.079.313-.281.703-.344.922-.344 1.156 0 .672.766.985 1.172.985.328 0 .719-.22.875-.344l-.344-.125c-.078.328-.093.469-.375.765-.14.125-.265.313-.64.313-.11 0-.188.031-.094.125-.11.015.125-.39.125-.453 0-.172-.344-.422-.469-.422-.172 0-.578.312-.578.594 0 .296.516.718 1.016.718.687 0 1.687-.64 1.875-1.406l.562-2.234c.032-.094-.031-.016-.031-.016zm0 0"/></svg></g><g><svg overflow="visible" x="195.555" y="76.625"><path d="M2.984 1.828a.933.933 0 00-.093-.172C2.016 1 1.5-.562 1.5-1.906v-.703c0-1.329.516-2.891 1.39-3.547a.702.702 0 00.094-.188c0-.031-.25-.234-.28-.234a1.01 1.01 0 00-.204.062C1.578-5.828.64-4.03.64-2.609v.703c0 1.437.938 3.234 1.86 3.922.016.015.188.062.203.062.031 0 .281-.203.281-.25zm0 0"/></svg><svg overflow="visible" x="198.81" y="76.625"><path d="M3.39-3.656c0-.11-.312-.266-.453-.266h-.562l.281-1.094c0-.03.031-.078.031-.109 0-.156-.328-.422-.5-.422-.218 0-.546.297-.609.516-.047.203.063-.188-.281 1.11H.625c-.172 0-.484.155-.484.343 0 .11.312.265.468.265h.532L.687-1.484c-.046.203-.125.5-.125.609 0 .5.641.953 1.11.953.937 0 1.672-1.328 1.672-1.437 0-.11-.328-.266-.344-.266-.11 0-.313.172-.39.313-.235.53-.454.843-.907.843-.172 0-.094.047-.094-.25 0-.078.047-.265.063-.344l.562-2.25h.688c.156 0 .469-.156.469-.343zm0 0"/></svg><svg overflow="visible" x="202.426" y="76.625"><path d="M2.625-1.906v-.703c0-1.422-.953-3.22-1.875-3.907a.88.88 0 00-.188-.062c-.046 0-.296.203-.296.234 0 .032.078.172.093.188C1.234-5.5 1.75-3.938 1.75-2.61v.703C1.75-.563 1.234 1 .36 1.656a.933.933 0 00-.094.172c0 .047.25.25.296.25a.88.88 0 00.188-.062c.922-.688 1.875-2.485 1.875-3.922zm0 0"/></svg></g><path d="M183.465 80.492h22.215" fill="none" stroke-width=".478" stroke="#000" stroke-miterlimit="10"/><g><svg overflow="visible" x="192.05" y="87.606"><path d="M5.031-5.86c0-.03-.25-.265-.343-.265-.172 0-.875.063-1.079.078-.062.016-.39.172-.39.36 0 .109.328.265.422.265.406 0 .187-.094.187-.031 0 .062-.015.11-.031.187l-.469 1.907.344-.11c-.172-.281-.594-.547-1-.547-1.078 0-2.375 1.344-2.375 2.547 0 .813.766 1.547 1.484 1.547.453 0 .985-.297 1.078-.39.063.156.75.39.97.39.296 0 .655-.219.796-.484.188-.328.36-.922.36-.953 0-.11-.313-.266-.344-.266-.11 0-.329.188-.391.422-.094.406-.047.734-.39.734-.22 0-.079-.031-.079-.25 0-.156.016-.234.047-.344L4.984-5.75c-.046.125-.03.016-.03.016zM3.203-2.89c0 .03-.015.093-.015.124L2.78-1.203c-.047.234-.172.297-.36.453-.077.063-.265.281-.624.281-.313 0-.39-.062-.39-.656 0-.438.171-1.25.359-1.578.39-.672.671-.75.906-.75.594 0 .531.469.531.562zm0 0"/></svg></g></svg>