<svg xmlns="http://www.w3.org/2000/svg" xmlns:xlink="http://www.w3.org/1999/xlink" width="216" height="92" viewBox="0 0 162 69"><svg overflow="visible" x=".574" y="37.736"><path d="M7.156-8.063c0-.234-.406-.359-.61-.359H.75c-.172 0-.625.125-.625.36 0 .25.453.374.625.374h1.688v7.125c0 .391.25.563.64.563h1.156c.375 0 .61-.172.61-.563v-7.125h1.703c.203 0 .61-.125.61-.375zM4.172-.734h-.86v-6.954h.657v6.954zm0 0"/></svg><svg overflow="visible" x="11.19" y="37.736"><path d="M8.828-4.281c0-.125-.312-.375-.437-.375H.906c-.125 0-.437.25-.437.375 0 .14.312.375.437.375h7.485c.125 0 .437-.235.437-.375zm0 2.328c0-.14-.312-.375-.437-.375H.906c-.125 0-.437.234-.437.375 0 .125.312.36.437.36h7.485c.125 0 .437-.235.437-.36zm0 0"/></svg><svg overflow="visible" x="23.822" y="19.056"><path d="M7.922-17.703c0-.203-.344-.485-.547-.485H3.641V0H4.75v-17.219h2.625c.203 0 .547-.281.547-.484zm0 0"/></svg><svg overflow="visible" x="23.822" y="30.192"><path d="M4.75-.125v-12.094H3.64V0h1.11zm0 0"/></svg><svg overflow="visible" x="23.822" y="40.725"><path d="M4.75-.125v-12.094H3.64V0h1.11zm0 0"/></svg><svg overflow="visible" x="23.822" y="51.257"><path d="M4.75-.125v-12.094H3.64V0h1.11zm0 0"/></svg><svg overflow="visible" x="23.822" y="68.371"><path d="M7.922-.484c0-.204-.344-.5-.547-.5H4.75v-17.203H3.64V0h3.735c.203 0 .547-.281.547-.484zm0 0"/></svg><svg overflow="visible" x="31.796" y="8.745"><path d="M5.203-.125v-.516h-.578c-1.078 0-.922 0-.922-.437v-6.703c0-.282-.187-.438-.578-.438-.766.797-1.672.766-2.266.766v.625c.438 0 1.282-.031 1.563-.172v5.922c0 .437.172.437-.906.437H.937v.672C1.547-.03 2.595-.03 3.079-.03c.469 0 1.516 0 2.125.062zm0 0"/></svg><svg overflow="visible" x="56.388" y="8.745"><path d="M5.688-3.953c0-.953-.063-1.922-.47-2.797-.562-1.156-1.734-1.469-2.234-1.469-.718 0-1.796.438-2.28 1.547-.376.828-.438 1.766-.438 2.719 0 .89.109 2.062.593 2.969.516.968 1.532 1.25 2.11 1.25.656 0 1.75-.391 2.281-1.516.375-.828.438-1.766.438-2.703zm-1.391-.14c0 .89 0 1.702-.125 2.468C4-.485 3.516-.265 2.969-.265 2.516-.266 2-.438 1.78-1.579c-.125-.719-.125-1.813-.125-2.516 0-.765 0-1.562.094-2.203.219-1.422.922-1.406 1.219-1.406.406 0 .984.094 1.219 1.266.109.671.109 1.578.109 2.343zm0 0"/></svg><svg overflow="visible" x="80.98" y="8.745"><path d="M2.484-.766c0-.343-.468-.765-.828-.765-.343 0-.828.422-.828.765 0 .344.485.766.828.766.36 0 .828-.422.828-.766zm0 0"/></svg><svg overflow="visible" x="84.303" y="8.745"><path d="M2.484-.766c0-.343-.468-.765-.828-.765-.343 0-.828.422-.828.765 0 .344.485.766.828.766.36 0 .828-.422.828-.766zm0 0"/></svg><svg overflow="visible" x="87.627" y="8.745"><path d="M2.484-.766c0-.343-.468-.765-.828-.765-.343 0-.828.422-.828.765 0 .344.485.766.828.766.36 0 .828-.422.828-.766zm0 0"/></svg><svg overflow="visible" x="109.565" y="8.745"><path d="M5.688-3.953c0-.953-.063-1.922-.47-2.797-.562-1.156-1.734-1.469-2.234-1.469-.718 0-1.796.438-2.28 1.547-.376.828-.438 1.766-.438 2.719 0 .89.109 2.062.593 2.969.516.968 1.532 1.25 2.11 1.25.656 0 1.75-.391 2.281-1.516.375-.828.438-1.766.438-2.703zm-1.391-.14c0 .89 0 1.702-.125 2.468C4-.485 3.516-.265 2.969-.265 2.516-.266 2-.438 1.78-1.579c-.125-.719-.125-1.813-.125-2.516 0-.765 0-1.562.094-2.203.219-1.422.922-1.406 1.219-1.406.406 0 .984.094 1.219 1.266.109.671.109 1.578.109 2.343zm0 0"/></svg><svg overflow="visible" x="142.812" y="8.745"><path d="M5.688-3.953c0-.953-.063-1.922-.47-2.797-.562-1.156-1.734-1.469-2.234-1.469-.718 0-1.796.438-2.28 1.547-.376.828-.438 1.766-.438 2.719 0 .89.109 2.062.593 2.969.516.968 1.532 1.25 2.11 1.25.656 0 1.75-.391 2.281-1.516.375-.828.438-1.766.438-2.703zm-1.391-.14c0 .89 0 1.702-.125 2.468C4-.485 3.516-.265 2.969-.265 2.516-.266 2-.438 1.78-1.579c-.125-.719-.125-1.813-.125-2.516 0-.765 0-1.562.094-2.203.219-1.422.922-1.406 1.219-1.406.406 0 .984.094 1.219 1.266.109.671.109 1.578.109 2.343zm0 0"/></svg><svg overflow="visible" x="31.796" y="23.19"><path d="M5.203-.125v-.516h-.578c-1.078 0-.922 0-.922-.437v-6.703c0-.282-.187-.438-.578-.438-.766.797-1.672.766-2.266.766v.625c.438 0 1.282-.031 1.563-.172v5.922c0 .437.172.437-.906.437H.937v.672C1.547-.03 2.595-.03 3.079-.03c.469 0 1.516 0 2.125.062zm0 0"/></svg><svg overflow="visible" x="53.937" y="23.19"><path d="M5.219-4.39c0-.532-.719-1.157-1.625-1.157-1.578 0-2.219 1.344-2.219 1.875 0 .938 1.094 1.25 1.438 1.313.624.125 1.03.125 1.03.78 0 .313-.062 1.188-1.5 1.188-.171 0-.89.125-1.093-.328.188.016.672-.469.672-.812 0-.282-.375-.547-.625-.547-.313 0-.875.375-.875.922 0 .672.875 1.281 1.906 1.281 1.938 0 2.594-1.578 2.594-2.11 0-.437-.281-.827-.422-.968-.328-.328-.813-.422-1.328-.531-.438-.094-.719-.047-.719-.594 0-.344.094-.938 1.14-.938.298 0 .704-.046.829.282-.078.015-.531.406-.531.671 0 .172.312.485.578.485.265 0 .75-.344.75-.813zm0 0"/></svg><svg overflow="visible" x="59.553" y="26.144"><path d="M4.234-1.844H3.75c-.047.344-.063.735-.172.813-.062.047-.562 0-.687 0H1.812c.563-.5.86-.735 1.36-1.125.625-.5 1.265-1.14 1.265-1.938 0-1-1.093-1.781-2.171-1.781-1.032 0-1.954.89-1.954 1.656 0 .422.579.625.657.625.203 0 .656-.297.656-.61 0-.14-.266-.593-.422-.593.188-.437.547-.469.938-.469.843 0 1.062.5 1.062 1.172 0 .735-.453 1.203-.719 1.5l-2.03 2C.374-.516.311-.39.311 0h3.844l.313-1.844zm0 0"/></svg><svg overflow="visible" x="100.918" y="23.19"><path d="M5.219-4.39c0-.532-.719-1.157-1.625-1.157-1.578 0-2.219 1.344-2.219 1.875 0 .938 1.094 1.25 1.438 1.313.624.125 1.03.125 1.03.78 0 .313-.062 1.188-1.5 1.188-.171 0-.89.125-1.093-.328.188.016.672-.469.672-.812 0-.282-.375-.547-.625-.547-.313 0-.875.375-.875.922 0 .672.875 1.281 1.906 1.281 1.938 0 2.594-1.578 2.594-2.11 0-.437-.281-.827-.422-.968-.328-.328-.813-.422-1.328-.531-.438-.094-.719-.047-.719-.594 0-.344.094-.938 1.14-.938.298 0 .704-.046.829.282-.078.015-.531.406-.531.671 0 .172.312.485.578.485.265 0 .75-.344.75-.813zm0 0"/></svg><svg overflow="visible" x="106.525" y="18.85"><path d="M5.719-1.36c0-.109-.313-.265-.344-.265-.11 0-.328.203-.36.297-.202.672-.343.86-.687.86-.172 0 0 .046 0-.141 0-.188.047-.297.188-.672.109-.266.453-1.14.453-1.61 0-.812-.86-1.125-1.297-1.125-.703 0-1.313.485-1.563.813l.36.11c-.063-.579-.766-.923-1.11-.923-.359 0-.703.313-.812.5-.188.313-.36.907-.36.938 0 .11.329.281.344.281.125 0 .344-.187.39-.422.141-.484.079-.734.407-.734.219 0 .078.015.078.25 0 .156-.078.469-.14.687l-.188.75L.812-.687c-.03.109-.078.312-.078.343 0 .188.36.422.485.422.156 0 .437-.14.468-.219.047-.078.188-.468.22-.64l.187-.75.14-.563c.094-.344.047-.297.282-.64.234-.329.484-.72 1.125-.72.484 0 .28.267.28.423 0 .5-.358 1.437-.5 1.781-.093.234-.124.313-.124.453 0 .438.578.875 1.015.875.829 0 1.407-1.312 1.407-1.437zm0 0"/></svg><svg overflow="visible" x="112.433" y="18.85"><path d="M6.25-2.25c0-.094-.281-.328-.375-.328H.641c-.094 0-.375.234-.375.328s.28.328.375.328h5.234c.094 0 .375-.234.375-.328zm0 0"/></svg><svg overflow="visible" x="118.944" y="18.85"><path d="M4.234-1.844H3.75c-.047.344-.063.735-.172.813-.062.047-.562 0-.687 0H1.812c.563-.5.86-.735 1.36-1.125.625-.5 1.265-1.14 1.265-1.938 0-1-1.093-1.781-2.171-1.781-1.032 0-1.954.89-1.954 1.656 0 .422.579.625.657.625.203 0 .656-.297.656-.61 0-.14-.266-.593-.422-.593.188-.437.547-.469.938-.469.843 0 1.062.5 1.062 1.172 0 .735-.453 1.203-.719 1.5l-2.03 2C.374-.516.311-.39.311 0h3.844l.313-1.844zm0 0"/></svg><svg overflow="visible" x="106.525" y="26.403"><path d="M4.234-1.844H3.75c-.047.344-.063.735-.172.813-.062.047-.562 0-.687 0H1.812c.563-.5.86-.735 1.36-1.125.625-.5 1.265-1.14 1.265-1.938 0-1-1.093-1.781-2.171-1.781-1.032 0-1.954.89-1.954 1.656 0 .422.579.625.657.625.203 0 .656-.297.656-.61 0-.14-.266-.593-.422-.593.188-.437.547-.469.938-.469.843 0 1.062.5 1.062 1.172 0 .735-.453 1.203-.719 1.5l-2.03 2C.374-.516.311-.39.311 0h3.844l.313-1.844zm0 0"/></svg><svg overflow="visible" x="134.166" y="23.19"><path d="M5.219-4.39c0-.532-.719-1.157-1.625-1.157-1.578 0-2.219 1.344-2.219 1.875 0 .938 1.094 1.25 1.438 1.313.624.125 1.03.125 1.03.78 0 .313-.062 1.188-1.5 1.188-.171 0-.89.125-1.093-.328.188.016.672-.469.672-.812 0-.282-.375-.547-.625-.547-.313 0-.875.375-.875.922 0 .672.875 1.281 1.906 1.281 1.938 0 2.594-1.578 2.594-2.11 0-.437-.281-.827-.422-.968-.328-.328-.813-.422-1.328-.531-.438-.094-.719-.047-.719-.594 0-.344.094-.938 1.14-.938.298 0 .704-.046.829.282-.078.015-.531.406-.531.671 0 .172.312.485.578.485.265 0 .75-.344.75-.813zm0 0"/></svg><svg overflow="visible" x="139.773" y="18.85"><path d="M5.719-1.36c0-.109-.313-.265-.344-.265-.11 0-.328.203-.36.297-.202.672-.343.86-.687.86-.172 0 0 .046 0-.141 0-.188.047-.297.188-.672.109-.266.453-1.14.453-1.61 0-.812-.86-1.125-1.297-1.125-.703 0-1.313.485-1.563.813l.36.11c-.063-.579-.766-.923-1.11-.923-.359 0-.703.313-.812.5-.188.313-.36.907-.36.938 0 .11.329.281.344.281.125 0 .344-.187.39-.422.141-.484.079-.734.407-.734.219 0 .078.015.078.25 0 .156-.078.469-.14.687l-.188.75L.812-.687c-.03.109-.078.312-.078.343 0 .188.36.422.485.422.156 0 .437-.14.468-.219.047-.078.188-.468.22-.64l.187-.75.14-.563c.094-.344.047-.297.282-.64.234-.329.484-.72 1.125-.72.484 0 .28.267.28.423 0 .5-.358 1.437-.5 1.781-.093.234-.124.313-.124.453 0 .438.578.875 1.015.875.829 0 1.407-1.312 1.407-1.437zm0 0"/></svg><svg overflow="visible" x="145.681" y="18.85"><path d="M6.25-2.25c0-.094-.281-.328-.375-.328H.641c-.094 0-.375.234-.375.328s.28.328.375.328h5.234c.094 0 .375-.234.375-.328zm0 0"/></svg><svg overflow="visible" x="152.192" y="18.85"><path d="M4.172-.156v-.469H3.64c-.829 0-.625.063-.625-.219v-4.64c0-.235-.235-.391-.563-.391-.578.578-1.203.531-1.75.531v.625c.406 0 1.11-.047 1.219-.11v3.985c0 .281.203.219-.625.219H.766v.64L2.469-.03l1.703.047zm0 0"/></svg><svg overflow="visible" x="139.773" y="26.403"><path d="M4.234-1.844H3.75c-.047.344-.063.735-.172.813-.062.047-.562 0-.687 0H1.812c.563-.5.86-.735 1.36-1.125.625-.5 1.265-1.14 1.265-1.938 0-1-1.093-1.781-2.171-1.781-1.032 0-1.954.89-1.954 1.656 0 .422.579.625.657.625.203 0 .656-.297.656-.61 0-.14-.266-.593-.422-.593.188-.437.547-.469.938-.469.843 0 1.062.5 1.062 1.172 0 .735-.453 1.203-.719 1.5l-2.03 2C.374-.516.311-.39.311 0h3.844l.313-1.844zm0 0"/></svg><svg overflow="visible" x="33.482" y="37.636"><path d="M2.125.219c0-.344-.469-.766-.828-.766-.344 0-.828.422-.828.766 0 .344.484.765.828.765.36 0 .828-.421.828-.765zm0-3.344c0-.344-.469-.766-.828-.766-.344 0-.828.422-.828.766 0 .36.484.766.828.766.36 0 .828-.407.828-.766zm0-3.328c0-.344-.469-.766-.828-.766-.344 0-.828.422-.828.766 0 .344.484.766.828.766.36 0 .828-.422.828-.766zm0 0"/></svg><svg overflow="visible" x="80.985" y="37.636"><path d="M2.484-.766c0-.343-.468-.765-.828-.765-.343 0-.828.422-.828.765 0 .344.485.766.828.766.36 0 .828-.422.828-.766zm0 0"/></svg><svg overflow="visible" x="84.309" y="37.636"><path d="M2.484-.766c0-.343-.468-.765-.828-.765-.343 0-.828.422-.828.765 0 .344.485.766.828.766.36 0 .828-.422.828-.766zm0 0"/></svg><svg overflow="visible" x="87.632" y="37.636"><path d="M2.484-.766c0-.343-.468-.765-.828-.765-.343 0-.828.422-.828.765 0 .344.485.766.828.766.36 0 .828-.422.828-.766zm0 0"/></svg><svg overflow="visible" x="144.506" y="37.636"><path d="M2.125.219c0-.344-.469-.766-.828-.766-.344 0-.828.422-.828.766 0 .344.484.765.828.765.36 0 .828-.421.828-.765zm0-3.344c0-.344-.469-.766-.828-.766-.344 0-.828.422-.828.766 0 .36.484.766.828.766.36 0 .828-.407.828-.766zm0-3.328c0-.344-.469-.766-.828-.766-.344 0-.828.422-.828.766 0 .344.484.766.828.766.36 0 .828-.422.828-.766zm0 0"/></svg><svg overflow="visible" x="31.796" y="52.082"><path d="M5.203-.125v-.516h-.578c-1.078 0-.922 0-.922-.437v-6.703c0-.282-.187-.438-.578-.438-.766.797-1.672.766-2.266.766v.625c.438 0 1.282-.031 1.563-.172v5.922c0 .437.172.437-.906.437H.937v.672C1.547-.03 2.595-.03 3.079-.03c.469 0 1.516 0 2.125.062zm0 0"/></svg><svg overflow="visible" x="47.732" y="52.082"><path d="M5.219-4.39c0-.532-.719-1.157-1.625-1.157-1.578 0-2.219 1.344-2.219 1.875 0 .938 1.094 1.25 1.438 1.313.624.125 1.03.125 1.03.78 0 .313-.062 1.188-1.5 1.188-.171 0-.89.125-1.093-.328.188.016.672-.469.672-.812 0-.282-.375-.547-.625-.547-.313 0-.875.375-.875.922 0 .672.875 1.281 1.906 1.281 1.938 0 2.594-1.578 2.594-2.11 0-.437-.281-.827-.422-.968-.328-.328-.813-.422-1.328-.531-.438-.094-.719-.047-.719-.594 0-.344.094-.938 1.14-.938.298 0 .704-.046.829.282-.078.015-.531.406-.531.671 0 .172.312.485.578.485.265 0 .75-.344.75-.813zm0 0"/></svg><svg overflow="visible" x="53.343" y="55.035"><path d="M5.719-1.36c0-.109-.313-.265-.344-.265-.11 0-.328.203-.36.297-.202.672-.343.86-.687.86-.172 0 0 .046 0-.141 0-.188.047-.297.188-.672.109-.266.453-1.14.453-1.61 0-.812-.86-1.125-1.297-1.125-.703 0-1.313.485-1.563.813l.36.11c-.063-.579-.766-.923-1.11-.923-.359 0-.703.313-.812.5-.188.313-.36.907-.36.938 0 .11.329.281.344.281.125 0 .344-.187.39-.422.141-.484.079-.734.407-.734.219 0 .078.015.078.25 0 .156-.078.469-.14.687l-.188.75L.812-.687c-.03.109-.078.312-.078.343 0 .188.36.422.485.422.156 0 .437-.14.468-.219.047-.078.188-.468.22-.64l.187-.75.14-.563c.094-.344.047-.297.282-.64.234-.329.484-.72 1.125-.72.484 0 .28.267.28.423 0 .5-.358 1.437-.5 1.781-.093.234-.124.313-.124.453 0 .438.578.875 1.015.875.829 0 1.407-1.312 1.407-1.437zm0 0"/></svg><svg overflow="visible" x="59.251" y="55.035"><path d="M6.25-2.25c0-.094-.281-.328-.375-.328H.641c-.094 0-.375.234-.375.328s.28.328.375.328h5.234c.094 0 .375-.234.375-.328zm0 0"/></svg><svg overflow="visible" x="65.762" y="55.035"><path d="M4.172-.156v-.469H3.64c-.829 0-.625.063-.625-.219v-4.64c0-.235-.235-.391-.563-.391-.578.578-1.203.531-1.75.531v.625c.406 0 1.11-.047 1.219-.11v3.985c0 .281.203.219-.625.219H.766v.64L2.469-.03l1.703.047zm0 0"/></svg><svg overflow="visible" x="100.918" y="52.082"><path d="M5.219-4.39c0-.532-.719-1.157-1.625-1.157-1.578 0-2.219 1.344-2.219 1.875 0 .938 1.094 1.25 1.438 1.313.624.125 1.03.125 1.03.78 0 .313-.062 1.188-1.5 1.188-.171 0-.89.125-1.093-.328.188.016.672-.469.672-.812 0-.282-.375-.547-.625-.547-.313 0-.875.375-.875.922 0 .672.875 1.281 1.906 1.281 1.938 0 2.594-1.578 2.594-2.11 0-.437-.281-.827-.422-.968-.328-.328-.813-.422-1.328-.531-.438-.094-.719-.047-.719-.594 0-.344.094-.938 1.14-.938.298 0 .704-.046.829.282-.078.015-.531.406-.531.671 0 .172.312.485.578.485.265 0 .75-.344.75-.813zm0 0"/></svg><svg overflow="visible" x="106.525" y="47.742"><path d="M5.719-1.36c0-.109-.313-.265-.344-.265-.11 0-.328.203-.36.297-.202.672-.343.86-.687.86-.172 0 0 .046 0-.141 0-.188.047-.297.188-.672.109-.266.453-1.14.453-1.61 0-.812-.86-1.125-1.297-1.125-.703 0-1.313.485-1.563.813l.36.11c-.063-.579-.766-.923-1.11-.923-.359 0-.703.313-.812.5-.188.313-.36.907-.36.938 0 .11.329.281.344.281.125 0 .344-.187.39-.422.141-.484.079-.734.407-.734.219 0 .078.015.078.25 0 .156-.078.469-.14.687l-.188.75L.812-.687c-.03.109-.078.312-.078.343 0 .188.36.422.485.422.156 0 .437-.14.468-.219.047-.078.188-.468.22-.64l.187-.75.14-.563c.094-.344.047-.297.282-.64.234-.329.484-.72 1.125-.72.484 0 .28.267.28.423 0 .5-.358 1.437-.5 1.781-.093.234-.124.313-.124.453 0 .438.578.875 1.015.875.829 0 1.407-1.312 1.407-1.437zm0 0"/></svg><svg overflow="visible" x="112.433" y="47.742"><path d="M6.25-2.25c0-.094-.281-.328-.375-.328H.641c-.094 0-.375.234-.375.328s.28.328.375.328h5.234c.094 0 .375-.234.375-.328zm0 0"/></svg><svg overflow="visible" x="118.944" y="47.742"><path d="M4.234-1.844H3.75c-.047.344-.063.735-.172.813-.062.047-.562 0-.687 0H1.812c.563-.5.86-.735 1.36-1.125.625-.5 1.265-1.14 1.265-1.938 0-1-1.093-1.781-2.171-1.781-1.032 0-1.954.89-1.954 1.656 0 .422.579.625.657.625.203 0 .656-.297.656-.61 0-.14-.266-.593-.422-.593.188-.437.547-.469.938-.469.843 0 1.062.5 1.062 1.172 0 .735-.453 1.203-.719 1.5l-2.03 2C.374-.516.311-.39.311 0h3.844l.313-1.844zm0 0"/></svg><svg overflow="visible" x="106.525" y="55.295"><path d="M5.719-1.36c0-.109-.313-.265-.344-.265-.11 0-.328.203-.36.297-.202.672-.343.86-.687.86-.172 0 0 .046 0-.141 0-.188.047-.297.188-.672.109-.266.453-1.14.453-1.61 0-.812-.86-1.125-1.297-1.125-.703 0-1.313.485-1.563.813l.36.11c-.063-.579-.766-.923-1.11-.923-.359 0-.703.313-.812.5-.188.313-.36.907-.36.938 0 .11.329.281.344.281.125 0 .344-.187.39-.422.141-.484.079-.734.407-.734.219 0 .078.015.078.25 0 .156-.078.469-.14.687l-.188.75L.812-.687c-.03.109-.078.312-.078.343 0 .188.36.422.485.422.156 0 .437-.14.468-.219.047-.078.188-.468.22-.64l.187-.75.14-.563c.094-.344.047-.297.282-.64.234-.329.484-.72 1.125-.72.484 0 .28.267.28.423 0 .5-.358 1.437-.5 1.781-.093.234-.124.313-.124.453 0 .438.578.875 1.015.875.829 0 1.407-1.312 1.407-1.437zm0 0"/></svg><svg overflow="visible" x="112.433" y="55.295"><path d="M6.25-2.25c0-.094-.281-.328-.375-.328H.641c-.094 0-.375.234-.375.328s.28.328.375.328h5.234c.094 0 .375-.234.375-.328zm0 0"/></svg><svg overflow="visible" x="118.944" y="55.295"><path d="M4.172-.156v-.469H3.64c-.829 0-.625.063-.625-.219v-4.64c0-.235-.235-.391-.563-.391-.578.578-1.203.531-1.75.531v.625c.406 0 1.11-.047 1.219-.11v3.985c0 .281.203.219-.625.219H.766v.64L2.469-.03l1.703.047zm0 0"/></svg><g><svg overflow="visible" x="134.166" y="52.082"><path d="M5.219-4.39c0-.532-.719-1.157-1.625-1.157-1.578 0-2.219 1.344-2.219 1.875 0 .938 1.094 1.25 1.438 1.313.624.125 1.03.125 1.03.78 0 .313-.062 1.188-1.5 1.188-.171 0-.89.125-1.093-.328.188.016.672-.469.672-.812 0-.282-.375-.547-.625-.547-.313 0-.875.375-.875.922 0 .672.875 1.281 1.906 1.281 1.938 0 2.594-1.578 2.594-2.11 0-.437-.281-.827-.422-.968-.328-.328-.813-.422-1.328-.531-.438-.094-.719-.047-.719-.594 0-.344.094-.938 1.14-.938.298 0 .704-.046.829.282-.078.015-.531.406-.531.671 0 .172.312.485.578.485.265 0 .75-.344.75-.813zm0 0"/></svg></g><g><svg overflow="visible" x="139.773" y="47.742"><path d="M5.719-1.36c0-.109-.313-.265-.344-.265-.11 0-.328.203-.36.297-.202.672-.343.86-.687.86-.172 0 0 .046 0-.141 0-.188.047-.297.188-.672.109-.266.453-1.14.453-1.61 0-.812-.86-1.125-1.297-1.125-.703 0-1.313.485-1.563.813l.36.11c-.063-.579-.766-.923-1.11-.923-.359 0-.703.313-.812.5-.188.313-.36.907-.36.938 0 .11.329.281.344.281.125 0 .344-.187.39-.422.141-.484.079-.734.407-.734.219 0 .078.015.078.25 0 .156-.078.469-.14.687l-.188.75L.812-.687c-.03.109-.078.312-.078.343 0 .188.36.422.485.422.156 0 .437-.14.468-.219.047-.078.188-.468.22-.64l.187-.75.14-.563c.094-.344.047-.297.282-.64.234-.329.484-.72 1.125-.72.484 0 .28.267.28.423 0 .5-.358 1.437-.5 1.781-.093.234-.124.313-.124.453 0 .438.578.875 1.015.875.829 0 1.407-1.312 1.407-1.437zm0 0"/></svg><svg overflow="visible" x="145.681" y="47.742"><path d="M6.25-2.25c0-.094-.281-.328-.375-.328H.641c-.094 0-.375.234-.375.328s.28.328.375.328h5.234c.094 0 .375-.234.375-.328zm0 0"/></svg><svg overflow="visible" x="152.192" y="47.742"><path d="M4.172-.156v-.469H3.64c-.829 0-.625.063-.625-.219v-4.64c0-.235-.235-.391-.563-.391-.578.578-1.203.531-1.75.531v.625c.406 0 1.11-.047 1.219-.11v3.985c0 .281.203.219-.625.219H.766v.64L2.469-.03l1.703.047zm0 0"/></svg></g><g><svg overflow="visible" x="139.773" y="55.295"><path d="M5.719-1.36c0-.109-.313-.265-.344-.265-.11 0-.328.203-.36.297-.202.672-.343.86-.687.86-.172 0 0 .046 0-.141 0-.188.047-.297.188-.672.109-.266.453-1.14.453-1.61 0-.812-.86-1.125-1.297-1.125-.703 0-1.313.485-1.563.813l.36.11c-.063-.579-.766-.923-1.11-.923-.359 0-.703.313-.812.5-.188.313-.36.907-.36.938 0 .11.329.281.344.281.125 0 .344-.187.39-.422.141-.484.079-.734.407-.734.219 0 .078.015.078.25 0 .156-.078.469-.14.687l-.188.75L.812-.687c-.03.109-.078.312-.078.343 0 .188.36.422.485.422.156 0 .437-.14.468-.219.047-.078.188-.468.22-.64l.187-.75.14-.563c.094-.344.047-.297.282-.64.234-.329.484-.72 1.125-.72.484 0 .28.267.28.423 0 .5-.358 1.437-.5 1.781-.093.234-.124.313-.124.453 0 .438.578.875 1.015.875.829 0 1.407-1.312 1.407-1.437zm0 0"/></svg><svg overflow="visible" x="145.681" y="55.295"><path d="M6.25-2.25c0-.094-.281-.328-.375-.328H.641c-.094 0-.375.234-.375.328s.28.328.375.328h5.234c.094 0 .375-.234.375-.328zm0 0"/></svg><svg overflow="visible" x="152.192" y="55.295"><path d="M4.172-.156v-.469H3.64c-.829 0-.625.063-.625-.219v-4.64c0-.235-.235-.391-.563-.391-.578.578-1.203.531-1.75.531v.625c.406 0 1.11-.047 1.219-.11v3.985c0 .281.203.219-.625.219H.766v.64L2.469-.03l1.703.047zm0 0"/></svg></g><g><svg overflow="visible" x="31.796" y="66.528"><path d="M5.203-.125v-.516h-.578c-1.078 0-.922 0-.922-.437v-6.703c0-.282-.187-.438-.578-.438-.766.797-1.672.766-2.266.766v.625c.438 0 1.282-.031 1.563-.172v5.922c0 .437.172.437-.906.437H.937v.672C1.547-.03 2.595-.03 3.079-.03c.469 0 1.516 0 2.125.062zm0 0"/></svg></g><g><svg overflow="visible" x="56.388" y="66.528"><path d="M5.203-.125v-.516h-.578c-1.078 0-.922 0-.922-.437v-6.703c0-.282-.187-.438-.578-.438-.766.797-1.672.766-2.266.766v.625c.438 0 1.282-.031 1.563-.172v5.922c0 .437.172.437-.906.437H.937v.672C1.547-.03 2.595-.03 3.079-.03c.469 0 1.516 0 2.125.062zm0 0"/></svg></g><g><svg overflow="visible" x="80.98" y="66.528"><path d="M2.484-.766c0-.343-.468-.765-.828-.765-.343 0-.828.422-.828.765 0 .344.485.766.828.766.36 0 .828-.422.828-.766zm0 0"/></svg><svg overflow="visible" x="84.303" y="66.528"><path d="M2.484-.766c0-.343-.468-.765-.828-.765-.343 0-.828.422-.828.765 0 .344.485.766.828.766.36 0 .828-.422.828-.766zm0 0"/></svg><svg overflow="visible" x="87.627" y="66.528"><path d="M2.484-.766c0-.343-.468-.765-.828-.765-.343 0-.828.422-.828.765 0 .344.485.766.828.766.36 0 .828-.422.828-.766zm0 0"/></svg></g><g><svg overflow="visible" x="109.565" y="66.528"><path d="M5.203-.125v-.516h-.578c-1.078 0-.922 0-.922-.437v-6.703c0-.282-.187-.438-.578-.438-.766.797-1.672.766-2.266.766v.625c.438 0 1.282-.031 1.563-.172v5.922c0 .437.172.437-.906.437H.937v.672C1.547-.03 2.595-.03 3.079-.03c.469 0 1.516 0 2.125.062zm0 0"/></svg></g><g><svg overflow="visible" x="142.812" y="66.528"><path d="M5.203-.125v-.516h-.578c-1.078 0-.922 0-.922-.437v-6.703c0-.282-.187-.438-.578-.438-.766.797-1.672.766-2.266.766v.625c.438 0 1.282-.031 1.563-.172v5.922c0 .437.172.437-.906.437H.937v.672C1.547-.03 2.595-.03 3.079-.03c.469 0 1.516 0 2.125.062zm0 0"/></svg></g><g><svg overflow="visible" x="157.452" y="19.056"><path d="M4.328-.125v-18.063H.594c-.203 0-.563.282-.563.485s.36.484.563.484h2.625V0h1.11zm0 0"/></svg></g><g><svg overflow="visible" x="157.452" y="30.192"><path d="M4.14-12.219H3.22V0h1.11v-12.219zm0 0"/></svg></g><g><svg overflow="visible" x="157.452" y="40.725"><path d="M4.14-12.219H3.22V0h1.11v-12.219zm0 0"/></svg></g><g><svg overflow="visible" x="157.452" y="51.257"><path d="M4.14-12.219H3.22V0h1.11v-12.219zm0 0"/></svg></g><g><svg overflow="visible" x="157.452" y="68.371"><path d="M4.328-.125v-18.063h-1.11V-.983H.595c-.203 0-.563.296-.563.5 0 .203.36.484.563.484h3.734zm0 0"/></svg></g></svg>