<svg xmlns="http://www.w3.org/2000/svg" xmlns:xlink="http://www.w3.org/1999/xlink" width="248" height="87px" viewBox="0 0 186 65"><svg overflow="visible" x="-.211" y="8.745"><path d="M6.813-6.844c0-.984-1.094-1.687-2.016-1.687-.594 0-1.203.031-1.797.031l-1.938-.047-.062.61.797.03c.281 0 .266-.03.266.188 0 .172-.047.547-.11.907L.922-.782C.89-.577.875-.624.25-.531L.14.048A21.28 21.28 0 011.407 0c.64 0 1.266.031 1.922.031.563 0 1.219-.156 1.781-.5.954-.562 1.516-1.469 1.516-2.375 0-.515-.203-1-.531-1.265-.313-.25-.766-.391-1.594-.516v.266c.688-.25 1.063-.438 1.453-.75.531-.485.86-1.125.86-1.735zM5.296-2.656c0 1.234-.734 1.984-1.922 1.984-.25 0-.594-.015-.984-.047-.079-.015-.22-.015-.25-.031l.562-3.313h.906c1.235 0 1.688.375 1.688 1.407zm.219-3.985c0 1.266-.75 1.891-2.235 1.891h-.453l.531-3.016c.22 0 .532-.062.844-.062.969 0 1.313.297 1.313 1.187zm0 0"/></svg><svg overflow="visible" x="7.094" y="11.518"><path d="M3.938-4.281c-.235-.14-.657-.25-1.032-.25-.437 0-1.219.343-1.781.797-.547.437-.953 1.453-.953 2.406C.172-.484.734.094 1.5.094c.531 0 1.094-.203 1.625-.61l.547-.406-.188-.437-.312.203c-.703.422-.953.531-1.281.531-.547 0-.672-.219-.672-.906 0-.938.281-1.766.734-2.11.203-.156.344-.187.64-.187.454 0 .641.031.641.25v.656h.5c.11-.703.172-1.031.266-1.312zm0 0"/></svg><svg overflow="visible" x="11.199" y="11.518"><path d="M5.125-.984l-.156-.25-.407.25c-.234.14-.359.203-.484.203-.062 0 .031.062.031-.031 0-.11.032-.235.063-.344l.812-3.188-.156-.203-.844.203-.125.547c-.156.672-.343 1.172-.609 1.578C2.672-1.406 2.016-.78 1.625-.78c-.094 0 .016.047.016-.11 0-.125.015-.218.078-.453l.547-2.39c.03-.141.046-.266.046-.391 0-.172-.218-.406-.359-.406-.203 0-.672.218-1.406.687l-.328.235.172.421.484-.28c.281-.173.281-.173.36-.173.093 0 0-.062 0 .047 0 .031 0 .11-.016.156L.609-.812a3.115 3.115 0 00-.03.421c0 .204.296.485.484.485.625 0 1.89-1.016 2.703-2.25L3.5-2.25 3.14-.984a1.84 1.84 0 00-.109.578c0 .219.266.5.453.5.25 0 .704-.25 1.72-.938zm0 0"/></svg><svg overflow="visible" x="16.737" y="11.518"><path d="M4.406-3.453c0-.344-.125-.781-.234-.922-.078-.078-.313-.156-.453-.156-.219 0-.516.078-.781.203-.5.234-.938.531-1.532 1.234L1.672-3l.844-3.563-.25-.203c-.532.25-.875.329-1.688.391l-.11.453h.657c.234 0 .172-.078.172.078 0 .063-.016.157-.016.203L.297-.766C.28-.734.28-.703.28-.672c0 .344.625.766 1.156.766.36 0 .954-.203 1.36-.469.937-.61 1.61-1.922 1.61-3.078zm-1 .203c0 .578-.156 1.234-.437 1.813-.328.609-.594.859-1.125.859-.438 0-.532-.078-.532-.453 0-.219.047-.469.125-.797.188-.703.375-1.031.766-1.406.313-.297.703-.516.985-.516.25 0 .218.078.218.5zm0 0"/></svg><svg overflow="visible" x="21.382" y="11.518"><path d="M2.516-.984l-.157-.25-.406.25c-.297.171-.375.218-.469.218-.078 0 .016.063.016-.046 0-.079.016-.157.063-.344l.75-2.688c.046-.156.062-.234.062-.328 0-.14-.234-.36-.39-.36-.22 0-.688.22-1.407.688l-.344.235.172.421.5-.28c.266-.173.266-.173.344-.173.11 0 0-.062 0 .047 0 .078-.031.266-.063.39l-.64 2.126c-.094.281-.125.5-.125.687 0 .204.266.47.437.47.266 0 .72-.235 1.735-.923zm.28-4.72c0-.202-.28-.484-.483-.484-.297 0-.735.422-.735.72 0 .218.313.5.547.5.313 0 .672-.391.672-.735zm0 0"/></svg><svg overflow="visible" x="24.283" y="11.518"><path d="M3.938-4.281c-.235-.14-.657-.25-1.032-.25-.437 0-1.219.343-1.781.797-.547.437-.953 1.453-.953 2.406C.172-.484.734.094 1.5.094c.531 0 1.094-.203 1.625-.61l.547-.406-.188-.437-.312.203c-.703.422-.953.531-1.281.531-.547 0-.672-.219-.672-.906 0-.938.281-1.766.734-2.11.203-.156.344-.187.64-.187.454 0 .641.031.641.25v.656h.5c.11-.703.172-1.031.266-1.312zm0 0"/></svg><svg overflow="visible" x="32.208" y="8.745"><path d="M8.266-4.078a1.419 1.419 0 01-.047-.36c0-.109.015-.234.062-.484h-7.5c.063.25.063.375.063.484 0 .125 0 .235-.063.5h7.5zm0 2.625a1.332 1.332 0 01-.047-.36c0-.109.015-.234.062-.484h-7.5c.063.25.063.375.063.485 0 .125 0 .25-.063.5h7.5zm0 0"/></svg><svg overflow="visible" x="75.856" y="8.745"><path d="M4.984-1.14l-.156-.485c-.25.203-.266.219-.328.266-.375.312-.453.39-.625.39-.125 0-.047.031-.047-.156 0-.047 0-.078.016-.125l1.11-4.578-.25-.203-.438.218c-.438-.156-.672-.218-.985-.218-.344 0-.578.062-.906.218-.75.375-1.234.766-1.531 1.36l-.047.094C.28-3.297-.093-1.875-.093-.922c0 .516.327 1.047.546 1.047.25 0 .797-.281 1.234-.656.516-.453.985-1.016 1.641-1.938l-.234-.094-.344 1.516a2.715 2.715 0 00-.078.61c0 .265.25.562.437.562.266 0 .86-.36 1.891-1.219zM3.672-5.079c-.266 1.281-.453 1.797-.844 2.406C2.156-1.656 1.516-.969 1.125-.969c-.14 0-.078-.015-.078-.344 0-.765.297-2.093.719-3.093.296-.688.453-.766 1.03-.766.282 0 .5.047.86.172zm0 0"/></svg><svg overflow="visible" x="56.753" y="26.179"><path d="M8.266-2.766a1.332 1.332 0 01-.047-.359c0-.11.015-.234.062-.484h-7.5c.063.25.063.375.063.484 0 .125 0 .25-.063.5h7.5zm0 0"/></svg><svg overflow="visible" x="65.839" y="26.179"><path d="M5.656-2.813c0-.562-.281-1.171-.703-1.468-.297-.219-.672-.344-.953-.407.734-.562 1.125-1.203 1.125-1.906 0-1.062-1.016-1.906-2.344-1.906-.812 0-1.453.266-2.047.86L.328-5.954h.64l.266-.797c.125-.406.75-.688 1.375-.688.766 0 1.266.5 1.266 1.25 0 .907-.563 1.532-1.406 1.532-.11 0-.469.187-.469.187l-.25-.093-.14.671.202.188C2.297-3.938 2.516-4 2.845-4c1 0 1.422.516 1.422 1.594 0 1.219-.579 1.89-1.704 1.89-.546 0-.937-.14-1.296-.468C.984-1.25.859-1.438.578-2.25l-.562.219C.28-1.234.375-.797.469-.11c.765.25 1.281.343 1.734.343.953 0 2.14-.562 2.813-1.375.406-.484.64-1.109.64-1.671zm0 0"/></svg><svg overflow="visible" x="71.817" y="26.179"><path d="M4.984-1.14l-.156-.485c-.25.203-.266.219-.328.266-.375.312-.453.39-.625.39-.125 0-.047.031-.047-.156 0-.047 0-.078.016-.125l1.11-4.578-.25-.203-.438.218c-.438-.156-.672-.218-.985-.218-.344 0-.578.062-.906.218-.75.375-1.234.766-1.531 1.36l-.047.094C.28-3.297-.093-1.875-.093-.922c0 .516.327 1.047.546 1.047.25 0 .797-.281 1.234-.656.516-.453.985-1.016 1.641-1.938l-.234-.094-.344 1.516a2.715 2.715 0 00-.078.61c0 .265.25.562.437.562.266 0 .86-.36 1.891-1.219zM3.672-5.079c-.266 1.281-.453 1.797-.844 2.406C2.156-1.656 1.516-.969 1.125-.969c-.14 0-.078-.015-.078-.344 0-.765.297-2.093.719-3.093.296-.688.453-.766 1.03-.766.282 0 .5.047.86.172zm0 0"/></svg><svg overflow="visible" x="77.125" y="26.179"><path d="M3.703-5.516c-.453.047-.86.063-1.156.063.172-.984.297-1.578.531-2.25l-.25-.328a7.16 7.16 0 01-1.094.531l-.296 2.031c-.391.203-.704.328-1.063.407l-.047.406h1l-.64 3.25C.625-1.11.53-.813.53-.5c0 .297.266.61.5.61.422 0 .922-.282 1.86-1.032.218-.172.14-.125.437-.36l-.25-.437-.672.469c-.36.25-.484.313-.625.313-.093 0-.031.046-.031-.11 0-.297.156-1.234.516-3l.14-.61h1.266l.203-.89zm0 0"/></svg><svg overflow="visible" x="83.82" y="26.179"><path d="M8.266-2.766a1.332 1.332 0 01-.047-.359c0-.11.015-.234.062-.484h-3.25v-3.266c-.25.063-.375.078-.484.078-.125 0-.25-.016-.5-.078v3.266H.78c.063.25.063.375.063.484 0 .125 0 .25-.063.5h3.266V.641c.25-.063.375-.079.5-.079.11 0 .234.016.484.079v-3.266h3.25zm0 0"/></svg><svg overflow="visible" x="95.56" y="26.179"><path d="M5.656-2.813c0-.562-.281-1.171-.703-1.468-.297-.219-.672-.344-.953-.407.734-.562 1.125-1.203 1.125-1.906 0-1.062-1.016-1.906-2.344-1.906-.812 0-1.453.266-2.047.86L.328-5.954h.64l.266-.797c.125-.406.75-.688 1.375-.688.766 0 1.266.5 1.266 1.25 0 .907-.563 1.532-1.406 1.532-.11 0-.469.187-.469.187l-.25-.093-.14.671.202.188C2.297-3.938 2.516-4 2.845-4c1 0 1.422.516 1.422 1.594 0 1.219-.579 1.89-1.704 1.89-.546 0-.937-.14-1.296-.468C.984-1.25.859-1.438.578-2.25l-.562.219C.28-1.234.375-.797.469-.11c.765.25 1.281.343 1.734.343.953 0 2.14-.562 2.813-1.375.406-.484.64-1.109.64-1.671zm0 0"/></svg><svg overflow="visible" x="101.537" y="26.179"><path d="M5.313-4.625c0-.453-.157-1.016-.297-1.203-.079-.094-.329-.203-.516-.203-.281 0-.75.14-1.078.312-.61.313-1 .672-1.75 1.625L1.906-4l1.047-4.813-.265-.234c-.75.375-1.079.438-2.047.531l-.11.5h.75c.282 0 .266-.046.266.157 0 .093-.016.218-.031.296L.312-.984C.297-.938.297-.891.297-.86c0 .468.719.984 1.375.984.437 0 1.156-.25 1.656-.625 1.156-.813 1.985-2.547 1.985-4.125zm-1.141.281c0 .766-.25 1.797-.61 2.578-.39.829-.734 1.079-1.374 1.079-.547 0-.72-.157-.72-.657 0-.297.048-.625.157-1.078.234-.953.484-1.422.953-1.922.39-.406.922-.718 1.266-.718.312 0 .328.14.328.718zm0 0"/></svg><svg overflow="visible" x="107.072" y="26.179"><path d="M3.703-5.516c-.453.047-.86.063-1.156.063.172-.984.297-1.578.531-2.25l-.25-.328a7.16 7.16 0 01-1.094.531l-.296 2.031c-.391.203-.704.328-1.063.407l-.047.406h1l-.64 3.25C.625-1.11.53-.813.53-.5c0 .297.266.61.5.61.422 0 .922-.282 1.86-1.032.218-.172.14-.125.437-.36l-.25-.437-.672.469c-.36.25-.484.313-.625.313-.093 0-.031.046-.031-.11 0-.297.156-1.234.516-3l.14-.61h1.266l.203-.89zm0 0"/></svg><svg overflow="visible" x="51.256" y="44.826"><path d="M8.266-2.766a1.332 1.332 0 01-.047-.359c0-.11.015-.234.062-.484h-3.25v-3.266c-.25.063-.375.078-.484.078-.125 0-.25-.016-.5-.078v3.266H.78c.063.25.063.375.063.484 0 .125 0 .25-.063.5h3.266V.641c.25-.063.375-.079.5-.079.11 0 .234.016.484.079v-3.266h3.25zm0 0"/></svg><svg overflow="visible" x="60.342" y="44.826"><path d="M5.656-2.813c0-.562-.281-1.171-.703-1.468-.297-.219-.672-.344-.953-.407.734-.562 1.125-1.203 1.125-1.906 0-1.062-1.016-1.906-2.344-1.906-.812 0-1.453.266-2.047.86L.328-5.954h.64l.266-.797c.125-.406.75-.688 1.375-.688.766 0 1.266.5 1.266 1.25 0 .907-.563 1.532-1.406 1.532-.11 0-.469.187-.469.187l-.25-.093-.14.671.202.188C2.297-3.938 2.516-4 2.845-4c1 0 1.422.516 1.422 1.594 0 1.219-.579 1.89-1.704 1.89-.546 0-.937-.14-1.296-.468C.984-1.25.859-1.438.578-2.25l-.562.219C.28-1.234.375-.797.469-.11c.765.25 1.281.343 1.734.343.953 0 2.14-.562 2.813-1.375.406-.484.64-1.109.64-1.671zm0 0"/></svg><svg overflow="visible" x="66.32" y="44.826"><path d="M4.984-1.14l-.156-.485c-.25.203-.266.219-.328.266-.375.312-.453.39-.625.39-.125 0-.047.031-.047-.156 0-.047 0-.078.016-.125l1.11-4.578-.25-.203-.438.218c-.438-.156-.672-.218-.985-.218-.344 0-.578.062-.906.218-.75.375-1.234.766-1.531 1.36l-.047.094C.28-3.297-.093-1.875-.093-.922c0 .516.327 1.047.546 1.047.25 0 .797-.281 1.234-.656.516-.453.985-1.016 1.641-1.938l-.234-.094-.344 1.516a2.715 2.715 0 00-.078.61c0 .265.25.562.437.562.266 0 .86-.36 1.891-1.219zM3.672-5.079c-.266 1.281-.453 1.797-.844 2.406C2.156-1.656 1.516-.969 1.125-.969c-.14 0-.078-.015-.078-.344 0-.765.297-2.093.719-3.093.296-.688.453-.766 1.03-.766.282 0 .5.047.86.172zm0 0"/></svg><svg overflow="visible" x="71.628" y="44.826"><path d="M3.703-5.516c-.453.047-.86.063-1.156.063.172-.984.297-1.578.531-2.25l-.25-.328a7.16 7.16 0 01-1.094.531l-.296 2.031c-.391.203-.704.328-1.063.407l-.047.406h1l-.64 3.25C.625-1.11.53-.813.53-.5c0 .297.266.61.5.61.422 0 .922-.282 1.86-1.032.218-.172.14-.125.437-.36l-.25-.437-.672.469c-.36.25-.484.313-.625.313-.093 0-.031.046-.031-.11 0-.297.156-1.234.516-3l.14-.61h1.266l.203-.89zm0 0"/></svg><svg overflow="visible" x="75.669" y="40.593"><path d="M4.75-.11c-.016-.187-.016-.265-.016-.39s0-.203.032-.547l-3.141.094 1.5-1.469c.938-.906 1.266-1.5 1.266-2.156 0-1.016-.891-1.781-2.125-1.781-.688 0-1.282.218-1.782.687L.297-4.266h.547l.172-.546c.156-.516.359-.594 1-.594.828 0 1.203.343 1.203 1.093 0 .657-.36 1.22-1.453 2.282L.078-.391v.422L2.391 0l2.375.031zm0 0"/></svg><svg overflow="visible" x="83.822" y="44.826"><path d="M8.266-2.766a1.332 1.332 0 01-.047-.359c0-.11.015-.234.062-.484h-7.5c.063.25.063.375.063.484 0 .125 0 .25-.063.5h7.5zm0 0"/></svg><svg overflow="visible" x="95.562" y="44.826"><path d="M5.719-2.75c0-1.375-.953-2.406-2.219-2.406-.703 0-1.25.328-1.766.75.22-1.844 1.094-2.89 3.375-3.563v-.265L4.531-8.5c-1.156.39-1.75.656-2.36 1.188C.939-6.282.235-4.72.235-3.079.234-1.11 1.344.234 2.875.234c1.563 0 2.844-1.359 2.844-2.984zm-1.297.422c0 1.234-.469 1.906-1.39 1.906-1.016 0-1.423-.734-1.423-2.344 0-.406 0-.546.141-.75.266-.406.719-.656 1.297-.656.906 0 1.375.656 1.375 1.844zm0 0"/></svg><svg overflow="visible" x="101.54" y="44.826"><path d="M5.313-4.625c0-.453-.157-1.016-.297-1.203-.079-.094-.329-.203-.516-.203-.281 0-.75.14-1.078.312-.61.313-1 .672-1.75 1.625L1.906-4l1.047-4.813-.265-.234c-.75.375-1.079.438-2.047.531l-.11.5h.75c.282 0 .266-.046.266.157 0 .093-.016.218-.031.296L.312-.984C.297-.938.297-.891.297-.86c0 .468.719.984 1.375.984.437 0 1.156-.25 1.656-.625 1.156-.813 1.985-2.547 1.985-4.125zm-1.141.281c0 .766-.25 1.797-.61 2.578-.39.829-.734 1.079-1.374 1.079-.547 0-.72-.157-.72-.657 0-.297.048-.625.157-1.078.234-.953.484-1.422.953-1.922.39-.406.922-.718 1.266-.718.312 0 .328.14.328.718zm0 0"/></svg><svg overflow="visible" x="107.075" y="44.826"><path d="M3.703-5.516c-.453.047-.86.063-1.156.063.172-.984.297-1.578.531-2.25l-.25-.328a7.16 7.16 0 01-1.094.531l-.296 2.031c-.391.203-.704.328-1.063.407l-.047.406h1l-.64 3.25C.625-1.11.53-.813.53-.5c0 .297.266.61.5.61.422 0 .922-.282 1.86-1.032.218-.172.14-.125.437-.36l-.25-.437-.672.469c-.36.25-.484.313-.625.313-.093 0-.031.046-.031-.11 0-.297.156-1.234.516-3l.14-.61h1.266l.203-.89zm0 0"/></svg><svg overflow="visible" x="111.119" y="40.593"><path d="M4.75-.11c-.016-.187-.016-.265-.016-.39s0-.203.032-.547l-3.141.094 1.5-1.469c.938-.906 1.266-1.5 1.266-2.156 0-1.016-.891-1.781-2.125-1.781-.688 0-1.282.218-1.782.687L.297-4.266h.547l.172-.546c.156-.516.359-.594 1-.594.828 0 1.203.343 1.203 1.093 0 .657-.36 1.22-1.453 2.282L.078-.391v.422L2.391 0l2.375.031zm0 0"/></svg><svg overflow="visible" x="126.578" y="44.826"><path d="M8.266-2.766a1.332 1.332 0 01-.047-.359c0-.11.015-.234.062-.484h-3.25v-3.266c-.25.063-.375.078-.484.078-.125 0-.25-.016-.5-.078v3.266H.78c.063.25.063.375.063.484 0 .125 0 .25-.063.5h3.266V.641c.25-.063.375-.079.5-.079.11 0 .234.016.484.079v-3.266h3.25zm0 0"/></svg><svg overflow="visible" x="135.664" y="44.826"><path d="M5.656-2.813c0-.562-.281-1.171-.703-1.468-.297-.219-.672-.344-.953-.407.734-.562 1.125-1.203 1.125-1.906 0-1.062-1.016-1.906-2.344-1.906-.812 0-1.453.266-2.047.86L.328-5.954h.64l.266-.797c.125-.406.75-.688 1.375-.688.766 0 1.266.5 1.266 1.25 0 .907-.563 1.532-1.406 1.532-.11 0-.469.187-.469.187l-.25-.093-.14.671.202.188C2.297-3.938 2.516-4 2.845-4c1 0 1.422.516 1.422 1.594 0 1.219-.579 1.89-1.704 1.89-.546 0-.937-.14-1.296-.468C.984-1.25.859-1.438.578-2.25l-.562.219C.28-1.234.375-.797.469-.11c.765.25 1.281.343 1.734.343.953 0 2.14-.562 2.813-1.375.406-.484.64-1.109.64-1.671zm0 0"/></svg><svg overflow="visible" x="141.642" y="44.826"><path d="M4.75-5.703c-.297-.188-.797-.328-1.25-.328-.531 0-1.484.468-2.172 1.062C.641-4.375.156-3.03.156-1.75.156-.61.796.125 1.75.125c.656 0 1.328-.266 1.984-.813l.657-.53-.204-.485-.343.219c-.86.578-1.203.75-1.625.75-.672 0-.875-.36-.875-1.297 0-1.266.36-2.406.937-2.875.25-.203.453-.266.844-.266.531 0 .813.094.813.375v.86h.546c.11-.922.188-1.36.329-1.735zm0 0"/></svg><g><svg overflow="visible" x="146.627" y="44.826"><path d="M3.703-5.516c-.453.047-.86.063-1.156.063.172-.984.297-1.578.531-2.25l-.25-.328a7.16 7.16 0 01-1.094.531l-.296 2.031c-.391.203-.704.328-1.063.407l-.047.406h1l-.64 3.25C.625-1.11.53-.813.53-.5c0 .297.266.61.5.61.422 0 .922-.282 1.86-1.032.218-.172.14-.125.437-.36l-.25-.437-.672.469c-.36.25-.484.313-.625.313-.093 0-.031.046-.031-.11 0-.297.156-1.234.516-3l.14-.61h1.266l.203-.89zm0 0"/></svg></g><g><svg overflow="visible" x="150.668" y="40.593"><path d="M4.75-.11c-.016-.187-.016-.265-.016-.39s0-.203.032-.547l-3.141.094 1.5-1.469c.938-.906 1.266-1.5 1.266-2.156 0-1.016-.891-1.781-2.125-1.781-.688 0-1.282.218-1.782.687L.297-4.266h.547l.172-.546c.156-.516.359-.594 1-.594.828 0 1.203.343 1.203 1.093 0 .657-.36 1.22-1.453 2.282L.078-.391v.422L2.391 0l2.375.031zm0 0"/></svg></g><g><svg overflow="visible" x="57.234" y="63.473"><path d="M8.266-2.766a1.332 1.332 0 01-.047-.359c0-.11.015-.234.062-.484h-7.5c.063.25.063.375.063.484 0 .125 0 .25-.063.5h7.5zm0 0"/></svg><svg overflow="visible" x="66.32" y="63.473"><path d="M4.984-1.14l-.156-.485c-.25.203-.266.219-.328.266-.375.312-.453.39-.625.39-.125 0-.047.031-.047-.156 0-.047 0-.078.016-.125l1.11-4.578-.25-.203-.438.218c-.438-.156-.672-.218-.985-.218-.344 0-.578.062-.906.218-.75.375-1.234.766-1.531 1.36l-.047.094C.28-3.297-.093-1.875-.093-.922c0 .516.327 1.047.546 1.047.25 0 .797-.281 1.234-.656.516-.453.985-1.016 1.641-1.938l-.234-.094-.344 1.516a2.715 2.715 0 00-.078.61c0 .265.25.562.437.562.266 0 .86-.36 1.891-1.219zM3.672-5.079c-.266 1.281-.453 1.797-.844 2.406C2.156-1.656 1.516-.969 1.125-.969c-.14 0-.078-.015-.078-.344 0-.765.297-2.093.719-3.093.296-.688.453-.766 1.03-.766.282 0 .5.047.86.172zm0 0"/></svg><svg overflow="visible" x="71.628" y="63.473"><path d="M3.703-5.516c-.453.047-.86.063-1.156.063.172-.984.297-1.578.531-2.25l-.25-.328a7.16 7.16 0 01-1.094.531l-.296 2.031c-.391.203-.704.328-1.063.407l-.047.406h1l-.64 3.25C.625-1.11.53-.813.53-.5c0 .297.266.61.5.61.422 0 .922-.282 1.86-1.032.218-.172.14-.125.437-.36l-.25-.437-.672.469c-.36.25-.484.313-.625.313-.093 0-.031.046-.031-.11 0-.297.156-1.234.516-3l.14-.61h1.266l.203-.89zm0 0"/></svg></g><g><svg overflow="visible" x="75.669" y="59.24"><path d="M4.703-2.11c0-.421-.25-.89-.594-1.124a2.225 2.225 0 00-.703-.282c.531-.375.86-.875.86-1.406 0-.781-.86-1.437-1.938-1.437-.64 0-1.203.203-1.687.656L.312-4.406h.594l.219-.625c.11-.297.563-.469 1.063-.469.624 0 .984.328.984.89 0 .673-.406 1.094-1.094 1.094-.078 0-.36.204-.36.204l-.265-.094-.125.515.203.157c.407-.172.594-.22.844-.22.813 0 1.11.329 1.11 1.142 0 .906-.422 1.359-1.329 1.359-.437 0-.719-.094-1.015-.344C.906-.984.828-1.094.578-1.75l-.531.188c.234.609.312.937.375 1.468C1.078.11 1.5.172 1.859.172c.782 0 1.766-.422 2.297-1.016.328-.375.547-.86.547-1.265zm0 0"/></svg></g><g><svg overflow="visible" x="83.822" y="63.473"><path d="M8.266-2.766a1.332 1.332 0 01-.047-.359c0-.11.015-.234.062-.484h-3.25v-3.266c-.25.063-.375.078-.484.078-.125 0-.25-.016-.5-.078v3.266H.78c.063.25.063.375.063.484 0 .125 0 .25-.063.5h3.266V.641c.25-.063.375-.079.5-.079.11 0 .234.016.484.079v-3.266h3.25zm0 0"/></svg></g><g><svg overflow="visible" x="95.562" y="63.473"><path d="M5.656-2.813c0-.562-.281-1.171-.703-1.468-.297-.219-.672-.344-.953-.407.734-.562 1.125-1.203 1.125-1.906 0-1.062-1.016-1.906-2.344-1.906-.812 0-1.453.266-2.047.86L.328-5.954h.64l.266-.797c.125-.406.75-.688 1.375-.688.766 0 1.266.5 1.266 1.25 0 .907-.563 1.532-1.406 1.532-.11 0-.469.187-.469.187l-.25-.093-.14.671.202.188C2.297-3.938 2.516-4 2.845-4c1 0 1.422.516 1.422 1.594 0 1.219-.579 1.89-1.704 1.89-.546 0-.937-.14-1.296-.468C.984-1.25.859-1.438.578-2.25l-.562.219C.28-1.234.375-.797.469-.11c.765.25 1.281.343 1.734.343.953 0 2.14-.562 2.813-1.375.406-.484.64-1.109.64-1.671zm0 0"/></svg><svg overflow="visible" x="101.54" y="63.473"><path d="M5.313-4.625c0-.453-.157-1.016-.297-1.203-.079-.094-.329-.203-.516-.203-.281 0-.75.14-1.078.312-.61.313-1 .672-1.75 1.625L1.906-4l1.047-4.813-.265-.234c-.75.375-1.079.438-2.047.531l-.11.5h.75c.282 0 .266-.046.266.157 0 .093-.016.218-.031.296L.312-.984C.297-.938.297-.891.297-.86c0 .468.719.984 1.375.984.437 0 1.156-.25 1.656-.625 1.156-.813 1.985-2.547 1.985-4.125zm-1.141.281c0 .766-.25 1.797-.61 2.578-.39.829-.734 1.079-1.374 1.079-.547 0-.72-.157-.72-.657 0-.297.048-.625.157-1.078.234-.953.484-1.422.953-1.922.39-.406.922-.718 1.266-.718.312 0 .328.14.328.718zm0 0"/></svg><svg overflow="visible" x="107.075" y="63.473"><path d="M3.703-5.516c-.453.047-.86.063-1.156.063.172-.984.297-1.578.531-2.25l-.25-.328a7.16 7.16 0 01-1.094.531l-.296 2.031c-.391.203-.704.328-1.063.407l-.047.406h1l-.64 3.25C.625-1.11.53-.813.53-.5c0 .297.266.61.5.61.422 0 .922-.282 1.86-1.032.218-.172.14-.125.437-.36l-.25-.437-.672.469c-.36.25-.484.313-.625.313-.093 0-.031.046-.031-.11 0-.297.156-1.234.516-3l.14-.61h1.266l.203-.89zm0 0"/></svg></g><g><svg overflow="visible" x="111.119" y="59.24"><path d="M4.703-2.11c0-.421-.25-.89-.594-1.124a2.225 2.225 0 00-.703-.282c.531-.375.86-.875.86-1.406 0-.781-.86-1.437-1.938-1.437-.64 0-1.203.203-1.687.656L.312-4.406h.594l.219-.625c.11-.297.563-.469 1.063-.469.624 0 .984.328.984.89 0 .673-.406 1.094-1.094 1.094-.078 0-.36.204-.36.204l-.265-.094-.125.515.203.157c.407-.172.594-.22.844-.22.813 0 1.11.329 1.11 1.142 0 .906-.422 1.359-1.329 1.359-.437 0-.719-.094-1.015-.344C.906-.984.828-1.094.578-1.75l-.531.188c.234.609.312.937.375 1.468C1.078.11 1.5.172 1.859.172c.782 0 1.766-.422 2.297-1.016.328-.375.547-.86.547-1.265zm0 0"/></svg></g><g><svg overflow="visible" x="126.578" y="63.473"><path d="M8.266-2.766a1.332 1.332 0 01-.047-.359c0-.11.015-.234.062-.484h-7.5c.063.25.063.375.063.484 0 .125 0 .25-.063.5h7.5zm0 0"/></svg><svg overflow="visible" x="135.664" y="63.473"><path d="M5.656-2.813c0-.562-.281-1.171-.703-1.468-.297-.219-.672-.344-.953-.407.734-.562 1.125-1.203 1.125-1.906 0-1.062-1.016-1.906-2.344-1.906-.812 0-1.453.266-2.047.86L.328-5.954h.64l.266-.797c.125-.406.75-.688 1.375-.688.766 0 1.266.5 1.266 1.25 0 .907-.563 1.532-1.406 1.532-.11 0-.469.187-.469.187l-.25-.093-.14.671.202.188C2.297-3.938 2.516-4 2.845-4c1 0 1.422.516 1.422 1.594 0 1.219-.579 1.89-1.704 1.89-.546 0-.937-.14-1.296-.468C.984-1.25.859-1.438.578-2.25l-.562.219C.28-1.234.375-.797.469-.11c.765.25 1.281.343 1.734.343.953 0 2.14-.562 2.813-1.375.406-.484.64-1.109.64-1.671zm0 0"/></svg><svg overflow="visible" x="141.642" y="63.473"><path d="M4.75-5.703c-.297-.188-.797-.328-1.25-.328-.531 0-1.484.468-2.172 1.062C.641-4.375.156-3.03.156-1.75.156-.61.796.125 1.75.125c.656 0 1.328-.266 1.984-.813l.657-.53-.204-.485-.343.219c-.86.578-1.203.75-1.625.75-.672 0-.875-.36-.875-1.297 0-1.266.36-2.406.937-2.875.25-.203.453-.266.844-.266.531 0 .813.094.813.375v.86h.546c.11-.922.188-1.36.329-1.735zm0 0"/></svg></g><g><svg overflow="visible" x="146.615" y="63.473"><path d="M3.703-5.516c-.453.047-.86.063-1.156.063.172-.984.297-1.578.531-2.25l-.25-.328a7.16 7.16 0 01-1.094.531l-.296 2.031c-.391.203-.704.328-1.063.407l-.047.406h1l-.64 3.25C.625-1.11.53-.813.53-.5c0 .297.266.61.5.61.422 0 .922-.282 1.86-1.032.218-.172.14-.125.437-.36l-.25-.437-.672.469c-.36.25-.484.313-.625.313-.093 0-.031.046-.031-.11 0-.297.156-1.234.516-3l.14-.61h1.266l.203-.89zm0 0"/></svg></g><g><svg overflow="visible" x="150.668" y="59.24"><path d="M4.703-2.11c0-.421-.25-.89-.594-1.124a2.225 2.225 0 00-.703-.282c.531-.375.86-.875.86-1.406 0-.781-.86-1.437-1.938-1.437-.64 0-1.203.203-1.687.656L.312-4.406h.594l.219-.625c.11-.297.563-.469 1.063-.469.624 0 .984.328.984.89 0 .673-.406 1.094-1.094 1.094-.078 0-.36.204-.36.204l-.265-.094-.125.515.203.157c.407-.172.594-.22.844-.22.813 0 1.11.329 1.11 1.142 0 .906-.422 1.359-1.329 1.359-.437 0-.719-.094-1.015-.344C.906-.984.828-1.094.578-1.75l-.531.188c.234.609.312.937.375 1.468C1.078.11 1.5.172 1.859.172c.782 0 1.766-.422 2.297-1.016.328-.375.547-.86.547-1.265zm0 0"/></svg></g><g><svg overflow="visible" x="158.821" y="63.473"><path d="M8.266-2.766a1.332 1.332 0 01-.047-.359c0-.11.015-.234.062-.484h-3.25v-3.266c-.25.063-.375.078-.484.078-.125 0-.25-.016-.5-.078v3.266H.78c.063.25.063.375.063.484 0 .125 0 .25-.063.5h3.266V.641c.25-.063.375-.079.5-.079.11 0 .234.016.484.079v-3.266h3.25zm0 0"/></svg></g><g><svg overflow="visible" x="170.561" y="63.473"><path d="M5.875-8.86l-.219-.187c-.75.375-1.078.438-2.062.531l-.094.5h.75c.281 0 .25-.046.25.157 0 .109 0 .203-.016.296L4.188-5.89a3.109 3.109 0 00-.875-.14c-.829 0-2.063.906-2.61 1.937-.375.703-.64 1.938-.64 2.938C.063-.375.374.125.734.125c.313 0 .86-.234 1.266-.563.64-.515 1.031-.984 1.844-2.187l-.25-.094-.266 1.078c-.14.532-.203.907-.203 1.22 0 .25.25.546.453.546.219 0 .594-.203 1-.5l1.047-.766-.266-.468-.656.468c-.172.125-.25.172-.36.172-.093 0-.046.031-.046-.14 0-.094.031-.204.11-.547l1.515-7.157zM4.031-5.03l-.14.703A5.233 5.233 0 012.375-1.61c-.422.39-.781.64-1.016.64-.187 0-.171-.031-.171-.328 0-1.516.515-3.281 1.109-3.734.156-.125.281-.14.61-.14.53 0 .765.03 1.109.218zm0 0"/></svg></g><g><svg overflow="visible" x="176.67" y="63.473"><path d="M3.703-5.516c-.453.047-.86.063-1.156.063.172-.984.297-1.578.531-2.25l-.25-.328a7.16 7.16 0 01-1.094.531l-.296 2.031c-.391.203-.704.328-1.063.407l-.047.406h1l-.64 3.25C.625-1.11.53-.813.53-.5c0 .297.266.61.5.61.422 0 .922-.282 1.86-1.032.218-.172.14-.125.437-.36l-.25-.437-.672.469c-.36.25-.484.313-.625.313-.093 0-.031.046-.031-.11 0-.297.156-1.234.516-3l.14-.61h1.266l.203-.89zm0 0"/></svg></g><g><svg overflow="visible" x="180.714" y="59.24"><path d="M4.703-2.11c0-.421-.25-.89-.594-1.124a2.225 2.225 0 00-.703-.282c.531-.375.86-.875.86-1.406 0-.781-.86-1.437-1.938-1.437-.64 0-1.203.203-1.687.656L.312-4.406h.594l.219-.625c.11-.297.563-.469 1.063-.469.624 0 .984.328.984.89 0 .673-.406 1.094-1.094 1.094-.078 0-.36.204-.36.204l-.265-.094-.125.515.203.157c.407-.172.594-.22.844-.22.813 0 1.11.329 1.11 1.142 0 .906-.422 1.359-1.329 1.359-.437 0-.719-.094-1.015-.344C.906-.984.828-1.094.578-1.75l-.531.188c.234.609.312.937.375 1.468C1.078.11 1.5.172 1.859.172c.782 0 1.766-.422 2.297-1.016.328-.375.547-.86.547-1.265zm0 0"/></svg></g></svg>