<svg xmlns="http://www.w3.org/2000/svg" xmlns:xlink="http://www.w3.org/1999/xlink" width="204" height="41px" viewBox="0 0 153 31"><svg overflow="visible" x=".232" y="17.59"><path d="M9.313-7.938c.03-.328-.22-.453-.516-.453H2.766c-.25 0-.563.125-.563.375 0 .125.313.266.531.266.438 0 .579-.14.579.078 0 .047 0 .063-.063.281L1.672-1.062c-.125.468.062.421-.89.421C.577-.64.25-.5.25-.28.25-.125.563 0 .781 0H7c.266 0 .469-.14.547-.328l1.11-2.594c.015-.047 0-.062 0-.062s-.141-.36-.282-.36c-.11 0-.328.203-.36.266C7.25-1.297 7-.641 4.954-.641h-2c-.125-.015.031.11.031 0 0-.03 0-.046.063-.265l.781-3.14H4.86c1.016 0 .813.124.813.421 0 .094 0 .234-.094.594-.016.062-.031.094-.031.125 0 .062.25.265.36.265.093 0 .327-.187.374-.375l.672-2.796c0-.063-.25-.266-.328-.266-.11 0-.344.203-.375.36-.25.905-.266 1.046-1.36 1.046H4l.672-2.75c.11-.422-.063-.328.453-.328h1.688c1.453 0 1.609.203 1.609 1.188 0 .28 0 .312-.047.64 0 .063-.016.156-.016.203 0 .063.25.282.36.282.125 0 .328-.204.36-.438zm0 0"/></svg><svg overflow="visible" x="9.689" y="17.59"><path d="M4.156 2.719c0-.047-.078-.172-.11-.203-1.234-.922-2-3.22-2-5.141v-1c0-1.906.767-4.203 2-5.14a.457.457 0 00.11-.188c0-.063-.25-.25-.312-.25a1.01 1.01 0 00-.203.062C2.312-8.156 1-5.67 1-3.625v1C1-.578 2.313 1.906 3.64 2.906c.016.016.188.063.204.063.062 0 .312-.203.312-.25zm0 0"/></svg><svg overflow="visible" x="14.339" y="17.59"><path d="M9.281-8.438c0-.03-.219-.25-.328-.25a.701.701 0 00-.328.172l-.672.75c0 .016-.672-.921-2-.921-2.672 0-5.562 2.765-5.562 5.546C.39-1.17 2.016.266 3.844.266c1.031 0 2.078-.516 2.703-1.063C7.657-1.78 7.922-2.969 7.922-3c0-.125-.203-.031-.203-.031l-.125-.219c-.078 0-.344.156-.36.25-.109.344-.328 1.094-1.156 1.797-.812.672-1.422.828-2.047.828-1.078 0-2.156-.484-2.156-2.344 0-.687.188-2.531 1.39-3.922C4-7.5 4.986-8.062 6.048-8.062c1.219 0 1.719.796 1.719 2.187 0 .469-.032.484-.032.61 0 .109.329.25.375.25.157 0 .36-.157.407-.376zm0 0"/></svg><svg overflow="visible" x="23.76" y="17.59"><path d="M3.64-2.625v-1c0-2.047-1.328-4.531-2.64-5.516a.774.774 0 00-.203-.062c-.063 0-.313.187-.313.25 0 .031.079.172.094.187 1.25.938 2.016 3.235 2.016 5.141v1c0 1.922-.766 4.219-2.016 5.14-.015.032-.094.157-.094.204 0 .047.25.25.313.25A.774.774 0 001 2.906c1.313-1 2.64-3.484 2.64-5.531zm0 0"/></svg><svg overflow="visible" x="31.734" y="17.59"><path d="M8.828-4.281c0-.125-.312-.375-.437-.375H.906c-.125 0-.437.25-.437.375 0 .14.312.375.437.375h7.485c.125 0 .437-.235.437-.375zm0 2.328c0-.14-.312-.375-.437-.375H.906c-.125 0-.437.234-.437.375 0 .125.312.36.437.36h7.485c.125 0 .437-.235.437-.36zm0 0"/></svg><svg overflow="visible" x="50.043" y="3.758"><path d="M5.719-1.36c0-.109-.313-.265-.344-.265-.11 0-.328.203-.36.297-.202.672-.343.86-.687.86-.172 0 0 .046 0-.141 0-.188.047-.297.188-.672.109-.266.453-1.14.453-1.61 0-.812-.86-1.125-1.297-1.125-.703 0-1.313.485-1.563.813l.36.11c-.063-.579-.766-.923-1.11-.923-.359 0-.703.313-.812.5-.188.313-.36.907-.36.938 0 .11.329.281.344.281.125 0 .344-.187.39-.422.141-.484.079-.734.407-.734.219 0 .078.015.078.25 0 .156-.078.469-.14.687l-.188.75L.812-.687c-.03.109-.078.312-.078.343 0 .188.36.422.485.422.156 0 .437-.14.468-.219.047-.078.188-.468.22-.64l.187-.75.14-.563c.094-.344.047-.297.282-.64.234-.329.484-.72 1.125-.72.484 0 .28.267.28.423 0 .5-.358 1.437-.5 1.781-.093.234-.124.313-.124.453 0 .438.578.875 1.015.875.829 0 1.407-1.312 1.407-1.437zm0 0"/></svg><svg overflow="visible" x="44.366" y="17.589"><path d="M16.578 1.297h-.453c-.516 1.375-1.578 2.047-2.953 2.406-.25.063-1.422.375-3.719.375H2.578l5.89-6.906c.079-.094.157-.235.157-.297l-.047.094s0-.25-.094-.36l-5.406-7.39h6.25c1.61 0 2.703.172 2.797.187.656.094 1.547.266 2.5.86.297.203 1.047.64 1.516 1.734h.687l-1.562-3.625H1c-.266 0-.422.047-.547.297.016-.047.016.187.016.328L6.78-2.36.656 4.813c-.125.141.156.407.156.407l-.328-.11c0 .141.297.266.516.266h14.281l1.531-4.078zm0 0"/></svg><svg overflow="visible" x="45.671" y="30.522"><path d="M2.922-5.39c0-.141-.313-.485-.547-.485-.219 0-.672.375-.672.625 0 .14.313.469.547.469.234 0 .672-.39.672-.61zm.219 4.03c0-.109-.313-.265-.344-.265-.11 0-.328.203-.375.297-.188.672-.344.86-.672.86-.172 0 0 .046 0-.141 0-.188.063-.344.14-.532l.266-.671.406-1.063a.794.794 0 00.047-.266c0-.39-.546-.875-1-.875-.828 0-1.421 1.297-1.421 1.438 0 .11.328.281.343.281.125 0 .344-.203.36-.297.218-.719.375-.86.687-.86.14 0 0-.093 0 .126 0 .203-.047.328-.25.844L.797-1.141c-.031.11-.078.22-.078.36 0 .39.547.86 1 .86.843 0 1.422-1.313 1.422-1.438zm0 0"/></svg><svg overflow="visible" x="49.052" y="30.522"><path d="M6.25-3.063c0-.093-.281-.328-.375-.328H.641c-.094 0-.375.235-.375.329 0 .093.28.328.375.328h5.234c.094 0 .375-.235.375-.329zm0 1.626c0-.094-.281-.329-.375-.329H.641c-.094 0-.375.235-.375.329 0 .093.28.328.375.328h5.234c.094 0 .375-.235.375-.329zm0 0"/></svg><svg overflow="visible" x="55.563" y="30.522"><path d="M4.172-.156v-.469H3.64c-.829 0-.625.063-.625-.219v-4.64c0-.235-.235-.391-.563-.391-.578.578-1.203.531-1.75.531v.625c.406 0 1.11-.047 1.219-.11v3.985c0 .281.203.219-.625.219H.766v.64L2.469-.03l1.703.047zm0 0"/></svg><svg overflow="visible" x="63.622" y="17.589"><path d="M4.156 2.719c0-.047-.078-.172-.11-.203-1.234-.922-2-3.22-2-5.141v-1c0-1.906.767-4.203 2-5.14a.457.457 0 00.11-.188c0-.063-.25-.25-.312-.25a1.01 1.01 0 00-.203.062C2.312-8.156 1-5.67 1-3.625v1C1-.578 2.313 1.906 3.64 2.906c.016.016.188.063.204.063.062 0 .312-.203.312-.25zm0 0"/></svg><svg overflow="visible" x="68.273" y="17.589"><path d="M6.047-3.5c0-1.125-.875-2.047-1.781-2.047-.594 0-1.313.469-1.438.625-.062-.234-.765-.625-1.203-.625-.547 0-.922.5-1.031.719-.219.406-.422 1.219-.422 1.25 0 .125.469.219.469.219l-.125.03c.125 0 .328-.14.39-.405.203-.844.25-1.282.688-1.282.203 0 .156-.046.156.407 0 .28-.031.406-.078.609L.328 1.328c-.094.406.094.36-.437.36-.141 0-.47.125-.47.359 0 .094.25.265.345.265.328 0 .671-.03 1.015-.03.39 0 .797.03 1.172.03.063 0 .406-.124.406-.359 0-.14-.296-.266-.468-.266-.594 0-.407.047-.407-.062 0-.14.5-2.094.579-2.39h-.391c.156.343.687.89 1.297.89 1.39 0 3.078-1.875 3.078-3.625zm-1.25-.531c0 .703-.39 2.078-.61 2.531-.406.844-.78 1.11-1.218 1.11-.797 0-.75-.86-.75-.938l-.063.094s.063-.141.094-.282l.578-2.343c.094-.329.344-.563.563-.75.421-.36.64-.407.843-.407.47 0 .563.282.563.985zm0 0"/></svg><svg overflow="visible" x="74.286" y="20.543"><path d="M2.922-5.39c0-.141-.313-.485-.547-.485-.219 0-.672.375-.672.625 0 .14.313.469.547.469.234 0 .672-.39.672-.61zm.219 4.03c0-.109-.313-.265-.344-.265-.11 0-.328.203-.375.297-.188.672-.344.86-.672.86-.172 0 0 .046 0-.141 0-.188.063-.344.14-.532l.266-.671.406-1.063a.794.794 0 00.047-.266c0-.39-.546-.875-1-.875-.828 0-1.421 1.297-1.421 1.438 0 .11.328.281.343.281.125 0 .344-.203.36-.297.218-.719.375-.86.687-.86.14 0 0-.093 0 .126 0 .203-.047.328-.25.844L.797-1.141c-.031.11-.078.22-.078.36 0 .39.547.86 1 .86.843 0 1.422-1.313 1.422-1.438zm0 0"/></svg><svg overflow="visible" x="80.822" y="17.59"><path d="M8.828-3.125c0-.125-.312-.36-.437-.36H.906c-.125 0-.437.235-.437.36 0 .14.312.375.437.375h7.485c.125 0 .437-.234.437-.375zm0 0"/></svg><svg overflow="visible" x="92.78" y="17.59"><path d="M8.094-2.766c0-.921-.89-1.64-1.813-1.765v.265c1.266-.25 2.5-1.359 2.5-2.421 0-.829-.828-1.735-2.14-1.735H3.094c-.219 0-.516.125-.516.36 0 .109.281.25.5.25.297 0 .453-.141.453.062 0 .063 0 .094-.031.172L1.86-.984c-.11.406.015.375-.72.375-.202 0-.5.125-.5.359 0 .125.282.25.47.25h3.796c1.625 0 3.188-1.5 3.188-2.766zm-.64-3.968c0 1.03-.766 2.109-2.126 2.109H3.984L4.688-7.5c.109-.453.015-.313.406-.313h1.39c.954 0 .97.563.97 1.079zm-.72 3.828c0 1.25-.828 2.297-2.093 2.297H3.17c-.343 0-.187.125-.187-.016 0-.047 0-.063.047-.234l.813-3.266h1.89c.938 0 1 .61 1 1.219zm0 0"/></svg><svg overflow="visible" x="101.005" y="17.59"><path d="M5.64-1.39c0-.079-.28-.313-.343-.313a.51.51 0 00-.281.156c-.625.86-1.391 1.172-2 1.172-.797 0-.72-.813-.72-1.203 0-.531.079-.86.173-1.188h.281c.422 0 2.844-.14 2.844-1.64 0-.547-.625-1.125-1.328-1.125-1.235 0-3.094 1.343-3.094 3.453C1.172-.875 1.984.125 3 .125c1.484 0 2.64-1.344 2.64-1.516zm-.827-3.032c0 1.281-1.782 1.14-2.172 1.14h-.032c.438-1.765 1.438-1.75 1.641-1.75.484 0 .563.204.563.61zm1.421-3.703c0-.188-.328-.453-.515-.453-.157 0-.203.39-.203.39l-.25-.187-1.72 1.75c-.108.094-.171.219-.171.25 0 .094.313.313.36.313.062 0 .25-.063.28-.11l1.907-1.5c.094-.062.312-.281.312-.453zm0 0"/></svg><svg overflow="visible" x="106.385" y="17.59"><path d="M5.234-1.813c0-.093-.25-.25-.343-.25-.141 0-.344.172-.375.282-.282.812-.782.922-1.11.922-.203 0-.375-.079-.703-.235l.125.047c-.39-.203-.656-.234-.797-.234-.031 0-.172 0 .172-.11.156-.187.672-.718 1.203-1.203 1.14-1.015 2.219-2.5 2.219-2.719 0-.093-.266-.218-.328-.218a.364.364 0 00-.344.203c-.328.562-.375.687-.61.687-.202 0-.202-.046-.405-.343-.204-.282-.485-.547-.86-.547-.86 0-1.547 1.234-1.547 1.468 0 .11.297.235.344.235.14 0 .328-.156.375-.266.125-.36.36-.453.703-.453.235 0 .438.094.313.047.625.328.875.36.78.36a5.6 5.6 0 01-.405.452L1.953-2C1.141-1.187.531-.203.531-.11c0 .094.313.235.36.235.125 0 .25-.047.328-.203.187-.281.39-.703.797-.703.109 0 .14-.031.406.344.203.312.5.562.86.562 1.124 0 1.952-1.656 1.952-1.938zm0 0"/></svg><svg overflow="visible" x="111.167" y="17.59"><path d="M4.047-1.844c0-.11-.297-.234-.344-.234-.14 0-.344.172-.39.344-.11.406-.235 1.359-.907 1.359-.14 0-.094.063-.094-.219 0-.312.157-.75.376-1.328l.703-1.937c.109-.297.14-.391.14-.61 0-.61-.578-1.062-1.047-1.062-1.093 0-1.687 1.89-1.687 1.953 0 .11.297.25.36.25.14 0 .343-.172.39-.344.094-.375.219-1.36.922-1.36.25 0 .062.095.062.22 0 .312-.062.515-.156.734l-.953 2.594c-.094.265-.094.421-.094.53 0 .688.656 1.079 1.047 1.079 1.11 0 1.672-1.922 1.672-1.969zm.312-5.578c0-.328-.421-.61-.656-.61-.36 0-.89.47-.89.813 0 .328.437.61.671.61.36 0 .875-.454.875-.813zm0 0"/></svg><svg overflow="visible" x="114.754" y="17.59"><path d="M5.64-1.39c0-.079-.28-.313-.343-.313a.51.51 0 00-.281.156c-.625.86-1.391 1.172-2 1.172-.797 0-.72-.813-.72-1.203 0-.531.079-.86.173-1.188h.281c.422 0 2.844-.14 2.844-1.64 0-.547-.625-1.125-1.328-1.125-1.235 0-3.094 1.343-3.094 3.453C1.172-.875 1.984.125 3 .125c1.484 0 2.64-1.344 2.64-1.516zm-.827-3.032c0 1.281-1.782 1.14-2.172 1.14h-.032c.438-1.765 1.438-1.75 1.641-1.75.484 0 .563.204.563.61zm0 0"/></svg><svg overflow="visible" x="120.133" y="17.59"><path d="M5.922-4.703c0-.61-.984-.828-1.313-.828-.562 0-1.14.297-1.578.922l.297.093c-.094-.703-.797-1.015-1.11-1.015-.28 0-.78.25-1.14 1-.062.11.031 1.047.031 1.047l-.312-.094c0 .094.25.25.36.25.14 0 .327-.156.39-.422.187-.703.234-1.281.64-1.281.313 0 .126.218.126.36 0 .218-.047.484-.094.655L1.344-.53c-.047.172-.047.187-.047.234 0 .14.281.422.5.422.266 0 .562-.36.625-.563l.765-3.109c.047-.14.391-1.484 1.407-1.484.062 0 .265-.032.297-.016.171-.031-.235.281-.235.578 0 .25.375.469.563.469.203 0 .703-.281.703-.703zm0 0"/></svg><g><svg overflow="visible" x="125.071" y="17.59"><path d="M4.156 2.719c0-.047-.078-.172-.11-.203-1.234-.922-2-3.22-2-5.141v-1c0-1.906.767-4.203 2-5.14a.457.457 0 00.11-.188c0-.063-.25-.25-.312-.25a1.01 1.01 0 00-.203.062C2.312-8.156 1-5.67 1-3.625v1C1-.578 2.313 1.906 3.64 2.906c.016.016.188.063.204.063.062 0 .312-.203.312-.25zm0 0"/></svg><svg overflow="visible" x="129.722" y="17.59"><path d="M5.219-4.39c0-.532-.719-1.157-1.625-1.157-1.578 0-2.219 1.344-2.219 1.875 0 .938 1.094 1.25 1.438 1.313.624.125 1.03.125 1.03.78 0 .313-.062 1.188-1.5 1.188-.171 0-.89.125-1.093-.328.188.016.672-.469.672-.812 0-.282-.375-.547-.625-.547-.313 0-.875.375-.875.922 0 .672.875 1.281 1.906 1.281 1.938 0 2.594-1.578 2.594-2.11 0-.437-.281-.827-.422-.968-.328-.328-.813-.422-1.328-.531-.438-.094-.719-.047-.719-.594 0-.344.094-.938 1.14-.938.298 0 .704-.046.829.282-.078.015-.531.406-.531.671 0 .172.312.485.578.485.265 0 .75-.344.75-.813zm0 0"/></svg></g><g><svg overflow="visible" x="135.328" y="20.543"><path d="M2.922-5.39c0-.141-.313-.485-.547-.485-.219 0-.672.375-.672.625 0 .14.313.469.547.469.234 0 .672-.39.672-.61zm.219 4.03c0-.109-.313-.265-.344-.265-.11 0-.328.203-.375.297-.188.672-.344.86-.672.86-.172 0 0 .046 0-.141 0-.188.063-.344.14-.532l.266-.671.406-1.063a.794.794 0 00.047-.266c0-.39-.546-.875-1-.875-.828 0-1.421 1.297-1.421 1.438 0 .11.328.281.343.281.125 0 .344-.203.36-.297.218-.719.375-.86.687-.86.14 0 0-.093 0 .126 0 .203-.047.328-.25.844L.797-1.141c-.031.11-.078.22-.078.36 0 .39.547.86 1 .86.843 0 1.422-1.313 1.422-1.438zm0 0"/></svg></g><g><svg overflow="visible" x="139.207" y="17.59"><path d="M3.64-2.625v-1c0-2.047-1.328-4.531-2.64-5.516a.774.774 0 00-.203-.062c-.063 0-.313.187-.313.25 0 .031.079.172.094.187 1.25.938 2.016 3.235 2.016 5.141v1c0 1.922-.766 4.219-2.016 5.14-.015.032-.094.157-.094.204 0 .047.25.25.313.25A.774.774 0 001 2.906c1.313-1 2.64-3.484 2.64-5.531zm0 0"/></svg><svg overflow="visible" x="143.858" y="17.59"><path d="M3.64-2.625v-1c0-2.047-1.328-4.531-2.64-5.516a.774.774 0 00-.203-.062c-.063 0-.313.187-.313.25 0 .031.079.172.094.187 1.25.938 2.016 3.235 2.016 5.141v1c0 1.922-.766 4.219-2.016 5.14-.015.032-.094.157-.094.204 0 .047.25.25.313.25A.774.774 0 001 2.906c1.313-1 2.64-3.484 2.64-5.531zm0 0"/></svg></g><g><svg overflow="visible" x="148.508" y="10.739"><path d="M4.234-1.844H3.75c-.047.344-.063.735-.172.813-.062.047-.562 0-.687 0H1.812c.563-.5.86-.735 1.36-1.125.625-.5 1.265-1.14 1.265-1.938 0-1-1.093-1.781-2.171-1.781-1.032 0-1.954.89-1.954 1.656 0 .422.579.625.657.625.203 0 .656-.297.656-.61 0-.14-.266-.593-.422-.593.188-.437.547-.469.938-.469.843 0 1.062.5 1.062 1.172 0 .735-.453 1.203-.719 1.5l-2.03 2C.374-.516.311-.39.311 0h3.844l.313-1.844zm0 0"/></svg></g></svg>