<svg xmlns="http://www.w3.org/2000/svg" xmlns:xlink="http://www.w3.org/1999/xlink" width="399px" height="153px" viewBox="0 0 299 115"><svg overflow="visible" x=".677" y="17.538"><path d="M5.875-8.86l-.219-.187c-.75.375-1.078.438-2.062.531l-.094.5h.75c.281 0 .25-.046.25.157 0 .109 0 .203-.016.296L4.188-5.89a3.109 3.109 0 00-.875-.14c-.829 0-2.063.906-2.61 1.937-.375.703-.64 1.938-.64 2.938C.063-.375.374.125.734.125c.313 0 .86-.234 1.266-.563.64-.515 1.031-.984 1.844-2.187l-.25-.094-.266 1.078c-.14.532-.203.907-.203 1.22 0 .25.25.546.453.546.219 0 .594-.203 1-.5l1.047-.766-.266-.468-.656.468c-.172.125-.25.172-.36.172-.093 0-.046.031-.046-.14 0-.094.031-.204.11-.547l1.515-7.157zM4.031-5.03l-.14.703A5.233 5.233 0 012.375-1.61c-.422.39-.781.64-1.016.64-.187 0-.171-.031-.171-.328 0-1.516.515-3.281 1.109-3.734.156-.125.281-.14.61-.14.53 0 .765.03 1.109.218zm0 0"/></svg><svg overflow="visible" x="6.654" y="20.312"><path d="M4.86-4.406c-.126-.063-.313-.125-.391-.125-.39 0-.89.36-1.485 1.172l-.359.484.266.094-.063-.422c-.11-.875-.515-1.328-1.094-1.328-.25 0-.578.11-.671.218l-.641.875.406.22c.36-.376.453-.454.625-.454.328 0 .375.219.531 1.094l.11.515-.328.485c-.422.594-.641.828-.907.828-.14 0-.093.11-.109.063l-.172-.407-.453.063c0 .297-.016.406-.078.687-.016.11-.016.14-.031.266.187.11.468.172.578.172.312 0 .797-.281 1.094-.703l.734-1.032-.266-.109.11.625c.125.75.5 1.219.843 1.219.22 0 .625-.188.938-.438l.531-.437-.203-.438c-.516.39-.64.485-.781.485-.156 0-.172-.047-.266-.235-.094-.156-.156-.39-.203-.656l-.172-.844.297-.375c.453-.578.61-.75.906-.75.157 0 .11-.062.219.235l.36-.094.187-.922zm0 0"/></svg><svg overflow="visible" x="12.151" y="17.538"><path d="M4.203-7.828a.735.735 0 01-.187-.14c-.063-.063-.11-.126-.22-.329-1.593 1.61-2.5 3.266-2.5 4.781v.797c0 1.516.907 3.172 2.5 4.781.11-.203.157-.265.22-.328.062-.062.125-.109.312-.203C2.875.063 2.281-1.344 2.281-2.719v-.797c0-1.39.594-2.78 2.047-4.25zm0 0"/></svg><svg overflow="visible" x="17.22" y="17.538"><path d="M7.422-4.094a2.021 2.021 0 00-.125-.765c-.156-.36-.766-1.172-1.078-1.172-.282 0-.703.125-.953.265-.47.266-1.047.704-1.36 1.047-.11.125-.25.453-.297.64l-.734 3.47c-.844-.079-1.266-.47-1.219-1.329.047-1.343.907-2.703 1.89-3.218.032-.016.235-.078.532-.11.156-.156.14-.156.266-.312-.047-.172-.219-.313-.25-.313-.266 0-.75.22-1.125.407-1.453.687-2.438 2.046-2.5 3.53C.406-.671 1.28.126 2.672.126c.078 0 .156 0 .031.031l-.64 2.5-.11.485.203.171a5.507 5.507 0 011.016-.234l.625-3.094c.469-.109 1.14-.359 1.625-.671 1.094-.72 1.937-2.172 2-3.407zm-1.188.203c-.062 1.157-.75 2.313-1.609 2.954-.266.171-.484.265-.688.296l.282-1.265c.187-.938.531-2.782.812-3.016.157-.187.407-.25.797-.25.328 0 .438.64.406 1.281zm0 0"/></svg><svg overflow="visible" x="24.847" y="17.538"><path d="M3.766-2.719v-.797c0-1.515-.907-3.171-2.516-4.78-.11.202-.156.265-.203.327-.063.063-.125.11-.313.203 1.438 1.47 2.032 2.86 2.032 4.25v.797c0 1.375-.594 2.781-2.032 4.25.188.094.25.14.313.203.047.063.094.125.203.329C2.86.452 3.766-1.204 3.766-2.72zm0 0"/></svg><svg overflow="visible" x="33.228" y="17.538"><path d="M8.266-4.078a1.419 1.419 0 01-.047-.36c0-.109.015-.234.062-.484h-7.5c.063.25.063.375.063.484 0 .125 0 .235-.063.5h7.5zm0 2.625a1.332 1.332 0 01-.047-.36c0-.109.015-.234.062-.484h-7.5c.063.25.063.375.063.485 0 .125 0 .25-.063.5h7.5zm0 0"/></svg><svg overflow="visible" x="45.638" y="17.538"><path d="M7.594-8.531L4.219-8.5l-3.5-.047-.235 2.235h.594l.219-.844c.047-.266.11-.36.172-.453.078-.079.437-.11.875-.11h1.172l-1 6.094c-.188 1.094-.079 1-.563 1.031l-.719.031-.093.61L3 0l1.703.047.063-.61-.844-.03c-.313-.016-.297.015-.297-.235 0-.11 0-.156.047-.422l1.094-6.469h.765c.938 0 1.219-.078 1.266.063.031.11.047.328.047.453l-.063.89h.594l.375-2.234zm0 0"/></svg><svg overflow="visible" x="52.949" y="20.312"><path d="M4.86-4.406c-.126-.063-.313-.125-.391-.125-.39 0-.89.36-1.485 1.172l-.359.484.266.094-.063-.422c-.11-.875-.515-1.328-1.094-1.328-.25 0-.578.11-.671.218l-.641.875.406.22c.36-.376.453-.454.625-.454.328 0 .375.219.531 1.094l.11.515-.328.485c-.422.594-.641.828-.907.828-.14 0-.093.11-.109.063l-.172-.407-.453.063c0 .297-.016.406-.078.687-.016.11-.016.14-.031.266.187.11.468.172.578.172.312 0 .797-.281 1.094-.703l.734-1.032-.266-.109.11.625c.125.75.5 1.219.843 1.219.22 0 .625-.188.938-.438l.531-.437-.203-.438c-.516.39-.64.485-.781.485-.156 0-.172-.047-.266-.235-.094-.156-.156-.39-.203-.656l-.172-.844.297-.375c.453-.578.61-.75.906-.75.157 0 .11-.062.219.235l.36-.094.187-.922zm0 0"/></svg><svg overflow="visible" x="61.103" y="17.538"><path d="M8.266-2.766a1.332 1.332 0 01-.047-.359c0-.11.015-.234.062-.484h-7.5c.063.25.063.375.063.484 0 .125 0 .25-.063.5h7.5zm0 0"/></svg><svg overflow="visible" x="72.843" y="17.538"><path d="M7.234-6.594c0-1.218-1.265-1.937-2.312-1.937-.547 0-1.094.031-1.64.031l-2.126-.047-.062.61.812.03c.297 0 .282-.03.282.188 0 .172-.047.532-.11.907l-.89 5.187C1-.531 1.125-.641.64-.594l-.61.031-.093.61L1.688 0l1.78.047.063-.61-.922-.03c-.312-.016-.296.015-.296-.235 0-.11 0-.188.046-.422l.97-5.813-.032.094s.078-.343.14-.578c.016-.062.047-.172.063-.203.328-.063.516-.094.75-.094 1.219 0 1.656.39 1.656 1.516 0 1.281-.718 2.203-1.765 2.203-.266 0-.5-.063-1.11-.281l.047.625c.578.281.813.344 1.172.344 1.531 0 2.984-1.532 2.984-3.157zm0 0"/></svg><svg overflow="visible" x="80.15" y="20.312"><path d="M4.86-4.406c-.126-.063-.313-.125-.391-.125-.39 0-.89.36-1.485 1.172l-.359.484.266.094-.063-.422c-.11-.875-.515-1.328-1.094-1.328-.25 0-.578.11-.671.218l-.641.875.406.22c.36-.376.453-.454.625-.454.328 0 .375.219.531 1.094l.11.515-.328.485c-.422.594-.641.828-.907.828-.14 0-.093.11-.109.063l-.172-.407-.453.063c0 .297-.016.406-.078.687-.016.11-.016.14-.031.266.187.11.468.172.578.172.312 0 .797-.281 1.094-.703l.734-1.032-.266-.109.11.625c.125.75.5 1.219.843 1.219.22 0 .625-.188.938-.438l.531-.437-.203-.438c-.516.39-.64.485-.781.485-.156 0-.172-.047-.266-.235-.094-.156-.156-.39-.203-.656l-.172-.844.297-.375c.453-.578.61-.75.906-.75.157 0 .11-.062.219.235l.36-.094.187-.922zm0 0"/></svg><svg overflow="visible" x="88.968" y="17.538"><path d="M8.266-4.078a1.419 1.419 0 01-.047-.36c0-.109.015-.234.062-.484h-7.5c.063.25.063.375.063.484 0 .125 0 .235-.063.5h7.5zm0 2.625a1.332 1.332 0 01-.047-.36c0-.109.015-.234.062-.484h-7.5c.063.25.063.375.063.485 0 .125 0 .25-.063.5h7.5zm0 0"/></svg><svg overflow="visible" x="102.571" y="8.929"><path d="M5.125-.094v-.484l-.75-.047c-.656-.031-.64-.031-.64-.656v-7.172l-.313-.125c-.875.469-1.61.781-2.86 1.219l.125.718h.235l1.547-.687.031-.016c.063 0-.047-.015-.047.266v5.797c0 .625.016.625-.64.656L1-.578v.625L3.125 0l2 .047zm0 0"/></svg><path d="M102.57 14.55h5.977" fill="none" stroke-width=".717" stroke="#000" stroke-miterlimit="10"/><svg overflow="visible" x="102.571" y="25.501"><path d="M5.766-.094v-.484l-.704-.047c-.578-.031-.578-.063-.578-.781v-.75c.579 0 .829 0 1.282.062v-1L5.734-3s-.671-.188-1.062-.188h-.188v-1.53c0-2.126.016-3.157.094-3.72l-.281-.124-.984.343-3.438 5.64.203.423h3.125v.75c0 .718.016.765-.578.781l-.875.047v.625L3.813 0l1.953.047zM3.344-3.188H1l2.438-3.984-.235-.094v4.079zm0 0"/></svg><svg overflow="visible" x="109.744" y="17.538"><path d="M4.203-7.828a.735.735 0 01-.187-.14c-.063-.063-.11-.126-.22-.329-1.593 1.61-2.5 3.266-2.5 4.781v.797c0 1.516.907 3.172 2.5 4.781.11-.203.157-.265.22-.328.062-.062.125-.109.312-.203C2.875.063 2.281-1.344 2.281-2.719v-.797c0-1.39.594-2.78 2.047-4.25zm0 0"/></svg><svg overflow="visible" x="114.813" y="17.538"><path d="M5.656-2.813c0-.562-.281-1.171-.703-1.468-.297-.219-.672-.344-.953-.407.734-.562 1.125-1.203 1.125-1.906 0-1.062-1.016-1.906-2.344-1.906-.812 0-1.453.266-2.047.86L.328-5.954h.64l.266-.797c.125-.406.75-.688 1.375-.688.766 0 1.266.5 1.266 1.25 0 .907-.563 1.532-1.406 1.532-.11 0-.469.187-.469.187l-.25-.093-.14.671.202.188C2.297-3.938 2.516-4 2.845-4c1 0 1.422.516 1.422 1.594 0 1.219-.579 1.89-1.704 1.89-.546 0-.937-.14-1.296-.468C.984-1.25.859-1.438.578-2.25l-.562.219C.28-1.234.375-.797.469-.11c.765.25 1.281.343 1.734.343.953 0 2.14-.562 2.813-1.375.406-.484.64-1.109.64-1.671zm0 0"/></svg><svg overflow="visible" x="123.445" y="17.538"><path d="M8.266-2.766a1.332 1.332 0 01-.047-.359c0-.11.015-.234.062-.484h-3.25v-3.266c-.25.063-.375.078-.484.078-.125 0-.25-.016-.5-.078v3.266H.78c.063.25.063.375.063.484 0 .125 0 .25-.063.5h3.266V.641c.25-.063.375-.079.5-.079.11 0 .234.016.484.079v-3.266h3.25zm0 0"/></svg><svg overflow="visible" x="135.185" y="17.538"><path d="M4.75-5.703c-.297-.188-.797-.328-1.25-.328-.531 0-1.484.468-2.172 1.062C.641-4.375.156-3.03.156-1.75.156-.61.796.125 1.75.125c.656 0 1.328-.266 1.984-.813l.657-.53-.204-.485-.343.219c-.86.578-1.203.75-1.625.75-.672 0-.875-.36-.875-1.297 0-1.266.36-2.406.937-2.875.25-.203.453-.266.844-.266.531 0 .813.094.813.375v.86h.546c.11-.922.188-1.36.329-1.735zm0 0"/></svg><svg overflow="visible" x="140.17" y="17.538"><path d="M5.047-4.094c0-1.125-.734-1.937-1.719-1.937-.515 0-1.187.25-1.719.625-.968.703-1.546 2-1.546 3.453C.063-.687.734.125 1.734.125c.657 0 1.47-.344 2-.844.75-.703 1.313-2.156 1.313-3.375zm-1.188.203C3.86-2.75 3.531-1.578 3-.937c-.219.25-.422.359-.781.359-.703 0-.969-.406-.969-1.36 0-1.343.422-2.718 1.016-3.203.156-.125.328-.171.609-.171.734 0 .984.406.984 1.421zm0 0"/></svg><svg overflow="visible" x="145.478" y="17.538"><path d="M4.125-5.703c-.469-.219-.797-.328-1.203-.328-.61 0-1.453.39-2.031.968a1.63 1.63 0 00-.47 1.157c0 .672.516 1.187 1.298 1.344l.75.14c.531.094.578.156.578.64 0 .798-.406 1.173-1.25 1.173-.438 0-.703-.094-1-.344v-1.078H.234C.172-1.297.094-.875-.046-.25.453 0 .968.125 1.39.125c.578 0 1.234-.25 1.843-.719.61-.484.891-1.015.891-1.625 0-.64-.5-1.11-1.406-1.281l-.5-.094c-.719-.14-.813-.203-.813-.703 0-.625.39-.984 1.078-.984.485 0 .844.172 1 .422v.765h.532c.062-.547.109-.86.25-1.531zm0 0"/></svg><svg overflow="visible" x="150.129" y="17.538"><path d="M4.203-7.828a.735.735 0 01-.187-.14c-.063-.063-.11-.126-.22-.329-1.593 1.61-2.5 3.266-2.5 4.781v.797c0 1.516.907 3.172 2.5 4.781.11-.203.157-.265.22-.328.062-.062.125-.109.312-.203C2.875.063 2.281-1.344 2.281-2.719v-.797c0-1.39.594-2.78 2.047-4.25zm0 0"/></svg><svg overflow="visible" x="155.198" y="17.538"><path d="M7.422-4.094a2.021 2.021 0 00-.125-.765c-.156-.36-.766-1.172-1.078-1.172-.282 0-.703.125-.953.265-.47.266-1.047.704-1.36 1.047-.11.125-.25.453-.297.64l-.734 3.47c-.844-.079-1.266-.47-1.219-1.329.047-1.343.907-2.703 1.89-3.218.032-.016.235-.078.532-.11.156-.156.14-.156.266-.312-.047-.172-.219-.313-.25-.313-.266 0-.75.22-1.125.407-1.453.687-2.438 2.046-2.5 3.53C.406-.671 1.28.126 2.672.126c.078 0 .156 0 .031.031l-.64 2.5-.11.485.203.171a5.507 5.507 0 011.016-.234l.625-3.094c.469-.109 1.14-.359 1.625-.671 1.094-.72 1.937-2.172 2-3.407zm-1.188.203c-.062 1.157-.75 2.313-1.609 2.954-.266.171-.484.265-.688.296l.282-1.265c.187-.938.531-2.782.812-3.016.157-.187.407-.25.797-.25.328 0 .438.64.406 1.281zm0 0"/></svg><svg overflow="visible" x="162.825" y="17.538"><path d="M3.766-2.719v-.797c0-1.515-.907-3.171-2.516-4.78-.11.202-.156.265-.203.327-.063.063-.125.11-.313.203 1.438 1.47 2.032 2.86 2.032 4.25v.797c0 1.375-.594 2.781-2.032 4.25.188.094.25.14.313.203.047.063.094.125.203.329C2.86.452 3.766-1.204 3.766-2.72zm0 0"/></svg><svg overflow="visible" x="167.894" y="17.538"><path d="M3.766-2.719v-.797c0-1.515-.907-3.171-2.516-4.78-.11.202-.156.265-.203.327-.063.063-.125.11-.313.203 1.438 1.47 2.032 2.86 2.032 4.25v.797c0 1.375-.594 2.781-2.032 4.25.188.094.25.14.313.203.047.063.094.125.203.329C2.86.452 3.766-1.204 3.766-2.72zm0 0"/></svg><svg overflow="visible" x="175.617" y="17.538"><path d="M8.266-2.766a1.332 1.332 0 01-.047-.359c0-.11.015-.234.062-.484h-7.5c.063.25.063.375.063.484 0 .125 0 .25-.063.5h7.5zm0 0"/></svg><svg overflow="visible" x="187.357" y="17.538"><path d="M4.75-5.703c-.297-.188-.797-.328-1.25-.328-.531 0-1.484.468-2.172 1.062C.641-4.375.156-3.03.156-1.75.156-.61.796.125 1.75.125c.656 0 1.328-.266 1.984-.813l.657-.53-.204-.485-.343.219c-.86.578-1.203.75-1.625.75-.672 0-.875-.36-.875-1.297 0-1.266.36-2.406.937-2.875.25-.203.453-.266.844-.266.531 0 .813.094.813.375v.86h.546c.11-.922.188-1.36.329-1.735zm0 0"/></svg><svg overflow="visible" x="192.342" y="17.538"><path d="M5.047-4.094c0-1.125-.734-1.937-1.719-1.937-.515 0-1.187.25-1.719.625-.968.703-1.546 2-1.546 3.453C.063-.687.734.125 1.734.125c.657 0 1.47-.344 2-.844.75-.703 1.313-2.156 1.313-3.375zm-1.188.203C3.86-2.75 3.531-1.578 3-.937c-.219.25-.422.359-.781.359-.703 0-.969-.406-.969-1.36 0-1.343.422-2.718 1.016-3.203.156-.125.328-.171.609-.171.734 0 .984.406.984 1.421zm0 0"/></svg><svg overflow="visible" x="197.651" y="17.538"><path d="M4.125-5.703c-.469-.219-.797-.328-1.203-.328-.61 0-1.453.39-2.031.968a1.63 1.63 0 00-.47 1.157c0 .672.516 1.187 1.298 1.344l.75.14c.531.094.578.156.578.64 0 .798-.406 1.173-1.25 1.173-.438 0-.703-.094-1-.344v-1.078H.234C.172-1.297.094-.875-.046-.25.453 0 .968.125 1.39.125c.578 0 1.234-.25 1.843-.719.61-.484.891-1.015.891-1.625 0-.64-.5-1.11-1.406-1.281l-.5-.094c-.719-.14-.813-.203-.813-.703 0-.625.39-.984 1.078-.984.485 0 .844.172 1 .422v.765h.532c.062-.547.109-.86.25-1.531zm0 0"/></svg><svg overflow="visible" x="202.301" y="17.538"><path d="M4.203-7.828a.735.735 0 01-.187-.14c-.063-.063-.11-.126-.22-.329-1.593 1.61-2.5 3.266-2.5 4.781v.797c0 1.516.907 3.172 2.5 4.781.11-.203.157-.265.22-.328.062-.062.125-.109.312-.203C2.875.063 2.281-1.344 2.281-2.719v-.797c0-1.39.594-2.78 2.047-4.25zm0 0"/></svg><svg overflow="visible" x="208.577" y="8.929"><path d="M7.422-4.094a2.021 2.021 0 00-.125-.765c-.156-.36-.766-1.172-1.078-1.172-.282 0-.703.125-.953.265-.47.266-1.047.704-1.36 1.047-.11.125-.25.453-.297.64l-.734 3.47c-.844-.079-1.266-.47-1.219-1.329.047-1.343.907-2.703 1.89-3.218.032-.016.235-.078.532-.11.156-.156.14-.156.266-.312-.047-.172-.219-.313-.25-.313-.266 0-.75.22-1.125.407-1.453.687-2.438 2.046-2.5 3.53C.406-.671 1.28.126 2.672.126c.078 0 .156 0 .031.031l-.64 2.5-.11.485.203.171a5.507 5.507 0 011.016-.234l.625-3.094c.469-.109 1.14-.359 1.625-.671 1.094-.72 1.937-2.172 2-3.407zm-1.188.203c-.062 1.157-.75 2.313-1.609 2.954-.266.171-.484.265-.688.296l.282-1.265c.187-.938.531-2.782.812-3.016.157-.187.407-.25.797-.25.328 0 .438.64.406 1.281zm0 0"/></svg><path d="M208.578 14.55h7.625" fill="none" stroke-width=".717" stroke="#000" stroke-miterlimit="10"/><svg overflow="visible" x="209.402" y="25.501"><path d="M5.719-.094c-.016-.25-.016-.375-.016-.547 0-.14 0-.265.031-.671l-4.28.125.093.234 2.187-2.313C4.891-4.5 5.281-5.25 5.281-6.14 5.281-7.516 4.22-8.5 2.703-8.5c-.86 0-1.562.281-2.172.906L.312-5.766h.594l.188-.687c.203-.688.5-.86 1.297-.86 1.03 0 1.546.516 1.546 1.532 0 .89-.468 1.687-1.828 3.11L.047-.454v.5L2.859 0l2.875.047zm0 0"/></svg><svg overflow="visible" x="217.4" y="17.538"><path d="M3.766-2.719v-.797c0-1.515-.907-3.171-2.516-4.78-.11.202-.156.265-.203.327-.063.063-.125.11-.313.203 1.438 1.47 2.032 2.86 2.032 4.25v.797c0 1.375-.594 2.781-2.032 4.25.188.094.25.14.313.203.047.063.094.125.203.329C2.86.452 3.766-1.204 3.766-2.72zm0 0"/></svg><svg overflow="visible" x="225.781" y="17.538"><path d="M8.266-4.078a1.419 1.419 0 01-.047-.36c0-.109.015-.234.062-.484h-7.5c.063.25.063.375.063.484 0 .125 0 .235-.063.5h7.5zm0 2.625a1.332 1.332 0 01-.047-.36c0-.109.015-.234.062-.484h-7.5c.063.25.063.375.063.485 0 .125 0 .25-.063.5h7.5zm0 0"/></svg><svg overflow="visible" x="238.19" y="17.538"><path d="M5.719-.094c-.016-.25-.016-.375-.016-.547 0-.14 0-.265.031-.671l-4.28.125.093.234 2.187-2.313C4.891-4.5 5.281-5.25 5.281-6.14 5.281-7.516 4.22-8.5 2.703-8.5c-.86 0-1.562.281-2.172.906L.312-5.766h.594l.188-.687c.203-.688.5-.86 1.297-.86 1.03 0 1.546.516 1.546 1.532 0 .89-.468 1.687-1.828 3.11L.047-.454v.5L2.859 0l2.875.047zm0 0"/></svg><svg overflow="visible" x="244.168" y="17.538"><path d="M4.125-5.703c-.469-.219-.797-.328-1.203-.328-.61 0-1.453.39-2.031.968a1.63 1.63 0 00-.47 1.157c0 .672.516 1.187 1.298 1.344l.75.14c.531.094.578.156.578.64 0 .798-.406 1.173-1.25 1.173-.438 0-.703-.094-1-.344v-1.078H.234C.172-1.297.094-.875-.046-.25.453 0 .968.125 1.39.125c.578 0 1.234-.25 1.843-.719.61-.484.891-1.015.891-1.625 0-.64-.5-1.11-1.406-1.281l-.5-.094c-.719-.14-.813-.203-.813-.703 0-.625.39-.984 1.078-.984.485 0 .844.172 1 .422v.765h.532c.062-.547.109-.86.25-1.531zm0 0"/></svg><svg overflow="visible" x="248.818" y="17.538"><path d="M2.969-1.25l-.172-.297-.453.297c-.36.234-.5.313-.625.313-.078 0-.016.03-.016-.11 0-.11 0-.203.078-.469l.922-3.64c.047-.203.063-.313.063-.422 0-.203-.22-.453-.422-.453-.266 0-.797.281-1.703.922l-.407.296.188.485.547-.36c.344-.218.375-.234.484-.234.11 0 .047-.031.047.11 0 .109-.047.359-.094.53L.625-1.405c-.11.375-.156.672-.156.922 0 .28.265.593.5.593.312 0 .844-.296 2.078-1.218zm.344-6.406c0-.282-.313-.61-.563-.61-.36 0-.844.516-.844.922 0 .297.328.625.625.625.375 0 .781-.484.781-.937zm0 0"/></svg><svg overflow="visible" x="252.333" y="17.538"><path d="M6.234-1.25l-.171-.297-.454.297c-.343.219-.5.313-.625.313-.078 0-.03.03-.03-.11 0-.047.015-.187.03-.234l.782-3.297c.093-.344.14-.688.14-.89 0-.266-.265-.563-.5-.563-.5 0-1.437.5-2.14 1.156-.454.422-.797.828-1.407 1.703l.235.094.453-1.938c.047-.203.078-.343.078-.484 0-.25-.234-.531-.406-.531-.266 0-.828.312-1.703.922l-.391.296.172.485.547-.36c.437-.28.39-.265.469-.265.14 0 .078 0 .078.172 0 .61-.5 2.922-.985 4.656l.172.25c.36-.094.625-.172 1.016-.234.234-1.625.468-2.313 1-3.125.656-1.016 1.453-1.72 1.984-1.72.125 0 .063-.015.063.157 0 .219-.032.469-.141.86l-.61 2.53c-.109.438-.156.72-.156.907 0 .297.266.61.5.61.313 0 .829-.282 2.079-1.22zm0 0"/></svg><svg overflow="visible" x="258.987" y="13.305"><path d="M4.781-.11V-.5l-.61-.031c-.468-.031-.421-.016-.421-.531v-.532c.422 0 .625 0 1.031.047v-.781l-.047.094s-.562-.204-.875-.204H3.75V-3.53c0-1.578.016-2.328.078-2.766l-.281-.11-.813.282-2.796 4.172.187.36h2.5v.53c0 .516.047.516-.422.532l-.75.031v.531L3.172 0l1.61.031zm-2-2.328H.97L2.89-5.312l-.266-.094v2.968zm0 0"/></svg><svg overflow="visible" x="266.476" y="17.538"><path d="M6.438-14.938l-.188-.14c-.063-.063-.11-.125-.219-.328-2.843 2.828-4.515 6.469-4.515 10.469v3.64c0 4 1.671 7.625 4.515 10.469.11-.203.157-.266.219-.328.063-.063.125-.11.313-.203-2.704-2.72-3.86-6.125-3.86-9.938v-3.64c0-3.813 1.156-7.235 3.86-9.938zm0 0"/></svg><svg overflow="visible" x="275.132" y="8.929"><path d="M7.422-4.094a2.021 2.021 0 00-.125-.765c-.156-.36-.766-1.172-1.078-1.172-.282 0-.703.125-.953.265-.47.266-1.047.704-1.36 1.047-.11.125-.25.453-.297.64l-.734 3.47c-.844-.079-1.266-.47-1.219-1.329.047-1.343.907-2.703 1.89-3.218.032-.016.235-.078.532-.11.156-.156.14-.156.266-.312-.047-.172-.219-.313-.25-.313-.266 0-.75.22-1.125.407-1.453.687-2.438 2.046-2.5 3.53C.406-.671 1.28.126 2.672.126c.078 0 .156 0 .031.031l-.64 2.5-.11.485.203.171a5.507 5.507 0 011.016-.234l.625-3.094c.469-.109 1.14-.359 1.625-.671 1.094-.72 1.937-2.172 2-3.407zm-1.188.203c-.062 1.157-.75 2.313-1.609 2.954-.266.171-.484.265-.688.296l.282-1.265c.187-.938.531-2.782.812-3.016.157-.187.407-.25.797-.25.328 0 .438.64.406 1.281zm0 0"/></svg><path d="M275.133 14.55h7.625" fill="none" stroke-width=".717" stroke="#000" stroke-miterlimit="10"/><svg overflow="visible" x="275.957" y="25.501"><path d="M5.766-.094v-.484l-.704-.047c-.578-.031-.578-.063-.578-.781v-.75c.579 0 .829 0 1.282.062v-1L5.734-3s-.671-.188-1.062-.188h-.188v-1.53c0-2.126.016-3.157.094-3.72l-.281-.124-.984.343-3.438 5.64.203.423h3.125v.75c0 .718.016.765-.578.781l-.875.047v.625L3.813 0l1.953.047zM3.344-3.188H1l2.438-3.984-.235-.094v4.079zm0 0"/></svg><svg overflow="visible" x="283.955" y="17.538"><path d="M5.922-1.297v-3.64c0-4-1.672-7.641-4.516-10.47-.11.204-.156.266-.218.329-.047.047-.11.094-.297.203C3.578-12.172 4.75-8.75 4.75-4.937v3.64c0 3.813-1.172 7.219-3.86 9.938.188.093.25.14.297.203.063.062.11.125.22.328C4.25 6.328 5.921 2.703 5.921-1.297zm0 0"/></svg><svg overflow="visible" x="296.388" y="17.538"><path d="M2.703-1.531L2.47-1.75c-.36.125-.563.203-1.328.406C1.047-.328.78.344.016 1.625l.312.25.61-.281C1.905.328 2.405-.516 2.75-1.47zm0 0"/></svg><svg overflow="visible" x=".615" y="47.502"><path d="M5.875-8.86l-.219-.187c-.75.375-1.078.438-2.062.531l-.094.5h.75c.281 0 .25-.046.25.157 0 .109 0 .203-.016.296L4.188-5.89a3.109 3.109 0 00-.875-.14c-.829 0-2.063.906-2.61 1.937-.375.703-.64 1.938-.64 2.938C.063-.375.374.125.734.125c.313 0 .86-.234 1.266-.563.64-.515 1.031-.984 1.844-2.187l-.25-.094-.266 1.078c-.14.532-.203.907-.203 1.22 0 .25.25.546.453.546.219 0 .594-.203 1-.5l1.047-.766-.266-.468-.656.468c-.172.125-.25.172-.36.172-.093 0-.046.031-.046-.14 0-.094.031-.204.11-.547l1.515-7.157zM4.031-5.03l-.14.703A5.233 5.233 0 012.375-1.61c-.422.39-.781.64-1.016.64-.187 0-.171-.031-.171-.328 0-1.516.515-3.281 1.109-3.734.156-.125.281-.14.61-.14.53 0 .765.03 1.109.218zm0 0"/></svg><svg overflow="visible" x="6.592" y="50.276"><path d="M4.922-4.406l-.188-.14a3.25 3.25 0 01-.875.202L3.5-3.062c-.125.421-.406.968-.734 1.406-.329.437-.688.797-.907.797-.203 0-.03-.297-.03-.407l.14-1.718c.015-.266.047-.61.047-.86 0-.39-.22-.687-.391-.687-.125 0-.375.093-.828.39l-.89.563.265.375.64-.36c.047-.03.063-.062.141-.062.235 0 .047.313.031.453L.828-1.016l-.015.36c0 .36.343.75.578.75.359 0 1.265-.781 2-1.782l-.266-.093-.484 1.5c-.485 1.578-.813 2.078-1.485 2.078-.328 0-.453-.094-.453-.406 0-.047.016-.11.047-.266l-.297-.11-.578.376c-.031.125-.031.187-.031.234 0 .375.531.813.969.813 1.015 0 2.218-1.22 2.78-2.86l1.391-3.937zm0 0"/></svg><svg overflow="visible" x="12.151" y="47.502"><path d="M4.203-7.828a.735.735 0 01-.187-.14c-.063-.063-.11-.126-.22-.329-1.593 1.61-2.5 3.266-2.5 4.781v.797c0 1.516.907 3.172 2.5 4.781.11-.203.157-.265.22-.328.062-.062.125-.109.312-.203C2.875.063 2.281-1.344 2.281-2.719v-.797c0-1.39.594-2.78 2.047-4.25zm0 0"/></svg><svg overflow="visible" x="17.22" y="47.502"><path d="M7.422-4.094a2.021 2.021 0 00-.125-.765c-.156-.36-.766-1.172-1.078-1.172-.282 0-.703.125-.953.265-.47.266-1.047.704-1.36 1.047-.11.125-.25.453-.297.64l-.734 3.47c-.844-.079-1.266-.47-1.219-1.329.047-1.343.907-2.703 1.89-3.218.032-.016.235-.078.532-.11.156-.156.14-.156.266-.312-.047-.172-.219-.313-.25-.313-.266 0-.75.22-1.125.407-1.453.687-2.438 2.046-2.5 3.53C.406-.671 1.28.126 2.672.126c.078 0 .156 0 .031.031l-.64 2.5-.11.485.203.171a5.507 5.507 0 011.016-.234l.625-3.094c.469-.109 1.14-.359 1.625-.671 1.094-.72 1.937-2.172 2-3.407zm-1.188.203c-.062 1.157-.75 2.313-1.609 2.954-.266.171-.484.265-.688.296l.282-1.265c.187-.938.531-2.782.812-3.016.157-.187.407-.25.797-.25.328 0 .438.64.406 1.281zm0 0"/></svg><svg overflow="visible" x="24.847" y="47.502"><path d="M3.766-2.719v-.797c0-1.515-.907-3.171-2.516-4.78-.11.202-.156.265-.203.327-.063.063-.125.11-.313.203 1.438 1.47 2.032 2.86 2.032 4.25v.797c0 1.375-.594 2.781-2.032 4.25.188.094.25.14.313.203.047.063.094.125.203.329C2.86.452 3.766-1.204 3.766-2.72zm0 0"/></svg><svg overflow="visible" x="33.228" y="47.502"><path d="M8.266-4.078a1.419 1.419 0 01-.047-.36c0-.109.015-.234.062-.484h-7.5c.063.25.063.375.063.484 0 .125 0 .235-.063.5h7.5zm0 2.625a1.332 1.332 0 01-.047-.36c0-.109.015-.234.062-.484h-7.5c.063.25.063.375.063.485 0 .125 0 .25-.063.5h7.5zm0 0"/></svg><svg overflow="visible" x="45.638" y="47.502"><path d="M7.594-8.531L4.219-8.5l-3.5-.047-.235 2.235h.594l.219-.844c.047-.266.11-.36.172-.453.078-.079.437-.11.875-.11h1.172l-1 6.094c-.188 1.094-.079 1-.563 1.031l-.719.031-.093.61L3 0l1.703.047.063-.61-.844-.03c-.313-.016-.297.015-.297-.235 0-.11 0-.156.047-.422l1.094-6.469h.765c.938 0 1.219-.078 1.266.063.031.11.047.328.047.453l-.063.89h.594l.375-2.234zm0 0"/></svg><svg overflow="visible" x="52.949" y="50.276"><path d="M4.922-4.406l-.188-.14a3.25 3.25 0 01-.875.202L3.5-3.062c-.125.421-.406.968-.734 1.406-.329.437-.688.797-.907.797-.203 0-.03-.297-.03-.407l.14-1.718c.015-.266.047-.61.047-.86 0-.39-.22-.687-.391-.687-.125 0-.375.093-.828.39l-.89.563.265.375.64-.36c.047-.03.063-.062.141-.062.235 0 .047.313.031.453L.828-1.016l-.015.36c0 .36.343.75.578.75.359 0 1.265-.781 2-1.782l-.266-.093-.484 1.5c-.485 1.578-.813 2.078-1.485 2.078-.328 0-.453-.094-.453-.406 0-.047.016-.11.047-.266l-.297-.11-.578.376c-.031.125-.031.187-.031.234 0 .375.531.813.969.813 1.015 0 2.218-1.22 2.78-2.86l1.391-3.937zm0 0"/></svg><svg overflow="visible" x="61.165" y="47.502"><path d="M8.266-2.766a1.332 1.332 0 01-.047-.359c0-.11.015-.234.062-.484h-7.5c.063.25.063.375.063.484 0 .125 0 .25-.063.5h7.5zm0 0"/></svg><svg overflow="visible" x="72.905" y="47.502"><path d="M7.234-6.594c0-1.218-1.265-1.937-2.312-1.937-.547 0-1.094.031-1.64.031l-2.126-.047-.062.61.812.03c.297 0 .282-.03.282.188 0 .172-.047.532-.11.907l-.89 5.187C1-.531 1.125-.641.64-.594l-.61.031-.093.61L1.688 0l1.78.047.063-.61-.922-.03c-.312-.016-.296.015-.296-.235 0-.11 0-.188.046-.422l.97-5.813-.032.094s.078-.343.14-.578c.016-.062.047-.172.063-.203.328-.063.516-.094.75-.094 1.219 0 1.656.39 1.656 1.516 0 1.281-.718 2.203-1.765 2.203-.266 0-.5-.063-1.11-.281l.047.625c.578.281.813.344 1.172.344 1.531 0 2.984-1.532 2.984-3.157zm0 0"/></svg><svg overflow="visible" x="80.212" y="50.276"><path d="M4.922-4.406l-.188-.14a3.25 3.25 0 01-.875.202L3.5-3.062c-.125.421-.406.968-.734 1.406-.329.437-.688.797-.907.797-.203 0-.03-.297-.03-.407l.14-1.718c.015-.266.047-.61.047-.86 0-.39-.22-.687-.391-.687-.125 0-.375.093-.828.39l-.89.563.265.375.64-.36c.047-.03.063-.062.141-.062.235 0 .047.313.031.453L.828-1.016l-.015.36c0 .36.343.75.578.75.359 0 1.265-.781 2-1.782l-.266-.093-.484 1.5c-.485 1.578-.813 2.078-1.485 2.078-.328 0-.453-.094-.453-.406 0-.047.016-.11.047-.266l-.297-.11-.578.376c-.031.125-.031.187-.031.234 0 .375.531.813.969.813 1.015 0 2.218-1.22 2.78-2.86l1.391-3.937zm0 0"/></svg><svg overflow="visible" x="89.092" y="47.502"><path d="M8.266-4.078a1.419 1.419 0 01-.047-.36c0-.109.015-.234.062-.484h-7.5c.063.25.063.375.063.484 0 .125 0 .235-.063.5h7.5zm0 2.625a1.332 1.332 0 01-.047-.36c0-.109.015-.234.062-.484h-7.5c.063.25.063.375.063.485 0 .125 0 .25-.063.5h7.5zm0 0"/></svg><svg overflow="visible" x="102.695" y="38.894"><path d="M5.125-.094v-.484l-.75-.047c-.656-.031-.64-.031-.64-.656v-7.172l-.313-.125c-.875.469-1.61.781-2.86 1.219l.125.718h.235l1.547-.687.031-.016c.063 0-.047-.015-.047.266v5.797c0 .625.016.625-.64.656L1-.578v.625L3.125 0l2 .047zm0 0"/></svg><path d="M102.695 44.512h5.977" fill="none" stroke-width=".717" stroke="#000" stroke-miterlimit="10"/><svg overflow="visible" x="102.695" y="55.465"><path d="M5.766-.094v-.484l-.704-.047c-.578-.031-.578-.063-.578-.781v-.75c.579 0 .829 0 1.282.062v-1L5.734-3s-.671-.188-1.062-.188h-.188v-1.53c0-2.126.016-3.157.094-3.72l-.281-.124-.984.343-3.438 5.64.203.423h3.125v.75c0 .718.016.765-.578.781l-.875.047v.625L3.813 0l1.953.047zM3.344-3.188H1l2.438-3.984-.235-.094v4.079zm0 0"/></svg><svg overflow="visible" x="111.86" y="47.502"><path d="M6.438-14.938l-.188-.14c-.063-.063-.11-.125-.219-.328-2.843 2.828-4.515 6.469-4.515 10.469v3.64c0 4 1.671 7.625 4.515 10.469.11-.203.157-.266.219-.328.063-.063.125-.11.313-.203-2.704-2.72-3.86-6.125-3.86-9.938v-3.64c0-3.813 1.156-7.235 3.86-9.938zm0 0"/></svg><svg overflow="visible" x="119.32" y="47.502"><path d="M5.719-.094c-.016-.25-.016-.375-.016-.547 0-.14 0-.265.031-.671l-4.28.125.093.234 2.187-2.313C4.891-4.5 5.281-5.25 5.281-6.14 5.281-7.516 4.22-8.5 2.703-8.5c-.86 0-1.562.281-2.172.906L.312-5.766h.594l.188-.687c.203-.688.5-.86 1.297-.86 1.03 0 1.546.516 1.546 1.532 0 .89-.468 1.687-1.828 3.11L.047-.454v.5L2.859 0l2.875.047zm0 0"/></svg><svg overflow="visible" x="125.298" y="47.502"><path d="M3.703-5.516c-.453.047-.86.063-1.156.063.172-.984.297-1.578.531-2.25l-.25-.328a7.16 7.16 0 01-1.094.531l-.296 2.031c-.391.203-.704.328-1.063.407l-.047.406h1l-.64 3.25C.625-1.11.53-.813.53-.5c0 .297.266.61.5.61.422 0 .922-.282 1.86-1.032.218-.172.14-.125.437-.36l-.25-.437-.672.469c-.36.25-.484.313-.625.313-.093 0-.031.046-.031-.11 0-.297.156-1.234.516-3l.14-.61h1.266l.203-.89zm0 0"/></svg><svg overflow="visible" x="129.339" y="47.502"><path d="M4.984-1.14l-.156-.485c-.25.203-.266.219-.328.266-.375.312-.453.39-.625.39-.125 0-.047.031-.047-.156 0-.047 0-.078.016-.125l1.11-4.578-.25-.203-.438.218c-.438-.156-.672-.218-.985-.218-.344 0-.578.062-.906.218-.75.375-1.234.766-1.531 1.36l-.047.094C.28-3.297-.093-1.875-.093-.922c0 .516.327 1.047.546 1.047.25 0 .797-.281 1.234-.656.516-.453.985-1.016 1.641-1.938l-.234-.094-.344 1.516a2.715 2.715 0 00-.078.61c0 .265.25.562.437.562.266 0 .86-.36 1.891-1.219zM3.672-5.079c-.266 1.281-.453 1.797-.844 2.406C2.156-1.656 1.516-.969 1.125-.969c-.14 0-.078-.015-.078-.344 0-.765.297-2.093.719-3.093.296-.688.453-.766 1.03-.766.282 0 .5.047.86.172zm0 0"/></svg><svg overflow="visible" x="134.647" y="47.502"><path d="M6.234-1.25l-.171-.297-.454.297c-.343.219-.5.313-.625.313-.078 0-.03.03-.03-.11 0-.047.015-.187.03-.234l.782-3.297c.093-.344.14-.688.14-.89 0-.266-.265-.563-.5-.563-.5 0-1.437.5-2.14 1.156-.454.422-.797.828-1.407 1.703l.235.094.453-1.938c.047-.203.078-.343.078-.484 0-.25-.234-.531-.406-.531-.266 0-.828.312-1.703.922l-.391.296.172.485.547-.36c.437-.28.39-.265.469-.265.14 0 .078 0 .078.172 0 .61-.5 2.922-.985 4.656l.172.25c.36-.094.625-.172 1.016-.234.234-1.625.468-2.313 1-3.125.656-1.016 1.453-1.72 1.984-1.72.125 0 .063-.015.063.157 0 .219-.032.469-.141.86l-.61 2.53c-.109.438-.156.72-.156.907 0 .297.266.61.5.61.313 0 .829-.282 2.079-1.22zm0 0"/></svg><svg overflow="visible" x="143.278" y="47.502"><path d="M6.438-14.938l-.188-.14c-.063-.063-.11-.125-.219-.328-2.843 2.828-4.515 6.469-4.515 10.469v3.64c0 4 1.671 7.625 4.515 10.469.11-.203.157-.266.219-.328.063-.063.125-.11.313-.203-2.704-2.72-3.86-6.125-3.86-9.938v-3.64c0-3.813 1.156-7.235 3.86-9.938zm0 0"/></svg><svg overflow="visible" x="151.942" y="38.894"><path d="M7.422-4.094a2.021 2.021 0 00-.125-.765c-.156-.36-.766-1.172-1.078-1.172-.282 0-.703.125-.953.265-.47.266-1.047.704-1.36 1.047-.11.125-.25.453-.297.64l-.734 3.47c-.844-.079-1.266-.47-1.219-1.329.047-1.343.907-2.703 1.89-3.218.032-.016.235-.078.532-.11.156-.156.14-.156.266-.312-.047-.172-.219-.313-.25-.313-.266 0-.75.22-1.125.407-1.453.687-2.438 2.046-2.5 3.53C.406-.671 1.28.126 2.672.126c.078 0 .156 0 .031.031l-.64 2.5-.11.485.203.171a5.507 5.507 0 011.016-.234l.625-3.094c.469-.109 1.14-.359 1.625-.671 1.094-.72 1.937-2.172 2-3.407zm-1.188.203c-.062 1.157-.75 2.313-1.609 2.954-.266.171-.484.265-.688.296l.282-1.265c.187-.938.531-2.782.812-3.016.157-.187.407-.25.797-.25.328 0 .438.64.406 1.281zm0 0"/></svg><path d="M151.941 44.512h7.63" fill="none" stroke-width=".717" stroke="#000" stroke-miterlimit="10"/><svg overflow="visible" x="152.767" y="55.465"><path d="M5.719-.094c-.016-.25-.016-.375-.016-.547 0-.14 0-.265.031-.671l-4.28.125.093.234 2.187-2.313C4.891-4.5 5.281-5.25 5.281-6.14 5.281-7.516 4.22-8.5 2.703-8.5c-.86 0-1.562.281-2.172.906L.312-5.766h.594l.188-.687c.203-.688.5-.86 1.297-.86 1.03 0 1.546.516 1.546 1.532 0 .89-.468 1.687-1.828 3.11L.047-.454v.5L2.859 0l2.875.047zm0 0"/></svg><svg overflow="visible" x="160.765" y="47.502"><path d="M5.922-1.297v-3.64c0-4-1.672-7.641-4.516-10.47-.11.204-.156.266-.218.329-.047.047-.11.094-.297.203C3.578-12.172 4.75-8.75 4.75-4.937v3.64c0 3.813-1.172 7.219-3.86 9.938.188.093.25.14.297.203.063.062.11.125.22.328C4.25 6.328 5.921 2.703 5.921-1.297zm0 0"/></svg><svg overflow="visible" x="170.879" y="47.502"><path d="M8.266-2.766a1.332 1.332 0 01-.047-.359c0-.11.015-.234.062-.484h-3.25v-3.266c-.25.063-.375.078-.484.078-.125 0-.25-.016-.5-.078v3.266H.78c.063.25.063.375.063.484 0 .125 0 .25-.063.5h3.266V.641c.25-.063.375-.079.5-.079.11 0 .234.016.484.079v-3.266h3.25zm0 0"/></svg><svg overflow="visible" x="182.619" y="47.502"><path d="M4.125-5.703c-.469-.219-.797-.328-1.203-.328-.61 0-1.453.39-2.031.968a1.63 1.63 0 00-.47 1.157c0 .672.516 1.187 1.298 1.344l.75.14c.531.094.578.156.578.64 0 .798-.406 1.173-1.25 1.173-.438 0-.703-.094-1-.344v-1.078H.234C.172-1.297.094-.875-.046-.25.453 0 .968.125 1.39.125c.578 0 1.234-.25 1.843-.719.61-.484.891-1.015.891-1.625 0-.64-.5-1.11-1.406-1.281l-.5-.094c-.719-.14-.813-.203-.813-.703 0-.625.39-.984 1.078-.984.485 0 .844.172 1 .422v.765h.532c.062-.547.109-.86.25-1.531zm0 0"/></svg><svg overflow="visible" x="187.27" y="47.502"><path d="M2.969-1.25l-.172-.297-.453.297c-.36.234-.5.313-.625.313-.078 0-.016.03-.016-.11 0-.11 0-.203.078-.469l.922-3.64c.047-.203.063-.313.063-.422 0-.203-.22-.453-.422-.453-.266 0-.797.281-1.703.922l-.407.296.188.485.547-.36c.344-.218.375-.234.484-.234.11 0 .047-.031.047.11 0 .109-.047.359-.094.53L.625-1.405c-.11.375-.156.672-.156.922 0 .28.265.593.5.593.312 0 .844-.296 2.078-1.218zm.344-6.406c0-.282-.313-.61-.563-.61-.36 0-.844.516-.844.922 0 .297.328.625.625.625.375 0 .781-.484.781-.937zm0 0"/></svg><svg overflow="visible" x="190.785" y="47.502"><path d="M6.234-1.25l-.171-.297-.454.297c-.343.219-.5.313-.625.313-.078 0-.03.03-.03-.11 0-.047.015-.187.03-.234l.782-3.297c.093-.344.14-.688.14-.89 0-.266-.265-.563-.5-.563-.5 0-1.437.5-2.14 1.156-.454.422-.797.828-1.407 1.703l.235.094.453-1.938c.047-.203.078-.343.078-.484 0-.25-.234-.531-.406-.531-.266 0-.828.312-1.703.922l-.391.296.172.485.547-.36c.437-.28.39-.265.469-.265.14 0 .078 0 .078.172 0 .61-.5 2.922-.985 4.656l.172.25c.36-.094.625-.172 1.016-.234.234-1.625.468-2.313 1-3.125.656-1.016 1.453-1.72 1.984-1.72.125 0 .063-.015.063.157 0 .219-.032.469-.141.86l-.61 2.53c-.109.438-.156.72-.156.907 0 .297.266.61.5.61.313 0 .829-.282 2.079-1.22zm0 0"/></svg><svg overflow="visible" x="197.432" y="47.502"><path d="M4.203-7.828a.735.735 0 01-.187-.14c-.063-.063-.11-.126-.22-.329-1.593 1.61-2.5 3.266-2.5 4.781v.797c0 1.516.907 3.172 2.5 4.781.11-.203.157-.265.22-.328.062-.062.125-.109.312-.203C2.875.063 2.281-1.344 2.281-2.719v-.797c0-1.39.594-2.78 2.047-4.25zm0 0"/></svg><svg overflow="visible" x="202.501" y="47.502"><path d="M7.422-4.094a2.021 2.021 0 00-.125-.765c-.156-.36-.766-1.172-1.078-1.172-.282 0-.703.125-.953.265-.47.266-1.047.704-1.36 1.047-.11.125-.25.453-.297.64l-.734 3.47c-.844-.079-1.266-.47-1.219-1.329.047-1.343.907-2.703 1.89-3.218.032-.016.235-.078.532-.11.156-.156.14-.156.266-.312-.047-.172-.219-.313-.25-.313-.266 0-.75.22-1.125.407-1.453.687-2.438 2.046-2.5 3.53C.406-.671 1.28.126 2.672.126c.078 0 .156 0 .031.031l-.64 2.5-.11.485.203.171a5.507 5.507 0 011.016-.234l.625-3.094c.469-.109 1.14-.359 1.625-.671 1.094-.72 1.937-2.172 2-3.407zm-1.188.203c-.062 1.157-.75 2.313-1.609 2.954-.266.171-.484.265-.688.296l.282-1.265c.187-.938.531-2.782.812-3.016.157-.187.407-.25.797-.25.328 0 .438.64.406 1.281zm0 0"/></svg><svg overflow="visible" x="210.128" y="47.502"><path d="M3.766-2.719v-.797c0-1.515-.907-3.171-2.516-4.78-.11.202-.156.265-.203.327-.063.063-.125.11-.313.203 1.438 1.47 2.032 2.86 2.032 4.25v.797c0 1.375-.594 2.781-2.032 4.25.188.094.25.14.313.203.047.063.094.125.203.329C2.86.452 3.766-1.204 3.766-2.72zm0 0"/></svg><svg overflow="visible" x="215.197" y="47.502"><path d="M5.922-1.297v-3.64c0-4-1.672-7.641-4.516-10.47-.11.204-.156.266-.218.329-.047.047-.11.094-.297.203C3.578-12.172 4.75-8.75 4.75-4.937v3.64c0 3.813-1.172 7.219-3.86 9.938.188.093.25.14.297.203.063.062.11.125.22.328C4.25 6.328 5.921 2.703 5.921-1.297zm0 0"/></svg><svg overflow="visible" x="225.311" y="47.502"><path d="M8.266-2.766a1.332 1.332 0 01-.047-.359c0-.11.015-.234.062-.484h-7.5c.063.25.063.375.063.484 0 .125 0 .25-.063.5h7.5zm0 0"/></svg><svg overflow="visible" x="237.063" y="47.502"><path d="M4.125-5.703c-.469-.219-.797-.328-1.203-.328-.61 0-1.453.39-2.031.968a1.63 1.63 0 00-.47 1.157c0 .672.516 1.187 1.298 1.344l.75.14c.531.094.578.156.578.64 0 .798-.406 1.173-1.25 1.173-.438 0-.703-.094-1-.344v-1.078H.234C.172-1.297.094-.875-.046-.25.453 0 .968.125 1.39.125c.578 0 1.234-.25 1.843-.719.61-.484.891-1.015.891-1.625 0-.64-.5-1.11-1.406-1.281l-.5-.094c-.719-.14-.813-.203-.813-.703 0-.625.39-.984 1.078-.984.485 0 .844.172 1 .422v.765h.532c.062-.547.109-.86.25-1.531zm0 0"/></svg><svg overflow="visible" x="241.714" y="47.502"><path d="M2.969-1.25l-.172-.297-.453.297c-.36.234-.5.313-.625.313-.078 0-.016.03-.016-.11 0-.11 0-.203.078-.469l.922-3.64c.047-.203.063-.313.063-.422 0-.203-.22-.453-.422-.453-.266 0-.797.281-1.703.922l-.407.296.188.485.547-.36c.344-.218.375-.234.484-.234.11 0 .047-.031.047.11 0 .109-.047.359-.094.53L.625-1.405c-.11.375-.156.672-.156.922 0 .28.265.593.5.593.312 0 .844-.296 2.078-1.218zm.344-6.406c0-.282-.313-.61-.563-.61-.36 0-.844.516-.844.922 0 .297.328.625.625.625.375 0 .781-.484.781-.937zm0 0"/></svg><svg overflow="visible" x="245.228" y="47.502"><path d="M6.234-1.25l-.171-.297-.454.297c-.343.219-.5.313-.625.313-.078 0-.03.03-.03-.11 0-.047.015-.187.03-.234l.782-3.297c.093-.344.14-.688.14-.89 0-.266-.265-.563-.5-.563-.5 0-1.437.5-2.14 1.156-.454.422-.797.828-1.407 1.703l.235.094.453-1.938c.047-.203.078-.343.078-.484 0-.25-.234-.531-.406-.531-.266 0-.828.312-1.703.922l-.391.296.172.485.547-.36c.437-.28.39-.265.469-.265.14 0 .078 0 .078.172 0 .61-.5 2.922-.985 4.656l.172.25c.36-.094.625-.172 1.016-.234.234-1.625.468-2.313 1-3.125.656-1.016 1.453-1.72 1.984-1.72.125 0 .063-.015.063.157 0 .219-.032.469-.141.86l-.61 2.53c-.109.438-.156.72-.156.907 0 .297.266.61.5.61.313 0 .829-.282 2.079-1.22zm0 0"/></svg><svg overflow="visible" x="251.876" y="47.502"><path d="M4.203-7.828a.735.735 0 01-.187-.14c-.063-.063-.11-.126-.22-.329-1.593 1.61-2.5 3.266-2.5 4.781v.797c0 1.516.907 3.172 2.5 4.781.11-.203.157-.265.22-.328.062-.062.125-.109.312-.203C2.875.063 2.281-1.344 2.281-2.719v-.797c0-1.39.594-2.78 2.047-4.25zm0 0"/></svg><svg overflow="visible" x="258.14" y="38.894"><path d="M7.422-4.094a2.021 2.021 0 00-.125-.765c-.156-.36-.766-1.172-1.078-1.172-.282 0-.703.125-.953.265-.47.266-1.047.704-1.36 1.047-.11.125-.25.453-.297.64l-.734 3.47c-.844-.079-1.266-.47-1.219-1.329.047-1.343.907-2.703 1.89-3.218.032-.016.235-.078.532-.11.156-.156.14-.156.266-.312-.047-.172-.219-.313-.25-.313-.266 0-.75.22-1.125.407-1.453.687-2.438 2.046-2.5 3.53C.406-.671 1.28.126 2.672.126c.078 0 .156 0 .031.031l-.64 2.5-.11.485.203.171a5.507 5.507 0 011.016-.234l.625-3.094c.469-.109 1.14-.359 1.625-.671 1.094-.72 1.937-2.172 2-3.407zm-1.188.203c-.062 1.157-.75 2.313-1.609 2.954-.266.171-.484.265-.688.296l.282-1.265c.187-.938.531-2.782.812-3.016.157-.187.407-.25.797-.25.328 0 .438.64.406 1.281zm0 0"/></svg><path d="M258.14 44.512h7.626" fill="none" stroke-width=".717" stroke="#000" stroke-miterlimit="10"/><svg overflow="visible" x="258.965" y="55.465"><path d="M5.719-.094c-.016-.25-.016-.375-.016-.547 0-.14 0-.265.031-.671l-4.28.125.093.234 2.187-2.313C4.891-4.5 5.281-5.25 5.281-6.14 5.281-7.516 4.22-8.5 2.703-8.5c-.86 0-1.562.281-2.172.906L.312-5.766h.594l.188-.687c.203-.688.5-.86 1.297-.86 1.03 0 1.546.516 1.546 1.532 0 .89-.468 1.687-1.828 3.11L.047-.454v.5L2.859 0l2.875.047zm0 0"/></svg><svg overflow="visible" x="266.963" y="47.502"><path d="M3.766-2.719v-.797c0-1.515-.907-3.171-2.516-4.78-.11.202-.156.265-.203.327-.063.063-.125.11-.313.203 1.438 1.47 2.032 2.86 2.032 4.25v.797c0 1.375-.594 2.781-2.032 4.25.188.094.25.14.313.203.047.063.094.125.203.329C2.86.452 3.766-1.204 3.766-2.72zm0 0"/></svg><svg overflow="visible" x="275.009" y="47.502"><path d="M2.703-1.531L2.47-1.75c-.36.125-.563.203-1.328.406C1.047-.328.78.344.016 1.625l.312.25.61-.281C1.905.328 2.405-.516 2.75-1.47zm0 0"/></svg><svg overflow="visible" x="33.237" y="70.673"><path d="M5.875-.906a2.838 2.838 0 01-.047-.5c0-.188.016-.344.094-.828-.625.484-.938.765-1.016.828v-6.36c-.25.063-.36.063-.484.063-.125 0-.234 0-.5-.063v7.36a6.44 6.44 0 00-.578.656c-.125-.172-.375-.438-.578-.656v-7.36c-.25.063-.375.063-.5.063-.11 0-.235 0-.5-.063v6.36c-.063-.063-.375-.344-1-.828.078.484.078.64.078.828 0 .156 0 .328-.047.562a16.35 16.35 0 012.547 2.547c.797-1 1.61-1.812 2.531-2.547zm0 0"/></svg><svg overflow="visible" x="6.042" y="99.396"><path d="M5.875-8.86l-.219-.187c-.75.375-1.078.438-2.062.531l-.094.5h.75c.281 0 .25-.046.25.157 0 .109 0 .203-.016.296L4.188-5.89a3.109 3.109 0 00-.875-.14c-.829 0-2.063.906-2.61 1.937-.375.703-.64 1.938-.64 2.938C.063-.375.374.125.734.125c.313 0 .86-.234 1.266-.563.64-.515 1.031-.984 1.844-2.187l-.25-.094-.266 1.078c-.14.532-.203.907-.203 1.22 0 .25.25.546.453.546.219 0 .594-.203 1-.5l1.047-.766-.266-.468-.656.468c-.172.125-.25.172-.36.172-.093 0-.046.031-.046-.14 0-.094.031-.204.11-.547l1.515-7.157zM4.031-5.03l-.14.703A5.233 5.233 0 012.375-1.61c-.422.39-.781.64-1.016.64-.187 0-.171-.031-.171-.328 0-1.516.515-3.281 1.109-3.734.156-.125.281-.14.61-.14.53 0 .765.03 1.109.218zm0 0"/></svg><svg overflow="visible" x="12.139" y="99.396"><path d="M4.203-7.828a.735.735 0 01-.187-.14c-.063-.063-.11-.126-.22-.329-1.593 1.61-2.5 3.266-2.5 4.781v.797c0 1.516.907 3.172 2.5 4.781.11-.203.157-.265.22-.328.062-.062.125-.109.312-.203C2.875.063 2.281-1.344 2.281-2.719v-.797c0-1.39.594-2.78 2.047-4.25zm0 0"/></svg><svg overflow="visible" x="17.208" y="99.396"><path d="M7.422-4.094a2.021 2.021 0 00-.125-.765c-.156-.36-.766-1.172-1.078-1.172-.282 0-.703.125-.953.265-.47.266-1.047.704-1.36 1.047-.11.125-.25.453-.297.64l-.734 3.47c-.844-.079-1.266-.47-1.219-1.329.047-1.343.907-2.703 1.89-3.218.032-.016.235-.078.532-.11.156-.156.14-.156.266-.312-.047-.172-.219-.313-.25-.313-.266 0-.75.22-1.125.407-1.453.687-2.438 2.046-2.5 3.53C.406-.671 1.28.126 2.672.126c.078 0 .156 0 .031.031l-.64 2.5-.11.485.203.171a5.507 5.507 0 011.016-.234l.625-3.094c.469-.109 1.14-.359 1.625-.671 1.094-.72 1.937-2.172 2-3.407zm-1.188.203c-.062 1.157-.75 2.313-1.609 2.954-.266.171-.484.265-.688.296l.282-1.265c.187-.938.531-2.782.812-3.016.157-.187.407-.25.797-.25.328 0 .438.64.406 1.281zm0 0"/></svg><svg overflow="visible" x="24.836" y="99.396"><path d="M3.766-2.719v-.797c0-1.515-.907-3.171-2.516-4.78-.11.202-.156.265-.203.327-.063.063-.125.11-.313.203 1.438 1.47 2.032 2.86 2.032 4.25v.797c0 1.375-.594 2.781-2.032 4.25.188.094.25.14.313.203.047.063.094.125.203.329C2.86.452 3.766-1.204 3.766-2.72zm0 0"/></svg><svg overflow="visible" x="33.228" y="99.396"><path d="M8.266-4.078a1.419 1.419 0 01-.047-.36c0-.109.015-.234.062-.484h-7.5c.063.25.063.375.063.484 0 .125 0 .235-.063.5h7.5zm0 2.625a1.332 1.332 0 01-.047-.36c0-.109.015-.234.062-.484h-7.5c.063.25.063.375.063.485 0 .125 0 .25-.063.5h7.5zm0 0"/></svg><svg overflow="visible" x="45.645" y="99.279"><path d="M9.063-11.61v-.843H7.14L4.67 3.422h.282l-1.594-6H1.297v.969h.828l1.969 7.484c.281-.047.437-.047.61-.047.155 0 .312 0 .577.047l2.703-17.344h1.079zm0 0"/></svg><path d="M54.215 87.441h37.613" fill="none" stroke-width=".717" stroke="#000" stroke-miterlimit="10"/><svg overflow="visible" x="54.216" y="99.396"><path d="M5.875-8.86l-.219-.187c-.75.375-1.078.438-2.062.531l-.094.5h.75c.281 0 .25-.046.25.157 0 .109 0 .203-.016.296L4.188-5.89a3.109 3.109 0 00-.875-.14c-.829 0-2.063.906-2.61 1.937-.375.703-.64 1.938-.64 2.938C.063-.375.374.125.734.125c.313 0 .86-.234 1.266-.563.64-.515 1.031-.984 1.844-2.187l-.25-.094-.266 1.078c-.14.532-.203.907-.203 1.22 0 .25.25.546.453.546.219 0 .594-.203 1-.5l1.047-.766-.266-.468-.656.468c-.172.125-.25.172-.36.172-.093 0-.046.031-.046-.14 0-.094.031-.204.11-.547l1.515-7.157zM4.031-5.03l-.14.703A5.233 5.233 0 012.375-1.61c-.422.39-.781.64-1.016.64-.187 0-.171-.031-.171-.328 0-1.516.515-3.281 1.109-3.734.156-.125.281-.14.61-.14.53 0 .765.03 1.109.218zm0 0"/></svg><svg overflow="visible" x="60.326" y="95.857"><path d="M4.75-.11c-.016-.187-.016-.265-.016-.39s0-.203.032-.547l-3.141.094 1.5-1.469c.938-.906 1.266-1.5 1.266-2.156 0-1.016-.891-1.781-2.125-1.781-.688 0-1.282.218-1.782.687L.297-4.266h.547l.172-.546c.156-.516.359-.594 1-.594.828 0 1.203.343 1.203 1.093 0 .657-.36 1.22-1.453 2.282L.078-.391v.422L2.391 0l2.375.031zm0 0"/></svg><svg overflow="visible" x="60.194" y="102.17"><path d="M4.86-4.406c-.126-.063-.313-.125-.391-.125-.39 0-.89.36-1.485 1.172l-.359.484.266.094-.063-.422c-.11-.875-.515-1.328-1.094-1.328-.25 0-.578.11-.671.218l-.641.875.406.22c.36-.376.453-.454.625-.454.328 0 .375.219.531 1.094l.11.515-.328.485c-.422.594-.641.828-.907.828-.14 0-.093.11-.109.063l-.172-.407-.453.063c0 .297-.016.406-.078.687-.016.11-.016.14-.031.266.187.11.468.172.578.172.312 0 .797-.281 1.094-.703l.734-1.032-.266-.109.11.625c.125.75.5 1.219.843 1.219.22 0 .625-.188.938-.438l.531-.437-.203-.438c-.516.39-.64.485-.781.485-.156 0-.172-.047-.266-.235-.094-.156-.156-.39-.203-.656l-.172-.844.297-.375c.453-.578.61-.75.906-.75.157 0 .11-.062.219.235l.36-.094.187-.922zm0 0"/></svg><svg overflow="visible" x="68.479" y="99.396"><path d="M8.266-2.766a1.332 1.332 0 01-.047-.359c0-.11.015-.234.062-.484h-3.25v-3.266c-.25.063-.375.078-.484.078-.125 0-.25-.016-.5-.078v3.266H.78c.063.25.063.375.063.484 0 .125 0 .25-.063.5h3.266V.641c.25-.063.375-.079.5-.079.11 0 .234.016.484.079v-3.266h3.25zm0 0"/></svg><g><svg overflow="visible" x="80.219" y="99.396"><path d="M5.875-8.86l-.219-.187c-.75.375-1.078.438-2.062.531l-.094.5h.75c.281 0 .25-.046.25.157 0 .109 0 .203-.016.296L4.188-5.89a3.109 3.109 0 00-.875-.14c-.829 0-2.063.906-2.61 1.937-.375.703-.64 1.938-.64 2.938C.063-.375.374.125.734.125c.313 0 .86-.234 1.266-.563.64-.515 1.031-.984 1.844-2.187l-.25-.094-.266 1.078c-.14.532-.203.907-.203 1.22 0 .25.25.546.453.546.219 0 .594-.203 1-.5l1.047-.766-.266-.468-.656.468c-.172.125-.25.172-.36.172-.093 0-.046.031-.046-.14 0-.094.031-.204.11-.547l1.515-7.157zM4.031-5.03l-.14.703A5.233 5.233 0 012.375-1.61c-.422.39-.781.64-1.016.64-.187 0-.171-.031-.171-.328 0-1.516.515-3.281 1.109-3.734.156-.125.281-.14.61-.14.53 0 .765.03 1.109.218zm0 0"/></svg></g><g><svg overflow="visible" x="86.331" y="95.857"><path d="M4.75-.11c-.016-.187-.016-.265-.016-.39s0-.203.032-.547l-3.141.094 1.5-1.469c.938-.906 1.266-1.5 1.266-2.156 0-1.016-.891-1.781-2.125-1.781-.688 0-1.282.218-1.782.687L.297-4.266h.547l.172-.546c.156-.516.359-.594 1-.594.828 0 1.203.343 1.203 1.093 0 .657-.36 1.22-1.453 2.282L.078-.391v.422L2.391 0l2.375.031zm0 0"/></svg></g><g><svg overflow="visible" x="86.2" y="102.17"><path d="M4.922-4.406l-.188-.14a3.25 3.25 0 01-.875.202L3.5-3.062c-.125.421-.406.968-.734 1.406-.329.437-.688.797-.907.797-.203 0-.03-.297-.03-.407l.14-1.718c.015-.266.047-.61.047-.86 0-.39-.22-.687-.391-.687-.125 0-.375.093-.828.39l-.89.563.265.375.64-.36c.047-.03.063-.062.141-.062.235 0 .047.313.031.453L.828-1.016l-.015.36c0 .36.343.75.578.75.359 0 1.265-.781 2-1.782l-.266-.093-.484 1.5c-.485 1.578-.813 2.078-1.485 2.078-.328 0-.453-.094-.453-.406 0-.047.016-.11.047-.266l-.297-.11-.578.376c-.031.125-.031.187-.031.234 0 .375.531.813.969.813 1.015 0 2.218-1.22 2.78-2.86l1.391-3.937zm0 0"/></svg></g><g><svg overflow="visible" x="95.149" y="99.396"><path d="M8.266-4.078a1.419 1.419 0 01-.047-.36c0-.109.015-.234.062-.484h-7.5c.063.25.063.375.063.484 0 .125 0 .235-.063.5h7.5zm0 2.625a1.332 1.332 0 01-.047-.36c0-.109.015-.234.062-.484h-7.5c.063.25.063.375.063.485 0 .125 0 .25-.063.5h7.5zm0 0"/></svg></g><g><svg overflow="visible" x="110.535" y="99.396"><path d="M2.313-.766c0-.359-.454-.828-.829-.828-.359 0-.828.469-.828.828 0 .36.469.829.813.829.39 0 .843-.454.843-.829zm0 0"/></svg><svg overflow="visible" x="113.524" y="99.396"><path d="M2.313-.766c0-.359-.454-.828-.829-.828-.359 0-.828.469-.828.828 0 .36.469.829.813.829.39 0 .843-.454.843-.829zm0 0"/></svg><svg overflow="visible" x="116.513" y="99.396"><path d="M2.313-.766c0-.359-.454-.828-.829-.828-.359 0-.828.469-.828.828 0 .36.469.829.813.829.39 0 .843-.454.843-.829zm0 0"/></svg></g><g><svg overflow="visible" x="125.814" y="99.396"><path d="M8.266-4.078a1.419 1.419 0 01-.047-.36c0-.109.015-.234.062-.484h-7.5c.063.25.063.375.063.484 0 .125 0 .235-.063.5h7.5zm0 2.625a1.332 1.332 0 01-.047-.36c0-.109.015-.234.062-.484h-7.5c.063.25.063.375.063.485 0 .125 0 .25-.063.5h7.5zm0 0"/></svg></g><g><svg overflow="visible" x="138.224" y="99.396"><path d="M5.719-.094c-.016-.25-.016-.375-.016-.547 0-.14 0-.265.031-.671l-4.28.125.093.234 2.187-2.313C4.891-4.5 5.281-5.25 5.281-6.14 5.281-7.516 4.22-8.5 2.703-8.5c-.86 0-1.562.281-2.172.906L.312-5.766h.594l.188-.687c.203-.688.5-.86 1.297-.86 1.03 0 1.546.516 1.546 1.532 0 .89-.468 1.687-1.828 3.11L.047-.454v.5L2.859 0l2.875.047zm0 0"/></svg><svg overflow="visible" x="144.201" y="99.396"><path d="M4.125-5.703c-.469-.219-.797-.328-1.203-.328-.61 0-1.453.39-2.031.968a1.63 1.63 0 00-.47 1.157c0 .672.516 1.187 1.298 1.344l.75.14c.531.094.578.156.578.64 0 .798-.406 1.173-1.25 1.173-.438 0-.703-.094-1-.344v-1.078H.234C.172-1.297.094-.875-.046-.25.453 0 .968.125 1.39.125c.578 0 1.234-.25 1.843-.719.61-.484.891-1.015.891-1.625 0-.64-.5-1.11-1.406-1.281l-.5-.094c-.719-.14-.813-.203-.813-.703 0-.625.39-.984 1.078-.984.485 0 .844.172 1 .422v.765h.532c.062-.547.109-.86.25-1.531zm0 0"/></svg><svg overflow="visible" x="148.852" y="99.396"><path d="M2.969-1.25l-.172-.297-.453.297c-.36.234-.5.313-.625.313-.078 0-.016.03-.016-.11 0-.11 0-.203.078-.469l.922-3.64c.047-.203.063-.313.063-.422 0-.203-.22-.453-.422-.453-.266 0-.797.281-1.703.922l-.407.296.188.485.547-.36c.344-.218.375-.234.484-.234.11 0 .047-.031.047.11 0 .109-.047.359-.094.53L.625-1.405c-.11.375-.156.672-.156.922 0 .28.265.593.5.593.312 0 .844-.296 2.078-1.218zm.344-6.406c0-.282-.313-.61-.563-.61-.36 0-.844.516-.844.922 0 .297.328.625.625.625.375 0 .781-.484.781-.937zm0 0"/></svg></g><g><svg overflow="visible" x="152.367" y="99.396"><path d="M6.234-1.25l-.171-.297-.454.297c-.343.219-.5.313-.625.313-.078 0-.03.03-.03-.11 0-.047.015-.187.03-.234l.782-3.297c.093-.344.14-.688.14-.89 0-.266-.265-.563-.5-.563-.5 0-1.437.5-2.14 1.156-.454.422-.797.828-1.407 1.703l.235.094.453-1.938c.047-.203.078-.343.078-.484 0-.25-.234-.531-.406-.531-.266 0-.828.312-1.703.922l-.391.296.172.485.547-.36c.437-.28.39-.265.469-.265.14 0 .078 0 .078.172 0 .61-.5 2.922-.985 4.656l.172.25c.36-.094.625-.172 1.016-.234.234-1.625.468-2.313 1-3.125.656-1.016 1.453-1.72 1.984-1.72.125 0 .063-.015.063.157 0 .219-.032.469-.141.86l-.61 2.53c-.109.438-.156.72-.156.907 0 .297.266.61.5.61.313 0 .829-.282 2.079-1.22zm0 0"/></svg></g><g><svg overflow="visible" x="159.018" y="95.164"><path d="M4.781-.11V-.5l-.61-.031c-.468-.031-.421-.016-.421-.531v-.532c.422 0 .625 0 1.031.047v-.781l-.047.094s-.562-.204-.875-.204H3.75V-3.53c0-1.578.016-2.328.078-2.766l-.281-.11-.813.282-2.796 4.172.187.36h2.5v.53c0 .516.047.516-.422.532l-.75.031v.531L3.172 0l1.61.031zm-2-2.328H.97L2.89-5.312l-.266-.094v2.968zm0 0"/></svg></g><g><svg overflow="visible" x="164.515" y="99.396"><path d="M4.203-7.828a.735.735 0 01-.187-.14c-.063-.063-.11-.126-.22-.329-1.593 1.61-2.5 3.266-2.5 4.781v.797c0 1.516.907 3.172 2.5 4.781.11-.203.157-.265.22-.328.062-.062.125-.109.312-.203C2.875.063 2.281-1.344 2.281-2.719v-.797c0-1.39.594-2.78 2.047-4.25zm0 0"/></svg></g><g><svg overflow="visible" x="170.779" y="90.788"><path d="M7.422-4.094a2.021 2.021 0 00-.125-.765c-.156-.36-.766-1.172-1.078-1.172-.282 0-.703.125-.953.265-.47.266-1.047.704-1.36 1.047-.11.125-.25.453-.297.64l-.734 3.47c-.844-.079-1.266-.47-1.219-1.329.047-1.343.907-2.703 1.89-3.218.032-.016.235-.078.532-.11.156-.156.14-.156.266-.312-.047-.172-.219-.313-.25-.313-.266 0-.75.22-1.125.407-1.453.687-2.438 2.046-2.5 3.53C.406-.671 1.28.126 2.672.126c.078 0 .156 0 .031.031l-.64 2.5-.11.485.203.171a5.507 5.507 0 011.016-.234l.625-3.094c.469-.109 1.14-.359 1.625-.671 1.094-.72 1.937-2.172 2-3.407zm-1.188.203c-.062 1.157-.75 2.313-1.609 2.954-.266.171-.484.265-.688.296l.282-1.265c.187-.938.531-2.782.812-3.016.157-.187.407-.25.797-.25.328 0 .438.64.406 1.281zm0 0"/></svg></g><path d="M170.777 96.406h7.63" fill="none" stroke-width=".717" stroke="#000" stroke-miterlimit="10"/><g><svg overflow="visible" x="171.604" y="107.359"><path d="M5.766-.094v-.484l-.704-.047c-.578-.031-.578-.063-.578-.781v-.75c.579 0 .829 0 1.282.062v-1L5.734-3s-.671-.188-1.062-.188h-.188v-1.53c0-2.126.016-3.157.094-3.72l-.281-.124-.984.343-3.438 5.64.203.423h3.125v.75c0 .718.016.765-.578.781l-.875.047v.625L3.813 0l1.953.047zM3.344-3.188H1l2.438-3.984-.235-.094v4.079zm0 0"/></svg></g><g><svg overflow="visible" x="179.602" y="99.396"><path d="M3.766-2.719v-.797c0-1.515-.907-3.171-2.516-4.78-.11.202-.156.265-.203.327-.063.063-.125.11-.313.203 1.438 1.47 2.032 2.86 2.032 4.25v.797c0 1.375-.594 2.781-2.032 4.25.188.094.25.14.313.203.047.063.094.125.203.329C2.86.452 3.766-1.204 3.766-2.72zm0 0"/></svg></g><g><svg overflow="visible" x="184.671" y="100.511"><path d="M9.688-20.219v-.843h-3.25v31.406h.265L3.36-3.437H1.297v.968h.828l4.094 16.953c.265-.046.422-.062.593-.062.157 0 .329.015.61.062v-34.562h2.266zm0 0"/></svg></g><path d="M193.879 80.066h41.684" fill="none" stroke-width=".717" stroke="#000" stroke-miterlimit="10"/><g><svg overflow="visible" x="211.731" y="90.788"><path d="M5.125-.094v-.484l-.75-.047c-.656-.031-.64-.031-.64-.656v-7.172l-.313-.125c-.875.469-1.61.781-2.86 1.219l.125.718h.235l1.547-.687.031-.016c.063 0-.047-.015-.047.266v5.797c0 .625.016.625-.64.656L1-.578v.625L3.125 0l2 .047zm0 0"/></svg></g><path d="M195.07 96.406h39.297" fill="none" stroke-width=".717" stroke="#000" stroke-miterlimit="10"/><g><svg overflow="visible" x="195.072" y="109.794"><path d="M4.75-5.703c-.297-.188-.797-.328-1.25-.328-.531 0-1.484.468-2.172 1.062C.641-4.375.156-3.03.156-1.75.156-.61.796.125 1.75.125c.656 0 1.328-.266 1.984-.813l.657-.53-.204-.485-.343.219c-.86.578-1.203.75-1.625.75-.672 0-.875-.36-.875-1.297 0-1.266.36-2.406.937-2.875.25-.203.453-.266.844-.266.531 0 .813.094.813.375v.86h.546c.11-.922.188-1.36.329-1.735zm0 0"/></svg></g><g><svg overflow="visible" x="200.057" y="109.794"><path d="M5.047-4.094c0-1.125-.734-1.937-1.719-1.937-.515 0-1.187.25-1.719.625-.968.703-1.546 2-1.546 3.453C.063-.687.734.125 1.734.125c.657 0 1.47-.344 2-.844.75-.703 1.313-2.156 1.313-3.375zm-1.188.203C3.86-2.75 3.531-1.578 3-.937c-.219.25-.422.359-.781.359-.703 0-.969-.406-.969-1.36 0-1.343.422-2.718 1.016-3.203.156-.125.328-.171.609-.171.734 0 .984.406.984 1.421zm0 0"/></svg><svg overflow="visible" x="205.365" y="109.794"><path d="M4.125-5.703c-.469-.219-.797-.328-1.203-.328-.61 0-1.453.39-2.031.968a1.63 1.63 0 00-.47 1.157c0 .672.516 1.187 1.298 1.344l.75.14c.531.094.578.156.578.64 0 .798-.406 1.173-1.25 1.173-.438 0-.703-.094-1-.344v-1.078H.234C.172-1.297.094-.875-.046-.25.453 0 .968.125 1.39.125c.578 0 1.234-.25 1.843-.719.61-.484.891-1.015.891-1.625 0-.64-.5-1.11-1.406-1.281l-.5-.094c-.719-.14-.813-.203-.813-.703 0-.625.39-.984 1.078-.984.485 0 .844.172 1 .422v.765h.532c.062-.547.109-.86.25-1.531zm0 0"/></svg></g><g><svg overflow="visible" x="210.016" y="106.255"><path d="M4.75-.11c-.016-.187-.016-.265-.016-.39s0-.203.032-.547l-3.141.094 1.5-1.469c.938-.906 1.266-1.5 1.266-2.156 0-1.016-.891-1.781-2.125-1.781-.688 0-1.282.218-1.782.687L.297-4.266h.547l.172-.546c.156-.516.359-.594 1-.594.828 0 1.203.343 1.203 1.093 0 .657-.36 1.22-1.453 2.282L.078-.391v.422L2.391 0l2.375.031zm0 0"/></svg></g><g><svg overflow="visible" x="215.513" y="109.794"><path d="M4.203-7.828a.735.735 0 01-.187-.14c-.063-.063-.11-.126-.22-.329-1.593 1.61-2.5 3.266-2.5 4.781v.797c0 1.516.907 3.172 2.5 4.781.11-.203.157-.265.22-.328.062-.062.125-.109.312-.203C2.875.063 2.281-1.344 2.281-2.719v-.797c0-1.39.594-2.78 2.047-4.25zm0 0"/></svg></g><g><svg overflow="visible" x="221.777" y="102.943"><path d="M6.125-3.063c0-.203-.047-.39-.11-.562-.109-.266-.656-.906-.906-.906-.234 0-.468.062-1.046.328-.141.078-.594.406-.86.64a1.58 1.58 0 00-.25.516L2.375-.53c-.656-.047-.938-.297-.922-.938.063-.984.64-1.937 1.39-2.312a2.19 2.19 0 01.548-.125c.14-.11.125-.11.234-.266-.016-.125-.219-.266-.234-.266-.22 0-.594.172-.907.313-1.171.516-2 1.547-2.062 2.64C.375-.53 1.109.095 2.25.095c.047 0 .11 0-.047.031L1.72 1.922l-.094.375.172.156c.25-.078.453-.125.875-.187l.515-2.282a5.739 5.739 0 001.313-.5c.875-.53 1.578-1.64 1.625-2.546zm-1.063.141c-.046.86-.578 1.688-1.28 2.156-.204.141-.345.204-.47.204l.22-.875c.14-.704.405-2.032.655-2.22.125-.124.282-.171.594-.171.266 0 .313.437.282.906zm0 0"/></svg></g><path d="M221.777 106.805h6.325" fill="none" stroke-width=".717" stroke="#000" stroke-miterlimit="10"/><g><svg overflow="visible" x="222.441" y="114.321"><path d="M4.75-.11c-.016-.187-.016-.265-.016-.39s0-.203.032-.547l-3.141.094 1.5-1.469c.938-.906 1.266-1.5 1.266-2.156 0-1.016-.891-1.781-2.125-1.781-.688 0-1.282.218-1.782.687L.297-4.266h.547l.172-.546c.156-.516.359-.594 1-.594.828 0 1.203.343 1.203 1.093 0 .657-.36 1.22-1.453 2.282L.078-.391v.422L2.391 0l2.375.031zm0 0"/></svg></g><g><svg overflow="visible" x="229.298" y="109.794"><path d="M3.766-2.719v-.797c0-1.515-.907-3.171-2.516-4.78-.11.202-.156.265-.203.327-.063.063-.125.11-.313.203 1.438 1.47 2.032 2.86 2.032 4.25v.797c0 1.375-.594 2.781-2.032 4.25.188.094.25.14.313.203.047.063.094.125.203.329C2.86.452 3.766-1.204 3.766-2.72zm0 0"/></svg></g></svg>