<svg xmlns="http://www.w3.org/2000/svg" xmlns:xlink="http://www.w3.org/1999/xlink" width="268" height="60" viewBox="0 0 201 45"><svg overflow="visible" x=".111" y="26.293"><path d="M7.594-3.766c0-.937-.657-1.78-1.563-1.78-1.734 0-2.656 2.452-3.312 4.609-1.14-.204-1.625-.735-1.625-1.594 0-.344.218-1.563.937-2.375.094-.11.094-.157.094-.157l.063-.093c0-.063-.22-.266-.329-.266-.343 0-1.468 1.875-1.468 3.016 0 1.125 1 2.125 2.046 2.375l-.609 1.937c-.047.157-.062.172-.062.235 0 .265.437.468.546.468.063 0 .516-.171.641-.453.031-.094.094-.484.39-2.031h.235c1.985 0 4.016-2 4.016-3.89zm-.735.266c0 1.344-1.343 2.672-3.171 2.672-.11 0-.126 0-.22-.016-.14 0 .032.125.032.094l.234-1.297C4.11-3.578 4.86-4.594 5.922-4.594c.812 0 .937.516.937 1.094zm0 0"/></svg><svg overflow="visible" x="11.241" y="26.293"><path d="M8.828-4.281c0-.125-.312-.375-.437-.375H.906c-.125 0-.437.25-.437.375 0 .14.312.375.437.375h7.485c.125 0 .437-.235.437-.375zm0 2.328c0-.14-.312-.375-.437-.375H.906c-.125 0-.437.234-.437.375 0 .125.312.36.437.36h7.485c.125 0 .437-.235.437-.36zm0 0"/></svg><svg overflow="visible" x="23.866" y="26.293"><path d="M5.828-2.11v-.5H4.625v-5.296c0-.25-.188-.453-.375-.453-.11 0-.297.046-.39.187L.124-2.469v.5h3.188v.907c0 .421.171.421-.704.421h-.453v.672C2.844-.03 3.47-.03 3.97-.03s1.14 0 1.812.062V-.64h-.437c-.89 0-.719 0-.719-.421v-.907h1.203zm-2.25-.5H.953L3.72-6.843l-.344-.093v4.328zm0 0"/></svg><svg overflow="visible" x="32.498" y="26.293"><path d="M2.484-3.125c0-.344-.468-.766-.828-.766-.343 0-.828.422-.828.766 0 .36.485.766.828.766.36 0 .828-.407.828-.766zm0 0"/></svg><svg overflow="visible" x="38.487" y="26.293"><path d="M6.14-1.844c0-.11-.296-.25-.327-.25-.125 0-.344.188-.375.344-.204.781-.22 1.36-.704 1.36-.328 0-.171-.188-.171-.422 0-.266.03-.36.156-.891l.265-1.063.438-1.687c.078-.328.078-.36.078-.406 0-.204-.344-.454-.547-.454-.281 0-.656.407-.703.657h.406c-.218-.438-.765-.89-1.297-.89-1.406 0-3.078 1.89-3.078 3.64 0 1.125.86 2.031 1.781 2.031.25 0 .97-.078 1.422-.61.032.094.657.61 1.22.61.421 0 .827-.297 1.015-.688l.062-.093c.203-.438.297-1.094.297-1.094zm-2.03-2.25c0 .063-.016.14-.032.203l-.594 2.344c-.062.203 0 .14-.187.344-.531.656-.875.812-1.203.812-.594 0-.578-.53-.578-1 0-.593.328-1.968.593-2.515.375-.703.782-1.11 1.266-1.11.766 0 .734.844.734.922zm0 0"/></svg><svg overflow="visible" x="44.811" y="26.293"><path d="M5.406-4.64c0-.423-.578-.907-1.187-.907-.782 0-1.453.625-1.672.953l.328.094c-.094-.531-.719-1.047-1.266-1.047-.562 0-.921.5-1.03.719C.358-4.422.14-3.61.14-3.578c0 .125.484.219.484.219l-.14.03c.124 0 .328-.14.406-.405.203-.844.25-1.282.671-1.282.204 0 .172-.046.172.407 0 .265-.03.39-.187 1.015L.844-.844c-.031.188-.11.469-.11.516 0 .219.375.453.563.453.14 0 .547-.219.656-.547-.062.14.406-1.594.453-1.797l.375-1.562c.047-.156.328-.625.61-.875.093-.094.312-.36.828-.36.312 0 .64.11.64.11l-.14-.235c-.36.063-.828.485-.828.797 0 .188.343.547.656.547.328 0 .86-.406.86-.844zm0 0"/></svg><svg overflow="visible" x="50.359" y="26.293"><path d="M5.328-1.406c0-.078-.266-.297-.328-.297-.063 0-.234.062-.297.156C3.75-.359 2.593-.39 2.453-.39c-.75 0-.89-.453-.89-1.171 0-.5.187-1.563.593-2.297.36-.688.89-1.157 1.547-1.157.406 0 .719.11.766.204.078 0-.235.046-.407.203a1.026 1.026 0 00-.265.562c0 .297.406.563.64.563.344 0 .86-.422.86-.907 0-.578-.75-1.156-1.61-1.156-1.609 0-3.406 1.844-3.406 3.531 0 1.079.906 2.141 2.14 2.141 1.72 0 2.907-1.39 2.907-1.531zm0 0"/></svg><svg overflow="visible" x="55.834" y="26.293"><path d="M5.328-1.406c0-.078-.266-.297-.328-.297-.063 0-.234.062-.297.156C3.75-.359 2.593-.39 2.453-.39c-.75 0-.89-.453-.89-1.171 0-.5.187-1.563.593-2.297.36-.688.89-1.157 1.547-1.157.406 0 .719.11.766.204.078 0-.235.046-.407.203a1.026 1.026 0 00-.265.562c0 .297.406.563.64.563.344 0 .86-.422.86-.907 0-.578-.75-1.156-1.61-1.156-1.609 0-3.406 1.844-3.406 3.531 0 1.079.906 2.141 2.14 2.141 1.72 0 2.907-1.39 2.907-1.531zm0 0"/></svg><svg overflow="visible" x="61.31" y="26.293"><path d="M5.797-3.39c0-1.25-1.031-2.157-2.11-2.157-1.593 0-3.406 1.828-3.406 3.531C.281-.844 1.297.125 2.406.125c1.594 0 3.39-1.781 3.39-3.516zM4.53-3.86c0 .47-.187 1.626-.64 2.407-.407.687-.922 1.062-1.47 1.062-.515 0-.858-.25-.858-1.171 0-.594.25-1.782.64-2.391.594-.922 1.14-1.063 1.485-1.063.687 0 .843.438.843 1.157zm0 0"/></svg><svg overflow="visible" x="67.251" y="26.293"><path d="M5.219-4.39c0-.532-.719-1.157-1.625-1.157-1.578 0-2.219 1.344-2.219 1.875 0 .938 1.094 1.25 1.438 1.313.624.125 1.03.125 1.03.78 0 .313-.062 1.188-1.5 1.188-.171 0-.89.125-1.093-.328.188.016.672-.469.672-.812 0-.282-.375-.547-.625-.547-.313 0-.875.375-.875.922 0 .672.875 1.281 1.906 1.281 1.938 0 2.594-1.578 2.594-2.11 0-.437-.281-.827-.422-.968-.328-.328-.813-.422-1.328-.531-.438-.094-.719-.047-.719-.594 0-.344.094-.938 1.14-.938.298 0 .704-.046.829.282-.078.015-.531.406-.531.671 0 .172.312.485.578.485.265 0 .75-.344.75-.813zm0 0"/></svg><svg overflow="visible" x="74.852" y="19.851"><path d="M10.031-17.75c0-.125-.312-.39-.437-.39a.83.83 0 00-.297.093C6.094-15.64 3.109-8.984 3.109-3.125V0h1.61v-3.125c0-5.594 2.093-12.031 5.14-14.328a.486.486 0 00.172-.297zm0 0"/></svg><svg overflow="visible" x="74.852" y="24.517"><path d="M4.719-.125v-6.094h-1.61V0h1.61zm0 0"/></svg><svg overflow="visible" x="74.852" y="28.044"><path d="M4.719-.125v-6.094h-1.61V0h1.61zm0 0"/></svg><svg overflow="visible" x="74.852" y="44.63"><path d="M10.031-.375c0-.094-.094-.266-.172-.297-3.046-2.297-5.14-8.734-5.14-14.344v-3.125h-1.61v3.125c0 5.86 2.985 12.532 6.188 14.938.031.015.234.078.297.078.125 0 .437-.234.437-.375zm0 0"/></svg><svg overflow="visible" x="86.508" y="13.859"><path d="M12.39-13.64c0-.126-.296-.376-.437-.376-.172 0-.437.297-.484.454L5.344 5.843h.39L3.063-3.484 1.077-1.156l.438.406.703-.828 2.687 9.344c.563 0 .766-.125.86-.422l6.562-20.75c.063-.172 0-.14 0-.14zm0 0"/></svg><path d="M98.465.352h93.77" fill="none" stroke-width=".478" stroke="#000" stroke-miterlimit="10"/><svg overflow="visible" x="98.463" y="15.174"><path d="M5.36-2.344h-.47c-.077.485-.109.922-.234 1.094-.078.11-.718.063-.984.063H1.89l1.03-1c1.86-1.657 2.642-2.391 2.642-3.579 0-1.375-1.266-2.453-2.735-2.453C1.484-8.219.391-7 .391-5.922c0 .656.796.797.843.797.204 0 .813-.281.813-.766 0-.312-.406-.75-.828-.75-.094 0-.125 0 .125-.093.187-.547.64-.86 1.328-.86 1.094 0 1.406.844 1.406 1.828 0 .954-.547 1.797-1.203 2.532L.578-.672C.453-.532.391-.422.391 0h4.812l.375-2.344zm0 0"/></svg><svg overflow="visible" x="107.095" y="15.174"><path d="M8.828-3.125c0-.125-.312-.36-.437-.36H5.078v-3.374c0-.141-.297-.375-.422-.375-.14 0-.453.234-.453.375v3.375H.906c-.125 0-.437.234-.437.359 0 .14.312.375.437.375h3.297V.625c0 .125.313.36.453.36.125 0 .422-.235.422-.36V-2.75h3.313c.125 0 .437-.234.437-.375zm0 0"/></svg><svg overflow="visible" x="119.05" y="15.174"><path d="M5.313-4.86c0-.234-.907-.812-1.735-.812-1.36 0-2.86.922-2.86 1.828 0 .516.485.922.391.844-.562.313-1 1.078-1 1.625 0 .781.875 1.64 2.157 1.64 1.578 0 2.437-1.187 2.437-1.359 0-.078-.25-.25-.328-.25a.68.68 0 00-.266.11c-.171.28-.312.687-1.75.687-.718 0-1.546-.047-1.546-.906 0-.406.14-.906.875-1.266.39.172.734.172 1.03.172.313 0 1.157-.125 1.157-.5 0-.281-.61-.453-1.063-.453-.25 0-.671.016-1.093.203-.172-.078-.313-.219-.313-.547 0-.719.985-1.015 2.063-1.015.187 0 .469-.047.953.296a.786.786 0 00.39.157c.141 0 .5-.297.5-.453zM3.375-3.171c-.188.094-.203.094-.656.094-.266 0-.406 0-.64-.047v.25c.28-.094.53-.094.733-.094.297 0 .344 0 .188-.031zm0 0"/></svg><svg overflow="visible" x="127.275" y="15.174"><path d="M8.828-3.125c0-.125-.312-.36-.437-.36H.906c-.125 0-.437.235-.437.36 0 .14.312.375.437.375h7.485c.125 0 .437-.234.437-.375zm0 0"/></svg><svg overflow="visible" x="139.242" y="14.636"><path d="M12.39-10.047c0-.14-.296-.375-.437-.375-.156 0-.406.235-.469.375L5.313 2.813h.406L3.062-3.375l-2 1.516.407.421.781-.593 2.672 6.219c.516 0 .656-.047.937-.563l6.516-13.594c-.047.078.016-.047.016-.078zm0 0"/></svg><path d="M151.195 4.715h41.04" fill="none" stroke-width=".478" stroke="#000" stroke-miterlimit="10"/><svg overflow="visible" x="151.197" y="15.174"><path d="M5.313-4.86c0-.234-.907-.812-1.735-.812-1.36 0-2.86.922-2.86 1.828 0 .516.485.922.391.844-.562.313-1 1.078-1 1.625 0 .781.875 1.64 2.157 1.64 1.578 0 2.437-1.187 2.437-1.359 0-.078-.25-.25-.328-.25a.68.68 0 00-.266.11c-.171.28-.312.687-1.75.687-.718 0-1.546-.047-1.546-.906 0-.406.14-.906.875-1.266.39.172.734.172 1.03.172.313 0 1.157-.125 1.157-.5 0-.281-.61-.453-1.063-.453-.25 0-.671.016-1.093.203-.172-.078-.313-.219-.313-.547 0-.719.985-1.015 2.063-1.015.187 0 .469-.047.953.296a.786.786 0 00.39.157c.141 0 .5-.297.5-.453zM3.375-3.171c-.188.094-.203.094-.656.094-.266 0-.406 0-.64-.047v.25c.28-.094.53-.094.733-.094.297 0 .344 0 .188-.031zm0 0"/></svg><svg overflow="visible" x="156.768" y="15.174"><path d="M4.156 2.719c0-.047-.078-.172-.11-.203-1.234-.922-2-3.22-2-5.141v-1c0-1.906.767-4.203 2-5.14a.457.457 0 00.11-.188c0-.063-.25-.25-.312-.25a1.01 1.01 0 00-.203.062C2.312-8.156 1-5.67 1-3.625v1C1-.578 2.313 1.906 3.64 2.906c.016.016.188.063.204.063.062 0 .312-.203.312-.25zm0 0"/></svg><svg overflow="visible" x="161.419" y="15.174"><path d="M5.36-2.344h-.47c-.077.485-.109.922-.234 1.094-.078.11-.718.063-.984.063H1.89l1.03-1c1.86-1.657 2.642-2.391 2.642-3.579 0-1.375-1.266-2.453-2.735-2.453C1.484-8.219.391-7 .391-5.922c0 .656.796.797.843.797.204 0 .813-.281.813-.766 0-.312-.406-.75-.828-.75-.094 0-.125 0 .125-.093.187-.547.64-.86 1.328-.86 1.094 0 1.406.844 1.406 1.828 0 .954-.547 1.797-1.203 2.532L.578-.672C.453-.532.391-.422.391 0h4.812l.375-2.344zm0 0"/></svg><svg overflow="visible" x="170.05" y="15.174"><path d="M8.828-3.125c0-.125-.312-.36-.437-.36H5.078v-3.374c0-.141-.297-.375-.422-.375-.14 0-.453.234-.453.375v3.375H.906c-.125 0-.437.234-.437.359 0 .14.312.375.437.375h3.297V.625c0 .125.313.36.453.36.125 0 .422-.235.422-.36V-2.75h3.313c.125 0 .437-.234.437-.375zm0 0"/></svg><svg overflow="visible" x="182.006" y="15.174"><path d="M5.313-4.86c0-.234-.907-.812-1.735-.812-1.36 0-2.86.922-2.86 1.828 0 .516.485.922.391.844-.562.313-1 1.078-1 1.625 0 .781.875 1.64 2.157 1.64 1.578 0 2.437-1.187 2.437-1.359 0-.078-.25-.25-.328-.25a.68.68 0 00-.266.11c-.171.28-.312.687-1.75.687-.718 0-1.546-.047-1.546-.906 0-.406.14-.906.875-1.266.39.172.734.172 1.03.172.313 0 1.157-.125 1.157-.5 0-.281-.61-.453-1.063-.453-.25 0-.671.016-1.093.203-.172-.078-.313-.219-.313-.547 0-.719.985-1.015 2.063-1.015.187 0 .469-.047.953.296a.786.786 0 00.39.157c.141 0 .5-.297.5-.453zM3.375-3.171c-.188.094-.203.094-.656.094-.266 0-.406 0-.64-.047v.25c.28-.094.53-.094.733-.094.297 0 .344 0 .188-.031zm0 0"/></svg><svg overflow="visible" x="187.577" y="15.174"><path d="M3.64-2.625v-1c0-2.047-1.328-4.531-2.64-5.516a.774.774 0 00-.203-.062c-.063 0-.313.187-.313.25 0 .031.079.172.094.187 1.25.938 2.016 3.235 2.016 5.141v1c0 1.922-.766 4.219-2.016 5.14-.015.032-.094.157-.094.204 0 .047.25.25.313.25A.774.774 0 001 2.906c1.313-1 2.64-3.484 2.64-5.531zm0 0"/></svg><path d="M86.508 23.305h105.726" fill="none" stroke-width=".478" stroke="#000" stroke-miterlimit="10"/><svg overflow="visible" x="131.402" y="25.934"><path d="M10.39-.375c0-.125-.296-.36-.437-.36-.14 0-.312.11-.39.25l-.063.11-5.047 10.469h.39L2.829 5.672c-.219-.453-.375-.563-.469-.563a.543.543 0 00-.296.125l-1.188.891c-.14.11-.203.219-.203.266 0 .093.25.265.312.265a.58.58 0 00.313-.125l.406-.297 2.234 4.938c.079.156.313.297.438.297.188 0 .406-.172.484-.36L10.313-.17c.062-.126.078-.141.078-.204zm0 0"/></svg><path d="M141.36 25.695h5.98" fill="none" stroke-width=".478" stroke="#000" stroke-miterlimit="10"/><svg overflow="visible" x="141.361" y="35.952"><path d="M5.36-2.344h-.47c-.077.485-.109.922-.234 1.094-.078.11-.718.063-.984.063H1.89l1.03-1c1.86-1.657 2.642-2.391 2.642-3.579 0-1.375-1.266-2.453-2.735-2.453C1.484-8.219.391-7 .391-5.922c0 .656.796.797.843.797.204 0 .813-.281.813-.766 0-.312-.406-.75-.828-.75-.094 0-.125 0 .125-.093.187-.547.64-.86 1.328-.86 1.094 0 1.406.844 1.406 1.828 0 .954-.547 1.797-1.203 2.532L.578-.672C.453-.532.391-.422.391 0h4.812l.375-2.344zm0 0"/></svg><g><svg overflow="visible" x="193.429" y="19.851"><path d="M7.344-.125v-3c0-5.86-3-12.516-6.203-14.922a.67.67 0 00-.266-.094c-.14 0-.453.266-.453.391 0 .078.094.25.156.297 3.063 2.297 5.14 8.734 5.14 14.328V0h1.626zm0 0"/></svg></g><g><svg overflow="visible" x="193.429" y="24.517"><path d="M7.14-6.219H5.72V0h1.625v-6.219zm0 0"/></svg></g><g><svg overflow="visible" x="193.429" y="28.044"><path d="M7.14-6.219H5.72V0h1.625v-6.219zm0 0"/></svg></g><g><svg overflow="visible" x="193.429" y="44.63"><path d="M7.344-15.016v-3.125H5.719v3.125c0 5.61-2.078 12.047-5.14 14.344-.063.031-.157.203-.157.297 0 .14.312.375.453.375.063 0 .234-.063.266-.078 3.203-2.406 6.203-9.078 6.203-14.938zm0 0"/></svg></g></svg>