<svg xmlns="http://www.w3.org/2000/svg" xmlns:xlink="http://www.w3.org/1999/xlink" width="244" height="40" viewBox="0 0 183 30"><svg overflow="visible" x=".315" y="17.155"><path d="M8.813-.375c0-.125-.313-.266-.47-.266-.734 0-.546.063-.593-.296l-.719-7.47C7-8.64 6.813-8.827 6.61-8.827a.58.58 0 00-.453.25L2-1.61c-.484.812-.813.937-1.328.968-.14.016-.453.157-.453.375 0 .079.265.266.36.266.312 0 .687-.031 1.03-.031C2-.031 2.422 0 2.797 0c.078 0 .422-.125.422-.36 0-.124-.297-.28-.39-.28-.267-.016-.36.015-.36-.282 0-.14 0-.172.094-.344.093-.14.109-.14.89-1.5h2.703c.016.125.172 1.75.172 1.875 0 .36-.406.25-.656.25-.156 0-.484.141-.484.375 0 .141.5.235.5.235L5.563 0c.484 0 1-.031 1.484-.031.297 0 1.062.031 1.36.031.062 0 .405-.125.405-.375zm-2.5-3.016h-2.47l2.22-3.718-.344-.094.375 3.812zm0 0"/></svg><svg overflow="visible" x="12.593" y="17.155"><path d="M8.828-4.281c0-.125-.312-.375-.437-.375H.906c-.125 0-.437.25-.437.375 0 .14.312.375.437.375h7.485c.125 0 .437-.235.437-.375zm0 2.328c0-.14-.312-.375-.437-.375H.906c-.125 0-.437.234-.437.375 0 .125.312.36.437.36h7.485c.125 0 .437-.235.437-.36zm0 0"/></svg><svg overflow="visible" x="25.218" y="17.155"><path d="M9.234-6.64c0-.891-.984-1.782-2.421-1.782H2.796c-.235 0-.547.125-.547.36 0 .14.313.265.531.265l.14-.031s.11.031.313.062c.22.016.125-.093.125.063 0 .047-.015.078-.046.219l-1.61 6.421c-.11.47.063.422-.875.422-.203 0-.531.141-.531.375 0 .141.312.266.531.266h4.266c1.89 0 3.484-1.547 3.484-2.719 0-.86-.875-1.687-2.047-1.812v.265c1.25-.234 2.703-1.25 2.703-2.375zM7.75-6.689c0 1.047-.828 2.047-2.281 2.047H3.937l.72-2.828c.093-.422-.063-.328.452-.328h1.532c1.062 0 1.109.578 1.109 1.11zm-.672 3.844c0 1.188-.86 2.203-2.266 2.203h-1.89c-.125-.015.031.11.031 0 0-.03 0-.046.063-.265l.78-3.203h2.11c1.14 0 1.172.75 1.172 1.265zm0 0"/></svg><svg overflow="visible" x="37.245" y="17.155"><path d="M8.828-3.125c0-.125-.312-.36-.437-.36H.906c-.125 0-.437.235-.437.36 0 .14.312.375.437.375h7.485c.125 0 .437-.234.437-.375zm0 0"/></svg><svg overflow="visible" x="56.144" y="9.061"><path d="M9.281-8.438c0-.03-.219-.25-.328-.25a.701.701 0 00-.328.172l-.672.75c0 .016-.672-.921-2-.921-2.672 0-5.562 2.765-5.562 5.546C.39-1.17 2.016.266 3.844.266c1.031 0 2.078-.516 2.703-1.063C7.657-1.78 7.922-2.969 7.922-3c0-.125-.203-.031-.203-.031l-.125-.219c-.078 0-.344.156-.36.25-.109.344-.328 1.094-1.156 1.797-.812.672-1.422.828-2.047.828-1.078 0-2.156-.484-2.156-2.344 0-.687.188-2.531 1.39-3.922C4-7.5 4.986-8.062 6.048-8.062c1.219 0 1.719.796 1.719 2.187 0 .469-.032.484-.032.61 0 .109.329.25.375.25.157 0 .36-.157.407-.376zm0 0"/></svg><svg overflow="visible" x="68.219" y="9.061"><path d="M8.828-3.125c0-.125-.312-.36-.437-.36H.906c-.125 0-.437.235-.437.36 0 .14.312.375.437.375h7.485c.125 0 .437-.234.437-.375zm0 0"/></svg><svg overflow="visible" x="80.174" y="9.061"><path d="M9.234-6.64c0-.891-.984-1.782-2.421-1.782H2.796c-.235 0-.547.125-.547.36 0 .14.313.265.531.265l.14-.031s.11.031.313.062c.22.016.125-.093.125.063 0 .047-.015.078-.046.219l-1.61 6.421c-.11.47.063.422-.875.422-.203 0-.531.141-.531.375 0 .141.312.266.531.266h4.266c1.89 0 3.484-1.547 3.484-2.719 0-.86-.875-1.687-2.047-1.812v.265c1.25-.234 2.703-1.25 2.703-2.375zM7.75-6.689c0 1.047-.828 2.047-2.281 2.047H3.937l.72-2.828c.093-.422-.063-.328.452-.328h1.532c1.062 0 1.109.578 1.109 1.11zm-.672 3.844c0 1.188-.86 2.203-2.266 2.203h-1.89c-.125-.015.031.11.031 0 0-.03 0-.046.063-.265l.78-3.203h2.11c1.14 0 1.172.75 1.172 1.265zm0 0"/></svg><path d="M50.406 14.164H95.29" fill="none" stroke-width=".478" stroke="#000" stroke-miterlimit="10"/><svg overflow="visible" x="50.408" y="25.358"><path d="M5.406-4.64c0-.423-.578-.907-1.187-.907-.782 0-1.453.625-1.672.953l.328.094c-.094-.531-.719-1.047-1.266-1.047-.562 0-.921.5-1.03.719C.358-4.422.14-3.61.14-3.578c0 .125.484.219.484.219l-.14.03c.124 0 .328-.14.406-.405.203-.844.25-1.282.671-1.282.204 0 .172-.046.172.407 0 .265-.03.39-.187 1.015L.844-.844c-.031.188-.11.469-.11.516 0 .219.375.453.563.453.14 0 .547-.219.656-.547-.062.14.406-1.594.453-1.797l.375-1.562c.047-.156.328-.625.61-.875.093-.094.312-.36.828-.36.312 0 .64.11.64.11l-.14-.235c-.36.063-.828.485-.828.797 0 .188.343.547.656.547.328 0 .86-.406.86-.844zm0 0"/></svg><svg overflow="visible" x="55.955" y="25.358"><path d="M6.14-1.844c0-.11-.296-.25-.327-.25-.125 0-.344.188-.375.344-.204.781-.22 1.36-.704 1.36-.328 0-.171-.188-.171-.422 0-.266.03-.36.156-.891l.265-1.063.438-1.687c.078-.328.078-.36.078-.406 0-.204-.344-.454-.547-.454-.281 0-.656.407-.703.657h.406c-.218-.438-.765-.89-1.297-.89-1.406 0-3.078 1.89-3.078 3.64 0 1.125.86 2.031 1.781 2.031.25 0 .97-.078 1.422-.61.032.094.657.61 1.22.61.421 0 .827-.297 1.015-.688l.062-.093c.203-.438.297-1.094.297-1.094zm-2.03-2.25c0 .063-.016.14-.032.203l-.594 2.344c-.062.203 0 .14-.187.344-.531.656-.875.812-1.203.812-.594 0-.578-.53-.578-1 0-.593.328-1.968.593-2.515.375-.703.782-1.11 1.266-1.11.766 0 .734.844.734.922zm0 0"/></svg><svg overflow="visible" x="62.28" y="25.358"><path d="M4.14-5.156c0-.125-.312-.266-.53-.266H2.78c.39-1.562.453-1.797.453-1.875 0-.203-.328-.453-.53-.453-.032 0-.579.14-.688.563l-.422 1.765H.64c-.25 0-.563.14-.563.36 0 .156.297.28.531.28h.813C.594-1.515.547-1.311.547-1.093c0 .64.656 1.219 1.312 1.219 1.22 0 2.079-1.875 2.079-1.969 0-.11-.282-.25-.329-.25-.109 0-.328.172-.375.297C2.72-.547 2.281-.39 1.875-.39c-.25 0-.172-.03-.172-.421 0-.282.016-.375.063-.579l.859-3.39h.953c.25 0 .563-.125.563-.375zm0 0"/></svg><svg overflow="visible" x="66.595" y="25.358"><path d="M3.578-7.61c0-.234-.344-.546-.625-.546-.328 0-.844.437-.844.75 0 .234.36.562.657.562.265 0 .812-.406.812-.765zm.11 5.766c0-.11-.297-.25-.329-.25-.125 0-.328.172-.39.344-.203.766-.406 1.36-1.016 1.36-.203 0-.094.015-.094-.266 0-.297.079-.469.36-1.203l.453-1.25c.156-.344.156-.375.265-.688.094-.25.157-.406.157-.64 0-.532-.578-1.11-1.172-1.11C.797-5.547.14-3.687.14-3.578c0 .125.484.219.484.219l-.14.03c.124 0 .328-.155.39-.343.313-1.125.61-1.344 1.016-1.344.093 0 .093-.14.093.25 0 .25-.078.5-.125.625-.109.297-.64 1.688-.828 2.204-.125.312-.281.703-.281.953 0 .562.61 1.109 1.188 1.109 1.125 0 1.75-1.86 1.75-1.969zm0 0"/></svg><svg overflow="visible" x="70.72" y="25.358"><path d="M5.797-3.39c0-1.25-1.031-2.157-2.11-2.157-1.593 0-3.406 1.828-3.406 3.531C.281-.844 1.297.125 2.406.125c1.594 0 3.39-1.781 3.39-3.516zM4.53-3.86c0 .47-.187 1.626-.64 2.407-.407.687-.922 1.062-1.47 1.062-.515 0-.858-.25-.858-1.171 0-.594.25-1.782.64-2.391.594-.922 1.14-1.063 1.485-1.063.687 0 .843.438.843 1.157zm0 0"/></svg><svg overflow="visible" x="76.662" y="25.358"><path d="M4.156 2.719c0-.047-.078-.172-.11-.203-1.234-.922-2-3.22-2-5.141v-1c0-1.906.767-4.203 2-5.14a.457.457 0 00.11-.188c0-.063-.25-.25-.312-.25a1.01 1.01 0 00-.203.062C2.312-8.156 1-5.67 1-3.625v1C1-.578 2.313 1.906 3.64 2.906c.016.016.188.063.204.063.062 0 .312-.203.312-.25zm0 0"/></svg><svg overflow="visible" x="81.312" y="25.358"><path d="M4.14-5.156c0-.125-.312-.266-.53-.266H2.78c.39-1.562.453-1.797.453-1.875 0-.203-.328-.453-.53-.453-.032 0-.579.14-.688.563l-.422 1.765H.64c-.25 0-.563.14-.563.36 0 .156.297.28.531.28h.813C.594-1.515.547-1.311.547-1.093c0 .64.656 1.219 1.312 1.219 1.22 0 2.079-1.875 2.079-1.969 0-.11-.282-.25-.329-.25-.109 0-.328.172-.375.297C2.72-.547 2.281-.39 1.875-.39c-.25 0-.172-.03-.172-.421 0-.282.016-.375.063-.579l.859-3.39h.953c.25 0 .563-.125.563-.375zm0 0"/></svg><svg overflow="visible" x="85.628" y="25.358"><path d="M3.64-2.625v-1c0-2.047-1.328-4.531-2.64-5.516a.774.774 0 00-.203-.062c-.063 0-.313.187-.313.25 0 .031.079.172.094.187 1.25.938 2.016 3.235 2.016 5.141v1c0 1.922-.766 4.219-2.016 5.14-.015.032-.094.157-.094.204 0 .047.25.25.313.25A.774.774 0 001 2.906c1.313-1 2.64-3.484 2.64-5.531zm0 0"/></svg><svg overflow="visible" x="90.279" y="28.311"><path d="M4.484-3.734c0-.047-.234-.282-.312-.282-.078 0-.594.344-.594.344.047.094-.375-.344-.906-.344-1.078 0-2.375 1.344-2.375 2.547 0 .813.766 1.547 1.484 1.547.469 0 1-.344 1.188-.5l-.344-.11-.313 1.22c-.109.453.094.312-.421.312-.11 0-.438.172-.438.344 0 .062.25.281.344.281.266 0 .578-.031.86-.031.296 0 .64.031.905.031.079 0 .376-.188.376-.344 0-.11-.329-.281-.422-.281-.188 0-.204.172-.204.063 0-.032 0-.047.032-.188l1.125-4.484c.015-.032.015-.079.015-.125zm-1.28.843c0 .047-.017.094-.017.125l-.406 1.547c-.031.14.031.047-.078.188-.328.39-.578.562-.906.562-.313 0-.39-.062-.39-.656 0-.438.171-1.25.359-1.578.39-.672.671-.75.906-.75.594 0 .531.484.531.562zm0 0"/></svg><svg overflow="visible" x="99.804" y="17.155"><path d="M8.828-4.281c0-.125-.312-.375-.437-.375H.906c-.125 0-.437.25-.437.375 0 .14.312.375.437.375h7.485c.125 0 .437-.235.437-.375zm0 2.328c0-.14-.312-.375-.437-.375H.906c-.125 0-.437.234-.437.375 0 .125.312.36.437.36h7.485c.125 0 .437-.235.437-.36zm0 0"/></svg><svg overflow="visible" x="112.417" y="17.155"><path d="M9.234-6.64c0-.891-.984-1.782-2.421-1.782H2.796c-.235 0-.547.125-.547.36 0 .14.313.265.531.265l.14-.031s.11.031.313.062c.22.016.125-.093.125.063 0 .047-.015.078-.046.219l-1.61 6.421c-.11.47.063.422-.875.422-.203 0-.531.141-.531.375 0 .141.312.266.531.266h4.266c1.89 0 3.484-1.547 3.484-2.719 0-.86-.875-1.687-2.047-1.812v.265c1.25-.234 2.703-1.25 2.703-2.375zM7.75-6.689c0 1.047-.828 2.047-2.281 2.047H3.937l.72-2.828c.093-.422-.063-.328.452-.328h1.532c1.062 0 1.109.578 1.109 1.11zm-.672 3.844c0 1.188-.86 2.203-2.266 2.203h-1.89c-.125-.015.031.11.031 0 0-.03 0-.046.063-.265l.78-3.203h2.11c1.14 0 1.172.75 1.172 1.265zm0 0"/></svg><svg overflow="visible" x="124.456" y="17.155"><path d="M8.828-3.125c0-.125-.312-.36-.437-.36H5.078v-3.374c0-.141-.297-.375-.422-.375-.14 0-.453.234-.453.375v3.375H.906c-.125 0-.437.234-.437.359 0 .14.312.375.437.375h3.297V.625c0 .125.313.36.453.36.125 0 .422-.235.422-.36V-2.75h3.313c.125 0 .437-.234.437-.375zm0 0"/></svg><svg overflow="visible" x="143.346" y="9.061"><path d="M9.234-6.64c0-.891-.984-1.782-2.421-1.782H2.796c-.235 0-.547.125-.547.36 0 .14.313.265.531.265l.14-.031s.11.031.313.062c.22.016.125-.093.125.063 0 .047-.015.078-.046.219l-1.61 6.421c-.11.47.063.422-.875.422-.203 0-.531.141-.531.375 0 .141.312.266.531.266h4.266c1.89 0 3.484-1.547 3.484-2.719 0-.86-.875-1.687-2.047-1.812v.265c1.25-.234 2.703-1.25 2.703-2.375zM7.75-6.689c0 1.047-.828 2.047-2.281 2.047H3.937l.72-2.828c.093-.422-.063-.328.452-.328h1.532c1.062 0 1.109.578 1.109 1.11zm-.672 3.844c0 1.188-.86 2.203-2.266 2.203h-1.89c-.125-.015.031.11.031 0 0-.03 0-.046.063-.265l.78-3.203h2.11c1.14 0 1.172.75 1.172 1.265zm0 0"/></svg><svg overflow="visible" x="155.373" y="9.061"><path d="M8.828-3.125c0-.125-.312-.36-.437-.36H.906c-.125 0-.437.235-.437.36 0 .14.312.375.437.375h7.485c.125 0 .437-.234.437-.375zm0 0"/></svg><svg overflow="visible" x="167.328" y="9.061"><path d="M9.281-8.438c0-.03-.219-.25-.328-.25a.701.701 0 00-.328.172l-.672.75c0 .016-.672-.921-2-.921-2.672 0-5.562 2.765-5.562 5.546C.39-1.17 2.016.266 3.844.266c1.031 0 2.078-.516 2.703-1.063C7.657-1.78 7.922-2.969 7.922-3c0-.125-.203-.031-.203-.031l-.125-.219c-.078 0-.344.156-.36.25-.109.344-.328 1.094-1.156 1.797-.812.672-1.422.828-2.047.828-1.078 0-2.156-.484-2.156-2.344 0-.687.188-2.531 1.39-3.922C4-7.5 4.986-8.062 6.048-8.062c1.219 0 1.719.796 1.719 2.187 0 .469-.032.484-.032.61 0 .109.329.25.375.25.157 0 .36-.157.407-.376zm0 0"/></svg><path d="M137.61 14.164h44.878" fill="none" stroke-width=".478" stroke="#000" stroke-miterlimit="10"/><g><svg overflow="visible" x="137.61" y="25.358"><path d="M5.406-4.64c0-.423-.578-.907-1.187-.907-.782 0-1.453.625-1.672.953l.328.094c-.094-.531-.719-1.047-1.266-1.047-.562 0-.921.5-1.03.719C.358-4.422.14-3.61.14-3.578c0 .125.484.219.484.219l-.14.03c.124 0 .328-.14.406-.405.203-.844.25-1.282.671-1.282.204 0 .172-.046.172.407 0 .265-.03.39-.187 1.015L.844-.844c-.031.188-.11.469-.11.516 0 .219.375.453.563.453.14 0 .547-.219.656-.547-.062.14.406-1.594.453-1.797l.375-1.562c.047-.156.328-.625.61-.875.093-.094.312-.36.828-.36.312 0 .64.11.64.11l-.14-.235c-.36.063-.828.485-.828.797 0 .188.343.547.656.547.328 0 .86-.406.86-.844zm0 0"/></svg></g><g><svg overflow="visible" x="143.157" y="25.358"><path d="M6.14-1.844c0-.11-.296-.25-.327-.25-.125 0-.344.188-.375.344-.204.781-.22 1.36-.704 1.36-.328 0-.171-.188-.171-.422 0-.266.03-.36.156-.891l.265-1.063.438-1.687c.078-.328.078-.36.078-.406 0-.204-.344-.454-.547-.454-.281 0-.656.407-.703.657h.406c-.218-.438-.765-.89-1.297-.89-1.406 0-3.078 1.89-3.078 3.64 0 1.125.86 2.031 1.781 2.031.25 0 .97-.078 1.422-.61.032.094.657.61 1.22.61.421 0 .827-.297 1.015-.688l.062-.093c.203-.438.297-1.094.297-1.094zm-2.03-2.25c0 .063-.016.14-.032.203l-.594 2.344c-.062.203 0 .14-.187.344-.531.656-.875.812-1.203.812-.594 0-.578-.53-.578-1 0-.593.328-1.968.593-2.515.375-.703.782-1.11 1.266-1.11.766 0 .734.844.734.922zm0 0"/></svg><svg overflow="visible" x="149.482" y="25.358"><path d="M4.14-5.156c0-.125-.312-.266-.53-.266H2.78c.39-1.562.453-1.797.453-1.875 0-.203-.328-.453-.53-.453-.032 0-.579.14-.688.563l-.422 1.765H.64c-.25 0-.563.14-.563.36 0 .156.297.28.531.28h.813C.594-1.515.547-1.311.547-1.093c0 .64.656 1.219 1.312 1.219 1.22 0 2.079-1.875 2.079-1.969 0-.11-.282-.25-.329-.25-.109 0-.328.172-.375.297C2.72-.547 2.281-.39 1.875-.39c-.25 0-.172-.03-.172-.421 0-.282.016-.375.063-.579l.859-3.39h.953c.25 0 .563-.125.563-.375zm0 0"/></svg><svg overflow="visible" x="153.797" y="25.358"><path d="M3.578-7.61c0-.234-.344-.546-.625-.546-.328 0-.844.437-.844.75 0 .234.36.562.657.562.265 0 .812-.406.812-.765zm.11 5.766c0-.11-.297-.25-.329-.25-.125 0-.328.172-.39.344-.203.766-.406 1.36-1.016 1.36-.203 0-.094.015-.094-.266 0-.297.079-.469.36-1.203l.453-1.25c.156-.344.156-.375.265-.688.094-.25.157-.406.157-.64 0-.532-.578-1.11-1.172-1.11C.797-5.547.14-3.687.14-3.578c0 .125.484.219.484.219l-.14.03c.124 0 .328-.155.39-.343.313-1.125.61-1.344 1.016-1.344.093 0 .093-.14.093.25 0 .25-.078.5-.125.625-.109.297-.64 1.688-.828 2.204-.125.312-.281.703-.281.953 0 .562.61 1.109 1.188 1.109 1.125 0 1.75-1.86 1.75-1.969zm0 0"/></svg><svg overflow="visible" x="157.922" y="25.358"><path d="M5.797-3.39c0-1.25-1.031-2.157-2.11-2.157-1.593 0-3.406 1.828-3.406 3.531C.281-.844 1.297.125 2.406.125c1.594 0 3.39-1.781 3.39-3.516zM4.53-3.86c0 .47-.187 1.626-.64 2.407-.407.687-.922 1.062-1.47 1.062-.515 0-.858-.25-.858-1.171 0-.594.25-1.782.64-2.391.594-.922 1.14-1.063 1.485-1.063.687 0 .843.438.843 1.157zm0 0"/></svg></g><g><svg overflow="visible" x="163.864" y="25.358"><path d="M4.156 2.719c0-.047-.078-.172-.11-.203-1.234-.922-2-3.22-2-5.141v-1c0-1.906.767-4.203 2-5.14a.457.457 0 00.11-.188c0-.063-.25-.25-.312-.25a1.01 1.01 0 00-.203.062C2.312-8.156 1-5.67 1-3.625v1C1-.578 2.313 1.906 3.64 2.906c.016.016.188.063.204.063.062 0 .312-.203.312-.25zm0 0"/></svg><svg overflow="visible" x="168.514" y="25.358"><path d="M4.14-5.156c0-.125-.312-.266-.53-.266H2.78c.39-1.562.453-1.797.453-1.875 0-.203-.328-.453-.53-.453-.032 0-.579.14-.688.563l-.422 1.765H.64c-.25 0-.563.14-.563.36 0 .156.297.28.531.28h.813C.594-1.515.547-1.311.547-1.093c0 .64.656 1.219 1.312 1.219 1.22 0 2.079-1.875 2.079-1.969 0-.11-.282-.25-.329-.25-.109 0-.328.172-.375.297C2.72-.547 2.281-.39 1.875-.39c-.25 0-.172-.03-.172-.421 0-.282.016-.375.063-.579l.859-3.39h.953c.25 0 .563-.125.563-.375zm0 0"/></svg><svg overflow="visible" x="172.83" y="25.358"><path d="M3.64-2.625v-1c0-2.047-1.328-4.531-2.64-5.516a.774.774 0 00-.203-.062c-.063 0-.313.187-.313.25 0 .031.079.172.094.187 1.25.938 2.016 3.235 2.016 5.141v1c0 1.922-.766 4.219-2.016 5.14-.015.032-.094.157-.094.204 0 .047.25.25.313.25A.774.774 0 001 2.906c1.313-1 2.64-3.484 2.64-5.531zm0 0"/></svg></g><g><svg overflow="visible" x="177.481" y="28.311"><path d="M4.484-3.734c0-.047-.234-.282-.312-.282-.078 0-.594.344-.594.344.047.094-.375-.344-.906-.344-1.078 0-2.375 1.344-2.375 2.547 0 .813.766 1.547 1.484 1.547.469 0 1-.344 1.188-.5l-.344-.11-.313 1.22c-.109.453.094.312-.421.312-.11 0-.438.172-.438.344 0 .062.25.281.344.281.266 0 .578-.031.86-.031.296 0 .64.031.905.031.079 0 .376-.188.376-.344 0-.11-.329-.281-.422-.281-.188 0-.204.172-.204.063 0-.032 0-.047.032-.188l1.125-4.484c.015-.032.015-.079.015-.125zm-1.28.843c0 .047-.017.094-.017.125l-.406 1.547c-.031.14.031.047-.078.188-.328.39-.578.562-.906.562-.313 0-.39-.062-.39-.656 0-.438.171-1.25.359-1.578.39-.672.671-.75.906-.75.594 0 .531.484.531.562zm0 0"/></svg></g></svg>