<svg xmlns="http://www.w3.org/2000/svg" xmlns:xlink="http://www.w3.org/1999/xlink" width="671px" height="100" viewBox="0 0 503 75"><svg overflow="visible" x=".062" y="39.773"><path d="M1.344-.781c-.25.219-.297.187-.547.187-.11 0-.422.219-.453.36L-.11 1.687h.593C.797.938 1.172 0 2.156 0h3.422c.953 0 1.031.89 1.047 1.688h.594l.297-1.922v-.047c0-.11-.22-.313-.47-.313-.155 0-.218.016-.218-.297 0-.046 0-.109.016-.171l1.125-5.829c.093-.421.047-.484.422-.484h.343c.047 0 .25-.156.266-.234l.031-.157c0-.046-.156-.218-.203-.218h-5.39c-.094 0-.313.187-.329.234l-.03.14c0 .063.171.235.233.235h.36c.25 0 .187-.031.187.14 0 .048 0 .094-.015.157-.14.75-.516 1.984-1.063 3.344C2.062-1.86 1.687-1.125 1.344-.781zM6.5-7.234c.297 0 .234-.063.234.109 0 .063 0 .125-.03.234L5.562-1.078c-.063.437-.079.344-.344.344H2.594c-.156 0-.14.078-.14-.032 0-.171.452-1.171 1.108-2.875.313-.812.72-2.046 1.047-3.25.079-.312.094-.343.422-.343zm0 0"/></svg><svg overflow="visible" x="7.893" y="39.773"><path d="M4.906-5.438c-.328-.03-.484-.078-.968-.078C2.671-5.516.78-3.5.78-1.625c0 .672.313 1.75 1.313 1.75.625 0 1.39-.703 2.031-1.64l-.156-.157-.14.469a2.125 2.125 0 00-.126.656c0 .219.235.672.64.672.75 0 1.376-.61 1.688-1.313-.11-.187-.265-.312-.515-.312-.344.484-.454.64-.579.64-.03 0 0 .11 0-.03 0-.11.079-.454.125-.672l.844-3.86c-.453 0-.765.047-1-.016zm-.703 2.594C3.61-1.766 2.797-.797 2.422-.797c-.406 0-.39-.344-.39-1.015 0-1.266.843-3.063 1.952-3.063.25 0 .407.047.625.188h.204s-.36 1.171-.641 1.89zm0 0"/></svg><svg overflow="visible" x="13.703" y="39.773"><path d="M1.063-.984C1-.75.905-.454.905-.328c0 .203.281.453.672.453.453 0 .578-.656.688-1.11l.359-1.546h1.813L4.202-1.5C4.125-1.14 4-.64 4-.406c0 .234.25.531.61.531.562 0 1.202-.453 1.812-1.219-.047-.14-.266-.36-.5-.36-.36.391-.594.532-.703.532-.094 0 .015.078.015-.062 0-.11.063-.313.125-.625l.672-2.735c.047-.203.157-.562.157-.718 0-.204-.266-.454-.641-.454-.453 0-.61.657-.703 1.11l-.235 1.14H2.797l.156-.687c.11-.469.235-.938.235-1.14 0-.173-.22-.376-.376-.376-.39 0-.921.078-1.562.157-.11.125-.094.453 0 .593l.563.032c.14.015.062-.016.062.109 0 .11-.016.281-.11.61zm0 0"/></svg><svg overflow="visible" x="19.824" y="39.773"><path d="M2.063-2.156c0-1.078.328-2.703 1.593-2.703.36 0 .438.156.61.5.156.296.14.64.14 1 0 .484-.015 1.406-.468 2.078-.329.515-.704.703-1.157.703-.344 0-.719-.328-.719-1.578zM.78-2.062c0 .624.313 2.187 1.828 2.187a2.86 2.86 0 001.188-.266c1.047-.53 1.906-1.89 1.906-3.296 0-.86-.36-2.079-1.828-2.079-2 0-3.094 2.016-3.094 3.454zm0 0"/></svg><svg overflow="visible" x="27.16" y="11.977"><path d="M4.656-12.234C1.546-10.047.438-5.656.438-2.031V0h1.796v-2.984c0-3.047.594-6.344 2.704-8.766v-.688zm0 0"/></svg><svg overflow="visible" x="27.16" y="22.258"><path d="M2.234-.125v-12.203H.438V0h1.796zm0 0"/></svg><svg overflow="visible" x="27.16" y="32.54"><path d="M2.234-.125v-12.203H.438V0h1.796zm0 0"/></svg><svg overflow="visible" x="27.16" y="42.821"><path d="M2.234-.125v-12.203H.438V0h1.796zm0 0"/></svg><svg overflow="visible" x="27.16" y="53.103"><path d="M2.234-.125v-12.203H.438V0h1.796zm0 0"/></svg><svg overflow="visible" x="27.16" y="63.384"><path d="M2.234-.125v-12.203H.438V0h1.796zm0 0"/></svg><svg overflow="visible" x="27.16" y="73.606"><path d="M4.89-.578C2.829-2.938 2.235-6.25 2.235-9.281v-3H.438v2.031c0 3.625 1.109 8.016 4.5 10.406V-.53zm0 0"/></svg><svg overflow="visible" x="89.283" y="8.745"><path d="M2.719-2.969c.234-1.031.703-1.64 1.328-1.64.281 0 .453.109.453.875C4.5-2.406 3.766-.47 2.562-.47c-.14 0-.28-.015-.39-.156zm.406-1.687l.031.031.25-.938-2.265.344.046.469c.25-.063.391-.094.485-.094.36 0 .203.032.203.266L.485.969c-.157.547-.063.781-.938.812l-.11.407h3.125l.11-.407h-.39c-.595 0-.579-.125-.579-.375 0-.14.031-.265.063-.422L2 .047c.016.015.344.094.625.094 1.719 0 3.203-2.157 3.203-3.688 0-1.203-.562-1.984-1.281-1.984-.422 0-1.016.281-1.469.718L3-4.734zm0 0"/></svg><svg overflow="visible" x="95.129" y="11.734"><path d="M3.719-.14v-.266c-.86 0-.86-.031-.86-.406V-6.25l-.296-.094-1.75.89v.407l.421-.156a1.05 1.05 0 01.407-.11c.187 0 .078 0 .078.297v4.032c0 .484 0 .546-.844.593V0h2.844zm0 0"/></svg><svg overflow="visible" x="103.432" y="8.745"><path d="M7.766-1.563v-.921H.406v1.046h7.36zm0-2.39v-.922H.406v1.047h7.36zm0 0"/></svg><svg overflow="visible" x="114.942" y="8.745"><path d="M1.063-.984C1-.75.905-.454.905-.328c0 .203.281.453.672.453.453 0 .578-.656.688-1.11l.359-1.546h1.813L4.202-1.5C4.125-1.14 4-.64 4-.406c0 .234.25.531.61.531.562 0 1.202-.453 1.812-1.219-.047-.14-.266-.36-.5-.36-.36.391-.594.532-.703.532-.094 0 .015.078.015-.062 0-.11.063-.313.125-.625l.672-2.735c.047-.203.157-.562.157-.718 0-.204-.266-.454-.641-.454-.453 0-.61.657-.703 1.11l-.235 1.14H2.797l.156-.687c.11-.469.235-.938.235-1.14 0-.173-.22-.376-.376-.376-.39 0-.921.078-1.562.157-.11.125-.094.453 0 .593l.563.032c.14.015.062-.016.062.109 0 .11-.016.281-.11.61zm0 0"/></svg><svg overflow="visible" x="121.063" y="8.745"><path d="M4.094-4.547c0 1.063-1.11 1.328-1.828 1.422.375-1.531.89-1.75 1.39-1.75.438 0 .438-.031.438.328zM2-2.375c3.11-.61 3.219-1.672 3.219-2.125 0-.297-.422-1.016-1.282-1.016C1.86-5.516.845-3.344.845-1.828c0 1.016.625 1.953 1.625 1.953.797 0 1.625-.453 2.39-1.438-.078-.156-.296-.343-.515-.343-.703.718-.875.797-1.453.797-.532 0-.766-.157-.766-1.25v-.297zm0 0"/></svg><svg overflow="visible" x="125.857" y="8.745"><path d="M6.188-4.344c.046-.203.156-.562.156-.718 0-.204-.266-.454-.64-.454-.454 0-.595.657-.704 1.11l-.344 1.281C3.813-1.672 3.328-.859 2.734-.859c-.218 0-.218.015-.218-.313 0-.187.03-.437.109-.766l.516-1.953c.093-.375.25-.859.25-1.093a.565.565 0 00-.563-.532c-.578 0-1.375.454-1.984 1.22.047.14.281.359.5.359.36-.391.656-.594.765-.594.094 0-.03-.078-.03.078 0 .11-.063.36-.157.672l-.516 2.015a2.765 2.765 0 00-.125.797c0 .688.532 1.094.953 1.094.938 0 1.625-.781 2.422-1.938l-.172-.093-.125.406c-.109.375-.203.86-.203 1.094 0 .234.25.531.594.531.578 0 1.219-.453 1.828-1.219-.047-.14-.266-.36-.5-.36-.36.391-.594.595-.719.595-.078 0 .032.078.032-.079 0-.109.062-.359.125-.671zm0 0"/></svg><svg overflow="visible" x="132.086" y="8.745"><path d="M5.625-4.25c.234 0 .734-.36.734-.766 0-.203-.28-.5-.656-.5-.594 0-1.219.688-1.562 1.25-.407.641-.766 1.079-1.375 1.079l.187-.766c.11-.469.25-.938.25-1.14 0-.173-.234-.376-.39-.376-.391 0-.922.078-1.563.157-.11.125-.094.453 0 .593l.563.032c.14.015.062-.016.062.109 0 .11-.016.281-.11.61L1.064-.985C1-.75.905-.454.905-.328c0 .203.281.453.672.453.453 0 .578-.656.688-1.11L2.625-2.5c.719.078.703.39.828 1.016.094.5.5 1.468 1.047 1.484l.875.031.094-.093.078-.297c0-.079-.203-.22-.266-.22l-.078-.015c-.453-.062-.531-.953-.61-1.422-.124-.578-.671-.953-1.312-.953v.25c.547-.078 1.016-.61 1.328-1.125.204-.375.344-.61.47-.61.28 0 .187.204.546.204zm0 0"/></svg><svg overflow="visible" x="137.705" y="8.745"><path d="M4.906-5.438c-.328-.03-.484-.078-.968-.078C2.671-5.516.78-3.5.78-1.625c0 .672.313 1.75 1.313 1.75.625 0 1.39-.703 2.031-1.64l-.156-.157-.14.469a2.125 2.125 0 00-.126.656c0 .219.235.672.64.672.75 0 1.376-.61 1.688-1.313-.11-.187-.265-.312-.515-.312-.344.484-.454.64-.579.64-.03 0 0 .11 0-.03 0-.11.079-.454.125-.672l.844-3.86c-.453 0-.765.047-1-.016zm-.703 2.594C3.61-1.766 2.797-.797 2.422-.797c-.406 0-.39-.344-.39-1.015 0-1.266.843-3.063 1.952-3.063.25 0 .407.047.625.188h.204s-.36 1.171-.641 1.89zm0 0"/></svg><svg overflow="visible" x="143.515" y="8.745"><path d="M3.86-3.016h-.766c-.563 0-.672-.312-.672-.828 0-.547.437-.969 1.422-.969.156 0 .328.016.297.016l-.407 1.781zM3.437-1.5c-.094.39-.204.86-.204 1.094 0 .234.235.531.594.531.578 0 1.203-.453 1.813-1.219-.047-.14-.266-.36-.5-.36-.344.391-.594.595-.704.595-.093 0 .016.078.016-.079 0-.109.063-.359.14-.671l.704-2.97c.062-.25-.063-.234.219-.234h.312a.7.7 0 00.203-.156v-.297l-.093-.156-1.079.031-1.406-.015c-1.094 0-2.14.797-2.14 1.718 0 .688.859 1.204 1.343 1.25v-.265c-.344.078-.765.36-1.062.844-.297.453-.75 1.234-1.11 1.265L.25-.578c-.078.11-.078.5 0 .61L1.047 0C1.422-.016 2-.547 2.266-1.047c.421-.703.703-1.281 1.171-1.281h.188zm0 0"/></svg><svg overflow="visible" x="151.872" y="8.745"><path d="M2.016-3.969L1.344-.984c-.063.234-.157.53-.157.656 0 .203.266.453.641.453.453 0 .578-.656.688-1.11l.468-1.89c.907-1.297 1.47-1.656 1.86-1.656.234 0 .156-.047.156.312 0 .14-.016.422-.094.797L4.328-.984c-.062.234-.156.53-.156.656 0 .203.266.453.64.453.454 0 .594-.656.704-1.11l.437-1.843c.984-1.375 1.344-1.703 1.734-1.703.22 0 .188-.047.188.312 0 .125-.016.485-.11.844L7.298-1.5c-.11.5-.203.984-.203 1.094 0 .234.36.531.531.531.703 0 1.5-.484 1.906-1.469-.015-.11-.25-.297-.484-.297-.313.5-.531.782-.75.782-.063 0 .062.062.062 0 0-.047.016-.344.063-.485l.562-2.125c.063-.265.11-.64.11-.875 0-.75-.5-1.172-.875-1.172-.844 0-1.61.766-2.297 1.641l.25.094c.031-.188.047-.406.047-.563 0-.828-.5-1.172-.844-1.172-.86 0-1.734.672-2.39 1.516l.187.078v-.031c.125-.469.265-.938.265-1.14 0-.173-.218-.376-.374-.376-.391 0-.922.078-1.563.157-.11.125-.094.453 0 .593l.563.032c.156.015.062-.016.062.109 0 .11-.031.281-.11.61zm0 0"/></svg><svg overflow="visible" x="161.233" y="8.745"><path d="M2.063-2.156c0-1.078.328-2.703 1.593-2.703.36 0 .438.156.61.5.156.296.14.64.14 1 0 .484-.015 1.406-.468 2.078-.329.515-.704.703-1.157.703-.344 0-.719-.328-.719-1.578zM.78-2.062c0 .624.313 2.187 1.828 2.187a2.86 2.86 0 001.188-.266c1.047-.53 1.906-1.89 1.906-3.296 0-.86-.36-2.079-1.828-2.079-2 0-3.094 2.016-3.094 3.454zm0 0"/></svg><svg overflow="visible" x="166.577" y="8.745"><path d="M3.016-3.953c.125-.469.234-.938.234-1.14 0-.173-.219-.376-.375-.376-.39 0-.922.078-1.578.157-.11.125-.078.453.016.593l.562.032c.14.015.063-.016.063.109 0 .11-.032.281-.11.61l-.172.796c-.062.297-.093.5-.093.703 0 .469.312.906.953.906.687 0 1.687-.578 2.234-1l-.25-.093L4.25-1.5c-.078.36-.203.86-.203 1.094 0 .234.25.531.61.531.562 0 1.202-.453 1.812-1.219-.047-.14-.266-.36-.5-.36-.344.391-.594.532-.703.532-.094 0 .015.078.015-.062 0-.11.063-.313.14-.625l.657-2.735c.047-.203.156-.562.156-.718 0-.204-.265-.454-.64-.454-.453 0-.61.657-.703 1.11l-.266 1.203c-.453.344-1.11.781-1.5.781-.406 0-.313-.094-.313-.422 0-.203.032-.469.11-.797zm0 0"/></svg><svg overflow="visible" x="172.733" y="8.745"><path d="M5.625-4.25c.234 0 .734-.36.734-.766 0-.203-.28-.5-.656-.5-.594 0-1.219.688-1.562 1.25-.407.641-.766 1.079-1.375 1.079l.187-.766c.11-.469.25-.938.25-1.14 0-.173-.234-.376-.39-.376-.391 0-.922.078-1.563.157-.11.125-.094.453 0 .593l.563.032c.14.015.062-.016.062.109 0 .11-.016.281-.11.61L1.064-.985C1-.75.905-.454.905-.328c0 .203.281.453.672.453.453 0 .578-.656.688-1.11L2.625-2.5c.719.078.703.39.828 1.016.094.5.5 1.468 1.047 1.484l.875.031.094-.093.078-.297c0-.079-.203-.22-.266-.22l-.078-.015c-.453-.062-.531-.953-.61-1.422-.124-.578-.671-.953-1.312-.953v.25c.547-.078 1.016-.61 1.328-1.125.204-.375.344-.61.47-.61.28 0 .187.204.546.204zm0 0"/></svg><svg overflow="visible" x="178.352" y="8.745"><path d="M4.906-5.438c-.328-.03-.484-.078-.968-.078C2.671-5.516.78-3.5.78-1.625c0 .672.313 1.75 1.313 1.75.625 0 1.39-.703 2.031-1.64l-.156-.157-.14.469a2.125 2.125 0 00-.126.656c0 .219.235.672.64.672.75 0 1.376-.61 1.688-1.313-.11-.187-.265-.312-.515-.312-.344.484-.454.64-.579.64-.03 0 0 .11 0-.03 0-.11.079-.454.125-.672l.844-3.86c-.453 0-.765.047-1-.016zm-.703 2.594C3.61-1.766 2.797-.797 2.422-.797c-.406 0-.39-.344-.39-1.015 0-1.266.843-3.063 1.952-3.063.25 0 .407.047.625.188h.204s-.36 1.171-.641 1.89zm0 0"/></svg><svg overflow="visible" x="89.283" y="26.179"><path d="M2.719-2.969c.234-1.031.703-1.64 1.328-1.64.281 0 .453.109.453.875C4.5-2.406 3.766-.47 2.562-.47c-.14 0-.28-.015-.39-.156zm.406-1.687l.031.031.25-.938-2.265.344.046.469c.25-.063.391-.094.485-.094.36 0 .203.032.203.266L.485.969c-.157.547-.063.781-.938.812l-.11.407h3.125l.11-.407h-.39c-.595 0-.579-.125-.579-.375 0-.14.031-.265.063-.422L2 .047c.016.015.344.094.625.094 1.719 0 3.203-2.157 3.203-3.688 0-1.203-.562-1.984-1.281-1.984-.422 0-1.016.281-1.469.718L3-4.734zm0 0"/></svg><svg overflow="visible" x="95.129" y="29.168"><path d="M4.25-1.5l-.219-.094c-.343.578-.39.64-.765.64h-1.75l1.25-1.343c.796-.844 1.203-1.61 1.203-2.328 0-.875-.828-1.703-1.828-1.703-1.11 0-1.875.86-2.079 2l.516.125C1-5.25 1.125-5.406 1.781-5.406c.75 0 1.047.328 1.047 1.14 0 .766-.265 1.344-1.11 2.235L.079-.281V0h3.813l.562-1.406zm0 0"/></svg><svg overflow="visible" x="103.432" y="26.179"><path d="M7.766-1.563v-.921H.406v1.046h7.36zm0-2.39v-.922H.406v1.047h7.36zm0 0"/></svg><svg overflow="visible" x="114.942" y="26.179"><path d="M1.063-.984C1-.75.905-.454.905-.328c0 .203.281.453.672.453.453 0 .578-.656.688-1.11l.359-1.546h1.813L4.202-1.5C4.125-1.14 4-.64 4-.406c0 .234.25.531.61.531.562 0 1.202-.453 1.812-1.219-.047-.14-.266-.36-.5-.36-.36.391-.594.532-.703.532-.094 0 .015.078.015-.062 0-.11.063-.313.125-.625l.672-2.735c.047-.203.157-.562.157-.718 0-.204-.266-.454-.641-.454-.453 0-.61.657-.703 1.11l-.235 1.14H2.797l.156-.687c.11-.469.235-.938.235-1.14 0-.173-.22-.376-.376-.376-.39 0-.921.078-1.562.157-.11.125-.094.453 0 .593l.563.032c.14.015.062-.016.062.109 0 .11-.016.281-.11.61zm0 0"/></svg><svg overflow="visible" x="121.063" y="26.179"><path d="M4.094-4.547c0 1.063-1.11 1.328-1.828 1.422.375-1.531.89-1.75 1.39-1.75.438 0 .438-.031.438.328zM2-2.375c3.11-.61 3.219-1.672 3.219-2.125 0-.297-.422-1.016-1.282-1.016C1.86-5.516.845-3.344.845-1.828c0 1.016.625 1.953 1.625 1.953.797 0 1.625-.453 2.39-1.438-.078-.156-.296-.343-.515-.343-.703.718-.875.797-1.453.797-.532 0-.766-.157-.766-1.25v-.297zm0 0"/></svg><svg overflow="visible" x="125.857" y="26.179"><path d="M6.188-4.344c.046-.203.156-.562.156-.718 0-.204-.266-.454-.64-.454-.454 0-.595.657-.704 1.11l-.344 1.281C3.813-1.672 3.328-.859 2.734-.859c-.218 0-.218.015-.218-.313 0-.187.03-.437.109-.766l.516-1.953c.093-.375.25-.859.25-1.093a.565.565 0 00-.563-.532c-.578 0-1.375.454-1.984 1.22.047.14.281.359.5.359.36-.391.656-.594.765-.594.094 0-.03-.078-.03.078 0 .11-.063.36-.157.672l-.516 2.015a2.765 2.765 0 00-.125.797c0 .688.532 1.094.953 1.094.938 0 1.625-.781 2.422-1.938l-.172-.093-.125.406c-.109.375-.203.86-.203 1.094 0 .234.25.531.594.531.578 0 1.219-.453 1.828-1.219-.047-.14-.266-.36-.5-.36-.36.391-.594.595-.719.595-.078 0 .032.078.032-.079 0-.109.062-.359.125-.671zm0 0"/></svg><svg overflow="visible" x="132.086" y="26.179"><path d="M5.625-4.25c.234 0 .734-.36.734-.766 0-.203-.28-.5-.656-.5-.594 0-1.219.688-1.562 1.25-.407.641-.766 1.079-1.375 1.079l.187-.766c.11-.469.25-.938.25-1.14 0-.173-.234-.376-.39-.376-.391 0-.922.078-1.563.157-.11.125-.094.453 0 .593l.563.032c.14.015.062-.016.062.109 0 .11-.016.281-.11.61L1.064-.985C1-.75.905-.454.905-.328c0 .203.281.453.672.453.453 0 .578-.656.688-1.11L2.625-2.5c.719.078.703.39.828 1.016.094.5.5 1.468 1.047 1.484l.875.031.094-.093.078-.297c0-.079-.203-.22-.266-.22l-.078-.015c-.453-.062-.531-.953-.61-1.422-.124-.578-.671-.953-1.312-.953v.25c.547-.078 1.016-.61 1.328-1.125.204-.375.344-.61.47-.61.28 0 .187.204.546.204zm0 0"/></svg><svg overflow="visible" x="137.705" y="26.179"><path d="M4.906-5.438c-.328-.03-.484-.078-.968-.078C2.671-5.516.78-3.5.78-1.625c0 .672.313 1.75 1.313 1.75.625 0 1.39-.703 2.031-1.64l-.156-.157-.14.469a2.125 2.125 0 00-.126.656c0 .219.235.672.64.672.75 0 1.376-.61 1.688-1.313-.11-.187-.265-.312-.515-.312-.344.484-.454.64-.579.64-.03 0 0 .11 0-.03 0-.11.079-.454.125-.672l.844-3.86c-.453 0-.765.047-1-.016zm-.703 2.594C3.61-1.766 2.797-.797 2.422-.797c-.406 0-.39-.344-.39-1.015 0-1.266.843-3.063 1.952-3.063.25 0 .407.047.625.188h.204s-.36 1.171-.641 1.89zm0 0"/></svg><svg overflow="visible" x="143.515" y="26.179"><path d="M3.86-3.016h-.766c-.563 0-.672-.312-.672-.828 0-.547.437-.969 1.422-.969.156 0 .328.016.297.016l-.407 1.781zM3.437-1.5c-.094.39-.204.86-.204 1.094 0 .234.235.531.594.531.578 0 1.203-.453 1.813-1.219-.047-.14-.266-.36-.5-.36-.344.391-.594.595-.704.595-.093 0 .016.078.016-.079 0-.109.063-.359.14-.671l.704-2.97c.062-.25-.063-.234.219-.234h.312a.7.7 0 00.203-.156v-.297l-.093-.156-1.079.031-1.406-.015c-1.094 0-2.14.797-2.14 1.718 0 .688.859 1.204 1.343 1.25v-.265c-.344.078-.765.36-1.062.844-.297.453-.75 1.234-1.11 1.265L.25-.578c-.078.11-.078.5 0 .61L1.047 0C1.422-.016 2-.547 2.266-1.047c.421-.703.703-1.281 1.171-1.281h.188zm0 0"/></svg><svg overflow="visible" x="151.872" y="26.179"><path d="M4.547-4.25c0 .64-.219 3.625-1.688 3.625-.562 0-.734-.516-.734-1.328.016-1.922.844-2.875 1.656-2.875.328 0 .766.016.766.578zm-.5-1.297c-.25 0-.828.156-1.375.453C1.797-4.609.844-3.328.844-1.828c0 .937.594 1.969 1.64 1.969.891 0 1.438-.422 1.891-.829.734-.671 1.39-2.156 1.39-3.64-.015-.89-.28-1.844-.765-2.578-.89-1.407-1.781-1.282-2.64-1.766h-.032c-.015 0-.203.203-.203.313 0 .39.313.953.875 1.14 1 .344 1.703.39 1.703 1.719 0 .094 0 .188.047.047a3.073 3.073 0 00-.703-.094zm0 0"/></svg><svg overflow="visible" x="157.335" y="26.179"><path d="M3.328-4.953c.047-.219.156-.578.156-.719 0-.203-.265-.453-.656-.453-.453 0-.61.656-.703 1.11L2-4.392c-.578.407-1.016.766-1.422 1.266.063.188.328.406.61.406.296-.39.562-.61.89-.875l-.25-.094L.594 1.798C.53 2.125.5 2.14.125 2.203l-.234.031c-.063.016-.266.157-.266.235v.265l.063.079h.203s.718-.032 1.156-.032c.453 0 1.375-.015 1.375-.015l.062-.063v-.281c0-.063-.171-.219-.218-.235l-.22-.03c-.187-.032-.343.046-.25-.36L2.25-.125s.453.25.797.25c.844 0 1.64-.516 2.172-1.156.64-.782 1.015-1.688 1.015-2.547 0-1.016-.484-1.938-1.687-1.938-.61 0-1.156.266-1.172.266zm1.625 1.562c0 .579-.203 1.313-.656 2.016-.297.484-.672.813-1.125.813-.313 0-.547-.125-.75-.391l.765-3.39c.282-.173.532-.36.985-.36.812 0 .781.719.781 1.312zm0 0"/></svg><svg overflow="visible" x="163.181" y="26.179"><path d="M4.297-.031c.25-.39 1.75-2.719 2.094-3.5.171-.422.312-.86.312-1.281 0-.344-.297-.704-.766-.704-.343 0-.718.297-.718.579 0 .078.093.28.125.343.172.266.203.422.203.625 0 .516-.438 1.313-.844 1.969l.203.188S4.078-1 3.813-.625l.124.063c-.062-1.329-.14-2.454-.5-3.938-.171-.625-.468-1.016-.765-1.016-.281 0-1.266.547-1.735.891 0 .172.11.422.25.578.204-.094.594-.281.844-.281.14 0 .156 0 .235.094.046.093.062.187.125.406.375 1.219.734 4.14.64 4.328-.5.813-.89 1.313-1.062 1.313-.11 0-.25-.125-.313-.188-.093-.078-.422-.203-.515-.203-.25 0-.704.375-.704.734 0 .406.672.64.875.64.641 0 1.672-.812 2.454-2zm0 0"/></svg><svg overflow="visible" x="169.195" y="26.179"><path d="M1.813-4.11c.296-.296.671-.562 1.093-.562.36 0 .406.125.406.453 0 .469-.328.64-.921 1l-.688.422C1.078-2.422.531-1.844.531-1.14c0 .516.547 1.282 1.422 1.282.719 0 1.625-.5 2.125-1.094l-.36-.5c-.5.484-.859.703-1.28.703-.485 0-.626-.219-.626-.672 0-.469.344-.797.922-1.156l.563-.344c.547-.36 1.25-.86 1.25-1.5 0-.531-.563-1.125-1.219-1.125-.765 0-1.547.594-1.969 1.047l.344.516zm0 0"/></svg><svg overflow="visible" x="173.188" y="26.179"><path d="M4.906-5.438c-.328-.03-.484-.078-.968-.078C2.671-5.516.78-3.5.78-1.625c0 .672.313 1.75 1.313 1.75.625 0 1.39-.703 2.031-1.64l-.156-.157-.14.469a2.125 2.125 0 00-.126.656c0 .219.235.672.64.672.75 0 1.376-.61 1.688-1.313-.11-.187-.265-.312-.515-.312-.344.484-.454.64-.579.64-.03 0 0 .11 0-.03 0-.11.079-.454.125-.672l.844-3.86c-.453 0-.765.047-1-.016zm-.703 2.594C3.61-1.766 2.797-.797 2.422-.797c-.406 0-.39-.344-.39-1.015 0-1.266.843-3.063 1.952-3.063.25 0 .407.047.625.188h.204s-.36 1.171-.641 1.89zm0 0"/></svg><svg overflow="visible" x="178.998" y="26.179"><path d="M3.86-3.016h-.766c-.563 0-.672-.312-.672-.828 0-.547.437-.969 1.422-.969.156 0 .328.016.297.016l-.407 1.781zM3.437-1.5c-.094.39-.204.86-.204 1.094 0 .234.235.531.594.531.578 0 1.203-.453 1.813-1.219-.047-.14-.266-.36-.5-.36-.344.391-.594.595-.704.595-.093 0 .016.078.016-.079 0-.109.063-.359.14-.671l.704-2.97c.062-.25-.063-.234.219-.234h.312a.7.7 0 00.203-.156v-.297l-.093-.156-1.079.031-1.406-.015c-1.094 0-2.14.797-2.14 1.718 0 .688.859 1.204 1.343 1.25v-.265c-.344.078-.765.36-1.062.844-.297.453-.75 1.234-1.11 1.265L.25-.578c-.078.11-.078.5 0 .61L1.047 0C1.422-.016 2-.547 2.266-1.047c.421-.703.703-1.281 1.171-1.281h.188zm0 0"/></svg><svg overflow="visible" x="187.355" y="26.179"><path d="M2.016-3.969L1.344-.984c-.063.234-.157.53-.157.656 0 .203.266.453.641.453.453 0 .578-.656.688-1.11l.468-1.89c.907-1.297 1.47-1.656 1.86-1.656.234 0 .156-.047.156.312 0 .14-.016.422-.094.797L4.328-.984c-.062.234-.156.53-.156.656 0 .203.266.453.64.453.454 0 .594-.656.704-1.11l.437-1.843c.984-1.375 1.344-1.703 1.734-1.703.22 0 .188-.047.188.312 0 .125-.016.485-.11.844L7.298-1.5c-.11.5-.203.984-.203 1.094 0 .234.36.531.531.531.703 0 1.5-.484 1.906-1.469-.015-.11-.25-.297-.484-.297-.313.5-.531.782-.75.782-.063 0 .062.062.062 0 0-.047.016-.344.063-.485l.562-2.125c.063-.265.11-.64.11-.875 0-.75-.5-1.172-.875-1.172-.844 0-1.61.766-2.297 1.641l.25.094c.031-.188.047-.406.047-.563 0-.828-.5-1.172-.844-1.172-.86 0-1.734.672-2.39 1.516l.187.078v-.031c.125-.469.265-.938.265-1.14 0-.173-.218-.376-.374-.376-.391 0-.922.078-1.563.157-.11.125-.094.453 0 .593l.563.032c.156.015.062-.016.062.109 0 .11-.031.281-.11.61zm0 0"/></svg><svg overflow="visible" x="196.716" y="26.179"><path d="M2.063-2.156c0-1.078.328-2.703 1.593-2.703.36 0 .438.156.61.5.156.296.14.64.14 1 0 .484-.015 1.406-.468 2.078-.329.515-.704.703-1.157.703-.344 0-.719-.328-.719-1.578zM.78-2.062c0 .624.313 2.187 1.828 2.187a2.86 2.86 0 001.188-.266c1.047-.53 1.906-1.89 1.906-3.296 0-.86-.36-2.079-1.828-2.079-2 0-3.094 2.016-3.094 3.454zm0 0"/></svg><svg overflow="visible" x="202.06" y="26.179"><path d="M3.016-3.953c.125-.469.234-.938.234-1.14 0-.173-.219-.376-.375-.376-.39 0-.922.078-1.578.157-.11.125-.078.453.016.593l.562.032c.14.015.063-.016.063.109 0 .11-.032.281-.11.61l-.172.796c-.062.297-.093.5-.093.703 0 .469.312.906.953.906.687 0 1.687-.578 2.234-1l-.25-.093L4.25-1.5c-.078.36-.203.86-.203 1.094 0 .234.25.531.61.531.562 0 1.202-.453 1.812-1.219-.047-.14-.266-.36-.5-.36-.344.391-.594.532-.703.532-.094 0 .015.078.015-.062 0-.11.063-.313.14-.625l.657-2.735c.047-.203.156-.562.156-.718 0-.204-.265-.454-.64-.454-.453 0-.61.657-.703 1.11l-.266 1.203c-.453.344-1.11.781-1.5.781-.406 0-.313-.094-.313-.422 0-.203.032-.469.11-.797zm0 0"/></svg><svg overflow="visible" x="208.216" y="26.179"><path d="M5.625-4.25c.234 0 .734-.36.734-.766 0-.203-.28-.5-.656-.5-.594 0-1.219.688-1.562 1.25-.407.641-.766 1.079-1.375 1.079l.187-.766c.11-.469.25-.938.25-1.14 0-.173-.234-.376-.39-.376-.391 0-.922.078-1.563.157-.11.125-.094.453 0 .593l.563.032c.14.015.062-.016.062.109 0 .11-.016.281-.11.61L1.064-.985C1-.75.905-.454.905-.328c0 .203.281.453.672.453.453 0 .578-.656.688-1.11L2.625-2.5c.719.078.703.39.828 1.016.094.5.5 1.468 1.047 1.484l.875.031.094-.093.078-.297c0-.079-.203-.22-.266-.22l-.078-.015c-.453-.062-.531-.953-.61-1.422-.124-.578-.671-.953-1.312-.953v.25c.547-.078 1.016-.61 1.328-1.125.204-.375.344-.61.47-.61.28 0 .187.204.546.204zm0 0"/></svg><svg overflow="visible" x="213.835" y="26.179"><path d="M4.906-5.438c-.328-.03-.484-.078-.968-.078C2.671-5.516.78-3.5.78-1.625c0 .672.313 1.75 1.313 1.75.625 0 1.39-.703 2.031-1.64l-.156-.157-.14.469a2.125 2.125 0 00-.126.656c0 .219.235.672.64.672.75 0 1.376-.61 1.688-1.313-.11-.187-.265-.312-.515-.312-.344.484-.454.64-.579.64-.03 0 0 .11 0-.03 0-.11.079-.454.125-.672l.844-3.86c-.453 0-.765.047-1-.016zm-.703 2.594C3.61-1.766 2.797-.797 2.422-.797c-.406 0-.39-.344-.39-1.015 0-1.266.843-3.063 1.952-3.063.25 0 .407.047.625.188h.204s-.36 1.171-.641 1.89zm0 0"/></svg><svg overflow="visible" x="41.937" y="43.614"><path d="M3.328-4.953c.047-.219.156-.578.156-.719 0-.203-.265-.453-.656-.453-.453 0-.61.656-.703 1.11L2-4.392c-.578.407-1.016.766-1.422 1.266.063.188.328.406.61.406.296-.39.562-.61.89-.875l-.25-.094L.594 1.798C.53 2.125.5 2.14.125 2.203l-.234.031c-.063.016-.266.157-.266.235v.265l.063.079h.203s.718-.032 1.156-.032c.453 0 1.375-.015 1.375-.015l.062-.063v-.281c0-.063-.171-.219-.218-.235l-.22-.03c-.187-.032-.343.046-.25-.36L2.25-.125s.453.25.797.25c.844 0 1.64-.516 2.172-1.156.64-.782 1.015-1.688 1.015-2.547 0-1.016-.484-1.938-1.687-1.938-.61 0-1.156.266-1.172.266zm1.625 1.562c0 .579-.203 1.313-.656 2.016-.297.484-.672.813-1.125.813-.313 0-.547-.125-.75-.391l.765-3.39c.282-.173.532-.36.985-.36.812 0 .781.719.781 1.312zm0 0"/></svg><svg overflow="visible" x="47.783" y="43.614"><path d="M4.906-5.438c-.328-.03-.484-.078-.968-.078C2.671-5.516.78-3.5.78-1.625c0 .672.313 1.75 1.313 1.75.625 0 1.39-.703 2.031-1.64l-.156-.157-.14.469a2.125 2.125 0 00-.126.656c0 .219.235.672.64.672.75 0 1.376-.61 1.688-1.313-.11-.187-.265-.312-.515-.312-.344.484-.454.64-.579.64-.03 0 0 .11 0-.03 0-.11.079-.454.125-.672l.844-3.86c-.453 0-.765.047-1-.016zm-.703 2.594C3.61-1.766 2.797-.797 2.422-.797c-.406 0-.39-.344-.39-1.015 0-1.266.843-3.063 1.952-3.063.25 0 .407.047.625.188h.204s-.36 1.171-.641 1.89zm0 0"/></svg><svg overflow="visible" x="53.593" y="43.614"><path d="M2.5.125c.86 0 1.734-.656 2.36-1.531-.048-.14-.313-.36-.485-.36-.5.563-.875.922-1.5.922-.203 0-.344-.015-.516-.25-.171-.218-.25-.36-.25-1.078 0-1.781.704-2.703 1.625-2.703.157 0 .344-.078.344.328 0 .063.016.063-.016.125-.03.047-.109.281-.109.344 0 .187.281.516.485.516.312 0 .765-.376.765-.672 0-.47-.187-1.282-1.484-1.282-.485 0-1.36.36-1.86.875C1.281-4 .844-2.984.844-1.906c0 .39.11 1.015.406 1.422.25.343.766.609 1.25.609zm0 0"/></svg><svg overflow="visible" x="58.244" y="43.614"><path d="M2.5.125c.86 0 1.734-.656 2.36-1.531-.048-.14-.313-.36-.485-.36-.5.563-.875.922-1.5.922-.203 0-.344-.015-.516-.25-.171-.218-.25-.36-.25-1.078 0-1.781.704-2.703 1.625-2.703.157 0 .344-.078.344.328 0 .063.016.063-.016.125-.03.047-.109.281-.109.344 0 .187.281.516.485.516.312 0 .765-.376.765-.672 0-.47-.187-1.282-1.484-1.282-.485 0-1.36.36-1.86.875C1.281-4 .844-2.984.844-1.906c0 .39.11 1.015.406 1.422.25.343.766.609 1.25.609zm0 0"/></svg><svg overflow="visible" x="62.894" y="43.614"><path d="M2.016-3.969L1.344-.984c-.063.234-.157.53-.157.656 0 .203.266.453.641.453.453 0 .578-.656.688-1.11l.468-1.89c.907-1.297 1.47-1.656 1.86-1.656.234 0 .156-.047.156.312 0 .14-.016.422-.094.797L4.328-.984c-.062.234-.156.53-.156.656 0 .203.266.453.64.453.454 0 .594-.656.704-1.11l.437-1.843c.984-1.375 1.344-1.703 1.734-1.703.22 0 .188-.047.188.312 0 .125-.016.485-.11.844L7.298-1.5c-.11.5-.203.984-.203 1.094 0 .234.36.531.531.531.703 0 1.5-.484 1.906-1.469-.015-.11-.25-.297-.484-.297-.313.5-.531.782-.75.782-.063 0 .062.062.062 0 0-.047.016-.344.063-.485l.562-2.125c.063-.265.11-.64.11-.875 0-.75-.5-1.172-.875-1.172-.844 0-1.61.766-2.297 1.641l.25.094c.031-.188.047-.406.047-.563 0-.828-.5-1.172-.844-1.172-.86 0-1.734.672-2.39 1.516l.187.078v-.031c.125-.469.265-.938.265-1.14 0-.173-.218-.376-.374-.376-.391 0-.922.078-1.563.157-.11.125-.094.453 0 .593l.563.032c.156.015.062-.016.062.109 0 .11-.031.281-.11.61zm0 0"/></svg><svg overflow="visible" x="72.255" y="43.614"><path d="M2.063-2.156c0-1.078.328-2.703 1.593-2.703.36 0 .438.156.61.5.156.296.14.64.14 1 0 .484-.015 1.406-.468 2.078-.329.515-.704.703-1.157.703-.344 0-.719-.328-.719-1.578zM.78-2.062c0 .624.313 2.187 1.828 2.187a2.86 2.86 0 001.188-.266c1.047-.53 1.906-1.89 1.906-3.296 0-.86-.36-2.079-1.828-2.079-2 0-3.094 2.016-3.094 3.454zm0 0"/></svg><svg overflow="visible" x="77.599" y="43.614"><path d="M3.86-3.016h-.766c-.563 0-.672-.312-.672-.828 0-.547.437-.969 1.422-.969.156 0 .328.016.297.016l-.407 1.781zM3.437-1.5c-.094.39-.204.86-.204 1.094 0 .234.235.531.594.531.578 0 1.203-.453 1.813-1.219-.047-.14-.266-.36-.5-.36-.344.391-.594.595-.704.595-.093 0 .016.078.016-.079 0-.109.063-.359.14-.671l.704-2.97c.062-.25-.063-.234.219-.234h.312a.7.7 0 00.203-.156v-.297l-.093-.156-1.079.031-1.406-.015c-1.094 0-2.14.797-2.14 1.718 0 .688.859 1.204 1.343 1.25v-.265c-.344.078-.765.36-1.062.844-.297.453-.75 1.234-1.11 1.265L.25-.578c-.078.11-.078.5 0 .61L1.047 0C1.422-.016 2-.547 2.266-1.047c.421-.703.703-1.281 1.171-1.281h.188zm0 0"/></svg><svg overflow="visible" x="82.967" y="43.614"><path d="M1.063-.984C1-.75.905-.454.905-.328c0 .203.281.453.672.453.453 0 .578-.656.688-1.11l.359-1.546h1.813L4.202-1.5C4.125-1.14 4-.64 4-.406c0 .234.25.531.61.531.562 0 1.202-.453 1.812-1.219-.047-.14-.266-.36-.5-.36-.36.391-.594.532-.703.532-.094 0 .015.078.015-.062 0-.11.063-.313.125-.625l.672-2.735c.047-.203.157-.562.157-.718 0-.204-.266-.454-.641-.454-.453 0-.61.657-.703 1.11l-.235 1.14H2.797l.156-.687c.11-.469.235-.938.235-1.14 0-.173-.22-.376-.376-.376-.39 0-.921.078-1.562.157-.11.125-.094.453 0 .593l.563.032c.14.015.062-.016.062.109 0 .11-.016.281-.11.61zm0 0"/></svg><svg overflow="visible" x="89.088" y="43.614"><path d="M6.188-4.344c.046-.203.156-.562.156-.718 0-.204-.266-.454-.64-.454-.454 0-.595.657-.704 1.11l-.344 1.281C3.813-1.672 3.328-.859 2.734-.859c-.218 0-.218.015-.218-.313 0-.187.03-.437.109-.766l.516-1.953c.093-.375.25-.859.25-1.093a.565.565 0 00-.563-.532c-.578 0-1.375.454-1.984 1.22.047.14.281.359.5.359.36-.391.656-.594.765-.594.094 0-.03-.078-.03.078 0 .11-.063.36-.157.672l-.516 2.015a2.765 2.765 0 00-.125.797c0 .688.532 1.094.953 1.094.938 0 1.625-.781 2.422-1.938l-.172-.093-.125.406c-.109.375-.203.86-.203 1.094 0 .234.25.531.594.531.578 0 1.219-.453 1.828-1.219-.047-.14-.266-.36-.5-.36-.36.391-.594.595-.719.595-.078 0 .032.078.032-.079 0-.109.062-.359.125-.671zm0 0"/></svg><svg overflow="visible" x="95.317" y="43.614"><path d="M4.094-4.547c0 1.063-1.11 1.328-1.828 1.422.375-1.531.89-1.75 1.39-1.75.438 0 .438-.031.438.328zM2-2.375c3.11-.61 3.219-1.672 3.219-2.125 0-.297-.422-1.016-1.282-1.016C1.86-5.516.845-3.344.845-1.828c0 1.016.625 1.953 1.625 1.953.797 0 1.625-.453 2.39-1.438-.078-.156-.296-.343-.515-.343-.703.718-.875.797-1.453.797-.532 0-.766-.157-.766-1.25v-.297zm0 0"/></svg><g><svg overflow="visible" x="103.432" y="43.614"><path d="M7.766-1.563v-.921H.406v1.046h7.36zm0-2.39v-.922H.406v1.047h7.36zm0 0"/></svg></g><g><svg overflow="visible" x="114.933" y="43.614"><path d="M3.734 1.703C2.063.297 1.75-.953 1.75-3.172c0-2.312.328-3.328 2.063-4.812l-.235-.422C1.5-7.172.406-5.36.406-3.141.406-1.109 1.484 1 3.531 2.172l.297-.406zm0 0"/></svg><svg overflow="visible" x="118.914" y="43.614"><path d="M2.719-2.969c.234-1.031.703-1.64 1.328-1.64.281 0 .453.109.453.875C4.5-2.406 3.766-.47 2.562-.47c-.14 0-.28-.015-.39-.156zm.406-1.687l.031.031.25-.938-2.265.344.046.469c.25-.063.391-.094.485-.094.36 0 .203.032.203.266L.485.969c-.157.547-.063.781-.938.812l-.11.407h3.125l.11-.407h-.39c-.595 0-.579-.125-.579-.375 0-.14.031-.265.063-.422L2 .047c.016.015.344.094.625.094 1.719 0 3.203-2.157 3.203-3.688 0-1.203-.562-1.984-1.281-1.984-.422 0-1.016.281-1.469.718L3-4.734zm0 0"/></svg></g><g><svg overflow="visible" x="124.769" y="46.603"><path d="M4.25-1.5l-.219-.094c-.343.578-.39.64-.765.64h-1.75l1.25-1.343c.796-.844 1.203-1.61 1.203-2.328 0-.875-.828-1.703-1.828-1.703-1.11 0-1.875.86-2.079 2l.516.125C1-5.25 1.125-5.406 1.781-5.406c.75 0 1.047.328 1.047 1.14 0 .766-.265 1.344-1.11 2.235L.079-.281V0h3.813l.562-1.406zm0 0"/></svg></g><g><svg overflow="visible" x="132.408" y="43.614"><path d="M7.578-2.766v-.921H.594v1.062h6.984zm0 0"/></svg></g><g><svg overflow="visible" x="143.251" y="43.614"><path d="M2.719-2.969c.234-1.031.703-1.64 1.328-1.64.281 0 .453.109.453.875C4.5-2.406 3.766-.47 2.562-.47c-.14 0-.28-.015-.39-.156zm.406-1.687l.031.031.25-.938-2.265.344.046.469c.25-.063.391-.094.485-.094.36 0 .203.032.203.266L.485.969c-.157.547-.063.781-.938.812l-.11.407h3.125l.11-.407h-.39c-.595 0-.579-.125-.579-.375 0-.14.031-.265.063-.422L2 .047c.016.015.344.094.625.094 1.719 0 3.203-2.157 3.203-3.688 0-1.203-.562-1.984-1.281-1.984-.422 0-1.016.281-1.469.718L3-4.734zm0 0"/></svg></g><g><svg overflow="visible" x="149.1" y="46.603"><path d="M3.719-.14v-.266c-.86 0-.86-.031-.86-.406V-6.25l-.296-.094-1.75.89v.407l.421-.156a1.05 1.05 0 01.407-.11c.187 0 .078 0 .078.297v4.032c0 .484 0 .546-.844.593V0h2.844zm0 0"/></svg></g><g><svg overflow="visible" x="154.081" y="43.614"><path d="M.234-7.922c1.72 1.36 1.985 2.64 1.985 4.875C2.219-.734 1.922.297.156 1.75l.235.438C2.469.921 3.562-.876 3.562-3.079c0-2.031-1.14-4.125-3.124-5.328L.124-8zm0 0"/></svg></g><g><svg overflow="visible" x="32.54" y="66.399"><path d="M2.5.125c.86 0 1.734-.656 2.36-1.531-.048-.14-.313-.36-.485-.36-.5.563-.875.922-1.5.922-.203 0-.344-.015-.516-.25-.171-.218-.25-.36-.25-1.078 0-1.781.704-2.703 1.625-2.703.157 0 .344-.078.344.328 0 .063.016.063-.016.125-.03.047-.109.281-.109.344 0 .187.281.516.485.516.312 0 .765-.376.765-.672 0-.47-.187-1.282-1.484-1.282-.485 0-1.36.36-1.86.875C1.281-4 .844-2.984.844-1.906c0 .39.11 1.015.406 1.422.25.343.766.609 1.25.609zm0 0"/></svg><svg overflow="visible" x="37.191" y="66.399"><path d="M2.063-2.156c0-1.078.328-2.703 1.593-2.703.36 0 .438.156.61.5.156.296.14.64.14 1 0 .484-.015 1.406-.468 2.078-.329.515-.704.703-1.157.703-.344 0-.719-.328-.719-1.578zM.78-2.062c0 .624.313 2.187 1.828 2.187a2.86 2.86 0 001.188-.266c1.047-.53 1.906-1.89 1.906-3.296 0-.86-.36-2.079-1.828-2.079-2 0-3.094 2.016-3.094 3.454zm0 0"/></svg><svg overflow="visible" x="42.535" y="66.399"><path d="M2.063-2.156c0-1.078.328-2.703 1.593-2.703.36 0 .438.156.61.5.156.296.14.64.14 1 0 .484-.015 1.406-.468 2.078-.329.515-.704.703-1.157.703-.344 0-.719-.328-.719-1.578zM.78-2.062c0 .624.313 2.187 1.828 2.187a2.86 2.86 0 001.188-.266c1.047-.53 1.906-1.89 1.906-3.296 0-.86-.36-2.079-1.828-2.079-2 0-3.094 2.016-3.094 3.454zm0 0"/></svg><svg overflow="visible" x="47.879" y="66.399"><path d="M2.016-3.969L1.344-.984c-.063.234-.157.53-.157.656 0 .203.266.453.641.453.453 0 .578-.656.688-1.11l.468-1.89c.907-1.297 1.47-1.656 1.86-1.656.234 0 .156-.047.156.312 0 .14-.016.422-.094.797L4.328-.984c-.062.234-.156.53-.156.656 0 .203.266.453.64.453.454 0 .594-.656.704-1.11l.437-1.843c.984-1.375 1.344-1.703 1.734-1.703.22 0 .188-.047.188.312 0 .125-.016.485-.11.844L7.298-1.5c-.11.5-.203.984-.203 1.094 0 .234.36.531.531.531.703 0 1.5-.484 1.906-1.469-.015-.11-.25-.297-.484-.297-.313.5-.531.782-.75.782-.063 0 .062.062.062 0 0-.047.016-.344.063-.485l.562-2.125c.063-.265.11-.64.11-.875 0-.75-.5-1.172-.875-1.172-.844 0-1.61.766-2.297 1.641l.25.094c.031-.188.047-.406.047-.563 0-.828-.5-1.172-.844-1.172-.86 0-1.734.672-2.39 1.516l.187.078v-.031c.125-.469.265-.938.265-1.14 0-.173-.218-.376-.374-.376-.391 0-.922.078-1.563.157-.11.125-.094.453 0 .593l.563.032c.156.015.062-.016.062.109 0 .11-.031.281-.11.61zm0 0"/></svg><svg overflow="visible" x="57.239" y="66.399"><path d="M1.063-.984C1-.75.905-.454.905-.328c0 .203.281.453.672.453.453 0 .578-.656.688-1.11l.359-1.546h1.813L4.202-1.5C4.125-1.14 4-.64 4-.406c0 .234.25.531.61.531.562 0 1.202-.453 1.812-1.219-.047-.14-.266-.36-.5-.36-.36.391-.594.532-.703.532-.094 0 .015.078.015-.062 0-.11.063-.313.125-.625l.672-2.735c.047-.203.157-.562.157-.718 0-.204-.266-.454-.641-.454-.453 0-.61.657-.703 1.11l-.235 1.14H2.797l.156-.687c.11-.469.235-.938.235-1.14 0-.173-.22-.376-.376-.376-.39 0-.921.078-1.562.157-.11.125-.094.453 0 .593l.563.032c.14.015.062-.016.062.109 0 .11-.016.281-.11.61zm0 0"/></svg><svg overflow="visible" x="63.361" y="66.399"><path d="M2.063-2.156c0-1.078.328-2.703 1.593-2.703.36 0 .438.156.61.5.156.296.14.64.14 1 0 .484-.015 1.406-.468 2.078-.329.515-.704.703-1.157.703-.344 0-.719-.328-.719-1.578zM.78-2.062c0 .624.313 2.187 1.828 2.187a2.86 2.86 0 001.188-.266c1.047-.53 1.906-1.89 1.906-3.296 0-.86-.36-2.079-1.828-2.079-2 0-3.094 2.016-3.094 3.454zm0 0"/></svg><svg overflow="visible" x="68.704" y="66.399"><path d="M4.406-.969c0 .688.5 1.094.953 1.094 1.063 0 1.625-.781 2.407-1.938l-.157-.093-.125.406c-.109.375-.203.86-.203 1.094 0 .234.235.531.594.531.578 0 1.203-.453 1.813-1.219-.047-.14-.25-.36-.5-.36-.344.391-.579.532-.704.532-.078 0 .032.078.032-.062 0-.11.062-.313.125-.625l.671-2.735c.047-.203.157-.562.157-.718 0-.204-.266-.454-.64-.454-.47 0-.595.657-.72 1.11l-.328 1.281C6.938-1.672 6.453-.765 5.86-.765c-.218 0-.203-.079-.203-.391 0-.14 0-.453.078-.797l.547-2.39c.047-.204.157-.563.157-.72 0-.203-.266-.453-.657-.453-.453 0-.61.672-.703 1.11l-.39 1.843C3.703-1.187 3.375-.734 2.984-.734c-.218 0-.296-.063-.296-.5 0-.125.03-.422.124-.782L3.25-3.89c.094-.375.234-.859.234-1.093a.553.553 0 00-.562-.532c-.578 0-1.375.454-1.985 1.22.047.14.282.359.516.359.344-.391.625-.532.75-.532.078 0-.047-.078-.047.063 0 .11-.047.312-.125.625l-.437 1.86c-.063.265-.11.577-.11.812 0 .796.594 1.234.97 1.234.843 0 1.577-.766 2.187-1.531l-.157-.14c-.062.171-.078.484-.078.577zm0 0"/></svg><svg overflow="visible" x="78.173" y="66.399"><path d="M4.094-4.547c0 1.063-1.11 1.328-1.828 1.422.375-1.531.89-1.75 1.39-1.75.438 0 .438-.031.438.328zM2-2.375c3.11-.61 3.219-1.672 3.219-2.125 0-.297-.422-1.016-1.282-1.016C1.86-5.516.845-3.344.845-1.828c0 1.016.625 1.953 1.625 1.953.797 0 1.625-.453 2.39-1.438-.078-.156-.296-.343-.515-.343-.703.718-.875.797-1.453.797-.532 0-.766-.157-.766-1.25v-.297zm0 0"/></svg><svg overflow="visible" x="82.967" y="66.399"><path d="M1.063-.984C1-.75.905-.454.905-.328c0 .203.281.453.672.453.453 0 .578-.656.688-1.11l.359-1.546h1.813L4.202-1.5C4.125-1.14 4-.64 4-.406c0 .234.25.531.61.531.562 0 1.202-.453 1.812-1.219-.047-.14-.266-.36-.5-.36-.36.391-.594.532-.703.532-.094 0 .015.078.015-.062 0-.11.063-.313.125-.625l.672-2.735c.047-.203.157-.562.157-.718 0-.204-.266-.454-.641-.454-.453 0-.61.657-.703 1.11l-.235 1.14H2.797l.156-.687c.11-.469.235-.938.235-1.14 0-.173-.22-.376-.376-.376-.39 0-.921.078-1.562.157-.11.125-.094.453 0 .593l.563.032c.14.015.062-.016.062.109 0 .11-.016.281-.11.61zm0 0"/></svg><svg overflow="visible" x="89.088" y="66.399"><path d="M6.188-4.344c.046-.203.156-.562.156-.718 0-.204-.266-.454-.64-.454-.454 0-.595.657-.704 1.11l-.344 1.281C3.813-1.672 3.328-.859 2.734-.859c-.218 0-.218.015-.218-.313 0-.187.03-.437.109-.766l.516-1.953c.093-.375.25-.859.25-1.093a.565.565 0 00-.563-.532c-.578 0-1.375.454-1.984 1.22.047.14.281.359.5.359.36-.391.656-.594.765-.594.094 0-.03-.078-.03.078 0 .11-.063.36-.157.672l-.516 2.015a2.765 2.765 0 00-.125.797c0 .688.532 1.094.953 1.094.938 0 1.625-.781 2.422-1.938l-.172-.093-.125.406c-.109.375-.203.86-.203 1.094 0 .234.25.531.594.531.578 0 1.219-.453 1.828-1.219-.047-.14-.266-.36-.5-.36-.36.391-.594.595-.719.595-.078 0 .032.078.032-.079 0-.109.062-.359.125-.671zm0 0"/></svg><svg overflow="visible" x="95.317" y="66.399"><path d="M4.094-4.547c0 1.063-1.11 1.328-1.828 1.422.375-1.531.89-1.75 1.39-1.75.438 0 .438-.031.438.328zM2-2.375c3.11-.61 3.219-1.672 3.219-2.125 0-.297-.422-1.016-1.282-1.016C1.86-5.516.845-3.344.845-1.828c0 1.016.625 1.953 1.625 1.953.797 0 1.625-.453 2.39-1.438-.078-.156-.296-.343-.515-.343-.703.718-.875.797-1.453.797-.532 0-.766-.157-.766-1.25v-.297zm0 0"/></svg></g><g><svg overflow="visible" x="103.432" y="66.399"><path d="M7.766-1.563v-.921H.406v1.046h7.36zm0-2.39v-.922H.406v1.047h7.36zm0 0"/></svg></g><g><svg overflow="visible" x="116.138" y="57.803"><path d="M5.313-1.61l.453-1.906c.109-.421.156-.687.156-.906 0-.719-.453-1.094-.922-1.094-.625 0-1.25.297-2.25 1.47l.156.155.016-.062c.156-.453.25-.953.25-1.14 0-.173-.219-.376-.375-.376-.375 0-.938.063-1.594.157-.11.125-.078.453.016.593l.562.032c.14.015.063-.016.063.109 0 .094-.032.281-.11.61L1.063-.985C1-.75.905-.454.905-.328c0 .187.281.453.672.453.453 0 .578-.656.688-1.11l.453-1.937c.719-.937 1.281-1.61 1.703-1.61.25 0 .266-.077.266.298 0 .14-.079.484-.157.812L4.078-1.5c-.094.375-.203.86-.203 1.094 0 .234.281.531.64.531.579 0 1.25-.453 1.86-1.219-.047-.14-.266-.36-.5-.36-.36.391-.594.595-.719.595-.078 0 .032.078.032-.079 0-.109.062-.359.125-.671zm0 0"/></svg><svg overflow="visible" x="122.331" y="57.803"><path d="M3.328-4.953c.047-.219.156-.578.156-.719 0-.203-.265-.453-.656-.453-.453 0-.61.656-.703 1.11L2-4.392c-.578.407-1.016.766-1.422 1.266.063.188.328.406.61.406.296-.39.562-.61.89-.875l-.25-.094L.594 1.798C.53 2.125.5 2.14.125 2.203l-.234.031c-.063.016-.266.157-.266.235v.265l.063.079h.203s.718-.032 1.156-.032c.453 0 1.375-.015 1.375-.015l.062-.063v-.281c0-.063-.171-.219-.218-.235l-.22-.03c-.187-.032-.343.046-.25-.36L2.25-.125s.453.25.797.25c.844 0 1.64-.516 2.172-1.156.64-.782 1.015-1.688 1.015-2.547 0-1.016-.484-1.938-1.687-1.938-.61 0-1.156.266-1.172.266zm1.625 1.562c0 .579-.203 1.313-.656 2.016-.297.484-.672.813-1.125.813-.313 0-.547-.125-.75-.391l.765-3.39c.282-.173.532-.36.985-.36.812 0 .781.719.781 1.312zm0 0"/></svg><svg overflow="visible" x="128.177" y="57.803"><path d="M2.063-2.156c0-1.078.328-2.703 1.593-2.703.36 0 .438.156.61.5.156.296.14.64.14 1 0 .484-.015 1.406-.468 2.078-.329.515-.704.703-1.157.703-.344 0-.719-.328-.719-1.578zM.78-2.062c0 .624.313 2.187 1.828 2.187a2.86 2.86 0 001.188-.266c1.047-.53 1.906-1.89 1.906-3.296 0-.86-.36-2.079-1.828-2.079-2 0-3.094 2.016-3.094 3.454zm0 0"/></svg><svg overflow="visible" x="133.521" y="57.803"><path d="M6.344-5.063c0-.203-.266-.453-.64-.453-.454 0-.595.657-.704 1.11l-.344 1.281C3.813-1.672 3.328-.859 2.734-.859c-.218 0-.218.015-.218-.313 0-.187.03-.437.109-.766l.516-1.953c.093-.375.25-.859.25-1.093a.565.565 0 00-.563-.532c-.578 0-1.375.454-1.984 1.22.047.14.281.359.5.359.36-.391.656-.594.765-.594.094 0-.03-.078-.03.078 0 .11-.063.36-.157.672l-.516 2.015a2.765 2.765 0 00-.125.797c0 .688.532 1.094.953 1.094.938 0 1.625-.781 2.422-1.938l-.172-.093-.125.406c-.109.375-.203.86-.203 1.094 0 .234.25.531.594.531.234 0 .563-.11.406-.031a1.909 1.909 0 00-.093.594c0 .14.015.234.015.296 0 .36-.172.422-.703.657l.234.562c1.204-.484 1.47-1 1.47-1.312 0-.188-.032-.329-.063-.485a2.078 2.078 0 01-.047-.5c0-.14.031-.297.062-.39.14-.125.297-.313.547-.61-.047-.14-.266-.36-.5-.36-.36.391-.594.595-.719.595-.078 0 .032.078.032-.079 0-.109.062-.359.125-.671l.671-2.735c.047-.203.157-.562.157-.718zm0 0"/></svg><svg overflow="visible" x="139.75" y="57.803"><path d="M4.094-4.547c0 1.063-1.11 1.328-1.828 1.422.375-1.531.89-1.75 1.39-1.75.438 0 .438-.031.438.328zM2-2.375c3.11-.61 3.219-1.672 3.219-2.125 0-.297-.422-1.016-1.282-1.016C1.86-5.516.845-3.344.845-1.828c0 1.016.625 1.953 1.625 1.953.797 0 1.625-.453 2.39-1.438-.078-.156-.296-.343-.515-.343-.703.718-.875.797-1.453.797-.532 0-.766-.157-.766-1.25v-.297zm0 0"/></svg><svg overflow="visible" x="144.544" y="57.803"><path d="M1.063-.984C1-.75.905-.454.905-.328c0 .203.281.453.672.453.453 0 .578-.656.688-1.11l.359-1.546h1.813L4.202-1.5C4.125-1.14 4-.64 4-.406c0 .234.25.531.61.531.562 0 1.202-.453 1.812-1.219-.047-.14-.266-.36-.5-.36-.36.391-.594.532-.703.532-.094 0 .015.078.015-.062 0-.11.063-.313.125-.625l.672-2.735c.047-.203.157-.562.157-.718 0-.204-.266-.454-.641-.454-.453 0-.61.657-.703 1.11l-.235 1.14H2.797l.156-.687c.11-.469.235-.938.235-1.14 0-.173-.22-.376-.376-.376-.39 0-.921.078-1.562.157-.11.125-.094.453 0 .593l.563.032c.14.015.062-.016.062.109 0 .11-.016.281-.11.61zm0 0"/></svg><svg overflow="visible" x="150.665" y="57.803"><path d="M2.016-3.969L1.344-.984c-.063.234-.157.53-.157.656 0 .203.266.453.641.453.453 0 .578-.656.688-1.11l.468-1.89c.907-1.297 1.47-1.656 1.86-1.656.234 0 .156-.047.156.312 0 .14-.016.422-.094.797L4.328-.984c-.062.234-.156.53-.156.656 0 .203.266.453.64.453.454 0 .594-.656.704-1.11l.437-1.843c.984-1.375 1.344-1.703 1.734-1.703.22 0 .188-.047.188.312 0 .125-.016.485-.11.844L7.298-1.5c-.11.5-.203.984-.203 1.094 0 .234.36.531.531.531.703 0 1.5-.484 1.906-1.469-.015-.11-.25-.297-.484-.297-.313.5-.531.782-.75.782-.063 0 .062.062.062 0 0-.047.016-.344.063-.485l.562-2.125c.063-.265.11-.64.11-.875 0-.75-.5-1.172-.875-1.172-.844 0-1.61.766-2.297 1.641l.25.094c.031-.188.047-.406.047-.563 0-.828-.5-1.172-.844-1.172-.86 0-1.734.672-2.39 1.516l.187.078v-.031c.125-.469.265-.938.265-1.14 0-.173-.218-.376-.374-.376-.391 0-.922.078-1.563.157-.11.125-.094.453 0 .593l.563.032c.156.015.062-.016.062.109 0 .11-.031.281-.11.61zm0 0"/></svg><svg overflow="visible" x="160.026" y="57.803"><path d="M4.906-5.438c-.328-.03-.484-.078-.968-.078C2.671-5.516.78-3.5.78-1.625c0 .672.313 1.75 1.313 1.75.625 0 1.39-.703 2.031-1.64l-.156-.157-.14.469a2.125 2.125 0 00-.126.656c0 .219.235.672.64.672.75 0 1.376-.61 1.688-1.313-.11-.187-.265-.312-.515-.312-.344.484-.454.64-.579.64-.03 0 0 .11 0-.03 0-.11.079-.454.125-.672l.844-3.86c-.453 0-.765.047-1-.016zm-.703 2.594C3.61-1.766 2.797-.797 2.422-.797c-.406 0-.39-.344-.39-1.015 0-1.266.843-3.063 1.952-3.063.25 0 .407.047.625.188h.204s-.36 1.171-.641 1.89zm0 0"/></svg><svg overflow="visible" x="165.836" y="57.803"><path d="M4.719-4.406l-.282 1.172h-.546c.046-.157.093-.454.093-.86 0-.703-.437-1.437-.953-1.437-.5 0-1.265.547-1.89 1.187l.265.563c.422-.39.828-.797 1.125-.797.328 0 .344.312.344.922 0 1.594-.703 2.86-1.219 2.86-.39 0-.593-.329-.75-.329-.281 0-.578.422-.578.656 0 .203.422.61.719.61C1.813.14 3.28-1 3.734-2.531h.547l-.36 1.547c-.062.234-.155.53-.155.656 0 .203.28.453.671.453.438 0 .579-.656.672-1.11l.375-1.562h.547a4.98 4.98 0 00-.187 1.281c0 .657.437 1.407.984 1.407.438 0 1.328-.532 1.906-1.235l-.25-.562c-.421.437-.828.797-1.125.797C7-.86 7-1.33 7-1.906c0-1.469.64-2.657 1.125-2.657.172 0 .094-.03.297.204.078.078.265.125.406.125.172 0 .5-.266.5-.672 0-.235-.406-.625-.64-.625-.61 0-1.954 1.031-2.454 2.297h-.609l.266-1.11c.046-.203.156-.562.156-.718 0-.204-.25-.454-.625-.454-.453 0-.594.657-.703 1.11zm0 0"/></svg></g><path d="M116.137 63.41h58.605" fill="none" stroke-width=".789" stroke="#000" stroke-miterlimit="10"/><g><svg overflow="visible" x="136.474" y="74.768"><path d="M4.86-.125v-.313c-1.048 0-1.126-.093-1.126-.609v-7.219l-.296-.093-2.282 1.156v.453l.5-.188c.203-.093.407-.156.532-.156.25 0 .187.047.187.453v5.375c0 .657-.078.782-1.125.829V0h3.61zm0 0"/></svg><svg overflow="visible" x="142.452" y="74.768"><path d="M4.375-4.016c0 2.36-.375 3.61-1.39 3.61-1.032 0-1.391-1.235-1.391-3.656 0-2.422.375-3.704 1.375-3.704 1.047 0 1.406 1.266 1.406 3.75zm1.469-.062c0-2.453-1.235-4.266-2.813-4.266C1.11-8.344.125-6.266.125-4.14c0 1.954.813 4.313 2.86 4.313 1.953 0 2.859-2.188 2.859-4.25zm0 0"/></svg><svg overflow="visible" x="148.429" y="74.768"><path d="M4.375-4.016c0 2.36-.375 3.61-1.39 3.61-1.032 0-1.391-1.235-1.391-3.656 0-2.422.375-3.704 1.375-3.704 1.047 0 1.406 1.266 1.406 3.75zm1.469-.062c0-2.453-1.235-4.266-2.813-4.266C1.11-8.344.125-6.266.125-4.14c0 1.954.813 4.313 2.86 4.313 1.953 0 2.859-2.188 2.859-4.25zm0 0"/></svg></g><g><svg overflow="visible" x="219.646" y="11.977"><path d="M4.938-.125v-1.906c0-3.625-1.11-8.016-4.5-10.406v.687C2.53-9.328 3.124-6.031 3.124-2.984V0h1.813zm0 0"/></svg></g><g><svg overflow="visible" x="219.646" y="22.258"><path d="M4.938-.125v-12.203H3.125V0h1.813zm0 0"/></svg></g><g><svg overflow="visible" x="219.646" y="32.54"><path d="M4.938-.125v-12.203H3.125V0h1.813zm0 0"/></svg></g><g><svg overflow="visible" x="219.646" y="42.821"><path d="M4.938-.125v-12.203H3.125V0h1.813zm0 0"/></svg></g><g><svg overflow="visible" x="219.646" y="53.103"><path d="M4.938-.125v-12.203H3.125V0h1.813zm0 0"/></svg></g><g><svg overflow="visible" x="219.646" y="63.384"><path d="M4.938-.125v-12.203H3.125V0h1.813zm0 0"/></svg></g><g><svg overflow="visible" x="219.646" y="73.606"><path d="M4.781-12.281H3.125v3c0 3.031-.594 6.344-2.688 8.75v.687c3.391-2.39 4.5-6.781 4.5-10.406v-2.031zm0 0"/></svg></g><g><svg overflow="visible" x="227.018" y="39.773"><path d="M.984 1.688c.829-.391 1.5-1.282 1.5-2 0-.625-.578-1.172-1.109-1.172-.438 0-.89.406-.89.812s.421.75.859.75c.14 0 .265-.047.36-.047.093 0 0-.062 0 .016 0 .39-.298.734-1.016 1.234l.218.438zm0 0"/></svg></g><g><svg overflow="visible" x="234.988" y="39.773"><path d="M1.063-.984C1-.75.905-.454.905-.328c0 .203.281.453.672.453.453 0 .578-.656.688-1.11l.359-1.546h1.813L4.202-1.5C4.125-1.14 4-.64 4-.406c0 .234.25.531.61.531.562 0 1.202-.453 1.812-1.219-.047-.14-.266-.36-.5-.36-.36.391-.594.532-.703.532-.094 0 .015.078.015-.062 0-.11.063-.313.125-.625l.672-2.735c.047-.203.157-.562.157-.718 0-.204-.266-.454-.641-.454-.453 0-.61.657-.703 1.11l-.235 1.14H2.797l.156-.687c.11-.469.235-.938.235-1.14 0-.173-.22-.376-.376-.376-.39 0-.921.078-1.562.157-.11.125-.094.453 0 .593l.563.032c.14.015.062-.016.062.109 0 .11-.016.281-.11.61zm0 0"/></svg><svg overflow="visible" x="241.109" y="39.773"><path d="M4.906-5.438c-.328-.03-.484-.078-.968-.078C2.671-5.516.78-3.5.78-1.625c0 .672.313 1.75 1.313 1.75.625 0 1.39-.703 2.031-1.64l-.156-.157-.14.469a2.125 2.125 0 00-.126.656c0 .219.235.672.64.672.75 0 1.376-.61 1.688-1.313-.11-.187-.265-.312-.515-.312-.344.484-.454.64-.579.64-.03 0 0 .11 0-.03 0-.11.079-.454.125-.672l.844-3.86c-.453 0-.765.047-1-.016zm-.703 2.594C3.61-1.766 2.797-.797 2.422-.797c-.406 0-.39-.344-.39-1.015 0-1.266.843-3.063 1.952-3.063.25 0 .407.047.625.188h.204s-.36 1.171-.641 1.89zm0 0"/></svg><svg overflow="visible" x="246.919" y="39.773"><path d="M4.406-.969c0 .688.5 1.094.953 1.094 1.063 0 1.625-.781 2.407-1.938l-.157-.093-.125.406c-.109.375-.203.86-.203 1.094 0 .234.235.531.594.531.578 0 1.203-.453 1.813-1.219-.047-.14-.25-.36-.5-.36-.344.391-.579.532-.704.532-.078 0 .032.078.032-.062 0-.11.062-.313.125-.625l.671-2.735c.047-.203.157-.562.157-.718 0-.204-.266-.454-.64-.454-.47 0-.595.657-.72 1.11l-.328 1.281C6.938-1.672 6.453-.765 5.86-.765c-.218 0-.203-.079-.203-.391 0-.14 0-.453.078-.797l.547-2.39c.047-.204.157-.563.157-.72 0-.203-.266-.453-.657-.453-.453 0-.61.672-.703 1.11l-.39 1.843C3.703-1.187 3.375-.734 2.984-.734c-.218 0-.296-.063-.296-.5 0-.125.03-.422.124-.782L3.25-3.89c.094-.375.234-.859.234-1.093a.553.553 0 00-.562-.532c-.578 0-1.375.454-1.985 1.22.047.14.282.359.516.359.344-.391.625-.532.75-.532.078 0-.047-.078-.047.063 0 .11-.047.312-.125.625l-.437 1.86c-.063.265-.11.577-.11.812 0 .796.594 1.234.97 1.234.843 0 1.577-.766 2.187-1.531l-.157-.14c-.062.171-.078.484-.078.577zm0 0"/></svg><svg overflow="visible" x="256.388" y="39.773"><path d="M4.906-5.438c-.328-.03-.484-.078-.968-.078C2.671-5.516.78-3.5.78-1.625c0 .672.313 1.75 1.313 1.75.625 0 1.39-.703 2.031-1.64l-.156-.157-.14.469a2.125 2.125 0 00-.126.656c0 .219.235.672.64.672.75 0 1.376-.61 1.688-1.313-.11-.187-.265-.312-.515-.312-.344.484-.454.64-.579.64-.03 0 0 .11 0-.03 0-.11.079-.454.125-.672l.844-3.86c-.453 0-.765.047-1-.016zm-.703 2.594C3.61-1.766 2.797-.797 2.422-.797c-.406 0-.39-.344-.39-1.015 0-1.266.843-3.063 1.952-3.063.25 0 .407.047.625.188h.204s-.36 1.171-.641 1.89zm0 0"/></svg></g><g><svg overflow="visible" x="265.187" y="39.773"><path d="M1.063-.984C1-.75.905-.454.905-.328c0 .203.281.453.672.453.453 0 .578-.656.688-1.11l.359-1.546h1.813L4.202-1.5C4.125-1.14 4-.64 4-.406c0 .234.25.531.61.531.562 0 1.202-.453 1.812-1.219-.047-.14-.266-.36-.5-.36-.36.391-.594.532-.703.532-.094 0 .015.078.015-.062 0-.11.063-.313.125-.625l.672-2.735c.047-.203.157-.562.157-.718 0-.204-.266-.454-.641-.454-.453 0-.61.657-.703 1.11l-.235 1.14H2.797l.156-.687c.11-.469.235-.938.235-1.14 0-.173-.22-.376-.376-.376-.39 0-.921.078-1.562.157-.11.125-.094.453 0 .593l.563.032c.14.015.062-.016.062.109 0 .11-.016.281-.11.61zm0 0"/></svg><svg overflow="visible" x="271.308" y="39.773"><path d="M2.063-2.156c0-1.078.328-2.703 1.593-2.703.36 0 .438.156.61.5.156.296.14.64.14 1 0 .484-.015 1.406-.468 2.078-.329.515-.704.703-1.157.703-.344 0-.719-.328-.719-1.578zM.78-2.062c0 .624.313 2.187 1.828 2.187a2.86 2.86 0 001.188-.266c1.047-.53 1.906-1.89 1.906-3.296 0-.86-.36-2.079-1.828-2.079-2 0-3.094 2.016-3.094 3.454zm0 0"/></svg><svg overflow="visible" x="276.652" y="39.773"><path d="M3.828-1.734c0 .796-.344 1.375-1.094 1.375-.359 0-.78-.016-.78-.938 0-.39 0-.906.14-1.219.328-.125.672-.218.984-.218.563 0 .75.484.75 1zm.719-2.875c0 .75-.547 1.015-2.234 1.406.515-1.406 1.015-1.813 1.828-1.813.484 0 .406.25.406.407zm-.297-.938c-.922 0-1.797.39-2.469 1.11C1.125-3.72.734-2.798.734-1.876.734-.625 1.5.141 2.75.141c1.281 0 2.375-.891 2.375-1.797 0-.5-.422-1.516-1.64-1.578v.265c1.39-.484 2.203-.969 2.203-1.578 0-.36-.36-1-1.438-1zm0 0"/></svg><svg overflow="visible" x="281.84" y="39.773"><path d="M4.906-5.438c-.328-.03-.484-.078-.968-.078C2.671-5.516.78-3.5.78-1.625c0 .672.313 1.75 1.313 1.75.625 0 1.39-.703 2.031-1.64l-.156-.157-.14.469a2.125 2.125 0 00-.126.656c0 .219.235.672.64.672.75 0 1.376-.61 1.688-1.313-.11-.187-.265-.312-.515-.312-.344.484-.454.64-.579.64-.03 0 0 .11 0-.03 0-.11.079-.454.125-.672l.844-3.86c-.453 0-.765.047-1-.016zm-.703 2.594C3.61-1.766 2.797-.797 2.422-.797c-.406 0-.39-.344-.39-1.015 0-1.266.843-3.063 1.952-3.063.25 0 .407.047.625.188h.204s-.36 1.171-.641 1.89zm0 0"/></svg><svg overflow="visible" x="287.651" y="39.773"><path d="M3.86-3.016h-.766c-.563 0-.672-.312-.672-.828 0-.547.437-.969 1.422-.969.156 0 .328.016.297.016l-.407 1.781zM3.437-1.5c-.094.39-.204.86-.204 1.094 0 .234.235.531.594.531.578 0 1.203-.453 1.813-1.219-.047-.14-.266-.36-.5-.36-.344.391-.594.595-.704.595-.093 0 .016.078.016-.079 0-.109.063-.359.14-.671l.704-2.97c.062-.25-.063-.234.219-.234h.312a.7.7 0 00.203-.156v-.297l-.093-.156-1.079.031-1.406-.015c-1.094 0-2.14.797-2.14 1.718 0 .688.859 1.204 1.343 1.25v-.265c-.344.078-.765.36-1.062.844-.297.453-.75 1.234-1.11 1.265L.25-.578c-.078.11-.078.5 0 .61L1.047 0C1.422-.016 2-.547 2.266-1.047c.421-.703.703-1.281 1.171-1.281h.188zm0 0"/></svg></g><g><svg overflow="visible" x="296.007" y="39.773"><path d="M2.016-3.969L1.344-.984c-.063.234-.157.53-.157.656 0 .203.266.453.641.453.453 0 .578-.656.688-1.11l.468-1.89c.907-1.297 1.47-1.656 1.86-1.656.234 0 .156-.047.156.312 0 .14-.016.422-.094.797L4.328-.984c-.062.234-.156.53-.156.656 0 .203.266.453.64.453.454 0 .594-.656.704-1.11l.437-1.843c.984-1.375 1.344-1.703 1.734-1.703.22 0 .188-.047.188.312 0 .125-.016.485-.11.844L7.298-1.5c-.11.5-.203.984-.203 1.094 0 .234.36.531.531.531.703 0 1.5-.484 1.906-1.469-.015-.11-.25-.297-.484-.297-.313.5-.531.782-.75.782-.063 0 .062.062.062 0 0-.047.016-.344.063-.485l.562-2.125c.063-.265.11-.64.11-.875 0-.75-.5-1.172-.875-1.172-.844 0-1.61.766-2.297 1.641l.25.094c.031-.188.047-.406.047-.563 0-.828-.5-1.172-.844-1.172-.86 0-1.734.672-2.39 1.516l.187.078v-.031c.125-.469.265-.938.265-1.14 0-.173-.218-.376-.374-.376-.391 0-.922.078-1.563.157-.11.125-.094.453 0 .593l.563.032c.156.015.062-.016.062.109 0 .11-.031.281-.11.61zm0 0"/></svg><svg overflow="visible" x="305.368" y="39.773"><path d="M2.063-2.156c0-1.078.328-2.703 1.593-2.703.36 0 .438.156.61.5.156.296.14.64.14 1 0 .484-.015 1.406-.468 2.078-.329.515-.704.703-1.157.703-.344 0-.719-.328-.719-1.578zM.78-2.062c0 .624.313 2.187 1.828 2.187a2.86 2.86 0 001.188-.266c1.047-.53 1.906-1.89 1.906-3.296 0-.86-.36-2.079-1.828-2.079-2 0-3.094 2.016-3.094 3.454zm0 0"/></svg><svg overflow="visible" x="310.712" y="39.773"><path d="M3.016-3.953c.125-.469.234-.938.234-1.14 0-.173-.219-.376-.375-.376-.39 0-.922.078-1.578.157-.11.125-.078.453.016.593l.562.032c.14.015.063-.016.063.109 0 .11-.032.281-.11.61l-.172.796c-.062.297-.093.5-.093.703 0 .469.312.906.953.906.687 0 1.687-.578 2.234-1l-.25-.093L4.25-1.5c-.078.36-.203.86-.203 1.094 0 .234.25.531.61.531.562 0 1.202-.453 1.812-1.219-.047-.14-.266-.36-.5-.36-.344.391-.594.532-.703.532-.094 0 .015.078.015-.062 0-.11.063-.313.14-.625l.657-2.735c.047-.203.156-.562.156-.718 0-.204-.265-.454-.64-.454-.453 0-.61.657-.703 1.11l-.266 1.203c-.453.344-1.11.781-1.5.781-.406 0-.313-.094-.313-.422 0-.203.032-.469.11-.797zm0 0"/></svg><svg overflow="visible" x="316.869" y="39.773"><path d="M5.625-4.25c.234 0 .734-.36.734-.766 0-.203-.28-.5-.656-.5-.594 0-1.219.688-1.562 1.25-.407.641-.766 1.079-1.375 1.079l.187-.766c.11-.469.25-.938.25-1.14 0-.173-.234-.376-.39-.376-.391 0-.922.078-1.563.157-.11.125-.094.453 0 .593l.563.032c.14.015.062-.016.062.109 0 .11-.016.281-.11.61L1.064-.985C1-.75.905-.454.905-.328c0 .203.281.453.672.453.453 0 .578-.656.688-1.11L2.625-2.5c.719.078.703.39.828 1.016.094.5.5 1.468 1.047 1.484l.875.031.094-.093.078-.297c0-.079-.203-.22-.266-.22l-.078-.015c-.453-.062-.531-.953-.61-1.422-.124-.578-.671-.953-1.312-.953v.25c.547-.078 1.016-.61 1.328-1.125.204-.375.344-.61.47-.61.28 0 .187.204.546.204zm0 0"/></svg><svg overflow="visible" x="322.488" y="39.773"><path d="M4.906-5.438c-.328-.03-.484-.078-.968-.078C2.671-5.516.78-3.5.78-1.625c0 .672.313 1.75 1.313 1.75.625 0 1.39-.703 2.031-1.64l-.156-.157-.14.469a2.125 2.125 0 00-.126.656c0 .219.235.672.64.672.75 0 1.376-.61 1.688-1.313-.11-.187-.265-.312-.515-.312-.344.484-.454.64-.579.64-.03 0 0 .11 0-.03 0-.11.079-.454.125-.672l.844-3.86c-.453 0-.765.047-1-.016zm-.703 2.594C3.61-1.766 2.797-.797 2.422-.797c-.406 0-.39-.344-.39-1.015 0-1.266.843-3.063 1.952-3.063.25 0 .407.047.625.188h.204s-.36 1.171-.641 1.89zm0 0"/></svg></g><g><svg overflow="visible" x="331.62" y="39.773"><path d="M7.766-1.563v-.921H.406v1.046h7.36zm0-2.39v-.922H.406v1.047h7.36zm0 0"/></svg></g><g><svg overflow="visible" x="343.121" y="39.773"><path d="M2.719-2.969c.234-1.031.703-1.64 1.328-1.64.281 0 .453.109.453.875C4.5-2.406 3.766-.47 2.562-.47c-.14 0-.28-.015-.39-.156zm.406-1.687l.031.031.25-.938-2.265.344.046.469c.25-.063.391-.094.485-.094.36 0 .203.032.203.266L.485.969c-.157.547-.063.781-.938.812l-.11.407h3.125l.11-.407h-.39c-.595 0-.579-.125-.579-.375 0-.14.031-.265.063-.422L2 .047c.016.015.344.094.625.094 1.719 0 3.203-2.157 3.203-3.688 0-1.203-.562-1.984-1.281-1.984-.422 0-1.016.281-1.469.718L3-4.734zm0 0"/></svg></g><g><svg overflow="visible" x="348.976" y="42.762"><path d="M3.719-.14v-.266c-.86 0-.86-.031-.86-.406V-6.25l-.296-.094-1.75.89v.407l.421-.156a1.05 1.05 0 01.407-.11c.187 0 .078 0 .078.297v4.032c0 .484 0 .546-.844.593V0h2.844zm0 0"/></svg></g><g><svg overflow="visible" x="356.615" y="39.773"><path d="M7.75-2.766v-.921H4.64v-3.11H3.532v3.11H.406v1.062h3.125v3.11h1.11v-3.11H7.75zm0 0"/></svg></g><g><svg overflow="visible" x="367.461" y="39.773"><path d="M3.328-4.953c.047-.219.156-.578.156-.719 0-.203-.265-.453-.656-.453-.453 0-.61.656-.703 1.11L2-4.392c-.578.407-1.016.766-1.422 1.266.063.188.328.406.61.406.296-.39.562-.61.89-.875l-.25-.094L.594 1.798C.53 2.125.5 2.14.125 2.203l-.234.031c-.063.016-.266.157-.266.235v.265l.063.079h.203s.718-.032 1.156-.032c.453 0 1.375-.015 1.375-.015l.062-.063v-.281c0-.063-.171-.219-.218-.235l-.22-.03c-.187-.032-.343.046-.25-.36L2.25-.125s.453.25.797.25c.844 0 1.64-.516 2.172-1.156.64-.782 1.015-1.688 1.015-2.547 0-1.016-.484-1.938-1.687-1.938-.61 0-1.156.266-1.172.266zm1.625 1.562c0 .579-.203 1.313-.656 2.016-.297.484-.672.813-1.125.813-.313 0-.547-.125-.75-.391l.765-3.39c.282-.173.532-.36.985-.36.812 0 .781.719.781 1.312zm0 0"/></svg><svg overflow="visible" x="373.307" y="39.773"><path d="M4.906-5.438c-.328-.03-.484-.078-.968-.078C2.671-5.516.78-3.5.78-1.625c0 .672.313 1.75 1.313 1.75.625 0 1.39-.703 2.031-1.64l-.156-.157-.14.469a2.125 2.125 0 00-.126.656c0 .219.235.672.64.672.75 0 1.376-.61 1.688-1.313-.11-.187-.265-.312-.515-.312-.344.484-.454.64-.579.64-.03 0 0 .11 0-.03 0-.11.079-.454.125-.672l.844-3.86c-.453 0-.765.047-1-.016zm-.703 2.594C3.61-1.766 2.797-.797 2.422-.797c-.406 0-.39-.344-.39-1.015 0-1.266.843-3.063 1.952-3.063.25 0 .407.047.625.188h.204s-.36 1.171-.641 1.89zm0 0"/></svg><svg overflow="visible" x="379.117" y="39.773"><path d="M2.5.125c.86 0 1.734-.656 2.36-1.531-.048-.14-.313-.36-.485-.36-.5.563-.875.922-1.5.922-.203 0-.344-.015-.516-.25-.171-.218-.25-.36-.25-1.078 0-1.781.704-2.703 1.625-2.703.157 0 .344-.078.344.328 0 .063.016.063-.016.125-.03.047-.109.281-.109.344 0 .187.281.516.485.516.312 0 .765-.376.765-.672 0-.47-.187-1.282-1.484-1.282-.485 0-1.36.36-1.86.875C1.281-4 .844-2.984.844-1.906c0 .39.11 1.015.406 1.422.25.343.766.609 1.25.609zm0 0"/></svg><svg overflow="visible" x="383.768" y="39.773"><path d="M2.5.125c.86 0 1.734-.656 2.36-1.531-.048-.14-.313-.36-.485-.36-.5.563-.875.922-1.5.922-.203 0-.344-.015-.516-.25-.171-.218-.25-.36-.25-1.078 0-1.781.704-2.703 1.625-2.703.157 0 .344-.078.344.328 0 .063.016.063-.016.125-.03.047-.109.281-.109.344 0 .187.281.516.485.516.312 0 .765-.376.765-.672 0-.47-.187-1.282-1.484-1.282-.485 0-1.36.36-1.86.875C1.281-4 .844-2.984.844-1.906c0 .39.11 1.015.406 1.422.25.343.766.609 1.25.609zm0 0"/></svg><svg overflow="visible" x="388.418" y="39.773"><path d="M2.016-3.969L1.344-.984c-.063.234-.157.53-.157.656 0 .203.266.453.641.453.453 0 .578-.656.688-1.11l.468-1.89c.907-1.297 1.47-1.656 1.86-1.656.234 0 .156-.047.156.312 0 .14-.016.422-.094.797L4.328-.984c-.062.234-.156.53-.156.656 0 .203.266.453.64.453.454 0 .594-.656.704-1.11l.437-1.843c.984-1.375 1.344-1.703 1.734-1.703.22 0 .188-.047.188.312 0 .125-.016.485-.11.844L7.298-1.5c-.11.5-.203.984-.203 1.094 0 .234.36.531.531.531.703 0 1.5-.484 1.906-1.469-.015-.11-.25-.297-.484-.297-.313.5-.531.782-.75.782-.063 0 .062.062.062 0 0-.047.016-.344.063-.485l.562-2.125c.063-.265.11-.64.11-.875 0-.75-.5-1.172-.875-1.172-.844 0-1.61.766-2.297 1.641l.25.094c.031-.188.047-.406.047-.563 0-.828-.5-1.172-.844-1.172-.86 0-1.734.672-2.39 1.516l.187.078v-.031c.125-.469.265-.938.265-1.14 0-.173-.218-.376-.374-.376-.391 0-.922.078-1.563.157-.11.125-.094.453 0 .593l.563.032c.156.015.062-.016.062.109 0 .11-.031.281-.11.61zm0 0"/></svg><svg overflow="visible" x="397.779" y="39.773"><path d="M2.063-2.156c0-1.078.328-2.703 1.593-2.703.36 0 .438.156.61.5.156.296.14.64.14 1 0 .484-.015 1.406-.468 2.078-.329.515-.704.703-1.157.703-.344 0-.719-.328-.719-1.578zM.78-2.062c0 .624.313 2.187 1.828 2.187a2.86 2.86 0 001.188-.266c1.047-.53 1.906-1.89 1.906-3.296 0-.86-.36-2.079-1.828-2.079-2 0-3.094 2.016-3.094 3.454zm0 0"/></svg><svg overflow="visible" x="403.123" y="39.773"><path d="M3.86-3.016h-.766c-.563 0-.672-.312-.672-.828 0-.547.437-.969 1.422-.969.156 0 .328.016.297.016l-.407 1.781zM3.437-1.5c-.094.39-.204.86-.204 1.094 0 .234.235.531.594.531.578 0 1.203-.453 1.813-1.219-.047-.14-.266-.36-.5-.36-.344.391-.594.595-.704.595-.093 0 .016.078.016-.079 0-.109.063-.359.14-.671l.704-2.97c.062-.25-.063-.234.219-.234h.312a.7.7 0 00.203-.156v-.297l-.093-.156-1.079.031-1.406-.015c-1.094 0-2.14.797-2.14 1.718 0 .688.859 1.204 1.343 1.25v-.265c-.344.078-.765.36-1.062.844-.297.453-.75 1.234-1.11 1.265L.25-.578c-.078.11-.078.5 0 .61L1.047 0C1.422-.016 2-.547 2.266-1.047c.421-.703.703-1.281 1.171-1.281h.188zm0 0"/></svg><svg overflow="visible" x="408.491" y="39.773"><path d="M1.063-.984C1-.75.905-.454.905-.328c0 .203.281.453.672.453.453 0 .578-.656.688-1.11l.359-1.546h1.813L4.202-1.5C4.125-1.14 4-.64 4-.406c0 .234.25.531.61.531.562 0 1.202-.453 1.812-1.219-.047-.14-.266-.36-.5-.36-.36.391-.594.532-.703.532-.094 0 .015.078.015-.062 0-.11.063-.313.125-.625l.672-2.735c.047-.203.157-.562.157-.718 0-.204-.266-.454-.641-.454-.453 0-.61.657-.703 1.11l-.235 1.14H2.797l.156-.687c.11-.469.235-.938.235-1.14 0-.173-.22-.376-.376-.376-.39 0-.921.078-1.562.157-.11.125-.094.453 0 .593l.563.032c.14.015.062-.016.062.109 0 .11-.016.281-.11.61zm0 0"/></svg><svg overflow="visible" x="414.612" y="39.773"><path d="M6.188-4.344c.046-.203.156-.562.156-.718 0-.204-.266-.454-.64-.454-.454 0-.595.657-.704 1.11l-.344 1.281C3.813-1.672 3.328-.859 2.734-.859c-.218 0-.218.015-.218-.313 0-.187.03-.437.109-.766l.516-1.953c.093-.375.25-.859.25-1.093a.565.565 0 00-.563-.532c-.578 0-1.375.454-1.984 1.22.047.14.281.359.5.359.36-.391.656-.594.765-.594.094 0-.03-.078-.03.078 0 .11-.063.36-.157.672l-.516 2.015a2.765 2.765 0 00-.125.797c0 .688.532 1.094.953 1.094.938 0 1.625-.781 2.422-1.938l-.172-.093-.125.406c-.109.375-.203.86-.203 1.094 0 .234.25.531.594.531.578 0 1.219-.453 1.828-1.219-.047-.14-.266-.36-.5-.36-.36.391-.594.595-.719.595-.078 0 .032.078.032-.079 0-.109.062-.359.125-.671zm0 0"/></svg><svg overflow="visible" x="420.841" y="39.773"><path d="M4.094-4.547c0 1.063-1.11 1.328-1.828 1.422.375-1.531.89-1.75 1.39-1.75.438 0 .438-.031.438.328zM2-2.375c3.11-.61 3.219-1.672 3.219-2.125 0-.297-.422-1.016-1.282-1.016C1.86-5.516.845-3.344.845-1.828c0 1.016.625 1.953 1.625 1.953.797 0 1.625-.453 2.39-1.438-.078-.156-.296-.343-.515-.343-.703.718-.875.797-1.453.797-.532 0-.766-.157-.766-1.25v-.297zm0 0"/></svg></g><g><svg overflow="visible" x="428.292" y="39.773"><path d="M2.578-3.156c0-.375-.469-.844-.86-.844-.39 0-.89.484-.89.844s.5.844.89.844c.391 0 .86-.454.86-.844zm0 0"/></svg></g><g><svg overflow="visible" x="434.368" y="39.773"><path d="M2.5.125c.86 0 1.734-.656 2.36-1.531-.048-.14-.313-.36-.485-.36-.5.563-.875.922-1.5.922-.203 0-.344-.015-.516-.25-.171-.218-.25-.36-.25-1.078 0-1.781.704-2.703 1.625-2.703.157 0 .344-.078.344.328 0 .063.016.063-.016.125-.03.047-.109.281-.109.344 0 .187.281.516.485.516.312 0 .765-.376.765-.672 0-.47-.187-1.282-1.484-1.282-.485 0-1.36.36-1.86.875C1.281-4 .844-2.984.844-1.906c0 .39.11 1.015.406 1.422.25.343.766.609 1.25.609zm0 0"/></svg><svg overflow="visible" x="439.019" y="39.773"><path d="M2.063-2.156c0-1.078.328-2.703 1.593-2.703.36 0 .438.156.61.5.156.296.14.64.14 1 0 .484-.015 1.406-.468 2.078-.329.515-.704.703-1.157.703-.344 0-.719-.328-.719-1.578zM.78-2.062c0 .624.313 2.187 1.828 2.187a2.86 2.86 0 001.188-.266c1.047-.53 1.906-1.89 1.906-3.296 0-.86-.36-2.079-1.828-2.079-2 0-3.094 2.016-3.094 3.454zm0 0"/></svg><svg overflow="visible" x="444.363" y="39.773"><path d="M2.063-2.156c0-1.078.328-2.703 1.593-2.703.36 0 .438.156.61.5.156.296.14.64.14 1 0 .484-.015 1.406-.468 2.078-.329.515-.704.703-1.157.703-.344 0-.719-.328-.719-1.578zM.78-2.062c0 .624.313 2.187 1.828 2.187a2.86 2.86 0 001.188-.266c1.047-.53 1.906-1.89 1.906-3.296 0-.86-.36-2.079-1.828-2.079-2 0-3.094 2.016-3.094 3.454zm0 0"/></svg><svg overflow="visible" x="449.707" y="39.773"><path d="M2.016-3.969L1.344-.984c-.063.234-.157.53-.157.656 0 .203.266.453.641.453.453 0 .578-.656.688-1.11l.468-1.89c.907-1.297 1.47-1.656 1.86-1.656.234 0 .156-.047.156.312 0 .14-.016.422-.094.797L4.328-.984c-.062.234-.156.53-.156.656 0 .203.266.453.64.453.454 0 .594-.656.704-1.11l.437-1.843c.984-1.375 1.344-1.703 1.734-1.703.22 0 .188-.047.188.312 0 .125-.016.485-.11.844L7.298-1.5c-.11.5-.203.984-.203 1.094 0 .234.36.531.531.531.703 0 1.5-.484 1.906-1.469-.015-.11-.25-.297-.484-.297-.313.5-.531.782-.75.782-.063 0 .062.062.062 0 0-.047.016-.344.063-.485l.562-2.125c.063-.265.11-.64.11-.875 0-.75-.5-1.172-.875-1.172-.844 0-1.61.766-2.297 1.641l.25.094c.031-.188.047-.406.047-.563 0-.828-.5-1.172-.844-1.172-.86 0-1.734.672-2.39 1.516l.187.078v-.031c.125-.469.265-.938.265-1.14 0-.173-.218-.376-.374-.376-.391 0-.922.078-1.563.157-.11.125-.094.453 0 .593l.563.032c.156.015.062-.016.062.109 0 .11-.031.281-.11.61zm0 0"/></svg><svg overflow="visible" x="459.067" y="39.773"><path d="M1.063-.984C1-.75.905-.454.905-.328c0 .203.281.453.672.453.453 0 .578-.656.688-1.11l.359-1.546h1.813L4.202-1.5C4.125-1.14 4-.64 4-.406c0 .234.25.531.61.531.562 0 1.202-.453 1.812-1.219-.047-.14-.266-.36-.5-.36-.36.391-.594.532-.703.532-.094 0 .015.078.015-.062 0-.11.063-.313.125-.625l.672-2.735c.047-.203.157-.562.157-.718 0-.204-.266-.454-.641-.454-.453 0-.61.657-.703 1.11l-.235 1.14H2.797l.156-.687c.11-.469.235-.938.235-1.14 0-.173-.22-.376-.376-.376-.39 0-.921.078-1.562.157-.11.125-.094.453 0 .593l.563.032c.14.015.062-.016.062.109 0 .11-.016.281-.11.61zm0 0"/></svg><svg overflow="visible" x="465.189" y="39.773"><path d="M2.063-2.156c0-1.078.328-2.703 1.593-2.703.36 0 .438.156.61.5.156.296.14.64.14 1 0 .484-.015 1.406-.468 2.078-.329.515-.704.703-1.157.703-.344 0-.719-.328-.719-1.578zM.78-2.062c0 .624.313 2.187 1.828 2.187a2.86 2.86 0 001.188-.266c1.047-.53 1.906-1.89 1.906-3.296 0-.86-.36-2.079-1.828-2.079-2 0-3.094 2.016-3.094 3.454zm0 0"/></svg><svg overflow="visible" x="470.532" y="39.773"><path d="M4.406-.969c0 .688.5 1.094.953 1.094 1.063 0 1.625-.781 2.407-1.938l-.157-.093-.125.406c-.109.375-.203.86-.203 1.094 0 .234.235.531.594.531.578 0 1.203-.453 1.813-1.219-.047-.14-.25-.36-.5-.36-.344.391-.579.532-.704.532-.078 0 .032.078.032-.062 0-.11.062-.313.125-.625l.671-2.735c.047-.203.157-.562.157-.718 0-.204-.266-.454-.64-.454-.47 0-.595.657-.72 1.11l-.328 1.281C6.938-1.672 6.453-.765 5.86-.765c-.218 0-.203-.079-.203-.391 0-.14 0-.453.078-.797l.547-2.39c.047-.204.157-.563.157-.72 0-.203-.266-.453-.657-.453-.453 0-.61.672-.703 1.11l-.39 1.843C3.703-1.187 3.375-.734 2.984-.734c-.218 0-.296-.063-.296-.5 0-.125.03-.422.124-.782L3.25-3.89c.094-.375.234-.859.234-1.093a.553.553 0 00-.562-.532c-.578 0-1.375.454-1.985 1.22.047.14.282.359.516.359.344-.391.625-.532.75-.532.078 0-.047-.078-.047.063 0 .11-.047.312-.125.625l-.437 1.86c-.063.265-.11.577-.11.812 0 .796.594 1.234.97 1.234.843 0 1.577-.766 2.187-1.531l-.157-.14c-.062.171-.078.484-.078.577zm0 0"/></svg><svg overflow="visible" x="480.001" y="39.773"><path d="M4.094-4.547c0 1.063-1.11 1.328-1.828 1.422.375-1.531.89-1.75 1.39-1.75.438 0 .438-.031.438.328zM2-2.375c3.11-.61 3.219-1.672 3.219-2.125 0-.297-.422-1.016-1.282-1.016C1.86-5.516.845-3.344.845-1.828c0 1.016.625 1.953 1.625 1.953.797 0 1.625-.453 2.39-1.438-.078-.156-.296-.343-.515-.343-.703.718-.875.797-1.453.797-.532 0-.766-.157-.766-1.25v-.297zm0 0"/></svg><svg overflow="visible" x="484.795" y="39.773"><path d="M1.063-.984C1-.75.905-.454.905-.328c0 .203.281.453.672.453.453 0 .578-.656.688-1.11l.359-1.546h1.813L4.202-1.5C4.125-1.14 4-.64 4-.406c0 .234.25.531.61.531.562 0 1.202-.453 1.812-1.219-.047-.14-.266-.36-.5-.36-.36.391-.594.532-.703.532-.094 0 .015.078.015-.062 0-.11.063-.313.125-.625l.672-2.735c.047-.203.157-.562.157-.718 0-.204-.266-.454-.641-.454-.453 0-.61.657-.703 1.11l-.235 1.14H2.797l.156-.687c.11-.469.235-.938.235-1.14 0-.173-.22-.376-.376-.376-.39 0-.921.078-1.562.157-.11.125-.094.453 0 .593l.563.032c.14.015.062-.016.062.109 0 .11-.016.281-.11.61zm0 0"/></svg><svg overflow="visible" x="490.916" y="39.773"><path d="M6.188-4.344c.046-.203.156-.562.156-.718 0-.204-.266-.454-.64-.454-.454 0-.595.657-.704 1.11l-.344 1.281C3.813-1.672 3.328-.859 2.734-.859c-.218 0-.218.015-.218-.313 0-.187.03-.437.109-.766l.516-1.953c.093-.375.25-.859.25-1.093a.565.565 0 00-.563-.532c-.578 0-1.375.454-1.984 1.22.047.14.281.359.5.359.36-.391.656-.594.765-.594.094 0-.03-.078-.03.078 0 .11-.063.36-.157.672l-.516 2.015a2.765 2.765 0 00-.125.797c0 .688.532 1.094.953 1.094.938 0 1.625-.781 2.422-1.938l-.172-.093-.125.406c-.109.375-.203.86-.203 1.094 0 .234.25.531.594.531.578 0 1.219-.453 1.828-1.219-.047-.14-.266-.36-.5-.36-.36.391-.594.595-.719.595-.078 0 .032.078.032-.079 0-.109.062-.359.125-.671zm0 0"/></svg><svg overflow="visible" x="497.145" y="39.773"><path d="M4.094-4.547c0 1.063-1.11 1.328-1.828 1.422.375-1.531.89-1.75 1.39-1.75.438 0 .438-.031.438.328zM2-2.375c3.11-.61 3.219-1.672 3.219-2.125 0-.297-.422-1.016-1.282-1.016C1.86-5.516.845-3.344.845-1.828c0 1.016.625 1.953 1.625 1.953.797 0 1.625-.453 2.39-1.438-.078-.156-.296-.343-.515-.343-.703.718-.875.797-1.453.797-.532 0-.766-.157-.766-1.25v-.297zm0 0"/></svg></g></svg>