<svg xmlns="http://www.w3.org/2000/svg" xmlns:xlink="http://www.w3.org/1999/xlink" width="433px" height="108" viewBox="0 0 325 81"><svg overflow="visible" x="-3.215" y="20.996"><path d="M10.031-17.75c0-.125-.312-.39-.437-.39a.83.83 0 00-.297.093C6.094-15.64 3.109-8.984 3.109-3.125V0h1.61v-3.125c0-5.594 2.093-12.031 5.14-14.328a.486.486 0 00.172-.297zm0 0"/></svg><svg overflow="visible" x="-3.215" y="26.659"><path d="M4.719-.125v-6.094h-1.61V0h1.61zm0 0"/></svg><svg overflow="visible" x="-3.215" y="32.266"><path d="M4.719-.125v-6.094h-1.61V0h1.61zm0 0"/></svg><svg overflow="visible" x="-3.215" y="37.874"><path d="M4.719-.125v-6.094h-1.61V0h1.61zm0 0"/></svg><svg overflow="visible" x="-3.215" y="43.481"><path d="M4.719-.125v-6.094h-1.61V0h1.61zm0 0"/></svg><svg overflow="visible" x="-3.215" y="49.088"><path d="M4.719-.125v-6.094h-1.61V0h1.61zm0 0"/></svg><svg overflow="visible" x="-3.215" y="54.695"><path d="M4.719-.125v-6.094h-1.61V0h1.61zm0 0"/></svg><svg overflow="visible" x="-3.215" y="60.302"><path d="M4.719-.125v-6.094h-1.61V0h1.61zm0 0"/></svg><svg overflow="visible" x="-3.215" y="77.884"><path d="M10.031-.375c0-.094-.094-.266-.172-.297-3.046-2.297-5.14-8.734-5.14-14.344v-3.125h-1.61v3.125c0 5.86 2.985 12.532 6.188 14.938.031.015.234.078.297.078.125 0 .437-.234.437-.375zm0 0"/></svg><svg overflow="visible" x="19.883" y="10.745"><path d="M6.047-3.5c0-1.125-.875-2.047-1.781-2.047-.594 0-1.313.469-1.438.625-.062-.234-.765-.625-1.203-.625-.547 0-.922.5-1.031.719-.219.406-.422 1.219-.422 1.25 0 .125.469.219.469.219l-.125.03c.125 0 .328-.14.39-.405.203-.844.25-1.282.688-1.282.203 0 .156-.046.156.407 0 .28-.031.406-.078.609L.328 1.328c-.094.406.094.36-.437.36-.141 0-.47.125-.47.359 0 .094.25.265.345.265.328 0 .671-.03 1.015-.03.39 0 .797.03 1.172.03.063 0 .406-.124.406-.359 0-.14-.296-.266-.468-.266-.594 0-.407.047-.407-.062 0-.14.5-2.094.579-2.39h-.391c.156.343.687.89 1.297.89 1.39 0 3.078-1.875 3.078-3.625zm-1.25-.531c0 .703-.39 2.078-.61 2.531-.406.844-.78 1.11-1.218 1.11-.797 0-.75-.86-.75-.938l-.063.094s.063-.141.094-.282l.578-2.343c.094-.329.344-.563.563-.75.421-.36.64-.407.843-.407.47 0 .563.282.563.985zm0 0"/></svg><svg overflow="visible" x="25.896" y="13.698"><path d="M4.172-.156v-.469H3.64c-.829 0-.625.063-.625-.219v-4.64c0-.235-.235-.391-.563-.391-.578.578-1.203.531-1.75.531v.625c.406 0 1.11-.047 1.219-.11v3.985c0 .281.203.219-.625.219H.766v.64L2.469-.03l1.703.047zm0 0"/></svg><svg overflow="visible" x="34.477" y="10.745"><path d="M8.828-4.281c0-.125-.312-.375-.437-.375H.906c-.125 0-.437.25-.437.375 0 .14.312.375.437.375h7.485c.125 0 .437-.235.437-.375zm0 2.328c0-.14-.312-.375-.437-.375H.906c-.125 0-.437.234-.437.375 0 .125.312.36.437.36h7.485c.125 0 .437-.235.437-.36zm0 0"/></svg><svg overflow="visible" x="47.099" y="10.745"><path d="M9.406-4.844l.719-.89c.375.324.695.648.969.968l-.14.235H1.015l-.094-.313zm0 0"/></svg><svg overflow="visible" x="59.054" y="10.745"><path d="M5.61-7.61v-2.327c.843.03 1.265.136 1.265.312 0 .117-.188.242-.563.375v1.64h3.25l.657-.859c.281.242.582.555.906.938l-.11.218H5.673c0 .907-.047 1.68-.14 2.313h3.53l.485-.594c.5.399.75.653.75.766 0 .062-.04.117-.11.156l-.312.188c-.055 2.71-.34 4.312-.86 4.812-.273.27-.667.399-1.187.39-.012-.241-.187-.417-.531-.53-.242-.094-.75-.204-1.531-.329v-.343c.863.125 1.566.187 2.109.187.488 0 .79-.195.906-.594.25-.832.38-2.101.39-3.812H5.485C5.285-3.43 4.898-2.363 4.328-1.5 3.672-.531 2.68.258 1.36.875L1.172.594c1.644-.977 2.726-2.266 3.25-3.86.258-.8.422-1.804.484-3.015v-.422c.008-.207.016-.41.016-.61H1.016l-.094-.296zm0 0"/></svg><svg overflow="visible" x="71.009" y="10.745"><path d="M5.64-7.969c.27.399.407.742.407 1.032 0 .46-.11 1.074-.328 1.843-.23.782-.528 1.512-.89 2.188-.337.668-.657 1.14-.97 1.422-.304.28-.636.421-1 .421-.25 0-.53-.164-.843-.5-.22-.207-.399-.539-.532-1a4.803 4.803 0 01-.187-1.359c0-.613.14-1.21.422-1.797.25-.52.593-.984 1.031-1.39.957-.875 2.133-1.313 3.531-1.313 1.082 0 2.004.262 2.766.781 1.094.774 1.64 1.836 1.64 3.188 0 1.312-.476 2.32-1.421 3.016-.868.656-2.016 1.074-3.454 1.25l-.078-.344c1.352-.25 2.395-.766 3.125-1.547.657-.688.985-1.5.985-2.438 0-1.082-.383-1.96-1.14-2.64-.618-.57-1.43-.86-2.438-.86-.22 0-.43.016-.625.047zm-.374.078c-.793.211-1.45.54-1.97.985-.437.367-.788.836-1.046 1.406a3.763 3.763 0 00-.344 1.563c0 .648.145 1.195.438 1.64.187.274.375.406.562.406.176 0 .375-.109.594-.328.438-.476.848-1.195 1.234-2.156.477-1.195.72-2.086.72-2.672 0-.375-.063-.656-.188-.844zm0 0"/></svg><svg overflow="visible" x="82.965" y="10.745"><path d="M3.328-5.953h2.203v-3.875c.832.031 1.25.14 1.25.328 0 .105-.183.215-.547.328v1.313h3.282l.609-.797c.313.281.586.57.828.86l-.156.234H6.234v1.609h2.407l.453-.547c.488.387.734.633.734.734 0 .043-.031.09-.094.141l-.296.203v3.078h-.72v-.547h-5.53v.579h-.72v-4c.321.105.61.226.86.359zm-.14.297v2.468h5.53v-2.468zm1.124 3.593c.633.762.954 1.446.954 2.047 0 .477-.172.72-.516.72-.23 0-.344-.134-.344-.391v-.391c0-.613-.117-1.238-.343-1.875zm2.25-.062C7.582-1.32 8.095-.578 8.095.109c0 .364-.164.547-.485.547-.21 0-.336-.172-.375-.515-.086-.696-.375-1.395-.875-2.094zm-4.015.11l.281.078c-.055.992-.34 1.789-.86 2.39-.241.27-.476.406-.702.406C.953.86.796.703.796.391c0-.137.118-.274.36-.407.645-.363 1.11-1.03 1.39-2zm6.437-.141c.801.398 1.41.836 1.829 1.312.289.344.437.664.437.953 0 .332-.152.5-.453.5-.188 0-.336-.164-.438-.484-.218-.688-.734-1.379-1.546-2.078zm0 0"/></svg><svg overflow="visible" x="19.883" y="28.179"><path d="M6.047-3.5c0-1.125-.875-2.047-1.781-2.047-.594 0-1.313.469-1.438.625-.062-.234-.765-.625-1.203-.625-.547 0-.922.5-1.031.719-.219.406-.422 1.219-.422 1.25 0 .125.469.219.469.219l-.125.03c.125 0 .328-.14.39-.405.203-.844.25-1.282.688-1.282.203 0 .156-.046.156.407 0 .28-.031.406-.078.609L.328 1.328c-.094.406.094.36-.437.36-.141 0-.47.125-.47.359 0 .094.25.265.345.265.328 0 .671-.03 1.015-.03.39 0 .797.03 1.172.03.063 0 .406-.124.406-.359 0-.14-.296-.266-.468-.266-.594 0-.407.047-.407-.062 0-.14.5-2.094.579-2.39h-.391c.156.343.687.89 1.297.89 1.39 0 3.078-1.875 3.078-3.625zm-1.25-.531c0 .703-.39 2.078-.61 2.531-.406.844-.78 1.11-1.218 1.11-.797 0-.75-.86-.75-.938l-.063.094s.063-.141.094-.282l.578-2.343c.094-.329.344-.563.563-.75.421-.36.64-.407.843-.407.47 0 .563.282.563.985zm0 0"/></svg><svg overflow="visible" x="25.896" y="31.132"><path d="M4.234-1.844H3.75c-.047.344-.063.735-.172.813-.062.047-.562 0-.687 0H1.812c.563-.5.86-.735 1.36-1.125.625-.5 1.265-1.14 1.265-1.938 0-1-1.093-1.781-2.171-1.781-1.032 0-1.954.89-1.954 1.656 0 .422.579.625.657.625.203 0 .656-.297.656-.61 0-.14-.266-.593-.422-.593.188-.437.547-.469.938-.469.843 0 1.062.5 1.062 1.172 0 .735-.453 1.203-.719 1.5l-2.03 2C.374-.516.311-.39.311 0h3.844l.313-1.844zm0 0"/></svg><svg overflow="visible" x="34.477" y="28.179"><path d="M8.828-4.281c0-.125-.312-.375-.437-.375H.906c-.125 0-.437.25-.437.375 0 .14.312.375.437.375h7.485c.125 0 .437-.235.437-.375zm0 2.328c0-.14-.312-.375-.437-.375H.906c-.125 0-.437.234-.437.375 0 .125.312.36.437.36h7.485c.125 0 .437-.235.437-.36zm0 0"/></svg><svg overflow="visible" x="47.099" y="28.179"><path d="M3.922-3.547c-.7 0-1.2-.07-1.5-.219-.293-.164-.524-.43-.688-.796l.25-.235c.196.274.47.453.813.547.281.086.687.133 1.219.14.007-.113.054-.476.14-1.093.051-.363.094-.688.125-.969a6.772 6.772 0 01-.578.016c-.906 0-1.512-.301-1.812-.907l.265-.234c.219.242.461.39.735.453.3.074.8.106 1.5.094.093-.582.156-1.004.187-1.266.031-.238.047-.453.047-.64A.51.51 0 004.5-9c-.074-.094-.219-.188-.438-.281l.125-.328c.907.187 1.36.46 1.36.812 0 .117-.047.324-.14.625-.063.168-.169.625-.313 1.375.664-.101 1.086-.195 1.265-.281.157-.082.336-.125.547-.125.375 0 .563.125.563.375 0 .137-.106.242-.313.312-.367.125-1.101.243-2.203.344a59.12 59.12 0 00-.36 2.094c.821-.05 1.384-.14 1.688-.266.176-.07.364-.11.563-.11.125 0 .238.044.343.126.083.074.125.14.125.203 0 .242-.152.383-.453.422a22.3 22.3 0 01-2.343.203c-.055.48-.079.98-.079 1.5 0 1.094.579 1.64 1.735 1.64.945 0 1.703-.226 2.266-.687.437-.344.656-.8.656-1.375 0-.676-.274-1.305-.813-1.89l.266-.22c.844.688 1.265 1.45 1.265 2.282 0 .793-.355 1.434-1.062 1.922-.637.426-1.383.64-2.234.64-.95 0-1.653-.273-2.11-.812-.355-.406-.531-.953-.531-1.64 0-.47.016-.938.047-1.407zm0 0"/></svg><svg overflow="visible" x="59.054" y="28.179"><path d="M4.531-7.656c.157-.102.367-.235.64-.39.313-.188.5-.302.563-.345A2.915 2.915 0 014.266-9.5l.265-.234c.407.406.828.656 1.266.75.3.062.691.12 1.172.171.676.063 1.015.25 1.015.563 0 .21-.14.313-.421.313-.012 0-.07-.004-.172-.016a4.485 4.485 0 00-.735-.078c-.5 0-1.152.215-1.953.64zM3.016-6.234c.05.406.191.609.421.609.063 0 .254-.066.579-.203 1.382-.55 2.336-.828 2.859-.828.656 0 1.191.258 1.61.765.413.524.624 1.133.624 1.829 0 1.312-.558 2.386-1.671 3.218C6.655-.238 5.593.191 4.25.453L4.14.11c1.22-.312 2.165-.77 2.844-1.375.875-.789 1.313-1.726 1.313-2.812 0-.633-.14-1.149-.422-1.547-.262-.363-.574-.547-.938-.547-.343 0-.812.125-1.406.375-.523.211-1.133.543-1.828 1a.592.592 0 01-.312.11c-.188 0-.352-.11-.485-.329-.136-.218-.203-.488-.203-.812 0-.145.004-.258.016-.344zm0 0"/></svg><svg overflow="visible" x="71.009" y="28.179"><path d="M9.406-4.844l.719-.89c.375.324.695.648.969.968l-.14.235H1.015l-.094-.313zm0 0"/></svg><svg overflow="visible" x="82.965" y="28.179"><path d="M5.61-7.61v-2.327c.843.03 1.265.136 1.265.312 0 .117-.188.242-.563.375v1.64h3.25l.657-.859c.281.242.582.555.906.938l-.11.218H5.673c0 .907-.047 1.68-.14 2.313h3.53l.485-.594c.5.399.75.653.75.766 0 .062-.04.117-.11.156l-.312.188c-.055 2.71-.34 4.312-.86 4.812-.273.27-.667.399-1.187.39-.012-.241-.187-.417-.531-.53-.242-.094-.75-.204-1.531-.329v-.343c.863.125 1.566.187 2.109.187.488 0 .79-.195.906-.594.25-.832.38-2.101.39-3.812H5.485C5.285-3.43 4.898-2.363 4.328-1.5 3.672-.531 2.68.258 1.36.875L1.172.594c1.644-.977 2.726-2.266 3.25-3.86.258-.8.422-1.804.484-3.015v-.422c.008-.207.016-.41.016-.61H1.016l-.094-.296zm0 0"/></svg><svg overflow="visible" x="94.92" y="28.179"><path d="M5.64-7.969c.27.399.407.742.407 1.032 0 .46-.11 1.074-.328 1.843-.23.782-.528 1.512-.89 2.188-.337.668-.657 1.14-.97 1.422-.304.28-.636.421-1 .421-.25 0-.53-.164-.843-.5-.22-.207-.399-.539-.532-1a4.803 4.803 0 01-.187-1.359c0-.613.14-1.21.422-1.797.25-.52.593-.984 1.031-1.39.957-.875 2.133-1.313 3.531-1.313 1.082 0 2.004.262 2.766.781 1.094.774 1.64 1.836 1.64 3.188 0 1.312-.476 2.32-1.421 3.016-.868.656-2.016 1.074-3.454 1.25l-.078-.344c1.352-.25 2.395-.766 3.125-1.547.657-.688.985-1.5.985-2.438 0-1.082-.383-1.96-1.14-2.64-.618-.57-1.43-.86-2.438-.86-.22 0-.43.016-.625.047zm-.374.078c-.793.211-1.45.54-1.97.985-.437.367-.788.836-1.046 1.406a3.763 3.763 0 00-.344 1.563c0 .648.145 1.195.438 1.64.187.274.375.406.562.406.176 0 .375-.109.594-.328.438-.476.848-1.195 1.234-2.156.477-1.195.72-2.086.72-2.672 0-.375-.063-.656-.188-.844zm0 0"/></svg><svg overflow="visible" x="106.875" y="28.179"><path d="M3.328-5.953h2.203v-3.875c.832.031 1.25.14 1.25.328 0 .105-.183.215-.547.328v1.313h3.282l.609-.797c.313.281.586.57.828.86l-.156.234H6.234v1.609h2.407l.453-.547c.488.387.734.633.734.734 0 .043-.031.09-.094.141l-.296.203v3.078h-.72v-.547h-5.53v.579h-.72v-4c.321.105.61.226.86.359zm-.14.297v2.468h5.53v-2.468zm1.124 3.593c.633.762.954 1.446.954 2.047 0 .477-.172.72-.516.72-.23 0-.344-.134-.344-.391v-.391c0-.613-.117-1.238-.343-1.875zm2.25-.062C7.582-1.32 8.095-.578 8.095.109c0 .364-.164.547-.485.547-.21 0-.336-.172-.375-.515-.086-.696-.375-1.395-.875-2.094zm-4.015.11l.281.078c-.055.992-.34 1.789-.86 2.39-.241.27-.476.406-.702.406C.953.86.796.703.796.391c0-.137.118-.274.36-.407.645-.363 1.11-1.03 1.39-2zm6.437-.141c.801.398 1.41.836 1.829 1.312.289.344.437.664.437.953 0 .332-.152.5-.453.5-.188 0-.336-.164-.438-.484-.218-.688-.734-1.379-1.546-2.078zm0 0"/></svg><svg overflow="visible" x="7.246" y="45.614"><path d="M4.203-5.938H3.47v2h.734l.531-.78c.27.292.5.573.688.843l-.14.234H3.468v2.672c.508-.133 1.11-.316 1.797-.547l.078.313C3.676-.516 2.274-.003 1.14.328c-.063.3-.137.453-.22.453C.755.781.572.414.376-.313c.3-.039.555-.082.766-.124V-4.5c.707.043 1.062.148 1.062.313 0 .093-.14.187-.422.28v3.345l.172-.047c.125-.02.281-.051.469-.094.219-.05.344-.082.375-.094v-5.14H1.78v.562h-.64v-4.156c.312.136.523.234.64.297l.094.062h2.219L4.5-9.75c.469.387.703.633.703.734 0 .043-.023.079-.062.11l-.313.203v3.25h-.625zm0-.296V-8.86H1.781v2.625zm2.422-.141h3.016l.406-.516c.488.387.734.633.734.735 0 .054-.039.101-.11.14l-.296.188v3.406h-.656v-.734H6.625v2.828h3.484l.61-.797c.258.23.504.512.734.844l-.14.25H6.625v.906h-.703V-9.391c.258.106.531.235.812.391h3.157l.546-.75c.29.273.551.54.782.797l-.125.25H6.625zm0 .297v2.625h3.094v-2.625zm0 0"/></svg><svg overflow="visible" x="19.201" y="45.614"><path d="M2.86-3.219H1.593V.86H.937v-4.75c.258.106.485.211.672.313l.11.062h1.187c.04-.187.098-.578.172-1.171H1.86v.5h-.625v-3.547c.645.03.97.117.97.25 0 .086-.118.171-.345.265V-5h3.157v-2.766c.687.012 1.03.094 1.03.25 0 .094-.136.188-.405.282v2.968h-.625v-.421H3.859a1.165 1.165 0 01-.062.234 6.072 6.072 0 00-.094.36c-.062.21-.121.402-.172.577h1.625l.39-.5c.446.344.673.575.673.688 0 .055-.032.101-.094.14l-.25.157v2.875c0 .613-.34.914-1.016.906-.011-.219-.14-.375-.39-.469C4.344.238 4.062.18 3.625.11v-.312c.395.043.8.062 1.219.062.258 0 .39-.113.39-.343V-3.22H3.438c-.2.606-.391 1.153-.579 1.64.457-.062.907-.128 1.344-.202a3.632 3.632 0 00-.547-.89l.188-.173c.8.617 1.203 1.2 1.203 1.75 0 .262-.121.39-.36.39-.167 0-.261-.1-.28-.312a4.974 4.974 0 00-.095-.468c-.605.199-1.242.367-1.906.5-.054.25-.117.375-.187.375-.149 0-.281-.29-.406-.875.132 0 .359-.016.671-.047 0-.008.004-.047.016-.11a.88.88 0 01.031-.093c.082-.332.176-.758.281-1.282zm4-2.484c-.231.406-.516.828-.86 1.266l-.266-.157C6.617-5.957 7.316-7.758 7.828-10c.688.18 1.031.36 1.031.547 0 .105-.168.18-.5.219-.23.742-.476 1.414-.734 2.015h1.297c.281-.656.539-1.52.781-2.593.676.18 1.016.355 1.016.53 0 .118-.156.188-.469.22a9.67 9.67 0 01-.969 1.843h.953l.5-.734c.157.18.368.445.641.797l-.125.234H9.5V-5h.563l.5-.688c.187.243.378.493.578.75l-.11.25H9.5v2.016h.563l.5-.687c.132.156.296.355.484.593l.125.157-.125.25H9.5v2.171h.86l.578-.78c.207.241.421.515.64.827l-.14.25H7.53v.75H6.86zm.671-1.219V-5h1.297v-1.922zm1.297 2.234H7.531v2.016h1.297zm-1.297 4.5h1.297v-2.171H7.531zM3.22-6.468a6.592 6.592 0 00-.938-.688l.156-.203c.395.187.739.375 1.032.562.258-.332.484-.691.672-1.078.457.25.687.438.687.563 0 .074-.086.109-.25.109a.684.684 0 01-.156-.016c-.125.242-.305.48-.531.719.445.313.671.602.671.86 0 .199-.085.296-.25.296-.105 0-.226-.093-.359-.281a4.049 4.049 0 00-.406-.516 5.584 5.584 0 01-1.281.875l-.172-.218c.406-.27.781-.598 1.125-.985zm-.11-1.938v-1.531c.782.023 1.172.117 1.172.28 0 .106-.172.216-.515.329v.922h1.39l.532-.735c.226.211.468.477.718.797l-.125.25H.594l-.11-.312zm0 0"/></svg><svg overflow="visible" x="34.477" y="45.614"><path d="M8.828-4.281c0-.125-.312-.375-.437-.375H.906c-.125 0-.437.25-.437.375 0 .14.312.375.437.375h7.485c.125 0 .437-.235.437-.375zm0 2.328c0-.14-.312-.375-.437-.375H.906c-.125 0-.437.234-.437.375 0 .125.312.36.437.36h7.485c.125 0 .437-.235.437-.36zm0 0"/></svg><svg overflow="visible" x="47.09" y="45.614"><path d="M4.156 2.719c0-.047-.078-.172-.11-.203-1.234-.922-2-3.22-2-5.141v-1c0-1.906.767-4.203 2-5.14a.457.457 0 00.11-.188c0-.063-.25-.25-.312-.25a1.01 1.01 0 00-.203.062C2.312-8.156 1-5.67 1-3.625v1C1-.578 2.313 1.906 3.64 2.906c.016.016.188.063.204.063.062 0 .312-.203.312-.25zm0 0"/></svg><svg overflow="visible" x="51.74" y="45.614"><path d="M6.047-3.5c0-1.125-.875-2.047-1.781-2.047-.594 0-1.313.469-1.438.625-.062-.234-.765-.625-1.203-.625-.547 0-.922.5-1.031.719-.219.406-.422 1.219-.422 1.25 0 .125.469.219.469.219l-.125.03c.125 0 .328-.14.39-.405.203-.844.25-1.282.688-1.282.203 0 .156-.046.156.407 0 .28-.031.406-.078.609L.328 1.328c-.094.406.094.36-.437.36-.141 0-.47.125-.47.359 0 .094.25.265.345.265.328 0 .671-.03 1.015-.03.39 0 .797.03 1.172.03.063 0 .406-.124.406-.359 0-.14-.296-.266-.468-.266-.594 0-.407.047-.407-.062 0-.14.5-2.094.579-2.39h-.391c.156.343.687.89 1.297.89 1.39 0 3.078-1.875 3.078-3.625zm-1.25-.531c0 .703-.39 2.078-.61 2.531-.406.844-.78 1.11-1.218 1.11-.797 0-.75-.86-.75-.938l-.063.094s.063-.141.094-.282l.578-2.343c.094-.329.344-.563.563-.75.421-.36.64-.407.843-.407.47 0 .563.282.563.985zm0 0"/></svg><svg overflow="visible" x="57.763" y="48.567"><path d="M4.234-1.844H3.75c-.047.344-.063.735-.172.813-.062.047-.562 0-.687 0H1.812c.563-.5.86-.735 1.36-1.125.625-.5 1.265-1.14 1.265-1.938 0-1-1.093-1.781-2.171-1.781-1.032 0-1.954.89-1.954 1.656 0 .422.579.625.657.625.203 0 .656-.297.656-.61 0-.14-.266-.593-.422-.593.188-.437.547-.469.938-.469.843 0 1.062.5 1.062 1.172 0 .735-.453 1.203-.719 1.5l-2.03 2C.374-.516.311-.39.311 0h3.844l.313-1.844zm0 0"/></svg><svg overflow="visible" x="65.68" y="45.614"><path d="M8.828-3.125c0-.125-.312-.36-.437-.36H.906c-.125 0-.437.235-.437.36 0 .14.312.375.437.375h7.485c.125 0 .437-.234.437-.375zm0 0"/></svg><svg overflow="visible" x="77.635" y="45.614"><path d="M6.047-3.5c0-1.125-.875-2.047-1.781-2.047-.594 0-1.313.469-1.438.625-.062-.234-.765-.625-1.203-.625-.547 0-.922.5-1.031.719-.219.406-.422 1.219-.422 1.25 0 .125.469.219.469.219l-.125.03c.125 0 .328-.14.39-.405.203-.844.25-1.282.688-1.282.203 0 .156-.046.156.407 0 .28-.031.406-.078.609L.328 1.328c-.094.406.094.36-.437.36-.141 0-.47.125-.47.359 0 .094.25.265.345.265.328 0 .671-.03 1.015-.03.39 0 .797.03 1.172.03.063 0 .406-.124.406-.359 0-.14-.296-.266-.468-.266-.594 0-.407.047-.407-.062 0-.14.5-2.094.579-2.39h-.391c.156.343.687.89 1.297.89 1.39 0 3.078-1.875 3.078-3.625zm-1.25-.531c0 .703-.39 2.078-.61 2.531-.406.844-.78 1.11-1.218 1.11-.797 0-.75-.86-.75-.938l-.063.094s.063-.141.094-.282l.578-2.343c.094-.329.344-.563.563-.75.421-.36.64-.407.843-.407.47 0 .563.282.563.985zm0 0"/></svg><svg overflow="visible" x="83.652" y="48.567"><path d="M4.172-.156v-.469H3.64c-.829 0-.625.063-.625-.219v-4.64c0-.235-.235-.391-.563-.391-.578.578-1.203.531-1.75.531v.625c.406 0 1.11-.047 1.219-.11v3.985c0 .281.203.219-.625.219H.766v.64L2.469-.03l1.703.047zm0 0"/></svg><svg overflow="visible" x="88.912" y="45.614"><path d="M3.64-2.625v-1c0-2.047-1.328-4.531-2.64-5.516a.774.774 0 00-.203-.062c-.063 0-.313.187-.313.25 0 .031.079.172.094.187 1.25.938 2.016 3.235 2.016 5.141v1c0 1.922-.766 4.219-2.016 5.14-.015.032-.094.157-.094.204 0 .047.25.25.313.25A.774.774 0 001 2.906c1.313-1 2.64-3.484 2.64-5.531zm0 0"/></svg><svg overflow="visible" x="7.246" y="71.91"><path d="M2.984-5.344v4.328c.79-.164 1.77-.441 2.938-.828L6-1.53A35.68 35.68 0 011.406.079c-.062.312-.14.468-.234.468C1.016.547.828.18.609-.547c.164-.02.711-.117 1.641-.297v-8.61c.863.024 1.297.134 1.297.329 0 .105-.188.227-.563.36v3.124h1.61l.593-.828c.227.23.454.485.672.766l.094.125-.125.234zm4.344.36a12.343 12.343 0 002.688-2.407c.57.399.859.688.859.875 0 .086-.078.125-.234.125-.094 0-.211-.015-.344-.046a16.626 16.626 0 01-2.969 1.859v3.922c0 .23.086.36.266.39.125.032.437.047.937.047.758 0 1.223-.023 1.39-.078.208-.062.337-.234.392-.516.113-.539.187-1.175.218-1.906l.344.125c0 1.063.04 1.703.125 1.922.05.18.176.266.375.266-.012.375-.184.601-.516.687-.336.082-1.148.125-2.437.125-.918 0-1.461-.078-1.625-.234-.125-.137-.188-.39-.188-.766v-8.844c.864.043 1.297.157 1.297.344 0 .106-.195.227-.578.36zm0 0"/></svg><svg overflow="visible" x="19.201" y="71.91"><path d="M7.563-3.703l-.188.031c-.95.2-2.031.367-3.25.5-.074.262-.152.39-.234.39-.168 0-.305-.32-.407-.968a73.87 73.87 0 001.375-.047A18.577 18.577 0 006.953-6.64c.54.313.813.54.813.672 0 .106-.18.157-.532.157a15.595 15.595 0 01-1.828 1.89l-.11.094c.571-.031 1.27-.094 2.095-.188-.125-.218-.34-.472-.641-.765l.172-.188c1 .512 1.5 1.047 1.5 1.61 0 .28-.125.421-.375.421-.188 0-.309-.128-.36-.39a1.773 1.773 0 00-.125-.375zM4.858-5.97c.282-.582.504-1.18.672-1.797.645.243.969.446.969.61 0 .105-.156.156-.469.156-.25.387-.562.79-.937 1.203.343.274.515.531.515.781s-.132.375-.39.375c-.137 0-.25-.101-.344-.312-.18-.457-.586-.89-1.219-1.297l.14-.219c.458.157.813.324 1.063.5zm.766-2.156v-1.797c.813.024 1.219.125 1.219.313 0 .105-.18.214-.532.328v1.156H9.47l.625-.75c.312.242.594.508.844.797l-.141.25H1.203l-.11-.297zm.703 6.484v2.5h-.703v-2.5H.75l-.11-.312h4.985v-1.094c.79.024 1.188.125 1.188.313 0 .093-.165.195-.485.296v.485h3.516l.656-.766c.29.242.582.512.875.813l-.156.265zm-4.89-5.64c1.257.437 1.89.933 1.89 1.484 0 .281-.125.422-.375.422-.168 0-.293-.11-.375-.328-.21-.488-.633-.942-1.265-1.36zm6.515 1.64a12.856 12.856 0 001.969-1.843c.488.375.734.636.734.78 0 .075-.07.11-.203.11-.094 0-.203-.02-.328-.062-.563.437-1.234.851-2.016 1.234zm.094.563c1.789.469 2.687.996 2.687 1.578 0 .242-.117.36-.343.36-.125 0-.274-.098-.438-.297-.43-.508-1.101-.973-2.015-1.391zM4.078-5.11l.125.25c-.687.593-1.45 1.14-2.281 1.64 0 .324-.055.485-.156.485-.168 0-.375-.305-.625-.922 1.125-.438 2.101-.922 2.937-1.453zm0 0"/></svg><svg overflow="visible" x="34.477" y="71.91"><path d="M8.828-4.281c0-.125-.312-.375-.437-.375H.906c-.125 0-.437.25-.437.375 0 .14.312.375.437.375h7.485c.125 0 .437-.235.437-.375zm0 2.328c0-.14-.312-.375-.437-.375H.906c-.125 0-.437.234-.437.375 0 .125.312.36.437.36h7.485c.125 0 .437-.235.437-.36zm0 0"/></svg><svg overflow="visible" x="48.295" y="63.816"><path d="M3.125-6.328h1.719c.289-.77.5-1.52.625-2.25H.89l-.125-.313h8.843l.688-.859c.414.387.719.688.906.906l-.14.266H6.484c-.43.937-.84 1.687-1.234 2.25h3.578l.453-.563c.5.375.75.61.75.704 0 .062-.047.132-.14.203l-.235.218v6.61h-.719V0H3.032v.844h-.734v-7.578c.3.136.578.273.828.406zm-.094.297v2.562h5.906V-6.03zM8.937-.297v-2.875H3.032v2.875zm0 0"/></svg><svg overflow="visible" x="60.25" y="63.816"><path d="M4.656-4.86H2.75l-.094-.296h5.516l.453-.547c.469.375.703.617.703.719 0 .062-.039.125-.11.187l-.25.188c-.011 2.367-.21 3.898-.593 4.593-.262.477-.73.72-1.406.72 0-.231-.153-.407-.453-.532-.23-.094-.653-.192-1.266-.297v-.313c.813.106 1.441.157 1.89.157.415 0 .688-.25.813-.75.195-.832.3-2.11.313-3.828h-2.86C5.29-3.4 4.953-2.242 4.391-1.391 3.773-.43 2.805.313 1.484.844L1.313.578C2.718-.172 3.663-1.195 4.155-2.5c.258-.695.426-1.484.5-2.36zM7.22-9.593C8.32-7.664 9.664-6.227 11.25-5.28c-.23.168-.438.414-.625.734A11.396 11.396 0 017.781-7.78a19.049 19.049 0 01-.875-1.657zM.797-4.234c1.656-1.375 2.86-3.16 3.61-5.36.726.25 1.093.453 1.093.61 0 .105-.168.195-.5.265-.605 1.262-1.258 2.266-1.953 3.016C2.516-5.11 1.832-4.54 1-4zm0 0"/></svg><svg overflow="visible" x="72.205" y="63.816"><path d="M7.563-3.703l-.188.031c-.95.2-2.031.367-3.25.5-.074.262-.152.39-.234.39-.168 0-.305-.32-.407-.968a73.87 73.87 0 001.375-.047A18.577 18.577 0 006.953-6.64c.54.313.813.54.813.672 0 .106-.18.157-.532.157a15.595 15.595 0 01-1.828 1.89l-.11.094c.571-.031 1.27-.094 2.095-.188-.125-.218-.34-.472-.641-.765l.172-.188c1 .512 1.5 1.047 1.5 1.61 0 .28-.125.421-.375.421-.188 0-.309-.128-.36-.39a1.773 1.773 0 00-.125-.375zM4.858-5.97c.282-.582.504-1.18.672-1.797.645.243.969.446.969.61 0 .105-.156.156-.469.156-.25.387-.562.79-.937 1.203.343.274.515.531.515.781s-.132.375-.39.375c-.137 0-.25-.101-.344-.312-.18-.457-.586-.89-1.219-1.297l.14-.219c.458.157.813.324 1.063.5zm.766-2.156v-1.797c.813.024 1.219.125 1.219.313 0 .105-.18.214-.532.328v1.156H9.47l.625-.75c.312.242.594.508.844.797l-.141.25H1.203l-.11-.297zm.703 6.484v2.5h-.703v-2.5H.75l-.11-.312h4.985v-1.094c.79.024 1.188.125 1.188.313 0 .093-.165.195-.485.296v.485h3.516l.656-.766c.29.242.582.512.875.813l-.156.265zm-4.89-5.64c1.257.437 1.89.933 1.89 1.484 0 .281-.125.422-.375.422-.168 0-.293-.11-.375-.328-.21-.488-.633-.942-1.265-1.36zm6.515 1.64a12.856 12.856 0 001.969-1.843c.488.375.734.636.734.78 0 .075-.07.11-.203.11-.094 0-.203-.02-.328-.062-.563.437-1.234.851-2.016 1.234zm.094.563c1.789.469 2.687.996 2.687 1.578 0 .242-.117.36-.343.36-.125 0-.274-.098-.438-.297-.43-.508-1.101-.973-2.015-1.391zM4.078-5.11l.125.25c-.687.593-1.45 1.14-2.281 1.64 0 .324-.055.485-.156.485-.168 0-.375-.305-.625-.922 1.125-.438 2.101-.922 2.937-1.453zm0 0"/></svg><path d="M48.297 68.922H84.16" fill="none" stroke-width=".478" stroke="#000" stroke-miterlimit="10"/><svg overflow="visible" x="57.261" y="80.112"><path d="M5.203-.125v-.516h-.578c-1.078 0-.922 0-.922-.437v-6.703c0-.282-.187-.438-.578-.438-.766.797-1.672.766-2.266.766v.625c.438 0 1.282-.031 1.563-.172v5.922c0 .437.172.437-.906.437H.937v.672C1.547-.03 2.595-.03 3.079-.03c.469 0 1.516 0 2.125.062zm0 0"/></svg><svg overflow="visible" x="63.239" y="80.112"><path d="M5.688-3.953c0-.953-.063-1.922-.47-2.797-.562-1.156-1.734-1.469-2.234-1.469-.718 0-1.796.438-2.28 1.547-.376.828-.438 1.766-.438 2.719 0 .89.109 2.062.593 2.969.516.968 1.532 1.25 2.11 1.25.656 0 1.75-.391 2.281-1.516.375-.828.438-1.766.438-2.703zm-1.391-.14c0 .89 0 1.702-.125 2.468C4-.485 3.516-.265 2.969-.265 2.516-.266 2-.438 1.78-1.579c-.125-.719-.125-1.813-.125-2.516 0-.765 0-1.562.094-2.203.219-1.422.922-1.406 1.219-1.406.406 0 .984.094 1.219 1.266.109.671.109 1.578.109 2.343zm0 0"/></svg><svg overflow="visible" x="69.216" y="80.112"><path d="M5.688-3.953c0-.953-.063-1.922-.47-2.797-.562-1.156-1.734-1.469-2.234-1.469-.718 0-1.796.438-2.28 1.547-.376.828-.438 1.766-.438 2.719 0 .89.109 2.062.593 2.969.516.968 1.532 1.25 2.11 1.25.656 0 1.75-.391 2.281-1.516.375-.828.438-1.766.438-2.703zm-1.391-.14c0 .89 0 1.702-.125 2.468C4-.485 3.516-.265 2.969-.265 2.516-.266 2-.438 1.78-1.579c-.125-.719-.125-1.813-.125-2.516 0-.765 0-1.562.094-2.203.219-1.422.922-1.406 1.219-1.406.406 0 .984.094 1.219 1.266.109.671.109 1.578.109 2.343zm0 0"/></svg><svg overflow="visible" x="118.83" y="20.996"><path d="M7.344-.125v-3c0-5.86-3-12.516-6.203-14.922a.67.67 0 00-.266-.094c-.14 0-.453.266-.453.391 0 .078.094.25.156.297 3.063 2.297 5.14 8.734 5.14 14.328V0h1.626zm0 0"/></svg><svg overflow="visible" x="118.83" y="26.659"><path d="M7.14-6.219H5.72V0h1.625v-6.219zm0 0"/></svg><g><svg overflow="visible" x="118.83" y="32.266"><path d="M7.14-6.219H5.72V0h1.625v-6.219zm0 0"/></svg></g><g><svg overflow="visible" x="118.83" y="37.874"><path d="M7.14-6.219H5.72V0h1.625v-6.219zm0 0"/></svg></g><g><svg overflow="visible" x="118.83" y="43.481"><path d="M7.14-6.219H5.72V0h1.625v-6.219zm0 0"/></svg></g><g><svg overflow="visible" x="118.83" y="49.088"><path d="M7.14-6.219H5.72V0h1.625v-6.219zm0 0"/></svg></g><g><svg overflow="visible" x="118.83" y="54.695"><path d="M7.14-6.219H5.72V0h1.625v-6.219zm0 0"/></svg></g><g><svg overflow="visible" x="118.83" y="60.302"><path d="M7.14-6.219H5.72V0h1.625v-6.219zm0 0"/></svg></g><g><svg overflow="visible" x="118.83" y="77.884"><path d="M7.344-15.016v-3.125H5.719v3.125c0 5.61-2.078 12.047-5.14 14.344-.063.031-.157.203-.157.297 0 .14.312.375.453.375.063 0 .234-.063.266-.078 3.203-2.406 6.203-9.078 6.203-14.938zm0 0"/></svg></g><g><svg overflow="visible" x="131.284" y="43.493"><path d="M5.64-7.969c.27.399.407.742.407 1.032 0 .46-.11 1.074-.328 1.843-.23.782-.528 1.512-.89 2.188-.337.668-.657 1.14-.97 1.422-.304.28-.636.421-1 .421-.25 0-.53-.164-.843-.5-.22-.207-.399-.539-.532-1a4.803 4.803 0 01-.187-1.359c0-.613.14-1.21.422-1.797.25-.52.593-.984 1.031-1.39.957-.875 2.133-1.313 3.531-1.313 1.082 0 2.004.262 2.766.781 1.094.774 1.64 1.836 1.64 3.188 0 1.312-.476 2.32-1.421 3.016-.868.656-2.016 1.074-3.454 1.25l-.078-.344c1.352-.25 2.395-.766 3.125-1.547.657-.688.985-1.5.985-2.438 0-1.082-.383-1.96-1.14-2.64-.618-.57-1.43-.86-2.438-.86-.22 0-.43.016-.625.047zm-.374.078c-.793.211-1.45.54-1.97.985-.437.367-.788.836-1.046 1.406a3.763 3.763 0 00-.344 1.563c0 .648.145 1.195.438 1.64.187.274.375.406.562.406.176 0 .375-.109.594-.328.438-.476.848-1.195 1.234-2.156.477-1.195.72-2.086.72-2.672 0-.375-.063-.656-.188-.844zm0 0"/></svg><svg overflow="visible" x="143.239" y="43.493"><path d="M4.922-4.86c-.336-.726-.59-1.757-.766-3.093-.054-.383-.117-.613-.187-.688-.125-.101-.34-.16-.64-.171v-.376a6.98 6.98 0 01.733-.03c.602 0 .907.187.907.562l-.063.828c0 .918.176 1.808.532 2.672l2.437-1.39c.188-.095.281-.177.281-.25 0-.114-.14-.274-.422-.485l.25-.25c.79.406 1.188.781 1.188 1.125 0 .117-.078.218-.235.312-.062.032-.246.11-.546.235-1.899.78-3.274 1.492-4.125 2.125-.793.593-1.188 1.168-1.188 1.718 0 .43.235.735.703.922.457.18 1.18.266 2.172.266a12.7 12.7 0 002.484-.25c.063-.008.172-.035.329-.078a.915.915 0 01.187-.032c.219 0 .39.043.516.125a.441.441 0 01.203.375c0 .211-.168.34-.5.391-.875.117-1.805.172-2.781.172-1.493 0-2.528-.172-3.11-.516-.48-.289-.719-.742-.719-1.359 0-.969.786-1.922 2.36-2.86zm0 0"/></svg><svg overflow="visible" x="155.194" y="43.493"><path d="M3.219-1.86c0 .45.312.798.937 1.048.52.21 1.188.312 2 .312.446 0 .93-.047 1.453-.14a2.37 2.37 0 01.313-.032c.207 0 .348.027.422.078a.435.435 0 01.203.39c0 .18-.184.302-.547.376-.313.05-.84.078-1.578.078C5.14.25 4.164.031 3.5-.406c-.555-.344-.828-.79-.828-1.344 0-.613.348-1.063 1.047-1.344.476-.195 1.062-.297 1.75-.297.945 0 1.789.075 2.531.22a16.276 16.276 0 01-.578-.97c-.262-.457-.43-.757-.5-.906-1.012.262-1.824.39-2.438.39-.968 0-1.734-.32-2.296-.968l.234-.25c.488.469 1.144.703 1.969.703.656 0 1.41-.125 2.265-.375a50.67 50.67 0 01-.718-1.469c-.7.157-1.305.235-1.813.235-.688 0-1.227-.192-1.61-.578l.204-.266c.394.242.812.36 1.25.36.52 0 1.101-.079 1.75-.235l-.453-.984c-.2-.457-.493-.688-.875-.688-.032 0-.118.012-.25.031L4.094-9.5c.445-.07.8-.11 1.062-.11.301 0 .5.153.594.454.156.554.316 1.043.484 1.469.79-.313 1.297-.547 1.516-.704a.812.812 0 01.516-.171c.312 0 .468.09.468.265 0 .137-.226.297-.671.485-.282.125-.82.328-1.61.609.258.594.5 1.094.719 1.5.976-.352 1.601-.656 1.875-.906a.747.747 0 01.469-.172c.382 0 .578.09.578.265 0 .325-.887.762-2.656 1.313.226.406.566.945 1.015 1.61.219.323.328.585.328.78 0 .407-.09.61-.265.61-.094 0-.22-.055-.375-.172-.25-.176-.688-.32-1.313-.438a8.836 8.836 0 00-1.562-.14c-.637 0-1.153.121-1.547.36-.336.198-.5.445-.5.734zm0 0"/></svg><svg overflow="visible" x="167.15" y="43.493"><path d="M.828-1.938c.977.344 1.707.805 2.188 1.375.226.282.343.56.343.829 0 .394-.187.593-.562.593-.211 0-.371-.152-.485-.453-.335-.82-.886-1.531-1.656-2.125zm0 0"/></svg><svg overflow="visible" x="179.105" y="43.493"><path d="M7.39-5.297v.188c-.023 1.273-.148 2.351-.374 3.234A6.03 6.03 0 015.453.828l-.25-.203c.656-.914 1.082-1.96 1.281-3.14.133-.833.204-1.797.204-2.891v-3.422c.312.117.57.219.78.312.938-.28 1.735-.675 2.391-1.187.551.344.829.59.829.734 0 .074-.075.11-.22.11-.105 0-.226-.016-.359-.047-.78.293-1.687.539-2.718.734v2.563h2.703l.562-.766c.301.262.555.531.766.813l-.125.265H9.672V.72h-.688v-6.016zM3.11-2.359C2.483-1.41 1.663-.582.655.125L.453-.109c1.176-.989 2.035-2.102 2.578-3.344H.875L.75-3.75h2.36v-1.406c.75.031 1.124.117 1.124.25 0 .093-.152.195-.453.297v.859H5l.5-.672c.27.281.488.54.656.766l-.125.203h-2.25v.484c1.344.492 2.016 1.016 2.016 1.578 0 .274-.125.407-.375.407-.117 0-.234-.098-.36-.297-.292-.5-.718-.942-1.28-1.328V.859h-.673zm.64-3.313c.313-.707.55-1.43.719-2.172.664.242 1 .434 1 .578 0 .106-.157.164-.469.172-.188.375-.484.852-.89 1.422h1.156l.5-.703c.238.25.441.5.609.75l-.14.25H.718l-.125-.297zM3.11-8.25v-1.656c.757.043 1.14.148 1.14.312 0 .094-.156.2-.469.313v1.031H5l.469-.734c.238.242.437.468.593.687l.079.11L6-7.954H1.016L.875-8.25zm-1.438.438c.832.5 1.25 1.023 1.25 1.562 0 .305-.14.453-.422.453-.2 0-.309-.144-.328-.437-.031-.446-.258-.907-.672-1.375zm0 0"/></svg><svg overflow="visible" x="191.06" y="43.493"><path d="M10.266-3.984c-.375 1.23-.883 2.168-1.516 2.812C7.883-.305 6.852.125 5.656.125c-.93 0-1.59-.238-1.984-.719-.367-.445-.547-1.148-.547-2.11 0-1.175.04-2.483.125-3.921a20.6 20.6 0 00.047-1.297c0-.344-.04-.586-.11-.734-.085-.156-.246-.285-.484-.39l.11-.282c.406.043.765.183 1.078.422.25.199.375.375.375.531 0 .055-.028.21-.079.469a9.445 9.445 0 00-.125.765C3.864-5.453 3.767-4 3.767-2.78c0 .93.156 1.539.468 1.828.27.262.758.39 1.47.39.913 0 1.753-.335 2.515-1.015.707-.625 1.273-1.477 1.703-2.563zm0 0"/></svg><svg overflow="visible" x="203.015" y="43.493"><path d="M5.594-3.969a65.088 65.088 0 00-.75 1.844c-.168.45-.25.766-.25.953l.125.61c0 .199-.11.296-.328.296-.125 0-.309-.066-.547-.203a3.045 3.045 0 01-.563-.453c-.48-.476-.828-1.18-1.047-2.11-.168-.687-.257-1.738-.265-3.155 0-.446-.04-.805-.11-1.079a1.367 1.367 0 00-.625-.796l.204-.282C2.332-7.926 2.78-7.477 2.78-7a.875.875 0 01-.047.219 1.33 1.33 0 00-.062.234c-.055.68-.078 1.266-.078 1.766 0 1.125.27 2.12.812 2.984.094.137.203.203.328.203.082 0 .176-.078.282-.234.27-.395.691-1.156 1.265-2.281zm2.312-3.234c.594.305 1.067.625 1.422.969.281.261.555.605.828 1.03.414.669.625 1.298.625 1.891 0 .461-.148.688-.437.688-.18 0-.305-.188-.375-.563-.324-1.656-1.086-2.89-2.281-3.703zm0 0"/></svg><svg overflow="visible" x="214.97" y="43.493"><path d="M3.328-5.953h2.203v-3.875c.832.031 1.25.14 1.25.328 0 .105-.183.215-.547.328v1.313h3.282l.609-.797c.313.281.586.57.828.86l-.156.234H6.234v1.609h2.407l.453-.547c.488.387.734.633.734.734 0 .043-.031.09-.094.141l-.296.203v3.078h-.72v-.547h-5.53v.579h-.72v-4c.321.105.61.226.86.359zm-.14.297v2.468h5.53v-2.468zm1.124 3.593c.633.762.954 1.446.954 2.047 0 .477-.172.72-.516.72-.23 0-.344-.134-.344-.391v-.391c0-.613-.117-1.238-.343-1.875zm2.25-.062C7.582-1.32 8.095-.578 8.095.109c0 .364-.164.547-.485.547-.21 0-.336-.172-.375-.515-.086-.696-.375-1.395-.875-2.094zm-4.015.11l.281.078c-.055.992-.34 1.789-.86 2.39-.241.27-.476.406-.702.406C.953.86.796.703.796.391c0-.137.118-.274.36-.407.645-.363 1.11-1.03 1.39-2zm6.437-.141c.801.398 1.41.836 1.829 1.312.289.344.437.664.437.953 0 .332-.152.5-.453.5-.188 0-.336-.164-.438-.484-.218-.688-.734-1.379-1.546-2.078zm0 0"/></svg></g><g><svg overflow="visible" x="230.246" y="43.493"><path d="M8.828-4.281c0-.125-.312-.375-.437-.375H.906c-.125 0-.437.25-.437.375 0 .14.312.375.437.375h7.485c.125 0 .437-.235.437-.375zm0 2.328c0-.14-.312-.375-.437-.375H.906c-.125 0-.437.234-.437.375 0 .125.312.36.437.36h7.485c.125 0 .437-.235.437-.36zm0 0"/></svg></g><g><svg overflow="visible" x="242.859" y="43.493"><path d="M6.047-3.5c0-1.125-.875-2.047-1.781-2.047-.594 0-1.313.469-1.438.625-.062-.234-.765-.625-1.203-.625-.547 0-.922.5-1.031.719-.219.406-.422 1.219-.422 1.25 0 .125.469.219.469.219l-.125.03c.125 0 .328-.14.39-.405.203-.844.25-1.282.688-1.282.203 0 .156-.046.156.407 0 .28-.031.406-.078.609L.328 1.328c-.094.406.094.36-.437.36-.141 0-.47.125-.47.359 0 .094.25.265.345.265.328 0 .671-.03 1.015-.03.39 0 .797.03 1.172.03.063 0 .406-.124.406-.359 0-.14-.296-.266-.468-.266-.594 0-.407.047-.407-.062 0-.14.5-2.094.579-2.39h-.391c.156.343.687.89 1.297.89 1.39 0 3.078-1.875 3.078-3.625zm-1.25-.531c0 .703-.39 2.078-.61 2.531-.406.844-.78 1.11-1.218 1.11-.797 0-.75-.86-.75-.938l-.063.094s.063-.141.094-.282l.578-2.343c.094-.329.344-.563.563-.75.421-.36.64-.407.843-.407.47 0 .563.282.563.985zm0 0"/></svg></g><g><svg overflow="visible" x="248.882" y="46.446"><path d="M4.172-.156v-.469H3.64c-.829 0-.625.063-.625-.219v-4.64c0-.235-.235-.391-.563-.391-.578.578-1.203.531-1.75.531v.625c.406 0 1.11-.047 1.219-.11v3.985c0 .281.203.219-.625.219H.766v.64L2.469-.03l1.703.047zm0 0"/></svg></g><g><svg overflow="visible" x="256.799" y="43.493"><path d="M8.828-3.125c0-.125-.312-.36-.437-.36H5.078v-3.374c0-.141-.297-.375-.422-.375-.14 0-.453.234-.453.375v3.375H.906c-.125 0-.437.234-.437.359 0 .14.312.375.437.375h3.297V.625c0 .125.313.36.453.36.125 0 .422-.235.422-.36V-2.75h3.313c.125 0 .437-.234.437-.375zm0 0"/></svg></g><g><svg overflow="visible" x="268.757" y="43.493"><path d="M4.203-5.938H3.47v2h.734l.531-.78c.27.292.5.573.688.843l-.14.234H3.468v2.672c.508-.133 1.11-.316 1.797-.547l.078.313C3.676-.516 2.274-.003 1.14.328c-.063.3-.137.453-.22.453C.755.781.572.414.376-.313c.3-.039.555-.082.766-.124V-4.5c.707.043 1.062.148 1.062.313 0 .093-.14.187-.422.28v3.345l.172-.047c.125-.02.281-.051.469-.094.219-.05.344-.082.375-.094v-5.14H1.78v.562h-.64v-4.156c.312.136.523.234.64.297l.094.062h2.219L4.5-9.75c.469.387.703.633.703.734 0 .043-.023.079-.062.11l-.313.203v3.25h-.625zm0-.296V-8.86H1.781v2.625zm2.422-.141h3.016l.406-.516c.488.387.734.633.734.735 0 .054-.039.101-.11.14l-.296.188v3.406h-.656v-.734H6.625v2.828h3.484l.61-.797c.258.23.504.512.734.844l-.14.25H6.625v.906h-.703V-9.391c.258.106.531.235.812.391h3.157l.546-.75c.29.273.551.54.782.797l-.125.25H6.625zm0 .297v2.625h3.094v-2.625zm0 0"/></svg><svg overflow="visible" x="280.712" y="43.493"><path d="M2.86-3.219H1.593V.86H.937v-4.75c.258.106.485.211.672.313l.11.062h1.187c.04-.187.098-.578.172-1.171H1.86v.5h-.625v-3.547c.645.03.97.117.97.25 0 .086-.118.171-.345.265V-5h3.157v-2.766c.687.012 1.03.094 1.03.25 0 .094-.136.188-.405.282v2.968h-.625v-.421H3.859a1.165 1.165 0 01-.062.234 6.072 6.072 0 00-.094.36c-.062.21-.121.402-.172.577h1.625l.39-.5c.446.344.673.575.673.688 0 .055-.032.101-.094.14l-.25.157v2.875c0 .613-.34.914-1.016.906-.011-.219-.14-.375-.39-.469C4.344.238 4.062.18 3.625.11v-.312c.395.043.8.062 1.219.062.258 0 .39-.113.39-.343V-3.22H3.438c-.2.606-.391 1.153-.579 1.64.457-.062.907-.128 1.344-.202a3.632 3.632 0 00-.547-.89l.188-.173c.8.617 1.203 1.2 1.203 1.75 0 .262-.121.39-.36.39-.167 0-.261-.1-.28-.312a4.974 4.974 0 00-.095-.468c-.605.199-1.242.367-1.906.5-.054.25-.117.375-.187.375-.149 0-.281-.29-.406-.875.132 0 .359-.016.671-.047 0-.008.004-.047.016-.11a.88.88 0 01.031-.093c.082-.332.176-.758.281-1.282zm4-2.484c-.231.406-.516.828-.86 1.266l-.266-.157C6.617-5.957 7.316-7.758 7.828-10c.688.18 1.031.36 1.031.547 0 .105-.168.18-.5.219-.23.742-.476 1.414-.734 2.015h1.297c.281-.656.539-1.52.781-2.593.676.18 1.016.355 1.016.53 0 .118-.156.188-.469.22a9.67 9.67 0 01-.969 1.843h.953l.5-.734c.157.18.368.445.641.797l-.125.234H9.5V-5h.563l.5-.688c.187.243.378.493.578.75l-.11.25H9.5v2.016h.563l.5-.687c.132.156.296.355.484.593l.125.157-.125.25H9.5v2.171h.86l.578-.78c.207.241.421.515.64.827l-.14.25H7.53v.75H6.86zm.671-1.219V-5h1.297v-1.922zm1.297 2.234H7.531v2.016h1.297zm-1.297 4.5h1.297v-2.171H7.531zM3.22-6.468a6.592 6.592 0 00-.938-.688l.156-.203c.395.187.739.375 1.032.562.258-.332.484-.691.672-1.078.457.25.687.438.687.563 0 .074-.086.109-.25.109a.684.684 0 01-.156-.016c-.125.242-.305.48-.531.719.445.313.671.602.671.86 0 .199-.085.296-.25.296-.105 0-.226-.093-.359-.281a4.049 4.049 0 00-.406-.516 5.584 5.584 0 01-1.281.875l-.172-.218c.406-.27.781-.598 1.125-.985zm-.11-1.938v-1.531c.782.023 1.172.117 1.172.28 0 .106-.172.216-.515.329v.922h1.39l.532-.735c.226.211.468.477.718.797l-.125.25H.594l-.11-.312zm0 0"/></svg></g><g><svg overflow="visible" x="295.324" y="43.493"><path d="M2.484-3.125c0-.344-.468-.766-.828-.766-.343 0-.828.422-.828.766 0 .36.485.766.828.766.36 0 .828-.407.828-.766zm0 0"/></svg></g><g><svg overflow="visible" x="301.305" y="43.493"><path d="M2.984-5.344v4.328c.79-.164 1.77-.441 2.938-.828L6-1.53A35.68 35.68 0 011.406.079c-.062.312-.14.468-.234.468C1.016.547.828.18.609-.547c.164-.02.711-.117 1.641-.297v-8.61c.863.024 1.297.134 1.297.329 0 .105-.188.227-.563.36v3.124h1.61l.593-.828c.227.23.454.485.672.766l.094.125-.125.234zm4.344.36a12.343 12.343 0 002.688-2.407c.57.399.859.688.859.875 0 .086-.078.125-.234.125-.094 0-.211-.015-.344-.046a16.626 16.626 0 01-2.969 1.859v3.922c0 .23.086.36.266.39.125.032.437.047.937.047.758 0 1.223-.023 1.39-.078.208-.062.337-.234.392-.516.113-.539.187-1.175.218-1.906l.344.125c0 1.063.04 1.703.125 1.922.05.18.176.266.375.266-.012.375-.184.601-.516.687-.336.082-1.148.125-2.437.125-.918 0-1.461-.078-1.625-.234-.125-.137-.188-.39-.188-.766v-8.844c.864.043 1.297.157 1.297.344 0 .106-.195.227-.578.36zm0 0"/></svg><svg overflow="visible" x="313.26" y="43.493"><path d="M7.563-3.703l-.188.031c-.95.2-2.031.367-3.25.5-.074.262-.152.39-.234.39-.168 0-.305-.32-.407-.968a73.87 73.87 0 001.375-.047A18.577 18.577 0 006.953-6.64c.54.313.813.54.813.672 0 .106-.18.157-.532.157a15.595 15.595 0 01-1.828 1.89l-.11.094c.571-.031 1.27-.094 2.095-.188-.125-.218-.34-.472-.641-.765l.172-.188c1 .512 1.5 1.047 1.5 1.61 0 .28-.125.421-.375.421-.188 0-.309-.128-.36-.39a1.773 1.773 0 00-.125-.375zM4.858-5.97c.282-.582.504-1.18.672-1.797.645.243.969.446.969.61 0 .105-.156.156-.469.156-.25.387-.562.79-.937 1.203.343.274.515.531.515.781s-.132.375-.39.375c-.137 0-.25-.101-.344-.312-.18-.457-.586-.89-1.219-1.297l.14-.219c.458.157.813.324 1.063.5zm.766-2.156v-1.797c.813.024 1.219.125 1.219.313 0 .105-.18.214-.532.328v1.156H9.47l.625-.75c.312.242.594.508.844.797l-.141.25H1.203l-.11-.297zm.703 6.484v2.5h-.703v-2.5H.75l-.11-.312h4.985v-1.094c.79.024 1.188.125 1.188.313 0 .093-.165.195-.485.296v.485h3.516l.656-.766c.29.242.582.512.875.813l-.156.265zm-4.89-5.64c1.257.437 1.89.933 1.89 1.484 0 .281-.125.422-.375.422-.168 0-.293-.11-.375-.328-.21-.488-.633-.942-1.265-1.36zm6.515 1.64a12.856 12.856 0 001.969-1.843c.488.375.734.636.734.78 0 .075-.07.11-.203.11-.094 0-.203-.02-.328-.062-.563.437-1.234.851-2.016 1.234zm.094.563c1.789.469 2.687.996 2.687 1.578 0 .242-.117.36-.343.36-.125 0-.274-.098-.438-.297-.43-.508-1.101-.973-2.015-1.391zM4.078-5.11l.125.25c-.687.593-1.45 1.14-2.281 1.64 0 .324-.055.485-.156.485-.168 0-.375-.305-.625-.922 1.125-.438 2.101-.922 2.937-1.453zm0 0"/></svg></g></svg>