<svg xmlns="http://www.w3.org/2000/svg" xmlns:xlink="http://www.w3.org/1999/xlink" width="188" height="92" viewBox="0 0 141 69"><svg overflow="visible" x=".309" y="12.138"><path d="M4.656-12.234C1.546-10.047.438-5.656.438-2.031V0h1.796v-2.984c0-3.047.594-6.344 2.704-8.766v-.688zm0 0"/></svg><svg overflow="visible" x=".309" y="22.941"><path d="M2.234-.125v-12.203H.438V0h1.796zm0 0"/></svg><svg overflow="visible" x=".309" y="33.745"><path d="M2.234-.125v-12.203H.438V0h1.796zm0 0"/></svg><svg overflow="visible" x=".309" y="44.548"><path d="M2.234-.125v-12.203H.438V0h1.796zm0 0"/></svg><svg overflow="visible" x=".309" y="55.351"><path d="M2.234-.125v-12.203H.438V0h1.796zm0 0"/></svg><svg overflow="visible" x=".309" y="66.095"><path d="M4.89-.578C2.829-2.938 2.235-6.25 2.235-9.281v-3H.438v2.031c0 3.625 1.109 8.016 4.5 10.406V-.53zm0 0"/></svg><svg overflow="visible" x="5.689" y="7.745"><path d="M2.719-2.969c.234-1.031.703-1.64 1.328-1.64.281 0 .453.109.453.875C4.5-2.406 3.766-.47 2.562-.47c-.14 0-.28-.015-.39-.156zm.406-1.687l.031.031.25-.938-2.265.344.046.469c.25-.063.391-.094.485-.094.36 0 .203.032.203.266L.485.969c-.157.547-.063.781-.938.812l-.11.407h3.125l.11-.407h-.39c-.595 0-.579-.125-.579-.375 0-.14.031-.265.063-.422L2 .047c.016.015.344.094.625.094 1.719 0 3.203-2.157 3.203-3.688 0-1.203-.562-1.984-1.281-1.984-.422 0-1.016.281-1.469.718L3-4.734zm0 0"/></svg><svg overflow="visible" x="11.535" y="10.734"><path d="M3.719-.14v-.266c-.86 0-.86-.031-.86-.406V-6.25l-.296-.094-1.75.89v.407l.421-.156a1.05 1.05 0 01.407-.11c.187 0 .078 0 .078.297v4.032c0 .484 0 .546-.844.593V0h2.844zm0 0"/></svg><svg overflow="visible" x="19.837" y="7.745"><path d="M7.766-1.563v-.921H.406v1.046h7.36zm0-2.39v-.922H.406v1.047h7.36zm0 0"/></svg><svg overflow="visible" x="5.689" y="25.179"><path d="M2.719-2.969c.234-1.031.703-1.64 1.328-1.64.281 0 .453.109.453.875C4.5-2.406 3.766-.47 2.562-.47c-.14 0-.28-.015-.39-.156zm.406-1.687l.031.031.25-.938-2.265.344.046.469c.25-.063.391-.094.485-.094.36 0 .203.032.203.266L.485.969c-.157.547-.063.781-.938.812l-.11.407h3.125l.11-.407h-.39c-.595 0-.579-.125-.579-.375 0-.14.031-.265.063-.422L2 .047c.016.015.344.094.625.094 1.719 0 3.203-2.157 3.203-3.688 0-1.203-.562-1.984-1.281-1.984-.422 0-1.016.281-1.469.718L3-4.734zm0 0"/></svg><svg overflow="visible" x="11.535" y="28.168"><path d="M4.25-1.5l-.219-.094c-.343.578-.39.64-.765.64h-1.75l1.25-1.343c.796-.844 1.203-1.61 1.203-2.328 0-.875-.828-1.703-1.828-1.703-1.11 0-1.875.86-2.079 2l.516.125C1-5.25 1.125-5.406 1.781-5.406c.75 0 1.047.328 1.047 1.14 0 .766-.265 1.344-1.11 2.235L.079-.281V0h3.813l.562-1.406zm0 0"/></svg><svg overflow="visible" x="19.837" y="25.179"><path d="M7.766-1.563v-.921H.406v1.046h7.36zm0-2.39v-.922H.406v1.047h7.36zm0 0"/></svg><svg overflow="visible" x="19.837" y="42.614"><path d="M7.766-1.563v-.921H.406v1.046h7.36zm0-2.39v-.922H.406v1.047h7.36zm0 0"/></svg><svg overflow="visible" x="31.338" y="42.614"><path d="M3.734 1.703C2.063.297 1.75-.953 1.75-3.172c0-2.312.328-3.328 2.063-4.812l-.235-.422C1.5-7.172.406-5.36.406-3.141.406-1.109 1.484 1 3.531 2.172l.297-.406zm0 0"/></svg><svg overflow="visible" x="35.319" y="42.614"><path d="M2.719-2.969c.234-1.031.703-1.64 1.328-1.64.281 0 .453.109.453.875C4.5-2.406 3.766-.47 2.562-.47c-.14 0-.28-.015-.39-.156zm.406-1.687l.031.031.25-.938-2.265.344.046.469c.25-.063.391-.094.485-.094.36 0 .203.032.203.266L.485.969c-.157.547-.063.781-.938.812l-.11.407h3.125l.11-.407h-.39c-.595 0-.579-.125-.579-.375 0-.14.031-.265.063-.422L2 .047c.016.015.344.094.625.094 1.719 0 3.203-2.157 3.203-3.688 0-1.203-.562-1.984-1.281-1.984-.422 0-1.016.281-1.469.718L3-4.734zm0 0"/></svg><svg overflow="visible" x="41.175" y="45.603"><path d="M4.25-1.5l-.219-.094c-.343.578-.39.64-.765.64h-1.75l1.25-1.343c.796-.844 1.203-1.61 1.203-2.328 0-.875-.828-1.703-1.828-1.703-1.11 0-1.875.86-2.079 2l.516.125C1-5.25 1.125-5.406 1.781-5.406c.75 0 1.047.328 1.047 1.14 0 .766-.265 1.344-1.11 2.235L.079-.281V0h3.813l.562-1.406zm0 0"/></svg><svg overflow="visible" x="48.813" y="42.614"><path d="M7.578-2.766v-.921H.594v1.062h6.984zm0 0"/></svg><svg overflow="visible" x="59.656" y="42.614"><path d="M2.719-2.969c.234-1.031.703-1.64 1.328-1.64.281 0 .453.109.453.875C4.5-2.406 3.766-.47 2.562-.47c-.14 0-.28-.015-.39-.156zm.406-1.687l.031.031.25-.938-2.265.344.046.469c.25-.063.391-.094.485-.094.36 0 .203.032.203.266L.485.969c-.157.547-.063.781-.938.812l-.11.407h3.125l.11-.407h-.39c-.595 0-.579-.125-.579-.375 0-.14.031-.265.063-.422L2 .047c.016.015.344.094.625.094 1.719 0 3.203-2.157 3.203-3.688 0-1.203-.562-1.984-1.281-1.984-.422 0-1.016.281-1.469.718L3-4.734zm0 0"/></svg><svg overflow="visible" x="65.506" y="45.603"><path d="M3.719-.14v-.266c-.86 0-.86-.031-.86-.406V-6.25l-.296-.094-1.75.89v.407l.421-.156a1.05 1.05 0 01.407-.11c.187 0 .078 0 .078.297v4.032c0 .484 0 .546-.844.593V0h2.844zm0 0"/></svg><svg overflow="visible" x="70.487" y="42.614"><path d="M.234-7.922c1.72 1.36 1.985 2.64 1.985 4.875C2.219-.734 1.922.297.156 1.75l.235.438C2.469.921 3.562-.876 3.562-3.079c0-2.031-1.14-4.125-3.124-5.328L.124-8zm0 0"/></svg><svg overflow="visible" x="19.837" y="60.048"><path d="M7.766-1.563v-.921H.406v1.046h7.36zm0-2.39v-.922H.406v1.047h7.36zm0 0"/></svg><path d="M32.543 57.059h17.934" fill="none" stroke-width=".789" stroke="#000" stroke-miterlimit="10"/><svg overflow="visible" x="32.543" y="68.418"><path d="M4.86-.125v-.313c-1.048 0-1.126-.093-1.126-.609v-7.219l-.296-.093-2.282 1.156v.453l.5-.188c.203-.093.407-.156.532-.156.25 0 .187.047.187.453v5.375c0 .657-.078.782-1.125.829V0h3.61zm0 0"/></svg><svg overflow="visible" x="38.521" y="68.418"><path d="M4.375-4.016c0 2.36-.375 3.61-1.39 3.61-1.032 0-1.391-1.235-1.391-3.656 0-2.422.375-3.704 1.375-3.704 1.047 0 1.406 1.266 1.406 3.75zm1.469-.062c0-2.453-1.235-4.266-2.813-4.266C1.11-8.344.125-6.266.125-4.14c0 1.954.813 4.313 2.86 4.313 1.953 0 2.859-2.188 2.859-4.25zm0 0"/></svg><svg overflow="visible" x="44.498" y="68.418"><path d="M4.375-4.016c0 2.36-.375 3.61-1.39 3.61-1.032 0-1.391-1.235-1.391-3.656 0-2.422.375-3.704 1.375-3.704 1.047 0 1.406 1.266 1.406 3.75zm1.469-.062c0-2.453-1.235-4.266-2.813-4.266C1.11-8.344.125-6.266.125-4.14c0 1.954.813 4.313 2.86 4.313 1.953 0 2.859-2.188 2.859-4.25zm0 0"/></svg><svg overflow="visible" x="74.468" y="12.138"><path d="M4.938-.125v-1.906c0-3.625-1.11-8.016-4.5-10.406v.687C2.53-9.328 3.124-6.031 3.124-2.984V0h1.813zm0 0"/></svg><svg overflow="visible" x="74.468" y="22.941"><path d="M4.938-.125v-12.203H3.125V0h1.813zm0 0"/></svg><svg overflow="visible" x="74.468" y="33.745"><path d="M4.938-.125v-12.203H3.125V0h1.813zm0 0"/></svg><svg overflow="visible" x="74.468" y="44.548"><path d="M4.938-.125v-12.203H3.125V0h1.813zm0 0"/></svg><svg overflow="visible" x="74.468" y="55.351"><path d="M4.938-.125v-12.203H3.125V0h1.813zm0 0"/></svg><svg overflow="visible" x="74.468" y="66.095"><path d="M4.781-12.281H3.125v3c0 3.031-.594 6.344-2.688 8.75v.687c3.391-2.39 4.5-6.781 4.5-10.406v-2.031zm0 0"/></svg><svg overflow="visible" x="81.841" y="36.098"><path d="M.984 1.688c.829-.391 1.5-1.282 1.5-2 0-.625-.578-1.172-1.109-1.172-.438 0-.89.406-.89.812s.421.75.859.75c.14 0 .265-.047.36-.047.093 0 0-.062 0 .016 0 .39-.298.734-1.016 1.234l.218.438zm0 0"/></svg><svg overflow="visible" x="99.104" y="36.098"><path d="M7.766-1.563v-.921H.406v1.046h7.36zm0-2.39v-.922H.406v1.047h7.36zm0 0"/></svg><svg overflow="visible" x="110.617" y="36.098"><path d="M2.719-2.969c.234-1.031.703-1.64 1.328-1.64.281 0 .453.109.453.875C4.5-2.406 3.766-.47 2.562-.47c-.14 0-.28-.015-.39-.156zm.406-1.687l.031.031.25-.938-2.265.344.046.469c.25-.063.391-.094.485-.094.36 0 .203.032.203.266L.485.969c-.157.547-.063.781-.938.812l-.11.407h3.125l.11-.407h-.39c-.595 0-.579-.125-.579-.375 0-.14.031-.265.063-.422L2 .047c.016.015.344.094.625.094 1.719 0 3.203-2.157 3.203-3.688 0-1.203-.562-1.984-1.281-1.984-.422 0-1.016.281-1.469.718L3-4.734zm0 0"/></svg><g><svg overflow="visible" x="116.466" y="39.087"><path d="M3.719-.14v-.266c-.86 0-.86-.031-.86-.406V-6.25l-.296-.094-1.75.89v.407l.421-.156a1.05 1.05 0 01.407-.11c.187 0 .078 0 .078.297v4.032c0 .484 0 .546-.844.593V0h2.844zm0 0"/></svg></g><g><svg overflow="visible" x="124.105" y="36.098"><path d="M7.75-2.766v-.921H4.64v-3.11H3.532v3.11H.406v1.062h3.125v3.11h1.11v-3.11H7.75zm0 0"/></svg></g><g><svg overflow="visible" x="137.602" y="36.098"><path d="M2.578-3.156c0-.375-.469-.844-.86-.844-.39 0-.89.484-.89.844s.5.844.89.844c.391 0 .86-.454.86-.844zm0 0"/></svg></g></svg>