<svg xmlns="http://www.w3.org/2000/svg" xmlns:xlink="http://www.w3.org/1999/xlink" width="203px" height="92" viewBox="0 0 152 69"><svg overflow="visible" x="-1.568" y="14.565"><path d="M7.063-14.328l-.188-.14c-.063-.063-.11-.126-.219-.329C3.47-11.609 1.563-7.344 1.563-2.516V0h1.234v-2.516c0-4.625 1.344-8.687 4.39-11.75zm0 0"/></svg><svg overflow="visible" x="-1.568" y="18.824"><path d="M2.797-.125V-5H1.562v5h1.235zm0 0"/></svg><svg overflow="visible" x="-1.568" y="22.945"><path d="M2.797-.125V-5H1.562v5h1.235zm0 0"/></svg><svg overflow="visible" x="-1.568" y="27.066"><path d="M2.797-.125V-5H1.562v5h1.235zm0 0"/></svg><svg overflow="visible" x="-1.568" y="31.187"><path d="M2.797-.125V-5H1.562v5h1.235zm0 0"/></svg><svg overflow="visible" x="-1.568" y="35.309"><path d="M2.797-.125V-5H1.562v5h1.235zm0 0"/></svg><svg overflow="visible" x="-1.568" y="39.43"><path d="M2.797-.125V-5H1.562v5h1.235zm0 0"/></svg><svg overflow="visible" x="-1.568" y="43.551"><path d="M2.797-.125V-5H1.562v5h1.235zm0 0"/></svg><svg overflow="visible" x="-1.568" y="47.672"><path d="M2.797-.125V-5H1.562v5h1.235zm0 0"/></svg><svg overflow="visible" x="-1.568" y="51.793"><path d="M2.797-.125V-5H1.562v5h1.235zm0 0"/></svg><svg overflow="visible" x="-1.568" y="65.76"><path d="M7.063-.563C4.14-3.5 2.796-7.546 2.796-12.187v-2.516H1.562v2.515c0 4.829 1.907 9.094 5.094 12.282.11-.203.157-.266.219-.328.063-.047.125-.094.313-.203zm0 0"/></svg><svg overflow="visible" x="6.55" y="7.744"><path d="M5.688-4.563c0-.796-.407-1.468-.829-1.468-.515 0-1.234.36-1.875.922-.468.421-.718.718-1.156 1.421l.234.11.297-1.438c.032-.203.063-.375.063-.515 0-.235-.235-.5-.406-.5-.25 0-.813.297-1.688.922l-.406.296.187.485.547-.36c.328-.218.375-.234.485-.234.109 0 .046-.031.046.14 0 .095-.015.329-.046.454L.453-.234l-.578 2.89-.11.485.204.171a5.507 5.507 0 011.015-.234l.5-3.062V0c.313.11.485.125.625.125.657 0 2.141-.906 2.641-1.656.5-.735.938-2.14.938-3.032zm-1.141.172c0 .97-.438 2.297-1.063 3.204-.25.343-.515.5-1.015.5-.36 0-.563-.047-.828-.204l.203-1.218C2.109-3.641 3.25-5.063 4.25-5.063c.297 0 .297.125.297.672zm0 0"/></svg><svg overflow="visible" x="12.527" y="10.518"><path d="M4.266-.11V-.5l-.657-.031c-.515-.031-.468.015-.468-.453v-5.329l-.282-.093c-.625.297-1.312.562-2.375.906l.11.594h.234l1.25-.516.031-.016c.047 0-.078-.046-.078.172v4.282c0 .468.047.421-.469.453L.86-.5v.531L2.594 0l1.672.031zm0 0"/></svg><svg overflow="visible" x="21.345" y="7.744"><path d="M8.266-4.078a1.419 1.419 0 01-.047-.36c0-.109.015-.234.062-.484h-7.5c.063.25.063.375.063.484 0 .125 0 .235-.063.5h7.5zm0 2.625a1.332 1.332 0 01-.047-.36c0-.109.015-.234.062-.484h-7.5c.063.25.063.375.063.485 0 .125 0 .25-.063.5h7.5zm0 0"/></svg><svg overflow="visible" x="6.55" y="25.179"><path d="M5.688-4.563c0-.796-.407-1.468-.829-1.468-.515 0-1.234.36-1.875.922-.468.421-.718.718-1.156 1.421l.234.11.297-1.438c.032-.203.063-.375.063-.515 0-.235-.235-.5-.406-.5-.25 0-.813.297-1.688.922l-.406.296.187.485.547-.36c.328-.218.375-.234.485-.234.109 0 .046-.031.046.14 0 .095-.015.329-.046.454L.453-.234l-.578 2.89-.11.485.204.171a5.507 5.507 0 011.015-.234l.5-3.062V0c.313.11.485.125.625.125.657 0 2.141-.906 2.641-1.656.5-.735.938-2.14.938-3.032zm-1.141.172c0 .97-.438 2.297-1.063 3.204-.25.343-.515.5-1.015.5-.36 0-.563-.047-.828-.204l.203-1.218C2.109-3.641 3.25-5.063 4.25-5.063c.297 0 .297.125.297.672zm0 0"/></svg><svg overflow="visible" x="12.527" y="27.953"><path d="M4.75-.11c-.016-.187-.016-.265-.016-.39s0-.203.032-.547l-3.141.094 1.5-1.469c.938-.906 1.266-1.5 1.266-2.156 0-1.016-.891-1.781-2.125-1.781-.688 0-1.282.218-1.782.687L.297-4.266h.547l.172-.546c.156-.516.359-.594 1-.594.828 0 1.203.343 1.203 1.093 0 .657-.36 1.22-1.453 2.282L.078-.391v.422L2.391 0l2.375.031zm0 0"/></svg><svg overflow="visible" x="21.345" y="25.179"><path d="M8.266-4.078a1.419 1.419 0 01-.047-.36c0-.109.015-.234.062-.484h-7.5c.063.25.063.375.063.484 0 .125 0 .235-.063.5h7.5zm0 2.625a1.332 1.332 0 01-.047-.36c0-.109.015-.234.062-.484h-7.5c.063.25.063.375.063.485 0 .125 0 .25-.063.5h7.5zm0 0"/></svg><svg overflow="visible" x="21.345" y="42.614"><path d="M8.266-4.078a1.419 1.419 0 01-.047-.36c0-.109.015-.234.062-.484h-7.5c.063.25.063.375.063.484 0 .125 0 .235-.063.5h7.5zm0 2.625a1.332 1.332 0 01-.047-.36c0-.109.015-.234.062-.484h-7.5c.063.25.063.375.063.485 0 .125 0 .25-.063.5h7.5zm0 0"/></svg><svg overflow="visible" x="33.743" y="42.614"><path d="M4.203-7.828a.735.735 0 01-.187-.14c-.063-.063-.11-.126-.22-.329-1.593 1.61-2.5 3.266-2.5 4.781v.797c0 1.516.907 3.172 2.5 4.781.11-.203.157-.265.22-.328.062-.062.125-.109.312-.203C2.875.063 2.281-1.344 2.281-2.719v-.797c0-1.39.594-2.78 2.047-4.25zm0 0"/></svg><svg overflow="visible" x="38.812" y="42.614"><path d="M5.688-4.563c0-.796-.407-1.468-.829-1.468-.515 0-1.234.36-1.875.922-.468.421-.718.718-1.156 1.421l.234.11.297-1.438c.032-.203.063-.375.063-.515 0-.235-.235-.5-.406-.5-.25 0-.813.297-1.688.922l-.406.296.187.485.547-.36c.328-.218.375-.234.485-.234.109 0 .046-.031.046.14 0 .095-.015.329-.046.454L.453-.234l-.578 2.89-.11.485.204.171a5.507 5.507 0 011.015-.234l.5-3.062V0c.313.11.485.125.625.125.657 0 2.141-.906 2.641-1.656.5-.735.938-2.14.938-3.032zm-1.141.172c0 .97-.438 2.297-1.063 3.204-.25.343-.515.5-1.015.5-.36 0-.563-.047-.828-.204l.203-1.218C2.109-3.641 3.25-5.063 4.25-5.063c.297 0 .297.125.297.672zm0 0"/></svg><svg overflow="visible" x="44.799" y="45.388"><path d="M4.75-.11c-.016-.187-.016-.265-.016-.39s0-.203.032-.547l-3.141.094 1.5-1.469c.938-.906 1.266-1.5 1.266-2.156 0-1.016-.891-1.781-2.125-1.781-.688 0-1.282.218-1.782.687L.297-4.266h.547l.172-.546c.156-.516.359-.594 1-.594.828 0 1.203.343 1.203 1.093 0 .657-.36 1.22-1.453 2.282L.078-.391v.422L2.391 0l2.375.031zm0 0"/></svg><svg overflow="visible" x="52.952" y="42.614"><path d="M8.266-2.766a1.332 1.332 0 01-.047-.359c0-.11.015-.234.062-.484h-7.5c.063.25.063.375.063.484 0 .125 0 .25-.063.5h7.5zm0 0"/></svg><svg overflow="visible" x="64.692" y="42.614"><path d="M5.688-4.563c0-.796-.407-1.468-.829-1.468-.515 0-1.234.36-1.875.922-.468.421-.718.718-1.156 1.421l.234.11.297-1.438c.032-.203.063-.375.063-.515 0-.235-.235-.5-.406-.5-.25 0-.813.297-1.688.922l-.406.296.187.485.547-.36c.328-.218.375-.234.485-.234.109 0 .046-.031.046.14 0 .095-.015.329-.046.454L.453-.234l-.578 2.89-.11.485.204.171a5.507 5.507 0 011.015-.234l.5-3.062V0c.313.11.485.125.625.125.657 0 2.141-.906 2.641-1.656.5-.735.938-2.14.938-3.032zm-1.141.172c0 .97-.438 2.297-1.063 3.204-.25.343-.515.5-1.015.5-.36 0-.563-.047-.828-.204l.203-1.218C2.109-3.641 3.25-5.063 4.25-5.063c.297 0 .297.125.297.672zm0 0"/></svg><svg overflow="visible" x="70.673" y="45.388"><path d="M4.266-.11V-.5l-.657-.031c-.515-.031-.468.015-.468-.453v-5.329l-.282-.093c-.625.297-1.312.562-2.375.906l.11.594h.234l1.25-.516.031-.016c.047 0-.078-.046-.078.172v4.282c0 .468.047.421-.469.453L.86-.5v.531L2.594 0l1.672.031zm0 0"/></svg><svg overflow="visible" x="76.17" y="42.614"><path d="M3.766-2.719v-.797c0-1.515-.907-3.171-2.516-4.78-.11.202-.156.265-.203.327-.063.063-.125.11-.313.203 1.438 1.47 2.032 2.86 2.032 4.25v.797c0 1.375-.594 2.781-2.032 4.25.188.094.25.14.313.203.047.063.094.125.203.329C2.86.452 3.766-1.204 3.766-2.72zm0 0"/></svg><svg overflow="visible" x="21.345" y="60.048"><path d="M8.266-4.078a1.419 1.419 0 01-.047-.36c0-.109.015-.234.062-.484h-7.5c.063.25.063.375.063.484 0 .125 0 .235-.063.5h7.5zm0 2.625a1.332 1.332 0 01-.047-.36c0-.109.015-.234.062-.484h-7.5c.063.25.063.375.063.485 0 .125 0 .25-.063.5h7.5zm0 0"/></svg><path d="M34.95 57.059h17.933" fill="none" stroke-width=".717" stroke="#000" stroke-miterlimit="10"/><svg overflow="visible" x="34.948" y="68.011"><path d="M5.125-.094v-.484l-.75-.047c-.656-.031-.64-.031-.64-.656v-7.172l-.313-.125c-.875.469-1.61.781-2.86 1.219l.125.718h.235l1.547-.687.031-.016c.063 0-.047-.015-.047.266v5.797c0 .625.016.625-.64.656L1-.578v.625L3.125 0l2 .047zm0 0"/></svg><svg overflow="visible" x="40.926" y="68.011"><path d="M5.688-4.5c0-2.625-.907-4-2.547-4C1.297-8.5.203-6.89.203-4c0 1.39.281 2.703.703 3.281.422.594 1.203.953 1.938.953 1.812 0 2.844-1.687 2.844-4.734zm-1.282.594C4.406-1.36 4.094-.437 3-.437c-1.156 0-1.516-1.079-1.516-4 0-2.516.313-3.375 1.438-3.375 1.172 0 1.484 1.03 1.484 3.906zm0 0"/></svg><svg overflow="visible" x="46.903" y="68.011"><path d="M5.688-4.5c0-2.625-.907-4-2.547-4C1.297-8.5.203-6.89.203-4c0 1.39.281 2.703.703 3.281.422.594 1.203.953 1.938.953 1.812 0 2.844-1.687 2.844-4.734zm-1.282.594C4.406-1.36 4.094-.437 3-.437c-1.156 0-1.516-1.079-1.516-4 0-2.516.313-3.375 1.438-3.375 1.172 0 1.484 1.03 1.484 3.906zm0 0"/></svg><svg overflow="visible" x="81.239" y="14.565"><path d="M6.531-.125v-2.39c0-4.829-1.875-9.094-5.078-12.282-.11.203-.156.266-.219.328-.062.047-.125.094-.312.203 3.062 3.063 4.39 7.125 4.39 11.75V0h1.22zm0 0"/></svg><svg overflow="visible" x="81.239" y="18.824"><path d="M6.531-.125V-5H5.313v5H6.53zm0 0"/></svg><svg overflow="visible" x="81.239" y="22.945"><path d="M6.531-.125V-5H5.313v5H6.53zm0 0"/></svg><svg overflow="visible" x="81.239" y="27.066"><path d="M6.531-.125V-5H5.313v5H6.53zm0 0"/></svg><svg overflow="visible" x="81.239" y="31.187"><path d="M6.531-.125V-5H5.313v5H6.53zm0 0"/></svg><svg overflow="visible" x="81.239" y="35.309"><path d="M6.531-.125V-5H5.313v5H6.53zm0 0"/></svg><svg overflow="visible" x="81.239" y="39.43"><path d="M6.531-.125V-5H5.313v5H6.53zm0 0"/></svg><svg overflow="visible" x="81.239" y="43.551"><path d="M6.531-.125V-5H5.313v5H6.53zm0 0"/></svg><svg overflow="visible" x="81.239" y="47.672"><path d="M6.531-.125V-5H5.313v5H6.53zm0 0"/></svg><svg overflow="visible" x="81.239" y="51.793"><path d="M6.531-.125V-5H5.313v5H6.53zm0 0"/></svg><svg overflow="visible" x="81.239" y="65.76"><path d="M6.531-12.188v-2.515H5.313v2.515C5.313-7.546 3.984-3.5.921-.438c.187.11.25.157.312.204.063.062.11.125.22.328C4.655-3.094 6.53-7.36 6.53-12.187zm0 0"/></svg><svg overflow="visible" x="91.349" y="35.931"><path d="M2.703-1.531L2.47-1.75c-.36.125-.563.203-1.328.406C1.047-.328.78.344.016 1.625l.312.25.61-.281C1.905.328 2.405-.516 2.75-1.47zm0 0"/></svg><svg overflow="visible" x="108.612" y="35.931"><path d="M8.266-4.078a1.419 1.419 0 01-.047-.36c0-.109.015-.234.062-.484h-7.5c.063.25.063.375.063.484 0 .125 0 .235-.063.5h7.5zm0 2.625a1.332 1.332 0 01-.047-.36c0-.109.015-.234.062-.484h-7.5c.063.25.063.375.063.485 0 .125 0 .25-.063.5h7.5zm0 0"/></svg><svg overflow="visible" x="121.022" y="35.931"><path d="M5.688-4.563c0-.796-.407-1.468-.829-1.468-.515 0-1.234.36-1.875.922-.468.421-.718.718-1.156 1.421l.234.11.297-1.438c.032-.203.063-.375.063-.515 0-.235-.235-.5-.406-.5-.25 0-.813.297-1.688.922l-.406.296.187.485.547-.36c.328-.218.375-.234.485-.234.109 0 .046-.031.046.14 0 .095-.015.329-.046.454L.453-.234l-.578 2.89-.11.485.204.171a5.507 5.507 0 011.015-.234l.5-3.062V0c.313.11.485.125.625.125.657 0 2.141-.906 2.641-1.656.5-.735.938-2.14.938-3.032zm-1.141.172c0 .97-.438 2.297-1.063 3.204-.25.343-.515.5-1.015.5-.36 0-.563-.047-.828-.204l.203-1.218C2.109-3.641 3.25-5.063 4.25-5.063c.297 0 .297.125.297.672zm0 0"/></svg><g><svg overflow="visible" x="127.003" y="38.704"><path d="M4.266-.11V-.5l-.657-.031c-.515-.031-.468.015-.468-.453v-5.329l-.282-.093c-.625.297-1.312.562-2.375.906l.11.594h.234l1.25-.516.031-.016c.047 0-.078-.046-.078.172v4.282c0 .468.047.421-.469.453L.86-.5v.531L2.594 0l1.672.031zm0 0"/></svg></g><g><svg overflow="visible" x="135.156" y="35.931"><path d="M8.266-2.766a1.332 1.332 0 01-.047-.359c0-.11.015-.234.062-.484h-3.25v-3.266c-.25.063-.375.078-.484.078-.125 0-.25-.016-.5-.078v3.266H.78c.063.25.063.375.063.484 0 .125 0 .25-.063.5h3.266V.641c.25-.063.375-.079.5-.079.11 0 .234.016.484.079v-3.266h3.25zm0 0"/></svg></g><g><svg overflow="visible" x="149.55" y="35.931"><path d="M2.516-3.125c0-.422-.407-.844-.844-.844-.422 0-.86.422-.86.844 0 .438.438.86.86.86.437 0 .844-.422.844-.86zm0 0"/></svg></g></svg>