<svg xmlns="http://www.w3.org/2000/svg" xmlns:xlink="http://www.w3.org/1999/xlink" width="680" height="61px" viewBox="0 0 510 46"><svg overflow="visible" x="-.27" y="19.707"><path d="M8.094-2.766c0-.921-.89-1.64-1.813-1.765v.265c1.266-.25 2.5-1.359 2.5-2.421 0-.829-.828-1.735-2.14-1.735H3.094c-.219 0-.516.125-.516.36 0 .109.281.25.5.25.297 0 .453-.141.453.062 0 .063 0 .094-.031.172L1.86-.984c-.11.406.015.375-.72.375-.202 0-.5.125-.5.359 0 .125.282.25.47.25h3.796c1.625 0 3.188-1.5 3.188-2.766zm-.64-3.968c0 1.03-.766 2.109-2.126 2.109H3.984L4.688-7.5c.109-.453.015-.313.406-.313h1.39c.954 0 .97.563.97 1.079zm-.72 3.828c0 1.25-.828 2.297-2.093 2.297H3.17c-.343 0-.187.125-.187-.016 0-.047 0-.063.047-.234l.813-3.266h1.89c.938 0 1 .61 1 1.219zm0 0"/></svg><svg overflow="visible" x="7.955" y="19.707"><path d="M5.64-1.39c0-.079-.28-.313-.343-.313a.51.51 0 00-.281.156c-.625.86-1.391 1.172-2 1.172-.797 0-.72-.813-.72-1.203 0-.531.079-.86.173-1.188h.281c.422 0 2.844-.14 2.844-1.64 0-.547-.625-1.125-1.328-1.125-1.235 0-3.094 1.343-3.094 3.453C1.172-.875 1.984.125 3 .125c1.484 0 2.64-1.344 2.64-1.516zm-.827-3.032c0 1.281-1.782 1.14-2.172 1.14h-.032c.438-1.765 1.438-1.75 1.641-1.75.484 0 .563.204.563.61zm1.421-3.703c0-.188-.328-.453-.515-.453-.157 0-.203.39-.203.39l-.25-.187-1.72 1.75c-.108.094-.171.219-.171.25 0 .094.313.313.36.313.062 0 .25-.063.28-.11l1.907-1.5c.094-.062.312-.281.312-.453zm0 0"/></svg><svg overflow="visible" x="13.335" y="19.707"><path d="M5.234-1.813c0-.093-.25-.25-.343-.25-.141 0-.344.172-.375.282-.282.812-.782.922-1.11.922-.203 0-.375-.079-.703-.235l.125.047c-.39-.203-.656-.234-.797-.234-.031 0-.172 0 .172-.11.156-.187.672-.718 1.203-1.203 1.14-1.015 2.219-2.5 2.219-2.719 0-.093-.266-.218-.328-.218a.364.364 0 00-.344.203c-.328.562-.375.687-.61.687-.202 0-.202-.046-.405-.343-.204-.282-.485-.547-.86-.547-.86 0-1.547 1.234-1.547 1.468 0 .11.297.235.344.235.14 0 .328-.156.375-.266.125-.36.36-.453.703-.453.235 0 .438.094.313.047.625.328.875.36.78.36a5.6 5.6 0 01-.405.452L1.953-2C1.141-1.187.531-.203.531-.11c0 .094.313.235.36.235.125 0 .25-.047.328-.203.187-.281.39-.703.797-.703.109 0 .14-.031.406.344.203.312.5.562.86.562 1.124 0 1.952-1.656 1.952-1.938zm0 0"/></svg><svg overflow="visible" x="18.117" y="19.707"><path d="M4.047-1.844c0-.11-.297-.234-.344-.234-.14 0-.344.172-.39.344-.11.406-.235 1.359-.907 1.359-.14 0-.094.063-.094-.219 0-.312.157-.75.376-1.328l.703-1.937c.109-.297.14-.391.14-.61 0-.61-.578-1.062-1.047-1.062-1.093 0-1.687 1.89-1.687 1.953 0 .11.297.25.36.25.14 0 .343-.172.39-.344.094-.375.219-1.36.922-1.36.25 0 .062.095.062.22 0 .312-.062.515-.156.734l-.953 2.594c-.094.265-.094.421-.094.53 0 .688.656 1.079 1.047 1.079 1.11 0 1.672-1.922 1.672-1.969zm.312-5.578c0-.328-.421-.61-.656-.61-.36 0-.89.47-.89.813 0 .328.437.61.671.61.36 0 .875-.454.875-.813zm0 0"/></svg><svg overflow="visible" x="21.704" y="19.707"><path d="M5.64-1.39c0-.079-.28-.313-.343-.313a.51.51 0 00-.281.156c-.625.86-1.391 1.172-2 1.172-.797 0-.72-.813-.72-1.203 0-.531.079-.86.173-1.188h.281c.422 0 2.844-.14 2.844-1.64 0-.547-.625-1.125-1.328-1.125-1.235 0-3.094 1.343-3.094 3.453C1.172-.875 1.984.125 3 .125c1.484 0 2.64-1.344 2.64-1.516zm-.827-3.032c0 1.281-1.782 1.14-2.172 1.14h-.032c.438-1.765 1.438-1.75 1.641-1.75.484 0 .563.204.563.61zm0 0"/></svg><svg overflow="visible" x="27.083" y="19.707"><path d="M5.922-4.703c0-.61-.984-.828-1.313-.828-.562 0-1.14.297-1.578.922l.297.093c-.094-.703-.797-1.015-1.11-1.015-.28 0-.78.25-1.14 1-.062.11.031 1.047.031 1.047l-.312-.094c0 .094.25.25.36.25.14 0 .327-.156.39-.422.187-.703.234-1.281.64-1.281.313 0 .126.218.126.36 0 .218-.047.484-.094.655L1.344-.53c-.047.172-.047.187-.047.234 0 .14.281.422.5.422.266 0 .562-.36.625-.563l.765-3.109c.047-.14.391-1.484 1.407-1.484.062 0 .265-.032.297-.016.171-.031-.235.281-.235.578 0 .25.375.469.563.469.203 0 .703-.281.703-.703zm0 0"/></svg><svg overflow="visible" x="32.021" y="19.707"><path d="M4.156 2.719c0-.047-.078-.172-.11-.203-1.234-.922-2-3.22-2-5.141v-1c0-1.906.767-4.203 2-5.14a.457.457 0 00.11-.188c0-.063-.25-.25-.312-.25a1.01 1.01 0 00-.203.062C2.312-8.156 1-5.67 1-3.625v1C1-.578 2.313 1.906 3.64 2.906c.016.016.188.063.204.063.062 0 .312-.203.312-.25zm0 0"/></svg><svg overflow="visible" x="36.672" y="19.707"><path d="M6.266-4.656c0-.36-.47-.89-1-.89-.344 0-1.032.124-1.891 1.093-.406.453-.734.89-.938.969l1.188-4.813-.063.094s-.124-.36-.28-.36c-.282 0-1.157.094-1.47.126-.093.015-.421.156-.421.374 0 .141.312.266.484.266.578 0 .39-.047.39.078l-.03.235L.5-.594c-.047.156-.047.188-.047.266 0 .266.438.453.547.453.156 0 .469-.14.547-.281.062-.11.656-2.406.687-2.563.25.016 1.032.078 1.032.86 0 .093 0 .14-.032.25-.03.156-.062.296-.062.421 0 .704.687 1.313 1.312 1.313.36 0 .813-.219 1.079-.656.296-.531.421-1.219.421-1.219l.063-.094c0-.11-.297-.25-.328-.25-.125 0-.344.188-.375.344C5.109-.875 5.03-.39 4.5-.39c-.219 0-.188 0-.188-.438 0-.203.047-.469.094-.672.047-.203.047-.25.047-.36 0-.78-.937-1.265-1.531-1.343.078-.031.453-.422.734-.703.578-.64 1-1.11 1.578-1.11.079 0-.062-.046.016 0 .234.032.11 0 .203.063.016.016.016.031-.172-.156-.218.015-.531.609-.531.765 0 .188.344.547.672.547.297 0 .844-.406.844-.86zm0 0"/></svg><svg overflow="visible" x="43.068" y="19.707"><path d="M2.625-.14c0-.797-.5-1.391-.969-1.391-.39 0-.828.437-.828.765 0 .329.438.766.828.766.157 0 .438-.078.563-.188l.047-.046s-.313-.078-.313.093c0 .875-.344 1.5-.75 1.891-.125.14-.187.266-.187.297 0 .078.265.265.328.265.125 0 1.281-1.062 1.281-2.453zm0 0"/></svg><svg overflow="visible" x="48.388" y="19.707"><path d="M4.14-5.156c0-.125-.312-.266-.53-.266H2.78c.39-1.562.453-1.797.453-1.875 0-.203-.328-.453-.53-.453-.032 0-.579.14-.688.563l-.422 1.765H.64c-.25 0-.563.14-.563.36 0 .156.297.28.531.28h.813C.594-1.515.547-1.311.547-1.093c0 .64.656 1.219 1.312 1.219 1.22 0 2.079-1.875 2.079-1.969 0-.11-.282-.25-.329-.25-.109 0-.328.172-.375.297C2.72-.547 2.281-.39 1.875-.39c-.25 0-.172-.03-.172-.421 0-.282.016-.375.063-.579l.859-3.39h.953c.25 0 .563-.125.563-.375zm0 0"/></svg><svg overflow="visible" x="52.703" y="19.707"><path d="M3.64-2.625v-1c0-2.047-1.328-4.531-2.64-5.516a.774.774 0 00-.203-.062c-.063 0-.313.187-.313.25 0 .031.079.172.094.187 1.25.938 2.016 3.235 2.016 5.141v1c0 1.922-.766 4.219-2.016 5.14-.015.032-.094.157-.094.204 0 .047.25.25.313.25A.774.774 0 001 2.906c1.313-1 2.64-3.484 2.64-5.531zm0 0"/></svg><svg overflow="visible" x="60.678" y="19.707"><path d="M8.828-4.281c0-.125-.312-.375-.437-.375H.906c-.125 0-.437.25-.437.375 0 .14.312.375.437.375h7.485c.125 0 .437-.235.437-.375zm0 2.328c0-.14-.312-.375-.437-.375H.906c-.125 0-.437.234-.437.375 0 .125.312.36.437.36h7.485c.125 0 .437-.235.437-.36zm0 0"/></svg><svg overflow="visible" x="79.397" y="5.875"><path d="M4.953-3.266c0-.28-.406-.75-.844-.75-.484 0-1.062.391-1.5.797-.343.328-.468.531-.546.578l.765-3.109c-.062.125-.031.016-.031.016l.062-.125c0-.032-.234-.266-.343-.266-.157 0-.86.063-1.063.078-.078.016-.39.172-.39.36 0 .109.312.265.421.265.407 0 .188-.094.188-.031 0 .062-.016.11-.031.187L.453-.53c-.031.156.313.312.313.312L.422-.344c0 .125.312.422.484.422.235 0 .547-.328.594-.531-.047.11.39-1.484.375-1.422.422.047.703.078.703.516 0 .03 0 .078-.031.156-.031.125-.031.172-.031.266 0 .593.703 1.015 1.109 1.015.813 0 1.203-1.312 1.203-1.312l.063-.125c0-.11-.313-.266-.344-.266-.11 0-.328.203-.375.36-.11.359-.125.796-.531.796-.22 0-.079-.047-.079-.281 0-.14 0-.156.047-.375a.784.784 0 00.047-.25c0-.75-1.219-1.031-1.578-1.047l.156.266c.235-.14.547-.422.688-.547.422-.406.703-.75 1.172-.75.11 0 .062-.016-.047-.156-.031 0-.313.437-.313.562 0 .188.344.469.532.469.234 0 .687-.344.687-.688zm0 0"/></svg><svg overflow="visible" x="73.306" y="19.707"><path d="M16.578 1.297h-.453c-.516 1.375-1.578 2.047-2.953 2.406-.25.063-1.422.375-3.719.375H2.578l5.89-6.906c.079-.094.157-.235.157-.297l-.047.094s0-.25-.094-.36l-5.406-7.39h6.25c1.61 0 2.703.172 2.797.187.656.094 1.547.266 2.5.86.297.203 1.047.64 1.516 1.734h.687l-1.562-3.625H1c-.266 0-.422.047-.547.297.016-.047.016.187.016.328L6.78-2.36.656 4.813c-.125.141.156.407.156.407l-.328-.11c0 .141.297.266.516.266h14.281l1.531-4.078zm0 0"/></svg><svg overflow="visible" x="74.611" y="32.64"><path d="M2.922-5.39c0-.141-.313-.485-.547-.485-.219 0-.672.375-.672.625 0 .14.313.469.547.469.234 0 .672-.39.672-.61zm.219 4.03c0-.109-.313-.265-.344-.265-.11 0-.328.203-.375.297-.188.672-.344.86-.672.86-.172 0 0 .046 0-.141 0-.188.063-.344.14-.532l.266-.671.406-1.063a.794.794 0 00.047-.266c0-.39-.546-.875-1-.875-.828 0-1.421 1.297-1.421 1.438 0 .11.328.281.343.281.125 0 .344-.203.36-.297.218-.719.375-.86.687-.86.14 0 0-.093 0 .126 0 .203-.047.328-.25.844L.797-1.141c-.031.11-.078.22-.078.36 0 .39.547.86 1 .86.843 0 1.422-1.313 1.422-1.438zm0 0"/></svg><svg overflow="visible" x="77.992" y="32.64"><path d="M6.25-3.063c0-.093-.281-.328-.375-.328H.641c-.094 0-.375.235-.375.329 0 .093.28.328.375.328h5.234c.094 0 .375-.235.375-.329zm0 1.626c0-.094-.281-.329-.375-.329H.641c-.094 0-.375.235-.375.329 0 .093.28.328.375.328h5.234c.094 0 .375-.235.375-.329zm0 0"/></svg><svg overflow="visible" x="84.503" y="32.64"><path d="M4.531-2.828c0-.922-.172-1.688-.562-2.281-.266-.391-.922-.766-1.594-.766C.437-5.875.219-3.437.219-2.828c0 .594.218 3 2.156 3 1.953 0 2.156-2.406 2.156-3zm-1.187-.11c0 .626 0 1.235-.11 1.766-.156.766-.515.781-.859.781-.375 0-.688-.062-.844-.75-.125-.5-.125-1.171-.125-1.796 0-.61 0-1.25.125-1.704.172-.671.5-.687.844-.687.453 0 .688.125.828.61.14.452.14 1.046.14 1.78zm0 0"/></svg><svg overflow="visible" x="110.652" y="19.707"><path d="M7.953-2.922c0-.125-.156-.36-.297-.36-.11 0-.297.22-.297.313C7.25-1.079 6.031-.39 4.875-.39c-.828 0-2.969-.343-2.969-3.843C1.906-7.688 4-8.063 4.86-8.063c1.266 0 2.188.922 2.438 2.704.016.14.187.328.328.328.172 0 .328-.188.328-.422v-2.828c0-.219-.156-.438-.281-.438-.063 0-.203.078-.266.203l-.5.782C6.5-8.25 5.578-8.72 4.72-8.72 2.53-8.719.484-6.672.484-4.234.484-1.75 2.563.25 4.72.25c1.968 0 3.234-1.86 3.234-3.172zm0 0"/></svg><svg overflow="visible" x="119.105" y="15.319"><path d="M2.922-5.39c0-.141-.313-.485-.547-.485-.219 0-.672.375-.672.625 0 .14.313.469.547.469.234 0 .672-.39.672-.61zm.219 4.03c0-.109-.313-.265-.344-.265-.11 0-.328.203-.375.297-.188.672-.344.86-.672.86-.172 0 0 .046 0-.141 0-.188.063-.344.14-.532l.266-.671.406-1.063a.794.794 0 00.047-.266c0-.39-.546-.875-1-.875-.828 0-1.421 1.297-1.421 1.438 0 .11.328.281.343.281.125 0 .344-.203.36-.297.218-.719.375-.86.687-.86.14 0 0-.093 0 .126 0 .203-.047.328-.25.844L.797-1.141c-.031.11-.078.22-.078.36 0 .39.547.86 1 .86.843 0 1.422-1.313 1.422-1.438zm0 0"/></svg><svg overflow="visible" x="119.105" y="23.123"><path d="M4.953-3.266c0-.28-.406-.75-.844-.75-.484 0-1.062.391-1.5.797-.343.328-.468.531-.546.578l.765-3.109c-.062.125-.031.016-.031.016l.062-.125c0-.032-.234-.266-.343-.266-.157 0-.86.063-1.063.078-.078.016-.39.172-.39.36 0 .109.312.265.421.265.407 0 .188-.094.188-.031 0 .062-.016.11-.031.187L.453-.53c-.031.156.313.312.313.312L.422-.344c0 .125.312.422.484.422.235 0 .547-.328.594-.531-.047.11.39-1.484.375-1.422.422.047.703.078.703.516 0 .03 0 .078-.031.156-.031.125-.031.172-.031.266 0 .593.703 1.015 1.109 1.015.813 0 1.203-1.312 1.203-1.312l.063-.125c0-.11-.313-.266-.344-.266-.11 0-.328.203-.375.36-.11.359-.125.796-.531.796-.22 0-.079-.047-.079-.281 0-.14 0-.156.047-.375a.784.784 0 00.047-.25c0-.75-1.219-1.031-1.578-1.047l.156.266c.235-.14.547-.422.688-.547.422-.406.703-.75 1.172-.75.11 0 .062-.016-.047-.156-.031 0-.313.437-.313.562 0 .188.344.469.532.469.234 0 .687-.344.687-.688zm0 0"/></svg><svg overflow="visible" x="111.738" y="23.207"><path d="M12.063.89c0-.046-.235-.203-.282-.203-.031 0-.203.047-.312.266-.281.781-.953 1.219-1.578 1.219H7.812c-.937 0-1.859.797-2.093 1.64h.406c-.234-.843-1.14-1.64-2.078-1.64H1.953c-.61 0-1.297-.438-1.578-1.219C.265.734.109.688.078.688c-.047 0-.281.156-.281.203v.03C.172 1.985 1.187 3.11 1.953 3.11h2.094c.922 0 1.61.422 1.61 1.282 0 .046.218.218.265.218.047 0 .281-.171.281-.218 0-.86.688-1.282 1.61-1.282H9.89c.765 0 1.78-1.125 2.156-2.187 0-.016.015-.031.015-.031zm0 0"/></svg><svg overflow="visible" x="92.562" y="36.957"><path d="M5.984-5.594H2.078c-.25 0-.476-.02-.672-.062-.043-.02-.074-.024-.093-.016-.024.024-.012.055.03.094a.493.493 0 01.157.25c.008.055.04.07.094.047.164-.032.363-.047.593-.047h4.844c.063-.008.098-.035.11-.078.007-.082-.18-.297-.563-.64-.055-.052-.101-.052-.14 0l-.204.312c-.093.093-.18.14-.25.14zm.829 4.985h-5.61c-.25 0-.48-.024-.687-.079-.043-.019-.075-.019-.094 0-.024.024-.012.047.031.079a.59.59 0 01.172.25c0 .054.023.074.078.062.164-.039.363-.062.594-.062h6.547c.07-.008.113-.036.125-.079 0-.082-.196-.296-.578-.64-.055-.04-.094-.04-.125 0l-.22.312c-.085.094-.163.149-.234.157zm0 0"/></svg><svg overflow="visible" x="100.931" y="36.957"><path d="M2.031-2.234v-3.422h1.172a.263.263 0 00.156-.063c.032-.05.02-.113-.03-.187a7.93 7.93 0 00-.376-.407c-.031-.03-.07-.03-.11 0l-.296.344c-.031.043-.063.063-.094.063H1.078c-.262 0-.492-.024-.687-.078-.043-.02-.075-.02-.094 0-.024.023-.012.054.031.093.082.063.133.141.156.235.008.054.04.07.094.047.164-.032.363-.047.594-.047h.469v3.547c-.563.187-.977.312-1.235.375-.062.011-.101.027-.11.046 0 .012.036.043.11.094.114.094.207.211.281.344.032.043.055.063.079.063.02-.008.046-.04.078-.094.062-.102.203-.196.422-.282a25.98 25.98 0 002-.953c.082-.03.113-.078.093-.14-.023-.051-.07-.063-.14-.031-.367.136-.762.289-1.188.453zM6.016-.86c.55.261 1.07.726 1.562 1.39.05.102.098.149.14.14.04-.01.095-.058.157-.14a.508.508 0 00.047-.328c-.024-.125-.156-.281-.406-.469-.344-.25-.813-.492-1.407-.734-.086-.04-.132-.035-.14.016-.032.054-.016.093.047.125zM4.219-4.875H7v2.234c0 .586-.016 1.032-.047 1.344-.012.094-.008.149.016.156.031 0 .164-.066.406-.203a.192.192 0 00.078-.156c-.031-.54-.055-1-.062-1.375v-1.86c0-.05.02-.1.062-.156a.365.365 0 01.219-.093c.05-.008.055-.036.016-.079a5.771 5.771 0 00-.438-.343c-.043-.032-.078-.024-.11.015l-.202.204a.209.209 0 01-.157.062h-1.5c.207-.344.39-.727.547-1.156h1.984a.263.263 0 00.157-.063c.031-.05.02-.113-.032-.187a7.696 7.696 0 00-.359-.39c-.043-.04-.086-.04-.125 0l-.281.327c-.043.043-.078.063-.11.063H4.047c-.25 0-.48-.02-.688-.063-.043-.031-.074-.035-.093-.015-.012.023 0 .054.03.093a.425.425 0 01.157.25c.02.043.05.059.094.047a4.48 4.48 0 01.594-.062h1.234c-.094.523-.195.906-.297 1.156H4.11c-.218-.164-.328-.25-.328-.25-.023 0-.027.027-.015.078.03.25.05.465.062.64v1.798c-.023.586-.043 1.148-.062 1.687 0 .106.015.164.046.172.02 0 .051-.008.094-.031.207-.145.313-.254.313-.328v-1.5zm1.61 1.688c0-.344.003-.567.015-.672.008-.051.082-.11.218-.172.063-.02.094-.04.094-.063 0-.02-.027-.047-.078-.078l-.594-.234c-.043-.02-.074-.02-.093 0-.012.011-.012.058 0 .14.02.344.035.704.046 1.079v.046c0 .856-.105 1.508-.312 1.954-.18.386-.492.726-.938 1.015-.43.281-.98.484-1.656.61-.074.019-.11.066-.11.14.009.07.063.102.157.094 1.438-.25 2.367-.785 2.797-1.61.29-.539.441-1.273.453-2.203zm0 0"/></svg><svg overflow="visible" x="109.299" y="36.957"><path d="M2.75-.828v-2.344h1.469c.062-.008.097-.035.11-.078.007-.082-.18-.297-.563-.64-.055-.04-.102-.04-.141 0l-.203.312c-.094.094-.18.148-.25.156H1.406c-.261 0-.492-.023-.687-.078-.043-.02-.074-.023-.094-.016-.023.032-.012.063.031.094a.493.493 0 01.156.25c.008.055.04.074.094.063.164-.04.364-.063.594-.063h.86v2.438a65.81 65.81 0 00-1.016.265c-.313.063-.59.102-.828.11-.055 0-.07.03-.047.093.07.106.18.282.328.532.031.039.078.039.14 0 .176-.125.399-.243.672-.344 1.133-.375 2.227-.754 3.282-1.14.05-.02.07-.052.062-.095-.012-.062-.047-.078-.11-.046-.679.156-1.374.336-2.093.53zm4.516.812c-.055.02-.168-.035-.344-.171-.543-.407-.922-.954-1.14-1.641-.25-.75-.454-1.805-.61-3.172h2.64c.07-.008.114-.035.125-.078 0-.082-.195-.297-.578-.64-.054-.052-.093-.052-.125 0l-.218.296c-.086.106-.168.156-.25.156h-1.61c-.105-.632-.105-1.054 0-1.265a.352.352 0 01.172-.157c.063-.007.094-.03.094-.062 0-.02-.024-.04-.063-.063A8.354 8.354 0 004.875-7c-.074-.02-.121-.023-.14-.016-.012.043.023.625.109 1.75h-3.64c-.25 0-.481-.02-.688-.062-.043-.02-.075-.024-.094-.016-.024.024-.012.055.031.094A.59.59 0 01.625-5c0 .055.023.07.078.047.164-.031.363-.047.594-.047h3.578c.133 1.5.29 2.54.469 3.11.187.593.472 1.105.86 1.53.405.446.831.758 1.28.938.176.07.282.094.313.063.02-.032.016-.079-.016-.141-.168-.344-.183-.93-.047-1.766.008-.093-.023-.14-.093-.14-.063 0-.102.043-.11.125a12.03 12.03 0 01-.156 1.078c-.023.117-.059.18-.11.187zM5.89-6.734c.343.312.566.636.671.968.02.106.063.157.125.157.051-.008.102-.079.157-.204.062-.164.082-.3.062-.406-.054-.207-.355-.414-.906-.625-.074-.031-.121-.031-.14 0-.024.043-.012.078.03.11zm0 0"/></svg><svg overflow="visible" x="117.668" y="36.957"><path d="M2.813-2.094C2.28-1.176 1.508-.422.5.172.445.192.43.227.453.282c.02.05.063.054.125.015.77-.332 1.55-.883 2.344-1.656.164-.164.3-.243.406-.235.063.012.11.008.14-.015.02-.02.009-.051-.03-.094a8.39 8.39 0 00-.516-.422c-.043-.031-.078-.02-.11.031zm2.562.266C6.258-1.36 6.883-.781 7.25-.094c.04.102.086.149.14.14.063-.023.11-.1.141-.25.04-.163.04-.3 0-.405-.136-.446-.824-.895-2.062-1.344-.074-.02-.117-.016-.125.016-.024.042-.012.078.031.109zM4.078-6.25c-.656.762-1.398 1.293-2.219 1.594-.023 0-.039.008-.046.015-.063.012-.079.055-.047.125.062.094.117.196.171.297 0 .043.036.059.11.047a13.452 13.452 0 012.875-.344C3.692-3.609 2.719-3.066 2-2.89a5.524 5.524 0 00-.328.047c-.074 0-.102.028-.078.078.07.125.129.246.172.36 0 .043.023.054.078.031.445-.082 1.238-.156 2.375-.219v2.25c0 .137-.04.242-.11.313-.043.05-.289.066-.734.047-.219-.032-.336-.012-.344.062-.011.05.016.082.078.094.344.07.57.144.688.219.05.03.086.129.11.296 0 .051.03.063.093.032.207-.055.363-.137.469-.25.093-.106.14-.274.14-.5v-2.594c0-.008.004-.016.016-.016.332-.03.992-.097 1.984-.203.164.211.317.453.454.735.019.105.062.152.125.14.062-.008.113-.082.156-.218.05-.176.062-.313.031-.407-.105-.394-.664-.804-1.672-1.234-.062-.04-.11-.04-.14 0-.024.043-.012.074.03.094.352.242.634.476.845.703-1.243.062-2.493.133-3.75.203.613-.27 1.492-.766 2.64-1.485.656-.437 1.063-.648 1.219-.64.07.023.113.012.125-.031.02-.032.004-.067-.047-.11a5.91 5.91 0 00-.469-.39c-.043-.02-.078-.008-.11.03-.28.243-.558.477-.827.704-.867-.02-1.758.016-2.672.11a13.49 13.49 0 001-.626c.57-.425.945-.629 1.125-.609.05 0 .082-.016.094-.047 0-.031-.016-.062-.047-.094a6.366 6.366 0 00-.422-.25c1.582-.27 2.57-.336 2.969-.203.07.032.113.04.125.016.02-.02.015-.055-.016-.11a2.293 2.293 0 01-.328-.515c-.012-.05-.055-.055-.125-.016-1.324.418-3.211.684-5.656.797-.063 0-.094.031-.094.094 0 .055.039.078.125.078.883 0 1.812-.04 2.781-.125zm0 0"/></svg><svg overflow="visible" x="126.036" y="36.957"><path d="M6.766-2.125c.218-.656.351-1.563.406-2.719h.687c.082 0 .13-.02.141-.062.02-.051 0-.117-.063-.203a9.569 9.569 0 00-.359-.422c-.043-.04-.09-.04-.14 0l-.282.343a.244.244 0 01-.187.094H5.266L5.594-6c.082-.313.148-.5.203-.563.039-.05.086-.078.14-.078.051 0 .079-.015.079-.046 0-.032-.04-.063-.11-.094A4.247 4.247 0 005.453-7c-.105-.04-.156-.016-.156.078.02.25-.074.774-.281 1.563-.22.804-.493 1.492-.813 2.062-.043.063-.043.106 0 .125.04.043.082.027.125-.047.25-.406.457-.785.625-1.14.195 1.46.488 2.527.875 3.203C5.234-.426 4.438.125 3.438.5c-.086.02-.118.066-.094.14.02.083.078.11.172.079 1.007-.356 1.843-.875 2.5-1.563.28.43.707.867 1.28 1.328.04.04.071.051.095.032a.609.609 0 01.296-.188.479.479 0 01.297-.031c.07.008.114-.008.125-.047.02-.043.008-.074-.03-.094a2.172 2.172 0 01-.11-.062C7.28-.22 6.727-.66 6.312-1.234c.188-.282.336-.579.454-.891zm-.454.14a2.18 2.18 0 01-.218.438 9.57 9.57 0 01-.813-2.266c-.062-.289-.117-.578-.156-.859a.115.115 0 01-.016-.062.274.274 0 01.047-.11h1.532c.019 1.23-.106 2.184-.375 2.86zM.845-6.64c.195.2.344.5.437.907.02.117.047.18.078.187.04 0 .102-.035.188-.11.094-.062.144-.16.156-.296 0-.063-.043-.149-.125-.266a4.189 4.189 0 00-.594-.531C.922-6.8.867-6.805.828-6.766c-.031.043-.027.086.016.125zm2.672-.171c-.094.43-.227.808-.391 1.14-.055.074-.055.133 0 .172.05.043.098.031.14-.031.22-.27.383-.492.5-.672.083-.188.196-.274.344-.266.032 0 .051-.008.063-.031.008-.02-.016-.05-.078-.094-.324-.207-.508-.3-.547-.281-.024 0-.031.023-.031.063zM2.187-5.22H1.079c-.262 0-.492-.023-.687-.078-.043-.02-.075-.02-.094 0-.024.024-.012.055.031.094.082.062.133.14.156.234.008.055.04.07.094.047.164-.031.363-.047.594-.047h.687c-.336.555-.843 1.07-1.53 1.547-.063.043-.075.102-.032.172.02.031.07.031.156 0 .875-.52 1.445-1.047 1.719-1.578a.53.53 0 01.062-.125c0-.02.02-.024.063-.016.02 0 .023.016.015.047-.042.125-.09.258-.14.39a15.34 15.34 0 00-.031 1.11c-.012.117.02.14.093.078.157-.094.27-.164.344-.219.031-.019.047-.05.047-.093-.023-.25-.04-.52-.047-.813.363.157.723.453 1.078.89.07.106.125.153.156.142.032-.008.07-.063.126-.157.062-.094.07-.203.03-.328-.062-.226-.523-.473-1.374-.734h-.016v-.313h1.813a.236.236 0 00.14-.062c.04-.051.032-.114-.031-.188-.105-.125-.227-.258-.36-.406-.042-.031-.077-.031-.109 0l-.297.344c-.03.043-.07.062-.109.062H2.578v-.656c0-.332.02-.55.063-.656.02-.051.078-.098.171-.14.083-.052.086-.099.016-.141a5.486 5.486 0 00-.594-.22c-.062-.019-.09.016-.078.11.02.262.031.61.031 1.047v.656zM1.095-1.14c.633.125 1.11.278 1.422.454-.461.48-1.09.859-1.891 1.14C.52.461.469.508.469.593c.008.083.07.114.187.095C1.594.406 2.328 0 2.86-.532c.27.106.532.29.782.548.132.144.238.191.312.14.07-.043.102-.136.094-.281A.466.466 0 003.89-.5c-.063-.05-.278-.145-.641-.281a.743.743 0 00-.14-.047c.206-.27.382-.586.53-.953.094-.258.239-.41.438-.453.063-.02.082-.051.063-.094-.336-.344-.516-.516-.547-.516-.031 0-.059.024-.078.063l-.22.281a.377.377 0 01-.14.016h-.969.016c.113-.27.227-.422.344-.454.05-.019.082-.046.094-.078 0-.02-.028-.039-.079-.062a2.562 2.562 0 00-.453-.203c-.043-.008-.07 0-.078.031-.094.281-.187.54-.281.766h-.672a3.25 3.25 0 01-.687-.063c-.043-.02-.075-.023-.094-.015-.024.023-.012.054.031.093a.493.493 0 01.156.25c.008.055.04.07.094.047.164-.031.363-.047.594-.047h.469a4.839 4.839 0 01-.563.906c-.055.055-.074.102-.062.141 0 .024.023.031.078.031zm2.234-1.078c-.156.512-.355.934-.594 1.266a9.282 9.282 0 00-1.203-.313c.207-.332.39-.648.547-.953zm0 0"/></svg><svg overflow="visible" x="134.405" y="36.957"><path d="M2.031-2.234v-3.422h1.172a.263.263 0 00.156-.063c.032-.05.02-.113-.03-.187a7.93 7.93 0 00-.376-.407c-.031-.03-.07-.03-.11 0l-.296.344c-.031.043-.063.063-.094.063H1.078c-.262 0-.492-.024-.687-.078-.043-.02-.075-.02-.094 0-.024.023-.012.054.031.093.082.063.133.141.156.235.008.054.04.07.094.047.164-.032.363-.047.594-.047h.469v3.547c-.563.187-.977.312-1.235.375-.062.011-.101.027-.11.046 0 .012.036.043.11.094.114.094.207.211.281.344.032.043.055.063.079.063.02-.008.046-.04.078-.094.062-.102.203-.196.422-.282a25.98 25.98 0 002-.953c.082-.03.113-.078.093-.14-.023-.051-.07-.063-.14-.031-.367.136-.762.289-1.188.453zM6.016-.86c.55.261 1.07.726 1.562 1.39.05.102.098.149.14.14.04-.01.095-.058.157-.14a.508.508 0 00.047-.328c-.024-.125-.156-.281-.406-.469-.344-.25-.813-.492-1.407-.734-.086-.04-.132-.035-.14.016-.032.054-.016.093.047.125zM4.219-4.875H7v2.234c0 .586-.016 1.032-.047 1.344-.012.094-.008.149.016.156.031 0 .164-.066.406-.203a.192.192 0 00.078-.156c-.031-.54-.055-1-.062-1.375v-1.86c0-.05.02-.1.062-.156a.365.365 0 01.219-.093c.05-.008.055-.036.016-.079a5.771 5.771 0 00-.438-.343c-.043-.032-.078-.024-.11.015l-.202.204a.209.209 0 01-.157.062h-1.5c.207-.344.39-.727.547-1.156h1.984a.263.263 0 00.157-.063c.031-.05.02-.113-.032-.187a7.696 7.696 0 00-.359-.39c-.043-.04-.086-.04-.125 0l-.281.327c-.043.043-.078.063-.11.063H4.047c-.25 0-.48-.02-.688-.063-.043-.031-.074-.035-.093-.015-.012.023 0 .054.03.093a.425.425 0 01.157.25c.02.043.05.059.094.047a4.48 4.48 0 01.594-.062h1.234c-.094.523-.195.906-.297 1.156H4.11c-.218-.164-.328-.25-.328-.25-.023 0-.027.027-.015.078.03.25.05.465.062.64v1.798c-.023.586-.043 1.148-.062 1.687 0 .106.015.164.046.172.02 0 .051-.008.094-.031.207-.145.313-.254.313-.328v-1.5zm1.61 1.688c0-.344.003-.567.015-.672.008-.051.082-.11.218-.172.063-.02.094-.04.094-.063 0-.02-.027-.047-.078-.078l-.594-.234c-.043-.02-.074-.02-.093 0-.012.011-.012.058 0 .14.02.344.035.704.046 1.079v.046c0 .856-.105 1.508-.312 1.954-.18.386-.492.726-.938 1.015-.43.281-.98.484-1.656.61-.074.019-.11.066-.11.14.009.07.063.102.157.094 1.438-.25 2.367-.785 2.797-1.61.29-.539.441-1.273.453-2.203zm0 0"/></svg><svg overflow="visible" x="144.766" y="19.707"><path d="M2.484-3.125c0-.344-.468-.766-.828-.766-.343 0-.828.422-.828.766 0 .36.485.766.828.766.36 0 .828-.407.828-.766zm0 0"/></svg><svg overflow="visible" x="153.972" y="19.707"><path d="M4.156 2.719c0-.047-.078-.172-.11-.203-1.234-.922-2-3.22-2-5.141v-1c0-1.906.767-4.203 2-5.14a.457.457 0 00.11-.188c0-.063-.25-.25-.312-.25a1.01 1.01 0 00-.203.062C2.312-8.156 1-5.67 1-3.625v1C1-.578 2.313 1.906 3.64 2.906c.016.016.188.063.204.063.062 0 .312-.203.312-.25zm0 0"/></svg><svg overflow="visible" x="158.622" y="19.707"><path d="M5.203-.125v-.516h-.578c-1.078 0-.922 0-.922-.437v-6.703c0-.282-.187-.438-.578-.438-.766.797-1.672.766-2.266.766v.625c.438 0 1.282-.031 1.563-.172v5.922c0 .437.172.437-.906.437H.937v.672C1.547-.03 2.595-.03 3.079-.03c.469 0 1.516 0 2.125.062zm0 0"/></svg><svg overflow="visible" x="167.254" y="19.707"><path d="M8.828-3.125c0-.125-.312-.36-.437-.36H.906c-.125 0-.437.235-.437.36 0 .14.312.375.437.375h7.485c.125 0 .437-.234.437-.375zm0 0"/></svg><svg overflow="visible" x="179.221" y="19.707"><path d="M4.14-5.156c0-.125-.312-.266-.53-.266H2.78c.39-1.562.453-1.797.453-1.875 0-.203-.328-.453-.53-.453-.032 0-.579.14-.688.563l-.422 1.765H.64c-.25 0-.563.14-.563.36 0 .156.297.28.531.28h.813C.594-1.515.547-1.311.547-1.093c0 .64.656 1.219 1.312 1.219 1.22 0 2.079-1.875 2.079-1.969 0-.11-.282-.25-.329-.25-.109 0-.328.172-.375.297C2.72-.547 2.281-.39 1.875-.39c-.25 0-.172-.03-.172-.421 0-.282.016-.375.063-.579l.859-3.39h.953c.25 0 .563-.125.563-.375zm0 0"/></svg><svg overflow="visible" x="183.537" y="19.707"><path d="M3.64-2.625v-1c0-2.047-1.328-4.531-2.64-5.516a.774.774 0 00-.203-.062c-.063 0-.313.187-.313.25 0 .031.079.172.094.187 1.25.938 2.016 3.235 2.016 5.141v1c0 1.922-.766 4.219-2.016 5.14-.015.032-.094.157-.094.204 0 .047.25.25.313.25A.774.774 0 001 2.906c1.313-1 2.64-3.484 2.64-5.531zm0 0"/></svg><svg overflow="visible" x="188.189" y="16.252"><path d="M4.953-3.266c0-.28-.406-.75-.844-.75-.484 0-1.062.391-1.5.797-.343.328-.468.531-.546.578l.765-3.109c-.062.125-.031.016-.031.016l.062-.125c0-.032-.234-.266-.343-.266-.157 0-.86.063-1.063.078-.078.016-.39.172-.39.36 0 .109.312.265.421.265.407 0 .188-.094.188-.031 0 .062-.016.11-.031.187L.453-.53c-.031.156.313.312.313.312L.422-.344c0 .125.312.422.484.422.235 0 .547-.328.594-.531-.047.11.39-1.484.375-1.422.422.047.703.078.703.516 0 .03 0 .078-.031.156-.031.125-.031.172-.031.266 0 .593.703 1.015 1.109 1.015.813 0 1.203-1.312 1.203-1.312l.063-.125c0-.11-.313-.266-.344-.266-.11 0-.328.203-.375.36-.11.359-.125.796-.531.796-.22 0-.079-.047-.079-.281 0-.14 0-.156.047-.375a.784.784 0 00.047-.25c0-.75-1.219-1.031-1.578-1.047l.156.266c.235-.14.547-.422.688-.547.422-.406.703-.75 1.172-.75.11 0 .062-.016-.047-.156-.031 0-.313.437-.313.562 0 .188.344.469.532.469.234 0 .687-.344.687-.688zm0 0"/></svg><svg overflow="visible" x="193.269" y="16.252"><path d="M6.25-2.25c0-.094-.281-.328-.375-.328H.641c-.094 0-.375.234-.375.328s.28.328.375.328h5.234c.094 0 .375-.234.375-.328zm0 0"/></svg><svg overflow="visible" x="199.78" y="16.252"><path d="M2.922-5.39c0-.141-.313-.485-.547-.485-.219 0-.672.375-.672.625 0 .14.313.469.547.469.234 0 .672-.39.672-.61zm.219 4.03c0-.109-.313-.265-.344-.265-.11 0-.328.203-.375.297-.188.672-.344.86-.672.86-.172 0 0 .046 0-.141 0-.188.063-.344.14-.532l.266-.671.406-1.063a.794.794 0 00.047-.266c0-.39-.546-.875-1-.875-.828 0-1.421 1.297-1.421 1.438 0 .11.328.281.343.281.125 0 .344-.203.36-.297.218-.719.375-.86.687-.86.14 0 0-.093 0 .126 0 .203-.047.328-.25.844L.797-1.141c-.031.11-.078.22-.078.36 0 .39.547.86 1 .86.843 0 1.422-1.313 1.422-1.438zm0 0"/></svg><svg overflow="visible" x="206.316" y="19.707"><path d="M2.484-3.125c0-.344-.468-.766-.828-.766-.343 0-.828.422-.828.766 0 .36.485.766.828.766.36 0 .828-.407.828-.766zm0 0"/></svg><svg overflow="visible" x="212.294" y="19.707"><path d="M4.14-5.156c0-.125-.312-.266-.53-.266H2.78c.39-1.562.453-1.797.453-1.875 0-.203-.328-.453-.53-.453-.032 0-.579.14-.688.563l-.422 1.765H.64c-.25 0-.563.14-.563.36 0 .156.297.28.531.28h.813C.594-1.515.547-1.311.547-1.093c0 .64.656 1.219 1.312 1.219 1.22 0 2.079-1.875 2.079-1.969 0-.11-.282-.25-.329-.25-.109 0-.328.172-.375.297C2.72-.547 2.281-.39 1.875-.39c-.25 0-.172-.03-.172-.421 0-.282.016-.375.063-.579l.859-3.39h.953c.25 0 .563-.125.563-.375zm0 0"/></svg><svg overflow="visible" x="216.612" y="16.252"><path d="M2.922-5.39c0-.141-.313-.485-.547-.485-.219 0-.672.375-.672.625 0 .14.313.469.547.469.234 0 .672-.39.672-.61zm.219 4.03c0-.109-.313-.265-.344-.265-.11 0-.328.203-.375.297-.188.672-.344.86-.672.86-.172 0 0 .046 0-.141 0-.188.063-.344.14-.532l.266-.671.406-1.063a.794.794 0 00.047-.266c0-.39-.546-.875-1-.875-.828 0-1.421 1.297-1.421 1.438 0 .11.328.281.343.281.125 0 .344-.203.36-.297.218-.719.375-.86.687-.86.14 0 0-.093 0 .126 0 .203-.047.328-.25.844L.797-1.141c-.031.11-.078.22-.078.36 0 .39.547.86 1 .86.843 0 1.422-1.313 1.422-1.438zm0 0"/></svg><svg overflow="visible" x="153.98" y="22.672"><path d="M12.172 3.375V2.031H6.094C3.359 2.031.875 1.766.484.72.47.656.234.484.156.484c-.078 0-.36.204-.36.282 0 .015.063.14.032.125.406 1.093 3.235 2.625 6.266 2.625h6.078zm0 0"/></svg><svg overflow="visible" x="164.68" y="22.672"><path d="M12.078 3.375V2.031H-.203v1.485h12.281zm0 0"/></svg><svg overflow="visible" x="175.272" y="22.672"><path d="M23.938 2.031h-6.032c-2.984 0-5.468 1.094-5.937 1.906C11.484 3.125 9 2.032 6.03 2.032H-.203v1.485H6.03c3.094 0 5.578.218 5.578 1.25 0 .093.266.296.36.296.078 0 .344-.203.344-.296 0-1.032 2.484-1.25 5.593-1.25h6.235V2.03zm0 0"/></svg><svg overflow="visible" x="197.939" y="22.672"><path d="M12.078 3.375V2.031H-.203v1.485h12.281zm0 0"/></svg><svg overflow="visible" x="208.532" y="22.672"><path d="M12.156.766c0-.079-.265-.282-.344-.282-.078 0-.328.172-.343.235-.39 1.047-2.86 1.312-5.594 1.312H-.203v1.485h6.078c3.031 0 5.844-1.532 6.25-2.625-.031.015.031-.11.031-.125zm0 0"/></svg><svg overflow="visible" x="170.498" y="36.819"><path d="M3.297-5.64c.02-.02.05-.048.094-.079h3.03c-1.167 1.23-3 2.18-5.5 2.844-.073.023-.105.059-.093.11.008.054.055.07.14.046 2.22-.383 4.079-1.254 5.579-2.61.27-.25.555-.398.86-.452.081-.008.093-.04.03-.094-.292-.227-.453-.348-.484-.36-.023 0-.047.012-.078.032l-.313.187c-.023.024-.054.032-.093.032H3.687c.395-.407.649-.602.766-.594.008 0 .035.008.078.016.082.011.133 0 .157-.032.019-.02.003-.05-.047-.093a5.453 5.453 0 00-.532-.375c-.03-.02-.07-.008-.109.03A8.925 8.925 0 01.734-4.218c-.054.032-.07.074-.046.125.019.055.066.059.14.016.8-.375 1.586-.863 2.36-1.469.312.48.484.93.515 1.344 0 .105.024.168.078.187.063.012.133-.039.219-.156.102-.156.156-.285.156-.39 0-.258-.289-.618-.86-1.079zM6.78-2.673H4.125c.332-.344.563-.5.688-.469.125 0 .19-.004.203-.015 0-.02-.024-.051-.063-.094a6.003 6.003 0 00-.516-.39c-.03-.02-.07-.005-.109.046A10.11 10.11 0 01.703-.609C.648-.586.633-.551.656-.5c.008.055.055.063.14.031.708-.32 1.364-.687 1.97-1.094a26.4 26.4 0 001.078-.859h3.031a8.377 8.377 0 01-3.438 2.36C2.633.195 1.766.383.829.5.742.5.707.54.718.625c0 .094.048.129.141.11C2.785.534 4.27.112 5.313-.532c.57-.364 1.164-.875 1.78-1.531.22-.239.391-.344.516-.313a.165.165 0 00.079-.016c.019-.02.007-.054-.032-.109-.242-.3-.398-.457-.468-.469-.012 0-.032.012-.063.031l-.219.22c-.023.023-.062.038-.125.046zM3.5-1.953c.25.5.36.953.328 1.36-.012.105.008.163.063.171.05.024.129-.02.234-.125.125-.133.191-.254.203-.36.031-.25-.2-.613-.687-1.093-.055-.05-.094-.066-.125-.047-.032.024-.04.055-.016.094zm0 0"/></svg><svg overflow="visible" x="178.867" y="36.819"><path d="M2.031-2.234v-3.422h1.172a.263.263 0 00.156-.063c.032-.05.02-.113-.03-.187a7.93 7.93 0 00-.376-.407c-.031-.03-.07-.03-.11 0l-.296.344c-.031.043-.063.063-.094.063H1.078c-.262 0-.492-.024-.687-.078-.043-.02-.075-.02-.094 0-.024.023-.012.054.031.093.082.063.133.141.156.235.008.054.04.07.094.047.164-.032.363-.047.594-.047h.469v3.547c-.563.187-.977.312-1.235.375-.062.011-.101.027-.11.046 0 .012.036.043.11.094.114.094.207.211.281.344.032.043.055.063.079.063.02-.008.046-.04.078-.094.062-.102.203-.196.422-.282a25.98 25.98 0 002-.953c.082-.03.113-.078.093-.14-.023-.051-.07-.063-.14-.031-.367.136-.762.289-1.188.453zM6.016-.86c.55.261 1.07.726 1.562 1.39.05.102.098.149.14.14.04-.01.095-.058.157-.14a.508.508 0 00.047-.328c-.024-.125-.156-.281-.406-.469-.344-.25-.813-.492-1.407-.734-.086-.04-.132-.035-.14.016-.032.054-.016.093.047.125zM4.219-4.875H7v2.234c0 .586-.016 1.032-.047 1.344-.012.094-.008.149.016.156.031 0 .164-.066.406-.203a.192.192 0 00.078-.156c-.031-.54-.055-1-.062-1.375v-1.86c0-.05.02-.1.062-.156a.365.365 0 01.219-.093c.05-.008.055-.036.016-.079a5.771 5.771 0 00-.438-.343c-.043-.032-.078-.024-.11.015l-.202.204a.209.209 0 01-.157.062h-1.5c.207-.344.39-.727.547-1.156h1.984a.263.263 0 00.157-.063c.031-.05.02-.113-.032-.187a7.696 7.696 0 00-.359-.39c-.043-.04-.086-.04-.125 0l-.281.327c-.043.043-.078.063-.11.063H4.047c-.25 0-.48-.02-.688-.063-.043-.031-.074-.035-.093-.015-.012.023 0 .054.03.093a.425.425 0 01.157.25c.02.043.05.059.094.047a4.48 4.48 0 01.594-.062h1.234c-.094.523-.195.906-.297 1.156H4.11c-.218-.164-.328-.25-.328-.25-.023 0-.027.027-.015.078.03.25.05.465.062.64v1.798c-.023.586-.043 1.148-.062 1.687 0 .106.015.164.046.172.02 0 .051-.008.094-.031.207-.145.313-.254.313-.328v-1.5zm1.61 1.688c0-.344.003-.567.015-.672.008-.051.082-.11.218-.172.063-.02.094-.04.094-.063 0-.02-.027-.047-.078-.078l-.594-.234c-.043-.02-.074-.02-.093 0-.012.011-.012.058 0 .14.02.344.035.704.046 1.079v.046c0 .856-.105 1.508-.312 1.954-.18.386-.492.726-.938 1.015-.43.281-.98.484-1.656.61-.074.019-.11.066-.11.14.009.07.063.102.157.094 1.438-.25 2.367-.785 2.797-1.61.29-.539.441-1.273.453-2.203zm0 0"/></svg><svg overflow="visible" x="187.235" y="36.819"><path d="M2.75-.828v-2.344h1.469c.062-.008.097-.035.11-.078.007-.082-.18-.297-.563-.64-.055-.04-.102-.04-.141 0l-.203.312c-.094.094-.18.148-.25.156H1.406c-.261 0-.492-.023-.687-.078-.043-.02-.074-.023-.094-.016-.023.032-.012.063.031.094a.493.493 0 01.156.25c.008.055.04.074.094.063.164-.04.364-.063.594-.063h.86v2.438a65.81 65.81 0 00-1.016.265c-.313.063-.59.102-.828.11-.055 0-.07.03-.047.093.07.106.18.282.328.532.031.039.078.039.14 0 .176-.125.399-.243.672-.344 1.133-.375 2.227-.754 3.282-1.14.05-.02.07-.052.062-.095-.012-.062-.047-.078-.11-.046-.679.156-1.374.336-2.093.53zm4.516.812c-.055.02-.168-.035-.344-.171-.543-.407-.922-.954-1.14-1.641-.25-.75-.454-1.805-.61-3.172h2.64c.07-.008.114-.035.125-.078 0-.082-.195-.297-.578-.64-.054-.052-.093-.052-.125 0l-.218.296c-.086.106-.168.156-.25.156h-1.61c-.105-.632-.105-1.054 0-1.265a.352.352 0 01.172-.157c.063-.007.094-.03.094-.062 0-.02-.024-.04-.063-.063A8.354 8.354 0 004.875-7c-.074-.02-.121-.023-.14-.016-.012.043.023.625.109 1.75h-3.64c-.25 0-.481-.02-.688-.062-.043-.02-.075-.024-.094-.016-.024.024-.012.055.031.094A.59.59 0 01.625-5c0 .055.023.07.078.047.164-.031.363-.047.594-.047h3.578c.133 1.5.29 2.54.469 3.11.187.593.472 1.105.86 1.53.405.446.831.758 1.28.938.176.07.282.094.313.063.02-.032.016-.079-.016-.141-.168-.344-.183-.93-.047-1.766.008-.093-.023-.14-.093-.14-.063 0-.102.043-.11.125a12.03 12.03 0 01-.156 1.078c-.023.117-.059.18-.11.187zM5.89-6.734c.343.312.566.636.671.968.02.106.063.157.125.157.051-.008.102-.079.157-.204.062-.164.082-.3.062-.406-.054-.207-.355-.414-.906-.625-.074-.031-.121-.031-.14 0-.024.043-.012.078.03.11zm0 0"/></svg><svg overflow="visible" x="195.604" y="36.819"><path d="M2.031-2.234v-3.422h1.172a.263.263 0 00.156-.063c.032-.05.02-.113-.03-.187a7.93 7.93 0 00-.376-.407c-.031-.03-.07-.03-.11 0l-.296.344c-.031.043-.063.063-.094.063H1.078c-.262 0-.492-.024-.687-.078-.043-.02-.075-.02-.094 0-.024.023-.012.054.031.093.082.063.133.141.156.235.008.054.04.07.094.047.164-.032.363-.047.594-.047h.469v3.547c-.563.187-.977.312-1.235.375-.062.011-.101.027-.11.046 0 .012.036.043.11.094.114.094.207.211.281.344.032.043.055.063.079.063.02-.008.046-.04.078-.094.062-.102.203-.196.422-.282a25.98 25.98 0 002-.953c.082-.03.113-.078.093-.14-.023-.051-.07-.063-.14-.031-.367.136-.762.289-1.188.453zM6.016-.86c.55.261 1.07.726 1.562 1.39.05.102.098.149.14.14.04-.01.095-.058.157-.14a.508.508 0 00.047-.328c-.024-.125-.156-.281-.406-.469-.344-.25-.813-.492-1.407-.734-.086-.04-.132-.035-.14.016-.032.054-.016.093.047.125zM4.219-4.875H7v2.234c0 .586-.016 1.032-.047 1.344-.012.094-.008.149.016.156.031 0 .164-.066.406-.203a.192.192 0 00.078-.156c-.031-.54-.055-1-.062-1.375v-1.86c0-.05.02-.1.062-.156a.365.365 0 01.219-.093c.05-.008.055-.036.016-.079a5.771 5.771 0 00-.438-.343c-.043-.032-.078-.024-.11.015l-.202.204a.209.209 0 01-.157.062h-1.5c.207-.344.39-.727.547-1.156h1.984a.263.263 0 00.157-.063c.031-.05.02-.113-.032-.187a7.696 7.696 0 00-.359-.39c-.043-.04-.086-.04-.125 0l-.281.327c-.043.043-.078.063-.11.063H4.047c-.25 0-.48-.02-.688-.063-.043-.031-.074-.035-.093-.015-.012.023 0 .054.03.093a.425.425 0 01.157.25c.02.043.05.059.094.047a4.48 4.48 0 01.594-.062h1.234c-.094.523-.195.906-.297 1.156H4.11c-.218-.164-.328-.25-.328-.25-.023 0-.027.027-.015.078.03.25.05.465.062.64v1.798c-.023.586-.043 1.148-.062 1.687 0 .106.015.164.046.172.02 0 .051-.008.094-.031.207-.145.313-.254.313-.328v-1.5zm1.61 1.688c0-.344.003-.567.015-.672.008-.051.082-.11.218-.172.063-.02.094-.04.094-.063 0-.02-.027-.047-.078-.078l-.594-.234c-.043-.02-.074-.02-.093 0-.012.011-.012.058 0 .14.02.344.035.704.046 1.079v.046c0 .856-.105 1.508-.312 1.954-.18.386-.492.726-.938 1.015-.43.281-.98.484-1.656.61-.074.019-.11.066-.11.14.009.07.063.102.157.094 1.438-.25 2.367-.785 2.797-1.61.29-.539.441-1.273.453-2.203zm0 0"/></svg><svg overflow="visible" x="226.381" y="19.707"><path d="M2.484-3.125c0-.344-.468-.766-.828-.766-.343 0-.828.422-.828.766 0 .36.485.766.828.766.36 0 .828-.407.828-.766zm0 0"/></svg><svg overflow="visible" x="237.583" y="19.707"><path d="M8.344 10.969a.486.486 0 00-.14-.266C5.655 8.781 3.936 3.578 3.936-.89v-4.453c0-4.484 1.72-9.687 4.266-11.593a.486.486 0 00.14-.266c0-.11-.28-.344-.405-.344-.047 0-.235.063-.282.078-2.64 2-5.156 7.422-5.156 12.125V-.89c0 4.688 2.516 10.125 5.156 12.11a.993.993 0 00.282.094c.125 0 .406-.235.406-.344zm0 0"/></svg><svg overflow="visible" x="247.582" y="11.612"><path d="M4.156 2.719c0-.047-.078-.172-.11-.203-1.234-.922-2-3.22-2-5.141v-1c0-1.906.767-4.203 2-5.14a.457.457 0 00.11-.188c0-.063-.25-.25-.312-.25a1.01 1.01 0 00-.203.062C2.312-8.156 1-5.67 1-3.625v1C1-.578 2.313 1.906 3.64 2.906c.016.016.188.063.204.063.062 0 .312-.203.312-.25zm0 0"/></svg><svg overflow="visible" x="252.233" y="11.612"><path d="M6.266-4.656c0-.36-.47-.89-1-.89-.344 0-1.032.124-1.891 1.093-.406.453-.734.89-.938.969l1.188-4.813-.063.094s-.124-.36-.28-.36c-.282 0-1.157.094-1.47.126-.093.015-.421.156-.421.374 0 .141.312.266.484.266.578 0 .39-.047.39.078l-.03.235L.5-.594c-.047.156-.047.188-.047.266 0 .266.438.453.547.453.156 0 .469-.14.547-.281.062-.11.656-2.406.687-2.563.25.016 1.032.078 1.032.86 0 .093 0 .14-.032.25-.03.156-.062.296-.062.421 0 .704.687 1.313 1.312 1.313.36 0 .813-.219 1.079-.656.296-.531.421-1.219.421-1.219l.063-.094c0-.11-.297-.25-.328-.25-.125 0-.344.188-.375.344C5.109-.875 5.03-.39 4.5-.39c-.219 0-.188 0-.188-.438 0-.203.047-.469.094-.672.047-.203.047-.25.047-.36 0-.78-.937-1.265-1.531-1.343.078-.031.453-.422.734-.703.578-.64 1-1.11 1.578-1.11.079 0-.062-.046.016 0 .234.032.11 0 .203.063.016.016.016.031-.172-.156-.218.015-.531.609-.531.765 0 .188.344.547.672.547.297 0 .844-.406.844-.86zm0 0"/></svg><svg overflow="visible" x="261.295" y="11.612"><path d="M8.828-3.125c0-.125-.312-.36-.437-.36H.906c-.125 0-.437.235-.437.36 0 .14.312.375.437.375h7.485c.125 0 .437-.234.437-.375zm0 0"/></svg><svg overflow="visible" x="273.25" y="11.612"><path d="M3.578-7.61c0-.234-.344-.546-.625-.546-.328 0-.844.437-.844.75 0 .234.36.562.657.562.265 0 .812-.406.812-.765zm.11 5.766c0-.11-.297-.25-.329-.25-.125 0-.328.172-.39.344-.203.766-.406 1.36-1.016 1.36-.203 0-.094.015-.094-.266 0-.297.079-.469.36-1.203l.453-1.25c.156-.344.156-.375.265-.688.094-.25.157-.406.157-.64 0-.532-.578-1.11-1.172-1.11C.797-5.547.14-3.687.14-3.578c0 .125.484.219.484.219l-.14.03c.124 0 .328-.155.39-.343.313-1.125.61-1.344 1.016-1.344.093 0 .093-.14.093.25 0 .25-.078.5-.125.625-.109.297-.64 1.688-.828 2.204-.125.312-.281.703-.281.953 0 .562.61 1.109 1.188 1.109 1.125 0 1.75-1.86 1.75-1.969zm0 0"/></svg><svg overflow="visible" x="277.374" y="11.612"><path d="M3.64-2.625v-1c0-2.047-1.328-4.531-2.64-5.516a.774.774 0 00-.203-.062c-.063 0-.313.187-.313.25 0 .031.079.172.094.187 1.25.938 2.016 3.235 2.016 5.141v1c0 1.922-.766 4.219-2.016 5.14-.015.032-.094.157-.094.204 0 .047.25.25.313.25A.774.774 0 001 2.906c1.313-1 2.64-3.484 2.64-5.531zm0 0"/></svg><svg overflow="visible" x="284.679" y="11.612"><path d="M2.484-3.125c0-.344-.468-.766-.828-.766-.343 0-.828.422-.828.766 0 .36.485.766.828.766.36 0 .828-.407.828-.766zm0 0"/></svg><svg overflow="visible" x="290.657" y="11.612"><path d="M8.453-4.578c0-.656-.515-.969-.719-.969-.296 0-.796.438-.796.703 0 .157.125.328.234.422.125.125.375.344.375.922 0 .406-.297 1.484-.61 2.094l-.046.093c-.313.625-.532.922-1.125.922-.547 0-.688-.234-.688-.906 0-.344.078-.719.14-.875l.5-2.015c.048-.266.173-.704.173-.766 0-.219-.36-.469-.532-.469-.14 0-.562.234-.656.469-.031.094-.594 2.375-.672 2.687-.093.36-.11.563-.11.782 0 .14 0 .156.017.218-.282.625-.438.875-.907.875-.953 0-.765-.75-.765-.953 0-.39.062-.86.625-2.328.14-.36.203-.531.203-.765 0-.532-.578-1.11-1.172-1.11C.782-5.547.14-3.687.14-3.578c0 .125.484.219.484.219l-.14.03c.124 0 .328-.155.39-.343.313-1.11.594-1.344 1.016-1.344.109 0 .093-.125.093.266 0 .297-.125.625-.218.828-.516 1.406-.672 1.969-.672 2.422C1.094-.422 2.109.125 3 .125c.203 0 .89-.031 1.203-.563.14.36 1.172.563 1.531.563.907 0 1.61-.875 1.922-1.594.407-.937.797-2.531.797-3.11zm0 0"/></svg><svg overflow="visible" x="299.228" y="14.566"><path d="M2.922-5.39c0-.141-.313-.485-.547-.485-.219 0-.672.375-.672.625 0 .14.313.469.547.469.234 0 .672-.39.672-.61zm.219 4.03c0-.109-.313-.265-.344-.265-.11 0-.328.203-.375.297-.188.672-.344.86-.672.86-.172 0 0 .046 0-.141 0-.188.063-.344.14-.532l.266-.671.406-1.063a.794.794 0 00.047-.266c0-.39-.546-.875-1-.875-.828 0-1.421 1.297-1.421 1.438 0 .11.328.281.343.281.125 0 .344-.203.36-.297.218-.719.375-.86.687-.86.14 0 0-.093 0 .126 0 .203-.047.328-.25.844L.797-1.141c-.031.11-.078.22-.078.36 0 .39.547.86 1 .86.843 0 1.422-1.313 1.422-1.438zm0 0"/></svg><svg overflow="visible" x="305.764" y="11.612"><path d="M8.828-3.125c0-.125-.312-.36-.437-.36H5.078v-3.374c0-.141-.297-.375-.422-.375-.14 0-.453.234-.453.375v3.375H.906c-.125 0-.437.234-.437.359 0 .14.312.375.437.375h3.297V.625c0 .125.313.36.453.36.125 0 .422-.235.422-.36V-2.75h3.313c.125 0 .437-.234.437-.375zm0 0"/></svg><svg overflow="visible" x="317.719" y="11.612"><path d="M3.578-7.61c0-.234-.344-.546-.625-.546-.328 0-.844.437-.844.75 0 .234.36.562.657.562.265 0 .812-.406.812-.765zm.11 5.766c0-.11-.297-.25-.329-.25-.125 0-.328.172-.39.344-.203.766-.406 1.36-1.016 1.36-.203 0-.094.015-.094-.266 0-.297.079-.469.36-1.203l.453-1.25c.156-.344.156-.375.265-.688.094-.25.157-.406.157-.64 0-.532-.578-1.11-1.172-1.11C.797-5.547.14-3.687.14-3.578c0 .125.484.219.484.219l-.14.03c.124 0 .328-.155.39-.343.313-1.125.61-1.344 1.016-1.344.093 0 .093-.14.093.25 0 .25-.078.5-.125.625-.109.297-.64 1.688-.828 2.204-.125.312-.281.703-.281.953 0 .562.61 1.109 1.188 1.109 1.125 0 1.75-1.86 1.75-1.969zm0 0"/></svg><svg overflow="visible" x="324.498" y="11.612"><path d="M2.484-3.125c0-.344-.468-.766-.828-.766-.343 0-.828.422-.828.766 0 .36.485.766.828.766.36 0 .828-.407.828-.766zm0 0"/></svg><svg overflow="visible" x="330.475" y="11.612"><path d="M8.453-4.578c0-.656-.515-.969-.719-.969-.296 0-.796.438-.796.703 0 .157.125.328.234.422.125.125.375.344.375.922 0 .406-.297 1.484-.61 2.094l-.046.093c-.313.625-.532.922-1.125.922-.547 0-.688-.234-.688-.906 0-.344.078-.719.14-.875l.5-2.015c.048-.266.173-.704.173-.766 0-.219-.36-.469-.532-.469-.14 0-.562.234-.656.469-.031.094-.594 2.375-.672 2.687-.093.36-.11.563-.11.782 0 .14 0 .156.017.218-.282.625-.438.875-.907.875-.953 0-.765-.75-.765-.953 0-.39.062-.86.625-2.328.14-.36.203-.531.203-.765 0-.532-.578-1.11-1.172-1.11C.782-5.547.14-3.687.14-3.578c0 .125.484.219.484.219l-.14.03c.124 0 .328-.155.39-.343.313-1.11.594-1.344 1.016-1.344.109 0 .093-.125.093.266 0 .297-.125.625-.218.828-.516 1.406-.672 1.969-.672 2.422C1.094-.422 2.109.125 3 .125c.203 0 .89-.031 1.203-.563.14.36 1.172.563 1.531.563.907 0 1.61-.875 1.922-1.594.407-.937.797-2.531.797-3.11zm0 0"/></svg><svg overflow="visible" x="339.044" y="14.566"><path d="M2.922-5.39c0-.141-.313-.485-.547-.485-.219 0-.672.375-.672.625 0 .14.313.469.547.469.234 0 .672-.39.672-.61zm.219 4.03c0-.109-.313-.265-.344-.265-.11 0-.328.203-.375.297-.188.672-.344.86-.672.86-.172 0 0 .046 0-.141 0-.188.063-.344.14-.532l.266-.671.406-1.063a.794.794 0 00.047-.266c0-.39-.546-.875-1-.875-.828 0-1.421 1.297-1.421 1.438 0 .11.328.281.343.281.125 0 .344-.203.36-.297.218-.719.375-.86.687-.86.14 0 0-.093 0 .126 0 .203-.047.328-.25.844L.797-1.141c-.031.11-.078.22-.078.36 0 .39.547.86 1 .86.843 0 1.422-1.313 1.422-1.438zm0 0"/></svg><svg overflow="visible" x="342.425" y="14.566"><path d="M6.25-2.25c0-.094-.281-.328-.375-.328H.641c-.094 0-.375.234-.375.328s.28.328.375.328h5.234c.094 0 .375-.234.375-.328zm0 0"/></svg><svg overflow="visible" x="348.936" y="14.566"><path d="M4.172-.156v-.469H3.64c-.829 0-.625.063-.625-.219v-4.64c0-.235-.235-.391-.563-.391-.578.578-1.203.531-1.75.531v.625c.406 0 1.11-.047 1.219-.11v3.985c0 .281.203.219-.625.219H.766v.64L2.469-.03l1.703.047zm0 0"/></svg><path d="M247.582 16.719h106.613" fill="none" stroke-width=".478" stroke="#000" stroke-miterlimit="10"/><g><svg overflow="visible" x="297.685" y="27.909"><path d="M6.266-4.656c0-.36-.47-.89-1-.89-.344 0-1.032.124-1.891 1.093-.406.453-.734.89-.938.969l1.188-4.813-.063.094s-.124-.36-.28-.36c-.282 0-1.157.094-1.47.126-.093.015-.421.156-.421.374 0 .141.312.266.484.266.578 0 .39-.047.39.078l-.03.235L.5-.594c-.047.156-.047.188-.047.266 0 .266.438.453.547.453.156 0 .469-.14.547-.281.062-.11.656-2.406.687-2.563.25.016 1.032.078 1.032.86 0 .093 0 .14-.032.25-.03.156-.062.296-.062.421 0 .704.687 1.313 1.312 1.313.36 0 .813-.219 1.079-.656.296-.531.421-1.219.421-1.219l.063-.094c0-.11-.297-.25-.328-.25-.125 0-.344.188-.375.344C5.109-.875 5.03-.39 4.5-.39c-.219 0-.188 0-.188-.438 0-.203.047-.469.094-.672.047-.203.047-.25.047-.36 0-.78-.937-1.265-1.531-1.343.078-.031.453-.422.734-.703.578-.64 1-1.11 1.578-1.11.079 0-.062-.046.016 0 .234.032.11 0 .203.063.016.016.016.031-.172-.156-.218.015-.531.609-.531.765 0 .188.344.547.672.547.297 0 .844-.406.844-.86zm0 0"/></svg></g><g><svg overflow="visible" x="355.391" y="19.707"><path d="M6.281-.89v-4.454c0-4.703-2.5-10.125-5.156-12.125a1.32 1.32 0 00-.266-.078c-.125 0-.421.235-.421.344 0 .078.093.234.14.265 2.547 1.907 4.266 7.11 4.266 11.594V-.89c0 4.47-1.719 9.672-4.266 11.594a.486.486 0 00-.14.266c0 .11.296.344.421.344a.77.77 0 00.266-.094C3.781 9.234 6.281 3.797 6.281-.891zm0 0"/></svg></g><g><svg overflow="visible" x="235.595" y="31.016"><path d="M12.172 3.375V2.031H6.094C3.359 2.031.875 1.766.484.72.47.656.234.484.156.484c-.078 0-.36.204-.36.282 0 .015.063.14.032.125.406 1.093 3.235 2.625 6.266 2.625h6.078zm0 0"/></svg></g><g><svg overflow="visible" x="246.606" y="31.016"><path d="M12.078 3.375V2.031H-.203v1.485h12.281zm0 0"/></svg></g><g><svg overflow="visible" x="256.744" y="31.016"><path d="M12.078 3.375V2.031H-.203v1.485h12.281zm0 0"/></svg></g><g><svg overflow="visible" x="266.882" y="31.016"><path d="M12.078 3.375V2.031H-.203v1.485h12.281zm0 0"/></svg></g><g><svg overflow="visible" x="277.02" y="31.016"><path d="M12.078 3.375V2.031H-.203v1.485h12.281zm0 0"/></svg></g><g><svg overflow="visible" x="287.935" y="31.016"><path d="M23.938 2.031h-6.032c-2.984 0-5.468 1.094-5.937 1.906C11.484 3.125 9 2.032 6.03 2.032H-.203v1.485H6.03c3.094 0 5.578.218 5.578 1.25 0 .093.266.296.36.296.078 0 .344-.203.344-.296 0-1.032 2.484-1.25 5.593-1.25h6.235V2.03zm0 0"/></svg></g><g><svg overflow="visible" x="310.901" y="31.016"><path d="M12.078 3.375V2.031H-.203v1.485h12.281zm0 0"/></svg></g><g><svg overflow="visible" x="321.039" y="31.016"><path d="M12.078 3.375V2.031H-.203v1.485h12.281zm0 0"/></svg></g><g><svg overflow="visible" x="331.177" y="31.016"><path d="M12.078 3.375V2.031H-.203v1.485h12.281zm0 0"/></svg></g><g><svg overflow="visible" x="341.327" y="31.016"><path d="M12.078 3.375V2.031H-.203v1.485h12.281zm0 0"/></svg></g><g><svg overflow="visible" x="352.23" y="31.016"><path d="M12.156.766c0-.079-.265-.282-.344-.282-.078 0-.328.172-.343.235-.39 1.047-2.86 1.312-5.594 1.312H-.203v1.485h6.078c3.031 0 5.844-1.532 6.25-2.625-.031.015.031-.11.031-.125zm0 0"/></svg></g><g><svg overflow="visible" x="287.34" y="45.245"><path d="M3.734-6.078H2.72c0-.02.008-.04.031-.063.094-.156.133-.285.125-.39-.023-.164-.246-.36-.672-.578-.055-.051-.094-.055-.125-.016-.023.031-.023.063 0 .094.227.312.36.617.39.906v.047h-1.14c-.25 0-.48-.02-.687-.063-.032-.02-.059-.023-.079-.015-.023.023-.011.054.032.093a.425.425 0 01.156.25c.008.055.035.07.078.047.176-.03.379-.05.61-.062h3.046c.07 0 .118-.016.141-.047.04-.063.031-.129-.031-.203a6.874 6.874 0 00-.36-.39c-.043-.04-.078-.04-.109 0l-.297.327c-.031.043-.062.063-.094.063zM2.813-.031v-2.422h1.703c.07-.008.117-.031.14-.063.04-.05.032-.113-.031-.187a3.184 3.184 0 00-.36-.39c-.03-.04-.07-.04-.109 0l-.297.327c-.03.043-.062.063-.093.063h-.954V-3.86H4.61a.263.263 0 00.157-.063c.03-.05.02-.113-.032-.187a7.696 7.696 0 00-.359-.391c-.043-.04-.086-.04-.125 0l-.297.328c-.031.043-.062.063-.094.063h-.796c.226-.344.398-.633.515-.875.094-.22.219-.332.375-.344.031 0 .055-.016.078-.047 0-.031-.039-.063-.11-.094-.366-.176-.573-.258-.624-.25-.012 0-.024.024-.031.063a4.684 4.684 0 01-.422 1.484c-.012.024-.024.043-.031.063h-.86a.923.923 0 00.156-.172c.094-.145.133-.27.125-.375 0-.219-.261-.508-.78-.875-.056-.051-.095-.063-.126-.032-.023.032-.023.07 0 .11.29.406.453.797.484 1.172 0 .093.016.152.047.172h-.828c-.25 0-.476-.02-.672-.063-.043-.031-.074-.035-.093-.016-.024.024-.012.055.03.094.083.063.134.14.157.235.008.054.04.074.094.062.164-.039.363-.062.594-.062h1.28v1.156H1.36c-.25 0-.48-.02-.687-.063C.64-2.796.613-2.8.594-2.78c-.024.023-.012.054.031.094.082.062.133.14.156.234.008.055.035.074.078.062.176-.039.38-.062.61-.062h.953v2.11a.53.53 0 01-.11.312C2.29 0 2.087.016 1.704.016c-.262-.02-.398 0-.406.062-.012.05.016.082.078.094.313.082.523.16.64.234.051.031.083.117.094.266 0 .062.032.078.094.047.207-.055.363-.137.469-.25.094-.106.14-.274.14-.5zm-1.36-2.047c0 .156-.121.484-.36.984C.864-.602.61-.187.329.156.273.22.27.266.312.296c.04.04.086.036.141-.015a8.454 8.454 0 001.203-1.594c.125-.257.25-.382.375-.375.031.024.055.012.078-.03.008-.02-.015-.055-.078-.11a7.567 7.567 0 00-.422-.313c-.086-.05-.136-.03-.156.063zm1.766.219c.281.242.523.605.734 1.093.031.118.067.172.11.172.03 0 .085-.039.171-.125.07-.062.11-.16.11-.297 0-.218-.336-.539-1-.968-.074-.051-.125-.051-.156 0-.024.03-.012.074.03.125zm3.812-2h.922c.082-.008.133-.032.156-.063.008-.05-.011-.117-.062-.203a7.661 7.661 0 00-.375-.438c-.043-.03-.086-.023-.125.016l-.297.328c-.055.074-.117.11-.188.11H5.47v-1.875c.414-.032.863-.094 1.343-.188.47-.101.805-.133 1.016-.094.07.012.117 0 .14-.03.009-.02-.007-.052-.046-.095a1.835 1.835 0 01-.375-.468c-.024-.04-.07-.04-.14 0-.438.242-1.075.476-1.907.703a2.528 2.528 0 01-.375-.266c-.043-.039-.078-.062-.11-.062-.023.023-.027.054-.015.093.05.22.078.434.078.641v1.547c0 1.781-.203 3.008-.61 3.672-.23.344-.59.695-1.077 1.062-.063.04-.079.086-.047.14.031.052.086.056.172.016C4.453.095 5.03-.633 5.25-1.5c.102-.5.172-1.285.203-2.36h1.188v2.657c0 .5-.024 1.11-.063 1.828 0 .113.035.148.11.11.25-.169.375-.278.375-.329a30.79 30.79 0 01-.032-1.61zm0 0"/></svg><svg overflow="visible" x="295.709" y="45.245"><path d="M1.89-3.797v2.563c0 .5-.015 1.109-.046 1.828-.012.113.02.144.093.094.157-.094.27-.168.344-.22a.111.111 0 00.047-.093 31.37 31.37 0 01-.031-1.61V-3.78c.289.23.555.605.797 1.125.039.117.082.168.125.156.031 0 .086-.035.172-.11.07-.07.109-.175.109-.312-.031-.27-.422-.625-1.172-1.062C2.316-3.992 2.305-4 2.297-4v-1.031h1.328a.263.263 0 00.156-.063c.031-.05.02-.117-.031-.203-.105-.113-.227-.242-.36-.39-.042-.032-.085-.032-.124 0l-.282.343c-.043.032-.078.047-.109.047h-.578v-.64c0-.333.015-.551.047-.657.02-.05.078-.097.172-.14.082-.051.086-.098.015-.141a5.486 5.486 0 00-.594-.219c-.062-.02-.09.016-.078.11.02.261.032.609.032 1.046v.641h-.813a3.25 3.25 0 01-.687-.062c-.043-.02-.075-.02-.094 0-.024.023-.012.046.031.078a.493.493 0 01.156.25c.008.054.04.07.094.047.164-.032.363-.047.594-.047h.594C1.504-3.914 1.02-2.695.312-1.375c-.042.074-.046.121-.015.14.039.044.082.032.125-.03.812-1.239 1.289-2.208 1.437-2.907a2.24 2.24 0 01.047-.312c.008-.02.032-.032.063-.032.02.012.023.028.015.047-.023.219-.054.446-.093.672zm2.126-2.515c-.25 0-.48-.02-.688-.063-.043-.02-.074-.023-.094-.016-.023.024-.011.055.032.094a.59.59 0 01.171.25c0 .055.024.07.079.047.164-.031.363-.047.593-.047h.172s.004.008.016.016C4.523-4 4.898-2.516 5.422-1.578 4.754-.586 3.96.102 3.047.5c-.063.031-.086.07-.063.125.02.05.079.05.172 0 .938-.262 1.758-.863 2.469-1.813l.016-.015A8.236 8.236 0 007.297.578c.039.04.07.05.094.031a.843.843 0 01.296-.187.56.56 0 01.297-.016c.07.008.114-.008.125-.047.02-.054.016-.086-.015-.093L7.03-.375a5.092 5.092 0 01-1.14-1.203c.53-.844.968-2.063 1.312-3.656.113-.52.211-.79.297-.813a.48.48 0 01.172-.031c.07-.008.086-.047.047-.11-.282-.343-.453-.519-.516-.53-.023 0-.047.015-.078.046l-.297.328c-.012.024-.043.032-.094.032zm2.89.265c-.187 1.149-.418 2.102-.687 2.86-.168.449-.356.859-.563 1.234-.531-.82-.918-2.188-1.156-4.094h-.016zm0 0"/></svg><svg overflow="visible" x="304.077" y="45.245"><path d="M6.766.266H4.453v-.954h2.344c.07 0 .113-.023.125-.078 0-.082-.195-.296-.578-.64-.055-.04-.094-.04-.125 0L6-1.094c-.086.094-.164.149-.234.157H4.453v-.797h1.703v.218c0 .055.008.079.032.079.039 0 .156-.051.343-.157.051-.02.07-.062.063-.125-.032-.3-.047-.539-.047-.718v-1.344c0-.07.008-.13.031-.172a.19.19 0 01.14-.11c.063 0 .098-.015.11-.046.008-.032-.008-.067-.047-.11a9.565 9.565 0 00-.453-.328c-.043-.039-.086-.039-.125 0l-.14.234a.1.1 0 01-.079.032h-1.53v-.75h3.359c.07-.008.113-.035.125-.078 0-.082-.196-.297-.579-.641-.054-.05-.093-.05-.125 0l-.218.297c-.086.105-.168.156-.25.156H4.453v-.89c.195-.051.645-.114 1.344-.188.601-.07 1.008-.07 1.219 0 .062.023.109.016.14-.016.008-.007 0-.035-.031-.078a3.183 3.183 0 01-.375-.547c-.023-.03-.059-.035-.11-.015-1.917.511-3.68.797-5.28.86-.118 0-.173.038-.173.109 0 .062.051.093.157.093.914-.02 1.82-.078 2.718-.172v.844H1.204c-.25 0-.48-.02-.687-.062-.043-.02-.075-.024-.094-.016-.024.023-.012.055.031.094a.59.59 0 01.172.25c0 .054.023.07.078.047.164-.032.363-.047.594-.047h2.766v.75H2.375a1.635 1.635 0 01-.25-.203c-.055-.051-.09-.07-.11-.063-.023.012-.03.043-.03.094 0 .105.003.226.015.36v2.374c-.012.137-.023.278-.031.422 0 .055.035.063.11.031l.265-.109c.02 0 .035-.023.047-.078v-.281h1.671v.796h-1.78c-.25 0-.481-.023-.688-.078-.043-.02-.074-.02-.094 0-.023.024-.012.047.031.079.082.074.14.164.172.265 0 .043.024.059.078.047a4.48 4.48 0 01.594-.063h1.688v.954h-2.86C.953.266.723.242.516.203.473.172.44.164.422.187.398.207.41.238.453.281c.082.07.14.156.172.25 0 .051.023.067.078.047.164-.031.363-.047.594-.047h6.516c.07-.011.113-.039.125-.078 0-.086-.196-.297-.579-.64-.054-.051-.093-.051-.125 0l-.218.296c-.086.102-.168.157-.25.157zm-2.704-2.25H2.391v-.891h1.671zm.391-.891h1.703v.89H4.453zm-.39-.25H2.39v-.906h1.671zm.39-.906h1.703v.906H4.453zm0 0"/></svg></g><g><svg overflow="visible" x="366.183" y="19.707"><path d="M2.672-1.266a.532.532 0 00-.375.141.686.686 0 00-.125.36c0 .124.039.245.125.359.082.105.207.156.375.156.07-.02.144-.035.219-.047.03 0 .046.024.046.063 0 .199-.074.445-.218.75-.188.343-.43.515-.719.515v.235c.375 0 .68-.188.922-.563.207-.336.312-.71.312-1.14 0-.282-.058-.485-.171-.61-.118-.144-.247-.219-.391-.219zm0 0"/></svg><svg overflow="visible" x="378.138" y="19.707"><path d="M9.766-2.61H8.359v-5.562h2.422c.094-.008.149-.047.172-.11 0-.113-.277-.413-.828-.905-.063-.07-.121-.07-.172 0l-.312.437c-.125.137-.243.21-.344.219h-.938v-.453c0-.082.024-.172.079-.266.03-.082.101-.156.218-.219.125-.05.133-.113.031-.187a6.91 6.91 0 00-.828-.297c-.086-.02-.12.027-.109.14.02.25.035.528.047.829v.453H4.063v-.453c0-.082.023-.172.078-.266.03-.082.101-.156.218-.219.125-.05.133-.113.032-.187a6.91 6.91 0 00-.829-.297c-.085-.02-.12.027-.109.14.02.25.035.528.047.829v.453H2c-.367 0-.695-.035-.984-.11C.96-8.67.922-8.676.89-8.656c-.032.031-.016.078.046.14a.724.724 0 01.235.36c0 .074.035.094.11.062a6.84 6.84 0 01.859-.078H3.5v5.563H1.672a4.68 4.68 0 01-.984-.094C.632-2.734.594-2.738.563-2.72c-.032.031-.016.074.046.125a.844.844 0 01.235.36c.008.074.047.101.11.078.237-.051.523-.078.859-.078h9.421c.102-.008.164-.047.188-.11 0-.113-.277-.414-.828-.906-.063-.07-.125-.07-.188 0l-.297.422c-.125.148-.242.219-.343.219zM4.062-4.202h3.735v1.594H4.063zm0-1.906h3.735v1.546H4.063zm0-2.063h3.735v1.688H4.063zm3.063 6.797C8.02-.957 8.863-.227 9.656.813c.07.144.14.207.203.187.051 0 .118-.07.204-.203a.7.7 0 00.062-.469c-.031-.2-.242-.437-.625-.719-.543-.406-1.29-.8-2.234-1.187-.118-.05-.184-.04-.204.031-.03.086-.011.14.063.172zm-2.766-.266C3.36-.586 2.297.207 1.172.75c-.094.04-.125.102-.094.188.031.07.094.093.188.062A16.92 16.92 0 003.594-.313c.781-.562 1.258-.832 1.437-.812.051 0 .086-.016.11-.047.03-.031.023-.062-.016-.094a4.386 4.386 0 00-.594-.421c-.054-.032-.11-.016-.172.046zm0 0"/></svg><svg overflow="visible" x="390.093" y="19.707"><path d="M5.61-7.64H2.03C1.727-7.88 1.571-8 1.562-8c-.023 0-.027.043-.015.125.05.355.082.656.094.906v1.594l-.094 2.39c0 .157.02.235.062.235a.36.36 0 00.141-.047c.29-.187.438-.336.438-.453v-.578h3.421v2.062C5.598-1.055 5.566-.18 5.516.86c0 .157.046.196.14.125.219-.148.383-.25.5-.312.04-.031.055-.078.047-.14a46.508 46.508 0 01-.047-2.298v-2.062h3.469c0 .293-.012.547-.031.765-.012.126 0 .2.031.22.031 0 .223-.098.578-.298.07-.039.11-.113.11-.218a35.708 35.708 0 01-.094-1.954v-1.765a.36.36 0 01.094-.234.705.705 0 01.312-.141c.07 0 .078-.031.016-.094a7.792 7.792 0 00-.61-.5c-.074-.039-.133-.035-.172.016l-.28.297a.318.318 0 01-.235.093H6.156v-.78c0-.477.032-.79.094-.938.031-.082.11-.157.234-.22.125-.062.13-.124.016-.187-.137-.07-.418-.175-.844-.312-.093-.031-.133.023-.11.156.032.375.052.875.063 1.5zm0 3.452H2.186V-7.28H5.61zm.546-3.093h3.516v2.312c-.012.282-.024.543-.031.782H6.156zm0 0"/></svg></g><g><svg overflow="visible" x="405.946" y="19.707"><path d="M6.266-4.656c0-.36-.47-.89-1-.89-.344 0-1.032.124-1.891 1.093-.406.453-.734.89-.938.969l1.188-4.813-.063.094s-.124-.36-.28-.36c-.282 0-1.157.094-1.47.126-.093.015-.421.156-.421.374 0 .141.312.266.484.266.578 0 .39-.047.39.078l-.03.235L.5-.594c-.047.156-.047.188-.047.266 0 .266.438.453.547.453.156 0 .469-.14.547-.281.062-.11.656-2.406.687-2.563.25.016 1.032.078 1.032.86 0 .093 0 .14-.032.25-.03.156-.062.296-.062.421 0 .704.687 1.313 1.312 1.313.36 0 .813-.219 1.079-.656.296-.531.421-1.219.421-1.219l.063-.094c0-.11-.297-.25-.328-.25-.125 0-.344.188-.375.344C5.109-.875 5.03-.39 4.5-.39c-.219 0-.188 0-.188-.438 0-.203.047-.469.094-.672.047-.203.047-.25.047-.36 0-.78-.937-1.265-1.531-1.343.078-.031.453-.422.734-.703.578-.64 1-1.11 1.578-1.11.079 0-.062-.046.016 0 .234.032.11 0 .203.063.016.016.016.031-.172-.156-.218.015-.531.609-.531.765 0 .188.344.547.672.547.297 0 .844-.406.844-.86zm0 0"/></svg></g><g><svg overflow="visible" x="415.666" y="19.707"><path d="M8.828-4.281c0-.125-.312-.375-.437-.375H.906c-.125 0-.437.25-.437.375 0 .14.312.375.437.375h7.485c.125 0 .437-.235.437-.375zm0 2.328c0-.14-.312-.375-.437-.375H.906c-.125 0-.437.234-.437.375 0 .125.312.36.437.36h7.485c.125 0 .437-.235.437-.36zm0 0"/></svg></g><g><svg overflow="visible" x="428.29" y="19.707"><path d="M7.016-1.844c0-.11-.297-.25-.329-.25-.125 0-.328.172-.39.344-.234.813-.422 1.36-1.016 1.36-.203 0-.093.015-.093-.266 0-.297.109-.594.218-.844.219-.64.719-1.953.719-2.64 0-.798-.703-1.407-1.563-1.407-1.078 0-1.796.797-2 1.078l.329.094c-.063-.672-.735-1.172-1.282-1.172-.562 0-.921.5-1.14.89C.313-4.327.14-3.624.14-3.577c0 .125.484.219.484.219l-.14.03c.124 0 .328-.14.406-.405.203-.844.25-1.282.671-1.282.25 0 .172.016.172.407 0 .265-.03.39-.187 1.015L.844-.844c-.031.188-.11.469-.11.516 0 .219.375.453.563.453.14 0 .547-.219.656-.547-.078.156.125-.5.203-.797l.266-1.078c.062-.265.14-.531.203-.797l.14-.594c.188-.374.626-1.328 1.766-1.328.532 0 .438.313.438.704 0 .734-.578 2.265-.766 2.78-.11.282-.125.423-.125.548 0 .562.625 1.109 1.188 1.109 1.125 0 1.75-1.875 1.75-1.969zm0 0"/></svg></g><g><svg overflow="visible" x="438.117" y="19.707"><path d="M8.828-3.125c0-.125-.312-.36-.437-.36H5.078v-3.374c0-.141-.297-.375-.422-.375-.14 0-.453.234-.453.375v3.375H.906c-.125 0-.437.234-.437.359 0 .14.312.375.437.375h3.297V.625c0 .125.313.36.453.36.125 0 .422-.235.422-.36V-2.75h3.313c.125 0 .437-.234.437-.375zm0 0"/></svg></g><g><svg overflow="visible" x="450.085" y="19.707"><path d="M5.203-.125v-.516h-.578c-1.078 0-.922 0-.922-.437v-6.703c0-.282-.187-.438-.578-.438-.766.797-1.672.766-2.266.766v.625c.438 0 1.282-.031 1.563-.172v5.922c0 .437.172.437-.906.437H.937v.672C1.547-.03 2.595-.03 3.079-.03c.469 0 1.516 0 2.125.062zm0 0"/></svg></g><g><svg overflow="visible" x="456.063" y="19.707"><path d="M2.672-1.266a.532.532 0 00-.375.141.686.686 0 00-.125.36c0 .124.039.245.125.359.082.105.207.156.375.156.07-.02.144-.035.219-.047.03 0 .046.024.046.063 0 .199-.074.445-.218.75-.188.343-.43.515-.719.515v.235c.375 0 .68-.188.922-.563.207-.336.312-.71.312-1.14 0-.282-.058-.485-.171-.61-.118-.144-.247-.219-.391-.219zm0 0"/></svg></g><g><svg overflow="visible" x="468.018" y="19.707"><path d="M8.453-4.578c0-.656-.515-.969-.719-.969-.296 0-.796.438-.796.703 0 .157.125.328.234.422.125.125.375.344.375.922 0 .406-.297 1.484-.61 2.094l-.046.093c-.313.625-.532.922-1.125.922-.547 0-.688-.234-.688-.906 0-.344.078-.719.14-.875l.5-2.015c.048-.266.173-.704.173-.766 0-.219-.36-.469-.532-.469-.14 0-.562.234-.656.469-.031.094-.594 2.375-.672 2.687-.093.36-.11.563-.11.782 0 .14 0 .156.017.218-.282.625-.438.875-.907.875-.953 0-.765-.75-.765-.953 0-.39.062-.86.625-2.328.14-.36.203-.531.203-.765 0-.532-.578-1.11-1.172-1.11C.782-5.547.14-3.687.14-3.578c0 .125.484.219.484.219l-.14.03c.124 0 .328-.155.39-.343.313-1.11.594-1.344 1.016-1.344.109 0 .093-.125.093.266 0 .297-.125.625-.218.828-.516 1.406-.672 1.969-.672 2.422C1.094-.422 2.109.125 3 .125c.203 0 .89-.031 1.203-.563.14.36 1.172.563 1.531.563.907 0 1.61-.875 1.922-1.594.407-.937.797-2.531.797-3.11zm0 0"/></svg></g><g><svg overflow="visible" x="476.578" y="22.66"><path d="M6.25-2.25c0-.094-.281-.328-.375-.328H.641c-.094 0-.375.234-.375.328s.28.328.375.328h5.234c.094 0 .375-.234.375-.328zm0 0"/></svg><svg overflow="visible" x="483.089" y="22.66"><path d="M4.172-.156v-.469H3.64c-.829 0-.625.063-.625-.219v-4.64c0-.235-.235-.391-.563-.391-.578.578-1.203.531-1.75.531v.625c.406 0 1.11-.047 1.219-.11v3.985c0 .281.203.219-.625.219H.766v.64L2.469-.03l1.703.047zm0 0"/></svg></g><g><svg overflow="visible" x="491.67" y="19.707"><path d="M8.828-4.281c0-.125-.312-.375-.437-.375H.906c-.125 0-.437.25-.437.375 0 .14.312.375.437.375h7.485c.125 0 .437-.235.437-.375zm0 2.328c0-.14-.312-.375-.437-.375H.906c-.125 0-.437.234-.437.375 0 .125.312.36.437.36h7.485c.125 0 .437-.235.437-.36zm0 0"/></svg></g><g><svg overflow="visible" x="504.283" y="19.707"><path d="M5.688-3.953c0-.953-.063-1.922-.47-2.797-.562-1.156-1.734-1.469-2.234-1.469-.718 0-1.796.438-2.28 1.547-.376.828-.438 1.766-.438 2.719 0 .89.109 2.062.593 2.969.516.968 1.532 1.25 2.11 1.25.656 0 1.75-.391 2.281-1.516.375-.828.438-1.766.438-2.703zm-1.391-.14c0 .89 0 1.702-.125 2.468C4-.485 3.516-.265 2.969-.265 2.516-.266 2-.438 1.78-1.579c-.125-.719-.125-1.813-.125-2.516 0-.765 0-1.562.094-2.203.219-1.422.922-1.406 1.219-1.406.406 0 .984.094 1.219 1.266.109.671.109 1.578.109 2.343zm0 0"/></svg></g></svg>