<svg xmlns="http://www.w3.org/2000/svg" xmlns:xlink="http://www.w3.org/1999/xlink" width="755px" height="61px" viewBox="0 0 566 46"><svg overflow="visible" x=".458" y="19.63"><path d="M.313.031C.671.016 1.046 0 1.405 0c.64 0 1.266.031 1.922.031.563 0 1.25-.156 1.813-.5.937-.562 1.515-1.469 1.515-2.375 0-.515-.218-1-.531-1.265-.313-.25-.797-.391-1.625-.516v.266c.688-.25 1.094-.438 1.469-.75.547-.485.875-1.125.875-1.735 0-.984-1.125-1.687-2.047-1.687-.594 0-1.203.031-1.797.031-.61 0-1.203-.016-1.969-.047l-.062.61.828.03c.281 0 .234-.03.234.188 0 .172-.047.547-.11.907L.892-.782c-.047.204-.016.157-.672.266l-.11.579zm1.843-.656l.578-3.438h.875c1.235 0 1.657.375 1.657 1.407 0 1.234-.704 1.984-1.891 1.984-.25 0-.594-.015-.984-.047-.079-.015-.22-.015-.22-.015zm.672-4l.563-3.14c.187 0 .5-.063.812-.063.969 0 1.266.297 1.266 1.187 0 1.266-.703 1.891-2.188 1.891H2.86zm0 0"/></svg><svg overflow="visible" x="7.763" y="19.63"><path d="M0-1.469C0-.547.703.125 1.563.125c.687 0 1.468-.36 2.64-1.313L4-1.688l-.5.344c-.625.453-1.078.657-1.5.657-.578 0-.75-.313-.75-1.047 0-.313.031-.61.078-.86l.828-.203c.203-.047.516-.172.828-.297C4-3.547 4.641-4.219 4.641-4.954c0-.562-.563-1.077-1.172-1.077-.781 0-2.219.843-2.688 1.61C.421-3.845 0-2.313 0-1.47zm1.406-1.5l.11-.437c.187-.797.39-1.219.703-1.516.234-.219.5-.344.797-.344.343 0 .39.11.39.5 0 .516-.234.954-.86 1.25a6.042 6.042 0 01-1.093.375zm.485-3.375h.453l2-1.25c.265-.156.39-.36.39-.531 0-.188-.39-.5-.625-.5-.109 0-.375.11-.53.25L1.53-6.344zm0 0"/></svg><svg overflow="visible" x="12.413" y="19.63"><path d="M-.188-.375L0 .203c.563-.437.766-.516 1.188-.516.296 0 .625.047 1.25.204.718.171 1.093.234 1.406.234.156 0 .25-.016.75-.156.156-.828.25-1.235.422-1.922h-.61l-.312.844c-.078.218-.032.171-.282.171-.265 0-.53-.078-.796-.14-.391-.078-.797-.14-1.032-.14-.375 0-.703.077-1.14.25l.125.234L5.062-5.36l.079-.47-.282-.28-.406.39c-.11.125-.11.14-.266.14-.406 0-1.03-.093-1.609-.25-.312-.093-.625-.202-.953-.202-.203 0-.438.047-.89.156L.296-4.187h.562l.375-.72c.094-.015.204-.03.36-.03s.297.015.531.062c.406.078.719.125.969.125.437 0 .844-.11 1.234-.313l-.25-.203-4.281 4.86zm0 0"/></svg><svg overflow="visible" x="17.721" y="19.63"><path d="M.234-4.766l.157.47.593-.391c.36-.22.36-.235.47-.235.109 0 .015-.031.015.11 0 .109-.047.359-.094.53L.578-1.405c-.094.375-.14.672-.14.922 0 .28.296.593.53.593.313 0 .876-.296 2.11-1.218l-.265-.47-.5.329c-.36.234-.47.313-.594.313-.078 0 .015.03.015-.11 0-.11.016-.203.079-.469l.921-3.64c.047-.203.079-.313.079-.422 0-.203-.266-.453-.47-.453-.265 0-.827.281-1.734.922l-.39.296zm1.641-2.578c0 .297.36.625.656.625.375 0 .813-.484.813-.937 0-.282-.344-.61-.594-.61-.36 0-.875.516-.875.922zm0 0"/></svg><svg overflow="visible" x="21.045" y="19.63"><path d="M0-1.469C0-.547.703.125 1.563.125c.687 0 1.468-.36 2.64-1.313L4-1.688l-.5.344c-.625.453-1.078.657-1.5.657-.578 0-.75-.313-.75-1.047 0-.313.031-.61.078-.86l.828-.203c.203-.047.516-.172.828-.297C4-3.547 4.641-4.219 4.641-4.954c0-.562-.563-1.077-1.172-1.077-.781 0-2.219.843-2.688 1.61C.421-3.845 0-2.313 0-1.47zm1.406-1.5l.11-.437c.187-.797.39-1.219.703-1.516.234-.219.5-.344.797-.344.343 0 .39.11.39.5 0 .516-.234.954-.86 1.25a6.042 6.042 0 01-1.093.375zm0 0"/></svg><svg overflow="visible" x="25.695" y="19.63"><path d="M.125-4.766l.172.47.594-.391c.343-.22.359-.235.453-.235.125 0 .031-.031.031.125 0 .703-.516 3.156-1 4.734l.266.188a5.85 5.85 0 01.984-.219l.328-1.547c.219-.984.453-1.53.969-2.203.406-.531.61-.75.875-.75.187 0 .172.032.344.235h.406c.062-.594.11-.97.219-1.516-.313-.14-.36-.156-.422-.156-.36 0-.86.328-1.297.937-.406.594-.875 1.25-1.172 1.907h.344l.312-1.516c.063-.25.14-.531.14-.813 0-.234-.25-.515-.437-.515-.25 0-.828.297-1.718.922l-.391.296zm0 0"/></svg><svg overflow="visible" x="30.345" y="19.63"><path d="M4.203-7.828a.735.735 0 01-.187-.14c-.063-.063-.11-.126-.22-.329-1.593 1.61-2.5 3.266-2.5 4.781v.797c0 1.516.907 3.172 2.5 4.781.11-.203.157-.265.22-.328.062-.062.125-.109.312-.203C2.875.063 2.281-1.344 2.281-2.719v-.797c0-1.39.594-2.78 2.047-4.25zm0 0"/></svg><svg overflow="visible" x="35.414" y="19.63"><path d="M5.36-5.922a2.204 2.204 0 00-.563-.11c-.797 0-1.89.97-3.39 3.063l.25.094 1.28-5.938-.265-.234c-.75.375-1.063.438-2.047.531l-.094.5h.735c.28 0 .265-.046.265.157 0 .109-.015.203-.031.296L.937-4.358c-.156.89-.359 1.718-1 4.25l.204.234.968-.25.297-1.578c.11-.578.36-1.016.61-1.281C2.766-.844 3.28.109 3.578.109c.156 0 .547-.187 1.078-.562l.61-.438-.204-.453-.671.375c-.172.094-.141.078-.25.078-.11 0-.094-.03-.204-.234-.421-.766-.656-1.313-1.109-2.734l.125-.125c.735-.72 1.188-.985 1.781-.985.094 0 .22.016.516.094l.266-1zm0 0"/></svg><svg overflow="visible" x="41.117" y="19.63"><path d="M2.703-1.531L2.47-1.75c-.36.125-.563.203-1.328.406C1.047-.328.78.344.016 1.625l.312.25.61-.281C1.905.328 2.405-.516 2.75-1.47zm0 0"/></svg><svg overflow="visible" x="46.09" y="19.63"><path d="M3.703-5.516c-.453.047-.86.063-1.156.063.172-.984.297-1.578.531-2.25l-.25-.328a7.16 7.16 0 01-1.094.531l-.296 2.031c-.391.203-.704.328-1.063.407l-.047.406h1l-.64 3.25C.625-1.11.53-.813.53-.5c0 .297.266.61.5.61.422 0 .922-.282 1.86-1.032.218-.172.14-.125.437-.36l-.25-.437-.672.469c-.36.25-.484.313-.625.313-.093 0-.031.046-.031-.11 0-.297.156-1.234.516-3l.14-.61h1.266l.203-.89zm0 0"/></svg><svg overflow="visible" x="50.131" y="19.63"><path d="M3.766-2.719v-.797c0-1.515-.907-3.171-2.516-4.78-.11.202-.156.265-.203.327-.063.063-.125.11-.313.203 1.438 1.47 2.032 2.86 2.032 4.25v.797c0 1.375-.594 2.781-2.032 4.25.188.094.25.14.313.203.047.063.094.125.203.329C2.86.452 3.766-1.204 3.766-2.72zm0 0"/></svg><svg overflow="visible" x="58.523" y="19.63"><path d="M8.266-4.078a1.419 1.419 0 01-.047-.36c0-.109.015-.234.062-.484h-7.5c.063.25.063.375.063.484 0 .125 0 .235-.063.5h7.5zm0 2.625a1.332 1.332 0 01-.047-.36c0-.109.015-.234.062-.484h-7.5c.063.25.063.375.063.485 0 .125 0 .25-.063.5h7.5zm0 0"/></svg><svg overflow="visible" x="76.054" y="6.507"><path d="M4.406-4.453a1.836 1.836 0 00-.453-.078c-.64 0-1.547.718-2.765 2.265l.265.094L2.5-6.562l-.234-.204c-.547.25-.891.329-1.704.391l-.109.453h.656c.235 0 .172-.078.172.078 0 .063 0 .14-.031.203L.797-3.266C.672-2.594.5-1.984 0-.094l.188.188.843-.188.25-1.203c.078-.422.266-.734.422-.875C2.266-.656 2.734.078 2.984.078c.125 0 .454-.156.875-.422l.516-.328-.172-.406-.61.297c-.124.078-.077.062-.155.062-.11 0-.063-.031-.141-.172-.344-.562-.516-.953-.875-2l.078-.062c.594-.547.922-.719 1.406-.719.078 0 .172.016.453.078l.22-.797zm0 0"/></svg><svg overflow="visible" x="70.937" y="19.629"><path d="M13.938 2.344h-.61l-.094.937c-.093.922-.156.86-3.625.86H2.531l5.11-7.672-4.72-7.453h5.767c3.343 0 3.578-.032 3.624.53l.094 1.126h.75a16.115 16.115 0 01-.062-1.281c0-.36.015-.61.062-1.266l-8.984.047-3.281-.047-.079.563 5.313 8.39L.812 5.063v.578l7.344-.063 5.828.063c0-1.344.016-2.407.094-3.297zm0 0"/></svg><svg overflow="visible" x="71.073" y="32.79"><path d="M2.516-.984l-.157-.25-.406.25c-.297.171-.375.218-.469.218-.078 0 .016.063.016-.046 0-.079.016-.157.063-.344l.75-2.688c.046-.156.062-.234.062-.328 0-.14-.234-.36-.39-.36-.22 0-.688.22-1.407.688l-.344.235.172.421.5-.28c.266-.173.266-.173.344-.173.11 0 0-.062 0 .047 0 .078-.031.266-.063.39l-.64 2.126c-.094.281-.125.5-.125.687 0 .204.266.47.437.47.266 0 .72-.235 1.735-.923zm.28-4.72c0-.202-.28-.484-.483-.484-.297 0-.735.422-.735.72 0 .218.313.5.547.5.313 0 .672-.391.672-.735zm0 0"/></svg><svg overflow="visible" x="73.966" y="32.79"><path d="M6.156-3.047c-.015-.094-.015-.187-.015-.265 0-.094 0-.188.046-.407H.516c.046.219.062.313.062.406 0 .079-.015.172-.062.391h5.671zm0 1.938c-.015-.079-.015-.172-.015-.266 0-.078 0-.172.046-.39H.516c.046.218.062.312.062.39 0 .094-.015.188-.062.406h5.671zm0 0"/></svg><svg overflow="visible" x="80.689" y="32.79"><path d="M4.719-3.375c0-1.938-.782-2.984-2.094-2.984C1.125-6.36.219-5.141.219-3c0 1.031.234 2.031.578 2.453.328.438.984.719 1.578.719 1.469 0 2.344-1.281 2.344-3.547zm-1.125.453c0 1.875-.203 2.531-1.078 2.531-.938 0-1.188-.765-1.188-2.921 0-1.876.203-2.47 1.125-2.47.938 0 1.14.735 1.14 2.86zm0 0"/></svg><svg overflow="visible" x="101.796" y="19.629"><path d="M7.063-17.313c-.063-.046-.125-.093-.188-.156-.063-.047-.11-.11-.219-.312C3.47-14.594 1.563-10.328 1.563-5.5v4.766c0 4.828 1.906 9.093 5.093 12.28.11-.202.157-.265.219-.327.063-.047.125-.11.313-.203C4.14 7.953 2.796 3.89 2.796-.734V-5.5c0-4.64 1.344-8.688 4.39-11.766zm0 0"/></svg><svg overflow="visible" x="109.914" y="11.021"><path d="M5.36-5.922a2.204 2.204 0 00-.563-.11c-.797 0-1.89.97-3.39 3.063l.25.094 1.28-5.938-.265-.234c-.75.375-1.063.438-2.047.531l-.094.5h.735c.28 0 .265-.046.265.157 0 .109-.015.203-.031.296L.937-4.358c-.156.89-.359 1.718-1 4.25l.204.234.968-.25.297-1.578c.11-.578.36-1.016.61-1.281C2.766-.844 3.28.109 3.578.109c.156 0 .547-.187 1.078-.562l.61-.438-.204-.453-.671.375c-.172.094-.141.078-.25.078-.11 0-.094-.03-.204-.234-.421-.766-.656-1.313-1.109-2.734l.125-.125c.735-.72 1.188-.985 1.781-.985.094 0 .22.016.516.094l.266-1zm0 0"/></svg><svg overflow="visible" x="111.007" y="27.593"><path d="M2.969-1.25l-.172-.297-.453.297c-.36.234-.5.313-.625.313-.078 0-.016.03-.016-.11 0-.11 0-.203.078-.469l.922-3.64c.047-.203.063-.313.063-.422 0-.203-.22-.453-.422-.453-.266 0-.797.281-1.703.922l-.407.296.188.485.547-.36c.344-.218.375-.234.484-.234.11 0 .047-.031.047.11 0 .109-.047.359-.094.53L.625-1.405c-.11.375-.156.672-.156.922 0 .28.265.593.5.593.312 0 .844-.296 2.078-1.218zm.344-6.406c0-.282-.313-.61-.563-.61-.36 0-.844.516-.844.922 0 .297.328.625.625.625.375 0 .781-.484.781-.937zm0 0"/></svg><svg overflow="visible" x="115.616" y="19.629"><path d="M6.531-.734V-5.5c0-4.828-1.875-9.094-5.078-12.281-.11.203-.156.265-.219.312-.062.063-.125.11-.312.203 3.062 3.078 4.39 7.125 4.39 11.766v4.766c0 4.625-1.328 8.687-4.39 11.75.187.093.25.156.312.203.063.062.11.125.22.328C4.655 8.359 6.53 4.094 6.53-.734zm0 0"/></svg><svg overflow="visible" x="103.571" y="31.082"><path d="M18.39 1.328c-.093-.016-.171-.031-.25-.047-.078-.031-.062-.031-.265-.203-.36.922-1.11 1.063-2.453 1.063h-3.5c-1.422 0-2.438.375-2.735.75-.312-.375-1.312-.75-2.734-.75H2.97C1.609 2.14.844 2 .516 1.094.28 1.25.312 1.25.234 1.28c-.078.016-.156.032-.406.063.344.968 1.484 1.687 3.14 1.687h3.485c1.578 0 2.36.063 2.36.938.218-.078.296-.078.374-.078.094 0 .157 0 .376.078 0-.875.78-.938 2.359-.938h3.5c1.64 0 2.765-.719 3.125-1.687zm0 0"/></svg><svg overflow="visible" x="87.826" y="42.923"><path d="M.125-.672c0 .344.625.766 1.11.766.327 0 .921-.203 1.296-.469.844-.61 1.485-1.922 1.485-3.078 0-.344-.141-.781-.235-.922-.062-.078-.312-.156-.453-.156-.203 0-.61.11-.86.234-.452.234-.75.5-1.296 1.203L1.5-3l.766-3.547L2-6.797c-.625.313-.813.36-1.625.438l-.078.437h.656c.203 0 .094-.078.094.078 0 .063 0 .157-.016.203L.141-.766c-.016.032-.016.063-.016.094zm1.047-.36c0-.218.047-.468.125-.796.156-.703.328-1.031.672-1.406.297-.297.625-.516.875-.516.234 0 .156.078.156.5 0 .578-.188 1.328-.453 1.906-.297.61-.453.766-.922.766-.406 0-.453-.078-.453-.453zm0 0"/></svg><svg overflow="visible" x="91.922" y="42.923"><path d="M.11-3.563l.14.438.531-.344c.25-.172.203-.172.281-.172.094 0-.03-.062-.03.047 0 .078-.048.266-.079.39L.375-1.077c-.078.281-.125.5-.125.687 0 .204.297.47.469.47.234 0 .687-.235 1.61-.923l-.22-.422-.437.282c-.266.171-.313.218-.39.218-.063 0 .062.063.062-.046 0-.079.015-.157.062-.344l.688-2.688c.031-.156.047-.234.047-.328 0-.14-.25-.36-.407-.36-.203 0-.656.22-1.328.688l-.312.235zm1.218-1.906c0 .219.328.5.547.5.281 0 .656-.39.656-.734 0-.203-.312-.484-.5-.484-.265 0-.703.421-.703.718zm0 0"/></svg><svg overflow="visible" x="94.381" y="42.923"><path d="M.016-3.563l.156.438.516-.344c.328-.219.218-.187.28-.187.095 0-.03-.047-.03.078 0 .453-.36 2.156-.72 3.422l.157.265c.313-.093.516-.14.875-.203.188-1.218.328-1.703.734-2.312.485-.735 1-1.25 1.407-1.25.093 0-.047-.063-.047.078 0 .156-.031.344-.094.625l-.469 1.875c-.078.328-.11.531-.11.672 0 .219.298.484.454.484.234 0 .688-.219 1.625-.922l-.234-.422-.438.282c-.25.156-.297.218-.39.218-.063 0 .078.063.078-.046 0-.032 0-.141.015-.172l.578-2.438c.063-.25.094-.5.094-.656 0-.203-.281-.453-.453-.453-.375 0-1.125.375-1.64.86-.344.312-.594.608-1.047 1.25l.328.108.328-1.421C2-3.906 2.03-4 2.03-4.11c0-.188-.265-.422-.39-.422-.188 0-.672.234-1.329.687L0-3.609zm0 0"/></svg><svg overflow="visible" x="99.3" y="42.923"><path d="M-.047-1.484c0 .937.594 1.578 1.328 1.578.485 0 1.157-.266 1.547-.64.547-.516 1-1.626 1-2.516 0-.829-.64-1.47-1.375-1.47-.375 0-.937.188-1.328.47-.719.515-1.172 1.5-1.172 2.578zm1.063.015c0-1 .28-1.984.718-2.343.11-.094.188-.11.391-.11.547 0 .64.266.64 1 0 .86-.218 1.688-.609 2.156C2-.578 1.906-.5 1.641-.5c-.516 0-.625-.266-.625-.969zm0 0"/></svg><svg overflow="visible" x="103.228" y="42.923"><path d="M.016-3.563l.156.438.516-.344c.328-.219.218-.187.28-.187.095 0-.03-.047-.03.078 0 .453-.36 2.156-.72 3.422l.063.265.922-.203.219-1c.203-.968.39-1.406.875-1.937.375-.406.64-.625.89-.625.063 0-.093-.063-.093.047 0 .312-.188 1.312-.563 2.859l-.14.594.109.265.906-.203.203-1.031c.141-.719.391-1.297.782-1.719.484-.547.796-.812 1.078-.812.062 0-.078-.063-.078.078 0 .219-.016.344-.22 1.11l-.39 1.39c-.062.25-.11.484-.11.672 0 .219.298.484.454.484.234 0 .688-.219 1.625-.922l-.234-.422-.438.282c-.25.156-.297.218-.39.218-.063 0 .062.063.062-.046 0-.079.031-.157.063-.344l.671-2.625c.032-.156.063-.297.063-.36 0-.156-.281-.39-.422-.39-.25 0-.734.203-1.266.578-.562.39-.875.703-1.296 1.312l.312.11.266-1.219c.046-.172.062-.313.062-.375 0-.172-.266-.406-.406-.406-.266 0-.813.234-1.297.61-.39.296-.578.483-1.14 1.265l.327.094.282-1.172c.031-.141.062-.282.062-.391 0-.172-.265-.406-.39-.406-.188 0-.672.218-1.329.687L0-3.609zm0 0"/></svg><svg overflow="visible" x="110.111" y="42.923"><path d="M.11-3.563l.14.438.531-.344c.25-.172.203-.172.281-.172.094 0-.03-.062-.03.047 0 .078-.048.266-.079.39L.375-1.077c-.078.281-.125.5-.125.687 0 .204.297.47.469.47.234 0 .687-.235 1.61-.923l-.22-.422-.437.282c-.266.171-.313.218-.39.218-.063 0 .062.063.062-.046 0-.079.015-.157.062-.344l.688-2.688c.031-.156.047-.234.047-.328 0-.14-.25-.36-.407-.36-.203 0-.656.22-1.328.688l-.312.235zm1.218-1.906c0 .219.328.5.547.5.281 0 .656-.39.656-.734 0-.203-.312-.484-.5-.484-.265 0-.703.421-.703.718zm0 0"/></svg><svg overflow="visible" x="112.57" y="42.923"><path d="M-.156-.719c0 .375.328.813.5.813s.64-.219.969-.5c.375-.328.734-.75 1.218-1.438l-.328-.093-.25 1.125a1.58 1.58 0 00-.062.453c0 .203.28.453.406.453.203 0 .703-.281 1.5-.938l-.188-.515c-.28.25-.296.25-.343.296-.282.235-.266.282-.407.282-.078 0 .063.062.063-.078v-.094l.828-3.39-.25-.235-.36.203c-.312-.125-.484-.156-.718-.156a1.4 1.4 0 00-.656.156c-.563.281-.985.578-1.204 1.016L.5-3.266c-.39.797-.656 1.844-.656 2.547zm1.015-.297c0-.562.235-1.546.532-2.28.218-.5.25-.532.671-.532.204 0 .376.031.547.094-.171.89-.296 1.25-.578 1.703-.5.734-.906 1.25-1.203 1.25-.11 0 .031.015.031-.235zm0 0"/></svg><svg overflow="visible" x="116.498" y="42.923"><path d="M.125-.39c0 .203.297.468.453.468.235 0 .703-.234 1.625-.922l-.234-.422-.438.282c-.25.171-.297.218-.39.218-.063 0 .078.063.078-.046 0-.11.015-.22.047-.313l1.156-5.422-.266-.25c-.64.313-.828.36-1.64.438l-.079.437h.657c.203 0 .093-.078.093.063 0 .109-.03.312-.046.421L.297-1.296C.172-.844.125-.594.125-.39zm0 0"/></svg><svg overflow="visible" x="121.161" y="42.923"><path d="M.36-3.453h.53L.423-1.078C.375-.86.297-.641.297-.406c0 .219.297.484.469.484.296 0 .734-.203 1.437-.765.156-.125.11-.094.344-.282l-.235-.422-.593.407c-.266.171-.297.218-.407.218-.062 0 .079.063.079-.046 0-.22.109-.907.375-2.22l.093-.421h.938l.172-.735c-.563.063-.86.079-.985.079.11-.688.204-1.125.375-1.61l-.25-.328c-.359.203-.453.281-.921.453l-.22 1.532a4.276 4.276 0 01-.78.28l-.047.329zm0 0"/></svg><svg overflow="visible" x="123.939" y="42.923"><path d="M-.063-1.125A1.23 1.23 0 001.157.094c.5 0 1.124-.281 2.015-1l-.188-.453-.437.296c-.469.344-.75.485-1.063.485-.437 0-.5-.203-.5-.735 0-.234.032-.453.063-.609l.547-.14a3.93 3.93 0 00.61-.235c.765-.328 1.296-.86 1.296-1.406 0-.422-.484-.828-.938-.828-.578 0-1.671.625-2.03 1.203-.266.422-.595 1.578-.595 2.203zm1.172-1.11l.079-.328c.14-.578.265-.874.5-1.093.171-.156.312-.235.546-.235.25 0 .22.047.22.329 0 .39-.11.671-.563.89-.25.11-.579.219-.735.25zm0 0"/></svg><svg overflow="visible" x="127.38" y="42.923"><path d="M.031-3.563l.157.438.515-.344C.953-3.64.922-3.64 1-3.64c.094 0-.047-.062-.047.063 0 .515-.375 2.328-.75 3.5l.25.172c.25-.078.438-.11.813-.172l.25-1.172c.156-.734.312-1.11.687-1.61.313-.39.422-.53.61-.53.124 0 .078 0 .218.156h.406c.032-.47.079-.75.157-1.157-.297-.125-.328-.14-.375-.14-.281 0-.688.25-1.016.703-.297.437-.656.953-.875 1.437h.375l.234-1.125c.047-.187.11-.39.11-.593 0-.188-.266-.422-.39-.422-.188 0-.673.218-1.313.687l-.328.235zm0 0"/></svg><svg overflow="visible" x="130.821" y="42.923"><path d="M.016-3.563l.156.438.516-.344c.328-.219.218-.187.28-.187.095 0-.03-.047-.03.078 0 .453-.36 2.156-.72 3.422l.063.265.922-.203.219-1c.203-.968.39-1.406.875-1.937.375-.406.64-.625.89-.625.063 0-.093-.063-.093.047 0 .312-.188 1.312-.563 2.859l-.14.594.109.265.906-.203.203-1.031c.141-.719.391-1.297.782-1.719.484-.547.796-.812 1.078-.812.062 0-.078-.063-.078.078 0 .219-.016.344-.22 1.11l-.39 1.39c-.062.25-.11.484-.11.672 0 .219.298.484.454.484.234 0 .688-.219 1.625-.922l-.234-.422-.438.282c-.25.156-.297.218-.39.218-.063 0 .062.063.062-.046 0-.079.031-.157.063-.344l.671-2.625c.032-.156.063-.297.063-.36 0-.156-.281-.39-.422-.39-.25 0-.734.203-1.266.578-.562.39-.875.703-1.296 1.312l.312.11.266-1.219c.046-.172.062-.313.062-.375 0-.172-.266-.406-.406-.406-.266 0-.813.234-1.297.61-.39.296-.578.483-1.14 1.265l.327.094.282-1.172c.031-.141.062-.282.062-.391 0-.172-.265-.406-.39-.406-.188 0-.672.218-1.329.687L0-3.609zm0 0"/></svg><svg overflow="visible" x="140.361" y="19.63"><path d="M2.516-3.125c0-.422-.407-.844-.844-.844-.422 0-.86.422-.86.844 0 .438.438.86.86.86.437 0 .844-.422.844-.86zm0 0"/></svg><svg overflow="visible" x="149.351" y="19.63"><path d="M4.203-7.828a.735.735 0 01-.187-.14c-.063-.063-.11-.126-.22-.329-1.593 1.61-2.5 3.266-2.5 4.781v.797c0 1.516.907 3.172 2.5 4.781.11-.203.157-.265.22-.328.062-.062.125-.109.312-.203C2.875.063 2.281-1.344 2.281-2.719v-.797c0-1.39.594-2.78 2.047-4.25zm0 0"/></svg><svg overflow="visible" x="154.42" y="19.63"><path d="M5.125-.094v-.484l-.75-.047c-.656-.031-.64-.031-.64-.656v-7.172l-.313-.125c-.875.469-1.61.781-2.86 1.219l.125.718h.235l1.547-.687.031-.016c.063 0-.047-.015-.047.266v5.797c0 .625.016.625-.64.656L1-.578v.625L3.125 0l2 .047zm0 0"/></svg><svg overflow="visible" x="163.052" y="19.63"><path d="M8.266-2.766a1.332 1.332 0 01-.047-.359c0-.11.015-.234.062-.484h-7.5c.063.25.063.375.063.484 0 .125 0 .25-.063.5h7.5zm0 0"/></svg><svg overflow="visible" x="174.792" y="19.63"><path d="M3.703-5.516c-.453.047-.86.063-1.156.063.172-.984.297-1.578.531-2.25l-.25-.328a7.16 7.16 0 01-1.094.531l-.296 2.031c-.391.203-.704.328-1.063.407l-.047.406h1l-.64 3.25C.625-1.11.53-.813.53-.5c0 .297.266.61.5.61.422 0 .922-.282 1.86-1.032.218-.172.14-.125.437-.36l-.25-.437-.672.469c-.36.25-.484.313-.625.313-.093 0-.031.046-.031-.11 0-.297.156-1.234.516-3l.14-.61h1.266l.203-.89zm0 0"/></svg><svg overflow="visible" x="178.833" y="19.63"><path d="M3.766-2.719v-.797c0-1.515-.907-3.171-2.516-4.78-.11.202-.156.265-.203.327-.063.063-.125.11-.313.203 1.438 1.47 2.032 2.86 2.032 4.25v.797c0 1.375-.594 2.781-2.032 4.25.188.094.25.14.313.203.047.063.094.125.203.329C2.86.452 3.766-1.204 3.766-2.72zm0 0"/></svg><svg overflow="visible" x="183.91" y="16.091"><path d="M4.406-4.453a1.836 1.836 0 00-.453-.078c-.64 0-1.547.718-2.765 2.265l.265.094L2.5-6.562l-.234-.204c-.547.25-.891.329-1.704.391l-.109.453h.656c.235 0 .172-.078.172.078 0 .063 0 .14-.031.203L.797-3.266C.672-2.594.5-1.984 0-.094l.188.188.843-.188.25-1.203c.078-.422.266-.734.422-.875C2.266-.656 2.734.078 2.984.078c.125 0 .454-.156.875-.422l.516-.328-.172-.406-.61.297c-.124.078-.077.062-.155.062-.11 0-.063-.031-.141-.172-.344-.562-.516-.953-.875-2l.078-.062c.594-.547.922-.719 1.406-.719.078 0 .172.016.453.078l.22-.797zm0 0"/></svg><svg overflow="visible" x="188.572" y="16.091"><path d="M6.156-2.078c-.015-.094-.015-.172-.015-.266 0-.094 0-.172.046-.39H.516c.046.218.062.296.062.39 0 .094-.015.172-.062.39h5.671zm0 0"/></svg><svg overflow="visible" x="195.296" y="16.091"><path d="M2.516-.984l-.157-.25-.406.25c-.297.171-.375.218-.469.218-.078 0 .016.063.016-.046 0-.079.016-.157.063-.344l.75-2.688c.046-.156.062-.234.062-.328 0-.14-.234-.36-.39-.36-.22 0-.688.22-1.407.688l-.344.235.172.421.5-.28c.266-.173.266-.173.344-.173.11 0 0-.062 0 .047 0 .078-.031.266-.063.39l-.64 2.126c-.094.281-.125.5-.125.687 0 .204.266.47.437.47.266 0 .72-.235 1.735-.923zm.28-4.72c0-.202-.28-.484-.483-.484-.297 0-.735.422-.735.72 0 .218.313.5.547.5.313 0 .672-.391.672-.735zm0 0"/></svg><svg overflow="visible" x="201.353" y="19.63"><path d="M2.516-3.125c0-.422-.407-.844-.844-.844-.422 0-.86.422-.86.844 0 .438.438.86.86.86.437 0 .844-.422.844-.86zm0 0"/></svg><svg overflow="visible" x="207.355" y="19.63"><path d="M3.703-5.516c-.453.047-.86.063-1.156.063.172-.984.297-1.578.531-2.25l-.25-.328a7.16 7.16 0 01-1.094.531l-.296 2.031c-.391.203-.704.328-1.063.407l-.047.406h1l-.64 3.25C.625-1.11.53-.813.53-.5c0 .297.266.61.5.61.422 0 .922-.282 1.86-1.032.218-.172.14-.125.437-.36l-.25-.437-.672.469c-.36.25-.484.313-.625.313-.093 0-.031.046-.031-.11 0-.297.156-1.234.516-3l.14-.61h1.266l.203-.89zm0 0"/></svg><svg overflow="visible" x="211.398" y="16.091"><path d="M2.516-.984l-.157-.25-.406.25c-.297.171-.375.218-.469.218-.078 0 .016.063.016-.046 0-.079.016-.157.063-.344l.75-2.688c.046-.156.062-.234.062-.328 0-.14-.234-.36-.39-.36-.22 0-.688.22-1.407.688l-.344.235.172.421.5-.28c.266-.173.266-.173.344-.173.11 0 0-.062 0 .047 0 .078-.031.266-.063.39l-.64 2.126c-.094.281-.125.5-.125.687 0 .204.266.47.437.47.266 0 .72-.235 1.735-.923zm.28-4.72c0-.202-.28-.484-.483-.484-.297 0-.735.422-.735.72 0 .218.313.5.547.5.313 0 .672-.391.672-.735zm0 0"/></svg><svg overflow="visible" x="149.354" y="21.59"><path d="M10.563 2.11h-5.11C2.531 2.11.875 2.062.516 1.046c-.235.156-.204.172-.282.203-.078.016-.156.031-.406.063.36 1.015 2.36 1.921 5.625 1.921h5.25V2.11zm0 0"/></svg><svg overflow="visible" x="157.543" y="21.59"><path d="M10.578 3.094v-.985H-.14v1.125h10.72zm0 0"/></svg><svg overflow="visible" x="163.437" y="21.59"><path d="M10.578 3.094v-.985H-.14v1.125h10.72zm0 0"/></svg><svg overflow="visible" x="171.507" y="21.59"><path d="M21.281 3.094v-.985h-5.484c-2.86 0-4.735.563-5.235 1.125-.5-.562-2.343-1.125-5.203-1.125h-5.5v1.125h5.5c3.188 0 4.844-.062 4.844.938.203-.078.297-.078.375-.078.078 0 .156 0 .375.078 0-1 1.656-.938 4.844-.938h5.484zm0 0"/></svg><svg overflow="visible" x="190.265" y="21.59"><path d="M10.578 3.094v-.985H-.14v1.125h10.72zm0 0"/></svg><svg overflow="visible" x="196.159" y="21.59"><path d="M10.578 3.094v-.985H-.14v1.125h10.72zm0 0"/></svg><svg overflow="visible" x="204.228" y="21.59"><path d="M10.578 1.297c-.078-.016-.172-.031-.234-.047-.094-.031-.063-.047-.281-.203-.376 1.016-2.032 1.062-4.938 1.062H-.141v1.125h5.266c3.25 0 5.25-.906 5.625-1.921zm0 0"/></svg><svg overflow="visible" x="152.908" y="33.634"><path d="M-.203 2.36l.125.109c.266-.094.437-.14.89-.203L1.172.03 1.094 0c.234.078.36.094.468.094.485 0 1.641-.672 2.016-1.235.36-.546.719-1.609.719-2.265 0-.594-.39-1.125-.703-1.125-.375 0-.969.281-1.438.687-.36.313-.547.531-.86 1.063l.329.094.203-1.047c.031-.157.047-.297.047-.391 0-.172-.25-.406-.375-.406-.188 0-.672.218-1.328.687l-.313.235.172.484.516-.344c.25-.172.219-.172.297-.172.078 0-.047-.062-.047.063 0 .078-.016.25-.031.344L.25-.204l-.438 2.126-.078.375zm1.5-3.016l.156-.938c.188-1.125.953-2.156 1.688-2.156.234 0 .14.063.14.469 0 .719-.297 1.672-.765 2.344-.188.25-.329.359-.688.359-.266 0-.36-.031-.531-.125zm0 0"/></svg><svg overflow="visible" x="157.331" y="33.634"><path d="M-.047-1.484c0 .937.594 1.578 1.328 1.578.485 0 1.157-.266 1.547-.64.547-.516 1-1.626 1-2.516 0-.829-.64-1.47-1.375-1.47-.375 0-.937.188-1.328.47-.719.515-1.172 1.5-1.172 2.578zm1.063.015c0-1 .28-1.984.718-2.343.11-.094.188-.11.391-.11.547 0 .64.266.64 1 0 .86-.218 1.688-.609 2.156C2-.578 1.906-.5 1.641-.5c-.516 0-.625-.266-.625-.969zm0 0"/></svg><svg overflow="visible" x="161.259" y="33.634"><path d="M.125-.39c0 .203.297.468.453.468.235 0 .703-.234 1.625-.922l-.234-.422-.438.282c-.25.171-.297.218-.39.218-.063 0 .078.063.078-.046 0-.11.015-.22.047-.313l1.156-5.422-.266-.25c-.64.313-.828.36-1.64.438l-.079.437h.657c.203 0 .093-.078.093.063 0 .109-.03.312-.046.421L.297-1.296C.172-.844.125-.594.125-.39zm0 0"/></svg><svg overflow="visible" x="163.506" y="33.634"><path d="M-.266 1.625c0 .375.516.813.922.813.938 0 2.094-1.22 2.61-2.86L4.53-4.344l-.234-.203c-.313.11-.516.172-.89.203l-.329 1.282c-.11.421-.36.968-.656 1.406-.313.437-.594.797-.797.797-.188 0 .016-.297.016-.407l.14-1.718c.016-.266.032-.61.032-.86 0-.39-.25-.687-.391-.687-.125 0-.39.093-.813.39l-.796.563.234.406.656-.39c.047-.032.016-.063.078-.063.235 0 0 .313 0 .453L.625-1.016v.36c-.016.36.344.75.563.75.328 0 1.203-.781 1.875-1.782l-.329-.093-.437 1.5C1.844 1.297 1.594 1.797.984 1.797c-.312 0-.359-.094-.359-.406 0-.047 0-.11.016-.25L.312 1l-.562.39c-.016.126-.016.188-.016.235zm0 0"/></svg><svg overflow="visible" x="167.93" y="33.634"><path d="M.016-3.563l.156.438.516-.344c.328-.219.218-.187.28-.187.095 0-.03-.047-.03.078 0 .453-.36 2.156-.72 3.422l.157.265c.313-.093.516-.14.875-.203.188-1.218.328-1.703.734-2.312.485-.735 1-1.25 1.407-1.25.093 0-.047-.063-.047.078 0 .156-.031.344-.094.625l-.469 1.875c-.078.328-.11.531-.11.672 0 .219.298.484.454.484.234 0 .688-.219 1.625-.922l-.234-.422-.438.282c-.25.156-.297.218-.39.218-.063 0 .078.063.078-.046 0-.032 0-.141.015-.172l.578-2.438c.063-.25.094-.5.094-.656 0-.203-.281-.453-.453-.453-.375 0-1.125.375-1.64.86-.344.312-.594.608-1.047 1.25l.328.108.328-1.421C2-3.906 2.03-4 2.03-4.11c0-.188-.265-.422-.39-.422-.188 0-.672.234-1.329.687L0-3.609zm0 0"/></svg><svg overflow="visible" x="172.849" y="33.634"><path d="M-.047-1.484c0 .937.594 1.578 1.328 1.578.485 0 1.157-.266 1.547-.64.547-.516 1-1.626 1-2.516 0-.829-.64-1.47-1.375-1.47-.375 0-.937.188-1.328.47-.719.515-1.172 1.5-1.172 2.578zm1.063.015c0-1 .28-1.984.718-2.343.11-.094.188-.11.391-.11.547 0 .64.266.64 1 0 .86-.218 1.688-.609 2.156C2-.578 1.906-.5 1.641-.5c-.516 0-.625-.266-.625-.969zm0 0"/></svg><svg overflow="visible" x="176.777" y="33.634"><path d="M.016-3.563l.156.438.516-.344c.328-.219.218-.187.28-.187.095 0-.03-.047-.03.078 0 .453-.36 2.156-.72 3.422l.063.265.922-.203.219-1c.203-.968.39-1.406.875-1.937.375-.406.64-.625.89-.625.063 0-.093-.063-.093.047 0 .312-.188 1.312-.563 2.859l-.14.594.109.265.906-.203.203-1.031c.141-.719.391-1.297.782-1.719.484-.547.796-.812 1.078-.812.062 0-.078-.063-.078.078 0 .219-.016.344-.22 1.11l-.39 1.39c-.062.25-.11.484-.11.672 0 .219.298.484.454.484.234 0 .688-.219 1.625-.922l-.234-.422-.438.282c-.25.156-.297.218-.39.218-.063 0 .062.063.062-.046 0-.079.031-.157.063-.344l.671-2.625c.032-.156.063-.297.063-.36 0-.156-.281-.39-.422-.39-.25 0-.734.203-1.266.578-.562.39-.875.703-1.296 1.312l.312.11.266-1.219c.046-.172.062-.313.062-.375 0-.172-.266-.406-.406-.406-.266 0-.813.234-1.297.61-.39.296-.578.483-1.14 1.265l.327.094.282-1.172c.031-.141.062-.282.062-.391 0-.172-.265-.406-.39-.406-.188 0-.672.218-1.329.687L0-3.609zm0 0"/></svg><svg overflow="visible" x="183.659" y="33.634"><path d="M.11-3.563l.14.438.531-.344c.25-.172.203-.172.281-.172.094 0-.03-.062-.03.047 0 .078-.048.266-.079.39L.375-1.077c-.078.281-.125.5-.125.687 0 .204.297.47.469.47.234 0 .687-.235 1.61-.923l-.22-.422-.437.282c-.266.171-.313.218-.39.218-.063 0 .062.063.062-.046 0-.079.015-.157.062-.344l.688-2.688c.031-.156.047-.234.047-.328 0-.14-.25-.36-.407-.36-.203 0-.656.22-1.328.688l-.312.235zm1.218-1.906c0 .219.328.5.547.5.281 0 .656-.39.656-.734 0-.203-.312-.484-.5-.484-.265 0-.703.421-.703.718zm0 0"/></svg><svg overflow="visible" x="186.119" y="33.634"><path d="M-.156-.719c0 .375.328.813.5.813s.64-.219.969-.5c.375-.328.734-.75 1.218-1.438l-.328-.093-.25 1.125a1.58 1.58 0 00-.062.453c0 .203.28.453.406.453.203 0 .703-.281 1.5-.938l-.188-.515c-.28.25-.296.25-.343.296-.282.235-.266.282-.407.282-.078 0 .063.062.063-.078v-.094l.828-3.39-.25-.235-.36.203c-.312-.125-.484-.156-.718-.156a1.4 1.4 0 00-.656.156c-.563.281-.985.578-1.204 1.016L.5-3.266c-.39.797-.656 1.844-.656 2.547zm1.015-.297c0-.562.235-1.546.532-2.28.218-.5.25-.532.671-.532.204 0 .376.031.547.094-.171.89-.296 1.25-.578 1.703-.5.734-.906 1.25-1.203 1.25-.11 0 .031.015.031-.235zm0 0"/></svg><svg overflow="visible" x="190.047" y="33.634"><path d="M.125-.39c0 .203.297.468.453.468.235 0 .703-.234 1.625-.922l-.234-.422-.438.282c-.25.171-.297.218-.39.218-.063 0 .078.063.078-.046 0-.11.015-.22.047-.313l1.156-5.422-.266-.25c-.64.313-.828.36-1.64.438l-.079.437h.657c.203 0 .093-.078.093.063 0 .109-.03.312-.046.421L.297-1.296C.172-.844.125-.594.125-.39zm0 0"/></svg><svg overflow="visible" x="194.709" y="33.634"><path d="M.36-3.453h.53L.423-1.078C.375-.86.297-.641.297-.406c0 .219.297.484.469.484.296 0 .734-.203 1.437-.765.156-.125.11-.094.344-.282l-.235-.422-.593.407c-.266.171-.297.218-.407.218-.062 0 .079.063.079-.046 0-.22.109-.907.375-2.22l.093-.421h.938l.172-.735c-.563.063-.86.079-.985.079.11-.688.204-1.125.375-1.61l-.25-.328c-.359.203-.453.281-.921.453l-.22 1.532a4.276 4.276 0 01-.78.28l-.047.329zm0 0"/></svg><svg overflow="visible" x="197.487" y="33.634"><path d="M-.063-1.125A1.23 1.23 0 001.157.094c.5 0 1.124-.281 2.015-1l-.188-.453-.437.296c-.469.344-.75.485-1.063.485-.437 0-.5-.203-.5-.735 0-.234.032-.453.063-.609l.547-.14a3.93 3.93 0 00.61-.235c.765-.328 1.296-.86 1.296-1.406 0-.422-.484-.828-.938-.828-.578 0-1.671.625-2.03 1.203-.266.422-.595 1.578-.595 2.203zm1.172-1.11l.079-.328c.14-.578.265-.874.5-1.093.171-.156.312-.235.546-.235.25 0 .22.047.22.329 0 .39-.11.671-.563.89-.25.11-.579.219-.735.25zm0 0"/></svg><svg overflow="visible" x="200.928" y="33.634"><path d="M.031-3.563l.157.438.515-.344C.953-3.64.922-3.64 1-3.64c.094 0-.047-.062-.047.063 0 .515-.375 2.328-.75 3.5l.25.172c.25-.078.438-.11.813-.172l.25-1.172c.156-.734.312-1.11.687-1.61.313-.39.422-.53.61-.53.124 0 .078 0 .218.156h.406c.032-.47.079-.75.157-1.157-.297-.125-.328-.14-.375-.14-.281 0-.688.25-1.016.703-.297.437-.656.953-.875 1.437h.375l.234-1.125c.047-.187.11-.39.11-.593 0-.188-.266-.422-.39-.422-.188 0-.673.218-1.313.687l-.328.235zm0 0"/></svg><svg overflow="visible" x="204.37" y="33.634"><path d="M.016-3.563l.156.438.516-.344c.328-.219.218-.187.28-.187.095 0-.03-.047-.03.078 0 .453-.36 2.156-.72 3.422l.063.265.922-.203.219-1c.203-.968.39-1.406.875-1.937.375-.406.64-.625.89-.625.063 0-.093-.063-.093.047 0 .312-.188 1.312-.563 2.859l-.14.594.109.265.906-.203.203-1.031c.141-.719.391-1.297.782-1.719.484-.547.796-.812 1.078-.812.062 0-.078-.063-.078.078 0 .219-.016.344-.22 1.11l-.39 1.39c-.062.25-.11.484-.11.672 0 .219.298.484.454.484.234 0 .688-.219 1.625-.922l-.234-.422-.438.282c-.25.156-.297.218-.39.218-.063 0 .062.063.062-.046 0-.079.031-.157.063-.344l.671-2.625c.032-.156.063-.297.063-.36 0-.156-.281-.39-.422-.39-.25 0-.734.203-1.266.578-.562.39-.875.703-1.296 1.312l.312.11.266-1.219c.046-.172.062-.313.062-.375 0-.172-.266-.406-.406-.406-.266 0-.813.234-1.297.61-.39.296-.578.483-1.14 1.265l.327.094.282-1.172c.031-.141.062-.282.062-.391 0-.172-.265-.406-.39-.406-.188 0-.672.218-1.329.687L0-3.609zm0 0"/></svg><svg overflow="visible" x="220.444" y="19.63"><path d="M2.516-3.125c0-.422-.407-.844-.844-.844-.422 0-.86.422-.86.844 0 .438.438.86.86.86.437 0 .844-.422.844-.86zm0 0"/></svg><svg overflow="visible" x="231.419" y="19.63"><path d="M7.063-17.313c-.063-.046-.125-.093-.188-.156-.063-.047-.11-.11-.219-.312C3.47-14.594 1.563-10.328 1.563-5.5v4.766c0 4.828 1.906 9.093 5.093 12.28.11-.202.157-.265.219-.327.063-.047.125-.11.313-.203C4.14 7.953 2.796 3.89 2.796-.734V-5.5c0-4.64 1.344-8.688 4.39-11.766zm0 0"/></svg><svg overflow="visible" x="240.743" y="11.021"><path d="M4.203-7.828a.735.735 0 01-.187-.14c-.063-.063-.11-.126-.22-.329-1.593 1.61-2.5 3.266-2.5 4.781v.797c0 1.516.907 3.172 2.5 4.781.11-.203.157-.265.22-.328.062-.062.125-.109.312-.203C2.875.063 2.281-1.344 2.281-2.719v-.797c0-1.39.594-2.78 2.047-4.25zm0 0"/></svg><svg overflow="visible" x="245.812" y="11.021"><path d="M5.36-5.922a2.204 2.204 0 00-.563-.11c-.797 0-1.89.97-3.39 3.063l.25.094 1.28-5.938-.265-.234c-.75.375-1.063.438-2.047.531l-.094.5h.735c.28 0 .265-.046.265.157 0 .109-.015.203-.031.296L.937-4.358c-.156.89-.359 1.718-1 4.25l.204.234.968-.25.297-1.578c.11-.578.36-1.016.61-1.281C2.766-.844 3.28.109 3.578.109c.156 0 .547-.187 1.078-.562l.61-.438-.204-.453-.671.375c-.172.094-.141.078-.25.078-.11 0-.094-.03-.204-.234-.421-.766-.656-1.313-1.109-2.734l.125-.125c.735-.72 1.188-.985 1.781-.985.094 0 .22.016.516.094l.266-1zm0 0"/></svg><svg overflow="visible" x="254.169" y="11.021"><path d="M8.266-2.766a1.332 1.332 0 01-.047-.359c0-.11.015-.234.062-.484h-7.5c.063.25.063.375.063.484 0 .125 0 .25-.063.5h7.5zm0 0"/></svg><svg overflow="visible" x="265.909" y="11.021"><path d="M2.969-1.25l-.172-.297-.453.297c-.36.234-.5.313-.625.313-.078 0-.016.03-.016-.11 0-.11 0-.203.078-.469l.922-3.64c.047-.203.063-.313.063-.422 0-.203-.22-.453-.422-.453-.266 0-.797.281-1.703.922l-.407.296.188.485.547-.36c.344-.218.375-.234.484-.234.11 0 .047-.031.047.11 0 .109-.047.359-.094.53L.625-1.405c-.11.375-.156.672-.156.922 0 .28.265.593.5.593.312 0 .844-.296 2.078-1.218zm.344-6.406c0-.282-.313-.61-.563-.61-.36 0-.844.516-.844.922 0 .297.328.625.625.625.375 0 .781-.484.781-.937zm0 0"/></svg><svg overflow="visible" x="269.424" y="11.021"><path d="M3.766-2.719v-.797c0-1.515-.907-3.171-2.516-4.78-.11.202-.156.265-.203.327-.063.063-.125.11-.313.203 1.438 1.47 2.032 2.86 2.032 4.25v.797c0 1.375-.594 2.781-2.032 4.25.188.094.25.14.313.203.047.063.094.125.203.329C2.86.452 3.766-1.204 3.766-2.72zm0 0"/></svg><svg overflow="visible" x="277.147" y="11.021"><path d="M2.516-3.125c0-.422-.407-.844-.844-.844-.422 0-.86.422-.86.844 0 .438.438.86.86.86.437 0 .844-.422.844-.86zm0 0"/></svg><svg overflow="visible" x="283.148" y="11.021"><path d="M8.484-4.719c0-.687-.437-1.312-.875-1.312-.156 0-.406.093-.5.187l-.671.625.265.453c.25-.171.266-.171.375-.171.328 0 .375.14.375.625 0 1.734-1.016 3.578-2.031 3.578-.36 0-.469-.344-.469-1 0-.563.11-1.344.25-1.86l.625-2.234-.187-.219-1.032.313-.375 1.89c-.14.735-.28 1.125-.625 1.766-.484.89-.828 1.344-1.187 1.344-.406 0-.563-.329-.563-1.016 0-1.422.454-2.5 1.704-3.906l-.235-.407c-.281.141-.437.188-.765.188-.5 0-.985-.047-1.47-.094-.155 0-.25.032-.5.125-.155.328-.327.844-.515 1.64h.5l.266-.64c.094-.203.203-.203.484-.203.219 0 .438.031.672.031.25 0 .406-.015.422-.015.062-.11-.063.015-.188.172C1.156-3.61.72-2.656.72-1.641c0 .985.562 1.766 1.187 1.766.766 0 1.485-.688 2.375-2.39l-.234-.094c-.11.515-.156.812-.156 1.093 0 .75.5 1.391 1.03 1.391.97 0 2.36-1.328 3.095-2.969.265-.594.468-1.406.468-1.875zm0 0"/></svg><svg overflow="visible" x="291.791" y="13.795"><path d="M2.516-.984l-.157-.25-.406.25c-.297.171-.375.218-.469.218-.078 0 .016.063.016-.046 0-.079.016-.157.063-.344l.75-2.688c.046-.156.062-.234.062-.328 0-.14-.234-.36-.39-.36-.22 0-.688.22-1.407.688l-.344.235.172.421.5-.28c.266-.173.266-.173.344-.173.11 0 0-.062 0 .047 0 .078-.031.266-.063.39l-.64 2.126c-.094.281-.125.5-.125.687 0 .204.266.47.437.47.266 0 .72-.235 1.735-.923zm.28-4.72c0-.202-.28-.484-.483-.484-.297 0-.735.422-.735.72 0 .218.313.5.547.5.313 0 .672-.391.672-.735zm0 0"/></svg><svg overflow="visible" x="297.848" y="11.021"><path d="M8.266-2.766a1.332 1.332 0 01-.047-.359c0-.11.015-.234.062-.484h-3.25v-3.266c-.25.063-.375.078-.484.078-.125 0-.25-.016-.5-.078v3.266H.78c.063.25.063.375.063.484 0 .125 0 .25-.063.5h3.266V.641c.25-.063.375-.079.5-.079.11 0 .234.016.484.079v-3.266h3.25zm0 0"/></svg><svg overflow="visible" x="309.588" y="11.021"><path d="M2.969-1.25l-.172-.297-.453.297c-.36.234-.5.313-.625.313-.078 0-.016.03-.016-.11 0-.11 0-.203.078-.469l.922-3.64c.047-.203.063-.313.063-.422 0-.203-.22-.453-.422-.453-.266 0-.797.281-1.703.922l-.407.296.188.485.547-.36c.344-.218.375-.234.484-.234.11 0 .047-.031.047.11 0 .109-.047.359-.094.53L.625-1.405c-.11.375-.156.672-.156.922 0 .28.265.593.5.593.312 0 .844-.296 2.078-1.218zm.344-6.406c0-.282-.313-.61-.563-.61-.36 0-.844.516-.844.922 0 .297.328.625.625.625.375 0 .781-.484.781-.937zm0 0"/></svg><svg overflow="visible" x="315.757" y="11.021"><path d="M2.516-3.125c0-.422-.407-.844-.844-.844-.422 0-.86.422-.86.844 0 .438.438.86.86.86.437 0 .844-.422.844-.86zm0 0"/></svg><svg overflow="visible" x="321.758" y="11.021"><path d="M8.484-4.719c0-.687-.437-1.312-.875-1.312-.156 0-.406.093-.5.187l-.671.625.265.453c.25-.171.266-.171.375-.171.328 0 .375.14.375.625 0 1.734-1.016 3.578-2.031 3.578-.36 0-.469-.344-.469-1 0-.563.11-1.344.25-1.86l.625-2.234-.187-.219-1.032.313-.375 1.89c-.14.735-.28 1.125-.625 1.766-.484.89-.828 1.344-1.187 1.344-.406 0-.563-.329-.563-1.016 0-1.422.454-2.5 1.704-3.906l-.235-.407c-.281.141-.437.188-.765.188-.5 0-.985-.047-1.47-.094-.155 0-.25.032-.5.125-.155.328-.327.844-.515 1.64h.5l.266-.64c.094-.203.203-.203.484-.203.219 0 .438.031.672.031.25 0 .406-.015.422-.015.062-.11-.063.015-.188.172C1.156-3.61.72-2.656.72-1.641c0 .985.562 1.766 1.187 1.766.766 0 1.485-.688 2.375-2.39l-.234-.094c-.11.515-.156.812-.156 1.093 0 .75.5 1.391 1.03 1.391.97 0 2.36-1.328 3.095-2.969.265-.594.468-1.406.468-1.875zm0 0"/></svg><svg overflow="visible" x="330.399" y="13.795"><path d="M2.516-.984l-.157-.25-.406.25c-.297.171-.375.218-.469.218-.078 0 .016.063.016-.046 0-.079.016-.157.063-.344l.75-2.688c.046-.156.062-.234.062-.328 0-.14-.234-.36-.39-.36-.22 0-.688.22-1.407.688l-.344.235.172.421.5-.28c.266-.173.266-.173.344-.173.11 0 0-.062 0 .047 0 .078-.031.266-.063.39l-.64 2.126c-.094.281-.125.5-.125.687 0 .204.266.47.437.47.266 0 .72-.235 1.735-.923zm.28-4.72c0-.202-.28-.484-.483-.484-.297 0-.735.422-.735.72 0 .218.313.5.547.5.313 0 .672-.391.672-.735zm0 0"/></svg><svg overflow="visible" x="333.301" y="13.795"><path d="M6.156-2.078c-.015-.094-.015-.172-.015-.266 0-.094 0-.172.046-.39H.516c.046.218.062.296.062.39 0 .094-.015.172-.062.39h5.671zm0 0"/></svg><svg overflow="visible" x="340.024" y="13.795"><path d="M4.266-.11V-.5l-.657-.031c-.515-.031-.468.015-.468-.453v-5.329l-.282-.093c-.625.297-1.312.562-2.375.906l.11.594h.234l1.25-.516.031-.016c.047 0-.078-.046-.078.172v4.282c0 .468.047.421-.469.453L.86-.5v.531L2.594 0l1.672.031zm0 0"/></svg><path d="M240.742 16.64H345.52" fill="none" stroke-width=".717" stroke="#000" stroke-miterlimit="10"/><svg overflow="visible" x="290.281" y="27.675"><path d="M5.36-5.922a2.204 2.204 0 00-.563-.11c-.797 0-1.89.97-3.39 3.063l.25.094 1.28-5.938-.265-.234c-.75.375-1.063.438-2.047.531l-.094.5h.735c.28 0 .265-.046.265.157 0 .109-.015.203-.031.296L.937-4.358c-.156.89-.359 1.718-1 4.25l.204.234.968-.25.297-1.578c.11-.578.36-1.016.61-1.281C2.766-.844 3.28.109 3.578.109c.156 0 .547-.187 1.078-.562l.61-.438-.204-.453-.671.375c-.172.094-.141.078-.25.078-.11 0-.094-.03-.204-.234-.421-.766-.656-1.313-1.109-2.734l.125-.125c.735-.72 1.188-.985 1.781-.985.094 0 .22.016.516.094l.266-1zm0 0"/></svg><svg overflow="visible" x="346.716" y="19.629"><path d="M6.531-.734V-5.5c0-4.828-1.875-9.094-5.078-12.281-.11.203-.156.265-.219.312-.062.063-.125.11-.312.203 3.062 3.078 4.39 7.125 4.39 11.766v4.766c0 4.625-1.328 8.687-4.39 11.75.187.093.25.156.312.203.063.062.11.125.22.328C4.655 8.359 6.53 4.094 6.53-.734zm0 0"/></svg><svg overflow="visible" x="229.437" y="31.082"><path d="M10.563 2.11h-5.11C2.531 2.11.875 2.062.516 1.046c-.235.156-.204.172-.282.203-.078.016-.156.031-.406.063.36 1.015 2.36 1.921 5.625 1.921h5.25V2.11zm0 0"/></svg><svg overflow="visible" x="238.822" y="31.082"><path d="M10.578 3.094v-.985H-.14v1.125h10.72zm0 0"/></svg><svg overflow="visible" x="247.19" y="31.082"><path d="M10.578 3.094v-.985H-.14v1.125h10.72zm0 0"/></svg><svg overflow="visible" x="255.559" y="31.082"><path d="M10.578 3.094v-.985H-.14v1.125h10.72zm0 0"/></svg><svg overflow="visible" x="263.928" y="31.082"><path d="M10.578 3.094v-.985H-.14v1.125h10.72zm0 0"/></svg><svg overflow="visible" x="272.296" y="31.082"><path d="M10.578 3.094v-.985H-.14v1.125h10.72zm0 0"/></svg><g><svg overflow="visible" x="281.562" y="31.082"><path d="M21.281 3.094v-.985h-5.484c-2.86 0-4.735.563-5.235 1.125-.5-.562-2.343-1.125-5.203-1.125h-5.5v1.125h5.5c3.188 0 4.844-.062 4.844.938.203-.078.297-.078.375-.078.078 0 .156 0 .375.078 0-1 1.656-.938 4.844-.938h5.484zm0 0"/></svg></g><g><svg overflow="visible" x="301.527" y="31.082"><path d="M10.578 3.094v-.985H-.14v1.125h10.72zm0 0"/></svg></g><g><svg overflow="visible" x="309.895" y="31.082"><path d="M10.578 3.094v-.985H-.14v1.125h10.72zm0 0"/></svg></g><g><svg overflow="visible" x="318.264" y="31.082"><path d="M10.578 3.094v-.985H-.14v1.125h10.72zm0 0"/></svg></g><g><svg overflow="visible" x="326.633" y="31.082"><path d="M10.578 3.094v-.985H-.14v1.125h10.72zm0 0"/></svg></g><g><svg overflow="visible" x="335.001" y="31.082"><path d="M10.578 3.094v-.985H-.14v1.125h10.72zm0 0"/></svg></g><g><svg overflow="visible" x="344.255" y="31.082"><path d="M10.578 1.297c-.078-.016-.172-.031-.234-.047-.094-.031-.063-.047-.281-.203-.376 1.016-2.032 1.062-4.938 1.062H-.141v1.125h5.266c3.25 0 5.25-.906 5.625-1.921zm0 0"/></svg></g><g><svg overflow="visible" x="269.961" y="43.126"><path d="M.016-3.563l.156.438.516-.344c.328-.219.218-.187.28-.187.095 0-.03-.047-.03.078 0 .453-.36 2.156-.72 3.422l.157.265c.313-.093.516-.14.875-.203.188-1.218.328-1.703.734-2.312.485-.735 1-1.25 1.407-1.25.093 0-.047-.063-.047.078 0 .156-.031.344-.094.625l-.469 1.875c-.078.328-.11.531-.11.672 0 .219.298.484.454.484.234 0 .688-.219 1.625-.922l-.234-.422-.438.282c-.25.156-.297.218-.39.218-.063 0 .078.063.078-.046 0-.032 0-.141.015-.172l.578-2.438c.063-.25.094-.5.094-.656 0-.203-.281-.453-.453-.453-.375 0-1.125.375-1.64.86-.344.312-.594.608-1.047 1.25l.328.108.328-1.421C2-3.906 2.03-4 2.03-4.11c0-.188-.265-.422-.39-.422-.188 0-.672.234-1.329.687L0-3.609zm0 0"/></svg><svg overflow="visible" x="274.88" y="43.126"><path d="M-.063-1.125A1.23 1.23 0 001.157.094c.5 0 1.124-.281 2.015-1l-.188-.453-.437.296c-.469.344-.75.485-1.063.485-.437 0-.5-.203-.5-.735 0-.234.032-.453.063-.609l.547-.14a3.93 3.93 0 00.61-.235c.765-.328 1.296-.86 1.296-1.406 0-.422-.484-.828-.938-.828-.578 0-1.671.625-2.03 1.203-.266.422-.595 1.578-.595 2.203zm1.172-1.11l.079-.328c.14-.578.265-.874.5-1.093.171-.156.312-.235.546-.235.25 0 .22.047.22.329 0 .39-.11.671-.563.89-.25.11-.579.219-.735.25zm0 0"/></svg><svg overflow="visible" x="278.321" y="43.126"><path d="M.188-3.11h.328l.203-.5c.062-.156.047-.124.265-.124.172 0 .329.015.5.015.172 0 .297 0 .188.016.11-.156.016-.063-.078.047C.797-2.734.437-2 .437-1.25c0 .734.516 1.344.985 1.344.562 0 1.156-.516 1.812-1.782l-.328-.093c-.078.39-.11.61-.11.812 0 .547.454 1.063.845 1.063.718 0 1.828-1.016 2.375-2.235.203-.437.359-1.03.359-1.39 0-.5-.422-1-.734-1-.125 0-.375.078-.438.14l-.516.485.25.422c.266-.172.22-.172.297-.172.235 0 .188.078.188.422C5.422-1.954 4.766-.61 4-.61c-.25 0-.25-.22-.25-.704 0-.421.078-1 .188-1.39l.468-1.64-.187-.204-.907.266-.265 1.39c-.11.563-.188.813-.438 1.297-.359.657-.546.985-.812.985-.313 0-.328-.22-.328-.72 0-1.062.312-1.812 1.25-2.874l-.203-.375c-.266.125-.375.156-.625.156-.36 0-.72-.031-1.079-.062C.704-4.5.625-4.47.376-4.36c-.125.218-.266.625-.422 1.25zm0 0"/></svg></g><g><svg overflow="visible" x="286.92" y="43.126"><path d="M.188-3.11h.328l.203-.5c.062-.156.047-.124.265-.124.172 0 .329.015.5.015.172 0 .297 0 .188.016.11-.156.016-.063-.078.047C.797-2.734.437-2 .437-1.25c0 .734.516 1.344.985 1.344.562 0 1.156-.516 1.812-1.782l-.328-.093c-.078.39-.11.61-.11.812 0 .547.454 1.063.845 1.063.718 0 1.828-1.016 2.375-2.235.203-.437.359-1.03.359-1.39 0-.5-.422-1-.734-1-.125 0-.375.078-.438.14l-.516.485.25.422c.266-.172.22-.172.297-.172.235 0 .188.078.188.422C5.422-1.954 4.766-.61 4-.61c-.25 0-.25-.22-.25-.704 0-.421.078-1 .188-1.39l.468-1.64-.187-.204-.907.266-.265 1.39c-.11.563-.188.813-.438 1.297-.359.657-.546.985-.812.985-.313 0-.328-.22-.328-.72 0-1.062.312-1.812 1.25-2.874l-.203-.375c-.266.125-.375.156-.625.156-.36 0-.72-.031-1.079-.062C.704-4.5.625-4.47.376-4.36c-.125.218-.266.625-.422 1.25zm0 0"/></svg></g><g><svg overflow="visible" x="293.184" y="43.126"><path d="M-.063-1.125A1.23 1.23 0 001.157.094c.5 0 1.124-.281 2.015-1l-.188-.453-.437.296c-.469.344-.75.485-1.063.485-.437 0-.5-.203-.5-.735 0-.234.032-.453.063-.609l.547-.14a3.93 3.93 0 00.61-.235c.765-.328 1.296-.86 1.296-1.406 0-.422-.484-.828-.938-.828-.578 0-1.671.625-2.03 1.203-.266.422-.595 1.578-.595 2.203zm1.172-1.11l.079-.328c.14-.578.265-.874.5-1.093.171-.156.312-.235.546-.235.25 0 .22.047.22.329 0 .39-.11.671-.563.89-.25.11-.579.219-.735.25zm0 0"/></svg><svg overflow="visible" x="296.625" y="43.126"><path d="M.11-3.563l.14.438.531-.344c.25-.172.203-.172.281-.172.094 0-.03-.062-.03.047 0 .078-.048.266-.079.39L.375-1.077c-.078.281-.125.5-.125.687 0 .204.297.47.469.47.234 0 .687-.235 1.61-.923l-.22-.422-.437.282c-.266.171-.313.218-.39.218-.063 0 .062.063.062-.046 0-.079.015-.157.062-.344l.688-2.688c.031-.156.047-.234.047-.328 0-.14-.25-.36-.407-.36-.203 0-.656.22-1.328.688l-.312.235zm1.218-1.906c0 .219.328.5.547.5.281 0 .656-.39.656-.734 0-.203-.312-.484-.5-.484-.265 0-.703.421-.703.718zm0 0"/></svg><svg overflow="visible" x="299.085" y="43.126"><path d="M-.516 1.281c0 .625.813 1.157 1.766 1.157 1.14 0 2.328-.766 2.328-1.5 0-.313-.234-.735-.61-1.047l-.53-.438c-.313-.234-.376-.297-.376-.469 0-.078 0-.078.141-.234.031-.047.031-.047.047-.063.734-.187 1.547-1.062 1.547-1.843 0-.078 0-.156-.016-.297l.031.11h.063c.156 0 .25-.016.625-.048l.094-.5-.125-.234c-.344.094-.516.11-.89.11-.11-.188-.329-.313-.548-.391a1.619 1.619 0 00-.594-.125c-.374 0-.953.203-1.343.5-.5.375-.797.984-.797 1.61 0 .671.594 1.218 1.266 1.218.078 0 .171 0-.172.031l-.063.063c-.14.14-.297.39-.297.515 0 .094.125.281.078.25C.75-.219.33-.047 0 .234c-.297.25-.516.688-.516 1.047zm.938-.125c0-.343.11-.562.39-.797.235-.187.297-.234.688-.343l.594.468c.406.313.531.454.531.75 0 .454-.422.688-1.156.688-.719 0-1.047-.234-1.047-.766zm.875-3.828c0-.844.266-1.297.906-1.297.516 0 .578.188.578.828 0 .907-.219 1.391-.844 1.391-.546 0-.64-.234-.64-.922zm0 0"/></svg><svg overflow="visible" x="303.508" y="43.126"><path d="M-.047-.047L.047.11l.89-.203c.157-1.125.25-1.562.5-2.031.391-.719 1.188-1.531 1.547-1.531.125 0 0-.063 0 .062 0 .156-.046.485-.125.781l-.453 1.735c-.078.312-.11.516-.11.687 0 .204.282.47.454.47.234 0 .688-.22 1.625-.923l-.234-.422-.438.282c-.25.156-.312.218-.39.218-.063 0 .062.063.062-.046 0-.079.016-.157.063-.344L4-3.422c.063-.234.11-.5.11-.656 0-.188-.282-.453-.454-.453-.297 0-.984.328-1.531.797-.313.265-.453.421-.875.937l-.172.219.328.11.875-4.079-.265-.25c-.641.313-.813.36-1.625.438l-.079.437h.641c.219 0 .11-.078.11.078 0 .063-.016.14-.016.203L.672-3.562C.437-2.234.078-.704-.11-.156zm0 0"/></svg><svg overflow="visible" x="307.931" y="43.126"><path d="M.36-3.453h.53L.423-1.078C.375-.86.297-.641.297-.406c0 .219.297.484.469.484.296 0 .734-.203 1.437-.765.156-.125.11-.094.344-.282l-.235-.422-.593.407c-.266.171-.297.218-.407.218-.062 0 .079.063.079-.046 0-.22.109-.907.375-2.22l.093-.421h.938l.172-.735c-.563.063-.86.079-.985.079.11-.688.204-1.125.375-1.61l-.25-.328c-.359.203-.453.281-.921.453l-.22 1.532a4.276 4.276 0 01-.78.28l-.047.329zm0 0"/></svg><svg overflow="visible" x="310.877" y="43.126"><path d="M-.063-.172c.344.156.782.266 1.094.266.422 0 .969-.188 1.422-.547.453-.36.688-.781.688-1.219 0-.484-.47-.86-1.125-.984l-.375-.078c-.532-.094-.516-.11-.516-.47 0-.468.203-.702.719-.702.36 0 .547.125.64.265v.61h.563c.062-.438.094-.672.203-1.156-.547-.266-.797-.344-1.078-.344-.469 0-1.14.297-1.578.734-.219.235-.375.547-.375.875 0 .485.469.906 1.062 1.016l.547.11c.39.077.344.093.344.437 0 .593-.219.843-.844.843-.312 0-.453-.062-.64-.234v-.828H.094c-.063.594-.11.89-.219 1.36zm0 0"/></svg></g><g><svg overflow="visible" x="357.823" y="19.63"><path d="M2.703-1.531L2.47-1.75c-.36.125-.563.203-1.328.406C1.047-.328.78.344.016 1.625l.312.25.61-.281C1.905.328 2.405-.516 2.75-1.47zm0 0"/></svg></g><g><svg overflow="visible" x="365.793" y="19.63"><path d="M.25-4.203h.375l.266-.64c.078-.204.156-.204.437-.204.219 0 .438.031.672.031.25 0 .406-.015.39 0 .079-.125-.062 0-.171.157C1.14-3.61.688-2.656.688-1.641c0 .985.593 1.766 1.218 1.766.766 0 1.516-.688 2.39-2.39L4-2.36c-.11.515-.14.812-.14 1.093 0 .75.53 1.391 1.062 1.391.969 0 2.39-1.328 3.14-2.969.25-.594.454-1.406.454-1.875 0-.687-.47-1.312-.907-1.312-.156 0-.421.093-.515.187l-.672.625.266.469c.296-.188.28-.188.39-.188.328 0 .328.141.328.625 0 1.735-.968 3.579-1.984 3.579-.36 0-.438-.344-.438-1 0-.563.11-1.344.25-1.86l.641-2.234-.203-.219-1.11.328-.359 1.875c-.156.735-.266 1.125-.625 1.766-.469.89-.797 1.344-1.156 1.344-.406 0-.516-.329-.516-1.016 0-1.422.438-2.5 1.672-3.906l-.219-.407c-.312.141-.468.188-.796.188-.5 0-.985-.047-1.47-.094-.155 0-.25.032-.515.14C.406-5.515.234-5 .031-4.202zm0 0"/></svg><svg overflow="visible" x="374.425" y="19.63"><path d="M.234-4.766l.157.47.593-.391c.36-.22.36-.235.47-.235.109 0 .015-.031.015.11 0 .109-.047.359-.094.53L.578-1.405c-.094.375-.14.672-.14.922 0 .28.296.593.53.593.313 0 .876-.296 2.11-1.218l-.265-.47-.5.329c-.36.234-.47.313-.594.313-.078 0 .015.03.015-.11 0-.11.016-.203.079-.469l.921-3.64c.047-.203.079-.313.079-.422 0-.203-.266-.453-.47-.453-.265 0-.827.281-1.734.922l-.39.296zm1.641-2.578c0 .297.36.625.656.625.375 0 .813-.484.813-.937 0-.282-.344-.61-.594-.61-.36 0-.875.516-.875.922zm0 0"/></svg><svg overflow="visible" x="377.748" y="19.63"><path d="M.484-4.656h.813L.64-1.406C.578-1.11.484-.813.484-.5c0 .297.313.61.547.61.422 0 .938-.282 1.89-1.032.204-.172.142-.125.438-.36l-.265-.468-.719.5c-.36.25-.453.313-.594.313-.093 0 .016.046.016-.11 0-.297.14-1.234.516-3l.109-.61h1.281l.203-.89c-.656.078-1.062.094-1.328.094.172-.984.297-1.578.516-2.234l-.266-.36c-.406.235-.594.344-1.125.547l-.297 2.047c-.36.187-.672.312-1.062.406l-.063.39zm0 0"/></svg></g><g><svg overflow="visible" x="381.442" y="19.63"><path d="M-.016-.063l.141.188 1.063-.25c.203-1.469.359-2.094.703-2.734.53-.97 1.64-2.094 2.156-2.094.156 0 .078-.016.078.14 0 .204-.078.672-.188 1.063l-.609 2.344c-.094.422-.156.687-.156.922 0 .28.312.593.547.593.312 0 .86-.28 2.11-1.218l-.266-.47-.5.329c-.344.219-.47.313-.594.313-.078 0 .015.03.015-.11 0-.11.016-.203.079-.469l.765-3.062c.078-.313.14-.688.14-.89 0-.25-.312-.563-.515-.563-.406 0-1.266.437-2.031 1.078-.406.344-.61.562-1.172 1.266l-.234.296.296.094L3-8.797l-.297-.265c-.781.39-1.078.453-2.094.546l-.093.5h.78c.282 0 .22-.046.22.157 0 .109-.016.203-.016.296L.984-4.765C.672-2.969.188-.906-.062-.14zm0 0"/></svg></g><g><svg overflow="visible" x="390.397" y="19.63"><path d="M5.36-5.922a2.204 2.204 0 00-.563-.11c-.797 0-1.89.97-3.39 3.063l.25.094 1.28-5.938-.265-.234c-.75.375-1.063.438-2.047.531l-.094.5h.735c.28 0 .265-.046.265.157 0 .109-.015.203-.031.296L.937-4.358c-.156.89-.359 1.718-1 4.25l.204.234.968-.25.297-1.578c.11-.578.36-1.016.61-1.281C2.766-.844 3.28.109 3.578.109c.156 0 .547-.187 1.078-.562l.61-.438-.204-.453-.671.375c-.172.094-.141.078-.25.078-.11 0-.094-.03-.204-.234-.421-.766-.656-1.313-1.109-2.734l.125-.125c.735-.72 1.188-.985 1.781-.985.094 0 .22.016.516.094l.266-1zm0 0"/></svg></g><g><svg overflow="visible" x="399.411" y="19.63"><path d="M8.266-4.078a1.419 1.419 0 01-.047-.36c0-.109.015-.234.062-.484h-7.5c.063.25.063.375.063.484 0 .125 0 .235-.063.5h7.5zm0 2.625a1.332 1.332 0 01-.047-.36c0-.109.015-.234.062-.484h-7.5c.063.25.063.375.063.485 0 .125 0 .25-.063.5h7.5zm0 0"/></svg></g><g><svg overflow="visible" x="411.821" y="19.63"><path d="M6.234-1.25l-.171-.297-.454.297c-.343.219-.5.313-.625.313-.078 0-.03.03-.03-.11 0-.047.015-.187.03-.234l.782-3.297c.093-.344.14-.688.14-.89 0-.266-.265-.563-.5-.563-.5 0-1.437.5-2.14 1.156-.454.422-.797.828-1.407 1.703l.235.094.453-1.938c.047-.203.078-.343.078-.484 0-.25-.234-.531-.406-.531-.266 0-.828.312-1.703.922l-.391.296.172.485.547-.36c.437-.28.39-.265.469-.265.14 0 .078 0 .078.172 0 .61-.5 2.922-.985 4.656l.172.25c.36-.094.625-.172 1.016-.234.234-1.625.468-2.313 1-3.125.656-1.016 1.453-1.72 1.984-1.72.125 0 .063-.015.063.157 0 .219-.032.469-.141.86l-.61 2.53c-.109.438-.156.72-.156.907 0 .297.266.61.5.61.313 0 .829-.282 2.079-1.22zm0 0"/></svg></g><g><svg overflow="visible" x="421.122" y="19.63"><path d="M8.266-2.766a1.332 1.332 0 01-.047-.359c0-.11.015-.234.062-.484h-3.25v-3.266c-.25.063-.375.078-.484.078-.125 0-.25-.016-.5-.078v3.266H.78c.063.25.063.375.063.484 0 .125 0 .25-.063.5h3.266V.641c.25-.063.375-.079.5-.079.11 0 .234.016.484.079v-3.266h3.25zm0 0"/></svg></g><g><svg overflow="visible" x="432.874" y="19.63"><path d="M5.125-.094v-.484l-.75-.047c-.656-.031-.64-.031-.64-.656v-7.172l-.313-.125c-.875.469-1.61.781-2.86 1.219l.125.718h.235l1.547-.687.031-.016c.063 0-.047-.015-.047.266v5.797c0 .625.016.625-.64.656L1-.578v.625L3.125 0l2 .047zm0 0"/></svg></g><g><svg overflow="visible" x="441.841" y="19.63"><path d="M-.125-.922c0 .516.36 1.047.578 1.047.25 0 .813-.281 1.25-.656.516-.453 1-1.016 1.656-1.938l-.296-.094-.344 1.516a2.715 2.715 0 00-.078.61c0 .265.28.562.468.562.266 0 .891-.36 1.922-1.219l-.187-.562c-.297.234-.297.25-.36.297-.39.312-.437.39-.609.39-.125 0-.016.031-.016-.156 0-.047 0-.078.016-.125l1.11-4.563-.282-.25-.453.25c-.422-.156-.656-.218-.969-.218-.344 0-.578.062-.906.218-.75.375-1.266.766-1.688 1.61-.453.906-.812 2.328-.812 3.281zm1.203-.39c0-.766.313-2.094.734-3.094.282-.688.407-.766.985-.766.281 0 .5.047.828.156-.25 1.22-.438 1.735-.828 2.344C2.14-1.656 1.516-.969 1.125-.969c-.14 0-.047-.015-.047-.344zm0 0"/></svg><svg overflow="visible" x="447.149" y="19.63"><path d="M.11-4.766l.171.47.594-.391c.422-.282.36-.266.438-.266.14 0 .03 0 .03.172 0 .61-.484 2.922-.968 4.64l.172.266c.39-.094.656-.172 1.078-.25.234-1.61.453-2.297 1-3.11.656-1.015 1.422-1.718 1.953-1.718.125 0 .031-.016.031.156 0 .219-.046.469-.14.86l-.625 2.53c-.11.438-.156.72-.156.907 0 .297.312.61.546.61.313 0 .86-.282 2.094-1.22l-.25-.468-.5.328c-.344.219-.469.313-.594.313-.078 0 .016.03.016-.11 0-.047.016-.187.016-.234l.796-3.297c.079-.344.125-.688.125-.89 0-.266-.296-.563-.53-.563-.5 0-1.47.5-2.173 1.156-.453.422-.78.828-1.406 1.703l.297.094.453-1.938c.047-.203.078-.343.078-.484 0-.25-.265-.531-.437-.531-.266 0-.86.312-1.735.922l-.39.296zm0 0"/></svg><svg overflow="visible" x="453.796" y="19.63"><path d="M.031-1.156C.031-.375.375.125.734.125c.313 0 .875-.234 1.282-.563.656-.515 1.046-.984 1.843-2.187l-.296-.094L3.28-1.64c-.125.532-.187.907-.187 1.22 0 .25.281.546.484.546.219 0 .625-.203 1.031-.5l1.032-.766-.266-.484-.703.484c-.172.125-.219.172-.328.172-.094 0 0 .031 0-.14 0-.094.015-.204.093-.547l1.516-7.14-.297-.267c-.781.391-1.078.454-2.093.547l-.094.5h.781c.281 0 .219-.046.219.157 0 .109-.016.203-.016.296l-.312 1.657a3.082 3.082 0 00-.829-.125c-.828 0-2.078.906-2.624 1.937C.313-3.39.03-2.156.03-1.156zm1.203-.14c0-1.516.5-3.282 1.079-3.735.156-.125.265-.14.593-.14.531 0 .735.03 1.078.202l-.14.64a5.186 5.186 0 01-1.485 2.72c-.421.39-.765.64-1 .64-.187 0-.125-.031-.125-.328zm0 0"/></svg></g><g><svg overflow="visible" x="462.763" y="19.63"><path d="M8.484-4.719c0-.687-.437-1.312-.875-1.312-.156 0-.406.093-.5.187l-.671.625.265.453c.25-.171.266-.171.375-.171.328 0 .375.14.375.625 0 1.734-1.016 3.578-2.031 3.578-.36 0-.469-.344-.469-1 0-.563.11-1.344.25-1.86l.625-2.234-.187-.219-1.032.313-.375 1.89c-.14.735-.28 1.125-.625 1.766-.484.89-.828 1.344-1.187 1.344-.406 0-.563-.329-.563-1.016 0-1.422.454-2.5 1.704-3.906l-.235-.407c-.281.141-.437.188-.765.188-.5 0-.985-.047-1.47-.094-.155 0-.25.032-.5.125-.155.328-.327.844-.515 1.64h.5l.266-.64c.094-.203.203-.203.484-.203.219 0 .438.031.672.031.25 0 .406-.015.422-.015.062-.11-.063.015-.188.172C1.156-3.61.72-2.656.72-1.641c0 .985.562 1.766 1.187 1.766.766 0 1.485-.688 2.375-2.39l-.234-.094c-.11.515-.156.812-.156 1.093 0 .75.5 1.391 1.03 1.391.97 0 2.36-1.328 3.095-2.969.265-.594.468-1.406.468-1.875zm0 0"/></svg></g><g><svg overflow="visible" x="471.394" y="22.404"><path d="M2.516-.984l-.157-.25-.406.25c-.297.171-.375.218-.469.218-.078 0 .016.063.016-.046 0-.079.016-.157.063-.344l.75-2.688c.046-.156.062-.234.062-.328 0-.14-.234-.36-.39-.36-.22 0-.688.22-1.407.688l-.344.235.172.421.5-.28c.266-.173.266-.173.344-.173.11 0 0-.062 0 .047 0 .078-.031.266-.063.39l-.64 2.126c-.094.281-.125.5-.125.687 0 .204.266.47.437.47.266 0 .72-.235 1.735-.923zm.28-4.72c0-.202-.28-.484-.483-.484-.297 0-.735.422-.735.72 0 .218.313.5.547.5.313 0 .672-.391.672-.735zm0 0"/></svg></g><g><svg overflow="visible" x="474.296" y="22.404"><path d="M6.156-2.078c-.015-.094-.015-.172-.015-.266 0-.094 0-.172.046-.39H.516c.046.218.062.296.062.39 0 .094-.015.172-.062.39h5.671zm0 0"/></svg><svg overflow="visible" x="481.019" y="22.404"><path d="M4.266-.11V-.5l-.657-.031c-.515-.031-.468.015-.468-.453v-5.329l-.282-.093c-.625.297-1.312.562-2.375.906l.11.594h.234l1.25-.516.031-.016c.047 0-.078-.046-.078.172v4.282c0 .468.047.421-.469.453L.86-.5v.531L2.594 0l1.672.031zm0 0"/></svg></g><g><svg overflow="visible" x="489.837" y="19.63"><path d="M8.266-4.078a1.419 1.419 0 01-.047-.36c0-.109.015-.234.062-.484h-7.5c.063.25.063.375.063.484 0 .125 0 .235-.063.5h7.5zm0 2.625a1.332 1.332 0 01-.047-.36c0-.109.015-.234.062-.484h-7.5c.063.25.063.375.063.485 0 .125 0 .25-.063.5h7.5zm0 0"/></svg></g><g><svg overflow="visible" x="502.235" y="19.63"><path d="M5.688-4.5c0-2.625-.907-4-2.547-4C1.297-8.5.203-6.89.203-4c0 1.39.281 2.703.703 3.281.422.594 1.203.953 1.938.953 1.812 0 2.844-1.687 2.844-4.734zm-1.282.594C4.406-1.36 4.094-.437 3-.437c-1.156 0-1.516-1.079-1.516-4 0-2.516.313-3.375 1.438-3.375 1.172 0 1.484 1.03 1.484 3.906zm0 0"/></svg></g><g><svg overflow="visible" x="511.201" y="19.63"><path d="M8.484-4.719c0-.687-.437-1.312-.875-1.312-.156 0-.406.093-.5.187l-.671.625.265.453c.25-.171.266-.171.375-.171.328 0 .375.14.375.625 0 1.734-1.016 3.578-2.031 3.578-.36 0-.469-.344-.469-1 0-.563.11-1.344.25-1.86l.625-2.234-.187-.219-1.032.313-.375 1.89c-.14.735-.28 1.125-.625 1.766-.484.89-.828 1.344-1.187 1.344-.406 0-.563-.329-.563-1.016 0-1.422.454-2.5 1.704-3.906l-.235-.407c-.281.141-.437.188-.765.188-.5 0-.985-.047-1.47-.094-.155 0-.25.032-.5.125-.155.328-.327.844-.515 1.64h.5l.266-.64c.094-.203.203-.203.484-.203.219 0 .438.031.672.031.25 0 .406-.015.422-.015.062-.11-.063.015-.188.172C1.156-3.61.72-2.656.72-1.641c0 .985.562 1.766 1.187 1.766.766 0 1.485-.688 2.375-2.39l-.234-.094c-.11.515-.156.812-.156 1.093 0 .75.5 1.391 1.03 1.391.97 0 2.36-1.328 3.095-2.969.265-.594.468-1.406.468-1.875zm0 0"/></svg></g><g><svg overflow="visible" x="519.892" y="19.63"><path d="M5.719-1.25l-.172-.297-.453.297c-.344.219-.5.313-.625.313-.078 0-.016.03-.016-.11 0-.11 0-.203.078-.469l.766-3.062c.062-.313.125-.688.125-.89 0-.25-.266-.563-.469-.563-.406 0-1.25.437-2 1.078-.422.344-.61.562-1.172 1.266l-.234.296.234.094L2.97-8.812l-.266-.235c-.75.375-1.078.438-2.062.531l-.094.5h.75c.281 0 .25-.046.25.157 0 .109 0 .203-.016.296l-.5 2.797C.703-2.969.234-.906-.03-.125l.156.25 1.016-.234c.203-1.485.375-2.11.718-2.75.532-.97 1.672-2.094 2.188-2.094.156 0 .11-.016.11.14 0 .204-.063.672-.173 1.063l-.609 2.344c-.11.422-.156.687-.156.922 0 .28.265.593.5.593.312 0 .828-.28 2.078-1.218zm0 0"/></svg><svg overflow="visible" x="525.87" y="19.63"><path d="M4.61-4.953c0-.563-.532-1.078-1.141-1.078-.781 0-2.188.843-2.672 1.61C.437-3.845.03-2.313.03-1.47.031-.547.703.125 1.563.125 2.25.125 3-.235 4.171-1.188l-.203-.468-.438.312c-.64.453-1.11.657-1.531.657-.578 0-.781-.313-.781-1.047 0-.313.031-.61.078-.844l.86-.219c.202-.047.515-.172.827-.297C4-3.547 4.61-4.219 4.61-4.954zm-1.173.187c0 .516-.265.954-.89 1.25a5.596 5.596 0 01-1.125.375l.062-.265c.188-.797.391-1.219.72-1.516.218-.219.515-.344.812-.344.343 0 .421.11.421.5zm0 0"/></svg></g><g><svg overflow="visible" x="530.676" y="19.63"><path d="M6.234-1.25l-.171-.297-.454.297c-.343.219-.5.313-.625.313-.078 0-.03.03-.03-.11 0-.047.015-.187.03-.234l.782-3.297c.093-.344.14-.688.14-.89 0-.266-.265-.563-.5-.563-.5 0-1.437.5-2.14 1.156-.454.422-.797.828-1.407 1.703l.235.094.453-1.938c.047-.203.078-.343.078-.484 0-.25-.234-.531-.406-.531-.266 0-.828.312-1.703.922l-.391.296.172.485.547-.36c.437-.28.39-.265.469-.265.14 0 .078 0 .078.172 0 .61-.5 2.922-.985 4.656l.172.25c.36-.094.625-.172 1.016-.234.234-1.625.468-2.313 1-3.125.656-1.016 1.453-1.72 1.984-1.72.125 0 .063-.015.063.157 0 .219-.032.469-.141.86l-.61 2.53c-.109.438-.156.72-.156.907 0 .297.266.61.5.61.313 0 .829-.282 2.079-1.22zm0 0"/></svg></g><g><svg overflow="visible" x="540.312" y="19.63"><path d="M2.969-1.25l-.172-.297-.453.297c-.36.234-.5.313-.625.313-.078 0-.016.03-.016-.11 0-.11 0-.203.078-.469l.922-3.64c.047-.203.063-.313.063-.422 0-.203-.22-.453-.422-.453-.266 0-.797.281-1.703.922l-.407.296.188.485.547-.36c.344-.218.375-.234.484-.234.11 0 .047-.031.047.11 0 .109-.047.359-.094.53L.625-1.405c-.11.375-.156.672-.156.922 0 .28.265.593.5.593.312 0 .844-.296 2.078-1.218zm.344-6.406c0-.282-.313-.61-.563-.61-.36 0-.844.516-.844.922 0 .297.328.625.625.625.375 0 .781-.484.781-.937zm0 0"/></svg></g><g><svg overflow="visible" x="547.15" y="19.63"><path d="M8.266-4.078a1.419 1.419 0 01-.047-.36c0-.109.015-.234.062-.484h-7.5c.063.25.063.375.063.484 0 .125 0 .235-.063.5h7.5zm0 2.625a1.332 1.332 0 01-.047-.36c0-.109.015-.234.062-.484h-7.5c.063.25.063.375.063.485 0 .125 0 .25-.063.5h7.5zm0 0"/></svg></g><g><svg overflow="visible" x="559.56" y="19.63"><path d="M5.688-4.5c0-2.625-.907-4-2.547-4C1.297-8.5.203-6.89.203-4c0 1.39.281 2.703.703 3.281.422.594 1.203.953 1.938.953 1.812 0 2.844-1.687 2.844-4.734zm-1.282.594C4.406-1.36 4.094-.437 3-.437c-1.156 0-1.516-1.079-1.516-4 0-2.516.313-3.375 1.438-3.375 1.172 0 1.484 1.03 1.484 3.906zm0 0"/></svg></g></svg>