<svg xmlns="http://www.w3.org/2000/svg" xmlns:xlink="http://www.w3.org/1999/xlink" width="336" height="187px" viewBox="0 0 252 140"><svg overflow="visible" x=".909" y="73.233"><path d="M11.234-8.531c-.328.015-.671.031-1 .031-.343 0-.671-.016-1.078-.047-.25.485-.031.172-1.047 1.906L5.172-1.594l.25.094-1.844-7.047c-.422.031-.75.047-1.094.047-.328 0-.671-.016-1.125-.047l-.062.61.469.03c.625.048.703.032.703.345a.693.693 0 01-.047.234L.687-1.25C.516-.625.47-.594-.327-.531l-.047.578L1.109 0C1.547 0 2 .016 2.547.047l.062-.594-.593-.047c-.391-.047-.47-.015-.47-.187 0-.125.032-.281.095-.5l1.484-5.547h-.281L4.656.219h.453l.72-1.282 2.843-4.953.625-1.03-.235-.095-.437 6.204c-.031.343-.047.28-.672.343l-.5.047-.047.594L9.156 0l1.703.047.063-.594-.578-.047C9.906-.64 9.813-.64 9.828-.89l.016-.437.484-6.344c.016-.234.078-.219.422-.234l.563-.032.062-.609zm0 0"/></svg><svg overflow="visible" x="15.793" y="73.233"><path d="M8.266-4.078a1.419 1.419 0 01-.047-.36c0-.109.015-.234.062-.484h-7.5c.063.25.063.375.063.484 0 .125 0 .235-.063.5h7.5zm0 2.625a1.332 1.332 0 01-.047-.36c0-.109.015-.234.062-.484h-7.5c.063.25.063.375.063.485 0 .125 0 .25-.063.5h7.5zm0 0"/></svg><svg overflow="visible" x="28.21" y="15.637"><path d="M5.078-14.781H1.562V0h1.235v-14.031h2.469c-.079-.203-.094-.281-.094-.375 0-.078.016-.172.094-.375zm0 0"/></svg><svg overflow="visible" x="28.21" y="24.868"><path d="M2.672-9.938h-1.11V0h1.235v-9.938zm0 0"/></svg><svg overflow="visible" x="28.21" y="33.999"><path d="M2.672-9.938h-1.11V0h1.235v-9.938zm0 0"/></svg><svg overflow="visible" x="28.21" y="43.129"><path d="M2.672-9.938h-1.11V0h1.235v-9.938zm0 0"/></svg><svg overflow="visible" x="28.21" y="52.259"><path d="M2.672-9.938h-1.11V0h1.235v-9.938zm0 0"/></svg><svg overflow="visible" x="28.21" y="61.39"><path d="M2.672-9.938h-1.11V0h1.235v-9.938zm0 0"/></svg><svg overflow="visible" x="28.21" y="70.52"><path d="M2.672-9.938h-1.11V0h1.235v-9.938zm0 0"/></svg><svg overflow="visible" x="28.21" y="79.651"><path d="M2.672-9.938h-1.11V0h1.235v-9.938zm0 0"/></svg><svg overflow="visible" x="28.21" y="88.781"><path d="M2.672-9.938h-1.11V0h1.235v-9.938zm0 0"/></svg><svg overflow="visible" x="28.21" y="97.912"><path d="M2.672-9.938h-1.11V0h1.235v-9.938zm0 0"/></svg><svg overflow="visible" x="28.21" y="107.042"><path d="M2.672-9.938h-1.11V0h1.235v-9.938zm0 0"/></svg><svg overflow="visible" x="28.21" y="116.172"><path d="M2.672-9.938h-1.11V0h1.235v-9.938zm0 0"/></svg><svg overflow="visible" x="28.21" y="125.303"><path d="M2.672-9.938h-1.11V0h1.235v-9.938zm0 0"/></svg><svg overflow="visible" x="28.21" y="139.364"><path d="M5.219-.125a.648.648 0 01-.047-.25c0-.078.016-.156.094-.36h-2.47V-14.78H1.564V0h3.703zm0 0"/></svg><svg overflow="visible" x="35.145" y="8.745"><path d="M5.125-.094v-.484l-.75-.047c-.656-.031-.64-.031-.64-.656v-7.172l-.313-.125c-.875.469-1.61.781-2.86 1.219l.125.718h.235l1.547-.687.031-.016c.063 0-.047-.015-.047.266v5.797c0 .625.016.625-.64.656L1-.578v.625L3.125 0l2 .047zm0 0"/></svg><svg overflow="visible" x="58.183" y="8.745"><path d="M5.688-4.5c0-2.625-.907-4-2.547-4C1.297-8.5.203-6.89.203-4c0 1.39.281 2.703.703 3.281.422.594 1.203.953 1.938.953 1.812 0 2.844-1.687 2.844-4.734zm-1.282.594C4.406-1.36 4.094-.437 3-.437c-1.156 0-1.516-1.079-1.516-4 0-2.516.313-3.375 1.438-3.375 1.172 0 1.484 1.03 1.484 3.906zm0 0"/></svg><svg overflow="visible" x="88.417" y="8.745"><path d="M2.313-.766c0-.359-.454-.828-.829-.828-.359 0-.828.469-.828.828 0 .36.469.829.813.829.39 0 .843-.454.843-.829zm0 0"/></svg><svg overflow="visible" x="117.158" y="8.745"><path d="M2.313-.766c0-.359-.454-.828-.829-.828-.359 0-.828.469-.828.828 0 .36.469.829.813.829.39 0 .843-.454.843-.829zm0 0"/></svg><svg overflow="visible" x="140.984" y="8.745"><path d="M2.313-.766c0-.359-.454-.828-.829-.828-.359 0-.828.469-.828.828 0 .36.469.829.813.829.39 0 .843-.454.843-.829zm0 0"/></svg><svg overflow="visible" x="165.253" y="8.745"><path d="M2.313-.766c0-.359-.454-.828-.829-.828-.359 0-.828.469-.828.828 0 .36.469.829.813.829.39 0 .843-.454.843-.829zm0 0"/></svg><svg overflow="visible" x="200.569" y="8.745"><path d="M2.313-.766c0-.359-.454-.828-.829-.828-.359 0-.828.469-.828.828 0 .36.469.829.813.829.39 0 .843-.454.843-.829zm0 0"/></svg><svg overflow="visible" x="235.705" y="8.745"><path d="M2.313-.766c0-.359-.454-.828-.829-.828-.359 0-.828.469-.828.828 0 .36.469.829.813.829.39 0 .843-.454.843-.829zm0 0"/></svg><svg overflow="visible" x="35.634" y="19.563"><path d="M4.266-.11V-.5l-.657-.031c-.515-.031-.468.015-.468-.453v-5.329l-.282-.093c-.625.297-1.312.562-2.375.906l.11.594h.234l1.25-.516.031-.016c.047 0-.078-.046-.078.172v4.282c0 .468.047.421-.469.453L.86-.5v.531L2.594 0l1.672.031zm0 0"/></svg><path d="M35.633 22.18h5" fill="none" stroke-width=".717" stroke="#000" stroke-miterlimit="10"/><svg overflow="visible" x="35.802" y="30.086"><path d="M4.406-4.453a1.836 1.836 0 00-.453-.078c-.64 0-1.547.718-2.765 2.265l.265.094L2.5-6.562l-.234-.204c-.547.25-.891.329-1.704.391l-.109.453h.656c.235 0 .172-.078.172.078 0 .063 0 .14-.031.203L.797-3.266C.672-2.594.5-1.984 0-.094l.188.188.843-.188.25-1.203c.078-.422.266-.734.422-.875C2.266-.656 2.734.078 2.984.078c.125 0 .454-.156.875-.422l.516-.328-.172-.406-.61.297c-.124.078-.077.062-.155.062-.11 0-.063-.031-.141-.172-.344-.562-.516-.953-.875-2l.078-.062c.594-.547.922-.719 1.406-.719.078 0 .172.016.453.078l.22-.797zm0 0"/></svg><svg overflow="visible" x="52.986" y="19.563"><path d="M4.406-4.453a1.836 1.836 0 00-.453-.078c-.64 0-1.547.718-2.765 2.265l.265.094L2.5-6.562l-.234-.204c-.547.25-.891.329-1.704.391l-.109.453h.656c.235 0 .172-.078.172.078 0 .063 0 .14-.031.203L.797-3.266C.672-2.594.5-1.984 0-.094l.188.188.843-.188.25-1.203c.078-.422.266-.734.422-.875C2.266-.656 2.734.078 2.984.078c.125 0 .454-.156.875-.422l.516-.328-.172-.406-.61.297c-.124.078-.077.062-.155.062-.11 0-.063-.031-.141-.172-.344-.562-.516-.953-.875-2l.078-.062c.594-.547.922-.719 1.406-.719.078 0 .172.016.453.078l.22-.797zm0 0"/></svg><svg overflow="visible" x="57.648" y="19.563"><path d="M6.156-2.078c-.015-.094-.015-.172-.015-.266 0-.094 0-.172.046-.39H.516c.046.218.062.296.062.39 0 .094-.015.172-.062.39h5.671zm0 0"/></svg><svg overflow="visible" x="64.372" y="19.563"><path d="M4.266-.11V-.5l-.657-.031c-.515-.031-.468.015-.468-.453v-5.329l-.282-.093c-.625.297-1.312.562-2.375.906l.11.594h.234l1.25-.516.031-.016c.047 0-.078-.046-.078.172v4.282c0 .468.047.421-.469.453L.86-.5v.531L2.594 0l1.672.031zm0 0"/></svg><path d="M52.984 22.18h16.387" fill="none" stroke-width=".717" stroke="#000" stroke-miterlimit="10"/><svg overflow="visible" x="58.847" y="30.086"><path d="M4.406-4.453a1.836 1.836 0 00-.453-.078c-.64 0-1.547.718-2.765 2.265l.265.094L2.5-6.562l-.234-.204c-.547.25-.891.329-1.704.391l-.109.453h.656c.235 0 .172-.078.172.078 0 .063 0 .14-.031.203L.797-3.266C.672-2.594.5-1.984 0-.094l.188.188.843-.188.25-1.203c.078-.422.266-.734.422-.875C2.266-.656 2.734.078 2.984.078c.125 0 .454-.156.875-.422l.516-.328-.172-.406-.61.297c-.124.078-.077.062-.155.062-.11 0-.063-.031-.141-.172-.344-.562-.516-.953-.875-2l.078-.062c.594-.547.922-.719 1.406-.719.078 0 .172.016.453.078l.22-.797zm0 0"/></svg><svg overflow="visible" x="86.928" y="25.171"><path d="M5.688-4.5c0-2.625-.907-4-2.547-4C1.297-8.5.203-6.89.203-4c0 1.39.281 2.703.703 3.281.422.594 1.203.953 1.938.953 1.812 0 2.844-1.687 2.844-4.734zm-1.282.594C4.406-1.36 4.094-.437 3-.437c-1.156 0-1.516-1.079-1.516-4 0-2.516.313-3.375 1.438-3.375 1.172 0 1.484 1.03 1.484 3.906zm0 0"/></svg><svg overflow="visible" x="117.151" y="25.171"><path d="M2.313-.766c0-.359-.454-.828-.829-.828-.359 0-.828.469-.828.828 0 .36.469.829.813.829.39 0 .843-.454.843-.829zm0 0"/></svg><svg overflow="visible" x="140.989" y="25.171"><path d="M2.313-.766c0-.359-.454-.828-.829-.828-.359 0-.828.469-.828.828 0 .36.469.829.813.829.39 0 .843-.454.843-.829zm0 0"/></svg><svg overflow="visible" x="165.258" y="25.171"><path d="M2.313-.766c0-.359-.454-.828-.829-.828-.359 0-.828.469-.828.828 0 .36.469.829.813.829.39 0 .843-.454.843-.829zm0 0"/></svg><svg overflow="visible" x="199.068" y="25.171"><path d="M5.688-4.5c0-2.625-.907-4-2.547-4C1.297-8.5.203-6.89.203-4c0 1.39.281 2.703.703 3.281.422.594 1.203.953 1.938.953 1.812 0 2.844-1.687 2.844-4.734zm-1.282.594C4.406-1.36 4.094-.437 3-.437c-1.156 0-1.516-1.079-1.516-4 0-2.516.313-3.375 1.438-3.375 1.172 0 1.484 1.03 1.484 3.906zm0 0"/></svg><svg overflow="visible" x="235.71" y="25.171"><path d="M2.313-.766c0-.359-.454-.828-.829-.828-.359 0-.828.469-.828.828 0 .36.469.829.813.829.39 0 .843-.454.843-.829zm0 0"/></svg><svg overflow="visible" x="35.145" y="42.258"><path d="M5.688-4.5c0-2.625-.907-4-2.547-4C1.297-8.5.203-6.89.203-4c0 1.39.281 2.703.703 3.281.422.594 1.203.953 1.938.953 1.812 0 2.844-1.687 2.844-4.734zm-1.282.594C4.406-1.36 4.094-.437 3-.437c-1.156 0-1.516-1.079-1.516-4 0-2.516.313-3.375 1.438-3.375 1.172 0 1.484 1.03 1.484 3.906zm0 0"/></svg><svg overflow="visible" x="58.679" y="36.651"><path d="M4.75-.11c-.016-.187-.016-.265-.016-.39s0-.203.032-.547l-3.141.094 1.5-1.469c.938-.906 1.266-1.5 1.266-2.156 0-1.016-.891-1.781-2.125-1.781-.688 0-1.282.218-1.782.687L.297-4.266h.547l.172-.546c.156-.516.359-.594 1-.594.828 0 1.203.343 1.203 1.093 0 .657-.36 1.22-1.453 2.282L.078-.391v.422L2.391 0l2.375.031zm0 0"/></svg><path d="M58.68 39.27h5" fill="none" stroke-width=".717" stroke="#000" stroke-miterlimit="10"/><svg overflow="visible" x="58.847" y="47.174"><path d="M4.406-4.453a1.836 1.836 0 00-.453-.078c-.64 0-1.547.718-2.765 2.265l.265.094L2.5-6.562l-.234-.204c-.547.25-.891.329-1.704.391l-.109.453h.656c.235 0 .172-.078.172.078 0 .063 0 .14-.031.203L.797-3.266C.672-2.594.5-1.984 0-.094l.188.188.843-.188.25-1.203c.078-.422.266-.734.422-.875C2.266-.656 2.734.078 2.984.078c.125 0 .454-.156.875-.422l.516-.328-.172-.406-.61.297c-.124.078-.077.062-.155.062-.11 0-.063-.031-.141-.172-.344-.562-.516-.953-.875-2l.078-.062c.594-.547.922-.719 1.406-.719.078 0 .172.016.453.078l.22-.797zm0 0"/></svg><svg overflow="visible" x="81.724" y="36.651"><path d="M4.406-4.453a1.836 1.836 0 00-.453-.078c-.64 0-1.547.718-2.765 2.265l.265.094L2.5-6.562l-.234-.204c-.547.25-.891.329-1.704.391l-.109.453h.656c.235 0 .172-.078.172.078 0 .063 0 .14-.031.203L.797-3.266C.672-2.594.5-1.984 0-.094l.188.188.843-.188.25-1.203c.078-.422.266-.734.422-.875C2.266-.656 2.734.078 2.984.078c.125 0 .454-.156.875-.422l.516-.328-.172-.406-.61.297c-.124.078-.077.062-.155.062-.11 0-.063-.031-.141-.172-.344-.562-.516-.953-.875-2l.078-.062c.594-.547.922-.719 1.406-.719.078 0 .172.016.453.078l.22-.797zm0 0"/></svg><svg overflow="visible" x="86.386" y="36.651"><path d="M6.156-2.078c-.015-.094-.015-.172-.015-.266 0-.094 0-.172.046-.39H.516c.046.218.062.296.062.39 0 .094-.015.172-.062.39h5.671zm0 0"/></svg><svg overflow="visible" x="93.11" y="36.651"><path d="M4.75-.11c-.016-.187-.016-.265-.016-.39s0-.203.032-.547l-3.141.094 1.5-1.469c.938-.906 1.266-1.5 1.266-2.156 0-1.016-.891-1.781-2.125-1.781-.688 0-1.282.218-1.782.687L.297-4.266h.547l.172-.546c.156-.516.359-.594 1-.594.828 0 1.203.343 1.203 1.093 0 .657-.36 1.22-1.453 2.282L.078-.391v.422L2.391 0l2.375.031zm0 0"/></svg><path d="M81.723 39.27h16.386" fill="none" stroke-width=".717" stroke="#000" stroke-miterlimit="10"/><svg overflow="visible" x="87.585" y="47.174"><path d="M4.406-4.453a1.836 1.836 0 00-.453-.078c-.64 0-1.547.718-2.765 2.265l.265.094L2.5-6.562l-.234-.204c-.547.25-.891.329-1.704.391l-.109.453h.656c.235 0 .172-.078.172.078 0 .063 0 .14-.031.203L.797-3.266C.672-2.594.5-1.984 0-.094l.188.188.843-.188.25-1.203c.078-.422.266-.734.422-.875C2.266-.656 2.734.078 2.984.078c.125 0 .454-.156.875-.422l.516-.328-.172-.406-.61.297c-.124.078-.077.062-.155.062-.11 0-.063-.031-.141-.172-.344-.562-.516-.953-.875-2l.078-.062c.594-.547.922-.719 1.406-.719.078 0 .172.016.453.078l.22-.797zm0 0"/></svg><svg overflow="visible" x="115.666" y="42.258"><path d="M5.688-4.5c0-2.625-.907-4-2.547-4C1.297-8.5.203-6.89.203-4c0 1.39.281 2.703.703 3.281.422.594 1.203.953 1.938.953 1.812 0 2.844-1.687 2.844-4.734zm-1.282.594C4.406-1.36 4.094-.437 3-.437c-1.156 0-1.516-1.079-1.516-4 0-2.516.313-3.375 1.438-3.375 1.172 0 1.484 1.03 1.484 3.906zm0 0"/></svg><svg overflow="visible" x="140.987" y="42.258"><path d="M2.313-.766c0-.359-.454-.828-.829-.828-.359 0-.828.469-.828.828 0 .36.469.829.813.829.39 0 .843-.454.843-.829zm0 0"/></svg><svg overflow="visible" x="165.256" y="42.258"><path d="M2.313-.766c0-.359-.454-.828-.829-.828-.359 0-.828.469-.828.828 0 .36.469.829.813.829.39 0 .843-.454.843-.829zm0 0"/></svg><svg overflow="visible" x="200.572" y="42.258"><path d="M2.313-.766c0-.359-.454-.828-.829-.828-.359 0-.828.469-.828.828 0 .36.469.829.813.829.39 0 .843-.454.843-.829zm0 0"/></svg><svg overflow="visible" x="235.708" y="42.258"><path d="M2.313-.766c0-.359-.454-.828-.829-.828-.359 0-.828.469-.828.828 0 .36.469.829.813.829.39 0 .843-.454.843-.829zm0 0"/></svg><svg overflow="visible" x="36.639" y="59.346"><path d="M2.313-.766c0-.359-.454-.828-.829-.828-.359 0-.828.469-.828.828 0 .36.469.829.813.829.39 0 .843-.454.843-.829zm0 0"/></svg><svg overflow="visible" x="58.182" y="59.346"><path d="M5.688-4.5c0-2.625-.907-4-2.547-4C1.297-8.5.203-6.89.203-4c0 1.39.281 2.703.703 3.281.422.594 1.203.953 1.938.953 1.812 0 2.844-1.687 2.844-4.734zm-1.282.594C4.406-1.36 4.094-.437 3-.437c-1.156 0-1.516-1.079-1.516-4 0-2.516.313-3.375 1.438-3.375 1.172 0 1.484 1.03 1.484 3.906zm0 0"/></svg><svg overflow="visible" x="87.417" y="53.739"><path d="M4.703-2.11c0-.421-.25-.89-.594-1.124a2.225 2.225 0 00-.703-.282c.531-.375.86-.875.86-1.406 0-.781-.86-1.437-1.938-1.437-.64 0-1.203.203-1.687.656L.312-4.406h.594l.219-.625c.11-.297.563-.469 1.063-.469.624 0 .984.328.984.89 0 .673-.406 1.094-1.094 1.094-.078 0-.36.204-.36.204l-.265-.094-.125.515.203.157c.407-.172.594-.22.844-.22.813 0 1.11.329 1.11 1.142 0 .906-.422 1.359-1.329 1.359-.437 0-.719-.094-1.015-.344C.906-.984.828-1.094.578-1.75l-.531.188c.234.609.312.937.375 1.468C1.078.11 1.5.172 1.859.172c.782 0 1.766-.422 2.297-1.016.328-.375.547-.86.547-1.265zm0 0"/></svg><path d="M87.418 56.355h4.996" fill="none" stroke-width=".717" stroke="#000" stroke-miterlimit="10"/><svg overflow="visible" x="87.585" y="64.262"><path d="M4.406-4.453a1.836 1.836 0 00-.453-.078c-.64 0-1.547.718-2.765 2.265l.265.094L2.5-6.562l-.234-.204c-.547.25-.891.329-1.704.391l-.109.453h.656c.235 0 .172-.078.172.078 0 .063 0 .14-.031.203L.797-3.266C.672-2.594.5-1.984 0-.094l.188.188.843-.188.25-1.203c.078-.422.266-.734.422-.875C2.266-.656 2.734.078 2.984.078c.125 0 .454-.156.875-.422l.516-.328-.172-.406-.61.297c-.124.078-.077.062-.155.062-.11 0-.063-.031-.141-.172-.344-.562-.516-.953-.875-2l.078-.062c.594-.547.922-.719 1.406-.719.078 0 .172.016.453.078l.22-.797zm0 0"/></svg><svg overflow="visible" x="110.462" y="53.739"><path d="M4.406-4.453a1.836 1.836 0 00-.453-.078c-.64 0-1.547.718-2.765 2.265l.265.094L2.5-6.562l-.234-.204c-.547.25-.891.329-1.704.391l-.109.453h.656c.235 0 .172-.078.172.078 0 .063 0 .14-.031.203L.797-3.266C.672-2.594.5-1.984 0-.094l.188.188.843-.188.25-1.203c.078-.422.266-.734.422-.875C2.266-.656 2.734.078 2.984.078c.125 0 .454-.156.875-.422l.516-.328-.172-.406-.61.297c-.124.078-.077.062-.155.062-.11 0-.063-.031-.141-.172-.344-.562-.516-.953-.875-2l.078-.062c.594-.547.922-.719 1.406-.719.078 0 .172.016.453.078l.22-.797zm0 0"/></svg><svg overflow="visible" x="115.124" y="53.739"><path d="M6.156-2.078c-.015-.094-.015-.172-.015-.266 0-.094 0-.172.046-.39H.516c.046.218.062.296.062.39 0 .094-.015.172-.062.39h5.671zm0 0"/></svg><svg overflow="visible" x="121.848" y="53.739"><path d="M4.703-2.11c0-.421-.25-.89-.594-1.124a2.225 2.225 0 00-.703-.282c.531-.375.86-.875.86-1.406 0-.781-.86-1.437-1.938-1.437-.64 0-1.203.203-1.687.656L.312-4.406h.594l.219-.625c.11-.297.563-.469 1.063-.469.624 0 .984.328.984.89 0 .673-.406 1.094-1.094 1.094-.078 0-.36.204-.36.204l-.265-.094-.125.515.203.157c.407-.172.594-.22.844-.22.813 0 1.11.329 1.11 1.142 0 .906-.422 1.359-1.329 1.359-.437 0-.719-.094-1.015-.344C.906-.984.828-1.094.578-1.75l-.531.188c.234.609.312.937.375 1.468C1.078.11 1.5.172 1.859.172c.782 0 1.766-.422 2.297-1.016.328-.375.547-.86.547-1.265zm0 0"/></svg><path d="M110.46 56.355h16.388" fill="none" stroke-width=".717" stroke="#000" stroke-miterlimit="10"/><svg overflow="visible" x="116.323" y="64.262"><path d="M4.406-4.453a1.836 1.836 0 00-.453-.078c-.64 0-1.547.718-2.765 2.265l.265.094L2.5-6.562l-.234-.204c-.547.25-.891.329-1.704.391l-.109.453h.656c.235 0 .172-.078.172.078 0 .063 0 .14-.031.203L.797-3.266C.672-2.594.5-1.984 0-.094l.188.188.843-.188.25-1.203c.078-.422.266-.734.422-.875C2.266-.656 2.734.078 2.984.078c.125 0 .454-.156.875-.422l.516-.328-.172-.406-.61.297c-.124.078-.077.062-.155.062-.11 0-.063-.031-.141-.172-.344-.562-.516-.953-.875-2l.078-.062c.594-.547.922-.719 1.406-.719.078 0 .172.016.453.078l.22-.797zm0 0"/></svg><svg overflow="visible" x="139.499" y="59.346"><path d="M5.688-4.5c0-2.625-.907-4-2.547-4C1.297-8.5.203-6.89.203-4c0 1.39.281 2.703.703 3.281.422.594 1.203.953 1.938.953 1.812 0 2.844-1.687 2.844-4.734zm-1.282.594C4.406-1.36 4.094-.437 3-.437c-1.156 0-1.516-1.079-1.516-4 0-2.516.313-3.375 1.438-3.375 1.172 0 1.484 1.03 1.484 3.906zm0 0"/></svg><svg overflow="visible" x="165.262" y="59.346"><path d="M2.313-.766c0-.359-.454-.828-.829-.828-.359 0-.828.469-.828.828 0 .36.469.829.813.829.39 0 .843-.454.843-.829zm0 0"/></svg><svg overflow="visible" x="200.566" y="59.346"><path d="M2.313-.766c0-.359-.454-.828-.829-.828-.359 0-.828.469-.828.828 0 .36.469.829.813.829.39 0 .843-.454.843-.829zm0 0"/></svg><svg overflow="visible" x="235.702" y="59.346"><path d="M2.313-.766c0-.359-.454-.828-.829-.828-.359 0-.828.469-.828.828 0 .36.469.829.813.829.39 0 .843-.454.843-.829zm0 0"/></svg><svg overflow="visible" x="36.639" y="74.454"><path d="M2.313-.766c0-.359-.454-.828-.829-.828-.359 0-.828.469-.828.828 0 .36.469.829.813.829.39 0 .843-.454.843-.829zm0 0"/></svg><svg overflow="visible" x="59.677" y="74.454"><path d="M2.313-.766c0-.359-.454-.828-.829-.828-.359 0-.828.469-.828.828 0 .36.469.829.813.829.39 0 .843-.454.843-.829zm0 0"/></svg><svg overflow="visible" x="86.923" y="74.454"><path d="M5.688-4.5c0-2.625-.907-4-2.547-4C1.297-8.5.203-6.89.203-4c0 1.39.281 2.703.703 3.281.422.594 1.203.953 1.938.953 1.812 0 2.844-1.687 2.844-4.734zm-1.282.594C4.406-1.36 4.094-.437 3-.437c-1.156 0-1.516-1.079-1.516-4 0-2.516.313-3.375 1.438-3.375 1.172 0 1.484 1.03 1.484 3.906zm0 0"/></svg><svg overflow="visible" x="114.168" y="74.454"><path d="M2.313-.766c0-.359-.454-.828-.829-.828-.359 0-.828.469-.828.828 0 .36.469.829.813.829.39 0 .843-.454.843-.829zm0 0"/></svg><svg overflow="visible" x="117.157" y="74.454"><path d="M2.313-.766c0-.359-.454-.828-.829-.828-.359 0-.828.469-.828.828 0 .36.469.829.813.829.39 0 .843-.454.843-.829zm0 0"/></svg><svg overflow="visible" x="120.146" y="74.454"><path d="M2.313-.766c0-.359-.454-.828-.829-.828-.359 0-.828.469-.828.828 0 .36.469.829.813.829.39 0 .843-.454.843-.829zm0 0"/></svg><svg overflow="visible" x="137.995" y="74.454"><path d="M2.313-.766c0-.359-.454-.828-.829-.828-.359 0-.828.469-.828.828 0 .36.469.829.813.829.39 0 .843-.454.843-.829zm0 0"/></svg><svg overflow="visible" x="140.984" y="74.454"><path d="M2.313-.766c0-.359-.454-.828-.829-.828-.359 0-.828.469-.828.828 0 .36.469.829.813.829.39 0 .843-.454.843-.829zm0 0"/></svg><svg overflow="visible" x="143.973" y="74.454"><path d="M2.313-.766c0-.359-.454-.828-.829-.828-.359 0-.828.469-.828.828 0 .36.469.829.813.829.39 0 .843-.454.843-.829zm0 0"/></svg><svg overflow="visible" x="163.771" y="74.454"><path d="M5.688-4.5c0-2.625-.907-4-2.547-4C1.297-8.5.203-6.89.203-4c0 1.39.281 2.703.703 3.281.422.594 1.203.953 1.938.953 1.812 0 2.844-1.687 2.844-4.734zm-1.282.594C4.406-1.36 4.094-.437 3-.437c-1.156 0-1.516-1.079-1.516-4 0-2.516.313-3.375 1.438-3.375 1.172 0 1.484 1.03 1.484 3.906zm0 0"/></svg><svg overflow="visible" x="200.569" y="74.454"><path d="M2.313-.766c0-.359-.454-.828-.829-.828-.359 0-.828.469-.828.828 0 .36.469.829.813.829.39 0 .843-.454.843-.829zm0 0"/></svg><svg overflow="visible" x="235.705" y="74.454"><path d="M2.313-.766c0-.359-.454-.828-.829-.828-.359 0-.828.469-.828.828 0 .36.469.829.813.829.39 0 .843-.454.843-.829zm0 0"/></svg><svg overflow="visible" x="36.639" y="88.9"><path d="M2.313-.766c0-.359-.454-.828-.829-.828-.359 0-.828.469-.828.828 0 .36.469.829.813.829.39 0 .843-.454.843-.829zm0 0"/></svg><svg overflow="visible" x="59.677" y="88.9"><path d="M2.313-.766c0-.359-.454-.828-.829-.828-.359 0-.828.469-.828.828 0 .36.469.829.813.829.39 0 .843-.454.843-.829zm0 0"/></svg><svg overflow="visible" x="88.417" y="88.9"><path d="M2.313-.766c0-.359-.454-.828-.829-.828-.359 0-.828.469-.828.828 0 .36.469.829.813.829.39 0 .843-.454.843-.829zm0 0"/></svg><svg overflow="visible" x="115.663" y="88.9"><path d="M5.688-4.5c0-2.625-.907-4-2.547-4C1.297-8.5.203-6.89.203-4c0 1.39.281 2.703.703 3.281.422.594 1.203.953 1.938.953 1.812 0 2.844-1.687 2.844-4.734zm-1.282.594C4.406-1.36 4.094-.437 3-.437c-1.156 0-1.516-1.079-1.516-4 0-2.516.313-3.375 1.438-3.375 1.172 0 1.484 1.03 1.484 3.906zm0 0"/></svg><svg overflow="visible" x="137.995" y="88.9"><path d="M2.313-.766c0-.359-.454-.828-.829-.828-.359 0-.828.469-.828.828 0 .36.469.829.813.829.39 0 .843-.454.843-.829zm0 0"/></svg><svg overflow="visible" x="140.984" y="88.9"><path d="M2.313-.766c0-.359-.454-.828-.829-.828-.359 0-.828.469-.828.828 0 .36.469.829.813.829.39 0 .843-.454.843-.829zm0 0"/></svg><svg overflow="visible" x="143.973" y="88.9"><path d="M2.313-.766c0-.359-.454-.828-.829-.828-.359 0-.828.469-.828.828 0 .36.469.829.813.829.39 0 .843-.454.843-.829zm0 0"/></svg><svg overflow="visible" x="162.276" y="88.9"><path d="M2.313-.766c0-.359-.454-.828-.829-.828-.359 0-.828.469-.828.828 0 .36.469.829.813.829.39 0 .843-.454.843-.829zm0 0"/></svg><svg overflow="visible" x="165.265" y="88.9"><path d="M2.313-.766c0-.359-.454-.828-.829-.828-.359 0-.828.469-.828.828 0 .36.469.829.813.829.39 0 .843-.454.843-.829zm0 0"/></svg><svg overflow="visible" x="168.254" y="88.9"><path d="M2.313-.766c0-.359-.454-.828-.829-.828-.359 0-.828.469-.828.828 0 .36.469.829.813.829.39 0 .843-.454.843-.829zm0 0"/></svg><svg overflow="visible" x="199.074" y="88.9"><path d="M5.688-4.5c0-2.625-.907-4-2.547-4C1.297-8.5.203-6.89.203-4c0 1.39.281 2.703.703 3.281.422.594 1.203.953 1.938.953 1.812 0 2.844-1.687 2.844-4.734zm-1.282.594C4.406-1.36 4.094-.437 3-.437c-1.156 0-1.516-1.079-1.516-4 0-2.516.313-3.375 1.438-3.375 1.172 0 1.484 1.03 1.484 3.906zm0 0"/></svg><svg overflow="visible" x="235.705" y="88.9"><path d="M2.313-.766c0-.359-.454-.828-.829-.828-.359 0-.828.469-.828.828 0 .36.469.829.813.829.39 0 .843-.454.843-.829zm0 0"/></svg><svg overflow="visible" x="36.639" y="105.326"><path d="M2.313-.766c0-.359-.454-.828-.829-.828-.359 0-.828.469-.828.828 0 .36.469.829.813.829.39 0 .843-.454.843-.829zm0 0"/></svg><svg overflow="visible" x="59.677" y="105.326"><path d="M2.313-.766c0-.359-.454-.828-.829-.828-.359 0-.828.469-.828.828 0 .36.469.829.813.829.39 0 .843-.454.843-.829zm0 0"/></svg><svg overflow="visible" x="88.417" y="105.326"><path d="M2.313-.766c0-.359-.454-.828-.829-.828-.359 0-.828.469-.828.828 0 .36.469.829.813.829.39 0 .843-.454.843-.829zm0 0"/></svg><svg overflow="visible" x="117.157" y="105.326"><path d="M2.313-.766c0-.359-.454-.828-.829-.828-.359 0-.828.469-.828.828 0 .36.469.829.813.829.39 0 .843-.454.843-.829zm0 0"/></svg><svg overflow="visible" x="139.49" y="105.326"><path d="M5.688-4.5c0-2.625-.907-4-2.547-4C1.297-8.5.203-6.89.203-4c0 1.39.281 2.703.703 3.281.422.594 1.203.953 1.938.953 1.812 0 2.844-1.687 2.844-4.734zm-1.282.594C4.406-1.36 4.094-.437 3-.437c-1.156 0-1.516-1.079-1.516-4 0-2.516.313-3.375 1.438-3.375 1.172 0 1.484 1.03 1.484 3.906zm0 0"/></svg><svg overflow="visible" x="158.129" y="99.718"><path d="M5.14-.984l-.156-.25-.406.25c-.281.156-.375.218-.469.218-.062 0 .016.063.016-.046 0-.032-.031-.032.031-.157l.625-2.453c.078-.25.11-.5.11-.656 0-.203-.25-.453-.438-.453-.406 0-1.187.375-1.766.86-.359.312-.64.608-1.124 1.25l.265.108.36-1.421c.046-.172.062-.266.062-.375 0-.188-.234-.422-.375-.422-.203 0-.703.234-1.39.687l-.344.235.172.421.5-.28c.343-.22.265-.188.343-.188.094 0 .016-.047.016.078 0 .453-.406 2.156-.813 3.453l.172.219c.313-.078.531-.125.875-.188.203-1.218.375-1.703.797-2.312.531-.735 1.14-1.25 1.578-1.25.094 0 0-.063 0 .078 0 .156-.015.344-.11.625l-.5 1.875c-.077.328-.124.531-.124.672 0 .219.265.484.453.484.25 0 .703-.219 1.734-.922zm0 0"/></svg><svg overflow="visible" x="163.667" y="99.718"><path d="M6.156-2.078c-.015-.094-.015-.172-.015-.266 0-.094 0-.172.046-.39H.516c.046.218.062.296.062.39 0 .094-.015.172-.062.39h5.671zm0 0"/></svg><svg overflow="visible" x="170.391" y="99.718"><path d="M4.266-.11V-.5l-.657-.031c-.515-.031-.468.015-.468-.453v-5.329l-.282-.093c-.625.297-1.312.562-2.375.906l.11.594h.234l1.25-.516.031-.016c.047 0-.078-.046-.078.172v4.282c0 .468.047.421-.469.453L.86-.5v.531L2.594 0l1.672.031zm0 0"/></svg><path d="M158.129 102.336h17.262" fill="none" stroke-width=".717" stroke="#000" stroke-miterlimit="10"/><svg overflow="visible" x="164.428" y="110.241"><path d="M4.406-4.453a1.836 1.836 0 00-.453-.078c-.64 0-1.547.718-2.765 2.265l.265.094L2.5-6.562l-.234-.204c-.547.25-.891.329-1.704.391l-.109.453h.656c.235 0 .172-.078.172.078 0 .063 0 .14-.031.203L.797-3.266C.672-2.594.5-1.984 0-.094l.188.188.843-.188.25-1.203c.078-.422.266-.734.422-.875C2.266-.656 2.734.078 2.984.078c.125 0 .454-.156.875-.422l.516-.328-.172-.406-.61.297c-.124.078-.077.062-.155.062-.11 0-.063-.031-.141-.172-.344-.562-.516-.953-.875-2l.078-.062c.594-.547.922-.719 1.406-.719.078 0 .172.016.453.078l.22-.797zm0 0"/></svg><svg overflow="visible" x="187.743" y="99.718"><path d="M4.406-4.453a1.836 1.836 0 00-.453-.078c-.64 0-1.547.718-2.765 2.265l.265.094L2.5-6.562l-.234-.204c-.547.25-.891.329-1.704.391l-.109.453h.656c.235 0 .172-.078.172.078 0 .063 0 .14-.031.203L.797-3.266C.672-2.594.5-1.984 0-.094l.188.188.843-.188.25-1.203c.078-.422.266-.734.422-.875C2.266-.656 2.734.078 2.984.078c.125 0 .454-.156.875-.422l.516-.328-.172-.406-.61.297c-.124.078-.077.062-.155.062-.11 0-.063-.031-.141-.172-.344-.562-.516-.953-.875-2l.078-.062c.594-.547.922-.719 1.406-.719.078 0 .172.016.453.078l.22-.797zm0 0"/></svg><svg overflow="visible" x="192.405" y="99.718"><path d="M6.156-2.078c-.015-.094-.015-.172-.015-.266 0-.094 0-.172.046-.39H.516c.046.218.062.296.062.39 0 .094-.015.172-.062.39h5.671zm0 0"/></svg><svg overflow="visible" x="199.129" y="99.718"><path d="M5.14-.984l-.156-.25-.406.25c-.281.156-.375.218-.469.218-.062 0 .016.063.016-.046 0-.032-.031-.032.031-.157l.625-2.453c.078-.25.11-.5.11-.656 0-.203-.25-.453-.438-.453-.406 0-1.187.375-1.766.86-.359.312-.64.608-1.124 1.25l.265.108.36-1.421c.046-.172.062-.266.062-.375 0-.188-.234-.422-.375-.422-.203 0-.703.234-1.39.687l-.344.235.172.421.5-.28c.343-.22.265-.188.343-.188.094 0 .016-.047.016.078 0 .453-.406 2.156-.813 3.453l.172.219c.313-.078.531-.125.875-.188.203-1.218.375-1.703.797-2.312.531-.735 1.14-1.25 1.578-1.25.094 0 0-.063 0 .078 0 .156-.015.344-.11.625l-.5 1.875c-.077.328-.124.531-.124.672 0 .219.265.484.453.484.25 0 .703-.219 1.734-.922zm0 0"/></svg><svg overflow="visible" x="204.667" y="99.718"><path d="M6.156-2.078c-.015-.094-.015-.172-.015-.266 0-.094 0-.172.046-.39H3.781v-2.438c-.25.063-.328.063-.422.063-.093 0-.171 0-.421-.063v2.438H.515c.046.218.062.296.062.39 0 .094-.015.172-.062.39h2.421V.485c.25-.062.329-.062.422-.062.094 0 .172 0 .422.062v-2.437h2.406zm0 0"/></svg><svg overflow="visible" x="211.39" y="99.718"><path d="M4.266-.11V-.5l-.657-.031c-.515-.031-.468.015-.468-.453v-5.329l-.282-.093c-.625.297-1.312.562-2.375.906l.11.594h.234l1.25-.516.031-.016c.047 0-.078-.046-.078.172v4.282c0 .468.047.421-.469.453L.86-.5v.531L2.594 0l1.672.031zm0 0"/></svg><path d="M187.742 102.336h28.649" fill="none" stroke-width=".717" stroke="#000" stroke-miterlimit="10"/><svg overflow="visible" x="199.735" y="110.241"><path d="M4.406-4.453a1.836 1.836 0 00-.453-.078c-.64 0-1.547.718-2.765 2.265l.265.094L2.5-6.562l-.234-.204c-.547.25-.891.329-1.704.391l-.109.453h.656c.235 0 .172-.078.172.078 0 .063 0 .14-.031.203L.797-3.266C.672-2.594.5-1.984 0-.094l.188.188.843-.188.25-1.203c.078-.422.266-.734.422-.875C2.266-.656 2.734.078 2.984.078c.125 0 .454-.156.875-.422l.516-.328-.172-.406-.61.297c-.124.078-.077.062-.155.062-.11 0-.063-.031-.141-.172-.344-.562-.516-.953-.875-2l.078-.062c.594-.547.922-.719 1.406-.719.078 0 .172.016.453.078l.22-.797zm0 0"/></svg><svg overflow="visible" x="234.216" y="105.326"><path d="M5.688-4.5c0-2.625-.907-4-2.547-4C1.297-8.5.203-6.89.203-4c0 1.39.281 2.703.703 3.281.422.594 1.203.953 1.938.953 1.812 0 2.844-1.687 2.844-4.734zm-1.282.594C4.406-1.36 4.094-.437 3-.437c-1.156 0-1.516-1.079-1.516-4 0-2.516.313-3.375 1.438-3.375 1.172 0 1.484 1.03 1.484 3.906zm0 0"/></svg><svg overflow="visible" x="36.639" y="122.413"><path d="M2.313-.766c0-.359-.454-.828-.829-.828-.359 0-.828.469-.828.828 0 .36.469.829.813.829.39 0 .843-.454.843-.829zm0 0"/></svg><svg overflow="visible" x="58.182" y="122.413"><path d="M5.688-4.5c0-2.625-.907-4-2.547-4C1.297-8.5.203-6.89.203-4c0 1.39.281 2.703.703 3.281.422.594 1.203.953 1.938.953 1.812 0 2.844-1.687 2.844-4.734zm-1.282.594C4.406-1.36 4.094-.437 3-.437c-1.156 0-1.516-1.079-1.516-4 0-2.516.313-3.375 1.438-3.375 1.172 0 1.484 1.03 1.484 3.906zm0 0"/></svg><svg overflow="visible" x="88.417" y="122.413"><path d="M2.313-.766c0-.359-.454-.828-.829-.828-.359 0-.828.469-.828.828 0 .36.469.829.813.829.39 0 .843-.454.843-.829zm0 0"/></svg><svg overflow="visible" x="117.157" y="122.413"><path d="M2.313-.766c0-.359-.454-.828-.829-.828-.359 0-.828.469-.828.828 0 .36.469.829.813.829.39 0 .843-.454.843-.829zm0 0"/></svg><svg overflow="visible" x="140.984" y="122.413"><path d="M2.313-.766c0-.359-.454-.828-.829-.828-.359 0-.828.469-.828.828 0 .36.469.829.813.829.39 0 .843-.454.843-.829zm0 0"/></svg><svg overflow="visible" x="163.771" y="122.413"><path d="M5.688-4.5c0-2.625-.907-4-2.547-4C1.297-8.5.203-6.89.203-4c0 1.39.281 2.703.703 3.281.422.594 1.203.953 1.938.953 1.812 0 2.844-1.687 2.844-4.734zm-1.282.594C4.406-1.36 4.094-.437 3-.437c-1.156 0-1.516-1.079-1.516-4 0-2.516.313-3.375 1.438-3.375 1.172 0 1.484 1.03 1.484 3.906zm0 0"/></svg><svg overflow="visible" x="199.297" y="116.806"><path d="M5.14-.984l-.156-.25-.406.25c-.281.156-.375.218-.469.218-.062 0 .016.063.016-.046 0-.032-.031-.032.031-.157l.625-2.453c.078-.25.11-.5.11-.656 0-.203-.25-.453-.438-.453-.406 0-1.187.375-1.766.86-.359.312-.64.608-1.124 1.25l.265.108.36-1.421c.046-.172.062-.266.062-.375 0-.188-.234-.422-.375-.422-.203 0-.703.234-1.39.687l-.344.235.172.421.5-.28c.343-.22.265-.188.343-.188.094 0 .016-.047.016.078 0 .453-.406 2.156-.813 3.453l.172.219c.313-.078.531-.125.875-.188.203-1.218.375-1.703.797-2.312.531-.735 1.14-1.25 1.578-1.25.094 0 0-.063 0 .078 0 .156-.015.344-.11.625l-.5 1.875c-.077.328-.124.531-.124.672 0 .219.265.484.453.484.25 0 .703-.219 1.734-.922zm0 0"/></svg><path d="M199.297 119.426h5.539" fill="none" stroke-width=".717" stroke="#000" stroke-miterlimit="10"/><svg overflow="visible" x="199.735" y="127.329"><path d="M4.406-4.453a1.836 1.836 0 00-.453-.078c-.64 0-1.547.718-2.765 2.265l.265.094L2.5-6.562l-.234-.204c-.547.25-.891.329-1.704.391l-.109.453h.656c.235 0 .172-.078.172.078 0 .063 0 .14-.031.203L.797-3.266C.672-2.594.5-1.984 0-.094l.188.188.843-.188.25-1.203c.078-.422.266-.734.422-.875C2.266-.656 2.734.078 2.984.078c.125 0 .454-.156.875-.422l.516-.328-.172-.406-.61.297c-.124.078-.077.062-.155.062-.11 0-.063-.031-.141-.172-.344-.562-.516-.953-.875-2l.078-.062c.594-.547.922-.719 1.406-.719.078 0 .172.016.453.078l.22-.797zm0 0"/></svg><svg overflow="visible" x="228.743" y="116.806"><path d="M4.406-4.453a1.836 1.836 0 00-.453-.078c-.64 0-1.547.718-2.765 2.265l.265.094L2.5-6.562l-.234-.204c-.547.25-.891.329-1.704.391l-.109.453h.656c.235 0 .172-.078.172.078 0 .063 0 .14-.031.203L.797-3.266C.672-2.594.5-1.984 0-.094l.188.188.843-.188.25-1.203c.078-.422.266-.734.422-.875C2.266-.656 2.734.078 2.984.078c.125 0 .454-.156.875-.422l.516-.328-.172-.406-.61.297c-.124.078-.077.062-.155.062-.11 0-.063-.031-.141-.172-.344-.562-.516-.953-.875-2l.078-.062c.594-.547.922-.719 1.406-.719.078 0 .172.016.453.078l.22-.797zm0 0"/></svg><svg overflow="visible" x="233.396" y="116.806"><path d="M6.156-2.078c-.015-.094-.015-.172-.015-.266 0-.094 0-.172.046-.39H.516c.046.218.062.296.062.39 0 .094-.015.172-.062.39h5.671zm0 0"/></svg><svg overflow="visible" x="240.12" y="116.806"><path d="M5.14-.984l-.156-.25-.406.25c-.281.156-.375.218-.469.218-.062 0 .016.063.016-.046 0-.032-.031-.032.031-.157l.625-2.453c.078-.25.11-.5.11-.656 0-.203-.25-.453-.438-.453-.406 0-1.187.375-1.766.86-.359.312-.64.608-1.124 1.25l.265.108.36-1.421c.046-.172.062-.266.062-.375 0-.188-.234-.422-.375-.422-.203 0-.703.234-1.39.687l-.344.235.172.421.5-.28c.343-.22.265-.188.343-.188.094 0 .016-.047.016.078 0 .453-.406 2.156-.813 3.453l.172.219c.313-.078.531-.125.875-.188.203-1.218.375-1.703.797-2.312.531-.735 1.14-1.25 1.578-1.25.094 0 0-.063 0 .078 0 .156-.015.344-.11.625l-.5 1.875c-.077.328-.124.531-.124.672 0 .219.265.484.453.484.25 0 .703-.219 1.734-.922zm0 0"/></svg><path d="M228.742 119.426h16.926" fill="none" stroke-width=".717" stroke="#000" stroke-miterlimit="10"/><svg overflow="visible" x="234.874" y="127.329"><path d="M4.406-4.453a1.836 1.836 0 00-.453-.078c-.64 0-1.547.718-2.765 2.265l.265.094L2.5-6.562l-.234-.204c-.547.25-.891.329-1.704.391l-.109.453h.656c.235 0 .172-.078.172.078 0 .063 0 .14-.031.203L.797-3.266C.672-2.594.5-1.984 0-.094l.188.188.843-.188.25-1.203c.078-.422.266-.734.422-.875C2.266-.656 2.734.078 2.984.078c.125 0 .454-.156.875-.422l.516-.328-.172-.406-.61.297c-.124.078-.077.062-.155.062-.11 0-.063-.031-.141-.172-.344-.562-.516-.953-.875-2l.078-.062c.594-.547.922-.719 1.406-.719.078 0 .172.016.453.078l.22-.797zm0 0"/></svg><svg overflow="visible" x="36.639" y="137.521"><path d="M2.313-.766c0-.359-.454-.828-.829-.828-.359 0-.828.469-.828.828 0 .36.469.829.813.829.39 0 .843-.454.843-.829zm0 0"/></svg><svg overflow="visible" x="59.677" y="137.521"><path d="M2.313-.766c0-.359-.454-.828-.829-.828-.359 0-.828.469-.828.828 0 .36.469.829.813.829.39 0 .843-.454.843-.829zm0 0"/></svg><svg overflow="visible" x="88.417" y="137.521"><path d="M2.313-.766c0-.359-.454-.828-.829-.828-.359 0-.828.469-.828.828 0 .36.469.829.813.829.39 0 .843-.454.843-.829zm0 0"/></svg><svg overflow="visible" x="117.157" y="137.521"><path d="M2.313-.766c0-.359-.454-.828-.829-.828-.359 0-.828.469-.828.828 0 .36.469.829.813.829.39 0 .843-.454.843-.829zm0 0"/></svg><svg overflow="visible" x="140.984" y="137.521"><path d="M2.313-.766c0-.359-.454-.828-.829-.828-.359 0-.828.469-.828.828 0 .36.469.829.813.829.39 0 .843-.454.843-.829zm0 0"/></svg><g><svg overflow="visible" x="165.265" y="137.521"><path d="M2.313-.766c0-.359-.454-.828-.829-.828-.359 0-.828.469-.828.828 0 .36.469.829.813.829.39 0 .843-.454.843-.829zm0 0"/></svg></g><g><svg overflow="visible" x="199.074" y="137.521"><path d="M5.688-4.5c0-2.625-.907-4-2.547-4C1.297-8.5.203-6.89.203-4c0 1.39.281 2.703.703 3.281.422.594 1.203.953 1.938.953 1.812 0 2.844-1.687 2.844-4.734zm-1.282.594C4.406-1.36 4.094-.437 3-.437c-1.156 0-1.516-1.079-1.516-4 0-2.516.313-3.375 1.438-3.375 1.172 0 1.484 1.03 1.484 3.906zm0 0"/></svg></g><g><svg overflow="visible" x="234.211" y="137.521"><path d="M5.125-.094v-.484l-.75-.047c-.656-.031-.64-.031-.64-.656v-7.172l-.313-.125c-.875.469-1.61.781-2.86 1.219l.125.718h.235l1.547-.687.031-.016c.063 0-.047-.015-.047.266v5.797c0 .625.016.625-.64.656L1-.578v.625L3.125 0l2 .047zm0 0"/></svg></g><g><svg overflow="visible" x="246.862" y="15.637"><path d="M4.656-.125v-14.656H.953c.078.203.094.297.094.375 0 .094-.016.172-.094.375h2.469V0h1.234zm0 0"/></svg></g><g><svg overflow="visible" x="246.862" y="24.868"><path d="M4.656-.125v-9.813H3.422V0h1.234zm0 0"/></svg></g><g><svg overflow="visible" x="246.862" y="33.999"><path d="M4.656-.125v-9.813H3.422V0h1.234zm0 0"/></svg></g><g><svg overflow="visible" x="246.862" y="43.129"><path d="M4.656-.125v-9.813H3.422V0h1.234zm0 0"/></svg></g><g><svg overflow="visible" x="246.862" y="52.259"><path d="M4.656-.125v-9.813H3.422V0h1.234zm0 0"/></svg></g><g><svg overflow="visible" x="246.862" y="61.39"><path d="M4.656-.125v-9.813H3.422V0h1.234zm0 0"/></svg></g><g><svg overflow="visible" x="246.862" y="70.52"><path d="M4.656-.125v-9.813H3.422V0h1.234zm0 0"/></svg></g><g><svg overflow="visible" x="246.862" y="79.651"><path d="M4.656-.125v-9.813H3.422V0h1.234zm0 0"/></svg></g><g><svg overflow="visible" x="246.862" y="88.781"><path d="M4.656-.125v-9.813H3.422V0h1.234zm0 0"/></svg></g><g><svg overflow="visible" x="246.862" y="97.912"><path d="M4.656-.125v-9.813H3.422V0h1.234zm0 0"/></svg></g><g><svg overflow="visible" x="246.862" y="107.042"><path d="M4.656-.125v-9.813H3.422V0h1.234zm0 0"/></svg></g><g><svg overflow="visible" x="246.862" y="116.172"><path d="M4.656-.125v-9.813H3.422V0h1.234zm0 0"/></svg></g><g><svg overflow="visible" x="246.862" y="125.303"><path d="M4.656-.125v-9.813H3.422V0h1.234zm0 0"/></svg></g><g><svg overflow="visible" x="246.862" y="139.364"><path d="M4.656-.125v-14.656H3.422V-.734H.953c.078.203.094.28.094.359 0 .094-.016.172-.094.375h3.703zm0 0"/></svg></g></svg>