<svg xmlns="http://www.w3.org/2000/svg" xmlns:xlink="http://www.w3.org/1999/xlink" width="768" height="61px" viewBox="0 0 576 46"><svg overflow="visible" x=".366" y="19.63"><path d="M.313.031C.671.016 1.046 0 1.405 0c.64 0 1.266.031 1.922.031.563 0 1.25-.156 1.813-.5.937-.562 1.515-1.469 1.515-2.375 0-.515-.218-1-.531-1.265-.313-.25-.797-.391-1.625-.516v.266c.688-.25 1.094-.438 1.469-.75.547-.485.875-1.125.875-1.735 0-.984-1.125-1.687-2.047-1.687-.594 0-1.203.031-1.797.031-.61 0-1.203-.016-1.969-.047l-.062.61.828.03c.281 0 .234-.03.234.188 0 .172-.047.547-.11.907L.892-.782c-.047.204-.016.157-.672.266l-.11.579zm1.843-.656l.578-3.438h.875c1.235 0 1.657.375 1.657 1.407 0 1.234-.704 1.984-1.891 1.984-.25 0-.594-.015-.984-.047-.079-.015-.22-.015-.22-.015zm.672-4l.563-3.14c.187 0 .5-.063.812-.063.969 0 1.266.297 1.266 1.187 0 1.266-.703 1.891-2.188 1.891H2.86zm0 0"/></svg><svg overflow="visible" x="7.671" y="19.63"><path d="M0-1.469C0-.547.703.125 1.563.125c.687 0 1.468-.36 2.64-1.313L4-1.688l-.5.344c-.625.453-1.078.657-1.5.657-.578 0-.75-.313-.75-1.047 0-.313.031-.61.078-.86l.828-.203c.203-.047.516-.172.828-.297C4-3.547 4.641-4.219 4.641-4.954c0-.562-.563-1.077-1.172-1.077-.781 0-2.219.843-2.688 1.61C.421-3.845 0-2.313 0-1.47zm1.406-1.5l.11-.437c.187-.797.39-1.219.703-1.516.234-.219.5-.344.797-.344.343 0 .39.11.39.5 0 .516-.234.954-.86 1.25a6.042 6.042 0 01-1.093.375zm.485-3.375h.453l2-1.25c.265-.156.39-.36.39-.531 0-.188-.39-.5-.625-.5-.109 0-.375.11-.53.25L1.53-6.344zm0 0"/></svg><svg overflow="visible" x="12.321" y="19.63"><path d="M-.188-.375L0 .203c.563-.437.766-.516 1.188-.516.296 0 .625.047 1.25.204.718.171 1.093.234 1.406.234.156 0 .25-.016.75-.156.156-.828.25-1.235.422-1.922h-.61l-.312.844c-.078.218-.032.171-.282.171-.265 0-.53-.078-.796-.14-.391-.078-.797-.14-1.032-.14-.375 0-.703.077-1.14.25l.125.234L5.062-5.36l.079-.47-.282-.28-.406.39c-.11.125-.11.14-.266.14-.406 0-1.03-.093-1.609-.25-.312-.093-.625-.202-.953-.202-.203 0-.438.047-.89.156L.296-4.187h.562l.375-.72c.094-.015.204-.03.36-.03s.297.015.531.062c.406.078.719.125.969.125.437 0 .844-.11 1.234-.313l-.25-.203-4.281 4.86zm0 0"/></svg><svg overflow="visible" x="17.629" y="19.63"><path d="M.234-4.766l.157.47.593-.391c.36-.22.36-.235.47-.235.109 0 .015-.031.015.11 0 .109-.047.359-.094.53L.578-1.405c-.094.375-.14.672-.14.922 0 .28.296.593.53.593.313 0 .876-.296 2.11-1.218l-.265-.47-.5.329c-.36.234-.47.313-.594.313-.078 0 .015.03.015-.11 0-.11.016-.203.079-.469l.921-3.64c.047-.203.079-.313.079-.422 0-.203-.266-.453-.47-.453-.265 0-.827.281-1.734.922l-.39.296zm1.641-2.578c0 .297.36.625.656.625.375 0 .813-.484.813-.937 0-.282-.344-.61-.594-.61-.36 0-.875.516-.875.922zm0 0"/></svg><svg overflow="visible" x="20.953" y="19.63"><path d="M0-1.469C0-.547.703.125 1.563.125c.687 0 1.468-.36 2.64-1.313L4-1.688l-.5.344c-.625.453-1.078.657-1.5.657-.578 0-.75-.313-.75-1.047 0-.313.031-.61.078-.86l.828-.203c.203-.047.516-.172.828-.297C4-3.547 4.641-4.219 4.641-4.954c0-.562-.563-1.077-1.172-1.077-.781 0-2.219.843-2.688 1.61C.421-3.845 0-2.313 0-1.47zm1.406-1.5l.11-.437c.187-.797.39-1.219.703-1.516.234-.219.5-.344.797-.344.343 0 .39.11.39.5 0 .516-.234.954-.86 1.25a6.042 6.042 0 01-1.093.375zm0 0"/></svg><svg overflow="visible" x="25.603" y="19.63"><path d="M.125-4.766l.172.47.594-.391c.343-.22.359-.235.453-.235.125 0 .031-.031.031.125 0 .703-.516 3.156-1 4.734l.266.188a5.85 5.85 0 01.984-.219l.328-1.547c.219-.984.453-1.53.969-2.203.406-.531.61-.75.875-.75.187 0 .172.032.344.235h.406c.062-.594.11-.97.219-1.516-.313-.14-.36-.156-.422-.156-.36 0-.86.328-1.297.937-.406.594-.875 1.25-1.172 1.907h.344l.312-1.516c.063-.25.14-.531.14-.813 0-.234-.25-.515-.437-.515-.25 0-.828.297-1.718.922l-.391.296zm0 0"/></svg><svg overflow="visible" x="30.254" y="19.63"><path d="M4.203-7.828a.735.735 0 01-.187-.14c-.063-.063-.11-.126-.22-.329-1.593 1.61-2.5 3.266-2.5 4.781v.797c0 1.516.907 3.172 2.5 4.781.11-.203.157-.265.22-.328.062-.062.125-.109.312-.203C2.875.063 2.281-1.344 2.281-2.719v-.797c0-1.39.594-2.78 2.047-4.25zm0 0"/></svg><svg overflow="visible" x="35.323" y="19.63"><path d="M5.36-5.922a2.204 2.204 0 00-.563-.11c-.797 0-1.89.97-3.39 3.063l.25.094 1.28-5.938-.265-.234c-.75.375-1.063.438-2.047.531l-.094.5h.735c.28 0 .265-.046.265.157 0 .109-.015.203-.031.296L.937-4.358c-.156.89-.359 1.718-1 4.25l.204.234.968-.25.297-1.578c.11-.578.36-1.016.61-1.281C2.766-.844 3.28.109 3.578.109c.156 0 .547-.187 1.078-.562l.61-.438-.204-.453-.671.375c-.172.094-.141.078-.25.078-.11 0-.094-.03-.204-.234-.421-.766-.656-1.313-1.109-2.734l.125-.125c.735-.72 1.188-.985 1.781-.985.094 0 .22.016.516.094l.266-1zm0 0"/></svg><svg overflow="visible" x="41.026" y="19.63"><path d="M2.703-1.531L2.47-1.75c-.36.125-.563.203-1.328.406C1.047-.328.78.344.016 1.625l.312.25.61-.281C1.905.328 2.405-.516 2.75-1.47zm0 0"/></svg><svg overflow="visible" x="45.999" y="19.63"><path d="M3.703-5.516c-.453.047-.86.063-1.156.063.172-.984.297-1.578.531-2.25l-.25-.328a7.16 7.16 0 01-1.094.531l-.296 2.031c-.391.203-.704.328-1.063.407l-.047.406h1l-.64 3.25C.625-1.11.53-.813.53-.5c0 .297.266.61.5.61.422 0 .922-.282 1.86-1.032.218-.172.14-.125.437-.36l-.25-.437-.672.469c-.36.25-.484.313-.625.313-.093 0-.031.046-.031-.11 0-.297.156-1.234.516-3l.14-.61h1.266l.203-.89zm0 0"/></svg><svg overflow="visible" x="50.04" y="19.63"><path d="M3.766-2.719v-.797c0-1.515-.907-3.171-2.516-4.78-.11.202-.156.265-.203.327-.063.063-.125.11-.313.203 1.438 1.47 2.032 2.86 2.032 4.25v.797c0 1.375-.594 2.781-2.032 4.25.188.094.25.14.313.203.047.063.094.125.203.329C2.86.452 3.766-1.204 3.766-2.72zm0 0"/></svg><svg overflow="visible" x="58.432" y="19.63"><path d="M8.266-4.078a1.419 1.419 0 01-.047-.36c0-.109.015-.234.062-.484h-7.5c.063.25.063.375.063.484 0 .125 0 .235-.063.5h7.5zm0 2.625a1.332 1.332 0 01-.047-.36c0-.109.015-.234.062-.484h-7.5c.063.25.063.375.063.485 0 .125 0 .25-.063.5h7.5zm0 0"/></svg><svg overflow="visible" x="75.962" y="6.507"><path d="M4.406-4.453a1.836 1.836 0 00-.453-.078c-.64 0-1.547.718-2.765 2.265l.265.094L2.5-6.562l-.234-.204c-.547.25-.891.329-1.704.391l-.109.453h.656c.235 0 .172-.078.172.078 0 .063 0 .14-.031.203L.797-3.266C.672-2.594.5-1.984 0-.094l.188.188.843-.188.25-1.203c.078-.422.266-.734.422-.875C2.266-.656 2.734.078 2.984.078c.125 0 .454-.156.875-.422l.516-.328-.172-.406-.61.297c-.124.078-.077.062-.155.062-.11 0-.063-.031-.141-.172-.344-.562-.516-.953-.875-2l.078-.062c.594-.547.922-.719 1.406-.719.078 0 .172.016.453.078l.22-.797zm0 0"/></svg><svg overflow="visible" x="70.845" y="19.629"><path d="M13.938 2.344h-.61l-.094.937c-.093.922-.156.86-3.625.86H2.531l5.11-7.672-4.72-7.453h5.767c3.343 0 3.578-.032 3.624.53l.094 1.126h.75a16.115 16.115 0 01-.062-1.281c0-.36.015-.61.062-1.266l-8.984.047-3.281-.047-.079.563 5.313 8.39L.812 5.063v.578l7.344-.063 5.828.063c0-1.344.016-2.407.094-3.297zm0 0"/></svg><svg overflow="visible" x="70.982" y="32.79"><path d="M2.516-.984l-.157-.25-.406.25c-.297.171-.375.218-.469.218-.078 0 .016.063.016-.046 0-.079.016-.157.063-.344l.75-2.688c.046-.156.062-.234.062-.328 0-.14-.234-.36-.39-.36-.22 0-.688.22-1.407.688l-.344.235.172.421.5-.28c.266-.173.266-.173.344-.173.11 0 0-.062 0 .047 0 .078-.031.266-.063.39l-.64 2.126c-.094.281-.125.5-.125.687 0 .204.266.47.437.47.266 0 .72-.235 1.735-.923zm.28-4.72c0-.202-.28-.484-.483-.484-.297 0-.735.422-.735.72 0 .218.313.5.547.5.313 0 .672-.391.672-.735zm0 0"/></svg><svg overflow="visible" x="73.875" y="32.79"><path d="M6.156-3.047c-.015-.094-.015-.187-.015-.265 0-.094 0-.188.046-.407H.516c.046.219.062.313.062.406 0 .079-.015.172-.062.391h5.671zm0 1.938c-.015-.079-.015-.172-.015-.266 0-.078 0-.172.046-.39H.516c.046.218.062.312.062.39 0 .094-.015.188-.062.406h5.671zm0 0"/></svg><svg overflow="visible" x="80.598" y="32.79"><path d="M4.719-3.375c0-1.938-.782-2.984-2.094-2.984C1.125-6.36.219-5.141.219-3c0 1.031.234 2.031.578 2.453.328.438.984.719 1.578.719 1.469 0 2.344-1.281 2.344-3.547zm-1.125.453c0 1.875-.203 2.531-1.078 2.531-.938 0-1.188-.765-1.188-2.921 0-1.876.203-2.47 1.125-2.47.938 0 1.14.735 1.14 2.86zm0 0"/></svg><svg overflow="visible" x="105.499" y="19.629"><path d="M7.063-17.313c-.063-.046-.125-.093-.188-.156-.063-.047-.11-.11-.219-.312C3.47-14.594 1.563-10.328 1.563-5.5v4.766c0 4.828 1.906 9.093 5.093 12.28.11-.202.157-.265.219-.327.063-.047.125-.11.313-.203C4.14 7.953 2.796 3.89 2.796-.734V-5.5c0-4.64 1.344-8.688 4.39-11.766zm0 0"/></svg><svg overflow="visible" x="113.617" y="11.021"><path d="M5.36-5.922a2.204 2.204 0 00-.563-.11c-.797 0-1.89.97-3.39 3.063l.25.094 1.28-5.938-.265-.234c-.75.375-1.063.438-2.047.531l-.094.5h.735c.28 0 .265-.046.265.157 0 .109-.015.203-.031.296L.937-4.358c-.156.89-.359 1.718-1 4.25l.204.234.968-.25.297-1.578c.11-.578.36-1.016.61-1.281C2.766-.844 3.28.109 3.578.109c.156 0 .547-.187 1.078-.562l.61-.438-.204-.453-.671.375c-.172.094-.141.078-.25.078-.11 0-.094-.03-.204-.234-.421-.766-.656-1.313-1.109-2.734l.125-.125c.735-.72 1.188-.985 1.781-.985.094 0 .22.016.516.094l.266-1zm0 0"/></svg><svg overflow="visible" x="114.711" y="27.593"><path d="M2.969-1.25l-.172-.297-.453.297c-.36.234-.5.313-.625.313-.078 0-.016.03-.016-.11 0-.11 0-.203.078-.469l.922-3.64c.047-.203.063-.313.063-.422 0-.203-.22-.453-.422-.453-.266 0-.797.281-1.703.922l-.407.296.188.485.547-.36c.344-.218.375-.234.484-.234.11 0 .047-.031.047.11 0 .109-.047.359-.094.53L.625-1.405c-.11.375-.156.672-.156.922 0 .28.265.593.5.593.312 0 .844-.296 2.078-1.218zm.344-6.406c0-.282-.313-.61-.563-.61-.36 0-.844.516-.844.922 0 .297.328.625.625.625.375 0 .781-.484.781-.937zm0 0"/></svg><svg overflow="visible" x="119.319" y="19.629"><path d="M6.531-.734V-5.5c0-4.828-1.875-9.094-5.078-12.281-.11.203-.156.265-.219.312-.062.063-.125.11-.312.203 3.062 3.078 4.39 7.125 4.39 11.766v4.766c0 4.625-1.328 8.687-4.39 11.75.187.093.25.156.312.203.063.062.11.125.22.328C4.655 8.359 6.53 4.094 6.53-.734zm0 0"/></svg><svg overflow="visible" x="107.275" y="31.082"><path d="M18.39 1.328c-.093-.016-.171-.031-.25-.047-.078-.031-.062-.031-.265-.203-.36.922-1.11 1.063-2.453 1.063h-3.5c-1.422 0-2.438.375-2.735.75-.312-.375-1.312-.75-2.734-.75H2.97C1.609 2.14.844 2 .516 1.094.28 1.25.312 1.25.234 1.28c-.078.016-.156.032-.406.063.344.968 1.484 1.687 3.14 1.687h3.485c1.578 0 2.36.063 2.36.938.218-.078.296-.078.374-.078.094 0 .157 0 .376.078 0-.875.78-.938 2.359-.938h3.5c1.64 0 2.765-.719 3.125-1.687zm0 0"/></svg><svg overflow="visible" x="87.734" y="42.923"><path d="M4.406-3.453c0-.344-.125-.781-.234-.922-.078-.078-.313-.156-.453-.156-.219 0-.516.078-.781.203-.5.234-.938.531-1.532 1.234L1.672-3l.844-3.563-.25-.203c-.532.25-.875.329-1.688.391l-.11.453h.657c.234 0 .172-.078.172.078 0 .063-.016.157-.016.203L.297-.766C.28-.734.28-.703.28-.672c0 .344.625.766 1.156.766.36 0 .954-.203 1.36-.469.937-.61 1.61-1.922 1.61-3.078zm-1 .203c0 .578-.156 1.234-.437 1.813-.328.609-.594.859-1.125.859-.438 0-.532-.078-.532-.453 0-.219.047-.469.125-.797.188-.703.375-1.031.766-1.406.313-.297.703-.516.985-.516.25 0 .218.078.218.5zm0 0"/></svg><svg overflow="visible" x="92.379" y="42.923"><path d="M2.516-.984l-.157-.25-.406.25c-.297.171-.375.218-.469.218-.078 0 .016.063.016-.046 0-.079.016-.157.063-.344l.75-2.688c.046-.156.062-.234.062-.328 0-.14-.234-.36-.39-.36-.22 0-.688.22-1.407.688l-.344.235.172.421.5-.28c.266-.173.266-.173.344-.173.11 0 0-.062 0 .047 0 .078-.031.266-.063.39l-.64 2.126c-.094.281-.125.5-.125.687 0 .204.266.47.437.47.266 0 .72-.235 1.735-.923zm.28-4.72c0-.202-.28-.484-.483-.484-.297 0-.735.422-.735.72 0 .218.313.5.547.5.313 0 .672-.391.672-.735zm0 0"/></svg><svg overflow="visible" x="95.28" y="42.923"><path d="M5.14-.984l-.156-.25-.406.25c-.281.156-.375.218-.469.218-.062 0 .016.063.016-.046 0-.032-.031-.032.031-.157l.625-2.453c.078-.25.11-.5.11-.656 0-.203-.25-.453-.438-.453-.406 0-1.187.375-1.766.86-.359.312-.64.608-1.124 1.25l.265.108.36-1.421c.046-.172.062-.266.062-.375 0-.188-.234-.422-.375-.422-.203 0-.703.234-1.39.687l-.344.235.172.421.5-.28c.343-.22.265-.188.343-.188.094 0 .016-.047.016.078 0 .453-.406 2.156-.813 3.453l.172.219c.313-.078.531-.125.875-.188.203-1.218.375-1.703.797-2.312.531-.735 1.14-1.25 1.578-1.25.094 0 0-.063 0 .078 0 .156-.015.344-.11.625l-.5 1.875c-.077.328-.124.531-.124.672 0 .219.265.484.453.484.25 0 .703-.219 1.734-.922zm0 0"/></svg><svg overflow="visible" x="100.818" y="42.923"><path d="M4.203-3.063c0-.828-.64-1.468-1.437-1.468-.407 0-.985.187-1.407.468-.78.516-1.265 1.5-1.265 2.579 0 .937.594 1.578 1.39 1.578.532 0 1.22-.266 1.641-.64.61-.516 1.078-1.626 1.078-2.516zm-1.047.141c0 .86-.25 1.688-.687 2.156-.156.188-.297.266-.594.266-.563 0-.75-.266-.75-.969 0-1 .344-1.984.813-2.343.125-.094.25-.11.484-.11.578 0 .734.266.734 1zm0 0"/></svg><svg overflow="visible" x="105.277" y="42.923"><path d="M7.328-.984l-.156-.25-.422.25c-.266.156-.36.218-.469.218-.062 0 .032.063.032-.046 0-.079.015-.157.062-.344l.719-2.625c.047-.156.078-.297.078-.36 0-.156-.25-.39-.406-.39-.282 0-.766.203-1.344.578-.61.39-.953.703-1.422 1.312l.266.11.28-1.219a1.97 1.97 0 00.079-.375c0-.172-.25-.406-.39-.406-.298 0-.86.234-1.391.61-.422.296-.61.483-1.25 1.265l.265.094.329-1.172c.046-.141.062-.282.062-.391 0-.172-.25-.406-.375-.406-.203 0-.688.218-1.39.687l-.344.235.172.421.5-.28c.343-.22.265-.188.343-.188.094 0 .016-.047.016.078 0 .453-.406 2.156-.797 3.422l.063.265.906-.187.234-1.016c.234-.968.453-1.406.984-1.937.407-.406.735-.625 1-.625.063 0-.062-.063-.062.047 0 .312-.203 1.312-.594 2.859l-.172.61.141.234.86-.172.234-1.047c.156-.719.437-1.297.86-1.719.53-.547.905-.812 1.218-.812.078 0-.031-.063-.031.078 0 .219-.016.344-.235 1.11l-.422 1.39c-.078.25-.125.484-.125.672 0 .219.25.484.438.484.266 0 .719-.219 1.734-.922zm0 0"/></svg><svg overflow="visible" x="112.956" y="42.923"><path d="M2.516-.984l-.157-.25-.406.25c-.297.171-.375.218-.469.218-.078 0 .016.063.016-.046 0-.079.016-.157.063-.344l.75-2.688c.046-.156.062-.234.062-.328 0-.14-.234-.36-.39-.36-.22 0-.688.22-1.407.688l-.344.235.172.421.5-.28c.266-.173.266-.173.344-.173.11 0 0-.062 0 .047 0 .078-.031.266-.063.39l-.64 2.126c-.094.281-.125.5-.125.687 0 .204.266.47.437.47.266 0 .72-.235 1.735-.923zm.28-4.72c0-.202-.28-.484-.483-.484-.297 0-.735.422-.735.72 0 .218.313.5.547.5.313 0 .672-.391.672-.735zm0 0"/></svg><svg overflow="visible" x="115.858" y="42.923"><path d="M4.156-.89L4-1.298c-.25.188-.266.188-.297.234-.312.235-.344.282-.5.282-.094 0 .016.062.016-.078 0-.047 0-.063.015-.094l.891-3.39-.25-.204-.344.172c-.36-.125-.547-.156-.797-.156-.28 0-.468.047-.734.156-.61.281-1.031.578-1.266 1.016C.313-2.58-.03-1.422-.03-.72c0 .375.312.813.484.813.203 0 .672-.219 1.031-.5.407-.328.782-.75 1.313-1.438l-.266-.093-.265 1.125a1.58 1.58 0 00-.063.453c0 .203.25.453.39.453.22 0 .72-.281 1.579-.938zM3-3.798c-.203.953-.344 1.313-.672 1.766-.531.734-1.015 1.25-1.344 1.25-.109 0-.015.015-.015-.235 0-.562.25-1.546.594-2.28.218-.5.312-.532.78-.532.22 0 .407.031.641.11zm0 0"/></svg><svg overflow="visible" x="120.317" y="42.923"><path d="M2.625-6.61l-.188-.156c-.546.25-.89.329-1.718.391l-.094.453h.656c.219 0 .157-.078.157.063 0 .109-.032.312-.047.421L.453-1.296C.328-.844.281-.594.281-.39c0 .204.266.47.438.47.25 0 .719-.235 1.734-.923l-.25-.39-.406.25c-.281.171-.36.218-.469.218-.062 0 .031.063.031-.046 0-.11.032-.22.063-.313l1.25-5.438zm0 0"/></svg><svg overflow="visible" x="126.156" y="42.923"><path d="M3.078-4.156c-.375.031-.703.047-.89.047.124-.688.234-1.125.421-1.625l-.234-.282c-.344.172-.484.25-.922.407L1.22-4.094a5.586 5.586 0 01-.86.297l-.046.344h.796L.594-1.078C.547-.86.469-.641.469-.406c0 .219.265.484.453.484.328 0 .765-.203 1.531-.765.172-.125.11-.094.375-.282l-.234-.39L2-.984c-.297.171-.36.218-.484.218-.063 0 .03.063.03-.046 0-.22.11-.907.423-2.22l.078-.421h1.047l.172-.719zm0 0"/></svg><svg overflow="visible" x="129.544" y="42.923"><path d="M3.844-3.703c0-.422-.469-.828-.953-.828-.641 0-1.797.625-2.188 1.203C.422-2.906.078-1.75.078-1.125.078-.437.656.094 1.36.094c.547 0 1.172-.281 2.141-1l-.188-.406-.406.25c-.515.343-.86.484-1.203.484-.469 0-.594-.203-.594-.735 0-.234.016-.453.063-.609l.656-.14c.172-.047.422-.126.672-.235.813-.328 1.344-.86 1.344-1.406zm-1.016.14c0 .391-.187.672-.687.891-.266.11-.625.219-.86.266l.047-.156c.156-.579.297-.876.563-1.094a.914.914 0 01.625-.235c.28 0 .312.047.312.329zm0 0"/></svg><svg overflow="visible" x="133.472" y="42.923"><path d="M3.797-4.469c-.11-.047-.156-.062-.203-.062-.297 0-.703.25-1.063.703-.328.437-.656.86-.906 1.328l.266.11.265-1.126c.031-.187.11-.39.11-.593 0-.188-.235-.422-.375-.422-.204 0-.672.218-1.391.687l-.344.235.172.421.5-.28c.266-.173.266-.173.344-.173.11 0 .016-.062.016.063 0 .515-.422 2.328-.829 3.515l.235.157c.25-.078.469-.11.812-.172l.282-1.172c.171-.734.343-1.11.765-1.61.328-.39.485-.53.703-.53.14 0 .125 0 .266.156h.36c.03-.47.077-.75.171-1.172zm0 0"/></svg><svg overflow="visible" x="137.515" y="42.923"><path d="M7.328-.984l-.156-.25-.422.25c-.266.156-.36.218-.469.218-.062 0 .032.063.032-.046 0-.079.015-.157.062-.344l.719-2.625c.047-.156.078-.297.078-.36 0-.156-.25-.39-.406-.39-.282 0-.766.203-1.344.578-.61.39-.953.703-1.422 1.312l.266.11.28-1.219a1.97 1.97 0 00.079-.375c0-.172-.25-.406-.39-.406-.298 0-.86.234-1.391.61-.422.296-.61.483-1.25 1.265l.265.094.329-1.172c.046-.141.062-.282.062-.391 0-.172-.25-.406-.375-.406-.203 0-.688.218-1.39.687l-.344.235.172.421.5-.28c.343-.22.265-.188.343-.188.094 0 .016-.047.016.078 0 .453-.406 2.156-.797 3.422l.063.265.906-.187.234-1.016c.234-.968.453-1.406.984-1.937.407-.406.735-.625 1-.625.063 0-.062-.063-.062.047 0 .312-.203 1.312-.594 2.859l-.172.61.141.234.86-.172.234-1.047c.156-.719.437-1.297.86-1.719.53-.547.905-.812 1.218-.812.078 0-.031-.063-.031.078 0 .219-.016.344-.235 1.11l-.422 1.39c-.078.25-.125.484-.125.672 0 .219.25.484.438.484.266 0 .719-.219 1.734-.922zm0 0"/></svg><svg overflow="visible" x="147.859" y="19.63"><path d="M2.516-3.125c0-.422-.407-.844-.844-.844-.422 0-.86.422-.86.844 0 .438.438.86.86.86.437 0 .844-.422.844-.86zm0 0"/></svg><svg overflow="visible" x="157.77" y="19.63"><path d="M4.203-7.828a.735.735 0 01-.187-.14c-.063-.063-.11-.126-.22-.329-1.593 1.61-2.5 3.266-2.5 4.781v.797c0 1.516.907 3.172 2.5 4.781.11-.203.157-.265.22-.328.062-.062.125-.109.312-.203C2.875.063 2.281-1.344 2.281-2.719v-.797c0-1.39.594-2.78 2.047-4.25zm0 0"/></svg><svg overflow="visible" x="162.839" y="19.63"><path d="M5.125-.094v-.484l-.75-.047c-.656-.031-.64-.031-.64-.656v-7.172l-.313-.125c-.875.469-1.61.781-2.86 1.219l.125.718h.235l1.547-.687.031-.016c.063 0-.047-.015-.047.266v5.797c0 .625.016.625-.64.656L1-.578v.625L3.125 0l2 .047zm0 0"/></svg><svg overflow="visible" x="171.471" y="19.63"><path d="M8.266-2.766a1.332 1.332 0 01-.047-.359c0-.11.015-.234.062-.484h-7.5c.063.25.063.375.063.484 0 .125 0 .25-.063.5h7.5zm0 0"/></svg><svg overflow="visible" x="183.222" y="19.63"><path d="M3.703-5.516c-.453.047-.86.063-1.156.063.172-.984.297-1.578.531-2.25l-.25-.328a7.16 7.16 0 01-1.094.531l-.296 2.031c-.391.203-.704.328-1.063.407l-.047.406h1l-.64 3.25C.625-1.11.53-.813.53-.5c0 .297.266.61.5.61.422 0 .922-.282 1.86-1.032.218-.172.14-.125.437-.36l-.25-.437-.672.469c-.36.25-.484.313-.625.313-.093 0-.031.046-.031-.11 0-.297.156-1.234.516-3l.14-.61h1.266l.203-.89zm0 0"/></svg><svg overflow="visible" x="187.263" y="19.63"><path d="M3.766-2.719v-.797c0-1.515-.907-3.171-2.516-4.78-.11.202-.156.265-.203.327-.063.063-.125.11-.313.203 1.438 1.47 2.032 2.86 2.032 4.25v.797c0 1.375-.594 2.781-2.032 4.25.188.094.25.14.313.203.047.063.094.125.203.329C2.86.452 3.766-1.204 3.766-2.72zm0 0"/></svg><svg overflow="visible" x="192.334" y="16.091"><path d="M4.406-4.453a1.836 1.836 0 00-.453-.078c-.64 0-1.547.718-2.765 2.265l.265.094L2.5-6.562l-.234-.204c-.547.25-.891.329-1.704.391l-.109.453h.656c.235 0 .172-.078.172.078 0 .063 0 .14-.031.203L.797-3.266C.672-2.594.5-1.984 0-.094l.188.188.843-.188.25-1.203c.078-.422.266-.734.422-.875C2.266-.656 2.734.078 2.984.078c.125 0 .454-.156.875-.422l.516-.328-.172-.406-.61.297c-.124.078-.077.062-.155.062-.11 0-.063-.031-.141-.172-.344-.562-.516-.953-.875-2l.078-.062c.594-.547.922-.719 1.406-.719.078 0 .172.016.453.078l.22-.797zm0 0"/></svg><svg overflow="visible" x="196.996" y="16.091"><path d="M6.156-2.078c-.015-.094-.015-.172-.015-.266 0-.094 0-.172.046-.39H.516c.046.218.062.296.062.39 0 .094-.015.172-.062.39h5.671zm0 0"/></svg><svg overflow="visible" x="203.72" y="16.091"><path d="M2.516-.984l-.157-.25-.406.25c-.297.171-.375.218-.469.218-.078 0 .016.063.016-.046 0-.079.016-.157.063-.344l.75-2.688c.046-.156.062-.234.062-.328 0-.14-.234-.36-.39-.36-.22 0-.688.22-1.407.688l-.344.235.172.421.5-.28c.266-.173.266-.173.344-.173.11 0 0-.062 0 .047 0 .078-.031.266-.063.39l-.64 2.126c-.094.281-.125.5-.125.687 0 .204.266.47.437.47.266 0 .72-.235 1.735-.923zm.28-4.72c0-.202-.28-.484-.483-.484-.297 0-.735.422-.735.72 0 .218.313.5.547.5.313 0 .672-.391.672-.735zm0 0"/></svg><svg overflow="visible" x="209.777" y="19.63"><path d="M2.516-3.125c0-.422-.407-.844-.844-.844-.422 0-.86.422-.86.844 0 .438.438.86.86.86.437 0 .844-.422.844-.86zm0 0"/></svg><svg overflow="visible" x="215.779" y="19.63"><path d="M3.703-5.516c-.453.047-.86.063-1.156.063.172-.984.297-1.578.531-2.25l-.25-.328a7.16 7.16 0 01-1.094.531l-.296 2.031c-.391.203-.704.328-1.063.407l-.047.406h1l-.64 3.25C.625-1.11.53-.813.53-.5c0 .297.266.61.5.61.422 0 .922-.282 1.86-1.032.218-.172.14-.125.437-.36l-.25-.437-.672.469c-.36.25-.484.313-.625.313-.093 0-.031.046-.031-.11 0-.297.156-1.234.516-3l.14-.61h1.266l.203-.89zm0 0"/></svg><svg overflow="visible" x="219.822" y="16.091"><path d="M2.516-.984l-.157-.25-.406.25c-.297.171-.375.218-.469.218-.078 0 .016.063.016-.046 0-.079.016-.157.063-.344l.75-2.688c.046-.156.062-.234.062-.328 0-.14-.234-.36-.39-.36-.22 0-.688.22-1.407.688l-.344.235.172.421.5-.28c.266-.173.266-.173.344-.173.11 0 0-.062 0 .047 0 .078-.031.266-.063.39l-.64 2.126c-.094.281-.125.5-.125.687 0 .204.266.47.437.47.266 0 .72-.235 1.735-.923zm.28-4.72c0-.202-.28-.484-.483-.484-.297 0-.735.422-.735.72 0 .218.313.5.547.5.313 0 .672-.391.672-.735zm0 0"/></svg><svg overflow="visible" x="157.778" y="21.59"><path d="M10.563 2.11h-5.11C2.531 2.11.875 2.062.516 1.046c-.235.156-.204.172-.282.203-.078.016-.156.031-.406.063.36 1.015 2.36 1.921 5.625 1.921h5.25V2.11zm0 0"/></svg><svg overflow="visible" x="165.967" y="21.59"><path d="M10.578 3.094v-.985H-.14v1.125h10.72zm0 0"/></svg><svg overflow="visible" x="171.861" y="21.59"><path d="M10.578 3.094v-.985H-.14v1.125h10.72zm0 0"/></svg><svg overflow="visible" x="179.931" y="21.59"><path d="M21.281 3.094v-.985h-5.484c-2.86 0-4.735.563-5.235 1.125-.5-.562-2.343-1.125-5.203-1.125h-5.5v1.125h5.5c3.188 0 4.844-.062 4.844.938.203-.078.297-.078.375-.078.078 0 .156 0 .375.078 0-1 1.656-.938 4.844-.938h5.484zm0 0"/></svg><svg overflow="visible" x="198.689" y="21.59"><path d="M10.578 3.094v-.985H-.14v1.125h10.72zm0 0"/></svg><svg overflow="visible" x="204.583" y="21.59"><path d="M10.578 3.094v-.985H-.14v1.125h10.72zm0 0"/></svg><svg overflow="visible" x="212.652" y="21.59"><path d="M10.578 1.297c-.078-.016-.172-.031-.234-.047-.094-.031-.063-.047-.281-.203-.376 1.016-2.032 1.062-4.938 1.062H-.141v1.125h5.266c3.25 0 5.25-.906 5.625-1.921zm0 0"/></svg><svg overflow="visible" x="156.852" y="33.634"><path d="M4.719-3.406C4.719-4 4.344-4.531 4-4.531c-.406 0-1.016.281-1.531.687-.375.313-.578.531-.938 1.063l.266.094.234-1.047c.031-.157.047-.297.047-.391 0-.172-.234-.406-.36-.406-.202 0-.687.218-1.405.687l-.329.235.157.437.5-.297c.28-.172.28-.172.375-.172.078 0 0-.062 0 .063 0 .078-.032.25-.047.344L.406-.204l-.469 2.126-.093.39.203.141c.25-.078.437-.125.875-.187l.39-2.25L1.282 0c.25.078.405.094.5.094.546 0 1.75-.672 2.171-1.235.39-.546.766-1.609.766-2.265zm-1 .125c0 .719-.344 1.672-.86 2.344-.187.25-.39.359-.765.359-.313 0-.438-.031-.64-.14l.171-.876c.203-1.125 1.078-2.156 1.89-2.156.25 0 .204.063.204.469zm0 0"/></svg><svg overflow="visible" x="161.85" y="33.634"><path d="M4.203-3.063c0-.828-.64-1.468-1.437-1.468-.407 0-.985.187-1.407.468-.78.516-1.265 1.5-1.265 2.579 0 .937.594 1.578 1.39 1.578.532 0 1.22-.266 1.641-.64.61-.516 1.078-1.626 1.078-2.516zm-1.047.141c0 .86-.25 1.688-.687 2.156-.156.188-.297.266-.594.266-.563 0-.75-.266-.75-.969 0-1 .344-1.984.813-2.343.125-.094.25-.11.484-.11.578 0 .734.266.734 1zm0 0"/></svg><svg overflow="visible" x="166.309" y="33.634"><path d="M2.625-6.61l-.188-.156c-.546.25-.89.329-1.718.391l-.094.453h.656c.219 0 .157-.078.157.063 0 .109-.032.312-.047.421L.453-1.296C.328-.844.281-.594.281-.39c0 .204.266.47.438.47.25 0 .719-.235 1.734-.923l-.25-.39-.406.25c-.281.171-.36.218-.469.218-.062 0 .031.063.031-.046 0-.11.032-.22.063-.313l1.25-5.438zm0 0"/></svg><svg overflow="visible" x="169.167" y="33.634"><path d="M4.922-4.406l-.188-.14a3.25 3.25 0 01-.875.202L3.5-3.062c-.125.421-.406.968-.734 1.406-.329.437-.688.797-.907.797-.203 0-.03-.297-.03-.407l.14-1.718c.015-.266.047-.61.047-.86 0-.39-.22-.687-.391-.687-.125 0-.375.093-.828.39l-.89.563.265.375.64-.36c.047-.03.063-.062.141-.062.235 0 .047.313.031.453L.828-1.016l-.015.36c0 .36.343.75.578.75.359 0 1.265-.781 2-1.782l-.266-.093-.484 1.5c-.485 1.578-.813 2.078-1.485 2.078-.328 0-.453-.094-.453-.406 0-.047.016-.11.047-.266l-.297-.11-.578.376c-.031.125-.031.187-.031.234 0 .375.531.813.969.813 1.015 0 2.218-1.22 2.78-2.86l1.391-3.937zm0 0"/></svg><svg overflow="visible" x="174.227" y="33.634"><path d="M5.14-.984l-.156-.25-.406.25c-.281.156-.375.218-.469.218-.062 0 .016.063.016-.046 0-.032-.031-.032.031-.157l.625-2.453c.078-.25.11-.5.11-.656 0-.203-.25-.453-.438-.453-.406 0-1.187.375-1.766.86-.359.312-.64.608-1.124 1.25l.265.108.36-1.421c.046-.172.062-.266.062-.375 0-.188-.234-.422-.375-.422-.203 0-.703.234-1.39.687l-.344.235.172.421.5-.28c.343-.22.265-.188.343-.188.094 0 .016-.047.016.078 0 .453-.406 2.156-.813 3.453l.172.219c.313-.078.531-.125.875-.188.203-1.218.375-1.703.797-2.312.531-.735 1.14-1.25 1.578-1.25.094 0 0-.063 0 .078 0 .156-.015.344-.11.625l-.5 1.875c-.077.328-.124.531-.124.672 0 .219.265.484.453.484.25 0 .703-.219 1.734-.922zm0 0"/></svg><svg overflow="visible" x="179.765" y="33.634"><path d="M4.203-3.063c0-.828-.64-1.468-1.437-1.468-.407 0-.985.187-1.407.468-.78.516-1.265 1.5-1.265 2.579 0 .937.594 1.578 1.39 1.578.532 0 1.22-.266 1.641-.64.61-.516 1.078-1.626 1.078-2.516zm-1.047.141c0 .86-.25 1.688-.687 2.156-.156.188-.297.266-.594.266-.563 0-.75-.266-.75-.969 0-1 .344-1.984.813-2.343.125-.094.25-.11.484-.11.578 0 .734.266.734 1zm0 0"/></svg><svg overflow="visible" x="184.224" y="33.634"><path d="M7.328-.984l-.156-.25-.422.25c-.266.156-.36.218-.469.218-.062 0 .032.063.032-.046 0-.079.015-.157.062-.344l.719-2.625c.047-.156.078-.297.078-.36 0-.156-.25-.39-.406-.39-.282 0-.766.203-1.344.578-.61.39-.953.703-1.422 1.312l.266.11.28-1.219a1.97 1.97 0 00.079-.375c0-.172-.25-.406-.39-.406-.298 0-.86.234-1.391.61-.422.296-.61.483-1.25 1.265l.265.094.329-1.172c.046-.141.062-.282.062-.391 0-.172-.25-.406-.375-.406-.203 0-.688.218-1.39.687l-.344.235.172.421.5-.28c.343-.22.265-.188.343-.188.094 0 .016-.047.016.078 0 .453-.406 2.156-.797 3.422l.063.265.906-.187.234-1.016c.234-.968.453-1.406.984-1.937.407-.406.735-.625 1-.625.063 0-.062-.063-.062.047 0 .312-.203 1.312-.594 2.859l-.172.61.141.234.86-.172.234-1.047c.156-.719.437-1.297.86-1.719.53-.547.905-.812 1.218-.812.078 0-.031-.063-.031.078 0 .219-.016.344-.235 1.11l-.422 1.39c-.078.25-.125.484-.125.672 0 .219.25.484.438.484.266 0 .719-.219 1.734-.922zm0 0"/></svg><svg overflow="visible" x="191.903" y="33.634"><path d="M2.516-.984l-.157-.25-.406.25c-.297.171-.375.218-.469.218-.078 0 .016.063.016-.046 0-.079.016-.157.063-.344l.75-2.688c.046-.156.062-.234.062-.328 0-.14-.234-.36-.39-.36-.22 0-.688.22-1.407.688l-.344.235.172.421.5-.28c.266-.173.266-.173.344-.173.11 0 0-.062 0 .047 0 .078-.031.266-.063.39l-.64 2.126c-.094.281-.125.5-.125.687 0 .204.266.47.437.47.266 0 .72-.235 1.735-.923zm.28-4.72c0-.202-.28-.484-.483-.484-.297 0-.735.422-.735.72 0 .218.313.5.547.5.313 0 .672-.391.672-.735zm0 0"/></svg><svg overflow="visible" x="194.805" y="33.634"><path d="M4.156-.89L4-1.298c-.25.188-.266.188-.297.234-.312.235-.344.282-.5.282-.094 0 .016.062.016-.078 0-.047 0-.063.015-.094l.891-3.39-.25-.204-.344.172c-.36-.125-.547-.156-.797-.156-.28 0-.468.047-.734.156-.61.281-1.031.578-1.266 1.016C.313-2.58-.03-1.422-.03-.72c0 .375.312.813.484.813.203 0 .672-.219 1.031-.5.407-.328.782-.75 1.313-1.438l-.266-.093-.265 1.125a1.58 1.58 0 00-.063.453c0 .203.25.453.39.453.22 0 .72-.281 1.579-.938zM3-3.798c-.203.953-.344 1.313-.672 1.766-.531.734-1.015 1.25-1.344 1.25-.109 0-.015.015-.015-.235 0-.562.25-1.546.594-2.28.218-.5.312-.532.78-.532.22 0 .407.031.641.11zm0 0"/></svg><svg overflow="visible" x="199.264" y="33.634"><path d="M2.625-6.61l-.188-.156c-.546.25-.89.329-1.718.391l-.094.453h.656c.219 0 .157-.078.157.063 0 .109-.032.312-.047.421L.453-1.296C.328-.844.281-.594.281-.39c0 .204.266.47.438.47.25 0 .719-.235 1.734-.923l-.25-.39-.406.25c-.281.171-.36.218-.469.218-.062 0 .031.063.031-.046 0-.11.032-.22.063-.313l1.25-5.438zm0 0"/></svg><svg overflow="visible" x="205.102" y="33.634"><path d="M3.078-4.156c-.375.031-.703.047-.89.047.124-.688.234-1.125.421-1.625l-.234-.282c-.344.172-.484.25-.922.407L1.22-4.094a5.586 5.586 0 01-.86.297l-.046.344h.796L.594-1.078C.547-.86.469-.641.469-.406c0 .219.265.484.453.484.328 0 .765-.203 1.531-.765.172-.125.11-.094.375-.282l-.234-.39L2-.984c-.297.171-.36.218-.484.218-.063 0 .03.063.03-.046 0-.22.11-.907.423-2.22l.078-.421h1.047l.172-.719zm0 0"/></svg><svg overflow="visible" x="208.491" y="33.634"><path d="M3.844-3.703c0-.422-.469-.828-.953-.828-.641 0-1.797.625-2.188 1.203C.422-2.906.078-1.75.078-1.125.078-.437.656.094 1.36.094c.547 0 1.172-.281 2.141-1l-.188-.406-.406.25c-.515.343-.86.484-1.203.484-.469 0-.594-.203-.594-.735 0-.234.016-.453.063-.609l.656-.14c.172-.047.422-.126.672-.235.813-.328 1.344-.86 1.344-1.406zm-1.016.14c0 .391-.187.672-.687.891-.266.11-.625.219-.86.266l.047-.156c.156-.579.297-.876.563-1.094a.914.914 0 01.625-.235c.28 0 .312.047.312.329zm0 0"/></svg><svg overflow="visible" x="212.419" y="33.634"><path d="M3.797-4.469c-.11-.047-.156-.062-.203-.062-.297 0-.703.25-1.063.703-.328.437-.656.86-.906 1.328l.266.11.265-1.126c.031-.187.11-.39.11-.593 0-.188-.235-.422-.375-.422-.204 0-.672.218-1.391.687l-.344.235.172.421.5-.28c.266-.173.266-.173.344-.173.11 0 .016-.062.016.063 0 .515-.422 2.328-.829 3.515l.235.157c.25-.078.469-.11.812-.172l.282-1.172c.171-.734.343-1.11.765-1.61.328-.39.485-.53.703-.53.14 0 .125 0 .266.156h.36c.03-.47.077-.75.171-1.172zm0 0"/></svg><svg overflow="visible" x="216.462" y="33.634"><path d="M7.328-.984l-.156-.25-.422.25c-.266.156-.36.218-.469.218-.062 0 .032.063.032-.046 0-.079.015-.157.062-.344l.719-2.625c.047-.156.078-.297.078-.36 0-.156-.25-.39-.406-.39-.282 0-.766.203-1.344.578-.61.39-.953.703-1.422 1.312l.266.11.28-1.219a1.97 1.97 0 00.079-.375c0-.172-.25-.406-.39-.406-.298 0-.86.234-1.391.61-.422.296-.61.483-1.25 1.265l.265.094.329-1.172c.046-.141.062-.282.062-.391 0-.172-.25-.406-.375-.406-.203 0-.688.218-1.39.687l-.344.235.172.421.5-.28c.343-.22.265-.188.343-.188.094 0 .016-.047.016.078 0 .453-.406 2.156-.797 3.422l.063.265.906-.187.234-1.016c.234-.968.453-1.406.984-1.937.407-.406.735-.625 1-.625.063 0-.062-.063-.062.047 0 .312-.203 1.312-.594 2.859l-.172.61.141.234.86-.172.234-1.047c.156-.719.437-1.297.86-1.719.53-.547.905-.812 1.218-.812.078 0-.031-.063-.031.078 0 .219-.016.344-.235 1.11l-.422 1.39c-.078.25-.125.484-.125.672 0 .219.25.484.438.484.266 0 .719-.219 1.734-.922zm0 0"/></svg><svg overflow="visible" x="229.794" y="19.63"><path d="M2.516-3.125c0-.422-.407-.844-.844-.844-.422 0-.86.422-.86.844 0 .438.438.86.86.86.437 0 .844-.422.844-.86zm0 0"/></svg><svg overflow="visible" x="240.769" y="19.63"><path d="M7.063-17.313c-.063-.046-.125-.093-.188-.156-.063-.047-.11-.11-.219-.312C3.47-14.594 1.563-10.328 1.563-5.5v4.766c0 4.828 1.906 9.093 5.093 12.28.11-.202.157-.265.219-.327.063-.047.125-.11.313-.203C4.14 7.953 2.796 3.89 2.796-.734V-5.5c0-4.64 1.344-8.688 4.39-11.766zm0 0"/></svg><svg overflow="visible" x="250.093" y="11.021"><path d="M4.203-7.828a.735.735 0 01-.187-.14c-.063-.063-.11-.126-.22-.329-1.593 1.61-2.5 3.266-2.5 4.781v.797c0 1.516.907 3.172 2.5 4.781.11-.203.157-.265.22-.328.062-.062.125-.109.312-.203C2.875.063 2.281-1.344 2.281-2.719v-.797c0-1.39.594-2.78 2.047-4.25zm0 0"/></svg><svg overflow="visible" x="255.162" y="11.021"><path d="M5.36-5.922a2.204 2.204 0 00-.563-.11c-.797 0-1.89.97-3.39 3.063l.25.094 1.28-5.938-.265-.234c-.75.375-1.063.438-2.047.531l-.094.5h.735c.28 0 .265-.046.265.157 0 .109-.015.203-.031.296L.937-4.358c-.156.89-.359 1.718-1 4.25l.204.234.968-.25.297-1.578c.11-.578.36-1.016.61-1.281C2.766-.844 3.28.109 3.578.109c.156 0 .547-.187 1.078-.562l.61-.438-.204-.453-.671.375c-.172.094-.141.078-.25.078-.11 0-.094-.03-.204-.234-.421-.766-.656-1.313-1.109-2.734l.125-.125c.735-.72 1.188-.985 1.781-.985.094 0 .22.016.516.094l.266-1zm0 0"/></svg><svg overflow="visible" x="263.519" y="11.021"><path d="M8.266-2.766a1.332 1.332 0 01-.047-.359c0-.11.015-.234.062-.484h-7.5c.063.25.063.375.063.484 0 .125 0 .25-.063.5h7.5zm0 0"/></svg><svg overflow="visible" x="275.259" y="11.021"><path d="M2.969-1.25l-.172-.297-.453.297c-.36.234-.5.313-.625.313-.078 0-.016.03-.016-.11 0-.11 0-.203.078-.469l.922-3.64c.047-.203.063-.313.063-.422 0-.203-.22-.453-.422-.453-.266 0-.797.281-1.703.922l-.407.296.188.485.547-.36c.344-.218.375-.234.484-.234.11 0 .047-.031.047.11 0 .109-.047.359-.094.53L.625-1.405c-.11.375-.156.672-.156.922 0 .28.265.593.5.593.312 0 .844-.296 2.078-1.218zm.344-6.406c0-.282-.313-.61-.563-.61-.36 0-.844.516-.844.922 0 .297.328.625.625.625.375 0 .781-.484.781-.937zm0 0"/></svg><svg overflow="visible" x="278.774" y="11.021"><path d="M3.766-2.719v-.797c0-1.515-.907-3.171-2.516-4.78-.11.202-.156.265-.203.327-.063.063-.125.11-.313.203 1.438 1.47 2.032 2.86 2.032 4.25v.797c0 1.375-.594 2.781-2.032 4.25.188.094.25.14.313.203.047.063.094.125.203.329C2.86.452 3.766-1.204 3.766-2.72zm0 0"/></svg><svg overflow="visible" x="286.497" y="11.021"><path d="M2.516-3.125c0-.422-.407-.844-.844-.844-.422 0-.86.422-.86.844 0 .438.438.86.86.86.437 0 .844-.422.844-.86zm0 0"/></svg><svg overflow="visible" x="292.498" y="11.021"><path d="M8.484-4.719c0-.687-.437-1.312-.875-1.312-.156 0-.406.093-.5.187l-.671.625.265.453c.25-.171.266-.171.375-.171.328 0 .375.14.375.625 0 1.734-1.016 3.578-2.031 3.578-.36 0-.469-.344-.469-1 0-.563.11-1.344.25-1.86l.625-2.234-.187-.219-1.032.313-.375 1.89c-.14.735-.28 1.125-.625 1.766-.484.89-.828 1.344-1.187 1.344-.406 0-.563-.329-.563-1.016 0-1.422.454-2.5 1.704-3.906l-.235-.407c-.281.141-.437.188-.765.188-.5 0-.985-.047-1.47-.094-.155 0-.25.032-.5.125-.155.328-.327.844-.515 1.64h.5l.266-.64c.094-.203.203-.203.484-.203.219 0 .438.031.672.031.25 0 .406-.015.422-.015.062-.11-.063.015-.188.172C1.156-3.61.72-2.656.72-1.641c0 .985.562 1.766 1.187 1.766.766 0 1.485-.688 2.375-2.39l-.234-.094c-.11.515-.156.812-.156 1.093 0 .75.5 1.391 1.03 1.391.97 0 2.36-1.328 3.095-2.969.265-.594.468-1.406.468-1.875zm0 0"/></svg><svg overflow="visible" x="301.141" y="13.795"><path d="M2.516-.984l-.157-.25-.406.25c-.297.171-.375.218-.469.218-.078 0 .016.063.016-.046 0-.079.016-.157.063-.344l.75-2.688c.046-.156.062-.234.062-.328 0-.14-.234-.36-.39-.36-.22 0-.688.22-1.407.688l-.344.235.172.421.5-.28c.266-.173.266-.173.344-.173.11 0 0-.062 0 .047 0 .078-.031.266-.063.39l-.64 2.126c-.094.281-.125.5-.125.687 0 .204.266.47.437.47.266 0 .72-.235 1.735-.923zm.28-4.72c0-.202-.28-.484-.483-.484-.297 0-.735.422-.735.72 0 .218.313.5.547.5.313 0 .672-.391.672-.735zm0 0"/></svg><svg overflow="visible" x="307.198" y="11.021"><path d="M8.266-2.766a1.332 1.332 0 01-.047-.359c0-.11.015-.234.062-.484h-3.25v-3.266c-.25.063-.375.078-.484.078-.125 0-.25-.016-.5-.078v3.266H.78c.063.25.063.375.063.484 0 .125 0 .25-.063.5h3.266V.641c.25-.063.375-.079.5-.079.11 0 .234.016.484.079v-3.266h3.25zm0 0"/></svg><svg overflow="visible" x="318.938" y="11.021"><path d="M2.969-1.25l-.172-.297-.453.297c-.36.234-.5.313-.625.313-.078 0-.016.03-.016-.11 0-.11 0-.203.078-.469l.922-3.64c.047-.203.063-.313.063-.422 0-.203-.22-.453-.422-.453-.266 0-.797.281-1.703.922l-.407.296.188.485.547-.36c.344-.218.375-.234.484-.234.11 0 .047-.031.047.11 0 .109-.047.359-.094.53L.625-1.405c-.11.375-.156.672-.156.922 0 .28.265.593.5.593.312 0 .844-.296 2.078-1.218zm.344-6.406c0-.282-.313-.61-.563-.61-.36 0-.844.516-.844.922 0 .297.328.625.625.625.375 0 .781-.484.781-.937zm0 0"/></svg><svg overflow="visible" x="325.107" y="11.021"><path d="M2.516-3.125c0-.422-.407-.844-.844-.844-.422 0-.86.422-.86.844 0 .438.438.86.86.86.437 0 .844-.422.844-.86zm0 0"/></svg><svg overflow="visible" x="331.108" y="11.021"><path d="M8.484-4.719c0-.687-.437-1.312-.875-1.312-.156 0-.406.093-.5.187l-.671.625.265.453c.25-.171.266-.171.375-.171.328 0 .375.14.375.625 0 1.734-1.016 3.578-2.031 3.578-.36 0-.469-.344-.469-1 0-.563.11-1.344.25-1.86l.625-2.234-.187-.219-1.032.313-.375 1.89c-.14.735-.28 1.125-.625 1.766-.484.89-.828 1.344-1.187 1.344-.406 0-.563-.329-.563-1.016 0-1.422.454-2.5 1.704-3.906l-.235-.407c-.281.141-.437.188-.765.188-.5 0-.985-.047-1.47-.094-.155 0-.25.032-.5.125-.155.328-.327.844-.515 1.64h.5l.266-.64c.094-.203.203-.203.484-.203.219 0 .438.031.672.031.25 0 .406-.015.422-.015.062-.11-.063.015-.188.172C1.156-3.61.72-2.656.72-1.641c0 .985.562 1.766 1.187 1.766.766 0 1.485-.688 2.375-2.39l-.234-.094c-.11.515-.156.812-.156 1.093 0 .75.5 1.391 1.03 1.391.97 0 2.36-1.328 3.095-2.969.265-.594.468-1.406.468-1.875zm0 0"/></svg><svg overflow="visible" x="339.749" y="13.795"><path d="M2.516-.984l-.157-.25-.406.25c-.297.171-.375.218-.469.218-.078 0 .016.063.016-.046 0-.079.016-.157.063-.344l.75-2.688c.046-.156.062-.234.062-.328 0-.14-.234-.36-.39-.36-.22 0-.688.22-1.407.688l-.344.235.172.421.5-.28c.266-.173.266-.173.344-.173.11 0 0-.062 0 .047 0 .078-.031.266-.063.39l-.64 2.126c-.094.281-.125.5-.125.687 0 .204.266.47.437.47.266 0 .72-.235 1.735-.923zm.28-4.72c0-.202-.28-.484-.483-.484-.297 0-.735.422-.735.72 0 .218.313.5.547.5.313 0 .672-.391.672-.735zm0 0"/></svg><svg overflow="visible" x="342.651" y="13.795"><path d="M6.156-2.078c-.015-.094-.015-.172-.015-.266 0-.094 0-.172.046-.39H.516c.046.218.062.296.062.39 0 .094-.015.172-.062.39h5.671zm0 0"/></svg><svg overflow="visible" x="349.374" y="13.795"><path d="M4.266-.11V-.5l-.657-.031c-.515-.031-.468.015-.468-.453v-5.329l-.282-.093c-.625.297-1.312.562-2.375.906l.11.594h.234l1.25-.516.031-.016c.047 0-.078-.046-.078.172v4.282c0 .468.047.421-.469.453L.86-.5v.531L2.594 0l1.672.031zm0 0"/></svg><path d="M250.094 16.64H354.87" fill="none" stroke-width=".717" stroke="#000" stroke-miterlimit="10"/><svg overflow="visible" x="299.631" y="27.675"><path d="M5.36-5.922a2.204 2.204 0 00-.563-.11c-.797 0-1.89.97-3.39 3.063l.25.094 1.28-5.938-.265-.234c-.75.375-1.063.438-2.047.531l-.094.5h.735c.28 0 .265-.046.265.157 0 .109-.015.203-.031.296L.937-4.358c-.156.89-.359 1.718-1 4.25l.204.234.968-.25.297-1.578c.11-.578.36-1.016.61-1.281C2.766-.844 3.28.109 3.578.109c.156 0 .547-.187 1.078-.562l.61-.438-.204-.453-.671.375c-.172.094-.141.078-.25.078-.11 0-.094-.03-.204-.234-.421-.766-.656-1.313-1.109-2.734l.125-.125c.735-.72 1.188-.985 1.781-.985.094 0 .22.016.516.094l.266-1zm0 0"/></svg><svg overflow="visible" x="356.067" y="19.629"><path d="M6.531-.734V-5.5c0-4.828-1.875-9.094-5.078-12.281-.11.203-.156.265-.219.312-.062.063-.125.11-.312.203 3.062 3.078 4.39 7.125 4.39 11.766v4.766c0 4.625-1.328 8.687-4.39 11.75.187.093.25.156.312.203.063.062.11.125.22.328C4.655 8.359 6.53 4.094 6.53-.734zm0 0"/></svg><svg overflow="visible" x="238.787" y="31.082"><path d="M10.563 2.11h-5.11C2.531 2.11.875 2.062.516 1.046c-.235.156-.204.172-.282.203-.078.016-.156.031-.406.063.36 1.015 2.36 1.921 5.625 1.921h5.25V2.11zm0 0"/></svg><svg overflow="visible" x="248.172" y="31.082"><path d="M10.578 3.094v-.985H-.14v1.125h10.72zm0 0"/></svg><svg overflow="visible" x="256.54" y="31.082"><path d="M10.578 3.094v-.985H-.14v1.125h10.72zm0 0"/></svg><svg overflow="visible" x="264.909" y="31.082"><path d="M10.578 3.094v-.985H-.14v1.125h10.72zm0 0"/></svg><svg overflow="visible" x="273.278" y="31.082"><path d="M10.578 3.094v-.985H-.14v1.125h10.72zm0 0"/></svg><svg overflow="visible" x="281.646" y="31.082"><path d="M10.578 3.094v-.985H-.14v1.125h10.72zm0 0"/></svg><svg overflow="visible" x="290.912" y="31.082"><path d="M21.281 3.094v-.985h-5.484c-2.86 0-4.735.563-5.235 1.125-.5-.562-2.343-1.125-5.203-1.125h-5.5v1.125h5.5c3.188 0 4.844-.062 4.844.938.203-.078.297-.078.375-.078.078 0 .156 0 .375.078 0-1 1.656-.938 4.844-.938h5.484zm0 0"/></svg><svg overflow="visible" x="310.877" y="31.082"><path d="M10.578 3.094v-.985H-.14v1.125h10.72zm0 0"/></svg><svg overflow="visible" x="319.245" y="31.082"><path d="M10.578 3.094v-.985H-.14v1.125h10.72zm0 0"/></svg><svg overflow="visible" x="327.614" y="31.082"><path d="M10.578 3.094v-.985H-.14v1.125h10.72zm0 0"/></svg><svg overflow="visible" x="335.983" y="31.082"><path d="M10.578 3.094v-.985H-.14v1.125h10.72zm0 0"/></svg><svg overflow="visible" x="344.351" y="31.082"><path d="M10.578 3.094v-.985H-.14v1.125h10.72zm0 0"/></svg><g><svg overflow="visible" x="353.605" y="31.082"><path d="M10.578 1.297c-.078-.016-.172-.031-.234-.047-.094-.031-.063-.047-.281-.203-.376 1.016-2.032 1.062-4.938 1.062H-.141v1.125h5.266c3.25 0 5.25-.906 5.625-1.921zm0 0"/></svg></g><g><svg overflow="visible" x="275.977" y="43.126"><path d="M5.14-.984l-.156-.25-.406.25c-.281.156-.375.218-.469.218-.062 0 .016.063.016-.046 0-.032-.031-.032.031-.157l.625-2.453c.078-.25.11-.5.11-.656 0-.203-.25-.453-.438-.453-.406 0-1.187.375-1.766.86-.359.312-.64.608-1.124 1.25l.265.108.36-1.421c.046-.172.062-.266.062-.375 0-.188-.234-.422-.375-.422-.203 0-.703.234-1.39.687l-.344.235.172.421.5-.28c.343-.22.265-.188.343-.188.094 0 .016-.047.016.078 0 .453-.406 2.156-.813 3.453l.172.219c.313-.078.531-.125.875-.188.203-1.218.375-1.703.797-2.312.531-.735 1.14-1.25 1.578-1.25.094 0 0-.063 0 .078 0 .156-.015.344-.11.625l-.5 1.875c-.077.328-.124.531-.124.672 0 .219.265.484.453.484.25 0 .703-.219 1.734-.922zm0 0"/></svg><svg overflow="visible" x="281.515" y="43.126"><path d="M3.844-3.703c0-.422-.469-.828-.953-.828-.641 0-1.797.625-2.188 1.203C.422-2.906.078-1.75.078-1.125.078-.437.656.094 1.36.094c.547 0 1.172-.281 2.141-1l-.188-.406-.406.25c-.515.343-.86.484-1.203.484-.469 0-.594-.203-.594-.735 0-.234.016-.453.063-.609l.656-.14c.172-.047.422-.126.672-.235.813-.328 1.344-.86 1.344-1.406zm-1.016.14c0 .391-.187.672-.687.891-.266.11-.625.219-.86.266l.047-.156c.156-.579.297-.876.563-1.094a.914.914 0 01.625-.235c.28 0 .312.047.312.329zm0 0"/></svg><svg overflow="visible" x="285.443" y="43.126"><path d="M6.984-3.531c0-.5-.406-1-.765-1a.966.966 0 00-.422.14l-.547.485.234.39c.25-.14.22-.14.313-.14.266 0 .25.078.25.422 0 1.28-.781 2.625-1.594 2.625-.281 0-.328-.22-.328-.704 0-.421.078-1 .203-1.39l.516-1.656-.188-.188-.89.25-.313 1.406c-.11.563-.203.813-.484 1.297-.39.657-.64.985-.922.985-.344 0-.406-.22-.406-.72 0-1.062.343-1.812 1.375-2.874l-.22-.344c-.25.094-.374.125-.64.125-.39 0-.797-.031-1.187-.062-.125-.016-.203.015-.422.109-.14.234-.297.64-.453 1.266h.5l.219-.5c.078-.157.109-.125.343-.125.188 0 .36.015.547.015h.266c.093-.14 0-.047-.11.063C1-2.734.625-2 .625-1.25c0 .734.5 1.344 1 1.344.625 0 1.234-.516 1.938-1.782l-.266-.093c-.078.39-.11.61-.11.812 0 .547.438 1.063.876 1.063.78 0 1.937-1.016 2.53-2.235.22-.437.391-1.03.391-1.39zm0 0"/></svg></g><g><svg overflow="visible" x="295.564" y="43.126"><path d="M6.984-3.531c0-.5-.406-1-.765-1a.966.966 0 00-.422.14l-.547.485.234.39c.25-.14.22-.14.313-.14.266 0 .25.078.25.422 0 1.28-.781 2.625-1.594 2.625-.281 0-.328-.22-.328-.704 0-.421.078-1 .203-1.39l.516-1.656-.188-.188-.89.25-.313 1.406c-.11.563-.203.813-.484 1.297-.39.657-.64.985-.922.985-.344 0-.406-.22-.406-.72 0-1.062.343-1.812 1.375-2.874l-.22-.344c-.25.094-.374.125-.64.125-.39 0-.797-.031-1.187-.062-.125-.016-.203.015-.422.109-.14.234-.297.64-.453 1.266h.5l.219-.5c.078-.157.109-.125.343-.125.188 0 .36.015.547.015h.266c.093-.14 0-.047-.11.063C1-2.734.625-2 .625-1.25c0 .734.5 1.344 1 1.344.625 0 1.234-.516 1.938-1.782l-.266-.093c-.078.39-.11.61-.11.812 0 .547.438 1.063.876 1.063.78 0 1.937-1.016 2.53-2.235.22-.437.391-1.03.391-1.39zm0 0"/></svg><svg overflow="visible" x="302.703" y="43.126"><path d="M3.844-3.703c0-.422-.469-.828-.953-.828-.641 0-1.797.625-2.188 1.203C.422-2.906.078-1.75.078-1.125.078-.437.656.094 1.36.094c.547 0 1.172-.281 2.141-1l-.188-.406-.406.25c-.515.343-.86.484-1.203.484-.469 0-.594-.203-.594-.735 0-.234.016-.453.063-.609l.656-.14c.172-.047.422-.126.672-.235.813-.328 1.344-.86 1.344-1.406zm-1.016.14c0 .391-.187.672-.687.891-.266.11-.625.219-.86.266l.047-.156c.156-.579.297-.876.563-1.094a.914.914 0 01.625-.235c.28 0 .312.047.312.329zm0 0"/></svg><svg overflow="visible" x="306.631" y="43.126"><path d="M2.516-.984l-.157-.25-.406.25c-.297.171-.375.218-.469.218-.078 0 .016.063.016-.046 0-.079.016-.157.063-.344l.75-2.688c.046-.156.062-.234.062-.328 0-.14-.234-.36-.39-.36-.22 0-.688.22-1.407.688l-.344.235.172.421.5-.28c.266-.173.266-.173.344-.173.11 0 0-.062 0 .047 0 .078-.031.266-.063.39l-.64 2.126c-.094.281-.125.5-.125.687 0 .204.266.47.437.47.266 0 .72-.235 1.735-.923zm.28-4.72c0-.202-.28-.484-.483-.484-.297 0-.735.422-.735.72 0 .218.313.5.547.5.313 0 .672-.391.672-.735zm0 0"/></svg></g><g><svg overflow="visible" x="309.533" y="43.126"><path d="M5-4l-.063-.11c-.343.079-.546.094-.984.094-.125-.187-.328-.312-.562-.39a1.952 1.952 0 00-.657-.125c-.39 0-.984.203-1.406.5-.547.375-.875.984-.875 1.61 0 .671.594 1.218 1.344 1.218.078 0 .187 0 .297-.016l-.125-.218-.39.328c-.157.14-.298.39-.298.515 0 .094.094.281.047.25C.906-.219.484-.047.125.234c-.328.25-.547.688-.547 1.047 0 .625.828 1.157 1.875 1.157 1.25 0 2.484-.766 2.484-1.5 0-.313-.234-.735-.656-1.047l-.578-.438c-.328-.234-.406-.297-.406-.469 0-.078.015-.078.156-.234.016-.047.031-.047.031-.063.86-.187 1.704-1.062 1.704-1.843 0-.078 0-.156-.047-.328l.109.14h.078c.156 0 .25-.015.594-.047l.125-.515zM3 1.234c0 .454-.516.688-1.313.688C.907 1.922.5 1.688.5 1.156.5.813.625.594.938.36c.25-.187.359-.234.812-.343l.672.468c.437.313.578.454.578.75zm.172-4.375c0 .907-.297 1.391-.969 1.391-.594 0-.75-.234-.75-.922 0-.844.344-1.297 1.047-1.297.563 0 .672.188.672.828zm0 0"/></svg></g><g><svg overflow="visible" x="314.673" y="43.126"><path d="M4.734-.984l-.156-.25-.406.25c-.281.156-.375.218-.469.218-.078 0 .016.063.016-.046 0-.079.015-.157.062-.344l.625-2.266c.047-.234.11-.5.11-.656 0-.188-.266-.453-.438-.453-.328 0-1.031.328-1.64.797-.329.265-.485.421-.938.937l-.203.219.266.11.953-4.095-.235-.203c-.531.25-.89.329-1.703.391l-.094.453h.641c.234 0 .172-.078.172.078 0 .063 0 .14-.016.203L.875-3.562C.609-2.234.235-.704.015-.126l.172.219.86-.188c.172-1.125.297-1.562.578-2.031.422-.719 1.313-1.531 1.719-1.531.125 0 .047-.063.047.062 0 .156-.047.485-.141.781l-.484 1.735c-.094.312-.125.516-.125.687 0 .204.265.47.453.47.234 0 .703-.22 1.719-.923zm0 0"/></svg><svg overflow="visible" x="319.671" y="43.126"><path d="M3.078-4.156c-.375.031-.703.047-.89.047.124-.688.234-1.125.421-1.625l-.234-.282c-.344.172-.484.25-.922.407L1.22-4.094a5.586 5.586 0 01-.86.297l-.046.344h.796L.594-1.078C.547-.86.469-.641.469-.406c0 .219.265.484.453.484.328 0 .765-.203 1.531-.765.172-.125.11-.094.375-.282l-.234-.39L2-.984c-.297.171-.36.218-.484.218-.063 0 .03.063.03-.046 0-.22.11-.907.423-2.22l.078-.421h1.047l.172-.719zm0 0"/></svg><svg overflow="visible" x="323.06" y="43.126"><path d="M3.406-4.297c-.36-.156-.64-.234-.953-.234-.5 0-1.203.297-1.672.734-.25.235-.406.547-.406.875 0 .485.469.906 1.11 1.016l.609.11c.422.077.406.093.406.437 0 .593-.281.843-.969.843-.343 0-.515-.062-.75-.25v-.812H.25C.172-.984.125-.688 0-.218c.547.25.86.312 1.203.312.484 0 1.031-.188 1.516-.547.484-.36.734-.781.734-1.219 0-.484-.453-.86-1.156-.984l-.422-.078c-.578-.094-.61-.11-.61-.47 0-.468.266-.702.829-.702.39 0 .64.125.75.297v.578h.515c.063-.438.094-.672.22-1.188zm0 0"/></svg></g><g><svg overflow="visible" x="367.173" y="19.63"><path d="M2.703-1.531L2.47-1.75c-.36.125-.563.203-1.328.406C1.047-.328.78.344.016 1.625l.312.25.61-.281C1.905.328 2.405-.516 2.75-1.47zm0 0"/></svg></g><g><svg overflow="visible" x="375.135" y="19.63"><path d="M8.484-4.719c0-.687-.437-1.312-.875-1.312-.156 0-.406.093-.5.187l-.671.625.265.453c.25-.171.266-.171.375-.171.328 0 .375.14.375.625 0 1.734-1.016 3.578-2.031 3.578-.36 0-.469-.344-.469-1 0-.563.11-1.344.25-1.86l.625-2.234-.187-.219-1.032.313-.375 1.89c-.14.735-.28 1.125-.625 1.766-.484.89-.828 1.344-1.187 1.344-.406 0-.563-.329-.563-1.016 0-1.422.454-2.5 1.704-3.906l-.235-.407c-.281.141-.437.188-.765.188-.5 0-.985-.047-1.47-.094-.155 0-.25.032-.5.125-.155.328-.327.844-.515 1.64h.5l.266-.64c.094-.203.203-.203.484-.203.219 0 .438.031.672.031.25 0 .406-.015.422-.015.062-.11-.063.015-.188.172C1.156-3.61.72-2.656.72-1.641c0 .985.562 1.766 1.187 1.766.766 0 1.485-.688 2.375-2.39l-.234-.094c-.11.515-.156.812-.156 1.093 0 .75.5 1.391 1.03 1.391.97 0 2.36-1.328 3.095-2.969.265-.594.468-1.406.468-1.875zm0 0"/></svg></g><g><svg overflow="visible" x="383.827" y="19.63"><path d="M2.969-1.25l-.172-.297-.453.297c-.36.234-.5.313-.625.313-.078 0-.016.03-.016-.11 0-.11 0-.203.078-.469l.922-3.64c.047-.203.063-.313.063-.422 0-.203-.22-.453-.422-.453-.266 0-.797.281-1.703.922l-.407.296.188.485.547-.36c.344-.218.375-.234.484-.234.11 0 .047-.031.047.11 0 .109-.047.359-.094.53L.625-1.405c-.11.375-.156.672-.156.922 0 .28.265.593.5.593.312 0 .844-.296 2.078-1.218zm.344-6.406c0-.282-.313-.61-.563-.61-.36 0-.844.516-.844.922 0 .297.328.625.625.625.375 0 .781-.484.781-.937zm0 0"/></svg></g><g><svg overflow="visible" x="387.341" y="19.63"><path d="M3.703-5.516c-.453.047-.86.063-1.156.063.172-.984.297-1.578.531-2.25l-.25-.328a7.16 7.16 0 01-1.094.531l-.296 2.031c-.391.203-.704.328-1.063.407l-.047.406h1l-.64 3.25C.625-1.11.53-.813.53-.5c0 .297.266.61.5.61.422 0 .922-.282 1.86-1.032.218-.172.14-.125.437-.36l-.25-.437-.672.469c-.36.25-.484.313-.625.313-.093 0-.031.046-.031-.11 0-.297.156-1.234.516-3l.14-.61h1.266l.203-.89zm0 0"/></svg></g><g><svg overflow="visible" x="391.382" y="19.63"><path d="M5.719-1.25l-.172-.297-.453.297c-.344.219-.5.313-.625.313-.078 0-.016.03-.016-.11 0-.11 0-.203.078-.469l.766-3.062c.062-.313.125-.688.125-.89 0-.25-.266-.563-.469-.563-.406 0-1.25.437-2 1.078-.422.344-.61.562-1.172 1.266l-.234.296.234.094L2.97-8.812l-.266-.235c-.75.375-1.078.438-2.062.531l-.094.5h.75c.281 0 .25-.046.25.157 0 .109 0 .203-.016.296l-.5 2.797C.703-2.969.234-.906-.03-.125l.156.25 1.016-.234c.203-1.485.375-2.11.718-2.75.532-.97 1.672-2.094 2.188-2.094.156 0 .11-.016.11.14 0 .204-.063.672-.173 1.063l-.609 2.344c-.11.422-.156.687-.156.922 0 .28.265.593.5.593.312 0 .828-.28 2.078-1.218zm0 0"/></svg></g><g><svg overflow="visible" x="400.349" y="19.63"><path d="M5.36-5.922a2.204 2.204 0 00-.563-.11c-.797 0-1.89.97-3.39 3.063l.25.094 1.28-5.938-.265-.234c-.75.375-1.063.438-2.047.531l-.094.5h.735c.28 0 .265-.046.265.157 0 .109-.015.203-.031.296L.937-4.358c-.156.89-.359 1.718-1 4.25l.204.234.968-.25.297-1.578c.11-.578.36-1.016.61-1.281C2.766-.844 3.28.109 3.578.109c.156 0 .547-.187 1.078-.562l.61-.438-.204-.453-.671.375c-.172.094-.141.078-.25.078-.11 0-.094-.03-.204-.234-.421-.766-.656-1.313-1.109-2.734l.125-.125c.735-.72 1.188-.985 1.781-.985.094 0 .22.016.516.094l.266-1zm0 0"/></svg></g><g><svg overflow="visible" x="409.375" y="19.63"><path d="M8.266-4.078a1.419 1.419 0 01-.047-.36c0-.109.015-.234.062-.484h-7.5c.063.25.063.375.063.484 0 .125 0 .235-.063.5h7.5zm0 2.625a1.332 1.332 0 01-.047-.36c0-.109.015-.234.062-.484h-7.5c.063.25.063.375.063.485 0 .125 0 .25-.063.5h7.5zm0 0"/></svg></g><g><svg overflow="visible" x="421.784" y="19.63"><path d="M6.234-1.25l-.171-.297-.454.297c-.343.219-.5.313-.625.313-.078 0-.03.03-.03-.11 0-.047.015-.187.03-.234l.782-3.297c.093-.344.14-.688.14-.89 0-.266-.265-.563-.5-.563-.5 0-1.437.5-2.14 1.156-.454.422-.797.828-1.407 1.703l.235.094.453-1.938c.047-.203.078-.343.078-.484 0-.25-.234-.531-.406-.531-.266 0-.828.312-1.703.922l-.391.296.172.485.547-.36c.437-.28.39-.265.469-.265.14 0 .078 0 .078.172 0 .61-.5 2.922-.985 4.656l.172.25c.36-.094.625-.172 1.016-.234.234-1.625.468-2.313 1-3.125.656-1.016 1.453-1.72 1.984-1.72.125 0 .063-.015.063.157 0 .219-.032.469-.141.86l-.61 2.53c-.109.438-.156.72-.156.907 0 .297.266.61.5.61.313 0 .829-.282 2.079-1.22zm0 0"/></svg></g><g><svg overflow="visible" x="431.085" y="19.63"><path d="M8.266-2.766a1.332 1.332 0 01-.047-.359c0-.11.015-.234.062-.484h-3.25v-3.266c-.25.063-.375.078-.484.078-.125 0-.25-.016-.5-.078v3.266H.78c.063.25.063.375.063.484 0 .125 0 .25-.063.5h3.266V.641c.25-.063.375-.079.5-.079.11 0 .234.016.484.079v-3.266h3.25zm0 0"/></svg></g><g><svg overflow="visible" x="442.826" y="19.63"><path d="M5.125-.094v-.484l-.75-.047c-.656-.031-.64-.031-.64-.656v-7.172l-.313-.125c-.875.469-1.61.781-2.86 1.219l.125.718h.235l1.547-.687.031-.016c.063 0-.047-.015-.047.266v5.797c0 .625.016.625-.64.656L1-.578v.625L3.125 0l2 .047zm0 0"/></svg></g><g><svg overflow="visible" x="451.792" y="19.63"><path d="M4.984-1.14l-.156-.485c-.25.203-.266.219-.328.266-.375.312-.453.39-.625.39-.125 0-.047.031-.047-.156 0-.047 0-.078.016-.125l1.11-4.578-.25-.203-.438.218c-.438-.156-.672-.218-.985-.218-.344 0-.578.062-.906.218-.75.375-1.234.766-1.531 1.36l-.047.094C.28-3.297-.093-1.875-.093-.922c0 .516.327 1.047.546 1.047.25 0 .797-.281 1.234-.656.516-.453.985-1.016 1.641-1.938l-.234-.094-.344 1.516a2.715 2.715 0 00-.078.61c0 .265.25.562.437.562.266 0 .86-.36 1.891-1.219zM3.672-5.079c-.266 1.281-.453 1.797-.844 2.406C2.156-1.656 1.516-.969 1.125-.969c-.14 0-.078-.015-.078-.344 0-.765.297-2.093.719-3.093.296-.688.453-.766 1.03-.766.282 0 .5.047.86.172zm0 0"/></svg><svg overflow="visible" x="457.1" y="19.63"><path d="M6.234-1.25l-.171-.297-.454.297c-.343.219-.5.313-.625.313-.078 0-.03.03-.03-.11 0-.047.015-.187.03-.234l.782-3.297c.093-.344.14-.688.14-.89 0-.266-.265-.563-.5-.563-.5 0-1.437.5-2.14 1.156-.454.422-.797.828-1.407 1.703l.235.094.453-1.938c.047-.203.078-.343.078-.484 0-.25-.234-.531-.406-.531-.266 0-.828.312-1.703.922l-.391.296.172.485.547-.36c.437-.28.39-.265.469-.265.14 0 .078 0 .078.172 0 .61-.5 2.922-.985 4.656l.172.25c.36-.094.625-.172 1.016-.234.234-1.625.468-2.313 1-3.125.656-1.016 1.453-1.72 1.984-1.72.125 0 .063-.015.063.157 0 .219-.032.469-.141.86l-.61 2.53c-.109.438-.156.72-.156.907 0 .297.266.61.5.61.313 0 .829-.282 2.079-1.22zm0 0"/></svg><svg overflow="visible" x="463.747" y="19.63"><path d="M5.875-8.86l-.219-.187c-.75.375-1.078.438-2.062.531l-.094.5h.75c.281 0 .25-.046.25.157 0 .109 0 .203-.016.296L4.188-5.89a3.109 3.109 0 00-.875-.14c-.829 0-2.063.906-2.61 1.937-.375.703-.64 1.938-.64 2.938C.063-.375.374.125.734.125c.313 0 .86-.234 1.266-.563.64-.515 1.031-.984 1.844-2.187l-.25-.094-.266 1.078c-.14.532-.203.907-.203 1.22 0 .25.25.546.453.546.219 0 .594-.203 1-.5l1.047-.766-.266-.468-.656.468c-.172.125-.25.172-.36.172-.093 0-.046.031-.046-.14 0-.094.031-.204.11-.547l1.515-7.157zM4.031-5.03l-.14.703A5.233 5.233 0 012.375-1.61c-.422.39-.781.64-1.016.64-.187 0-.171-.031-.171-.328 0-1.516.515-3.281 1.109-3.734.156-.125.281-.14.61-.14.53 0 .765.03 1.109.218zm0 0"/></svg></g><g><svg overflow="visible" x="472.845" y="19.63"><path d="M8.484-4.719c0-.687-.437-1.312-.875-1.312-.156 0-.406.093-.5.187l-.671.625.265.453c.25-.171.266-.171.375-.171.328 0 .375.14.375.625 0 1.734-1.016 3.578-2.031 3.578-.36 0-.469-.344-.469-1 0-.563.11-1.344.25-1.86l.625-2.234-.187-.219-1.032.313-.375 1.89c-.14.735-.28 1.125-.625 1.766-.484.89-.828 1.344-1.187 1.344-.406 0-.563-.329-.563-1.016 0-1.422.454-2.5 1.704-3.906l-.235-.407c-.281.141-.437.188-.765.188-.5 0-.985-.047-1.47-.094-.155 0-.25.032-.5.125-.155.328-.327.844-.515 1.64h.5l.266-.64c.094-.203.203-.203.484-.203.219 0 .438.031.672.031.25 0 .406-.015.422-.015.062-.11-.063.015-.188.172C1.156-3.61.72-2.656.72-1.641c0 .985.562 1.766 1.187 1.766.766 0 1.485-.688 2.375-2.39l-.234-.094c-.11.515-.156.812-.156 1.093 0 .75.5 1.391 1.03 1.391.97 0 2.36-1.328 3.095-2.969.265-.594.468-1.406.468-1.875zm0 0"/></svg></g><g><svg overflow="visible" x="481.486" y="22.404"><path d="M2.516-.984l-.157-.25-.406.25c-.297.171-.375.218-.469.218-.078 0 .016.063.016-.046 0-.079.016-.157.063-.344l.75-2.688c.046-.156.062-.234.062-.328 0-.14-.234-.36-.39-.36-.22 0-.688.22-1.407.688l-.344.235.172.421.5-.28c.266-.173.266-.173.344-.173.11 0 0-.062 0 .047 0 .078-.031.266-.063.39l-.64 2.126c-.094.281-.125.5-.125.687 0 .204.266.47.437.47.266 0 .72-.235 1.735-.923zm.28-4.72c0-.202-.28-.484-.483-.484-.297 0-.735.422-.735.72 0 .218.313.5.547.5.313 0 .672-.391.672-.735zm0 0"/></svg></g><g><svg overflow="visible" x="484.379" y="22.404"><path d="M6.156-2.078c-.015-.094-.015-.172-.015-.266 0-.094 0-.172.046-.39H.516c.046.218.062.296.062.39 0 .094-.015.172-.062.39h5.671zm0 0"/></svg><svg overflow="visible" x="491.102" y="22.404"><path d="M4.266-.11V-.5l-.657-.031c-.515-.031-.468.015-.468-.453v-5.329l-.282-.093c-.625.297-1.312.562-2.375.906l.11.594h.234l1.25-.516.031-.016c.047 0-.078-.046-.078.172v4.282c0 .468.047.421-.469.453L.86-.5v.531L2.594 0l1.672.031zm0 0"/></svg></g><g><svg overflow="visible" x="499.929" y="19.63"><path d="M8.266-4.078a1.419 1.419 0 01-.047-.36c0-.109.015-.234.062-.484h-7.5c.063.25.063.375.063.484 0 .125 0 .235-.063.5h7.5zm0 2.625a1.332 1.332 0 01-.047-.36c0-.109.015-.234.062-.484h-7.5c.063.25.063.375.063.485 0 .125 0 .25-.063.5h7.5zm0 0"/></svg></g><g><svg overflow="visible" x="512.327" y="19.63"><path d="M5.688-4.5c0-2.625-.907-4-2.547-4C1.297-8.5.203-6.89.203-4c0 1.39.281 2.703.703 3.281.422.594 1.203.953 1.938.953 1.812 0 2.844-1.687 2.844-4.734zm-1.282.594C4.406-1.36 4.094-.437 3-.437c-1.156 0-1.516-1.079-1.516-4 0-2.516.313-3.375 1.438-3.375 1.172 0 1.484 1.03 1.484 3.906zm0 0"/></svg></g><g><svg overflow="visible" x="521.293" y="19.63"><path d="M8.484-4.719c0-.687-.437-1.312-.875-1.312-.156 0-.406.093-.5.187l-.671.625.265.453c.25-.171.266-.171.375-.171.328 0 .375.14.375.625 0 1.734-1.016 3.578-2.031 3.578-.36 0-.469-.344-.469-1 0-.563.11-1.344.25-1.86l.625-2.234-.187-.219-1.032.313-.375 1.89c-.14.735-.28 1.125-.625 1.766-.484.89-.828 1.344-1.187 1.344-.406 0-.563-.329-.563-1.016 0-1.422.454-2.5 1.704-3.906l-.235-.407c-.281.141-.437.188-.765.188-.5 0-.985-.047-1.47-.094-.155 0-.25.032-.5.125-.155.328-.327.844-.515 1.64h.5l.266-.64c.094-.203.203-.203.484-.203.219 0 .438.031.672.031.25 0 .406-.015.422-.015.062-.11-.063.015-.188.172C1.156-3.61.72-2.656.72-1.641c0 .985.562 1.766 1.187 1.766.766 0 1.485-.688 2.375-2.39l-.234-.094c-.11.515-.156.812-.156 1.093 0 .75.5 1.391 1.03 1.391.97 0 2.36-1.328 3.095-2.969.265-.594.468-1.406.468-1.875zm0 0"/></svg></g><g><svg overflow="visible" x="529.984" y="19.63"><path d="M5.719-1.25l-.172-.297-.453.297c-.344.219-.5.313-.625.313-.078 0-.016.03-.016-.11 0-.11 0-.203.078-.469l.766-3.062c.062-.313.125-.688.125-.89 0-.25-.266-.563-.469-.563-.406 0-1.25.437-2 1.078-.422.344-.61.562-1.172 1.266l-.234.296.234.094L2.97-8.812l-.266-.235c-.75.375-1.078.438-2.062.531l-.094.5h.75c.281 0 .25-.046.25.157 0 .109 0 .203-.016.296l-.5 2.797C.703-2.969.234-.906-.03-.125l.156.25 1.016-.234c.203-1.485.375-2.11.718-2.75.532-.97 1.672-2.094 2.188-2.094.156 0 .11-.016.11.14 0 .204-.063.672-.173 1.063l-.609 2.344c-.11.422-.156.687-.156.922 0 .28.265.593.5.593.312 0 .828-.28 2.078-1.218zm0 0"/></svg><svg overflow="visible" x="535.962" y="19.63"><path d="M4.61-4.953c0-.563-.532-1.078-1.141-1.078-.781 0-2.188.843-2.672 1.61C.437-3.845.03-2.313.03-1.47.031-.547.703.125 1.563.125 2.25.125 3-.235 4.171-1.188l-.203-.468-.438.312c-.64.453-1.11.657-1.531.657-.578 0-.781-.313-.781-1.047 0-.313.031-.61.078-.844l.86-.219c.202-.047.515-.172.827-.297C4-3.547 4.61-4.219 4.61-4.954zm-1.173.187c0 .516-.265.954-.89 1.25a5.596 5.596 0 01-1.125.375l.062-.265c.188-.797.391-1.219.72-1.516.218-.219.515-.344.812-.344.343 0 .421.11.421.5zm0 0"/></svg></g><g><svg overflow="visible" x="540.768" y="19.63"><path d="M6.234-1.25l-.171-.297-.454.297c-.343.219-.5.313-.625.313-.078 0-.03.03-.03-.11 0-.047.015-.187.03-.234l.782-3.297c.093-.344.14-.688.14-.89 0-.266-.265-.563-.5-.563-.5 0-1.437.5-2.14 1.156-.454.422-.797.828-1.407 1.703l.235.094.453-1.938c.047-.203.078-.343.078-.484 0-.25-.234-.531-.406-.531-.266 0-.828.312-1.703.922l-.391.296.172.485.547-.36c.437-.28.39-.265.469-.265.14 0 .078 0 .078.172 0 .61-.5 2.922-.985 4.656l.172.25c.36-.094.625-.172 1.016-.234.234-1.625.468-2.313 1-3.125.656-1.016 1.453-1.72 1.984-1.72.125 0 .063-.015.063.157 0 .219-.032.469-.141.86l-.61 2.53c-.109.438-.156.72-.156.907 0 .297.266.61.5.61.313 0 .829-.282 2.079-1.22zm0 0"/></svg></g><g><svg overflow="visible" x="550.404" y="19.63"><path d="M2.969-1.25l-.172-.297-.453.297c-.36.234-.5.313-.625.313-.078 0-.016.03-.016-.11 0-.11 0-.203.078-.469l.922-3.64c.047-.203.063-.313.063-.422 0-.203-.22-.453-.422-.453-.266 0-.797.281-1.703.922l-.407.296.188.485.547-.36c.344-.218.375-.234.484-.234.11 0 .047-.031.047.11 0 .109-.047.359-.094.53L.625-1.405c-.11.375-.156.672-.156.922 0 .28.265.593.5.593.312 0 .844-.296 2.078-1.218zm.344-6.406c0-.282-.313-.61-.563-.61-.36 0-.844.516-.844.922 0 .297.328.625.625.625.375 0 .781-.484.781-.937zm0 0"/></svg></g><g><svg overflow="visible" x="557.242" y="19.63"><path d="M8.266-4.078a1.419 1.419 0 01-.047-.36c0-.109.015-.234.062-.484h-7.5c.063.25.063.375.063.484 0 .125 0 .235-.063.5h7.5zm0 2.625a1.332 1.332 0 01-.047-.36c0-.109.015-.234.062-.484h-7.5c.063.25.063.375.063.485 0 .125 0 .25-.063.5h7.5zm0 0"/></svg></g><g><svg overflow="visible" x="569.652" y="19.63"><path d="M5.688-4.5c0-2.625-.907-4-2.547-4C1.297-8.5.203-6.89.203-4c0 1.39.281 2.703.703 3.281.422.594 1.203.953 1.938.953 1.812 0 2.844-1.687 2.844-4.734zm-1.282.594C4.406-1.36 4.094-.437 3-.437c-1.156 0-1.516-1.079-1.516-4 0-2.516.313-3.375 1.438-3.375 1.172 0 1.484 1.03 1.484 3.906zm0 0"/></svg></g></svg>