<svg xmlns="http://www.w3.org/2000/svg" xmlns:xlink="http://www.w3.org/1999/xlink" width="413px" height="41px" viewBox="0 0 310 31"><svg overflow="visible" x="-.685" y="17.59"><path d="M8.094-2.766c0-.921-.89-1.64-1.813-1.765v.265c1.266-.25 2.5-1.359 2.5-2.421 0-.829-.828-1.735-2.14-1.735H3.094c-.219 0-.516.125-.516.36 0 .109.281.25.5.25.297 0 .453-.141.453.062 0 .063 0 .094-.031.172L1.86-.984c-.11.406.015.375-.72.375-.202 0-.5.125-.5.359 0 .125.282.25.47.25h3.796c1.625 0 3.188-1.5 3.188-2.766zm-.64-3.968c0 1.03-.766 2.109-2.126 2.109H3.984L4.688-7.5c.109-.453.015-.313.406-.313h1.39c.954 0 .97.563.97 1.079zm-.72 3.828c0 1.25-.828 2.297-2.093 2.297H3.17c-.343 0-.187.125-.187-.016 0-.047 0-.063.047-.234l.813-3.266h1.89c.938 0 1 .61 1 1.219zm0 0"/></svg><svg overflow="visible" x="7.54" y="17.59"><path d="M5.64-1.39c0-.079-.28-.313-.343-.313a.51.51 0 00-.281.156c-.625.86-1.391 1.172-2 1.172-.797 0-.72-.813-.72-1.203 0-.531.079-.86.173-1.188h.281c.422 0 2.844-.14 2.844-1.64 0-.547-.625-1.125-1.328-1.125-1.235 0-3.094 1.343-3.094 3.453C1.172-.875 1.984.125 3 .125c1.484 0 2.64-1.344 2.64-1.516zm-.827-3.032c0 1.281-1.782 1.14-2.172 1.14h-.032c.438-1.765 1.438-1.75 1.641-1.75.484 0 .563.204.563.61zm1.421-3.703c0-.188-.328-.453-.515-.453-.157 0-.203.39-.203.39l-.25-.187-1.72 1.75c-.108.094-.171.219-.171.25 0 .094.313.313.36.313.062 0 .25-.063.28-.11l1.907-1.5c.094-.062.312-.281.312-.453zm0 0"/></svg><svg overflow="visible" x="12.92" y="17.59"><path d="M5.234-1.813c0-.093-.25-.25-.343-.25-.141 0-.344.172-.375.282-.282.812-.782.922-1.11.922-.203 0-.375-.079-.703-.235l.125.047c-.39-.203-.656-.234-.797-.234-.031 0-.172 0 .172-.11.156-.187.672-.718 1.203-1.203 1.14-1.015 2.219-2.5 2.219-2.719 0-.093-.266-.218-.328-.218a.364.364 0 00-.344.203c-.328.562-.375.687-.61.687-.202 0-.202-.046-.405-.343-.204-.282-.485-.547-.86-.547-.86 0-1.547 1.234-1.547 1.468 0 .11.297.235.344.235.14 0 .328-.156.375-.266.125-.36.36-.453.703-.453.235 0 .438.094.313.047.625.328.875.36.78.36a5.6 5.6 0 01-.405.452L1.953-2C1.141-1.187.531-.203.531-.11c0 .094.313.235.36.235.125 0 .25-.047.328-.203.187-.281.39-.703.797-.703.109 0 .14-.031.406.344.203.312.5.562.86.562 1.124 0 1.952-1.656 1.952-1.938zm0 0"/></svg><svg overflow="visible" x="17.702" y="17.59"><path d="M4.047-1.844c0-.11-.297-.234-.344-.234-.14 0-.344.172-.39.344-.11.406-.235 1.359-.907 1.359-.14 0-.094.063-.094-.219 0-.312.157-.75.376-1.328l.703-1.937c.109-.297.14-.391.14-.61 0-.61-.578-1.062-1.047-1.062-1.093 0-1.687 1.89-1.687 1.953 0 .11.297.25.36.25.14 0 .343-.172.39-.344.094-.375.219-1.36.922-1.36.25 0 .062.095.062.22 0 .312-.062.515-.156.734l-.953 2.594c-.094.265-.094.421-.094.53 0 .688.656 1.079 1.047 1.079 1.11 0 1.672-1.922 1.672-1.969zm.312-5.578c0-.328-.421-.61-.656-.61-.36 0-.89.47-.89.813 0 .328.437.61.671.61.36 0 .875-.454.875-.813zm0 0"/></svg><svg overflow="visible" x="21.289" y="17.59"><path d="M5.64-1.39c0-.079-.28-.313-.343-.313a.51.51 0 00-.281.156c-.625.86-1.391 1.172-2 1.172-.797 0-.72-.813-.72-1.203 0-.531.079-.86.173-1.188h.281c.422 0 2.844-.14 2.844-1.64 0-.547-.625-1.125-1.328-1.125-1.235 0-3.094 1.343-3.094 3.453C1.172-.875 1.984.125 3 .125c1.484 0 2.64-1.344 2.64-1.516zm-.827-3.032c0 1.281-1.782 1.14-2.172 1.14h-.032c.438-1.765 1.438-1.75 1.641-1.75.484 0 .563.204.563.61zm0 0"/></svg><svg overflow="visible" x="26.668" y="17.59"><path d="M5.922-4.703c0-.61-.984-.828-1.313-.828-.562 0-1.14.297-1.578.922l.297.093c-.094-.703-.797-1.015-1.11-1.015-.28 0-.78.25-1.14 1-.062.11.031 1.047.031 1.047l-.312-.094c0 .094.25.25.36.25.14 0 .327-.156.39-.422.187-.703.234-1.281.64-1.281.313 0 .126.218.126.36 0 .218-.047.484-.094.655L1.344-.53c-.047.172-.047.187-.047.234 0 .14.281.422.5.422.266 0 .562-.36.625-.563l.765-3.109c.047-.14.391-1.484 1.407-1.484.062 0 .265-.032.297-.016.171-.031-.235.281-.235.578 0 .25.375.469.563.469.203 0 .703-.281.703-.703zm0 0"/></svg><svg overflow="visible" x="31.606" y="17.59"><path d="M4.156 2.719c0-.047-.078-.172-.11-.203-1.234-.922-2-3.22-2-5.141v-1c0-1.906.767-4.203 2-5.14a.457.457 0 00.11-.188c0-.063-.25-.25-.312-.25a1.01 1.01 0 00-.203.062C2.312-8.156 1-5.67 1-3.625v1C1-.578 2.313 1.906 3.64 2.906c.016.016.188.063.204.063.062 0 .312-.203.312-.25zm0 0"/></svg><svg overflow="visible" x="36.257" y="17.59"><path d="M7.016-1.844c0-.11-.297-.25-.329-.25-.125 0-.328.172-.39.344-.234.813-.422 1.36-1.016 1.36-.203 0-.093.015-.093-.266 0-.297.109-.594.218-.844.219-.64.719-1.953.719-2.64 0-.798-.703-1.407-1.563-1.407-1.078 0-1.796.797-2 1.078l.329.094c-.063-.672-.735-1.172-1.282-1.172-.562 0-.921.5-1.14.89C.313-4.327.14-3.624.14-3.577c0 .125.484.219.484.219l-.14.03c.124 0 .328-.14.406-.405.203-.844.25-1.282.671-1.282.25 0 .172.016.172.407 0 .265-.03.39-.187 1.015L.844-.844c-.031.188-.11.469-.11.516 0 .219.375.453.563.453.14 0 .547-.219.656-.547-.078.156.125-.5.203-.797l.266-1.078c.062-.265.14-.531.203-.797l.14-.594c.188-.374.626-1.328 1.766-1.328.532 0 .438.313.438.704 0 .734-.578 2.265-.766 2.78-.11.282-.125.423-.125.548 0 .562.625 1.109 1.188 1.109 1.125 0 1.75-1.875 1.75-1.969zm0 0"/></svg><svg overflow="visible" x="43.43" y="17.59"><path d="M2.625-.14c0-.797-.5-1.391-.969-1.391-.39 0-.828.437-.828.765 0 .329.438.766.828.766.157 0 .438-.078.563-.188l.047-.046s-.313-.078-.313.093c0 .875-.344 1.5-.75 1.891-.125.14-.187.266-.187.297 0 .078.265.265.328.265.125 0 1.281-1.062 1.281-2.453zm0 0"/></svg><svg overflow="visible" x="48.738" y="17.59"><path d="M4.14-5.156c0-.125-.312-.266-.53-.266H2.78c.39-1.562.453-1.797.453-1.875 0-.203-.328-.453-.53-.453-.032 0-.579.14-.688.563l-.422 1.765H.64c-.25 0-.563.14-.563.36 0 .156.297.28.531.28h.813C.594-1.515.547-1.311.547-1.093c0 .64.656 1.219 1.312 1.219 1.22 0 2.079-1.875 2.079-1.969 0-.11-.282-.25-.329-.25-.109 0-.328.172-.375.297C2.72-.547 2.281-.39 1.875-.39c-.25 0-.172-.03-.172-.421 0-.282.016-.375.063-.579l.859-3.39h.953c.25 0 .563-.125.563-.375zm0 0"/></svg><svg overflow="visible" x="53.054" y="17.59"><path d="M3.64-2.625v-1c0-2.047-1.328-4.531-2.64-5.516a.774.774 0 00-.203-.062c-.063 0-.313.187-.313.25 0 .031.079.172.094.187 1.25.938 2.016 3.235 2.016 5.141v1c0 1.922-.766 4.219-2.016 5.14-.015.032-.094.157-.094.204 0 .047.25.25.313.25A.774.774 0 001 2.906c1.313-1 2.64-3.484 2.64-5.531zm0 0"/></svg><svg overflow="visible" x="61.028" y="17.59"><path d="M8.828-4.281c0-.125-.312-.375-.437-.375H.906c-.125 0-.437.25-.437.375 0 .14.312.375.437.375h7.485c.125 0 .437-.235.437-.375zm0 2.328c0-.14-.312-.375-.437-.375H.906c-.125 0-.437.234-.437.375 0 .125.312.36.437.36h7.485c.125 0 .437-.235.437-.36zm0 0"/></svg><svg overflow="visible" x="79.333" y="3.758"><path d="M5.719-1.36c0-.109-.313-.265-.344-.265-.11 0-.328.203-.36.297-.202.672-.343.86-.687.86-.172 0 0 .046 0-.141 0-.188.047-.297.188-.672.109-.266.453-1.14.453-1.61 0-.812-.86-1.125-1.297-1.125-.703 0-1.313.485-1.563.813l.36.11c-.063-.579-.766-.923-1.11-.923-.359 0-.703.313-.812.5-.188.313-.36.907-.36.938 0 .11.329.281.344.281.125 0 .344-.187.39-.422.141-.484.079-.734.407-.734.219 0 .078.015.078.25 0 .156-.078.469-.14.687l-.188.75L.812-.687c-.03.109-.078.312-.078.343 0 .188.36.422.485.422.156 0 .437-.14.468-.219.047-.078.188-.468.22-.64l.187-.75.14-.563c.094-.344.047-.297.282-.64.234-.329.484-.72 1.125-.72.484 0 .28.267.28.423 0 .5-.358 1.437-.5 1.781-.093.234-.124.313-.124.453 0 .438.578.875 1.015.875.829 0 1.407-1.312 1.407-1.437zm0 0"/></svg><svg overflow="visible" x="73.655" y="17.589"><path d="M16.578 1.297h-.453c-.516 1.375-1.578 2.047-2.953 2.406-.25.063-1.422.375-3.719.375H2.578l5.89-6.906c.079-.094.157-.235.157-.297l-.047.094s0-.25-.094-.36l-5.406-7.39h6.25c1.61 0 2.703.172 2.797.187.656.094 1.547.266 2.5.86.297.203 1.047.64 1.516 1.734h.687l-1.562-3.625H1c-.266 0-.422.047-.547.297.016-.047.016.187.016.328L6.78-2.36.656 4.813c-.125.141.156.407.156.407l-.328-.11c0 .141.297.266.516.266h14.281l1.531-4.078zm0 0"/></svg><svg overflow="visible" x="74.96" y="30.522"><path d="M2.922-5.39c0-.141-.313-.485-.547-.485-.219 0-.672.375-.672.625 0 .14.313.469.547.469.234 0 .672-.39.672-.61zm.219 4.03c0-.109-.313-.265-.344-.265-.11 0-.328.203-.375.297-.188.672-.344.86-.672.86-.172 0 0 .046 0-.141 0-.188.063-.344.14-.532l.266-.671.406-1.063a.794.794 0 00.047-.266c0-.39-.546-.875-1-.875-.828 0-1.421 1.297-1.421 1.438 0 .11.328.281.343.281.125 0 .344-.203.36-.297.218-.719.375-.86.687-.86.14 0 0-.093 0 .126 0 .203-.047.328-.25.844L.797-1.141c-.031.11-.078.22-.078.36 0 .39.547.86 1 .86.843 0 1.422-1.313 1.422-1.438zm0 0"/></svg><svg overflow="visible" x="78.341" y="30.522"><path d="M6.25-3.063c0-.093-.281-.328-.375-.328H.641c-.094 0-.375.235-.375.329 0 .093.28.328.375.328h5.234c.094 0 .375-.235.375-.329zm0 1.626c0-.094-.281-.329-.375-.329H.641c-.094 0-.375.235-.375.329 0 .093.28.328.375.328h5.234c.094 0 .375-.235.375-.329zm0 0"/></svg><svg overflow="visible" x="84.852" y="30.522"><path d="M4.531-2.828c0-.922-.172-1.688-.562-2.281-.266-.391-.922-.766-1.594-.766C.437-5.875.219-3.437.219-2.828c0 .594.218 3 2.156 3 1.953 0 2.156-2.406 2.156-3zm-1.187-.11c0 .626 0 1.235-.11 1.766-.156.766-.515.781-.859.781-.375 0-.688-.062-.844-.75-.125-.5-.125-1.171-.125-1.796 0-.61 0-1.25.125-1.704.172-.671.5-.687.844-.687.453 0 .688.125.828.61.14.452.14 1.046.14 1.78zm0 0"/></svg><svg overflow="visible" x="92.911" y="17.59"><path d="M8.453-4.578c0-.656-.515-.969-.719-.969-.296 0-.796.438-.796.703 0 .157.125.328.234.422.125.125.375.344.375.922 0 .406-.297 1.484-.61 2.094l-.046.093c-.313.625-.532.922-1.125.922-.547 0-.688-.234-.688-.906 0-.344.078-.719.14-.875l.5-2.015c.048-.266.173-.704.173-.766 0-.219-.36-.469-.532-.469-.14 0-.562.234-.656.469-.031.094-.594 2.375-.672 2.687-.093.36-.11.563-.11.782 0 .14 0 .156.017.218-.282.625-.438.875-.907.875-.953 0-.765-.75-.765-.953 0-.39.062-.86.625-2.328.14-.36.203-.531.203-.765 0-.532-.578-1.11-1.172-1.11C.782-5.547.14-3.687.14-3.578c0 .125.484.219.484.219l-.14.03c.124 0 .328-.155.39-.343.313-1.11.594-1.344 1.016-1.344.109 0 .093-.125.093.266 0 .297-.125.625-.218.828-.516 1.406-.672 1.969-.672 2.422C1.094-.422 2.109.125 3 .125c.203 0 .89-.031 1.203-.563.14.36 1.172.563 1.531.563.907 0 1.61-.875 1.922-1.594.407-.937.797-2.531.797-3.11zm0 0"/></svg><svg overflow="visible" x="101.471" y="20.543"><path d="M2.922-5.39c0-.141-.313-.485-.547-.485-.219 0-.672.375-.672.625 0 .14.313.469.547.469.234 0 .672-.39.672-.61zm.219 4.03c0-.109-.313-.265-.344-.265-.11 0-.328.203-.375.297-.188.672-.344.86-.672.86-.172 0 0 .046 0-.141 0-.188.063-.344.14-.532l.266-.671.406-1.063a.794.794 0 00.047-.266c0-.39-.546-.875-1-.875-.828 0-1.421 1.297-1.421 1.438 0 .11.328.281.343.281.125 0 .344-.203.36-.297.218-.719.375-.86.687-.86.14 0 0-.093 0 .126 0 .203-.047.328-.25.844L.797-1.141c-.031.11-.078.22-.078.36 0 .39.547.86 1 .86.843 0 1.422-1.313 1.422-1.438zm0 0"/></svg><svg overflow="visible" x="105.35" y="17.59"><path d="M9.234-6.64c0-.891-.984-1.782-2.421-1.782H2.796c-.235 0-.547.125-.547.36 0 .14.313.265.531.265l.14-.031s.11.031.313.062c.22.016.125-.093.125.063 0 .047-.015.078-.046.219l-1.61 6.421c-.11.47.063.422-.875.422-.203 0-.531.141-.531.375 0 .141.312.266.531.266h4.266c1.89 0 3.484-1.547 3.484-2.719 0-.86-.875-1.687-2.047-1.812v.265c1.25-.234 2.703-1.25 2.703-2.375zM7.75-6.689c0 1.047-.828 2.047-2.281 2.047H3.937l.72-2.828c.093-.422-.063-.328.452-.328h1.532c1.062 0 1.109.578 1.109 1.11zm-.672 3.844c0 1.188-.86 2.203-2.266 2.203h-1.89c-.125-.015.031.11.031 0 0-.03 0-.046.063-.265l.78-3.203h2.11c1.14 0 1.172.75 1.172 1.265zm0 0"/></svg><svg overflow="visible" x="114.723" y="13.25"><path d="M5.719-1.36c0-.109-.313-.265-.344-.265-.11 0-.328.203-.36.297-.202.672-.343.86-.687.86-.172 0 0 .046 0-.141 0-.188.047-.297.188-.672.109-.266.453-1.14.453-1.61 0-.812-.86-1.125-1.297-1.125-.703 0-1.313.485-1.563.813l.36.11c-.063-.579-.766-.923-1.11-.923-.359 0-.703.313-.812.5-.188.313-.36.907-.36.938 0 .11.329.281.344.281.125 0 .344-.187.39-.422.141-.484.079-.734.407-.734.219 0 .078.015.078.25 0 .156-.078.469-.14.687l-.188.75L.812-.687c-.03.109-.078.312-.078.343 0 .188.36.422.485.422.156 0 .437-.14.468-.219.047-.078.188-.468.22-.64l.187-.75.14-.563c.094-.344.047-.297.282-.64.234-.329.484-.72 1.125-.72.484 0 .28.267.28.423 0 .5-.358 1.437-.5 1.781-.093.234-.124.313-.124.453 0 .438.578.875 1.015.875.829 0 1.407-1.312 1.407-1.437zm0 0"/></svg><svg overflow="visible" x="114.424" y="20.794"><path d="M2.922-5.39c0-.141-.313-.485-.547-.485-.219 0-.672.375-.672.625 0 .14.313.469.547.469.234 0 .672-.39.672-.61zm.219 4.03c0-.109-.313-.265-.344-.265-.11 0-.328.203-.375.297-.188.672-.344.86-.672.86-.172 0 0 .046 0-.141 0-.188.063-.344.14-.532l.266-.671.406-1.063a.794.794 0 00.047-.266c0-.39-.546-.875-1-.875-.828 0-1.421 1.297-1.421 1.438 0 .11.328.281.343.281.125 0 .344-.203.36-.297.218-.719.375-.86.687-.86.14 0 0-.093 0 .126 0 .203-.047.328-.25.844L.797-1.141c-.031.11-.078.22-.078.36 0 .39.547.86 1 .86.843 0 1.422-1.313 1.422-1.438zm0 0"/></svg><svg overflow="visible" x="121.13" y="17.59"><path d="M4.156 2.719c0-.047-.078-.172-.11-.203-1.234-.922-2-3.22-2-5.141v-1c0-1.906.767-4.203 2-5.14a.457.457 0 00.11-.188c0-.063-.25-.25-.312-.25a1.01 1.01 0 00-.203.062C2.312-8.156 1-5.67 1-3.625v1C1-.578 2.313 1.906 3.64 2.906c.016.016.188.063.204.063.062 0 .312-.203.312-.25zm0 0"/></svg><svg overflow="visible" x="125.781" y="17.59"><path d="M4.14-5.156c0-.125-.312-.266-.53-.266H2.78c.39-1.562.453-1.797.453-1.875 0-.203-.328-.453-.53-.453-.032 0-.579.14-.688.563l-.422 1.765H.64c-.25 0-.563.14-.563.36 0 .156.297.28.531.28h.813C.594-1.515.547-1.311.547-1.093c0 .64.656 1.219 1.312 1.219 1.22 0 2.079-1.875 2.079-1.969 0-.11-.282-.25-.329-.25-.109 0-.328.172-.375.297C2.72-.547 2.281-.39 1.875-.39c-.25 0-.172-.03-.172-.421 0-.282.016-.375.063-.579l.859-3.39h.953c.25 0 .563-.125.563-.375zm0 0"/></svg><svg overflow="visible" x="130.096" y="17.59"><path d="M3.64-2.625v-1c0-2.047-1.328-4.531-2.64-5.516a.774.774 0 00-.203-.062c-.063 0-.313.187-.313.25 0 .031.079.172.094.187 1.25.938 2.016 3.235 2.016 5.141v1c0 1.922-.766 4.219-2.016 5.14-.015.032-.094.157-.094.204 0 .047.25.25.313.25A.774.774 0 001 2.906c1.313-1 2.64-3.484 2.64-5.531zm0 0"/></svg><svg overflow="visible" x="134.747" y="17.59"><path d="M2.672-1.266a.532.532 0 00-.375.141.686.686 0 00-.125.36c0 .124.039.245.125.359.082.105.207.156.375.156.07-.02.144-.035.219-.047.03 0 .046.024.046.063 0 .199-.074.445-.218.75-.188.343-.43.515-.719.515v.235c.375 0 .68-.188.922-.563.207-.336.312-.71.312-1.14 0-.282-.058-.485-.171-.61-.118-.144-.247-.219-.391-.219zm0 0"/></svg><svg overflow="visible" x="146.702" y="17.59"><path d="M9.766-2.61H8.359v-5.562h2.422c.094-.008.149-.047.172-.11 0-.113-.277-.413-.828-.905-.063-.07-.121-.07-.172 0l-.312.437c-.125.137-.243.21-.344.219h-.938v-.453c0-.082.024-.172.079-.266.03-.082.101-.156.218-.219.125-.05.133-.113.031-.187a6.91 6.91 0 00-.828-.297c-.086-.02-.12.027-.109.14.02.25.035.528.047.829v.453H4.063v-.453c0-.082.023-.172.078-.266.03-.082.101-.156.218-.219.125-.05.133-.113.032-.187a6.91 6.91 0 00-.829-.297c-.085-.02-.12.027-.109.14.02.25.035.528.047.829v.453H2c-.367 0-.695-.035-.984-.11C.96-8.67.922-8.676.89-8.656c-.032.031-.016.078.046.14a.724.724 0 01.235.36c0 .074.035.094.11.062a6.84 6.84 0 01.859-.078H3.5v5.563H1.672a4.68 4.68 0 01-.984-.094C.632-2.734.594-2.738.563-2.72c-.032.031-.016.074.046.125a.844.844 0 01.235.36c.008.074.047.101.11.078.237-.051.523-.078.859-.078h9.421c.102-.008.164-.047.188-.11 0-.113-.277-.414-.828-.906-.063-.07-.125-.07-.188 0l-.297.422c-.125.148-.242.219-.343.219zM4.062-4.202h3.735v1.594H4.063zm0-1.906h3.735v1.546H4.063zm0-2.063h3.735v1.688H4.063zm3.063 6.797C8.02-.957 8.863-.227 9.656.813c.07.144.14.207.203.187.051 0 .118-.07.204-.203a.7.7 0 00.062-.469c-.031-.2-.242-.437-.625-.719-.543-.406-1.29-.8-2.234-1.187-.118-.05-.184-.04-.204.031-.03.086-.011.14.063.172zm-2.766-.266C3.36-.586 2.297.207 1.172.75c-.094.04-.125.102-.094.188.031.07.094.093.188.062A16.92 16.92 0 003.594-.313c.781-.562 1.258-.832 1.437-.812.051 0 .086-.016.11-.047.03-.031.023-.062-.016-.094a4.386 4.386 0 00-.594-.421c-.054-.032-.11-.016-.172.046zm0 0"/></svg><svg overflow="visible" x="158.657" y="17.59"><path d="M5.61-7.64H2.03C1.727-7.88 1.571-8 1.562-8c-.023 0-.027.043-.015.125.05.355.082.656.094.906v1.594l-.094 2.39c0 .157.02.235.062.235a.36.36 0 00.141-.047c.29-.187.438-.336.438-.453v-.578h3.421v2.062C5.598-1.055 5.566-.18 5.516.86c0 .157.046.196.14.125.219-.148.383-.25.5-.312.04-.031.055-.078.047-.14a46.508 46.508 0 01-.047-2.298v-2.062h3.469c0 .293-.012.547-.031.765-.012.126 0 .2.031.22.031 0 .223-.098.578-.298.07-.039.11-.113.11-.218a35.708 35.708 0 01-.094-1.954v-1.765a.36.36 0 01.094-.234.705.705 0 01.312-.141c.07 0 .078-.031.016-.094a7.792 7.792 0 00-.61-.5c-.074-.039-.133-.035-.172.016l-.28.297a.318.318 0 01-.235.093H6.156v-.78c0-.477.032-.79.094-.938.031-.082.11-.157.234-.22.125-.062.13-.124.016-.187-.137-.07-.418-.175-.844-.312-.093-.031-.133.023-.11.156.032.375.052.875.063 1.5zm0 3.452H2.186V-7.28H5.61zm.546-3.093h3.516v2.312c-.012.282-.024.543-.031.782H6.156zm0 0"/></svg><svg overflow="visible" x="174.51" y="17.59"><path d="M9.234-6.64c0-.891-.984-1.782-2.421-1.782H2.796c-.235 0-.547.125-.547.36 0 .14.313.265.531.265l.14-.031s.11.031.313.062c.22.016.125-.093.125.063 0 .047-.015.078-.046.219l-1.61 6.421c-.11.47.063.422-.875.422-.203 0-.531.141-.531.375 0 .141.312.266.531.266h4.266c1.89 0 3.484-1.547 3.484-2.719 0-.86-.875-1.687-2.047-1.812v.265c1.25-.234 2.703-1.25 2.703-2.375zM7.75-6.689c0 1.047-.828 2.047-2.281 2.047H3.937l.72-2.828c.093-.422-.063-.328.452-.328h1.532c1.062 0 1.109.578 1.109 1.11zm-.672 3.844c0 1.188-.86 2.203-2.266 2.203h-1.89c-.125-.015.031.11.031 0 0-.03 0-.046.063-.265l.78-3.203h2.11c1.14 0 1.172.75 1.172 1.265zm0 0"/></svg><svg overflow="visible" x="183.882" y="13.25"><path d="M5.719-1.36c0-.109-.313-.265-.344-.265-.11 0-.328.203-.36.297-.202.672-.343.86-.687.86-.172 0 0 .046 0-.141 0-.188.047-.297.188-.672.109-.266.453-1.14.453-1.61 0-.812-.86-1.125-1.297-1.125-.703 0-1.313.485-1.563.813l.36.11c-.063-.579-.766-.923-1.11-.923-.359 0-.703.313-.812.5-.188.313-.36.907-.36.938 0 .11.329.281.344.281.125 0 .344-.187.39-.422.141-.484.079-.734.407-.734.219 0 .078.015.078.25 0 .156-.078.469-.14.687l-.188.75L.812-.687c-.03.109-.078.312-.078.343 0 .188.36.422.485.422.156 0 .437-.14.468-.219.047-.078.188-.468.22-.64l.187-.75.14-.563c.094-.344.047-.297.282-.64.234-.329.484-.72 1.125-.72.484 0 .28.267.28.423 0 .5-.358 1.437-.5 1.781-.093.234-.124.313-.124.453 0 .438.578.875 1.015.875.829 0 1.407-1.312 1.407-1.437zm0 0"/></svg><g><svg overflow="visible" x="183.583" y="20.794"><path d="M2.922-5.39c0-.141-.313-.485-.547-.485-.219 0-.672.375-.672.625 0 .14.313.469.547.469.234 0 .672-.39.672-.61zm.219 4.03c0-.109-.313-.265-.344-.265-.11 0-.328.203-.375.297-.188.672-.344.86-.672.86-.172 0 0 .046 0-.141 0-.188.063-.344.14-.532l.266-.671.406-1.063a.794.794 0 00.047-.266c0-.39-.546-.875-1-.875-.828 0-1.421 1.297-1.421 1.438 0 .11.328.281.343.281.125 0 .344-.203.36-.297.218-.719.375-.86.687-.86.14 0 0-.093 0 .126 0 .203-.047.328-.25.844L.797-1.141c-.031.11-.078.22-.078.36 0 .39.547.86 1 .86.843 0 1.422-1.313 1.422-1.438zm0 0"/></svg></g><g><svg overflow="visible" x="190.289" y="17.59"><path d="M4.156 2.719c0-.047-.078-.172-.11-.203-1.234-.922-2-3.22-2-5.141v-1c0-1.906.767-4.203 2-5.14a.457.457 0 00.11-.188c0-.063-.25-.25-.312-.25a1.01 1.01 0 00-.203.062C2.312-8.156 1-5.67 1-3.625v1C1-.578 2.313 1.906 3.64 2.906c.016.016.188.063.204.063.062 0 .312-.203.312-.25zm0 0"/></svg><svg overflow="visible" x="194.94" y="17.59"><path d="M4.14-5.156c0-.125-.312-.266-.53-.266H2.78c.39-1.562.453-1.797.453-1.875 0-.203-.328-.453-.53-.453-.032 0-.579.14-.688.563l-.422 1.765H.64c-.25 0-.563.14-.563.36 0 .156.297.28.531.28h.813C.594-1.515.547-1.311.547-1.093c0 .64.656 1.219 1.312 1.219 1.22 0 2.079-1.875 2.079-1.969 0-.11-.282-.25-.329-.25-.109 0-.328.172-.375.297C2.72-.547 2.281-.39 1.875-.39c-.25 0-.172-.03-.172-.421 0-.282.016-.375.063-.579l.859-3.39h.953c.25 0 .563-.125.563-.375zm0 0"/></svg><svg overflow="visible" x="199.255" y="17.59"><path d="M3.64-2.625v-1c0-2.047-1.328-4.531-2.64-5.516a.774.774 0 00-.203-.062c-.063 0-.313.187-.313.25 0 .031.079.172.094.187 1.25.938 2.016 3.235 2.016 5.141v1c0 1.922-.766 4.219-2.016 5.14-.015.032-.094.157-.094.204 0 .047.25.25.313.25A.774.774 0 001 2.906c1.313-1 2.64-3.484 2.64-5.531zm0 0"/></svg></g><g><svg overflow="visible" x="207.218" y="17.59"><path d="M8.828-4.281c0-.125-.312-.375-.437-.375H.906c-.125 0-.437.25-.437.375 0 .14.312.375.437.375h7.485c.125 0 .437-.235.437-.375zm0 2.328c0-.14-.312-.375-.437-.375H.906c-.125 0-.437.234-.437.375 0 .125.312.36.437.36h7.485c.125 0 .437-.235.437-.36zm0 0"/></svg></g><g><svg overflow="visible" x="219.849" y="17.59"><path d="M7.953-2.922c0-.125-.156-.36-.297-.36-.11 0-.297.22-.297.313C7.25-1.079 6.031-.39 4.875-.39c-.828 0-2.969-.343-2.969-3.843C1.906-7.688 4-8.063 4.86-8.063c1.266 0 2.188.922 2.438 2.704.016.14.187.328.328.328.172 0 .328-.188.328-.422v-2.828c0-.219-.156-.438-.281-.438-.063 0-.203.078-.266.203l-.5.782C6.5-8.25 5.578-8.72 4.72-8.72 2.53-8.719.484-6.672.484-4.234.484-1.75 2.563.25 4.72.25c1.968 0 3.234-1.86 3.234-3.172zm0 0"/></svg></g><g><svg overflow="visible" x="228.302" y="13.25"><path d="M2.922-5.39c0-.141-.313-.485-.547-.485-.219 0-.672.375-.672.625 0 .14.313.469.547.469.234 0 .672-.39.672-.61zm.219 4.03c0-.109-.313-.265-.344-.265-.11 0-.328.203-.375.297-.188.672-.344.86-.672.86-.172 0 0 .046 0-.141 0-.188.063-.344.14-.532l.266-.671.406-1.063a.794.794 0 00.047-.266c0-.39-.546-.875-1-.875-.828 0-1.421 1.297-1.421 1.438 0 .11.328.281.343.281.125 0 .344-.203.36-.297.218-.719.375-.86.687-.86.14 0 0-.093 0 .126 0 .203-.047.328-.25.844L.797-1.141c-.031.11-.078.22-.078.36 0 .39.547.86 1 .86.843 0 1.422-1.313 1.422-1.438zm0 0"/></svg></g><g><svg overflow="visible" x="228.302" y="20.543"><path d="M5.719-1.36c0-.109-.313-.265-.344-.265-.11 0-.328.203-.36.297-.202.672-.343.86-.687.86-.172 0 0 .046 0-.141 0-.188.047-.297.188-.672.109-.266.453-1.14.453-1.61 0-.812-.86-1.125-1.297-1.125-.703 0-1.313.485-1.563.813l.36.11c-.063-.579-.766-.923-1.11-.923-.359 0-.703.313-.812.5-.188.313-.36.907-.36.938 0 .11.329.281.344.281.125 0 .344-.187.39-.422.141-.484.079-.734.407-.734.219 0 .078.015.078.25 0 .156-.078.469-.14.687l-.188.75L.812-.687c-.03.109-.078.312-.078.343 0 .188.36.422.485.422.156 0 .437-.14.468-.219.047-.078.188-.468.22-.64l.187-.75.14-.563c.094-.344.047-.297.282-.64.234-.329.484-.72 1.125-.72.484 0 .28.267.28.423 0 .5-.358 1.437-.5 1.781-.093.234-.124.313-.124.453 0 .438.578.875 1.015.875.829 0 1.407-1.312 1.407-1.437zm0 0"/></svg></g><g><svg overflow="visible" x="237.365" y="17.59"><path d="M2.484-3.125c0-.344-.468-.766-.828-.766-.343 0-.828.422-.828.766 0 .36.485.766.828.766.36 0 .828-.407.828-.766zm0 0"/></svg></g><g><svg overflow="visible" x="243.343" y="17.59"><path d="M4.156 2.719c0-.047-.078-.172-.11-.203-1.234-.922-2-3.22-2-5.141v-1c0-1.906.767-4.203 2-5.14a.457.457 0 00.11-.188c0-.063-.25-.25-.312-.25a1.01 1.01 0 00-.203.062C2.312-8.156 1-5.67 1-3.625v1C1-.578 2.313 1.906 3.64 2.906c.016.016.188.063.204.063.062 0 .312-.203.312-.25zm0 0"/></svg><svg overflow="visible" x="247.993" y="17.59"><path d="M5.203-.125v-.516h-.578c-1.078 0-.922 0-.922-.437v-6.703c0-.282-.187-.438-.578-.438-.766.797-1.672.766-2.266.766v.625c.438 0 1.282-.031 1.563-.172v5.922c0 .437.172.437-.906.437H.937v.672C1.547-.03 2.595-.03 3.079-.03c.469 0 1.516 0 2.125.062zm0 0"/></svg></g><g><svg overflow="visible" x="256.625" y="17.59"><path d="M8.828-3.125c0-.125-.312-.36-.437-.36H.906c-.125 0-.437.235-.437.36 0 .14.312.375.437.375h7.485c.125 0 .437-.234.437-.375zm0 0"/></svg></g><g><svg overflow="visible" x="268.58" y="17.59"><path d="M4.14-5.156c0-.125-.312-.266-.53-.266H2.78c.39-1.562.453-1.797.453-1.875 0-.203-.328-.453-.53-.453-.032 0-.579.14-.688.563l-.422 1.765H.64c-.25 0-.563.14-.563.36 0 .156.297.28.531.28h.813C.594-1.515.547-1.311.547-1.093c0 .64.656 1.219 1.312 1.219 1.22 0 2.079-1.875 2.079-1.969 0-.11-.282-.25-.329-.25-.109 0-.328.172-.375.297C2.72-.547 2.281-.39 1.875-.39c-.25 0-.172-.03-.172-.421 0-.282.016-.375.063-.579l.859-3.39h.953c.25 0 .563-.125.563-.375zm0 0"/></svg><svg overflow="visible" x="272.896" y="17.59"><path d="M3.64-2.625v-1c0-2.047-1.328-4.531-2.64-5.516a.774.774 0 00-.203-.062c-.063 0-.313.187-.313.25 0 .031.079.172.094.187 1.25.938 2.016 3.235 2.016 5.141v1c0 1.922-.766 4.219-2.016 5.14-.015.032-.094.157-.094.204 0 .047.25.25.313.25A.774.774 0 001 2.906c1.313-1 2.64-3.484 2.64-5.531zm0 0"/></svg></g><g><svg overflow="visible" x="277.555" y="13.25"><path d="M5.719-1.36c0-.109-.313-.265-.344-.265-.11 0-.328.203-.36.297-.202.672-.343.86-.687.86-.172 0 0 .046 0-.141 0-.188.047-.297.188-.672.109-.266.453-1.14.453-1.61 0-.812-.86-1.125-1.297-1.125-.703 0-1.313.485-1.563.813l.36.11c-.063-.579-.766-.923-1.11-.923-.359 0-.703.313-.812.5-.188.313-.36.907-.36.938 0 .11.329.281.344.281.125 0 .344-.187.39-.422.141-.484.079-.734.407-.734.219 0 .078.015.078.25 0 .156-.078.469-.14.687l-.188.75L.812-.687c-.03.109-.078.312-.078.343 0 .188.36.422.485.422.156 0 .437-.14.468-.219.047-.078.188-.468.22-.64l.187-.75.14-.563c.094-.344.047-.297.282-.64.234-.329.484-.72 1.125-.72.484 0 .28.267.28.423 0 .5-.358 1.437-.5 1.781-.093.234-.124.313-.124.453 0 .438.578.875 1.015.875.829 0 1.407-1.312 1.407-1.437zm0 0"/></svg><svg overflow="visible" x="283.463" y="13.25"><path d="M6.25-2.25c0-.094-.281-.328-.375-.328H.641c-.094 0-.375.234-.375.328s.28.328.375.328h5.234c.094 0 .375-.234.375-.328zm0 0"/></svg><svg overflow="visible" x="289.974" y="13.25"><path d="M2.922-5.39c0-.141-.313-.485-.547-.485-.219 0-.672.375-.672.625 0 .14.313.469.547.469.234 0 .672-.39.672-.61zm.219 4.03c0-.109-.313-.265-.344-.265-.11 0-.328.203-.375.297-.188.672-.344.86-.672.86-.172 0 0 .046 0-.141 0-.188.063-.344.14-.532l.266-.671.406-1.063a.794.794 0 00.047-.266c0-.39-.546-.875-1-.875-.828 0-1.421 1.297-1.421 1.438 0 .11.328.281.343.281.125 0 .344-.203.36-.297.218-.719.375-.86.687-.86.14 0 0-.093 0 .126 0 .203-.047.328-.25.844L.797-1.141c-.031.11-.078.22-.078.36 0 .39.547.86 1 .86.843 0 1.422-1.313 1.422-1.438zm0 0"/></svg></g><g><svg overflow="visible" x="296.51" y="17.59"><path d="M2.484-3.125c0-.344-.468-.766-.828-.766-.343 0-.828.422-.828.766 0 .36.485.766.828.766.36 0 .828-.407.828-.766zm0 0"/></svg></g><g><svg overflow="visible" x="302.488" y="17.59"><path d="M4.14-5.156c0-.125-.312-.266-.53-.266H2.78c.39-1.562.453-1.797.453-1.875 0-.203-.328-.453-.53-.453-.032 0-.579.14-.688.563l-.422 1.765H.64c-.25 0-.563.14-.563.36 0 .156.297.28.531.28h.813C.594-1.515.547-1.311.547-1.093c0 .64.656 1.219 1.312 1.219 1.22 0 2.079-1.875 2.079-1.969 0-.11-.282-.25-.329-.25-.109 0-.328.172-.375.297C2.72-.547 2.281-.39 1.875-.39c-.25 0-.172-.03-.172-.421 0-.282.016-.375.063-.579l.859-3.39h.953c.25 0 .563-.125.563-.375zm0 0"/></svg></g><g><svg overflow="visible" x="306.806" y="13.25"><path d="M2.922-5.39c0-.141-.313-.485-.547-.485-.219 0-.672.375-.672.625 0 .14.313.469.547.469.234 0 .672-.39.672-.61zm.219 4.03c0-.109-.313-.265-.344-.265-.11 0-.328.203-.375.297-.188.672-.344.86-.672.86-.172 0 0 .046 0-.141 0-.188.063-.344.14-.532l.266-.671.406-1.063a.794.794 0 00.047-.266c0-.39-.546-.875-1-.875-.828 0-1.421 1.297-1.421 1.438 0 .11.328.281.343.281.125 0 .344-.203.36-.297.218-.719.375-.86.687-.86.14 0 0-.093 0 .126 0 .203-.047.328-.25.844L.797-1.141c-.031.11-.078.22-.078.36 0 .39.547.86 1 .86.843 0 1.422-1.313 1.422-1.438zm0 0"/></svg></g></svg>