<svg xmlns="http://www.w3.org/2000/svg" xmlns:xlink="http://www.w3.org/1999/xlink" width="805px" height="61px" viewBox="0 0 604 46"><svg overflow="visible" x="-.399" y="19.662"><path d="M8.094-2.766c0-.921-.89-1.64-1.813-1.765v.265c1.266-.25 2.5-1.359 2.5-2.421 0-.829-.828-1.735-2.14-1.735H3.094c-.219 0-.516.125-.516.36 0 .109.281.25.5.25.297 0 .453-.141.453.062 0 .063 0 .094-.031.172L1.86-.984c-.11.406.015.375-.72.375-.202 0-.5.125-.5.359 0 .125.282.25.47.25h3.796c1.625 0 3.188-1.5 3.188-2.766zm-.64-3.968c0 1.03-.766 2.109-2.126 2.109H3.984L4.688-7.5c.109-.453.015-.313.406-.313h1.39c.954 0 .97.563.97 1.079zm-.72 3.828c0 1.25-.828 2.297-2.093 2.297H3.17c-.343 0-.187.125-.187-.016 0-.047 0-.063.047-.234l.813-3.266h1.89c.938 0 1 .61 1 1.219zm0 0"/></svg><svg overflow="visible" x="7.826" y="19.662"><path d="M5.64-1.39c0-.079-.28-.313-.343-.313a.51.51 0 00-.281.156c-.625.86-1.391 1.172-2 1.172-.797 0-.72-.813-.72-1.203 0-.531.079-.86.173-1.188h.281c.422 0 2.844-.14 2.844-1.64 0-.547-.625-1.125-1.328-1.125-1.235 0-3.094 1.343-3.094 3.453C1.172-.875 1.984.125 3 .125c1.484 0 2.64-1.344 2.64-1.516zm-.827-3.032c0 1.281-1.782 1.14-2.172 1.14h-.032c.438-1.765 1.438-1.75 1.641-1.75.484 0 .563.204.563.61zm1.421-3.703c0-.188-.328-.453-.515-.453-.157 0-.203.39-.203.39l-.25-.187-1.72 1.75c-.108.094-.171.219-.171.25 0 .094.313.313.36.313.062 0 .25-.063.28-.11l1.907-1.5c.094-.062.312-.281.312-.453zm0 0"/></svg><svg overflow="visible" x="13.206" y="19.662"><path d="M5.234-1.813c0-.093-.25-.25-.343-.25-.141 0-.344.172-.375.282-.282.812-.782.922-1.11.922-.203 0-.375-.079-.703-.235l.125.047c-.39-.203-.656-.234-.797-.234-.031 0-.172 0 .172-.11.156-.187.672-.718 1.203-1.203 1.14-1.015 2.219-2.5 2.219-2.719 0-.093-.266-.218-.328-.218a.364.364 0 00-.344.203c-.328.562-.375.687-.61.687-.202 0-.202-.046-.405-.343-.204-.282-.485-.547-.86-.547-.86 0-1.547 1.234-1.547 1.468 0 .11.297.235.344.235.14 0 .328-.156.375-.266.125-.36.36-.453.703-.453.235 0 .438.094.313.047.625.328.875.36.78.36a5.6 5.6 0 01-.405.452L1.953-2C1.141-1.187.531-.203.531-.11c0 .094.313.235.36.235.125 0 .25-.047.328-.203.187-.281.39-.703.797-.703.109 0 .14-.031.406.344.203.312.5.562.86.562 1.124 0 1.952-1.656 1.952-1.938zm0 0"/></svg><svg overflow="visible" x="17.988" y="19.662"><path d="M4.047-1.844c0-.11-.297-.234-.344-.234-.14 0-.344.172-.39.344-.11.406-.235 1.359-.907 1.359-.14 0-.094.063-.094-.219 0-.312.157-.75.376-1.328l.703-1.937c.109-.297.14-.391.14-.61 0-.61-.578-1.062-1.047-1.062-1.093 0-1.687 1.89-1.687 1.953 0 .11.297.25.36.25.14 0 .343-.172.39-.344.094-.375.219-1.36.922-1.36.25 0 .062.095.062.22 0 .312-.062.515-.156.734l-.953 2.594c-.094.265-.094.421-.094.53 0 .688.656 1.079 1.047 1.079 1.11 0 1.672-1.922 1.672-1.969zm.312-5.578c0-.328-.421-.61-.656-.61-.36 0-.89.47-.89.813 0 .328.437.61.671.61.36 0 .875-.454.875-.813zm0 0"/></svg><svg overflow="visible" x="21.575" y="19.662"><path d="M5.64-1.39c0-.079-.28-.313-.343-.313a.51.51 0 00-.281.156c-.625.86-1.391 1.172-2 1.172-.797 0-.72-.813-.72-1.203 0-.531.079-.86.173-1.188h.281c.422 0 2.844-.14 2.844-1.64 0-.547-.625-1.125-1.328-1.125-1.235 0-3.094 1.343-3.094 3.453C1.172-.875 1.984.125 3 .125c1.484 0 2.64-1.344 2.64-1.516zm-.827-3.032c0 1.281-1.782 1.14-2.172 1.14h-.032c.438-1.765 1.438-1.75 1.641-1.75.484 0 .563.204.563.61zm0 0"/></svg><svg overflow="visible" x="26.954" y="19.662"><path d="M5.922-4.703c0-.61-.984-.828-1.313-.828-.562 0-1.14.297-1.578.922l.297.093c-.094-.703-.797-1.015-1.11-1.015-.28 0-.78.25-1.14 1-.062.11.031 1.047.031 1.047l-.312-.094c0 .094.25.25.36.25.14 0 .327-.156.39-.422.187-.703.234-1.281.64-1.281.313 0 .126.218.126.36 0 .218-.047.484-.094.655L1.344-.53c-.047.172-.047.187-.047.234 0 .14.281.422.5.422.266 0 .562-.36.625-.563l.765-3.109c.047-.14.391-1.484 1.407-1.484.062 0 .265-.032.297-.016.171-.031-.235.281-.235.578 0 .25.375.469.563.469.203 0 .703-.281.703-.703zm0 0"/></svg><svg overflow="visible" x="31.892" y="19.662"><path d="M4.156 2.719c0-.047-.078-.172-.11-.203-1.234-.922-2-3.22-2-5.141v-1c0-1.906.767-4.203 2-5.14a.457.457 0 00.11-.188c0-.063-.25-.25-.312-.25a1.01 1.01 0 00-.203.062C2.312-8.156 1-5.67 1-3.625v1C1-.578 2.313 1.906 3.64 2.906c.016.016.188.063.204.063.062 0 .312-.203.312-.25zm0 0"/></svg><svg overflow="visible" x="36.543" y="19.662"><path d="M6.266-4.656c0-.36-.47-.89-1-.89-.344 0-1.032.124-1.891 1.093-.406.453-.734.89-.938.969l1.188-4.813-.063.094s-.124-.36-.28-.36c-.282 0-1.157.094-1.47.126-.093.015-.421.156-.421.374 0 .141.312.266.484.266.578 0 .39-.047.39.078l-.03.235L.5-.594c-.047.156-.047.188-.047.266 0 .266.438.453.547.453.156 0 .469-.14.547-.281.062-.11.656-2.406.687-2.563.25.016 1.032.078 1.032.86 0 .093 0 .14-.032.25-.03.156-.062.296-.062.421 0 .704.687 1.313 1.312 1.313.36 0 .813-.219 1.079-.656.296-.531.421-1.219.421-1.219l.063-.094c0-.11-.297-.25-.328-.25-.125 0-.344.188-.375.344C5.109-.875 5.03-.39 4.5-.39c-.219 0-.188 0-.188-.438 0-.203.047-.469.094-.672.047-.203.047-.25.047-.36 0-.78-.937-1.265-1.531-1.343.078-.031.453-.422.734-.703.578-.64 1-1.11 1.578-1.11.079 0-.062-.046.016 0 .234.032.11 0 .203.063.016.016.016.031-.172-.156-.218.015-.531.609-.531.765 0 .188.344.547.672.547.297 0 .844-.406.844-.86zm0 0"/></svg><svg overflow="visible" x="42.951" y="19.662"><path d="M2.625-.14c0-.797-.5-1.391-.969-1.391-.39 0-.828.437-.828.765 0 .329.438.766.828.766.157 0 .438-.078.563-.188l.047-.046s-.313-.078-.313.093c0 .875-.344 1.5-.75 1.891-.125.14-.187.266-.187.297 0 .078.265.265.328.265.125 0 1.281-1.062 1.281-2.453zm0 0"/></svg><svg overflow="visible" x="48.259" y="19.662"><path d="M4.14-5.156c0-.125-.312-.266-.53-.266H2.78c.39-1.562.453-1.797.453-1.875 0-.203-.328-.453-.53-.453-.032 0-.579.14-.688.563l-.422 1.765H.64c-.25 0-.563.14-.563.36 0 .156.297.28.531.28h.813C.594-1.515.547-1.311.547-1.093c0 .64.656 1.219 1.312 1.219 1.22 0 2.079-1.875 2.079-1.969 0-.11-.282-.25-.329-.25-.109 0-.328.172-.375.297C2.72-.547 2.281-.39 1.875-.39c-.25 0-.172-.03-.172-.421 0-.282.016-.375.063-.579l.859-3.39h.953c.25 0 .563-.125.563-.375zm0 0"/></svg><svg overflow="visible" x="52.574" y="19.662"><path d="M3.64-2.625v-1c0-2.047-1.328-4.531-2.64-5.516a.774.774 0 00-.203-.062c-.063 0-.313.187-.313.25 0 .031.079.172.094.187 1.25.938 2.016 3.235 2.016 5.141v1c0 1.922-.766 4.219-2.016 5.14-.015.032-.094.157-.094.204 0 .047.25.25.313.25A.774.774 0 001 2.906c1.313-1 2.64-3.484 2.64-5.531zm0 0"/></svg><svg overflow="visible" x="60.549" y="19.662"><path d="M8.828-4.281c0-.125-.312-.375-.437-.375H.906c-.125 0-.437.25-.437.375 0 .14.312.375.437.375h7.485c.125 0 .437-.235.437-.375zm0 2.328c0-.14-.312-.375-.437-.375H.906c-.125 0-.437.234-.437.375 0 .125.312.36.437.36h7.485c.125 0 .437-.235.437-.36zm0 0"/></svg><svg overflow="visible" x="79.269" y="5.83"><path d="M4.953-3.266c0-.28-.406-.75-.844-.75-.484 0-1.062.391-1.5.797-.343.328-.468.531-.546.578l.765-3.109c-.062.125-.031.016-.031.016l.062-.125c0-.032-.234-.266-.343-.266-.157 0-.86.063-1.063.078-.078.016-.39.172-.39.36 0 .109.312.265.421.265.407 0 .188-.094.188-.031 0 .062-.016.11-.031.187L.453-.53c-.031.156.313.312.313.312L.422-.344c0 .125.312.422.484.422.235 0 .547-.328.594-.531-.047.11.39-1.484.375-1.422.422.047.703.078.703.516 0 .03 0 .078-.031.156-.031.125-.031.172-.031.266 0 .593.703 1.015 1.109 1.015.813 0 1.203-1.312 1.203-1.312l.063-.125c0-.11-.313-.266-.344-.266-.11 0-.328.203-.375.36-.11.359-.125.796-.531.796-.22 0-.079-.047-.079-.281 0-.14 0-.156.047-.375a.784.784 0 00.047-.25c0-.75-1.219-1.031-1.578-1.047l.156.266c.235-.14.547-.422.688-.547.422-.406.703-.75 1.172-.75.11 0 .062-.016-.047-.156-.031 0-.313.437-.313.562 0 .188.344.469.532.469.234 0 .687-.344.687-.688zm0 0"/></svg><svg overflow="visible" x="73.177" y="19.662"><path d="M16.578 1.297h-.453c-.516 1.375-1.578 2.047-2.953 2.406-.25.063-1.422.375-3.719.375H2.578l5.89-6.906c.079-.094.157-.235.157-.297l-.047.094s0-.25-.094-.36l-5.406-7.39h6.25c1.61 0 2.703.172 2.797.187.656.094 1.547.266 2.5.86.297.203 1.047.64 1.516 1.734h.687l-1.562-3.625H1c-.266 0-.422.047-.547.297.016-.047.016.187.016.328L6.78-2.36.656 4.813c-.125.141.156.407.156.407l-.328-.11c0 .141.297.266.516.266h14.281l1.531-4.078zm0 0"/></svg><svg overflow="visible" x="74.482" y="32.595"><path d="M2.922-5.39c0-.141-.313-.485-.547-.485-.219 0-.672.375-.672.625 0 .14.313.469.547.469.234 0 .672-.39.672-.61zm.219 4.03c0-.109-.313-.265-.344-.265-.11 0-.328.203-.375.297-.188.672-.344.86-.672.86-.172 0 0 .046 0-.141 0-.188.063-.344.14-.532l.266-.671.406-1.063a.794.794 0 00.047-.266c0-.39-.546-.875-1-.875-.828 0-1.421 1.297-1.421 1.438 0 .11.328.281.343.281.125 0 .344-.203.36-.297.218-.719.375-.86.687-.86.14 0 0-.093 0 .126 0 .203-.047.328-.25.844L.797-1.141c-.031.11-.078.22-.078.36 0 .39.547.86 1 .86.843 0 1.422-1.313 1.422-1.438zm0 0"/></svg><svg overflow="visible" x="77.863" y="32.595"><path d="M6.25-3.063c0-.093-.281-.328-.375-.328H.641c-.094 0-.375.235-.375.329 0 .093.28.328.375.328h5.234c.094 0 .375-.235.375-.329zm0 1.626c0-.094-.281-.329-.375-.329H.641c-.094 0-.375.235-.375.329 0 .093.28.328.375.328h5.234c.094 0 .375-.235.375-.329zm0 0"/></svg><svg overflow="visible" x="84.374" y="32.595"><path d="M4.531-2.828c0-.922-.172-1.688-.562-2.281-.266-.391-.922-.766-1.594-.766C.437-5.875.219-3.437.219-2.828c0 .594.218 3 2.156 3 1.953 0 2.156-2.406 2.156-3zm-1.187-.11c0 .626 0 1.235-.11 1.766-.156.766-.515.781-.859.781-.375 0-.688-.062-.844-.75-.125-.5-.125-1.171-.125-1.796 0-.61 0-1.25.125-1.704.172-.671.5-.687.844-.687.453 0 .688.125.828.61.14.452.14 1.046.14 1.78zm0 0"/></svg><svg overflow="visible" x="112.1" y="19.662"><path d="M8.344 10.969a.486.486 0 00-.14-.266C5.655 8.781 3.936 3.578 3.936-.89v-4.453c0-4.484 1.72-9.687 4.266-11.593a.486.486 0 00.14-.266c0-.11-.28-.344-.405-.344-.047 0-.235.063-.282.078-2.64 2-5.156 7.422-5.156 12.125V-.89c0 4.688 2.516 10.125 5.156 12.11a.993.993 0 00.282.094c.125 0 .406-.235.406-.344zm0 0"/></svg><svg overflow="visible" x="120.899" y="11.568"><path d="M6.266-4.656c0-.36-.47-.89-1-.89-.344 0-1.032.124-1.891 1.093-.406.453-.734.89-.938.969l1.188-4.813-.063.094s-.124-.36-.28-.36c-.282 0-1.157.094-1.47.126-.093.015-.421.156-.421.374 0 .141.312.266.484.266.578 0 .39-.047.39.078l-.03.235L.5-.594c-.047.156-.047.188-.047.266 0 .266.438.453.547.453.156 0 .469-.14.547-.281.062-.11.656-2.406.687-2.563.25.016 1.032.078 1.032.86 0 .093 0 .14-.032.25-.03.156-.062.296-.062.421 0 .704.687 1.313 1.312 1.313.36 0 .813-.219 1.079-.656.296-.531.421-1.219.421-1.219l.063-.094c0-.11-.297-.25-.328-.25-.125 0-.344.188-.375.344C5.109-.875 5.03-.39 4.5-.39c-.219 0-.188 0-.188-.438 0-.203.047-.469.094-.672.047-.203.047-.25.047-.36 0-.78-.937-1.265-1.531-1.343.078-.031.453-.422.734-.703.578-.64 1-1.11 1.578-1.11.079 0-.062-.046.016 0 .234.032.11 0 .203.063.016.016.016.031-.172-.156-.218.015-.531.609-.531.765 0 .188.344.547.672.547.297 0 .844-.406.844-.86zm0 0"/></svg><svg overflow="visible" x="122.04" y="27.864"><path d="M3.578-7.61c0-.234-.344-.546-.625-.546-.328 0-.844.437-.844.75 0 .234.36.562.657.562.265 0 .812-.406.812-.765zm.11 5.766c0-.11-.297-.25-.329-.25-.125 0-.328.172-.39.344-.203.766-.406 1.36-1.016 1.36-.203 0-.094.015-.094-.266 0-.297.079-.469.36-1.203l.453-1.25c.156-.344.156-.375.265-.688.094-.25.157-.406.157-.64 0-.532-.578-1.11-1.172-1.11C.797-5.547.14-3.687.14-3.578c0 .125.484.219.484.219l-.14.03c.124 0 .328-.155.39-.343.313-1.125.61-1.344 1.016-1.344.093 0 .093-.14.093.25 0 .25-.078.5-.125.625-.109.297-.64 1.688-.828 2.204-.125.312-.281.703-.281.953 0 .562.61 1.109 1.188 1.109 1.125 0 1.75-1.86 1.75-1.969zm0 0"/></svg><svg overflow="visible" x="127.307" y="19.662"><path d="M6.281-.89v-4.454c0-4.703-2.5-10.125-5.156-12.125a1.32 1.32 0 00-.266-.078c-.125 0-.421.235-.421.344 0 .078.093.234.14.265 2.547 1.907 4.266 7.11 4.266 11.594V-.89c0 4.47-1.719 9.672-4.266 11.594a.486.486 0 00-.14.266c0 .11.296.344.421.344a.77.77 0 00.266-.094C3.781 9.234 6.281 3.797 6.281-.891zm0 0"/></svg><svg overflow="visible" x="112.171" y="30.971"><path d="M24.047.86c0-.047-.235-.22-.281-.22a.5.5 0 00-.297.188c-.344.953-1.735 1.328-3.235 1.328h-4.78c-1.782 0-3.36.969-3.735 1.86h.406c-.375-.891-1.938-1.86-3.719-1.86H3.625c-1.5 0-2.906-.375-3.25-1.328A.476.476 0 00.094.641c-.047 0-.297.171-.297.218v.032c.39 1.062 2.14 2.296 3.828 2.296h4.781c1.828 0 3.219.36 3.219 1.297 0 .063.25.22.297.22.062 0 .297-.157.297-.22 0-.937 1.406-1.296 3.234-1.296h4.781c1.688 0 3.422-1.235 3.813-2.297zm0 0"/></svg><svg overflow="visible" x="92.433" y="43.486"><path d="M4.156-2.453c0-.985-.89-1.563-1.468-1.563-.438 0-.954.297-1.204.516l.36.11.578-2.36c-.063.125-.031.016-.031.016l.062-.125c0-.032-.234-.266-.344-.266-.171 0-.859.063-1.078.078-.062.016-.39.172-.39.36 0 .109.328.265.437.265.39 0 .188-.094.188-.031 0 .062-.079.39-.141.594l-.188.765-.546 2.219c-.047.203-.047.313-.047.422 0 .844.75 1.531 1.437 1.531 1.047 0 2.375-1.297 2.375-2.531zm-1.093-.36c0 .344-.126 1.094-.532 1.876-.11.218-.312.468-.734.468s-.438-.203-.438-.703c0-.297.079-.594.313-1.531.047-.156-.016-.063.14-.25.313-.36.547-.5.844-.5.328 0 .406.078.406.64zm0 0"/></svg><svg overflow="visible" x="96.634" y="43.486"><path d="M2.922-5.39c0-.141-.313-.485-.547-.485-.219 0-.672.375-.672.625 0 .14.313.469.547.469.234 0 .672-.39.672-.61zm.219 4.03c0-.109-.313-.265-.344-.265-.11 0-.328.203-.375.297-.188.672-.344.86-.672.86-.172 0 0 .046 0-.141 0-.188.063-.344.14-.532l.266-.671.406-1.063a.794.794 0 00.047-.266c0-.39-.546-.875-1-.875-.828 0-1.421 1.297-1.421 1.438 0 .11.328.281.343.281.125 0 .344-.203.36-.297.218-.719.375-.86.687-.86.14 0 0-.093 0 .126 0 .203-.047.328-.25.844L.797-1.141c-.031.11-.078.22-.078.36 0 .39.547.86 1 .86.843 0 1.422-1.313 1.422-1.438zm0 0"/></svg><svg overflow="visible" x="100.015" y="43.486"><path d="M5.719-1.36c0-.109-.313-.265-.344-.265-.11 0-.328.203-.36.297-.202.672-.343.86-.687.86-.172 0 0 .046 0-.141 0-.188.047-.297.188-.672.109-.266.453-1.14.453-1.61 0-.812-.86-1.125-1.297-1.125-.703 0-1.313.485-1.563.813l.36.11c-.063-.579-.766-.923-1.11-.923-.359 0-.703.313-.812.5-.188.313-.36.907-.36.938 0 .11.329.281.344.281.125 0 .344-.187.39-.422.141-.484.079-.734.407-.734.219 0 .078.015.078.25 0 .156-.078.469-.14.687l-.188.75L.812-.687c-.03.109-.078.312-.078.343 0 .188.36.422.485.422.156 0 .437-.14.468-.219.047-.078.188-.468.22-.64l.187-.75.14-.563c.094-.344.047-.297.282-.64.234-.329.484-.72 1.125-.72.484 0 .28.267.28.423 0 .5-.358 1.437-.5 1.781-.093.234-.124.313-.124.453 0 .438.578.875 1.015.875.829 0 1.407-1.312 1.407-1.437zm0 0"/></svg><svg overflow="visible" x="105.923" y="43.486"><path d="M4.656-2.39c0-.922-.906-1.626-1.718-1.626-1.25 0-2.626 1.329-2.626 2.47 0 .843.813 1.624 1.735 1.624 1.187 0 2.61-1.266 2.61-2.469zm-1.11-.297c0 .203-.03.921-.405 1.5-.313.5-.672.718-1.094.718-.406 0-.625-.11-.625-.765 0-.344.094-1.047.422-1.532.36-.515.703-.687 1.078-.687.453 0 .625.14.625.765zm0 0"/></svg><svg overflow="visible" x="110.643" y="43.486"><path d="M8.297-1.36c0-.109-.328-.265-.344-.265-.125 0-.344.203-.375.297-.187.672-.344.86-.672.86-.187 0 0 .046 0-.141 0-.188.032-.297.188-.672.093-.266.437-1.14.437-1.61 0-.14-.062-.609-.375-.843-.14-.11-.515-.282-.922-.282-.75 0-1.359.547-1.625.907L4.97-3c-.063-.719-.875-1.016-1.297-1.016-.703 0-1.313.485-1.563.813l.36.11c-.063-.579-.766-.923-1.11-.923-.359 0-.703.313-.812.5-.188.313-.36.907-.36.938 0 .11.329.281.344.281.125 0 .344-.187.39-.422.141-.484.079-.734.407-.734.219 0 .078.015.078.25 0 .156-.078.469-.14.687l-.188.75L.812-.687c-.03.109-.078.312-.078.343 0 .188.36.422.485.422.156 0 .437-.14.468-.219.047-.078.188-.468.22-.64l.187-.75.14-.563c.094-.344.047-.297.282-.64.234-.329.484-.72 1.125-.72.484 0 .28.267.28.423 0 .203-.03.312-.14.781l-.36 1.406c-.03.172-.108.453-.108.5 0 .188.359.422.484.422.156 0 .437-.14.469-.219.046-.078.187-.468.218-.64l.188-.75c.047-.188.11-.375.14-.563.094-.36.032-.265.204-.515.265-.407.53-.844 1.187-.844.469 0 .281.219.281.422 0 .5-.359 1.437-.484 1.781-.094.234-.125.313-.125.453 0 .438.578.875 1 .875.844 0 1.422-1.312 1.422-1.437zm0 0"/></svg><svg overflow="visible" x="119.129" y="43.486"><path d="M2.922-5.39c0-.141-.313-.485-.547-.485-.219 0-.672.375-.672.625 0 .14.313.469.547.469.234 0 .672-.39.672-.61zm.219 4.03c0-.109-.313-.265-.344-.265-.11 0-.328.203-.375.297-.188.672-.344.86-.672.86-.172 0 0 .046 0-.141 0-.188.063-.344.14-.532l.266-.671.406-1.063a.794.794 0 00.047-.266c0-.39-.546-.875-1-.875-.828 0-1.421 1.297-1.421 1.438 0 .11.328.281.343.281.125 0 .344-.203.36-.297.218-.719.375-.86.687-.86.14 0 0-.093 0 .126 0 .203-.047.328-.25.844L.797-1.141c-.031.11-.078.22-.078.36 0 .39.547.86 1 .86.843 0 1.422-1.313 1.422-1.438zm0 0"/></svg><svg overflow="visible" x="122.51" y="43.486"><path d="M4.984-1.36c0-.109-.312-.265-.343-.265-.11 0-.329.188-.391.422-.094.406-.047.734-.39.734-.22 0-.079-.031-.079-.25 0-.14.078-.453.125-.656l.188-.766c.078-.312.093-.359.172-.625.046-.218.14-.625.14-.656 0-.187-.36-.437-.484-.437-.14 0-.547.265-.594.5l.344-.11c-.172-.281-.594-.547-1-.547-1.078 0-2.375 1.344-2.375 2.547 0 .813.766 1.547 1.484 1.547.453 0 .985-.297 1.078-.39.063.156.75.39.97.39.296 0 .655-.219.796-.484.188-.328.36-.922.36-.953zm-1.78-1.53c0 .03-.017.093-.017.124l-.406 1.563c-.047.234-.172.297-.36.453-.077.063-.265.281-.624.281-.313 0-.39-.062-.39-.656 0-.438.171-1.25.359-1.578.39-.672.671-.75.906-.75.594 0 .531.469.531.562zm0 0"/></svg><svg overflow="visible" x="127.698" y="43.486"><path d="M2.61-5.86c0-.03-.25-.265-.344-.265-.172 0-.86.063-1.079.078-.062.016-.39.172-.39.36 0 .109.328.265.422.265.406 0 .203-.094.203-.031a.47.47 0 01-.047.187L.344-1.125c-.031.078-.031.172-.031.25 0 .547.687.953 1.093.953.188 0 .594-.11.813-.484.172-.313.36-.922.36-.953 0-.11-.329-.266-.345-.266-.125 0-.343.203-.39.36-.11.421-.047.796-.407.796-.234 0-.078-.047-.078-.25 0-.094.016-.25.047-.344L2.578-5.75c-.062.125-.047.016-.047.016zm0 0"/></svg><svg overflow="visible" x="134.611" y="43.486"><path d="M3.39-3.656c0-.11-.312-.266-.453-.266h-.562l.281-1.094c0-.03.031-.078.031-.109 0-.156-.328-.422-.5-.422-.218 0-.546.297-.609.516-.047.203.063-.188-.281 1.11H.625c-.172 0-.484.155-.484.343 0 .11.312.265.468.265h.532L.687-1.484c-.046.203-.125.5-.125.609 0 .5.641.953 1.11.953.937 0 1.672-1.328 1.672-1.437 0-.11-.328-.266-.344-.266-.11 0-.313.172-.39.313-.235.53-.454.843-.907.843-.172 0-.094.047-.094-.25 0-.078.047-.265.063-.344l.562-2.25h.688c.156 0 .469-.156.469-.343zm0 0"/></svg><svg overflow="visible" x="138.226" y="43.486"><path d="M4.36-1.016c0-.062-.298-.312-.36-.312a.676.676 0 00-.281.14c-.656.766-1.485.72-1.64.72-.5 0-.626-.173-.626-.86 0-.11 0-.281.063-.578h.359c.234 0 .89-.016 1.344-.172.625-.219.953-.781.953-1.031 0-.47-.672-.907-1.25-.907-1 0-2.563.938-2.563 2.36 0 .86.735 1.734 1.704 1.734 1.421 0 2.296-.984 2.296-1.094zm-.97-2.093c0 .812-1.203.64-1.562.64h-.156c.297-1.047 1.016-.984 1.25-.984.375 0 .469.015.469.344zm0 0"/></svg><svg overflow="visible" x="142.762" y="43.486"><path d="M4.5-3.234c0-.438-.672-.782-1.094-.782-.437 0-.969.235-1.094.375-.03-.125-.75-.375-.953-.375-.312 0-.671.25-.812.485-.188.328-.36.922-.36.953 0 .11.329.281.344.281.125 0 .344-.187.39-.422.141-.5.079-.734.407-.734.219 0 .078.015.078.25 0 .156-.078.469-.14.687l-.188.75L.812-.687c-.03.109-.078.312-.078.343 0 .188.36.422.485.422s.5-.234.578-.39c.016-.063.11-.422.156-.641l.219-.89c.015-.063.203-.813.219-.86.015-.063.203-.36.468-.563.094-.062.172-.187.532-.187.078 0 .14-.047.062-.094.125-.031-.172.36-.172.5 0 .188.344.469.531.469.204 0 .688-.313.688-.656zm0 0"/></svg><svg overflow="visible" x="147.281" y="43.486"><path d="M8.297-1.36c0-.109-.328-.265-.344-.265-.125 0-.344.203-.375.297-.187.672-.344.86-.672.86-.187 0 0 .046 0-.141 0-.188.032-.297.188-.672.093-.266.437-1.14.437-1.61 0-.14-.062-.609-.375-.843-.14-.11-.515-.282-.922-.282-.75 0-1.359.547-1.625.907L4.97-3c-.063-.719-.875-1.016-1.297-1.016-.703 0-1.313.485-1.563.813l.36.11c-.063-.579-.766-.923-1.11-.923-.359 0-.703.313-.812.5-.188.313-.36.907-.36.938 0 .11.329.281.344.281.125 0 .344-.187.39-.422.141-.484.079-.734.407-.734.219 0 .078.015.078.25 0 .156-.078.469-.14.687l-.188.75L.812-.687c-.03.109-.078.312-.078.343 0 .188.36.422.485.422.156 0 .437-.14.468-.219.047-.078.188-.468.22-.64l.187-.75.14-.563c.094-.344.047-.297.282-.64.234-.329.484-.72 1.125-.72.484 0 .28.267.28.423 0 .203-.03.312-.14.781l-.36 1.406c-.03.172-.108.453-.108.5 0 .188.359.422.484.422.156 0 .437-.14.469-.219.046-.078.187-.468.218-.64l.188-.75c.047-.188.11-.375.14-.563.094-.36.032-.265.204-.515.265-.407.53-.844 1.187-.844.469 0 .281.219.281.422 0 .5-.359 1.437-.484 1.781-.094.234-.125.313-.125.453 0 .438.578.875 1 .875.844 0 1.422-1.312 1.422-1.437zm0 0"/></svg><svg overflow="visible" x="157.619" y="19.662"><path d="M2.484-3.125c0-.344-.468-.766-.828-.766-.343 0-.828.422-.828.766 0 .36.485.766.828.766.36 0 .828-.407.828-.766zm0 0"/></svg><svg overflow="visible" x="169.706" y="19.662"><path d="M4.156 2.719c0-.047-.078-.172-.11-.203-1.234-.922-2-3.22-2-5.141v-1c0-1.906.767-4.203 2-5.14a.457.457 0 00.11-.188c0-.063-.25-.25-.312-.25a1.01 1.01 0 00-.203.062C2.312-8.156 1-5.67 1-3.625v1C1-.578 2.313 1.906 3.64 2.906c.016.016.188.063.204.063.062 0 .312-.203.312-.25zm0 0"/></svg><svg overflow="visible" x="174.356" y="19.662"><path d="M5.203-.125v-.516h-.578c-1.078 0-.922 0-.922-.437v-6.703c0-.282-.187-.438-.578-.438-.766.797-1.672.766-2.266.766v.625c.438 0 1.282-.031 1.563-.172v5.922c0 .437.172.437-.906.437H.937v.672C1.547-.03 2.595-.03 3.079-.03c.469 0 1.516 0 2.125.062zm0 0"/></svg><svg overflow="visible" x="182.988" y="19.662"><path d="M8.828-3.125c0-.125-.312-.36-.437-.36H.906c-.125 0-.437.235-.437.36 0 .14.312.375.437.375h7.485c.125 0 .437-.234.437-.375zm0 0"/></svg><svg overflow="visible" x="194.943" y="19.662"><path d="M4.14-5.156c0-.125-.312-.266-.53-.266H2.78c.39-1.562.453-1.797.453-1.875 0-.203-.328-.453-.53-.453-.032 0-.579.14-.688.563l-.422 1.765H.64c-.25 0-.563.14-.563.36 0 .156.297.28.531.28h.813C.594-1.515.547-1.311.547-1.093c0 .64.656 1.219 1.312 1.219 1.22 0 2.079-1.875 2.079-1.969 0-.11-.282-.25-.329-.25-.109 0-.328.172-.375.297C2.72-.547 2.281-.39 1.875-.39c-.25 0-.172-.03-.172-.421 0-.282.016-.375.063-.579l.859-3.39h.953c.25 0 .563-.125.563-.375zm0 0"/></svg><svg overflow="visible" x="199.259" y="19.662"><path d="M3.64-2.625v-1c0-2.047-1.328-4.531-2.64-5.516a.774.774 0 00-.203-.062c-.063 0-.313.187-.313.25 0 .031.079.172.094.187 1.25.938 2.016 3.235 2.016 5.141v1c0 1.922-.766 4.219-2.016 5.14-.015.032-.094.157-.094.204 0 .047.25.25.313.25A.774.774 0 001 2.906c1.313-1 2.64-3.484 2.64-5.531zm0 0"/></svg><svg overflow="visible" x="203.918" y="16.207"><path d="M4.953-3.266c0-.28-.406-.75-.844-.75-.484 0-1.062.391-1.5.797-.343.328-.468.531-.546.578l.765-3.109c-.062.125-.031.016-.031.016l.062-.125c0-.032-.234-.266-.343-.266-.157 0-.86.063-1.063.078-.078.016-.39.172-.39.36 0 .109.312.265.421.265.407 0 .188-.094.188-.031 0 .062-.016.11-.031.187L.453-.53c-.031.156.313.312.313.312L.422-.344c0 .125.312.422.484.422.235 0 .547-.328.594-.531-.047.11.39-1.484.375-1.422.422.047.703.078.703.516 0 .03 0 .078-.031.156-.031.125-.031.172-.031.266 0 .593.703 1.015 1.109 1.015.813 0 1.203-1.312 1.203-1.312l.063-.125c0-.11-.313-.266-.344-.266-.11 0-.328.203-.375.36-.11.359-.125.796-.531.796-.22 0-.079-.047-.079-.281 0-.14 0-.156.047-.375a.784.784 0 00.047-.25c0-.75-1.219-1.031-1.578-1.047l.156.266c.235-.14.547-.422.688-.547.422-.406.703-.75 1.172-.75.11 0 .062-.016-.047-.156-.031 0-.313.437-.313.562 0 .188.344.469.532.469.234 0 .687-.344.687-.688zm0 0"/></svg><svg overflow="visible" x="208.998" y="16.207"><path d="M6.25-2.25c0-.094-.281-.328-.375-.328H.641c-.094 0-.375.234-.375.328s.28.328.375.328h5.234c.094 0 .375-.234.375-.328zm0 0"/></svg><svg overflow="visible" x="215.509" y="16.207"><path d="M2.922-5.39c0-.141-.313-.485-.547-.485-.219 0-.672.375-.672.625 0 .14.313.469.547.469.234 0 .672-.39.672-.61zm.219 4.03c0-.109-.313-.265-.344-.265-.11 0-.328.203-.375.297-.188.672-.344.86-.672.86-.172 0 0 .046 0-.141 0-.188.063-.344.14-.532l.266-.671.406-1.063a.794.794 0 00.047-.266c0-.39-.546-.875-1-.875-.828 0-1.421 1.297-1.421 1.438 0 .11.328.281.343.281.125 0 .344-.203.36-.297.218-.719.375-.86.687-.86.14 0 0-.093 0 .126 0 .203-.047.328-.25.844L.797-1.141c-.031.11-.078.22-.078.36 0 .39.547.86 1 .86.843 0 1.422-1.313 1.422-1.438zm0 0"/></svg><svg overflow="visible" x="222.044" y="19.662"><path d="M2.484-3.125c0-.344-.468-.766-.828-.766-.343 0-.828.422-.828.766 0 .36.485.766.828.766.36 0 .828-.407.828-.766zm0 0"/></svg><svg overflow="visible" x="228.022" y="19.662"><path d="M4.14-5.156c0-.125-.312-.266-.53-.266H2.78c.39-1.562.453-1.797.453-1.875 0-.203-.328-.453-.53-.453-.032 0-.579.14-.688.563l-.422 1.765H.64c-.25 0-.563.14-.563.36 0 .156.297.28.531.28h.813C.594-1.515.547-1.311.547-1.093c0 .64.656 1.219 1.312 1.219 1.22 0 2.079-1.875 2.079-1.969 0-.11-.282-.25-.329-.25-.109 0-.328.172-.375.297C2.72-.547 2.281-.39 1.875-.39c-.25 0-.172-.03-.172-.421 0-.282.016-.375.063-.579l.859-3.39h.953c.25 0 .563-.125.563-.375zm0 0"/></svg><svg overflow="visible" x="232.341" y="16.207"><path d="M2.922-5.39c0-.141-.313-.485-.547-.485-.219 0-.672.375-.672.625 0 .14.313.469.547.469.234 0 .672-.39.672-.61zm.219 4.03c0-.109-.313-.265-.344-.265-.11 0-.328.203-.375.297-.188.672-.344.86-.672.86-.172 0 0 .046 0-.141 0-.188.063-.344.14-.532l.266-.671.406-1.063a.794.794 0 00.047-.266c0-.39-.546-.875-1-.875-.828 0-1.421 1.297-1.421 1.438 0 .11.328.281.343.281.125 0 .344-.203.36-.297.218-.719.375-.86.687-.86.14 0 0-.093 0 .126 0 .203-.047.328-.25.844L.797-1.141c-.031.11-.078.22-.078.36 0 .39.547.86 1 .86.843 0 1.422-1.313 1.422-1.438zm0 0"/></svg><svg overflow="visible" x="169.708" y="22.627"><path d="M12.172 3.375V2.031H6.094C3.359 2.031.875 1.766.484.72.47.656.234.484.156.484c-.078 0-.36.204-.36.282 0 .015.063.14.032.125.406 1.093 3.235 2.625 6.266 2.625h6.078zm0 0"/></svg><svg overflow="visible" x="180.408" y="22.627"><path d="M12.078 3.375V2.031H-.203v1.485h12.281zm0 0"/></svg><svg overflow="visible" x="191" y="22.627"><path d="M23.938 2.031h-6.032c-2.984 0-5.468 1.094-5.937 1.906C11.484 3.125 9 2.032 6.03 2.032H-.203v1.485H6.03c3.094 0 5.578.218 5.578 1.25 0 .093.266.296.36.296.078 0 .344-.203.344-.296 0-1.032 2.484-1.25 5.593-1.25h6.235V2.03zm0 0"/></svg><svg overflow="visible" x="213.667" y="22.627"><path d="M12.078 3.375V2.031H-.203v1.485h12.281zm0 0"/></svg><svg overflow="visible" x="224.26" y="22.627"><path d="M12.156.766c0-.079-.265-.282-.344-.282-.078 0-.328.172-.343.235-.39 1.047-2.86 1.312-5.594 1.312H-.203v1.485h6.078c3.031 0 5.844-1.532 6.25-2.625-.031.015.031-.11.031-.125zm0 0"/></svg><svg overflow="visible" x="166.29" y="35.488"><path d="M4.875-2.453c0-.985-.89-1.563-1.469-1.563-.515 0-1.11.407-1.094.391-.03-.125-.703-.39-.953-.39-.328 0-.687.265-.812.5-.172.28-.36.89-.36.937 0 .11.329.281.344.281.125 0 .344-.187.39-.422.141-.484.079-.734.407-.734.219 0 .078.015.078.25 0 .094-.031.203-.031.25L.422.859C.359 1.094.547 1 .219 1c-.11 0-.438.172-.438.344 0 .093.281.281.328.281.22 0 .5-.031.72-.031.28 0 .609.031.874.031.078 0 .375-.188.375-.344 0-.11-.312-.281-.422-.281-.187 0-.203.172-.203.063 0-.047.063-.266.094-.391l.312-1.235-.359.11c.094.172.516.531 1.016.531 1.015 0 2.359-1.281 2.359-2.531zm-1.094-.36c0 .344-.125 1.094-.375 1.579-.203.406-.469.765-.89.765-.594 0-.547-.484-.547-.562 0-.047.031-.094.031-.14l.406-1.641c.438-.563.703-.641.985-.641.312 0 .39.078.39.64zm0 0"/></svg><svg overflow="visible" x="171.219" y="35.488"><path d="M4.656-2.39c0-.922-.906-1.626-1.718-1.626-1.25 0-2.626 1.329-2.626 2.47 0 .843.813 1.624 1.735 1.624 1.187 0 2.61-1.266 2.61-2.469zm-1.11-.297c0 .203-.03.921-.405 1.5-.313.5-.672.718-1.094.718-.406 0-.625-.11-.625-.765 0-.344.094-1.047.422-1.532.36-.515.703-.687 1.078-.687.453 0 .625.14.625.765zm0 0"/></svg><svg overflow="visible" x="175.939" y="35.488"><path d="M2.61-5.86c0-.03-.25-.265-.344-.265-.172 0-.86.063-1.079.078-.062.016-.39.172-.39.36 0 .109.328.265.422.265.406 0 .203-.094.203-.031a.47.47 0 01-.047.187L.344-1.125c-.031.078-.031.172-.031.25 0 .547.687.953 1.093.953.188 0 .594-.11.813-.484.172-.313.36-.922.36-.953 0-.11-.329-.266-.345-.266-.125 0-.343.203-.39.36-.11.421-.047.796-.407.796-.234 0-.078-.047-.078-.25 0-.094.016-.25.047-.344L2.578-5.75c-.062.125-.047.016-.047.016zm0 0"/></svg><svg overflow="visible" x="178.96" y="35.488"><path d="M4.906-3.5c0-.172-.343-.422-.5-.422-.078 0-.39.094-.484.25a3.37 3.37 0 00-.188.594l-.187.687-.328 1.36.344.11S3.046-.47 2.39-.47c-.563 0-.36-.39-.36-.531 0-.453.203-.984.453-1.625.094-.266.141-.375.141-.516 0-.406-.563-.875-1.016-.875-.843 0-1.421 1.297-1.421 1.438 0 .11.328.281.343.281.125 0 .344-.203.36-.297.218-.703.359-.86.703-.86.14 0 0-.077 0 .126s-.078.375-.125.484C1.079-1.813.984-1.5.984-1.14c0 .141.063.657.391.922.266.219.766.297.984.297.344 0 .782-.156 1.063-.406l-.36-.125c-.109.469-.14.703-.484 1.125-.234.25-.422.484-.86.484-.062 0-.312.047-.343.016.172-.031.313-.484.313-.484l.062-.11c0-.265-.453-.484-.531-.484C1 .094.516.422.516.813c0 .421.609.89 1.203.89.86 0 2.093-.812 2.343-1.86l.797-3.155c.047-.126.047-.141.047-.188zm0 0"/></svg><svg overflow="visible" x="183.872" y="35.488"><path d="M5.719-1.36c0-.109-.313-.265-.344-.265-.11 0-.328.203-.36.297-.202.672-.343.86-.687.86-.172 0 0 .046 0-.141 0-.188.047-.297.188-.672.109-.266.453-1.14.453-1.61 0-.812-.86-1.125-1.297-1.125-.703 0-1.313.485-1.563.813l.36.11c-.063-.579-.766-.923-1.11-.923-.359 0-.703.313-.812.5-.188.313-.36.907-.36.938 0 .11.329.281.344.281.125 0 .344-.187.39-.422.141-.484.079-.734.407-.734.219 0 .078.015.078.25 0 .156-.078.469-.14.687l-.188.75L.812-.687c-.03.109-.078.312-.078.343 0 .188.36.422.485.422.156 0 .437-.14.468-.219.047-.078.188-.468.22-.64l.187-.75.14-.563c.094-.344.047-.297.282-.64.234-.329.484-.72 1.125-.72.484 0 .28.267.28.423 0 .5-.358 1.437-.5 1.781-.093.234-.124.313-.124.453 0 .438.578.875 1.015.875.829 0 1.407-1.312 1.407-1.437zm0 0"/></svg><svg overflow="visible" x="189.781" y="35.488"><path d="M4.656-2.39c0-.922-.906-1.626-1.718-1.626-1.25 0-2.626 1.329-2.626 2.47 0 .843.813 1.624 1.735 1.624 1.187 0 2.61-1.266 2.61-2.469zm-1.11-.297c0 .203-.03.921-.405 1.5-.313.5-.672.718-1.094.718-.406 0-.625-.11-.625-.765 0-.344.094-1.047.422-1.532.36-.515.703-.687 1.078-.687.453 0 .625.14.625.765zm0 0"/></svg><svg overflow="visible" x="194.501" y="35.488"><path d="M8.297-1.36c0-.109-.328-.265-.344-.265-.125 0-.344.203-.375.297-.187.672-.344.86-.672.86-.187 0 0 .046 0-.141 0-.188.032-.297.188-.672.093-.266.437-1.14.437-1.61 0-.14-.062-.609-.375-.843-.14-.11-.515-.282-.922-.282-.75 0-1.359.547-1.625.907L4.97-3c-.063-.719-.875-1.016-1.297-1.016-.703 0-1.313.485-1.563.813l.36.11c-.063-.579-.766-.923-1.11-.923-.359 0-.703.313-.812.5-.188.313-.36.907-.36.938 0 .11.329.281.344.281.125 0 .344-.187.39-.422.141-.484.079-.734.407-.734.219 0 .078.015.078.25 0 .156-.078.469-.14.687l-.188.75L.812-.687c-.03.109-.078.312-.078.343 0 .188.36.422.485.422.156 0 .437-.14.468-.219.047-.078.188-.468.22-.64l.187-.75.14-.563c.094-.344.047-.297.282-.64.234-.329.484-.72 1.125-.72.484 0 .28.267.28.423 0 .203-.03.312-.14.781l-.36 1.406c-.03.172-.108.453-.108.5 0 .188.359.422.484.422.156 0 .437-.14.469-.219.046-.078.187-.468.218-.64l.188-.75c.047-.188.11-.375.14-.563.094-.36.032-.265.204-.515.265-.407.53-.844 1.187-.844.469 0 .281.219.281.422 0 .5-.359 1.437-.484 1.781-.094.234-.125.313-.125.453 0 .438.578.875 1 .875.844 0 1.422-1.312 1.422-1.437zm0 0"/></svg><svg overflow="visible" x="202.986" y="35.488"><path d="M2.922-5.39c0-.141-.313-.485-.547-.485-.219 0-.672.375-.672.625 0 .14.313.469.547.469.234 0 .672-.39.672-.61zm.219 4.03c0-.109-.313-.265-.344-.265-.11 0-.328.203-.375.297-.188.672-.344.86-.672.86-.172 0 0 .046 0-.141 0-.188.063-.344.14-.532l.266-.671.406-1.063a.794.794 0 00.047-.266c0-.39-.546-.875-1-.875-.828 0-1.421 1.297-1.421 1.438 0 .11.328.281.343.281.125 0 .344-.203.36-.297.218-.719.375-.86.687-.86.14 0 0-.093 0 .126 0 .203-.047.328-.25.844L.797-1.141c-.031.11-.078.22-.078.36 0 .39.547.86 1 .86.843 0 1.422-1.313 1.422-1.438zm0 0"/></svg><svg overflow="visible" x="206.367" y="35.488"><path d="M4.984-1.36c0-.109-.312-.265-.343-.265-.11 0-.329.188-.391.422-.094.406-.047.734-.39.734-.22 0-.079-.031-.079-.25 0-.14.078-.453.125-.656l.188-.766c.078-.312.093-.359.172-.625.046-.218.14-.625.14-.656 0-.187-.36-.437-.484-.437-.14 0-.547.265-.594.5l.344-.11c-.172-.281-.594-.547-1-.547-1.078 0-2.375 1.344-2.375 2.547 0 .813.766 1.547 1.484 1.547.453 0 .985-.297 1.078-.39.063.156.75.39.97.39.296 0 .655-.219.796-.484.188-.328.36-.922.36-.953zm-1.78-1.53c0 .03-.017.093-.017.124l-.406 1.563c-.047.234-.172.297-.36.453-.077.063-.265.281-.624.281-.313 0-.39-.062-.39-.656 0-.438.171-1.25.359-1.578.39-.672.671-.75.906-.75.594 0 .531.469.531.562zm0 0"/></svg><svg overflow="visible" x="211.556" y="35.488"><path d="M2.61-5.86c0-.03-.25-.265-.344-.265-.172 0-.86.063-1.079.078-.062.016-.39.172-.39.36 0 .109.328.265.422.265.406 0 .203-.094.203-.031a.47.47 0 01-.047.187L.344-1.125c-.031.078-.031.172-.031.25 0 .547.687.953 1.093.953.188 0 .594-.11.813-.484.172-.313.36-.922.36-.953 0-.11-.329-.266-.345-.266-.125 0-.343.203-.39.36-.11.421-.047.796-.407.796-.234 0-.078-.047-.078-.25 0-.094.016-.25.047-.344L2.578-5.75c-.062.125-.047.016-.047.016zm0 0"/></svg><svg overflow="visible" x="218.477" y="35.488"><path d="M3.39-3.656c0-.11-.312-.266-.453-.266h-.562l.281-1.094c0-.03.031-.078.031-.109 0-.156-.328-.422-.5-.422-.218 0-.546.297-.609.516-.047.203.063-.188-.281 1.11H.625c-.172 0-.484.155-.484.343 0 .11.312.265.468.265h.532L.687-1.484c-.046.203-.125.5-.125.609 0 .5.641.953 1.11.953.937 0 1.672-1.328 1.672-1.437 0-.11-.328-.266-.344-.266-.11 0-.313.172-.39.313-.235.53-.454.843-.907.843-.172 0-.094.047-.094-.25 0-.078.047-.265.063-.344l.562-2.25h.688c.156 0 .469-.156.469-.343zm0 0"/></svg><svg overflow="visible" x="222.092" y="35.488"><path d="M4.36-1.016c0-.062-.298-.312-.36-.312a.676.676 0 00-.281.14c-.656.766-1.485.72-1.64.72-.5 0-.626-.173-.626-.86 0-.11 0-.281.063-.578h.359c.234 0 .89-.016 1.344-.172.625-.219.953-.781.953-1.031 0-.47-.672-.907-1.25-.907-1 0-2.563.938-2.563 2.36 0 .86.735 1.734 1.704 1.734 1.421 0 2.296-.984 2.296-1.094zm-.97-2.093c0 .812-1.203.64-1.562.64h-.156c.297-1.047 1.016-.984 1.25-.984.375 0 .469.015.469.344zm0 0"/></svg><svg overflow="visible" x="226.628" y="35.488"><path d="M4.5-3.234c0-.438-.672-.782-1.094-.782-.437 0-.969.235-1.094.375-.03-.125-.75-.375-.953-.375-.312 0-.671.25-.812.485-.188.328-.36.922-.36.953 0 .11.329.281.344.281.125 0 .344-.187.39-.422.141-.5.079-.734.407-.734.219 0 .078.015.078.25 0 .156-.078.469-.14.687l-.188.75L.812-.687c-.03.109-.078.312-.078.343 0 .188.36.422.485.422s.5-.234.578-.39c.016-.063.11-.422.156-.641l.219-.89c.015-.063.203-.813.219-.86.015-.063.203-.36.468-.563.094-.062.172-.187.532-.187.078 0 .14-.047.062-.094.125-.031-.172.36-.172.5 0 .188.344.469.531.469.204 0 .688-.313.688-.656zm0 0"/></svg><svg overflow="visible" x="231.147" y="35.488"><path d="M8.297-1.36c0-.109-.328-.265-.344-.265-.125 0-.344.203-.375.297-.187.672-.344.86-.672.86-.187 0 0 .046 0-.141 0-.188.032-.297.188-.672.093-.266.437-1.14.437-1.61 0-.14-.062-.609-.375-.843-.14-.11-.515-.282-.922-.282-.75 0-1.359.547-1.625.907L4.97-3c-.063-.719-.875-1.016-1.297-1.016-.703 0-1.313.485-1.563.813l.36.11c-.063-.579-.766-.923-1.11-.923-.359 0-.703.313-.812.5-.188.313-.36.907-.36.938 0 .11.329.281.344.281.125 0 .344-.187.39-.422.141-.484.079-.734.407-.734.219 0 .078.015.078.25 0 .156-.078.469-.14.687l-.188.75L.812-.687c-.03.109-.078.312-.078.343 0 .188.36.422.485.422.156 0 .437-.14.468-.219.047-.078.188-.468.22-.64l.187-.75.14-.563c.094-.344.047-.297.282-.64.234-.329.484-.72 1.125-.72.484 0 .28.267.28.423 0 .203-.03.312-.14.781l-.36 1.406c-.03.172-.108.453-.108.5 0 .188.359.422.484.422.156 0 .437-.14.469-.219.046-.078.187-.468.218-.64l.188-.75c.047-.188.11-.375.14-.563.094-.36.032-.265.204-.515.265-.407.53-.844 1.187-.844.469 0 .281.219.281.422 0 .5-.359 1.437-.484 1.781-.094.234-.125.313-.125.453 0 .438.578.875 1 .875.844 0 1.422-1.312 1.422-1.437zm0 0"/></svg><svg overflow="visible" x="244.985" y="19.662"><path d="M2.484-3.125c0-.344-.468-.766-.828-.766-.343 0-.828.422-.828.766 0 .36.485.766.828.766.36 0 .828-.407.828-.766zm0 0"/></svg><svg overflow="visible" x="255.649" y="19.662"><path d="M8.344 10.969a.486.486 0 00-.14-.266C5.655 8.781 3.936 3.578 3.936-.89v-4.453c0-4.484 1.72-9.687 4.266-11.593a.486.486 0 00.14-.266c0-.11-.28-.344-.405-.344-.047 0-.235.063-.282.078-2.64 2-5.156 7.422-5.156 12.125V-.89c0 4.688 2.516 10.125 5.156 12.11a.993.993 0 00.282.094c.125 0 .406-.235.406-.344zm0 0"/></svg><svg overflow="visible" x="265.644" y="11.568"><path d="M4.156 2.719c0-.047-.078-.172-.11-.203-1.234-.922-2-3.22-2-5.141v-1c0-1.906.767-4.203 2-5.14a.457.457 0 00.11-.188c0-.063-.25-.25-.312-.25a1.01 1.01 0 00-.203.062C2.312-8.156 1-5.67 1-3.625v1C1-.578 2.313 1.906 3.64 2.906c.016.016.188.063.204.063.062 0 .312-.203.312-.25zm0 0"/></svg><svg overflow="visible" x="270.295" y="11.568"><path d="M6.266-4.656c0-.36-.47-.89-1-.89-.344 0-1.032.124-1.891 1.093-.406.453-.734.89-.938.969l1.188-4.813-.063.094s-.124-.36-.28-.36c-.282 0-1.157.094-1.47.126-.093.015-.421.156-.421.374 0 .141.312.266.484.266.578 0 .39-.047.39.078l-.03.235L.5-.594c-.047.156-.047.188-.047.266 0 .266.438.453.547.453.156 0 .469-.14.547-.281.062-.11.656-2.406.687-2.563.25.016 1.032.078 1.032.86 0 .093 0 .14-.032.25-.03.156-.062.296-.062.421 0 .704.687 1.313 1.312 1.313.36 0 .813-.219 1.079-.656.296-.531.421-1.219.421-1.219l.063-.094c0-.11-.297-.25-.328-.25-.125 0-.344.188-.375.344C5.109-.875 5.03-.39 4.5-.39c-.219 0-.188 0-.188-.438 0-.203.047-.469.094-.672.047-.203.047-.25.047-.36 0-.78-.937-1.265-1.531-1.343.078-.031.453-.422.734-.703.578-.64 1-1.11 1.578-1.11.079 0-.062-.046.016 0 .234.032.11 0 .203.063.016.016.016.031-.172-.156-.218.015-.531.609-.531.765 0 .188.344.547.672.547.297 0 .844-.406.844-.86zm0 0"/></svg><svg overflow="visible" x="279.357" y="11.568"><path d="M8.828-3.125c0-.125-.312-.36-.437-.36H.906c-.125 0-.437.235-.437.36 0 .14.312.375.437.375h7.485c.125 0 .437-.234.437-.375zm0 0"/></svg><svg overflow="visible" x="291.312" y="11.568"><path d="M3.578-7.61c0-.234-.344-.546-.625-.546-.328 0-.844.437-.844.75 0 .234.36.562.657.562.265 0 .812-.406.812-.765zm.11 5.766c0-.11-.297-.25-.329-.25-.125 0-.328.172-.39.344-.203.766-.406 1.36-1.016 1.36-.203 0-.094.015-.094-.266 0-.297.079-.469.36-1.203l.453-1.25c.156-.344.156-.375.265-.688.094-.25.157-.406.157-.64 0-.532-.578-1.11-1.172-1.11C.797-5.547.14-3.687.14-3.578c0 .125.484.219.484.219l-.14.03c.124 0 .328-.155.39-.343.313-1.125.61-1.344 1.016-1.344.093 0 .093-.14.093.25 0 .25-.078.5-.125.625-.109.297-.64 1.688-.828 2.204-.125.312-.281.703-.281.953 0 .562.61 1.109 1.188 1.109 1.125 0 1.75-1.86 1.75-1.969zm0 0"/></svg><svg overflow="visible" x="295.436" y="11.568"><path d="M3.64-2.625v-1c0-2.047-1.328-4.531-2.64-5.516a.774.774 0 00-.203-.062c-.063 0-.313.187-.313.25 0 .031.079.172.094.187 1.25.938 2.016 3.235 2.016 5.141v1c0 1.922-.766 4.219-2.016 5.14-.015.032-.094.157-.094.204 0 .047.25.25.313.25A.774.774 0 001 2.906c1.313-1 2.64-3.484 2.64-5.531zm0 0"/></svg><svg overflow="visible" x="302.741" y="11.568"><path d="M2.484-3.125c0-.344-.468-.766-.828-.766-.343 0-.828.422-.828.766 0 .36.485.766.828.766.36 0 .828-.407.828-.766zm0 0"/></svg><svg overflow="visible" x="308.719" y="11.568"><path d="M8.453-4.578c0-.656-.515-.969-.719-.969-.296 0-.796.438-.796.703 0 .157.125.328.234.422.125.125.375.344.375.922 0 .406-.297 1.484-.61 2.094l-.046.093c-.313.625-.532.922-1.125.922-.547 0-.688-.234-.688-.906 0-.344.078-.719.14-.875l.5-2.015c.048-.266.173-.704.173-.766 0-.219-.36-.469-.532-.469-.14 0-.562.234-.656.469-.031.094-.594 2.375-.672 2.687-.093.36-.11.563-.11.782 0 .14 0 .156.017.218-.282.625-.438.875-.907.875-.953 0-.765-.75-.765-.953 0-.39.062-.86.625-2.328.14-.36.203-.531.203-.765 0-.532-.578-1.11-1.172-1.11C.782-5.547.14-3.687.14-3.578c0 .125.484.219.484.219l-.14.03c.124 0 .328-.155.39-.343.313-1.11.594-1.344 1.016-1.344.109 0 .093-.125.093.266 0 .297-.125.625-.218.828-.516 1.406-.672 1.969-.672 2.422C1.094-.422 2.109.125 3 .125c.203 0 .89-.031 1.203-.563.14.36 1.172.563 1.531.563.907 0 1.61-.875 1.922-1.594.407-.937.797-2.531.797-3.11zm0 0"/></svg><svg overflow="visible" x="317.29" y="14.521"><path d="M2.922-5.39c0-.141-.313-.485-.547-.485-.219 0-.672.375-.672.625 0 .14.313.469.547.469.234 0 .672-.39.672-.61zm.219 4.03c0-.109-.313-.265-.344-.265-.11 0-.328.203-.375.297-.188.672-.344.86-.672.86-.172 0 0 .046 0-.141 0-.188.063-.344.14-.532l.266-.671.406-1.063a.794.794 0 00.047-.266c0-.39-.546-.875-1-.875-.828 0-1.421 1.297-1.421 1.438 0 .11.328.281.343.281.125 0 .344-.203.36-.297.218-.719.375-.86.687-.86.14 0 0-.093 0 .126 0 .203-.047.328-.25.844L.797-1.141c-.031.11-.078.22-.078.36 0 .39.547.86 1 .86.843 0 1.422-1.313 1.422-1.438zm0 0"/></svg><svg overflow="visible" x="323.826" y="11.568"><path d="M8.828-3.125c0-.125-.312-.36-.437-.36H5.078v-3.374c0-.141-.297-.375-.422-.375-.14 0-.453.234-.453.375v3.375H.906c-.125 0-.437.234-.437.359 0 .14.312.375.437.375h3.297V.625c0 .125.313.36.453.36.125 0 .422-.235.422-.36V-2.75h3.313c.125 0 .437-.234.437-.375zm0 0"/></svg><svg overflow="visible" x="335.781" y="11.568"><path d="M3.578-7.61c0-.234-.344-.546-.625-.546-.328 0-.844.437-.844.75 0 .234.36.562.657.562.265 0 .812-.406.812-.765zm.11 5.766c0-.11-.297-.25-.329-.25-.125 0-.328.172-.39.344-.203.766-.406 1.36-1.016 1.36-.203 0-.094.015-.094-.266 0-.297.079-.469.36-1.203l.453-1.25c.156-.344.156-.375.265-.688.094-.25.157-.406.157-.64 0-.532-.578-1.11-1.172-1.11C.797-5.547.14-3.687.14-3.578c0 .125.484.219.484.219l-.14.03c.124 0 .328-.155.39-.343.313-1.125.61-1.344 1.016-1.344.093 0 .093-.14.093.25 0 .25-.078.5-.125.625-.109.297-.64 1.688-.828 2.204-.125.312-.281.703-.281.953 0 .562.61 1.109 1.188 1.109 1.125 0 1.75-1.86 1.75-1.969zm0 0"/></svg><svg overflow="visible" x="342.56" y="11.568"><path d="M2.484-3.125c0-.344-.468-.766-.828-.766-.343 0-.828.422-.828.766 0 .36.485.766.828.766.36 0 .828-.407.828-.766zm0 0"/></svg><svg overflow="visible" x="348.537" y="11.568"><path d="M8.453-4.578c0-.656-.515-.969-.719-.969-.296 0-.796.438-.796.703 0 .157.125.328.234.422.125.125.375.344.375.922 0 .406-.297 1.484-.61 2.094l-.046.093c-.313.625-.532.922-1.125.922-.547 0-.688-.234-.688-.906 0-.344.078-.719.14-.875l.5-2.015c.048-.266.173-.704.173-.766 0-.219-.36-.469-.532-.469-.14 0-.562.234-.656.469-.031.094-.594 2.375-.672 2.687-.093.36-.11.563-.11.782 0 .14 0 .156.017.218-.282.625-.438.875-.907.875-.953 0-.765-.75-.765-.953 0-.39.062-.86.625-2.328.14-.36.203-.531.203-.765 0-.532-.578-1.11-1.172-1.11C.782-5.547.14-3.687.14-3.578c0 .125.484.219.484.219l-.14.03c.124 0 .328-.155.39-.343.313-1.11.594-1.344 1.016-1.344.109 0 .093-.125.093.266 0 .297-.125.625-.218.828-.516 1.406-.672 1.969-.672 2.422C1.094-.422 2.109.125 3 .125c.203 0 .89-.031 1.203-.563.14.36 1.172.563 1.531.563.907 0 1.61-.875 1.922-1.594.407-.937.797-2.531.797-3.11zm0 0"/></svg><svg overflow="visible" x="357.106" y="14.521"><path d="M2.922-5.39c0-.141-.313-.485-.547-.485-.219 0-.672.375-.672.625 0 .14.313.469.547.469.234 0 .672-.39.672-.61zm.219 4.03c0-.109-.313-.265-.344-.265-.11 0-.328.203-.375.297-.188.672-.344.86-.672.86-.172 0 0 .046 0-.141 0-.188.063-.344.14-.532l.266-.671.406-1.063a.794.794 0 00.047-.266c0-.39-.546-.875-1-.875-.828 0-1.421 1.297-1.421 1.438 0 .11.328.281.343.281.125 0 .344-.203.36-.297.218-.719.375-.86.687-.86.14 0 0-.093 0 .126 0 .203-.047.328-.25.844L.797-1.141c-.031.11-.078.22-.078.36 0 .39.547.86 1 .86.843 0 1.422-1.313 1.422-1.438zm0 0"/></svg><svg overflow="visible" x="360.487" y="14.521"><path d="M6.25-2.25c0-.094-.281-.328-.375-.328H.641c-.094 0-.375.234-.375.328s.28.328.375.328h5.234c.094 0 .375-.234.375-.328zm0 0"/></svg><svg overflow="visible" x="366.998" y="14.521"><path d="M4.172-.156v-.469H3.64c-.829 0-.625.063-.625-.219v-4.64c0-.235-.235-.391-.563-.391-.578.578-1.203.531-1.75.531v.625c.406 0 1.11-.047 1.219-.11v3.985c0 .281.203.219-.625.219H.766v.64L2.469-.03l1.703.047zm0 0"/></svg><path d="M265.645 16.672h106.613" fill="none" stroke-width=".478" stroke="#000" stroke-miterlimit="10"/><g><svg overflow="visible" x="315.746" y="27.864"><path d="M6.266-4.656c0-.36-.47-.89-1-.89-.344 0-1.032.124-1.891 1.093-.406.453-.734.89-.938.969l1.188-4.813-.063.094s-.124-.36-.28-.36c-.282 0-1.157.094-1.47.126-.093.015-.421.156-.421.374 0 .141.312.266.484.266.578 0 .39-.047.39.078l-.03.235L.5-.594c-.047.156-.047.188-.047.266 0 .266.438.453.547.453.156 0 .469-.14.547-.281.062-.11.656-2.406.687-2.563.25.016 1.032.078 1.032.86 0 .093 0 .14-.032.25-.03.156-.062.296-.062.421 0 .704.687 1.313 1.312 1.313.36 0 .813-.219 1.079-.656.296-.531.421-1.219.421-1.219l.063-.094c0-.11-.297-.25-.328-.25-.125 0-.344.188-.375.344C5.109-.875 5.03-.39 4.5-.39c-.219 0-.188 0-.188-.438 0-.203.047-.469.094-.672.047-.203.047-.25.047-.36 0-.78-.937-1.265-1.531-1.343.078-.031.453-.422.734-.703.578-.64 1-1.11 1.578-1.11.079 0-.062-.046.016 0 .234.032.11 0 .203.063.016.016.016.031-.172-.156-.218.015-.531.609-.531.765 0 .188.344.547.672.547.297 0 .844-.406.844-.86zm0 0"/></svg></g><g><svg overflow="visible" x="373.453" y="19.662"><path d="M6.281-.89v-4.454c0-4.703-2.5-10.125-5.156-12.125a1.32 1.32 0 00-.266-.078c-.125 0-.421.235-.421.344 0 .078.093.234.14.265 2.547 1.907 4.266 7.11 4.266 11.594V-.89c0 4.47-1.719 9.672-4.266 11.594a.486.486 0 00-.14.266c0 .11.296.344.421.344a.77.77 0 00.266-.094C3.781 9.234 6.281 3.797 6.281-.891zm0 0"/></svg></g><g><svg overflow="visible" x="253.656" y="30.971"><path d="M12.172 3.375V2.031H6.094C3.359 2.031.875 1.766.484.72.47.656.234.484.156.484c-.078 0-.36.204-.36.282 0 .015.063.14.032.125.406 1.093 3.235 2.625 6.266 2.625h6.078zm0 0"/></svg></g><g><svg overflow="visible" x="264.667" y="30.971"><path d="M12.078 3.375V2.031H-.203v1.485h12.281zm0 0"/></svg></g><g><svg overflow="visible" x="274.805" y="30.971"><path d="M12.078 3.375V2.031H-.203v1.485h12.281zm0 0"/></svg></g><g><svg overflow="visible" x="284.943" y="30.971"><path d="M12.078 3.375V2.031H-.203v1.485h12.281zm0 0"/></svg></g><g><svg overflow="visible" x="295.081" y="30.971"><path d="M12.078 3.375V2.031H-.203v1.485h12.281zm0 0"/></svg></g><g><svg overflow="visible" x="305.996" y="30.971"><path d="M23.938 2.031h-6.032c-2.984 0-5.468 1.094-5.937 1.906C11.484 3.125 9 2.032 6.03 2.032H-.203v1.485H6.03c3.094 0 5.578.218 5.578 1.25 0 .093.266.296.36.296.078 0 .344-.203.344-.296 0-1.032 2.484-1.25 5.593-1.25h6.235V2.03zm0 0"/></svg></g><g><svg overflow="visible" x="328.962" y="30.971"><path d="M12.078 3.375V2.031H-.203v1.485h12.281zm0 0"/></svg></g><g><svg overflow="visible" x="339.1" y="30.971"><path d="M12.078 3.375V2.031H-.203v1.485h12.281zm0 0"/></svg></g><g><svg overflow="visible" x="349.238" y="30.971"><path d="M12.078 3.375V2.031H-.203v1.485h12.281zm0 0"/></svg></g><g><svg overflow="visible" x="359.388" y="30.971"><path d="M12.078 3.375V2.031H-.203v1.485h12.281zm0 0"/></svg></g><g><svg overflow="visible" x="370.291" y="30.971"><path d="M12.156.766c0-.079-.265-.282-.344-.282-.078 0-.328.172-.343.235-.39 1.047-2.86 1.312-5.594 1.312H-.203v1.485h6.078c3.031 0 5.844-1.532 6.25-2.625-.031.015.031-.11.031-.125zm0 0"/></svg></g><g><svg overflow="visible" x="290.69" y="43.833"><path d="M5.719-1.36c0-.109-.313-.265-.344-.265-.11 0-.328.203-.36.297-.202.672-.343.86-.687.86-.172 0 0 .046 0-.141 0-.188.047-.297.188-.672.109-.266.453-1.14.453-1.61 0-.812-.86-1.125-1.297-1.125-.703 0-1.313.485-1.563.813l.36.11c-.063-.579-.766-.923-1.11-.923-.359 0-.703.313-.812.5-.188.313-.36.907-.36.938 0 .11.329.281.344.281.125 0 .344-.187.39-.422.141-.484.079-.734.407-.734.219 0 .078.015.078.25 0 .156-.078.469-.14.687l-.188.75L.812-.687c-.03.109-.078.312-.078.343 0 .188.36.422.485.422.156 0 .437-.14.468-.219.047-.078.188-.468.22-.64l.187-.75.14-.563c.094-.344.047-.297.282-.64.234-.329.484-.72 1.125-.72.484 0 .28.267.28.423 0 .5-.358 1.437-.5 1.781-.093.234-.124.313-.124.453 0 .438.578.875 1.015.875.829 0 1.407-1.312 1.407-1.437zm0 0"/></svg><svg overflow="visible" x="296.598" y="43.833"><path d="M4.36-1.016c0-.062-.298-.312-.36-.312a.676.676 0 00-.281.14c-.656.766-1.485.72-1.64.72-.5 0-.626-.173-.626-.86 0-.11 0-.281.063-.578h.359c.234 0 .89-.016 1.344-.172.625-.219.953-.781.953-1.031 0-.47-.672-.907-1.25-.907-1 0-2.563.938-2.563 2.36 0 .86.735 1.734 1.704 1.734 1.421 0 2.296-.984 2.296-1.094zm-.97-2.093c0 .812-1.203.64-1.562.64h-.156c.297-1.047 1.016-.984 1.25-.984.375 0 .469.015.469.344zm0 0"/></svg><svg overflow="visible" x="301.134" y="43.833"><path d="M6.734-3.203a.821.821 0 00-.625-.813c-.218 0-.656.375-.656.594 0 .14.14.328.203.375.203.172.25.297.25.563 0 .109-.14 2.015-1.203 2.015-.687 0-.469-.437-.469-.594 0-.218.032-.359.141-.828l.234-.937c.063-.235.172-.625.172-.672 0-.172-.343-.422-.5-.422-.156 0-.515.25-.562.39-.031.079-.11.423-.172.641-.11.47-.11.485-.235.954-.109.468-.124.53-.14.765.031.172.031.219-.172.484-.11.125-.125.22-.406.22-.328 0-.547.046-.547-.61 0-.422.234-1.047.406-1.469.14-.375.172-.453.172-.594 0-.406-.563-.875-1.016-.875-.843 0-1.421 1.297-1.421 1.438 0 .11.328.281.343.281.125 0 .344-.203.36-.297.218-.703.359-.86.703-.86.14 0 0-.077 0 .126s-.078.375-.125.484C1-1.609 1-1.454 1-1.188 1-.203 2.11.079 2.547.079c.172 0 .719-.031.922-.36.078.141.687.36 1.203.36.734 0 1.312-.797 1.594-1.375.187-.36.468-1.516.468-1.906zm0 0"/></svg></g><g><svg overflow="visible" x="311.938" y="43.833"><path d="M6.734-3.203a.821.821 0 00-.625-.813c-.218 0-.656.375-.656.594 0 .14.14.328.203.375.203.172.25.297.25.563 0 .109-.14 2.015-1.203 2.015-.687 0-.469-.437-.469-.594 0-.218.032-.359.141-.828l.234-.937c.063-.235.172-.625.172-.672 0-.172-.343-.422-.5-.422-.156 0-.515.25-.562.39-.031.079-.11.423-.172.641-.11.47-.11.485-.235.954-.109.468-.124.53-.14.765.031.172.031.219-.172.484-.11.125-.125.22-.406.22-.328 0-.547.046-.547-.61 0-.422.234-1.047.406-1.469.14-.375.172-.453.172-.594 0-.406-.563-.875-1.016-.875-.843 0-1.421 1.297-1.421 1.438 0 .11.328.281.343.281.125 0 .344-.203.36-.297.218-.703.359-.86.703-.86.14 0 0-.077 0 .126s-.078.375-.125.484C1-1.609 1-1.454 1-1.188 1-.203 2.11.079 2.547.079c.172 0 .719-.031.922-.36.078.141.687.36 1.203.36.734 0 1.312-.797 1.594-1.375.187-.36.468-1.516.468-1.906zm0 0"/></svg><svg overflow="visible" x="318.85" y="43.833"><path d="M4.36-1.016c0-.062-.298-.312-.36-.312a.676.676 0 00-.281.14c-.656.766-1.485.72-1.64.72-.5 0-.626-.173-.626-.86 0-.11 0-.281.063-.578h.359c.234 0 .89-.016 1.344-.172.625-.219.953-.781.953-1.031 0-.47-.672-.907-1.25-.907-1 0-2.563.938-2.563 2.36 0 .86.735 1.734 1.704 1.734 1.421 0 2.296-.984 2.296-1.094zm-.97-2.093c0 .812-1.203.64-1.562.64h-.156c.297-1.047 1.016-.984 1.25-.984.375 0 .469.015.469.344zm0 0"/></svg><svg overflow="visible" x="323.386" y="43.833"><path d="M2.922-5.39c0-.141-.313-.485-.547-.485-.219 0-.672.375-.672.625 0 .14.313.469.547.469.234 0 .672-.39.672-.61zm.219 4.03c0-.109-.313-.265-.344-.265-.11 0-.328.203-.375.297-.188.672-.344.86-.672.86-.172 0 0 .046 0-.141 0-.188.063-.344.14-.532l.266-.671.406-1.063a.794.794 0 00.047-.266c0-.39-.546-.875-1-.875-.828 0-1.421 1.297-1.421 1.438 0 .11.328.281.343.281.125 0 .344-.203.36-.297.218-.719.375-.86.687-.86.14 0 0-.093 0 .126 0 .203-.047.328-.25.844L.797-1.141c-.031.11-.078.22-.078.36 0 .39.547.86 1 .86.843 0 1.422-1.313 1.422-1.438zm0 0"/></svg><svg overflow="visible" x="326.767" y="43.833"><path d="M4.703-3.422c0-.187-.36-.437-.5-.437-.187 0-.562.328-.594.484l.36-.11c-.156-.218-.578-.53-1.016-.53C1.906-4.016.61-2.736.61-1.532.61-.671 1.406 0 2.08 0c.39 0 .905-.234 1.202-.5l-.36-.11c-.14.532-.046.22-.187.75-.093.36-.093.47-.406.75-.375.313-.578.266-.781.266-.39 0-.5-.031-.656-.062v.328c.218-.11.484-.469.484-.578C1.375.64 1 .375.844.375c-.235 0-.688.344-.688.656 0 .516.922.672 1.39.672C2.86 1.703 3.642.875 3.75.406l.922-3.656c.031-.125-.047-.063-.047-.063zm-.86.64s-.343-.093-.374 0l-.375 1.516c-.031.125.015.032-.125.188-.281.36-.547.531-.86.531-.421 0-.421-.203-.421-.64 0-.375.156-1.188.375-1.563.359-.578.609-.703.89-.703.594 0 .547.469.547.547zm0 0"/></svg></g><g><svg overflow="visible" x="331.487" y="43.833"><path d="M5.406-1.36c0-.109-.328-.265-.343-.265-.125 0-.344.203-.375.297-.188.672-.344.86-.672.86-.188 0 0 .046 0-.141 0-.188.03-.297.187-.672.11-.266.438-1.14.438-1.61 0-.14-.063-.609-.375-.843-.141-.11-.516-.282-.922-.282-.61 0-1.203.391-1.516.75l.36.11.64-2.594c-.062.125-.031.016-.031.016l.062-.125c0-.032-.234-.266-.343-.266-.157 0-.86.063-1.063.078-.078.016-.39.172-.39.36 0 .109.312.265.421.265.407 0 .188-.094.188-.031 0 .062-.016.11-.031.187L.453-.53c-.031.156.313.312.313.312L.422-.344c0 .125.312.422.484.422.094 0 .406-.078.5-.25.016-.047.157-.469.203-.656l.188-.735.14-.578c.079-.312.016-.203.188-.468.266-.407.531-.844 1.188-.844.468 0 .28.219.28.422 0 .5-.359 1.437-.484 1.781-.093.234-.125.313-.125.453 0 .438.579.875 1 .875.844 0 1.422-1.312 1.422-1.437zm0 0"/></svg><svg overflow="visible" x="337.086" y="43.833"><path d="M3.39-3.656c0-.11-.312-.266-.453-.266h-.562l.281-1.094c0-.03.031-.078.031-.109 0-.156-.328-.422-.5-.422-.218 0-.546.297-.609.516-.047.203.063-.188-.281 1.11H.625c-.172 0-.484.155-.484.343 0 .11.312.265.468.265h.532L.687-1.484c-.046.203-.125.5-.125.609 0 .5.641.953 1.11.953.937 0 1.672-1.328 1.672-1.437 0-.11-.328-.266-.344-.266-.11 0-.313.172-.39.313-.235.53-.454.843-.907.843-.172 0-.094.047-.094-.25 0-.078.047-.265.063-.344l.562-2.25h.688c.156 0 .469-.156.469-.343zm0 0"/></svg><svg overflow="visible" x="340.701" y="43.833"><path d="M4.14-3.125c0-.547-.812-.89-1.312-.89-1.312 0-1.75 1.124-1.75 1.39 0 .313.234.625.344.719.219.172.516.25 1.094.343.187.032.5-.015.5.391 0 .156-.032.36-.375.563-.329.187-.594.14-.688.14-.344 0-.672-.031-.703-.062-.031 0 .36-.375.36-.61 0-.203-.36-.468-.532-.468-.234 0-.687.359-.687.718 0 .5.734.97 1.546.97 1.547 0 2.047-1.204 2.047-1.532 0-.781-1.062-1.078-1.375-1.14-.078-.016-.28-.048-.328-.063-.312-.063-.25-.078-.25-.266 0-.187.078-.297.266-.422.219-.14.375-.11.515-.11.172 0 .47-.015.516.048.063-.016-.281.328-.281.484 0 .203.375.438.484.438.094 0 .61-.22.61-.641zm0 0"/></svg></g><g><svg overflow="visible" x="385.753" y="19.662"><path d="M2.625-.14c0-.797-.5-1.391-.969-1.391-.39 0-.828.437-.828.765 0 .329.438.766.828.766.157 0 .438-.078.563-.188l.047-.046s-.313-.078-.313.093c0 .875-.344 1.5-.75 1.891-.125.14-.187.266-.187.297 0 .078.265.265.328.265.125 0 1.281-1.062 1.281-2.453zm0 0"/></svg></g><g><svg overflow="visible" x="394.564" y="19.662"><path d="M8.453-4.578c0-.656-.515-.969-.719-.969-.296 0-.796.438-.796.703 0 .157.125.328.234.422.125.125.375.344.375.922 0 .406-.297 1.484-.61 2.094l-.046.093c-.313.625-.532.922-1.125.922-.547 0-.688-.234-.688-.906 0-.344.078-.719.14-.875l.5-2.015c.048-.266.173-.704.173-.766 0-.219-.36-.469-.532-.469-.14 0-.562.234-.656.469-.031.094-.594 2.375-.672 2.687-.093.36-.11.563-.11.782 0 .14 0 .156.017.218-.282.625-.438.875-.907.875-.953 0-.765-.75-.765-.953 0-.39.062-.86.625-2.328.14-.36.203-.531.203-.765 0-.532-.578-1.11-1.172-1.11C.782-5.547.14-3.687.14-3.578c0 .125.484.219.484.219l-.14.03c.124 0 .328-.155.39-.343.313-1.11.594-1.344 1.016-1.344.109 0 .093-.125.093.266 0 .297-.125.625-.218.828-.516 1.406-.672 1.969-.672 2.422C1.094-.422 2.109.125 3 .125c.203 0 .89-.031 1.203-.563.14.36 1.172.563 1.531.563.907 0 1.61-.875 1.922-1.594.407-.937.797-2.531.797-3.11zm0 0"/></svg></g><g><svg overflow="visible" x="403.16" y="19.662"><path d="M3.578-7.61c0-.234-.344-.546-.625-.546-.328 0-.844.437-.844.75 0 .234.36.562.657.562.265 0 .812-.406.812-.765zm.11 5.766c0-.11-.297-.25-.329-.25-.125 0-.328.172-.39.344-.203.766-.406 1.36-1.016 1.36-.203 0-.094.015-.094-.266 0-.297.079-.469.36-1.203l.453-1.25c.156-.344.156-.375.265-.688.094-.25.157-.406.157-.64 0-.532-.578-1.11-1.172-1.11C.797-5.547.14-3.687.14-3.578c0 .125.484.219.484.219l-.14.03c.124 0 .328-.155.39-.343.313-1.125.61-1.344 1.016-1.344.093 0 .093-.14.093.25 0 .25-.078.5-.125.625-.109.297-.64 1.688-.828 2.204-.125.312-.281.703-.281.953 0 .562.61 1.109 1.188 1.109 1.125 0 1.75-1.86 1.75-1.969zm0 0"/></svg><svg overflow="visible" x="407.284" y="19.662"><path d="M4.14-5.156c0-.125-.312-.266-.53-.266H2.78c.39-1.562.453-1.797.453-1.875 0-.203-.328-.453-.53-.453-.032 0-.579.14-.688.563l-.422 1.765H.64c-.25 0-.563.14-.563.36 0 .156.297.28.531.28h.813C.594-1.515.547-1.311.547-1.093c0 .64.656 1.219 1.312 1.219 1.22 0 2.079-1.875 2.079-1.969 0-.11-.282-.25-.329-.25-.109 0-.328.172-.375.297C2.72-.547 2.281-.39 1.875-.39c-.25 0-.172-.03-.172-.421 0-.282.016-.375.063-.579l.859-3.39h.953c.25 0 .563-.125.563-.375zm0 0"/></svg><svg overflow="visible" x="411.6" y="19.662"><path d="M6.719-1.844c0-.11-.297-.25-.328-.25-.125 0-.329.172-.391.344-.172.64-.36 1.36-1.016 1.36-.203 0-.093.015-.093-.266 0-.297.109-.594.218-.844.188-.516.72-1.938.72-2.64 0-.766-.673-1.407-1.563-1.407-.75 0-1.47.406-1.907.953l.329.094.937-3.797-.063.094s-.124-.36-.28-.36c-.282 0-1.157.094-1.47.126-.093.015-.421.156-.421.374 0 .141.312.266.484.266.578 0 .39-.047.39.078l-.03.235L.5-.594c-.047.156-.047.188-.047.266 0 .266.438.453.547.453.188 0 .578-.266.64-.438l.22-.906.265-1.078c.078-.265.14-.531.203-.797.031-.078.125-.469.14-.547.032-.093.345-.671.75-1 .266-.187.5-.375 1.016-.375s.438.266.438.704c0 .64-.453 1.953-.734 2.671-.094.282-.157.422-.157.657 0 .562.625 1.109 1.172 1.109C6.078.125 6.72-1.75 6.72-1.844zm0 0"/></svg></g><g><svg overflow="visible" x="421.989" y="19.662"><path d="M6.266-4.656c0-.36-.47-.89-1-.89-.344 0-1.032.124-1.891 1.093-.406.453-.734.89-.938.969l1.188-4.813-.063.094s-.124-.36-.28-.36c-.282 0-1.157.094-1.47.126-.093.015-.421.156-.421.374 0 .141.312.266.484.266.578 0 .39-.047.39.078l-.03.235L.5-.594c-.047.156-.047.188-.047.266 0 .266.438.453.547.453.156 0 .469-.14.547-.281.062-.11.656-2.406.687-2.563.25.016 1.032.078 1.032.86 0 .093 0 .14-.032.25-.03.156-.062.296-.062.421 0 .704.687 1.313 1.312 1.313.36 0 .813-.219 1.079-.656.296-.531.421-1.219.421-1.219l.063-.094c0-.11-.297-.25-.328-.25-.125 0-.344.188-.375.344C5.109-.875 5.03-.39 4.5-.39c-.219 0-.188 0-.188-.438 0-.203.047-.469.094-.672.047-.203.047-.25.047-.36 0-.78-.937-1.265-1.531-1.343.078-.031.453-.422.734-.703.578-.64 1-1.11 1.578-1.11.079 0-.062-.046.016 0 .234.032.11 0 .203.063.016.016.016.031-.172-.156-.218.015-.531.609-.531.765 0 .188.344.547.672.547.297 0 .844-.406.844-.86zm0 0"/></svg></g><g><svg overflow="visible" x="431.721" y="19.662"><path d="M8.828-4.281c0-.125-.312-.375-.437-.375H.906c-.125 0-.437.25-.437.375 0 .14.312.375.437.375h7.485c.125 0 .437-.235.437-.375zm0 2.328c0-.14-.312-.375-.437-.375H.906c-.125 0-.437.234-.437.375 0 .125.312.36.437.36h7.485c.125 0 .437-.235.437-.36zm0 0"/></svg></g><g><svg overflow="visible" x="444.333" y="19.662"><path d="M7.016-1.844c0-.11-.297-.25-.329-.25-.125 0-.328.172-.39.344-.234.813-.422 1.36-1.016 1.36-.203 0-.093.015-.093-.266 0-.297.109-.594.218-.844.219-.64.719-1.953.719-2.64 0-.798-.703-1.407-1.563-1.407-1.078 0-1.796.797-2 1.078l.329.094c-.063-.672-.735-1.172-1.282-1.172-.562 0-.921.5-1.14.89C.313-4.327.14-3.624.14-3.577c0 .125.484.219.484.219l-.14.03c.124 0 .328-.14.406-.405.203-.844.25-1.282.671-1.282.25 0 .172.016.172.407 0 .265-.03.39-.187 1.015L.844-.844c-.031.188-.11.469-.11.516 0 .219.375.453.563.453.14 0 .547-.219.656-.547-.078.156.125-.5.203-.797l.266-1.078c.062-.265.14-.531.203-.797l.14-.594c.188-.374.626-1.328 1.766-1.328.532 0 .438.313.438.704 0 .734-.578 2.265-.766 2.78-.11.282-.125.423-.125.548 0 .562.625 1.109 1.188 1.109 1.125 0 1.75-1.875 1.75-1.969zm0 0"/></svg></g><g><svg overflow="visible" x="453.36" y="19.662"><path d="M8.828-3.125c0-.125-.312-.36-.437-.36H5.078v-3.374c0-.141-.297-.375-.422-.375-.14 0-.453.234-.453.375v3.375H.906c-.125 0-.437.234-.437.359 0 .14.312.375.437.375h3.297V.625c0 .125.313.36.453.36.125 0 .422-.235.422-.36V-2.75h3.313c.125 0 .437-.234.437-.375zm0 0"/></svg></g><g><svg overflow="visible" x="464.502" y="19.662"><path d="M5.203-.125v-.516h-.578c-1.078 0-.922 0-.922-.437v-6.703c0-.282-.187-.438-.578-.438-.766.797-1.672.766-2.266.766v.625c.438 0 1.282-.031 1.563-.172v5.922c0 .437.172.437-.906.437H.937v.672C1.547-.03 2.595-.03 3.079-.03c.469 0 1.516 0 2.125.062zm0 0"/></svg></g><g><svg overflow="visible" x="473.982" y="19.662"><path d="M6.14-1.844c0-.11-.296-.25-.327-.25-.125 0-.344.188-.375.344-.204.781-.22 1.36-.704 1.36-.328 0-.171-.188-.171-.422 0-.266.03-.36.156-.891l.265-1.063.438-1.687c.078-.328.078-.36.078-.406 0-.204-.344-.454-.547-.454-.281 0-.656.407-.703.657h.406c-.218-.438-.765-.89-1.297-.89-1.406 0-3.078 1.89-3.078 3.64 0 1.125.86 2.031 1.781 2.031.25 0 .97-.078 1.422-.61.032.094.657.61 1.22.61.421 0 .827-.297 1.015-.688l.062-.093c.203-.438.297-1.094.297-1.094zm-2.03-2.25c0 .063-.016.14-.032.203l-.594 2.344c-.062.203 0 .14-.187.344-.531.656-.875.812-1.203.812-.594 0-.578-.53-.578-1 0-.593.328-1.968.593-2.515.375-.703.782-1.11 1.266-1.11.766 0 .734.844.734.922zm0 0"/></svg><svg overflow="visible" x="480.307" y="19.662"><path d="M7.016-1.844c0-.11-.297-.25-.329-.25-.125 0-.328.172-.39.344-.234.813-.422 1.36-1.016 1.36-.203 0-.093.015-.093-.266 0-.297.109-.594.218-.844.219-.64.719-1.953.719-2.64 0-.798-.703-1.407-1.563-1.407-1.078 0-1.796.797-2 1.078l.329.094c-.063-.672-.735-1.172-1.282-1.172-.562 0-.921.5-1.14.89C.313-4.327.14-3.624.14-3.577c0 .125.484.219.484.219l-.14.03c.124 0 .328-.14.406-.405.203-.844.25-1.282.671-1.282.25 0 .172.016.172.407 0 .265-.03.39-.187 1.015L.844-.844c-.031.188-.11.469-.11.516 0 .219.375.453.563.453.14 0 .547-.219.656-.547-.078.156.125-.5.203-.797l.266-1.078c.062-.265.14-.531.203-.797l.14-.594c.188-.374.626-1.328 1.766-1.328.532 0 .438.313.438.704 0 .734-.578 2.265-.766 2.78-.11.282-.125.423-.125.548 0 .562.625 1.109 1.188 1.109 1.125 0 1.75-1.875 1.75-1.969zm0 0"/></svg><svg overflow="visible" x="487.48" y="19.662"><path d="M6.297-8.203s-.125-.36-.281-.36c-.188 0-1.313.11-1.516.141-.094 0-.375.203-.375.36 0 .14.313.265.484.265.579 0 .407-.047.407.078l-.047.235-.719 2.828h.406c-.218-.438-.765-.89-1.297-.89-1.406 0-3.078 1.89-3.078 3.64 0 1.125.86 2.031 1.781 2.031.25 0 .97-.078 1.422-.61.032.094.657.61 1.22.61.421 0 .827-.297 1.015-.688l.062-.093c.203-.438.297-1.094.297-1.094l.063-.094c0-.11-.297-.25-.329-.25-.125 0-.343.188-.375.344-.203.781-.218 1.36-.703 1.36-.328 0-.171-.188-.171-.422 0-.282.03-.375.078-.579l1.718-6.906zm-2.188 4.11c0 .062-.015.14-.03.202l-.595 2.344c-.062.203 0 .14-.187.344-.531.656-.875.812-1.203.812-.594 0-.578-.53-.578-1 0-.593.328-1.968.593-2.515.375-.703.782-1.11 1.266-1.11.766 0 .734.844.734.922zm0 0"/></svg></g><g><svg overflow="visible" x="497.486" y="19.662"><path d="M8.453-4.578c0-.656-.515-.969-.719-.969-.296 0-.796.438-.796.703 0 .157.125.328.234.422.125.125.375.344.375.922 0 .406-.297 1.484-.61 2.094l-.046.093c-.313.625-.532.922-1.125.922-.547 0-.688-.234-.688-.906 0-.344.078-.719.14-.875l.5-2.015c.048-.266.173-.704.173-.766 0-.219-.36-.469-.532-.469-.14 0-.562.234-.656.469-.031.094-.594 2.375-.672 2.687-.093.36-.11.563-.11.782 0 .14 0 .156.017.218-.282.625-.438.875-.907.875-.953 0-.765-.75-.765-.953 0-.39.062-.86.625-2.328.14-.36.203-.531.203-.765 0-.532-.578-1.11-1.172-1.11C.782-5.547.14-3.687.14-3.578c0 .125.484.219.484.219l-.14.03c.124 0 .328-.155.39-.343.313-1.11.594-1.344 1.016-1.344.109 0 .093-.125.093.266 0 .297-.125.625-.218.828-.516 1.406-.672 1.969-.672 2.422C1.094-.422 2.109.125 3 .125c.203 0 .89-.031 1.203-.563.14.36 1.172.563 1.531.563.907 0 1.61-.875 1.922-1.594.407-.937.797-2.531.797-3.11zm0 0"/></svg></g><g><svg overflow="visible" x="506.052" y="22.615"><path d="M2.922-5.39c0-.141-.313-.485-.547-.485-.219 0-.672.375-.672.625 0 .14.313.469.547.469.234 0 .672-.39.672-.61zm.219 4.03c0-.109-.313-.265-.344-.265-.11 0-.328.203-.375.297-.188.672-.344.86-.672.86-.172 0 0 .046 0-.141 0-.188.063-.344.14-.532l.266-.671.406-1.063a.794.794 0 00.047-.266c0-.39-.546-.875-1-.875-.828 0-1.421 1.297-1.421 1.438 0 .11.328.281.343.281.125 0 .344-.203.36-.297.218-.719.375-.86.687-.86.14 0 0-.093 0 .126 0 .203-.047.328-.25.844L.797-1.141c-.031.11-.078.22-.078.36 0 .39.547.86 1 .86.843 0 1.422-1.313 1.422-1.438zm0 0"/></svg><svg overflow="visible" x="509.433" y="22.615"><path d="M6.25-2.25c0-.094-.281-.328-.375-.328H.641c-.094 0-.375.234-.375.328s.28.328.375.328h5.234c.094 0 .375-.234.375-.328zm0 0"/></svg><svg overflow="visible" x="515.944" y="22.615"><path d="M4.172-.156v-.469H3.64c-.829 0-.625.063-.625-.219v-4.64c0-.235-.235-.391-.563-.391-.578.578-1.203.531-1.75.531v.625c.406 0 1.11-.047 1.219-.11v3.985c0 .281.203.219-.625.219H.766v.64L2.469-.03l1.703.047zm0 0"/></svg></g><g><svg overflow="visible" x="524.525" y="19.662"><path d="M8.828-4.281c0-.125-.312-.375-.437-.375H.906c-.125 0-.437.25-.437.375 0 .14.312.375.437.375h7.485c.125 0 .437-.235.437-.375zm0 2.328c0-.14-.312-.375-.437-.375H.906c-.125 0-.437.234-.437.375 0 .125.312.36.437.36h7.485c.125 0 .437-.235.437-.36zm0 0"/></svg></g><g><svg overflow="visible" x="537.138" y="19.662"><path d="M5.688-3.953c0-.953-.063-1.922-.47-2.797-.562-1.156-1.734-1.469-2.234-1.469-.718 0-1.796.438-2.28 1.547-.376.828-.438 1.766-.438 2.719 0 .89.109 2.062.593 2.969.516.968 1.532 1.25 2.11 1.25.656 0 1.75-.391 2.281-1.516.375-.828.438-1.766.438-2.703zm-1.391-.14c0 .89 0 1.702-.125 2.468C4-.485 3.516-.265 2.969-.265 2.516-.266 2-.438 1.78-1.579c-.125-.719-.125-1.813-.125-2.516 0-.765 0-1.562.094-2.203.219-1.422.922-1.406 1.219-1.406.406 0 .984.094 1.219 1.266.109.671.109 1.578.109 2.343zm0 0"/></svg></g><g><svg overflow="visible" x="546.618" y="19.662"><path d="M8.453-4.578c0-.656-.515-.969-.719-.969-.296 0-.796.438-.796.703 0 .157.125.328.234.422.125.125.375.344.375.922 0 .406-.297 1.484-.61 2.094l-.046.093c-.313.625-.532.922-1.125.922-.547 0-.688-.234-.688-.906 0-.344.078-.719.14-.875l.5-2.015c.048-.266.173-.704.173-.766 0-.219-.36-.469-.532-.469-.14 0-.562.234-.656.469-.031.094-.594 2.375-.672 2.687-.093.36-.11.563-.11.782 0 .14 0 .156.017.218-.282.625-.438.875-.907.875-.953 0-.765-.75-.765-.953 0-.39.062-.86.625-2.328.14-.36.203-.531.203-.765 0-.532-.578-1.11-1.172-1.11C.782-5.547.14-3.687.14-3.578c0 .125.484.219.484.219l-.14.03c.124 0 .328-.155.39-.343.313-1.11.594-1.344 1.016-1.344.109 0 .093-.125.093.266 0 .297-.125.625-.218.828-.516 1.406-.672 1.969-.672 2.422C1.094-.422 2.109.125 3 .125c.203 0 .89-.031 1.203-.563.14.36 1.172.563 1.531.563.907 0 1.61-.875 1.922-1.594.407-.937.797-2.531.797-3.11zm0 0"/></svg></g><g><svg overflow="visible" x="555.214" y="19.662"><path d="M6.719-1.844c0-.11-.297-.25-.328-.25-.125 0-.329.172-.391.344-.172.64-.36 1.36-1.016 1.36-.203 0-.093.015-.093-.266 0-.297.109-.594.218-.844.188-.516.72-1.938.72-2.64 0-.766-.673-1.407-1.563-1.407-.75 0-1.47.406-1.907.953l.329.094.937-3.797-.063.094s-.124-.36-.28-.36c-.282 0-1.157.094-1.47.126-.093.015-.421.156-.421.374 0 .141.312.266.484.266.578 0 .39-.047.39.078l-.03.235L.5-.594c-.047.156-.047.188-.047.266 0 .266.438.453.547.453.188 0 .578-.266.64-.438l.22-.906.265-1.078c.078-.265.14-.531.203-.797.031-.078.125-.469.14-.547.032-.093.345-.671.75-1 .266-.187.5-.375 1.016-.375s.438.266.438.704c0 .64-.453 1.953-.734 2.671-.094.282-.157.422-.157.657 0 .562.625 1.109 1.172 1.109C6.078.125 6.72-1.75 6.72-1.844zm0 0"/></svg><svg overflow="visible" x="562.1" y="19.662"><path d="M5.328-1.406c0-.078-.266-.297-.328-.297-.063 0-.234.062-.297.156C3.75-.359 2.593-.39 2.453-.39c-.937 0-.844-.875-.844-1.265 0-.14 0-.5.141-1.11h.484c.344 0 1.235-.015 1.829-.265.843-.36 1.093-1.203 1.093-1.375 0-.516-.656-1.14-1.468-1.14-1.329 0-3.344 1.296-3.344 3.39C.344-.937 1.25.125 2.422.125c1.719 0 2.906-1.39 2.906-1.531zm-.969-3c0 1.25-1.703 1.125-2.203 1.125h-.25c.422-1.688 1.469-1.735 1.782-1.735.562 0 .671.204.671.61zm0 0"/></svg><svg overflow="visible" x="567.671" y="19.662"><path d="M7.016-1.844c0-.11-.297-.25-.329-.25-.125 0-.328.172-.39.344-.234.813-.422 1.36-1.016 1.36-.203 0-.093.015-.093-.266 0-.297.109-.594.218-.844.219-.64.719-1.953.719-2.64 0-.798-.703-1.407-1.563-1.407-1.078 0-1.796.797-2 1.078l.329.094c-.063-.672-.735-1.172-1.282-1.172-.562 0-.921.5-1.14.89C.313-4.327.14-3.624.14-3.577c0 .125.484.219.484.219l-.14.03c.124 0 .328-.14.406-.405.203-.844.25-1.282.671-1.282.25 0 .172.016.172.407 0 .265-.03.39-.187 1.015L.844-.844c-.031.188-.11.469-.11.516 0 .219.375.453.563.453.14 0 .547-.219.656-.547-.078.156.125-.5.203-.797l.266-1.078c.062-.265.14-.531.203-.797l.14-.594c.188-.374.626-1.328 1.766-1.328.532 0 .438.313.438.704 0 .734-.578 2.265-.766 2.78-.11.282-.125.423-.125.548 0 .562.625 1.109 1.188 1.109 1.125 0 1.75-1.875 1.75-1.969zm0 0"/></svg></g><g><svg overflow="visible" x="578.347" y="19.662"><path d="M3.578-7.61c0-.234-.344-.546-.625-.546-.328 0-.844.437-.844.75 0 .234.36.562.657.562.265 0 .812-.406.812-.765zm.11 5.766c0-.11-.297-.25-.329-.25-.125 0-.328.172-.39.344-.203.766-.406 1.36-1.016 1.36-.203 0-.094.015-.094-.266 0-.297.079-.469.36-1.203l.453-1.25c.156-.344.156-.375.265-.688.094-.25.157-.406.157-.64 0-.532-.578-1.11-1.172-1.11C.797-5.547.14-3.687.14-3.578c0 .125.484.219.484.219l-.14.03c.124 0 .328-.155.39-.343.313-1.125.61-1.344 1.016-1.344.093 0 .093-.14.093.25 0 .25-.078.5-.125.625-.109.297-.64 1.688-.828 2.204-.125.312-.281.703-.281.953 0 .562.61 1.109 1.188 1.109 1.125 0 1.75-1.86 1.75-1.969zm0 0"/></svg></g><g><svg overflow="visible" x="585.795" y="19.662"><path d="M8.828-4.281c0-.125-.312-.375-.437-.375H.906c-.125 0-.437.25-.437.375 0 .14.312.375.437.375h7.485c.125 0 .437-.235.437-.375zm0 2.328c0-.14-.312-.375-.437-.375H.906c-.125 0-.437.234-.437.375 0 .125.312.36.437.36h7.485c.125 0 .437-.235.437-.36zm0 0"/></svg></g><g><svg overflow="visible" x="598.42" y="19.662"><path d="M5.688-3.953c0-.953-.063-1.922-.47-2.797-.562-1.156-1.734-1.469-2.234-1.469-.718 0-1.796.438-2.28 1.547-.376.828-.438 1.766-.438 2.719 0 .89.109 2.062.593 2.969.516.968 1.532 1.25 2.11 1.25.656 0 1.75-.391 2.281-1.516.375-.828.438-1.766.438-2.703zm-1.391-.14c0 .89 0 1.702-.125 2.468C4-.485 3.516-.265 2.969-.265 2.516-.266 2-.438 1.78-1.579c-.125-.719-.125-1.813-.125-2.516 0-.765 0-1.562.094-2.203.219-1.422.922-1.406 1.219-1.406.406 0 .984.094 1.219 1.266.109.671.109 1.578.109 2.343zm0 0"/></svg></g></svg>