<svg xmlns="http://www.w3.org/2000/svg" xmlns:xlink="http://www.w3.org/1999/xlink" width="169px" height="36" viewBox="0 0 127 27"><svg overflow="visible" x="-.245" y="18.179"><path d="M1.688 2.625V-9.031c-.235.062-.344.078-.438.078-.094 0-.203-.016-.438-.078V2.78c.235-.062.344-.062.438-.062.094 0 .203 0 .438.062zm0 0"/></svg><svg overflow="visible" x="2.266" y="18.179"><path d="M1.656 1.656v-9.719A1.95 1.95 0 011.25-8c-.11 0-.203-.016-.438-.063v9.891c.235-.062.329-.078.438-.078.094 0 .188.016.406.078zm0 0"/></svg><svg overflow="visible" x="4.752" y="18.179"><path d="M4.938-8.875c-.204-.094-.547-.156-.844-.156-.125 0-.422.078-.578.156-.125.063-1.204.828-1.485 1.125-.265.25-.437.703-.578 1.39l-.156.876c-.36.171-.61.265-1.016.421l-.125.485h.985l-.094.531C.687-1.703.25.516-.016 1.343c-.218.704-.421.938-.859.938-.266 0-.313-.047-.578-.375l-.328.11c-.078.375-.203.859-.328 1.109.171.11.453.172.593.172.485 0 1.235-.406 1.688-.969.734-.86 1.016-1.781 1.906-5.984.063-.297.156-.656.203-.922h1.25c.063-.36.156-.64.219-.813l-.11-.234-.156.063c-.28.078-.406.078-1 .078h-.03l.218-1.204c.203-1.03.406-1.359.953-1.359.36 0 .578.14.797.5l.281-.11.313-.905.078-.235zm0 0"/></svg><svg overflow="visible" x="10.013" y="18.179"><path d="M4.203-7.828a.735.735 0 01-.187-.14c-.063-.063-.11-.126-.22-.329-1.593 1.61-2.5 3.266-2.5 4.781v.797c0 1.516.907 3.172 2.5 4.781.11-.203.157-.265.22-.328.062-.062.125-.109.312-.203C2.875.063 2.281-1.344 2.281-2.719v-.797c0-1.39.594-2.78 2.047-4.25zm0 0"/></svg><svg overflow="visible" x="15.082" y="18.179"><path d="M5.875-5.875c-.14-.078-.344-.156-.453-.156-.469 0-1.063.468-1.797 1.578l-.453.656.25.094-.078-.578c-.14-1.188-.594-1.75-1.297-1.75-.313 0-.688.14-.797.297L.484-4.61l.407.25c.437-.485.578-.61.812-.61.39 0 .516.36.719 1.532l.125.718-.438.656C1.594-1.25 1.297-.905.953-.905c-.172 0-.172.078-.203.015l-.188-.468-.453.062c0 .36-.03.516-.093.89-.032.141-.047.173-.063.329.219.125.531.203.672.203.39 0 .953-.375 1.328-.938l.906-1.406-.234-.094.125.829c.172 1.015.578 1.609 1 1.609.266 0 .75-.234 1.125-.578l.64-.578-.218-.469c-.578.453-.766.61-.953.61-.188 0-.25-.094-.453-.5.015.046-.11-.407-.172-.75L3.5-3.313l.39-.532c.563-.765.782-1.015 1.157-1.015.187 0 .187-.032.312.312l.36-.11.203-1.171zm0 0"/></svg><svg overflow="visible" x="21.203" y="18.179"><path d="M2.703-1.531L2.47-1.75c-.36.125-.563.203-1.328.406C1.047-.328.78.344.016 1.625l.312.25.61-.281C1.905.328 2.405-.516 2.75-1.47zm0 0"/></svg><svg overflow="visible" x="26.188" y="18.179"><path d="M5.953-5.875l-.203-.156c-.375.14-.64.203-1.016.234l-.453 1.703c-.14.563-.531 1.344-.922 1.938-.421.61-.89 1.094-1.156 1.094-.265 0-.11-.438-.094-.594l.172-2.328c.031-.36.047-.829.047-1.157 0-.53-.219-.89-.422-.89-.156 0-.422.125-1 .515L-.14-4.78l.266.437.734-.453c.063-.047.125-.11.204-.11.312 0 .125.485.109.673L.969-1.328l-.016.484c-.015.5.36.969.656.969.454 0 1.547-1.047 2.438-2.39l-.234-.094-.579 2.03c-.609 2.126-1.078 2.86-1.906 2.86-.422 0-.61-.187-.61-.61 0-.062.016-.155.032-.343l-.297-.11-.672.485c-.015.156-.015.219-.015.281 0 .516.578 1.063 1.125 1.063 1.265 0 2.703-1.61 3.406-3.828L6-5.828zm0 0"/></svg><svg overflow="visible" x="32.381" y="18.179"><path d="M3.766-2.719v-.797c0-1.515-.907-3.171-2.516-4.78-.11.202-.156.265-.203.327-.063.063-.125.11-.313.203 1.438 1.47 2.032 2.86 2.032 4.25v.797c0 1.375-.594 2.781-2.032 4.25.188.094.25.14.313.203.047.063.094.125.203.329C2.86.452 3.766-1.204 3.766-2.72zm0 0"/></svg><svg overflow="visible" x="37.45" y="18.179"><path d="M1.688 2.625V-9.031c-.235.062-.344.078-.438.078-.094 0-.203-.016-.438-.078V2.78c.235-.062.344-.062.438-.062.094 0 .203 0 .438.062zm0 0"/></svg><svg overflow="visible" x="41.957" y="18.179"><path d="M1.656 1.656v-9.719A1.95 1.95 0 011.25-8c-.11 0-.203-.016-.438-.063v9.891c.235-.062.329-.078.438-.078.094 0 .188.016.406.078zm0 0"/></svg><svg overflow="visible" x="47.767" y="18.179"><path d="M8.266-4.078a1.419 1.419 0 01-.047-.36c0-.109.015-.234.062-.484h-7.5c.063.25.063.375.063.484 0 .125 0 .235-.063.5h7.5zm0 2.625a1.332 1.332 0 01-.047-.36c0-.109.015-.234.062-.484h-7.5c.063.25.063.375.063.485 0 .125 0 .25-.063.5h7.5zm0 0"/></svg><svg overflow="visible" x="60.165" y="18.179"><path d="M7.422-13.094c-.25-.14-.672-.281-.969-.281-.328 0-1.016.313-1.219.531-.406.453-.687.766-1.093 1.281-.141.188-.235.532-.313.813-.375 1.297-.375 5.078-.375 7.625 0 2.61 0 6.813-.172 7.797-.187 1-.406 1.297-1.031 1.281-.297-.016-.172-.25-.203-.906H.937a5.986 5.986 0 01-.14 1.766c.297.187.734.328 1.047.328.312 0 1-.313 1.187-.547.406-.453.703-.75 1.11-1.282.14-.171.234-.515.312-.812.375-1.281.375-5.063.375-7.625 0-2.594 0-6.813.188-7.781.171-1.016.39-1.313 1.03-1.281.282 0 .141.25.188.906h1.11c-.047-.797.031-1.36.125-1.766zm0 0"/></svg><svg overflow="visible" x="68.461" y="7.117"><path d="M4.406-3.453c0-.344-.125-.781-.234-.922-.078-.078-.313-.156-.453-.156-.219 0-.516.078-.781.203-.5.234-.938.531-1.532 1.234L1.672-3l.844-3.563-.25-.203c-.532.25-.875.329-1.688.391l-.11.453h.657c.234 0 .172-.078.172.078 0 .063-.016.157-.016.203L.297-.766C.28-.734.28-.703.28-.672c0 .344.625.766 1.156.766.36 0 .954-.203 1.36-.469.937-.61 1.61-1.922 1.61-3.078zm-1 .203c0 .578-.156 1.234-.437 1.813-.328.609-.594.859-1.125.859-.438 0-.532-.078-.532-.453 0-.219.047-.469.125-.797.188-.703.375-1.031.766-1.406.313-.297.703-.516.985-.516.25 0 .218.078.218.5zm0 0"/></svg><svg overflow="visible" x="65.843" y="26.343"><path d="M4.156-.89L4-1.298c-.25.188-.266.188-.297.234-.312.235-.344.282-.5.282-.094 0 .016.062.016-.078 0-.047 0-.063.015-.094l.891-3.39-.25-.204-.344.172c-.36-.125-.547-.156-.797-.156-.28 0-.468.047-.734.156-.61.281-1.031.578-1.266 1.016C.313-2.58-.03-1.422-.03-.72c0 .375.312.813.484.813.203 0 .672-.219 1.031-.5.407-.328.782-.75 1.313-1.438l-.266-.093-.265 1.125a1.58 1.58 0 00-.063.453c0 .203.25.453.39.453.22 0 .72-.281 1.579-.938zM3-3.798c-.203.953-.344 1.313-.672 1.766-.531.734-1.015 1.25-1.344 1.25-.109 0-.015.015-.015-.235 0-.562.25-1.546.594-2.28.218-.5.312-.532.78-.532.22 0 .407.031.641.11zm0 0"/></svg><svg overflow="visible" x="75.596" y="18.062"><path d="M9.063-11.61v-.843H7.14L4.67 3.422h.282l-1.594-6H1.297v.969h.828l1.969 7.484c.281-.047.437-.047.61-.047.155 0 .312 0 .577.047l2.703-17.344h1.079zm0 0"/></svg><path d="M84.168 6.227h42.078" fill="none" stroke-width=".717" stroke="#000" stroke-miterlimit="10"/><svg overflow="visible" x="84.168" y="18.18"><path d="M4.938-8.875c-.204-.094-.547-.156-.844-.156-.125 0-.422.078-.578.156-.125.063-1.204.828-1.485 1.125-.265.25-.437.703-.578 1.39l-.156.876c-.36.171-.61.265-1.016.421l-.125.485h.985l-.094.531C.687-1.703.25.516-.016 1.343c-.218.704-.421.938-.859.938-.266 0-.313-.047-.578-.375l-.328.11c-.078.375-.203.859-.328 1.109.171.11.453.172.593.172.485 0 1.235-.406 1.688-.969.734-.86 1.016-1.781 1.906-5.984.063-.297.156-.656.203-.922h1.25c.063-.36.156-.64.219-.813l-.11-.234-.156.063c-.28.078-.406.078-1 .078h-.03l.218-1.204c.203-1.03.406-1.359.953-1.359.36 0 .578.14.797.5l.281-.11.313-.905.078-.235zm0 0"/></svg><svg overflow="visible" x="89.44" y="14.641"><path d="M2.594-4.672l-.203-.187-1.094.39-.89 3.36.312.234.5-.25 1.437-3.484zm0 0"/></svg><svg overflow="visible" x="92.51" y="14.641"><path d="M4.75-.11c-.016-.187-.016-.265-.016-.39s0-.203.032-.547l-3.141.094 1.5-1.469c.938-.906 1.266-1.5 1.266-2.156 0-1.016-.891-1.781-2.125-1.781-.688 0-1.282.218-1.782.687L.297-4.266h.547l.172-.546c.156-.516.359-.594 1-.594.828 0 1.203.343 1.203 1.093 0 .657-.36 1.22-1.453 2.282L.078-.391v.422L2.391 0l2.375.031zm0 0"/></svg><g><svg overflow="visible" x="87.492" y="20.954"><path d="M4.86-4.406c-.126-.063-.313-.125-.391-.125-.39 0-.89.36-1.485 1.172l-.359.484.266.094-.063-.422c-.11-.875-.515-1.328-1.094-1.328-.25 0-.578.11-.671.218l-.641.875.406.22c.36-.376.453-.454.625-.454.328 0 .375.219.531 1.094l.11.515-.328.485c-.422.594-.641.828-.907.828-.14 0-.093.11-.109.063l-.172-.407-.453.063c0 .297-.016.406-.078.687-.016.11-.016.14-.031.266.187.11.468.172.578.172.312 0 .797-.281 1.094-.703l.734-1.032-.266-.109.11.625c.125.75.5 1.219.843 1.219.22 0 .625-.188.938-.438l.531-.437-.203-.438c-.516.39-.64.485-.781.485-.156 0-.172-.047-.266-.235-.094-.156-.156-.39-.203-.656l-.172-.844.297-.375c.453-.578.61-.75.906-.75.157 0 .11-.062.219.235l.36-.094.187-.922zm0 0"/></svg></g><g><svg overflow="visible" x="100.664" y="18.18"><path d="M8.266-2.766a1.332 1.332 0 01-.047-.359c0-.11.015-.234.062-.484h-3.25v-3.266c-.25.063-.375.078-.484.078-.125 0-.25-.016-.5-.078v3.266H.78c.063.25.063.375.063.484 0 .125 0 .25-.063.5h3.266V.641c.25-.063.375-.079.5-.079.11 0 .234.016.484.079v-3.266h3.25zm0 0"/></svg></g><g><svg overflow="visible" x="112.404" y="18.18"><path d="M4.938-8.875c-.204-.094-.547-.156-.844-.156-.125 0-.422.078-.578.156-.125.063-1.204.828-1.485 1.125-.265.25-.437.703-.578 1.39l-.156.876c-.36.171-.61.265-1.016.421l-.125.485h.985l-.094.531C.687-1.703.25.516-.016 1.343c-.218.704-.421.938-.859.938-.266 0-.313-.047-.578-.375l-.328.11c-.078.375-.203.859-.328 1.109.171.11.453.172.593.172.485 0 1.235-.406 1.688-.969.734-.86 1.016-1.781 1.906-5.984.063-.297.156-.656.203-.922h1.25c.063-.36.156-.64.219-.813l-.11-.234-.156.063c-.28.078-.406.078-1 .078h-.03l.218-1.204c.203-1.03.406-1.359.953-1.359.36 0 .578.14.797.5l.281-.11.313-.905.078-.235zm0 0"/></svg></g><g><svg overflow="visible" x="117.679" y="14.641"><path d="M2.594-4.672l-.203-.187-1.094.39-.89 3.36.312.234.5-.25 1.437-3.484zm0 0"/></svg><svg overflow="visible" x="120.749" y="14.641"><path d="M4.75-.11c-.016-.187-.016-.265-.016-.39s0-.203.032-.547l-3.141.094 1.5-1.469c.938-.906 1.266-1.5 1.266-2.156 0-1.016-.891-1.781-2.125-1.781-.688 0-1.282.218-1.782.687L.297-4.266h.547l.172-.546c.156-.516.359-.594 1-.594.828 0 1.203.343 1.203 1.093 0 .657-.36 1.22-1.453 2.282L.078-.391v.422L2.391 0l2.375.031zm0 0"/></svg></g><g><svg overflow="visible" x="115.73" y="20.954"><path d="M4.922-4.406l-.188-.14a3.25 3.25 0 01-.875.202L3.5-3.062c-.125.421-.406.968-.734 1.406-.329.437-.688.797-.907.797-.203 0-.03-.297-.03-.407l.14-1.718c.015-.266.047-.61.047-.86 0-.39-.22-.687-.391-.687-.125 0-.375.093-.828.39l-.89.563.265.375.64-.36c.047-.03.063-.062.141-.062.235 0 .047.313.031.453L.828-1.016l-.015.36c0 .36.343.75.578.75.359 0 1.265-.781 2-1.782l-.266-.093-.484 1.5c-.485 1.578-.813 2.078-1.485 2.078-.328 0-.453-.094-.453-.406 0-.047.016-.11.047-.266l-.297-.11-.578.376c-.031.125-.031.187-.031.234 0 .375.531.813.969.813 1.015 0 2.218-1.22 2.78-2.86l1.391-3.937zm0 0"/></svg></g></svg>