<svg xmlns="http://www.w3.org/2000/svg" xmlns:xlink="http://www.w3.org/1999/xlink" width="189px" height="44" viewBox="0 0 142 33"><svg overflow="visible" x="-1.109" y="20.619"><path d="M2.094 2.625V-8.859c0-.125-.297-.375-.438-.375-.125 0-.437.25-.437.375V2.625c0 .125.312.36.437.36.14 0 .438-.235.438-.36zm0 0"/></svg><svg overflow="visible" x="2.215" y="20.619"><path d="M2.094 2.625V-8.859c0-.125-.297-.375-.438-.375-.125 0-.437.25-.437.375V2.625c0 .125.312.36.437.36.14 0 .438-.235.438-.36zm0 0"/></svg><svg overflow="visible" x="5.538" y="20.619"><path d="M6.797-7.734c0-.547-.75-.954-1.234-.954-.407 0-1.36.344-1.72 1.532-.077.25-.109.36-.374 1.734h-.64c-.235 0-.563.14-.563.36 0 .156.296.28.53.28h.563L2.484-.186c-.218 1.156-.218 2.109-.828 2.109-.047 0-.218.031-.218.031.187-.016.484-.578.484-.766 0-.265-.406-.546-.625-.546-.313 0-.86.406-.86.859 0 .531.72.953 1.22.953.655 0 1.312-.844 1.687-1.61.172-.343.5-1.89.515-1.968l.688-3.656h.875c.234 0 .547-.125.547-.375 0-.125-.313-.266-.516-.266h-.781c.11-.547.094-.531.234-1.219.047-.25.157-1.015.219-1.156l.063-.094c.109-.218.125-.265.375-.265.046 0 .203-.047.218-.031-.156.03-.484.578-.484.75 0 .28.422.546.64.546.313 0 .86-.39.86-.843zm0 0"/></svg><svg overflow="visible" x="12.472" y="20.619"><path d="M4.156 2.719c0-.047-.078-.172-.11-.203-1.234-.922-2-3.22-2-5.141v-1c0-1.906.767-4.203 2-5.14a.457.457 0 00.11-.188c0-.063-.25-.25-.312-.25a1.01 1.01 0 00-.203.062C2.312-8.156 1-5.67 1-3.625v1C1-.578 2.313 1.906 3.64 2.906c.016.016.188.063.204.063.062 0 .312-.203.312-.25zm0 0"/></svg><svg overflow="visible" x="17.123" y="20.619"><path d="M6.484-4.625c0-.625-.89-.922-1.296-.922-.688 0-1.25.672-1.235.61-.125-.36-.969-.61-1.312-.61-1.235 0-2.125 1.672-2.125 1.969 0 .125.468.219.468.219l-.125.03c.094 0 .329-.155.344-.25.406-1.28 1.016-1.437 1.422-1.437.219 0 .438-.03.438.672 0 .36-.204 1.172-.641 2.844-.203.734-.406 1.11-.938 1.11-.078 0-.218.03-.218.03-.079.016.375-.374.375-.703 0-.328-.454-.546-.641-.546-.36 0-.86.437-.86.828 0 .547.797.906 1.329.906.797 0 1.36-.86 1.39-.938l-.343-.093c.156.437.78 1.031 1.5 1.031 1.234 0 2.109-1.672 2.109-1.969 0-.11-.297-.25-.344-.25-.11 0-.328.188-.36.266-.39 1.281-1 1.437-1.374 1.437-.469 0-.469-.25-.469-.656 0-.266.063-.531.203-1.062l.406-1.625c.063-.313.157-1.282.985-1.282a.604.604 0 00.187-.046c.079 0-.359.421-.359.718 0 .188.328.547.656.547.266 0 .828-.344.828-.828zm0 0"/></svg><svg overflow="visible" x="23.961" y="20.619"><path d="M2.625-.14c0-.797-.5-1.391-.969-1.391-.39 0-.828.437-.828.765 0 .329.438.766.828.766.157 0 .438-.078.563-.188l.047-.046s-.313-.078-.313.093c0 .875-.344 1.5-.75 1.891-.125.14-.187.266-.187.297 0 .078.265.265.328.265.125 0 1.281-1.062 1.281-2.453zm0 0"/></svg><svg overflow="visible" x="29.269" y="20.619"><path d="M6.047-4.953c0-.219-.36-.469-.531-.469-.125 0-.454.11-.641.406-.016.047-.11.407-.156.625l-.235.954-.546 2.156c-.047.187-.36.89-1.141.89-.61 0-.547-.39-.547-.843 0-.547.203-1.282.61-2.344.187-.485.234-.625.234-.86 0-.53-.578-1.109-1.172-1.109C.782-5.547.14-3.687.14-3.578c0 .125.484.219.484.219l-.14.03c.124 0 .328-.155.39-.343.313-1.125.61-1.344 1.016-1.344.093 0 .093-.14.093.25 0 .297-.125.61-.203.829-.484 1.265-.687 1.953-.687 2.515 0 1.063.953 1.547 1.656 1.547.469 0 1-.234 1.344-.563L3.75-.53c-.156.61-.234 1.11-.719 1.734-.312.406-.61.719-1.172.719-.156 0-.515.094-.656-.234-.062 0 .234-.032.406-.188.11-.094.297-.36.297-.578 0-.375-.515-.547-.64-.547-.282 0-.875.313-.875.906 0 .594.734 1.172 1.468 1.172 1.235 0 2.657-1.219 3-2.578L6-4.688c.047-.171.047-.187.047-.265zm0 0"/></svg><svg overflow="visible" x="35.462" y="20.619"><path d="M3.64-2.625v-1c0-2.047-1.328-4.531-2.64-5.516a.774.774 0 00-.203-.062c-.063 0-.313.187-.313.25 0 .031.079.172.094.187 1.25.938 2.016 3.235 2.016 5.141v1c0 1.922-.766 4.219-2.016 5.14-.015.032-.094.157-.094.204 0 .047.25.25.313.25A.774.774 0 001 2.906c1.313-1 2.64-3.484 2.64-5.531zm0 0"/></svg><svg overflow="visible" x="40.113" y="20.619"><path d="M2.094 2.625V-8.859c0-.125-.297-.375-.438-.375-.125 0-.437.25-.437.375V2.625c0 .125.312.36.437.36.14 0 .438-.235.438-.36zm0 0"/></svg><svg overflow="visible" x="45.433" y="20.619"><path d="M2.094 2.625V-8.859c0-.125-.297-.375-.438-.375-.125 0-.437.25-.437.375V2.625c0 .125.312.36.437.36.14 0 .438-.235.438-.36zm0 0"/></svg><svg overflow="visible" x="52.08" y="20.619"><path d="M8.828-4.281c0-.125-.312-.375-.437-.375H.906c-.125 0-.437.25-.437.375 0 .14.312.375.437.375h7.485c.125 0 .437-.235.437-.375zm0 2.328c0-.14-.312-.375-.437-.375H.906c-.125 0-.437.234-.437.375 0 .125.312.36.437.36h7.485c.125 0 .437-.235.437-.36zm0 0"/></svg><svg overflow="visible" x="64.692" y="20.619"><path d="M11.469-15.281c0-.656-.844-1.25-1.5-1.25-.906 0-1.781 1.437-2.438 3.875-.031.125-1.656 6.125-2.984 13.953C4.25 3.125 3.89 5.109 3.5 6.78c-.219.875-.563 2.985-1.531 2.985-.422 0-.594-.047-.594-.047l-.125.031c.375-.016.766-.422.766-.719 0-.39-.485-.719-.766-.719s-.781.313-.781.735c0 .61.797 1.25 1.531 1.25 1.813 0 2.688-2.938 3.531-6.406A155.67 155.67 0 007.875-7.531c.438-2.547.89-4.938 1.297-6.485.14-.578.36-1.984.828-1.984.36 0 .516.188.344.016-.031.015-.438.406-.438.703 0 .406.5.719.781.719.282 0 .782-.313.782-.72zm0 0"/></svg><svg overflow="visible" x="76.647" y="6.44"><path d="M4.156-2.453c0-.985-.89-1.563-1.468-1.563-.438 0-.954.297-1.204.516l.36.11.578-2.36c-.063.125-.031.016-.031.016l.062-.125c0-.032-.234-.266-.344-.266-.171 0-.859.063-1.078.078-.062.016-.39.172-.39.36 0 .109.328.265.437.265.39 0 .188-.094.188-.031 0 .062-.079.39-.141.594l-.188.765-.546 2.219c-.047.203-.047.313-.047.422 0 .844.75 1.531 1.437 1.531 1.047 0 2.375-1.297 2.375-2.531zm-1.093-.36c0 .344-.126 1.094-.532 1.876-.11.218-.312.468-.734.468s-.438-.203-.438-.703c0-.297.079-.594.313-1.531.047-.156-.016-.063.14-.25.313-.36.547-.5.844-.5.328 0 .406.078.406.64zm0 0"/></svg><svg overflow="visible" x="69.582" y="32.586"><path d="M4.984-1.36c0-.109-.312-.265-.343-.265-.11 0-.329.188-.391.422-.094.406-.047.734-.39.734-.22 0-.079-.031-.079-.25 0-.14.078-.453.125-.656l.188-.766c.078-.312.093-.359.172-.625.046-.218.14-.625.14-.656 0-.187-.36-.437-.484-.437-.14 0-.547.265-.594.5l.344-.11c-.172-.281-.594-.547-1-.547-1.078 0-2.375 1.344-2.375 2.547 0 .813.766 1.547 1.484 1.547.453 0 .985-.297 1.078-.39.063.156.75.39.97.39.296 0 .655-.219.796-.484.188-.328.36-.922.36-.953zm-1.78-1.53c0 .03-.017.093-.017.124l-.406 1.563c-.047.234-.172.297-.36.453-.077.063-.265.281-.624.281-.313 0-.39-.062-.39-.656 0-.438.171-1.25.359-1.578.39-.672.671-.75.906-.75.594 0 .531.469.531.562zm0 0"/></svg><svg overflow="visible" x="83.339" y="20.308"><path d="M12.39-13.64c0-.126-.296-.376-.437-.376-.172 0-.437.297-.484.454L5.344 5.843h.39L3.063-3.484 1.077-1.156l.438.406.703-.828 2.687 9.344c.563 0 .766-.125.86-.422l6.562-20.75c.063-.172 0-.14 0-.14zm0 0"/></svg><path d="M95.293 6.8h45.816" fill="none" stroke-width=".478" stroke="#000" stroke-miterlimit="10"/><svg overflow="visible" x="95.294" y="20.619"><path d="M6.797-7.734c0-.547-.75-.954-1.234-.954-.407 0-1.36.344-1.72 1.532-.077.25-.109.36-.374 1.734h-.64c-.235 0-.563.14-.563.36 0 .156.296.28.53.28h.563L2.484-.186c-.218 1.156-.218 2.109-.828 2.109-.047 0-.218.031-.218.031.187-.016.484-.578.484-.766 0-.265-.406-.546-.625-.546-.313 0-.86.406-.86.859 0 .531.72.953 1.22.953.655 0 1.312-.844 1.687-1.61.172-.343.5-1.89.515-1.968l.688-3.656h.875c.234 0 .547-.125.547-.375 0-.125-.313-.266-.516-.266h-.781c.11-.547.094-.531.234-1.219.047-.25.157-1.015.219-1.156l.063-.094c.109-.218.125-.265.375-.265.046 0 .203-.047.218-.031-.156.03-.484.578-.484.75 0 .28.422.546.64.546.313 0 .86-.39.86-.843zm0 0"/></svg><svg overflow="visible" x="102.228" y="17.164"><path d="M3.063-4.313c0-.25-.422-.609-.672-.609-.172 0-.563.281-.61.406l-1.5 3.72H1L2.922-3.97c.047-.062.14-.265.14-.344zm0 0"/></svg><svg overflow="visible" x="105.634" y="17.164"><path d="M4.234-1.844H3.75c-.047.344-.063.735-.172.813-.062.047-.562 0-.687 0H1.812c.563-.5.86-.735 1.36-1.125.625-.5 1.265-1.14 1.265-1.938 0-1-1.093-1.781-2.171-1.781-1.032 0-1.954.89-1.954 1.656 0 .422.579.625.657.625.203 0 .656-.297.656-.61 0-.14-.266-.593-.422-.593.188-.437.547-.469.938-.469.843 0 1.062.5 1.062 1.172 0 .735-.453 1.203-.719 1.5l-2.03 2C.374-.516.311-.39.311 0h3.844l.313-1.844zm0 0"/></svg><g><svg overflow="visible" x="101.152" y="23.572"><path d="M5.094-3.234c0-.47-.75-.782-1.078-.782-.422 0-.907.329-.922.344.031.078-.563-.344-1.031-.344C1.125-4.016.39-2.828.39-2.578c0 .11.328.281.343.281.11 0 .329-.203.375-.312.204-.657.532-.844.938-.844.265 0 .297-.016.297.39 0 .172-.11.579-.188.876l-.281 1.14c-.078.281-.156.578-.578.578-.031 0-.125.047-.078.078-.032.016.203-.453.203-.5 0-.187-.344-.468-.547-.468-.234 0-.688.359-.688.671 0 .422.688.766 1.094.766.39 0 .875-.281.907-.344.03.047.687.344 1.03.344.954 0 1.688-1.203 1.688-1.437 0-.11-.328-.266-.343-.266-.125 0-.344.203-.375.297-.172.578-.47.86-.938.86-.328 0-.297-.063-.297-.391 0-.22.203-.97.438-1.907.156-.64.328-.687.609-.687l.14-.047s-.015 0-.093-.047c.125-.031-.172.36-.172.5 0 .188.344.469.531.469.203 0 .688-.313.688-.656zm0 0"/></svg></g><g><svg overflow="visible" x="113.551" y="20.619"><path d="M8.828-3.125c0-.125-.312-.36-.437-.36H5.078v-3.374c0-.141-.297-.375-.422-.375-.14 0-.453.234-.453.375v3.375H.906c-.125 0-.437.234-.437.359 0 .14.312.375.437.375h3.297V.625c0 .125.313.36.453.36.125 0 .422-.235.422-.36V-2.75h3.313c.125 0 .437-.234.437-.375zm0 0"/></svg></g><g><svg overflow="visible" x="125.506" y="20.619"><path d="M6.797-7.734c0-.547-.75-.954-1.234-.954-.407 0-1.36.344-1.72 1.532-.077.25-.109.36-.374 1.734h-.64c-.235 0-.563.14-.563.36 0 .156.296.28.53.28h.563L2.484-.186c-.218 1.156-.218 2.109-.828 2.109-.047 0-.218.031-.218.031.187-.016.484-.578.484-.766 0-.265-.406-.546-.625-.546-.313 0-.86.406-.86.859 0 .531.72.953 1.22.953.655 0 1.312-.844 1.687-1.61.172-.343.5-1.89.515-1.968l.688-3.656h.875c.234 0 .547-.125.547-.375 0-.125-.313-.266-.516-.266h-.781c.11-.547.094-.531.234-1.219.047-.25.157-1.015.219-1.156l.063-.094c.109-.218.125-.265.375-.265.046 0 .203-.047.218-.031-.156.03-.484.578-.484.75 0 .28.422.546.64.546.313 0 .86-.39.86-.843zm0 0"/></svg></g><g><svg overflow="visible" x="132.443" y="17.164"><path d="M3.063-4.313c0-.25-.422-.609-.672-.609-.172 0-.563.281-.61.406l-1.5 3.72H1L2.922-3.97c.047-.062.14-.265.14-.344zm0 0"/></svg><svg overflow="visible" x="135.849" y="17.164"><path d="M4.234-1.844H3.75c-.047.344-.063.735-.172.813-.062.047-.562 0-.687 0H1.812c.563-.5.86-.735 1.36-1.125.625-.5 1.265-1.14 1.265-1.938 0-1-1.093-1.781-2.171-1.781-1.032 0-1.954.89-1.954 1.656 0 .422.579.625.657.625.203 0 .656-.297.656-.61 0-.14-.266-.593-.422-.593.188-.437.547-.469.938-.469.843 0 1.062.5 1.062 1.172 0 .735-.453 1.203-.719 1.5l-2.03 2C.374-.516.311-.39.311 0h3.844l.313-1.844zm0 0"/></svg></g><g><svg overflow="visible" x="131.367" y="23.572"><path d="M4.906-3.5c0-.172-.343-.422-.5-.422-.078 0-.39.094-.484.25a3.37 3.37 0 00-.188.594l-.187.687-.328 1.36.344.11S3.046-.47 2.39-.47c-.563 0-.36-.39-.36-.531 0-.453.203-.984.453-1.625.094-.266.141-.375.141-.516 0-.406-.563-.875-1.016-.875-.843 0-1.421 1.297-1.421 1.438 0 .11.328.281.343.281.125 0 .344-.203.36-.297.218-.703.359-.86.703-.86.14 0 0-.077 0 .126s-.078.375-.125.484C1.079-1.813.984-1.5.984-1.14c0 .141.063.657.391.922.266.219.766.297.984.297.344 0 .782-.156 1.063-.406l-.36-.125c-.109.469-.14.703-.484 1.125-.234.25-.422.484-.86.484-.062 0-.312.047-.343.016.172-.031.313-.484.313-.484l.062-.11c0-.265-.453-.484-.531-.484C1 .094.516.422.516.813c0 .421.609.89 1.203.89.86 0 2.093-.812 2.343-1.86l.797-3.155c.047-.126.047-.141.047-.188zm0 0"/></svg></g></svg>